<svg id="icons" height="512" viewBox="0 0 64 64" width="512" xmlns="http://www.w3.org/2000/svg"><g id="path4573"><path d="m60 54h-11.30762a.5.5 0 0 1 0-1h11.30762a2.50231 2.50231 0 0 0 2.5-2.5v-22.5h-61v22.5a2.50231 2.50231 0 0 0 2.5 2.5h11.30762a.5.5 0 0 1 0 1h-11.30762a3.50424 3.50424 0 0 1 -3.5-3.5v-23a.49971.49971 0 0 1 .5-.5h62a.49971.49971 0 0 1 .5.5v23a3.50424 3.50424 0 0 1 -3.5 3.5z" fill="#4d5662"/></g><path d="m17 15.5c14.65 0 31-10 31-10v10z" fill="#d8e0eb"/><g id="path4621"><path d="m48 16a.49971.49971 0 0 1 -.5-.5v-9.12891c-3.41113 1.94922-17.67285 9.62891-30.5 9.62891a.5.5 0 0 1 0-1c14.333 0 30.57715-9.82715 30.73926-9.92676a.5.5 0 0 1 .76074.42676v10a.49971.49971 0 0 1 -.5.5z" fill="#d8e0eb"/></g><path d="m1 17.5v33a2.996 2.996 0 0 0 3 3h56a2.996 2.996 0 0 0 3-3v-33z" fill="#4d5662"/><path d="m48 15.5h-31-3v2l2 5h32l2-5v-2z" fill="#636a74"/><path d="m27 15.5h10v4h-10z" fill="#a7b0c6"/><path d="m26 34.5h12v4h-12z" fill="#a7b0c6"/><path d="m49 45.49994h-34a1.003 1.003 0 0 0 -1 1v7.45593h36v-7.45593a1.003 1.003 0 0 0 -1-1z" fill="#38424e"/><g id="rect4589"><path d="m38 39h-12a.49971.49971 0 0 1 -.5-.5v-4a.49971.49971 0 0 1 .5-.5h12a.49971.49971 0 0 1 .5.5v4a.49971.49971 0 0 1 -.5.5zm-11.5-1h11v-3h-11z" fill="#a7b0c6"/></g><g id="path4593"><path d="m63 28a.49971.49971 0 0 1 -.5-.5v-9.5h-12.5a.5.5 0 0 1 0-1h13a.49971.49971 0 0 1 .5.5v10a.49971.49971 0 0 1 -.5.5z" fill="#4d5662"/></g><g id="path4597"><path d="m1 28a.49971.49971 0 0 1 -.5-.5v-10a.49971.49971 0 0 1 .5-.5h13a.5.5 0 0 1 0 1h-12.5v9.5a.49971.49971 0 0 1 -.5.5z" fill="#4d5662"/></g><g id="path4601"><path d="m48 23h-32a.49836.49836 0 0 1 -.46387-.31445l-2-5a.48318.48318 0 0 1 -.03613-.18555v-2a.49971.49971 0 0 1 .5-.5h36a.49971.49971 0 0 1 .5.5v2a.48318.48318 0 0 1 -.03613.18555l-2 5a.49836.49836 0 0 1 -.46387.31445zm-31.66113-1h31.32226l1.83887-4.59668v-1.40332h-35v1.40332z" fill="#636a74"/></g><g id="rect4605"><path d="m37 20h-10a.49971.49971 0 0 1 -.5-.5v-4a.49971.49971 0 0 1 .5-.5h10a.49971.49971 0 0 1 .5.5v4a.49971.49971 0 0 1 -.5.5zm-9.5-1h9v-3h-9z" fill="#a7b0c6"/></g><g fill="#38424e"><path d="m.5 27h63v1h-63z"/><path d="m8.5 27.5h1.016v26.5h-1.016z"/><path d="m54.484 27.5h1.016v26.5h-1.016z"/></g><path d="m48.69 52.5-3.229-7h-26.922l-3.229 7-2.31 5h38z" fill="#e6ecf4"/><path d="m51.4541 57.29-5.44153-11.79h-1.102l5.30818 11.5h-36.4375l5.30817-11.5h-1.102l-5.44152 11.79a.50054.50054 0 0 0 .4541.71h38a.50054.50054 0 0 0 .4541-.71z" fill="#e6ecf4"/></svg>