<svg id="icons" height="512" viewBox="0 0 64 64" width="512" xmlns="http://www.w3.org/2000/svg"><path d="m34.41 12.59a1.966 1.966 0 0 1 .59 1.41v1.22a20.6352 20.6352 0 0 0 -5.99 1.79l-.01-.01v-3a2.00588 2.00588 0 0 1 2-2h2a1.966 1.966 0 0 1 1.41.59z" fill="#636a74"/><path d="m61.15 31.92c1.05 3.47 1.85 6.08 1.85 6.08s-9.8 9.15-13.56 12.65a4.97514 4.97514 0 0 1 -3.41 1.35h-45.03s1.09-1.54 2.81-4h25.19z" fill="#e6ecf4"/><path d="m45.41 29.59a1.966 1.966 0 0 1 .59 1.41v2h-10v-2a2.01456 2.01456 0 0 1 2-2h6a1.966 1.966 0 0 1 1.41.59z" fill="#636a74"/><path d="m22.81 21.43 2.19 6.57-7 9h-6.46c3.1-4.41 6.39-9.1 9.14-13.01a20.08561 20.08561 0 0 1 2.13-2.56z" fill="#e6ecf4"/><path d="m36 33h10a5.04261 5.04261 0 0 0 5-5.04v-1.98a4.9289 4.9289 0 0 0 -2-3.98l6.08-6.08a5.261 5.261 0 0 1 2.06 2.81c1.08 3.57 2.74 9 4.01 13.19l-32.15 16.08h-25.19c.81-1.15 1.76-2.51 2.81-4 11 0 25.38-4 28.38-11z" fill="#a27ff9"/><path d="m55.08 15.92-6.08 6.08a4.90427 4.90427 0 0 0 -2.98-1h-7.02a7.9978 7.9978 0 0 0 -8 8 3.99464 3.99464 0 0 0 4 4c-3 7-17.38 11-28.38 11 1.49-2.12 3.17-4.51 4.92-7h6.46l7-9-2.19-6.57a20.852 20.852 0 0 1 6.2-4.42 20.6352 20.6352 0 0 1 5.99-1.79 19.766 19.766 0 0 1 2.99-.22h14.11a5.32828 5.32828 0 0 1 2.98.92z" fill="#b18fff"/></svg>