<svg id="icons" height="512" viewBox="0 0 64 64" width="512" xmlns="http://www.w3.org/2000/svg"><path d="m12 32-1 4h-4v-4z" fill="#cad1e1"/><g id="path5064"><path d="m6.999 40.5a.49972.49972 0 0 1 -.5-.5v-8a.5.5 0 0 1 1 0v8a.49971.49971 0 0 1 -.5.5z" fill="#636a74"/></g><g id="path5088"><path d="m51.999 9.5a.49972.49972 0 0 1 -.5-.5v-5a.5.5 0 0 1 1 0v5a.49971.49971 0 0 1 -.5.5z" fill="#d8e0eb"/></g><g id="path5092"><path d="m55.999 9.5a.49972.49972 0 0 1 -.5-.5v-3a.5.5 0 0 1 1 0v3a.49971.49971 0 0 1 -.5.5z" fill="#d8e0eb"/></g><g id="path5096"><path d="m47.999 9.5a.49972.49972 0 0 1 -.5-.5v-3a.5.5 0 0 1 1 0v3a.49971.49971 0 0 1 -.5.5z" fill="#d8e0eb"/></g><path d="m33 24a2.01442 2.01442 0 0 1 2 2v16a2.01455 2.01455 0 0 1 -2 2h26v-20z" fill="#d8e0eb"/><path d="m33 44h-30a2.01455 2.01455 0 0 0 -2 2v8a2.00592 2.00592 0 0 0 2 2h54a1.99947 1.99947 0 0 0 2-2v-10z" fill="#e6ecf4"/><path d="m57 9h-54a2.00587 2.00587 0 0 0 -2 2v19a2.01467 2.01467 0 0 0 2 2h11l3-8h42v-13a1.99943 1.99943 0 0 0 -2-2z" fill="#e6ecf4"/><path d="m61 13a2.00588 2.00588 0 0 1 2 2v4a2.00588 2.00588 0 0 1 -2 2h-2v-8z" fill="#4d5662"/><path d="m4 58.99994a1.003 1.003 0 0 0 1 1h4a1.003 1.003 0 0 0 1-1v-3h-6z" fill="#636a74"/><path d="m50 55.99994v3a1.003 1.003 0 0 0 1 1h4a1.003 1.003 0 0 0 1-1v-3z" fill="#636a74"/><rect fill="#d8e0eb" height="4" rx="1" width="12" x="43" y="48"/><rect fill="#636a74" height="5" rx="1" width="5" x="43" y="34"/><circle cx="23.5" cy="17.5" fill="#d8e0eb" r="3.5"/><path d="m16 4.99994h-2a1.003 1.003 0 0 0 -1 1v3h4v-3a1.003 1.003 0 0 0 -1-1z" fill="#4d5662"/><path d="m6 8.99994v16a1.003 1.003 0 0 0 1 1h2a1.003 1.003 0 0 0 1-1v-16z" fill="#636a74"/><path d="m18.499 44h1v12h-1z" fill="#d8e0eb"/><circle cx="23.5" cy="16.5" fill="#fff" r="3.5"/></svg>