<svg id="icons" height="512" viewBox="0 0 64 64" width="512" xmlns="http://www.w3.org/2000/svg"><path d="m54.51 9.49a29.04616 29.04616 0 0 0 -20.51-8.49h-4a28.98685 28.98685 0 0 0 -29 29v33h6v-2h50v2h6v-33a29.0459 29.0459 0 0 0 -8.49-20.51z" fill="#e6ecf4"/><path d="m55.83 25a15.73561 15.73561 0 0 0 -4.25-6 15.9227 15.9227 0 0 0 -10.58-4h-18a15.92293 15.92293 0 0 0 -10.58 4 16.013 16.013 0 0 0 -5.42 12v30h50v-30a15.76272 15.76272 0 0 0 -1.17-6z" fill="#cad1e1"/><rect fill="#fff" height="6" rx="1" width="4" x="34" y="5"/><path d="m49.66 31a18.98209 18.98209 0 0 0 -31.5-6 18.988 18.988 0 1 0 27.68 26 18.95527 18.95527 0 0 0 3.82-20z" fill="#636a74"/><rect fill="#fff" height="6" rx="1" width="4" x="26" y="5"/><g fill="#d8e0eb"><path d="m7 37.5v.5.5h50v-.5-.5z"/><path d="m7 31v.5h50v-.5c0-.16858-.019-.33258-.02417-.5h-49.95166c-.00517.16742-.02417.33142-.02417.5z"/><path d="m7 44.5v.5.5h50v-.5-.5z"/><path d="m8.17 25c-.06689.16284-.11584.33441-.17736.5h48.01468c-.06152-.16559-.11047-.33716-.17736-.5-.06873-.17206-.16065-.33105-.23523-.5h-47.18946c-.07458.169-.1665.32794-.23527.5z"/><path d="m7 50.5v.5.5h50v-.5-.5z"/><path d="m7 56.5v.5.5h50v-.5-.5z"/><path d="m52.08789 19.5c-.17163-.16449-.3291-.34344-.50793-.5-.19873-.17548-.41163-.33441-.619-.5h-37.9219c-.20739.16559-.42029.32452-.619.5-.17883.15656-.3363.33551-.50793.5z"/></g></svg>