<svg id="icons" height="512" viewBox="0 0 64 64" width="512" xmlns="http://www.w3.org/2000/svg"><path d="m53.51 5.68a2.00392 2.00392 0 0 0 -1.51-.68h-40a1.98657 1.98657 0 0 0 -2 2v49.13a3.00747 3.00747 0 0 0 .24005 1.16 2.89536 2.89536 0 0 0 2.62995 1.71h38.26a2.89544 2.89544 0 0 0 2.63-1.71 3.00743 3.00743 0 0 0 .24-1.16v-49.13a2.02344 2.02344 0 0 0 -.49-1.32z" fill="#d8e0eb"/><path d="m53.76 57.29s-.27 2.31-.51 3.99a2.00956 2.00956 0 0 1 -1.98 1.72h-38.54a2.00956 2.00956 0 0 1 -1.98-1.72c-.24-1.68-.51-3.99-.51-3.99a2.89546 2.89546 0 0 0 2.63 1.71h38.26a2.89546 2.89546 0 0 0 2.63-1.71z" fill="#636a74"/><path d="m52 5h-40a2.0039 2.0039 0 0 0 -1.51.68s.64-1.98 1.1-3.33a1.98239 1.98239 0 0 1 1.89-1.35h37.04a1.98239 1.98239 0 0 1 1.89 1.35c.46 1.35 1.1 3.33 1.1 3.33a2.0039 2.0039 0 0 0 -1.51-.68z" fill="#636a74"/><path d="m50 25v28a2.00588 2.00588 0 0 1 -2 2h-32a1.99944 1.99944 0 0 1 -2-2v-28a2.00588 2.00588 0 0 1 2-2h32a2.00588 2.00588 0 0 1 2 2z" fill="#e6ecf4"/><rect fill="#cad1e1" height="4" rx="1" width="10" x="27" y="11"/><g id="circle5640"><path d="m18.01953 30a1 1 0 0 1 -.00976-2h.00976a1 1 0 1 1 0 2z" fill="#d8e0eb"/></g><g id="circle5640-2" data-name="circle5640"><path d="m18.01953 35a1 1 0 0 1 -.00976-2h.00976a1 1 0 1 1 0 2z" fill="#d8e0eb"/></g><g id="circle5640-3" data-name="circle5640"><path d="m18.01953 40a1 1 0 0 1 -.00976-2h.00976a1 1 0 1 1 0 2z" fill="#d8e0eb"/></g><g id="circle5640-4" data-name="circle5640"><path d="m18.01953 45a1 1 0 0 1 -.00976-2h.00976a1 1 0 1 1 0 2z" fill="#d8e0eb"/></g><g id="circle5640-5" data-name="circle5640"><path d="m18.01953 50a1 1 0 0 1 -.00976-2h.00976a1 1 0 1 1 0 2z" fill="#d8e0eb"/></g><g id="circle5640-6" data-name="circle5640"><path d="m24.01953 30a1 1 0 0 1 -.00976-2h.00976a1 1 0 1 1 0 2z" fill="#d8e0eb"/></g><g id="circle5640-7" data-name="circle5640"><path d="m24.01953 35a1 1 0 0 1 -.00976-2h.00976a1 1 0 1 1 0 2z" fill="#d8e0eb"/></g><g id="circle5640-8" data-name="circle5640"><path d="m24.01953 40a1 1 0 0 1 -.00976-2h.00976a1 1 0 1 1 0 2z" fill="#d8e0eb"/></g><g id="circle5640-9" data-name="circle5640"><path d="m24.01953 45a1 1 0 0 1 -.00976-2h.00976a1 1 0 1 1 0 2z" fill="#d8e0eb"/></g><g id="circle5640-10" data-name="circle5640"><path d="m24.01953 50a1 1 0 0 1 -.00976-2h.00976a1 1 0 1 1 0 2z" fill="#d8e0eb"/></g><g id="circle5640-11" data-name="circle5640"><path d="m29.01953 30a1 1 0 0 1 -.00976-2h.00976a1 1 0 1 1 0 2z" fill="#d8e0eb"/></g><g id="circle5640-12" data-name="circle5640"><path d="m29.01953 35a1 1 0 0 1 -.00976-2h.00976a1 1 0 1 1 0 2z" fill="#d8e0eb"/></g><g id="circle5640-13" data-name="circle5640"><path d="m29.01953 40a1 1 0 0 1 -.00976-2h.00976a1 1 0 1 1 0 2z" fill="#d8e0eb"/></g><g id="circle5640-14" data-name="circle5640"><path d="m29.01953 45a1 1 0 0 1 -.00976-2h.00976a1 1 0 1 1 0 2z" fill="#d8e0eb"/></g><g id="circle5640-15" data-name="circle5640"><path d="m29.01953 50a1 1 0 0 1 -.00976-2h.00976a1 1 0 1 1 0 2z" fill="#d8e0eb"/></g><g id="circle5640-16" data-name="circle5640"><path d="m35.01953 30a1 1 0 0 1 -.00976-2h.00976a1 1 0 0 1 0 2z" fill="#d8e0eb"/></g><g id="circle5640-17" data-name="circle5640"><path d="m35.01953 35a1 1 0 0 1 -.00976-2h.00976a1 1 0 0 1 0 2z" fill="#d8e0eb"/></g><g id="circle5640-18" data-name="circle5640"><path d="m35.01953 40a1 1 0 0 1 -.00976-2h.00976a1 1 0 0 1 0 2z" fill="#d8e0eb"/></g><g id="circle5640-19" data-name="circle5640"><path d="m35.01953 45a1 1 0 0 1 -.00976-2h.00976a1 1 0 0 1 0 2z" fill="#d8e0eb"/></g><g id="circle5640-20" data-name="circle5640"><path d="m35.01953 50a1 1 0 0 1 -.00976-2h.00976a1 1 0 0 1 0 2z" fill="#d8e0eb"/></g><g id="circle5640-21" data-name="circle5640"><path d="m40.01953 30a1 1 0 0 1 -.00976-2h.00976a1 1 0 0 1 0 2z" fill="#d8e0eb"/></g><g id="circle5640-22" data-name="circle5640"><path d="m40.01953 35a1 1 0 0 1 -.00976-2h.00976a1 1 0 0 1 0 2z" fill="#d8e0eb"/></g><g id="circle5640-23" data-name="circle5640"><path d="m40.01953 40a1 1 0 0 1 -.00976-2h.00976a1 1 0 0 1 0 2z" fill="#d8e0eb"/></g><g id="circle5640-24" data-name="circle5640"><path d="m40.01953 45a1 1 0 0 1 -.00976-2h.00976a1 1 0 0 1 0 2z" fill="#d8e0eb"/></g><g id="circle5640-25" data-name="circle5640"><path d="m40.01953 50a1 1 0 0 1 -.00976-2h.00976a1 1 0 0 1 0 2z" fill="#d8e0eb"/></g><g id="circle5640-26" data-name="circle5640"><path d="m46.01953 30a1 1 0 0 1 -.00976-2h.00976a1 1 0 0 1 0 2z" fill="#d8e0eb"/></g><g id="circle5640-27" data-name="circle5640"><path d="m46.01953 35a1 1 0 0 1 -.00976-2h.00976a1 1 0 0 1 0 2z" fill="#d8e0eb"/></g><g id="circle5640-28" data-name="circle5640"><path d="m46.01953 40a1 1 0 0 1 -.00976-2h.00976a1 1 0 0 1 0 2z" fill="#d8e0eb"/></g><g id="circle5640-29" data-name="circle5640"><path d="m46.01953 45a1 1 0 0 1 -.00976-2h.00976a1 1 0 0 1 0 2z" fill="#d8e0eb"/></g><g id="circle5640-30" data-name="circle5640"><path d="m46.01953 50a1 1 0 0 1 -.00976-2h.00976a1 1 0 0 1 0 2z" fill="#d8e0eb"/></g></svg>