<svg id="icons" height="512" viewBox="0 0 64 64" width="512" xmlns="http://www.w3.org/2000/svg"><path d="m48 5h-32a1.003 1.003 0 0 0 -1 1v47h34v-47a1.003 1.003 0 0 0 -1-1z" fill="#e6ecf4"/><rect fill="#d8e0eb" height="4" rx="1" width="10" x="27" y="45"/><circle cx="32" cy="17" fill="#fff" r="6"/><path d="m49 53v3a2.01456 2.01456 0 0 1 -2 2h-30a2.01456 2.01456 0 0 1 -2-2v-3z" fill="#636a74"/><path d="m48 5h-32a3.9989 3.9989 0 0 1 4-4h24a3.9989 3.9989 0 0 1 4 4z" fill="#636a74"/><path d="m18 58h28s-.91 2.26-1.5 3.74a1.9963 1.9963 0 0 1 -1.85 1.26h-21.3a1.9963 1.9963 0 0 1 -1.85-1.26c-.6-1.48-1.5-3.74-1.5-3.74z" fill="#4d5662"/><g fill="#636a74"><path d="m32 23.5a6.5 6.5 0 1 1 6.5-6.5 6.50753 6.50753 0 0 1 -6.5 6.5zm0-12a5.5 5.5 0 1 0 5.5 5.5 5.50685 5.50685 0 0 0 -5.5-5.5z"/><path d="m32 17.5a.5.5 0 0 1 -.35352-.85352l1.41407-1.41406a.49995.49995 0 1 1 .707.707l-1.41406 1.41407a.49842.49842 0 0 1 -.35349.14651z"/></g></svg>