<svg id="icons" height="512" viewBox="0 0 64 64" width="512" xmlns="http://www.w3.org/2000/svg"><path d="m51.1 41.01a34.97709 34.97709 0 0 1 -1.00995-4 6.07277 6.07277 0 0 1 -.09-1c0-1.44 1.27-3.93 1.79-4.81a16.4633 16.4633 0 0 1 -2.68.81 40.41266 40.41266 0 0 1 -10.11 1v24.35a3.65108 3.65108 0 0 0 3.65 3.65h4.37a3.64657 3.64657 0 0 0 3.59-2.99 74.74754 74.74754 0 0 0 1.38995-12.01 19.68865 19.68865 0 0 0 -.9-5z" fill="#f3445a"/><path d="m49.1 4a42.69558 42.69558 0 0 0 -11.1-1c-.33 0-.66 0-1 .00995a59.5498 59.5498 0 0 0 -11 .99005 92.63457 92.63457 0 0 0 -12 3.73v20.54a92.6347 92.6347 0 0 0 12 3.73 59.55535 59.55535 0 0 0 11 .99c.34.01.67.01 1 .01h1a40.32756 40.32756 0 0 0 10.1-1 16.41877 16.41877 0 0 0 2.62-.79 31.61313 31.61313 0 0 0 7.28-4.21v-18s-5-4-9.9-5z" fill="#ff5666"/><path d="m39 41v1h-2a2 2 0 0 1 0-4h2z" fill="#4d5662"/><path d="m39 46v6h-2a2.00588 2.00588 0 0 1 -2-2v-2a2.00588 2.00588 0 0 1 2-2z" fill="#4d5662"/><path d="m63 12v12l-4 2v-8-8z" fill="#636a74"/><path d="m6 5h-5v26h5l4.63-4.03v-17.93z" fill="#4d5662"/><path d="m10.63 26.97c-2.79-1.13-4.63-1.97-4.63-1.97v-14s1.84-.84 4.63-1.96c1.02-.41 2.15-.86 3.37-1.31v20.54c-1.22-.45-2.35-.9-3.37-1.3z" fill="#636a74"/><path d="m37 3.01c-.16479.00171-.3338.00677-.5.00952v12.98048a.5.5 0 0 0 1 0v-12.99506c-.16626.00122-.33 0-.5.00506z" fill="#f3445a"/><path d="m37 19.5a.49971.49971 0 0 0 -.5.5v12.98047c.1662.00275.33521.00781.5.00952.17.005.33374.00378.5.005v-12.99499a.49971.49971 0 0 0 -.5-.5z" fill="#f3445a"/><g id="path7587"><path d="m25 18.5h-4a.5.5 0 0 1 0-1h4a.5.5 0 0 1 0 1z" fill="#f3445a"/></g><g id="path7591"><path d="m53 18.5h-4a.5.5 0 0 1 0-1h4a.5.5 0 0 1 0 1z" fill="#f3445a"/></g><path d="m50.18256 37.5c-.03162-.164-.06964-.334-.09253-.49-.03064-.1836-.03089-.34064-.0459-.51h-11.04413v1z" fill="#e2394d"/><path d="m39 41.01v.49h12.22992c-.04388-.16321-.08527-.32794-.12994-.49-.04871-.17218-.097-.33972-.14576-.51h-11.95422z" fill="#e2394d"/><path d="m41.41 16.59a2 2 0 0 1 -1.41 3.41h-6a2 2 0 1 1 0-4h6a1.966 1.966 0 0 1 1.41.59z" fill="#636a74"/></svg>