<svg id="icons" height="512" viewBox="0 0 64 64" width="512" xmlns="http://www.w3.org/2000/svg"><rect fill="#636a74" height="40" rx="6" width="40" x="1" y="17"/><path d="m62.41 7.59a1.96591 1.96591 0 0 0 -1.41-.59h-14a2.01446 2.01446 0 0 0 -2 2v46a2.01456 2.01456 0 0 0 2 2h14a2.01467 2.01467 0 0 0 2-2v-46a1.966 1.966 0 0 0 -.59-1.41z" fill="#636a74"/><rect fill="#4d5662" height="4" rx="1" width="16" x="13" y="32"/><circle cx="54" cy="31" fill="#4d5662" r="5"/><g id="path7668"><path d="m59.001 14h-2a1 1 0 0 1 0-2h2a1 1 0 0 1 0 2z" fill="#4d5662"/></g><g id="path7672"><path d="m59.001 42h-2a1 1 0 0 1 0-2h2a1 1 0 0 1 0 2z" fill="#4d5662"/></g><g id="path7676"><path d="m59.001 22h-2a1 1 0 0 1 0-2h2a1 1 0 0 1 0 2z" fill="#4d5662"/></g><g id="path7680"><path d="m59.001 50h-2a1 1 0 0 1 0-2h2a1 1 0 0 1 0 2z" fill="#4d5662"/></g><g id="path7684"><path d="m59.001 54h-2a1 1 0 0 1 0-2h2a1 1 0 0 1 0 2z" fill="#4d5662"/></g><g id="path7688"><path d="m59.001 18h-10a1 1 0 0 1 0-2h10a1 1 0 0 1 0 2z" fill="#4d5662"/></g><g id="path7692"><path d="m59.001 46h-10a1 1 0 0 1 0-2h10a1 1 0 0 1 0 2z" fill="#4d5662"/></g><g id="path7696"><path d="m51.001 14h-2a1 1 0 0 1 0-2h2a1 1 0 0 1 0 2z" fill="#4d5662"/></g><g id="path7700"><path d="m51.001 42h-2a1 1 0 0 1 0-2h2a1 1 0 0 1 0 2z" fill="#4d5662"/></g><g id="path7704"><path d="m51.001 22h-2a1 1 0 0 1 0-2h2a1 1 0 0 1 0 2z" fill="#4d5662"/></g><g id="path7708"><path d="m51.001 50h-2a1 1 0 0 1 0-2h2a1 1 0 0 1 0 2z" fill="#4d5662"/></g><g id="path7712"><path d="m51.001 54h-2a1 1 0 0 1 0-2h2a1 1 0 0 1 0 2z" fill="#4d5662"/></g><circle cx="54" cy="30" fill="#e6ecf4" r="5"/><g id="path7668-2" data-name="path7668"><path d="m59.001 13h-2a1 1 0 0 1 0-2h2a1 1 0 0 1 0 2z" fill="#e6ecf4"/></g><g id="path7672-2" data-name="path7672"><path d="m59.001 41h-2a1 1 0 0 1 0-2h2a1 1 0 0 1 0 2z" fill="#e6ecf4"/></g><g id="path7676-2" data-name="path7676"><path d="m59.001 21h-2a1 1 0 0 1 0-2h2a1 1 0 0 1 0 2z" fill="#e6ecf4"/></g><g id="path7680-2" data-name="path7680"><path d="m59.001 49h-2a1 1 0 0 1 0-2h2a1 1 0 0 1 0 2z" fill="#e6ecf4"/></g><g id="path7684-2" data-name="path7684"><path d="m59.001 53h-2a1 1 0 0 1 0-2h2a1 1 0 0 1 0 2z" fill="#e6ecf4"/></g><g id="path7688-2" data-name="path7688"><path d="m59.001 17h-10a1 1 0 0 1 0-2h10a1 1 0 0 1 0 2z" fill="#e6ecf4"/></g><g id="path7692-2" data-name="path7692"><path d="m59.001 45h-10a1 1 0 0 1 0-2h10a1 1 0 0 1 0 2z" fill="#e6ecf4"/></g><g id="path7696-2" data-name="path7696"><path d="m51.001 13h-2a1 1 0 0 1 0-2h2a1 1 0 0 1 0 2z" fill="#e6ecf4"/></g><g id="path7700-2" data-name="path7700"><path d="m51.001 41h-2a1 1 0 0 1 0-2h2a1 1 0 0 1 0 2z" fill="#e6ecf4"/></g><g id="path7704-2" data-name="path7704"><path d="m51.001 21h-2a1 1 0 0 1 0-2h2a1 1 0 0 1 0 2z" fill="#e6ecf4"/></g><g id="path7708-2" data-name="path7708"><path d="m51.001 49h-2a1 1 0 0 1 0-2h2a1 1 0 0 1 0 2z" fill="#e6ecf4"/></g><g id="path7712-2" data-name="path7712"><path d="m51.001 53h-2a1 1 0 0 1 0-2h2a1 1 0 0 1 0 2z" fill="#e6ecf4"/></g><path d="m17.001 53.5h8a.5.5 0 0 0 0-1h-8a.5.5 0 0 0 0 1z" fill="#4d5662"/></svg>