<svg id="icons" height="512" viewBox="0 0 64 64" width="512" xmlns="http://www.w3.org/2000/svg"><rect fill="#636a74" height="40" rx="6" width="62" x="1" y="12"/><path d="m59 19v26a3.00452 3.00452 0 0 1 -3 3h-48a3.00452 3.00452 0 0 1 -3-3v-26a3.00452 3.00452 0 0 1 3-3h48a3.00452 3.00452 0 0 1 3 3z" fill="#4d5662"/><g id="circle7800"><path d="m32.02051 29a1 1 0 0 1 -.00977-2h.00977a1 1 0 0 1 0 2z" fill="#a0d964"/></g><g id="circle7800-2" data-name="circle7800"><path d="m32.02051 37a1 1 0 0 1 -.00977-2h.00977a1 1 0 0 1 0 2z" fill="#a0d964"/></g><g id="path7808"><path d="m40.001 25h-4a1 1 0 0 1 0-2h4a1 1 0 0 1 0 2z" fill="#a0d964"/></g><g id="path7812"><path d="m53.001 25h-4a1 1 0 0 1 0-2h4a1 1 0 0 1 0 2z" fill="#a0d964"/></g><g id="path7816"><path d="m15.001 25h-4a1 1 0 1 1 0-2h4a1 1 0 0 1 0 2z" fill="#a0d964"/></g><g id="path7820"><path d="m26.001 25h-4a1 1 0 0 1 0-2h4a1 1 0 0 1 0 2z" fill="#a0d964"/></g><g id="path7824"><path d="m40.001 33h-4a1 1 0 0 1 0-2h4a1 1 0 0 1 0 2z" fill="#a0d964"/></g><g id="path7828"><path d="m40.001 41h-4a1 1 0 0 1 0-2h4a1 1 0 0 1 0 2z" fill="#a0d964"/></g><g id="path7832"><path d="m53.001 41h-4a1 1 0 0 1 0-2h4a1 1 0 0 1 0 2z" fill="#a0d964"/></g><g id="path7836"><path d="m15.001 41h-4a1 1 0 1 1 0-2h4a1 1 0 0 1 0 2z" fill="#a0d964"/></g><g id="path7840"><path d="m42.001 31a.99942.99942 0 0 1 -1-1v-4a1 1 0 0 1 2 0v4a.99943.99943 0 0 1 -1 1z" fill="#a0d964"/></g><g id="path7844"><path d="m55.001 31a.99942.99942 0 0 1 -1-1v-4a1 1 0 0 1 2 0v4a.99943.99943 0 0 1 -1 1z" fill="#a0d964"/></g><g id="path7848"><path d="m17.001 31a.99942.99942 0 0 1 -1-1v-4a1 1 0 0 1 2 0v4a.99943.99943 0 0 1 -1 1z" fill="#a0d964"/></g><g id="path7852"><path d="m28.001 31a.99942.99942 0 0 1 -1-1v-4a1 1 0 0 1 2 0v4a.99943.99943 0 0 1 -1 1z" fill="#a0d964"/></g><g id="path7856"><path d="m47.001 31a.99942.99942 0 0 1 -1-1v-4a1 1 0 0 1 2 0v4a.99943.99943 0 0 1 -1 1z" fill="#a0d964"/></g><g id="path7860"><path d="m9.001 31a.99942.99942 0 0 1 -1-1v-4a1 1 0 0 1 2 0v4a.99943.99943 0 0 1 -1 1z" fill="#a0d964"/></g><g id="path7864"><path d="m42.001 39a.99942.99942 0 0 1 -1-1v-4a1 1 0 0 1 2 0v4a.99943.99943 0 0 1 -1 1z" fill="#a0d964"/></g><g id="path7868"><path d="m55.001 39a.99942.99942 0 0 1 -1-1v-4a1 1 0 0 1 2 0v4a.99943.99943 0 0 1 -1 1z" fill="#a0d964"/></g><g id="path7872"><path d="m17.001 39a.99942.99942 0 0 1 -1-1v-4a1 1 0 0 1 2 0v4a.99943.99943 0 0 1 -1 1z" fill="#a0d964"/></g><g id="path7876"><path d="m28.001 39a.99942.99942 0 0 1 -1-1v-4a1 1 0 0 1 2 0v4a.99943.99943 0 0 1 -1 1z" fill="#a0d964"/></g><g id="path7880"><path d="m47.001 39a.99942.99942 0 0 1 -1-1v-4a1 1 0 0 1 2 0v4a.99943.99943 0 0 1 -1 1z" fill="#a0d964"/></g><g id="path7884"><path d="m9.001 39a.99942.99942 0 0 1 -1-1v-4a1 1 0 0 1 2 0v4a.99943.99943 0 0 1 -1 1z" fill="#a0d964"/></g></svg>