<svg id="icons" height="512" viewBox="0 0 64 64" width="512" xmlns="http://www.w3.org/2000/svg"><path d="m62.12 15.88a2.99708 2.99708 0 0 0 -2.12-.88h-52a3.00442 3.00442 0 0 0 -3 3v38a3.00442 3.00442 0 0 0 3 3h52a3.00452 3.00452 0 0 0 3-3v-38a2.99708 2.99708 0 0 0 -.88-2.12z" fill="#4d5662"/><rect fill="#66a9ff" height="9" rx="1" width="9" x="50" y="19"/><rect fill="#66a9ff" height="4" rx="1" width="9" x="50" y="35"/><path d="m30.41 11.58a1.99786 1.99786 0 0 0 -1.41-.58h-18a1.99738 1.99738 0 0 0 -2 2v18h22v-18a2.006 2.006 0 0 0 -.59-1.42z" fill="#a7b0c6"/><path d="m20 52.5a.49971.49971 0 0 0 -.5.5v6.11035a3.39318 3.39318 0 0 1 -3.38867 3.38965h-11.22266a3.39318 3.39318 0 0 1 -3.38867-3.38965v-15.11328a3.50133 3.50133 0 0 1 3.49805-3.49707v-1a4.50263 4.50263 0 0 0 -4.49805 4.49707v15.11328a4.39385 4.39385 0 0 0 4.38867 4.38965h11.22266a4.39385 4.39385 0 0 0 4.38867-4.38965v-6.11035a.49971.49971 0 0 0 -.5-.5z" fill="#a7b0c6"/><path d="m45.5 14.999h1v44h-1z" fill="#38424e"/><g id="path8030"><path d="m53 46.999h-2a1 1 0 0 1 0-2h2a1 1 0 0 1 0 2z" fill="#38424e"/></g><g id="path8034"><path d="m53 50.999h-2a1 1 0 0 1 0-2h2a1 1 0 0 1 0 2z" fill="#38424e"/></g><g id="path8038"><path d="m53 55h-2a1 1 0 0 1 0-2h2a1 1 0 0 1 0 2z" fill="#38424e"/></g><g id="path8042"><path d="m58 46.999h-2a1 1 0 0 1 0-2h2a1 1 0 0 1 0 2z" fill="#38424e"/></g><g id="path8046"><path d="m58 50.999h-2a1 1 0 0 1 0-2h2a1 1 0 0 1 0 2z" fill="#38424e"/></g><g id="path8050"><path d="m58 55h-2a1 1 0 0 1 0-2h2a1 1 0 0 1 0 2z" fill="#38424e"/></g><g id="path8030-2" data-name="path8030"><path d="m53 45.999h-2a1 1 0 0 1 0-2h2a1 1 0 0 1 0 2z" fill="#e6ecf4"/></g><g id="path8034-2" data-name="path8034"><path d="m53 49.999h-2a1 1 0 0 1 0-2h2a1 1 0 0 1 0 2z" fill="#e6ecf4"/></g><g id="path8038-2" data-name="path8038"><path d="m53 54h-2a1 1 0 0 1 0-2h2a1 1 0 0 1 0 2z" fill="#e6ecf4"/></g><g id="path8042-2" data-name="path8042"><path d="m58 45.999h-2a1 1 0 0 1 0-2h2a1 1 0 0 1 0 2z" fill="#e6ecf4"/></g><g id="path8046-2" data-name="path8046"><path d="m58 49.999h-2a1 1 0 0 1 0-2h2a1 1 0 0 1 0 2z" fill="#e6ecf4"/></g><g id="path8050-2" data-name="path8050"><path d="m58 54h-2a1 1 0 0 1 0-2h2a1 1 0 0 1 0 2z" fill="#e6ecf4"/></g><g id="path8054"><path d="m41.999 22.499h-7a.5.5 0 0 1 0-1h7a.5.5 0 0 1 0 1z" fill="#38424e"/></g><g id="path8054-2" data-name="path8054"><path d="m30.5 31.5h-21a.5.5 0 0 1 0-1h21a.5.5 0 0 1 0 1z" fill="#a7b0c6"/></g><g id="path8058"><path d="m38.999 26.499h-4a.5.5 0 0 1 0-1h4a.5.5 0 0 1 0 1z" fill="#38424e"/></g><g id="circle4796"><path d="m31.5025 39.49951a1 1 0 0 1 -.00977-2h.00977a1 1 0 0 1 0 2z" fill="#38424e"/></g><g id="circle4796-2" data-name="circle4796"><path d="m36.50246 39.49951a1 1 0 0 1 -.00977-2h.00977a1 1 0 0 1 0 2z" fill="#38424e"/></g><g id="circle4796-3" data-name="circle4796"><path d="m41.50242 39.49951a1 1 0 0 1 -.00977-2h.00977a1 1 0 0 1 0 2z" fill="#38424e"/></g><g id="circle4796-4" data-name="circle4796"><path d="m31.5025 45.4995a1 1 0 0 1 -.00977-2h.00977a1 1 0 0 1 0 2z" fill="#38424e"/></g><g id="circle4796-5" data-name="circle4796"><path d="m36.50246 45.4995a1 1 0 0 1 -.00977-2h.00977a1 1 0 0 1 0 2z" fill="#38424e"/></g><g id="circle4796-6" data-name="circle4796"><path d="m41.50242 45.4995a1 1 0 0 1 -.00977-2h.00977a1 1 0 0 1 0 2z" fill="#38424e"/></g><g id="circle4796-7" data-name="circle4796"><path d="m31.5025 51.49949a1 1 0 0 1 -.00977-2h.00977a1 1 0 0 1 0 2z" fill="#38424e"/></g><g id="circle4796-8" data-name="circle4796"><path d="m36.50246 51.49949a1 1 0 0 1 -.00977-2h.00977a1 1 0 0 1 0 2z" fill="#38424e"/></g><g id="circle4796-9" data-name="circle4796"><path d="m41.50242 51.49949a1 1 0 0 1 -.00977-2h.00977a1 1 0 0 1 0 2z" fill="#38424e"/></g><g id="circle4796-10" data-name="circle4796"><path d="m31.5025 38.49951a1 1 0 0 1 -.00977-2h.00977a1 1 0 0 1 0 2z" fill="#e6ecf4"/></g><g id="circle4796-11" data-name="circle4796"><path d="m36.50246 38.49951a1 1 0 0 1 -.00977-2h.00977a1 1 0 0 1 0 2z" fill="#e6ecf4"/></g><g id="circle4796-12" data-name="circle4796"><path d="m41.50242 38.49951a1 1 0 0 1 -.00977-2h.00977a1 1 0 0 1 0 2z" fill="#e6ecf4"/></g><g id="circle4796-13" data-name="circle4796"><path d="m31.5025 44.4995a1 1 0 0 1 -.00977-2h.00977a1 1 0 0 1 0 2z" fill="#e6ecf4"/></g><g id="circle4796-14" data-name="circle4796"><path d="m36.50246 44.4995a1 1 0 0 1 -.00977-2h.00977a1 1 0 0 1 0 2z" fill="#e6ecf4"/></g><g id="circle4796-15" data-name="circle4796"><path d="m41.50242 44.4995a1 1 0 0 1 -.00977-2h.00977a1 1 0 0 1 0 2z" fill="#e6ecf4"/></g><g id="circle4796-16" data-name="circle4796"><path d="m31.5025 50.49949a1 1 0 0 1 -.00977-2h.00977a1 1 0 0 1 0 2z" fill="#e6ecf4"/></g><g id="circle4796-17" data-name="circle4796"><path d="m36.50246 50.49949a1 1 0 0 1 -.00977-2h.00977a1 1 0 0 1 0 2z" fill="#e6ecf4"/></g><g id="circle4796-18" data-name="circle4796"><path d="m41.50242 50.49949a1 1 0 0 1 -.00977-2h.00977a1 1 0 0 1 0 2z" fill="#e6ecf4"/></g><path d="m27 31v19a2.996 2.996 0 0 1 -3 3h-8a2.996 2.996 0 0 1 -3-3v-46a2.996 2.996 0 0 1 3-3h8a2.996 2.996 0 0 1 3 3z" fill="#636a74"/></svg>