<svg id="icons" height="512" viewBox="0 0 64 64" width="512" xmlns="http://www.w3.org/2000/svg"><path d="m55 23h-46a6.00907 6.00907 0 0 0 -6 6v28a6.00479 6.00479 0 0 0 6 6h46a6.00479 6.00479 0 0 0 6-6v-28a6.00479 6.00479 0 0 0 -6-6z" fill="#4d5662"/><path d="m32.07 3.93a9.97319 9.97319 0 0 0 -7.07-2.93h-6a10.00372 10.00372 0 0 0 -10 10v38a10.00372 10.00372 0 0 0 10 10h6a10.00372 10.00372 0 0 0 10-10v-38a9.97319 9.97319 0 0 0 -2.93-7.07z" fill="#636a74"/><path d="m23 5a2 2 0 0 1 0 4h-2a2 2 0 1 1 0-4z" fill="#4d5662"/><rect fill="#a7b0c6" height="8" rx="3" width="8" x="44" y="49"/><rect fill="#d8e0eb" height="8" rx="3" width="8" x="18" y="32"/><rect fill="#66a9ff" height="15" rx="1" width="18" x="13" y="13"/><g fill="#4d5662"><path d="m24 47h-4a1 1 0 0 1 0-2h4a1 1 0 0 1 0 2z"/><path d="m24 51h-4a1 1 0 0 1 0-2h4a1 1 0 0 1 0 2z"/><path d="m24 55h-4a1 1 0 0 1 0-2h4a1 1 0 0 1 0 2z"/><path d="m31 47h-3a1 1 0 0 1 0-2h3a1 1 0 0 1 0 2z"/><path d="m31 51h-3a1 1 0 0 1 0-2h3a1 1 0 0 1 0 2z"/><path d="m16 47h-3a1 1 0 0 1 0-2h3a1 1 0 0 1 0 2z"/><path d="m16 51h-3a1 1 0 0 1 0-2h3a1 1 0 0 1 0 2z"/></g><path d="m24 46h-4a1 1 0 0 1 0-2h4a1 1 0 0 1 0 2z" fill="#e6ecf4"/><path d="m24 50h-4a1 1 0 0 1 0-2h4a1 1 0 0 1 0 2z" fill="#e6ecf4"/><path d="m24 54h-4a1 1 0 0 1 0-2h4a1 1 0 0 1 0 2z" fill="#e6ecf4"/><path d="m31 46h-3a1 1 0 0 1 0-2h3a1 1 0 0 1 0 2z" fill="#e6ecf4"/><path d="m31 50h-3a1 1 0 0 1 0-2h3a1 1 0 0 1 0 2z" fill="#e6ecf4"/><path d="m16 46h-3a1 1 0 0 1 0-2h3a1 1 0 0 1 0 2z" fill="#e6ecf4"/><path d="m16 50h-3a1 1 0 0 1 0-2h3a1 1 0 0 1 0 2z" fill="#e6ecf4"/><path d="m51.999 29.5h-8a.5.5 0 0 1 0-1h8a.5.5 0 0 1 0 1z" fill="#38424e"/></svg>