<svg id="icons" height="512" viewBox="0 0 64 64" width="512" xmlns="http://www.w3.org/2000/svg"><path d="m35.45 46.84a6.1861 6.1861 0 0 1 -2.45-4.91v-9a7.92092 7.92092 0 0 0 -7.93-7.93h-8.13995a7.921 7.921 0 0 0 -7.93005 7.93v9a6.35009 6.35009 0 0 1 -.09 1.07 6.16089 6.16089 0 0 1 -2.36 3.84h-.01a3.85978 3.85978 0 0 0 -1.54 3.09v10.05a3.00458 3.00458 0 0 0 3.01 3.02h25.97a3.00456 3.00456 0 0 0 3.02-3.02v-10.05a3.855 3.855 0 0 0 -1.55-3.09z" fill="#a27ff9"/><path d="m58 48.33-10.34-5.51 2.03 6.18 1.31 4-2.9 4.15h-.01l-4.09 5.85h6l8-4.31 5-2.69v-5z" fill="#636a74"/><path d="m49.69 49 1.31 4-2.9 4.15h-.01l-12.57-38.54 3.37-2.53 8.77 26.74z" fill="#e6ecf4"/><path d="m39 16-.11.08-3.37 2.53-.52.39-4-6h-9.01a3.98823 3.98823 0 0 1 -3.99-3.99v-6.01a1.99729 1.99729 0 0 1 2-2h8.42a6.7576 6.7576 0 0 1 6.28 4.25c1.77 4.43 4.3 10.75 4.3 10.75zm-9-7-2-4h-5v4z" fill="#636a74"/><path d="m18 3v4h-5.91a7.0845 7.0845 0 0 0 -7.09 7.09v22.91a2.01456 2.01456 0 0 0 2 2h2v2.93a6.3506 6.3506 0 0 1 -.09 1.07h-1.9a6.01116 6.01116 0 0 1 -6.01-6.02v-22.94a11.03645 11.03645 0 0 1 11.04-11.04z" fill="#4d5662"/><path d="m21 41a37.83921 37.83921 0 0 0 -8 1v2.56s3 8.44 8 8.44 8-8.44 8-8.44v-2.56a37.83921 37.83921 0 0 0 -8-1z" fill="#e6ecf4"/><path d="m29 63h-16v-3a1.99309 1.99309 0 0 1 2-2h12a1.99944 1.99944 0 0 1 2 2z" fill="#e6ecf4"/><circle cx="21" cy="47" fill="#636a74" r="2"/><path d="m33 52.44v10.56h-4v-3a1.99944 1.99944 0 0 0 -2-2h-12a1.99309 1.99309 0 0 0 -2 2v3h-4v-10.56a4.14372 4.14372 0 0 1 .9-2.57c.66-.82 1.54-1.92 2.2-2.74a4.14372 4.14372 0 0 0 .9-2.57s3 8.44 8 8.44 8-8.44 8-8.44a4.14372 4.14372 0 0 0 .9 2.57c.66.82 1.54 1.92 2.2 2.74a4.14372 4.14372 0 0 1 .9 2.57z" fill="#b18fff"/><path d="m29 33.45v8.55a37.83921 37.83921 0 0 0 -8-1 37.83921 37.83921 0 0 0 -8 1v-8.55a4.43853 4.43853 0 0 1 4.45-4.45h.55v5a3 3 0 0 0 6 0v-5h.55a4.43853 4.43853 0 0 1 4.45 4.45z" fill="#e6ecf4"/><path d="m29 42v-1.02765a38.38378 38.38378 0 0 0 -8-.97235 38.38378 38.38378 0 0 0 -8 .97235v1.02765a37.83921 37.83921 0 0 1 8-1 37.83921 37.83921 0 0 1 8 1z" fill="#d8e0eb"/><path d="m24 29v5a3 3 0 0 1 -6 0v-12a3 3 0 0 1 6 0z" fill="#636a74"/><path d="m57.5 57.653v1.306l.5-.269.5-.269v-9.824l-.5-.267-.5-.266v.436h-7.974l.164.5.164.5h7.646v7.153h-9.053l-.347.497h-.01l-.352.503z" fill="#4d5662"/></svg>