<svg id="icons" height="512" viewBox="0 0 64 64" width="512" xmlns="http://www.w3.org/2000/svg"><path d="m50.62 28.38a2.1192 2.1192 0 0 1 -.62-1.5v-6.88h-37v34h38v-25.32a2.0867 2.0867 0 0 1 -.38-.3z" fill="#4d5662"/><path d="m8 16v2a2.01465 2.01465 0 0 0 2 2h44a2.01453 2.01453 0 0 0 2-2v-2z" fill="#f3445a"/><path d="m59 26.98v4.02h-4v-2h-2.88a2.11174 2.11174 0 0 1 -1.12-.32 2.0841 2.0841 0 0 1 -.38-.3 2.11921 2.11921 0 0 1 -.62-1.5v-6.88h4v5h3.02a1.98024 1.98024 0 0 1 1.98 1.98z" fill="#636a74"/><path d="m55 31h4v5h-4z" fill="#e6ecf4"/><path d="m59 56v7h-19a1.99944 1.99944 0 0 0 -2-2h-12a1.98057 1.98057 0 0 0 -2 2h-19v-7a1.99309 1.99309 0 0 1 2-2h50a1.99309 1.99309 0 0 1 2 2z" fill="#ff5666"/><path d="m29 42v7.07a4.93354 4.93354 0 0 1 -4.93 4.93h-2.14a4.93354 4.93354 0 0 1 -4.93-4.93v-7.07z" fill="#e6ecf4"/><path d="m46 20v3a2.01456 2.01456 0 0 1 -2 2h-24a2.01456 2.01456 0 0 1 -2-2v-3h5l.13.13a2.95845 2.95845 0 0 0 2.1.87h13.53a2.98163 2.98163 0 0 0 2.11-.87l.13-.13z" fill="#636a74"/><path d="m38 25v3a1.99944 1.99944 0 0 1 -2 2h-8a1.99944 1.99944 0 0 1 -2-2v-3z" fill="#e6ecf4"/><path d="m40 35.92v2.08h-16v-1.9a2.09974 2.09974 0 0 1 2.1-2.1h.88a2.58878 2.58878 0 0 0 2.51-1.96c.25-1.01.51-2.04.51-2.04h4s.26 1.03.51 2.04a2.58878 2.58878 0 0 0 2.51 1.96h1.06a1.912 1.912 0 0 1 1.92 1.92z" fill="#d8e0eb"/><path d="m47 42v7.07a4.93354 4.93354 0 0 1 -4.93 4.93h-2.14a4.93354 4.93354 0 0 1 -4.93-4.93v-7.07z" fill="#e6ecf4"/><path d="m57.41 1.59a1.966 1.966 0 0 0 -1.41-.59h-48a1.99738 1.99738 0 0 0 -2 2v11a1.99736 1.99736 0 0 0 2 2h9.76a2.98167 2.98167 0 0 1 2.11005.87c.87995.88 2.20995 2.21 3.12995 3.13l.13.13a2.95843 2.95843 0 0 0 2.1.87h13.53a2.98166 2.98166 0 0 0 2.11-.87l.13-.13c.92005-.92 2.25-2.25 3.13-3.13a2.94137 2.94137 0 0 1 2.1-.87h9.77a2.01453 2.01453 0 0 0 2-2v-11a1.96584 1.96584 0 0 0 -.59-1.41z" fill="#ff5666"/><rect fill="#636a74" height="4" rx="1" width="6" x="14" y="7"/><rect fill="#636a74" height="4" rx="1" width="6" x="44" y="7"/><circle cx="32" cy="11" fill="#e6ecf4" r="6"/><path d="m32 17.499a6.5 6.5 0 1 1 6.5-6.5 6.50753 6.50753 0 0 1 -6.5 6.5zm0-12a5.5 5.5 0 1 0 5.5 5.5 5.50685 5.50685 0 0 0 -5.5-5.5z" fill="#636a74"/><path d="m32 11.499a.5.5 0 0 1 -.35352-.85351l1.41407-1.41406a.49995.49995 0 1 1 .707.707l-1.41406 1.41406a.49838.49838 0 0 1 -.35349.14651z" fill="#636a74"/><g fill="#e6ecf4"><path d="m55.5 36.5h3a.5.5 0 0 0 0-1h-3a.5.5 0 0 0 0 1z"/><path d="m35.5 42.5h11a.5.5 0 0 0 0-1h-11a.5.5 0 0 0 0 1z"/><path d="m17.5 42.5h11a.5.5 0 0 0 0-1h-11a.5.5 0 0 0 0 1z"/></g><path d="m24.5 38.5h15a.5.5 0 0 0 0-1h-15a.5.5 0 0 0 0 1z" fill="#d8e0eb"/><path d="m40.5 63.5h18a.5.5 0 0 0 0-1h-18a.5.5 0 0 0 0 1z" fill="#ff5666"/><path d="m5.5 63.5h18a.5.5 0 0 0 0-1h-18a.5.5 0 0 0 0 1z" fill="#ff5666"/></svg>