<svg id="icons" height="512" viewBox="0 0 64 64" width="512" xmlns="http://www.w3.org/2000/svg"><path d="m42 16h-34l-7 3v20l1.79.16 9.21.84h20.2a14.0014 14.0014 0 0 1 9.8-24z" fill="#d8e0eb"/><path d="m57 44v4h-6l-2-4z" fill="#636a74"/><path d="m63 19v20l-1.79.16-9.43.86a14.00171 14.00171 0 0 0 -9.78-24.02h14z" fill="#d8e0eb"/><circle cx="42" cy="30" fill="#66a9ff" r="5"/><path d="m57 44h-15a13.95538 13.95538 0 0 0 9.78-3.98l9.43-.86-1.21 4.84z" fill="#cad1e1"/><path d="m42 16a14.00141 14.00141 0 1 1 -14 14 14.00254 14.00254 0 0 1 14-14zm9 14a9 9 0 1 0 -9 9 9.00072 9.00072 0 0 0 9-9z" fill="#e6ecf4"/><path d="m42 21a9 9 0 1 1 -9 9 9.00072 9.00072 0 0 1 9-9zm5 9a5 5 0 1 0 -5 5 5.00182 5.00182 0 0 0 5-5z" fill="#636a74"/><path d="m15 44-2 4h-6v-4z" fill="#636a74"/><path d="m42 44h-38l-1.21-4.84 9.21.84h20.2a13.99538 13.99538 0 0 0 9.8 4z" fill="#cad1e1"/><path d="m19 20v16h-7l-7-1v-13l4-2z" fill="#cad1e1"/><g fill="#b7c3d5"><path d="m8.999 24.5h6a.5.5 0 1 0 0-1h-6a.5.5 0 0 0 0 1z"/><path d="m8.999 28.5h6a.5.5 0 1 0 0-1h-6a.5.5 0 0 0 0 1z"/><path d="m8.999 32.5h6a.5.5 0 1 0 0-1h-6a.5.5 0 0 0 0 1z"/></g></svg>