<svg id="icons" height="512" viewBox="0 0 64 64" width="512" xmlns="http://www.w3.org/2000/svg"><path d="m57.00019 59.00019v3h-28v-3a58.49171 58.49171 0 0 1 14-2 51.81776 51.81776 0 0 1 9 .89c2.97.53 5 1.11 5 1.11z" fill="#636a74"/><path d="m38.83019 26.00019 11.38 17.33a5.001 5.001 0 0 0 -2.95 3.08l-11.26-17.58-13.79-13.79a2.25951 2.25951 0 0 0 .44-.53c.49-.85 1.16-2 1.65-2.85l.06-.12z" fill="#4d5662"/><path d="m57.00019 48.00019v11s-2.03-.58-5-1.11v-4.89a5.00182 5.00182 0 0 1 -5-5 4.908 4.908 0 0 1 .26-1.59 5.001 5.001 0 0 1 2.95-3.08 5.07807 5.07807 0 0 1 1.79-.33 5.00182 5.00182 0 0 1 5 5z" fill="#636a74"/><path d="m57.00018 57.96338c-.63946-.17206-2.40789-.6264-4.82245-1.05713-.06024-.01093-.11743-.01794-.17755-.02869v1.01264c2.97.53 5 1.11 5 1.11z" fill="#4d5662"/><path d="m13.02019 1.27019c2.53 1.47 7.04 4.07 8.29 4.79a1.95837 1.95837 0 0 1 .57.5c.47.59 1.51 1.91 2.26 2.86a2.013 2.013 0 0 1 .22 2.12l-.06.12c-.49.85-1.16 2-1.65 2.85a2.25951 2.25951 0 0 1 -.44.53 2.00187 2.00187 0 0 1 -1.57.45c-1.2-.17-2.87-.41-3.61-.52a1.99128 1.99128 0 0 1 -.72-.25c-1.25-.72-5.76-3.32-8.29-4.79a2.02244 2.02244 0 0 1 -.95-1.23 2.04279 2.04279 0 0 1 .2-1.55c.87-1.5 2.1-3.63 2.96-5.13a2.0497 2.0497 0 0 1 2.79-.75z" fill="#d8e0eb"/><g id="path10761"><path d="m11.71777 8.45117a.99991.99991 0 0 1 -.86523-1.5l1-1.73242a1.00016 1.00016 0 1 1 1.73242 1l-1 1.73242a1.00114 1.00114 0 0 1 -.86719.5z" fill="#b7c3d5"/></g><g id="path10765"><path d="m15.18164 10.45117a.99991.99991 0 0 1 -.86523-1.5l1-1.73242a1.00016 1.00016 0 1 1 1.73242 1l-1 1.73242a1.00115 1.00115 0 0 1 -.86719.5z" fill="#b7c3d5"/></g><path d="m29.50019 62.50019h27a.5.5 0 0 0 0-1h-27a.5.5 0 0 0 0 1z" fill="#636a74"/></svg>