<svg id="icons" height="512" viewBox="0 0 64 64" width="512" xmlns="http://www.w3.org/2000/svg"><path d="m63.35352 52.74707-11.6084-11.6084a.49995.49995 0 0 0 -.707.707l.08068.08069a27.0014 27.0014 0 0 1 -9.19293 9.19275l-.08014-.08008a.49995.49995 0 0 0 -.707.707l11.6084 11.60743a.49983.49983 0 0 0 .707 0l9.89942-9.89942a.49982.49982 0 0 0 -.00003-.70697z" fill="#636a74"/><path d="m44.6 51.6h15v1h-15z" fill="#4d5662" transform="matrix(.707 -.707 .707 .707 -21.581 52.1)"/><path d="m28 1a27.00212 27.00212 0 1 0 27 27 27.00212 27.00212 0 0 0 -27-27z" fill="#e6ecf4"/><circle cx="28" cy="28" fill="#5699f4" r="23"/><path d="m22 13h-6a1.00294 1.00294 0 0 0 -1 1v28a1.00294 1.00294 0 0 0 1 1h24a1.00294 1.00294 0 0 0 1-1v-28a1.00294 1.00294 0 0 0 -1-1z" fill="#4d5662"/><path d="m28 21a10 10 0 1 1 -10 10 10.00365 10.00365 0 0 1 10-10zm6 10a6 6 0 1 0 -6 6 5.99835 5.99835 0 0 0 6-6z" fill="#38424e"/><path d="m28 20a10 10 0 1 1 -10 10 10.00365 10.00365 0 0 1 10-10zm6 10a6 6 0 1 0 -6 6 5.99835 5.99835 0 0 0 6-6z" fill="#636a74"/><circle cx="28" cy="30" fill="#66a9ff" r="6"/><g id="path10978"><path d="m29.99707 17.49707h-4a1 1 0 0 1 0-2h4a1 1 0 0 1 0 2z" fill="#66a9ff"/></g><g id="circle10982"><path d="m35.0166 18.49707a1 1 0 0 1 -.00976-2h.00976a1 1 0 0 1 0 2z" fill="#38424e"/></g><g id="circle10986"><path d="m38.0166 18.49707a1 1 0 0 1 -.00976-2h.00976a1 1 0 0 1 0 2z" fill="#38424e"/></g><g id="circle10982-2" data-name="circle10982"><path d="m35.0166 17.49707a1 1 0 0 1 -.00976-2h.00976a1 1 0 0 1 0 2z" fill="#a7b0c6"/></g><g id="circle10986-2" data-name="circle10986"><path d="m38.0166 17.49707a1 1 0 0 1 -.00976-2h.00976a1 1 0 0 1 0 2z" fill="#a7b0c6"/></g><path d="m20.49707 12.99707v3.5h-5.5v1h6a.49971.49971 0 0 0 .5-.5v-4z" fill="#38424e"/></svg>