<svg id="icons" height="512" viewBox="0 0 64 64" width="512" xmlns="http://www.w3.org/2000/svg"><path d="m51 1h-38l-8 12h54z" fill="#ffbc1c"/><path d="m5 13h54v50h-54z" fill="#ffcf44"/><rect fill="#ff5666" height="4" rx="1" width="5" x="9" y="17"/><g fill="#e6ecf4"><path d="m11 34h-6v8h6a1.00291 1.00291 0 0 0 1-1v-6a1.00288 1.00288 0 0 0 -1-1z"/><path d="m38 13v6l-3-2-3 2-3-2-3 2v-6z"/><path d="m53 34a1.00288 1.00288 0 0 0 -1 1v6a1.00291 1.00291 0 0 0 1 1h6v-8z"/></g><rect fill="#ff5666" height="4" rx="1" width="5" x="50" y="17"/><path d="m9.333 6.5h45.334l-.667-1h-44z" fill="#f4a811"/><path d="m36.25 6 1.75 7h-12l1.75-7 1.25-5h6z" fill="#d8e0eb"/><rect fill="#4d5662" height="36" rx="1" width="28" x="18" y="23"/><path d="m32 36a10 10 0 1 1 -10 10 10.00365 10.00365 0 0 1 10-10zm6 10a6 6 0 1 0 -6 6 6.00475 6.00475 0 0 0 6-6z" fill="#38424e"/><circle cx="32" cy="45" fill="#66a9ff" r="6"/><path d="m32 35a10 10 0 1 1 -10 10 10.00365 10.00365 0 0 1 10-10zm6 10a6 6 0 1 0 -6 6 6.00475 6.00475 0 0 0 6-6z" fill="#636a74"/><path d="m34 25.5h-4a1 1 0 0 0 0 2h4a1 1 0 0 0 0-2z" fill="#66a9ff"/><g id="circle10836"><path d="m38.01953 28.5a1 1 0 0 1 -.00976-2h.00976a1 1 0 0 1 0 2z" fill="#38424e"/></g><g id="circle10840"><path d="m42.01953 28.5a1 1 0 0 1 -.00976-2h.00976a1 1 0 0 1 0 2z" fill="#38424e"/></g><g id="circle10836-2" data-name="circle10836"><path d="m38.01953 27.5a1 1 0 0 1 -.00976-2h.00976a1 1 0 0 1 0 2z" fill="#a7b0c6"/></g><g id="circle10840-2" data-name="circle10840"><path d="m42.01953 27.5a1 1 0 0 1 -.00976-2h.00976a1 1 0 0 1 0 2z" fill="#a7b0c6"/></g><path d="m18 30.5h28v1h-28z" fill="#38424e"/><path d="m23.5 23v3.5h-5.5v1h6a.49971.49971 0 0 0 .5-.5v-4z" fill="#38424e"/></svg>