<svg id="icons" height="512" viewBox="0 0 64 64" width="512" xmlns="http://www.w3.org/2000/svg"><path d="m37.5 28.5a.49971.49971 0 0 1 -.5-.5v-3.99121a2.51107 2.51107 0 0 1 2.50879-2.50879h1.99121a.5.5 0 0 1 0 1h-1.99121a1.5104 1.5104 0 0 0 -1.50879 1.50879v3.99121a.49971.49971 0 0 1 -.5.5z" fill="#cad1e1"/><path d="m61.14 38.86a2.91564 2.91564 0 0 0 -2.06-.86h-4.08s-4.70007-6.46-6.89-9.48a3.72766 3.72766 0 0 0 -3-1.52h-8.11v26h25v-12.08a2.89776 2.89776 0 0 0 -.86-2.06z" fill="#d8e0eb"/><path d="m11 3h-6v4 4 28h28v-28-8z" fill="#4d5662"/><path d="m58 43a1.00291 1.00291 0 0 0 -1 1v2a1.00291 1.00291 0 0 0 1 1h4v-4z" fill="#ff5666"/><rect fill="#4d5662" height="4" rx="1" width="62" x="1" y="53"/><path d="m43.34 53a6.05235 6.05235 0 1 1 -.34 2 5.99393 5.99393 0 0 1 .34-2zm7.66 2a2 2 0 1 0 -2 2 2.00588 2.00588 0 0 0 2-2z" fill="#636a74"/><path d="m45 31 6 8h-10v-8z" fill="#85baff"/><circle cx="49" cy="55" fill="#e6ecf4" r="2"/><path d="m2 43-.01 10h35.01v-10z" fill="#cad1e1"/><path d="m2 43v4h4a1.00291 1.00291 0 0 0 1-1v-3z" fill="#ff5666"/><path d="m34 39h-31.01a1 1 0 0 0 -.99756 1l.00513 3h35.00243v-4z" fill="#cad1e1"/><path d="m19 15a10 10 0 1 1 -10 10 10.00365 10.00365 0 0 1 10-10zm6 10a6 6 0 1 0 -6 6 6.00475 6.00475 0 0 0 6-6z" fill="#636a74"/><circle cx="19" cy="25" fill="#66a9ff" r="6"/><path d="m20.66 53a6.00445 6.00445 0 1 1 -5.66-4 6.04267 6.04267 0 0 1 5.66 4zm-3.66 2a2 2 0 1 0 -2 2 2.00588 2.00588 0 0 0 2-2z" fill="#636a74"/><circle cx="15" cy="55" fill="#e6ecf4" r="2"/><path d="m1.997 42h35v1h-35z" fill="#b7c3d5"/><path d="m43.5 43.5h-2a.5.5 0 1 1 0-1h2a.5.5 0 0 1 0 1z" fill="#cad1e1"/><rect fill="#4d5662" height="36" rx="1" width="28" x="4.997" y="3"/><path d="m18.99686 16a10 10 0 1 1 -10 10 10.00365 10.00365 0 0 1 10-10zm6 10a6 6 0 1 0 -6 6 6.00475 6.00475 0 0 0 6-6z" fill="#38424e"/><circle cx="18.997" cy="25" fill="#66a9ff" r="6"/><path d="m18.99686 15a10 10 0 1 1 -10 10 10.00365 10.00365 0 0 1 10-10zm6 10a6 6 0 1 0 -6 6 6.00475 6.00475 0 0 0 6-6z" fill="#636a74"/><path d="m20.99686 5.5h-4a1 1 0 0 0 0 2h4a1 1 0 0 0 0-2z" fill="#66a9ff"/><g id="circle10836"><path d="m25.01639 8.5a1 1 0 0 1 -.00977-2h.00977a1 1 0 0 1 0 2z" fill="#38424e"/></g><g id="circle10840"><path d="m29.01639 8.5a1 1 0 0 1 -.00977-2h.00977a1 1 0 0 1 0 2z" fill="#38424e"/></g><g id="circle10836-2" data-name="circle10836"><path d="m25.01639 7.5a1 1 0 0 1 -.00977-2h.00977a1 1 0 0 1 0 2z" fill="#a7b0c6"/></g><g id="circle10840-2" data-name="circle10840"><path d="m29.01639 7.5a1 1 0 0 1 -.00977-2h.00977a1 1 0 0 1 0 2z" fill="#a7b0c6"/></g><g fill="#38424e"><path d="m4.997 10.5h28v1h-28z"/><path d="m10.49686 3v3.5h-5.5v1h6a.49972.49972 0 0 0 .5-.5v-4z"/></g></svg>