<svg id="icons" height="512" viewBox="0 0 64 64" width="512" xmlns="http://www.w3.org/2000/svg"><path d="m60 1h-56a2.996 2.996 0 0 0 -3 3v56a2.996 2.996 0 0 0 3 3h56a2.996 2.996 0 0 0 3-3v-56a2.996 2.996 0 0 0 -3-3z" fill="#e6ecf4"/><path d="m48 1-8 8h-39v-5a2.996 2.996 0 0 1 3-3z" fill="#d8e0eb"/><path d="m63 4v5h-23l8-8h12a2.996 2.996 0 0 1 3 3z" fill="#cad1e1"/><g fill="#fff"><path d="m58 33v6a3.00452 3.00452 0 0 1 -3 3h-13a3.00452 3.00452 0 0 1 -3-3v-6a3.00452 3.00452 0 0 1 3-3h13a3.00452 3.00452 0 0 1 3 3z"/><path d="m58 17v6a3.00452 3.00452 0 0 1 -3 3h-13a3.00452 3.00452 0 0 1 -3-3v-6a3.00452 3.00452 0 0 1 3-3h13a3.00452 3.00452 0 0 1 3 3z"/><path d="m58 49v6a3.00452 3.00452 0 0 1 -3 3h-13a3.00452 3.00452 0 0 1 -3-3v-6a3.00452 3.00452 0 0 1 3-3h13a3.00452 3.00452 0 0 1 3 3z"/></g><g id="g15877"><g id="path11340"><path d="m37 5.5h-31a.5.5 0 0 1 0-1h31a.5.5 0 0 1 0 1z" fill="#cad1e1"/></g><g id="circle11356"><path d="m50.01953 6a1 1 0 0 1 -.00976-2h.00976a1 1 0 0 1 0 2z" fill="#b7c3d5"/></g><g id="circle11356-2" data-name="circle11356"><path d="m54.01953 6a1 1 0 0 1 -.00976-2h.00976a1 1 0 0 1 0 2z" fill="#b7c3d5"/></g><g id="circle11356-3" data-name="circle11356"><path d="m58.01953 6a1 1 0 0 1 -.00976-2h.00976a1 1 0 0 1 0 2z" fill="#b7c3d5"/></g><g id="path11404"><path d="m54 18.5h-11a.5.5 0 0 1 0-1h11a.5.5 0 0 1 0 1z" fill="#e6ecf4"/></g><g id="path11408"><path d="m54 50.5h-11a.5.5 0 0 1 0-1h11a.5.5 0 0 1 0 1z" fill="#e6ecf4"/></g><g id="path11412"><path d="m54 34.5h-11a.5.5 0 0 1 0-1h11a.5.5 0 0 1 0 1z" fill="#e6ecf4"/></g><g id="path11416"><path d="m48 22.5h-5a.5.5 0 0 1 0-1h5a.5.5 0 0 1 0 1z" fill="#e6ecf4"/></g><g id="path11420"><path d="m48 54.5h-5a.5.5 0 0 1 0-1h5a.5.5 0 0 1 0 1z" fill="#e6ecf4"/></g><g id="path11424"><path d="m48 38.5h-5a.5.5 0 0 1 0-1h5a.5.5 0 0 1 0 1z" fill="#e6ecf4"/></g><g id="path11428"><path d="m54 22.5h-2a.5.5 0 0 1 0-1h2a.5.5 0 0 1 0 1z" fill="#e6ecf4"/></g><g id="path11432"><path d="m54 54.5h-2a.5.5 0 0 1 0-1h2a.5.5 0 0 1 0 1z" fill="#e6ecf4"/></g></g><rect fill="#4d5662" height="36" rx="1" width="28" x="6" y="18"/><path d="m20 31a10 10 0 1 1 -10 10 10.00365 10.00365 0 0 1 10-10zm6 10a6 6 0 1 0 -6 6 6.00475 6.00475 0 0 0 6-6z" fill="#38424e"/><circle cx="20" cy="40" fill="#66a9ff" r="6"/><path d="m20 30a10 10 0 1 1 -10 10 10.00365 10.00365 0 0 1 10-10zm6 10a6 6 0 1 0 -6 6 6.00475 6.00475 0 0 0 6-6z" fill="#636a74"/><path d="m22 20.5h-4a1 1 0 1 0 0 2h4a1 1 0 0 0 0-2z" fill="#66a9ff"/><g id="circle10836"><path d="m26.01952 23.5a1 1 0 0 1 -.00977-2h.00977a1 1 0 0 1 0 2z" fill="#38424e"/></g><g id="circle10840"><path d="m30.01952 23.5a1 1 0 0 1 -.00977-2h.00977a1 1 0 0 1 0 2z" fill="#38424e"/></g><g id="circle10836-2" data-name="circle10836"><path d="m26.01952 22.5a1 1 0 0 1 -.00977-2h.00977a1 1 0 0 1 0 2z" fill="#a7b0c6"/></g><g id="circle10840-2" data-name="circle10840"><path d="m30.01952 22.5a1 1 0 0 1 -.00977-2h.00977a1 1 0 0 1 0 2z" fill="#a7b0c6"/></g><path d="m6 25.5h28v1h-28z" fill="#38424e"/><path d="m11.5 18v3.5h-5.5v1h6a.49971.49971 0 0 0 .5-.5v-4z" fill="#38424e"/></svg>