<svg id="icons" height="512" viewBox="0 0 64 64" width="512" xmlns="http://www.w3.org/2000/svg"><path d="m27 35-3 1v-4l-2-2-1-3h-19a1.00291 1.00291 0 0 0 -1 1v34a1.00291 1.00291 0 0 0 1 1h26a1.003 1.003 0 0 0 1-1v-24l-2-1zm-12 24a10 10 0 1 1 10-10 10.00366 10.00366 0 0 1 -10 10z" fill="#e6ecf4"/><circle cx="49" cy="15" fill="#ff5666" r="14"/><path d="m51 7v8a2 2 0 0 1 -4 0v-8a2 2 0 0 1 4 0z" fill="#e6ecf4"/><circle cx="49" cy="23" fill="#e6ecf4" r="2"/><path d="m15 40a10 10 0 1 0 10 10 10.00362 10.00362 0 0 0 -10-10zm0 16a6 6 0 1 1 6-6 6.00472 6.00472 0 0 1 -6 6z" fill="#d8e0eb"/><circle cx="15" cy="49" fill="#66a9ff" r="6"/><path d="m15 39a10 10 0 1 0 10 10 10.00362 10.00362 0 0 0 -10-10zm0 16a6 6 0 1 1 6-6 6.00472 6.00472 0 0 1 -6 6z" fill="#fff"/><path d="m1 35.5h23v-.5-.5h-23v.5z" fill="#d8e0eb"/><path d="m17 31.5h-4a1 1 0 0 1 0-2h4a1 1 0 0 1 0 2z" fill="#66a9ff"/><path d="m1 31.5h6a.49971.49971 0 0 0 .5-.5v-4h-1v3.5h-5.5z" fill="#d8e0eb"/><g fill="#ff5666"><path d="m21 23.499a.49971.49971 0 0 1 -.5-.5v-4a.5.5 0 0 1 1 0v4a.49971.49971 0 0 1 -.5.5z"/><path d="m37 38.5h-4a.5.5 0 0 1 0-1h4a.5.5 0 0 1 0 1z"/><path d="m28 25.96484a.5002.5002 0 0 1 -.43262-.75l2-3.46484a.49966.49966 0 0 1 .86524.5l-2 3.46484a.499.499 0 0 1 -.43262.25z"/><path d="m32.001 30.53516a.50023.50023 0 0 1 -.12989-.9834l3.86329-1.03516a.50054.50054 0 0 1 .25976.9668l-3.86328 1.03515a.54415.54415 0 0 1 -.12988.01661z"/></g></svg>