<svg id="icons" height="512" viewBox="0 0 64 64" width="512" xmlns="http://www.w3.org/2000/svg"><path d="m61.83 2.17a4.0039 4.0039 0 0 0 -2.83-1.17h-22a3.99457 3.99457 0 0 0 -4 4v9l-4 3 4 3v9a3.99457 3.99457 0 0 0 4 4h22a3.99468 3.99468 0 0 0 4-4v-24a4.00409 4.00409 0 0 0 -1.17-2.83z" fill="#e6ecf4"/><path d="m35 49-4 3v7a3.99464 3.99464 0 0 1 -4 4h-22a3.99464 3.99464 0 0 1 -4-4v-20a3.99464 3.99464 0 0 1 4-4h22a3.99464 3.99464 0 0 1 4 4v7z" fill="#e6ecf4"/><path d="m53 53v2a3 3 0 0 1 -6 0v-2a5 5 0 0 0 6 0z" fill="#e5b6a9"/><path d="m59 58.05v3.95h-18v-3.95a5.04877 5.04877 0 0 1 5.05-5.05h.95v2a3 3 0 0 0 6 0v-2h.95a5.04877 5.04877 0 0 1 5.05 5.05z" fill="#1ddabd"/><path d="m58.33 42.43a8.7718 8.7718 0 0 1 .67 3.37 3.19656 3.19656 0 0 1 -3.2 3.2h-.8v-4.42a1.97976 1.97976 0 0 0 -.72-1.53 1.95806 1.95806 0 0 0 -1.63-.42 11.98126 11.98126 0 0 1 -2.65.37 12.747 12.747 0 0 1 -2.66-.36 1.96667 1.96667 0 0 0 -2.33 1.94c-.01 1.29-.01 2.9-.01 4.42h-.8a3.20941 3.20941 0 0 1 -3.2-3.2 8.80869 8.80869 0 0 1 8.8-8.8h.4a8.76936 8.76936 0 0 1 6.22 2.58 8.92555 8.92555 0 0 1 1.91 2.85z" fill="#a05454"/><path d="m55 44.58v4.42a5.00952 5.00952 0 0 1 -2 4 5 5 0 0 1 -6 0 5.00952 5.00952 0 0 1 -2-4c0-1.52 0-3.13.01-4.42a1.96667 1.96667 0 0 1 2.33-1.94 12.747 12.747 0 0 0 2.66.36 11.98126 11.98126 0 0 0 2.65-.37 1.95806 1.95806 0 0 1 1.63.42 1.97976 1.97976 0 0 1 .72 1.53z" fill="#efc5b8"/><path d="m17 17v2a3 3 0 0 1 -6 0v-2a5 5 0 0 0 6 0z" fill="#e5b6a9"/><path d="m23 22.05v5.95h-18v-5.95a5.04877 5.04877 0 0 1 5.05-5.05h.95v2a3 3 0 0 0 6 0v-2h.95a5.04877 5.04877 0 0 1 5.05 5.05z" fill="#b18fff"/><path d="m19 8.58v4.42a5.00952 5.00952 0 0 1 -2 4 5 5 0 0 1 -6 0 5.00952 5.00952 0 0 1 -2-4c0-1.52 0-3.13.01-4.42a1.96667 1.96667 0 0 1 2.33-1.94 12.747 12.747 0 0 0 2.66.36 11.98126 11.98126 0 0 0 2.65-.37 1.95806 1.95806 0 0 1 1.63.42 1.97976 1.97976 0 0 1 .72 1.53z" fill="#efc5b8"/><path d="m22.33 6.43a8.7718 8.7718 0 0 1 .67 3.37 3.19656 3.19656 0 0 1 -3.2 3.2h-.8v-4.42a1.97976 1.97976 0 0 0 -.72-1.53 1.95806 1.95806 0 0 0 -1.63-.42 11.98126 11.98126 0 0 1 -2.65.37 12.747 12.747 0 0 1 -2.66-.36 1.96667 1.96667 0 0 0 -2.33 1.94c-.01 1.29-.01 2.9-.01 4.42h-.8a3.20941 3.20941 0 0 1 -3.2-3.2 8.80869 8.80869 0 0 1 8.8-8.8h.4a8.76936 8.76936 0 0 1 6.22 2.58 8.92555 8.92555 0 0 1 1.91 2.85z" fill="#f4a811"/><path d="m22.5 28.5h-17a.5.5 0 0 1 0-1h17a.5.5 0 0 1 0 1z" fill="#b18fff"/><path d="m58.5 62.5h-17a.5.5 0 0 1 0-1h17a.5.5 0 0 1 0 1z" fill="#1ddabd"/><path d="m45 5h-6a1.00294 1.00294 0 0 0 -1 1v22a1.00294 1.00294 0 0 0 1 1h18a1.00294 1.00294 0 0 0 1-1v-22a1.00294 1.00294 0 0 0 -1-1z" fill="#4d5662"/><path d="m48 14a6 6 0 1 1 -6 6 6.00475 6.00475 0 0 1 6-6zm2 6a2 2 0 1 0 -2 2 1.99944 1.99944 0 0 0 2-2z" fill="#38424e"/><path d="m48 13a6 6 0 1 1 -6 6 6.00475 6.00475 0 0 1 6-6zm2 6a2 2 0 1 0 -2 2 1.99944 1.99944 0 0 0 2-2z" fill="#636a74"/><circle cx="48" cy="19" fill="#66a9ff" r="2"/><path d="m44.5 8.5v-3.5h-1v3.5h-5.5v1h20v-1z" fill="#38424e"/><g id="path11836"><path d="m16 43.499h-9a.5.5 0 0 1 0-1h9a.5.5 0 0 1 0 1z" fill="#cad1e1"/></g><g id="path11840"><path d="m25 43.499h-5a.5.5 0 0 1 0-1h5a.5.5 0 0 1 0 1z" fill="#cad1e1"/></g><g id="path11844"><path d="m12.999 49.5h-6a.5.5 0 0 1 0-1h6a.5.5 0 1 1 0 1z" fill="#cad1e1"/></g><g id="path11848"><path d="m25 49.5h-8a.5.5 0 0 1 0-1h8a.5.5 0 0 1 0 1z" fill="#cad1e1"/></g><g id="path11852"><path d="m19 55.5h-12a.5.5 0 0 1 0-1h12a.5.5 0 0 1 0 1z" fill="#cad1e1"/></g></svg>