<svg id="icons" height="512" viewBox="0 0 64 64" width="512" xmlns="http://www.w3.org/2000/svg"><path d="m62 36.64v22.36a2.00588 2.00588 0 0 1 -2 2h-4v-26.17a2.00613 2.00613 0 0 0 -.59-1.42l-4.41-4.41h4.97a1.9959 1.9959 0 0 1 1.63.84c1.04 1.46 3.17 4.44 4.03 5.64a2.001 2.001 0 0 1 .37 1.16z" fill="#f3445a"/><path d="m55.41 33.41-4.41-4.41-1.41-1.41a2.006 2.006 0 0 0 -1.42-.59h-6.34a2.0061 2.0061 0 0 0 -1.42.59l-5.82 5.82a2.00614 2.00614 0 0 0 -.59 1.42v26.17a2.00587 2.00587 0 0 0 2 2h18a2.00591 2.00591 0 0 0 2-2v-26.17a2.0062 2.0062 0 0 0 -.59-1.42z" fill="#ff5666"/><g id="path12242"><path d="m47 32.5h-4a.5.5 0 0 1 0-1h4a.5.5 0 0 1 0 1z" fill="#f3445a"/></g><g id="circle12246"><path d="m40 50.5a2.5 2.5 0 1 1 2.5-2.5 2.50231 2.50231 0 0 1 -2.5 2.5zm0-4a1.5 1.5 0 1 0 1.5 1.5 1.50164 1.50164 0 0 0 -1.5-1.5z" fill="#e6ecf4"/></g><g id="circle12250"><path d="m50 58.5a2.5 2.5 0 1 1 2.5-2.5 2.50231 2.50231 0 0 1 -2.5 2.5zm0-4a1.5 1.5 0 1 0 1.5 1.5 1.50164 1.50164 0 0 0 -1.5-1.5z" fill="#e6ecf4"/></g><g id="path12254"><path d="m39 58.5a.5.5 0 0 1 -.35352-.85352l12-12a.5.5 0 0 1 .707.707l-12 12a.49842.49842 0 0 1 -.35348.14652z" fill="#e6ecf4"/></g><rect fill="#e6ecf4" height="36" rx="1" width="28" x="2" y="27"/><path d="m16 40.00011a10 10 0 1 1 -10 10 10.00365 10.00365 0 0 1 10-10zm6 10a6 6 0 1 0 -6 6 6.00475 6.00475 0 0 0 6-6z" fill="#d8e0eb"/><circle cx="16" cy="49" fill="#66a9ff" r="6"/><path d="m16 39.00011a10 10 0 1 1 -10 10 10.00365 10.00365 0 0 1 10-10zm6 10a6 6 0 1 0 -6 6 6.00475 6.00475 0 0 0 6-6z" fill="#fff"/><path d="m18 29.5001h-4a1 1 0 0 0 0 2h4a1 1 0 0 0 0-2z" fill="#66a9ff"/><g id="circle10836"><path d="m22.01953 32.5001a1 1 0 0 1 -.00977-2h.00977a1 1 0 0 1 0 2z" fill="#d8e0eb"/></g><g id="circle10840"><path d="m26.01953 32.5001a1 1 0 0 1 -.00977-2h.00977a1 1 0 0 1 0 2z" fill="#d8e0eb"/></g><g id="circle10836-2" data-name="circle10836"><path d="m22.01953 31.5001a1 1 0 0 1 -.00977-2h.00977a1 1 0 0 1 0 2z" fill="#fff"/></g><g id="circle10840-2" data-name="circle10840"><path d="m26.01953 31.5001a1 1 0 0 1 -.00977-2h.00977a1 1 0 0 1 0 2z" fill="#fff"/></g><path d="m2 34.5h28v1h-28z" fill="#d8e0eb"/><path d="m7.5 27.0001v3.5h-5.5v1h6a.49972.49972 0 0 0 .5-.5v-4z" fill="#d8e0eb"/><path d="m54.74121 2.25781a5.95565 5.95565 0 0 0 -4.24221-1.75781h-35.5a4.5 4.5 0 0 0 0 9h4a3.5009 3.5009 0 0 1 3.5 3.5 3.51 3.51 0 0 1 -3.52636 3.5 3.4465 3.4465 0 0 0 -2.45508 1.01758 3.492 3.492 0 0 0 -1.01756 2.4541v7.02832h1v-7.02832a2.47419 2.47419 0 0 1 2.499-2.47168 4.5 4.5 0 0 0 0-9h-4a3.5 3.5 0 0 1 0-7h35.5a5 5 0 0 1 0 10h-.54a5.46141 5.46141 0 0 0 -5.46 5.46v15.04a.5.5 0 0 0 1 0v-15.04a4.46115 4.46115 0 0 1 4.46-4.46h.54a5.99936 5.99936 0 0 0 4.24221-10.24219z" fill="#636a74"/></svg>