<svg id="icons" height="512" viewBox="0 0 64 64" width="512" xmlns="http://www.w3.org/2000/svg"><path d="m60 1h-56a2.996 2.996 0 0 0 -3 3v56a2.996 2.996 0 0 0 3 3h56a2.99594 2.99594 0 0 0 3-3v-56a2.996 2.996 0 0 0 -3-3z" fill="#e6ecf4"/><path d="m56 13h-48a2.92035 2.92035 0 0 0 -3 2.84v30.32a2.9203 2.9203 0 0 0 3 2.84h48a2.92027 2.92027 0 0 0 3-2.84v-30.32a2.92032 2.92032 0 0 0 -3-2.84z" fill="#b18fff"/><path d="m63 4v5h-23l8-8h12a2.996 2.996 0 0 1 3 3z" fill="#cad1e1"/><path d="m17 17h-6a1.00294 1.00294 0 0 0 -1 1v26a1.00294 1.00294 0 0 0 1 1h24a1.00294 1.00294 0 0 0 1-1v-26a1.00294 1.00294 0 0 0 -1-1z" fill="#4d5662"/><path d="m23 26a8 8 0 1 1 -8 8 7.9978 7.9978 0 0 1 8-8zm4 8a4 4 0 1 0 -4 4 3.9989 3.9989 0 0 0 4-4z" fill="#38424e"/><circle cx="23" cy="33" fill="#66a9ff" r="4"/><rect fill="#fff" height="5" rx="1" width="14" x="6" y="54"/><rect fill="#fff" height="5" rx="1" width="14" x="44" y="54"/><rect fill="#e6ecf4" height="6" rx="2" width="14" x="40.501" y="19"/><rect fill="#fff" height="5" rx="1" width="14" x="25" y="54"/><path d="m23 25a8 8 0 1 1 -8 8 7.9978 7.9978 0 0 1 8-8zm4 8a4 4 0 1 0 -4 4 3.9989 3.9989 0 0 0 4-4z" fill="#636a74"/><path d="m48 1-8 8h-39v-5a2.996 2.996 0 0 1 3-3z" fill="#d8e0eb"/><path d="m37 5.5h-31a.5.5 0 0 1 0-1h31a.5.5 0 0 1 0 1z" fill="#cad1e1"/><path d="m58.01953 6a1 1 0 0 1 -.00976-2h.00976a1 1 0 0 1 0 2z" fill="#b7c3d5"/><path d="m54.01953 6a1 1 0 0 1 -.00976-2h.00976a1 1 0 0 1 0 2z" fill="#b7c3d5"/><path d="m32.01953 22.5a1 1 0 0 1 -.00976-2h.00976a1 1 0 0 1 0 2z" fill="#38424e"/><path d="m29.01953 22.5a1 1 0 0 1 -.00976-2h.00976a1 1 0 1 1 0 2z" fill="#38424e"/><path d="m32.01953 21.5a1 1 0 0 1 -.00976-2h.00976a1 1 0 0 1 0 2z" fill="#a7b0c6"/><path d="m29.01953 21.5a1 1 0 0 1 -.00976-2h.00976a1 1 0 1 1 0 2z" fill="#a7b0c6"/><path d="m50.01953 6a1 1 0 0 1 -.00976-2h.00976a1 1 0 0 1 0 2z" fill="#b7c3d5"/><path d="m24 21.5h-2a1 1 0 0 1 0-2h2a1 1 0 0 1 0 2z" fill="#66a9ff"/><path d="m16 21.5a.49971.49971 0 0 0 .5-.5v-4h-1v3.5h-5.5v1z" fill="#38424e"/><g fill="#a27ff9"><path d="m48.001 31.5h-7a.5.5 0 0 1 0-1h7a.5.5 0 0 1 0 1z"/><path d="m54 31.5h-2a.5.5 0 0 1 0-1h2a.5.5 0 0 1 0 1z"/><path d="m45 37.5h-4a.5.5 0 0 1 0-1h4a.5.5 0 0 1 0 1z"/><path d="m54.001 37.5h-5a.5.5 0 0 1 0-1h5a.5.5 0 0 1 0 1z"/><path d="m50 43.5h-9a.5.5 0 0 1 0-1h9a.5.5 0 0 1 0 1z"/></g></svg>