<svg id="icons" height="512" viewBox="0 0 64 64" width="512" xmlns="http://www.w3.org/2000/svg"><path d="m40 17.85v2.15h-4v-2.15a1.85222 1.85222 0 0 1 1.85-1.85h.3a1.85222 1.85222 0 0 1 1.85 1.85z" fill="#4d5662"/><path d="m50 17.85v2.15h-6v-2.15a1.85222 1.85222 0 0 1 1.85-1.85h2.3a1.85222 1.85222 0 0 1 1.85 1.85z" fill="#4d5662"/><path d="m31.88 20.56c-13.04 3.22-30.88 19.44-30.88 19.44l3 4 3 4h25v-27z" fill="#e6ecf4"/><path d="m44 20h9a10.00365 10.00365 0 0 1 10 10v11a6.99488 6.99488 0 0 1 -7 7h-20v-10a2.01456 2.01456 0 0 1 2-2v-7.34a3.65323 3.65323 0 0 1 3.66-3.66h.01a1.33155 1.33155 0 0 0 1.33-1.33v-3.67zm14 10.09v-.09a5.00182 5.00182 0 0 0 -5-5h-3.5a3.5 3.5 0 0 0 0 7h6.59a1.91626 1.91626 0 0 0 1.91-1.91z" fill="#1ddabd"/><path d="m43 20v3.67a1.33155 1.33155 0 0 1 -1.33 1.33h-.01a3.65323 3.65323 0 0 0 -3.66 3.66v7.34a2.01456 2.01456 0 0 0 -2 2v10h-4v-27l-.12-.44a17.166 17.166 0 0 1 4.12-.56z" fill="#636a74"/><path d="m32 30v12l-14-4v-3z" fill="#cad1e1"/><path d="m1 40 3 4h6v-4z" fill="#d8e0eb"/><g id="g4172"><g id="path2546"><path d="m41 43.5a.49971.49971 0 0 1 -.5-.5v-4a.5.5 0 0 1 1 0v4a.49971.49971 0 0 1 -.5.5z" fill="#05c9b1"/></g><g id="path2550"><path d="m45 43.5a.49971.49971 0 0 1 -.5-.5v-4a.5.5 0 0 1 1 0v4a.49971.49971 0 0 1 -.5.5z" fill="#05c9b1"/></g><g id="path2554"><path d="m49 43.5a.49971.49971 0 0 1 -.5-.5v-4a.5.5 0 0 1 1 0v4a.49971.49971 0 0 1 -.5.5z" fill="#05c9b1"/></g></g></svg>