<svg id="icons" height="512" viewBox="0 0 64 64" width="512" xmlns="http://www.w3.org/2000/svg"><path d="m51 24h10v33h-10z" fill="#636a74"/><path d="m61 8v16h-10v-16l2-1h6z" fill="#4d5662"/><path d="m45 53v4h-26v-4-4h6 14 6z" fill="#636a74"/><path d="m25 44h14v4h-14z" fill="#4d5662"/><path d="m3 24h10v33h-10z" fill="#636a74"/><path d="m13 8v16h-10v-16l2-1h6z" fill="#4d5662"/><g id="path2660"><path d="m60.999 57.5h-10a.49972.49972 0 0 1 -.5-.5v-48.99951a.50111.50111 0 0 1 .27637-.44727l2-1.00049a.49893.49893 0 0 1 .22363-.05273h6a.49894.49894 0 0 1 .22364.05273l2 1.00049a.5011.5011 0 0 1 .27636.44727v48.99951a.49971.49971 0 0 1 -.5.5zm-9.5-1h9v-48.19043l-1.61814-.80957h-5.76367l-1.61819.80957z" fill="#636a74"/></g><g id="path2664"><path d="m12.999 57.5h-10a.49972.49972 0 0 1 -.5-.5v-48.99951a.50111.50111 0 0 1 .27637-.44727l2-1.00049a.49893.49893 0 0 1 .22363-.05273h6a.49894.49894 0 0 1 .22364.05273l2 1.00049a.5011.5011 0 0 1 .27636.44727v48.99951a.49971.49971 0 0 1 -.5.5zm-9.5-1h9v-48.19043l-1.61814-.80957h-5.76367l-1.61819.80957z" fill="#636a74"/></g><g id="rect2668"><path d="m63 57.5h-14a.5.5 0 0 1 0-1h14a.5.5 0 0 1 0 1z" fill="#7a8089"/></g><g id="rect2672"><path d="m15 57.5h-14a.5.5 0 0 1 0-1h14a.5.5 0 0 1 0 1z" fill="#7a8089"/></g><g id="path2684"><path d="m56.999 30.50049h-2a.5.5 0 0 1 0-1h2a.5.5 0 0 1 0 1z" fill="#4d5662"/></g><g id="path2688"><path d="m8.999 30.50049h-2a.5.5 0 0 1 0-1h2a.5.5 0 1 1 0 1z" fill="#4d5662"/></g><g id="path2692"><path d="m56.999 42.5h-2a.5.5 0 0 1 0-1h2a.5.5 0 0 1 0 1z" fill="#4d5662"/></g><g id="path2696"><path d="m8.999 42.5h-2a.5.5 0 0 1 0-1h2a.5.5 0 1 1 0 1z" fill="#4d5662"/></g><g id="path2700"><path d="m56.999 36.5h-2a.5.5 0 0 1 0-1h2a.5.5 0 0 1 0 1z" fill="#4d5662"/></g><g id="path2704"><path d="m8.999 36.5h-2a.5.5 0 0 1 0-1h2a.5.5 0 1 1 0 1z" fill="#4d5662"/></g><g id="path2708"><path d="m56.999 48.5h-2a.5.5 0 0 1 0-1h2a.5.5 0 0 1 0 1z" fill="#4d5662"/></g><g id="path2712"><path d="m8.999 48.5h-2a.5.5 0 0 1 0-1h2a.5.5 0 1 1 0 1z" fill="#4d5662"/></g><g id="rect2716"><path d="m44.99805 57.5h-26a.49971.49971 0 0 1 -.5-.5v-8a.49971.49971 0 0 1 .5-.5h26a.49972.49972 0 0 1 .5.5v8a.49972.49972 0 0 1 -.5.5zm-25.5-1h25v-7h-25z" fill="#636a74"/></g><g fill="#4d5662"><path d="m39 48.5h-14a.49971.49971 0 0 1 -.5-.5v-4a.49971.49971 0 0 1 .5-.5h14a.49971.49971 0 0 1 .5.5v4a.49971.49971 0 0 1 -.5.5zm-13.5-1h13v-3h-13z"/><path d="m41.49805 52.5a.5.5 0 0 0 0 1h4v-1z"/><path d="m22.49805 52.5h-4v1h4a.5.5 0 1 0 0-1z"/></g><g id="circle2748"><path d="m28.01855 55a1 1 0 0 1 -.00976-2h.00976a1 1 0 1 1 0 2z" fill="#4d5662"/></g><g id="circle2748-2" data-name="circle2748"><path d="m32.01953 55a1 1 0 0 1 -.00976-2h.00976a1 1 0 0 1 0 2z" fill="#4d5662"/></g><g id="circle2748-3" data-name="circle2748"><path d="m36.02051 55a1 1 0 0 1 -.00977-2h.00977a1 1 0 0 1 0 2z" fill="#4d5662"/></g><g id="circle2748-4" data-name="circle2748"><path d="m28.01855 54a1 1 0 0 1 -.00976-2h.00976a1 1 0 1 1 0 2z" fill="#cad1e1"/></g><g id="circle2748-5" data-name="circle2748"><path d="m32.01953 54a1 1 0 0 1 -.00976-2h.00976a1 1 0 0 1 0 2z" fill="#cad1e1"/></g><g id="circle2748-6" data-name="circle2748"><path d="m36.02051 54a1 1 0 0 1 -.00977-2h.00977a1 1 0 0 1 0 2z" fill="#cad1e1"/></g></svg>