<svg id="icons" height="512" viewBox="0 0 64 64" width="512" xmlns="http://www.w3.org/2000/svg"><g fill="#4d5662"><path d="m63.001 31.5a.49963.49963 0 0 1 -.416-.22266l-5.8516-8.77734h-7.7324a.5.5 0 0 1 0-1h8a.50013.50013 0 0 1 .416.22266l6 9a.5.5 0 0 1 -.416.77734z"/><path d="m.999 31.5a.5.5 0 0 1 -.416-.77734l6-9a.50013.50013 0 0 1 .416-.22266h8a.5.5 0 1 1 0 1h-7.7324l-5.8516 8.77734a.49963.49963 0 0 1 -.416.22266z"/><path d="m56.994 22h-50l-6 9h62z"/></g><path d="m63 53.5h-17.63184a.5.5 0 0 1 0-1h17.13184v-21h-61v21h17.13184a.5.5 0 0 1 0 1h-17.63184a.49971.49971 0 0 1 -.5-.5v-22a.49971.49971 0 0 1 .5-.5h62a.49971.49971 0 0 1 .5.5v22a.49971.49971 0 0 1 -.5.5z" fill="#636a74"/><path d="m1.006 31.012h62v22h-62z" fill="#636a74"/><path d="m48.124 8.87a2.91853 2.91853 0 0 0 -2.09006-.87h-28.08008a2.95347 2.95347 0 0 0 -2.96 2.96v15.04h34v-15.04a2.91863 2.91863 0 0 0 -.86986-2.09z" fill="#b7c3d5"/><path d="m5.994 40h4v8h-4z" fill="#a7b0c6"/><path d="m14.994 43h34v10.5h-34z" fill="#38424e"/><path d="m45.364 53 2.63 10h-32l2.63-10 2.63-10h4.74 12 4.74z" fill="#e6ecf4"/><path d="m42.994 8v18h-22v-18-7h22z" fill="#d8e0eb"/><path d="m10 48.5h-4a.49971.49971 0 0 1 -.5-.5v-8a.49971.49971 0 0 1 .5-.5h4a.49971.49971 0 0 1 .5.5v8a.49971.49971 0 0 1 -.5.5zm-3.5-1h3v-7h-3z" fill="#a7b0c6"/><path d="m.499 34.5h14.501v1h-14.501z" fill="#4d5662"/><path d="m49 34.5a.5.5 0 0 0 0 1h14.5v-1z" fill="#4d5662"/><path d="m54 48.5a.49971.49971 0 0 1 -.5-.5v-8a.5.5 0 0 1 1 0v8a.49971.49971 0 0 1 -.5.5z" fill="#a0d964"/><path d="m36 35.5h-8a.5.5 0 0 1 0-1h8a.5.5 0 0 1 0 1z" fill="#7a8089"/><path d="m58 48.5a.49971.49971 0 0 1 -.5-.5v-8a.5.5 0 0 1 1 0v8a.49971.49971 0 0 1 -.5.5z" fill="#ff5666"/><path d="m48 63.5h-32a.49876.49876 0 0 1 -.4834-.627l5.26367-20a.49979.49979 0 0 1 .9668.2539l-5.09863 19.3731h30.70312l-5.09765-19.373a.49979.49979 0 1 1 .96679-.2539l5.2627 20a.5.5 0 0 1 -.4834.6269z" fill="#e6ecf4"/><path d="m42 58.5h-20a.5.5 0 0 1 0-1h20a.5.5 0 0 1 0 1z" fill="#cad1e1"/><path d="m40 53.5h-16a.5.5 0 0 1 0-1h16a.5.5 0 0 1 0 1z" fill="#cad1e1"/><path d="m39 48.5h-14a.5.5 0 0 1 0-1h14a.5.5 0 0 1 0 1z" fill="#cad1e1"/><path d="m48.999 26.5h-34a.49972.49972 0 0 1 -.5-.5v-15.04346a3.48161 3.48161 0 0 1 1.01174-2.44384 3.43625 3.43625 0 0 1 2.44434-1.0127h3.04392a.5.5 0 0 1 0 1h-3.04392a2.44143 2.44143 0 0 0 -1.73731.71973 2.47235 2.47235 0 0 0 -.71875 1.73681v14.54346h33v-14.54346a2.47235 2.47235 0 0 0 -.71875-1.73681 2.44139 2.44139 0 0 0 -1.73727-.71973h-3.044a.5.5 0 0 1 0-1h3.044a3.43622 3.43622 0 0 1 2.4443 1.0127 3.48161 3.48161 0 0 1 1.0117 2.44384v15.04346a.49971.49971 0 0 1 -.5.5z" fill="#b7c3d5"/><path d="m43 .5h-22a.49971.49971 0 0 0 -.5.5v25.5h23v-25.5a.49971.49971 0 0 0 -.5-.5zm-.5 25h-21v-24h21z" fill="#d8e0eb"/><path d="m37.994 39h-12-11v4h6.26 4.74 12 4.74 6.26v-4z" fill="#4d5662"/><path d="m14.994 30.5h1v8.5h-1z" fill="#4d5662"/><path d="m14.994 39h1v4h-1z" fill="#38424e"/><path d="m48.001 30.5h1v8.5h-1z" fill="#4d5662"/><path d="m48.001 39h1v4h-1z" fill="#38424e"/><path d="m25.5 39h1v4h-1z" fill="#38424e"/><path d="m37.5 39h1v4h-1z" fill="#38424e"/></svg>