<?xml version="1.0" encoding="iso-8859-1"?>
<!-- Generator: Adobe Illustrator 19.0.0, SVG Export Plug-In . SVG Version: 6.00 Build 0)  -->
<svg version="1.1" id="Capa_1" xmlns="http://www.w3.org/2000/svg" xmlns:xlink="http://www.w3.org/1999/xlink" x="0px" y="0px"
	 viewBox="0 0 416 416" style="enable-background:new 0 0 416 416;" xml:space="preserve">
<path style="fill:#756556;" d="M80,408c-13.232,0-24-10.768-24-24V96c0-13.232,10.768-24,24-24h256c13.232,0,24,10.768,24,24v288
	c0,13.232-10.768,24-24,24H80z"/>
<rect x="80" y="96" style="fill:#FFFFFF;" width="256" height="288"/>
<path style="fill:#CDD7DE;" d="M120.008,120V95.616c0.136-17.52,12.016-33.192,28.888-38.056
	c10.056-2.896,17.784-10.616,20.656-20.64C174.448,19.888,190.264,8,208,8c17.744,0,33.552,11.888,38.456,28.92
	c2.88,10.024,10.592,17.736,20.624,20.632C284.112,62.448,296,78.256,296,96v24H120.008z"/>
<path style="fill:#BDC8CF;" d="M120,96v24h176V96H120z"/>
<g>
	<circle style="fill:#010101;" cx="208.24" cy="64" r="12"/>
	<path style="fill:#010101;" d="M368,96c0-17.672-14.328-32-32-32h-44.424c-5.928-6.584-13.536-11.624-22.28-14.136
		c-7.368-2.12-13.04-7.792-15.16-15.152C248.368,14.664,229.896,0,208,0s-40.368,14.664-46.136,34.704
		c-2.12,7.376-7.808,13.04-15.184,15.168c-8.736,2.52-16.344,7.552-22.264,14.128H80c-17.672,0-32,14.328-32,32v288
		c0,17.672,14.328,32,32,32c73.464,0,163.76,0,256,0c17.672,0,32-14.328,32-32C368,293.12,368,206.096,368,96z M151.112,65.248
		c12.712-3.664,22.48-13.424,26.128-26.112C181.16,25.512,193.808,16,208,16c14.192,0,26.84,9.512,30.76,23.128
		c3.656,12.696,13.416,22.456,26.112,26.112C278.488,69.16,288,81.808,288,96v16H128V95.744
		C128.112,81.672,137.616,69.136,151.112,65.248z M336,400c-85.456,0-170.768,0-256,0c-8.824,0-16-7.176-16-16V96
		c0-8.824,7.176-16,16-16h34.744c-1.728,4.896-2.696,10.144-2.736,15.616V128h192V96c0-5.616-0.992-10.992-2.768-16H336
		c8.824,0,16,7.176,16,16c0,45.744,0,260.256,0,288C352,392.824,344.824,400,336,400z"/>
</g>
<path style="fill:#88C341;" d="M280,216c17.672,0,32-14.328,32-32s-14.328-32-32-32s-32,14.328-32,32S262.328,216,280,216z"/>
<polygon style="fill:#EB4A2D;" points="109.656,256.664 128,238.32 146.344,256.664 157.656,245.352 139.312,227.008 
	157.656,208.664 146.344,197.352 128,215.696 109.656,197.352 98.344,208.664 116.688,227.008 98.344,245.352 "/>
<g>
	<rect x="192" y="240" style="fill:#878787;" width="16" height="16"/>
	<rect x="192" y="208" style="fill:#878787;" width="16" height="16"/>
	<polygon style="fill:#878787;" points="192,192 208,192 208,184 232,184 200,144 168,184 192,184 	"/>
	<path style="fill:#878787;" d="M280,232l-32,40h24v3.184C272,299.896,251.896,320,227.184,320h-39.032
		C200.312,308.872,208,292.928,208,275.184V272h-16v3.184c0,23.488-18.168,42.776-41.192,44.632H144V336h83.184
		C260.72,336,288,308.72,288,275.184V272h24L280,232z"/>
</g>
<path style="fill:#355FAA;" d="M128,360c17.672,0,32-14.328,32-32s-14.328-32-32-32s-32,14.328-32,32S110.328,360,128,360z"/>
<g>
</g>
<g>
</g>
<g>
</g>
<g>
</g>
<g>
</g>
<g>
</g>
<g>
</g>
<g>
</g>
<g>
</g>
<g>
</g>
<g>
</g>
<g>
</g>
<g>
</g>
<g>
</g>
<g>
</g>
</svg>
