<?xml version="1.0" encoding="iso-8859-1"?>
<!-- Generator: Adobe Illustrator 19.0.0, SVG Export Plug-In . SVG Version: 6.00 Build 0)  -->
<svg version="1.1" id="Capa_1" xmlns="http://www.w3.org/2000/svg" xmlns:xlink="http://www.w3.org/1999/xlink" x="0px" y="0px"
	 viewBox="0 0 448 448" style="enable-background:new 0 0 448 448;" xml:space="preserve">
<path style="fill:#756556;" d="M40.708,408c-13.232,0-24-10.768-24-24V96c0-13.232,10.768-24,24-24h256c13.232,0,24,10.768,24,24
	v288c0,13.232-10.768,24-24,24H40.708z"/>
<rect x="40.708" y="96" style="fill:#FFFFFF;" width="256" height="288"/>
<path style="fill:#CDD7DE;" d="M80.716,120V95.616c0.136-17.52,12.016-33.192,28.888-38.056
	c10.056-2.896,17.784-10.616,20.656-20.64C135.156,19.888,150.972,8,168.708,8c17.744,0,33.552,11.888,38.456,28.92
	c2.88,10.024,10.592,17.736,20.624,20.632c17.032,4.896,28.92,20.704,28.92,38.448v24C256.7,120,80.716,120,80.716,120z"/>
<rect x="72.708" y="208" style="fill:#CB5741;" width="48" height="104"/>
<rect x="216.708" y="160" style="fill:#EFB820;" width="48" height="152"/>
<rect x="144.708" y="192" style="fill:#5783C3;" width="48" height="120"/>
<g>
	<rect x="72.708" y="328" style="fill:#676868;" width="48" height="16"/>
	<rect x="144.708" y="328" style="fill:#676868;" width="48" height="16"/>
</g>
<path style="fill:#BDC8CF;" d="M80.708,96v24h176V96H80.708z"/>
<path style="fill:#FFFFFF;" d="M320.5,440c-57.344,0-104-46.656-104-104s46.656-104,104-104s104,46.656,104,104
	S377.844,440,320.5,440z"/>
<g>
	<path style="fill:#010101;" d="M416.668,251.144l11.312,11.312l11.312-11.312L405.348,217.2l-11.312,11.312l11.312,11.312
		l-11.584,11.584c-17.76-15.392-40.376-25.248-65.272-27.016V208h16v-16h-48v16h16v16.4c-58.104,4.12-104,52.44-104,111.6
		c0,23.816,7.488,45.848,20.16,64H40.708c-8.824,0-16-7.176-16-16V96c0-8.824,7.176-16,16-16h34.744
		c-1.728,4.888-2.696,10.144-2.736,15.616V128h192V96c0-5.616-0.992-10.992-2.768-16h34.76c8.824,0,16,7.176,16,16v80h16V96
		c0-17.672-14.328-32-32-32h-44.424c-5.928-6.584-13.536-11.624-22.28-14.136c-7.368-2.12-13.04-7.792-15.16-15.152
		C209.076,14.664,190.604,0,168.708,0s-40.368,14.664-46.136,34.704c-2.12,7.376-7.808,13.04-15.184,15.168
		C98.652,52.392,91.044,57.424,85.124,64H40.708c-17.672,0-32,14.328-32,32v288c0,17.672,14.328,32,32,32h201.48
		c20.2,19.776,47.816,32,78.312,32c61.856,0,112-50.144,112-112c0-28.048-10.384-53.624-27.416-73.272L416.668,251.144z
		 M88.708,95.744c0.112-14.064,9.616-26.608,23.112-30.496c12.712-3.664,22.48-13.424,26.128-26.112
		C141.868,25.512,154.516,16,168.708,16s26.84,9.512,30.76,23.128c3.648,12.696,13.416,22.456,26.112,26.112
		c13.616,3.92,23.128,16.568,23.128,30.76v16h-160V95.744z M416.5,336c0,52.936-43.064,96-96,96c-52.936,0-96-43.064-96-96
		s43.064-96,96-96C373.436,240,416.5,283.064,416.5,336z"/>
	
		<rect x="303.974" y="301.826" transform="matrix(-0.7071 0.7071 -0.7071 -0.7071 810.9153 283.6243)" style="fill:#010101;" width="85.487" height="15.864"/>
	<circle style="fill:#010101;" cx="168.948" cy="48" r="12"/>
	<circle style="fill:#010101;" cx="320.604" cy="264.24" r="8.104"/>
	<circle style="fill:#010101;" cx="269.524" cy="285.16" r="8.104"/>
	<circle style="fill:#010101;" cx="248.428" cy="336.08" r="8.104"/>
	<circle style="fill:#010101;" cx="269.524" cy="386.96" r="8.104"/>
	<circle style="fill:#010101;" cx="320.428" cy="408.08" r="8.104"/>
	<circle style="fill:#010101;" cx="371.348" cy="386.96" r="8.104"/>
	<circle style="fill:#010101;" cx="392.428" cy="336.08" r="8.104"/>
</g>
<g>
</g>
<g>
</g>
<g>
</g>
<g>
</g>
<g>
</g>
<g>
</g>
<g>
</g>
<g>
</g>
<g>
</g>
<g>
</g>
<g>
</g>
<g>
</g>
<g>
</g>
<g>
</g>
<g>
</g>
</svg>
