<?xml version="1.0" encoding="iso-8859-1"?>
<!-- Generator: Adobe Illustrator 19.0.0, SVG Export Plug-In . SVG Version: 6.00 Build 0)  -->
<svg version="1.1" id="Capa_1" xmlns="http://www.w3.org/2000/svg" xmlns:xlink="http://www.w3.org/1999/xlink" x="0px" y="0px"
	 viewBox="0 0 470.624 470.624" style="enable-background:new 0 0 470.624 470.624;" xml:space="preserve">
<path style="fill:#756556;" d="M107.312,408c-13.232,0-24-10.768-24-24V96c0-13.232,10.768-24,24-24h256c13.232,0,24,10.768,24,24
	v288c0,13.232-10.768,24-24,24H107.312z"/>
<rect x="107.312" y="96" style="fill:#FFFFFF;" width="256" height="288"/>
<path style="fill:#CDD7DE;" d="M147.312,120V95.616c0.136-17.52,12.016-33.192,28.888-38.056
	c10.056-2.896,17.784-10.616,20.656-20.64C201.76,19.888,217.576,8,235.304,8c17.744,0,33.552,11.888,38.456,28.92
	c2.88,10.024,10.592,17.736,20.624,20.632c17.032,4.896,28.92,20.704,28.92,38.448v24H147.312z"/>
<path style="fill:#BDC8CF;" d="M147.312,96v24h176V96H147.312z"/>
<path style="fill:#5F554B;" d="M387.304,278.856l-95.424-95.424L231.192,408h132.112c13.232,0,24-10.768,24-24V278.856z"/>
<polygon style="fill:#CCD6DE;" points="237.68,384 363.312,384 363.312,254.864 291.88,183.432 "/>
<path style="fill:#5785C4;" d="M307.312,240c0-39.704-32.296-72-72-72s-72,32.296-72,72c0,16.968,6.144,32.376,16,44.696v166.616
	l56-56l56,56V284.696C301.168,272.376,307.312,256.968,307.312,240z"/>
<path style="fill:#355FAA;" d="M235.312,312c-22.736,0-42.792-10.8-56-27.304v42.952l3.984,2.312
	c15.832,9.184,33.816,14.04,52.016,14.04c18.184,0,36.168-4.848,52.016-14.024l3.984-2.312v-42.968
	C278.104,301.2,258.048,312,235.312,312z"/>
<g>
	<circle style="fill:#010101;" cx="235.552" cy="64" r="12"/>
	<path style="fill:#010101;" d="M395.312,96c0-17.672-14.328-32-32-32h-44.424c-5.928-6.584-13.536-11.624-22.28-14.136
		c-7.368-2.12-13.04-7.792-15.16-15.152C275.68,14.664,257.208,0,235.312,0s-40.368,14.664-46.136,34.704
		c-2.12,7.376-7.808,13.04-15.184,15.168c-8.736,2.52-16.344,7.552-22.264,14.128h-44.416c-17.672,0-32,14.328-32,32v288
		c0,17.672,14.328,32,32,32c20.08,0,41.68,0,64,0v54.624c33.544-33.544,25.656-25.656,64-64c38.336,38.336,30.48,30.48,64,64V416
		c21.136,0,42.456,0,64,0c17.672,0,32-14.328,32-32C395.312,293.12,395.312,206.096,395.312,96z M178.424,65.248
		c12.712-3.664,22.48-13.424,26.128-26.12C208.472,25.512,221.12,16,235.312,16c14.192,0,26.84,9.512,30.76,23.128
		c3.656,12.696,13.416,22.456,26.112,26.112C305.8,69.16,315.312,81.808,315.312,96v16h-160V95.744
		C155.424,81.672,164.928,69.136,178.424,65.248z M171.312,240c0-35.288,28.712-64,64-64s64,28.712,64,64s-28.712,64-64,64
		S171.312,275.288,171.312,240z M283.312,432l-48-48l-48,48V303.64c13.4,10.128,29.904,16.36,48,16.36s34.6-6.232,48-16.36V432z
		 M363.312,400c-21.36,0-42.664,0-64,0V288v-0.44c9.92-13.328,16-29.672,16-47.56c0-44.184-35.816-80-80-80s-80,35.816-80,80
		c0,17.888,6.08,34.232,16,47.56V288v112c-21.328,0-42.696,0-64,0c-8.824,0-16-7.176-16-16V96c0-8.824,7.176-16,16-16h34.744
		c-1.728,4.888-2.696,10.144-2.744,15.616V128h192V96c0-5.616-0.992-10.992-2.768-16h34.768c8.824,0,16,7.176,16,16
		c0,45.744,0,260.256,0,288C379.312,392.824,372.136,400,363.312,400z"/>
</g>
<polygon style="fill:#FACE59;" points="262.512,275.712 235.312,255.952 208.112,275.712 218.496,243.744 191.296,223.984 
	224.928,223.968 235.312,192 245.696,223.968 279.328,223.984 252.128,243.744 "/>
<g>
</g>
<g>
</g>
<g>
</g>
<g>
</g>
<g>
</g>
<g>
</g>
<g>
</g>
<g>
</g>
<g>
</g>
<g>
</g>
<g>
</g>
<g>
</g>
<g>
</g>
<g>
</g>
<g>
</g>
</svg>
