<?xml version="1.0" encoding="iso-8859-1"?>
<!-- Generator: Adobe Illustrator 19.0.0, SVG Export Plug-In . SVG Version: 6.00 Build 0)  -->
<svg version="1.1" id="Capa_1" xmlns="http://www.w3.org/2000/svg" xmlns:xlink="http://www.w3.org/1999/xlink" x="0px" y="0px"
	 viewBox="0 0 416 416" style="enable-background:new 0 0 416 416;" xml:space="preserve">
<path style="fill:#756556;" d="M79.992,408c-13.232,0-24-10.768-24-24V96c0-13.232,10.768-24,24-24h256c13.232,0,24,10.768,24,24
	v288c0,13.232-10.768,24-24,24H79.992z"/>
<rect x="80" y="96" style="fill:#FFFFFF;" width="256" height="288"/>
<path style="fill:#CDD7DE;" d="M120,120V95.616c0.136-17.52,12.016-33.192,28.888-38.056c10.056-2.896,17.784-10.616,20.656-20.64
	C174.448,19.888,190.264,8,208,8c17.744,0,33.552,11.888,38.456,28.92c2.88,10.024,10.592,17.736,20.624,20.632
	C284.112,62.448,296,78.256,296,96v24H120z"/>
<path style="fill:#BDC8CF;" d="M120,96v24h176V96H120z"/>
<g>
	<circle style="fill:#010101;" cx="208.24" cy="48" r="12"/>
	<path style="fill:#010101;" d="M368,96c0-17.672-14.328-32-32-32h-44.424c-5.928-6.584-13.536-11.624-22.28-14.136
		c-7.368-2.12-13.04-7.792-15.16-15.152C248.368,14.664,229.896,0,208,0s-40.368,14.664-46.136,34.704
		c-2.12,7.376-7.808,13.04-15.184,15.168c-8.736,2.52-16.344,7.552-22.264,14.128H80c-17.672,0-32,14.328-32,32v288
		c0,17.672,14.328,32,32,32c73.464,0,163.76,0,256,0c17.672,0,32-14.328,32-32C368,293.12,368,206.096,368,96z M151.112,65.248
		c12.712-3.664,22.48-13.424,26.128-26.112C181.16,25.512,193.808,16,208,16c14.192,0,26.84,9.512,30.76,23.128
		c3.656,12.696,13.416,22.456,26.112,26.112C278.488,69.16,288,81.808,288,96v16H128V95.744
		C128.112,81.672,137.616,69.136,151.112,65.248z M336,400c-85.456,0-170.768,0-256,0c-8.824,0-16-7.176-16-16V96
		c0-8.824,7.176-16,16-16h34.744c-1.728,4.888-2.696,10.144-2.744,15.616V128h192V96c0-5.616-0.992-10.992-2.768-16H336
		c8.824,0,16,7.176,16,16c0,45.744,0,260.256,0,288C352,392.824,344.824,400,336,400z"/>
</g>
<path style="fill:#5683C3;" d="M240,160c-11.672,0-22.576,3.176-32,8.632c19.112,11.072,32,31.696,32,55.368
	s-12.888,44.296-32,55.368c9.416,5.456,20.328,8.632,32,8.632c35.344,0,64-28.656,64-64S275.344,160,240,160z"/>
<path style="fill:#F1B924;" d="M176,224c0-23.672,12.888-44.296,32-55.368c-9.424-5.456-20.328-8.632-32-8.632
	c-35.344,0-64,28.656-64,64s28.656,64,64,64c11.672,0,22.576-3.176,32-8.632C188.888,268.296,176,247.672,176,224z"/>
<path style="fill:#459C60;" d="M240,224c0-23.672-12.888-44.296-32-55.368c-19.112,11.072-32,31.696-32,55.368
	s12.888,44.296,32,55.368C227.112,268.296,240,247.672,240,224z"/>
<path style="fill:#4A6EA3;" d="M296.512,254.008l-75.264-75.264C232.848,190.312,240,206.32,240,224
	c0,23.672-12.888,44.296-32,55.368c9.416,5.456,20.328,8.632,32,8.632C264.496,288,285.76,274.224,296.512,254.008z"/>
<g>
	<path style="fill:#F7CE6C;" d="M187.536,261l-6.232,4.408c1.56,2.2,3.224,4.304,5.008,6.304l5.696-5.08
		C190.424,264.84,188.92,262.968,187.536,261z"/>
	<path style="fill:#F7CE6C;" d="M180.616,248.416l-7.056,2.904c1.024,2.496,2.184,4.92,3.48,7.256l6.688-3.672
		C182.584,252.808,181.536,250.648,180.616,248.416z"/>
	<path style="fill:#F7CE6C;" d="M176.696,234.6l-7.528,1.256c0.448,2.672,1.032,5.288,1.76,7.848l7.344-2.08
		C177.616,239.336,177.088,236.992,176.696,234.6z"/>
	<path style="fill:#F7CE6C;" d="M178.344,206.08l-7.328-2.128c-0.744,2.568-1.352,5.184-1.808,7.848l7.52,1.288
		C177.144,210.712,177.68,208.376,178.344,206.08z"/>
	<path style="fill:#F7CE6C;" d="M183.888,192.816l-6.672-3.704c-1.296,2.336-2.472,4.752-3.512,7.24l7.04,2.944
		C181.672,197.072,182.72,194.912,183.888,192.816z"/>
	<path style="fill:#F7CE6C;" d="M192.24,181.12l-5.688-5.096c-1.792,2-3.472,4.096-5.032,6.288l6.208,4.432
		C189.128,184.792,190.632,182.912,192.24,181.12z"/>
	<path style="fill:#F7CE6C;" d="M175.816,224.056c0-1.136,0.024-2.28,0.088-3.424L168.296,220l-0.008,0.192
		c-0.064,1.32-0.104,2.592-0.104,3.856c0,1.416,0.04,2.832,0.128,4.232l7.616-0.448
		C175.848,226.592,175.816,225.328,175.816,224.056z"/>
	<path style="fill:#F7CE6C;" d="M199.632,164.624l-0.136,0.016c-2.632,1.808-5.176,3.72-7.544,5.84l5.36,5.968
		c2.904-2.608,8.64-6.632,10.688-7.816C205.328,167.088,202.52,165.784,199.632,164.624z"/>
	<path style="fill:#F7CE6C;" d="M197.256,271.496l-5.368,5.96c2.4,2.16,4.984,4.104,7.656,5.936c2.904-1.16,5.776-2.472,8.456-4.024
		C205.928,278.168,200.192,274.144,197.256,271.496z"/>
	<path style="fill:#F7CE6C;" d="M226.2,286.432c4.448,0.992,9.048,1.568,13.8,1.568L226.2,286.432z"/>
</g>
<circle style="fill:#F1B924;" cx="136" cy="328" r="8"/>
<circle style="fill:#5683C3;" cx="232" cy="328" r="8"/>
<circle style="fill:#CB5741;" cx="280" cy="328" r="8"/>
<circle style="fill:#459C60;" cx="184" cy="328" r="8"/>
<g>
</g>
<g>
</g>
<g>
</g>
<g>
</g>
<g>
</g>
<g>
</g>
<g>
</g>
<g>
</g>
<g>
</g>
<g>
</g>
<g>
</g>
<g>
</g>
<g>
</g>
<g>
</g>
<g>
</g>
</svg>
