<svg xmlns="http://www.w3.org/2000/svg" viewBox="0 0 279.15 52.63"><defs><style>.cls-1{fill:#2699d6;}.cls-2{fill:#2f4a74;}</style></defs><title>Asset 1</title><g id="Layer_2" data-name="Layer 2"><g id="Camada_1" data-name="Camada 1"><path class="cls-1" d="M.47,0,24.35,19.5,41.75.68a.41.41,0,0,0-.3-.68Z"/><path class="cls-1" d="M.47,52.63l23.88-19.5,17.4,18.81a.41.41,0,0,1-.3.68Z"/><path class="cls-2" d="M.73.1,32.45,26a.45.45,0,0,1,0,.69L.73,52.53A.45.45,0,0,1,0,52.18V.45A.45.45,0,0,1,.73.1Z"/><path class="cls-2" d="M131.92,37.35c0,9-7.29,15.25-16.38,15.25H93.65a.43.43,0,0,1-.43-.43V.43A.42.42,0,0,1,93.65,0H114c8.87,0,16,6,16,14.8a13,13,0,0,1-5,10.52A13.33,13.33,0,0,1,131.92,37.35ZM103.59,10.06V20.83a.44.44,0,0,0,.44.44H114a5.62,5.62,0,0,0,5.61-6.37,5.81,5.81,0,0,0-5.84-5.2h-9.78A.35.35,0,0,0,103.59,10.06Zm18,26.13a6.18,6.18,0,0,0-6.23-5.67H103.59v12.4h11.95A6,6,0,0,0,121.61,36.19Z"/><path class="cls-2" d="M169.06,43.14h-20.4a.39.39,0,0,0-.37.27l-3,8.93a.39.39,0,0,1-.37.27H134.58a.39.39,0,0,1-.37-.52L152.34.27a.39.39,0,0,1,.37-.26H165a.39.39,0,0,1,.37.26l18.21,51.81a.39.39,0,0,1-.37.52H172.78a.39.39,0,0,1-.37-.27l-3-8.93A.39.39,0,0,0,169.06,43.14Zm-3.12-10.21-6.67-19.87a.39.39,0,0,0-.74,0l-6.67,19.87a.39.39,0,0,0,.37.52h13.34A.39.39,0,0,0,165.93,32.93Z"/><path class="cls-2" d="M229.67.43V52.18a.42.42,0,0,1-.42.42H222a.42.42,0,0,1-.35-.18l-22.41-32V52.18a.42.42,0,0,1-.42.42H189.3a.42.42,0,0,1-.42-.42V.43A.42.42,0,0,1,189.3,0h7.25a.42.42,0,0,1,.35.18l22.41,31.9V.43a.42.42,0,0,1,.42-.42h9.52A.42.42,0,0,1,229.67.43Z"/><path class="cls-2" d="M267.56,52.39l-9.71-16.28a.44.44,0,0,0-.76,0l-9.71,16.28a.44.44,0,0,1-.38.21h-10.7a.44.44,0,0,1-.38-.67l15.55-26.08a.44.44,0,0,0,0-.45L236.75.67a.44.44,0,0,1,.38-.66h10.7a.44.44,0,0,1,.38.21l8.89,14.93a.44.44,0,0,0,.76,0L266.73.22a.44.44,0,0,1,.38-.21h10.7a.44.44,0,0,1,.38.67L263.47,25.33a.44.44,0,0,0,0,.45l15.62,26.16a.44.44,0,0,1-.38.67H267.94A.44.44,0,0,1,267.56,52.39Z"/><path class="cls-2" d="M66.18,42.66a2.75,2.75,0,0,1-2.4-2.72V31.3a.41.41,0,0,1,.41-.41h19.1a.41.41,0,0,0,.41-.41v-9a.41.41,0,0,0-.41-.41H64.18a.41.41,0,0,1-.41-.41V10.33a.41.41,0,0,1,.41-.41h21a.41.41,0,0,0,.41-.41V.42A.41.41,0,0,0,85.16,0H53.81a.41.41,0,0,0-.41.41V42.79a9.83,9.83,0,0,0,9.83,9.83h22.7v-10Z"/></g></g></svg>