<svg clip-rule="evenodd" fill-rule="evenodd" height="2.667in" image-rendering="optimizeQuality" shape-rendering="geometricPrecision" text-rendering="geometricPrecision" viewBox="0 0 2667 2667" width="2.667in" xmlns="http://www.w3.org/2000/svg"><g id="Layer_x0020_1"><circle cx="1333" cy="1333" fill="#f10" r="1333"/><path d="m2161 1824h-1010c-9 0-17-5-22-13l-35-62-68 67c-5 5-11 8-18 8h-502c-14 0-26-12-26-26v-307c0-8 4-15 10-20s13-7 21-5c10 2 20 3 30 3 81 0 147-66 147-147 0-88-75-147-145-147-11 0-21 1-31 4-8 2-16 0-22-5s-10-13-10-20v-285c0-14 12-26 26-26h502c7 0 13 3 18 8l68 67 35-62c4-8 13-13 22-13h1010c14 0 26 12 26 26v284c0 8-4 15-10 20s-13 7-21 5c-10-2-20-3-30-3-81 0-147 66-147 147 0 88 75 147 145 147 10 0 21-1 31-3 7-2 16-1 22 4s10 13 10 21v307c0 14-12 26-26 26zm-635-165c28 0 54-14 68-37l7-11 11 6c23 13 54 12 77-1 24-14 40-39 40-67v-13h13c28-1 53-16 67-40s14-53 1-77l-6-11 11-7c23-14 37-40 37-68 0-27-14-53-37-67l-11-7 6-11c13-25 13-54-1-78s-39-39-67-39l-13-1v-12c0-28-16-53-40-67-23-13-54-14-77-1l-11 6-7-11c-14-24-40-38-68-38-27 0-53 14-67 38l-7 11-11-6c-24-13-54-12-78 1-24 14-39 39-39 67l-1 12-12 1c-28 0-53 16-67 39-14 24-14 54-1 78l6 11-11 7c-24 14-38 40-38 67 0 28 14 54 38 68l11 7-6 11c-13 24-13 53 1 77s39 39 67 40h12l1 13c0 28 15 53 39 67 24 13 54 13 78 1l11-6 7 11c14 23 40 37 67 37zm301-326c0 30-23 54-52 54-6 1-11 4-12 10-1 5 1 11 6 14 25 15 33 47 18 73-14 25-47 34-73 20-5-2-11-1-14 3-4 3-5 9-3 14 14 26 5 58-20 73-8 5-18 7-27 7-19 0-36-9-46-26-3-4-9-6-14-5-6 1-9 6-10 12 0 29-24 52-54 52-29 0-53-23-54-52 0-6-4-11-9-12-1 0-2 0-3 0-5 0-9 2-11 5-10 17-27 26-46 26-10 0-19-2-27-7-26-15-35-47-21-73 3-5 2-11-2-14-4-4-10-5-15-3-25 14-58 5-72-20-15-26-7-58 18-73 5-3 7-9 6-14-2-6-6-9-12-10-29 0-53-24-53-54 0-29 24-53 53-54 6 0 10-4 12-9 1-5-1-11-6-14-25-15-33-48-18-73 14-25 47-34 72-21 5 3 11 2 15-2s5-10 2-15c-14-26-5-58 21-72 8-5 17-8 27-8 19 0 36 10 46 26 3 5 9 7 14 6 5-2 9-6 9-12 1-29 25-53 54-53 30 0 54 24 54 53 1 5 4 10 10 12 5 1 11-1 14-6 10-16 27-26 46-26 9 0 19 3 27 8 25 14 34 46 20 72-2 5-1 11 3 15 3 4 9 5 14 2 26-13 59-4 73 21 15 25 7 58-18 73-5 3-7 9-6 14s6 9 12 9c29 1 52 25 52 54zm-403 123c3 0 7-2 9-4l211-228c4-5 4-13-1-18-5-4-13-4-18 1l-210 228c-5 5-5 13 0 18 3 2 6 3 9 3zm160 44c32 0 58-26 58-58s-26-58-58-58-58 26-58 58 26 58 58 58zm0-91c19 0 33 15 33 33 0 19-14 33-33 33-18 0-33-14-33-33 0-18 15-33 33-33zm-120-127c32 0 58-26 58-58s-26-58-58-58-58 26-58 58 26 58 58 58zm0-91c18 0 33 15 33 33 0 19-15 33-33 33-19 0-33-14-33-33 0-18 14-33 33-33zm-830 509c0 7 6 13 13 13h53c7 0 13-6 13-13s-6-13-13-13h-53c-7 0-13 6-13 13zm1321 0c0 7 6 13 13 13h53c7 0 12-6 12-13s-5-13-12-13h-53c-7 0-13 6-13 13zm0-733c0 7 6 12 13 12h53c7 0 12-5 12-12s-5-13-12-13h-53c-7 0-13 6-13 13zm-1322 0c0 7 6 12 13 12h53c7 0 13-5 13-12s-6-13-13-13h-53c-7 0-13 6-13 13zm466 630c7 0 13-5 13-12v-97c0-7-6-12-13-12s-12 5-12 12v97c0 7 5 12 12 12zm0-203c7 0 13-6 13-13v-96c0-7-6-12-13-12s-12 5-12 12v96c0 7 5 13 12 13zm0-203c7 0 13-6 13-13v-96c0-7-6-13-13-13s-12 6-12 13v96c0 7 5 13 12 13z" fill="#fff"/></g></svg>