<svg clip-rule="evenodd" fill-rule="evenodd" height="2.667in" image-rendering="optimizeQuality" shape-rendering="geometricPrecision" text-rendering="geometricPrecision" viewBox="0 0 2667 2667" width="2.667in" xmlns="http://www.w3.org/2000/svg"><g id="Layer_x0020_1"><circle cx="1333" cy="1333" fill="#ff700d" r="1333"/><path d="m2047 2187h-1428c-77 0-139-63-139-140v-1428c0-77 62-139 139-139h1428c77 0 140 62 140 139v1428c0 77-63 140-140 140zm-225-1173c22 0 39-18 39-39v-167c0-21-18-38-39-38h-94c-21 0-38 17-38 38v167c0 21 17 39 38 39zm-107-219h121v194l-121-1zm214 1219c33 0 60-27 60-60v-349c0-33-27-60-60-60h-117c-33 0-60 27-60 60v349c0 33 27 60 60 60zm-117-444h117c19 0 35 15 35 35v349c0 20-16 35-35 35h-117c-19 0-35-15-35-35v-349c0-20 16-35 35-35zm-230 444c27 0 49-21 49-48v-89c0-27-22-48-49-48h-140c-26 0-48 21-48 48v89c0 27 22 48 48 48zm-140-160h140c13 0 24 10 24 23v89c0 13-11 23-24 23h-140c-13 0-23-10-23-23v-89c0-13 10-23 23-23zm-218 160c27 0 49-21 49-48v-89c0-27-22-48-49-48h-140c-27 0-48 21-48 48v89c0 27 21 48 48 48zm-140-160h140c13 0 24 10 24 23v89c0 13-11 23-24 23h-140c-13 0-23-10-23-23v-89c0-13 10-23 23-23zm-218 160c27 0 49-21 49-48v-89c0-27-22-48-49-48h-140c-27 0-48 21-48 48v89c0 27 21 48 48 48zm-140-160h140c13 0 24 10 24 23v89c0 13-11 23-24 23h-140c-13 0-23-10-23-23v-89c0-13 10-23 23-23zm856-124c27 0 49-21 49-48v-89c0-27-22-48-49-48h-140c-26 0-48 21-48 48v89c0 27 22 48 48 48zm-140-160h140c13 0 24 10 24 23v89c0 13-11 23-24 23h-140c-13 0-23-10-23-23v-89c0-13 10-23 23-23zm-218 160c27 0 49-21 49-48v-89c0-27-22-48-49-48h-140c-27 0-48 21-48 48v89c0 27 21 48 48 48zm-140-160h140c13 0 24 10 24 23v89c0 13-11 23-24 23h-140c-13 0-23-10-23-23v-89c0-13 10-23 23-23zm-218 160c27 0 49-21 49-48v-89c0-27-22-48-49-48h-140c-27 0-48 21-48 48v89c0 27 21 48 48 48zm-140-160h140c13 0 24 10 24 23v89c0 13-11 23-24 23h-140c-13 0-23-10-23-23v-89c0-13 10-23 23-23zm1215-123c26 0 48-22 48-49v-89c0-26-22-48-48-48h-141c-26 0-48 22-48 48v89c0 27 22 49 48 49zm-141-161h141c12 0 23 10 23 23v89c0 13-11 23-23 23h-141c-12 0-23-10-23-23v-89c0-13 11-23 23-23zm-218 161c27 0 49-22 49-49v-89c0-26-22-48-49-48h-140c-26 0-48 22-48 48v89c0 27 22 49 48 49zm-140-161h140c13 0 24 10 24 23v89c0 13-11 23-24 23h-140c-13 0-23-10-23-23v-89c0-13 10-23 23-23zm-218 161c27 0 49-22 49-49v-89c0-26-22-48-49-48h-140c-27 0-48 22-48 48v89c0 27 21 49 48 49zm-140-161h140c13 0 24 10 24 23v89c0 13-11 23-24 23h-140c-13 0-23-10-23-23v-89c0-13 10-23 23-23zm-218 161c27 0 49-22 49-49v-89c0-26-22-48-49-48h-140c-27 0-48 22-48 48v89c0 27 21 49 48 49zm-140-161h140c13 0 24 10 24 23v89c0 13-11 23-24 23h-140c-13 0-23-10-23-23v-89c0-13 10-23 23-23zm1180-155c46 0 83-38 83-84v-311c0-46-37-84-83-84h-1145c-46 0-83 38-83 84v311c0 46 37 84 83 84zm-1145-454h1145c32 0 58 27 58 59v311c0 33-26 59-58 59h-1145c-32 0-58-26-58-59v-311c0-32 26-59 58-59z" fill="#fff"/></g></svg>