<svg clip-rule="evenodd" fill-rule="evenodd" height="2.667in" image-rendering="optimizeQuality" shape-rendering="geometricPrecision" text-rendering="geometricPrecision" viewBox="0 0 2667 2667" width="2.667in" xmlns="http://www.w3.org/2000/svg"><g id="Layer_x0020_1"><circle cx="1333" cy="1333" fill="#f44c71" r="1333"/><path d="m1333 2187c-470 0-853-383-853-854 0-470 383-853 853-853 471 0 854 383 854 853 0 471-383 854-854 854zm0-736c18 0 35-4 50-11l51 85c2 4 6 6 10 6 3 0 5-1 7-2 6-4 8-11 4-17l-51-85c28-21 47-55 47-94 0-60-46-110-105-117v-157c0-7-6-12-13-12s-12 5-12 12v157c-59 7-105 57-105 117 0 65 53 118 117 118zm1-210c51 0 92 42 92 92 0 51-42 93-93 93s-92-42-92-93c0-50 41-92 92-92zm-1 785c190 0 363-77 488-201l2-2 2-2c124-125 201-298 201-488s-77-362-201-487c0-1-1-2-2-3-1 0-1-1-2-1-125-125-298-201-487-201h-1c-190 0-362 76-487 201-1 0-2 1-3 1 0 1-1 2-1 3-125 125-201 297-201 487v1c0 189 76 362 201 487 0 1 1 1 1 2 1 1 2 1 3 2 125 124 297 201 487 201zm13-1360c174 3 333 74 450 187l-69 69c-5 5-5 13 0 18 3 2 6 3 9 3s7-1 9-3l69-70c113 118 184 276 187 451h-98c-7 0-13 5-13 12s6 13 13 13h98c-3 174-74 333-187 450l-69-69c-5-5-13-5-18 0s-5 13 0 18l69 69c-117 113-275 184-450 187v-98c0-7-6-13-13-13s-12 6-12 13v98c-175-3-333-74-451-187l70-69c4-5 4-13 0-18-5-5-13-5-18 0l-69 69c-113-117-184-275-187-450h98c7 0 12-6 12-13s-5-12-12-12h-98c3-175 74-333 187-451l69 69c2 3 5 4 9 4 3 0 6-1 8-3 5-5 5-13 0-18l-69-69c118-113 276-184 451-187v98c0 7 5 12 12 12s13-5 13-12z" fill="#fff"/></g></svg>