<svg clip-rule="evenodd" fill-rule="evenodd" height="2.667in" image-rendering="optimizeQuality" shape-rendering="geometricPrecision" text-rendering="geometricPrecision" viewBox="0 0 2667 2667" width="2.667in" xmlns="http://www.w3.org/2000/svg"><g id="Layer_x0020_1"><circle cx="1333" cy="1333" fill="#1d81ce" r="1333"/><path d="m1789 2187h-912c-70 0-127-57-127-127v-1453c0-70 57-127 127-127h912c70 0 127 57 127 127v1453c0 70-57 127-127 127zm-247-533c32 0 58-26 58-57 0-32-26-58-58-58-31 0-57 26-57 58 0 31 26 57 57 57zm0-90c18 0 33 15 33 33s-15 32-33 32-32-14-32-32 14-33 32-33zm-246 92c32 0 58-26 58-58s-26-58-58-58c-31 0-57 26-57 58s26 58 57 58zm0-91c18 0 33 15 33 33s-15 33-33 33-32-15-32-33 14-33 32-33zm289-156c24-6 40-30 44-55l35-189c2-14-2-28-11-39-12-14-30-22-48-22h-433l-11-43c-5-18-16-32-31-41-16-9-34-11-51-7l-67 18c-7 2-11 9-9 16 2 6 8 10 15 8l67-17c11-3 22-2 32 4 10 5 17 14 20 25l14 53 47 275v1l16 88c1 6 6 10 12 10h344c7 0 13-6 13-13 0-6-6-12-13-12h-333l-12-63 345 5c7 0 13-6 13-13s-6-12-12-13h-13-46l-291-4-43-252h427c11 0 22 5 28 13 5 6 7 12 6 19l-34 189c-2 12-9 26-20 32zm-401 633c0 7 6 13 13 13h273c7 0 12-6 12-13s-5-12-12-12h-273c-7 0-13 5-13 12zm370-1405c7 0 12-6 12-13s-5-12-12-12h-273c-7 0-13 5-13 12s6 13 13 13zm-400 41c30 0 54-24 54-54 0-29-24-54-54-54s-54 25-54 54c0 30 24 54 54 54zm0-83c16 0 29 13 29 29s-13 29-29 29-29-13-29-29 13-29 29-29zm584 1341c7 0 13-5 13-12v-1181c0-7-6-13-13-13h-791c-17 0-31 15-31 32v1162c0 7 5 12 12 12zm-797-25v-1156h785v1156z" fill="#fff"/></g></svg>