<svg clip-rule="evenodd" fill-rule="evenodd" height="2.667in" image-rendering="optimizeQuality" shape-rendering="geometricPrecision" text-rendering="geometricPrecision" viewBox="0 0 2667 2667" width="2.667in" xmlns="http://www.w3.org/2000/svg"><g id="Layer_x0020_1"><circle cx="1333" cy="1333" fill="#1d81ce" r="1333"/><path d="m878 1511h-123c-78 0-142-64-142-142v-330c0-78 64-142 142-142h123c-4 8-7 17-7 26v562c0 9 3 18 7 26zm1194-61c-7 0-14-3-19-8l-107-108c-10-10-10-26 0-36s26-10 36 0l108 107c10 10 10 27 0 37-5 5-12 8-18 8zm-108-324c-7 0-13-2-18-7-10-10-10-27 0-37l107-107c10-10 27-10 37 0s10 26 0 36l-108 108c-5 5-11 7-18 7zm197 108h-152c-15 0-26-11-26-26 0-14 11-26 26-26h152c14 0 26 12 26 26 0 15-12 26-26 26zm-1138 356c20-11 34-32 34-56 0-2 0-4-1-6 18 0 35 0 52 1v5c0 46-27 86-66 104zm85 380c0-1 0-1 0 0h-203c-11 0-21-8-25-18l-137-415c4 1 8 1 12 1h169c2 0 5 0 7-1 14-1 27-3 40-4l160 398c2 4 3 8 3 13 0 14-11 26-26 26zm675-971c85 33 144 116 144 209 0 94-59 177-144 210zm-1193 407h-18c-51 0-92-41-92-92v-220c0-51 41-92 92-92h18c-2 12-4 25-4 37v330c0 13 2 25 4 37zm1141 305c-5 0-10-1-14-4-41-25-80-48-120-68v-878c42-19 82-40 121-61 8-4 18-4 26 1s12 13 12 22v962c0 10-5 18-13 23-4 2-8 3-12 3zm-159-85c-218-107-428-145-645-115-7 1-14-1-20-6s-9-12-9-20v-562c0-7 3-14 8-19s12-7 19-7c22 1 44 1 66 1 245 0 426-55 581-125zm-780-288c7 0 13-6 13-12 0-7-6-13-13-13h-93c-7 0-13 6-13 13 0 6 6 12 13 12zm0-121c7 0 13-6 13-13s-6-12-13-12h-93c-7 0-13 5-13 12s6 13 13 13zm-106-134c0 7 6 12 13 12h93c7 0 13-5 13-12s-6-13-13-13h-93c-7 0-13 6-13 13z" fill="#fff"/></g></svg>