<svg clip-rule="evenodd" fill-rule="evenodd" height="2.667in" image-rendering="optimizeQuality" shape-rendering="geometricPrecision" text-rendering="geometricPrecision" viewBox="0 0 2667 2667" width="2.667in" xmlns="http://www.w3.org/2000/svg"><g id="Layer_x0020_1"><circle cx="1333" cy="1333" fill="#ff700d" r="1333"/><path d="m1789 2187h-912c-70 0-127-57-127-127v-1453c0-70 57-127 127-127h912c70 0 127 57 127 127v1453c0 70-57 127-127 127zm-534-739c3 0 5-1 8-2l155-105c4-3 6-6 6-11 0-4-3-8-6-10l-156-99c-4-3-9-3-13-1-4 3-6 7-6 11v204c0 5 3 9 7 11 1 1 3 2 5 2zm13-194 120 77-120 81zm65 321c134 0 242-108 242-242 0-133-108-241-242-241-133 0-241 108-241 241 0 134 108 242 241 242zm0-458c120 0 217 97 217 216 0 120-97 217-217 217-119 0-216-97-216-217 0-119 97-216 216-216zm-149 925c0 7 6 13 13 13h273c7 0 12-6 12-13s-5-12-12-12h-273c-7 0-13 5-13 12zm370-1405c7 0 12-6 12-13s-5-12-12-12h-273c-7 0-13 5-13 12s6 13 13 13zm-400 41c30 0 54-24 54-54 0-29-24-54-54-54s-54 25-54 54c0 30 24 54 54 54zm0-83c16 0 29 13 29 29s-13 29-29 29-29-13-29-29 13-29 29-29zm584 1341c7 0 13-5 13-12v-1181c0-7-6-13-13-13h-791c-17 0-31 15-31 32v1162c0 7 5 12 12 12zm-797-25v-1156h785v1156z" fill="#fff"/></g></svg>