<svg clip-rule="evenodd" fill-rule="evenodd" height="2.667in" image-rendering="optimizeQuality" shape-rendering="geometricPrecision" text-rendering="geometricPrecision" viewBox="0 0 2667 2667" width="2.667in" xmlns="http://www.w3.org/2000/svg"><g id="Layer_x0020_1"><circle cx="1333" cy="1333" fill="#f44c71" r="1333"/><path d="m1227 1058c12-13 26-28 36-43l5-8-6-8c-18-26-32-54-50-81-13-21-30-45-54-54-7-3-14-5-22-5-39-2-80 33-103 61l-3 4-12 96 13 3c46 7 103 34 118 82l7 21 16-15c19-17 37-35 55-53zm356 425c17 4 52 3 70 3 41-1 83-6 123-18 25-7 49-16 71-29l43-27-51 1c-25 0-43-8-66-16l-7-2-5 4c-14 9-68 51-80 52-13 0-18-16-8-24l63-43-24-10c-10-4-20-8-30-13l-8-3-6 4c-13 9-66 50-78 51-13 0-18-16-8-23l65-45-20-11c-18-10-35-20-53-31l-8-5-7 5c-13 9-64 48-76 50-13 0-18-17-7-24l67-47-16-11c-16-11-31-23-46-35l-8-7-9 6c-12 9-62 47-74 49-13 0-18-17-7-24l69-48-13-12c-15-13-30-27-44-41l-8-8-10 6c-12 9-60 46-72 47-12 0-18-16-7-24l70-48-10-12c-22-24-43-50-63-76l-11-14-11 14c-22 28-49 55-75 79l-9 9 8 10c81 100 261 309 386 341zm293 144c106 0 237-19 303-113l6-9-7-8c-51-60-181-77-257-82h-7l-5 5c-62 72-181 92-272 92-15 0-46 0-61-4-129-35-314-243-398-347l-9-11-18 15v5c-9 141-81 300-149 420l-6 11 34 26zm208-7c-38 41-95 118-78 177l2 11h34c80 0 145-65 145-145v-114l-24 21c-22 20-47 35-74 46l-3 2zm-662 162c-77-51-182-90-244 4l-14 22h297zm-666-41c0-37-30-67-67-67h-209l3 16c10 67 69 118 138 118h135zm96-218-276 4-2 1c-45 17-79 56-89 102l-4 17h208c52 0 94 42 94 94v67h354l4-8c20-44 53-80 101-93 89-23 189 44 254 98l4 3h480l-3-16c-6-45 16-92 39-128l18-28-32 6c-41 8-84 11-126 11h-850c-10-1-46-32-56-39zm-144-33c13-32 4-67-22-90-25-23-61-27-91-11l-7 4-1 107 117-1zm388-277c-145 112-323 116-478 21l-9-6-20 21-1 112 18-4c76-21 148 47 132 125l-4 17 123-2c3 0 6 1 8 3l110 85 8-15c58-103 114-225 135-343l6-36zm25-108c-22-36-62-53-102-58l-9-1-5 7c-26 40-64 61-112 58-33-3-71-19-95-42-15-16-69-68-97-54-30 15-27 102-23 132 2 12-31 40-40 49l-11 13 14 9c57 34 124 55 190 58 112 5 211-43 291-120l4-4v-6c0-12-1-25-3-36v-3z" fill="#fff"/></g></svg>