<svg clip-rule="evenodd" fill-rule="evenodd" height="2.667in" image-rendering="optimizeQuality" shape-rendering="geometricPrecision" text-rendering="geometricPrecision" viewBox="0 0 2667 2667" width="2.667in" xmlns="http://www.w3.org/2000/svg"><g id="Layer_x0020_1"><circle cx="1333" cy="1333" fill="#1d81ce" r="1333"/><path d="m536 1695v-921c0-87 71-158 158-158h1279c87 0 158 71 158 158v921zm1486 356h-1377c-91 0-165-74-165-165v-139c0-14 12-26 26-26h533v110c0 53 43 96 96 96h424c53 0 96-43 96-96v-110h506c14 0 26 12 26 26v139c0 91-74 165-165 165zm-958-330h566v110c0 39-32 71-71 71h-424c-39 0-71-32-71-71zm287-399c3 0 6-2 9-4l249-270c5-5 5-13 0-18-5-4-13-4-18 1l-250 270c-4 5-4 13 1 17 2 3 5 4 9 4zm233 66c46 0 84-38 84-84s-38-84-84-84-84 38-84 84 38 84 84 84zm0-143c32 0 59 26 59 59 0 32-27 59-59 59s-59-27-59-59c0-33 27-59 59-59zm-185-153c46 0 84-37 84-84 0-46-38-83-84-83s-84 37-84 83c0 47 38 84 84 84zm0-142c33 0 59 26 59 58 0 33-26 59-59 59-32 0-59-26-59-59 0-32 27-58 59-58zm-591 522c7 0 12-6 12-13s-5-12-12-12h-44c-7 0-13 5-13 12s6 13 13 13zm1096 0c6 0 12-6 12-13s-6-12-12-12h-45c-7 0-12 5-12 12s5 13 12 13zm0-608c6 0 12-6 12-13s-6-13-12-13h-45c-7 0-12 6-12 13s5 13 12 13zm-1097 0c7 0 13-6 13-13s-6-13-13-13h-44c-7 0-12 6-12 13s5 13 12 13zm332 407c-7 0-12 6-12 13v80c0 7 5 12 12 12s13-5 13-12v-80c0-7-6-13-13-13zm0-63c7 0 13-6 13-13v-80c0-7-6-12-13-12s-12 5-12 12v80c0 7 5 13 12 13zm0-274c-7 0-12 6-12 13v80c0 6 5 12 12 12s13-6 13-12v-80c0-7-6-13-13-13zm881 619c7 0 12-6 12-12v-255c0-4-1-8-4-10-4-3-7-3-11-3-9 3-19 4-28 4-71 0-129-61-129-131 0-72 59-131 131-131 9 0 18 1 26 3 4 1 8 0 11-3 3-2 4-6 4-9v-236c0-7-5-13-12-13h-838c-4 0-8 3-11 7l-35 61-64-64c-2-2-5-4-9-4h-416c-7 0-13 6-13 13v236c0 4 2 8 5 10s7 3 11 2c9-2 18-3 28-3 70 0 129 60 129 131 0 72-59 131-131 131-9 0-18-1-27-3-3-1-7 0-10 2-3 3-5 6-5 10v255c0 3 2 6 4 8 2 3 6 4 9 4h416c4 0 7-1 9-4l64-64 36 62c2 4 6 6 10 6zm-830-25-40-70c-2-3-5-5-9-6-4 0-8 1-11 4l-72 72h-399v-227h14c87 2 159-68 159-155 0-85-73-159-159-156h-14v-208h399l72 73c3 2 7 4 11 3 4 0 7-3 9-6l40-70h817v209l-13-1c-1 0-2 0-3 0-86 0-156 70-156 156 0 85 73 158 159 156l13-1v227z" fill="#fff"/></g></svg>