<svg clip-rule="evenodd" fill-rule="evenodd" height="2.667in" image-rendering="optimizeQuality" shape-rendering="geometricPrecision" text-rendering="geometricPrecision" viewBox="0 0 2667 2667" width="2.667in" xmlns="http://www.w3.org/2000/svg"><g id="Layer_x0020_1"><circle cx="1333" cy="1333" fill="#f10" r="1333"/><path d="m1996 2187h-1326c-14 0-25-12-25-26v-593h1377v593c0 14-12 26-26 26zm-1247-1478v-1-14c0-118 96-214 214-214s215 96 215 214v14l-1 2v4c12 12 18 28 18 45 0 20-9 39-24 52-13 52-45 96-87 125v63c8 3 16 5 24 8l-90 120-37-56 52-47c0-2-1-5-1-7v-55c-21 8-45 12-69 12s-47-4-69-12v55c0 3 0 6-1 9l56 50-38 57-94-126c9-2 17-5 25-8v-63c-42-29-74-73-87-125-15-13-23-32-23-52 0-17 6-33 17-45zm383 33c-19 4-38 6-58 6-64 0-131-23-171-70-29 26-64 44-103 52-1 7-5 12-10 16-4 3-7 8-7 13 0 6 3 12 9 15 6 4 10 10 12 17 9 46 38 85 76 108 1 0 2 1 2 1 24 14 52 22 81 22 30 0 57-8 82-22 0 0 1-1 1-1 39-23 67-61 77-108 1-7 6-13 12-17 5-3 8-9 8-15 0-5-2-10-7-13-1-1-3-3-4-4zm-541 587v-109c0-137 109-176 200-204l110 146c1 2 3 3 5 4l24 42-33 121h-141v-79c0-7-6-12-13-12s-12 5-12 12v79zm362-110h11 16l30 110h-87zm50-11 28-49c2-3 2-6 2-9l101-135c91 29 202 67 202 205v109h-140v-79c0-7-6-12-13-12s-12 5-12 12v79h-135zm-76-55 37-55 39 59-21 36h-31zm743 84v-138c0-29 24-53 53-53h44c29 0 53 24 53 53v138zm-94 92c4-37 34-66 72-66h194c38 0 68 29 72 66zm420-124h-150v-106c0-44-35-79-79-79h-44c-44 0-79 35-79 79v106h-150c-44 0-80-36-80-80v-266c0-44 36-80 80-80h502c44 0 80 36 80 80v266c0 44-36 80-80 80zm91 336h-1508c-14 0-26-12-26-26v-134c0-14 12-26 26-26h1508c15 0 26 12 26 26v134c0 14-11 26-26 26zm-418 542c7 0 12-5 12-12s-5-13-12-13h-671c-7 0-12 6-12 13s5 12 12 12zm0-193c7 0 12-6 12-13s-5-12-12-12h-671c-7 0-12 5-12 12s5 13 12 13zm0-194c7 0 12-5 12-12s-5-13-12-13h-671c-7 0-12 6-12 13s5 12 12 12z" fill="#fff"/></g></svg>