<svg clip-rule="evenodd" fill-rule="evenodd" height="2.667in" image-rendering="optimizeQuality" shape-rendering="geometricPrecision" text-rendering="geometricPrecision" viewBox="0 0 2667 2667" width="2.667in" xmlns="http://www.w3.org/2000/svg"><g id="Layer_x0020_1"><circle cx="1333" cy="1333" fill="#f10" r="1333"/><path d="m673 527v282h616v-282l-36-39-35 42c-2 3-5 4-9 4-4 1-7-1-10-3l-40-39-50 43c-5 5-12 5-17 0l-48-43-49 45c-3 3-7 4-10 4-4-1-7-3-10-5l-29-39-71 42c-5 3-13 2-17-4l-28-37-61 36c-5 3-11 3-15-1l-53-39zm10 1133h116v-77h-116zm0 211h116v-78h-116zm116 210v-77h-116v77zm240-77h-116v77h116zm0-211h-116v78h116zm-116-133h116v-77h-116zm240 211h116v-78h-116zm116 133h-116v77h116zm-116-344h116v-77h-116zm238 420v-595h-839v595c0 55 44 99 98 99h642c54 0 99-44 99-99zm-251-523h142c7 0 13 6 13 13v104c0 7-6 13-13 13h-142c-7 0-13-6-13-13v-104c0-7 6-13 13-13zm-85 13v104c0 7-6 13-13 13h-142c-7 0-13-6-13-13v-104c0-7 6-13 13-13h142c7 0 13 6 13 13zm-240 104c0 7-6 13-13 13h-142c-7 0-13-6-13-13v-104c0-7 6-13 13-13h142c7 0 13 6 13 13zm85 93h142c7 0 13 6 13 13v104c0 7-6 13-13 13h-142c-7 0-13-6-13-13v-104c0-7 6-13 13-13zm-85 117c0 7-6 13-13 13h-142c-7 0-13-6-13-13v-104c0-7 6-13 13-13h142c7 0 13 6 13 13zm467-117c7 0 13 6 13 13v104c0 7-6 13-13 13h-142c-7 0-13-6-13-13v-104c0-7 6-13 13-13zm-382 210h142c7 0 13 6 13 14v103c0 7-6 13-13 13h-142c-7 0-13-6-13-13v-103c0-8 6-14 13-14zm-85 117c0 7-6 13-13 13h-142c-7 0-13-6-13-13v-103c0-8 6-14 13-14h142c7 0 13 6 13 14zm467-117c7 0 13 6 13 14v103c0 7-6 13-13 13h-142c-7 0-13-6-13-13v-103c0-8 6-14 13-14zm720-595c-30 0-54 24-54 54s24 54 54 54 54-24 54-54-24-54-54-54zm173-162h-676v57c0 2-1 3-1 5l-81 193v181h655c57 0 103-46 103-103zm-430 203h76c7 0 13 6 13 13s-6 13-13 13h-76c-8 0-14-6-14-13s6-13 14-13zm-234 0h131c8 0 13 6 13 13s-5 13-13 13h-131c-7 0-13-6-13-13s6-13 13-13zm410 13c0-45 37-81 81-81s80 36 80 81c0 44-36 80-80 80s-81-36-81-80zm-422-407h678l-4-17c-11-47-53-81-101-81h-573zm0 26v138h676v-138zm-330 73c0-109-89-198-198-198s-198 89-198 198 89 198 198 198 198-89 198-198zm-125-54c0 7-6 13-13 13s-13-6-13-13c0-27-23-40-47-40s-47 13-47 40c0 25 24 40 47 40 38 0 73 28 73 67 0 30-21 54-49 63l-10 3v19c0 7-6 13-13 13s-13-6-13-13v-19l-10-3c-29-8-51-33-51-63 0-8 6-13 13-13 8 0 13 5 13 13 0 24 24 40 47 40h1c23 0 46-16 46-40 0-25-24-41-47-41-37 0-73-27-73-66 0-32 20-55 50-63l11-3v-19c0-7 6-13 13-13s13 6 13 13v20l10 2c30 9 49 31 49 63zm248-239h-642c-7 0-13-6-13-13v-122h-59c-60 0-108 48-108 107v467l77 185h848l77-185v-232-1-234c0-59-48-107-107-107h-60v122c0 7-6 13-13 13zm-97 293c0 123-100 224-224 224-123 0-224-101-224-224 0-124 101-224 224-224 124 0 224 100 224 224z" fill="#fff"/></g></svg>