<svg clip-rule="evenodd" fill-rule="evenodd" height="2.667in" image-rendering="optimizeQuality" shape-rendering="geometricPrecision" text-rendering="geometricPrecision" viewBox="0 0 2667 2667" width="2.667in" xmlns="http://www.w3.org/2000/svg"><g id="Layer_x0020_1"><circle cx="1333" cy="1333" fill="#1d81ce" r="1333"/><path d="m654 1246c-7 0-13-2-18-7l-148-136c-10-9-11-26-1-36l135-147c5-5 12-8 19-9l125-3c37-34 178-154 271-110 5 1 7 3 9 4 41 27 247 169 375 391 1 1 139 227 224 311 20 20 47 30 82 30 72 0 147-41 148-42 6-3 14-4 21-1 130 48 308 197 289 303-7 39-41 85-166 85h-434c-99 0-168-123-214-204-4-7-8-14-11-20 0-1-1-1-1-2-1-3-149-301-449-381-7-2-13-7-16-13-2-3-127-246 54-411-53 20-113 68-145 96l12 127c1 8-2 15-7 20l-135 147c-5 5-12 8-18 8-1 0-1 0-1 0zm1169 241-50-50c-37-37-37-96 0-132 17-18 41-27 65-27 18 0 34 4 49 13 15-9 31-13 49-13 24 0 48 9 65 27 18 17 28 41 28 66s-10 48-28 66l-49 49c-15-8-31-14-46-20s-31-4-44 3c-12 6-25 12-39 18zm-707 390h-147c-14 0-25-12-25-26l-1-93h198l1 93c0 6-2 13-7 18s-12 8-19 8zm-174-144-2-269c0-47-18-108-34-161l-2-5c98 26 184 78 258 145-18 32-25 52-25 101l3 189z" fill="#fff"/></g></svg>