<svg clip-rule="evenodd" fill-rule="evenodd" height="2.667in" image-rendering="optimizeQuality" shape-rendering="geometricPrecision" text-rendering="geometricPrecision" viewBox="0 0 2667 2667" width="2.667in" xmlns="http://www.w3.org/2000/svg"><g id="Layer_x0020_1"><circle cx="1333" cy="1333" fill="#378b4e" r="1333"/><path d="m1215 2187h-560c-14 0-25-12-25-26 0-86-6-177-11-264-19-316-39-642 170-916 5-6 12-10 20-10l252-1h3 176c78 0 142 51 142 114v62h20c14 0 26 12 26 26v173c0 15-12 26-26 26h-92c-15 0-26-11-26-26v-173c0-14 11-26 26-26h20v-62c0-34-41-63-90-63h-128c70 107 110 220 130 337h-314c-7 0-12 6-12 13v498c0 7 5 12 12 12h325l-1 16c-5 88-11 178-11 264 0 14-11 26-26 26zm702 0h-435c-44 0-79-35-84-82l-58-620c-1-7 2-14 7-20 5-5 12-8 19-8h667c7 0 14 3 19 8 5 6 8 13 7 20l-9 94v2l-49 524c-5 47-40 82-84 82zm-118-119c5 0 10-2 12-7l47-98c3-7 1-14-6-17l-99-48c-2-1-6-1-9 0s-6 3-7 6l-48 99c-1 3-1 6 0 9 1 4 3 6 6 8l99 47c2 1 3 1 5 1zm-82-66 37-76 76 37-37 76zm16-251c-3 6 0 13 6 16l99 48c2 1 4 1 6 1 4 0 9-2 11-7l48-99c3-6 0-13-6-16l-99-48c-6-3-14 0-17 6zm29-1 36-76 77 37-37 76zm-162 198h4c3-2 6-4 7-7l48-99c1-3 1-6 0-9s-3-6-6-7l-99-48c-6-3-14 0-17 6l-47 99c-3 6-1 13 5 16l99 48c2 1 4 1 6 1zm-82-66 36-76 77 37-37 76zm-120-330h603l4-43h-611zm-615-985v-4c0-46 37-83 83-83h139c45 0 82 37 82 83v4zm0 377v-325c0-14 12-25 26-25h252c15 0 26 11 26 25v324h-23c-1 0-2 0-3 0l-126 1zm464 439c23 155 17 315 7 473h-313v-473z" fill="#fff"/></g></svg>