<svg clip-rule="evenodd" fill-rule="evenodd" height="2.667in" image-rendering="optimizeQuality" shape-rendering="geometricPrecision" text-rendering="geometricPrecision" viewBox="0 0 2667 2667" width="2.667in" xmlns="http://www.w3.org/2000/svg"><g id="Layer_x0020_1"><circle cx="1333" cy="1333" fill="#00ab94" r="1333"/><path d="m1537 1398c51-53 102-110 136-177 1-1 2-3 4-5 91-127 140-290 140-446 0-160-130-290-290-290s-290 130-290 290c0 156 50 319 141 446 1 2 2 4 3 5 34 66 85 124 136 177l10 11zm122 462 114 327h170c81 0 147-66 147-147v-180zm-258 0 115 327h229l-114-327zm-27 0h-797v180c0 81 66 147 147 147h764zm716-269h-1513v243h1513zm-1248-26-114-327-11 1c-78 3-140 68-140 146v180zm257 0-114-326h-230l115 326zm419-128c-58-58-109-123-153-192l-4-6h-348l114 326h963v-180c0-81-66-146-147-146h-250l-4 6c-43 69-95 134-153 192-2 2-5 4-9 4-3 0-7-2-9-4zm9-523c-75 0-135-61-135-136s60-136 135-136 136 61 136 136-61 136-136 136z" fill="#fff"/></g></svg>