<svg clip-rule="evenodd" fill-rule="evenodd" height="2.667in" image-rendering="optimizeQuality" shape-rendering="geometricPrecision" text-rendering="geometricPrecision" viewBox="0 0 2667 2667" width="2.667in" xmlns="http://www.w3.org/2000/svg"><g id="Layer_x0020_1"><circle cx="1333" cy="1333" fill="#ff700d" r="1333"/><path d="m1223 1695v-176c0-74-46-140-115-165l-18-7-1 20c-2 51-10 109-33 155-23 47-30 107-31 159v14zm503-951 49 186 328-71c28-6 52-23 67-48 16-27 21-60 13-90-13-48-57-85-107-85-11 0-21 1-31 5zm-1121 11 500 162 240-78-721-155zm19 422 1126-242-49-183-1096 353zm1077-68 38-145-292 63zm25 8 319 103c27 9 56 5 81-8 28-15 49-42 57-72 8-31 3-64-13-91-15-24-39-41-67-47l-269-58-66 14zm166 319c-2 42-10 89-31 126-20 34-27 79-28 119l-1 14h185v-138c0-64-45-120-108-134l-16-3zm-184 126c-20 34-27 79-28 119v14h126v-14c2-44 10-94 32-132 19-33 26-77 28-114l1-15h-126l-1 13c-2 43-10 91-32 129zm-152 0c-20 34-27 79-28 119l-1 14h126l1-14c1-44 9-94 32-132 19-34 26-77 28-114v-15h-126v13c-2 43-10 91-32 129zm-179 133h124v-14c2-44 10-94 32-132 19-34 26-77 28-114l1-15h-47c-76 0-138 62-138 137zm696 165h-1593v16c0 85 69 155 155 155h1284c85 0 154-70 154-155zm-253-139h-1132-208v113h1593v-113zm-1146-40c1-55 9-120 34-171 22-44 29-103 30-152l1-15h-22c-97 0-176 79-176 176v176h133zm163 0c1-55 8-120 33-171 22-44 29-103 31-152v-15h-136v14c-2 54-9 116-34 165-23 47-29 107-30 159l-1 14h136zm162 0c1-55 8-120 33-171 22-44 29-103 31-152v-15h-16-120v14c-1 54-9 116-33 165-23 47-30 107-31 159v14h136z" fill="#fff"/></g></svg>