<svg clip-rule="evenodd" fill-rule="evenodd" height="2.667in" image-rendering="optimizeQuality" shape-rendering="geometricPrecision" text-rendering="geometricPrecision" viewBox="0 0 2667 2667" width="2.667in" xmlns="http://www.w3.org/2000/svg"><g id="Layer_x0020_1"><circle cx="1333" cy="1333" fill="#1d81ce" r="1333"/><path d="m1847 2187h-1028c-61 0-122-27-164-73-36-39-54-89-51-140h1458c4 51-14 101-50 140-42 46-103 73-165 73zm-749-1419v-118c0-94 76-170 169-170h132c94 0 170 76 170 170v118h359c13 0 24 10 25 24l18 188h-1275l17-188c1-14 13-24 26-24zm419 0v-118c0-65-53-118-118-118h-132c-65 0-118 53-118 118v118zm-910 1181 87-944h1279l87 944zm718-754c-39-32-88-50-139-50-57 0-111 23-152 63-84 85-84 222 0 306l292 292c2 2 5 4 8 4 4 0 7-2 9-4l290-291c84-85 84-222 0-307-41-40-95-63-153-63-51 0-99 18-138 50l-9 7zm-139-25c53 0 102 21 138 58 5 5 14 5 18 0 37-37 86-58 138-58 51 0 99 20 135 56 75 75 74 196 0 271l-281 282-282-282c-75-75-75-196 0-271 36-36 84-56 134-56z" fill="#fff"/></g></svg>