<svg clip-rule="evenodd" fill-rule="evenodd" height="2.667in" image-rendering="optimizeQuality" shape-rendering="geometricPrecision" text-rendering="geometricPrecision" viewBox="0 0 2667 2667" width="2.667in" xmlns="http://www.w3.org/2000/svg"><g id="Layer_x0020_1"><circle cx="1333" cy="1333" fill="#f10" r="1333"/><path d="m544 1587h1579v-874h-1579zm1194 294v306h102v-306zm-810 306v-306h-101v306zm1195-435h-1579v103h1579zm-1195-26v-112h-101v112zm912-112h-102v112h102zm91-1039h-101v112h101zm-160-95v69h219v-69zm-488 95v112h101v-112zm-59-95v69h219v-69zm-387 95h-102v112h102zm-160-26h218v-69h-218z" fill="#fff"/></g></svg>