<svg clip-rule="evenodd" fill-rule="evenodd" height="2.667in" image-rendering="optimizeQuality" shape-rendering="geometricPrecision" text-rendering="geometricPrecision" viewBox="0 0 2667 2667" width="2.667in" xmlns="http://www.w3.org/2000/svg"><g id="Layer_x0020_1"><circle cx="1333" cy="1333" fill="#7ed63f" r="1333"/><path d="m1068 986c0-7 6-13 13-13h382c8 0 13 6 13 13v350c0 7-5 13-13 13h-382c-7 0-13-6-13-13v-29h-481c-7 0-13-6-13-13s6-13 13-13h481v-107h-327c-7 0-13-6-13-13s6-13 13-13h327v-107h-179c-8 0-13-6-13-14 0-7 5-13 13-13h179zm-309 767c-29 0-53 24-53 53s24 53 53 53c30 0 54-24 54-53s-24-53-54-53zm-187-7c7-24 19-46 35-65l19-23h-146v98h89zm358 60c0-94-76-171-171-171-80 0-150 57-167 136v1c-2 11-3 23-3 34 0 94 76 171 170 171 95 0 171-77 171-171zm-171-79c44 0 80 35 80 79s-36 80-80 80c-43 0-79-36-79-80s36-79 79-79zm811 29v-98h-677l18 23c16 19 28 41 36 65l3 10zm358 50c0-29-24-53-53-53-30 0-53 24-53 53s23 53 53 53c29 0 53-24 53-53zm118 0c0-94-77-171-171-171-81 0-154 57-168 137-1 11-3 23-3 34 0 94 77 171 171 171s171-77 171-171zm-92 0c0 44-35 80-79 80s-80-36-80-80 36-79 80-79 79 35 79 79zm233-206h-95v33c0 18 15 32 33 32h62zm-165-416h-293v285h449zm-76-138h-349v710h87l3-10c26-81 102-137 188-137s162 56 188 137l3 10h121v-64h-62c-33 0-59-27-59-59v-37c0-12 10-22 22-22h99v-79h-471c-8 0-13-6-13-13v-311c0-7 5-13 13-13h291zm-349-119v93h275v-47c0-26-21-46-47-46zm-253 72v128c0 5-3 10-7 12s-9 2-13-1l-54-35-49 35c-2 2-5 3-7 3-3 0-5-1-6-2-5-2-8-7-8-12v-128h-106v324h356v-324zm-117 0v103l35-26c2-2 5-3 8-3 2 0 5 1 7 3l41 27v-104zm343 633v-841c0-56-45-101-100-101h-889c-56 0-101 45-101 101v841h187l3-2c28-14 58-21 89-21s62 7 89 21l3 2z" fill="#fff"/></g></svg>