<svg clip-rule="evenodd" fill-rule="evenodd" height="2.667in" image-rendering="optimizeQuality" shape-rendering="geometricPrecision" text-rendering="geometricPrecision" viewBox="0 0 2667 2667" width="2.667in" xmlns="http://www.w3.org/2000/svg"><g id="Layer_x0020_1"><circle cx="1333" cy="1333" fill="#ff700d" r="1333"/><path d="m524 1794v-74h-29l-1 1c-9 2-14 11-14 20v32c0 9 5 18 14 20l1 1zm968-368c-63 0-115-52-115-115 0-64 52-115 115-115 23 0 43 6 61 17v-140l-455 70v201 1c0 63-51 115-115 115-63 0-115-52-115-115 0-64 52-116 115-116 22 0 43 7 61 18v-127-1-103c0-13 9-25 22-27l509-93c8-2 16 0 23 6 6 5 9 12 9 20v389 1c0 63-52 114-115 114zm-46-648c111 0 217 32 310 92l5 3 146-39-21-17c-124-103-279-158-440-158h-225c-162 0-316 55-440 158l-21 17 145 39 6-3c92-60 199-92 310-92zm642 856 17 5v-366c0-154-59-305-170-412l-6-6-136 37 26 17c136 90 186 201 186 364v314l2 3c7 11 13 22 18 33l4 9h41c6 0 12 0 18 2zm55 86v74h28l2-1c9-2 14-11 14-20v-32c0-9-5-18-14-20l-2-1zm-97 1v71c0 16-2 32-5 47l-3 17h32c27 0 44-26 47-50 0-2 0-4 0-6v-86c0-2 0-4 0-6-2-24-20-50-47-50h-32l3 17c3 15 5 31 5 46zm-306-215v502h64c90 0 175-55 202-142l1-3c9-22 12-46 12-71v-71c0-24-3-48-11-70l-2-3c-5-17-13-33-24-48-1-1-2-2-2-3-38-60-107-91-176-91zm-152 61v380c0 34 28 61 62 61h64v-502h-64c-34 0-62 27-62 61zm-635-61v502h64c34 0 62-27 62-61v-380c0-34-28-61-62-61zm-269 94c-10 14-18 31-24 48 0 1 0 2-1 3-9 22-12 47-12 70v71c0 24 3 49 12 71l1 3c28 87 113 142 203 142h64v-502h-64c-69 0-139 31-176 91-1 1-2 2-3 3zm-105 34c6-2 12-2 17-2h42l4-9c5-11 11-22 18-33l2-3v-314c0-163 50-274 186-364l25-17-135-37-6 6c-112 107-171 258-171 412v366zm-29 80v86 6c2 24 20 50 46 50h33l-3-17c-4-15-5-31-5-47v-71c0-15 1-31 5-46l3-17h-33c-26 0-44 26-46 50z" fill="#fff"/></g></svg>