<svg clip-rule="evenodd" fill-rule="evenodd" height="2.667in" image-rendering="optimizeQuality" shape-rendering="geometricPrecision" text-rendering="geometricPrecision" viewBox="0 0 2667 2667" width="2.667in" xmlns="http://www.w3.org/2000/svg"><g id="Layer_x0020_1"><circle cx="1333" cy="1333" fill="#1d81ce" r="1333"/><path d="m1266 1577c84 0 166-25 226-85 14-14 26-29 37-46 57-89 58-202 32-301-31-123-104-237-193-327-115-115-281-209-448-209-84 0-165 25-225 86-82 81-98 199-78 308 25 139 103 267 201 365 116 115 281 209 448 209zm337 26c-19 19-39 36-61 51l-12 8 362 453c34 42 83 69 137 71 42 3 86-10 117-40 30-31 43-75 40-117-3-54-29-103-71-137l-453-362-9 12c-14 22-31 42-50 61zm375 462c-24-24-24-63 0-87 11-12 27-18 43-18 17 0 32 6 44 18 23 24 23 63 0 87-12 11-27 18-44 18-16 0-32-7-43-18zm-468-555c-65 66-153 93-244 93-173 0-346-97-466-216-102-103-183-236-209-379-21-119-3-244 85-332 65-65 153-93 244-93 174 0 347 97 467 217 93 94 168 213 200 343 26 104 23 220-34 313-12 20-26 38-43 54zm-243 196c81 0 165-14 235-58 1-1 2-1 3-2 30-16 56-38 79-62 24-23 46-50 62-80l2-2c59-94 68-211 52-319-24-174-117-334-240-457-139-140-339-246-541-246-119 0-232 37-317 122-24 24-45 51-62 80-67 115-73 254-43 381 36 151 120 289 229 398 142 141 337 245 541 245zm-77-734v410c0 7-6 13-13 13s-13-6-13-13v-410c0-7 6-13 13-13s13 6 13 13zm-168 242c0 7-6 13-13 13s-13-6-13-13v-410c0-7 6-13 13-13 8 0 13 6 13 13z" fill="#fff"/></g></svg>