<svg clip-rule="evenodd" fill-rule="evenodd" height="2.667in" image-rendering="optimizeQuality" shape-rendering="geometricPrecision" text-rendering="geometricPrecision" viewBox="0 0 2667 2667" width="2.667in" xmlns="http://www.w3.org/2000/svg"><g id="Layer_x0020_1"><circle cx="1333" cy="1333" fill="#f10" r="1333"/><path d="m1673 1895h-839c-78 0-142-64-142-142v-839c0-79 64-143 142-143h839c79 0 143 64 143 143v839c0 78-64 142-143 142zm196-268h-27v-285h27c59 0 106 48 106 106v74c0 58-47 105-106 105zm0-303h-27v-285h27c59 0 106 48 106 106v74c0 58-47 105-106 105zm-378 863h-474c-11 0-20-7-24-16l-106-249h734l-107 249c-4 9-13 16-23 16zm-604-1442 106-249c4-10 13-16 24-16h474c10 0 19 6 23 16l107 249zm706 1034c58 0 106-48 106-107v-678c0-58-48-106-106-106h-678c-59 0-107 48-107 106v678c0 59 48 107 107 107zm-678-866h678c45 0 81 36 81 81v678c0 45-36 82-81 82h-678c-45 0-82-37-82-82v-678c0-45 37-81 82-81zm339 673c3 0 6-2 9-4 7-8 15-16 23-24 84-84 220-217 220-345 0-73-59-132-132-132-49 0-82 18-109 58l-11 16-11-16c-28-40-60-58-109-58-73 0-133 59-133 132 0 128 137 261 220 345l24 24c2 2 5 4 9 4zm-120-480c59 0 84 33 109 83 2 4 6 7 11 7 4 0 9-3 11-7 25-50 50-83 109-83s107 48 107 107c0 61-34 120-69 168-43 59-97 113-149 165l-9 9-10-9c-51-52-105-106-149-165-35-48-69-107-69-168 0-59 49-107 108-107z" fill="#fff"/></g></svg>