<svg clip-rule="evenodd" fill-rule="evenodd" height="2.667in" image-rendering="optimizeQuality" shape-rendering="geometricPrecision" text-rendering="geometricPrecision" viewBox="0 0 2667 2667" width="2.667in" xmlns="http://www.w3.org/2000/svg"><g id="Layer_x0020_1"><circle cx="1333" cy="1333" fill="#7ed63f" r="1333"/><path d="m1659 1895h-839c-79 0-143-64-143-142v-839c0-79 64-143 143-143h839c78 0 142 64 142 143v839c0 78-64 142-142 142zm-787-1150 107-249c4-10 13-16 23-16h474c11 0 20 6 24 16l106 249zm604 1442h-474c-10 0-19-7-23-16l-107-249h734l-106 249c-4 9-13 16-24 16zm393-721h-41v-275h41c67 0 120 54 120 120v35c0 66-53 120-120 120zm-630-63c15 0 29-5 40-12l123 122c2 3 5 4 8 4 4 0 7-1 9-4 5-5 5-13 0-17l-122-123c7-11 12-25 12-40 0-34-25-62-57-68v-174c0-6-6-12-13-12s-12 6-12 12v174c-33 6-57 34-57 68 0 39 31 70 69 70zm0-114c25 0 45 20 45 44 0 25-20 45-45 45-24 0-44-20-44-45 0-24 20-44 44-44zm420 493c16 0 29-13 29-29v-839c0-16-13-29-29-29h-839c-16 0-29 13-29 29v419 1 419c0 16 13 29 29 29h419zm-843-25v-411h48c7 0 12-6 12-13s-5-12-12-12h-48v-411h411v48c0 7 5 13 12 13s13-6 13-13v-48h411v411h-48c-7 0-13 5-13 12s6 13 13 13h48v411h-411v-48c0-7-6-13-13-13s-12 6-12 13v48z" fill="#fff"/></g></svg>