<svg clip-rule="evenodd" fill-rule="evenodd" height="2.667in" image-rendering="optimizeQuality" shape-rendering="geometricPrecision" text-rendering="geometricPrecision" viewBox="0 0 2667 2667" width="2.667in" xmlns="http://www.w3.org/2000/svg"><g id="Layer_x0020_1"><circle cx="1333" cy="1333" fill="#00ab94" r="1333"/><path d="m616 1821v-232l4 3c40 24 84 46 128 61 118 41 237 38 334-49l9-7 9 7c57 51 124 82 201 82 83 0 168-36 233-86l7-6 8 5c23 14 59 24 85 31 46 12 95 18 143 19 99 1 194-21 273-77v249zm1545 248h-1655c-14 0-26-11-26-25v-85c0-61 50-111 111-111h1485c61 0 111 50 111 111v85c0 14-12 25-26 25zm-611-1034v-147c-45-13-85-60-85-138 0-67 40-126 102-151 6-2 13-2 19 0 62 25 102 84 102 151 0 78-40 125-86 138v147h152c63 0 115 52 115 115v57c-27 2-54 0-81-3-55-7-111-22-164-41-18-6-36-13-54-20-5-2-18-7-23-10s-11-3-16 1c-37 34-94 64-142 79-110 33-209 2-289-79-5-5-13-5-18 0-62 63-184 96-279 92v-76c0-63 51-115 115-115h151v-147c-45-13-85-60-85-138 0-67 40-126 101-151 7-2 14-2 20 0 61 25 101 84 101 151 0 78-40 125-85 138v147h189v-147c-46-13-86-60-86-138 0-67 40-126 102-151 6-2 13-2 19 0 62 25 102 84 102 151 0 78-40 125-85 138v147zm-747 311v-96c93 4 216-25 279-81l9-8 9 8c75 67 165 95 264 75 60-12 121-42 170-80l7-5 8 5c24 14 63 26 89 35 48 14 99 25 148 30 27 3 55 5 83 3v114zm-187 214v-36c0-83 68-151 151-151h1132c84 0 151 68 151 151v16c-87 69-196 90-307 79-45-4-91-13-134-27-14-4-50-15-62-23-5-4-11-3-16 1-37 34-94 64-142 79-110 33-209 2-289-79-5-4-13-4-18 0-90 91-206 101-323 62-42-14-83-35-122-58-6-4-13-9-21-14z" fill="#fff"/></g></svg>