<svg clip-rule="evenodd" fill-rule="evenodd" height="2.667in" image-rendering="optimizeQuality" shape-rendering="geometricPrecision" text-rendering="geometricPrecision" viewBox="0 0 2667 2667" width="2.667in" xmlns="http://www.w3.org/2000/svg"><g id="Layer_x0020_1"><circle cx="1333" cy="1333" fill="#378b4e" r="1333"/><path d="m566 1294h1535v-759c0-31-25-55-55-55h-1425c-31 0-55 24-55 55zm1274 695v116h70v-116zm-217 0v116h70v-116zm-216 0v116h70v-116zm-217 0v116h70v-116zm-217 0v116h70v-116zm-146 0h-70v116h70zm22-148c39 0 71-32 71-70 0-39-32-71-71-71-38 0-70 32-70 71 0 38 32 70 70 70zm323 0c39 0 70-32 70-70 0-39-31-71-70-71s-70 32-70 71c0 38 31 70 70 70zm393-70c0-39-32-71-70-71-39 0-71 32-71 71 0 38 32 70 71 70 38 0 70-32 70-70zm323 0c0-39-32-71-71-71-38 0-70 32-70 71 0 38 32 70 70 70 39 0 71-32 71-70zm12-394c36 14 45 83 45 116 0 32-9 102-45 116-3 1-7 2-11 2-3 0-6-1-8-2l-133-36h-1011c-7 0-13-6-13-13l-3-134c0-3 1-7 4-9 2-3 6-4 9-4h837 1 176l133-37c2-1 5-1 8-1 4 0 8 1 11 2zm142 810c32 0 59-27 59-59v-808h-1535v808c0 32 26 59 59 59zm-106-211v143c0 7-6 13-13 13h-96c-7 0-13-6-13-13v-143c0-7 6-13 13-13h96c7 0 13 6 13 13zm-764-302c53 0 97 43 97 97 0 53-44 96-97 96s-96-43-96-96c0-54 43-97 96-97zm-226 97c0 53-43 96-97 96-53 0-96-43-96-96 0-54 43-97 96-97 54 0 97 43 97 97zm645 0c0 53-43 96-96 96-54 0-97-43-97-96 0-54 43-97 97-97 53 0 96 43 96 97zm226-97c53 0 97 43 97 97 0 53-44 96-97 96s-96-43-96-96c0-54 43-97 96-97zm-748 302v143c0 7-5 13-13 13h-96c-7 0-13-6-13-13v-143c0-7 6-13 13-13h96c8 0 13 6 13 13zm-216 143c0 7-6 13-13 13h-96c-8 0-13-6-13-13v-143c0-7 5-13 13-13h96c7 0 13 6 13 13zm541-156h96c7 0 13 6 13 13v143c0 7-6 13-13 13h-96c-8 0-13-6-13-13v-143c0-7 5-13 13-13zm-108 156c0 7-6 13-13 13h-96c-7 0-13-6-13-13v-143c0-7 6-13 13-13h96c7 0 13 6 13 13zm433-143v143c0 7-5 13-13 13h-96c-7 0-13-6-13-13v-143c0-7 6-13 13-13h96c8 0 13 6 13 13zm44-540v114l129 35 6-6c16-19 21-63 21-86 0-24-5-67-21-86l-6-7zm-179 3v108h153v-108zm-26 0h-810l2 108h808zm-841-268h1232v-568h-1232zm1245 26h-1258c-7 0-13-6-13-13v-594c0-8 6-13 13-13h1258c8 0 14 5 14 13v594c0 7-6 13-14 13z" fill="#fff"/></g></svg>