<svg clip-rule="evenodd" fill-rule="evenodd" height="2.667in" image-rendering="optimizeQuality" shape-rendering="geometricPrecision" text-rendering="geometricPrecision" viewBox="0 0 2667 2667" width="2.667in" xmlns="http://www.w3.org/2000/svg"><g id="Layer_x0020_1"><circle cx="1333" cy="1333" fill="#ff700d" r="1333"/><path d="m1964 1791h-373c-85 0-153-66-173-168l-43-229h-82l-40 228c-17 101-86 169-172 169h-373c-86 0-154-66-173-168l-53-279c-7-39 4-79 31-112 34-40 88-66 142-66h474c50 0 100 22 134 59 21-14 45-21 70-21 26 0 50 7 70 21 34-37 85-59 135-59h474c53 0 106 25 140 65 28 33 40 73 33 113l-48 278c-18 101-87 169-173 169zm-599-449c-4-25-1-51 10-75-13-7-27-11-42-11s-29 4-41 12c10 23 14 49 10 74zm-658-202 320-259c9-7 22-7 31 0l178 127c6 4 10 11 10 18 1 7-1 14-6 20l-50 57c-8 10-23 12-34 5l-94-63-120 95zm1038 0-120-95-94 63c-11 7-25 5-34-5l-50-57c-5-6-7-13-6-20s5-14 11-18l177-127c10-7 23-7 32 0l319 259zm-825 456c6 0 12-5 12-12 1-7-4-13-11-13l-47-4c-7 0-13 5-13 12-1 7 5 13 11 13l47 4zm120-92c5 0 9-3 11-8l12-28c3-6 0-13-6-16-7-3-14 0-17 6l-12 28c-2 7 0 14 7 17 1 1 3 1 5 1zm-299-116c3 0 7-2 9-5 5-5 4-13-1-17l-23-20c-5-4-13-4-17 2-5 5-4 13 1 17l23 20c2 2 5 3 8 3zm340 297c42 0 62-45 68-81l48-278c2-10 0-20-7-28-18-21-63-27-88-27l-11 1c-6 0-11 0-16 0-3 0-6 1-8 3l-99 91c-2 1-3 4-4 6l-18 82-121 37 53-52c3-4 4-9 3-14l-25-65 68-67c3-3 4-9 2-13-1-5-6-8-11-8h-260c-19 0-49 13-62 28-5 7-9 16-7 25l53 278c6 35 26 82 69 82zm-465-372c8-8 28-16 39-16h229l-51 51c-4 3-5 8-3 13l24 66-83 82c-4 4-5 10-2 15s9 8 14 6l177-54c5-1 8-5 9-9l19-86 92-84h5 6l10-1c17 0 52 4 66 15l7 5-49 284c-4 22-17 60-44 60h-373c-27 0-41-40-45-62l-53-280zm1348 372c42 0 63-45 69-81l48-278c1-10-2-19-8-27-13-14-42-27-61-27h-474c-19 0-49 13-61 28-6 7-9 16-8 25l53 278c7 35 26 82 69 82zm-465-372c9-8 28-16 39-16h474c11 0 32 9 40 17l5 5-49 281c-4 22-17 60-44 60h-373c-27 0-40-40-44-62l-54-280z" fill="#fff"/></g></svg>