<svg clip-rule="evenodd" fill-rule="evenodd" height="2.667in" image-rendering="optimizeQuality" shape-rendering="geometricPrecision" text-rendering="geometricPrecision" viewBox="0 0 2667 2667" width="2.667in" xmlns="http://www.w3.org/2000/svg"><g id="Layer_x0020_1"><circle cx="1333" cy="1333" fill="#f44c71" r="1333"/><path d="m864 1479v-274c0-55-45-100-100-100s-100 45-100 100v240 2l-26 242 153 243c1 2 2 5 2 9l-16 109h287l32-173c4-19-6-38-16-54l-164-280c-8-14-19-25-33-32l-3-1h-3c-2 0-5-1-7-2l-2-1-3-1c-3 0-6 0-8 0-28 0-57 16-71 41-13 22-10 47 3 69l136 229c3 6 1 14-5 18s-14 2-18-5l-136-229c-18-30-20-65-3-95 18-31 53-52 88-54zm483-463c0 8-6 13-13 13s-13-5-13-13v-26l-11-3c-35-9-64-38-64-76 0-7 6-13 14-13 7 0 13 6 13 13 0 32 30 53 60 53h1c30-1 60-21 60-53s-31-53-61-53c-44 0-87-32-87-79 0-40 27-67 64-75l11-3v-26c0-8 6-13 13-13s13 5 13 13v26l11 3c37 9 62 36 62 75 0 7-6 13-13 13s-13-6-13-13c0-15-6-29-18-38-12-10-28-14-43-14-31 0-60 18-60 52 0 32 30 53 60 53 45 0 87 33 87 79 0 37-28 67-62 76l-11 3zm-14 77c137 0 247-111 247-247 0-137-110-248-247-248-136 0-247 111-247 248 0 136 111 247 247 247zm-365-247c0 201 164 365 365 365 202 0 366-164 366-365 0-202-164-366-366-366-201 0-365 164-365 366zm639 0c0 150-123 273-274 273-150 0-273-123-273-273 0-151 123-274 273-274 151 0 274 123 274 274zm-498 538 88-171-14-6c-32-13-63-31-91-53l-14-11-91 178 87-47c4-2 8-2 12-1 4 2 7 6 7 10zm420 9 17-101c0-4 3-8 7-9 4-2 8-2 12 0l87 47-88-168-13 9c-29 19-61 35-94 46l-15 5zm74 657h287l-16-109c0-4 0-7 2-9l153-243-26-242v-2-240c0-55-45-100-100-100s-100 45-100 100v274l13 1c35 2 70 23 87 54 18 30 15 65-2 95l-137 229c-3 7-11 9-17 5-7-4-9-12-5-18l136-229c13-22 15-47 2-69-13-25-42-41-70-41-3 0-6 0-8 0l-3 1-3 1c-2 1-4 2-6 2h-3l-3 1c-14 7-25 18-33 31l-164 281c-10 16-20 35-17 54zm-34 27v110h359v-110h-332-1c-1 0-2 0-3 0s-1 0-2 0h-2zm-498 0h-332v110h358v-110h-19-1c-1 0-2 0-2 0-1 0-2 0-3 0z" fill="#fff"/></g></svg>