<svg id="Capa_1" enable-background="new 0 0 512 512" height="512" viewBox="0 0 512 512" width="512" xmlns="http://www.w3.org/2000/svg"><g><g><path d="m406.62 331.25h-301.24c-8.284 0-15-6.716-15-15v-60.25c0-8.284 6.716-15 15-15h301.24c8.284 0 15 6.716 15 15v60.25c0 8.284-6.716 15-15 15z" fill="#464b52"/></g><path d="m406.62 241h-150.62v90.25h150.62c8.284 0 15-6.716 15-15v-60.25c0-8.284-6.716-15-15-15z" fill="#292b2f"/><g><path d="m90.38 256v-212.75c0-23.849 19.397-43.25 43.24-43.25h244.76c23.843 0 43.24 19.401 43.24 43.25v212.75z" fill="#656977"/></g><g><path d="m378.38 512h-244.76c-23.843 0-43.24-19.401-43.24-43.25v-152.5h331.24v152.5c0 23.849-19.397 43.25-43.24 43.25z" fill="#656977"/></g><path d="m378.38 0h-122.38v256h165.62v-212.75c0-23.849-19.397-43.25-43.24-43.25z" fill="#464b52"/><path d="m256 512h122.38c23.843 0 43.24-19.401 43.24-43.25v-152.5h-165.62z" fill="#464b52"/><g><path d="m346.375 150.5h-180.75c-8.284 0-15-6.716-15-15v-60.25c0-8.284 6.716-15 15-15h180.75c8.284 0 15 6.716 15 15v60.25c0 8.284-6.716 15-15 15z" fill="#464b52"/></g><g><g><path d="m195.75 210.75c7.846 0 15.363-6.899 15-15-.364-8.127-6.591-15-15-15-7.846 0-15.363 6.899-15 15 .364 8.127 6.591 15 15 15z" fill="#464b52"/></g></g><g><g><path d="m316.25 210.75c7.846 0 15.363-6.899 15-15-.364-8.127-6.591-15-15-15-7.846 0-15.363 6.899-15 15 .364 8.127 6.591 15 15 15z" fill="#292b2f"/></g></g><g><g><path d="m195.75 451.75c7.846 0 15.363-6.899 15-15-.364-8.127-6.591-15-15-15-7.846 0-15.363 6.899-15 15 .364 8.127 6.591 15 15 15z" fill="#464b52"/></g></g><g><g><path d="m316.25 451.75c7.846 0 15.363-6.899 15-15-.364-8.127-6.591-15-15-15-7.846 0-15.363 6.899-15 15 .364 8.127 6.591 15 15 15z" fill="#292b2f"/></g></g><path d="m346.375 60.25h-90.375v90.25h90.375c8.284 0 15-6.716 15-15v-60.25c0-8.284-6.716-15-15-15z" fill="#292b2f"/></g></svg>