<svg id="Capa_1" enable-background="new 0 0 512 512" height="512" viewBox="0 0 512 512" width="512" xmlns="http://www.w3.org/2000/svg"><g><g><path d="m406.158 210.75h-300.89c-8.284 0-15-6.716-15-15v-180.75c0-8.284 6.716-15 15-15h300.891c8.284 0 15 6.716 15 15v180.75c-.001 8.284-6.717 15-15.001 15z" fill="#f3f5fc"/></g><path d="m406.158 0h-150.445v210.75h150.446c8.284 0 15-6.716 15-15v-180.75c-.001-8.284-6.717-15-15.001-15z" fill="#dce0ea"/><g><path d="m15 210.875h61.328v30h-61.328z" fill="#656977"/></g><g><path d="m15 271c-8.284 0-15-6.716-15-15v-60.25c0-8.284 6.716-15 15-15s15 6.716 15 15v60.25c0 8.284-6.716 15-15 15z" fill="#464b52"/></g><g><path d="m435.672 210.875h61.328v30h-61.328z" fill="#464b52"/></g><g><path d="m497 271c-8.284 0-15-6.716-15-15v-60.25c0-8.284 6.716-15 15-15s15 6.716 15 15v60.25c0 8.284-6.716 15-15 15z" fill="#292b2f"/></g><g><path d="m408.443 512h-307.596c-19.243 0-37.51-8.347-50.115-22.899-12.623-14.574-18.284-33.882-15.532-52.973l26.282-182.269c1.064-7.38 7.389-12.859 14.846-12.859h360.169c7.565 0 13.947 5.634 14.885 13.142l22.877 183.237c2.359 18.899-3.515 37.924-16.115 52.196-12.583 14.251-30.699 22.425-49.701 22.425z" fill="#656977"/></g><path d="m451.382 254.142c-.938-7.508-7.319-13.142-14.885-13.142h-180.784v271h152.731c19.002 0 37.117-8.174 49.7-22.425 12.601-14.272 18.475-33.297 16.115-52.196z" fill="#464b52"/><g><path d="m61.328 256v-60.25c0-8.284 6.716-15 15-15h360.169c8.284 0 15 6.716 15 15v60.25z" fill="#464b52"/></g><path d="m436.497 180.75h-180.784v75.25h195.784v-60.25c0-8.284-6.716-15-15-15z" fill="#292b2f"/><g><path d="m330.936 80.25h-150.446c-8.284 0-15-6.716-15-15s6.716-15 15-15h150.445c8.284 0 15 6.716 15 15s-6.715 15-14.999 15z" fill="#464b52"/></g><g><path d="m330.936 140.5h-150.446c-8.284 0-15-6.716-15-15s6.716-15 15-15h150.445c8.284 0 15 6.716 15 15s-6.715 15-14.999 15z" fill="#464b52"/></g><path d="m330.936 110.5h-75.223v30h75.223c8.284 0 15-6.716 15-15s-6.716-15-15-15z" fill="#292b2f"/><path d="m330.936 50.25h-75.223v30h75.223c8.284 0 15-6.716 15-15s-6.716-15-15-15z" fill="#292b2f"/><g><g><path d="m195.534 451.75h120.356c7.846 0 15.363-6.899 15-15-.364-8.127-6.591-15-15-15-35.107 0-115.344 0-120.356 0-7.846 0-15.363 6.899-15 15 .364 8.127 6.591 15 15 15z" fill="#464b52"/></g></g><g><g><path d="m135.356 451.75c7.846 0 15.363-6.899 15-15-.364-8.127-6.591-15-15-15-7.846 0-15.363 6.899-15 15 .364 8.127 6.591 15 15 15z" fill="#464b52"/></g></g><g><g><path d="m376.069 451.75c7.846 0 15.363-6.899 15-15-.364-8.127-6.591-15-15-15-7.846 0-15.363 6.899-15 15 .364 8.127 6.591 15 15 15z" fill="#292b2f"/></g></g><g><g><path d="m139.469 331.25c7.846 0 15.363-6.899 15-15-.364-8.127-6.591-15-15-15-7.846 0-15.363 6.899-15 15 .364 8.127 6.591 15 15 15z" fill="#464b52"/></g></g><g><g><path d="m197.591 331.25c7.846 0 15.363-6.899 15-15-.364-8.127-6.591-15-15-15-7.846 0-15.363 6.899-15 15 .364 8.127 6.59 15 15 15z" fill="#464b52"/></g></g><g><g><path d="m255.713 331.25c7.846 0 15.363-6.899 15-15-.364-8.127-6.591-15-15-15-7.846 0-15.363 6.899-15 15 .364 8.127 6.59 15 15 15z" fill="#464b52"/></g></g><g><g><path d="m313.835 331.25c7.846 0 15.363-6.899 15-15-.364-8.127-6.591-15-15-15-7.846 0-15.363 6.899-15 15 .364 8.127 6.59 15 15 15z" fill="#292b2f"/></g></g><g><g><path d="m371.956 331.25c7.846 0 15.363-6.899 15-15-.364-8.127-6.591-15-15-15-7.846 0-15.363 6.899-15 15 .364 8.127 6.591 15 15 15z" fill="#292b2f"/></g></g><g><g><path d="m110.695 391.5c7.846 0 15.363-6.899 15-15-.364-8.127-6.591-15-15-15-7.846 0-15.363 6.899-15 15 .364 8.127 6.591 15 15 15z" fill="#464b52"/></g></g><g><g><path d="m168.817 391.5c7.846 0 15.363-6.899 15-15-.364-8.127-6.591-15-15-15-7.846 0-15.363 6.899-15 15 .364 8.127 6.591 15 15 15z" fill="#464b52"/></g></g><g><g><path d="m226.939 391.5c7.846 0 15.363-6.899 15-15-.364-8.127-6.591-15-15-15-7.846 0-15.363 6.899-15 15 .364 8.127 6.591 15 15 15z" fill="#464b52"/></g></g><g><g><path d="m285.061 391.5c7.846 0 15.363-6.899 15-15-.364-8.127-6.591-15-15-15-7.846 0-15.363 6.899-15 15 .364 8.127 6.591 15 15 15z" fill="#292b2f"/></g></g><g><g><path d="m343.183 391.5c7.846 0 15.363-6.899 15-15-.364-8.127-6.591-15-15-15-7.846 0-15.363 6.899-15 15 .364 8.127 6.591 15 15 15z" fill="#292b2f"/></g></g><g><g><path d="m401.305 391.5c7.846 0 15.363-6.899 15-15-.364-8.127-6.591-15-15-15-7.846 0-15.363 6.899-15 15 .364 8.127 6.59 15 15 15z" fill="#292b2f"/></g></g><g fill="#292b2f"><path d="m315.891 421.75c-14.966 0-38.133 0-60.178 0v30h60.178c7.846 0 15.363-6.899 15-15-.364-8.127-6.591-15-15-15z"/><path d="m270.713 316.25c-.364-8.127-6.591-15-15-15v30c7.846 0 15.362-6.899 15-15z"/></g></g></svg>