<svg id="Capa_1" enable-background="new 0 0 512 512" height="512" viewBox="0 0 512 512" width="512" xmlns="http://www.w3.org/2000/svg"><g><path d="m373.849 86.046c0-7.205-5.841-13.046-13.046-13.046h-209.606c-7.205 0-13.046 5.841-13.046 13.046v40.964c0 4.257.197 8.498.584 12.607 0 .005 0 .011.001.016.001.01.002.02.003.03 0 .004.001.009.001.013 0 .003.001.006.001.009 3.963 43.229 28.3 81.478 64.288 103.565h105.943c35.988-22.087 60.325-60.336 64.288-103.565 0-.003.001-.006.001-.009 0-.004.001-.009.001-.013.001-.01.002-.02.003-.03 0-.005 0-.011.001-.016.387-4.109.584-8.35.584-12.607v-40.964z" fill="#faf139"/><path d="m360.803 73h-104.803v170.25h52.971c35.988-22.087 60.325-60.336 64.288-103.565 0-.003.001-.006.001-.009 0-.004.001-.009.001-.013.001-.01.002-.02.003-.03 0-.005 0-.011.001-.016.387-4.109.584-8.35.584-12.607v-40.964c0-7.205-5.841-13.046-13.046-13.046z" fill="#f5d953"/><path d="m390.822 136.923c0-.003.001-.007.001-.01 0-.005.001-.01.001-.015.001-.011.003-.023.004-.034.001-.006 0-.013.001-.019.445-4.724.671-9.6.671-14.495v-47.1c0-8.284-6.716-15-15-15h-241c-8.284 0-15 6.716-15 15v47.1c0 4.895.226 9.771.671 14.495.001.006 0 .013.001.019.001.011.003.023.004.034 0 .005.001.01.001.015 0 .003.001.007.001.01 4.556 49.697 32.531 93.671 73.901 119.067-45.613 27.973-74.579 78.337-74.579 133.66v47.1c0 8.284 6.716 15 15 15h241c8.284 0 15-6.716 15-15v-47.1c0-55.323-28.966-105.687-74.579-133.66 41.37-25.396 69.345-69.37 73.901-119.067zm-111.273 104.077h-47.098c-39.961-14.871-69.504-49.239-78.821-90.5h204.74c-9.317 41.261-38.86 75.629-78.821 90.5z" fill="#f3f5fc"/><path d="m376.5 60.25h-120.5v90.25h102.37c-9.316 41.261-38.859 75.629-78.821 90.5h-23.549v210.75h120.5c8.284 0 15-6.716 15-15v-47.1c0-55.323-28.966-105.687-74.579-133.66 41.369-25.396 69.345-69.369 73.901-119.067 0-.003.001-.007.001-.01 0-.005.001-.01.001-.015.001-.011.003-.023.004-.034.001-.006 0-.013.001-.019.445-4.724.671-9.6.671-14.495v-47.1c0-8.284-6.716-15-15-15z" fill="#dce0ea"/><path d="m358.375 432.043-87.375-116.5v-40.25h-30v40.25l-87.375 116.5c-4.971 6.627-3.627 16.029 3 21 6.628 4.972 16.03 3.627 21-3h156.75c2.947 3.929 7.451 6.001 12.012 6.001 3.131 0 6.29-.978 8.988-3.001 6.627-4.97 7.971-14.372 3-21z" fill="#faf139"/><path d="m334.375 450.044c2.947 3.929 7.451 6.001 12.012 6.001 3.131 0 6.29-.978 8.988-3.001 6.627-4.971 7.971-14.373 3-21l-87.375-116.5v-40.25h-15v174.75z" fill="#f5d953"/><g><path d="m403.714 512h-295.428c-8.284 0-15-6.716-15-15v-60.25c0-8.284 6.716-15 15-15h295.428c8.284 0 15 6.716 15 15v60.25c0 8.284-6.716 15-15 15z" fill="#76cefb"/></g><g><path d="m403.714 90.25h-295.428c-8.284 0-15-6.716-15-15v-60.25c0-8.284 6.716-15 15-15h295.428c8.284 0 15 6.716 15 15v60.25c0 8.284-6.716 15-15 15z" fill="#76cefb"/></g><g fill="#6897f4"><path d="m403.714 421.75h-147.714v90.25h147.714c8.284 0 15-6.716 15-15v-60.25c0-8.284-6.716-15-15-15z"/><path d="m403.714 0h-147.714v90.25h147.714c8.284 0 15-6.716 15-15v-60.25c0-8.284-6.716-15-15-15z"/></g></g></svg>