<svg id="Capa_1" enable-background="new 0 0 512 512" height="512" viewBox="0 0 512 512" width="512" xmlns="http://www.w3.org/2000/svg"><g><g><path d="m179.489 262.608 258.214-258.214c5.857-5.858 15.355-5.858 21.213 0 21.226 21.225 32.915 49.446 32.915 79.464 0 30.017-11.689 58.238-32.915 79.463l-189.357 189.357z" fill="#f3f5fc"/></g><path d="m485.541 46.629-261.016 261.015 45.034 45.034 189.357-189.357c21.226-21.225 32.915-49.446 32.915-79.463 0-12.878-2.158-25.423-6.29-37.229z" fill="#dce0ea"/><g><path d="m203.31 412.71c-3.839 0-7.677-1.464-10.605-4.393l-68.86-68.85c-2.813-2.813-4.395-6.628-4.395-10.607s1.58-7.794 4.394-10.607l55.649-55.65c2.812-2.813 6.628-4.394 10.606-4.394 3.979 0 7.794 1.581 10.607 4.394l68.851 68.86c5.857 5.858 5.856 15.355-.001 21.212l-55.64 55.64c-2.929 2.93-6.767 4.395-10.606 4.395z" fill="#c99251"/></g><path d="m269.557 331.465-34.424-34.428-76.858 76.858 34.429 34.424c2.929 2.929 6.767 4.393 10.605 4.393 3.839 0 7.678-1.465 10.606-4.393l55.64-55.64c5.858-5.859 5.859-15.356.002-21.214z" fill="#bd8041"/><g><path d="m145.67 470.36c-3.979 0-7.794-1.58-10.607-4.394l-68.859-68.86c-5.858-5.858-5.858-15.355 0-21.213l57.64-57.64 90.074 90.062-57.641 57.65c-2.813 2.814-6.628 4.395-10.607 4.395z" fill="#b37236"/></g><path d="m168.882 363.287-68.25 68.25 34.43 34.43c2.814 2.814 6.629 4.394 10.608 4.394s7.794-1.581 10.606-4.395l57.641-57.65z" fill="#95623a"/><g><path d="m104.019 512c-3.839 0-7.679-1.465-10.607-4.394l-68.85-68.86c-5.857-5.858-5.856-15.355.001-21.212l41.641-41.64 90.071 90.074-41.65 41.64c-2.93 2.928-6.768 4.392-10.606 4.392z" fill="#c99251"/></g><path d="m58.99 473.18 34.422 34.427c2.929 2.929 6.769 4.394 10.607 4.394s7.677-1.464 10.606-4.392l41.65-41.64-45.036-45.037z" fill="#bd8041"/><g><path d="m293.381 391.5c-3.839 0-7.678-1.464-10.606-4.394l-137.714-137.714c-5.858-5.858-5.858-15.355 0-21.213 5.857-5.858 15.355-5.858 21.213 0l137.714 137.714c5.858 5.858 5.858 15.355 0 21.213-2.929 2.929-6.769 4.394-10.607 4.394z" fill="#464b52"/></g><path d="m303.987 365.894-68.856-68.856-21.213 21.213 68.856 68.856c2.929 2.929 6.768 4.394 10.607 4.394 3.838 0 7.678-1.465 10.606-4.394 5.859-5.858 5.859-15.355 0-21.213z" fill="#292b2f"/></g></svg>