<svg id="Capa_1" enable-background="new 0 0 512 512" height="512" viewBox="0 0 512 512" width="512" xmlns="http://www.w3.org/2000/svg"><g><g><path d="m137.339 30.125h237.32v30h-237.32z" fill="#f5d953"/></g><g><path d="m151.514 98.231h208.971v30h-208.971z" fill="#f5d953"/></g><g><path d="m189.131 167.525h133.736v30h-133.736z" fill="#f5d953"/></g><g fill="#94e151"><path d="m256 167.525h66.868v30h-66.868z"/><path d="m256 98.231h104.485v30h-104.485z"/><path d="m256 30.125h118.66v30h-118.66z"/></g><g><path d="m137.339 452.4h237.32v30h-237.32z" fill="#a8f468"/></g><g><path d="m151.514 384.294h208.971v30h-208.971z" fill="#a8f468"/></g><g><path d="m189.131 315h133.736v30h-133.736z" fill="#a8f468"/></g><path d="m256 452.4h118.66v30h-118.66z" fill="#eeba44"/><path d="m256 384.294h104.485v30h-104.485z" fill="#eeba44"/><path d="m256 315h66.868v30h-66.868z" fill="#eeba44"/><g><path d="m376.5 512c-8.284 0-15-6.716-15-15 0-114.287-56.397-170.685-116.106-230.394-61.402-61.401-124.894-124.893-124.894-251.606 0-8.284 6.716-15 15-15s15 6.716 15 15c0 114.287 56.397 170.685 116.106 230.394 61.402 61.401 124.894 124.893 124.894 251.606 0 8.284-6.716 15-15 15z" fill="#76cefb"/></g><path d="m256 234.762v42.475c55.611 55.992 105.5 112.273 105.5 219.763 0 8.284 6.716 15 15 15s15-6.716 15-15c0-126.713-63.492-190.205-124.894-251.606-3.551-3.552-7.089-7.091-10.606-10.632z" fill="#6897f4"/><g><path d="m135.5 512c-8.284 0-15-6.716-15-15 0-126.713 63.492-190.205 124.894-251.606 59.709-59.709 116.106-116.107 116.106-230.394 0-8.284 6.716-15 15-15s15 6.716 15 15c0 126.713-63.492 190.205-124.894 251.606-59.709 59.709-116.106 116.107-116.106 230.394 0 8.284-6.716 15-15 15z" fill="#e3835e"/></g><path d="m376.5 0c-8.284 0-15 6.716-15 15 0 107.49-49.889 163.771-105.5 219.762v42.475c3.517-3.541 7.055-7.08 10.606-10.631 61.402-61.401 124.894-124.893 124.894-251.606 0-8.284-6.716-15-15-15z" fill="#dd495a"/></g></svg>