<svg id="Capa_1" enable-background="new 0 0 512 512" height="512" viewBox="0 0 512 512" width="512" xmlns="http://www.w3.org/2000/svg"><g><g><path d="m135.5 512h-60.25c-8.284 0-15-6.716-15-15v-60.25c0-8.284 6.716-15 15-15h60.25c8.284 0 15 6.716 15 15v60.25c0 8.284-6.716 15-15 15z" fill="#656977"/></g><g><path d="m436.75 512h-60.25c-8.284 0-15-6.716-15-15v-60.25c0-8.284 6.716-15 15-15h60.25c8.284 0 15 6.716 15 15v60.25c0 8.284-6.716 15-15 15z" fill="#464b52"/></g><g><g><path d="m441.062 451.75h-370.124c-22.504 0-40.812-18.309-40.812-40.812v-79.688l18.833-105.375-18.834-105.375v-79.688c0-22.503 18.309-40.812 40.813-40.812h370.125c22.504 0 40.812 18.309 40.812 40.812v370.125c0 22.504-18.309 40.813-40.813 40.813z" fill="#464b52"/></g></g><path d="m101.895 331.25h-71.77v-105.375l35.885-10 35.885 10z" fill="#bec2d0"/><path d="m30.125 120.5h71.77v105.375h-71.77z" fill="#999eb2"/><path d="m441.062 0h-179.924v451.75h179.925c22.504 0 40.812-18.309 40.812-40.812v-370.126c0-22.503-18.309-40.812-40.813-40.812z" fill="#292b2f"/><g><g><path d="m406.625 391.5h-301.25c-8.284 0-15-6.716-15-15v-301.25c0-8.284 6.716-15 15-15h301.25c8.284 0 15 6.716 15 15l.105 45.25-15.98 44 15.875 46.25.105 30.25-22.836 45.125 22.836 45.125-.105 45.25c0 8.284-6.716 15-15 15z" fill="#f3f5fc"/></g></g><path d="m421.625 210.75-15.875-46.25 15.98-44-.105-45.25c0-8.284-6.716-15-15-15h-145.487v331.25h145.487c8.284 0 15-6.716 15-15l.105-45.25-22.836-45.125 22.836-45.125z" fill="#bec2d0"/><g><g><path d="m421.73 210.75h-44.536c-25.25 0-46.351-20.663-45.918-45.909.42-24.522 20.498-44.341 45.118-44.341h45.336z" fill="#464b52"/></g></g><g><path d="m225.875 301.125c-41.493 0-75.25-33.757-75.25-75.25s33.757-75.25 75.25-75.25 75.25 33.757 75.25 75.25-33.757 75.25-75.25 75.25z" fill="#464b52"/></g><g><path d="m421.73 331.25h-44.536c-25.25 0-46.351-20.663-45.918-45.909.42-24.522 20.498-44.341 45.118-44.341h45.336z" fill="#464b52"/></g><g fill="#292b2f"><path d="m225.875 210.875c-8.284 0-15 6.716-15 15v73.745c4.849.985 9.865 1.505 15 1.505s10.151-.521 15-1.505v-73.745c0-8.284-6.716-15-15-15z"/><path d="m261.138 159.425v132.9c23.766-12.663 39.987-37.693 39.987-66.45s-16.221-53.787-39.987-66.45z"/></g></g></svg>