<svg id="Capa_1" enable-background="new 0 0 512 512" height="512" viewBox="0 0 512 512" width="512" xmlns="http://www.w3.org/2000/svg"><g><path d="m512 394.76v49c0 8.284-6.716 15-15 15h-482c-8.284 0-15-6.716-15-15v-49l256-10z" fill="#a8f468"/><path d="m512 330.75v64h-512v-64l256-10z" fill="#94e151"/><path d="m497 458.76c8.284 0 15-6.716 15-15v-49l-256-10v74z" fill="#94e151"/><path d="m512 394.75v-64l-256-10v74z" fill="#79ca52"/><path d="m512 142.882v98.236l-89.643 89.632h-332.714l-89.643-89.632v-98.236l89.643-89.643h332.714z" fill="#a8f468"/><path d="m256 53.24v277.51h166.357l89.643-89.632v-98.236l-89.643-89.642z" fill="#94e151"/><path d="m512 241.118v89.632h-89.643c.011-49.511 40.132-89.632 89.643-89.632z" fill="#6bb361"/><path d="m512 68.239v74.643c-49.511 0-89.643-40.131-89.643-89.643h74.643c8.284 0 15 6.716 15 15z" fill="#6bb361"/><g fill="#79ca52"><path d="m89.643 53.239c0 49.511-40.131 89.643-89.643 89.643v-74.643c0-8.284 6.716-15 15-15z"/><path d="m89.643 330.75h-89.643v-89.632c49.511 0 89.632 40.121 89.643 89.632z"/><circle cx="256" cy="192" r="64"/></g><path d="m320 192c0-35.346-28.654-64-64-64v128c35.346 0 64-28.654 64-64z" fill="#6bb361"/></g></svg>