<svg id="Capa_1" enable-background="new 0 0 512 512" height="512" viewBox="0 0 512 512" width="512" xmlns="http://www.w3.org/2000/svg"><g><g><path d="m466.875 512h-421.75c-8.284 0-15-6.716-15-15v-406.75c0-8.284 6.716-15 15-15h421.75c8.284 0 15 6.716 15 15v406.75c0 8.284-6.716 15-15 15z" fill="#f3f5fc"/></g><path d="m466.875 75.25h-210.875v436.75h210.875c8.284 0 15-6.716 15-15v-406.75c0-8.284-6.716-15-15-15z" fill="#dce0ea"/><g fill="#e3835e"><path d="m296.731 135.894c-5.857-5.857-15.355-5.857-21.213 0l-19.518 19.518-19.519-19.519c-5.857-5.857-15.355-5.857-21.213 0s-5.858 15.355 0 21.213l19.519 19.519-19.519 19.519c-5.858 5.857-5.858 15.355 0 21.213 2.929 2.929 6.768 4.394 10.606 4.394s7.678-1.465 10.606-4.394l19.52-19.519 19.519 19.519c2.929 2.929 6.768 4.394 10.606 4.394s7.678-1.465 10.606-4.394c5.858-5.857 5.858-15.355 0-21.213l-19.519-19.519 19.519-19.519c5.859-5.857 5.859-15.355 0-21.212z"/><path d="m296.731 256.394c-5.857-5.857-15.355-5.857-21.213 0l-19.518 19.518-19.519-19.519c-5.857-5.857-15.355-5.857-21.213 0s-5.858 15.355 0 21.213l19.519 19.519-19.519 19.519c-5.858 5.857-5.858 15.355 0 21.213 2.929 2.929 6.768 4.394 10.606 4.394s7.678-1.465 10.606-4.394l19.52-19.519 19.519 19.519c2.929 2.929 6.768 4.394 10.606 4.394s7.678-1.465 10.606-4.394c5.858-5.857 5.858-15.355 0-21.213l-19.519-19.519 19.519-19.519c5.859-5.857 5.859-15.355 0-21.212z"/><path d="m296.731 376.894c-5.857-5.857-15.355-5.857-21.213 0l-19.518 19.518-19.519-19.519c-5.857-5.857-15.355-5.857-21.213 0s-5.858 15.355 0 21.213l19.519 19.519-19.519 19.519c-5.858 5.857-5.858 15.355 0 21.213 2.929 2.929 6.768 4.394 10.606 4.394s7.678-1.465 10.606-4.394l19.52-19.519 19.519 19.519c2.929 2.929 6.768 4.394 10.606 4.394s7.678-1.465 10.606-4.394c5.858-5.857 5.858-15.355 0-21.213l-19.519-19.519 19.519-19.519c5.859-5.857 5.859-15.355 0-21.212z"/></g><path d="m275.519 458.356c2.929 2.929 6.768 4.394 10.606 4.394s7.678-1.465 10.606-4.394c5.858-5.857 5.858-15.355 0-21.213l-19.519-19.519 19.519-19.519c5.858-5.857 5.858-15.355 0-21.213-5.857-5.857-15.355-5.857-21.213 0l-19.518 19.52v42.426z" fill="#dd495a"/><path d="m275.519 337.856c2.929 2.929 6.768 4.394 10.606 4.394s7.678-1.465 10.606-4.394c5.858-5.857 5.858-15.355 0-21.213l-19.519-19.519 19.519-19.519c5.858-5.857 5.858-15.355 0-21.213-5.857-5.857-15.355-5.857-21.213 0l-19.518 19.52v42.426z" fill="#dd495a"/><path d="m275.519 217.356c2.929 2.929 6.768 4.394 10.606 4.394s7.678-1.465 10.606-4.394c5.858-5.857 5.858-15.355 0-21.213l-19.519-19.519 19.519-19.519c5.858-5.857 5.858-15.355 0-21.213-5.857-5.857-15.355-5.857-21.213 0l-19.518 19.52v42.426z" fill="#dd495a"/><path d="m176.231 135.894c-5.857-5.857-15.355-5.857-21.213 0l-19.518 19.518-19.519-19.519c-5.857-5.857-15.355-5.857-21.213 0s-5.858 15.355 0 21.213l19.519 19.519-19.519 19.519c-5.858 5.857-5.858 15.355 0 21.213 2.929 2.929 6.768 4.394 10.606 4.394s7.678-1.465 10.606-4.394l19.519-19.519 19.519 19.519c2.929 2.929 6.768 4.394 10.606 4.394s7.678-1.465 10.606-4.394c5.858-5.857 5.858-15.355 0-21.213l-19.519-19.519 19.519-19.519c5.86-5.857 5.86-15.355.001-21.212z" fill="#e3835e"/><path d="m397.713 176.625 19.519-19.519c5.858-5.857 5.858-15.355 0-21.213-5.857-5.857-15.355-5.857-21.213 0l-19.519 19.519-19.519-19.519c-5.857-5.857-15.355-5.857-21.213 0s-5.858 15.355 0 21.213l19.519 19.519-19.519 19.519c-5.858 5.857-5.858 15.355 0 21.213 2.929 2.929 6.768 4.394 10.606 4.394s7.678-1.465 10.606-4.394l19.519-19.519 19.519 19.519c2.929 2.929 6.768 4.394 10.606 4.394s7.678-1.465 10.606-4.394c5.858-5.857 5.858-15.355 0-21.213z" fill="#dd495a"/><path d="m176.231 256.394c-5.857-5.857-15.355-5.857-21.213 0l-19.518 19.518-19.519-19.519c-5.857-5.857-15.355-5.857-21.213 0s-5.858 15.355 0 21.213l19.519 19.519-19.519 19.519c-5.858 5.857-5.858 15.355 0 21.213 2.929 2.929 6.768 4.394 10.606 4.394s7.678-1.465 10.606-4.394l19.519-19.519 19.519 19.519c2.929 2.929 6.768 4.394 10.606 4.394s7.678-1.465 10.606-4.394c5.858-5.857 5.858-15.355 0-21.213l-19.519-19.519 19.519-19.519c5.86-5.857 5.86-15.355.001-21.212z" fill="#e3835e"/><path d="m417.231 256.394c-5.857-5.857-15.355-5.857-21.213 0l-19.518 19.518-19.519-19.519c-5.857-5.857-15.355-5.857-21.213 0s-5.858 15.355 0 21.213l19.519 19.519-19.519 19.519c-5.858 5.857-5.858 15.355 0 21.213 2.929 2.929 6.768 4.394 10.606 4.394s7.678-1.465 10.606-4.394l19.519-19.519 19.519 19.519c2.929 2.929 6.768 4.394 10.606 4.394s7.678-1.465 10.606-4.394c5.858-5.857 5.858-15.355 0-21.213l-19.519-19.519 19.519-19.519c5.86-5.857 5.86-15.355.001-21.212z" fill="#dd495a"/><path d="m176.231 376.894c-5.857-5.857-15.355-5.857-21.213 0l-19.518 19.518-19.519-19.519c-5.857-5.857-15.355-5.857-21.213 0s-5.858 15.355 0 21.213l19.519 19.519-19.519 19.519c-5.858 5.857-5.858 15.355 0 21.213 2.929 2.929 6.768 4.394 10.606 4.394s7.678-1.465 10.606-4.394l19.519-19.519 19.519 19.519c2.929 2.929 6.768 4.394 10.606 4.394s7.678-1.465 10.606-4.394c5.858-5.857 5.858-15.355 0-21.213l-19.519-19.519 19.519-19.519c5.86-5.857 5.86-15.355.001-21.212z" fill="#e3835e"/><path d="m417.231 376.894c-5.857-5.857-15.355-5.857-21.213 0l-19.518 19.518-19.519-19.519c-5.857-5.857-15.355-5.857-21.213 0s-5.858 15.355 0 21.213l19.519 19.519-19.519 19.519c-5.858 5.857-5.858 15.355 0 21.213 2.929 2.929 6.768 4.394 10.606 4.394s7.678-1.465 10.606-4.394l19.519-19.519 19.519 19.519c2.929 2.929 6.768 4.394 10.606 4.394s7.678-1.465 10.606-4.394c5.858-5.857 5.858-15.355 0-21.213l-19.519-19.519 19.519-19.519c5.86-5.857 5.86-15.355.001-21.212z" fill="#dd495a"/><g><path d="m481.24 90.25h-196.586l-28.654-11.306-26.559 11.306h-199.316v-75.25c0-8.284 6.716-15 15-15h135.353l75.205 40 75.84-40h134.717c8.284 0 15 6.716 15 15z" fill="#464b52"/></g><path d="m466.24 0h-134.718l-75.522 39.833v39.111l22.563 11.306h202.677v-75.25c0-8.284-6.715-15-15-15z" fill="#292b2f"/><g><path d="m275.709 90.25h-39.417c-30.825 0-55.814-24.989-55.814-55.814v-34.436h151.045v34.437c-.001 30.824-24.989 55.813-55.814 55.813z" fill="#faf139"/></g><path d="m256 90.25h19.709c30.825 0 55.813-24.989 55.813-55.813v-34.437h-75.522z" fill="#f5d953"/></g></svg>