<svg id="Capa_1" enable-background="new 0 0 512 512" height="512" viewBox="0 0 512 512" width="512" xmlns="http://www.w3.org/2000/svg"><g><path d="m497 70.38h-180.75c-24.619 0-46.513 11.882-60.25 30.212-13.737-18.329-35.631-30.212-60.25-30.212h-180.75c-8.284 0-15 6.716-15 15v266l256 75.24 256-75.24v-266c0-8.284-6.716-15-15-15z" fill="#f3f5fc"/><path d="m512 351.38v-266c0-8.284-6.716-15-15-15h-180.75c-24.619 0-46.513 11.882-60.25 30.212v326.028z" fill="#dce0ea"/><path d="m512 351.38h-195.75c-24.619 0-46.513 11.882-60.25 30.212-13.737-18.329-35.631-30.212-60.25-30.212h-195.75v75.24h256 256z" fill="#dce0ea"/><g><path d="m195.75 180.625h-120.5c-8.284 0-15-6.716-15-15s6.716-15 15-15h120.5c8.284 0 15 6.716 15 15s-6.716 15-15 15z" fill="#464b52"/></g><g><path d="m195.75 240.875h-120.5c-8.284 0-15-6.716-15-15s6.716-15 15-15h120.5c8.284 0 15 6.716 15 15s-6.716 15-15 15z" fill="#464b52"/></g><g><path d="m195.75 301.125h-120.5c-8.284 0-15-6.716-15-15s6.716-15 15-15h120.5c8.284 0 15 6.716 15 15s-6.716 15-15 15z" fill="#464b52"/></g><g><path d="m436.75 180.625h-120.5c-8.284 0-15-6.716-15-15s6.716-15 15-15h120.5c8.284 0 15 6.716 15 15s-6.716 15-15 15z" fill="#292b2f"/></g><g><path d="m436.75 240.875h-120.5c-8.284 0-15-6.716-15-15s6.716-15 15-15h120.5c8.284 0 15 6.716 15 15s-6.716 15-15 15z" fill="#292b2f"/></g><g><path d="m436.75 301.125h-120.5c-8.284 0-15-6.716-15-15s6.716-15 15-15h120.5c8.284 0 15 6.716 15 15s-6.716 15-15 15z" fill="#292b2f"/></g><path d="m512 426.62v-75.24h-195.75c-24.619 0-46.513 11.882-60.25 30.212v45.028z" fill="#bec2d0"/><g><path d="m497 441.62h-482c-8.284 0-15-6.716-15-15v-15h512v15c0 8.284-6.716 15-15 15z" fill="#e3835e"/></g><path d="m256 441.62h241c8.284 0 15-6.716 15-15v-15h-256z" fill="#dd495a"/></g></svg>