<svg id="Capa_1" enable-background="new 0 0 512 512" height="512" viewBox="0 0 512 512" width="512" xmlns="http://www.w3.org/2000/svg"><g><g><path d="m13.206 451.638c-17.595-17.594-17.595-46.222 0-63.816l191.715-191.714c5.857-5.858 15.355-5.858 21.213 0l42.603 42.603c5.858 5.858 5.858 15.355 0 21.213l-191.714 191.714c-8.797 8.797-20.353 13.196-31.908 13.196s-23.112-4.399-31.909-13.196z" fill="#b37236"/></g><path d="m45.115 464.834c-11.556 0-23.111-4.398-31.908-13.196l234.229-234.229 21.302 21.302c5.858 5.858 5.858 15.355 0 21.213l-191.715 191.714c-8.797 8.797-20.353 13.196-31.908 13.196z" fill="#95623a"/><g><path d="m290.127 302.527-127.81-127.81c-5.858-5.858-5.858-15.355 0-21.213l85.206-85.207c5.858-5.858 15.356-5.858 21.213 0l127.81 127.81c5.858 5.858 5.858 15.355 0 21.213l-85.207 85.207c-2.929 2.929-6.768 4.394-10.606 4.394s-7.677-1.465-10.606-4.394z" fill="#c99251"/></g><path d="m332.642 132.203 63.905 63.905c5.858 5.858 5.858 15.355 0 21.213l-85.207 85.207c-2.929 2.929-6.768 4.394-10.606 4.394s-7.678-1.464-10.606-4.394l-63.905-63.905z" fill="#bd8041"/><g><path d="m240.99 497v-60.25c0-8.284 6.716-15 15-15h241c8.284 0 15 6.716 15 15v60.25c0 8.284-6.716 15-15 15h-241c-8.285 0-15-6.716-15-15z" fill="#95623a"/></g><g><path d="m311.429 366.432-42.604-42.604c-5.858-5.858-5.858-15.355 0-21.213l127.81-127.81c5.857-5.858 15.355-5.858 21.213 0l42.604 42.604c5.858 5.858 5.858 15.355 0 21.213l-127.81 127.81c-2.929 2.929-6.768 4.394-10.606 4.394s-7.678-1.465-10.607-4.394z" fill="#95623a"/></g><g><path d="m141.016 196.019-42.603-42.603c-5.858-5.858-5.858-15.355 0-21.213l127.809-127.81c5.856-5.857 15.354-5.858 21.213 0l42.604 42.603c2.813 2.813 4.394 6.628 4.394 10.606s-1.581 7.793-4.394 10.606l-127.81 127.81c-2.812 2.813-6.628 4.394-10.606 4.394s-7.795-1.58-10.607-4.393z" fill="#b37236"/></g><path d="m255.99 421.75h120.5v90.25h-120.5c-8.284 0-15-6.716-15-15v-60.25c0-8.284 6.715-15 15-15z" fill="#b37236"/></g></svg>