<svg id="Capa_1" enable-background="new 0 0 512 512" height="512" viewBox="0 0 512 512" width="512" xmlns="http://www.w3.org/2000/svg"><g><path d="m256 430c-8.284 0-15 6.716-15 15v52c0 8.284 6.716 15 15 15s15-6.716 15-15v-52c0-8.284-6.716-15-15-15z" fill="#94e151"/><path d="m271 497v-52c0-8.284-6.716-15-15-15v82c8.284 0 15-6.716 15-15z" fill="#79ca52"/><path d="m269.055 429.361c-1.431-2.526-35.761-62.301-100.244-99.53-64.481-37.228-133.397-37.077-136.318-37.048-5.312.045-10.205 2.897-12.861 7.499s-2.681 10.265-.064 14.889c1.431 2.526 35.761 62.301 100.244 99.53 62.583 36.132 129.354 37.05 135.891 37.05.198 0 .342-.001.428-.002 5.312-.045 10.205-2.897 12.861-7.499s2.679-10.265.063-14.889z" fill="#a8f468"/><path d="m492.369 300.282c-2.656-4.602-7.549-7.454-12.861-7.499-2.889-.04-71.834-.182-136.318 37.048-64.483 37.229-98.813 97.004-100.244 99.53-2.616 4.624-2.592 10.287.064 14.889s7.549 7.454 12.861 7.499c.086.001.229.002.428.002 6.544 0 73.312-.92 135.891-37.05 64.483-37.229 98.813-97.004 100.244-99.53 2.616-4.624 2.591-10.287-.065-14.889z" fill="#94e151"/><path d="m270.974 435.854c-.229-3.812-6.169-94.343-56.977-182.343-50.807-88-126.237-138.41-129.424-140.514-4.741-3.129-10.843-3.313-15.763-.471-4.919 2.84-7.812 8.216-7.474 13.886.229 3.812 6.168 94.343 56.976 182.343 50.807 88 126.239 138.41 129.425 140.514 2.501 1.65 5.379 2.48 8.264 2.48 2.584 0 5.174-.667 7.499-2.01 4.92-2.839 7.812-8.215 7.474-13.885z" fill="#94e151"/><path d="m443.189 112.527c-4.919-2.841-11.022-2.656-15.763.471-3.187 2.104-78.617 52.514-129.424 140.514-50.808 88-56.748 178.531-56.977 182.343-.339 5.67 2.554 11.046 7.474 13.886 2.325 1.343 4.914 2.01 7.499 2.01 2.885 0 5.764-.831 8.264-2.48 3.186-2.104 78.618-52.514 129.425-140.514 50.808-88 56.747-178.531 56.976-182.343.339-5.671-2.555-11.047-7.474-13.887z" fill="#79ca52"/><path d="m269.759 9.025c-2.38-5.48-7.784-9.025-13.759-9.025s-11.379 3.545-13.759 9.025c-1.724 3.972-42.241 98.63-42.241 216.85s40.517 212.878 42.241 216.85c2.38 5.48 7.784 9.025 13.759 9.025s11.379-3.545 13.759-9.025c1.725-3.972 42.241-98.63 42.241-216.85s-40.517-212.878-42.241-216.85z" fill="#a8f468"/><path d="m269.759 442.725c1.725-3.972 42.241-98.63 42.241-216.85s-40.517-212.878-42.241-216.85c-2.38-5.48-7.784-9.025-13.759-9.025v451.75c5.975 0 11.379-3.545 13.759-9.025z" fill="#94e151"/></g></svg>