<svg id="Capa_1" enable-background="new 0 0 512 512" height="512" viewBox="0 0 512 512" width="512" xmlns="http://www.w3.org/2000/svg"><g><g><path d="m321.25 204.333v-88.833c0-35.979-29.271-65.25-65.25-65.25s-65.25 29.271-65.25 65.25v88.833h-50.25v-88.833c0-63.687 51.813-115.5 115.5-115.5s115.5 51.813 115.5 115.5v88.833z" fill="#f3f5fc"/></g><path d="m321.25 115.5v88.833h50.25v-88.833c0-63.687-51.813-115.5-115.5-115.5v50.25c35.979 0 65.25 29.271 65.25 65.25z" fill="#dce0ea"/><g><path d="m436.75 512h-361.5c-8.284 0-15-6.716-15-15v-301.25c0-8.284 6.716-15 15-15h361.5c8.284 0 15 6.716 15 15v301.25c0 8.284-6.716 15-15 15z" fill="#f5d953"/></g><path d="m436.75 180.75h-180.75v331.25h180.75c8.284 0 15-6.716 15-15v-301.25c0-8.284-6.716-15-15-15z" fill="#eeba44"/><path d="m301.125 318.188c0-24.882-20.243-45.125-45.125-45.125s-45.125 20.243-45.125 45.125c0 19.624 12.596 36.354 30.125 42.552v43.948c0 8.284 6.716 15 15 15s15-6.716 15-15v-43.948c17.529-6.198 30.125-22.928 30.125-42.552z" fill="#464b52"/><path d="m271 404.688v-43.948c17.529-6.198 30.125-22.927 30.125-42.552 0-24.882-20.243-45.125-45.125-45.125v146.625c8.284 0 15-6.716 15-15z" fill="#292b2f"/></g></svg>