<svg id="Capa_1" enable-background="new 0 0 512 512" height="512" viewBox="0 0 512 512" width="512" xmlns="http://www.w3.org/2000/svg"><g><g><path d="m497 512h-226.444l-14.556-11.667-14.556 11.667h-226.444c-4.343 0-8.473-1.883-11.322-5.161s-4.137-7.63-3.531-11.931l23.303-165.423c4.979-35.344 31.896-63.501 66.98-70.067l84.979-15.903 159.31-.35 86.851 16.253c35.083 6.566 62.001 34.724 66.98 70.067l23.304 165.423c.605 4.301-.682 8.653-3.531 11.931s-6.98 5.161-11.323 5.161z" fill="#464b52"/></g><path d="m488.55 329.485c-4.979-35.344-31.896-63.501-66.98-70.067l-86.851-16.253-78.719.173v256.996l14.556 11.666h226.444c4.343 0 8.473-1.883 11.322-5.161s4.137-7.63 3.531-11.931z" fill="#292b2f"/><g><path d="m286 391.49h-60c-6.889 0-12.892-4.692-14.556-11.376l-36.035-136.599 17.582-3.29 56.114-29.76c4.324-2.238 9.466-2.238 13.79 0l56.114 29.76 15.71 2.94-34.164 136.949c-1.663 6.684-7.666 11.376-14.555 11.376z" fill="#f3f5fc"/></g><path d="m286 391.49c6.889 0 12.892-4.692 14.556-11.376l34.164-136.949-15.71-2.94-56.114-29.76c-2.162-1.119-4.529-1.679-6.895-1.679v182.704z" fill="#dce0ea"/><g><path d="m241.444 512-30-131.876 29.993-128.75c1.654-6.698 7.664-11.405 14.563-11.405s12.909 4.707 14.563 11.405l29.993 128.75-30 131.876z" fill="#e3835e"/></g><path d="m270.556 512 30-131.876-29.993-128.75c-1.654-6.698-7.664-11.405-14.563-11.405v272.031z" fill="#dd495a"/><g><path d="m256 269.97c-58.106 0-105.38-47.273-105.38-105.38v-34.61l137.332-57.868 73.428 57.205v35.273c0 58.106-47.273 105.38-105.38 105.38z" fill="#faede5"/></g><path d="m256 85.576v184.394c58.106 0 105.38-47.273 105.38-105.38v-35.273l-73.428-57.205z" fill="#f6ddce"/><g><path d="m361.38 129.317c-31.781 4.889-58.302-5.483-75.708-29.19-.806-1.097-1.57-2.194-2.294-3.284-20.94 22.012-52.521 33.136-94.278 33.136h-38.48v-23.41c0-58.056 46.454-106.099 104.508-106.566 28.462-.229 55.267 10.75 75.386 30.856 19.906 19.907 30.867 46.367 30.867 74.51v23.948z" fill="#b37236"/></g><path d="m256 .007v116.675c10.546-5.137 19.683-11.749 27.378-19.838.724 1.089 1.488 2.187 2.294 3.284 17.406 23.707 43.927 34.079 75.708 29.19v-23.948c0-28.143-10.96-54.604-30.867-74.51-19.913-19.9-46.376-30.852-74.513-30.853z" fill="#95623a"/></g></svg>