<svg id="Capa_1" enable-background="new 0 0 512 512" height="512" viewBox="0 0 512 512" width="512" xmlns="http://www.w3.org/2000/svg"><g><g><path d="m286.125 393.063h-60.25c-8.284 0-15-6.716-15-15v-180.875c0-8.284 6.716-15 15-15h60.25c8.284 0 15 6.716 15 15v180.875c0 8.284-6.716 15-15 15z" fill="#656977"/></g><g><path d="m135.5 393.063h-60.25c-8.284 0-15-6.716-15-15v-180.875c0-8.284 6.716-15 15-15h60.25c8.284 0 15 6.716 15 15v180.875c0 8.284-6.716 15-15 15z" fill="#656977"/></g><g><path d="m436.75 393.063h-60.25c-8.284 0-15-6.716-15-15v-180.875c0-8.284 6.716-15 15-15h60.25c8.284 0 15 6.716 15 15v180.875c0 8.284-6.716 15-15 15z" fill="#464b52"/></g><path d="m286.125 182.188h-30.125v210.875h30.125c8.284 0 15-6.716 15-15v-180.875c0-8.285-6.716-15-15-15z" fill="#464b52"/><g><path d="m466.875 212.188h-421.75c-8.284 0-15-6.716-15-15v-50.125c0-5.195 2.688-10.021 7.106-12.755l210.875-130.5c4.837-2.993 10.95-2.993 15.787 0l210.875 130.5c4.418 2.734 7.106 7.56 7.106 12.755v50.125c.001 8.284-6.715 15-14.999 15z" fill="#f3f5fc"/></g><g><path d="m466.875 453.313h-421.75c-8.284 0-15-6.716-15-15v-30.125c0-24.882 20.243-45.125 45.125-45.125h361.5c24.882 0 45.125 20.243 45.125 45.125v30.125c0 8.284-6.716 15-15 15z" fill="#f3f5fc"/></g><path d="m436.75 363.063h-180.75v90.25h210.875c8.284 0 15-6.716 15-15v-30.125c0-24.882-20.243-45.125-45.125-45.125z" fill="#dce0ea"/><path d="m466.875 212.188c8.284 0 15-6.716 15-15v-50.125c0-5.195-2.688-10.021-7.106-12.755l-210.875-130.501c-2.418-1.497-5.156-2.245-7.894-2.245v210.625h210.875z" fill="#dce0ea"/><g><path d="m256 162.063c-24.882 0-45.125-20.243-45.125-45.125s20.243-45.125 45.125-45.125 45.125 20.243 45.125 45.125-20.243 45.125-45.125 45.125z" fill="#656977"/></g><path d="m301.125 116.938c0-24.882-20.243-45.125-45.125-45.125v90.25c24.882 0 45.125-20.244 45.125-45.125z" fill="#464b52"/><g><path d="m497 510.438h-482c-8.284 0-15-6.716-15-15v-30.125c0-24.882 20.243-45.125 45.125-45.125h421.75c24.882 0 45.125 20.243 45.125 45.125v30.125c0 8.284-6.716 15-15 15z" fill="#656977"/></g><path d="m466.875 420.188h-210.875v90.25h241c8.284 0 15-6.716 15-15v-30.125c0-24.882-20.243-45.125-45.125-45.125z" fill="#464b52"/></g></svg>