<svg id="Capa_1" enable-background="new 0 0 512 512" height="512" viewBox="0 0 512 512" width="512" xmlns="http://www.w3.org/2000/svg"><g><g><path d="m120.5 60.25v-45.25c0-8.284 6.716-15 15-15s15 6.716 15 15v60.25z" fill="#656977"/></g><g><path d="m324.25 512h-136.5c-37.082 0-67.25-30.168-67.25-67.25v-188.75c0-8.284 6.716-15 15-15h241c8.284 0 15 6.716 15 15v188.75c0 37.082-30.168 67.25-67.25 67.25z" fill="#656977"/></g><path d="m376.5 241h-120.5v271h68.25c37.082 0 67.25-30.168 67.25-67.25v-188.75c0-8.284-6.716-15-15-15z" fill="#464b52"/><g><path d="m120.5 256v-195.75h203.75c37.141 0 67.25 30.109 67.25 67.25v128.5z" fill="#e3835e"/></g><path d="m324.25 60.25h-68.25v195.75h135.5v-128.5c0-37.141-30.109-67.25-67.25-67.25z" fill="#dd495a"/><g><path d="m316.25 210.75h-120.5c-8.284 0-15-6.716-15-15v-60.25c0-8.284 6.716-15 15-15h120.5c8.284 0 15 6.716 15 15v60.25c0 8.284-6.716 15-15 15z" fill="#e1faff"/></g><g><g><path d="m195.75 331.25c7.846 0 15.363-6.899 15-15-.364-8.127-6.591-15-15-15-7.846 0-15.363 6.899-15 15 .364 8.127 6.591 15 15 15z" fill="#464b52"/></g></g><g><g><path d="m256 331.25c7.846 0 15.363-6.899 15-15-.364-8.127-6.591-15-15-15-7.846 0-15.363 6.899-15 15 .364 8.127 6.591 15 15 15z" fill="#464b52"/></g></g><g><g><path d="m316.25 331.25c7.846 0 15.363-6.899 15-15-.364-8.127-6.591-15-15-15-7.846 0-15.363 6.899-15 15 .364 8.127 6.591 15 15 15z" fill="#292b2f"/></g></g><g><g><path d="m195.75 391.5c7.846 0 15.363-6.899 15-15-.364-8.127-6.591-15-15-15-7.846 0-15.363 6.899-15 15 .364 8.127 6.591 15 15 15z" fill="#464b52"/></g></g><g><g><path d="m256 391.5c7.846 0 15.363-6.899 15-15-.364-8.127-6.591-15-15-15-7.846 0-15.363 6.899-15 15 .364 8.127 6.591 15 15 15z" fill="#464b52"/></g></g><g><g><path d="m316.25 391.5c7.846 0 15.363-6.899 15-15-.364-8.127-6.591-15-15-15-7.846 0-15.363 6.899-15 15 .364 8.127 6.591 15 15 15z" fill="#292b2f"/></g></g><g><path d="m316.25 451.75h-30.125c-8.284 0-15-6.716-15-15s6.716-15 15-15h30.125c8.284 0 15 6.716 15 15s-6.716 15-15 15z" fill="#292b2f"/></g><g><path d="m225.875 451.75h-30.125c-8.284 0-15-6.716-15-15s6.716-15 15-15h30.125c8.284 0 15 6.716 15 15s-6.716 15-15 15z" fill="#464b52"/></g><path d="m271 376.5c-.364-8.127-6.591-15-15-15v30c7.846 0 15.363-6.899 15-15z" fill="#292b2f"/><path d="m271 316.25c-.364-8.127-6.591-15-15-15v30c7.846 0 15.363-6.899 15-15z" fill="#292b2f"/><path d="m316.25 120.5h-60.25v90.25h60.25c8.284 0 15-6.716 15-15v-60.25c0-8.284-6.716-15-15-15z" fill="#c7f5ff"/></g></svg>