<svg id="Capa_1" enable-background="new 0 0 512 512" height="512" viewBox="0 0 512 512" width="512" xmlns="http://www.w3.org/2000/svg"><g><g><path d="m466.875 451.75h-421.75c-8.284 0-15-6.716-15-15v-271.125c0-8.284 6.716-15 15-15h421.75c8.284 0 15 6.716 15 15v271.125c0 8.284-6.716 15-15 15z" fill="#f5d953"/></g><path d="m466.875 150.625h-211.15v301.125h211.15c8.284 0 15-6.716 15-15v-271.125c0-8.284-6.716-15-15-15z" fill="#eeba44"/><g><path d="m286.125 301.125h-60.25c-24.882 0-45.125-20.243-45.125-45.125s20.243-45.125 45.125-45.125h60.25c24.882 0 45.125 20.243 45.125 45.125s-20.243 45.125-45.125 45.125z" fill="#464b52"/></g><g><path d="m497 180.625h-482c-8.284 0-15-6.716-15-15v-90.375c0-8.284 6.716-15 15-15h482c8.284 0 15 6.716 15 15v90.375c0 8.284-6.716 15-15 15z" fill="#faf139"/></g><path d="m286.125 210.875h-30.4v90.25h30.4c24.882 0 45.125-20.243 45.125-45.125s-20.243-45.125-45.125-45.125z" fill="#292b2f"/><path d="m497 60.25h-241.275v120.375h241.275c8.284 0 15-6.716 15-15v-90.375c0-8.284-6.716-15-15-15z" fill="#f5d953"/></g></svg>