<svg id="Capa_1" enable-background="new 0 0 512 512" height="512" viewBox="0 0 512 512" width="512" xmlns="http://www.w3.org/2000/svg"><g><path d="m230.875 421.75v-386.625c0-13.854 11.271-25.125 25.125-25.125s25.125 11.271 25.125 25.125v386.625z" fill="#f5d953"/><path d="m281.125 421.75v-386.625c0-13.854-11.271-25.125-25.125-25.125v411.75z" fill="#eeba44"/><g><path d="m83.857 80.375h344.286v30h-344.286z" fill="#bec2d0"/></g><path d="m256 80.375h172.143v30h-172.143z" fill="#999eb2"/><path d="m316.25 411.75h-120.5c-41.493 0-75.25 33.757-75.25 75.25 0 8.284 6.716 15 15 15h241c8.284 0 15-6.716 15-15 0-41.493-33.757-75.25-75.25-75.25z" fill="#464b52"/><g><path d="m139.298 239.797-55.441-110.881-55.44 110.881-26.834-13.416 68.857-137.714c2.541-5.082 7.735-8.292 13.417-8.292s10.875 3.21 13.417 8.292l68.857 137.714z" fill="#464b52"/></g><path d="m316.25 411.75h-60.25v90.25h120.5c8.284 0 15-6.716 15-15 0-41.493-33.757-75.25-75.25-75.25z" fill="#292b2f"/><path d="m83.857 80.375v48.542l55.441 110.881 26.833-13.416-68.858-137.715c-2.541-5.082-7.734-8.292-13.416-8.292z" fill="#292b2f"/><g><path d="m83.857 316.946c-46.239 0-83.857-37.618-83.857-83.857 0-8.284 6.716-15 15-15h137.714c8.284 0 15 6.716 15 15 0 46.239-37.618 83.857-83.857 83.857z" fill="#f5d953"/></g><path d="m152.714 218.089h-68.857v98.857c46.239 0 83.857-37.618 83.857-83.857 0-8.284-6.715-15-15-15z" fill="#eeba44"/><g><path d="m372.702 239.797-26.833-13.416 68.857-137.714c2.541-5.082 7.735-8.292 13.417-8.292s10.875 3.21 13.417 8.292l68.857 137.714-26.833 13.416-55.44-110.881z" fill="#464b52"/></g><path d="m428.143 80.375v48.542l55.44 110.881 26.833-13.416-68.856-137.715c-2.541-5.082-7.735-8.292-13.417-8.292z" fill="#292b2f"/><g><path d="m428.143 316.946c-46.239 0-83.857-37.618-83.857-83.857 0-8.284 6.716-15 15-15h137.714c8.284 0 15 6.716 15 15 0 46.239-37.618 83.857-83.857 83.857z" fill="#f5d953"/></g><path d="m497 218.089h-68.857v98.857c46.239 0 83.857-37.618 83.857-83.857 0-8.284-6.716-15-15-15z" fill="#eeba44"/></g></svg>