<svg id="Capa_1" enable-background="new 0 0 512 512" height="512" viewBox="0 0 512 512" width="512" xmlns="http://www.w3.org/2000/svg"><g><g><path d="m497 481.875h-482c-8.284 0-15-6.716-15-15v-421.75c0-8.284 6.716-15 15-15h482c8.284 0 15 6.716 15 15v421.75c0 8.284-6.716 15-15 15z" fill="#f3f5fc"/></g><path d="m497 30.125h-242.356v451.75h242.356c8.284 0 15-6.716 15-15v-421.75c0-8.284-6.716-15-15-15z" fill="#dce0ea"/><g><path d="m93.128 137.264c-5.141.001-10.147-2.645-12.943-7.397-4.199-7.141-1.815-16.334 5.325-20.534 20.64-12.14 44.243-18.557 68.259-18.557 21.966 0 43.791 5.423 63.116 15.682 7.317 3.885 10.1 12.966 6.216 20.282-3.886 7.318-12.969 10.097-20.282 6.216-15.009-7.968-31.97-12.18-49.05-12.18-18.671 0-37.016 4.984-53.05 14.416-2.388 1.404-5.006 2.072-7.591 2.072z" fill="#464b52"/></g><g><path d="m163.556 421.226c-3.192 0-6.408-1.015-9.134-3.111-6.567-5.05-7.796-14.468-2.745-21.034 22.358-29.07 36.931-67.137 43.313-113.142 1.138-8.206 8.712-13.941 16.919-12.796 8.205 1.138 13.935 8.713 12.796 16.919-7.106 51.227-23.677 94.06-49.249 127.308-2.954 3.84-7.402 5.856-11.9 5.856z" fill="#464b52"/></g><g><path d="m75.236 337.395c-2.41 0-4.855-.582-7.125-1.811-7.286-3.942-9.996-13.045-6.054-20.331 7.623-14.089 16.711-41.049 16.711-89.478 0-41.355 33.645-75 75-75s75 33.645 75 75c0 8.284-6.716 15-15 15s-15-6.716-15-15c0-24.813-20.187-45-45-45s-45 20.187-45 45c0 43.921-6.839 78.829-20.326 103.755-2.714 5.017-7.876 7.865-13.206 7.865z" fill="#464b52"/></g><g><path d="m89.333 409.979c-4.854 0-9.616-2.352-12.505-6.697-4.587-6.898-2.713-16.209 4.187-20.796 15.055-10.009 27.509-25.146 37.016-44.989 13.761-28.719 20.738-66.308 20.738-111.721 0-8.284 6.716-15 15-15s15 6.716 15 15c0 49.936-7.968 91.886-23.684 124.685-11.875 24.784-27.843 43.965-47.461 57.008-2.554 1.697-5.438 2.51-8.291 2.51z" fill="#464b52"/></g><g><path d="m436.75 210.75h-90.375c-8.284 0-15-6.716-15-15s6.716-15 15-15h90.375c8.284 0 15 6.716 15 15s-6.716 15-15 15z" fill="#292b2f"/></g><g><path d="m391.562 150.5h-45.188c-8.284 0-15-6.716-15-15s6.716-15 15-15h45.188c8.284 0 15 6.716 15 15s-6.715 15-15 15z" fill="#292b2f"/></g><g><path d="m436.75 271h-90.375c-8.284 0-15-6.716-15-15s6.716-15 15-15h90.375c8.284 0 15 6.716 15 15s-6.716 15-15 15z" fill="#292b2f"/></g><g><path d="m436.75 331.25h-90.375c-8.284 0-15-6.716-15-15s6.716-15 15-15h90.375c8.284 0 15 6.716 15 15s-6.716 15-15 15z" fill="#292b2f"/></g><g><path d="m436.75 391.5h-90.375c-8.284 0-15-6.716-15-15s6.716-15 15-15h90.375c8.284 0 15 6.716 15 15s-6.716 15-15 15z" fill="#292b2f"/></g><g><path d="m246.772 395.35c-1.895 0-3.819-.361-5.681-1.124-7.666-3.141-11.334-11.901-8.193-19.566 17.166-41.898 25.87-91.99 25.87-148.884 0-21.358-6.402-41.925-18.517-59.476-4.705-6.818-2.992-16.16 3.825-20.866 6.818-4.704 16.16-2.993 20.866 3.825 15.586 22.585 23.825 49.044 23.825 76.517 0 60.813-9.458 114.732-28.11 160.257-2.377 5.804-7.977 9.317-13.885 9.317z" fill="#464b52"/></g><path d="m254.644 142.937v53.705c2.715 9.39 4.125 19.173 4.125 29.134 0 22.591-1.395 44.089-4.125 64.448v102.885c2.613-1.607 4.763-4.02 6.014-7.075 18.652-45.524 28.11-99.443 28.11-160.257 0-27.473-8.239-53.932-23.825-76.517-2.488-3.607-6.276-5.768-10.299-6.323z" fill="#292b2f"/></g></svg>