<svg id="Capa_1" enable-background="new 0 0 512 512" height="512" viewBox="0 0 512 512" width="512" xmlns="http://www.w3.org/2000/svg"><g><g><path d="m256 378.441c-51.106 0-106.119-19.341-159.091-55.931-39.62-27.367-64.091-54.502-65.114-55.644-4.534-5.064-4.534-12.728 0-17.793 1.022-1.142 25.493-28.276 65.114-55.644 52.972-36.588 107.985-55.929 159.091-55.929s106.119 19.341 159.09 55.931c39.621 27.368 64.091 54.502 65.114 55.644 4.535 5.064 4.535 12.728 0 17.793-1.023 1.142-25.493 28.276-65.114 55.644-52.972 36.589-107.984 55.929-159.09 55.929z" fill="#fff"/></g><path d="m415.09 193.431c-52.971-36.59-107.984-55.931-159.09-55.931v240.941c51.106 0 106.118-19.341 159.09-55.931 39.621-27.367 64.091-54.502 65.114-55.644 4.535-5.065 4.535-12.728 0-17.793-1.023-1.14-25.493-28.275-65.114-55.642z" fill="#f3f5fc"/><g><path d="m256 333.221c-41.493 0-75.25-33.757-75.25-75.25s33.757-75.25 75.25-75.25 75.25 33.757 75.25 75.25-33.757 75.25-75.25 75.25z" fill="#76cefb"/></g><g><path d="m256 393.471c-57.481 0-119.357-21.753-178.938-62.908-44.563-30.782-72.087-61.301-73.237-62.585-5.1-5.696-5.1-14.316 0-20.013 1.15-1.284 28.674-31.804 73.237-62.585 59.581-41.155 121.457-62.908 178.938-62.908s119.357 21.753 178.938 62.908c44.563 30.782 72.087 61.301 73.237 62.585 5.101 5.696 5.101 14.316 0 20.013-1.15 1.284-28.674 31.804-73.237 62.585-59.581 41.154-121.457 62.908-178.938 62.908zm-220.057-135.494c11.302 11.07 31.86 29.796 58.775 48.32 37.898 26.083 96.643 57.174 161.281 57.174 102.82 0 191.347-77.433 220.057-105.506-11.304-11.072-31.859-29.796-58.775-48.32-37.898-26.083-96.644-57.174-161.281-57.174-102.82 0-191.347 77.433-220.057 105.506z" fill="#faede5"/></g><g><path d="m256 100.221c-8.284 0-15-6.716-15-15v-50.25c0-8.284 6.716-15 15-15s15 6.716 15 15v50.25c0 8.284-6.716 15-15 15z" fill="#464b52"/></g><g><path d="m164.287 113.236c-4.834 0-9.581-2.333-12.474-6.651l-28.774-42.935c-4.612-6.882-2.772-16.199 4.11-20.811 6.881-4.612 16.199-2.771 20.811 4.11l28.774 42.935c4.612 6.882 2.772 16.199-4.11 20.811-2.564 1.718-5.466 2.541-8.337 2.541z" fill="#464b52"/></g><g><path d="m347.713 113.236c-2.871 0-5.772-.822-8.337-2.541-6.882-4.612-8.722-13.929-4.11-20.811l28.773-42.935c4.612-6.882 13.929-8.723 20.812-4.11 6.882 4.612 8.722 13.929 4.11 20.811l-28.773 42.935c-2.894 4.317-7.641 6.651-12.475 6.651z" fill="#292b2f"/></g><g><path d="m256 492.029c-8.284 0-15-6.716-15-15v-50.25c0-8.284 6.716-15 15-15s15 6.716 15 15v50.25c0 8.285-6.716 15-15 15z" fill="#464b52"/></g><g><path d="m376.514 471.702c-4.835 0-9.581-2.333-12.475-6.651l-28.773-42.935c-4.611-6.882-2.771-16.199 4.11-20.811s16.199-2.772 20.812 4.11l28.773 42.935c4.611 6.882 2.771 16.199-4.11 20.811-2.564 1.718-5.466 2.541-8.337 2.541z" fill="#292b2f"/></g><g><path d="m135.486 471.702c-2.871 0-5.773-.822-8.337-2.541-6.882-4.612-8.722-13.929-4.11-20.811l28.774-42.935c4.612-6.882 13.93-8.722 20.811-4.11 6.882 4.612 8.722 13.929 4.11 20.811l-28.774 42.935c-2.893 4.318-7.64 6.651-12.474 6.651z" fill="#464b52"/></g><path d="m256 411.779v80.25c8.284 0 15-6.716 15-15v-50.25c0-8.284-6.716-15-15-15z" fill="#292b2f"/><path d="m256 19.971v80.25c8.284 0 15-6.716 15-15v-50.25c0-8.284-6.716-15-15-15z" fill="#292b2f"/><path d="m434.937 185.379c-59.58-41.155-121.456-62.908-178.937-62.908v30c64.638 0 123.383 31.091 161.281 57.174 26.916 18.524 47.472 37.248 58.775 48.32-28.709 28.073-117.236 105.506-220.056 105.506v30c57.481 0 119.357-21.753 178.937-62.908 44.563-30.782 72.087-61.301 73.237-62.585 5.101-5.696 5.101-14.316 0-20.013-1.15-1.285-28.673-31.804-73.237-62.586z" fill="#f6ddce"/><path d="m256 182.721v150.5c41.493 0 75.25-33.757 75.25-75.25s-33.757-75.25-75.25-75.25z" fill="#6897f4"/><g><g><path d="m256 272.971c7.846 0 15.363-6.899 15-15-.364-8.127-6.591-15-15-15-7.846 0-15.363 6.899-15 15 .364 8.127 6.591 15 15 15z" fill="#464b52"/></g></g><path d="m256 242.971v30c7.846 0 15.363-6.899 15-15-.364-8.127-6.591-15-15-15z" fill="#292b2f"/></g></svg>