<svg id="Capa_1" enable-background="new 0 0 512 512" height="512" viewBox="0 0 512 512" width="512" xmlns="http://www.w3.org/2000/svg"><g><g><path d="m497 512h-482c-8.284 0-15-6.716-15-15v-50.5c0-8.284 6.716-15 15-15h482c8.284 0 15 6.716 15 15v50.5c0 8.284-6.716 15-15 15z" fill="#464b52"/></g><path d="m497 431.5h-241v80.5h241c8.284 0 15-6.716 15-15v-50.5c0-8.284-6.716-15-15-15z" fill="#292b2f"/><g><path d="m0 446.5v-11.86c0-19.381 4.326-37.978 12.857-55.275 2.527-5.122 7.742-8.365 13.453-8.365h459.38c5.711 0 10.926 3.243 13.453 8.364 8.531 17.298 12.857 35.895 12.857 55.276v11.86z" fill="#f3f5fc"/></g><path d="m485.69 371h-229.69v75.5h256v-11.86c0-19.381-4.326-37.978-12.857-55.275-2.527-5.122-7.742-8.365-13.453-8.365z" fill="#dce0ea"/><path d="m499.145 379.369c-18.536-37.611-54.401-63.31-95.939-68.742-.645-.085-86.745-.127-86.745-.127-8.284 0-15 6.716-15 15v11.91c0 31.971-37.869 33.59-45.46 33.59s-45.46-1.619-45.46-33.59v-11.91c0-8.284-6.716-15-15-15 0 0-86.1.042-86.745.127-41.538 5.433-77.403 31.131-95.939 68.742z" fill="#464b52"/><path d="m316.46 310.5c-8.284 0-15 6.716-15 15v11.91c0 31.97-37.868 33.59-45.46 33.59v8.369h243.144c-18.536-37.611-54.401-63.31-95.939-68.742-.645-.085-86.745-.127-86.745-.127z" fill="#292b2f"/><g><path d="m256 393c-19.73 0-37.911-5.354-51.193-15.074-15.648-11.452-24.267-28.682-24.267-48.516v-49.27c0-8.284 6.716-15 15-15h120.92c8.284 0 15 6.716 15 15v49.271c0 19.834-8.616 37.063-24.262 48.516-13.281 9.719-31.464 15.073-51.198 15.073z" fill="#f6ddce"/></g><path d="m316.46 265.14h-60.46v127.86c19.734 0 37.916-5.354 51.198-15.074 15.646-11.452 24.262-28.682 24.262-48.516v-49.27c0-8.285-6.716-15-15-15z" fill="#f2ccbd"/><path d="m383.688 119.854h-26.954c-8.284 0-15 6.716-15 15v64.246c0 8.284 6.716 15 15 15h26.954c25.973 0 47.103-21.14 47.103-47.123s-21.13-47.123-47.103-47.123z" fill="#f2ccbd"/><path d="m155.266 119.854h-26.954c-25.973 0-47.104 21.139-47.104 47.122s21.13 47.123 47.104 47.123h26.954c8.284 0 15-6.716 15-15v-64.245c0-8.284-6.716-15-15-15z" fill="#f6ddce"/><g><path d="m255.998 335.223c-19.099 0-38.197-6.371-53.777-19.112-22.158-18.12-37.024-34.859-46.785-52.679-10.472-19.117-15.291-39.583-15.167-64.407l-.002-83.229c0-63.851 51.918-115.796 115.733-115.796 63.815 0 115.733 51.945 115.733 115.795l-.005 83.306c.124 24.748-4.695 45.214-15.167 64.331-9.761 17.819-24.627 34.559-46.785 52.679-15.58 12.741-34.679 19.112-53.778 19.112z" fill="#faede5"/></g><path d="m256 0v335.223c19.098 0 38.196-6.372 53.776-19.112 22.158-18.12 37.024-34.859 46.785-52.679 10.472-19.117 15.291-39.583 15.167-64.331l.005-83.306c.001-63.85-51.917-115.795-115.733-115.795z" fill="#f6ddce"/><path d="m140.267 115.795.002 83.229c-.026 5.211.18 10.22.596 15.075h91.956c3.98 0 7.797-1.582 10.61-4.397l12.569-12.577 12.57 12.578c2.813 2.815 6.63 4.396 10.609 4.396h91.956c.414-4.833.618-9.817.592-14.999l.005-83.306c0-9.313-1.112-18.37-3.197-27.052h-225.072c-2.084 8.683-3.196 17.74-3.196 27.053z" fill="#464b52"/><path d="m256 88.743v108.382l12.57 12.578c2.813 2.815 6.63 4.396 10.609 4.396h91.956c.414-4.833.618-9.817.592-14.999l.005-83.306c0-9.313-1.112-18.37-3.197-27.052h-112.535z" fill="#292b2f"/><g><path d="m209.334 166.422h-15.053c-8.284 0-15-6.716-15-15s6.716-15 15-15h15.053c8.284 0 15 6.716 15 15s-6.715 15-15 15z" fill="#faede5"/></g><g><path d="m316.464 166.422h-15.053c-8.284 0-15-6.716-15-15s6.716-15 15-15h15.053c8.284 0 15 6.716 15 15s-6.715 15-15 15z" fill="#f6ddce"/></g></g></svg>