<svg id="Capa_1" enable-background="new 0 0 512 512" height="512" viewBox="0 0 512 512" width="512" xmlns="http://www.w3.org/2000/svg"><g><g><path d="m30.12 432.655v-113.691l12.88-36.934-12.88-36.934v-106.882s6.716-21.809 15-21.809 15 6.716 15 15v301.25c0 8.284-30 8.284-30 0z" fill="#464b52"/></g><g><path d="m451.88 432.655v-301.25c0-8.284 6.716-15 15-15s15 21.809 15 21.809v106.881l-15 36.934 15 36.934v113.691c0 8.285-30 8.285-30 .001z" fill="#292b2f"/></g><g><path d="m331.922 64.345-26.729 40.464-23.893 33.405h-101.222l50.622-73.869z" fill="#f3f5fc"/></g><g><path d="m129.478 64.345-24.311 36.934-26.311 36.934h-48.736v-58.868c0-8.284 6.716-15 15-15z" fill="#f3f5fc"/></g><g><path d="m230.7 64.345-24.311 36.935-26.311 36.934h-101.222l50.622-73.869z" fill="#eeba44"/></g><g><path d="m75.25 447.655h-60.25c-8.284 0-15-6.716-15-15s6.716-15 15-15h60.25c8.284 0 15 6.716 15 15s-6.716 15-15 15z" fill="#656977"/></g><g><path d="m497 447.655h-60.25c-8.284 0-15-6.716-15-15s6.716-15 15-15h60.25c8.284 0 15 6.716 15 15s-6.716 15-15 15z" fill="#464b52"/></g><g><path d="m331.922 245.095-26.729 40.464-23.893 33.405h-101.222l50.622-73.869z" fill="#f3f5fc"/></g><g><path d="m129.478 245.095-24.311 36.935-26.311 36.934h-48.736v-73.869z" fill="#f3f5fc"/></g><g><path d="m230.7 245.095-24.311 36.935-26.311 36.934h-101.222l50.622-73.869z" fill="#eeba44"/></g><path d="m256 318.964h25.3l23.893-33.405 26.729-40.464h-75.922z" fill="#dce0ea"/><path d="m256 138.214h25.3l23.893-33.405 26.729-40.464h-75.922z" fill="#dce0ea"/><g><path d="m433.144 64.345-24.478 37.177-26.144 36.692h-101.222l50.622-73.869z" fill="#e3835e"/></g><g><path d="m433.144 245.095-24.478 37.177-26.144 36.692h-101.222l50.622-73.869z" fill="#e3835e"/></g><g><path d="m481.88 79.345v58.869h-99.358l50.622-73.869h33.736c8.284 0 15 6.716 15 15z" fill="#dce0ea"/></g><g><path d="m481.88 245.095v73.869h-99.358l50.622-73.869z" fill="#dce0ea"/></g></g></svg>