<svg id="Capa_1" enable-background="new 0 0 512 512" height="512" viewBox="0 0 512 512" width="512" xmlns="http://www.w3.org/2000/svg"><g><g><path d="m261.586 444.568c-183.956 0-247.938-54.492-250.571-56.812-3.233-2.848-5.086-6.947-5.086-11.256v-179.752c0-108.487 88.26-196.748 196.747-196.748h106.648c108.486 0 196.747 88.261 196.747 196.748v179.752c0 3.775-1.424 7.412-3.987 10.185-1.5 1.622-15.726 16.255-52.762 30.366-47.923 18.26-111.086 27.517-187.736 27.517z" fill="#464b52"/></g><path d="m309.324 0h-48.081v444.567c.115 0 .227.002.343.002 76.65 0 139.813-9.258 187.736-27.518 37.036-14.111 51.262-28.744 52.762-30.366 2.563-2.772 3.987-6.409 3.987-10.185v-179.752c0-108.487-88.26-196.748-196.747-196.748z" fill="#292b2f"/><path d="m445.821 458.836v-232.961c0-8.284-6.716-15-15-15h-349.642c-8.284 0-15 6.716-15 15v234.048c.002 3.112.953 10.297 8.485 18.041 21.967 22.585 84.684 34.036 186.407 34.036 103.101 0 161.759-11.492 179.326-35.133 5.42-7.294 5.866-13.997 5.424-18.031z" fill="#e1faff"/><g><path d="m351.618 111h-180.75c-8.284 0-15-6.716-15-15s6.716-15 15-15h180.75c8.284 0 15 6.716 15 15s-6.716 15-15 15z" fill="#656977"/></g><path d="m445.821 225.875c0-8.284-6.716-15-15-15h-169.578v301.125c102.993-.013 161.597-11.505 179.154-35.133 5.42-7.294 5.865-13.997 5.424-18.031z" fill="#c7f5ff"/><path d="m351.618 81h-90.375v30h90.375c8.284 0 15-6.716 15-15s-6.716-15-15-15z" fill="#464b52"/><g><path d="m66.179 225.875v-62.567c0-8.284 6.716-15 15-15h349.643c8.284 0 15 6.716 15 15v62.567z" fill="#bec2d0"/></g><path d="m430.821 148.308h-169.578v77.567h184.578v-62.567c0-8.285-6.716-15-15-15z" fill="#999eb2"/></g></svg>