<svg id="Capa_1" enable-background="new 0 0 512 512" height="512" viewBox="0 0 512 512" width="512" xmlns="http://www.w3.org/2000/svg"><g><g><path d="m256 90.25c-41.493 0-75.25-33.757-75.25-75.25 0-8.284 6.716-15 15-15h120.5c8.284 0 15 6.716 15 15 0 41.493-33.757 75.25-75.25 75.25z" fill="#c99251"/></g><path d="m316.25 0h-60.25v90.25c41.493 0 75.25-33.757 75.25-75.25 0-8.284-6.716-15-15-15z" fill="#bd8041"/><g><path d="m436.75 512h-361.5c-33.188 0-60.188-27-60.188-60.188 0-28.01 19.234-51.613 45.188-58.295v-77.267c0-107.937 87.813-195.75 195.75-195.75s195.75 87.813 195.75 195.75v77.267c25.953 6.683 45.188 30.285 45.188 58.295 0 33.188-27 60.188-60.188 60.188z" fill="#c99251"/></g><path d="m436.75 512c33.188 0 60.188-27 60.188-60.188 0-28.01-19.234-51.613-45.188-58.295v-77.267c0-107.937-87.813-195.75-195.75-195.75v391.5z" fill="#bd8041"/><g><path d="m286.125 150.5h-60.25c-24.882 0-45.125-20.243-45.125-45.125s20.243-45.125 45.125-45.125h60.25c24.882 0 45.125 20.243 45.125 45.125s-20.243 45.125-45.125 45.125z" fill="#b37236"/></g><path d="m256 301.25c-8.34 0-15.125-6.785-15.125-15.125s6.785-15.125 15.125-15.125h30.125c8.284 0 15-6.716 15-15s-6.716-15-15-15h-15.125v-15.125c0-8.284-6.716-15-15-15s-15 6.716-15 15v17.698c-17.529 6.198-30.125 22.927-30.125 42.552 0 24.882 20.243 45.125 45.125 45.125 8.34 0 15.125 6.785 15.125 15.125s-6.785 15.125-15.125 15.125h-30.125c-8.284 0-15 6.716-15 15s6.716 15 15 15h15.125v15.125c0 8.284 6.716 15 15 15s15-6.716 15-15v-17.698c17.529-6.198 30.125-22.927 30.125-42.552 0-24.882-20.243-45.125-45.125-45.125z" fill="#faf139"/><g fill="#f5d953"><path d="m286.125 271c8.284 0 15-6.716 15-15s-6.716-15-15-15h-15.125v-15.125c0-8.284-6.716-15-15-15v60.125z"/><path d="m271 406.625v-17.698c17.529-6.198 30.125-22.927 30.125-42.552 0-24.882-20.243-45.125-45.125-45.125v30c8.34 0 15.125 6.785 15.125 15.125s-6.785 15.125-15.125 15.125v60.125c8.284 0 15-6.716 15-15z"/></g><path d="m286.125 60.25h-30.125v90.25h30.125c24.882 0 45.125-20.243 45.125-45.125s-20.243-45.125-45.125-45.125z" fill="#95623a"/></g></svg>