<svg height="512pt" viewBox="-2 0 511 512" width="512pt" xmlns="http://www.w3.org/2000/svg"><path d="m32.5 16h352c17.671875 0 32 14.328125 32 32v432c0 17.671875-14.328125 32-32 32h-352c-17.671875 0-32-14.328125-32-32v-432c0-17.671875 14.328125-32 32-32zm0 0" fill="#77959e"/><path d="m32.5 374.625v-294.625c0-17.671875 14.328125-32 32-32h288c17.671875 0 32 14.328125 32 32v368c0 17.671875-14.328125 32-32 32h-214.625zm0 0" fill="#e4edfb"/><path d="m137.875 406.625v73.375l-105.375-105.375h73.375c17.675781 0 32 14.324219 32 32zm0 0" fill="#48c8ef"/><path d="m320.5 304h-96v-128h96v-80.703125l186.0625 144.703125-186.0625 144.703125zm0 0" fill="#ffcb5a"/><g fill="#fba61f"><path d="m160.5 192h32v32h-32zm0 0"/><path d="m96.5 192h32v32h-32zm0 0"/><path d="m160.5 256h32v32h-32zm0 0"/><path d="m96.5 256h32v32h-32zm0 0"/></g><path d="m32.5 448h32v32h-32zm0 0" fill="#fff"/><path d="m128.5 64v-64h160v64c0 17.671875-14.328125 32-32 32h-96c-17.671875 0-32-14.328125-32-32zm0 0" fill="#48c8ef"/></svg>