<svg height="511pt" viewBox="-98 0 511 511.99954" width="511pt" xmlns="http://www.w3.org/2000/svg"><path d="m293.035156 463.140625h-268.609375c-5.003906 0-9.0625-4.058594-9.0625-9.0625v-362.535156c0-5.003907 4.058594-9.0625 9.0625-9.0625h268.609375c5.007813 0 9.0625 4.058593 9.0625 9.0625v362.535156c0 5.003906-4.058594 9.0625-9.0625 9.0625zm0 0" fill="#ebebf0"/><path d="m266.285156 413.363281c-10.457031 0-19.96875-6.074219-24.339844-15.570312-14.773437-32.089844-47.210937-54.367188-84.855468-54.367188-16.625 0-32.234375 4.347657-45.753906 11.960938-12.761719 7.1875-28.984376 2.785156-36.300782-9.90625-11.472656-19.886719-18.035156-42.960938-18.035156-67.566407v-195.433593h-32.574219c-5.003906 0-9.0625 4.058593-9.0625 9.0625v362.535156c0 5.003906 4.058594 9.0625 9.0625 9.0625h268.609375c5.007813 0 9.0625-4.058594 9.0625-9.0625v-40.714844zm0 0" fill="#dbdbdd"/><path d="m315.738281 82.628906v382.796875c0 7.515625-6.09375 13.609375-13.609375 13.609375h-288.019531c-7.515625 0-13.609375-6.09375-13.609375-13.609375v-382.796875c0-7.515625 6.09375-13.609375 13.609375-13.609375h288.019531c7.515625 0 13.609375 6.09375 13.609375 13.609375zm-25.757812 364.324219v-345.851563c0-3.496093-2.832031-6.328124-6.324219-6.328124h-251.074219c-3.496093 0-6.328125 2.832031-6.328125 6.328124v345.847657c0 3.496093 2.832032 6.328125 6.328125 6.328125h251.074219c3.492188 0 6.324219-2.832032 6.324219-6.324219zm0 0" fill="#41c1fc"/><path d="m200.316406 40.328125c.738282 16.835937-8.378906 31.585937-22.058594 39.023437-2.914062 1.585938-4.6875 4.679688-4.6875 7.996094v8.046875c0 4.777344 3.875 8.652344 8.652344 8.652344 6.605469 0 11.953125 5.347656 11.953125 11.949219v18.636718c0 3.59375-2.90625 6.5-6.5 6.5h-59.113281c-3.597656 0-6.5-2.90625-6.5-6.5v-18.636718c0-3.296875 1.339844-6.285156 3.5-8.449219 2.164062-2.160156 5.152344-3.5 8.449219-3.5 4.78125 0 8.652343-3.875 8.652343-8.652344v-8.046875c0-3.339844-1.800781-6.417968-4.726562-8.015625-13.136719-7.160156-22.058594-21.078125-22.058594-37.097656 0-23.746094 19.585938-42.90625 43.484375-42.2148438 21.933594.6289068 39.992188 18.3867188 40.953125 40.3085938zm0 0" fill="#fec12c"/><path d="m142.148438 134.632812v-18.636718c0-3.296875 1.339843-6.285156 3.503906-8.449219 2.164062-2.160156 5.152344-3.5 8.449218-3.5 4.777344 0 8.652344-3.875 8.652344-8.652344v-8.046875c0-3.339844-1.804687-6.417968-4.726562-8.015625-13.136719-7.160156-22.058594-21.078125-22.058594-37.097656 0-19.855469 13.699219-36.496094 32.15625-41.015625-2.824219-.695312-5.753906-1.113281-8.761719-1.1992188-23.898437-.6914062-43.484375 18.4687498-43.484375 42.2148438 0 16.019531 8.921875 29.9375 22.058594 37.097656 2.925781 1.597657 4.726562 4.675781 4.726562 8.015625v8.046875c0 4.777344-3.871093 8.652344-8.652343 8.652344-3.296875 0-6.285157 1.339844-8.449219 3.5-2.160156 2.164063-3.5 5.152344-3.5 8.449219v18.636718c0 3.59375 2.902344 6.5 6.5 6.5h20.089844c-3.597656 0-6.503906-2.90625-6.503906-6.5zm0 0" fill="#fca82d"/><path d="m232.292969 436.796875c0 41.53125-33.671875 75.203125-75.203125 75.203125-41.535156 0-75.207032-33.671875-75.207032-75.203125 0-41.535156 33.671876-75.203125 75.207032-75.203125 41.53125 0 75.203125 33.667969 75.203125 75.203125zm0 0" fill="#fec12c"/><path d="m170.210938 434.984375v63.746094h-24.1875v-63.746094zm0 0" fill="#efaf84"/><path d="m185.558594 411.457031v24.226563c0 16.636718-11.667969 30.109375-26.074219 30.109375h-2.734375c-14.402344 0-26.074219-13.472657-26.074219-30.109375v-24.226563zm0 0" fill="#fec29a"/><path d="m152.3125 435.683594v-24.226563h-21.636719v24.226563c0 16.632812 11.671875 30.109375 26.074219 30.109375h2.734375c3.335937 0 6.519531-.730469 9.449219-2.046875-9.726563-4.367188-16.621094-15.277344-16.621094-28.0625zm0 0" fill="#f9ac78"/><path d="m187.476562 405.941406v5.261719c0 1.683594-1.363281 3.050781-3.050781 3.050781h-52.613281c-1.6875 0-3.054688-1.367187-3.054688-3.050781v-6.054687c0-9.75 7.90625-17.65625 17.65625-17.65625h22.613282c10.191406 0 18.449218 8.257812 18.449218 18.449218zm0 0" fill="#525959"/><path d="m153.453125 411.203125v-6.054687c0-9.398438 7.351563-17.0625 16.613281-17.605469-.34375-.019531-.6875-.050781-1.039062-.050781h-22.613282c-9.75 0-17.65625 7.90625-17.65625 17.65625v6.054687c0 1.683594 1.367188 3.050781 3.054688 3.050781h24.691406c-1.683594 0-3.050781-1.367187-3.050781-3.050781zm0 0" fill="#414747"/><path d="m200.355469 498.289062.011719.007813c-12.238282 8.632813-27.167969 13.703125-43.277344 13.703125-15.21875 0-29.382813-4.523438-41.21875-12.289062l.007812-.011719v-3.800781c0-9.683594 7.839844-17.523438 17.523438-17.523438h49.429687c9.683594 0 17.523438 7.839844 17.523438 17.523438zm0 0" fill="#fe6150"/><path d="m146.023438 499.710938.011718-.011719v-3.800781c0-9.683594 7.839844-17.523438 17.523438-17.523438h-30.15625c-9.683594 0-17.523438 7.839844-17.523438 17.523438v3.800781l-.007812.011719c11.835937 7.765624 26 12.289062 41.21875 12.289062 5.167968 0 10.214844-.527344 15.089844-1.523438-9.488282-1.929687-18.332032-5.632812-26.15625-10.765624zm0 0" fill="#ef3325"/><path d="m172.539062 41.203125c0 7.96875-6.457031 14.425781-14.421874 14.425781-7.964844 0-14.421876-6.457031-14.421876-14.425781 0-7.964844 6.457032-14.421875 14.421876-14.421875 7.964843 0 14.421874 6.457031 14.421874 14.421875zm0 0" fill="#fff"/><path d="m115.878906 211.183594c0 17.070312-13.835937 30.90625-30.902344 30.90625-17.070312 0-30.90625-13.835938-30.90625-30.90625 0-17.066406 13.835938-30.902344 30.90625-30.902344 17.066407 0 30.902344 13.835938 30.902344 30.902344zm0 0" fill="#8effa4"/><path d="m115.878906 299.78125c0 17.070312-13.835937 30.90625-30.902344 30.90625-17.070312 0-30.90625-13.835938-30.90625-30.90625s13.835938-30.90625 30.90625-30.90625c17.066407 0 30.902344 13.835938 30.902344 30.90625zm0 0" fill="#8effa4"/><g fill="#d4d4d6"><path d="m163.269531 200.367188h-19.574219c-4.269531 0-7.726562-3.457032-7.726562-7.726563 0-4.265625 3.457031-7.726563 7.726562-7.726563h19.574219c4.265625 0 7.726563 3.460938 7.726563 7.726563 0 4.269531-3.460938 7.726563-7.726563 7.726563zm0 0"/><path d="m259.078125 200.367188h-72.113281c-4.269532 0-7.726563-3.457032-7.726563-7.726563 0-4.265625 3.457031-7.726563 7.726563-7.726563h72.113281c4.265625 0 7.722656 3.460938 7.722656 7.726563 0 4.269531-3.457031 7.726563-7.722656 7.726563zm0 0"/><path d="m259.078125 238.484375h-19.574219c-4.269531 0-7.726562-3.457031-7.726562-7.726563 0-4.265624 3.457031-7.726562 7.726562-7.726562h19.574219c4.265625 0 7.722656 3.460938 7.722656 7.726562 0 4.269532-3.457031 7.726563-7.722656 7.726563zm0 0"/><path d="m215.808594 238.484375h-72.113282c-4.269531 0-7.726562-3.457031-7.726562-7.726563 0-4.265624 3.457031-7.726562 7.726562-7.726562h72.113282c4.269531 0 7.726562 3.460938 7.726562 7.726562 0 4.269532-3.460937 7.726563-7.726562 7.726563zm0 0"/><path d="m163.269531 291.023438h-19.574219c-4.269531 0-7.726562-3.457032-7.726562-7.726563 0-4.265625 3.457031-7.726563 7.726562-7.726563h19.574219c4.265625 0 7.726563 3.460938 7.726563 7.726563 0 4.269531-3.460938 7.726563-7.726563 7.726563zm0 0"/><path d="m259.078125 291.023438h-72.113281c-4.269532 0-7.726563-3.457032-7.726563-7.726563 0-4.265625 3.457031-7.726563 7.726563-7.726563h72.113281c4.265625 0 7.722656 3.460938 7.722656 7.726563 0 4.269531-3.457031 7.726563-7.722656 7.726563zm0 0"/><path d="m259.078125 329.140625h-19.574219c-4.269531 0-7.726562-3.457031-7.726562-7.726563 0-4.265624 3.457031-7.726562 7.726562-7.726562h19.574219c4.265625 0 7.722656 3.460938 7.722656 7.726562 0 4.269532-3.457031 7.726563-7.722656 7.726563zm0 0"/><path d="m215.808594 329.140625h-72.113282c-4.269531 0-7.726562-3.457031-7.726562-7.726563 0-4.265624 3.457031-7.726562 7.726562-7.726562h72.113282c4.269531 0 7.726562 3.460938 7.726562 7.726562 0 4.269532-3.460937 7.726563-7.726562 7.726563zm0 0"/></g></svg>