<svg height="512pt" viewBox="0 -20 512 511" width="512pt" xmlns="http://www.w3.org/2000/svg"><path d="m278.148438 17.46875v92.632812c-7.109376-1.820312-14.320313-2.742187-21.632813-2.742187-8.027344 0-15.925781 1.109375-23.695313 3.285156v-93.175781zm0 0" fill="#dceeef"/><path d="m255.484375 17.46875h-22.664063v93.175781c7.433594-2.082031 14.992188-3.179687 22.664063-3.269531zm0 0" fill="#ccdbdb"/><path d="m488.304688 176.640625v17.554687c0 3.964844-3.222657 7.191407-7.191407 7.191407h-54.660156c-4.78125-11.230469-10.589844-21.914063-17.296875-31.9375h71.957031c3.96875 0 7.191407 3.226562 7.191407 7.191406zm0 0" fill="#fe6150"/><path d="m78.664062 169.449219h51.464844v28.824219h-51.464844zm0 0" fill="#8effa4"/><path d="m300.8125 86.71875c-13.917969-3.160156-28.394531-4.835938-43.265625-4.835938-107.535156 0-194.707031 87.171876-194.707031 194.707032 0 107.53125 87.171875 194.703125 194.707031 194.703125 14.871094 0 29.347656-1.675781 43.265625-4.832031zm0 0" fill="#64d3ff"/><path d="m247.242188 344.066406h53.570312v-28.847656h-229.214844c-1.675781 0-3.328125-.082031-4.964844-.238281 2 9.992187 4.761719 19.710937 8.222657 29.085937zm0 0" fill="#34bfea"/><path d="m122.589844 226.109375c0-45.507813 15.617187-87.371094 41.78125-120.519531-60.492188 33.03125-101.53125 97.21875-101.53125 171 0 107.53125 87.171875 194.703125 194.707031 194.703125 14.871094 0 29.347656-1.675781 43.265625-4.832031v-46.347657c-99.816406-8.371093-178.222656-92.023437-178.222656-194.003906zm0 0" fill="#34bfea"/><path d="m217.367188 396.089844h-20.601563c9.671875 0 17.511719-7.839844 17.511719-17.511719 0-4.84375-1.957032-9.210937-5.128906-12.382813-3.175782-3.175781-7.542969-5.132812-12.382813-5.132812h-114.691406c13.308593 27.601562 32.949219 51.570312 57.023437 70.054688h78.269532c9.675781 0 17.515624-7.839844 17.515624-17.515626 0-4.839843-1.957031-9.207031-5.132812-12.382812-3.171875-3.171875-7.539062-5.128906-12.382812-5.128906zm0 0" fill="#8effa4"/><path d="m210.753906 389.082031c-12.300781-8.058593-23.636718-17.464843-33.789062-28.019531h-94.890625c13.308593 27.601562 32.949219 51.570312 57.023437 70.054688h78.269532c9.675781 0 17.515624-7.839844 17.515624-17.515626 0-4.839843-1.957031-9.207031-5.132812-12.382812-3.171875-3.171875-7.539062-5.128906-12.382812-5.128906h-20.601563c5.726563 0 10.792969-2.757813 13.988281-7.007813zm0 0" fill="#5ded75"/><path d="m68.410156 230.230469h124.234375c9.671875 0 17.511719-7.839844 17.511719-17.511719 0-4.84375-1.957031-9.210938-5.128906-12.382812-3.171875-3.175782-7.542969-5.132813-12.382813-5.132813h-25.753906c9.671875 0 17.511719-7.839844 17.511719-17.511719 0-4.84375-1.957032-9.210937-5.128906-12.382812-3.175782-3.171875-7.542969-5.128906-12.382813-5.128906h25.753906c9.671875 0 17.511719-7.839844 17.511719-17.515626 0-4.839843-1.957031-9.207031-5.128906-12.382812-3.171875-3.171875-7.542969-5.128906-12.382813-5.128906h-57.46875c-32.59375 26.371094-56.5 63.046875-66.765625 105.078125zm0 0" fill="#8effa4"/><path d="m135.164062 125.152344c-32.59375 26.371094-56.5 63.050781-66.765624 105.078125h54.242187c-.027344-1.371094-.050781-2.742188-.050781-4.121094 0-36.964844 10.304687-71.519531 28.191406-100.957031zm0 0" fill="#5ded75"/><path d="m452.25 276.589844c0-107.535156-87.171875-194.707032-194.703125-194.707032v389.410157c107.53125 0 194.703125-87.171875 194.703125-194.703125zm0 0" fill="#3fb9f3"/><path d="m421.34375 277.617188c0 8.40625-.628906 16.660156-1.84375 24.726562l-7.066406 28.84375c-22.230469 64.738281-83.640625 111.261719-155.917969 111.261719v-329.660157c91.035156 0 164.828125 73.792969 164.828125 164.828126zm0 0" fill="#dceeef"/><path d="m416.34375 315.21875h-159.828125v28.847656h150.871094c1.851562-4.207031 3.542969-8.5 5.046875-12.878906zm0 0" fill="#d4d4d6"/><path d="m256.515625 325.5625v70.828125c0 .847656 1.171875 1.070313 1.46875.273437 4.089844-10.910156 15.859375-42.320312 24.542969-65.476562v-3.886719zm0 0" fill="#1553c3"/><path d="m475.429688 275.558594 36.570312 43.265625-36.570312 41.207031v-28.84375h-394.558594c-22.335938 0-42.546875-9.054688-57.1875-23.683594-14.628906-14.636718-23.683594-34.851562-23.683594-57.183594 0-44.660156 36.210938-80.871093 80.871094-80.871093h13.730468c-6.089843 9.097656-11.433593 18.730469-15.9375 28.824219l-4.726562.484374c-25.414062 3.390626-45.09375 25.21875-45.09375 51.5625 0 22.414063 14.25 41.566407 34.164062 48.859376 5.570313 2.050781 11.585938 3.164062 17.863282 3.164062h394.558594zm0 0" fill="#fe6150"/><path d="m372.523438 271.757812-83.238282-28.195312-7.628906 5.195312 7.628906 52.273438 3.996094 1.3125h11.105469l68.125-22.996094c3.636719-1.222656 3.636719-6.363281.011719-7.589844zm0 0" fill="#de332a"/><path d="m256.515625 158.113281v94.925781l32.769531 18.140626v-27.617188c-7.125-19.519531-25.75-70.671875-31.230468-85.722656-.304688-.832032-1.539063-.613282-1.539063.273437zm0 0" fill="#1553c3"/><path d="m281.1875 240.820312c4.191406 2.824219 7.882812 6.335938 10.898438 10.382813v.011719c5.480468 7.375 8.726562 16.503906 8.726562 26.402344 0 9.160156-2.78125 17.667968-7.53125 24.726562h-36.765625v-69.023438c9.136719 0 17.625 2.761719 24.671875 7.5zm0 0" fill="#fec12c"/><path d="m394.042969 275.558594c0 4.265625 3.460937 7.726562 7.726562 7.726562h19.472657c.066406-1.882812.101562-3.769531.101562-5.667968 0-3.285157-.105469-6.546876-.296875-9.785157h-19.277344c-4.265625 0-7.726562 3.460938-7.726562 7.726563zm0 0" fill="#d4d4d6"/><path d="m303.902344 11.523438v21.222656c0 6.085937-4.933594 11.023437-11.023438 11.023437h-74.789062c-6.089844 0-11.023438-4.9375-11.023438-11.023437v-21.222656c0-6.089844 4.933594-11.023438 11.023438-11.023438h74.789062c6.089844 0 11.023438 4.933594 11.023438 11.023438zm0 0" fill="#8cc0c5"/><path d="m302.203125 30.375h-45.328125c-14.222656 0-25.753906-11.53125-25.753906-25.753906v-4.121094h-13.03125c-6.085938 0-11.023438 4.9375-11.023438 11.023438v21.222656c0 6.085937 4.9375 11.023437 11.023438 11.023437h74.789062c6.089844 0 11.023438-4.9375 11.023438-11.023437v-2.371094zm0 0" fill="#6f9d9e"/></svg>