<svg height="512pt" viewBox="0 0 512 512" width="512pt" xmlns="http://www.w3.org/2000/svg"><path d="m197.585938 436.605469c-3.792969 0-7.101563-2.800781-7.636719-6.667969l-21.207031-153.925781c-.582032-4.226563 2.371093-8.117188 6.59375-8.699219 4.214843-.578125 8.117187 2.367188 8.699218 6.589844l21.207032 153.929687c.582031 4.222657-2.371094 8.117188-6.59375 8.699219-.355469.050781-.710938.074219-1.0625.074219zm0 0" fill="#8cc0c5"/><path d="m314.929688 436.605469c-.351563 0-.707032-.023438-1.066407-.074219-4.222656-.578125-7.171875-4.476562-6.589843-8.699219l19.972656-144.96875c.582031-4.222656 4.472656-7.167969 8.699218-6.589843 4.222657.582031 7.175782 4.476562 6.59375 8.699218l-19.972656 144.96875c-.535156 3.863282-3.84375 6.664063-7.636718 6.664063zm0 0" fill="#8cc0c5"/><path d="m257.320312 436.605469c-4.261718 0-7.71875-3.457031-7.71875-7.71875v-110.3125c0-4.261719 3.457032-7.71875 7.71875-7.71875 4.261719 0 7.71875 3.457031 7.71875 7.71875v110.3125c0 4.261719-3.457031 7.71875-7.71875 7.71875zm0 0" fill="#8cc0c5"/><path d="m128.644531 291.761719c0 31.832031-25.804687 57.632812-57.632812 57.632812s-57.632813-25.800781-57.632813-57.632812c0-31.828125 25.804688-57.632813 57.632813-57.632813s57.632812 25.804688 57.632812 57.632813zm0 0" fill="#7ba9ad"/><path d="m64.320312 264.105469c0-10.960938 3.0625-21.207031 8.375-29.929688-.5625-.019531-1.121093-.046875-1.683593-.046875-31.832031 0-57.632813 25.800782-57.632813 57.632813s25.800782 57.632812 57.632813 57.632812c20.867187 0 39.144531-11.089843 49.257812-27.699219-31.050781-.890624-55.949219-26.320312-55.949219-57.589843zm0 0" fill="#3c88bc"/><path d="m365.890625 191.0625h-22.0625v47.574219l22.0625-.542969 142.660156-10.558594c1.65625-.121094 2.933594-1.5 2.933594-3.160156v-19.597656c0-1.65625-1.277344-3.035156-2.933594-3.160156zm0 0" fill="#8cc0c5"/><path d="m343.828125 191.0625v47.574219l22.0625-.542969 24.449219-1.808594c1.160156-7.0625 1.765625-14.3125 1.765625-21.707031 0-7.398437-.605469-14.644531-1.765625-21.707031l-24.449219-1.808594zm0 0" fill="#71a7aa"/><path d="m152.921875 190.515625-149.988281 11.101563c-1.652344.125-2.933594 1.503906-2.933594 3.160156v19.597656c0 1.660156 1.277344 3.039062 2.933594 3.160156l149.988281 11.101563h23.464844v-48.121094zm0 0" fill="#8cc0c5"/><path d="m79.121094 97.347656c-5.136719.296875-9.140625 4.546875-9.140625 9.683594s4.003906 9.386719 9.140625 9.683594l119.875 6.976562h38.664062v-16.042968l.976563-19.585938zm0 0" fill="#71a7aa"/><path d="m433.394531 97.347656-159.519531-9.285156.925781 18.515625v16.785156h44.390625l114.203125-6.648437c5.132813-.296875 9.136719-4.546875 9.136719-9.683594s-4.003906-9.386719-9.136719-9.683594zm0 0" fill="#71a7aa"/><path d="m273.875 88.0625-4.1875-84.121094c-.109375-2.207031-1.929688-3.941406-4.140625-3.941406h-18.578125c-2.210938 0-4.03125 1.734375-4.140625 3.941406l-4.1875 84.121094-.980469 19.585938v18.050781h37.144532v-19.121094zm0 0" fill="#8cc0c5"/><path d="m365.890625 191.0625c1.667969 7.574219 2.542969 15.4375 2.542969 23.515625s-.875 15.941406-2.542969 23.515625c-10.753906 48.945312-54.378906 85.574219-106.546875 85.574219-51.980469 0-95.472656-36.363281-106.421875-85.03125-1.75-7.738281-2.667969-15.796875-2.667969-24.058594 0-8.265625.917969-16.324219 2.667969-24.0625 6.246094-27.777344 23.09375-51.539063 46.074219-66.824219 11.535156-7.675781 24.605468-13.210937 38.664062-16.042968 7.007813-1.421876 14.253906-2.160157 21.683594-2.160157 5.25 0 10.414062.371094 15.457031 1.089844 16.222657 2.296875 31.289063 8.160156 44.390625 16.785156 23.378906 15.367188 40.503906 39.476563 46.699219 67.699219zm0 0" fill="#dceeef"/><path d="m176.386719 238.636719v-48.121094h-23.464844l-24.480469 1.8125c-1.222656 7.234375-1.855468 14.671875-1.855468 22.25s.632812 15.011719 1.855468 22.246094l24.480469 1.8125zm0 0" fill="#71a7aa"/><path d="m325.210938 292.34375c-51.984376 0-95.476563-36.359375-106.425782-85.03125-1.75-7.738281-2.664062-15.796875-2.664062-24.058594 0-8.265625.914062-16.324218 2.664062-24.0625 4.609375-20.496094 14.996094-38.804687 29.355469-53.132812-3.546875.359375-7.042969.890625-10.480469 1.589844-14.058594 2.828124-27.128906 8.367187-38.664062 16.042968-22.980469 15.285156-39.828125 39.046875-46.078125 66.824219-1.746094 7.738281-2.664063 15.796875-2.664063 24.058594 0 8.265625.917969 16.324219 2.664063 24.0625 10.953125 48.667969 54.445312 85.027343 106.425781 85.027343 30.09375 0 57.328125-12.203124 77.0625-31.914062-3.679688.378906-7.414062.59375-11.195312.59375zm0 0" fill="#ccdbdb"/><path d="m259.34375 297.421875c-33.585938 0-63.621094-20.042969-76.519531-51.066406-1.636719-3.933594.230469-8.453125 4.164062-10.089844 3.9375-1.632813 8.453125.226563 10.089844 4.164063 10.496094 25.246093 34.9375 41.554687 62.265625 41.554687s51.769531-16.308594 62.265625-41.554687c1.636719-3.9375 6.15625-5.796876 10.089844-4.164063 3.9375 1.636719 5.800781 6.152344 4.164062 10.089844-12.898437 31.023437-42.933593 51.066406-76.519531 51.066406zm0 0" fill="#b8d8d8"/><path d="m103.945312 291.761719c0 18.1875-14.746093 32.933593-32.933593 32.933593s-32.933594-14.746093-32.933594-32.933593 14.746094-32.929688 32.933594-32.929688 32.933593 14.742188 32.933593 32.929688zm0 0" fill="#8cc0c5"/><path d="m499.136719 291.761719c0 31.832031-25.804688 57.632812-57.632813 57.632812s-57.632812-25.800781-57.632812-57.632812c0-31.828125 25.804687-57.632813 57.632812-57.632813s57.632813 25.804688 57.632813 57.632813zm0 0" fill="#7ba9ad"/><path d="m434.8125 264.105469c0-10.960938 3.0625-21.207031 8.375-29.929688-.5625-.019531-1.117188-.046875-1.683594-.046875-31.832031 0-57.632812 25.800782-57.632812 57.632813s25.800781 57.632812 57.632812 57.632812c20.867188 0 39.144532-11.089843 49.257813-27.699219-31.050781-.890624-55.949219-26.320312-55.949219-57.589843zm0 0" fill="#3c88bc"/><path d="m474.4375 291.761719c0 18.1875-14.746094 32.933593-32.933594 32.933593s-32.933594-14.746093-32.933594-32.933593 14.746094-32.929688 32.933594-32.929688 32.933594 14.742188 32.933594 32.929688zm0 0" fill="#8cc0c5"/><path d="m416.804688 433.105469v76.535156c0 1.300781-1.058594 2.359375-2.363282 2.359375h-316.371094c-1.304687 0-2.359374-1.058594-2.359374-2.359375v-76.535156c0-7.011719 5.6875-12.699219 12.699218-12.699219h295.695313c7.011719 0 12.699219 5.6875 12.699219 12.699219zm0 0" fill="#de332a"/><path d="m391.074219 449.996094v62.003906h-269.636719v-62.003906c0-2.132813 1.730469-3.863282 3.863281-3.863282h261.914063c2.132812 0 3.859375 1.730469 3.859375 3.863282zm0 0" fill="#fe6150"/><g fill="#de332a"><path d="m362.257812 483.164062v28.835938h-22.640624v-28.835938c0-2.265624 1.832031-4.097656 4.097656-4.097656h14.449218c2.261719 0 4.09375 1.832032 4.09375 4.097656zm0 0"/><path d="m314.917969 483.164062v28.835938h-22.640625v-28.835938c0-2.265624 1.832031-4.097656 4.097656-4.097656h14.449219c2.261719 0 4.09375 1.832032 4.09375 4.097656zm0 0"/><path d="m267.578125 483.164062v28.835938h-22.640625v-28.835938c0-2.265624 1.832031-4.097656 4.09375-4.097656h14.449219c2.265625 0 4.097656 1.832032 4.097656 4.097656zm0 0"/><path d="m220.238281 483.164062v28.835938h-22.640625v-28.835938c0-2.265624 1.832032-4.097656 4.09375-4.097656h14.449219c2.265625 0 4.097656 1.832032 4.097656 4.097656zm0 0"/><path d="m172.894531 483.164062v28.835938h-22.640625v-28.835938c0-2.265624 1.832032-4.097656 4.097656-4.097656h14.449219c2.265625 0 4.09375 1.832032 4.09375 4.097656zm0 0"/></g><path d="m314.917969 167.503906v11.8125c0 9.808594-7.953125 17.765625-17.761719 17.765625h-79.738281c-9.808594 0-17.765625-7.957031-17.765625-17.765625v-11.8125c0-9.808594 7.957031-17.761718 17.765625-17.761718h79.738281c9.808594 0 17.761719 7.953124 17.761719 17.761718zm0 0" fill="#1adffd"/><path d="m297.15625 149.742188h-39.871094v47.339843h39.871094c9.808594 0 17.761719-7.957031 17.761719-17.765625v-11.8125c0-9.808594-7.953125-17.761718-17.761719-17.761718zm0 0" fill="#00c6db"/></svg>