<svg height="512pt" viewBox="0 0 512 512.00052" width="512pt" xmlns="http://www.w3.org/2000/svg"><g fill="#8effa4"><path d="m511.242188 259.097656-58.132813 44.984375c-1.28125.992188-3.144531.074219-3.144531-1.546875v-26.308594h-41.574219c-3.101563 0-5.621094-2.519531-5.621094-5.621093v-26.097657c0-3.105468 2.519531-5.621093 5.621094-5.621093h41.574219v-26.3125c0-1.621094 1.863281-2.535157 3.144531-1.542969l58.132813 44.980469c1.011718.78125 1.011718 2.304687 0 3.085937zm0 0"/><path d="m303.042969 453.109375-44.980469 58.132813c-.78125 1.011718-2.304688 1.011718-3.085938 0l-44.980468-58.132813c-.992188-1.28125-.078125-3.144531 1.542968-3.144531h26.308594v-41.570313c0-3.105469 2.519532-5.625 5.625-5.625h26.09375c3.105469 0 5.625 2.519531 5.625 5.625v41.570313h26.308594c1.621094 0 2.535156 1.863281 1.542969 3.144531zm0 0"/><path d="m109.230469 244.507812v26.097657c0 3.101562-2.519531 5.621093-5.621094 5.621093h-41.574219v26.308594c0 1.621094-1.863281 2.535156-3.144531 1.546875l-58.132813-44.984375c-1.011718-.78125-1.011718-2.304687 0-3.085937l58.132813-44.980469c1.28125-.992188 3.144531-.078125 3.144531 1.542969v26.3125h41.574219c3.105469 0 5.621094 2.515625 5.621094 5.621093zm0 0"/><path d="m258.0625.757812 44.980469 58.132813c.992187 1.28125.078125 3.144531-1.542969 3.144531h-26.3125v41.570313c0 3.105469-2.515625 5.625-5.621094 5.625h-26.097656c-3.101562 0-5.621094-2.519531-5.621094-5.625v-41.570313h-26.308594c-1.621093 0-2.535156-1.863281-1.546874-3.144531l44.984374-58.132813c.78125-1.011718 2.304688-1.011718 3.085938 0zm0 0"/></g><path d="m375.800781 146.808594v219.417968c0 5.292969-4.28125 9.574219-9.574219 9.574219h-219.417968c-5.289063 0-9.574219-4.28125-9.574219-9.574219v-219.417968c0-5.289063 4.285156-9.574219 9.574219-9.574219h219.417968c5.292969 0 9.574219 4.285156 9.574219 9.574219zm0 0" fill="#fc992d"/><path d="m375.800781 327.882812c-103.113281 0-186.703125-83.589843-186.703125-186.703124v-3.945313h-42.289062c-5.289063 0-9.574219 4.285156-9.574219 9.574219v219.417968c0 5.289063 4.285156 9.574219 9.574219 9.574219h219.417968c5.289063 0 9.574219-4.285156 9.574219-9.574219zm0 0" fill="#ef861d"/><path d="m286.597656 137.234375v59.289063c0 2.335937-2.425781 3.871093-4.53125 2.863281l-26.066406-12.363281-24.988281 12.269531c-2.105469 1.039062-4.574219-.496094-4.574219-2.851563v-59.207031zm0 0" fill="#fec12c"/><path d="m339.5 234.476562v44.082032c0 4.441406-3.601562 8.039062-8.039062 8.039062h-149.882813c-4.441406 0-8.039063-3.597656-8.039063-8.039062v-44.082032c0-4.4375 3.597657-8.039062 8.039063-8.039062h149.882813c4.4375 0 8.039062 3.601562 8.039062 8.039062zm0 0" fill="#ffe8c2"/><path d="m240.792969 273.984375c-26.257813 0-47.546875-21.289063-47.546875-47.546875h-11.667969c-4.4375 0-8.039063 3.601562-8.039063 8.039062v44.085938c0 4.4375 3.601563 8.035156 8.039063 8.035156h149.882813c4.4375 0 8.039062-3.597656 8.039062-8.035156v-4.578125zm0 0" fill="#f2d9b6"/><path d="m268.445312 312.125v10.433594c0 6.585937-5.339843 11.929687-11.925781 11.929687-6.585937 0-11.929687-5.34375-11.929687-11.929687v-10.433594c0-1.234375.996094-2.242188 2.230468-2.242188h19.398438c1.234375 0 2.226562 1.007813 2.226562 2.242188zm0 0" fill="#de332a"/><path d="m266.21875 302.105469h-19.398438c-5.519531 0-10.007812 4.496093-10.007812 10.019531v10.433594c0 8.105468 4.917969 15.078125 11.925781 18.101562v5.109375h-2.65625c-4.296875 0-7.78125 3.484375-7.78125 7.78125s3.484375 7.777344 7.78125 7.777344h22.363281c4.296876 0 7.78125-3.480469 7.78125-7.777344s-3.484374-7.78125-7.78125-7.78125h-4.148437v-5.109375c7.007813-3.023437 11.929687-9.996094 11.929687-18.101562v-10.433594c0-5.523438-4.492187-10.019531-10.007812-10.019531zm-13.847656 15.558593h8.296875v4.894532c0 2.289062-1.859375 4.148437-4.148438 4.148437-2.289062 0-4.148437-1.859375-4.148437-4.148437zm0 0" fill="#de332a"/><path d="m195.117188 306.511719c-3.039063-3.039063-7.964844-3.039063-11 0l-14.003907 14c-3.039062 3.039062-3.039062 7.964843 0 11.003906 1.519531 1.515625 3.507813 2.277344 5.5 2.277344 1.992188 0 3.980469-.757813 5.5-2.277344l.203125-.207031v14.460937h-3.695312c-4.296875 0-7.777344 3.484375-7.777344 7.777344 0 4.296875 3.480469 7.78125 7.777344 7.78125h22.367187c4.296875 0 7.78125-3.484375 7.78125-7.78125 0-4.292969-3.484375-7.777344-7.78125-7.777344h-3.113281v-15.496093l.207031.203124c3.039063 3.039063 7.964844 3.039063 11 0 3.039063-3.039062 3.039063-7.964843 0-11zm0 0" fill="#de332a"/><path d="m335.414062 345.769531h-3.695312v-14.457031l.207031.203125c1.515625 1.519531 3.507813 2.277344 5.5 2.277344 1.988281 0 3.980469-.757813 5.5-2.277344 3.039063-3.039063 3.039063-7.964844 0-11l-14.003906-14.003906c-3.039063-3.039063-7.964844-3.039063-11 0l-12.964844 12.964843c-3.039062 3.039063-3.039062 7.964844 0 11 3.035157 3.039063 7.964844 3.039063 11 0l.203125-.203124v15.496093h-3.109375c-4.296875 0-7.78125 3.484375-7.78125 7.78125s3.484375 7.777344 7.78125 7.777344h22.363281c4.296876 0 7.78125-3.480469 7.78125-7.777344s-3.484374-7.78125-7.78125-7.78125zm0 0" fill="#de332a"/></svg>