<svg height="512" viewBox="0 0 60 58" width="512" xmlns="http://www.w3.org/2000/svg"><g id="Page-1" fill="none" fill-rule="evenodd"><g id="002---Rear-View-Mirror" fill-rule="nonzero"><path id="Shape" d="m40.461 1.876c-5.3136624 3.17363321-8.536927 8.9352044-8.461 15.124h-4c.075927-6.1887956-3.1473376-11.95036679-8.461-15.124-.3888132-.22759907-.577422-.68709361-.4606397-1.12222455.1167823-.43513095.510116-.73844126.9606397-.74077545h19.92c.4508932.0014407.8450524.30445002.9623655.73981697.117313.43536695-.0712404.8953928-.4603655 1.12318303z" fill="#3f5c6c"/><rect id="Rectangle-path" fill="#b0d3f0" height="24" rx="4" width="58" x="1" y="22"/><path id="Shape" d="m40.47 22c-8.16 4.47-19.5 12.61-21.24 24h-14.23c-2.209139 0-4-1.790861-4-4v-16c0-2.209139 1.790861-4 4-4z" fill="#90bae1"/><path id="Shape" d="m25 16h10c1.6568542 0 3 1.3431458 3 3v4h-16v-4c0-1.6568542 1.3431458-3 3-3z" fill="#547580"/><path id="Shape" d="m55 47h-50c-2.76005315-.0033061-4.99669388-2.2399468-5-5v-16c.00330612-2.7600532 2.23994685-4.9966939 5-5h50c2.7600532.0033061 4.9966939 2.2399468 5 5v16c-.0033061 2.7600532-2.2399468 4.9966939-5 5zm-50-24c-1.65685425 0-3 1.3431458-3 3v16c0 1.6568542 1.34314575 3 3 3h50c1.6568542 0 3-1.3431458 3-3v-16c0-1.6568542-1.3431458-3-3-3z" fill="#3f5c6c"/><path id="Shape" d="m57 40h-5c-1.1045695 0-2 .8954305-2 2v-1.045c.0036623-.5650717-.23563-1.1044808-.657-1.481-3.028683-2.8642515-4.8824314-6.7535583-5.2-10.91-.131252-1.3518527-1.1994593-2.4225725-2.551-2.557-.7678014-.0555488-1.5242462.2098768-2.089.733-.5187521.4723137-.8311925 1.1295159-.87 1.83-.1605801 2.9534724.4189528 5.9002904 1.686 8.573.2935361.6189512.2498703 1.3450747-.1157241 1.9243887s-1.0022489.9312133-1.6872759.9326113h-4.516c-2.209139 0-4 1.790861-4 4v7.528c-.0001379 1.5151607.8558266 2.9003444 2.211 3.578l5.156 2.577c.416172.2087713.8753987.3173283 1.341.317h8.292c1.6568542 0 3-1.3431458 3-3v1c0 1.1045695.8954305 2 2 2h5c1.1045695 0 2-.8954305 2-2v-14c0-1.1045695-.8954305-2-2-2z" fill="#3b97d3"/><rect id="Rectangle-path" fill="#2980ba" height="18" rx="2" width="9" x="50" y="40"/><g fill="#fff"><circle id="Oval" cx="55" cy="54" r="1"/><circle id="Oval" cx="55" cy="50" r="1"/></g></g></g></svg>