<svg height="512" viewBox="0 0 55 58" width="512" xmlns="http://www.w3.org/2000/svg"><g id="Page-1" fill="none" fill-rule="evenodd"><g id="004---Manual-Gearbox" fill-rule="nonzero" transform="translate(-1)"><path id="Shape" d="m35.057 40h3.27c.8624821-.0007833 1.6283184.5514249 1.9 1.37l4.67 14c.2023.6095275.0995872 1.2791247-.2761095 1.7999904s-.9786686.8296297-1.6208905.8300096h-40c-.64275086.0005839-1.24661579-.3077803-1.62301283-.828793-.37639703-.5210128-.47945404-1.1911774-.27698717-1.801207l4.67-14c.27133388-.8175266 1.03562227-1.3694903 1.897-1.37z" fill="#56595e"/><path id="Shape" d="m27 12.74v6.26c-.0032948 1.1032019-.8967981 1.9967052-2 2h-4c-1.1032019-.0032948-1.9967052-.8967981-2-2v-6.26" fill="#285680"/><path id="Shape" d="m31.727 38.08c1.9714397.5456421 3.6415303 1.8594514 4.636 3.647.5702809 1.1203066.3578348 2.4800418-.527 3.373-1.59 1.636-5.175 3.9-12.836 3.9s-11.249-2.264-12.839-3.9c-.88458742-.8930185-1.09737836-2.2523818-.528-3.373.9947881-1.7876838 2.6652395-3.1014937 4.637-3.647z" fill="#2c2f38"/><path id="Shape" d="m23 54c-14.068 0-15.771-3.963-15.97-4.757-.12972141-.5339666.19570268-1.072566.72872921-1.2060974.53302654-.1335314 1.07393623.1880381 1.21127079.7200974.004 0 1.463 3.243 14.03 3.243 12.442 0 14.022-3.21 14.03-3.243.0847423-.348821.3499483-.6254598.6948844-.7248402.344936-.0993804.7166761-.0062538.9740215.2440075.2573454.2502612.3608098.6192576.2710941.9668327-.201.794-1.905 4.757-15.97 4.757z" fill="#2c2f38"/><path id="Shape" d="m52 3c-.5522847 0-1 .44771525-1 1v4h-6v-4c0-.55228475-.4477153-1-1-1s-1 .44771525-1 1v4h-6v-4c0-.55228475-.4477153-1-1-1s-1 .44771525-1 1v10c0 .5522847.4477153 1 1 1s1-.4477153 1-1v-4h6v4c0 .5522847.4477153 1 1 1s1-.4477153 1-1v-4h7c.5522847 0 1-.44771525 1-1v-5c0-.55228475-.4477153-1-1-1z" fill="#285680"/><path id="Shape" d="m56 15c0-1.6568542-1.3431458-3-3-3h-3c-.5522847 0-1 .4477153-1 1v7c0 .5522847.4477153 1 1 1s1-.4477153 1-1v-2h1.725c.7273142.4171875 1.2037653 1.1645618 1.275 2 0 .5522847.4477153 1 1 1s1-.4477153 1-1c-.0068982-1.008457-.389883-1.9780432-1.074-2.719.6776213-.5641589 1.0708333-1.3992767 1.074-2.281zm-5-1h2c.5522847 0 1 .4477153 1 1s-.4477153 1-1 1h-2z" fill="#4482c3"/><path id="Shape" d="m19.586 33.345c-1.874.594-5.009 2.1-5.518 5.639-.0945152.6850236.1791279 1.3691313.72 1.8 1.117.893 3.56 2.216 8.212 2.216s7.092-1.323 8.209-2.212c.5405388-.4311164.814103-1.1150269.72-1.8-.51-3.536-3.644-5.045-5.518-5.639-.8393648-.258664-1.4117452-1.0346836-1.411-1.913v-10.436h-4v10.436c-.0014155.8776572-.5748596 1.6518473-1.414 1.909z" fill="#464f5d"/><g fill="#4482c3"><circle id="Oval" cx="22.997" cy="7" r="7"/><circle id="Oval" cx="36" cy="2" r="2"/><circle id="Oval" cx="36" cy="16" r="2"/><circle id="Oval" cx="44" cy="2" r="2"/><circle id="Oval" cx="44" cy="16" r="2"/><circle id="Oval" cx="52" cy="2" r="2"/></g></g></g></svg>