<svg height="512" viewBox="0 0 58 50" width="512" xmlns="http://www.w3.org/2000/svg"><g id="Page-1" fill="none" fill-rule="evenodd"><g id="010---Pass-Test" fill-rule="nonzero"><rect id="Rectangle-path" fill="#b0d3f0" height="42" rx="4" width="58" y="4"/><path id="Shape" d="m21.35 36.86c-.0507374 2.3660968-1.9833593 4.2577208-4.35 4.2577208s-4.2992626-1.891624-4.35-4.2577208c1.7450133-1.301204 2.3306837-3.6522523 1.4-5.62h5.9c-.9306837 1.9677477-.3450133 4.318796 1.4 5.62z" fill="#f9c795"/><path id="Shape" d="m30 42h-26c.4463689-2.9776628 3.01922371-5.1707762 6.03-5.14h2.62c.0507374 2.3660968 1.9833593 4.2577208 4.35 4.2577208s4.2992626-1.891624 4.35-4.2577208h2.62c3.0107763-.0307762 5.5836311 2.1623372 6.03 5.14z" fill="#2980ba"/><path id="Shape" d="m34.276 43c-.4877251.0000266-.9043255-.3517949-.9859506-.8326411s.1955381-.9504362.6559506-1.1113589c.8753212-.2495859 1.704165-.6400274 2.454-1.156.5880946-.4212934.9425384-1.0957005.956-1.819-.037999-.4833831.2762511-.9243788.745557-1.0462604.4693059-.1218817.9584292.1104729 1.160443.5512604.448366.9730695 1.2281552 1.7549855 2.2 2.206.3598814.1925986.7738934.2591363 1.176.189.216-.066.389-.279.379-.408-.039688-.4814179.2704258-.9223882.7369008-1.0478454.4664749-.1254572.955948.1004662 1.1630992.5368454.2.433.792.742 1.752.919l.963.183c1.7375991.4124061 3.5192647.6098839 5.305.588.5522847-.0320325 1.0259675.3897153 1.058.942s-.3897153 1.0259675-.942 1.058c-1.9515361.0327814-3.8996409-.1758002-5.8-.621l-.948-.18c-.7054701-.1124834-1.3837498-.3556467-2-.717-.3029803.3098677-.6792675.5382541-1.094.664-.8641354.2276734-1.7819275.1279521-2.577-.28-.7160532-.326064-1.3656403-.7817242-1.916-1.344-.2915213.455294-.6572484.8585402-1.082 1.193-.9218334.663502-1.9498347 1.1653289-3.04 1.484-.1032973.0336051-.21138.0501553-.32.049z" fill="#3f5c6c"/><path id="Shape" d="m25.707 20.734c.9269733-.0259783 1.7948693.4537153 2.2660178 1.2524477.4711486.7987324.4711486 1.7903722 0 2.5891046-.4711485.7987324-1.3390445 1.278426-2.2660178 1.2524477-.1636833.0003322-.3269368-.0167642-.487-.051-1.1475162 3.5709105-4.4692407 5.9924936-8.22 5.9924936s-7.07248383-2.4215831-8.22-5.9924936c-.16006323.0342358-.3233167.0513322-.487.051-.92697333.0259783-1.79486926-.4537153-2.26601784-1.2524477-.47114857-.7987324-.47114857-1.7903722 0-2.5891046.47114858-.7987324 1.33904451-1.278426 2.26601784-1.2524477v-3.523h17.381z" fill="#fdd7ad"/><path id="Shape" d="m25.707 20.734s2.612-6.791-1.741-9.338c-3.77-2.2-12.762.681-16.8-1.812-.31700662-.18850567-.71232699-.18599034-1.02690921.00653398-.31458222.19252431-.49670389.54340352-.47309079.91146602.164 2.645.993 6.587 4.373 7.685 0 0 2.53 1.191 7.879-.4 5.972-1.787 7.789 2.947 7.789 2.947z" fill="#a56a43"/><path id="Shape" d="m54 30h-10c-.5522847 0-1-.4477153-1-1s.4477153-1 1-1h10c.5522847 0 1 .4477153 1 1s-.4477153 1-1 1z" fill="#3f5c6c"/><path id="Shape" d="m54 35h-14c-.5522847 0-1-.4477153-1-1s.4477153-1 1-1h14c.5522847 0 1 .4477153 1 1s-.4477153 1-1 1z" fill="#3f5c6c"/><rect id="Rectangle-path" fill="#fff" height="20" rx="2" transform="matrix(.707 -.707 .707 .707 -9.184 27.829)" width="50" x="4" y="15"/><g fill="#285680"><path id="Shape" d="m18.394 49.92c-.7966723.0023556-1.5611627-.3141715-2.123-.879l-11.313-11.313c-1.17114581-1.1714996-1.17114581-3.0705004 0-4.242l32.527-32.528c1.1875253-1.13371842 3.0564747-1.13371842 4.244 0l11.313 11.314c1.1711458 1.1714996 1.1711458 3.0705004 0 4.242l-32.527 32.528c-.5616402.5637796-1.3252088.8798631-2.121.878zm21.212-47.84c-.2651948.00005664-.5195073.10545063-.707.293l-32.527 32.527c-.18777704.1875683-.29328666.4420908-.29328666.7075s.10550962.5199317.29328666.7075l11.315 11.312c.3952754.3786748 1.0187246.3786748 1.414 0l32.527-32.527c.187777-.1875683.2932867-.4420908.2932867-.7075s-.1055097-.5199317-.2932867-.7075l-11.315-11.312c-.186926-.18839554-.4416072-.29394237-.707-.293z"/><path id="Shape" d="m16.979 38.435 2.121-2.122c1.5618612-1.5624136 1.5614135-4.0951387-.0010001-5.6569999-1.5624135-1.5618613-4.0951386-1.5614136-5.6569999.0009999l-2.828 2.828c-.3903819.3904999-.3903819 1.0235001 0 1.414l4.243 4.243 4.243 4.243c.3923789.3789722 1.0160848.3735524 1.4018186-.0121814s.3911536-1.0094397.0121814-1.4018186zm-2.122-6.364c.7809306-.7814829 2.0475171-.7819306 2.829-.001.7814829.7809307.7819306 2.0475171.001 2.829l-2.122 2.122-2.829-2.829z"/><path id="Shape" d="m29.708 25.708-2.474-2.475c-1.7581985-1.7579224-4.6085776-1.7576985-6.3665.0005s-1.7576985 4.6085776.0005 6.3665l2.474 2.474 3.536 3.535c.3923789.3789722 1.0160848.3735524 1.4018186-.0121814s.3911536-1.0094397.0121814-1.4018186l-2.829-2.828 3.537-3.539 2.828 2.829c.3923789.3789722 1.0160848.3735524 1.4018186-.0121814s.3911536-1.0094397.0121814-1.4018186zm-5.658 4.242-1.768-1.768c-.9764394-.9764394-.9764394-2.5595606 0-3.536s2.5595606-.9764394 3.536 0l1.768 1.768z"/><path id="Shape" d="m32.535 20.05c-.7915755.7547943-2.0364245.7547943-2.828 0-.7807639-.7809997-.7807639-2.0470003 0-2.828.7915755-.7547943 2.0364245-.7547943 2.828 0 .3923789.3789722 1.0160848.3735524 1.4018186-.0121814s.3911536-1.0094397.0121814-1.4018186c-1.1438969-1.1442425-2.864463-1.4866869-4.3593089-.8676337s-2.4695453 2.0776748-2.4695453 3.6956337.9746994 3.0765805 2.4695453 3.6956337 3.215412.2766088 4.3593089-.8676337c.7811322-.7808158 2.0473148-.7806448 2.8282361.0003819.7809213.7810268.7809213 2.0472094 0 2.8282362-.7809213.7810267-2.0471039.7811977-2.8282361.0003819-.3923789-.3789722-1.0160848-.3735524-1.4018186.0121814s-.3911536 1.0094397-.0121814 1.4018186c1.5621184 1.5620379 4.0947409 1.5619944 5.6568057-.0000972 1.5620647-1.5620916 1.5620647-4.094714 0-5.6568056-1.5620648-1.5620916-4.0946873-1.5621351-5.6568057-.0000972z"/><path id="Shape" d="m45.264 12.979c-1.5638243-1.559004-4.0941757-1.559004-5.658 0-.7915755.7547943-2.0364245.7547943-2.828 0-.7807639-.7809997-.7807639-2.0470003 0-2.828.791167-.75581397 2.036833-.75581397 2.828 0 .2525868.2527654.6208353.3515768.96603.259213.3451946-.0923639.6148921-.3618707.7075-.70700002.0926079-.34512927-.0059432-.71344758-.25853-.96621298-1.5621184-1.56203795-4.0947409-1.56199444-5.6568057.00009717-1.5620647 1.56209163-1.5620647 4.09471403 0 5.65680563 1.5620648 1.5620916 4.0946873 1.5621351 5.6568057.0000972.5719485-.5721212 1.4322315-.7433434 2.1796544-.4338168.747423.3095266 1.2347727 1.0388373 1.2347727 1.8478168s-.4873497 1.5382902-1.2347727 1.8478168c-.7474229.3095266-1.6077059.1383044-2.1796544-.4338168-.3904653-.3907415-1.0237585-.3909653-1.4145-.0005s-.3909653 1.0237585-.0005 1.4145c1.5621374 1.5624135 4.0950864 1.5626373 5.6574999.0004999 1.5624136-1.5621374 1.5626374-4.0950863.0005001-5.6574999z"/></g></g></g></svg>