<svg height="512" viewBox="0 0 53 58" width="512" xmlns="http://www.w3.org/2000/svg"><g id="Page-1" fill="none" fill-rule="evenodd"><g id="013---Learner-Plates" fill-rule="nonzero"><rect id="Rectangle-path" fill="#547580" height="46" rx="2" transform="matrix(.985 -.174 .174 .985 -5.095 5.113)" width="46" x="3.672" y="8.672"/><rect id="Rectangle-path" fill="#ecf0f1" height="38" rx="1" transform="matrix(.174 .985 -.985 .174 53.231 -.095)" width="38" x="7.672" y="12.672"/><path id="Shape" d="m24.933 39.087-3.473-19.7c-.0458634-.2612479-.1936387-.4935726-.410811-.6458558-.2171722-.1522831-.4859481-.2120479-.747189-.1661442l-3.939.7c-.2612479.0458634-.4935726.1936387-.6458558.410811-.1522831.2171722-.2120479.4859481-.1661442.747189l4.515 25.605c.0458528.2614536.1937748.4939494.4111732.6462596s.4864336.2119363.7478268.1657404l1.969-.348 2.955-.521 12.8-2.257c.2612699-.0460858.4935181-.1941055.6456218-.4114769s.2115949-.4862764.1653782-.7475231l-.694-3.939c-.0460858-.2612699-.1941055-.4935181-.4114769-.6456218s-.4862764-.2115949-.7475231-.1653782l-11.815 2.085c-.2615398.0461753-.5307054-.0135857-.7481309-.1661025s-.3652497-.3852602-.4108691-.6468975z" fill="#c03a2b"/><path id="Shape" d="m39 16.41c-.2364633.0001852-.465342-.0834299-.646-.236l-15-12.69c-.4216694-.35677595-.4742759-.98783059-.1175-1.4095s.9878306-.47427595 1.4095-.1175l15 12.689c.3208499.2709652.4382137.7135308.293798 1.1078795-.1444157.3943488-.5198376.6564498-.939798.6561205z" fill="#35495e"/><path id="Shape" d="m10 21c-.36567542-.0003738-.70198698-.2003141-.87700393-.5213869s-.16082677-.7120718.03700393-1.0196131l11-17.129c.1888563-.31000632.5308773-.4933247.893595-.47895406.3627176.01437064.6891635.22417326.8529018.54814915.1637383.3239759.1390523.7112415-.0644968 1.01180491l-11 17.13c-.184215.2863755-.5014916.4593327-.842.459z" fill="#35495e"/><circle id="Oval" cx="22.5" cy="2.5" fill="#547580" r="2.5"/></g></g></svg>