<svg height="512" viewBox="0 0 53 58" width="512" xmlns="http://www.w3.org/2000/svg"><g id="Page-1" fill="none" fill-rule="evenodd"><g id="014---Probationary-Plates" fill-rule="nonzero"><rect id="Rectangle-path" fill="#547580" height="46" rx="2" transform="matrix(.985 -.174 .174 .985 -5.095 5.113)" width="46" x="3.672" y="8.672"/><rect id="Rectangle-path" fill="#ecf0f1" height="38" rx="1" transform="matrix(.174 .985 -.985 .174 53.231 -.095)" width="38" x="7.672" y="12.672"/><path id="Shape" d="m39 16.41c-.2364633.0001852-.465342-.0834299-.646-.236l-15-12.69c-.4216694-.35677595-.4742759-.98783059-.1175-1.4095s.9878306-.47427595 1.4095-.1175l15 12.689c.3208499.2709652.4382137.7135308.293798 1.1078795-.1444157.3943488-.5198376.6564498-.939798.6561205z" fill="#35495e"/><path id="Shape" d="m10 21c-.36567542-.0003738-.70198698-.2003141-.87700393-.5213869s-.16082677-.7120718.03700393-1.0196131l11-17.129c.1888563-.31000632.5308773-.4933247.893595-.47895406.3627176.01437064.6891635.22417326.8529018.54814915.1637383.3239759.1390523.7112415-.0644968 1.01180491l-11 17.13c-.184215.2863755-.5014916.4593327-.842.459z" fill="#35495e"/><circle id="Oval" cx="22.5" cy="2.5" fill="#547580" r="2.5"/><path id="Shape" d="m30.5 18.813-12.8 2.257c-.5225177.0919492-.9870906.3877443-1.2914775.8222879-.3043868.4345436-.4236427.9722245-.3315225 1.4947121l3.821 21.666c.1919585 1.0876996 1.2292853 1.8138732 2.317 1.622l1.969-.347c1.0852614-.1948359 1.8081147-1.2312536 1.616-2.317l-1.215-6.894c-.0921202-.5224876.0271357-1.0601685.3315225-1.4947121.3043869-.4345436.7689598-.7303387 1.2914775-.8222879l6.892-1.215c1.3061216-.2302172 2.4672682-.9699248 3.227939-2.0563563s1.058539-2.4305681.828061-3.7366437l-.869-4.924c-.4799815-2.7167088-3.0696447-4.5313078-5.787-4.055zm1.563 8.863c.0956296.5436818-.2673812 1.0620129-.811 1.158l-7.882 1.389-.87-4.923 7.879-1.389c.5436818-.0956296 1.0620129.2673812 1.158.811z" fill="#24ae5f"/></g></g></svg>