<svg height="512" viewBox="0 0 58 58" width="512" xmlns="http://www.w3.org/2000/svg"><g id="Page-1" fill="none" fill-rule="evenodd"><g id="017---Roundabout" fill-rule="nonzero"><circle id="Oval" cx="29" cy="29" fill="#24ae5f" r="22"/><path id="Shape" d="m58 23v12c-.0032948 1.1032019-.8967981 1.9967052-2 2h-9.7c-.1007451.0000726-.2012355.0101217-.3.03-.5895636.0797825-1.1095993.426473-1.41.94-1.5829131 2.7528811-3.8671189 5.0370869-6.62 6.62-.513527.3004007-.8602175.8204364-.94 1.41-.0198783.0987645-.0299274.1992549-.03.3v9.7c-.0032948 1.1032019-.8967981 1.9967052-2 2h-12c-1.1032019-.0032948-1.9967052-.8967981-2-2v-9.7c-.0000726-.1007451-.0101217-.2012355-.03-.3-.0797825-.5895636-.426473-1.1095993-.94-1.41-2.7528811-1.5829131-5.0370869-3.8671189-6.62-6.62-.3004007-.513527-.8204364-.8602175-1.41-.94-.0987645-.0198783-.1992549-.0299274-.3-.03h-9.7c-1.10320187-.0032948-1.9967052-.8967981-2-2v-12c.0032948-1.1032019.89679813-1.9967052 2-2h9.7c.1007451-.0000726.2012355-.0101217.3-.03.5895636-.0797825 1.1095993-.426473 1.41-.94 1.5829131-2.7528811 3.8671189-5.0370869 6.62-6.62.513527-.3004007.8602175-.8204364.94-1.41.0198783-.0987645.0299274-.1992549.03-.3v-9.7c.0032948-1.10320187.8967981-1.9967052 2-2h12c1.1032019.0032948 1.9967052.89679813 2 2v9.7c.0000726.1007451.0101217.2012355.03.3.0797825.5895636.426473 1.1095993.94 1.41 2.7528811 1.5829131 5.0370869 3.8671189 6.62 6.62.3004007.513527.8204364.8602175 1.41.94.0987645.0198783.1992549.0299274.3.03h9.7c1.1032019.0032948 1.9967052.8967981 2 2z" fill="#3f5c6c"/><circle id="Oval" cx="29" cy="29" fill="#24ae5f" r="3"/><path id="Shape" d="m29.041 40h-.041c-.7197648.0002631-1.4378365-.0697355-2.144-.209-.3504775-.0694882-.6372607-.3206754-.7523209-.6589419-.1150603-.3382666-.0409173-.7122217.1945-.981.2354173-.2687784.5963434-.3915463.9468209-.3220581.5780852.1136771 1.1658438.1709459 1.755.171.5564377-.0017267 1.0111639.4436466 1.021 1 .0045522.2631213-.096588.5170812-.2807817.7050339-.1841937.1879528-.4360587.2942023-.6992183.2949661zm5.545-1.709c-.4397939.0003306-.8281814-.2867122-.9569368-.7072367-.1287555-.4205244.0323474-.8758093.3969368-1.1217633.4883794-.3296721.943226-.7064781 1.358-1.125.3890846-.3921222 1.0223778-.3945846 1.4145-.0055s.3945846 1.0223778.0055 1.4145c-.5070529.5112013-1.0630509.9714069-1.66 1.374-.1646458.1116621-.3590613.171241-.558.171zm-12.649-1.22c-.2655413.0002088-.5202623-.1052054-.708-.293-.50765-.5087548-.9654066-1.0649609-1.367-1.661-.3066017-.4580764-.1847076-1.0778764.2725274-1.3857314.457235-.3078551 1.0773665-.1876588 1.3864726.2687314.329737.4896192.7058018.9463889 1.123 1.364.2859079.2859943.3714219.7160366.216678 1.0896546-.1547439.3736179-.5192821.6172591-.923678.6173454zm16.879-5.152c-.0644727.0000698-.1287915-.006295-.192-.019-.5416003-.1057747-.8951475-.6302776-.79-1.172.1104182-.569373.1660057-1.1480191.166-1.728-.0011419-.5552055.444839-1.0078761 1-1.015.2635743-.0037433.517673.0982087.705564.2830935s.2939279.4373061.294436.7009065v.031c.0012187.7081227-.0657571 1.4147173-.2 2.11-.0915927.4707221-.5044511.8101554-.984.809zm-19.816-1.914c-.550338.0000069-.9972483-.4446689-1-.995v-.01c-.0006263-.7160445.068703-1.4304375.207-2.133.0691309-.3506562.3200833-.637795.6583259-.7532539.3382426-.115459.7123883-.0416972.9815.1935s.392305.5960977.3231741.9467539c-.1133878.5750756-.1703248 1.1598528-.17 1.746.0013304.2660817-.1034388.5217221-.2911196.7103412-.1876807.1886192-.4427953.2946621-.7088804.2946588zm18.3-5.581c-.3322722.0001686-.6429276-.1647149-.829-.44-.3308115-.4887321-.7078824-.944499-1.126-1.361-.2531227-.2522295-.3524548-.6203385-.260579-.9656639.0918758-.3453255.3610015-.6154041.706-.7085001.3449985-.0930959.7134563.0049345.966579.257164.5093719.5069143.9682012 1.0621983 1.37 1.658.2070175.3062713.2281825.7017672.0550342 1.0283832-.1731484.326616-.5123613.5310653-.8820342.5316168zm-15.378-1.481c-.4038831-.0000837-.7680662-.2431133-.9231418-.6160384s-.0705958-.8025247.2141418-1.0889616c.5086126-.5100889 1.0655599-.9695788 1.663-1.372.2967091-.1991756.6771385-.224929.9979841-.0675592s.5333634.4739547.5575.8305c.0241366.3565454-.143775.6988836-.4404841.8980592-.4889621.3285879-.9444806.7043906-1.36 1.122-.1878183.1884069-.4429684.2942096-.709.294zm9.009-2.756c-.0651311-.0000005-.1301064-.0063641-.194-.019-.5722811-.1115163-1.153955-.1677749-1.737-.168-.5543733.0011174-1.0056013-.445643-1.01-1 .0049505-.2779406.1231261-.54182.3271874-.7305909s.4763282-.2860778.7538126-.2694091c.6884402.0019133 1.3751594.0688776 2.051.2.5042045.0997021.8507249.5653802.8013989 1.0769754-.0493259.5115952-.4784336.9024903-.9923989.9040246z" fill="#fff"/><path id="Shape" d="m37.03 46c-.0198783.0987645-.0299274.1992549-.03.3v1.7h-16v-1.7c-.0000726-.1007451-.0101217-.2012355-.03-.3z" fill="#bdc3c7"/><path id="Shape" d="m29 53c-.5522847 0-1-.4477153-1-1v-1c0-.5522847.4477153-1 1-1s1 .4477153 1 1v1c0 .5522847-.4477153 1-1 1z" fill="#fff"/><path id="Shape" d="m30 56v2h-2v-2c0-.5522847.4477153-1 1-1s1 .4477153 1 1z" fill="#fff"/><path id="Shape" d="m37.03 12h-16.06c.0198783-.0987645.0299274-.1992549.03-.3v-1.7h16v1.7c.0000726.1007451.0101217.2012355.03.3z" fill="#bdc3c7"/><path id="Shape" d="m29 8c-.5522847 0-1-.44771525-1-1v-1c0-.55228475.4477153-1 1-1s1 .44771525 1 1v1c0 .55228475-.4477153 1-1 1z" fill="#fff"/><path id="Shape" d="m30 0v2c0 .55228475-.4477153 1-1 1s-1-.44771525-1-1v-2z" fill="#fff"/><path id="Shape" d="m48 21v16h-1.7c-.1007451.0000726-.2012355.0101217-.3.03v-16.06c.0987645.0198783.1992549.0299274.3.03z" fill="#bdc3c7"/><path id="Shape" d="m52 30h-1c-.5522847 0-1-.4477153-1-1s.4477153-1 1-1h1c.5522847 0 1 .4477153 1 1s-.4477153 1-1 1z" fill="#fff"/><path id="Shape" d="m58 28v2h-2c-.5522847 0-1-.4477153-1-1s.4477153-1 1-1z" fill="#fff"/><path id="Shape" d="m12 20.97v16.06c-.0987645-.0198783-.1992549-.0299274-.3-.03h-1.7v-16h1.7c.1007451-.0000726.2012355-.0101217.3-.03z" fill="#bdc3c7"/><g fill="#fff"><path id="Shape" d="m7 30h-1c-.55228475 0-1-.4477153-1-1s.44771525-1 1-1h1c.55228475 0 1 .4477153 1 1s-.44771525 1-1 1z"/><path id="Shape" d="m3 29c0 .5522847-.44771525 1-1 1h-2v-2h2c.55228475 0 1 .4477153 1 1z"/></g></g></g></svg>