<svg height="512" viewBox="0 0 58 58" width="512" xmlns="http://www.w3.org/2000/svg"><g id="Page-1" fill="none" fill-rule="evenodd"><g id="020---Seat-Belt" fill-rule="nonzero" transform="translate(-1 -1)"><rect id="Rectangle-path" fill="#35495e" height="11.05" rx="2" transform="matrix(.707 .707 -.707 .707 25.146 -24.147)" width="22.099" x="30.671" y="12.755"/><path id="Shape" d="m31.427 41.371-12.8-12.8c-.7809997-.7807639-2.0470003-.7807639-2.828 0l-7.824 7.829c-.78076388.7809997-.78076388 2.0470003 0 2.828l12.8 12.8c.7809997.7807639 2.0470003.7807639 2.828 0l7.824-7.828c.375248-.375096.5860729-.8839266.5860729-1.4145s-.2108249-1.039404-.5860729-1.4145zm-4.975 2.121-3.558 3.558c-.3904999.3903819-1.0235001.3903819-1.414 0l-8.53-8.53c-.3903819-.3904999-.3903819-1.0235001 0-1.414l3.558-3.558c.3904999-.3903819 1.0235001-.3903819 1.414 0l8.53 8.53c.3903819.3904999.3903819 1.0235001 0 1.414z" fill="#9fc9d3"/><path id="Shape" d="m20.77 52.02-6.4 6.4c-.3751365.3755541-.8841815.5865733-1.415.5865733s-1.0398635-.2110192-1.415-.5865733l-9.96-9.96c-.37555409-.3751365-.58657331-.8841815-.58657331-1.415s.21101922-1.0398635.58657331-1.415l2.14-2.14 1.41-1.41h.01l2.84-2.85z" fill="#547580"/><path id="Shape" d="m7.27 45.62c-.18641029.1918336-.44251366.3000725-.71.3000725s-.52358971-.1082389-.71-.3000725l-2.13-2.13 1.41-1.41h.01l2.13 2.13c.38772359.3900375.38772359 1.0199625 0 1.41z" fill="#35495e"/><path id="Shape" d="m17.92 54.86v.01l-1.41 1.41-7.82-7.82c-.38772359-.3900375-.38772359-1.0199625 0-1.41.39300794-.3899779 1.02699206-.3899779 1.42 0z" fill="#35495e"/><path id="Shape" d="m58.42 14.37-2.14 2.14-1.41 1.41-2.85 2.85-12.79-12.79 2.85-2.84v-.01l1.41-1.41 2.14-2.14c.3751365-.37555409.8841815-.58657331 1.415-.58657331s1.0398635.21101922 1.415.58657331l9.96 9.96c.3755541.3751365.5865733.8841815.5865733 1.415s-.2110192 1.0398635-.5865733 1.415z" fill="#547580"/><path id="Shape" d="m45.62 7.27c-.3900375.38772359-1.0199625.38772359-1.41 0l-2.13-2.13v-.01l1.41-1.41 2.13 2.13c.3899779.39300794.3899779 1.02699206 0 1.42z" fill="#35495e"/><path id="Shape" d="m56.28 16.51-1.41 1.41h-.01l-7.81-7.81c-.3899779-.39300794-.3899779-1.02699206 0-1.42.3900375-.38772359 1.0199625-.38772359 1.41 0z" fill="#35495e"/><path id="Shape" d="m32.841 17.215-7.109 7.109c-.7807639.7809997-.7807639 2.0470003 0 2.828l7.116 7.116c.7809997.7807639 2.0470003.7807639 2.828 0l7.109-7.109zm2.128 12.078c-.3904999.3903819-1.0235001.3903819-1.414 0l-2.848-2.848c-.3903819-.3904999-.3903819-1.0235001 0-1.414l1.427-1.431c.3904999-.3903819 1.0235001-.3903819 1.414 0l2.852 2.852c.3903819.3904999.3903819 1.0235001 0 1.414z" fill="#84b5cb"/><g fill="#24ae5f"><path id="Shape" d="m51.8 37.707c.2599566-.2510745.3642126-.6228779.2726972-.9725073-.0915155-.3496295-.3645604-.6226744-.7141899-.7141899-.3496294-.0915154-.7214328.0127406-.9725073.2726972l-9.9 9.9-2.076-2.074c-.13711-.1374847-.3414178-.1831588-.5240205-.1171475-.1826026.0660112-.310477.23177-.3279795.4251475l-.558 6.118c-.0133571.1477043.0395457.2937165.1444146.3985854s.2508811.1577717.3985854.1444146l6.118-.556c.1933775-.0175025.3591363-.1453769.4251475-.3279795.0660113-.1826027.0203372-.3869105-.1171475-.5240205l-2.069-2.074z"/><path id="Shape" d="m22.338 8.248-9.9 9.9-2.073-2.074c-.13711-.1374847-.3414178-.1831588-.52402047-.1171475-.18260264.0660112-.31047699.23177-.32797953.4251475l-.556 6.118c-.01335713.1477043.03954566.2937165.1444146.3985854.10486893.1048689.25088105.1577717.3985854.1444146l6.118-.556c.1933775-.0175025.3591363-.1453769.4251475-.3279795.0660113-.1826027.0203372-.3869105-.1171475-.5240205l-2.073-2.073 9.9-9.9c.2599566-.25107447.3642126-.62287789.2726972-.97250732-.0915155-.34962944-.3645604-.6226744-.7141899-.71418984-.3496294-.09151544-.7214328.01274058-.9725073.27269716z"/></g></g></g></svg>