<svg height="512" viewBox="0 0 45 59" width="512" xmlns="http://www.w3.org/2000/svg"><g id="Page-1" fill="none" fill-rule="evenodd"><g id="023---Steering-Wheel" fill-rule="nonzero"><path id="Shape" d="m39.94 36.63c-6.9560685 3.8644879-12.0261509 10.4089778-14.03 18.11l-2.94 1.63-2.88-1.63c-2.0038491-7.7010222-7.0739315-14.2455121-14.03-18.11l-.06-5.8 4.36-4.166c4.1531278.8979753 8.390914 1.3458932 12.64 1.336 4.2492305.008579 8.4870183-.4406802 12.64-1.34l3.8 4.34z" fill="#bdc3c7"/><circle id="Oval" cx="23" cy="38" fill="#547580" r="5"/><path id="Shape" d="m23 17c-11.5979797 0-21 9.4020203-21 21s9.4020203 21 21 21 21-9.4020203 21-21c-.012676-11.5927251-9.4072749-20.987324-21-21zm0 38c-9.3888407 0-17-7.6111593-17-17s7.6111593-17 17-17 17 7.6111593 17 17c-.010471 9.3845001-7.6154999 16.989529-17 17z" fill="#805333"/><path id="Shape" d="m2 15.369c1.14176457.5855488 1.8986336 1.7208524 2 3v2h-4v-2c.1013664-1.2791476.85823543-2.4144512 2-3" fill="#f3d55b"/><path id="Shape" d="m2 16.369c-.55228475 0-1-.4477153-1-1v-7c0-.55228475.44771525-1 1-1s1 .44771525 1 1v7c0 .5522847-.44771525 1-1 1z" fill="#547580"/><path id="Shape" d="m35 11.239 9.647-2.89c.2133333-.06222222.36-.25777778.36-.48s-.1466667-.41777778-.36-.48l-21.357-6.48c-.1901001-.05000378-.3898999-.05000378-.58 0l-21.357 6.48c-.21333333.06222222-.36.25777778-.36.48s.14666667.41777778.36.48l9.647 2.89z" fill="#2c3e50"/><path id="Shape" d="m35 18.869v-8s-3-3-12-3-12 3-12 3v8c0 1.1045695.8954305 2 2 2h20c1.1045695 0 2-.8954305 2-2z" fill="#3f5c6c"/></g></g></svg>