<svg height="512" viewBox="0 0 58 58" width="512" xmlns="http://www.w3.org/2000/svg"><g id="Page-1" fill="none" fill-rule="evenodd"><g id="025---Car-License" fill-rule="nonzero"><rect id="Rectangle-path" fill="#b0d3f0" height="26" rx="4" width="40" x="18"/><path id="Shape" d="m48.68 19.98c-.094445 1.4106294-1.2662124 2.5065676-2.68 2.5065676s-2.585555-1.0959382-2.68-2.5065676c1.0691405-.7364851 1.435418-2.1462278.86-3.31h3.64c-.575418 1.1637722-.2091405 2.5735149.86 3.31z" fill="#f9c795"/><path id="Shape" d="m54 23h-16c.3178331-1.7866983 1.8959786-3.0713343 3.71-3.02h1.61c.094445 1.4106294 1.2662124 2.5065676 2.68 2.5065676s2.585555-1.0959382 2.68-2.5065676h1.61c1.8140214-.0513343 3.3921669 1.2333017 3.71 3.02z" fill="#2980ba"/><g fill="#3f5c6c"><path id="Shape" d="m23 7h-1c-.5522847 0-1-.44771525-1-1s.4477153-1 1-1h1c.5522847 0 1 .44771525 1 1s-.4477153 1-1 1z"/><path id="Shape" d="m35 7h-8c-.5522847 0-1-.44771525-1-1s.4477153-1 1-1h8c.5522847 0 1 .44771525 1 1s-.4477153 1-1 1z"/><path id="Shape" d="m23 11h-1c-.5522847 0-1-.4477153-1-1 0-.55228475.4477153-1 1-1h1c.5522847 0 1 .44771525 1 1 0 .5522847-.4477153 1-1 1z"/><path id="Shape" d="m35 11h-8c-.5522847 0-1-.4477153-1-1 0-.55228475.4477153-1 1-1h8c.5522847 0 1 .44771525 1 1 0 .5522847-.4477153 1-1 1z"/><path id="Shape" d="m23 15h-1c-.5522847 0-1-.4477153-1-1s.4477153-1 1-1h1c.5522847 0 1 .4477153 1 1s-.4477153 1-1 1z"/><path id="Shape" d="m35 15h-8c-.5522847 0-1-.4477153-1-1s.4477153-1 1-1h8c.5522847 0 1 .4477153 1 1s-.4477153 1-1 1z"/></g><path id="Shape" d="m40 34h2c1.1032019-.0032948 1.9967052-.8967981 2-2-.0081672-1.1011688-.8988312-1.9918328-2-2h-3c-.171824.000254-.340648.045044-.49.13h-31.02c-.14935202-.084956-.318176-.129746-.49-.13h-3c-1.10116878.0081672-1.99183278.8988312-2 2 .0032948 1.1032019.89679813 1.9967052 2 2z" fill="#35495e"/><path id="Shape" d="m40 34-4.014-10.436c-.5941185-1.5446048-2.0780738-2.5638551-3.733-2.564h-18.506c-1.6549262.0001449-3.1388815 1.0193952-3.733 2.564l-4.014 10.436z" fill="#b0d3f0"/><path id="Shape" d="m25.7 34h-19.7l4.01-10.44c.5993546-1.5430254 2.0846592-2.5597044 3.74-2.56h.99c1.35 3.27 4.69 9.73 10.96 13z" fill="#90bae1"/><path id="Shape" d="m44.5 36.8-2.951-2.361c-.123654-.0956777-.2578624-.1768738-.4-.242l-4.23-10.992c-.7493274-1.9253634-2.5999786-3.1965458-4.666-3.205h-18.506c-2.0649669.0077957-3.91547796 1.276627-4.667 3.2l-4.227 11c-.14213764.0651262-.27634603.1463223-.4.242l-2.953 2.358c-.94800017.7590076-1.49984849 1.9075879-1.5 3.122v7.078h46v-7.078c-.0001515-1.2144121-.5519998-2.3629924-1.5-3.122zm-33.553-12.877c.4500168-1.1550627 1.5603806-1.9176447 2.8-1.923h18.506c1.2396194.0053553 2.3499832.7679373 2.8 1.923l3.876 10.077h-31.858z" fill="#c03a2b"/><path id="Shape" d="m3 51h8v5c0 1.1045695-.8954305 2-2 2h-4c-1.1045695 0-2-.8954305-2-2z" fill="#35495e"/><path id="Shape" d="m35 51h8v5c0 1.1045695-.8954305 2-2 2h-4c-1.1045695 0-2-.8954305-2-2z" fill="#35495e"/><path id="Shape" d="m0 47h46v2c0 1.6568542-1.3431458 3-3 3h-40c-1.65685425 0-3-1.3431458-3-3z" fill="#802f34"/><rect id="Rectangle-path" fill="#f3d55b" height="4" rx="1" width="6" x="4" y="39"/><rect id="Rectangle-path" fill="#2c2f38" height="4" rx="1" width="16" x="15" y="39"/><rect id="Rectangle-path" fill="#f3d55b" height="4" rx="1" width="6" x="36" y="39"/><path id="Rectangle-path" d="m18 39h2v4h-2z" fill="#d1d4d1"/><path id="Rectangle-path" d="m22 39h2v4h-2z" fill="#d1d4d1"/><path id="Rectangle-path" d="m26 39h2v4h-2z" fill="#d1d4d1"/><path id="Rectangle-path" d="m16 47h14v5h-14z" fill="#bdc3c7"/><path id="Shape" d="m40.642 6.918v3.573c-.8284271 0-1.5.6715729-1.5 1.5s.6715729 1.5 1.5 1.5c.1007538.0001008.2012613-.00995.3-.03.7812839 2.1184989 2.800027 3.5256537 5.058 3.5256537s4.2767161-1.4071548 5.058-3.5256537c.0987387.02005.1992462.0301008.3.03.8284271 0 1.5-.6715729 1.5-1.5s-.6715729-1.5-1.5-1.5v-3.573z" fill="#fdd7ad"/><path id="Shape" d="m51.358 10.491s1.608-3.991-1.071-5.491c-2.364-1.322-8.066.466-10.479-1.153-.1538174-.11552085-.360268-.13255415-.5309388-.04380534-.1706708.0887488-.2752927.26753981-.2690612.45980534.068 1.549.526 4.055 2.7 4.732 1.3780747.54688667 2.9126548.54867439 4.292.005 1.929-.88 4.668-1.207 5.358 1.491z" fill="#a56a43"/></g></g></svg>