<svg height="512" viewBox="0 0 58 58" width="512" xmlns="http://www.w3.org/2000/svg"><g id="Page-1" fill="none" fill-rule="evenodd"><g id="027---Pedals" fill-rule="nonzero"><path id="Shape" d="m25.674 27.685-5.314-7.535c-.2320535-.3388281-.3574292-.7393339-.36-1.15v-15.5h4v14.24c.0025708.4106661.1279465.8111719.36 1.15l6.205 8.795z" fill="#bdc3c7"/><path id="Rectangle-path" d="m5 2h4v27h-4z" fill="#bdc3c7"/><path id="Rectangle-path" d="m47 2h4v12h-4z" fill="#bdc3c7"/><path id="Shape" d="m12.232 53h-8.464c-1.05622807.0093011-1.9421936-.794816-2.035-1.847l-1.727-22c-.03796397-.5612329.1601653-1.1128225.54656333-1.5216259s.92595649-.6376766 1.48843667-.6313741h11.918c.5624802-.0063025 1.1020386.2225707 1.4884367.6313741.386398.4088034.5845273.960393.5465633 1.5216259l-1.727 22c-.0928064 1.052184-.9787719 1.8563011-2.035 1.847z" fill="#547580"/><path id="Shape" d="m32.232 53h-8.464c-1.0562281.0093011-1.9421936-.794816-2.035-1.847l-1.727-22c-.037964-.5612329.1601653-1.1128225.5465633-1.5216259.3863981-.4088034.9259565-.6376766 1.4884367-.6313741h11.918c.5624802-.0063025 1.1020386.2225707 1.4884367.6313741.386398.4088034.5845273.960393.5465633 1.5216259l-1.727 22c-.0928064 1.052184-.9787719 1.8563011-2.035 1.847z" fill="#547580"/><path id="Shape" d="m54.136 58h-10.272c-1.0761771.0050241-1.9655669-.8380892-2.018-1.913l-1.846-42c-.0213075-.5481168.182432-1.0811109.5639235-1.4752559.3814916-.3941449.9075563-.6151615 1.4560765-.6117441h13.96c.5485202-.0034174 1.0745849.2175992 1.4560765.6117441.3814915.394145.585231.9271391.5639235 1.4752559l-1.844 42c-.0524655 1.0756881-.9430505 1.9190986-2.02 1.913z" fill="#547580"/><g fill="#35495e"><path id="Shape" d="m12 33h-8c-.55228475 0-1-.4477153-1-1s.44771525-1 1-1h8c.5522847 0 1 .4477153 1 1s-.4477153 1-1 1z"/><path id="Shape" d="m12 37h-8c-.55228475 0-1-.4477153-1-1s.44771525-1 1-1h8c.5522847 0 1 .4477153 1 1s-.4477153 1-1 1z"/><path id="Shape" d="m11 41h-6c-.55228475 0-1-.4477153-1-1s.44771525-1 1-1h6c.5522847 0 1 .4477153 1 1s-.4477153 1-1 1z"/><path id="Shape" d="m11 45h-6c-.55228475 0-1-.4477153-1-1s.44771525-1 1-1h6c.5522847 0 1 .4477153 1 1s-.4477153 1-1 1z"/><path id="Shape" d="m11 49h-6c-.55228475 0-1-.4477153-1-1s.44771525-1 1-1h6c.5522847 0 1 .4477153 1 1s-.4477153 1-1 1z"/><path id="Shape" d="m32 33h-8c-.5522847 0-1-.4477153-1-1s.4477153-1 1-1h8c.5522847 0 1 .4477153 1 1s-.4477153 1-1 1z"/><path id="Shape" d="m54 18h-10c-.5522847 0-1-.4477153-1-1s.4477153-1 1-1h10c.5522847 0 1 .4477153 1 1s-.4477153 1-1 1z"/><path id="Shape" d="m54 22h-10c-.5522847 0-1-.4477153-1-1s.4477153-1 1-1h10c.5522847 0 1 .4477153 1 1s-.4477153 1-1 1z"/><path id="Shape" d="m53 26h-8c-.5522847 0-1-.4477153-1-1s.4477153-1 1-1h8c.5522847 0 1 .4477153 1 1s-.4477153 1-1 1z"/><path id="Shape" d="m53 30h-8c-.5522847 0-1-.4477153-1-1s.4477153-1 1-1h8c.5522847 0 1 .4477153 1 1s-.4477153 1-1 1z"/><path id="Shape" d="m53 34h-8c-.5522847 0-1-.4477153-1-1s.4477153-1 1-1h8c.5522847 0 1 .4477153 1 1s-.4477153 1-1 1z"/><path id="Shape" d="m53 38h-8c-.5522847 0-1-.4477153-1-1s.4477153-1 1-1h8c.5522847 0 1 .4477153 1 1s-.4477153 1-1 1z"/><path id="Shape" d="m53 42h-8c-.5522847 0-1-.4477153-1-1s.4477153-1 1-1h8c.5522847 0 1 .4477153 1 1s-.4477153 1-1 1z"/><path id="Shape" d="m53 46h-8c-.5522847 0-1-.4477153-1-1s.4477153-1 1-1h8c.5522847 0 1 .4477153 1 1s-.4477153 1-1 1z"/><path id="Shape" d="m53 50h-8c-.5522847 0-1-.4477153-1-1s.4477153-1 1-1h8c.5522847 0 1 .4477153 1 1s-.4477153 1-1 1z"/><path id="Shape" d="m52 54h-6c-.5522847 0-1-.4477153-1-1s.4477153-1 1-1h6c.5522847 0 1 .4477153 1 1s-.4477153 1-1 1z"/><path id="Shape" d="m32 37h-8c-.5522847 0-1-.4477153-1-1s.4477153-1 1-1h8c.5522847 0 1 .4477153 1 1s-.4477153 1-1 1z"/><path id="Shape" d="m31 41h-6c-.5522847 0-1-.4477153-1-1s.4477153-1 1-1h6c.5522847 0 1 .4477153 1 1s-.4477153 1-1 1z"/><path id="Shape" d="m31 45h-6c-.5522847 0-1-.4477153-1-1s.4477153-1 1-1h6c.5522847 0 1 .4477153 1 1s-.4477153 1-1 1z"/><path id="Shape" d="m31 49h-6c-.5522847 0-1-.4477153-1-1s.4477153-1 1-1h6c.5522847 0 1 .4477153 1 1s-.4477153 1-1 1z"/><rect id="Rectangle-path" height="4" rx="2" width="58"/></g></g></g></svg>