<svg height="512" viewBox="0 0 58 60" width="512" xmlns="http://www.w3.org/2000/svg"><g id="Page-1" fill="none" fill-rule="evenodd"><g id="031---Indicate" fill-rule="nonzero" transform="translate(-1)"><g fill="#547580"><path id="Shape" d="m31 6c-.5522847 0-1-.44771525-1-1v-4c0-.55228475.4477153-1 1-1s1 .44771525 1 1v4c0 .55228475-.4477153 1-1 1z"/><path id="Shape" d="m31 15c-.5522847 0-1-.4477153-1-1v-4c0-.55228475.4477153-1 1-1s1 .44771525 1 1v4c0 .5522847-.4477153 1-1 1z"/><path id="Shape" d="m31 24c-.5522847 0-1-.4477153-1-1v-4c0-.5522847.4477153-1 1-1s1 .4477153 1 1v4c0 .5522847-.4477153 1-1 1z"/><path id="Shape" d="m31 33c-.5522847 0-1-.4477153-1-1v-4c0-.5522847.4477153-1 1-1s1 .4477153 1 1v4c0 .5522847-.4477153 1-1 1z"/><path id="Shape" d="m31 42c-.5522847 0-1-.4477153-1-1v-4c0-.5522847.4477153-1 1-1s1 .4477153 1 1v4c0 .5522847-.4477153 1-1 1z"/><path id="Shape" d="m31 51c-.5522847 0-1-.4477153-1-1v-4c0-.5522847.4477153-1 1-1s1 .4477153 1 1v4c0 .5522847-.4477153 1-1 1z"/><path id="Shape" d="m31 60c-.5522847 0-1-.4477153-1-1v-4c0-.5522847.4477153-1 1-1s1 .4477153 1 1v4c0 .5522847-.4477153 1-1 1z"/></g><path id="Shape" d="m54.2 26.385c-.4043959-.0000863-.7689341-.2437275-.923678-.6173454-.1547439-.373618-.0692299-.8036603.216678-1.0896546 4.6788657-4.6895356 4.6788657-12.2814644 0-16.971-.3789722-.39237889-.3735524-1.01608478.0121814-1.40181858.3857338-.38573379 1.0094397-.39115363 1.4018186-.01218142 5.4597429 5.4708791 5.4597429 14.3291209 0 19.8-.1876563.1871827-.4419486.2922087-.707.292z" fill="#24ae5f"/><path id="Shape" d="m51.37 23.556c-.4043959-.0000863-.7689341-.2437275-.923678-.6173454-.1547439-.373618-.0692299-.8036603.216678-1.0896546 3.1187621-3.126166 3.1187621-8.186834 0-11.313-.3789722-.3923789-.3735524-1.01608478.0121814-1.40181858.3857338-.38573379 1.0094397-.39115363 1.4018186-.01218142 3.898974 3.9073942 3.898974 10.2336058 0 14.141-.1874927.1875494-.4418052.2929434-.707.293z" fill="#24ae5f"/><circle id="Oval" cx="42" cy="16" fill="#24ae5f" r="7"/><path id="Shape" d="m45.923 16.382c.1546212-.3733021.069397-.8029743-.216-1.089l-3-3c-.3923789-.3789722-1.0160848-.3735524-1.4018186.0121814s-.3911536 1.0094397-.0121814 1.4018186l1.293 1.293h-2.586c-.5522847 0-1 .4477153-1 1s.4477153 1 1 1h2.586l-1.293 1.293c-.2599566.2510745-.3642126.6228779-.2726972.9725073.0915155.3496295.3645604.6226744.7141899.7141899.3496294.0915154.7214328-.0127406.9725073-.2726972l3-3c.092644-.0930975.1660413-.2035332.216-.325z" fill="#fff"/><path id="Shape" d="m1.992 16.957c-.44130376.0007631-.8309339-.2878403-.95881951-.7102085-.12788562-.4223682.03621227-.8786307.40381951-1.1227915l3-2c.45977705-.3062419 1.08075809-.181777 1.38699998.278.30624189.4597771.18177706 1.0807581-.27799998 1.387l-3 2c-.16406343.1093972-.35680837.167847-.554.168z" fill="#3f5c6c"/><path id="Shape" d="m25.99 16.957c-.1968509-.00035-.3892201-.0587913-.553-.168l-3-2c-.4597771-.3062419-.5842419-.9272229-.278-1.387s.9272229-.5842419 1.387-.278l3 2c.3677634.2442624.5318287.7007894.403678 1.1232719s-.5181889.7109345-.959678.7097281z" fill="#3f5c6c"/><path id="Shape" d="m14.991.957h3.371c.4635405-.00419335.9213321.10279616 1.335.312 1.533534.75720386 2.7141311 2.07901387 3.294 3.688.6675201 2.61417554 1.0034916 5.301948 1 8v17c0 1 .0000269 8-9 8h-2c-9.00002694 0-9-7-9-8v-17c-.00349164-2.698052.33247992-5.38582446 1-8 .58050642-1.60860607 1.76091536-2.93020539 3.294-3.688.41366786-.20920384.87145954-.31619335 1.335-.312z" fill="#c03a2b"/><path id="Shape" d="m9.991.957v2c-.00384029 1.10297489-.89702511 1.99615971-2 2h-3c.57719007-1.60978658 1.75668909-2.93268973 3.29-3.69.416371-.2064423.87526734-.31260488 1.34-.31z" fill="#b0d3f0"/><path id="Shape" d="m22.991 4.957h-3c-1.1029749-.00384029-1.9961597-.89702511-2-2v-2h.37c.4647327-.00260488.923629.1035577 1.34.31 1.5333109.75731027 2.7128099 2.08021342 3.29 3.69z" fill="#b0d3f0"/><path id="Shape" d="m7.991 16.957v12l-3.96 1.98c-.04-.461-.04-.81-.04-.98v-16z" fill="#b0d3f0"/><path id="Shape" d="m23.991 13.957v16c0 .17 0 .519-.04.98l-3.96-1.98v-12z" fill="#90bae1"/><path id="Shape" d="m23.951 30.937c-.0089986.0146465-.0125399.0319987-.01.049-2.9530416 1.9457432-6.4135743 2.9790339-9.95 2.971-3.1608592-.0078816-6.26672971-.8273907-9.02-2.38-.5-.291-.82-.51-.93-.591.00253987-.0170013-.00100141-.0343535-.01-.049l3.96-1.98c.339366.2615019.73190098.4454813 1.15.539 1.2531498.3448685 2.550855.5002561 3.85.461h2c4 0 5-1 5-1z" fill="#b0d3f0"/><path id="Shape" d="m23.951 30.937c-.0089986.0146465-.0125399.0319987-.01.049-2.9530416 1.9457432-6.4135743 2.9790339-9.95 2.971-.38 0-.75-.01-1.11-.041.8643716-1.1346751 1.3095513-2.5334578 1.26-3.959h.85c4 0 5-1 5-1z" fill="#90bae1"/><path id="Shape" d="m9.331 29.407-.19.089-4.17 2.081c-.5-.291-.82-.51-.93-.591.00253987-.0170013-.00100141-.0343535-.01-.049-.04-.461-.04-.81-.04-.98v-.12l4-2 .45-.221z" fill="#e64c3c"/><path id="Shape" d="m23.991 13.957-4 3h-12l-4-3c.0927161-.3322754.22711757-.6514789.4-.95.83-1.451 3.19-4.05 9.6-4.05 8.89 0 10 5 10 5z" fill="#90bae1"/><path id="Shape" d="m18.651 29.407.19.089 4.17 2.081c.5-.291.82-.51.93-.591-.0025399-.0170013.0010014-.0343535.01-.049.04-.461.04-.81.04-.98v-.12l-4-2-.45-.221z" fill="#e64c3c"/><path id="Shape" d="m17.261 17.757 1.2 1.6 1.53-1.149 4-3v-1.25c-.0927161-.3322754-.2271176-.6514789-.4-.95l-5.26 3.95z" fill="#e64c3c"/><path id="Shape" d="m14.931 16.957h-6.94l-4-3c.0927161-.3322754.22711757-.6514789.4-.95.70357592-1.1646745 1.72773547-2.1020408 2.95-2.7.47863064-.2398632.9731199-.44667996 1.48-.619 2.45.918 5.679 2.949 6.11 7.269z" fill="#b0d3f0"/><path id="Shape" d="m10.721 17.757-1.2 1.6-1.53-1.149-4-3v-1.25c.0927161-.3322754.22711757-.6514789.4-.95l5.26 3.95z" fill="#e64c3c"/><path id="Shape" d="m19.991 16.957v12s-1 1-5 1h-2c-4 0-5-1-5-1v-12z" fill="#e64c3c"/><path id="Shape" d="m58 58 .0000269 2h-20.0000538l.0000269-2c-.0034916-2.698052.3324799-5.3858245 1-8 .5771901-1.6097866 1.7566891-2.9326897 3.29-3.69.4165334-.2059882.8753208-.3121256 1.34-.31h8.74c.4646792-.0021256.9234666.1040118 1.34.31 1.5333109.7573103 2.7128099 2.0802134 3.29 3.69.6675201 2.6141755 1.0034916 5.301948 1 8z" fill="#c03a2b"/><path id="Shape" d="m44 45.9999687v2.0000313c-.0032948 1.1032019-.8967981 1.9967052-2 2h-3c.5771901-1.6097866 1.7566891-2.9326897 3.29-3.69.4165334-.2059882.8753208-.3121256 1.34-.31z" fill="#b0d3f0"/><path id="Shape" d="m57 50h-3c-1.1032019-.0032948-1.9967052-.8967981-2-2v-2.0000313l.37.0000313c.4646792-.0021256.9234666.1040118 1.34.31 1.5333109.7573103 2.7128099 2.0802134 3.29 3.69z" fill="#b0d3f0"/><path id="Shape" d="m58 59-1.33 1h-17.34l-1.33-1c.0927161-.3322754.2271176-.6514789.4-.95.83-1.45 3.19-4.05 9.6-4.05 8.89 0 10 5 10 5z" fill="#90bae1"/><path id="Shape" d="m58 59v1h-3l2.6-1.95c.1728824.2985211.3072839.6177246.4.95z" fill="#e64c3c"/><path id="Shape" d="m48.49 60h-9.16l-1.33-1c.0927161-.3322754.2271176-.6514789.4-.95.7038407-1.1644574 1.7279283-2.1017579 2.95-2.7.4784066-.2406335.9729265-.4477972 1.48-.62 2.577702.8254943 4.6528858 2.7576884 5.66 5.27z" fill="#b0d3f0"/><path id="Shape" d="m41 60h-3v-1c.0927161-.3322754.2271176-.6514789.4-.95z" fill="#e64c3c"/></g></g></svg>