<svg height="512" viewBox="0 0 60 60" width="512" xmlns="http://www.w3.org/2000/svg"><g id="Page-1" fill="none" fill-rule="evenodd"><g id="033---Road-Signs" fill-rule="nonzero"><path id="Shape" d="m44 26.84 4 .01v32.15h-4z" fill="#547580"/><circle id="Oval" cx="46" cy="14" fill="#fff" r="13"/><path id="Shape" d="m43.791 14c.7521821-.6140869 1.1946753-1.5290853 1.209-2.5-.1490337-2.06562781-1.9328688-3.62648352-4-3.5-2.0671312-.12648352-3.8509663 1.43437219-4 3.5 0 .5522847.4477153 1 1 1s1-.4477153 1-1c0-.813.916-1.5 2-1.5s2 .687 2 1.5-.916 1.5-2 1.5c-.5522847 0-1 .4477153-1 1s.4477153 1 1 1c1.084 0 2 .687 2 1.5s-.916 1.5-2 1.5-2-.687-2-1.5c0-.5522847-.4477153-1-1-1s-1 .4477153-1 1c.1490337 2.0656278 1.9328688 3.6264835 4 3.5 2.0671312.1264835 3.8509663-1.4343722 4-3.5-.0143247-.9709147-.4568179-1.8859131-1.209-2.5z" fill="#2c3e50"/><path id="Shape" d="m50.5 20c-2.4841391-.0027556-4.4972444-2.0158609-4.5-4.5v-3c0-2.4852814 2.0147186-4.5 4.5-4.5s4.5 2.0147186 4.5 4.5v3c-.0027556 2.4841391-2.0158609 4.4972444-4.5 4.5zm0-10c-1.3807119 0-2.5 1.1192881-2.5 2.5v3c0 1.3807119 1.1192881 2.5 2.5 2.5s2.5-1.1192881 2.5-2.5v-3c0-1.3807119-1.1192881-2.5-2.5-2.5z" fill="#2c3e50"/><path id="Shape" d="m46 28c-7.7319865 0-14-6.2680135-14-14s6.2680135-14 14-14 14 6.2680135 14 14c-.0082673 7.7285595-6.2714405 13.9917327-14 14zm0-26c-6.627417 0-12 5.372583-12 12s5.372583 12 12 12 12-5.372583 12-12c-.0071648-6.62444695-5.375553-11.99283515-12-12z" fill="#c03a2b"/><path id="Shape" d="m16 33.66v-6.82l-4 .01v13.29 4.77 14.09h4v-14z" fill="#547580"/><circle id="Oval" cx="14" cy="14" fill="#c03a2b" r="13"/><path id="Shape" d="m14 28c-7.7319865 0-14-6.2680135-14-14s6.2680135-14 14-14 14 6.2680135 14 14c-.0082673 7.7285595-6.2714405 13.9917327-14 14zm0-26c-6.627417 0-12 5.372583-12 12s5.372583 12 12 12 12-5.372583 12-12c-.0071648-6.62444695-5.375553-11.99283515-12-12z" fill="#d1d4d1"/><path id="Shape" d="m30 45h17.414c.7248699-.0005751 1.3926902-.3933169 1.7455109-1.0265264.3528207-.6332094.3354086-1.4077589-.0455109-2.0244736l-17.414-28.194c-.3646786-.5884339-1.0077249-.9464346-1.7-.9464346s-1.3353214.3580007-1.7.9464346l-17.416 28.194c-.3811073.6170192-.3983351 1.3920012-.0450235 2.0253466.3533117.6333454 1.0217956 1.0258031 1.7470235 1.0256534z" fill="#e64c3c"/><path id="Shape" d="m16.643 40.237 12.932-20.937c.0911696-.1471085.2519312-.2366087.425-.2366087s.3338304.0895002.425.2366087l12.932 20.937c.0953626.1541909.0997882.3479227.0115661.5063074-.0882222.1583848-.2552684.2566048-.4365661.2566926h-25.864c-.1812977-.0000878-.3483439-.0983078-.4365661-.2566926-.0882221-.1583847-.0837965-.3521165.0115661-.5063074z" fill="#fff"/><path id="Rectangle-path" d="m28 45h4v14h-4z" fill="#547580"/><path id="Shape" d="m30 33c-.5522847 0-1-.4477153-1-1v-6c0-.5522847.4477153-1 1-1s1 .4477153 1 1v6c0 .5522847-.4477153 1-1 1z" fill="#2c3e50"/><path id="Shape" d="m30 38c-.5522847 0-1-.4477153-1-1v-1c0-.5522847.4477153-1 1-1s1 .4477153 1 1v1c0 .5522847-.4477153 1-1 1z" fill="#2c3e50"/><rect id="Rectangle-path" fill="#fff" height="4" rx="1" width="16" x="6" y="12"/><g fill="#95a5a5"><path id="Shape" d="m2 60h-1c-.55228475 0-1-.4477153-1-1s.44771525-1 1-1h1c.55228475 0 1 .4477153 1 1s-.44771525 1-1 1z"/><path id="Shape" d="m59 60h-53c-.55228475 0-1-.4477153-1-1s.44771525-1 1-1h53c.5522847 0 1 .4477153 1 1s-.4477153 1-1 1z"/></g></g></g></svg>