<svg height="512" viewBox="0 0 58 58" width="512" xmlns="http://www.w3.org/2000/svg"><g id="Page-1" fill="none" fill-rule="evenodd"><g id="034---Driving-Manual" fill-rule="nonzero"><path id="Shape" d="m58 6.26v38.88c.0037417.3141081-.14196.6113143-.3925522.8007383-.2505921.189424-.5762703.2485364-.8774478.1592617-1.6-.47-10.97-3.09-14.56-3.58-6-.81-7.17-.52-13.17-.52s-7.17-.29-13.17.52c-3.59.49-12.96 3.11-14.56 3.58-.30117753.0892747-.62685568.0301623-.87744784-.1592617-.25059215-.189424-.39629387-.4866302-.39255216-.8007383v-38.88c-.00249669-.43664511.28221337-.82303733.7-.95 1.08355066-.330453 2.18541318-.59757118 3.3-.8h23.32c.57.46 1.13.95 1.68 1.49.55-.54 1.11-1.03 1.68-1.49h23.32c1.1145868.20242882 2.2164493.469547 3.3.8.4177866.12696267.7024967.51335489.7.95z" fill="#285680"/><path id="Shape" d="m54 2.26v37.63c.0013704.3118757-.1428461.6065336-.3899757.7967841-.2471296.1902506-.5688724.2543074-.8700243.1732159-.73-.21-3.18-.99-4.41-1.21 0 0-13.16-2.65-19.33-2.65s-19.33 2.65-19.33 2.65c-1.23.22-3.68 1-4.41 1.21-.30115193.0810915-.6228947.0170347-.87002429-.1732159-.24712959-.1902505-.3913461-.4849084-.38997571-.7967841v-37.63c.00171566-.43526288.28478139-.8194235.7-.95 2.85-.88 13.93-3.67 22.62 3.2.57.46 1.13.95 1.68 1.49.55-.54 1.11-1.03 1.68-1.49 8.69-6.87 19.77-4.08 22.62-3.2.4152186.1305765.6982843.51473712.7.95z" fill="#ecf0f1"/><path id="Shape" d="m32.79 33.74c3.7896747-.3544801 7.4866973-1.3769168 10.92-3.02l2.29 3.28-1 3.11c-3.8333862-.0019091-7.6466576.5539122-11.32 1.65l-1.63 2.2c-.6105281 3.8774773-.4952379 7.8346444.34 11.67l-3.39 2.37-3.39-2.37c.8352379-3.8353556.9505281-7.7925227.34-11.67l-1.63-2.2c-3.6733424-1.0960878-7.4866138-1.6519091-11.32-1.65l-1-3.11 2.29-3.28c3.4333027 1.6430832 7.1303253 2.6655199 10.92 3.02z" fill="#95a5a5"/><path id="Shape" d="m29 16c-11.5979797 0-21 9.4020203-21 21s9.4020203 21 21 21 21-9.4020203 21-21-9.4020203-21-21-21zm3.39 36.63c-2.2330782.493329-4.5469218.493329-6.78 0-7.3121089-1.5934471-12.5471282-8.0365478-12.61-15.52v-.11c-.0023571-2.1593596.436625-4.2964197 1.29-6.28 2.5129908-5.8945783 8.3021005-9.7197975 14.71-9.7197975s12.1970092 3.8252192 14.71 9.7197975c.853375 1.9835803 1.2923571 4.1206404 1.29 6.28v.11c-.0628718 7.4834522-5.2978911 13.9265529-12.61 15.52z" fill="#805333"/><path id="Shape" d="m32.05 40.96c-1.2555578.9668388-2.8951095 1.2812512-4.4192604.8474696-1.524151-.4337817-2.7524399-1.5643971-3.3107396-3.0474696-.2135821-.5621102-.32205-1.158684-.32-1.76.0000001-2.7614237 2.2385763-4.9999999 5-4.9999999s4.9999999 2.2385762 5 4.9999999c.00205.601316-.1064179 1.1978898-.32 1.76-.3270097.8712789-.8917058 1.6334455-1.63 2.2z" fill="#547580"/></g></g></svg>