<svg height="512" viewBox="0 0 54 58" width="512" xmlns="http://www.w3.org/2000/svg"><g id="Page-1" fill="none" fill-rule="evenodd"><g id="035---Book-Test" fill-rule="nonzero"><rect id="Rectangle-path" fill="#ecf0f1" height="54" rx="6" width="54" y="4"/><path id="Shape" d="m41.73 36h2.27c.5522847 0 1-.4477153 1-1v-2c0-.5522847-.4477153-1-1-1h-34c-.55228475 0-1 .4477153-1 1v2c0 .5522847.44771525 1 1 1z" fill="#35495e"/><path id="Shape" d="m40 35-4.487-10.769c-.310446-.7453327-1.0385983-1.2308991-1.846-1.231h-13.334c-.8074017.0001009-1.535554.4856673-1.846 1.231l-4.487 10.769z" fill="#b0d3f0"/><path id="Shape" d="m30.11 35h-16.11l4.49-10.77c.3112015-.7418686 1.0355127-1.2260549 1.84-1.23h1.61c-.07 2.58.52 9.43 8.17 12z" fill="#90bae1"/><path id="Shape" d="m15 44h5v6c0 .5522847-.4477153 1-1 1h-3c-.5522847 0-1-.4477153-1-1z" fill="#35495e"/><path id="Shape" d="m37.75 51h-2.5c-.6670619.0219219-1.2261103-.5000056-1.25-1.167v-5.833h5v5.833c-.0238897.6669944-.5829381 1.1889219-1.25 1.167z" fill="#35495e"/><path id="Shape" d="m41.282 35.477-4.846-11.63c-.4635501-1.1198092-1.5570402-1.8491975-2.769-1.847h-13.334c-1.2116345-.0020935-2.3049192.726763-2.769 1.846l-4.846 11.631c-.4533432.376072-.7163611.9339775-.718 1.523v6c0 1.1045695.8954305 2 2 2h26c1.1045695 0 2-.8954305 2-2v-6c-.0016389-.5890225-.2646568-1.146928-.718-1.523zm-21.871-10.862c.1552379-.3721346.5187843-.6146304.922-.615h13.334c.4038222.0001345.7679323.2431376.923.616l4.327 10.384h-23.834z" fill="#e64c3c"/><path id="Shape" d="m5 18h-1c-.55228475 0-1-.4477153-1-1s.44771525-1 1-1h1c.55228475 0 1 .4477153 1 1s-.44771525 1-1 1z" fill="#fff"/><path id="Shape" d="m36 18h-27c-.55228475 0-1-.4477153-1-1s.44771525-1 1-1h27c.5522847 0 1 .4477153 1 1s-.4477153 1-1 1z" fill="#fff"/><ellipse id="Oval" cx="17.5" cy="40" fill="#f9eab0" rx="2.5" ry="2"/><ellipse id="Oval" cx="36.5" cy="40" fill="#f9eab0" rx="2.5" ry="2"/><path id="Shape" d="m29 41h-4c-.5522847 0-1-.4477153-1-1s.4477153-1 1-1h4c.5522847 0 1 .4477153 1 1s-.4477153 1-1 1z" fill="#fff"/><path id="Shape" d="m54 10v3h-54v-3c0-3.3137085 2.6862915-6 6-6h42c3.3137085 0 6 2.6862915 6 6z" fill="#e64c3c"/><g fill="#f0c419"><rect id="Rectangle-path" height="8" rx="2" width="4" x="6"/><rect id="Rectangle-path" height="8" rx="2" width="4" x="18"/><rect id="Rectangle-path" height="8" rx="2" width="4" x="32"/><rect id="Rectangle-path" height="8" rx="2" width="4" x="44"/></g></g></g></svg>