<svg height="512" viewBox="0 0 58 58" width="512" xmlns="http://www.w3.org/2000/svg"><g id="Page-1" fill="none" fill-rule="evenodd"><g id="038---Decrease-Speed" fill-rule="nonzero" transform="translate(0 -1)"><circle id="Oval" cx="29" cy="30" fill="#547580" r="29"/><circle id="Oval" cx="29" cy="30" fill="#ecf0f1" r="25"/><path id="Shape" d="m23 43v5h-3c-.5522847 0-1-.4477153-1-1v-3c0-.5522847.4477153-1 1-1z" fill="#35495e"/><path id="Rectangle-path" d="m23 43h4v5h-4z" fill="#547580"/><path id="Rectangle-path" d="m27 43h4v5h-4z" fill="#35495e"/><path id="Rectangle-path" d="m31 43h4v5h-4z" fill="#547580"/><path id="Shape" d="m39 44v3c0 .5522847-.4477153 1-1 1h-3v-5h3c.5522847 0 1 .4477153 1 1z" fill="#35495e"/><path id="Shape" d="m29 12c-.5522847 0-1-.4477153-1-1v-6c0-.55228475.4477153-1 1-1s1 .44771525 1 1v6c0 .5522847-.4477153 1-1 1z" fill="#2c2f38"/><path id="Shape" d="m9.946 20c-.17558875.0003718-.34812995-.0458692-.5-.134l-2.6-1.5c-.31195078-.1773616-.50495322-.5082732-.5057421-.8671183-.00078889-.3588451.19075673-.6906021.50192468-.8693336.31116795-.1787314.694247-.1770325 1.00381742.0044519l2.6 1.5c.3919413.2263139.5830208.6876562.4658809 1.1248223-.1171398.4371661-.5132928.7411578-.9658809.7411777z" fill="#547580"/><path id="Shape" d="m10 31h-6c-.55228475 0-1-.4477153-1-1s.44771525-1 1-1h6c.5522847 0 1 .4477153 1 1s-.4477153 1-1 1z" fill="#2c2f38"/><g fill="#547580"><path id="Shape" d="m7.351 43.5c-.45258806-.0000199-.84874105-.3040116-.96588095-.7411777s.07393969-.8985084.46588095-1.1248223l2.6-1.5c.30957042-.1814844.6926495-.1831833 1.0038174-.0044519.311168.1787315.5027136.5104885.5019247.8693336s-.1937913.6897567-.5057421.8671183l-2.6 1.5c-.15201675.0877772-.32446103.1339923-.5.134z"/><path id="Shape" d="m40 11.947c-.3570824-.000366-.6868739-.1911096-.8652566-.5004437s-.1782849-.6903138.0002566-.9995563l1.5-2.6c.1773616-.31195078.5082732-.50495322.8671183-.5057421.3588451-.00078889.6906021.19075673.8693336.50192468.1787314.31116795.1770325.694247-.0044519 1.00381742l-1.5 2.6c-.1788068.3097028-.5093863.5003484-.867.5z"/><path id="Shape" d="m48.054 20c-.4525881-.0000199-.8487411-.3040116-.9658809-.7411777-.1171399-.4371661.0739396-.8985084.4658809-1.1248223l2.6-1.5c.3095704-.1814844.6926495-.1831833 1.0038174-.0044519.311168.1787315.5027136.5104885.5019247.8693336s-.1937913.6897567-.5057421.8671183l-2.6 1.5c-.1518701.0881308-.3244113.1343718-.5.134z"/></g><path id="Shape" d="m54 31h-6c-.5522847 0-1-.4477153-1-1s.4477153-1 1-1h6c.5522847 0 1 .4477153 1 1s-.4477153 1-1 1z" fill="#2c2f38"/><path id="Shape" d="m50.649 43.5c-.175539-.0000077-.3479833-.0462228-.5-.134l-2.6-1.5c-.3119508-.1773616-.5049532-.5082732-.5057421-.8671183s.1907567-.6906021.5019247-.8693336c.3111679-.1787314.694247-.1770325 1.0038174.0044519l2.6 1.5c.3919413.2263139.5830208.6876562.4658809 1.1248223-.1171398.4371661-.5132928.7411578-.9658809.7411777z" fill="#547580"/><path id="Shape" d="m24 36c-.4043959-.0000863-.7689341-.2437275-.923678-.6173454-.1547439-.373618-.0692299-.8036603.216678-1.0896546l19.5-19.5c.3923789-.3789722 1.0160848-.3735524 1.4018186.0121814s.3911536 1.0094397.0121814 1.4018186l-19.5 19.5c-.1874927.1875494-.4418052.2929434-.707.293z" fill="#c03a2b"/><path id="Shape" d="m29 56c-14.3594035 0-26-11.6405965-26-26s11.6405965-26 26-26 26 11.6405965 26 26c-.0159821 14.3527783-11.6472217 25.9840179-26 26zm0-50c-13.254834 0-24 10.745166-24 24s10.745166 24 24 24 24-10.745166 24-24c-.0154295-13.2484376-10.7515624-23.98457048-24-24z" fill="#2c3e50"/><circle id="Oval" cx="29" cy="30" fill="#2c3e50" r="3"/><path id="Shape" d="m1.136 10h21.728c.4356593-.03977256.8486923.2007996 1.0290394.5993668s.088416.8676299-.2290394 1.1686332l-10.864 9.932c-.4572291.402934-1.1427709.402934-1.6 0l-10.866-9.932c-.31787897-.3012301-.4097702-.7708961-.2288576-1.1697159.18091261-.3988199.59482404-.63904373 1.0308576-.5982841z" fill="#e64c3c"/><path id="Shape" d="m1.136 1h21.728c.4356593-.03977256.8486923.2007996 1.0290394.59936678.1803471.39856719.088416.86762991-.2290394 1.16863322l-10.864 9.932c-.4572291.402934-1.1427709.402934-1.6 0l-10.866-9.932c-.31787897-.3012301-.4097702-.77089614-.2288576-1.16971595.18091261-.39881981.59482404-.63904368 1.0308576-.59828405z" fill="#c03a2b"/></g></g></svg>