<svg height="512" viewBox="0 0 58 58" width="512" xmlns="http://www.w3.org/2000/svg"><g id="Page-1" fill="none" fill-rule="evenodd"><g id="039---Speed-up" fill-rule="nonzero" transform="translate(0 -1)"><circle id="Oval" cx="29" cy="30" fill="#547580" r="29"/><circle id="Oval" cx="29" cy="30" fill="#ecf0f1" r="25"/><path id="Shape" d="m23 43v5h-3c-.5522847 0-1-.4477153-1-1v-3c0-.5522847.4477153-1 1-1z" fill="#35495e"/><path id="Rectangle-path" d="m23 43h4v5h-4z" fill="#547580"/><path id="Rectangle-path" d="m27 43h4v5h-4z" fill="#35495e"/><path id="Rectangle-path" d="m31 43h4v5h-4z" fill="#547580"/><path id="Shape" d="m39 44v3c0 .5522847-.4477153 1-1 1h-3v-5h3c.5522847 0 1 .4477153 1 1z" fill="#35495e"/><path id="Shape" d="m29 12c-.5522847 0-1-.4477153-1-1v-6c0-.55228475.4477153-1 1-1s1 .44771525 1 1v6c0 .5522847-.4477153 1-1 1z" fill="#2c2f38"/><path id="Shape" d="m18 11.947c-.3576137.0003484-.6881932-.1902972-.867-.5l-1.5-2.6c-.1814844-.30957042-.1831833-.69264947-.0044519-1.00381742.1787315-.31116795.5104885-.50271357.8693336-.50192468.3588451.00078888.6897567.19379132.8671183.5057421l1.5 2.6c.1785415.3092425.1786393.6902222.0002566.9995563s-.5081742.5000777-.8652566.5004437z" fill="#547580"/><path id="Shape" d="m9.946 20c-.17558875.0003718-.34812995-.0458692-.5-.134l-2.6-1.5c-.31195078-.1773616-.50495322-.5082732-.5057421-.8671183-.00078889-.3588451.19075673-.6906021.50192468-.8693336.31116795-.1787314.694247-.1770325 1.00381742.0044519l2.6 1.5c.3919413.2263139.5830208.6876562.4658809 1.1248223-.1171398.4371661-.5132928.7411578-.9658809.7411777z" fill="#547580"/><path id="Shape" d="m10 31h-6c-.55228475 0-1-.4477153-1-1s.44771525-1 1-1h6c.5522847 0 1 .4477153 1 1s-.4477153 1-1 1z" fill="#2c2f38"/><path id="Shape" d="m7.351 43.5c-.45258806-.0000199-.84874105-.3040116-.96588095-.7411777s.07393969-.8985084.46588095-1.1248223l2.6-1.5c.30957042-.1814844.6926495-.1831833 1.0038174-.0044519.311168.1787315.5027136.5104885.5019247.8693336s-.1937913.6897567-.5057421.8671183l-2.6 1.5c-.15201675.0877772-.32446103.1339923-.5.134z" fill="#547580"/><path id="Shape" d="m54 31h-6c-.5522847 0-1-.4477153-1-1s.4477153-1 1-1h6c.5522847 0 1 .4477153 1 1s-.4477153 1-1 1z" fill="#2c2f38"/><path id="Shape" d="m50.649 43.5c-.175539-.0000077-.3479833-.0462228-.5-.134l-2.6-1.5c-.3119508-.1773616-.5049532-.5082732-.5057421-.8671183s.1907567-.6906021.5019247-.8693336c.3111679-.1787314.694247-.1770325 1.0038174.0044519l2.6 1.5c.3919413.2263139.5830208.6876562.4658809 1.1248223-.1171398.4371661-.5132928.7411578-.9658809.7411777z" fill="#547580"/><path id="Shape" d="m29 56c-14.3594035 0-26-11.6405965-26-26s11.6405965-26 26-26 26 11.6405965 26 26c-.0159821 14.3527783-11.6472217 25.9840179-26 26zm0-50c-13.254834 0-24 10.745166-24 24s10.745166 24 24 24 24-10.745166 24-24c-.0154295-13.2484376-10.7515624-23.98457048-24-24z" fill="#2c3e50"/><path id="Shape" d="m34 36c-.2651948-.0000566-.5195073-.1054506-.707-.293l-19.5-19.5c-.3789722-.3923789-.3735524-1.0160848.0121814-1.4018186s1.0094397-.3911536 1.4018186-.0121814l19.5 19.5c.2859079.2859943.3714219.7160366.216678 1.0896546-.1547439.3736179-.5192821.6172591-.923678.6173454z" fill="#c03a2b"/><circle id="Oval" cx="29" cy="30" fill="#2c3e50" r="3"/><path id="Shape" d="m56.864 22h-21.729c-.4356593.0397726-.8486923-.2007996-1.0290394-.5993668s-.088416-.8676299.2290394-1.1686332l10.865-9.932c.4575632-.40204851 1.1424368-.40204851 1.6 0l10.864 9.929c.3199968.3005566.4135634.7712788.2328353 1.1713657-.1807281.400087-.5957809.6410546-1.0328353.5996343z" fill="#24ae5f"/><path id="Shape" d="m56.864 13h-21.729c-.4356593.0397726-.8486923-.2007996-1.0290394-.5993668s-.088416-.8676299.2290394-1.1686332l10.865-9.932c.4575632-.40204851 1.1424368-.40204851 1.6 0l10.864 9.929c.3199968.3005566.4135634.7712788.2328353 1.1713657-.1807281.400087-.5957809.6410546-1.0328353.5996343z" fill="#4fba6f"/></g></g></svg>