<svg height="512" viewBox="0 0 60 49" width="512" xmlns="http://www.w3.org/2000/svg"><g id="Page-1" fill="none" fill-rule="evenodd"><g id="041---Rear-Mirror" fill-rule="nonzero"><rect id="Rectangle-path" fill="#90bae1" height="26" rx="4" width="58" x="1" y="22"/><path id="Shape" d="m40 36-3.472-7.812c-.3209752-.7224892-1.0374206-1.1881003-1.828-1.188h-9.4c-.7905794-.0001003-1.5070248.4655108-1.828 1.188l-3.472 7.812z" fill="#b0d3f0"/><path id="Shape" d="m40.461 1.869c-5.3133579 3.17392918-8.5365155 8.935309-8.461 15.124h-4c.0755155-6.188691-3.1476421-11.95007082-8.461-15.124-.3877842-.22801632-.5755831-.68690262-.4589177-1.12136457s.509075-.73754576.9589177-.74063543h19.92c.4502113.00220064.8434425.30498414.9606376.73967987.1171951.43469572-.0705454.89411071-.4586376 1.12232013z" fill="#3f5c6c"/><path id="Shape" d="m25 15.993h10c1.6568542 0 3 1.3431458 3 3v4h-16v-4c0-1.6568542 1.3431458-3 3-3z" fill="#547580"/><path id="Shape" d="m52 48-10-10h-24l-10 10z" fill="#547580"/><path id="Rectangle-path" d="m20 44h4v4h-4z" fill="#2c3e50"/><path id="Rectangle-path" d="m36 44h4v4h-4z" fill="#2c3e50"/><path id="Shape" d="m41.32 36.508-3.879-8.727c-.481615-1.0830115-1.5557292-1.780931-2.741-1.781h-9.4c-1.1852708.000069-2.259385.6979885-2.741 1.781l-3.879 8.727c-.4309702.3761867-.6787943.919942-.68 1.492v4c0 1.1045695.8954305 2 2 2h20c1.1045695 0 2-.8954305 2-2v-4c-.0012057-.572058-.2490298-1.1158133-.68-1.492zm-16.934-7.914c.1604876-.3612446.5187103-.5940502.914-.594h9.4c.3952897-.0000502.7535124.2327554.914.594l3.291 7.406h-17.805z" fill="#3b97d3"/><path id="Shape" d="m55 49h-50c-2.76005315-.0033061-4.99669388-2.2399468-5-5v-18c.00330612-2.7600532 2.23994685-4.9966939 5-5h50c2.7600532.0033061 4.9966939 2.2399468 5 5v18c-.0033061 2.7600532-2.2399468 4.9966939-5 5zm-50-26c-1.65685425 0-3 1.3431458-3 3v18c0 1.6568542 1.34314575 3 3 3h50c1.6568542 0 3-1.3431458 3-3v-18c0-1.6568542-1.3431458-3-3-3z" fill="#3f5c6c"/><path id="Shape" d="m5 29c-.4043959-.0000863-.76893405-.2437275-.92367798-.6173454-.15474393-.373618-.06922994-.8036603.21667798-1.0896546l2-2c.39237889-.3789722 1.01608478-.3735524 1.40181858.0121814.38573379.3857338.39115363 1.0094397.01218142 1.4018186l-2 2c-.18749273.1875494-.44180519.2929434-.707.293z" fill="#fff"/><path id="Shape" d="m6 34c-.4043959-.0000863-.76893405-.2437275-.92367798-.6173454-.15474393-.373618-.06922994-.8036603.21667798-1.0896546l7-7c.3923789-.3789722 1.0160848-.3735524 1.4018186.0121814s.3911536 1.0094397.0121814 1.4018186l-7 7c-.18749273.1875494-.44180519.2929434-.707.293z" fill="#fff"/><circle id="Oval" cx="22" cy="40" fill="#f3d55b" r="1"/><circle id="Oval" cx="38" cy="40" fill="#f3d55b" r="1"/><path id="Shape" d="m33 41h-6c-.5522847 0-1-.4477153-1-1s.4477153-1 1-1h6c.5522847 0 1 .4477153 1 1s-.4477153 1-1 1z" fill="#fff"/><path id="Shape" d="m52 40c-.5522847 0-1-.4477153-1-1v-5c0-.5522847.4477153-1 1-1s1 .4477153 1 1v5c0 .5522847-.4477153 1-1 1z" fill="#cbb292"/><path id="Shape" d="m47 38c-.5522847 0-1-.4477153-1-1v-5c0-.5522847.4477153-1 1-1s1 .4477153 1 1v5c0 .5522847-.4477153 1-1 1z" fill="#cbb292"/><path id="Shape" d="m49.01 31.22c-1.0360743.9370171-2.5817787 1.034911-3.7277885.2360915-1.1460099-.7988195-1.5889955-2.2829182-1.0683522-3.5792136.5206432-1.2962954 1.8671097-2.0616797 3.2472848-1.845884 1.3801751.2157958 2.4287495 1.3556541 2.5288559 2.7490061z" fill="#4fba6f"/><circle id="Oval" cx="52" cy="31" fill="#24ae5f" r="3"/></g></g></svg>