<svg height="512" viewBox="0 0 58 41" width="512" xmlns="http://www.w3.org/2000/svg"><g id="Page-1" fill="none" fill-rule="evenodd"><g id="042---Side-Mirror" fill-rule="nonzero"><path id="Shape" d="m7 13.26c-1.44006211 1.7044743-3.38884279 2.9021332-5.56 3.417-.85601434.246867-1.44402673 1.0321085-1.44 1.923v19.363c.00124744.7057093.37432228 1.3585254.98171548 1.7178313.6073932.359306 1.35918758.3719108 1.97828452.0331687 2.44813155-1.2946695 5.19216933-1.9269014 7.96-1.834z" fill="#3f5c6c"/><path id="Shape" d="m58 17.58v-3.58c0-3.7130309-1.4749958-7.27398564-4.1005051-9.89949494-2.6255093-2.62550929-6.186464-4.10050506-9.8994949-4.10050506h-25c-6.627417 0-12 5.372583-12 12v17c0 6.627417 5.372583 12 12 12h8.328c2.4430071-.0000263 4.8808706-.2239629 7.283-.669l15.21-2.816c4.7400144-.877834 8.1790963-5.012385 8.179-9.833z" fill="#547580"/><path id="Shape" d="m54 14v13.68c-.0000776 2.8932597-2.0648836 5.3743911-4.91 5.9l-15.21 2.82c-2.1604118.3997311-4.3529193.6005715-6.55.6h-8.33c-4.4157658-.0060592-7.9939408-3.5842342-8-8v-17c-.0005666-1.0288791.1998529-2.04796125.59-3 .1095954-.2858029.2399429-.56320924.39-.83.2271518-.41324536.4915842-.8048731.79-1.17 1.5103634-1.89792188 3.8044489-3.00261795 6.23-3h25c5.5191943.00880958 9.9911904 4.48080567 10 10z" fill="#90bae1"/><path id="Shape" d="m50 15c-.5522847 0-1-.4477153-1-1-.0033061-2.7600532-2.2399468-4.99669388-5-5-.5522847 0-1-.44771525-1-1s.4477153-1 1-1c3.8641657.00440864 6.9955914 3.1358343 7 7 0 .5522847-.4477153 1-1 1z" fill="#fff"/><path id="Shape" d="m27 30v3c-.0772281.6167718-.6313189 1.0600444-1.25 1h-2.5c-.6186811.0600444-1.1727719-.3832282-1.25-1v-3z" fill="#2c3e50"/><path id="Shape" d="m27.73 21h4.27c.5522847 0 1-.4477153 1-1v-2c0-.5522847-.4477153-1-1-1h-7.25z" fill="#2c3e50"/><path id="Shape" d="m50 21c-.5522847 0-1-.4477153-1-1v-2c0-.5522847.4477153-1 1-1s1 .4477153 1 1v2c0 .5522847-.4477153 1-1 1z" fill="#fff"/><path id="Shape" d="m28.43 21.31h-17.4300012l.0000012-9.31c-.0005666-1.0288791.1998529-2.04796125.59-3 .1095954-.2858029.2399429-.56320924.39-.83h10.72z" fill="#b0d3f0"/><path id="Shape" d="m29.31 20.54-1.85.77-4.87-11.69c-.1584528-.36927798-.5182471-.61174805-.92-.62h-10.08c.2883752-.7232674.6863692-1.39783342 1.18-2h8.9c1.2075553-.00161943 2.2970505.72471073 2.76 1.84z" fill="#e64c3c"/><path id="Shape" d="m30 22v6c-.0032948 1.1032019-.8967981 1.9967052-2 2h-16.94l-.02-4-.02-2-.02-4h17c1.1045695 0 2 .8954305 2 2z" fill="#e64c3c"/><ellipse id="Oval" cx="24.5" cy="25" fill="#f3d55b" rx="2.5" ry="2"/><path id="Shape" d="m18 25c0 .5522847-.4477153 1-1 1h-5.96l-.02-2h5.98c.5522847 0 1 .4477153 1 1z" fill="#fff"/></g></g></svg>