<svg height="512" viewBox="0 0 60 58" width="512" xmlns="http://www.w3.org/2000/svg"><g id="Page-1" fill="none" fill-rule="evenodd"><g id="046---License-Plate" fill-rule="nonzero"><path id="Shape" d="m42.53 27h12.47c2.209139 0 4 1.790861 4 4v22c0 2.209139-1.790861 4-4 4h-50c-2.209139 0-4-1.790861-4-4v-22c0-2.209139 1.790861-4 4-4z" fill="#ecf0f1"/><path id="Shape" d="m55 58h-50c-2.76005315-.0033061-4.99669388-2.2399468-5-5v-22c.00330612-2.7600532 2.23994685-4.9966939 5-5h50c2.7600532.0033061 4.9966939 2.2399468 5 5v22c-.0033061 2.7600532-2.2399468 4.9966939-5 5zm-50-30c-1.65685425 0-3 1.3431458-3 3v22c0 1.6568542 1.34314575 3 3 3h50c1.6568542 0 3-1.3431458 3-3v-22c0-1.6568542-1.3431458-3-3-3z" fill="#2980ba"/><path id="Shape" d="m19 54h-6c-.5522847 0-1-.4477153-1-1s.4477153-1 1-1h6c.5522847 0 1 .4477153 1 1s-.4477153 1-1 1z" fill="#4482c3"/><path id="Shape" d="m33 54h-6c-.5522847 0-1-.4477153-1-1s.4477153-1 1-1h6c.5522847 0 1 .4477153 1 1s-.4477153 1-1 1z" fill="#4482c3"/><path id="Shape" d="m47 54h-6c-.5522847 0-1-.4477153-1-1s.4477153-1 1-1h6c.5522847 0 1 .4477153 1 1s-.4477153 1-1 1z" fill="#4482c3"/><g fill="#2c3e50"><path id="Shape" d="m9 46v-10c-.00008635-.4043959-.2437275-.7689341-.61734544-.923678s-.80366031-.0692299-1.08965456.216678l-2 2c-.37897221.3923789-.37355237 1.0160848.01218142 1.4018186.3857338.3857338 1.00943969.3911536 1.40181858.0121814l.293-.293v7.586h-2c-.55228475 0-1 .4477153-1 1s.44771525 1 1 1h4c.55228475 0 1-.4477153 1-1s-.44771525-1-1-1z"/><path id="Shape" d="m14.5 35c-2.0656278.1490337-3.6264835 1.9328688-3.5 4 0 .5522847.4477153 1 1 1s1-.4477153 1-1c0-1.084.687-2 1.5-2s1.5.916 1.5 2c0 3.467-4.579 7.183-4.625 7.22-.3309466.2655121-.4583133.7109654-.3177482 1.111295.1405652.4003296.518458.6683744.9427482.668705h5c.5522847 0 1-.4477153 1-1s-.4477153-1-1-1h-2.49c1.551-1.661 3.49-4.283 3.49-7 .1264835-2.0671312-1.4343722-3.8509663-3.5-4z"/><path id="Shape" d="m23.5 35c-1.9998483.0738257-3.5641064 1.7498166-3.5 3.75 0 .5522847.4477153 1 1 1s1-.4477153 1-1c-.0627536-.8953975.605539-1.6750722 1.5-1.75.8627537.1340576 1.4990791.8768932 1.4990791 1.75s-.6363254 1.6159424-1.4990791 1.75c-.5522847 0-1 .4477153-1 1s.4477153 1 1 1c.8627537.1340576 1.4990791.8768932 1.4990791 1.75s-.6363254 1.6159424-1.4990791 1.75c-.894461-.0749278-1.5627536-.8546025-1.5-1.75 0-.5522847-.4477153-1-1-1s-1 .4477153-1 1c-.0641064 2.0001834 1.5001517 3.6761743 3.5 3.75 1.9998483-.0738257 3.5641064-1.7498166 3.5-3.75.0063741-1.0295535-.3977652-2.019209-1.123-2.75.7252348-.730791 1.1293741-1.7204465 1.123-2.75.0641064-2.0001834-1.5001517-3.6761743-3.5-3.75z"/><path id="Shape" d="m35.97 34.758c-.1114998-.4448894-.5113511-.7568951-.97-.7568951s-.8585002.3120057-.97.7568951l-3 12c-.0959435.3498693.0051249.72426.2641012.9783171.2589762.2540571.635236.3479281.9832013.2452935.3479652-.1026346.6130526-.385675.6926975-.7396106l.81-3.242h2.44l.81 3.242c.1110708.4453282.5110295.7578732.97.758.0819126-.0001775.1635037-.0102505.243-.03.5356209-.1337816.8614945-.6763075.728-1.212zm-1.689 7.242.719-2.877.719 2.877z"/><path id="Shape" d="m44 34h-3c-.5522847 0-1 .4477153-1 1v12c0 .5522847.4477153 1 1 1h3c1.6568542 0 3-1.3431458 3-3v-2c-.0026037-.740399-.2806479-1.4533329-.78-2 .4993521-.5466671.7773963-1.259601.78-2v-2c0-1.6568542-1.3431458-3-3-3zm-2 2h2c.5522847 0 1 .4477153 1 1v2c0 .5522847-.4477153 1-1 1h-2zm3 9c0 .5522847-.4477153 1-1 1h-2v-4h2c.5522847 0 1 .4477153 1 1z"/><path id="Shape" d="m55 43c-.5522847 0-1 .4477153-1 1 0 1.1045695-.8954305 2-2 2s-2-.8954305-2-2v-6c0-1.1045695.8954305-2 2-2s2 .8954305 2 2c0 .5522847.4477153 1 1 1s1-.4477153 1-1c0-2.209139-1.790861-4-4-4s-4 1.790861-4 4v6c0 2.209139 1.790861 4 4 4s4-1.790861 4-4c0-.5522847-.4477153-1-1-1z"/></g><path id="Shape" d="m10.09 15.355c-.12001324.4216261-.12001324.8683739 0 1.29 2.375 8.273 10.388 14.355 19.91 14.355s17.535-6.082 19.91-14.355c.1200132-.4216261.1200132-.8683739 0-1.29-2.375-8.273-10.388-14.355-19.91-14.355s-17.535 6.082-19.91 14.355z" fill="#fff"/><path id="Shape" d="m30 32c-9.74 0-18.322-6.2-20.871-15.079-.17401178-.601671-.17401178-1.240329 0-1.842 2.549-8.879 11.131-15.079 20.871-15.079s18.322 6.2 20.871 15.079c.1740118.601671.1740118 1.240329 0 1.842-2.549 8.879-11.131 15.079-20.871 15.079zm0-30c-8.853 0-16.645 5.605-18.949 13.631-.0690236.2411583-.0690236.4968417 0 .738 2.304 8.031 10.096 13.631 18.949 13.631s16.645-5.6 18.949-13.631c.0690236-.2411583.0690236-.4968417 0-.738-2.304-8.026-10.096-13.631-18.949-13.631z" fill="#f09372"/><circle id="Oval" cx="30" cy="16" fill="#3b97d3" r="11"/><circle id="Oval" cx="30" cy="16" fill="#285680" r="4"/><circle id="Oval" cx="27" cy="13" fill="#fff" r="2"/></g></g></svg>