<svg height="512" viewBox="0 0 58 58" width="512" xmlns="http://www.w3.org/2000/svg"><g id="Page-1" fill="none" fill-rule="evenodd"><g id="050---Car-Maintenance" fill-rule="nonzero"><path id="Shape" d="m56.493 25.623-2.686-.671c-.7343116-.1922368-1.2994502-.7789927-1.464-1.52-.5875811-2.4729261-1.5665932-4.8360588-2.9-7-.4076901-.6406265-.4231285-1.4553888-.04-2.111l1.424-2.373c.4694702-.7828724.3457739-1.7848121-.3-2.43l-2.044-2.047c-.6451879-.64577393-1.6471276-.76947019-2.43-.3l-2.373 1.429c-.6557307.38266966-1.4702367.36723611-2.111-.04-2.1639412-1.33340678-4.5270739-2.31241892-7-2.9-.7410073-.16454981-1.3277632-.72968842-1.52-1.464l-.671-2.686c-.2205697-.88744566-1.0175544-1.51034778-1.932-1.51h-2.892c-.9131988-.00023173-1.7093543.62110766-1.931 1.507l-.671 2.686c-.1922368.73431158-.7789927 1.29945019-1.52 1.464-2.4729261.58758108-4.8360588 1.56659322-7 2.9-.6407633.40723611-1.4552693.42266966-2.111.04l-2.374-1.425c-.7828724-.46947019-1.7848121-.34577393-2.43.3l-2.046 2.045c-.64577393.6451879-.76947019 1.6471276-.3 2.43l1.429 2.373c.38312854.6556112.36769012 1.4703735-.04 2.111-1.33340678 2.1639412-2.31241892 4.5270739-2.9 7-.16454981.7410073-.72968842 1.3277632-1.464 1.52l-2.686.671c-.88723887.2208884-1.50998859 1.0176781-1.51 1.932v2.892c.00012634.9130756.62131414 1.7090369 1.507 1.931l2.686.671c.73431158.1922368 1.29945019.7789927 1.464 1.52.58758108 2.4729261 1.56659322 4.8360588 2.9 7 .40902957.6403016.42562853 1.4555804.043 2.112l-1.428 2.372c-.46925737.7832598-.34559714 1.7853199.3 2.431l2.046 2.046c.6451879.6457739 1.6471276.7694702 2.43.3l2.372-1.429c.6557307-.3826697 1.4702367-.3672361 2.111.04 2.1639412 1.3334068 4.5270739 2.3124189 7 2.9.7410073.1645498 1.3277632.7296884 1.52 1.464l.671 2.686c.2205697.8874457 1.0175544 1.5103478 1.932 1.51h2.892c.9131988.0002317 1.7093543-.6211077 1.931-1.507l.671-2.686c.1922368-.7343116.7789927-1.2994502 1.52-1.464 2.4729261-.5875811 4.8360588-1.5665932 7-2.9.6407633-.4072361 1.4552693-.4226697 2.111-.04l2.373 1.424c.7828724.4694702 1.7848121.3457739 2.43-.3l2.046-2.046c.6455971-.6456801.7692574-1.6477402.3-2.431l-1.428-2.37c-.3831285-.6556112-.3676901-1.4703735.04-2.111 1.3334068-2.1639412 2.3124189-4.5270739 2.9-7 .1645498-.7410073.7296884-1.3277632 1.464-1.52l2.686-.671c.8872389-.2208884 1.5099886-1.0176781 1.51-1.932v-2.892c-.0001263-.9130756-.6213141-1.7090369-1.507-1.931z" fill="#3f5c6c"/><circle id="Oval" cx="29" cy="29" fill="#d1d4d1" r="20"/><path id="Shape" d="m19 34h4v5c0 .5522847-.4477153 1-1 1h-2c-.5522847 0-1-.4477153-1-1z" fill="#35495e"/><path id="Shape" d="m38 40h-2c-.6049136-.0601559-1.049913-.5941553-1-1.2v-4.8h4v4.8c.049913.6058447-.3950864 1.1398441-1 1.2z" fill="#35495e"/><path id="Shape" d="m39 27-3.472-7.812c-.3209752-.7224892-1.0374206-1.1881003-1.828-1.188h-9.4c-.7905794-.0001003-1.5070248.4655108-1.828 1.188l-3.472 7.812z" fill="#b0d3f0"/><path id="Shape" d="m40.32 27.508-3.879-8.727c-.481615-1.0830115-1.5557292-1.780931-2.741-1.781h-9.4c-1.1856334-.0003261-2.2602377.6976572-2.742 1.781l-3.878 8.727c-.4309702.3761867-.6787943.919942-.68 1.492v4c0 1.1045695.8954305 2 2 2h20c1.1045695 0 2-.8954305 2-2v-4c-.0012057-.572058-.2490298-1.1158133-.68-1.492zm-16.935-7.914c.1606347-.3615763.5193478-.5944458.915-.594h9.4c.3952897-.0000502.7535124.2327554.914.594l3.292 7.406h-17.812z" fill="#3b97d3"/><circle id="Oval" cx="21" cy="31" fill="#f9eab0" r="1"/><circle id="Oval" cx="37" cy="31" fill="#f9eab0" r="1"/><path id="Shape" d="m32 32h-6c-.5522847 0-1-.4477153-1-1s.4477153-1 1-1h6c.5522847 0 1 .4477153 1 1s-.4477153 1-1 1z" fill="#fff"/></g></g></svg>