<svg height="512pt" viewBox="0 0 512 512" width="512pt" xmlns="http://www.w3.org/2000/svg"><path d="m336 512h-160v-272c0-17.671875-14.328125-32-32-32h-120c-13.253906 0-24-10.746094-24-24s10.746094-24 24-24h464c13.253906 0 24 10.746094 24 24s-10.746094 24-24 24h-120c-17.671875 0-32 14.328125-32 32zm0 0" fill="#f0d39c"/><path d="m272 512h-32v-176c0-8.835938 7.164062-16 16-16s16 7.164062 16 16zm0 0" fill="#e5bd76"/><path d="m320 64c0 35.347656-28.652344 64-64 64s-64-28.652344-64-64 28.652344-64 64-64 64 28.652344 64 64zm0 0" fill="#f0d39c"/></svg>