<svg height="512pt" viewBox="0 0 512 512" width="512pt" xmlns="http://www.w3.org/2000/svg"><path d="m248 88c0 48.601562-39.398438 88-88 88s-88-39.398438-88-88 39.398438-88 88-88 88 39.398438 88 88zm0 0" fill="#f0d39c"/><path d="m320 512h-320v-224c.0546875-44.160156 35.839844-79.945312 80-80h160c44.160156.054688 79.945312 35.839844 80 80zm0 0" fill="#f0d39c"/><path d="m96 512h-32v-176c0-8.835938 7.164062-16 16-16s16 7.164062 16 16zm0 0" fill="#e5bd76"/><path d="m477.007812 342.398438 30.304688-41.359376-33.488281-57.984374-50.960938 5.554687-16.703125-9.601563-20.6875-47.007812h-66.945312l-20.6875 46.929688-16.703125 9.597656-50.960938-5.550782-33.488281 57.984376 30.304688 41.4375v19.203124l-30.304688 41.359376 33.488281 57.984374 50.960938-5.554687 16.703125 9.601563 20.6875 47.007812h66.945312l20.6875-46.929688 16.703125-9.597656 50.960938 5.550782 33.488281-57.984376-30.304688-41.4375zm-125.007812 57.601562c-26.507812 0-48-21.492188-48-48s21.492188-48 48-48 48 21.492188 48 48-21.492188 48-48 48zm0 0" fill="#448aff"/><g fill="#82b1ff"><path d="m480 64h32v32h-32zm0 0"/><path d="m480 0h32v32h-32zm0 0"/><path d="m480 128h32v32h-32zm0 0"/><path d="m384 96h32v32h-32zm0 0"/><path d="m384 32h32v32h-32zm0 0"/></g></svg>