<svg height="508pt" viewBox="-2 0 508 508.70254" width="508pt" xmlns="http://www.w3.org/2000/svg"><path d="m91.664062 505.503906c-7.070312-5.304687-8.503906-15.332031-3.199218-22.402344l38.398437-51.199218 25.601563 19.199218-38.402344 51.199219c-5.300781 7.070313-15.328125 8.503907-22.398438 3.203125zm0 0" fill="#57565c"/><path d="m405.261719 502.300781-38.398438-51.199219 25.601563-19.199218 38.398437 51.199218c5.300781 7.070313 3.871094 17.097657-3.199219 22.402344-7.070312 5.300782-17.097656 3.867188-22.402343-3.203125zm0 0" fill="#57565c"/><path d="m491.664062 252.703125c0 132.546875-107.453124 240-240 240-132.550781 0-240-107.453125-240-240 0-132.550781 107.449219-240 240-240 132.546876 0 240 107.449219 240 240zm0 0" fill="#ff7761"/><path d="m459.664062 252.703125c0 114.875-93.125 208-208 208s-208-93.125-208-208 93.125-208 208-208 208 93.125 208 208zm0 0" fill="#e4edfb"/><path d="m419.664062 4.699219c6.25-6.246094 16.378907-6.246094 22.628907 0l57.371093 57.375c6.25 6.246093 6.25 16.378906 0 22.625-6.25 6.25-16.378906 6.25-22.628906 0l-57.371094-57.371094c-6.246093-6.25-6.246093-16.378906 0-22.628906zm0 0" fill="#ff7761"/><path d="m267.664062 252.703125h-32v-144c0-8.835937 7.164063-16 16-16 8.835938 0 16 7.164063 16 16zm0 0" fill="#57565c"/><path d="m155.664062 340.703125c-5.300781-7.070313-3.871093-17.097656 3.199219-22.402344l51.199219-38.398437 19.199219 25.601562-51.199219 38.398438c-7.070312 5.300781-17.097656 3.871094-22.398438-3.199219zm0 0" fill="#57565c"/><path d="m480.351562 504.015625-21.792968-21.792969 22.625-22.625 21.792968 21.792969zm-44.417968-44.417969-390.398438-390.398437 22.6875-22.542969 390.402344 390.398438zm-412.957032-412.960937-22.625-22.621094 22.625-22.625 22.621094 22.625zm0 0" fill="#2d2d30"/></svg>