<svg height="508pt" viewBox="-1 0 508 508.70254" width="508pt" xmlns="http://www.w3.org/2000/svg"><path d="m93.0625 505.503906c-7.070312-5.304687-8.5-15.332031-3.199219-22.402344l38.398438-51.199218 25.601562 19.199218-38.398437 51.199219c-5.304688 7.070313-15.332032 8.503907-22.402344 3.203125zm0 0" fill="#57565c"/><path d="m406.664062 502.300781-38.402343-51.199219 25.601562-19.199218 38.398438 51.199218c5.304687 7.070313 3.871093 17.097657-3.199219 22.402344-7.070312 5.300782-17.097656 3.867188-22.398438-3.203125zm0 0" fill="#57565c"/><path d="m493.0625 252.703125c0 132.546875-107.449219 240-240 240-132.546875 0-240-107.453125-240-240 0-132.550781 107.453125-240 240-240 132.550781 0 240 107.449219 240 240zm0 0" fill="#ff7761"/><path d="m461.0625 252.703125c0 114.875-93.125 208-208 208s-208-93.125-208-208 93.125-208 208-208 208 93.125 208 208zm0 0" fill="#e4edfb"/><path d="m5.050781 62.082031 57.375-57.375c6.246094-6.246093 16.378907-6.246093 22.625 0 6.25 6.25 6.25 16.378907 0 22.628907l-57.371093 57.371093c-6.25 6.25-16.378907 6.25-22.628907 0-6.246093-6.246093-6.246093-16.378906 0-22.625zm0 0" fill="#ff7761"/><path d="m421.066406 4.699219c6.246094-6.246094 16.378906-6.246094 22.625 0l57.371094 57.375c6.25 6.246093 6.25 16.378906 0 22.625-6.246094 6.25-16.378906 6.25-22.625 0l-57.371094-57.371094c-6.25-6.25-6.25-16.378906 0-22.628906zm0 0" fill="#ff7761"/><path d="m222.246094 330.140625-78.6875-62.957031c-6.894532-5.519532-8.011719-15.582032-2.496094-22.480469 5.515625-6.84375 15.515625-7.957031 22.402344-2.496094l56.335937 45.054688 41.871094-41.886719 22.640625 22.640625zm84.800781-84.796875-22.625-22.625 22.625-22.625 22.625 22.625zm45.214844-45.21875-22.621094-22.621094 22.621094-22.625 22.625 22.625zm0 0" fill="#57565c"/></svg>