<svg height="508pt" viewBox="-1 0 508 508.70254" width="508pt" xmlns="http://www.w3.org/2000/svg"><path d="m93.0625 505.503906c-7.070312-5.304687-8.5-15.332031-3.199219-22.402344l38.398438-51.199218 25.601562 19.199218-38.398437 51.199219c-5.304688 7.070313-15.332032 8.503907-22.402344 3.203125zm0 0" fill="#57565c"/><path d="m406.664062 502.300781-38.402343-51.199219 25.601562-19.199218 38.398438 51.199218c5.304687 7.070313 3.871093 17.097657-3.199219 22.402344-7.070312 5.300782-17.097656 3.867188-22.398438-3.203125zm0 0" fill="#57565c"/><path d="m493.0625 252.703125c0 132.546875-107.449219 240-240 240-132.546875 0-240-107.453125-240-240 0-132.550781 107.453125-240 240-240 132.550781 0 240 107.449219 240 240zm0 0" fill="#ff7761"/><path d="m461.0625 252.703125c0 114.875-93.125 208-208 208s-208-93.125-208-208 93.125-208 208-208 208 93.125 208 208zm0 0" fill="#e4edfb"/><path d="m5.050781 62.082031 57.375-57.375c6.246094-6.246093 16.378907-6.246093 22.625 0 6.25 6.25 6.25 16.378907 0 22.628907l-57.371093 57.371093c-6.25 6.25-16.378907 6.25-22.628907 0-6.246093-6.246093-6.246093-16.378906 0-22.625zm0 0" fill="#ff7761"/><path d="m421.066406 4.699219c6.246094-6.246094 16.378906-6.246094 22.625 0l57.371094 57.375c6.25 6.246093 6.25 16.378906 0 22.625-6.246094 6.25-16.378906 6.25-22.625 0l-57.371094-57.371094c-6.25-6.25-6.25-16.378906 0-22.628906zm0 0" fill="#ff7761"/><path d="m253.0625 92.703125c8.835938 0 16 7.164063 16 16v96c0 8.835937-7.164062 16-16 16s-16-7.164063-16-16v-96c0-8.835937 7.164062-16 16-16zm0 0" fill="#57565c"/><path d="m285.070312 304.421875c6.25-6.25 16.378907-6.25 22.628907 0l33.929687 33.929687c6.25 6.246094 6.25 16.378907 0 22.625-6.246094 6.25-16.378906 6.25-22.628906 0l-33.929688-33.929687c-6.246093-6.246094-6.246093-16.378906 0-22.625zm0 0" fill="#57565c"/><path d="m237.0625 252.703125h32v32h-32zm0 0" fill="#fff"/></svg>