<svg height="512pt" viewBox="0 0 512 512" width="512pt" xmlns="http://www.w3.org/2000/svg"><path d="m48 0h416c26.507812 0 48 21.492188 48 48v416c0 26.507812-21.492188 48-48 48h-416c-26.507812 0-48-21.492188-48-48v-416c0-26.507812 21.492188-48 48-48zm0 0" fill="#6ae5d3"/><g fill="#0ac1a7"><path d="m128 80c8.835938 0 16 7.164062 16 16v320c0 8.835938-7.164062 16-16 16s-16-7.164062-16-16v-320c0-8.835938 7.164062-16 16-16zm0 0"/><path d="m256 80c8.835938 0 16 7.164062 16 16v320c0 8.835938-7.164062 16-16 16s-16-7.164062-16-16v-320c0-8.835938 7.164062-16 16-16zm0 0"/><path d="m384 80c8.835938 0 16 7.164062 16 16v320c0 8.835938-7.164062 16-16 16s-16-7.164062-16-16v-320c0-8.835938 7.164062-16 16-16zm0 0"/></g><path d="m96 224h64c8.835938 0 16 7.164062 16 16s-7.164062 16-16 16h-64c-8.835938 0-16-7.164062-16-16s7.164062-16 16-16zm0 0" fill="#fff"/><path d="m224 352h64c8.835938 0 16 7.164062 16 16s-7.164062 16-16 16h-64c-8.835938 0-16-7.164062-16-16s7.164062-16 16-16zm0 0" fill="#fff"/><path d="m352 160h64c8.835938 0 16 7.164062 16 16s-7.164062 16-16 16h-64c-8.835938 0-16-7.164062-16-16s7.164062-16 16-16zm0 0" fill="#fff"/></svg>