<svg height="512pt" viewBox="-64 0 512 512" width="512pt" xmlns="http://www.w3.org/2000/svg"><path d="m384 512h-336c-26.507812 0-48-21.492188-48-48v-416h32c0 8.835938 7.164062 16 16 16h336zm0 0" fill="#ff7761"/><path d="m384 96h-336c-26.507812 0-48-21.492188-48-48s21.492188-48 48-48h336zm0 0" fill="#e4edfb"/><path d="m320 230.207031-64-21.34375-64 21.34375v-134.207031h128zm0 0" fill="#ffda6b"/><g fill="#fff"><path d="m112 320h160c8.835938 0 16 7.164062 16 16s-7.164062 16-16 16h-160c-8.835938 0-16-7.164062-16-16s7.164062-16 16-16zm0 0"/><path d="m112 384h32c8.835938 0 16 7.164062 16 16s-7.164062 16-16 16h-32c-8.835938 0-16-7.164062-16-16s7.164062-16 16-16zm0 0"/><path d="m256 384h32v32h-32zm0 0"/><path d="m192 384h32v32h-32zm0 0"/></g></svg>