<svg height="512pt" viewBox="-64 0 512 512" width="512pt" xmlns="http://www.w3.org/2000/svg"><path d="m384 512h-336c-26.507812 0-48-21.492188-48-48v-416h32c0 8.835938 7.164062 16 16 16h336zm0 0" fill="#6ae5d3"/><path d="m96 176h192c17.671875 0 32 14.328125 32 32v96c0 17.671875-14.328125 32-32 32h-192c-17.671875 0-32-14.328125-32-32v-96c0-17.671875 14.328125-32 32-32zm0 0" fill="#0ac1a7"/><path d="m144 240h96c8.835938 0 16 7.164062 16 16s-7.164062 16-16 16h-96c-8.835938 0-16-7.164062-16-16s7.164062-16 16-16zm0 0" fill="#fff"/><path d="m384 96h-336c-26.507812 0-48-21.492188-48-48s21.492188-48 48-48h336zm0 0" fill="#e4edfb"/></svg>