<svg height="504pt" viewBox="-60 0 504 504.864" width="504pt" xmlns="http://www.w3.org/2000/svg"><path d="m384.433594 504.847656-192-87.246094-192 87.246094v-472.847656c0-17.671875 14.324218-32 32-32h320c17.671875 0 32 14.328125 32 32zm0 0" fill="#ffda6b"/><path d="m336.433594 112c8.835937 0 16 7.164062 16 16v224c0 8.835938-7.164063 16-16 16-8.839844 0-16-7.164062-16-16v-224c0-8.835938 7.160156-16 16-16zm0 0" fill="#fff"/><path d="m.433594 504.847656 192-87.246094 192 87.261719c-.003906-29.230469-17.089844-55.757812-43.699219-67.855469l-148.300781-67.40625-148.304688 67.390626c-26.609375 12.09375-43.695312 38.625-43.695312 67.855468zm0 0" fill="#f5cd00"/><g fill="#fff"><path d="m48.433594 32h32v32h-32zm0 0"/><path d="m112.433594 32h32v32h-32zm0 0"/></g></svg>