<svg height="512pt" viewBox="0 0 512.00021 512" width="512pt" xmlns="http://www.w3.org/2000/svg"><path d="m432 256c0 97.203125-78.796875 176-176 176s-176-78.796875-176-176 78.796875-176 176-176 176 78.796875 176 176zm0 0" fill="#ffda6b"/><path d="m256 432c-97.203125 0-176-78.796875-176-176s78.796875-176 176-176zm0 0" fill="#ff7761"/><path d="m256.273438 512h-.273438c-11.0625-.003906-22.113281-.710938-33.089844-2.113281l4.097656-31.742188c9.613282 1.238281 19.296876 1.855469 28.992188 1.855469l2.433594.191406-2.160156 14.066406zm97.933593-19.519531-12.304687-29.519531c9.015625-3.773438 17.78125-8.121094 26.242187-13.007813l16 27.695313c-9.648437 5.585937-19.648437 10.546874-29.9375 14.847656zm-225.917969-14.558594c-9.664062-5.585937-18.957031-11.789063-27.824218-18.5625l19.421875-25.4375c7.777343 5.945313 15.925781 11.382813 24.402343 16.285156zm330.910157-66.144531-25.375-19.488282c5.933593-7.738281 11.367187-15.851562 16.253906-24.289062l27.699219 16c-5.578125 9.65625-11.78125 18.9375-18.578125 27.777344zm-424.703125-27.359375c-5.613282-9.652344-10.582032-19.664063-14.878906-29.96875l29.550781-12.304688c3.753906 9.003907 8.09375 17.753907 12.992187 26.191407zm475.34375-95.042969-31.726563-4.160156c1.253907-9.6875 1.886719-19.445313 1.886719-29.214844l22.910156-.769531 9.089844.417969c.015625 11.277343-.707031 22.542968-2.160156 33.726562zm-509.839844-32.832031v-.542969c.00390625-10.964844.695312-21.921875 2.078125-32.800781l31.746094 4.066406c-1.210938 9.53125-1.820313 19.128906-1.824219 28.734375zm462.65625-87.117188c-3.785156-9.007812-8.144531-17.761719-13.054688-26.210937l27.628907-16.125c5.625 9.636718 10.617187 19.632812 14.945312 29.917968zm-400.992188-24.914062-27.726562-16c5.574219-9.679688 11.773438-18.984375 18.558594-27.855469l25.425781 19.472656c-5.941406 7.769532-11.371094 15.914063-16.257813 24.382813zm330.015626-66.769531c-7.761719-5.925782-15.90625-11.328126-24.382813-16.175782l15.902344-27.789062c9.695312 5.566406 19.015625 11.761718 27.90625 18.542968zm-248.238282-15.4375-16.113281-27.664063c9.648437-5.617187 19.652344-10.601563 29.953125-14.914063l12.320312 29.503907c-8.996093 3.78125-17.738281 8.148437-26.160156 13.074219zm141.054688-28.511719c-9.453125-1.191407-18.96875-1.789063-28.496094-1.792969l-.800781-32h.800781c10.871094 0 21.726562.683594 32.511719 2.046875zm0 0" fill="#f5cd00"/><g fill="#fc6454"><path d="m256 144v32h-156.800781c5.796875-11.402344 12.824219-22.132812 20.960937-32zm0 0"/><path d="m256 208v32h-175.199219c.917969-10.835938 2.902344-21.554688 5.917969-32zm0 0"/><path d="m256 272v32h-169.28125c-3.015625-10.445312-5-21.164062-5.917969-32zm0 0"/><path d="m256 336v32h-135.839844c-8.136718-9.867188-15.164062-20.597656-20.960937-32zm0 0"/></g></svg>