<svg height="512pt" viewBox="0 -6 512 512" width="512pt" xmlns="http://www.w3.org/2000/svg"><path d="m112 0c-8.835938 0-16 7.164062-16 16v80h-80c-8.835938 0-16 7.164062-16 16s7.164062 16 16 16h80v80c0 8.835938 7.164062 16 16 16s16-7.164062 16-16v-80h80c8.835938 0 16-7.164062 16-16s-7.164062-16-16-16h-80v-80c0-8.835938-7.164062-16-16-16zm0 0" fill="#6ae5d3"/><path d="m304 96h192c8.835938 0 16 7.164062 16 16s-7.164062 16-16 16h-192c-8.835938 0-16-7.164062-16-16s7.164062-16 16-16zm0 0" fill="#ff7761"/><path d="m304 368h192c8.835938 0 16 7.164062 16 16s-7.164062 16-16 16h-192c-8.835938 0-16-7.164062-16-16s7.164062-16 16-16zm0 0" fill="#ffda6b"/><path d="m185.375 304-73.375 73.375-73.375-73.375c-6.25-6.246094-16.378906-6.246094-22.625 0s-6.246094 16.375 0 22.625l73.375 73.375-73.375 73.375c-6.246094 6.25-6.246094 16.378906 0 22.625s16.375 6.246094 22.625 0l73.375-73.375 73.375 73.375c6.25 6.246094 16.378906 6.246094 22.625 0s6.246094-16.375 0-22.625l-73.375-73.375 73.375-73.375c6.246094-6.25 6.246094-16.378906 0-22.625s-16.375-6.246094-22.625 0zm0 0" fill="#448aff"/><g fill="#ffda6b"><path d="m384 304h32v32h-32zm0 0"/><path d="m384 432h32v32h-32zm0 0"/></g></svg>