<svg height="512pt" viewBox="0 0 512 512" width="512pt" xmlns="http://www.w3.org/2000/svg"><path d="m64 0h384c35.347656 0 64 28.652344 64 64v384c0 35.347656-28.652344 64-64 64h-384c-35.347656 0-64-28.652344-64-64v-384c0-35.347656 28.652344-64 64-64zm0 0" fill="#d7dee2"/><path d="m64 32h384c17.671875 0 32 14.328125 32 32v384c0 17.671875-14.328125 32-32 32h-384c-17.671875 0-32-14.328125-32-32v-384c0-17.671875 14.328125-32 32-32zm0 0" fill="#82b1ff"/><g fill="#fff"><path d="m192 374.625-64-64c-6.246094-6.25-6.246094-16.378906 0-22.625s16.375-6.246094 22.625 0l41.375 41.375 169.375-169.375c6.25-6.246094 16.378906-6.246094 22.625 0s6.246094 16.375 0 22.625zm0 0"/><path d="m416 64h32v32h-32zm0 0"/><path d="m416 416h32v32h-32zm0 0"/><path d="m64 64h32v32h-32zm0 0"/><path d="m64 416h32v32h-32zm0 0"/></g></svg>