<svg height="512pt" viewBox="0 0 512 512" width="512pt" xmlns="http://www.w3.org/2000/svg"><path d="m432 512h-144v-512h144c44.160156.0546875 79.945312 35.839844 80 80v352c-.054688 44.160156-35.839844 79.945312-80 80zm0 0" fill="#e4edfb"/><path d="m304 512h-304v-512h304c44.160156.0546875 79.945312 35.839844 80 80v352c-.054688 44.160156-35.839844 79.945312-80 80zm0 0" fill="#6ae5d3"/><path d="m256 160c0 35.347656-28.652344 64-64 64s-64-28.652344-64-64 28.652344-64 64-64 64 28.652344 64 64zm0 0" fill="#0ac1a7"/><path d="m288 416h-192v-112c0-26.507812 21.492188-48 48-48h96c26.507812 0 48 21.492188 48 48zm0 0" fill="#0ac1a7"/><path d="m448 48c8.835938 0 16 7.164062 16 16v384c0 8.835938-7.164062 16-16 16s-16-7.164062-16-16v-384c0-8.835938 7.164062-16 16-16zm0 0" fill="#d7e1f2"/></svg>