<svg height="512pt" viewBox="0 0 512 512" width="512pt" xmlns="http://www.w3.org/2000/svg"><path d="m512 256c0 141.386719-114.613281 256-256 256s-256-114.613281-256-256 114.613281-256 256-256 256 114.613281 256 256zm0 0" fill="#ff7761"/><path d="m96 208h320v96h-320zm0 0" fill="#fff"/><path d="m473.375 496-192.335938-192.335938 22.625-22.625 192.335938 192.335938c6.246094 6.25 6.246094 16.378906 0 22.625s-16.375 6.246094-22.625 0zm-214.976562-214.960938-22.621094-22.625 22.621094-22.621093 22.625 22.621093zm-45.246094-45.261718-197.152344-197.152344c-6.246094-6.25-6.246094-16.378906 0-22.625s16.375-6.246094 22.625 0l197.152344 197.152344zm0 0" fill="#57565c"/></svg>