<svg height="512pt" viewBox="0 0 512 512" width="512pt" xmlns="http://www.w3.org/2000/svg"><path d="m406.625 512h-406.625v-384h512v278.625zm0 0" fill="#e4edfb"/><path d="m0 128h512v64h-512zm0 0" fill="#d7e1f2"/><path d="m96 64h-32v-48c0-8.835938 7.164062-16 16-16s16 7.164062 16 16zm0 0" fill="#bfc9d1"/><path d="m448 64h-32v-48c0-8.835938 7.164062-16 16-16s16 7.164062 16 16zm0 0" fill="#bfc9d1"/><path d="m406.625 406.625v105.375l105.375-105.375zm0 0" fill="#c8d5e8"/><path d="m225.183594 405.441406-78.6875-62.945312c-6.902344-5.523438-8.023438-15.59375-2.496094-22.496094 5.523438-6.902344 15.59375-8.023438 22.496094-2.496094l56.320312 45.054688 122.558594-122.558594c6.25-6.246094 16.378906-6.246094 22.625 0s6.246094 16.375 0 22.625zm0 0" fill="#0ac1a7"/><path d="m512 160h-512v-80c0-17.671875 14.328125-32 32-32h448c17.671875 0 32 14.328125 32 32zm0 0" fill="#ff7761"/></svg>