<svg height="512pt" viewBox="0 0 512 512" width="512pt" xmlns="http://www.w3.org/2000/svg"><path d="m406.625 512h-406.625v-384h512v278.625zm0 0" fill="#e4edfb"/><path d="m0 128h512v64h-512zm0 0" fill="#d7e1f2"/><path d="m96 64h-32v-48c0-8.835938 7.164062-16 16-16s16 7.164062 16 16zm0 0" fill="#bfc9d1"/><path d="m448 64h-32v-48c0-8.835938 7.164062-16 16-16s16 7.164062 16 16zm0 0" fill="#bfc9d1"/><path d="m406.625 406.625v105.375l105.375-105.375zm0 0" fill="#c8d5e8"/><g fill="#ff7761"><path d="m512 160h-512v-80c0-17.671875 14.328125-32 32-32h448c17.671875 0 32 14.328125 32 32zm0 0"/><path d="m336 240c-5.914062-6.5625-16.027344-7.09375-22.59375-1.183594l-57.40625 51.664063-57.40625-51.664063c-6.566406-5.910156-16.679688-5.378906-22.59375 1.183594-5.910156 6.566406-5.378906 16.679688 1.183594 22.59375l54.894531 49.40625-54.894531 49.40625c-6.5625 5.914062-7.09375 16.027344-1.183594 22.59375 5.914062 6.5625 16.027344 7.09375 22.59375 1.183594l57.40625-51.664063 57.40625 51.664063c6.566406 5.910156 16.679688 5.378906 22.59375-1.183594 5.910156-6.566406 5.378906-16.679688-1.183594-22.59375l-54.816406-49.40625 54.894531-49.40625c6.542969-5.9375 7.035157-16.050781 1.105469-22.59375zm0 0"/></g></svg>