<svg height="512.02295pt" viewBox="0 0 512.02295 512.02295" width="512.02295pt" xmlns="http://www.w3.org/2000/svg"><path d="m384 512.023438h-128v-46.191407c.375-16.085937-10.816406-30.128906-26.574219-33.359375-9.304687-1.601562-18.835937.988282-26.050781 7.070313-7.21875 6.082031-11.378906 15.042969-11.375 24.480469v48h-160c-17.671875 0-32-14.328126-32-32v-160h62.207031c16.082031.359374 30.117188-10.835938 33.34375-26.59375 1.59375-9.296876-.996093-18.828126-7.078125-26.039063-6.082031-7.210937-15.039062-11.371094-24.472656-11.367187h-64v-128c0-17.671876 14.328125-32 32-32h96v-12.433594c-.722656-42.03125 30.296875-77.878906 72-83.199219 22.496094-2.230469 44.886719 5.148437 61.644531 20.316406 16.761719 15.167969 26.335938 36.710938 26.355469 59.316407v16h96c17.671875 0 32 14.328124 32 32v96h12.433594c42.03125-.722657 77.878906 30.296874 83.199218 72 2.230469 22.496093-5.148437 44.882812-20.316406 61.644531-15.167968 16.761719-36.710937 26.335937-59.316406 26.355469h-16v96c0 17.671874-14.328125 32-32 32zm0 0" fill="#ffda6b"/></svg>