<svg height="512pt" viewBox="0 -47 512 512" width="512pt" xmlns="http://www.w3.org/2000/svg"><path d="m256 417.238281-5.9375-2.367187c-10.222656-4.097656-250.0625-101.96875-250.0625-270.867188.179688-60.90625 38.546875-115.152344 95.917969-135.613281 57.367187-20.457031 121.402343-2.730469 160.082031 44.320313 38.679688-47.050782 102.714844-64.777344 160.082031-44.320313 57.371094 20.460937 95.738281 74.707031 95.917969 135.613281 0 168.898438-239.839844 266.769532-250.0625 270.867188zm0 0" fill="#ff7761"/><g fill="#fff"><path d="m352 64.003906h32v32h-32zm0 0"/><path d="m352 128.003906h32v32h-32zm0 0"/><path d="m416 128.003906h32v32h-32zm0 0"/><path d="m288 128.003906h32v32h-32zm0 0"/><path d="m352 192.003906h32v32h-32zm0 0"/></g><path d="m261.9375 334.871094-5.9375 2.367187-5.9375-2.367187c-9.328125-3.664063-210.0625-85.761719-244.863281-228.640625-3.410157 12.300781-5.1601565 25.007812-5.199219 37.773437 0 168.898438 239.839844 266.769532 250.0625 270.867188l5.9375 2.367187 5.9375-2.367187c10.222656-4.097656 250.0625-101.96875 250.0625-270.867188-.039062-12.765625-1.789062-25.472656-5.199219-37.773437-34.722656 142.878906-235.535156 224.976562-244.863281 228.640625zm0 0" fill="#fc6454"/></svg>