<svg height="512pt" viewBox="0 0 512 512" width="512pt" xmlns="http://www.w3.org/2000/svg"><path d="m448 512h-384c-17.671875 0-32-14.328125-32-32v-256h448v256c0 17.671875-14.328125 32-32 32zm0 0" fill="#bfc9d1"/><path d="m272 160h-208v-128c0-17.671875 14.328125-32 32-32h32c79.527344 0 144 64.472656 144 144zm0 0" fill="#fc6454"/><path d="m448 160h-208v-16c0-79.527344 64.472656-144 144-144h32c17.671875 0 32 14.328125 32 32zm0 0" fill="#ff7761"/><path d="m112 64h80c8.835938 0 16 7.164062 16 16s-7.164062 16-16 16h-80c-8.835938 0-16-7.164062-16-16s7.164062-16 16-16zm0 0" fill="#fff"/><path d="m320 64h80c8.835938 0 16 7.164062 16 16s-7.164062 16-16 16h-80c-8.835938 0-16-7.164062-16-16s7.164062-16 16-16zm0 0" fill="#fff"/><path d="m512 256h-512v-96c0-17.671875 14.328125-32 32-32h448c17.671875 0 32 14.328125 32 32zm0 0" fill="#d7dee2"/><path d="m192 128h128v384h-128zm0 0" fill="#ffda6b"/><path d="m192 256h128v32h-128zm0 0" fill="#f5cd00"/></svg>