<svg height="509pt" viewBox="0 -65 509.696 509" width="509pt" xmlns="http://www.w3.org/2000/svg"><path d="m30.847656 283.355469c-8.835937 0-16-7.164063-16-16v-112h32v112c0 8.835937-7.164062 16-16 16zm0 0" fill="#ffda6b"/><path d="m14.847656 315.355469h32v32h-32zm0 0" fill="#ffda6b"/><path d="m398.847656 379.355469h-288c-17.671875 0-32-14.328125-32-32v-174.992188l176 100.578125 176-100.578125v174.992188c0 17.671875-14.328125 32-32 32zm0 0" fill="#2d2d30"/><path d="m254.847656 309.773438-254.847656-145.601563 254.847656-163.824219 254.847656 163.824219zm0 0" fill="#57565c"/></svg>