<svg height="512pt" viewBox="0 0 512 512" width="512pt" xmlns="http://www.w3.org/2000/svg"><path d="m512 256c0 141.386719-114.613281 256-256 256s-256-114.613281-256-256 114.613281-256 256-256 256 114.613281 256 256zm0 0" fill="#6ae5d3"/><g fill="#fff"><path d="m256 384c-8.835938 0-16-7.164062-16-16v-80h12.65625c49.054688.707031 91.109375-34.882812 98.527344-83.375 7.246094-52.53125-29.460938-100.988281-81.992188-108.234375-52.527344-7.246094-100.984375 29.464844-108.230468 81.992187-1.109376 7.816407-7.804688 13.625-15.695313 13.617188-4.617187.035156-9.019531-1.921875-12.085937-5.371094-3.066407-3.445312-4.492188-8.050781-3.914063-12.628906 9.328125-65.628906 67.21875-113.277344 133.417969-109.8125 66.199218 3.46875 118.800781 56.902344 121.222656 123.148438 2.421875 66.246093-46.136719 123.378906-111.90625 131.671874v48.992188c0 8.835938-7.164062 16-16 16zm0 0"/><path d="m240 416h32v32h-32zm0 0"/></g></svg>