<svg height="499pt" viewBox="-7 0 499 499.84" width="499pt" xmlns="http://www.w3.org/2000/svg"><path d="m461.136719 199.28125-217.601563-159.601562-217.601562 159.601562c-3.421875 2.519531-7.710938 3.574219-11.914063 2.929688-4.203125-.648438-7.976562-2.9375-10.484375-6.371094-2.519531-3.425782-3.5742185-7.710938-2.929687-11.914063.644531-4.203125 2.9375-7.976562 6.371093-10.484375l236.558594-173.441406 236.558594 173.441406c3.433594 2.507813 5.726562 6.28125 6.371094 10.484375.644531 4.203125-.410156 8.488281-2.929688 11.914063-2.511718 3.433594-6.285156 5.722656-10.488281 6.371094-4.199219.644531-8.488281-.410157-11.910156-2.929688zm0 0" fill="#aab8c1"/><path d="m435.535156 499.839844h-384v-280.144532l192-139.632812 192 139.632812zm0 0" fill="#6ae5d3"/><path d="m339.535156 499.839844h-192v-160c0-53.019532 42.980469-96 96-96 53.019532 0 96 42.980468 96 96zm0 0" fill="#0ac1a7"/><path d="m227.535156 179.839844h32v32h-32zm0 0" fill="#fff"/></svg>