<svg height="512pt" viewBox="0 0 512 512" width="512pt" xmlns="http://www.w3.org/2000/svg"><path d="m233.886719 512h-101.679688l-64-32h-68.207031v-176h58.671875l53.328125-40v-72h16c44.160156.054688 79.945312 35.839844 80 80v48h44.222656c16.636719 0 32.085938 8.617188 40.832032 22.769531 8.746093 14.152344 9.539062 31.824219 2.097656 46.703125zm0 0" fill="#f0d39c"/><path d="m400 320h-16c-44.160156-.054688-79.945312-35.839844-80-80v-48h-44.222656c-16.636719 0-32.085938-8.617188-40.832032-22.769531-8.746093-14.152344-9.539062-31.824219-2.097656-46.703125l61.265625-122.527344h101.679688l64 32h68.207031v176h-58.671875l-53.328125 40zm0 0" fill="#f0d39c"/><g fill="#e5bd76"><path d="m293.054688 342.769531c-3.824219-6.066406-8.972657-11.183593-15.054688-14.976562l-60.113281 120.207031h-101.679688l-64-32h-52.207031v64h68.207031l64 32h101.679688l61.265625-122.527344c7.5-14.867187 6.707031-32.570312-2.097656-46.703125zm0 0"/><path d="m227.777344 144c-5.320313-.09375-10.589844-1.078125-15.585938-2.910156-1.164062 14.511718 4.554688 28.730468 15.441406 38.398437 9.753907 8.328125 22.230469 12.777344 35.054688 12.511719h41.3125c0-26.507812-21.492188-48-48-48zm0 0"/><path d="m477.664062 160c-59.175781-.625-107.949218 46.253906-109.664062 105.40625v6.59375h-16c-16.503906-.015625-32.589844-5.183594-46.015625-14.785156 8.070313 36.628906 40.507813 62.734375 78.015625 62.785156h16v-72l53.328125-40h58.671875v-48zm0 0"/></g></svg>