<svg height="512pt" viewBox="0 0 512 512" width="512pt" xmlns="http://www.w3.org/2000/svg"><path d="m384 128h-256v-96c0-17.671875 14.328125-32 32-32h192c17.671875 0 32 14.328125 32 32zm0 0" fill="#e4edfb"/><path d="m128 64h256v64h-256zm0 0" fill="#d7e1f2"/><path d="m480 368h-448c-17.671875 0-32-14.328125-32-32v-80h512v80c0 17.671875-14.328125 32-32 32zm0 0" fill="#aab8c1"/><path d="m352 448h-192c-17.671875 0-32-14.328125-32-32v-160h256v160c0 17.671875-14.328125 32-32 32zm0 0" fill="#e4edfb"/><path d="m80 400c8.835938 0 16 7.164062 16 16v80c0 8.835938-7.164062 16-16 16s-16-7.164062-16-16v-80c0-8.835938 7.164062-16 16-16zm0 0" fill="#57565c"/><path d="m432 400c8.835938 0 16 7.164062 16 16v80c0 8.835938-7.164062 16-16 16s-16-7.164062-16-16v-80c0-8.835938 7.164062-16 16-16zm0 0" fill="#57565c"/><path d="m208 320h96c8.835938 0 16 7.164062 16 16s-7.164062 16-16 16h-96c-8.835938 0-16-7.164062-16-16s7.164062-16 16-16zm0 0" fill="#bfc9d1"/><path d="m208 384h96c8.835938 0 16 7.164062 16 16s-7.164062 16-16 16h-96c-8.835938 0-16-7.164062-16-16s7.164062-16 16-16zm0 0" fill="#bfc9d1"/><path d="m128 256h256v64h-256zm0 0" fill="#d7e1f2"/><path d="m480 288h-448c-17.671875 0-32-14.328125-32-32v-80c0-44.183594 35.816406-80 80-80h352c44.183594 0 80 35.816406 80 80v80c0 17.671875-14.328125 32-32 32zm0 0" fill="#bfc9d1"/><g fill="#fff"><path d="m384 160h32v32h-32zm0 0"/><path d="m320 160h32v32h-32zm0 0"/></g></svg>