<svg height="512pt" viewBox="-64 0 512 512" width="512pt" xmlns="http://www.w3.org/2000/svg"><path d="m0 0v512h384v-512zm64 496h-32v-32h32zm0-64h-32v-32h32zm0-64h-32v-32h32zm0-64h-32v-32h32zm0-64h-32v-32h32zm0-64h-32v-32h32zm0-64h-32v-32h32zm0-64h-32v-32h32zm288 448h-32v-32h32zm0-64h-32v-32h32zm0-64h-32v-32h32zm0-64h-32v-32h32zm0-64h-32v-32h32zm0-64h-32v-32h32zm0-64h-32v-32h32zm0-64h-32v-32h32zm0 0" fill="#57565c"/><g fill="#e4edfb"><path d="m96 0h192v128h-192zm0 0"/><path d="m96 384h192v128h-192zm0 0"/><path d="m96 160h192v192h-192zm0 0"/></g><path d="m288 128h-192l192-128zm0 0" fill="#d7e1f2"/><path d="m288 512h-192l192-128zm0 0" fill="#d7e1f2"/><path d="m288 352h-192l192-192zm0 0" fill="#d7e1f2"/></svg>