<svg height="512pt" viewBox="-16 0 512 512" width="512pt" xmlns="http://www.w3.org/2000/svg"><g fill="#d7e1f2"><path d="m256 128h-32v-112c0-8.835938 7.164062-16 16-16s16 7.164062 16 16zm0 0"/><path d="m240 512c-8.835938 0-16-7.164062-16-16v-112h32v112c0 8.835938-7.164062 16-16 16zm0 0"/><path d="m224 224h32v64h-32zm0 0"/></g><path d="m224 160h32v32h-32zm0 0" fill="#82b1ff"/><path d="m224 320h32v32h-32zm0 0" fill="#82b1ff"/><path d="m0 112h192v128h-192zm0 0" fill="#82b1ff"/><path d="m32 144h128v64h-128zm0 0" fill="#448aff"/><path d="m288 272h192v128h-192zm0 0" fill="#82b1ff"/><path d="m320 304h128v64h-128zm0 0" fill="#448aff"/></svg>