<svg height="512pt" viewBox="0 -8 512 512" width="512pt" xmlns="http://www.w3.org/2000/svg"><path d="m512 48c0-8.835938-7.164062-16-16-16h-128v-32h-32v32h-112c-8.835938 0-16 7.164062-16 16s7.164062 16 16 16h175.503906c-2.414062 62.738281-19.980468 123.960938-51.199218 178.433594-18.738282-46.546875-28.347657-96.257813-28.304688-146.433594h-32c-.082031 61.808594 13.398438 122.878906 39.488281 178.910156-29.453125 41.148438-66.617187 76.1875-109.425781 103.167969l-101.070312 63.84375c-7.480469 4.714844-9.714844 14.601563-4.992188 22.078125 4.714844 7.480469 14.605469 9.714844 22.078125 4.992188l101.121094-63.855469c41.75-26.359375 78.570312-59.8125 108.800781-98.847657 31.515625 54.917969 75.003906 102.027344 127.230469 137.824219 3.59375 2.386719 7.996093 3.222657 12.214843 2.320313 4.214844-.902344 7.890626-3.472656 10.1875-7.121094 4.570313-7.339844 2.488282-16.980469-4.703124-21.777344-52.25-35.886718-94.941407-83.988281-124.371094-140.128906 41.175781-63.785156 64.308594-137.53125 66.945312-213.40625h64.496094c8.835938 0 16-7.164062 16-16zm0 0" fill="#6ae5d3"/><path d="m288 496c8.371094-2.796875 12.898438-11.847656 10.113281-20.222656l-94.578125-283.777344h-103.070312l-94.578125 283.777344c-2.785157 8.375 1.742187 17.425781 10.113281 20.222656 8.375 2.785156 17.425781-1.738281 20.222656-10.113281l44.640625-133.886719h142.273438l44.640625 133.886719c2.796875 8.375 11.847656 12.898437 20.222656 10.113281zm-196.464844-176 32-96h56.929688l32 96zm0 0" fill="#ff7761"/><path d="m0 166.625v-118.625h32v41.375l73.375-73.375c6.25-6.246094 16.378906-6.246094 22.625 0s6.246094 16.375 0 22.625zm0 0" fill="#ff7761"/><path d="m48 176c-6.246094-6.246094-6.246094-16.375 0-22.625l128-128v118.625h-32v-41.375l-73.375 73.375c-6.25 6.246094-16.378906 6.246094-22.625 0zm0 0" fill="#6ae5d3"/></svg>