<svg height="512pt" viewBox="-32 0 512 512" width="512pt" xmlns="http://www.w3.org/2000/svg"><g fill="#f0d39c"><path d="m384 512c-8.835938 0-16-7.164062-16-16v-96h32v96c0 8.835938-7.164062 16-16 16zm0 0"/><path d="m320 512c-8.835938 0-16-7.164062-16-16v-96h32v96c0 8.835938-7.164062 16-16 16zm0 0"/><path d="m160 64c0 35.347656-28.652344 64-64 64s-64-28.652344-64-64 28.652344-64 64-64 64 28.652344 64 64zm0 0"/></g><path d="m160 480h-128v-96h-32v-144c0-53.019531 42.980469-96 96-96s96 42.980469 96 96v144h-32zm0 0" fill="#82b1ff"/><path d="m416 64c0 35.347656-28.652344 64-64 64s-64-28.652344-64-64 28.652344-64 64-64 64 28.652344 64 64zm0 0" fill="#f0d39c"/><path d="m448 416h-192v-176c0-53.019531 42.980469-96 96-96s96 42.980469 96 96zm0 0" fill="#ff7761"/><path d="m32 448h128v64h-128zm0 0" fill="#f0d39c"/><path d="m80 448h32v64h-32zm0 0" fill="#e5bd76"/></svg>