<svg height="512pt" viewBox="0 -32 512 512" width="512pt" xmlns="http://www.w3.org/2000/svg"><path d="m368 112h-32v-64c0-8.835938-7.164062-16-16-16h-128c-8.835938 0-16 7.164062-16 16v64h-32v-64c0-26.507812 21.492188-48 48-48h128c26.507812 0 48 21.492188 48 48zm0 0" fill="#57565c"/><path d="m48 96h416c26.507812 0 48 21.492188 48 48v256c0 26.507812-21.492188 48-48 48h-416c-26.507812 0-48-21.492188-48-48v-256c0-26.507812 21.492188-48 48-48zm0 0" fill="#ff7761"/><path d="m48 32h32c8.835938 0 16 7.164062 16 16s-7.164062 16-16 16h-32c-8.835938 0-16-7.164062-16-16s7.164062-16 16-16zm0 0" fill="#2d2d30"/><path d="m432 32h32c8.835938 0 16 7.164062 16 16s-7.164062 16-16 16h-32c-8.835938 0-16-7.164062-16-16s7.164062-16 16-16zm0 0" fill="#2d2d30"/><path d="m368 288h-32v-32h32zm-64 0h-32v-32h32zm-64 0h-32v-32h32zm-64 0h-32v-32h32zm0 0" fill="#fff"/><path d="m464 416h-416c-26.507812 0-48-21.492188-48-48v32c0 26.507812 21.492188 48 48 48h416c26.507812 0 48-21.492188 48-48v-32c0 26.507812-21.492188 48-48 48zm0 0" fill="#fc6454"/></svg>