<svg id="Layer_5" enable-background="new 0 0 64 64" height="512" viewBox="0 0 64 64" width="512" xmlns="http://www.w3.org/2000/svg"><g><g><g><path d="m14 57.81v4.19h-12v-3.76c0-3 2.22-5.54 5.19-5.95l4.68-.64c1.37 1.74 2.13 3.91 2.13 6.16z" fill="#e6e9ed"/></g><g><path d="m62 58.24v3.76h-12v-4.19c0-2.25.76-4.42 2.13-6.16l4.68.64c2.97.41 5.19 2.95 5.19 5.95z" fill="#e6e9ed"/></g><g><path d="m40 50 12.13 1.65c-1.37 1.74-2.13 3.91-2.13 6.16v4.19h-36v-4.19c0-2.25-.76-4.42-2.13-6.16l12.13-1.65s.59 3.52 4 5.16c1.05.51 2.36.84 4 .84s2.95-.33 4-.84c3.41-1.64 4-5.16 4-5.16z" fill="#fcd770"/></g><g><path d="m39.48 45.86-.07.04c-1.07.66-2.22 1.17-3.41 1.51-1.29.39-2.64.59-4 .59s-2.7-.2-3.98-.58c-1.2-.35-2.35-.86-3.43-1.52l-.07-.04-.52 4.14s.59 3.52 4 5.16c1.05.51 2.36.84 4 .84s2.95-.33 4-.84c3.41-1.64 4-5.16 4-5.16z" fill="#ccd1d9"/></g><g><path d="m40.75 2.95-2.75 13.05h-3v-4h-6v4h-3l-2.75-13.05c1.83-.6 3.77-.93 5.75-.95v6h6v-6c1.98.02 3.92.35 5.75.95z" fill="#ffeaa7"/></g><g><path d="m29.18 2h5.64.18v6h-6v-6z" fill="#fcd770"/></g><g><path d="m29 12h6v4h-6z" fill="#fcd770"/></g><g><path d="m11 17c0 2.13 1.13 8.5 2.2 14h-.01-.19c-4.42 0-8-3.58-8-8v-4c0-2.21 1.79-4 4-4h2.36c-.23.77-.36 1.45-.36 2z" fill="#e6e9ed"/></g><g><path d="m50.8 31c1.07-5.5 2.2-11.87 2.2-14 0-.55-.13-1.23-.36-2h2.36c2.21 0 4 1.79 4 4v4c0 4.42-3.58 8-8 8h-.19z" fill="#e6e9ed"/></g><g><path d="m52.64 15c.23.77.36 1.45.36 2 0 2.13-1.13 8.5-2.2 14-.2 1.04-.39 2.05-.58 2.99-.75 3.82-3.07 7.15-6.39 9.19l-1.09.67-1.39-6.28c-.21-.92-1.02-1.57-1.95-1.57h-14.8c-.93 0-1.74.65-1.95 1.57l-1.39 6.28-1.09-.67c-3.32-2.04-5.64-5.37-6.39-9.19-.19-.94-.38-1.95-.58-2.99-1.07-5.5-2.2-11.87-2.2-14 0-.55.13-1.23.36-2 .01-.03.02-.06.03-.09 1.76-5.79 6.3-10.14 11.86-11.96l2.75 13.05h3 6 3l2.75-13.05c5.56 1.82 10.1 6.17 11.86 11.96.01.03.02.06.03.09z" fill="#e6e9ed"/></g><g><path d="m41.35 37.57 1.39 6.28-3.26 2.01-.07.04c-1.07.66-2.22 1.17-3.41 1.51-1.29.39-2.64.59-4 .59s-2.7-.2-3.98-.58c-1.2-.35-2.35-.86-3.43-1.52l-.07-.04-3.26-2.01 1.39-6.28c.21-.92 1.02-1.57 1.95-1.57h14.8c.93 0 1.74.65 1.95 1.57z" fill="#ff826e"/></g><g><path d="m27 22c1.1 0 2 .9 2 2s-.45 2.1-1.17 2.83c-.73.72-1.73 1.17-2.83 1.17h-4c-2.21 0-4-1.79-4-4 0-.55.22-1.05.59-1.41.36-.37.86-.59 1.41-.59z" fill="#838f9b"/></g><g><path d="m45 22c1.1 0 2 .9 2 2s-.45 2.1-1.17 2.83c-.73.72-1.73 1.17-2.83 1.17h-4c-2.21 0-4-1.79-4-4 0-.55.22-1.05.59-1.41.36-.37.86-.59 1.41-.59z" fill="#838f9b"/></g></g><g><path d="m56.946 51.302-16.049-2.188-.343-2.742 3.799-2.339c3.545-2.181 6.042-5.77 6.851-9.847.143-.72.289-1.465.436-2.219 4.664-.33 8.36-4.22 8.36-8.967v-4c0-2.757-2.243-5-5-5h-1.649c-2.642-7.683-10.158-13-18.53-13h-5.642c-8.373 0-15.888 5.317-18.531 13h-1.648c-2.757 0-5 2.243-5 5v4c0 4.747 3.696 8.637 8.36 8.968.147.754.293 1.498.435 2.218.809 4.077 3.306 7.666 6.851 9.847l3.799 2.339-.343 2.742-16.048 2.188c-3.451.47-6.054 3.452-6.054 6.935v4.763h62v-4.763c0-3.483-2.603-6.465-6.054-6.935zm-7.946 9.698h-34v-3.194c0-1.885-.495-3.742-1.41-5.377l9.689-1.321c.648 1.87 2.733 5.892 8.721 5.892s8.073-4.022 8.721-5.893l9.689 1.321c-.915 1.636-1.41 3.494-1.41 5.378zm-10.012-11.036c-.1.462-.544 2.068-1.988 3.348v-5.165c.571-.2 1.128-.438 1.672-.706zm-7.988-.999v5.983c-.757-.076-1.418-.237-2-.456v-5.796c.659.134 1.326.225 2 .269zm2 0c.674-.045 1.341-.136 2-.269v5.804c-.581.216-1.243.374-2 .448zm-7.883-3.913-2.731-1.681 1.242-5.588c.102-.461.504-.783.976-.783h14.791c.472 0 .874.322.977.783l1.242 5.589-2.731 1.681c-4.143 2.548-9.623 2.548-13.766-.001zm1.883 3.095v5.144c-1.429-1.278-1.883-2.872-1.987-3.331l.315-2.519c.544.267 1.101.506 1.672.706zm31-29.147v4c0 3.508-2.596 6.413-5.966 6.915 1.023-5.391 1.966-10.902 1.966-12.915 0-.302-.034-.636-.096-1h1.096c1.654 0 3 1.346 3 3zm-24-4h-4v-2h4zm-6-4v4h-1.188l-2.388-11.341c1.156-.32 2.352-.53 3.576-.612v5.953h8v-5.952c1.224.081 2.42.292 3.576.612l-2.388 11.34h-1.188v-4zm2-8h4v4h-4zm-24 20v-4c0-1.654 1.346-3 3-3h1.096c-.062.364-.096.698-.096 1 0 2.013.943 7.524 1.966 12.915-3.37-.502-5.966-3.407-5.966-6.915zm8.758 10.797c-1.779-8.964-2.758-14.929-2.758-16.797 0-.442.116-1.048.344-1.799 1.527-5.016 5.366-8.968 10.171-10.901l2.673 12.7h13.623l2.673-12.7c4.806 1.933 8.644 5.886 10.171 10.901.229.751.345 1.357.345 1.799 0 1.868-.979 7.833-2.758 16.797-.692 3.489-2.815 6.561-5.828 8.458l-1.09-4.907c-.307-1.382-1.512-2.348-2.928-2.348h-14.792c-1.417 0-2.621.966-2.929 2.349l-1.09 4.906c-3.012-1.897-5.135-4.969-5.827-8.458zm-11.758 24.44c0-2.488 1.859-4.618 4.325-4.954l4.097-.559c1.019 1.491 1.578 3.271 1.578 5.082v3.194h-10zm58 2.763h-10v-3.194c0-1.811.559-3.591 1.578-5.082l4.097.559c2.466.336 4.325 2.466 4.325 4.954z"/><path d="m25 29c2.757 0 5-2.243 5-5 0-1.654-1.346-3-3-3h-8c-1.654 0-3 1.346-3 3 0 2.757 2.243 5 5 5zm-7-5c0-.551.449-1 1-1h8c.551 0 1 .449 1 1 0 1.654-1.346 3-3 3h-4c-1.654 0-3-1.346-3-3z"/><path d="m39 29h4c2.757 0 5-2.243 5-5 0-1.654-1.346-3-3-3h-8c-1.654 0-3 1.346-3 3 0 2.757 2.243 5 5 5zm-2-6h8c.551 0 1 .449 1 1 0 1.654-1.346 3-3 3h-4c-1.654 0-3-1.346-3-3 0-.551.449-1 1-1z"/></g></g></svg>