<svg id="Layer_5" enable-background="new 0 0 64 64" height="512" viewBox="0 0 64 64" width="512" xmlns="http://www.w3.org/2000/svg"><g><g><g><path d="m62 36v26h-6v-22-4z" fill="#ffeaa7"/></g><g><path d="m56 40v22h-6v-16-6z" fill="#ffeaa7"/></g><g><path d="m44 46h6v16h-6z" fill="#ffeaa7"/></g><g><path d="m10 62h-6v-15.94c0-3.16 1.58-6.11 4.21-7.87.79-.52 1.64-.92 2.54-1.19v-.01c2.19 1.41 4.69 2.38 7.37 2.79l.88 4.22-1 12 3 3v3z" fill="#b4dd7f"/></g><g><path d="m32 62h-11v-3l3-3-1-12 .88-4.22c2.68-.41 5.18-1.38 7.37-2.79v.01c.9.27 1.75.67 2.54 1.19 1.31.88 2.37 2.06 3.09 3.41s1.12 2.88 1.12 4.46v15.94z" fill="#b4dd7f"/></g><g><path d="m60.83 18.17c.72.73 1.17 1.73 1.17 2.83 0 2.21-1.79 4-4 4h-12c-1.1 0-2-.9-2-2v-1-2-1c0-1.1.9-2 2-2h12c1.1 0 2.1.45 2.83 1.17z" fill="#969faa"/></g><g><path d="m44 20v2c0 1.1-.89 2-2 2h-2.24c.16-.98.24-1.98.24-3s-.08-2.02-.24-3h2.24c1.11 0 2 .9 2 2z" fill="#ccd1d9"/></g><g><path d="m39.76 18c.16.98.24 1.98.24 3s-.08 2.02-.24 3c-.86 5.45-4.05 10.13-8.51 12.99-2.19 1.41-4.69 2.38-7.37 2.79-.94.15-1.9.22-2.88.22s-1.94-.07-2.88-.22c-2.68-.41-5.18-1.38-7.37-2.79-5.26-3.37-8.75-9.28-8.75-15.99 0-10.49 8.51-19 19-19 9.47 0 17.32 6.93 18.76 16z" fill="#fcd770"/></g><g><path d="m23 44 1 12-3 3-3-3 1-12z" fill="#ff826e"/></g><g><path d="m23.88 39.78-.88 4.22h-4l-.88-4.22c.94.15 1.9.22 2.88.22s1.94-.07 2.88-.22z" fill="#fc6e51"/></g><g><circle cx="21" cy="21" fill="#69d6f4" r="15"/></g><g><path d="m13 21c-.77 0-1.46.29-1.99.77l-.01-.01s-.25-.69-.5-1.63c-.25-.93-.5-2.13-.5-3.13 0-.83.34-1.58.88-2.12s1.29-.88 2.12-.88l.78-1.04c.7-.93 1.6-1.67 2.61-2.18 1.01-.5 2.15-.78 3.31-.78.86 0 1.71.15 2.52.45l6.58 2.39c.96.35 1.76.98 2.32 1.78s.88 1.76.88 2.78c0 .4-.05.79-.15 1.18l-.85 3.19c-.53-.48-1.23-.77-2-.77h-1c-2.5 0-5.25-1-7.38-2-2.12-1-3.62-2-3.62-2-1.41.95-2.41 2.38-2.81 4z" fill="#b27946"/></g><g><path d="m31.12 26.12c-.54.54-1.29.88-2.12.88h-1.07-.01c.06-.33.08-.66.08-1v-5h1c.77 0 1.47.29 2 .77.62.54 1 1.34 1 2.23 0 .83-.34 1.58-.88 2.12z" fill="#f0d0b4"/></g><g><path d="m24.07 32.29.8 3.2c-1.24.33-2.53.51-3.87.51s-2.63-.18-3.87-.51l.8-3.2c.92.46 1.96.71 3.07.71s2.15-.25 3.07-.71z" fill="#f0d0b4"/></g><g><path d="m28 21v5c0 .34-.02.67-.08 1-.32 2.34-1.81 4.3-3.85 5.29-.92.46-1.96.71-3.07.71s-2.15-.25-3.07-.71c-2.04-.99-3.53-2.95-3.85-5.29-.06-.33-.08-.66-.08-1v-3.39c0-.55.07-1.09.19-1.61.4-1.62 1.4-3.05 2.81-4 0 0 1.5 1 3.62 2 2.13 1 4.88 2 7.38 2z" fill="#f0d0b4"/></g><g><path d="m14 26c0 .34.02.67.08 1h-.01-1.07c-.83 0-1.58-.34-2.12-.88s-.88-1.29-.88-2.12c0-.89.39-1.7 1.01-2.23.53-.48 1.22-.77 1.99-.77h1.19c-.12.52-.19 1.06-.19 1.61z" fill="#f0d0b4"/></g></g><g><path d="m37 21c0-8.822-7.178-16-16-16s-16 7.178-16 16 7.178 16 16 16 16-7.178 16-16zm-18.654 13.74.275-1.101c.752.234 1.551.361 2.379.361s1.627-.127 2.379-.361l.275 1.101c-.86.166-1.746.26-2.654.26s-1.794-.094-2.654-.26zm-5.346-12.135v3.395c-1.103 0-2-.897-2-2s.897-2 2-2h.037c-.015.201-.037.401-.037.605zm.46-2.605h-.46c-.503 0-.979.104-1.423.274-.265-.92-.577-2.225-.577-3.274 0-1.103.897-2 2-2h.5l1.082-1.442c1.201-1.602 3.113-2.558 5.115-2.558.747 0 1.482.129 2.185.385l6.579 2.392c1.518.552 2.539 2.009 2.539 3.625 0 .315-.039.63-.111.919l-.52 1.936c-.429-.158-.886-.257-1.369-.257h-1c-4.633 0-10.388-3.794-10.446-3.833l-.554-.369-.554.37c-1.406.937-2.434 2.289-2.986 3.832zm15.54 2c1.103 0 2 .897 2 2s-.897 2-2 2zm-14 .605c0-1.709.755-3.309 2.047-4.393 1.563.955 5.875 3.378 9.953 3.741v4.047c0 3.309-2.691 6-6 6s-6-2.691-6-6zm-8-1.605c0-7.72 6.28-14 14-14s14 6.28 14 14c0 6.113-3.944 11.309-9.416 13.213l-.358-1.433c1.715-1.073 2.991-2.773 3.511-4.78h.263c2.206 0 4-1.794 4-4 0-.946-.344-1.805-.896-2.491l.721-2.687c.116-.464.175-.942.175-1.42 0-2.454-1.549-4.666-3.855-5.504l-6.579-2.392c-.922-.336-1.888-.506-2.869-.506-2.628 0-5.139 1.255-6.715 3.358l-.508.676c-1.958.258-3.474 1.939-3.474 3.966 0 1.609.566 3.587.871 4.539-.537.681-.871 1.529-.871 2.461 0 2.206 1.794 4 4 4h.263c.519 2.007 1.796 3.708 3.511 4.78l-.358 1.433c-5.472-1.904-9.416-7.1-9.416-13.213z"/><circle cx="18" cy="24" r="1"/><circle cx="24" cy="24" r="1"/><path d="m18.895 26.553-1.789.895.105.211c.722 1.444 2.174 2.341 3.789 2.341s3.067-.897 3.789-2.342l.105-.211-1.789-.895-.105.212c-.381.762-1.147 1.236-2 1.236s-1.619-.474-2-1.236z"/><path d="m55 39h-6v6h-6v16h-4v-14.936c0-3.506-1.742-6.761-4.659-8.706-.341-.227-.703-.417-1.067-.602 3.688-2.879 6.355-7.008 7.323-11.757h1.405c.537 0 1.034-.153 1.471-.401.532.84 1.463 1.402 2.528 1.402h11.999c2.757 0 5-2.243 5-5s-2.243-5-5-5h-11.999c-1.065 0-1.997.562-2.529 1.401-.436-.248-.934-.401-1.471-.401h-1.405c-1.858-9.118-9.938-16-19.596-16-11.028 0-20 8.972-20 20 0 6.4 3.034 12.093 7.726 15.757-.364.185-.726.375-1.067.602-2.917 1.945-4.659 5.199-4.659 8.705v16.936h60v-28h-8zm-10 8h4v14h-4zm.001-28c0-.551.449-1 1-1h11.999c1.654 0 3 1.346 3 3s-1.346 3-3 3h-11.999c-.551 0-1-.449-1-1v-1-2zm-3 0c.551 0 1 .449 1 1v2c0 .551-.449 1-1 1h-1.103c.066-.658.102-1.325.102-2s-.036-1.342-.101-2zm-39.001 2c0-9.925 8.075-18 18-18s18 8.075 18 18-8.075 18-18 18-18-8.075-18-18zm19.965 34.621-1.965 1.965-1.965-1.965.885-10.621h2.159zm-.778-12.621h-2.374l-.434-2.082c.536.043 1.074.082 1.621.082s1.085-.039 1.621-.082zm-17.187 3.064c0-2.836 1.409-5.468 3.769-7.042.591-.394 1.235-.693 1.905-.928 2.002 1.214 4.225 2.094 6.604 2.544l.714 3.423-1.026 12.317 4.034 4.036 4.035-4.035-1.026-12.317.714-3.423c2.379-.45 4.601-1.33 6.603-2.544.67.234 1.314.533 1.905.927 2.36 1.574 3.769 4.207 3.769 7.042v14.936h-4v-12h-2v12h-20v-12h-2v12h-4zm46 14.936v-20h4v20zm6-24h4v24h-4z"/></g></g></svg>