<svg id="Layer_5" enable-background="new 0 0 64 64" height="512" viewBox="0 0 64 64" width="512" xmlns="http://www.w3.org/2000/svg"><g><g><g><path d="m45.22 50.94-2.01.41c-1.2.24-2.18 1.01-2.73 2.03-1.19.47-2.42.85-3.7 1.12l-.78 2.5h-8l-.78-2.5c-2.81-.59-5.42-1.7-7.74-3.21l-2.33 1.22-5.66-5.66 1.22-2.33c-1.51-2.32-2.62-4.93-3.21-7.74l-2.5-.78v-6.76-.24h7.25c-.16.98-.25 1.98-.25 3 0 9.94 8.06 18 18 18 4.61 0 8.82-1.73 12-4.58v1.58c0 1.46.45 2.81 1.22 3.94z" fill="#fcd770"/></g><g><path d="m49.88 34.09c.08-.69.12-1.38.12-2.09 0-9.94-8.06-18-18-18-5.29 0-10.05 2.28-13.34 5.92l-1.48-.3c-.39-.11-.75-.3-1.05-.54-.53-.42-.9-1-1.05-1.66v-.01c.88-.53 1.53-1.39 1.79-2.41h1.13c1.1 0 2-.9 2-2 0-.2-.03-.38-.08-.56 2.22-1.37 4.67-2.38 7.3-2.94l.78-2.5h8l.78 2.5c2.81.59 5.42 1.7 7.74 3.21l2.33-1.22 5.66 5.66-1.22 2.33c1.51 2.32 2.62 4.93 3.21 7.74l2.5.78v9.39c-1.23-2.04-3.45-3.39-6-3.39-.38 0-.76.03-1.12.1z" fill="#fcd770"/></g><g><path d="m47.38 50.4.59 2.63 2.03 8.97h-10v-6.73c0-.68.17-1.33.48-1.89.55-1.02 1.53-1.79 2.73-2.03l2.01-.41 1.6-.32c.2-.06.38-.13.56-.22z" fill="#b4dd7f"/></g><g><path d="m55.18 50.62 1.6.32 2.01.41c1.87.38 3.21 2.02 3.21 3.92v6.73h-10l2.02-8.97h.01l.59-2.64c.18.1.36.17.56.23z" fill="#b4dd7f"/></g><g><path d="m54.02 53.03-2.02 8.97h-2l-2.03-8.97.12-.03h5.82z" fill="#ffeaa7"/></g><g><path d="m24 24.27v4.73h-9.75-7.25-5v-4.73c0-1.9 1.34-3.54 3.21-3.92l3.61-.73c.39-.11.75-.3 1.05-.54l3.13 3.92 3.13-3.92c.3.24.66.43 1.05.54l1.48.3 2.13.43c1.87.38 3.21 2.02 3.21 3.92z" fill="#4fc1e9"/></g><g><path d="m8 11c-.57 0-1.09.24-1.45.63-.92-.51-1.55-1.5-1.55-2.63 0-1.31.85-2.41 2.02-2.82-.01-.06-.02-.12-.02-.18 0-1.66 1.34-3 3-3 .24 0 .48.04.7.09.55-.66 1.37-1.09 2.3-1.09s1.75.43 2.3 1.09c.22-.05.46-.09.7-.09 1.66 0 3 1.34 3 3 0 .06-.01.12-.02.18 1.17.41 2.02 1.51 2.02 2.82 0 1.13-.63 2.12-1.55 2.63-.01-.01-.03-.03-.04-.04-.36-.37-.86-.59-1.41-.59h-1-1.76c-1.47 0-2.92-.34-4.24-1-.74 0-1.38.4-1.73 1z" fill="#656d78"/></g><g><path d="m19.92 12.44c.05.18.08.36.08.56 0 1.1-.9 2-2 2h-1.13c.09-.32.13-.65.13-1v-3h1c.55 0 1.05.22 1.41.59.01.01.03.03.04.04.22.22.38.5.47.81z" fill="#f0d0b4"/></g><g><path d="m13 18c.76 0 1.48-.21 2.08-.59v.01c.15.66.52 1.24 1.05 1.66l-3.13 3.92-3.13-3.92c.53-.42.9-1 1.05-1.66v-.01c1.92.59 2 .59 2.08.59z" fill="#f0d0b4"/></g><g><path d="m15.24 11h1.76v3c0 .35-.04.68-.13 1-.26 1.02-.91 1.88-1.79 2.41-.6.38-1.32.59-2.08.59-.08 0-.16 0-2.08-.59-.27-.16-.52-.36-.75-.58-.5-.5-.86-1.12-1.04-1.83-.09-.32-.13-.65-.13-1v-2c0-.36.1-.71.27-1 .35-.6.99-1 1.73-1 1.32.66 2.77 1 4.24 1z" fill="#f0d0b4"/></g><g><path d="m9 14c0 .35.04.68.13 1h-1.13c-.55 0-1.05-.22-1.41-.59-.37-.36-.59-.86-.59-1.41 0-.53.21-1.01.55-1.37.36-.39.88-.63 1.45-.63h1.27c-.17.29-.27.64-.27 1z" fill="#f0d0b4"/></g><g><path d="m57.41 45.41c-.36.37-.86.59-1.41.59h-1.13c.09-.32.13-.65.13-1v-3h1c1.1 0 2 .9 2 2 0 .55-.22 1.05-.59 1.41z" fill="#f0d0b4"/></g><g><path d="m54.62 50.39-.59 2.64h-.01l-.11-.03h-5.82l-.12.03-.59-2.63c.78-.4 1.34-1.13 1.54-1.98v-.01c.61.38 1.32.59 2.08.59s1.47-.21 2.08-.59v.01c.2.85.76 1.58 1.54 1.97z" fill="#f0d0b4"/></g><g><path d="m55 42v3c0 .35-.04.68-.13 1-.26 1.02-.91 1.88-1.79 2.41-.61.38-1.32.59-2.08.59s-1.47-.21-2.08-.59c-.27-.16-.52-.36-.75-.58-.49-.5-.86-1.13-1.04-1.83-.09-.32-.13-.65-.13-1v-3-1c1.32 0 2.61-.31 3.79-.89l.21-.11.21.11c1.18.58 2.47.89 3.79.89z" fill="#f0d0b4"/></g><g><path d="m47 42v3c0 .35.04.68.13 1h-1.13c-.55 0-1.05-.22-1.41-.59-.37-.36-.59-.86-.59-1.41 0-1.1.9-2 2-2z" fill="#f0d0b4"/></g><g><path d="m58 47c0 1.46-.45 2.81-1.22 3.94l-1.6-.32c-.2-.06-.38-.13-.56-.23-.78-.39-1.34-1.12-1.54-1.97v-.01c.88-.53 1.53-1.39 1.79-2.41h1.13c.55 0 1.05-.22 1.41-.59.37-.36.59-.86.59-1.41z" fill="#b27946"/></g><g><path d="m57 37.39c.63 1.05 1 2.29 1 3.61v3c0-1.1-.9-2-2-2h-1v-1c-1.32 0-2.61-.31-3.79-.89l-.21-.11-.21.11c-1.18.58-2.47.89-3.79.89v1h-1c-1.1 0-2 .9-2 2v-3c0-3.49 2.54-6.37 5.88-6.9.36-.07.74-.1 1.12-.1 2.55 0 4.77 1.35 6 3.39z" fill="#b27946"/></g><g><path d="m48.17 47.83c.23.22.48.42.75.58v.01c-.2.85-.76 1.58-1.54 1.98-.18.09-.36.16-.56.22l-1.6.32c-.77-1.13-1.22-2.48-1.22-3.94v-1.58-1.42c0 .55.22 1.05.59 1.41.36.37.86.59 1.41.59h1.13c.18.7.55 1.33 1.04 1.83z" fill="#b27946"/></g><g><path d="m39.49 30 .39.98-4.88 3.21 2.27 5.21-.81.6-4.58-3.76-4.57 3.76-.81-.6 2.27-5.21-4.89-3.21.39-.98 5.64-.01 1.37-4.99h1.21l1.39 5z" fill="#ff826e"/></g></g><g><path d="m58.99 50.371-.688-.138c.45-1.013.698-2.107.698-3.233v-6c0-1.401-.364-2.718-1-3.864v-9.87l-2.652-.833c-.588-2.475-1.563-4.825-2.905-7.001l1.289-2.469-6.695-6.695-2.469 1.289c-2.176-1.342-4.526-2.317-7.001-2.905l-.833-2.652h-9.469l-.833 2.653c-1.612.383-3.167.949-4.663 1.656.146-.416.231-.855.231-1.309 0-1.448-.791-2.765-2.027-3.466-.245-2.099-2.088-3.742-4.326-3.516-1.458-1.306-3.836-1.306-5.294 0-2.239-.229-4.081 1.417-4.326 3.516-1.236.701-2.027 2.018-2.027 3.466 0 1.099.453 2.133 1.223 2.877-.141.347-.223.725-.223 1.123 0 1.654 1.346 3 3 3h.424c.297.677.749 1.263 1.297 1.744-.252.436-.649.768-1.095.897l-3.616.73c-2.323.47-4.01 2.531-4.01 4.902v5.727h5v6.734l2.653.832c.587 2.476 1.563 4.826 2.904 7.002l-1.29 2.469 6.696 6.695 2.469-1.29c2.175 1.342 4.525 2.317 7.001 2.905l.833 2.653h9.469l.833-2.653c.491-.117.978-.256 1.462-.404-.008.11-.03.217-.03.329v7.728h24v-7.728c0-2.37-1.687-4.431-4.01-4.901zm-3.539-.71c-.502-.144-.914-.48-1.171-.918.548-.481.999-1.067 1.296-1.743h.424c.352 0 .686-.072 1-.184v.184c0 .997-.257 1.959-.723 2.827zm-9.729.163c-.466-.867-.722-1.828-.722-2.824v-.184c.314.112.648.184 1 .184h.424c.297.677.749 1.263 1.297 1.744-.252.436-.649.768-1.094.897zm-13.722-.824c-9.374 0-17-7.626-17-17 0-.669.053-1.337.131-2h8.067l-.546 1.364 4.864 3.198-2.246 5.17 2.067 1.538 4.547-3.737 4.548 3.737 2.066-1.538-2.246-5.17 4.864-3.198-.947-2.362-5.526-.002-1.398-5h-2.725l-1.377 4.995-4.143.006v-4.728c0-2.371-1.687-4.432-4.01-4.901l-.3-.06c3.098-2.758 7.128-4.312 11.31-4.312 9.374 0 17 7.626 17 17 0 .427-.022.853-.053 1.277-3.418.91-5.947 4.023-5.947 7.723v3.943c-3.071 2.612-6.955 4.057-11 4.057zm3.544-11.049-3.66-3.009-3.66 3.009 1.797-4.136-4.281-2.815 4.927-.007 1.22-4.423 1.238 4.43 4.902.001-4.28 2.814zm21.456 3.049v.184c-.314-.112-.648-.184-1-.184v-1h-1c-1.153 0-2.309-.272-3.342-.789l-.658-.329-.658.329c-1.033.517-2.189.789-3.342.789h-1v1c-.352 0-.686.072-1 .184v-.184c0-3.309 2.691-6 6-6s6 2.691 6 6zm-1 2c.551 0 1 .448 1 1s-.449 1-1 1zm-8 2v-3.054c1.036-.111 2.055-.393 3-.832.945.439 1.964.721 3 .832v3.054c0 1.654-1.346 3-3 3s-3-1.346-3-3zm-2 0c-.551 0-1-.448-1-1s.449-1 1-1zm7.232 7h-4.464l-.259-1.148c.384-.309.704-.691.952-1.12.487.16.998.268 1.539.268s1.052-.108 1.541-.268c.246.423.566.8.953 1.11zm-.451 2-1.58 7h-.401l-1.58-7zm-25.359-43.52.572-.121.74-2.359h6.531l.74 2.359.572.121c2.635.558 5.124 1.59 7.396 3.068l.49.319 2.196-1.147 4.619 4.619-1.147 2.196.319.49c1.479 2.272 2.511 4.761 3.068 7.396l.121.572 2.361.741v6.031c-1.371-1.102-3.109-1.765-5-1.765-.01 0-.019.001-.029.001.018-.333.029-.667.029-1.001 0-10.477-8.523-19-19-19-5.159 0-10.099 2.131-13.671 5.837l-.879-.177c-.502-.143-.914-.479-1.17-.917.548-.481.999-1.067 1.296-1.743h.424c1.654 0 3-1.346 3-3 0-.009-.003-.018-.003-.028 2.008-1.164 4.161-2.013 6.425-2.492zm-17.422 3.52v-2c0-.486.349-.893.809-.982 1.38.643 2.905.982 4.427.982h.764v2c0 1.654-1.346 3-3 3s-3-1.346-3-3zm8-2c.551 0 1 .449 1 1s-.449 1-1 1zm-11 1c0-.551.449-1 1-1v2c-.551 0-1-.449-1-1zm1.78-3h-.78c-.523 0-1.007.146-1.435.382-.354-.368-.565-.858-.565-1.382 0-.842.542-1.597 1.347-1.877l.718-.25-.049-.76-.016-.113c0-1.103.897-2 2-2 .139 0 .288.021.468.064l.605.146.398-.479c.772-.93 2.283-.93 3.056 0l.398.479.605-.146c.182-.043.331-.064.47-.064 1.103 0 2 .897 2 1.965l-.065.907.718.25c.805.281 1.347 1.036 1.347 1.878 0 .524-.211 1.014-.565 1.382-.428-.236-.912-.382-1.435-.382h-1-1.764c-1.308 0-2.618-.309-3.789-.895l-.211-.105h-.236c-.883 0-1.67.391-2.22 1zm4.22 9c.541 0 1.052-.108 1.541-.268.082.141.17.277.269.406l-1.81 2.261-1.807-2.259c.098-.13.186-.267.268-.408.488.16.999.268 1.539.268zm-10 5.273c0-1.422 1.012-2.659 2.406-2.941l3.692-.749c.183-.052.36-.119.531-.195l3.371 4.213 3.378-4.222c.192.087.391.164.6.223l3.617.73c1.393.282 2.405 1.519 2.405 2.941v3.727h-20zm33.578 29.247-.572.121-.74 2.359h-6.531l-.741-2.359-.572-.121c-2.636-.558-5.125-1.59-7.396-3.068l-.49-.319-2.196 1.147-4.619-4.617 1.147-2.196-.319-.49c-1.479-2.272-2.511-4.762-3.068-7.397l-.121-.572-2.36-.742v-5.266h5.117c-.069.664-.117 1.332-.117 2 0 10.477 8.523 19 19 19 3.983 0 7.827-1.254 11.034-3.546.055.966.275 1.903.664 2.779l-.688.139c-1.346.272-2.464 1.087-3.179 2.178-1.057.403-2.147.736-3.253.97zm4.422 1.752c0-1.422 1.012-2.659 2.406-2.94l3.238-.657 2.105 9.325h-7.749zm20 5.728h-7.749l2.104-9.321 3.239.653c1.394.281 2.406 1.519 2.406 2.94z"/><path d="m7.707 53.707-1.414-1.414-4.707 4.707 4.707 4.707 1.414-1.414-2.293-2.293h12.586v-2h-12.586z"/><path d="m20 56h2v2h-2z"/><path d="m56.293 10.293 1.414 1.414 4.707-4.707-4.707-4.707-1.414 1.414 2.293 2.293h-12.586v2h12.586z"/><path d="m42 6h2v2h-2z"/></g></g></svg>