<svg id="Layer_5" enable-background="new 0 0 64 64" height="512" viewBox="0 0 64 64" width="512" xmlns="http://www.w3.org/2000/svg"><g><g><g><path d="m22 52v6c0 1.1-.45 2.1-1.17 2.83-.73.72-1.73 1.17-2.83 1.17-2.21 0-4-1.79-4-4v-6c0-1.1.9-2 2-2h1 2 1c1.1 0 2 .9 2 2z" fill="#969faa"/></g><g><path d="m21 45.71v2.29c0 1.1-.9 2-2 2h-2c-1.1 0-2-.9-2-2v-2.28c.97.18 1.98.28 3 .28 1.03 0 2.03-.1 3-.29z" fill="#ccd1d9"/></g><g><path d="m15 45.72c-7.4-1.4-13-7.9-13-15.72 0-8.84 7.16-16 16-16 5.92 0 11.09 3.22 13.86 8h-4.92c-2.19-2.46-5.39-4-8.94-4-6.63 0-12 5.37-12 12s5.37 12 12 12c3.55 0 6.75-1.54 8.94-4h4.92c-2.29 3.95-6.22 6.84-10.86 7.71-.97.19-1.97.29-3 .29-1.02 0-2.03-.1-3-.28z" fill="#e6e9ed"/></g><g><path d="m26.94 22h-6.94c-1.1 0-2 .9-2 2v12c0 1.1.9 2 2 2h6.94c-2.19 2.46-5.39 4-8.94 4-6.63 0-12-5.37-12-12s5.37-12 12-12c3.55 0 6.75 1.54 8.94 4z" fill="#69d6f4"/></g><g><circle cx="52" cy="48" fill="#fcd770" r="10"/></g><g><path d="m26.94 38h-6.94c-1.1 0-2-.9-2-2v-12c0-1.1.9-2 2-2h6.94 4.92 16.14c0 1.1.9 2 2 2h4v12c0 1.1-.9 2-2 2h-20.14z" fill="#f0d0b4"/></g><g><path d="m52 20h-4v-3.08c-2.73-1.58-4.44-4.72-3.9-8.2.54-3.5 3.47-6.28 6.99-6.67 4.82-.53 8.91 3.23 8.91 7.95 0 2.96-1.61 5.54-4 6.92v3.08z" fill="#ffeaa7"/></g><g><path d="m56 20v2c0 1.1-.9 2-2 2h-4c-1.1 0-2-.9-2-2v-2h4z" fill="#ccd1d9"/></g><g><circle cx="52" cy="10" fill="#fcd770" r="2"/></g></g><g><path d="m25 27c1.103 0 2 .897 2 2h2c0-2.206-1.794-4-4-4s-4 1.794-4 4v2c0 2.206 1.794 4 4 4s4-1.794 4-4h-2c0 1.103-.897 2-2 2s-2-.897-2-2v-2c0-1.103.897-2 2-2z"/><path d="m36 25h-5v10h2v-4h3c.552 0 1 .449 1 1v3h2v-3c0-.771-.301-1.468-.78-2 .48-.532.78-1.229.78-2 0-1.654-1.346-3-3-3zm-3 4v-2h3c.552 0 1 .449 1 1s-.448 1-1 1z"/><path d="m53 45c.552 0 1 .448 1 1h2c0-1.654-1.346-3-3-3v-2h-2v2h-3v3c0 1.654 1.346 3 3 3h2c.552 0 1 .448 1 1v1h-3c-.552 0-1-.448-1-1h-2c0 1.654 1.346 3 3 3v2h2v-2h3v-3c0-1.654-1.346-3-3-3h-2c-.552 0-1-.448-1-1v-1z"/><path d="m54.669 37.341c.205-.405.331-.857.331-1.341v-11.184c1.161-.414 2-1.514 2-2.816v-4.527c2.481-1.661 4-4.473 4-7.473 0-2.557-1.093-5.001-2.999-6.708-1.904-1.705-4.464-2.521-7.026-2.236-3.948.438-7.256 3.596-7.863 7.509-.548 3.526.97 6.959 3.889 8.908v3.527h-14.588c-3.096-4.946-8.56-8-14.413-8-9.374 0-17 7.626-17 17 0 7.994 5.553 14.699 13 16.505v1.495c0 .537.153 1.034.401 1.471-.839.532-1.401 1.464-1.401 2.529v6c0 2.757 2.243 5 5 5s5-2.243 5-5v-6c0-1.065-.562-1.997-1.401-2.529.248-.437.401-.934.401-1.471v-1.49c4.271-1.041 8.039-3.716 10.413-7.51h13.282c-2.834 1.992-4.695 5.28-4.695 9 0 6.065 4.935 11 11 11s11-4.935 11-11c0-5.143-3.553-9.461-8.331-10.659zm-.669-14.341h-4c-.552 0-1-.449-1-1v-1h6v1c0 .551-.448 1-1 1zm-3-13c0-.551.448-1 1-1s1 .449 1 1-.448 1-1 1-1-.449-1-1zm-5.912-1.128c.472-3.036 3.04-5.487 6.107-5.827.273-.03.544-.045.814-.045 1.728 0 3.357.619 4.658 1.783 1.482 1.327 2.333 3.229 2.333 5.217 0 2.484-1.342 4.804-3.501 6.053l-.499.289v2.658h-2v-6.184c1.161-.414 2-1.514 2-2.816 0-1.654-1.346-3-3-3s-3 1.346-3 3c0 1.302.839 2.402 2 2.816v6.184h-2v-2.659l-.499-.289c-2.524-1.461-3.863-4.279-3.413-7.18zm-24.088 49.128c0 1.654-1.346 3-3 3s-3-1.346-3-3v-6c0-.552.448-1 1-1h1 2 1c.552 0 1 .448 1 1zm-1-10c0 .552-.448 1-1 1h-2c-.552 0-1-.448-1-1v-1.128c.657.077 1.322.128 2 .128.673 0 1.34-.047 2-.125zm-2-3c-8.271 0-15-6.729-15-15s6.729-15 15-15c4.733 0 9.18 2.263 11.994 6h-2.636c-2.445-2.54-5.822-4-9.358-4-7.168 0-13 5.832-13 13s5.832 13 13 13c3.54 0 6.911-1.46 9.357-4h2.638c-2.815 3.737-7.262 6-11.995 6zm2-6h4.305c-1.833 1.284-4.028 2-6.305 2-6.065 0-11-4.935-11-11s4.935-11 11-11c2.275 0 4.473.716 6.307 2h-4.307c-1.654 0-3 1.346-3 3v12c0 1.654 1.346 3 3 3zm0-2c-.552 0-1-.448-1-1v-12c0-.551.448-1 1-1h27.184c.414 1.161 1.514 2 2.816 2h-1.721l-2 6h-.559l-2-6h-2.72v10h2v-5.838l1.279 3.838h3.441l1.28-3.838v5.838h2v-10h2v11c0 .552-.448 1-1 1zm32 20c-4.963 0-9-4.037-9-9s4.037-9 9-9 9 4.037 9 9-4.037 9-9 9z"/></g></g></svg>