<svg id="Layer_5" enable-background="new 0 0 64 64" height="512" viewBox="0 0 64 64" width="512" xmlns="http://www.w3.org/2000/svg"><g><g><g><path d="m11 18c0 2.21 1.79 4 4 4-2.48 0-4.74 1.01-6.36 2.64-1.63 1.62-2.64 3.88-2.64 6.36v1h-2c-1.1 0-2-.9-2-2v-12c0-1.1.9-2 2-2h7.54c-.34.59-.54 1.27-.54 2z" fill="#e6e9ed"/></g><g><path d="m32.07 32h-.01-8.06v-1c0-4.97-4.03-9-9-9 2.21 0 4-1.79 4-4 0-.73-.2-1.41-.54-2h12.2c-1.52 2.59-2.66 5.86-2.66 8l3 1v3.88c0 1.14.38 2.23 1.07 3.12z" fill="#e6e9ed"/></g><g><path d="m24 31v1h-2v2.59c0 .78-.63 1.41-1.41 1.41-.38 0-.74-.15-1-.41l-3.59-3.59h-10v-1c0-2.48 1.01-4.74 2.64-6.36 1.62-1.63 3.88-2.64 6.36-2.64 4.97 0 9 4.03 9 9z" fill="#ff826e"/></g><g><path d="m18.46 16c.34.59.54 1.27.54 2 0 2.21-1.79 4-4 4s-4-1.79-4-4c0-.73.2-1.41.54-2 .69-1.2 1.98-2 3.46-2s2.77.8 3.46 2z" fill="#f0d0b4"/></g><g><path d="m30 42v12c0 1.1-.9 2-2 2h-2v2.59c0 .78-.63 1.41-1.41 1.41-.38 0-.74-.15-1-.41l-3.59-3.59h-16c-1.1 0-2-.9-2-2v-12c0-1.1.9-2 2-2h24c1.1 0 2 .9 2 2z" fill="#ffeaa7"/></g><g><path d="m62 47v15h-10v-15c0-1.38.56-2.63 1.46-3.54.91-.9 2.16-1.46 3.54-1.46 2.76 0 5 2.24 5 5z" fill="#b4dd7f"/></g><g><path d="m53 39 4 3c-1.38 0-2.63.56-3.54 1.46-.9.91-1.46 2.16-1.46 3.54v15h-16v-8.46c0-2.57.8-5 2.2-7.02s3.4-3.62 5.8-4.52h6z" fill="#b4dd7f"/></g><g><path d="m53 36v3l-3 3h-6v-4h1c1.52 0 2.84-.85 3.52-2.1l.48.1z" fill="#f0d0b4"/></g><g><path d="m45 27.71v5.29c0 .55-.45 1-1 1h-1-6.88c-1.36 0-2.66-.54-3.62-1.5-.16-.16-.3-.32-.43-.5-.69-.89-1.07-1.98-1.07-3.12v-3.88l-3-1c0-2.14 1.14-5.41 2.66-8 1.33-2.26 2.94-4 4.34-4h1 8v2.68c-2.37 1.12-4 3.52-4 6.32 0 3.18 2.11 5.85 5 6.71z" fill="#f0d0b4"/></g><g><path d="m38 4h6v8h-8-1-1c-2.76 0-5-2.24-5-5s2.24-5 5-5c1.63 0 3.09.79 4 2z" fill="#b27946"/></g><g><path d="m62 20.94c0 2.83-.71 5.57-2 7.99-1.3 2.42-3.18 4.53-5.54 6.1l-1.46.97h-4l-.48-.1c.3-.56.48-1.21.48-1.9v-6.29c2.89-.86 5-3.53 5-6.71 0-2.8-1.63-5.2-4-6.32v-9.95c6.95 2.11 12 8.57 12 16.21z" fill="#b27946"/></g><g><path d="m44 12v-8c0-1.1.9-2 2-2h2c1.1 0 2 .9 2 2v.73 9.95c-.91-.44-1.92-.68-3-.68-1.07 0-2.09.24-3 .68z" fill="#969faa"/></g><g><path d="m49 27.71v6.29c0 .69-.18 1.34-.48 1.9-.68 1.25-2 2.1-3.52 2.1h-1-9c-.83 0-1.58-.34-2.12-.88s-.88-1.29-.88-2.12c0-.55.45-1 1-1h3.12 6.88 1c.55 0 1-.45 1-1v-5.29c.63.19 1.3.29 2 .29s1.37-.1 2-.29z" fill="#969faa"/></g><g><path d="m50 14.68c2.37 1.12 4 3.52 4 6.32 0 3.18-2.11 5.85-5 6.71-.63.19-1.3.29-2 .29s-1.37-.1-2-.29c-2.89-.86-5-3.53-5-6.71 0-2.8 1.63-5.2 4-6.32.91-.44 1.93-.68 3-.68 1.08 0 2.09.24 3 .68z" fill="#fcd770"/></g><g><circle cx="47" cy="21" fill="#ffc729" r="3"/></g></g><g><path d="m57.357 41.018-3.357-2.518v-1.965l1.013-.675c5.001-3.334 7.987-8.913 7.987-14.924 0-7.7-4.795-14.398-12-16.915v-.021c0-1.654-1.346-3-3-3h-2c-1.302 0-2.402.839-2.816 2h-4.724c-1.1-1.224-2.689-2-4.46-2-3.309 0-6 2.691-6 6 0 2.575 1.634 4.77 3.917 5.619-.653.658-1.276 1.47-1.844 2.381h-11.099c-.914-1.207-2.348-2-3.974-2s-3.061.793-3.974 2h-7.026c-1.654 0-3 1.346-3 3v12c0 1.654 1.346 3 3 3h11.586l3.293 3.293c.456.456 1.062.707 1.707.707 1.331 0 2.414-1.083 2.414-2.414v-1.586h8.605c.063.069.121.141.188.207.041.041.085.076.127.115-.552.356-.92.974-.92 1.678 0 2.206 1.794 4 4 4h8v2.336c-4.81 2.104-8 6.919-8 12.208v9.456h28v-16c0-3.188-2.501-5.796-5.643-5.982zm-10.357-14.018c-3.309 0-6-2.691-6-6s2.691-6 6-6 6 2.691 6 6-2.691 6-6 6zm-13.793 4.793c-.778-.778-1.207-1.814-1.207-2.914v-4.6l-2.96-.987c.418-3.921 4.008-10.292 5.96-10.292h1 7v1.082c-2.387 1.386-4 3.964-4 6.918 0 3.35 2.072 6.221 5 7.411v4.589h-1-6.879c-1.1 0-2.136-.429-2.914-1.207zm12.793-28.793h2c.551 0 1 .449 1 1v9.263c-.641-.166-1.308-.263-2-.263s-1.359.097-2 .263v-9.263c0-.551.449-1 1-1zm-16 4c0-2.206 1.794-4 4-4s4 1.794 4 4h2c0-.702-.128-1.373-.35-2h3.35v6h-7-1-1c-2.206 0-4-1.794-4-4zm-15 8c1.654 0 3 1.346 3 3s-1.346 3-3 3-3-1.346-3-3 1.346-3 3-3zm-12 15v-12c0-.551.449-1 1-1h6.101c-.066.323-.101.658-.101 1 0 1.426.608 2.707 1.569 3.619-3.826 1.404-6.569 5.073-6.569 9.381h-1c-.551 0-1-.449-1-1zm18 1v3.586c0 .338-.469.532-.707.293l-3.879-3.879h-9.414c0-4.411 3.589-8 8-8s8 3.589 8 8zm4 0c0-4.308-2.743-7.977-6.569-9.381.961-.912 1.569-2.193 1.569-3.619 0-.342-.035-.677-.101-1h9.076c-1.203 2.489-1.975 5.208-1.975 7v.721l3 1v3.158c0 .736.136 1.45.383 2.121zm10 6c-1.103 0-2-.897-2-2h3.121 6.879 1c1.103 0 2-.897 2-2v-4.069c.328.041.661.069 1 .069s.672-.028 1-.069v5.069c0 1.654-1.346 3-3 3zm15-3v-5.589c2.928-1.19 5-4.061 5-7.411 0-2.953-1.613-5.532-4-6.918v-7.94c6.034 2.405 10 8.189 10 14.794 0 5.34-2.653 10.297-7.096 13.26l-1.904 1.269v3.121l-2.414 2.414h-4.586v-2c2.757 0 5-2.243 5-5zm1 13v14h-14v-7.456c0-4.636 2.88-8.851 7.186-10.544h6.229l2.68-2.68 1.55 1.163c-2.141.918-3.645 3.044-3.645 5.517zm10 14h-8v-14c0-2.206 1.794-4 4-4s4 1.794 4 4z"/><path d="m47 17c-2.206 0-4 1.794-4 4s1.794 4 4 4 4-1.794 4-4-1.794-4-4-4zm0 6c-1.103 0-2-.897-2-2s.897-2 2-2 2 .897 2 2-.897 2-2 2z"/><path d="m28 39h-24c-1.654 0-3 1.346-3 3v12c0 1.654 1.346 3 3 3h15.586l3.293 3.293c.456.456 1.062.707 1.707.707 1.331 0 2.414-1.083 2.414-2.414v-1.586h1c1.654 0 3-1.346 3-3v-12c0-1.654-1.346-3-3-3zm1 15c0 .551-.449 1-1 1h-3v3.586c0 .338-.469.531-.707.293l-3.879-3.879h-16.414c-.551 0-1-.449-1-1v-12c0-.551.449-1 1-1h24c.551 0 1 .449 1 1z"/><path d="m5 43h2v2h-2z"/><path d="m9 43h18v2h-18z"/><path d="m5 47h22v2h-22z"/><path d="m5 51h22v2h-22z"/></g></g></svg>