<svg id="Layer_5" enable-background="new 0 0 64 64" height="512" viewBox="0 0 64 64" width="512" xmlns="http://www.w3.org/2000/svg"><g><g><g><path d="m36 26v6c0 1.1-.9 2-2 2h-28c-1.1 0-2-.9-2-2v-6h10 12z" fill="#b4dd7f"/></g><g><path d="m6 40v-6h28v6c0 1.1-.9 2-2 2h-24c-1.1 0-2-.9-2-2z" fill="#b4dd7f"/></g><g><path d="m32 42v6c0 1.1-.9 2-2 2h-2-16-2c-1.1 0-2-.9-2-2v-6z" fill="#b4dd7f"/></g><g><path d="m12 50h16v12h-16z" fill="#ccd1d9"/></g><g><path d="m32.73 7.27c-3.26-3.25-7.76-5.27-12.73-5.27s-9.47 2.02-12.73 5.27c-3.25 3.26-5.27 7.76-5.27 12.73v6h36v-6c0-4.97-2.02-9.47-5.27-12.73z" fill="#69d6f4"/></g><g><path d="m26 26h-12c0-3.31 2.69-6 6-6 .14 0 .27 0 .4.02 1.56.1 2.96.8 3.96 1.87 1.02 1.07 1.64 2.51 1.64 4.11z" fill="#ff826e"/></g><g><path d="m27 14v4l-2.64 3.89c-1-1.07-2.4-1.77-3.96-1.87l2.6-4.02z" fill="#e6e9ed"/></g><g><path d="m54 55-8 6v-3h-12v-6h12v-3z" fill="#ffeaa7"/></g><g><path d="m58 41-8 6v-3h-12v-6h12v-3z" fill="#ffeaa7"/></g><g><path d="m61 25-8 6v-3h-11v-6h11v-3z" fill="#ffeaa7"/></g></g><g><path d="m33 42.816c1.161-.414 2-1.514 2-2.816v-5.184c1.161-.414 2-1.514 2-2.816v-5h2v-7c0-10.477-8.523-19-19-19s-19 8.523-19 19v7h2v5c0 1.302.839 2.402 2 2.816v5.184c0 1.302.839 2.402 2 2.816v5.184c0 1.654 1.346 3 3 3h1v12h18v-12h1c1.654 0 3-1.346 3-3zm-1-1.816h-24c-.552 0-1-.448-1-1v-5h26v5c0 .552-.448 1-1 1zm-5.08-16c-.17-1.177-.632-2.259-1.312-3.172l2.392-3.52v-5.926l-5.691 2.846-2.443 3.779c-3.458.066-6.304 2.651-6.786 5.993h-10.08v-4h4v-2h-3.949c.23-3.933 1.797-7.505 4.261-10.275l2.789 2.789 1.414-1.414-2.79-2.789c2.77-2.464 6.341-4.03 10.275-4.261v3.95h2v-3.949c3.933.23 7.505 1.797 10.275 4.261l-2.789 2.789 1.414 1.414 2.789-2.789c2.464 2.77 4.03 6.341 4.261 10.275h-3.95v2h4v4h-10.08zm-2.753-4.611c-.633-.471-1.343-.844-2.115-1.081l1.639-2.536 2.309-1.154v2.074zm-4.167.611c2.414 0 4.434 1.721 4.899 4h-9.798c.465-2.279 2.485-4 4.899-4zm15 6v5c0 .552-.448 1-1 1h-28c-.552 0-1-.448-1-1v-5zm-8 34h-14v-10h14zm3-12h-20c-.552 0-1-.448-1-1v-5h22v5c0 .552-.448 1-1 1z"/><path d="m31 29h2v2h-2z"/><path d="m27 29h2v2h-2z"/><path d="m23 29h2v2h-2z"/><path d="m13 37h2v2h-2z"/><path d="m9 37h2v2h-2z"/><path d="m17 37h2v2h-2z"/><path d="m27 45h2v2h-2z"/><path d="m23 45h2v2h-2z"/><path d="m19 45h2v2h-2z"/><path d="m45 51h-12v8h12v4l10.667-8-10.667-8zm2 0 5.333 4-5.333 4v-2h-12v-4h12z"/><path d="m49 37h-12v8h12v4l10.667-8-10.667-8zm2 0 5.333 4-5.333 4v-2h-12v-4h12z"/><path d="m52 33 10.667-8-10.667-8v4h-11v8h11zm-9-6v-4h11v-2l5.333 4-5.333 4v-2z"/></g></g></svg>