<svg id="Layer_5" enable-background="new 0 0 64 64" height="512" viewBox="0 0 64 64" width="512" xmlns="http://www.w3.org/2000/svg"><g><g><g><path d="m6 10h56v38h-56z" fill="#f0d0b4"/></g><g><path d="m34 22h24v10h-24z" fill="#b4dd7f"/></g><g><path d="m47.59 2.01c-4.23.21-7.59 3.71-7.59 7.99s3.36 7.78 7.59 7.99c-4.34-.1-8.49-1.85-11.59-4.89l-1.18-1.16c-.53-.51-.82-1.21-.82-1.94s.29-1.43.82-1.94l1.18-1.16c1.6-1.57 3.48-2.8 5.52-3.63 1.92-.78 3.97-1.21 6.07-1.26z" fill="#ccd1d9"/></g><g><path d="m61.18 8.06c.53.51.82 1.21.82 1.94s-.29 1.43-.82 1.94l-1.18 1.16c-1.6 1.57-3.48 2.8-5.52 3.63-1.92.78-3.97 1.21-6.07 1.26 4.23-.21 7.59-3.71 7.59-7.99s-3.36-7.78-7.59-7.99c4.34.1 8.49 1.85 11.59 4.89z" fill="#ccd1d9"/></g><g><path d="m48.41 2.01c4.23.21 7.59 3.71 7.59 7.99s-3.36 7.78-7.59 7.99c-.13.01-.27.01-.41.01s-.28 0-.41-.01c-4.23-.21-7.59-3.71-7.59-7.99s3.36-7.78 7.59-7.99c.13-.01.27-.01.41-.01s.28 0 .41.01z" fill="#69d6f4"/></g><g><path d="m58 48v3l-2.57.65c-.2.64-.47 1.25-.77 1.84l1.36 2.29-4.24 4.24-2.29-1.36c-.59.3-1.2.57-1.84.77l-.65 2.57h-6l-.65-2.57c-.64-.2-1.25-.47-1.84-.77l-2.29 1.36-4.24-4.24 1.36-2.29c-.3-.59-.57-1.2-.77-1.84l-2.57-.65v-3h6c0 4.42 3.58 8 8 8s8-3.58 8-8z" fill="#ffc729"/></g><g><path d="m48 48h4c0 4.42-3.58 8-8 8s-8-3.58-8-8h4c0 2.21 1.79 4 4 4s4-1.79 4-4z" fill="#fcd770"/></g><g><circle cx="48" cy="10" fill="#4fc1e9" r="4"/></g><g><path d="m6 27.05c2.12-1.9 4.92-3.05 8-3.05 6.63 0 12 5.37 12 12 0 5.59-3.82 10.29-9 11.62-.96.25-1.96.38-3 .38s-2.04-.13-3-.38c-5.18-1.33-9-6.03-9-11.62 0-3.56 1.54-6.75 4-8.95z" fill="#fcd770"/></g><g><circle cx="14" cy="36" fill="#69d6f4" r="8"/></g><g><path d="m17 48v11c0 .83-.34 1.58-.88 2.12s-1.29.88-2.12.88c-1.66 0-3-1.34-3-3v-11.33-.05c.96.25 1.96.38 3 .38s2.04-.13 3-.38v.05z" fill="#969faa"/></g></g><g><path d="m48 5c-2.757 0-5 2.243-5 5s2.243 5 5 5 5-2.243 5-5-2.243-5-5-5zm0 8c-1.654 0-3-1.346-3-3s1.346-3 3-3 3 1.346 3 3-1.346 3-3 3z"/><path d="m23 36c0-4.963-4.038-9-9-9s-9 4.037-9 9 4.038 9 9 9 9-4.037 9-9zm-16 0c0-3.859 3.14-7 7-7s7 3.141 7 7-3.14 7-7 7-7-3.141-7-7z"/><path d="m63 10c0-.994-.407-1.962-1.117-2.657l-1.182-1.159c-3.413-3.343-7.924-5.184-12.701-5.184s-9.288 1.841-12.701 5.184l-1.182 1.158c-.466.457-.785 1.036-.961 1.658h-28.156v17.641c-2.46 2.367-4 5.684-4 9.359 0 5.772 3.784 10.672 9 12.364v10.636c0 2.206 1.794 4 4 4s4-1.794 4-4v-10h11v2.777l2.802.713c.119.318.252.638.4.956l-1.48 2.489 5.342 5.342 2.489-1.479c.317.147.637.281.956.4l.714 2.802h7.555l.713-2.802c.319-.119.639-.253.956-.4l2.489 1.479 5.342-5.342-1.48-2.489c.147-.317.281-.638.4-.956l2.802-.713v-2.777h4zm-2.517-1.229c.329.322.517.77.517 1.229s-.188.907-.517 1.229l-1.182 1.157c-1.199 1.174-2.554 2.131-4.011 2.87 1.071-1.48 1.71-3.293 1.71-5.256s-.639-3.776-1.71-5.257c1.458.739 2.813 1.696 4.011 2.869zm-19.483 1.229c0-3.859 3.14-7 7-7s7 3.141 7 7-3.14 7-7 7-7-3.141-7-7zm-5.483-1.229 1.182-1.157c1.199-1.174 2.554-2.131 4.011-2.87-1.071 1.48-1.71 3.293-1.71 5.256s.639 3.776 1.71 5.257c-1.458-.739-2.813-1.696-4.011-2.869l-1.182-1.159c-.329-.322-.517-.77-.517-1.229s.188-.907.517-1.229zm-32.517 27.229c0-6.065 4.935-11 11-11s11 4.935 11 11-4.935 11-11 11-11-4.935-11-11zm11 25c-1.103 0-2-.897-2-2v-10.17c.654.102 1.318.17 2 .17s1.346-.069 2-.17v10.17c0 1.103-.897 2-2 2zm43-10.777-2.354.598-.169.528c-.179.56-.415 1.126-.704 1.686l-.254.492 1.246 2.095-3.143 3.143-2.096-1.246-.493.256c-.558.288-1.124.525-1.683.704l-.528.168-.599 2.353h-4.445l-.599-2.354-.528-.168c-.559-.179-1.125-.416-1.683-.704l-.493-.256-2.096 1.246-3.143-3.143 1.245-2.094-.253-.493c-.29-.562-.526-1.129-.704-1.686l-.169-.528-2.355-.597v-1.223h4.059c.5 4.493 4.317 8 8.941 8s8.442-3.507 8.941-8h4.059zm-17.899-1.223c.465 2.279 2.484 4 4.899 4s4.434-1.721 4.899-4h2.021c-.488 3.386-3.401 6-6.92 6s-6.432-2.614-6.92-6zm2.083 0h5.631c-.414 1.161-1.514 2-2.816 2s-2.401-.839-2.815-2zm-20.288-2c3.66-2.303 6.104-6.367 6.104-11 0-7.168-5.832-13-13-13-2.578 0-4.977.764-7 2.063v-14.063h26.156c.176.622.495 1.201.961 1.657l1.182 1.159c3.413 3.343 7.924 5.184 12.701 5.184s9.288-1.841 12.701-5.185l.299-.293v33.478z"/><path d="m9 13h2v2h-2z"/><path d="m13 13h19v2h-19z"/><path d="m9 17h23v2h-23z"/><path d="m33 33h26v-12h-26zm2-10h22v8h-22z"/><path d="m33 35h2v2h-2z"/><path d="m37 35h22v2h-22z"/><path d="m33 39h26v2h-26z"/><path d="m53 43h2v2h-2z"/><path d="m57 43h2v2h-2z"/><path d="m33 43h18v2h-18z"/></g></g></svg>