<svg id="Layer_5" enable-background="new 0 0 64 64" height="512" viewBox="0 0 64 64" width="512" xmlns="http://www.w3.org/2000/svg"><g><g><g><path d="m19.1 21.17-4.1-1.17h-2l1 8-2 2-2-2 1-8h-2l-4.1 1.17c-1.72.49-2.9 2.06-2.9 3.85v12.98h10 6 4v-12.98c0-1.79-1.18-3.36-2.9-3.85z" fill="#4fc1e9"/></g><g><path d="m13 20 1 8-2 2-2-2 1-8h1z" fill="#ff826e"/></g><g><path d="m42 25.02v12.98h-20v-12.98c0-1.79 1.18-3.36 2.9-3.85l1.26-.36 1.84 9.19 4-4 4 4 1.84-9.19 1.26.36c1.72.49 2.9 2.06 2.9 3.85z" fill="#fc6e51"/></g><g><path d="m27.93 20.31 4.07 5.69-4 4-1.84-9.19z" fill="#fc6e51"/></g><g><path d="m37.84 20.81-1.84 9.19-4-4 4.07-5.69z" fill="#fc6e51"/></g><g><path d="m35 20 1.07.31-4.07 5.69-4.07-5.69 1.07-.31h3z" fill="#f0d0b4"/></g><g><path d="m62 25.02v12.98h-20v-12.98c0-1.79 1.18-3.36 2.9-3.85l2.83-.81 1.58 5.64 1.42 5.04c.16.57.68.96 1.27.96s1.11-.39 1.27-.96l1.42-5.04 1.58-5.64 2.83.81c1.72.49 2.9 2.06 2.9 3.85z" fill="#4fc1e9"/></g><g><path d="m56.27 20.36-1.58 5.64h-5.38l-1.58-5.64 1.27-.36h3 3z" fill="#f0d0b4"/></g><g><path d="m54.69 26-1.42 5.04c-.16.57-.68.96-1.27.96s-1.11-.39-1.27-.96l-1.42-5.04z" fill="#ffeaa7"/></g><g><path d="m46 44v16h-8c-2.21 0-4.21-.9-5.66-2.34-1.44-1.45-2.34-3.45-2.34-5.66 0-4.42 3.58-8 8-8z" fill="#b4dd7f"/></g><g><path d="m50 60v1c0 .55-.45 1-1 1h-2c-.55 0-1-.45-1-1v-1-16-1c0-.55.45-1 1-1h2c.55 0 1 .45 1 1v1 4 8z" fill="#a0d468"/></g><g><path d="m12 20h-1-2v-.27c0-1.3-.65-2.5-1.7-3.26-2.26-1.64-3.63-4.43-3.23-7.52.45-3.59 3.4-6.49 7-6.9 4.83-.54 8.93 3.22 8.93 7.95 0 2.64-1.28 4.97-3.25 6.43-1.06.79-1.75 1.98-1.75 3.3v.27h-2z" fill="#ffeaa7"/></g><g><path d="m32 20h-3v-.27c0-1.3-.65-2.5-1.7-3.26-2.26-1.64-3.63-4.43-3.23-7.52.45-3.59 3.4-6.49 7-6.9 4.83-.54 8.93 3.22 8.93 7.95 0 2.64-1.28 4.97-3.25 6.43-1.06.79-1.75 1.98-1.75 3.3v.27z" fill="#ffeaa7"/></g><g><path d="m60 44c1.1 0 2 .9 2 2 0 .55-.22 1.05-.59 1.41-.36.37-.86.59-1.41.59h-10v-4z" fill="#e6e9ed"/></g><g><path d="m60 56c1.1 0 2 .9 2 2 0 .55-.22 1.05-.59 1.41-.36.37-.86.59-1.41.59h-10v-4z" fill="#e6e9ed"/></g><g><path d="m52 20h-3v-.27c0-1.3-.65-2.5-1.7-3.26-2.26-1.64-3.63-4.43-3.23-7.52.45-3.59 3.4-6.49 7-6.9 4.83-.54 8.93 3.22 8.93 7.95 0 2.64-1.28 4.97-3.25 6.43-1.06.79-1.75 1.98-1.75 3.3v.27z" fill="#ffeaa7"/></g><g><circle cx="52" cy="10" fill="#fcd770" r="2"/></g><g><circle cx="32" cy="10" fill="#fcd770" r="2"/></g><g><circle cx="12" cy="10" fill="#fcd770" r="2"/></g></g><path d="m21 39h2 18 2 20v-13.982c0-2.221-1.491-4.197-3.627-4.809l-3.332-.951c.135-.778.595-1.497 1.308-2.024 2.286-1.691 3.651-4.395 3.651-7.234 0-2.561-1.096-5.008-3.006-6.714-1.91-1.707-4.479-2.515-7.039-2.228-4.051.458-7.365 3.723-7.88 7.763-.418 3.284.977 6.525 3.641 8.459.67.487 1.115 1.203 1.245 1.977l-3.335.952c-1.075.308-1.986.963-2.626 1.82-.641-.857-1.551-1.513-2.627-1.82l-3.332-.951c.135-.778.595-1.497 1.308-2.024 2.286-1.691 3.651-4.395 3.651-7.234 0-2.561-1.096-5.008-3.006-6.714-1.91-1.707-4.48-2.515-7.039-2.228-4.051.458-7.365 3.723-7.88 7.763-.418 3.284.977 6.525 3.641 8.459.67.487 1.115 1.203 1.245 1.977l-3.335.952c-1.075.308-1.986.963-2.626 1.82-.641-.857-1.551-1.513-2.627-1.82l-3.332-.951c.135-.778.595-1.497 1.308-2.024 2.286-1.691 3.651-4.395 3.651-7.234 0-2.561-1.096-5.008-3.006-6.714-1.91-1.707-4.481-2.515-7.039-2.228-4.051.459-7.365 3.723-7.88 7.763-.418 3.284.977 6.525 3.641 8.459.67.487 1.115 1.203 1.245 1.977l-3.335.952c-2.135.611-3.626 2.588-3.626 4.809v13.982h10v10c0 1.103-.897 2-2 2h-8v2h8c2.206 0 4-1.794 4-4v-12c0-1.103.897-2 2-2s2 .897 2 2v22c0 2.206 1.794 4 4 4s4-1.794 4-4v-4c0-1.103.897-2 2-2h2.059c.499 4.493 4.316 8 8.941 8h7c0 1.103.897 2 2 2h2c1.103 0 2-.897 2-2h9c1.654 0 3-1.346 3-3s-1.346-3-3-3h-9v-6h9c1.654 0 3-1.346 3-3s-1.346-3-3-3h-9c0-1.103-.897-2-2-2h-2c-1.103 0-2 .897-2 2h-7c-4.625 0-8.442 3.507-8.941 8h-2.059c-2.206 0-4 1.794-4 4v4c0 1.103-.897 2-2 2s-2-.897-2-2v-20zm39 18c.552 0 1 .448 1 1s-.448 1-1 1h-9v-2zm0-12c.552 0 1 .448 1 1s-.448 1-1 1h-9v-2zm-13-2h2l.002 18h-2.002zm-9 2h7v14h-7c-3.859 0-7-3.141-7-7s3.141-7 7-7zm15.929-20h-3.859l-1.111-3.949.18-.051h5.722l.179.051zm-.562 2-1.059 3.767c-.076.275-.539.275-.615 0l-1.06-3.767zm-2.367-17c0-.552.448-1 1-1s1 .448 1 1-.448 1-1 1-1-.448-1-1zm-3.108 5.663c-2.073-1.505-3.158-4.029-2.832-6.589.399-3.137 2.974-5.672 6.12-6.027 2.027-.237 3.975.385 5.481 1.73 1.486 1.328 2.339 3.232 2.339 5.223 0 2.24-1.035 4.29-2.84 5.625-1.16.857-1.895 2.06-2.097 3.375h-1.063v-6.184c1.161-.414 2-1.514 2-2.816 0-1.654-1.346-3-3-3s-3 1.346-3 3c0 1.302.839 2.402 2 2.816v6.184h-1.062c-.201-1.313-.93-2.526-2.046-3.337zm-2.716 6.47 1.861-.532 2.73 9.707c.28.996 1.199 1.692 2.233 1.692s1.953-.696 2.233-1.692l2.73-9.707 1.86.532c1.282.366 2.177 1.553 2.177 2.885v11.982h-18v-11.982c0-1.332.895-2.519 2.176-2.885zm-13.176 2.147-2.342-3.28h4.685zm-4.471-2.82 3.165 4.431-2.08 2.08-1.291-6.453zm3.471-11.46c0-.552.448-1 1-1s1 .448 1 1-.448 1-1 1-1-.448-1-1zm5.471 11.46.205.059-1.291 6.453-2.08-2.08zm-8.579-5.797c-2.073-1.505-3.158-4.029-2.832-6.589.399-3.137 2.974-5.672 6.12-6.027 2.026-.237 3.975.385 5.481 1.73 1.486 1.328 2.339 3.232 2.339 5.223 0 2.24-1.035 4.29-2.84 5.625-1.16.857-1.895 2.06-2.097 3.375h-1.063v-6.184c1.161-.414 2-1.514 2-2.816 0-1.654-1.346-3-3-3s-3 1.346-3 3c0 1.302.839 2.402 2 2.816v6.184h-1.062c-.201-1.313-.93-2.526-2.046-3.337zm-2.716 6.47.219-.062 1.991 9.958 4.614-4.615 4.614 4.614 1.991-9.958.218.062c1.282.367 2.177 1.554 2.177 2.886v11.982h-18v-11.982c0-1.332.895-2.519 2.176-2.885zm-17.285-6.471c-2.072-1.504-3.157-4.028-2.831-6.588.399-3.137 2.974-5.672 6.12-6.027 2.025-.237 3.975.385 5.481 1.73 1.486 1.328 2.339 3.232 2.339 5.223 0 2.24-1.035 4.29-2.84 5.625-1.16.857-1.895 2.06-2.097 3.375h-1.063v-6.184c1.161-.414 2-1.514 2-2.816 0-1.654-1.346-3-3-3s-3 1.346-3 3c0 1.302.839 2.402 2 2.816v6.184h-1.062c-.201-1.313-.93-2.526-2.047-3.338zm5.056 11.977-.947.947-.947-.947.83-6.639h.235zm-1.947-17.639c0-.552.448-1 1-1s1 .448 1 1-.448 1-1 1-1-.448-1-1zm4 23c-2.206 0-4 1.794-4 4h-8v-11.982c0-1.332.895-2.519 2.176-2.885l3.963-1.133h.728l-.92 7.361 3.053 3.053 3.053-3.053-.92-7.361h.728l3.962 1.133c1.282.366 2.177 1.553 2.177 2.885v11.982h-2c0-2.206-1.794-4-4-4z"/></g></svg>