<svg id="Capa_1" enable-background="new 0 0 512 512" viewBox="0 0 512 512" xmlns="http://www.w3.org/2000/svg"><g><g><path d="m460.294 97.134h-408.588v-77.556c0-10.813 8.765-19.578 19.578-19.578h369.432c10.813 0 19.578 8.765 19.578 19.578z" fill="#ac8597"/><path d="m440.326 0h-30.598c11.028 0 19.968 8.94 19.968 19.968v77.166h30.598v-77.166c0-11.028-8.94-19.968-19.968-19.968z" fill="#916e7d"/></g><g><path d="m51.706 131.112h408.588v315.837h-408.588z" fill="#7a5d6a"/><path d="m429.697 131.112v227.38c0 31.955-25.905 57.86-57.86 57.86h-320.131v30.598h408.588v-315.838z" fill="#5f4a55"/></g><path d="m470.525 141.311h-429.05c-5.356 0-9.697-4.342-9.697-9.697v-34.982c0-5.356 4.342-9.697 9.697-9.697h139.582l76.359 20.398 73.525-20.398h139.582c5.356 0 9.697 4.342 9.697 9.697v34.981c.002 5.356-4.34 9.698-9.695 9.698z" fill="#ebe1e5"/><path d="m470.525 86.935h-30.598c5.356 0 9.697 4.342 9.697 9.697v34.981c0 5.356-4.342 9.697-9.697 9.697h30.598c5.356 0 9.697-4.342 9.697-9.697v-34.981c0-5.355-4.342-9.697-9.697-9.697z" fill="#dac8d1"/><g fill="#f9f1f4"><path d="m221.939 227.57h-.679c-8.235 0-14.911-6.676-14.911-14.911v-28.791h30.5v28.791c.001 8.235-6.675 14.911-14.91 14.911z"/><path d="m290.74 227.57h-.679c-8.235 0-14.911-6.676-14.911-14.911v-28.791h30.5v28.791c.001 8.235-6.675 14.911-14.91 14.911z"/></g><path d="m303.181 446.949h-91.528c-18.178 0-32.915-14.736-32.915-32.915v-134.417c0-7.283 5.904-13.188 13.187-13.188h130.982c7.283 0 13.187 5.904 13.187 13.188v134.417c.002 18.179-14.735 32.915-32.913 32.915z" fill="#ffd42b"/><path d="m171.136 59.277h-38.396c-8.329 0-15.081-6.752-15.081-15.081v-.601c0-8.329 6.752-15.081 15.081-15.081h38.396c8.329 0 15.081 6.752 15.081 15.081v.601c0 8.329-6.752 15.081-15.081 15.081z" fill="#ffe35e"/><path d="m178.738 321.737h157.357v52.234h-157.357z" fill="#00cdff"/><path d="m345.62 423.621h-16.664c-4.225 0-7.649-3.425-7.649-7.649s3.425-7.649 7.649-7.649h16.664c15.847 0 28.739-12.892 28.739-28.739v-60.642c0-15.847-12.892-28.739-28.739-28.739h-16.664c-4.225 0-7.649-3.425-7.649-7.649s3.425-7.649 7.649-7.649h16.664c24.282 0 44.038 19.755 44.038 44.038v60.642c0 24.281-19.755 44.036-44.038 44.036z" fill="#ffd42b"/><g fill="#916e7d"><path d="m241.331 20.865h-13.89c-4.225 0-7.649 3.425-7.649 7.649s3.425 7.649 7.649 7.649h13.89c4.225 0 7.649-3.425 7.649-7.649s-3.424-7.649-7.649-7.649z"/><path d="m241.331 48.043h-13.89c-4.225 0-7.649 3.425-7.649 7.649s3.425 7.649 7.649 7.649h13.89c4.225 0 7.649-3.425 7.649-7.649s-3.424-7.649-7.649-7.649z"/><path d="m292.861 20.865h-13.891c-4.225 0-7.649 3.425-7.649 7.649s3.425 7.649 7.649 7.649h13.891c4.225 0 7.649-3.425 7.649-7.649s-3.425-7.649-7.649-7.649z"/><path d="m292.861 48.043h-13.891c-4.225 0-7.649 3.425-7.649 7.649s3.425 7.649 7.649 7.649h13.891c4.225 0 7.649-3.425 7.649-7.649s-3.425-7.649-7.649-7.649z"/><path d="m344.39 20.865h-13.89c-4.225 0-7.649 3.425-7.649 7.649s3.425 7.649 7.649 7.649h13.89c4.225 0 7.649-3.425 7.649-7.649s-3.424-7.649-7.649-7.649z"/><path d="m344.39 48.043h-13.89c-4.225 0-7.649 3.425-7.649 7.649s3.425 7.649 7.649 7.649h13.89c4.225 0 7.649-3.425 7.649-7.649s-3.424-7.649-7.649-7.649z"/><path d="m382.029 36.164h13.891c4.225 0 7.649-3.425 7.649-7.649s-3.425-7.649-7.649-7.649h-13.891c-4.225 0-7.649 3.425-7.649 7.649s3.425 7.649 7.649 7.649z"/><path d="m395.92 48.043h-13.891c-4.225 0-7.649 3.425-7.649 7.649s3.425 7.649 7.649 7.649h13.891c4.225 0 7.649-3.425 7.649-7.649s-3.424-7.649-7.649-7.649z"/></g><path d="m315.939 190.839 11.398-10.888c2.303-2.2 3.606-5.246 3.606-8.431v-84.585h-149.885v84.584c0 3.185 1.303 6.231 3.606 8.431l11.398 10.888c2.169 2.072 5.054 3.229 8.055 3.229h103.769c2.999.001 5.883-1.156 8.053-3.228z" fill="#c6b2bc"/><g><path d="m470.714 512h-429.428c-5.251 0-9.508-4.257-9.508-9.508v-48.633c0-5.251 4.257-9.508 9.508-9.508h429.428c5.251 0 9.508 4.257 9.508 9.508v48.633c0 5.251-4.257 9.508-9.508 9.508z" fill="#c6b2bc"/><path d="m470.525 444.351h-30.598c5.356 0 9.697 4.342 9.697 9.697v48.255c0 5.356-4.342 9.697-9.697 9.697h30.598c5.356 0 9.697-4.342 9.697-9.697v-48.255c0-5.356-4.342-9.697-9.697-9.697z" fill="#be9fad"/></g><g fill="#5f4a55"><path d="m80.84 316.385c0-4.225-3.425-7.649-7.649-7.649h-21.485v15.299h21.485c4.224-.001 7.649-3.426 7.649-7.65z"/><path d="m73.191 264.328h-21.485v15.299h21.485c4.225 0 7.649-3.425 7.649-7.649 0-4.225-3.425-7.65-7.649-7.65z"/><path d="m73.191 219.92h-21.485v15.299h21.485c4.225 0 7.649-3.425 7.649-7.649 0-4.225-3.425-7.65-7.649-7.65z"/><path d="m80.84 360.793c0-4.225-3.425-7.649-7.649-7.649h-21.485v15.299h21.485c4.224-.001 7.649-3.426 7.649-7.65z"/></g><g fill="#44373d"><path d="m431.16 316.385c0-4.225 3.425-7.649 7.649-7.649h21.485v15.299h-21.485c-4.224-.001-7.649-3.426-7.649-7.65z"/><path d="m438.809 264.328h21.485v15.299h-21.485c-4.225 0-7.649-3.425-7.649-7.649 0-4.225 3.425-7.65 7.649-7.65z"/><path d="m438.809 219.92h21.485v15.299h-21.485c-4.225 0-7.649-3.425-7.649-7.649 0-4.225 3.425-7.65 7.649-7.65z"/><path d="m431.16 360.793c0-4.225 3.425-7.649 7.649-7.649h21.485v15.299h-21.485c-4.224-.001-7.649-3.426-7.649-7.65z"/></g></g><g/><g/><g/><g/><g/><g/><g/><g/><g/><g/><g/><g/><g/><g/><g/></svg>