<svg id="Capa_1" enable-background="new 0 0 512 512" viewBox="0 0 512 512" xmlns="http://www.w3.org/2000/svg"><g><g><path d="m493.258 479.962h-474.516c-3.909 0-7.078-3.169-7.078-7.078v-132.404l244.336-10.3 244.336 10.3v132.404c0 3.909-3.169 7.078-7.078 7.078z" fill="#ff8e46"/><path d="m469.435 340.48v69.225c0 21.736-17.62 39.356-39.356 39.356h-418.415v23.823c0 3.909 3.169 7.078 7.078 7.078h474.516c3.909 0 7.078-3.169 7.078-7.078v-132.404l-12.464-10.3z" fill="#ff7d2e"/></g><path d="m435.771 302.541h-369.195c-14.409 0-26.09-11.681-26.09-26.09v-218.323c0-14.409 11.681-26.09 26.09-26.09h369.195c14.409 0 26.09 11.681 26.09 26.09v218.323c0 14.409-11.681 26.09-26.09 26.09z" fill="#f9f1f4"/><circle cx="396.06" cy="90.853" fill="#37ddff" r="25.269"/><circle cx="396.06" cy="171.906" fill="#ff838c" r="25.269"/><path d="m410.425 236.923h-28.729c-8.598 0-15.568 6.97-15.568 15.568v.935c0 8.598 6.97 15.568 15.568 15.568h28.729c8.598 0 15.568-6.97 15.568-15.568v-.935c0-8.598-6.97-15.568-15.568-15.568z" fill="#37ddff"/><g><path d="m335.058 233.774v-156.124c0-6.664-5.402-12.065-12.065-12.065h-235.746c-6.663 0-12.065 5.402-12.065 12.065v156.125l130.036 4.7z" fill="#00abff"/><g fill="#ffe35e"><path d="m262.493 206.499h-12.1c-4.267 0-7.725-3.459-7.725-7.725s3.458-7.725 7.725-7.725h12.1c8.049 0 14.597-6.549 14.597-14.598v-14.54c0-8.049-6.548-14.597-14.597-14.597h-12.1c-4.267 0-7.725-3.459-7.725-7.725s3.458-7.725 7.725-7.725h12.1c16.568 0 30.048 13.479 30.048 30.048v14.54c0 16.567-13.48 30.047-30.048 30.047z"/><path d="m220.569 235.287h-30.702c-18.178 0-32.915-14.736-32.915-32.915v-64.638c0-7.283 5.904-13.187 13.187-13.187h70.157c7.283 0 13.187 5.904 13.187 13.187v64.638c0 18.179-14.736 32.915-32.914 32.915z"/></g><path d="m75.182 233.774v23.155c0 6.663 5.402 12.065 12.065 12.065h235.746c6.664 0 12.065-5.402 12.065-12.065v-23.155z" fill="#0074ff"/></g><path d="m505.276 340.48h-498.552c-3.714 0-6.724-3.01-6.724-6.724v-27.582c0-3.714 3.01-6.724 6.724-6.724h498.552c3.713 0 6.724 3.01 6.724 6.724v27.582c0 3.714-3.01 6.724-6.724 6.724z" fill="#ffd5a1"/><path d="m505.074 299.451h-30.901c3.825 0 6.926 3.101 6.926 6.926v27.178c0 3.825-3.101 6.926-6.926 6.926h30.901c3.825 0 6.926-3.101 6.926-6.926v-27.178c0-3.825-3.101-6.926-6.926-6.926z" fill="#ffc17f"/></g><g/><g/><g/><g/><g/><g/><g/><g/><g/><g/><g/><g/><g/><g/><g/></svg>