<svg id="Capa_1" enable-background="new 0 0 512 512" viewBox="0 0 512 512" xmlns="http://www.w3.org/2000/svg"><g><g fill="#00919e"><path d="m101.61 471.548h-44.363c-6.406 0-11.599-5.193-11.599-11.599v-30.853h67.56v30.853c.001 6.406-5.192 11.599-11.598 11.599z"/><path d="m454.753 471.548h-44.363c-6.406 0-11.599-5.193-11.599-11.599v-30.853h67.56v30.853c0 6.406-5.192 11.599-11.598 11.599z"/></g><path d="m85.129 306.357h-34.079v-249.364c0-9.135 7.405-16.54 16.54-16.54h.998c9.135 0 16.54 7.405 16.54 16.54v249.364z" fill="#00919e"/><path d="m460.95 306.357h-34.079v-249.364c0-9.135 7.405-16.54 16.54-16.54h.998c9.135 0 16.54 7.405 16.54 16.54v249.364z" fill="#00919e"/><g><path d="m512 402.582v-78.046c0-25.072-19.256-45.94-44.248-47.952l-149.864-12.061c-41.192-3.315-82.584-3.315-123.776 0l-149.864 12.061c-24.992 2.012-44.248 22.88-44.248 47.952v78.046z" fill="#c7eef3"/><path d="m512 394.537v-70.001c0-25.072-19.256-45.94-44.248-47.952l-149.864-12.061c-41.192-3.315-82.584-3.315-123.776 0l-149.864 12.061c-24.992 2.012-44.248 22.88-44.248 47.952v70.001l263.608 8.045z" fill="#c7eef3"/><path d="m473.883 318.196v84.386l38.117-8.045v-70.001c0-25.072-19.256-45.94-44.248-47.952l-16.3-1.312c13.537 9.03 22.431 24.949 22.431 42.924z" fill="#97e7ea"/></g><path d="m0 394.537v17.89c0 14.896 12.075 26.971 26.971 26.971h458.058c14.896 0 26.971-12.075 26.971-26.971v-17.89z" fill="#00d6dc"/><path d="m473.883 410.938c0 15.718-12.075 28.46-26.971 28.46h38.117c14.896 0 26.971-12.075 26.971-26.971v-17.89h-38.117z" fill="#00beca"/><circle cx="97.311" cy="342.229" fill="#00da9f" r="23.136"/><circle cx="180.529" cy="342.229" fill="#ff6472" r="23.136"/><path d="m336.924 148.32c-1.977 0-3.955-.755-5.463-2.263-20.156-20.156-46.956-31.257-75.461-31.257-28.506 0-55.305 11.101-75.461 31.257-3.017 3.017-7.909 3.017-10.927 0s-3.018-7.909 0-10.927c23.075-23.075 53.755-35.783 86.388-35.783s63.312 12.708 86.387 35.783c3.018 3.017 3.018 7.909 0 10.927-1.508 1.509-3.485 2.263-5.463 2.263z" fill="#c6b2bc"/><path d="m304.113 181.131c-1.977 0-3.955-.754-5.463-2.263-11.393-11.392-26.539-17.666-42.65-17.666s-31.258 6.274-42.65 17.666c-3.017 3.017-7.909 3.018-10.927 0s-3.018-7.909 0-10.927c14.311-14.311 33.339-22.192 53.577-22.192s39.265 7.881 53.576 22.192c3.018 3.017 3.018 7.909 0 10.927-1.508 1.508-3.485 2.263-5.463 2.263z" fill="#c6b2bc"/><path d="m275.305 209.94c-1.977 0-3.955-.755-5.463-2.263-3.697-3.697-8.613-5.733-13.842-5.733s-10.144 2.036-13.841 5.733c-3.017 3.017-7.909 3.018-10.927.001-3.017-3.017-3.018-7.909-.001-10.927 6.616-6.616 15.412-10.26 24.769-10.26 9.356 0 18.152 3.643 24.768 10.26 3.018 3.017 3.018 7.909 0 10.927-1.508 1.507-3.486 2.262-5.463 2.262z" fill="#c6b2bc"/><g fill="#00beca"><path d="m271.276 332.862h-14.128c-4.267 0-7.726-3.459-7.726-7.726s3.459-7.726 7.726-7.726h14.128c4.267 0 7.726 3.459 7.726 7.726s-3.459 7.726-7.726 7.726z"/><path d="m326.787 332.862h-14.128c-4.267 0-7.726-3.459-7.726-7.726s3.459-7.726 7.726-7.726h14.128c4.267 0 7.726 3.459 7.726 7.726s-3.459 7.726-7.726 7.726z"/><path d="m382.297 332.862h-14.127c-4.267 0-7.726-3.459-7.726-7.726s3.459-7.726 7.726-7.726h14.128c4.267 0 7.726 3.459 7.726 7.726s-3.459 7.726-7.727 7.726z"/><path d="m437.808 332.862h-14.128c-4.267 0-7.726-3.459-7.726-7.726s3.459-7.726 7.726-7.726h14.128c4.267 0 7.726 3.459 7.726 7.726s-3.459 7.726-7.726 7.726z"/><path d="m437.966 367.048h-184.666c-4.267 0-7.726-3.459-7.726-7.726s3.459-7.726 7.726-7.726h184.666c4.267 0 7.726 3.459 7.726 7.726s-3.459 7.726-7.726 7.726z"/></g></g><g/><g/><g/><g/><g/><g/><g/><g/><g/><g/><g/><g/><g/><g/><g/></svg>