<svg id="Capa_1" enable-background="new 0 0 513.997 513.997" viewBox="0 0 513.997 513.997" xmlns="http://www.w3.org/2000/svg"><g><g><path d="m309.115 284.998-280.241-3.235v-126.159c0-27.086 21.958-49.044 49.044-49.044h182.153c27.086 0 49.044 21.958 49.044 49.044z" fill="#97e7ea"/></g><path d="m256.284 138.059h-174.579c-11.636 0-21.069 9.433-21.069 21.069l1.133 123.014 215.585-.38v-122.634c0-11.636-9.433-21.069-21.07-21.069z" fill="#007c88"/><path d="m75.674 513.997h-27.811c-3.965 0-7.179-3.214-7.179-7.179v-156.704h42.168v156.705c0 3.964-3.214 7.178-7.178 7.178z" fill="#ff8e46"/><path d="m465.011 513.997h-27.811c-3.965 0-7.179-3.214-7.179-7.179v-156.704h42.168v156.705c0 3.964-3.214 7.178-7.178 7.178z" fill="#ff8e46"/><path d="m82.852 388.117v-48.487l-42.168 10.483v38.004z" fill="#ff7d2e"/><path d="m472.189 388.117v-48.487l-42.168 10.483v38.004z" fill="#ff7d2e"/><g fill="#82e4ff"><path d="m445.286 293.361c-1.32 0-2.658-.339-3.88-1.053-3.677-2.147-4.918-6.868-2.771-10.545l48.353-85.806c2.146-3.677 6.868-4.919 10.544-2.77 3.677 2.147 4.918 6.868 2.771 10.545l-48.353 85.806c-1.432 2.454-4.013 3.823-6.664 3.823z"/><path d="m490.351 192.883c-1.226 0-2.468-.293-3.625-.91l-91.184-48.702c-3.756-2.006-5.175-6.677-3.168-10.432 2.006-3.756 6.676-5.173 10.432-3.169l91.184 48.702c3.756 2.006 5.175 6.677 3.168 10.432-1.388 2.599-4.052 4.079-6.807 4.079z"/><path d="m418.348 281.763c-4.258 0-7.709-3.452-7.709-7.709v-14.974c0-4.258 3.451-7.709 7.709-7.709s7.709 3.452 7.709 7.709v14.974c.001 4.257-3.451 7.709-7.709 7.709z"/></g><circle cx="380.427" cy="180.57" fill="#ffd42b" r="25.434"/><path d="m429.193 190.151c1.583-2.82 2.912-5.844 3.947-9.054 7.742-24.028-4.392-50.389-27.675-60.146-25.738-10.786-55.061 1.995-64.826 27.878-.895 2.374-1.594 4.773-2.104 7.181-.873 4.12 1.407 8.259 5.347 9.746l74.831 28.23c3.961 1.494 8.408-.144 10.48-3.835z" fill="#0bf"/><circle cx="498.069" cy="191.17" fill="#0bf" r="14.929"/><path d="m487.329 316.852-115.784 2.935v-33.188c0-6.734 5.459-12.193 12.193-12.193h91.398c6.734 0 12.193 5.459 12.193 12.193z" fill="#0bf"/><path d="m308.433 308.517h-278.877c-9.185 0-16.631-7.446-16.631-16.631v-17.017c0-2.154 1.746-3.899 3.899-3.899h304.34c2.154 0 3.899 1.746 3.899 3.899v17.017c.001 9.185-7.445 16.631-16.63 16.631z" fill="#c7eef3"/><path d="m321.056 270.97h-30.838c2.214 0 4.008 1.795 4.008 4.008v16.444c0 9.441-7.654 17.095-17.095 17.095h30.838c9.442 0 17.095-7.654 17.095-17.095v-16.444c0-2.214-1.795-4.008-4.008-4.008z" fill="#97e7ea"/><path d="m503.834 350.114h-494.795c-4.441 0-8.041-3.6-8.041-8.041v-25.515c0-4.441 3.6-8.041 8.041-8.041h494.795c4.441 0 8.041 3.6 8.041 8.041v25.515c0 4.441-3.6 8.041-8.041 8.041z" fill="#ffc17f"/><path d="m221.293 37.081c-1.973 0-3.946-.753-5.452-2.258-12.513-12.513-29.15-19.405-46.846-19.405-17.697 0-34.334 6.891-46.847 19.405-3.011 3.01-7.892 3.01-10.904 0-3.01-3.01-3.01-7.892 0-10.903 15.427-15.425 35.936-23.92 57.751-23.92 21.814 0 42.323 8.495 57.749 23.921 3.01 3.01 3.01 7.892 0 10.903-1.505 1.505-3.479 2.257-5.451 2.257z" fill="#dac8d1"/><path d="m200.088 58.286c-1.974 0-3.946-.753-5.452-2.258-6.849-6.85-15.955-10.622-25.641-10.622-9.687 0-18.793 3.772-25.642 10.622-3.011 3.01-7.893 3.011-10.903 0-3.011-3.011-3.011-7.892-.001-10.903 9.761-9.762 22.74-15.138 36.545-15.138s26.783 5.376 36.544 15.138c3.01 3.011 3.01 7.892-.001 10.903-1.503 1.505-3.477 2.258-5.449 2.258z" fill="#dac8d1"/><path d="m181.471 76.903c-1.973 0-3.945-.752-5.451-2.258-1.877-1.877-4.372-2.91-7.025-2.91-2.654 0-5.149 1.033-7.026 2.91-3.01 3.011-7.892 3.009-10.903-.001-3.01-3.011-3.01-7.892.001-10.903 4.789-4.788 11.156-7.425 17.927-7.425s13.137 2.637 17.926 7.425c3.011 3.01 3.011 7.892.001 10.903-1.503 1.506-3.478 2.259-5.45 2.259z" fill="#dac8d1"/></g><g/><g/><g/><g/><g/><g/><g/><g/><g/><g/><g/><g/><g/><g/><g/></svg>