<svg id="Capa_1" enable-background="new 0 0 512 512" viewBox="0 0 512 512" xmlns="http://www.w3.org/2000/svg"><g><path d="m472.975 478.616c-4.276 0-7.742-3.466-7.742-7.742v-389.622c0-26.075-21.213-47.288-47.287-47.288-26.075 0-47.288 21.213-47.288 47.288v13.733c0 4.276-3.466 7.742-7.742 7.742s-7.742-3.466-7.742-7.742v-13.733c0-34.612 28.159-62.772 62.772-62.772 34.612 0 62.771 28.159 62.771 62.772v389.623c0 4.275-3.465 7.741-7.742 7.741z" fill="#c6b2bc"/><path d="m292.519 387.662h-230.219l-10.323-64.317 10.323-46.544v-53.959c0-35.763 28.992-64.755 64.755-64.755h100.709c35.763 0 64.755 28.992 64.755 64.755v53.959l10.323 62.893z" fill="#00b893"/><g fill="#00ad85"><path d="m256.211 164.789v128.372c0 16.67-13.513 30.183-30.183 30.183h-163.728l-10.322 32.266 10.322 32.052h230.219l10.323-58.557-10.323-52.304v-53.637c0-25.61-14.8-47.755-36.308-58.375z"/><path d="m129.348 240.722c-9.097.208-10.485-13.769-1.517-15.339 10.828-2.172 12.563 15.346 1.517 15.339z"/><path d="m225.472 240.722c-9.101.202-10.476-13.771-1.506-15.339 10.831-2.163 12.544 15.359 1.506 15.339z"/><path d="m129.348 311.546c-9.099.224-10.484-13.774-1.517-15.329 10.821-2.193 12.561 15.351 1.517 15.329z"/><path d="m225.472 311.546c-9.098.218-10.48-13.78-1.506-15.329 10.829-2.161 12.542 15.348 1.506 15.329z"/></g><path d="m496.11 460.552h-93.987c-8.776 0-15.89 7.114-15.89 15.89v1.188c0 8.776 7.114 15.89 15.89 15.89h93.987c8.776 0 15.89-7.114 15.89-15.89v-1.188c0-8.776-7.114-15.89-15.89-15.89z" fill="#00d6dc"/><circle cx="362.916" cy="166.646" fill="#ffe35e" r="25.249"/><path d="m419.532 151.884c.298-2.762.397-5.583.284-8.45-1.16-29.383-24.969-53.31-54.347-54.593-32.611-1.424-59.498 24.593-59.498 56.889 0 2.122.117 4.216.343 6.277.659 5.988 5.78 10.489 11.804 10.489h89.593c6.072 0 11.17-4.576 11.821-10.612z" fill="#00d6dc"/><g fill="#ffd5a1"><path d="m99.512 493.52h-28.881c-4.601 0-8.33-3.729-8.33-8.33v-38.139h45.541v38.139c0 4.601-3.73 8.33-8.33 8.33z"/><path d="m284.189 493.52h-28.881c-4.601 0-8.33-3.729-8.33-8.33v-38.139h45.541v38.139c0 4.601-3.73 8.33-8.33 8.33z"/></g><path d="m292.519 457.373h-230.219l-10.323-43.204 10.323-34.134c0-13.232 10.727-23.959 23.959-23.959h182.3c13.232 0 23.959 10.727 23.959 23.959v77.338z" fill="#00e894"/><path d="m268.441 356.076h-7.043v40.056c0 16.635-13.485 30.12-30.12 30.12h-168.978l-10.323 16.602 10.323 14.519h230.219l10.323-38.803-10.323-38.417c0-13.297-10.78-24.077-24.078-24.077z" fill="#00da9f"/><path d="m292.519 457.373h37.01c13.967 0 25.29-11.323 25.29-25.29v-155.949c0-11.417-9.255-20.672-20.672-20.672h-20.956c-11.417 0-20.672 9.255-20.672 20.672z" fill="#00da9f"/><path d="m333.375 255.462h-19.411c-2.033 0-3.992.301-5.856.83 8.994 2.551 15.59 10.804 15.59 20.615v154.231c0 14.489-11.746 26.236-26.236 26.236h31.121c14.49 0 26.236-11.746 26.236-26.236v-154.231c0-11.844-9.601-21.445-21.444-21.445z" fill="#00c7a4"/><path d="m62.3 457.373h-37.01c-13.967 0-25.29-11.323-25.29-25.29v-155.949c0-11.417 9.255-20.672 20.672-20.672h20.956c11.417 0 20.672 9.255 20.672 20.672z" fill="#00da9f"/></g><g/><g/><g/><g/><g/><g/><g/><g/><g/><g/><g/><g/><g/><g/><g/></svg>