<svg id="Capa_1" enable-background="new 0 0 512 512" viewBox="0 0 512 512" xmlns="http://www.w3.org/2000/svg"><g><g><path d="m452.511 487.173-14.448-394.023-182.063-10.149-212.509 10.149v388.404z" fill="#f9f1f4"/><path d="m438.063 93.15v376.04c0 6.828-5.535 12.364-12.364 12.364h-382.208v11.853c0 10.269 8.324 18.593 18.593 18.593h387.833c10.269 0 18.593-8.324 18.593-18.593v-400.257l-14.934-10.149z" fill="#ebe1e5"/></g><g><g><path d="m468.509 93.15h-425.018v-38.118c0-10.965 8.889-19.854 19.854-19.854h385.311c10.965 0 19.854 8.889 19.854 19.854v38.118z" fill="#ff6472"/><path d="m448.36 35.178h-30.446c11.128 0 20.149 9.021 20.149 20.149v37.823h30.446v-37.823c0-11.128-9.021-20.149-20.149-20.149z" fill="#ff4255"/></g><g fill="#7a5d6a"><path d="m93.015 63.254c-4.204 0-7.611-3.408-7.611-7.611v-48.032c0-4.203 3.407-7.611 7.611-7.611s7.611 3.408 7.611 7.611v48.031c.001 4.204-3.407 7.612-7.611 7.612z"/><path d="m147.304 63.254c-4.204 0-7.611-3.408-7.611-7.611v-48.032c0-4.204 3.408-7.611 7.611-7.611 4.204 0 7.612 3.408 7.612 7.611v48.031c0 4.204-3.408 7.612-7.612 7.612z"/><path d="m201.594 63.254c-4.204 0-7.611-3.408-7.611-7.611v-48.032c0-4.204 3.408-7.611 7.611-7.611 4.204 0 7.611 3.408 7.611 7.611v48.031c.001 4.204-3.407 7.612-7.611 7.612z"/><path d="m255.884 63.254c-4.204 0-7.611-3.408-7.611-7.611v-48.032c0-4.204 3.408-7.611 7.611-7.611s7.611 3.408 7.611 7.611v48.031c0 4.204-3.408 7.612-7.611 7.612z"/><path d="m310.174 63.254c-4.204 0-7.612-3.408-7.612-7.611v-48.032c0-4.204 3.408-7.611 7.612-7.611s7.611 3.408 7.611 7.611v48.031c0 4.204-3.408 7.612-7.611 7.612z"/><path d="m364.463 63.254c-4.204 0-7.612-3.408-7.612-7.611v-48.032c0-4.204 3.408-7.611 7.612-7.611s7.611 3.408 7.611 7.611v48.031c.001 4.204-3.407 7.612-7.611 7.612z"/><path d="m418.753 63.254c-4.204 0-7.612-3.408-7.612-7.611v-48.032c0-4.204 3.408-7.611 7.612-7.611s7.612 3.408 7.612 7.611v48.031c-.001 4.204-3.408 7.612-7.612 7.612z"/></g></g><g fill="#00abff"><path d="m142.091 155.327h-49.076c-4.204 0-7.611-3.408-7.611-7.611 0-4.204 3.408-7.611 7.611-7.611h49.076c4.204 0 7.611 3.408 7.611 7.611.001 4.203-3.407 7.611-7.611 7.611z"/><path d="m234.312 155.327h-49.076c-4.204 0-7.611-3.408-7.611-7.611 0-4.204 3.408-7.611 7.611-7.611h49.076c4.204 0 7.611 3.408 7.611 7.611s-3.407 7.611-7.611 7.611z"/><path d="m326.532 155.327h-49.076c-4.204 0-7.612-3.408-7.612-7.611 0-4.204 3.408-7.611 7.612-7.611h49.076c4.204 0 7.612 3.408 7.612 7.611s-3.408 7.611-7.612 7.611z"/><path d="m418.753 155.327h-49.076c-4.204 0-7.611-3.408-7.611-7.611 0-4.204 3.408-7.611 7.611-7.611h49.076c4.204 0 7.612 3.408 7.612 7.611-.001 4.203-3.408 7.611-7.612 7.611z"/></g><g><path d="m418.869 298.296-81.435 10-10-45.641 10-29.726 81.435 10z" fill="#00abff"/><path d="m256 308.296h-81.434l-10-37.915 10-37.452h81.434l10 37.452z" fill="#00abff"/><g fill="#ff6472"><path d="m256 232.929h81.434v75.367h-81.434z"/><path d="m174.566 308.296-81.435-10v-55.367l81.435-10z"/></g></g><g><path d="m337.434 464.397h-82.112l-9.322-27.684 9.322-37.683h82.112l10 37.683z" fill="#00abff"/><g fill="#ffe35e"><path d="m410.84 464.397h-73.405v-65.367l81.434 10v47.338c0 4.434-3.595 8.029-8.029 8.029z"/><path d="m255.322 399.03-162.191 10v47.338c0 4.434 3.595 8.029 8.029 8.029h154.162z"/></g></g><path d="m418.869 409.03h-325.738v-55.367l152.869-10 172.869 10z" fill="#ff6472"/><path d="m93.131 298.296h325.738v55.367h-325.738z" fill="#ffe35e"/><path d="m418.753 242.929h-162.753l-10-35.61 10-19.757h154.724c4.434 0 8.029 3.595 8.029 8.029z" fill="#ffe35e"/><path d="m174.566 242.929h-81.435v-47.338c0-4.434 3.595-8.029 8.029-8.029h73.405l10 22.757z" fill="#00abff"/><path d="m174.566 187.562h81.434v55.367h-81.434z" fill="#ff6472"/></g><g/><g/><g/><g/><g/><g/><g/><g/><g/><g/><g/><g/><g/><g/><g/></svg>