<svg id="Capa_1" enable-background="new 0 0 512 512" viewBox="0 0 512 512" xmlns="http://www.w3.org/2000/svg"><g><path d="m512 340.019v-268.16c0-18.434-14.943-33.377-33.377-33.377h-445.246c-18.433 0-33.377 14.943-33.377 33.377v268.16l261.624 12.679z" fill="#f9f1f4"/><path d="m481.095 71.859v270.537l30.905-2.377v-268.16c0-18.434-14.943-33.377-33.377-33.377h-30.905c18.433 0 33.377 14.943 33.377 33.377z" fill="#ebe1e5"/><path d="m58.249 132.043v227.118h395.503v-227.118l-197.752-4.299z" fill="#b4eeff"/><path d="m453.751 132.043v-30.288c0-11.344-9.196-20.541-20.541-20.541h-354.421c-11.344 0-20.541 9.196-20.541 20.541v30.288z" fill="#37ddff"/><path d="m226.129 217.218-83.033-24.601h-6.035v97.547c0 8.425 6.83 15.256 15.256 15.256h131.487c8.425 0 15.256-6.83 15.256-15.256v-82.291c0-4.385-1.861-8.327-4.823-11.109z" fill="#ffe35e"/><g fill="#0bf"><path d="m408.635 207.319h-63.755c-4.267 0-7.726-3.459-7.726-7.726s3.459-7.726 7.726-7.726h63.755c4.267 0 7.726 3.459 7.726 7.726s-3.459 7.726-7.726 7.726z"/><path d="m408.635 238.85h-63.755c-4.267 0-7.726-3.459-7.726-7.726s3.459-7.726 7.726-7.726h63.755c4.267 0 7.726 3.459 7.726 7.726s-3.459 7.726-7.726 7.726z"/><path d="m408.635 270.381h-63.755c-4.267 0-7.726-3.459-7.726-7.726s3.459-7.726 7.726-7.726h63.755c4.267 0 7.726 3.459 7.726 7.726s-3.459 7.726-7.726 7.726z"/><path d="m408.635 301.913h-63.755c-4.267 0-7.726-3.459-7.726-7.726s3.459-7.726 7.726-7.726h63.755c4.267 0 7.726 3.459 7.726 7.726 0 4.266-3.459 7.726-7.726 7.726z"/></g><path d="m294.236 196.763c-2.729-2.564-6.392-4.146-10.433-4.146h-140.707l-1.222 4.139 58.259 55.719c10.028 9.591 25.827 9.59 35.855 0z" fill="#ffc700"/><circle cx="135.638" cy="192.617" fill="#ff6472" r="28.025"/><path d="m167.119 396.432h177.761v69.361h-177.761z" fill="#be9fad"/><path d="m0 340.019v34.358c0 18.434 14.944 33.377 33.377 33.377h445.246c18.434 0 33.377-14.943 33.377-33.377v-34.358z" fill="#00919e"/><path d="m481.095 340.019v3.452c0 18.434-14.943 33.377-33.377 33.377h-445.246c-.801 0-1.592-.038-2.378-.094 1.221 17.323 15.65 30.999 33.284 30.999h445.246c18.434 0 33.377-14.943 33.377-33.377v-34.358h-30.906z" fill="#007c88"/><path d="m379.017 473.518h-246.033c-4.267 0-7.726-3.459-7.726-7.726s3.459-7.726 7.726-7.726h246.033c4.267 0 7.726 3.459 7.726 7.726s-3.459 7.726-7.726 7.726z" fill="#00beca"/></g><g/><g/><g/><g/><g/><g/><g/><g/><g/><g/><g/><g/><g/><g/><g/></svg>