<svg id="Capa_1" enable-background="new 0 0 512 512" viewBox="0 0 512 512" xmlns="http://www.w3.org/2000/svg"><g><g><path d="m114.218 457.445v21.276c0 18.38 14.9 33.279 33.279 33.279h217.006c18.38 0 33.279-14.9 33.279-33.279v-21.276l-141.782-10.302z" fill="#ac8597"/><path d="m366.877 457.445v21.276c0 18.38-14.9 33.279-33.279 33.279h30.905c18.38 0 33.279-14.9 33.279-33.279v-21.276l-15.453-10.302z" fill="#916e7d"/></g><g><path d="m397.782 383.98v-42.45l-10.302-27.683 10.302-28.505v-119.977l-10.302-33.758 10.302-22.43v-32.872l-141.782-9.233-141.782 9.233v120.606l10.302 24.551-10.302 31.638v130.88l137.49 8.929z" fill="#f9f1f4"/><path d="m397.782 383.98v-307.675l-30.905-9.233v325.837z" fill="#ebe1e5"/><path d="m114.218 383.98h283.564v73.465h-283.564z" fill="#8ff9c0"/><path d="m397.782 341.53h-164.859c-9.757 0-17.667-7.91-17.667-17.667v-20.854c0-9.757 7.91-17.667 17.667-17.667h164.859z" fill="#00f58e"/><path d="m397.782 165.365h-164.859c-9.757 0-17.667-7.91-17.667-17.667v-20.854c0-9.757 7.91-17.667 17.667-17.667h164.859z" fill="#00f58e"/><path d="m366.877 383.98h30.905v73.465h-30.905z" fill="#38f7a9"/><path d="m366.877 285.342h30.905v56.188h-30.905z" fill="#00e894"/><path d="m366.877 109.177h30.905v56.189h-30.905z" fill="#00e894"/><path d="m114.218 196.911h164.859c9.757 0 17.667 7.91 17.667 17.667v20.854c0 9.757-7.91 17.667-17.667 17.667h-164.859z" fill="#ffd42b"/><g fill="#00f58e"><path d="m195.059 428.96h-16.117c-4.268 0-7.726-3.459-7.726-7.726s3.459-7.726 7.726-7.726h16.117c4.268 0 7.726 3.459 7.726 7.726s-3.458 7.726-7.726 7.726z"/><path d="m241.059 428.96h-16.118c-4.268 0-7.726-3.459-7.726-7.726s3.459-7.726 7.726-7.726h16.118c4.268 0 7.726 3.459 7.726 7.726s-3.458 7.726-7.726 7.726z"/><path d="m287.058 428.96h-16.117c-4.268 0-7.726-3.459-7.726-7.726s3.459-7.726 7.726-7.726h16.117c4.268 0 7.726 3.459 7.726 7.726s-3.458 7.726-7.726 7.726z"/><path d="m333.058 428.96h-16.118c-4.268 0-7.726-3.459-7.726-7.726s3.459-7.726 7.726-7.726h16.118c4.268 0 7.726 3.459 7.726 7.726s-3.458 7.726-7.726 7.726z"/></g></g><path d="m397.782 76.305v-43.026c0-18.38-14.9-33.279-33.279-33.279h-217.006c-18.38 0-33.279 14.899-33.279 33.279v43.026z" fill="#ac8597"/><g fill="#916e7d"><path d="m364.503 0h-30.905c18.38 0 33.279 14.899 33.279 33.279v43.026h30.905v-43.026c0-18.38-14.9-33.279-33.279-33.279z"/><path d="m302.981 44.129h-65.578c-4.268 0-7.726-3.459-7.726-7.726s3.459-7.726 7.726-7.726h65.578c4.268 0 7.726 3.459 7.726 7.726s-3.459 7.726-7.726 7.726z"/><path d="m209.02 44.133c-11.018.012-9.299-17.479 1.505-15.308 8.952 1.561 7.575 15.509-1.505 15.308z"/></g></g><g/><g/><g/><g/><g/><g/><g/><g/><g/><g/><g/><g/><g/><g/><g/></svg>