<svg id="Capa_1" enable-background="new 0 0 512 512" viewBox="0 0 512 512" xmlns="http://www.w3.org/2000/svg"><g><path d="m512 438.959v-275.118c0-7.894-6.4-14.294-14.294-14.294h-483.412c-7.894 0-14.294 6.399-14.294 14.294v275.118l247.466 4.534z" fill="#f9f1f4"/><path d="m481.095 163.841v279.652l30.905-4.534v-275.118c0-7.894-6.4-14.294-14.294-14.294h-30.906c7.895 0 14.295 6.399 14.295 14.294z" fill="#ebe1e5"/><path d="m0 438.959v24.059c0 7.894 6.4 14.294 14.294 14.294h483.412c7.894 0 14.294-6.399 14.294-14.294v-24.059z" fill="#dac8d1"/><path d="m481.094 438.959v24.059c0 7.894-6.4 14.294-14.294 14.294h30.905c7.894 0 14.294-6.399 14.294-14.294v-24.059z" fill="#c6b2bc"/><path d="m409.911 235.249h-80.216c-9.241 0-16.732-7.491-16.732-16.732v-1.01c0-9.241 7.491-16.732 16.732-16.732h80.216c9.241 0 16.732 7.491 16.732 16.732v1.01c0 9.241-7.491 16.732-16.732 16.732z" fill="#00e894"/><path d="m267.656 392.597h-172.776c-5.26 0-9.523-4.264-9.523-9.523v-172.776c0-5.26 4.264-9.523 9.523-9.523h172.776c5.26 0 9.523 4.264 9.523 9.523v172.776c0 5.259-4.263 9.523-9.523 9.523z" fill="#ffd42b"/><path d="m313.006 73.754c-1.978 0-3.955-.754-5.464-2.263-13.767-13.768-32.072-21.35-51.542-21.35s-37.775 7.582-51.541 21.35c-3.018 3.017-7.91 3.018-10.927 0-3.018-3.017-3.018-7.909-.001-10.927 16.686-16.686 38.871-25.876 62.469-25.876 23.599 0 45.784 9.19 62.47 25.876 3.017 3.018 3.017 7.909-.001 10.927-1.509 1.508-3.486 2.263-5.463 2.263z" fill="#dac8d1"/><path d="m289.893 96.867c-1.977 0-3.955-.755-5.464-2.263-7.594-7.594-17.69-11.776-28.43-11.776-10.739 0-20.835 4.182-28.429 11.776-3.018 3.017-7.909 3.017-10.928 0-3.017-3.017-3.017-7.909 0-10.927 10.513-10.513 24.49-16.302 39.356-16.302 14.867 0 28.844 5.789 39.357 16.302 3.017 3.017 3.017 7.909 0 10.927-1.507 1.508-3.485 2.263-5.462 2.263z" fill="#dac8d1"/><path d="m242.401 117.16c-1.977 0-3.955-.755-5.464-2.263-3.017-3.017-3.017-7.909 0-10.927 5.093-5.092 11.862-7.896 19.062-7.896s13.97 2.804 19.062 7.895c3.017 3.017 3.018 7.909.001 10.927-3.016 3.017-7.908 3.018-10.927.002-2.174-2.174-5.063-3.371-8.137-3.371-3.073 0-5.962 1.197-8.135 3.37-1.507 1.509-3.485 2.263-5.462 2.263z" fill="#dac8d1"/><path d="m464.529 328.332c-1.977 0-3.955-.755-5.464-2.263-3.017-3.017-3.017-7.909 0-10.927l10.499-10.498-10.499-10.498c-3.017-3.017-3.017-7.909 0-10.927 3.018-3.017 7.91-3.018 10.927 0l15.963 15.961c1.449 1.449 2.263 3.414 2.263 5.463s-.814 4.015-2.263 5.463l-15.962 15.962c-1.51 1.51-3.487 2.264-5.464 2.264z" fill="#ac8597"/><path d="m47.472 328.332c-1.977 0-3.955-.755-5.464-2.263l-15.962-15.962c-1.449-1.449-2.263-3.414-2.263-5.463s.814-4.015 2.263-5.463l15.963-15.961c3.017-3.018 7.909-3.017 10.927 0 3.017 3.018 3.017 7.909 0 10.927l-10.499 10.498 10.499 10.498c3.017 3.017 3.017 7.909 0 10.927-1.51 1.508-3.488 2.262-5.464 2.262z" fill="#ac8597"/><g fill="#dac8d1"><path d="m426.642 283.117h-113.679c-4.268 0-7.726-3.459-7.726-7.726s3.459-7.726 7.726-7.726h113.679c4.268 0 7.726 3.459 7.726 7.726.001 4.267-3.458 7.726-7.726 7.726z"/><path d="m426.642 313.401h-113.679c-4.268 0-7.726-3.459-7.726-7.726s3.459-7.726 7.726-7.726h113.679c4.268 0 7.726 3.459 7.726 7.726.001 4.266-3.458 7.726-7.726 7.726z"/><path d="m426.642 352.832h-113.679c-4.268 0-7.726-3.459-7.726-7.726s3.459-7.726 7.726-7.726h113.679c4.268 0 7.726 3.459 7.726 7.726s-3.458 7.726-7.726 7.726z"/><path d="m426.642 383.116h-113.679c-4.268 0-7.726-3.459-7.726-7.726s3.459-7.726 7.726-7.726h113.679c4.268 0 7.726 3.459 7.726 7.726.001 4.266-3.458 7.726-7.726 7.726z"/></g><path d="m202.288 346.015h-41.067c-4.268 0-7.726-3.459-7.726-7.726s3.459-7.726 7.726-7.726h41.067c4.268 0 7.726 3.459 7.726 7.726.001 4.266-3.458 7.726-7.726 7.726z" fill="#f9f1f4"/><path d="m137.452 325.106c-4.268 0-7.726-3.459-7.726-7.726v-41.387c0-4.267 3.459-7.726 7.726-7.726 4.268 0 7.726 3.459 7.726 7.726v41.387c.001 4.266-3.458 7.726-7.726 7.726z" fill="#f9f1f4"/><path d="m137.452 225.325c-16.1 0-29.197 13.098-29.197 29.197 0 16.1 13.098 29.197 29.197 29.197s29.196-13.098 29.196-29.197c.001-16.099-13.097-29.197-29.196-29.197z" fill="#ff6472"/><path d="m225.084 309.653c-16.099 0-29.196 13.098-29.196 29.197s13.098 29.197 29.196 29.197c16.1 0 29.197-13.098 29.197-29.197s-13.097-29.197-29.197-29.197z" fill="#ff6472"/><path d="m147.206 309.984h-19.508c-10.538 0-19.112 8.573-19.112 19.112v19.508c0 10.539 8.573 19.112 19.112 19.112h19.508c10.538 0 19.112-8.573 19.112-19.112v-19.508c0-10.538-8.574-19.112-19.112-19.112z" fill="#00cdff"/></g><g/><g/><g/><g/><g/><g/><g/><g/><g/><g/><g/><g/><g/><g/><g/></svg>