<svg id="Capa_1" enable-background="new 0 0 512 512" viewBox="0 0 512 512" xmlns="http://www.w3.org/2000/svg"><g><path d="m263.611 450.501v-36c0-4.204-3.407-7.611-7.612-7.611s-7.611 3.408-7.611 7.611v36c-13.548 3.407-23.609 15.688-23.609 30.278 0 17.215 14.005 31.22 31.22 31.22s31.221-14.005 31.221-31.22c.001-14.59-10.061-26.87-23.609-30.278zm-7.611 46.276c-8.821 0-15.997-7.176-15.997-15.998s7.176-15.998 15.997-15.998c8.822 0 15.998 7.176 15.998 15.998s-7.177 15.998-15.998 15.998z" fill="#ac8597"/><path d="m490.199 45.539-234.199-10.148-234.2 10.149v358.504c0 9.154 7.421 16.574 16.574 16.574h317.199l27.867-10.149 17.154 10.149h73.031c9.154 0 16.574-7.421 16.574-16.574z" fill="#f9f1f4"/><path d="m459.753 45.539v328.058c0 9.154-7.42 16.574-16.574 16.574h-421.379v13.872c0 9.154 7.421 16.574 16.574 16.574h435.25c9.154 0 16.574-7.421 16.574-16.574v-358.504l-15.132-10.149z" fill="#ebe1e5"/><path d="m440.853 262.193h-45.134c-3.662 0-6.63-2.968-6.63-6.63v-34.386c0-3.662 2.968-6.63 6.63-6.63h45.134c3.662 0 6.63 2.968 6.63 6.63v34.386c0 3.661-2.968 6.63-6.63 6.63z" fill="#00da9f"/><g fill="#dac8d1"><path d="m151.776 110.22h-86.48c-4.204 0-7.611-3.408-7.611-7.611s3.408-7.611 7.611-7.611h86.48c4.204 0 7.611 3.408 7.611 7.611s-3.407 7.611-7.611 7.611z"/><path d="m151.776 139.713h-86.48c-4.204 0-7.611-3.408-7.611-7.611 0-4.204 3.408-7.611 7.611-7.611h86.48c4.204 0 7.611 3.408 7.611 7.611s-3.407 7.611-7.611 7.611z"/><path d="m102.917 169.206h-37.621c-4.204 0-7.611-3.408-7.611-7.611 0-4.204 3.408-7.611 7.611-7.611h37.621c4.204 0 7.612 3.408 7.612 7.611s-3.407 7.611-7.612 7.611z"/><path d="m442.053 374.572h-86.48c-4.204 0-7.612-3.408-7.612-7.611 0-4.204 3.407-7.612 7.612-7.612h86.48c4.204 0 7.611 3.408 7.611 7.612.001 4.203-3.407 7.611-7.611 7.611z"/><path d="m442.053 345.079h-86.48c-4.204 0-7.612-3.408-7.612-7.611s3.407-7.612 7.612-7.612h86.48c4.204 0 7.611 3.408 7.611 7.612s-3.407 7.611-7.611 7.611z"/><path d="m442.053 315.585h-37.621c-4.204 0-7.612-3.408-7.612-7.612s3.407-7.612 7.612-7.612h37.621c4.204 0 7.611 3.408 7.611 7.612s-3.407 7.612-7.611 7.612z"/></g><path d="m308.352 231.784c-4.204 0-7.612-4.579-7.612-10.228v-71.616c0-5.649 3.407-10.228 7.612-10.228s7.611 4.579 7.611 10.228v71.616c0 5.649-3.407 10.228-7.611 10.228z" fill="#c6b2bc"/><path d="m93.714 330.699c-4.204 0-7.611-5.452-7.611-12.177v-66.679c0-6.725 3.407-12.177 7.611-12.177s7.611 5.452 7.611 12.177v66.679c.001 6.725-3.407 12.177-7.611 12.177z" fill="#c6b2bc"/><path d="m116.281 262.193h-45.134c-3.662 0-6.63-2.968-6.63-6.63v-34.386c0-3.662 2.968-6.63 6.63-6.63h45.134c3.662 0 6.63 2.968 6.63 6.63v34.386c0 3.661-2.968 6.63-6.63 6.63z" fill="#ff6472"/><path d="m116.281 360.97h-45.134c-3.662 0-6.63-2.968-6.63-6.63v-34.386c0-3.662 2.968-6.63 6.63-6.63h45.134c3.662 0 6.63 2.968 6.63 6.63v34.386c0 3.662-2.968 6.63-6.63 6.63z" fill="#00da9f"/><path d="m201.032 330.699c-4.204 0-7.611-5.452-7.611-12.177v-66.679c0-6.725 3.407-12.177 7.611-12.177s7.611 5.452 7.611 12.177v66.679c.001 6.725-3.406 12.177-7.611 12.177z" fill="#c6b2bc"/><path d="m223.6 263.489h-45.134c-3.662 0-6.63-2.968-6.63-6.63v-34.386c0-3.662 2.968-6.63 6.63-6.63h45.134c3.662 0 6.63 2.968 6.63 6.63v34.386c0 3.661-2.969 6.63-6.63 6.63z" fill="#0bf"/><path d="m223.6 360.97h-45.134c-3.662 0-6.63-2.968-6.63-6.63v-34.386c0-3.662 2.968-6.63 6.63-6.63h45.134c3.662 0 6.63 2.968 6.63 6.63v34.386c0 3.662-2.969 6.63-6.63 6.63z" fill="#ff6472"/><path d="m368.893 156.95h-121.084c-5.86 0-10.611-4.751-10.611-10.611v-36.532c0-5.86 4.751-10.611 10.611-10.611h121.084c5.86 0 10.611 4.751 10.611 10.611v36.532c0 5.86-4.75 10.611-10.611 10.611z" fill="#ac8597"/><path d="m330.918 262.193h-45.134c-3.662 0-6.63-2.968-6.63-6.63v-34.386c0-3.662 2.968-6.63 6.63-6.63h45.134c3.662 0 6.63 2.968 6.63 6.63v34.386c0 3.661-2.968 6.63-6.63 6.63z" fill="#ffd42b"/><path d="m497.56 45.539h-483.12c-2.914 0-5.277-2.363-5.277-5.277v-29.364c0-6.019 4.879-10.898 10.898-10.898h471.878c6.019 0 10.898 4.879 10.898 10.898v29.364c0 2.915-2.362 5.277-5.277 5.277z" fill="#00beca"/><path d="m491.777 0h-30.446c6.108 0 11.06 4.952 11.06 11.06v29.123c0 2.958-2.398 5.356-5.355 5.356h30.446c2.958 0 5.355-2.398 5.355-5.356v-29.123c0-6.108-4.952-11.06-11.06-11.06z" fill="#00a5b7"/></g><g/><g/><g/><g/><g/><g/><g/><g/><g/><g/><g/><g/><g/><g/><g/></svg>