<svg id="Capa_1" enable-background="new 0 0 512 512" viewBox="0 0 512 512" xmlns="http://www.w3.org/2000/svg"><g><path d="m409.94 40.495-307.88 18.195v-52.864c0-3.218 2.609-5.826 5.826-5.826h296.227c3.218 0 5.826 2.609 5.826 5.826v34.669z" fill="#00abff"/><path d="m431.398 512h-212.811l-93.292-187.517-56.378-244.974v-31.884c0-6.213 5.037-11.25 11.25-11.25h351.666c6.213 0 11.25 5.037 11.25 11.25v299.621l-10.302 27.088 10.302 23.957v102.025c0 6.453-5.231 11.684-11.685 11.684z" fill="#be9fad"/><path d="m431.833 36.375h-15.534v433.035c0 6.453-5.231 11.685-11.685 11.685h-193.984l7.957 30.905h212.811c6.453 0 11.685-5.231 11.685-11.685v-452.69c0-6.213-5.037-11.25-11.25-11.25z" fill="#ac8597"/><g fill="#f9f1f4"><path d="m300.048 169.326h-27.128c-6.727 0-12.181-5.453-12.181-12.181v-65.455c0-6.727 5.453-12.181 12.181-12.181h27.128c6.727 0 12.181 5.453 12.181 12.181v65.455c0 6.727-5.454 12.181-12.181 12.181z"/><path d="m388.152 169.326h-27.128c-6.727 0-12.181-5.453-12.181-12.181v-65.455c0-6.727 5.453-12.181 12.181-12.181h27.128c6.727 0 12.181 5.453 12.181 12.181v65.455c0 6.727-5.454 12.181-12.181 12.181z"/><path d="m300.048 294.35h-27.128c-6.727 0-12.181-5.453-12.181-12.181v-65.455c0-6.727 5.453-12.181 12.181-12.181h27.128c6.727 0 12.181 5.453 12.181 12.181v65.455c0 6.728-5.454 12.181-12.181 12.181z"/><path d="m388.152 294.35h-27.128c-6.727 0-12.181-5.453-12.181-12.181v-65.455c0-6.727 5.453-12.181 12.181-12.181h27.128c6.727 0 12.181 5.453 12.181 12.181v65.455c0 6.728-5.454 12.181-12.181 12.181z"/></g><g><path d="m218.587 512h-138.328c-6.264 0-11.342-5.078-11.342-11.342v-421.149h118.683c17.114 0 30.987 13.873 30.987 30.987z" fill="#b4eeff"/><path d="m68.917 469.41v30.905c0 6.453 5.231 11.685 11.685 11.685h137.986v-30.905h-137.986c-6.454 0-11.685-5.232-11.685-11.685z" fill="#82e4ff"/><g fill="#37ddff"><path d="m181.899 140.566h-76.294c-4.268 0-7.726-3.459-7.726-7.726s3.459-7.726 7.726-7.726h76.294c4.268 0 7.726 3.459 7.726 7.726s-3.458 7.726-7.726 7.726z"/><path d="m181.899 187.244h-76.294c-4.268 0-7.726-3.459-7.726-7.726s3.459-7.726 7.726-7.726h76.294c4.268 0 7.726 3.459 7.726 7.726s-3.458 7.726-7.726 7.726z"/><path d="m181.899 233.921h-76.294c-4.268 0-7.726-3.459-7.726-7.726s3.459-7.726 7.726-7.726h76.294c4.268 0 7.726 3.459 7.726 7.726s-3.458 7.726-7.726 7.726z"/><path d="m181.899 280.598h-76.294c-4.268 0-7.726-3.459-7.726-7.726s3.459-7.726 7.726-7.726h76.294c4.268 0 7.726 3.459 7.726 7.726s-3.458 7.726-7.726 7.726z"/><path d="m181.899 327.276h-76.294c-4.268 0-7.726-3.459-7.726-7.726s3.459-7.726 7.726-7.726h76.294c4.268 0 7.726 3.459 7.726 7.726s-3.458 7.726-7.726 7.726z"/><path d="m181.899 373.953h-76.294c-4.268 0-7.726-3.459-7.726-7.726s3.459-7.726 7.726-7.726h76.294c4.268 0 7.726 3.459 7.726 7.726s-3.458 7.726-7.726 7.726z"/><path d="m181.899 420.631h-76.294c-4.268 0-7.726-3.459-7.726-7.726s3.459-7.726 7.726-7.726h76.294c4.268 0 7.726 3.459 7.726 7.726 0 4.266-3.458 7.726-7.726 7.726z"/><path d="m181.899 467.308h-76.294c-4.268 0-7.726-3.459-7.726-7.726s3.459-7.726 7.726-7.726h76.294c4.268 0 7.726 3.459 7.726 7.726s-3.458 7.726-7.726 7.726z"/></g></g><g><path d="m400.27 481.095.063-132.851c0-5.828-4.725-10.553-10.553-10.553h-59.244l-10.302 76.468 7.458 70.831z" fill="#82e4ff"/><path d="m400.27 512h-69.766l-10.301-15.453 10.301-15.452h69.766z" fill="#37ddff"/><path d="m347.258 442.46c-4.268 0-7.726-3.459-7.726-7.726v-19.776c0-4.267 3.459-7.726 7.726-7.726s7.726 3.459 7.726 7.726v19.776c.001 4.266-3.458 7.726-7.726 7.726z" fill="#00cdff"/><path d="m330.536 484.99v-147.299h-59.244c-5.828 0-10.553 4.725-10.553 10.553v132.851z" fill="#b4eeff"/><path d="m260.739 481.095h69.765v30.905h-69.765z" fill="#82e4ff"/><path d="m313.814 442.46c-4.268 0-7.726-3.459-7.726-7.726v-19.776c0-4.267 3.459-7.726 7.726-7.726s7.726 3.459 7.726 7.726v19.776c0 4.266-3.459 7.726-7.726 7.726z" fill="#37ddff"/></g></g><g/><g/><g/><g/><g/><g/><g/><g/><g/><g/><g/><g/><g/><g/><g/></svg>