<svg id="Capa_1" enable-background="new 0 0 512 512" viewBox="0 0 512 512" xmlns="http://www.w3.org/2000/svg"><g><path d="m163.95 139.606c-2.308 0-4.591-1.029-6.114-2.995-2.613-3.373-1.997-8.226 1.376-10.84l74.682-57.855c3.373-2.613 8.226-1.998 10.84 1.376 2.613 3.373 1.997 8.226-1.376 10.84l-74.682 57.855c-1.407 1.091-3.073 1.619-4.726 1.619z" fill="#ebe1e5"/><path d="m348.049 139.606c-1.653 0-3.318-.528-4.726-1.619l-73.977-57.31c-3.373-2.613-3.989-7.466-1.376-10.84 2.613-3.373 7.466-3.99 10.84-1.376l73.977 57.31c3.373 2.613 3.989 7.466 1.376 10.84-1.522 1.966-3.806 2.995-6.114 2.995z" fill="#ebe1e5"/><path d="m256 36.218c-13.608 0-24.678 11.07-24.678 24.678 0 13.607 11.07 24.678 24.678 24.678 13.607 0 24.678-11.07 24.678-24.678s-11.071-24.678-24.678-24.678z" fill="#00d6dc"/><path d="m483.825 475.782h-455.65c-15.561 0-28.175-12.614-28.175-28.174v-293.735c0-15.56 12.614-28.175 28.175-28.175h455.651c15.56 0 28.175 12.614 28.175 28.175v293.734c-.001 15.561-12.615 28.175-28.176 28.175z" fill="#fff4de"/><path d="m482.975 125.699h-7.031v289.123c0 16.03-12.995 29.025-29.025 29.025h-446.919v2.911c0 16.03 12.995 29.025 29.025 29.025h453.95c16.03 0 29.025-12.995 29.025-29.025v-292.034c0-16.03-12.995-29.025-29.025-29.025z" fill="#ffe7c1"/><path d="m160.035 320.792h-108.428c-5.523 0-10-4.477-10-10v-108.428c0-5.523 4.477-10 10-10h108.428c5.523 0 10 4.477 10 10v108.428c0 5.523-4.478 10-10 10z" fill="#ffd42b"/><path d="m126.34 172.795-7.865 35.405c-.911 4.103-4.977 6.69-9.079 5.779l-12.226-2.716c-4.103-.911-6.69-4.977-5.779-9.079l7.865-35.405c.911-4.103 4.977-6.69 9.079-5.779l12.226 2.716c4.104.911 6.691 4.976 5.779 9.079z" fill="#ffae60"/><path d="m284.8 443.847h-65.171c-5.523 0-10-4.477-10-10v-252.388c0-5.523 4.477-10 10-10h65.171c5.523 0 10 4.477 10 10v252.388c0 5.523-4.477 10-10 10z" fill="#00cdff"/><circle cx="392.999" cy="210.781" fill="#ff6472" r="48.087"/><path d="m126.6 441.651h-41.559c-22.179 0-40.158-17.979-40.158-40.158v-6.846c0-22.178 17.979-40.158 40.158-40.158h41.559c22.179 0 40.158 17.979 40.158 40.158v6.846c0 22.178-17.979 40.158-40.158 40.158z" fill="#ff9f45"/><path d="m105.941 281.929c-.749 0-1.505-.078-2.26-.238-4.165-.883-6.521-3.885-7.653-5.328l-10.646-13.57c-1.005-1.282-1.768-2.054-2.297-2.513-.004.006-.008.011-.012.016-2.313 3.162-3.521 7.221-3.313 11.135.226 4.261-3.045 7.899-7.306 8.125-4.26.221-7.899-3.045-8.125-7.306-.399-7.517 1.828-15.003 6.273-21.078 2.432-3.324 5.145-5.4 8.295-6.348 6.457-1.943 12.73.894 18.643 8.431l8.106 10.332c1.033-1.523 2.453-3.139 4.545-4.343 4.513-2.599 10.228-2.164 15.289 1.163 1.362.896 2.497 1.856 3.499 2.704.828.701 1.611 1.363 2.235 1.73 1.309.771 3.211.775 4.523.009 3.684-2.151 8.416-.908 10.568 2.777 2.151 3.685.908 8.417-2.777 10.568-6.13 3.578-14.042 3.563-20.157-.04-1.756-1.034-3.144-2.209-4.37-3.246-.497-.421-.976-.826-1.415-1.162-.209.382-.42.761-.637 1.13-2.648 4.491-6.725 7.052-11.008 7.052z" fill="#ffb000"/><g fill="#0097ff"><path d="m269.75 218.598h-35.071c-4.267 0-7.726-3.459-7.726-7.726s3.459-7.726 7.726-7.726h35.071c4.267 0 7.726 3.459 7.726 7.726s-3.459 7.726-7.726 7.726z"/><path d="m269.75 255.049h-35.071c-4.267 0-7.726-3.459-7.726-7.726s3.459-7.726 7.726-7.726h35.071c4.267 0 7.726 3.459 7.726 7.726s-3.459 7.726-7.726 7.726z"/><path d="m269.75 291.5h-35.071c-4.267 0-7.726-3.459-7.726-7.726s3.459-7.726 7.726-7.726h35.071c4.267 0 7.726 3.459 7.726 7.726s-3.459 7.726-7.726 7.726z"/><path d="m269.75 327.95h-35.071c-4.267 0-7.726-3.459-7.726-7.726s3.459-7.726 7.726-7.726h35.071c4.267 0 7.726 3.459 7.726 7.726.001 4.267-3.459 7.726-7.726 7.726z"/><path d="m269.75 364.401h-35.071c-4.267 0-7.726-3.459-7.726-7.726s3.459-7.726 7.726-7.726h35.071c4.267 0 7.726 3.459 7.726 7.726.001 4.267-3.459 7.726-7.726 7.726z"/><path d="m269.324 394.012h-34.219c-4.267 0-7.726-3.459-7.726-7.726s3.459-7.726 7.726-7.726h34.219c4.267 0 7.726 3.459 7.726 7.726.001 4.266-3.459 7.726-7.726 7.726z"/></g><path d="m403.926 210.781 5.035-5.035c3.018-3.017 3.018-7.909 0-10.927-3.017-3.018-7.909-3.018-10.927 0l-5.034 5.035-5.034-5.035c-3.017-3.017-7.909-3.017-10.927 0s-3.018 7.909 0 10.927l5.035 5.035-5.035 5.035c-3.018 3.017-3.018 7.909 0 10.927 1.509 1.509 3.486 2.263 5.463 2.263s3.955-.754 5.463-2.263l5.034-5.035 5.034 5.035c1.509 1.509 3.486 2.263 5.463 2.263s3.955-.755 5.463-2.263c3.018-3.017 3.018-7.909 0-10.927z" fill="#f9f1f4"/><g><path d="m450.393 428.651h-108.428c-5.523 0-10-4.477-10-10v-108.428c0-5.523 4.477-10 10-10h108.428c5.523 0 10 4.477 10 10v108.428c0 5.522-4.477 10-10 10z" fill="#00da9f"/><path d="m453.232 285.105 25.135 26.146c2.913 3.03 2.818 7.848-.212 10.76l-9.029 8.68c-3.03 2.913-7.848 2.818-10.76-.212l-25.135-26.146c-2.913-3.03-2.818-7.848.212-10.76l9.029-8.68c3.03-2.913 7.847-2.818 10.76.212z" fill="#ffc17f"/><path d="m339.126 285.105-25.135 26.146c-2.913 3.03-2.818 7.848.212 10.76l9.029 8.68c3.03 2.913 7.848 2.818 10.76-.212l25.135-26.146c2.913-3.03 2.818-7.848-.212-10.76l-9.029-8.68c-3.029-2.913-7.847-2.818-10.76.212z" fill="#ffc17f"/><g fill="#00b893"><path d="m401.793 346.267h-37.588c-4.267 0-7.726-3.459-7.726-7.726s3.459-7.726 7.726-7.726h37.588c4.267 0 7.726 3.459 7.726 7.726s-3.459 7.726-7.726 7.726z"/><path d="m428.154 380.011h-63.949c-4.267 0-7.726-3.459-7.726-7.726s3.459-7.726 7.726-7.726h63.949c4.267 0 7.726 3.459 7.726 7.726s-3.459 7.726-7.726 7.726z"/></g></g><path d="m127.865 405.796h-44.088c-4.267 0-7.726-3.459-7.726-7.726s3.459-7.726 7.726-7.726h44.088c4.267 0 7.726 3.459 7.726 7.726s-3.459 7.726-7.726 7.726z" fill="#ff7d2e"/></g><g/><g/><g/><g/><g/><g/><g/><g/><g/><g/><g/><g/><g/><g/><g/></svg>