<svg id="Capa_1" enable-background="new 0 0 512 512" viewBox="0 0 512 512" xmlns="http://www.w3.org/2000/svg"><g><path d="m296.467 512h-80.934c-3.603 0-6.523-2.921-6.523-6.523v-498.954c0-3.603 2.921-6.523 6.523-6.523h80.934c3.603 0 6.523 2.921 6.523 6.523v498.953c.001 3.603-2.92 6.524-6.523 6.524z" fill="#ac8597"/><path d="m209.009 414.876h93.981v50.855h-93.981z" fill="#916e7d"/><circle cx="256" cy="239.988" fill="#0bf" r="199.857"/><circle cx="256" cy="239.988" fill="#f9f1f4" r="158.138"/><path d="m256 81.85c-5.214 0-10.368.26-15.453.753 80.084 7.768 142.685 75.263 142.685 157.385s-62.601 149.617-142.685 157.385c5.085.493 10.238.753 15.453.753 87.337 0 158.138-70.801 158.138-158.138 0-87.338-70.801-158.138-158.138-158.138z" fill="#ebe1e5"/><path d="m322.79 165.194c-13.131-12.785-30.392-19.826-48.603-19.826h-50.648c-9.466 0-17.139 7.676-17.136 17.142l.057 161.58c.002 5.809 4.711 10.516 10.52 10.516h20.628c5.81 0 10.52-4.71 10.52-10.52v-35.206c0-3.708 2.997-6.719 6.705-6.736 7.445-.035 14.734-.062 19.354-.062 18.211 0 35.472-7.041 48.603-19.826 13.338-12.987 20.684-30.222 20.684-48.53s-7.346-35.544-20.684-48.532zm-48.603 75.223c-4.744 0-12.247.028-19.862.064-3.306.015-5.997-2.651-6.009-5.956-.038-11.113-.083-30.244-.111-41.496-.008-3.308 2.671-5.994 5.98-5.994h20.002c14.973 0 27.623 12.224 27.623 26.692 0 14.467-12.65 26.69-27.623 26.69z" fill="#0bf"/></g><g/><g/><g/><g/><g/><g/><g/><g/><g/><g/><g/><g/><g/><g/><g/></svg>