<svg id="Capa_1" enable-background="new 0 0 512 512" viewBox="0 0 512 512" xmlns="http://www.w3.org/2000/svg"><g><path d="m512 340.706v-268.847c0-18.434-14.943-33.377-33.377-33.377h-445.246c-18.433 0-33.377 14.943-33.377 33.377v268.847l256 5.378z" fill="#f9f1f4"/><path d="m481.095 71.859v274.224l30.905-5.377v-268.847c0-18.434-14.943-33.377-33.377-33.377h-30.905c18.433 0 33.377 14.943 33.377 33.377z" fill="#ebe1e5"/><path d="m154.194 311.055h-43.793l-18.362-38.838-34.522-13.811v-39.327c0-5.021 4.07-9.091 9.091-9.091h87.585c5.021 0 9.091 4.07 9.091 9.091v82.885c.001 5.02-4.069 9.091-9.09 9.091z" fill="#ffe35e"/><path d="m110.401 311.055v-44.557c0-4.469-3.623-8.091-8.091-8.091h-44.793z" fill="#ffc700"/><path d="m145.823 174.602h-43.793l-24.783-34.975-28.101-17.674v-39.326c0-5.021 4.07-9.091 9.091-9.091h87.585c5.021 0 9.091 4.07 9.091 9.091v82.885c.001 5.02-4.069 9.09-9.09 9.09z" fill="#ffe35e"/><path d="m102.03 174.602v-44.557c0-4.469-3.623-8.091-8.091-8.091h-44.793z" fill="#ffc700"/><path d="m456.672 352.624-241.2-3.372v-220.737c0-10.382 8.416-18.799 18.799-18.799h203.603c10.382 0 18.799 8.416 18.799 18.799v224.109z" fill="#37ddff"/><g fill="#f9f1f4"><path d="m320.997 159.942h-64.56c-4.268 0-7.726-3.459-7.726-7.726s3.459-7.726 7.726-7.726h64.56c4.268 0 7.726 3.459 7.726 7.726s-3.459 7.726-7.726 7.726z"/><path d="m415.479 194.173h-159.043c-4.268 0-7.726-3.459-7.726-7.726s3.459-7.726 7.726-7.726h159.042c4.268 0 7.726 3.459 7.726 7.726.001 4.266-3.458 7.726-7.725 7.726z"/><path d="m415.479 232.682h-159.043c-4.268 0-7.726-3.459-7.726-7.726s3.459-7.726 7.726-7.726h159.042c4.268 0 7.726 3.459 7.726 7.726s-3.458 7.726-7.725 7.726z"/><path d="m415.479 271.192h-159.043c-4.268 0-7.726-3.459-7.726-7.726s3.459-7.726 7.726-7.726h159.042c4.268 0 7.726 3.459 7.726 7.726.001 4.266-3.458 7.726-7.725 7.726z"/><path d="m415.479 309.701h-159.043c-4.268 0-7.726-3.459-7.726-7.726s3.459-7.726 7.726-7.726h159.042c4.268 0 7.726 3.459 7.726 7.726.001 4.267-3.458 7.726-7.725 7.726z"/></g><path d="m167.119 402.699h177.761v63.093h-177.761z" fill="#ac8597"/><path d="m0 340.706v33.671c0 18.434 14.944 33.377 33.377 33.377h445.245c18.434 0 33.377-14.944 33.377-33.377v-33.671z" fill="#00919e"/><path d="m481.086 340.706c-.175 18.283-15.044 33.052-33.369 33.052h-445.245c-.832 0-1.655-.041-2.472-.101v.719c0 18.434 14.944 33.377 33.377 33.377h445.245c18.434 0 33.377-14.944 33.377-33.377v-33.671h-30.913z" fill="#007c88"/><path d="m476.754 463.698h-43.793l-16.14-36.626-36.744-16.023v-39.327c0-5.021 4.07-9.091 9.091-9.091h87.585c5.021 0 9.091 4.07 9.091 9.091v82.885c.001 5.021-4.069 9.091-9.09 9.091z" fill="#ffe35e"/><path d="m432.961 463.698v-44.558c0-4.469-3.623-8.091-8.091-8.091h-44.793z" fill="#ffc700"/><path d="m379.017 473.518h-246.033c-4.268 0-7.726-3.459-7.726-7.726s3.459-7.726 7.726-7.726h246.033c4.268 0 7.726 3.459 7.726 7.726s-3.459 7.726-7.726 7.726z" fill="#00beca"/></g><g/><g/><g/><g/><g/><g/><g/><g/><g/><g/><g/><g/><g/><g/><g/></svg>