<svg id="Capa_1" enable-background="new 0 0 512 512" viewBox="0 0 512 512" xmlns="http://www.w3.org/2000/svg"><g><g><path d="m276.43 221.973-20.43 11.462-20.43-11.462v-70.458c0-5.604 4.543-10.148 10.148-10.148h20.565c5.604 0 10.148 4.543 10.148 10.148v70.458z" fill="#ebe1e5"/><path d="m62.238 373.287c-2.097 0-4.193-.794-5.802-2.384-3.242-3.204-3.272-8.43-.068-11.672l108.105-109.355c3.204-3.241 8.43-3.272 11.672-.067 3.242 3.204 3.272 8.43.068 11.672l-108.105 109.355c-1.614 1.632-3.742 2.451-5.87 2.451z" fill="#dac8d1"/><path d="m449.761 373.287c-2.128 0-4.255-.818-5.87-2.451l-108.103-109.355c-3.205-3.241-3.174-8.467.068-11.671 3.241-3.205 8.465-3.175 11.672.067l108.104 109.355c3.205 3.241 3.174 8.467-.068 11.671-1.61 1.59-3.706 2.384-5.803 2.384z" fill="#dac8d1"/><path d="m74.609 263.29v197.779c0 3.849-3.12 6.969-6.969 6.969h-27.31c-3.849 0-6.969-3.12-6.969-6.969v-197.779" fill="#7a5d6a"/><path d="m478.638 263.29v197.779c0 3.849-3.12 6.969-6.969 6.969h-27.31c-3.849 0-6.969-3.12-6.969-6.969v-197.779" fill="#7a5d6a"/><path d="m33.362 257.066h41.247v47.412h-41.247z" fill="#5f4a55"/><path d="m437.392 257.066h41.246v47.412h-41.246z" fill="#5f4a55"/><path d="m502.36 263.29h-492.72c-5.324 0-9.64-4.316-9.64-9.64v-25.535c0-5.324 4.316-9.64 9.64-9.64h492.72c5.324 0 9.64 4.316 9.64 9.64v25.535c0 5.324-4.316 9.64-9.64 9.64z" fill="#00c7a4"/></g><g><path d="m170.02 140.106c-1.587 1.587-3.281 3.091-5.068 4.507l-61.492-16.173-15.601-60.921c1.416-1.786 2.92-3.481 4.507-5.068 21.444-21.444 53.772-27.056 79.241-1.587 25.542 25.542 19.857 57.798-1.587 79.242z" fill="#ff6472"/><path d="m87.871 67.529c-17.725 22.353-21.71 59.067-1.852 78.924s56.572 15.872 78.924-1.852z" fill="#ffe7c1"/><path d="m66.702 178.696-12.927-12.926c-2.956-2.956-2.956-7.749 0-10.705l36.128-36.128c2.956-2.956 7.749-2.956 10.705 0l12.926 12.926c2.956 2.956 2.956 7.749 0 10.705l-36.128 36.128c-2.955 2.957-7.748 2.957-10.704 0z" fill="#ffae60"/></g><g><path d="m341.98 140.106c1.587 1.587 5.068 4.507 5.068 4.507l58.331-8.462 18.763-68.632c-1.416-1.786-2.921-3.481-4.507-5.068-21.444-21.444-53.772-27.056-79.241-1.587-25.543 25.542-19.858 57.798 1.586 79.242z" fill="#00cdff"/><path d="m424.129 67.529c17.725 22.353 21.71 59.067 1.852 78.924s-56.572 15.872-78.924-1.852z" fill="#ffe7c1"/><path d="m445.298 178.696 12.926-12.926c2.956-2.956 2.956-7.749 0-10.705l-36.128-36.128c-2.956-2.956-7.749-2.956-10.705 0l-12.926 12.926c-2.956 2.956-2.956 7.749 0 10.705l36.128 36.128c2.956 2.957 7.749 2.957 10.705 0z" fill="#ffae60"/></g></g><g/><g/><g/><g/><g/><g/><g/><g/><g/><g/><g/><g/><g/><g/><g/></svg>