<svg id="Capa_1" enable-background="new 0 0 512 512" viewBox="0 0 512 512" xmlns="http://www.w3.org/2000/svg"><g><path d="m218.752 512h-179.325c-9.733 0-17.624-7.89-17.624-17.624v-476.752c0-9.734 7.891-17.624 17.624-17.624h179.325c9.733 0 17.624 7.89 17.624 17.624v476.753c0 9.733-7.89 17.623-17.624 17.623z" fill="#00b893"/><circle cx="129.09" cy="404.933" fill="#f9f1f4" r="60.487"/><circle cx="129.09" cy="404.933" fill="#916e7d" r="30.536"/><path d="m186.564 192.226v-131.813c0-3.653-2.961-6.615-6.615-6.615h-18.578c-3.134 0-5.739 2.261-6.367 5.331-2.467 12.054-13.132 21.121-25.914 21.121-12.783 0-23.448-9.067-25.914-21.121-.628-3.07-3.234-5.331-6.367-5.331h-18.58c-3.653 0-6.615 2.962-6.615 6.615v131.813l62.885 5.773z" fill="#f9f1f4"/><path d="m71.615 192.226v75.466c0 3.653 2.961 6.615 6.615 6.615h18.579c3.133 0 5.739-2.261 6.367-5.331 2.466-12.053 13.132-21.121 25.914-21.121s23.448 9.067 25.914 21.121c.628 3.07 3.234 5.331 6.367 5.331h18.579c3.653 0 6.615-2.962 6.615-6.615v-75.466z" fill="#ff6472"/><path d="m472.573 512h-179.325c-9.733 0-17.624-7.89-17.624-17.624v-476.752c0-9.734 7.89-17.624 17.624-17.624h179.325c9.733 0 17.624 7.89 17.624 17.624v476.753c0 9.733-7.891 17.623-17.624 17.623z" fill="#ffd5a1"/><path d="m218.22 0h-12.75v428.163c0 29.233-23.698 52.931-52.931 52.931h-130.736v12.75c0 10.027 8.128 18.155 18.155 18.155h178.262c10.027 0 18.155-8.128 18.155-18.155v-475.689c.001-10.027-8.128-18.155-18.155-18.155z" fill="#00ad85"/><path d="m472.041 0h-12.75v428.163c0 29.233-23.698 52.932-52.931 52.932h-130.736v12.75c0 10.027 8.128 18.155 18.155 18.155h178.262c10.027 0 18.156-8.129 18.156-18.156v-475.688c0-10.027-8.129-18.156-18.156-18.156z" fill="#ffc17f"/><circle cx="382.91" cy="404.933" fill="#f9f1f4" r="60.487"/><circle cx="382.91" cy="404.933" fill="#916e7d" r="30.536"/><path d="m440.385 192.226v-131.813c0-3.653-2.962-6.615-6.615-6.615h-18.578c-3.134 0-5.739 2.261-6.367 5.331-2.467 12.054-13.132 21.121-25.914 21.121-12.783 0-23.448-9.067-25.914-21.121-.628-3.07-3.234-5.331-6.367-5.331h-18.58c-3.653 0-6.615 2.962-6.615 6.615v131.813l58.499 5.773z" fill="#f9f1f4"/><path d="m325.436 192.226v75.466c0 3.653 2.961 6.615 6.615 6.615h18.579c3.133 0 5.739-2.261 6.367-5.331 2.466-12.053 13.132-21.121 25.914-21.121 12.783 0 23.448 9.067 25.914 21.121.628 3.07 3.234 5.331 6.367 5.331h18.579c3.653 0 6.615-2.962 6.615-6.615v-75.466z" fill="#ffae60"/><path d="m149.112 124.741h-42.374c-4.268 0-7.726-3.459-7.726-7.726s3.459-7.726 7.726-7.726h42.374c4.268 0 7.726 3.459 7.726 7.726s-3.458 7.726-7.726 7.726z" fill="#00b893"/><path d="m149.112 162.03h-42.374c-4.268 0-7.726-3.459-7.726-7.726 0-4.268 3.459-7.726 7.726-7.726h42.374c4.268 0 7.726 3.459 7.726 7.726.001 4.267-3.458 7.726-7.726 7.726z" fill="#00b893"/><g fill="#ffae60"><path d="m402.933 124.741h-42.374c-4.268 0-7.726-3.459-7.726-7.726s3.459-7.726 7.726-7.726h42.374c4.268 0 7.726 3.459 7.726 7.726s-3.458 7.726-7.726 7.726z"/><path d="m402.933 162.03h-42.374c-4.268 0-7.726-3.459-7.726-7.726 0-4.268 3.459-7.726 7.726-7.726h42.374c4.268 0 7.726 3.459 7.726 7.726.001 4.267-3.458 7.726-7.726 7.726z"/></g></g><g/><g/><g/><g/><g/><g/><g/><g/><g/><g/><g/><g/><g/><g/><g/></svg>