<svg id="Capa_1" enable-background="new 0 0 512 512" viewBox="0 0 512 512" xmlns="http://www.w3.org/2000/svg"><g><path d="m357.98 158.107h-207.475c-.085.602-.175 1.204-.261 1.806-.123.852-.247 1.704-.375 2.556-.088.584-.181 1.168-.273 1.752-.123.783-.248 1.567-.379 2.348-.1.596-.206 1.19-.311 1.784-.137.775-.28 1.549-.429 2.32-.111.577-.229 1.153-.347 1.728-.232 1.12-.467 2.24-.731 3.35l121.943 89.84c1.382 1.019 2.991 1.509 4.586 1.509 2.376 0 4.722-1.09 6.239-3.15 2.536-3.443 1.802-8.289-1.641-10.825l-107.954-79.534h187.408c4.276 0 7.742-3.466 7.742-7.742s-3.466-7.742-7.742-7.742z" fill="#ebe1e5"/><path d="m110.201 215.409c-60.862 0-110.201 49.339-110.201 110.202s49.339 110.201 110.201 110.201c60.863 0 110.201-49.339 110.201-110.201s-49.338-110.202-110.201-110.202zm0 190.939c-44.59 0-80.737-36.147-80.737-80.737s36.147-80.737 80.737-80.737 80.737 36.147 80.737 80.737-36.147 80.737-80.737 80.737z" fill="#0bf"/><path d="m190.938 325.611c0 19.406-6.852 37.209-18.261 51.133 6.871 7.096 15.199 12.766 24.508 16.53 14.548-18.676 23.218-42.156 23.218-67.663 0-24.43-7.954-46.998-21.407-65.269-9.426 3.513-17.902 8.965-24.956 15.869 10.583 13.656 16.898 30.786 16.898 49.4z" fill="#0097ff"/><circle cx="400.153" cy="326.643" fill="#be9fad" r="23.441"/><path d="m446.615 262.256c16.942 10.592 29.671 27.298 35.108 47.027h30.277c-9.998-50.575-54.593-88.712-108.101-88.712-60.862 0-110.201 49.339-110.201 110.201 0 45.893 28.056 85.228 67.95 101.804v-33.003c-23.087-14.209-38.486-39.703-38.486-68.801 0-44.59 36.147-80.737 80.737-80.737 15.689 0 30.328 4.477 42.716 12.221" fill="#0bf"/><path d="m360.486 398.82c-16.868-10.785-29.471-27.648-34.683-47.517-8.204 6.462-16.52 12.79-24.668 19.313 3.97 10.231 9.428 19.717 16.099 28.204z" fill="#0097ff"/><path d="m471.259 243.584c-8.556-6.618-18.105-12.016-28.396-15.908-5.514 8.649-11.407 17.054-17.642 25.219 7.642 2.089 14.836 5.261 21.393 9.361 9.843 6.154 18.25 14.383 24.645 24.058z" fill="#0097ff"/><circle cx="219.515" cy="326.643" fill="#be9fad" r="33.15"/><circle cx="109.948" cy="326.643" fill="#be9fad" r="23.441"/><path d="m479.106 233.304c-19.44 16.477-36.449 35.894-50.084 57.336-20.021 31.484-33.017 67.697-37.585 104.726l-1.427 11.565h32.245l.944-7.646c5.686-46.091 25.4-88.349 55.908-121.75v-44.231z" fill="#ebe1e5"/><path d="m472.039 435.812v-334.281c0-9.721 7.88-17.601 17.601-17.601h4.636c9.721 0 17.601 7.88 17.601 17.601v334.281z" fill="#ffc17f"/><path d="m511.878 435.812h-205.525c-5.156 0-9.335-4.18-9.335-9.335v-3.118c0-15.124 12.26-27.384 27.384-27.384h187.476z" fill="#ffe7c1"/><path d="m397.518 322.673c-3.474 0-6.634-2.355-7.509-5.878l-52.318-214.03c-1.683-6.39-.341-13.054 3.686-18.297 4.041-5.262 10.164-8.28 16.799-8.28h45.28c15.373 0 27.88 12.507 27.88 27.88 0 15.372-12.507 27.879-27.88 27.879h-.589c-4.276 0-7.742-3.466-7.742-7.742s3.466-7.742 7.742-7.742h.589c6.834 0 12.395-5.56 12.395-12.394s-5.561-12.395-12.395-12.395h-45.28c-1.784 0-3.432.812-4.518 2.227-1.087 1.415-1.447 3.216-.986 4.941.012.043.023.088.034.131l52.334 214.09c1.03 4.151-1.499 8.35-5.649 9.381-.628.154-1.255.229-1.873.229z" fill="#ebe1e5"/><path d="m242.912 306.09c-1.843 0-3.694-.654-5.173-1.984-3.18-2.858-3.441-7.754-.583-10.934l118.162-131.466c2.858-3.178 7.754-3.443 10.934-.583 3.18 2.858 3.441 7.754.583 10.934l-118.162 131.466c-1.529 1.701-3.64 2.567-5.761 2.567z" fill="#ebe1e5"/><g fill="#916e7d"><path d="m219.514 367.535c-22.548 0-40.892-18.344-40.892-40.892s18.344-40.892 40.892-40.892c22.549 0 40.893 18.344 40.893 40.892s-18.344 40.892-40.893 40.892zm0-66.299c-14.009 0-25.407 11.398-25.407 25.407s11.398 25.407 25.407 25.407c14.01 0 25.408-11.398 25.408-25.407s-11.398-25.407-25.408-25.407z"/><path d="m109.948 357.826c-17.194 0-31.183-13.989-31.183-31.183s13.989-31.183 31.183-31.183c17.195 0 31.184 13.989 31.184 31.183s-13.989 31.183-31.184 31.183zm0-46.881c-8.656 0-15.698 7.042-15.698 15.698s7.042 15.698 15.698 15.698 15.699-7.042 15.699-15.698-7.043-15.698-15.699-15.698z"/><path d="m109.939 310.945c-3.967 0-7.346-3.032-7.703-7.059-.377-4.259 2.769-8.019 7.029-8.396l109.566-9.709c4.283-.362 8.018 2.77 8.396 7.029.377 4.259-2.769 8.019-7.029 8.396l-109.566 9.709c-.233.02-.464.03-.693.03z"/><path d="m219.523 367.535c-.23 0-.46-.01-.693-.03l-109.566-9.709c-4.259-.377-7.406-4.136-7.029-8.396.378-4.259 4.156-7.389 8.396-7.029l109.566 9.709c4.259.377 7.406 4.136 7.029 8.396-.356 4.027-3.736 7.059-7.703 7.059z"/></g><path d="m267.073 375.857h-14.408c-2.422 0-4.703-1.133-6.167-3.062l-32.262-42.504c-2.586-3.405-1.921-8.263 1.486-10.848 3.405-2.587 8.264-1.921 10.848 1.486l29.939 39.442h10.565c4.277 0 7.742 3.466 7.742 7.742-.001 4.278-3.467 7.744-7.743 7.744z" fill="#dac8d1"/><path d="m110.207 333.355c-.61 0-1.23-.073-1.849-.225-4.153-1.017-6.695-5.209-5.677-9.363l52.968-205.986c1.018-4.153 5.208-6.698 9.363-5.677 4.153 1.017 6.695 5.209 5.677 9.363l-52.968 205.986c-.866 3.534-4.031 5.902-7.514 5.902z" fill="#ebe1e5"/><path d="m164.41 145.885 6.279-24.418c1.018-4.154-1.524-8.345-5.677-9.363-4.155-1.021-8.344 1.524-9.363 5.677l-7.227 28.103h15.988z" fill="#dac8d1"/><path d="m199.99 132.496h-72.567c-5.552 0-10.052-4.501-10.052-10.052v-21.125c0-6.299 5.728-11.047 11.918-9.878l72.409 13.676c4.346.821 7.494 4.618 7.494 9.042v9.136c-.001 5.082-4.12 9.201-9.202 9.201z" fill="#ff6472"/></g><g/><g/><g/><g/><g/><g/><g/><g/><g/><g/><g/><g/><g/><g/><g/></svg>