<svg id="Capa_1" enable-background="new 0 0 512 512" viewBox="0 0 512 512" xmlns="http://www.w3.org/2000/svg"><g><path d="m101.369 211.01c4.738 30.4.523 56.299-9.416 57.848s-21.836-21.839-26.574-52.239c-3.332-21.379 2.679-41.299 6.541-51.238 1.243-3.2 5.468-3.859 7.626-1.189 6.702 8.293 18.49 25.438 21.823 46.818z" fill="#00b893"/><path d="m121.576 211.01c-4.738 30.4-.523 56.299 9.416 57.848s21.836-21.839 26.574-52.239c3.332-21.379-2.679-41.299-6.541-51.238-1.243-3.2-5.468-3.859-7.626-1.189-6.702 8.293-18.491 25.438-21.823 46.818z" fill="#00b893"/><path d="m129.685 213.791c0 30.767-8.154 55.708-18.212 55.708s-18.213-24.941-18.213-55.708c0-21.637 9.008-40.394 14.353-49.62 1.721-2.971 5.997-2.971 7.718 0 5.346 9.227 14.354 27.983 14.354 49.62z" fill="#00da9f"/><path d="m154.195 261.474-45.177-10.302-40.269 10.302 9.566 51.322h66.315z" fill="#ff9da5"/><path d="m123.29 261.474-9.566 51.322h30.906l9.565-51.322-15.112-10.302z" fill="#ff838c"/><path d="m152.34 261.474h-81.735c-4.241 0-7.68-3.438-7.68-7.68v-13.396c0-4.241 3.438-7.68 7.68-7.68h81.735c4.241 0 7.68 3.438 7.68 7.68v13.396c-.001 4.242-3.439 7.68-7.68 7.68z" fill="#ff6472"/><path d="m152.108 232.718h-30.905c4.369 0 7.911 3.542 7.911 7.911v12.933c0 4.37-3.542 7.911-7.911 7.911h30.905c4.369 0 7.911-3.542 7.911-7.911v-12.932c0-4.369-3.542-7.912-7.911-7.912z" fill="#ff4255"/><path d="m386.21 85.158-26.888-12.169c-2.474-1.12-4.064-3.584-4.064-6.299v-40.445c0-8.592-6.603-15.985-15.186-16.389-9.164-.431-16.728 6.87-16.728 15.939v55.65c0 6.267 3.668 11.953 9.378 14.537l53.488 24.207z" fill="#ffe7c1"/><path d="m386.21 221.727-26.888-12.169c-2.474-1.12-4.064-3.584-4.064-6.299v-40.445c0-8.592-6.603-15.985-15.186-16.389-9.164-.431-16.728 6.87-16.728 15.939v55.65c0 6.267 3.668 11.953 9.378 14.537l53.488 24.207z" fill="#ffe7c1"/><path d="m358.418 72.58v35.031l27.792 12.578v-35.031z" fill="#ffd5a1"/><path d="m358.418 209.149v35.031l27.792 12.578v-35.031z" fill="#ffd5a1"/><path d="m421.38 136.633 26.889-12.169c2.474-1.12 4.064-3.584 4.064-6.299v-40.445c0-8.592 6.603-15.985 15.186-16.389 9.164-.431 16.728 6.87 16.728 15.939v55.65c0 6.267-3.668 11.953-9.378 14.537l-53.488 24.207v-35.031z" fill="#ffe7c1"/><path d="m421.38 273.202 26.889-12.169c2.474-1.12 4.064-3.584 4.064-6.299v-40.445c0-8.592 6.603-15.985 15.186-16.389 9.164-.431 16.728 6.87 16.728 15.939v55.649c0 6.267-3.668 11.954-9.378 14.538l-53.488 24.207v-35.031z" fill="#ffe7c1"/><path d="m450.431 123.485-29.051 13.148v35.03l29.051-13.147z" fill="#ffd5a1"/><path d="m450.431 260.054-29.051 13.148v35.03l29.051-13.148z" fill="#ffd5a1"/><g><path d="m358.418 511.656-35.982.041-18.528-10.281-18.528 10.323-153.46.176-18.196-10.281-18.86 10.323-36.924.043c-10.895 0-19.727-8.832-19.727-19.727v-144.066l188.693-10.302 152.182 10.302z" fill="#ffe7c1"/><path d="m348.183 348.207v49.179c0 44.524-36.094 80.618-80.618 80.618h-229.352v14.27c0 10.895 8.832 19.726 19.726 19.726h289.273l49.693-15.453-6.127-148.341-24.305-10.302z" fill="#ffd5a1"/><g><path d="m131.921 478.004v-129.797l-18.197-10.302-18.859 10.302v129.797l16.607 11.45z" fill="#ffae60"/><path d="m322.437 456.426v-108.219l-18.528-10.302-18.528 10.302v127.797l18.528 3.148z" fill="#ffae60"/><g fill="#ff8e46"><path d="m94.865 478.004h37.056v33.996h-37.056z"/><path d="m322.437 456.426c-10.234 9.516-22.942 16.392-37.055 19.578v35.996h37.055z"/></g></g><path d="m387.385 348.893h-349.471c-5.611 0-10.16-4.549-10.16-10.16v-18.867c0-5.611 4.549-10.16 10.16-10.16h349.471c5.611 0 10.16 4.549 10.16 10.16v18.867c0 5.611-4.549 10.16-10.16 10.16z" fill="#ac8597"/></g><path d="m387.078 309.706h-38.322v39.187h38.322c5.781 0 10.467-4.686 10.467-10.467v-18.254c0-5.78-4.686-10.466-10.467-10.466z" fill="#916e7d"/><path d="m426.532 482.346h-44.443v-460.775c0-11.914 9.657-21.571 21.57-21.571h1.302c11.913 0 21.571 9.657 21.571 21.571z" fill="#ffae60"/><path d="m458.705 512h-111.815c-5.92 0-10.72-4.8-10.72-10.72v-.947c0-11.401 9.242-20.643 20.643-20.643h91.969c11.401 0 20.643 9.242 20.643 20.643v.947c0 5.92-4.799 10.72-10.72 10.72z" fill="#ff9f45"/><circle cx="184.818" cy="58.838" fill="#f9f1f4" r="58.838"/><path d="m203.314 74.096h-15.091c-6.662 0-12.081-5.42-12.081-12.081v-29.844c0-4.268 3.459-7.726 7.726-7.726s7.726 3.459 7.726 7.726v26.472h11.719c4.268 0 7.726 3.459 7.726 7.726.001 4.268-3.458 7.727-7.725 7.727z" fill="#be9fad"/></g><g/><g/><g/><g/><g/><g/><g/><g/><g/><g/><g/><g/><g/><g/><g/></svg>