<svg id="Capa_1" enable-background="new 0 0 512 512" viewBox="0 0 512 512" xmlns="http://www.w3.org/2000/svg"><g><path d="m373.816 127.082h-235.632c-10.574 0-19.145-8.572-19.145-19.145v-88.792c0-10.573 8.572-19.145 19.145-19.145h235.632c10.573 0 19.145 8.572 19.145 19.145v88.792c0 10.574-8.572 19.145-19.145 19.145z" fill="#ffc17f"/><path d="m373.238 0h-11.183v76.454c0 10.893-8.83 19.723-19.723 19.723h-223.293v11.183c0 10.893 8.83 19.723 19.723 19.723l108.171 10.302 126.306-10.302c10.893 0 19.723-8.83 19.723-19.723v-87.637c-.001-10.893-8.831-19.723-19.724-19.723z" fill="#ffae60"/><path d="m271.335 63.541h-30.67c-5.899 0-10.682-4.782-10.682-10.682v-52.762h52.033v52.763c.001 5.899-4.782 10.681-10.681 10.681z" fill="#ff8e46"/><g fill="#ffae60"><path d="m348.234 48.909h-25.022c-4.268 0-7.726-3.459-7.726-7.726s3.459-7.726 7.726-7.726h25.022c4.268 0 7.726 3.459 7.726 7.726s-3.459 7.726-7.726 7.726z"/><path d="m348.234 79.363h-25.022c-4.268 0-7.726-3.459-7.726-7.726 0-4.268 3.459-7.726 7.726-7.726h25.022c4.268 0 7.726 3.459 7.726 7.726s-3.459 7.726-7.726 7.726z"/><path d="m188.788 48.909h-25.022c-4.268 0-7.726-3.459-7.726-7.726s3.459-7.726 7.726-7.726h25.022c4.268 0 7.726 3.459 7.726 7.726s-3.458 7.726-7.726 7.726z"/><path d="m188.788 79.363h-25.022c-4.268 0-7.726-3.459-7.726-7.726 0-4.268 3.459-7.726 7.726-7.726h25.022c4.268 0 7.726 3.459 7.726 7.726s-3.458 7.726-7.726 7.726z"/></g><path d="m417.553 127.082h-125.039l-33.855 10.302-39.173-10.302h-132.564c-12.913 0-23.381 10.468-23.381 23.381v330.631l359.356 5.549z" fill="#ffe7c1"/><path d="m425.078 127.082h-7.525v330.631c0 12.913-10.468 23.381-23.381 23.381h-330.631v7.525c0 12.913 10.468 23.381 23.381 23.381h338.156c12.913 0 23.381-10.468 23.381-23.381v-338.156c0-12.913-10.468-23.381-23.381-23.381z" fill="#ffd5a1"/><path d="m284.234 413.15h-56.469c-4.573 0-8.279 3.707-8.279 8.279v90.571h73.028v-90.57c0-4.573-3.707-8.28-8.28-8.28z" fill="#ff9f45"/><path d="m219.486 481.095h73.028v30.905h-73.028z" fill="#ff8e46"/><path d="m284.234 225.932h-56.469c-4.573 0-8.279-3.707-8.279-8.28v-90.57h73.028v90.57c0 4.573-3.707 8.28-8.28 8.28z" fill="#ff9f45"/><path d="m365.242 355.73h-92.477c-7.79 0-14.106-6.315-14.106-14.106v-44.167c0-7.79 6.315-14.106 14.106-14.106h92.477c7.79 0 14.106 6.315 14.106 14.106v44.167c0 7.791-6.316 14.106-14.106 14.106z" fill="#00cdff"/><path d="m209.084 309.513h-76.432c-4.268 0-7.726-3.459-7.726-7.726s3.459-7.726 7.726-7.726h76.432c4.268 0 7.726 3.459 7.726 7.726s-3.459 7.726-7.726 7.726z" fill="#ac8597"/><path d="m209.084 345.022h-76.432c-4.268 0-7.726-3.459-7.726-7.726s3.459-7.726 7.726-7.726h76.432c4.268 0 7.726 3.459 7.726 7.726s-3.459 7.726-7.726 7.726z" fill="#ac8597"/><path d="m335.723 327.268h-33.439c-4.268 0-7.726-3.459-7.726-7.726 0-4.268 3.459-7.726 7.726-7.726h33.439c4.268 0 7.726 3.459 7.726 7.726s-3.459 7.726-7.726 7.726z" fill="#00abff"/><path d="m152.77 476.371c-1.978 0-3.955-.755-5.464-2.263l-20.118-20.118c-3.017-3.018-3.017-7.909 0-10.928 3.018-3.016 7.909-3.016 10.928 0l14.654 14.655 14.656-14.655c3.016-3.017 7.908-3.016 10.927.001 3.017 3.017 3.017 7.909-.001 10.927l-20.119 20.118c-1.508 1.509-3.486 2.263-5.463 2.263z" fill="#ac8597"/><path d="m152.77 430.936c-1.978 0-3.955-.755-5.464-2.263l-20.118-20.118c-3.017-3.018-3.017-7.909 0-10.928 3.018-3.016 7.909-3.016 10.928 0l14.654 14.655 14.656-14.655c3.016-3.016 7.908-3.017 10.927.001 3.017 3.017 3.017 7.909-.001 10.927l-20.119 20.118c-1.508 1.508-3.486 2.263-5.463 2.263z" fill="#ac8597"/></g><g/><g/><g/><g/><g/><g/><g/><g/><g/><g/><g/><g/><g/><g/><g/></svg>