<svg id="Capa_1" enable-background="new 0 0 512 512" viewBox="0 0 512 512" xmlns="http://www.w3.org/2000/svg"><g><g fill="#7a5d6a"><path d="m106.979 512h-16.975c-5.421 0-9.816-4.395-9.816-9.816v-53.9h36.607v53.9c0 5.421-4.395 9.816-9.816 9.816z"/><path d="m224.026 512h-16.975c-5.421 0-9.816-4.395-9.816-9.816v-53.9h36.607v53.9c0 5.421-4.395 9.816-9.816 9.816z"/><path d="m304.949 512h-16.975c-5.421 0-9.816-4.395-9.816-9.816v-53.9h36.607v53.9c0 5.421-4.395 9.816-9.816 9.816z"/><path d="m421.996 512h-16.975c-5.421 0-9.816-4.395-9.816-9.816v-53.9h36.607v53.9c0 5.421-4.395 9.816-9.816 9.816z"/></g><path d="m435.389 458.586h-179.389l-10.302-228.945 10.302-229.641h179.389c10.262 0 18.581 8.319 18.581 18.581v421.424c0 10.262-8.319 18.581-18.581 18.581z" fill="#0097ff"/><path d="m256 458.586h-179.933c-9.961 0-18.036-8.075-18.036-18.036v-422.514c-.001-9.961 8.074-18.036 18.036-18.036h179.933z" fill="#0bf"/><path d="m91.636 413.288v-367.991c0-5.367 4.351-9.719 9.719-9.719h111.321c5.367 0 9.719 4.351 9.719 9.719v367.991c0 5.367-4.351 9.719-9.719 9.719h-111.321c-5.368 0-9.719-4.351-9.719-9.719zm207.688 9.719h111.321c5.367 0 9.719-4.351 9.719-9.719v-367.991c0-5.367-4.351-9.719-9.719-9.719h-111.321c-5.367 0-9.719 4.351-9.719 9.719v367.991c.001 5.368 4.352 9.719 9.719 9.719z" fill="#d7f7ff"/><path d="m212.382 35.579h-20.894v346.511c0 5.529-4.482 10.012-10.012 10.012h-89.84v20.893c0 5.529 4.482 10.012 10.012 10.012h110.734c5.529 0 10.012-4.483 10.012-10.012v-367.404c0-5.53-4.482-10.012-10.012-10.012z" fill="#b4eeff"/><path d="m410.352 35.579h-20.894v346.511c0 5.529-4.482 10.012-10.012 10.012h-89.841v20.893c0 5.529 4.482 10.012 10.012 10.012h110.734c5.529 0 10.012-4.483 10.012-10.012v-367.404c.001-5.53-4.482-10.012-10.011-10.012z" fill="#b4eeff"/><path d="m130.27 263.454c-4.268 0-7.726-3.459-7.726-7.726v-35.66c0-4.268 3.459-7.726 7.726-7.726 4.268 0 7.726 3.459 7.726 7.726v35.66c.001 4.267-3.458 7.726-7.726 7.726z" fill="#0bf"/><path d="m130.27 204.764c-4.268 0-7.726-3.459-7.726-7.726v-9.934c0-4.268 3.459-7.726 7.726-7.726 4.268 0 7.726 3.459 7.726 7.726v9.934c.001 4.267-3.458 7.726-7.726 7.726z" fill="#0bf"/><path d="m183.76 91.468h-53.49c-4.268 0-7.726-3.459-7.726-7.726 0-4.268 3.459-7.726 7.726-7.726h53.49c4.268 0 7.726 3.459 7.726 7.726.001 4.267-3.458 7.726-7.726 7.726z" fill="#0bf"/><path d="m183.76 122.67h-53.49c-4.268 0-7.726-3.459-7.726-7.726 0-4.268 3.459-7.726 7.726-7.726h53.49c4.268 0 7.726 3.459 7.726 7.726.001 4.267-3.458 7.726-7.726 7.726z" fill="#0bf"/><path d="m183.76 351.368h-53.49c-4.268 0-7.726-3.459-7.726-7.726 0-4.268 3.459-7.726 7.726-7.726h53.49c4.268 0 7.726 3.459 7.726 7.726.001 4.267-3.458 7.726-7.726 7.726z" fill="#0bf"/><path d="m183.76 382.57h-53.49c-4.268 0-7.726-3.459-7.726-7.726s3.459-7.726 7.726-7.726h53.49c4.268 0 7.726 3.459 7.726 7.726s-3.458 7.726-7.726 7.726z" fill="#0bf"/><g fill="#0097ff"><path d="m328.24 263.454c-4.268 0-7.726-3.459-7.726-7.726v-35.66c0-4.268 3.459-7.726 7.726-7.726s7.726 3.459 7.726 7.726v35.66c0 4.267-3.458 7.726-7.726 7.726z"/><path d="m328.24 204.764c-4.268 0-7.726-3.459-7.726-7.726v-9.934c0-4.268 3.459-7.726 7.726-7.726s7.726 3.459 7.726 7.726v9.934c0 4.267-3.458 7.726-7.726 7.726z"/><path d="m381.73 91.468h-53.49c-4.268 0-7.726-3.459-7.726-7.726 0-4.268 3.459-7.726 7.726-7.726h53.49c4.268 0 7.726 3.459 7.726 7.726s-3.458 7.726-7.726 7.726z"/><path d="m381.73 122.67h-53.49c-4.268 0-7.726-3.459-7.726-7.726 0-4.268 3.459-7.726 7.726-7.726h53.49c4.268 0 7.726 3.459 7.726 7.726s-3.458 7.726-7.726 7.726z"/><path d="m381.73 351.368h-53.49c-4.268 0-7.726-3.459-7.726-7.726 0-4.268 3.459-7.726 7.726-7.726h53.49c4.268 0 7.726 3.459 7.726 7.726s-3.458 7.726-7.726 7.726z"/><path d="m381.73 382.57h-53.49c-4.268 0-7.726-3.459-7.726-7.726s3.459-7.726 7.726-7.726h53.49c4.268 0 7.726 3.459 7.726 7.726s-3.458 7.726-7.726 7.726z"/></g></g><g/><g/><g/><g/><g/><g/><g/><g/><g/><g/><g/><g/><g/><g/><g/></svg>