<svg id="Capa_1" enable-background="new 0 0 512 512" viewBox="0 0 512 512" xmlns="http://www.w3.org/2000/svg"><g><path d="m238.718 362.072v103.287h34.564v-103.287l-19.044-1.521z" fill="#c6b2bc"/><path d="m238.718 308.219h34.563v53.854h-34.563z" fill="#be9fad"/><path d="m329.516 497.292h-147.032c-8.149 0-14.079-7.731-11.968-15.602l.981-3.658c3.029-11.293 13.264-19.144 24.956-19.144h119.093c11.692 0 21.927 7.851 24.956 19.144l.981 3.658c2.113 7.871-3.818 15.602-11.967 15.602z" fill="#ac8597"/><path d="m337.538 318.52h-163.076c-12.725 0-23.041-10.316-23.041-23.041v-30.583h209.157v30.583c.001 12.726-10.315 23.041-23.04 23.041z" fill="#00beca"/><path d="m345.841 241.292h-179.682l19.127-210.345c.836-9.197 8.548-16.24 17.783-16.24h105.861c9.235 0 16.947 7.042 17.783 16.24z" fill="#00beca"/><path d="m332.992 99.988h-30.187c-23.217 0-42.038 18.821-42.038 42.038v98.435h84.998z" fill="#00a5b7"/><path d="m446.666 241.492h-159.846v-95.21c0-12.143 9.844-21.987 21.987-21.987h115.872c12.143 0 21.987 9.844 21.987 21.987z" fill="#c6b2bc"/><ellipse cx="340.69" cy="172.958" fill="#ffe35e" rx="22.718" ry="18.568"/><path d="m446.666 208.697h-43.3c-5.211 0-9.435-4.224-9.435-9.435v-7.532c0-5.211 4.224-9.435 9.435-9.435h43.3z" fill="#ff838c"/><path d="m62.412 125.905c8.191 10.968 5.668 27.654 3.469 36.542-.915 3.696-4.306 6.228-8.109 6.056-9.146-.414-25.863-2.734-34.053-13.702s-5.668-27.654-3.469-36.542c.915-3.696 4.306-6.228 8.109-6.056 9.147.415 25.863 2.735 34.053 13.702z" fill="#00c7a4"/><path d="m69.35 125.905c-8.191 10.968-5.668 27.654-3.469 36.542.915 3.696 4.306 6.228 8.109 6.056 9.146-.414 25.863-2.734 34.053-13.702s5.668-27.654 3.469-36.542c-.915-3.696-4.306-6.228-8.109-6.056-9.146.415-25.863 2.735-34.053 13.702z" fill="#00e894"/><path d="m84.895 241.492h-38.028c-4.998 0-9.222-3.704-9.874-8.66l-7.681-58.378c-.785-5.965 3.858-11.258 9.874-11.258h53.39c6.016 0 10.658 5.293 9.874 11.258l-7.681 58.378c-.652 4.956-4.876 8.66-9.874 8.66z" fill="#ff9f45"/><path d="m63.784 497.292h-24.133c-3.814 0-6.905-3.091-6.905-6.905v-215.189h37.943v215.189c0 3.814-3.092 6.905-6.905 6.905z" fill="#ff8e46"/><path d="m477.704 497.292h-24.133c-3.814 0-6.905-3.091-6.905-6.905v-215.189h37.943v215.189c0 3.814-3.091 6.905-6.905 6.905z" fill="#ff8e46"/><path d="m70.689 317.335v-42.137l-18.972-10.302-18.971 10.302v42.137z" fill="#ff7d2e"/><path d="m484.609 317.335v-42.137l-18.971-10.302-18.972 10.302v42.137z" fill="#ff7d2e"/><path d="m504.783 275.198h-497.566c-3.986 0-7.217-3.231-7.217-7.217v-21.533c0-3.986 3.231-7.217 7.217-7.217h497.566c3.986 0 7.217 3.231 7.217 7.217v21.533c0 3.986-3.231 7.217-7.217 7.217z" fill="#ffd5a1"/></g><g/><g/><g/><g/><g/><g/><g/><g/><g/><g/><g/><g/><g/><g/><g/></svg>