<svg id="Capa_1" enable-background="new 0 0 512 512" viewBox="0 0 512 512" xmlns="http://www.w3.org/2000/svg"><g><path d="m90.834 492.466h-15.313c-5.046 0-9.137-4.091-9.137-9.137v-60.32h42.515l-9.048 61.796c-.723 4.417-4.54 7.661-9.017 7.661z" fill="#ff8e46"/><path d="m421.166 492.466h15.313c5.046 0 9.137-4.091 9.137-9.137l-1.107-60.32h-41.409l9.048 61.796c.724 4.417 4.541 7.661 9.018 7.661z" fill="#ff8e46"/><path d="m66.384 429.519h-40.33c-14.389 0-26.054-11.664-26.054-26.053v-97.849c0-11.762 9.535-21.296 21.296-21.296h23.792c11.762 0 21.296 9.535 21.296 21.296l10.302 53.555z" fill="#ffd42b"/><path d="m445.616 429.519h40.33c14.389 0 26.054-11.665 26.054-26.054v-97.849c0-11.762-9.535-21.296-21.296-21.296h-23.792c-11.762 0-21.296 9.535-21.296 21.296l-10.302 63.3z" fill="#ffd42b"/><path d="m445.616 368.916h-379.232v-119.127c0-34.645 28.086-62.731 62.731-62.731h253.77c34.645 0 62.731 28.086 62.731 62.731z" fill="#ffc700"/><path d="m414.711 335.26h-324.416c-13.206 0-23.911 10.705-23.911 23.911v39.443l352.36 10.772z" fill="#ffd42b"/><path d="m380.992 187.058h-30.905c35.691 0 64.624 28.933 64.624 64.624v117.234h30.905v-117.234c0-35.691-28.933-64.624-64.624-64.624z" fill="#ffb000"/><path d="m421.705 335.26h-6.994v20.856c0 23.471-19.027 42.498-42.498 42.498h-305.829v30.905h379.232v-70.348c0-13.206-10.705-23.911-23.911-23.911z" fill="#ffc700"/><circle cx="366.446" cy="77.184" fill="#37ddff" r="57.65"/><path d="m389.97 24.555c6.565 9.361 10.431 20.753 10.431 33.055 0 31.839-25.811 57.65-57.65 57.65-8.382 0-16.339-1.804-23.525-5.021 10.427 14.866 27.682 24.594 47.219 24.594 31.839 0 57.65-25.811 57.65-57.65 0-23.456-14.017-43.626-34.125-52.628z" fill="#00cdff"/><path d="m247.853 134.833h-15.201l-24.724-10.302-24.724 10.302h-78.727c-9.153 0-16.573-7.42-16.573-16.573v-82.153c0-9.153 7.42-16.573 16.573-16.573h29.43l17.943 10.302 17.943-10.302h78.059c9.153 0 16.573 7.42 16.573 16.573v82.154c.001 9.152-7.419 16.572-16.572 16.572z" fill="#f9f1f4"/><path d="m133.908 19.534c-1.45 2.788-2.275 5.954-2.275 9.314 0 11.166 9.052 20.218 20.218 20.218s20.218-9.052 20.218-20.218c0-3.36-.824-6.526-2.275-9.314z" fill="#ff6472"/><circle cx="137.487" cy="92.01" fill="#0bf" r="21.103"/><path d="m203.56 99.577-20.355 35.256h49.448l-20.672-35.804c-1.801-3.12-6.304-3.12-8.105 0l-20.672 35.804h49.448l-20.355-35.256c-1.941-3.363-6.796-3.363-8.737 0z" fill="#00da9f"/><path d="m385.783 86.971h-18.686c-3.068 0-5.95-1.196-8.115-3.368-2.164-2.171-3.351-5.055-3.341-8.121.056-17.753.034-25.1-.004-26.057-.172-4.252 3.126-7.866 7.377-8.054 4.239-.194 7.853 3.072 8.058 7.322.06 1.248.071 8.92.033 22.825h14.678c4.267 0 7.726 3.459 7.726 7.726.001 4.267-3.458 7.727-7.726 7.727z" fill="#f9f1f4"/><path d="m230.791 81.12c-1.866 0-3.738-.672-5.221-2.033l-29.956-27.485c-3.144-2.885-3.355-7.772-.47-10.917 2.884-3.144 7.772-3.355 10.917-.47l29.956 27.485c3.144 2.885 3.355 7.772.47 10.917-1.525 1.661-3.607 2.503-5.696 2.503z" fill="#00abff"/></g><g/><g/><g/><g/><g/><g/><g/><g/><g/><g/><g/><g/><g/><g/><g/></svg>