<svg clip-rule="evenodd" fill-rule="evenodd" height="2.667in" image-rendering="optimizeQuality" shape-rendering="geometricPrecision" text-rendering="geometricPrecision" viewBox="0 0 2667 2667" width="2.667in" xmlns="http://www.w3.org/2000/svg"><g id="Layer_x0020_1"><circle cx="1333" cy="1333" fill="#f10" r="1333"/><path d="m732 1938c-153-152-248-361-252-592h841v344c-213 4-416 83-575 225-7 6-12 14-14 23zm589-988c-206-3-404-81-557-218-5-5-8-11-8-17 0-7 3-13 8-17 153-138 351-215 557-218zm25-470c206 3 403 80 557 218 5 4 7 10 7 17 0 6-2 12-7 17-154 137-351 215-557 218zm-25 1707c-206-4-404-81-557-218-5-5-8-11-8-17 0-7 3-13 8-17 153-138 351-215 557-218zm25-470c206 3 403 80 557 218 5 4 7 10 7 17 0 6-2 12-7 17-154 137-351 214-557 218zm0-371h841c-4 231-99 440-252 592-3-9-8-17-14-23-159-142-362-221-575-225zm-866-25c4-231 99-440 252-592 2 9 7 16 14 23 159 142 362 221 575 224v345zm866-345c213-3 416-82 575-224 6-7 11-14 14-23 153 152 248 361 252 592h-841z" fill="#fff"/></g></svg>