<svg clip-rule="evenodd" fill-rule="evenodd" height="2.667in" image-rendering="optimizeQuality" shape-rendering="geometricPrecision" text-rendering="geometricPrecision" viewBox="0 0 2667 2667" width="2.667in" xmlns="http://www.w3.org/2000/svg"><g id="Layer_x0020_1"><circle cx="1333" cy="1333" fill="#7ed63f" r="1333"/><path d="m1616 1388h-361c-13 0-23-11-23-23v-197c0-121 99-219 219-219h316v-70c0-39-31-70-70-70h-207c-12 0-23-10-23-23 0-12 11-22 23-22h207c64 0 115 51 115 115v70c13 0 23 10 23 23v246c0 17-3 32-7 47l32 144c13-1 26-2 40-2 158 0 287 128 287 287 0 12-11 22-23 22-13 0-23-10-23-22 0-133-108-242-241-242-11 0-20 1-30 2l7 32c7-1 15-1 23-1 115 0 209 93 209 209 0 115-94 209-209 209-116 0-210-94-210-209 0-92 60-170 142-198l-7-32c-97 31-167 122-167 230 0 12-10 22-23 22-12 0-23-10-23-22 0-129 86-239 204-275l-21-92c-29 34-71 57-119 60l-97 112c15 22 24 49 24 78 0 71-53 130-122 138v-88c0-7-6-13-13-13s-12 6-12 13v89h-10l12 46 23-6c12-3 24 4 27 16 4 12-4 24-16 28l-89 24c-2 0-4 0-6 0-10 0-19-6-22-16-3-13 4-25 16-28l23-6-15-58h-14v-89c0-7-6-13-13-13s-13 6-13 13v89h-13v158 1 1 1 1l-1 1v1 1 1h-1v1 1h-1v1 1h-1v1l-1 1-1 1v1h-1l-1 1v1h-1l-1 1h-1l-1 1h-1v1h-1-1l-1 1h-1-1-1l-1 1h-1-1-1-88c-12 0-22-10-22-23s10-23 22-23h65v-135h-12v-89c0-7-6-13-13-13s-12 6-12 13v89h-100-58-57c-12 105-100 187-208 187-115 0-209-94-209-209s94-209 209-209c108 0 196 82 208 186h33c-11-123-115-219-241-219-133 0-242 108-242 242 0 12-10 22-23 22-12 0-22-10-22-22 0-159 129-288 287-288 151 0 275 117 287 265h14v-106c0-6 0-11 1-16l-112-161h-177c-31 0-61-10-86-27 0 0-1 0-2 0h-1c-10 0-178 5-239 272-3 11-12 18-22 18-2 0-4 0-5-1-13-2-20-15-17-27 52-230 181-288 245-302-12-18-20-38-24-59h249 254v119l40 58c6-1 12-2 18-2v90c0 7 5 13 12 13s13-6 13-13v-90h71v90c0 7 6 13 13 13s13-6 13-13v-90h71v90c0 7 5 13 12 13s13-6 13-13v-89c25 3 48 13 67 28zm-461 0h-69l75 108c10-16 24-30 41-40zm269-464v-14c0-13 10-23 23-23h88c13 0 23 10 23 23v12h-107c-9 0-18 1-27 2zm-751 386h-45c-12 0-22-10-22-22v-124c0-13 10-23 22-23h45v92c0 26 5 50 14 72-5 1-9 3-14 5zm1227-47h-44c4-15 6-29 6-45v-214h38c64 0 116 52 116 116v27c0 64-52 116-116 116zm0 507c42 0 76-34 76-76s-34-76-76-76-77 34-77 76 35 76 77 76zm0-127c28 0 50 23 50 51s-22 51-50 51-51-23-51-51 23-51 51-51zm-1060 127c42 0 76-34 76-76s-34-76-76-76-76 34-76 76 34 76 76 76zm0-127c28 0 51 23 51 51s-23 51-51 51-51-23-51-51 23-51 51-51zm-141-407c0-1 0-2 0-3v-161c0-6 3-12 8-17 5-4 11-6 18-5l213 27v159zm264-157h259c-11 28-17 58-17 89v68h-242zm703 210c39 0 71-32 71-71v-158c0-7-6-13-13-13h-273c-66 0-121 54-121 121v109c0 7 6 12 13 12zm-310-25v-96c0-53 43-96 95-96h260v146c0 25-21 46-45 46z" fill="#fff"/></g></svg>