<svg clip-rule="evenodd" fill-rule="evenodd" height="2.667in" image-rendering="optimizeQuality" shape-rendering="geometricPrecision" text-rendering="geometricPrecision" viewBox="0 0 2667 2667" width="2.667in" xmlns="http://www.w3.org/2000/svg"><g id="Layer_x0020_1"><circle cx="1333" cy="1333" fill="#00ab94" r="1333"/><path d="m1749 2152h-403v-340h118l79 137c3 4 7 6 11 6 3 0 5 0 7-2 6-3 8-11 4-17l-71-124h278v317c0 13-10 23-23 23zm-419-428c27 0 50-15 62-37l57 99h-239l58-99c11 22 35 37 62 37zm-149 62h-286v-265h438 1 438v265h-293l-79-136c-2-37-32-67-70-67s-69 30-71 67zm149-177c25 0 45 20 45 44v1c0 25-20 45-45 45s-45-20-45-45v-1c0-24 20-44 45-44zm-9 203v340h-404c-12 0-22-10-22-23v-317h271l-72 124c-3 6-1 14 5 17 2 2 4 2 6 2 5 0 9-2 11-6l79-137zm-426-316v-271l-55 203c-2 10-11 17-22 17h-315c-7 0-14-3-18-8-4-6-6-13-5-19 29-138 46-241 60-324 49-298 52-302 348-477 46-27 98-58 159-94l274 445v528zm451 0v-528l273-446c61 37 113 68 159 95 296 175 300 179 349 477 13 83 31 186 59 324 2 6 0 13-4 19-5 5-11 8-18 8h-316c-10 0-19-7-22-17l-54-203v271zm-274-981h521l-260 425z" fill="#fff"/></g></svg>