<svg clip-rule="evenodd" fill-rule="evenodd" height="2.667in" image-rendering="optimizeQuality" shape-rendering="geometricPrecision" text-rendering="geometricPrecision" viewBox="0 0 2667 2667" width="2.667in" xmlns="http://www.w3.org/2000/svg"><g id="Layer_x0020_1"><circle cx="1333" cy="1333" fill="#f44c71" r="1333"/><path d="m638 1735c26-25 50-48 72-69 60-58 107-104 149-151l140 140c-47 41-93 88-151 149-22 22-44 45-70 71-3-4-6-7-9-11l-120-119c-3-4-7-7-11-10zm1410 309c-6 0-11-2-15-6-39-36-69-78-90-126h56c7 0 12-5 12-12s-5-13-12-13h-67c-13-38-21-77-22-118h61c7 0 13-5 13-12s-6-13-13-13h-61c1-40 9-80 22-118h70c7 0 13-5 13-12s-6-13-13-13h-59c21-47 51-90 90-126 8-8 22-8 30 0 79 73 124 175 124 282 0 106-45 209-124 281-4 4-9 6-15 6zm-489 0c-5 0-11-2-15-6-78-72-123-175-123-281 0-107 45-209 123-282 9-8 22-8 31 0 38 36 69 79 90 126h-60c-7 0-12 6-12 13s5 12 12 12h70c14 38 21 78 23 118h-61c-7 0-13 6-13 13s6 12 13 12h61c-2 41-9 80-23 118h-66c-7 0-13 6-13 13s6 12 13 12h56c-21 48-52 90-90 126-5 4-10 6-16 6zm245 96c-84 0-162-28-225-73 5-3 10-6 14-9 44-41 78-91 101-146h42c7 0 13-5 13-12s-6-13-13-13h-33c13-38 20-77 21-118h40c7 0 13-5 13-12s-6-13-13-13h-40c-1-40-8-80-21-118h30c7 0 12-5 12-12s-5-13-12-13h-39c-23-55-57-104-101-145-4-4-9-7-14-9 63-46 141-73 225-73s161 27 224 73c-5 2-9 5-13 9-45 41-79 90-101 145h-39c-7 0-13 6-13 13s6 12 13 12h29c-13 38-20 78-21 118h-40c-7 0-12 6-12 13s5 12 12 12h40c1 41 8 80 21 118h-33c-7 0-13 6-13 13s6 12 13 12h43c22 55 56 105 101 146 4 3 8 6 13 9-63 45-140 73-224 73zm-1116-106c-24 0-46-10-62-26l-120-120c-17-17-26-39-26-62 0-24 9-46 26-62 16-17 38-26 62-26s46 9 62 26l120 119c17 17 26 39 26 63 0 23-9 45-26 62-17 16-39 26-62 26zm188-539c16-18 31-38 46-59l155 156c-21 15-40 30-59 46zm61-80c45-66 90-147 149-269 1-2 2-4 4-6l554-554c38-38 88-59 142-59s104 21 142 59c78 78 78 205 0 283l-554 555c-2 1-4 3-7 4-121 58-203 104-269 149z" fill="#fff"/></g></svg>