<svg clip-rule="evenodd" fill-rule="evenodd" height="2.667in" image-rendering="optimizeQuality" shape-rendering="geometricPrecision" text-rendering="geometricPrecision" viewBox="0 0 2667 2667" width="2.667in" xmlns="http://www.w3.org/2000/svg"><g id="Layer_x0020_1"><circle cx="1333" cy="1333" fill="#1d81ce" r="1333"/><path d="m1994 2187h-327c-7 0-13-4-18-9-197-259-120-526-45-783 25-85 48-167 62-247h329c14 80 38 162 62 247 75 257 152 524-45 783-4 5-11 9-18 9zm-486 0h-327c-7 0-14-4-18-9l-4-5c163-73 277-236 277-426 0-197-122-365-295-434 15-56 29-111 38-165h330c14 80 37 162 62 247l3 9c-38 131-76 266-76 403 0 110 24 209 74 301-14 24-29 47-46 70-5 5-11 9-18 9zm-325-1064c5-34 8-68 8-101v-4h306v4c0 33 3 67 8 101zm8-131v-35c0-20-4-44-9-70h324c-5 26-9 50-9 70v35zm-14-130c-2-9-4-18-5-27-23-100-48-214 8-288 31-40 84-63 156-67h16c73 4 125 27 156 67 56 74 31 188 9 288-2 9-4 18-6 27zm-207 1325c-243 0-440-198-440-440s197-440 440-440c242 0 439 198 439 440s-197 440-439 440zm55-244c7 0 13-1 19-3 19-5 35-17 45-34 9-17 12-36 7-55-9-32-38-55-71-55-6 0-13 1-19 3-19 5-34 17-44 34s-13 37-7 56c8 31 37 54 70 54zm0-121c22 0 41 14 46 35 4 13 2 26-4 37-7 11-17 18-29 22-26 6-52-9-59-34-3-12-2-25 5-36 6-11 17-19 29-22 4-2 8-2 12-2zm86-125c6 0 13 0 19-2 19-5 35-17 44-34 10-17 13-37 8-56-9-32-38-54-71-54-6 0-13 1-19 3-39 10-62 50-52 89 9 32 38 54 71 54zm0-120c22 0 41 14 46 35 3 12 2 25-5 36-6 11-16 19-29 22-25 7-51-8-58-33-7-26 8-52 34-59 4-1 8-1 12-1zm-283 196c6 0 13-1 19-2 19-5 35-17 45-34 9-17 12-37 7-56-9-32-38-54-71-54-6 0-13 1-19 2-19 6-34 18-44 35-10 16-13 36-8 55 9 32 38 54 71 54zm0-121c22 0 41 15 46 36 4 12 2 25-5 36-6 11-16 19-29 22-25 7-51-8-58-34-3-12-2-25 5-36 6-11 16-19 29-22 4-1 8-2 12-2zm842-529c5-34 7-68 7-101v-4h307v4c0 33 3 67 7 101zm7-131v-35c0-20-3-44-8-70h323c-5 26-8 50-8 70v35zm-13-130c-2-9-4-18-6-27-22-100-47-214 9-288 30-40 83-63 155-67h16c73 4 126 27 157 67 56 74 30 188 8 288-2 9-3 18-5 27z" fill="#fff"/></g></svg>