<svg clip-rule="evenodd" fill-rule="evenodd" height="2.667in" image-rendering="optimizeQuality" shape-rendering="geometricPrecision" text-rendering="geometricPrecision" viewBox="0 0 2667 2667" width="2.667in" xmlns="http://www.w3.org/2000/svg"><g id="Layer_x0020_1"><circle cx="1333" cy="1333" fill="#378b4e" r="1333"/><path d="m2069 1829h-429c-13 0-23-10-23-23v-87l30-9h444v96c0 13-10 23-22 23zm-1083 69v-45c54-3 108-6 161-13v58zm774 0v-42h159v42zm404 185h-1459c-125 0-197-26-218-77-21-49 6-112 82-198 41 26 91 39 140 45-22 19-56 49-60 63 4 3 18 9 61 9h1454c12 0 23 10 23 22v113c0 12-11 23-23 23zm-1402-254c-138 0-235-57-254-148-22-105 68-218 230-288 29-12 61-28 95-46 30 34 59 68 86 104 83 108 158 234 200 366-93 9-200 12-357 12zm412-451c35 0 63-28 63-62s-28-62-63-62c-34 0-62 28-62 62s28 62 62 62zm0-99c21 0 37 17 37 37s-16 37-37 37c-20 0-36-17-36-37s16-37 36-37zm144-74c35 0 62-28 62-63 0-34-27-62-62-62-34 0-62 28-62 62 0 35 28 63 62 63zm0-99c21 0 37 16 37 36 0 21-16 37-37 37-20 0-36-16-36-37 0-20 16-36 36-36zm95-98c34 0 62-27 62-62 0-34-28-62-62-62-35 0-63 28-63 62 0 35 28 62 63 62zm0-99c20 0 36 17 36 37 0 21-16 37-36 37-21 0-37-16-37-37 0-20 16-37 37-37zm-557 426c185-105 405-294 453-614l676 142c2 57 7 108 14 155l-3 4c-39 48-74 101-103 156-82 157-118 329-99 505h-151c-236 75-353 113-499 131-42-137-118-266-204-378-27-35-55-69-84-101zm457-640c3-28 5-58 6-89 0-6 3-13 8-17 6-4 13-6 19-4l516 101c36 7 121 24 121 108 0 15 1 29 1 43zm691 358c9 56 21 108 32 162 27 124 55 252 55 445 0 13-10 23-22 23h-250c-18-172 18-340 98-493 25-48 54-94 87-137z" fill="#fff"/></g></svg>