<svg clip-rule="evenodd" fill-rule="evenodd" height="2.667in" image-rendering="optimizeQuality" shape-rendering="geometricPrecision" text-rendering="geometricPrecision" viewBox="0 0 2667 2667" width="2.667in" xmlns="http://www.w3.org/2000/svg"><g id="Layer_x0020_1"><circle cx="1333" cy="1333" fill="#00ab94" r="1333"/><path d="m658 1782c26-25 50-48 72-69l146 146c-21 22-44 46-69 71-3-3-6-7-9-10l-129-129c-4-3-7-6-11-9zm1107 405c-114 0-224-48-301-132-8-9-8-23 0-31 31-34 68-62 108-84v71c0 7 6 12 13 12s13-5 13-12v-83c21-10 42-17 65-23v72c0 7 5 13 12 13s13-6 13-13v-78c21-4 43-6 65-7v74c0 7 5 13 12 13s13-6 13-13v-74c22 1 43 3 65 7v78c0 7 5 13 12 13s13-6 13-13v-72c22 6 44 13 65 23v83c0 7 5 12 12 12s13-5 13-12v-71c40 21 77 50 109 84 8 9 8 22 0 31-78 84-188 132-302 132zm-12-526c-22-1-44-3-65-7v-78c0-7-6-13-13-13s-12 6-12 13v72c-23-6-44-14-65-23v-83c0-7-6-13-13-13s-13 6-13 13v71c-40-22-77-50-108-84-8-9-8-22 0-31 77-84 187-132 301-132s224 48 302 132c8 9 8 22 0 31-32 34-69 62-109 84v-71c0-7-6-13-13-13s-12 6-12 13v83c-21 9-43 17-65 23v-72c0-7-6-13-13-13s-12 6-12 13v78c-22 4-43 6-65 7v-75c0-7-6-12-13-12s-12 5-12 12zm-318 359c-50-68-80-153-80-244s30-175 80-243c2 5 5 10 9 14 37 40 81 72 128 96v36c0 7 6 13 13 13s13-6 13-13v-25c21 9 42 16 65 21v38c0 7 5 13 12 13s13-6 13-13v-32c21 4 43 6 65 6v36c0 7 5 13 12 13s13-6 13-13v-36c22 0 43-3 65-6v32c0 7 5 13 12 13s13-6 13-13v-38c22-5 44-12 65-21v25c0 7 5 13 12 13s13-6 13-13v-36c48-24 92-56 128-96 4-4 7-9 9-14 51 68 81 152 81 243s-30 176-81 244c-2-5-5-10-9-14-36-40-80-72-128-96v-36c0-7-6-13-13-13s-12 6-12 13v25c-21-9-43-16-65-22v-37c0-7-6-13-13-13s-12 6-12 13v32c-22-4-43-6-65-7v-36c0-7-6-12-13-12s-12 5-12 12v36c-22 1-44 3-65 7v-32c0-7-6-13-13-13s-12 6-12 13v37c-23 6-44 13-65 22v-25c0-7-6-13-13-13s-13 6-13 13v36c-47 24-91 56-128 96-4 4-7 9-9 14zm-722 78c-25 0-48-10-66-28l-129-128c-17-18-27-41-27-66s10-48 27-66c18-18 41-27 66-27s48 9 66 27l129 129c36 36 36 95 0 131-18 18-41 28-66 28zm35-403c21-20 40-39 58-57l145 144c-18 18-37 38-58 59zm77-75c20-20 39-39 56-59l146 146c-19 18-38 37-58 57zm73-78c19-20 36-41 53-63l159 159c-22 17-43 34-64 52zm68-84c54-75 107-167 177-313 1-2 2-4 4-6l596-596c41-41 94-63 152-63 57 0 111 22 151 63 40 40 63 94 63 151s-23 111-63 151l-596 597c-2 2-4 3-7 4-145 70-237 122-312 177z" fill="#fff"/></g></svg>