<svg clip-rule="evenodd" fill-rule="evenodd" height="2.667in" image-rendering="optimizeQuality" shape-rendering="geometricPrecision" text-rendering="geometricPrecision" viewBox="0 0 2667 2667" width="2.667in" xmlns="http://www.w3.org/2000/svg"><g id="Layer_x0020_1"><circle cx="1333" cy="1333" fill="#7ed63f" r="1333"/><path d="m1794 1621h-973c22-37 35-79 37-122h1303c-51 67-175 122-367 122zm-244 132h-52c-10 0-19-6-22-15l-28-90h153l-29 90c-3 9-12 15-22 15zm224 0h-53c-10 0-18-6-21-15l-29-90h123 30l-29 90c-3 9-11 15-21 15zm-447 0h-52c-10 0-19-6-22-15l-28-90h152l-28 90c-3 9-12 15-22 15zm-318 0h-53c-10 0-18-6-21-15l-29-90h153l-29 90c-3 9-11 15-21 15zm-189 0h-53c-10 0-19-6-22-15l-28-90h10 143l-29 90c-3 9-11 15-21 15zm894-356c-6 0-11-2-16-6-9-9-9-24 0-33l180-179c9-9 23-9 32 0 9 8 9 23 0 32l-180 180c-4 4-10 6-16 6zm-155-56c-6 0-12-2-16-6-9-9-9-24 0-32l180-180c8-9 23-9 32 0 9 8 9 23 0 32l-180 180c-5 4-11 6-16 6zm-139-72c-6 0-12-3-16-7-9-9-9-23 0-32l180-180c9-9 23-9 32 0s9 23 0 32l-180 180c-4 4-10 7-16 7zm-127-85c-6 0-12-2-16-6-9-9-9-24 0-33l180-180c9-8 23-8 32 0 9 9 9 24 0 33l-180 180c-4 4-10 6-16 6zm-516 437h-50c-80 0-142-23-184-70-51-56-71-145-60-262 1-8 6-15 14-19 31-14 64-21 98-21 131 0 237 106 237 237 0 44-12 87-36 125-4 6-11 10-19 10zm81-148c-1-28-7-54-16-79h506c7 0 12-6 12-13s-5-13-12-13h-517c-15-30-36-57-61-79h369c7 0 13-6 13-13s-6-13-13-13h-403c-41-26-89-41-141-41-37 0-72 8-106 23 18-110 55-208 68-238 4-9 12-14 21-14h146c10 0 19 6 22 16 0 1 49 156 162 156 84 0 188-83 303-242 4-6 10-9 16-10 7 0 13 2 18 7 39 38 78 73 116 103l-103 104c-19 19-19 50 0 69 9 10 22 15 35 15s26-5 35-15l113-112c14 10 28 19 43 29l-99 98c-19 19-19 51 0 70 9 9 22 14 35 14s26-5 35-14l116-116c16 8 32 17 47 24l-94 95c-20 19-20 50 0 70 9 9 22 14 35 14s25-5 35-14l122-123c18 7 36 14 53 19l-90 90c-19 19-19 50 0 69 9 10 22 15 35 15s26-5 35-15l131-130c43 9 78 12 104 14 152 9 204 79 203 137-1 14-4 29-11 43z" fill="#fff"/></g></svg>