<svg clip-rule="evenodd" fill-rule="evenodd" height="2.667in" image-rendering="optimizeQuality" shape-rendering="geometricPrecision" text-rendering="geometricPrecision" viewBox="0 0 2667 2667" width="2.667in" xmlns="http://www.w3.org/2000/svg"><g id="Layer_x0020_1"><circle cx="1333" cy="1333" fill="#f44c71" r="1333"/><path d="m1902 2187h-1137c-7 0-14-4-18-9-5-6-6-13-4-20 8-32 16-64 22-96h1137c6 32 13 64 22 96 2 7 0 14-4 20-4 5-11 9-18 9zm-1133-151c68-400-25-835-26-840-2-9 1-18 9-23 195-137 190-345 184-565-1-34-2-70-2-105 0-13 11-23 23-23h181c13 0 23 10 23 23v341c0 95 77 172 172 172s173-77 173-172v-341c0-13 10-23 23-23h181c12 0 22 10 22 23 0 35-1 71-2 105-5 220-11 428 185 565 7 5 11 14 9 23-1 5-95 440-27 840z" fill="#fff"/></g></svg>