<svg clip-rule="evenodd" fill-rule="evenodd" height="2.667in" image-rendering="optimizeQuality" shape-rendering="geometricPrecision" text-rendering="geometricPrecision" viewBox="0 0 2667 2667" width="2.667in" xmlns="http://www.w3.org/2000/svg"><g id="Layer_x0020_1"><circle cx="1333" cy="1333" fill="#7ed63f" r="1333"/><path d="m1874 1803h-1222c-46 0-83-38-83-84v-61c0-13 10-23 22-23h616c7 2 14 4 20 6 60 18 119 33 180 43 63 11 125 16 188 19 85 4 170 4 255 4 35 0 72-4 108-13v25c0 46-37 84-84 84zm-19 216c-2 0-4-1-6-1-6-2-11-6-14-11l-35-61c-6-11-3-25 8-31l106-61c11-6 25-3 31 8l35 62c6 11 3 24-8 31l-106 61c-3 2-7 3-11 3zm-58-129-35-60h112c8 0 14-1 21-2l3 4zm53-209c-146 0-247-3-335-11 38-121 104-235 181-335 28-37 59-73 91-107 2-2 5-4 7-7 28 15 55 28 79 38 156 68 243 177 222 279-18 88-112 143-245 143zm-337-495c0-34-27-61-61-61-33 0-60 27-60 61 0 33 27 60 60 60 34 0 61-27 61-60zm-61-35c20 0 35 15 35 35 0 19-15 35-35 35-19 0-35-16-35-35 0-20 16-35 35-35zm-138-72c33 0 60-27 60-61 0-33-27-60-60-60-34 0-61 27-61 60 0 34 27 61 61 61zm0-95c19 0 35 15 35 34 0 20-16 35-35 35s-35-15-35-35c0-19 15-34 35-34zm-91-94c33 0 60-27 60-60 0-34-27-61-60-61s-61 27-61 61c0 33 28 60 61 60zm0-95c19 0 35 15 35 35 0 19-16 35-35 35s-35-16-35-35c0-20 16-35 35-35zm267 872c-144-17-257-53-489-127h-131c20-171-10-340-88-494-26-53-58-103-94-149-8-11-17-21-26-32 4-36 7-74 9-116l652-136c48 314 267 497 447 596-33 35-65 72-95 110-80 104-147 222-185 348zm-645-127h-254c-12 0-22-10-22-23 0-186 26-309 53-429 13-62 26-121 36-188 3 4 7 9 11 14 34 45 64 93 89 143 76 151 107 316 87 483zm-173-817c0-13 0-26 0-40 0-82 83-98 118-105l497-98c6-1 13 1 18 5 6 4 9 11 9 17 0 30 2 58 6 86zm-103 886v-42h427l31 10v32zm1011 578c-90 0-164-74-164-164s74-163 164-163 163 73 163 163-73 164-163 164zm0-94c38 0 69-32 69-70s-31-69-69-69-70 31-70 69 32 70 70 70zm0-114c24 0 44 20 44 44s-20 44-44 44-44-20-44-44 20-44 44-44zm-109-112-5-37h228l-6 37c-30-21-68-34-108-34s-78 13-109 34zm-580 320c-90 0-163-74-163-164s73-163 163-163 164 73 164 163-74 164-164 164zm0-94c39 0 70-32 70-70s-31-69-70-69c-38 0-69 31-69 69s31 70 69 70zm0-114c25 0 44 20 44 44s-19 44-44 44c-24 0-44-20-44-44s20-44 44-44zm-108-112-6-37h229l-6 37c-31-21-68-34-109-34-40 0-78 13-108 34z" fill="#fff"/></g></svg>