<svg clip-rule="evenodd" fill-rule="evenodd" height="2.667in" image-rendering="optimizeQuality" shape-rendering="geometricPrecision" text-rendering="geometricPrecision" viewBox="0 0 2667 2667" width="2.667in" xmlns="http://www.w3.org/2000/svg"><g id="Layer_x0020_1"><circle cx="1333" cy="1333" fill="#00ab94" r="1333"/><path d="m1902 2187h-1137c-7 0-14-4-18-9-5-6-6-13-4-20 8-32 16-64 22-96h1137c6 32 13 64 22 96 2 7 0 14-4 20-4 5-11 9-18 9zm-1133-151c29-170 29-347 19-494 279-22 480-136 531-402 53 275 265 387 560 403-10 147-10 323 18 493zm17-520c-14-185-43-317-43-320-2-9 1-18 9-23 230-161 249-393 249-637 0-10 7-19 16-22l115-33c7-2 14-1 20 4 5 4 9 11 9 18v341c0 86 63 157 145 170-7 342-214 479-520 502zm546-500h1c95 0 173-77 173-172v-341c0-7 3-14 9-18 6-5 13-6 20-4l114 33c10 3 17 12 17 22 0 244 19 476 249 637 7 5 11 14 9 23-1 3-29 136-43 322-321-17-541-151-549-502z" fill="#fff"/></g></svg>