<svg clip-rule="evenodd" fill-rule="evenodd" height="2.667in" image-rendering="optimizeQuality" shape-rendering="geometricPrecision" text-rendering="geometricPrecision" viewBox="0 0 2667 2667" width="2.667in" xmlns="http://www.w3.org/2000/svg"><g id="Layer_x0020_1"><circle cx="1333" cy="1333" fill="#f10" r="1333"/><path d="m1333 2187c-100 0-197-68-288-203h110 178 178 110c-91 135-188 203-288 203zm-304-228c-2-3-4-7-7-10-19-27-42-47-65-62v-837c3-10 6-20 8-30h178v352 236 351zm-98-85c-42-20-83-23-105-23-8 0-13 0-14 0-6 1-13-1-18-5-4-5-7-11-7-17v-621c0-10 7-19 17-22 56-15 99-43 127-85zm237-854h153v339h-153zm178 339v-339h153v339zm153 25v211h-165-1-165v-211h165zm0 237v338h-153v-338zm-178 0v338h-153v-338zm203-601h178c2 10 5 20 8 30v837c-23 15-46 35-66 62-2 3-4 7-6 10h-114v-351-236zm211 81c28 42 71 70 128 85 10 3 17 12 17 22v621c0 6-3 12-8 17-5 4-11 6-17 5-1 0-6 0-14 0-22 0-63 3-106 23zm-766-106c18-132-38-289-60-342-12-32-29-103-2-144 9-13 27-29 59-29h142c13 0 23 10 23 23 0 173 98 251 196 251 104 0 209-86 209-251 0-13 10-23 23-23h134c37 0 57 18 67 32 27 41 12 104 0 135-22 54-81 214-63 348h-186-177-1-178z" fill="#fff"/></g></svg>