<svg clip-rule="evenodd" fill-rule="evenodd" height="2.667in" image-rendering="optimizeQuality" shape-rendering="geometricPrecision" text-rendering="geometricPrecision" viewBox="0 0 2667 2667" width="2.667in" xmlns="http://www.w3.org/2000/svg"><g id="Layer_x0020_1"><circle cx="1333" cy="1333" fill="#f10" r="1333"/><path d="m1333 832c-162 0-289-78-289-176 0-99 127-176 289-176 163 0 290 77 290 176 0 98-127 176-290 176zm424 1355h-847c-7 0-13-3-17-8s-6-11-6-17c3-32 6-62 9-92h875c2 30 5 60 8 92 1 6-1 12-5 17-5 5-11 8-17 8zm-270-386c2 0 5-1 7-2 4-3 6-8 5-12l-22-163 113-118c4-3 5-8 3-13-1-4-5-8-10-8l-161-30-77-144c-3-4-7-7-12-7-4 0-9 3-11 7l-77 144-162 30c-4 0-8 4-10 8-1 5 0 10 3 13l114 118-22 163c-1 4 1 9 5 12 3 3 8 3 13 1l147-71 148 71c2 1 4 1 6 1zm-154-99c-2 0-3 0-5 1l-132 64 20-145c0-4-1-8-4-11l-101-106 144-26c4 0 7-3 9-6l69-129 70 129c2 3 5 6 9 6l144 26-102 106c-2 3-3 7-3 11l20 145-132-64c-2-1-4-1-6-1zm-435 343c49-549 25-814 6-923-12 28-26 61-40 92l-278-74 68-239c72-251 159-311 405-348-18 21-32 45-38 73-3 10-4 20-4 30s1 20 4 30c12 57 58 99 108 126 61 33 135 46 204 46 70 0 143-13 205-46 50-27 96-69 108-126 2-10 3-20 3-30s-1-20-3-30c-6-28-20-52-38-73 245 37 333 97 405 348l68 239-279 74c-14-31-28-64-39-92-19 109-43 374 5 923zm1190-881 23 78c1 6 0 12-3 18-3 5-8 9-13 10l-215 58c-10 3-20-1-25-10-11-16-26-46-42-80zm-1234 74c-16 34-31 64-42 81-5 8-15 12-25 9l-215-58c-6-1-11-5-14-10-3-6-4-12-2-18l23-78z" fill="#fff"/></g></svg>