<svg clip-rule="evenodd" fill-rule="evenodd" height="2.667in" image-rendering="optimizeQuality" shape-rendering="geometricPrecision" text-rendering="geometricPrecision" viewBox="0 0 2667 2667" width="2.667in" xmlns="http://www.w3.org/2000/svg"><g id="Layer_x0020_1"><circle cx="1333" cy="1333" fill="#00ab94" r="1333"/><path d="m601 1395c52-33 93-78 115-136l3-9-9-4c-26-12-55-20-84-21l-9-1-2 9c-12 50-21 101-30 152l-4 23zm879-69c-6 0-12-3-17-7-9-9-9-24 0-34l120-119c9-10 24-10 33 0 10 9 10 24 0 33l-119 120c-5 4-11 7-17 7zm-169-103c-6 0-12-2-17-7-9-9-9-24 0-33l120-120c9-9 24-9 33 0 10 9 10 24 0 33l-119 120c-5 5-11 7-17 7zm-171-107c-6 0-12-2-17-7-9-9-9-24 0-33l120-120c9-9 24-9 33 0s9 24 0 34l-119 119c-5 5-11 7-17 7zm669 365c-1 39 12 79 29 113l3 7 7-1c108-12 234-36 331-85l4-2 1-6c5-30 5-66-16-91s-57-31-88-30c-79 0-158-9-235-26l-8-2-3 7c-19 36-28 72-26 112 1 1 1 3 1 4zm-96-15-85 147h18c51-1 102-3 152-8l14-1-5-13c-13-30-22-62-24-95l-1-7zm-123-40-105 181 17 2c30 2 59 3 89 3l6 1 90-155zm-266 156 118-205-96-32-125 216 14 3c27 6 54 11 81 17zm144-197-117 203 15 2c18 4 36 7 54 10 10 1 20 2 30 4h6l109-187zm-245-80-132 229 14 3c27 5 54 11 81 16l8 2 126-218zm-193 45 46 156 122-210-89-29zm-87 190c-53-6-110-20-162-33-70-18-141-39-211-61l-4-1-4 3c-48 29-72 86-81 139-3 12 2 22 9 30 52 62 270 90 348 91 160 0 320 5 480 10 181 6 704 12 836-141l28-32-39 15c-86 35-183 54-275 65-85 10-172 15-257 14-64 0-132-3-195-13-65-11-129-24-193-38-50-10-100-21-151-30l-4-1h-1c-41-8-83-13-124-17zm-198-304c93 56 134 159 148 262l1 7 8 2c14 2 29 5 44 6 31 4 62 8 93 13l16 2-53-178c-1-5 0-10 3-13l91-94c3-4 9-5 13-4l112 37h1l121 40 2 1 120 39 2 1 120 40 2 1 121 39 2 1 70 23 1-13c3-29 10-58 22-85l5-11-12-3c-73-20-145-46-215-77l-67 67c-9 9-22 15-36 15s-27-6-36-15c-21-21-21-53 0-73l40-41c-27-14-55-29-81-44l-55 55c-10 9-23 15-37 15s-27-6-36-15c-20-20-20-53 0-73l37-37c-27-17-54-35-80-53l-56 56c-9 10-22 15-36 15s-27-5-37-15c-20-20-20-53 0-73l44-44c-26-19-52-38-77-58l-10-8-6 11c-39 70-115 183-208 179-65-4-114-63-143-115l-9-16-10 16c-26 46-45 114-58 166l-3 11 12 2c35 3 71 14 102 31l1 1c2 1 4 2 5 3h1zm-8 41c-23 59-66 104-119 138l-18 13 21 6c76 23 153 45 231 62l15 4-3-16c-13-79-45-160-111-212l-11-8z" fill="#fff"/></g></svg>