<svg clip-rule="evenodd" fill-rule="evenodd" height="2.667in" image-rendering="optimizeQuality" shape-rendering="geometricPrecision" text-rendering="geometricPrecision" viewBox="0 0 2667 2667" width="2.667in" xmlns="http://www.w3.org/2000/svg"><g id="Layer_x0020_1"><circle cx="1333" cy="1333" fill="#ff700d" r="1333"/><path d="m665 1251v-144c0-346 281-627 627-627h83c346 0 627 281 627 627v144 424 3 20c0 336-347 489-669 489-60 0-121-6-180-17-1 0-1 0-2 0-258-48-486-200-486-472zm-27 23h-47c-12 0-22-10-22-23v-133c0-13 10-23 22-23h47v12zm1437 0h-47v-167c0-4 0-8 0-12h47c13 0 23 10 23 23v133c0 13-10 23-23 23zm-946 845-22-141c-156-13-266-43-330-65 76 106 207 174 352 206zm-29-187-21-136c-169-15-292-50-368-78 2 49 13 92 30 132 35 16 155 64 359 82zm-5-181c4 0 8 0 11 1 127 10 279 8 458-15 2-1 4-1 7-1 117-15 245-40 385-77v-313c-102 96-363 140-623 140-259 0-520-44-623-140v324c74 28 201 66 385 81zm31 48 21 137c105 7 230 5 375-11l21-140c-105 13-200 18-287 18-46 0-89-1-130-4zm28 183 22 146c52 9 105 13 157 13 53 0 106-4 157-13l25-157c-90 10-172 14-247 14-40 0-78-1-114-3zm436-203-21 140c108-14 227-37 357-71 19-43 29-90 30-142-132 34-254 58-366 73zm-29 187-23 153c150-33 285-104 359-217-121 30-233 51-336 64zm-851-692v27h1246v-27zm547-266c1 0 3 0 5-1l71-35 72 35c4 2 9 1 13-1 3-3 5-8 5-12l-11-79 55-57c3-3 4-8 3-13-2-4-6-7-10-8l-78-14-37-70c-3-4-7-7-12-7-4 0-9 3-11 7l-37 70-78 14c-5 1-9 4-10 8-1 5 0 10 3 13l55 57-11 79c-1 4 1 9 5 12 2 1 5 2 8 2zm76-62c-2 0-3 0-5 1l-56 27 9-62c0-3-1-7-4-10l-42-44 60-11c4-1 7-4 9-7l29-54 29 54c2 3 6 6 9 7l61 11-43 44c-2 3-3 7-3 10l8 62-55-27c-2-1-4-1-6-1zm0 184c140 0 253-114 253-253s-113-253-253-253c-139 0-252 114-252 253s113 253 252 253zm0-480c126 0 228 102 228 227s-102 227-228 227c-125 0-227-102-227-227s102-227 227-227z" fill="#fff"/></g></svg>