<svg clip-rule="evenodd" fill-rule="evenodd" height="2.667in" image-rendering="optimizeQuality" shape-rendering="geometricPrecision" text-rendering="geometricPrecision" viewBox="0 0 2667 2667" width="2.667in" xmlns="http://www.w3.org/2000/svg"><g id="Layer_x0020_1"><circle cx="1333" cy="1333" fill="#378b4e" r="1333"/><path d="m1267 1283c31-13 75-20 131 4-16 30-26 64-28 105v8c-30-11-54-10-73-5l-1-4c-1-42-12-77-29-108zm-202 382c-126 0-281-97-369-230-2-3-4-7-4-12l-1-128c0-6 2-11 6-16 55-62 166-102 283-102 134 0 281 57 290 215 3 98-19 171-65 218-35 36-83 55-140 55zm2-110c16 0 31-2 45-9 46-25 49-102 47-148-3-88-121-112-191-112-45 0-116 10-149 43-11 11-18 25-17 40 0 74 115 141 176 166 27 11 60 20 89 20zm-98-243c53 0 162 16 165 87 1 32 0 106-34 124-10 6-22 7-33 7-26 0-55-8-79-18-49-21-161-84-161-143 0-9 4-16 10-22 28-28 94-35 132-35zm632 353c-56 0-105-19-139-55-46-47-68-120-65-217 9-159 155-216 290-216 116 0 227 40 283 102 3 5 5 10 5 16l-1 128c0 5-1 9-4 12-87 133-242 230-369 230zm-2-111c29 0 62-9 89-20 61-25 176-92 177-166 0-15-7-29-18-39-33-34-104-44-149-44-70 0-188 24-191 112-2 46 1 124 47 148 14 7 29 9 45 9zm230-208c6 6 10 13 10 22 0 59-112 122-161 143-24 10-53 18-79 18-11 0-23-1-33-7-34-18-35-92-34-124 3-71 112-87 166-87 37 0 103 7 131 35zm-1163 51c-17-19-37-40-57-61-55-57-112-116-128-162-1-4-1-8 0-13l34-141c2-10 11-17 21-18 10 0 19 6 22 15 17 49 71 175 131 232-4 4-8 8-12 13-8 9-13 21-12 33zm1312-148c60-57 113-183 130-232 4-9 13-15 23-15 10 1 19 8 21 18l34 141c1 5 1 9-1 13-16 46-72 105-127 162-21 21-40 42-57 61l1-102c0-12-4-24-12-33-4-5-8-9-12-13z" fill="#fff"/></g></svg>