<svg clip-rule="evenodd" fill-rule="evenodd" height="2.667in" image-rendering="optimizeQuality" shape-rendering="geometricPrecision" text-rendering="geometricPrecision" viewBox="0 0 2667 2667" width="2.667in" xmlns="http://www.w3.org/2000/svg"><g id="Layer_x0020_1"><circle cx="1333" cy="1333" fill="#f44c71" r="1333"/><path d="m671 2187c-5 0-11-3-16-7l-168-169c-5-4-7-10-7-16s2-12 7-16l70-70 201 201-70 70c-5 4-11 7-17 7zm1172-65c-114 0-208-93-208-208s94-208 208-208c115 0 209 93 209 208s-94 208-209 208zm-1268-231 419-419c-68-136-68-303-8-462l671 670c-77 29-156 44-234 44-83 0-160-17-228-51l-419 419zm421-907c11-26 23-51 37-76l726 726c-25 13-51 25-76 36zm50-99c35-60 80-117 132-170 150-149 342-235 528-235 138 0 257 47 346 135 104 104 150 253 130 419-19 164-101 325-231 454-52 53-109 97-170 133z" fill="#fff"/></g></svg>