<svg id="Capa_1" enable-background="new 0 0 510 510" height="512" viewBox="0 0 510 510" width="512" xmlns="http://www.w3.org/2000/svg"><g><path d="m495 255c0 132.55-107.45 240-240 240l-18.644-240 18.644-240c132.55 0 240 107.45 240 240z" fill="#d1d1d6"/><path d="m255 15v480c-132.55 0-240-107.45-240-240s107.45-240 240-240z" fill="#efefef"/><path d="m355 210v90h-100l-10.802-45 10.802-45z" fill="#2d2d2d"/><path d="m255 210v90h-152.13c-20.88 0-37.87-16.99-37.87-37.87v-14.26c0-20.88 16.99-37.87 37.87-37.87z" fill="#4b5055"/><path d="m385 210h30v90h-30z" fill="#2d2d2d"/><path d="m255 0c-68.11 0-132.15 26.52-180.31 74.69-48.17 48.16-74.69 112.2-74.69 180.31s26.52 132.15 74.69 180.31c48.16 48.17 112.2 74.69 180.31 74.69l12.01-16.475-12.01-13.525c-124.07 0-225-100.93-225-225 0-54.47 19.46-104.48 51.79-143.44l173.21 173.97 7.02-18.03-7.02-24.49-152.56-153.23c40.13-37.08 93.74-59.78 152.56-59.78l7.02-15z" fill="#ff4c04"/><path d="m510 255c0 68.11-26.52 132.15-74.69 180.31-48.16 48.17-112.2 74.69-180.31 74.69v-30c54.11 0 103.83-19.21 142.68-51.16l-142.68-143.31v-42.52l164.55 165.27c37.48-40.2 60.45-94.11 60.45-153.28 0-124.07-100.93-225-225-225v-30c68.11 0 132.15 26.52 180.31 74.69 48.17 48.16 74.69 112.2 74.69 180.31z" fill="#c8001c"/><path d="m377.5 120h-15c-4.136 0-7.5-3.364-7.5-7.5 0-20.678-16.822-37.5-37.5-37.5h-47.5v30h47.5c4.136 0 7.5 3.364 7.5 7.5 0 20.678 16.822 37.5 37.5 37.5h15c4.136 0 7.5 3.364 7.5 7.5v22.5h30v-22.5c0-20.678-16.822-37.5-37.5-37.5z" fill="#818181"/></g></svg>