<svg id="Capa_1" enable-background="new 0 0 512.75 512.75" height="512" viewBox="0 0 512.75 512.75" width="512" xmlns="http://www.w3.org/2000/svg"><g><path d="m188.416 321.47-176.95 174.66c-8.15-9.92-11.47-22.98-8.92-35.72l8.63-43.13 143.71-131.47 10.14 11.08z" fill="#bdeaf9"/><path d="m454.946 179.22.31.31-73.98 72.78c-16.11 15.99-37.79 24.74-60.11 24.74-5.25 0-10.54-.48-15.79-1.47l-.34-.06c-16.99-3.2-32.42-11.34-44.63-23.56-.26-.26-.52-.53-.78-.79l190.8-188.33 10.77 10.77-55.93 55.93 28.47 28.47 56.19-55.75 21.12 21.29z" fill="#95c7ee"/><path d="m450.426 62.84-190.8 188.33c-11.79-12.08-19.65-27.21-22.77-43.83-5.25-27.87 3.65-56.44 23.78-76.42l129.48-128.46 21.13 21.29-56.1 55.67 28.91 28.91 55.92-55.93z" fill="#bdeaf9"/><path d="m226.556 360.04-130.24 142.38-43.14 8.62c-2.82.57-5.66.84-8.47.84-11.3 0-22.23-4.44-30.39-12.6-1.01-1.01-1.96-2.06-2.85-3.15l176.95-174.66 27.07 28.45z" fill="#95c7ee"/><path d="m496.736 496.53-180.26-169.74 41.74-25.49 135.5 124.43c9.86 9.05 15.6 21.4 16.17 34.77.57 13.38-4.1 26.17-13.15 36.03z" fill="#ffd321"/><path d="m496.736 496.53c-9.05 9.86-21.41 15.6-34.78 16.17-.73.03-1.46.05-2.18.05-12.58 0-24.52-4.64-33.85-13.2l-156.71-143.91 47.26-28.85z" fill="#ffea98"/><path d="m358.216 301.3-31.91 34.75-324.37-305.41 28.14-30.64z" fill="#d1d1d6"/><path d="m326.306 336.05-65.02 70.81-100.05-91.86c-39.88-36.62-73.69-79.04-100.49-126.08s-46.05-97.75-57.21-150.72l-1.6-7.56z" fill="#efefef"/></g></svg>