<svg id="Capa_1" enable-background="new 0 0 511.27 511.27" height="512" viewBox="0 0 511.27 511.27" width="512" xmlns="http://www.w3.org/2000/svg"><path d="m285.635 54.82v79.73h-90v-134.55h35.18c30.23 0 54.82 24.59 54.82 54.82z" fill="#4b5055"/><path d="m195.635 0v134.55h-90v-79.73c0-30.23 24.59-54.82 54.82-54.82z" fill="#818181"/><path d="m345.245 191.58v135.182l-149.61 76.188v-298.4h60l13.188 25.163c9.577 0 16.814-20.737 16.814-20.737 34.595 11.515 59.608 44.199 59.608 82.604z" fill="#2d2d2d"/><path d="m195.635 104.55v298.4h-149.61v-211.37c0-38.405 25.013-71.089 59.608-82.604 0 0 5.62 10.846 15.197 10.846l14.805-15.272z" fill="#4b5055"/><path d="m350.985 510h-155.35v-150h136.812z" fill="#4b5055"/><path d="m195.635 360v150h-157.16c-20.86 0-37.84-16.98-37.84-37.84v-22.16l20.287-14c0-3.357-19.589-16.002-19.589-16.002 4.818-33.872 34.009-59.998 69.192-59.998z" fill="#818181"/><path d="m195.635 420h128.5v30h-128.5z" fill="#2d2d2d"/><path d="m285.635 108.983c-8.624-2.87-17.841-4.428-27.416-4.428h-2.584v236.465h30z" fill="#b8b8bd"/><path d="m135.635 104.555h-2.584c-9.575 0-18.792 1.559-27.416 4.428v251.017h30z" fill="#d1d1d6"/><path d="m371.241 320.606-21.213-21.213 114.29-114.29c10.522-10.522 16.317-24.512 16.317-39.393 0-30.719-24.992-55.711-55.71-55.711h-19.29c-49.626 0-90-40.374-90-90h30c0 33.084 26.916 60 60 60h19.29c47.261 0 85.71 38.45 85.71 85.71 0 22.895-8.916 44.418-25.104 60.606z" fill="#4b5055"/><g><path d="m373.625 487.99-23.28 23.28-95.49-95.49 56.18-56.18 26.96 26.97z" fill="#ff9000"/><path d="m311.035 359.6-56.18 56.18-95.43-95.42 23.36-23.37 100.86 35.22z" fill="#ffd321"/></g><path d="m377.095 293.55-68.3 68.29-31.67-31.9 68.12-68.24z" fill="#ffea98"/><path d="m.635 429.89v20.11h195v-30h-194.288c-.46 3.233-.712 6.532-.712 9.89z" fill="#4b5055"/><path d="m408.885 325.34-68.35 68.46-31.74-31.96 68.3-68.29z" fill="#ffd321"/></svg>