<svg id="Capa_1" enable-background="new 0 0 510 510" height="512" viewBox="0 0 510 510" width="512" xmlns="http://www.w3.org/2000/svg"><g><path d="m212.5 420h27.5v90h-27.5z" fill="#c8001c"/><path d="m150 420h62.5v90h-62.5z" fill="#ff4c04"/><path d="m420 0-30 430.09 30 79.91h60v-510z" fill="#c8001c"/><path d="m420 0v510h-90v-60h-117.5l-31.25-90 31.25-360z" fill="#ff4c04"/><path d="m212.5 0v450h-92.5v60h-90v-510z" fill="#ff9000"/><path d="m120 180v90c0 49.63 40.37 90 90 90h2.5l9.599-97.5-9.599-82.5z" fill="#ffea98"/><path d="m307.5 210h-2.5v-30h-92.5v180h2.5c33.24 0 62.33-18.12 77.92-45h14.58c28.95 0 52.5-23.55 52.5-52.5s-23.55-52.5-52.5-52.5zm0 75h-3.76c.83-4.88 1.26-9.89 1.26-15v-30h2.5c12.41 0 22.5 10.09 22.5 22.5s-10.09 22.5-22.5 22.5z" fill="#ffd321"/><path d="m137.5 120h30v30h-30z" fill="#ffea98"/><path d="m257.5 120h30v30h-30z" fill="#ffd321"/><path d="m227.5 90v60h-15l-6.85-27.168 6.85-32.832z" fill="#ffd321"/><path d="m197.5 90h15v60h-15z" fill="#ffea98"/></g></svg>