<svg id="Capa_1" enable-background="new 0 0 510 510" height="512" viewBox="0 0 510 510" width="512" xmlns="http://www.w3.org/2000/svg"><g><path d="m315 72.87v364.26l-8.07 4.21c-29.7 15.48-63.22 23.66-96.93 23.66l-8.099-205.178 8.099-214.822c33.71 0 67.23 8.18 96.93 23.66z" fill="#2d2d2d"/><path d="m210 45v420c-115.79 0-210-94.21-210-210s94.21-210 210-210z" fill="#4b5055"/><path d="m339.71 255c0 71.64-58.07 129.71-129.71 129.71l-5.723-129.71 5.723-129.71c71.64 0 129.71 58.07 129.71 129.71z" fill="#4b5055"/><path d="m210 125.29v259.42c-71.64 0-129.71-58.07-129.71-129.71s58.07-129.71 129.71-129.71z" fill="#818181"/><path d="m210 230 5.208-47.13-5.208-77.87c-82.71 0-150 67.29-150 150s67.29 150 150 150l5.208-50.129-5.208-74.871c-13.79 0-25-11.21-25-25s11.21-25 25-25zm-95.84-47.13 46.96 46.96c-1.66 3.22-3.02 6.62-4.02 10.17h-66.16c2.66-21.26 10.91-40.81 23.22-57.13zm-23.22 87.13h66.16c1.35 4.75 3.3 9.24 5.81 13.38l-46.56 46.56c-13.52-16.87-22.6-37.44-25.41-59.94zm104.06 37.9v66.16c-21.26-2.66-40.81-10.91-57.13-23.22l46.96-46.96c3.22 1.66 6.62 3.02 10.17 4.02zm-13.38-99.99-46.56-46.56c16.87-13.52 37.44-22.6 59.94-25.41v66.16c-4.75 1.35-9.24 3.3-13.38 5.81z" fill="#d1d1d6"/><path d="m257.09 283.38c2.51-4.14 4.46-8.63 5.81-13.38h37.1v-30h-37.1c-1-3.55-2.36-6.95-4.02-10.17l55.42-55.41-16.37-16.37 12.84-14.16c-27.63-25.08-63.42-38.89-100.77-38.89v125c13.79 0 25 11.21 25 25s-11.21 25-25 25v125c36.97 0 72.48-13.57 100-38.2l-10.35-11.57 14.65-14.65zm-32.09-81.28v-66.16c21.93 2.75 42.65 11.49 59.98 25.37l-46.6 46.6c-4.14-2.51-8.63-4.46-13.38-5.81zm0 171.96v-66.16c3.55-1 6.95-2.36 10.17-4.02l46.99 47c-16.73 12.6-36.42 20.57-57.16 23.18z" fill="#b8b8bd"/><path d="m499.881 87.307 10.119 14.603v55.32l-3.228 21.324 3.228 15.026v55.32l-4.653 20.664 4.653 15.686v55.31l-5.604 21.202 5.604 15.148v51.15c0 36.91-30.03 66.94-66.94 66.94h-28.06l-15-4.683v-471.208l15-4.109h28.06c31.689 0 58.306 22.135 65.203 51.755 0 0-8.382 15.331-8.382 20.552z" fill="#2d2d2d"/><path d="m400 20.891v469.426l-15 4.683h-28.06c-36.91 0-66.94-30.03-66.94-66.94v-51.15l7.663-12.058-7.663-24.292v-55.31l12.653-8.795-12.653-27.555v-55.32l13.366-8.372-13.366-27.978v-55.32l11.228-13.652c0-5.221-10.627-16.622-9.49-21.503 6.896-29.62 33.513-51.755 65.202-51.755h28.06z" fill="#4b5055"/><path d="m415 166.91v55.32l95-65v36.35l-95 65v55.32l95-65v36.35l-95 65v55.31l95-65v36.35l-95 65v53.09h-15l-7.525-304.564 7.525-175.436h15v115.56l93.24-63.8c1.14 4.88 1.76 9.96 1.76 15.18v19.97z" fill="#4b5055"/><path d="m400 15v480h-15v-53.09l-95-65v-36.35l95 65v-55.31l-95-65v-36.35l95 65v-55.32l-95-65v-36.35l95 65v-55.32l-95-65v-19.97c0-5.22.62-10.3 1.76-15.18l93.24 63.8v-115.56z" fill="#818181"/></g></svg>