<svg id="Capa_1" enable-background="new 0 0 510 510" height="512" viewBox="0 0 510 510" width="512" xmlns="http://www.w3.org/2000/svg"><g><path d="m267.5 15v75h-45l-3.965-33.964 3.965-41.036z" fill="#2d2d2d"/><path d="m177.5 15h45v75h-45z" fill="#4b5055"/><path d="m297.5 0v30h-75l-7.53-15.881 7.53-14.119z" fill="#00959a"/><path d="m147.5 0h75v30h-75z" fill="#00ccb2"/><path d="m195.87 75c-26.18 0-49.94 16.47-59.13 40.98l-34.24 91.3v302.72h120l10.292-223.564-10.292-211.436z" fill="#00ccb2"/><path d="m389.37 215.34-83.33-140.34h-83.54v435h185v-228.6c0-23.23-6.27-46.08-18.13-66.06zm-58.07 39.53c-5.13 6.4-12.88 10.13-21.08 10.13h-37.39c-5.32 0-9.64-4.31-9.64-9.63v-110.74c0-5.32 4.32-9.63 9.64-9.63 1.67 0 3.27.43 4.68 1.22 1.41.78 2.63 1.92 3.51 3.34l52.15 84.25c6.01 9.71 5.26 22.15-1.87 31.06z" fill="#00959a"/><path d="m252.49 389.99 29.47 17.02-15.01 25.98-29.45-17.01v34.02h-15l-10.253-60 10.253-60h15v34l29.45-17.01 15.01 25.98z" fill="#ffd321"/><path d="m222.5 330v120h-15v-34.02l-29.45 17.01-15.01-25.98 29.47-17.02-29.47-17.02 15.01-25.98 29.45 17.01v-34z" fill="#ffea98"/></g></svg>