<svg id="Capa_1" enable-background="new 0 0 510 510" height="512" viewBox="0 0 510 510" width="512" xmlns="http://www.w3.org/2000/svg"><g><path d="m442.5 65h40v30h-40z" fill="#4b5055"/><path d="m282.5 450h-50v-30h50c41.355 0 75-33.645 75-75v-27.721c0-20.033-7.802-38.867-21.967-53.033l-41.894-41.894c-16.856-16.856-26.14-39.268-26.14-63.106 0-49.21 40.036-89.246 89.246-89.246h15.755v30h-15.754c-32.668 0-59.246 26.578-59.246 59.246 0 15.825 6.163 30.703 17.353 41.894l41.894 41.894c19.832 19.833 30.754 46.2 30.754 74.246v27.72c-.001 57.897-47.104 105-105.001 105z" fill="#4b5055"/><path d="m391.693 35c-18.854 0-34.193 15.339-34.193 34.193v21.614c0 18.854 15.339 34.193 34.193 34.193h60.807v-90z" fill="#00959a"/><path d="m297.5 179.76v292.19c0 20.98-17.07 38.05-38.05 38.05h-96.95l-13.827-152.5 13.827-132.5h52.91c34.55 0 64.88-18.05 82.09-45.24z" fill="#00959a"/><path d="m162.5 225v285h-96.95c-20.98 0-38.05-17.07-38.05-38.05v-292.19c17.21 27.19 47.54 45.24 82.09 45.24z" fill="#00ccb2"/><path d="m297.5 38.05v141.71c-17.21 27.19-47.54 45.24-82.09 45.24h-52.91l-13.827-115.507 13.827-109.493h96.95c20.98 0 38.05 17.07 38.05 38.05z" fill="#00ccb2"/><path d="m162.5 0v225h-52.91c-34.55 0-64.88-18.05-82.09-45.24v-141.71c0-20.98 17.07-38.05 38.05-38.05z" fill="#4ef8da"/><path d="m237.5 60v90h-75l-8.124-45 8.124-45z" fill="#2d2d2d"/><path d="m87.5 60h75v90h-75z" fill="#4b5055"/><path d="m204.93 385.46-42.43 42.43v-84.86z" fill="#ffd321"/><path d="m120.07 427.89 42.43-42.43v42.43l-21.21 21.21z" fill="#ffea98"/><path d="m204.93 300.61-42.43 42.42-5.272-21.307 5.272-21.123 21.21-21.21z" fill="#ffd321"/><path d="m162.5 300.6v84.86l-42.43-42.43z" fill="#ffea98"/></g></svg>