<svg id="Capa_1" enable-background="new 0 0 510 510" height="512" viewBox="0 0 510 510" width="512" xmlns="http://www.w3.org/2000/svg"><g><path d="m360 22.5h90v75h-90z" fill="#4b5055"/><path d="m330 7.5h150v30h-150z" fill="#d1d1d6"/><path d="m480 142.5v300h-225l-30.406-159.629 30.406-140.371z" fill="#00959a"/><path d="m30 142.5h225v300h-225z" fill="#00ccb2"/><path d="m60 22.5h90v75h-90z" fill="#818181"/><path d="m330 262.5h90v30h-90z" fill="#2d2d2d"/><path d="m150 232.5h-30v30h-30v30h30v30h30v-30h30v-30h-30z" fill="#4b5055"/><path d="m297.43 213.86-42.43 42.43-7.594-20.468 7.594-21.962 21.21-21.21z" fill="#ffd321"/><path d="m297.43 298.71-42.43 42.43-7.594-18.64 7.594-23.79-4.03-21.21 4.03-21.21z" fill="#ffd321"/><path d="m255 213.86v84.85l-42.43-42.42z" fill="#ffea98"/><path d="m212.57 341.14 42.43-42.43v42.43l-21.21 21.21z" fill="#ffea98"/><path d="m510 427.5v75h-255l-15-37.5 15-37.5z" fill="#00ccb2"/><path d="m0 427.5h255v75h-255z" fill="#4ef8da"/><path d="m510 82.5v75h-255l-14.685-37.5 14.685-37.5z" fill="#00ccb2"/><path d="m0 82.5h255v75h-255z" fill="#4ef8da"/><path d="m30 7.5h150v30h-150z" fill="#efefef"/></g></svg>