<svg id="Capa_1" enable-background="new 0 0 510 510" height="512" viewBox="0 0 510 510" width="512" xmlns="http://www.w3.org/2000/svg"><g><path d="m510 149.38v211.24l-149.38 149.38h-105.62l-10-486.97 10-23.03h105.62z" fill="#c8001c"/><path d="m255 0v510h-105.62l-149.38-149.38v-211.24l149.38-149.38z" fill="#ff4c04"/><path d="m465 168.02v173.96l-105 105-105 8.02-13.653-215 13.653-195h86.98z" fill="#d1d1d6"/><path d="m255 45v410l-105-8.02-105-105v-173.96l123.02-123.02z" fill="#efefef"/><path d="m360 331.94v115.04l-18.02 18.02h-86.98l-13.653-110.485 13.653-122.455h35.67l40.31 35.56c18.44 16.28 29.02 39.72 29.02 64.32z" fill="#2d2d2d"/><path d="m255 232.06v232.94h-86.98l-18.02-18.02v-115.04c0-24.6 10.58-48.04 29.02-64.32l40.31-35.56z" fill="#4b5055"/><path d="m330 195c0 41.35-33.64 75-75 75l-10-75 10-75c41.36 0 75 33.65 75 75z" fill="#4b5055"/><path d="m255 120v150c-41.35 0-75-33.65-75-75s33.65-75 75-75z" fill="#818181"/></g></svg>