<svg id="Capa_1" enable-background="new 0 0 510 510" height="512" viewBox="0 0 510 510" width="512" xmlns="http://www.w3.org/2000/svg"><g><path d="m473.953 248.953-16.113-12.891c-14.515-11.612-22.84-28.932-22.84-47.52v-23.542h-30v23.542c0 27.751 12.429 53.61 34.099 70.946l16.113 12.891c15.753 12.603 24.788 31.4 24.788 51.574 0 36.419-29.628 66.047-66.047 66.047h-63.953v30h63.953c52.96 0 96.047-43.086 96.047-96.047 0-29.337-13.139-56.673-36.047-75z" fill="#424edd"/><path d="m390 315c0 107.52-87.48 195-195 195l-15-195 15-195c107.52 0 195 87.48 195 195z" fill="#2d2d2d"/><path d="m195 120v390c-107.52 0-195-87.48-195-195s87.48-195 195-195z" fill="#4b5055"/><path d="m315 315c0 66.27-53.73 120-120 120l-7.832-120 7.832-120c66.27 0 120 53.73 120 120z" fill="#4b5055"/><path d="m195 195v240c-66.27 0-120-53.73-120-120s53.73-120 120-120z" fill="#818181"/><path d="m195 290 5.356-40.277-5.356-69.723c-74.44 0-135 60.56-135 135s60.56 135 135 135l7.851-60.198-7.851-49.802c-13.79 0-25-11.21-25-25s11.21-25 25-25zm-85.04-36.52 36.23 36.23c-1.7 3.25-3.07 6.7-4.09 10.29h-51.02c2.47-17.19 9.12-33.05 18.88-46.52zm-18.88 76.52h51.02c1.33 4.7 3.27 9.16 5.74 13.26l-35.9 35.9c-10.85-14.01-18.23-30.83-20.86-49.16zm88.92 37.9v51.02c-17.19-2.47-33.05-9.12-46.52-18.88l36.23-36.23c3.25 1.7 6.7 3.07 10.29 4.09zm-13.26-100.06-35.9-35.9c14.01-10.85 30.83-18.23 49.16-20.86v51.02c-4.7 1.33-9.16 3.27-13.26 5.74z" fill="#d1d1d6"/><path d="m195 180v110c13.79 0 25 11.21 25 25s-11.21 25-25 25v110c74.44 0 135-60.56 135-135s-60.56-135-135-135zm103.92 120h-51.02c-1.02-3.59-2.39-7.04-4.09-10.29l36.23-36.23c9.76 13.47 16.41 29.33 18.88 46.52zm-88.92-37.9v-51.02c18.33 2.63 35.15 10.01 49.16 20.86l-35.9 35.9c-4.1-2.47-8.56-4.41-13.26-5.74zm0 156.82v-51.02c3.59-1.02 7.04-2.39 10.29-4.09l36.23 36.23c-13.47 9.76-29.33 16.41-46.52 18.88zm68.06-39.76-35.9-35.9c2.47-4.1 4.41-8.56 5.74-13.26h51.02c-2.63 18.33-10.01 35.15-20.86 49.16z" fill="#b8b8bd"/><path d="m495 90c0 41.42-33.58 75-75 75l-11.099-55 11.099-95c41.42 0 75 33.58 75 75z" fill="#d1d1d6"/><path d="m420 15v150c-41.42 0-75-33.58-75-75s33.58-75 75-75z" fill="#efefef"/><path d="m407.835 47.5h74.33v30h-74.33z" fill="#c8001c" transform="matrix(.673 -.74 .74 .673 99.411 349.728)"/><path d="m420 30 6.693-15-6.693-15c-49.63 0-90 40.37-90 90s40.37 90 90 90l6.693-15-6.693-15c-33.08 0-60-26.92-60-60s26.92-60 60-60z" fill="#4894ff"/><path d="m510 90c0 49.63-40.37 90-90 90v-30c33.08 0 60-26.92 60-60s-26.92-60-60-60v-30c49.63 0 90 40.37 90 90z" fill="#424edd"/></g></svg>