<svg id="Capa_1" enable-background="new 0 0 510 510" height="512" viewBox="0 0 510 510" width="512" xmlns="http://www.w3.org/2000/svg"><g><path d="m270 170h60v30h-60z" fill="#2d2d2d"/><path d="m258.73 154.96h-116.23v-59.96h82.5z" fill="#95c7ee"/><path d="m142.5 95v59.96h-72.31l27.26-59.96z" fill="#bdeaf9"/><path d="m142.5 110v-30h-54.71l-27.28 60h-.51l-60 25v85h142.5v-110.04h-49.02l13.62-29.96z" fill="#ff4c04"/><path d="m285 250h-142.5v-110.04h90.58l-16.85-29.96h-73.73v-30h91.27l33.75 60h.01l16.87 30z" fill="#c8001c"/><path d="m185 324.04v35.96c0 26.08-18.14 47.91-42.5 53.57v-89.53z" fill="#4b5055"/><path d="m142.5 324.04v89.53c-4.01.94-8.2 1.43-12.5 1.43-30.38 0-55-24.62-55-55v-35.96z" fill="#818181"/><path d="m142.5 339.04v-30h-82.5v50.96c0 38.6 31.4 70 70 70 4.26 0 8.44-.38 12.5-1.12v-30.88c-3.93 1.3-8.14 2-12.5 2-22.06 0-40-17.94-40-40v-20.96z" fill="#4b5055"/><path d="m200 309.04v50.96c0 34.34-24.85 62.97-57.5 68.88v-30.88c15.96-5.26 27.5-20.3 27.5-38v-20.96h-27.5v-30z" fill="#2d2d2d"/><path d="m440 360c0 30.376-24.624 55-55 55s-55-24.624-55-55v-29.307h110z" fill="#4b5055"/><path d="m385 430c-38.598 0-70-31.402-70-70v-44.307h140v44.307c0 38.598-31.402 70-70 70zm-40-84.307v14.307c0 22.056 17.944 40 40 40s40-17.944 40-40v-14.307z" fill="#2d2d2d"/><circle cx="52.5" cy="247.5" fill="#818181" r="37.5"/><path d="m52.5 300c-28.949 0-52.5-23.552-52.5-52.5s23.551-52.5 52.5-52.5 52.5 23.552 52.5 52.5-23.551 52.5-52.5 52.5zm0-75c-12.407 0-22.5 10.094-22.5 22.5s10.093 22.5 22.5 22.5 22.5-10.094 22.5-22.5-10.093-22.5-22.5-22.5z" fill="#4b5055"/><circle cx="232.5" cy="252.5" fill="#4b5055" r="37.5"/><path d="m232.5 305c-28.949 0-52.5-23.552-52.5-52.5s23.551-52.5 52.5-52.5 52.5 23.552 52.5 52.5-23.551 52.5-52.5 52.5zm0-75c-12.407 0-22.5 10.094-22.5 22.5s10.093 22.5 22.5 22.5 22.5-10.094 22.5-22.5-10.093-22.5-22.5-22.5z" fill="#2d2d2d"/><path d="m345 275v80.49l-30 9.51h-172.5l-15-49.307 15-40.693z" fill="#b8b8bd"/><path d="m0 275h142.5v90h-142.5z" fill="#d1d1d6"/><path d="m330 230v-90h86.321c20.258 0 38.391 12.566 45.504 31.535l26.558 50.807c1.416 2.708 2.355 4.78 3.324 7.658z" fill="#95c7ee"/><path d="m510 245.743-.137-.688c-.393-6.828-1.725-13.548-4.002-20.028l-.021-.048c-1.303-3.829-2.61-6.613-4.164-9.584l-26.16-50.047c-9.5-24.175-33.163-40.347-59.196-40.347h-101.32v90 30 120h195v-115.718c0-1.183-.036-2.363-.093-3.541zm-165-90.743h71.321c13.927 0 26.57 8.762 31.46 21.802l.324.863 19.515 37.334-122.62.001z" fill="#ffd321"/><path d="m450 275h60v30h-60z" fill="#ff9000"/></g></svg>