<svg id="Capa_1" enable-background="new 0 0 507.21 507.21" height="512" viewBox="0 0 507.21 507.21" width="512" xmlns="http://www.w3.org/2000/svg"><g><path d="m488.605 232.45c0 76.79-62.47 139.26-139.26 139.26l-5.74-193.515 5.74-178.195 10.61 10.6c5.25 5.26 128.65 129.71 128.65 221.85z" fill="#2d2d2d"/><path d="m349.345 0v371.71h-9.83l-100.55-230.95 3.78-6.55c37.36-64.66 93.62-121.23 95.99-123.61z" fill="#4b5055"/><path d="m363.605 334.71c0 95.12-77.38 172.5-172.5 172.5l-16.738-245.5 16.738-215.96 10.61 10.6c6.61 6.61 161.89 163.22 161.89 278.36z" fill="#00959a"/><path d="m191.105 45.75v461.46c-95.12 0-172.5-77.38-172.5-172.5 0-115.14 155.28-271.75 161.89-278.36z" fill="#00ccb2"/><path d="m251.105 261.71h-30c0-13.79-11.21-25-25-25h-5l-6.045-26.521 6.045-33.479h15v30.93c25.57 4.72 45 27.16 45 54.07z" fill="#2d2d2d"/><path d="m251.105 338.37c0 25.53-19.9 46.49-45 48.21v30.13h-15l-8.896-26.877 8.896-33.123h11.66c10.11 0 18.34-8.23 18.34-18.34 0-7.23-4.27-13.81-10.89-16.75l-19.11-8.49-6.045-20.248 6.045-12.592 31.29 13.91c17.44 7.75 28.71 25.09 28.71 44.17z" fill="#2d2d2d"/><g fill="#4b5055"><path d="m161.105 255.05c0 7.23 4.27 13.81 10.89 16.75l19.11 8.49v32.84l-31.29-13.91c-17.44-7.75-28.71-25.09-28.71-44.17 0-25.53 19.9-46.49 45-48.21v-30.13h15v60h-11.66c-10.11 0-18.34 8.23-18.34 18.34z"/><path d="m181.105 356.71h10v60h-15v-30.25c-25.23-2.52-45-23.87-45-49.75h30c0 11.03 8.97 20 20 20z"/></g></g></svg>