<svg id="Capa_1" enable-background="new 0 0 510 510" height="512" viewBox="0 0 510 510" width="512" xmlns="http://www.w3.org/2000/svg"><g><path d="m149.799 315h-88.052c4.188-15.763 14.907-29.157 30.008-36.709l29.252-14.625c17.759-8.88 28.791-26.729 28.791-46.584 0-28.718-23.364-52.082-52.082-52.082h-15.835c-28.718 0-52.082 23.364-52.082 52.082v7.918h30v-7.918c0-12.176 9.906-22.082 22.082-22.082h15.836c12.176 0 22.082 9.906 22.082 22.082 0 8.418-4.677 15.986-12.207 19.751l-29.253 14.626c-29.941 14.971-48.54 45.066-48.54 78.541v15h120z" fill="#00ccb2"/><path d="m254.799 165h30v180h-30z" fill="#00959a"/><path d="m254.799 240v30h-20.67c-29.96 0-54.33-24.37-54.33-54.33v-50.67h30v50.67c0 13.42 10.91 24.33 24.33 24.33z" fill="#00ccb2"/><path d="m424.116 344.474 56.085-179.474h-115.402v30h74.597l-43.915 140.526z" fill="#00959a"/><path d="m314.799 240h45v30h-45z" fill="#00959a"/><path d="m176.388 28.348h30v40.001h-30z" fill="#4b5055" transform="matrix(.966 -.259 .259 .966 -5.992 51.18)"/><path d="m117.299 52.823h30v40.001h-30z" fill="#4b5055" transform="matrix(.866 -.5 .5 .866 -18.687 75.905)"/><path d="m66.558 91.759h30v40h-30z" fill="#4b5055" transform="matrix(.707 -.707 .707 .707 -55.138 90.403)"/><path d="m298.209 33.348h40.001v30h-40.001z" fill="#2d2d2d" transform="matrix(.259 -.966 .966 .259 189.158 343.205)"/><path d="m357.298 57.824h40.001v30h-40.001z" fill="#2d2d2d" transform="matrix(.5 -.866 .866 .5 125.581 363.161)"/><path d="m408.04 96.759h40v30h-40z" fill="#2d2d2d" transform="matrix(.707 -.707 .707 .707 46.344 335.403)"/><path d="m254.799 450h15v60h-15z" fill="#2d2d2d"/><g fill="#4b5055"><path d="m239.799 450h15v60h-15z"/><path d="m171.388 446.652h40.001v30h-40.001z" transform="matrix(.259 -.966 .966 .259 -304.067 527.048)"/><path d="m112.298 422.176h40.001v30h-40.001z" transform="matrix(.5 -.866 .866 .5 -312.456 333.16)"/><path d="m61.557 383.241h40v30h-40z" transform="matrix(.707 -.707 .707 .707 -257.711 174.312)"/></g><path d="m303.209 441.652h30v40.001h-30z" fill="#2d2d2d" transform="matrix(.966 -.259 .259 .966 -108.638 98.085)"/><path d="m362.299 417.176h30v40.001h-30z" fill="#2d2d2d" transform="matrix(.866 -.5 .5 .866 -168.038 247.216)"/><path d="m413.04 378.241h30v40h-30z" fill="#2d2d2d" transform="matrix(.707 -.707 .707 .707 -156.229 419.312)"/><path d="m254.799 0h15v60h-15z" fill="#2d2d2d"/><path d="m239.799 0h15v60h-15z" fill="#4b5055"/></g></svg>