<svg id="Capa_1" enable-background="new 0 0 510 510" height="512" viewBox="0 0 510 510" width="512" xmlns="http://www.w3.org/2000/svg"><g><path d="m435 70.77v368.46c0 30.8-24.97 55.77-55.77 55.77h-124.23l-10.921-296.842 10.921-183.158h124.23c30.8 0 55.77 24.97 55.77 55.77z" fill="#424edd"/><path d="m255 15v480h-124.23c-30.8 0-55.77-24.97-55.77-55.77v-368.46c0-30.8 24.97-55.77 55.77-55.77z" fill="#4894ff"/><path d="m255 90 9.439-17.069-9.439-12.931h-75v180h-30v30h105l9.439-15-9.439-15h-45v-90h45l9.439-15.762-9.439-14.238h-45v-30z" fill="#efefef"/><path d="m330 60h-75v30h45v30h-45v30h45v90h-45v30h105v-30h-30v-30h19.17c19.76 0 35.83-16.07 35.83-35.83v-77.2zm25 114.17c0 3.21-2.62 5.83-5.83 5.83h-19.17v-83.64l25 16.67z" fill="#d1d1d6"/><path d="m130.77 30h124.23l9.439-15-9.439-15h-124.23c-39.02 0-70.77 31.75-70.77 70.77v368.46c0 39.02 31.75 70.77 70.77 70.77h124.23l9.439-15-9.439-15h-124.23c-22.48 0-40.77-18.29-40.77-40.77v-109.23h165l9.439-14.455-9.439-15.545h-165v-229.23c0-22.48 18.29-40.77 40.77-40.77z" fill="#efefef"/><path d="m450 70.77v368.46c0 39.02-31.75 70.77-70.77 70.77h-124.23v-30h124.23c22.48 0 40.77-18.29 40.77-40.77v-109.23h-165v-30h165v-229.23c0-22.48-18.29-40.77-40.77-40.77h-124.23v-30h124.23c39.02 0 70.77 31.75 70.77 70.77z" fill="#d1d1d6"/><path d="m150 390h20v60h30v-90h-50z" fill="#efefef"/><path d="m225 405c0 19.55 12.54 36.24 30 42.42v-67.955-16.885c-17.46 6.18-30 22.87-30 42.42z" fill="#efefef"/><g fill="#d1d1d6"><path d="m315 405c0 24.81-20.19 45-45 45-5.26 0-10.31-.91-15-2.58v-42.42c0 8.27 6.73 15 15 15s15-6.73 15-15-6.73-15-15-15-15 6.73-15 15v-42.42c4.69-1.67 9.74-2.58 15-2.58 24.81 0 45 20.19 45 45z"/><path d="m345 420h30v30h-30z"/></g></g></svg>