<svg id="Capa_1" enable-background="new 0 0 510 510" height="512" viewBox="0 0 510 510" width="512" xmlns="http://www.w3.org/2000/svg"><g><path d="m285 0v135h-15l-9.531-78.964 9.531-56.036z" fill="#2d2d2d"/><path d="m255 0h15v135h-15z" fill="#4b5055"/><path d="m435 239.93v30.07h-100v-21.64c0-12.88-10.48-23.36-23.36-23.36h-41.64l-15-45.356 15-49.644h55.07c60.62 0 109.93 49.31 109.93 109.93z" fill="#b8b8bd"/><path d="m110 130h160v95h-160z" fill="#d1d1d6"/><path d="m460 435.74c0 40.95-33.31 74.26-74.26 74.26l-17.73-91.683 17.73-104.527 10.61 10.6c6.51 6.52 63.65 64.99 63.65 111.35z" fill="#424edd"/><path d="m385.74 313.79v196.21c-40.95 0-74.26-33.31-74.26-74.26 0-46.36 57.14-104.83 63.65-111.35z" fill="#4894ff"/><path d="m320 255h130v30h-130z" fill="#d1d1d6"/><path d="m50 105h90v149.287h-90z" fill="#efefef"/><path d="m390 56.04c0 15.49-7.1 29.74-19.47 39.07-8.64 6.52-18.88 9.9-29.34 9.9-4.52 0-9.08-.63-13.58-1.91l-57.61-16.46-9.531-30.604 9.531-30.596 57.61-16.46c14.91-4.26 30.55-1.35 42.92 7.98s19.47 23.58 19.47 39.08z" fill="#b8b8bd"/><path d="m270 25.44v61.2l-57.61 16.46c-4.5 1.28-9.06 1.91-13.58 1.91-10.47 0-20.7-3.38-29.34-9.9-12.37-9.33-19.47-23.58-19.47-39.07 0-15.5 7.1-29.75 19.47-39.08 12.38-9.33 28.02-12.24 42.92-7.98z" fill="#d1d1d6"/></g></svg>