<svg id="Capa_1" enable-background="new 0 0 507.6 507.6" height="512" viewBox="0 0 507.6 507.6" width="512" xmlns="http://www.w3.org/2000/svg"><g><path d="m366.238 252.6-22.725 207.646c0 24.813 42.912 47.354 67.725 47.354s45-20.187 45-45v-210z" fill="#818181"/><g><path d="m411.242 507.6h-202.45v-507.2l35.61 20 35.61-20 36.56 20.53 49.67-20.92v462.59c0 24.81 20.18 45 45 45z" fill="#d1d1d6"/><g fill="#efefef"><path d="m208.792.4v507.2h-101.67c-30.75 0-55.76-25.98-55.76-57.92v-449.68l49.66 20.93 36.55-20.53 35.61 20z"/><path d="m411.238 507.6h.124l-.006-.003c-.04 0-.078.003-.118.003z"/></g></g><g><path d="m268.802 172.6h-30c0-13.79-11.22-25-25-25h-5.01l-7.497-33.8 7.497-26.2h15.01v30.93c25.57 4.72 45 27.16 45 54.07z" fill="#00959a"/><path d="m268.802 249.26c0 25.53-19.9 46.49-45 48.21v30.13h-15.01l-7.497-33.097 7.497-26.903h11.67c10.11 0 18.34-8.23 18.34-18.34 0-7.23-4.28-13.81-10.89-16.75l-19.12-8.5-7.497-17.903 7.497-14.927 31.3 13.91c17.44 7.75 28.71 25.09 28.71 44.17z" fill="#00959a"/><path d="m178.802 165.94c0 7.23 4.27 13.81 10.89 16.75l19.1 8.49v32.83l-31.29-13.9c-17.43-7.75-28.7-25.09-28.7-44.17 0-25.53 19.9-46.49 45-48.21v-30.13h14.99v60h-11.66c-10.11 0-18.33 8.23-18.33 18.34z" fill="#00ccb2"/><path d="m198.802 267.6h9.99v60h-14.99v-30.25c-25.23-2.52-45-23.87-45-49.75h30c0 11.03 8.97 20 20 20z" fill="#00ccb2"/><path d="m313.802 357.6v30h-105.01l-7.497-15 7.497-15z" fill="#00959a"/><path d="m103.802 357.6h104.99v30h-104.99z" fill="#00ccb2"/><path d="m283.802 417.6v30h-75.01l-11.061-15 11.061-15z" fill="#00959a"/><path d="m133.802 417.6h74.99v30h-74.99z" fill="#00ccb2"/></g></g></svg>