<svg id="Capa_1" enable-background="new 0 0 510 510" height="512" viewBox="0 0 510 510" width="512" xmlns="http://www.w3.org/2000/svg"><g><path d="m166.811 142.144-31.66-58.45c-17.941-33.119-52.484-53.694-90.151-53.694v-30c48.688 0 93.34 26.595 116.529 69.406l31.66 58.45z" fill="#4b5055"/><path d="m211.472 95.167-76.852 55.022 45.949 76.581 79.9-58.109z" fill="#ff9000"/><path d="m315 120v-30h-38.03l-40.91 61.37-71.06 50.77v307.86h150v-360h-41.97l20-30z" fill="#ff4c04"/><path d="m465 149.91v360.09h-150v-360h35.5c9.4 0 17.86-5.22 22.08-13.63l8.21-16.37h-65.79v-30h90.09c33.03 0 59.91 26.88 59.91 59.91z" fill="#c8001c"/><path d="m315 295v-30h-33.26l-35.53-39.97-22.42 19.94 36.21 40.73v88.6l-36.21 40.73 22.42 19.94 35.53-39.97h33.26v-30h-25v-70z" fill="#ff9000"/><path d="m370 374.3 36.21 40.73-22.42 19.94-35.53-39.97h-33.26v-30h25v-70h-25v-30h33.26l35.53-39.97 22.42 19.94-36.21 40.73z" fill="#ff4c04"/></g></svg>