<svg id="Capa_1" enable-background="new 0 0 510 510" height="512" viewBox="0 0 510 510" width="512" xmlns="http://www.w3.org/2000/svg"><g><path d="m210 110.17h15v51.83h-15z" fill="#ff9000"/><g fill="#ffd321"><path d="m195 110.17h15v51.83h-15z"/><path d="m54.779 327.001h-51.008v-150h51.009c20.36 0 38.681 11.228 47.926 29.333l21.065 36.665v18.005l-21.065 36.665c-9.245 18.105-27.566 29.332-47.927 29.332zm-21.008-30h21.009c9.08 0 16.821-5.27 21.304-13.167 3.453-6.083 13.916-23.754 13.916-23.754l4.792-8.079-4.792-7.571-13.917-24.262c-4.061-8.122-12.224-13.167-21.304-13.167h-21.008z"/><path d="m508.02 189.56-26.04 14.88-13.188-23.396-18.922 8.196-101.84 152.76h-138.03l-11.426-85.715 11.426-109.285h83.38l37.58 61.07 150.4-65.17z"/></g><path d="m210 147v195h-84.89l-35.11-81.92v-15.65l34.39-97.43z" fill="#ffea98"/><path d="m210 87h45v30h-45z" fill="#ffd321"/><path d="m165 87h45v30h-45z" fill="#ffea98"/><path d="m480 242h30v30h-30z" fill="#2d2d2d"/><path d="m480 297h30v30h-30z" fill="#2d2d2d"/><path d="m165 217h30v50h-30z" fill="#4b5055"/><path d="m225 217h30v50h-30z" fill="#2d2d2d"/><path d="m510 371v30c-11.26 0-16.08 3.32-23.36 8.35-8.81 6.08-19.78 13.65-40.39 13.65-20.62 0-31.59-7.57-40.4-13.65-7.28-5.03-12.09-8.35-23.36-8.35-11.26 0-16.07 3.32-23.35 8.35-8.82 6.08-19.79 13.65-40.4 13.65s-31.58-7.57-40.39-13.65c-7.29-5.03-12.1-8.35-23.36-8.35s-16.07 3.32-23.35 8.34c-5.66 3.91-12.21 8.44-21.64 11.16l-11.426-10.738 11.426-22.022c1.48-.92 2.98-1.96 4.6-3.08 8.81-6.09 19.78-13.66 40.39-13.66s31.58 7.57 40.4 13.65c7.28 5.03 12.09 8.35 23.35 8.35s16.07-3.32 23.36-8.35c8.81-6.08 19.78-13.65 40.39-13.65s31.58 7.57 40.4 13.65c7.28 5.03 12.09 8.35 23.36 8.35 11.26 0 16.07-3.32 23.35-8.35 8.82-6.08 19.79-13.65 40.4-13.65z" fill="#2d2d2d"/><path d="m210 387.74v32.76c-5.24 1.53-11.38 2.5-18.75 2.5-20.62 0-31.59-7.57-40.4-13.66-7.28-5.02-12.09-8.34-23.35-8.34-11.27 0-16.08 3.32-23.36 8.35-8.81 6.08-19.78 13.65-40.39 13.65s-31.58-7.57-40.4-13.66c-7.28-5.02-12.09-8.34-23.35-8.34v-30c20.61 0 31.58 7.57 40.39 13.66 7.28 5.02 12.09 8.34 23.36 8.34 11.26 0 16.07-3.32 23.35-8.35 8.82-6.08 19.79-13.65 40.4-13.65s31.58 7.57 40.39 13.65c7.28 5.03 12.09 8.35 23.36 8.35 8.75 0 13.6-2 18.75-5.26z" fill="#4b5055"/></g></svg>