<svg id="Capa_1" enable-background="new 0 0 510 510" height="512" viewBox="0 0 510 510" width="512" xmlns="http://www.w3.org/2000/svg"><g><path d="m510 82.75v344.5c0 45.63-37.12 82.75-82.75 82.75h-172.25l-28.98-175.405 28.98-334.595h172.25c45.63 0 82.75 37.12 82.75 82.75z" fill="#424edd"/><path d="m255 0v510h-172.25c-45.63 0-82.75-37.12-82.75-82.75v-344.5c0-45.63 37.12-82.75 82.75-82.75z" fill="#4894ff"/><path d="m255 150 7.376-14.693-7.376-15.307h-90v270h30v-90h60l7.376-18.115-7.376-11.885h-60v-120z" fill="#efefef"/><path d="m345 210c0 49.63-40.37 90-90 90v-30c33.08 0 60-26.92 60-60s-26.92-60-60-60v-30c49.63 0 90 40.37 90 90z" fill="#d1d1d6"/><path d="m96.98 75h158.02l7.376-17.396-7.376-12.604h-158.02c-28.66 0-51.98 23.32-51.98 51.98v316.04c0 28.66 23.32 51.98 51.98 51.98h158.02l7.376-14.605-7.376-15.395h-158.02c-12.12 0-21.98-9.86-21.98-21.98v-316.04c0-12.12 9.86-21.98 21.98-21.98z" fill="#efefef"/><path d="m465 96.98v316.04c0 28.66-23.32 51.98-51.98 51.98h-158.02v-30h158.02c12.12 0 21.98-9.86 21.98-21.98v-316.04c0-12.12-9.86-21.98-21.98-21.98h-158.02v-30h158.02c28.66 0 51.98 23.32 51.98 51.98z" fill="#d1d1d6"/></g></svg>