<svg id="Capa_1" enable-background="new 0 0 510 510" height="512" viewBox="0 0 510 510" width="512" xmlns="http://www.w3.org/2000/svg"><g><path d="m210 211.94v133.06h-45v165h-60v-397.94h35.67l40.31 35.56c18.44 16.28 29.02 39.72 29.02 64.32z" fill="#424edd"/><path d="m105 112.06v397.94h-60v-165h-45v-133.06c0-24.6 10.58-48.04 29.02-64.32l40.31-35.56z" fill="#4894ff"/><path d="m180 75c0 41.36-33.65 75-75 75v-150c41.35 0 75 33.64 75 75z" fill="#95c7ee"/><path d="m105 0v150c-41.35 0-75-33.64-75-75s33.65-75 75-75z" fill="#bdeaf9"/><path d="m510 317.72v27.28h-45v165h-60v-397.94h41.04z" fill="#424edd"/><path d="m405 112.06v397.94h-60v-165h-45v-27.33l35.67-112.11 28.18-93.5z" fill="#4894ff"/><path d="m255 0h15v510h-15z" fill="#2d2d2d"/><path d="m240 0h15v510h-15z" fill="#4b5055"/><path d="m480 75c0 41.36-33.65 75-75 75v-150c41.35 0 75 33.64 75 75z" fill="#95c7ee"/><path d="m405 0v150c-41.35 0-75-33.64-75-75s33.65-75 75-75z" fill="#bdeaf9"/></g></svg>