<svg id="Capa_1" enable-background="new 0 0 497 497" height="512" viewBox="0 0 497 497" width="512" xmlns="http://www.w3.org/2000/svg"><g><path d="m445.81 159.802v292.823c0 24.508-19.907 44.375-44.464 44.375h-305.692c-24.557 0-44.464-19.867-44.464-44.375v-408.25c0-24.508 19.907-44.375 44.464-44.375h190.303c5.358 0 10.583 1.287 15.26 3.689 3.054 1.568 139.975 138.761 141.61 142.355 1.948 4.281 2.983 8.966 2.983 13.758z" fill="#f9f8f9"/><path d="m445.81 159.8v16.24h-115.96c-33.12 0-60.06-26.95-60.06-60.07v-115.97h16.17c4.425 0 8.763.88 12.775 2.541s142.605 140.12 144.249 143.848c1.847 4.188 2.826 8.751 2.826 13.411z" fill="#e3e0e4"/><path d="m125.65 497h-30c-24.55 0-44.46-19.87-44.46-44.38v-408.24c0-24.51 19.91-44.38 44.46-44.38h30c-24.55 0-44.46 19.87-44.46 44.38v408.24c0 24.51 19.91 44.38 44.46 44.38z" fill="#e3e0e4"/><path d="m442.82 146.04h-112.97c-16.6 0-30.06-13.46-30.06-30.07v-112.96c3.61 1.63 6.92 3.91 9.77 6.76l126.51 126.52c2.85 2.85 5.12 6.15 6.75 9.75z" fill="#a29aa5"/><path d="m145.805 407.749c-9.353-.017-18.601-2.497-26.462-7.547-14.032-9.013-23.324-24.721-23.324-42.597 0-25.524 18.945-46.629 43.584-50.134.757-54.236 45.1-97.971 99.7-97.971 43.549 0 80.57 27.824 94.16 66.605.401-.007.798-.03 1.201-.03 36.626 0 66.317 29.591 66.317 66.093 0 34.336-26.277 62.541-59.881 65.768-1.383.133-195.295-.187-195.295-.187z" fill="#9ec8fc"/><path d="m239.3 209.5c16.69 0 32.42 4.09 46.24 11.31-5.28-.86-10.71-1.31-16.24-1.31-54.6 0-98.94 43.74-99.7 97.97-24.64 3.51-43.58 24.61-43.58 50.14 0 16.34 7.77 30.88 19.83 40.14-.03 0-.04 0-.04 0-9.36-.02-18.61-2.5-26.47-7.55-14.03-9.01-23.32-24.72-23.32-42.59 0-25.53 18.94-46.63 43.58-50.14.76-54.23 45.1-97.97 99.7-97.97z" fill="#62a4fb"/></g></svg>