<svg id="Capa_1" enable-background="new 0 0 497 497" height="512" viewBox="0 0 497 497" width="512" xmlns="http://www.w3.org/2000/svg"><g><path d="m422 91h-197c-2.76 0-5-2.24-5-5v-20c0-13.81-11.19-25-25-25h-170c-13.81 0-25 11.19-25 25v365c0 13.81 11.19 25 25 25l397-20c13.807 0 25-11.193 25-25v-295c0-13.81-11.19-25-25-25z" fill="#f3d332"/><path d="m447 157v254c0 13.81-11.19 25-25 25l-397 20c-12.1 0-22.18-8.59-24.5-20h14.5c1.81 0 2.99-.92 3.54-1.46.54-.55 1.46-1.73 1.46-3.54v-229c0-24.81 20.19-45 45-45z" fill="#dbb72b"/><path d="m497 212v219c0 13.81-11.19 25-25 25h-447c6.9 0 13.16-2.8 17.68-7.32s7.32-10.78 7.32-17.68v-219c0-13.81 11.19-25 25-25h397c13.81 0 25 11.19 25 25z" fill="#faf063"/><path d="m198.071 398.825c-7.361-.014-20.029-1.994-26.216-6.027-11.043-7.198-18.355-19.743-18.355-34.018 0-20.384 14.91-37.239 34.3-40.038.596-43.313 35.493-78.241 78.462-78.241 34.272 0 63.407 22.221 74.102 53.192.316-.006.628-.024.945-.024 28.824 0 52.19 23.632 52.19 52.783 0 27.422-20.68 49.946-47.126 52.523-1.087.105-148.302-.15-148.302-.15z" fill="#9ec8fc"/><path d="m322.12 264.13c-10.79-5.52-23.02-8.63-35.98-8.63-42.142 0-76.605 32.912-79.074 74.44-.13 2.184-1.636 4.05-3.761 4.571-17.289 4.239-30.115 19.838-30.115 38.44 0 8.81 2.88 16.95 7.75 23.53-3.53-.94-6.76-2.16-9.08-3.68-11.05-7.2-18.36-19.74-18.36-34.02 0-20.38 14.91-37.24 34.3-40.04.6-43.31 35.49-78.24 78.46-78.24 21.86-.001 41.64 9.039 55.86 23.629z" fill="#62a4fb"/></g></svg>