<svg id="Capa_1" enable-background="new 0 0 497 497" height="512" viewBox="0 0 497 497" width="512" xmlns="http://www.w3.org/2000/svg"><g><path d="m422 91h-197c-2.76 0-5-2.24-5-5v-20c0-13.81-11.19-25-25-25h-170c-13.81 0-25 11.19-25 25v365c0 13.81 11.19 25 25 25l397-20c13.807 0 25-11.193 25-25v-295c0-13.81-11.19-25-25-25z" fill="#f3d332"/><path d="m447 157v254c0 13.81-11.19 25-25 25l-397 20c-12.1 0-22.18-8.59-24.5-20h14.5c1.81 0 2.99-.92 3.54-1.46.54-.55 1.46-1.73 1.46-3.54v-229c0-24.81 20.19-45 45-45z" fill="#dbb72b"/><path d="m497 212v219c0 13.81-11.19 25-25 25h-447c6.9 0 13.16-2.8 17.68-7.32s7.32-10.78 7.32-17.68v-219c0-13.81 11.19-25 25-25h397c13.81 0 25 11.19 25 25z" fill="#faf063"/><path d="m363 389h-179c-8.284 0-15 6.716-15 15s6.716 15 15 15h179c8.284 0 15-6.716 15-15s-6.716-15-15-15z" fill="#80e29e"/><path d="m215.94 318.817 49 31c5.01 3.551 12.109 3.551 17.119 0l49-31c6.804-4.727 8.485-14.074 3.758-20.877s-14.071-8.486-20.877-3.758l-25.44 14.628v-67.31c0-8.284-6.716-15-15-15s-15 6.716-15 15v67.311l-25.44-14.628c-6.804-4.729-16.151-3.044-20.877 3.758-4.728 6.802-3.046 16.15 3.757 20.876z" fill="#80e29e"/><g fill="#77d192"><path d="m204 419h-20c-8.28 0-15-6.72-15-15s6.72-15 15-15h20c-8.28 0-15 6.72-15 15s6.72 15 15 15z"/><path d="m233.06 294.18 9.51 5.47c-6.21-1.74-13.1.53-16.98 6.12-4.78 6.87-3.26 16.23 3.31 21.25l-12.96-8.2c-6.8-4.73-8.48-14.08-3.76-20.88 4.73-6.8 14.08-8.49 20.88-3.76z"/><path d="m273.71 226.51v81.915c0 3.846-4.16 6.252-7.493 4.334l-7.717-4.439v-66.82c0-8.347 6.829-15.109 15.201-14.999.004.004.006.006.009.009z"/></g></g></svg>