<svg id="Capa_1" enable-background="new 0 0 497 497" height="512" viewBox="0 0 497 497" width="512" xmlns="http://www.w3.org/2000/svg"><g><path d="m422 91h-197c-2.76 0-5-2.24-5-5v-20c0-13.81-11.19-25-25-25h-170c-13.81 0-25 11.19-25 25v365c0 13.81 11.19 25 25 25l397-20c13.807 0 25-11.193 25-25v-295c0-13.81-11.19-25-25-25z" fill="#f3d332"/><path d="m447 157v254c0 13.81-11.19 25-25 25l-397 20c-12.1 0-22.18-8.59-24.5-20h14.5c1.81 0 2.99-.92 3.54-1.46.54-.55 1.46-1.73 1.46-3.54v-229c0-24.81 20.19-45 45-45z" fill="#dbb72b"/><path d="m497 212v219c0 13.81-11.19 25-25 25h-447c6.9 0 13.16-2.8 17.68-7.32s7.32-10.78 7.32-17.68v-219c0-13.81 11.19-25 25-25h397c13.81 0 25 11.19 25 25z" fill="#faf063"/><path d="m296.956 397.026 63.918-63.918c21.051-21.051 21.051-55.182 0-76.233-21.051-21.051-55.182-21.051-76.233 0l-11.141 11.142-11.142-11.142c-21.051-21.051-55.182-21.051-76.233 0-21.051 21.051-21.051 55.182 0 76.233l63.918 63.918c12.955 12.955 33.959 12.955 46.913 0z" fill="#dc4955"/><path d="m293.16 400.3c-12.99 9.57-31.36 8.48-43.12-3.27l-63.91-63.92c-10.53-10.53-15.79-24.32-15.79-38.12 0-13.79 5.26-27.59 15.79-38.12 10.59-10.59 24.5-15.86 38.38-15.79-4.82 2.48-9.34 5.75-13.38 9.79-10.53 10.53-15.79 24.33-15.79 38.12 0 13.8 5.26 27.59 15.79 38.12l63.91 63.92c5.12 5.11 11.49 8.2 18.12 9.27z" fill="#c42430"/></g></svg>