<svg id="Capa_1" enable-background="new 0 0 512 512" height="512" viewBox="0 0 512 512" width="512" xmlns="http://www.w3.org/2000/svg"><g><path d="m459.265 466.286c0 25.248-20.508 45.714-45.806 45.714h-314.918c-25.298 0-45.806-20.467-45.806-45.714v-420.572c0-25.247 20.508-45.714 45.806-45.714h196.047c9.124 0 17.874 3.622 24.318 10.068l130.323 130.34c6.427 6.427 10.036 15.137 10.036 24.217z" fill="#f9f8f9"/><path d="m129.442 512h-30.905c-25.291 0-45.802-20.47-45.802-45.719v-420.562c0-25.249 20.511-45.719 45.802-45.719h30.905c-25.291 0-45.802 20.47-45.802 45.719v420.561c0 25.25 20.511 45.72 45.802 45.72z" fill="#e3e0e4"/><path d="m459.265 164.623v16.73h-119.46c-34.12 0-61.873-27.763-61.873-61.883v-119.47h16.658c9.117 0 17.874 3.626 24.312 10.065l130.328 130.339c6.429 6.428 10.035 15.143 10.035 24.219z" fill="#e3e0e4"/><path d="m456.185 150.448h-116.38c-17.101 0-30.967-13.866-30.967-30.978v-116.369c3.719 1.679 7.129 4.028 10.065 6.964l130.328 130.339c2.936 2.935 5.275 6.335 6.954 10.044z" fill="#9ec8fc"/><path d="m440.402 444.008h-368.804c-22.758 0-41.207-18.45-41.207-41.207v-150.407c0-22.758 18.45-41.207 41.207-41.207h368.805c22.758 0 41.207 18.45 41.207 41.207v150.406c0 22.759-18.45 41.208-41.208 41.208z" fill="#9ec8fc"/><path d="m97.352 444.008h-25.754c-22.757 0-41.207-18.451-41.207-41.207v-150.407c0-22.757 18.451-41.207 41.207-41.207h25.755c-22.757 0-41.207 18.451-41.207 41.207v150.406c-.001 22.757 18.449 41.208 41.206 41.208z" fill="#62a4fb"/><g fill="#f9f8f9"><path d="m319.331 321.274c-15.585-5.748-30.003-12.036-33.086-13.393-4.758-3.342-7.086-8.786-6.24-14.679 1.014-7.065 6.329-12.702 14.218-15.079 20.336-6.133 38.445 8.518 38.741 8.761 3.266 2.725 8.126 2.298 10.866-.96 2.745-3.267 2.323-8.141-.943-10.886-.991-.833-24.596-20.303-53.121-11.711-13.592 4.095-23.194 14.702-25.056 27.679-1.725 12.01 3.473 23.557 13.564 30.137.341.223.699.417 1.071.583.671.299 16.638 7.406 34.638 14.045 14.354 5.295 21.582 13.945 19.835 23.733-1.651 9.25-11.801 19.082-27.359 19.082-13.601 0-26.76-5.559-35.198-14.87-2.867-3.164-7.752-3.401-10.914-.537-3.162 2.866-3.403 7.752-.537 10.914 11.32 12.49 28.759 19.945 46.649 19.945 21.03 0 39.332-13.679 42.57-31.82 2.43-13.601-4.097-31.501-29.698-40.944z"/><path d="m202.91 261.787h-32.811c-6.714 0-7.068 2.925-7.068 7.065v117.838c0 3.903 3.163 7.065 7.065 7.065s7.065-3.162 7.065-7.065v-44.158c7.662-.043 19.822-.106 25.746-.106 22.591 0 40.97-18.087 40.97-40.319.001-22.233-18.376-40.32-40.967-40.32zm0 66.508c-5.885 0-17.867.061-25.558.106-.043-7.876-.106-20.294-.106-26.294 0-5.042-.036-18.01-.06-26.189h25.724c14.549 0 26.84 11.992 26.84 26.189 0 14.196-12.292 26.188-26.84 26.188z"/></g></g></svg>