<svg id="Capa_1" enable-background="new 0 0 497 497" height="512" viewBox="0 0 497 497" width="512" xmlns="http://www.w3.org/2000/svg"><g><path d="m445.81 452.625c0 24.508-19.907 44.375-44.464 44.375h-305.692c-24.557 0-44.464-19.867-44.464-44.375v-408.25c0-24.508 19.907-44.375 44.464-44.375h190.303c8.857 0 17.35 3.516 23.606 9.773l126.505 126.521c6.239 6.239 9.742 14.694 9.742 23.508z" fill="#f9f8f9"/><path d="m125.65 497h-30c-24.55 0-44.46-19.87-44.46-44.38v-408.24c0-24.51 19.91-44.38 44.46-44.38h30c-24.55 0-44.46 19.87-44.46 44.38v408.24c0 24.51 19.91 44.38 44.46 44.38z" fill="#e3e0e4"/><path d="m445.81 159.8v16.24h-115.96c-33.12 0-60.06-26.95-60.06-60.07v-115.97h16.17c8.85 0 17.35 3.52 23.6 9.77l126.51 126.52c6.24 6.24 9.74 14.7 9.74 23.51z" fill="#e3e0e4"/><path d="m442.82 146.04h-112.97c-16.6 0-30.06-13.46-30.06-30.07v-112.96c3.61 1.63 6.92 3.91 9.77 6.76l126.51 126.52c2.85 2.85 5.12 6.15 6.75 9.75z" fill="#9ec8fc"/><path d="m427.5 431h-358c-22.091 0-40-17.909-40-40v-146c0-22.091 17.909-40 40-40h358c22.091 0 40 17.909 40 40v146c0 22.091-17.909 40-40 40z" fill="#9ec8fc"/><path d="m94.5 431h-25c-22.09 0-40-17.91-40-40v-146c0-22.09 17.91-40 40-40h25c-22.09 0-40 17.91-40 40v146c0 22.09 17.91 40 40 40z" fill="#62a4fb"/><g fill="#f9f8f9"><path d="m350.433 267.828c-.887-4.35-4.602-7.563-9.034-7.813-4.449-.255-8.485 2.525-9.854 6.747-.028.086-.054.172-.079.259l-22.936 80.458-23.762-80.54c-.026-.09-.054-.179-.084-.267-1.414-4.209-5.5-6.939-9.927-6.645-4.431.297-8.111 3.55-8.966 7.996l-17.752 98.354c-.736 4.076 1.973 7.978 6.049 8.713 4.078.73 7.977-1.972 8.713-6.049l13.835-76.659 22.624 76.684c.026.09.054.179.084.267 1.341 3.993 5.063 6.666 9.271 6.666h.05c4.229-.021 7.948-2.738 9.254-6.761.028-.087.055-.173.08-.261l21.848-76.641 14.673 76.781c.778 4.069 4.708 6.75 8.774 5.958 4.069-.777 6.736-4.705 5.959-8.774z"/><path d="m427.254 360.915c-.014 0-.029 0-.043 0-8.322.047-20.295.093-27.825.084v-93.499c0-4.143-3.358-7.5-7.5-7.5s-7.5 3.357-7.5 7.5v100.915c0 3.653 2.632 6.774 6.232 7.393.53.091 1.146.196 12.132.196 5.339 0 13.128-.025 24.544-.089 4.142-.023 7.481-3.399 7.458-7.542-.022-4.128-3.376-7.458-7.498-7.458z"/><path d="m139.641 260c-4.142 0-7.5 3.357-7.5 7.5v41.268h-54.894v-41.268c0-4.143-3.358-7.5-7.5-7.5s-7.5 3.357-7.5 7.5v101c0 4.143 3.358 7.5 7.5 7.5s7.5-3.357 7.5-7.5v-44.732h54.894v44.732c0 4.143 3.358 7.5 7.5 7.5s7.5-3.357 7.5-7.5v-101c0-4.143-3.358-7.5-7.5-7.5z"/><path d="m225.418 260h-55.778c-4.142 0-7.5 3.357-7.5 7.5s3.358 7.5 7.5 7.5h20.276v93.5c0 4.143 3.358 7.5 7.5 7.5s7.5-3.357 7.5-7.5v-93.5h20.502c4.142 0 7.5-3.357 7.5-7.5s-3.357-7.5-7.5-7.5z"/></g></g></svg>