<svg id="Capa_1" enable-background="new 0 0 497 497" height="512" viewBox="0 0 497 497" width="512" xmlns="http://www.w3.org/2000/svg"><g><path d="m60.721 460v-400c0-33.137 26.863-60 60-60h300.566c11.046 0 20 8.954 20 20v408.819z" fill="#faf063"/><path d="m150.72 0c-33.14 0-60 26.86-60 60v397.54l-30 2.46v-400c0-33.14 26.86-60 60-60z" fill="#f3d332"/><path d="m440.66 489.6c.43.78.62 1.6.62 2.4 0 2.61-2.09 5-5 5h-339.06c-20.16 0-36.5-16.34-36.5-36.5 0-10.08 4.08-19.2 10.69-25.81s15.73-10.69 25.81-10.69h339.06c3.8 0 6.21 4.07 4.38 7.4-4.96 9.06-7.45 19.08-7.45 29.1s2.49 20.04 7.45 29.1z" fill="#f9f8f9"/><path d="m440.66 431.4c-3.89 7.1-6.26 14.78-7.09 22.6h-327.923c-8.3 0-15.022 6.74-15 15.04l.073 27.38c-17.06-3.06-30-17.98-30-35.92 0-10.08 4.08-19.2 10.69-25.81s15.73-10.69 25.81-10.69h339.06c3.8 0 6.21 4.07 4.38 7.4z" fill="#e3e0e4"/><path d="m427.5 325h-358c-22.091 0-40-17.909-40-40v-146c0-22.091 17.909-40 40-40h358c22.091 0 40 17.909 40 40v146c0 22.091-17.909 40-40 40z" fill="#b9a1d3"/><path d="m94.5 325h-25c-22.09 0-40-17.91-40-40v-146c0-22.09 17.91-40 40-40h25c-22.09 0-40 17.91-40 40v146c0 22.09 17.91 40 40 40z" fill="#9573bb"/><g fill="#f9f8f9"><path d="m279.422 204.726c5.91-6.078 9.56-14.365 9.56-23.492 0-18.599-15.132-33.729-33.73-33.729h-33.112c-4.143 0-7.5 3.357-7.5 7.5v52.49.085 61.417c0 1.995.795 3.907 2.208 5.315 1.406 1.399 3.309 2.185 5.292 2.185h.033c.305-.001 30.57-.135 38.862-.135 21.054 0 38.183-17.129 38.183-38.184 0-14.392-8.006-26.946-19.796-33.452zm-24.17-42.222c10.328 0 18.73 8.402 18.73 18.729s-8.402 18.729-18.73 18.729c-2.428 0-7.029.014-12.043.031h-13.569v-37.49h25.612zm5.783 98.857c-5.714 0-21.781.063-31.396.103v-46.417c3.956-.016 8.941-.036 13.573-.053h17.822c12.783 0 23.183 10.4 23.183 23.184s-10.399 23.183-23.182 23.183z"/><path d="m191.957 247.158c-3.174-2.661-7.904-2.245-10.565.931-1.2 1.432-2.501 2.774-3.866 3.99-7.017 6.249-15.862 9.417-26.293 9.417-27.292 0-49.496-22.204-49.496-49.496s22.204-49.496 49.496-49.496c9.92 0 19.488 2.921 27.669 8.448 3.432 2.317 8.094 1.417 10.413-2.017 2.318-3.432 1.416-8.094-2.017-10.413-10.67-7.208-23.142-11.019-36.065-11.019-35.563 0-64.496 28.933-64.496 64.496s28.933 64.496 64.496 64.496c14.02 0 26.562-4.57 36.27-13.216 1.906-1.698 3.719-3.567 5.386-5.557 2.66-3.172 2.243-7.903-.932-10.564z"/><path d="m397.764 261.496h-62.207l66.721-102.397c1.502-2.306 1.621-5.249.31-7.668-1.312-2.42-3.842-3.927-6.594-3.927h-71.938c-4.143 0-7.5 3.357-7.5 7.5s3.357 7.5 7.5 7.5h58.099l-66.721 102.397c-1.502 2.306-1.621 5.249-.31 7.668 1.312 2.42 3.842 3.927 6.594 3.927h76.046c4.143 0 7.5-3.357 7.5-7.5s-3.358-7.5-7.5-7.5z"/></g></g></svg>