<svg height="489.6pt" viewBox="0 0 489.6 489.6" width="489.6pt" xmlns="http://www.w3.org/2000/svg"><path d="m180.800781 420.289062v-350.976562l64-53.34375 64 53.34375v350.976562l-64 53.34375zm0 0" fill="#62808c"/><path d="m420.289062 308.800781h-350.976562l-53.34375-64 53.34375-64h350.976562l53.34375 64zm0 0" fill="#77959e"/><g fill="#48c8ef"><path d="m318.257812 102.847656-73.457031-61.246094-73.457031 61.246094c-6.789062 5.664063-16.886719 4.746094-22.542969-2.046875-5.664062-6.789062-4.746093-16.886719 2.046875-22.542969l93.953125-78.257812 93.953125 78.289062c6.773438 5.65625 7.6875 15.726563 2.046875 22.511719-5.660156 6.792969-15.753906 7.710938-22.542969 2.046875zm0 0"/><path d="m244.800781 489.601562-93.953125-78.289062c-6.773437-5.65625-7.691406-15.726562-2.046875-22.511719 5.65625-6.796875 15.753907-7.710937 22.542969-2.046875l73.457031 61.246094 73.457031-61.214844c6.78125-5.671875 16.875-4.769531 22.542969 2.015625 5.664063 6.789063 4.746094 16.886719-2.046875 22.542969zm0 0"/><path d="m78.257812 338.753906-78.257812-93.953125 78.289062-93.953125c5.65625-6.773437 15.726563-7.691406 22.511719-2.046875 6.792969 5.65625 7.710938 15.753907 2.046875 22.542969l-61.246094 73.457031 61.214844 73.457031c5.671875 6.78125 4.769532 16.875-2.015625 22.542969-6.789062 5.664063-16.886719 4.746094-22.542969-2.046875zm0 0"/><path d="m388.800781 340.800781c-6.796875-5.660156-7.710937-15.753906-2.046875-22.542969l61.246094-73.457031-61.214844-73.457031c-5.671875-6.78125-4.769531-16.875 2.015625-22.542969 6.789063-5.664062 16.886719-4.746093 22.542969 2.046875l78.257812 93.953125-78.289062 93.953125c-5.65625 6.773438-15.726562 7.6875-22.511719 2.046875zm0 0"/></g></svg>