<svg height="512pt" viewBox="0 0 512 512" width="512pt" xmlns="http://www.w3.org/2000/svg"><path d="m32 16h352c17.671875 0 32 14.328125 32 32v432c0 17.671875-14.328125 32-32 32h-352c-17.671875 0-32-14.328125-32-32v-432c0-17.671875 14.328125-32 32-32zm0 0" fill="#ecce93"/><path d="m128 64v-64h160v64c0 17.671875-14.328125 32-32 32h-96c-17.671875 0-32-14.328125-32-32zm0 0" fill="#e76e54"/><path d="m480 512h-192l-96-105.375v-246.625c0-17.671875 14.328125-32 32-32h256c17.671875 0 32 14.328125 32 32v320c0 17.671875-14.328125 32-32 32zm0 0" fill="#e4edfb"/><path d="m192 406.625 96 105.375v-105.375zm0 0" fill="#e76e54"/></svg>