<svg height="512pt" viewBox="-2 0 511 512" width="512pt" xmlns="http://www.w3.org/2000/svg"><path d="m122.5625 16h352c17.675781 0 32 14.328125 32 32v432c0 17.671875-14.324219 32-32 32h-352c-17.671875 0-32-14.328125-32-32v-432c0-17.671875 14.328125-32 32-32zm0 0" fill="#77959e"/><path d="m369.1875 480h-214.625c-17.671875 0-32-14.328125-32-32v-368c0-17.671875 14.328125-32 32-32h288c17.675781 0 32 14.328125 32 32v294.625zm0 0" fill="#e4edfb"/><path d="m369.1875 406.625v73.375l105.375-105.375h-73.375c-17.671875 0-32 14.324219-32 32zm0 0" fill="#48c8ef"/><path d="m186.5625 384.703125-186.0625-144.703125 186.0625-144.703125v80.703125h96v128h-96zm0 0" fill="#ffcb5a"/><g fill="#fba61f"><path d="m314.5625 192h32v32h-32zm0 0"/><path d="m378.5625 192h32v32h-32zm0 0"/><path d="m314.5625 256h32v32h-32zm0 0"/><path d="m378.5625 256h32v32h-32zm0 0"/></g><path d="m442.5625 448h32v32h-32zm0 0" fill="#fff"/><path d="m346.5625 96h-96c-17.671875 0-32-14.328125-32-32v-64h160v64c0 17.671875-14.324219 32-32 32zm0 0" fill="#48c8ef"/></svg>