<svg height="512pt" viewBox="0 -2 512 512" width="512pt" xmlns="http://www.w3.org/2000/svg"><path d="m448 508.878906-148.59375-92.878906h-267.40625c-17.671875 0-32-14.328125-32-32v-352c0-17.671875 14.328125-32 32-32h448c17.671875 0 32 14.328125 32 32v352c0 17.671875-14.328125 32-32 32h-32zm0 0" fill="#e4edfb"/><path d="m349.214844 347.984375-93.214844-48.992187-93.214844 48.992187 17.808594-103.792969-75.410156-73.503906 104.207031-15.136719 46.609375-94.445312 46.609375 94.445312 104.207031 15.136719-75.410156 73.503906zm0 0" fill="#ffcb5a"/><path d="m209.390625 155.550781-104.207031 15.136719 75.410156 73.503906-17.808594 103.792969 93.214844-48.992187v-237.886719zm0 0" fill="#fba61f"/></svg>