<svg height="512pt" viewBox="-6 0 512 512" width="512pt" xmlns="http://www.w3.org/2000/svg"><path d="m384 512h-352c-17.671875 0-32-14.328125-32-32v-384l96-96h288c17.671875 0 32 14.328125 32 32v448c0 17.671875-14.328125 32-32 32zm0 0" fill="#e4edfb"/><g fill="#6fbb2e"><path d="m330.609375 368.769531 10.910156 30.09375c11.230469-4.085937 21.9375-9.496093 31.886719-16.109375l-17.695312-26.65625c-7.832032 5.210938-16.257813 9.464844-25.101563 12.671875zm0 0"/><path d="m289.9375 376c-4.898438-.113281-10.050781-.289062-14.945312-.894531l-3.839844 31.789062c6.222656.738281 12.800781.992188 18.832031 1.105469 5.625-.003906 11.246094-.328125 16.832031-.976562l-3.632812-31.777344c-4.398438.496094-8.820313.746094-13.246094.753906zm0 0"/><path d="m473.375 218.558594-32 32c-2.589844-73.980469-58.097656-135.339844-131.453125-145.300782-73.351563-9.960937-143.214844 34.371094-165.441406 104.984376-22.222657 70.609374 9.652343 146.964843 75.488281 180.8125 4.089844 2.113281 8.890625 2.375 13.191406.722656 4.296875-1.652344 7.683594-5.066406 9.304688-9.378906 2.824218-7.515626-.429688-15.953126-7.570313-19.628907-51.90625-26.488281-77.277343-86.441406-60.15625-142.144531 17.117188-55.699219 71.78125-91.050781 129.605469-83.816406 57.824219 7.238281 102.089844 54.972656 104.953125 113.175781l-31.472656-31.425781c-6.25-6.246094-16.375-6.246094-22.625 0-6.246094 6.25-6.246094 16.378906 0 22.625l70.402343 70.402344 70.398438-70.402344c6.246094-6.246094 6.246094-16.375 0-22.625-6.246094-6.246094-16.375-6.246094-22.625 0zm0 0"/></g><path d="m0 96h96v-96zm0 0" fill="#62808c"/></svg>