<svg height="512pt" viewBox="0 0 512 512.00011" width="512pt" xmlns="http://www.w3.org/2000/svg"><path d="m464 512c-12.730469.027344-24.941406-5.023438-33.9375-14.03125l-200.140625-200.175781 67.871094-67.871094 200.144531 200.140625c13.722656 13.730469 17.828125 34.371094 10.398438 52.304688-7.425782 17.933593-24.925782 29.628906-44.335938 29.632812zm0 0" fill="#57565c"/><path d="m352 176c0 97.203125-78.796875 176-176 176s-176-78.796875-176-176 78.796875-176 176-176 176 78.796875 176 176zm0 0" fill="#48c8ef"/><path d="m320 176c0 79.527344-64.472656 144-144 144s-144-64.472656-144-144 64.472656-144 144-144 144 64.472656 144 144zm0 0" fill="#e4edfb"/><path d="m288 176h-32c-.054688-44.160156-35.839844-79.945312-80-80v-32c61.828125.070312 111.929688 50.171875 112 112zm0 0" fill="#fff"/></svg>