<svg height="512pt" viewBox="0 0 512 512" width="512pt" xmlns="http://www.w3.org/2000/svg"><path d="m292.480469 512h-72.960938l-29.359375-62-24.769531-10.273438-64.605469 23.089844-51.601562-51.601562 23.089844-64.605469-10.273438-24.769531-62-29.359375v-72.960938l62-29.359375 10.273438-24.769531-23.089844-64.605469 51.601562-51.601562 64.640625 23.105468 24.71875-10.242187 29.375-62.046875h72.960938l29.375 62.046875 24.71875 10.242187 64.640625-23.105468 51.601562 51.601562-23.089844 64.605469 10.273438 24.769531 62 29.359375v72.960938l-62 29.359375-10.273438 24.769531 23.089844 64.605469-51.601562 51.601562-64.605469-23.089844-24.769531 10.273438zm0 0" fill="#ffcb5a"/><path d="m368 256c0 61.855469-50.144531 112-112 112s-112-50.144531-112-112 50.144531-112 112-112 112 50.144531 112 112zm0 0" fill="#e4edfb"/><path d="m256 112c8.835938 0 16 7.164062 16 16v112c0 8.835938-7.164062 16-16 16s-16-7.164062-16-16v-112c0-8.835938 7.164062-16 16-16zm0 0" fill="#77959e"/></svg>