<svg height="512pt" viewBox="0 0 512 512" width="512pt" xmlns="http://www.w3.org/2000/svg"><path d="m512 292.480469v-72.960938l-62-29.359375-10.273438-24.769531 23.089844-64.589844-51.617187-51.617187-64.625 23.105468-24.71875-10.257812-29.375-62.03125h-72.960938l-29.375 62.03125-24.71875 10.257812-64.625-23.105468-51.617187 51.617187 23.089844 64.625-10.273438 24.765625-62 29.328125v72.960938l62 29.359375 10.273438 24.769531-23.089844 64.589844 51.617187 51.617187 64.625-23.089844 24.765625 10.273438 29.328125 62h72.960938l29.359375-62 24.769531-10.273438 64.589844 23.089844 51.617187-51.617187-23.089844-64.625 10.273438-24.765625zm-256 59.519531c-53.019531 0-96-42.980469-96-96s42.980469-96 96-96 96 42.980469 96 96c-.054688 52.996094-43.003906 95.945312-96 96zm0 0" fill="#ffcb5a"/><g fill="#fba61f"><path d="m0 0h32v32h-32zm0 0"/><path d="m480 0h32v32h-32zm0 0"/><path d="m0 480h32v32h-32zm0 0"/><path d="m480 480h32v32h-32zm0 0"/></g><path d="m460.449219 381.601562-190.050781-192.976562-10.0625-110.847656-57.792969-34.578125c-32.449219-19.4375-73.734375-15.707031-102.175781 9.234375l67.632812 67.566406c13.25 13.257812 13.25 34.742188 0 48-13.257812 13.25-34.742188 13.25-48 0l-67.632812-67.632812c-24.910157 28.457031-28.613282 69.738281-9.167969 102.175781l34.640625 57.730469 110.847656 10.0625 195.199219 192.320312c21.097656 20.703125 54.664062 21.402344 76.609375 1.601562 11.046875-10.921874 17.257812-25.808593 17.246094-41.339843-.007813-15.53125-6.234376-30.410157-17.292969-41.316407zm0 0" fill="#77959e"/></svg>