<svg height="512pt" viewBox="0 0 512 512" width="512pt" xmlns="http://www.w3.org/2000/svg"><path d="m401.761719 340.640625 10.558593 155.199219-156.320312-77.917969-156.320312 77.917969 10.558593-155.199219-104.957031-144.480469 160.640625-41.601562 90.078125-141.4375 90.078125 141.4375 160.640625 41.601562zm0 0" fill="#ffcb5a"/><path d="m165.921875 154.558594-160.640625 41.601562 104.957031 144.480469-10.558593 155.199219 156.320312-77.917969v-404.800781zm0 0" fill="#fba61f"/><g fill="#e76e54"><path d="m256 144c0 8.835938-7.164062 16-16 16h-95.039062l20.960937-5.441406 16.957031-26.558594h57.121094c8.835938 0 16 7.164062 16 16zm0 0"/><path d="m256 400c0 8.835938-7.164062 16-16 16h-134.878906l2.238281-32h132.640625c8.835938 0 16 7.164062 16 16zm0 0"/><path d="m256 208c0 8.835938-7.164062 16-16 16h-214.558594l-20.160156-27.839844 16-4.160156h218.71875c8.835938 0 16 7.164062 16 16zm0 0"/><path d="m256 272c0 8.835938-7.164062 16-16 16h-168l-23.199219-32h191.199219c8.835938 0 16 7.164062 16 16zm0 0"/><path d="m256 336c0 8.835938-7.164062 16-16 16h-130.558594l.796875-11.359375-15.039062-20.640625h144.800781c8.835938 0 16 7.164062 16 16zm0 0"/></g><path d="m0 0h32v32h-32zm0 0" fill="#0074ff"/><path d="m480 0h32v32h-32zm0 0" fill="#0074ff"/><path d="m480 480h32v32h-32zm0 0" fill="#0074ff"/><path d="m0 480h32v32h-32zm0 0" fill="#0074ff"/></svg>