<svg height="512pt" viewBox="0 0 512 512" width="512pt" xmlns="http://www.w3.org/2000/svg"><path d="m512 256c0 141.386719-114.613281 256-256 256s-256-114.613281-256-256 114.613281-256 256-256 256 114.613281 256 256zm0 0" fill="#48c8ef"/><path d="m480 256c0 123.710938-100.289062 224-224 224s-224-100.289062-224-224 100.289062-224 224-224 224 100.289062 224 224zm0 0" fill="#e4edfb"/><path d="m108.128906 195.871094c6.246094 6.246094 16.375 6.246094 22.625 0l29.246094-29.246094v105.136719c0 8.835937 7.164062 16 16 16s16-7.164063 16-16v-105.136719l29.246094 29.246094c6.25 6.246094 16.378906 6.246094 22.625 0s6.246094-16.375 0-22.625l-67.871094-67.871094-67.871094 67.871094c-6.246094 6.25-6.246094 16.378906 0 22.625zm0 0" fill="#48c8ef"/><path d="m381.246094 316-29.246094 29.246094v-105.117188c0-8.835937-7.164062-16-16-16s-16 7.164063-16 16v105.117188l-29.246094-29.246094c-6.25-6.246094-16.378906-6.246094-22.625 0s-6.246094 16.375 0 22.625l67.871094 67.871094 67.871094-67.871094c6.246094-6.25 6.246094-16.378906 0-22.625s-16.375-6.246094-22.625 0zm0 0" fill="#48c8ef"/><g fill="#24b2d3"><path d="m160 319.761719h32v32h-32zm0 0"/><path d="m160 383.761719h32v32h-32zm0 0"/><path d="m320 160.128906h32v32h-32zm0 0"/><path d="m320 96.128906h32v32h-32zm0 0"/></g></svg>