<svg height="512pt" viewBox="0 0 512 512" width="512pt" xmlns="http://www.w3.org/2000/svg"><path d="m480 512h-448c-17.671875 0-32-14.328125-32-32v-480h192c17.671875 0 32 14.328125 32 32v32h224c35.347656 0 64 28.652344 64 64v352c0 17.671875-14.328125 32-32 32zm0 0" fill="#ffcb5a"/><path d="m272 0h224c8.835938 0 16 7.164062 16 16s-7.164062 16-16 16h-224c-8.835938 0-16-7.164062-16-16s7.164062-16 16-16zm0 0" fill="#fba61f"/><path d="m64 64h32v32h-32zm0 0" fill="#fff"/><path d="m128 64h32v32h-32zm0 0" fill="#fff"/><path d="m0 160h512v32h-512zm0 0" fill="#fba61f"/></svg>