<svg height="512pt" viewBox="-32 0 512 512.00094" width="512pt" xmlns="http://www.w3.org/2000/svg"><path d="m192.015625 32h16v48h32v-48h16c8.835937 0 16-7.164062 16-16s-7.164063-16-16-16h-64c-8.835937 0-16 7.164062-16 16s7.164063 16 16 16zm0 0" fill="#57565c"/><path d="m388.703125 68.6875-48 48 22.625 22.625 48-48c6.246094-6.25 6.246094-16.375 0-22.625-6.246094-6.246094-16.375-6.246094-22.625 0zm0 0" fill="#57565c"/><path d="m224.015625 512c-90.605469.007812-172.289063-54.570312-206.964844-138.277344-34.671875-83.707031-15.503906-180.058594 48.566407-244.121094 87.480468-87.484374 229.316406-87.484374 316.800781 0 87.480469 87.480469 87.480469 229.316407 0 316.796876-41.917969 42.152343-98.957031 65.773437-158.402344 65.601562zm0 0" fill="#ffcb5a"/><path d="m224.015625 96c-91.597656-.003906-170.441406 64.695312-188.316406 154.535156-17.875 89.835938 30.203125 179.789063 114.824219 214.847656 84.625 35.054688 182.230468 5.453126 233.121093-70.707031 50.894531-76.160156 40.898438-177.664062-23.867187-242.4375-35.925782-36.128906-84.8125-56.378906-135.761719-56.238281zm0 0" fill="#e4edfb"/><g fill="#e76e54"><path d="m208.015625 288h32v32h-32zm0 0"/><path d="m208.015625 128h32v128h-32zm0 0"/></g></svg>