<svg height="501pt" viewBox="0 -34 501.10251 501" width="501pt" xmlns="http://www.w3.org/2000/svg"><path d="m416.417969 216.226562c0 110.457032-89.542969 200-200 200s-200-89.542968-200-200c0-110.457031 89.542969-200 200-200s200 89.542969 200 200zm0 0" fill="#e4edfb"/><g fill="#48c8ef"><path d="m385.554688 143.667969 29.40625-12.625c-4.546876-10.597657-9.945313-20.804688-16.144532-30.527344l-26.992187 17.152344c5.265625 8.285156 9.855469 16.980469 13.730469 26zm0 0"/><path d="m354.097656 94.164062 24-21.25c-7.667968-8.601562-15.996094-16.585937-24.910156-23.886718l-20.289062 24.800781c7.59375 6.203125 14.683593 13.003906 21.199218 20.335937zm0 0"/><path d="m496.417969 265.601562-80-80-80 80c-6.246094 6.25-6.246094 16.378907 0 22.625 6.246093 6.246094 16.375 6.246094 22.625 0l38.175781-38.113281c-14.601562 77.359375-76.851562 136.828125-154.796875 147.875s-154.269531-28.777343-189.792969-99.03125c-35.523437-70.253906-22.355468-155.328125 32.746094-211.554687 55.101562-56.226563 139.894531-71.113282 210.851562-37.015625 7.417969 3.375 16.183594.519531 20.191407-6.574219 2.246093-3.921875 2.742187-8.605469 1.375-12.910156-1.367188-4.304688-4.480469-7.839844-8.574219-9.746094-84.445312-40.339844-185.261719-21.734375-249.742188 46.09375-64.480468 67.824219-77.972656 169.453125-33.417968 251.75 44.554687 82.300781 137.023437 126.566406 229.066406 109.652344 92.046875-16.910156 162.742188-91.152344 175.132812-183.914063l43.535157 43.488281c6.25 6.246094 16.378906 6.246094 22.625 0 6.246093-6.246093 6.246093-16.375 0-22.625zm0 0"/><path d="m234.019531 291.425781-57.601562-43.199219v-160c0-8.835937 7.164062-16 16-16 8.835937 0 16 7.164063 16 16v144l44.800781 33.601563c7.070312 5.300781 8.5 15.328125 3.199219 22.398437-5.300781 7.070313-15.332031 8.503907-22.398438 3.199219zm0 0"/></g></svg>