<svg height="512pt" viewBox="0 -62 512 512" width="512pt" xmlns="http://www.w3.org/2000/svg"><path d="m48 0h416c26.507812 0 48 21.492188 48 48v288c0 26.507812-21.492188 48-48 48h-416c-26.507812 0-48-21.492188-48-48v-288c0-26.507812 21.492188-48 48-48zm0 0" fill="#d7e1f2"/><path d="m48 32h416c8.835938 0 16 7.164062 16 16v288c0 8.835938-7.164062 16-16 16h-416c-8.835938 0-16-7.164062-16-16v-288c0-8.835938 7.164062-16 16-16zm0 0" fill="#48c8ef"/><path d="m484.6875 384-132.6875-132.6875 22.625-22.625 132.6875 132.6875c6.246094 6.25 6.246094 16.378906 0 22.625-6.25 6.246094-16.375 6.246094-22.625 0zm0 0" fill="#57565c"/><path d="m64 64h32v32h-32zm0 0" fill="#fff"/><path d="m128 64h32v32h-32zm0 0" fill="#fff"/><path d="m416 176c0 61.855469-50.144531 112-112 112s-112-50.144531-112-112 50.144531-112 112-112 112 50.144531 112 112zm0 0" fill="#77959e"/><path d="m384 176c0 44.183594-35.816406 80-80 80s-80-35.816406-80-80 35.816406-80 80-80 80 35.816406 80 80zm0 0" fill="#e4edfb"/></svg>