<svg height="503pt" viewBox="0 -40 503.456 503" width="503pt" xmlns="http://www.w3.org/2000/svg"><path d="m251.726562 371.640625c-134.765624 0-240.542968-144.480469-244.972656-150.640625l-6.753906-9.359375 6.753906-9.363281c4.429688-6.15625 110.207032-150.636719 244.972656-150.636719 134.769532 0 240.546876 144.480469 244.976563 150.636719l6.753906 9.363281-6.753906 9.359375c-4.429687 6.160156-110.207031 150.640625-244.976563 150.640625zm0 0" fill="#77959e"/><path d="m463.441406 211.640625c0-70.695313-94.789062-128-211.714844-128-116.925781 0-211.710937 57.304687-211.710937 128 0 70.691406 94.785156 128 211.710937 128 116.925782 0 211.714844-57.308594 211.714844-128zm0 0" fill="#e4edfb"/><path d="m347.726562 211.640625c0 53.019531-42.980468 96-96 96-53.019531 0-96-42.980469-96-96s42.980469-96 96-96c53.019532 0 96 42.980469 96 96zm0 0" fill="#57565c"/><path d="m59.726562 339.640625h32v32h-32zm0 0" fill="#48c8ef"/><path d="m411.726562 51.640625h32v32h-32zm0 0" fill="#48c8ef"/><path d="m3.726562 6.027344c5.636719-6.800782 15.71875-7.742188 22.523438-2.101563l471.371094 390.828125c6.800781 5.640625 7.746094 15.722656 2.109375 22.523438-5.636719 6.796875-15.722657 7.738281-22.523438 2.097656l-471.371093-390.828125c-6.804688-5.636719-7.746094-15.722656-2.109376-22.519531zm0 0" fill="#e76e54"/></svg>