<svg height="503pt" viewBox="0 -91 503.456 503" width="503pt" xmlns="http://www.w3.org/2000/svg"><path d="m251.726562 320.226562c-134.765624 0-240.542968-144.480468-244.972656-150.636718l-6.753906-9.363282 6.753906-9.359374c4.429688-6.160157 110.207032-150.640626 244.972656-150.640626 134.769532 0 240.546876 144.480469 244.976563 150.640626l6.753906 9.359374-6.753906 9.363282c-4.429687 6.15625-110.207031 150.636718-244.976563 150.636718zm0 0" fill="#77959e"/><path d="m463.441406 160.226562c0-70.691406-94.789062-128-211.714844-128-116.925781 0-211.710937 57.308594-211.710937 128 0 70.695313 94.785156 128 211.710937 128 116.925782 0 211.714844-57.304687 211.714844-128zm0 0" fill="#e4edfb"/><path d="m347.726562 160.226562c0 53.019532-42.980468 96-96 96-53.019531 0-96-42.980468-96-96 0-53.019531 42.980469-96 96-96 53.019532 0 96 42.980469 96 96zm0 0" fill="#57565c"/><path d="m235.726562 144.226562h32v32h-32zm0 0" fill="#fff"/><g fill="#48c8ef"><path d="m411.726562 288.226562h32v32h-32zm0 0"/><path d="m59.726562 288.226562h32v32h-32zm0 0"/><path d="m411.726562.226562h32v32h-32zm0 0"/><path d="m59.726562.226562h32v32h-32zm0 0"/></g></svg>