<?xml version="1.0" encoding="iso-8859-1"?>
<!-- Generator: Adobe Illustrator 19.0.0, SVG Export Plug-In . SVG Version: 6.00 Build 0)  -->
<svg version="1.1" id="Layer_1" xmlns="http://www.w3.org/2000/svg" xmlns:xlink="http://www.w3.org/1999/xlink" x="0px" y="0px"
	 viewBox="0 0 384 384" style="enable-background:new 0 0 384 384;" xml:space="preserve">
<path style="fill:#ACE6ED;" d="M304,8c17.6,0,32,14.4,32,32v202.8c0,8.4-3.2,16.8-9.2,22.8L225.6,366.8c-6,6-14,9.2-22.8,9.2H80
	c-17.6,0-32-14.4-32-32V40C48,22.4,62.4,8,80,8H304z"/>
<path style="fill:#56B27D;" d="M202.8,384H80c-22,0-40-18-40-40V40C40,18,58,0,80,0h224c22,0,40,18,40,40v202.8
	c0,10.8-4.4,21.2-11.6,28.4L231.2,372.4C224,380,213.6,384,202.8,384z M80,16c-13.2,0-24,10.8-24,24v304c0,13.2,10.8,24,24,24h122.8
	c6.8,0,12.8-2.4,17.2-6.8L321.2,260c4.4-4.4,6.8-10.8,6.8-17.2V40c0-13.2-10.8-24-24-24H80z"/>
<path style="fill:#FFE53C;" d="M208,372v-92c0-17.6,14.4-32,32-32h92"/>
<g>
	<path style="fill:#56B27D;" d="M208,376c-4.4,0-8-3.6-8-8v-88c0-22,18-40,40-40h88c4.4,0,8,3.6,8,8s-3.6,8-8,8h-88
		c-13.2,0-24,10.8-24,24v88C216,372.4,212.4,376,208,376z"/>
	<path style="fill:#56B27D;" d="M248,96H108c-4.4,0-8-3.6-8-8s3.6-8,8-8h140c4.4,0,8,3.6,8,8S252.4,96,248,96z"/>
	<path style="fill:#56B27D;" d="M164,144h-56c-4.4,0-8-3.6-8-8s3.6-8,8-8h56c4.4,0,8,3.6,8,8S168.4,144,164,144z"/>
	<path style="fill:#56B27D;" d="M212,144h-12c-4.4,0-8-3.6-8-8s3.6-8,8-8h12c4.4,0,8,3.6,8,8S216.4,144,212,144z"/>
	<path style="fill:#56B27D;" d="M140,240h-32c-4.4,0-8-3.6-8-8s3.6-8,8-8h32c4.4,0,8,3.6,8,8S144.4,240,140,240z"/>
	<path style="fill:#56B27D;" d="M260,192H108c-4.4,0-8-3.6-8-8s3.6-8,8-8h152c4.4,0,8,3.6,8,8S264.4,192,260,192z"/>
</g>
<g>
</g>
<g>
</g>
<g>
</g>
<g>
</g>
<g>
</g>
<g>
</g>
<g>
</g>
<g>
</g>
<g>
</g>
<g>
</g>
<g>
</g>
<g>
</g>
<g>
</g>
<g>
</g>
<g>
</g>
</svg>
