<svg id="Capa_1" enable-background="new 0 0 512 512" height="512" viewBox="0 0 512 512" width="512" xmlns="http://www.w3.org/2000/svg"><g><g><path d="m208.5 451c-42.802 0-77.5-34.698-77.5-77.5v-187.5c0-69.036 55.964-125 125-125 69.036 0 125 55.964 125 125 0 42.467-18.749 82.767-51.233 110.122l-43.767 36.857v40.521c0 42.802-34.698 77.5-77.5 77.5z" fill="#ffddce"/><path d="m256 61v373.715c18.246-14.179 30-36.318 30-61.215v-40.522l43.768-36.857c32.483-27.354 51.232-67.654 51.232-110.121 0-69.036-55.964-125-125-125z" fill="#ffcbbc"/><path d="m313.618 128.872c-15.493-15.181-36.003-23.279-57.618-22.855-21.615-.424-42.125 7.675-57.618 22.855-15.497 15.184-24.031 35.472-24.031 57.128v34.542c-.221 4.478 2.563 8.6 5.038 12.099 9.788 14.683 14.962 31.77 14.962 49.415v53.944c0 8.284 6.716 15 15 15s15-6.716 15-15v-53.944c0-23.587-6.916-46.429-20-66.056v-30c0-13.526 5.337-26.205 15.027-35.7 9.686-9.491 23.115-14.566 36.622-14.29 13.507-.276 26.937 4.798 36.622 14.29 9.69 9.495 15.027 22.173 15.027 35.7h30c0-21.656-8.534-41.944-24.031-57.128z" fill="#ffcbbc"/><path d="m256 136.011c13.507-.276 26.937 4.798 36.622 14.29 9.69 9.495 15.027 22.173 15.027 35.7h30c0-21.656-8.534-41.944-24.031-57.128-15.493-15.181-36.003-23.279-57.618-22.855z" fill="#ffbca7"/></g><path d="m256 0c-141.159 0-256 114.841-256 256s114.841 256 256 256 256-114.841 256-256-114.841-256-256-256zm-226 256c0-124.617 101.383-226 226-226 57.176 0 109.451 21.353 149.297 56.489l-318.807 318.808c-35.136-39.846-56.49-92.121-56.49-149.297zm226 226c-56.668 0-108.527-20.969-148.237-55.549l318.687-318.689c34.581 39.711 55.55 91.57 55.55 148.238 0 124.617-101.383 226-226 226z" fill="#ff9f22"/><path d="m256 0v30c57.176 0 109.451 21.353 149.297 56.489l-149.297 149.298v42.426l170.45-170.451c34.581 39.711 55.55 91.57 55.55 148.238 0 124.617-101.383 226-226 226v30c141.159 0 256-114.841 256-256s-114.841-256-256-256z" fill="#ff7038"/></g></svg>