<svg id="Capa_1" enable-background="new 0 0 512 512" height="512" viewBox="0 0 512 512" width="512" xmlns="http://www.w3.org/2000/svg"><g><g fill="#e1e1e6"><path d="m101.266 140h299.469v30h-299.469z"/><path d="m83.566 340h334.867v30h-334.867z"/><path d="m92.416 240h317.168v30h-317.168z"/></g><path d="m251 140h149.734v30h-149.734z" fill="#d2d2d7"/><path d="m251 340h167.434v30h-167.434z" fill="#d2d2d7"/><path d="m251 240h158.584v30h-158.584z" fill="#d2d2d7"/><g><path d="m407.842 65.152c-1.215-13.729-7.482-26.415-17.648-35.721-10.167-9.306-23.356-14.431-37.138-14.431h-204.112c-13.782 0-26.972 5.125-37.138 14.432-10.166 9.306-16.434 21.991-17.648 35.72l-38.1 430.526 29.883 2.645 38.1-430.526c1.15-12.997 11.856-22.797 24.903-22.797h204.111c13.047 0 23.753 9.801 24.903 22.797l31.024 350.579 29.883-2.645z" fill="#fff5f5"/><g><path d="m407.842 65.152c-1.215-13.729-7.482-26.415-17.648-35.721-10.167-9.306-23.356-14.431-37.138-14.431h-102.056v30h102.056c13.047 0 23.753 9.801 24.903 22.797l31.024 350.579 29.883-2.645z" fill="#e1e1e6"/></g><path d="m316 60h-130c-16.569 0-30-13.431-30-30 0-16.569 13.431-30 30-30h130c16.569 0 30 13.431 30 30 0 16.569-13.431 30-30 30z" fill="#8bb9ff"/></g><path d="m96 512h-50c-8.284 0-15-6.716-15-15s6.716-15 15-15h50c8.284 0 15 6.716 15 15s-6.716 15-15 15z" fill="#0a789b"/><circle cx="426" cy="457" fill="#e1e1e6" r="40"/><path d="m426 512c-30.327 0-55-24.673-55-55s24.673-55 55-55 55 24.673 55 55-24.673 55-55 55zm0-80c-13.785 0-25 11.215-25 25s11.215 25 25 25 25-11.215 25-25-11.215-25-25-25z" fill="#08475e"/><g><path d="m316 0h-65v60h65c16.569 0 30-13.431 30-30 0-16.569-13.431-30-30-30z" fill="#7d81e7"/></g></g></svg>