<svg id="Capa_1" enable-background="new 0 0 512 512" height="512" viewBox="0 0 512 512" width="512" xmlns="http://www.w3.org/2000/svg"><g><path d="m356 497h-200c-22.091 0-40-17.909-40-40v-402c0-22.091 17.909-40 40-40h200c22.091 0 40 17.909 40 40v402c0 22.091-17.909 40-40 40z" fill="#ff9f22"/><g><path d="m356 15h-100v482h100c22.091 0 40-17.909 40-40v-402c0-22.091-17.909-40-40-40z" fill="#ff7038"/></g><path d="m181 15v30c0 19.299 15.701 35 35 35h80c19.299 0 35-15.701 35-35v-30z" fill="#e1e1e6"/><g><g><path d="m256 15v65h40c19.299 0 35-15.701 35-35v-30z" fill="#d2d2d7"/></g></g><path d="m356 0h-200c-30.327 0-55 24.673-55 55v402c0 30.327 24.673 55 55 55h200c30.327 0 55-24.673 55-55v-402c0-30.327-24.673-55-55-55zm-225 422v-367c0-13.785 11.215-25 25-25h200c13.785 0 25 11.215 25 25v367z" fill="#fff5f5"/><g><path d="m356 0h-100v30h100c13.785 0 25 11.215 25 25v367h-125v90h100c30.327 0 55-24.673 55-55v-402c0-30.327-24.673-55-55-55z" fill="#e1e1e6"/></g><g><path d="m470.689 334.64c-3.839 0-7.678-1.464-10.606-4.394-5.858-5.858-5.858-15.355 0-21.213 29.242-29.243 29.242-76.824 0-106.066-5.858-5.858-5.858-15.355 0-21.213 5.857-5.858 15.355-5.858 21.213 0 40.939 40.939 40.939 107.553 0 148.492-2.929 2.929-6.768 4.394-10.607 4.394z" fill="#08475e"/><path d="m41.311 334.64c-3.839 0-7.678-1.464-10.606-4.394-40.939-40.939-40.939-107.553 0-148.492 5.857-5.858 15.355-5.858 21.213 0s5.858 15.355 0 21.213c-29.242 29.243-29.242 76.824 0 106.066 5.858 5.858 5.858 15.355 0 21.213-2.929 2.929-6.768 4.394-10.607 4.394z" fill="#0a789b"/></g><g><g><g><path d="m346 341h-7.293l-7.911-47.466c-1.206-7.233-7.463-12.534-14.796-12.534h-70c-2.757 0-5-2.243-5-5v-25h45c8.284 0 15-6.716 15-15s-6.716-15-15-15h-45v-12.58c17.459-6.192 30-22.865 30-42.42 0-24.813-20.187-45-45-45s-45 20.187-45 45c0 19.555 12.541 36.228 30 42.42v14.089c-34.192 6.968-60 37.271-60 73.491 0 41.355 33.645 75 75 75 36.219 0 66.522-25.808 73.491-60h3.802l7.911 47.466c1.206 7.233 7.463 12.534 14.796 12.534h20c8.284 0 15-6.716 15-15s-6.716-15-15-15zm-120 0c-24.813 0-45-20.187-45-45 0-19.555 12.541-36.228 30-42.42v22.42c0 19.299 15.701 35 35 35h22.42c-6.192 17.459-22.865 30-42.42 30z" fill="#fff5f5"/><path d="m346 341h-7.293l-7.911-47.466c-1.206-7.233-7.463-12.534-14.796-12.534h-70c-2.757 0-5-2.243-5-5v-25h45c8.284 0 15-6.716 15-15s-6.716-15-15-15h-45v-12.58c17.459-6.192 30-22.865 30-42.42 0-24.813-20.187-45-45-45v183.698c5.674 3.966 12.568 6.302 20 6.302h22.42c-6.192 17.459-22.865 30-42.42 30v30c36.219 0 66.522-25.808 73.491-60h3.802l7.911 47.466c1.206 7.233 7.463 12.534 14.796 12.534h20c8.284 0 15-6.716 15-15s-6.716-15-15-15z" fill="#e1e1e6"/></g></g></g></g></svg>