<svg id="Capa_1" enable-background="new 0 0 512 512" height="512" viewBox="0 0 512 512" width="512" xmlns="http://www.w3.org/2000/svg"><g><g><path d="m243.548 335 7.112 67.566c.804 7.634 7.241 13.43 14.918 13.43h60.844c7.677 0 14.114-5.796 14.918-13.43l7.112-67.566c0-8.284-6.716-15-15-15h-74.904c-8.284 0-15 6.716-15 15z" fill="#fff5f5"/><g><path d="m333.452 320h-37.452v95.996h30.422c7.677 0 14.114-5.796 14.918-13.43l7.112-67.566c0-8.284-6.716-15-15-15z" fill="#e1e1e6"/></g><path d="m360.918 216.57c.444-4.229-.926-8.446-3.771-11.606-2.843-3.16-6.895-4.964-11.147-4.964h-100c-4.252 0-8.304 1.804-11.147 4.964-2.845 3.16-4.215 7.378-3.771 11.606l12.466 118.43h104.904z" fill="#ffddce"/><g><path d="m357.147 204.964c-2.843-3.16-6.895-4.964-11.147-4.964h-50v135h52.452l12.466-118.43c.444-4.228-.926-8.446-3.771-11.606z" fill="#ffcbbc"/></g></g><path d="m296 150h-250c-8.284 0-15-6.716-15-15v-120c0-8.284 6.716-15 15-15h210c52.383 0 95 42.617 95 95 0 30.327-24.673 55-55 55z" fill="#ffddce"/><path d="m351 95c0-38.1-22.549-71.028-55-86.155v141.155c30.327 0 55-24.673 55-55z" fill="#ffcbbc"/><circle cx="296" cy="175" fill="#fff5f5" r="40"/><path d="m336 175c0-22.091-17.909-40-40-40v80c22.091 0 40-17.909 40-40z" fill="#e1e1e6"/><path d="m296 230c-30.327 0-55-24.673-55-55s24.673-55 55-55 55 24.673 55 55-24.673 55-55 55zm0-80c-13.785 0-25 11.215-25 25s11.215 25 25 25 25-11.215 25-25-11.215-25-25-25z" fill="#e1e1e6"/><path d="m351 175c0-30.327-24.673-55-55-55v30c13.785 0 25 11.215 25 25s-11.215 25-25 25v30c30.327 0 55-24.673 55-55z" fill="#d2d2d7"/><path d="m466 512h-240c-8.284 0-15-6.716-15-15v-53.716c0-22.246 8.663-43.16 24.394-58.891 4.242-4.244 10.604-5.55 16.178-3.32 28.65 11.459 60.207 11.459 88.857 0 5.116-2.047 10.941-1.123 15.174 2.403l32.794 27.328c15.754 13.129 34.773 21.851 55.001 25.222 21.788 3.632 37.603 22.3 37.603 44.388v16.586c-.001 8.284-6.717 15-15.001 15z" fill="#0a789b"/><g><g><path d="m443.397 436.026c-20.228-3.371-39.247-12.093-55.001-25.222l-32.794-27.328c-4.232-3.526-10.058-4.45-15.174-2.403-14.325 5.729-29.377 8.594-44.429 8.594v122.333h170c8.284 0 15-6.716 15-15v-16.586c.001-22.088-15.813-40.756-37.602-44.388z" fill="#08475e"/></g></g></g></svg>