<svg id="Capa_1" enable-background="new 0 0 512 512" height="512" viewBox="0 0 512 512" width="512" xmlns="http://www.w3.org/2000/svg"><g><path d="m377 410h-61c-8.284 0-15-6.716-15-15s6.716-15 15-15h61c8.284 0 15 6.716 15 15s-6.716 15-15 15z" fill="#08475e"/><path d="m196 410h-61c-8.284 0-15-6.716-15-15s6.716-15 15-15h61c8.284 0 15 6.716 15 15s-6.716 15-15 15z" fill="#0a789b"/><g><path d="m422 430h30v67h-30z" fill="#0a789b"/><g><path d="m437 430h15v67h-15z" fill="#08475e"/></g><path d="m512 345v50c0 8.284-6.716 15-15 15h-120c-8.284 0-15-6.716-15-15v-50c0-41.421 33.579-75 75-75 41.421 0 75 33.579 75 75z" fill="#ff7038"/><path d="m437 270v140h60c8.284 0 15-6.716 15-15v-50c0-41.421-33.579-75-75-75z" fill="#ff1f3d"/><path d="m362 395v35c0 8.284 6.716 15 15 15h120c8.284 0 15-6.716 15-15v-35z" fill="#ff9f22"/><g><path d="m437 395v50h60c8.284 0 15-6.716 15-15v-35z" fill="#ff7038"/></g></g><g><path d="m241 430h30v67h-30z" fill="#0a789b"/><g><path d="m256 430h15v67h-15z" fill="#08475e"/></g><path d="m331 345v50c0 8.284-6.716 15-15 15h-120c-8.284 0-15-6.716-15-15v-50c0-41.421 33.579-75 75-75 41.421 0 75 33.579 75 75z" fill="#ff7038"/><path d="m256 270v140h60c8.284 0 15-6.716 15-15v-50c0-41.421-33.579-75-75-75z" fill="#ff1f3d"/><path d="m181 395v35c0 8.284 6.716 15 15 15h120c8.284 0 15-6.716 15-15v-35z" fill="#ff9f22"/><g><path d="m256 395v50h60c8.284 0 15-6.716 15-15v-35z" fill="#ff7038"/></g></g><g><path d="m60 430h30v67h-30z" fill="#0a789b"/><g><path d="m75 430h15v67h-15z" fill="#08475e"/></g><path d="m150 345v50c0 8.284-6.716 15-15 15h-120c-8.284 0-15-6.716-15-15v-50c0-41.421 33.579-75 75-75 41.421 0 75 33.579 75 75z" fill="#ff7038"/><path d="m75 270v140h60c8.284 0 15-6.716 15-15v-50c0-41.421-33.579-75-75-75z" fill="#ff1f3d"/><path d="m0 395v35c0 8.284 6.716 15 15 15h120c8.284 0 15-6.716 15-15v-35z" fill="#ff9f22"/><g><path d="m75 395v50h60c8.284 0 15-6.716 15-15v-35z" fill="#ff7038"/></g></g><path d="m497 512h-482c-8.284 0-15-6.716-15-15s6.716-15 15-15h482c8.284 0 15 6.716 15 15s-6.716 15-15 15z" fill="#fff5f5"/><path d="m512 497c0-8.284-6.716-15-15-15h-241v30h241c8.284 0 15-6.716 15-15z" fill="#e1e1e6"/><g><g><path d="m346 220h-7.293l-7.911-47.466c-1.206-7.233-7.463-12.534-14.796-12.534h-70c-2.757 0-5-2.243-5-5v-25h45c8.284 0 15-6.716 15-15s-6.716-15-15-15h-45v-12.58c17.459-6.192 30-22.865 30-42.42 0-24.813-20.187-45-45-45s-45 20.187-45 45c0 19.555 12.541 36.228 30 42.42v14.089c-34.192 6.968-60 37.271-60 73.491 0 41.355 33.645 75 75 75 36.219 0 66.522-25.808 73.491-60h3.802l7.911 47.466c1.206 7.233 7.463 12.534 14.796 12.534h20c8.284 0 15-6.716 15-15s-6.716-15-15-15zm-120 0c-24.813 0-45-20.187-45-45 0-19.555 12.541-36.228 30-42.42v22.42c0 19.299 15.701 35 35 35h22.42c-6.192 17.459-22.865 30-42.42 30z" fill="#0a789b"/><path d="m346 220h-7.293l-7.911-47.466c-1.206-7.233-7.463-12.534-14.796-12.534h-70c-2.757 0-5-2.243-5-5v-25h45c8.284 0 15-6.716 15-15s-6.716-15-15-15h-45v-12.58c17.459-6.192 30-22.865 30-42.42 0-24.813-20.187-45-45-45v183.698c5.674 3.966 12.568 6.302 20 6.302h22.42c-6.192 17.459-22.865 30-42.42 30v30c36.219 0 66.522-25.808 73.491-60h3.802l7.911 47.466c1.206 7.233 7.463 12.534 14.796 12.534h20c8.284 0 15-6.716 15-15s-6.716-15-15-15z" fill="#08475e"/></g></g></g></svg>