<svg id="Capa_1" enable-background="new 0 0 512 512" height="512" viewBox="0 0 512 512" width="512" xmlns="http://www.w3.org/2000/svg"><g><g><g><g><g><path d="m59.487 322.908-16.577-157.479c-.806-7.656-7.219-13.429-14.918-13.429h-12.992c-8.284 0-15-6.716-15-15 0-8.284 6.716-15 15-15h12.992c23.096 0 42.335 17.32 44.752 40.289l16.577 157.479z" fill="#fff5f5"/><path d="m275 512c-16.569 0-30-13.431-30-30v-65c0-30.376-24.624-55-55-55h-30.183c-8.284 0-15-6.716-15-15v-30c0-8.284 6.716-15 15-15h30.183c63.513 0 115 51.487 115 115v65c0 16.569-13.431 30-30 30z" fill="#525cdd"/><path d="m270 317h-155c-8.284 0-15-6.716-15-15v-115c0-24.853 20.147-45 45-45 24.853 0 45 20.147 45 45v70h80c16.569 0 30 13.431 30 30 0 16.569-13.431 30-30 30z" fill="#8bb9ff"/><path d="m270 257h-80v-70c0-24.853-20.147-45-45-45v175h125c16.568 0 30-13.431 30-30s-13.431-30-30-30z" fill="#7d81e7"/><circle cx="115" cy="397" fill="#fff5f5" r="100"/><path d="m115 297v200c55.229 0 100-44.772 100-100s-44.771-100-100-100z" fill="#e1e1e6"/><path d="m115 512c-63.411 0-115-51.589-115-115s51.589-115 115-115 115 51.589 115 115-51.589 115-115 115zm0-200c-46.869 0-85 38.131-85 85s38.131 85 85 85 85-38.131 85-85-38.131-85-85-85z" fill="#0a789b"/><path d="m115 312c46.869 0 85 38.131 85 85s-38.131 85-85 85v30c63.411 0 115-51.589 115-115s-51.589-115-115-115z" fill="#08475e"/><path d="m115 437c-22.056 0-40-17.944-40-40s17.944-40 40-40 40 17.944 40 40-17.944 40-40 40z" fill="#0a789b"/><g><path d="m115 437c-22.056 0-40-17.944-40-40s17.944-40 40-40 40 17.944 40 40-17.944 40-40 40z" fill="#0a789b"/><path d="m115 357v80c22.056 0 40-17.944 40-40s-17.944-40-40-40z" fill="#08475e"/></g><path d="m172.5 157c-26.192 0-47.5-21.308-47.5-47.5s21.308-47.5 47.5-47.5 47.5 21.308 47.5 47.5-21.308 47.5-47.5 47.5z" fill="#ffddce"/></g></g></g><g><path d="m272 120.027h130v15c0 12.361 14.111 19.416 24 12l80-60c8-6 8-18 0-24l-80-60c-9.889-7.416-24-.361-24 12v15h-130c-8.284 0-15 6.716-15 15v60c0 8.285 6.716 15 15 15z" fill="#ff9f22"/><path d="m257 105.027c0 8.284 6.716 15 15 15h130v15c0 12.361 14.111 19.416 24 12l80-60c4-3 6-7.5 6-12h-255z" fill="#ff7038"/></g></g><path d="m145 148.193c7.767 5.536 17.256 8.807 27.5 8.807 26.192 0 47.5-21.308 47.5-47.5s-21.308-47.5-47.5-47.5c-10.244 0-19.733 3.271-27.5 8.807z" fill="#ffcbbc"/></g></svg>