<svg id="Capa_1" enable-background="new 0 0 512 512" height="512" viewBox="0 0 512 512" width="512" xmlns="http://www.w3.org/2000/svg"><g><g><path d="m76 140h120v30h-120z" fill="#e1e1e6"/><path d="m76 210h120v30h-120z" fill="#e1e1e6"/><path d="m136 140h60v30h-60z" fill="#d2d2d7"/><path d="m136 210h60v30h-60z" fill="#d2d2d7"/><path d="m196 30c-8.284 0-15 6.716-15 15v192.918c0 33.089-17.058 63.076-45 79.97-27.942-16.894-45-46.881-45-79.97v-192.918c0-8.284-6.716-15-15-15s-15 6.716-15 15v192.918c0 22.96 6.38 45.419 18.451 64.949 10.407 16.839 24.659 30.858 41.549 40.985v153.148h30v-153.148c16.89-10.127 31.142-24.146 41.549-40.985 12.071-19.53 18.451-41.989 18.451-64.949v-192.918c0-8.284-6.716-15-15-15z" fill="#fff5f5"/><path d="m196 30c-8.284 0-15 6.716-15 15v192.918c0 33.089-17.058 63.076-45 79.97v179.112h15v-153.148c16.89-10.127 31.142-24.146 41.549-40.985 12.071-19.53 18.451-41.989 18.451-64.949v-192.918c0-8.284-6.716-15-15-15z" fill="#e1e1e6"/><path d="m211 60h-150c-16.569 0-30-13.431-30-30 0-16.569 13.431-30 30-30h150c16.569 0 30 13.431 30 30 0 16.569-13.431 30-30 30z" fill="#8bb9ff"/><path d="m166 512h-60c-8.284 0-15-6.716-15-15s6.716-15 15-15h60c8.284 0 15 6.716 15 15s-6.716 15-15 15z" fill="#0a789b"/><path d="m211 0h-75v60h75c16.568 0 30-13.431 30-30 0-16.569-13.431-30-30-30z" fill="#7d81e7"/><path d="m166 512c8.284 0 15-6.716 15-15s-6.716-15-15-15h-30v30z" fill="#08475e"/></g><g><path d="m316 140h120v30h-120z" fill="#e1e1e6"/><path d="m316 210h120v30h-120z" fill="#e1e1e6"/><path d="m376 140h60v30h-60z" fill="#d2d2d7"/><path d="m376 210h60v30h-60z" fill="#d2d2d7"/><path d="m436 30c-8.284 0-15 6.716-15 15v192.918c0 33.089-17.058 63.076-45 79.97-27.942-16.894-45-46.881-45-79.97v-192.918c0-8.284-6.716-15-15-15s-15 6.716-15 15v192.918c0 22.96 6.38 45.419 18.451 64.949 10.407 16.839 24.659 30.858 41.549 40.985v153.148h30v-153.148c16.89-10.127 31.142-24.146 41.549-40.985 12.071-19.53 18.451-41.989 18.451-64.949v-192.918c0-8.284-6.716-15-15-15z" fill="#fff5f5"/><path d="m436 30c-8.284 0-15 6.716-15 15v192.918c0 33.089-17.058 63.076-45 79.97v179.112h15v-153.148c16.89-10.127 31.142-24.146 41.549-40.985 12.071-19.53 18.451-41.989 18.451-64.949v-192.918c0-8.284-6.716-15-15-15z" fill="#e1e1e6"/><path d="m451 60h-150c-16.569 0-30-13.431-30-30 0-16.569 13.431-30 30-30h150c16.569 0 30 13.431 30 30 0 16.569-13.431 30-30 30z" fill="#8bb9ff"/><path d="m406 512h-60c-8.284 0-15-6.716-15-15s6.716-15 15-15h60c8.284 0 15 6.716 15 15s-6.716 15-15 15z" fill="#0a789b"/><path d="m451 0h-75v60h75c16.568 0 30-13.431 30-30 0-16.569-13.431-30-30-30z" fill="#7d81e7"/><path d="m406 512c8.284 0 15-6.716 15-15s-6.716-15-15-15h-30v30z" fill="#08475e"/></g></g></svg>