<svg id="Capa_1" enable-background="new 0 0 512 512" height="512" viewBox="0 0 512 512" width="512" xmlns="http://www.w3.org/2000/svg"><g><g><path d="m298.562 320h134.876v30h-134.876z" fill="#e1e1e6"/></g><g><g><path d="m366 320h67.438v30h-67.438z" fill="#d2d2d7"/></g></g><path d="m442.466 262.118c-1.487-18.01-16.809-32.118-34.881-32.118h-83.17c-18.07 0-33.392 14.107-34.881 32.117l-19.31 233.647 29.898 2.471 19.31-233.647c.213-2.573 2.401-4.588 4.982-4.588h83.17c2.582 0 4.771 2.015 4.982 4.588l19.31 233.647 29.898-2.471z" fill="#fff5f5"/><g><path d="m442.466 262.118c-1.487-18.01-16.809-32.118-34.881-32.118h-41.585v30h41.585c2.582 0 4.771 2.015 4.982 4.588l19.31 233.647 29.898-2.471z" fill="#e1e1e6"/></g><path d="m466 512h-40c-8.284 0-15-6.716-15-15s6.716-15 15-15h40c8.284 0 15 6.716 15 15s-6.716 15-15 15z" fill="#08475e"/><path d="m306 512h-40c-8.284 0-15-6.716-15-15s6.716-15 15-15h40c8.284 0 15 6.716 15 15s-6.716 15-15 15z" fill="#0a789b"/><g><g><path d="m46.005 480.976c14.349 8.284 32.697 3.368 40.981-10.981l46.763-80.995v-120l-98.725 170.995c-8.284 14.349-3.368 32.696 10.981 40.981z" fill="#7d81e7"/></g><g><path d="m271 200v-114.999c0-24.853-20.148-45.001-45.001-45-74.559.002-134.999 60.444-134.999 135.002v64.997l30 40v202c0 16.569 13.431 30 30 30 16.569 0 30-13.431 30-30v-252.881c0-.378.05-.754.15-1.119l14.85-23h15v20c0 19.33 15.67 35 35 35h85c16.568 0 30-13.431 30-30 0-16.568-13.431-30-30-30z" fill="#8bb9ff"/><path d="m331 200h-60v-114.999c0-24.853-20.148-45.001-45.001-45-15.78 0-30.923 2.717-44.999 7.693v181.425c0-.378.05-.754.15-1.119l14.85-23h15v20c0 19.33 15.67 35 35 35h85c16.568 0 30-13.431 30-30 0-16.568-13.431-30-30-30z" fill="#7d81e7"/><path d="m181 180v52c0 15.464 12.536 28 28 28h37c-19.33 0-35-15.67-35-35v-45c0-8.284-6.716-15-15-15-8.284 0-15 6.716-15 15z" fill="#525cdd"/></g></g><path d="m311 120c-33.084 0-60-26.916-60-60s26.916-60 60-60 60 26.916 60 60-26.916 60-60 60z" fill="#ffcbbc"/></g></svg>