<svg id="Capa_1" enable-background="new 0 0 512 512" height="512" viewBox="0 0 512 512" width="512" xmlns="http://www.w3.org/2000/svg"><g><circle cx="397" cy="467" fill="#fff5f5" r="30"/><g><g><path d="m511.363 402.689c-2.38-7.935-10.742-12.441-18.677-10.057l-80.686 24.207v-64.839l-30-15v100c0 8.284 6.716 15 15 15 1.497 0 2.941-.226 4.306-.635l.001.002.044-.013c.061-.018.122-.036.182-.055l99.774-29.932c7.934-2.38 12.437-10.742 10.056-18.678z" fill="#d2d2d7"/><path d="m95 0h-80c-8.284 0-15 6.716-15 15s6.716 15 15 15h65v92l30 20v-127c0-8.284-6.716-15-15-15z" fill="#e1e1e6"/><g><path d="m412 352h-332v-155c0-8.284 6.716-15 15-15h302c8.284 0 15 6.716 15 15z" fill="#fff5f5"/><g><path d="m397 182h-262v170h277v-155c0-8.284-6.716-15-15-15z" fill="#e1e1e6"/></g></g><circle cx="135" cy="377" fill="#fff5f5" r="120"/><g><path d="m135 257v240c66.274 0 120-53.726 120-120s-53.726-120-120-120z" fill="#e1e1e6"/></g><path d="m352 122h-272v75h332v-15c0-33.137-26.863-60-60-60z" fill="#8bb9ff"/><g><path d="m412 182c0-33.137-26.863-60-60-60h-217v75h277z" fill="#7d81e7"/></g><path d="m135 512c-74.439 0-135-60.561-135-135s60.561-135 135-135 135 60.561 135 135-60.561 135-135 135zm0-240c-57.897 0-105 47.103-105 105s47.103 105 105 105 105-47.103 105-105-47.103-105-105-105z" fill="#0a789b"/><path d="m135 242v30c57.897 0 105 47.103 105 105s-47.103 105-105 105v30c74.439 0 135-60.561 135-135s-60.561-135-135-135z" fill="#08475e"/><path d="m135 437c-33.084 0-60-26.916-60-60s26.916-60 60-60 60 26.916 60 60-26.916 60-60 60z" fill="#0a789b"/><g><path d="m195 377c0-33.084-26.916-60-60-60v120c33.084 0 60-26.916 60-60z" fill="#08475e"/></g><circle cx="135" cy="377" fill="#fff5f5" r="15"/><path d="m397 512c-24.813 0-45-20.187-45-45s20.187-45 45-45 45 20.187 45 45-20.187 45-45 45zm0-60c-8.271 0-15 6.729-15 15s6.729 15 15 15 15-6.729 15-15-6.729-15-15-15z" fill="#08475e"/></g><g><g><g><path d="m135 362v30c8.284 0 15-6.716 15-15s-6.716-15-15-15z" fill="#e1e1e6"/></g></g></g></g></g></svg>