<svg id="Capa_1" enable-background="new 0 0 512 512" height="512" viewBox="0 0 512 512" width="512" xmlns="http://www.w3.org/2000/svg"><g><path d="m497 115h-116c-8.284 0-15 6.716-15 15v367c0 8.284 6.716 15 15 15h50.5l15-22 15 22h35.5c8.284 0 15-6.716 15-15v-367c0-8.284-6.716-15-15-15z" fill="#d2d2d7"/><g><path d="m446.5 400c-8.284 0-15 6.716-15 15v97h30v-97c0-8.284-6.716-15-15-15z" fill="#7d81e7"/></g><path d="m446.5 210c-8.284 0-15-6.716-15-15v-20c0-8.284 6.716-15 15-15s15 6.716 15 15v20c0 8.284-6.716 15-15 15z" fill="#7d81e7"/><path d="m446.5 290c-8.284 0-15-6.716-15-15v-20c0-8.284 6.716-15 15-15s15 6.716 15 15v20c0 8.284-6.716 15-15 15z" fill="#7d81e7"/><path d="m446.5 370c-8.284 0-15-6.716-15-15v-20c0-8.284 6.716-15 15-15s15 6.716 15 15v20c0 8.284-6.716 15-15 15z" fill="#7d81e7"/><g><g><path d="m15 115h116c8.284 0 15 6.716 15 15v367c0 8.284-6.716 15-15 15h-50.5l-15-22-15 22h-35.5c-8.284 0-15-6.716-15-15v-367c0-8.284 6.716-15 15-15z" fill="#e1e1e6"/><path d="m65.5 400c8.284 0 15 6.716 15 15v97h-30v-97c0-8.284 6.716-15 15-15z" fill="#8bb9ff"/></g><g fill="#8bb9ff"><path d="m65.5 210c8.284 0 15-6.716 15-15v-20c0-8.284-6.716-15-15-15s-15 6.716-15 15v20c0 8.284 6.716 15 15 15z"/><path d="m65.5 290c8.284 0 15-6.716 15-15v-20c0-8.284-6.716-15-15-15s-15 6.716-15 15v20c0 8.284 6.716 15 15 15z"/><path d="m65.5 370c8.284 0 15-6.716 15-15v-20c0-8.284-6.716-15-15-15s-15 6.716-15 15v20c0 8.284 6.716 15 15 15z"/></g></g><path d="m131 15v497h80l45-30 45 30h80v-497z" fill="#fff5f5"/><path d="m256 15v467l45 30h80v-497z" fill="#e1e1e6"/><path d="m391 30h-270c-8.284 0-15-6.716-15-15s6.716-15 15-15h270c8.284 0 15 6.716 15 15s-6.716 15-15 15z" fill="#8bb9ff"/><path d="m286 415h-60v67l15 30h30l15-30z" fill="#8bb9ff"/><path d="m286 415h-30v97h15l15-30z" fill="#7d81e7"/><g><path d="m286 400h-60c-8.284 0-15 6.716-15 15v97h30v-82h30v82h30v-97c0-8.284-6.716-15-15-15z" fill="#b1d5f1"/></g><path d="m286 400h-30v30h15v82h30v-97c0-8.284-6.716-15-15-15z" fill="#8bb9ff"/><path d="m296 100h-25v-25c0-8.284-6.716-15-15-15s-15 6.716-15 15v25h-25c-8.284 0-15 6.716-15 15s6.716 15 15 15h25v25c0 8.284 6.716 15 15 15s15-6.716 15-15v-25h25c8.284 0 15-6.716 15-15s-6.716-15-15-15z" fill="#ff7038"/><g fill="#8bb9ff"><path d="m188.5 210c-8.284 0-15-6.716-15-15v-20c0-8.284 6.716-15 15-15s15 6.716 15 15v20c0 8.284-6.716 15-15 15z"/><path d="m188.5 290c-8.284 0-15-6.716-15-15v-20c0-8.284 6.716-15 15-15s15 6.716 15 15v20c0 8.284-6.716 15-15 15z"/><path d="m188.5 370c-8.284 0-15-6.716-15-15v-20c0-8.284 6.716-15 15-15s15 6.716 15 15v20c0 8.284-6.716 15-15 15z"/><path d="m256 290c-8.284 0-15-6.716-15-15v-20c0-8.284 6.716-15 15-15s15 6.716 15 15v20c0 8.284-6.716 15-15 15z"/><path d="m256 370c-8.284 0-15-6.716-15-15v-20c0-8.284 6.716-15 15-15s15 6.716 15 15v20c0 8.284-6.716 15-15 15z"/></g><path d="m323.5 210c-8.284 0-15-6.716-15-15v-20c0-8.284 6.716-15 15-15s15 6.716 15 15v20c0 8.284-6.716 15-15 15z" fill="#7d81e7"/><path d="m323.5 290c-8.284 0-15-6.716-15-15v-20c0-8.284 6.716-15 15-15s15 6.716 15 15v20c0 8.284-6.716 15-15 15z" fill="#7d81e7"/><path d="m323.5 370c-8.284 0-15-6.716-15-15v-20c0-8.284 6.716-15 15-15s15 6.716 15 15v20c0 8.284-6.716 15-15 15z" fill="#7d81e7"/><g><path d="m391 30c8.284 0 15-6.716 15-15s-6.716-15-15-15h-135v30z" fill="#7d81e7"/><path d="m271 155v-25h25c8.284 0 15-6.716 15-15s-6.716-15-15-15h-25v-25c0-8.284-6.716-15-15-15v110c8.284 0 15-6.716 15-15z" fill="#ff1f3d"/><g fill="#7d81e7"><path d="m271 275v-20c0-8.284-6.716-15-15-15v50c8.284 0 15-6.716 15-15z"/><path d="m271 355v-20c0-8.284-6.716-15-15-15v50c8.284 0 15-6.716 15-15z"/></g></g></g></svg>