<svg id="Capa_1" enable-background="new 0 0 512 512" height="512" viewBox="0 0 512 512" width="512" xmlns="http://www.w3.org/2000/svg"><g><path d="m250 152h-150v-60h150c16.569 0 30 13.431 30 30 0 16.569-13.431 30-30 30z" fill="#08475e"/><g><path d="m141.645 152v-114.5c0-20.711-16.789-37.5-37.5-37.5-20.711 0-37.5 16.789-37.5 37.5v122.22l23.355 62.28c0 8.284 6.716 15 15 15h74.145c8.284 0 15-6.716 15-15z" fill="#0a789b"/></g><path d="m90 317v120c0 8.284 6.716 15 15 15h270c8.284 0 15-6.716 15-15v-120z" fill="#fff5f5"/><g><path d="m240 317v135h135c8.284 0 15-6.716 15-15v-120z" fill="#e1e1e6"/></g><path d="m390 267c0-24.853-20.147-45-45-45h-255v95h300z" fill="#8bb9ff"/><g><circle cx="105" cy="407" fill="#fff5f5" r="90"/><path d="m105 512c-57.897 0-105-47.103-105-105s47.103-105 105-105 105 47.103 105 105-47.103 105-105 105zm0-180c-41.355 0-75 33.645-75 75s33.645 75 75 75 75-33.645 75-75-33.645-75-75-75z" fill="#0a789b"/><path d="m105 437c-16.542 0-30-13.458-30-30s13.458-30 30-30 30 13.458 30 30-13.458 30-30 30z" fill="#0a789b"/><circle cx="375" cy="437" fill="#fff5f5" r="60"/><g fill="#08475e"><path d="m375 512c-41.355 0-75-33.645-75-75s33.645-75 75-75 75 33.645 75 75-33.645 75-75 75zm0-120c-24.813 0-45 20.187-45 45s20.187 45 45 45 45-20.187 45-45-20.187-45-45-45z"/><circle cx="375" cy="437" r="15"/></g></g><path d="m497 382h-32c-6.134 0-11.649-3.734-13.927-9.429l-36.228-90.571h-39.845c-8.284 0-15-6.716-15-15s6.716-15 15-15h50c6.134 0 11.649 3.734 13.927 9.429l36.228 90.571h21.845c8.284 0 15 6.716 15 15s-6.716 15-15 15z" fill="#e1e1e6"/><g><path d="m280 122c0-16.569-13.431-30-30-30h-10v60h10c16.569 0 30-13.431 30-30z" fill="#05303d"/><path d="m390 267c0-24.853-20.147-45-45-45h-105v95h150z" fill="#7d81e7"/></g></g></svg>