<svg id="Capa_1" enable-background="new 0 0 512 512" height="512" viewBox="0 0 512 512" width="512" xmlns="http://www.w3.org/2000/svg"><g><g><g><g><path d="m376 100h-90-120v60h120v160h160c19.33 0 35-15.67 35-35v-25-55c0-57.99-47.01-105-105-105z" fill="#ff9f22"/><path d="m391 162.795h-45-45c-8.284 0-15 7.341-15 16.397v302.808c0 16.569 13.431 30 30 30 16.569 0 30-13.431 30-30 0 16.569 13.431 30 30 30 16.568 0 30-13.431 30-30v-302.807c0-9.057-6.716-16.398-15-16.398z" fill="#ff9f22"/><path d="m376 512c16.569 0 30-13.431 30-30v-302.807c0-9.056-6.716-16.397-15-16.397h-45v319.204c0 16.569 13.431 30 30 30z" fill="#ff7038"/><g><g><path d="m481 260v-55c0-57.99-47.01-105-105-105h-30v220h100c19.33 0 35-15.67 35-35z" fill="#ff7038"/></g></g></g><g><path d="m421 190c-8.284 0-15 6.716-15 15v115h30v-115c0-8.284-6.716-15-15-15z" fill="#ff1f3d"/></g><path d="m346 115c-31.706 0-57.5-25.794-57.5-57.5s25.794-57.5 57.5-57.5 57.5 25.794 57.5 57.5-25.794 57.5-57.5 57.5z" fill="#ffddce"/><g><path d="m346 0v115c31.706 0 57.5-25.794 57.5-57.5s-25.794-57.5-57.5-57.5z" fill="#ffcbbc"/></g></g><g><path d="m61 285v212c0 8.284-6.716 15-15 15s-15-6.716-15-15v-222z" fill="#fff5f5"/><g><path d="m46 245h60" style="fill:none;stroke:#000;stroke-width:30;stroke-linecap:round;stroke-linejoin:round;stroke-miterlimit:10"/></g><path d="m196 512c-16.569 0-30-13.431-30-30v-112c0 16.844-13.954 30.49-30.908 29.987-16.317-.485-29.092-14.301-29.092-30.625v-164.362c0-8.284 6.716-15 15-15h90c8.284 0 15 6.716 15 15v277c0 16.569-13.431 30-30 30z" fill="#8bb9ff"/><g><path d="m301 205c0-57.99-47.01-105-105-105h-60c-57.99 0-105 47.01-105 105v25l20 16-20 14v25c0 19.33 15.67 35 35 35h200c19.33 0 35-15.67 35-35v-25z" fill="#8bb9ff"/><g><path d="m211 190h-45v180 112c0 16.569 13.431 30 30 30 16.568 0 30-13.431 30-30v-277c0-8.284-6.716-15-15-15z" fill="#7d81e7"/></g><g><g><path d="m301 205c0-57.99-47.01-105-105-105h-30v220h100c19.33 0 35-15.67 35-35v-25z" fill="#7d81e7"/></g></g><path d="m31 230h60v30h-60z" fill="#0a789b"/></g><g><path d="m241 190c-8.284 0-15 6.716-15 15v115h30v-115c0-8.284-6.716-15-15-15z" fill="#525cdd"/><path d="m91 190c-8.284 0-15 6.716-15 15v115h30v-115c0-8.284-6.716-15-15-15z" fill="#7d81e7"/></g><path d="m166 115c-31.706 0-57.5-25.794-57.5-57.5s25.794-57.5 57.5-57.5 57.5 25.794 57.5 57.5-25.794 57.5-57.5 57.5z" fill="#ffddce"/><path d="m166 300c-8.284 0-15 6.716-15 15v80.972c8.96-5.195 15-14.891 15-25.972v112c0 11.102 6.036 20.789 15 25.977v-192.977c0-8.284-6.716-15-15-15z" fill="#7d81e7"/><g><g><path d="m241 190c-8.284 0-15 6.716-15 15v115h30v-115c0-8.284-6.716-15-15-15z" fill="#525cdd"/></g><g><path d="m166 300v70 112c0 11.102 6.036 20.789 15 25.977v-192.977c0-8.284-6.716-15-15-15z" fill="#525cdd"/></g></g><g><path d="m166 0v115c31.706 0 57.5-25.794 57.5-57.5s-25.794-57.5-57.5-57.5z" fill="#ffcbbc"/></g></g></g><path d="m346 300c-8.284 0-15 6.716-15 15v192.977c8.964-5.188 15-14.874 15-25.977 0 11.102 6.036 20.789 15 25.977v-192.977c0-8.284-6.716-15-15-15z" fill="#ff7038"/><g><path d="m346 300v70 112c0 11.102 6.036 20.789 15 25.977v-192.977c0-8.284-6.716-15-15-15z" fill="#ff1f3d"/></g></g></svg>