<svg id="Capa_1" enable-background="new 0 0 512 512" height="512" viewBox="0 0 512 512" width="512" xmlns="http://www.w3.org/2000/svg"><g><g><path d="m116 230h-100.975c-11.98 0-19.126-13.352-12.481-23.32 11.398-17.098 17.481-37.187 17.481-57.736v-111.457c0-20.703 16.784-37.487 37.488-37.487 32.301 0 58.487 26.186 58.487 58.487z" fill="#e1e1e6"/></g><path d="m497 512h-387c-8.284 0-15-6.716-15-15v-459.513c0-20.703-16.784-37.487-37.487-37.487h409.487c24.853 0 45 20.147 45 45v452c0 8.284-6.716 15-15 15z" fill="#fff5f5"/><g><path d="m467 0h-163.5v512h193.5c8.284 0 15-6.716 15-15v-452c0-24.853-20.147-45-45-45z" fill="#e1e1e6"/></g><path d="m444.5 371h-282c-8.284 0-15-6.716-15-15s6.716-15 15-15h282c8.284 0 15 6.716 15 15s-6.716 15-15 15z" fill="#0a789b"/><path d="m444.5 431h-282c-8.284 0-15-6.716-15-15s6.716-15 15-15h282c8.284 0 15 6.716 15 15s-6.716 15-15 15z" fill="#0a789b"/><path d="m444.5 311h-52c-8.284 0-15-6.716-15-15s6.716-15 15-15h52c8.284 0 15 6.716 15 15s-6.716 15-15 15z" fill="#08475e"/><path d="m444.5 251h-72c-8.284 0-15-6.716-15-15s6.716-15 15-15h72c8.284 0 15 6.716 15 15s-6.716 15-15 15z" fill="#08475e"/><path d="m444.5 105h-30v-30c0-8.284-6.716-15-15-15s-15 6.716-15 15v30h-30c-8.284 0-15 6.716-15 15s6.716 15 15 15h30v30c0 8.284 6.716 15 15 15s15-6.716 15-15v-30h30c8.284 0 15-6.716 15-15s-6.716-15-15-15z" fill="#ff1f3d"/><g><g><path d="m342.5 281h-7.293l-7.911-47.466c-1.206-7.233-7.463-12.534-14.796-12.534h-70c-2.757 0-5-2.243-5-5v-25h45c8.284 0 15-6.716 15-15s-6.716-15-15-15h-45v-12.58c17.459-6.192 30-22.865 30-42.42 0-24.813-20.187-45-45-45s-45 20.187-45 45c0 19.555 12.541 36.228 30 42.42v14.089c-34.192 6.968-60 37.271-60 73.491 0 41.355 33.645 75 75 75 36.219 0 66.522-25.808 73.491-60h3.802l7.911 47.466c1.206 7.233 7.463 12.534 14.796 12.534h20c8.284 0 15-6.716 15-15s-6.716-15-15-15zm-120 0c-24.813 0-45-20.187-45-45 0-19.555 12.541-36.228 30-42.42v22.42c0 19.299 15.701 35 35 35h22.42c-6.192 17.459-22.865 30-42.42 30z" fill="#8bb9ff"/><path d="m342.5 281h-7.293l-7.911-47.466c-1.206-7.233-7.463-12.534-14.796-12.534h-70c-2.757 0-5-2.243-5-5v-25h45c8.284 0 15-6.716 15-15s-6.716-15-15-15h-45v-12.58c17.459-6.192 30-22.865 30-42.42 0-24.813-20.187-45-45-45v183.698c5.674 3.966 12.568 6.302 20 6.302h22.42c-6.192 17.459-22.865 30-42.42 30v30c36.219 0 66.522-25.808 73.491-60h3.802l7.911 47.466c1.206 7.233 7.463 12.534 14.796 12.534h20c8.284 0 15-6.716 15-15s-6.716-15-15-15z" fill="#7d81e7"/><g><path d="m342.5 281h-7.293l-7.911-47.466c-1.206-7.233-7.463-12.534-14.796-12.534h-70c-2.757 0-5-2.243-5-5v-25h45c8.284 0 15-6.716 15-15s-6.716-15-15-15h-45v-12.58c17.459-6.192 30-22.865 30-42.42 0-24.813-20.187-45-45-45s-45 20.187-45 45c0 19.555 12.541 36.228 30 42.42v14.089c-34.192 6.968-60 37.271-60 73.491 0 41.355 33.645 75 75 75 36.219 0 66.522-25.808 73.491-60h3.802l7.911 47.466c1.206 7.233 7.463 12.534 14.796 12.534h20c8.284 0 15-6.716 15-15s-6.716-15-15-15zm-120 0c-24.813 0-45-20.187-45-45 0-19.555 12.541-36.228 30-42.42v22.42c0 19.299 15.701 35 35 35h22.42c-6.192 17.459-22.865 30-42.42 30z" fill="#0a789b"/><path d="m342.5 281h-7.293l-7.911-47.466c-1.206-7.233-7.463-12.534-14.796-12.534h-70c-2.757 0-5-2.243-5-5v-25h45c8.284 0 15-6.716 15-15s-6.716-15-15-15h-45v-12.58c17.459-6.192 30-22.865 30-42.42 0-24.813-20.187-45-45-45v183.698c5.674 3.966 12.568 6.302 20 6.302h22.42c-6.192 17.459-22.865 30-42.42 30v30c36.219 0 66.522-25.808 73.491-60h3.802l7.911 47.466c1.206 7.233 7.463 12.534 14.796 12.534h20c8.284 0 15-6.716 15-15s-6.716-15-15-15z" fill="#08475e"/></g></g></g><g fill="#08475e"><path d="m459.5 356c0-8.284-6.716-15-15-15h-141v30h141c8.284 0 15-6.716 15-15z"/><path d="m444.5 401h-141v30h141c8.284 0 15-6.716 15-15s-6.716-15-15-15z"/></g></g></svg>