<svg id="Capa_1" enable-background="new 0 0 512 512" height="512" viewBox="0 0 512 512" width="512" xmlns="http://www.w3.org/2000/svg"><g><g><path d="m466 512h-420c-4.298 0-8.391-1.844-11.238-5.064s-4.176-7.508-3.649-11.773l9.167-74.253c7.102-57.528 56.169-100.91 114.134-100.91h203.173c57.964 0 107.031 43.382 114.134 100.909l9.167 74.253c.526 4.266-.802 8.553-3.649 11.773s-6.941 5.065-11.239 5.065z" fill="#8bb9ff"/><g><path d="m480.887 495.162-9.167-74.253c-7.102-57.527-56.169-100.909-114.134-100.909h-101.586v192h210c4.298 0 8.391-1.844 11.238-5.064s4.176-7.508 3.649-11.774z" fill="#7d81e7"/></g><path d="m244.287 394.37-40-50c-2.128-2.66-3.287-5.964-3.287-9.37v-58.487h110v58.487c0 3.406-1.159 6.711-3.287 9.37l-40 50c-6.005 7.507-17.421 7.507-23.426 0z" fill="#ffcbbc"/><path d="m267.713 394.37 40-50c2.128-2.66 3.287-5.964 3.287-9.37v-58.487h-55v123.487c4.355 0 8.711-1.876 11.713-5.63z" fill="#ffbca7"/><path d="m326 276.513h-130c-30.327 0-55 24.673-55 55v43.487h30v-43.487c0-13.785 11.215-25 25-25h130c13.785 0 25 11.215 25 25v63.487h30v-63.487c0-30.327-24.673-55-55-55z" fill="#0a789b"/><g><g><path d="m326 276.513h-70v30h70c13.785 0 25 11.215 25 25v63.487c0 8.284 6.716 15 15 15s15-6.716 15-15v-63.487c0-30.327-24.673-55-55-55z" fill="#08475e"/></g></g><path d="m256 320c-63.411 0-115-51.589-115-115v-70c0-8.284 6.716-15 15-15h200c8.284 0 15 6.716 15 15v70c0 63.411-51.589 115-115 115z" fill="#ffddce"/><g><path d="m356 120h-100v200c63.411 0 115-51.589 115-115v-70c0-8.284-6.716-15-15-15z" fill="#ffcbbc"/></g><path d="m356 150c-22.503 0-43.71-8.446-60-23.837-16.29 15.392-37.497 23.837-60 23.837h-80c-24.813 0-45-20.187-45-45v-9.865c0-52.457 42.677-95.135 95.135-95.135 7.771 0 15.534.956 23.073 2.841l68.639 17.159h28.153c41.355 0 75 33.645 75 75v10c0 24.813-20.187 45-45 45z" fill="#ff9f22"/><g fill="#fff5f5"><path d="m366 470c-24.813 0-45-20.187-45-45s20.187-45 45-45 45 20.187 45 45-20.187 45-45 45z"/><path d="m206 460h-20c-8.284 0-15-6.716-15-15s6.716-15 15-15h5v-5c0-19.299-15.701-35-35-35s-35 15.701-35 35v5h5c8.284 0 15 6.716 15 15s-6.716 15-15 15h-20c-8.284 0-15-6.716-15-15v-20c0-35.841 29.159-65 65-65s65 29.159 65 65v20c0 8.284-6.716 15-15 15z"/></g></g><circle cx="366" cy="425" fill="#e1e1e6" r="15"/><g><g><path d="m326 20h-28.153l-41.847-10.461v138.164c14.903-3.472 28.647-10.812 40-21.539 16.29 15.39 37.497 23.836 60 23.836 24.813 0 45-20.187 45-45v-10c0-41.355-33.645-75-75-75z" fill="#ff7038"/></g></g></g></svg>