<svg id="Capa_1" enable-background="new 0 0 512 512" height="512" viewBox="0 0 512 512" width="512" xmlns="http://www.w3.org/2000/svg"><g><g><g><path d="m47 260h-32c-8.284 0-15-6.716-15-15s6.716-15 15-15h32c8.284 0 15 6.716 15 15s-6.716 15-15 15z" fill="#7d81e7"/><path d="m47 360h-32c-8.284 0-15-6.716-15-15s6.716-15 15-15h32c8.284 0 15 6.716 15 15s-6.716 15-15 15z" fill="#7d81e7"/><g><path d="m249.397 296.254c-17.923-35.848-27.397-75.98-27.397-116.058v-10.196c0-18.698 7.282-36.277 20.504-49.499 6.656-6.655 14.417-11.801 22.868-15.275l-23.372-105.226c-115.794 0-210 94.206-210 210v182c0 66.168 53.832 120 120 120s120-53.832 120-120c0-33.064-7.816-66.173-22.603-95.746z" fill="#8bb9ff"/><path d="m242 0c0 32.089 8.31 76.869 23.373 105.226 8.337-3.427 17.345-5.226 26.631-5.226 46.641.003 84.752 36.506 86.763 83.103l4.01 92.897 69.223 1v-57c0-125.794-94.206-220-210-220z" fill="#d2d2d7"/></g><path d="m472 418h-110v-141c0-8.284 6.716-15 15-15h80c8.284 0 15 6.716 15 15z" fill="#fff5f5"/><g><path d="m472 277c0-8.284-6.716-15-15-15h-40v156h55z" fill="#e1e1e6"/></g><circle cx="417" cy="417" fill="#fff5f5" r="80"/><g><path d="m417 337v160c44.183 0 80-35.817 80-80s-35.817-80-80-80z" fill="#e1e1e6"/></g><path d="m417 512c-52.383 0-95-42.617-95-95s42.617-95 95-95 95 42.617 95 95-42.617 95-95 95zm0-160c-35.841 0-65 29.159-65 65s29.159 65 65 65 65-29.159 65-65-29.159-65-65-65z" fill="#0a789b"/><g><path d="m417 322v30c35.841 0 65 29.159 65 65s-29.159 65-65 65v30c52.383 0 95-42.617 95-95s-42.617-95-95-95z" fill="#08475e"/></g><circle cx="417" cy="417" fill="#e1e1e6" r="30"/><g><path d="m417 387v60c16.569 0 30-13.431 30-30s-13.431-30-30-30z" fill="#d2d2d7"/></g></g></g><path d="m249.397 296.254c-17.923-35.848-27.397-75.98-27.397-116.058v-10.196c0-18.698 7.282-36.277 20.504-49.499 6.656-6.655 14.417-11.801 22.868-15.275l-23.372-105.226c-32.19 0-62.707 7.289-90 20.29v491.71c66.168 0 120-53.832 120-120 0-33.064-7.816-66.173-22.603-95.746z" fill="#7d81e7"/></g></svg>