<svg id="Capa_1" enable-background="new 0 0 512 512" height="512" viewBox="0 0 512 512" width="512" xmlns="http://www.w3.org/2000/svg"><g><g><g><path d="m408.426 211.829-32.33-41.566c-14.644-18.83-36.819-29.529-60.718-29.258-16.402.186-32.264 5.91-45.386 15.752l-13.992 10.493-13.991-10.493c-13.123-9.842-28.984-15.565-45.386-15.752-23.899-.272-46.074 10.427-60.717 29.257l-32.331 41.568c-10.405 13.377-24.25 23.419-40.142 29.17 0 8.284 6.716 15 15 15h355.136c8.284 0 15-6.716 15-15-15.893-5.752-29.738-15.794-40.143-29.171z" fill="#ff7038"/><path d="m433.568 256c8.284 0 15-6.716 15-15-15.892-5.752-29.738-15.794-40.142-29.171l-32.33-41.566c-14.644-18.83-36.819-29.529-60.718-29.258-16.402.186-32.264 5.91-45.386 15.752l-13.992 10.493v88.75z" fill="#ff1f3d"/><path d="m440.8 256h-369.6c-8.284 0-15 6.716-15 15 13.301 28.327 33.838 52.42 59.908 70.07 28.921 19.58 62.669 29.93 97.595 29.93h84.594c34.926 0 68.674-10.35 97.595-29.93 26.071-17.65 46.607-41.743 59.908-70.07 0-8.284-6.716-15-15-15z" fill="#ff7038"/><path d="m440.8 256h-184.8v115h42.297c34.926 0 68.674-10.35 97.595-29.93 26.071-17.65 46.607-41.743 59.908-70.07 0-8.284-6.716-15-15-15z" fill="#ff1f3d"/><path d="m459.607 249.689c-1.738-3.748-4.945-6.613-8.864-7.919-.731-.244-1.452-.508-2.175-.77h-78.586c-13.256-7.299-58.912-30-113.982-30s-100.726 22.701-113.982 30h-78.586c-.723.262-1.444.526-2.175.77-3.919 1.307-7.126 4.171-8.864 7.919s-1.854 8.046-.319 11.882c1.279 3.197 2.672 6.331 4.127 9.429h85.818c13.256 7.299 58.912 30 113.982 30s100.726-22.701 113.982-30h85.817c1.455-3.098 2.848-6.232 4.127-9.429 1.534-3.836 1.419-8.134-.32-11.882z" fill="#0a789b"/><g><g><path d="m369.982 271h85.818c1.455-3.098 2.848-6.232 4.127-9.429 1.534-3.836 1.419-8.134-.319-11.882s-4.945-6.613-8.864-7.919c-.731-.244-1.452-.508-2.175-.77h-78.586c-13.256-7.299-58.912-30-113.982-30v90c55.069 0 100.725-22.701 113.981-30z" fill="#08475e"/></g></g></g></g><path d="m256 0c-141.159 0-256 114.841-256 256s114.841 256 256 256 256-114.841 256-256-114.841-256-256-256zm-226 256c0-124.617 101.383-226 226-226 57.176 0 109.451 21.353 149.297 56.489l-318.807 318.808c-35.136-39.846-56.49-92.121-56.49-149.297zm226 226c-56.668 0-108.527-20.969-148.237-55.549l318.687-318.689c34.581 39.711 55.55 91.57 55.55 148.238 0 124.617-101.383 226-226 226z" fill="#ff9f22"/><path d="m256 0v30c57.176 0 109.451 21.353 149.297 56.489l-149.297 149.298v42.426l170.45-170.451c34.581 39.711 55.55 91.57 55.55 148.238 0 124.617-101.383 226-226 226v30c141.159 0 256-114.841 256-256s-114.841-256-256-256z" fill="#ff7038"/></g></svg>