<svg id="Capa_1" enable-background="new 0 0 511 511" height="512" viewBox="0 0 511 511" width="512" xmlns="http://www.w3.org/2000/svg"><g><path d="m270.646 319.986c-7.201 0-13.555-5.199-14.778-12.537l-11.093-66.559c-2.018-12.104-12.388-20.89-24.66-20.89h-18.115c-8.284 0-15-6.716-15-15s6.716-15 15-15h18.115c26.997 0 49.813 19.328 54.251 45.958l11.093 66.56c1.362 8.171-4.158 15.9-12.33 17.262-.834.138-1.665.206-2.483.206z" fill="#fff5f5"/><g><g><g><g><g><path d="m474 511c-16.569 0-30-13.431-30-30v-65c0-30.376-24.624-55-55-55h-30.183c-8.284 0-15-6.716-15-15v-30c0-8.284 6.716-15 15-15h30.183c63.513 0 115 51.487 115 115v65c0 16.569-13.431 30-30 30z" fill="#525cdd"/><path d="m469 316h-155c-8.284 0-15-6.716-15-15v-115c0-24.853 20.147-45 45-45 24.853 0 45 20.147 45 45v70h80c16.569 0 30 13.431 30 30 0 16.569-13.431 30-30 30z" fill="#8bb9ff"/><path d="m469 256h-80v-70c0-24.853-20.147-45-45-45v175h125c16.568 0 30-13.431 30-30s-13.431-30-30-30z" fill="#7d81e7"/><circle cx="314" cy="396" fill="#fff5f5" r="100"/><path d="m314 296v200c55.229 0 100-44.772 100-100s-44.771-100-100-100z" fill="#e1e1e6"/><path d="m314 511c-63.411 0-115-51.589-115-115s51.589-115 115-115 115 51.589 115 115-51.589 115-115 115zm0-200c-46.869 0-85 38.131-85 85s38.131 85 85 85 85-38.131 85-85-38.131-85-85-85z" fill="#0a789b"/><path d="m314 311c46.869 0 85 38.131 85 85s-38.131 85-85 85v30c63.411 0 115-51.589 115-115s-51.589-115-115-115z" fill="#08475e"/><path d="m314 436c-22.056 0-40-17.944-40-40s17.944-40 40-40 40 17.944 40 40-17.944 40-40 40z" fill="#0a789b"/><g><path d="m314 436c-22.056 0-40-17.944-40-40s17.944-40 40-40 40 17.944 40 40-17.944 40-40 40z" fill="#0a789b"/><path d="m314 356v80c22.056 0 40-17.944 40-40s-17.944-40-40-40z" fill="#08475e"/></g><path d="m371.5 156c-26.192 0-47.5-21.308-47.5-47.5s21.308-47.5 47.5-47.5 47.5 21.308 47.5 47.5-21.308 47.5-47.5 47.5z" fill="#ffddce"/></g></g></g></g><path d="m344 147.193c7.767 5.536 17.256 8.807 27.5 8.807 26.192 0 47.5-21.308 47.5-47.5s-21.308-47.5-47.5-47.5c-10.244 0-19.733 3.271-27.5 8.807z" fill="#ffcbbc"/></g><g><g><g><path d="m72 510c-16.569 0-30-13.431-30-30v-137.958l-32.481-48.721c-1.642-2.464-2.519-5.36-2.519-8.321v-105c0-8.284 6.716-20 15-20h65c8.284 0 15 6.716 15 15v305c0 16.569-13.431 30-30 30z" fill="#ff9f22"/></g></g></g><path d="m87 160h-25v348.286c3.129 1.106 6.493 1.714 10 1.714 16.568 0 30-13.431 30-30v-305c0-8.284-6.716-15-15-15z" fill="#ff7038"/><path d="m62 265h40v-90c0-8.284-6.716-15-15-15h-65c-8.284 0-15 11.716-15 20v64.731c14.837 12.626 34.038 20.269 55 20.269z" fill="#ff7038"/><path d="m87 160h-25v105h40v-90c0-8.284-6.716-15-15-15z" fill="#ff1f3d"/><g><g><g><path d="m117 175v-40c0-30.376-24.624-55-55-55-30.376 0-55 24.624-55 55v45c0 30.376 24.624 55 55 55h125c16.569 0 30-13.431 30-30 0-16.569-13.431-30-30-30z" fill="#ff9f22"/><path d="m187 175h-70v-40c0-30.376-24.624-55-55-55v155h125c16.568 0 30-13.431 30-30s-13.431-30-30-30z" fill="#ff7038"/><path d="" style="fill:none;stroke:#000;stroke-width:30;stroke-linecap:round;stroke-linejoin:round;stroke-miterlimit:10"/></g></g></g><path d="m62 95c-26.192 0-47.5-21.308-47.5-47.5s21.308-47.5 47.5-47.5 47.5 21.308 47.5 47.5-21.308 47.5-47.5 47.5z" fill="#ffddce"/><path d="m62 0v95c26.192 0 47.5-21.308 47.5-47.5s-21.308-47.5-47.5-47.5z" fill="#ffcbbc"/></g></svg>