<svg id="Capa_1" enable-background="new 0 0 512 512" height="512" viewBox="0 0 512 512" width="512" xmlns="http://www.w3.org/2000/svg"><g><path d="m457 86h-402c-22.091 0-40 17.909-40 40v260c0 22.091 17.909 40 40 40h402c22.091 0 40-17.909 40-40v-260c0-22.091-17.909-40-40-40z" fill="#0a789b"/><g><path d="m457 86h-322v340h322c22.091 0 40-17.909 40-40v-260c0-22.091-17.909-40-40-40z" fill="#08475e"/></g><path d="m457 71h-402c-30.327 0-55 24.673-55 55v260c0 30.327 24.673 55 55 55h402c30.327 0 55-24.673 55-55v-260c0-30.327-24.673-55-55-55zm-427 315v-260c0-13.785 11.215-25 25-25h245v310h-245c-13.785 0-25-11.215-25-25zm452 0c0 13.785-11.215 25-25 25h-127v-310h127c13.785 0 25 11.215 25 25z" fill="#fff16b"/><g><path d="m457 71h-322v30h165v310h-165v30h322c30.327 0 55-24.673 55-55v-260c0-30.327-24.673-55-55-55zm25 315c0 13.785-11.215 25-25 25h-127v-310h127c13.785 0 25 11.215 25 25z" fill="#ffd845"/></g><g fill="#ffd845"><path d="m441.329 233.5h-70.657c-7.987 0-12.751-8.901-8.321-15.547l35.329-52.993c3.958-5.937 12.683-5.937 16.641 0l35.329 52.993c4.429 6.646-.335 15.547-8.321 15.547z"/><path d="m397.679 347.04-35.329-52.993c-4.43-6.646.334-15.547 8.321-15.547h70.657c7.987 0 12.751 8.901 8.321 15.547l-35.329 52.993c-3.958 5.938-12.682 5.938-16.641 0z"/></g><g><g><path d="m255 351h-7.293l-7.911-47.466c-1.206-7.233-7.463-12.534-14.796-12.534h-70c-2.757 0-5-2.243-5-5v-25h45c8.284 0 15-6.716 15-15s-6.716-15-15-15h-45v-12.58c17.459-6.192 30-22.865 30-42.42 0-24.813-20.187-45-45-45s-45 20.187-45 45c0 19.555 12.541 36.228 30 42.42v14.089c-34.192 6.969-60 37.271-60 73.491 0 41.355 33.645 75 75 75 36.219 0 66.522-25.808 73.491-60h3.802l7.911 47.466c1.206 7.233 7.463 12.534 14.796 12.534h20c8.284 0 15-6.716 15-15s-6.716-15-15-15zm-120 0c-24.813 0-45-20.187-45-45 0-19.555 12.541-36.228 30-42.42v22.42c0 19.299 15.701 35 35 35h22.42c-6.192 17.459-22.865 30-42.42 30z" fill="#8bb9ff"/><path d="m255 351h-7.293l-7.911-47.466c-1.206-7.233-7.463-12.534-14.796-12.534h-70c-2.757 0-5-2.243-5-5v-25h45c8.284 0 15-6.716 15-15s-6.716-15-15-15h-45v-12.58c17.459-6.192 30-22.865 30-42.42 0-24.813-20.187-45-45-45v183.698c5.674 3.966 12.568 6.302 20 6.302h22.42c-6.192 17.459-22.865 30-42.42 30v30c36.219 0 66.522-25.808 73.491-60h3.802l7.911 47.466c1.206 7.233 7.463 12.534 14.796 12.534h20c8.284 0 15-6.716 15-15s-6.716-15-15-15z" fill="#7d81e7"/><g><path d="m255 351h-7.293l-7.911-47.466c-1.206-7.233-7.463-12.534-14.796-12.534h-70c-2.757 0-5-2.243-5-5v-25h45c8.284 0 15-6.716 15-15s-6.716-15-15-15h-45v-12.58c17.459-6.192 30-22.865 30-42.42 0-24.813-20.187-45-45-45s-45 20.187-45 45c0 19.555 12.541 36.228 30 42.42v14.089c-34.192 6.969-60 37.271-60 73.491 0 41.355 33.645 75 75 75 36.219 0 66.522-25.808 73.491-60h3.802l7.911 47.466c1.206 7.233 7.463 12.534 14.796 12.534h20c8.284 0 15-6.716 15-15s-6.716-15-15-15zm-120 0c-24.813 0-45-20.187-45-45 0-19.555 12.541-36.228 30-42.42v22.42c0 19.299 15.701 35 35 35h22.42c-6.192 17.459-22.865 30-42.42 30z" fill="#fff5f5"/><path d="m255 351h-7.293l-7.911-47.466c-1.206-7.233-7.463-12.534-14.796-12.534h-70c-2.757 0-5-2.243-5-5v-25h45c8.284 0 15-6.716 15-15s-6.716-15-15-15h-45v-12.58c17.459-6.192 30-22.865 30-42.42 0-24.813-20.187-45-45-45v183.698c5.674 3.966 12.568 6.302 20 6.302h22.42c-6.192 17.459-22.865 30-42.42 30v30c36.219 0 66.522-25.808 73.491-60h3.802l7.911 47.466c1.206 7.233 7.463 12.534 14.796 12.534h20c8.284 0 15-6.716 15-15s-6.716-15-15-15z" fill="#e1e1e6"/></g></g></g></g></svg>