<svg id="Capa_1" enable-background="new 0 0 512 512" height="512" viewBox="0 0 512 512" width="512" xmlns="http://www.w3.org/2000/svg"><g><path d="m316 110h-120c-8.284 0-15-6.716-15-15v-20c0-41.421 33.579-75 75-75 41.421 0 75 33.579 75 75v20c0 8.284-6.716 15-15 15z" fill="#fff5f5"/><path d="m316 110c8.284 0 15-6.716 15-15v-20c0-41.421-33.579-75-75-75v110z" fill="#e1e1e6"/><path d="m256 110c-8.284 0-15-6.716-15-15v-30c0-8.284 6.716-15 15-15s15 6.716 15 15v30c0 8.284-6.716 15-15 15z" fill="#e1e1e6"/><path d="m271 95v-30c0-8.284-6.716-15-15-15v60c8.284 0 15-6.716 15-15z" fill="#d2d2d7"/><path d="m376 512h-240c-30.327 0-55-24.673-55-55v-322c0-30.327 24.673-55 55-55h240c30.327 0 55 24.673 55 55v322c0 30.327-24.673 55-55 55z" fill="#ff9f22"/><path d="m431 457v-322c0-30.327-24.673-55-55-55h-120v432h120c30.327 0 55-24.673 55-55z" fill="#ff7038"/><g><path d="m470.689 375.64c-3.839 0-7.678-1.465-10.606-4.394-5.858-5.857-5.858-15.355 0-21.213 29.242-29.243 29.242-76.823 0-106.066-5.858-5.857-5.858-15.355 0-21.213 5.857-5.857 15.355-5.857 21.213 0 40.939 40.939 40.939 107.553 0 148.492-2.929 2.929-6.768 4.394-10.607 4.394z" fill="#08475e"/><path d="m41.311 375.64c-3.839 0-7.677-1.464-10.607-4.394-40.938-40.939-40.938-107.553 0-148.492 5.858-5.857 15.356-5.857 21.213 0 5.858 5.857 5.858 15.355 0 21.213-29.242 29.242-29.242 76.824 0 106.066 5.858 5.857 5.858 15.355 0 21.213-2.928 2.929-6.768 4.394-10.606 4.394z" fill="#0a789b"/></g><path d="m256 386c-66.168 0-120-53.832-120-120s53.832-120 120-120 120 53.832 120 120-53.832 120-120 120z" fill="#fff5f5"/><path d="m376 266c0-66.168-53.832-120-120-120v240c66.168 0 120-53.832 120-120z" fill="#e1e1e6"/><path d="m256 256c-8.284 0-15-6.716-15-15v-30c0-8.284 6.716-15 15-15s15 6.716 15 15v30c0 8.284-6.716 15-15 15z" fill="#ffd845"/><path d="m271 241v-30c0-8.284-6.716-15-15-15v60c8.284 0 15-6.716 15-15z" fill="#ff9f22"/><path d="m351 446h-190c-8.284 0-15-6.716-15-15s6.716-15 15-15h190c8.284 0 15 6.716 15 15s-6.716 15-15 15z" fill="#fff5f5"/><path d="m291 316h-70c-4.409 0-8.595-1.94-11.445-5.305s-4.076-7.812-3.351-12.161l5.89-35.34c3.592-21.551 22.057-37.194 43.906-37.194s40.313 15.643 43.906 37.194l5.89 35.34c.725 4.35-.501 8.797-3.351 12.161s-7.036 5.305-11.445 5.305z" fill="#fff16b"/><g><path d="m351 416h-95v30h95c8.284 0 15-6.716 15-15s-6.716-15-15-15z" fill="#e1e1e6"/><path d="m291 316c4.409 0 8.596-1.94 11.445-5.305s4.075-7.812 3.351-12.161l-5.89-35.34c-3.593-21.551-22.057-37.194-43.906-37.194v90z" fill="#ffd845"/></g></g></svg>