<svg id="Capa_1" enable-background="new 0 0 512 512" height="512" viewBox="0 0 512 512" width="512" xmlns="http://www.w3.org/2000/svg"><g><g><path d="m327.781 400h-143.562l-23.659 97h190.88z" fill="#e1e1e6"/></g><g><path d="m327.781 400h-71.781v97h95.44z" fill="#d2d2d7"/></g><path d="m457 415h-402c-22.091 0-40-17.909-40-40v-320c0-22.091 17.909-40 40-40h402c22.091 0 40 17.909 40 40v320c0 22.091-17.909 40-40 40z" fill="#8bb9ff"/><g><path d="m457 15h-201v400h201c22.091 0 40-17.909 40-40v-320c0-22.091-17.909-40-40-40z" fill="#7d81e7"/></g><g><path d="m376 512h-240c-8.284 0-15-6.716-15-15s6.716-15 15-15h240c8.284 0 15 6.716 15 15s-6.716 15-15 15z" fill="#fff5f5"/><g><path d="m457 0h-402c-30.327 0-55 24.673-55 55v320c0 30.327 24.673 55 55 55h402c30.327 0 55-24.673 55-55v-320c0-30.327-24.673-55-55-55zm-427 340v-285c0-13.785 11.215-25 25-25h402c13.785 0 25 11.215 25 25v285z" fill="#fff5f5"/><path d="m457 0h-201v30h201c13.785 0 25 11.215 25 25v285h-226v90h201c30.327 0 55-24.673 55-55v-320c0-30.327-24.673-55-55-55z" fill="#e1e1e6"/><g fill="#08475e"><path d="m437 110h-142c-8.284 0-15-6.716-15-15s6.716-15 15-15h142c8.284 0 15 6.716 15 15s-6.716 15-15 15z"/><path d="m437 170h-142c-8.284 0-15-6.716-15-15s6.716-15 15-15h142c8.284 0 15 6.716 15 15s-6.716 15-15 15z"/><path d="m437 230h-142c-8.284 0-15-6.716-15-15s6.716-15 15-15h142c8.284 0 15 6.716 15 15s-6.716 15-15 15z"/><path d="m437 290h-102c-8.284 0-15-6.716-15-15s6.716-15 15-15h102c8.284 0 15 6.716 15 15s-6.716 15-15 15z"/></g></g></g><g><g><g><path d="m255 280h-7.293l-7.911-47.466c-1.206-7.233-7.463-12.534-14.796-12.534h-70c-2.757 0-5-2.243-5-5v-25h45c8.284 0 15-6.716 15-15s-6.716-15-15-15h-45v-12.58c17.459-6.192 30-22.865 30-42.42 0-24.813-20.187-45-45-45s-45 20.187-45 45c0 19.555 12.541 36.228 30 42.42v14.089c-34.192 6.969-60 37.271-60 73.491 0 41.355 33.645 75 75 75 36.219 0 66.522-25.808 73.491-60h3.802l7.911 47.466c1.206 7.233 7.463 12.534 14.796 12.534h20c8.284 0 15-6.716 15-15s-6.716-15-15-15zm-120 0c-24.813 0-45-20.187-45-45 0-19.555 12.541-36.228 30-42.42v22.42c0 19.299 15.701 35 35 35h22.42c-6.192 17.459-22.865 30-42.42 30z" fill="#fff5f5"/><path d="m255 280h-7.293l-7.911-47.466c-1.206-7.233-7.463-12.534-14.796-12.534h-70c-2.757 0-5-2.243-5-5v-25h45c8.284 0 15-6.716 15-15s-6.716-15-15-15h-45v-12.58c17.459-6.192 30-22.865 30-42.42 0-24.813-20.187-45-45-45v183.698c5.674 3.966 12.568 6.302 20 6.302h22.42c-6.192 17.459-22.865 30-42.42 30v30c36.219 0 66.522-25.808 73.491-60h3.802l7.911 47.466c1.206 7.233 7.463 12.534 14.796 12.534h20c8.284 0 15-6.716 15-15s-6.716-15-15-15z" fill="#e1e1e6"/></g></g></g><g><g><path d="m376 512c8.284 0 15-6.716 15-15s-6.716-15-15-15h-120v30z" fill="#e1e1e6"/></g></g></g></svg>