<svg id="Capa_1" enable-background="new 0 0 512 512" height="512" viewBox="0 0 512 512" width="512" xmlns="http://www.w3.org/2000/svg"><g><g><g><path d="m266 407c-8.284 0-15-6.716-15-15v-170.754c0-37.328 20.74-70.887 54.128-87.58 15.959-7.979 25.872-24.02 25.872-41.862 0-25.808-20.996-46.804-46.804-46.804h-58.196c-8.284 0-15-6.716-15-15s6.716-15 15-15h58.196c42.35 0 76.804 34.454 76.804 76.804 0 29.279-16.269 55.602-42.456 68.695-23.158 11.578-37.544 34.855-37.544 60.747v170.754c0 8.284-6.716 15-15 15z" fill="#fff5f5"/><path d="m281 392v-170.754c0-25.892 14.386-49.169 37.544-60.747 26.187-13.094 42.456-39.416 42.456-68.695 0-42.35-34.454-76.804-76.804-76.804h-18.196v30h18.196c25.808 0 46.804 20.996 46.804 46.804 0 17.843-9.913 33.883-25.872 41.862-16.43 8.215-29.788 20.519-39.128 35.341v237.993c8.284 0 15-6.716 15-15z" fill="#e1e1e6"/><path d="m266 362c-20.711 0-37.5 16.789-37.5 37.5v37.5h75v-37.5c0-20.711-16.789-37.5-37.5-37.5z" fill="#0a789b"/><path d="m303.5 399.5c0-20.711-16.789-37.5-37.5-37.5v75h37.5z" fill="#08475e"/><path d="m211 60h-90c-16.569 0-30-13.431-30-30 0-16.569 13.431-30 30-30h90c16.569 0 30 13.431 30 30 0 16.569-13.431 30-30 30z" fill="#8bb9ff"/><path d="m401 497v-20c0-30.327-24.673-55-55-55h-160c-30.327 0-55 24.673-55 55v20h30v-20c0-13.785 11.215-25 25-25h65v45h30v-45h65c13.785 0 25 11.215 25 25v20z" fill="#fff5f5"/><g><path d="m346 422h-80v75h15v-45h65c13.785 0 25 11.215 25 25v20h30v-20c0-30.327-24.673-55-55-55z" fill="#e1e1e6"/></g></g><path d="m406 512h-40c-8.284 0-15-6.716-15-15s6.716-15 15-15h40c8.284 0 15 6.716 15 15s-6.716 15-15 15z" fill="#08475e"/><g fill="#0a789b"><path d="m286 512h-40c-8.284 0-15-6.716-15-15s6.716-15 15-15h40c8.284 0 15 6.716 15 15s-6.716 15-15 15z"/><path d="m166 512h-40c-8.284 0-15-6.716-15-15s6.716-15 15-15h40c8.284 0 15 6.716 15 15s-6.716 15-15 15z"/></g></g><g><g><path d="m286 512c8.284 0 15-6.716 15-15s-6.716-15-15-15h-20v30z" fill="#08475e"/></g></g></g></svg>