<svg id="Layer_1" enable-background="new 0 0 512.045 512.045" height="512" viewBox="0 0 512.045 512.045" width="512" xmlns="http://www.w3.org/2000/svg"><g><g><path d="m427.266 512.045c-21.726 0-43.451-8.27-59.991-24.81l-142.668-142.667c-33.078-33.079-33.079-86.903 0-119.982 15.97-15.97 37.275-24.765 59.991-24.765 22.717 0 44.022 8.795 59.991 24.765l142.667 142.667c15.97 15.969 24.766 37.275 24.766 59.991s-8.795 44.022-24.765 59.991c-16.539 16.54-38.265 24.81-59.991 24.81z" fill="#00607f"/></g><ellipse clip-rule="evenodd" cx="215.523" cy="215.5" fill="#f9f9f9" fill-rule="evenodd" rx="200.5" ry="200.5" transform="matrix(.707 -.707 .707 .707 -89.257 215.516)"/><path d="m215.522 431c-118.827 0-215.5-96.673-215.5-215.5s96.673-215.5 215.5-215.5 215.501 96.673 215.501 215.5-96.673 215.5-215.501 215.5zm0-401c-102.285 0-185.5 83.215-185.5 185.5s83.215 185.5 185.5 185.5 185.501-83.215 185.501-185.5-83.215-185.5-185.501-185.5z" fill="#b6baf2"/><g clip-rule="evenodd" fill-rule="evenodd"><path d="m215.523 15v401c110.432 0 200.5-90.068 200.5-200.5s-90.068-200.5-200.5-200.5z" fill="#e2dff4"/><path d="m173.759 114h82.825c11.885 0 23.03 5.802 27.476 16.824l19.231 47.675h-176.224l19.212-47.667c4.444-11.027 15.591-16.832 27.48-16.832z" fill="#e2dff4"/><path d="m215.523 178.499h87.768l-19.231-47.675c-4.446-11.022-15.59-16.824-27.476-16.824h-41.061z" fill="#bebcdd"/></g><path d="m303.291 193.499h-176.224c-4.984 0-9.644-2.476-12.432-6.607-2.789-4.131-3.344-9.377-1.48-14l19.212-47.667c6.52-16.176 22.38-26.225 41.393-26.225h82.824c19.006 0 34.865 10.044 41.388 26.212l19.23 47.675c1.864 4.623 1.311 9.871-1.478 14.003-2.788 4.132-7.448 6.609-12.433 6.609zm-154.006-30h131.781l-10.917-27.063c-2.211-5.482-8.457-7.435-13.565-7.435h-82.824c-5.109 0-11.357 1.954-13.568 7.439z" fill="#e63950"/><path d="m317.202 172.887-19.23-47.675c-6.523-16.168-22.382-26.212-41.388-26.212h-41.061v30h41.061c5.108 0 11.354 1.953 13.565 7.435l10.917 27.063h-65.543v30h87.768c4.985 0 9.645-2.477 12.434-6.608 2.788-4.132 3.341-9.38 1.477-14.003z" fill="#ae2538"/><path d="m215.523 0v30c102.285 0 185.5 83.216 185.5 185.5s-83.215 185.5-185.5 185.5v30c118.827 0 215.5-96.673 215.5-215.5s-96.673-215.5-215.5-215.5z" fill="#7c84e8"/><g><path d="m94.679 304c-8.284 0-15-6.716-15-15v-36c0-8.284 6.716-15 15-15s15 6.716 15 15v36c0 8.284-6.716 15-15 15z" fill="#00607f"/></g><g><path d="m335.679 304c-8.284 0-15-6.716-15-15v-36c0-8.284 6.716-15 15-15s15 6.716 15 15v36c0 8.284-6.716 15-15 15z" fill="#002c3c"/></g><path d="m359.561 176.771c0-8.284-6.716-15-15-15h-258.764c-8.284 0-15 6.716-15 15s6.716 15 15 15h2.85c-2.916 4.814-5.2 10.058-6.733 15.613-1.456 5.276 12.765 10.347 12.765 16.084l-14.999 13.917v30.385c0 8.284 6.716 15 15 15h240.999c8.284 0 15-6.716 15-15v-30.39l-18.167-13.955c0-5.737 17.388-10.765 15.933-16.042-1.533-5.555-3.816-10.799-6.733-15.613h2.85c8.283.001 14.999-6.715 14.999-14.999z" fill="#ff5b5b"/><path d="m359.561 176.771c0-8.284-6.716-15-15-15h-129.038v121h120.156c8.284 0 15-6.716 15-15v-30.39l-18.167-13.955c0-5.738 17.388-10.765 15.932-16.042-1.533-5.555-3.816-10.799-6.733-15.613h2.85c8.284 0 15-6.716 15-15z" fill="#e63950"/><path d="m105.182 207.385h-23.262c-1.456 5.277-2.24 10.832-2.24 16.57v13.43h25.502c8.284 0 15-6.716 15-15s-6.716-15-15-15z" fill="#ffd321"/><path d="m325.055 207.385c-8.284 0-15 6.716-15 15s6.716 15 15 15h25.528c.032 0 .063-.005.096-.005v-13.425c0-5.738-.784-11.293-2.24-16.57z" fill="#ff9d21"/><g><path d="m253.679 237.385h-76.999c-8.284 0-15-6.716-15-15s6.716-15 15-15h76.999c8.284 0 15 6.716 15 15s-6.716 15-15 15z" fill="#00607f"/></g><path d="m253.679 207.385h-38.156v30h38.156c8.284 0 15-6.716 15-15s-6.716-15-15-15z" fill="#002c3c"/></g></svg>