<svg id="Layer_1" enable-background="new 0 0 512.045 512.045" height="512" viewBox="0 0 512.045 512.045" width="512" xmlns="http://www.w3.org/2000/svg"><g><g><path d="m427.266 512.045c-21.726 0-43.451-8.27-59.991-24.81l-142.668-142.667c-33.078-33.079-33.079-86.903 0-119.982 15.97-15.97 37.275-24.765 59.991-24.765 22.717 0 44.022 8.795 59.991 24.765l142.667 142.667c15.97 15.969 24.766 37.275 24.766 59.991s-8.795 44.022-24.765 59.991c-16.539 16.54-38.265 24.81-59.991 24.81z" fill="#00607f"/></g><ellipse clip-rule="evenodd" cx="215.523" cy="215.5" fill="#f9f9f9" fill-rule="evenodd" rx="200.5" ry="200.5" transform="matrix(.707 -.707 .707 .707 -89.257 215.516)"/><path d="m215.522 431c-118.827 0-215.5-96.673-215.5-215.5s96.673-215.5 215.5-215.5 215.501 96.673 215.501 215.5-96.673 215.5-215.501 215.5zm0-401c-102.285 0-185.5 83.215-185.5 185.5s83.215 185.5 185.5 185.5 185.501-83.215 185.501-185.5-83.215-185.5-185.501-185.5z" fill="#b6baf2"/><path clip-rule="evenodd" d="m215.523 15v401c110.432 0 200.5-90.068 200.5-200.5s-90.068-200.5-200.5-200.5z" fill="#e2dff4" fill-rule="evenodd"/><path d="m215.523 0v30c102.285 0 185.5 83.216 185.5 185.5s-83.215 185.5-185.5 185.5v30c118.827 0 215.5-96.673 215.5-215.5s-96.673-215.5-215.5-215.5z" fill="#7c84e8"/><g><path d="m278.111 276.119h-118.959c-8.284 0-15-6.716-15-15s6.716-15 15-15h115.145c1.218-.319 2.496-.489 3.814-.489 8.284 0 15 6.716 15 15v.489c0 8.284-6.715 15-15 15z" fill="#bee75e"/></g><g><path d="m311.28 246.169c-8.284 0-15-6.716-15-15v-116.669h-16.202c-8.284 0-15-6.716-15-15s6.716-15 15-15h31.202c8.284 0 15 6.716 15 15v131.669c0 8.285-6.716 15-15 15z" fill="#00cb75"/></g><ellipse clip-rule="evenodd" cx="119.052" cy="261.069" fill="#e2dff4" fill-rule="evenodd" rx="30" ry="30" transform="matrix(.993 -.121 .121 .993 -30.79 16.369)"/><path d="m119.052 306.069c-24.813 0-45-20.187-45-45s20.187-45 45-45 45 20.187 45 45-20.187 45-45 45zm0-60c-8.271 0-15 6.729-15 15s6.729 15 15 15 15-6.729 15-15-6.729-15-15-15z" fill="#00607f"/><path d="m278.111 245.63c-1.318 0-2.596.17-3.814.489h-58.774v30h62.588c8.284 0 15-6.716 15-15v-.489c0-8.284-6.715-15-15-15z" fill="#00cb75"/><ellipse clip-rule="evenodd" cx="311.28" cy="261.169" fill="#bebcdd" fill-rule="evenodd" rx="30" ry="30" transform="matrix(.99 -.138 .138 .99 -33.093 45.503)"/><path d="m311.28 306.169c-24.813 0-45-20.187-45-45s20.187-45 45-45 45 20.187 45 45-20.187 45-45 45zm0-60c-8.271 0-15 6.729-15 15s6.729 15 15 15 15-6.729 15-15-6.729-15-15-15z" fill="#00607f"/></g></svg>