<svg id="Layer_1" enable-background="new 0 0 512 512" height="512" viewBox="0 0 512 512" width="512" xmlns="http://www.w3.org/2000/svg"><g><g><g><path d="m256 512c-21.096 0-45.146-10.662-71.484-31.69-23.021-18.38-46.633-43.875-68.284-73.729-47.421-65.387-75.732-136.819-75.732-191.081 0-57.562 22.416-111.679 63.119-152.381 40.702-40.703 94.818-63.119 152.381-63.119s111.679 22.416 152.381 63.119c40.703 40.702 63.119 94.819 63.119 152.381 0 54.262-28.311 125.694-75.732 191.081-21.65 29.854-45.263 55.349-68.284 73.729-26.338 21.028-50.388 31.69-71.484 31.69z" fill="#ffd321"/></g></g><path d="m408.381 63.119c-40.702-40.703-94.819-63.119-152.381-63.119v512c21.096 0 45.146-10.662 71.484-31.69 23.021-18.38 46.633-43.875 68.284-73.729 47.421-65.387 75.732-136.819 75.732-191.081 0-57.562-22.416-111.679-63.119-152.381z" fill="#ff9d21"/><g><path d="m348.148 307c-33.733 0-61.178-27.444-61.178-61.177s27.444-61.177 61.178-61.177 61.177 27.444 61.177 61.177-27.443 61.177-61.177 61.177zm0-92.354c-17.191 0-31.178 13.986-31.178 31.177s13.987 31.177 31.178 31.177 31.177-13.986 31.177-31.177-13.985-31.177-31.177-31.177z" fill="#002c3c"/></g><g><path d="m348.155 260.827c-5.862 0-11.43-3.458-13.839-9.202l-40.745-97.143c-1.942-4.631-1.439-9.926 1.342-14.107 2.78-4.182 7.469-6.694 12.49-6.694h36.52c8.284 0 15 6.716 15 15s-6.716 15-15 15h-13.962l32.02 76.341c3.205 7.639-.391 16.43-8.03 19.634-1.895.794-3.862 1.171-5.796 1.171z" fill="#424ede"/></g><g><path d="m207.203 183.598h-19.618c-8.284 0-15-6.716-15-15s6.716-15 15-15h19.618c8.284 0 15 6.716 15 15s-6.716 15-15 15z" fill="#ff5b5b"/></g><g><path d="m159.159 306.817c-32.069 0-58.159-26.09-58.159-58.159s26.09-58.159 58.159-58.159 58.159 26.09 58.159 58.159-26.09 58.159-58.159 58.159zm0-86.317c-15.527 0-28.159 12.632-28.159 28.159s12.632 28.159 28.159 28.159 28.159-12.632 28.159-28.159-12.632-28.159-28.159-28.159z" fill="#00607f"/></g><path d="m316.396 178.669c-2.297-5.654-7.79-9.352-13.893-9.354l-87.898-.021h-.003c-4.477 0-8.72 2-11.569 5.452l-18.021 21.836c9.124 4.548 16.894 11.417 22.524 19.839l14.133-17.125 43.933.011-16.584 16.149-18.534 18.047h-69.986c-8.284 0-15 6.716-15 15s6.716 15 15 15h76.083c3.909 0 7.664-1.526 10.464-4.253l65.918-64.187c4.374-4.258 5.73-10.74 3.433-16.394z" fill="#7c84e8"/><path d="m316.396 178.669c-2.297-5.654-7.79-9.352-13.893-9.354l-46.503-.011v30l9.604.002-9.604 9.352v41.873l56.965-55.469c4.372-4.257 5.728-10.739 3.431-16.393z" fill="#424ede"/></g></svg>