<svg id="Layer_1" enable-background="new 0 0 512 512" height="512" viewBox="0 0 512 512" width="512" xmlns="http://www.w3.org/2000/svg"><g><g><g><path d="m256 512c-21.096 0-45.146-10.662-71.484-31.69-23.021-18.38-46.633-43.875-68.284-73.729-47.421-65.387-75.732-136.819-75.732-191.081 0-57.562 22.416-111.679 63.119-152.381 40.702-40.703 94.818-63.119 152.381-63.119s111.679 22.416 152.381 63.119c40.703 40.702 63.119 94.819 63.119 152.381 0 54.262-28.311 125.694-75.732 191.081-21.65 29.854-45.263 55.349-68.284 73.729-26.338 21.028-50.388 31.69-71.484 31.69z" fill="#ffd321"/></g></g><path d="m408.381 63.119c-40.702-40.703-94.819-63.119-152.381-63.119v512c21.096 0 45.146-10.662 71.484-31.69 23.021-18.38 46.633-43.875 68.284-73.729 47.421-65.387 75.732-136.819 75.732-191.081 0-57.562-22.416-111.679-63.119-152.381z" fill="#ff9d21"/><g><path d="m318.589 276.119h-118.96c-8.284 0-15-6.716-15-15s6.716-15 15-15h115.146c1.218-.319 2.496-.489 3.814-.489 8.284 0 15 6.716 15 15v.489c0 8.284-6.716 15-15 15z" fill="#7c84e8"/></g><g><path d="m351.757 246.169c-8.284 0-15-6.716-15-15v-116.669h-16.201c-8.284 0-15-6.716-15-15s6.716-15 15-15h31.201c8.284 0 15 6.716 15 15v131.669c0 8.285-6.716 15-15 15z" fill="#424ede"/></g><g><path d="m159.529 293.861c-18.081 0-32.792-14.711-32.792-32.792s14.71-32.792 32.792-32.792 32.793 14.711 32.793 32.792-14.711 32.792-32.793 32.792z" fill="#f9f9f9"/></g><g><path d="m159.528 306.069c-24.812 0-44.999-20.187-44.999-45s20.187-45 44.999-45c24.813 0 45.001 20.187 45.001 45s-20.187 45-45.001 45zm0-60c-8.271 0-14.999 6.729-14.999 15s6.729 15 14.999 15c8.271 0 15.001-6.729 15.001-15s-6.729-15-15.001-15z" fill="#00607f"/></g><path d="m318.589 245.63c-1.318 0-2.597.17-3.814.489h-58.775v30h62.589c8.284 0 15-6.716 15-15v-.489c0-8.284-6.716-15-15-15z" fill="#424ede"/><g><path d="m351.757 298.146c-20.39 0-36.977-16.588-36.977-36.977 0-20.39 16.588-36.978 36.977-36.978s36.977 16.588 36.977 36.978-16.587 36.977-36.977 36.977z" fill="#e2dff4"/></g><g><path d="m351.757 306.169c-24.813 0-45-20.187-45-45s20.187-45 45-45 45 20.187 45 45-20.187 45-45 45zm0-60c-8.271 0-15 6.729-15 15s6.729 15 15 15 15-6.729 15-15-6.729-15-15-15z" fill="#002c3c"/></g></g></svg>