<svg id="Layer_1" enable-background="new 0 0 512 512" height="512" viewBox="0 0 512 512" width="512" xmlns="http://www.w3.org/2000/svg"><g><g><path d="m482.456 488.5c-1.202 0-2.412-.145-3.604-.44l-142.479-35.277-35.328 7.902-59.753-45.26-30.247 65.391-27.197 6.083c-2.185.489-4.451.482-6.634-.019l-150.943-34.684c-6.812-1.565-11.641-7.629-11.641-14.619v-207.932l42.029-17.708-42.029-79.404v-75.033c0-4.571 2.084-8.893 5.661-11.738s8.253-3.904 12.711-2.878l148.039 34.154 30.002-6.736 53.445 38.197 36.555-58.403 32.217-7.233c2.271-.51 4.631-.485 6.892.076l145.91 36.126c6.693 1.658 11.395 7.665 11.395 14.561v301.062l-22.074 6.183 22.074 28.457v44.17c0 4.613-2.123 8.97-5.756 11.812-2.666 2.089-5.928 3.19-9.245 3.19z" fill="#bee75e"/></g><path d="m497.457 93.626c0-6.896-4.701-12.903-11.395-14.561l-145.91-36.125c-2.261-.561-4.621-.585-6.892-.076l-32.217 7.233-36.554 58.403-8.49-6.067v324.134l45.044 34.119 35.328-7.902 142.479 35.277c1.192.295 2.402.44 3.604.44 3.317 0 6.579-1.101 9.245-3.188 3.633-2.843 5.756-7.2 5.756-11.812v-44.17l-22.074-28.458 22.074-6.183v-301.064z" fill="#00cb75"/><path d="m497.457 394.689-98.466-56.849v-119.853c0-8.284-6.716-15-15-15s-15 6.716-15 15v128.513c0 5.359 2.859 10.311 7.5 12.99l120.966 69.84z" fill="#002c3c"/><path d="m497.457 93.626c0-6.896-4.701-12.903-11.395-14.561l-20.276-5.02-164.742 97.055v-121.003l-90 20.206v170.598l-196.413-115.714v104.458l196.413 115.714v135.458l90-20.131v-185.443c.647-.174 1.274-.435 1.861-.781l194.552-114.617z" fill="#007a9f"/><path d="m486.062 79.066-20.276-5.02-164.742 97.055v-121.004l-45.044 10.113v410.55l45.044-10.075v-185.442c.647-.174 1.274-.435 1.861-.781l194.552-114.617v-66.219c0-6.895-4.701-12.902-11.395-14.56z" fill="#00607f"/><path d="m256.044 180.5c-41.355 0-75 33.645-75 75 0 24.465 17.956 49.407 28.659 62.097 6.51 7.719 29.092 32.903 46.341 32.903s39.831-25.184 46.341-32.903c10.703-12.69 28.659-37.632 28.659-62.097 0-41.355-33.645-75-75-75z" fill="#ff5b5b"/><circle clip-rule="evenodd" cx="256.044" cy="255.5" fill="#e63950" fill-rule="evenodd" r="15"/><path d="m75 23.5c-41.355 0-75 33.645-75 75 0 24.465 17.956 49.407 28.659 62.098 6.51 7.718 29.092 32.902 46.341 32.902s39.831-25.184 46.341-32.903c10.703-12.69 28.659-37.632 28.659-62.097 0-41.355-33.645-75-75-75z" fill="#ff5b5b"/><circle clip-rule="evenodd" cx="75" cy="98.5" fill="#e63950" fill-rule="evenodd" r="15"/><path d="m437 40c-41.355 0-75 33.645-75 75 0 24.465 17.956 49.407 28.659 62.097 6.51 7.719 29.092 32.903 46.341 32.903s39.831-25.184 46.341-32.903c10.703-12.69 28.659-37.632 28.659-62.097 0-41.355-33.645-75-75-75z" fill="#e63950"/><circle clip-rule="evenodd" cx="437" cy="115" fill="#ae2538" fill-rule="evenodd" r="15"/><path d="m256.044 180.5c-.015 0-.029.001-.044.001v169.997c.015 0 .03.002.044.002 17.249 0 39.831-25.184 46.341-32.903 10.703-12.69 28.659-37.632 28.659-62.097 0-41.355-33.645-75-75-75z" fill="#e63950"/><path clip-rule="evenodd" d="m256.044 240.5c-.015 0-.029.002-.044.002v29.996c.015 0 .029.002.044.002 8.262 0 15-6.738 15-15s-6.738-15-15-15z" fill="#ae2538" fill-rule="evenodd"/></g></svg>