<svg id="Layer_1" enable-background="new 0 0 512.002 512.002" height="512" viewBox="0 0 512.002 512.002" width="512" xmlns="http://www.w3.org/2000/svg"><g><path d="m129.536 45.004c0-24.813-20.187-45-45-45h-30c-8.284 0-15 6.716-15 15v122c0 8.284 6.716 15 15 15s15-6.716 15-15v-38.071l32.502 46.805c2.914 4.196 7.585 6.446 12.334 6.446 2.952 0 5.935-.87 8.542-2.681 6.805-4.725 8.49-14.072 3.765-20.876l-28.332-40.8c18.076-5.844 31.189-22.827 31.189-42.823zm-45 15h-15v-30h15c8.271 0 15 6.729 15 15s-6.729 15-15 15z" fill="#ff5b5b"/><path d="m219.383 30.005c8.284 0 15-6.716 15-15s-6.716-15-15-15c0 0-41.815-.005-42-.005-8.284 0-15 6.716-15 15v121.997c0 8.284 6.716 15 15 15 .143 0 42 .008 42 .008 8.284 0 15-6.716 15-15s-6.716-15-15-15h-27v-31.006h27c8.284 0 15-6.716 15-15s-6.716-15-15-15h-27v-30.994z" fill="#ff5b5b"/><path d="m337.561.009c-8.284 0-15 6.716-15 15v52.461l-26.482-58.637c-2.909-6.441-9.921-9.977-16.828-8.49-6.909 1.488-11.842 7.597-11.842 14.664v121.994c0 8.284 6.716 15 15 15s15-6.716 15-15v-52.337l26.482 58.637c2.464 5.456 7.87 8.828 13.665 8.828 1.046 0 2.106-.11 3.163-.337 6.909-1.488 11.842-7.597 11.842-14.664v-122.119c0-8.284-6.716-15-15-15z" fill="#e63950"/><path d="m457.535.005h-61.948c-8.284 0-15 6.716-15 15s6.716 15 15 15h15.974v107.002c0 8.284 6.716 15 15 15s15-6.716 15-15v-107.002h15.974c8.284 0 15-6.716 15-15s-6.716-15-15-15z" fill="#e63950"/><g><path d="m100.833 512.002h-47.597c-18.307 0-33.201-14.894-33.201-33.202v-50.364c0-18.307 14.894-33.201 33.201-33.201h47.597c18.307 0 33.201 14.894 33.201 33.201v50.364c.001 18.308-14.893 33.202-33.201 33.202z" fill="#00607f"/></g><g><path d="m458.833 512.002h-47.597c-18.307 0-33.201-14.894-33.201-33.202v-50.364c0-18.307 14.894-33.201 33.201-33.201h47.597c18.308 0 33.202 14.894 33.202 33.201v50.364c0 18.308-14.894 33.202-33.202 33.202z" fill="#002c3c"/></g><path clip-rule="evenodd" d="m165.705 216.002h180.544c23.117 0 42.931 12.133 53.44 32.722l37.404 73.278h-362.203l37.367-73.261c10.506-20.6 30.324-32.739 53.448-32.739z" fill="#f9f9f9" fill-rule="evenodd"/><path clip-rule="evenodd" d="m255.987 322.002h181.106l-37.404-73.278c-10.509-20.589-30.323-32.722-53.44-32.722h-90.262z" fill="#e2dff4" fill-rule="evenodd"/><path d="m437.093 337.002h-362.203c-5.22 0-10.065-2.714-12.791-7.165-2.727-4.452-2.943-10-.571-14.65l37.367-73.261c13.07-25.625 38.046-40.923 66.812-40.923h180.543c28.755 0 53.728 15.291 66.801 40.902l37.403 73.278c2.374 4.65 2.159 10.2-.567 14.652-2.728 4.452-7.573 7.167-12.794 7.167zm-337.714-30h313.217l-26.267-51.459c-7.96-15.596-22.569-24.541-40.08-24.541h-180.543c-17.517 0-32.128 8.95-40.087 24.554z" fill="#7c84e8"/><path d="m450.453 315.183-37.403-73.278c-13.073-25.612-38.045-40.902-66.801-40.902h-90.262v30h90.262c17.511 0 32.12 8.945 40.08 24.541l26.267 51.459h-156.609v30h181.106c5.221 0 10.066-2.715 12.792-7.167 2.727-4.454 2.942-10.003.568-14.653z" fill="#424ede"/><path d="m471.202 334.001h4.083c8.284 0 15-6.716 15-15s-6.716-15-15-15h-438.5c-8.284 0-15 6.716-15 15s6.716 15 15 15h3.996c-12.956 15.059-20.814 34.624-20.814 56v47c0 8.284 6.716 15 15 15h442.048c8.284 0 15-6.716 15-15v-47c.001-21.376-7.857-40.94-20.813-56z" fill="#b6baf2"/><path d="m471.202 334.001h4.083c8.284 0 15-6.716 15-15s-6.716-15-15-15h-219.298v148h221.028c8.284 0 15-6.716 15-15v-47c.001-21.376-7.857-40.94-20.813-56z" fill="#7c84e8"/><g><path d="m129.314 393.002h-34.276c-8.284 0-15-6.716-15-15s6.716-15 15-15h34.277c8.284 0 15 6.716 15 15s-6.716 15-15.001 15z" fill="#ff5b5b"/></g><g><path d="m317.035 393.002h-122.087c-8.284 0-15-6.716-15-15s6.716-15 15-15h122.087c8.284 0 15 6.716 15 15s-6.716 15-15 15z" fill="#00607f"/></g><g><path d="m417.174 393.002h-30.779c-8.284 0-15-6.716-15-15s6.716-15 15-15h30.779c8.284 0 15 6.716 15 15s-6.716 15-15 15z" fill="#e63950"/></g><path d="m317.035 363.002h-61.048v30h61.048c8.284 0 15-6.716 15-15s-6.716-15-15-15z" fill="#002c3c"/></g></svg>