<svg id="Layer_1" enable-background="new 0 0 512.001 512.001" height="512" viewBox="0 0 512.001 512.001" width="512" xmlns="http://www.w3.org/2000/svg"><g><g><g><path d="m95.246 497.122c-52.519 0-95.246-42.727-95.246-95.246s42.727-95.246 95.246-95.246 95.246 42.727 95.246 95.246-42.727 95.246-95.246 95.246zm0-160.492c-35.977 0-65.246 29.269-65.246 65.246s29.269 65.246 65.246 65.246 65.246-29.269 65.246-65.246-29.269-65.246-65.246-65.246z" fill="#00607f"/></g></g><g><g><path d="m416.755 497.122c-52.519 0-95.247-42.727-95.247-95.246s42.728-95.246 95.247-95.246 95.246 42.727 95.246 95.246-42.727 95.246-95.246 95.246zm0-160.492c-35.977 0-65.247 29.269-65.247 65.246s29.27 65.246 65.247 65.246 65.246-29.269 65.246-65.246-29.269-65.246-65.246-65.246z" fill="#002c3c"/></g></g><g><path d="m256.787 416.877h-161.541c-5.714 0-10.933-3.247-13.457-8.374s-1.917-11.242 1.567-15.771l95.609-124.302c2.839-3.692 7.232-5.855 11.89-5.855h.004l155.03.044c5.623.001 10.772 3.148 13.34 8.15s2.122 11.021-1.155 15.59l-89.099 124.257c-2.815 3.931-7.354 6.261-12.188 6.261zm-131.079-30h123.377l67.593-94.266-118.438-.034z" fill="#ff9d21"/></g><g><path d="m416.757 416.88c-6.048 0-11.746-3.683-14.023-9.672l-70.805-186.192c-1.753-4.61-1.128-9.787 1.672-13.847 2.8-4.061 7.417-6.485 12.349-6.485h63.462c8.284 0 15 6.716 15 15s-6.716 15-15 15h-41.71l63.074 165.86c2.944 7.743-.945 16.407-8.689 19.352-1.755.668-3.558.984-5.33.984z" fill="#ff9d21"/></g><g><path d="m256.579 416.88c-5.45 0-10.707-2.979-13.362-8.164l-72.395-141.319h-24.923c-8.284 0-15-6.716-15-15s6.716-15 15-15h34.093c5.629 0 10.784 3.151 13.35 8.161l76.576 149.48c3.777 7.373.862 16.412-6.511 20.189-2.19 1.121-4.527 1.653-6.828 1.653z" fill="#ffd321"/></g><path d="m129.501 59.883c0-24.813-20.187-45-45-45h-30c-8.284 0-15 6.716-15 15v122c0 8.284 6.716 15 15 15s15-6.716 15-15v-38.071l32.502 46.805c2.914 4.196 7.585 6.446 12.334 6.446 2.952 0 5.935-.87 8.542-2.681 6.805-4.725 8.49-14.072 3.765-20.876l-28.332-40.8c18.076-5.844 31.189-22.827 31.189-42.823zm-45 15h-15v-30h15c8.271 0 15 6.729 15 15s-6.729 15-15 15z" fill="#ff5b5b"/><path d="m219.348 44.883c8.284 0 15-6.716 15-15s-6.716-15-15-15c0 0-41.815-.005-42-.005-8.284 0-15 6.716-15 15v121.997c0 8.284 6.716 15 15 15 .143 0 42 .008 42 .008 8.284 0 15-6.716 15-15s-6.716-15-15-15h-27v-31.006h27c8.284 0 15-6.716 15-15s-6.716-15-15-15h-27v-30.994z" fill="#ff5b5b"/><path d="m337.526 14.888c-8.284 0-15 6.716-15 15v52.461l-26.482-58.637c-2.909-6.441-9.921-9.977-16.828-8.49-6.909 1.488-11.842 7.597-11.842 14.664v121.994c0 8.284 6.716 15 15 15s15-6.716 15-15v-52.338l26.482 58.637c2.464 5.456 7.87 8.828 13.665 8.828 1.046 0 2.106-.11 3.163-.337 6.909-1.488 11.842-7.597 11.842-14.664v-122.118c0-8.284-6.715-15-15-15z" fill="#e63950"/><path d="m457.5 14.883h-61.948c-8.284 0-15 6.716-15 15s6.716 15 15 15h15.974v107.002c0 8.284 6.716 15 15 15s15-6.716 15-15v-107.002h15.974c8.284 0 15-6.716 15-15s-6.715-15-15-15z" fill="#e63950"/><g fill="#ff9d21"><path d="m359.23 270.77c-2.568-5.002-7.717-8.149-13.34-8.15l-89.89-.026v30l60.677.018-60.677 84.62v39.645h.786c4.834 0 9.373-2.33 12.19-6.259l89.099-124.257c3.277-4.57 3.723-10.589 1.155-15.591z"/><path d="m269.917 395.038-13.917-27.165v48.988c.193.007.385.02.578.02 2.301 0 4.638-.532 6.827-1.653 7.374-3.777 10.289-12.817 6.512-20.19z"/></g></g></svg>