<svg id="Layer_1" enable-background="new 0 0 512.025 512.025" height="512" viewBox="0 0 512.025 512.025" width="512" xmlns="http://www.w3.org/2000/svg"><g><ellipse clip-rule="evenodd" cx="84.825" cy="445.113" fill="#f9f9f9" fill-rule="evenodd" rx="47.173" ry="47.173" transform="matrix(.979 -.203 .203 .979 -88.466 26.436)"/><ellipse clip-rule="evenodd" cx="427.199" cy="445.113" fill="#e2dff4" fill-rule="evenodd" rx="47.173" ry="47.173" transform="matrix(.979 -.203 .203 .979 -81.359 95.837)"/><g><path d="m427.199 512.025c-38.495 0-69.812-31.318-69.812-69.813s31.317-69.813 69.812-69.813 69.813 31.318 69.813 69.813-31.318 69.813-69.813 69.813zm0-109.626c-21.953 0-39.812 17.86-39.812 39.813s17.859 39.813 39.812 39.813 39.813-17.86 39.813-39.813-17.86-39.813-39.813-39.813z" fill="#002c3c"/></g><g><path d="m427.199 457.212c-8.284 0-15-6.716-15-15v-229.514h-30.572c-8.284 0-15-6.716-15-15s6.716-15 15-15h45.572c8.284 0 15 6.716 15 15v244.514c0 8.284-6.716 15-15 15z" fill="#00cb75"/></g><g><path d="m84.825 511.846c-38.495 0-69.813-31.318-69.813-69.813s31.318-69.813 69.813-69.813 69.813 31.318 69.813 69.813-31.317 69.813-69.813 69.813zm0-109.626c-21.953 0-39.813 17.86-39.813 39.813s17.86 39.813 39.813 39.813 39.813-17.86 39.813-39.813-17.859-39.813-39.813-39.813z" fill="#00607f"/></g><path d="m129.513 45.004c0-24.813-20.187-45-45-45h-30c-8.284 0-15 6.716-15 15v122c0 8.284 6.716 15 15 15s15-6.716 15-15v-38.071l32.502 46.805c2.914 4.196 7.585 6.446 12.334 6.446 2.952 0 5.935-.87 8.542-2.681 6.805-4.725 8.49-14.072 3.765-20.876l-28.332-40.8c18.076-5.844 31.189-22.827 31.189-42.823zm-45 15h-15v-30h15c8.271 0 15 6.729 15 15s-6.729 15-15 15z" fill="#ff5b5b"/><path d="m219.36 30.005c8.284 0 15-6.716 15-15s-6.716-15-15-15c0 0-41.815-.005-42-.005-8.284 0-15 6.716-15 15v121.997c0 8.284 6.716 15 15 15 .143 0 42 .008 42 .008 8.284 0 15-6.716 15-15s-6.716-15-15-15h-27v-31.006h27c8.284 0 15-6.716 15-15s-6.716-15-15-15h-27v-30.994z" fill="#ff5b5b"/><path d="m337.538.009c-8.284 0-15 6.716-15 15v52.461l-26.482-58.637c-2.909-6.441-9.921-9.977-16.828-8.49-6.909 1.488-11.842 7.597-11.842 14.664v121.994c0 8.284 6.716 15 15 15s15-6.716 15-15v-52.337l26.482 58.637c2.464 5.456 7.87 8.828 13.665 8.828 1.046 0 2.106-.11 3.163-.337 6.909-1.488 11.842-7.597 11.842-14.664v-122.119c0-8.284-6.716-15-15-15z" fill="#e63950"/><path d="m457.512.005h-61.948c-8.284 0-15 6.716-15 15s6.716 15 15 15h15.974v107.002c0 8.284 6.716 15 15 15s15-6.716 15-15v-107.002h15.974c8.284 0 15-6.716 15-15s-6.715-15-15-15z" fill="#e63950"/><g><path d="m314.691 457.122h-229.686c-8.284 0-15-6.716-15-15s6.716-15 15-15h215.5c7.026-60.583 58.65-107.771 121.087-107.771h5.607c8.284 0 15 6.716 15 15s-6.716 15-15 15h-5.607c-50.674 0-91.9 41.226-91.9 91.9v.872c-.001 8.284-6.717 14.999-15.001 14.999z" fill="#bee75e"/></g><path d="m427.199 319.351h-5.607c-62.437 0-114.061 47.188-121.087 107.771h-44.492v30h58.679c8.284 0 15-6.716 15-15v-.872c0-50.674 41.227-91.9 91.9-91.9h5.607c8.284 0 15-6.716 15-15s-6.716-14.999-15-14.999z" fill="#00cb75"/></g></svg>