<svg id="Layer_1" enable-background="new 0 0 512 512" height="512" viewBox="0 0 512 512" width="512" xmlns="http://www.w3.org/2000/svg"><g><g><path d="m86.815 504.5h-51.896c-19.214 0-34.846-15.632-34.846-34.846v-54.913c0-19.214 15.632-34.846 34.846-34.846h51.896c19.214 0 34.846 15.632 34.846 34.846v54.913c0 19.214-15.632 34.846-34.846 34.846z" fill="#00607f"/></g><g><path d="m477.154 504.5h-51.896c-19.214 0-34.846-15.632-34.846-34.846v-54.913c0-19.214 15.632-34.846 34.846-34.846h51.896c19.214 0 34.846 15.632 34.846 34.846v54.913c0 19.214-15.632 34.846-34.846 34.846z" fill="#002c3c"/></g><g><path clip-rule="evenodd" d="m157.548 183.117h196.852c25.206 0 46.809 13.229 58.268 35.678l40.783 79.897h-394.922l40.742-79.879c11.455-22.46 33.064-35.696 58.277-35.696z" fill="#f9f9f9" fill-rule="evenodd"/></g><path clip-rule="evenodd" d="m256 298.692h197.451l-40.783-79.897c-11.459-22.449-33.062-35.677-58.268-35.677h-98.4z" fill="#e2dff4" fill-rule="evenodd"/><g><path d="m453.45 313.692h-394.922c-5.22 0-10.064-2.714-12.791-7.165-2.727-4.452-2.943-10-.571-14.65l40.742-79.879c14.015-27.477 40.796-43.88 71.64-43.88h196.852c30.833 0 57.609 16.396 71.628 43.857l40.782 79.898c2.373 4.65 2.158 10.2-.568 14.652-2.725 4.452-7.571 7.167-12.792 7.167zm-370.432-30h345.936l-29.646-58.078c-8.92-17.475-25.288-27.497-44.907-27.497h-196.853c-19.626 0-35.997 10.027-44.915 27.511z" fill="#e63950"/></g><path d="m466.811 291.873-40.782-79.898c-14.019-27.462-40.795-43.857-71.628-43.857h-98.401v30h98.4c19.619 0 35.987 10.022 44.907 27.497l29.646 58.078h-172.953v30h197.45c5.221 0 10.066-2.715 12.792-7.167 2.727-4.454 2.942-10.004.569-14.653z" fill="#ae2538"/><path d="m487.655 310.42h7.437c8.284 0 15-6.716 15-15s-6.716-15-15-15h-478.111c-8.284 0-15 6.716-15 15s6.716 15 15 15h7.343c-15.096 16.456-24.324 38.377-24.324 62.415v51.246c0 8.284 6.716 15 15 15h481.979c8.284 0 15-6.716 15-15v-51.246c0-24.038-9.228-45.959-24.324-62.415z" fill="#ff5b5b"/><path d="m487.655 310.42h7.437c8.284 0 15-6.716 15-15s-6.716-15-15-15h-239.092v158.66h240.979c8.284 0 15-6.716 15-15v-51.246c0-24.037-9.228-45.958-24.324-62.414z" fill="#e63950"/><g><path d="m117.869 374.751h-37.373c-8.284 0-15-6.716-15-15s6.716-15 15-15h37.373c8.284 0 15 6.716 15 15s-6.716 15-15 15z" fill="#ffd321"/></g><g><path d="m322.548 374.751h-133.116c-8.284 0-15-6.716-15-15s6.716-15 15-15h133.116c8.284 0 15 6.716 15 15s-6.716 15-15 15z" fill="#00607f"/></g><g><path d="m431.731 374.751h-33.559c-8.284 0-15-6.716-15-15s6.716-15 15-15h33.559c8.284 0 15 6.716 15 15s-6.715 15-15 15z" fill="#ff9d21"/></g><g><ellipse clip-rule="evenodd" cx="256" cy="121.5" fill="#ffd321" fill-rule="evenodd" rx="99" ry="99" transform="matrix(.707 -.707 .707 .707 -10.933 216.606)"/></g><g fill="#ff9d21"><path clip-rule="evenodd" d="m256 22.5v198c54.527 0 99-44.473 99-99s-44.473-99-99-99z" fill-rule="evenodd"/><path d="m256 235.5c-62.859 0-114-51.14-114-114s51.141-114 114-114 114 51.14 114 114c0 62.859-51.141 114-114 114zm0-198c-46.317 0-84 37.682-84 84 0 46.317 37.683 84 84 84s84-37.682 84-84-37.683-84-84-84z"/><path d="m290.78 142.988c0-11.462-5.68-21.881-15.051-28.094-.732-.556-22.442-11.522-22.442-11.522-1.429-.719-2.068-1.757-2.068-3.361 0-2.114 1.689-3.833 3.767-3.833h.985c.01 0 .019.001.029.001s.019-.001.029-.001h14.68c8.284 0 15-6.716 15-15s-6.716-15-15-15h-.225c-1.7-6.419-7.531-11.157-14.484-11.157-8.01 0-14.535 6.284-14.959 14.189-11.678 5.33-19.821 17.127-19.821 30.801 0 11.462 5.68 21.881 15.051 28.094.732.556 3.593 2.096 3.593 2.096.008.004 18.849 9.425 18.849 9.425 1.429.719 2.068 1.757 2.068 3.361 0 2.114-1.69 3.833-3.768 3.833h-15.722c-8.284 0-15 6.716-15 15s6.716 15 15 15h.224c1.699 6.419 7.531 11.158 14.485 11.158 8.011 0 14.536-6.285 14.959-14.191 11.678-5.328 19.821-17.125 19.821-30.799z"/></g><g fill="#ff7d43"><path d="m256 96.179c.01 0 .019-.001.029-.001h14.68c8.284 0 15-6.716 15-15s-6.716-15-15-15h-.225c-1.7-6.419-7.531-11.157-14.484-11.157z"/><path d="m275.729 114.894c-.571-.433-13.883-7.19-19.729-10.15v33.526c1.633.817 2.713 1.357 2.713 1.357 1.429.719 2.068 1.757 2.068 3.361 0 2.114-1.69 3.833-3.768 3.833h-1.013v41.158c8.011 0 14.536-6.285 14.959-14.191 11.678-5.33 19.821-17.127 19.821-30.801 0-11.461-5.68-21.88-15.051-28.093z"/></g><path d="m256 7.5v30c46.317 0 84 37.682 84 84 0 46.317-37.683 84-84 84v30c62.859 0 114-51.14 114-114s-51.141-114-114-114z" fill="#ff7d43"/><path d="m322.548 344.751h-66.548v30h66.548c8.284 0 15-6.716 15-15s-6.716-15-15-15z" fill="#002c3c"/></g></svg>