<svg id="Layer_1" enable-background="new 0 0 512 512" height="512" viewBox="0 0 512 512" width="512" xmlns="http://www.w3.org/2000/svg"><g><g><path d="m250.445 143.5c-3.839 0-7.678-1.464-10.606-4.394l-14.5-14.5c-2.813-2.813-4.394-6.628-4.394-10.606v-37c0-8.284 6.716-15 15-15s15 6.716 15 15v30.786l10.107 10.107c5.858 5.858 5.858 15.355 0 21.213-2.929 2.93-6.768 4.394-10.607 4.394z" fill="#007a9f"/></g><path d="m335.267 100.82c-8.319-.124-15.121 6.438-15.273 14.722-.835 45.468-38.511 82.458-83.986 82.458-46.317 0-84-37.682-84-84s37.682-84 84-84c17.646 0 34.579 5.507 48.643 15.509-4.412 1.798-7.898 5.658-9.001 10.662-1.783 8.09 3.33 16.094 11.419 17.877l28.308 6.24c1.07.236 2.152.352 3.229.352 3.232 0 6.412-1.046 9.038-3.028 3.501-2.643 5.669-6.686 5.935-11.064l1.785-29.444c.501-8.27-5.796-15.379-14.065-15.88-4.884-.295-9.339 1.781-12.288 5.218-20.329-16.976-46.053-26.442-73.003-26.442-62.859 0-114 51.14-114 114s51.14 114 114 114c30.056 0 58.42-11.597 79.867-32.653 21.447-21.057 33.562-49.203 34.114-79.254.152-8.283-6.44-15.121-14.722-15.273z" fill="#bee75e"/><path d="m261.052 117.894-10.107-10.107v-30.787c0-8.271-6.694-14.976-14.96-14.998v73.25l3.854 3.854c2.929 2.929 6.768 4.394 10.606 4.394s7.678-1.464 10.606-4.394c5.859-5.857 5.859-15.354.001-21.212z" fill="#00607f"/><g fill="#00cb75"><path d="m235.985 30.001c.008 0 .015-.001.023-.001 17.646 0 34.579 5.507 48.643 15.509-4.412 1.798-7.898 5.658-9.001 10.662-1.783 8.09 3.33 16.094 11.419 17.877l28.308 6.24c1.07.236 2.152.352 3.229.352 3.232 0 6.412-1.046 9.038-3.028 3.501-2.643 5.669-6.686 5.935-11.064l1.785-29.444c.501-8.27-5.796-15.379-14.065-15.88-4.884-.295-9.339 1.781-12.288 5.218-20.329-16.976-46.053-26.442-73.003-26.442-.008 0-.015 0-.023 0z"/><path d="m335.267 100.82c-8.319-.124-15.121 6.438-15.273 14.722-.835 45.468-38.511 82.458-83.986 82.458-.008 0-.015-.001-.023-.001v30h.023c30.056 0 58.42-11.597 79.867-32.653 21.447-21.057 33.562-49.203 34.114-79.254.152-8.282-6.44-15.12-14.722-15.272z"/></g><ellipse clip-rule="evenodd" cx="99.75" cy="442.008" fill="#f9f9f9" fill-rule="evenodd" rx="54.813" ry="54.813" transform="matrix(.972 -.235 .235 .972 -101.188 35.874)"/><path d="m99.75 511.821c-38.495 0-69.813-31.318-69.813-69.813s31.318-69.813 69.813-69.813 69.813 31.318 69.813 69.813-31.318 69.813-69.813 69.813zm0-109.626c-21.953 0-39.813 17.86-39.813 39.813s17.86 39.813 39.813 39.813 39.813-17.86 39.813-39.813-17.86-39.813-39.813-39.813z" fill="#00607f"/><ellipse clip-rule="evenodd" cx="412.25" cy="442.187" fill="#e2dff4" fill-rule="evenodd" rx="54.813" ry="54.813" transform="matrix(.987 -.159 .159 .987 -65.167 71.307)"/><path d="m412.25 512c-38.495 0-69.813-31.318-69.813-69.813s31.318-69.813 69.813-69.813 69.813 31.318 69.813 69.813-31.318 69.813-69.813 69.813zm0-109.626c-21.953 0-39.813 17.86-39.813 39.813s17.86 39.813 39.813 39.813 39.813-17.86 39.813-39.813-17.86-39.813-39.813-39.813z" fill="#002c3c"/><path d="m299.742 457.098h-199.687c-8.284 0-15-6.716-15-15s6.716-15 15-15h185.5c7.025-60.583 58.649-107.771 121.086-107.771h5.608c8.284 0 15 6.716 15 15s-6.716 15-15 15h-5.608c-50.674 0-91.9 41.226-91.9 91.899v.872c.001 8.284-6.715 15-14.999 15z" fill="#ff5b5b"/><path d="m397.25 228.787v213.4c0 8.284 6.716 15 15 15s15-6.716 15-15v-213.4z" fill="#e63950"/><path d="m366.677 232.674h30.572v.049h30v-15.049c0-8.284-6.716-15-15-15h-45.572c-8.284 0-15 6.716-15 15s6.716 15 15 15z" fill="#00607f"/><path d="m412.25 319.327h-5.608c-62.437 0-114.061 47.188-121.086 107.771h-49.493v30h63.679c8.284 0 15-6.716 15-15v-.872c0-50.673 41.226-91.899 91.9-91.899h5.608c8.284 0 15-6.716 15-15s-6.716-15-15-15z" fill="#e63950"/></g></svg>