<svg id="Layer_1" enable-background="new 0 0 512 512" height="512" viewBox="0 0 512 512" width="512" xmlns="http://www.w3.org/2000/svg"><g><g><path d="m80.866 426h-47.597c-18.308 0-33.201-14.894-33.201-33.202v-50.364c0-18.308 14.894-33.202 33.201-33.202h47.598c18.308 0 33.201 14.894 33.201 33.202v50.364c-.001 18.308-14.894 33.202-33.202 33.202z" fill="#00607f"/></g><path clip-rule="evenodd" d="m145.738 130h180.544c23.117 0 42.931 12.133 53.44 32.722l37.404 73.278h-362.204l37.367-73.261c10.506-20.6 30.325-32.739 53.449-32.739z" fill="#f9f9f9" fill-rule="evenodd"/><path d="m417.126 250.999h-362.204c-5.22 0-10.064-2.714-12.791-7.165-2.727-4.452-2.943-10-.571-14.65l37.367-73.261c13.07-25.625 38.046-40.923 66.81-40.923h180.544c28.756 0 53.729 15.291 66.801 40.902l37.404 73.277c2.373 4.65 2.158 10.2-.568 14.652-2.726 4.453-7.571 7.168-12.792 7.168zm-337.715-30h313.217l-26.267-51.458c-7.96-15.596-22.569-24.541-40.08-24.541h-180.544c-17.517 0-32.127 8.95-40.086 24.554z" fill="#e63950"/><path d="m386.048 218h-369.23c-8.284 0-15 6.716-15 15s6.716 15 15 15h3.996c-12.956 15.059-20.814 34.623-20.814 56v47c0 8.284 6.716 15 15 15h442.048c8.284 0 15-6.716 15-15v-47c0-47.421-38.579-86-86-86z" fill="#ff5b5b"/><g><path d="m109.347 307h-34.278c-8.284 0-15-6.716-15-15s6.716-15 15-15h34.277c8.284 0 15 6.716 15 15s-6.715 15-14.999 15z" fill="#ffd321"/></g><g><path d="m297.067 307h-122.087c-8.284 0-15-6.716-15-15s6.716-15 15-15h122.087c8.284 0 15 6.716 15 15s-6.715 15-15 15z" fill="#00607f"/></g><path clip-rule="evenodd" d="m266.822 49h198.356c17.502 0 31.822 14.32 31.822 31.822v350.356c0 17.502-14.32 31.822-31.822 31.822h-198.356c-17.502 0-31.822-14.32-31.822-31.822v-350.356c0-17.502 14.32-31.822 31.822-31.822z" fill="#f9f9f9" fill-rule="evenodd"/><path clip-rule="evenodd" d="m465.178 49h-99.178v414h99.178c17.502 0 31.822-14.32 31.822-31.822v-350.356c0-17.502-14.32-31.822-31.822-31.822z" fill="#e2dff4" fill-rule="evenodd"/><g><path d="m407.5 400.5h-83c-20.678 0-37.5-16.822-37.5-37.5s16.822-37.5 37.5-37.5h83c20.678 0 37.5 16.823 37.5 37.5s-16.822 37.5-37.5 37.5z" fill="#bee75e"/></g><g><path d="m436.635 206h-141.27c-8.284 0-15-6.716-15-15s6.716-15 15-15h141.27c8.284 0 15 6.716 15 15s-6.716 15-15 15z" fill="#7c84e8"/></g><g><path d="m414.51 266h-97.02c-8.284 0-15-6.716-15-15s6.716-15 15-15h97.02c8.284 0 15 6.716 15 15s-6.716 15-15 15z" fill="#7c84e8"/></g><path d="m465.178 34h-198.357c-25.817 0-46.821 21.005-46.821 46.822v350.356c0 25.818 21.004 46.822 46.821 46.822h198.356c25.818 0 46.823-21.004 46.823-46.822v-350.356c0-25.817-21.005-46.822-46.822-46.822zm16.822 397.178c0 9.276-7.547 16.822-16.822 16.822h-198.357c-9.275 0-16.821-7.546-16.821-16.822v-350.356c0-9.275 7.546-16.822 16.821-16.822h23.458l8.584 23.972c2.136 5.963 7.787 9.943 14.122 9.943h106.013c6.333 0 11.984-3.978 14.121-9.94l8.592-23.975h23.466c9.276 0 16.823 7.547 16.823 16.822z" fill="#007a9f"/><path d="m436.635 176h-70.635v30h70.635c8.284 0 15-6.716 15-15s-6.716-15-15-15z" fill="#424ede"/><path d="m414.51 236h-48.51v30h48.51c8.284 0 15-6.716 15-15s-6.716-15-15-15z" fill="#424ede"/><path d="m407.5 325.499h-41.5v75h41.5c20.678 0 37.5-16.822 37.5-37.5s-16.822-37.5-37.5-37.5z" fill="#00cb75"/><path d="m465.178 34h-99.178v63.915h52.999c6.333 0 11.984-3.978 14.121-9.94l8.591-23.975h23.466c9.276 0 16.823 7.547 16.823 16.822v350.356c0 9.276-7.547 16.822-16.822 16.822h-99.178v30h99.178c25.817 0 46.822-21.004 46.822-46.822v-350.356c0-25.817-21.005-46.822-46.822-46.822z" fill="#00607f"/></g></svg>