<svg id="Layer_1" enable-background="new 0 0 511.215 511.215" height="512" viewBox="0 0 511.215 511.215" width="512" xmlns="http://www.w3.org/2000/svg"><g><g fill="#bee75e"><path d="m129.906 47.043c-2.985-3.214-7.253-4.95-11.61-4.778l-40.64 1.685c-8.277.343-14.709 7.332-14.366 15.609.344 8.276 7.313 14.708 15.608 14.366l2.862-.119c-51.669 45.787-81.76 111.738-81.76 181.801 0 41.68 10.81 82.908 31.259 119.226 2.755 4.893 7.843 7.643 13.084 7.643 2.492 0 5.02-.622 7.346-1.932 7.219-4.064 9.775-13.211 5.711-20.43-17.925-31.834-27.4-67.972-27.4-104.507 0-60.373 25.503-117.251 69.393-157.29.624 6.931 6.033 12.711 13.219 13.541.585.067 1.165.101 1.739.101 7.515 0 14-5.636 14.883-13.281l4.585-39.705c.502-4.358-.927-8.717-3.913-11.93z"/><path d="m505.821 228.198c-6.362-5.306-15.821-4.45-21.127 1.914l-.022.027c-5.783-55.748-30.438-107.374-70.766-147.273-45.793-45.307-106.489-70.258-170.907-70.258-11.201 0-22.507.786-33.601 2.334-8.205 1.146-13.927 8.726-12.781 16.93 1.145 8.204 8.718 13.928 16.93 12.782 9.725-1.358 19.634-2.046 29.452-2.046 108.437 0 198.873 82.323 211.485 187.748-5.534-5.604-14.535-6.006-20.536-.75-6.232 5.458-6.859 14.935-1.401 21.167l26.334 30.067c2.851 3.254 6.964 5.117 11.284 5.117.061 0 .121 0 .182-.001 4.386-.053 8.529-2.023 11.339-5.393l26.05-31.238c5.304-6.363 4.448-15.821-1.915-21.127z"/><path d="m463.113 316.918c-7.818-2.744-16.377 1.373-19.119 9.189-29.896 85.234-110.67 142.5-200.995 142.5-45.334 0-89.388-14.502-125.76-41.106h.038c8.284-.035 14.972-6.779 14.938-15.063-.035-8.263-6.743-14.937-14.999-14.937h-.063l-39.97.167c-4.387.019-8.545 1.956-11.381 5.303-2.836 3.346-4.065 7.767-3.363 12.097l6.506 40.151c1.193 7.365 7.561 12.604 14.788 12.603.797 0 1.605-.064 2.418-.196 7.966-1.29 13.423-8.635 12.477-16.573 41.666 30.772 92.278 47.554 144.371 47.554 103.047 0 195.196-65.332 229.304-162.57 2.742-7.817-1.372-16.377-9.19-19.119z"/></g><path clip-rule="evenodd" d="m201.594 159.493h82.825c11.885 0 23.03 5.802 27.476 16.824l19.231 47.675h-176.224l19.212-47.667c4.444-11.027 15.591-16.832 27.48-16.832z" fill="#f9f9f9" fill-rule="evenodd"/><path clip-rule="evenodd" d="m243.357 223.991h87.768l-19.231-47.675c-4.446-11.022-15.59-16.824-27.476-16.824h-41.062v64.499z" fill="#e2dff4" fill-rule="evenodd"/><g><g><path d="m122.513 349.493c-8.284 0-15-6.716-15-15v-36c0-8.284 6.716-15 15-15s15 6.716 15 15v36c0 8.284-6.716 15-15 15z" fill="#00607f"/></g></g><g><g><path d="m363.513 349.493c-8.284 0-15-6.716-15-15v-36c0-8.284 6.716-15 15-15s15 6.716 15 15v36c0 8.284-6.716 15-15 15z" fill="#002c3c"/></g></g><path d="m331.125 238.992h-176.223c-4.984 0-9.643-2.476-12.432-6.607s-3.344-9.377-1.48-14l19.212-47.667c6.52-16.176 22.38-26.225 41.393-26.225h82.825c19.006 0 34.865 10.044 41.387 26.212l19.231 47.676c1.865 4.623 1.311 9.871-1.478 14.003-2.79 4.131-7.45 6.608-12.435 6.608zm-154.005-30h131.781l-10.917-27.064c-2.211-5.482-8.457-7.435-13.565-7.435h-82.825c-5.109 0-11.357 1.954-13.567 7.439z" fill="#e63950"/><path d="m345.036 218.38-19.231-47.676c-6.522-16.168-22.381-26.212-41.387-26.212h-41.062v30h41.062c5.108 0 11.354 1.953 13.565 7.435l10.917 27.064h-65.543v30h87.768c4.985 0 9.645-2.477 12.433-6.608 2.789-4.132 3.343-9.38 1.478-14.003z" fill="#ae2538"/><path d="m368.736 235.992c5.02-2.425 8.492-7.55 8.492-13.499 0-8.284-6.716-15-15-15h-238.43c-8.284 0-15 6.716-15 15 0 5.949 3.472 11.074 8.492 13.499-3.299 5.158-5.863 10.836-7.536 16.884-1.46 5.276 12.758 10.772 12.758 16.511l-15 13.492v30.385c0 8.284 6.716 15 15 15h241c8.284 0 15-6.716 15-15v-30.397l-15-14.373c0-5.739 14.219-10.342 12.759-15.617-1.672-6.049-4.236-11.727-7.535-16.885z" fill="#ff5b5b"/><path d="m363.513 268.493c0-5.739 14.219-10.342 12.759-15.617-1.673-6.048-4.237-11.726-7.536-16.884 5.02-2.425 8.492-7.55 8.492-13.499 0-8.284-6.716-15-15-15h-118.871v120.77h120.156c8.284 0 15-6.716 15-15v-30.397z" fill="#e63950"/><path d="m133.016 282.878c8.284 0 15-6.716 15-15s-6.716-15-15-15h-23.252c-1.46 5.276-2.251 10.83-2.251 16.57v13.43z" fill="#ffd321"/><path d="m352.749 252.878c-8.284 0-15 6.716-15 15s6.716 15 15 15h25.528c.08 0 .157-.011.236-.012v-13.418c0-5.74-.791-11.294-2.251-16.57z" fill="#ff9d21"/><g><path d="m281.514 282.878h-77c-8.284 0-15-6.716-15-15s6.716-15 15-15h77c8.284 0 15 6.716 15 15s-6.716 15-15 15z" fill="#00607f"/></g><path d="m281.514 252.878h-38.156v30h38.156c8.284 0 15-6.716 15-15s-6.716-15-15-15z" fill="#002c3c"/><path d="m505.821 228.198c-6.362-5.306-15.821-4.45-21.127 1.914l-.022.027c-5.783-55.748-30.438-107.374-70.766-147.273-45.708-45.223-106.265-70.161-170.549-70.254v30c108.278.182 198.529 82.436 211.127 187.744-5.534-5.604-14.535-6.006-20.536-.75-6.232 5.458-6.859 14.935-1.401 21.167l26.334 30.067c2.851 3.254 6.964 5.117 11.284 5.117.061 0 .121 0 .182-.001 4.386-.053 8.529-2.023 11.339-5.393l26.05-31.238c5.304-6.363 4.448-15.821-1.915-21.127z" fill="#00cb75"/><path d="m463.113 316.918c-7.818-2.744-16.377 1.373-19.119 9.189-29.857 85.121-110.457 142.345-200.637 142.496v30c102.902-.151 194.878-65.441 228.946-162.567 2.742-7.816-1.372-16.376-9.19-19.118z" fill="#00cb75"/></g></svg>