<svg id="Layer_1" enable-background="new 0 0 512 512" height="512" viewBox="0 0 512 512" width="512" xmlns="http://www.w3.org/2000/svg"><g><ellipse clip-rule="evenodd" cx="99.75" cy="442.008" fill="#f9f9f9" fill-rule="evenodd" rx="54.813" ry="54.813" transform="matrix(.972 -.235 .235 .972 -101.188 35.874)"/><path d="m99.75 511.821c-38.495 0-69.813-31.318-69.813-69.813s31.318-69.813 69.813-69.813 69.813 31.318 69.813 69.813-31.318 69.813-69.813 69.813zm0-109.626c-21.953 0-39.813 17.86-39.813 39.813s17.86 39.813 39.813 39.813 39.813-17.86 39.813-39.813-17.86-39.813-39.813-39.813z" fill="#00607f"/><ellipse clip-rule="evenodd" cx="412.25" cy="442.187" fill="#e2dff4" fill-rule="evenodd" rx="54.813" ry="54.813" transform="matrix(.987 -.159 .159 .987 -65.167 71.307)"/><path d="m412.25 512c-38.495 0-69.813-31.318-69.813-69.813s31.318-69.813 69.813-69.813 69.813 31.318 69.813 69.813-31.318 69.813-69.813 69.813zm0-109.626c-21.953 0-39.813 17.86-39.813 39.813s17.86 39.813 39.813 39.813 39.813-17.86 39.813-39.813-17.86-39.813-39.813-39.813z" fill="#002c3c"/><path d="m299.742 457.098h-199.687c-8.284 0-15-6.716-15-15s6.716-15 15-15h185.5c7.025-60.583 58.649-107.771 121.086-107.771h5.608c8.284 0 15 6.716 15 15s-6.716 15-15 15h-5.608c-50.674 0-91.9 41.226-91.9 91.899v.872c.001 8.284-6.715 15-14.999 15z" fill="#bee75e"/><path d="m397.25 228.787v213.4c0 8.284 6.716 15 15 15s15-6.716 15-15v-213.4z" fill="#00cb75"/><path d="m366.677 232.674h30.572v.049h30v-15.049c0-8.284-6.716-15-15-15h-45.572c-8.284 0-15 6.716-15 15s6.716 15 15 15z" fill="#00607f"/><g><path d="m256 126c-30.35 0-55.041-24.691-55.041-55.041v-15.918c0-30.35 24.691-55.041 55.041-55.041s55.041 24.691 55.041 55.041v15.918c0 30.35-24.691 55.041-55.041 55.041zm0-96c-13.808 0-25.041 11.233-25.041 25.041v15.918c0 13.808 11.233 25.041 25.041 25.041s25.041-11.233 25.041-25.041v-15.918c0-13.808-11.233-25.041-25.041-25.041z" fill="#007a9f"/></g><path d="m256 0c-.016 0-.032.001-.048.001v30c.016 0 .032-.001.048-.001 13.808 0 25.041 11.233 25.041 25.041v15.918c0 13.808-11.233 25.041-25.041 25.041-.016 0-.032-.001-.048-.001v30c.016 0 .032.001.048.001 30.35 0 55.041-24.691 55.041-55.041v-15.918c0-30.35-24.691-55.041-55.041-55.041z" fill="#00607f"/><path d="m322.041 55h-132.083c-8.284 0-15 6.716-15 15v48c0 34.738 28.262 63 63 63h36.083c34.738 0 63-28.262 63-63v-48c0-8.284-6.716-15-15-15z" fill="#ffd321"/><path d="m322.041 55h-66.089v126h18.089c34.738 0 63-28.262 63-63v-48c0-8.284-6.716-15-15-15z" fill="#ff9d21"/><g><path d="m256 138c-8.284 0-15-6.716-15-15v-10c0-8.284 6.716-15 15-15s15 6.716 15 15v10c0 8.284-6.716 15-15 15z" fill="#ff9d21"/></g><path d="m256 98c-.016 0-.032.002-.048.002v39.995c.016 0 .032.002.048.002 8.284 0 15-6.716 15-15v-10c0-8.283-6.716-14.999-15-14.999z" fill="#ff7d43"/><path d="m412.25 319.327h-5.608c-62.437 0-114.061 47.188-121.086 107.771h-29.604v30h43.79c8.284 0 15-6.716 15-15v-.872c0-50.673 41.226-91.899 91.9-91.899h5.608c8.284 0 15-6.716 15-15s-6.716-15-15-15z" fill="#00cb75"/></g></svg>