<svg id="Layer_1" enable-background="new 0 0 512.001 512.001" height="512" viewBox="0 0 512.001 512.001" width="512" xmlns="http://www.w3.org/2000/svg"><g><ellipse clip-rule="evenodd" cx="449.394" cy="414.064" fill="#e2dff4" fill-rule="evenodd" rx="47.606" ry="47.607" transform="matrix(.109 -.994 .994 .109 -11.234 815.594)"/><path d="m449.395 476.67c-34.521 0-62.607-28.085-62.607-62.606s28.085-62.606 62.607-62.606 62.606 28.085 62.606 62.606-28.085 62.606-62.606 62.606zm0-95.212c-17.979 0-32.607 14.627-32.607 32.606s14.627 32.606 32.607 32.606 32.606-14.627 32.606-32.606-14.627-32.606-32.606-32.606z" fill="#002c3c"/><g><path d="m183.107 372.165c-8.284 0-15-6.716-15-15v-184.997c0-8.284 6.716-15 15-15h39.581c8.284 0 15 6.716 15 15s-6.716 15-15 15h-24.581v169.996c0 8.285-6.716 15.001-15 15.001z" fill="#bee75e"/></g><g><path d="m62.001 477c-8.284 0-15-6.716-15-15v-317c0-8.284 6.716-15 15-15s15 6.716 15 15v317c0 8.285-6.716 15-15 15z" fill="#f9f9f9"/></g><g><path d="m110 160h-95c-8.284 0-15-6.716-15-15v-95c0-8.284 6.716-15 15-15h95c8.284 0 15 6.716 15 15v95c0 8.285-6.716 15-15 15z" fill="#7c84e8"/></g><ellipse clip-rule="evenodd" cx="183.108" cy="414.219" fill="#f9f9f9" fill-rule="evenodd" rx="47.606" ry="47.607" transform="matrix(.123 -.992 .992 .123 -250.474 545.037)"/><path d="m183.108 476.826c-34.521 0-62.607-28.085-62.607-62.606s28.085-62.606 62.607-62.606 62.606 28.085 62.606 62.606-28.085 62.606-62.606 62.606zm0-95.213c-17.979 0-32.607 14.627-32.607 32.606s14.627 32.606 32.607 32.606 32.606-14.627 32.606-32.606-14.627-32.606-32.606-32.606z" fill="#00607f"/><g><path d="m444.258 429.142h-163.434c-8.284 0-15-6.716-15-15v-.757c0-42.925-34.921-77.846-77.845-77.846h-4.872c-8.284 0-15-6.716-15-15s6.716-15 15-15h4.872c54.639 0 99.917 40.843 106.909 93.603h149.371c8.284 0 15 6.716 15 15s-6.717 15-15.001 15z" fill="#bee75e"/></g><path d="m70.813 286h-8.813c-8.284 0-15 6.716-15 15v160.996c0 8.284 6.716 15 15 15h120.727c8.284 0 15-6.716 15-15v-49.082c0-69.98-56.934-126.914-126.914-126.914z" fill="#ff5b5b"/><path d="m444.258 399.142h-130.576v30h130.575c8.284 0 15-6.716 15-15s-6.715-15-14.999-15z" fill="#00cb75"/></g></svg>