<svg id="Layer_1" enable-background="new 0 0 512.001 512.001" height="512" viewBox="0 0 512.001 512.001" width="512" xmlns="http://www.w3.org/2000/svg"><g><g><path d="m211.424 492.501c-68.057 0-123.425-55.368-123.425-123.425 0-68.058 55.368-123.426 123.425-123.426s123.425 55.368 123.425 123.426c0 68.057-55.368 123.425-123.425 123.425zm0-216.851c-51.515 0-93.425 41.91-93.425 93.426 0 51.515 41.91 93.425 93.425 93.425s93.425-41.91 93.425-93.425c0-51.516-41.91-93.426-93.425-93.426z" fill="#007a9f"/></g><g><path d="m497.001 382.501h-79.029c-4.812 0-9.332-2.309-12.152-6.207l-125.677-173.696c-3.303-4.564-3.77-10.596-1.207-15.614 2.562-5.018 7.721-8.177 13.354-8.179l204.679-.062h.005c8.283 0 14.997 6.712 15 14.995.003 8.284-6.711 15.002-14.995 15.005l-175.322.053 103.977 143.705h71.368c8.284 0 15 6.716 15 15s-6.716 15-15.001 15z" fill="#7c84e8"/></g><g><path d="m211.421 384.079c-1.772 0-3.574-.316-5.329-.983-7.744-2.944-11.633-11.609-8.689-19.353l87.938-231.242h-63.996c-8.284 0-15-6.716-15-15s6.716-15 15-15h85.748c4.932 0 9.549 2.425 12.349 6.484 2.8 4.061 3.425 9.237 1.672 13.848l-95.669 251.574c-2.278 5.988-7.976 9.672-14.024 9.672z" fill="#7c84e8"/></g><g><path d="m62.001 454.122c-8.284 0-15-6.716-15-15v-317c0-8.284 6.716-15 15-15s15 6.716 15 15v317c0 8.284-6.716 15-15 15z" fill="#f9f9f9"/></g><path d="m90.812 301.501h-28.812c-8.284 0-15 6.716-15 15v160.996c0 8.284 6.716 15 15 15h140.727c8.284 0 15-6.716 15-15v-49.082c-.001-69.981-56.934-126.914-126.915-126.914z" fill="#ff5b5b"/><g><path d="m110 144.501h-95c-8.284 0-15-6.716-15-15v-95c0-8.284 6.716-15 15-15h95c8.284 0 15 6.716 15 15v95c0 8.284-6.716 15-15 15z" fill="#7c84e8"/></g><path d="m427.841 208.764 69.138-.021c8.284-.003 14.998-6.721 14.995-15.005-.003-8.283-6.717-14.995-15-14.995h-.005l-69.128.021z" fill="#424ede"/><path d="m497.001 352.501h-69.16v30h69.16c8.284 0 15-6.716 15-15s-6.715-15-15-15z" fill="#424ede"/><circle cx="427.841" cy="358.465" fill="#00607f" r="45"/><path d="m427.841 313.465v90c24.813 0 45-20.187 45-45s-20.186-45-45-45z" fill="#002c3c"/></g></svg>