<svg id="Layer_1" enable-background="new 0 0 512 512" height="512" viewBox="0 0 512 512" width="512" xmlns="http://www.w3.org/2000/svg"><g><g><path d="m497 425.5h-482c-8.284 0-15-6.716-15-15v-309c0-8.284 6.716-15 15-15h482c8.284 0 15 6.716 15 15v309c0 8.284-6.716 15-15 15z" fill="#f9f9f9"/></g><path d="m497 86.5h-241v339h241c8.284 0 15-6.716 15-15v-309c0-8.284-6.716-15-15-15z" fill="#e2dff4"/><path d="m140 207.499c-43.561 0-79 35.439-79 79.001 0 43.561 35.439 79 79 79s79-35.439 79-79c0-43.562-35.439-79.001-79-79.001zm0 30c19.183 0 35.816 11.086 43.857 27.183l-28.609 6.307c-4.151-3.427-9.466-5.489-15.247-5.489-5.782 0-11.097 2.062-15.248 5.489l-28.609-6.307c8.04-16.097 24.673-27.183 43.856-27.183zm-48.352 56.913 26.966 5.945c1.556 3.047 3.741 5.721 6.386 7.848v24.937c-17.266-5.566-30.373-20.465-33.352-38.73zm63.352 38.73v-24.937c2.645-2.127 4.831-4.801 6.386-7.848l26.966-5.945c-2.979 18.265-16.086 33.164-33.352 38.73z" fill="#b6baf2"/><g><path d="m436.805 176.5h-361.61c-8.284 0-15-6.716-15-15s6.716-15 15-15h361.609c8.284 0 15 6.716 15 15s-6.715 15-14.999 15z" fill="#00607f"/></g><g><path d="m436.999 240.499h-164.261c-8.284 0-15-6.716-15-15s6.716-15 15-15h164.261c8.284 0 15 6.716 15 15s-6.716 15-15 15z" fill="#002c3c"/></g><g><path d="m390.019 300.499h-117.28c-8.284 0-15-6.716-15-15s6.716-15 15-15h117.28c8.284 0 15 6.716 15 15s-6.716 15-15 15z" fill="#002c3c"/></g><g><path d="m436.999 360.5h-164.261c-8.284 0-15-6.716-15-15s6.716-15 15-15h164.261c8.284 0 15 6.716 15 15s-6.716 15-15 15z" fill="#002c3c"/></g><path d="m436.805 146.5h-180.805v30h180.805c8.284 0 15-6.716 15-15s-6.716-15-15-15z" fill="#002c3c"/></g></svg>