<svg id="Layer_1" enable-background="new 0 0 512 512" height="512" viewBox="0 0 512 512" width="512" xmlns="http://www.w3.org/2000/svg"><g><g><path d="m80.866 426.001h-47.597c-18.308 0-33.201-14.894-33.201-33.202v-50.364c0-18.308 14.894-33.202 33.201-33.202h47.598c18.308 0 33.201 14.894 33.201 33.202v50.364c-.001 18.308-14.894 33.202-33.202 33.202z" fill="#00607f"/></g><path clip-rule="evenodd" d="m145.738 130.001h180.544c23.117 0 42.931 12.133 53.44 32.722l37.404 73.277h-362.204l37.367-73.261c10.506-20.599 30.325-32.738 53.449-32.738z" fill="#f9f9f9" fill-rule="evenodd"/><path d="m417.126 251h-362.204c-5.22 0-10.064-2.714-12.791-7.165-2.727-4.452-2.943-10-.571-14.65l37.367-73.261c13.07-25.625 38.046-40.923 66.811-40.923h180.544c28.756 0 53.729 15.291 66.801 40.902l37.404 73.277c2.373 4.65 2.158 10.2-.568 14.652-2.727 4.453-7.572 7.168-12.793 7.168zm-337.715-30h313.217l-26.267-51.458c-7.96-15.596-22.569-24.541-40.08-24.541h-180.544c-17.517 0-32.127 8.95-40.086 24.554z" fill="#e63950"/><path d="m386.048 218.001h-369.23c-8.284 0-15 6.716-15 15s6.716 15 15 15h3.996c-12.956 15.059-20.814 34.623-20.814 56v47c0 8.284 6.716 15 15 15h442.048c8.284 0 15-6.716 15-15v-47c0-47.421-38.579-86-86-86z" fill="#ff5b5b"/><g><path d="m109.347 307.001h-34.278c-8.284 0-15-6.716-15-15s6.716-15 15-15h34.277c8.284 0 15 6.716 15 15s-6.715 15-14.999 15z" fill="#ffd321"/></g><g><path d="m297.067 307.001h-122.087c-8.284 0-15-6.716-15-15s6.716-15 15-15h122.087c8.284 0 15 6.716 15 15s-6.715 15-15 15z" fill="#00607f"/></g><g><path d="m497 462.001h-282c-8.284 0-15-6.716-15-15v-382c0-8.284 6.716-15 15-15h209c3.978 0 7.793 1.58 10.606 4.394l73 73c2.813 2.812 4.394 6.628 4.394 10.606v309c0 8.284-6.716 15-15 15z" fill="#f9f9f9"/></g><path d="m507.606 127.394-73-73c-2.813-2.813-6.628-4.394-10.606-4.394h-68v412h141c8.284 0 15-6.716 15-15v-309c0-3.978-1.581-7.793-4.394-10.606z" fill="#e2dff4"/><g><path d="m497 153.001h-73c-8.284 0-15-6.716-15-15v-73c0-6.067 3.655-11.536 9.26-13.858 5.606-2.323 12.057-1.038 16.347 3.252l73 73c4.29 4.29 5.573 10.741 3.251 16.347-2.321 5.604-7.791 9.259-13.858 9.259z" fill="#bebcdd"/></g><g><path d="m340.237 402h-65.237c-8.284 0-15-6.716-15-15s6.716-15 15-15h65.237c8.284 0 15 6.716 15 15s-6.716 15-15 15z" fill="#00607f"/></g><g><path d="m437 402h-26c-8.284 0-15-6.716-15-15s6.716-15 15-15h26c8.284 0 15 6.716 15 15s-6.716 15-15 15z" fill="#002c3c"/></g><g><path d="m414.889 200.001h-117.779c-8.284 0-15-6.716-15-15s6.716-15 15-15h117.779c8.284 0 15 6.716 15 15s-6.716 15-15 15z" fill="#00607f"/></g><g><path d="m436.998 260.001h-161.998c-8.284 0-15-6.716-15-15s6.716-15 15-15h161.998c8.284 0 15 6.716 15 15s-6.716 15-15 15z" fill="#00607f"/></g><g><path d="m436.998 320h-161.998c-8.284 0-15-6.716-15-15s6.716-15 15-15h161.998c8.284 0 15 6.716 15 15s-6.716 15-15 15z" fill="#00607f"/></g><g fill="#002c3c"><path d="m414.889 170.001h-58.889v30h58.889c8.284 0 15-6.716 15-15s-6.716-15-15-15z"/><path d="m436.998 230.001h-80.998v30h80.998c8.284 0 15-6.716 15-15s-6.716-15-15-15z"/><path d="m436.998 290h-80.998v30h80.998c8.284 0 15-6.716 15-15s-6.716-15-15-15z"/></g></g></svg>