<svg id="Layer_1" enable-background="new 0 0 512 512" height="512" viewBox="0 0 512 512" width="512" xmlns="http://www.w3.org/2000/svg"><g><g><path d="m382.921 28.923 27.003 27.003c2.813 2.812 4.394 6.628 4.394 10.606v5.994c0 3.979-1.58 7.794-4.394 10.606l-27.003 27.003c-2.812 2.813-6.628 4.394-10.606 4.394h-126.998c-8.284 0-15-6.716-15-15v-60c0-8.284 6.716-15 15-15h126.998c3.978 0 7.794 1.58 10.606 4.394z" fill="#ffd321"/></g><g><path d="m276.66 30.029v79c0 16.542-13.458 30-30 30h-79.479c-38.322 0-69.5-31.178-69.5-69.5s31.177-69.5 69.5-69.5h79.479c16.542 0 30 13.458 30 30z" fill="#7c84e8"/></g><g><g><path d="m86.815 511.971h-51.896c-19.214 0-34.846-15.632-34.846-34.846v-54.913c0-19.214 15.632-34.846 34.846-34.846h51.896c19.214 0 34.846 15.632 34.846 34.846v54.913c0 19.214-15.632 34.846-34.846 34.846z" fill="#00607f"/></g><g><path d="m477.154 511.971h-51.896c-19.214 0-34.846-15.632-34.846-34.846v-54.913c0-19.214 15.632-34.846 34.846-34.846h51.896c19.214 0 34.846 15.632 34.846 34.846v54.913c0 19.214-15.632 34.846-34.846 34.846z" fill="#002c3c"/></g><g><path clip-rule="evenodd" d="m157.548 190.588h196.852c25.206 0 46.809 13.229 58.268 35.678l40.783 79.897h-394.922l40.742-79.879c11.455-22.461 33.064-35.696 58.277-35.696z" fill="#f9f9f9" fill-rule="evenodd"/></g><path clip-rule="evenodd" d="m256 306.162h197.451l-40.783-79.897c-11.459-22.449-33.062-35.677-58.268-35.677h-98.4z" fill="#e2dff4" fill-rule="evenodd"/><g><path d="m453.45 321.163h-394.922c-5.22 0-10.064-2.714-12.791-7.165-2.727-4.452-2.943-10-.571-14.65l40.742-79.879c14.015-27.477 40.796-43.88 71.64-43.88h196.852c30.833 0 57.609 16.396 71.628 43.857l40.782 79.898c2.373 4.65 2.158 10.2-.568 14.652-2.725 4.452-7.571 7.167-12.792 7.167zm-370.432-30h345.936l-29.646-58.078c-8.92-17.475-25.288-27.497-44.907-27.497h-196.853c-19.626 0-35.997 10.027-44.915 27.511z" fill="#e63950"/></g><path d="m466.811 299.343-40.782-79.898c-14.019-27.462-40.795-43.857-71.628-43.857h-98.401v30h98.4c19.619 0 35.987 10.022 44.907 27.497l29.646 58.078h-172.953v30h197.45c5.221 0 10.066-2.715 12.792-7.167 2.727-4.453 2.942-10.003.569-14.653z" fill="#ae2538"/><path d="m487.655 317.891h7.437c8.284 0 15-6.716 15-15s-6.716-15-15-15h-478.111c-8.284 0-15 6.716-15 15s6.716 15 15 15h7.343c-15.096 16.455-24.324 38.377-24.324 62.415v51.246c0 8.284 6.716 15 15 15h481.979c8.284 0 15-6.716 15-15v-51.246c0-24.038-9.228-45.96-24.324-62.415z" fill="#ff5b5b"/><path d="m487.655 317.891h7.437c8.284 0 15-6.716 15-15s-6.716-15-15-15h-239.092v158.66h240.979c8.284 0 15-6.716 15-15v-51.246c0-24.037-9.228-45.959-24.324-62.414z" fill="#e63950"/><g><path d="m117.869 382.222h-37.373c-8.284 0-15-6.716-15-15s6.716-15 15-15h37.373c8.284 0 15 6.716 15 15s-6.716 15-15 15z" fill="#ffd321"/></g><g><path d="m322.548 382.222h-133.116c-8.284 0-15-6.716-15-15s6.716-15 15-15h133.116c8.284 0 15 6.716 15 15s-6.716 15-15 15z" fill="#00607f"/></g><g><path d="m431.731 382.222h-33.559c-8.284 0-15-6.716-15-15s6.716-15 15-15h33.559c8.284 0 15 6.716 15 15s-6.715 15-15 15z" fill="#ff9d21"/></g><path d="m322.548 352.222h-66.548v30h66.548c8.284 0 15-6.716 15-15s-6.716-15-15-15z" fill="#002c3c"/></g><path d="m382.921 110.136c-2.812 2.813-6.628 4.394-10.606 4.394h-126.998c-8.284 0-15-6.716-15-15v-30h184v2.997c0 3.979-1.58 7.794-4.394 10.606z" fill="#ff9d21"/><path d="m276.66 109.029c0 16.542-13.458 30-30 30h-79.479c-38.322 0-69.5-31.178-69.5-69.5h178.979z" fill="#424ede"/></g></svg>