<svg id="Layer_1" enable-background="new 0 0 512 512" height="512" viewBox="0 0 512 512" width="512" xmlns="http://www.w3.org/2000/svg"><g><g><path d="m87.5 392.942c-48.248 0-87.5-39.252-87.5-87.5s39.252-87.5 87.5-87.5 87.5 39.252 87.5 87.5c0 48.247-39.252 87.5-87.5 87.5zm0-145.001c-31.706 0-57.5 25.794-57.5 57.5s25.794 57.5 57.5 57.5 57.5-25.794 57.5-57.5c0-31.705-25.794-57.5-57.5-57.5z" fill="#007a9f"/></g><g><path d="m233.945 306.441c-4.174 0-8.327-1.732-11.292-5.12l-94.939-108.456c-3.876-4.428-4.805-10.713-2.375-16.073s7.77-8.804 13.654-8.807l87.793-.042h.007c8.282 0 14.996 6.71 15 14.993.004 8.284-6.708 15.003-14.993 15.007l-54.749.026 73.174 83.592c5.457 6.233 4.827 15.71-1.407 21.167-2.844 2.491-6.367 3.713-9.873 3.713z" fill="#7c84e8"/></g><g><path d="m87.501 320.446c-1.597 0-3.219-.256-4.815-.797-7.846-2.659-12.051-11.174-9.393-19.021l54.786-161.687h-39.579c-8.284 0-15-6.716-15-15s6.716-15 15-15h60.5c4.834 0 9.373 2.331 12.19 6.259 2.817 3.929 3.568 8.976 2.016 13.554l-61.5 181.501c-2.117 6.25-7.953 10.191-14.205 10.191z" fill="#b6baf2"/></g><g><path d="m497 462.001h-282c-8.284 0-15-6.716-15-15v-382c0-8.284 6.716-15 15-15h209c3.978 0 7.793 1.58 10.606 4.394l73 73c2.813 2.812 4.394 6.628 4.394 10.606v309c0 8.284-6.716 15-15 15z" fill="#f9f9f9"/></g><path d="m507.606 127.394-73-73c-2.813-2.813-6.628-4.394-10.606-4.394h-68v412h141c8.284 0 15-6.716 15-15v-309c0-3.978-1.581-7.793-4.394-10.606z" fill="#e2dff4"/><g><path d="m497 153.001h-73c-8.284 0-15-6.716-15-15v-73c0-6.067 3.655-11.536 9.26-13.858 5.606-2.323 12.057-1.038 16.347 3.252l73 73c4.29 4.29 5.573 10.741 3.251 16.347-2.321 5.604-7.791 9.259-13.858 9.259z" fill="#bebcdd"/></g><g><path d="m340.237 402h-65.237c-8.284 0-15-6.716-15-15s6.716-15 15-15h65.237c8.284 0 15 6.716 15 15s-6.716 15-15 15z" fill="#00607f"/></g><g><path d="m437 402h-26c-8.284 0-15-6.716-15-15s6.716-15 15-15h26c8.284 0 15 6.716 15 15s-6.716 15-15 15z" fill="#002c3c"/></g><g><path d="m414.889 200.001h-117.779c-8.284 0-15-6.716-15-15s6.716-15 15-15h117.779c8.284 0 15 6.716 15 15s-6.716 15-15 15z" fill="#00607f"/></g><g><path d="m436.998 260.001h-161.998c-8.284 0-15-6.716-15-15s6.716-15 15-15h161.998c8.284 0 15 6.716 15 15s-6.716 15-15 15z" fill="#00607f"/></g><g><path d="m436.998 320h-161.998c-8.284 0-15-6.716-15-15s6.716-15 15-15h161.998c8.284 0 15 6.716 15 15s-6.716 15-15 15z" fill="#00607f"/></g><g fill="#002c3c"><path d="m414.889 170.001h-58.889v30h58.889c8.284 0 15-6.716 15-15s-6.716-15-15-15z"/><path d="m436.998 230.001h-80.998v30h80.998c8.284 0 15-6.716 15-15s-6.716-15-15-15z"/><path d="m436.998 290h-80.998v30h80.998c8.284 0 15-6.716 15-15s-6.716-15-15-15z"/></g></g></svg>