<svg id="Layer_1" enable-background="new 0 0 512 512" height="512" viewBox="0 0 512 512" width="512" xmlns="http://www.w3.org/2000/svg"><g><g><path d="m69.813 396.487c-30.678 0-55.637-24.958-55.637-55.637s24.959-55.637 55.637-55.637 55.636 24.958 55.636 55.637-24.958 55.637-55.636 55.637z" fill="#f9f9f9"/></g><g><path d="m69.812 411.5c-38.495 0-69.812-31.318-69.812-69.813s31.317-69.813 69.812-69.813 69.813 31.318 69.813 69.813-31.317 69.813-69.813 69.813zm0-109.626c-21.953 0-39.812 17.86-39.812 39.813s17.859 39.813 39.812 39.813 39.813-17.859 39.813-39.812-17.859-39.814-39.813-39.814z" fill="#007a9f"/></g><g><path d="m215 333.723h-46.301c-8.284 0-15-6.716-15-15v-.766c0-43.537-35.42-78.957-78.957-78.957h-4.93c-8.284 0-15-6.716-15-15s6.716-15 15-15h4.93c55.257 0 101.038 41.343 108.031 94.723h32.227c8.284 0 15 6.716 15 15s-6.716 15-15 15z" fill="#bee75e"/></g><g><path d="m69.812 356.687c-8.284 0-15-6.716-15-15v-254.512c0-8.284 6.716-15 15-15h45.572c8.284 0 15 6.716 15 15s-6.716 15-15 15h-30.572v239.513c0 8.283-6.715 14.999-15 14.999z" fill="#bee75e"/></g><g><path d="m497 462.001h-282c-8.284 0-15-6.716-15-15v-382c0-8.284 6.716-15 15-15h209c3.978 0 7.793 1.58 10.606 4.394l73 73c2.813 2.812 4.394 6.628 4.394 10.606v309c0 8.284-6.716 15-15 15z" fill="#f9f9f9"/></g><path d="m507.606 127.394-73-73c-2.813-2.813-6.628-4.394-10.606-4.394h-68v412h141c8.284 0 15-6.716 15-15v-309c0-3.978-1.581-7.793-4.394-10.606z" fill="#e2dff4"/><g><path d="m497 153.001h-73c-8.284 0-15-6.716-15-15v-73c0-6.067 3.655-11.536 9.26-13.858 5.606-2.323 12.057-1.038 16.347 3.252l73 73c4.29 4.29 5.573 10.741 3.251 16.347-2.321 5.604-7.791 9.259-13.858 9.259z" fill="#bebcdd"/></g><g><path d="m340.237 402h-65.237c-8.284 0-15-6.716-15-15s6.716-15 15-15h65.237c8.284 0 15 6.716 15 15s-6.716 15-15 15z" fill="#00607f"/></g><g><path d="m437 402h-26c-8.284 0-15-6.716-15-15s6.716-15 15-15h26c8.284 0 15 6.716 15 15s-6.716 15-15 15z" fill="#002c3c"/></g><g><path d="m414.889 200.001h-117.779c-8.284 0-15-6.716-15-15s6.716-15 15-15h117.779c8.284 0 15 6.716 15 15s-6.716 15-15 15z" fill="#00607f"/></g><g><path d="m436.998 260.001h-161.998c-8.284 0-15-6.716-15-15s6.716-15 15-15h161.998c8.284 0 15 6.716 15 15s-6.716 15-15 15z" fill="#00607f"/></g><g><path d="m436.998 320h-161.998c-8.284 0-15-6.716-15-15s6.716-15 15-15h161.998c8.284 0 15 6.716 15 15s-6.716 15-15 15z" fill="#00607f"/></g><g fill="#002c3c"><path d="m414.889 170.001h-58.889v30h58.889c8.284 0 15-6.716 15-15s-6.716-15-15-15z"/><path d="m436.998 230.001h-80.998v30h80.998c8.284 0 15-6.716 15-15s-6.716-15-15-15z"/><path d="m436.998 290h-80.998v30h80.998c8.284 0 15-6.716 15-15s-6.716-15-15-15z"/></g></g></svg>