<svg id="Capa_1" enable-background="new 0 0 512 512" height="512" viewBox="0 0 512 512" width="512" xmlns="http://www.w3.org/2000/svg"><g><path d="m225.275 128.67-26.014-7.125c-30.875-8.456-63.75-5.672-92.762 7.857l-17.107 7.977c-3.752 1.75-7.365 3.784-10.806 6.086l-24.813 16.599c-2.62 1.753-3.11 5.407-1.044 7.788l3.644 4.201c1.052 1.212 1.49 2.84 1.189 4.417l-12.195 63.814c-1.658 8.677.213 17.657 5.198 24.95l16.061 23.495c2.038 2.982 5.936 4.05 9.21 2.523l214.802-100.164 20.494-18.938c4.394-4.06 5.66-10.495 3.132-15.917l-8.653-18.557c-1.07-2.294-2.748-4.255-4.858-5.653-20.189-13.367-46.101-12.629-75.478-3.353z" fill="#80b6fc"/><path d="m314.263 156.234-5.731-12.291c.267 3.909-1.453 7.974-4.839 10.904l-21.31 18.442-219.084 102.162c-1.779.829-3.695.965-5.392.524l8.719 12.755c2.039 2.982 5.936 4.05 9.21 2.523l214.802-100.164 20.494-18.938c4.393-4.06 5.659-10.494 3.131-15.917z" fill="#62a4fb"/><path d="m106.499 129.402-14.331 6.682-6.008 49.321c-.458 3.757 3.394 6.552 6.824 4.953l132.291-61.688-26.014-7.125c-24.385-6.679-50.017-6.346-74.008.754-2.373 2.818-4.839 4.803-4.839 4.803s-4.692-.241-7.652-.43c-2.106.855-4.194 1.765-6.263 2.73z" fill="#8c818f"/><circle cx="111.925" cy="273.51" fill="#ddebfd" r="23.336"/><path d="m111.973 304.457c-11.663 0-22.85-6.619-28.096-17.867-7.212-15.465-.497-33.915 14.969-41.128 15.465-7.212 33.916-.497 41.128 14.969s.497 33.916-14.969 41.128c-4.218 1.967-8.659 2.898-13.032 2.898zm-.072-46.671c-2.223 0-4.478.473-6.622 1.473-7.858 3.665-11.27 13.039-7.606 20.897 3.665 7.858 13.04 11.271 20.897 7.606 7.859-3.665 11.271-13.039 7.606-20.897-2.664-5.715-8.35-9.079-14.275-9.079z" fill="#766d78"/><circle cx="266.579" cy="201.394" fill="#ddebfd" r="23.336"/><path d="m266.597 232.359c-3.569 0-7.148-.626-10.603-1.883-7.768-2.827-13.97-8.51-17.463-16.003-7.212-15.465-.497-33.915 14.969-41.128 7.492-3.495 15.897-3.861 23.664-1.033 7.768 2.828 13.97 8.51 17.464 16.003 3.494 7.492 3.86 15.896 1.033 23.664-2.828 7.768-8.51 13.97-16.002 17.463-4.161 1.941-8.604 2.917-13.062 2.917zm-.027-46.698c-2.266 0-4.522.496-6.637 1.482-7.858 3.665-11.27 13.039-7.606 20.898 1.775 3.807 4.926 6.694 8.873 8.131s8.217 1.25 12.024-.525 6.695-4.926 8.131-8.873c1.437-3.947 1.251-8.217-.524-12.024s-4.927-6.694-8.873-8.131c-1.756-.64-3.574-.958-5.388-.958z" fill="#766d78"/><path d="m136.45 177.536c1.119 2.4 3.499 3.811 5.983 3.811.933 0 1.882-.199 2.783-.619 3.302-1.54 4.731-5.464 3.191-8.766l-23.153-49.655c-4.22 1.249-8.388 2.707-12.491 4.373.06.151 23.687 50.856 23.687 50.856z" fill="#80b6fc"/><path d="m7.618 280.29c-2.867 0-5.613-1.628-6.904-4.398-1.776-3.81-.127-8.339 3.683-10.115l13.084-6.099c3.809-1.775 8.338-.127 10.115 3.683 1.776 3.81.127 8.339-3.683 10.115l-13.084 6.099c-1.04.485-2.134.715-3.211.715z" fill="#eec06b"/><path d="m512 166.918v39.373l-504.391 193.692v-41.215c0-1.972 1.143-3.766 2.93-4.599l412.443-192.326h83.943c2.803.001 5.075 2.272 5.075 5.075z" fill="#77d1b3"/><path d="m506.926 161.844h-27.906c2.802 0 5.074 2.272 5.074 5.074v39.373h27.906v-39.373c0-2.803-2.272-5.074-5.074-5.074z" fill="#67b59f"/><path d="m512 206.291v242.425c0 2.802-2.272 5.074-5.074 5.074h-494.242c-2.802 0-5.074-2.272-5.074-5.074v-48.732l415.373-193.692h89.017z" fill="#e3e0e4"/><path d="m484.095 206.291v242.425c0 2.803-2.272 5.074-5.074 5.074h27.905c2.803 0 5.074-2.272 5.074-5.074v-242.425z" fill="#c5bec6"/><path d="m474.06 91.978c0-2.914-1.639-5.444-4.045-6.723l-20.538-24.343c-2.711-3.213-7.512-3.62-10.726-.909-3.213 2.711-3.62 7.513-.91 10.726l11.506 13.637h-48.667c-4.729 0-9.497 1.056-13.786 3.056l-54.258 25.301c-3.81 1.777-5.458 6.305-3.681 10.115 1.291 2.77 4.036 4.397 6.903 4.397 1.077 0 2.171-.23 3.212-.715l54.257-25.3c2.287-1.066 4.831-1.63 7.353-1.63h49.437l-12.115 13.451c-2.813 3.124-2.561 7.937.562 10.75 1.455 1.311 3.277 1.956 5.092 1.956 2.081 0 4.155-.849 5.658-2.517l22.789-25.303c1.419-1.576 2.066-3.601 1.937-5.588.008-.121.02-.239.02-.361z" fill="#eec06b"/></g></svg>