<svg id="Capa_1" enable-background="new 0 0 512 512" height="512" viewBox="0 0 512 512" width="512" xmlns="http://www.w3.org/2000/svg"><g><g fill="#df646e"><path d="m397.214 313.326c-1.99 0-3.97-.818-5.394-2.423-2.645-2.978-2.375-7.536.603-10.181l46.206-41.039c2.979-2.645 7.537-2.374 10.18.603 2.645 2.978 2.375 7.536-.603 10.181l-46.206 41.04c-1.373 1.219-3.083 1.819-4.786 1.819z"/><path d="m465.055 291.713h-15.101c-10.16 0-18.396-8.236-18.396-18.396s8.236-18.396 18.396-18.396h15.101c10.16 0 18.396 8.236 18.396 18.396s-8.236 18.396-18.396 18.396z"/><path d="m114.786 313.326c-1.702 0-3.412-.6-4.786-1.819l-46.206-41.039c-2.978-2.645-3.247-7.203-.603-10.181 2.643-2.976 7.201-3.249 10.18-.603l46.206 41.039c2.978 2.645 3.247 7.203.603 10.181-1.424 1.604-3.404 2.422-5.394 2.422z"/><path d="m46.945 291.713h15.101c10.16 0 18.396-8.236 18.396-18.396s-8.236-18.396-18.396-18.396h-15.101c-10.16 0-18.396 8.236-18.396 18.396s8.236 18.396 18.396 18.396z"/></g><path d="m373.172 431.856v67.302c0 7.092 5.749 12.842 12.842 12.842h43.89c7.092 0 12.842-5.749 12.842-12.842v-67.302z" fill="#8c818f"/><path d="m69.255 431.856v67.302c0 7.092 5.749 12.842 12.842 12.842h43.89c7.092 0 12.842-5.749 12.842-12.842v-67.302z" fill="#8c818f"/><path d="m429.904 488.862h-43.89c-7.092 0-12.842-5.749-12.842-12.842v23.138c0 7.092 5.749 12.842 12.842 12.842h43.89c7.092 0 12.842-5.749 12.842-12.842v-23.138c-.001 7.093-5.75 12.842-12.842 12.842z" fill="#766d78"/><path d="m125.986 488.862h-43.89c-7.092 0-12.841-5.749-12.841-12.842v23.138c0 7.092 5.749 12.842 12.842 12.842h43.89c7.092 0 12.842-5.749 12.842-12.842v-23.138c-.001 7.093-5.75 12.842-12.843 12.842z" fill="#766d78"/><path d="m448.683 339.587s-5.851-12.812-12.52-26.461c-5.782-3.95-10.386-7.085-10.748-7.302l-18.074-73.909c-7.81-31.938-36.228-54.243-69.107-54.243h-164.468c-32.878 0-61.297 22.306-69.107 54.243l-18.074 73.909c-1.02.611-2.026 1.246-3.01 1.922l-7.768 5.337-13.542 38.139-28.288 12.763v80.245c0 7.144 5.792 12.936 12.936 12.936h147.784l61.305-10 61.516 10h147.571c7.144 0 12.936-5.792 12.936-12.936v-80.245z" fill="#df646e"/><path d="m455.683 338.705s-9.04-18.42-19.519-25.579c-5.782-3.95-10.386-7.085-10.748-7.302l-18.074-73.909c-7.81-31.938-36.228-54.243-69.107-54.243h-24.648c32.878 0 61.297 22.306 69.107 54.243l18.074 73.909c1.02.611 35.578 24.297 35.578 24.297 10.661 7.324 17.03 19.429 17.03 32.363v81.745c0 7.144-5.792 12.936-12.936 12.936h24.648c7.144 0 12.936-5.792 12.936-12.936v-80.245z" fill="#dc4955"/><path d="m116.002 297.679s282.656.047 283.977.141c3.802.269 6.799-3.16 5.893-6.863l-13.541-55.372c-6.114-25.001-28.359-42.462-54.097-42.462h-164.468c-25.737 0-47.983 17.461-54.097 42.462l-13.541 55.372c-.905 3.702 2.091 7.132 5.893 6.863 1.322-.093 2.649-.141 3.981-.141z" fill="#8c818f"/><path d="m405.872 290.958-13.541-55.372c-3.757-15.363-13.61-27.869-26.617-35.236 8.048 8.664 14.008 19.415 16.979 31.565l16.102 65.843c.395.02.79.035 1.184.063 3.802.269 6.799-3.161 5.893-6.863z" fill="#766d78"/><path d="m465.088 433.306h-418.176c-7.144 0-12.936-5.792-12.936-12.936v23.86c0 7.144 5.792 12.936 12.936 12.936h147.784l61.305-10 61.516 10h147.571c7.144 0 12.936-5.792 12.936-12.936v-23.86c0 7.144-5.792 12.936-12.936 12.936z" fill="#dc4955"/><path d="m319.081 433.741-18.701 23.427h-88.428l-19.04-23.435c-4.3-5.37-4.602-12.814-.752-18.514l9.859-14.587c2.91-4.3 7.742-6.873 12.942-6.873h82.079c5.2 0 10.032 2.573 12.942 6.873l9.859 14.587c3.849 5.699 3.55 13.142-.76 18.522z" fill="#8c818f"/><path d="m319.407 433.308c-.1.14-.216.293-.326.433l-18.701 23.427h-88.428s-19.262-23.718-19.371-23.858z" fill="#766d78"/><path d="m300.38 457.168 17.137-.002 12.024-15.059c7.992-9.977 8.553-23.797 1.396-34.389l-9.857-14.584c-5.402-7.996-14.389-12.77-24.04-12.77h-82.078c-9.651 0-18.638 4.774-24.04 12.769l-9.857 14.585c-7.157 10.592-6.596 24.411 1.426 34.425l12.207 15.023 17.256.002-19.04-23.435c-4.304-5.372-4.606-12.811-.752-18.514l9.859-14.587c2.908-4.305 7.746-6.873 12.942-6.873h82.079c5.196 0 10.033 2.567 12.942 6.873l9.859 14.587c3.854 5.703 3.551 13.142-.759 18.523z" fill="#ddebfd"/><g fill="#bed9fd"><path d="m334.368 433.306-14.962.002c-.108.145-.212.291-.326.433l-18.701 23.427 17.137-.002 12.024-15.059c2.161-2.698 3.76-5.681 4.828-8.801z"/><path d="m192.597 433.306h-14.958c1.073 3.13 2.678 6.125 4.85 8.837l12.207 15.023 17.256.002-19.04-23.435c-.112-.14-.209-.285-.315-.427z"/></g><path d="m460.993 330.121-24.8-17.039-10.851 19.855c-3.517 6.435-9.448 11.206-16.486 13.264l-17.036 4.98c-6.859 2.005-11.573 8.294-11.573 15.44 0 8.884 7.202 16.086 16.086 16.086h37.083c17.207 0 33.129-7.04 44.607-18.723v-1.5c.001-12.934-6.369-25.039-17.03-32.363z" fill="#eec06b"/><path d="m474.54 346.315c-3.055-6.758-7.991-12.377-13.547-16.194 0 0-14.487-9.929-24.825-16.992l-6.708 12.275c7.008 4.8 23.916 14.144 23.916 37.081v16.933c9.35-3.155 17.795-8.458 24.648-15.434-.082-.842.617-8.595-3.484-17.669z" fill="#e9a52d"/><path d="m78.583 382.707h37.083c8.884 0 16.086-7.202 16.086-16.086 0-7.146-4.714-13.435-11.573-15.44l-17.036-4.98c-7.038-2.057-12.969-6.829-16.486-13.264l-10.851-19.855-24.8 17.039c-10.661 7.324-17.03 19.429-17.03 32.363v1.5c11.478 11.683 27.4 18.723 44.607 18.723z" fill="#eec06b"/><path d="m336.923 30.767c-25.173 0-48.319-9.519-66.666-25.459-8.146-7.077-20.367-7.077-28.513 0-18.347 15.94-41.494 25.459-66.666 25.459-6.195 0-12.263-.591-18.169-1.706-3.94-.744-7.741 1.902-8.314 5.871-1.428 9.886-2.177 20.021-2.177 30.35 0 74.513 38.514 139.103 94.788 170.903 9.183 5.189 20.407 5.189 29.59 0 56.273-31.8 94.787-96.389 94.787-170.903 0-10.329-.749-20.465-2.177-30.35-.573-3.968-4.374-6.614-8.314-5.871-5.907 1.115-11.974 1.706-18.169 1.706z" fill="#77d1b3"/><path d="m363.406 34.932c-.573-3.968-4.374-6.614-8.314-5.871-5.906 1.115-11.974 1.706-18.169 1.706-.077 0-.152-.005-.229-.006.181.48.317.986.393 1.517 1.428 10.014 2.177 20.28 2.177 30.743 0 75.477-38.514 140.902-94.787 173.113-.55.315-1.109.609-1.673.886 8.865 4.332 19.335 4.057 27.992-.835 56.273-31.8 94.787-96.389 94.787-170.903-.001-10.329-.749-20.464-2.177-30.35z" fill="#67b59f"/><circle cx="256" cy="120.039" fill="#eec06b" r="60.949"/><path d="m247.832 144.412c-2.832 0-5.495-1.103-7.498-3.105l-16.117-16.117c-3.017-3.018-3.017-7.909 0-10.927 3.019-3.018 7.91-3.017 10.928 0l12.687 12.688 29.023-29.025c3.018-3.017 7.909-3.017 10.928 0 3.017 3.017 3.017 7.909 0 10.927l-32.452 32.452c-2.002 2.004-4.666 3.107-7.499 3.107z" fill="#766d78"/></g></svg>