<svg id="Capa_1" enable-background="new 0 0 512 512" height="512" viewBox="0 0 512 512" width="512" xmlns="http://www.w3.org/2000/svg"><g><path d="m408.44 5.151v502.657c0 2.315-1.877 4.192-4.192 4.192h-27.416c-2 0-3.704-1.418-4.105-3.378-2.531-12.398-13.494-21.73-26.649-21.73-13.154 0-24.117 9.331-26.649 21.73-.4 1.96-2.104 3.378-4.105 3.378h-28.572c-2 0-3.704-1.418-4.105-3.378-2.532-12.398-13.494-21.73-26.649-21.73-13.154 0-24.117 9.331-26.649 21.73-.4 1.96-2.104 3.378-4.105 3.378h-28.572c-2 0-3.704-1.418-4.105-3.378-2.531-12.398-13.494-21.73-26.649-21.73-13.154 0-24.117 9.331-26.649 21.73-.4 1.96-2.097 3.378-4.098 3.378-6.582 0-20.456 0-27.429 0-2.315 0-4.186-1.877-4.186-4.192v-502.657c0-2.845 2.306-5.151 5.151-5.151h294.578c2.849 0 5.155 2.306 5.155 5.151z" fill="#ddebfd"/><g><path d="m403.289 0h-25.627c2.845 0 5.151 2.306 5.151 5.151v502.657c0 2.315-1.877 4.192-4.192 4.192h25.627c2.315 0 4.192-1.877 4.192-4.192v-502.657c0-2.845-2.306-5.151-5.151-5.151z" fill="#bed9fd"/></g><g><path d="m201.285 376.276h-13.258c-4.431 0-8.036-3.605-8.036-8.036 0-4.432 3.605-8.037 8.036-8.037h24.786c4.142 0 7.5-3.358 7.5-7.5s-3.358-7.5-7.5-7.5h-10.657v-5.144c0-4.142-3.358-7.5-7.5-7.5s-7.5 3.358-7.5 7.5v5.166c-12.299.46-22.165 10.604-22.165 23.015 0 12.702 10.334 23.036 23.036 23.036h13.258c4.431 0 8.036 3.605 8.036 8.037s-3.605 8.037-8.036 8.037h-6.571c-.02 0-.038-.003-.058-.003s-.038.003-.058.003h-18.098c-4.142 0-7.5 3.358-7.5 7.5s3.358 7.5 7.5 7.5h10.656v5.141c0 4.142 3.358 7.5 7.5 7.5s7.5-3.358 7.5-7.5v-5.163c12.3-.46 22.166-10.604 22.166-23.015-.001-12.703-10.335-23.037-23.037-23.037z" fill="#67b59f"/><path d="m339.51 407.35h-51.929c-4.142 0-7.5 3.358-7.5 7.5s3.358 7.5 7.5 7.5h51.929c4.142 0 7.5-3.358 7.5-7.5s-3.358-7.5-7.5-7.5z" fill="#8c818f"/></g><g fill="#766d78"><path d="m147.609 300.329h-8.584c-4.142 0-7.5-3.358-7.5-7.5s3.358-7.5 7.5-7.5h8.584c4.142 0 7.5 3.358 7.5 7.5s-3.358 7.5-7.5 7.5z"/><path d="m192.682 300.329h-8.584c-4.142 0-7.5-3.358-7.5-7.5s3.358-7.5 7.5-7.5h8.584c4.142 0 7.5 3.358 7.5 7.5s-3.358 7.5-7.5 7.5z"/><path d="m237.755 300.329h-8.584c-4.142 0-7.5-3.358-7.5-7.5s3.358-7.5 7.5-7.5h8.584c4.142 0 7.5 3.358 7.5 7.5s-3.358 7.5-7.5 7.5z"/><path d="m282.829 300.329h-8.584c-4.142 0-7.5-3.358-7.5-7.5s3.358-7.5 7.5-7.5h8.584c4.142 0 7.5 3.358 7.5 7.5s-3.358 7.5-7.5 7.5z"/><path d="m327.902 300.329h-8.584c-4.142 0-7.5-3.358-7.5-7.5s3.358-7.5 7.5-7.5h8.584c4.142 0 7.5 3.358 7.5 7.5s-3.358 7.5-7.5 7.5z"/><path d="m372.975 300.329h-8.584c-4.142 0-7.5-3.358-7.5-7.5s3.358-7.5 7.5-7.5h8.584c4.142 0 7.5 3.358 7.5 7.5s-3.358 7.5-7.5 7.5z"/></g><g><path d="m335.714 123.298c-22.611-10.17-50.083-16.136-79.714-16.136s-57.104 5.966-79.714 16.136c-1.143 5.435-13.556 10.938-13.556 16.713 0 8.117 13.001 16.085 15.211 23.483 2.809-.656 5.699-1.012 8.657-1.012 25.24 0 45.915 24.769 47.871 56.24 6.859 1.875 15.026 13.141 22.48 13.141s13.723-11.266 20.582-13.141c1.956-31.471 22.631-56.24 47.871-56.24 2.958 0 5.849.357 8.657 1.012 2.21-7.398 15.215-16.313 15.215-24.43 0-5.776-12.417-10.331-13.56-15.766z" fill="#766d78"/><circle cx="256" cy="151.194" fill="#80b6fc" r="16.049"/><path d="m256 30.942c-60.309 0-109.199 48.89-109.199 109.199s48.89 109.199 109.199 109.199 109.199-48.89 109.199-109.199-48.89-109.199-109.199-109.199zm0 190.661c-44.99 0-81.462-36.472-81.462-81.462s36.472-81.462 81.462-81.462 81.462 36.472 81.462 81.462-36.472 81.462-81.462 81.462z" fill="#8c818f"/></g></g></svg>