<svg id="Capa_1" enable-background="new 0 0 512 512" height="512" viewBox="0 0 512 512" width="512" xmlns="http://www.w3.org/2000/svg"><g><path d="m229.723 124.929h52.743v50.349h-52.743z" fill="#ddebfd"/><path d="m149.803 399.684h75.272l10 20.4-10 20.4h-29c-10.841 0-20.755-6.101-25.64-15.778l-9.038-17.901c-2.216-4.37-6.699-7.121-11.594-7.121z" fill="#a29aa5"/><path d="m362.387 399.684c-4.895 0-9.378 2.752-11.594 7.121l-9.038 17.901c-4.885 9.677-14.799 15.778-25.64 15.778h-29l-10-20.4 10-20.4z" fill="#a29aa5"/><path d="m497.349 373.559c-13.119 16.613-32.731 26.125-53.929 26.125h-373.578c-21.837 0-42.706-9.863-55.887-27.269-12.769-16.87-17.045-38.244-11.707-58.762l22.58-86.917c7.873-30.298 35.235-51.456 66.533-51.456h329.47c31.298 0 58.659 21.157 66.533 51.456l22.312 85.887c5.491 21.125 1.204 43.808-12.327 60.936z" fill="#8c818f"/><path d="m60.296 235.946-16.246 62.527 4.596 27.162c-5.281 20.327-.874 12.435 20.128 12.435h374.64c21.002 0 30.542 4.567 25.261-15.76l-.536-23.837-16.246-62.527c-3.676-14.147-16.446-24.024-31.063-24.024h-329.471c-14.616.001-27.387 9.877-31.063 24.024z" fill="#62a4fb"/><path d="m37.712 322.87c-5.281 20.327 10.061 35.165 31.063 35.165h374.64c21.002 0 36.344-14.838 31.063-35.165l-6.339-24.397h-424.088z" fill="#92e0c4"/><path d="m472.849 316.6c-4.883 11.177-15.994 19.307-29.434 19.307h-374.64c-13.44 0-24.551-8.129-29.434-19.307l-1.629 6.27c-5.281 20.327 10.061 40.165 31.063 40.165h46.258l142.062-11 140.942 11h45.378c21.002 0 36.344-19.838 31.063-40.165z" fill="#77d1b3"/><path d="m398.037 363.035-115.778-64.562h-52.328l-115.778 64.562z" fill="#c5bec6"/><path d="m162.801 335.907-48.648 27.128h283.884l-48.649-27.128z" fill="#a59da7"/><path d="m196.773 114.062-12.523-25.555c-3.842-7.839 1.865-16.99 10.595-16.99h122.5c8.73 0 14.436 9.151 10.595 16.99l-12.523 25.555c-3.259 6.651-10.02 10.867-17.427 10.867h-83.79c-7.406 0-14.167-4.216-17.427-10.867z" fill="#8c818f"/><path d="m306.954 102.446h-101.718c-7.391 0-14.247-3.463-18.653-9.179l10.191 20.795c3.259 6.651 10.02 10.867 17.427 10.867h83.789c7.407 0 14.167-4.216 17.427-10.867l10.191-20.795c-4.407 5.716-11.263 9.179-18.654 9.179z" fill="#766d78"/><path d="m249.913 298.473h12.362v64.562h-12.362z" fill="#bed9fd"/><path d="m249.913 335.907h12.362v27.128h-12.362z" fill="#9ec8fc"/><path d="m225.075 399.684h62.04v40.8h-62.04z" fill="#e27f86"/></g></svg>