<svg id="Capa_1" enable-background="new 0 0 512 512" height="512" viewBox="0 0 512 512" width="512" xmlns="http://www.w3.org/2000/svg"><g><path d="m238.07 5.142v135.239l89.692 45.446v-121.777c0-8.258-4.642-15.814-12.009-19.547z" fill="#df646e"/><path d="m288.209 102.926v109.169c0 6.037 6.358 9.96 11.754 7.252l89.836-45.097c8.36-4.197 8.36-16.13 0-20.326z" fill="#dc4955"/><path d="m315.753 44.503-.34-.172c6.434 3.26 8.351 11.547 4.002 17.301l-31.207 41.294 39.553 19.855v-58.731c.001-8.258-4.641-15.814-12.008-19.547z" fill="#d82f3c"/><path d="m238.07 283.122c-4.25 0-7.695-3.445-7.695-7.695v-267.732c0-4.25 3.445-7.695 7.695-7.695s7.695 3.445 7.695 7.695v267.731c0 4.251-3.446 7.696-7.695 7.696z" fill="#8c818f"/><path d="m150.735 464.766 19.719-71.954c11.72-16.759 16.823-37.464 16.782-61.237l16.616-60.632c1.833-6.687 7.91-11.323 14.843-11.323h38.748c6.933 0 13.011 4.636 14.843 11.323l16.616 60.632c-3.589 23.948 2.005 44.361 16.782 61.237l19.719 71.954-85.813 32z" fill="#e27c48"/><path d="m157.681 439.423-6.946 25.343h174.669l-6.946-25.343z" fill="#df6937"/><path d="m272.287 270.944c-1.832-6.687-7.91-11.323-14.843-11.323h-29.584c6.933 0 13.011 4.636 14.843 11.323l53.117 193.823h29.584l-19.719-71.954c-14.485-15.957-20.263-36.416-16.782-61.237z" fill="#df6937"/><path d="m170.454 392.812h135.231l-16.782-61.237h-101.667z" fill="#ddebfd"/><path d="m276.101 392.812h29.584l-16.782-61.237h-29.584z" fill="#bed9fd"/><path d="m115.932 475.027v26.713c0 5.667 4.594 10.26 10.26 10.26h223.755c5.667 0 10.26-4.594 10.26-10.26v-26.713c0-5.667-4.594-10.26-10.26-10.26h-223.755c-5.667-.001-10.26 4.593-10.26 10.26z" fill="#8c818f"/><path d="m349.947 488.383h-223.755c-5.667 0-10.26-4.594-10.26-10.26v23.617c0 5.667 4.594 10.26 10.26 10.26h223.755c5.667 0 10.26-4.594 10.26-10.26v-23.617c0 5.666-4.593 10.26-10.26 10.26z" fill="#766d78"/></g></svg>