<svg id="Capa_1" enable-background="new 0 0 512 512" height="512" viewBox="0 0 512 512" width="512" xmlns="http://www.w3.org/2000/svg"><g><path d="m228.736 362.435v144.414c0 2.845 2.306 5.151 5.151 5.151h44.226c2.845 0 5.151-2.306 5.151-5.151v-144.414z" fill="#8c818f"/><path d="m228.736 376.435h54.528v29.803h-54.528z" fill="#766d78"/><path d="m52.676 289.966 153.858-261.668c22.185-37.731 76.747-37.731 98.932 0l153.858 261.668c22.493 38.254-5.09 86.469-49.466 86.469h-307.716c-44.376 0-71.959-48.215-49.466-86.469z" fill="#df646e"/><path d="m409.858 351.353h-307.716c-28.76 0-50.46-20.254-56.052-44.921-7.866 34.325 17.878 70.003 56.052 70.003h307.716c38.174 0 63.918-35.678 56.052-70.003-5.592 24.667-27.292 44.921-56.052 44.921z" fill="#dc4955"/><path d="m232.975 52.127-146.52 249.189c-10.47 17.806 2.369 40.248 23.025 40.248h293.041c20.656 0 33.494-22.442 23.025-40.248l-146.521-249.189c-10.327-17.562-35.723-17.562-46.05 0z" fill="#ddebfd"/><g fill="#8c818f"><ellipse cx="256" cy="279.267" rx="15.968" ry="15.968" transform="matrix(.998 -.071 .071 .998 -19.153 18.85)"/><path d="m232.241 151.074 6.265 65.252c.865 9.014 8.438 15.895 17.494 15.895 9.055 0 16.628-6.881 17.494-15.895l6.265-65.252c1.346-14.019-9.676-26.149-23.759-26.149s-25.105 12.13-23.759 26.149z"/></g></g></svg>