<svg id="Capa_1" enable-background="new 0 0 512 512" height="512" viewBox="0 0 512 512" width="512" xmlns="http://www.w3.org/2000/svg"><g><path d="m126.254 468.213 22.035 34.316c3.79 5.902 10.323 9.471 17.337 9.471h180.747c7.014 0 13.547-3.569 17.337-9.471l22.035-34.316-132.147-8z" fill="#8c818f"/><path d="m140.313 490.107h231.374l14.059-21.894h-259.492z" fill="#766d78"/><path d="m14.116 447.61v-329.258c0-11.379 9.225-20.604 20.604-20.604h442.562c11.379 0 20.604 9.225 20.604 20.604v329.258c0 11.379-9.225 20.604-20.604 20.604h-442.563c-11.379-.001-20.603-9.225-20.603-20.604z" fill="#8c818f"/><path d="m460.268 435.747h-408.536c-2.845 0-5.151-2.306-5.151-5.151v-295.231c0-2.845 2.306-5.151 5.151-5.151h408.536c2.845 0 5.151 2.306 5.151 5.151v295.232c0 2.844-2.306 5.15-5.151 5.15z" fill="#77d1b3"/><path d="m460.268 130.214h-26.058v266.387c0 2.845-2.306 5.151-5.151 5.151h-382.478v28.845c0 2.845 2.306 5.151 5.151 5.151h408.536c2.845 0 5.151-2.306 5.151-5.151v-295.232c0-2.845-2.306-5.151-5.151-5.151z" fill="#67b59f"/><path d="m229.131 130.214h-177.399c-2.845 0-5.151 2.306-5.151 5.151v260.883z" fill="#80b6fc"/><path d="m465.419 305.368-153.256-105.163 48.028-69.992h-131.06l-182.55 266.035v34.499c0 2.761 2.239 5 5 5h98.955l124.545-181.503 190.337 130.608v-79.484z" fill="#ddebfd"/><g fill="#bed9fd"><path d="m173.864 401.751h-127.283v28.845c0 2.845 2.306 5.15 5.151 5.151h98.805z"/><path d="m465.419 305.368-31.209-21.415v79.484l31.209 21.415z"/></g><path d="m433.73 20.669c-27.37-27.559-71.944-27.559-99.314 0-27.288 27.476-26.472 72.147.91 99.529l45.354 45.354c1.874 1.874 4.912 1.874 6.787 0l45.354-45.354c27.381-27.382 28.197-72.053.909-99.529zm-32.556 66.41c-9.445 9.444-24.757 9.444-34.201 0-9.445-9.445-9.444-24.757 0-34.202 9.444-9.444 24.757-9.444 34.201 0 9.444 9.445 9.444 24.758 0 34.202z" fill="#df646e"/><path d="m433.73 20.669c-16.765-16.88-39.982-23.402-61.749-19.603 13.769 2.403 26.96 8.925 37.565 19.603 27.288 27.476 26.472 72.147-.91 99.529l-36.655 36.655 8.699 8.699c1.874 1.874 4.912 1.874 6.787 0l45.354-45.354c27.381-27.382 28.197-72.053.909-99.529z" fill="#dc4955"/><ellipse cx="294.424" cy="365.856" fill="#eec06b" rx="24.394" ry="24.394" transform="matrix(.987 -.16 .16 .987 -54.802 51.886)"/></g></svg>