<svg id="Capa_1" enable-background="new 0 0 512 512" height="512" viewBox="0 0 512 512" width="512" xmlns="http://www.w3.org/2000/svg"><g><g fill="#80b6fc"><path d="m344.46 210.55c-1.877 0-3.756-.69-5.227-2.08-3.055-2.888-3.19-7.705-.302-10.76l39.522-41.809c2.887-3.055 7.705-3.19 10.76-.302s3.19 7.705.302 10.76l-39.522 41.809c-1.497 1.583-3.513 2.382-5.533 2.382z"/><path d="m406.378 182.558-14.005 1.225c-9.422.824-17.729-6.146-18.553-15.568s6.146-17.729 15.568-18.553l14.005-1.225c9.422-.824 17.729 6.146 18.553 15.568.825 9.422-6.145 17.729-15.568 18.553z"/><path d="m82.534 233.466c-1.578 0-3.169-.489-4.533-1.501l-46.182-34.311c-3.375-2.507-4.078-7.275-1.571-10.649 2.507-3.376 7.276-4.075 10.649-1.571l46.182 34.311c3.375 2.507 4.078 7.275 1.571 10.649-1.494 2.01-3.791 3.072-6.116 3.072z"/><path d="m18.62 216.483 14.005-1.225c9.422-.824 16.393-9.131 15.568-18.553s-9.131-16.393-18.553-15.568l-14.005 1.225c-9.422.824-16.393 9.131-15.568 18.553s9.13 16.392 18.553 15.568z"/></g><path d="m332.536 319.983 5.461 62.417c.575 6.577 6.374 11.443 12.951 10.867l40.704-3.561c6.577-.575 11.443-6.374 10.867-12.951l-5.461-62.417z" fill="#8c818f"/><path d="m50.68 344.643 5.461 62.417c.575 6.577 6.374 11.443 12.951 10.867l40.704-3.561c6.577-.575 11.443-6.374 10.867-12.951l-5.461-62.417z" fill="#8c818f"/><path d="m74.401 157.435-17.451 113.493 321.135-28.096-36.894-108.738c-8.741-25.761-33.953-42.215-61.053-39.844l-152.53 13.345c-27.1 2.371-49.072 22.953-53.207 49.84z" fill="#80b6fc"/><path d="m315.826 136.313 20.845 61.436c4.048 1.151 7.97 2.775 11.673 4.869l19.918 11.265-27.072-79.788c-8.741-25.761-33.953-42.215-61.053-39.844l-25.364 2.219c27.1-2.372 52.312 14.082 61.053 39.843z" fill="#62a4fb"/><path d="m87.442 159.44c3.22-20.941 20.21-36.856 41.316-38.703 0 0 155.221-13.52 156.556-13.52 19.634 0 37.068 12.504 43.384 31.116l31.493 92.822-287.647 25.165z" fill="#8c818f"/><path d="m328.697 138.333c-5.155-15.193-17.722-26.313-32.845-29.887 9.033 6.927 16.113 16.487 19.974 27.867l20.845 61.436c4.048 1.15 7.97 2.775 11.673 4.869l2.677 1.514z" fill="#766d78"/><path d="m373.709 200.399c-9.382-5.306-20.153-7.644-30.89-6.704l-259.672 22.718c-10.738.939-20.938 5.112-29.256 11.966l-6.771 5.58-34.664 50.601 6.511 74.42c.58 6.626 6.421 11.527 13.046 10.947l135.056-11.816 58.3-16.363 59.45 6.061 135.013-11.812c6.626-.58 11.527-6.421 10.947-13.046l-6.511-74.42z" fill="#80b6fc"/><path d="m417.897 313.87-387.819 33.93c-6.626.58-12.467-4.322-13.046-10.947l1.936 22.128c.58 6.626 6.421 11.527 13.046 10.947l135.056-11.816 58.3-16.363 59.45 6.061 135.013-11.812c6.626-.58 11.527-6.421 10.947-13.046l-1.936-22.128c.58 6.625-4.321 12.466-10.947 13.046z" fill="#62a4fb"/><path d="m381.346 204.718-7.637-4.319c-9.382-5.306-20.152-7.644-30.89-6.704l-7.306.639 1.159 3.415c4.048 1.151 7.97 2.775 11.673 4.869l32.019 18.109c10.481 5.928 17.371 16.637 18.42 28.632l6.633 75.811c.58 6.626-4.322 12.467-10.947 13.046l25.364-2.219c6.626-.58 11.527-6.421 10.947-13.046l-6.511-74.42z" fill="#62a4fb"/><path d="m281.36 325.38-15.88 24.12-79.05 6.91-19.92-21.01c-4.01-4.2-4.81-10.42-1.99-15.49l7.96-14.33c2.12-3.83 6-6.34 10.36-6.72l76.12-6.66c4.36-.38 8.61 1.42 11.37 4.82l10.33 12.73c3.65 4.5 3.94 10.77.7 15.63z" fill="#8c818f"/><path d="m281.06 325.84-15.58 23.66-79.05 6.91-19.51-20.58z" fill="#766d78"/><path d="m265.479 349.502 19.342-1.692 9.228-14.015c6.941-10.406 6.31-23.925-1.571-33.638l-10.325-12.727c-5.949-7.332-15.115-11.213-24.522-10.395l-76.119 6.659c-9.407.824-17.76 6.243-22.343 14.497l-7.957 14.325c-6.074 10.935-4.349 24.357 4.274 33.38l11.585 12.217 19.373-1.695-19.932-21.018c-4.008-4.194-4.809-10.42-1.992-15.492l7.958-14.325c2.126-3.829 6-6.342 10.363-6.723l76.119-6.659c4.36-.379 8.614 1.42 11.373 4.821l10.324 12.726c3.655 4.505 3.948 10.775.704 15.638z" fill="#ddebfd"/><path d="m186.44 356.42-9.57.83 9.56-.84z" fill="#ddebfd"/><g fill="#bed9fd"><path d="m294.049 333.795c1.967-2.95 3.305-6.153 4.063-9.445l-17.053 1.492-15.579 23.66 19.342-1.692z"/><path d="m166.918 335.828-17.058 1.492c1.315 3.105 3.183 6.02 5.625 8.575l11.585 12.217c1.967-.172 17.263-1.51 19.373-1.695z"/></g><path d="m405.728 218.508-24.382-13.79-8.452 19.294c-2.739 6.253-7.853 11.159-14.213 13.639l-15.395 6c-6.198 2.416-10.06 8.631-9.48 15.258.721 8.239 7.984 14.334 16.224 13.613l34.391-3.009c15.958-1.396 30.153-9.217 39.85-20.983l-.122-1.391c-1.05-11.994-7.94-22.703-18.421-28.631z" fill="#eec06b"/><path d="m419.606 232.427c-1.975-3.516-4.539-6.686-7.576-9.39-1.866-1.662-4.064-3.263-6.302-4.529-6.331-3.58-18.705-10.579-24.382-13.79l-5.815 13.275c1.4 1.221 21.254 8.51 23.253 31.366l1.442 16.486c9.426-3.626 17.701-9.618 24.044-17.315-.144-.774-.126-8.02-4.664-16.103z" fill="#e9a52d"/><path d="m55.344 298.305 34.391-3.009c8.239-.721 14.334-7.984 13.613-16.224-.58-6.627-5.462-12.077-11.986-13.38l-16.203-3.236c-6.694-1.337-12.582-5.281-16.365-10.963l-11.674-17.534-21.617 17.814c-9.293 7.658-14.218 19.401-13.168 31.396l.122 1.391c11.591 9.904 26.929 15.141 42.887 13.745z" fill="#eec06b"/><path d="m475.287 376.749v30.175c0 6.104-4.948 11.052-11.052 11.052h-131.599c-2.752 0-4.983-2.231-4.983-4.983v-3.43c0-8.069 6.167-14.799 14.205-15.502l61.887-5.415c8.611-.754 16.362-5.525 20.914-12.874l5.75-9.285c3.553-5.738 9.822-9.229 16.571-9.229h8.814c10.766-.001 19.493 8.726 19.493 19.491z" fill="#e3e0e4"/><path d="m455.795 357.257h-8.814c-2.555 0-5.041.503-7.337 1.436 7.132 2.897 12.167 9.884 12.167 18.056v30.175c0 6.104-4.948 11.052-11.052 11.052h23.476c6.104 0 11.052-4.948 11.052-11.052v-30.175c0-10.765-8.727-19.492-19.492-19.492z" fill="#c5bec6"/><path d="m470.833 321.949c-2.203 0-4.388-.951-5.893-2.788-2.664-3.253-2.187-8.049 1.065-10.712l25.858-21.18c3.252-2.665 8.048-2.185 10.712 1.064 2.664 3.253 2.187 8.049-1.065 10.712l-25.858 21.18c-1.416 1.161-3.123 1.724-4.819 1.724z" fill="#e5936a"/><path d="m453.501 296.148c-.682 0-1.376-.092-2.065-.286-4.047-1.138-6.404-5.341-5.266-9.388l4.951-17.606c1.138-4.047 5.341-6.407 9.388-5.267 4.047 1.138 6.404 5.341 5.266 9.388l-4.951 17.606c-.943 3.357-3.998 5.553-7.323 5.553z" fill="#e5936a"/><path d="m504.388 343.01h-17.606c-4.204 0-7.612-3.407-7.612-7.612s3.408-7.611 7.612-7.611h17.606c4.204 0 7.612 3.407 7.612 7.611s-3.408 7.612-7.612 7.612z" fill="#e5936a"/></g></svg>