<svg id="Capa_1" enable-background="new 0 0 512 512" height="512" viewBox="0 0 512 512" width="512" xmlns="http://www.w3.org/2000/svg"><g><path d="m354.243 74.521-16.968 88.58h-177.932l-17.658-92.123c-1.174-6.123 2.107-12.249 7.876-14.615 9.002-3.692 19.743-5.472 32.788-4.713l26.934-42.403c3.649-5.745 9.983-9.249 16.789-9.248 40.875.01 76.652 10.121 107.927 29.157 15.541 9.46 23.667 27.497 20.244 45.365z" fill="#e27c48"/><path d="m333.999 29.157c-19.528-11.886-40.813-20.292-63.997-24.933 12.763 4.806 24.869 11.022 36.346 18.587 15.03 9.907 22.889 28.798 19.579 47.514l-16.411 92.776h27.759l16.968-88.58c3.423-17.869-4.703-35.905-20.244-45.364z" fill="#df6937"/><path d="m336.482 181.736h-176.354c-10.855 0-19.655-8.8-19.655-19.655s8.8-19.655 19.655-19.655h176.353c10.855 0 19.655 8.8 19.655 19.655s-8.799 19.655-19.654 19.655z" fill="#ebae9d"/><path d="m416.728 353.702-38.467 22.86-28.711-49.418v78.005h-202.492v-79.345l-35.026 58.926c-3.729 6.274-2.441 14.319 3.07 19.11l79.695 69.3-29.329 33.728-102.648-89.263c-8.53-7.417-10.529-19.883-4.749-29.597l56.608-95.209c9.364-15.762 26.342-25.415 44.669-25.415h177.49c18.564 0 35.706 9.9 44.998 25.961z" fill="#c5bec6"/><path d="m147.057 431.627-19.392-16.861v59.23l19.392 16.864z" fill="#a59da7"/><path d="m147.056 298.777v208.072c0 2.845 2.306 5.151 5.151 5.151h192.196c2.845 0 5.151-2.306 5.151-5.151v-208.072z" fill="#c5bec6"/><path d="m336.838 267.384h-21.02c4.346 0 8.608.563 12.716 1.6v237.865c0 2.845-2.306 5.151-5.151 5.151h21.02c2.845 0 5.151-2.306 5.151-5.151v-237.865c-4.108-1.038-8.37-1.6-12.716-1.6z" fill="#a59da7"/><path d="m266.786 240.384h-36.962l-21.781 14.195c-13.272 8.649-18.295 25.66-11.848 40.131l11.292 25.35c1.122 2.518 4.296 3.336 6.495 1.673l25.415-19.219c5.27-3.985 12.546-3.985 17.817 0l25.415 19.219c2.199 1.663 5.373.845 6.495-1.673l11.292-25.35c6.446-14.471 1.424-31.481-11.848-40.131z" fill="#ddebfd"/><path d="m218.596 174.369v89.244c0 6.211 2.72 12.11 7.442 16.144l22.267 19.02 22.267-19.02c4.723-4.034 7.442-9.933 7.442-16.144v-89.244z" fill="#ffcdbe"/><path d="m278.015 251.614v-77.246h-59.419v77.247c18.571 6.246 40.848 6.246 59.419-.001z" fill="#ebae9d"/><path d="m311.901 201.967c-20.133 42.897-107.062 42.897-127.195 0-12.355-26.342-3.589-109.725 19.017-128.942 1.158-.979 2.41-1.905 3.747-2.757 15.102 18.398 55.122 34.676 92.939 40.826 6.855 1.115 12.281 6.449 13.492 13.288 5.22 29.477 4.994 62.671-2 77.585z" fill="#ffcdbe"/><path d="m351.88 263.861-77.734 134.64c-2.28 3.948-.927 8.997 3.022 11.277l89.931 51.922c3.948 2.28 8.997.927 11.277-3.022l77.734-134.64c2.28-3.948.927-8.997-3.022-11.277l-24.134-13.934-24.04-5.454-17.623-18.6-24.134-13.934c-3.949-2.279-8.997-.926-11.277 3.022z" fill="#80b6fc"/><path d="m453.088 312.761-20.375-11.764c3.83 2.211 5.087 7.205 2.807 11.153l-77.735 134.64c-2.28 3.949-7.232 5.357-11.062 3.146l20.375 11.764c3.948 2.279 8.997.927 11.277-3.022l77.734-134.64c2.28-3.948.927-8.997-3.021-11.277z" fill="#62a4fb"/><path d="m387.291 274.773-12.623 21.863c-1.948 3.374-.792 7.689 2.582 9.637l29.443 16.999c3.374 1.948 7.689.792 9.637-2.582l12.623-21.863z" fill="#ddebfd"/><path d="m370.817 350.862 54.56 56.223c8.596 8.858 8.383 23.006-.475 31.602s-23.006 8.383-31.602-.475l-54.56-56.223z" fill="#c5bec6"/><path d="m370.817 350.862-20.577-21.205c-6.425-6.621-17-6.779-23.62-.355l-8.102 7.862c-6.62 6.425-6.779 17-.355 23.62l20.577 21.205z" fill="#ffcdbe"/><path d="m176.381 372.092v29.904c0 1.744 1.414 3.157 3.157 3.157h49.008c1.744 0 3.157-1.414 3.157-3.157v-29.904c0-1.744-1.414-3.157-3.157-3.157h-49.008c-1.743 0-3.157 1.414-3.157 3.157z" fill="#ddebfd"/><g fill="#766d78"><g><path d="m218.594 159.198c-4.142 0-7.5-3.357-7.5-7.5v-2.061c0-4.143 3.358-7.5 7.5-7.5s7.5 3.357 7.5 7.5v2.061c0 4.143-3.358 7.5-7.5 7.5z"/><path d="m278.013 159.198c-4.143 0-7.5-3.357-7.5-7.5v-2.061c0-4.143 3.357-7.5 7.5-7.5s7.5 3.357 7.5 7.5v2.061c0 4.143-3.358 7.5-7.5 7.5z"/></g><path d="m249.977 199.29c-5.933 0-11.866-1.281-16.817-3.843-3.679-1.903-5.118-6.429-3.214-10.107 1.904-3.679 6.43-5.117 10.108-3.215 5.657 2.928 14.19 2.928 19.846 0 3.678-1.903 8.203-.465 10.108 3.214 1.903 3.679.465 8.205-3.214 10.108-4.951 2.562-10.884 3.843-16.817 3.843z"/></g></g></svg>