<svg id="Capa_1" enable-background="new 0 0 512 512" height="512" viewBox="0 0 512 512" width="512" xmlns="http://www.w3.org/2000/svg"><g><path d="m325.328 101.473c-2.447 0-4.549 1.724-5.038 4.121-1.908 9.343-10.173 16.373-20.08 16.373s-18.172-7.029-20.079-16.373c-.489-2.397-2.592-4.121-5.038-4.121h-264.791c-5.69 0-10.302 4.612-10.302 10.302v288.451c0 5.69 4.612 10.302 10.302 10.302h264.791c2.447 0 4.549-1.724 5.038-4.121 1.908-9.343 10.173-16.373 20.079-16.373 9.907 0 18.172 7.029 20.08 16.373.489 2.397 2.592 4.121 5.038 4.121h176.37c5.69 0 10.302-4.612 10.302-10.302v-288.451c0-5.69-4.612-10.302-10.302-10.302z" fill="#ddebfd"/><path d="m501.698 383.174h-176.37c-2.447 0-4.549-1.724-5.038-4.121-1.908-9.343-10.173-16.373-20.08-16.373s-18.172 7.029-20.079 16.373c-.489 2.397-2.592 4.121-5.038 4.121h-264.791c-5.69 0-10.302-4.612-10.302-10.302v27.353c0 5.69 4.612 10.302 10.302 10.302h264.791c2.447 0 4.549-1.724 5.038-4.121 1.908-9.343 10.173-16.373 20.079-16.373 9.907 0 18.172 7.029 20.08 16.373.489 2.397 2.592 4.121 5.038 4.121h176.37c5.69 0 10.302-4.612 10.302-10.302v-27.353c0 5.69-4.612 10.302-10.302 10.302z" fill="#bed9fd"/><path d="m501.698 101.473h-176.37c-2.447 0-4.549 1.724-5.038 4.121-1.908 9.343-10.173 16.373-20.08 16.373v268.066c9.907 0 18.172 7.029 20.08 16.373.489 2.397 2.592 4.121 5.038 4.121h176.37c5.69 0 10.302-4.612 10.302-10.302v-288.45c0-5.69-4.612-10.302-10.302-10.302z" fill="#92e0c4"/><path d="m501.698 101.473h-26.031c5.69 0 10.302 4.612 10.302 10.302v288.451c0 5.69-4.612 10.302-10.302 10.302h26.031c5.69 0 10.302-4.612 10.302-10.302v-288.451c0-5.69-4.612-10.302-10.302-10.302z" fill="#77d1b3"/><path d="m501.698 383.174h-176.37c-2.447 0-4.549-1.724-5.038-4.121-1.908-9.343-10.173-16.373-20.08-16.373v27.353c9.907 0 18.172 7.029 20.08 16.373.489 2.397 2.592 4.121 5.038 4.121h176.37c5.69 0 10.302-4.612 10.302-10.302v-27.353c0 5.69-4.612 10.302-10.302 10.302z" fill="#77d1b3"/><g fill="#edf6ff"><g><path d="m369.686 232.964c-16.286 0-29.535-13.249-29.535-29.536 0-16.286 13.249-29.535 29.535-29.535s29.535 13.249 29.535 29.535-13.249 29.536-29.535 29.536zm0-43.619c-7.766 0-14.083 6.317-14.083 14.082s6.317 14.083 14.083 14.083 14.082-6.318 14.082-14.083-6.316-14.082-14.082-14.082z"/><path d="m442.524 338.108c-16.286 0-29.535-13.249-29.535-29.535 0-16.287 13.25-29.536 29.535-29.536s29.535 13.249 29.535 29.536c0 16.285-13.249 29.535-29.535 29.535zm0-43.619c-7.766 0-14.082 6.318-14.082 14.084s6.317 14.082 14.082 14.082 14.082-6.317 14.082-14.082-6.316-14.084-14.082-14.084z"/></g><path d="m355.914 325.457c-1.712 0-3.436-.566-4.869-1.731-3.311-2.691-3.813-7.558-1.121-10.869l100.371-123.461c2.692-3.31 7.556-3.813 10.869-1.121 3.311 2.691 3.813 7.558 1.121 10.869l-100.371 123.461c-1.527 1.878-3.754 2.852-6 2.852z"/></g><g fill="#56988c"><path d="m300.21 160.768c-4.268 0-7.726-3.459-7.726-7.726v-4.121c0-4.268 3.459-7.726 7.726-7.726s7.726 3.459 7.726 7.726v4.121c.001 4.267-3.458 7.726-7.726 7.726z"/><path d="m300.21 202.776c-4.268 0-7.726-3.459-7.726-7.726v-4.121c0-4.268 3.459-7.726 7.726-7.726s7.726 3.459 7.726 7.726v4.121c.001 4.267-3.458 7.726-7.726 7.726z"/><path d="m300.21 244.783c-4.268 0-7.726-3.459-7.726-7.726v-4.121c0-4.268 3.459-7.726 7.726-7.726s7.726 3.459 7.726 7.726v4.121c.001 4.267-3.458 7.726-7.726 7.726z"/><path d="m300.21 286.791c-4.268 0-7.726-3.459-7.726-7.726v-4.121c0-4.268 3.459-7.726 7.726-7.726s7.726 3.459 7.726 7.726v4.121c.001 4.267-3.458 7.726-7.726 7.726z"/><path d="m300.21 328.798c-4.268 0-7.726-3.459-7.726-7.726v-4.121c0-4.268 3.459-7.726 7.726-7.726s7.726 3.459 7.726 7.726v4.121c.001 4.267-3.458 7.726-7.726 7.726z"/><path d="m300.21 370.806c-4.268 0-7.726-3.459-7.726-7.726v-4.121c0-4.268 3.459-7.726 7.726-7.726s7.726 3.459 7.726 7.726v4.121c.001 4.267-3.458 7.726-7.726 7.726z"/></g><g><path d="m123.258 267.43 17.648 73.473h18.398l17.649-73.473z" fill="#a29aa5"/><path d="m237.747 248.763-6.301-21.835-5.691 5.473c-4.555 4.381-11.186 5.853-17.153 3.77-9.226-3.22-19.479-5.7-30.452-7.278-1.012-.145-2.031-.283-3.056-.412-8.01-1.014-15.054 8.679-23.663 8.679-8.361 0-17.822-9.724-25.62-8.766-1.259.155-2.509.321-3.751.499-10.973 1.578-21.226 4.058-30.452 7.278-5.967 2.082-12.598.611-17.153-3.77l-5.691-5.473-6.301 21.835v19.063l65.557 8.999h44.169l65.557-8.999v-19.063z" fill="#766d78"/><path d="m187.817 250.926-2.222 15.422c-.477 3.313-1.624 6.385-3.285 9.089-4.228 6.875-11.816 11.363-20.328 11.363h-23.753c-8.511 0-16.1-4.488-20.328-11.363-1.661-2.703-2.808-5.776-3.285-9.089l-2.222-15.422c-.971-6.758 1.115-13.167 5.141-17.933 2.22-2.628 5.397-4.254 8.813-4.663 7.635-.916 15.589-1.401 23.758-1.401s16.123.485 23.758 1.401c3.415.41 6.593 2.035 8.813 4.663 4.024 4.766 6.11 11.175 5.14 17.933z" fill="#80b6fc"/><path d="m150.105 150.631c-58.193 0-105.368 47.175-105.368 105.369s47.175 105.369 105.368 105.369 105.369-47.176 105.369-105.369-47.175-105.369-105.369-105.369zm0 177.903c-40.06 0-72.534-32.475-72.534-72.534s32.475-72.534 72.534-72.534 72.534 32.474 72.534 72.534-32.474 72.534-72.534 72.534z" fill="#8c818f"/><path d="m225.66 182.567c10.639 16.458 16.817 36.068 16.817 57.123 0 58.193-47.175 105.369-105.369 105.369-29.636 0-56.41-12.241-75.555-31.936 18.765 29.03 51.413 48.246 88.551 48.246 58.193 0 105.369-47.175 105.369-105.369.001-28.557-11.365-54.456-29.813-73.433z" fill="#766d78"/></g></g></svg>