<svg id="Capa_1" enable-background="new 0 0 512 512" height="512" viewBox="0 0 512 512" width="512" xmlns="http://www.w3.org/2000/svg"><g><g><g><path d="m78.559 145.661v29.981c0 3.186 2.583 5.769 5.769 5.769h143.019c3.186 0 5.769-2.583 5.769-5.769v-29.981c0-3.186-2.583-5.769-5.769-5.769h-143.019c-3.186 0-5.769 2.583-5.769 5.769z" fill="#8c818f"/><path d="m227.347 139.892h-24.657c3.186 0 5.769 2.583 5.769 5.769v29.981c0 3.186-2.583 5.769-5.769 5.769h24.657c3.186 0 5.769-2.583 5.769-5.769v-29.981c-.001-3.186-2.583-5.769-5.769-5.769z" fill="#766d78"/><g><path d="m102.261 139.892 12.097-40.775c7.065-10.259 10.497-21.827 10.295-34.702l11.362-38.298c.436-1.469 1.786-2.477 3.318-2.477h33.008c1.532 0 2.882 1.008 3.318 2.477l11.362 38.298c-1.791 12.978 1.502 24.583 10.295 34.702l12.097 40.775z" fill="#e5936a"/><path d="m175.659 26.118c-.436-1.469-1.786-2.477-3.318-2.477h-24.894c1.466 0 2.758 1.008 3.175 2.477l32.299 113.775h26.492l-12.097-40.775c-7.845-9.224-11.742-20.544-10.295-34.702z" fill="#e27c48"/><path d="m114.358 99.117h82.958l-10.295-34.701h-62.368z" fill="#ddebfd"/><path d="m171.346 99.117h25.97l-10.295-34.701h-25.526z" fill="#bed9fd"/></g></g><g><path d="m278.885 452.61v29.981c0 3.186 2.583 5.769 5.769 5.769h143.019c3.186 0 5.769-2.583 5.769-5.769v-29.981c0-3.186-2.583-5.769-5.769-5.769h-143.02c-3.186 0-5.768 2.583-5.768 5.769z" fill="#8c818f"/><path d="m427.672 446.841h-24.657c3.186 0 5.769 2.583 5.769 5.769v29.981c0 3.186-2.583 5.769-5.769 5.769h24.657c3.186 0 5.769-2.583 5.769-5.769v-29.981c0-3.187-2.583-5.769-5.769-5.769z" fill="#766d78"/><g><path d="m302.587 446.841 12.097-40.775c10.926-9.517 13.297-21.373 10.295-34.702l11.362-38.298c.436-1.469 1.786-2.477 3.318-2.477h33.008c1.532 0 2.882 1.008 3.318 2.477l11.362 38.298c-3.565 12.907-.133 24.474 10.295 34.702l12.097 40.775z" fill="#e5936a"/><path d="m375.985 333.066c-.436-1.469-1.786-2.477-3.318-2.477h-24.894c1.466 0 2.758 1.008 3.175 2.477l32.299 113.775h26.492l-12.097-40.775c-10.796-9.64-13.52-21.392-10.295-34.702z" fill="#e27c48"/><path d="m314.684 406.066h82.958l-10.295-34.702h-62.368z" fill="#ddebfd"/><path d="m371.672 406.066h25.97l-10.295-34.702h-25.527z" fill="#bed9fd"/></g></g></g><path d="m416.387 75.58-52.039-71.417c-4.045-5.551-12.326-5.551-16.371 0l-52.038 71.417c-2.827 3.88 1.123 9.061 5.613 7.362l33.872-12.813v93.761c0 4.251-1.689 8.328-4.695 11.334l-187.976 187.976c-4.899 4.899-7.651 11.543-7.651 18.471v125.179c0 2.845 2.306 5.151 5.151 5.151h31.174c2.845 0 5.151-2.306 5.151-5.151v-112.17c0-4.251 1.689-8.328 4.695-11.334l187.977-187.988c4.898-4.899 7.65-11.543 7.65-18.47v-106.76l33.876 12.815c4.488 1.698 8.438-3.483 5.611-7.363z" fill="#77d1b3"/></g></svg>