<svg id="Capa_1" enable-background="new 0 0 512 512" height="512" viewBox="0 0 512 512" width="512" xmlns="http://www.w3.org/2000/svg"><g><path d="m296.786 351.525v152.745h41.147l56.492-14 56.492 14h36.147c2.761 0 5-2.239 5-5v-147.745z" fill="#ddebfd"/><path d="m296.786 351.525v-48.138h212.123c1.707 0 3.091 1.384 3.091 3.091v41.957c0 1.707-1.384 3.09-3.091 3.09z" fill="#8c818f"/><path d="m508.909 330.795h-212.123v20.73h212.123c1.707 0 3.091-1.384 3.091-3.09v-20.73c0 1.706-1.384 3.09-3.091 3.09z" fill="#766d78"/><path d="m343.934 420.963v83.307h100.984v-83.307c0-2.845-2.306-5.151-5.151-5.151h-90.682c-2.845 0-5.151 2.306-5.151 5.151z" fill="#eec06b"/><path d="m444.917 451.298h-100.983c-3.313 0-6-2.687-6-6s2.687-6 6-6h100.984c3.313 0 6 2.687 6 6s-2.687 6-6.001 6z" fill="#e9a52d"/><path d="m444.917 480.784h-100.983c-3.313 0-6-2.687-6-6s2.687-6 6-6h100.984c3.313 0 6 2.687 6 6s-2.687 6-6.001 6z" fill="#e9a52d"/><path d="m439.767 409.811h-90.682c-6.148 0-11.151 5.003-11.151 11.151v83.307h12v-82.458h88.984v82.458h12v-83.307c-.001-6.148-5.003-11.151-11.151-11.151z" fill="#edf6ff"/><path d="m0 117.463v381.807c0 2.761 2.239 5 5 5h78.036l65.357-22 65.357 22h83.036v-386.807c0-1.707-1.384-3.091-3.091-3.091h-290.604c-1.707 0-3.091 1.384-3.091 3.091z" fill="#ddebfd"/><path d="m293.696 114.372h-28.815c1.707 0 3.091 1.384 3.091 3.09v386.808h28.815v-386.807c-.001-1.707-1.384-3.091-3.091-3.091z" fill="#bed9fd"/><path d="m89.036 426.427v77.842h118.714v-77.842c0-2.845-2.306-5.151-5.151-5.151h-108.412c-2.845 0-5.151 2.307-5.151 5.151z" fill="#80b6fc"/><path d="m142.393 421.276h12v82.993h-12z" fill="#62a4fb"/><path d="m213.75 504.269v-77.842c0-6.148-5.002-11.151-11.151-11.151h-108.412c-6.148 0-11.151 5.003-11.151 11.151v77.842h12v-76.993h106.714v76.993z" fill="#edf6ff"/><path d="m68.128 296.107v40.885c0 1.707 1.384 3.091 3.091 3.091h154.348c1.707 0 3.091-1.384 3.091-3.091v-40.885c0-1.707-1.384-3.091-3.091-3.091h-154.348c-1.707.001-3.091 1.385-3.091 3.091z" fill="#80b6fc"/><g fill="#edf6ff"><path d="m225.567 346.083h-154.348c-5.013 0-9.091-4.078-9.091-9.091v-40.885c0-5.012 4.078-9.09 9.091-9.09h154.348c5.012 0 9.09 4.078 9.09 9.09v40.885c.001 5.013-4.077 9.091-9.09 9.091zm-151.439-12h148.529v-35.065h-148.529z"/><path d="m175.148 346.083c-3.313 0-6-2.687-6-6v-47.065c0-3.313 2.687-6 6-6s6 2.687 6 6v47.065c0 3.313-2.687 6-6 6z"/><path d="m121.638 346.083c-3.313 0-6-2.687-6-6v-47.065c0-3.313 2.687-6 6-6s6 2.687 6 6v47.065c0 3.313-2.686 6-6 6z"/></g><g><path d="m121.546 124.529 17.648 73.473h18.398l17.649-73.473z" fill="#c5bec6"/><path d="m236.035 105.862-6.301-21.835-5.691 5.473c-4.555 4.381-11.186 5.853-17.153 3.77-9.226-3.22-19.479-5.7-30.452-7.278-1.2-.172-2.409-.333-3.627-.484-7.836-.968-13.89 4.827-22.295 4.827-8.402 0-18.7-5.796-26.534-4.828-1.22.151-2.431.312-3.634.485-10.973 1.578-21.226 4.058-30.452 7.278-5.967 2.082-12.598.611-17.153-3.77l-5.691-5.473-6.301 21.835v19.063l65.557 8.999h44.169l65.557-8.999v-19.063z" fill="#766d78"/><path d="m186.105 108.025-2.222 15.422c-.477 3.313-1.624 6.386-3.285 9.089-4.228 6.875-11.816 11.363-20.328 11.363h-23.753c-8.511 0-16.1-4.488-20.328-11.363-1.661-2.703-2.808-5.776-3.285-9.089l-2.222-15.422c-.971-6.758 1.115-13.167 5.141-17.933 2.22-2.628 5.397-4.254 8.813-4.663 7.635-.916 15.589-1.401 23.758-1.401s16.123.485 23.758 1.401c3.415.41 6.593 2.035 8.813 4.663 4.024 4.766 6.11 11.175 5.14 17.933z" fill="#80b6fc"/><path d="m148.393 7.73c-58.193 0-105.368 47.176-105.368 105.369s47.175 105.369 105.368 105.369 105.368-47.175 105.368-105.369-47.174-105.369-105.368-105.369zm0 177.903c-40.06 0-72.534-32.475-72.534-72.534s32.475-72.534 72.534-72.534 72.534 32.475 72.534 72.534-32.474 72.534-72.534 72.534z" fill="#8c818f"/><path d="m223.948 39.666c10.639 16.458 16.817 36.068 16.817 57.123 0 58.193-47.175 105.369-105.369 105.369-29.636 0-56.41-12.241-75.555-31.936 18.765 29.03 51.413 48.246 88.551 48.246 58.193 0 105.368-47.175 105.368-105.369.002-28.557-11.364-54.455-29.812-73.433z" fill="#766d78"/></g></g></svg>