<svg id="Capa_1" enable-background="new 0 0 512 512" height="512" viewBox="0 0 512 512" width="512" xmlns="http://www.w3.org/2000/svg"><g><path d="m495.515.08c-158.542 26.918-320.488 26.918-479.03 0-3.394-.576-6.491 2.026-6.491 5.469v161.053c83.18-7.466 170.439 11.742 253.619 11.849 80.824.104 157.57-19.103 238.394-11.849v-161.053c-.001-3.443-3.098-6.045-6.492-5.469z" fill="#9ec8fc"/><path d="m9.994 166.602v78.204c0 3.443 3.097 6.045 6.491 5.469 76.723-13.027 154.243-19.75 231.789-20.168 3.963-5.83 11.525-5.254 15.453 0 77.546.419 155.066 7.141 231.789 20.168 3.394.576 6.491-2.026 6.491-5.469v-78.204c-164.005-14.72-328.009-14.72-492.013 0z" fill="#77d1b3"/><path d="m495.515 218.387c-158.542-26.918-320.488-26.918-479.03 0-3.394.576-6.491-2.026-6.491-5.469v31.887c0 3.443 3.097 6.045 6.491 5.469 76.723-13.027 154.243-19.749 231.789-20.168 4.155-6.593 11.948-6.593 15.453 0 77.546.419 155.066 7.141 231.789 20.168 3.394.576 6.491-2.026 6.491-5.469v-31.887c-.001 3.443-3.098 6.046-6.492 5.469z" fill="#67b59f"/><path d="m169.286 156.944-104.324 85.968c60.835-8.196 122.066-12.453 183.312-12.784 2.478-.013 5.249-2.001 7.726-2.002 2.673-.001 5.053 1.989 7.726 2.003 61.246.331 122.477 4.587 183.312 12.783l-104.324-85.968c-26.329-.833-52.659-1.287-78.988-1.361-2.681-.008-4.687 3.755-7.369 3.755-2.47 0-5.614-3.762-8.084-3.755-26.329.074-52.658.528-78.987 1.361z" fill="#8c818f"/><path d="m401.84 205.666c-96.973-9.936-194.707-9.936-291.681 0l-45.198 37.245c35.411-4.772 71.705-8.294 108.55-10.427 24.735-1.428 49.647-2.222 74.762-2.357 2.573-.014 5.149-2.574 7.726-2.574 2.314 0 4.63 2.558 6.948 2.569 10.032.049 20.096.203 30.196.465 35.089.912 70.14 3.113 105.079 6.604 16.976 1.696 33.411 3.645 48.816 5.72z" fill="#766d78"/><path d="m248.274 155.603v74.525c5.151-.028 10.302-.027 15.453.001v-74.526c-5.151-.015-10.302-.015-15.453 0z" fill="#ddebfd"/><path d="m248.274 230.128c5.142-.028 10.293-.027 15.453.001v-31.865c-5.151-.028-10.302-.028-15.453 0z" fill="#bed9fd"/><path d="m448.731 391.02c-24.395 0-47.493-10.982-62.892-29.902l-6.696-8.227c-21.818-26.807-54.545-42.366-89.109-42.366h-68.068c-34.563 0-67.29 15.56-89.109 42.366l-6.696 8.227c-15.399 18.92-38.498 29.902-62.892 29.902h-32.672c-11.379 0-20.604 9.225-20.604 20.604v82.696c0 5.69 4.612 10.302 10.302 10.302h471.409c5.69 0 10.302-4.612 10.302-10.302v-82.696c0-11.379-9.225-20.604-20.604-20.604z" fill="#c5bec6"/><path d="m481.403 391.02h-32.672c-24.395 0-47.493-10.982-62.892-29.902l-6.696-8.227c-21.818-26.806-54.545-42.366-89.109-42.366h-68.068c-34.563 0-67.29 15.56-89.109 42.366l-6.696 8.227c-15.399 18.92-38.497 29.902-62.892 29.902h-32.672c-11.379 0-20.604 9.224-20.604 20.604v22.035c0-11.379 9.225-20.604 20.604-20.604h32.672c24.395 0 47.493-10.982 62.892-29.902l6.696-8.227c21.818-26.807 54.545-42.367 89.109-42.367h68.068c34.563 0 67.29 15.56 89.109 42.367l6.696 8.227c15.399 18.92 38.497 29.902 62.892 29.902h32.672c11.379 0 20.604 9.224 20.604 20.604v-22.035c-.001-11.379-9.225-20.604-20.604-20.604z" fill="#a59da7"/><g><path d="m226.336 408.205 19.5 81.182h20.328l19.5-81.182z" fill="#766d78"/><path d="m352.837 387.58-6.962-24.126-6.288 6.047c-5.033 4.841-12.36 6.467-18.953 4.166-10.194-3.557-21.523-6.298-33.647-8.041-1.088-.156-2.183-.304-3.283-.444-8.879-1.128-17.896 10.215-27.442 10.215-9.472 0-18.944-11.352-27.759-10.241-1.17.148-2.334.304-3.49.47-12.124 1.743-23.453 4.484-33.647 8.041-6.593 2.301-13.92.675-18.953-4.166l-6.288-6.047-6.962 24.126v21.063l72.435 9.943h48.803l72.435-9.943v-21.063z" fill="#766d78"/><path d="m297.668 389.97-2.455 17.04c-.527 3.661-1.795 7.056-3.63 10.043-4.671 7.596-13.056 12.555-22.461 12.555h-26.245c-9.404 0-17.789-4.959-22.461-12.555-1.835-2.987-3.102-6.382-3.63-10.043l-2.455-17.04c-1.072-7.467 1.232-14.548 5.68-19.815 2.452-2.904 5.964-4.7 9.738-5.153 8.436-1.012 17.224-1.548 26.25-1.548s17.814.536 26.25 1.548c3.774.453 7.285 2.249 9.737 5.153 4.45 5.267 6.755 12.348 5.682 19.815z" fill="#80b6fc"/><path d="m256 279.152c-64.299 0-116.424 52.125-116.424 116.424s52.125 116.424 116.424 116.424 116.424-52.125 116.424-116.424-52.125-116.424-116.424-116.424zm0 196.569c-44.263 0-80.145-35.882-80.145-80.145s35.882-80.145 80.145-80.145 80.145 35.882 80.145 80.145-35.882 80.145-80.145 80.145z" fill="#8c818f"/><path d="m339.483 314.438c11.755 18.185 18.582 39.852 18.582 63.117 0 64.299-52.125 116.424-116.424 116.424-32.746 0-62.329-13.525-83.483-35.286 20.734 32.075 56.807 53.307 97.842 53.307 64.299 0 116.424-52.125 116.424-116.424 0-31.553-12.558-60.169-32.941-81.138z" fill="#766d78"/></g><path d="m442.087 481.596c-4.268 0-7.726-3.459-7.726-7.726v-19.708c0-4.268 3.459-7.726 7.726-7.726 4.268 0 7.726 3.459 7.726 7.726v19.708c0 4.267-3.459 7.726-7.726 7.726z" fill="#766d78"/><ellipse cx="71.178" cy="448.796" fill="#ddebfd" rx="20.402" ry="20.402" transform="matrix(.383 -.924 .924 .383 -370.694 342.809)"/><path d="m451.057 454.62h-17.939c-8.132 0-14.724-6.592-14.724-14.724v-1.275c0-8.132 6.592-14.724 14.724-14.724h17.939c8.132 0 14.724 6.592 14.724 14.724v1.275c0 8.132-6.592 14.724-14.724 14.724z" fill="#e27c48"/></g></svg>