<svg id="Capa_1" enable-background="new 0 0 512 512" height="512" viewBox="0 0 512 512" width="512" xmlns="http://www.w3.org/2000/svg"><path d="m44.384 295.147h187.232v112.167h-187.232z" fill="#766d78"/><path d="m.162 277.665 30.11 139.733c.683 3.169 3.485 5.431 6.726 5.431h51.254c4.526 0 7.897-4.176 6.944-8.6l-30.11-139.733c-.683-3.169-3.485-5.431-6.726-5.431h-51.254c-4.526.001-7.897 4.176-6.944 8.6z" fill="#8c818f"/><path d="m53.276 417.398-30.11-139.733c-.953-4.424 2.418-8.6 6.944-8.6h-23.004c-4.526 0-7.897 4.176-6.944 8.6l30.11 139.733c.683 3.169 3.485 5.431 6.726 5.431h23.004c-3.241.001-6.043-2.262-6.726-5.431z" fill="#766d78"/><path d="m222.842 407.314c-51.072 0-95.319-34.623-107.603-84.195l-27.974-112.908c-7.266-29.323-.773-59.765 17.812-83.517 18.659-23.848 46.591-37.524 76.634-37.524 5.137 0 10.342.41 15.471 1.22l175.366 27.706c38.841 6.138 74.299 25.981 99.841 55.878 25.543 29.895 39.611 68.015 39.611 107.337v25.38c0 55.484-45.139 100.623-100.623 100.623z" fill="#8c818f"/><path d="m411.374 353.308h-188.532c-35.324 0-53.274-3.232-61.769-37.519l-31.314-75.471-9.485-38.284c-10.937-44.143 26.681-85.15 71.601-78.053l175.367 27.707c49.491 7.819 88.862 42.673 104.019 88.067 4.376 13.106-7.942 17.049-7.942 31.516l2.782 28.52c-.001 36.79-17.935 53.517-54.727 53.517z" fill="#ddebfd"/><path d="m402.91 162.684c28.156 24.235 45.67 60.082 45.67 99.507v25.382c0 36.792-29.828 66.615-66.619 66.615h-188.534c-9.085 0-17.863-1.601-26.044-4.551 14.133 14.73 33.946 18.671 55.46 18.671h188.532c36.792 0 61.619-24.823 61.619-61.615v-25.382c0-14.467 2.642-28.452-1.735-41.558-11.291-33.808-36.016-61.769-68.349-77.069z" fill="#bed9fd"/><path d="m148.248 314.94c3.499 14.122 10.778 26.513 20.597 36.202 14.021 13.836 35.45 6.035 56.224 6.035l180.512 15.999-123.085-134.567h-153.161z" fill="#c5bec6"/><path d="m193.427 354.188c-9.085 0-17.863-1.601-26.044-4.551 7.947 8.28 17.822 14.849 28.94 18.941 8.591 3.162 17.732 4.73 26.52 4.73h155.607l-13.62-19.12z" fill="#a59da7"/><g fill="#ddebfd"><path d="m217.897 275.022c-4.268 0-7.726-3.459-7.726-7.726v-3.641c0-4.268 3.459-7.726 7.726-7.726s7.726 3.459 7.726 7.726v3.641c.001 4.267-3.458 7.726-7.726 7.726z"/><path d="m217.897 312.92c-4.268 0-7.726-3.459-7.726-7.726v-3.642c0-4.268 3.459-7.726 7.726-7.726s7.726 3.459 7.726 7.726v3.642c.001 4.267-3.458 7.726-7.726 7.726z"/><path d="m217.897 350.817c-4.268 0-7.726-3.459-7.726-7.726v-3.642c0-4.268 3.459-7.726 7.726-7.726s7.726 3.459 7.726 7.726v3.642c.001 4.267-3.458 7.726-7.726 7.726z"/></g><path d="m477.994 281.311v25.382c0 36.788-29.821 66.615-66.619 66.615h-32.925l-95.954-134.698h188.349c4.625 13.433 7.149 27.805 7.149 42.701z" fill="#77d1b3"/><path d="m477.994 306.693c.19 8.981-1.793 17.556-5.017 25.375-9.983 24.199-33.798 41.239-61.602 41.239h-32.925l-13.62-19.12h17.131c36.788 0 66.619-29.827 66.619-66.615v-25.382c0-8.035-.74-15.917-2.141-23.582h24.405c10.003 29.077 6.76 49.658 7.15 68.085z" fill="#67b59f"/></svg>