<svg id="Capa_1" enable-background="new 0 0 512 512" height="512" viewBox="0 0 512 512" width="512" xmlns="http://www.w3.org/2000/svg"><g><path d="m159.501 507v-149.35c0-2.845-2.306-5.151-5.151-5.151h-149.35c-2.761 0-5-2.239-5-5v-182.998c0-2.761 2.239-5 5-5h149.35c2.845 0 5.151-2.306 5.151-5.151v-149.35c0-2.761 2.239-5 5-5h182.997c2.761 0 5 2.239 5 5v149.35c0 2.845 2.306 5.151 5.151 5.151h149.351c2.761 0 5 2.239 5 5v182.999c0 2.761-2.239 5-5 5h-149.35c-2.845 0-5.151 2.306-5.151 5.151v149.349c0 2.761-2.239 5-5 5h-182.998c-2.761 0-5-2.239-5-5z" fill="#f1cd88"/><path d="m491.396 159.501v172.395h-154.35c-2.845 0-5.151 2.306-5.151 5.151v154.35h-172.394v15.603c0 2.761 2.239 5 5 5h182.997c2.761 0 5-2.239 5-5v-149.35c0-2.845 2.306-5.151 5.151-5.151h149.351c2.761 0 5-2.239 5-5v-182.998c0-2.761-2.239-5-5-5z" fill="#eec06b"/><path d="m512 197.714h-192.563c-2.845 0-5.151-2.306-5.151-5.151v-192.563h-116.572v192.563c0 2.845-2.306 5.151-5.151 5.151h-192.563v116.572h192.563c2.845 0 5.151 2.306 5.151 5.151v192.563h116.572v-192.563c0-2.845 2.306-5.151 5.151-5.151h192.563z" fill="#8c818f"/><path d="m491.396 197.714v95.968h-192.563c-2.845 0-5.151 2.306-5.151 5.151v192.563h-95.968v20.604h116.572v-192.563c0-2.845 2.306-5.151 5.151-5.151h192.563v-116.572z" fill="#766d78"/><g fill="#ddebfd"><g><path d="m55.579 263.726h-12.362c-4.268 0-7.726-3.459-7.726-7.726s3.459-7.726 7.726-7.726h12.362c4.268 0 7.726 3.459 7.726 7.726s-3.458 7.726-7.726 7.726z"/><path d="m105.4 263.726h-12.362c-4.268 0-7.726-3.459-7.726-7.726s3.459-7.726 7.726-7.726h12.362c4.268 0 7.726 3.459 7.726 7.726s-3.458 7.726-7.726 7.726z"/><path d="m155.22 263.726h-12.362c-4.268 0-7.726-3.459-7.726-7.726s3.459-7.726 7.726-7.726h12.362c4.268 0 7.726 3.459 7.726 7.726s-3.458 7.726-7.726 7.726z"/><g><path d="m371.168 263.726h-12.362c-4.268 0-7.726-3.459-7.726-7.726s3.459-7.726 7.726-7.726h12.362c4.268 0 7.726 3.459 7.726 7.726s-3.458 7.726-7.726 7.726z"/><path d="m420.989 263.726h-12.362c-4.268 0-7.726-3.459-7.726-7.726s3.459-7.726 7.726-7.726h12.362c4.268 0 7.726 3.459 7.726 7.726s-3.458 7.726-7.726 7.726z"/><path d="m470.809 263.726h-12.362c-4.268 0-7.726-3.459-7.726-7.726s3.459-7.726 7.726-7.726h12.362c4.268 0 7.726 3.459 7.726 7.726s-3.459 7.726-7.726 7.726z"/></g></g><g><g><path d="m256 478.037c-4.268 0-7.726-3.459-7.726-7.726v-12.362c0-4.268 3.459-7.726 7.726-7.726s7.726 3.459 7.726 7.726v12.362c0 4.267-3.458 7.726-7.726 7.726z"/><path d="m256 428.216c-4.268 0-7.726-3.459-7.726-7.726v-12.362c0-4.268 3.459-7.726 7.726-7.726s7.726 3.459 7.726 7.726v12.362c0 4.268-3.458 7.726-7.726 7.726z"/><path d="m256 378.396c-4.268 0-7.726-3.459-7.726-7.726v-12.362c0-4.268 3.459-7.726 7.726-7.726s7.726 3.459 7.726 7.726v12.362c0 4.268-3.458 7.726-7.726 7.726z"/></g><path d="m256 162.449c-4.268 0-7.726-3.459-7.726-7.726v-12.363c0-4.268 3.459-7.726 7.726-7.726s7.726 3.459 7.726 7.726v12.362c0 4.268-3.458 7.727-7.726 7.727z"/><path d="m256 112.629c-4.268 0-7.726-3.459-7.726-7.726v-12.363c0-4.268 3.459-7.726 7.726-7.726s7.726 3.459 7.726 7.726v12.362c0 4.268-3.458 7.727-7.726 7.727z"/><path d="m256 62.808c-4.268 0-7.726-3.459-7.726-7.726v-12.363c0-4.268 3.459-7.726 7.726-7.726s7.726 3.459 7.726 7.726v12.362c0 4.268-3.458 7.727-7.726 7.727z"/></g></g></g></svg>