<svg id="Capa_1" enable-background="new 0 0 512 512" height="512" viewBox="0 0 512 512" width="512" xmlns="http://www.w3.org/2000/svg"><g><path d="m366.714 281.325v58.62c0 9.904-8.028 17.932-17.932 17.932h-48.993c-9.904 0-17.932-8.028-17.932-17.932h-51.715c0 9.904-8.028 17.932-17.932 17.932h-48.993c-9.904 0-17.932-8.028-17.932-17.932v-58.62c0-14.281-11.577-25.857-25.857-25.857s-25.857 11.577-25.857 25.857v204.818c0 14.281 11.577 25.857 25.857 25.857s25.857-11.577 25.857-25.857v-58.62c0-9.904 8.028-17.932 17.932-17.932h48.993c9.904 0 17.932 8.028 17.932 17.932v58.62c.001 14.28 11.577 25.857 25.858 25.857s25.857-11.577 25.857-25.857v-58.62c0-9.904 8.028-17.932 17.932-17.932h48.993c9.904 0 17.932 8.028 17.932 17.932v58.62c0 14.281 11.577 25.857 25.857 25.857s25.857-11.577 25.857-25.857v-204.818c0-14.281-11.577-25.857-25.857-25.857-14.28-.001-25.857 11.576-25.857 25.857z" fill="#655e67"/><path d="m281.857 146.946h-51.715v221.81c0 14.281 11.577 25.857 25.857 25.857 14.281 0 25.857-11.577 25.857-25.857v-221.81z" fill="#ddebfd"/><path d="m324.96 13.658c-6.086-4.022-12.71-7.242-19.708-9.542-8.158-2.682-90.347-2.682-98.505 0-6.997 2.301-13.621 5.52-19.708 9.542-21.645 14.305-32.303 40.447-27.558 65.955l8.973 48.243c3.406 18.31 14.736 34.263 31.071 43.206 17.16 9.397 36.556 14.45 56.474 14.45s39.314-5.053 56.474-14.45c16.335-8.944 27.666-24.897 31.071-43.206l8.973-48.243c4.746-25.508-5.911-51.651-27.557-65.955z" fill="#8c818f"/><path d="m328.515 16.196c5.245 11.856 6.953 25.292 4.485 38.559l-8.973 48.243c-3.406 18.309-14.736 34.262-31.071 43.206-17.16 9.396-36.556 14.45-56.474 14.45s-39.314-5.053-56.474-14.45c-2.609-1.428-5.074-3.053-7.415-4.82 5.411 12.492 14.784 23.025 26.934 29.678 17.16 9.397 36.556 14.45 56.474 14.45s39.314-5.053 56.474-14.45c16.335-8.944 27.666-24.897 31.071-43.206l8.973-48.243c4.476-24.069-4.765-48.696-24.004-63.417z" fill="#766d78"/><path d="m232.483 0c-8.912 0-17.573 1.445-25.732 4.128-2.068 5.887-3.118 12.245-2.917 18.867l2.298 75.971c.513 16.97 14.419 30.461 31.397 30.461h36.943c16.978 0 30.883-13.491 31.397-30.461l2.298-75.971c.2-6.622-.849-12.98-2.917-18.867-8.16-2.683-16.821-4.128-25.733-4.128z" fill="#c77e67"/></g></svg>