<svg id="Capa_1" enable-background="new 0 0 512 512" height="512" viewBox="0 0 512 512" width="512" xmlns="http://www.w3.org/2000/svg"><g><path d="m159.604 4.242-88.81 495.639c-1.131 6.316 3.724 12.119 10.141 12.119h350.131c6.417 0 11.272-5.803 10.14-12.119l-88.81-495.639c-.44-2.455-2.576-4.242-5.07-4.242h-182.652c-2.494 0-4.63 1.787-5.07 4.242z" fill="#ddebfd"/><path d="m128.056 180.311h255.888l-14.237-79.457h-227.414z" fill="#bed9fd"/><path d="m190.855 0-62.493 512h255.276l-62.493-512z" fill="#8c818f"/><path d="m168.847 180.311h174.306l-9.698-79.457h-154.91z" fill="#766d78"/><g fill="#e3e0e4"><path d="m256 49.261c-4.268 0-7.726-3.459-7.726-7.726v-14.51c0-4.268 3.459-7.726 7.726-7.726s7.726 3.459 7.726 7.726v14.51c0 4.267-3.458 7.726-7.726 7.726z"/><path d="m256 124.054c-4.268 0-7.726-3.459-7.726-7.726v-14.51c0-4.268 3.459-7.726 7.726-7.726s7.726 3.459 7.726 7.726v14.51c0 4.268-3.458 7.726-7.726 7.726z"/><path d="m256 198.848c-4.268 0-7.726-3.459-7.726-7.726v-14.51c0-4.268 3.459-7.726 7.726-7.726s7.726 3.459 7.726 7.726v14.51c0 4.267-3.458 7.726-7.726 7.726z"/><path d="m256 273.642c-4.268 0-7.726-3.459-7.726-7.726v-14.51c0-4.268 3.459-7.726 7.726-7.726s7.726 3.459 7.726 7.726v14.51c0 4.267-3.458 7.726-7.726 7.726z"/><path d="m256 348.436c-4.268 0-7.726-3.459-7.726-7.726v-14.51c0-4.268 3.459-7.726 7.726-7.726s7.726 3.459 7.726 7.726v14.51c0 4.267-3.458 7.726-7.726 7.726z"/><path d="m256 423.229c-4.268 0-7.726-3.459-7.726-7.726v-14.51c0-4.268 3.459-7.726 7.726-7.726s7.726 3.459 7.726 7.726v14.51c0 4.268-3.458 7.726-7.726 7.726z"/><path d="m256 498.023c-4.268 0-7.726-3.459-7.726-7.726v-14.51c0-4.268 3.459-7.726 7.726-7.726s7.726 3.459 7.726 7.726v14.51c0 4.267-3.458 7.726-7.726 7.726z"/></g><path d="m467.356 398.354c-4.268 0-7.726-3.459-7.726-7.726v-262.025c0-1.421-1.155-2.575-2.575-2.575h-402.109c-1.421 0-2.575 1.155-2.575 2.575v262.025c0 4.268-3.459 7.726-7.726 7.726s-7.726-3.459-7.726-7.726v-262.025c0-9.941 8.088-18.028 18.028-18.028h402.109c9.941 0 18.028 8.088 18.028 18.028v262.025c-.002 4.267-3.46 7.726-7.728 7.726z" fill="#9ec8fc"/><path d="m107.36 83.577v58.854c0 5.69 4.612 10.302 10.302 10.302h276.677c5.69 0 10.302-4.612 10.302-10.302v-58.855c0-5.69-4.612-10.302-10.302-10.302h-276.678c-5.689.001-10.301 4.613-10.301 10.303z" fill="#77d1b3"/><g fill="#67b59f"><path d="m394.339 73.275h-24.764c5.69 0 10.302 4.612 10.302 10.302v58.854c0 5.69-4.612 10.302-10.302 10.302h24.764c5.69 0 10.302-4.612 10.302-10.302v-58.855c-.001-5.689-4.613-10.301-10.302-10.301z"/><path d="m394.339 130.386h-276.678c-5.69 0-10.302-4.612-10.302-10.302v22.347c0 5.69 4.612 10.302 10.302 10.302h276.677c5.69 0 10.302-4.612 10.302-10.302v-22.347c0 5.69-4.612 10.302-10.301 10.302z"/></g></g></svg>