<svg id="Capa_1" enable-background="new 0 0 512 512" height="512" viewBox="0 0 512 512" width="512" xmlns="http://www.w3.org/2000/svg"><g><path d="m332.038 296.276h-133.552c-4.143 0-7.5-3.357-7.5-7.5s3.357-7.5 7.5-7.5h133.552c4.143 0 7.5 3.357 7.5 7.5s-3.357 7.5-7.5 7.5z" fill="#77d1b3"/><path d="m340.24 183.289-54.62-102.46c-4.02-7.53-11.82-12.21-20.36-12.21-4.27 0-8.36 1.17-11.87 3.28-3.52 2.11-6.47 5.16-8.48 8.93l-54.63 102.46c-3.84 7.22-3.63 15.71.58 22.72 4.21 7.02 11.6 11.2 19.78 11.2h109.25c8.17 0 15.57-4.18 19.78-11.2 4.2-7.01 4.42-15.501.57-22.72z" fill="#8c818f"/><path d="m340.24 183.289-54.62-102.46c-4.02-7.53-11.82-12.21-20.36-12.21-4.27 0-8.36 1.17-11.87 3.28-.158.095-.308.201-.464.299 3.314 2.097 6.104 5.034 8.024 8.631l54.62 102.46c3.85 7.22 3.63 15.71-.57 22.72-4.21 7.02-11.61 11.2-19.78 11.2h24.67c8.17 0 15.57-4.18 19.78-11.2 4.2-7.01 4.42-15.501.57-22.72z" fill="#766d78"/><path d="m326.8 198.298c-.7 1.17-2.79 3.91-6.91 3.91h-109.25c-4.12 0-6.21-2.74-6.92-3.91-.71-1.18-2.14-4.31-.2-7.95l54.62-102.46c1.43-2.68 4.09-4.27 7.12-4.27s5.7 1.59 7.12 4.27l54.63 102.46c1.94 3.641.5 6.771-.21 7.95z" fill="#eec06b"/><path d="m272.38 87.889c-1.42-2.68-4.09-4.27-7.12-4.27-.908 0-1.775.159-2.593.431l52.903 99.239c3.177 5.958 3.575 12.778 1.26 18.92h3.06c4.12 0 6.21-2.74 6.91-3.91.71-1.18 2.15-4.31.21-7.95z" fill="#e9a52d"/><path d="m186.703 345.848v32.043c0 10.169-6.567 19.178-16.264 22.277l-45.18 14.448h-125.259v-196.965c12.129 6.947 23.662 15.023 34.437 24.165l34.97 29.665c37.262 4.89 68.615 15.275 91.299 33.725 8.923 7.259 25.997 40.642 25.997 40.642z" fill="#80b6fc"/><path d="m170.439 379.929-45.18 14.448h-125.259v20.239h125.259l45.18-14.448c9.697-3.099 16.264-12.108 16.264-22.277v-20.239c0 10.168-6.568 19.177-16.264 22.277z" fill="#62a4fb"/><path d="m160.706 305.207c-22.684-18.45-54.036-28.835-91.299-33.725l-34.97-29.665c-10.775-9.143-22.308-17.219-34.437-24.166v17.133c2.957 2.27 5.867 4.611 8.72 7.033l34.97 29.665c51.922 6.813 92.371 24.298 113.879 59.402 2.247 3.663 3.417 7.891 3.417 12.201v34.806c0 10.169-6.567 19.178-16.264 22.277l-45.18 14.448h25.717l45.18-14.448c9.697-3.099 16.264-12.108 16.264-22.277v-32.043s-17.074-33.383-25.997-40.641z" fill="#62a4fb"/><path d="m160.705 305.208c-14.529 2.18-25.438 11.379-25.438 22.399 0 12.643 14.357 22.892 32.067 22.892 7.279 0 13.987-1.734 19.369-4.651v-2.765c0-4.303-1.172-8.532-3.419-12.201-6.07-9.91-13.656-18.417-22.579-25.674z" fill="#ddebfd"/><path d="m172.527 316.467c-3.539-3.946-7.563-7.793-11.799-11.239-.008-.007-.023-.019-.023-.019-6.947 1.043-13.062 3.693-17.557 7.377 5.467 5.486 10.296 11.565 14.421 18.299 2.247 3.663 3.417 7.891 3.417 12.201v6.963c2.052.294 4.175.451 6.348.451 7.278 0 13.987-1.734 19.369-4.651-.052-1.902.202-4.149-.477-7.482-.539-2.636-1.525-5.17-2.942-7.483-3.111-5.082-6.71-9.902-10.757-14.417z" fill="#bed9fd"/><path d="m69.407 271.482h-69.407v-53.82c12.119 6.936 23.662 15.002 34.437 24.155z" fill="#766d78"/><path d="m43.69 271.482h25.717c-7.244-6.145-28.242-23.957-34.97-29.665-10.64-9.028-22.273-17.193-34.437-24.155v17.122c7.707 5.918 9.834 8.083 43.69 36.698z" fill="#655e67"/><circle cx="96.026" cy="398.16" fill="#766d78" r="45.221"/><circle cx="96.026" cy="398.16" fill="#ddebfd" r="16.456"/><path d="m39.624 256.827v29.27c0 2.666 2.161 4.827 4.827 4.827h14.23c7.057 0 12.778-5.721 12.778-12.778v-13.369c0-7.057-5.721-12.778-12.778-12.778h-14.23c-2.666 0-4.827 2.161-4.827 4.828z" fill="#9ec8fc"/><path d="m512 187.277v227.337h-145.36c-6.146 0-11.38-4.443-12.385-10.497l-7.86-47.745c-.751-4.557-.933-9.148-.57-13.675.818-10.194 26.467-50.647 26.467-50.647l48.651-67.412c1.601-2.216 2.093-5.038 1.344-7.655l-2.596-9.091c-1.467-5.161 1.909-10.435 7.203-11.257l50.157-7.747c6.957-1.067 13.986-1.611 21.025-1.611z" fill="#df646e"/><path d="m377.923 403.885-8.034-48.8c-2.496-15.144 1.153-30.656 10.131-43.106l66.064-91.539c1.636-2.265 2.14-5.149 1.374-7.824l-2.653-9.292c-1.111-3.907.499-7.874 3.605-10.012l-21.516 3.323c-5.294.821-8.671 6.096-7.203 11.257l2.596 9.091c.749 2.617.257 5.439-1.344 7.655l-48.651 67.412s-25.649 40.453-26.467 50.647c-.363 4.527-.181 9.118.57 13.675l7.86 47.745c1.006 6.054 6.239 10.497 12.385 10.497h23.942c-6.283 0-11.632-4.541-12.659-10.729z" fill="#dc4955"/><path d="m350.554 381.635 3.701 22.482c1.006 6.054 6.239 10.497 12.385 10.497h145.36v-28.446h-151.421c-3.99.001-7.61-1.742-10.025-4.533z" fill="#dc4955"/><path d="m356.927 342.697c7.209 0 14.024-3.409 18.235-9.26 5.74-7.974 16.075-14.041 22.979-17.455 4.292-2.122 6.987-6.512 6.987-11.3 0-6.976-5.655-12.632-12.632-12.632h-20.204l-15.985 22.147c-6.086 8.432-9.662 18.305-10.479 28.499h11.099z" fill="#f1cd88"/><path d="m392.497 292.051h-20.204c-5.666 7.852-14.907 20.65-16.096 22.307-2.072 2.893-3.97 6.131-5.559 9.65-2.728 6.053-4.306 12.457-4.807 18.646-.001.014-.003.029-.004.043h11.099c4.548 0 8.937-1.36 12.617-3.831 1.151-9.62 4.707-18.887 10.476-26.888l14.278-19.785c-.589-.083-1.187-.142-1.8-.142z" fill="#e9a52d"/><path d="m512 214.244v57.237h-65.005c-3.961 0-6.259-4.495-3.93-7.706l18.624-25.684c10.856-14.981 28.239-23.847 46.74-23.847z" fill="#766d78"/><circle cx="428.955" cy="398.16" fill="#766d78" r="45.221"/><circle cx="428.955" cy="398.16" fill="#ddebfd" r="16.456"/><path d="m215.944 316.614c-2.112 0-4.212-.887-5.695-2.615l-17.454-20.338c-2.411-2.811-2.411-6.96 0-9.77l17.454-20.337c2.697-3.143 7.432-3.503 10.576-.807 3.143 2.697 3.504 7.433.807 10.576l-13.262 15.452 13.262 15.453c2.697 3.144 2.336 7.879-.807 10.576-1.415 1.215-3.152 1.81-4.881 1.81z" fill="#77d1b3"/><path d="m314.58 316.614c-1.729 0-3.466-.595-4.881-1.809-3.143-2.697-3.504-7.433-.807-10.576l13.262-15.453-13.262-15.452c-2.697-3.144-2.336-7.879.807-10.576 3.144-2.696 7.879-2.336 10.576.807l17.454 20.337c2.411 2.81 2.411 6.959 0 9.77l-17.454 20.338c-1.483 1.727-3.583 2.614-5.695 2.614z" fill="#77d1b3"/><g fill="#655e67"><path d="m265.263 186.641c-4.143 0-7.5-3.357-7.5-7.5v-2.18c0-4.143 3.357-7.5 7.5-7.5s7.5 3.357 7.5 7.5v2.18c0 4.143-3.358 7.5-7.5 7.5z"/><path d="m265.263 156.098c-4.143 0-7.5-3.357-7.5-7.5v-24.477c0-4.143 3.357-7.5 7.5-7.5s7.5 3.357 7.5 7.5v24.477c0 4.143-3.358 7.5-7.5 7.5z"/></g></g></svg>