<svg id="Capa_1" enable-background="new 0 0 512 512" height="512" viewBox="0 0 512 512" width="512" xmlns="http://www.w3.org/2000/svg"><g><g fill="#766d78"><path d="m325.764 422.879c-4.267 0-7.726-3.459-7.726-7.726v-57.648c0-4.268 3.459-7.726 7.726-7.726s7.726 3.459 7.726 7.726v57.648c0 4.268-3.459 7.726-7.726 7.726z"/><path d="m181.709 422.879c-4.267 0-7.726-3.459-7.726-7.726v-57.648c0-4.268 3.459-7.726 7.726-7.726s7.726 3.459 7.726 7.726v57.648c0 4.268-3.459 7.726-7.726 7.726z"/></g><path d="m332.779 494.059h-158.084c-4.267 0-7.726-3.459-7.726-7.726s3.459-7.726 7.726-7.726h158.084c4.267 0 7.726 3.459 7.726 7.726s-3.459 7.726-7.726 7.726z" fill="#766d78"/><g fill="#8c818f"><path d="m202.49 452.508-7.994 59.492h-38.102l7.983-59.492z"/><path d="m351.087 512h-38.113l-7.982-59.492h38.102z"/></g><path d="m152.796 206.016v155.004c0 3.032 2.458 5.49 5.49 5.49h190.902c3.032 0 5.49-2.458 5.49-5.49v-155.004c0-17.691-16.135-30.946-33.505-27.592-44.957 8.681-89.914 8.681-134.871 0-17.371-3.354-33.506 9.901-33.506 27.592z" fill="#c77e67"/><path d="m349.188 345.624h-190.902c-3.032 0-5.49-2.458-5.49-5.49v20.887c0 3.032 2.458 5.49 5.49 5.49h190.902c3.032 0 5.49-2.458 5.49-5.49v-20.887c0 3.032-2.458 5.49-5.49 5.49z" fill="#be694e"/><path d="m321.173 178.424c-2.906.561-5.812 1.083-8.718 1.571 10.136 4.148 17.506 14.067 17.506 26.021v155.004c0 3.032-2.458 5.49-5.49 5.49h24.717c3.032 0 5.49-2.458 5.49-5.49v-155.004c0-17.691-16.135-30.946-33.505-27.592z" fill="#be694e"/><path d="m139.883 437.053h-42.608c-13.858 0-26.739-6.217-35.342-17.057-8.572-10.801-11.694-24.692-8.564-38.111l13.525-57.988c2.411-10.336 11.519-17.554 22.15-17.554h19.122c4.267 0 7.726 3.459 7.726 7.726s-3.459 7.726-7.726 7.726h-19.123c-3.41 0-6.33 2.308-7.101 5.611l-13.525 57.988c-2.053 8.8-.005 17.91 5.619 24.996 5.654 7.125 14.124 11.21 23.238 11.21h42.608c4.267 0 7.726 3.459 7.726 7.726s-3.458 7.727-7.725 7.727z" fill="#766d78"/><path d="m105.078 305.349v16.963c0 5.53 4.496 10.013 10.041 10.013h166.183c5.546 0 10.041-4.483 10.041-10.013v-16.963c0-5.53-4.496-10.013-10.041-10.013h-166.183c-5.545 0-10.041 4.483-10.041 10.013z" fill="#eec06b"/><path d="m128.131 429.327c0 12.802 10.407 23.18 23.244 23.18h204.725c12.838 0 23.244-10.378 23.244-23.18s-10.407-23.18-23.244-23.18h-204.725c-12.838 0-23.244 10.378-23.244 23.18z" fill="#c77e67"/><path d="m356.1 431.039h-204.725c-8.952 0-16.717-5.05-20.601-12.446-1.685 3.21-2.644 6.86-2.644 10.734 0 12.802 10.407 23.18 23.244 23.18h204.725c12.838 0 23.244-10.378 23.244-23.18 0-3.875-.958-7.524-2.644-10.734-3.882 7.396-11.647 12.446-20.599 12.446z" fill="#be694e"/><g><path d="m327.604 116.798 17.648 73.473h18.398l17.648-73.473z" fill="#c5bec6"/><path d="m442.092 98.132-6.301-21.835-5.691 5.473c-4.555 4.381-11.186 5.853-17.153 3.77-9.226-3.22-19.479-5.7-30.452-7.278-1.153-.165-2.314-.321-3.483-.466-7.88-.979-14.747 14.82-23.203 14.82-8.424 0-17.977-15.804-25.83-14.832-1.2.148-2.391.308-3.574.477-10.973 1.578-21.226 4.058-30.452 7.278-5.967 2.082-12.598.611-17.153-3.77l-5.691-5.473-6.301 21.835v19.063l65.557 8.999h44.169l65.557-8.999v-19.062z" fill="#766d78"/><path d="m392.162 100.295-2.222 15.422c-.477 3.313-1.624 6.386-3.285 9.089-4.228 6.875-11.816 11.363-20.328 11.363h-23.753c-8.511 0-16.1-4.488-20.328-11.363-1.661-2.703-2.808-5.776-3.285-9.089l-2.222-15.422c-.971-6.758 1.115-13.167 5.141-17.933 2.22-2.628 5.397-4.254 8.813-4.663 7.635-.916 15.589-1.401 23.758-1.401s16.123.485 23.758 1.401c3.415.41 6.593 2.035 8.813 4.663 4.025 4.766 6.111 11.175 5.14 17.933z" fill="#80b6fc"/><path d="m354.451 0c-58.193 0-105.369 47.175-105.369 105.369s47.175 105.369 105.369 105.369 105.369-47.175 105.369-105.369-47.176-105.369-105.369-105.369zm0 177.903c-40.06 0-72.534-32.475-72.534-72.534s32.475-72.534 72.534-72.534 72.534 32.475 72.534 72.534-32.474 72.534-72.534 72.534z" fill="#8c818f"/><path d="m430.006 31.935c10.639 16.458 16.817 36.068 16.817 57.123 0 58.193-47.175 105.369-105.369 105.369-29.637 0-56.41-12.241-75.555-31.936 18.765 29.03 51.413 48.246 88.551 48.246 58.193 0 105.369-47.175 105.369-105.369 0-28.557-11.365-54.455-29.813-73.433z" fill="#766d78"/></g></g></svg>