<svg id="Capa_1" enable-background="new 0 0 512 512" height="512" viewBox="0 0 512 512" width="512" xmlns="http://www.w3.org/2000/svg"><g><path d="m256 126.782c-99.211 0-189.796 44.548-250.416 117.247-6.28 7.531-7.362 18.123-2.741 26.772l53.767 100.648c4.528 8.476 13.356 13.769 22.965 13.769h352.851c9.609 0 18.438-5.293 22.965-13.769l53.767-100.648c4.62-8.648 3.539-19.24-2.74-26.77-60.534-72.596-151.049-117.249-250.418-117.249z" fill="#8c818f"/><path d="m79.137 350.215-44.933-84.113c-1.919-3.593-1.391-8.008 1.328-11.041 56.176-62.669 135.926-98.404 220.468-98.404s164.292 35.734 220.469 98.405c2.719 3.033 3.247 7.448 1.328 11.041l-44.934 84.113c-1.686 3.156-4.974 5.128-8.552 5.128h-336.622c-3.579-.001-6.866-1.972-8.552-5.129z" fill="#ddebfd"/><path d="m476.469 255.062c-56.177-62.672-135.927-98.405-220.469-98.405-4.535 0-9.054.124-13.559.328 79.469 3.605 153.746 38.768 206.91 98.077 2.719 3.033 3.247 7.448 1.328 11.041l-44.934 84.113c-1.686 3.157-4.974 5.128-8.552 5.128h27.118c3.579 0 6.866-1.971 8.552-5.128l44.934-84.113c1.919-3.593 1.391-8.008-1.328-11.041z" fill="#bed9fd"/><path d="m414.094 313.122c0 5.892-1.262 11.479-3.518 16.527h-60.489c.484-3.874.759-7.799.759-11.806 0-11.755-2.138-23.005-6.053-33.39 7.345-7.356 17.499-11.909 28.728-11.909 22.407 0 40.573 18.161 40.573 40.578z" fill="#92e0c4"/><path d="m97.903 313.122c0 5.892 1.262 11.479 3.518 16.527h60.489c-.484-3.874-.759-7.799-.759-11.806 0-11.755 2.138-23.005 6.052-33.39-7.345-7.356-17.499-11.909-28.728-11.909-22.406 0-40.572 18.161-40.572 40.578z" fill="#92e0c4"/><path d="m256 222.996c-52.382 0-94.849 42.466-94.849 94.846 0 4.003.278 7.935.759 11.806h188.177c.481-3.872.759-7.804.759-11.806.001-52.38-42.464-94.846-94.846-94.846z" fill="#9ec8fc"/><circle cx="256" cy="311.973" fill="#df646e" r="18.648"/><path d="m410.572 336.65c-.955 0-1.927-.197-2.854-.612-3.529-1.579-5.11-5.72-3.531-9.248 1.929-4.313 2.907-8.91 2.907-13.668 0-18.515-15.061-33.578-33.572-33.578-8.985 0-17.429 3.5-23.773 9.854-2.731 2.738-7.164 2.739-9.899.009-2.736-2.731-2.74-7.164-.009-9.899 8.99-9.005 20.952-13.964 33.682-13.964 26.231 0 47.572 21.344 47.572 47.578 0 6.741-1.389 13.263-4.128 19.385-1.164 2.6-3.719 4.143-6.395 4.143z" fill="#67b59f"/><path d="m101.425 336.65c-2.676 0-5.23-1.543-6.394-4.144-2.739-6.122-4.128-12.645-4.128-19.385 0-26.234 21.341-47.578 47.573-47.578 12.729 0 24.69 4.959 33.681 13.963 2.731 2.736 2.728 7.168-.008 9.899-2.735 2.732-7.168 2.729-9.899-.007-6.345-6.355-14.789-9.855-23.774-9.855-18.512 0-33.573 15.063-33.573 33.578 0 4.757.979 9.355 2.908 13.668 1.579 3.528-.002 7.669-3.531 9.248-.928.416-1.9.613-2.855.613z" fill="#67b59f"/><path d="m134.608 321.139c-1.103 0-2.22-.28-3.244-.872l-8.631-4.982c-3.109-1.794-4.175-5.77-2.38-8.879 1.795-3.108 5.772-4.175 8.879-2.379l8.631 4.982c3.109 1.794 4.175 5.77 2.38 8.879-1.203 2.085-3.389 3.251-5.635 3.251z" fill="#8c818f"/><path d="m377.392 321.139c-2.246 0-4.432-1.166-5.636-3.252-1.794-3.108-.729-7.084 2.381-8.879l8.632-4.982c3.107-1.792 7.084-.729 8.879 2.381 1.794 3.108.729 7.084-2.381 8.879l-8.632 4.982c-1.024.589-2.141.871-3.243.871z" fill="#8c818f"/><g fill="#ddebfd"><path d="m256 253.529c-3.866 0-7-3.134-7-7v-3.091c0-3.866 3.134-7 7-7s7 3.134 7 7v3.091c0 3.867-3.134 7-7 7z"/><path d="m209.724 272.697c-1.792 0-3.583-.684-4.95-2.05l-2.186-2.186c-2.734-2.734-2.734-7.166 0-9.9 2.733-2.732 7.166-2.732 9.899 0l2.186 2.186c2.734 2.734 2.734 7.166 0 9.9-1.366 1.367-3.157 2.05-4.949 2.05z"/><path d="m190.556 318.974h-3.09c-3.866 0-7-3.134-7-7s3.134-7 7-7h3.09c3.866 0 7 3.134 7 7s-3.134 7-7 7z"/><path d="m324.534 318.974h-3.09c-3.866 0-7-3.134-7-7s3.134-7 7-7h3.09c3.866 0 7 3.134 7 7s-3.134 7-7 7z"/><path d="m302.276 272.697c-1.791 0-3.582-.683-4.948-2.049-2.734-2.733-2.735-7.165-.003-9.899l2.185-2.186c2.733-2.735 7.166-2.736 9.899-.003 2.734 2.733 2.735 7.165.003 9.899l-2.185 2.186c-1.367 1.369-3.159 2.052-4.951 2.052z"/></g><path d="m250.723 316.784c-.718 0-1.448-.12-2.164-.372l-36.868-13.013c-3.385-1.195-5.161-4.908-3.966-8.293s4.906-5.158 8.293-3.967l36.868 13.013c3.385 1.195 5.161 4.908 3.966 8.293-.942 2.67-3.45 4.339-6.129 4.339z" fill="#df646e"/><g fill="#8c818f"><path d="m359.393 246.985c-2.26 0-4.477-1.092-5.826-3.11-2.148-3.215-1.285-7.562 1.929-9.71l9.839-6.576-9.839-6.577c-3.214-2.148-4.077-6.495-1.929-9.71 2.148-3.212 6.495-4.076 9.71-1.929l16.001 10.696c2.516 1.682 4.018 4.493 4.018 7.519s-1.502 5.838-4.018 7.52l-16.001 10.696c-1.196.799-2.548 1.181-3.884 1.181z"/><path d="m152.607 246.985c-1.337 0-2.689-.383-3.884-1.182l-16.001-10.696c-2.516-1.682-4.018-4.493-4.018-7.52 0-3.025 1.502-5.837 4.018-7.519l16.001-10.696c3.215-2.147 7.561-1.284 9.709 1.929 2.148 3.215 1.285 7.562-1.929 9.71l-9.838 6.576 9.838 6.577c3.214 2.148 4.078 6.495 1.929 9.71-1.349 2.02-3.566 3.111-5.825 3.111z"/></g><path d="m350.097 336.649c-.287 0-.578-.018-.871-.055-3.837-.476-6.561-3.972-6.084-7.809.475-3.824.705-7.404.705-10.943 0-48.438-39.408-87.847-87.847-87.847-48.44 0-87.849 39.408-87.849 87.847 0 3.54.231 7.12.706 10.942.477 3.837-2.247 7.333-6.083 7.81-3.839.487-7.333-2.247-7.81-6.083-.547-4.401-.813-8.546-.813-12.669 0-56.158 45.689-101.847 101.849-101.847 56.158 0 101.847 45.688 101.847 101.847 0 4.121-.266 8.265-.813 12.668-.439 3.545-3.456 6.139-6.937 6.139z" fill="#62a4fb"/></g></svg>