<svg id="Capa_1" enable-background="new 0 0 512 512" height="512" viewBox="0 0 512 512" width="512" xmlns="http://www.w3.org/2000/svg"><g><g><path d="m266.872 353.907-31.35-21.512c-30.088-25.531-62.265-33.547-101.726-33.547l-19.491-6h-3.777c-5.103 0-10.199.391-15.243 1.17l-36.368 5.618c-3.841.593-6.291 4.42-5.224 8.157l1.883 6.592c.543 1.902.185 3.949-.973 5.554l-46.868 64.938c-6.373 8.83-8.961 19.837-7.191 30.582l5.704 34.615c.724 4.393 4.522 7.617 8.974 7.617h292.154l32.761-10.481c7.024-2.247 11.791-8.776 11.791-16.151v-25.24c0-1.782-.278-3.547-.821-5.228-.407-1.262-22.496-27.372-38.067-34.458-13.275-6.041-28.841-9.952-46.168-12.226z" fill="#80b6fc"/><path d="m349.445 396.974c-8.414-13.738-20.839-23.747-36.408-30.833l-6.656 20.522c-2.231 6.878 2.897 13.932 10.128 13.932h34.588c-.407-1.263-.953-2.481-1.652-3.621z" fill="#eec06b"/><path d="m351.928 431.06v-16.717c-1.738 4.507-5.777 8.151-11.087 9.661l-33.414 9.502h-297.978c-2.419 0-4.63-.846-6.298-2.223l3.096 18.792c.724 4.393 4.522 7.617 8.974 7.617h292.154l32.761-10.481c7.025-2.247 11.792-8.777 11.792-16.151z" fill="#62a4fb"/><path d="m133.796 292.848h-19.491l-32.406 51.97c-2.468 3.959.378 9.088 5.043 9.088h179.93l-25.35-21.512c-24.556-20.837-54.5-34.004-86.133-38.141-3.759 3.135-7.452 2.519-10.149-1.012-3.798-.261-7.615-.393-11.444-.393z" fill="#8c818f"/><circle cx="64.921" cy="447.247" fill="#ddebfd" r="31.461"/><path d="m64.921 486.319c-21.544 0-39.072-17.528-39.072-39.072s17.528-39.072 39.072-39.072 39.072 17.528 39.072 39.072-17.528 39.072-39.072 39.072zm0-62.922c-13.151 0-23.849 10.699-23.849 23.849 0 13.151 10.699 23.849 23.849 23.849s23.849-10.699 23.849-23.849-10.699-23.849-23.849-23.849z" fill="#766d78"/><circle cx="275.266" cy="447.247" fill="#ddebfd" r="31.461"/><path d="m275.267 486.319c-21.544 0-39.072-17.528-39.072-39.072s17.528-39.072 39.072-39.072 39.072 17.528 39.072 39.072-17.528 39.072-39.072 39.072zm0-62.922c-13.151 0-23.849 10.699-23.849 23.849 0 13.151 10.699 23.849 23.849 23.849s23.849-10.699 23.849-23.849-10.699-23.849-23.849-23.849z" fill="#766d78"/><path d="m150.314 373.866c2.803 0 5.074-2.272 5.074-5.074v-74.533c-3.365-.44-6.75-.779-10.149-1.012v75.546c.001 2.801 2.272 5.073 5.075 5.073z" fill="#80b6fc"/></g><path d="m377.191 30.027v73.423l57.09-29.856c5.534-2.894 5.534-10.815 0-13.71z" fill="#df646e"/><path d="m377.191 170.894c-3.924 0-7.104-3.18-7.104-7.104v-131.005c0-3.924 3.18-7.104 7.104-7.104s7.104 3.18 7.104 7.104v131.005c0 3.924-3.18 7.104-7.104 7.104z" fill="#8c818f"/><path d="m413.763 201.369h-73.143c-2.174 0-3.647-2.213-2.809-4.218l12.637-30.242c.789-1.888 2.635-3.118 4.682-3.118h44.123c2.047 0 3.893 1.229 4.682 3.118l12.637 30.242c.838 2.005-.635 4.218-2.809 4.218z" fill="#eec06b"/><path d="m434.657 415.053h-30.799c-4.204 0-7.612-3.407-7.612-7.611s3.407-7.612 7.612-7.612h30.799c34.253 0 62.12-27.867 62.12-62.121 0-34.253-27.867-62.12-62.12-62.12h-210.171c-42.647 0-77.344-34.697-77.344-77.344s34.697-77.343 77.344-77.343h81.551c4.204 0 7.611 3.407 7.611 7.611s-3.407 7.611-7.611 7.611h-81.551c-34.254 0-62.121 27.867-62.121 62.12 0 34.254 27.867 62.121 62.121 62.121h210.171c42.647 0 77.343 34.696 77.343 77.343s-34.696 77.345-77.343 77.345z" fill="#77d1b3"/><path d="m381.73 437.181c-4.204 0-7.612-3.407-7.612-7.612s3.407-7.611 7.612-7.611c8.004 0 14.516-6.512 14.516-14.516 0-8.005-6.512-14.517-14.516-14.517-4.204 0-7.612-3.407-7.612-7.612s3.407-7.611 7.612-7.611c16.398 0 29.739 13.342 29.739 29.74s-13.34 29.739-29.739 29.739z" fill="#df646e"/><path d="m279.978 159.837c-2.068 0-4.13-.838-5.632-2.489-2.829-3.11-2.602-7.924.507-10.753l19.873-18.081-19.873-18.081c-3.109-2.83-3.336-7.643-.507-10.753 2.831-3.11 7.644-3.336 10.753-.507l26.06 23.712c1.585 1.443 2.489 3.487 2.489 5.63 0 2.144-.904 4.187-2.489 5.63l-26.06 23.712c-1.459 1.325-3.293 1.98-5.121 1.98z" fill="#77d1b3"/></g></svg>