<svg id="Capa_1" enable-background="new 0 0 512 512" height="512" viewBox="0 0 512 512" width="512" xmlns="http://www.w3.org/2000/svg"><g><path d="m212.751 252.292 28.43 134.202h29.638l28.43-134.202z" fill="#ddebfd"/><path d="m397.182 222.222-10.15-35.174-9.167 8.816c-7.338 7.057-18.02 9.428-27.633 6.074-14.862-5.186-31.379-9.182-49.055-11.724-14.383-2.061-29.535-3.166-45.178-3.166s-30.795 1.105-45.178 3.166c-17.676 2.541-34.193 6.537-49.055 11.724-9.613 3.355-20.294.984-27.633-6.074l-9.167-8.816-10.15 35.174v30.709l105.606 14.496h71.152l105.606-14.496v-30.709z" fill="#766d78"/><path d="m316.75 225.706-3.58 24.844c-.769 5.337-2.617 10.286-5.292 14.641-6.81 11.075-19.035 18.305-32.746 18.305h-38.264c-13.711 0-25.936-7.23-32.746-18.305-2.675-4.355-4.523-9.304-5.292-14.641l-3.58-24.844c-1.563-10.886 1.797-21.21 8.282-28.889 3.575-4.234 8.695-6.852 14.197-7.512 12.299-1.475 25.112-2.257 38.271-2.257 13.16 0 25.972.782 38.271 2.257 5.502.66 10.621 3.279 14.197 7.512 6.485 7.679 9.845 18.003 8.282 28.889z" fill="#a29aa5"/><path d="m310.812 244.48c-7.195 11.701-20.111 19.34-34.598 19.34h-40.428c-14.486 0-27.403-7.639-34.598-19.34-2.316-3.77-4.032-7.966-5.028-12.459l2.67 18.528c.769 5.337 2.617 10.286 5.292 14.641 6.81 11.075 19.035 18.305 32.746 18.305h38.264c13.711 0 25.936-7.23 32.746-18.305 2.675-4.355 4.523-9.304 5.292-14.641l2.67-18.528c-.996 4.493-2.713 8.69-5.028 12.459z" fill="#8c818f"/><circle cx="256" cy="233.065" fill="#bed9fd" r="16.053"/><path d="m256 54.497c-93.823 0-169.881 76.058-169.881 169.881s76.058 169.88 169.881 169.88 169.881-76.058 169.881-169.88-76.058-169.881-169.881-169.881zm0 303.35c-73.713 0-133.469-59.756-133.469-133.47s59.756-133.469 133.469-133.469 133.469 59.756 133.469 133.47-59.756 133.469-133.469 133.469z" fill="#8c818f"/><path d="m256 370.576c-89.841 0-163.382-69.743-169.463-158.039-.27 3.913-.418 7.86-.418 11.841 0 93.823 76.058 169.881 169.881 169.881s169.881-76.059 169.881-169.881c0-3.982-.148-7.928-.418-11.841-6.081 88.296-79.622 158.039-169.463 158.039z" fill="#766d78"/><path d="m67.977 255.03-26.794-54.149c-11.1-22.432-2.493-49.627 19.492-61.588l4.253-2.314 19.628-18.145c9.262-8.562 24.219-5.3 29.074 6.342l18.425 43.071c.425.993 1.81 1.056 2.322.104l10.538-19.567c1.413-2.627 4.684-3.617 7.317-2.215l6.725 3.582c11.161 5.945 16.072 19.329 11.404 31.082l-62.848 158.26-57.963-19.905z" fill="#ffcdbe"/><path d="m60.675 139.294 4.253-2.314 1.293-1.195c-8.31 13.28-9.71 30.404-2.288 45.405l25.607 51.751c.763 1.543.923 3.315.446 4.97l-25.749 86.722-14.688-5.044 18.427-64.557-26.794-54.149c-11.099-22.434-2.492-49.628 19.493-61.589z" fill="#ebae9d"/><path d="m47.325 290.86-47.037 135.494c-.938 2.702.492 5.653 3.194 6.591l69.911 24.27c2.702.938 5.653-.492 6.591-3.194l47.037-135.494c.983-2.833-.516-5.927-3.349-6.91l-69.438-24.105c-2.832-.984-5.926.515-6.909 3.348z" fill="#df646e"/><path d="m47.325 290.86c.983-2.833 4.077-4.332 6.91-3.349l22.495 7.809c-2.638-.916-5.574.638-6.558 3.471l-48.736 140.387-17.954-6.233c-2.702-.938-4.132-3.889-3.194-6.591z" fill="#dc4955"/><path d="m444.023 255.03 26.794-54.149c11.1-22.432 2.493-49.627-19.492-61.588l-4.253-2.314-19.628-18.145c-9.262-8.562-24.219-5.3-29.074 6.342l-18.425 43.071c-.425.993-1.81 1.056-2.322.104l-10.538-19.567c-1.413-2.627-4.684-3.617-7.317-2.215l-6.725 3.582c-11.161 5.945-16.072 19.329-11.404 31.082l62.848 158.26 57.964-19.907z" fill="#ffcdbe"/><path d="m451.325 139.294-4.253-2.314-1.293-1.195c8.31 13.28 9.71 30.404 2.288 45.405l-25.607 51.751c-.763 1.543-.923 3.315-.446 4.97l25.749 86.722 14.688-5.044-18.427-64.557 26.794-54.149c11.099-22.434 2.492-49.628-19.493-61.589z" fill="#ebae9d"/><path d="m464.675 290.86 47.037 135.494c.938 2.702-.492 5.653-3.194 6.591l-69.911 24.27c-2.702.938-5.653-.492-6.591-3.194l-47.037-135.494c-.983-2.833.516-5.927 3.349-6.91l69.438-24.105c2.832-.984 5.926.515 6.909 3.348z" fill="#df646e"/><path d="m464.675 290.86c-.983-2.833-4.077-4.332-6.91-3.349l-22.495 7.809c2.638-.916 5.574.638 6.558 3.471l48.735 140.387 17.954-6.233c2.702-.938 4.132-3.889 3.194-6.591z" fill="#dc4955"/></g></svg>