<svg id="Capa_1" enable-background="new 0 0 512 512" height="512" viewBox="0 0 512 512" width="512" xmlns="http://www.w3.org/2000/svg"><g><path d="m315.552 249.522-85.674 71.889c-8.023 6.732-19.43 7.608-28.387 2.177l-89.099-54.017c-7.245-4.392-16.677-2.079-21.072 5.166-4.392 7.245-2.08 16.679 5.166 21.072l89.098 54.016c20.197 12.246 45.924 10.272 64.017-4.91l85.674-71.889z" fill="#8c818f"/><path d="m52.009 274.966-41.858 35.128c-6.435 5.4-10.151 13.37-10.151 21.771v117.682c0 2.209 1.791 4 4 4h30.344c2.209 0 4-1.791 4-4v-103.029c0-6.359 2.813-12.393 7.684-16.481l30.627-25.703z" fill="#8c818f"/><path d="m207.09 86.463-32.55 27.313c-4.017 3.37-4.541 9.359-1.17 13.376l15.336 18.277 47.096-39.518-15.336-18.277c-3.371-4.018-9.36-4.542-13.376-1.171z" fill="#67b59f"/><path d="m36.545 182.763h237.564v61.079h-237.564z" fill="#67b59f" transform="matrix(.766 -.643 .643 .766 -100.769 149.745)"/><path d="m48.731 216.245h237.564v23.162h-237.564z" fill="#56988c" transform="matrix(.766 -.643 .643 .766 -107.253 160.976)"/><path d="m53.467 259.655 38.523 45.91c5.92 7.055 5 17.574-2.055 23.494s-17.574 5-23.494-2.055l-38.523-45.91c-5.92-7.055-5-17.574 2.055-23.494 7.056-5.92 17.574-5 23.494 2.055z" fill="#eec06b"/><path d="m361.605 59.898-57.817 49.874 36.549 25.036 38.327-32.16c.371-.311.84-.481 1.324-.481h95.75c2.845 0 5.15-2.306 5.15-5.15v-33.413c0-2.845-2.307-5.151-5.152-5.151h-110.157c-1.454 0-2.86.511-3.974 1.445z" fill="#ddebfd"/><path d="m476.768 83.121h-104.969c-.484 0-.953.17-1.324.481l-42.342 36.66 12.205 14.545 38.327-32.16c.371-.311.84-.481 1.324-.481h95.75c2.845 0 5.15-2.305 5.15-5.15v-15.982c-.94 1.26-2.428 2.087-4.121 2.087z" fill="#bed9fd"/><path d="m210.085 303.666c-.507 0-1.022-.05-1.538-.155-4.183-.845-6.888-4.922-6.043-9.104l4.413-21.843c2.6-12.869 13.062-22.877 26.035-24.904l76.259-11.909c4.217-.664 8.167 2.226 8.826 6.442s-2.225 8.168-6.442 8.826l-76.259 11.909c-6.614 1.033-11.948 6.136-13.273 12.696l-4.413 21.844c-.741 3.666-3.964 6.198-7.565 6.198z" fill="#766d78"/><path d="m480.889 143.016s-31.11 29.623-31.11 46.805 13.929 31.111 31.11 31.111c17.182 0 31.111-13.929 31.111-31.111s-31.111-46.805-31.111-46.805z" fill="#f1cd88"/><path d="m319.901 172.169 22.614-18.991c4.292-3.601 4.851-9.999 1.25-14.29l-34.947-41.648c-3.601-4.291-9.999-4.851-14.29-1.251l-18.609 15.628c-2.21 1.856-5.505 1.568-7.36-.642l-10.471-12.479c-3.069-3.658-8.522-4.135-12.18-1.066l-71.774 60.226c-3.18 2.668-3.016 7.611.334 10.063l153.95 112.679c1.524 1.115 3.612 1.046 5.059-.168l17.853-14.98c1.326-1.112 1.811-2.937 1.212-4.561z" fill="#77d1b3"/><path d="m352.541 260.688-32.64-88.519 22.614-18.991c4.292-3.601 4.851-9.999 1.25-14.29l-34.947-41.648c-3.601-4.291-9.999-4.851-14.29-1.251l-8.634 7.251 29.913 35.648c3.601 4.291 3.041 10.69-1.251 14.29l-22.614 18.991 32.64 88.519c.599 1.624.114 3.449-1.212 4.561l-7.291 6.118 12.338 9.03c1.524 1.115 3.612 1.046 5.059-.168l17.853-14.98c1.326-1.112 1.811-2.937 1.212-4.561z" fill="#67b59f"/></g></svg>