<svg id="Capa_1" enable-background="new 0 0 512 512" height="512" viewBox="0 0 512 512" width="512" xmlns="http://www.w3.org/2000/svg"><g><path d="m0 96.322v319.356c0 5.69 4.612 10.302 10.302 10.302h491.396c5.69 0 10.302-4.612 10.302-10.302v-319.356c0-5.69-4.612-10.302-10.302-10.302h-491.396c-5.69 0-10.302 4.612-10.302 10.302z" fill="#ddebfd"/><path d="m501.698 86.02h-26.523c5.689 0 10.302 4.612 10.302 10.302v292.07c0 6.205-5.03 11.236-11.236 11.236h-463.939c-5.69 0-10.302-4.612-10.302-10.302v26.352c0 5.69 4.612 10.302 10.302 10.302h491.396c5.69 0 10.302-4.612 10.302-10.302v-319.356c0-5.69-4.612-10.302-10.302-10.302z" fill="#bed9fd"/><g><path d="m169.786 386.623h-123.605c-1.707 0-3.091-1.384-3.091-3.091v-52.642c0-8.131 6.591-14.722 14.722-14.722h100.342c8.131 0 14.722 6.591 14.722 14.722v52.642c.001 1.707-1.383 3.091-3.09 3.091z" fill="#77d1b3"/><path d="m158.155 316.168h-23.717c8.131 0 14.722 6.591 14.722 14.722v52.642c0 1.707-1.384 3.091-3.091 3.091h23.717c1.707 0 3.091-1.384 3.091-3.091v-52.642c0-8.131-6.591-14.722-14.722-14.722z" fill="#67b59f"/><path d="m169.543 140.341c-8.994-8.997-22.2-12.803-34.922-12.748-16.998.074-35.609 7.145-46.177 20.929-2.658 3.467-6.757 5.522-11.125 5.522h-6.294c-14.234 0-25.774 11.539-25.774 25.774v63.59h127.024v-59.974c0-1.564.524-3.078 1.458-4.333 8.714-11.705 5.972-28.595-4.19-38.76z" fill="#766d78"/><path d="m123.699 323.732-12.538 8.495c-1.919 1.3-4.436 1.3-6.355 0l-12.537-8.494c-1.556-1.054-2.487-2.811-2.487-4.69v-58.236h36.405v58.236c-.001 1.878-.933 3.635-2.488 4.689z" fill="#ebae9d"/><g fill="#ffcdbe"><path d="m166.298 255.612h-116.629c-6.419 0-11.623-5.204-11.623-11.623v-6.207c0-6.419 5.204-11.623 11.623-11.623h116.629c6.419 0 11.623 5.204 11.623 11.623v6.207c.001 6.419-5.203 11.623-11.623 11.623z"/><path d="m147.1 199.204v55.376c0 20.721-16.798 37.519-37.519 37.519h-3.194c-20.727 0-37.519-16.802-37.519-37.519v-39.981c0-11.744 7.459-21.757 17.894-25.559 15.87 5.364 39.867 9.456 56.506 6.869 2.018-.314 3.832 1.253 3.832 3.295z"/></g></g><g fill="#80b6fc"><path d="m248.025 126.446v31.011c0 2.845 2.306 5.151 5.151 5.151h210.908c2.845 0 5.151-2.306 5.151-5.151v-31.011c0-2.845-2.306-5.151-5.151-5.151h-210.908c-2.845 0-5.151 2.306-5.151 5.151z"/><path d="m365.209 221.332h-117.184c-4.268 0-7.726-3.459-7.726-7.726s3.459-7.726 7.726-7.726h117.184c4.268 0 7.726 3.459 7.726 7.726s-3.458 7.726-7.726 7.726z"/><path d="m365.209 261.204h-117.184c-4.268 0-7.726-3.459-7.726-7.726s3.459-7.726 7.726-7.726h117.184c4.268 0 7.726 3.459 7.726 7.726.001 4.267-3.458 7.726-7.726 7.726z"/></g><g><path d="m420.541 394.349c-4.268 0-7.726-3.459-7.726-7.726v-32.925c0-4.267 3.459-7.726 7.726-7.726 4.268 0 7.726 3.459 7.726 7.726v32.925c.001 4.267-3.458 7.726-7.726 7.726z" fill="#766d78"/><path d="m420.54 348.356c-1.101 0-2.202-.235-3.225-.706l-45.225-20.779c-3.878-1.781-5.576-6.369-3.796-10.246 1.783-3.877 6.369-5.576 10.246-3.795l42 19.296 41.999-19.296c3.877-1.784 8.465-.081 10.246 3.795 1.781 3.878.082 8.465-3.796 10.246l-45.224 20.779c-1.023.47-2.124.706-3.225.706z" fill="#766d78"/><path d="m420.541 394.349c-31.111 0-56.421-25.31-56.421-56.42s25.31-56.42 56.42-56.42c31.111 0 56.422 25.31 56.422 56.42s-25.31 56.42-56.421 56.42zm-.001-97.387c-22.59 0-40.967 18.378-40.967 40.967s18.378 40.967 40.968 40.967 40.968-18.378 40.968-40.967-18.378-40.967-40.969-40.967z" fill="#8c818f"/><path d="m420.541 326.281c-8.708 0-15.768 7.06-15.768 15.768 0 8.709 7.06 15.768 15.768 15.768 8.709 0 15.769-7.06 15.769-15.768-.001-8.708-7.06-15.768-15.769-15.768z" fill="#9ec8fc"/><path d="m420.541 365.545c-12.955 0-23.495-10.54-23.495-23.495s10.54-23.495 23.495-23.495 23.495 10.54 23.495 23.495-10.54 23.495-23.495 23.495zm0-31.537c-4.435 0-8.042 3.608-8.042 8.042s3.608 8.042 8.042 8.042c4.435 0 8.042-3.608 8.042-8.042s-3.607-8.042-8.042-8.042z" fill="#655e67"/></g></g></svg>