<svg id="Capa_1" enable-background="new 0 0 512 512" height="512" viewBox="0 0 512 512" width="512" xmlns="http://www.w3.org/2000/svg"><g><path d="m394.229 211.982-35.1-29.784c-41.659-35.35-94.519-54.756-149.155-54.756h-56.941c-7.066 0-14.122.542-21.105 1.62l-50.355 7.778c-5.318.821-8.711 6.119-7.233 11.293l2.607 9.127c.752 2.634.256 5.468-1.347 7.689l-48.846 67.679s-1.392 15.817-3.401 20.647c-4.01 9.64-16.907 22.477-23.172 30.2-.365 4.546-.184 9.155.57 13.731l7.897 47.928c1.002 6.083 6.261 10.546 12.426 10.546h429.236l45.36-14.511c9.725-3.111 16.325-12.152 16.325-22.363v-34.947c0-4.32-5.471-7.587-7.727-11.271-6.094-9.95-9.416-19.465-18.375-26.751-22.772-18.52-54.252-28.945-91.664-33.855z" fill="#80b6fc"/><path d="m504.268 272.588c-6.094-9.95-9.416-19.465-18.375-26.751-22.772-18.52-54.252-28.945-91.665-33.855l-35.1-29.784c-41.659-35.35-94.519-54.756-149.155-54.756h-25.522c54.636 0 107.496 20.58 149.155 58.071l35.1 31.588c52.131 7.256 92.746 25.866 114.329 63.24 2.256 3.907 3.437 8.408 3.437 12.989v37.062c0 5.698-1.841 11.04-4.988 15.316l14.186-4.538c9.725-3.111 16.325-12.152 16.325-22.363v-34.947c0-4.32-5.471-7.588-7.727-11.272z" fill="#62a4fb"/><path d="m495.424 319.267-46.045 14.73h-435.713c-2.663 0-5.154-.826-7.222-2.244l2.205 13.381c1.002 6.083 6.261 10.546 12.426 10.546h429.235l45.36-14.511c9.725-3.111 16.325-12.152 16.325-22.363v-22.239c0 10.365-6.699 19.542-16.571 22.7z" fill="#62a4fb"/><path d="m485.893 245.837c-14.586 2.189-25.54 11.425-25.54 22.489 0 12.693 14.414 22.982 32.194 22.982 7.308 0 14.044-1.741 19.447-4.669v-2.779c0-4.32-1.181-8.564-3.437-12.248-6.093-9.95-13.705-18.489-22.664-25.775z" fill="#ddebfd"/><path d="m511.122 277.497c-.577-2.062-1.436-4.044-2.565-5.885-.722-1.179-1.469-2.334-2.233-3.474-5.354-7.983-12.269-15.662-20.432-22.301-9.096 1.365-16.779 5.472-21.274 11.052 7.133 6.837 13.313 14.613 18.416 23.45 1.852 3.206 2.966 6.815 3.31 10.538 2.008.28 4.08.43 6.202.43 7.308 0 14.044-1.741 19.447-4.669-.092-1.625.352-4.773-.871-9.141z" fill="#bed9fd"/><path d="m11.328 283.476c7.238 0 14.079-3.422 18.308-9.297 5.763-8.005 16.139-14.097 23.07-17.524 4.309-2.131 7.015-6.538 7.015-11.344 0-7.004-5.678-12.682-12.682-12.682h-20.285l-16.047 22.234c-6.11 8.466-9.705 18.378-10.526 28.613z" fill="#eec06b"/><circle cx="420.957" cy="339.159" fill="#766d78" r="45.4"/><circle cx="420.957" cy="339.159" fill="#ddebfd" r="16.521"/><circle cx="83.641" cy="339.159" fill="#766d78" r="45.4"/><circle cx="83.641" cy="339.159" fill="#ddebfd" r="16.521"/><path d="m318.348 154.516h-154.92c-18.573 0-36.02 8.901-46.922 23.938l-18.698 25.79c-2.337 3.224-.034 7.738 3.948 7.738h292.472l-35.1-29.784c-12.647-10.733-26.331-19.986-40.78-27.682z" fill="#8c818f"/><path d="m345.235 171.311c-8.567-6.209-17.433-11.759-26.887-16.795h-28.48c15.541 8.475 30.231 18.84 43.738 30.996l29.413 26.47h31.21c-32.925-27.722-37.184-32.118-48.994-40.671z" fill="#766d78"/><path d="m204.911 227.774c-.625 0-1.258-.079-1.891-.243-4.009-1.041-6.415-5.135-5.374-9.145l19.626-75.57c1.042-4.009 5.138-6.413 9.145-5.374 4.009 1.041 6.415 5.135 5.374 9.145l-19.626 75.57c-.878 3.378-3.921 5.617-7.254 5.617z" fill="#80b6fc"/><path d="m320.984 200.355v29.385c0 2.677 2.17 4.847 4.847 4.847h14.286c7.085 0 12.828-5.743 12.828-12.828v-13.422c0-7.085-5.743-12.828-12.828-12.828h-14.286c-2.677 0-4.847 2.17-4.847 4.846z" fill="#9ec8fc"/><path d="m282.058 323.114h-74.276c-2.845 0-5.151-2.306-5.151-5.151v-74.276c0-2.845 2.306-5.151 5.151-5.151h74.276c2.845 0 5.151 2.306 5.151 5.151v74.276c0 2.845-2.306 5.151-5.151 5.151z" fill="#ddebfd"/><path d="m255.148 302.556h-20.456c-4.142 0-7.5-3.358-7.5-7.5v-28.463c0-4.142 3.358-7.5 7.5-7.5s7.5 3.358 7.5 7.5v20.962h12.956c4.142 0 7.5 3.358 7.5 7.5 0 4.143-3.358 7.501-7.5 7.501z" fill="#df646e"/></g></svg>