<svg id="Capa_1" enable-background="new 0 0 512 512" height="512" viewBox="0 0 512 512" width="512" xmlns="http://www.w3.org/2000/svg"><g><g><g fill="#df646e"><g><path d="m238.763 256.197c-.596 0-1.201-.072-1.806-.222l-32.161-7.989c-4.001-.994-6.438-5.043-5.444-9.044.993-4.001 5.042-6.441 9.044-5.445l32.161 7.989c4.001.994 6.438 5.043 5.444 9.044-.843 3.397-3.889 5.667-7.238 5.667z"/><path d="m7.461 256.197c-3.339 0-6.379-2.256-7.233-5.641-1.008-3.998 1.415-8.056 5.413-9.064l31.013-7.82c3.993-1.007 8.056 1.415 9.064 5.413s-1.415 8.056-5.413 9.064l-31.013 7.82c-.612.155-1.227.228-1.831.228z"/></g><path d="m211.576 174.916v65.596c0-6.937-3.373-7.447-9.046-11.458-53.349-37.732-106.699-37.732-160.058 0-5.663 4.011-9.039 4.521-9.039 11.459v-65.595c0-17.946 28.099-49.796 44.95-55.967 21.001-7.694 68.517-7.864 89.458-.001 16.622 6.24 43.735 38.209 43.735 55.966z"/><path d="m211.576 410.654v21.282c0 3.265-.637 6.497-1.881 9.523l-4.949 12.033c-5.186 12.601-17.476 20.833-31.102 20.833h-102.278c-13.636 0-25.918-8.231-31.104-20.832l-4.947-12.033c-1.244-3.026-1.881-6.261-1.881-9.525 0 0-.001-7.942-.001-21.319 0 5.584 3.883-3.571 9.338-2.357 53.389 11.814 106.55 11.924 159.5.03 5.444-1.224 9.305 7.939 9.305 2.365z"/></g><path d="m167.841 118.95c-13.229-4.965-37.064-6.722-58.121-5.407 12.082.76 23.207 2.55 30.817 5.406 16.625 6.239 43.736 38.209 43.736 55.966v257.023c0 3.266-.639 6.5-1.882 9.52l-4.95 12.033c-5.186 12.606-17.469 20.835-31.1 20.835h27.304c13.631 0 25.916-8.227 31.102-20.833l4.949-12.033c1.243-3.02 1.881-6.257 1.881-9.523 0 0 0-174.285 0-257.02-.001-17.758-27.111-49.728-43.736-55.967z" fill="#dc4955"/><path d="m202.271 422.289c-52.695 11.842-105.604 11.789-158.728.138-.257-.056-.515-.11-.773-.167-4.811-1.679-8.688-6.362-9.338-11.643v-170.104c0-.949.06-1.887.183-2.814 1.78-4.254 3.746-10.81 8.35-14.273.167-.125.335-.25.506-.371 53.353-37.74 106.704-37.74 160.058 0 .456.323.897.668 1.324 1.023 2.879 5.005 5.816 10.878 7.684 15.24.022.398.038.795.038 1.196v170.142c0 5.473-4.31 9.482-9.013 11.559-.095.023-.194.052-.291.074z" fill="#766d78"/><path d="m211.576 240.512v170.142c-.881 5.205-4.076 9.246-9.013 11.559-.098.025-.193.054-.292.076-5.992 1.344-11.995 2.53-17.997 3.575v-214.228c6.081 3.324 12.174 7.117 18.256 11.417.458.319.895.655 1.324 1.023 2.737 4.998 5.97 10.045 7.684 15.24.03.398.038.798.038 1.196z" fill="#655e67"/><path d="m33.43 237.41 44.685 65.589c1.445 2.121 3.79 3.262 6.176 3.262 1.447 0 2.91-.42 4.196-1.296 3.407-2.321 4.287-6.965 1.966-10.372l-52.992-77.782c-1.005-1.475-2.445-2.474-4.032-2.947.001 7.592.001 15.473.001 23.546z" fill="#df646e"/><path d="m211.538 239.316-43.388 63.68c-1.443 2.12-3.792 3.265-6.181 3.265-1.443 0-2.906-.418-4.19-1.294-3.414-2.319-4.29-6.967-1.971-10.371l48.045-70.52c4.569 3.782 7.356 9.308 7.685 15.24z" fill="#df646e"/><path d="m211.538 239.316c-.329-5.932-3.116-11.458-7.684-15.24l-19.579 28.736v26.525z" fill="#dc4955"/><path d="m157.404 378.686h-68.584c-6.806 0-12.323-5.517-12.323-12.323v-72.533c0-4.169 2.423-7.929 6.172-9.752 26.962-13.116 53.924-13.116 80.887 0 3.749 1.824 6.172 5.583 6.172 9.752v72.533c-.001 6.806-5.518 12.323-12.324 12.323z" fill="#df646e"/><path d="m154.128 349.799c-3.332-2.425-8.002-1.69-10.428 1.644s-1.689 8.002 1.644 10.428c23.843 17.35 42.601 37.133 57.22 60.343 5.283-1.327 9.013-6.087 9.013-11.559v-1.97c-15.076-22.449-33.96-41.794-57.449-58.886z" fill="#df646e"/><path d="m184.274 375.496v21.944c6.714 7.807 12.794 16.05 18.289 24.774 3.302-.829 5.997-3.006 7.555-5.851.925-1.689 1.458-3.654 1.458-5.708v-1.97c-7.988-11.895-17.057-22.911-27.302-33.189z" fill="#dc4955"/><path d="m100.897 361.872c3.334-2.425 4.072-7.094 1.647-10.428-2.425-3.335-7.096-4.072-10.428-1.647-24.14 17.557-43.414 37.514-58.687 60.769l.003.049c0 5.587 3.882 10.435 9.338 11.643.258.057.515.111.773.167 14.632-23.309 33.439-43.16 57.354-60.553z" fill="#df646e"/></g><path d="m270.365 315.366v27.116c0 2.882 2.336 5.217 5.217 5.217h129.35c2.882 0 5.217-2.336 5.217-5.217v-27.116c0-2.882-2.336-5.217-5.217-5.217h-129.35c-2.881 0-5.217 2.336-5.217 5.217z" fill="#8c818f"/><path d="m311.253 244.583 11.077-37.333c.39-1.33 1.62-2.24 3-2.24h29.85c1.39 0 2.61.91 3.01 2.24l10.98 37.026-28.913 6.154z" fill="#e5936a"/><path d="m388.71 310.15h-96.91l11.238-37.879 37.22-4 37.218 4z" fill="#e5936a"/><path d="m368.461 241.886h-23.091l-9.83-34.636c-.38-1.33-1.54-2.24-2.87-2.24h22.51c1.39 0 2.61.91 3.01 2.24z" fill="#e27c48"/><path d="m388.71 310.15h-23.96l-10.47-36.879h23.493z" fill="#e27c48"/><path d="m302.743 273.271h75.03l-9.312-31.385h-56.407z" fill="#ddebfd"/><g fill="#bed9fd"><path d="m354.28 273.271h23.493l-9.312-31.385h-23.091z"/><path d="m474.712 172.313v-28.077c0-58.853-47.709-106.562-106.562-106.562h-55.786c-40.821 0-76.355 23.07-94.246 56.855-1.09 2.058-.697 4.591.95 6.237l17.61 17.61c1.683 1.683 4.56 1.101 5.413-1.12 10.843-28.232 38.221-48.278 70.273-48.278h55.785c41.563 0 75.257 33.694 75.257 75.257v28.077c0 3.765-3.052 6.817-6.817 6.817h-24.809c-4.78 0-7.402 5.564-4.36 9.251l44.017 53.33c3.952 4.788 11.289 4.788 15.24 0l44.017-53.33c3.043-3.687.421-9.251-4.36-9.251h-24.807c-3.763.001-6.815-3.051-6.815-6.816z"/></g></g></svg>