<svg id="Capa_1" enable-background="new 0 0 496.999 496.999" height="512" viewBox="0 0 496.999 496.999" width="512" xmlns="http://www.w3.org/2000/svg"><g><path d="m485.022 264.776 3.09-.49c-1.34 47.04-16.24 90.68-40.93 127.16l-1.13-2.92h-8.66l4.763 10.069-2.433 3.281c-33.2 43.82-81.1 75.88-136.36 88.81l-6.96-3.89-12.8 7.64c-9.05 1.34-18.26 2.16-27.61 2.44l.01-.01-7.5-5.07-7.5 5.07v.01c-9.34-.28-18.55-1.1-27.6-2.44l-14.48-9.23-5.29 5.48c-55.7-13.04-103.92-45.5-137.13-89.85l.04-12.31h-8.66c-23.45-35.75-37.58-78.15-38.98-123.75l5.66-9.17-5.66-5.83c1.4-45.6 15.53-87.99 38.97-123.75l.01.01 8.62-1.95v-10.37c33.21-44.35 81.43-76.81 137.13-89.85v.01l5.29 5.47 14.48-9.23c9.05-1.34 18.26-2.16 27.6-2.44v.01l7.5 5.07 7.5-5.07-.01-.01c9.35.28 18.57 1.1 27.62 2.44l-.01.01 12.8 7.63 6.96-3.88-.01-.01c55.71 13.03 103.94 45.5 137.16 89.86l-.02-.01v8.41l8.62 3.91.01-.03c24.02 36.64 38.27 80.24 39.06 127.13l-3.16-3.36-5.65 5.83z" fill="#90d3f1"/><path d="m58.724 257.276c0-93.116 41.584-175.285 104.974-224.282-42.998 16.264-80.096 44.532-107.196 80.722v10.37l-8.62 1.95-.01-.01c-23.44 35.76-37.57 78.15-38.97 123.75l5.66 5.83-5.66 9.17c1.4 45.6 15.53 88 38.98 123.75h8.66l-.04 12.31c27.1 36.19 64.198 64.458 107.196 80.722-63.389-48.997-104.974-131.166-104.974-224.282z" fill="#59c2e7"/><path d="m370.394 158.339c28.867-7.887 55.331-18.649 78.304-32.034.145-.084.28-.18.417-.272-2.751-4.196-5.618-8.31-8.619-12.318-21.405 12.382-46.562 22.486-74.053 29.979-2.24-7.672-4.702-15.254-7.413-22.726-13.448-37.07-32.601-70.406-55.666-97.096-6.489-1.52-13.081-2.77-19.762-3.75-.355 2.215.277 4.564 1.932 6.325 24.777 26.37 45.316 60.823 59.396 99.636 2.538 6.997 4.846 14.098 6.955 21.28-30.163 7.016-62.697 10.991-95.884 11.514v-141.193c-2.492-.077-4.99-.128-7.5-.128s-5.008.051-7.5.128v141.193c-33.188-.522-65.722-4.498-95.885-11.514 2.109-7.184 4.417-14.284 6.955-21.282 14.08-38.813 34.619-73.267 59.396-99.636 1.655-1.761 2.286-4.109 1.932-6.325-6.681.98-13.274 2.231-19.764 3.75-23.065 26.69-42.218 60.026-55.666 97.095-2.711 7.473-5.173 15.055-7.413 22.727-27.491-7.493-52.648-17.597-74.052-29.979-3.002 4.008-5.868 8.121-8.619 12.318.137.092.272.188.417.272 22.973 13.385 49.437 24.147 78.304 32.034-7.301 29.301-11.262 59.899-11.802 91.438h-105.899c-.077 2.492-.128 4.989-.128 7.5 0 2.51.052 5.008.128 7.5h105.897c.54 31.539 4.501 62.138 11.802 91.439-28.867 7.887-55.332 18.649-78.305 32.035-.145.084-.279.179-.416.271 2.751 4.197 5.618 8.31 8.62 12.318 21.405-12.381 46.562-22.486 74.052-29.979 2.24 7.672 4.702 15.254 7.413 22.726 13.448 37.069 32.601 70.405 55.666 97.096 6.49 1.52 13.082 2.77 19.763 3.75.354-2.215-.277-4.563-1.932-6.324-24.778-26.371-45.316-60.824-59.396-99.637-2.538-6.997-4.846-14.098-6.955-21.281 30.163-7.016 62.697-10.991 95.885-11.514v141.193c2.492.077 4.99.128 7.5.128s5.008-.052 7.5-.128v-141.19c33.188.522 65.722 4.498 95.884 11.513-2.109 7.184-4.417 14.284-6.955 21.281-14.08 38.813-34.618 73.266-59.396 99.636-1.655 1.761-2.286 4.11-1.932 6.325 6.681-.98 13.273-2.231 19.762-3.75 23.066-26.69 42.219-60.026 55.666-97.096 2.711-7.473 5.173-15.054 7.413-22.727 27.491 7.493 52.648 17.597 74.053 29.979 3.002-4.008 5.868-8.122 8.619-12.318-.137-.092-.271-.187-.416-.271-22.973-13.386-49.437-24.149-78.305-32.036 7.301-29.301 11.262-59.899 11.802-91.438h105.898c.077-2.492.128-4.99.128-7.5 0-2.511-.052-5.008-.128-7.5h-105.897c-.54-31.538-4.501-62.136-11.801-91.437zm-129.394 182.333c-34.912.509-68.616 4.569-99.852 11.87-6.999-28.105-10.807-57.474-11.345-87.764h111.197zm0-90.895h-111.197c.538-30.291 4.346-59.658 11.345-87.763 31.236 7.3 64.94 11.36 99.852 11.87zm114.851 102.764c-31.235-7.3-64.939-11.36-99.851-11.869v-75.895h111.196c-.538 30.291-4.346 59.659-11.345 87.764zm-99.851-102.764v-75.894c34.912-.51 68.616-4.569 99.851-11.87 6.998 28.105 10.807 57.473 11.345 87.763h-111.196z" fill="#5c84d9"/><path d="m151.732 0c-35.65 0-64.551 28.9-64.551 64.551 0 81.814 64.551 129.905 64.551 129.905s64.551-48.091 64.551-129.905c0-35.651-28.901-64.551-64.551-64.551z" fill="#ff748f"/><path d="m310.535 281.506c0 81.814 64.551 129.905 64.551 129.905s64.551-48.091 64.551-129.905c0-35.651-28.9-64.551-64.551-64.551s-64.551 28.9-64.551 64.551z" fill="#ff748f"/><ellipse cx="151.732" cy="74.833" fill="#fff" rx="29.341" ry="29.341" transform="matrix(.924 -.383 .383 .924 -17.088 63.762)"/><circle cx="375.086" cy="291.788" fill="#fff" r="29.341"/><g fill="#4677d4"><path d="m58.724 257.276c0-2.508.035-5.007.095-7.499h-49.914c-.077 2.492-.128 4.989-.128 7.5 0 2.51.052 5.008.128 7.5h49.914c-.06-2.492-.095-4.992-.095-7.501z"/><path d="m81.176 142.684c1.929-4.666 3.967-9.263 6.12-13.78-10.926-4.59-21.236-9.661-30.793-15.189-3.002 4.008-5.868 8.121-8.619 12.318.137.092.272.188.417.272 10.289 5.995 21.283 11.459 32.875 16.379z"/><path d="m81.177 371.871c-11.593 4.92-22.588 10.385-32.877 16.38-.145.084-.279.179-.416.271 2.751 4.197 5.618 8.31 8.62 12.318 9.557-5.528 19.867-10.599 30.793-15.189-2.153-4.517-4.191-9.115-6.12-13.78z"/></g></g></svg>