<svg id="Capa_1" enable-background="new 0 0 497 497" height="512" viewBox="0 0 497 497" width="512" xmlns="http://www.w3.org/2000/svg"><g><path d="m60.47 59.83c-13.893 0-25.156 11.263-25.156 25.156v32.895c0 13.893 11.263 25.156 25.156 25.156h31.65v-83.207z" fill="#6a647f"/><path d="m60.47 143.036c-13.893 0-25.156 11.263-25.156 25.156v32.895c0 13.893 11.263 25.156 25.156 25.156h31.65v-83.206h-31.65z" fill="#5c586f"/><path d="m401.856 0h-266.653c-33.043 0-59.83 26.787-59.83 59.83v377.34c0 33.043 26.787 59.83 59.83 59.83h266.653c33.043 0 59.83-26.787 59.83-59.83v-377.34c0-33.043-26.787-59.83-59.83-59.83z" fill="#5c586f"/><path d="m139.038 233.234c0-92.182 30.974-175.182 80.435-233.234h-84.27c-33.043 0-59.83 26.787-59.83 59.83v377.34c0 33.043 26.787 59.83 59.83 59.83h114.654c-66.848-57.084-110.819-153.914-110.819-263.766z" fill="#4f4c5f"/><path d="m388.12 401.522h13.739c8.05 0 14.603-6.553 14.603-14.603v-312.486c0-8.05-6.553-14.603-14.603-14.603h-266.659c-8.05 0-14.603 6.553-14.603 14.603v312.485c0 8.05 6.553 14.603 14.603 14.603h13.739l119.59-26.552z" fill="#90d3f1"/><circle cx="268.529" cy="449.26" fill="#4f4c5f" r="19.237"/><g><path d="m229.831 338.556c-9.129 0-16.835-7.048-17.522-16.284-.062-.746-3.715-41.288-33.796-64.244-7.722-5.893-9.205-16.93-3.312-24.652 5.893-7.723 16.93-9.204 24.652-3.312 43.055 32.857 47.377 87.358 47.539 89.662.685 9.689-6.615 18.1-16.304 18.785-.421.03-.841.045-1.257.045z" fill="#f9496e"/></g><g><path d="m307.228 338.556c9.129 0 16.835-7.048 17.522-16.284.062-.746 3.715-41.288 33.796-64.244 7.722-5.893 9.205-16.93 3.312-24.652-5.893-7.723-16.93-9.204-24.652-3.312-43.055 32.857-47.377 87.358-47.539 89.662-.685 9.689 6.615 18.1 16.304 18.785.42.03.841.045 1.257.045z" fill="#f9496e"/></g><circle cx="268.529" cy="29.915" fill="#4f4c5f" r="7.728"/><ellipse cx="184.26" cy="169.746" fill="#fff" rx="31.094" ry="24.762"/><ellipse cx="352.799" cy="169.746" fill="#fff" rx="31.094" ry="24.762"/><ellipse cx="268.529" cy="150.721" fill="#423e4f" rx="16.505" ry="18.47"/><path d="m139.038 233.234c0-63.982 14.929-123.536 40.594-173.404h-44.432c-8.05 0-14.603 6.553-14.603 14.603v312.485c0 8.051 6.553 14.604 14.603 14.604h13.739l25.396-5.639c-22.409-47.584-35.297-103.205-35.297-162.649z" fill="#59c2e7"/><path d="m388.12 401.522h-239.181c8.422-58.755 58.765-103.912 119.59-103.912s111.168 45.157 119.591 103.912z" fill="#ff748f"/><path d="m148.939 401.522h28.098c-5.988-12.135-11.346-24.819-16.019-37.979-5.986 11.686-10.143 24.472-12.079 37.979z" fill="#f9496e"/><g fill="#423e4f"><path d="m287.621 362.863c-3.123-2.722-7.859-2.396-10.582.726-2.149 2.466-5.251 3.88-8.51 3.88s-6.36-1.414-8.51-3.88c-2.723-3.123-7.46-3.447-10.582-.726-3.123 2.722-3.447 7.459-.727 10.582 4.999 5.735 12.223 9.024 19.818 9.024s14.819-3.289 19.818-9.024c2.723-3.123 2.398-7.86-.725-10.582z"/><path d="m226.918 347.589-20.703-5.547c-4.003-1.072-8.114 1.302-9.186 5.303s1.302 8.113 5.303 9.186l5.095 1.365c-.075.425-.121.86-.121 1.308v8.918c0 4.142 3.357 7.5 7.5 7.5s7.5-3.358 7.5-7.5v-6.239l.729.196c.65.174 1.304.257 1.946.257 3.312 0 6.342-2.21 7.239-5.561 1.073-4.001-1.301-8.114-5.302-9.186z"/><path d="m330.843 342.042-20.702 5.547c-4.001 1.072-6.375 5.185-5.303 9.186.897 3.351 3.928 5.561 7.239 5.561.643 0 1.296-.083 1.946-.257l.729-.196v6.239c0 4.142 3.357 7.5 7.5 7.5s7.5-3.358 7.5-7.5v-8.918c0-.447-.046-.882-.121-1.308l5.094-1.365c4.001-1.072 6.375-5.185 5.303-9.186-1.071-4.001-5.182-6.375-9.185-5.303z"/><path d="m196.957 127.805c0-4.143-3.357-7.5-7.5-7.5s-7.5 3.357-7.5 7.5v12.061c0 4.142 3.357 7.5 7.5 7.5s7.5-3.358 7.5-7.5z"/><path d="m347.601 120.305c-4.143 0-7.5 3.357-7.5 7.5v12.061c0 4.142 3.357 7.5 7.5 7.5s7.5-3.358 7.5-7.5v-12.061c0-4.142-3.358-7.5-7.5-7.5z"/></g></g></svg>