<svg id="Capa_1" enable-background="new 0 0 497 497" height="512" viewBox="0 0 497 497" width="512" xmlns="http://www.w3.org/2000/svg"><g><path d="m423.692 52.036h-350.384c-23.659 0-42.839 19.18-42.839 42.839v289.058h436.063v-289.058c-.001-23.659-19.181-42.839-42.84-42.839z" fill="#c7c5cb"/><path d="m115.172 249.776c0-76.57 28.481-146.153 74.921-197.74h-116.785c-23.659 0-42.839 19.18-42.839 42.839v289.058h116.255c-20.136-40.067-31.552-85.709-31.552-134.157z" fill="#b2b0bc"/><path d="m85.469 107.036h326.063v276.897h-326.063z" fill="#ff748f"/><path d="m115.172 249.776c0-51.939 13.107-100.664 36.03-142.74h-65.733v276.897h61.255c-20.136-40.067-31.552-85.709-31.552-134.157z" fill="#fd5f7e"/><path d="m185.99 363.773h-156.214c-16.445 0-29.776 13.331-29.776 29.776v14.224c0 30.07 24.376 54.446 54.446 54.446h388.108c30.07 0 54.446-24.376 54.446-54.446v-14.224c0-16.445-13.331-29.776-29.776-29.776h-156.214l-62.51 20.16z" fill="#b2b0bc"/><path d="m185.99 363.773v19.972c0 16.155 13.096 29.251 29.251 29.251h66.517c16.155 0 29.251-13.096 29.251-29.251v-19.972z" fill="#c7c5cb"/><g><path d="m248.5 237.274c-32.869 0-59.61-26.741-59.61-59.61v-18.667c0-32.869 26.741-59.61 59.61-59.61s59.61 26.741 59.61 59.61v18.667c0 32.869-26.741 59.61-59.61 59.61zm0-97.887c-10.813 0-19.61 8.797-19.61 19.61v18.667c0 10.813 8.797 19.61 19.61 19.61s19.61-8.797 19.61-19.61v-18.667c0-10.813-8.797-19.61-19.61-19.61z" fill="#6a647f"/></g><g><path d="m248.5 389.372c-32.869 0-59.61-26.741-59.61-59.61v-18.667c0-32.869 26.741-59.61 59.61-59.61s59.61 26.741 59.61 59.61v18.667c0 32.869-26.741 59.61-59.61 59.61zm0-97.887c-10.813 0-19.61 8.797-19.61 19.61v18.667c0 10.813 8.797 19.61 19.61 19.61s19.61-8.797 19.61-19.61v-18.667c0-10.813-8.797-19.61-19.61-19.61z" fill="#6a647f"/></g><g><path d="m248.5 149.782c-11.046 0-20-8.954-20-20v-75c0-11.046 8.954-20 20-20s20 8.954 20 20v75c0 11.046-8.954 20-20 20z" fill="#5c586f"/></g><g><path d="m248.5 301.88c-11.046 0-20-8.954-20-20v-75.001c0-11.046 8.954-20 20-20s20 8.954 20 20v75.001c0 11.046-8.954 20-20 20z" fill="#5c586f"/></g><path d="m137.527 363.773h-107.751c-16.445 0-29.776 13.331-29.776 29.776v14.224c0 30.069 24.376 54.446 54.446 54.446h149.873c-28.407-27.302-51.312-60.797-66.792-98.446z" fill="#a19dae"/></g></svg>