<svg id="Capa_1" enable-background="new 0 0 497 497" height="512" viewBox="0 0 497 497" width="512" xmlns="http://www.w3.org/2000/svg"><g><path d="m60.47 59.83c-13.893 0-25.156 11.263-25.156 25.156v32.895c0 13.893 11.263 25.156 25.156 25.156h31.65v-83.207z" fill="#5c84d9"/><path d="m60.47 143.036c-13.893 0-25.156 11.263-25.156 25.156v32.895c0 13.893 11.263 25.156 25.156 25.156h31.65v-83.206h-31.65z" fill="#4677d4"/><path d="m401.856 0h-266.653c-33.043 0-59.83 26.787-59.83 59.83v377.34c0 33.043 26.787 59.83 59.83 59.83h266.653c33.043 0 59.83-26.787 59.83-59.83v-377.34c0-33.043-26.787-59.83-59.83-59.83z" fill="#5c586f"/><path d="m139.458 185.417c0-67.759 11.711-131.171 32.09-185.417h-36.345c-33.043 0-59.83 26.787-59.83 59.83v377.34c0 33.043 26.787 59.83 59.83 59.83h115.851c-66.824-63.195-111.596-179.082-111.596-311.583z" fill="#4f4c5f"/><path d="m401.859 401.522c8.05 0 14.603-6.553 14.603-14.603v-312.486c0-8.05-6.553-14.603-14.603-14.603h-266.659c-8.05 0-14.603 6.553-14.603 14.603v312.485c0 8.05 6.553 14.603 14.603 14.603h266.659z" fill="#5c84d9"/><circle cx="268.529" cy="449.26" fill="#4f4c5f" r="19.237"/><circle cx="268.529" cy="29.915" fill="#4f4c5f" r="7.728"/><g><path d="m302.228 296.084c-9.692 0-17.549-7.857-17.549-17.549v-56.648c0-8.905-7.245-16.15-16.15-16.15s-16.151 7.245-16.151 16.15v56.648c0 9.692-7.857 17.549-17.549 17.549s-17.549-7.857-17.549-17.549v-56.648c0-28.258 22.99-51.248 51.248-51.248s51.248 22.99 51.248 51.248v56.648c.001 9.692-7.856 17.549-17.548 17.549z" fill="#34b5e1"/></g><path d="m304.738 251.507h-72.418c-19.201 0-34.766 15.565-34.766 34.766v43.021c0 19.201 15.565 34.766 34.766 34.766h72.418c19.201 0 34.766-15.565 34.766-34.766v-43.021c0-19.201-15.565-34.766-34.766-34.766z" fill="#90d3f1"/><g fill="#fff"><path d="m294.868 101.219c-2.071-3.587-6.658-4.815-10.245-2.745l-8.593 4.961v-9.922c0-4.143-3.358-7.5-7.5-7.5s-7.5 3.357-7.5 7.5v9.922l-8.593-4.961c-3.587-2.071-8.174-.842-10.245 2.745s-.842 8.174 2.745 10.245l8.593 4.961-8.593 4.961c-3.587 2.071-4.816 6.658-2.745 10.245 2.077 3.598 6.667 4.81 10.245 2.745l8.593-4.961v9.923c0 4.142 3.358 7.5 7.5 7.5s7.5-3.358 7.5-7.5v-9.923l8.593 4.961c3.573 2.062 8.165.857 10.245-2.745 2.071-3.587.842-8.174-2.745-10.245l-8.593-4.961 8.593-4.961c3.587-2.071 4.816-6.658 2.745-10.245z"/><path d="m209.893 101.219c-2.072-3.587-6.658-4.815-10.245-2.745l-8.593 4.961v-9.922c0-4.143-3.358-7.5-7.5-7.5s-7.5 3.357-7.5 7.5v9.922l-8.593-4.961c-3.587-2.071-8.175-.842-10.245 2.745-2.071 3.587-.842 8.174 2.745 10.245l8.593 4.961-8.593 4.961c-3.587 2.071-4.816 6.658-2.745 10.245 2.077 3.598 6.667 4.81 10.245 2.745l8.593-4.961v9.923c0 4.142 3.358 7.5 7.5 7.5s7.5-3.358 7.5-7.5v-9.923l8.593 4.961c3.573 2.062 8.165.857 10.245-2.745 2.071-3.587.842-8.174-2.745-10.245l-8.593-4.961 8.593-4.961c3.587-2.071 4.816-6.658 2.745-10.245z"/><path d="m377.097 121.387-8.593-4.961 8.593-4.961c3.587-2.071 4.816-6.658 2.745-10.245s-6.658-4.816-10.245-2.745l-8.593 4.961v-9.922c0-4.143-3.358-7.5-7.5-7.5s-7.5 3.357-7.5 7.5v9.922l-8.593-4.961c-3.587-2.071-8.175-.842-10.245 2.745-2.071 3.587-.842 8.174 2.745 10.245l8.593 4.961-8.593 4.961c-3.587 2.071-4.816 6.658-2.745 10.245 2.077 3.598 6.667 4.81 10.245 2.745l8.593-4.961v9.923c0 4.142 3.358 7.5 7.5 7.5s7.5-3.358 7.5-7.5v-9.922l8.593 4.961c3.573 2.062 8.165.857 10.245-2.745 2.072-3.588.843-8.175-2.745-10.246z"/></g><path d="m139.458 185.417c0-44.152 4.974-86.459 14.076-125.587h-18.334c-8.05 0-14.603 6.553-14.603 14.603v312.485c0 8.05 6.553 14.603 14.603 14.603h49.25c-28.264-60.336-44.992-135.116-44.992-216.104z" fill="#4677d4"/></g></svg>