<svg id="Capa_1" enable-background="new 0 0 497 497" height="512" viewBox="0 0 497 497" width="512" xmlns="http://www.w3.org/2000/svg"><g><path d="m112.121 204.669 22.522 40.933-22.522 41.295-17.36-49.916z" fill="#ffb2c1"/><path d="m384.879 204.669-14.045 43.831 14.045 38.397 16.013-38.397z" fill="#ffb2c1"/><path d="m319.316 112.124-27.323-64.08h-147.552c-17.85 0-32.32 14.47-32.32 32.32v336.273c0 17.85 14.47 32.32 32.32 32.32h208.105c17.85 0 32.32-14.47 32.32-32.32v-275.72z" fill="#e0e0e0"/><path d="m136.874 235.314c0-76.667 32.193-144.702 81.907-187.27h-74.341c-17.85 0-32.32 14.47-32.32 32.32v336.272c0 17.85 14.47 32.32 32.32 32.32h113.688c-71.413-36.236-121.254-118.252-121.254-213.642z" fill="#d2d2d0"/><path d="m291.992 48.044v66.015c0 14.834 12.025 26.859 26.859 26.859h66.015z" fill="#d2d2d0"/><path d="m196.267 92.901h-99.269c-53.674 0-97.305 43.821-96.996 97.565.307 53.524 44.538 96.431 98.063 96.431h14.057v-82.229h-15.124c-8.39 0-15.168-7.032-14.75-15.513.391-7.934 7.236-14.025 15.179-14.025h98.841c22.707 0 41.114-18.408 41.114-41.114-.001-22.707-18.408-41.115-41.115-41.115z" fill="#ff748f"/><path d="m300.733 398.664h99.269c53.674 0 97.305-43.821 96.996-97.565-.307-53.524-44.538-96.431-98.063-96.431h-14.057v82.229h15.124c8.39 0 15.168 7.032 14.75 15.513-.391 7.934-7.236 14.025-15.179 14.025h-98.841c-22.707 0-41.114 18.408-41.114 41.115.001 22.707 18.408 41.114 41.115 41.114z" fill="#ff748f"/><path d="m98.064 286.897h14.057v-82.229h-15.123c-8.39 0-15.169-7.032-14.75-15.513.391-7.934 7.236-14.025 15.179-14.025h46.29c7.016-30.268 19.194-58.114 35.391-82.229h-82.11c-53.674 0-97.305 43.821-96.996 97.564.307 53.525 44.538 96.432 98.062 96.432z" fill="#fd5f7e"/><g fill="#423e4f"><path d="m168.626 144.959c2.721-3.123 2.396-7.86-.727-10.582-3.122-2.722-7.86-2.396-10.582.727-1.486 1.706-3.631 2.684-5.884 2.684s-4.397-.978-5.884-2.684c-2.723-3.123-7.46-3.448-10.582-.727-3.123 2.722-3.447 7.459-.727 10.582 4.337 4.975 10.603 7.828 17.192 7.828s12.857-2.853 17.194-7.828z"/><path d="m117.897 121.641-16.864-4.519c-4.001-1.072-8.114 1.302-9.186 5.303s1.302 8.114 5.303 9.186l3.022.81c0 .008-.001.016-.001.024v7.265c0 4.142 3.357 7.5 7.5 7.5s7.5-3.358 7.5-7.5v-3.374c.264.028.528.052.79.052 3.312 0 6.342-2.21 7.239-5.561 1.072-4.002-1.302-8.115-5.303-9.186z"/><path d="m186.906 136.387c.262 0 .526-.023.79-.052v3.374c0 4.142 3.357 7.5 7.5 7.5s7.5-3.358 7.5-7.5v-7.265c0-.008-.001-.016-.001-.024l3.022-.81c4.001-1.072 6.375-5.185 5.303-9.186-1.071-4.001-5.184-6.375-9.186-5.303l-16.864 4.519c-4.001 1.072-6.375 5.184-5.303 9.185.897 3.352 3.928 5.562 7.239 5.562z"/><path d="m158.675 224.668c0 4.142 3.357 7.5 7.5 7.5h164.65c4.143 0 7.5-3.358 7.5-7.5s-3.357-7.5-7.5-7.5h-164.65c-4.143 0-7.5 3.358-7.5 7.5z"/><path d="m330.825 264.016h-164.65c-4.143 0-7.5 3.358-7.5 7.5s3.357 7.5 7.5 7.5h164.65c4.143 0 7.5-3.358 7.5-7.5s-3.357-7.5-7.5-7.5z"/><path d="m220.825 357.711h-54.65c-4.143 0-7.5 3.358-7.5 7.5s3.357 7.5 7.5 7.5h54.65c4.143 0 7.5-3.358 7.5-7.5s-3.357-7.5-7.5-7.5z"/><path d="m220.825 310.864h-54.65c-4.143 0-7.5 3.358-7.5 7.5s3.357 7.5 7.5 7.5h54.65c4.143 0 7.5-3.358 7.5-7.5s-3.357-7.5-7.5-7.5z"/></g></g></svg>