<svg id="Capa_1" enable-background="new 0 0 497 497" height="512" viewBox="0 0 497 497" width="512" xmlns="http://www.w3.org/2000/svg"><g><path d="m238.84 381.852h90.193v85.476h-90.193z" fill="#a19dae"/><path d="m438.397 73.606h-156.086-152.835c-29.09 0-52.669 23.579-52.669 52.669v195.133l205.505 25.407 208.755-25.407v-195.133c-.001-29.09-23.58-52.669-52.67-52.669z" fill="#5c586f"/><path d="m171.975 88.167h223.923v304.533h-223.923z" fill="#90d3f1" transform="matrix(0 1 -1 0 524.37 -43.503)"/><circle cx="283.936" cy="101.038" fill="#423e4f" r="7.088"/><ellipse cx="202.056" cy="264.215" fill="#fff" rx="30.212" ry="24.06"/><ellipse cx="365.817" cy="264.215" fill="#fff" rx="30.212" ry="24.06"/><ellipse cx="283.936" cy="245.729" fill="#423e4f" rx="16.037" ry="17.946"/><g><path d="m207.106 242.682c-4.143 0-7.5-3.358-7.5-7.5v-11.719c0-4.142 3.357-7.5 7.5-7.5s7.5 3.358 7.5 7.5v11.719c0 4.142-3.358 7.5-7.5 7.5z" fill="#423e4f"/></g><g><path d="m360.766 242.682c-4.143 0-7.5-3.358-7.5-7.5v-11.719c0-4.142 3.357-7.5 7.5-7.5s7.5 3.358 7.5 7.5v11.719c0 4.142-3.357 7.5-7.5 7.5z" fill="#423e4f"/></g><g><path d="m237.365 171.957c-.819 0-1.652-.135-2.471-.421l-63.402-22.117c-3.91-1.364-5.976-5.641-4.61-9.552 1.364-3.911 5.636-5.976 9.552-4.611l63.402 22.117c3.91 1.364 5.976 5.641 4.61 9.552-1.079 3.093-3.98 5.032-7.081 5.032z" fill="#fd5f7e"/></g><g><path d="m170.388 238.933c-3.102 0-6.002-1.938-7.081-5.032l-22.117-63.403c-1.365-3.911.7-8.188 4.61-9.552 3.911-1.364 8.188.7 9.552 4.611l22.117 63.403c1.365 3.911-.7 8.188-4.61 9.552-.818.286-1.652.421-2.471.421z" fill="#fd5f7e"/></g><path d="m226.171 73.605c-5.401-12.193-19.662-17.692-31.85-12.293l-38.828 17.202c-12.19 5.4-17.694 19.66-12.294 31.85 1.241 2.801 2.95 5.248 4.994 7.292 6.851 6.851 17.468 9.16 26.856 5.001l38.828-17.202c12.19-5.4 17.694-19.66 12.294-31.85z" fill="#fd5f7e"/><path d="m99.73 238.629c0-60.524 13.068-117.046 35.694-165.024h-5.948c-29.09 0-52.669 23.579-52.669 52.669v195.133l32.184 3.979c-6.028-27.558-9.261-56.662-9.261-86.757z" fill="#4f4c5f"/><path d="m123.59 142.258c-2.044-2.044-4.49-3.752-7.292-4.994-12.19-5.4-26.45.104-31.85 12.294l-17.202 38.828c-5.399 12.188.099 26.449 12.293 31.85 12.19 5.4 26.45-.104 31.85-12.294l17.202-38.829c4.159-9.386 1.85-20.004-5.001-26.855z" fill="#fd5f7e"/><g fill="#f9496e"><path d="m112.81 136.026-16.327 1.36c-5.178 2.366-9.547 6.557-12.034 12.172l-17.202 38.828c-5.399 12.188.099 26.449 12.293 31.85 6.87 3.043 14.398 2.623 20.626-.506 1.32-29.146 5.666-57.227 12.644-83.704z"/><path d="m145.635 62.737-6.055-42.034c-1.901-13.195-14.136-22.355-27.336-20.453-13.196 1.902-22.353 14.141-20.451 27.337l6.055 42.034c1.464 10.163 9.061 17.932 18.505 20.096 2.817.646 5.798.793 8.831.357 13.196-1.902 22.353-14.141 20.451-27.337z"/><path d="m95.651 110.418c-2.164-9.443-9.932-17.041-20.096-18.504l-42.035-6.055c-13.196-1.901-25.435 7.255-27.337 20.452-1.902 13.2 7.258 25.435 20.452 27.335l42.034 6.055c13.196 1.901 25.435-7.255 27.337-20.452.438-3.033.29-6.013-.355-8.831z"/></g><ellipse cx="122.448" cy="116.514" fill="#ff748f" rx="70.697" ry="74.148" transform="matrix(.707 -.707 .707 .707 -46.524 120.712)"/><path d="m76.806 321.411v33.176c0 29.089 23.581 52.67 52.67 52.67h308.92c29.089 0 52.67-23.581 52.67-52.67v-33.176z" fill="#b2b0bc"/><circle cx="283.936" cy="364.334" fill="#5c586f" r="17.517"/><path d="m343.727 451.573h-119.582c-12.544 0-22.714 10.169-22.714 22.714 0 12.544 10.169 22.714 22.714 22.714h119.582c12.544 0 22.714-10.169 22.714-22.714 0-12.545-10.169-22.714-22.714-22.714z" fill="#b2b0bc"/><path d="m108.155 321.412h-31.349v33.176c0 29.089 23.581 52.67 52.67 52.67h7.666c-12.747-26.232-22.598-55.104-28.987-85.846z" fill="#a19dae"/><path d="m147.76 49.908c-26.333-11.047-57.125-6.443-77.743 14.175-27.609 27.609-26.516 73.464 2.44 102.421 8.967 8.967 19.556 15.255 30.72 18.853 6.543-50.206 22.16-96.359 44.583-135.449z" fill="#fd5f7e"/></g></svg>