<svg id="Capa_1" enable-background="new 0 0 497 497" height="512" viewBox="0 0 497 497" width="512" xmlns="http://www.w3.org/2000/svg"><g><path d="m217.744 51.469c-58.047-64.37-130.963-87.659-130.963 46.373v26.898h130.963z" fill="#ff748f"/><path d="m279.257 51.469c58.047-64.37 130.963-87.66 130.963 46.372v26.898h-130.963z" fill="#ff748f"/><path d="m305.097 87.75c-3.662-28.466-27.896-49.783-56.597-49.783-28.7 0-52.935 21.317-56.597 49.783l-3.702 28.775h120.596z" fill="#ff889e"/><path d="m56.807 143.443v290.274c0 34.95 28.333 63.283 63.283 63.283h256.821c34.95 0 63.283-28.333 63.283-63.283v-290.274z" fill="#90d3f1"/><path d="m86.781 269.574c0-43.793 8.89-86.822 24.756-126.131h-54.73v290.274c0 34.95 28.333 63.283 63.283 63.283h68.474c-61.829-52.042-101.783-134.54-101.783-227.426z" fill="#59c2e7"/><path d="m191.865 26.451c-51.752-42.795-105.084-43.237-105.084 71.391v26.898h32.969c18.02-37.927 42.682-71.666 72.115-98.289z" fill="#fd5f7e"/><path d="m440.193 91.862h-383.386c-21.297 0-38.562 17.265-38.562 38.562v26.038c0 21.297 17.265 38.562 38.562 38.562h383.386c21.297 0 38.562-17.265 38.562-38.562v-26.038c0-21.297-17.265-38.562-38.562-38.562z" fill="#5c84d9"/><g fill="#ff9db0"><ellipse cx="163.981" cy="156.025" rx="31.186" ry="24.835"/><ellipse cx="333.019" cy="156.025" rx="31.186" ry="24.835"/></g><g><path d="m196.999 136.5c-4.143 0-7.5-3.358-7.5-7.5 0-4.049-3.294-7.344-7.344-7.344s-7.344 3.294-7.344 7.344c0 4.142-3.357 7.5-7.5 7.5s-7.5-3.358-7.5-7.5c0-12.32 10.023-22.344 22.344-22.344s22.344 10.024 22.344 22.344c0 4.142-3.357 7.5-7.5 7.5z" fill="#423e4f"/></g><g><path d="m329.688 136.5c-4.143 0-7.5-3.358-7.5-7.5 0-4.049-3.294-7.344-7.344-7.344s-7.344 3.295-7.344 7.344c0 4.142-3.357 7.5-7.5 7.5s-7.5-3.358-7.5-7.5c0-12.32 10.023-22.344 22.344-22.344s22.344 10.024 22.344 22.344c0 4.142-3.357 7.5-7.5 7.5z" fill="#423e4f"/></g><g><path d="m248.5 161.023c-8.201 0-16.002-3.552-21.399-9.745-2.722-3.123-2.397-7.86.726-10.582 3.122-2.721 7.86-2.397 10.581.726 2.549 2.924 6.228 4.601 10.093 4.601s7.543-1.677 10.091-4.601c2.72-3.123 7.458-3.448 10.582-.727 3.122 2.721 3.448 7.459.727 10.582-5.399 6.193-13.198 9.746-21.401 9.746z" fill="#423e4f"/></g><path d="m379.118 225.793c-14.595-.081-29.048 5.549-39.719 16.22l-18.363 18.363 22.733 22.733 18.363-18.363c4.511-4.51 10.627-6.881 16.795-6.831 6.268.052 11.929-3.758 14.498-9.476 4.717-10.494-2.802-22.582-14.307-22.646z" fill="#5c84d9"/><path d="m341.416 308.19 17.864-17.864c5.762-5.762 6.323-14.914 1.321-21.347-7.387-9.501-15.937-18.051-25.434-25.435-6.433-5.002-15.584-4.441-21.346 1.321l-17.865 17.865z" fill="#423e4f"/><path d="m353.226 356.832c0 58.492-47.421 105.913-105.913 105.913-17.532 0-34.068-4.254-48.632-11.81-19.461-10.074-35.397-26.009-45.471-45.471-7.555-14.564-11.81-31.1-11.81-48.632 0-58.492 47.421-105.913 105.913-105.913 17.532 0 34.079 4.265 48.643 11.81 19.451 10.074 35.386 26.009 45.46 45.46 7.544 14.564 11.81 31.111 11.81 48.643z" fill="#5c586f"/><g fill="#423e4f"><path d="m247.313 355.995c-7.569 0-14.769 3.278-19.75 8.994-2.721 3.123-2.396 7.86.727 10.582 3.121 2.721 7.859 2.396 10.582-.727 2.132-2.446 5.209-3.849 8.441-3.849s6.31 1.403 8.441 3.849c1.483 1.702 3.564 2.572 5.657 2.572 1.748 0 3.504-.607 4.925-1.846 3.123-2.722 3.447-7.459.727-10.582-4.981-5.715-12.181-8.993-19.75-8.993z"/><path d="m205.912 342.633-20.603-5.521c-4.002-1.072-8.114 1.303-9.186 5.304s1.302 8.113 5.303 9.186l5.039 1.35c-.071.415-.116.839-.116 1.274v8.875c0 4.142 3.357 7.5 7.5 7.5s7.5-3.358 7.5-7.5v-6.162l.68.182c.65.174 1.304.257 1.946.257 3.312 0 6.342-2.21 7.239-5.561 1.073-3.999-1.301-8.112-5.302-9.184z"/><path d="m318.502 342.416c-1.071-4.001-5.184-6.376-9.186-5.304l-20.603 5.521c-4.001 1.072-6.375 5.185-5.303 9.186.897 3.351 3.928 5.561 7.239 5.561.643 0 1.296-.083 1.946-.257l.68-.182v6.162c0 4.142 3.357 7.5 7.5 7.5s7.5-3.358 7.5-7.5v-8.875c0-.436-.045-.859-.116-1.274l5.039-1.35c4.003-1.074 6.377-5.187 5.304-9.188z"/></g><path d="m137.663 91.862h-80.856c-21.297 0-38.562 17.265-38.562 38.562v26.038c0 21.297 17.265 38.562 38.562 38.562h38.512c8.492-36.989 23.031-72.058 42.344-103.162z" fill="#4677d4"/></g></svg>