<svg id="Capa_1" enable-background="new 0 0 497 497" height="512" viewBox="0 0 497 497" width="512" xmlns="http://www.w3.org/2000/svg"><g><path d="m153.657 457.264-32.091 39.736h-63.142c0-15.43 2.842-28.589 7.325-39.736l47.186-27.879z" fill="#90d3f1"/><path d="m160.121 449.258-6.464 8.005h-87.909c16.991-42.178 57.588-55.757 57.588-55.757z" fill="#4677d4"/><path d="m343.343 457.264 32.091 39.736h63.142c0-15.43-2.842-28.589-7.325-39.736l-47.186-27.879z" fill="#90d3f1"/><path d="m336.879 449.258 6.464 8.005h87.908c-16.991-42.178-57.588-55.757-57.588-55.757z" fill="#5c84d9"/><path d="m46.592 47.563h41.59v187.277h-41.59z" fill="#4677d4"/><path d="m408.817 47.563h41.59v187.277h-41.59z" fill="#5c84d9" transform="matrix(-1 0 0 -1 859.225 282.403)"/><g fill="#90d3f1"><path d="m403.593 134.429-155.093 25.042-155.093-25.042c18.022-68.816 80.633-119.579 155.093-119.579s137.071 50.763 155.093 119.579z"/><circle cx="89.324" cy="234.84" r="58.885"/><circle cx="407.676" cy="234.84" r="58.885"/></g><path d="m188.852 26.317c-46.688 18.727-82.525 58.779-95.445 108.112l44.766 7.228c10.076-43.937 27.657-83.316 50.679-115.34z" fill="#59c2e7"/><path d="m408.816 175.166v83.776c0 44.269-17.942 84.346-46.961 113.365-29.009 29.009-69.086 46.951-113.355 46.951-88.539 0-160.316-71.778-160.316-160.316v-83.776c0-14.079 1.811-27.728 5.223-40.737h310.186c3.412 13.009 5.223 26.658 5.223 40.737z" fill="#a19dae"/><circle cx="67.388" cy="33.169" fill="#90d3f1" r="33.169"/><circle cx="429.612" cy="33.169" fill="#90d3f1" r="33.169"/><path d="m279.503 234.557h-62.006c-15.54 0-28.138 12.598-28.138 28.138 0 15.54 12.598 28.138 28.138 28.138h62.006c15.54 0 28.138-12.598 28.138-28.138 0-15.54-12.598-28.138-28.138-28.138z" fill="#90d3f1"/><g><path d="m221.466 234.557h15v56.277h-15z" fill="#59c2e7"/></g><g><path d="m260.534 234.557h15v56.277h-15z" fill="#59c2e7"/></g><g><g><path d="m157.207 238.686c-4.143 0-7.5-3.358-7.5-7.5v-19.836c0-4.142 3.357-7.5 7.5-7.5s7.5 3.358 7.5 7.5v19.837c0 4.142-3.358 7.499-7.5 7.499z" fill="#423e4f"/></g><g><path d="m339.793 238.686c-4.143 0-7.5-3.358-7.5-7.5v-19.836c0-4.142 3.357-7.5 7.5-7.5s7.5 3.358 7.5 7.5v19.837c0 4.142-3.358 7.499-7.5 7.499z" fill="#423e4f"/></g></g><path d="m128.563 227.839c0-32.703 3.999-64.123 11.348-93.41h-46.504c-3.412 13.009-5.223 26.658-5.223 40.737v83.776c0 59.852 32.805 112.037 81.411 139.575-25.78-47.721-41.032-106.757-41.032-170.678z" fill="#938ea3"/><path d="m329.342 368.084h-161.685c-25.459 0-46.097 20.638-46.097 46.097v82.815h253.878v-82.815c.001-25.459-20.637-46.097-46.096-46.097z" fill="#b2b0bc"/><circle cx="248.5" cy="424.262" fill="#fff" r="22.75"/><path d="m155.857 369.615c-19.74 5.213-34.297 23.187-34.297 44.566v82.815h143.34c-46.325-23.706-84.887-69.197-109.043-127.381z" fill="#a19dae"/></g></svg>