<svg id="Capa_1" enable-background="new 0 0 497 497" height="512" viewBox="0 0 497 497" width="512" xmlns="http://www.w3.org/2000/svg"><g><path d="m287.49 168.475-121.992-36.747-121.991 36.747c-24.028 0-43.507 19.479-43.507 43.508v69.904c0 24.029 19.479 43.508 43.507 43.508l121.992 36.747 121.992-36.747c24.029 0 43.507-19.479 43.507-43.508v-69.904c0-24.029-19.479-43.508-43.508-43.508z" fill="#6a647f"/><path d="m287.49 11.557h-243.983c-24.028 0-43.507 19.479-43.507 43.507v69.904c0 24.028 19.479 43.507 43.507 43.507h243.983c24.029 0 43.507-19.479 43.507-43.507v-69.904c.001-24.028-19.478-43.507-43.507-43.507z" fill="#5c586f"/><path d="m287.49 325.394h-243.983c-24.028 0-43.507 19.479-43.507 43.508v69.904c0 24.029 19.479 43.508 43.507 43.508h243.983c24.029 0 43.507-19.479 43.507-43.508v-69.904c.001-24.029-19.478-43.508-43.507-43.508z" fill="#5c586f"/><g><g><path d="m88.247 254.487c-4.142 0-7.5-3.358-7.5-7.5v-14.845c0-4.142 3.358-7.5 7.5-7.5s7.5 3.358 7.5 7.5v14.845c0 4.142-3.358 7.5-7.5 7.5z" fill="#423e4f"/></g><g><path d="m242.751 254.487c-4.142 0-7.5-3.358-7.5-7.5v-14.845c0-4.142 3.358-7.5 7.5-7.5s7.5 3.358 7.5 7.5v14.845c0 4.142-3.358 7.5-7.5 7.5z" fill="#423e4f"/></g><g><path d="m165.499 263.324c-9.973 0-19.458-4.32-26.021-11.851-2.721-3.123-2.396-7.86.727-10.582 3.123-2.721 7.861-2.396 10.582.727 3.714 4.262 9.077 6.706 14.713 6.706s10.999-2.444 14.713-6.706c2.721-3.123 7.46-3.448 10.582-.726 3.123 2.721 3.448 7.459.726 10.582-6.565 7.53-16.049 11.85-26.022 11.85z" fill="#423e4f"/></g></g><g fill="#90d3f1"><circle cx="126.965" cy="90.016" r="18.167"/><circle cx="190.412" cy="90.016" r="18.167"/><circle cx="126.965" cy="403.854" r="18.167"/><circle cx="190.412" cy="403.854" r="18.167"/><path d="m373.157 481.415c94.035-40.395 117.763-125.779 123.609-172.062 2.051-16.239-9.614-31.107-25.894-32.803-49.994-5.208-79.888-24.152-96.977-40.894-11.28-11.05-29.408-11.05-40.687 0-17.089 16.742-46.983 35.686-96.977 40.894-16.28 1.696-27.945 16.564-25.894 32.803 5.846 46.284 29.574 131.667 123.609 172.062 12.504 5.371 26.706 5.371 39.211 0z"/></g><path d="m353.551 441.318c-.763 0-1.5-.15-2.189-.447-32.275-13.864-57.17-35.8-73.994-65.197-11.439-19.989-17.596-40.573-20.903-57.325 45.654-7.472 76.838-25.1 97.087-41.728 20.248 16.63 51.432 34.256 97.085 41.728-3.307 16.751-9.463 37.335-20.903 57.325-16.824 29.397-41.719 51.333-73.994 65.197-.689.296-1.426.446-2.189.447z" fill="#6a647f"/><path d="m39.132 325.613c-21.974 2.195-39.132 20.737-39.132 43.289v69.904c0 24.029 19.479 43.508 43.507 43.508h65.401c-33.987-43.671-58.491-97.335-69.776-156.701z" fill="#4f4c5f"/><path d="m32.171 251.184c0-28.471 2.983-56.14 8.607-82.615-22.756 1.41-40.778 20.303-40.778 43.414v69.904c0 22.522 17.113 41.047 39.046 43.281-4.503-23.838-6.875-48.592-6.875-73.984z" fill="#5c586f"/><path d="m115.746 11.557h-72.239c-24.028 0-43.507 19.478-43.507 43.507v69.904c0 23.125 18.044 42.026 40.818 43.417 12.759-59.915 39.05-113.705 74.928-156.828z" fill="#4f4c5f"/><circle cx="63.518" cy="90.016" fill="#90d3f1" r="18.167"/><circle cx="63.518" cy="403.854" fill="#90d3f1" r="18.167"/></g></svg>