<svg id="Capa_1" enable-background="new 0 0 497 497" height="512" viewBox="0 0 497 497" width="512" xmlns="http://www.w3.org/2000/svg"><g><path d="m483.46 91.52v16.55l-234.96 36.831-234.96-36.831v-16.55c0-50.55 40.97-91.52 91.51-91.52h286.9c50.54 0 91.51 40.97 91.51 91.52z" fill="#5c84d9"/><path d="m151.498 0h-46.448c-50.54 0-91.51 40.97-91.51 91.52v16.55l59.633 9.348c18.981-46.211 45.849-86.32 78.325-117.418z" fill="#4677d4"/><path d="m483.46 108.07v297.41c0 50.55-40.97 91.52-91.51 91.52h-286.9c-50.54 0-91.51-40.97-91.51-91.52v-297.41z" fill="#e0e0e0"/><path d="m385.026 168.53h-273.052c-28.545 0-51.686 23.141-51.686 51.686 0 28.545 23.141 51.686 51.686 51.686h273.052c28.545 0 51.686-23.141 51.686-51.686 0-28.546-23.14-51.686-51.686-51.686z" fill="#5c84d9"/><path d="m385.026 317.535h-273.052c-28.545 0-51.686 23.141-51.686 51.686 0 28.545 23.141 51.686 51.686 51.686h273.052c28.545 0 51.686-23.141 51.686-51.686 0-28.545-23.14-51.686-51.686-51.686z" fill="#5c84d9"/><g fill="#423e4f"><path d="m150.595 65.342c4.143 0 7.5-3.357 7.5-7.5v-18.813c0-4.142-3.357-7.5-7.5-7.5-4.142 0-7.5 3.358-7.5 7.5v18.813c0 4.142 3.358 7.5 7.5 7.5z"/><path d="m346.405 65.342c4.143 0 7.5-3.357 7.5-7.5v-18.813c0-4.142-3.357-7.5-7.5-7.5s-7.5 3.358-7.5 7.5v18.813c0 4.142 3.358 7.5 7.5 7.5z"/><path d="m279.967 62.21c2.722-3.123 2.396-7.86-.727-10.582s-7.859-2.396-10.582.727c-5.088 5.838-12.436 9.187-20.158 9.187s-15.07-3.348-20.158-9.187c-2.723-3.123-7.46-3.448-10.582-.727-3.122 2.722-3.448 7.459-.727 10.582 7.938 9.107 19.407 14.331 31.467 14.331s23.529-5.224 31.467-14.331z"/><path d="m264.521 195.032v50.835c0 4.143 3.357 7.5 7.5 7.5h21.42c4.143 0 7.5-3.357 7.5-7.5 0-4.142-3.357-7.5-7.5-7.5h-13.92v-10.417h12.341c4.143 0 7.5-3.358 7.5-7.5 0-4.143-3.357-7.5-7.5-7.5h-12.341v-10.418h13.92c4.143 0 7.5-3.357 7.5-7.5 0-4.142-3.357-7.5-7.5-7.5h-21.42c-4.143 0-7.5 3.359-7.5 7.5z"/><path d="m226.496 213.583c-6.114-2.255-11.819-4.708-13.763-5.556-1.453-1.298-1.074-4.383 2.556-5.477 6.643-1.999 12.905 2.897 13.118 3.066 3.171 2.623 7.868 2.202 10.521-.953 2.665-3.171 2.256-7.902-.915-10.567-.503-.422-12.48-10.299-27.051-5.908-15.972 4.811-18.722 24.424-6.083 32.662 1.885 1.232 14.284 6.016 16.425 6.806 1.555.574 6.584 2.684 6.033 5.773-.425 2.375-3.563 4.937-7.893 4.937-4.797 0-9.403-1.922-12.32-5.141-2.782-3.07-7.525-3.302-10.594-.521-3.069 2.782-3.303 7.525-.521 10.594 5.799 6.399 14.341 10.068 23.436 10.068 24.032.001 33.458-30.042 7.051-39.783z"/><path d="m171.544 187.064c-4.143 0-7.5 3.358-7.5 7.5v35.265c0 2.279-.658 4.941-5.543 7.401-3.033 1.527-7.331 1.649-10.519-.388-3.819-2.44-4.586-4.479-4.586-6.977v-35.302c0-4.142-3.358-7.5-7.5-7.5s-7.5 3.358-7.5 7.5v35.302c0 8.137 3.873 14.737 11.511 19.617 15.925 10.173 39.138-.761 39.138-19.654v-35.265c-.001-4.141-3.358-7.499-7.501-7.499z"/><path d="m340.867 245.867v-11.642l14.607 16.597c2.739 3.113 7.479 3.408 10.585.675 3.109-2.737 3.411-7.476.675-10.585l-11.965-13.594c8.079-3.015 13.835-10.573 13.835-19.42 0-11.488-9.685-20.833-21.588-20.833-7.857 0-5.744 0-13.649 0-4.143 0-7.5 3.358-7.5 7.5v51.303c0 4.143 3.357 7.5 7.5 7.5s7.5-3.358 7.5-7.501zm6.15-43.803c3.571 0 6.588 2.671 6.588 5.833s-3.017 5.833-6.588 5.833c-1.447 0-3.766.009-6.08.02-.028-5.814-.012-4.41-.03-11.686z"/></g><path d="m163.663 354.015c-2.07-3.588-6.659-4.816-10.245-2.745l-8.593 4.961v-9.923c0-4.142-3.358-7.5-7.5-7.5s-7.5 3.358-7.5 7.5v9.923l-8.593-4.961c-3.588-2.072-8.174-.842-10.245 2.745s-.842 8.174 2.745 10.245l8.593 4.961-8.593 4.961c-6.614 3.818-3.908 13.996 3.757 13.996 3.282 0 4.439-1.708 12.336-5.967v9.922c0 4.143 3.358 7.5 7.5 7.5s7.5-3.357 7.5-7.5v-9.922c7.802 4.208 9.05 5.967 12.336 5.967 7.655 0 10.382-10.171 3.757-13.996l-8.593-4.961 8.593-4.961c3.587-2.072 4.816-6.658 2.745-10.245z" fill="#fff"/><path d="m237.779 354.015c-2.072-3.588-6.659-4.816-10.245-2.745l-8.593 4.961v-9.922c0-4.142-3.357-7.5-7.5-7.5s-7.5 3.358-7.5 7.5v9.922l-8.593-4.961c-3.589-2.072-8.175-.842-10.245 2.745-2.071 3.587-.842 8.174 2.745 10.245l8.593 4.961-8.593 4.961c-3.587 2.071-4.816 6.658-2.745 10.245 2.082 3.605 6.675 4.806 10.245 2.745l8.593-4.961v9.922c0 4.143 3.357 7.5 7.5 7.5s7.5-3.357 7.5-7.5v-9.922l8.593 4.961c3.581 2.066 8.17.849 10.245-2.745 2.071-3.587.842-8.174-2.745-10.245l-8.593-4.961 8.593-4.961c3.587-2.072 4.817-6.658 2.745-10.245z" fill="#fff"/><path d="m311.897 354.015c-2.07-3.588-6.66-4.816-10.245-2.745l-8.593 4.961v-9.922c0-4.142-3.357-7.5-7.5-7.5s-7.5 3.358-7.5 7.5v9.923l-8.594-4.961c-3.589-2.072-8.176-.842-10.245 2.745-2.071 3.587-.842 8.174 2.745 10.245l8.593 4.961-8.593 4.961c-6.628 3.827-3.893 13.996 3.757 13.996 3.288 0 4.566-1.776 12.337-5.968v9.923c0 4.143 3.357 7.5 7.5 7.5s7.5-3.357 7.5-7.5v-9.922c7.802 4.208 9.05 5.967 12.336 5.967 7.655 0 10.382-10.171 3.757-13.996l-8.593-4.961 8.593-4.961c3.586-2.073 4.816-6.659 2.745-10.246z" fill="#fff"/><path d="m383.269 374.183-8.593-4.961 8.593-4.961c3.587-2.071 4.816-6.658 2.745-10.245-2.07-3.588-6.659-4.816-10.245-2.745l-8.593 4.961v-9.922c0-4.142-3.357-7.5-7.5-7.5s-7.5 3.358-7.5 7.5v9.923l-8.594-4.961c-3.589-2.072-8.175-.842-10.245 2.745-2.071 3.587-.842 8.174 2.745 10.245l8.593 4.961-8.593 4.961c-3.587 2.071-4.816 6.658-2.745 10.245 2.08 3.605 6.675 4.806 10.245 2.745l8.594-4.962v9.923c0 4.143 3.357 7.5 7.5 7.5s7.5-3.357 7.5-7.5v-9.922l8.593 4.961c3.581 2.066 8.17.849 10.245-2.745 2.071-3.589.842-8.176-2.745-10.246z" fill="#fff"/><path d="m42.108 278.994c0-62.106 12.735-120.418 35.05-170.924h-63.618v297.41c0 49.559 39.381 89.905 88.551 91.467-37.531-59.696-59.983-135.479-59.983-217.953z" fill="#d2d2d0"/></g></svg>