<svg id="Capa_1" enable-background="new 0 0 497 497" height="512" viewBox="0 0 497 497" width="512" xmlns="http://www.w3.org/2000/svg"><g><path d="m310.521 78.41-35.651-78.41h-213.861c-29.323 0-53.094 23.771-53.094 53.094v342.338c0 29.323 23.771 53.094 53.094 53.094h325.125v-337.26z" fill="#90d3f1"/><path d="m88.163 242.62c0-102.909 45.944-192.998 114.669-242.62h-141.823c-29.323 0-53.094 23.771-53.094 53.093v342.338c0 29.323 23.771 53.094 53.094 53.094h101.447c-45.744-51.647-74.293-124.791-74.293-205.905z" fill="#59c2e7"/><path d="m274.87 0v80.031c0 17.25 13.984 31.234 31.234 31.234h80.031z" fill="#59c2e7"/><g><path d="m441.767 379.787c-10.283 0-18.619-8.336-18.619-18.619v-55.462c0-20.709-16.848-37.557-37.557-37.557s-37.558 16.849-37.558 37.557v55.462c0 10.283-8.336 18.619-18.619 18.619s-18.619-8.336-18.619-18.619v-55.462c0-41.242 33.553-74.794 74.795-74.794s74.794 33.552 74.794 74.794v55.462c.002 10.283-8.334 18.619-18.617 18.619z" fill="#5c84d9"/></g><g><path d="m438.39 332.879h-105.598c-27.998 0-50.695 22.697-50.695 50.695v62.732c0 27.998 22.697 50.695 50.695 50.695h105.598c27.998 0 50.695-22.697 50.695-50.695v-62.732c0-27.998-22.697-50.695-50.695-50.695z" fill="#59c2e7"/></g><path d="m402.486 409.571v-12.45c0-9.03-7.321-16.351-16.351-16.351s-16.351 7.321-16.351 16.351v12.449c-7.612 5.218-12.609 13.974-12.609 23.901 0 15.994 12.966 28.96 28.96 28.96s28.96-12.966 28.96-28.96c-.001-9.926-4.997-18.682-12.609-23.9z" fill="#5c84d9"/><path d="m191.84 376.049h-79.971l-41.526-41.857c13.15-36.013 39.768-52.473 39.768-52.473h83.486s26.63 16.46 39.768 52.473z" fill="#5c84d9"/><path d="m92.585 297.223c-7.71 8.567-16.334 20.788-22.242 36.969l41.526 41.857h4.206c-10.914-24.364-18.916-50.861-23.49-78.826z" fill="#4677d4"/><path d="m111.869 334.192v41.857h-48.706c0-16.129 2.865-30.043 7.18-41.857z" fill="#fff"/><path d="m100.85 334.192h-30.507c-4.315 11.814-7.18 25.728-7.18 41.857h48.706v-9.893c-4.195-10.321-7.881-20.99-11.019-31.964z" fill="#e0e0e0"/><path d="m240.557 376.049h-48.717v-41.857h41.526c4.326 11.814 7.191 25.728 7.191 41.857z" fill="#fff"/><circle cx="151.857" cy="196.299" fill="#fff" r="95.057"/><g><g><ellipse cx="151.857" cy="251.177" fill="#5c84d9" rx="6.612" ry="6.612" transform="matrix(.973 -.23 .23 .973 -53.647 41.609)"/></g><g><g><path d="m151.856 236.969c-4.143 0-7.5-3.358-7.5-7.5v-29.07c0-4.142 3.357-7.5 7.5-7.5 5.618 0 10.847-2.248 14.722-6.329 3.871-4.078 5.843-9.427 5.55-15.061-.547-10.557-9.266-18.993-19.849-19.206-10.301-.209-19.108 7.297-20.526 17.455-.13.935-.196 1.891-.196 2.841 0 4.142-3.357 7.5-7.5 7.5s-7.5-3.358-7.5-7.5c0-1.641.114-3.294.341-4.914 2.467-17.679 17.773-30.747 35.685-30.379 18.407.371 33.573 15.053 34.526 33.426.508 9.782-2.92 19.075-9.652 26.166-4.891 5.151-11.242 8.683-18.1 10.186v22.385c-.001 4.142-3.358 7.5-7.501 7.5z" fill="#5c84d9"/></g></g></g><path d="m88.163 242.62c0-48.728 10.304-94.58 28.446-134.625-35.047 14.002-59.81 48.259-59.81 88.303 0 28.445 12.498 53.968 32.298 71.389-.605-8.261-.934-16.617-.934-25.067z" fill="#e0e0e0"/></g></svg>