<svg id="Capa_1" enable-background="new 0 0 497 497" height="512" viewBox="0 0 497 497" width="512" xmlns="http://www.w3.org/2000/svg"><g><path d="m308.875 259.73-119.277-216.833c-6.583-11.966-19.157-19.401-32.815-19.401-13.657 0-26.232 7.434-32.815 19.401l-119.277 216.833c-13.73 24.96 4.327 55.503 32.815 55.503h238.555c28.487 0 46.545-30.543 32.814-55.503z" fill="#ff748f"/><path d="m82.235 120.837c0-.709.02-1.414.027-2.122l-77.571 141.015c-13.73 24.96 4.327 55.503 32.815 55.503h166.841c-72.257-34.852-122.112-108.802-122.112-194.396z" fill="#fd5f7e"/><path d="m248.624 243.846-76.321-138.743c-6.73-12.234-24.31-12.234-31.04 0l-76.321 138.743c-6.494 11.805 2.047 26.251 15.52 26.251h152.642c13.473 0 22.014-14.446 15.52-26.251z" fill="#fff"/><path d="m164.771 239.232c0 4.411-3.576 7.988-7.988 7.988s-7.987-3.576-7.987-7.988 3.576-7.988 7.987-7.988 7.988 3.577 7.988 7.988z" fill="#423e4f"/><g><g><g><path d="m156.857 222.161c-4.142 0-7.5-3.358-7.5-7.5v-64.85c0-4.142 3.358-7.5 7.5-7.5s7.5 3.358 7.5 7.5v64.85c0 4.142-3.358 7.5-7.5 7.5z" fill="#423e4f"/></g></g></g><g><path d="m331.678 303.831h-47.228v-85.662c0-52.672 42.851-95.523 95.523-95.523s95.524 42.851 95.524 95.523h-47.228c0-26.63-21.665-48.295-48.296-48.295-26.629 0-48.295 21.665-48.295 48.295z" fill="#5c586f"/></g><path d="m331.678 232.252h-13.406c-12.012 0-23.445 2.508-33.822 7.006v64.573h47.228z" fill="#4f4c5f"/><path d="m441.674 262.252h-123.402c-30.556 0-55.326 24.77-55.326 55.326v100.6c0 30.556 24.77 55.326 55.326 55.326h123.402c30.556 0 55.326-24.77 55.326-55.326v-100.6c0-30.556-24.77-55.326-55.326-55.326z" fill="#5c84d9"/><g><ellipse cx="379.973" cy="375.934" fill="#423e4f" rx="15.982" ry="17.884"/></g><g><path d="m303.408 372.923c-4.142 0-7.5-3.358-7.5-7.5v-11.678c0-4.142 3.358-7.5 7.5-7.5s7.5 3.358 7.5 7.5v11.678c0 4.142-3.357 7.5-7.5 7.5z" fill="#423e4f"/></g><g><path d="m456.537 372.923c-4.142 0-7.5-3.358-7.5-7.5v-11.678c0-4.142 3.358-7.5 7.5-7.5s7.5 3.358 7.5 7.5v11.678c0 4.142-3.358 7.5-7.5 7.5z" fill="#423e4f"/></g><path d="m93.952 191.109-29.01 52.737c-6.494 11.805 2.047 26.251 15.52 26.251h61.762c-21.371-22.29-37.998-49.159-48.272-78.988z" fill="#e0e0e0"/></g></svg>