<svg id="Capa_1" enable-background="new 0 0 497 497" height="512" viewBox="0 0 497 497" width="512" xmlns="http://www.w3.org/2000/svg"><g><path d="m497 89.92v27.9l-248.5 30.463-248.5-30.463v-27.9c0-49.66 40.26-89.92 89.92-89.92h317.16c49.66 0 89.92 40.26 89.92 89.92z" fill="#5c84d9"/><path d="m120.572 0h-30.652c-49.66 0-89.92 40.26-89.92 89.92v27.9l69.765 8.552c11.727-45.182 28.963-87.644 50.807-126.372z" fill="#4677d4"/><path d="m497 117.82v289.26c0 49.66-40.26 89.92-89.92 89.92h-317.16c-49.66 0-89.92-40.26-89.92-89.92v-289.26z" fill="#e0e0e0"/><circle cx="100.556" cy="58.91" fill="#ff748f" r="18.503"/><circle cx="172.727" cy="58.91" fill="#90d3f1" r="18.503"/><circle cx="244.898" cy="58.91" fill="#fff" r="18.503"/><path d="m385.745 277.523-.088-.139c-5.007-7.915-7.946-16.96-8.545-26.307l-.009-.134c-1.385-21.572-15.082-40.412-35.174-48.382l-.082-.033c-8.739-3.466-16.463-9.081-22.456-16.324l-.011-.013c-13.804-16.682-36.001-23.892-56.974-18.506-9.122 2.343-18.689 2.343-27.811 0h-.001c-20.973-5.386-43.169 1.824-56.974 18.506l-.01.013c-5.994 7.243-13.717 12.858-22.456 16.324l-.082.033c-20.093 7.97-33.79 26.81-35.174 48.382l-.009.134c-.6 9.346-3.538 18.392-8.545 26.307l-.088.138c-11.547 18.252-11.547 41.522 0 59.774l.088.139c5.007 7.915 7.946 16.96 8.545 26.307l.009.134c1.385 21.571 15.081 40.412 35.174 48.382l.082.033c8.739 3.467 16.462 9.081 22.456 16.324l.011.013c13.804 16.682 36.001 23.892 56.974 18.506 9.122-2.343 18.689-2.343 27.811 0h.001c20.973 5.386 43.169-1.824 56.974-18.506l.01-.013c5.994-7.243 13.717-12.858 22.456-16.325l.082-.033c20.093-7.97 33.79-26.81 35.174-48.382l.009-.134c.6-9.346 3.538-18.392 8.545-26.307l.088-.138c11.547-18.251 11.547-41.521 0-59.773z" fill="#90d3f1"/><g fill="#34b5e1"><path d="m256.852 232.716-.033-.122c-2.783-10.267-10.434-18.511-20.465-22.052l-1.717-.606c-8.292-2.926-17.417-2.353-25.277 1.588l-5.286 2.65c-9.318 4.672-15.815 13.546-17.455 23.84-2.395 15.035 6.013 29.706 20.195 35.24l3.979 1.553c12.672 4.945 27.084 1.439 36.067-8.776l3.057-3.475c7.171-8.152 9.776-19.359 6.935-29.84z"/><path d="m198.965 325.215-3.053-10.039c-2.525-8.305-9.732-14.325-18.354-15.332l-3.516-.411c-8.768-1.024-17.29 3.333-21.593 11.041l-1.582 2.834c-4.894 8.765-3.179 19.738 4.156 26.592l8.15 7.616c5.359 5.007 12.873 6.989 20.005 5.276 12.22-2.935 19.443-15.554 15.787-27.577z"/><path d="m286.34 376.132c-1.338-8.177-5.916-15.47-12.699-20.229l-.278-.195c-9.17-6.435-21.113-7.38-31.181-2.468l-5.956 2.906c-5.593 2.729-10.228 7.088-13.294 12.504l-.061.107c-7.61 13.445-4.077 30.448 8.26 39.748l.781.589c10.133 7.638 23.914 8.277 34.71 1.609l5.515-3.406c10.608-6.553 16.216-18.859 14.203-31.165z"/><path d="m330.377 271.934-12.499-5.115c-7.95-3.253-17.058-1.714-23.497 3.972-6.772 5.979-9.329 15.42-6.499 23.999l1.862 5.645c2.649 8.032 9.564 13.91 17.917 15.231l10.131 1.602c11.661 1.844 22.775-5.606 25.499-17.094l.506-2.133c2.565-10.819-3.128-21.896-13.42-26.107z"/></g><path d="m51.987 267.024c0-52.013 7.042-102.139 20.081-149.204h-72.068v289.26c0 49.66 40.26 89.92 89.92 89.92h11.696c-31.684-68.647-49.629-146.909-49.629-229.976z" fill="#d2d2d0"/></g></svg>