<svg id="Capa_1" enable-background="new 0 0 497 497" height="512" viewBox="0 0 497 497" width="512" xmlns="http://www.w3.org/2000/svg"><g><g><path d="m308.827 140.425c-5.492-5.492-5.492-14.396 0-19.887 42.136-42.136 29.592-102.891 29.46-103.5-1.641-7.591 3.182-15.075 10.773-16.717s15.075 3.181 16.717 10.773c.67 3.098 15.796 76.473-37.063 129.331-5.492 5.492-14.396 5.492-19.887 0z" fill="#5c84d9"/></g><g><path d="m356.575 188.173c5.492 5.492 14.396 5.492 19.887 0 42.136-42.136 102.891-29.592 103.5-29.46 7.591 1.641 15.075-3.182 16.717-10.773s-3.181-15.075-10.773-16.717c-3.098-.67-76.473-15.796-129.331 37.063-5.492 5.492-5.492 14.396 0 19.887z" fill="#5c84d9"/></g><g><path d="m234.859 126.177c-6.939-27.968-4.626-58.007 6.513-84.582 5.004-11.938 18.737-17.56 30.675-12.556 11.939 5.005 17.559 18.738 12.556 30.675-7.266 17.336-8.775 36.931-4.248 55.176 3.117 12.563-4.541 25.275-17.104 28.391-12.566 3.118-25.276-4.542-28.392-17.104z" fill="#5c84d9"/></g><g><path d="m370.955 262.274c27.968 6.939 58.007 4.626 84.582-6.513 11.938-5.004 17.56-18.737 12.556-30.675-5.005-11.939-18.738-17.559-30.675-12.556-17.336 7.266-36.931 8.775-55.176 4.248-12.563-3.117-25.275 4.541-28.391 17.104-3.118 12.565 4.543 25.276 17.104 28.392z" fill="#5c84d9"/></g><g><path d="m98.966 222.295c-27.968-6.939-58.007-4.626-84.582 6.513-11.938 5.004-17.56 18.737-12.556 30.675 5.005 11.939 18.738 17.559 30.675 12.556 17.336-7.266 36.931-8.775 55.176-4.248 12.563 3.117 25.275-4.541 28.391-17.104 3.118-12.566-4.542-25.276-17.104-28.392z" fill="#5c84d9"/></g><g><path d="m118.389 186.211-35.258-35.258c-9.153-9.153-9.153-23.992 0-33.146s23.993-9.153 33.146 0l35.258 35.258c9.153 9.153 9.153 23.992 0 33.146s-23.993 9.153-33.146 0z" fill="#5c84d9"/></g><g><path d="m274.705 398.034c6.939 27.968 4.626 58.007-6.513 84.582-5.004 11.938-18.737 17.56-30.675 12.556-11.939-5.005-17.559-18.738-12.556-30.675 7.266-17.336 8.775-36.931 4.248-55.176-3.117-12.563 4.541-25.275 17.104-28.391 12.566-3.118 25.276 4.542 28.392 17.104z" fill="#5c84d9"/></g><g><path d="m310.789 378.611 35.258 35.258c9.153 9.153 23.992 9.153 33.146 0s9.153-23.993 0-33.146l-35.258-35.258c-9.153-9.153-23.992-9.153-33.146 0s-9.153 23.993 0 33.146z" fill="#5c84d9"/></g><path d="m112.389 256.097-48.844 48.844c1.751 32.366 14.953 64.222 39.623 88.892 24.67 24.669 56.526 37.872 88.892 39.622l48.844-48.844z" fill="#6a647f"/><path d="m96.237 272.249-32.692 32.692c.639 11.814 2.811 23.558 6.502 34.912 5.002-21.599 13.831-44.483 26.19-67.604z" fill="#5c586f"/><path d="m187.795 105.85c-12.774 6.808-24.76 15.598-35.526 26.364l-59.046 59.046c-26.046 26.046-40.531 59.278-43.454 93.305-.948 11.064 7.537 20.636 18.628 21.292 27.856 1.658 63.467 9.254 88.433 34.167l78.847-36.524 53.543-95.866z" fill="#5c84d9"/><path d="m289.22 207.634-132.39 132.39.073.073c24.972 24.972 32.582 60.624 34.24 88.505.656 11.091 10.229 19.576 21.293 18.628 34.027-2.923 67.259-17.408 93.305-43.454l58.031-58.031c10.978-10.978 19.947-23.249 26.881-36.321z" fill="#4677d4"/><path d="m80.273 306.912c16.698-43.285 46.86-89.372 88.37-130.881 15.42-15.42 31.474-29.269 47.78-41.451l-28.628-28.729c-12.774 6.808-24.76 15.598-35.526 26.364l-59.046 59.045c-26.046 26.046-40.531 59.278-43.454 93.305-.948 11.064 7.537 20.636 18.628 21.292 3.827.228 7.804.573 11.876 1.055z" fill="#4677d4"/><path d="m364.852 132.28c-47.922-47.975-120.199-56.785-177.057-26.43-8.048 54.16 8.784 111.31 50.481 153.007 41.538 41.538 98.403 58.39 152.377 50.567 30.248-56.964 22.022-129.268-25.801-177.144z" fill="#6a647f"/><ellipse cx="343.503" cy="264.907" fill="#ff9db0" rx="23.148" ry="29.068" transform="matrix(.707 -.707 .707 .707 -86.707 320.489)"/><path d="m329.744 221.268c11.679-11.679.686-24.868-14.229-39.783s-28.103-25.909-39.783-14.229c-11.679 11.679-9.056 33.238 5.859 48.153s36.474 17.538 48.153 5.859z" fill="#fff"/><path d="m270.362 197.478c1.508 4.566 3.893 9.083 7.126 13.264l33.598-33.598c-3.789-3.625-7.463-6.854-11.025-9.365z" fill="#c4c4c4"/><path d="m286.258 219.512c4.182 3.233 8.699 5.618 13.264 7.126l29.699-29.699c-2.511-3.563-5.74-7.236-9.365-11.025z" fill="#c4c4c4"/><path d="m290.01 91.529c-34.285-7.311-70.629-2.542-102.215 14.321-2.57 17.293-2.59 34.889-.088 52.191 33.165-29.533 68.415-52.033 102.303-66.512z" fill="#5c586f"/><path d="m334.678 76.927c10.396-2.291 20.483-3.686 30.142-4.147 6.938-32.766 1.357-59.831.956-61.686-1.641-7.592-9.125-12.415-16.717-10.773-7.591 1.641-12.414 9.125-10.773 16.716.09.414 5.911 28.628-3.608 59.89z" fill="#4677d4"/><path d="m248.461 137.129c-11.352-11.352-27.882-13.226-36.922-4.186s-7.166 25.57 4.186 36.922 27.882 13.226 36.922 4.186 7.166-25.57-4.186-36.922z" fill="#ff9db0"/><g fill="#423e4f"><path d="m280.82 123.857c-2.375-3.393-7.051-4.218-10.445-1.842-3.252 2.276-4.136 6.662-2.115 10.01-3.095.877-3.807 2.816-10.51 9.167-2.93 2.929-2.93 7.678-.001 10.606 2.928 2.928 7.677 2.931 10.606 0 7.301-7.359 7.363-7.231 8.076-8.239 2.54 2.629 6.631 3.072 9.684.935 3.394-2.375 4.218-7.052 1.842-10.445z"/><path d="m373.143 216.18-10.192-7.137c-3.394-2.376-8.068-1.551-10.445 1.842-2.145 3.063-1.674 7.167.933 9.685-1.018.721-.809.706-8.237 8.074-2.93 2.929-2.93 7.678-.001 10.606 2.928 2.928 7.677 2.931 10.606 0 6.363-6.719 8.295-7.41 9.171-10.524 3.54 2.137 7.832 1.005 10.007-2.101 2.376-3.392 1.552-8.069-1.842-10.445z"/></g></g></svg>