<svg id="Capa_1" enable-background="new 0 0 497 497" height="512" viewBox="0 0 497 497" width="512" xmlns="http://www.w3.org/2000/svg"><g><path d="m83.637 194.85c0-20.252-16.224-36.715-36.384-37.1-20.803-.398-37.831 17.026-37.831 37.833v74.565c0 4.263-1.694 8.352-4.708 11.367-7.309 7.309-5.931 19.525 2.838 24.998 16.535 10.32 44.811 18.653 76.085-12.621z" fill="#4677d4"/><path d="m249.87 50.403c-13.005 11.514-15.434 30.903-5.845 45.386l13.879 20.962 159.646-48.748 10.004-43.051c-92.941-30.625-149.911.863-177.684 25.451z" fill="#5c84d9"/><path d="m496.744 97.627c-6.378-47.635-51.178-63.946-51.178-63.946l-28.017 34.322 24.984 74.341 36.442-14.331c12.227-4.808 19.512-17.363 17.769-30.386z" fill="#5c84d9"/><path d="m445.566 74.023v-40.342c0-9.292-10.719-14.486-18.012-8.729l-40.175 31.717s-76.322-26.32-147.803 61.329c-10.401 12.753-26.018 20.117-42.474 20.117h-70.002c-38.853 0-70.349 31.496-70.349 70.349v162.434l17.731 17.016 21.86-17.016 25.08-53.537c4.023-8.587 12.65-14.072 22.132-14.072h62.499c9.483 0 18.11 5.485 22.132 14.072l25.08 53.537 19.866 17.016 19.725-17.016v-136.436c7.918-35.327 42.46-48.149 42.46-48.149 0 32.264 15.29 55.184 26.145 67.391 5.738 6.452 14.761 8.879 22.995 6.279l22.558-7.122c9.981-3.151 16.308-12.895 15.253-23.308-2.256-22.29 3.211-30.253 5.23-32.383.814-.858 1.637-1.708 2.402-2.61 54.685-64.51 15.667-120.537 15.667-120.537z" fill="#90d3f1"/><path d="m213.433 183.114h-77.258c-15.033 0-27.22 12.187-27.22 27.22v25.31c0 15.033 12.187 27.22 27.22 27.22h77.258c15.033 0 27.22-12.187 27.22-27.22v-25.31c0-15.034-12.187-27.22-27.22-27.22z" fill="#5c84d9"/><ellipse cx="374.878" cy="174.42" fill="#fff" rx="22.523" ry="28.282" transform="matrix(.707 -.707 .707 .707 -13.534 316.166)"/><g><path d="m396.561 176.047c-2.929-2.929-2.929-7.677 0-10.606l8.175-8.175c2.929-2.929 7.678-2.929 10.606 0 2.929 2.929 2.929 7.677 0 10.606l-8.175 8.175c-2.928 2.929-7.677 2.929-10.606 0z" fill="#423e4f"/></g><path d="m86.279 254.336c0-41.519 10.106-80.645 27.942-115.023-32.698 6.054-57.469 34.701-57.469 69.152v162.434l17.731 17.016 21.86-17.016 9.295-19.841c-12.463-29.719-19.359-62.405-19.359-96.722z" fill="#59c2e7"/><path d="m334.72 370.899h-298.477c-16.156 0-29.252 13.097-29.252 29.252v11.706c0 16.156 13.097 29.252 29.252 29.252h298.477c16.156 0 29.252-13.097 29.252-29.252v-11.706c0-16.156-13.097-29.252-29.252-29.252z" fill="#5c84d9"/><circle cx="280.365" cy="441.281" fill="#6a647f" r="43.426"/><circle cx="280.365" cy="441.281" fill="#fff" r="15.965"/><path d="m115.024 370.899h-78.78c-16.156 0-29.252 13.097-29.252 29.252v11.706c0 16.156 13.097 29.252 29.252 29.252h133.981c-22.349-19.74-41.115-43.519-55.201-70.21z" fill="#4677d4"/><circle cx="90.598" cy="441.281" fill="#5c586f" r="43.426"/><circle cx="90.598" cy="441.281" fill="#fff" r="15.965"/></g></svg>