<svg id="Capa_1" enable-background="new 0 0 497 497" height="512" viewBox="0 0 497 497" width="512" xmlns="http://www.w3.org/2000/svg"><g><path d="m334.297 0h-250.04c-39.411 0-71.36 31.949-71.36 71.36v270.396c0 39.411 31.949 71.36 71.36 71.36h250.04c39.411 0 71.36-31.949 71.36-71.36v-270.396c0-39.411-31.949-71.36-71.36-71.36z" fill="#b2b0bc"/><path d="m45.897 130.369c0-46.006 8.633-89.669 24.106-128.941-32.58 6.604-57.106 35.403-57.106 69.932v270.397c0 39.411 31.949 71.36 71.36 71.36h118.573c-92.563-48.816-156.933-157.055-156.933-282.748z" fill="#a19dae"/><path d="m128.738 413.116v-130.205h132.539c4.143 0 7.5-3.358 7.5-7.5 0-4.143-3.357-7.5-7.5-7.5h-44.499v-122.705h188.88v-15h-100.842v-130.206h-15v130.206h-161.078v-130.206h-15v130.206h-100.841v15h188.88v122.706h-188.88v15h100.84v130.205h15.001z" fill="#e0e0e0"/><g><ellipse cx="209.277" cy="68.368" fill="#423e4f" rx="21.985" ry="24.602"/></g><g><path d="m76.844 64.792c-4.142 0-7.5-3.358-7.5-7.5v-17.154c0-4.142 3.358-7.5 7.5-7.5s7.5 3.358 7.5 7.5v17.154c0 4.143-3.358 7.5-7.5 7.5z" fill="#423e4f"/></g><g><path d="m341.711 64.792c-4.143 0-7.5-3.358-7.5-7.5v-17.154c0-4.142 3.357-7.5 7.5-7.5s7.5 3.358 7.5 7.5v17.154c0 4.143-3.358 7.5-7.5 7.5z" fill="#423e4f"/></g><path d="m457.697 286.939c-4.518-5.985-14.01-3.701-15.367 3.675-2.49 13.53-9.036 31.601-25.774 45.739 3.726-78.286-49.607-67.07-37.472-144.186 1.069-6.791-5.758-12.058-12.047-9.282-22.836 10.082-63.994 38.602-63.994 113.219-16.621-13.997-22.685-31.139-24.79-43.628-1.186-7.034-9.845-9.756-14.773-4.599-15.774 16.505-26.748 37.327-33.34 59.202-13.22 43.874-10.721 92.096 14.769 131.114 23.844 36.498 64.401 58.807 108.063 58.807 72.422 0 131.131-58.71 131.131-131.131 0-29.633-9.829-56.971-26.406-78.93z" fill="#ff748f"/><path d="m352.972 333.572c-39.035 11.03-67.852 49.549-67.852 95.381 0 .818.009 1.635.027 2.448 1.964 87.466 133.685 87.466 135.649 0 .018-.814.027-1.63.027-2.448.001-45.832-28.816-84.352-67.851-95.381z" fill="#ff9db0"/><g fill="#d2d2d0"><path d="m73.541 267.911h-60.644v15h67.486c-2.395-4.918-4.675-9.92-6.842-15z"/><path d="m45.897 130.369c0-.055.002-.108.002-.163h-33.002v15h33.311c-.199-4.918-.311-9.862-.311-14.837z"/><path d="m113.738 336.941v76.176h15v-58.146c-5.209-5.769-10.205-11.793-15-18.03z"/></g></g></svg>