<svg id="Capa_1" enable-background="new 0 0 497 497" height="512" viewBox="0 0 497 497" width="512" xmlns="http://www.w3.org/2000/svg"><g><path d="m333.276 118.19c-11.817-16.955-28.205-29.846-47.399-37.305-10.398-4.034-17.107-13.611-17.107-24.404v-56.481h-40.538v56.48c0 27.647 16.864 52.061 42.971 62.196 21.95 8.527 36.891 28.076 39.588 50.998l18.79 18.63 21.917-18.63c-1.329-18.515-7.556-36.181-18.222-51.484z" fill="#b2b0bc"/><path d="m310.79 169.674 18.79 18.63 21.917-18.63c-.742-10.354-3.02-20.442-6.746-30h-45.866c6.431 8.638 10.601 18.922 11.905 30z" fill="#a19dae"/><path d="m484.697 238.426v117.49l-236.197 31.098-236.197-31.098v-117.49c0-37.974 30.779-68.753 68.753-68.753h334.887c37.975 0 68.754 30.779 68.754 68.753z" fill="#5c84d9"/><path d="m484.697 418.112v10.135c0 37.964-30.779 68.753-68.753 68.753h-334.888c-37.974 0-68.753-30.789-68.753-68.753v-10.135l236.197-31.098z" fill="#5c84d9"/><g><ellipse cx="248.5" cy="308.695" fill="#423e4f" rx="20.063" ry="22.45"/></g><g><path d="m152.387 303c-4.142 0-7.5-3.358-7.5-7.5v-14.66c0-4.142 3.358-7.5 7.5-7.5s7.5 3.358 7.5 7.5v14.66c0 4.143-3.358 7.5-7.5 7.5z" fill="#423e4f"/></g><g><path d="m344.613 303c-4.142 0-7.5-3.358-7.5-7.5v-14.66c0-4.142 3.358-7.5 7.5-7.5s7.5 3.358 7.5 7.5v14.66c0 4.143-3.358 7.5-7.5 7.5z" fill="#423e4f"/></g><path d="m268.769 239.914c0 11.099-8.924 20.248-20.023 20.271-.072 0-.144 0-.216 0-.851 0-1.693-.01-2.554-.03-26.603-.638-51.676-11.452-70.598-30.475-.193-.182-.385-.375-.568-.568-27.657-28.225-23.816-74.449 7.915-98.012 3.425-2.544 7.996.912 6.577 4.946-2.473 7.003-3.669 14.452-3.527 22.104.304 16.124 6.821 31.367 18.333 42.94 11.513 11.574 26.725 18.151 42.839 18.536.592.015 1.182.022 1.771.021 11.111-.022 20.051 9.159 20.051 20.267z" fill="#b2b0bc"/><path d="m96.235 407.062-83.931 11.051v10.135c0 37.964 30.779 68.753 68.753 68.753h52.801c-15.321-28.442-27.974-58.533-37.623-89.939z" fill="#4677d4"/><path d="m74.206 259.693c0-30.732 2.773-60.815 8.07-90.02h-1.22c-37.974 0-68.753 30.779-68.753 68.753v117.49l73.109 9.626c-7.337-34.122-11.206-69.533-11.206-105.849z" fill="#4677d4"/><path d="m12.303 355.916h472.393v62.196h-472.393z" fill="#6a647f"/><path d="m83.442 355.916h-71.139v62.196h87.47c-6.724-20.191-12.199-40.953-16.331-62.196z" fill="#5c586f"/></g></svg>