<svg id="Capa_1" enable-background="new 0 0 497 497" height="512" viewBox="0 0 497 497" width="512" xmlns="http://www.w3.org/2000/svg"><g><path d="m219.664 497h-121.966c0-52.583 43.879-93.08 43.879-93.08-19.339-18.456-31.223-34.717-38.394-46.794-5.779-9.741 1.249-22.061 12.574-22.061h212.872z" fill="#6a647f"/><path d="m399.302 497h-179.638v-49.668c0-14.291 5.678-27.993 15.784-38.099l63.329-63.329 29.852-10.838h52.614c11.325 0 18.354 12.321 12.574 22.061-7.171 12.077-19.055 28.338-38.394 46.794.001-.001 43.879 40.496 43.879 93.079z" fill="#5c586f"/><g><path d="m152.613 497v-43.575c0-4.142 3.357-7.5 7.5-7.5s7.5 3.358 7.5 7.5v43.575z" fill="#423e4f"/></g><g><path d="m329.387 497v-43.575c0-4.142 3.357-7.5 7.5-7.5s7.5 3.358 7.5 7.5v43.575z" fill="#423e4f"/></g><path d="m399.982 234.541c0 83.661-67.821 151.482-151.482 151.482s-151.482-67.821-151.482-151.482l151.482-117.321z" fill="#ffdcce"/><path d="m367.49 65.842-118.99 21.924-118.99-21.924 10.116-30.999c6.775-20.761 26.134-34.819 47.972-34.819 4.435.414 18.607-2.172 34.341 7.557 16.271 10.075 36.85 10.076 53.122 0 15.796-9.767 29.959-7.121 34.341-7.557 21.838 0 41.197 14.057 47.972 34.819z" fill="#6a647f"/><path d="m431.246 172.288h-365.492c-11.335 0-17.166-13.56-9.365-21.777 13.082-13.773 33.061-30.817 58.82-40.821l133.291-21.924 133.291 21.924c25.758 10.005 45.737 27.048 58.82 40.821 7.801 8.217 1.971 21.777-9.365 21.777z" fill="#6a647f"/><g><path d="m287.273 208.841c-10.609-4.781-24.379-7.414-38.773-7.414-14.393 0-28.163 2.633-38.772 7.414l7.392 31.045c1.516-2.047 12.185-7.988 31.38-7.988 19.196 0 29.864 5.941 31.381 7.989z" fill="#6a647f"/></g><circle cx="342.961" cy="221.179" fill="#ff748f" r="65.626"/><circle cx="342.961" cy="221.179" fill="#fff" r="32.78"/><path d="m149.5 104.049-34.292 5.64c-25.758 10.005-45.737 27.048-58.82 40.821-7.801 8.217-1.971 21.777 9.365 21.777h69.059c1.493-23.868 6.557-46.784 14.688-68.238z" fill="#5c586f"/><path d="m135.019 205.11-38.001 29.431c0 81.952 65.081 148.694 146.378 151.387-60.909-39.461-102.621-105.209-108.377-180.818z" fill="#ffcabd"/><circle cx="154.039" cy="221.179" fill="#ff748f" r="65.626"/><path d="m134.332 187.101c0-9.837.62-19.531 1.799-29.054-27.536 7.796-47.719 33.099-47.719 63.132 0 36.244 29.382 65.626 65.626 65.626.836 0 1.665-.032 2.493-.063-14.24-30.313-22.199-64.061-22.199-99.641z" fill="#fd5f7e"/><circle cx="154.039" cy="221.179" fill="#fff" r="32.78"/><g><g><path d="m248.5 278.941c-8.578 0-16.734-3.715-22.377-10.192-2.722-3.123-2.396-7.86.728-10.582 3.123-2.721 7.86-2.395 10.581.728 2.794 3.207 6.828 5.045 11.068 5.045 4.239 0 8.273-1.839 11.068-5.046 2.722-3.123 7.458-3.447 10.582-.727 3.122 2.722 3.448 7.459.727 10.582-5.644 6.478-13.801 10.192-22.377 10.192z" fill="#423e4f"/></g></g><path d="m219.319 6.068c-14.666-7.931-27.534-5.653-31.721-6.044-21.838 0-41.197 14.057-47.972 34.819l-10.116 30.999 34.847 6.421c14.161-25.211 32.838-47.626 54.962-66.195z" fill="#5c586f"/><path d="m381.792 109.69h-266.583l14.301-43.848h237.98z" fill="#e0e0e0"/><path d="m134.474 194.877c-8.02 5.976-13.216 15.532-13.216 26.302 0 14.419 9.314 26.656 22.252 31.042-5.289-18.31-8.388-37.523-9.036-57.344z" fill="#e0e0e0"/><path d="m168.101 65.842h-38.591l-14.301 43.848h32.235c5.385-15.392 12.335-30.066 20.657-43.848z" fill="#d2d2d0"/></g></svg>