<svg id="Capa_1" enable-background="new 0 0 497 497" height="512" viewBox="0 0 497 497" width="512" xmlns="http://www.w3.org/2000/svg"><g><path d="m484.078 124.761c-1.501-13.472-11.833-24.217-25.21-26.409-101.635-16.655-160.647-61.127-189.093-89.548-11.749-11.739-30.801-11.739-42.55 0-28.446 28.421-87.458 72.893-189.093 89.548-13.377 2.192-23.709 12.937-25.21 26.409-8.583 77.059-16.487 321.225 218.575 370.478 11.207 2.348 22.8 2.348 34.007 0 235.061-49.253 227.157-293.419 218.574-370.478z" fill="#6a647f"/><path d="m124.137 191.419c0-47.023 11.29-91.478 31.352-130.976-30.349 15.78-69.032 29.989-117.357 37.909-13.377 2.192-23.709 12.937-25.21 26.409-8.583 77.059-16.487 321.225 218.575 370.478 11.207 2.348 22.8 2.348 34.007 0 25.386-5.319 47.933-12.916 67.957-22.326-121.583-39.038-209.324-150.305-209.324-281.494z" fill="#5c586f"/><path d="m248.5 248.506-30.764 92.8-89.284 27.238c-3.555-4.22-6.931-8.629-10.148-13.228-34.158-48.896-43.293-111.736-44.939-155.842-.601-16.14-.264-30.93.443-43.536 22.058-4.81 43.325-11.003 63.6-18.535l72.307 25.108z" fill="#90d3f1"/><path d="m423.508 202.597c-1.92 43.325-11.309 105.068-45.129 153.161-3.123 4.441-6.403 8.703-9.842 12.785l-65.525-27.238-54.512-92.8 52.119-86.866 58.972-24.236c20.275 7.532 41.521 13.724 63.579 18.524.771 13.451 1.098 29.359.338 46.67z" fill="#90d3f1"/><path d="m124.137 191.419c0-17.346 1.55-34.339 4.493-50.868-17.611 6.123-35.923 11.267-54.821 15.388-.707 12.606-1.044 27.396-.443 43.536 1.646 44.105 10.781 106.946 44.939 155.841 3.217 4.599 6.593 9.009 10.148 13.228l46.008-14.035c-31.798-46.788-50.324-102.833-50.324-163.09z" fill="#59c2e7"/><path d="m368.537 368.543c-28.535 33.883-68.02 55.446-120.037 65.562-52.007-10.127-91.502-31.679-120.048-65.562l120.048-120.037z" fill="#5c84d9"/><path d="m359.592 137.404-111.092 111.102-111.092-111.102c35.519-13.165 68.02-30.402 96.523-51.331 5.18-3.798 10.032-7.585 14.568-11.298 4.536 3.713 9.389 7.5 14.568 11.298 28.515 20.928 61.017 38.166 96.525 51.331z" fill="#5c84d9"/><path d="m162.179 334.819-33.727 33.724c28.546 33.884 68.041 55.435 120.048 65.562 1.433-.279 2.853-.57 4.267-.866-37.272-25.72-68.326-59.376-90.588-98.42z" fill="#4677d4"/></g></svg>