<svg id="Capa_1" enable-background="new 0 0 497 497" height="512" viewBox="0 0 497 497" width="512" xmlns="http://www.w3.org/2000/svg"><g><path d="m129.126 344.056h238.737v91.036h-238.737z" fill="#f9ed80"/><path d="m102.681 294.578-14.626 68.717h-59.991c-17.929-34.339-28.058-73.387-28.058-114.795s10.13-80.456 28.059-114.795h54.533l20.084 68.717c-9.128 28.913-9.727 61.346-.001 92.156z" fill="#4677d4"/><g fill="#5c84d9"><path d="m363.289 468.93c-71.113 37.131-157.344 37.722-229.589 0l16.211-57.003 52.506-17.613c28.913 9.127 61.346 9.726 92.156 0l54.547 16.704z"/><path d="m468.924 363.295-54.311-8.675-20.305-60.042c9.127-28.913 9.726-61.346 0-92.156l19.396-68.717h55.221c37.13 71.113 37.721 157.343-.001 229.59z"/><path d="m363.289 28.07-9.621 50.931-59.096 23.685c-28.913-9.127-61.346-9.726-92.156 0l-68.716-20.956v-53.66c71.113-37.131 157.343-37.722 229.589 0z"/></g><path d="m468.924 363.295c-23.529 45.118-60.517 82.106-105.635 105.635l-68.717-74.617c47.378-14.949 84.786-52.358 99.735-99.735z" fill="#90d3f1"/><path d="m468.924 133.705-74.617 68.717c-1.391-4.459-3.311-9.69-5.68-15.139-.01-.01-.01-.02-.02-.03-14.116-33.411-44.188-64.214-78.866-78.866-.01-.01-.02-.01-.03-.02-5.361-2.331-10.571-4.255-15.139-5.68l68.717-74.617c43.925 23.052 80.917 58.536 105.635 105.635z" fill="#90d3f1"/><path d="m188.294 399.051-38.384 12.876-16.21 57.003c39.417 20.581 82.994 29.729 126.01 27.789-29.207-27.928-53.482-60.965-71.416-97.668z" fill="#4677d4"/><path d="m202.416 394.313-68.716 74.617c-45.895-24.086-81.979-60.56-105.635-105.635l74.617-68.717c15.546 49.105 53.911 85.227 99.734 99.735z" fill="#90d3f1"/><path d="m259.714.277c-43.351-1.942-86.962 7.402-126.014 27.793v53.66l54.409 16.593c17.951-36.855 42.296-70.022 71.605-98.046z" fill="#4677d4"/><path d="m202.416 102.687c-4.194 1.296-9.612 3.276-15.139 5.68-.01.01-.02.01-.03.02-33.102 13.986-64.118 43.961-78.866 78.866-.01.01-.01.02-.02.03-2.358 5.424-4.373 10.912-5.68 15.139l-74.617-68.717c23.192-44.192 58.893-81.105 105.636-105.635z" fill="#59c2e7"/><path d="m386.402 123.44h-52.078v112.848h52.078c18.756 0 33.96-15.204 33.96-33.96v-44.928c0-18.756-15.204-33.96-33.96-33.96z" fill="#a19dae"/><path d="m202.416 394.313c28.913 9.127 61.346 9.726 92.156 0 29.193-9.211 54.59-26.958 73.291-50.302v-220.571c0-28.856-23.393-52.249-52.249-52.249h-134.24c-28.856 0-52.249 23.393-52.249 52.249v220.616c19.05 23.76 44.72 41.211 73.291 50.257z" fill="#b2b0bc"/><path d="m153.599 248.5c0-64.88 18.001-125.552 49.269-177.309h-21.494c-28.856 0-52.249 23.393-52.249 52.249v220.616c14.483 18.064 32.799 32.469 53.301 42.319-18.523-42.203-28.827-88.832-28.827-137.875z" fill="#a19dae"/><path d="m182.429 386.38c-36.788-17.671-66.525-50.035-79.748-91.802l-74.617 68.717c23.656 45.075 59.74 81.549 105.635 105.635l58.037-63.019c-3.304-6.394-6.401-12.911-9.307-19.531z" fill="#59c2e7"/><g><g><g><ellipse cx="176.643" cy="191.475" fill="#fff" rx="26.512" ry="21.113"/></g><g><ellipse cx="320.346" cy="191.475" fill="#fff" rx="26.512" ry="21.113"/></g></g></g><g><path d="m192.094 178.652c-4.143 0-7.5-3.358-7.5-7.5v-10.838c0-4.142 3.357-7.5 7.5-7.5s7.5 3.358 7.5 7.5v10.838c0 4.142-3.357 7.5-7.5 7.5z" fill="#423e4f"/></g><g><path d="m304.895 178.652c-4.143 0-7.5-3.358-7.5-7.5v-10.838c0-4.142 3.357-7.5 7.5-7.5s7.5 3.358 7.5 7.5v10.838c0 4.142-3.358 7.5-7.5 7.5z" fill="#423e4f"/></g><g><path d="m248.494 185.103c-7.866 0-15.347-3.406-20.523-9.346-2.722-3.123-2.397-7.86.725-10.582 3.124-2.723 7.861-2.397 10.582.725 2.328 2.67 5.688 4.202 9.217 4.202s6.888-1.531 9.215-4.201c2.721-3.123 7.457-3.448 10.582-.727 3.122 2.722 3.448 7.459.727 10.582-5.178 5.94-12.658 9.347-20.525 9.347z" fill="#423e4f"/></g></g></svg>