<svg id="Capa_1" enable-background="new 0 0 497 497" height="512" viewBox="0 0 497 497" width="512" xmlns="http://www.w3.org/2000/svg"><g><path d="m144.537 352.463-86.818-18.935-48.032 48.033c-12.916 12.916-12.916 33.856 0 46.772l58.981 58.98c12.916 12.916 33.856 12.916 46.772 0l48.033-48.033z" fill="#b2b0bc"/><path d="m36.159 454.805c20.401-34.579 46.006-71.526 76.072-109.388l-54.511-11.889-48.033 48.033c-12.916 12.916-12.916 33.856 0 46.772z" fill="#a19dae"/><g><path d="m42.101 402.022c-2.929-2.929-2.929-7.678 0-10.606l57.553-57.552c2.931-2.93 7.679-2.929 10.607 0s2.929 7.678 0 10.606l-57.553 57.552c-2.929 2.928-7.677 2.93-10.607 0z" fill="#938ea3"/></g><g><path d="m68.539 428.461c-2.929-2.929-2.929-7.678 0-10.606l57.552-57.552c2.931-2.929 7.679-2.928 10.607 0 2.929 2.929 2.929 7.678 0 10.606l-57.552 57.552c-2.929 2.929-7.677 2.928-10.607 0z" fill="#a19dae"/></g><g><path d="m94.977 454.898c-2.929-2.929-2.929-7.678 0-10.606l57.553-57.552c2.931-2.929 7.679-2.929 10.607 0 2.929 2.929 2.929 7.678 0 10.606l-57.553 57.552c-2.929 2.929-7.677 2.93-10.607 0z" fill="#a19dae"/></g><path d="m480.185 132.32-115.505-115.505c-22.42-22.42-58.769-22.42-81.189 0l-79.01 79.01c-9.802 9.802-14.797 23.421-13.657 37.236l3.338 40.445c1.14 13.816-3.854 27.434-13.657 37.236l-122.786 122.786 105.752 105.752 122.786-122.786c9.802-9.802 23.421-14.797 37.236-13.657l40.445 3.338c13.816 1.14 27.434-3.854 37.236-13.657l79.01-79.01c22.421-22.419 22.421-58.768.001-81.188zm-92.568 26.227c-13.576 13.576-35.588 13.576-49.164 0s-13.576-35.588 0-49.164 35.588-13.576 49.164 0 13.576 35.588 0 49.164z" fill="#5c84d9"/><path d="m215.09 230.496c37.79-37.79 76.121-71.955 113.584-101.79 1.077-7.072 4.333-13.876 9.779-19.323 7.808-7.808 18.405-11.115 28.583-9.943 16.181-11.797 32.094-22.699 47.624-32.645l-49.98-49.981c-22.42-22.42-58.769-22.42-81.189 0l-79.01 79.01c-9.802 9.802-14.797 23.42-13.657 37.236l3.338 40.445c1.14 13.816-3.854 27.434-13.657 37.236l-122.786 122.787 35.928 35.928c34.143-45.396 75.07-92.587 121.443-138.96z" fill="#4677d4"/><g><g><path d="m242.725 151.677c-2.929-2.929-2.929-7.678 0-10.606l9.857-9.857c2.93-2.929 7.678-2.929 10.607 0s2.929 7.678 0 10.606l-9.857 9.857c-2.93 2.929-7.677 2.929-10.607 0z" fill="#423e4f"/></g><g><path d="m350.626 256.471c-6.623 0-10.041-8.066-5.304-12.803l9.857-9.857c2.93-2.929 7.678-2.929 10.607 0s2.929 7.678 0 10.606l-9.857 9.857c-1.464 1.465-3.384 2.197-5.303 2.197z" fill="#423e4f"/></g><g><path d="m278.614 183.34c.285-4.132 3.851-7.242 7.997-6.968 4.132.284 7.252 3.864 6.968 7.997-.743 10.826 8.218 19.796 19.054 19.053 4.119-.275 7.713 2.836 7.996 6.969s-2.836 7.712-6.969 7.996c-19.966 1.368-36.411-15.198-35.046-35.047z" fill="#423e4f"/></g></g></g></svg>