<svg id="Capa_1" enable-background="new 0 0 497 497" height="512" viewBox="0 0 497 497" width="512" xmlns="http://www.w3.org/2000/svg"><g><path d="m412.265 497c0-100.537-75.546-148.224-75.546-148.224h-176.438s-75.546 47.687-75.546 148.224z" fill="#4677d4"/><g><g><path d="m195.59 444.075c-8.091-2.441-12.67-10.978-10.229-19.069l24.333-80.65c2.441-8.091 10.979-12.675 19.07-10.229 8.091 2.441 12.67 10.978 10.229 19.069l-24.333 80.65c-2.449 8.116-11.006 12.665-19.07 10.229z" fill="#fff"/></g></g><g><g><path d="m301.41 444.075c8.091-2.441 12.67-10.978 10.229-19.069l-24.333-80.65c-2.441-8.091-10.979-12.675-19.07-10.229-8.091 2.441-12.67 10.978-10.229 19.069l24.333 80.65c2.449 8.116 11.006 12.665 19.07 10.229z" fill="#fff"/></g></g><path d="m442.994 205.573c0 107.416-87.078 161.258-194.494 161.258s-194.494-53.842-194.494-161.258 87.078-205.573 194.494-205.573 194.494 98.156 194.494 205.573z" fill="#5c84d9"/><path d="m114.497 263.226c0-127.702 75.853-234.133 176.446-258.01-13.663-3.394-27.863-5.216-42.443-5.216-107.416 0-194.494 98.156-194.494 205.573 0 59.428 26.662 102.448 68.666 129.034-5.322-22.7-8.175-46.64-8.175-71.381z" fill="#4677d4"/><path d="m397.089 205.274c-.036-18.233-11.669-34.506-28.845-40.624-33.011-11.759-74.577-18.764-119.745-18.764s-86.734 7.005-119.745 18.764c-17.176 6.118-28.808 22.391-28.845 40.624v.299c0 36.296 13.098 64.696 38.927 84.435 26.105 19.933 65.053 30.92 109.662 30.92s83.557-10.987 109.662-30.92c25.829-19.739 38.927-48.139 38.927-84.435.002-.1.002-.199.002-.299z" fill="#ffdcce"/><g><path d="m268.918 258.851c-2.093 0-4.175-.871-5.657-2.573-3.807-4.368-9.303-6.874-15.08-6.874-5.776 0-11.273 2.505-15.08 6.874-2.722 3.123-7.46 3.447-10.582.727-3.123-2.721-3.448-7.459-.727-10.582 6.656-7.638 16.274-12.019 26.389-12.019s19.733 4.381 26.389 12.019c2.722 3.123 2.396 7.86-.728 10.582-1.421 1.238-3.176 1.846-4.924 1.846z" fill="#423e4f"/></g><g fill="#6a647f"><path d="m187.36 194.911h-30.94c-12.998 0-22.687 11.986-19.962 24.696l1.713 7.991c2.88 13.432 14.751 23.027 28.488 23.027h10.462c13.737 0 25.608-9.595 28.488-23.027l1.714-7.991c2.724-12.71-6.965-24.696-19.963-24.696z"/><path d="m312.363 194.911h30.94c12.998 0 22.687 11.986 19.962 24.696l-1.713 7.991c-2.88 13.432-14.751 23.027-28.488 23.027h-10.462c-13.737 0-25.608-9.595-28.488-23.027l-1.713-7.991c-2.725-12.71 6.963-24.696 19.962-24.696z"/></g><path d="m343.304 187.411h-30.94c-6.616 0-12.886 2.314-17.854 6.462-29.929-3.856-58.4-3.98-89.295 0-4.968-4.148-11.238-6.462-17.854-6.462h-30.941c-17.791 0-31.017 16.407-27.295 33.768l1.713 7.991c3.598 16.777 18.663 28.955 35.821 28.955h10.461c17.159 0 32.224-12.177 35.821-28.955.834-5.644 3.896-11.992 1.33-21.273 23.054-2.529 46.609-2.694 71.179 0-2.567 9.287.494 15.612 1.33 21.273 3.597 16.777 18.662 28.955 35.821 28.955h10.461c17.159 0 32.225-12.177 35.821-28.955l1.713-7.99c3.732-17.398-9.537-33.769-27.292-33.769zm-143.316 30.623-1.713 7.991c-2.124 9.908-11.021 17.099-21.154 17.099h-10.461c-10.133 0-19.03-7.191-21.154-17.099l-1.713-7.992c-1.727-8.047 4.413-15.623 12.628-15.623h30.941c8.245.001 14.341 7.631 12.626 15.624zm155.943.001-1.713 7.991c-2.125 9.908-11.021 17.099-21.155 17.099h-10.461c-10.134 0-19.03-7.191-21.155-17.099 0 0-1.711-7.985-1.713-7.992-1.695-7.91 4.55-15.623 12.629-15.623h30.94c8.232 0 14.35 7.59 12.628 15.624z" fill="#423e4f"/><path d="m133.957 371.715c-21.802 23.333-49.222 64.712-49.222 125.285h148.425c-43.694-27.113-78.818-71.334-99.203-125.285z" fill="#2e67cf"/><path d="m305.503 406.369h-114.006c-18.142 0-32.849 14.707-32.849 32.849v57.782h179.704v-57.782c0-18.142-14.707-32.849-32.849-32.849z" fill="#b2b0bc"/><circle cx="248.5" cy="451.685" fill="#fff" r="16.141"/><path d="m161.46 425.923c-1.802 4.066-2.812 8.562-2.812 13.295v57.782h74.511c-27.942-17.339-52.381-41.672-71.699-71.077z" fill="#a19dae"/><path d="m130.649 164.003c-.627.218-1.272.426-1.893.647-17.176 6.118-28.808 22.391-28.845 40.624v.299c0 22.171 4.897 41.391 14.588 57.495.017-35.051 5.761-68.49 16.15-99.065z" fill="#ffcabd"/></g></svg>