<svg id="Capa_1" enable-background="new 0 0 497 497" height="512" viewBox="0 0 497 497" width="512" xmlns="http://www.w3.org/2000/svg"><g><circle cx="248.5" cy="248.5" fill="#6a647f" r="248.5"/><path d="m50 241.068c0-93.423 43.328-175.803 109.258-224.545-93.151 35.859-159.258 126.191-159.258 231.977 0 123.599 90.242 226.105 208.429 245.268-92.715-39.35-158.429-137.649-158.429-252.7z" fill="#5c586f"/><g><path d="m248.5 461.713c-86.862 0-157.529-70.667-157.529-157.528v-111.369c0-47.115 20.844-91.378 57.188-121.44 3.19-2.639 7.919-2.193 10.56.999 2.64 3.192 2.192 7.919-.999 10.56-32.887 27.203-51.748 67.253-51.748 109.881v111.369c0 78.59 63.938 142.528 142.529 142.528s142.528-63.938 142.528-142.528v-111.369c0-78.591-63.938-142.529-142.528-142.529-23.207 0-46.249 5.71-66.636 16.514-3.66 1.941-8.198.544-10.139-3.115-1.939-3.66-.545-8.2 3.115-10.139 22.542-11.946 48.013-18.26 73.659-18.26 86.861 0 157.528 70.667 157.528 157.529v111.369c.001 86.861-70.666 157.528-157.528 157.528z" fill="#4677d4"/></g><g><path d="m248.5 421.713c-64.806 0-117.529-52.723-117.529-117.528v-111.369c0-64.806 52.724-117.529 117.529-117.529s117.528 52.723 117.528 117.529v111.369c0 27.809-9.937 54.811-27.979 76.032-2.683 3.156-7.416 3.54-10.572.856-3.155-2.683-3.538-7.417-.855-10.572 15.739-18.512 24.407-42.063 24.407-66.316v-111.369c0-56.535-45.994-102.529-102.528-102.529-56.535 0-102.529 45.994-102.529 102.529v111.369c0 56.534 45.994 102.528 102.529 102.528 20.501 0 40.301-6.058 57.258-17.519 3.434-2.319 8.095-1.418 10.414 2.014s1.418 8.094-2.014 10.414c-19.448 13.144-42.152 20.091-65.659 20.091z" fill="#5c84d9"/></g><g><path d="m248.5 381.713c-42.75 0-77.529-34.779-77.529-77.528v-111.369c0-20.955 8.27-40.604 23.286-55.329 2.956-2.898 7.705-2.855 10.606.104 2.899 2.958 2.854 7.706-.104 10.606-12.115 11.88-18.788 27.727-18.788 44.619v111.369c0 34.478 28.051 62.528 62.529 62.528s62.528-28.05 62.528-62.528v-111.369c0-34.479-28.05-62.529-62.528-62.529-6.931 0-13.775 1.15-20.345 3.418-3.914 1.352-8.186-.727-9.537-4.642-1.352-3.916.727-8.185 4.643-9.537 8.146-2.813 16.639-4.239 25.239-4.239 42.749 0 77.528 34.779 77.528 77.529v111.369c.001 42.749-34.779 77.528-77.528 77.528z" fill="#59c2e7"/></g><g><path d="m248.5 341.713c-20.693 0-37.529-16.835-37.529-37.528v-111.369c0-20.693 16.836-37.529 37.529-37.529s37.528 16.835 37.528 37.529v55.815c0 4.142-3.357 7.5-7.5 7.5s-7.5-3.358-7.5-7.5v-55.815c0-12.422-10.106-22.529-22.528-22.529-12.423 0-22.529 10.106-22.529 22.529v111.369c0 12.422 10.106 22.528 22.529 22.528 12.422 0 22.528-10.106 22.528-22.528v-25.553c0-4.142 3.357-7.5 7.5-7.5s7.5 3.358 7.5 7.5v25.553c.001 20.693-16.834 37.528-37.528 37.528z" fill="#90d3f1"/></g></g></svg>