<svg id="Capa_1" enable-background="new 0 0 497 497" height="512" viewBox="0 0 497 497" width="512" xmlns="http://www.w3.org/2000/svg"><g><path d="m407.389 101.716c-2.123 0-4.221.102-6.307.251-6.772-57.422-55.602-101.967-114.844-101.967s-108.072 44.545-114.845 101.966c-2.085-.148-4.184-.251-6.307-.251-48.423 0-87.677 39.254-87.677 87.677s39.254 87.677 87.677 87.677h242.303c48.423 0 87.677-39.254 87.677-87.677s-39.254-87.676-87.677-87.676z" fill="#90d3f1"/><g><g><g><ellipse cx="187.176" cy="166.576" fill="#fff" rx="36.552" ry="29.108"/></g><g><ellipse cx="385.299" cy="166.576" fill="#fff" rx="36.552" ry="29.108"/></g></g></g><g><path d="m208.478 146.055c-4.142 0-7.5-3.358-7.5-7.5v-14.942c0-4.142 3.358-7.5 7.5-7.5s7.5 3.358 7.5 7.5v14.942c0 4.143-3.358 7.5-7.5 7.5z" fill="#423e4f"/></g><g><path d="m363.997 146.055c-4.142 0-7.5-3.358-7.5-7.5v-14.942c0-4.142 3.358-7.5 7.5-7.5s7.5 3.358 7.5 7.5v14.942c0 4.143-3.358 7.5-7.5 7.5z" fill="#423e4f"/></g><g><path d="m286.238 154.95c-10.025 0-19.558-4.342-26.155-11.912-2.721-3.123-2.396-7.86.727-10.582 3.122-2.721 7.86-2.396 10.582.727 3.748 4.3 9.159 6.767 14.846 6.767s11.099-2.466 14.847-6.767c2.722-3.123 7.458-3.447 10.582-.727 3.123 2.722 3.448 7.459.727 10.582-6.599 7.57-16.132 11.912-26.156 11.912z" fill="#423e4f"/></g><path d="m370.655 36.607c-21.1-22.529-51.113-36.607-84.417-36.607-59.242 0-108.072 44.545-114.845 101.966-2.085-.148-4.184-.25-6.307-.25-48.423 0-87.677 39.254-87.677 87.677 0 8.871 1.322 17.432 3.772 25.502 51.823-94.071 159.994-163.024 289.474-178.288z" fill="#59c2e7"/><g><path d="m181.775 360.379c-12.189 0-22.07-9.881-22.07-22.07v-64.437c0-23.361-19.005-42.366-42.366-42.366s-42.366 19.005-42.366 42.366v64.437c0 12.189-9.881 22.07-22.07 22.07s-22.07-9.881-22.07-22.07v-64.437c0-47.7 38.806-86.506 86.506-86.506s86.506 38.806 86.506 86.506v64.437c0 12.189-9.881 22.07-22.07 22.07z" fill="#6a647f"/></g><path d="m48.268 340.654c0-54.801 17.601-106.248 48.436-150.795-37.769 9.279-65.871 43.422-65.871 84.012v64.437c0 10.859 7.845 19.88 18.175 21.72-.489-6.406-.74-12.866-.74-19.374z" fill="#5c586f"/><path d="m188.169 301.981h-141.66c-24.619 0-44.576 19.957-44.576 44.576v105.867c.001 24.619 19.958 44.576 44.576 44.576h141.659c24.619 0 44.576-19.957 44.576-44.576v-105.867c0-24.619-19.957-44.576-44.575-44.576z" fill="#5c84d9"/><path d="m135.029 393.324v-18.144c0-9.77-7.92-17.69-17.69-17.69s-17.69 7.92-17.69 17.69v18.143c-9.553 5.927-15.918 16.505-15.918 28.574 0 18.561 15.047 33.608 33.608 33.608s33.608-15.047 33.608-33.608c0-12.068-6.365-22.646-15.918-28.573z" fill="#6a647f"/><path d="m48.268 340.654c0-13.099 1.008-26.006 2.96-38.673h-4.718c-24.619 0-44.576 19.957-44.576 44.576v105.867c0 24.619 19.957 44.576 44.575 44.576h54.126c-33.269-45.801-52.367-99.254-52.367-156.346z" fill="#4677d4"/></g></svg>