<svg id="Capa_1" enable-background="new 0 0 497 497" height="512" viewBox="0 0 497 497" width="512" xmlns="http://www.w3.org/2000/svg"><g><g><path d="m148.731 141.735c-.605 0-1.216-.032-1.831-.099-9.234-.998-15.916-9.279-14.948-18.509.024-.244 1.872-19.51-4.335-40.194-7.62-25.391-23.903-41.57-48.396-48.087-8.993-2.393-14.343-11.623-11.951-20.616 2.393-8.994 11.621-14.345 20.616-11.951 36.484 9.707 61.509 34.671 72.37 72.193 7.81 26.984 5.317 51.204 5.207 52.222-.933 8.636-8.238 15.041-16.732 15.041z" fill="#4f4c5f"/></g><g><path d="m219.35 141.735c.605 0 1.216-.032 1.831-.099 9.234-.998 15.916-9.279 14.948-18.509-.024-.244-1.872-19.51 4.335-40.194 7.62-25.391 23.902-41.57 48.396-48.087 8.993-2.393 14.343-11.623 11.951-20.615-2.393-8.994-11.621-14.345-20.615-11.951-36.484 9.707-61.509 34.671-72.37 72.193-7.81 26.984-5.317 51.204-5.207 52.222.932 8.635 8.237 15.04 16.731 15.04z" fill="#4f4c5f"/></g><g><path d="m86.456 168.827-43.249-43.249c-10.341-10.34-10.341-27.105 0-37.445 10.34-10.34 27.105-10.34 37.445 0l43.249 43.249c10.341 10.34 10.341 27.105 0 37.445-10.341 10.341-27.105 10.341-37.445 0z" fill="#4f4c5f"/></g><g><path d="m281.619 168.827 43.249-43.249c10.341-10.34 10.341-27.105 0-37.445-10.34-10.34-27.105-10.34-37.445 0l-43.249 43.249c-10.341 10.34-10.341 27.105 0 37.445 10.341 10.341 27.105 10.341 37.445 0z" fill="#4f4c5f"/></g><path d="m307.136 187.186-123.098 26.957-123.099-26.957c10.331-58.617 61.515-103.158 123.098-103.158 61.593 0 112.767 44.541 123.099 103.158z" fill="#6a647f"/><path d="m87.642 214.143h-61.164c-14.623 0-26.478 11.854-26.478 26.478 0 14.623 11.854 26.478 26.478 26.478h61.164c14.624 0 26.478-11.854 26.478-26.478s-11.855-26.479-26.478-26.478z" fill="#4f4c5f"/><g><path d="m118.064 342.333-43.249 43.249c-10.34 10.341-27.105 10.341-37.445 0-10.34-10.34-10.34-27.105 0-37.445l43.249-43.249c10.34-10.341 27.105-10.341 37.445 0 10.34 10.34 10.34 27.104 0 37.445z" fill="#4f4c5f"/></g><path d="m478.828 389.378c-74.533-74.533-181.775-136.479-181.775-136.479l-42.446 42.446s61.945 107.241 136.479 181.775c24.229 24.229 63.513 24.229 87.742 0s24.229-63.513 0-87.742z" fill="#5c84d9"/><path d="m309.042 209.033v71.433c0 34.518-13.99 65.771-36.607 88.388-22.627 22.627-53.88 36.616-88.398 36.616-69.035 0-125.004-55.969-125.004-125.005v-71.433c0-7.452.655-14.751 1.906-21.847h246.196c1.252 7.097 1.907 14.395 1.907 21.848z" fill="#ff748f"/><g fill="#423e4f"><path d="m163.746 155.062c-2.722 3.123-2.396 7.861.728 10.582 3.122 2.722 7.859 2.396 10.581-.727 4.751-5.451 13.203-5.465 17.966 0 2.716 3.117 7.453 3.453 10.581.727 3.123-2.721 3.449-7.458.728-10.582-10.737-12.322-29.859-12.309-40.584 0z"/><path d="m140.97 131.935-21.395-5.733c-4.003-1.071-8.114 1.303-9.186 5.303-1.072 4.001 1.302 8.114 5.303 9.186l5.484 1.469c-.276 1.329-.108 1.463-.158 10.751 0 4.142 3.357 7.5 7.5 7.5s7.5-3.358 7.5-7.5v-6.774c.754.173 1.626.544 3.016.544 3.312 0 6.342-2.21 7.239-5.561 1.072-4-1.303-8.112-5.303-9.185z"/><path d="m257.685 131.506c-1.071-4-5.183-6.374-9.186-5.303l-21.395 5.733c-4.001 1.072-6.375 5.185-5.303 9.186 1.069 3.992 5.171 6.376 9.186 5.303l1.069-.287v6.774c0 4.142 3.357 7.5 7.5 7.5s7.5-3.358 7.5-7.5c-.05-9.289.118-9.422-.158-10.751l5.484-1.469c4.002-1.073 6.376-5.185 5.303-9.186z"/></g><path d="m112.824 106.295c-26.813 18.622-45.993 47.465-51.884 80.891l32.675 7.155c.001-31.136 6.832-60.852 19.209-88.046z" fill="#5c586f"/><path d="m93.614 194.351c0-2.398.053-4.785.133-7.165h-32.808c-1.252 7.096-1.906 14.394-1.906 21.847v71.432c0 69.035 55.969 125.005 125.005 125.005 14.823 0 29.041-2.587 42.236-7.323-79.285-40.586-132.66-116.652-132.66-203.796z" fill="#fd5f7e"/><path d="m358.116 429.383c-3.409 0-6.797-.076-10.174-.19 13.6 16.54 28.115 32.899 43.143 47.927 24.229 24.229 63.513 24.229 87.742 0 21.063-21.063 23.805-53.499 8.247-77.535-38.153 18.97-82.129 29.798-128.958 29.798z" fill="#4677d4"/><circle cx="302.749" cy="301.042" fill="#6a647f" r="129.577"/><circle cx="302.749" cy="301.042" fill="#90d3f1" r="74.03"/></g></svg>