<svg id="Capa_1" enable-background="new 0 0 497 497" height="512" viewBox="0 0 497 497" width="512" xmlns="http://www.w3.org/2000/svg"><g><path d="m491.846 58.774v27.531l-157.236 17.384-156.54-17.384v-27.531c.001-32.456 26.319-58.774 58.785-58.774h196.217c32.457 0 58.774 26.318 58.774 58.774z" fill="#ff748f"/><path d="m256.451 0h-19.595c-32.467 0-58.785 26.318-58.785 58.774v27.531l50.413 5.598c3.83-32.707 13.497-63.68 27.967-91.903z" fill="#fd5f7e"/><path d="m491.846 86.306v121.036c0 32.456-26.318 58.774-58.774 58.774h-196.217c-32.467 0-58.784-26.318-58.784-58.774v-121.036z" fill="#e0e0e0"/><path d="m428.832 35.653h-33.776c-4.143 0-7.5 3.358-7.5 7.5s3.357 7.5 7.5 7.5h33.776c4.143 0 7.5-3.358 7.5-7.5s-3.357-7.5-7.5-7.5z" fill="#423e4f"/><path d="m367.16 134.898c4.143 0 7.5-3.358 7.5-7.5s-3.357-7.5-7.5-7.5h-32.55c-4.143 0-7.5 3.358-7.5 7.5v77.249c0 4.142 3.357 7.5 7.5 7.5h32.55c4.143 0 7.5-3.358 7.5-7.5s-3.357-7.5-7.5-7.5h-25.05v-23.624h22.649c4.143 0 7.5-3.358 7.5-7.5s-3.357-7.5-7.5-7.5h-22.649v-23.625z" fill="#423e4f"/><path d="m424.554 134.898c4.143 0 7.5-3.358 7.5-7.5s-3.357-7.5-7.5-7.5h-32.549c-4.143 0-7.5 3.358-7.5 7.5v77.249c0 4.142 3.357 7.5 7.5 7.5h32.549c4.143 0 7.5-3.358 7.5-7.5s-3.357-7.5-7.5-7.5h-25.049v-23.624h22.649c4.143 0 7.5-3.358 7.5-7.5s-3.357-7.5-7.5-7.5h-22.649v-23.625z" fill="#423e4f"/><path d="m318.38 146.947c0-15.308-12.968-27.761-28.907-27.761-.188 0-20.86 0-20.742 0-4.143 0-7.5 3.358-7.5 7.5v77.96c0 4.142 3.357 7.5 7.5 7.5s7.5-3.358 7.5-7.5v-28.016l29.02 32.972c1.482 1.685 3.553 2.545 5.633 2.545 6.38 0 9.911-7.587 5.627-12.455l-22.319-25.359c13.701-2.17 24.188-13.621 24.188-27.386zm-28.907 12.762c-3.022 0-8.547.024-13.116.048-.068-12.43-.031-9.86-.077-25.57h13.193c7.538 0 13.907 5.844 13.907 12.761s-6.369 12.761-13.907 12.761z" fill="#423e4f"/><path d="m450.568 201.163c-2.864 0-5.186 2.322-5.186 5.186s2.322 5.186 5.186 5.186 5.186-2.322 5.186-5.186-2.322-5.186-5.186-5.186z" fill="#423e4f"/><path d="m450.644 120.294c-4.143 0-7.5 3.358-7.5 7.5v57.506c0 4.142 3.357 7.5 7.5 7.5s7.5-3.358 7.5-7.5v-57.506c0-4.142-3.358-7.5-7.5-7.5z" fill="#423e4f"/><path d="m226.614 123.671c0-12.674.891-25.144 2.582-37.365h-51.124v121.036c0 32.456 26.318 58.774 58.785 58.774h30.164c-25.647-41.611-40.407-90.343-40.407-142.445z" fill="#d2d2d0"/><path d="m221.663 204.647v-31.928h21.374c4.143 0 7.5-3.358 7.5-7.5s-3.357-7.5-7.5-7.5h-21.374v-22.962h23.866c4.143 0 7.5-3.358 7.5-7.5s-3.357-7.5-7.5-7.5h-31.366c-4.143 0-7.5 3.358-7.5 7.5v77.39c0 4.142 3.357 7.5 7.5 7.5s7.5-3.358 7.5-7.5z" fill="#423e4f"/><path d="m318.929 289.658v27.531l-157.236 17.384-156.539-17.383v-27.531c0-32.456 26.318-58.774 58.784-58.774h196.217c32.456-.001 58.774 26.317 58.774 58.773z" fill="#ff748f"/><path d="m83.534 230.884h-19.596c-32.467 0-58.785 26.318-58.785 58.774v27.531l50.413 5.598c3.831-32.707 13.498-63.68 27.968-91.903z" fill="#fd5f7e"/><path d="m318.929 317.19v121.036c0 32.456-26.318 58.774-58.774 58.774h-196.217c-32.467 0-58.784-26.318-58.784-58.774v-121.036z" fill="#e0e0e0"/><path d="m53.696 354.555c0-12.674.891-25.144 2.582-37.365h-51.124v121.036c0 32.456 26.318 58.774 58.784 58.774h30.164c-25.645-41.611-40.406-90.343-40.406-142.445z" fill="#d2d2d0"/><g fill="#423e4f"><path d="m255.914 266.537h-33.775c-4.143 0-7.5 3.358-7.5 7.5s3.357 7.5 7.5 7.5h33.775c4.143 0 7.5-3.358 7.5-7.5s-3.357-7.5-7.5-7.5z"/><path d="m72.613 350.641h-31.368c-4.143 0-7.5 3.358-7.5 7.5v77.39c0 4.142 3.357 7.5 7.5 7.5s7.5-3.358 7.5-7.5v-31.928h21.375c4.143 0 7.5-3.358 7.5-7.5s-3.357-7.5-7.5-7.5h-21.375v-22.962h23.867c4.143 0 7.5-3.358 7.5-7.5s-3.357-7.5-7.499-7.5z"/><path d="m194.243 365.782c4.143 0 7.5-3.358 7.5-7.5s-3.357-7.5-7.5-7.5h-32.55c-4.143 0-7.5 3.358-7.5 7.5v77.249c0 4.142 3.357 7.5 7.5 7.5h32.55c4.143 0 7.5-3.358 7.5-7.5s-3.357-7.5-7.5-7.5h-25.05v-23.625h22.649c4.143 0 7.5-3.358 7.5-7.5s-3.357-7.5-7.5-7.5h-22.649v-23.625h25.05z"/><path d="m251.637 365.782c4.143 0 7.5-3.358 7.5-7.5s-3.357-7.5-7.5-7.5h-32.549c-4.143 0-7.5 3.358-7.5 7.5v77.249c0 4.142 3.357 7.5 7.5 7.5h32.549c4.143 0 7.5-3.358 7.5-7.5s-3.357-7.5-7.5-7.5h-25.049v-23.625h22.649c4.143 0 7.5-3.358 7.5-7.5s-3.357-7.5-7.5-7.5h-22.649v-23.625h25.049z"/><path d="m145.463 377.831c0-15.307-12.968-27.761-28.907-27.761-.188 0-20.86 0-20.742 0-4.143 0-7.5 3.358-7.5 7.5v77.96c0 4.142 3.357 7.5 7.5 7.5s7.5-3.358 7.5-7.5v-28.016l29.02 32.972c1.482 1.685 3.553 2.545 5.633 2.545 6.38 0 9.911-7.587 5.627-12.455l-22.319-25.359c13.701-2.17 24.188-13.621 24.188-27.386zm-28.907 12.761c-3.022 0-8.547.024-13.117.048-.071-13.601-.029-9.014-.077-25.57h13.194c7.538 0 13.907 5.844 13.907 12.761 0 6.918-6.369 12.761-13.907 12.761z"/><path d="m277.651 432.047c-2.864 0-5.186 2.322-5.186 5.186s2.322 5.186 5.186 5.186 5.186-2.322 5.186-5.186-2.322-5.186-5.186-5.186z"/><path d="m277.727 351.177c-4.143 0-7.5 3.358-7.5 7.5v57.506c0 4.142 3.357 7.5 7.5 7.5s7.5-3.358 7.5-7.5v-57.506c0-4.142-3.358-7.5-7.5-7.5z"/></g></g></svg>