<svg id="Capa_1" enable-background="new 0 0 497 497" height="512" viewBox="0 0 497 497" width="512" xmlns="http://www.w3.org/2000/svg"><g><path d="m481.458 15.542c-20.722-20.722-54.32-20.722-75.043 0l-43.889 43.888 75.043 75.043 43.889-43.889c20.722-20.722 20.722-54.32 0-75.042z" fill="#5c84d9"/><path d="m456.97 40.03c-7.187-7.187-18.879-7.187-26.066 0l-19.4 19.4 26.065 26.065 19.4-19.4c7.187-7.185 7.187-18.879.001-26.065z" fill="#fff"/><path d="m204.989 154.514-193.447 193.447c-15.39 15.39-15.39 40.341 0 55.731l81.766 81.766c15.39 15.39 40.341 15.39 55.73 0l193.446-193.446z" fill="#5c84d9"/><path d="m476.289 11.017c-20.81-16.052-50.795-14.554-69.874 4.525l-31.51 31.511c34.336-16.99 68.563-29.107 101.384-36.036z" fill="#4677d4"/><path d="m214.903 164.429-9.914-9.914-193.447 193.446c-15.39 15.39-15.39 40.341 0 55.731l50.418 50.418c9.317-91.44 62.872-198.477 152.943-289.681z" fill="#4677d4"/><circle cx="322.95" cy="174.05" fill="#90d3f1" r="152.746"/><path d="m217.813 161.474c54.892-54.892 115.689-96.466 175.459-123.057-57.53-29.846-130.062-20.643-178.33 27.625-38.902 38.902-52.426 93.567-40.586 143.435 13.395-16.369 27.88-32.427 43.457-48.003z" fill="#59c2e7"/><circle cx="322.95" cy="174.05" fill="#5c84d9" r="97.225"/><g><g><path d="m272.043 137.57c-2.93-2.929-2.93-7.677-.001-10.606l8.396-8.396c2.93-2.929 7.679-2.93 10.606 0 2.93 2.929 2.93 7.677.001 10.606l-8.396 8.396c-2.928 2.928-7.678 2.93-10.606 0z" fill="#423e4f"/></g><g><path d="m359.431 224.958c-2.93-2.929-2.93-7.677-.001-10.606l8.396-8.396c2.93-2.929 7.679-2.93 10.606 0 2.93 2.929 2.93 7.677.001 10.606l-8.396 8.396c-2.929 2.927-7.678 2.93-10.606 0z" fill="#423e4f"/></g><g><path d="m302.287 163.677c.284-4.132 3.884-7.25 7.996-6.969 4.133.284 7.253 3.864 6.969 7.996-.587 8.539 6.48 15.634 15.043 15.043 4.137-.271 7.713 2.836 7.996 6.969.283 4.132-2.837 7.712-6.969 7.996-17.631 1.213-32.245-13.418-31.035-31.035z" fill="#423e4f"/></g></g><path d="m62.796 309.416h144.181v105.396h-144.181z" fill="#90d3f1" transform="matrix(.707 -.707 .707 .707 -216.546 201.44)"/><g fill="#423e4f"><circle cx="134.886" cy="362.114" r="9.394"/><circle cx="163.081" cy="333.919" r="9.394"/><circle cx="106.691" cy="390.309" r="9.394"/></g><path d="m102.887 319.586-56.24 56.24 25.213 25.213c7.112-26.631 17.523-54.004 31.027-81.453z" fill="#59c2e7"/><path d="m322.398 76.838c-24.698.139-49.353 9.619-68.198 28.463-13.098 13.098-21.674 29.005-25.735 45.782 30.082-28.758 61.755-53.599 93.933-74.245z" fill="#4677d4"/></g></svg>