<svg height="512pt" viewBox="0 0 512 512" width="512pt" xmlns="http://www.w3.org/2000/svg"><g fill="#cfd8dc"><path d="m490.667969 400h-469.335938c-11.796875 0-21.332031-9.535156-21.332031-21.332031s9.535156-21.335938 21.332031-21.335938h469.335938c11.796875 0 21.332031 9.539063 21.332031 21.335938s-9.535156 21.332031-21.332031 21.332031zm0 0"/><path d="m490.667969 154.667969h-469.335938c-11.796875 0-21.332031-9.539063-21.332031-21.335938s9.535156-21.332031 21.332031-21.332031h469.335938c11.796875 0 21.332031 9.535156 21.332031 21.332031s-9.535156 21.335938-21.332031 21.335938zm0 0"/><path d="m384 400c-11.796875 0-21.332031-9.535156-21.332031-21.332031v-245.335938c0-11.796875 9.535156-21.332031 21.332031-21.332031s21.332031 9.535156 21.332031 21.332031v245.335938c0 11.796875-9.535156 21.332031-21.332031 21.332031zm0 0"/><path d="m128 400c-11.796875 0-21.332031-9.535156-21.332031-21.332031v-245.335938c0-11.796875 9.535156-21.332031 21.332031-21.332031s21.332031 9.535156 21.332031 21.332031v245.335938c0 11.796875-9.535156 21.332031-21.332031 21.332031zm0 0"/></g><path d="m448 512h-384c-35.285156 0-64-28.714844-64-64v-384c0-35.285156 28.714844-64 64-64h384c35.285156 0 64 28.714844 64 64v384c0 35.285156-28.714844 64-64 64zm-384-469.332031c-11.777344 0-21.332031 9.554687-21.332031 21.332031v384c0 11.777344 9.554687 21.332031 21.332031 21.332031h384c11.777344 0 21.332031-9.554687 21.332031-21.332031v-384c0-11.777344-9.554687-21.332031-21.332031-21.332031zm0 0" fill="#607d8b"/><path d="m256 512c-11.796875 0-21.332031-9.535156-21.332031-21.332031v-469.335938c0-11.796875 9.535156-21.332031 21.332031-21.332031s21.332031 9.535156 21.332031 21.332031v469.335938c0 11.796875-9.535156 21.332031-21.332031 21.332031zm0 0" fill="#607d8b"/></svg>