<svg id="Capa_1" enable-background="new 0 0 497 497" height="512" viewBox="0 0 497 497" width="512" xmlns="http://www.w3.org/2000/svg"><g><g fill="#a2abb8"><path d="m100 268.662h-42.71c-4.142 0-7.5-3.358-7.5-7.5v-42.5h-29.79c-4.142 0-7.5-3.358-7.5-7.5s3.358-7.5 7.5-7.5h37.29c4.142 0 7.5 3.358 7.5 7.5v42.5h35.21c4.142 0 7.5 3.358 7.5 7.5s-3.358 7.5-7.5 7.5z"/><path d="m57.29 458.662h-37.29c-4.142 0-7.5-3.358-7.5-7.5s3.358-7.5 7.5-7.5h29.79v-22.5c0-4.142 3.358-7.5 7.5-7.5h42.71c4.142 0 7.5 3.358 7.5 7.5s-3.358 7.5-7.5 7.5h-35.21v22.5c0 4.142-3.358 7.5-7.5 7.5z"/><path d="m439.71 268.662h-42.71c-4.142 0-7.5-3.358-7.5-7.5s3.358-7.5 7.5-7.5h35.21v-42.5c0-4.142 3.358-7.5 7.5-7.5h37.29c4.142 0 7.5 3.358 7.5 7.5s-3.358 7.5-7.5 7.5h-29.79v42.5c0 4.142-3.358 7.5-7.5 7.5z"/><path d="m477 458.662h-37.29c-4.142 0-7.5-3.358-7.5-7.5v-22.5h-35.21c-4.142 0-7.5-3.358-7.5-7.5s3.358-7.5 7.5-7.5h42.71c4.142 0 7.5 3.358 7.5 7.5v22.5h29.79c4.142 0 7.5 3.358 7.5 7.5s-3.358 7.5-7.5 7.5z"/><path d="m100 338.662h-80c-4.142 0-7.5-3.358-7.5-7.5s3.358-7.5 7.5-7.5h80c4.142 0 7.5 3.358 7.5 7.5s-3.358 7.5-7.5 7.5z"/><path d="m477 338.662h-80c-4.142 0-7.5-3.358-7.5-7.5s3.358-7.5 7.5-7.5h80c4.142 0 7.5 3.358 7.5 7.5s-3.358 7.5-7.5 7.5z"/></g><path d="m8.161 197.822c-4.842 2.488-8.161 7.522-8.161 13.34 0 8.284 6.716 15 15 15 5.818 0 10.851-3.319 13.339-8.161-2.052 1.054-21.233-18.126-20.178-20.179z" fill="#4980ac"/><path d="m15 196.162c-2.466 0-4.787.606-6.839 1.661-1.055 2.052-1.661 4.373-1.661 6.839 0 8.284 6.716 15 15 15 2.466 0 4.787-.606 6.839-1.661 1.055-2.052 1.661-4.373 1.661-6.839 0-8.285-6.716-15-15-15z" fill="#81a9c8"/><path d="m8.161 317.822c-4.842 2.488-8.161 7.522-8.161 13.34 0 8.284 6.716 15 15 15 5.818 0 10.851-3.319 13.339-8.161-2.052 1.054-21.233-18.126-20.178-20.179z" fill="#4980ac"/><path d="m15 316.162c-2.466 0-4.787.606-6.839 1.661-1.055 2.052-1.661 4.373-1.661 6.839 0 8.284 6.716 15 15 15 2.466 0 4.787-.606 6.839-1.661 1.055-2.052 1.661-4.373 1.661-6.839 0-8.285-6.716-15-15-15z" fill="#81a9c8"/><path d="m8.161 437.822c-4.842 2.488-8.161 7.522-8.161 13.34 0 8.284 6.716 15 15 15 5.818 0 10.851-3.319 13.339-8.161-2.052 1.054-21.233-18.126-20.178-20.179z" fill="#4980ac"/><path d="m15 436.162c-2.466 0-4.787.606-6.839 1.661-1.055 2.052-1.661 4.373-1.661 6.839 0 8.284 6.716 15 15 15 2.466 0 4.787-.606 6.839-1.661 1.055-2.052 1.661-4.373 1.661-6.839 0-8.285-6.716-15-15-15z" fill="#81a9c8"/><path d="m475.161 197.822c-4.842 2.488-8.161 7.521-8.161 13.339 0 8.284 6.716 15 15 15 5.818 0 10.851-3.319 13.339-8.161-2.052 1.055-21.233-18.125-20.178-20.178z" fill="#4980ac"/><path d="m482 196.162c-2.466 0-4.787.606-6.839 1.661-1.055 2.052-1.661 4.373-1.661 6.839 0 8.284 6.716 15 15 15 2.466 0 4.787-.606 6.839-1.661 1.055-2.052 1.661-4.373 1.661-6.839 0-8.285-6.716-15-15-15z" fill="#81a9c8"/><path d="m475.161 317.822c-4.842 2.488-8.161 7.521-8.161 13.339 0 8.284 6.716 15 15 15 5.818 0 10.851-3.319 13.339-8.161-2.052 1.055-21.233-18.125-20.178-20.178z" fill="#4980ac"/><path d="m482 316.162c-2.466 0-4.787.606-6.839 1.661-1.055 2.052-1.661 4.373-1.661 6.839 0 8.284 6.716 15 15 15 2.466 0 4.787-.606 6.839-1.661 1.055-2.052 1.661-4.373 1.661-6.839 0-8.285-6.716-15-15-15z" fill="#81a9c8"/><path d="m475.161 437.822c-4.842 2.488-8.161 7.521-8.161 13.339 0 8.284 6.716 15 15 15 5.818 0 10.851-3.319 13.339-8.161-2.052 1.055-21.233-18.125-20.178-20.178z" fill="#4980ac"/><path d="m482 436.162c-2.466 0-4.787.606-6.839 1.661-1.055 2.052-1.661 4.373-1.661 6.839 0 8.284 6.716 15 15 15 2.466 0 4.787-.606 6.839-1.661 1.055-2.052 1.661-4.373 1.661-6.839 0-8.285-6.716-15-15-15z" fill="#81a9c8"/><path d="m396.779 227.105c-20.662-6.909-72.017-20.943-148.279-20.943-66.202 0-113.62 10.574-138.498 17.884l-.002-.002c-3.786 1.112-7.05 2.149-9.778 3.061-6.113 2.044-10.222 7.774-10.222 14.219v219.675c0 6.445 4.109 12.175 10.221 14.219 20.662 6.909 72.017 20.943 148.279 20.943s127.617-14.034 148.279-20.943c6.112-2.044 10.221-7.774 10.221-14.219v-2.722-216.953c0-6.445-4.109-12.175-10.221-14.219z" fill="#fff0af"/><path d="m120.221 455.218c-6.112-2.044-10.221-7.774-10.221-14.219v-216.955h-.001c-3.786 1.112-7.05 2.149-9.778 3.061-6.112 2.044-10.221 7.774-10.221 14.219v219.675c0 6.445 4.109 12.175 10.221 14.219 20.662 6.909 72.017 20.943 148.279 20.943s127.617-14.034 148.279-20.943c6.112-2.044 10.221-7.774 10.221-14.219v-2.722c-24.878 7.31-72.297 17.884-138.5 17.884-76.262.001-127.617-14.034-148.279-20.943z" fill="#ffd064"/><path d="m178.5 190.331s0-62.286 0-74.492c0-38.66 31.34-70 70-70s70 31.34 70 70v51.831c0 12.348 45 12.348 45 0s0-16.654 0-51.831c0-63.513-51.487-115-115-115s-115 51.487-115 115v82.178z" fill="#e9edf1"/><path d="m133.5 198.02v19.997l45-7.685s0-9.417 0-20.001c-17.471 2.151-32.514 4.903-45 7.689z" fill="#a2abb8"/><circle cx="238.5" cy="371.162" fill="#ffd064" r="115"/><circle cx="248.5" cy="351.162" fill="#de5791" r="115"/><path d="m298.604 410.052c-1.308-1.308-18.892-18.892-38.891-38.891 19.999-19.999 37.583-37.583 38.891-38.891 5.858-5.858 5.858-15.355 0-21.213s-15.355-5.858-21.213 0c-1.308 1.308-18.892 18.892-38.891 38.891-19.999-19.999-37.583-37.583-38.891-38.891-5.858-5.858-15.355-5.858-21.213 0s-5.858 15.355 0 21.213c1.308 1.308 18.892 18.892 38.891 38.891-19.999 19.999-37.583 37.583-38.891 38.891-5.858 5.858-5.858 15.355 0 21.213s15.355 5.858 21.213 0c1.308-1.308 18.892-18.892 38.891-38.891l38.891 38.891c5.858 5.858 15.355 5.858 21.213 0 5.858-5.857 5.858-15.355 0-21.213z" fill="#da0b62"/><path d="m308.604 390.052c-1.308-1.308-18.892-18.892-38.891-38.891 19.999-19.999 37.583-37.583 38.891-38.891 5.858-5.858 5.858-15.355 0-21.213s-15.355-5.858-21.213 0c-1.308 1.308-18.892 18.892-38.891 38.891-19.999-19.999-37.583-37.583-38.891-38.891-5.858-5.858-15.355-5.858-21.213 0s-5.858 15.355 0 21.213c1.308 1.308 18.892 18.892 38.891 38.891-19.999 19.999-37.583 37.583-38.891 38.891-5.858 5.858-5.858 15.355 0 21.213s15.355 5.858 21.213 0c1.308-1.308 18.892-18.892 38.891-38.891l38.891 38.891c5.858 5.858 15.355 5.858 21.213 0 5.858-5.857 5.858-15.355 0-21.213z" fill="#f9c8dc"/></g></svg>