<svg id="Capa_1" enable-background="new 0 0 497 497" height="512" viewBox="0 0 497 497" width="512" xmlns="http://www.w3.org/2000/svg"><g><path d="m482 342.25h-142l-5.316 2.097c-8.25 0-8.909 4.653-8.909 12.903v60c0 8.25.542 8.806 8.792 8.806l146.537.703c8.25 0 11.254-.777 11.254-9.027l4.642-5.482v-55c0-8.25-6.75-15-15-15z" fill="#bce097"/><path d="m497 117.25v145 5c0 8.25-6.75 15-15 15h-467c-8.25 0-15-6.75-15-15v-150c0-8.25 6.75-15 15-15h5 462c8.25 0 15 6.75 15 15z" fill="#bcd1e1"/><path d="m20 247.25v-145h-5c-8.25 0-15 6.75-15 15v150c0 8.25 6.75 15 15 15h467c8.25 0 15-6.75 15-15v-5h-462c-8.25 0-15-6.75-15-15z" fill="#81a9c8"/><path d="m340 397.25v-55h-5c-8.25 0-15 6.75-15 15v60c0 8.25 6.75 15 15 15h147c8.25 0 15-6.75 15-15v-5h-142c-8.25 0-15-6.75-15-15z" fill="#9cd169"/><path d="m439.9 411.15c-1.919 0-3.839-.732-5.304-2.197-2.929-2.929-2.929-7.677 0-10.606l3.597-3.597h-88.193c-4.143 0-7.5-3.358-7.5-7.5s3.357-7.5 7.5-7.5h88.193l-3.597-3.597c-2.929-2.929-2.929-7.678 0-10.606 2.931-2.93 7.679-2.929 10.607 0l16.399 16.4c2.929 2.929 2.929 7.678 0 10.606l-16.399 16.4c-1.464 1.464-3.384 2.197-5.303 2.197z" fill="#518f60"/><path d="m482 319.75h-467c-4.143 0-7.5-3.358-7.5-7.5s3.357-7.5 7.5-7.5h467c4.143 0 7.5 3.358 7.5 7.5s-3.357 7.5-7.5 7.5z" fill="#a2abb8"/><g fill="#365f7e"><path d="m423.5 220.804c-4.143 0-7.5-3.358-7.5-7.5v-8.063l-6.983 4.032c-3.586 2.071-8.173.842-10.245-2.745-2.071-3.587-.842-8.174 2.745-10.245l6.983-4.032-6.983-4.032c-3.587-2.071-4.816-6.658-2.745-10.245 2.07-3.587 6.659-4.817 10.245-2.745l6.983 4.032v-8.063c0-4.142 3.357-7.5 7.5-7.5s7.5 3.358 7.5 7.5v8.063l6.983-4.032c3.586-2.072 8.173-.842 10.245 2.745 2.071 3.587.842 8.174-2.745 10.245l-6.983 4.032 6.983 4.032c3.587 2.071 4.816 6.658 2.745 10.245s-6.66 4.816-10.245 2.745l-6.983-4.032v8.063c0 4.142-3.357 7.5-7.5 7.5z"/><path d="m353.5 220.804c-4.143 0-7.5-3.358-7.5-7.5v-8.063l-6.983 4.032c-3.586 2.071-8.173.842-10.245-2.745-2.071-3.587-.842-8.174 2.745-10.245l6.983-4.032-6.983-4.032c-3.587-2.071-4.816-6.658-2.745-10.245 2.069-3.587 6.659-4.817 10.245-2.745l6.983 4.032v-8.063c0-4.142 3.357-7.5 7.5-7.5s7.5 3.358 7.5 7.5v8.063l6.983-4.032c3.586-2.072 8.173-.842 10.245 2.745 2.071 3.587.842 8.174-2.745 10.245l-6.983 4.032 6.983 4.032c3.587 2.071 4.816 6.658 2.745 10.245-2.07 3.587-6.66 4.816-10.245 2.745l-6.983-4.032v8.063c0 4.142-3.357 7.5-7.5 7.5z"/><path d="m283.5 220.804c-4.143 0-7.5-3.358-7.5-7.5v-8.063l-6.983 4.032c-3.586 2.071-8.173.842-10.245-2.745-2.071-3.587-.842-8.174 2.745-10.245l6.983-4.032-6.983-4.032c-3.587-2.071-4.816-6.658-2.745-10.245 2.07-3.587 6.659-4.817 10.245-2.745l6.983 4.032v-8.063c0-4.142 3.357-7.5 7.5-7.5s7.5 3.358 7.5 7.5v8.063l6.983-4.032c3.586-2.072 8.173-.842 10.245 2.745 2.071 3.587.842 8.174-2.745 10.245l-6.983 4.032 6.983 4.032c3.587 2.071 4.816 6.658 2.745 10.245s-6.66 4.816-10.245 2.745l-6.983-4.032v8.063c0 4.142-3.357 7.5-7.5 7.5z"/><path d="m213.5 220.804c-4.143 0-7.5-3.358-7.5-7.5v-8.063l-6.983 4.032c-3.586 2.071-8.173.842-10.245-2.745-2.071-3.587-.842-8.174 2.745-10.245l6.983-4.032-6.983-4.032c-3.587-2.071-4.816-6.658-2.745-10.245 2.069-3.587 6.659-4.817 10.245-2.745l6.983 4.032v-8.063c0-4.142 3.357-7.5 7.5-7.5s7.5 3.358 7.5 7.5v8.063l6.983-4.032c3.586-2.072 8.173-.842 10.245 2.745 2.071 3.587.842 8.174-2.745 10.245l-6.983 4.032 6.983 4.032c3.587 2.071 4.816 6.658 2.745 10.245-2.07 3.587-6.66 4.816-10.245 2.745l-6.983-4.032v8.063c0 4.142-3.357 7.5-7.5 7.5z"/><path d="m143.5 220.804c-4.143 0-7.5-3.358-7.5-7.5v-8.063l-6.983 4.032c-3.586 2.071-8.173.842-10.245-2.745-2.071-3.587-.842-8.174 2.745-10.245l6.983-4.032-6.983-4.032c-3.587-2.071-4.816-6.658-2.745-10.245 2.07-3.587 6.659-4.817 10.245-2.745l6.983 4.032v-8.063c0-4.142 3.357-7.5 7.5-7.5s7.5 3.358 7.5 7.5v8.063l6.983-4.032c3.586-2.072 8.173-.842 10.245 2.745 2.071 3.587.842 8.174-2.745 10.245l-6.983 4.032 6.983 4.032c3.587 2.071 4.816 6.658 2.745 10.245s-6.66 4.816-10.245 2.745l-6.983-4.032v8.063c0 4.142-3.357 7.5-7.5 7.5z"/><path d="m73.5 220.804c-4.143 0-7.5-3.358-7.5-7.5v-8.063l-6.983 4.032c-3.586 2.071-8.173.842-10.245-2.745-2.071-3.587-.842-8.174 2.745-10.245l6.983-4.032-6.983-4.032c-3.587-2.071-4.816-6.658-2.745-10.245 2.069-3.587 6.659-4.817 10.245-2.745l6.983 4.03v-8.063c0-4.142 3.357-7.5 7.5-7.5s7.5 3.358 7.5 7.5v8.063l6.983-4.032c3.586-2.072 8.173-.842 10.245 2.745 2.071 3.587.842 8.174-2.745 10.245l-6.983 4.033 6.983 4.032c3.587 2.071 4.816 6.658 2.745 10.245-2.07 3.587-6.66 4.816-10.245 2.745l-6.983-4.031v8.063c0 4.142-3.357 7.5-7.5 7.5z"/></g><path d="m482 79.75h-467c-4.143 0-7.5-3.358-7.5-7.5s3.357-7.5 7.5-7.5h467c4.143 0 7.5 3.358 7.5 7.5s-3.357 7.5-7.5 7.5z" fill="#a2abb8"/></g></svg>