<svg id="Capa_1" enable-background="new 0 0 497 497" height="512" viewBox="0 0 497 497" width="512" xmlns="http://www.w3.org/2000/svg"><g><path d="m15 227.037h467v15h-467z" fill="#a2abb8"/><path d="m59.749 67.151c-4.081 2.174-7.993 4.371-11.687 6.587-2 1.2-3.062 3.864-3.062 6.567 0 34.312 14.549 234.628 56.206 310.688 24.8 45.282 106.519 93.51 145.806 105.778.489.153.988.229 1.488.229.499 0 .999-.076 1.487-.229 5.965-1.862 12.911-4.558 20.484-7.942-6.088-1.98-210.644-416.069-210.722-421.678z" fill="#ffd064"/><path d="m395.794 390.993c41.657-76.06 56.206-276.376 56.206-310.688 0-2.703-1.062-5.367-3.062-6.567-62.561-37.535-185.711-69.664-199.019-73.534-.936-.272-1.901-.272-2.838 0-12.522 3.641-122.291 32.304-187.332 66.947.078 5.609.175 11.295.296 16.957.925 43.268 16.022 229.759 54.317 299.68 22.263 40.649 97.517 85.129 134.138 97.687 8.621 2.956 15.883 5.375 21.971 7.355 42.309-18.907 104.288-59.429 125.323-97.837z" fill="#fff0af"/><path d="m108.006 211.365-18.046 23.172c8.577 55.778 20.978 111.774 37.557 142.046 17.579 32.096 82.217 74.189 120.982 88.954l18.586-27.08c-11.364 5.257-158.45-222.71-159.079-227.092z" fill="#7dc03a"/><path d="m421.686 92.854c-28.062-14.737-79.543-35.955-173.182-61.897l-153.177 52.194c-7.728 3.489-14.348 6.728-20.013 9.703 1.214 29.142 5.977 85.302 14.647 141.683h21.58c8.495 52.381 20.389 103.583 35.977 132.046 14.804 27.03 74.207 60.738 100.982 74.068h.001v24.885c38.76-14.763 103.403-56.858 120.981-88.953l37.558-142.046c8.669-56.382 13.432-112.541 14.646-141.683z" fill="#bce097"/><path d="m111.541 234.537h136.961l.001-203.581c-.001 0-.002-.001-.004-.001-74.733 20.705-122.616 38.402-153.172 52.196 1.234 29.224 5.992 85.191 14.634 141.386.513 3.335 1.04 6.67 1.58 10z" fill="#dcefc9"/><path d="m369.481 376.583c16.579-30.272 28.981-86.268 37.558-142.046h-158.537l-.002 206.113c.039-.016 73.977-24.088 120.981-64.067z" fill="#dcefc9"/><path d="m8.161 221.198c-4.842 2.488-8.161 7.521-8.161 13.339 0 8.284 6.716 15 15 15 5.818 0 10.851-3.319 13.339-8.161-2.052 1.055-21.233-18.126-20.178-20.178z" fill="#4980ac"/><path d="m15 219.537c-2.466 0-4.787.606-6.839 1.661-1.055 2.052-1.661 4.373-1.661 6.839 0 8.284 6.716 15 15 15 2.466 0 4.787-.606 6.839-1.661 1.055-2.052 1.661-4.373 1.661-6.839 0-8.284-6.716-15-15-15z" fill="#81a9c8"/><path d="m475.161 221.198c-4.842 2.488-8.161 7.521-8.161 13.339 0 8.284 6.716 15 15 15 5.818 0 10.851-3.319 13.339-8.161-2.052 1.055-21.233-18.126-20.178-20.178z" fill="#4980ac"/><path d="m482 219.537c-2.466 0-4.787.606-6.839 1.661-1.055 2.052-1.661 4.373-1.661 6.839 0 8.284 6.716 15 15 15 2.466 0 4.787-.606 6.839-1.661 1.055-2.052 1.661-4.373 1.661-6.839 0-8.284-6.716-15-15-15z" fill="#81a9c8"/><path d="m353.5 253.12c0-63.513-51.487-115-115-115-57.185 0-104.613 41.742-113.498 96.417l123.496 133.146c58.83-5.068 105.002-54.419 105.002-114.563z" fill="#bce097"/><path d="m125.002 234.537c-.983 6.05-1.502 12.256-1.502 18.583 0 63.513 51.487 115 115 115 3.37 0 6.703-.154 9.999-.438l-.001-133.146h-123.496z" fill="#7dc03a"/><circle cx="248.5" cy="233.12" fill="#9cd169" r="115"/><path d="m233.888 312.309c-3.979 0-7.793-1.581-10.606-4.394l-52.06-52.06c-5.858-5.858-5.858-15.355 0-21.213s15.355-5.857 21.213 0l41.453 41.453 93.315-93.315c5.857-5.858 15.355-5.858 21.213 0s5.858 15.355 0 21.213l-103.921 103.922c-2.813 2.813-6.629 4.394-10.607 4.394z" fill="#7dc03a"/><path d="m243.888 292.309c-3.979 0-7.793-1.581-10.606-4.394l-52.06-52.06c-5.858-5.858-5.858-15.355 0-21.213s15.355-5.857 21.213 0l41.453 41.453 93.315-93.315c5.857-5.858 15.355-5.858 21.213 0s5.858 15.355 0 21.213l-103.921 103.922c-2.813 2.813-6.629 4.394-10.607 4.394z" fill="#ebf7e0"/></g></svg>