<svg id="Capa_1" enable-background="new 0 0 511.927 511.927" height="512" viewBox="0 0 511.927 511.927" width="512" xmlns="http://www.w3.org/2000/svg"><g><g fill="#a2abb8"><path d="m261.167 207.252-103.721-33.701 103.721-33.701c3.94-1.28 6.095-5.511 4.815-9.45s-5.511-6.095-9.451-4.815l-103.721 33.701 64.103-88.23c2.435-3.351 1.692-8.041-1.659-10.476s-8.041-1.692-10.476 1.659l-64.103 88.23v-109.059c0-4.143-3.358-7.5-7.5-7.5s-7.5 3.357-7.5 7.5v109.059l-64.103-88.23c-2.435-3.352-7.125-4.094-10.476-1.659s-4.094 7.125-1.659 10.476l64.103 88.23-103.72-33.702c-3.94-1.28-8.171.876-9.451 4.815-1.28 3.939.875 8.17 4.815 9.45l103.721 33.701-103.721 33.702c-3.94 1.28-6.095 5.511-4.815 9.45s5.511 6.095 9.451 4.815l103.721-33.701-64.103 88.23c-2.435 3.351-1.692 8.041 1.659 10.476s8.041 1.692 10.476-1.659l64.103-88.23v109.059c0 4.143 3.358 7.5 7.5 7.5s7.5-3.357 7.5-7.5v-109.058l64.103 88.23c2.435 3.351 7.125 4.094 10.476 1.659s4.094-7.125 1.659-10.476l-64.103-88.23 103.721 33.701c3.94 1.28 8.171-.876 9.451-4.815 1.279-3.94-.876-8.171-4.816-9.451z"/><path d="m506.743 287.054-84.558-27.475 84.558-27.475c3.94-1.28 6.095-5.511 4.815-9.45s-5.511-6.095-9.451-4.815l-84.558 27.475 52.26-71.929c2.435-3.351 1.692-8.041-1.659-10.476s-8.041-1.692-10.476 1.659l-52.26 71.929v-88.91c0-4.143-3.358-7.5-7.5-7.5s-7.5 3.357-7.5 7.5v88.91l-52.26-71.929c-2.435-3.351-7.125-4.094-10.476-1.659s-4.094 7.125-1.659 10.476l52.26 71.929-84.558-27.475c-3.94-1.28-8.171.876-9.451 4.815s.875 8.17 4.815 9.45l84.558 27.475-84.558 27.475c-3.94 1.28-6.095 5.511-4.815 9.45s5.511 6.095 9.451 4.815l84.558-27.475-52.26 71.929c-2.435 3.351-1.692 8.041 1.659 10.476s8.041 1.692 10.476-1.659l52.26-71.929v88.91c0 4.143 3.358 7.5 7.5 7.5s7.5-3.357 7.5-7.5v-88.91l52.26 71.929c2.435 3.351 7.125 4.094 10.476 1.659s4.094-7.125 1.659-10.476l-52.26-71.929 84.558 27.475c3.94 1.28 8.171-.876 9.451-4.815s-.875-8.17-4.815-9.45z"/><path d="m287.699 414.367-45.514-14.788 45.514-14.788c3.94-1.28 6.095-5.511 4.815-9.45s-5.511-6.095-9.451-4.815l-45.514 14.788 28.129-38.716c2.435-3.352 1.692-8.042-1.659-10.476-3.351-2.435-8.041-1.692-10.476 1.659l-28.129 38.716v-47.857c0-4.143-3.358-7.5-7.5-7.5s-7.5 3.357-7.5 7.5v47.856l-28.129-38.716c-2.435-3.352-7.125-4.094-10.476-1.659s-4.094 7.125-1.659 10.476l28.129 38.716-45.514-14.788c-3.94-1.28-8.171.876-9.451 4.815s.875 8.17 4.815 9.45l45.514 14.788-45.514 14.788c-3.94 1.28-6.095 5.511-4.815 9.45s5.511 6.095 9.451 4.815l45.514-14.788-28.129 38.716c-2.435 3.352-1.692 8.042 1.659 10.476s8.041 1.692 10.476-1.659l28.129-38.716v47.856c0 4.143 3.358 7.5 7.5 7.5s7.5-3.357 7.5-7.5v-47.856l28.129 38.716c2.435 3.351 7.125 4.094 10.476 1.659s4.094-7.125 1.659-10.476l-28.129-38.716 45.514 14.788c3.94 1.28 8.171-.876 9.451-4.815s-.876-8.169-4.815-9.449z"/></g><path d="m39.661 204.323c1.867 5.745 87.534 67.942 93.515 67.942 6.041 0 91.667-62.254 93.515-67.942 1.867-5.745-30.881-106.418-35.719-109.933-4.887-3.551-110.752-3.515-115.591 0-4.888 3.55-37.568 104.245-35.72 109.933z" fill="#e592b8"/><path d="m90.141 187.921 16.438-50.59s-30.924-42.468-31.226-42.919c-2.15 1.591-8.789 9.96-15.774 19.398-9.139 12.348-8.872 26.526-9.917 29.744-1.867 5.745-11.848 55.081-10 60.77.005.015.013.034.018.05 1.998-.737 50.461-16.453 50.461-16.453z" fill="#de5791"/><path d="m59.579 113.809c-9.14 12.349-18.872 26.526-19.918 29.744-1.867 5.745-1.848 55.081 0 60.769.005.014.015.035.02.05.844-.311 9.412-3.461 19.261-6.929-1.742-7.757-1.292-77.696.637-83.634z" fill="#da0b62"/><path d="m190.971 94.39-31.198 42.941 16.438 50.59 50.48 16.402c1.867-5.745 1.848-55.081 0-60.77-1.867-5.745-30.881-45.648-35.72-49.163z" fill="#de5791"/><path d="m226.634 204.364s-47.947-17.705-50.423-16.443c-2.452 1.25-40.255 31.267-43.035 31.267l-5.873 8.972 5.873 44.106c6.041 0 42.957-15.263 47.795-18.779 2.704-1.965 22.77-15.055 31.535-27.319 7.075-9.901 13.302-19.264 14.128-21.804z" fill="#81a9c8"/><path d="m133.176 251.694v20.571c6.041 0 52.957-15.263 57.795-18.779 2.702-1.963 12.768-15.045 21.544-27.313-9.736 4.951-73.471 25.493-79.339 25.521z" fill="#4980ac"/><path d="m190.971 94.39c-4.887-3.551-51.814-18.779-57.795-18.779-6.041 0-52.957 15.263-57.795 18.779-.009.006-.019.015-.028.022.303.451 28.495 42.487 31.226 42.919 2.718.43 51.035.435 53.781 0 2.718-.431 30.611-42.941 30.611-42.941z" fill="#bcd1e1"/><path d="m90.141 187.921c-2.399-1.222-48.463 15.716-50.462 16.452 2.006 5.912 30.876 35.607 35.701 39.113 4.887 3.551 51.814 28.779 57.795 28.779v-53.078c-2.752 0-40.557-30.004-43.034-31.266z" fill="#da0b62"/><path d="m133.162 251.695c-5.981 0-42.922-13.656-45.384-15.444-2.437-1.771-26.878-32.716-28.745-38.461-.031-.096-.061-.214-.091-.346-9.849 3.467-18.417 6.618-19.261 6.929 1.995 5.898 30.873 45.607 35.7 49.114 4.887 3.551 51.814 18.779 57.795 18.779v-20.571c-.004-.001-.01 0-.014 0z" fill="#b3094e"/><path d="m339.127 278.728c1.173 3.612 55.014 42.717 58.773 42.717 3.797 0 57.611-39.141 58.773-42.717 1.173-3.612-19.408-66.907-22.449-69.117-3.072-2.232-69.606-2.21-72.647 0-3.072 2.232-23.612 65.541-22.45 69.117z" fill="#bcd1e1"/><path d="m361.559 271.436 13.881-42.736s-26.113-35.875-26.369-36.256c-1.62 1.199-6.259 6.958-11.43 13.849-8.206 10.935-7.753 24.721-8.709 27.664-1.576 4.853-11.561 46.53-10 51.335.004.013.011.029.015.043 1.688-.622 42.612-13.899 42.612-13.899z" fill="#de5791"/><path d="m337.887 278.544c-1.548-4.768-1.859-66.313-.245-72.25-8.207 10.936-17.754 24.72-18.71 27.663-1.576 4.853-1.561 46.53 0 51.335.004.012.013.03.017.042.787-.29 9.553-3.514 18.938-6.79z" fill="#da0b62"/><path d="m446.704 192.425-26.345 36.275 13.881 42.736 42.627 13.856c1.576-4.853 1.561-46.53 0-51.335-1.576-4.854-26.077-38.562-30.163-41.532z" fill="#81a9c8"/><path d="m476.819 285.327s-40.488-14.957-42.58-13.89c-2.071 1.056-33.993 26.413-36.34 26.413l-4.96 7.579 4.96 37.258c5.101 0 44.719-22.894 48.805-25.863 2.481-1.803 12.299-4.699 20.074-15.742 5.159-7.327 9.419-13.839 10.041-15.755z" fill="#f9c8dc"/><path d="m397.9 322.378v20.309c5.101 0 44.719-12.894 48.805-15.864 2.479-1.802 12.297-14.688 20.084-25.736-8.472 4.191-64.004 21.291-68.889 21.291z" fill="#e592b8"/><path d="m446.704 192.425c-4.127-3-43.754-15.864-48.805-15.864-5.101 0-44.719 12.894-48.805 15.864-.007.005-.016.013-.024.018.256.381 24.063 35.891 26.369 36.256 2.296.364 43.096.367 45.415 0 2.297-.363 25.85-36.274 25.85-36.274z" fill="#dce7ef"/><path d="m361.559 271.436c-2.026-1.033-40.924 13.276-42.612 13.898 1.694 4.994 36.073 28.527 40.147 31.489 4.127 3 33.754 25.863 38.805 25.863v-44.838c-2.324.001-34.248-25.345-36.34-26.412z" fill="#81a9c8"/><path d="m180.698 411.671c.743 2.286 34.836 27.039 37.217 27.039 2.404 0 36.481-24.776 37.217-27.039.743-2.286-12.29-42.352-14.215-43.751-1.945-1.413-44.077-1.399-46.002 0-1.947 1.414-14.953 41.487-14.217 43.751z" fill="#dce7ef"/><path d="m194.903 407.056 8.79-27.052s-16.536-22.709-16.698-22.95c-2.654 1.964-8.099 23.241-9.085 26.277-.998 3.072-10.988 29.453-10 32.495.003.008.007.018.01.027 1.068-.393 26.983-8.797 26.983-8.797z" fill="#bcd1e1"/><path d="m248.819 357.042-16.683 22.962 8.79 27.052 26.993 8.771c.998-3.072.988-29.453 0-32.495-.998-3.073-16.513-24.41-19.1-26.29z" fill="#e592b8"/><path d="m267.889 415.848s-25.638-9.467-26.963-8.793c-1.311.668-21.525 16.719-23.012 16.719l-3.141 4.798 3.141 23.584c3.23 0 18.317-8.162 20.905-10.042 2.613-1.897 28.082-23.224 29.07-26.266z" fill="#bcd1e1"/><path d="m248.819 357.042c-2.613-1.899-27.706-10.042-30.905-10.042-3.23 0-28.317 8.162-30.905 10.042-.005.003-.01.008-.015.012.162.241 15.237 22.719 16.698 22.95 1.454.23 27.29.233 28.758 0 1.454-.23 16.369-22.962 16.369-22.962z" fill="#f9c8dc"/><path d="m194.903 407.056c-1.283-.654-25.914 8.404-26.983 8.798 1.073 3.161 26.51 14.387 29.09 16.262 2.613 1.899 17.706 20.041 20.905 20.042v-28.382c-1.472-.001-21.688-16.045-23.012-16.72z" fill="#81a9c8"/><path d="m376.075 54.248c-4.842 2.488-8.161 7.521-8.161 13.339 0 8.284 6.716 15 15 15 5.818 0 10.851-3.319 13.339-8.161-2.052 1.055-21.232-18.126-20.178-20.178z" fill="#da0b62"/><path d="m382.914 52.587c-2.466 0-4.787.606-6.839 1.661-1.055 2.052-1.661 4.373-1.661 6.839 0 8.284 6.716 15 15 15 2.466 0 4.787-.606 6.839-1.661 1.055-2.052 1.661-4.373 1.661-6.839 0-8.284-6.715-15-15-15z" fill="#de5791"/><path d="m456.929 408.136c-4.842 2.488-8.161 7.521-8.161 13.339 0 8.284 6.716 15 15 15 5.818 0 10.851-3.319 13.339-8.161-2.052 1.055-21.232-18.125-20.178-20.178z" fill="#4980ac"/><path d="m463.769 406.475c-2.466 0-4.787.606-6.839 1.661-1.055 2.052-1.661 4.373-1.661 6.839 0 8.284 6.716 15 15 15 2.466 0 4.787-.606 6.839-1.661 1.055-2.052 1.661-4.373 1.661-6.839 0-8.284-6.716-15-15-15z" fill="#81a9c8"/><path d="m397.9 322.378c-5.051 0-34.329-11.279-36.407-12.789-2.058-1.496-22.028-26.191-23.605-31.044-9.385 3.276-18.152 6.5-18.939 6.79 1.684 4.982 26.07 38.527 30.146 41.489 4.127 3 43.752 15.863 48.804 15.864v-20.31z" fill="#4980ac"/><path d="m185.733 409.565c-.988-3.041.213-49.275 1.261-52.51-2.652 1.961-18.098 23.24-19.085 26.276-.998 3.072-.988 29.453 0 32.495.002.008.008.019.011.027.663-.244 10.242-3.766 17.813-6.288z" fill="#81a9c8"/><path d="m217.915 433.161v18.996c3.23 0 28.317-8.162 30.905-10.042 2.613-1.899 18.112-23.247 19.1-26.289-2.72 1.976-46.775 17.335-50.005 17.335z" fill="#81a9c8"/><path d="m198.765 425.935c-1.303-.947-12.034-13.297-13.032-16.37-7.571 2.522-17.151 6.044-17.813 6.288 1.066 3.154 16.509 24.387 19.089 26.262 2.613 1.899 27.706 10.042 30.905 10.042v-18.996c-3.198 0-17.832-6.27-19.149-7.226z" fill="#4980ac"/></g></svg>