<svg id="Capa_1" enable-background="new 0 0 497 497" height="512" viewBox="0 0 497 497" width="512" xmlns="http://www.w3.org/2000/svg"><g><path d="m248.5 99c-4.142 0-7.5-3.358-7.5-7.5v-58.5c0-4.142 3.358-7.5 7.5-7.5s7.5 3.358 7.5 7.5v58.5c0 4.142-3.358 7.5-7.5 7.5z" fill="#81a9c8"/><path d="m0 456.5c0 8.25 6.75 15 15 15h467c8.25 0 15-6.75 15-15v-5l-248.5-32.956-248.5 22.956z" fill="#a2abb8"/><path d="m20 91.5h-5c-8.25 0-15 6.75-15 15v46l248.5 22.956z" fill="#a2abb8"/><path d="m20.334 439.622c1.447 6.764 7.486 11.878 14.666 11.878h462v-10l-248.5-22.956z" fill="#c8d2dc"/><path d="m20 154.348 228.5 21.108 248.5-22.956v-46c0-8.25-6.75-15-15-15h-462z" fill="#c8d2dc"/><circle cx="466.5" cy="122" fill="#de5791" r="8"/><circle cx="436.5" cy="122" fill="#a2abb8" r="8"/><circle cx="406.5" cy="122" fill="#81a9c8" r="8"/><path d="m20.88 441.5h-20.88v-46.309c10.44-18.411 0-75 0-75v-45c10.44-28.371 0-75 0-75v-47.691h20z" fill="#bcd1e1"/><path d="m20 201.152c-6.488-.602-13.13-.961-20-.961v75c6.87 0 13.512-.358 20-.961l10-48.752z" fill="#dce7ef"/><path d="m0 395.191c6.87 0 13.512-.358 20-.961l10-33.291-10-39.788c-6.488-.602-13.13-.961-20-.961z" fill="#81a9c8"/><path d="m20 436.5c0 1.754.321 3.432.88 5h476.12v-289h-477v48.652s14.86 44.689 0 73.079v46.921s15.58 48.765 0 73.079z" fill="#dce7ef"/><path d="m124.249 260.191c44.584 0 79.666 15 124.249 15s79.666-15 124.249-15 79.666 15 124.249 15v-75c-44.584 0-79.666 15-124.249 15s-79.666-15-124.249-15-79.666 15-124.249 15c-37.714 0-68.63-10.732-104.249-14.039v73.079c35.619-3.308 66.535-14.04 104.249-14.04z" fill="#f7f9fa"/><path d="m124.249 380.191c44.584 0 79.666 15 124.249 15s79.666-15 124.249-15 79.666 15 124.249 15v-75c-44.584 0-79.666 15-124.249 15s-79.666-15-124.249-15-79.666 15-124.249 15c-37.714 0-68.63-10.732-104.249-14.039v73.079c35.619-3.308 66.535-14.04 104.249-14.04z" fill="#bcd1e1"/><path d="m248.5 252.691c-4.142 0-7.5-3.358-7.5-7.5v-92.691h15v92.691c0 4.142-3.358 7.5-7.5 7.5z" fill="#81a9c8"/><path d="m275.45 314.505c-9.108-10.644-17.128-20.023-19.024-33.259 8.507-3.213 14.574-11.437 14.574-21.054 0-12.407-10.093-22.5-22.5-22.5s-22.5 10.093-22.5 22.5c0 9.902 6.433 18.325 15.337 21.324 1.983 18.503 12.504 30.807 22.716 42.741 10.837 12.666 21.074 24.629 21.074 44.285 0 19.659-16.088 35.058-36.627 35.058-15.094 0-28.085-9.179-33.686-22.247l.831.461c3.62 2.011 8.187.707 10.198-2.914 2.012-3.621.707-8.187-2.914-10.198l-14.915-8.286c-2.323-1.291-5.155-1.255-7.446.092-2.29 1.348-3.696 3.807-3.696 6.464 0 28.467 23.16 51.627 51.627 51.627 28.95 0 51.627-21.988 51.627-50.058.001-25.197-13.109-40.519-24.676-54.036zm-26.95-61.814c4.136 0 7.5 3.364 7.5 7.5s-3.364 7.5-7.5 7.5-7.5-3.364-7.5-7.5 3.364-7.5 7.5-7.5z" fill="#4e5a61"/></g></svg>