<svg id="Capa_1" enable-background="new 0 0 496.797 496.797" height="512" viewBox="0 0 496.797 496.797" width="512" xmlns="http://www.w3.org/2000/svg"><g><g fill="#7e8b96"><path d="m248.402 140.797c-4.143 0-7.5-3.358-7.5-7.5v-113.297c0-4.142 3.357-7.5 7.5-7.5s7.5 3.358 7.5 7.5v113.297c0 4.142-3.357 7.5-7.5 7.5z"/><path d="m348.402 454.095c-4.143 0-7.5-3.358-7.5-7.5v-40.542l-46.095-46.094c-2.929-2.929-2.929-7.678 0-10.606 2.93-2.929 7.678-2.929 10.607 0l48.291 48.291c1.406 1.406 2.196 3.314 2.196 5.303v43.649c.001 4.141-3.356 7.499-7.499 7.499z"/><path d="m196.693 149.44c-1.919 0-3.839-.732-5.304-2.197l-48.291-48.291c-1.406-1.406-2.196-3.314-2.196-5.303v-43.649c0-4.142 3.357-7.5 7.5-7.5s7.5 3.358 7.5 7.5v40.542l46.095 46.094c2.929 2.929 2.929 7.678 0 10.606-1.465 1.465-3.385 2.198-5.304 2.198z"/><path d="m308.402 147.404c-4.143 0-7.5-3.358-7.5-7.5v-46.255c0-4.142 3.357-7.5 7.5-7.5h32.5v-36.149c0-4.142 3.357-7.5 7.5-7.5s7.5 3.358 7.5 7.5v43.649c0 4.142-3.357 7.5-7.5 7.5h-32.5v38.755c0 4.142-3.357 7.5-7.5 7.5z"/><path d="m148.402 454.095c-4.143 0-7.5-3.358-7.5-7.5v-43.649c0-4.142 3.357-7.5 7.5-7.5h32.5v-38.756c0-4.142 3.357-7.5 7.5-7.5s7.5 3.358 7.5 7.5v46.255c0 4.142-3.357 7.5-7.5 7.5h-32.5v36.149c0 4.143-3.357 7.501-7.5 7.501z"/><path d="m248.402 484.297c-4.143 0-7.5-3.358-7.5-7.5v-113.5c0-4.142 3.357-7.5 7.5-7.5s7.5 3.358 7.5 7.5v113.5c0 4.142-3.357 7.5-7.5 7.5z"/></g><path d="m45.254 228.371c-.119-.131-.221-.271-.335-.405-3.778 3.881-7.017 7.346-9.665 10.258-5.191 5.709-5.191 14.438 0 20.147 8.084 8.891 21.566 22.845 39.621 38.499 39.15 33.943 90.992 76.428 173.527 76.428s134.377-42.485 173.527-76.428c18.055-15.653 31.537-29.608 39.621-38.499 5.072-5.578 5.174-14.031.335-19.742-7.754 7.966-408.547-1.368-416.631-10.258z" fill="#a2abb8"/><path d="m421.929 199.725c-39.15-33.943-90.992-76.428-173.527-76.428s-134.377 42.485-173.527 76.428c-12.14 10.525-22.201 20.274-29.956 28.24.114.134.216.274.335.405 8.084 8.891 21.566 22.845 39.621 38.499 39.15 33.943 90.992 76.428 173.527 76.428s134.377-42.485 173.527-76.428c12.14-10.525 22.201-20.274 29.956-28.24-.114-.134-.216-.274-.335-.405-8.084-8.891-21.566-22.846-39.621-38.499z" fill="#c8d2dc"/><path d="m248.402 153.297c-52.467 0-95 42.533-95 95s42.533 95 95 95 95-42.533 95-95-42.533-95-95-95z" fill="#da0b62"/><path d="m288.286 270.127c-11.044 21.011-39.884 73.171-39.884 73.171s19.893 15.743 48.254 2.142c28.361-13.602 34.018-49.642 34.018-49.642s13.201-56.626-42.574-70.418l-.001.001c1.255 7.136 1.977 14.778 1.977 22.917.001 7.726-.65 15.005-1.79 21.829" fill="#f9c8dc"/><path d="m330.675 200.797s-42.439-39.746-82.271 1.661l.001.001c6.807 2.481 13.787 5.677 20.835 9.746 53.533 30.907 61.435 83.591 61.435 83.591s23.581-9.357 25.982-40.719c2.4-31.36-25.982-54.28-25.982-54.28z" fill="#efa5c4"/><path d="m248.402 153.297s-55.64 16.88-39.697 72.079h.001c5.552-4.654 11.81-9.101 18.858-13.171 53.533-30.907 103.11-11.409 103.11-11.409s3.688-25.1-22.272-42.86-60-4.639-60-4.639z" fill="#f9c8dc"/><path d="m166.13 200.797s-13.201 56.626 42.574 70.418l.001-.001c-1.255-7.136-1.977-14.778-1.977-22.917 0-61.814 41.675-95 41.675-95s-19.893-15.743-48.254-2.141-34.019 49.641-34.019 49.641z" fill="#efa5c4"/><path d="m166.13 295.797s42.439 39.746 82.271-1.661l-.001-.001c-6.807-2.481-13.787-5.677-20.835-9.746-53.533-30.907-61.435-83.591-61.435-83.591s-23.581 9.357-25.982 40.719c-2.4 31.361 25.982 54.28 25.982 54.28z" fill="#f9c8dc"/><path d="m248.402 343.297s31.421-25.021 39.697-72.079h-.001c-5.552 4.654-11.81 9.101-18.858 13.171-53.533 30.907-103.11 11.409-103.11 11.409s-3.688 25.1 22.272 42.86c25.96 17.759 60 4.639 60 4.639z" fill="#efa5c4"/><path d="m330.675 295.797s23.581-9.357 25.982-40.719-25.982-54.281-25.982-54.281-28.073-23.54-45.055-5.897c34.291 22.323 51.006 62.297 45.055 100.897z" fill="#de5791"/><path d="m261.494 149.916c-7.882 1.381-42.452 8.622-34.423 28.468 18.246-.535 36.862 3.825 53.831 13.622 1.608.928 3.178 1.896 4.716 2.897 26.576-1.372 45.057 5.895 45.057 5.895s-7.593-50.882-69.181-50.882z" fill="#e592b8"/><path d="m166.13 200.797c17.406-13.978 38.903-21.764 60.941-22.409 10.581-16.524 21.331-25.091 21.331-25.091s-21.378-12.04-48.254-2.141c-29.515 10.87-34.018 49.64-34.018 49.641z" fill="#de5791"/><path d="m341.563 438.255c-4.842 2.488-8.161 7.521-8.161 13.339 0 8.284 6.716 15 15 15 5.818 0 10.851-3.319 13.339-8.161-2.052 1.055-21.232-18.126-20.178-20.178z" fill="#de5791"/><path d="m348.402 436.594c-2.466 0-4.787.606-6.839 1.661-1.055 2.052-1.661 4.373-1.661 6.839 0 8.284 6.716 15 15 15 2.466 0 4.787-.606 6.839-1.661 1.055-2.052 1.661-4.373 1.661-6.839 0-8.284-6.715-15-15-15z" fill="#e592b8"/><path d="m241.563 468.458c-4.842 2.488-8.161 7.521-8.161 13.339 0 8.284 6.716 15 15 15 5.818 0 10.851-3.319 13.339-8.161-2.052 1.055-21.232-18.126-20.178-20.178z" fill="#de5791"/><path d="m248.402 466.797c-2.466 0-4.787.606-6.839 1.661-1.055 2.052-1.661 4.373-1.661 6.839 0 8.284 6.716 15 15 15 2.466 0 4.787-.606 6.839-1.661 1.055-2.052 1.661-4.373 1.661-6.839 0-8.284-6.715-15-15-15z" fill="#e592b8"/><path d="m141.563 438.255c-4.842 2.488-8.161 7.521-8.161 13.339 0 8.284 6.716 15 15 15 5.818 0 10.851-3.319 13.339-8.161-2.052 1.055-21.232-18.126-20.178-20.178z" fill="#de5791"/><path d="m148.402 436.594c-2.466 0-4.787.606-6.839 1.661-1.055 2.052-1.661 4.373-1.661 6.839 0 8.284 6.716 15 15 15 2.466 0 4.787-.606 6.839-1.661 1.055-2.052 1.661-4.373 1.661-6.839 0-8.284-6.715-15-15-15z" fill="#e592b8"/><path d="m141.563 31.661c-4.842 2.488-8.161 7.521-8.161 13.339 0 8.284 6.716 15 15 15 5.818 0 10.851-3.319 13.339-8.161-2.052 1.055-21.232-18.126-20.178-20.178z" fill="#de5791"/><path d="m148.402 30c-2.466 0-4.787.606-6.839 1.661-1.055 2.052-1.661 4.373-1.661 6.839 0 8.284 6.716 15 15 15 2.466 0 4.787-.606 6.839-1.661 1.055-2.052 1.661-4.373 1.661-6.839 0-8.284-6.715-15-15-15z" fill="#e592b8"/><path d="m241.563 1.661c-4.842 2.488-8.161 7.521-8.161 13.339 0 8.284 6.716 15 15 15 5.818 0 10.851-3.319 13.339-8.161-2.052 1.055-21.232-18.126-20.178-20.178z" fill="#de5791"/><path d="m248.402 0c-2.466 0-4.787.606-6.839 1.661-1.055 2.052-1.661 4.373-1.661 6.839 0 8.284 6.716 15 15 15 2.466 0 4.787-.606 6.839-1.661 1.055-2.052 1.661-4.373 1.661-6.839 0-8.284-6.715-15-15-15z" fill="#e592b8"/><path d="m341.563 31.661c-4.842 2.488-8.161 7.521-8.161 13.339 0 8.284 6.716 15 15 15 5.818 0 10.851-3.319 13.339-8.161-2.052 1.055-21.232-18.126-20.178-20.178z" fill="#de5791"/><path d="m348.402 30c-2.466 0-4.787.606-6.839 1.661-1.055 2.052-1.661 4.373-1.661 6.839 0 8.284 6.716 15 15 15 2.466 0 4.787-.606 6.839-1.661 1.055-2.052 1.661-4.373 1.661-6.839 0-8.284-6.715-15-15-15z" fill="#e592b8"/><path d="m373.402 248.297c0 69.036-55.964 125-125 125s-125-55.964-125-125 55.964-125 125-125 125 55.965 125 125zm-125-95c-52.467 0-95 42.533-95 95s42.533 95 95 95 95-42.533 95-95-42.533-95-95-95z" fill="#e9edf1"/><path d="m248.402 115.797c-73.178 0-132.5 59.322-132.5 132.5s59.322 132.5 132.5 132.5 132.5-59.322 132.5-132.5-59.322-132.5-132.5-132.5zm0 250c-64.893 0-117.5-52.607-117.5-117.5s52.607-117.5 117.5-117.5 117.5 52.607 117.5 117.5-52.606 117.5-117.5 117.5z" fill="#7e8b96"/></g></svg>