<svg id="Capa_1" enable-background="new 0 0 497 497" height="512" viewBox="0 0 497 497" width="512" xmlns="http://www.w3.org/2000/svg"><g><path d="m416.211 282.886 46.714 15.204 4.244-13.04c1.282-3.939 5.515-6.091 9.453-4.811 3.938 1.282 6.093 5.514 4.811 9.453l-6.557 20.144c-.003.009-.006.019-.009.028s-.006.019-.01.028l-6.556 20.143c-1.282 3.939-5.515 6.094-9.453 4.811-3.938-1.282-6.093-5.514-4.811-9.453l4.244-13.04-45.191-14.709z" fill="#7e8b96"/><path d="m78.054 299.551-39.337 12.803 4.244 13.04c1.282 3.939-.872 8.171-4.811 9.453-3.94 1.283-8.171-.872-9.453-4.811l-6.556-20.143c-.004-.01-.007-.019-.01-.028s-.006-.019-.009-.028l-6.557-20.144c-1.282-3.939.872-8.171 4.811-9.453 3.939-1.28 8.171.871 9.453 4.811l4.244 13.04 40.86-13.299z" fill="#7e8b96"/><path d="m59.749 67.151c-4.081 2.174-7.993 4.371-11.687 6.587-2 1.2-3.062 3.864-3.062 6.567 0 34.312 14.549 234.628 56.206 310.688 24.8 45.282 106.519 93.51 145.806 105.778.489.153.988.229 1.488.229.499 0 .999-.076 1.487-.229 5.965-1.862 12.911-4.558 20.484-7.942-6.088-1.98-210.644-416.069-210.722-421.678z" fill="#ffd064"/><path d="m395.794 390.993c41.657-76.06 56.206-276.376 56.206-310.688 0-2.703-1.062-5.367-3.062-6.567-62.561-37.535-185.711-69.664-199.019-73.534-.936-.272-1.901-.272-2.838 0-12.522 3.641-122.291 32.304-187.332 66.947.078 5.609.175 11.295.296 16.957.925 43.268 16.022 229.759 54.317 299.68 22.263 40.649 97.517 85.129 134.138 97.687 8.621 2.956 15.883 5.375 21.971 7.355 42.309-18.907 104.288-59.429 125.323-97.837z" fill="#fff0af"/><path d="m82.981 182.491c3.852 32.962 24.279 57.215 15.94 102.381 7.6 37.11 17.093 70.502 28.597 91.508 2.362 4.313 5.574 8.806 9.458 13.389 61.724 10.856 77.968 62.785 111.525 75.565 33.542-12.775 86.448-46.017 111.482-75.536-29.487 25.431-263.422-277.423-264.656-306.647l-.18-.119c-7.646 3.456-14.215 6.669-19.833 9.619.836 20.059 3.352 52.918 7.667 89.84z" fill="#4980ac"/><path d="m95.147 83.032c.976 23.128 4.343 63.129 9.912 106.614l-22.078-7.155c3.852 32.963 9.137 69.159 15.94 102.381l20.786-6.776c8.006 38.763 16.83 68.438 27.81 88.487.835 1.525 1.82 3.073 2.925 4.635l-13.465 18.547c25.022 29.527 77.963 62.788 111.522 75.569v-24.683c.039-.016 81.995-25.421 111.481-50.852.279-.328 30.497-67.815 38.097-104.926 6.803-33.22 12.088-69.419 15.94-102.381 4.314-36.921-21.501-104.035-44.449-112.859-29.301-11.267-68.556-24.33-121.07-38.879-52.512 14.548-72.12 49.552-121.07 38.879-12.486 4.801-23.153 9.274-32.281 13.399z" fill="#81a9c8"/><path d="m414.018 182.491c4.315-36.92 6.832-69.781 7.668-89.84-12.324-6.472-29.169-14.195-52.116-23.019l-219.127 301.586c18.486 26.135 72.792 56.854 98.057 69.432h.001v-409.898c-52.513 14.548-91.767 27.612-121.07 38.88l232.59 320.133c3.883-4.582 7.1-9.074 9.461-13.385 11.504-21.006 20.997-54.399 28.596-91.508l-293.019-95.226c1.468 11.461 3.099 23.17 4.901 34.891 3.171 19.435 6.388 37.291 9.748 53.559z" fill="#bcd1e1"/><path d="m256 145.384c0 4.142-3.358 7.5-7.5 7.5s-7.5-3.358-7.5-7.5c0-1.924 0-28.076 0-30 0-4.142 3.358-7.5 7.5-7.5s7.5 3.358 7.5 7.5zm0 181.655c0-4.142-3.358-7.5-7.5-7.5s-7.5 3.358-7.5 7.5v30c0 4.142 3.358 7.5 7.5 7.5s7.5-3.358 7.5-7.5c0-1.924 0-28.077 0-30zm-72.453-192.987c-2.435-3.351-7.125-4.094-10.476-1.659s-4.094 7.125-1.659 10.476c1.131 1.556 16.503 22.714 17.634 24.271 2.435 3.351 7.125 4.094 10.476 1.659s4.094-7.125 1.659-10.476c-1.131-1.557-16.503-22.715-17.634-24.271zm124.408 171.232c-2.435-3.351-7.125-4.094-10.476-1.659s-4.094 7.125-1.659 10.476c1.131 1.556 16.503 22.714 17.634 24.271 2.435 3.351 7.125 4.094 10.476 1.659s4.094-7.125 1.659-10.476c-1.132-1.557-16.504-22.715-17.634-24.271zm-172.051-113.543c-3.939-1.28-8.171.876-9.451 4.815s.876 8.171 4.815 9.451c1.829.594 26.702 8.676 28.532 9.271 3.939 1.28 8.171-.876 9.451-4.815 1.28-3.94-.876-8.171-4.815-9.451-1.83-.595-26.702-8.677-28.532-9.271zm201.296 65.405c-3.939-1.28-8.171.876-9.451 4.815s.876 8.171 4.815 9.451c1.829.594 26.702 8.676 28.532 9.271 3.939 1.28 8.171-.876 9.451-4.815 1.28-3.94-.876-8.171-4.815-9.451-1.83-.595-26.703-8.677-28.532-9.271zm-205.931 9.27c-3.939 1.28-6.095 5.511-4.815 9.451 1.28 3.939 5.511 6.095 9.451 4.815 1.829-.594 26.702-8.676 28.532-9.271 3.939-1.28 6.095-5.511 4.815-9.451s-5.511-6.095-9.451-4.815c-1.83.595-26.703 8.677-28.532 9.271zm201.295-65.405c-3.939 1.28-6.095 5.511-4.815 9.451 1.28 3.939 5.511 6.095 9.451 4.815 1.829-.594 26.702-8.676 28.532-9.271 3.939-1.28 6.095-5.511 4.815-9.451s-5.511-6.095-9.451-4.815c-1.83.595-26.702 8.677-28.532 9.271zm-161.152 128.543c-2.435 3.351-1.692 8.041 1.659 10.476s8.041 1.692 10.476-1.659c1.131-1.556 16.503-22.714 17.634-24.271 2.435-3.351 1.692-8.041-1.659-10.476s-8.041-1.692-10.476 1.659c-1.131 1.557-16.503 22.715-17.634 24.271zm124.407-171.232c-2.435 3.351-1.692 8.041 1.659 10.476s8.041 1.692 10.476-1.659c1.131-1.556 16.503-22.714 17.634-24.271 2.435-3.351 1.692-8.041-1.659-10.476s-8.041-1.692-10.476 1.659c-1.131 1.557-16.503 22.715-17.634 24.271z" fill="#7e8b96"/><path d="m178.9 258.826c1.389 4.276 65.148 50.567 69.6 50.567 4.496 0 68.224-46.334 69.599-50.567 1.389-4.276-22.983-79.203-26.585-81.819-3.637-2.643-82.429-2.616-86.03 0-3.636 2.642-27.959 77.585-26.584 81.819z" fill="#e592b8"/><path d="m205.465 250.194 16.438-50.59s-30.924-42.468-31.226-42.919c-2.15 1.591-8.789 9.96-15.774 19.398-9.139 12.348-8.872 26.526-9.917 29.744-1.867 5.745-11.848 55.081-10 60.77.005.015.013.034.018.05 1.998-.737 50.461-16.453 50.461-16.453z" fill="#de5791"/><path d="m174.903 176.083c-9.14 12.349-18.872 26.526-19.918 29.744-1.867 5.745-1.848 55.081 0 60.769.005.014.015.035.02.05.844-.311 9.412-3.461 19.261-6.929-1.742-7.757-1.291-77.697.637-83.634z" fill="#da0b62"/><path d="m306.295 156.663-31.198 42.941 16.438 50.59 50.48 16.402c1.867-5.745 1.848-55.081 0-60.77-1.867-5.745-30.881-45.648-35.72-49.163z" fill="#de5791"/><path d="m341.958 266.637s-47.947-17.705-50.423-16.443c-2.452 1.25-40.255 31.267-43.035 31.267l-5.873 8.972 5.873 44.106c6.041 0 42.957-15.263 47.795-18.779 2.704-1.965 22.77-15.055 31.535-27.319 7.075-9.901 13.303-19.263 14.128-21.804z" fill="#f9c8dc"/><path d="m248.5 313.968v20.571c6.041 0 52.957-15.263 57.795-18.779 2.702-1.963 12.768-15.045 21.544-27.313-9.736 4.951-73.471 25.492-79.339 25.521z" fill="#e592b8"/><path d="m306.295 156.663c-4.887-3.551-51.814-18.779-57.795-18.779-6.041 0-52.957 15.263-57.795 18.779-.009.006-.019.015-.028.022.303.451 28.495 42.487 31.226 42.919 2.718.43 51.035.435 53.781 0 2.719-.431 30.611-42.941 30.611-42.941z" fill="#f9c8dc"/><path d="m205.465 250.194c-2.399-1.222-48.463 15.716-50.462 16.452 2.006 5.912 30.876 35.607 35.701 39.113 4.887 3.551 51.814 28.779 57.795 28.779v-53.078c-2.751.001-40.557-30.004-43.034-31.266z" fill="#da0b62"/><path d="m248.486 313.969c-5.981 0-42.922-13.656-45.384-15.444-2.437-1.771-26.878-32.716-28.745-38.461-.031-.096-.061-.214-.091-.346-9.849 3.467-18.417 6.618-19.261 6.929 1.995 5.898 30.873 45.607 35.7 49.114 4.887 3.551 51.814 18.779 57.795 18.779v-20.571c-.004-.001-.01 0-.014 0z" fill="#b3094e"/></g></svg>