<svg id="Capa_1" enable-background="new 0 0 497 497" height="512" viewBox="0 0 497 497" width="512" xmlns="http://www.w3.org/2000/svg"><g><path d="m482 405.6-406.667 10h-60.333c-8.25 0-15-6.75-15-15v-67.5l6.5-7.677-6.5-7.323v-75l20-45.42-20-59.58v-67.5c0-8.25 6.75-15 15-15h143.167l90.333 10.32 90.333-10.32h143.167c8.25 0 15 6.75 15 15v96.556c0 8.25-6.75 238.444-15 238.444z" fill="#c8d2dc"/><path d="m323.833 55.6h-150.666l-7.5 89.823h165.666z" fill="#dce6eb"/><path d="m248.5 145.6h165.667v89.823h-165.667z" fill="#b9c3cd"/><path d="m243.425 325.423h-165.666l12.574 89.823h153.092z" fill="#b9c3cd"/><path d="m165.667 235.6h165.667v89.823h-165.667z" fill="#dce6eb"/><path d="m82.833 145.777-82.833 7.5v74.823l82.833 7.5z" fill="#dce6eb"/><path d="m190.009 415.6c-24.343-11.16-34.565-45.065-7.435-70.52 24.783-23.252 66.215-39.48 94.537-92.711 6.594-12.393 24.141 10.391 34.221 41.231 73.687-60 73.216-132.84 83.296-135.72s29.258 34.68 39.371 57.72c20.193-24.48 63-60.084 63-48.444s0 13.124 0 30.884-306.99 217.56-306.99 217.56z" fill="#b9c3cd"/><path d="m497 153.1v-15h-158.167v-82.5h-15v82.5h-150.666v-82.5h-15v82.5h-158.167v15h75.333v75h-75.333v15h158.167v75h-158.167v15h75.333v82.146h15v-82.146h150.667v82.146h15v-82.146h231v-15h-148.167v-75h148.167v-15h-65.227v-75zm-406.667 0h150.667v75h-150.667zm233.5 165h-150.666v-75h150.667v75zm82.94-90h-150.773v-75h150.772v75z" fill="#a2abb8"/><path d="m233.575 441.4c-50.315 0-58.13-50.865-31-76.32 24.783-23.252 66.215-39.48 94.537-92.711 6.594-12.393 24.141 10.391 34.221 41.231 73.687-60 73.216-132.84 83.296-135.72s29.258 34.68 39.371 57.72c20.193-24.48 43-49.2 43-37.56s0 42.72 0 60.48c0 157.08-176.828 182.88-199.888 182.88-13.426 0-45.525 0-63.537 0z" fill="#ffd064"/><path d="m497 400.6c0-11.374 0-86.478 0-142.08-9.839 18.84-30.027 46.32-53.1 67.08-10.08-26.52-23.04-41.16-23.04-41.16-44.527 71.16-116.566 86.16-142.201 111.53-21.44 21.218-5.159 45.43 18.453 45.43h156.888c23.06 0 43-23.04 43-40.8z" fill="#e592b8"/></g></svg>