<svg id="Capa_1" enable-background="new 0 0 497 497" height="512" viewBox="0 0 497 497" width="512" xmlns="http://www.w3.org/2000/svg"><g><path d="m292.25 129.492s0-2.286 0-14.492c0-38.66-31.34-70-70-70s-70 31.34-70 70v14.492l-45 7.685s0-1.758 0-22.178c0-63.513 51.487-115 115-115s115 51.487 115 115v22.178z" fill="#e9edf1"/><path d="m107.25 137.182v19.997l45-7.685s0-9.417 0-20.001c-17.471 2.15-32.514 4.902-45 7.689z" fill="#a2abb8"/><path d="m292.25 129.492v20.001l45 7.685s0-6.575 0-19.997c-12.486-2.786-27.529-5.538-45-7.689z" fill="#a2abb8"/><path d="m83.749 163.205c-3.786 1.112-7.05 2.149-9.778 3.061-6.113 2.044-10.221 7.774-10.221 14.219v281.352c0 6.445 4.109 12.175 10.221 14.219 20.662 6.91 72.017 20.944 148.279 20.944l10-195.802z" fill="#ffd064"/><path d="m388.25 461.838v-2.722l-166-157.918v195.802c76.262 0 135.117-14.034 155.779-20.943 6.112-2.044 10.221-7.774 10.221-14.219z" fill="#81a9c8"/><path d="m83.75 163.208v278.63c0 6.445 4.109 12.175 10.221 14.219 18.8 6.286 63.018 18.468 128.279 20.613l10-162.15-10-169.197c-66.203 0-113.622 10.574-138.5 17.885z" fill="#fff0af"/><path d="m388.25 459.116v-278.63c0-6.445-4.109-12.175-10.221-14.219-20.662-6.909-79.517-20.943-155.779-20.943v331.346c6.464.212 13.127.33 20 .33 66.203 0 121.122-10.574 146-17.884z" fill="#bcd1e1"/><path d="m425.75 456.808c-4.143 0-7.5-3.358-7.5-7.5v-58c0-4.142 3.357-7.5 7.5-7.5s7.5 3.358 7.5 7.5v58c0 4.142-3.357 7.5-7.5 7.5zm-67.5 0c-16.542 0-30-13.458-30-30v-13c0-16.542 13.458-30 30-30s30 13.458 30 30v13c0 16.542-13.458 30-30 30zm0-58c-8.271 0-15 6.729-15 15v13c0 8.271 6.729 15 15 15s15-6.729 15-15v-13c0-8.271-6.729-15-15-15zm-67.5 58c-4.143 0-7.5-3.358-7.5-7.5v-58c0-4.142 3.357-7.5 7.5-7.5s7.5 3.358 7.5 7.5v58c0 4.142-3.357 7.5-7.5 7.5zm-45 0c-4.143 0-7.5-3.358-7.5-7.5v-58c0-4.142 3.357-7.5 7.5-7.5s7.5 3.358 7.5 7.5v58c0 4.142-3.357 7.5-7.5 7.5zm180-97c-4.143 0-7.5-3.358-7.5-7.5v-58c0-4.142 3.357-7.5 7.5-7.5s7.5 3.358 7.5 7.5v58c0 4.142-3.357 7.5-7.5 7.5zm-45 0c-4.143 0-7.5-3.358-7.5-7.5v-58c0-4.142 3.357-7.5 7.5-7.5s7.5 3.358 7.5 7.5v58c0 4.142-3.357 7.5-7.5 7.5zm-67.5 0c-16.542 0-30-13.458-30-30v-13c0-16.542 13.458-30 30-30s30 13.458 30 30v13c0 16.542-13.458 30-30 30zm0-58c-8.271 0-15 6.729-15 15v13c0 8.271 6.729 15 15 15s15-6.729 15-15v-13c0-8.271-6.729-15-15-15zm-67.5 58c-4.143 0-7.5-3.358-7.5-7.5v-58c0-4.142 3.357-7.5 7.5-7.5s7.5 3.358 7.5 7.5v58c0 4.142-3.357 7.5-7.5 7.5zm157.5-97c-16.542 0-30-13.458-30-30v-13c0-16.542 13.458-30 30-30s30 13.458 30 30v13c0 16.542-13.458 30-30 30zm0-58c-8.271 0-15 6.729-15 15v13c0 8.271 6.729 15 15 15s15-6.729 15-15v-13c0-8.271-6.729-15-15-15zm-67.5 58c-4.143 0-7.5-3.358-7.5-7.5v-58c0-4.142 3.357-7.5 7.5-7.5s7.5 3.358 7.5 7.5v58c0 4.142-3.357 7.5-7.5 7.5zm-67.5 0c-16.542 0-30-13.458-30-30v-13c0-16.542 13.458-30 30-30s30 13.458 30 30v13c0 16.542-13.458 30-30 30zm0-58c-8.271 0-15 6.729-15 15v13c0 8.271 6.729 15 15 15s15-6.729 15-15v-13c0-8.271-6.729-15-15-15z" fill="#4980ac"/></g></svg>