<svg id="Capa_1" enable-background="new 0 0 497 497" height="512" viewBox="0 0 497 497" width="512" xmlns="http://www.w3.org/2000/svg"><g><path d="m427 282.75s-66.54 74.4-66.54 112.044 29.16 77.956 66.54 77.956c28.94 0 70-4.425 70-44.253 0-44.531-25.66-69.187-70-145.747" fill="#7e8b96"/><path d="m70 282.75c-44.34 76.56-70 101.216-70 145.747 0 39.829 41.06 44.253 70 44.253 37.38 0 66.54-40.311 66.54-77.956s-66.54-112.044-66.54-112.044" fill="#7e8b96"/><path d="m427 367.25s-38.607 14.74-38.607 66.893c0 24.073 14.907 38.607 38.607 38.607 28.94 0 70-4.425 70-44.253 0-44.531-70-61.247-70-61.247" fill="#a2abb8"/><path d="m70 367.25s-70 16.716-70 61.247c0 39.829 41.06 44.253 70 44.253 23.7 0 38.607-14.534 38.607-38.607 0-52.153-38.607-66.893-38.607-66.893" fill="#a2abb8"/><path d="m70 472.75c0 8.25 6.75 15 15 15h327c8.25 0 15-6.75 15-15l-184.385-10z" fill="#c8d2dc"/><path d="m427 472.75v-7.51c0-4.119-3.371-7.49-7.49-7.49l-171.01-15-171.01 15c-4.119 0-7.49 3.371-7.49 7.49v7.51z" fill="#e9edf1"/><path d="m248.5 247.75c-84.6 0-136.022-20-136.022-20s11.991-70.227 41.652-111.54c17.601-24.515 45.976-45.82 94.369-45.82s76.768 21.305 94.369 45.82c29.661 41.312 41.652 111.54 41.652 111.54s-51.42 20-136.02 20z" fill="#4e5a61"/><path d="m324.544 227.75-85.98 16.597-66.109-16.597-6.922-44.12s-53.056-107.969 82.966-107.969 82.966 107.969 82.966 107.969z" fill="#bcd1e1"/><path d="m190.757 134.573c-27.591 0-40.119 6.989-40.119 18.36 0 27.989 15.382 44.817 42.973 44.817s41.973-13.975 41.973-41.964c0-11.371-17.236-21.213-44.827-21.213z" fill="#f9c8dc"/><path d="m306.243 134.573c27.591 0 40.119 6.989 40.119 18.36 0 27.989-15.382 44.817-42.973 44.817s-41.973-13.975-41.973-41.964c.001-11.371 17.236-21.213 44.827-21.213z" fill="#f9c8dc"/><g><path d="m303.389 205.25c-30.863 0-48.312-16.439-49.417-46.39-2.919-.685-8.025-.685-10.944 0-1.105 29.951-18.554 46.39-49.417 46.39-15.56 0-28.451-4.93-37.28-14.257-8.631-9.118-13.193-22.279-13.193-38.061 0-8.693 4.958-15.867 13.959-20.202 7.908-3.807 18.918-5.658 33.66-5.658 23.236 0 41.187 6.716 48.608 17.271 2.538-.632 5.563-.993 9.135-.993s6.597.361 9.135.993c7.421-10.555 25.372-17.271 48.608-17.271 14.742 0 25.752 1.851 33.66 5.658 9.002 4.334 13.959 11.509 13.959 20.202 0 15.782-4.562 28.942-13.193 38.061-8.829 9.327-21.72 14.257-37.28 14.257zm2.854-63.177c-24.034 0-37.326 8.108-37.326 13.713 0 23.513 10.954 34.464 34.473 34.464 29.318 0 35.473-20.293 35.473-37.317-.001-6.801-12.195-10.86-32.62-10.86zm-115.486 0c-20.425 0-32.619 4.06-32.619 10.86 0 17.024 6.154 37.317 35.473 37.317 23.519 0 34.473-10.951 34.473-34.464-.001-5.605-13.292-13.713-37.327-13.713z" fill="#7e8b96"/></g><path d="m248.5 100.39c48.393 0 78.162 21.305 96.083 45.82 30.2 41.312 39.939 81.54 39.939 81.54-23.264-113.795-30.305-218.5-136.022-218.5s-112.758 104.705-136.022 218.5c0 0 9.739-40.227 39.939-81.54 17.921-24.515 47.69-45.82 96.083-45.82z" fill="#a2abb8"/><path d="m412 457.75h-327c-8.25 0-15-6.75-15-15v-200c0-8.25 6.75-15 15-15h.977l341.023 213.366v1.634c0 8.25-6.75 15-15 15z" fill="#c8d2dc"/><path d="m412 227.75h-148.129c-7.383 5.56-15.756 0-15.756 0h-162.138v198.366c0 8.25 6.75 15 15 15h326.023v-198.366c0-8.25-6.75-15-15-15z" fill="#e9edf1"/><path d="m248.116 227.75-34.778 108.205c-.733 2.282-.332 4.776 1.08 6.713s3.664 3.082 6.061 3.082h38.711l-25.323 78.785c-1.268 3.943.902 8.167 4.845 9.435 3.941 1.266 8.167-.902 9.435-4.845l28.471-88.58c.733-2.282.332-4.776-1.08-6.713s-3.664-3.082-6.061-3.082h-38.711l33.105-103z" fill="#bcd1e1"/></g></svg>