<svg id="Capa_1" enable-background="new 0 0 497 497" height="512" viewBox="0 0 497 497" width="512" xmlns="http://www.w3.org/2000/svg"><g><path d="m413.442 325.623s3.833 171.377-17.577 171.377-58.51 0-155.506 0-74.833-156.66-74.833-156.66c47.176-9.78 187.031-48.29 192.323-40.874 8.82 12.36 26.108 20.044 55.593 26.157" fill="#bcd1e1"/><path d="m207.514 388.623c-96.996 0-35.046-63.001-35.046-63.001 47.176-9.78 63.127-23.585 63.127-54.125h114.719c0 11.452 2.243 20.552 7.535 27.967-22.437 34.036-70.544 89.159-150.335 89.159z" fill="#81a9c8"/><path d="m395.455 181.671c20.072 0 24.928-9.136 24.928-20.406s0-14.861 0-21.765-5.596-12.5-12.5-12.5-12.5 5.596-12.5 12.5h-204.856c0-6.904-5.597-12.5-12.5-12.5-6.904 0-12.5 5.596-12.5 12.5v21.765c0 11.27 4.857 20.406 24.928 20.406z" fill="#81a9c8"/><path d="m219.764 356.709c14.338 0 27.281-3.899 27.281-22.644 0-14.27 0-15.624 0-19.527 0-6.904-5.596-12.5-12.5-12.5s-12.5 5.596-12.5 12.5h-190c0-6.904-5.597-12.5-12.5-12.5-6.904 0-12.5 5.596-12.5 12.5v19.527c0 18.745 12.943 22.644 27.281 22.644z" fill="#bcd1e1"/><path d="m15.165 497c-.852 0-1.609-.56-1.854-1.376-8.448-28.079-10.021-53.526 5.846-69.013 19.53-19.062 54.67-7.66 54.67-7.66h106.435s-4.945 78.05-133.067 78.05h-32.03z" fill="#bcd1e1"/><path d="m234.932 426.61c-19.53-19.062-54.67-7.66-54.67-7.66s-14.267 47.05-61.067 47.05c-39.6 0-48.558-17.117-66.96-9.716-18.402 7.4-5.04 40.716-5.04 40.716h193.164c8.812-28.623 10.699-54.65-5.427-70.39z" fill="#dce7ef"/><path d="m127.045 437.308c46.541 0 52.467-240.884 0-240.884s-95 42.533-95 95v42.642c0 61.626 48.459 103.242 95 103.242z" fill="#bcd1e1"/><path d="m127.045 437.308c46.541 0 95-41.616 95-103.243 0-11.999 0-32.426 0-42.642 0-52.467-42.533-95-95-95s-65 42.533-65 95v42.642c0 61.627 18.459 103.243 65 103.243z" fill="#dce7ef"/><path d="m292.955 291.27c-56.609 0-102.5-52.918-102.5-109.599 0-11.036 0-68.149 0-79.171 0-56.609 45.891-102.5 102.5-102.5 56.609 0 56.609 291.27 0 291.27z" fill="#81a9c8"/><path d="m292.955 291.27c-56.609 0-72.5-52.918-72.5-109.599 0-11.036 0-68.149 0-79.171 0-56.609 15.891-102.5 72.5-102.5s102.5 45.891 102.5 102.5v79.171c0 56.681-45.891 109.599-102.5 109.599z" fill="#bcd1e1"/><path d="m365.865 353.82c-47.822 0-86.59 38.768-86.59 86.59 0 21.633 7.934 41.413 21.05 56.59h95.54c14.448 0 17.401-78.045 17.793-128.8-13.697-9.084-30.126-14.38-47.793-14.38z" fill="#81a9c8"/><circle cx="395.865" cy="410.41" fill="#9cd169" r="86.59"/><path d="m466.169 359.859-82.03 82.03-36.149-36.15c-2.93-2.929-7.678-2.93-10.607 0-2.929 2.929-2.929 7.678 0 10.606l41.453 41.454c1.407 1.407 3.314 2.197 5.304 2.197s3.896-.79 5.304-2.197l84.618-84.618c-2.237-4.69-4.884-9.145-7.893-13.322z" fill="#7dc03a"/><path d="m394.443 444.798c-1.407 1.406-3.314 2.197-5.304 2.197-1.989 0-3.896-.79-5.304-2.197l-41.453-41.454c-2.929-2.929-2.929-7.678 0-10.606 2.931-2.929 7.679-2.929 10.607 0l36.149 36.15 88.012-88.012c2.931-2.93 7.679-2.929 10.607 0s2.929 7.678 0 10.606z" fill="#ebf7e0"/><g fill="#4980ac"><path d="m127.045 408.569c-15.414 0-28.336-6.841-33.724-17.854-1.82-3.721-.28-8.213 3.441-10.033 3.718-1.821 8.212-.28 10.033 3.441 2.807 5.738 10.756 9.445 20.25 9.445s17.443-3.708 20.25-9.445c1.82-3.721 6.311-5.261 10.033-3.441 3.721 1.82 5.261 6.312 3.441 10.033-5.388 11.013-18.31 17.854-33.724 17.854z"/><path d="m161.545 352.343c-4.142 0-7.5-3.358-7.5-7.5v-21.273c0-4.142 3.358-7.5 7.5-7.5s7.5 3.358 7.5 7.5v21.273c0 4.142-3.358 7.5-7.5 7.5z"/><path d="m92.545 352.343c-4.142 0-7.5-3.358-7.5-7.5v-21.273c0-4.142 3.358-7.5 7.5-7.5s7.5 3.358 7.5 7.5v21.273c0 4.142-3.358 7.5-7.5 7.5z"/><path d="m189.03 300.415c-1.866 0-3.735-.692-5.189-2.085-7.802-7.479-22.052-7.967-29.319-1-2.991 2.866-7.738 2.765-10.604-.225-2.866-2.991-2.766-7.738.225-10.604 13.062-12.518 36.462-12.051 50.079 1 2.99 2.867 3.091 7.614.225 10.604-1.474 1.536-3.444 2.31-5.417 2.31z"/><path d="m65.059 300.415c-1.973 0-3.942-.773-5.416-2.31-2.866-2.99-2.766-7.738.225-10.604 13.616-13.051 37.018-13.519 50.079-1 2.99 2.866 3.091 7.614.225 10.604-2.867 2.99-7.613 3.091-10.604.225-7.267-6.966-21.516-6.479-29.319 1-1.454 1.392-3.323 2.085-5.19 2.085z"/><path d="m292.955 250.854c-17.024 0-32.98-7.389-44.928-20.806-2.754-3.094-2.479-7.834.614-10.589 3.094-2.755 7.834-2.479 10.589.613 9.062 10.177 21.039 15.781 33.725 15.781s24.663-5.604 33.725-15.781c2.757-3.093 7.498-3.367 10.589-.613 3.094 2.754 3.368 7.495.614 10.589-11.948 13.416-27.904 20.806-44.928 20.806z"/><path d="m329.455 174.836c-4.143 0-7.5-3.358-7.5-7.5v-21.273c0-4.142 3.357-7.5 7.5-7.5s7.5 3.358 7.5 7.5v21.273c0 4.142-3.357 7.5-7.5 7.5z"/><path d="m256.455 174.836c-4.143 0-7.5-3.358-7.5-7.5v-21.273c0-4.142 3.357-7.5 7.5-7.5s7.5 3.358 7.5 7.5v21.273c0 4.142-3.357 7.5-7.5 7.5z"/><path d="m224.528 122.977c-1.841 0-3.686-.673-5.133-2.033-3.019-2.836-3.167-7.583-.332-10.602 7.193-7.658 16.794-11.875 27.033-11.875 10.239 0 19.839 4.218 27.032 11.875 2.836 3.019 2.688 7.766-.332 10.602s-7.766 2.687-10.602-.332c-4.327-4.607-10.045-7.145-16.099-7.145s-11.771 2.538-16.1 7.145c-1.475 1.571-3.469 2.365-5.467 2.365z"/><path d="m361.382 122.977c-1.999 0-3.992-.793-5.469-2.365-4.327-4.607-10.045-7.145-16.099-7.145s-11.771 2.538-16.099 7.145c-2.836 3.019-7.582 3.169-10.602.332-3.02-2.836-3.168-7.583-.332-10.602 7.193-7.658 16.793-11.875 27.032-11.875s19.839 4.217 27.032 11.875c2.836 3.019 2.688 7.766-.332 10.602-1.446 1.359-3.291 2.033-5.131 2.033z"/></g></g></svg>