<svg id="Capa_1" enable-background="new 0 0 504.502 504.502" height="512" viewBox="0 0 504.502 504.502" width="512" xmlns="http://www.w3.org/2000/svg"><g><g fill="#a2abb8"><path d="m121.306 54.365v-46.865c0-4.143 3.358-7.5 7.5-7.5s7.5 3.357 7.5 7.5v46.821z"/><path d="m75.316 74.182-27.547-37.915c-2.435-3.351-1.692-8.041 1.659-10.476s8.041-1.692 10.476 1.659l27.521 37.88z"/><path d="m49.757 117.246-44.571-14.482c-3.94-1.28-6.095-5.511-4.815-9.451s5.511-6.095 9.451-4.815l44.53 14.469z"/><path d="m203.219 102.981 44.571-14.482c3.94-1.28 8.171.876 9.451 4.815s-.875 8.17-4.815 9.451l-44.53 14.469z"/><path d="m54.392 167.109-44.571 14.482c-3.94 1.28-8.171-.876-9.451-4.815s.875-8.17 4.815-9.451l44.53-14.469z"/><path d="m170.16 65.365 27.547-37.915c2.435-3.351 7.125-4.094 10.476-1.659s4.094 7.125 1.659 10.476l-27.521 37.879z"/><path d="m87.451 204.725-27.547 37.915c-2.435 3.351-7.125 4.094-10.476 1.659s-4.094-7.125-1.659-10.476l27.521-37.879z"/></g><path d="m218.713 105.832c-1.795-5.524-29.69-43.887-34.341-47.267-4.699-3.414-49.816-18.054-55.566-18.054-5.808 0-50.914 14.674-55.566 18.054-2.049 1.488-8.5 9.625-15.274 18.782-1.217 1.646-10.767 26.153-11.63 28.808-1.795 5.524-4.193 50.526-2.416 55.995 1.795 5.524 28.069 41.819 32.721 45.199 4.699 3.414 47.71 16.219 53.46 16.219 5.808 0 49.619-8.664 54.271-12.044 4.699-3.414 32.565-41.798 34.341-47.267 1.795-5.524 1.777-52.956 0-58.425z" fill="#de5791"/><path d="m426.22 119.2h-335.44-5c-8.25 0-15 6.75-15 15v243.6c0 8.25 6.75 15 15 15h340.44c8.25 0 15-6.75 15-15v-5-238.6c0-8.25-6.75-15-15-15z" fill="#bcd1e1"/><path d="m129.091 209.738c-5.769 0-41.402-13.172-43.776-14.897-2.351-1.708-25.926-31.556-27.726-37.098-.03-.092-.059-.206-.088-.334-1.68-7.483-1.246-74.334.614-80.061-8.816 11.911-18.203 24.976-19.212 28.08-1.801 5.542-1.783 53.13 0 58.616.004.014.014.034.019.048 1.924 5.689 29.779 43.991 34.435 47.374 4.714 3.425 49.979 18.113 55.748 18.113v-19.842c-.004 0-.01.001-.014.001z" fill="#da0b62"/><path d="m345.175 292.883c-4.725-4.725-12.803-1.378-12.803 5.303v74.614h-226.592c-8.25 0-15-6.75-15-15v-238.6h-5c-8.25 0-15 6.75-15 15v243.6c0 8.25 6.75 15 15 15h340.44c8.25 0 15-6.75 15-15v-5h-16.128z" fill="#81a9c8"/><path d="m106.96 165.76c1.79-1.301-16.18-46.56-16.18-46.56h-5c-8.25 0-15 6.75-15 15v74.86c1.073 1.209 1.925 2.076 2.46 2.464 1.723 1.252 8.881 4.013 17.54 7.009 0 .001 11.529-49.393 16.18-52.773z" fill="#81a9c8"/><path d="m136.306 215.725v46.865c0 4.143-3.358 7.5-7.5 7.5s-7.5-3.357-7.5-7.5v-46.821z" fill="#9abbd4"/><path d="m182.296 195.908 27.547 37.915c2.435 3.351 1.692 8.041-1.659 10.476s-8.041 1.692-10.476-1.659l-27.521-37.879z" fill="#9abbd4"/><path d="m207.854 152.843 44.571 14.482c3.94 1.28 6.095 5.511 4.815 9.451-1.28 3.939-5.511 6.095-9.451 4.815l-44.53-14.469z" fill="#9abbd4"/><path d="m90.78 218.533c14.954 5.174 35.679 5.035 39.321 5.035 5.808 0 46.541-12.941 51.193-16.321 2.632-1.912 15.613-10.523 24.126-22.45 6.684-9.363 12.511-18.135 13.293-20.54 1.273-3.916 1.633-28.9 1.103-45.057h-129.036z" fill="#9abbd4"/><path d="m256 330.918c-26.157 0-47.947-11.327-56.867-29.56-1.82-3.721-.279-8.213 3.441-10.033 3.718-1.82 8.212-.28 10.033 3.441 6.285 12.849 23.318 21.151 43.392 21.151s37.107-8.303 43.392-21.151c1.82-3.722 6.312-5.261 10.033-3.441s5.261 6.313 3.441 10.033c-8.917 18.233-30.707 29.56-56.865 29.56z" fill="#4980ac"/><path d="m211.507 259.845c-2.684 0-5.28-1.445-6.628-3.98-1.945-3.657-.557-8.198 3.1-10.144l7.549-4.015-7.549-4.015c-3.657-1.945-5.045-6.486-3.1-10.144 1.945-3.656 6.487-5.044 10.143-3.101l20 10.637c2.448 1.303 3.979 3.849 3.979 6.622s-1.53 5.319-3.979 6.622l-20 10.637c-1.122.598-2.327.881-3.515.881z" fill="#4980ac"/><path d="m290.5 259.843c-4.142 0-7.5-3.357-7.5-7.5v-21.273c0-4.143 3.358-7.5 7.5-7.5s7.5 3.357 7.5 7.5v21.273c0 4.142-3.357 7.5-7.5 7.5z" fill="#4980ac"/><path d="m502.289 408.391-2.197-2.197-97.479-8.16-35.241-124.56-2.197-2.197c-4.725-4.725-12.803-1.378-12.803 5.303v193.908c0 6.682 8.079 10.028 12.803 5.303l43.117-43.117 27.833 67.195c1.585 3.827 5.972 5.644 9.799 4.059l13.858-5.74c3.421-1.417 5.228-5.072 4.442-8.565l-36.62-74.933c4.958 3.756 8.445 6.415 8.5 6.504h60.881c6.682.001 10.028-8.078 5.304-12.803z" fill="#e9edf1"/><path d="m367.372 446.639c0 2.567 3.104 3.853 4.919 2.038l30.826-30.826c5.142-5.142 13.859-3.408 16.641 3.31l29.488 71.191c.679 1.639 2.557 2.417 4.196 1.738l10.782-4.466c-.093-.415-.215-.828-.383-1.234l-27.833-67.195h.096c-.192-.315-.362-.642-.503-.983l-1.695-4.093c-1.957-4.725 1.516-9.923 6.63-9.923h59.556l-132.72-132.72z" fill="#f7f9fa"/><path d="m129.105 209.737c-.004 0-.01.001-.014.001-4.537 0-27.536-8.144-38.311-12.462v21.161c15.026 5.205 34.656 11.142 38.324 11.142 5.827 0 51.08-14.723 55.748-18.113 2.606-1.894 12.019-14.716 20.483-26.549-9.391 4.775-70.57 24.792-76.23 24.82z" fill="#81a9c8"/><path d="m73.357 211.466c1.717 1.247 8.815 3.989 17.424 6.971v-21.161c-2.926-1.173-4.958-2.066-5.465-2.434-1.204-.875-7.973-9.13-14.535-17.721v31.752c1.13 1.279 2.021 2.19 2.576 2.593z" fill="#4980ac"/></g></svg>