<svg id="Capa_1" enable-background="new 0 0 497 497" height="512" viewBox="0 0 497 497" width="512" xmlns="http://www.w3.org/2000/svg"><g><path d="m0 423.5c0 8.25 6.75 15 15 15h467c8.25 0 15-6.75 15-15v-5l-248.5-32.956-248.5 22.956z" fill="#a2abb8"/><path d="m20 58.5h-5c-8.25 0-15 6.75-15 15v46l248.5 22.956z" fill="#a2abb8"/><path d="m20 121.348 228.5 21.108 248.5-22.956v-46c0-8.25-6.75-15-15-15h-462z" fill="#c8d2dc"/><circle cx="466.5" cy="89" fill="#de5791" r="8"/><circle cx="436.5" cy="89" fill="#a2abb8" r="8"/><circle cx="406.5" cy="89" fill="#81a9c8" r="8"/><path d="m20.88 408.5h-20.88v-289h20z" fill="#e9edf1"/><path d="m20.334 406.622c1.447 6.764 7.486 11.878 14.666 11.878h462v-10l-248.5-22.956z" fill="#c8d2dc"/><path d="m20 403.5c0 1.754.321 3.432.88 5h476.12v-289h-477z" fill="#f7f9fa"/><path d="m467.45 119.5h29.55v289h-29.55z" fill="#e9edf1"/><circle cx="238.5" cy="283.323" fill="#a2abb8" r="115"/><circle cx="248.5" cy="263.323" fill="#de5791" r="115"/><path d="m298.604 322.214c-1.308-1.308-18.892-18.892-38.891-38.891 19.999-19.999 37.583-37.583 38.891-38.891 5.858-5.858 5.858-15.355 0-21.213s-15.355-5.858-21.213 0c-1.308 1.308-18.892 18.892-38.891 38.891-19.999-19.999-37.583-37.583-38.891-38.891-5.858-5.858-15.355-5.858-21.213 0s-5.858 15.355 0 21.213c1.308 1.308 18.892 18.892 38.891 38.891-19.999 19.999-37.583 37.583-38.891 38.891-5.858 5.858-5.858 15.355 0 21.213s15.355 5.858 21.213 0c1.308-1.308 18.892-18.892 38.891-38.891l38.891 38.891c5.858 5.858 15.355 5.858 21.213 0s5.858-15.355 0-21.213z" fill="#da0b62"/><path d="m308.604 302.214c-1.308-1.308-18.892-18.892-38.891-38.891 19.999-19.999 37.583-37.583 38.891-38.891 5.858-5.858 5.858-15.355 0-21.213s-15.355-5.858-21.213 0c-1.308 1.308-18.892 18.892-38.891 38.891-19.999-19.999-37.583-37.583-38.891-38.891-5.858-5.858-15.355-5.858-21.213 0s-5.858 15.355 0 21.213l38.891 38.891c-19.999 19.999-37.583 37.583-38.891 38.891-5.858 5.858-5.858 15.355 0 21.213s15.355 5.858 21.213 0c1.308-1.308 18.892-18.892 38.891-38.891 19.999 19.999 37.583 37.583 38.891 38.891 5.858 5.858 15.355 5.858 21.213 0s5.858-15.355 0-21.213z" fill="#f9c8dc"/></g></svg>