<svg id="Capa_1" enable-background="new 0 0 502.8 502.8" height="512" viewBox="0 0 502.8 502.8" width="512" xmlns="http://www.w3.org/2000/svg"><g><path d="m122.371 261.76h72.88v173.54h-72.88z" fill="#ebb044"/><path d="m97.751 265.74 195-.44c8.25 0 15-6.75 15-15v-235.3c0-8.25-6.75-15-15-15h-195c-8.25 0-15 6.75-15 15v235.74c0 8.25 6.75 15 15 15z" fill="#c8d2dc"/><path d="m161.309 198.3c-13.35 0-19.558-10.667-19.558-28.349 0-35.363 0-115.42 0-115.42 0-8.25-6.75-14.259-15-13.54l-40 3.483-4 90.777v115.049c0 8.25 6.75 35 15 35h74l19.558-87s-17.741 0-30 0z" fill="#a2abb8"/><path d="m434.251 80h-195c-8.25 0-15 6.75-15 15v255.3z" fill="#a2abb8"/><path d="m416.751 345.3h37.5c8.25 0 15-6.75 15-15v-255.3c0-8.25-6.75-15-15-15h-195c-8.25 0-15 6.75-15 15v255.3c0 8.25 164.25 15 172.5 15z" fill="#f9c8dc"/><path d="m376.751 345.3h40v-120.3c0-8.25-6.75-15-15-15h-195z" fill="#e592b8"/><path d="m41.751 55.469c0-.155.019-.312.023-.468l-.023.009c-8.25 3.003-15 12.209-15 20.459v344.831c0 8.25 6.75 17.457 15 20.459l85 30.938c8.25 3.003 15-1.29 15-9.54 0 0 0-3.805 0-10.46z" fill="#ffd064"/><path d="m127.309 189.3c-10.407-8.425-15.558-11.667-15.558-29.349 0-35.363 0-115.42 0-115.42 0-8.25-6.75-12.543-15-9.54l-54.977 20.01c-.005.156-.023.313-.023.468v344.831c0 8.25 6.75 17.457 15 20.459l85 30.938c0-42.443 0-201.078 0-231.648 0-17.682-4.035-22.324-14.442-30.749z" fill="#fff0af"/><path d="m186.751 445.3h19.664c8.25 0 190.336-6.75 190.336-15v-225.3c0-8.25-6.75-15-15-15h-195c-8.25 0-15 6.75-15 15v225.3c0 8.25 6.75 15 15 15z" fill="#e9edf1"/><path d="m325.806 295.858c-7.358-12.744-25.753-12.744-33.111 0l-86.28 149.442h175.336c8.25 0 15-6.75 15-15v-11.562z" fill="#c8d2dc"/><path d="m465.946 466.625-110.14-190.767c-7.358-12.744-25.753-12.744-33.111 0l-110.139 190.767c-7.358 12.744 1.84 28.675 16.555 28.675h220.279c14.716 0 23.914-15.93 16.556-28.675z" fill="#e592b8"/><g fill="#da0b62"><circle cx="339.251" cy="448.8" r="8"/><path d="m449.391 502.8h-220.28c-9.622 0-18.239-4.976-23.051-13.309-4.811-8.333-4.811-18.283.001-26.616l110.139-190.766c4.812-8.334 13.429-13.309 23.051-13.309s18.239 4.975 23.051 13.309l110.138 190.766c4.812 8.333 4.812 18.283.001 26.616s-13.428 13.309-23.05 13.309zm-110.14-229c-4.199 0-7.961 2.171-10.061 5.809l-110.138 190.766c-2.1 3.637-2.1 7.979 0 11.616 2.1 3.638 5.86 5.809 10.06 5.809h220.279c4.199 0 7.96-2.171 10.06-5.809 2.1-3.637 2.1-7.979 0-11.616l-110.14-190.766c-2.099-3.638-5.861-5.809-10.06-5.809z"/><path d="m339.251 427.08c-4.143 0-7.5-3.357-7.5-7.5v-76.36c0-4.143 3.357-7.5 7.5-7.5s7.5 3.357 7.5 7.5v76.36c0 4.143-3.358 7.5-7.5 7.5z"/></g></g></svg>