<svg id="Capa_1" enable-background="new 0 0 497 497" height="512" viewBox="0 0 497 497" width="512" xmlns="http://www.w3.org/2000/svg"><g><path d="m472.072 362.522c20.072 0 24.928-9.136 24.928-20.406s0-14.861 0-21.765-5.596-12.5-12.5-12.5-12.5 5.596-12.5 12.5h-198.5c0-6.904-5.596-12.5-12.5-12.5s-12.5 5.596-12.5 12.5v21.765c0 11.27 4.857 20.406 24.928 20.406z" fill="#de5791"/><path d="m223.572 362.522c20.072 0 24.928-9.136 24.928-20.406s0-14.861 0-21.765-5.596-12.5-12.5-12.5-12.5 5.596-12.5 12.5h-198.5c0-6.904-5.597-12.5-12.5-12.5-6.904 0-12.5 5.596-12.5 12.5v21.765c0 11.27 4.857 20.406 24.928 20.406z" fill="#ffd064"/><path d="m372.75 185.468c-54.814 0-99.25 44.436-99.25 99.25v76.661c0 54.884 44.436 100.153 99.25 100.153-42.127 0-42.127-276.064 0-276.064z" fill="#de5791"/><path d="m472 361.379c0-18.857 0-65.989 0-76.661 0-54.814-44.436-99.25-99.25-99.25-42.127 0-69.25 44.436-69.25 99.25v76.661c0 54.884 27.123 100.153 69.25 100.153 54.814 0 99.25-45.27 99.25-100.153z" fill="#e592b8"/><path d="m55 232.196s0-62.162 0-82.478c0-38.246 31.004-69.25 69.25-69.25s69.25 31.004 69.25 69.25v16.632s-30 8.232-30 0c0-6.576 0-12.278 0-16.632 0-21.642-17.607-39.25-39.25-39.25s-39.25 17.608-39.25 39.25v78.094z" fill="#e9edf1"/><path d="m85 207.807c-11.217 1.194-21.233 2.735-30 4.391v19.997l30-4.384z" fill="#a2abb8"/><path d="m55 231.287c-10.441 1.642-18.206 3.371-23.21 4.643-3.999 1.016-6.79 4.615-6.79 8.741v116.708c0 54.884 44.436 100.153 99.25 100.153-42.127 0-69.25-187.347-69.25-230.245z" fill="#ffd064"/><path d="m223.5 361.379v-116.708c0-4.126-2.792-7.725-6.79-8.741-12.9-3.278-44.06-9.603-92.46-9.603-29.624 0-52.777 2.37-69.25 4.96v130.092c0 54.884 27.123 100.153 69.25 100.153 54.814 0 99.25-45.27 99.25-100.153z" fill="#fff0af"/><path d="m303.5 362.521c0 25.324 18.107 69.011 69.25 69.011s69.25-43.687 69.25-69.011z" fill="#fff"/><path d="m466.354 120.9-.02.024c3.628-7.729 5.666-16.353 5.666-25.456 0-33.137-26.863-60-60-60-25.268 0-47.821 14.129-69.487 45h-79.013c-8.284 0-15 6.716-15 15v22.11c0 4.358 3.533 5.782 7.89 5.782h44.22c4.358 0 6.726-2.543 6.726-6.901l-.16-7.032 36.513.16c21.664 30.879 43.044 44.52 68.311 44.52 13.528 0 36.103-12.491 36.103-12.491 27.126 18.084 27.872 35.329 25.303 53.648-.264 1.884 2.101 2.965 3.33 1.513 7.302-8.626 9.481-19.874 9.481-33.062.001-15.572-2.717-27.247-19.863-42.815zm-39.354-10.432c-8.284 0-15-6.716-15-15s6.716-15 15-15 15 6.716 15 15-6.716 15-15 15z" fill="#e592b8"/><path d="m466.354 120.9-.015.018c-.003.007-.009.015-.012.022-.555.82-11.615 16.468-46.948 16.468-40.755 0-63.612-41.94-63.612-41.94h-107.267v22.11c0 4.358 3.532 7.89 7.89 7.89h44.22c4.358 0 7.89-3.532 7.89-7.89v-7.11h34.013c21.664 30.879 44.22 45 69.487 45 13.528 0 26.007-4.479 36.04-12.034l-.014.017c27.126 18.084 27.247 35.391 24.677 53.711-.264 1.884 2.101 2.965 3.33 1.513 7.302-8.626 11.967-20.945 11.967-34.133 0-15.574-4.5-28.074-21.646-43.642z" fill="#de5791"/><path d="m397.237 324.008c-4.143 0-7.5-3.357-7.5-7.5v-21.272c0-4.143 3.357-7.5 7.5-7.5h33.23c4.143 0 7.5 3.357 7.5 7.5s-3.357 7.5-7.5 7.5h-25.73v13.772c0 4.143-3.357 7.5-7.5 7.5z" fill="#a71e6a"/><path d="m315.032 324.008c-4.143 0-7.5-3.357-7.5-7.5v-21.272c0-4.143 3.357-7.5 7.5-7.5h33.23c4.143 0 7.5 3.357 7.5 7.5s-3.357 7.5-7.5 7.5h-25.73v13.772c0 4.143-3.357 7.5-7.5 7.5z" fill="#a71e6a"/><g fill="#d99f36"><path d="m181.968 324.008c-4.143 0-7.5-3.357-7.5-7.5v-17.976c-2.661-2.03-5.818-3.124-9.115-3.124-4.184 0-8.143 1.763-11.148 4.962-2.836 3.019-7.582 3.168-10.602.332s-3.168-7.583-.332-10.602c5.871-6.25 13.713-9.692 22.082-9.692s16.211 3.442 22.082 9.692c1.306 1.391 2.033 3.227 2.033 5.135v21.272c0 4.144-3.358 7.501-7.5 7.501z"/><path d="m99.763 324.008c-4.143 0-7.5-3.357-7.5-7.5v-17.976c-2.661-2.03-5.818-3.124-9.115-3.124-4.184 0-8.143 1.763-11.148 4.962-2.836 3.019-7.582 3.168-10.602.332s-3.168-7.583-.332-10.602c5.871-6.25 13.713-9.692 22.082-9.692s16.211 3.442 22.082 9.692c1.306 1.391 2.033 3.227 2.033 5.135v21.272c0 4.144-3.358 7.501-7.5 7.501z"/><path d="m187.208 271.461c-9.913-10.553-26.3-9.311-34.898-5.899-3.847 1.525-8.209-.354-9.737-4.206-1.527-3.85.355-8.209 4.206-9.737 14.865-5.897 37.28-5.418 51.363 9.573 2.836 3.02 2.688 7.766-.332 10.602-3.016 2.831-7.771 2.681-10.602-.333z"/><path d="m50.69 271.793c-3.02-2.836-3.168-7.582-.332-10.602 14.082-14.991 36.498-15.473 51.363-9.573 3.851 1.528 5.733 5.888 4.206 9.737-1.528 3.851-5.891 5.729-9.737 4.206-8.598-3.412-24.985-4.653-34.898 5.899-2.831 3.015-7.586 3.165-10.602.333z"/></g><path d="m386.732 272.826c-4.143 0-7.5-3.357-7.5-7.5s3.357-7.5 7.5-7.5c10.944 0 31.477-7.471 40.559-16.747 2.898-2.961 7.646-3.009 10.606-.112 2.96 2.898 3.01 7.646.112 10.606-12.262 12.525-36.865 21.253-51.277 21.253z" fill="#a71e6a"/><path d="m358.768 272.826c-14.411 0-39.015-8.729-51.277-21.253-2.897-2.96-2.848-7.708.112-10.606 2.958-2.896 7.706-2.849 10.606.112 9.082 9.276 29.614 16.747 40.559 16.747 4.143 0 7.5 3.357 7.5 7.5s-3.358 7.5-7.5 7.5z" fill="#a71e6a"/><path d="m271 125.468v-15c0-4.143 3.357-7.5 7.5-7.5s7.5 3.357 7.5 7.5v15z" fill="#a71e6a"/><path d="m151.785 406.281c0 9.75-14.011 17.655-27.535 17.655s-27.535-7.904-27.535-17.655 14.011-21.321 27.535-21.321 27.535 11.57 27.535 21.321z" fill="#d99f36"/></g></svg>