<svg id="Capa_1" enable-background="new 0 0 512 512" height="512" viewBox="0 0 512 512" width="512" xmlns="http://www.w3.org/2000/svg"><g><path d="m150.92 64.392c-67.6 37.151-113.42 109.025-113.42 191.608 0 120.674 97.826 218.5 218.5 218.5 82.583 0 154.456-45.82 191.608-113.419-38.568 54.122-350.811-258.121-296.688-296.689z" fill="#bcd1e1"/><path d="m61.5 237.76c0 117.493 95.247 212.74 212.74 212.74 71.523 0 134.8-35.297 173.368-89.419 17.136-31.181 26.892-66.99 26.892-105.081 0-120.674-97.826-218.5-218.5-218.5-38.091 0-73.9 9.756-105.08 26.892-54.123 38.568-89.42 101.845-89.42 173.368z" fill="#dce7ef"/><path d="m329.515 306.385c1.867-5.745 1.848-55.081 0-60.77-1.867-5.745-30.881-45.648-35.719-49.164-4.887-3.551-51.815-18.779-57.795-18.779-6.041 0-52.957 15.264-57.795 18.779-.009.006-.019.015-.028.022-4.964 3.673-33.847 43.464-35.692 49.142-1.867 5.745-1.848 55.082 0 60.77.005.015.013.034.018.05 2.006 5.912 30.876 45.607 35.701 49.113 4.887 3.551 51.814 18.779 57.795 18.779 6.041 0 52.957-15.263 57.795-18.779 4.888-3.55 33.872-43.475 35.72-49.163z" fill="#bcd1e1"/><g fill="#a2abb8"><path d="m263.5 388.663c0 4.143-3.358 7.5-7.5 7.5s-7.5-3.357-7.5-7.5v-265.326c0-4.143 3.358-7.5 7.5-7.5s7.5 3.357 7.5 7.5z"/><path d="m340.045 358.918c2.435 3.351 1.692 8.041-1.659 10.476s-8.041 1.692-10.476-1.659l-155.955-214.653c-2.435-3.351-1.692-8.041 1.659-10.476s8.041-1.692 10.476 1.659z"/><path d="m384.488 289.862c3.94 1.28 6.095 5.511 4.815 9.451s-5.511 6.095-9.451 4.815l-252.34-81.99c-3.94-1.28-6.095-5.511-4.815-9.451s5.511-6.095 9.451-4.815z"/><path d="m379.852 207.872c3.94-1.28 8.171.876 9.451 4.815s-.875 8.17-4.815 9.451l-252.34 81.99c-3.94 1.28-8.171-.876-9.451-4.815s.875-8.17 4.815-9.451z"/><path d="m327.91 144.265c2.435-3.351 7.125-4.094 10.476-1.659s4.094 7.125 1.659 10.476l-155.955 214.653c-2.435 3.351-7.125 4.094-10.476 1.659s-4.094-7.125-1.659-10.476z"/></g><path d="m186.4 278.614c1.389 4.276 65.148 50.567 69.6 50.567 4.496 0 68.224-46.334 69.599-50.567 1.389-4.276-22.983-79.203-26.585-81.819-3.637-2.643-82.429-2.616-86.03 0-3.636 2.643-27.959 77.586-26.584 81.819z" fill="#e592b8"/><path d="m212.965 269.983 16.438-50.59s-30.924-42.468-31.226-42.919c-2.15 1.591-8.789 9.96-15.774 19.397-9.139 12.348-8.872 26.526-9.917 29.744-1.867 5.745-11.848 55.081-10 60.77.005.015.013.034.018.05 1.998-.736 50.461-16.452 50.461-16.452z" fill="#de5791"/><path d="m182.403 195.871c-9.14 12.349-18.872 26.526-19.918 29.744-1.867 5.745-1.848 55.081 0 60.769.005.014.015.035.02.05.844-.311 9.412-3.461 19.261-6.929-1.742-7.757-1.291-77.696.637-83.634z" fill="#da0b62"/><path d="m313.795 176.452-31.198 42.941 16.438 50.59 50.48 16.402c1.867-5.745 1.848-55.081 0-60.77-1.867-5.745-30.881-45.648-35.72-49.163z" fill="#de5791"/><path d="m349.458 286.426s-47.947-17.705-50.423-16.443c-2.452 1.25-40.255 31.267-43.035 31.267l-5.873 8.972 5.873 44.105c6.041 0 42.957-15.263 47.795-18.779 2.704-1.965 22.77-15.055 31.535-27.32 7.075-9.899 13.303-19.261 14.128-21.802z" fill="#f9c8dc"/><path d="m256 333.756v20.571c6.041 0 52.957-15.263 57.795-18.779 2.702-1.963 12.768-15.045 21.544-27.313-9.736 4.951-73.471 25.493-79.339 25.521z" fill="#e592b8"/><path d="m313.795 176.452c-4.887-3.551-51.814-18.779-57.795-18.779-6.041 0-52.957 15.263-57.795 18.779-.009.006-.019.015-.028.022.303.451 28.495 42.487 31.226 42.919 2.718.43 51.035.435 53.781 0 2.719-.431 30.611-42.941 30.611-42.941z" fill="#f9c8dc"/><path d="m212.965 269.983c-2.399-1.222-48.463 15.716-50.462 16.452 2.006 5.912 40.876 35.607 45.701 39.113 4.887 3.551 41.814 28.779 47.795 28.779v-53.078c-2.751 0-40.557-30.004-43.034-31.266z" fill="#da0b62"/><path d="m255.986 333.757c-5.981 0-42.922-13.656-45.384-15.444-2.437-1.771-26.878-32.716-28.745-38.461-.031-.096-.061-.214-.091-.346-9.849 3.467-18.417 6.618-19.261 6.929 1.995 5.898 30.873 45.607 35.7 49.114 4.887 3.551 51.814 18.779 57.795 18.779v-20.571c-.004-.001-.01 0-.014 0z" fill="#b3094e"/><path d="m256 512c-4.142 0-7.5-3.357-7.5-7.5v-22.621c-57.557-1.863-111.393-25.159-152.307-66.073s-64.209-94.748-66.073-152.305h-22.62c-4.142 0-7.5-3.357-7.5-7.5s3.358-7.5 7.5-7.5h22.621c1.863-57.557 25.159-111.393 66.073-152.307s94.749-64.21 152.306-66.073v-22.621c0-4.142 3.358-7.5 7.5-7.5s7.5 3.357 7.5 7.5v22.621c45.401 1.47 88.606 16.279 125.383 43.054 3.349 2.438 4.087 7.129 1.649 10.478-2.439 3.35-7.129 4.087-10.478 1.649-34.194-24.895-74.348-38.708-116.554-40.172v15.409c22.835.889 45.571 5.836 67.314 14.843 3.827 1.585 5.644 5.972 4.059 9.799-1.585 3.826-5.973 5.646-9.799 4.059-19.893-8.24-40.684-12.801-61.574-13.68v16.94c0 4.142-3.358 7.5-7.5 7.5s-7.5-3.357-7.5-7.5v-16.94c-20.89.88-41.682 5.44-61.574 13.68-3.826 1.584-8.213-.231-9.799-4.059-1.585-3.827.232-8.214 4.059-9.799 21.743-9.007 44.479-13.954 67.314-14.843v-15.407c-110.396 3.881-199.498 92.971-203.369 203.369h15.409c.889-22.835 5.835-45.572 14.842-67.315 1.585-3.826 5.971-5.647 9.799-4.059 3.827 1.585 5.644 5.972 4.059 9.799-8.24 19.893-12.8 40.685-13.68 61.575h16.94c4.142 0 7.5 3.357 7.5 7.5s-3.358 7.5-7.5 7.5h-16.94c.88 20.891 5.44 41.681 13.68 61.573 1.585 3.827-.232 8.214-4.059 9.799-3.826 1.585-8.214-.23-9.799-4.059-9.006-21.743-13.953-44.479-14.842-67.313h-15.409c3.881 110.396 92.971 199.497 203.369 203.367v-15.407c-22.835-.889-45.572-5.836-67.315-14.843-3.827-1.585-5.644-5.972-4.059-9.799s5.973-5.647 9.799-4.059c19.893 8.239 40.685 12.8 61.575 13.68v-16.94c0-4.143 3.358-7.5 7.5-7.5s7.5 3.357 7.5 7.5v16.94c20.89-.88 41.681-5.44 61.574-13.68 3.825-1.585 8.213.231 9.799 4.059 1.585 3.827-.232 8.214-4.059 9.799-21.743 9.007-44.479 13.954-67.314 14.843v15.407c110.396-3.881 199.498-92.97 203.368-203.369l-15.408.001c-.889 22.835-5.835 45.571-14.842 67.314-1.585 3.826-5.971 5.646-9.799 4.059-3.827-1.585-5.644-5.972-4.059-9.799 8.24-19.893 12.8-40.685 13.68-61.574h-16.94c-4.142 0-7.5-3.357-7.5-7.5 0-4.142 3.358-7.5 7.5-7.5h16.94c-.88-20.891-5.44-41.682-13.68-61.574-1.585-3.827.232-8.214 4.059-9.799 3.826-1.584 8.215.231 9.799 4.059 9.006 21.743 13.953 44.479 14.842 67.314l15.411-.001c-1.91-55.533-25.01-106.947-65.533-145.463-3.002-2.854-3.123-7.601-.27-10.604 2.855-3.002 7.603-3.121 10.604-.27 21.983 20.895 39.279 45.514 51.406 73.174 11.558 26.361 17.871 54.302 18.802 83.162h22.62c4.142 0 7.5 3.357 7.5 7.5 0 4.142-3.358 7.5-7.5 7.5h-22.621c-1.863 57.557-25.159 111.393-66.073 152.307s-94.749 64.21-152.306 66.073v22.622c0 4.143-3.357 7.5-7.5 7.5z" fill="#81a9c8"/></g></svg>