<svg id="Capa_1" enable-background="new 0 0 497 497" height="512" viewBox="0 0 497 497" width="512" xmlns="http://www.w3.org/2000/svg"><g><path d="m20 54.23c-11.621 4.143-20 15.273-20 28.27v27l12.06 23.124-12.06 31.876v190c0 16.5 13.5 30 30 30h167l189.46-10 80.54 10c13.477 0 24.948-9.008 28.701-21.299 0 0-10.841-158.701-21.881-170.041-18.896-19.41-453.82-138.93-453.82-138.93z" fill="#bce097"/><path d="m497 82.5c0-16.5-13.5-30-30-30h-437c-3.503 0-6.868.614-10 1.73v294.81c0 8.503 6.957 15.46 15.46 15.46h161.54v-129c0-8.25 6.75-15 15-15h210c8.25 0 15 6.75 15 15v129h50c3.023 0 5.944-.457 8.701-1.299.842-2.757 1.299-5.678 1.299-8.701v-190l-6.14-27.5 6.14-27.5z" fill="#dcefc9"/><path d="m20 109.5h-20v55h20l8.99-22.7z" fill="#7e8b96"/><path d="m20 109.5h477v55h-477z" fill="#4e5a61"/><g fill="#a2abb8"><path d="m157.766 337h-67.766c-4.142 0-7.5-3.357-7.5-7.5s3.358-7.5 7.5-7.5h67.766c4.142 0 7.5 3.357 7.5 7.5s-3.358 7.5-7.5 7.5z"/><path d="m237.766 292h-147.766c-4.142 0-7.5-3.357-7.5-7.5s3.358-7.5 7.5-7.5h147.766c4.142 0 7.5 3.357 7.5 7.5s-3.358 7.5-7.5 7.5z"/><path d="m237.766 247h-147.766c-4.142 0-7.5-3.357-7.5-7.5s3.358-7.5 7.5-7.5h147.766c4.142 0 7.5 3.357 7.5 7.5s-3.358 7.5-7.5 7.5z"/></g><path d="m245.266 284.5c0-4.143-3.358-7.5-7.5-7.5h-40.766v15h40.766c4.142 0 7.5-3.357 7.5-7.5z" fill="#7e8b96"/><path d="m245.266 239.5c0-4.143-3.358-7.5-7.5-7.5h-40.334c-.272 1.126-.432 2.294-.432 3.5v11.5h40.766c4.142 0 7.5-3.357 7.5-7.5z" fill="#7e8b96"/><path d="m467 219.5c0-8.25-6.75-15-15-15h-210c-8.25 0-15 6.75-15 15v210c0 8.25 6.75 15 15 15h210c8.25 0 15-6.75 15-15z" fill="#fff0af"/><path d="m374.5 296.661v-24.661c0-16.542-13.458-30-30-30s-30 13.458-30 30v24.661l-15 2.663v-27.324c0-24.813 20.187-45 45-45s45 20.187 45 45v27.324z" fill="#c8d2dc"/><path d="m299.5 299.324v27.294l15-2.663v-27.412c-5.807.822-10.821 1.805-15 2.781z" fill="#a2abb8"/><path d="m374.5 296.542v27.412l15 2.663v-27.294c-4.179-.975-9.193-1.958-15-2.781z" fill="#a2abb8"/><path d="m299.5 314.324c-4.868 1.136-8.608 2.261-11.131 3.104-2.314.774-3.869 2.943-3.869 5.383v63.379c0 2.44 1.555 4.609 3.869 5.383 7.822 2.615 27.262 7.928 56.131 7.928s48.309-5.313 56.131-7.928c2.314-.774 3.869-2.943 3.869-5.383v-10.351c-5.219 2.154-105-61.515-105-61.515z" fill="#ebb044"/><path d="m400.631 317.428c-7.822-2.615-27.262-7.928-56.131-7.928-19.556 0-34.778 2.438-45 4.824v63.828s19.276 6.349 53.287 6.349c28.384 0 46.494-6.507 51.713-8.662v-53.027c0-2.441-1.555-4.61-3.869-5.384z" fill="#ffd064"/></g></svg>