<svg id="Capa_1" enable-background="new 0 0 512 512" height="512" viewBox="0 0 512 512" width="512" xmlns="http://www.w3.org/2000/svg"><g><path d="m179.538 320.045s0-22.864 0-45.295c0-42.229 34.233-76.462 76.462-76.462s76.462 34.233 76.462 76.462v25.297s-30 3.841-30-4.391c0-6.576 0-15.752 0-20.906 0-25.619-20.842-46.462-46.461-46.462s-46.461 20.843-46.461 46.462v40.911z" fill="#e9edf1"/><path d="m209.539 295.656c-11.217 1.194-21.233 2.735-30 4.391v19.997l30-4.384z" fill="#a2abb8"/><path d="m302.461 295.656c11.217 1.194 21.233 2.735 30 4.391v19.997l-30-4.384z" fill="#a2abb8"/><path d="m156 325.418c-5.001 1.361-9.111 2.635-12.262 3.688-4.628 1.547-7.738 5.886-7.738 10.765v126.757c0 4.88 3.111 9.218 7.738 10.765 15.643 5.231 54.524 15.856 112.262 15.856s96.618-10.625 112.262-15.856c4.628-1.547 7.738-5.886 7.738-10.765v-5.547c-19.826 5.395-220-135.663-220-135.663z" fill="#7dc03a"/><path d="m368.262 329.106c-15.644-5.231-54.525-15.856-112.262-15.856-46.108 0-80.174 6.774-100 12.168v121.211c0 4.88 3.111 9.218 7.738 10.765 15.643 5.231 54.524 15.856 112.262 15.856 46.108 0 80.174-6.774 100-12.168v-121.211c0-4.879-3.111-9.217-7.738-10.765z" fill="#bce097"/><path d="m245.466 448.245c-1.919 0-3.839-.732-5.303-2.196l-41.453-41.453c-2.929-2.93-2.929-7.678 0-10.607 2.929-2.928 7.678-2.928 10.606 0l36.15 36.15 81.692-81.692c2.931-2.929 7.679-2.927 10.607 0 2.929 2.93 2.929 7.678 0 10.607l-86.996 86.995c-1.464 1.464-3.383 2.196-5.303 2.196z" fill="#ebf7e0"/><g fill="#bcd1e1"><path d="m389.808 282.25c-4.142 0-7.5-3.357-7.5-7.5 0-69.646-56.661-126.308-126.308-126.308s-126.308 56.662-126.308 126.308c0 4.143-3.358 7.5-7.5 7.5s-7.5-3.357-7.5-7.5c0-77.917 63.39-141.308 141.308-141.308s141.308 63.391 141.308 141.308c0 4.143-3.358 7.5-7.5 7.5z"/><path d="m256 76.096c-109.538 0-198.654 89.116-198.654 198.654 0 4.143 3.358 7.5 7.5 7.5s7.5-3.357 7.5-7.5c0-101.268 82.387-183.654 183.654-183.654s183.654 82.387 183.654 183.654c0 4.143 3.358 7.5 7.5 7.5s7.5-3.357 7.5-7.5c0-109.538-89.116-198.654-198.654-198.654z"/><path d="m256 18.75c68.38 0 132.667 26.629 181.02 74.98 48.351 48.352 74.98 112.64 74.98 181.02 0 4.143-3.358 7.5-7.5 7.5s-7.5-3.357-7.5-7.5c0-132.888-108.112-241-241-241s-241 108.112-241 241c0 4.143-3.358 7.5-7.5 7.5s-7.5-3.357-7.5-7.5c0-68.38 26.629-132.668 74.98-181.02 48.353-48.351 112.64-74.98 181.02-74.98z"/></g></g></svg>