<svg id="Capa_1" enable-background="new 0 0 497 497" height="512" viewBox="0 0 497 497" width="512" xmlns="http://www.w3.org/2000/svg"><g><path d="m115.939 161.61c.047-.071.093-.151.14-.225-16.479 24.999-26.079 54.934-26.079 87.115 0 87.537 70.963 158.5 158.5 158.5 55.534 0 104.389-28.567 132.695-71.802-.043.063-.093.129-.134.191-16.119 24.592-281.241-149.187-265.122-173.779z" fill="#81a9c8"/><path d="m248.5 90c-55.356 0-104.075 28.384-132.421 71.386-.047.074-.094.153-.14.225-16.119 24.592 6.229 119.944 79.44 167.932s169.563 30.439 185.682 5.847c.041-.063.09-.128.134-.191 16.311-24.915 25.805-54.696 25.805-86.699 0-87.537-70.963-158.5-158.5-158.5z" fill="#bcd1e1"/><path d="m248.5 489.5c-.976 0-1.951-.19-2.87-.571l-165.109-68.391c-3.827-1.585-5.645-5.972-4.059-9.799 1.586-3.826 5.974-5.646 9.799-4.059l162.239 67.202 162.239-67.201c3.827-1.585 8.214.231 9.799 4.059 1.586 3.827-.231 8.214-4.059 9.799l-165.109 68.39c-.919.381-1.894.571-2.87.571zm188.209-112.06 52.22-126.07c.762-1.838.762-3.902 0-5.74l-68.391-165.109c-1.585-3.827-5.972-5.645-9.799-4.059-3.827 1.585-5.645 5.972-4.059 9.799l67.202 162.239-51.03 123.2c-1.586 3.827.231 8.214 4.059 9.799.938.39 1.91.573 2.867.573 2.943 0 5.735-1.744 6.931-4.632zm-366.619 4.059c3.827-1.585 5.645-5.972 4.059-9.799l-51.03-123.2 66.012-159.369 159.369-66.013 123.348 51.092c3.826 1.589 8.214-.231 9.799-4.059 1.586-3.827-.231-8.214-4.059-9.799l-126.218-52.281c-1.838-.762-3.902-.762-5.74 0l-165.109 68.391c-1.838.761-3.298 2.221-4.059 4.059l-68.391 165.109c-.762 1.838-.762 3.902 0 5.74l52.22 126.07c1.196 2.889 3.988 4.632 6.932 4.632.956 0 1.928-.184 2.867-.573z" fill="#a2abb8"/><path d="m241.661 1.661c-4.842 2.488-8.161 7.521-8.161 13.339 0 8.284 6.716 15 15 15 5.818 0 10.851-3.319 13.339-8.161-2.052 1.055-21.233-18.126-20.178-20.178z" fill="#4980ac"/><path d="m248.5 0c-2.466 0-4.787.606-6.839 1.661-1.055 2.052-1.661 4.373-1.661 6.839 0 8.284 6.716 15 15 15 2.466 0 4.787-.606 6.839-1.661 1.055-2.052 1.661-4.373 1.661-6.839 0-8.284-6.716-15-15-15z" fill="#81a9c8"/><path d="m475.161 235.161c-4.842 2.488-8.161 7.521-8.161 13.339 0 8.284 6.716 15 15 15 5.818 0 10.851-3.319 13.339-8.161-2.052 1.055-21.233-18.126-20.178-20.178z" fill="#4980ac"/><path d="m482 233.5c-2.466 0-4.787.606-6.839 1.661-1.055 2.052-1.661 4.373-1.661 6.839 0 8.284 6.716 15 15 15 2.466 0 4.787-.606 6.839-1.661 1.055-2.052 1.661-4.373 1.661-6.839 0-8.284-6.716-15-15-15z" fill="#81a9c8"/><path d="m241.661 468.661c-4.842 2.488-8.161 7.521-8.161 13.339 0 8.284 6.716 15 15 15 5.818 0 10.851-3.319 13.339-8.161-2.052 1.055-21.233-18.126-20.178-20.178z" fill="#4980ac"/><path d="m248.5 467c-2.466 0-4.787.606-6.839 1.661-1.055 2.052-1.661 4.373-1.661 6.839 0 8.284 6.716 15 15 15 2.466 0 4.787-.606 6.839-1.661 1.055-2.052 1.661-4.373 1.661-6.839 0-8.284-6.716-15-15-15z" fill="#81a9c8"/><path d="m8.161 235.161c-4.842 2.488-8.161 7.521-8.161 13.339 0 8.284 6.716 15 15 15 5.818 0 10.851-3.319 13.339-8.161-2.052 1.055-21.233-18.126-20.178-20.178z" fill="#4980ac"/><path d="m15 233.5c-2.466 0-4.787.606-6.839 1.661-1.055 2.052-1.661 4.373-1.661 6.839 0 8.284 6.716 15 15 15 2.466 0 4.787-.606 6.839-1.661 1.055-2.052 1.661-4.373 1.661-6.839 0-8.284-6.716-15-15-15z" fill="#81a9c8"/><path d="m406.77 70.051c-4.842 2.488-8.161 7.521-8.161 13.339 0 8.284 6.716 15 15 15 5.818 0 10.851-3.319 13.339-8.161-2.052 1.055-21.232-18.125-20.178-20.178z" fill="#4980ac"/><path d="m413.609 68.391c-2.466 0-4.787.606-6.839 1.661-1.055 2.052-1.661 4.373-1.661 6.839 0 8.284 6.716 15 15 15 2.466 0 4.787-.606 6.839-1.661 1.055-2.052 1.661-4.373 1.661-6.839 0-8.285-6.715-15-15-15z" fill="#81a9c8"/><path d="m406.77 400.27c-4.842 2.488-8.161 7.521-8.161 13.339 0 8.284 6.716 15 15 15 5.818 0 10.851-3.319 13.339-8.161-2.052 1.055-21.232-18.125-20.178-20.178z" fill="#4980ac"/><path d="m413.609 398.609c-2.466 0-4.787.606-6.839 1.661-1.055 2.052-1.661 4.373-1.661 6.839 0 8.284 6.716 15 15 15 2.466 0 4.787-.606 6.839-1.661 1.055-2.052 1.661-4.373 1.661-6.839 0-8.284-6.715-15-15-15z" fill="#81a9c8"/><path d="m76.551 400.27c-4.842 2.488-8.161 7.521-8.161 13.339 0 8.284 6.716 15 15 15 5.818 0 10.851-3.319 13.339-8.161-2.052 1.055-21.232-18.125-20.178-20.178z" fill="#4980ac"/><path d="m83.391 398.609c-2.466 0-4.787.606-6.839 1.661-1.055 2.052-1.661 4.373-1.661 6.839 0 8.284 6.716 15 15 15 2.466 0 4.787-.606 6.839-1.661 1.055-2.052 1.661-4.373 1.661-6.839 0-8.284-6.716-15-15-15z" fill="#81a9c8"/><path d="m76.551 70.051c-4.842 2.488-8.161 7.521-8.161 13.339 0 8.284 6.716 15 15 15 5.818 0 10.851-3.319 13.339-8.161-2.052 1.055-21.232-18.125-20.178-20.178z" fill="#4980ac"/><path d="m83.391 68.391c-2.466 0-4.787.606-6.839 1.661-1.055 2.052-1.661 4.373-1.661 6.839 0 8.284 6.716 15 15 15 2.466 0 4.787-.606 6.839-1.661 1.055-2.052 1.661-4.373 1.661-6.839 0-8.285-6.716-15-15-15z" fill="#81a9c8"/><path d="m248.5 414.5c-56.225 0-106.009-28.096-136.052-70.986-.426-.473-.791-1-1.086-1.57-18.206-26.634-28.862-58.818-28.862-93.444s10.656-66.81 28.862-93.443c.295-.57.66-1.098 1.086-1.57 30.043-42.891 79.827-70.987 136.052-70.987 32.449 0 63.883 9.364 90.904 27.081 3.464 2.271 4.431 6.921 2.16 10.385-2.271 3.465-6.923 4.43-10.385 2.16-8.474-5.556-17.425-10.208-26.727-13.92 6.728 6.835 12.997 14.967 18.689 24.317 3.544 5.82 6.791 11.998 9.727 18.477h30.971c-3.721-4.376-7.714-8.573-11.973-12.575-3.02-2.836-3.168-7.582-.331-10.601 2.836-3.021 7.583-3.168 10.601-.331 8.458 7.944 16 16.722 22.544 26.14.338.396.636.828.886 1.289 18.643 27.38 28.934 60.066 28.934 93.578 0 34.626-10.656 66.81-28.862 93.443-.295.57-.66 1.098-1.086 1.57-30.043 42.891-79.827 70.987-136.052 70.987zm7.5-68.5v52.961c20.287-2.926 39.351-17.682 54.33-42.285 2.087-3.427 4.061-6.987 5.92-10.676zm-75.25 0c1.859 3.688 3.833 7.249 5.92 10.676 14.979 24.604 34.043 39.359 54.33 42.285v-52.961zm152.119 0c-2.936 6.479-6.183 12.656-9.727 18.477-5.675 9.32-11.923 17.432-18.627 24.253 23.078-9.253 43.37-24.052 59.201-42.729h-30.847zm-199.586 0c15.831 18.678 36.123 33.477 59.201 42.729-6.704-6.821-12.952-14.933-18.627-24.253-3.544-5.82-6.791-11.998-9.727-18.477h-30.847zm205.636-15h36c14.253-21.768 23.041-47.426 24.397-75h-46.918c-.733 26.702-5.377 52.296-13.479 75zm-82.919 0h66.921c8.692-22.289 13.69-47.983 14.472-75h-81.393zm-81.921 0h66.921v-75h-81.393c.782 27.017 5.78 52.711 14.472 75zm-51.998 0h36c-8.103-22.704-12.746-48.298-13.479-75h-46.918c1.356 27.574 10.144 53.232 24.397 75zm230.317-90h46.922c-1.304-27.121-9.67-52.779-24.246-75h-36.155c8.102 22.704 12.746 48.298 13.479 75zm-96.398 0h81.393c-.781-27.017-5.779-52.711-14.472-75h-66.921v17.5c0 4.143-3.357 7.5-7.5 7.5s-7.5-3.357-7.5-7.5v-17.5h-66.921c-8.692 22.289-13.69 47.983-14.472 75h81.393v-27.5c0-4.143 3.357-7.5 7.5-7.5s7.5 3.357 7.5 7.5zm-158.316 0h46.918c.733-26.702 5.377-52.296 13.479-75h-36c-14.253 21.768-23.041 47.426-24.397 75zm158.316-90h60.25c-1.859-3.688-3.833-7.249-5.92-10.676-14.979-24.604-34.043-39.359-54.33-42.285zm-75.25 0h60.25v-52.961c-20.287 2.926-39.351 17.682-54.33 42.285-2.087 3.427-4.061 6.988-5.92 10.676zm-47.467 0h30.848c2.936-6.479 6.183-12.656 9.727-18.477 5.675-9.32 11.923-17.432 18.627-24.253-23.079 9.253-43.371 24.052-59.202 42.73z" fill="#4980ac"/></g></svg>