<svg id="Capa_1" enable-background="new 0 0 497 497" height="512" viewBox="0 0 497 497" width="512" xmlns="http://www.w3.org/2000/svg"><g><path d="m302.198 376.75s-22.858-23.644-57.698-23.644-49.698 23.644-49.698 23.644-3.26 14.55-5.993 26.75c0 0 20.932 10 59.692 10s59.692-10 59.692-10c-2.735-12.2-5.995-26.75-5.995-26.75z" fill="#7e8b96"/><path d="m309.581 409.701c-.432-1.928-.903-4.028-1.389-6.201h-119.384c-.487 2.173-.957 4.273-1.389 6.201-2.858 12.754-11.312 20.549-31.439 20.549 0 0 13.2 15 88.52 15s96.52-15 96.52-15c-20.127 0-28.581-7.794-31.439-20.549z" fill="#a2abb8"/><path d="m378.863 452.75c0 4.142-3.358 7.5-7.5 7.5h-245.726c-4.142 0-7.5-3.358-7.5-7.5v-7.5c0-8.284 6.716-15 15-15h230.727c8.284 0 15 6.716 15 15v7.5z" fill="#c8d2dc"/><path d="m20 36.75h-5c-8.25 0-15 6.75-15 15v16l248.5 22.956z" fill="#a2abb8"/><path d="m20 69.598 228.5 21.108 248.5-22.956v-16c0-8.25-6.75-15-15-15h-462z" fill="#c8d2dc"/><path d="m248.5 322.794-248.5 22.956v16c0 8.25 6.75 15 15 15h467c8.25 0 15-6.75 15-15v-3.122z" fill="#a2abb8"/><path d="m20.334 346.75c1.447 6.764 7.486 11.878 14.666 11.878h462v-11.878l-248.5-21.077z" fill="#c8d2dc"/><path d="m20.88 346.75h-20.88v-279h20z" fill="#e9edf1"/><path d="m20 341.75c0 1.754.321 3.432.88 5h476.12v-279h-477z" fill="#f7f9fa"/><path d="m179.867 173.468-21.104 23.282c4.199 25.411 10.701 52.645 20.169 69.933 11.713 21.387 50.309 44.165 68.865 49.959.23.072.466.108.702.108l20.854-27.886z" fill="#4980ac"/><path d="m344.614 135.678c0-1.277-.501-2.535-1.446-3.102-29.548-17.728-87.712-32.903-93.997-34.73-.221-.064-.446-.096-.67-.096l-73.585 24.342c-7.767 3.326-15.026 6.852-21.082 10.485-.945.567-1.446 1.825-1.446 3.102 0 8.407 1.85 33.68 6.377 61.072h24.731l-.004-.033c3.764 20.932 8.825 40.459 15.447 52.966 8.366 15.8 31.473 32.388 49.565 41.762-.001 0-.002-.001-.002-.001v25.306c.236 0 .472-.036.703-.108 18.556-5.794 57.151-28.572 68.865-49.959l20.169-69.933c4.524-27.393 6.375-52.666 6.375-61.073z" fill="#81a9c8"/><path d="m248.5 196.75h-65.006c-4.751-26.402-7.436-55.038-8.58-74.658 30.129-12.902 67.918-22.792 72.915-24.245.221-.064.446-.096.67-.096v98.999zm0 0v94.694c.001 0 .001.001.002.001 24.358 0 56.913-13.246 69.565-24.762 9.468-17.288 15.97-44.522 20.169-69.932h-89.736z" fill="#bcd1e1"/></g></svg>