<svg id="Capa_1" enable-background="new 0 0 497 497" height="512" viewBox="0 0 497 497" width="512" xmlns="http://www.w3.org/2000/svg"><g><path d="m-17.57 241h532.139v15h-532.139z" fill="#a2abb8" transform="matrix(.707 .707 -.707 .707 248.5 -102.932)"/><path d="m162.054 142.054c-30.923 25.144-50.684 63.484-50.684 106.446 0 75.735 61.395 137.13 137.13 137.13 42.961 0 81.302-19.761 106.446-50.684-23.59 19.181-212.073-169.302-192.892-192.892z" fill="#7dc03a"/><path d="m248.5 111.37c-32.773 0-62.856 11.503-86.446 30.684-19.181 23.59-30.684 53.672-30.684 86.446 0 75.735 61.395 137.13 137.13 137.13 32.773 0 62.856-11.503 86.446-30.684 19.181-23.59 30.684-53.672 30.684-86.446 0-75.735-61.395-137.13-137.13-137.13z" fill="#bce097"/><path d="m402.748 387.749c-15.558 10.84-25.748 28.851-25.748 49.251 0 33.137 26.863 60 60 60 20.4 0 38.411-10.19 49.252-25.749-9.714 6.769-90.272-73.789-83.504-83.502z" fill="#81a9c8"/><path d="m437 377c-12.737 0-24.538 3.98-34.252 10.749-6.768 9.713-10.748 21.514-10.748 34.251 0 33.137 26.863 60 60 60 12.737 0 24.538-3.98 34.252-10.749 6.768-9.713 10.748-21.514 10.748-34.251 0-33.137-26.863-60-60-60z" fill="#bcd1e1"/><path d="m25.748 10.749c-15.558 10.84-25.748 28.851-25.748 49.251 0 33.137 26.863 60 60 60 20.4 0 38.411-10.19 49.252-25.749-9.714 6.769-90.272-73.789-83.504-83.502z" fill="#81a9c8"/><path d="m60 0c-12.737 0-24.538 3.98-34.252 10.749-6.768 9.713-10.748 21.514-10.748 34.251 0 33.137 26.863 60 60 60 12.737 0 24.538-3.98 34.252-10.749 6.768-9.713 10.748-21.514 10.748-34.251 0-33.137-26.863-60-60-60z" fill="#bcd1e1"/><g fill="#81a9c8"><circle cx="394.574" cy="394.574" r="15"/><circle cx="102.426" cy="102.426" r="15"/><circle cx="151.549" cy="151.52" r="15"/><circle cx="345.451" cy="345.48" r="15"/></g><path d="m291 326.189c0 2.44-1.555 4.609-3.869 5.383-7.822 2.615-27.262 7.928-56.131 7.928s-48.309-5.313-56.131-7.928c-2.314-.774-3.869-2.943-3.869-5.383v-63.379c0-2.44 1.555-4.609 3.869-5.383 7.822-2.615 27.262-7.928 56.131-7.928s48.309 5.313 56.131 7.928c2.314.774 3.869 2.943 3.869 5.383z" fill="#7dc03a"/><path d="m273.5 255.262c-4.142 0-7.5-3.357-7.5-7.5v-40.762c0-16.542-13.458-30-30-30s-30 13.458-30 30v40.762c0 4.143-3.358 7.5-7.5 7.5s-7.5-3.357-7.5-7.5v-40.762c0-24.813 20.187-45 45-45s45 20.187 45 45v40.762c0 4.142-3.358 7.5-7.5 7.5z" fill="#7dc03a"/><path d="m276 220.661v-24.661c0-16.542-13.458-30-30-30s-30 13.458-30 30v24.661l-15 2.663v-27.324c0-24.813 20.187-45 45-45s45 20.187 45 45v27.324z" fill="#c8d2dc"/><path d="m201 223.324v27.294l15-2.663v-27.412c-5.807.822-10.821 1.805-15 2.781z" fill="#a2abb8"/><path d="m276 220.542v27.412l15 2.663v-27.294c-4.179-.975-9.193-1.958-15-2.781z" fill="#a2abb8"/><path d="m306 310.189c0 2.44-1.555 4.609-3.869 5.383-7.822 2.615-27.262 7.928-56.131 7.928s-48.309-5.313-56.131-7.928c-2.314-.774-3.869-2.943-3.869-5.383v-63.379c0-2.44 1.555-4.609 3.869-5.383 7.822-2.615 27.262-7.928 56.131-7.928s48.309 5.313 56.131 7.928c2.314.774 3.869 2.943 3.869 5.383z" fill="#ffd064"/><path d="m248.5 438.13c-104.563 0-189.63-85.067-189.63-189.63 0-4.143 3.358-7.5 7.5-7.5s7.5 3.357 7.5 7.5c0 96.291 78.339 174.63 174.63 174.63 4.142 0 7.5 3.357 7.5 7.5s-3.358 7.5-7.5 7.5z" fill="#a2abb8"/><path d="m430.63 256c-4.142 0-7.5-3.357-7.5-7.5 0-96.291-78.339-174.63-174.63-174.63-4.142 0-7.5-3.357-7.5-7.5s3.358-7.5 7.5-7.5c104.563 0 189.63 85.067 189.63 189.63 0 4.143-3.358 7.5-7.5 7.5z" fill="#a2abb8"/><path d="m306 310.189c0 2.44-1.555 4.609-3.869 5.383-7.822 2.615-27.262 7.928-56.131 7.928s-48.309-5.313-56.131-7.928c-2.314-.774-3.869-2.943-3.869-5.383v-63.379c0-2.44 1.555-4.609 3.869-5.383 7.822-2.615 27.262-7.928 56.131-7.928s48.309 5.313 56.131 7.928c2.314.774 3.869 2.943 3.869 5.383z" fill="#ffd064"/></g></svg>