<svg id="Capa_1" enable-background="new 0 0 497 497" height="512" viewBox="0 0 497 497" width="512" xmlns="http://www.w3.org/2000/svg"><g><path d="m115.939 161.61c.047-.071.093-.151.14-.225-16.479 24.999-26.079 54.934-26.079 87.115 0 87.537 70.963 158.5 158.5 158.5 55.534 0 104.389-28.567 132.695-71.802-.043.063-.093.129-.134.191-16.119 24.592-281.241-149.187-265.122-173.779z" fill="#81a9c8"/><path d="m248.5 90c-55.356 0-104.075 28.384-132.421 71.386-.047.074-.094.153-.14.225-16.119 24.592 6.229 119.944 79.44 167.932s169.563 30.439 185.682 5.847c.041-.063.09-.128.134-.191 16.311-24.915 25.805-54.696 25.805-86.699 0-87.537-70.963-158.5-158.5-158.5z" fill="#bcd1e1"/><path d="m233.799 244.112c0-14.028-22.496-26.17-56.534-26.17-10.979 0-20.012.903-27.229 2.589-.022.004-.051.003-.072.008-15.118 3.546-22.192 10.562-22.192 20.053 0 34.528 18.976 55.289 53.013 55.289 19.549 0 34.129-5.687 43-17.07.033-.042.051-.092.08-.136 6.514-8.426 9.934-19.936 9.934-34.563z" fill="#7e8b96"/><path d="m201.908 281.799c-34.037 0-53.013-20.761-53.013-55.289 0-2.115.358-4.105 1.072-5.964.015-.004.031-.009.046-.013-.016.001-.033.002-.047.005-15.118 3.546-22.192 10.562-22.192 20.053 0 34.528 18.976 55.289 53.013 55.289 17.304 0 30.707-4.465 39.711-13.384-7.393-.258-14.753-.697-18.59-.697z" fill="#4e5a61"/><path d="m369.228 240.592c0-14.028-15.456-22.65-49.493-22.65-12.933 0-24.191 1.758-33.191 4.701-.021.006-.047.008-.067.015-14.65 4.805-23.276 12.768-23.276 21.454 0 34.528 18.976 51.769 53.013 51.769 18.34 0 32.308-6.028 41.29-16.989.033-.04.053-.086.083-.127 7.626-9.373 11.641-22.315 11.641-38.173z" fill="#7e8b96"/><path d="m337.336 281.799c-34.037 0-53.013-17.24-53.013-51.769 0-2.539.747-5.014 2.155-7.368.009-.003.019-.009.028-.011-.01.002-.021.003-.03.006-14.65 4.805-23.276 12.768-23.276 21.454 0 34.528 18.976 51.769 53.013 51.769 17.527 0 31.048-5.517 40.053-15.572-6.998.88-14.719 1.491-18.93 1.491z" fill="#4e5a61"/><path d="m241 455.449v-41.08c-13.651-.629-27.264-2.955-40.568-6.98-3.965-1.199-6.206-5.386-5.007-9.351 1.199-3.966 5.385-6.202 9.351-5.007 28.668 8.674 58.904 8.68 87.443.02 3.96-1.204 8.152 1.034 9.354 4.999 1.203 3.964-1.035 8.151-4.999 9.354-13.281 4.03-26.897 6.354-40.574 6.972v41.073zm15-413.898v41.08c13.651.629 27.264 2.955 40.568 6.98 3.965 1.199 6.206 5.386 5.007 9.351-.98 3.24-3.957 5.33-7.176 5.33-.72 0-1.45-.104-2.175-.323-28.668-8.674-58.904-8.68-87.443-.02-3.961 1.204-8.152-1.034-9.354-4.999-1.203-3.964 1.035-8.151 4.999-9.354 13.281-4.03 26.897-6.354 40.574-6.972v-41.073zm-159.138 347.981 29.048-29.048c-9.208-10.098-17.189-21.368-23.75-33.622-1.956-3.652-.58-8.197 3.071-10.152 3.652-1.956 8.193-.578 10.152 3.072 14.138 26.405 35.514 47.789 61.818 61.846 3.652 1.949 5.033 6.496 3.08 10.149-1.952 3.654-6.496 5.032-10.149 3.08-12.241-6.541-23.513-14.526-33.62-23.761l-29.043 29.043zm303.276-282.064-29.048 29.048c9.208 10.098 17.189 21.368 23.75 33.622 1.956 3.652.58 8.197-3.072 10.152-2.984 1.598-6.567.971-8.843-1.305-.509-.509-.952-1.099-1.309-1.766-14.138-26.405-35.514-47.789-61.818-61.846-3.652-1.949-5.033-6.496-3.08-10.149 1.952-3.654 6.496-5.032 10.149-3.08 12.241 6.541 23.513 14.526 33.62 23.761l29.043-29.043zm-358.587 133.532h41.08c.629-13.651 2.955-27.264 6.98-40.568 1.199-3.965 5.386-6.206 9.351-5.007 3.966 1.199 6.202 5.385 5.007 9.351-8.674 28.668-8.68 58.904-.02 87.443 1.204 3.96-1.034 8.152-4.999 9.354-3.964 1.203-8.151-1.035-9.354-4.999-4.03-13.281-6.354-26.897-6.972-40.574h-41.073zm413.898 15h-41.08c-.629 13.651-2.955 27.264-6.98 40.568-1.199 3.965-5.386 6.206-9.351 5.007-3.24-.98-5.33-3.957-5.33-7.176 0-.72.104-1.45.323-2.175 8.674-28.668 8.68-58.904.02-87.443-1.204-3.961 1.034-8.152 4.999-9.354 3.964-1.203 8.151 1.035 9.354 4.999 4.03 13.281 6.354 26.897 6.972 40.574h41.073zm-347.981-159.138 29.048 29.048c10.098-9.208 21.368-17.189 33.622-23.75 3.652-1.956 8.197-.58 10.152 3.071 1.956 3.652.578 8.193-3.071 10.152-26.405 14.138-47.789 35.514-61.846 61.818-1.949 3.652-6.496 5.033-10.149 3.08-3.654-1.952-5.032-6.496-3.08-10.149 6.541-12.241 14.526-23.513 23.761-33.62l-29.043-29.043zm282.064 303.276-29.048-29.048c-10.098 9.208-21.368 17.189-33.622 23.75-3.652 1.956-8.197.58-10.152-3.072-1.598-2.984-.971-6.567 1.305-8.843.509-.509 1.099-.952 1.766-1.309 26.405-14.138 47.789-35.514 61.846-61.818 1.949-3.652 6.496-5.033 10.149-3.08 3.654 1.952 5.032 6.496 3.08 10.149-6.541 12.241-14.526 23.513-23.761 33.62l29.043 29.043z" fill="#4980ac"/><path d="m12.397 228.397c-7.351 3.702-12.397 11.311-12.397 20.103 0 12.426 10.074 22.5 22.5 22.5 8.792 0 16.401-5.046 20.103-12.397-3.039 1.53-31.736-27.167-30.206-30.206z" fill="#4980ac"/><path d="m22.5 226c-3.634 0-7.064.867-10.103 2.397-1.53 3.039-2.397 6.469-2.397 10.103 0 12.426 10.074 22.5 22.5 22.5 3.634 0 7.064-.867 10.103-2.397 1.53-3.039 2.397-6.469 2.397-10.103 0-12.426-10.074-22.5-22.5-22.5z" fill="#81a9c8"/><path d="m238.397 454.397c-7.351 3.702-12.397 11.311-12.397 20.103 0 12.426 10.074 22.5 22.5 22.5 8.792 0 16.401-5.046 20.103-12.397-3.039 1.53-31.736-27.167-30.206-30.206z" fill="#4980ac"/><path d="m248.5 452c-3.634 0-7.064.867-10.103 2.397-1.53 3.039-2.397 6.469-2.397 10.103 0 12.426 10.074 22.5 22.5 22.5 3.634 0 7.064-.867 10.103-2.397 1.53-3.039 2.397-6.469 2.397-10.103 0-12.426-10.074-22.5-22.5-22.5z" fill="#81a9c8"/><path d="m238.397 2.397c-7.351 3.702-12.397 11.311-12.397 20.103 0 12.426 10.074 22.5 22.5 22.5 8.792 0 16.401-5.046 20.103-12.397-3.039 1.53-31.736-27.167-30.206-30.206z" fill="#4980ac"/><path d="m248.5 0c-3.634 0-7.064.867-10.103 2.397-1.53 3.039-2.397 6.469-2.397 10.103 0 12.426 10.074 22.5 22.5 22.5 3.634 0 7.064-.867 10.103-2.397 1.53-3.039 2.397-6.469 2.397-10.103 0-12.426-10.074-22.5-22.5-22.5z" fill="#81a9c8"/><path d="m464.397 228.397c-7.351 3.702-12.397 11.311-12.397 20.103 0 12.426 10.074 22.5 22.5 22.5 8.792 0 16.401-5.046 20.103-12.397-3.039 1.53-31.736-27.167-30.206-30.206z" fill="#4980ac"/><path d="m474.5 226c-3.634 0-7.064.867-10.103 2.397-1.53 3.039-2.397 6.469-2.397 10.103 0 12.426 10.074 22.5 22.5 22.5 3.634 0 7.064-.867 10.103-2.397 1.53-3.039 2.397-6.469 2.397-10.103 0-12.426-10.074-22.5-22.5-22.5z" fill="#81a9c8"/><path d="m78.591 388.203c-7.351 3.702-12.397 11.311-12.397 20.103 0 12.426 10.074 22.5 22.5 22.5 8.792 0 16.401-5.046 20.103-12.397-3.039 1.53-31.736-27.167-30.206-30.206z" fill="#4980ac"/><path d="m88.694 385.806c-3.634 0-7.064.867-10.103 2.397-1.53 3.039-2.397 6.469-2.397 10.103 0 12.426 10.074 22.5 22.5 22.5 3.634 0 7.064-.867 10.103-2.397 1.53-3.039 2.397-6.469 2.397-10.103 0-12.426-10.074-22.5-22.5-22.5z" fill="#81a9c8"/><path d="m398.203 388.203c-7.351 3.702-12.397 11.311-12.397 20.103 0 12.426 10.074 22.5 22.5 22.5 8.792 0 16.401-5.046 20.103-12.397-3.039 1.53-31.736-27.167-30.206-30.206z" fill="#4980ac"/><path d="m408.306 385.806c-3.634 0-7.064.867-10.103 2.397-1.53 3.039-2.397 6.469-2.397 10.103 0 12.426 10.074 22.5 22.5 22.5 3.634 0 7.064-.867 10.103-2.397 1.53-3.039 2.397-6.469 2.397-10.103 0-12.426-10.073-22.5-22.5-22.5z" fill="#81a9c8"/><path d="m78.591 68.591c-7.351 3.702-12.397 11.311-12.397 20.103 0 12.426 10.074 22.5 22.5 22.5 8.792 0 16.401-5.046 20.103-12.397-3.039 1.53-31.736-27.167-30.206-30.206z" fill="#4980ac"/><path d="m88.694 66.194c-3.634 0-7.064.867-10.103 2.397-1.53 3.039-2.397 6.469-2.397 10.103 0 12.426 10.074 22.5 22.5 22.5 3.634 0 7.064-.867 10.103-2.397 1.53-3.039 2.397-6.469 2.397-10.103 0-12.426-10.074-22.5-22.5-22.5z" fill="#81a9c8"/><path d="m398.203 68.591c-7.351 3.702-12.397 11.311-12.397 20.103 0 12.426 10.074 22.5 22.5 22.5 8.792 0 16.401-5.046 20.103-12.397-3.039 1.53-31.736-27.167-30.206-30.206z" fill="#4980ac"/><path d="m408.306 66.194c-3.634 0-7.064.867-10.103 2.397-1.53 3.039-2.397 6.469-2.397 10.103 0 12.426 10.074 22.5 22.5 22.5 3.634 0 7.064-.867 10.103-2.397 1.53-3.039 2.397-6.469 2.397-10.103 0-12.426-10.073-22.5-22.5-22.5z" fill="#81a9c8"/><path d="m316.214 303.381c-19.052 0-33.834-5.085-43.938-15.113-9.744-9.672-14.891-23.697-15.313-41.712-3.934-1.381-12.992-1.381-16.926 0-.423 18.015-5.569 32.04-15.313 41.712-10.104 10.028-24.886 15.113-43.938 15.113-37.892 0-60.514-23.473-60.514-62.789 0-13.754 9.888-30.149 56.993-30.149 28.845 0 50.903 8.427 59.21 21.543 3.361-.958 7.398-1.463 12.024-1.463s8.663.505 12.024 1.463c8.307-13.116 30.365-21.543 59.21-21.543 47.105 0 56.993 16.396 56.993 30.149.002 39.316-22.621 62.789-60.512 62.789zm3.52-77.939c-31.188 0-47.8 10.843-47.8 18.67 0 30.202 14.07 44.269 44.279 44.269 29.35 0 45.514-16.972 45.514-47.789.001-13.673-29.367-15.15-41.993-15.15zm-142.468 0c-12.626 0-41.993 1.477-41.993 15.149 0 30.817 16.164 47.789 45.514 47.789 30.209 0 44.279-14.066 44.279-44.269-.001-7.826-16.612-18.669-47.8-18.669z" fill="#4e5a61"/></g></svg>