<svg id="Layer_1" enable-background="new 0 0 512 512" height="512" viewBox="0 0 512 512" width="512" xmlns="http://www.w3.org/2000/svg"><g><path d="m310 61h194.5v120h-194.5z" fill="#a9dbf5"/><path d="m340 91h164.5v60h-164.5z" fill="#43809f"/><path d="m385.993 123c-8.284 0-15-6.716-15-15v-17h30v17c0 8.284-6.716 15-15 15z" fill="#f78e36"/><path d="m436 123c-8.284 0-15-6.716-15-15v-17h30v17c0 8.284-6.716 15-15 15z" fill="#f78e36"/><path d="m310 181h194.5v120h-194.5z" fill="#88c3e0"/><path d="m340 211h164.5v60h-164.5z" fill="#43809f"/><path d="m385.993 243c-8.284 0-15-6.716-15-15v-17h30v17c0 8.284-6.716 15-15 15z" fill="#f78e36"/><path d="m436 243c-8.284 0-15-6.716-15-15v-17h30v17c0 8.284-6.716 15-15 15z" fill="#f78e36"/><path d="m310 301h194.5v120h-194.5z" fill="#a9dbf5"/><path d="m340 331h164.5v60h-164.5z" fill="#43809f"/><path d="m385.993 363c-8.284 0-15-6.716-15-15v-17h30v17c0 8.284-6.716 15-15 15z" fill="#f78e36"/><path d="m436 363c-8.284 0-15-6.716-15-15v-17h30v17c0 8.284-6.716 15-15 15z" fill="#f78e36"/><path d="m7.5 61h194.5v120h-194.5z" fill="#a9dbf5"/><path d="m7.5 91h164.5v60h-164.5z" fill="#43809f"/><path d="m126.007 123c8.284 0 15-6.716 15-15v-17h-30v17c0 8.284 6.716 15 15 15z" fill="#f78e36"/><path d="m76 123c8.284 0 15-6.716 15-15v-17h-30v17c0 8.284 6.716 15 15 15z" fill="#f78e36"/><path d="m7.5 181h194.5v120h-194.5z" fill="#88c3e0"/><path d="m7.5 211h164.5v60h-164.5z" fill="#43809f"/><path d="m126.007 243c8.284 0 15-6.716 15-15v-17h-30v17c0 8.284 6.716 15 15 15z" fill="#f78e36"/><path d="m76 243c8.284 0 15-6.716 15-15v-17h-30v17c0 8.284 6.716 15 15 15z" fill="#f78e36"/><path d="m7.5 301h194.5v120h-194.5z" fill="#a9dbf5"/><path d="m7.5 331h164.5v60h-164.5z" fill="#43809f"/><path d="m126.007 363c8.284 0 15-6.716 15-15v-17h-30v17c0 8.284 6.716 15 15 15z" fill="#f78e36"/><path d="m76 363c8.284 0 15-6.716 15-15v-17h-30v17c0 8.284 6.716 15 15 15z" fill="#f78e36"/><path d="m7.5 421h497v30h-497z" fill="#43809f"/><path d="m504.5 53.5h-194.5c-4.142 0-7.5 3.358-7.5 7.5v32.5h-93v-32.5c0-4.142-3.358-7.5-7.5-7.5h-137.387c-4.142 0-7.5 3.358-7.5 7.5s3.358 7.5 7.5 7.5h129.887v105h-179.5v-15h157c4.142 0 7.5-3.358 7.5-7.5v-60c0-4.142-3.358-7.5-7.5-7.5h-157v-15h16.683c4.142 0 7.5-3.358 7.5-7.5s-3.358-7.5-7.5-7.5h-24.183c-4.142 0-7.5 3.358-7.5 7.5v390c0 4.142 3.358 7.5 7.5 7.5h120.555c4.142 0 7.5-3.358 7.5-7.5s-3.358-7.5-7.5-7.5h-113.055v-15h482v15h-336.759c-4.142 0-7.5 3.358-7.5 7.5s3.358 7.5 7.5 7.5h344.259c4.142 0 7.5-3.358 7.5-7.5v-390c0-4.142-3.358-7.5-7.5-7.5zm-126.007 285h15v9.5c0 4.136-3.364 7.5-7.5 7.5s-7.5-3.364-7.5-7.5zm7.5 32c12.407 0 22.5-10.093 22.5-22.5v-9.5h5.007v9.5c0 12.407 10.093 22.5 22.5 22.5s22.5-10.093 22.5-22.5v-9.5h38.5v45h-149.5v-45h15.993v9.5c0 12.407 10.093 22.5 22.5 22.5zm42.507-32h15v9.5c0 4.136-3.364 7.5-7.5 7.5s-7.5-3.364-7.5-7.5zm-126-85h-93v-25h93zm-93 96h93v25h-93zm93-15h-93v-66h93zm0-121h-93v-65h93zm-93 176h93v24h-93zm108-201h179.5v15h-157c-4.142 0-7.5 3.358-7.5 7.5v60c0 4.142 3.358 7.5 7.5 7.5h107.496c4.142 0 7.5-3.358 7.5-7.5s-3.358-7.5-7.5-7.5h-99.996v-45h15.993v9.5c0 12.407 10.093 22.5 22.5 22.5s22.5-10.093 22.5-22.5v-9.5h5.007v9.5c0 12.407 10.093 22.5 22.5 22.5s22.5-10.093 22.5-22.5v-9.5h38.5v45h-16.295c-4.142 0-7.5 3.358-7.5 7.5s3.358 7.5 7.5 7.5h16.295v15h-179.5zm111 30h15v9.5c0 4.136-3.364 7.5-7.5 7.5s-7.5-3.364-7.5-7.5zm-50.007 0h15v9.5c0 4.136-3.364 7.5-7.5 7.5s-7.5-3.364-7.5-7.5zm0-120h15v9.5c0 4.136-3.364 7.5-7.5 7.5s-7.5-3.364-7.5-7.5zm7.5 32c12.407 0 22.5-10.093 22.5-22.5v-9.5h5.007v9.5c0 12.407 10.093 22.5 22.5 22.5s22.5-10.093 22.5-22.5v-9.5h38.5v45h-149.5v-45h15.993v9.5c0 12.407 10.093 22.5 22.5 22.5zm42.507-32h15v9.5c0 4.136-3.364 7.5-7.5 7.5s-7.5-3.364-7.5-7.5zm-111-30h179.5v15h-157c-4.142 0-7.5 3.358-7.5 7.5v60c0 4.142 3.358 7.5 7.5 7.5h157v15h-179.5zm-15 40v25h-93v-25zm-108 80v105h-179.5v-15h157c4.142 0 7.5-3.358 7.5-7.5v-60c0-4.142-3.358-7.5-7.5-7.5h-157v-15zm-126 150h15v9.5c0 4.136-3.364 7.5-7.5 7.5s-7.5-3.364-7.5-7.5zm7.5 32c12.407 0 22.5-10.093 22.5-22.5v-9.5h5.007v9.5c0 12.407 10.093 22.5 22.5 22.5s22.5-10.093 22.5-22.5v-9.5h15.993v45h-149.5v-45h38.5v9.5c0 12.407 10.093 22.5 22.5 22.5zm42.507-32h15v9.5c0 4.136-3.364 7.5-7.5 7.5s-7.5-3.364-7.5-7.5zm-50.007-120h15v9.5c0 4.136-3.364 7.5-7.5 7.5s-7.5-3.364-7.5-7.5zm7.5 32c12.407 0 22.5-10.093 22.5-22.5v-9.5h5.007v9.5c0 12.407 10.093 22.5 22.5 22.5s22.5-10.093 22.5-22.5v-9.5h15.993v45h-149.5v-45h38.5v9.5c0 12.407 10.093 22.5 22.5 22.5zm42.507-32h15v9.5c0 4.136-3.364 7.5-7.5 7.5s-7.5-3.364-7.5-7.5zm15-120v9.5c0 4.136-3.364 7.5-7.5 7.5s-7.5-3.364-7.5-7.5v-9.5zm-50.007 0v9.5c0 4.136-3.364 7.5-7.5 7.5s-7.5-3.364-7.5-7.5v-9.5zm-30 0v9.5c0 12.407 10.093 22.5 22.5 22.5s22.5-10.093 22.5-22.5v-9.5h5.007v9.5c0 12.407 10.093 22.5 22.5 22.5s22.5-10.093 22.5-22.5v-9.5h15.993v45h-149.5v-45zm-38.5 315v-15h157c4.142 0 7.5-3.358 7.5-7.5v-60c0-4.142-3.358-7.5-7.5-7.5h-157v-15h179.5v105zm302.5 0v-105h179.5v15h-157c-4.142 0-7.5 3.358-7.5 7.5v60c0 4.142 3.358 7.5 7.5 7.5h157v15z"/></g></svg>