<svg id="Layer_1" enable-background="new 0 0 512 512" height="512" viewBox="0 0 512 512" width="512" xmlns="http://www.w3.org/2000/svg"><g><path d="m377.55 346.75c-2.04-6.11-7.92-10.25-14.55-10.25h-11.607v-32.535c0-2.209-1.791-4-4-4h-23.917c-2.209 0-4 1.791-4 4v19.567c0 2.209-1.791 4-4 4h-23.917c-2.209 0-4-1.791-4-4v-63.532c0-2.209-1.791-4-4-4h-23.917c-2.209 0-4 1.791-4 4v72.5c0 2.209-1.791 4-4 4h-23.199c-2.209 0-4-1.791-4-4v-7.181c0-2.209-1.791-4-4-4h-23.917c-2.209 0-4-1.791-4-4v-30.562c0-2.209-1.791-4-4-4h-23.917c-2.209 0-4 1.791-4 4v49.743h-11.609c-6.63 0-12.51 4.14-14.55 10.25l-17.21 51.72h277.26z" fill="#29cef6"/><g><path d="m377.55 346.75c-2.04-6.11-7.92-10.25-14.55-10.25h-8.622c-5.236 0-8.693 5.248-6.862 10.154.012.033.024.065.034.096l16.95 51.72h30z" fill="#22b5ed"/></g><g fill="#22b5ed"><path d="m347.393 234.412h-23.917c-2.209 0-4 1.791-4 4v25.713c0 2.209 1.791 4 4 4h23.917c2.209 0 4-1.791 4-4v-25.713c0-2.209-1.791-4-4-4z"/><path d="m347.393 157.758h-23.917c-2.209 0-4 1.791-4 4v40.345c0 2.209 1.791 4 4 4h23.917c2.209 0 4-1.791 4-4v-40.345c0-2.209-1.791-4-4-4z"/><path d="m283.558 157.758h-23.917c-2.209 0-4 1.791-4 4v49.511c0 2.209 1.791 4 4 4h23.917c2.209 0 4-1.791 4-4v-49.511c0-2.209-1.791-4-4-4z"/><path d="m221.273 211.269h-23.917c-2.209 0-4 1.791-4 4v33.121c0 2.209 1.791 4 4 4h23.917c2.209 0 4-1.791 4-4v-33.121c0-2.209-1.791-4-4-4z"/></g><path d="m374 504.5h-236c-12.15 0-22-9.85-22-22v-76c0-12.15 9.85-22 22-22h236c12.15 0 22 9.85 22 22v76c0 12.15-9.85 22-22 22z" fill="#a9dbf5"/><path d="m374 384.5h-30c12.15 0 22 9.85 22 22v76c0 12.15-9.85 22-22 22h30c12.15 0 22-9.85 22-22v-76c0-12.15-9.85-22-22-22z" fill="#88c3e0"/><path d="m226 334.5h60v220h-60z" fill="#43809f" transform="matrix(0 1 -1 0 700.5 188.5)"/><path d="m191.993 446.5c-8.284 0-15-6.716-15-15v-17h30v17c0 8.284-6.716 15-15 15z" fill="#f78e36"/><path d="m242 446.5c-8.284 0-15-6.716-15-15v-17h30v17c0 8.284-6.716 15-15 15z" fill="#f78e36"/><path d="m394.5 69.47h-277.26l17.21-51.72c2.04-6.11 7.92-10.25 14.55-10.25h214c6.63 0 12.51 4.14 14.55 10.25z" fill="#29cef6"/><path d="m377.55 17.75c-2.04-6.11-7.92-10.25-14.55-10.25h-30c6.63 0 12.51 4.14 14.55 10.25l16.95 51.72h30z" fill="#22b5ed"/><path d="m374 175.5h-236c-12.15 0-22-9.85-22-22v-76c0-12.15 9.85-22 22-22h236c12.15 0 22 9.85 22 22v76c0 12.15-9.85 22-22 22z" fill="#a9dbf5"/><path d="m374 55.5h-30c12.15 0 22 9.85 22 22v76c0 12.15-9.85 22-22 22h30c12.15 0 22-9.85 22-22v-76c0-12.15-9.85-22-22-22z" fill="#88c3e0"/><path d="m226 5.5h60v220h-60z" fill="#43809f" transform="matrix(0 1 -1 0 371.5 -140.5)"/><path d="m191.993 117.5c-8.284 0-15-6.716-15-15v-17h30v17c0 8.284-6.716 15-15 15z" fill="#f78e36"/><path d="m242 117.5c-8.284 0-15-6.716-15-15v-17h30v17c0 8.284-6.716 15-15 15z" fill="#f78e36"/><g><path d="m401.627 396.134-16.963-51.76c-3.071-9.195-11.776-15.374-21.664-15.374h-4.11v-25.03c0-6.341-5.159-11.5-11.5-11.5h-23.91c-6.341 0-11.5 5.159-11.5 11.5v16.06h-16.92v-60.03c0-6.341-5.159-11.5-11.5-11.5h-23.92c-6.341 0-11.5 5.159-11.5 11.5v26.942c0 4.142 3.357 7.5 7.5 7.5s7.5-3.358 7.5-7.5v-23.442h16.92v60.03c0 6.341 5.159 11.5 11.5 11.5h23.921c6.341 0 11.5-5.159 11.5-11.5v-16.06h16.909v29.03c0 4.142 3.357 7.5 7.5 7.5h11.61c3.424 0 6.412 2.06 7.423 5.086l9.334 28.482c-1.863-.37-3.787-.568-5.757-.568h-236c-2.023 0-3.999.205-5.909.595l9.473-28.47c1.024-3.065 4.012-5.125 7.436-5.125h11.61c4.143 0 7.5-3.358 7.5-7.5v-46.24h16.909v27.06c0 6.341 5.159 11.5 11.5 11.5h20.421v3.68c0 6.341 5.159 11.5 11.5 11.5h23.199c6.341 0 11.5-5.159 11.5-11.5v-12.814c0-4.142-3.357-7.5-7.5-7.5s-7.5 3.358-7.5 7.5v9.314h-16.199v-3.68c0-6.341-5.159-11.5-11.5-11.5h-20.42v-27.06c0-6.341-5.159-11.5-11.5-11.5h-23.91c-6.341 0-11.5 5.159-11.5 11.5v42.24h-4.11c-9.888 0-18.593 6.179-21.666 15.382l-17.21 51.72c-.203.61-1.624 7.431-1.624 10.398v76c0 16.267 13.233 29.5 29.5 29.5h28.006c4.143 0 7.5-3.358 7.5-7.5s-3.357-7.5-7.5-7.5h-28.006c-7.995 0-14.5-6.505-14.5-14.5v-76c0-7.995 6.505-14.5 14.5-14.5h236c7.995 0 14.5 6.505 14.5 14.5v76c0 7.995-6.505 14.5-14.5 14.5h-175.343c-4.143 0-7.5 3.358-7.5 7.5s3.357 7.5 7.5 7.5h175.343c16.267 0 29.5-13.233 29.5-29.5v-76c0-3.612-.656-7.074-1.849-10.275-.01-.03-.014-.061-.024-.091z"/><path d="m323.476 275.625h23.917c6.341 0 11.5-5.159 11.5-11.5v-25.712c0-6.341-5.159-11.5-11.5-11.5h-23.917c-6.341 0-11.5 5.159-11.5 11.5v25.712c0 6.341 5.159 11.5 11.5 11.5zm3.5-33.713h16.917v18.712h-16.917z"/><path d="m197.355 259.89h23.918c6.341 0 11.5-5.159 11.5-11.5v-33.121c0-6.341-5.159-11.5-11.5-11.5h-23.918c-6.341 0-11.5 5.159-11.5 11.5v33.121c0 6.341 5.16 11.5 11.5 11.5zm3.5-41.121h16.918v26.121h-16.918z"/><path d="m373.5 474.5v-60c0-4.142-3.357-7.5-7.5-7.5h-220c-4.143 0-7.5 3.358-7.5 7.5v60c0 4.142 3.357 7.5 7.5 7.5h220c4.143 0 7.5-3.358 7.5-7.5zm-124-52.5v9.5c0 4.136-3.364 7.5-7.5 7.5s-7.5-3.364-7.5-7.5v-9.5zm-50.007 0v9.5c0 4.136-3.364 7.5-7.5 7.5s-7.5-3.364-7.5-7.5v-9.5zm159.007 45h-205v-45h15.993v9.5c0 12.407 10.094 22.5 22.5 22.5s22.5-10.093 22.5-22.5v-9.5h5.007v9.5c0 12.407 10.094 22.5 22.5 22.5s22.5-10.093 22.5-22.5v-9.5h94z"/><path d="m401.651 67.225c-.009-.03-.014-.061-.024-.09l-16.963-51.76c-3.071-9.196-11.776-15.375-21.664-15.375h-42.948c-4.143 0-7.5 3.358-7.5 7.5s3.357 7.5 7.5 7.5h42.948c3.424 0 6.412 2.06 7.423 5.086l9.334 28.482c-1.863-.37-3.787-.568-5.757-.568h-236c-2.023 0-3.999.205-5.909.595l9.473-28.47c1.024-3.065 4.012-5.125 7.436-5.125h138.959c4.143 0 7.5-3.358 7.5-7.5s-3.357-7.5-7.5-7.5h-138.959c-9.888 0-18.593 6.179-21.666 15.382l-17.21 51.72c-.203.61-1.624 7.431-1.624 10.398v76c0 16.267 13.233 29.5 29.5 29.5h110.14v28.27c0 6.341 5.159 11.5 11.5 11.5h23.92c6.341 0 11.5-5.159 11.5-11.5v-28.27h16.921v19.1c0 6.341 5.159 11.5 11.5 11.5h23.909c6.341 0 11.5-5.159 11.5-11.5v-19.1h15.11c16.267 0 29.5-13.233 29.5-29.5v-76c0-3.612-.656-7.074-1.849-10.275zm-121.591 140.545h-16.92v-24.77h16.92zm63.83-9.17h-16.91v-15.6h16.909v15.6zm44.61-45.1c0 7.995-6.505 14.5-14.5 14.5h-236c-7.995 0-14.5-6.505-14.5-14.5v-76c0-7.995 6.505-14.5 14.5-14.5h236c7.995 0 14.5 6.505 14.5 14.5z"/><path d="m366 78h-220c-4.143 0-7.5 3.358-7.5 7.5v60c0 4.142 3.357 7.5 7.5 7.5h220c4.143 0 7.5-3.358 7.5-7.5v-60c0-4.142-3.357-7.5-7.5-7.5zm-116.5 15v9.5c0 4.136-3.364 7.5-7.5 7.5s-7.5-3.364-7.5-7.5v-9.5zm-50.007 0v9.5c0 4.136-3.364 7.5-7.5 7.5s-7.5-3.364-7.5-7.5v-9.5zm159.007 45h-205v-45h15.993v9.5c0 12.407 10.094 22.5 22.5 22.5s22.5-10.093 22.5-22.5v-9.5h5.007v9.5c0 12.407 10.094 22.5 22.5 22.5s22.5-10.093 22.5-22.5v-9.5h94z"/></g></g></svg>