<svg id="Layer_1" enable-background="new 0 0 512 512" height="512" viewBox="0 0 512 512" width="512" xmlns="http://www.w3.org/2000/svg"><g><circle cx="324.5" cy="256" fill="#f3f3f3" r="180"/><path d="m324.5 76c-5.052 0-10.053.219-15 .627 92.392 7.624 165 85.014 165 179.373s-72.608 171.749-165 179.373c4.947.408 9.948.627 15 .627 99.411 0 180-80.589 180-180s-80.589-180-180-180z" fill="#e4e4e4"/><path d="m478.05 162.04-153.55 93.96v-180c64.97 0 121.91 34.43 153.55 86.04z" fill="#f78e36"/><path d="m324.5 78.513c57.6 9.665 105.919 46.676 131.149 97.235l22.401-13.708c-31.64-51.61-88.58-86.04-153.55-86.04z" fill="#f86f1b"/><path d="m504.5 256c0 7.36-.44 14.61-1.3 21.74l-178.7-21.74 153.55-93.96c16.78 27.35 26.45 59.53 26.45 93.96z" fill="#29cef6"/><path d="m455.649 175.748c12.058 24.162 18.851 51.411 18.851 80.252 0 6.123-.312 12.172-.909 18.138l29.609 3.602c.86-7.13 1.3-14.38 1.3-21.74 0-34.43-9.67-66.61-26.45-93.96z" fill="#22b5ed"/><path d="m503.2 277.74c-2.05 17-6.46 33.26-12.91 48.46l-165.79-70.2z" fill="#ffc328"/><path d="m464.505 315.282 25.785 10.918c6.45-15.2 10.86-31.46 12.91-48.46l-29.609-3.602c-1.429 14.272-4.521 28.052-9.086 41.144z" fill="#ffb200"/><path d="m286 299.97h-277.26l17.21-51.72c2.04-6.11 7.92-10.25 14.55-10.25h214c6.63 0 12.51 4.14 14.55 10.25z" fill="#29cef6"/><path d="m269.05 248.25c-2.04-6.11-7.92-10.25-14.55-10.25h-30c6.63 0 12.51 4.14 14.55 10.25l16.95 51.72h30z" fill="#22b5ed"/><path d="m265.5 406h-236c-12.15 0-22-9.85-22-22v-76c0-12.15 9.85-22 22-22h236c12.15 0 22 9.85 22 22v76c0 12.15-9.85 22-22 22z" fill="#a9dbf5"/><path d="m265.5 286h-30c12.15 0 22 9.85 22 22v76c0 12.15-9.85 22-22 22h30c12.15 0 22-9.85 22-22v-76c0-12.15-9.85-22-22-22z" fill="#88c3e0"/><path d="m117.5 236h60v220h-60z" fill="#43809f" transform="matrix(0 1 -1 0 493.5 198.5)"/><path d="m83.493 348c-8.284 0-15-6.716-15-15v-17h30v17c0 8.284-6.716 15-15 15z" fill="#f78e36"/><path d="m133.5 348c-8.284 0-15-6.716-15-15v-17h30v17c0 8.284-6.716 15-15 15z" fill="#f78e36"/><g><path d="m324.5 68.5c-46.426 0-90.975 17.096-125.441 48.139-33.063 29.781-54.372 70.066-60.334 113.861h-42.673c-4.143 0-7.5 3.358-7.5 7.5s3.357 7.5 7.5 7.5h158.448c3.424 0 6.412 2.06 7.423 5.086l9.334 28.482c-1.863-.37-3.787-.568-5.757-.568h-236c-2.023 0-3.999.205-5.909.595l9.473-28.47c1.023-3.066 4.012-5.125 7.436-5.125h23.365c4.143 0 7.5-3.358 7.5-7.5s-3.357-7.5-7.5-7.5h-23.365c-9.888 0-18.593 6.179-21.666 15.382l-17.21 51.72c-.203.61-1.624 7.431-1.624 10.398v76c0 16.267 13.233 29.5 29.5 29.5h193.292c.197.156.403.304.619.442 30.153 19.337 65.109 29.558 101.089 29.558 19.147 0 38.036-2.877 56.142-8.552 3.952-1.239 6.152-5.447 4.914-9.4s-5.45-6.151-9.4-4.914c-16.652 5.219-34.031 7.865-51.655 7.865-24.459 0-48.394-5.147-70.416-15h11.415c16.267 0 29.5-13.233 29.5-29.5v-76c0-3.612-.656-7.074-1.849-10.275-.01-.03-.014-.061-.024-.09l-16.963-51.76c-3.071-9.196-11.776-15.375-21.664-15.375h-100.617c5.857-39.496 25.304-75.774 55.215-102.715 29.846-26.88 67.912-42.389 107.902-44.117v172.333c.028 2.57.818 4.826 4.617 6.924l158.722 67.208c-15.753 33.16-42.008 61.004-75.874 78.756-3.669 1.923-5.084 6.456-3.161 10.125 1.34 2.557 3.949 4.02 6.648 4.02 1.174 0 2.364-.276 3.476-.859 62.035-32.517 100.572-96.191 100.572-166.174 0-103.388-84.112-187.5-187.5-187.5zm-44.5 315.5c0 7.995-6.505 14.5-14.5 14.5h-236c-7.995 0-14.5-6.505-14.5-14.5v-76c0-7.995 6.505-14.5 14.5-14.5h236c7.995 0 14.5 6.505 14.5 14.5zm187.538-224.321-14.044 8.594c-3.532 2.162-4.645 6.779-2.482 10.312 1.415 2.312 3.88 3.586 6.404 3.586 1.335 0 2.687-.356 3.908-1.104l14.055-8.6c13.766 24.765 21.621 53.247 21.621 83.533 0 4.487-.19 8.942-.53 13.366l-149.684-18.21 87.256-53.393c3.533-2.162 4.645-6.779 2.482-10.312s-6.78-4.644-10.313-2.483l-94.211 57.649v-158.944c56.373 2.424 105.824 32.022 135.538 76.006zm-91.013 110.205 118.15 14.374c-1.815 11.016-4.683 21.737-8.518 32.047z"/><path d="m257.5 308.5h-220c-4.143 0-7.5 3.358-7.5 7.5v60c0 4.142 3.357 7.5 7.5 7.5h220c4.143 0 7.5-3.358 7.5-7.5v-60c0-4.142-3.357-7.5-7.5-7.5zm-116.5 15v9.5c0 4.136-3.364 7.5-7.5 7.5s-7.5-3.364-7.5-7.5v-9.5zm-50.007 0v9.5c0 4.136-3.364 7.5-7.5 7.5s-7.5-3.364-7.5-7.5v-9.5zm159.007 45h-205v-45h15.993v9.5c0 12.407 10.094 22.5 22.5 22.5s22.5-10.093 22.5-22.5v-9.5h5.007v9.5c0 12.407 10.094 22.5 22.5 22.5s22.5-10.093 22.5-22.5v-9.5h94z"/><path d="m277.731 142.899h-15.73c-4.143 0-7.5 3.358-7.5 7.5v54.155c0 1.995.795 3.908 2.209 5.315 1.405 1.4 3.308 2.185 5.291 2.185h.033c.002 0 14.46-.064 18.445-.064 12.173 0 22.076-9.904 22.076-22.077 0-6.707-3.01-12.72-7.746-16.772 1.817-3.007 2.883-6.517 2.883-10.28.001-11.007-8.954-19.962-19.961-19.962zm0 15c2.736 0 4.962 2.226 4.962 4.961 0 2.736-2.226 4.961-4.962 4.961-1.152 0-3.318.006-5.683.015h-2.547v-9.937zm2.748 39.091c-2.036 0-6.796.017-10.979.033v-14.178c.852-.003 1.714-.006 2.552-.009h8.426c3.901 0 7.076 3.175 7.076 7.077.002 3.902-3.173 7.077-7.075 7.077z"/><path d="m224.235 212.055c4.143 0 7.5-3.358 7.5-7.5v-46.655h7.515c4.143 0 7.5-3.358 7.5-7.5s-3.357-7.5-7.5-7.5h-29.908c-4.143 0-7.5 3.358-7.5 7.5s3.357 7.5 7.5 7.5h7.394v46.655c-.001 4.142 3.357 7.5 7.499 7.5z"/></g></g></svg>