<svg id="Layer_1" enable-background="new 0 0 512 512" height="512" viewBox="0 0 512 512" width="512" xmlns="http://www.w3.org/2000/svg"><g><path d="m394.5 69.47h-277.26l17.21-51.72c2.04-6.11 7.92-10.25 14.55-10.25h214c6.63 0 12.51 4.14 14.55 10.25z" fill="#29cef6"/><path d="m377.55 17.75c-2.04-6.11-7.92-10.25-14.55-10.25h-30c6.63 0 12.51 4.14 14.55 10.25l16.95 51.72h30z" fill="#22b5ed"/><path d="m374 175.5h-236c-12.15 0-22-9.85-22-22v-76c0-12.15 9.85-22 22-22h236c12.15 0 22 9.85 22 22v76c0 12.15-9.85 22-22 22z" fill="#a9dbf5"/><path d="m374 55.5h-30c12.15 0 22 9.85 22 22v76c0 12.15-9.85 22-22 22h30c12.15 0 22-9.85 22-22v-76c0-12.15-9.85-22-22-22z" fill="#88c3e0"/><path d="m226 5.5h60v220h-60z" fill="#43809f" transform="matrix(0 1 -1 0 371.5 -140.5)"/><path d="m374 295.5h-236c-12.15 0-22-9.85-22-22v-76c0-12.15 9.85-22 22-22h236c12.15 0 22 9.85 22 22v76c0 12.15-9.85 22-22 22z" fill="#88c3e0"/><path d="m374 175.5h-30c12.15 0 22 9.85 22 22v76c0 12.15-9.85 22-22 22h30c12.15 0 22-9.85 22-22v-76c0-12.15-9.85-22-22-22z" fill="#6eabc9"/><path d="m226 125.5h60v220h-60z" fill="#43809f" transform="matrix(0 1 -1 0 491.5 -20.5)"/><path d="m374 415.5h-236c-12.15 0-22-9.85-22-22v-76c0-12.15 9.85-22 22-22h236c12.15 0 22 9.85 22 22v76c0 12.15-9.85 22-22 22z" fill="#a9dbf5"/><path d="m374 295.5h-30c12.15 0 22 9.85 22 22v76c0 12.15-9.85 22-22 22h30c12.15 0 22-9.85 22-22v-76c0-12.15-9.85-22-22-22z" fill="#88c3e0"/><g fill="#43809f"><path d="m226 245.5h60v220h-60z" transform="matrix(0 1 -1 0 611.5 99.5)"/><path d="m241 415.5h30v29h-30z"/><path d="m7.5 474.5h497v30h-497z"/></g><path d="m301 474.5v30h-90v-30h30v-30h30v30z" fill="#f78e36"/><path d="m330 235.5-30-9.025-30 9.025v-60h60z" fill="#ffc328"/><path d="m234 355.5-30-9.025-30 9.025v-60h60z" fill="#7be492"/><path d="m264 115.5-30-9.025-30 9.025v-60h60z" fill="#f78e36"/><path d="m504.5 467h-88.636c-4.143 0-7.5 3.358-7.5 7.5s3.357 7.5 7.5 7.5h81.136v15h-188.5v-15h74.992c4.143 0 7.5-3.358 7.5-7.5s-3.357-7.5-7.5-7.5h-104.992v-44h95.5c16.267 0 29.5-13.233 29.5-29.5v-76c0-8.736-3.82-16.594-9.874-22 6.054-5.406 9.874-13.264 9.874-22v-76c0-8.736-3.82-16.594-9.874-22 6.054-5.406 9.874-13.264 9.874-22v-76c0-3.612-.656-7.074-1.849-10.275-.01-.03-.014-.061-.024-.09l-16.963-51.76c-3.071-9.196-11.776-15.375-21.664-15.375h-43.503c-4.143 0-7.5 3.358-7.5 7.5s3.357 7.5 7.5 7.5h43.503c3.424 0 6.412 2.06 7.423 5.086l9.334 28.482c-1.863-.37-3.787-.568-5.757-.568h-236c-2.023 0-3.999.205-5.909.595l9.473-28.47c1.024-3.065 4.012-5.125 7.436-5.125h138.684c4.143 0 7.5-3.358 7.5-7.5s-3.357-7.5-7.5-7.5h-138.684c-9.888 0-18.593 6.179-21.666 15.382l-17.21 51.72c-.203.61-1.624 7.431-1.624 10.398v76c0 8.736 3.82 16.594 9.874 22-6.054 5.406-9.874 13.264-9.874 22v26.556c0 4.142 3.357 7.5 7.5 7.5s7.5-3.358 7.5-7.5v-26.556c0-7.995 6.505-14.5 14.5-14.5h124.5v15h-116.5c-4.143 0-7.5 3.358-7.5 7.5v60c0 4.142 3.357 7.5 7.5 7.5h220c4.143 0 7.5-3.358 7.5-7.5v-60c0-4.142-3.357-7.5-7.5-7.5h-28.5v-15h36.5c7.995 0 14.5 6.505 14.5 14.5v76c0 7.995-6.505 14.5-14.5 14.5h-236c-7.995 0-14.5-6.505-14.5-14.5v-17.5c0-4.142-3.357-7.5-7.5-7.5s-7.5 3.358-7.5 7.5v17.5c0 8.736 3.82 16.594 9.874 22-6.054 5.406-9.874 13.264-9.874 22v76c0 16.267 13.233 29.5 29.5 29.5h95.5v44h-226c-4.143 0-7.5 3.358-7.5 7.5v30c0 4.142 3.357 7.5 7.5 7.5h497c4.143 0 7.5-3.358 7.5-7.5v-30c0-4.142-3.357-7.5-7.5-7.5zm-304.975-345.481c1.904 1.416 4.363 1.847 6.636 1.163l27.839-8.375 27.839 8.375c.71.213 1.438.318 2.161.318 1.593 0 3.166-.508 4.475-1.481 1.903-1.415 3.025-3.647 3.025-6.019v-22.5h87v45h-205v-45h43v22.5c0 2.372 1.122 4.604 3.025 6.019zm56.975-58.519v42.412l-20.339-6.119c-.705-.212-1.434-.318-2.161-.318s-1.456.106-2.161.318l-20.339 6.119v-42.412zm102 150v45h-205v-45h109v22.5c0 2.372 1.122 4.604 3.025 6.019 1.905 1.416 4.364 1.847 6.636 1.163l27.839-8.375 27.839 8.375c.71.213 1.438.318 2.161.318 1.593 0 3.166-.508 4.475-1.481 1.903-1.415 3.025-3.647 3.025-6.019v-22.5zm-36 12.412-20.339-6.119c-.705-.212-1.434-.318-2.161-.318s-1.456.106-2.161.318l-20.339 6.119v-42.412h45zm-184.5-57.412c-7.995 0-14.5-6.505-14.5-14.5v-76c0-7.995 6.505-14.5 14.5-14.5h58.5v15h-50.5c-4.143 0-7.5 3.358-7.5 7.5v60c0 4.142 3.357 7.5 7.5 7.5h220c4.143 0 7.5-3.358 7.5-7.5v-60c0-4.142-3.357-7.5-7.5-7.5h-94.5v-15h102.5c7.995 0 14.5 6.505 14.5 14.5v76c0 7.995-6.505 14.5-14.5 14.5zm31.525 193.519c1.904 1.416 4.364 1.846 6.636 1.163l27.839-8.375 27.839 8.375c.71.213 1.438.318 2.161.318 1.593 0 3.166-.508 4.475-1.481 1.903-1.415 3.025-3.647 3.025-6.019v-22.5h117v45h-205v-45h13v22.5c0 2.372 1.122 4.604 3.025 6.019zm56.975-58.519v42.412l-20.339-6.119c-.705-.212-1.434-.318-2.161-.318s-1.456.106-2.161.318l-20.339 6.119v-42.412zm-103 90.5v-76c0-7.995 6.505-14.5 14.5-14.5h28.5v15h-20.5c-4.143 0-7.5 3.358-7.5 7.5v60c0 4.142 3.357 7.5 7.5 7.5h220c4.143 0 7.5-3.358 7.5-7.5v-60c0-4.142-3.357-7.5-7.5-7.5h-124.5v-15h132.5c7.995 0 14.5 6.505 14.5 14.5v76c0 7.995-6.505 14.5-14.5 14.5h-236c-7.995 0-14.5-6.505-14.5-14.5zm140 29.5v14h-15v-14zm-15 29h15v15h-15zm-233.5 30h188.5v15h-188.5zm203.5 15v-15h75v15z"/></g></svg>