<svg id="Layer_1" enable-background="new 0 0 512 512" height="512" viewBox="0 0 512 512" width="512" xmlns="http://www.w3.org/2000/svg"><g><path d="m478.5 481h-445c-14.359 0-26-11.641-26-26v-20c0-2.209 1.791-4 4-4h489c2.209 0 4 1.791 4 4v20c0 14.359-11.641 26-26 26z" fill="#a9dbf5"/><path d="m500.5 431h-30c2.209 0 4 1.791 4 4v20c0 14.359-11.641 26-26 26h30c14.359 0 26-11.641 26-26v-20c0-2.209-1.791-4-4-4z" fill="#88c3e0"/><path d="m451.001 430.988-389.993.012c-11.045 0-20-8.953-20-19.999l-.008-259.989c0-11.045 8.953-20 19.999-20l389.993-.012c11.045 0 20 8.953 20 19.999l.008 259.989c0 11.046-8.953 20-19.999 20z" fill="#4380a0"/><path d="m471 410.99c0 11.04-8.95 20-20 20h-30c11.05 0 20-8.96 20-20l-.01-259.99c0-11.03-8.92-19.97-19.95-20h29.95c11.05 0 20 8.95 20 20z" fill="#3b7191"/><path d="m441 400.99h-30l-339.99.01-.01-239.99 339.99-.01h30z" fill="#f3f3f3"/><path d="m410.995 161h30v239.99h-30z" fill="#e4e4e4"/><path d="m290 455h-68c-6.627 0-12-5.373-12-12v-12h92v12c0 6.627-5.373 12-12 12z" fill="#88c3e0"/><path d="m353.759 378h-113.518c-13.388 0-24.241-10.853-24.241-24.241v-113.518c0-13.388 10.853-24.241 24.241-24.241h113.518c13.388 0 24.241 10.853 24.241 24.241v113.518c0 13.388-10.853 24.241-24.241 24.241z" fill="#7be492"/><path d="m353.759 216h-30c13.388 0 24.241 10.853 24.241 24.241v113.518c0 13.388-10.853 24.241-24.241 24.241h30c13.388 0 24.241-10.853 24.241-24.241v-113.518c0-13.388-10.853-24.241-24.241-24.241z" fill="#45d987"/><path d="m246 346v-98c0-1.105.895-2 2-2h98c1.105 0 2 .895 2 2v98c0 1.105-.895 2-2 2h-98c-1.105 0-2-.895-2-2z" fill="#f78e36"/><path d="m346 348h-98c-1.105 0-2-.895-2-2v-32.573h102v32.573c0 1.105-.895 2-2 2z" fill="#29cef6"/><path d="m463.759 193h-113.518c-13.388 0-24.241-10.853-24.241-24.241v-113.518c0-13.388 10.853-24.241 24.241-24.241h113.518c13.388 0 24.241 10.853 24.241 24.241v113.518c0 13.388-10.853 24.241-24.241 24.241z" fill="#7be492"/><path d="m463.759 31h-30c13.388 0 24.241 10.853 24.241 24.241v113.518c0 13.388-10.853 24.241-24.241 24.241h30c13.388 0 24.241-10.853 24.241-24.241v-113.518c0-13.388-10.853-24.241-24.241-24.241z" fill="#45d987"/><path d="m356 161v-98c0-1.105.895-2 2-2h98c1.105 0 2 .895 2 2v98c0 1.105-.895 2-2 2h-98c-1.105 0-2-.895-2-2z" fill="#f78e36"/><path d="m387.5 131.481v-38.962c0-3.556 3.845-5.714 6.79-3.812l30.154 19.481c2.742 1.771 2.742 5.852 0 7.623l-30.154 19.481c-2.945 1.903-6.79-.255-6.79-3.811z" fill="#f3f3f3"/><path d="m297 313.427h51l-23.934-30.139c-.801-1.008-2.332-1.008-3.132 0z" fill="#e4e4e4"/><path d="m246 313.427h62.961l-29.914-37.67c-.801-1.008-2.332-1.008-3.132 0z" fill="#f3f3f3"/><path d="m168.759 243h-113.518c-13.388 0-24.241-10.853-24.241-24.241v-113.518c0-13.388 10.853-24.241 24.241-24.241h113.518c13.388 0 24.241 10.853 24.241 24.241v113.518c0 13.388-10.853 24.241-24.241 24.241z" fill="#7be492"/><path d="m168.759 81h-30c13.388 0 24.241 10.853 24.241 24.241v113.518c0 13.388-10.853 24.241-24.241 24.241h30c13.388 0 24.241-10.853 24.241-24.241v-113.518c0-13.388-10.853-24.241-24.241-24.241z" fill="#45d987"/><path d="m61 211v-98c0-1.105.895-2 2-2h98c1.105 0 2 .895 2 2v98c0 1.105-.895 2-2 2h-98c-1.105 0-2-.895-2-2z" fill="#f78e36"/><g><path d="m500.5 423.5h-25.023c1.927-3.756 3.023-8.006 3.023-12.51l-.007-154.99c0-4.142-3.358-7.5-7.5-7.5s-7.5 3.358-7.5 7.5l.007 154.99c0 6.893-5.607 12.5-12.5 12.5l-389.99.01c-6.893 0-12.5-5.607-12.5-12.5l-.009-161.227c2.174.472 4.427.727 6.741.727h8.258l.01 150.5c0 4.142 3.358 7.5 7.5 7.5l369.99-.01c1.989 0 3.897-.791 5.303-2.197 1.407-1.407 2.197-3.314 2.197-5.304l-.009-200.49h15l.001 22.532c0 4.143 3.358 7.5 7.5 7.5 4.143 0 7.5-3.358 7.5-7.5l-.001-26.171c10.102-5.317 17.01-15.916 17.01-28.102v-113.517c0-17.502-14.239-31.741-31.741-31.741h-113.519c-17.502 0-31.741 14.239-31.741 31.741v68.259l-118 .009v-18.268c0-17.502-14.239-31.741-31.741-31.741h-40.518c-4.142 0-7.5 3.358-7.5 7.5s3.358 7.5 7.5 7.5h40.518c9.231 0 16.741 7.51 16.741 16.741v113.518c0 9.231-7.51 16.741-16.741 16.741h-113.518c-9.231 0-16.741-7.51-16.741-16.741v-113.518c0-9.231 7.51-16.741 16.741-16.741h40.255c4.142 0 7.5-3.358 7.5-7.5s-3.358-7.5-7.5-7.5h-40.255c-17.502 0-31.741 14.239-31.741 31.741v113.518c0 9.094 3.851 17.302 10 23.094l.01 169.147c0 4.5 1.093 8.747 3.018 12.5h-25.028c-6.341 0-11.5 5.159-11.5 11.5v20c0 18.472 15.028 33.5 33.5 33.5h31.5c4.142 0 7.5-3.358 7.5-7.5s-3.358-7.5-7.5-7.5h-31.5c-10.201 0-18.5-8.299-18.5-18.5v-16.5h187.5v4.5c0 10.752 8.748 19.5 19.5 19.5h68c10.752 0 19.5-8.748 19.5-19.5v-4.5h187.5v16.5c0 10.201-8.299 18.5-18.5 18.5h-382.259c-4.142 0-7.5 3.358-7.5 7.5s3.358 7.5 7.5 7.5h382.259c18.472 0 33.5-15.028 33.5-33.5v-20c0-6.341-5.159-11.5-11.5-11.5zm-167-368.259c0-9.231 7.51-16.741 16.741-16.741h113.518c9.231 0 16.741 7.51 16.741 16.741v113.518c0 9.231-7.51 16.741-16.741 16.741h-113.518c-9.231 0-16.741-7.51-16.741-16.741zm-15 83.259v15l-118 .009v-15zm-118 80.259v-50.25l118-.009v.258c0 17.502 14.239 31.741 31.741 31.741h83.249l.009 192.99-354.99.01-.009-143h90.258c17.503.001 31.742-14.238 31.742-31.74zm94 224.241c0 2.481-2.019 4.5-4.5 4.5h-68c-2.481 0-4.5-2.019-4.5-4.5v-4.5h77z"/><path d="m248 355.5h98c5.238 0 9.5-4.262 9.5-9.5v-98c0-5.238-4.262-9.5-9.5-9.5h-98c-5.238 0-9.5 4.262-9.5 9.5v98c0 5.238 4.262 9.5 9.5 9.5zm5.5-15v-19.573h87v19.573zm39.879-34.573h-31.845l15.947-20.082 15.923 20.051zm19.204 0-.025-.031 9.942-12.52 9.967 12.551zm27.917-52.427v38.422l-10.561-13.298c-1.813-2.283-4.524-3.592-7.439-3.592s-5.626 1.309-7.44 3.592l-12.079 15.211-18.061-22.743c-1.813-2.283-4.524-3.592-7.439-3.592s-5.626 1.309-7.439 3.592l-16.542 20.83v-38.422z"/><path d="m240.241 385.5h113.518c17.502 0 31.741-14.239 31.741-31.741v-113.518c0-17.502-14.239-31.741-31.741-31.741h-113.518c-17.502 0-31.741 14.239-31.741 31.741v113.518c0 17.502 14.239 31.741 31.741 31.741zm-16.741-145.259c0-9.231 7.51-16.741 16.741-16.741h113.518c9.231 0 16.741 7.51 16.741 16.741v113.518c0 9.231-7.51 16.741-16.741 16.741h-113.518c-9.231 0-16.741-7.51-16.741-16.741z"/><path d="m358 170.5h98c5.238 0 9.5-4.262 9.5-9.5v-98c0-5.238-4.262-9.5-9.5-9.5h-98c-5.238 0-9.5 4.262-9.5 9.5v98c0 5.238 4.262 9.5 9.5 9.5zm5.5-102h87v87h-87z"/><path d="m428.513 101.889-30.153-19.48c-3.651-2.359-8.289-2.535-12.104-.457-3.858 2.101-6.255 6.15-6.255 10.568v38.962c0 4.418 2.397 8.467 6.255 10.568 1.772.965 3.721 1.444 5.667 1.444 2.244 0 4.482-.637 6.438-1.9l30.154-19.481c3.436-2.22 5.487-6 5.487-10.111s-2.053-7.894-5.489-10.113zm-33.513 24.015v-27.808l21.522 13.904z"/><path d="m53.5 113v98c0 5.238 4.262 9.5 9.5 9.5h98c5.238 0 9.5-4.262 9.5-9.5v-98c0-5.238-4.262-9.5-9.5-9.5h-98c-5.238 0-9.5 4.262-9.5 9.5zm15 5.5h87v87h-87z"/><path d="m133.449 130.287h-39.07c-4.142 0-7.5 3.358-7.5 7.5v37.448h-.593c-4.142 0-7.5 3.358-7.5 7.5s3.358 7.5 7.5 7.5h8.093c4.142 0 7.5-3.358 7.5-7.5v-37.448h24.07v29.948h-1.988c-4.142 0-7.5 3.358-7.5 7.5s3.358 7.5 7.5 7.5h9.488c4.142 0 7.5-3.358 7.5-7.5v-44.948c0-4.142-3.358-7.5-7.5-7.5z"/></g></g></svg>