<svg id="Layer_1" enable-background="new 0 0 512 512" height="512" viewBox="0 0 512 512" width="512" xmlns="http://www.w3.org/2000/svg"><g><path d="m490.5 479.5h-469c-7.732 0-14-6.268-14-14v-32c0-7.732 6.268-14 14-14h469c7.732 0 14 6.268 14 14v32c0 7.732-6.268 14-14 14z" fill="#f3f3f3"/><path d="m474.5 419.5v60h16c7.732 0 14-6.268 14-14v-32c0-7.732-6.268-14-14-14z" fill="#e4e4e4"/><path d="m233.05 479.5h-211.55c-7.732 0-14-6.268-14-14v-32c0-7.732 6.268-14 14-14h211.55z" fill="#f78e36"/><path d="m203.05 419.5h30v60h-30z" fill="#f86f1b"/><path d="m127.962 479.5h-106.462c-7.732 0-14-6.268-14-14v-32c0-7.732 6.268-14 14-14h106.462z" fill="#29cef6"/><path d="m97.962 419.5h30v60h-30z" fill="#22b5ed"/><g><path d="m218.18 32.5c-99.41 0-180 80.59-180 180s80.59 180 180 180c92.05 0 167.95-69.1 178.69-158.26l-178.69-21.74 153.55-93.96c-31.65-51.61-88.58-86.04-153.55-86.04z" fill="#f3f3f3"/></g><g fill="#e4e4e4"><path d="m371.728 118.54h-.001c.006.011.013.021.02.031-.007-.01-.013-.02-.019-.031z"/><path d="m349.326 132.248 22.4-13.707c-31.647-51.609-88.573-86.041-153.548-86.041-5.052 0-10.053.219-15 .627 64.152 5.294 118.756 44.229 146.148 99.121z"/><path d="m218.178 392.5c92.052 0 167.955-69.103 178.689-158.261l-29.599-3.601c-8.604 85.969-77.694 154.106-164.091 161.235 4.948.408 9.948.627 15.001.627z"/></g><path d="m371.728 118.54-153.55 93.96v-180c64.97 0 121.909 34.43 153.55 86.04z" fill="#f78e36"/><path d="m218.178 35.013c57.6 9.665 105.919 46.676 131.149 97.235l22.401-13.708c-31.64-51.61-88.58-86.04-153.55-86.04z" fill="#f86f1b"/><path d="m483.03 193.346c0 6.67-.361 13.25-1.069 19.732-.121 1.107-1.133 1.898-2.238 1.763l-170.992-20.801c-1.881-.229-2.419-2.702-.802-3.691l146.931-89.91c.948-.58 2.195-.282 2.765.672 16.135 26.974 25.405 58.526 25.405 92.235z" fill="#29cef6"/><path d="m434.178 113.094c12.058 24.163 18.851 51.412 18.851 80.252 0 6.123-.312 12.172-.909 18.138l27.602 3.358c1.105.134 2.117-.657 2.238-1.763.708-6.482 1.069-13.062 1.069-19.732 0-33.709-9.269-65.261-25.405-92.235-.57-.954-1.817-1.252-2.765-.672z" fill="#22b5ed"/><path d="m396.878 234.24c-2.05 17-6.46 33.26-12.91 48.46l-165.79-70.2z" fill="#ffc328"/><path d="m358.182 271.782 25.785 10.918c6.45-15.2 10.86-31.46 12.91-48.46l-29.609-3.602c-1.428 14.272-4.521 28.052-9.086 41.144z" fill="#ffb200"/><path d="m55.912 479.5h-34.412c-7.732 0-14-6.268-14-14v-32c0-7.732 6.268-14 14-14h34.412z" fill="#ffc328"/><g><path d="m218.18 400c94.793 0 174.814-70.876 186.136-164.863.495-4.108-2.432-7.842-6.541-8.342l-157.311-19.139 135.179-82.719c1.698-1.039 2.913-2.71 3.378-4.646s.142-3.976-.899-5.673c-16.47-26.857-39.621-49.321-66.948-64.962-28.181-16.13-60.339-24.656-92.994-24.656-44.646 0-87.896 15.957-121.786 44.933-3.148 2.691-3.518 7.426-.826 10.574s7.426 3.517 10.574.826c29.272-25.028 66.14-39.495 104.535-41.168v172.335c0 3.82 2.377 5.983 4.576 6.906l158.745 67.217c-27.897 58.605-87.708 98.377-155.818 98.377-95.117 0-172.5-77.383-172.5-172.5 0-39.979 13.988-78.945 39.388-109.723 2.636-3.194 2.184-7.922-1.011-10.558-3.195-2.639-7.922-2.184-10.559 1.011-27.611 33.458-42.818 75.815-42.818 119.27 0 103.388 84.112 187.5 187.5 187.5zm7.498-359.817c27.451 1.192 54.289 8.894 78.047 22.493 22.977 13.15 42.744 31.541 57.547 53.471l-135.594 82.973zm44.526 186.202 118.164 14.376c-1.826 11.099-4.709 21.812-8.523 32.049z"/><path d="m490.5 412h-469c-11.855 0-21.5 9.645-21.5 21.5v32c0 11.855 9.645 21.5 21.5 21.5h234.5c4.142 0 7.5-3.357 7.5-7.5s-3.358-7.5-7.5-7.5h-15.45v-45h249.95c3.584 0 6.5 2.916 6.5 6.5v32c0 3.584-2.916 6.5-6.5 6.5h-202.632c-4.142 0-7.5 3.357-7.5 7.5s3.358 7.5 7.5 7.5h202.632c11.855 0 21.5-9.645 21.5-21.5v-32c0-11.855-9.645-21.5-21.5-21.5zm-469 60c-3.584 0-6.5-2.916-6.5-6.5v-32c0-3.584 2.916-6.5 6.5-6.5h26.912v45zm41.912 0v-45h57.049v45zm162.138 0h-90.088v-45h90.088z"/><path d="m299.689 194.071c.857 3.945 4.126 6.925 8.136 7.414l123.083 14.974c4.112.497 7.851-2.428 8.351-6.54.5-4.111-2.428-7.851-6.54-8.351l-107.405-13.066 128.649-78.723c14.124 25.46 21.565 54.231 21.565 83.567 0 4.457-.171 8.934-.51 13.368l-10.409-1.267c-4.115-.495-7.851 2.428-8.351 6.54-.5 4.111 2.428 7.851 6.54 8.351l16.016 1.948c.377.046.756.068 1.134.068 2.135 0 4.247-.725 5.929-2.059 2.005-1.59 3.262-3.864 3.539-6.403.739-6.767 1.114-13.679 1.114-20.547 0-33.913-9.153-67.14-26.467-96.083-1.309-2.189-3.395-3.732-5.874-4.344-2.484-.61-5.056-.215-7.243 1.121l-146.932 89.911c-3.445 2.11-5.182 6.176-4.325 10.121z"/></g></g></svg>