<svg id="Layer_1" enable-background="new 0 0 512 512" height="512" viewBox="0 0 512 512" width="512" xmlns="http://www.w3.org/2000/svg"><g><path d="m289.5 504.5h-224c-16.569 0-30-13.431-30-30v-437c0-16.569 13.431-30 30-30h224c16.569 0 30 13.431 30 30v437c0 16.569-13.431 30-30 30z" fill="#29cef6"/><path d="m289.5 7.5h-30c16.569 0 30 13.431 30 30v437c0 16.569-13.431 30-30 30h30c16.569 0 30-13.431 30-30v-437c0-16.569-13.431-30-30-30z" fill="#22b5ed"/><path d="m319.5 440v34.5c0 16.569-13.431 30-30 30h-224c-16.569 0-30-13.431-30-30v-34.5z" fill="#4380a0"/><path d="m289.5 440v34.5c0 16.569-13.431 30-30 30h30c16.569 0 30-13.431 30-30v-34.5z" fill="#3b7191"/><path d="m239.5 48h-124c-8.837 0-16-7.163-16-16v-24h156v24c0 8.837-7.163 16-16 16z" fill="#43809f"/><path d="m265.5 394h-172c-4.418 0-8-3.582-8-8v-110c0-4.418 3.582-8 8-8h172c4.418 0 8 3.582 8 8v110c0 4.418-3.582 8-8 8z" fill="#7be492"/><path d="m265.5 224h-172c-4.418 0-8-3.582-8-8v-110c0-4.418 3.582-8 8-8h172c4.418 0 8 3.582 8 8v110c0 4.418-3.582 8-8 8z" fill="#ffc328"/><path d="m347.088 34.02c-60.344 1.083-110.411 44.203-122.146 101.297-.225 1.094-.88 2.051-1.831 2.638l-33.181 20.482c-1.907 1.177-1.907 3.948 0 5.126l33.182 20.482c.951.587 1.606 1.544 1.831 2.638 11.884 57.826 63.092 101.317 124.473 101.317 70.493 0 127.581-57.358 127.08-127.921-.495-69.912-59.46-127.315-129.408-126.059z" fill="#f3f3f3"/><path d="m347.088 34.02c-4.341.078-8.626.38-12.85.883 62.166 7.49 111.784 61.07 112.239 125.176.464 65.483-48.669 119.585-112.084 127.036 4.928.58 9.94.885 15.023.885 70.493 0 127.581-57.358 127.08-127.921-.495-69.912-59.46-127.315-129.408-126.059z" fill="#e4e4e4"/><path d="m383.619 109.235c-15.588-.183-28.854 9.549-33.472 13.387-1.013.842-2.475.842-3.488 0-4.618-3.838-17.884-13.57-33.472-13.387-20.049.236-35.321 17.712-34.267 37.735 2.329 44.242 56.293 72.3 67.469 77.647 1.279.612 2.75.612 4.029 0 11.176-5.347 65.14-33.405 67.468-77.647 1.055-20.024-14.218-37.499-34.267-37.735z" fill="#f78e36"/><g><path d="m383.619 109.235c-5.824-.069-11.324 1.248-16.17 3.123 12.776 5.922 21.23 19.544 20.437 34.612-1.804 34.279-34.602 58.839-54.483 70.65 5.778 3.433 10.469 5.793 12.985 6.997 1.279.612 2.75.612 4.029 0 11.176-5.347 65.14-33.405 67.468-77.647 1.056-20.024-14.217-37.499-34.266-37.735z" fill="#f86f1b"/></g><g><path d="m157.5 464c-4.142 0-7.5 3.357-7.5 7.5s3.358 7.5 7.5 7.5h40c4.142 0 7.5-3.357 7.5-7.5s-3.358-7.5-7.5-7.5z"/><path d="m448.79 70.903c-2.788-3.063-7.532-3.283-10.595-.493-3.063 2.789-3.283 7.533-.493 10.595 19.975 21.924 31.089 50.025 31.295 79.127.228 32.076-12.093 62.276-34.691 85.035-22.624 22.785-52.771 35.333-84.89 35.333-56.516 0-105.774-40.092-117.127-95.327-.639-3.113-2.548-5.851-5.238-7.511l-26.995-16.663 26.993-16.661c2.69-1.66 4.6-4.398 5.239-7.511 5.381-26.185 19.7-50.126 40.317-67.416 20.864-17.497 47.364-27.402 74.616-27.892 23.995-.424 47.387 6.45 67.651 19.9 3.452 2.29 8.105 1.352 10.396-2.102 2.29-3.451 1.35-8.105-2.102-10.396-22.811-15.14-49.143-22.866-76.216-22.4-7.079.127-14.112.826-21.034 2.057-4.012-16.383-18.813-28.578-36.416-28.578h-224c-20.678 0-37.5 16.822-37.5 37.5v24.878c0 4.143 3.358 7.5 7.5 7.5s7.5-3.357 7.5-7.5v-24.878c0-12.406 10.093-22.5 22.5-22.5h26.5v17c0 12.958 10.542 23.5 23.5 23.5h124c12.958 0 23.5-10.542 23.5-23.5v-17h26.5c10.509 0 19.356 7.243 21.817 17.023-17.624 5.206-34.147 13.985-48.349 25.895-11.113 9.319-20.584 20.368-28.119 32.582h-141.349c-8.547 0-15.5 6.953-15.5 15.5v110c0 8.547 6.953 15.5 15.5 15.5h141.327c6.592 10.687 14.682 20.471 24.052 29h-165.379c-8.547 0-15.5 6.953-15.5 15.5v110c0 8.547 6.953 15.5 15.5 15.5h172c8.547 0 15.5-6.953 15.5-15.5v-109.184c9.74 5.74 20.163 10.23 31 13.366v141.818h-23.947c-4.143 0-7.5 3.357-7.5 7.5s3.357 7.5 7.5 7.5h23.947v27.5c0 12.406-10.094 22.5-22.5 22.5h-224c-12.407 0-22.5-10.094-22.5-22.5v-27.5h213c4.143 0 7.5-3.357 7.5-7.5s-3.357-7.5-7.5-7.5h-213v-336.088c0-4.143-3.358-7.5-7.5-7.5s-7.5 3.357-7.5 7.5v378.588c0 20.678 16.822 37.5 37.5 37.5h224c20.678 0 37.5-16.822 37.5-37.5v-180.893c7.374 1.248 14.871 1.893 22.416 1.893 36.145 0 70.072-14.122 95.533-39.764 25.436-25.617 39.304-59.607 39.048-95.71-.234-32.808-12.737-64.46-35.207-89.123zm-200.79-38.903c0 4.687-3.813 8.5-8.5 8.5h-124c-4.687 0-8.5-3.813-8.5-8.5v-16.5h141zm-154.5 184.5c-.276 0-.5-.225-.5-.5v-110c0-.275.224-.5.5-.5h133.343c-3.908 8.59-6.926 17.591-8.94 26.856l-31.914 19.699c-3.125 1.93-4.989 5.274-4.989 8.946.001 3.671 1.867 7.015 4.991 8.942l31.912 19.698c2.014 9.27 5.021 18.272 8.925 26.857h-133.328zm172.5 169.5c0 .275-.225.5-.5.5h-172c-.276 0-.5-.225-.5-.5v-110c0-.275.224-.5.5-.5h172c.275 0 .5.225.5.5z"/><path d="m383.708 101.735c-.001 0-.001 0 0 0-.176-.003-.35-.004-.524-.004-15.066 0-27.898 7.638-34.779 12.732-6.882-5.095-19.713-12.732-34.781-12.732-.174 0-.35.001-.524.004-11.401.134-22.02 4.837-29.901 13.241-8.105 8.645-12.395 20.449-11.766 32.388 1.096 20.836 12.192 40.575 32.981 58.672 15.682 13.65 32.315 22.272 38.741 25.347 1.668.798 3.458 1.197 5.249 1.197s3.583-.399 5.252-1.197c6.424-3.074 23.059-11.697 38.739-25.347 20.789-18.097 31.886-37.837 32.981-58.672.629-11.938-3.66-23.742-11.766-32.388-7.881-8.404-18.5-13.107-29.902-13.241zm26.689 44.84c-.875 16.622-10.245 32.821-27.852 48.146-13.591 11.83-28.374 19.688-34.143 22.535-5.77-2.848-20.551-10.704-34.142-22.535-17.606-15.325-26.977-31.524-27.852-48.146-.414-7.88 2.403-15.658 7.729-21.339 5.061-5.397 11.856-8.417 19.136-8.503.115-.001.229-.002.344-.002 13.187 0 24.938 8.908 28.247 11.657 3.788 3.147 9.287 3.148 13.075.001 3.309-2.751 15.059-11.658 28.246-11.658.113 0 .229.001.343.002 7.28.086 14.077 3.105 19.138 8.503 5.328 5.682 8.145 13.459 7.731 21.339z"/></g></g></svg>