<svg id="Layer_1" enable-background="new 0 0 512 512" height="512" viewBox="0 0 512 512" width="512" xmlns="http://www.w3.org/2000/svg"><g><path d="m283.174 215.368c-.785 5.568-2.661 13.543-4.337 20.023-1.565 6.053-7.013 10.287-13.266 10.287h-19.145c-6.252 0-11.701-4.233-13.266-10.287-1.675-6.48-3.551-14.455-4.337-20.023-.585-4.149-3.077-7.781-6.708-9.872l-17.689-10.188c-3.627-2.089-8.014-2.428-11.895-.863-5.237 2.112-13.131 4.488-19.61 6.284-6.017 1.668-12.4-.926-15.527-6.33l-9.559-16.517c-3.131-5.409-2.186-12.245 2.28-16.617 4.793-4.692 10.787-10.309 15.232-13.772 3.303-2.574 5.206-6.544 5.206-10.731v-20.349c0-4.187-1.903-8.157-5.206-10.731-4.444-3.463-10.439-9.08-15.232-13.772-4.466-4.372-5.411-11.208-2.28-16.617l9.559-16.517c3.128-5.404 9.51-7.998 15.527-6.33 6.479 1.797 14.373 4.172 19.61 6.284 3.881 1.565 8.268 1.226 11.895-.863l17.689-10.188c3.631-2.091 6.123-5.723 6.708-9.872.785-5.568 2.661-13.543 4.337-20.023 1.565-6.053 7.013-10.287 13.266-10.287h19.145c6.252 0 11.701 4.233 13.266 10.287 1.675 6.48 3.551 14.455 4.337 20.023.585 4.149 3.077 7.781 6.708 9.872l17.689 10.188c3.627 2.089 8.014 2.428 11.895.863 5.237-2.112 13.131-4.488 19.61-6.284 6.017-1.668 12.4.926 15.527 6.33l9.559 16.517c3.131 5.409 2.186 12.245-2.28 16.617-4.793 4.692-10.787 10.309-15.232 13.772-3.303 2.574-5.206 6.544-5.206 10.731v20.349c0 4.187 1.903 8.157 5.206 10.731 4.444 3.463 10.439 9.08 15.232 13.772 4.466 4.372 5.411 11.208 2.28 16.617l-9.559 16.517c-3.128 5.404-9.51 7.998-15.527 6.33-6.479-1.797-14.373-4.172-19.61-6.284-3.881-1.565-8.268-1.226-11.895.863l-17.689 10.188c-3.631 2.091-6.123 5.723-6.708 9.872zm19.962-88.779c0-25.968-21.104-47.02-47.136-47.02s-47.136 21.052-47.136 47.02 21.104 47.02 47.136 47.02 47.136-21.052 47.136-47.02z" fill="#f78e36"/><g fill="#f86f1b"><path d="m346.652 147.494c-3.303-2.573-5.206-6.544-5.206-10.731v-20.349c0-4.187 1.903-8.157 5.206-10.731 4.444-3.463 10.439-9.08 15.232-13.772 4.466-4.372 5.411-11.208 2.28-16.617l-9.559-16.517c-3.128-5.404-9.51-7.998-15.527-6.33-4.961 1.376-10.748 3.091-15.54 4.767.385.493.747 1.009 1.068 1.563l9.559 16.517c3.131 5.41 2.186 12.245-2.28 16.617-4.793 4.692-10.787 10.309-15.232 13.772-3.303 2.573-5.206 6.544-5.206 10.731v20.349c0 4.187 1.903 8.157 5.206 10.731 4.444 3.463 10.439 9.08 15.232 13.772 4.466 4.372 5.411 11.208 2.28 16.617l-9.559 16.517c-.32.553-.683 1.07-1.068 1.563 4.792 1.676 10.579 3.391 15.54 4.767 6.017 1.668 12.4-.926 15.527-6.33l9.559-16.517c3.131-5.41 2.186-12.245-2.28-16.617-4.794-4.692-10.788-10.308-15.232-13.772z"/><path d="m248.838 17.787c1.675 6.48 3.551 14.455 4.336 20.023.585 4.149 3.077 7.781 6.708 9.872l17.689 10.188c3.627 2.089 8.014 2.428 11.895.863 3.373-1.36 7.849-2.829 12.339-4.183l-11.923-6.867c-3.631-2.091-6.123-5.723-6.708-9.872-.785-5.568-2.661-13.543-4.336-20.023-1.565-6.055-7.013-10.288-13.266-10.288h-19.145c-1.915 0-3.752.401-5.428 1.125 3.797 1.642 6.753 4.962 7.839 9.162z"/><path d="m289.467 194.445c-3.881-1.565-8.268-1.226-11.895.863l-17.689 10.188c-3.631 2.091-6.123 5.723-6.708 9.872-.785 5.568-2.661 13.543-4.336 20.023-1.086 4.2-4.042 7.52-7.838 9.161 1.676.725 3.513 1.125 5.428 1.125h19.145c6.252 0 11.701-4.233 13.266-10.287 1.675-6.48 3.551-14.455 4.336-20.023.585-4.149 3.077-7.781 6.708-9.872l11.923-6.867c-4.492-1.353-8.967-2.822-12.34-4.183z"/></g><path d="m289.432 260.165v-110.216c0-5.096-4.131-9.226-9.226-9.226h-48.41c-5.096 0-9.226 4.131-9.226 9.226v110.216c0 .971-.787 1.759-1.759 1.759h-24.045c-1.668 0-2.41 2.096-1.113 3.145l59.236 47.934c.649.525 1.577.525 2.226 0l59.236-47.934c1.296-1.049.555-3.145-1.113-3.145h-24.048c-.971-.001-1.758-.788-1.758-1.759z" fill="#7be492"/><g fill="#45d987"><path d="m289.432 260.165v-110.216c0-5.095-4.131-9.226-9.226-9.226h-30c5.095 0 9.226 4.131 9.226 9.226v110.216c0 .971.787 1.759 1.759 1.759h30c-.972-.001-1.759-.788-1.759-1.759z"/><path d="m315.236 261.923h-24.046l-50.086 39.926 13.783 11.153c.649.525 1.577.525 2.226 0l59.236-47.934c1.296-1.049.554-3.145-1.113-3.145z"/></g><path d="m394.5 398.47h-277.26l17.21-51.72c2.04-6.11 7.92-10.25 14.55-10.25h214c6.63 0 12.51 4.14 14.55 10.25z" fill="#29cef6"/><path d="m377.55 346.75c-2.04-6.11-7.92-10.25-14.55-10.25h-30c6.63 0 12.51 4.14 14.55 10.25l16.95 51.72h30z" fill="#22b5ed"/><path d="m374 504.5h-236c-12.15 0-22-9.85-22-22v-76c0-12.15 9.85-22 22-22h236c12.15 0 22 9.85 22 22v76c0 12.15-9.85 22-22 22z" fill="#a9dbf5"/><path d="m374 384.5h-30c12.15 0 22 9.85 22 22v76c0 12.15-9.85 22-22 22h30c12.15 0 22-9.85 22-22v-76c0-12.15-9.85-22-22-22z" fill="#88c3e0"/><path d="m226 334.5h60v220h-60z" fill="#43809f" transform="matrix(0 1 -1 0 700.5 188.5)"/><path d="m191.993 446.5c-8.284 0-15-6.716-15-15v-17h30v17c0 8.284-6.716 15-15 15z" fill="#f78e36"/><path d="m242 446.5c-8.284 0-15-6.716-15-15v-17h30v17c0 8.284-6.716 15-15 15z" fill="#f78e36"/><g><path d="m160.73 111.589c1.452 1.135 2.319 2.938 2.319 4.821v20.35c0 1.916-.841 3.671-2.313 4.816-5.315 4.145-12.225 10.764-15.86 14.331-6.925 6.771-8.376 17.35-3.528 25.729l9.558 16.516c4.83 8.359 14.71 12.391 24.021 9.805 6.108-1.698 14.607-4.212 20.416-6.555 1.707-.689 3.702-.538 5.343.406l14.382 8.285v44.33h-18.304c-3.92 0-7.432 2.482-8.739 6.179-1.308 3.695-.138 7.834 2.908 10.297l59.236 47.935c1.688 1.366 3.759 2.05 5.83 2.05 2.07 0 4.142-.684 5.831-2.051l59.233-47.932c3.048-2.465 4.218-6.604 2.91-10.299-1.308-3.696-4.819-6.179-8.739-6.179h-18.304v-44.327l14.381-8.287c1.641-.945 3.639-1.096 5.353-.403 5.8 2.339 14.299 4.853 20.407 6.551 9.307 2.585 19.19-1.444 24.019-9.8l9.562-16.521c4.847-8.379 3.396-18.958-3.521-25.72-3.645-3.576-10.554-10.195-15.873-14.344-1.468-1.142-2.309-2.896-2.309-4.813v-20.35c0-1.884.867-3.687 2.305-4.81 4.959-3.856 11.368-9.922 15.868-14.328 6.927-6.772 8.378-17.356 3.527-25.741l-9.554-16.497c-4.823-8.366-14.701-12.398-24.014-9.813-4.943 1.366-14.17 4.033-20.426 6.557-1.704.689-3.703.538-5.344-.406l-17.689-10.191c-1.659-.955-2.763-2.568-3.024-4.411-.865-6.175-2.922-14.747-4.498-20.86-2.427-9.367-10.87-15.909-20.53-15.909h-19.14c-9.66 0-18.103 6.542-20.532 15.918-1.573 6.104-3.63 14.676-4.493 20.836-.264 1.857-1.367 3.471-3.027 4.427l-17.69 10.189c-1.641.944-3.64 1.097-5.351.405-6.25-2.521-15.477-5.188-20.409-6.552-9.321-2.587-19.201 1.445-24.018 9.798l-9.563 16.513c-4.849 8.382-3.397 18.966 3.525 25.735 4.505 4.41 10.914 10.475 15.858 14.32zm138.315 157.834-43.045 34.832-43.045-34.832h7.854c5.105 0 9.259-4.153 9.259-9.259v-54.349c0-.038 0-.077 0-.115v-45.905c0-.029 0-.058 0-.087v-9.759c0-.952.774-1.727 1.727-1.727h48.41c.952 0 1.727.774 1.727 1.727v9.759.087 45.764c-.005.151-.004.302 0 .453v54.152c0 5.105 4.153 9.259 9.259 9.259zm-144.715-190.374 9.567-16.522c1.404-2.435 4.291-3.607 7.025-2.847 4.636 1.28 13.242 3.763 18.795 6.004 6.038 2.44 12.763 1.962 18.455-1.314l17.689-10.189c5.688-3.274 9.476-8.856 10.396-15.329.599-4.276 2.078-11.092 4.162-19.179.713-2.751 3.185-4.672 6.01-4.672h19.141c2.825 0 5.297 1.921 6.007 4.662 2.087 8.097 3.566 14.912 4.167 19.203.918 6.458 4.706 12.04 10.393 15.313l17.691 10.191c5.689 3.274 12.416 3.754 18.448 1.315 5.559-2.243 14.165-4.726 18.812-6.009 2.731-.759 5.611.416 7.021 2.862l9.559 16.507c1.413 2.441.988 5.526-1.035 7.505-5.972 5.847-11.152 10.538-14.602 13.22-5.136 4.015-8.081 10.079-8.081 16.64v20.35c0 6.575 2.949 12.644 8.088 16.645 4.73 3.689 11.171 9.865 14.599 13.228 2.018 1.974 2.442 5.054 1.032 7.491l-9.563 16.525c-1.407 2.438-4.296 3.615-7.018 2.855-8.11-2.254-14.792-4.388-18.805-6.006-6.037-2.444-12.763-1.964-18.456 1.313l-6.896 3.972v-30.09c8.858-9.975 13.708-22.672 13.708-36.103 0-30.063-24.512-54.52-54.64-54.52-4.033 0-8.057.441-11.959 1.312-4.043.902-6.589 4.91-5.688 8.953s4.912 6.584 8.953 5.688c2.832-.632 5.757-.952 8.693-.952 21.857 0 39.64 17.729 39.64 39.52 0 4.539-.767 8.962-2.234 13.125-3.063-3.942-7.834-6.492-13.201-6.492h-48.41c-5.366 0-10.138 2.551-13.201 6.492-1.466-4.163-2.234-8.586-2.234-13.125 0-8.9 2.896-17.303 8.375-24.297 2.555-3.261 1.981-7.975-1.279-10.529-3.263-2.555-7.975-1.982-10.529 1.279-7.566 9.66-11.566 21.261-11.566 33.547 0 13.432 4.85 26.128 13.708 36.103v30.089l-6.896-3.973c-5.692-3.276-12.417-3.755-18.446-1.315-4.021 1.622-10.703 3.756-18.813 6.01-2.721.76-5.608-.417-7.021-2.86l-9.56-16.52c-1.411-2.438-.986-5.519 1.04-7.501 3.419-3.354 9.859-9.529 14.586-13.215 5.143-4.005 8.092-10.073 8.092-16.648v-20.35c0-6.561-2.945-12.625-8.096-16.651-3.435-2.67-8.615-7.361-14.591-13.211-2.018-1.977-2.443-5.062-1.032-7.5z"/><path d="m401.651 396.226c-.01-.03-.014-.062-.024-.092l-16.963-51.759c-3.07-9.196-11.776-15.375-21.664-15.375h-10.39c-4.143 0-7.5 3.357-7.5 7.5s3.357 7.5 7.5 7.5h10.39c3.424 0 6.412 2.06 7.423 5.086l9.334 28.482c-1.863-.37-3.787-.568-5.757-.568h-236c-2.023 0-3.999.205-5.909.595l9.474-28.47c1.023-3.065 4.011-5.125 7.435-5.125h171.424c4.143 0 7.5-3.357 7.5-7.5s-3.357-7.5-7.5-7.5h-171.424c-9.888 0-18.594 6.179-21.666 15.382l-17.21 51.72c-.203.61-1.624 7.432-1.624 10.398v36.993c0 4.143 3.357 7.5 7.5 7.5s7.5-3.357 7.5-7.5v-36.993c0-7.995 6.505-14.5 14.5-14.5h236c7.995 0 14.5 6.505 14.5 14.5v76c0 7.995-6.505 14.5-14.5 14.5h-236c-7.995 0-14.5-6.505-14.5-14.5v-6.355c0-4.143-3.357-7.5-7.5-7.5s-7.5 3.357-7.5 7.5v6.355c0 16.267 13.233 29.5 29.5 29.5h236c16.267 0 29.5-13.233 29.5-29.5v-76c0-3.612-.656-7.073-1.849-10.274z"/><path d="m366 482c4.143 0 7.5-3.357 7.5-7.5v-60c0-4.143-3.357-7.5-7.5-7.5h-220c-4.143 0-7.5 3.357-7.5 7.5v60c0 4.143 3.357 7.5 7.5 7.5zm-116.5-60v9.5c0 4.136-3.364 7.5-7.5 7.5s-7.5-3.364-7.5-7.5v-9.5zm-50.007 0v9.5c0 4.136-3.364 7.5-7.5 7.5s-7.5-3.364-7.5-7.5v-9.5zm-45.993 0h15.993v9.5c0 12.406 10.094 22.5 22.5 22.5s22.5-10.094 22.5-22.5v-9.5h5.007v9.5c0 12.406 10.094 22.5 22.5 22.5s22.5-10.094 22.5-22.5v-9.5h94v45h-205z"/></g></g></svg>