<svg id="Layer_1" enable-background="new 0 0 512 512" height="512" viewBox="0 0 512 512" width="512" xmlns="http://www.w3.org/2000/svg"><g><path d="m204.649 309.341v-52.491c0-28.314 23.036-51.351 51.351-51.351s51.351 23.036 51.351 51.351v52.491h30v-52.491c0-44.856-36.494-81.351-81.351-81.351s-81.351 36.494-81.351 81.351v52.491z" fill="#43809f"/><path d="m394.5 69.47h-277.26l17.21-51.72c2.04-6.11 7.92-10.25 14.55-10.25h214c6.63 0 12.51 4.14 14.55 10.25z" fill="#29cef6"/><path d="m377.55 17.75c-2.04-6.11-7.92-10.25-14.55-10.25h-30c6.63 0 12.51 4.14 14.55 10.25l16.95 51.72h30z" fill="#22b5ed"/><path d="m374 175.5h-236c-12.15 0-22-9.85-22-22v-76c0-12.15 9.85-22 22-22h236c12.15 0 22 9.85 22 22v76c0 12.15-9.85 22-22 22z" fill="#a9dbf5"/><path d="m374 55.5h-30c12.15 0 22 9.85 22 22v76c0 12.15-9.85 22-22 22h30c12.15 0 22-9.85 22-22v-76c0-12.15-9.85-22-22-22z" fill="#88c3e0"/><path d="m226 5.5h60v220h-60z" fill="#43809f" transform="matrix(0 1 -1 0 371.5 -140.5)"/><path d="m191.993 117.5c-8.284 0-15-6.716-15-15v-17h30v17c0 8.284-6.716 15-15 15z" fill="#f78e36"/><path d="m242 117.5c-8.284 0-15-6.716-15-15v-17h30v17c0 8.284-6.716 15-15 15z" fill="#f78e36"/><path d="m366 504.5h-220c-18.778 0-34-15.222-34-34v-157c0-18.778 15.222-34 34-34h220c18.778 0 34 15.222 34 34v157c0 18.778-15.222 34-34 34z" fill="#ffc328"/><path d="m366 279.5h-30c18.778 0 34 15.222 34 34v157c0 18.778-15.222 34-34 34h30c18.778 0 34-15.222 34-34v-157c0-18.778-15.222-34-34-34z" fill="#ffb200"/><path d="m293.94 350.891c.853 15.433-7.518 29.004-20.109 35.703-1.756.934-2.831 2.782-2.831 4.77v54.72c0 8.279-6.716 14.99-15 14.99-8.284 0-15-6.711-15-14.99v-54.66c0-2.005-1.065-3.889-2.835-4.831-12-6.388-20.165-19.015-20.165-33.546 0-21.352 17.626-38.583 39.134-37.957 19.567.568 35.726 16.268 36.806 35.801z" fill="#2b6181"/><path d="m256 227.462c-8.284 0-15-6.716-15-15v-36.962h30v36.962c0 8.284-6.716 15-15 15z" fill="#88c3e0"/><g><path d="m504.5 386.962h-97v-14.462h48.252c4.142 0 7.5-3.357 7.5-7.5s-3.358-7.5-7.5-7.5h-48.252v-44c0-22.883-18.617-41.5-41.5-41.5h-21.15v-15.15c0-30.25-15.492-57.705-39.526-73.85h68.676c16.267 0 29.5-13.233 29.5-29.5v-76c0-3.612-.656-7.073-1.849-10.274-.01-.03-.014-.062-.024-.092l-16.963-51.759c-3.07-9.196-11.776-15.375-21.664-15.375h-43.503c-4.142 0-7.5 3.357-7.5 7.5s3.358 7.5 7.5 7.5h43.503c3.424 0 6.412 2.06 7.423 5.086l9.335 28.482c-1.864-.37-3.788-.568-5.758-.568h-236c-2.023 0-3.999.206-5.909.595l9.473-28.47c1.024-3.065 4.012-5.125 7.436-5.125h138.683c4.142 0 7.5-3.357 7.5-7.5s-3.358-7.5-7.5-7.5h-138.683c-9.888 0-18.593 6.179-21.666 15.382l-17.21 51.72c-.203.61-.319 1.237-.361 1.865-.818 2.703-1.263 5.566-1.263 8.533v76c0 16.267 13.233 29.5 29.5 29.5h68.745c-24.052 16.169-39.595 43.676-39.595 73.85v15.15h-21.15c-22.883 0-41.5 18.617-41.5 41.5v44h-48.252c-4.142 0-7.5 3.357-7.5 7.5s3.358 7.5 7.5 7.5h48.252v14.462h-97c-4.142 0-7.5 3.357-7.5 7.5s3.358 7.5 7.5 7.5h97v14.461h-48.252c-4.142 0-7.5 3.357-7.5 7.5s3.358 7.5 7.5 7.5h48.252v39.077c0 22.883 18.617 41.5 41.5 41.5h14.428c4.142 0 7.5-3.357 7.5-7.5s-3.358-7.5-7.5-7.5h-14.428c-14.612 0-26.5-11.888-26.5-26.5v-157c0-14.612 11.888-26.5 26.5-26.5h220c14.612 0 26.5 11.888 26.5 26.5v157c0 14.612-11.888 26.5-26.5 26.5h-173.386c-4.142 0-7.5 3.357-7.5 7.5s3.358 7.5 7.5 7.5h173.386c22.883 0 41.5-18.617 41.5-41.5v-39.077h48.252c4.142 0 7.5-3.357 7.5-7.5s-3.358-7.5-7.5-7.5h-48.252v-14.461h97c4.142 0 7.5-3.357 7.5-7.5s-3.358-7.5-7.5-7.5zm-174.65-130.112v15.15h-15v-15.15c0-23.93-14.455-45.301-36.35-54.375v-15.955c30.171 9.674 51.35 38.084 51.35 70.33zm-95.462-38.146c2.713 9.378 11.371 16.258 21.612 16.258 10.242 0 18.902-6.882 21.614-16.262 13.566 7.692 22.237 22.155 22.237 38.15v15.15h-87.7v-15.15c-.001-16 8.669-30.459 22.237-38.146zm14.112-35.704h15v29.462c0 4.136-3.364 7.5-7.5 7.5s-7.5-3.364-7.5-7.5zm-125-29.5v-76c0-7.995 6.505-14.5 14.5-14.5h236c7.995 0 14.5 6.505 14.5 14.5v76c0 7.995-6.505 14.5-14.5 14.5h-236c-7.995 0-14.5-6.505-14.5-14.5zm58.65 103.35c0-32.143 21.213-60.649 51.35-70.33v15.962c-21.896 9.067-36.35 30.432-36.35 54.367v15.151h-15z"/><path d="m256.916 322.586c5.691.166 11.222 1.948 15.995 5.155 3.438 2.313 8.098 1.396 10.408-2.041 2.31-3.438 1.396-8.099-2.042-10.408-7.126-4.789-15.399-7.451-23.925-7.7-12.417-.349-24.166 4.2-33.063 12.842-8.892 8.638-13.789 20.22-13.789 32.613 0 16.414 8.78 31.444 23 39.537v53.499c0 12.401 10.093 22.49 22.5 22.49s22.5-10.089 22.5-22.49v-53.499c14.916-8.5 23.881-24.882 22.929-42.107-.229-4.137-3.771-7.299-7.903-7.074-4.136.229-7.303 3.767-7.075 7.902.655 11.849-5.682 23.102-16.143 28.668-4.2 2.234-6.809 6.6-6.809 11.391v54.72c0 4.13-3.364 7.49-7.5 7.49s-7.5-3.36-7.5-7.49v-54.66c0-4.827-2.61-9.216-6.811-11.452-9.986-5.314-16.189-15.631-16.189-26.924 0-8.305 3.282-16.065 9.241-21.854 5.965-5.795 13.837-8.846 22.176-8.608z"/><path d="m373.5 145.5v-60c0-4.143-3.358-7.5-7.5-7.5h-220c-4.142 0-7.5 3.357-7.5 7.5v60c0 4.143 3.358 7.5 7.5 7.5h220c4.142 0 7.5-3.357 7.5-7.5zm-124-52.5v9.5c0 4.136-3.364 7.5-7.5 7.5s-7.5-3.364-7.5-7.5v-9.5zm-50.007 0v9.5c0 4.136-3.364 7.5-7.5 7.5s-7.5-3.364-7.5-7.5v-9.5zm159.007 45h-205v-45h15.993v9.5c0 12.406 10.093 22.5 22.5 22.5s22.5-10.094 22.5-22.5v-9.5h5.007v9.5c0 12.406 10.093 22.5 22.5 22.5s22.5-10.094 22.5-22.5v-9.5h94z"/></g></g></svg>