<svg id="Layer_1" enable-background="new 0 0 512 512" height="512" viewBox="0 0 512 512" width="512" xmlns="http://www.w3.org/2000/svg"><g><path d="m180.759 504.5h-113.518c-13.388 0-24.241-10.853-24.241-24.241v-113.518c0-13.388 10.853-24.241 24.241-24.241h113.518c13.388 0 24.241 10.853 24.241 24.241v113.518c0 13.388-10.853 24.241-24.241 24.241z" fill="#7be492"/><path d="m180.759 342.5h-30c13.388 0 24.241 10.853 24.241 24.241v113.518c0 13.388-10.853 24.241-24.241 24.241h30c13.388 0 24.241-10.853 24.241-24.241v-113.518c0-13.388-10.853-24.241-24.241-24.241z" fill="#45d987"/><path d="m73 472.5v-98c0-1.105.895-2 2-2h98c1.105 0 2 .895 2 2v98c0 1.105-.895 2-2 2h-98c-1.105 0-2-.895-2-2z" fill="#f78e36"/><path d="m444.759 504.5h-113.518c-13.388 0-24.241-10.853-24.241-24.241v-113.518c0-13.388 10.853-24.241 24.241-24.241h113.518c13.388 0 24.241 10.853 24.241 24.241v113.518c0 13.388-10.853 24.241-24.241 24.241z" fill="#7be492"/><path d="m444.759 342.5h-30c13.388 0 24.241 10.853 24.241 24.241v113.518c0 13.388-10.853 24.241-24.241 24.241h30c13.388 0 24.241-10.853 24.241-24.241v-113.518c0-13.388-10.853-24.241-24.241-24.241z" fill="#45d987"/><path d="m337 472.5v-98c0-1.105.895-2 2-2h98c1.105 0 2 .895 2 2v98c0 1.105-.895 2-2 2h-98c-1.105 0-2-.895-2-2z" fill="#f78e36"/><path d="m368.5 442.981v-38.962c0-3.556 3.845-5.714 6.79-3.812l30.154 19.481c2.742 1.771 2.742 5.852 0 7.623l-30.154 19.481c-2.945 1.903-6.79-.255-6.79-3.811z" fill="#f3f3f3"/><g><path d="m312.759 472h-113.518c-13.388 0-24.241-10.853-24.241-24.241v-113.518c0-13.388 10.853-24.241 24.241-24.241h113.518c13.388 0 24.241 10.853 24.241 24.241v113.518c0 13.388-10.853 24.241-24.241 24.241z" fill="#7be492"/><path d="m312.759 310h-30c13.388 0 24.241 10.853 24.241 24.241v113.518c0 13.388-10.853 24.241-24.241 24.241h30c13.388 0 24.241-10.853 24.241-24.241v-113.518c0-13.388-10.853-24.241-24.241-24.241z" fill="#45d987"/><path d="m205 440v-98c0-1.105.895-2 2-2h98c1.105 0 2 .895 2 2v98c0 1.105-.895 2-2 2h-98c-1.105 0-2-.895-2-2z" fill="#f78e36"/><path d="m305 442h-98c-1.105 0-2-.895-2-2v-32.573h102v32.573c0 1.105-.895 2-2 2z" fill="#29cef6"/><path d="m256 407.427h51l-23.934-30.139c-.801-1.008-2.332-1.008-3.132 0z" fill="#e4e4e4"/><path d="m205 407.427h62.961l-29.914-37.67c-.801-1.008-2.332-1.008-3.132 0z" fill="#f3f3f3"/></g><path d="m359.146 70.071c-10.107.148-19.541 3.053-27.577 7.993-.82.504-1.887-.04-1.935-.997-1.96-38.748-34.186-69.567-73.656-69.567-39.462 0-71.682 30.805-73.655 69.54-.049.957-1.114 1.5-1.934.997-8.035-4.929-17.465-7.825-27.566-7.967-29.474-.413-54.113 23.126-54.807 52.416-.717 30.26 23.748 55.013 54.029 55.013h207.911c30.281 0 54.745-24.753 54.029-55.012-.694-29.302-25.353-52.847-54.839-52.416z" fill="#f3f3f3"/><g fill="#e4e4e4"><path d="m296.191 58.311c3.143 9.699 11.719 16.595 21.844 17.787 3.772.444 7.672 1.027 11.599.969-1.96-38.749-34.186-69.567-73.656-69.567-5.132 0-10.137.532-14.974 1.523 26.087 5.368 47.131 24.43 55.187 49.288z"/><path d="m359.146 70.071c-9.435.138-18.284 2.681-25.956 7.037 27.848.901 50.129 17.265 50.795 45.38.716 30.259-23.748 55.012-54.029 55.012h30c30.281 0 54.745-24.753 54.029-55.012-.694-29.303-25.353-52.847-54.839-52.417z"/></g><path d="m193.606 90.411c4.625 6.342 15.923 23.044 17.553 36.914.166 1.415 2.611 1.675 4.918-2.018 3.651-5.841 8.047-16.378 3.385-24-6.432-10.517-15.7-13.036-20.308-13.06-7.385-.038-6.292 1.144-5.548 2.164z" fill="#e4e4e4"/><g><path d="m145.449 391.787h-39.07c-4.142 0-7.5 3.357-7.5 7.5v37.448h-.593c-4.142 0-7.5 3.357-7.5 7.5s3.358 7.5 7.5 7.5h8.093c4.142 0 7.5-3.357 7.5-7.5v-37.448h24.07v29.948h-1.988c-4.142 0-7.5 3.357-7.5 7.5s3.358 7.5 7.5 7.5h9.488c4.142 0 7.5-3.357 7.5-7.5v-44.948c0-4.142-3.358-7.5-7.5-7.5z"/><path d="m367.255 453.549c1.772.965 3.721 1.444 5.667 1.444 2.244 0 4.482-.638 6.438-1.9l30.154-19.481c3.436-2.22 5.487-5.999 5.487-10.111s-2.051-7.892-5.487-10.111l-30.154-19.481c-3.651-2.359-8.289-2.533-12.104-.456-3.858 2.101-6.255 6.15-6.255 10.568v38.961c-.001 4.416 2.396 8.466 6.254 10.567zm8.745-43.954 21.522 13.905-21.522 13.905z"/><path d="m469 393c4.142 0 7.5-3.357 7.5-7.5v-18.76c0-17.502-14.239-31.74-31.74-31.74h-47.382v-83.441c0-1.925-.74-3.775-2.067-5.17l-28.623-30.08h18.068c4.142 0 7.5-3.357 7.5-7.5s-3.358-7.5-7.5-7.5h-32.342l-15.518-16.309h23.059c16.777 0 32.456-6.594 44.148-18.565 11.599-11.877 17.771-27.547 17.379-44.125-.785-33.129-28.301-59.744-61.536-59.744-.303 0-.606.002-.91.007-7.916.115-15.699 1.744-22.929 4.766-6.456-38.438-39.997-67.339-80.129-67.339-17.294 0-33.806 5.332-47.75 15.421-3.356 2.428-4.108 7.116-1.681 10.473 2.429 3.356 7.116 4.111 10.473 1.68 11.37-8.226 24.841-12.574 38.958-12.574 35.331 0 64.395 27.43 66.167 62.444.155 3.071 1.942 5.868 4.665 7.301 2.731 1.437 6.062 1.323 8.688-.292 7.125-4.38 15.34-6.76 23.758-6.883 25.479-.383 46.634 19.857 47.231 45.095.296 12.504-4.362 24.327-13.115 33.289-8.846 9.058-20.713 14.046-33.416 14.046h-207.912c-12.703 0-24.571-4.988-33.417-14.046-8.753-8.963-13.41-20.785-13.114-33.289.592-25.004 21.406-45.1 46.542-45.1.22 0 .441.001.662.004 8.413.118 16.625 2.49 23.751 6.861 2.629 1.613 5.958 1.724 8.684.284 2.718-1.432 4.504-4.227 4.66-7.293.517-10.132 3.289-19.747 8.239-28.578 2.025-3.612.739-8.184-2.875-10.209-3.613-2.025-8.184-.738-10.209 2.875-4.548 8.111-7.601 16.761-9.12 25.809-7.228-3.014-15.008-4.637-22.92-4.747-.293-.004-.581-.007-.873-.007-33.229 0-60.752 26.626-61.537 59.745-.392 16.577 5.78 32.247 17.379 44.125 11.692 11.972 27.371 18.566 44.148 18.566h23.059l-15.518 16.309h-32.351c-4.142 0-7.5 3.357-7.5 7.5s3.358 7.5 7.5 7.5h18.078l-28.623 30.08c-1.327 1.395-2.067 3.245-2.067 5.17v83.441h-47.382c-17.501 0-31.74 14.238-31.74 31.74v113.52c0 17.502 14.239 31.74 31.74 31.74h7.513c4.142 0 7.5-3.357 7.5-7.5s-3.358-7.5-7.5-7.5h-7.513c-9.23 0-16.74-7.51-16.74-16.74v-113.52c0-9.23 7.51-16.74 16.74-16.74h100.26v15h-92.5c-5.238 0-9.5 4.262-9.5 9.5v98c0 5.238 4.262 9.5 9.5 9.5h98c4.53 0 8.324-3.189 9.268-7.439 4.453 2.83 9.651 4.586 15.232 4.89v.81c0 9.23-7.51 16.74-16.74 16.74h-73.634c-4.142 0-7.5 3.357-7.5 7.5s3.358 7.5 7.5 7.5h73.634c17.501 0 31.74-14.238 31.74-31.74v-.76h87v.76c0 17.502 14.239 31.74 31.74 31.74h113.52c17.501 0 31.74-14.238 31.74-31.74v-64.761c0-4.143-3.358-7.5-7.5-7.5s-7.5 3.357-7.5 7.5v64.76c0 9.23-7.51 16.74-16.74 16.74h-113.52c-9.23 0-16.74-7.51-16.74-16.74v-.81c5.581-.303 10.779-2.06 15.232-4.89.944 4.25 4.738 7.44 9.268 7.44h98c5.238 0 9.5-4.262 9.5-9.5v-98c0-5.238-4.262-9.5-9.5-9.5h-92.5v-15h100.26c9.23 0 16.74 7.51 16.74 16.74v18.76c0 4.143 3.358 7.5 7.5 7.5zm-339.377-58v-80.443l25.679-26.986v14.865c0 4.143 3.358 7.5 7.5 7.5s7.5-3.357 7.5-7.5v-30.629l25.507-26.807h52.691v62.896l-14.507-13.598c-3.021-2.833-7.768-2.68-10.601.343-2.833 3.021-2.679 7.769.343 10.601l24.765 23.213v34.045h-49.259c-17.502 0-31.741 14.239-31.741 31.741v.759zm37.877 132h-87v-87h87zm145.259-2.5h-113.518c-9.231 0-16.741-7.51-16.741-16.741v-113.518c0-9.231 7.51-16.741 16.741-16.741h113.518c9.231 0 16.741 7.51 16.741 16.741v113.518c0 9.231-7.51 16.741-16.741 16.741zm118.741-84.5v87h-87v-87zm-118.741-77.5h-49.259v-34.046l24.765-23.213c3.022-2.832 3.176-7.579.343-10.601s-7.579-3.176-10.601-.343l-14.507 13.599v-62.896h52.691l25.498 26.797v30.639c0 4.143 3.358 7.5 7.5 7.5s7.5-3.357 7.5-7.5v-14.875l25.688 26.996v80.443h-37.877v-.759c0-17.502-14.239-31.741-31.741-31.741z"/><path d="m305 332.5h-98c-5.238 0-9.5 4.262-9.5 9.5v98c0 5.238 4.262 9.5 9.5 9.5h98c5.238 0 9.5-4.262 9.5-9.5v-98c0-5.238-4.262-9.5-9.5-9.5zm-5.5 15v38.422l-10.562-13.3c-1.813-2.281-4.524-3.59-7.438-3.59s-5.625 1.309-7.44 3.592l-12.079 15.211-18.062-22.744c-1.813-2.281-4.524-3.59-7.438-3.59s-5.625 1.309-7.439 3.592l-16.542 20.829v-38.422zm-27.917 52.427-.025-.031 9.942-12.52 9.967 12.551zm-19.204 0h-31.845l15.947-20.082 15.923 20.051zm-39.879 34.573v-19.573h87v19.573z"/></g></g></svg>