<svg id="Layer_1" enable-background="new 0 0 512 512" height="512" viewBox="0 0 512 512" width="512" xmlns="http://www.w3.org/2000/svg"><g><path d="m132.5 415.5h30v29h-30z" fill="#43809f"/><path d="m7.5 474.5h497v30h-497z" fill="#43809f"/><path d="m286 69.47h-277.26l17.21-51.72c2.04-6.11 7.92-10.25 14.55-10.25h214c6.63 0 12.51 4.14 14.55 10.25z" fill="#29cef6"/><path d="m269.05 17.75c-2.04-6.11-7.92-10.25-14.55-10.25h-30c6.63 0 12.51 4.14 14.55 10.25l16.95 51.72h30z" fill="#22b5ed"/><path d="m265.5 175.5h-236c-12.15 0-22-9.85-22-22v-76c0-12.15 9.85-22 22-22h236c12.15 0 22 9.85 22 22v76c0 12.15-9.85 22-22 22z" fill="#a9dbf5"/><path d="m265.5 55.5h-30c12.15 0 22 9.85 22 22v76c0 12.15-9.85 22-22 22h30c12.15 0 22-9.85 22-22v-76c0-12.15-9.85-22-22-22z" fill="#88c3e0"/><path d="m117.5 5.5h60v220h-60z" fill="#43809f" transform="matrix(0 1 -1 0 263 -32)"/><path d="m83.493 117.5c-8.284 0-15-6.716-15-15v-17h30v17c0 8.284-6.716 15-15 15z" fill="#f78e36"/><path d="m133.5 117.5c-8.284 0-15-6.716-15-15v-17h30v17c0 8.284-6.716 15-15 15z" fill="#f78e36"/><path d="m265.5 295.5h-236c-12.15 0-22-9.85-22-22v-76c0-12.15 9.85-22 22-22h236c12.15 0 22 9.85 22 22v76c0 12.15-9.85 22-22 22z" fill="#88c3e0"/><path d="m265.5 175.5h-30c12.15 0 22 9.85 22 22v76c0 12.15-9.85 22-22 22h30c12.15 0 22-9.85 22-22v-76c0-12.15-9.85-22-22-22z" fill="#6eabc9"/><path d="m117.5 125.5h60v220h-60z" fill="#43809f" transform="matrix(0 1 -1 0 383 88)"/><path d="m83.493 237.5c-8.284 0-15-6.716-15-15v-17h30v17c0 8.284-6.716 15-15 15z" fill="#f78e36"/><path d="m133.5 237.5c-8.284 0-15-6.716-15-15v-17h30v17c0 8.284-6.716 15-15 15z" fill="#f78e36"/><path d="m265.5 415.5h-236c-12.15 0-22-9.85-22-22v-76c0-12.15 9.85-22 22-22h236c12.15 0 22 9.85 22 22v76c0 12.15-9.85 22-22 22z" fill="#a9dbf5"/><path d="m265.5 295.5h-30c12.15 0 22 9.85 22 22v76c0 12.15-9.85 22-22 22h30c12.15 0 22-9.85 22-22v-76c0-12.15-9.85-22-22-22z" fill="#88c3e0"/><path d="m117.5 245.5h60v220h-60z" fill="#43809f" transform="matrix(0 1 -1 0 503 208)"/><g fill="#f78e36"><path d="m83.493 357.5c-8.284 0-15-6.716-15-15v-17h30v17c0 8.284-6.716 15-15 15z"/><path d="m133.5 357.5c-8.284 0-15-6.716-15-15v-17h30v17c0 8.284-6.716 15-15 15z"/><path d="m192.5 474.5v30h-90v-30h30v-30h30v30z"/></g><path d="m375.174 108.521c-60.304 1.083-110.339 44.203-122.065 101.297-.225 1.094-.88 2.051-1.83 2.638l-33.159 20.482c-1.906 1.177-1.906 3.948 0 5.126l33.16 20.482c.95.587 1.605 1.544 1.83 2.638 11.875 57.825 63.05 101.316 124.39 101.316 70.447 0 127.497-57.358 126.997-127.921-.496-69.911-59.421-127.314-129.323-126.058z" fill="#f3f3f3"/><path d="m375.174 108.521c-4.338.078-8.621.38-12.842.883 62.125 7.49 111.711 61.07 112.165 125.175.464 65.483-48.637 119.584-112.01 127.036 4.924.58 9.933.885 15.013.885 70.447 0 127.497-57.358 126.997-127.921-.496-69.911-59.421-127.314-129.323-126.058z" fill="#e4e4e4"/><g><path d="m415.748 175.3c-1.064-20.498-17.984-36.878-38.521-37.291-19.945-.396-37.062 14.168-39.814 33.893-.252 1.806-.379 3.65-.379 5.483 0 4.143 3.358 7.5 7.5 7.5s7.5-3.357 7.5-7.5c0-1.142.079-2.29.236-3.41 1.68-12.039 12.018-20.975 24.157-20.975.166 0 .333.002.499.005 12.712.257 23.186 10.391 23.844 23.072.351 6.768-2.017 13.191-6.668 18.091-4.654 4.902-10.934 7.602-17.683 7.602-4.142 0-7.5 3.357-7.5 7.5v33.341c0 4.143 3.358 7.5 7.5 7.5s7.5-3.357 7.5-7.5v-26.546c8.003-1.528 15.303-5.505 21.061-11.568 7.509-7.913 11.334-18.281 10.768-29.197z"/><path d="m377.701 279.039c4.142 0 7.5-3.357 7.5-7.5v-3.487c0-4.143-3.358-7.5-7.5-7.5s-7.5 3.357-7.5 7.5v3.487c0 4.143 3.358 7.5 7.5 7.5z"/><path d="m377.777 321.577c4.142 0 7.5-3.357 7.5-7.5v-5.385c0-4.143-3.358-7.5-7.5-7.5s-7.5 3.357-7.5 7.5v5.385c0 4.143 3.358 7.5 7.5 7.5z"/><path d="m341.489 308.692v5.385c0 4.143 3.358 7.5 7.5 7.5s7.5-3.357 7.5-7.5v-5.385c0-4.143-3.358-7.5-7.5-7.5s-7.5 3.358-7.5 7.5z"/><path d="m399.428 308.692v5.385c0 4.143 3.358 7.5 7.5 7.5s7.5-3.357 7.5-7.5v-5.385c0-4.143-3.358-7.5-7.5-7.5s-7.5 3.358-7.5 7.5z"/><path d="m265 145.5v-60c0-4.143-3.358-7.5-7.5-7.5h-220c-4.142 0-7.5 3.357-7.5 7.5v60c0 4.143 3.358 7.5 7.5 7.5h220c4.142 0 7.5-3.357 7.5-7.5zm-124-52.5v9.5c0 4.136-3.364 7.5-7.5 7.5s-7.5-3.364-7.5-7.5v-9.5zm-50.007 0v9.5c0 4.136-3.364 7.5-7.5 7.5s-7.5-3.364-7.5-7.5v-9.5zm159.007 45h-205v-45h15.993v9.5c0 12.406 10.093 22.5 22.5 22.5s22.5-10.094 22.5-22.5v-9.5h5.007v9.5c0 12.406 10.093 22.5 22.5 22.5s22.5-10.094 22.5-22.5v-9.5h94z"/><path d="m257.5 393c4.142 0 7.5-3.357 7.5-7.5v-60c0-4.143-3.358-7.5-7.5-7.5h-220c-4.142 0-7.5 3.357-7.5 7.5v60c0 4.143 3.358 7.5 7.5 7.5zm-116.5-60v9.5c0 4.136-3.364 7.5-7.5 7.5s-7.5-3.364-7.5-7.5v-9.5zm-50.007 0v9.5c0 4.136-3.364 7.5-7.5 7.5s-7.5-3.364-7.5-7.5v-9.5zm-45.993 0h15.993v9.5c0 12.406 10.093 22.5 22.5 22.5s22.5-10.094 22.5-22.5v-9.5h5.007v9.5c0 12.406 10.093 22.5 22.5 22.5s22.5-10.094 22.5-22.5v-9.5h94v45h-205z"/><path d="m504.5 467h-334.5v-44h95.5c16.267 0 29.5-13.233 29.5-29.5v-51.782c23.496 18.261 52.636 28.282 82.5 28.282 25.55 0 50.412-7.196 71.897-20.811 3.499-2.217 4.538-6.851 2.321-10.35-2.218-3.497-6.851-4.536-10.35-2.32-19.08 12.09-41.165 18.481-63.868 18.481-56.476 0-105.7-40.091-117.045-95.33-.64-3.11-2.547-5.847-5.234-7.507l-26.979-16.664 26.978-16.663c2.687-1.659 4.594-4.396 5.235-7.51 5.378-26.185 19.687-50.127 40.29-67.416 20.851-17.497 47.331-27.401 74.563-27.891 31.806-.577 62.122 11.59 85.351 34.244 23.208 22.633 36.113 52.596 36.338 84.368.22 31.014-11.389 60.487-32.688 82.993-2.847 3.009-2.716 7.756.292 10.603 3.009 2.847 7.756 2.717 10.603-.292 23.974-25.332 37.04-58.506 36.793-93.409-.254-35.811-14.767-69.549-40.865-95.002-26.12-25.473-60.242-39.151-96.093-38.503-28.984.521-57.208 10.522-80.039 28.258v-51.779c0-3.612-.656-7.073-1.849-10.274-.01-.03-.014-.062-.024-.092l-16.963-51.759c-3.071-9.196-11.776-15.375-21.664-15.375h-158.631c-4.142 0-7.5 3.357-7.5 7.5s3.358 7.5 7.5 7.5h158.631c3.424 0 6.413 2.06 7.423 5.086l9.334 28.482c-1.863-.37-3.787-.568-5.757-.568h-236c-2.023 0-3.999.206-5.909.595l9.473-28.47c1.024-3.065 4.012-5.125 7.436-5.125h23.276c4.142 0 7.5-3.357 7.5-7.5s-3.358-7.5-7.5-7.5h-23.276c-9.888 0-18.593 6.179-21.666 15.382l-17.21 51.72c-.203.61-1.624 7.432-1.624 10.398v76c0 8.736 3.82 16.594 9.874 22-6.054 5.406-9.874 13.264-9.874 22v76c0 8.736 3.82 16.594 9.874 22-6.054 5.406-9.874 13.264-9.874 22v33.99c0 4.143 3.358 7.5 7.5 7.5s7.5-3.357 7.5-7.5v-33.99c0-7.995 6.505-14.5 14.5-14.5h231.682c5.26 9.048 11.576 17.49 18.818 25.125v65.375c0 7.995-6.505 14.5-14.5 14.5h-236c-7.995 0-14.5-6.505-14.5-14.5v-9.64c0-4.143-3.358-7.5-7.5-7.5s-7.5 3.357-7.5 7.5v9.64c0 16.267 13.233 29.5 29.5 29.5h95.5v44h-117.5c-4.142 0-7.5 3.357-7.5 7.5v30c0 4.143 3.358 7.5 7.5 7.5h497c4.142 0 7.5-3.357 7.5-7.5v-30c0-4.143-3.358-7.5-7.5-7.5zm-290.322-222.557 21.948 13.557h-191.126v-45h15.993v9.5c0 12.406 10.093 22.5 22.5 22.5s22.5-10.094 22.5-22.5v-9.5h5.007v9.5c0 12.406 10.093 22.5 22.5 22.5s22.5-10.094 22.5-22.5v-9.5h80.124l-21.948 13.557c-3.123 1.93-4.987 5.274-4.986 8.945 0 3.671 1.866 7.014 4.988 8.941zm-138.185-31.443h15v9.5c0 4.136-3.364 7.5-7.5 7.5s-7.5-3.364-7.5-7.5zm50.007 0h15v9.5c0 4.136-3.364 7.5-7.5 7.5s-7.5-3.364-7.5-7.5zm-111-59.5v-76c0-7.995 6.505-14.5 14.5-14.5h236c7.995 0 14.5 6.505 14.5 14.5v65.401c-7.229 7.625-13.527 16.062-18.782 25.099h-231.718c-7.995 0-14.5-6.505-14.5-14.5zm14.5 134.5c-7.995 0-14.5-6.505-14.5-14.5v-76c0-7.995 6.505-14.5 14.5-14.5h224.2c-2.079 4.885-3.871 9.892-5.357 15h-210.843c-4.142 0-7.5 3.357-7.5 7.5v60c0 4.143 3.358 7.5 7.5 7.5h210.821c1.485 5.108 3.27 10.118 5.346 15zm125.5 135v14h-15v-14zm-140 59h80v15h-80zm95 15v-15h22.5c4.142 0 7.5-3.357 7.5-7.5v-22.5h15v22.5c0 4.143 3.358 7.5 7.5 7.5h22.5v15zm387 0h-297v-15h297z"/></g></g></svg>