<svg id="Layer_1" enable-background="new 0 0 512 512" height="512" viewBox="0 0 512 512" width="512" xmlns="http://www.w3.org/2000/svg"><g><path d="m404 504.5h-296c-16.569 0-30-13.431-30-30v-407c0-16.569 13.431-30 30-30h296c16.569 0 30 13.431 30 30v407c0 16.569-13.431 30-30 30z" fill="#f78e36"/><path d="m404 37.5v467c16.569 0 30-13.431 30-30v-407c0-16.569-13.431-30-30-30z" fill="#f86f1b"/><path d="m52.5 123h407v296h-407z" fill="#f3f3f3" transform="matrix(0 1 -1 0 527 15)"/><path d="m374 67.5h30v407h-30z" fill="#e4e4e4"/><path d="m355 37.5h-198c-3.314 0-6-2.686-6-6v-18c0-3.314 2.686-6 6-6h198c3.314 0 6 2.686 6 6v18c0 3.314-2.686 6-6 6z" fill="#a9dbf5"/><path d="m355 7.5h-30c3.314 0 6 2.686 6 6v18c0 3.314-2.686 6-6 6h30c3.314 0 6-2.686 6-6v-18c0-3.314-2.686-6-6-6z" fill="#88c3e0"/><path d="m300.075 140.121 12.907 26.147c.924 1.872 2.71 3.169 4.776 3.469l28.861 4.193c5.203.756 7.28 7.148 3.516 10.817l-20.884 20.353c-1.495 1.457-2.177 3.556-1.824 5.613l4.93 28.738c.889 5.181-4.55 9.132-9.204 6.686l-25.814-13.568c-1.848-.971-4.056-.971-5.904 0l-25.814 13.568c-4.654 2.446-10.093-1.505-9.204-6.686l4.93-28.738c.353-2.057-.329-4.156-1.824-5.613l-20.884-20.352c-3.765-3.669-1.687-10.062 3.516-10.817l28.861-4.193c2.066-.3 3.852-1.598 4.776-3.469l12.907-26.147c2.327-4.714 9.05-4.714 11.376-.001z" fill="#ffc328"/><path d="m135.269 425.452c-.557 3.948-1.887 9.603-3.075 14.198-1.11 4.292-4.973 7.294-9.406 7.294h-13.575c-4.433 0-8.297-3.002-9.406-7.294-1.188-4.595-2.518-10.25-3.075-14.198-.415-2.942-2.182-5.517-4.756-7l-12.543-7.224c-2.572-1.481-5.682-1.722-8.435-.612-3.713 1.498-9.311 3.182-13.905 4.456-4.267 1.183-8.792-.656-11.01-4.488l-6.779-11.712c-2.22-3.836-1.55-8.683 1.617-11.783 3.399-3.327 7.649-7.31 10.801-9.766 2.342-1.825 3.692-4.64 3.692-7.609v-14.43c0-2.969-1.35-5.784-3.692-7.609-3.152-2.456-7.402-6.438-10.801-9.766-3.167-3.1-3.837-7.947-1.617-11.783l6.779-11.712c2.218-3.832 6.744-5.671 11.01-4.488 4.594 1.274 10.192 2.958 13.905 4.456 2.752 1.11 5.863.869 8.435-.612l12.543-7.224c2.574-1.483 4.342-4.058 4.756-7 .557-3.948 1.887-9.603 3.075-14.198 1.11-4.292 4.973-7.294 9.406-7.294h13.575c4.433 0 8.297 3.002 9.406 7.294 1.188 4.595 2.518 10.25 3.075 14.198.415 2.942 2.182 5.517 4.756 7l12.543 7.224c2.572 1.481 5.682 1.722 8.435.612 3.713-1.498 9.311-3.182 13.905-4.456 4.267-1.183 8.792.656 11.01 4.488l6.779 11.712c2.22 3.836 1.55 8.683-1.617 11.783-3.399 3.327-7.649 7.31-10.801 9.766-2.342 1.825-3.692 4.64-3.692 7.609v14.43c0 2.969 1.35 5.784 3.692 7.609 3.152 2.456 7.402 6.438 10.801 9.766 3.167 3.1 3.837 7.947 1.617 11.783l-6.779 11.712c-2.218 3.832-6.744 5.671-11.01 4.488-4.594-1.274-10.192-2.958-13.905-4.456-2.752-1.11-5.863-.869-8.435.612l-12.543 7.224c-2.574 1.483-4.341 4.058-4.756 7zm14.155-62.952c0-18.414-14.964-33.341-33.424-33.341s-33.424 14.927-33.424 33.341 14.965 33.341 33.424 33.341 33.424-14.927 33.424-33.341z" fill="#43809f"/><path d="m470 442h-84c-2.209 0-4-1.791-4-4v-112c0-2.209 1.791-4 4-4h84c2.209 0 4 1.791 4 4v112c0 2.209-1.791 4-4 4z" fill="#29cef6"/><path d="m470 322h-30c2.209 0 4 1.791 4 4v112c0 2.209-1.791 4-4 4h30c2.209 0 4-1.791 4-4v-112c0-2.209-1.791-4-4-4z" fill="#22b5ed"/><g><path d="m334.922 210.047 20.447-19.928c3.802-3.704 5.144-9.142 3.504-14.189-1.64-5.048-5.923-8.658-11.176-9.421l-28.259-4.106-12.638-25.601c-2.349-4.759-7.105-7.715-12.413-7.715-5.309 0-10.065 2.956-12.414 7.715l-12.638 25.601-28.259 4.106c-5.253.763-9.535 4.373-11.176 9.421-1.64 5.048-.298 10.485 3.504 14.189l20.447 19.928-4.826 28.138c-.897 5.229 1.212 10.416 5.504 13.536 4.294 3.119 9.881 3.527 14.581 1.056l17.776-9.344v111.567h-89.422c-4.143 0-7.5 3.357-7.5 7.5s3.357 7.5 7.5 7.5h96.922c4.143 0 7.5-3.357 7.5-7.5v-119.066l17.776 9.344c2.043 1.073 4.254 1.604 6.453 1.604 2.859 0 5.699-.896 8.127-2.66 4.292-3.12 6.401-8.307 5.504-13.536zm-10.905-10.318c-3.265 3.182-4.753 7.763-3.981 12.252l4.533 26.428-23.738-12.478c-2.018-1.062-4.23-1.592-6.443-1.592-2.212 0-4.425.53-6.44 1.591l-23.74 12.479 4.533-26.426c.771-4.491-.717-9.072-3.981-12.254l-19.202-18.714 26.537-3.856c4.51-.654 8.406-3.484 10.425-7.571l11.87-24.046 11.87 24.047c2.018 4.086 5.914 6.916 10.423 7.57l26.538 3.856z"/><path d="m184.001 134.5h-40c-4.143 0-7.5 3.357-7.5 7.5s3.357 7.5 7.5 7.5h40c4.143 0 7.5-3.357 7.5-7.5s-3.357-7.5-7.5-7.5z"/><path d="m184.001 167.5h-40c-4.143 0-7.5 3.357-7.5 7.5s3.357 7.5 7.5 7.5h40c4.143 0 7.5-3.357 7.5-7.5s-3.357-7.5-7.5-7.5z"/><path d="m184.001 200.5h-40c-4.143 0-7.5 3.357-7.5 7.5s3.357 7.5 7.5 7.5h40c4.143 0 7.5-3.357 7.5-7.5s-3.357-7.5-7.5-7.5z"/><path d="m106.024 402.107c.205.056.411.105.623.144 3.007.705 6.136 1.089 9.355 1.089 5.317 0 10.492-1.004 15.382-2.985 3.84-1.555 5.691-5.928 4.136-9.767-1.556-3.84-5.931-5.692-9.767-4.136-3.093 1.253-6.373 1.888-9.751 1.888-.168 0-.333-.009-.5-.013v-51.657c.167-.003.332-.013.5-.013 14.295 0 25.924 11.593 25.924 25.842 0 1.557-.14 3.115-.414 4.634-.738 4.076 1.968 7.979 6.044 8.716 4.072.736 7.977-1.969 8.716-6.044.435-2.397.654-4.855.654-7.306 0-22.521-18.358-40.842-40.924-40.842-3.224 0-6.357.386-9.368 1.092-.194.036-.384.082-.573.132-17.777 4.446-30.983 20.519-30.983 39.619 0 19.085 13.188 35.15 30.946 39.607zm-5.522-60.309v41.403c-6.324-4.716-10.424-12.24-10.424-20.701s4.1-15.985 10.424-20.702z"/><path d="m470 314.5h-28.5v-186.638c0-4.143-3.357-7.5-7.5-7.5s-7.5 3.357-7.5 7.5v186.638h-15v-247c0-4.143-3.357-7.5-7.5-7.5h-67.781c1.872-4.743 3.169-9.77 3.808-15h63.973c12.406 0 22.5 10.094 22.5 22.5v28.549c0 4.143 3.357 7.5 7.5 7.5s7.5-3.357 7.5-7.5v-28.549c0-20.678-16.822-37.5-37.5-37.5h-35.5v-16.5c0-7.444-6.056-13.5-13.5-13.5h-197.999c-7.444 0-13.5 6.056-13.5 13.5v16.5h-35.5c-20.678 0-37.5 16.822-37.5 37.5v238.698c-3.757-1.311-8.082-2.577-11.406-3.499-7.558-2.094-15.579 1.179-19.504 7.959l-6.778 11.711c-3.937 6.802-2.761 15.396 2.861 20.901 3.222 3.153 7.821 7.504 11.436 10.32.502.392.802 1.025.802 1.694v14.43c0 .669-.299 1.302-.802 1.692-3.615 2.817-8.215 7.168-11.437 10.322-5.621 5.504-6.798 14.099-2.86 20.899l6.778 11.712c3.924 6.781 11.94 10.053 19.506 7.959 3.325-.922 7.65-2.189 11.404-3.499v55.701c0 20.678 16.822 37.5 37.5 37.5h295.999c20.678 0 37.5-16.822 37.5-37.5v-25h28.5c6.341 0 11.5-5.159 11.5-11.5v-112c0-6.341-5.159-11.5-11.5-11.5zm-150.323-254.5h-127.352c-2.546-4.583-4.337-9.639-5.21-15h137.773c-.874 5.361-2.666 10.417-5.211 15zm-13.223 15c-7.7 5.652-17.191 9-27.453 9h-46c-10.262 0-19.753-3.348-27.453-9zm-147.953-60h194.999v15h-194.999zm-50.499 30h63.973c.639 5.23 1.936 10.257 3.808 15h-67.781c-4.143 0-7.5 3.357-7.5 7.5v205.439c-3.844 2.262-6.779 5.98-7.956 10.533-1.124 4.353-2.6 10.492-3.24 15.029-.089.633-.49 1.212-1.072 1.547l-2.731 1.573v-234.121c-.001-12.406 10.092-22.5 22.499-22.5zm-52.912 362.845c-.977.271-2.012-.148-2.516-1.018l-6.778-11.713c-.501-.865-.348-1.961.371-2.665 4.165-4.076 7.774-7.348 10.164-9.209 4.183-3.259 6.582-8.188 6.582-13.525v-14.43c0-5.336-2.398-10.266-6.581-13.525-2.391-1.862-6-5.134-10.164-9.209-.72-.705-.873-1.801-.372-2.667l6.778-11.712c.504-.87 1.539-1.291 2.514-1.018 5.634 1.563 10.288 3.048 13.104 4.184 3.878 1.564 8.096 1.626 11.973.283.29-.087.572-.192.846-.313.736-.299 1.462-.633 2.164-1.037l12.546-7.225c4.623-2.664 7.698-7.203 8.437-12.45.423-2.997 1.456-7.745 2.91-13.37.254-.983 1.136-1.671 2.145-1.671h13.576c1.009 0 1.891.688 2.145 1.67 1.454 5.626 2.487 10.374 2.91 13.367.739 5.251 3.814 9.79 8.439 12.455l12.543 7.224c4.613 2.657 10.076 3.047 14.983 1.068 2.817-1.137 7.472-2.622 13.103-4.185.977-.275 2.012.147 2.516 1.018l6.778 11.713c.501.865.348 1.961-.371 2.665-4.165 4.076-7.774 7.348-10.165 9.211-4.183 3.259-6.581 8.188-6.581 13.524v14.43c0 5.337 2.399 10.267 6.581 13.524 2.391 1.862 6 5.134 10.164 9.209.72.705.873 1.801.372 2.667l-6.778 11.712c-.504.87-1.537 1.292-2.514 1.018-5.64-1.563-10.293-3.05-13.104-4.184-4.907-1.979-10.366-1.59-14.983 1.067l-12.544 7.225c-4.624 2.663-7.7 7.202-8.439 12.454-.424 3-1.457 7.746-2.91 13.366-.254.983-1.136 1.671-2.145 1.671h-13.576c-.113 0-.224-.012-.333-.028-.021-.002-.042-.007-.063-.01-.837-.153-1.529-.781-1.749-1.633-1.453-5.622-2.487-10.37-2.91-13.366-.739-5.252-3.815-9.791-8.439-12.454l-12.545-7.226c-2.669-1.537-5.621-2.314-8.586-2.314-2.16 0-4.328.413-6.397 1.248-2.81 1.134-7.464 2.62-13.101 4.184zm371.41 66.655c0 12.406-10.094 22.5-22.5 22.5h-295.998c-12.406 0-22.5-10.094-22.5-22.5v-51.122l2.731 1.573c.582.336.983.913 1.072 1.55.642 4.536 2.116 10.675 3.24 15.026 1.177 4.552 4.112 8.271 7.956 10.532v22.44c0 4.143 3.357 7.5 7.5 7.5h211.773c4.143 0 7.5-3.357 7.5-7.5s-3.357-7.5-7.5-7.5h-204.273v-12.556h7.288c7.848 0 14.702-5.312 16.668-12.917 1.124-4.352 2.599-10.49 3.24-15.026v-.004c.089-.633.49-1.21 1.072-1.546l12.543-7.224c.587-.338 1.291-.396 1.886-.156 4.253 1.716 10.345 3.519 14.709 4.729 7.559 2.097 15.579-1.179 19.504-7.959l6.778-11.711c3.937-6.802 2.761-15.396-2.861-20.901-3.222-3.153-7.821-7.504-11.437-10.322-.502-.39-.801-1.022-.801-1.691v-14.43c0-.669.3-1.303.802-1.693 3.615-2.817 8.215-7.168 11.437-10.322 5.621-5.504 6.798-14.099 2.86-20.899l-6.778-11.712c-3.925-6.781-11.942-10.059-19.506-7.959-4.357 1.209-10.445 3.01-14.706 4.729-.593.239-1.298.183-1.886-.155l-12.542-7.223c-.584-.336-.985-.915-1.074-1.552-.641-4.533-2.116-10.673-3.24-15.026-1.966-7.605-8.82-12.917-16.668-12.917h-7.288v-195.556h68.805c11.256 14.582 28.891 24 48.694 24h46c19.803 0 37.439-9.418 48.694-24h68.806v239.5h-10.5c-6.341 0-11.5 5.159-11.5 11.5v112c0 6.341 5.159 11.5 11.5 11.5h10.5v17.5h-44.355c-4.143 0-7.5 3.357-7.5 7.5s3.357 7.5 7.5 7.5h51.855c4.143 0 7.5-3.357 7.5-7.5v-25h15zm40-40h-77v-105h77z"/><path d="m408.308 381.254c4.143 0 7.5-3.357 7.5-7.5v-12.167c0-4.143-3.357-7.5-7.5-7.5s-7.5 3.357-7.5 7.5v12.167c0 4.142 3.357 7.5 7.5 7.5z"/><path d="m428 339.553c-4.143 0-7.5 3.357-7.5 7.5v26.701c0 4.143 3.357 7.5 7.5 7.5s7.5-3.357 7.5-7.5v-26.701c0-4.143-3.357-7.5-7.5-7.5z"/><path d="m447.693 381.254c4.143 0 7.5-3.357 7.5-7.5v-6.084c0-4.143-3.357-7.5-7.5-7.5s-7.5 3.357-7.5 7.5v6.084c0 4.142 3.357 7.5 7.5 7.5z"/><path d="m447.693 387.984h-39.385c-4.143 0-7.5 3.357-7.5 7.5s3.357 7.5 7.5 7.5h39.385c4.143 0 7.5-3.357 7.5-7.5s-3.358-7.5-7.5-7.5z"/></g></g></svg>