<svg id="Capa_1" enable-background="new 0 0 512 512" height="512" viewBox="0 0 512 512" width="512" xmlns="http://www.w3.org/2000/svg"><g><g><circle cx="239.985" cy="283.571" fill="#dd636e" r="228.428"/><path d="m254.65 511.54c-4.848.297-9.742.46-14.664.46-126.166 0-228.43-102.279-228.43-228.429s102.264-228.429 228.43-228.429c4.923 0 9.816.163 14.664.46-119.286 7.62-213.676 106.771-213.676 227.969s94.39 220.348 213.676 227.969z" fill="#cb5769"/><circle cx="239.985" cy="283.571" fill="#d3effb" r="174.586"/><path d="m270.49 455.627c-9.667 1.675-19.617 2.535-29.758 2.535-96.422 0-174.591-78.17-174.591-174.591s78.169-174.591 174.591-174.591c10.142 0 20.091.86 29.758 2.535-82.232 14.116-144.818 85.776-144.818 172.056s62.586 157.94 144.818 172.056z" fill="#9dc6fb"/><path d="m239.985 305.812h-81.112c-12.283 0-22.241-9.958-22.241-22.241s9.958-22.241 22.241-22.241h81.112c12.283 0 22.241 9.958 22.241 22.241s-9.958 22.241-22.241 22.241z" fill="#365e7d"/><path d="m239.985 305.812c-12.283 0-22.241-9.958-22.241-22.241v-56.79c0-12.283 9.958-22.241 22.241-22.241s22.241 9.958 22.241 22.241v56.79c0 12.283-9.958 22.241-22.241 22.241z" fill="#2b4d66"/><g fill="#365e7d"><g><path d="m239.985 158.264c-4.281 0-7.751-3.47-7.751-7.751v-34.977c0-4.281 3.47-7.751 7.751-7.751s7.751 3.47 7.751 7.751v34.977c0 4.281-3.471 7.751-7.751 7.751z"/><path d="m239.985 459.356c-4.281 0-7.751-3.47-7.751-7.751v-34.977c0-4.281 3.47-7.751 7.751-7.751s7.751 3.47 7.751 7.751v34.977c0 4.281-3.471 7.751-7.751 7.751z"/></g><g><path d="m408.02 291.322h-34.977c-4.281 0-7.751-3.47-7.751-7.751s3.47-7.751 7.751-7.751h34.977c4.281 0 7.751 3.47 7.751 7.751s-3.471 7.751-7.751 7.751z"/><path d="m106.928 291.322h-34.978c-4.281 0-7.751-3.47-7.751-7.751s3.47-7.751 7.751-7.751h34.977c4.281 0 7.751 3.47 7.751 7.751s-3.47 7.751-7.75 7.751z"/></g><g><path d="m367.635 217.628c-2.679 0-5.284-1.39-6.72-3.877-2.141-3.707-.87-8.448 2.837-10.588l17.88-10.323c3.707-2.141 8.447-.871 10.588 2.837 2.141 3.707.87 8.448-2.837 10.588l-17.88 10.323c-1.22.705-2.553 1.04-3.868 1.04z"/><path d="m94.469 375.341c-2.679 0-5.284-1.39-6.72-3.877-2.141-3.707-.87-8.448 2.837-10.588l17.88-10.323c3.706-2.141 8.448-.87 10.588 2.837 2.141 3.707.87 8.447-2.837 10.588l-17.88 10.323c-1.22.705-2.553 1.04-3.868 1.04z"/></g><g><path d="m313.673 163.68c-1.315 0-2.648-.335-3.868-1.04-3.707-2.14-4.978-6.881-2.837-10.588l10.323-17.88c2.14-3.707 6.881-4.978 10.588-2.837 3.707 2.14 4.978 6.881 2.837 10.588l-10.323 17.88c-1.437 2.487-4.042 3.877-6.72 3.877z"/><path d="m155.961 436.846c-1.315 0-2.648-.335-3.868-1.04-3.707-2.14-4.978-6.881-2.837-10.588l10.323-17.88c2.14-3.707 6.881-4.978 10.588-2.837 3.707 2.14 4.978 6.881 2.837 10.588l-10.323 17.88c-1.436 2.486-4.042 3.877-6.72 3.877z"/></g><g><path d="m166.297 163.68c-2.679 0-5.284-1.39-6.72-3.877l-10.323-17.88c-2.141-3.707-.87-8.448 2.837-10.588 3.707-2.141 8.448-.871 10.588 2.837l10.323 17.88c2.141 3.707.87 8.448-2.837 10.588-1.22.705-2.553 1.04-3.868 1.04z"/><path d="m324.009 436.846c-2.679 0-5.284-1.39-6.72-3.877l-10.323-17.88c-2.141-3.707-.87-8.448 2.837-10.588 3.707-2.141 8.447-.87 10.588 2.837l10.323 17.88c2.141 3.707.87 8.448-2.837 10.588-1.22.705-2.553 1.04-3.868 1.04z"/></g><g><path d="m112.335 217.628c-1.315 0-2.648-.335-3.868-1.04l-17.88-10.323c-3.707-2.14-4.978-6.881-2.837-10.588 2.14-3.707 6.881-4.979 10.588-2.837l17.88 10.323c3.707 2.14 4.978 6.881 2.837 10.588-1.436 2.487-4.041 3.877-6.72 3.877z"/><path d="m385.5 375.341c-1.315 0-2.648-.335-3.868-1.04l-17.88-10.323c-3.707-2.141-4.978-6.881-2.837-10.588 2.14-3.708 6.88-4.978 10.588-2.837l17.88 10.323c3.707 2.14 4.978 6.881 2.837 10.588-1.436 2.487-4.041 3.877-6.72 3.877z"/></g></g><path d="m239.985 468.492c-101.965 0-184.92-82.955-184.92-184.921s82.954-184.921 184.92-184.921 184.921 82.955 184.921 184.921-82.956 184.921-184.921 184.921zm0-349.172c-90.568 0-164.251 73.683-164.251 164.251s73.683 164.251 164.251 164.251 164.251-73.683 164.251-164.251-73.683-164.251-164.251-164.251z" fill="#cb5769"/></g><g><path d="m387.913 59.714c-16.463 0-29.857-13.394-29.857-29.857.001-16.463 13.394-29.857 29.857-29.857s29.857 13.394 29.857 29.857-13.394 29.857-29.857 29.857zm0-44.439c-8.04 0-14.582 6.542-14.582 14.582 0 8.041 6.542 14.582 14.582 14.582s14.582-6.542 14.582-14.582c0-8.041-6.542-14.582-14.582-14.582z" fill="#ffd064"/><circle cx="333.577" cy="230.608" fill="#e7a561" r="28.973"/><path d="m343.358 257.88c-3.058 1.101-6.353 1.701-9.781 1.701-16.002 0-28.973-12.971-28.973-28.973s12.971-28.973 28.973-28.973c3.428 0 6.723.599 9.781 1.701-11.191 4-19.192 14.698-19.192 27.272s8.001 23.271 19.192 27.272z" fill="#e29375"/><path d="m387.913 230.608c39.587 0 68.408-3.708 88.948-8.323 29.04-6.525 32.115-46.746 4.446-57.713-.25-.099-.499-.197-.746-.292-10.093-3.908-17.093-13.232-17.756-24.035-.762-12.423-2.219-22.99-3.949-31.812-6.332-32.288-32.63-57.052-65.295-61-3.55-.429-5.649-.447-5.649-.447s-2.099.018-5.649.447c-32.665 3.948-58.962 28.713-65.295 61-1.73 8.822-3.188 19.389-3.949 31.812-.662 10.803-7.663 20.126-17.755 24.035-.247.096-.496.193-.746.292-27.669 10.967-24.594 51.188 4.446 57.713 20.542 4.615 49.363 8.323 88.949 8.323z" fill="#f6e266"/><path d="m387.911 46.979s-.925.018-2.485.476c-14.407 4.159-26.012 30.242-28.805 64.246-.758 9.296-1.401 20.425-1.736 33.511-.291 11.376-3.384 21.192-7.834 25.316-.106.097-.22.203-.326.308-11.129 10.521-10.979 46.666-1.163 58.174-18.892-1.507-34.242-3.956-46.596-6.732-29.034-6.521-32.118-46.746-4.441-57.707.247-.106.493-.203.74-.291 10.098-3.912 17.095-13.235 17.755-24.038.767-12.424 2.221-22.99 3.948-31.81 6.336-32.295 32.63-57.055 65.294-61.003 3.552-.432 5.649-.45 5.649-.45z" fill="#ffd064"/></g></g></svg>