<svg id="Capa_1" enable-background="new 0 0 512 512" height="512" viewBox="0 0 512 512" width="512" xmlns="http://www.w3.org/2000/svg"><g><g><g><path d="m392.788 512h-273.576c0-51.977 8.57-114.553 12.65-141.447 1.34-8.763 6.494-16.513 14.099-21.076 14.485-8.679 29.779-15.559 44.204-20.955 26.653-10.007 50.348-14.944 60.536-16.779 3.513-.64 7.086-.64 10.598 0 10.188 1.835 33.883 6.772 60.536 16.779 14.425 5.396 29.719 12.276 44.204 20.955 7.605 4.563 12.759 12.312 14.099 21.076 4.079 26.894 12.65 89.47 12.65 141.447z" fill="#f9f6f9"/><path d="m193.316 512h-20.279c0-34.559 12.783-80.308 12.783-80.308s.314 45.242 7.496 80.308z" fill="#dddaec"/><path d="m361.753 512h-22.79c0-34.559-12.783-80.308-12.783-80.308s34.74 18.034 35.573 80.308z" fill="#dddaec"/><path d="m223.252 381.6 19.223 22.758 13.525 15.481 13.525-15.481 19.223-22.758v-47.941h-75.876" fill="#cb5769"/><path d="m145.962 349.477c7.774-4.659 15.789-8.8 23.768-12.469-5.879 4.937-9.874 13.23-10.912 22.597-3.187 28.982-9.898 96.398-9.898 152.395h-29.707c0-51.977 8.57-114.553 12.65-141.447 1.34-8.763 6.494-16.513 14.099-21.076z" fill="#dddaec"/><path d="m321.835 328.522-22.705 63.058-43.13-41.463-43.129 41.464-22.705-63.058c26.653-10.007 50.348-14.944 60.536-16.779 3.513-.64 7.086-.64 10.598 0 10.187 1.834 33.882 6.771 60.535 16.778z" fill="#dddaec"/><path d="m288.742 262.69v54.683c0 3.92-.682 7.666-1.949 11.153-4.559 12.593-16.622 21.592-30.785 21.592-14.174 0-26.248-8.998-30.806-21.592-1.267-3.487-1.949-7.233-1.949-11.153v-54.683z" fill="#ffddce"/><path d="m266.696 348.33c-3.35 1.153-6.946 1.783-10.69 1.783-18.09 0-32.751-14.661-32.751-32.741v-54.683h21.381v54.683c-.001 14.346 9.221 26.534 22.06 30.958z" fill="#ffcbbe"/><path d="m288.742 262.69v54.683c0 3.92-.682 7.666-1.949 11.153h-61.591c-1.267-3.487-1.949-7.233-1.949-11.153v-54.683z" fill="#ffcbbe"/><path d="m269.525 404.358c12.418 27.335 12.418 73.524 12.418 73.524s-5.536 18.708-25.944 34.118h.003c-20.408-15.41-25.944-34.118-25.944-34.118s0-46.189 12.418-73.524" fill="#dd636e"/></g><g><circle cx="256" cy="156.077" fill="#dd636e" r="156.077"/><path d="m266.02 311.841c-3.313.203-6.656.314-10.02.314-86.204 0-156.077-69.883-156.077-156.077s69.873-156.078 156.078-156.078c3.363 0 6.707.111 10.02.314-81.503 5.207-145.997 72.953-145.997 155.763s64.493 150.556 145.996 155.764z" fill="#cb5769"/><circle cx="256" cy="156.077" fill="#d3effb" r="119.288"/><path d="m276.843 273.637c-6.605 1.145-13.403 1.732-20.333 1.732-65.882 0-119.292-53.41-119.292-119.292s53.411-119.292 119.292-119.292c6.93 0 13.727.588 20.333 1.732-56.186 9.645-98.949 58.608-98.949 117.56s42.763 107.915 98.949 117.56z" fill="#9dc6fb"/><path d="m256 171.274h-55.421c-8.393 0-15.196-6.804-15.196-15.196s6.804-15.196 15.196-15.196h55.421c8.393 0 0 6.804 0 15.196s0 15.196 0 15.196z" fill="#365e7d"/><path d="m256 171.274c-8.393 0-15.196-6.804-15.196-15.196v-38.803c0-8.393 6.804-15.196 15.196-15.196 8.393 0 15.196 6.804 15.196 15.196v38.803c0 8.392-6.804 15.196-15.196 15.196z" fill="#2b4d66"/><g fill="#365e7d"><g><path d="m256 73.197c-4.268 0-7.726-3.459-7.726-7.726v-23.819c0-4.267 3.459-7.726 7.726-7.726s7.726 3.459 7.726 7.726v23.818c0 4.268-3.458 7.727-7.726 7.727z"/><path d="m256 278.229c-4.268 0-7.726-3.459-7.726-7.726v-23.818c0-4.267 3.459-7.726 7.726-7.726s7.726 3.459 7.726 7.726v23.818c0 4.266-3.458 7.726-7.726 7.726z"/></g><g><path d="m370.425 163.804h-23.818c-4.268 0-7.726-3.459-7.726-7.726s3.459-7.726 7.726-7.726h23.818c4.268 0 7.726 3.459 7.726 7.726s-3.459 7.726-7.726 7.726z"/><path d="m165.393 163.804h-23.818c-4.268 0-7.726-3.459-7.726-7.726s3.459-7.726 7.726-7.726h23.818c4.268 0 7.726 3.459 7.726 7.726s-3.458 7.726-7.726 7.726z"/></g><g><path d="m342.927 113.622c-2.67 0-5.267-1.386-6.698-3.864-2.134-3.695-.867-8.421 2.828-10.554l12.175-7.029c3.693-2.133 8.421-.868 10.554 2.828 2.134 3.695.867 8.421-2.828 10.554l-12.175 7.029c-1.216.702-2.545 1.036-3.856 1.036z"/><path d="m156.912 221.017c-2.67 0-5.268-1.386-6.698-3.864-2.134-3.695-.867-8.421 2.828-10.554l12.175-7.029c3.694-2.134 8.422-.868 10.554 2.828 2.134 3.695.867 8.421-2.828 10.554l-12.175 7.029c-1.216.702-2.545 1.036-3.856 1.036z"/></g><g><path d="m306.176 76.885c-1.311 0-2.639-.334-3.856-1.036-3.695-2.134-4.962-6.859-2.828-10.554l7.029-12.175c2.133-3.696 6.857-4.962 10.554-2.828 3.695 2.134 4.962 6.859 2.828 10.554l-7.029 12.175c-1.43 2.478-4.028 3.864-6.698 3.864z"/><path d="m198.781 262.9c-1.311 0-2.639-.334-3.856-1.036-3.695-2.133-4.962-6.859-2.828-10.554l7.029-12.175c2.133-3.695 6.857-4.962 10.554-2.828 3.695 2.134 4.962 6.859 2.828 10.555l-7.029 12.175c-1.431 2.477-4.028 3.863-6.698 3.863z"/></g><g><path d="m205.824 76.885c-2.67 0-5.268-1.386-6.698-3.864l-7.029-12.175c-2.134-3.695-.867-8.421 2.828-10.554 3.693-2.133 8.422-.868 10.554 2.828l7.029 12.175c2.134 3.695.867 8.421-2.828 10.554-1.216.702-2.545 1.036-3.856 1.036z"/><path d="m313.219 262.9c-2.67 0-5.268-1.386-6.698-3.864l-7.029-12.175c-2.134-3.696-.867-8.421 2.828-10.555 3.693-2.133 8.422-.867 10.554 2.828l7.029 12.175c2.134 3.696.867 8.421-2.828 10.554-1.216.703-2.545 1.037-3.856 1.037z"/></g><g><path d="m169.073 113.622c-1.311 0-2.64-.334-3.856-1.036l-12.175-7.029c-3.695-2.134-4.962-6.859-2.828-10.554 2.133-3.696 6.86-4.963 10.554-2.828l12.175 7.029c3.695 2.134 4.962 6.859 2.828 10.554-1.43 2.478-4.028 3.864-6.698 3.864z"/><path d="m355.088 221.017c-1.311 0-2.639-.334-3.856-1.036l-12.175-7.029c-3.695-2.134-4.962-6.859-2.828-10.554 2.133-3.696 6.857-4.963 10.554-2.828l12.175 7.029c3.695 2.134 4.962 6.859 2.828 10.554-1.431 2.478-4.028 3.864-6.698 3.864z"/></g></g><path d="m256 283.092c-70.036 0-127.014-56.978-127.014-127.015s56.978-127.014 127.014-127.014 127.014 56.978 127.014 127.015-56.978 127.014-127.014 127.014zm0-238.576c-61.515 0-111.562 50.046-111.562 111.562s50.047 111.561 111.562 111.561 111.562-50.046 111.562-111.562-50.047-111.561-111.562-111.561z" fill="#cb5769"/></g></g><g fill="#f6e266"><g><path d="m436.246 224.918 1.142-1.977c4.026-6.974 12.765-9.639 19.997-6.099l22.248 10.887c7.969 3.9 10.968 13.733 6.532 21.416l-2.837 4.913c-4.436 7.683-14.451 10.002-21.813 5.051l-20.553-13.823c-6.681-4.494-8.742-13.394-4.716-20.368z"/><path d="m456.456 151.775v-2.283c0-8.052 6.235-14.73 14.269-15.281l24.711-1.695c8.851-.607 16.365 6.409 16.365 15.281v5.673c0 8.872-7.514 15.888-16.365 15.281l-24.711-1.695c-8.034-.551-14.269-7.228-14.269-15.281z"/><path d="m437.388 78.327-1.142-1.977c-4.026-6.974-1.965-15.874 4.717-20.368l20.553-13.823c7.362-4.951 17.377-2.632 21.813 5.051l2.837 4.913c4.436 7.683 1.437 17.516-6.532 21.416l-22.248 10.887c-7.234 3.54-15.972.874-19.998-6.099z"/></g><g><path d="m75.754 224.918-1.142-1.977c-4.026-6.974-12.765-9.639-19.997-6.099l-22.248 10.887c-7.969 3.9-10.968 13.733-6.532 21.416l2.837 4.913c4.436 7.683 14.451 10.002 21.813 5.051l20.553-13.823c6.681-4.494 8.742-13.394 4.716-20.368z"/><path d="m55.544 151.775v-2.283c0-8.052-6.235-14.73-14.269-15.281l-24.711-1.695c-8.851-.607-16.365 6.409-16.365 15.281v5.673c0 8.872 7.514 15.888 16.365 15.281l24.711-1.695c8.034-.551 14.269-7.228 14.269-15.281z"/><path d="m74.612 78.327 1.142-1.977c4.026-6.974 1.965-15.874-4.717-20.368l-20.552-13.824c-7.362-4.951-17.377-2.632-21.813 5.051l-2.837 4.913c-4.436 7.683-1.437 17.516 6.532 21.416l22.248 10.887c7.233 3.541 15.971.875 19.997-6.098z"/></g></g></g></svg>