<svg id="Capa_1" enable-background="new 0 0 511.999 511.999" height="512" viewBox="0 0 511.999 511.999" width="512" xmlns="http://www.w3.org/2000/svg"><g><circle cx="255.999" cy="256.003" fill="#d3effb" r="152.28"/><path d="m281.96 406.077c-8.432 1.461-17.11 2.212-25.956 2.212-84.103 0-152.285-68.182-152.285-152.285s68.182-152.285 152.285-152.285c8.846 0 17.524.75 25.956 2.211-71.726 12.312-126.316 74.817-126.316 150.073s54.591 137.761 126.316 150.074z" fill="#9dc6fb"/><path d="m255.999 274.544h-67.619c-10.24 0-18.541-8.301-18.541-18.541s8.301-18.541 18.541-18.541h67.619c10.24 0 0 8.301 0 18.541s0 8.301 0 18.541z" fill="#365e7d"/><path d="m255.999 274.544c-10.24 0-18.541-8.301-18.541-18.541v-47.343c0-10.24 8.301-18.541 18.541-18.541s18.541 8.301 18.541 18.541v47.343c0 10.24-8.301 18.541-18.541 18.541z" fill="#2b4d66"/><g fill="#365e7d"><g><path d="m255.999 148.972c-4.267 0-7.726-3.459-7.726-7.726v-30.167c0-4.267 3.459-7.726 7.726-7.726s7.726 3.459 7.726 7.726v30.167c.001 4.266-3.459 7.726-7.726 7.726z"/><path d="m255.999 408.654c-4.267 0-7.726-3.459-7.726-7.726v-30.167c0-4.267 3.459-7.726 7.726-7.726s7.726 3.459 7.726 7.726v30.167c.001 4.267-3.459 7.726-7.726 7.726z"/></g><g><path d="m400.924 263.73h-30.167c-4.267 0-7.726-3.459-7.726-7.726s3.459-7.726 7.726-7.726h30.167c4.267 0 7.726 3.459 7.726 7.726 0 4.266-3.459 7.726-7.726 7.726z"/><path d="m141.242 263.73h-30.167c-4.267 0-7.726-3.459-7.726-7.726s3.459-7.726 7.726-7.726h30.167c4.267 0 7.726 3.459 7.726 7.726 0 4.266-3.459 7.726-7.726 7.726z"/></g><g><path d="m366.094 200.172c-2.67 0-5.267-1.386-6.698-3.864-2.134-3.695-.868-8.421 2.828-10.554l15.421-8.903c3.695-2.134 8.421-.868 10.554 2.828 2.134 3.695.868 8.421-2.828 10.554l-15.421 8.903c-1.217.702-2.545 1.036-3.856 1.036z"/><path d="m130.498 336.193c-2.67 0-5.267-1.386-6.698-3.864-2.134-3.695-.868-8.421 2.828-10.554l15.421-8.903c3.695-2.133 8.421-.868 10.554 2.828 2.134 3.695.868 8.421-2.828 10.554l-15.421 8.903c-1.216.702-2.545 1.036-3.856 1.036z"/></g><g><path d="m319.552 153.643c-1.311 0-2.639-.334-3.856-1.036-3.696-2.134-4.962-6.859-2.828-10.554l8.903-15.421c2.134-3.695 6.858-4.962 10.554-2.828s4.962 6.859 2.828 10.554l-8.903 15.421c-1.431 2.478-4.028 3.864-6.698 3.864z"/><path d="m183.53 389.239c-1.311 0-2.639-.334-3.856-1.036-3.696-2.134-4.962-6.859-2.828-10.554l8.903-15.421c2.133-3.696 6.859-4.962 10.554-2.828 3.696 2.134 4.962 6.859 2.828 10.554l-8.903 15.421c-1.431 2.478-4.028 3.864-6.698 3.864z"/></g><g><path d="m192.447 153.643c-2.67 0-5.267-1.386-6.698-3.864l-8.903-15.421c-2.134-3.695-.868-8.421 2.828-10.554s8.421-.868 10.554 2.828l8.903 15.421c2.134 3.695.868 8.421-2.828 10.554-1.217.702-2.545 1.036-3.856 1.036z"/><path d="m328.469 389.239c-2.67 0-5.267-1.386-6.698-3.864l-8.903-15.421c-2.134-3.695-.868-8.421 2.828-10.554 3.695-2.133 8.42-.868 10.554 2.828l8.903 15.421c2.134 3.695.868 8.421-2.828 10.554-1.217.702-2.545 1.036-3.856 1.036z"/></g><g><path d="m145.905 200.172c-1.311 0-2.639-.334-3.856-1.036l-15.421-8.903c-3.696-2.134-4.962-6.859-2.828-10.554 2.134-3.696 6.858-4.963 10.554-2.828l15.421 8.903c3.696 2.134 4.962 6.859 2.828 10.554-1.431 2.478-4.028 3.864-6.698 3.864z"/><path d="m381.5 336.193c-1.311 0-2.639-.334-3.856-1.036l-15.421-8.903c-3.696-2.134-4.962-6.859-2.828-10.554 2.133-3.696 6.859-4.962 10.554-2.828l15.421 8.903c3.696 2.134 4.962 6.859 2.828 10.554-1.43 2.478-4.028 3.864-6.698 3.864z"/></g></g><path d="m505.888 217.755c-2.786-8.718-10.476-14.946-19.553-16.123-11.479-1.486-22.97-2.625-34.449-3.405-9.04-.632-16.853-6.402-20.32-14.785-.025-.099-.074-.186-.111-.285-3.467-8.371-2.043-17.968 3.925-24.815 7.554-8.668 14.872-17.584 21.943-26.772 5.597-7.244 6.612-17.089 2.415-25.224-12.259-23.788-30.289-41.817-54.077-54.089-8.136-4.185-17.992-3.17-25.224 2.427-9.188 7.071-18.104 14.389-26.784 21.943-6.835 5.969-16.432 7.393-24.815 3.925-.087-.037-.186-.087-.272-.111-8.383-3.467-14.154-11.281-14.785-20.333-.78-11.467-1.919-22.958-3.405-34.449-1.176-9.064-7.405-16.754-16.123-19.553-25.497-8.136-51.005-8.136-76.502 0-8.718 2.799-14.946 10.488-16.123 19.553-1.486 11.491-2.625 22.983-3.405 34.449-.632 9.052-6.402 16.866-14.785 20.333-.099.025-.186.074-.272.111-8.383 3.467-17.98 2.043-24.828-3.925-8.668-7.554-17.584-14.872-26.772-21.943-7.232-5.597-17.089-6.613-25.224-2.427-23.791 12.271-41.82 30.3-54.092 54.088-4.185 8.136-3.17 17.98 2.427 25.224 7.071 9.188 14.389 18.104 21.943 26.772 5.969 6.848 7.393 16.445 3.925 24.815-.037.099-.087.186-.111.285-3.467 8.383-11.281 14.154-20.333 14.785-11.467.78-22.958 1.919-34.437 3.405-9.077 1.176-16.767 7.405-19.553 16.123-8.148 25.497-8.148 51.006 0 76.502 2.786 8.718 10.476 14.946 19.553 16.123 11.479 1.474 22.97 2.625 34.437 3.405 9.052.632 16.866 6.402 20.333 14.785.025.087.074.186.111.272 3.467 8.383 2.043 17.98-3.925 24.815-7.554 8.68-14.872 17.596-21.943 26.772-5.597 7.244-6.612 17.101-2.427 25.237 12.272 23.788 30.301 41.817 54.089 54.076 8.136 4.198 17.992 3.182 25.224-2.415 9.188-7.071 18.104-14.389 26.772-21.943 6.848-5.969 16.445-7.393 24.828-3.925.087.037.173.087.272.111 8.383 3.467 14.154 11.281 14.785 20.32.78 11.479 1.919 22.97 3.405 34.449 1.176 9.077 7.405 16.767 16.123 19.553 25.497 8.136 51.006 8.136 76.502 0 8.718-2.786 14.946-10.476 16.123-19.553 1.486-11.479 2.625-22.97 3.405-34.449.631-9.04 6.402-16.853 14.785-20.32.087-.025.186-.074.272-.111 8.383-3.467 17.98-2.043 24.815 3.925 8.68 7.554 17.596 14.872 26.784 21.943 7.232 5.597 17.089 6.613 25.224 2.415 23.788-12.259 41.817-30.289 54.077-54.076 4.198-8.136 3.182-17.993-2.415-25.237-7.071-9.176-14.389-18.092-21.943-26.772-5.969-6.835-7.393-16.432-3.925-24.815.037-.087.087-.186.111-.272 3.467-8.383 11.281-14.154 20.32-14.785 11.479-.78 22.97-1.932 34.449-3.405 9.077-1.176 16.767-7.405 19.553-16.123 8.151-25.496 8.151-51.005.003-76.501zm-249.888 183.8c-80.39 0-145.55-65.172-145.55-145.55 0-80.39 65.159-145.55 145.55-145.55 80.378 0 145.55 65.159 145.55 145.55-.001 80.379-65.172 145.55-145.55 145.55z" fill="#e7a561"/><path d="m80.591 411.957c-4.193-8.478-3.173-18.739 2.421-26.29 7.067-9.56 14.392-18.863 21.943-27.897 5.965-7.129 7.397-17.132 3.925-25.857-.041-.103-.082-.196-.113-.299-3.461-8.736-11.28-14.742-20.325-15.401-11.476-.814-22.963-2.009-34.449-3.554-9.076-1.226-16.761-7.716-19.553-16.802-8.138-26.568-8.138-53.147 0-79.715 2.792-9.086 10.477-15.576 19.553-16.802 11.487-1.545 22.973-2.74 34.449-3.554 9.045-.659 16.864-6.665 20.325-15.401.031-.103.072-.196.113-.299 3.472-8.726 2.04-18.729-3.925-25.857-7.551-9.035-14.876-18.337-21.943-27.897-5.594-7.551-6.614-17.812-2.421-26.29 10.23-20.665 24.467-37.169 42.701-49.49-5.573-1.545-11.631-1.03-16.957 1.71-23.787 12.268-41.805 30.286-54.074 54.072-4.193 8.138-3.173 17.987 2.421 25.229 7.067 9.179 14.392 18.1 21.932 26.774 5.965 6.84 7.397 16.442 3.925 24.817-.041.093-.082.185-.113.278-3.461 8.386-11.27 14.155-20.315 14.783-11.476.783-22.963 1.926-34.449 3.41-9.076 1.174-16.761 7.407-19.553 16.122-8.138 25.497-8.138 51.004 0 76.501 2.792 8.715 10.477 14.948 19.553 16.122 11.487 1.483 22.973 2.627 34.449 3.41 9.045.628 16.854 6.397 20.315 14.783.031.093.072.185.113.278 3.472 8.375 2.04 17.977-3.925 24.817-7.541 8.674-14.865 17.595-21.932 26.774-5.594 7.242-6.614 17.091-2.421 25.229 12.269 23.787 30.287 41.805 54.074 54.074 5.326 2.74 11.384 3.255 16.957 1.71-18.235-12.319-32.472-28.822-42.701-49.488zm149.365 84.083c-1.483-11.971-2.627-23.941-3.41-35.902-.628-9.426-6.397-17.575-14.783-21.18-.093-.031-.185-.072-.278-.113-5.996-2.596-12.62-2.565-18.409-.062 2.957 3.678 4.801 8.21 5.141 13.104.783 11.476 1.926 22.963 3.41 34.449 1.174 9.076 7.407 16.761 16.122 19.553 6.325 2.019 12.661 3.544 18.986 4.564-3.657-3.812-6.089-8.86-6.779-14.413zm-12.207-489.932c-8.715 2.792-14.948 10.477-16.122 19.553-1.483 11.487-2.627 22.973-3.41 34.449-.34 4.893-2.184 9.426-5.141 13.104 5.79 2.503 12.414 2.534 18.409-.062.093-.041.185-.082.278-.113 8.386-3.606 14.155-11.754 14.783-21.18.783-11.96 1.926-23.931 3.41-35.902.69-5.553 3.121-10.601 6.779-14.412-6.326 1.02-12.661 2.544-18.986 4.563z" fill="#e29375"/><path d="m255.999 419.198c-89.986 0-163.194-73.209-163.194-163.194s73.208-163.194 163.194-163.194 163.194 73.209 163.194 163.194-73.208 163.194-163.194 163.194zm0-304.813c-78.089 0-141.62 63.53-141.62 141.62s63.53 141.62 141.62 141.62 141.62-63.53 141.62-141.62-63.531-141.62-141.62-141.62z" fill="#e29375"/></g></svg>