<svg id="Capa_1" enable-background="new 0 0 512 512" height="512" viewBox="0 0 512 512" width="512" xmlns="http://www.w3.org/2000/svg"><g><g><path d="m142.411 491.522v-235.781h20.373c24.735 0 40.194-26.777 27.825-48.197l-65.3-113.089c-12.367-21.418-43.281-21.419-55.649-.001l-65.306 113.089c-12.37 21.42 3.089 48.199 27.824 48.199h20.383v235.781c0 11.167 9.053 20.219 20.219 20.219h49.41c11.168-.001 20.221-9.053 20.221-20.22z" fill="#9dc6fb"/><path d="m91.382 511.744h-18.604c-11.163 0-20.213-9.049-20.213-20.213v-235.793h-20.39c-24.735 0-40.195-26.772-27.817-48.197l65.297-113.086c6.184-10.707 17.006-16.055 27.828-16.055-7.249 0-14.499 5.348-18.635 16.055l-43.747 113.086c-8.294 21.424 2.068 48.197 18.635 48.197h8.377c8.683 0 15.722 7.039 15.722 15.722v220.06c-.001 11.167 6.068 20.224 13.547 20.224z" fill="#698ed5"/></g><g><path d="m397.267 308.531v-183.984h14.278c17.335 0 28.169-18.766 19.501-33.778l-45.764-79.255c-8.667-15.01-30.333-15.011-39.001-.001l-45.768 79.255c-8.669 15.012 2.165 33.779 19.5 33.779h14.285v183.983c0 7.826 6.344 14.17 14.17 14.17h34.628c7.826.001 14.171-6.343 14.171-14.169z" fill="#dd636e"/><path d="m361.505 322.703h-13.038c-7.823 0-14.165-6.342-14.165-14.166v-183.992h-14.29c-17.335 0-28.17-18.763-19.495-33.778l45.761-79.253c4.334-7.504 11.918-11.252 19.502-11.252-5.08 0-10.161 3.748-13.06 11.252l-30.659 79.253c-5.813 15.015 1.449 33.778 13.06 33.778h5.871c6.085 0 11.018 4.933 11.018 11.018v172.967c0 7.826 4.253 14.173 9.495 14.173z" fill="#cb5769"/></g><g><circle cx="255.996" cy="322.703" fill="#f6e266" r="173.291"/><path d="m267.122 495.646c-3.678.225-7.39.349-11.125.349-95.712 0-173.292-77.591-173.292-173.292s77.58-173.292 173.292-173.292c3.734 0 7.446.124 11.125.349-90.493 5.782-162.099 80.999-162.099 172.943s71.606 167.161 162.099 172.943z" fill="#ffd064"/><circle cx="255.996" cy="322.703" fill="#d3effb" r="132.445"/><path d="m279.138 453.228c-7.334 1.271-14.882 1.923-22.575 1.923-73.148 0-132.449-59.301-132.449-132.449s59.301-132.449 132.449-132.449c7.694 0 15.241.652 22.575 1.923-62.383 10.708-109.862 65.072-109.862 130.525s47.479 119.819 109.862 130.527z" fill="#9dc6fb"/><path d="m255.996 339.575h-61.533c-9.318 0-16.872-7.554-16.872-16.872s7.554-16.872 16.872-16.872h61.533c9.318 0 16.872 7.554 16.872 16.872.001 9.318-7.553 16.872-16.872 16.872z" fill="#365e7d"/><path d="m255.996 339.575c-9.318 0-16.872-7.554-16.872-16.872v-43.082c0-9.318 7.554-16.872 16.872-16.872s16.872 7.554 16.872 16.872v43.082c.001 9.318-7.553 16.872-16.872 16.872z" fill="#2b4d66"/><g fill="#365e7d"><g><path d="m255.996 229.185c-4.267 0-7.726-3.459-7.726-7.726v-26.615c0-4.267 3.459-7.726 7.726-7.726s7.726 3.459 7.726 7.726v26.615c.001 4.266-3.458 7.726-7.726 7.726z"/><path d="m255.996 458.289c-4.267 0-7.726-3.459-7.726-7.726v-26.615c0-4.267 3.459-7.726 7.726-7.726s7.726 3.459 7.726 7.726v26.615c.001 4.266-3.458 7.726-7.726 7.726z"/></g><g><path d="m383.856 330.429h-26.615c-4.267 0-7.726-3.459-7.726-7.726s3.459-7.726 7.726-7.726h26.615c4.267 0 7.726 3.459 7.726 7.726s-3.459 7.726-7.726 7.726z"/><path d="m154.752 330.429h-26.615c-4.267 0-7.726-3.459-7.726-7.726s3.459-7.726 7.726-7.726h26.615c4.267 0 7.726 3.459 7.726 7.726s-3.459 7.726-7.726 7.726z"/></g><g><path d="m353.128 274.356c-2.67 0-5.267-1.386-6.698-3.865-2.134-3.695-.868-8.421 2.828-10.554l13.605-7.855c3.693-2.132 8.421-.868 10.554 2.828 2.134 3.695.868 8.421-2.828 10.554l-13.605 7.855c-1.216.703-2.545 1.037-3.856 1.037z"/><path d="m145.274 394.361c-2.67 0-5.267-1.386-6.698-3.865-2.134-3.695-.868-8.42 2.828-10.554l13.605-7.855c3.695-2.132 8.421-.868 10.554 2.828 2.134 3.695.868 8.421-2.828 10.554l-13.605 7.855c-1.217.702-2.545 1.037-3.856 1.037z"/></g><g><path d="m312.064 233.306c-1.311 0-2.639-.334-3.856-1.037-3.696-2.134-4.962-6.859-2.828-10.554l7.855-13.605c2.133-3.696 6.859-4.963 10.554-2.828 3.696 2.134 4.962 6.859 2.828 10.554l-7.855 13.605c-1.431 2.479-4.028 3.865-6.698 3.865z"/><path d="m192.06 441.16c-1.311 0-2.639-.334-3.856-1.037-3.696-2.134-4.962-6.859-2.828-10.554l7.855-13.605c2.133-3.696 6.858-4.963 10.554-2.828 3.696 2.134 4.962 6.859 2.828 10.554l-7.855 13.605c-1.431 2.48-4.028 3.865-6.698 3.865z"/></g><g><path d="m199.929 233.306c-2.67 0-5.267-1.386-6.698-3.865l-7.855-13.605c-2.134-3.695-.868-8.42 2.828-10.554 3.694-2.133 8.42-.868 10.554 2.828l7.855 13.605c2.134 3.695.868 8.421-2.828 10.554-1.216.702-2.545 1.037-3.856 1.037z"/><path d="m319.933 441.16c-2.67 0-5.267-1.386-6.698-3.865l-7.855-13.605c-2.134-3.695-.868-8.421 2.828-10.554 3.694-2.133 8.421-.868 10.554 2.828l7.855 13.605c2.134 3.695.868 8.421-2.828 10.554-1.216.703-2.545 1.037-3.856 1.037z"/></g><g><path d="m158.865 274.356c-1.311 0-2.639-.334-3.856-1.037l-13.605-7.855c-3.696-2.134-4.962-6.859-2.828-10.554 2.133-3.696 6.859-4.962 10.554-2.828l13.605 7.855c3.696 2.134 4.962 6.859 2.828 10.554-1.431 2.479-4.028 3.865-6.698 3.865z"/><path d="m366.719 394.361c-1.311 0-2.639-.334-3.856-1.037l-13.605-7.855c-3.696-2.134-4.962-6.859-2.828-10.554 2.134-3.697 6.858-4.962 10.554-2.828l13.605 7.855c3.696 2.134 4.962 6.859 2.828 10.554-1.431 2.479-4.028 3.865-6.698 3.865z"/></g></g><path d="m255.996 462.874c-77.29 0-140.171-62.881-140.171-140.171s62.881-140.171 140.171-140.171 140.171 62.881 140.171 140.171-62.88 140.171-140.171 140.171zm0-264.889c-68.77 0-124.718 55.949-124.718 124.718s55.948 124.718 124.718 124.718 124.718-55.948 124.718-124.718-55.948-124.718-124.718-124.718z" fill="#ffd064"/></g><g><path d="m459.448 491.522v-74.495h20.373c24.735 0 40.194-26.777 27.825-48.197l-65.299-113.088c-12.367-21.418-43.281-21.419-55.649-.001l-65.306 113.088c-12.37 21.42 3.089 48.199 27.824 48.199h20.383v74.495c0 11.167 9.053 20.219 20.22 20.219h49.41c11.167-.001 20.219-9.053 20.219-20.22z" fill="#95d6a4"/><path d="m408.42 511.744h-18.604c-11.163 0-20.213-9.049-20.213-20.213v-74.508h-20.39c-24.735 0-40.195-26.772-27.817-48.197l65.296-113.086c6.184-10.707 17.006-16.055 27.827-16.055-7.249 0-14.499 5.348-18.635 16.055l-43.747 113.086c-8.294 21.424 2.068 48.197 18.635 48.197h8.377c8.683 0 15.722 7.039 15.722 15.722v58.775c.001 11.167 6.07 20.224 13.549 20.224z" fill="#78c2a4"/></g></g></svg>