<svg id="Capa_1" enable-background="new 0 0 511.483 511.483" height="512" viewBox="0 0 511.483 511.483" width="512" xmlns="http://www.w3.org/2000/svg"><g><path d="m373.87 378.953s-9.024 63.766-26.904 109.797c-5.318 13.691-18.465 22.733-33.153 22.733h-116.14c-14.688 0-27.835-9.042-33.153-22.733-17.88-46.031-26.904-109.797-26.904-109.797v-246.414s9.024-63.766 26.904-109.797c5.318-13.69 18.465-22.732 33.153-22.732h116.14c14.688 0 27.835 9.042 33.153 22.733 17.88 46.031 26.904 109.797 26.904 109.797" fill="#365e7d"/><path d="m213.158 511.483h-15.485c-14.693 0-27.832-9.044-33.152-22.739-17.882-46.034-26.906-109.795-26.906-109.795v-246.415s9.024-63.762 26.906-109.795c5.32-13.695 18.459-22.739 33.152-22.739h15.485c-10.773 0-20.414 9.044-24.313 22.739-13.108 46.034-19.724 109.795-19.724 109.795v246.414s6.616 63.761 19.724 109.795c3.899 13.695 13.54 22.74 24.313 22.74z" fill="#2b4d66"/><path d="m354.99 111.052c-66.165-5.109-132.329-5.109-198.494 0-24.634 1.902-44.167 21.436-46.07 46.07-5.109 66.165-5.109 132.33 0 198.495 1.902 24.634 21.436 44.167 46.069 46.07 66.165 5.11 132.33 5.11 198.494 0 24.634-1.902 44.167-21.436 46.069-46.07 5.109-66.165 5.109-132.33 0-198.495-1.901-24.634-21.434-44.168-46.068-46.07z" fill="#f6e266"/><path d="m160.781 402.003c-1.43-.103-2.86-.206-4.29-.319-24.632-1.904-44.171-21.432-46.064-46.064-5.114-66.169-5.114-132.328 0-198.498 1.893-24.632 21.432-44.161 46.064-46.064 1.43-.113 2.86-.216 4.29-.319-18.016 6.976-31.063 23.778-32.616 43.914-5.237 67.815-5.237 135.621 0 203.436 1.553 20.136 14.6 36.937 32.616 43.914z" fill="#ffd064"/><path d="m255.743 378.766c-32.243 0-64.942-1.263-97.187-3.752-11.542-.891-20.566-9.915-21.457-21.457-4.98-64.489-4.98-129.887 0-194.375.891-11.542 9.915-20.566 21.456-21.457 32.246-2.49 64.945-3.753 97.188-3.753 32.244 0 64.942 1.263 97.187 3.753 11.542.891 20.566 9.915 21.457 21.456 4.98 64.489 4.98 129.887 0 194.375-.891 11.542-9.915 20.566-21.457 21.457-32.245 2.491-64.943 3.753-97.187 3.753z" fill="#d3effb"/><path d="m160.383 360.694c.442 5.762 2.778 10.937 6.39 14.929-2.747-.195-5.484-.391-8.221-.607-11.534-.895-20.558-9.919-21.453-21.453-4.98-64.492-4.98-129.89 0-194.382.895-11.534 9.919-20.558 21.453-21.453 2.737-.216 5.474-.411 8.221-.607-3.611 3.992-5.947 9.168-6.39 14.929-5.351 69.226-5.351 139.418 0 208.644z" fill="#9dc6fb"/><g><path d="m255.743 202.173c-13.212 0-23.961-10.749-23.961-23.961s10.749-23.961 23.961-23.961 23.961 10.749 23.961 23.961-10.749 23.961-23.961 23.961zm0-32.485c-4.7 0-8.523 3.824-8.523 8.523 0 4.7 3.824 8.524 8.523 8.524 4.7 0 8.523-3.824 8.523-8.524 0-4.699-3.823-8.523-8.523-8.523z" fill="#ffd064"/><circle cx="216.023" cy="328.682" fill="#e7a561" r="21.179"/><path d="m223.173 348.618c-2.235.805-4.644 1.243-7.15 1.243-11.697 0-21.179-9.482-21.179-21.179s9.482-21.179 21.179-21.179c2.506 0 4.915.438 7.15 1.243-8.18 2.924-14.029 10.744-14.029 19.936s5.848 17.012 14.029 19.936z" fill="#e29375"/><path d="m255.743 328.682c28.938 0 50.006-2.711 65.021-6.084 21.228-4.77 23.476-34.171 3.25-42.188-.183-.072-.365-.144-.545-.214-7.378-2.857-12.495-9.672-12.979-17.569-.557-9.081-1.622-16.806-2.887-23.255-4.629-23.602-23.852-41.705-47.73-44.591-2.595-.314-4.129-.327-4.129-.327s-1.534.013-4.129.327c-23.878 2.886-43.101 20.989-47.73 44.591-1.265 6.449-2.33 14.174-2.887 23.255-.484 7.897-5.601 14.712-12.979 17.569-.181.07-.363.141-.545.214-20.226 8.017-17.978 37.419 3.25 42.188 15.013 3.374 36.081 6.084 65.019 6.084z" fill="#f6e266"/><path d="m255.741 194.45s-.676.013-1.816.348c-10.532 3.04-19.015 22.107-21.057 46.964-.554 6.796-1.024 14.931-1.269 24.496-.213 8.316-2.473 15.491-5.726 18.506-.077.071-.161.148-.238.225-8.135 7.691-8.026 34.113-.85 42.525-13.81-1.101-25.031-2.892-34.062-4.921-21.224-4.767-23.479-34.171-3.246-42.184.18-.077.361-.148.541-.213 7.382-2.86 12.496-9.675 12.979-17.572.56-9.082 1.623-16.805 2.886-23.253 4.631-23.607 23.852-41.707 47.73-44.593 2.595-.315 4.128-.328 4.128-.328z" fill="#ffd064"/></g></g></svg>