<svg id="Capa_1" enable-background="new 0 0 511.996 511.996" height="512" viewBox="0 0 511.996 511.996" width="512" xmlns="http://www.w3.org/2000/svg"><g><g><circle cx="279.444" cy="134.942" fill="#d3effb" r="127.192"/><path d="m301.668 260.291c-7.043 1.221-14.291 1.847-21.68 1.847-70.247 0-127.196-56.949-127.196-127.196s56.949-127.195 127.196-127.195c7.389 0 14.637.626 21.68 1.847-59.909 10.284-105.505 62.491-105.505 125.349s45.596 115.064 105.505 125.348z" fill="#9dc6fb"/><path d="m279.444 151.146h-59.093c-8.949 0-16.203-7.255-16.203-16.203s7.255-16.203 16.203-16.203h59.093c8.949 0 0 7.255 0 16.203s0 10.861 0 16.203z" fill="#365e7d"/><path d="m279.444 151.146c-8.949 0-16.203-7.255-16.203-16.203v-41.374c0-8.949 7.255-16.203 16.203-16.203s16.203 7.255 16.203 16.203v41.374c0 8.948-7.255 16.203-16.203 16.203z" fill="#2b4d66"/><g fill="#365e7d"><g><path d="m279.444 45.152c-4.281 0-7.751-3.47-7.751-7.751v-25.64c0-4.281 3.47-7.751 7.751-7.751s7.751 3.47 7.751 7.751v25.641c0 4.28-3.47 7.75-7.751 7.75z"/><path d="m279.444 265.875c-4.281 0-7.751-3.47-7.751-7.751v-25.641c0-4.281 3.47-7.751 7.751-7.751s7.751 3.47 7.751 7.751v25.641c0 4.281-3.47 7.751-7.751 7.751z"/></g><g><path d="m402.626 142.693h-25.641c-4.281 0-7.751-3.47-7.751-7.751s3.47-7.751 7.751-7.751h25.641c4.281 0 7.751 3.47 7.751 7.751s-3.47 7.751-7.751 7.751z"/><path d="m181.903 142.693h-25.641c-4.281 0-7.751-3.47-7.751-7.751s3.47-7.751 7.751-7.751h25.641c4.281 0 7.751 3.47 7.751 7.751s-3.47 7.751-7.751 7.751z"/></g><g><path d="m373.022 88.671c-2.678 0-5.284-1.39-6.719-3.877-2.141-3.707-.87-8.447 2.837-10.588l13.108-7.567c3.705-2.14 8.448-.87 10.588 2.837 2.141 3.707.87 8.447-2.837 10.588l-13.108 7.567c-1.22.705-2.554 1.04-3.869 1.04z"/><path d="m172.773 204.286c-2.678 0-5.283-1.39-6.719-3.877-2.141-3.707-.87-8.447 2.837-10.588l13.107-7.567c3.706-2.14 8.446-.871 10.588 2.837 2.141 3.707.87 8.447-2.837 10.588l-13.107 7.567c-1.221.704-2.554 1.04-3.869 1.04z"/></g><g><path d="m333.46 49.123c-1.315 0-2.648-.335-3.868-1.04-3.707-2.141-4.977-6.881-2.837-10.588l7.568-13.107c2.141-3.707 6.881-4.977 10.588-2.837 3.707 2.141 4.977 6.881 2.837 10.588l-7.568 13.107c-1.437 2.487-4.041 3.877-6.72 3.877z"/><path d="m217.846 249.373c-1.315 0-2.647-.335-3.868-1.04-3.707-2.14-4.977-6.88-2.837-10.588l7.567-13.107c2.14-3.707 6.879-4.978 10.588-2.837 3.707 2.14 4.977 6.88 2.837 10.588l-7.567 13.107c-1.436 2.487-4.041 3.877-6.72 3.877z"/></g><g><path d="m225.427 49.123c-2.678 0-5.284-1.39-6.719-3.877l-7.567-13.107c-2.141-3.707-.87-8.447 2.837-10.588 3.706-2.139 8.448-.87 10.588 2.837l7.567 13.107c2.141 3.707.87 8.447-2.837 10.588-1.221.705-2.554 1.04-3.869 1.04z"/><path d="m341.042 249.373c-2.678 0-5.283-1.39-6.719-3.876l-7.568-13.107c-2.141-3.707-.871-8.447 2.837-10.588 3.706-2.14 8.446-.871 10.588 2.837l7.568 13.107c2.141 3.707.871 8.447-2.837 10.588-1.22.704-2.554 1.039-3.869 1.039z"/></g><g><path d="m185.865 88.671c-1.315 0-2.648-.335-3.868-1.04l-13.107-7.567c-3.707-2.14-4.977-6.881-2.837-10.588s6.882-4.978 10.588-2.837l13.107 7.567c3.707 2.14 4.977 6.881 2.837 10.588-1.436 2.487-4.041 3.877-6.72 3.877z"/><path d="m386.116 204.286c-1.315 0-2.647-.335-3.868-1.039l-13.108-7.567c-3.707-2.14-4.977-6.881-2.837-10.588 2.14-3.708 6.879-4.978 10.588-2.837l13.108 7.567c3.707 2.14 4.977 6.881 2.837 10.588-1.436 2.485-4.042 3.876-6.72 3.876z"/></g></g><path d="m279.444 269.885c-74.408 0-134.943-60.535-134.943-134.943.001-74.407 60.535-134.942 134.943-134.942s134.943 60.535 134.943 134.942c0 74.408-60.535 134.943-134.943 134.943zm0-254.384c-65.86 0-119.441 53.581-119.441 119.441s53.581 119.441 119.441 119.441 119.441-53.581 119.441-119.441c0-65.859-53.581-119.441-119.441-119.441z" fill="#e7a561"/></g><g><path d="m231.388 343.71 130.829-75.881c15.316-9.287 35.155-5.68 46.222 8.404 10.655 13.561 9.995 32.825-1.562 45.625l-145.398 62.408z" fill="#eaac9d"/><path d="m285.582 346.921 130.829-75.881c15.316-9.287 35.155-5.68 46.222 8.404 10.655 13.561 9.995 32.825-1.562 45.625l-145.398 62.408z" fill="#ffcbbe"/><path d="m509.044 315.123c0 8.523-3.055 17.016-9.124 23.736l-24.184 26.781-49.632 54.968c-8.269 9.154-19.521 15.03-31.73 16.588l-224.096 28.543s-78.575-90.33-78.616-90.401l-16.34-74.685 52.707-40.467c24.561-18.869 52.259-33.095 81.728-42.086 1.252-.387 2.495-.764 3.747-1.11 8.941-2.576 18.044-4.684 27.26-6.293l9.134-1.589c18.859-3.279 36.923 9.042 40.742 27.799.489 2.352.723 4.725.723 7.077 0 11.273-5.397 22.046-14.786 28.767l-58.155 41.669 155.901 19.48 80.934-49.072c15.305-9.277 35.152-5.672 46.21 8.411 5.072 6.446 7.577 14.175 7.577 21.884z" fill="#ffddce"/><g fill="#ffcbbe"><path d="m240.764 210.697c-68.552 20.04-123.275 93.856-144.557 126.279l-20.885-10.284v-26.039l52.707-40.467c24.561-18.869 52.259-33.095 81.728-42.086 1.252-.387 2.495-.764 3.747-1.11 8.941-2.577 18.045-4.685 27.26-6.293z"/><path d="m475.731 365.641-49.63 54.971c-8.262 9.147-19.514 15.029-31.73 16.583l-224.093 28.543-32.583-29.215-24.67-70.32c67.728 114.573 335.57 29.496 362.706-.562z"/><path d="m108.697 358.668c.964 1.633 1.918 3.295 2.872 5.006z"/></g><path d="m170.278 465.735-72.37 46.261-45.161-78.5-49.795-86.575 72.37-46.262 54.367 94.508z" fill="#9dc6fb"/><path d="m170.278 465.735-72.37 46.261-45.161-78.5c51.801 4.063 76.942-38.329 76.942-38.329z" fill="#698ed5"/><circle cx="113.796" cy="455.788" fill="#f9f6f9" r="15.577"/></g><g fill="#f6e266"><path d="m135.85 47.343-1.026 1.776c-3.617 6.265-11.468 8.66-17.966 5.48l-19.987-9.781c-7.159-3.503-9.854-12.338-5.868-19.24l2.548-4.414c3.985-6.903 12.983-8.986 19.597-4.538l18.464 12.419c6.004 4.037 7.855 12.033 4.238 18.298z"/><path d="m422.099 180.816 1.026-1.776c3.617-6.265 11.468-8.66 17.966-5.48l19.987 9.781c7.159 3.504 9.854 12.338 5.868 19.24l-2.548 4.414c-3.985 6.903-12.983 8.986-19.597 4.538l-18.464-12.419c-6.003-4.037-7.855-12.033-4.238-18.298z"/><path d="m117.693 113.054v2.051c0 7.234-5.602 13.233-12.819 13.728l-22.2 1.523c-7.952.545-14.702-5.758-14.702-13.728v-5.097c0-7.97 6.75-14.274 14.702-13.728l22.2 1.523c7.218.495 12.819 6.494 12.819 13.728z"/><path d="m440.256 115.105v-2.051c0-7.234 5.602-13.233 12.819-13.728l22.2-1.523c7.952-.545 14.702 5.758 14.702 13.728v5.097c0 7.97-6.75 14.274-14.702 13.728l-22.2-1.523c-7.217-.495-12.819-6.493-12.819-13.728z"/><path d="m134.825 179.04 1.026 1.776c3.617 6.265 1.766 14.261-4.237 18.298l-18.464 12.419c-6.614 4.448-15.611 2.365-19.597-4.538l-2.548-4.414c-3.985-6.903-1.291-15.737 5.868-19.24l19.987-9.781c6.497-3.18 14.348-.785 17.965 5.48z"/><path d="m423.125 49.119-1.026-1.776c-3.617-6.265-1.766-14.261 4.237-18.298l18.464-12.419c6.614-4.448 15.611-2.365 19.597 4.538l2.548 4.414c3.985 6.903 1.291 15.737-5.868 19.24l-19.987 9.781c-6.497 3.18-14.348.786-17.965-5.48z"/></g></g></svg>