<svg id="Capa_1" enable-background="new 0 0 512 512" height="512" viewBox="0 0 512 512" width="512" xmlns="http://www.w3.org/2000/svg"><g><path d="m256 0c-118.546 0-214.646 96.1-214.646 214.645 0 84.312 3.697 241.153 35.461 241.153s27.599-68.969 64.971-52.783c37.372 16.187 18.128 108.985 65.652 108.985s39.681-56.201 71.704-56.201 37.098 33.982 77.039 33.982 24.458-75.072 58.339-75.072 56.125 14.583 56.125-200.064c.001-118.545-96.099-214.645-214.645-214.645z" fill="#f6e266"/><path d="m253.922.017c-87.947 1.484-158.895 97.012-158.895 214.628 0 61.131 1.452 160.41 11.332 210.364-7.283 14.783-14.248 30.792-29.546 30.792-31.76 0-35.459-156.845-35.459-241.156 0-117.842 94.973-213.515 212.568-214.628z" fill="#ffd064"/><path d="m420.048 214.648c0 193.427-38.632 158.484-61.172 158.484-22.551 0-17.647 50.829-55.146 50.829-37.509 0-62.161-45.956-78.17-45.956-9.261 0-15.741 7.366-23.911 12.929-5.954 4.049-12.815 7.139-22.314 5.728-11.765-1.762-19.203-15.865-25.033-30.875-5.831-15.01-10.065-30.916-15.453-36.314-10.776-10.776-18.183 5.491-32.976 5.491-14.804 0-13.928-65.736-13.928-120.315 0-90.604 73.452-164.057 164.057-164.057 9.663 0 19.12.835 28.32 2.442 77.108 13.412 135.726 80.662 135.726 161.614z" fill="#d3effb"/><path d="m201.628 390.933h.021c-5.954 4.049-12.815 7.139-22.314 5.728-11.765-1.762-19.203-15.865-25.033-30.875-5.831-15.01-10.065-30.916-15.453-36.314-10.776-10.776-18.183 5.491-32.976 5.491-14.804 0-13.928-65.736-13.928-120.315 0-90.604 73.452-164.057 164.057-164.057 9.663 0 19.12.835 28.32 2.442-77.099 13.403-135.737 80.663-135.737 161.615 0 38.889 1.483 91.996 21.582 91.996s5.573 84.289 31.461 84.289z" fill="#9dc6fb"/><path d="m235.102 193.746h-55.327c-11.536 0-20.899 9.363-20.899 20.899s9.363 20.899 20.899 20.899c16.374 0 18.334 26.815 34.018 26.815s22.983-26.815 42.206-26.815h.001z" fill="#365e7d"/><path d="m256 235.544c-11.542 0-20.899-9.357-20.899-20.899v-53.364c0-11.542 9.357-20.899 20.899-20.899s20.899 9.357 20.899 20.899v53.364c0 11.543-9.357 20.899-20.899 20.899z" fill="#2b4d66"/><g fill="#365e7d"><path d="m256 93.02c-4.267 0-7.726-3.459-7.726-7.726v-34.004c0-4.267 3.459-7.726 7.726-7.726s7.726 3.459 7.726 7.726v34.003c0 4.268-3.459 7.727-7.726 7.727z"/><path d="m256 406.331c-4.267 0-7.726-3.459-7.726-7.726v-34.003c0-4.267 3.459-7.726 7.726-7.726s7.726 3.459 7.726 7.726v34.003c0 4.267-3.459 7.726-7.726 7.726z"/><path d="m385.349 253.279c-3.315 0-6.38-2.151-7.391-5.488-1.237-4.084 1.07-8.398 5.154-9.635l34.004-10.302c4.081-1.239 8.397 1.07 9.635 5.154 1.237 4.084-1.07 8.398-5.154 9.635l-34.004 10.302c-.747.227-1.502.334-2.244.334z"/><path d="m126.651 232.676c-.742 0-1.496-.108-2.243-.334l-34.004-10.302c-4.084-1.237-6.391-5.551-5.154-9.635s5.55-6.393 9.635-5.154l34.004 10.302c4.084 1.237 6.391 5.551 5.154 9.635-1.012 3.337-4.076 5.488-7.392 5.488z"/><path d="m380.095 150.731c-2.67 0-5.267-1.386-6.698-3.865-2.134-3.695-.868-8.421 2.828-10.554l17.381-10.035c3.695-2.133 8.42-.868 10.554 2.828 2.134 3.695.868 8.421-2.828 10.554l-17.381 10.035c-1.216.703-2.545 1.037-3.856 1.037z"/><path d="m114.537 304.051c-2.67 0-5.267-1.386-6.698-3.865-2.134-3.695-.868-8.421 2.828-10.554l17.381-10.035c3.695-2.134 8.421-.868 10.554 2.828 2.134 3.695.868 8.421-2.828 10.554l-17.381 10.035c-1.216.703-2.545 1.037-3.856 1.037z"/><path d="m327.635 98.285c-1.311 0-2.639-.334-3.856-1.037-3.696-2.133-4.962-6.859-2.828-10.554l10.035-17.381c2.133-3.696 6.859-4.963 10.554-2.828 3.696 2.133 4.962 6.859 2.828 10.554l-10.034 17.381c-1.431 2.479-4.029 3.865-6.699 3.865z"/><path d="m174.315 363.843c-1.311 0-2.639-.334-3.856-1.037-3.696-2.133-4.962-6.859-2.828-10.554l10.035-17.382c2.134-3.696 6.858-4.963 10.554-2.828 3.696 2.133 4.962 6.859 2.828 10.554l-10.035 17.382c-1.431 2.479-4.028 3.865-6.698 3.865z"/><path d="m184.365 98.285c-2.67 0-5.267-1.386-6.698-3.865l-10.035-17.381c-2.134-3.695-.868-8.421 2.828-10.554 3.695-2.134 8.421-.868 10.554 2.828l10.035 17.381c2.134 3.695.868 8.421-2.828 10.554-1.217.703-2.546 1.037-3.856 1.037z"/><path d="m337.685 394.419c-2.67 0-5.267-1.386-6.698-3.865l-10.035-17.381c-2.134-3.695-.868-8.421 2.828-10.554s8.421-.868 10.554 2.828l10.035 17.381c2.134 3.695.868 8.421-2.828 10.554-1.217.703-2.545 1.037-3.856 1.037z"/><path d="m131.905 150.731c-1.311 0-2.639-.334-3.856-1.037l-17.381-10.035c-3.696-2.133-4.962-6.859-2.828-10.554 2.133-3.697 6.859-4.962 10.554-2.828l17.381 10.035c3.696 2.133 4.962 6.859 2.828 10.554-1.431 2.479-4.028 3.865-6.698 3.865z"/><path d="m386.696 342.455c-2.152 0-4.292-.893-5.82-2.641l-13.21-15.11c-2.808-3.213-2.481-8.094.731-10.902 3.213-2.808 8.094-2.481 10.902.731l13.21 15.11c2.808 3.213 2.481 8.094-.731 10.902-1.465 1.282-3.278 1.91-5.082 1.91z"/></g><path d="m303.73 431.687c-25.736 0-45.633-18.601-60.161-32.183-6.218-5.813-14.733-13.774-18.01-13.774-4.128 0-7.774 2.663-13.382 7.008-1.953 1.513-3.972 3.077-6.18 4.581-5.761 3.917-14.907 8.9-27.798 6.984-16.116-2.413-24.765-19.41-31.1-35.719-1.691-4.354-3.223-8.701-4.705-12.906-2.992-8.49-6.384-18.113-9.014-20.748-2.002-2.001-2.12-2.122-8.304 1.433-4.905 2.818-11.01 6.326-19.203 6.326-14.44 0-18.119-20.755-19.944-43.183-1.761-21.646-1.738-49.37-1.716-76.181l.005-8.678c0-94.722 77.062-171.783 171.783-171.783 9.962 0 19.938.86 29.649 2.557 39.351 6.845 75.342 27.475 101.339 58.091 26.3 30.971 40.784 70.44 40.784 111.136 0 95.18-8.882 145.053-28.801 161.709-11.142 9.318-23.344 7.125-32.254 5.523-2.923-.525-5.683-1.022-7.844-1.022-4.478 0-7.438 5.192-12.68 16.212-6.946 14.609-16.463 34.617-42.464 34.617zm-78.17-61.409c9.375 0 17.843 7.916 28.562 17.939 13.352 12.482 29.969 28.018 49.608 28.018 15.146 0 20.876-9.747 28.511-25.802 5.58-11.731 11.904-25.027 26.634-25.027 3.539 0 7.118.643 10.578 1.266 8.714 1.567 14.381 2.202 19.607-2.168 15.435-12.907 23.261-63.326 23.261-149.855 0-37.035-13.18-72.952-37.11-101.134-23.663-27.866-56.412-46.641-92.214-52.869-8.842-1.545-17.922-2.327-26.996-2.327-86.201 0-156.33 70.129-156.33 156.33l-.005 8.691c-.02 23.938-.04 48.692 1.227 68.816 1.626 25.821 4.9 33.134 6.146 35.026 3.602-.346 6.883-2.231 10.337-4.216 6.15-3.534 16.443-9.449 26.936 1.044 5.108 5.118 8.439 14.568 12.656 26.532 1.442 4.091 2.933 8.321 4.536 12.447 4.106 10.57 10.54 24.768 18.976 26.031 7.384 1.099 12.452-1.502 16.824-4.476 1.812-1.234 3.559-2.588 5.409-4.021 6.198-4.802 13.225-10.245 22.847-10.245z" fill="#ffd064"/></g></svg>