<svg id="Capa_1" enable-background="new 0 0 512 512" height="512" viewBox="0 0 512 512" width="512" xmlns="http://www.w3.org/2000/svg"><g><g><path d="m291.175 287.005c.034 17.026 29.396 36.445 46.421 36.445h131.774c13.701 0 24.808-11.108 24.808-24.816 0-6.85-2.769-13.06-7.258-17.55-4.49-4.49-10.7-7.266-17.55-7.266h8.907c13.701 0 24.816-11.1 24.816-24.816 0-6.858-2.769-13.052-7.274-17.55-4.482-4.49-10.684-7.258-17.542-7.258h8.915c13.533 0 24.536-10.844 24.8-24.32.28-13.925-11.436-25.313-25.361-25.313h-8.355c13.701 0 24.816-11.108 24.816-24.824 0-6.858-2.769-13.052-7.274-17.55-4.482-4.49-10.684-7.258-17.542-7.258h-69.795c-.099-.156-.129-.204-.229-.36l27.217-57.98c7.723-16.438.648-36.02-15.789-43.743-4.514-2.121-9.267-3.121-13.949-3.121-12.356 0-24.192 6.994-29.794 18.918l-11.636 24.792c-6.874 14.637-17.886 27.009-31.827 35.188-9.203 5.394-16.87 13.621-21.551 24.152-3.193 7.186-4.626 14.757-4.49 22.192l-38.591 77.376z" fill="#ffddce"/><g fill="#ffcbbe"><path d="m429.853 30.279c-1.12-.12-2.241-.176-3.361-.176-12.356 0-24.192 6.994-29.794 18.918l-11.636 24.792c-6.874 14.637-17.886 27.009-31.827 35.188-9.203 5.394-42.31 13.773-43.535 76.49-.096 4.898-1.865 9.419-3.161 13.933l-24.959-27.837 24.855-26.621c-.136-7.435 1.297-15.005 4.49-22.192 4.681-10.532 12.348-18.758 21.551-24.152 13.941-8.179 24.952-20.551 31.827-35.188l11.636-24.792c5.602-11.924 17.438-18.918 29.794-18.918 4.682 0 9.435 1 13.949 3.121 3.961 1.856 7.378 4.409 10.171 7.434z"/><path d="m494.179 298.634c0 13.709-11.108 24.816-24.808 24.816h-135.215c-14.309 0-27.577-6.914-35.788-18.278h171.002c10.476 0 19.431-6.49 23.072-15.677.008.008.008.024.024.032 0 0-.008.008 0 .008 1.104 2.817 1.713 5.89 1.713 9.099z"/><path d="m501.342 239.861c1.121 2.83 1.743 5.912 1.743 9.138 0 13.715-11.107 24.821-24.811 24.821h-9.509c-5.047 0-9.139-4.092-9.139-9.139 0-5.047 4.092-9.139 9.139-9.139h9.509c10.478 0 19.43-6.495 23.068-15.681z"/><path d="m510.257 190.23c1.121 2.83 1.743 5.912 1.743 9.138 0 13.715-11.107 24.821-24.811 24.821h-9.509c-5.047 0-9.139-4.092-9.139-9.139 0-5.047 4.092-9.139 9.139-9.139h9.509c10.477 0 19.43-6.495 23.068-15.681z"/><path d="m501.353 140.598c1.121 2.83 1.743 5.912 1.743 9.138 0 13.715-11.107 24.821-24.811 24.821h-9.509c-5.047 0-9.139-4.092-9.139-9.139 0-5.047 4.092-9.139 9.139-9.139h9.509c10.477 0 19.43-6.495 23.068-15.681z"/></g><path d="m229.251 144.965v154.753c0 10.733 8.701 19.434 19.434 19.434h38.318c10.733 0 19.434-8.701 19.434-19.434v-154.753c0-10.733-8.701-19.434-19.434-19.434h-38.318c-10.733.001-19.434 8.701-19.434 19.434z" fill="#95d6a4"/><path d="m229.246 250.975v48.749c0 10.732 8.707 19.429 19.439 19.429h38.318c10.733 0 19.429-8.696 19.429-19.429v-48.749c0 10.733-8.696 19.439-19.429 19.439h-38.318c-10.732 0-19.439-8.707-19.439-19.439z" fill="#78c2a4"/></g><g fill="#f6e266"><path d="m220.821 58.619-1.973.529c-6.958 1.864-14.171-1.977-16.507-8.791l-7.185-20.958c-2.574-7.507 1.749-15.624 9.414-17.678l4.902-1.313c7.666-2.054 15.467 2.814 16.992 10.602l4.256 21.743c1.385 7.068-2.941 14.001-9.899 15.866z"/><path d="m161.774 92.099-1.444 1.444c-5.093 5.093-13.261 5.373-18.69.64l-16.702-14.558c-5.982-5.214-6.297-14.405-.686-20.016l3.588-3.588c5.612-5.612 14.802-5.297 20.016.686l14.558 16.702c4.733 5.429 4.453 13.597-.64 18.69z"/><path d="m127.378 150.617-.529 1.973c-1.864 6.958-8.797 11.283-15.866 9.9l-21.743-4.256c-7.788-1.525-12.656-9.326-10.602-16.992l1.313-4.902c2.054-7.666 10.171-11.988 17.678-9.414l20.958 7.185c6.814 2.336 10.655 9.549 8.791 16.506z"/></g><g><circle cx="142.913" cy="359.15" fill="#d3effb" r="134.705"/><path d="m166.45 491.903c-7.459 1.293-15.136 1.956-22.961 1.956-74.396.001-134.709-60.312-134.709-134.709s60.313-134.709 134.71-134.709c7.825 0 15.502.663 22.961 1.956-63.449 10.892-111.738 66.182-111.738 132.753s48.289 121.862 111.737 132.753z" fill="#9dc6fb"/><path d="m142.913 376.311h-62.583c-9.477 0-17.16-7.683-17.16-17.16s7.683-17.16 17.16-17.16h62.584c9.477 0 0 7.683 0 17.16-.001 9.477-.001 11.502-.001 17.16z" fill="#365e7d"/><path d="m142.913 376.311c-9.477 0-17.16-7.683-17.16-17.16v-43.818c0-9.477 7.683-17.16 17.16-17.16s17.16 7.683 17.16 17.16v43.818c.001 9.477-7.682 17.16-17.16 17.16z" fill="#2b4d66"/><g fill="#365e7d"><g><path d="m142.914 264.056c-4.534 0-8.209-3.675-8.209-8.209v-27.155c0-4.533 3.675-8.209 8.209-8.209s8.209 3.675 8.209 8.209v27.155c-.001 4.534-3.675 8.209-8.209 8.209z"/><path d="m142.914 497.817c-4.534 0-8.209-3.675-8.209-8.209v-27.156c0-4.533 3.675-8.209 8.209-8.209s8.209 3.675 8.209 8.209v27.156c-.001 4.534-3.675 8.209-8.209 8.209z"/></g><g><path d="m273.371 367.359h-27.156c-4.534 0-8.209-3.675-8.209-8.209 0-4.533 3.675-8.209 8.209-8.209h27.156c4.534 0 8.209 3.675 8.209 8.209s-3.675 8.209-8.209 8.209z"/><path d="m39.611 367.359h-27.156c-4.533 0-8.209-3.675-8.209-8.209 0-4.533 3.675-8.209 8.209-8.209h27.156c4.534 0 8.209 3.675 8.209 8.209-.001 4.534-3.675 8.209-8.209 8.209z"/></g><g><path d="m242.02 310.145c-2.837 0-5.596-1.472-7.116-4.106-2.267-3.926-.921-8.946 3.004-11.213l13.882-8.014c3.924-2.266 8.947-.922 11.213 3.005 2.267 3.926.921 8.946-3.004 11.213l-13.882 8.014c-1.293.747-2.705 1.101-4.097 1.101z"/><path d="m29.941 432.59c-2.837 0-5.595-1.472-7.116-4.106-2.267-3.926-.921-8.946 3.004-11.213l13.881-8.014c3.925-2.266 8.945-.922 11.213 3.004 2.267 3.926.921 8.946-3.004 11.213l-13.881 8.014c-1.292.747-2.704 1.102-4.097 1.102z"/></g><g><path d="m200.121 268.261c-1.393 0-2.805-.355-4.097-1.101-3.926-2.267-5.271-7.287-3.004-11.213l8.015-13.881c2.267-3.926 7.287-5.271 11.213-3.004s5.271 7.287 3.004 11.213l-8.015 13.881c-1.521 2.633-4.28 4.105-7.116 4.105z"/><path d="m77.677 480.34c-1.393 0-2.804-.355-4.097-1.101-3.926-2.266-5.271-7.287-3.004-11.213l8.014-13.881c2.266-3.926 7.285-5.272 11.213-3.004 3.926 2.266 5.271 7.287 3.004 11.213l-8.014 13.881c-1.52 2.633-4.279 4.105-7.116 4.105z"/></g><g><path d="m85.706 268.261c-2.837 0-5.596-1.472-7.116-4.106l-8.014-13.881c-2.267-3.926-.921-8.946 3.004-11.213 3.925-2.266 8.947-.922 11.213 3.005l8.014 13.881c2.267 3.926.921 8.946-3.004 11.213-1.292.747-2.704 1.101-4.097 1.101z"/><path d="m208.151 480.34c-2.837 0-5.595-1.472-7.116-4.105l-8.015-13.881c-2.267-3.926-.922-8.946 3.004-11.213 3.925-2.267 8.945-.922 11.213 3.004l8.015 13.881c2.267 3.926.922 8.946-3.004 11.213-1.293.747-2.705 1.101-4.097 1.101z"/></g><g><path d="m43.807 310.145c-1.393 0-2.805-.355-4.097-1.101l-13.881-8.014c-3.926-2.267-5.271-7.287-3.004-11.213 2.266-3.926 7.288-5.272 11.213-3.004l13.881 8.014c3.926 2.267 5.271 7.287 3.004 11.213-1.52 2.633-4.279 4.105-7.116 4.105z"/><path d="m255.887 432.59c-1.393 0-2.804-.355-4.097-1.101l-13.882-8.014c-3.926-2.267-5.271-7.287-3.004-11.213 2.266-3.927 7.285-5.272 11.213-3.005l13.882 8.014c3.926 2.267 5.271 7.287 3.004 11.213-1.52 2.633-4.28 4.106-7.116 4.106z"/></g></g><path d="m142.914 502.064c-78.804 0-142.914-64.111-142.914-142.914s64.11-142.914 142.914-142.914 142.914 64.111 142.914 142.914-64.111 142.914-142.914 142.914zm0-269.41c-69.75 0-126.497 56.746-126.497 126.496s56.746 126.497 126.497 126.497 126.496-56.746 126.496-126.497c0-69.75-56.746-126.496-126.496-126.496z" fill="#e7a561"/></g></g></svg>