<svg id="Capa_1" enable-background="new 0 0 511.79 511.79" height="512" viewBox="0 0 511.79 511.79" width="512" xmlns="http://www.w3.org/2000/svg"><g><path d="m291.783 505.114c-78.155 8.272-156.309 8.272-234.464 0-28.034-2.967-49.872-25.651-51.668-53.784-7.534-118.031-7.534-236.063 0-354.094 1.796-28.134 23.635-50.818 51.669-53.785 78.155-8.272 156.309-8.272 234.464 0 28.034 2.967 49.872 25.651 51.668 53.784 7.534 118.031 7.534 236.063 0 354.094-1.796 28.134-23.635 50.818-51.669 53.785z" fill="#365e7d"/><path d="m314.447 420.93c-1.488 23.303-19.573 42.094-42.79 44.555-64.739 6.849-129.478 6.849-194.207 0-23.227-2.461-41.312-21.252-42.8-44.555-6.238-97.762-6.238-195.533 0-293.294 1.488-23.303 19.573-42.094 42.8-44.555 7.574-.801 15.138-1.507 22.712-2.118 2.623 10.254 11.389 18.047 22.244 19.201 34.759 3.672 69.527 3.672 104.286 0 10.855-1.154 19.621-8.947 22.244-19.201 7.574.61 15.147 1.316 22.721 2.118 23.217 2.461 41.302 21.252 42.79 44.555 6.247 97.761 6.247 195.532 0 293.294z" fill="#f9f6f9"/><path d="m49.129 503.649c-23.999-6.086-41.865-26.994-43.477-52.319-7.535-118.031-7.535-236.062 0-354.094 1.612-25.326 19.478-46.234 43.477-52.32-14.537 10.187-24.295 26.603-25.497 45.356-7.831 122.677-7.831 245.344 0 368.02 1.202 18.753 10.96 35.169 25.497 45.357z" fill="#2b4d66"/><path d="m209.761 77.292h-70.418c-4.204 0-7.612-3.408-7.612-7.612s3.408-7.612 7.612-7.612h70.418c4.204 0 7.612 3.408 7.612 7.612-.001 4.204-3.409 7.612-7.612 7.612z" fill="#2b4d66"/><g><path d="m254.409 150.863c-53.238-4.864-106.477-4.864-159.715 0-9.519.87-17.061 8.411-17.93 17.93-4.864 53.239-4.864 106.476 0 159.715.87 9.519 8.411 17.061 17.93 17.93 53.238 4.864 106.477 4.864 159.715 0 9.519-.87 17.061-8.411 17.93-17.93 4.864-53.239 4.864-106.476 0-159.715-.869-9.519-8.411-17.06-17.93-17.93z" fill="#95d6a4"/><g><path d="m174.552 296.659c-57.515-21.11-64.255-65.993-53.654-84.094 7.317-12.493 24.201-15.427 38.025-7.563.016.009.035.019.051.03.128.072.258.147.386.223.019.009.037.021.056.033 6.011 3.549 11.408 9.165 15.136 16.952 10.333-21.573 33.466-26.486 46.975-16.952 2.655 1.873 4.938 4.305 6.679 7.277 10.6 18.1 3.861 62.983-53.654 84.094z" fill="#dd636e"/><path d="m174.552 296.659c-57.515-21.11-64.255-65.993-53.654-84.094 7.317-12.493 24.201-15.427 38.025-7.563-14.552-8.001-36.956 24.378-19.316 50.715 13.69 20.44 34.945 40.942 34.945 40.942z" fill="#cb5769"/></g><g fill="#365e7d"><path d="m216.599 384.839h-131.651c-4.204 0-7.612-3.408-7.612-7.612s3.408-7.612 7.612-7.612h131.651c4.204 0 7.612 3.408 7.612 7.612s-3.408 7.612-7.612 7.612z"/><path d="m172.733 411.98h-87.785c-4.204 0-7.612-3.408-7.612-7.612s3.408-7.612 7.612-7.612h87.784c4.204 0 7.612 3.408 7.612 7.612s-3.408 7.612-7.611 7.612z"/></g></g><g><path d="m273.146 465.304c-.489.072-.988.132-1.487.183-64.74 6.843-129.48 6.843-194.21 0-.499-.051-.998-.112-1.487-.183.244-3.137.519-6.284.805-9.42.866-9.522 8.412-17.068 17.924-17.934 53.242-4.868 106.485-4.868 159.717 0 9.522.866 17.058 8.412 17.934 17.934.285 3.136.56 6.283.804 9.42z" fill="#f6e266"/></g><path d="m174.548 478.209c-32.711 0-65.42-1.718-97.9-5.155-27.01-2.862-47.867-24.579-49.596-51.639-6.23-97.63-6.23-196.635 0-294.264 1.728-27.061 22.585-48.778 49.595-51.64 7.627-.807 15.332-1.525 22.902-2.135 3.693-.299 7.067 2.109 7.986 5.7 1.864 7.287 8.164 12.721 15.675 13.519 34.064 3.599 68.613 3.598 102.681 0 7.507-.798 13.806-6.231 15.67-13.518.919-3.59 4.293-5.995 7.986-5.7 7.596.612 15.304 1.331 22.91 2.135 27.005 2.862 47.858 24.58 49.586 51.639 6.239 97.63 6.239 196.635 0 294.265v-.001c-1.728 27.059-22.581 48.777-49.585 51.639-32.485 3.437-65.198 5.155-97.91 5.155zm-79.501-389.18c-5.583.487-11.212 1.029-16.797 1.62-19.608 2.077-34.751 17.836-36.005 37.471-6.189 96.986-6.189 195.338 0 292.325 1.254 19.634 16.397 35.393 36.006 37.47 63.896 6.761 128.697 6.761 192.604 0 19.603-2.078 34.742-17.837 35.995-37.471 6.198-96.986 6.198-195.338 0-292.323-1.254-19.634-16.393-35.393-35.997-37.472-5.575-.59-11.205-1.132-16.805-1.62-4.949 10.229-14.968 17.471-26.553 18.703-35.135 3.713-70.76 3.712-105.89 0-11.588-1.231-21.608-8.474-26.558-18.703z" fill="#2b4d66"/><g><circle cx="379.735" cy="132.527" fill="#d3effb" r="124.47"/><path d="m401.483 255.193c-6.892 1.195-13.986 1.808-21.216 1.808-68.743 0-124.474-55.73-124.474-124.474s55.731-124.474 124.474-124.474c7.231 0 14.324.613 21.216 1.808-58.627 10.064-103.247 61.153-103.247 122.666s44.62 112.602 103.247 122.666z" fill="#9dc6fb"/><path d="m379.735 148.383h-57.828c-8.757 0-15.857-7.099-15.857-15.857s7.099-15.857 15.857-15.857h57.828c8.757 0 0 7.099 0 15.857s0 10.63 0 15.857z" fill="#365e7d"/><path d="m379.735 148.383c-8.757 0-15.857-7.099-15.857-15.857v-40.488c0-8.757 7.099-15.857 15.857-15.857s15.857 7.099 15.857 15.857v40.488c-.001 8.758-7.1 15.857-15.857 15.857z" fill="#2b4d66"/><g fill="#365e7d"><g><path d="m379.735 44.658c-4.189 0-7.585-3.396-7.585-7.585v-25.092c0-4.189 3.395-7.585 7.585-7.585s7.585 3.396 7.585 7.585v25.092c0 4.189-3.395 7.585-7.585 7.585z"/><path d="m379.735 260.658c-4.189 0-7.585-3.396-7.585-7.585v-25.093c0-4.189 3.395-7.585 7.585-7.585s7.585 3.396 7.585 7.585v25.092c0 4.19-3.395 7.586-7.585 7.586z"/></g><g><path d="m500.28 140.112h-25.092c-4.189 0-7.585-3.396-7.585-7.585s3.395-7.585 7.585-7.585h25.092c4.189 0 7.585 3.396 7.585 7.585s-3.395 7.585-7.585 7.585z"/><path d="m284.281 140.112h-25.092c-4.189 0-7.585-3.396-7.585-7.585s3.396-7.585 7.585-7.585h25.092c4.189 0 7.585 3.396 7.585 7.585s-3.395 7.585-7.585 7.585z"/></g><g><path d="m471.311 87.245c-2.621 0-5.171-1.36-6.576-3.794-2.095-3.628-.851-8.267 2.776-10.361l12.827-7.405c3.626-2.094 8.267-.852 10.361 2.777 2.095 3.628.851 8.267-2.776 10.361l-12.827 7.405c-1.194.689-2.499 1.017-3.785 1.017z"/><path d="m275.346 200.386c-2.621 0-5.17-1.36-6.576-3.794-2.095-3.628-.851-8.267 2.776-10.361l12.826-7.405c3.626-2.094 8.265-.852 10.361 2.776 2.095 3.628.851 8.267-2.776 10.361l-12.826 7.405c-1.193.69-2.498 1.018-3.785 1.018z"/></g><g><path d="m432.595 48.544c-1.287 0-2.592-.328-3.786-1.017-3.628-2.095-4.871-6.734-2.776-10.361l7.406-12.827c2.095-3.628 6.734-4.87 10.361-2.776 3.628 2.095 4.871 6.734 2.776 10.361l-7.406 12.827c-1.405 2.433-3.954 3.793-6.575 3.793z"/><path d="m319.455 244.509c-1.287 0-2.591-.328-3.786-1.017-3.628-2.094-4.871-6.733-2.776-10.361l7.405-12.826c2.094-3.628 6.732-4.872 10.361-2.776 3.628 2.094 4.871 6.733 2.776 10.361l-7.405 12.826c-1.404 2.432-3.954 3.793-6.575 3.793z"/></g><g><path d="m326.874 48.544c-2.621 0-5.171-1.36-6.576-3.794l-7.405-12.827c-2.095-3.628-.851-8.267 2.776-10.361 3.627-2.093 8.267-.852 10.361 2.777l7.405 12.827c2.095 3.628.851 8.267-2.776 10.361-1.193.689-2.498 1.017-3.785 1.017z"/><path d="m440.015 244.509c-2.621 0-5.17-1.36-6.576-3.793l-7.406-12.826c-2.095-3.628-.852-8.267 2.776-10.361 3.626-2.094 8.265-.852 10.361 2.776l7.406 12.826c2.095 3.628.852 8.267-2.776 10.361-1.193.689-2.498 1.017-3.785 1.017z"/></g><g><path d="m288.159 87.245c-1.287 0-2.592-.328-3.786-1.017l-12.826-7.405c-3.628-2.094-4.871-6.733-2.776-10.361 2.094-3.628 6.735-4.871 10.361-2.776l12.826 7.405c3.628 2.094 4.871 6.733 2.776 10.361-1.404 2.433-3.954 3.793-6.575 3.793z"/><path d="m484.124 200.386c-1.287 0-2.591-.328-3.786-1.017l-12.827-7.405c-3.628-2.094-4.871-6.733-2.776-10.361 2.094-3.628 6.732-4.871 10.361-2.777l12.827 7.405c3.628 2.094 4.871 6.733 2.776 10.361-1.404 2.433-3.954 3.794-6.575 3.794z"/></g></g><path d="m379.735 264.582c-72.816 0-132.055-59.24-132.055-132.055s59.239-132.055 132.055-132.055 132.055 59.24 132.055 132.055-59.239 132.055-132.055 132.055zm0-248.94c-64.451 0-116.885 52.434-116.885 116.885s52.434 116.885 116.885 116.885 116.885-52.435 116.885-116.885c0-64.451-52.434-116.885-116.885-116.885z" fill="#f6e266"/></g></g></svg>