<svg id="Layer_1" enable-background="new 0 0 468 468" height="512" viewBox="0 0 468 468" width="512" xmlns="http://www.w3.org/2000/svg"><g><g><path d="m91.88 277.232h220.242v190.768h-220.242z" fill="#f761a6"/></g><g><path d="m201.907 343.468c-20.063-46.775-96.931 14.451-1.553 74.829 102.657-58.367 18.23-121.425 1.553-74.829z" fill="#fff"/></g><g><path d="m312.122 277.232h-220.242l51.123-64.111h233.042z" fill="#e0e9ef"/></g><g><path d="m376.045 213.121-63.923 64.111v190.768l63.923-51.289z" fill="#e54a91"/></g><g><g><path d="m308.499 238.539h-148.998c10.452-38.216 10.452-78.525 0-116.741-10.452-38.216-10.452-78.525 0-116.741h148.997c-10.452 38.216-10.452 78.525 0 116.741 10.452 38.215 10.452 78.525.001 116.741z" fill="#35c9ad"/></g><g><g><path d="m167.06 191.377c-.806 15.878-3.322 31.691-7.553 47.161h47.892c0-23.812-17.479-43.548-40.339-47.161z" fill="#25b79b"/></g><g><path d="m259.548 238.539h48.956c4.214-15.409 6.727-31.158 7.542-46.974-2.794-.506-5.667-.784-8.607-.784-26.449 0-47.891 21.382-47.891 47.758z" fill="#25b79b"/></g><g><path d="m207.399 5.056h-47.892c-4.231 15.47-6.748 31.283-7.553 47.161 2.461.389 4.983.596 7.553.596 26.45.001 47.892-21.381 47.892-47.757z" fill="#25b79b"/></g><g><path d="m308.504 5.056h-48.956c0 24.177 18.02 44.145 41.394 47.308.798-15.927 3.318-31.79 7.562-47.308z" fill="#25b79b"/></g></g><g><circle cx="234" cy="121.797" fill="#25b79b" r="40.606"/></g><g><path d="m247.134 129.816c0-6.638-5.329-12.038-11.88-12.038h-2.509c-2.072 0-3.759-1.757-3.759-3.917s1.686-3.917 3.759-3.917h8.497c2.242 0 4.061-1.818 4.061-4.061s-1.818-4.061-4.061-4.061h-3.182v-2.824c0-2.242-1.818-4.061-4.061-4.061s-4.061 1.818-4.061 4.061v3.178c-5.198 1.283-9.074 6.028-9.074 11.685 0 6.638 5.329 12.038 11.88 12.038h2.509c2.072 0 3.759 1.757 3.759 3.917s-1.686 3.917-3.759 3.917h-8.497c-2.242 0-4.061 1.818-4.061 4.061s1.818 4.061 4.061 4.061h3.182v2.825c0 2.242 1.818 4.061 4.061 4.061s4.061-1.818 4.061-4.061v-3.178c5.199-1.284 9.074-6.029 9.074-11.686z" fill="#fff"/></g></g><g><g><g><path d="m441.089 223.66c-2.761 0-5-2.239-5-5v-9.562c0-2.761 2.239-5 5-5s5 2.239 5 5v9.562c0 2.761-2.239 5-5 5z" fill="#ffd085"/></g><g><path d="m441.089 188.613c-2.761 0-5-2.239-5-5v-46.876c0-2.761 2.239-5 5-5s5 2.239 5 5v46.876c0 2.761-2.239 5-5 5z" fill="#ffd085"/></g><g><path d="m400.483 208.432c-2.761 0-5-2.239-5-5v-9.562c0-2.761 2.239-5 5-5s5 2.239 5 5v9.562c0 2.761-2.238 5-5 5z" fill="#ffd085"/></g><g><path d="m400.483 173.386c-2.761 0-5-2.239-5-5v-46.876c0-2.761 2.239-5 5-5s5 2.239 5 5v46.876c0 2.761-2.238 5-5 5z" fill="#ffd085"/></g><g><circle cx="420.786" cy="45.681" fill="#fdbf38" r="45.681"/></g><g><path d="m422.265 41.113h-2.957c-2.562 0-4.647-2.172-4.647-4.842s2.085-4.841 4.647-4.841h10.014c2.523 0 4.568-2.045 4.568-4.568s-2.045-4.568-4.568-4.568h-3.967v-3.554c0-2.523-2.045-4.568-4.568-4.568s-4.568 2.045-4.568 4.568v3.92c-6.115 1.428-10.694 6.982-10.694 13.611 0 7.708 6.183 13.978 13.783 13.978h2.957c2.562 0 4.647 2.172 4.647 4.842s-2.085 4.841-4.647 4.841h-10.014c-2.523 0-4.568 2.045-4.568 4.568s2.045 4.568 4.568 4.568h3.967v3.553c0 2.523 2.045 4.568 4.568 4.568s4.568-2.045 4.568-4.568v-3.92c6.115-1.428 10.694-6.982 10.694-13.611 0-7.707-6.183-13.977-13.783-13.977z" fill="#fff"/></g></g><g><g><g><path d="m67.517 339.386c-2.761 0-5-2.239-5-5v-9.562c0-2.761 2.239-5 5-5s5 2.239 5 5v9.562c0 2.761-2.239 5-5 5z" fill="#ffd085"/></g><g><path d="m67.517 304.339c-2.761 0-5-2.239-5-5v-46.876c0-2.761 2.239-5 5-5s5 2.239 5 5v46.876c0 2.761-2.239 5-5 5z" fill="#ffd085"/></g><g><path d="m26.911 324.159c-2.761 0-5-2.239-5-5v-9.562c0-2.761 2.239-5 5-5s5 2.239 5 5v9.562c0 2.761-2.239 5-5 5z" fill="#ffd085"/></g><g><path d="m26.911 289.112c-2.761 0-5-2.239-5-5v-46.876c0-2.761 2.239-5 5-5s5 2.239 5 5v46.876c0 2.761-2.239 5-5 5z" fill="#ffd085"/></g></g><g><circle cx="47.214" cy="161.408" fill="#fdbf38" r="45.681"/></g><g><path d="m62.476 170.817c0-7.708-6.183-13.978-13.783-13.978h-2.957c-2.562 0-4.647-2.172-4.647-4.842s2.085-4.841 4.647-4.841h10.014c2.523 0 4.568-2.045 4.568-4.568s-2.045-4.568-4.568-4.568h-3.967v-3.553c0-2.523-2.045-4.568-4.568-4.568s-4.568 2.045-4.568 4.568v3.92c-6.115 1.428-10.694 6.982-10.694 13.611 0 7.708 6.183 13.978 13.783 13.978h2.957c2.562 0 4.647 2.172 4.647 4.842s-2.085 4.841-4.647 4.841h-10.015c-2.523 0-4.568 2.045-4.568 4.568s2.045 4.568 4.568 4.568h3.967v3.553c0 2.523 2.045 4.568 4.568 4.568s4.568-2.045 4.568-4.568v-3.92c6.116-1.428 10.695-6.982 10.695-13.611z" fill="#fff"/></g></g></g><g><path d="m318.377 243.539h-169.166c-2.761 0-5-2.239-5-5s2.239-5 5-5h169.166c2.761 0 5 2.239 5 5s-2.238 5-5 5z" fill="#9bb6c6"/></g></g></svg>