<svg id="Layer_1" enable-background="new 0 0 468 468" height="512" viewBox="0 0 468 468" width="512" xmlns="http://www.w3.org/2000/svg"><g><g><g><g><g><path d="m262.678 260.727-144.399 67.612-113.95-245.375 144.398-67.612z" fill="#35c9ad"/></g><g><path d="m117.706 137.828c-18.71 8.761-26.805 31.093-18.081 49.881s30.965 26.916 49.676 18.155 26.805-31.093 18.081-49.881-30.966-26.916-49.676-18.155z" fill="#25b79b"/></g><g><path d="m176.519 75.198-27.792-59.845-57.611 26.975c18.812 29.284 53.876 42.849 85.403 32.87z" fill="#25b79b"/></g><g><path d="m61.94 55.989-57.611 26.975 27.791 59.846c27.879-17.837 40.069-53.527 29.82-86.821z" fill="#25b79b"/></g></g><g><g><path d="m314.714 15.406c-28.951-16.797-66.13-6.551-83.042 22.885s-7.152 66.916 21.799 83.713 66.13 6.551 83.042-22.885 7.152-66.916-21.799-83.713z" fill="#ffd085"/></g><g><path d="m309.09 48.609-6.104-3.539 3.164-5.503c1.265-2.201.507-5.012-1.694-6.278-2.199-1.266-5.011-.508-6.279 1.694l-3.256 5.661c-7.636-3.157-17.121.207-21.118 7.478-4.74 8.243-1.942 18.807 6.239 23.549l3.488 2.022c3.808 2.207 5.099 7.146 2.878 11.009-2.063 3.774-7.206 5.222-10.889 2.99l-11.813-6.848c-2.197-1.273-5.01-.525-6.285 1.672-1.273 2.197-.525 5.01 1.672 6.284l6.104 3.539-3.164 5.503c-1.265 2.202-.507 5.013 1.694 6.279 2.163 1.254 5.006.527 6.279-1.694l3.249-5.651c7.681 3.154 17.111-.221 21.125-7.489 4.739-8.244 1.941-18.808-6.239-23.549l-3.488-2.022c-3.808-2.208-5.099-7.146-2.878-11.009 2.064-3.774 7.204-5.223 10.889-2.99l11.812 6.848c2.195 1.274 5.01.526 6.284-1.672 1.276-2.197.527-5.01-1.67-6.284z" fill="#fff"/></g></g><g><g><path d="m373.457 94.978c-31.416-11.494-66.259 5.079-77.823 37.017s4.529 67.146 35.945 78.64 66.258-5.079 77.823-37.017c11.564-31.938-4.529-67.146-35.945-78.64z" fill="#fdbf38"/></g><g><path d="m373.657 128.658-6.618-2.419 2.164-5.968c.865-2.387-.368-5.025-2.756-5.89-2.382-.865-5.024.367-5.89 2.756l-2.229 6.149c-8.07-1.78-16.825 3.186-19.502 11.041-3.242 8.945 1.343 18.862 10.221 22.107l3.785 1.383c4.128 1.509 6.252 6.145 4.733 10.336-1.38 4.074-6.192 6.408-10.21 4.849l-12.818-4.684c-2.382-.872-5.025.354-5.897 2.741-.872 2.385.355 5.025 2.74 5.897l6.618 2.418-2.163 5.969c-.865 2.387.368 5.024 2.756 5.89 2.324.861 5.028-.345 5.89-2.757l2.226-6.142c1.11.224 2.231.349 3.351.349 7.069.063 13.824-4.676 16.154-11.397 3.242-8.946-1.343-18.863-10.221-22.107l-3.785-1.383c-4.128-1.509-6.252-6.146-4.733-10.336 1.379-4.075 6.193-6.406 10.21-4.849l12.818 4.685c2.383.872 5.025-.355 5.897-2.74.871-2.386-.356-5.026-2.741-5.898z" fill="#fff"/></g></g><g><g><path d="m260.578 116.144c-33.285-.012-60.258 27.412-60.246 61.253.011 33.841 27.003 61.284 60.288 61.296s60.258-27.412 60.246-61.253-27.003-61.284-60.288-61.296z" fill="#ffdeb3"/></g><g><path d="m279.697 190.041c0-9.495-7.668-17.22-17.093-17.22h-4.009c-4.354 0-7.896-3.6-7.896-8.024s3.542-8.024 7.896-8.024h13.577c2.54 0 4.598-2.059 4.598-4.598s-2.059-4.598-4.598-4.598h-6.974v-6.296c0-2.54-2.059-4.598-4.598-4.598s-4.598 2.059-4.598 4.598v6.516c-8.195 1.266-14.499 8.396-14.499 17.001 0 9.496 7.668 17.221 17.093 17.221h4.009c4.354 0 7.896 3.599 7.896 8.024s-3.543 8.024-7.896 8.024h-13.578c-2.54 0-4.598 2.059-4.598 4.598 0 2.54 2.059 4.598 4.598 4.598h6.975v6.296c0 2.54 2.059 4.598 4.598 4.598s4.598-2.059 4.598-4.598v-6.516c8.195-1.266 14.499-8.396 14.499-17.002z" fill="#fff"/></g></g></g><g><g><path d="m38.6 202.147h137.929v258.525h-137.929z" fill="#ac9ef9"/></g><g><path d="m176.529 202.102h-137.929l-38.6 62.762h137.929z" fill="#e0e9ef"/></g><g><path d="m176.529 202.147h242.421v258.525h-242.421z" fill="#6262f4"/></g><g><path d="m418.95 202.147h-242.421l38.6 62.717h242.421z" fill="#e0e9ef"/></g></g></g><g><g><g><path d="m443.415 314.711h-114.814c-13.148 0-23.807 10.659-23.807 23.807v1.04c0 13.148 10.659 23.807 23.807 23.807h114.814c13.148 0 23.807-10.659 23.807-23.807v-1.04c0-13.149-10.659-23.807-23.807-23.807z" fill="#fdbf38"/></g><g><path d="m445.138 412.018h-116.704c-12.626 0-22.862 10.236-22.862 22.862v2.929c0 12.626 10.236 22.862 22.862 22.862h116.704c12.626 0 22.862-10.236 22.862-22.862v-2.929c0-12.626-10.236-22.862-22.862-22.862z" fill="#fdbf38"/></g><g><path d="m445.138 363.364h-116.704c-12.626 0-22.862 10.236-22.862 22.862v2.929c0 12.626 10.236 22.862 22.862 22.862h116.704c12.626 0 22.862-10.236 22.862-22.862v-2.929c0-12.626-10.236-22.862-22.862-22.862z" fill="#ffd085"/></g></g><g><g><ellipse cx="292.901" cy="399.126" fill="#f761a6" rx="60.694" ry="61.31"/></g><g><path d="m312.102 411.755c0-9.499-7.708-17.227-17.183-17.227h-4.037c-4.404 0-7.986-3.603-7.986-8.031s3.582-8.03 7.986-8.03h13.675c2.54 0 4.598-2.059 4.598-4.598s-2.059-4.598-4.598-4.598h-7.058v-6.302c0-2.54-2.059-4.598-4.598-4.598s-4.598 2.059-4.598 4.598v6.517c-8.252 1.254-14.603 8.394-14.603 17.011 0 9.499 7.708 17.227 17.183 17.227h4.037c4.404 0 7.986 3.602 7.986 8.03s-3.582 8.031-7.986 8.031h-13.675c-2.54 0-4.598 2.059-4.598 4.598s2.059 4.598 4.598 4.598h7.058v6.302c0 2.54 2.059 4.598 4.598 4.598s4.598-2.059 4.598-4.598v-6.517c8.253-1.254 14.603-8.393 14.603-17.011z" fill="#fff"/></g></g></g></g></svg>