<svg id="Layer_1" enable-background="new 0 0 468.295 468.295" height="512" viewBox="0 0 468.295 468.295" width="512" xmlns="http://www.w3.org/2000/svg"><g><g><g><path d="m380.27 311.798h-286.114v-291.361c0-11.287 9.15-20.437 20.437-20.437h300.419l-34.742 36.629z" fill="#e0e9ef"/></g><g><path d="m199.53 183.446c-16.268.001-23.276-11.799-26.467-19.489-13.939 6.827-25.924 9.65-26.974 9.89-2.695.614-5.373-1.07-5.987-3.762-.615-2.692 1.07-5.373 3.762-5.987.336-.078 12.116-2.883 25.534-9.574-7.881-21.008.61-44.687 20.329-55.133 13.938-8.35 31.653 7.067 25.841 22.066-6.009 17.357-19.865 29.512-33.642 37.713 3.453 8.85 9.033 16.879 24.305 13.47 5.969-1.333 10.443-6.313 10.88-12.112.02-.264.032-.533.036-.807.033-2.271 1.591-4.235 3.795-4.782 2.206-.543 4.501.462 5.59 2.453 2.133 3.871 9.75 14.811 16.471 14.32 4.776-.359 9.777-6.979 14.08-18.639.66-1.787 2.277-3.044 4.171-3.242 1.896-.201 3.736.698 4.751 2.31 2.064 3.256 9.36 12.438 15.547 11.904 3.856-.34 7.824-5.021 11.171-13.182.648-1.58 2.058-2.72 3.738-3.022 1.68-.306 3.4.271 4.559 1.526.027.029 4.64 4.848 9.934 4.651 2.928-.104 5.786-1.833 8.496-5.138 1.751-2.136 4.9-2.448 7.037-.698 2.136 1.75 2.448 4.901.698 7.037-4.639 5.659-10.015 8.619-15.979 8.796-4.804.152-8.955-1.576-12.018-3.45-4.565 8.359-10.194 12.875-16.784 13.444-7.914.68-14.802-4.647-19.326-9.466-5.35 10.953-11.721 16.581-19.349 17.143-8.159.591-15.092-5.149-19.751-10.587-3.289 5.583-8.884 9.809-15.569 11.302-3.229.72-6.183 1.044-8.879 1.045zm-5.134-75.214c-14.685 8.041-21.381 25.397-16.13 41.373 11.685-7.208 23.49-17.285 27.852-31.42 3.497-11.336-7.098-12.485-11.722-9.953z" fill="#9bb6c6"/></g><g><path d="m329.178 66.277h-182.848c-2.761 0-5-2.239-5-5s2.239-5 5-5h182.848c2.761 0 5 2.239 5 5s-2.239 5-5 5z" fill="#9bb6c6"/></g><g><path d="m449.288 34.385c0-18.99-15.45-34.385-34.509-34.385s-34.509 15.394-34.509 34.385v47.207h69.019v-47.207z" fill="#9bb6c6"/></g></g><g><g><path d="m358.378 373.428-29.684-24.995-6.305-16.123-22.489-57.023-79.612-12.97-11.634-8.81s-26.349-19.453-51.916-22.357c-10.425-1.184-20.53-4.517-29.497-9.965-9.575-5.817-18.522-14.281-17.866-25.421l-11.54 3.367-86.25 94.064 7.29 4.122c12.866 7.275 23.753 17.59 31.773 30.143l.312.488c8.173 12.784 19.515 23.236 32.922 30.339l11.369 6.023 84.717 66.233 44.782 34.219c7.503 5.948 18.38 4.142 24.647-3.597 6.907-8.53 5.599-21.04-2.917-27.96s0 0 0-.001l14.48 11.726c8.321 6.738 20.528 5.456 27.266-2.864s5.454-20.527-2.867-27.266l15.859 12.843c8.321 6.738 20.528 5.456 27.266-2.864s5.454-20.527-2.867-27.266l7.708 6.242c8.441 6.836 20.826 5.536 27.664-2.903l.002-.003c6.745-8.325 5.584-20.519-2.613-27.421zm-32.762 24.085" fill="#ffdecf"/></g><g><path d="m343.543 393.537-7.708-6.242-39.22-31.76-10.509 9.983 39.51 31.996 7.708 6.242c8.441 6.836 20.826 5.536 27.664-2.903l.002-.003c1.15-1.42 2.053-2.958 2.748-4.557-6.505 2.81-14.307 2.013-20.195-2.756z" fill="#ffc7b3"/></g><g><g><path d="m256.698 422.986h-.001l.001.001z" fill="#ffdecf"/></g><g><path d="m234.968 454.544-30.105-23.005-24.894-.996 44.782 34.219c7.503 5.948 18.38 4.142 24.647-3.597 1.152-1.422 2.054-2.962 2.754-4.561-5.648 2.411-12.168 1.916-17.184-2.06z" fill="#ffc7b3"/></g><g><path d="m246.479 433.205h.001z" fill="#ffdecf"/></g></g><g><path d="m271.177 434.712-14.48-11.726-28.476-23.379-10.156 10.269 28.414 23.328 14.48 11.726c8.321 6.738 20.528 5.456 27.266-2.864 1.157-1.428 2.06-2.977 2.749-4.587-6.389 2.714-14.026 1.906-19.797-2.767z" fill="#ffc7b3"/></g><g><path d="m311.435 417.425-15.859-12.843-32.181-25.007-12.001 8.775 33.963 26.45 15.859 12.843c8.321 6.738 20.528 5.456 27.266-2.864 1.157-1.428 2.06-2.977 2.749-4.587-6.388 2.714-14.025 1.906-19.796-2.767z" fill="#ffc7b3"/></g><g><path d="m95.764 182.012 29.75 20.064c5.755 3.882 7.262 11.705 3.361 17.45l-76.08 112.037c-3.88 5.713-11.645 7.211-17.368 3.351l-29.747-20.062c-5.755-3.881-7.267-11.697-3.367-17.442 16.858-24.829 59.282-87.307 76.086-112.054 3.88-5.713 11.641-7.204 17.365-3.344z" fill="#f761a6"/></g><g><path d="m43.368 291.387c4.55 3.067 5.752 9.237 2.683 13.782-3.068 4.545-9.245 5.744-13.795 2.677s-5.752-9.237-2.683-13.783c3.069-4.544 9.245-5.742 13.795-2.676z" fill="#fff"/></g><g><path d="m165.542 247.947 52.55-32.096c10.555-6.447 23.464-7.759 35.1-3.57l36.937 13.299c7.645 2.753 15.938 3.161 23.816 1.172l59.329-14.977 51.568 107.109s-19.926 43.501-70.476 51.165l-119.254-102.53-28.422 8.499-18.477 22.763c-13.186 16.245-35.921 21.086-54.582 11.624-5.555-2.817-7.312-9.91-3.715-14.994l29.604-41.837c1.604-2.265 3.653-4.18 6.022-5.627z" fill="#ffc7b3"/></g><g><path d="m381.267 182.584-31.076 17.939c-6.012 3.47-8.061 11.17-4.57 17.173l68.086 117.075c3.472 5.97 11.114 8.007 17.093 4.555l31.072-17.936c6.012-3.47 8.065-11.162 4.574-17.164-15.086-25.945-53.052-91.233-68.091-117.093-3.472-5.97-11.109-8-17.088-4.549z" fill="#6262f4"/></g><g><path d="m425.911 295.351c-4.753 2.741-6.382 8.813-3.637 13.562s8.822 6.375 13.575 3.634 6.382-8.813 3.637-13.562-8.822-6.375-13.575-3.634z" fill="#fff"/></g><g><g><g><path d="m157.377 371.148-32.406 46.28c-5.907 8.436-3.724 20.078 4.837 25.802l.294.196c8.324 5.565 19.572 3.437 25.287-4.784l32.247-46.382c5.776-8.308 3.744-19.724-4.545-25.528l-.134-.094c-8.31-5.818-19.762-3.798-25.58 4.51z" fill="#ffc7b3"/></g></g><g><g><path d="m145.135 443.23c-8.561-5.724-10.744-17.366-4.837-25.802l32.406-46.28c1.941-2.772 4.515-4.826 7.384-6.14-7.912-3.648-17.538-1.249-22.712 6.14l-32.406 46.28c-5.907 8.436-3.724 20.078 4.837 25.802l.294.196c5.497 3.675 12.261 3.976 17.873 1.402-.87-.401-1.725-.853-2.546-1.402z" fill="#f9ad95"/></g></g><g><path d="m147.014 353.928c8.309 5.818 10.328 17.27 4.51 25.578l-26.783 38.25c-5.818 8.309-17.27 10.328-25.579 4.51-8.309-5.818-10.328-17.27-4.51-25.578l26.783-38.25c5.818-8.308 17.27-10.328 25.579-4.51z" fill="#ffc7b3"/></g><g><g><path d="m109.979 396.688 26.783-38.25c1.941-2.772 4.515-4.826 7.384-6.14-7.912-3.648-17.538-1.249-22.712 6.14l-26.783 38.25c-5.818 8.309-3.799 19.761 4.51 25.578 5.537 3.877 12.463 4.256 18.195 1.63-.985-.454-1.948-.986-2.867-1.63-8.308-5.817-10.327-17.269-4.51-25.578z" fill="#f9ad95"/></g></g><g><path d="m176.141 408.181-15.079 21.534c-5.818 8.309-3.799 19.76 4.51 25.578 8.309 5.818 19.761 3.799 25.579-4.51l15.079-21.534c5.818-8.309 3.799-19.76-4.51-25.578-8.31-5.818-19.762-3.799-25.579 4.51z" fill="#ffc7b3"/></g><g><g><path d="m180.9 455.293c-8.309-5.818-10.328-17.27-4.51-25.578l15.079-21.534c1.941-2.772 4.515-4.826 7.384-6.14-7.912-3.648-17.538-1.249-22.712 6.14l-15.079 21.534c-5.818 8.309-3.799 19.76 4.51 25.578 5.537 3.877 12.463 4.256 18.195 1.63-.985-.454-1.948-.986-2.867-1.63z" fill="#f9ad95"/></g></g><g><path d="m104.834 350.789c-8.309-5.818-19.761-3.799-25.579 4.51l-9.226 13.176c-5.818 8.309-3.799 19.76 4.51 25.578 8.309 5.818 19.761 3.799 25.579-4.51l9.226-13.176c5.818-8.308 3.799-19.76-4.51-25.578z" fill="#ffc7b3"/></g><g><g><path d="m89.867 394.054c-8.309-5.818-10.328-17.27-4.51-25.578l9.226-13.176c1.941-2.772 4.515-4.826 7.384-6.14-7.912-3.648-17.538-1.249-22.712 6.14l-9.226 13.176c-5.818 8.309-3.799 19.76 4.51 25.578 5.537 3.877 12.463 4.256 18.195 1.63-.985-.455-1.947-.987-2.867-1.63z" fill="#f9ad95"/></g></g></g></g></g></svg>