<svg id="Layer_1" enable-background="new 0 0 468 468" height="512" viewBox="0 0 468 468" width="512" xmlns="http://www.w3.org/2000/svg"><g><g><g><g><path d="m410.134 96.856h-79.353c-2.761 0-5-2.239-5-5s2.239-5 5-5h79.353c8.271 0 15-6.729 15-15v-19.725c0-2.761 2.239-5 5-5s5 2.239 5 5v19.726c0 13.785-11.215 24.999-25 24.999z" fill="#e0e9ef"/></g><g><circle cx="430.134" cy="27.425" fill="#6262f4" r="25"/></g><g><path d="m430.134 246.15c-2.761 0-5-2.239-5-5v-19.726c0-8.271-6.729-15-15-15h-79.353c-2.761 0-5-2.239-5-5s2.239-5 5-5h79.353c13.785 0 25 11.215 25 25v19.726c0 2.762-2.239 5-5 5z" fill="#e0e9ef"/></g><g><circle cx="430.134" cy="265.856" fill="#6262f4" r="25"/></g><g><path d="m438.369 149.218h-89.941c-2.761 0-5-2.239-5-5s2.239-5 5-5h89.941c2.761 0 5 2.239 5 5s-2.239 5-5 5z" fill="#e0e9ef"/></g><g><circle cx="438.369" cy="144.218" fill="#ac9ef9" r="25"/></g></g><g><g><path d="m371.968 164.895c0-75.204-64.701-136.169-137.968-136.169s-137.968 60.965-137.968 136.169c0 41.199 21.14 78.12 50.698 103.088 15.97 13.49 25.13 33.343 25.13 54.22v73.825h124.276v-73.822c0-20.877 9.16-40.731 25.131-54.221 29.561-24.968 50.701-61.89 50.701-103.09z" fill="#ffd085"/></g><g><g><path d="m208.93 77.277-63.497-17.959c-10.159-2.873-21.005-2.16-30.716 2.02l-43.747 18.83c-3.878 1.669-7.966 2.797-12.148 3.353l-25.249 3.355-.071 72.084 17.764 2.609c3.57.524 7.059 1.464 10.406 2.807 9.924 3.982 35.564 12.302 65.569 6.638 14.405-2.179 28.915-3.585 43.478-3.807l6.872-.105c9.372-.143 16.925-7.755 16.992-17.124.068-9.593-7.725-17.371-17.322-17.288l55.982-31.571c-3.876-11.175-12.928-20.622-24.313-23.842z" fill="#ffdecf"/></g><g><path d="m58.822 97.521c4.183-.556 8.271-1.684 12.148-3.353l43.747-18.83c9.711-4.18 20.558-4.893 30.716-2.02l63.497 17.959c7.457 2.109 13.902 6.9 18.558 13.089l5.754-3.245c-3.875-11.176-12.928-20.624-24.312-23.843l-63.497-17.959c-10.159-2.873-21.005-2.16-30.716 2.02l-43.747 18.829c-3.878 1.669-7.966 2.797-12.148 3.353l-25.249 3.355-.071 72.084.014.002.057-58.086z" fill="#ffc7b3"/></g><g><path d="m4.631 160.965.328-74.691c.022-5.054 4.122-9.151 9.178-9.174l23.2-.081c5.102-.022 9.237 4.111 9.214 9.21l-.328 74.691c-.022 5.054-4.122 9.151-9.178 9.174l-23.2.081c-5.101.023-9.236-4.11-9.214-9.21z" fill="#6262f4"/></g><g><g><path d="m289.385 146.562c-.01-30.505-24.685-55.243-55.113-55.254-30.427-.01-55.085 24.71-55.075 55.216.006 18.722 9.312 35.259 23.526 45.254h63.197c14.191-9.987 23.471-26.508 23.465-45.216z" fill="#e54a91"/></g></g><g><path d="m252.046 157.921c0-8.755-7.143-15.878-15.922-15.878h-3.666c-3.817 0-6.922-3.085-6.922-6.878s3.105-6.878 6.922-6.878h12.413c2.485 0 4.5-2.015 4.5-4.5s-2.015-4.5-4.5-4.5h-6.08v-5.32c0-2.485-2.015-4.5-4.5-4.5s-4.5 2.015-4.5 4.5v5.561c-7.511 1.272-13.254 7.79-13.254 15.637 0 8.755 7.143 15.878 15.922 15.878h3.666c3.817 0 6.922 3.085 6.922 6.878s-3.105 6.878-6.922 6.878h-12.413c-2.485 0-4.5 2.015-4.5 4.5s2.015 4.5 4.5 4.5h6.08v5.32c0 2.485 2.015 4.5 4.5 4.5s4.5-2.015 4.5-4.5v-5.561c7.51-1.271 13.254-7.79 13.254-15.637z" fill="#fff"/></g><g><path d="m139.342 133.021 37.918-.329c9.597-.083 17.391 7.694 17.322 17.288-.067 9.369-7.62 16.981-16.992 17.124l-6.873.105c-14.579.222-29.106 1.631-43.527 3.814" fill="#ffdecf"/></g><g><path d="m177.261 132.691-47.918.329v12l47.918-.329c7.439-.065 13.775 4.602 16.226 11.168.684-1.836 1.082-3.811 1.097-5.88.067-9.593-7.726-17.371-17.323-17.288z" fill="#ffc7b3"/></g><g><path d="m289 196.778h-110c-2.761 0-5-2.239-5-5s2.239-5 5-5h110c2.761 0 5 2.239 5 5s-2.239 5-5 5z" fill="#fdbf38"/></g></g><g><path d="m184.968 405.271c-.572 2.83-.884 5.746-.884 8.732 0 25.804 22.348 46.723 49.915 46.723s49.915-20.919 49.915-46.723c0-2.986-.312-5.902-.884-8.732z" fill="#fdbf38"/></g><g><path d="m296.043 329.578h-124.086c-11.638 0-21.073 9.435-21.073 21.073 0 11.638 9.435 21.073 21.073 21.073h124.087c11.638 0 21.073-9.435 21.073-21.073-.001-11.639-9.435-21.073-21.074-21.073z" fill="#fdbf38"/></g><g><path d="m296.043 371.723h-124.086c-11.638 0-21.073 9.435-21.073 21.073 0 11.638 9.435 21.073 21.073 21.073h124.087c11.638 0 21.073-9.435 21.073-21.073-.001-11.638-9.435-21.073-21.074-21.073z" fill="#ffd085"/></g></g></g><g><g><ellipse cx="360.768" cy="396.191" fill="#35c9ad" rx="64.904" ry="65"/></g><path d="m381.384 409.58c0-10.14-8.279-18.389-18.456-18.389h-4.318c-4.663 0-8.457-3.763-8.457-8.389s3.793-8.389 8.457-8.389h14.624c2.761 0 5-2.239 5-5s-2.239-5-5-5h-7.464v-6.556c0-2.761-2.239-5-5-5s-5 2.239-5 5v6.797c-8.829 1.368-15.616 8.973-15.616 18.148 0 10.14 8.28 18.389 18.457 18.389h4.318c4.663 0 8.456 3.763 8.456 8.389s-3.793 8.389-8.456 8.389h-14.624c-2.761 0-5 2.239-5 5s2.239 5 5 5h7.464v6.556c0 2.761 2.239 5 5 5s5-2.239 5-5v-6.797c8.829-1.369 15.615-8.974 15.615-18.148z" fill="#fff"/></g><g><path d="m463 465.575h-458c-2.761 0-5-2.239-5-5s2.239-5 5-5h458c2.761 0 5 2.239 5 5s-2.239 5-5 5z" fill="#9bb6c6"/></g></g></svg>