<svg id="Layer_1" enable-background="new 0 0 468.091 468.091" height="512" viewBox="0 0 468.091 468.091" width="512" xmlns="http://www.w3.org/2000/svg"><g><g><g><path d="m192.119 141.333h-16.87c-37.825 0-69.019 29.861-70.956 67.924l-3.988 78.357c-.781 15.347 11.358 28.221 26.609 28.221h113.541c15.251 0 27.39-12.875 26.609-28.221l-3.988-78.357c-1.938-38.063-33.132-67.924-70.957-67.924z" fill="#6262f4"/></g><g><path d="m280.228 69.781h-66.875-33.063l-.014-.022h-17.123c-6.529 0-12.67-3.06-16.6-8.269-4.386-5.814-9.991-15.359-13.758-25.222l-.515.132c-8.405 1.491-16.269 5.36-22.607 11.24-8.27 7.673-19.134 11.937-30.416 11.937h-30.884v30.61 130.604h40.972c14.281 0 28.343 3.504 40.955 10.203 12.611 6.7 26.674 10.203 40.955 10.203h88.576c11.834 0 21.427-9.593 21.427-21.427 0-11.834-9.593-21.427-21.427-21.427h-.009c11.834 0 21.427-9.593 21.427-21.427 0-11.834-9.593-21.427-21.427-21.427h10.203c11.834 0 21.427-9.593 21.427-21.427 0-11.834-9.593-21.427-21.427-21.427h10.203c11.834 0 21.427-9.593 21.427-21.427-.001-11.834-9.594-21.427-21.427-21.427z" fill="#ffdecf"/></g><g><path d="m259.83 225.881h-88.576c-14.281 0-28.343-3.504-40.955-10.203-12.612-6.7-26.674-10.204-40.955-10.204h-40.971v15.319h40.972c14.281 0 28.343 3.504 40.955 10.204 12.611 6.7 26.674 10.203 40.955 10.203h88.576c11.834 0 21.427-9.593 21.427-21.427 0-2.703-.521-5.278-1.435-7.659-3.085 8.044-10.862 13.767-19.993 13.767z" fill="#ffc7b3"/></g><g><g><path d="m280.216 98.338h-65.59v14.297h65.59c11.84 0 21.438-9.598 21.438-21.438 0-2.511-.454-4.91-1.247-7.149-2.946 8.32-10.861 14.29-20.191 14.29z" fill="#ffc7b3"/></g></g><g><g><path d="m270.004 141.23h-65.59v14.297h65.59c11.84 0 21.438-9.598 21.438-21.438 0-2.511-.454-4.91-1.247-7.149-2.947 8.32-10.862 14.29-20.191 14.29z" fill="#ffc7b3"/></g></g><g><g><path d="m259.792 184.123h-65.59v14.297h65.59c11.84 0 21.438-9.598 21.438-21.438 0-2.511-.454-4.91-1.247-7.149-2.947 8.32-10.862 14.29-20.191 14.29z" fill="#ffc7b3"/></g></g><g><path d="m209.597 3.876c5.318-3.564 14.492-4.719 20.348-2.163 26.768 11.683-16.049 68.046-16.049 68.046h-50.743c-6.529 0-12.67-3.06-16.599-8.269-10.839-14.368-29.133-51.52-8.69-59.945 6.368-2.648 13.736-1.824 19.46 1.947 5.908 3.774 28.7 16.179 52.273.384z" fill="#6262f4"/></g><g><path d="m66.942 49.374h-41.22c-5.523 0-10 4.477-10 10v161.622c0 5.523 4.477 10 10 10h41.22c5.523 0 10-4.477 10-10v-161.622c0-5.523-4.477-10-10-10z" fill="#35c9ad"/></g><g><circle cx="46.333" cy="80.431" fill="#fff" r="9.183"/></g></g><g><g><path d="m260.916 398.885-42.106 16.736c-11.675 4.641-24.867-1.369-29.027-13.224-3.831-10.915 1.399-22.937 11.995-27.576l112.224-49.127c8.022-3.512 17.164-3.419 25.114.254l65.245 30.146-37.699 80.401-22.631-10.885c-7.005-3.025-14.888-3.325-22.103-.841l-106.581 36.704c-7.178 2.472-15.019 2.188-21.999-.796l-121.557-51.966c-13.363-5.713-19.603-21.147-13.966-34.542 5.471-13.001 20.189-19.411 33.434-14.563l97.273 35.605" fill="#ffdecf"/></g><g><path d="m372.773 423.461-28.743-12.851c-7.005-3.025-14.888-3.325-22.103-.841l-106.581 36.704c-7.178 2.472-15.019 2.188-22-.796l-121.555-51.966c-7.522-3.216-12.786-9.511-14.947-16.789-3.772 12.694 2.491 26.464 14.947 31.789l121.555 51.968c6.981 2.984 14.821 3.268 22 .796l106.581-36.704c7.215-2.485 15.098-2.185 22.103.841l22.631 10.885z" fill="#ffc7b3"/></g><g><path d="m218.81 400.303c-8.411 3.343-17.607 1.158-23.648-4.756-2.259-2.212-4.072-4.948-5.243-8.109-1.759 4.78-1.838 10.069-.136 14.96 4.161 11.855 17.352 17.864 29.027 13.224l62.42-22.143v-15.319z" fill="#ffc7b3"/></g><g><path d="m366.367 437.281 38.265-81.948c3.737-8.004 13.254-11.465 21.259-7.731l17.235 8.037c8.012 3.736 11.475 13.261 7.735 21.27l-38.265 81.948c-3.737 8.004-13.254 11.465-21.259 7.731l-17.235-8.037c-8.011-3.736-11.475-13.26-7.735-21.27z" fill="#6262f4"/></g><g><circle cx="423.705" cy="374.777" fill="#fff" r="9.183"/></g></g><g id="XMLID_8_"><path d="m353.772 197.257c-8.45 0-13.244 9.677-8.125 16.4l40.977 53.811c4.087 5.367 12.163 5.367 16.25 0l40.977-53.811c5.119-6.723.325-16.4-8.125-16.4h-13.748v-92.486h-54.458v92.486z" fill="#f761a6"/></g></g></svg>