<svg id="Layer_1" enable-background="new 0 0 468 468" height="512" viewBox="0 0 468 468" width="512" xmlns="http://www.w3.org/2000/svg"><g><g><g><g><g><path d="m351.164 344.375c21.217-25.285 52.842-36.677 83.352-33.181 8.741 29.439 3.014 62.562-18.203 87.847s-52.842 36.677-83.352 33.181c-8.741-29.439-3.014-62.562 18.203-87.847z" fill="#35c9ad"/></g><path d="m397.232 385.256c-.013 0-.024 0-.037 0l-18.331.131 57.217-68.188c-.458-2.016-.976-4.019-1.565-6.005-2.058-.236-4.121-.398-6.185-.499l-37.577 44.782-3.002-17.768c-.46-2.722-3.03-4.552-5.763-4.097-2.723.46-4.558 3.041-4.097 5.763l4.421 26.162-50.917 60.68c.458 2.016.976 4.019 1.566 6.005 2.057.236 4.12.398 6.185.499l31.276-37.274 26.845-.192c2.761-.02 4.983-2.274 4.964-5.036-.02-2.748-2.255-4.963-5-4.963z" fill="#25b79b"/></g><g><g><path d="m116.836 344.375c-21.217-25.285-52.842-36.677-83.352-33.181-8.741 29.439-3.014 62.562 18.203 87.847s52.842 36.677 83.352 33.181c8.741-29.439 3.014-62.562-18.203-87.847z" fill="#35c9ad"/></g><path d="m85.687 365.537 4.421-26.162c.461-2.723-1.374-5.303-4.097-5.763-2.729-.455-5.303 1.375-5.763 4.097l-3.002 17.768-37.577-44.782c-2.064.101-4.127.263-6.185.499-.589 1.986-1.107 3.989-1.565 6.005l57.217 68.188-18.331-.131c-.013 0-.024 0-.037 0-2.744 0-4.979 2.215-4.999 4.964-.02 2.761 2.203 5.016 4.964 5.036l26.845.192 31.276 37.274c2.064-.101 4.127-.263 6.185-.499.59-1.985 1.108-3.989 1.566-6.005z" fill="#25b79b"/></g></g><g><g><path d="m260.305 468h-103.9c-18.611 0-33.697-15.087-33.697-33.697v-160.848c0-10.237 4.653-19.918 12.647-26.313 7.994-6.395 12.647-16.077 12.647-26.313v-18.323h171.997v18.323c0 10.237 4.653 19.918 12.647 26.313 7.994 6.395 12.647 16.077 12.647 26.313v160.847c0 18.611-15.087 33.697-33.697 33.697h-51.291" fill="#6262f4"/></g><g><g><path d="m198.589 390.215h112.304v41.482h-112.304z" fill="#ffdeb3"/></g><g><path d="m198.589 348.733h112.304v41.482h-112.304z" fill="#ffd085"/></g><g><path d="m198.589 307.251h112.304v41.482h-112.304z" fill="#ffdeb3"/></g><g><path d="m198.589 265.77h112.304v41.482h-112.304z" fill="#fdbf38"/></g></g><g><g><path d="m158.119 390.215h102.186v41.482h-102.186z" fill="#ffd085"/></g><g><path d="m158.119 348.733h102.186v41.482h-102.186z" fill="#fdbf38"/></g><g><path d="m158.119 307.251h102.186v41.482h-102.186z" fill="#ffd085"/></g></g><g><g><circle cx="240.07" cy="386.168" fill="#f761a6" r="45.529"/></g><g><path d="m255.09 395.587c0-7.425-6.058-13.466-13.502-13.466h-3.033c-2.982 0-5.408-2.41-5.408-5.372s2.427-5.372 5.408-5.372h10.275c2.235 0 4.047-1.812 4.047-4.047s-1.812-4.047-4.047-4.047h-4.711v-4.082c0-2.235-1.812-4.047-4.047-4.047s-4.047 1.812-4.047 4.047v4.328c-6.238 1.186-10.972 6.659-10.972 13.22 0 7.425 6.058 13.466 13.502 13.466h3.033c2.982 0 5.408 2.41 5.408 5.372s-2.427 5.372-5.408 5.372h-10.275c-2.235 0-4.047 1.812-4.047 4.047s1.812 4.047 4.047 4.047h4.711v4.082c0 2.235 1.812 4.047 4.047 4.047s4.047-1.812 4.047-4.047v-4.328c6.238-1.186 10.972-6.659 10.972-13.22z" fill="#fff"/></g></g><g><g><ellipse cx="234" cy="101.899" fill="#fdbf38" rx="61.165" ry="60.705"/></g><g><path d="m253.293 114.458c0-9.435-7.74-17.111-17.255-17.111h-4.077c-4.494 0-8.149-3.591-8.149-8.006 0-4.414 3.656-8.006 8.149-8.006h13.804c2.515 0 4.553-2.038 4.553-4.553s-2.038-4.553-4.553-4.553h-7.213v-6.286c0-2.515-2.038-4.553-4.553-4.553s-4.553 2.038-4.553 4.553v6.489c-8.324 1.214-14.74 8.322-14.74 16.909 0 9.435 7.74 17.111 17.255 17.111h4.077c4.494 0 8.149 3.591 8.149 8.006 0 4.414-3.656 8.006-8.149 8.006h-13.804c-2.515 0-4.553 2.038-4.553 4.553s2.038 4.553 4.553 4.553h7.213v6.286c0 2.515 2.038 4.553 4.553 4.553s4.553-2.038 4.553-4.553v-6.489c8.324-1.214 14.74-8.323 14.74-16.909z" fill="#fff"/></g></g><g><path d="m321.175 151.621h-174.35c-7.732 0-14 6.268-14 14v22.587c0 7.732 6.268 14 14 14h174.349c7.732 0 14-6.268 14-14v-22.587c.001-7.732-6.267-14-13.999-14z" fill="#e0e9ef"/></g><g><g><path d="m173.295 151.621h40.47v50.587h-40.47z" fill="#9bb6c6"/></g><g><path d="m254.235 151.621h40.47v50.587h-40.47z" fill="#9bb6c6"/></g></g></g></g><g><g><g><g><path d="m420.146 140.885c-25.145-.009-45.522 20.368-45.513 45.513s20.4 45.536 45.544 45.544c25.145.009 45.522-20.368 45.513-45.513-.009-25.144-20.4-45.535-45.544-45.544z" fill="#ffd085"/></g><g><path d="m434.044 195.753c0-7.2-5.491-13.058-12.241-13.058h-2.629c-2.286 0-4.147-2.227-4.147-4.964s1.86-4.964 4.147-4.964h8.904c2.235 0 4.047-1.812 4.047-4.047s-1.812-4.047-4.047-4.047h-3.542v-3.73c0-2.235-1.812-4.047-4.047-4.047s-4.047 1.812-4.047 4.047v4.07c-5.437 1.329-9.509 6.522-9.509 12.719 0 7.2 5.491 13.058 12.241 13.058h2.629c2.286 0 4.147 2.227 4.147 4.964s-1.86 4.964-4.147 4.964h-8.904c-2.235 0-4.047 1.812-4.047 4.047s1.812 4.047 4.047 4.047h3.543v3.73c0 2.235 1.812 4.047 4.047 4.047s4.047-1.812 4.047-4.047v-4.07c5.436-1.331 9.508-6.523 9.508-12.719z" fill="#fff"/></g></g><g><g><path d="m399.927 106.825c-2.762 0-5-2.239-5-5v-9.53c0-2.761 2.238-5 5-5s5 2.239 5 5v9.53c0 2.761-2.239 5-5 5z" fill="#9bb6c6"/></g><g><path d="m399.927 71.896c-2.762 0-5-2.239-5-5v-46.72c0-2.761 2.238-5 5-5s5 2.239 5 5v46.719c0 2.762-2.239 5.001-5 5.001z" fill="#9bb6c6"/></g><g><path d="m440.396 91.648c-2.762 0-5-2.239-5-5v-9.53c0-2.761 2.238-5 5-5s5 2.239 5 5v9.53c0 2.762-2.238 5-5 5z" fill="#9bb6c6"/></g><g><path d="m440.396 56.719c-2.762 0-5-2.239-5-5v-46.719c0-2.761 2.238-5 5-5s5 2.239 5 5v46.719c0 2.761-2.238 5-5 5z" fill="#9bb6c6"/></g></g></g><g><g><g><path d="m47.823 140.885c-25.145-.009-45.522 20.368-45.513 45.513s20.399 45.536 45.544 45.544c25.145.009 45.522-20.368 45.513-45.513-.008-25.144-20.399-45.535-45.544-45.544z" fill="#ffd085"/></g><g><path d="m61.722 195.753c0-7.2-5.491-13.058-12.241-13.058h-2.629c-2.286 0-4.147-2.227-4.147-4.964s1.86-4.964 4.147-4.964h8.904c2.235 0 4.047-1.812 4.047-4.047s-1.812-4.047-4.047-4.047h-3.542v-3.73c0-2.235-1.812-4.047-4.047-4.047s-4.047 1.812-4.047 4.047v4.07c-5.437 1.329-9.509 6.522-9.509 12.719 0 7.2 5.491 13.058 12.241 13.058h2.629c2.286 0 4.147 2.227 4.147 4.964s-1.86 4.964-4.147 4.964h-8.904c-2.235 0-4.047 1.812-4.047 4.047s1.812 4.047 4.047 4.047h3.543v3.73c0 2.235 1.812 4.047 4.047 4.047s4.047-1.812 4.047-4.047v-4.07c5.436-1.331 9.508-6.523 9.508-12.719z" fill="#fff"/></g></g><g><g><path d="m68.073 106.825c-2.762 0-5-2.239-5-5v-9.53c0-2.761 2.238-5 5-5s5 2.239 5 5v9.53c0 2.761-2.238 5-5 5z" fill="#9bb6c6"/></g><g><path d="m68.073 71.896c-2.762 0-5-2.239-5-5v-46.72c0-2.761 2.238-5 5-5s5 2.239 5 5v46.719c0 2.762-2.238 5.001-5 5.001z" fill="#9bb6c6"/></g><g><path d="m27.604 91.648c-2.762 0-5-2.239-5-5v-9.53c0-2.761 2.238-5 5-5s5 2.239 5 5v9.53c0 2.762-2.239 5-5 5z" fill="#9bb6c6"/></g><g><path d="m27.604 56.719c-2.762 0-5-2.239-5-5v-46.719c0-2.761 2.238-5 5-5s5 2.239 5 5v46.719c0 2.761-2.239 5-5 5z" fill="#9bb6c6"/></g></g></g></g></g></svg>