<svg id="Layer_1" enable-background="new 0 0 468 468" height="512" viewBox="0 0 468 468" width="512" xmlns="http://www.w3.org/2000/svg"><g><g><g><g><path d="m264.734 366.32h180v95.641h-180z" fill="#f761a6"/></g><g><path d="m444.734 366.32h-180l19.526-45.846h140.948z" fill="#e54a91"/></g></g><g><path d="m394.734 301.2c0-22.091-40-70-40-70s-40 47.909-40 70 17.909 40 40 40c22.092 0 40-17.908 40-40z" fill="#fdbf38"/></g><g><path d="m369.734 305.049c0-7.585-6.078-13.756-13.548-13.756h-2.903c-2.508 0-4.548-2.133-4.548-4.755 0-2.623 2.041-4.756 4.548-4.756h9.833c2.485 0 4.5-2.015 4.5-4.5s-2.015-4.5-4.5-4.5h-3.881v-3.489c0-2.485-2.015-4.5-4.5-4.5s-4.5 2.015-4.5 4.5v3.853c-6.005 1.41-10.5 6.872-10.5 13.392 0 7.585 6.078 13.755 13.548 13.755h2.903c2.508 0 4.548 2.133 4.548 4.756s-2.041 4.756-4.548 4.756h-9.833c-2.485 0-4.5 2.015-4.5 4.5s2.015 4.5 4.5 4.5h3.881v3.488c0 2.485 2.015 4.5 4.5 4.5s4.5-2.015 4.5-4.5v-3.852c6.006-1.41 10.5-6.873 10.5-13.392z" fill="#fff"/></g><g><g><path d="m232.798 44.38h40.412v41.413h-40.412z" fill="#ac9ef9"/></g><g><path d="m297.025 3.961h-91.34c-11.046 0-20 8.954-20 20v.403c0 11.046 8.954 20 20 20h91.34c11.046 0 20-8.954 20-20v-.403c0-11.046-8.954-20-20-20z" fill="#6262f4"/></g><g><path d="m178.822 461.961h-60.618v-251.63c0-73.67 59.734-133.39 133.42-133.39 73.686 0 133.42 59.721 133.42 133.39v22.281h-60.618v-22.281c0-40.198-32.594-72.785-72.802-72.785-40.207 0-72.802 32.587-72.802 72.785z" fill="#6262f4"/></g><g><path d="m385.25 252.124h-61.031c-11.046 0-20-8.954-20-20v-.403c0-11.046 8.954-20 20-20h61.031c11.046 0 20 8.954 20 20v.403c0 11.046-8.955 20-20 20z" fill="#ac9ef9"/></g></g></g><g><g><path d="m39.822 323.396h88.772c12.627 0 22.864 10.236 22.864 22.864v.461c0 12.627-10.236 22.864-22.864 22.864h-88.772c-12.627 0-22.864-10.236-22.864-22.864v-.461c.001-12.628 10.237-22.864 22.864-22.864z" fill="#fdbf38"/></g><g><path d="m39.822 415.773h88.772c12.627 0 22.864 10.236 22.864 22.864v.461c0 12.627-10.236 22.864-22.864 22.864h-88.772c-12.627 0-22.864-10.236-22.864-22.864v-.461c.001-12.628 10.237-22.864 22.864-22.864z" fill="#fdbf38"/></g><g><path d="m39.822 369.584h88.772c12.627 0 22.864 10.236 22.864 22.864v.461c0 12.627-10.236 22.864-22.864 22.864h-88.772c-12.627 0-22.864-10.236-22.864-22.864v-.461c.001-12.627 10.237-22.864 22.864-22.864z" fill="#ffd085"/></g></g><g><g><ellipse cx="159.484" cy="405.474" fill="#35c9ad" rx="55.923" ry="56.452"/></g><path d="m177.939 417.102c0-9.169-7.444-16.628-16.595-16.628h-3.721c-3.636 0-6.594-2.974-6.594-6.628s2.958-6.628 6.594-6.628h12.6c2.761 0 5-2.239 5-5s-2.239-5-5-5h-5.74v-5.036c0-2.761-2.239-5-5-5s-5 2.239-5 5v5.344c-7.653 1.476-13.455 8.228-13.455 16.321 0 9.169 7.444 16.628 16.594 16.628h3.721c3.636 0 6.595 2.974 6.595 6.628s-2.958 6.628-6.595 6.628h-12.6c-2.761 0-5 2.239-5 5s2.239 5 5 5h5.74v5.036c0 2.761 2.239 5 5 5s5-2.239 5-5v-5.344c7.654-1.476 13.456-8.228 13.456-16.321z" fill="#fff"/></g><g><g id="XMLID_13_"><path d="m460.838 41.21-27.784-37.056c-3.113-4.152-9.336-4.154-12.449-.003-7.274 9.702-19.385 25.855-27.788 37.062-3.849 5.133-.185 12.457 6.228 12.457h8.618v49.255h38.331v-49.255h8.617c6.414 0 10.076-7.327 6.227-12.46z" fill="#35c9ad"/></g><g id="XMLID_12_"><path d="m82.637 181.21-27.784-37.056c-3.113-4.152-9.336-4.154-12.449-.003-7.274 9.702-19.385 25.855-27.788 37.062-3.849 5.133-.185 12.456 6.228 12.456h8.618v49.255h38.331v-49.254h8.617c6.414 0 10.076-7.327 6.227-12.46z" fill="#35c9ad"/></g></g><g><path d="m463 466.961h-458c-2.761 0-5-2.239-5-5s2.239-5 5-5h458c2.761 0 5 2.239 5 5s-2.239 5-5 5z" fill="#9bb6c6"/></g></g></svg>