<svg id="Layer_1" enable-background="new 0 0 468.704 468.704" height="512" viewBox="0 0 468.704 468.704" width="512" xmlns="http://www.w3.org/2000/svg"><g><g><g><path d="m92.052 157.235c-2.761 0-5-2.239-5-5v-15.782c0-46.869 38.131-85 85-85h169.426c2.762 0 5 2.239 5 5s-2.238 5-5 5h-169.426c-41.355 0-75 33.645-75 75v15.782c0 2.761-2.238 5-5 5z" fill="#9bb6c6"/></g><g><path d="m92.052 195.142c-2.761 0-5-2.239-5-5v-12c0-2.761 2.239-5 5-5s5 2.239 5 5v12c0 2.761-2.238 5-5 5z" fill="#9bb6c6"/></g></g><g><g><path d="m37.667 330.139h108.772c12.627 0 22.864 10.236 22.864 22.864v.461c0 12.627-10.236 22.864-22.864 22.864h-108.772c-12.627 0-22.864-10.236-22.864-22.864v-.461c0-12.627 10.237-22.864 22.864-22.864z" fill="#fdbf38"/></g><g><path d="m37.667 422.516h108.772c12.627 0 22.864 10.236 22.864 22.864v.461c0 12.627-10.236 22.864-22.864 22.864h-108.772c-12.627 0-22.864-10.236-22.864-22.864v-.461c0-12.628 10.237-22.864 22.864-22.864z" fill="#fdbf38"/></g><g><path d="m37.667 376.328h108.772c12.627 0 22.864 10.236 22.864 22.864v.461c0 12.627-10.236 22.864-22.864 22.864h-108.772c-12.627 0-22.864-10.236-22.864-22.864v-.461c0-12.628 10.237-22.864 22.864-22.864z" fill="#ffd085"/></g><g><g><ellipse cx="92.053" cy="273.687" fill="#35c9ad" rx="55.923" ry="56.452"/></g><path d="m110.507 285.315c0-9.169-7.444-16.628-16.595-16.628h-3.721c-3.636 0-6.594-2.974-6.594-6.628s2.958-6.628 6.594-6.628h12.6c2.761 0 5-2.239 5-5s-2.239-5-5-5h-5.74v-5.037c0-2.761-2.239-5-5-5s-5 2.239-5 5v5.344c-7.653 1.476-13.455 8.228-13.455 16.32 0 9.169 7.444 16.628 16.594 16.628h3.721c3.636 0 6.595 2.974 6.595 6.628s-2.958 6.628-6.595 6.628h-12.6c-2.761 0-5 2.239-5 5s2.239 5 5 5h5.739v5.036c0 2.761 2.239 5 5 5s5-2.239 5-5v-5.344c7.655-1.474 13.457-8.226 13.457-16.319z" fill="#fff"/></g></g><g><g><g><path d="m421.202 222.135h-176.914v67.435c0 10.01 3.005 19.79 8.625 28.073l17.765 26.183c5.62 8.283 8.625 18.063 8.625 28.073v59.725h124.392v-63.154c0-7.845 1.846-15.58 5.389-22.58l24.237-47.886c3.543-7 5.389-14.735 5.389-22.58v-35.717c0-9.704-7.839-17.572-17.508-17.572z" fill="#ffdecf"/></g></g><g><g><g><path d="m353.71 170.637c-12.086 0-21.884 9.835-21.884 21.966v47.668c0 12.132 9.798 21.966 21.884 21.966 12.086 0 21.884-9.835 21.884-21.966v-47.668c0-12.131-9.798-21.966-21.884-21.966z" fill="#ffdecf"/></g><g><path d="m369.71 254.238c-12.086 0-21.884-9.835-21.884-21.966v-47.668c0-5.294 1.867-10.151 4.974-13.943-11.664.479-20.974 10.118-20.974 21.943v47.668c0 12.132 9.798 21.966 21.884 21.966 6.812 0 12.896-3.125 16.91-8.023-.302.012-.605.023-.91.023z" fill="#ffc7b3"/></g></g><g><g><path d="m397.479 112.81c-12.086 0-21.884 9.835-21.884 21.966v95.979c0 12.132 9.798 21.966 21.884 21.966 12.086 0 21.884-9.835 21.884-21.966v-95.979c0-12.131-9.798-21.966-21.884-21.966z" fill="#ffdecf"/></g><g><path d="m413.478 244.722c-12.086 0-21.884-9.835-21.884-21.966v-95.979c0-5.294 1.867-10.15 4.974-13.943-11.664.479-20.974 10.118-20.974 21.943v95.979c0 12.132 9.798 21.966 21.884 21.966 6.812 0 12.896-3.125 16.91-8.023-.302.012-.604.023-.91.023z" fill="#ffc7b3"/></g></g><g><ellipse cx="397.479" cy="56.452" fill="#f761a6" rx="55.923" ry="56.452"/></g><path d="m415.933 68.081c0-9.169-7.444-16.628-16.595-16.628h-3.721c-3.636 0-6.594-2.974-6.594-6.628s2.958-6.628 6.594-6.628h12.601c2.762 0 5-2.239 5-5s-2.238-5-5-5h-5.74v-5.036c0-2.761-2.238-5-5-5s-5 2.239-5 5v5.344c-7.652 1.476-13.454 8.228-13.454 16.321 0 9.169 7.444 16.628 16.594 16.628h3.721c3.637 0 6.595 2.974 6.595 6.628s-2.958 6.628-6.595 6.628h-12.6c-2.762 0-5 2.239-5 5s2.238 5 5 5h5.739v5.036c0 2.761 2.238 5 5 5s5-2.239 5-5v-5.344c7.653-1.476 13.455-8.229 13.455-16.321z" fill="#fff"/><g><g><path d="m266.173 188.21c-12.086 0-21.884 9.835-21.884 21.966v30.095c0 12.132 9.798 21.966 21.884 21.966 12.086 0 21.884-9.835 21.884-21.966v-30.095c0-12.131-9.798-21.966-21.884-21.966z" fill="#ffdecf"/></g><g><path d="m258.288 232.272v-30.095c0-5.205 1.807-9.984 4.821-13.748-10.635 1.496-18.821 10.66-18.821 21.748v30.095c0 12.132 9.798 21.966 21.884 21.966 6.901 0 13.052-3.209 17.063-8.219-1.001.141-2.023.219-3.063.219-12.086 0-21.884-9.835-21.884-21.966z" fill="#ffc7b3"/></g></g><g><g><path d="m309.941 179.423c-12.086 0-21.884 9.835-21.884 21.966v38.882c0 12.132 9.798 21.966 21.884 21.966 12.086 0 21.884-9.835 21.884-21.966v-38.881c.001-12.132-9.797-21.967-21.884-21.967z" fill="#ffdecf"/></g><g><path d="m304.057 232.272v-38.882c0-5.294 1.866-10.15 4.974-13.943-11.664.479-20.974 10.118-20.974 21.943v38.882c0 12.132 9.798 21.966 21.884 21.966 6.812 0 12.896-3.125 16.91-8.023-.302.012-.605.023-.91.023-12.086 0-21.884-9.835-21.884-21.966z" fill="#ffc7b3"/></g></g></g><g><path d="m407.493 349.034 25.828-51.029c3.543-7 5.389-14.735 5.389-22.58v-35.717c0-9.705-7.838-17.573-17.507-17.573h-101.155c0 24.315 19.638 44.026 43.862 44.026h9.667s-32.901 24.255-36.692 69.488" fill="#ffdecf"/></g><path d="m421.202 222.135h-96.949c-2.368 0-4.221 2.048-3.988 4.405 2.202 22.247 20.902 39.621 43.645 39.621h9.667s-32.9 24.255-36.692 69.488l11.958 1.002c3.263-38.93 31.611-60.647 31.855-60.831 4.698-3.463 6.293-9.883 3.505-15.239-2.102-4.039-6.439-6.42-10.992-6.42h-9.301c-13.349 0-24.808-8.295-29.541-20.026h86.834c3.036 0 5.507 2.5 5.507 5.573v35.717c0 5.934-1.416 11.868-4.096 17.161l-27.53 53.304c-3.543 7-5.389 14.735-5.389 22.58v63.154h14v-63.154c0-7.845 1.846-15.58 5.389-22.58l10.957-21.649 13.28-26.237c3.543-7 5.389-14.735 5.389-22.58v-35.717c0-9.704-7.839-17.572-17.508-17.572z" fill="#ffc7b3"/></g><g><g><path d="m416.664 468.704h-150v-69.978h149.632z" fill="#6262f4"/></g><g><circle cx="387.363" cy="427.884" fill="#fff" r="9"/></g></g><g><path d="m463.352 468.704h-458c-2.761 0-5-2.239-5-5s2.239-5 5-5h458c2.762 0 5 2.239 5 5s-2.238 5-5 5z" fill="#9bb6c6"/></g></g></svg>