<svg id="Layer_1" enable-background="new 0 0 468.292 468.292" height="512" viewBox="0 0 468.292 468.292" width="512" xmlns="http://www.w3.org/2000/svg"><g><g><g><g><path d="m55.328 242.419c8.256-8.103 21.371-8.443 30.037-.781l88.04 77.851c8.744 7.732 13.772 18.829 13.82 30.501l.274 67.244-88.366-.241.284-25.096c-.222-7.623-3.271-14.892-8.549-20.38l-75.24-78.239c-7.013-7.293-11.077-16.924-11.409-27.036l-4.205-128.223c-.474-14.461 10.827-26.587 25.286-27.13 14.017-.527 25.979 10.044 27.179 24.02l8.87 103.281" fill="#ffdecf"/></g><g><path d="m103.149 361.283-75.24-78.239c-7.013-7.293-11.077-16.924-11.409-27.036l-4.204-128.224c-.181-5.507 1.35-10.673 4.109-14.992-9.921 4.025-16.762 13.91-16.391 25.227l4.204 128.224c.332 10.112 4.396 19.743 11.409 27.036l75.24 78.239c5.278 5.489 8.327 12.757 8.549 20.38l-.284 25.096 12.345.034.221-35.364c-.221-7.624-3.27-14.893-8.549-20.381z" fill="#ffc7b3"/></g><g><path d="m67.89 263.915c-6.548-6.203-8.407-15.429-5.59-23.375l-.933-2.304c-2.179 1.028-4.23 2.408-6.04 4.184-8.912 8.746-8.785 23.143.281 31.73l53.434 50.907 9.416-12.95z" fill="#ffc7b3"/></g><g><g><path d="m98.775 417.059 89.092.1c9.033.01 16.352 7.333 16.357 16.366l.011 18.235c.005 9.055-7.339 16.395-16.394 16.385l-89.092-.1c-9.033-.01-16.352-7.333-16.357-16.366l-.011-18.235c-.006-9.055 7.339-16.395 16.394-16.385z" fill="#6262f4"/></g><g><circle cx="108.438" cy="442.603" fill="#fff" r="8.188"/></g></g></g><g><g><path d="m379.777 305.321 32.907-31.171c9.066-8.587 9.193-22.984.281-31.73-8.256-8.103-21.371-8.443-30.037-.781l-88.04 77.851c-8.744 7.732-13.772 18.829-13.82 30.501l-.274 67.244 88.366-.241-.284-25.096c.222-7.623 3.271-14.892 8.549-20.38l75.24-78.239c7.013-7.293 11.077-16.924 11.409-27.036l4.204-128.224c.474-14.461-10.827-26.587-25.286-27.13-14.017-.527-25.979 10.044-27.179 24.02l-8.87 103.281" fill="#ffdecf"/></g><g><path d="m365.142 361.283 75.24-78.239c7.013-7.293 11.077-16.924 11.409-27.036l4.204-128.224c.181-5.507-1.35-10.673-4.109-14.992 9.921 4.025 16.762 13.91 16.391 25.227l-4.204 128.224c-.332 10.112-4.396 19.743-11.409 27.036l-75.24 78.239c-5.278 5.489-8.328 12.757-8.549 20.38l.284 25.096-12.345.034-.221-35.364c.222-7.624 3.271-14.893 8.549-20.381z" fill="#ffc7b3"/></g><g><path d="m400.402 263.915c6.548-6.203 8.407-15.429 5.59-23.375l.933-2.304c2.179 1.028 4.23 2.408 6.04 4.184 8.912 8.746 8.785 23.143-.281 31.73l-53.434 50.907-9.416-12.95z" fill="#ffc7b3"/></g><g><g><path d="m369.517 417.059-89.092.1c-9.033.01-16.352 7.333-16.357 16.366l-.011 18.235c-.005 9.055 7.339 16.395 16.394 16.385l89.092-.1c9.033-.01 16.352-7.333 16.357-16.366l.011-18.235c.005-9.055-7.339-16.395-16.394-16.385z" fill="#6262f4"/></g><g><circle cx="359.854" cy="442.603" fill="#fff" r="8.188"/></g></g></g></g><g><g><path d="m233.869 48.619c-59.262-137.135-286.318 42.367-4.589 219.386 303.233-171.123 53.85-355.998 4.589-219.386z" fill="#f761a6"/></g><g><g><g><path d="m291.461 96.516c0-31.654-25.661-57.315-57.315-57.315s-57.315 25.661-57.315 57.315c0 17.914 8.223 33.904 21.096 44.414h72.438c12.873-10.51 21.096-26.499 21.096-44.414z" fill="#e0e9ef"/></g></g><g><path d="m252.523 106.833c0-9.102-7.389-16.507-16.473-16.507h-3.808c-4.004 0-7.261-3.273-7.261-7.296s3.257-7.296 7.261-7.296h12.895c2.544 0 4.606-2.062 4.606-4.606s-2.062-4.606-4.606-4.606h-6.386v-5.666c0-2.544-2.062-4.606-4.606-4.606s-4.606 2.062-4.606 4.606v5.908c-7.8 1.298-13.771 8.087-13.771 16.265 0 9.102 7.389 16.507 16.473 16.507h3.808c4.004 0 7.261 3.273 7.261 7.296 0 4.022-3.257 7.295-7.261 7.295h-12.895c-2.544 0-4.606 2.062-4.606 4.606s2.062 4.606 4.606 4.606h6.386v5.667c0 2.544 2.062 4.606 4.606 4.606s4.606-2.062 4.606-4.606v-5.908c7.799-1.297 13.771-8.087 13.771-16.265z" fill="#35c9ad"/></g><g><path d="m300.672 145.931h-133.052c-2.762 0-5-2.239-5-5s2.238-5 5-5h133.053c2.762 0 5 2.239 5 5s-2.239 5-5.001 5z" fill="#e54a91"/></g></g></g></g></svg>