<svg id="Layer_1" enable-background="new 0 0 468 468" height="512" viewBox="0 0 468 468" width="512" xmlns="http://www.w3.org/2000/svg"><g><g fill="#9bb6c6"><path d="m447.519 313.568c-.062-3.462-4.051-5.859-7.136-4.287l-38.829 18.393c-2.495 1.182-3.561 4.164-2.378 6.659 1.182 2.497 4.164 3.56 6.659 2.378l26.935-12.758c-10.726 22.962-25.346 43.797-43.609 62.06-12.491 12.49-26.382 23.421-41.285 32.489-2.359 1.436-3.108 4.511-1.673 6.871 1.444 2.379 4.55 3.095 6.87 1.672 15.584-9.481 30.104-20.907 43.158-33.96 17.27-17.271 31.421-36.75 42.269-58.087l1.017 21.953c.125 2.68 2.336 4.769 4.991 4.769.078 0 .156-.002.235-.005 2.759-.128 4.891-2.468 4.764-5.226z"/><path d="m122.45 421.862-12.81-41.011c-.822-2.636-3.627-4.105-6.263-3.282-2.637.823-4.105 3.627-3.282 6.263l8.464 27.098c-10.562-7.381-20.523-15.722-29.721-24.918-21.388-21.388-37.803-46.294-48.79-74.024-1.018-2.567-3.925-3.824-6.49-2.807-2.567 1.017-3.824 3.923-2.807 6.49 11.493 29.007 28.657 55.052 51.017 77.412 8.592 8.591 17.837 16.448 27.588 23.533l-23.991-2.245c-2.746-.266-5.187 1.762-5.444 4.512s1.764 5.187 4.513 5.444l42.778 4.003c3.425.428 6.37-3.196 5.238-6.468z"/></g><g><g><g><circle cx="406.69" cy="210.873" fill="#fdbf38" r="61.31"/></g><path d="m425.266 223.263c0-9.588-7.491-17.389-16.698-17.389h-3.755c-3.693 0-6.698-3.315-6.698-7.39s3.005-7.39 6.698-7.39h12.714c2.762 0 5-2.239 5-5s-2.238-5-5-5h-5.836v-5.693c0-2.761-2.238-5-5-5s-5 2.239-5 5v6.009c-7.719 1.528-13.576 8.597-13.576 17.074 0 9.589 7.491 17.39 16.698 17.39h3.755c3.693 0 6.698 3.315 6.698 7.389 0 4.075-3.005 7.39-6.698 7.39h-12.714c-2.762 0-5 2.239-5 5s2.238 5 5 5h5.837v5.693c0 2.761 2.238 5 5 5s5-2.239 5-5v-6.009c7.718-1.529 13.575-8.598 13.575-17.074z" fill="#fff"/></g><g><g><circle cx="61.31" cy="210.873" fill="#fdbf38" r="61.31"/></g><path d="m79.886 223.263c0-9.588-7.491-17.389-16.698-17.389h-3.755c-3.693 0-6.698-3.315-6.698-7.39s3.005-7.39 6.698-7.39h12.714c2.762 0 5-2.239 5-5s-2.238-5-5-5h-5.837v-5.693c0-2.761-2.238-5-5-5s-5 2.239-5 5v6.009c-7.718 1.529-13.575 8.597-13.575 17.074 0 9.589 7.491 17.39 16.698 17.39h3.755c3.693 0 6.698 3.315 6.698 7.389 0 4.075-3.005 7.39-6.698 7.39h-12.714c-2.762 0-5 2.239-5 5s2.238 5 5 5h5.836v5.693c0 2.761 2.238 5 5 5s5-2.239 5-5v-6.009c7.718-1.529 13.576-8.598 13.576-17.074z" fill="#fff"/></g><g><g><circle cx="320.345" cy="61.319" fill="#ffd085" r="61.31"/></g><path d="m338.921 73.709c0-9.589-7.491-17.39-16.699-17.39h-3.754c-3.693 0-6.698-3.315-6.698-7.39 0-4.074 3.005-7.389 6.698-7.389h12.714c2.762 0 5-2.239 5-5s-2.238-5-5-5h-5.837v-5.693c0-2.761-2.238-5-5-5s-5 2.239-5 5v6.009c-7.718 1.529-13.575 8.597-13.575 17.073 0 9.589 7.491 17.39 16.698 17.39h3.754c3.694 0 6.699 3.315 6.699 7.39s-3.005 7.39-6.699 7.39h-12.713c-2.762 0-5 2.239-5 5s2.238 5 5 5h5.836v5.693c0 2.761 2.238 5 5 5s5-2.239 5-5v-6.009c7.719-1.529 13.576-8.597 13.576-17.074z" fill="#fff"/></g><g><g><circle cx="147.655" cy="61.319" fill="#ffd085" r="61.31"/></g><path d="m166.23 73.709c0-9.589-7.491-17.39-16.698-17.39h-3.754c-3.694 0-6.699-3.315-6.699-7.39 0-4.074 3.005-7.389 6.699-7.389h12.713c2.762 0 5-2.239 5-5s-2.238-5-5-5h-5.836v-5.693c0-2.761-2.238-5-5-5s-5 2.239-5 5v6.009c-7.719 1.529-13.576 8.597-13.576 17.073 0 9.589 7.491 17.39 16.699 17.39h3.754c3.693 0 6.698 3.315 6.698 7.39s-3.005 7.39-6.698 7.39h-12.714c-2.762 0-5 2.239-5 5s2.238 5 5 5h5.837v5.693c0 2.761 2.238 5 5 5s5-2.239 5-5v-6.009c7.719-1.529 13.575-8.598 13.575-17.074z" fill="#fff"/></g></g><g><g><path d="m305.528 467.991h-143.056v-54.333c0-39.504 32.024-71.528 71.528-71.528 39.504 0 71.528 32.024 71.528 71.528z" fill="#6262f4"/></g><g><ellipse cx="234" cy="285.814" fill="#ffc7b3" rx="56.122" ry="56.315"/></g><g><path d="m234 229.499c-1.076 0-2.143.037-3.204.097-.06 1.065-.097 2.136-.097 3.215 0 31.102 25.127 56.315 56.122 56.315 1.076 0 2.143-.037 3.204-.097.06-1.065.097-2.136.097-3.215 0-31.102-25.127-56.315-56.122-56.315z" fill="#6c6c6c"/></g></g></g></svg>