<svg id="Layer_1" enable-background="new 0 0 468 468" height="512" viewBox="0 0 468 468" width="512" xmlns="http://www.w3.org/2000/svg"><g><g><g><g><path d="m234 405.332c-2.761 0-5-2.239-5-5v-195.042c0-2.761 2.239-5 5-5s5 2.239 5 5v195.042c0 2.761-2.239 5-5 5z" fill="#9bb6c6"/></g><g><g><ellipse cx="234" cy="431.689" fill="#6262f4" rx="31.339" ry="31.358"/></g><g><path d="m234 441.096c5.184 0 9.402-4.22 9.402-9.407s-4.217-9.407-9.402-9.407c-5.184 0-9.402 4.22-9.402 9.407 0 5.188 4.218 9.407 9.402 9.407z" fill="#fff"/></g></g></g><g><g><path d="m436.661 291.29h-73.125c-2.761 0-5-2.239-5-5v-112.357c0-2.761 2.239-5 5-5s5 2.239 5 5v107.357h68.125c2.761 0 5 2.239 5 5s-2.239 5-5 5z" fill="#9bb6c6"/></g><g><g><ellipse cx="436.661" cy="286.29" fill="#6262f4" rx="31.339" ry="31.358"/></g><g><path d="m436.661 295.698c5.184 0 9.402-4.22 9.402-9.407s-4.217-9.407-9.402-9.407c-5.184 0-9.402 4.22-9.402 9.407s4.218 9.407 9.402 9.407z" fill="#fff"/></g></g></g><g><g><path d="m372.938 384.895h-73.125c-2.761 0-5-2.239-5-5v-174.605c0-2.761 2.239-5 5-5s5 2.239 5 5v169.604h68.125c2.761 0 5 2.239 5 5s-2.239 5.001-5 5.001z" fill="#9bb6c6"/></g><g><g><ellipse cx="372.938" cy="379.895" fill="#f761a6" rx="31.339" ry="31.358"/></g><g><path d="m372.938 389.302c5.184 0 9.402-4.22 9.402-9.407s-4.217-9.407-9.402-9.407c-5.184 0-9.402 4.22-9.402 9.407s4.218 9.407 9.402 9.407z" fill="#fff"/></g></g></g><g><g><path d="m104.464 291.29h-73.125c-2.761 0-5-2.239-5-5s2.239-5 5-5h68.125v-107.357c0-2.761 2.239-5 5-5s5 2.239 5 5v112.357c0 2.761-2.238 5-5 5z" fill="#9bb6c6"/></g><g><g><ellipse cx="31.339" cy="286.29" fill="#6262f4" rx="31.339" ry="31.358"/></g><g><path d="m31.339 295.698c-5.184 0-9.402-4.22-9.402-9.407s4.217-9.407 9.402-9.407c5.184 0 9.402 4.22 9.402 9.407s-4.218 9.407-9.402 9.407z" fill="#fff"/></g></g></g><g><g><path d="m168.188 384.895h-73.125c-2.761 0-5-2.239-5-5s2.239-5 5-5h68.125v-169.605c0-2.761 2.239-5 5-5s5 2.239 5 5v174.604c0 2.762-2.239 5.001-5 5.001z" fill="#9bb6c6"/></g><g><g><ellipse cx="95.063" cy="379.895" fill="#f761a6" rx="31.339" ry="31.358"/></g><g><path d="m95.062 389.302c-5.184 0-9.402-4.22-9.402-9.407s4.217-9.407 9.402-9.407c5.184 0 9.402 4.22 9.402 9.407s-4.218 9.407-9.402 9.407z" fill="#fff"/></g></g></g></g><g><g><path d="m44.961 4.954h378.079v206.397h-378.079z" fill="#35c9ad"/></g><g><g><path d="m126.298 5.011c0-.019-.001-.038-.001-.058h-81.336v81.533c.02 0 .04.001.06.001 44.888 0 81.277-36.478 81.277-81.476z" fill="#25b79b"/></g><g><path d="m45.021 129.941c-.02 0-.04.002-.06.002v81.407h81.336c-.037-44.967-36.41-81.409-81.276-81.409z" fill="#25b79b"/></g><g><path d="m423.039 86.471v-81.518h-80.619c0 .02-.001.039-.001.058 0 44.777 36.036 81.104 80.62 81.46z" fill="#25b79b"/></g><g><path d="m423.039 129.958c-44.562.356-80.582 36.646-80.618 81.392h80.618z" fill="#25b79b"/></g></g><g><path d="m187.401 108.113c.019 28.799 20.898 52.162 46.634 52.183s46.584-23.307 46.564-52.106-20.898-52.162-46.634-52.183-46.583 23.307-46.564 52.106z" fill="#e0e9ef"/></g></g></g></svg>