<svg id="Layer_1" enable-background="new 0 0 468 468" height="512" viewBox="0 0 468 468" width="512" xmlns="http://www.w3.org/2000/svg"><g><g><path d="m395.887 311.073h-285.448v-286.606c0-13.513 10.955-24.467 24.467-24.467h295.643l-34.662 36.544z" fill="#e0e9ef"/></g><g><path d="m345.075 56.017h-183.442c-2.762 0-5-2.239-5-5s2.238-5 5-5h183.442c2.762 0 5 2.239 5 5s-2.238 5-5 5z" fill="#9bb6c6"/></g><g><path d="m345.075 106.99h-95.813c-2.762 0-5-2.239-5-5s2.238-5 5-5h95.813c2.762 0 5 2.239 5 5s-2.238 5-5 5z" fill="#9bb6c6"/></g><g><path d="m464.746 34.305c0-18.946-15.415-34.305-34.43-34.305s-34.429 15.359-34.429 34.305v47.098h68.858v-47.098z" fill="#9bb6c6"/></g><g><g><g><path d="m167.846 89.292c7.984-5.353 21.833-6.857 30.622-2.966 39.835 17.632-24.397 89.178-24.397 89.178h-91.376s-64.649-72.543-23.115-89.529c9.589-3.957 20.684-2.726 29.304 2.91 8.917 5.652 43.378 24.262 78.962.407z" fill="#6262f4"/></g><g><path d="m141.28 207.223h-25.403c-56.959 0-103.932 44.624-106.849 101.506l-5.713 111.375c-1.335 26.046 19.416 47.896 45.488 47.896h159.551c26.072 0 46.823-21.85 45.487-47.896l-5.712-111.375c-2.917-56.882-49.89-101.506-106.849-101.506z" fill="#6262f4"/></g><path d="m159.702 374.924c0-15.099-12.342-27.383-27.512-27.383h-7.225c-9.656 0-17.512-7.798-17.512-17.383s7.855-17.383 17.512-17.383h24.465c2.762 0 5-2.239 5-5s-2.238-5-5-5h-15.853v-14.319c0-2.761-2.238-5-5-5s-5 2.239-5 5v14.354c-14.528.722-26.124 12.712-26.124 27.348 0 15.099 12.342 27.383 27.512 27.383h7.225c9.656 0 17.512 7.798 17.512 17.383s-7.855 17.383-17.512 17.383h-24.465c-2.762 0-5 2.239-5 5s2.238 5 5 5h15.853v14.318c0 2.761 2.238 5 5 5s5-2.239 5-5v-14.354c14.528-.72 26.124-12.711 26.124-27.347z" fill="#fff"/><path d="m179.343 168.816h-101.463c-14.452 0-26.167 11.715-26.167 26.167 0 12.876 10.438 23.313 23.313 23.313h39.348l-13.239 36.71c-1.218 3.177 1.321 6.755 4.703 6.698 2.048 0 3.969-1.268 4.703-3.305l14.463-40.102h8.909l14.463 40.102c.933 2.624 3.87 3.939 6.399 3.007 2.598-.937 3.944-3.802 3.007-6.4l-13.239-36.71h37.655c12.876 0 23.313-10.438 23.313-23.313-.001-14.451-11.716-26.167-26.168-26.167z" fill="#ac9ef9"/></g><g><g><g><path d="m187.211 190.012h115.946v115.9h-115.946z" fill="#35c9ad"/></g><path d="m274.431 245.885h-24.247v-23.975c0-2.761-2.238-5-5-5s-5 2.239-5 5v23.975h-23.727c-2.762 0-5 2.239-5 5s2.238 5 5 5h23.727v23.975c0 2.761 2.238 5 5 5s5-2.239 5-5v-23.975h24.247c2.762 0 5-2.239 5-5s-2.239-5-5-5z" fill="#fff"/></g><g><g><path d="m187.211 305.912h115.946v115.9h-115.946z" fill="#f761a6"/></g><g><path d="m274.17 368.862h-57.973c-2.762 0-5-2.239-5-5s2.238-5 5-5h57.973c2.762 0 5 2.239 5 5s-2.238 5-5 5z" fill="#fff"/></g></g><g><g><path d="m303.157 190.012h115.946v115.9h-115.946z" fill="#fdbf38"/></g><path d="m368.277 251.069 17.145-17.145c1.953-1.953 1.953-5.119 0-7.071-1.951-1.952-5.119-1.952-7.07 0l-17.146 17.145-16.953-16.953c-1.951-1.952-5.119-1.952-7.07 0-1.953 1.953-1.953 5.119 0 7.071l16.953 16.953-16.777 16.777c-1.953 1.953-1.953 5.119 0 7.071 1.952 1.952 5.119 1.952 7.07 0l16.777-16.777 16.953 16.953c1.952 1.952 5.119 1.952 7.07 0 1.953-1.953 1.953-5.119 0-7.071z" fill="#fff"/></g><g><g><path d="m303.157 305.912h115.946v115.9h-115.946z" fill="#9bb6c6"/></g><g><path d="m386.616 386.702h-50.973c-2.762 0-5-2.239-5-5s2.238-5 5-5h50.973c2.762 0 5 2.239 5 5s-2.238 5-5 5z" fill="#fff"/></g><g><path d="m386.616 351.021h-50.973c-2.762 0-5-2.239-5-5s2.238-5 5-5h50.973c2.762 0 5 2.239 5 5s-2.238 5-5 5z" fill="#fff"/></g></g></g></g></g></svg>