<svg id="Capa_1" enable-background="new 0 0 512 512" height="512" viewBox="0 0 512 512" width="512" xmlns="http://www.w3.org/2000/svg"><path d="m419.19 266.174v-45.182c0-2.339-1.498-4.414-3.718-5.151l-36.712-12.176v39.608.618 39.608l36.712-12.176c2.22-.734 3.718-2.81 3.718-5.149z" fill="#ffc143"/><path d="m419.191 220.993v45.177c0 2.338-1.496 4.421-3.723 5.153l-36.711 12.177v-20.2l21.165-7.025c2.216-.731 3.712-2.815 3.712-5.153v-39.204l11.834 3.923c2.227.741 3.723 2.814 3.723 5.152z" fill="#ffb509"/><path d="m419.19 345.237v-45.182c0-2.339-1.498-4.414-3.718-5.151l-36.712-12.176v39.608.618 39.608l36.712-12.176c2.22-.735 3.718-2.81 3.718-5.149z" fill="#ff5ca8"/><path d="m419.191 300.055v45.177c0 2.338-1.496 4.421-3.723 5.153l-36.711 12.178v-20.201l21.165-7.025c2.216-.731 3.712-2.815 3.712-5.153v-39.204l11.834 3.923c2.227.742 3.723 2.814 3.723 5.152z" fill="#ff3d98"/><path d="m373.1 478.372h-270.291c-5.523 0-10-4.477-10-10v-396.958c0-12.095 9.805-21.901 21.901-21.901h246.49c12.095 0 21.901 9.805 21.901 21.901v396.957c-.001 5.524-4.478 10.001-10.001 10.001z" fill="#fff5f5"/><path d="m383.1 71.414v396.959c0 5.523-4.477 10-10 10h-47.187c12.094 0 21.902-9.807 21.902-21.902v-385.057c0-12.094-9.807-21.902-21.902-21.902h35.285c12.097.001 21.902 9.806 21.902 21.902z" fill="#efe2dd"/><path d="m383.1 421.211h-290.291v-411.208c0-5.523 4.477-10 10-10h270.291c5.523 0 10 4.477 10 10z" fill="#9ae7fd"/><path d="m383.1 421.211v-411.211c0-5.523-4.477-10-10-10h-47.187c12.094 0 21.902 9.808 21.902 21.902v385.057 14.252z" fill="#64dcfc"/><path d="m327.084 272.837h-180.417c-2.758 0-4.994-2.236-4.994-4.994v-43.989c0-2.758 2.236-4.994 4.994-4.994h180.417c2.758 0 4.994 2.236 4.994 4.994v43.989c-.001 2.759-2.237 4.994-4.994 4.994z" fill="#00aaf2"/><path d="m327.084 272.837h-21.989v-53.976h21.989c2.758 0 4.994 2.236 4.994 4.994v43.989c-.001 2.758-2.237 4.993-4.994 4.993z" fill="#0091d0"/><path d="m196.028 444.749h-61.966v62.414c0 3.391 3.403 5.726 6.567 4.507l22.68-8.739c1.118-.431 2.356-.431 3.473 0l22.679 8.739c3.164 1.219 6.567-1.116 6.567-4.507z" fill="#ff5ca8"/><path d="m196.03 444.746v62.419c0 3.391-3.403 5.726-6.567 4.507l-4.857-1.871v-65.055z" fill="#ff3d98"/><circle cx="248.191" cy="110.819" fill="#fff5f5" r="78.184"/><path d="m326.371 110.818c0 43.185-35.005 78.19-78.18 78.19-15.55 0-30.032-4.534-42.196-12.354 7.59 2.457 15.68 3.785 24.089 3.785 43.175 0 78.18-35.005 78.18-78.19 0-27.625-14.332-51.914-35.974-65.826 31.39 10.167 54.081 39.63 54.081 74.395z" fill="#efe2dd"/><g fill="#00aaf2"><path d="m197.113 318.762h-53.797c-4.142 0-7.5-3.358-7.5-7.5s3.358-7.5 7.5-7.5h53.797c4.142 0 7.5 3.358 7.5 7.5s-3.358 7.5-7.5 7.5z"/><path d="m250.909 318.762h-20.828c-4.142 0-7.5-3.358-7.5-7.5s3.358-7.5 7.5-7.5h20.828c4.142 0 7.5 3.358 7.5 7.5s-3.358 7.5-7.5 7.5z"/><path d="m330.435 318.762h-49.119c-4.142 0-7.5-3.358-7.5-7.5s3.358-7.5 7.5-7.5h49.119c4.142 0 7.5 3.358 7.5 7.5s-3.358 7.5-7.5 7.5z"/><path d="m177.616 352.174h-34.3c-4.142 0-7.5-3.358-7.5-7.5s3.358-7.5 7.5-7.5h34.3c4.142 0 7.5 3.358 7.5 7.5s-3.358 7.5-7.5 7.5z"/><path d="m263.773 352.174h-62.183c-4.142 0-7.5-3.358-7.5-7.5s3.358-7.5 7.5-7.5h62.184c4.142 0 7.5 3.358 7.5 7.5s-3.359 7.5-7.501 7.5z"/><path d="m330.435 352.174h-37.843c-4.142 0-7.5-3.358-7.5-7.5s3.358-7.5 7.5-7.5h37.843c4.142 0 7.5 3.358 7.5 7.5s-3.358 7.5-7.5 7.5z"/><path d="m186.776 382.915h-43.46c-4.142 0-7.5-3.358-7.5-7.5s3.358-7.5 7.5-7.5h43.46c4.142 0 7.5 3.358 7.5 7.5s-3.358 7.5-7.5 7.5z"/><path d="m288.182 382.915h-73.64c-4.142 0-7.5-3.358-7.5-7.5s3.358-7.5 7.5-7.5h73.64c4.142 0 7.5 3.358 7.5 7.5s-3.358 7.5-7.5 7.5z"/><path d="m330.435 382.915h-16.901c-4.142 0-7.5-3.358-7.5-7.5s3.358-7.5 7.5-7.5h16.901c4.142 0 7.5 3.358 7.5 7.5s-3.358 7.5-7.5 7.5z"/></g><path d="m269.797 151.569h-43.217c-3.555 0-6.436-2.882-6.436-6.436v-26.751c0-11.174 9.058-20.231 20.231-20.231h15.626c11.173 0 20.231 9.058 20.231 20.231v26.751c.001 3.555-2.881 6.436-6.435 6.436z" fill="#ff5ca8"/><path d="m276.238 118.386v26.749c0 3.555-2.882 6.436-6.436 6.436h-8.509v-33.185c0-11.173-9.062-20.236-20.236-20.236h14.945c11.176 0 20.236 9.06 20.236 20.236z" fill="#ff3d98"/><circle cx="248.189" cy="85.539" fill="#ff5ca8" r="25.144"/><path d="m273.338 85.544c0 13.877-11.261 25.138-25.149 25.138-2.266 0-4.464-.304-6.549-.868 10.72-2.874 18.6-12.659 18.6-24.27 0-11.622-7.88-21.407-18.6-24.281 2.086-.564 4.284-.868 6.549-.868 13.888 0 25.149 11.261 25.149 25.149z" fill="#ff3d98"/><path d="m328.339 452.246h-194.277c-4.142 0-7.5-3.358-7.5-7.5s3.358-7.5 7.5-7.5h194.277c4.142 0 7.5 3.358 7.5 7.5s-3.358 7.5-7.5 7.5z" fill="#ff3d98"/></svg>