<svg id="Capa_1" enable-background="new 0 0 512 512" height="512" viewBox="0 0 512 512" width="512" xmlns="http://www.w3.org/2000/svg"><path d="m502 453.404h-492c-5.523 0-10-4.477-10-10v-374.808c0-5.523 4.477-10 10-10h492c5.523 0 10 4.477 10 10v374.807c0 5.523-4.477 10.001-10 10.001z" fill="#ffcd6b"/><path d="m511.997 68.596v374.808c0 5.523-4.477 10-10 10h-54.95c17.453 0 31.589-14.146 31.589-31.589v-331.63c0-17.443-14.136-31.589-31.589-31.589h54.95c5.523 0 10 4.477 10 10z" fill="#ffc143"/><path d="m344.262 239.85c-19.351-29.969-52.588-48.072-88.262-48.072-35.674 0-68.911 18.102-88.262 48.072l-137.89 213.554h226.152 226.153z" fill="#fa0"/><path d="m482.155 453.404h-44.08l-137.895-213.55c-15.287-23.684-39.234-39.952-66.216-45.739 7.163-1.538 14.548-2.337 22.035-2.337 35.673 0 68.907 18.099 88.261 48.076z" fill="#ff9500"/><path d="m256 58.596h-228.196l191.307 199.537c20.582 19.864 53.197 19.864 73.778 0l191.307-199.537z" fill="#ffe1a8"/><path d="m484.199 58.596-191.315 199.537c-15.001 14.476-36.4 18.401-54.863 11.766 6.862-2.462 13.332-6.377 18.906-11.766l191.305-199.537z" fill="#ffd98f"/></svg>