<svg id="Capa_1" enable-background="new 0 0 511.242 511.242" height="512" viewBox="0 0 511.242 511.242" width="512" xmlns="http://www.w3.org/2000/svg"><circle cx="262.726" cy="255.621" fill="#ff5757" r="207.752"/><path d="m470.476 255.621c0 114.74-93.01 207.75-207.75 207.75-50.18 0-96.21-17.79-132.11-47.41 28.29 14.43 60.31 22.56 94.24 22.56 114.74 0 207.76-93.01 207.76-207.75 0-64.54-29.43-122.21-75.6-160.31 67.35 34.35 113.46 104.37 113.46 185.16z" fill="#f72c2c"/><g fill="#fff5f5"><path d="m262.726 105.217c-4.143 0-7.5-3.358-7.5-7.5v-27.071c0-4.142 3.357-7.5 7.5-7.5s7.5 3.358 7.5 7.5v27.071c0 4.142-3.358 7.5-7.5 7.5z"/><path d="m262.726 448.096c-4.143 0-7.5-3.358-7.5-7.5v-27.071c0-4.142 3.357-7.5 7.5-7.5s7.5 3.358 7.5 7.5v27.071c0 4.142-3.358 7.5-7.5 7.5z"/><path d="m183.78 126.374c-2.592 0-5.113-1.345-6.502-3.751l-13.535-23.444c-2.071-3.587-.842-8.174 2.745-10.245 3.586-2.071 8.175-.843 10.245 2.745l13.535 23.444c2.071 3.587.842 8.174-2.745 10.245-1.18.682-2.47 1.006-3.743 1.006z"/><path d="m355.22 423.315c-2.592 0-5.113-1.345-6.502-3.751l-13.535-23.444c-2.071-3.587-.842-8.174 2.745-10.245 3.586-2.071 8.175-.843 10.245 2.745l13.535 23.444c2.071 3.587.842 8.174-2.745 10.245-1.181.682-2.471 1.006-3.743 1.006z"/><path d="m125.97 184.171c-1.272 0-2.563-.324-3.743-1.006l-23.443-13.536c-3.587-2.071-4.816-6.658-2.745-10.245 2.07-3.588 6.658-4.817 10.245-2.745l23.443 13.536c3.587 2.071 4.816 6.658 2.745 10.245-1.389 2.406-3.91 3.751-6.502 3.751z"/><path d="m422.911 355.61c-1.272 0-2.563-.324-3.743-1.006l-23.443-13.536c-3.587-2.071-4.816-6.658-2.745-10.245 2.069-3.588 6.658-4.817 10.245-2.745l23.443 13.536c3.587 2.071 4.816 6.658 2.745 10.245-1.389 2.406-3.91 3.751-6.502 3.751z"/><path d="m104.822 263.121h-27.071c-4.143 0-7.5-3.358-7.5-7.5s3.357-7.5 7.5-7.5h27.071c4.143 0 7.5 3.358 7.5 7.5s-3.357 7.5-7.5 7.5z"/><path d="m447.7 263.121h-27.071c-4.143 0-7.5-3.358-7.5-7.5s3.357-7.5 7.5-7.5h27.071c4.143 0 7.5 3.358 7.5 7.5s-3.357 7.5-7.5 7.5z"/><path d="m102.54 355.61c-2.592 0-5.112-1.345-6.502-3.751-2.071-3.587-.842-8.174 2.745-10.245l23.443-13.536c3.585-2.07 8.174-.842 10.245 2.745s.842 8.174-2.745 10.245l-23.443 13.536c-1.18.681-2.47 1.006-3.743 1.006z"/><path d="m399.481 184.171c-2.592 0-5.112-1.345-6.502-3.751-2.071-3.587-.842-8.174 2.745-10.245l23.443-13.536c3.585-2.07 8.173-.843 10.245 2.745 2.071 3.587.842 8.174-2.745 10.245l-23.443 13.536c-1.18.681-2.47 1.006-3.743 1.006z"/><path d="m170.231 423.315c-1.272 0-2.562-.324-3.743-1.006-3.587-2.071-4.816-6.658-2.745-10.245l13.535-23.444c2.07-3.587 6.656-4.817 10.245-2.745 3.587 2.071 4.816 6.658 2.745 10.245l-13.535 23.444c-1.388 2.406-3.91 3.751-6.502 3.751z"/><path d="m341.671 126.374c-1.272 0-2.562-.324-3.743-1.006-3.587-2.071-4.816-6.658-2.745-10.245l13.535-23.444c2.07-3.587 6.656-4.817 10.245-2.745 3.587 2.071 4.816 6.658 2.745 10.245l-13.535 23.444c-1.389 2.405-3.91 3.751-6.502 3.751z"/></g><path d="m499.143 331.52c-3.899-1.386-8.189.657-9.575 4.561-16.463 46.412-46.404 86.207-86.588 115.081-41.042 29.492-89.541 45.08-140.254 45.08-64.272 0-124.697-25.029-170.145-70.476s-70.477-105.872-70.477-170.145 25.03-124.698 70.477-170.145 105.872-70.476 170.145-70.476c43.009 0 85.212 11.481 122.046 33.203 32.908 19.406 60.818 46.493 81.255 78.693l-11.163-4.527c-3.837-1.557-8.211.293-9.769 4.131-1.557 3.838.293 8.212 4.132 9.769l33.557 13.61c.907.368 1.864.55 2.818.55 1.333 0 2.66-.355 3.836-1.055 2.018-1.201 3.355-3.277 3.617-5.609l4.097-36.55c.462-4.116-2.501-7.827-6.618-8.289-4.101-.467-7.826 2.501-8.288 6.618l-1.804 16.091c-21.848-35.422-52.156-65.184-88.051-86.351-39.141-23.084-83.979-35.284-129.665-35.284-68.279 0-132.471 26.589-180.751 74.87-48.281 48.28-74.87 112.473-74.87 180.751s26.589 132.471 74.87 180.751c48.28 48.28 112.473 74.87 180.751 74.87 53.873 0 105.399-16.563 149.007-47.898 42.679-30.667 74.482-72.94 91.972-122.248 1.384-3.904-.658-8.191-4.562-9.576z" fill="#64dcfc"/><path d="m223.895 187.622c18.927 0 36.549 12.4 36.549 33.122 0 35.243-51.723 46.664-51.723 63.633v3.916h45.359c3.589 0 6.689 4.242 6.689 9.137s-3.101 9.463-6.689 9.463h-58.086c-3.753 0-9.301-2.61-9.301-6.689v-15.827c0-26.106 52.539-39.975 52.539-62.98 0-6.689-4.406-14.521-15.175-14.521-7.995 0-14.521 4.242-14.521 14.358 0 3.916-4.079 7.832-11.095 7.832-5.548 0-9.627-2.61-9.627-11.421 0-18.602 16.97-30.023 35.081-30.023z" fill="#ffcd6b"/><path d="m307.432 280.951h-39.159c-4.079 0-7.179-2.774-7.179-7.505 0-1.305.326-2.774 1.142-4.242l38.67-76.034c1.958-4.079 5.547-5.547 8.974-5.547 3.753 0 10.605 3.263 10.605 8.158 0 .815-.326 1.794-.815 2.773l-31.327 62.654h19.09v-17.132c0-4.732 5.384-6.69 10.605-6.69 5.385 0 10.605 1.958 10.605 6.69v17.132h7.669c4.405 0 6.689 4.895 6.689 9.953 0 4.895-3.264 9.79-6.689 9.79h-7.669v19.253c0 4.405-5.221 6.689-10.605 6.689-5.222 0-10.605-2.284-10.605-6.689v-19.253z" fill="#ffcd6b"/></svg>