<svg id="Capa_1" enable-background="new 0 0 511.621 511.621" height="512" viewBox="0 0 511.621 511.621" width="512" xmlns="http://www.w3.org/2000/svg"><path d="m401.93 511.621h-292.239c-8.284 0-15-6.716-15-15v-481.621c0-8.284 6.716-15 15-15h292.239c8.284 0 15 6.716 15 15v481.621c0 8.284-6.716 15-15 15z" fill="#fff5f5"/><path d="m416.927 15v481.621c0 8.284-6.716 15-15 15h-45.641c15.994 0 28.963-12.969 28.963-28.963v-453.695c0-15.994-12.969-28.963-28.962-28.963h45.641c8.284 0 14.999 6.716 14.999 15z" fill="#efe2dd"/><path d="m401.93 511.621h-292.239c-8.284 0-15-6.716-15-15v-45.974h322.239v45.974c0 8.284-6.716 15-15 15z" fill="#7ca1b1"/><path d="m416.93 63.342h-322.239v-48.342c0-8.284 6.716-15 15-15h292.239c8.284 0 15 6.716 15 15z" fill="#7ca1b1"/><path d="m416.927 450.647v45.974c0 8.284-6.716 15-15 15h-45.703c15.994 0 28.952-12.969 28.952-28.963v-32.012h31.751z" fill="#678d98"/><path d="m416.927 15v48.342h-31.75v-34.379c0-15.994-12.958-28.963-28.952-28.963h45.703c8.284 0 14.999 6.716 14.999 15z" fill="#678d98"/><g fill="#537983"><path d="m278.526 484.492h-45.432c-4.264 0-7.719-3.456-7.719-7.719s3.456-7.719 7.719-7.719h45.432c4.264 0 7.719 3.456 7.719 7.719.001 4.263-3.455 7.719-7.719 7.719z"/><path d="m234.644 41.535h-21.167c-4.264 0-7.719-3.456-7.719-7.719s3.456-7.719 7.719-7.719h21.167c4.264 0 7.719 3.456 7.719 7.719s-3.456 7.719-7.719 7.719z"/><path d="m298.144 41.535h-39.077c-4.264 0-7.719-3.456-7.719-7.719s3.456-7.719 7.719-7.719h39.077c4.264 0 7.719 3.456 7.719 7.719s-3.455 7.719-7.719 7.719z"/></g><circle cx="255.81" cy="252.703" fill="#a3e72d" r="105.9"/><path d="m361.712 252.697c0 58.482-47.403 105.909-105.909 105.909-27.286 0-52.183-10.332-70.93-27.286 8.116 1.992 16.631 3.062 25.369 3.062 58.482 0 105.909-47.428 105.909-105.909 0-31.17-13.469-59.179-34.905-78.573 46.208 11.377 80.466 53.079 80.466 102.797z" fill="#80cf00"/><path d="m315.824 221.426-18.607-18.607c-2.877-2.877-7.543-2.877-10.42 0l-47.5 47.5-14.982-14.982c-2.199-2.199-5.763-2.199-7.962 0l-21.066 21.066c-2.199 2.199-2.199 5.763 0 7.962l39.374 38.224c2.877 2.877 7.543 2.877 10.42 0l70.742-70.742c2.879-2.878 2.879-7.543.001-10.421z" fill="#ff5757"/><path d="m315.826 231.845-70.744 70.744c-2.874 2.874-7.547 2.874-10.421 0l-5.305-5.147c.337-.232.652-.505.947-.8l78.481-78.481c.663-.663 1.189-1.411 1.568-2.21l5.473 5.473c2.874 2.885 2.874 7.548.001 10.421z" fill="#f72c2c"/></svg>