<svg id="Capa_1" enable-background="new 0 0 512 512" height="512" viewBox="0 0 512 512" width="512" xmlns="http://www.w3.org/2000/svg"><path d="m301.275 0h44.477c91.178 0 165.779 74.6 165.779 165.779 0 66.442-39.618 124.073-96.394 150.457-2.787 1.295-5.311 3.094-7.461 5.29l-60.426 61.705c-1.94 1.981-5.305.607-5.305-2.165v-41.257c0-4.557-3.694-8.251-8.251-8.251h-32.418c-91.178 0-165.778-74.6-165.778-165.778-.001-91.18 74.599-165.78 165.777-165.78z" fill="#a3e72d"/><path d="m511.529 166.735c0 33.417-9.901 64.617-26.909 90.784-16.997 26.156-41.091 47.279-69.485 60.553-2.785 1.3-5.312 3.105-7.457 5.312l-60.43 62.07c-1.939 1.991-5.301.608-5.301-2.176v-34.068l41.71-42.844c2.145-2.207 4.672-4.012 7.457-5.312 28.384-13.274 52.488-34.397 69.485-60.553 17.008-26.167 26.909-57.367 26.909-90.784 0-50.92-23-96.704-59.079-127.347 49.569 28.9 83.1 82.894 83.1 144.365z" fill="#80cf00"/><path d="m171.076 201.123h-36.09c-73.984 0-134.517 60.533-134.517 134.517 0 53.603 31.778 100.138 77.423 121.713 2.779 1.313 5.311 3.095 7.461 5.291l47.418 48.421c1.94 1.981 5.305.607 5.305-2.165v-30.491c0-4.557 3.694-8.251 8.251-8.251h24.749c73.984 0 134.517-60.533 134.517-134.517 0-73.986-60.533-134.518-134.517-134.518z" fill="#ffc143"/><path d="m305.59 335.637c0 57.696-36.821 107.214-88.123 126.212 35.542-25.764 58.996-69.104 58.996-117.971 0-39.255-15.131-74.941-39.513-100.819s-58.016-41.937-95.013-41.937h29.137c36.986 0 70.62 15.131 95.002 39.513 24.383 24.382 39.514 58.016 39.514 95.002z" fill="#ffb509"/><g fill="#ff5ca8"><path d="m172.069 290.214h-92.503c-4.272 0-7.735-3.463-7.735-7.735s3.463-7.736 7.735-7.736h92.503c4.272 0 7.736 3.463 7.736 7.736-.001 4.272-3.464 7.735-7.736 7.735z"/><path d="m226.495 346.941h-146.929c-4.272 0-7.735-3.463-7.735-7.735s3.463-7.736 7.735-7.736h146.93c4.272 0 7.735 3.463 7.735 7.736s-3.464 7.735-7.736 7.735z"/><path d="m226.495 403.668h-146.929c-4.272 0-7.735-3.463-7.735-7.736s3.463-7.736 7.735-7.736h146.93c4.272 0 7.735 3.463 7.735 7.736s-3.464 7.736-7.736 7.736z"/><circle cx="283.529" cy="195.966" r="85.922"/></g><path d="m369.453 195.965c0 47.455-38.466 85.922-85.922 85.922-20.462 0-39.248-7.148-54.004-19.098 9.97 4.047 20.87 6.279 32.291 6.279 47.455 0 85.922-38.466 85.922-85.922 0-26.993-12.446-51.086-31.918-66.823 31.449 12.759 53.631 43.608 53.631 79.642z" fill="#ff3d98"/><path d="m257.682 185.032v-1.501c0-17.911 11.047-24.561 25.097-24.561 14.158 0 25.313 6.65 25.313 24.561v29.924c0 17.911-11.37 24.561-25.956 24.561-17.053 0-24.453-10.618-24.453-19.627 0-4.398 2.145-5.792 6.543-5.792 3.861 0 7.292 1.073 7.292 5.256 0 5.041 5.041 7.936 11.047 7.936 7.187 0 11.584-3.861 11.584-12.334v-11.691c-3.539 4.183-8.688 5.47-14.265 5.47-12.12 0-22.202-5.256-22.202-22.202zm36.466-2.359c0-8.473-4.291-12.334-11.37-12.334-6.971 0-11.154 3.861-11.154 12.334v1.395c0 8.902 4.183 12.227 11.262 12.227 6.864 0 11.262-3.11 11.262-11.262z" fill="#fff5f5"/></svg>