<svg id="Capa_1" enable-background="new 0 0 512 512" height="512" viewBox="0 0 512 512" width="512" xmlns="http://www.w3.org/2000/svg"><path d="m151.475.158h-32.043c-65.688 0-119.432 53.744-119.432 119.432 0 47.591 28.215 88.908 68.74 108.063 2.467 1.166 4.715 2.748 6.624 4.697l42.1 42.991c1.722 1.759 4.71.539 4.71-1.922v-27.072c0-4.046 3.28-7.326 7.326-7.326h21.974c65.687 0 119.432-53.744 119.432-119.432 0-65.687-53.744-119.431-119.431-119.431z" fill="#9ae7fd"/><path d="m270.904 119.587c0 51.226-32.692 95.191-78.24 112.058 31.556-22.875 52.38-61.354 52.38-104.742 0-34.853-13.434-66.537-35.082-89.513s-51.51-37.234-84.357-37.234h25.869c32.838 0 62.7 13.434 84.348 35.082 21.648 21.649 35.082 51.511 35.082 84.349z" fill="#64dcfc"/><path d="m316.627 142.713 62.101-92.229c6.973-10.355 21.02-13.098 31.375-6.125l66.282 44.63c36.946 24.877 46.73 74.995 21.853 111.941l-185.37 275.3c-24.921 37.011-75.158 46.753-112.107 21.741l-66.052-44.714c-10.32-6.986-13.039-21.006-6.078-31.344l62.132-92.276c6.973-10.355 21.02-13.098 31.375-6.125l49.274 33.178c10.411 7.01 24.534 4.253 31.544-6.158l75.227-111.722c7.01-10.411 4.253-24.534-6.158-31.544l-49.274-33.178c-10.354-6.973-13.097-21.02-6.124-31.375z" fill="#ff5ca8"/><path d="m498.243 200.93-185.376 275.304c-24.916 37.003-75.161 46.749-112.102 21.74l-66.054-44.717c-1.454-.98-2.753-2.104-3.898-3.341l41.953 28.392c36.951 25.019 87.186 15.273 112.102-21.74l185.375-275.294c22.895-34.002 16.428-79.162-13.541-105.532l19.688 13.252c36.941 24.874 46.728 74.984 21.853 111.936z" fill="#ff3d98"/><path d="m322.752 174.088 19.406 13.066 87.351-129.729-19.406-13.066c-10.355-6.973-24.402-4.23-31.375 6.125l-62.101 92.229c-6.973 10.355-4.231 24.402 6.125 31.375z" fill="#fff5f5"/><path d="m134.788 453.242 19.406 13.066 87.351-129.729-19.406-13.066c-10.355-6.973-24.402-4.23-31.375 6.125l-62.101 92.229c-6.973 10.355-4.231 24.402 6.125 31.375z" fill="#fff5f5"/><g fill="#ffc143"><circle cx="190.158" cy="155.763" r="15.095"/><circle cx="135.453" cy="155.763" r="15.095"/><circle cx="80.749" cy="155.763" r="15.095"/></g></svg>