<svg id="Capa_1" enable-background="new 0 0 512 512" height="512" viewBox="0 0 512 512" width="512" xmlns="http://www.w3.org/2000/svg"><path d="m497 512h-482c-8.284 0-15-6.716-15-15v-482c0-8.284 6.716-15 15-15h482c8.284 0 15 6.716 15 15v482c0 8.284-6.716 15-15 15z" fill="#fff5f5"/><path d="m369.479 473.469h-319.207c-2.849 0-5.158-2.309-5.158-5.158v-84.703c0-2.849 2.309-5.158 5.158-5.158h319.207c2.849 0 5.158 2.309 5.158 5.158v84.703c0 2.849-2.31 5.158-5.158 5.158z" fill="#deecf1"/><path d="m369.479 473.469h-24.576v-95.019h24.576c2.849 0 5.158 2.309 5.158 5.158v84.703c0 2.849-2.31 5.158-5.158 5.158z" fill="#a8d3d8"/><path d="m512 89.664h-512v-74.664c0-8.284 6.716-15 15-15h482c8.284 0 15 6.716 15 15z" fill="#00aaf2"/><circle cx="61.019" cy="46.151" fill="#ff5757" r="16.961"/><circle cx="126.524" cy="46.151" fill="#ffc143" r="16.961"/><circle cx="192.028" cy="46.151" fill="#a3e72d" r="16.961"/><path d="m77.974 46.157c0 9.363-7.586 16.95-16.95 16.95-4.536 0-8.662-1.777-11.701-4.688 9.176-.199 16.564-7.703 16.564-16.938 0-4.84-2.022-9.188-5.26-12.274.129-.012.269-.012.397-.012 9.364 0 16.95 7.587 16.95 16.962z" fill="#ff4343"/><path d="m143.482 46.157c0 9.363-7.586 16.95-16.961 16.95-4.536 0-8.65-1.777-11.701-4.688 9.188-.199 16.576-7.703 16.576-16.938 0-4.84-2.022-9.188-5.26-12.274.129-.012.257-.012.386-.012 9.374 0 16.96 7.587 16.96 16.962z" fill="#ffb509"/><path d="m208.99 46.157c0 9.363-7.598 16.95-16.961 16.95-4.536 0-8.65-1.777-11.701-4.688 9.188-.199 16.564-7.703 16.564-16.938 0-4.84-2.022-9.188-5.26-12.274.129-.012.269-.012.397-.012 9.363 0 16.961 7.587 16.961 16.962z" fill="#80cf00"/><g fill="#7ca1b1"><path d="m101.556 417.212h-25.326c-4.142 0-7.5-3.358-7.5-7.5s3.358-7.5 7.5-7.5h25.326c4.142 0 7.5 3.358 7.5 7.5s-3.358 7.5-7.5 7.5z"/><path d="m284.425 417.212h-154.51c-4.142 0-7.5-3.358-7.5-7.5s3.358-7.5 7.5-7.5h154.51c4.142 0 7.5 3.358 7.5 7.5s-3.358 7.5-7.5 7.5z"/><path d="m260.955 449.708h-56.505c-4.142 0-7.5-3.358-7.5-7.5s3.358-7.5 7.5-7.5h56.505c4.142 0 7.5 3.358 7.5 7.5s-3.358 7.5-7.5 7.5z"/><path d="m174.899 449.708h-17.613c-4.142 0-7.5-3.358-7.5-7.5s3.358-7.5 7.5-7.5h17.613c4.142 0 7.5 3.358 7.5 7.5s-3.358 7.5-7.5 7.5z"/><path d="m128.937 449.708h-52.707c-4.142 0-7.5-3.358-7.5-7.5s3.358-7.5 7.5-7.5h52.707c4.142 0 7.5 3.358 7.5 7.5s-3.358 7.5-7.5 7.5z"/></g><path d="m67.814 238.007h234.779c12.485 0 22.7 10.215 22.7 22.7v31.898c0 12.485-10.215 22.7-22.7 22.7h-197.857s5.648 22.536-18.124 33.665c-3.228 1.511-6.743-1.441-5.75-4.865 2.31-7.966 4.074-20.206-2.964-28.8h-10.084c-12.485 0-22.7-10.215-22.7-22.7v-31.898c0-12.484 10.215-22.7 22.7-22.7z" fill="#ff5ca8"/><path d="m474.182 424.229-24.227-32.653c-.03-.041-.066-.076-.097-.116-.11-.142-.226-.28-.346-.414-.063-.071-.125-.142-.191-.21-.138-.143-.284-.278-.433-.41-.051-.045-.099-.094-.151-.138-.206-.172-.421-.334-.645-.483-.032-.021-.066-.039-.098-.06-.194-.125-.394-.243-.6-.35-.064-.033-.13-.062-.194-.094-.179-.087-.361-.168-.547-.241-.076-.029-.152-.057-.229-.084-.18-.064-.363-.12-.549-.17-.083-.022-.165-.044-.249-.064-.185-.043-.372-.076-.562-.105-.086-.013-.171-.029-.258-.039-.201-.023-.405-.035-.611-.042-.063-.002-.124-.012-.187-.013-.026 0-.051 0-.077 0-.279 0-.553.018-.825.047-.069.008-.137.022-.206.031-.204.028-.406.061-.604.105-.076.017-.151.039-.227.058-.189.048-.376.102-.559.165-.076.026-.152.055-.227.083-.179.068-.354.141-.526.222-.075.035-.149.07-.222.107-.171.087-.336.181-.499.281-.068.041-.136.08-.203.123-.182.119-.357.247-.528.381-.04.031-.082.058-.121.09-.205.168-.401.347-.587.535-.05.051-.096.107-.145.159-.134.144-.265.291-.387.445-.021.026-.045.048-.065.075l-25.28 32.653c-2.536 3.275-1.936 7.986 1.339 10.522 3.274 2.535 7.986 1.936 10.522-1.339l11.849-15.305v48.211c0 4.142 3.358 7.5 7.5 7.5s7.5-3.358 7.5-7.5v-47.455l10.703 14.426c1.472 1.983 3.736 3.032 6.029 3.032 1.553 0 3.12-.481 4.463-1.477 3.329-2.465 4.024-7.162 1.557-10.489z" fill="#00aaf2"/><path d="m512 15.474v481.049c0 8.552-6.922 15.474-15.474 15.474h-34.993c8.552 0 15.474-6.922 15.474-15.474v-481.049c0-8.552-6.922-15.474-15.474-15.474h34.993c8.552 0 15.474 6.922 15.474 15.474z" fill="#efe2dd"/><path d="m512 15.474v74.185h-34.993v-74.185c0-8.552-6.922-15.474-15.474-15.474h34.993c8.552 0 15.474 6.922 15.474 15.474z" fill="#0091d0"/><path d="m454.307 123.897h-234.779c-12.485 0-22.7 10.215-22.7 22.7v31.898c0 12.485 10.215 22.7 22.7 22.7h197.857s-5.648 22.536 18.124 33.665c3.228 1.511 6.743-1.441 5.75-4.865-2.31-7.966-4.074-20.206 2.964-28.8h10.084c12.485 0 22.7-10.215 22.7-22.7v-31.898c0-12.485-10.215-22.7-22.7-22.7z" fill="#ffc143"/></svg>