<svg id="Capa_1" enable-background="new 0 0 508.346 508.346" height="512" viewBox="0 0 508.346 508.346" width="512" xmlns="http://www.w3.org/2000/svg"><path d="m185.191 412.756h137.961v68.186h-137.961z" fill="#537983"/><path d="m299.262 412.756h23.89v68.189h-23.89z" fill="#3e5959"/><path d="m485.76 425.966h-463.178c-8.284 0-15-6.716-15-15v-348.563c0-8.284 6.716-15 15-15h463.178c8.284 0 15 6.716 15 15v348.564c0 8.284-6.716 14.999-15 14.999z" fill="#c9f0ff"/><path d="m500.763 62.406v348.561c0 8.284-6.716 15-15 15h-41.246c13.985 0 25.319-11.335 25.319-25.319v-327.923c0-13.985-11.335-25.319-25.319-25.319h41.246c8.285 0 15 6.715 15 15z" fill="#9ae7fd"/><path d="m367.856 508.342h-227.369c-2.741 0-4.963-2.222-4.963-4.963v-16.082c0-10.906 8.841-19.746 19.746-19.746h197.802c10.906 0 19.746 8.841 19.746 19.746v16.082c0 2.741-2.221 4.963-4.962 4.963z" fill="#7ca1b1"/><path d="m372.817 487.295v16.089c0 2.741-2.222 4.963-4.963 4.963h-17.518v-21.051c0-10.898-8.844-19.741-19.741-19.741h22.481c10.903-.002 19.741 8.837 19.741 19.74z" fill="#678d98"/><path d="m391.664 364.968h-274.982v-352.528c0-6.87 5.57-12.44 12.44-12.44h250.102c6.87 0 12.44 5.57 12.44 12.44z" fill="#fff5f5"/><path d="m391.664 364.968h-28.391v-364.968h15.952c6.87 0 12.44 5.57 12.44 12.44v352.528z" fill="#efe2dd"/><path d="m232.255 320.787h-74.239c-2.824 0-5.114-2.29-5.114-5.114v-27.305c0-2.824 2.29-5.114 5.114-5.114h74.239c2.824 0 5.114 2.29 5.114 5.114v27.305c0 2.824-2.289 5.114-5.114 5.114z" fill="#ffc143"/><path d="m350.33 320.787h-74.239c-2.824 0-5.114-2.29-5.114-5.114v-27.305c0-2.824 2.29-5.114 5.114-5.114h74.239c2.824 0 5.114 2.29 5.114 5.114v27.305c0 2.824-2.29 5.114-5.114 5.114z" fill="#ffc143"/><path d="m350.33 320.787h-16.79v-37.533h16.79c2.824 0 5.114 2.29 5.114 5.114v27.305c0 2.824-2.29 5.114-5.114 5.114z" fill="#ffb509"/><path d="m231.633 320.787h-16.79v-37.533h16.79c2.824 0 5.114 2.29 5.114 5.114v27.305c0 2.824-2.29 5.114-5.114 5.114z" fill="#ffb509"/><circle cx="254.173" cy="122.956" fill="#ff5757" r="91.787"/><path d="m345.962 122.953c0 50.692-41.097 91.789-91.789 91.789-23.126 0-44.258-8.551-60.398-22.666 10.433 4.122 21.807 6.382 33.713 6.382 50.692 0 91.789-41.087 91.789-91.789 0-27.586-12.172-52.328-31.442-69.143 34.039 13.43 58.127 46.621 58.127 85.427z" fill="#ff4343"/><path d="m276.034 161.773h-43.727c-3.597 0-6.512-2.916-6.512-6.512v-27.066c0-11.305 9.165-20.47 20.47-20.47h15.811c11.305 0 20.47 9.165 20.47 20.47v27.066c0 3.596-2.915 6.512-6.512 6.512z" fill="#fff5f5"/><path d="m282.551 128.198v27.065c0 3.597-2.916 6.512-6.512 6.512h-8.609v-33.577c0-11.305-9.169-20.474-20.474-20.474h15.122c11.306-.001 20.473 9.166 20.473 20.474z" fill="#efe2dd"/><circle cx="254.171" cy="86.846" fill="#fff5f5" r="25.441"/><path d="m279.617 86.851c0 14.04-11.394 25.435-25.446 25.435-2.293 0-4.517-.308-6.627-.878 10.847-2.908 18.819-12.809 18.819-24.556 0-11.759-7.973-21.659-18.819-24.568 2.11-.57 4.334-.878 6.627-.878 14.052-.001 25.446 11.393 25.446 25.445z" fill="#efe2dd"/><circle cx="322.671" cy="211.848" fill="#a3e72d" r="40.302"/><path d="m362.975 211.843c0 22.267-18.041 40.309-40.308 40.309-15.054 0-28.192-8.261-35.1-20.505 5.937 3.46 12.845 5.439 20.225 5.439 22.255 0 40.296-18.041 40.296-40.309 0-7.201-1.89-13.955-5.197-19.803 12.015 6.983 20.084 19.981 20.084 34.869z" fill="#80cf00"/><path d="m318.916 231.058c-1.885 0-3.713-.694-5.127-1.965l-8.253-7.414c-3.151-2.831-3.411-7.682-.579-10.833s7.68-3.412 10.834-.58l2.064 1.854 11.778-15.465c2.566-3.37 7.38-4.022 10.751-1.455s4.022 7.381 1.455 10.751l-16.819 22.083c-1.299 1.704-3.25 2.788-5.383 2.989-.242.024-.482.035-.721.035z" fill="#ff5757"/><path d="m500.76 364.925h-493.178v45.998c0 8.284 6.716 15 15 15h463.178c8.284 0 15-6.716 15-15z" fill="#7ca1b1"/><path d="m500.763 364.922v46c0 8.284-6.716 15-15 15h-41.246c13.985 0 25.319-11.335 25.319-25.319v-35.681z" fill="#678d98"/></svg>