<svg id="Capa_1" enable-background="new 0 0 512 512" height="512" viewBox="0 0 512 512" width="512" xmlns="http://www.w3.org/2000/svg"><path d="m467.126 510.173h-457.126c-5.523 0-10-4.477-10-10v-357.916h477.126v357.916c0 5.523-4.477 10-10 10z" fill="#a3e72d"/><path d="m477.123 142.257.003 3.684v354.232c0 5.523-4.477 10-10 10h-55.129c17.501 0 31.676-14.185 31.676-31.676v-336.24z" fill="#80cf00"/><path d="m259.798 7.862c-13.013-8.047-29.456-8.047-42.469 0l-217.329 134.395 206.216 205.06c17.895 17.794 46.801 17.794 64.695 0l206.216-205.06z" fill="#eefadb"/><path d="m238.563 62.999h-158.426c-4.565 0-8.265 3.7-8.265 8.265v142.462l134.347 133.594c8.946 8.896 20.645 13.344 32.345 13.344 11.699 0 23.398-4.448 32.345-13.344l134.347-133.594v-142.462c0-4.565-3.7-8.265-8.265-8.265z" fill="#fff5f5"/><path d="m321.441 309.646c-18.171-28.141-49.38-45.139-82.878-45.139-33.498 0-64.707 16.998-82.878 45.139l-129.479 200.527h212.358 212.358z" fill="#6db000"/><path d="m450.921 510.173h-41.391l-129.483-200.523c-14.354-22.239-36.84-37.515-62.177-42.949 6.726-1.444 13.661-2.195 20.691-2.195 33.497 0 64.704 16.995 82.877 45.143z" fill="#5a9200"/><circle cx="409.789" cy="119.288" fill="#ff5757" r="102.209"/><path d="m512 119.288c0 56.451-45.758 102.208-102.208 102.208-24.34 0-46.687-8.503-64.24-22.719 11.86 4.814 24.826 7.47 38.412 7.47 56.451 0 102.208-45.758 102.208-102.208 0-32.11-14.805-60.769-37.968-79.49 37.41 15.177 63.796 51.874 63.796 94.739z" fill="#f72c2c"/><path d="m429.936 139.432h28.952c3.994 0 7.232-3.238 7.232-7.232v-25.828c0-3.994-3.238-7.232-7.232-7.232h-28.952v-28.953c0-3.994-3.238-7.232-7.232-7.232h-25.828c-3.994 0-7.232 3.238-7.232 7.232v28.952h-28.952c-3.994 0-7.232 3.238-7.232 7.232v25.828c0 3.994 3.238 7.232 7.232 7.232h28.952v28.952c0 3.994 3.238 7.232 7.232 7.232h25.828c3.994 0 7.232-3.238 7.232-7.232z" fill="#fff5f5"/><path d="m429.937 168.388c0 3.989-3.236 7.225-7.232 7.232l-25.824-.007c-3.996.007-7.24-3.236-7.232-7.232v-6.195l19.63-.007c3.996.007 7.232-3.229 7.225-7.225l.005-21.481c.001-4.126 3.346-7.471 7.472-7.472l21.481-.005c3.996.007 7.232-3.229 7.232-7.232v-19.622h6.195c3.994 0 7.232 3.238 7.232 7.232v25.832c0 3.989-3.236 7.225-7.232 7.232l-28.951-.007z" fill="#efe2dd"/></svg>