<svg id="Capa_1" enable-background="new 0 0 512.148 512.148" height="512" viewBox="0 0 512.148 512.148" width="512" xmlns="http://www.w3.org/2000/svg"><path d="m429.527 512h-419.527c-5.523 0-10-4.477-10-10v-328.923h439.527v328.923c0 5.523-4.477 10-10 10z" fill="#ffcd6b"/><path d="m439.524 173.077.003 3.394v325.529c0 5.523-4.477 10-10 10h-49.996c16.122 0 29.18-13.067 29.18-29.18v-309.743z" fill="#ffc143"/><path d="m239.325 49.274c-11.987-7.413-27.135-7.413-39.123 0l-200.202 123.803 189.965 188.901c16.484 16.392 43.113 16.392 59.597 0l189.965-188.901z" fill="#ffe1a8"/><path d="m293.629 333.279c-16.195-25.081-44.01-40.231-73.865-40.231-29.855 0-57.671 15.15-73.865 40.231l-115.4 178.721h189.265 189.265z" fill="#fa0"/><path d="m409.028 512h-36.89l-115.402-178.717c-12.793-19.821-32.834-33.435-55.415-38.278 5.995-1.287 12.175-1.956 18.441-1.956 29.854 0 57.667 15.147 73.864 40.234z" fill="#ff9500"/><path d="m360.379.148h32.105c65.814 0 119.662 53.848 119.662 119.662 0 47.542-28.102 88.834-68.512 108.1-2.738 1.305-5.23 3.073-7.353 5.24l-41.232 42.105c-1.943 1.984-5.313.608-5.313-2.168v-25.351c0-4.564-3.7-8.264-8.264-8.264h-21.092c-65.814 0-119.662-53.848-119.662-119.662-.001-65.814 53.847-119.662 119.661-119.662z" fill="#fff5f5"/><path d="m512.148 119.814c0 23.769-7.024 45.979-19.11 64.645-12.076 18.677-29.203 33.82-49.408 43.448-2.737 1.312-5.227 3.078-7.345 5.248l-41.237 42.105c-1.942 1.983-5.31.599-5.31-2.169v-20.247l31.424-32.085c2.118-2.169 4.618-3.936 7.355-5.248 20.205-9.628 37.333-24.771 49.408-43.448 12.076-18.666 19.1-40.876 19.1-64.645 0-33.686-14.1-64.232-36.702-86.028 31.248 21.631 51.825 57.734 51.825 98.424z" fill="#efe2dd"/><g fill="#c9f0ff"><circle cx="311.793" cy="156.006" r="17.836"/><circle cx="376.431" cy="156.006" r="17.836"/><circle cx="441.069" cy="156.006" r="17.836"/></g><path d="m329.634 156.011c0 9.847-7.994 17.83-17.841 17.83-7.929 0-14.652-5.171-16.968-12.335 1.724.549 3.566.851 5.473.851 9.858 0 17.841-7.983 17.841-17.841 0-1.918-.302-3.76-.862-5.484 7.164 2.316 12.357 9.039 12.357 16.979z" fill="#9ae7fd"/><path d="m394.263 156.011c0 9.847-7.983 17.83-17.83 17.83-7.94 0-14.663-5.182-16.979-12.346 1.724.56 3.566.862 5.484.862 9.858 0 17.841-7.983 17.841-17.841 0-1.918-.302-3.76-.862-5.484 7.164 2.316 12.346 9.039 12.346 16.979z" fill="#9ae7fd"/><path d="m458.903 156.011c0 9.847-7.983 17.83-17.83 17.83-7.94 0-14.663-5.182-16.979-12.346 1.724.56 3.566.862 5.484.862 9.847 0 17.841-7.983 17.841-17.841 0-1.918-.302-3.76-.862-5.484 7.164 2.316 12.346 9.039 12.346 16.979z" fill="#9ae7fd"/></svg>