<svg id="Capa_1" enable-background="new 0 0 512 512" height="512" viewBox="0 0 512 512" width="512" xmlns="http://www.w3.org/2000/svg"><path d="m494.042 455.39h-484.042c-5.523 0-10-4.477-10-10v-378.781c0-5.523 4.477-10 10-10h492c5.523 0 10 4.477 10 10v370.823c0 9.918-8.04 17.958-17.958 17.958z" fill="#fff5f5"/><path d="m512 66.608v370.823c0 9.919-8.041 17.96-17.96 17.96h-15.687c2.886 0 5.215-2.339 5.215-5.215v-388.353c0-2.886-2.329-5.215-5.215-5.215h23.647c5.523 0 10 4.478 10 10z" fill="#efe2dd"/><path d="m502 455.39h-492c-5.523 0-10-4.477-10-10v-32.11h512v32.11c0 5.523-4.477 10-10 10z" fill="#c9f0ff"/><path d="m42.903 455.39 36.232-42.11h52.217l-35.167 42.11z" fill="#ff5757"/><path d="m155.484 455.39 36.233-42.11h52.217l-35.167 42.11z" fill="#0091d0"/><path d="m268.066 455.39 36.232-42.11h52.218l-35.167 42.11z" fill="#ff5757"/><path d="m380.648 455.39 36.232-42.11h52.217l-35.166 42.11z" fill="#0091d0"/><path d="m131.355 413.278-35.173 42.113h-29.144l35.172-42.113z" fill="#f72c2c"/><path d="m243.932 413.278-35.162 42.113h-29.144l35.162-42.113z" fill="#007baf"/><path d="m356.52 413.278-35.173 42.113h-29.144l35.163-42.113z" fill="#f72c2c"/><path d="m469.098 413.278-35.163 42.113h-29.154l35.173-42.113z" fill="#007baf"/><path d="m512 98.721h-512v-32.11c0-5.523 4.477-10 10-10h492c5.523 0 10 4.477 10 10z" fill="#c9f0ff"/><path d="m512 65.412v33.308h-28.433v-36.895c0-2.886-2.329-5.215-5.215-5.215h24.847c4.864.001 8.801 3.948 8.801 8.802z" fill="#9ae7fd"/><path d="m42.903 98.721 36.232-42.11h52.217l-35.167 42.11z" fill="#ff5757"/><path d="m155.484 98.721 36.233-42.11h52.217l-35.167 42.11z" fill="#0091d0"/><path d="m268.066 98.721 36.232-42.11h52.218l-35.167 42.11z" fill="#ff5757"/><path d="m380.648 98.721 36.232-42.11h52.217l-35.166 42.11z" fill="#0091d0"/><path d="m131.355 56.609-35.173 42.113h-29.144l35.172-42.113z" fill="#f72c2c"/><path d="m243.932 56.609-35.162 42.113h-29.144l35.162-42.113z" fill="#007baf"/><path d="m356.52 56.609-35.173 42.113h-29.144l35.163-42.113z" fill="#f72c2c"/><path d="m469.098 56.609-35.163 42.113h-29.154l35.173-42.113z" fill="#007baf"/><path d="m65.86 175.651h-20.56c-4.143 0-7.5-3.358-7.5-7.5s3.357-7.5 7.5-7.5h20.56c4.143 0 7.5 3.358 7.5 7.5s-3.357 7.5-7.5 7.5z" fill="#7ca1b1"/><path d="m217.403 175.651h-125.429c-4.143 0-7.5-3.358-7.5-7.5s3.357-7.5 7.5-7.5h125.43c4.143 0 7.5 3.358 7.5 7.5s-3.358 7.5-7.501 7.5z" fill="#7ca1b1"/><path d="m208.438 210.447h-50.808c-4.143 0-7.5-3.358-7.5-7.5s3.357-7.5 7.5-7.5h50.808c4.143 0 7.5 3.358 7.5 7.5s-3.357 7.5-7.5 7.5z" fill="#7ca1b1"/><path d="m132.844 210.447h-17.466c-4.143 0-7.5-3.358-7.5-7.5s3.357-7.5 7.5-7.5h17.466c4.143 0 7.5 3.358 7.5 7.5s-3.358 7.5-7.5 7.5z" fill="#7ca1b1"/><path d="m88.088 210.447h-42.787c-4.143 0-7.5-3.358-7.5-7.5s3.357-7.5 7.5-7.5h42.787c4.143 0 7.5 3.358 7.5 7.5s-3.358 7.5-7.5 7.5z" fill="#7ca1b1"/><path d="m468.017 255.995h-86.289c-2.879 0-5.212-2.334-5.212-5.212v-100.59c0-2.879 2.334-5.212 5.212-5.212h86.289c2.879 0 5.212 2.334 5.212 5.212v100.591c0 2.878-2.333 5.211-5.212 5.211z" fill="#ffc143"/><path d="m468.017 255.995h-20.236v-111.014h20.236c2.879 0 5.212 2.334 5.212 5.212v100.591c0 2.878-2.333 5.211-5.212 5.211z" fill="#ffb509"/><g fill="#7ca1b1"><path d="m127.044 336.285h-81.743c-4.143 0-7.5-3.358-7.5-7.5s3.357-7.5 7.5-7.5h81.743c4.143 0 7.5 3.358 7.5 7.5s-3.357 7.5-7.5 7.5z"/><path d="m315.326 336.285h-143.721c-4.143 0-7.5-3.358-7.5-7.5s3.357-7.5 7.5-7.5h143.721c4.143 0 7.5 3.358 7.5 7.5s-3.357 7.5-7.5 7.5z"/><path d="m80.121 369.641h-34.82c-4.143 0-7.5-3.358-7.5-7.5s3.357-7.5 7.5-7.5h34.82c4.143 0 7.5 3.358 7.5 7.5s-3.357 7.5-7.5 7.5z"/><path d="m292.135 369.641h-21.206c-4.143 0-7.5-3.358-7.5-7.5s3.357-7.5 7.5-7.5h21.206c4.143 0 7.5 3.358 7.5 7.5s-3.358 7.5-7.5 7.5z"/><path d="m226.854 369.641h-104.154c-4.143 0-7.5-3.358-7.5-7.5s3.357-7.5 7.5-7.5h104.154c4.143 0 7.5 3.358 7.5 7.5s-3.357 7.5-7.5 7.5z"/><path d="m370.335 369.641h-39.719c-4.143 0-7.5-3.358-7.5-7.5s3.357-7.5 7.5-7.5h39.719c4.143 0 7.5 3.358 7.5 7.5s-3.357 7.5-7.5 7.5z"/></g><path d="m431.739 197.382c-13.089 0-19.924-3.659-25.955-6.888-5.335-2.856-9.549-5.112-18.874-5.112s-13.539 2.256-18.874 5.112c-6.031 3.229-12.866 6.888-25.955 6.888-13.087 0-19.922-3.66-25.951-6.888-5.334-2.856-9.547-5.112-18.871-5.112-4.143 0-7.5-3.358-7.5-7.5s3.357-7.5 7.5-7.5c13.087 0 19.922 3.66 25.951 6.888 5.334 2.856 9.547 5.112 18.871 5.112 9.326 0 13.54-2.256 18.875-5.112 6.03-3.229 12.866-6.888 25.954-6.888s19.924 3.659 25.954 6.888c5.335 2.856 9.549 5.112 18.875 5.112 4.143 0 7.5 3.358 7.5 7.5s-3.357 7.5-7.5 7.5z" fill="#ff5757"/><path d="m431.739 230.594c-13.089 0-19.924-3.659-25.955-6.888-5.335-2.856-9.549-5.112-18.874-5.112s-13.539 2.256-18.874 5.112c-6.031 3.229-12.866 6.888-25.955 6.888-13.087 0-19.922-3.66-25.951-6.888-5.334-2.856-9.547-5.112-18.871-5.112-4.143 0-7.5-3.358-7.5-7.5s3.357-7.5 7.5-7.5c13.087 0 19.922 3.66 25.951 6.888 5.334 2.856 9.547 5.112 18.871 5.112 9.326 0 13.54-2.256 18.875-5.112 6.03-3.229 12.866-6.888 25.954-6.888s19.924 3.659 25.954 6.888c5.335 2.856 9.549 5.112 18.875 5.112 4.143 0 7.5 3.358 7.5 7.5s-3.357 7.5-7.5 7.5z" fill="#ff5757"/><path d="m512 413.283v32.108c0 5.523-4.477 10-10 10h-23.647c2.886 0 5.215-2.339 5.215-5.215v-36.894h28.432z" fill="#9ae7fd"/></svg>