<svg id="Capa_1" enable-background="new 0 0 512 512" height="512" viewBox="0 0 512 512" width="512" xmlns="http://www.w3.org/2000/svg"><path d="m481.973 455.57h-451.947v-309.523c0-8.284 6.716-15 15-15h421.947c8.284 0 15 6.716 15 15z" fill="#deecf1"/><path d="m481.973 146.047v294.643h-24v-294.643c0-8.28-6.72-15-15-15h24c8.28 0 15 6.721 15 15z" fill="#ccdee2"/><path d="m441.287 455.57h-370.574v-279.346c0-4.721 3.827-8.547 8.547-8.547h353.479c4.72 0 8.547 3.827 8.547 8.547v279.346z" fill="#fff5f5"/><path d="m441.287 176.225v279.345h-27.112v-279.345c0-4.716-3.824-8.55-8.55-8.55h27.112c4.725-.001 8.55 3.834 8.55 8.55z" fill="#efe2dd"/><path d="m486.714 511.817h-461.429c-13.964 0-25.285-11.321-25.285-25.286v-39.17c0-3.981 3.227-7.209 7.209-7.209h497.582c3.981 0 7.209 3.227 7.209 7.209v39.17c-.001 13.965-11.321 25.286-25.286 25.286z" fill="#7ca1b1"/><path d="m504.791 440.153c3.981 0 7.209 3.227 7.209 7.209v39.17c0 13.96-11.317 25.288-25.288 25.288h-23.112c13.96 0 25.278-11.328 25.278-25.288v-46.379z" fill="#678d98"/><path d="m272.582 440.153h-33.165-69.439l12.115 27.726c.825 1.887 2.689 3.107 4.748 3.107h52.575 33.165 52.575c2.06 0 3.924-1.22 4.748-3.107l12.115-27.726z" fill="#537983"/><path d="m342.021 440.153-12.115 27.724c-.829 1.886-2.684 3.109-4.747 3.109h-16.717c.166-.259.321-.529.446-.819l13.11-30.014z" fill="#3e5959"/><g fill="#7ca1b1"><path d="m217.005 370.666h-105.453c-4.266 0-7.724-3.458-7.724-7.724s3.458-7.724 7.724-7.724h105.453c4.266 0 7.724 3.458 7.724 7.724s-3.458 7.724-7.724 7.724z"/><path d="m289.272 370.666h-43.762c-4.266 0-7.724-3.458-7.724-7.724s3.458-7.724 7.724-7.724h43.762c4.266 0 7.724 3.458 7.724 7.724s-3.458 7.724-7.724 7.724z"/><path d="m400.447 370.666h-82.389c-4.266 0-7.724-3.458-7.724-7.724s3.458-7.724 7.724-7.724h82.389c4.266 0 7.724 3.458 7.724 7.724s-3.458 7.724-7.724 7.724z"/><path d="m164.508 402.513h-52.956c-4.266 0-7.724-3.458-7.724-7.724s3.458-7.724 7.724-7.724h52.956c4.266 0 7.724 3.458 7.724 7.724s-3.458 7.724-7.724 7.724z"/><path d="m318.058 402.513h-116.536c-4.266 0-7.724-3.458-7.724-7.724s3.458-7.724 7.724-7.724h116.536c4.266 0 7.724 3.458 7.724 7.724s-3.458 7.724-7.724 7.724z"/><path d="m400.447 402.513h-58.427c-4.266 0-7.724-3.458-7.724-7.724s3.458-7.724 7.724-7.724h58.427c4.266 0 7.724 3.458 7.724 7.724s-3.458 7.724-7.724 7.724z"/></g><path d="m378.014 296.77h-244.028c-9.485 0-17.174-7.689-17.174-17.174v-197.484h278.375v197.484c.001 9.485-7.688 17.174-17.173 17.174z" fill="#ffcd6b"/><path d="m395.191 82.113v197.479c0 9.485-7.693 17.177-17.177 17.177h-28.186c9.485 0 17.177-7.693 17.177-17.177v-197.479z" fill="#ffc143"/><path d="m268.389 3.701c-7.592-4.695-17.186-4.695-24.778 0l-126.799 78.411 120.315 119.64c10.44 10.382 27.305 10.382 37.746 0l120.315-119.64z" fill="#ffe1a8"/><path d="m256 35.87h-92.432c-2.663 0-4.822 2.159-4.822 4.822v83.118l78.383 77.944c5.22 5.19 12.045 7.786 18.871 7.786s13.651-2.595 18.871-7.786l78.383-77.944v-83.118c0-2.663-2.159-4.822-4.822-4.822z" fill="#fff5f5"/><path d="m309.678 122.705h-107.356c-3.413 0-6.179-2.766-6.179-6.179v-14.245c0-3.413 2.766-6.179 6.179-6.179h107.356c3.413 0 6.179 2.766 6.179 6.179v14.245c0 3.413-2.767 6.179-6.179 6.179z" fill="#c9f0ff"/><path d="m309.678 122.705h-12.485v-26.603h12.485c3.413 0 6.179 2.766 6.179 6.179v14.245c0 3.413-2.767 6.179-6.179 6.179z" fill="#9ae7fd"/><path d="m277.149 75.846h-71.559c-4.266 0-7.724-3.458-7.724-7.724s3.458-7.724 7.724-7.724h71.559c4.266 0 7.724 3.458 7.724 7.724-.001 4.266-3.458 7.724-7.724 7.724z" fill="#ff9a9a"/><path d="m303.134 182.728c-10.334-16.004-28.083-25.671-47.134-25.671-19.051 0-36.8 9.667-47.134 25.671l-73.636 114.042h120.77 120.77z" fill="#fa0"/><path d="m376.772 296.77h-37.431l-73.636-114.041c-6.82-10.566-16.882-18.374-28.416-22.456 5.93-2.095 12.246-3.212 18.71-3.212 19.046 0 36.798 9.667 47.137 25.669z" fill="#ff9500"/></svg>