<svg id="Capa_1" enable-background="new 0 0 512 512" height="512" viewBox="0 0 512 512" width="512" xmlns="http://www.w3.org/2000/svg"><path d="m402.239 512h-292.478c-8.284 0-15-6.716-15-15v-482c0-8.284 6.716-15 15-15h292.478c8.284 0 15 6.716 15 15v482c0 8.284-6.716 15-15 15z" fill="#fff5f5"/><path d="m417.236 15v482c0 8.284-6.716 15-15 15h-45.686c16.006 0 28.984-12.978 28.984-28.984v-454.032c0-16.006-12.978-28.984-28.984-28.984h45.686c8.284 0 15 6.716 15 15z" fill="#efe2dd"/><path d="m402.239 512h-292.478c-8.284 0-15-6.716-15-15v-46.02h322.478v46.02c0 8.284-6.716 15-15 15z" fill="#7ca1b1"/><path d="m417.239 63.388h-322.478v-48.388c0-8.284 6.716-15 15-15h292.478c8.284 0 15 6.716 15 15z" fill="#7ca1b1"/><path d="m417.236 450.98v46.02c0 8.284-6.716 15-15 15h-45.748c16.006 0 28.974-12.978 28.974-28.984v-32.036z" fill="#678d98"/><path d="m417.236 15v48.388h-31.774v-34.404c0-16.006-12.968-28.984-28.974-28.984h45.748c8.284 0 15 6.716 15 15z" fill="#678d98"/><g fill="#537983"><path d="m278.732 484.626h-45.465c-4.143 0-7.5-3.358-7.5-7.5s3.357-7.5 7.5-7.5h45.465c4.143 0 7.5 3.358 7.5 7.5s-3.357 7.5-7.5 7.5z"/><path d="m234.817 41.34h-21.183c-4.143 0-7.5-3.358-7.5-7.5s3.357-7.5 7.5-7.5h21.183c4.143 0 7.5 3.358 7.5 7.5s-3.357 7.5-7.5 7.5z"/><path d="m298.365 41.34h-39.106c-4.143 0-7.5-3.358-7.5-7.5s3.357-7.5 7.5-7.5h39.106c4.143 0 7.5 3.358 7.5 7.5s-3.357 7.5-7.5 7.5z"/></g><circle cx="194.571" cy="364.669" fill="#ff5757" r="36.46"/><path d="m231.032 364.666c0 20.134-16.32 36.463-36.463 36.463-9.394 0-17.966-3.557-24.42-9.394 2.794.686 5.726 1.054 8.734 1.054 20.134 0 36.463-16.329 36.463-36.463 0-10.731-4.637-20.374-12.017-27.051 15.908 3.917 27.703 18.274 27.703 35.391z" fill="#f72c2c"/><circle cx="317.428" cy="364.669" fill="#a3e72d" r="36.46"/><path d="m353.889 364.666c0 20.134-16.32 36.463-36.463 36.463-9.394 0-17.966-3.557-24.42-9.394 2.794.686 5.726 1.054 8.734 1.054 20.134 0 36.463-16.329 36.463-36.463 0-10.731-4.637-20.374-12.017-27.051 15.908 3.917 27.703 18.274 27.703 35.391z" fill="#80cf00"/><path d="m255.311 144.744 24.312-36.106c2.73-4.054 8.229-5.128 12.283-2.398l25.948 17.472c14.464 9.739 18.294 29.359 8.555 43.823l-72.569 107.776c-9.756 14.489-29.423 18.303-43.888 8.511l-25.858-17.505c-4.04-2.735-5.104-8.224-2.38-12.271l24.324-36.124c2.73-4.054 8.229-5.128 12.283-2.398l19.29 12.989c4.076 2.744 9.605 1.665 12.349-2.411l29.45-43.738c2.744-4.076 1.665-9.605-2.411-12.349l-19.29-12.989c-4.054-2.728-5.128-8.228-2.398-12.282z" fill="#00aaf2"/><path d="m326.41 167.536-72.571 107.777c-9.754 14.486-29.424 18.301-43.886 8.511l-25.859-17.506c-.569-.384-1.078-.824-1.526-1.308l16.424 11.115c14.466 9.795 34.132 5.979 43.886-8.511l72.571-107.773c8.963-13.311 6.431-30.991-5.301-41.314l7.707 5.188c14.462 9.737 18.294 29.355 8.555 43.821z" fill="#0091d0"/></svg>