<svg id="Capa_1" enable-background="new 0 0 511.995 511.995" height="512" viewBox="0 0 511.995 511.995" width="512" xmlns="http://www.w3.org/2000/svg"><path d="m184.175 417.584h143.061v57.636h-143.061z" fill="#537983"/><path d="m303.196 418.437h24.039v55.93h-24.039z" fill="#3e5959"/><path d="m496.41 426.288h-481.41c-8.284 0-15-6.716-15-15v-384.75c0-14.5 11.755-26.255 26.255-26.255h470.155c8.284 0 15 6.716 15 15v396.005c0 8.284-6.716 15-15 15z" fill="#ffc143"/><path d="m511.413 15.286v396.002c0 8.284-6.716 15-15 15h-43.326c14.502 0 26.255-11.754 26.255-26.255v-373.492c0-14.502-11.754-26.255-26.255-26.255h43.326c8.285 0 15 6.715 15 15z" fill="#ffb509"/><path d="m.569 74.713h254.106v304h-254.106z" fill="#fff5f5"/><path d="m373.592 511.709h-235.774c-2.842 0-5.146-2.304-5.146-5.146v-16.677c0-11.309 9.167-20.476 20.476-20.476h205.114c11.309 0 20.476 9.167 20.476 20.476v16.677c0 2.842-2.304 5.146-5.146 5.146z" fill="#7ca1b1"/><path d="m378.737 489.883v16.683c0 2.842-2.304 5.146-5.146 5.146h-18.166v-21.83c0-11.301-9.17-20.471-20.471-20.471h23.312c11.306.001 20.471 9.166 20.471 20.472z" fill="#678d98"/><path d="m230.6 74.713h24.076v304h-24.076z" fill="#efe2dd"/><g fill="#7ca1b1"><path d="m152.229 164.234h-28.868c-4.142 0-7.5-3.357-7.5-7.5s3.358-7.5 7.5-7.5h28.868c4.142 0 7.5 3.357 7.5 7.5s-3.357 7.5-7.5 7.5z"/><path d="m185.655 164.234h-13.674c-4.142 0-7.5-3.357-7.5-7.5s3.358-7.5 7.5-7.5h13.674c4.142 0 7.5 3.357 7.5 7.5s-3.358 7.5-7.5 7.5z"/><path d="m142.354 191.483h-18.992c-4.142 0-7.5-3.357-7.5-7.5s3.358-7.5 7.5-7.5h18.992c4.142 0 7.5 3.357 7.5 7.5s-3.358 7.5-7.5 7.5z"/><path d="m210.385 191.483h-45.581c-4.142 0-7.5-3.357-7.5-7.5s3.358-7.5 7.5-7.5h45.581c4.142 0 7.5 3.357 7.5 7.5s-3.358 7.5-7.5 7.5z"/><path d="m79.424 282.837h-45.149c-4.142 0-7.5-3.357-7.5-7.5s3.358-7.5 7.5-7.5h45.149c4.142 0 7.5 3.357 7.5 7.5s-3.358 7.5-7.5 7.5z"/><path d="m183.419 282.837h-79.381c-4.142 0-7.5-3.357-7.5-7.5s3.358-7.5 7.5-7.5h79.381c4.142 0 7.5 3.357 7.5 7.5s-3.358 7.5-7.5 7.5z"/><path d="m53.508 319.208h-19.233c-4.142 0-7.5-3.357-7.5-7.5s3.358-7.5 7.5-7.5h19.233c4.142 0 7.5 3.357 7.5 7.5s-3.358 7.5-7.5 7.5z"/><path d="m170.61 319.208h-11.713c-4.142 0-7.5-3.357-7.5-7.5s3.358-7.5 7.5-7.5h11.713c4.142 0 7.5 3.357 7.5 7.5s-3.358 7.5-7.5 7.5z"/><path d="m134.553 319.208h-57.528c-4.142 0-7.5-3.357-7.5-7.5s3.358-7.5 7.5-7.5h57.528c4.142 0 7.5 3.357 7.5 7.5s-3.358 7.5-7.5 7.5z"/><path d="m213.802 319.208h-21.938c-4.142 0-7.5-3.357-7.5-7.5s3.358-7.5 7.5-7.5h21.938c4.142 0 7.5 3.357 7.5 7.5s-3.358 7.5-7.5 7.5z"/></g><circle cx="383.05" cy="299.75" fill="#acacac" r="31.93"/><path d="m414.983 299.746c0 17.641-14.296 31.937-31.937 31.937-10.426 0-19.699-5.002-25.524-12.742 2.964.906 6.103 1.389 9.366 1.389 17.63 0 31.926-14.296 31.926-31.936 0-7.194-2.378-13.843-6.402-19.185 13.071 4.004 22.571 16.159 22.571 30.537z" fill="#9c9c9c"/><path d="m83.487 218.834h-42.833c-3.523 0-6.379-2.856-6.379-6.379v-26.513c0-11.074 8.977-20.052 20.052-20.052h15.488c11.074 0 20.052 8.977 20.052 20.052v26.513c-.001 3.523-2.857 6.379-6.38 6.379z" fill="#ff5757"/><path d="m89.871 185.945v26.512c0 3.523-2.856 6.379-6.379 6.379h-8.433v-32.891c0-11.074-8.982-20.056-20.056-20.056h14.812c11.076.001 20.056 8.98 20.056 20.056z" fill="#ff4343"/><circle cx="62.071" cy="145.439" fill="#ff5757" r="24.921"/><path d="m86.997 145.444c0 13.753-11.161 24.915-24.926 24.915-2.246 0-4.424-.302-6.491-.86 10.625-2.849 18.435-12.547 18.435-24.054 0-11.519-7.81-21.217-18.435-24.066 2.067-.559 4.246-.86 6.491-.86 13.765-.001 24.926 11.16 24.926 24.925z" fill="#ff4343"/><circle cx="93.248" cy="220.135" fill="#a3e72d" r="16.233"/><path d="m109.481 220.141c0 8.961-7.272 16.222-16.233 16.222-4.341 0-8.279-1.701-11.199-4.486 8.793-.19 15.853-7.372 15.853-16.21 0-4.632-1.935-8.793-5.034-11.747.123-.011.257-.011.38-.011 8.962-.002 16.233 7.259 16.233 16.232z" fill="#80cf00"/><circle cx="306.11" cy="299.75" fill="#ff5757" r="22.261"/><path d="m328.371 299.745c0 12.299-9.973 22.262-22.262 22.262-6.607 0-12.536-2.871-16.622-7.441.113.01.237.01.35.01 12.299 0 22.262-9.963 22.262-22.252 0-5.702-2.141-10.889-5.65-14.831 12.134.175 21.922 10.076 21.922 22.252z" fill="#ff4343"/><circle cx="459.989" cy="299.75" fill="#a3e72d" r="22.261"/><path d="m482.252 299.746c0 12.299-9.973 22.262-22.262 22.262-6.607 0-12.536-2.871-16.622-7.441.113.01.237.01.35.01 12.299 0 22.262-9.963 22.262-22.252 0-5.702-2.141-10.889-5.65-14.831 12.134.175 21.922 10.076 21.922 22.252z" fill="#80cf00"/><path d="m412.584 221.609h-64.285c-7.339 0-13.344-6.005-13.344-13.344v-34.845c0-7.339 6.005-13.344 13.344-13.344h64.285c7.339 0 13.344 6.005 13.344 13.344v34.846c-.001 7.339-6.006 13.343-13.344 13.343z" fill="#00aaf2"/><path d="m455.769 166.877-29.842 12.813v-6.27c0-7.339-6.005-13.344-13.343-13.344h-64.285c-7.339 0-13.344 6.005-13.344 13.344v34.846c0 7.339 6.005 13.344 13.344 13.344h64.285c7.339 0 13.343-6.005 13.343-13.344v-6.27l29.842 12.813c2.717 1.167 5.741-.826 5.741-3.783v-19.629-1.107-19.63c0-2.957-3.024-4.95-5.741-3.783z" fill="#00aaf2"/><path d="m461.513 195.589v15.438c0 2.954-3.026 4.951-5.743 3.777l-29.847-12.814v6.278c0 7.336-6.002 13.339-13.339 13.339h-64.284c-7.342 0-13.349-6.007-13.349-13.349v-15.428c0 7.338 6.011 13.339 13.349 13.339h55.948c7.336 0 13.339-6.002 13.339-13.339 0-3.086 3.026-5.263 5.952-4.281l32.232 10.816c2.717 1.175 5.742-.822 5.742-3.776z" fill="#0091d0"/><path d="m511.41 363.035h-511.41v48.253c0 8.284 6.716 15 15 15h481.41c8.284 0 15-6.716 15-15z" fill="#7ca1b1"/><path d="m511.413 363.032v48.255c0 8.284-6.716 15-15 15h-43.326c14.502 0 26.255-11.754 26.255-26.255v-37z" fill="#678d98"/><path d="m511.995 89.846h-511.426v-74.563c0-8.284 6.716-15 15-15h481.426c8.284 0 15 6.716 15 15z" fill="#7ca1b1"/><circle cx="49.209" cy="44.846" fill="#ff5757" r="14.934"/><circle cx="106.883" cy="44.846" fill="#ffc143" r="14.934"/><circle cx="164.557" cy="44.846" fill="#a3e72d" r="14.934"/><path d="m64.137 44.851c0 8.244-6.68 14.923-14.924 14.923-3.993 0-7.626-1.564-10.302-4.127 8.079-.175 14.584-6.782 14.584-14.913 0-4.261-1.781-8.09-4.631-10.807.113-.011.237-.011.35-.011 8.244.001 14.923 6.68 14.923 14.935z" fill="#ff4343"/><path d="m121.814 44.851c0 8.244-6.68 14.923-14.934 14.923-3.993 0-7.616-1.564-10.302-4.127 8.09-.175 14.594-6.782 14.594-14.913 0-4.261-1.781-8.09-4.631-10.807.113-.011.226-.011.34-.011 8.254.001 14.933 6.68 14.933 14.935z" fill="#ffb509"/><path d="m179.492 44.851c0 8.244-6.69 14.923-14.934 14.923-3.993 0-7.616-1.564-10.302-4.127 8.09-.175 14.584-6.782 14.584-14.913 0-4.261-1.781-8.09-4.631-10.807.113-.011.237-.011.35-.011 8.243.001 14.933 6.68 14.933 14.935z" fill="#80cf00"/><path d="m511.995 15.721v74.125h-32.657v-63.318c0-14.492-11.754-26.245-26.256-26.245h43.474c8.527 0 15.439 6.912 15.439 15.438z" fill="#678d98"/></svg>