<svg id="Capa_1" enable-background="new 0 0 512 512" height="512" viewBox="0 0 512 512" width="512" xmlns="http://www.w3.org/2000/svg"><path d="m454.196 287.638-50.703-29.789c-13.307-7.818-21.479-22.098-21.479-37.531v-94.529h-252.033v94.529c0 15.433-8.172 29.713-21.479 37.531l-50.702 29.789c-19.572 11.499-31.591 32.501-31.591 55.2v158.832c0 5.705 4.625 10.33 10.33 10.33h218.47 1.979 218.47c5.705 0 10.33-4.625 10.33-10.33v-158.832c0-22.699-12.02-43.702-31.592-55.2z" fill="#c9f0ff"/><path d="m485.787 342.834v158.834c0 5.705-4.625 10.33-10.33 10.33h-25.006v-151.197c0-22.697-12.02-43.7-31.588-55.194l-50.712-29.791c-13.3-7.817-21.478-22.098-21.478-37.525v-112.504h35.347v94.526c0 15.438 8.168 29.719 21.479 37.536l50.702 29.791c19.566 11.493 31.586 32.497 31.586 55.194z" fill="#9ae7fd"/><path d="m382.647 166.595h101.132c11.355 0 20.56-9.205 20.56-20.56v-94.792c0-28.301-22.942-51.243-51.243-51.243h-394.196c-28.351 0-51.314 23.02-51.243 51.37l.236 94.716c.028 11.335 9.225 20.509 20.56 20.509h101.183c11.355 0 20.56-9.205 20.56-20.56v-54.031c0-11.416 9.255-20.671 20.671-20.671h170.55c11.416 0 20.671 9.255 20.671 20.671v54.031c-.001 11.355 9.204 20.56 20.559 20.56z" fill="#00aaf2"/><path d="m504.343 51.242v94.795c0 11.348-9.211 20.56-20.559 20.56h-36.059c11.359 0 20.56-9.211 20.56-20.56v-94.795c0-28.304-22.945-51.239-51.239-51.239h36.049c28.304.001 51.248 22.935 51.248 51.239z" fill="#0091d0"/><path d="m504.343 124.755v21.282c0 11.348-9.211 20.56-20.559 20.56h-36.059c11.359 0 20.56-9.211 20.56-20.56v-21.282z" fill="#e61e7f"/><path d="m362.087 146.035v-21.279h142.252v21.279c0 11.355-9.205 20.56-20.56 20.56h-101.132c-11.355 0-20.56-9.205-20.56-20.56z" fill="#c9f0ff"/><path d="m504.343 124.755v21.282c0 11.348-9.211 20.56-20.559 20.56h-36.059c11.359 0 20.56-9.211 20.56-20.56v-21.282z" fill="#9ae7fd"/><path d="m7.943 146.035v-21.279h142.252v21.279c0 11.355-9.205 20.56-20.56 20.56h-101.132c-11.355 0-20.56-9.205-20.56-20.56z" fill="#c9f0ff"/><circle cx="255.998" cy="203.894" fill="#fff5f5" r="133.202"/><path d="m389.197 203.896c0 73.559-59.629 133.199-133.198 133.199-46.975 0-88.278-24.318-111.989-61.055 23.211 19.667 53.254 31.533 86.064 31.533 73.559 0 133.199-59.629 133.199-133.199 0-26.595-7.79-51.37-21.221-72.165 28.84 24.434 47.145 60.927 47.145 101.687z" fill="#efe2dd"/><circle cx="255.998" cy="203.894" fill="#7ca1b1" r="66.944"/><path d="m322.943 203.895c0 36.968-29.977 66.945-66.945 66.945-24.287 0-45.559-12.939-57.29-32.3 10.078 6.072 21.881 9.562 34.5 9.562 36.968 0 66.945-29.967 66.945-66.935 0-12.681-3.531-24.545-9.655-34.655 19.444 11.71 32.445 33.023 32.445 57.383z" fill="#678d98"/><path d="m475.458 512h-438.92c-5.705 0-10.33-4.625-10.33-10.33v-44.047h459.579v44.047c.001 5.705-4.624 10.33-10.329 10.33z" fill="#00aaf2"/><path d="m475.458 512h-25.007v-54.376h35.337v44.047c0 5.704-4.625 10.329-10.33 10.329z" fill="#0091d0"/><g fill="#00aaf2"><circle cx="255.998" cy="102.43" r="11.262"/><circle cx="255.998" cy="305.357" r="11.262"/><circle cx="205.266" cy="116.023" r="11.262"/><circle cx="306.73" cy="291.764" r="11.262"/><circle cx="168.128" cy="153.162" r="11.262"/><circle cx="343.868" cy="254.626" r="11.262"/><circle cx="154.534" cy="203.894" r="11.262"/><circle cx="357.462" cy="203.894" r="11.262"/><circle cx="168.128" cy="254.626" r="11.262"/><circle cx="343.868" cy="153.162" r="11.262"/><circle cx="205.266" cy="291.764" r="11.262"/><circle cx="306.73" cy="116.023" r="11.262"/></g></svg>