<svg id="Capa_1" enable-background="new 0 0 512 512" height="512" viewBox="0 0 512 512" width="512" xmlns="http://www.w3.org/2000/svg"><path d="m355.137 512h-292.477c-8.284 0-15-6.716-15-15v-468.021c0-16.005 12.974-28.979 28.979-28.979h278.499c8.284 0 15 6.716 15 15v482c-.001 8.284-6.716 15-15.001 15z" fill="#fff5f5"/><path d="m370.134 15v482c0 8.284-6.716 15-15 15h-45.686c16.006 0 28.984-12.978 28.984-28.984v-454.032c.001-16.006-12.977-28.984-28.983-28.984h45.686c8.284 0 14.999 6.716 14.999 15z" fill="#efe2dd"/><path d="m355.137 512h-292.477c-8.284 0-15-6.716-15-15v-46.02h322.478v46.02c-.001 8.284-6.716 15-15.001 15z" fill="#7ca1b1"/><path d="m370.137 63.388h-322.477v-48.388c0-8.284 6.716-15 15-15h292.478c8.284 0 15 6.716 15 15v48.388z" fill="#7ca1b1"/><path d="m370.134 450.98v46.02c0 8.284-6.716 15-15 15h-45.748c16.006 0 28.974-12.978 28.974-28.984v-32.036z" fill="#678d98"/><path d="m370.134 15v48.388h-31.774v-34.404c.001-16.006-12.967-28.984-28.973-28.984h45.748c8.284 0 14.999 6.716 14.999 15z" fill="#678d98"/><path d="m231.631 484.626h-45.466c-4.143 0-7.5-3.357-7.5-7.5s3.357-7.5 7.5-7.5h45.466c4.143 0 7.5 3.357 7.5 7.5s-3.357 7.5-7.5 7.5z" fill="#537983"/><path d="m187.715 41.341h-21.183c-4.143 0-7.5-3.357-7.5-7.5s3.357-7.5 7.5-7.5h21.183c4.143 0 7.5 3.357 7.5 7.5s-3.357 7.5-7.5 7.5z" fill="#537983"/><path d="m251.264 41.341h-39.106c-4.143 0-7.5-3.357-7.5-7.5s3.357-7.5 7.5-7.5h39.106c4.143 0 7.5 3.357 7.5 7.5s-3.357 7.5-7.5 7.5z" fill="#537983"/><path d="m451.76 72.278h-4.326c5.937-1.127 10.407-6.534 10.041-12.861-.38-6.575-5.992-11.633-12.579-11.633h-31.713-4.935c-4.448 0-7.602-4.34-6.228-8.57l5.254-14.315c.363-.988.645-2.007.839-3.042 1.14-6.085-.947-12.458-5.387-16.758-2.207-2.137-4.937-3.711-7.898-4.531-2.314-.641-6.789-1.304-8.222 1.433-3.256 6.22-6.512 12.44-9.768 18.66-6.501 12.419-12.394 24.034-25.919 30.776l-9.173 4.573v79.174l2.956 1.375c13.341 6.206 27.876 9.421 42.59 9.421h.727 32.975 16.362c6.586 0 12.199-5.057 12.579-11.633.366-6.327-4.104-11.734-10.041-12.861h7.276c6.586 0 12.199-5.058 12.579-11.633.366-6.327-4.104-11.734-10.041-12.861h2.277c7.08 0 12.819-6.035 12.327-13.215-.448-6.518-6.02-11.499-12.552-11.499z" fill="#ffdfcf"/><path d="m337.634 145.979h-37.865c-2.262 0-4.113-1.851-4.113-4.113v-89.97c0-2.262 1.851-4.113 4.113-4.113h37.865c2.262 0 4.113 1.851 4.113 4.113v89.97c0 2.262-1.851 4.113-4.113 4.113z" fill="#64dcfc"/><path d="m341.749 51.894v89.971c0 2.266-1.854 4.11-4.12 4.11h-15.1c2.256 0 4.11-1.844 4.11-4.11v-89.971c0-2.256-1.854-4.11-4.11-4.11h15.1c2.266 0 4.12 1.854 4.12 4.11z" fill="#00d1fc"/><path d="m447.435 80.002h-34.712c-4.267 0-7.725-3.458-7.725-7.725s3.458-7.725 7.725-7.725h34.712c4.267 0 7.725 3.458 7.725 7.725s-3.458 7.725-7.725 7.725z" fill="#ffcebf"/><path d="m439.894 129.235h-27.172c-4.267 0-7.725-3.458-7.725-7.725s3.458-7.725 7.725-7.725h27.172c4.267 0 7.725 3.458 7.725 7.725 0 4.266-3.458 7.725-7.725 7.725z" fill="#ffcebf"/><path d="m449.707 104.606h-36.985c-4.267 0-7.725-3.458-7.725-7.725s3.458-7.725 7.725-7.725h36.985c4.267 0 7.725 3.458 7.725 7.725s-3.458 7.725-7.725 7.725z" fill="#ffcebf"/><circle cx="208.898" cy="186.037" fill="#0091d0" r="64.813"/><path d="m273.712 186.037c0 35.797-29.016 64.812-64.813 64.812-15.435 0-29.605-5.392-40.736-14.406 7.521 3.053 15.743 4.737 24.358 4.737 35.797 0 64.813-29.016 64.813-64.812 0-20.362-9.388-38.535-24.076-50.406 23.722 9.623 40.454 32.893 40.454 60.075z" fill="#007baf"/><path d="m214.265 226.464v-39.217h14.03c2.416 0 3.796-2.645 3.796-5.405 0-2.645-1.38-5.405-3.796-5.405h-14.03v-10.925c0-5.176 3.565-8.396 8.511-8.396h3.68c3.795 0 5.636-3.105 5.636-6.325 0-3.105-1.841-6.211-5.636-6.211h-6.785c-11.04 0-20.241 9.661-20.241 22.541v59.343c0 2.761 3.105 4.601 7.246 4.601 4.024-.001 7.589-1.84 7.589-4.601z" fill="#fff5f5"/><path d="m314.474 397.802h-211.151c-2.844 0-5.15-2.306-5.15-5.15v-38.879c0-2.844 2.306-5.15 5.15-5.15h211.152c2.844 0 5.15 2.306 5.15 5.15v38.879c-.001 2.845-2.306 5.15-5.151 5.15z" fill="#c9f0ff"/><path d="m297.094 348.623h22.53v49.179h-22.53z" fill="#9ae7fd"/><path d="m168.253 291.311h-67.127c-4.143 0-7.5-3.357-7.5-7.5s3.357-7.5 7.5-7.5h67.127c4.143 0 7.5 3.357 7.5 7.5s-3.357 7.5-7.5 7.5z" fill="#64dcfc"/><path d="m233.723 291.311h-32.651c-4.143 0-7.5-3.357-7.5-7.5s3.357-7.5 7.5-7.5h32.651c4.143 0 7.5 3.357 7.5 7.5s-3.357 7.5-7.5 7.5z" fill="#64dcfc"/><path d="m316.67 291.311h-54.212c-4.143 0-7.5-3.357-7.5-7.5s3.357-7.5 7.5-7.5h54.212c4.143 0 7.5 3.357 7.5 7.5s-3.357 7.5-7.5 7.5z" fill="#64dcfc"/><path d="m140.636 323.163h-39.51c-4.143 0-7.5-3.357-7.5-7.5s3.357-7.5 7.5-7.5h39.51c4.143 0 7.5 3.357 7.5 7.5s-3.357 7.5-7.5 7.5z" fill="#64dcfc"/><path d="m244.949 323.163h-76.695c-4.143 0-7.5-3.357-7.5-7.5s3.357-7.5 7.5-7.5h76.695c4.143 0 7.5 3.357 7.5 7.5s-3.358 7.5-7.5 7.5z" fill="#64dcfc"/><path d="m316.67 323.163h-43.592c-4.143 0-7.5-3.357-7.5-7.5s3.357-7.5 7.5-7.5h43.592c4.143 0 7.5 3.357 7.5 7.5s-3.357 7.5-7.5 7.5z" fill="#64dcfc"/><g fill="#537983"><circle cx="127.947" cy="373.213" r="7.244"/><circle cx="160.327" cy="373.213" r="7.244"/><circle cx="192.708" cy="373.213" r="7.244"/><circle cx="225.089" cy="373.213" r="7.244"/><circle cx="257.469" cy="373.213" r="7.244"/><circle cx="289.85" cy="373.213" r="7.244"/></g></svg>