<svg id="Capa_1" enable-background="new 0 0 512 512" height="512" viewBox="0 0 512 512" width="512" xmlns="http://www.w3.org/2000/svg"><path d="m130.333 313.173h-39.393c-1.709 0-3.094-1.385-3.094-3.094v-102.795c0-1.709 1.385-3.094 3.094-3.094h39.393z" fill="#7ca1b1"/><path d="m315.057 402.524h-84.766c-60.754 0-110.005-49.251-110.005-110.005v-142.529h304.775v142.53c.001 60.754-49.25 110.004-110.004 110.004z" fill="#ffdfcf"/><path d="m425.065 149.992v142.523c0 60.761-49.256 110.003-110.003 110.003h-43.489c60.761 0 110.003-49.242 110.003-110.003v-142.523z" fill="#ffcebf"/><g fill="#ff9a9a"><circle cx="183.683" cy="322.318" r="16.39"/><circle cx="361.665" cy="322.318" r="16.39"/><path d="m272.674 373.992c-16.405 0-29.751-13.347-29.751-29.752v-1.008c0-4.273 3.463-7.735 7.735-7.735s7.735 3.463 7.735 7.735v1.008c0 7.874 6.406 14.281 14.28 14.281s14.28-6.407 14.28-14.281v-1.008c0-4.273 3.463-7.735 7.735-7.735s7.735 3.463 7.735 7.735v1.008c.002 16.405-13.344 29.752-29.749 29.752z"/></g><path d="m454.354 285.541c-6.744 7.289-16.391 11.852-27.105 11.852h-2.188v-73.836h2.188c20.389 0 36.918 16.529 36.918 36.918.001 9.677-3.722 18.483-9.813 25.066z" fill="#ffcebf"/><path d="m342.616 512v-44.002c0-14.692-7.209-28.752-19.123-37.346-6.021-4.343-13.073-7.187-20.424-8.222-9.533-1.342-9.66-1.053-9.66-11.036 0-.027 0-8.876 0-8.876h-41.469v8.876c0 9.983-.127 9.693-9.66 11.036-7.352 1.035-14.404 3.879-20.424 8.222-11.915 8.594-19.123 22.654-19.123 37.346v44.002z" fill="#ffdfcf"/><path d="m342.612 468.001v43.999h-139.876v-43.999c0-14.697 7.199-28.755 19.112-37.346 3.847-2.775 8.117-4.94 12.614-6.405 2.548-.825 5.167-1.444 7.818-1.826 3.888-.547 6.209-.815 7.601-1.63l1.784.402 4.487 2.537c10.159 5.755 22.577 5.796 32.767.113l4.765-2.651 1.784-.402c.124.072.268.144.413.217 1.413.65 3.661.918 7.189 1.413 2.651.382 5.27 1 7.818 1.826 4.497 1.464 8.767 3.63 12.614 6.405 11.911 8.592 19.11 22.65 19.11 37.347z" fill="#007baf"/><path d="m244.445 486.999v23.392c0 .557-.062 1.093-.165 1.609h-15.141c-.103-.516-.165-1.052-.165-1.609v-23.392c0-4.27 3.465-7.735 7.735-7.735 4.271 0 7.736 3.465 7.736 7.735z" fill="#03576d"/><path d="m316.374 486.999v23.392c0 .557-.062 1.093-.165 1.609h-15.141c-.103-.516-.165-1.052-.165-1.609v-23.392c0-4.27 3.466-7.735 7.735-7.735 4.27 0 7.736 3.465 7.736 7.735z" fill="#03576d"/><path d="m230.97 312.08c-4.272 0-7.735-3.463-7.735-7.735v-17.389c0-4.273 3.463-7.735 7.735-7.735s7.735 3.463 7.735 7.735v17.389c0 4.272-3.463 7.735-7.735 7.735z" fill="#7ca1b1"/><path d="m314.378 312.08c-4.272 0-7.735-3.463-7.735-7.735v-17.389c0-4.273 3.463-7.735 7.735-7.735s7.735 3.463 7.735 7.735v17.389c0 4.272-3.463 7.735-7.735 7.735z" fill="#7ca1b1"/><path d="m100.433 313.173v29.157c0 17.957 14.609 32.565 32.565 32.565h71.211c4.272 0 7.735-3.463 7.735-7.735s-3.463-7.735-7.735-7.735h-71.211c-9.426 0-17.094-7.669-17.094-17.094v-29.157h-15.471z" fill="#0091d0"/><circle cx="208.076" cy="367.159" fill="#7ca1b1" r="13.444"/><path d="m221.521 367.163c0 7.421-6.022 13.435-13.444 13.435-3.595 0-6.856-1.408-9.275-3.716 7.283-.157 13.129-6.106 13.129-13.425 0-3.836-1.603-7.283-4.169-9.729.102-.009.213-.009.315-.009 7.421 0 13.444 6.013 13.444 13.444z" fill="#678d98"/><path d="m420.968 21.034c-1.534-3.197-3.632-6.226-6.493-9.042-5.519-5.432-16.5-10.252-24.239-10.515-10.923-.37-20.797 4.133-27.632 11.497-8.034-8.014-19.117-12.974-31.361-12.974-8.7 0-16.809 2.511-23.661 6.834-4.87 1.822-8.969 5.221-11.672 9.585-3.422-9.564-12.537-16.419-23.277-16.419s-19.855 6.855-23.276 16.419c-2.703-4.363-6.802-7.763-11.672-9.585-6.851-4.323-14.961-6.834-23.661-6.834-12.245 0-23.327 4.96-31.361 12.974-6.573-7.082-15.958-11.518-26.382-11.518-15.822 0-35.989 13.35-35.995 30.628v228.738s45.938-55.09 49.71-107.789c.138-1.928 1.98-3.263 3.851-2.775 10.887 2.84 45.498 10.743 95.627 11.369v.041c1.066 0 2.107-.012 3.16-.019 1.053.007 2.094.019 3.16.019v-.041c50.129-.626 84.74-8.528 95.627-11.369 1.871-.488 3.713.846 3.851 2.775 3.772 52.699 49.71 107.789 49.71 107.782 0-41.925 0-83.85 0-125.775 0-26.277 0-52.555 0-78.832-.001-12.493.997-24.731-4.014-35.174z" fill="#fa0"/><path d="m424.981 56.214v204.604s-30.808-36.946-44.033-79.264v-125.34c0-12.504 1.005-24.736-4.008-35.176-2.097-4.368-5.253-8.431-9.96-12.046 6.083-4.729 13.717-7.535 22.006-7.535 7.645 0 15.169 2.468 21.318 7 5.111 3.757 8.464 7.994 10.67 12.581 5.001 10.44 4.007 22.671 4.007 35.176z" fill="#ff9500"/><path d="m87.846 305.326h-16.869c-12.782 0-23.145-10.362-23.145-23.145v-47.001c0-12.782 10.362-23.145 23.145-23.145h16.869z" fill="#0091d0"/></svg>