<svg id="Capa_1" enable-background="new 0 0 512 512" height="512" viewBox="0 0 512 512" width="512" xmlns="http://www.w3.org/2000/svg"><path d="m466.434 398.062c17.388-19.388 31.721-40.909 39.357-66.463 4.104-13.733 6.209-28.059 6.209-42.393 0-81.616-66.163-147.779-147.779-147.779s-147.779 66.163-147.779 147.779c0 27.202 7.569 54.158 21.83 77.331 26.166 42.518 73.772 76.691 109.661 110.769 8.922 8.472 22.898 8.504 31.859.074 27.547-25.913 60.537-50.211 86.642-79.318z" fill="#a3e72d"/><path d="m511.997 289.208c0 14.335-2.1 28.656-6.203 42.393-7.637 25.551-21.973 47.073-39.362 66.465-26.106 29.1-59.094 53.401-86.641 79.315-8.961 8.428-22.934 8.399-31.857-.074-.362-.347-.725-.688-1.094-1.035 27.303-25.499 59.73-49.52 85.451-78.206 17.389-19.392 31.724-40.914 39.362-66.465 4.103-13.737 6.21-28.057 6.21-42.393 0-75.84-57.135-138.342-130.712-146.807 5.597-.643 11.297-.976 17.071-.976 81.613-.001 147.775 66.169 147.775 147.783z" fill="#80cf00"/><circle cx="364.221" cy="285.501" fill="#fff5f5" r="92.522"/><path d="m456.737 285.505c0 51.092-41.413 92.517-92.517 92.517-30.157 0-56.938-14.42-73.816-36.743 14.102 8.704 30.721 13.726 48.505 13.726 51.104 0 92.528-41.424 92.528-92.528 0-20.947-6.963-40.272-18.701-55.773 26.406 16.3 44.001 45.492 44.001 78.801z" fill="#efe2dd"/><path d="m332.607 369.767c23.134-25.795 42.204-54.429 52.363-88.427 5.46-18.272 8.261-37.331 8.261-56.403 0-108.588-88.028-196.615-196.616-196.615s-196.615 88.029-196.615 196.616c0 36.192 10.07 72.056 29.044 102.886 34.813 56.569 98.151 102.036 145.9 147.374 11.87 11.271 30.465 11.314 42.388.099 36.651-34.476 80.543-66.804 115.275-105.53z" fill="#ff5757"/><path d="m393.227 224.94c0 19.073-2.794 38.126-8.253 56.402-10.161 33.995-29.234 62.629-52.369 88.43-34.733 38.716-78.623 71.049-115.274 105.526-11.922 11.213-30.513 11.174-42.385-.098-.482-.462-.964-.915-1.456-1.377 36.326-33.926 79.469-65.885 113.69-104.05 23.135-25.801 42.208-54.435 52.369-88.43 5.459-18.276 8.263-37.329 8.263-56.402 0-100.903-76.016-184.06-173.909-195.323 7.446-.856 15.03-1.298 22.712-1.298 108.585-.001 196.612 88.035 196.612 196.62z" fill="#f72c2c"/><circle cx="196.616" cy="220.008" fill="#fff5f5" r="123.097"/><path d="m319.706 220.014c0 67.977-55.098 123.09-123.09 123.09-40.123 0-75.754-19.185-98.21-48.886 18.762 11.58 40.874 18.262 64.534 18.262 67.992 0 123.106-55.114 123.106-123.106 0-27.87-9.264-53.58-24.881-74.205 35.131 21.689 58.541 60.528 58.541 104.845z" fill="#efe2dd"/><path d="m261.754 277.473h-126.666c-4.923 0-8.914-3.991-8.914-8.914v-93.593c0-4.923 3.991-8.914 8.914-8.914h126.666c4.923 0 8.914 3.991 8.914 8.914v93.593c0 4.923-3.991 8.914-8.914 8.914z" fill="#ffcd6b"/><path d="m270.671 174.968v93.595c0 4.917-3.994 8.911-8.919 8.911h-20.407c4.925 0 8.919-3.994 8.919-8.911v-93.595c0-4.925-3.994-8.919-8.919-8.919h20.407c4.925 0 8.919 3.994 8.919 8.919z" fill="#ffc143"/><path d="m221.626 221.328c-5.088-7.879-13.826-12.639-23.205-12.639-9.379 0-18.117 4.759-23.205 12.639l-36.253 56.145h59.458 59.458z" fill="#fa0"/><path d="m257.876 277.474h-18.661l-36.252-56.142c-3.333-5.167-8.239-8.996-13.872-11.019 2.948-1.063 6.099-1.623 9.33-1.623 9.381 0 18.115 4.76 23.202 12.642z" fill="#ff9500"/><path d="m198.421 166.052h-64.401l53.99 56.313c5.808 5.606 15.013 5.606 20.821 0l53.99-56.313z" fill="#ffe1a8"/><path d="m262.818 166.049-53.99 56.313c-5.203 5.028-13.143 5.545-18.912 1.559.668-.461 1.305-.979 1.902-1.559l53.99-56.313z" fill="#ffd98f"/></svg>