<svg id="Capa_1" enable-background="new 0 0 511.998 511.998" height="512" viewBox="0 0 511.998 511.998" width="512" xmlns="http://www.w3.org/2000/svg"><path d="m402.237 511.998h-292.476c-8.284 0-15-6.716-15-15v-481.998c0-8.284 6.716-15 15-15h292.476c8.284 0 15 6.716 15 15v481.998c0 8.284-6.716 15-15 15z" fill="#fff5f5"/><path d="m417.237 15v481.998c0 8.284-6.716 15-15 15h-45.685c16.006 0 28.984-12.978 28.984-28.984v-454.03c0-16.006-12.979-28.984-28.984-28.984h45.685c8.284 0 15 6.716 15 15z" fill="#efe2dd"/><path d="m402.237 511.998h-292.476c-8.284 0-15-6.716-15-15v-46.019h322.476v46.019c0 8.284-6.716 15-15 15z" fill="#7ca1b1"/><path d="m417.237 63.388h-322.476v-48.388c0-8.284 6.716-15 15-15h292.476c8.284 0 15 6.716 15 15z" fill="#7ca1b1"/><path d="m417.234 450.978v46.019c0 8.284-6.716 15-15 15h-45.747c16.006 0 28.974-12.978 28.974-28.984v-32.035z" fill="#678d98"/><path d="m417.234 15v48.388h-31.774v-34.404c0-16.006-12.967-28.984-28.973-28.984h45.747c8.284 0 15 6.716 15 15z" fill="#678d98"/><path d="m278.731 484.624h-45.465c-4.142 0-7.5-3.357-7.5-7.5s3.358-7.5 7.5-7.5h45.465c4.142 0 7.5 3.357 7.5 7.5s-3.358 7.5-7.5 7.5z" fill="#537983"/><path d="m234.816 41.341h-21.183c-4.142 0-7.5-3.357-7.5-7.5s3.358-7.5 7.5-7.5h21.183c4.142 0 7.5 3.357 7.5 7.5s-3.358 7.5-7.5 7.5z" fill="#537983"/><path d="m298.364 41.341h-39.106c-4.142 0-7.5-3.357-7.5-7.5s3.358-7.5 7.5-7.5h39.106c4.142 0 7.5 3.357 7.5 7.5s-3.358 7.5-7.5 7.5z" fill="#537983"/><g fill="#7ca1b1"><path d="m201.488 379.762h-55.165c-4.142 0-7.5-3.357-7.5-7.5s3.358-7.5 7.5-7.5h55.165c4.142 0 7.5 3.357 7.5 7.5s-3.358 7.5-7.5 7.5z"/><path d="m365.674 379.762h-134.113c-4.142 0-7.5-3.357-7.5-7.5s3.358-7.5 7.5-7.5h134.113c4.142 0 7.5 3.357 7.5 7.5s-3.358 7.5-7.5 7.5z"/><path d="m169.822 413.752h-23.499c-4.142 0-7.5-3.357-7.5-7.5s3.358-7.5 7.5-7.5h23.499c4.142 0 7.5 3.357 7.5 7.5s-3.358 7.5-7.5 7.5z"/><path d="m268.846 413.752h-70.289c-4.142 0-7.5-3.357-7.5-7.5s3.358-7.5 7.5-7.5h70.289c4.142 0 7.5 3.357 7.5 7.5s-3.358 7.5-7.5 7.5z"/><path d="m365.674 413.752h-65.215c-4.142 0-7.5-3.357-7.5-7.5s3.358-7.5 7.5-7.5h65.215c4.142 0 7.5 3.357 7.5 7.5s-3.358 7.5-7.5 7.5z"/></g><path d="m347.423 307.759h-182.848c-4.551 0-8.24-3.689-8.24-8.24v-166.568c0-4.551 3.689-8.24 8.24-8.24h182.848c4.551 0 8.24 3.689 8.24 8.24v166.568c0 4.551-3.689 8.24-8.24 8.24z" fill="#ffcd6b"/><path d="m347.423 307.759h-19.039v-183.048h19.039c4.551 0 8.24 3.689 8.24 8.24v166.568c0 4.551-3.689 8.24-8.24 8.24z" fill="#ffb509"/><path d="m183.614 207.846h49.025c4.142 0 7.5-3.357 7.5-7.5v-49.024c0-4.143-3.358-7.5-7.5-7.5h-49.025c-4.142 0-7.5 3.357-7.5 7.5v49.024c0 4.142 3.358 7.5 7.5 7.5zm7.5-49.025h34.025v34.024h-34.025z" fill="#537983"/><path d="m328.384 252.481h-61.48c-4.142 0-7.5 3.357-7.5 7.5v21.167c0 4.143 3.358 7.5 7.5 7.5h61.48c4.142 0 7.5-3.357 7.5-7.5v-21.167c0-4.142-3.358-7.5-7.5-7.5zm-7.5 21.167h-46.48v-6.167h46.48z" fill="#537983"/><path d="m328.384 143.821h-31.344-30.137c-4.142 0-7.5 3.357-7.5 7.5v61.48c0 4.143 3.358 7.5 7.5 7.5h11.073v18.746c0 4.143 3.358 7.5 7.5 7.5h25.04c4.142 0 7.5-3.357 7.5-7.5v-18.746h10.367c4.142 0 7.5-3.357 7.5-7.5v-30.138-31.343c.001-4.141-3.357-7.499-7.499-7.499zm-7.5 15v16.343h-16.344v-16.343zm-17.868 72.727h-10.04v-11.246h10.04zm-28.612-26.246v-46.48h15.137v23.843c0 4.143 3.358 7.5 7.5 7.5h23.843v15.138h-46.48z" fill="#537983"/><path d="m235.709 215.355h-52.095c-4.142 0-7.5 3.357-7.5 7.5v58.293c0 4.143 3.358 7.5 7.5 7.5h51.044c4.142 0 7.5-3.357 7.5-7.5v-19.431c0-4.143-3.358-7.5-7.5-7.5h-14.422v-5.079h15.474c4.142 0 7.5-3.357 7.5-7.5v-18.783c-.001-4.142-3.359-7.5-7.501-7.5zm-7.5 18.784h-15.474c-4.142 0-7.5 3.357-7.5 7.5v20.079c0 4.143 3.358 7.5 7.5 7.5h14.422v4.431h-36.044v-43.293h37.095v3.783z" fill="#537983"/><path d="m133.373 137.536c-4.142 0-7.5-3.357-7.5-7.5v-22.357c0-8.68 7.061-15.74 15.74-15.74h24.715c4.142 0 7.5 3.357 7.5 7.5s-3.358 7.5-7.5 7.5h-24.715c-.408 0-.74.332-.74.74v22.357c0 4.143-3.358 7.5-7.5 7.5z" fill="#007baf"/><path d="m378.625 137.536c-4.142 0-7.5-3.357-7.5-7.5v-22.357c0-.408-.332-.74-.74-.74h-24.715c-4.142 0-7.5-3.357-7.5-7.5s3.358-7.5 7.5-7.5h24.715c8.679 0 15.74 7.061 15.74 15.74v22.357c0 4.143-3.358 7.5-7.5 7.5z" fill="#007baf"/><path d="m166.328 340.531h-24.715c-8.679 0-15.74-7.061-15.74-15.74v-22.358c0-4.143 3.358-7.5 7.5-7.5s7.5 3.357 7.5 7.5v22.358c0 .408.332.74.74.74h24.715c4.142 0 7.5 3.357 7.5 7.5s-3.357 7.5-7.5 7.5z" fill="#007baf"/><path d="m370.385 340.531h-24.715c-4.142 0-7.5-3.357-7.5-7.5s3.358-7.5 7.5-7.5h24.715c.408 0 .74-.332.74-.74v-22.358c0-4.143 3.358-7.5 7.5-7.5s7.5 3.357 7.5 7.5v22.358c0 8.68-7.061 15.74-15.74 15.74z" fill="#007baf"/></svg>