<svg id="Capa_1" enable-background="new 0 0 512 512" height="512" viewBox="0 0 512 512" width="512" xmlns="http://www.w3.org/2000/svg"><path d="m186.447 415.618h139.104v71.601h-139.104z" fill="#537983"/><path d="m301.462 415.618h24.088v71.604h-24.088z" fill="#3e5959"/><path d="m489.63 428.938h-467.263c-8.284 0-15-6.716-15-15v-351.7c0-8.284 6.716-15 15-15h467.263c8.284 0 15 6.716 15 15v351.7c0 8.284-6.716 15-15 15z" fill="#fff"/><path d="m504.633 62.241v351.697c0 8.284-6.716 15-15 15h-41.712c14.101 0 25.529-11.428 25.529-25.529v-330.639c0-14.101-11.428-25.529-25.529-25.529h41.712c8.285 0 15 6.716 15 15z" fill="#efe2dd"/><path d="m504.63 367.435h-497.263v46.503c0 8.284 6.716 15 15 15h467.263c8.284 0 15-6.716 15-15z" fill="#7ca1b1"/><path d="m504.633 367.432v46.506c0 8.284-6.716 15-15 15h-41.712c14.101 0 25.529-11.428 25.529-25.529v-35.977z" fill="#678d98"/><path d="m370.625 511.996h-229.253c-2.763 0-5.004-2.24-5.004-5.004v-16.215c0-10.996 8.914-19.91 19.91-19.91h199.441c10.996 0 19.91 8.914 19.91 19.91v16.215c-.001 2.764-2.241 5.004-5.004 5.004z" fill="#7ca1b1"/><path d="m375.627 490.774v16.222c0 2.763-2.24 5.004-5.004 5.004h-17.663v-21.226c0-10.988-8.917-19.905-19.905-19.905h22.667c10.994 0 19.905 8.912 19.905 19.905z" fill="#678d98"/><g fill="#ff5ca8"><circle cx="203.312" cy="313.824" r="11.788"/><circle cx="256" cy="313.824" r="11.788"/><circle cx="308.688" cy="313.824" r="11.788"/></g><path d="m407.828 271.23h-303.656c-5.523 0-10-4.477-10-10v-229.574c0-5.523 4.477-10 10-10h303.657c5.523 0 10 4.477 10 10v229.574c-.001 5.523-4.478 10-10.001 10z" fill="#ffcd6b"/><path d="m417.828 31.656v229.579c0 5.523-4.477 10-10 10h-47.87c11.028 0 19.972-8.944 19.972-19.972v-209.635c0-11.028-8.944-19.972-19.972-19.972h47.87c5.523 0 10 4.477 10 10z" fill="#ffc143"/><path d="m310.622 139.07c-11.976-18.547-32.545-29.75-54.622-29.75-22.077 0-42.646 11.203-54.622 29.75l-85.336 132.16h139.958 139.958z" fill="#fa0"/><path d="m395.959 271.235h-43.483l-85.326-132.16c-7.906-12.223-19.546-21.277-32.898-25.995 6.886-2.459 14.227-3.753 21.75-3.753 22.078 0 42.644 11.203 54.613 29.747z" fill="#ff9500"/><path d="m256 21.656h-144.253l120.933 126.136c13.011 12.557 33.628 12.557 46.638 0l120.935-126.136z" fill="#ffe1a8"/><path d="m400.243 21.656-120.933 126.144c-12.999 12.544-33.616 12.544-46.634 0l-1.629-1.705c4.339-1.554 8.432-4.036 11.976-7.447l112.178-116.992z" fill="#ffd98f"/><circle cx="388.443" cy="61.647" fill="#ff5ca8" r="61.647"/><path d="m450.094 61.639c0 34.046-27.601 61.648-61.648 61.648-21.944 0-41.205-11.465-52.124-28.723 8.311 4.171 17.698 6.521 27.616 6.521 34.046 0 61.648-27.601 61.648-61.648 0-12.102-3.488-23.385-9.509-32.894 20.171 10.115 34.017 30.983 34.017 55.096z" fill="#ff3d98"/><path d="m410.948 41.207c0 2.016-1.247 4.99-2.399 7.293l-24.279 46.637c-.672 1.248-1.919 1.823-3.551 1.823-3.934 0-7.868-2.687-7.868-6.237 0-.768.096-1.439.575-2.207l25.047-44.91v-6.334h-20.057v7.773c0 2.303-3.07 4.03-6.333 4.03-3.359 0-6.142-1.728-6.142-4.03v-14.778c0-1.92 2.687-3.935 5.47-3.935h34.066c2.399 0 5.47 2.015 5.47 3.935v10.94z" fill="#fff"/></svg>