<svg id="Capa_1" enable-background="new 0 0 512 512" height="512" viewBox="0 0 512 512" width="512" xmlns="http://www.w3.org/2000/svg"><path d="m88.257 140.855v232.25c0 56.255 45.604 101.859 101.859 101.859h165.38c56.255 0 101.859-45.604 101.859-101.859v-232.25z" fill="#fa0"/><path d="m457.356 140.852v232.25c0 56.258-45.608 101.867-101.853 101.867h-43.973c56.244 0 101.853-45.609 101.853-101.867v-232.25z" fill="#ff9500"/><path d="m130.491 313.173h-39.394c-1.709 0-3.094-1.385-3.094-3.094v-102.795c0-1.709 1.385-3.094 3.094-3.094h39.393v108.983z" fill="#7ca1b1"/><path d="m88.003 305.326h-16.869c-12.782 0-23.145-10.362-23.145-23.145v-47.001c0-12.782 10.362-23.145 23.145-23.145h16.869z" fill="#ff5757"/><path d="m315.125 402.69h-84.638c-60.662 0-109.838-49.176-109.838-109.838v-142.315h304.315v142.315c0 60.662-49.177 109.838-109.839 109.838z" fill="#ffdfcf"/><path d="m424.967 150.539v142.308c0 60.669-49.181 109.837-109.837 109.837h-43.423c60.669 0 109.837-49.168 109.837-109.837v-142.308z" fill="#ffcebf"/><g fill="#ff9a9a"><circle cx="183.95" cy="322.604" r="16.365"/><circle cx="361.662" cy="322.604" r="16.365"/><path d="m272.806 373.977c-16.256 0-29.482-13.226-29.482-29.482v-1.008c0-4.143 3.358-7.5 7.5-7.5s7.501 3.357 7.501 7.5v1.008c0 7.985 6.496 14.482 14.481 14.482 7.986 0 14.483-6.497 14.483-14.482v-1.008c0-4.143 3.357-7.5 7.5-7.5s7.5 3.357 7.5 7.5v1.008c0 16.256-13.226 29.482-29.483 29.482z"/></g><path d="m342.643 512v-43.935c0-14.67-7.198-28.709-19.095-37.29-6.012-4.336-13.053-7.176-20.393-8.21-9.518-1.34-9.646-1.051-9.646-11.019 0-.027 0-8.862 0-8.862h-41.406v8.862c0 9.968-.127 9.679-9.646 11.019-7.341 1.033-14.382 3.874-20.393 8.21-11.897 8.581-19.095 22.62-19.095 37.29v43.935z" fill="#ffdfcf"/><path d="m342.639 468.067v43.933h-139.666v-43.933c0-14.674 7.192-28.711 19.087-37.288 3.842-2.77 8.102-4.929 12.596-6.395 2.537-.829 5.154-1.442 7.804-1.82 3.882-.548 6.201-.813 7.586-1.627l1.78.395 4.486 2.537c10.139 5.75 22.534 5.791 32.714.113l4.76-2.65 1.78-.395c1.385.813 3.705 1.079 7.586 1.627 2.65.379 5.267.991 7.804 1.82 4.494 1.466 8.754 3.624 12.596 6.395 11.895 8.576 19.087 22.614 19.087 37.288z" fill="#e41d71"/><path d="m342.639 468.068v43.932h-139.665v-43.932c0-14.675 7.188-28.712 19.083-37.29 3.841-2.77 8.105-4.933 12.595-6.395 2.544-.824 5.159-1.442 7.806-1.823 3.882-.546 6.2-.814 7.59-1.627l1.782.402 4.48 2.533c10.144 5.746 22.543 5.787 32.717.113l4.758-2.647 1.782-.402c.124.072.268.144.412.216 1.411.649 3.656.917 7.178 1.411 2.647.381 5.262.999 7.806 1.823 4.49 1.462 8.754 3.625 12.595 6.395 11.892 8.579 19.081 22.616 19.081 37.291z" fill="#ff5757"/><path d="m231.165 312.158c-4.142 0-7.5-3.357-7.5-7.5v-17.363c0-4.143 3.358-7.5 7.5-7.5s7.5 3.357 7.5 7.5v17.363c0 4.143-3.358 7.5-7.5 7.5z" fill="#7ca1b1"/><path d="m314.447 312.158c-4.143 0-7.5-3.357-7.5-7.5v-17.363c0-4.143 3.357-7.5 7.5-7.5s7.5 3.357 7.5 7.5v17.363c0 4.143-3.357 7.5-7.5 7.5z" fill="#7ca1b1"/><path d="m454.212 285.884c-6.734 7.278-16.367 11.834-27.064 11.834h-2.184v-73.725h2.184c20.359 0 36.862 16.504 36.862 36.862 0 9.662-3.716 18.455-9.798 25.029z" fill="#ffcebf"/><path d="m88.491 141.323s109.887 92.936 197.394 92.588c3.463-.014 5.925-3.378 4.897-6.685l-2.322-7.472c-1.384-4.455 3.388-8.305 7.45-6.01 26.65 15.056 95.328 49.64 156.456 44.874 2.683-.209 4.754-2.452 4.754-5.144v-112.151c.001-78.051-63.271-141.323-141.322-141.323h-85.985c-78.05 0-141.322 63.272-141.322 141.323z" fill="#fa0"/><path d="m457.122 141.319v112.155c0 2.689-2.067 4.933-4.748 5.143-13.345 1.042-27.055.204-40.6-1.896v-115.402c0-39.026-15.817-74.356-41.39-99.929-25.572-25.573-60.915-41.39-99.928-41.39h45.347c39.012 0 74.356 15.817 99.929 41.39 25.574 25.573 41.39 60.903 41.39 99.929z" fill="#ff9500"/><path d="m100.59 313.173v29.157c0 17.957 14.609 32.565 32.565 32.565h71.211c4.272 0 7.735-3.463 7.735-7.735s-3.463-7.735-7.735-7.735h-71.211c-9.426 0-17.094-7.669-17.094-17.094v-29.157h-15.471z" fill="#ff5757"/><circle cx="208.306" cy="367.378" fill="#7ca1b1" r="13.423"/><path d="m221.73 367.382c0 7.41-6.013 13.414-13.424 13.414-3.59 0-6.846-1.406-9.261-3.71 7.272-.157 13.109-6.096 13.109-13.405 0-3.83-1.6-7.272-4.163-9.714.102-.009.213-.009.315-.009 7.411 0 13.424 6.005 13.424 13.424z" fill="#678d98"/><path d="m244.602 486.999v23.392c0 .557-.062 1.093-.165 1.609h-15.141c-.103-.516-.165-1.052-.165-1.609v-23.392c0-4.27 3.465-7.735 7.735-7.735s7.736 3.465 7.736 7.735z" fill="#e32929"/><path d="m316.531 486.999v23.392c0 .557-.062 1.093-.165 1.609h-15.141c-.103-.516-.165-1.052-.165-1.609v-23.392c0-4.27 3.465-7.735 7.735-7.735 4.271 0 7.736 3.465 7.736 7.735z" fill="#e32929"/></svg>