<svg id="Capa_1" enable-background="new 0 0 512 512" height="512" viewBox="0 0 512 512" width="512" xmlns="http://www.w3.org/2000/svg"><path d="m321.051 512h-292.478c-8.284 0-15-6.716-15-15v-482c0-8.284 6.716-15 15-15h292.478c8.284 0 15 6.716 15 15v482c0 8.284-6.716 15-15 15z" fill="#fff5f5"/><path d="m336.048 15v482c0 8.284-6.716 15-15 15h-45.686c16.006 0 28.984-12.978 28.984-28.984v-454.032c0-16.006-12.978-28.984-28.984-28.984h45.686c8.284 0 15 6.716 15 15z" fill="#efe2dd"/><path d="m321.051 512h-292.478c-8.284 0-15-6.716-15-15v-46.02h322.478v46.02c0 8.284-6.716 15-15 15z" fill="#7ca1b1"/><path d="m336.051 63.388h-322.478v-48.388c0-8.284 6.716-15 15-15h292.478c8.284 0 15 6.716 15 15z" fill="#7ca1b1"/><path d="m336.048 450.98v46.02c0 8.284-6.716 15-15 15h-45.748c16.006 0 28.974-12.978 28.974-28.984v-32.036z" fill="#678d98"/><path d="m336.048 15v48.388h-31.774v-34.404c0-16.006-12.968-28.984-28.974-28.984h45.748c8.284 0 15 6.716 15 15z" fill="#678d98"/><g fill="#537983"><path d="m197.544 484.626h-45.465c-4.143 0-7.5-3.357-7.5-7.5s3.357-7.5 7.5-7.5h45.465c4.143 0 7.5 3.357 7.5 7.5s-3.357 7.5-7.5 7.5z"/><path d="m153.629 41.341h-21.183c-4.143 0-7.5-3.357-7.5-7.5s3.357-7.5 7.5-7.5h21.183c4.143 0 7.5 3.357 7.5 7.5s-3.358 7.5-7.5 7.5z"/><path d="m217.177 41.341h-39.107c-4.143 0-7.5-3.357-7.5-7.5s3.357-7.5 7.5-7.5h39.106c4.143 0 7.5 3.357 7.5 7.5s-3.357 7.5-7.499 7.5z"/></g><path d="m174.812 262.47h-112.921c-4.143 0-7.5-3.357-7.5-7.5s3.357-7.5 7.5-7.5h112.921c4.143 0 7.5 3.357 7.5 7.5s-3.358 7.5-7.5 7.5z" fill="#ff3d98"/><path d="m203.002 306.761h-93.73c-4.143 0-7.5-3.357-7.5-7.5s3.357-7.5 7.5-7.5h93.73c4.143 0 7.5 3.357 7.5 7.5s-3.357 7.5-7.5 7.5z" fill="#ff3d98"/><path d="m203.002 220.239h-51.5c-4.143 0-7.5-3.357-7.5-7.5s3.357-7.5 7.5-7.5h51.5c4.143 0 7.5 3.357 7.5 7.5s-3.357 7.5-7.5 7.5z" fill="#ff3d98"/><path d="m488.427 355.24h-237.396c-5.523 0-10-4.477-10-10v-178.48c0-5.523 4.477-10 10-10h237.396c5.523 0 10 4.477 10 10v178.48c0 5.523-4.477 10-10 10z" fill="#ff5ca8"/><path d="m498.425 166.76v178.48c0 5.523-4.477 10-10 10h-22.652c8.774 0 15.881-7.112 15.881-15.881v-166.719c0-8.769-7.106-15.881-15.881-15.881h22.652c5.523.001 10 4.478 10 10.001z" fill="#ff3d98"/><path d="m413.242 249.959c-9.54-14.775-25.926-23.699-43.513-23.699-17.587 0-33.973 8.924-43.513 23.699l-67.98 105.281h111.492 111.493z" fill="#ff3d98"/><path d="m481.223 355.24h-21.731l-67.982-105.279c-7.536-11.676-19.342-19.696-32.644-22.549 3.531-.758 7.172-1.152 10.863-1.152 17.586 0 33.971 8.923 43.512 23.701z" fill="#e61e7f"/><path d="m369.729 156.76h-114.72l96.175 100.313c10.347 9.986 26.743 9.986 37.09 0l96.176-100.313z" fill="#ffa4cf"/><path d="m484.451 156.76-96.179 100.312c-7.541 7.277-18.299 9.251-27.581 5.915 3.45-1.238 6.702-3.206 9.505-5.915l96.174-100.312z" fill="#ff7ab8"/><path d="" style="fill:none;stroke:#000;stroke-width:15;stroke-linecap:round;stroke-linejoin:round;stroke-miterlimit:10"/></svg>