<svg id="Capa_1" enable-background="new 0 0 512 512" height="512" viewBox="0 0 512 512" width="512" xmlns="http://www.w3.org/2000/svg"><path d="m467.126 510.173h-457.126c-5.523 0-10-4.477-10-10v-357.916h477.126v357.916c0 5.523-4.477 10-10 10z" fill="#a3e72d"/><path d="m477.123 142.257.003 3.684v354.232c0 5.523-4.477 10-10 10h-55.129c17.501 0 31.676-14.185 31.676-31.676v-336.24z" fill="#80cf00"/><path d="m259.798 7.862c-13.013-8.047-29.456-8.047-42.469 0l-217.329 134.395 206.216 205.06c17.895 17.794 46.801 17.794 64.695 0l206.216-205.06z" fill="#eefadb"/><path d="m238.563 62.999h-158.426c-4.565 0-8.265 3.7-8.265 8.265v142.462l134.347 133.594c8.946 8.896 20.645 13.344 32.345 13.344 11.699 0 23.398-4.448 32.345-13.344l134.347-133.594v-142.462c0-4.565-3.7-8.265-8.265-8.265z" fill="#fff5f5"/><path d="m319.007 315.536c-17.637-27.315-47.93-43.814-80.444-43.814-32.514 0-62.807 16.499-80.444 43.814l-125.676 194.637h206.12 206.12z" fill="#6db000"/><path d="m444.683 510.173h-40.175l-125.68-194.633c-13.933-21.586-35.758-36.413-60.35-41.687 6.528-1.402 13.26-2.13 20.083-2.13 32.513 0 62.803 16.496 80.442 43.817z" fill="#5a9200"/><circle cx="409.789" cy="119.288" fill="#ff5757" r="102.209"/><path d="m512 119.288c0 56.451-45.758 102.208-102.208 102.208-24.34 0-46.687-8.503-64.24-22.719 11.86 4.814 24.826 7.47 38.412 7.47 56.451 0 102.208-45.758 102.208-102.208 0-32.11-14.805-60.769-37.968-79.49 37.41 15.177 63.796 51.874 63.796 94.739z" fill="#f72c2c"/><path d="m458.277 137.885h-96.974c-3.994 0-7.232-3.238-7.232-7.232v-22.729c0-3.994 3.238-7.232 7.232-7.232h96.974c3.994 0 7.232 3.238 7.232 7.232v22.729c0 3.994-3.238 7.232-7.232 7.232z" fill="#fff5f5"/><path d="m458.277 137.885h-10.138v-37.193h10.138c3.994 0 7.232 3.238 7.232 7.232v22.729c0 3.994-3.238 7.232-7.232 7.232z" fill="#efe2dd"/></svg>