<svg id="Smart_control" height="512" viewBox="0 0 64 64" width="512" xmlns="http://www.w3.org/2000/svg" data-name="Smart control"><path d="m8 25h54a0 0 0 0 1 0 0v21a5 5 0 0 1 -5 5h-44a5 5 0 0 1 -5-5v-21a0 0 0 0 1 0 0z" fill="#57565c"/><path d="m13 51h44v-6a2 2 0 0 0 -2-2h-40a2 2 0 0 0 -2 2z" fill="#6a97d1"/><rect fill="#e9e9ea" height="35" rx="2" width="22" x="7" y="8"/><path d="m11 12h14v25h-14z" fill="#2488ff"/><path d="m15 61-1.855-15.2a2 2 0 0 1 .3-1.467l.712-1.068a5 5 0 0 0 .843-2.779v-.415a5 5 0 0 0 -1.464-3.535l-.536-.536 2.272-3.787a1.811 1.811 0 0 0 -.272-2.213 1.811 1.811 0 0 0 -2.213-.272l-3.117 1.872a1 1 0 0 1 -1.222-.15l-1.155-1.157a1 1 0 0 1 -.293-.707v-11.586l-3.857 9.642a2.016 2.016 0 0 0 -.143.743v10.282a4 4 0 0 0 .8 2.4l.66.879a6.005 6.005 0 0 1 1.118 4.586l-1.578 14.468z" fill="#ffcbbe"/><circle cx="18" cy="21" fill="#ff9811" r="3"/><path d="m16 46h38v2h-38z" fill="#57565c"/><path d="m46 28h6v2h-6z" fill="#5bcbfa"/><path d="m54 28h3v2h-3z" fill="#5bcbfa"/><path d="m41.586 16.586a2 2 0 1 0 2.828 0 2 2 0 0 0 -2.828 0z" fill="#ff9811"/><path d="m47.242 13.757a6 6 0 0 0 -8.484 0l1.414 1.414a4.1 4.1 0 0 1 5.656 0z" fill="#ff9811"/><path d="m50.071 10.929a10 10 0 0 0 -14.142 0l1.414 1.414a8 8 0 0 1 11.314 0z" fill="#ff9811"/><path d="m51.485 9.515 1.415-1.415a14.016 14.016 0 0 0 -19.8 0l1.414 1.414a12.014 12.014 0 0 1 16.971.001z" fill="#ff9811"/><g fill="#6a97d1"><path d="m20.028 57.767a15.622 15.622 0 0 0 -.508 4.233h2a13.8 13.8 0 0 1 .452-3.767 15.622 15.622 0 0 0 .508-4.233h-2a13.8 13.8 0 0 1 -.452 3.767z"/><path d="m27.028 57.767a15.622 15.622 0 0 0 -.508 4.233h2a13.8 13.8 0 0 1 .452-3.767 15.622 15.622 0 0 0 .508-4.233h-2a13.8 13.8 0 0 1 -.452 3.767z"/><path d="m35.027 57.767a15.66 15.66 0 0 0 -.507 4.233h2a13.713 13.713 0 0 1 .453-3.767 15.66 15.66 0 0 0 .507-4.233h-2a13.713 13.713 0 0 1 -.453 3.767z"/><path d="m42.027 57.767a15.66 15.66 0 0 0 -.507 4.233h2a13.713 13.713 0 0 1 .453-3.767 15.66 15.66 0 0 0 .507-4.233h-2a13.713 13.713 0 0 1 -.453 3.767z"/><path d="m49.027 57.767a15.66 15.66 0 0 0 -.507 4.233h2a13.713 13.713 0 0 1 .453-3.767 15.66 15.66 0 0 0 .507-4.233h-2a13.713 13.713 0 0 1 -.453 3.767z"/></g></svg>