<svg id="Smart_control" height="512" viewBox="0 0 64 64" width="512" xmlns="http://www.w3.org/2000/svg" data-name="Smart control"><path d="m19 21v40h4v-36h34v36h4v-40z" fill="#57565c"/><path d="m22 31h35v6h-35z" fill="#d8d7da"/><path d="m22 25h35v6h-35z" fill="#e9e9ea"/><rect fill="#e9e9ea" height="35" rx="2" width="22" x="7" y="8"/><path d="m11 12h14v25h-14z" fill="#2488ff"/><circle cx="18" cy="21" fill="#ff9811" r="3"/><path d="m15 61-1.855-15.2a2 2 0 0 1 .3-1.467l.712-1.068a5 5 0 0 0 .843-2.779v-.415a5 5 0 0 0 -1.464-3.535l-.536-.536 2.272-3.787a1.811 1.811 0 0 0 -.272-2.213 1.811 1.811 0 0 0 -2.213-.272l-3.117 1.872a1 1 0 0 1 -1.222-.15l-1.155-1.157a1 1 0 0 1 -.293-.707v-11.586l-3.857 9.642a2.016 2.016 0 0 0 -.143.743v10.282a4 4 0 0 0 .8 2.4l.66.879a6.005 6.005 0 0 1 1.118 4.586l-1.578 14.468z" fill="#ffcbbe"/><path d="m50 49h-19l1.621-6.485a2 2 0 0 1 1.941-1.515h11.876a2 2 0 0 1 1.941 1.515z" fill="#57a4ff"/><rect fill="#ec455a" height="7" rx="2" width="25" x="28" y="49"/><path d="m30 56h5a0 0 0 0 1 0 0v4a1 1 0 0 1 -1 1h-3a1 1 0 0 1 -1-1v-4a0 0 0 0 1 0 0z" fill="#57565c"/><path d="m46 56h5a0 0 0 0 1 0 0v4a1 1 0 0 1 -1 1h-3a1 1 0 0 1 -1-1v-4a0 0 0 0 1 0 0z" fill="#57565c"/><circle cx="33" cy="51" fill="#ffda44" r="2"/><circle cx="48" cy="51" fill="#ffda44" r="2"/><g fill="#ff9811"><path d="m40.586 14.586a2 2 0 1 0 2.828 0 2 2 0 0 0 -2.828 0z"/><path d="m46.243 11.757a6.007 6.007 0 0 0 -8.486 0l1.414 1.414a4.007 4.007 0 0 1 5.658 0z"/><path d="m49.071 8.929a10 10 0 0 0 -14.142 0l1.414 1.414a8 8 0 0 1 11.314 0z"/><path d="m50.485 7.515 1.415-1.415a14.014 14.014 0 0 0 -19.8 0l1.414 1.414a12.013 12.013 0 0 1 16.971.001z"/></g><path d="m49 34h2v3h-2z" fill="#b8b6b6"/><path d="m49 28h2v3h-2z" fill="#b8b6b6"/></svg>