<svg id="Smart_control" height="512" viewBox="0 0 64 64" width="512" xmlns="http://www.w3.org/2000/svg" data-name="Smart control"><path d="m27 51h7a0 0 0 0 1 0 0v7a1 1 0 0 1 -1 1h-5a1 1 0 0 1 -1-1v-7a0 0 0 0 1 0 0z" fill="#3e3d42"/><path d="m53 51h5a1 1 0 0 1 1 1v7a0 0 0 0 1 0 0h-7a0 0 0 0 1 0 0v-7a1 1 0 0 1 1-1z" fill="#3e3d42" transform="matrix(-1 0 0 -1 111 110)"/><path d="m25 49v-9a2 2 0 0 1 2-2h32a2 2 0 0 1 2 2v9z" fill="#ec455a"/><path d="m25 46h36v5h-36z" fill="#ec455a"/><path d="m25 42h7v4h-7z" fill="#f7d880"/><path d="m54 42h7v4h-7z" fill="#f7d880"/><path d="m32 27h22a4 4 0 0 1 4 4v7a0 0 0 0 1 0 0h-30a0 0 0 0 1 0 0v-7a4 4 0 0 1 4-4z" fill="#2488ff"/><rect fill="#e9e9ea" height="35" rx="2" width="22" x="7" y="11"/><path d="m11 15h14v25h-14z" fill="#2488ff"/><circle cx="18" cy="24" fill="#ff9811" r="3"/><path d="m32 42h22v4h-22z" fill="#e6e6e6"/><path d="m15 61-1.855-15.2a2 2 0 0 1 .3-1.467l.712-1.068a5 5 0 0 0 .843-2.779v-.415a5 5 0 0 0 -1.464-3.535l-.536-.536 2.272-3.787a1.811 1.811 0 0 0 -.272-2.213 1.811 1.811 0 0 0 -2.213-.272l-3.117 1.872a1 1 0 0 1 -1.222-.15l-1.155-1.157a1 1 0 0 1 -.293-.707v-11.586l-3.857 9.642a2.016 2.016 0 0 0 -.143.743v10.282a4 4 0 0 0 .8 2.4l.66.879a6.005 6.005 0 0 1 1.118 4.586l-1.578 14.468z" fill="#ffcbbe"/><g fill="#ff9811"><path d="m43.586 17.586a2 2 0 1 0 2.828 0 2 2 0 0 0 -2.828 0z"/><path d="m49.243 14.757a6.007 6.007 0 0 0 -8.486 0l1.414 1.414a4.007 4.007 0 0 1 5.658 0z"/><path d="m52.071 11.929a10 10 0 0 0 -14.142 0l1.414 1.414a8 8 0 0 1 11.314 0z"/><path d="m53.485 10.515 1.415-1.415a14.014 14.014 0 0 0 -19.8 0l1.414 1.414a12.013 12.013 0 0 1 16.971.001z"/></g></svg>