<svg id="Smart_control" height="512" viewBox="0 0 64 64" width="512" xmlns="http://www.w3.org/2000/svg" data-name="Smart control"><rect fill="#57565c" height="14" rx="2" width="20" x="25" y="44"/><path d="m57 29-11-1-1-3h-21v14h21l1-4 11-1z" fill="#57565c"/><path d="m54 39a3 3 0 0 1 -3-3v-11h6v11a3 3 0 0 1 -3 3z" fill="#898890"/><circle cx="35" cy="51" fill="#5bcbfa" r="4"/><path d="m33 39h4v5h-4z" fill="#e9e9ea"/><rect fill="#e9e9ea" height="35" rx="2" width="22" x="7" y="5"/><path d="m11 9h14v25h-14z" fill="#2488ff"/><circle cx="18" cy="18" fill="#ff9811" r="3"/><path d="m15 61-1.855-18.2a2 2 0 0 1 .3-1.467l.712-1.068a5 5 0 0 0 .843-2.779v-.415a5 5 0 0 0 -1.464-3.535l-.536-.536 2.272-3.787a1.811 1.811 0 0 0 -.272-2.213 1.811 1.811 0 0 0 -2.213-.272l-3.117 1.872a1 1 0 0 1 -1.222-.15l-1.155-1.157a1 1 0 0 1 -.293-.707v-11.586l-3.857 9.642a2.016 2.016 0 0 0 -.143.743v10.282a4 4 0 0 0 .8 2.4l.66.879a6.005 6.005 0 0 1 1.118 4.586l-1.578 17.468z" fill="#ffcbbe"/><g fill="#ff9811"><path d="m41.586 14.586a2 2 0 1 0 2.828 0 2 2 0 0 0 -2.828 0z"/><path d="m47.243 11.758a6 6 0 0 0 -8.486 0l1.414 1.414a4.1 4.1 0 0 1 5.658 0z"/><path d="m50.071 8.929a10.011 10.011 0 0 0 -14.142 0l1.414 1.414a8.01 8.01 0 0 1 11.314 0z"/><path d="m43 4a11.917 11.917 0 0 1 8.485 3.515l1.415-1.415a14 14 0 0 0 -19.8 0l1.414 1.414a11.917 11.917 0 0 1 8.486-3.514z"/></g><path d="m51.171 41.828-1.414 1.414a6 6 0 0 0 8.486 0l-1.414-1.414a4.1 4.1 0 0 1 -5.658 0z" fill="#5aaae7"/><path d="m51.171 45.828-1.414 1.414a6 6 0 0 0 8.486 0l-1.414-1.414a4.1 4.1 0 0 1 -5.658 0z" fill="#5aaae7"/><path d="m55 21v-1a1 1 0 0 0 -1-1 1 1 0 0 0 -1 1v1h-7v2h7v2h2v-2h7v-2z" fill="#57565c"/><path d="m46 21h16v2h-16z" fill="#c2c2c2"/></svg>