<svg id="Smart_control" height="512" viewBox="0 0 64 64" width="512" xmlns="http://www.w3.org/2000/svg" data-name="Smart control"><circle cx="43" cy="41" fill="#787680" r="18"/><g fill="#5bcbfa"><path d="m47 30c0 2.209-1.791 9-4 9s-4-6.791-4-9a4 4 0 0 1 8 0z"/><path d="m32 37c2.209 0 9 1.791 9 4s-6.791 4-9 4a4 4 0 0 1 0-8z"/><path d="m39 52c0-2.209 1.791-9 4-9s4 6.791 4 9a4 4 0 0 1 -8 0z"/><path d="m54 45c-2.209 0-9-1.791-9-4s6.791-4 9-4a4 4 0 0 1 0 8z"/></g><circle cx="43" cy="41" fill="#365e7d" r="3"/><rect fill="#e9e9ea" height="35" rx="2" width="22" x="7" y="6"/><path d="m11 10h14v25h-14z" fill="#2488ff"/><circle cx="18" cy="19" fill="#ff9811" r="3"/><path d="m15 61-1.855-17.2a2 2 0 0 1 .3-1.467l.712-1.068a5 5 0 0 0 .843-2.779v-.415a5 5 0 0 0 -1.464-3.535l-.536-.536 2.272-3.787a1.811 1.811 0 0 0 -.272-2.213 1.811 1.811 0 0 0 -2.213-.272l-3.117 1.872a1 1 0 0 1 -1.222-.15l-1.155-1.157a1 1 0 0 1 -.293-.707v-11.586l-3.857 9.642a2.016 2.016 0 0 0 -.143.743v10.282a4 4 0 0 0 .8 2.4l.66.879a6.005 6.005 0 0 1 1.118 4.586l-1.578 16.468z" fill="#ffcbbe"/><path d="m31.2 33.461 1.684 1.078a12.119 12.119 0 0 1 3.716-3.693l-1.069-1.692a14.164 14.164 0 0 0 -4.331 4.307z" fill="#67cdd9"/><path d="m32.846 47.4-1.692 1.069a14.164 14.164 0 0 0 4.307 4.331l1.078-1.684a12.119 12.119 0 0 1 -3.693-3.716z" fill="#67cdd9"/><path d="m49.4 51.154 1.069 1.692a14.164 14.164 0 0 0 4.331-4.307l-1.684-1.078a12.119 12.119 0 0 1 -3.716 3.693z" fill="#67cdd9"/><path d="m50.539 29.2-1.078 1.684a12.119 12.119 0 0 1 3.693 3.716l1.692-1.069a14.164 14.164 0 0 0 -4.307-4.331z" fill="#67cdd9"/><path d="m41.586 15.586a2 2 0 1 0 2.828 0 2 2 0 0 0 -2.828 0z" fill="#ff9811"/><path d="m47.242 12.758a6 6 0 0 0 -8.484 0l1.414 1.414a4.093 4.093 0 0 1 5.656 0z" fill="#ff9811"/><path d="m50.071 9.929a10.011 10.011 0 0 0 -14.142 0l1.414 1.414a8.01 8.01 0 0 1 11.314 0z" fill="#ff9811"/><path d="m51.485 8.515 1.415-1.415a14 14 0 0 0 -19.8 0l1.414 1.414a12.014 12.014 0 0 1 16.971.001z" fill="#ff9811"/></svg>