<svg id="Smart_control" height="512" viewBox="0 0 64 64" width="512" xmlns="http://www.w3.org/2000/svg" data-name="Smart control"><path d="m43 21v2h4v5h2v-5h4v-2z" fill="#898890"/><rect fill="#e9e9ea" height="35" rx="2" width="22" x="7" y="7"/><path d="m11 11h14v25h-14z" fill="#2488ff"/><path d="m15 61-1.855-16.2a2 2 0 0 1 .3-1.467l.712-1.068a5 5 0 0 0 .843-2.779v-.415a5 5 0 0 0 -1.464-3.535l-.536-.536 2.272-3.787a1.811 1.811 0 0 0 -.272-2.213 1.811 1.811 0 0 0 -2.213-.272l-3.117 1.872a1 1 0 0 1 -1.222-.15l-1.155-1.157a1 1 0 0 1 -.293-.707v-11.586l-3.857 9.642a2.016 2.016 0 0 0 -.143.743v10.282a4 4 0 0 0 .8 2.4l.66.879a6.005 6.005 0 0 1 1.118 4.586l-1.578 15.468z" fill="#ffcbbe"/><path d="m44 54a5 5 0 0 1 -10 0c0-2.761 5-9 5-9s5 6.239 5 9z" fill="#00e7f0"/><path d="m56 28h-16a5 5 0 0 0 -5 5v5h-2v4h11v-4h-2v-3a1 1 0 0 1 1-1h10a1 1 0 0 1 1 1v26h7v-28a5 5 0 0 0 -5-5z" fill="#85d5e3"/><path d="m44 27h8v8h-8z" fill="#3d9ae2"/><g fill="#ff9811"><circle cx="18" cy="21" r="3"/><path d="m47.242 11.757a6 6 0 0 0 -8.484 0l1.414 1.414a4.1 4.1 0 0 1 5.656 0z"/><path d="m50.071 8.929a10 10 0 0 0 -14.142 0l1.414 1.414a8 8 0 0 1 11.314 0z"/><path d="m51.485 7.515 1.415-1.415a14.016 14.016 0 0 0 -19.8 0l1.414 1.414a12.014 12.014 0 0 1 16.971.001z"/><path d="m41.586 14.586a2 2 0 1 0 2.828 0 2 2 0 0 0 -2.828 0z"/></g><path d="m47 23h2v1h-2z" fill="#57565c"/></svg>