<svg id="Smart_control" height="512" viewBox="0 0 64 64" width="512" xmlns="http://www.w3.org/2000/svg" data-name="Smart control"><path d="m48 23a12.943 12.943 0 0 0 -9 3.633 12.99 12.99 0 0 0 -22 9.367c0 12 18.76 23.367 22 23.367s22-11.367 22-23.367a13 13 0 0 0 -13-13z" fill="#ec455a"/><rect fill="#e9e9ea" height="35" rx="2" width="22" x="7" y="8"/><path d="m11 12h14v25h-14z" fill="#2488ff"/><circle cx="18" cy="21" fill="#ff9811" r="3"/><path d="m15 61-1.855-15.2a2 2 0 0 1 .3-1.467l.712-1.068a5 5 0 0 0 .843-2.779v-.415a5 5 0 0 0 -1.464-3.535l-.536-.536 2.272-3.787a1.811 1.811 0 0 0 -.272-2.213 1.811 1.811 0 0 0 -2.213-.272l-3.117 1.872a1 1 0 0 1 -1.222-.15l-1.155-1.157a1 1 0 0 1 -.293-.707v-11.586l-3.857 9.642a2.016 2.016 0 0 0 -.143.743v10.282a4 4 0 0 0 .8 2.4l.66.879a6.005 6.005 0 0 1 1.118 4.586l-1.578 14.468z" fill="#ffcbbe"/><g fill="#ff9811"><path d="m43.586 16.586a2 2 0 1 0 2.828 0 2 2 0 0 0 -2.828 0z"/><path d="m49.243 13.757a6.007 6.007 0 0 0 -8.486 0l1.414 1.414a4.007 4.007 0 0 1 5.658 0z"/><path d="m52.071 10.929a10 10 0 0 0 -14.142 0l1.414 1.414a8 8 0 0 1 11.314 0z"/><path d="m53.485 9.515 1.415-1.415a14.014 14.014 0 0 0 -19.8 0l1.414 1.414a12.013 12.013 0 0 1 16.971.001z"/></g><path d="m40 55a1 1 0 0 1 -.949-.684l-4.184-12.554-2.953 6.644a1 1 0 0 1 -.914.594h-14v-2h13.35l3.736-8.406a1.026 1.026 0 0 1 .962-.594 1 1 0 0 1 .9.683l3.914 11.742 4.168-16.668a1 1 0 0 1 1.96.1l1.877 13.143h13.133v2h-14a1 1 0 0 1 -.99-.858l-1.278-8.942-3.762 15.043a1 1 0 0 1 -.931.756z" fill="#85d5e3"/></svg>