<svg id="Smart_control" height="512" viewBox="0 0 64 64" width="512" xmlns="http://www.w3.org/2000/svg" data-name="Smart control"><rect fill="#e9e9ea" height="35" rx="2" width="22" x="7" y="8"/><path d="m11 12h14v25h-14z" fill="#2488ff"/><path d="m15 61-1.855-15.2a2 2 0 0 1 .3-1.467l.712-1.068a5 5 0 0 0 .843-2.779v-.415a5 5 0 0 0 -1.464-3.535l-.536-.536 2.272-3.787a1.811 1.811 0 0 0 -.272-2.213 1.811 1.811 0 0 0 -2.213-.272l-3.117 1.872a1 1 0 0 1 -1.222-.15l-1.155-1.157a1 1 0 0 1 -.293-.707v-11.586l-3.857 9.642a2.016 2.016 0 0 0 -.143.743v10.282a4 4 0 0 0 .8 2.4l.66.879a6.005 6.005 0 0 1 1.118 4.586l-1.578 14.468z" fill="#ffcbbe"/><circle cx="18" cy="21" fill="#ff9811" r="3"/><path d="m50 32.77v-1.77h-10v1.632a6.068 6.068 0 0 1 -2.285 4.845 11.959 11.959 0 0 0 -4.715 9.742 12 12 0 0 0 24-.219 11.959 11.959 0 0 0 -4.755-9.553 5.846 5.846 0 0 1 -2.245-4.677z" fill="#ffda44"/><path d="m40 26h10v5h-10z" fill="#57565c"/><path d="m49 26h-8v-1a4 4 0 0 1 4-4 4 4 0 0 1 4 4z" fill="#c6c5ca"/><path d="m60 47a15.008 15.008 0 0 1 -6.563 12.414l1.126 1.653a17 17 0 0 0 7.437-14.067z" fill="#ffda44"/><path d="m30 47h-2a17.051 17.051 0 0 0 8.5 14.726l1-1.732a15.045 15.045 0 0 1 -7.5-12.994z" fill="#ffda44"/><g fill="#ff9811"><path d="m43.586 14.586a2 2 0 1 0 2.828 0 2 2 0 0 0 -2.828 0z"/><path d="m49.243 11.757a6.007 6.007 0 0 0 -8.486 0l1.414 1.414a4.007 4.007 0 0 1 5.658 0z"/><path d="m52.071 8.929a10 10 0 0 0 -14.142 0l1.414 1.414a8 8 0 0 1 11.314 0z"/><path d="m53.485 7.515 1.415-1.415a14.014 14.014 0 0 0 -19.8 0l1.414 1.414a12.013 12.013 0 0 1 16.971.001z"/></g><path d="m51 44h-3v-13h-2v13h-2v-13h-2v13h-3a1 1 0 0 0 -1 1v5a1 1 0 0 0 1 1h4a1 1 0 0 0 1-1v-4h2v4a1 1 0 0 0 1 1h4a1 1 0 0 0 1-1v-5a1 1 0 0 0 -1-1zm-9 5h-2v-3h2zm8 0h-2v-3h2z" fill="#898890"/></svg>