<svg id="Smart_control" height="512" viewBox="0 0 64 64" width="512" xmlns="http://www.w3.org/2000/svg" data-name="Smart control"><rect fill="#57565c" height="34" rx="2" width="44" x="17" y="24"/><circle cx="55" cy="32" fill="#fff" r="2"/><circle cx="55" cy="40" fill="#fff" r="2"/><path d="m21 28h28v26h-28z" fill="#c6c5ca"/><path d="m33 50h4a6 6 0 0 0 6-6v-5h-16v5a6 6 0 0 0 6 6z" fill="#ffda44"/><rect fill="#e9e9ea" height="35" rx="2" width="22" x="7" y="8"/><path d="m11 12h14v25h-14z" fill="#2488ff"/><path d="m15 61-1.855-15.2a2 2 0 0 1 .3-1.467l.712-1.068a5 5 0 0 0 .843-2.779v-.415a5 5 0 0 0 -1.464-3.535l-.536-.536 2.272-3.787a1.811 1.811 0 0 0 -.272-2.213 1.811 1.811 0 0 0 -2.213-.272l-3.117 1.872a1 1 0 0 1 -1.222-.15l-1.155-1.157a1 1 0 0 1 -.293-.707v-11.586l-3.857 9.642a2.016 2.016 0 0 0 -.143.743v10.282a4 4 0 0 0 .8 2.4l.66.879a6.005 6.005 0 0 1 1.118 4.586l-1.578 14.468z" fill="#ffcbbe"/><circle cx="18" cy="21" fill="#ff9811" r="3"/><path d="m25 61h-4l-1-3h6z" fill="#3e3d42"/><path d="m57 61h-4l-1-3h6z" fill="#3e3d42"/><path d="m41.36 31h-2c0 .177-.027.213-.172.415a2.563 2.563 0 0 0 0 3.168c.145.2.172.238.172.416s-.027.214-.172.417a2.478 2.478 0 0 0 -.548 1.584h2c0-.178.027-.214.172-.417a2.563 2.563 0 0 0 0-3.168c-.145-.2-.172-.239-.172-.417s.027-.213.172-.415a2.477 2.477 0 0 0 .548-1.583z" fill="#e9656c"/><path d="m35.36 31h-2c0 .177-.027.213-.172.415a2.563 2.563 0 0 0 0 3.168c.145.2.172.238.172.416s-.027.214-.172.417a2.478 2.478 0 0 0 -.548 1.584h2c0-.178.027-.214.172-.417a2.563 2.563 0 0 0 0-3.168c-.145-.2-.172-.239-.172-.417s.027-.213.172-.415a2.477 2.477 0 0 0 .548-1.583z" fill="#e9656c"/><g fill="#ff9811"><path d="m41.586 16.586a2 2 0 1 0 2.828 0 2 2 0 0 0 -2.828 0z"/><path d="m47.243 13.757a6.007 6.007 0 0 0 -8.486 0l1.414 1.414a4.007 4.007 0 0 1 5.658 0z"/><path d="m50.071 10.929a10 10 0 0 0 -14.142 0l1.414 1.414a8 8 0 0 1 11.314 0z"/><path d="m51.485 9.515 1.415-1.415a14.014 14.014 0 0 0 -19.8 0l1.414 1.414a12.013 12.013 0 0 1 16.971.001z"/></g><path d="m26 50h18v2h-18z" fill="#898890"/></svg>