<svg id="Smart_control" height="512" viewBox="0 0 64 64" width="512" xmlns="http://www.w3.org/2000/svg" data-name="Smart control"><path d="m32 30h26v4h-26z" fill="#acabb1"/><path d="m29 34h32v14h-32z" fill="#898890"/><path d="m35 40h20v20h-20z" fill="#46f8ff"/><path d="m35 24h20v10h-20z" fill="#46f8ff"/><rect fill="#e9e9ea" height="35" rx="2" width="22" x="7" y="11"/><path d="m11 15h14v25h-14z" fill="#2488ff"/><circle cx="18" cy="24" fill="#ff9811" r="3"/><path d="m15 61-1.855-15.2a2 2 0 0 1 .3-1.467l.712-1.068a5 5 0 0 0 .843-2.779v-.415a5 5 0 0 0 -1.464-3.535l-.536-.536 2.272-3.787a1.811 1.811 0 0 0 -.272-2.213 1.811 1.811 0 0 0 -2.213-.272l-3.117 1.872a1 1 0 0 1 -1.222-.15l-1.155-1.157a1 1 0 0 1 -.293-.707v-11.586l-3.857 9.642a2.016 2.016 0 0 0 -.143.743v10.282a4 4 0 0 0 .8 2.4l.66.879a6.005 6.005 0 0 1 1.118 4.586l-1.578 14.468z" fill="#ffcbbe"/><path d="m43.586 16.586a2 2 0 1 0 2.828 0 2 2 0 0 0 -2.828 0z" fill="#ff9811"/><path d="m49.243 13.757a6.007 6.007 0 0 0 -8.486 0l1.414 1.414a4.007 4.007 0 0 1 5.658 0z" fill="#ff9811"/><path d="m52.071 10.929a10 10 0 0 0 -14.142 0l1.414 1.414a8 8 0 0 1 11.314 0z" fill="#ff9811"/><path d="m53.485 9.515 1.415-1.415a14.014 14.014 0 0 0 -19.8 0l1.414 1.414a12.013 12.013 0 0 1 16.971.001z" fill="#ff9811"/><g fill="#1a6fb0"><path d="m38 55h9v2h-9z"/><path d="m38 51h14v2h-14z"/><path d="m46 47h6v2h-6z"/><path d="m38 43h14v2h-14z"/><path d="m49 55h3v2h-3z"/><path d="m38 47h6v2h-6z"/></g></svg>