<svg id="Capa_1" enable-background="new 0 0 512 512" height="512" viewBox="0 0 512 512" width="512" xmlns="http://www.w3.org/2000/svg"><g><path d="m512 46v360c0 8.28-6.72 15-15 15h-361v-15h-15v-360c0-8.28 6.72-15 15-15h120l60 10 60-10h121c8.28 0 15 6.72 15 15z" fill="#c4a27a"/><path d="m512 46v360c0 8.28-6.72 15-15 15h-181v-380l60-10h121c8.28 0 15 6.72 15 15z" fill="#9b7c5d"/><path d="m376 31v120c0 8.28-6.72 15-15 15h-90c-8.28 0-15-6.72-15-15v-120z" fill="#9b7c5d"/><path d="m376 31v120c0 8.28-6.72 15-15 15h-45v-135z" fill="#7a6047"/><path d="m46.05 286h29.95c14.053-19.055 36.323-30.302 60-30.302s45.947 11.247 60 30.302h75c16.569 0 30 13.431 30 30 0 16.569-13.431 30-30 30h-90c0 33.137 26.863 60 60 60h135c16.569 0 30 13.431 30 30 0 16.569-13.431 30-30 30h-206l-94-30h-30.05z" fill="#fdbbab"/><path d="m406 436c0 8.28-3.36 15.78-8.79 21.21s-12.93 8.79-21.21 8.79h-60v-60h60c11.1 0 20.79 6.03 25.97 15 2.57 4.41 4.03 9.54 4.03 15z" fill="#ffa58d"/><path d="m46 261h-31c-8.284 0-15 6.716-15 15v190c0 8.284 6.716 15 15 15h31c8.284 0 15-6.716 15-15v-190c0-8.284-6.716-15-15-15z" fill="#1c9ae8"/></g></svg>