<svg id="Capa_1" enable-background="new 0 0 512.002 512.002" height="512" viewBox="0 0 512.002 512.002" width="512" xmlns="http://www.w3.org/2000/svg"><g><path d="m360.001 376.002v121c0 8.28-6.72 15-15 15h-330c-8.28 0-15-6.72-15-15v-121c0-57.64 46.69-104.59 104.23-105h150.77c57.9 0 105 47.1 105 105z" fill="#1c9ae8"/><path d="m287.001 512.001h-107v-241h75c31.03 0 58.96 13.53 78.19 35h-46.19c-5.51 0-10 4.49-10 10v181c0 5.52 4.49 10 10 10z" fill="#2275c7"/><path d="m512.001 316.002v181c0 8.28-6.72 15-15 15h-210c-8.28 0-15-6.72-15-15v-181c0-8.28 6.72-15 15-15h60l45 10 45-10h60c8.28 0 15 6.72 15 15z" fill="#c4a27a"/><path d="m512.001 316.002v181c0 8.28-6.72 15-15 15h-105v-201l45-10h60c8.28 0 15 6.72 15 15z" fill="#9b7c5d"/><path d="m437.001 301.002v75c0 8.28-6.72 15-15 15h-60c-8.28 0-15-6.72-15-15v-75z" fill="#9b7c5d"/><path d="m437.001 301.002v75c0 8.28-6.72 15-15 15h-30v-90z" fill="#7a6047"/><path d="m135.001 249.755v36.247c0 24.853 20.147 45 45 45 24.853 0 45-20.147 45-45v-36z" fill="#fbcdbe"/><path d="m225.001 250.002v36c0 12.42-5.04 23.68-13.18 31.82s-19.4 13.18-31.82 13.18v-81.12z" fill="#fdbbab"/><path d="m90.001 406.002v106h-30v-106c0-8.28 6.72-15 15-15s15 6.72 15 15z" fill="#2275c7"/><path d="m135.001 421.002h90c8.284 0 15-6.716 15-15s-6.716-15-15-15h-90c-8.284 0-15 6.716-15 15s6.716 15 15 15z" fill="#2275c7"/><path d="m240.001 406.002c0 8.28-6.72 15-15 15h-45v-30h45c8.28 0 15 6.72 15 15z" fill="#0757a1"/><path d="m225.001 451.002h-90c-8.284 0-15 6.716-15 15s6.716 15 15 15h90c8.284 0 15-6.716 15-15s-6.716-15-15-15z" fill="#2275c7"/><path d="m240.001 466.002c0 8.28-6.72 15-15 15h-45v-30h45c8.28 0 15 6.72 15 15z" fill="#0757a1"/><path d="m313.761 166.403c0-15.452-12.509-27.987-27.961-28.019l-.799-.002v-32.225c0-57.943-46.452-105.824-104.394-106.153-58.177-.331-105.606 46.896-105.606 104.998v33.57l-2.046.005c-15.449.036-27.954 12.57-27.954 28.019v.017c0 15.475 12.545 28.019 28.019 28.019h5.931c12.12 43.14 52.02 76.37 101.05 76.37 47.08 0 88.38-31.36 101.09-76.58h4.651c15.474 0 28.019-12.545 28.019-28.019z" fill="#fddbcc"/><path d="m313.761 166.402c0 15.48-12.54 28.02-28.02 28.02h-4.65c-12.747 45.356-54.172 76.58-101.09 76.58v-271h.61c57.94.33 104.39 48.21 104.39 106.15v32.23h.8c15.45.03 27.96 12.57 27.96 28.02z" fill="#fbcdbe"/><path d="m285.001 106.152v32.23c-44.69-70.56-143.6 34.95-210.18.19h.18v-33.57c0-58.1 47.43-105.33 105.61-105 57.94.33 104.39 48.21 104.39 106.15z" fill="#5b5555"/><path d="m285.001 106.152v32.23c-23.9-37.74-63.32-25.11-105-10.51v-127.87h.61c57.94.33 104.39 48.21 104.39 106.15z" fill="#463f3f"/></g></svg>