<svg id="Capa_1" enable-background="new 0 0 511.996 511.996" height="512" viewBox="0 0 511.996 511.996" width="512" xmlns="http://www.w3.org/2000/svg"><g><circle cx="100" cy="30.498" fill="#d1e4ff" r="15"/><path d="m444.95 61.498v20h-30v-20c0-8.27-6.73-15-15-15h-67.45c-4.14 0-7.5 3.36-7.5 7.5 0 20.68-16.82 37.5-37.5 37.5h-45c-20.68 0-37.5-16.82-37.5-37.5 0-4.14-3.36-7.5-7.5-7.5h-37.5c-8.28 0-15-6.72-15-15s6.72-15 15-15h37.5c20.68 0 37.5 16.82 37.5 37.5 0 4.14 3.36 7.5 7.5 7.5h45c4.14 0 7.5-3.36 7.5-7.5 0-20.68 16.82-37.5 37.5-37.5h67.45c24.81 0 45 20.19 45 45z" fill="#e9f2ff"/><path d="m444.95 61.498v20h-13.43v-52.02c8.29 8.16 13.43 19.5 13.43 32.02z" fill="#d1e4ff"/><path d="m373.38 296.498.208 176.841c-9.036 9.047-14.096 14.113-23.132 23.159h-335.456c-8.284 0-15-6.716-15-15v-170c0-5.015 2.506-9.697 6.679-12.479l105.001-70.001c9.951-6.641 23.32.509 23.32 12.48v42.12l82.73-54.64c9.943-6.557 23.27.544 23.27 12.52v42.12l82.73-54.64c9.943-6.557 23.27.544 23.27 12.52v55z" fill="#e9f2ff"/><path d="m373.38 296.498.208 176.642c-9.113 9.124-14.217 14.234-23.331 23.358h-139.257v-263.08l6.73-4.44c9.94-6.56 23.27.54 23.27 12.52v42.12l82.73-54.64c9.94-6.56 23.27.54 23.27 12.52v55z" fill="#d1e4ff"/><path d="m511.99 481.118c.229 8.301-6.461 15.38-14.99 15.38h-147.6l31.6-301.28v-93.72h100.91l-.9 93.76z" fill="#766e6e"/><path d="m511.99 481.118c.23 8.3-6.46 15.38-14.99 15.38h-65.48v-395h50.39l-.05 5-.85 88.76z" fill="#5b5555"/><circle cx="76" cy="345.998" fill="#d1e4ff" r="15"/><circle cx="182" cy="345.998" fill="#d1e4ff" r="15"/><circle cx="287" cy="345.998" fill="#b9d7ff" r="15"/><path d="m166 405.998v90.5h-90v-90.5c0-8.28 6.72-15 15-15h60c8.28 0 15 6.72 15 15z" fill="#d1e4ff"/><path d="m301 405.998v90.5h-90v-90.5c0-8.28 6.72-15 15-15h60c8.28 0 15 6.72 15 15z" fill="#b9d7ff"/><path d="m487 76.498h-111c-8.284 0-15 6.716-15 15s6.716 15 15 15h111c8.284 0 15-6.716 15-15s-6.716-15-15-15z" fill="#5b5555"/><path d="m502 91.498c0 8.28-6.72 15-15 15h-55.48v-30h55.48c8.28 0 15 6.72 15 15z" fill="#463f3f"/></g></svg>