<svg id="Capa_1" enable-background="new 0 0 512.007 512.007" height="512" viewBox="0 0 512.007 512.007" width="512" xmlns="http://www.w3.org/2000/svg"><g><path d="m211.005 237.004h112.5v55h-112.5z" fill="#ef7752"/><path d="m256.005 237.004h67.5v55h-67.5z" fill="#e94f48"/><path d="m436.005 237.004v25h-30c-2.83 0-5.54 1.21-7.43 3.31l-22.53 25.04c-.95 1.05-2.3 1.65-3.72 1.65h-48.82v-55z" fill="#e2273e"/><path d="m323.505 167.004h-97.5c-8.284 0-15 6.716-15 15v60h112.5z" fill="#e94f48"/><path d="m256.005 167.004h67.5v75h-67.5z" fill="#e2273e"/><path d="m436.005 242.004v-60c0-8.284-6.716-15-15-15h-97.5v75z" fill="#e94f48"/><path d="m346.005 45.004c0 8.28-6.72 15-15 15h-73.23c-16.06 0-30.5-8.92-37.69-23.29-2.07-4.14-6.22-6.71-10.85-6.71h-68.28c-11.03 0-20 8.97-20 20v32h-30v-32c0-27.57 22.43-50 50-50h68.28c16.06 0 30.5 8.92 37.69 23.29 2.07 4.14 6.22 6.71 10.85 6.71h73.23c8.28 0 15 6.72 15 15z" fill="#e9f2ff"/><path d="m346.005 45.004c0 8.28-6.72 15-15 15h-73.23c-.59 0-1.18-.01-1.77-.04v-30.09c.58.09 1.17.13 1.77.13h73.23c8.28 0 15 6.72 15 15z" fill="#d1e4ff"/><path d="m151.005 92.004v65h-90v-65c0-8.28 6.72-15 15-15h60c8.28 0 15 6.72 15 15z" fill="#f4d77a"/><circle cx="390.505" cy="45.504" fill="#d1e4ff" r="14.5"/><path d="m181.005 167.004v125h-61.14c-6.88 0-8.602-15-18.86-15h-70v-110c0-8.28 6.72-15 15-15h120c8.28 0 15 6.72 15 15z" fill="#e9f2ff"/><path d="m511.975 272.984c-.17 2.55-4.42 60.5-45.79 120.42-7-6.03-16.1-11.4-30.18-11.4-19.14 0-29.08 9.94-37.07 17.93-7.71 7.71-12.57 12.07-22.93 12.07-23.674 0-25.638-30-60-30-34.349 0-36.34 30-59.99 30-10.36 0-15.22-4.36-22.93-12.07-7.99-7.99-17.93-17.93-37.07-17.93s-29.08 9.94-37.07 17.93c-7.71 7.71-12.58 12.07-22.93 12.07-23.65 0-25.621-30-60.01-30-25.505 0-34.388 17.444-45.38 25.43l-30.14-116.68c-2.457-9.51 4.734-18.75 14.52-18.75h86c10.815 0 13.874 9.726 18.86 15h252.46l22.53-25.03c2.85-3.17 6.9-4.97 11.15-4.97h91c8.65 0 15.535 7.322 14.97 15.98z" fill="#5b5555"/><path d="m511.975 272.984c-.17 2.49-4.22 57.84-42.98 116.25-.91 1.39-1.85 2.78-2.81 4.17-7-6.03-16.1-11.4-30.18-11.4-19.14 0-29.08 9.94-37.07 17.93-7.71 7.71-12.57 12.07-22.93 12.07-23.67 0-25.64-30-60-30-34.35 0-36.34 30-59.99 30h-.01v-125h116.32l22.53-25.03c2.85-3.17 6.9-4.97 11.15-4.97h91c8.65 0 15.53 7.32 14.97 15.98z" fill="#463f3f"/><path d="m496.005 407.004c-8.431 0-12.037-3.251-19.392-10.606-8.184-8.185-19.393-19.394-40.605-19.394s-32.422 11.209-40.606 19.393c-7.355 7.355-10.962 10.607-19.394 10.607-8.431 0-12.038-3.251-19.393-10.606-8.185-8.185-19.393-19.394-40.606-19.394s-32.421 11.209-40.605 19.394c-7.354 7.354-10.961 10.606-19.391 10.606-8.432 0-12.039-3.251-19.394-10.607-8.184-8.184-19.393-19.393-40.606-19.393s-32.422 11.209-40.607 19.393c-7.355 7.355-10.962 10.607-19.394 10.607-8.433 0-12.04-3.252-19.396-10.607-8.185-8.184-19.395-19.393-40.608-19.393s-32.422 11.209-40.608 19.393c-7.355 7.355-10.963 10.607-19.396 10.607-8.284 0-15 6.716-15 15v75c0 8.284 6.716 15 15 15h480c8.284 0 15-6.716 15-15v-75c.001-8.285-6.715-15-14.999-15z" fill="#1c9ae8"/><path d="m511.005 422.004v75c0 8.28-6.72 15-15 15h-240v-105h.01c8.43 0 12.04-3.25 19.39-10.61 8.18-8.18 19.39-19.39 40.6-19.39 21.22 0 32.43 11.21 40.61 19.39 7.36 7.36 10.96 10.61 19.39 10.61 8.44 0 12.04-3.25 19.4-10.61 8.18-8.18 19.39-19.39 40.6-19.39 15.36 0 25.47 5.87 32.99 12.23 2.87 2.41 5.36 4.9 7.62 7.16 7.35 7.36 10.96 10.61 19.39 10.61 8.28 0 15 6.72 15 15z" fill="#2275c7"/><path d="m1.005 497.004c0 8.284 6.716 15 15 15h480c8.284 0 15-6.716 15-15v-15h-15c-8.431 0-12.037-3.251-19.392-10.606-8.184-8.185-19.393-19.394-40.605-19.394s-32.422 11.209-40.606 19.393c-7.355 7.355-10.962 10.607-19.394 10.607-8.431 0-12.038-3.251-19.393-10.606-8.185-8.185-19.393-19.394-40.606-19.394s-32.421 11.209-40.605 19.394c-7.354 7.354-10.961 10.606-19.391 10.606-8.432 0-12.039-3.251-19.394-10.607-8.184-8.184-19.393-19.393-40.606-19.393s-32.422 11.209-40.607 19.393c-7.355 7.355-10.962 10.607-19.394 10.607-8.433 0-12.04-3.252-19.396-10.607-8.185-8.184-19.395-19.393-40.608-19.393s-32.422 11.209-40.608 19.393c-7.355 7.355-10.963 10.607-19.396 10.607h-15.317z" fill="#2275c7"/><path d="m511.005 482.004v15c0 8.28-6.72 15-15 15h-240v-30h.01c8.43 0 12.04-3.25 19.39-10.61 8.18-8.18 19.39-19.39 40.6-19.39 21.22 0 32.43 11.21 40.61 19.39 7.36 7.36 10.96 10.61 19.39 10.61 8.44 0 12.04-3.25 19.4-10.61 8.18-8.18 19.39-19.39 40.6-19.39 21.22 0 32.42 11.21 40.61 19.39 7.35 7.36 10.96 10.61 19.39 10.61z" fill="#0757a1"/></g></svg>