<svg id="Capa_1" enable-background="new 0 0 512 512" height="512" viewBox="0 0 512 512" width="512" xmlns="http://www.w3.org/2000/svg"><g><path d="m336 313v57c-1.953 1.953-3.047 3.047-5 5h-316c-8.284 0-15-6.716-15-15v-32c0-8.284 6.716-15 15-15z" fill="#766e6e"/><path d="m336 313v57c-1.953 1.953-3.047 3.047-5 5h-75v-62z" fill="#5b5555"/><circle cx="136.5" cy="390.5" fill="#5b5555" r="60.5"/><path d="m197 390.5c0 33.36-27.14 60.5-60.5 60.5v-121c33.36 0 60.5 27.14 60.5 60.5z" fill="#463f3f"/><circle cx="136.5" cy="390.5" fill="#e9f2ff" r="30.5"/><path d="m167 390.5c0 16.82-13.68 30.5-30.5 30.5v-61c16.82 0 30.5 13.68 30.5 30.5z" fill="#d1e4ff"/><path d="m316 61h-301c-8.284 0-15 6.716-15 15v224c0 8.284 6.716 15 15 15h316v-239c0-8.284-6.716-15-15-15z" fill="#c4a27a"/><path d="m331 76v239h-75v-254h60c8.28 0 15 6.72 15 15z" fill="#9b7c5d"/><path d="m512 359.88c.063 8.375-6.721 15.12-15 15.12h-166v-240h90c6.13 0 11.65 3.73 13.93 9.43l32.64 81.61c24.71 4.92 43.54 26.74 43.75 52.83z" fill="#ffb966"/><path d="m467.46 225.77h-76.46c-8.28 0-15-6.72-15-15v-45.77h67.16z" fill="#2275c7"/><g fill="#9b7c5d"><path d="m76 121c-8.284 0-15 6.716-15 15v105c0 8.284 6.716 15 15 15s15-6.716 15-15v-105c0-8.284-6.716-15-15-15z"/><path d="m136 121c-8.284 0-15 6.716-15 15v105c0 8.284 6.716 15 15 15s15-6.716 15-15v-105c0-8.284-6.716-15-15-15z"/><path d="m196 121c-8.284 0-15 6.716-15 15v105c0 8.284 6.716 15 15 15s15-6.716 15-15v-105c0-8.284-6.716-15-15-15z"/><path d="m256 121c-8.284 0-15 6.716-15 15v105c0 8.284 6.716 15 15 15s15-6.716 15-15v-105c0-8.284-6.716-15-15-15z"/></g><path d="m271 136v105c0 8.28-6.72 15-15 15v-135c8.28 0 15 6.72 15 15z" fill="#7a6047"/><circle cx="401.5" cy="390.5" fill="#5b5555" r="60.5"/><path d="m462 390.5c0 33.36-27.14 60.5-60.5 60.5v-121c33.36 0 60.5 27.14 60.5 60.5z" fill="#463f3f"/><circle cx="401.5" cy="390.5" fill="#e9f2ff" r="30.5"/><path d="m432 390.5c0 16.82-13.68 30.5-30.5 30.5v-61c16.82 0 30.5 13.68 30.5 30.5z" fill="#d1e4ff"/></g></svg>