<svg id="Capa_1" enable-background="new 0 0 512 512" height="512" viewBox="0 0 512 512" width="512" xmlns="http://www.w3.org/2000/svg"><g><path d="m331 90h-30v-75c0-8.284-6.716-15-15-15h-60c-8.284 0-15 6.716-15 15v75h-30c-12.682 0-19.658 14.84-11.523 24.603l75 90c5.989 7.188 17.05 7.197 23.047 0l75-90c8.119-9.745 1.181-24.603-11.524-24.603z" fill="#ef7752"/><path d="m342.52 114.6-75 90c-2.99 3.6-7.25 5.4-11.52 5.4v-210h30c8.28 0 15 6.72 15 15v75h30c12.71 0 19.64 14.86 11.52 24.6z" fill="#e94f48"/><path d="m471.571 91.073c-7.694-3.078-16.422.664-19.498 8.356l-56.228 140.571h-279.69l-56.228-140.571c-3.076-7.691-11.804-11.433-19.498-8.356-7.691 3.077-11.433 11.806-8.355 19.498l58.926 147.317v239.112c0 8.284 6.716 15 15 15h300c8.284 0 15-6.716 15-15v-239.112l58.927-147.317c3.077-7.692-.664-16.422-8.356-19.498zm-185.571 239.927h-60c-8.284 0-15-6.716-15-15s6.716-15 15-15h60c8.284 0 15 6.716 15 15s-6.716 15-15 15z" fill="#c4a27a"/><path d="m471.57 91.07c-7.69-3.08-16.42.67-19.5 8.36l-56.23 140.57h-139.84v61h30c8.28 0 15 6.72 15 15s-6.72 15-15 15h-30v181h150c8.28 0 15-6.72 15-15v-239.11l58.93-147.32c3.07-7.69-.67-16.42-8.36-19.5z" fill="#9b7c5d"/></g></svg>