<svg id="Capa_1" enable-background="new 0 0 512 512" height="512" viewBox="0 0 512 512" width="512" xmlns="http://www.w3.org/2000/svg"><g><path d="m511.68 254.731h.04c-.518-141.064-114.916-254.731-255.72-254.731-141.065 0-255.203 113.909-255.72 254.731h.04c-.022.332-.05.662-.05.999v240.746c0 8.275 6.709 14.984 14.984 14.984h481.492c8.275 0 14.984-6.709 14.984-14.984v-240.746c0-.337-.028-.667-.05-.999z" fill="#e9f2ff"/><path d="m511.73 255.73v240.746c0 8.271-6.713 14.984-14.984 14.984h-240.746v-511.46c140.802 0 255.201 113.67 255.72 254.731h-.04c.02.33.05.66.05.999z" fill="#d1e4ff"/><path d="m405.842 180.731h-299.684c-16.551 0-29.968 13.417-29.968 29.968v300.761h359.62v-300.76c0-16.551-13.417-29.969-29.968-29.969z" fill="#5b5555"/><path d="m435.81 210.7v300.761h-179.81v-330.73h149.842c16.553 0 29.968 13.416 29.968 29.969z" fill="#463f3f"/><path d="m361.659 315.667v75.69c0 8.271-6.713 14.984-14.984 14.984h-75.69c-8.271 0-14.984-6.713-14.984-14.984v-75.69c0-8.271 6.713-14.984 14.984-14.984h22.856l14.994 10 14.974-10h22.866c8.271 0 14.984 6.713 14.984 14.984z" fill="#c4a27a"/><path d="m361.659 315.667v75.69c0 8.271-6.713 14.984-14.984 14.984h-37.84v-105.658h37.84c8.271 0 14.984 6.713 14.984 14.984z" fill="#9b7c5d"/><path d="m323.808 300.683v17.871c0 8.281-6.703 14.984-14.984 14.984-8.271 0-14.984-6.703-14.984-14.984v-17.871z" fill="#9b7c5d"/><path d="m323.808 300.683v17.871c0 8.281-6.693 14.974-14.974 14.984v-32.855z" fill="#7a6047"/><path d="m255.885 315.667v75.69c0 8.271-6.713 14.984-14.984 14.984h-75.69c-8.271 0-14.984-6.713-14.984-14.984v-75.69c0-8.271 6.713-14.984 14.984-14.984h22.856l14.989 10 14.979-10h22.866c8.271 0 14.984 6.713 14.984 14.984z" fill="#c4a27a"/><path d="m255.89 315.667v75.69c0 8.271-6.723 14.984-14.984 14.984h-37.85v-105.658h37.85c8.261 0 14.984 6.713 14.984 14.984z" fill="#9b7c5d"/><path d="m218.035 300.683v17.871c0 8.281-6.703 14.984-14.984 14.984-8.271 0-14.984-6.703-14.984-14.984v-17.871z" fill="#9b7c5d"/><path d="m218.03 300.683v17.871c0 8.281-6.683 14.974-14.974 14.984v-32.855z" fill="#7a6047"/><path d="m361.659 421.326v75.69c0 8.271-6.713 14.984-14.984 14.984h-75.69c-8.271 0-14.984-6.713-14.984-14.984v-75.69c0-8.271 6.713-14.984 14.984-14.984h22.856l14.994 10 14.974-10h22.866c8.271-.001 14.984 6.712 14.984 14.984z" fill="#c4a27a"/><path d="m361.659 421.326v75.69c0 8.271-6.713 14.984-14.984 14.984h-37.84v-105.659h37.84c8.271 0 14.984 6.713 14.984 14.985z" fill="#9b7c5d"/><path d="m323.808 406.341v17.871c0 8.281-6.703 14.984-14.984 14.984-8.271 0-14.984-6.703-14.984-14.984v-17.871z" fill="#9b7c5d"/><path d="m323.808 406.341v17.871c0 8.281-6.693 14.974-14.974 14.984v-32.855z" fill="#7a6047"/><path d="m255.885 421.326v75.69c0 8.271-6.713 14.984-14.984 14.984h-75.69c-8.271 0-14.984-6.713-14.984-14.984v-75.69c0-8.271 6.713-14.984 14.984-14.984h22.856l14.989 10 14.979-10h22.866c8.271-.001 14.984 6.712 14.984 14.984z" fill="#c4a27a"/><path d="m255.89 421.326v75.69c0 8.271-6.723 14.984-14.984 14.984h-37.85v-105.659h37.85c8.261 0 14.984 6.713 14.984 14.985z" fill="#9b7c5d"/><path d="m218.035 406.341v17.871c0 8.281-6.703 14.984-14.984 14.984-8.271 0-14.984-6.703-14.984-14.984v-17.871z" fill="#9b7c5d"/><path d="m218.03 406.341v17.871c0 8.281-6.683 14.974-14.974 14.984v-32.855z" fill="#7a6047"/></g></svg>