<svg id="Capa_1" enable-background="new 0 0 512.463 512.463" height="512" viewBox="0 0 512.463 512.463" width="512" xmlns="http://www.w3.org/2000/svg"><g><g><path d="m321.372 196v101.28c0 8.29-6.71 15-15 15h-101.28c-8.28 0-15-6.71-15-15v-101.28c0-8.28 6.72-15 15-15h101.28c8.29 0 15 6.72 15 15z" fill="#c4a27a"/><path d="m321.372 196v101.28c0 8.29-6.71 15-15 15h-50.64v-131.28h50.64c8.29 0 15 6.72 15 15z" fill="#9b7c5d"/><g><path d="m270.732 181v25c0 8.28-6.71 15-15 15-8.28 0-15-6.72-15-15v-25z" fill="#9b7c5d"/><path d="m270.732 181v25c0 8.28-6.71 15-15 15v-40z" fill="#7a6047"/></g></g><g><g><path d="m255.732 16v101.28c0 8.29-6.71 15-15 15h-101.28c-8.28 0-15-6.71-15-15v-101.28c0-8.28 6.72-15 15-15h101.28c8.29 0 15 6.72 15 15z" fill="#c4a27a"/><path d="m255.732 16v101.28c0 8.29-6.71 15-15 15h-50.64v-131.28h50.64c8.29 0 15 6.72 15 15z" fill="#9b7c5d"/><g><path d="m205.092 1v25c0 8.28-6.71 15-15 15-8.28 0-15-6.72-15-15v-25z" fill="#9b7c5d"/><path d="m205.092 1v25c0 8.28-6.71 15-15 15v-40z" fill="#7a6047"/></g></g><g><path d="m387.012 16v101.28c0 8.29-6.71 15-15 15h-101.28c-8.28 0-15-6.71-15-15v-101.28c0-8.28 6.72-15 15-15h101.28c8.29 0 15 6.72 15 15z" fill="#c4a27a"/><path d="m387.012 16v101.28c0 8.29-6.71 15-15 15h-50.64v-131.28h50.64c8.29 0 15 6.72 15 15z" fill="#9b7c5d"/><g><path d="m336.372 1v25c0 8.28-6.71 15-15 15-8.28 0-15-6.72-15-15v-25z" fill="#9b7c5d"/><path d="m336.372 1v25c0 8.28-6.71 15-15 15v-40z" fill="#7a6047"/></g></g></g><path d="m497.232 300h-46v-150h46c8.284 0 15-6.716 15-15s-6.716-15-15-15h-46v-105c0-8.284-6.716-15-15-15s-15 6.716-15 15v105h-331v-105c0-8.284-6.716-15-15-15s-15 6.716-15 15v105h-45c-8.284 0-15 6.716-15 15s6.716 15 15 15h45v150h-45c-8.284 0-15 6.716-15 15s6.716 15 15 15h45v166c0 8.284 6.716 15 15 15s15-6.716 15-15v-166h331v166c0 8.284 6.716 15 15 15s15-6.716 15-15v-166h46c8.284 0 15-6.716 15-15s-6.716-15-15-15zm-407 0v-150h331v150z" fill="#d1e4ff"/><path d="m497.232 300h-46v-150h46c8.28 0 15-6.72 15-15s-6.72-15-15-15h-46v-105c0-8.28-6.72-15-15-15s-15 6.72-15 15v105h-165.5v30h165.5v150h-165.5v30h165.5v166c0 8.28 6.72 15 15 15s15-6.72 15-15v-166h46c8.28 0 15-6.72 15-15s-6.72-15-15-15z" fill="#b9d7ff"/><g><g><path d="m255.732 395.869v101.28c0 8.29-6.71 15-15 15h-101.28c-8.28 0-15-6.71-15-15v-101.28c0-8.28 6.72-15 15-15h101.28c8.29 0 15 6.72 15 15z" fill="#c4a27a"/><path d="m255.732 395.869v101.28c0 8.29-6.71 15-15 15h-50.64v-131.28h50.64c8.29 0 15 6.72 15 15z" fill="#9b7c5d"/><g><path d="m205.092 380.869v25c0 8.28-6.71 15-15 15-8.28 0-15-6.72-15-15v-25z" fill="#9b7c5d"/><path d="m205.092 380.869v25c0 8.28-6.71 15-15 15v-40z" fill="#7a6047"/></g></g><g><path d="m387.012 396.183v101.28c0 8.29-6.71 15-15 15h-101.28c-8.28 0-15-6.71-15-15v-101.28c0-8.28 6.72-15 15-15h101.28c8.29 0 15 6.72 15 15z" fill="#c4a27a"/><path d="m387.012 396.183v101.28c0 8.29-6.71 15-15 15h-50.64v-131.28h50.64c8.29 0 15 6.72 15 15z" fill="#9b7c5d"/><g><path d="m336.372 381.183v25c0 8.28-6.71 15-15 15-8.28 0-15-6.72-15-15v-25z" fill="#9b7c5d"/><path d="m336.372 381.183v25c0 8.28-6.71 15-15 15v-40z" fill="#7a6047"/></g></g></g></g></svg>