<svg id="Capa_1" enable-background="new 0 0 512 512" height="512" viewBox="0 0 512 512" width="512" xmlns="http://www.w3.org/2000/svg"><g><path d="m374.018 68.561c-1.286-2.251-3.154-4.178-5.483-5.531l-105-61c-4.659-2.706-10.411-2.706-15.07 0-33.828 19.657-104.946 60.953-105.597 61.374-2.049 1.321-3.706 3.104-4.882 5.16l6.536 13.735 111.478 63.701 109.672-62.67z" fill="#c4a27a"/><path d="m374.02 68.56-8.35 14.77-109.67 62.67v-146c2.6 0 5.21.68 7.54 2.03 110.355 64.966 106.825 60.155 110.48 66.53z" fill="#9b7c5d"/><path d="m256 136-118.014-67.437c-1.277 2.232-1.986 4.787-1.986 7.437v120c0 5.383 2.884 10.353 7.558 13.023l105 60c4.61 2.635 10.272 2.636 14.884 0l105-60c4.674-2.67 7.558-7.641 7.558-13.023v-120c0-2.636-.702-5.198-1.982-7.439z" fill="#9b7c5d"/><path d="m376 196c0 5.38-2.88 10.35-7.56 13.02-110.78 62.494-105.177 61.98-112.44 61.98v-135l118.02-67.44c3.662 6.409 1.28 2.156 1.98 127.44z" fill="#7a6047"/><path d="m226.206 360.33-47.604-47.1c-21.559-21.378-54.788-23.828-79.022-7.393-5.18 3.513-5.84 10.902-1.415 15.327l59.695 59.695c5.219 5.219 4.938 13.762-.612 18.627-5.074 4.447-12.732 4.179-17.482-.613l-63.766-64.335v-147.038c0-16.845-13.655-30.5-30.5-30.5-16.845 0-30.5 13.655-30.5 30.5v144.233c0 18.726 7.503 36.671 20.831 49.824l75.442 74.449v40.994c0 8.284 6.716 15 15 15h99.727c8.284 0 15-6.716 15-15v-101.166c0-13.334-5.326-26.115-14.794-35.504z" fill="#fdbbab"/><path d="m285.794 360.33 47.604-47.1c21.559-21.378 54.788-23.828 79.022-7.393 5.18 3.513 5.84 10.902 1.415 15.327l-59.695 59.695c-5.219 5.219-4.938 13.762.612 18.627 5.074 4.447 12.732 4.179 17.482-.613l63.766-64.335v-147.038c0-16.845 13.655-30.5 30.5-30.5 16.845 0 30.5 13.655 30.5 30.5v144.233c0 18.726-7.503 36.671-20.831 49.824l-75.442 74.449v40.994c0 8.284-6.716 15-15 15h-99.727c-8.284 0-15-6.716-15-15v-101.166c0-13.334 5.326-26.115 14.794-35.504z" fill="#ffa58d"/></g></svg>