<svg id="Capa_1" enable-background="new 0 0 512.003 512.003" height="512" viewBox="0 0 512.003 512.003" width="512" xmlns="http://www.w3.org/2000/svg"><g><circle cx="422.003" cy="406.693" fill="#5b5555" r="60"/><path d="m482.003 406.693c0 33.08-26.92 60-60 60v-120c33.08 0 60 26.92 60 60z" fill="#463f3f"/><circle cx="422.003" cy="406.693" fill="#e9f2ff" r="30"/><path d="m452.003 406.693c0 16.54-13.46 30-30 30v-60c16.54 0 30 13.46 30 30z" fill="#d1e4ff"/><g><path d="m361.135 62.35v115.053c0 9.417-7.622 17.04-17.04 17.04h-115.052c-9.406 0-17.04-7.622-17.04-17.04v-115.053c0-9.406 7.634-17.04 17.04-17.04h115.053c9.417.001 17.039 7.634 17.039 17.04z" fill="#c4a27a"/><path d="m361.135 62.35v115.053c0 9.417-7.622 17.04-17.04 17.04h-57.526v-149.132h57.526c9.418 0 17.04 7.633 17.04 17.039z" fill="#9b7c5d"/><g><path d="m301.569 45.311v25c0 8.28-6.71 15-15 15-8.28 0-15-6.72-15-15v-25z" fill="#9b7c5d"/><path d="m301.569 45.311v25c0 8.28-6.71 15-15 15v-40z" fill="#7a6047"/></g></g><g><path d="m286.569 183.166v115.053c0 9.417-7.622 17.04-17.04 17.04h-115.053c-9.406 0-17.04-7.622-17.04-17.04v-115.053c0-9.406 7.634-17.04 17.04-17.04h115.053c9.417.001 17.04 7.634 17.04 17.04z" fill="#c4a27a"/><path d="m286.569 183.166v115.053c0 9.417-7.622 17.04-17.04 17.04h-57.526v-149.132h57.526c9.417 0 17.04 7.633 17.04 17.039z" fill="#9b7c5d"/><g><path d="m227.003 166.127v25c0 8.28-6.71 15-15 15-8.28 0-15-6.72-15-15v-25z" fill="#9b7c5d"/><path d="m227.002 166.127v25c0 8.28-6.71 15-15 15v-40z" fill="#7a6047"/></g></g><g><path d="m435.7 183.166v115.053c0 9.417-7.622 17.04-17.04 17.04h-115.052c-9.406 0-17.04-7.622-17.04-17.04v-115.053c0-9.406 7.634-17.04 17.04-17.04h115.052c9.417.001 17.04 7.634 17.04 17.04z" fill="#c4a27a"/><path d="m435.7 183.166v115.053c0 9.417-7.622 17.04-17.04 17.04h-57.526v-149.132h57.526c9.417 0 17.04 7.633 17.04 17.039z" fill="#9b7c5d"/><g><path d="m376.134 166.127v25c0 8.28-6.71 15-15 15-8.28 0-15-6.72-15-15v-25z" fill="#9b7c5d"/><path d="m376.134 166.127v25c0 8.28-6.71 15-15 15v-40z" fill="#7a6047"/></g></g><path d="m497.003 285.693h-407v-157.918c0-28.591-15.886-54.295-41.459-67.082l-26.833-13.417c-7.409-3.706-16.42-.701-20.124 6.708-3.705 7.41-.702 16.419 6.708 20.125l26.833 13.417c15.344 7.672 24.875 23.094 24.875 40.249v262.918c0 8.284 6.716 15 15 15h422c8.284 0 15-6.716 15-15v-90c0-8.285-6.716-15-15-15z" fill="#1c9ae8"/><path d="m512.003 300.693v90c0 8.28-6.72 15-15 15h-210.43v-120h210.43c8.28 0 15 6.72 15 15z" fill="#2275c7"/><circle cx="182.003" cy="406.693" fill="#5b5555" r="60"/><path d="m242.003 406.693c0 33.08-26.92 60-60 60v-120c33.08 0 60 26.92 60 60z" fill="#463f3f"/><circle cx="182.003" cy="406.693" fill="#d1e4ff" r="30"/><path d="m212.003 406.693c0 16.54-13.46 30-30 30v-60c16.54 0 30 13.46 30 30z" fill="#b9d7ff"/></g></svg>