<svg id="Capa_1" enable-background="new 0 0 512 512" height="512" viewBox="0 0 512 512" width="512" xmlns="http://www.w3.org/2000/svg"><g><circle cx="121.662" cy="75.5" fill="#fdbbab" r="75.5"/><path d="m197.163 75.5c0 41.813-34.058 75.5-75.5 75.5v-151c41.63 0 75.5 33.87 75.5 75.5z" fill="#ffa58d"/><path d="m401.603 336c-10.29 29.1-38.08 50-70.66 50h-26.13v-50z" fill="#ffa58d"/><path d="m204.483 512h-131.87c-8.28 0-15-6.72-15-15v-295.68h5.05c-.04 8.5 1.7 17.06 5.24 25.12l74.05 158.58c1.6 3.63 5.19 5.98 9.16 5.98h60.35l7.98 104.86c.66 8.71-6.22 16.14-14.96 16.14z" fill="#1c9ae8"/><path d="m204.483 512h-82.82v-170.43l20.29 43.45c1.6 3.63 5.19 5.98 9.16 5.98h60.35c2.495 32.792 7.039 92.496 7.98 104.86.66 8.71-6.22 16.14-14.96 16.14z" fill="#2275c7"/><path d="m141.065 396c-1.983 0-3.78-1.173-4.578-2.99l-74.054-168.581c-7.749-17.641-6.081-37.812 4.462-53.958 10.54-16.142 28.335-25.778 47.603-25.778 26.188 0 48.883 17.751 55.191 43.167l32.402 130.549c1.109 4.469 5.1 7.591 9.706 7.591h94.018c2.757 0 5 2.243 5 5v60c0 2.757-2.243 5-5 5z" fill="#2275c7"/><path d="m310.813 331v60c0 2.76-2.24 5-5 5h-164.75c-1.98 0-3.78-1.17-4.58-2.99l-14.82-33.74v-214.13c23.074 2.89 42.304 19.658 48.03 42.72l32.4 130.55c1.11 4.47 5.1 7.59 9.7 7.59h94.02c2.76 0 5 2.24 5 5z" fill="#0757a1"/><path d="m465.838 151v180c0 8.28-6.72 15-15 15h-180c-8.28 0-15-6.72-15-15v-180c0-8.28 6.72-15 15-15h180c8.28 0 15 6.72 15 15z" fill="#c4a27a"/><path d="m465.838 151v180c0 8.28-6.72 15-15 15h-90v-210h90c8.28 0 15 6.72 15 15z" fill="#9b7c5d"/><path d="m395.863 136v55c0 8.28-6.72 15-15 15h-40.05c-8.28 0-15-6.72-15-15v-55z" fill="#9b7c5d"/><path d="m395.858 136v55c0 8.28-6.71 15-15 15h-20.02v-70z" fill="#7a6047"/></g></svg>