<svg id="Capa_1" enable-background="new 0 0 512 512" height="512" viewBox="0 0 512 512" width="512" xmlns="http://www.w3.org/2000/svg"><g><path d="m376 497c0 8.28-6.72 15-15 15h-210c-8.28 0-15-6.72-15-15s6.72-15 15-15h30v-15c0-8.28 6.72-15 15-15 24.139 0 44.95-19.345 44.95-45.05 0-.166.05-141.545.05-141.72 9.848 1.019 19.994 1.035 30 0 .054 153.88.075 141.215 0 143.81 1.1 23.88 20.86 42.96 45 42.96 8.28 0 15 6.72 15 15v15h30c8.28 0 15 6.72 15 15z" fill="#d1e4ff"/><path d="m376 497c0 8.28-6.72 15-15 15h-105v-246c5 0 10.02-.25 15-.77 0 .109.081 141.195 0 143.81 1.1 23.88 20.86 42.96 45 42.96 8.28 0 15 6.72 15 15v15h30c8.28 0 15 6.72 15 15z" fill="#b9d7ff"/><path d="m406 15v106c0 82.71-67.29 150-150 150s-150-67.29-150-150v-106c0-8.28 6.72-15 15-15h270c8.28 0 15 6.72 15 15z" fill="#d1e4ff"/><path d="m406 15v106c0 82.818-67.398 150-150 150v-271h135c8.28 0 15 6.72 15 15z" fill="#b9d7ff"/></g></svg>