<svg id="Capa_1" enable-background="new 0 0 512.008 512.008" height="512" viewBox="0 0 512.008 512.008" width="512" xmlns="http://www.w3.org/2000/svg"><g><path d="m351.95 192.114-158.13.41-43.09-141.8c-2.919-9.604 4.26-19.339 14.32-19.36 8.778-.019 61.315-.131 70.06-.15 4.98 0 9.64 2.47 12.43 6.59z" fill="#d1e4ff"/><path d="m351.95 192.114-95.95.25v-142.06l92.58 136.82z" fill="#b9d7ff"/><path d="m469.17 338.914-123.98.07-97.05 135.54c-2.82 3.94-7.36 6.27-12.2 6.27h-67.68c-10.052 0-17.318-9.723-14.34-19.4l37.6-122.44c-13.339.004-93.21.026-106.55.03-46.954 0-85.011-38.045-84.97-85.06l.11-139.92c0-8.224 6.647-14.99 15.01-14.99l44.98.04c6.49.01 12.23 4.18 14.25 10.34l25.59 78.37c14.166-.036 265.347-.682 284.16-.73 60.233 0 112.069 40.95 126.57 98.51 6.881 27.145-13.656 53.37-41.5 53.37z" fill="#e9f2ff"/><path d="m469.17 338.914-123.98.07-89.19 124.56v-276.18c34.71-.09 68.34-.18 92.58-.24 18.65-.05 31.75-.08 35.52-.09 60.23 0 112.07 40.95 126.57 98.51 6.88 27.14-13.66 53.37-41.5 53.37z" fill="#d1e4ff"/><g fill="#2275c7"><path d="m494.48 247.794h-58.64c-8.29 0-15 6.72-15 15 0 8.29 6.71 15 15 15h72.61c-3.42-10.73-8.15-20.78-13.97-30z"/><path d="m375.952 247.796h-15.046c-8.284 0-15 6.716-15 15s6.716 15 15 15h15.046c8.284 0 15-6.716 15-15s-6.716-15-15-15z"/><path d="m301.972 247.796h-15.046c-8.284 0-15 6.716-15 15s6.716 15 15 15h15.046c8.284 0 15-6.716 15-15s-6.716-15-15-15z"/></g><path d="m226.942 247.796h-14.946c-8.284 0-15 6.716-15 15s6.716 15 15 15h14.946c8.284 0 15-6.716 15-15s-6.715-15-15-15z" fill="#1c9ae8"/><path d="m152.013 247.796h-15.046c-8.284 0-15 6.716-15 15s6.716 15 15 15h15.046c8.284 0 15-6.716 15-15s-6.716-15-15-15z" fill="#1c9ae8"/></g></svg>