<svg id="Capa_1" enable-background="new 0 0 512 512" height="512" viewBox="0 0 512 512" width="512" xmlns="http://www.w3.org/2000/svg"><g><g><path d="m465.45 112.937c-8.284 0-15 6.716-15 15v255.708c0 8.284 6.716 15 15 15s15-6.716 15-15v-255.708c0-8.284-6.716-15-15-15z" fill="#463f3f"/><g fill="#5b5555"><path d="m45.95 113.063c-8.284 0-15 6.716-15 15v255.557c0 8.284 6.716 15 15 15s15-6.716 15-15v-255.557c0-8.285-6.716-15-15-15z"/><path d="m106.05 113.063c-8.284 0-15 6.716-15 15v196.05c0 8.284 6.716 15 15 15s15-6.716 15-15v-196.05c0-8.285-6.716-15-15-15z"/><path d="m165.95 113.063c-8.284 0-15 6.716-15 15v195.583c0 8.284 6.716 15 15 15s15-6.716 15-15v-195.583c0-8.285-6.716-15-15-15z"/><path d="m225.85 113.063c-8.284 0-15 6.716-15 15v255.557c0 8.284 6.716 15 15 15s15-6.716 15-15v-255.557c0-8.285-6.716-15-15-15z"/></g><path d="m285.75 338.646c8.284 0 15-6.716 15-15v-195.583c0-8.284-6.716-15-15-15s-15 6.716-15 15v195.583c0 8.284 6.716 15 15 15z" fill="#463f3f"/><path d="m345.65 113.063c-8.284 0-15 6.716-15 15v256c0 8.284 6.716 15 15 15s15-6.716 15-15v-256c0-8.285-6.716-15-15-15z" fill="#463f3f"/><path d="m405.55 338.646c8.284 0 15-6.716 15-15v-195.583c0-8.284-6.716-15-15-15s-15 6.716-15 15v195.583c0 8.284 6.716 15 15 15z" fill="#463f3f"/><circle cx="165.95" cy="383.62" fill="#5b5555" r="14.975"/><circle cx="105.95" cy="383.62" fill="#5b5555" r="14.975"/><ellipse cx="285.925" cy="383.62" fill="#463f3f" rx="14.975" ry="14.975" transform="matrix(.383 -.924 .924 .383 -177.913 500.975)"/><ellipse cx="406.05" cy="383.62" fill="#463f3f" rx="14.975" ry="14.975" transform="matrix(.383 -.924 .924 .383 -103.758 611.956)"/></g><path d="m497 234.063h-482c-8.284 0-15 6.716-15 15s6.716 15 15 15h482c8.284 0 15-6.716 15-15s-6.716-15-15-15z" fill="#e94f48"/><path d="m512 249.06c0 8.29-6.72 15-15 15h-241v-30h241c8.28 0 15 6.72 15 15z" fill="#e2273e"/><g><path d="m60.95 452h-30.95v-31.05c0-8.284-6.716-15-15-15s-15 6.716-15 15v46.05c0 8.284 6.716 15 15 15h45.95c8.284 0 15-6.716 15-15s-6.716-15-15-15z" fill="#5b5555"/><path d="m497 405.95c-8.284 0-15 6.716-15 15v31.05h-30.95c-8.284 0-15 6.716-15 15s6.716 15 15 15h45.95c8.284 0 15-6.716 15-15v-46.05c0-8.284-6.716-15-15-15z" fill="#463f3f"/><path d="m60.95 30h-45.95c-8.284 0-15 6.716-15 15v46.05c0 8.284 6.716 15 15 15s15-6.716 15-15v-31.05h30.95c8.284 0 15-6.716 15-15s-6.716-15-15-15z" fill="#5b5555"/><path d="m497 30h-45.95c-8.284 0-15 6.716-15 15s6.716 15 15 15h30.95v31.05c0 8.284 6.716 15 15 15s15-6.716 15-15v-46.05c0-8.284-6.716-15-15-15z" fill="#463f3f"/></g></g></svg>