<svg id="Capa_1" enable-background="new 0 0 512.001 512.001" height="512" viewBox="0 0 512.001 512.001" width="512" xmlns="http://www.w3.org/2000/svg"><g><path d="m313.279 212.543c-111.264 19.537-105.261 18.727-107.417 18.727-6.349 0-11.978-4.553-13.116-11.026l-18.531-105.043c-1.282-7.268 3.579-14.171 10.822-15.446 13.086-2.307 90.313-15.92 105.078-18.522 7.256-1.28 14.174 3.566 15.454 10.813l18.522 105.043c1.289 7.214-3.538 14.17-10.812 15.454z" fill="#c4a27a"/><path d="m313.281 212.542c-4.92.86-9.6 1.69-14.07 2.47l-23.15-131.3c6.32-1.12 11.28-1.99 14.05-2.48 7.26-1.28 14.18 3.57 15.46 10.81l18.52 105.05c1.289 7.21-3.54 14.17-10.81 15.45z" fill="#9b7c5d"/><path d="m243.717 126.025c-7.494 1.278-14.203-3.756-15.446-10.822l-3.834-22.393 26.267-4.633 3.834 22.393c1.281 7.256-3.565 14.174-10.821 15.455z" fill="#9b7c5d"/><path d="m429.156 407.246-183.996 32.421c-7.363 1.285-14.182-3.646-15.446-10.822l-32.331-183.835c-1.272-7.256 3.566-14.174 10.822-15.446 173.242-30.528 182.633-32.189 183.898-32.412 7.256-1.272 14.174 3.566 15.455 10.813l32.421 183.827c1.28 7.279-3.579 14.179-10.823 15.454z" fill="#c4a27a"/><path d="m429.16 407.242-93.15 16.42c-29.166-165.352-24.242-137.44-37.05-210.1 92.269-16.257 91.018-16.039 93.14-16.41 7.26-1.27 14.18 3.57 15.46 10.81l32.42 183.83c1.28 7.28-3.58 14.18-10.82 15.45z" fill="#9b7c5d"/><path d="m338.581 278.284-53.095 9.363c-7.369 1.285-14.197-3.675-15.454-10.84l-9.879-56.403 79.353-13.978 9.897 56.421c1.271 7.256-3.575 14.165-10.822 15.437z" fill="#9b7c5d"/><path d="m338.581 278.282-27.36 4.83-12.26-69.54c-.51.09-1.02.18-1.54.27 45.977-8.105 41.821-7.373 42.09-7.42l9.89 56.43c1.269 7.25-3.57 14.16-10.82 15.43z" fill="#7a6047"/><path d="m472.533 412.598c-1.437-8.159-9.214-13.608-17.376-12.169l-221.685 39.066-72.308-410.853c-1.094-6.212-5.958-11.077-12.17-12.172l-92.15-16.241c-8.154-1.434-15.938 4.011-17.376 12.169-1.438 8.159 4.011 15.938 12.169 17.376l81.802 14.417 73.088 415.281c1.441 8.181 9.24 13.605 17.377 12.173l236.46-41.67c8.158-1.438 13.606-9.217 12.169-17.377z" fill="#f4d77a"/><path d="m460.36 429.972-119.53 21.06c-1.74-9.88-3.49-19.75-5.21-29.54l119.54-21.06c8.16-1.44 15.94 4.01 17.37 12.17 1.44 8.16-4.009 15.94-12.17 17.37z" fill="#ffb966"/><path d="m307.975 441.596c-5.744-32.57-36.925-54.396-69.505-48.654-32.651 5.756-54.433 36.828-48.671 69.488 5.745 32.566 36.924 54.397 69.506 48.653 32.649-5.754 54.433-36.826 48.67-69.487z" fill="#5b5555"/><path d="m259.311 511.082c-3.885-22.047-12.991-73.62-20.85-118.14h.01c32.58-5.74 63.76 16.08 69.5 48.65 5.769 32.66-16.021 63.73-48.66 69.49z" fill="#463f3f"/><path d="m254.098 481.539c-16.292 2.872-31.883-8.039-34.756-24.32-2.877-16.313 8.002-31.854 24.335-34.731 16.283-2.872 31.881 8.034 34.755 24.32v.001c2.878 16.316-8.004 31.852-24.334 34.73z" fill="#d1e4ff"/><path d="m254.101 481.542-10.42-59.05c16.28-2.88 31.88 8.03 34.75 24.32 2.874 16.314-8.008 31.849-24.33 34.73z" fill="#b9d7ff"/></g></svg>