<svg id="Capa_1" enable-background="new 0 0 512 512" height="512" viewBox="0 0 512 512" width="512" xmlns="http://www.w3.org/2000/svg"><g><path d="m165.55 386h90v41h-90z" fill="#1c9ae8"/><path d="m210.5 386h45.05v41h-45.05z" fill="#2275c7"/><path d="m331 166v200.72h-241v-200.72c0-8.28 6.72-15 15-15h211c8.28 0 15 6.72 15 15z" fill="#c4a27a"/><path d="m331 166v200.72h-120.5v-215.72h105.5c8.28 0 15 6.72 15 15z" fill="#9b7c5d"/><path d="m245.5 151v70c0 8.28-6.72 15-15 15h-40c-8.28 0-15-6.72-15-15v-70z" fill="#9b7c5d"/><path d="m245.5 151v70c0 8.28-6.72 15-15 15h-20v-85z" fill="#7a6047"/><path d="m465.1 422h-450.1c-8.284 0-15 6.716-15 15v60c0 8.284 6.716 15 15 15h450.1c8.284 0 15-6.716 15-15v-60c0-8.284-6.716-15-15-15z" fill="#f4d77a"/><path d="m480.1 437v60c0 8.28-6.72 15-15 15h-254.6v-90h211.11v-277.45c9.796 2.111 20.113 2.104 30-.08v277.53h13.49c8.28 0 15 6.72 15 15z" fill="#ffb966"/><path d="m355.1 361h-290c-8.284 0-15 6.716-15 15s6.716 15 15 15h290c8.284 0 15-6.716 15-15s-6.716-15-15-15z" fill="#2275c7"/><path d="m370.1 376c0 8.28-6.72 15-15 15h-144.6v-30h144.6c8.28 0 15 6.72 15 15z" fill="#0757a1"/><ellipse cx="436.437" cy="75.563" fill="#2275c7" rx="75.563" ry="75.562" transform="matrix(.987 -.16 .16 .987 -6.468 70.885)"/><path d="m512 75.56c0 41.67-33.9 75.56-75.56 75.56v-151.12c41.66 0 75.56 33.9 75.56 75.56z" fill="#0757a1"/><path d="m482 75.56c0 25.168-20.485 45.56-45.56 45.56-25.074 0-45.57-20.385-45.57-45.56 0-25.12 20.44-45.56 45.57-45.56 25.12 0 45.56 20.44 45.56 45.56z" fill="#d1e4ff"/><path d="m482 75.56c0 20.98-14.368 38.417-32.33 43.59-.04.02-.09.04-.13.04-4.078 1.266-8.708 1.93-13.1 1.93v-91.12c25.12 0 45.56 20.44 45.56 45.56z" fill="#b9d7ff"/><path d="m451.44 75.44v43.14c-9.641 3.385-20.338 3.392-30 0v-43.14c0-8.29 6.71-15 15-15 8.28 0 15 6.71 15 15z" fill="#e94f48"/><path d="m451.44 75.44v43.14c-.375.134-1.812.61-1.9.61-4.078 1.266-8.708 1.93-13.1 1.93v-60.68c8.28 0 15 6.71 15 15z" fill="#e2273e"/></g></svg>