<svg id="Capa_1" enable-background="new 0 0 512 512" height="512" viewBox="0 0 512 512" width="512" xmlns="http://www.w3.org/2000/svg"><g><path d="m512 45v422c0 24.81-20.19 45-45 45h-422c-24.81 0-45-20.19-45-45v-422c0-24.81 20.19-45 45-45h136.05l74.95 10 75.05-10h135.95c24.81 0 45 20.19 45 45z" fill="#c4a27a"/><path d="m512 45v422c0 24.81-20.19 45-45 45h-211v-502l75.05-10h135.95c24.81 0 45 20.19 45 45z" fill="#9b7c5d"/><path d="m331.05 0v136c0 8.28-6.72 15-15 15h-120c-8.28 0-15-6.72-15-15v-136z" fill="#9b7c5d"/><path d="m331.05 0v136c0 8.28-6.72 15-15 15h-60.05v-151z" fill="#7a6047"/><path d="m346 405.95h-179.95c-8.284 0-15 6.716-15 15s6.716 15 15 15h179.95c8.284 0 15-6.716 15-15s-6.716-15-15-15z" fill="#5b5555"/><path d="m361 420.95c0 8.28-6.72 15-15 15h-90v-30h90c8.28 0 15 6.72 15 15z" fill="#463f3f"/><path d="m176.606 296.557 4.394-4.394v68.837c0 8.284 6.716 15 15 15s15-6.716 15-15v-68.837l4.394 4.394c5.859 5.858 15.355 5.858 21.213 0 5.858-5.857 5.858-15.355 0-21.213l-29.997-29.998c-5.853-5.852-15.368-5.849-21.218 0l-29.997 29.998c-5.858 5.857-5.858 15.355 0 21.213 5.856 5.857 15.354 5.857 21.211 0z" fill="#5b5555"/><path d="m296.506 296.557 4.394-4.394v68.837c0 8.284 6.716 15 15 15s15-6.716 15-15v-68.837l4.394 4.394c5.858 5.858 15.355 5.858 21.213 0 5.858-5.857 5.858-15.355 0-21.213l-29.997-29.998c-5.86-5.859-15.381-5.836-21.218 0l-29.997 29.998c-5.858 5.857-5.858 15.355 0 21.213 5.856 5.857 15.354 5.857 21.211 0z" fill="#463f3f"/></g></svg>