<svg id="Capa_1" enable-background="new 0 0 512 512" height="512" viewBox="0 0 512 512" width="512" xmlns="http://www.w3.org/2000/svg"><g><path d="m271 15v261h-30v-261c0-8.28 6.72-15 15-15s15 6.72 15 15z" fill="#5b5555"/><path d="m271 15v261h-15v-276c8.28 0 15 6.72 15 15z" fill="#463f3f"/><path d="m346 286v211c0 8.28-6.72 15-15 15h-240c-8.28 0-15-6.72-15-15v-211c0-8.28 6.72-15 15-15h75l45 10 45-10h75c8.28 0 15 6.72 15 15z" fill="#c4a27a"/><path d="m346 286v211c0 8.28-6.72 15-15 15h-120v-231l45-10h75c8.28 0 15 6.72 15 15z" fill="#9b7c5d"/><path d="m256 271v74c0 8.28-6.72 15-15 15h-60c-8.28 0-15-6.72-15-15v-74z" fill="#9b7c5d"/><path d="m256 271v74c0 8.28-6.72 15-15 15h-30v-89z" fill="#7a6047"/><path d="m436 377v120c0 8.28-6.72 15-15 15h-150c-8.28 0-15-6.72-15-15v-120c0-8.28 6.72-15 15-15h150c8.28 0 15 6.72 15 15z" fill="#c4a27a"/><path d="m436 377v120c0 8.28-6.72 15-15 15h-75v-150h75c8.28 0 15 6.72 15 15z" fill="#9b7c5d"/><path d="m361 362v39c0 8.28-6.72 15-15 15s-15-6.72-15-15v-39z" fill="#9b7c5d"/><path d="m361 362v39c0 8.28-6.72 15-15 15v-54z" fill="#7a6047"/><path d="m256 31v10.83s80.859 43.732 82.313 184.156c3.553-.074 7.086-1.394 9.88-3.981 17.556-16.258 45.06-16.258 62.615 0 9.513 8.812 25.192 2.118 25.192-11.005 0-99.252-80.748-180-180-180z" fill="#2275c7"/><path d="m76 211c0 13.052 15.603 19.887 25.192 11.005 17.556-16.258 45.06-16.258 62.615 0 2.793 2.588 6.326 3.908 9.88 3.982 1.454-140.424 82.313-191.589 82.313-191.589v-3.398c-99.252 0-180 80.748-180 180z" fill="#1c9ae8"/><path d="m256 31.154s-80.859 54.408-82.313 194.832c3.761.078 7.546-1.241 10.504-3.981 17.468-16.175 44.059-16.469 61.855-.685 5.679 5.037 14.228 5.037 19.906 0 17.796-15.783 44.388-15.488 61.855.685 2.958 2.739 6.743 4.058 10.504 3.98-1.452-140.423-82.311-194.831-82.311-194.831z" fill="#f4d77a"/><path d="m338.31 225.99c-3.76.07-7.54-1.25-10.5-3.98-17.47-16.18-44.06-16.47-61.86-.69-2.84 2.52-6.39 3.78-9.95 3.78v-193.95s80.86 54.41 82.31 194.84z" fill="#ffb966"/></g></svg>