<svg id="Capa_1" enable-background="new 0 0 512 512" height="512" viewBox="0 0 512 512" width="512" xmlns="http://www.w3.org/2000/svg"><g><path d="m407 0h-302c-57.897 0-105 47.103-105 105v302c0 57.897 47.103 105 105 105h302c57.897 0 105-47.103 105-105v-302c0-57.897-47.103-105-105-105z" fill="#e9f2ff"/><path d="m512 105v302c0 57.9-47.1 105-105 105h-302c-28.95 0-55.2-11.78-74.21-30.79l450.42-450.42c19.01 19.01 30.79 45.26 30.79 74.21z" fill="#d1e4ff"/><path d="m482 407c0 41.355-33.645 75-75 75h-302c-41.355 0-75-33.645-75-75v-302c0-41.355 33.645-75 75-75h302c41.355 0 75 33.645 75 75z" fill="#2275c7"/><path d="m482 105v302c0 41.36-33.65 75-75 75h-302c-20.68 0-39.42-8.41-53.01-21.99l408.02-408.02c13.58 13.58 21.99 32.33 21.99 53.01z" fill="#0757a1"/><circle cx="256" cy="256" fill="#d1e4ff" r="195"/><path d="m451 256c0 107.52-87.48 195-195 195-53.76 0-102.51-21.87-137.82-57.18l275.64-275.64c35.31 35.31 57.18 84.06 57.18 137.82z" fill="#b9d7ff"/><path d="m406 271c-8.284 0-15-6.716-15-15s6.716-15 15-15h14.311c-7.157-79.035-70.276-142.154-149.311-149.311v14.311c0 8.284-6.716 15-15 15s-15-6.716-15-15v-14.311c-79.035 7.157-142.154 70.276-149.311 149.311h14.311c8.284 0 15 6.716 15 15s-6.716 15-15 15h-14.311c7.157 79.035 70.276 142.154 149.311 149.311v-14.311c0-8.284 6.716-15 15-15s15 6.716 15 15v14.311c79.035-7.157 142.154-70.276 149.311-149.311z" fill="#e9f2ff"/><path d="m406 271h14.31c-7.16 79.04-70.27 142.15-149.31 149.31v-14.31c0-8.28-6.72-15-15-15s-15 6.72-15 15v14.31c-39.52-3.58-75.06-21.15-101.61-47.7l233.22-233.22c26.55 26.55 44.12 62.09 47.7 101.61h-14.31c-8.28 0-15 6.72-15 15s6.72 15 15 15z" fill="#d1e4ff"/><path d="m311.23 306.23c-1.82 3-4.66 5.29-8.06 6.43l-127.28 42.42c-11.73 3.91-22.87-7.29-18.97-18.97l42.42-127.28c1.14-3.4 3.43-6.24 6.43-8.06z" fill="#1c9ae8"/><path d="m311.26 306.26c-.71 1.29-1.32 1.86-2.23 2.77-4.52 4.55-.86 1.37-133.14 46.05-5.86 1.95-11.57.14-15.33-3.64l97.94-97.94 52.73 52.73z" fill="#2275c7"/><path d="m355.08 175.89-42.42 127.28c-.75 2.24-2 4.24-3.63 5.86l-106.06-106.06c1.62-1.63 3.62-2.88 5.86-3.63l127.28-42.42c11.72-3.9 22.87 7.27 18.97 18.97z" fill="#e94f48"/><path d="m355.08 175.89c-44.793 132.623-41.306 128.425-46.05 133.14l-53.03-53.03 95.45-95.45c3.77 3.77 5.58 9.49 3.63 15.34z" fill="#e2273e"/></g></svg>