<svg id="Capa_1" enable-background="new 0 0 512 512" height="512" viewBox="0 0 512 512" width="512" xmlns="http://www.w3.org/2000/svg"><g><path d="m393.44 206.645c-5.14 105.2-92.51 187.03-196.6 187.03-108.54 0-196.84-88.3-196.84-196.84 0-7.74.45-15.37 1.33-22.88l42.223-70.191 304.34 18.462z" fill="#1c9ae8"/><path d="m393.44 206.645c-5.14 105.2-92.51 187.03-196.6 187.03v-280.61l151.05 9.16z" fill="#2275c7"/><path d="m393.44 206.645-68.53 34.83c-3.58 1.82-7.74 2.13-11.54.86l-45-15c-5.73-1.91-9.75-7.06-10.22-13.08l-4.57-59.47-8.91-8.91-7.33 21.97c-2.04 6.13-7.77 10.26-14.23 10.26h-23.79l-27.81 27.82-23.95 86.19c-3.325 11.975-18.996 14.946-26.45 4.99l-45-60c-3.224-4.316-2.026-4.829-12.52-46.07l-28.47-8.47-33.79-8.61c11.676-101.47 100.982-178.937 205.62-173.7 110.995 5.626 191.703 100.515 186.49 206.39z" fill="#c3dd54"/><path d="m393.44 206.645-68.53 34.83c-3.58 1.82-7.74 2.13-11.54.86l-45-15c-5.73-1.91-9.75-7.06-10.22-13.08l-4.57-59.47-8.91-8.91-7.33 21.97c-2.04 6.13-7.77 10.26-14.23 10.26h-23.79l-2.48 2.48v-180.58c114.68 0 202.033 96.229 196.6 206.64z" fill="#97bc31"/><path d="m183.789 285.343c-8.148-1.479-15.96 3.924-17.441 12.074l-4 22c-1.482 8.151 3.924 15.96 12.074 17.441 8.164 1.485 15.962-3.936 17.441-12.074l4-22c1.483-8.151-3.924-15.96-12.074-17.441z" fill="#c3dd54"/><path d="m512 286.995v210c0 8.28-6.72 15-15 15h-240c-8.28 0-15-6.72-15-15v-210c0-8.28 6.72-15 15-15h240c8.28 0 15 6.72 15 15z" fill="#c4a27a"/><path d="m512 286.995v210c0 8.28-6.72 15-15 15h-120v-240h120c8.28 0 15 6.72 15 15z" fill="#9b7c5d"/><path d="m421 271.995v89c0 8.28-6.72 15-15 15h-60c-8.28 0-15-6.72-15-15v-89z" fill="#9b7c5d"/><path d="m421 271.995v89c0 8.28-6.72 15-15 15h-29v-104z" fill="#7a6047"/></g></svg>