<svg id="Capa_1" enable-background="new 0 0 512 512" height="512" viewBox="0 0 512 512" width="512" xmlns="http://www.w3.org/2000/svg"><g><g><path d="m363 30v172h-164c-5.51 0-10 4.49-10 10v164h-159c-16.54 0-30-13.46-30-30v-316c0-16.54 13.46-30 30-30h303c16.54 0 30 13.46 30 30z" fill="#c4a27a"/><path d="m363 30v172h-164c-5.51 0-10 4.49-10 10h-6.5v-212h150.5c16.54 0 30 13.46 30 30z" fill="#9b7c5d"/><path d="m239 0v106c0 8.28-6.72 15-15 15h-85c-8.28 0-15-6.72-15-15v-106z" fill="#9b7c5d"/><path d="m239 0v106c0 8.28-6.72 15-15 15h-41.5v-121z" fill="#7a6047"/></g><path d="m497 197h-300c-8.284 0-15 6.716-15 15v285c0 8.284 6.716 15 15 15h300c8.284 0 15-6.716 15-15v-285c0-8.284-6.716-15-15-15z" fill="#e9f2ff"/><path d="m512 212v285c0 8.28-6.72 15-15 15h-150v-315h150c8.28 0 15 6.72 15 15z" fill="#d1e4ff"/><g><path d="m241 166c-8.284 0-15 6.716-15 15v60c0 8.284 6.716 15 15 15s15-6.716 15-15v-60c0-8.284-6.716-15-15-15z" fill="#d1e4ff"/><path d="m301 166c-8.284 0-15 6.716-15 15v60c0 8.284 6.716 15 15 15s15-6.716 15-15v-60c0-8.284-6.716-15-15-15z" fill="#d1e4ff"/><g fill="#b9d7ff"><path d="m392 166c-8.284 0-15 6.716-15 15v60c0 8.284 6.716 15 15 15s15-6.716 15-15v-60c0-8.284-6.716-15-15-15z"/><path d="m452 166c-8.284 0-15 6.716-15 15v60c0 8.284 6.716 15 15 15s15-6.716 15-15v-60c0-8.284-6.716-15-15-15z"/></g></g><path d="m396.838 331.49c0-27.48-22.357-49.838-49.838-49.838-23.762 0-44.328 16.904-48.903 40.193-1.597 8.13 3.699 16.014 11.828 17.61 8.127 1.588 16.013-3.698 17.61-11.827 1.818-9.258 10.005-15.977 19.465-15.977 10.938 0 19.838 8.899 19.838 19.838s-8.899 19.838-19.838 19.838c-8.284 0-15 6.716-15 15s6.716 15 15 15c10.938 0 19.838 8.898 19.838 19.837s-8.899 19.838-19.838 19.838c-9.843 0-18.289-7.33-19.646-17.053-.127-.914-.192-1.852-.192-2.785 0-8.284-6.716-15-15-15s-15 6.716-15 15c0 2.316.162 4.649.48 6.933 3.413 24.46 24.632 42.905 49.357 42.905 27.481 0 49.838-22.357 49.838-49.838 0-13.546-5.431-25.845-14.231-34.837 8.801-8.991 14.232-21.291 14.232-34.837z" fill="#1c9ae8"/><path d="m382.61 366.33c30.638 31.3 8.608 84.67-35.61 84.67v-30c10.94 0 19.84-8.9 19.84-19.83 0-10.94-8.9-19.84-19.84-19.84v-30c10.94 0 19.84-8.9 19.84-19.84s-8.9-19.84-19.84-19.84v-30c27.48 0 49.84 22.36 49.84 49.84 0 13.55-5.43 25.85-14.23 34.84z" fill="#2275c7"/></g></svg>