<svg clip-rule="evenodd" fill-rule="evenodd" height="2.667in" image-rendering="optimizeQuality" shape-rendering="geometricPrecision" text-rendering="geometricPrecision" viewBox="0 0 2667 2667" width="2.667in" xmlns="http://www.w3.org/2000/svg"><g id="Layer_x0020_1"><circle cx="1333" cy="1333" fill="#f10" r="1333"/><path d="m825 2036c-26 0-53-2-80-7-39-7-28-66 11-59 120 21 238-13 349-101 31-24 68 23 37 47-101 80-207 120-317 120zm-12 150c-85 0-172-20-258-60-7-3-12-8-15-14-97-212-74-427 67-623 104-145 236-228 241-231 12-7 27-6 37 4l185 185 651-650c-57-61-56-158 4-217l90-90c11-12 30-12 42 0l320 319c11 12 11 31 0 43l-90 90c-60 59-156 61-218 4l-650 650 185 185c10 10 12 25 5 37-4 6-86 137-232 242-115 84-238 126-364 126zm281-678-95 96c-16 18-16 46-1 64 19 16 47 15 65 0l764-764-64-64zm-66-18-168-168c-40 28-131 99-206 203-126 176-148 362-64 552 190 83 375 61 551-64 105-75 176-167 204-207l-168-167-73 73c-21 18-47 27-74 27-104 0-129-119-75-176zm756-714 123 123c39 39 99 39 138 0l69-69-278-277-68 69c-39 38-39 98 0 137z" fill="#fff"/></g></svg>