<svg clip-rule="evenodd" fill-rule="evenodd" height="2.667in" image-rendering="optimizeQuality" shape-rendering="geometricPrecision" text-rendering="geometricPrecision" viewBox="0 0 2667 2667" width="2.667in" xmlns="http://www.w3.org/2000/svg"><g id="Layer_x0020_1"><circle cx="1333" cy="1333" fill="#378b4e" r="1333"/><path d="m1755 1753h-843l-55 183h952zm-898-26c-1-13 5-18 7-24l324-1084c24-88 77-138 145-138 48 0 112 24 146 138l323 1084c9 17 6 5 7 24l63 209h57c69 0 127 56 127 123v97c0 17-13 30-30 30h-1385c-17 0-30-13-30-30v-97c0-67 58-123 126-123h58zm73-34h807l-78-260h-651zm711-320-80-269h-455l-80 269zm-98-329-79-263h-261l-79 263zm-97-323c-22-74-40-180-113-180-53 0-83 67-87 95l-26 85zm-775 1405h1325v-67c0-34-31-63-67-63h-1192c-36 0-66 29-66 63z" fill="#fff"/></g></svg>