<svg clip-rule="evenodd" fill-rule="evenodd" height="2.667in" image-rendering="optimizeQuality" shape-rendering="geometricPrecision" text-rendering="geometricPrecision" viewBox="0 0 2667 2667" width="2.667in" xmlns="http://www.w3.org/2000/svg"><g id="Layer_x0020_1"><circle cx="1333" cy="1333" fill="#378b4e" r="1333"/><path d="m1733 1447c-27 0-40-33-21-51 81-82 82-216 0-297-28-28 14-71 42-43 157 157 39 391-21 391zm333 739h-1465c-67 0-120-54-120-120v-1465c0-67 53-120 120-120h1465c66 0 120 53 120 120v1465c0 66-54 120-120 120zm-1465-1645c-34 0-60 26-60 60v110h1585v-110c0-34-26-60-60-60zm-60 230v1295c0 34 26 60 60 60h1465c34 0 60-26 60-60v-1295zm792 1215c-7 0-15-3-21-9l-504-505c-52-61-81-139-81-222 0-311 374-448 581-241l25 25 26-25c207-208 580-70 580 241 0 92-35 178-98 241l-486 486c-6 6-14 9-22 9zm-266-1015c-245 0-359 279-218 456h362l131-191c17-24 55-12 55 17v292l88-132c6-8 15-13 25-13h140c39 0 39 60 0 60h-124l-134 200c-17 24-55 13-55-17v-293l-86 124c-5 8-15 13-24 13h-321l427 427 465-465c108-108 108-290 0-397-107-108-289-108-397 0-75 74-61 75-136 0-53-54-126-81-198-81z" fill="#fff"/></g></svg>