<svg clip-rule="evenodd" fill-rule="evenodd" height="2.667in" image-rendering="optimizeQuality" shape-rendering="geometricPrecision" text-rendering="geometricPrecision" viewBox="0 0 2667 2667" width="2.667in" xmlns="http://www.w3.org/2000/svg"><g id="Layer_x0020_1"><circle cx="1333" cy="1333" fill="#1d81ce" r="1333"/><path d="m1503 1533h-343c-16 0-30-13-30-30v-343c0-16 14-30 30-30h343c17 0 30 14 30 30v343c0 17-13 30-30 30zm-170 653c-174 0-316-142-316-316v-220h-220c-174 0-316-142-316-317 0-174 142-316 316-316h220v-220c0-174 142-316 316-316 175 0 317 142 317 316v220h219c175 0 317 142 317 316 0 175-142 317-317 317h-219v220c0 174-142 316-317 316zm-316-596v-513h-220c-141 0-256 115-256 256 0 142 115 257 256 257zm633-513v513h219c142 0 257-115 257-257 0-141-115-256-257-256zm-317-536c-141 0-256 115-256 256v1073c0 141 115 256 256 256 142 0 257-115 257-256v-1073c0-141-115-256-257-256zm183 503c-34 0-29-37-29-57 0-40 59-40 59 0 0 20 5 57-30 57zm-123 0c-34 0-30-37-30-57 0-40 60-40 60 0 0 20 5 57-30 57zm-120 0c-34 0-30-37-30-57 0-40 60-40 60 0 0 20 5 57-30 57zm-123 0c-34 0-30-37-30-57 0-40 60-40 60 0 0 20 5 57-30 57zm366-164c-34 0-29-37-29-56 0-40 59-40 59 0 0 19 5 56-30 56zm327 666c-20 0-57 5-57-29 0-35 37-30 57-30 39 0 39 59 0 59zm-450-666c-34 0-30-37-30-56 0-40 60-40 60 0 0 19 5 56-30 56zm450 543c-20 0-57 5-57-30 0-34 37-30 57-30 39 0 39 60 0 60zm-570-543c-34 0-30-37-30-56 0-40 60-40 60 0 0 19 5 56-30 56zm570 423c-20 0-57 5-57-30 0-34 37-30 57-30 39 0 39 60 0 60zm-693-423c-34 0-30-37-30-56 0-40 60-40 60 0 0 19 5 56-30 56zm693 300c-20 0-57 5-57-30 0-34 37-30 57-30 39 0 39 60 0 60zm-386-466c-35 0-30-37-30-57 0-39 60-39 60 0 0 20 4 57-30 57zm552 773c-19 0-56 4-56-30 0-35 37-30 56-30 40 0 40 60 0 60zm-676-773c-34 0-30-37-30-57 0-39 60-39 60 0 0 20 5 57-30 57zm676 649c-19 0-56 5-56-30 0-34 37-30 56-30 40 0 40 60 0 60zm-799-649c-35 0-30-37-30-57 0-39 60-39 60 0 0 20 5 57-30 57zm799 526c-19 0-56 5-56-30s37-30 56-30c40 0 40 60 0 60zm-493 470c-34 0-29-37-29-57 0-39 59-39 59 0 0 20 5 57-30 57zm-123 0c-34 0-30-37-30-57 0-39 60-39 60 0 0 20 5 57-30 57zm-120 0c-34 0-30-37-30-57 0-39 60-39 60 0 0 20 5 57-30 57zm-123 0c-34 0-30-37-30-57 0-39 60-39 60 0 0 20 5 57-30 57zm366 163c-34 0-29-37-29-57 0-39 59-39 59 0 0 20 5 57-30 57zm-666-327c-19 0-56 5-56-29 0-35 37-30 56-30 40 0 40 59 0 59zm543 327c-34 0-30-37-30-57 0-39 60-39 60 0 0 20 5 57-30 57zm-543-450c-19 0-56 5-56-30 0-34 37-30 56-30 40 0 40 60 0 60zm423 450c-34 0-30-37-30-57 0-39 60-39 60 0 0 20 5 57-30 57zm-423-570c-19 0-56 5-56-30 0-34 37-30 56-30 40 0 40 60 0 60zm300 570c-34 0-30-37-30-57 0-39 60-39 60 0 0 20 5 57-30 57zm-300-693c-19 0-56 5-56-30 0-34 37-30 56-30 40 0 40 60 0 60zm607 859c-35 0-30-37-30-56 0-40 60-40 60 0 0 19 4 56-30 56zm-773-552c-20 0-57 4-57-30 0-35 37-30 57-30 39 0 39 60 0 60zm649 552c-34 0-30-37-30-56 0-40 60-40 60 0 0 19 5 56-30 56zm-649-676c-20 0-57 5-57-30 0-34 37-30 57-30 39 0 39 60 0 60zm526 676c-35 0-30-37-30-56 0-40 60-40 60 0 0 19 5 56-30 56zm-526-799c-20 0-57 5-57-30s37-30 57-30c39 0 39 60 0 60zm506 233h283v-283h-283z" fill="#fff"/></g></svg>