<svg clip-rule="evenodd" fill-rule="evenodd" height="2.667in" image-rendering="optimizeQuality" shape-rendering="geometricPrecision" text-rendering="geometricPrecision" viewBox="0 0 2667 2667" width="2.667in" xmlns="http://www.w3.org/2000/svg"><g id="Layer_x0020_1"><circle cx="1333" cy="1333" fill="#00ab94" r="1333"/><path d="m1966 1703c-100 0-189-69-212-167h-301c-10 0-19-4-24-13l-120-173c-7-10-7-23-1-33l110-173c6-8 15-14 25-14h311c23-97 111-166 212-166 198 0 290 234 159 369 131 135 39 370-159 370zm-1472-446c-8-15-13-55-13-74 0-195 228-286 365-163 33 29 56 68 66 110h405c24 0 38 28 24 47l-123 174 25 151c3 18-11 35-30 35h-301c-23 97-111 166-211 166-198 0-290-234-159-370-21-21-37-47-48-76zm48-52c73-28 123-97 125-178-81 17-137 94-125 178zm185-179c-2 107-68 199-165 236 29 48 55 44 55 71 0 10-4 19-12 25-119 84-64 285 96 285 81 0 148-60 156-140 2-15 15-26 30-26h291l-21-129c-1-8 1-16 5-22l96-136h-371c-15 0-28-12-30-27-7-71-61-126-130-137zm742 451h311c15 0 28 11 29 26 9 80 76 140 157 140 159 0 214-201 96-285-17-12-17-37 0-49 119-84 63-285-96-285-81 0-148 60-157 139-1 16-14 27-29 27h-320l-91 143zm-136-473c-16 0-30-14-30-30v-177c0-39 60-39 60 0v177c0 16-13 30-30 30zm137 0c-25 0-40-30-23-50l103-123c25-30 71 9 46 39l-103 123c-6 7-14 11-23 11zm-273 0c-9 0-17-4-23-11l-103-123c-26-30 20-69 46-39l103 123c16 20 2 50-23 50zm136 895c-16 0-30-13-30-29v-177c0-40 60-40 60 0v177c0 16-13 29-30 29zm240-53c-9 0-17-3-23-10l-103-124c-25-30 21-68 46-38l103 123c17 19 2 49-23 49zm-479 0c-26 0-40-30-23-49l103-123c25-30 71 8 46 38l-103 124c-6 7-15 10-23 10z" fill="#fff"/></g></svg>