<svg clip-rule="evenodd" fill-rule="evenodd" height="2.667in" image-rendering="optimizeQuality" shape-rendering="geometricPrecision" text-rendering="geometricPrecision" viewBox="0 0 2667 2667" width="2.667in" xmlns="http://www.w3.org/2000/svg"><g id="Layer_x0020_1"><circle cx="1333" cy="1333" fill="#f44c71" r="1333"/><path d="m953 741c-11 0-21-6-27-16l-46-87c-19-34 33-63 53-28l46 87c11 19-3 44-26 44zm1111 1445h-1461c-17 0-30-13-30-30v-140c0-17 13-30 30-30h83c0-132-15-116 111-116l126-930c17-118 98-196 203-196h413c104 0 186 78 202 195l127 931c128 0 113-16 113 116h83c16 0 30 13 30 30v140c0 17-14 30-30 30zm-1318-200h1175v-57h-1175zm-113 140h1401v-80h-1401zm224-256h382v-315c-128-63-157-236-55-337 131-131 358-39 358 149 0 80-45 153-117 188v315h382l-125-922c-9-67-52-144-143-144h-413c-91 0-134 77-144 144zm442 0h66v-296h-66zm33-653c-84 0-150 66-150 150 0 61 36 113 87 136 8 0 14 3 19 7 15 8 73 8 88 0 5-4 12-7 19-7 52-23 87-75 87-136 0-84-66-150-150-150zm380-476c-23 0-37-25-27-45l47-86c19-35 71-7 53 28l-47 87c-5 10-16 16-26 16zm-183-74c-18 0-34-17-29-37l23-97c9-38 68-24 58 15l-23 96c-3 14-16 23-29 23zm-197-26c-16 0-30-14-30-30v-100c0-40 60-40 60 0v100c0 16-13 30-30 30zm-196 26c-14 0-26-9-29-23l-24-96c-9-39 49-53 59-15l23 97c5 19-11 37-29 37z" fill="#fff"/></g></svg>