<svg clip-rule="evenodd" fill-rule="evenodd" height="2.667in" image-rendering="optimizeQuality" shape-rendering="geometricPrecision" text-rendering="geometricPrecision" viewBox="0 0 2667 2667" width="2.667in" xmlns="http://www.w3.org/2000/svg"><g id="Layer_x0020_1"><circle cx="1333" cy="1333" fill="#f10" r="1333"/><path d="m1069 992c-11-5-12-15-35-15h-144c-29 0-53 25-53 57v53h250c0-38 6-73-18-95zm1010 1177h-1492c-59 0-106-47-106-106v-870c0-59 47-106 106-106h190v-53c0-65 51-117 113-117h144c17 0 33 4 48 11l739-427c34-19 64 33 30 52l-722 417c23 37 18 75 18 117h932c60 0 107 47 107 106v870c0 59-47 106-107 106zm-1492-1022c-26 0-46 20-46 46v97h1585v-97c0-26-20-46-47-46zm-46 203v713c0 26 20 46 46 46h1492c27 0 47-20 47-46v-713zm429 689c-274 0-407-337-216-529 188-190 526-62 526 220 0 170-137 309-310 309zm0-559c-22 0-43 3-63 8l65 65 64-65c-21-5-43-8-66-8zm-123 32c-38 22-69 53-90 92l81 82 92-91zm-115 152c-11 42-11 87 0 129l64-65zm24 189c22 39 54 71 92 93l82-83-92-92zm151 118c43 11 87 11 129 0l-64-65zm189-25c38-23 70-55 92-93l-82-82-92 92zm116-153c11-42 11-87 0-129l-64 65zm-25-189c-21-38-53-69-91-91l-82 82 91 91zm-215 33-92 92 92 92 91-92zm1001 78h-490c-16 0-30-13-30-30v-235c0-17 14-30 30-30h490c17 0 30 13 30 30v235c0 17-13 30-30 30zm-460-60h430v-175h-430zm460 218h-74c-39 0-39-60 0-60h74c39 0 39 60 0 60zm-413 0h-77c-39 0-39-60 0-60h77c39 0 39 60 0 60zm206 0h-76c-40 0-40-60 0-60h76c40 0 40 60 0 60zm207 166h-74c-39 0-39-60 0-60h74c39 0 39 60 0 60zm-413 0h-77c-39 0-39-60 0-60h77c39 0 39 60 0 60zm206 0h-76c-40 0-40-60 0-60h76c40 0 40 60 0 60z" fill="#fff"/></g></svg>