<svg clip-rule="evenodd" fill-rule="evenodd" height="2.667in" image-rendering="optimizeQuality" shape-rendering="geometricPrecision" text-rendering="geometricPrecision" viewBox="0 0 2667 2667" width="2.667in" xmlns="http://www.w3.org/2000/svg"><g id="Layer_x0020_1"><circle cx="1333" cy="1333" fill="#7ed63f" r="1333"/><path d="m1926 1292-66 62c-27 28-70-15-41-43l64-62-84-84-65 63c-28 27-70-16-42-43l65-62-86-86-63 64c-28 28-71-14-43-42l64-64-85-85-62 64c-27 28-71-12-43-41l63-66-85-84-62 65c-27 28-71-13-43-42l63-65-76-77-119 184 641 637 181-117zm-1044 894c-92 0-185-35-256-106l-40-40c-141-141-141-371 0-512l235-235 447-692c11-16 33-19 47-5l83 84 101-101c11-11 30-11 42 0l546 547c12 11 12 30 0 42l-100 100 84 84c13 14 11 36-5 46l-695 449-233 233c-70 71-163 106-256 106zm-38-831-215 215c-118 118-118 310 0 428l40 40c118 118 309 118 427 0l215-215zm38-46 476 475 411-266-622-619zm-25 694c-178 0-256-214-138-332 119-118 332-41 332 138 0 108-84 194-194 194zm0-328c-125 0-175 149-95 229 81 81 229 30 229-95 0-76-58-134-134-134zm397-109c-8 0-16-3-22-9l-123-123c-12-11-12-30 0-42l76-75c-16-16-47-40-22-65s49 7 64 22l75-75c12-12 31-12 43 0l123 123c11 12 11 31 0 42l-77 77c15 15 45 38 20 63s-49-7-62-21l-74 74c-6 6-14 9-21 9zm-81-153 81 81 53-53-81-82zm176-15 55-55-80-81-55 55zm504-555c-27 0-40-32-21-51l126-126c28-28 70 14 43 42l-127 127c-6 5-13 8-21 8zm303 127h-180c-39 0-39-60 0-60h180c40 0 40 60 0 60zm-429-250c-17 0-30-13-30-30v-180c0-39 59-39 59 0v180c0 17-13 30-29 30zm-285 0 504 504 78-77-504-504z" fill="#fff"/></g></svg>