<svg clip-rule="evenodd" fill-rule="evenodd" height="2.667in" image-rendering="optimizeQuality" shape-rendering="geometricPrecision" text-rendering="geometricPrecision" viewBox="0 0 2667 2667" width="2.667in" xmlns="http://www.w3.org/2000/svg"><g id="Layer_x0020_1"><circle cx="1333" cy="1333" fill="#378b4e" r="1333"/><path d="m1566 877c-17 0-30-13-30-30 0-80-67-147-147-147-39 0-39-60 0-60 113 0 207 94 207 207 0 17-14 30-30 30zm280 1309h-1026c-17 0-30-13-30-30v-173c0-17 13-30 30-30h100v-181c-149 0-133 16-133-99h-104c-16 0-30-13-30-30v-210c0-17 14-30 30-30h104c0-112-15-96 133-96v-184h-47c-57 0-103-46-103-103 0-56 46-100 110-100 7-243 207-439 453-439 245 0 445 196 452 439 64 0 110 44 110 100 0 57-46 103-103 103h-50v184c154 0 138-17 138 96h103c17 0 30 13 30 30v210c0 17-13 30-30 30h-103c0 116 16 99-138 99v181h104c17 0 30 13 30 30v173c0 16-13 30-30 30zm-996-60h966v-113h-966zm70-414v-346h-74v58c5 30 0 220 0 288zm60 241h702v-830h-702zm-107-973c-23 0-43 19-43 40 0 23 20 43 43 43h919c24 0 44-20 44-43 0-21-21-40-44-40zm67-60h786c-8-210-181-379-393-379s-386 169-393 379zm940 543v150h73v-150zm-134 249h74v-60c-4-30 0-218 0-286h-74zm-959-99v-150h-74v150zm546 203c-155 0-280-126-280-280 0-152 125-276 280-276 154 0 279 124 279 276 0 154-125 280-279 280zm0-496c-122 0-220 97-220 216 0 122 98 220 220 220 121 0 219-98 219-220 0-119-98-216-219-216zm0 363c-81 0-147-65-147-147 0-79 66-143 147-143 133 0 194 158 103 248-28 27-64 42-103 42zm0-230c-48 0-87 37-87 83 0 115 173 115 173 0 0-46-39-83-86-83z" fill="#fff"/></g></svg>