<svg clip-rule="evenodd" fill-rule="evenodd" height="2.667in" image-rendering="optimizeQuality" shape-rendering="geometricPrecision" text-rendering="geometricPrecision" viewBox="0 0 2667 2667" width="2.667in" xmlns="http://www.w3.org/2000/svg"><g id="Layer_x0020_1"><circle cx="1333" cy="1333" fill="#00ab94" r="1333"/><path d="m1333 1770c-53 0-93-40-93-94v-40h-40c-51 0-93-42-93-93 0-53 40-93 93-93h40v-40c0-54 41-97 93-97 53 0 94 43 94 97v40h40c53 0 93 40 93 93 0 51-42 93-93 93h-40v40c0 54-40 94-94 94zm420 416h-839c-64 0-114-50-114-113v-1063c0-60 51-110 114-110h160v-159h-30c-72 0-130-59-130-130s59-130 130-130h579c70 0 130 59 130 130s-58 130-130 130h-30v159h160c62 0 113 50 113 110v1063c0 63-49 113-113 113zm-839-1226c-30 0-54 23-54 50v114h946v-114c0-27-24-50-53-50zm-54 1003v110c0 30 24 53 54 53h839c30 0 53-23 53-53v-110zm474-1282h289c39 0 70-32 70-70 0-37-33-70-70-70h-579c-37 0-70 33-70 70 0 38 31 70 70 70zm-200 218h399v-158h-399zm-274 1004h943v-720h-943zm473-35c-182 0-324-142-324-325 0-294 352-436 556-231 126 127 122 342-1 463-62 60-144 93-231 93zm-188-136c104 101 273 101 377 0 101-105 101-274 0-378-104-104-273-104-377 0-101 105-101 274 0 378zm55-222c-46 0-42 66 0 66 111 0 100-11 100 100 0 45 67 45 67 0 0-111-12-100 100-100 42 0 46-66 0-66-112 0-100 11-100-100 0-49-67-49-67 0 0 111 11 100-100 100z" fill="#fff"/></g></svg>