<svg clip-rule="evenodd" fill-rule="evenodd" height="2.667in" image-rendering="optimizeQuality" shape-rendering="geometricPrecision" text-rendering="geometricPrecision" viewBox="0 0 2667 2667" width="2.667in" xmlns="http://www.w3.org/2000/svg"><g id="Layer_x0020_1"><circle cx="1333" cy="1333" fill="#f10" r="1333"/><path d="m2049 1800h-439v103h393c28 0 46-24 46-46zm-965 385c-142 0-527-19-527-172v-1305c0-5 1-9 3-13 13-59 69-111 162-150 201-85 524-85 725 0 102 43 159 99 163 176v163h393c57 0 106 49 106 107v866c0 57-49 106-106 106h-393v50c0 153-385 172-526 172zm-467-1352v1180c0 22 35 53 133 78 182 46 486 46 667 0 98-25 133-57 133-78v-1179c-192 165-740 165-933-1zm467-292c-129 0-249 21-339 59-295 124-32 298 339 298 370 0 632-174 340-298-90-38-211-59-340-59zm0 283c-283 0-277-210 0-210s282 210 0 210zm0-150c-99 0-150 33-150 47 0 23 150 70 264 24 29-11 35-22 35-24 0-14-51-47-149-47zm0 1176c-67 0-120-54-120-120v-66h-70c-63 0-120-58-120-120 0-65 55-120 120-120h70v-70c0-66 53-120 120-120 66 0 119 54 119 120v70h70c67 0 120 53 120 120 0 65-55 120-120 120h-70v66c0 66-53 120-119 120zm-190-366c-32 0-60 28-60 60 0 30 29 60 60 60h100c16 0 30 13 30 30v96c0 79 120 79 120 0v-96c0-17 13-30 29-30h100c32 0 60-28 60-60 0-34-26-60-60-60-149 0-129 20-129-130 0-79-120-79-120 0 0 150 20 130-130 130zm716 256h439v-633h-439zm439-693v-56c0-23-18-47-46-47h-393v103z" fill="#fff"/></g></svg>