<svg clip-rule="evenodd" fill-rule="evenodd" height="2.667in" image-rendering="optimizeQuality" shape-rendering="geometricPrecision" text-rendering="geometricPrecision" viewBox="0 0 2667 2667" width="2.667in" xmlns="http://www.w3.org/2000/svg"><g id="Layer_x0020_1"><circle cx="1333" cy="1333" fill="#f10" r="1333"/><path d="m1686 894c-17 0-35-22-53-38-29-26 11-71 40-45 22 21 61 45 36 73-6 6-14 10-23 10zm-103 876h-579c-13 82-83 143-170 143s-160-62-174-143h-149c-17 0-30-14-30-30v-950c0-16 13-29 30-29h1072c17 0 30 13 30 29v214h57v-24c0-112 170-117 170 0v24h89c8 0 16 3 22 8l226 227c6 5 9 13 9 21v480c0 16-13 30-30 30h-116c-14 82-84 143-170 143-87 0-160-62-174-143zm-578-60h548v-190h-1012v190h119c14-85 87-147 174-147s157 62 171 147zm548-676v-214h-1012v640h1012zm487 676h86v-190h-513v190h82c15-85 88-147 175-147s157 62 170 147zm86-250v-188l-209-208h-304v396zm-147-77h-276c-17 0-30-13-30-30v-216c0-17 13-30 30-30h167c8 0 16 4 22 10l110 123c5 5 7 13 7 20v93c0 17-13 30-30 30zm-246-60h216v-52l-93-104h-123zm-899 300c-65 0-117 51-117 117 0 62 53 113 117 113 63 0 113-50 113-113 0-67-49-117-113-117zm1036 0c-66 0-117 51-117 117 0 62 52 113 117 113 63 0 113-50 113-113 0-67-49-117-113-117zm-3 187c-83 0-97-125-5-143 29-6 72 20 77 62 7 44-28 81-72 81zm1-83c-12 2-13 25 1 23 15-2 14-22-1-23zm-1037 83c-82 0-97-125-5-143 29-6 72 20 78 62 6 44-29 81-73 81zm1-83c-12 2-12 25 1 23 16-2 14-22-1-23zm215-310c-60 0-110-51-110-110v-57h-57c-59 0-109-50-109-110 0-59 50-110 109-110h57v-56c0-60 50-110 110-110s110 50 110 110v56h56c60 0 110 51 110 110 0 60-50 110-110 110h-56v57c0 59-50 110-110 110zm-167-327c-26 0-50 24-50 50 0 27 24 50 50 50 133 0 117-16 117 117 0 26 23 50 50 50s50-24 50-50c0-133-16-117 116-117 27 0 50-23 50-50 0-26-23-50-50-50-132 0-116 17-116-116 0-27-23-50-50-50s-50 23-50 50c0 133 16 116-117 116zm850-86h50c0-19 4-50-24-50-30 0-26 31-26 50zm26-147c-37 0-30-44-30-73 0-40 60-40 60 0 0 29 8 73-30 73zm67 37c-28 0-41-36-19-54 24-20 55-55 79-25 23 29-16 52-41 72-6 4-12 7-19 7z" fill="#fff"/></g></svg>