<svg clip-rule="evenodd" fill-rule="evenodd" height="2.667in" image-rendering="optimizeQuality" shape-rendering="geometricPrecision" text-rendering="geometricPrecision" viewBox="0 0 2667 2667" width="2.667in" xmlns="http://www.w3.org/2000/svg"><g id="Layer_x0020_1"><circle cx="1333" cy="1333" fill="#00ab94" r="1333"/><path d="m1607 807-104-104-41 41 113 113 42-40zm332 1379h-1212c-70 0-130-60-130-130 0-72 59-130 130-130h17c-51-81-1-193 101-200-57-86 7-200 109-200h47c-52-80-3-199 113-199-75-241 95-446 281-566-8-12-7-28 4-39l83-83c23-22 43 1 55 12l151-151c25-25 62-27 87 1 27 30 62 49 65 83 1 17-6 35-19 48l-152 152c11 11 35 32 11 55l-86 83c-15 15-33 9-47-5-202 136-244 236-242 296 2 63 50 102 67 114h184c107 0 163 116 110 199h47c102 0 165 114 108 200 103 7 153 119 101 200h17c72 0 130 58 130 130 0 70-59 130-130 130zm-1085-260h959c91 0 94-140 0-140h-959c-94 0-91 140 0 140zm-127 60c-38 0-70 31-70 70 0 37 34 70 70 70h1212c37 0 70-33 70-70 0-39-31-70-70-70zm226-260h760c37 0 70-33 70-70 0-38-31-70-70-70h-759c-39 0-70 32-70 70 0 37 33 70 69 70zm157-200h447c90 0 94-139-1-139h-446c-94 0-91 139 0 139zm67-199h109c-113-147 19-317 219-454l-67-68c-169 105-344 295-261 522zm402-633 48 47 152-152-48-47z" fill="#fff"/></g></svg>