<svg clip-rule="evenodd" fill-rule="evenodd" height="2.667in" image-rendering="optimizeQuality" shape-rendering="geometricPrecision" text-rendering="geometricPrecision" viewBox="0 0 2667 2667" width="2.667in" xmlns="http://www.w3.org/2000/svg"><g id="Layer_x0020_1"><circle cx="1333" cy="1333" fill="#1d81ce" r="1333"/><g><path d="m721 1224c-24 0-47-10-64-27l-150-150c-83-82 39-219 134-123 12-10 25-24 33-31-1-14-6-26-15-36-23-26 8-49 26-67-86-89 45-233 140-138l76-73c7-6 192-128 381-50 25 11 24 47-1 56-66 24-292 129-206 244 17 23-5 41-17 53l202 205 16-15c18-18 50-19 68-1l813 746c37 36 41 98 0 137-57 54-127 131-184 184-36 34-99 37-136-7l-735-821c-17-19-17-50 1-68l16-16-203-205c-17 17-29 35-51 27-23-7-50-13-61-13-5 4-16 14-26 25 21 21 34 39 34 73 0 51-40 91-91 91zm-94-230c-19-18-49-61-78-33-11 12-11 33 0 44l150 150c29 29 73-15 45-44zm101-246 55-54c-40-39-86 21-55 54zm287 176-56 55 202 205 57-55zm-331 42 53 51c44-45 57-51 129-31l147-144c-63-119 53-216 168-277-120-13-228 52-244 62l-216 213c11 22 14 39 14 63 0 21-24 36-51 63zm602 180-133 130 731 818c9 15 35 12 49-1l182-182c16-16 13-38 1-50l-805-739zm637 880c-110 0-165-134-88-211 49-49 128-49 176 0 78 78 22 211-88 211zm0-188c-57 0-85 69-45 110 25 25 66 25 91 0 40-41 12-110-46-110z" fill="#fff"/></g></g></svg>