<svg clip-rule="evenodd" fill-rule="evenodd" height="2.667in" image-rendering="optimizeQuality" shape-rendering="geometricPrecision" text-rendering="geometricPrecision" viewBox="0 0 2667 2667" width="2.667in" xmlns="http://www.w3.org/2000/svg"><g id="Layer_x0020_1"><circle cx="1333" cy="1333" fill="#f10" r="1333"/><path d="m886 1735-162-42-171 170 101 103zm693-106c-21 0-36-22-27-42 2-3 23-56 3-153-1-3-2-6-2-10-11-49-34-113-80-191l-798 797c-12 12-31 12-42 0l-144-147c-11-11-11-30 1-42l550-548c3-6 8-11 14-14l260-259c-13-15-27-30-42-46-12-12-11-30 0-42l217-216c11-12 30-12 42-1 15 15 29 28 44 41l120-120c12-11 31-11 43 1l143 146c12 12 12 31 0 42l-91 92c78 46 143 69 192 80 4 0 9 1 13 3 96 19 148-4 148-4 15-10 49 4 42 34-69 283-315 529-598 598-3 1-5 1-8 1zm-139-448c-24-36-52-75-86-116l-227 226 161 42zm180-385c42 34 81 63 117 88l80-81-101-103zm-285 158c114 123 224 272 268 426 143-75 263-193 336-332-154-44-304-153-428-269zm282 486c9 49 8 88 4 117 226-73 419-267 492-492-35 5-75 3-114-3-80 160-217 296-382 378zm-844 204 162 42 127-127-161-42zm305-304-128 127 161 42 128-127z" fill="#fff"/></g></svg>