<svg clip-rule="evenodd" fill-rule="evenodd" height="2.667in" image-rendering="optimizeQuality" shape-rendering="geometricPrecision" text-rendering="geometricPrecision" viewBox="0 0 2667 2667" width="2.667in" xmlns="http://www.w3.org/2000/svg"><g id="Layer_x0020_1"><circle cx="1333" cy="1333" fill="#7ed63f" r="1333"/><path d="m1384 1916-321-430-349 422c9 5 19 8 30 8zm-733 12c-24-28-20-67-20-102h-40c-60 0-110-50-110-110v-916c0-59 50-109 110-109h1332c62 0 113 49 113 109v40h40c60 0 110 51 110 110v916c0 58-48 110-110 110h-1332c-39 0-73-19-93-48zm40-86 466-565c12-14 35-14 46 1l327 413 196-246c12-15 35-15 47 0l349 439c3-5 4-11 4-18v-916c0-26-23-50-50-50h-1332c-29 0-53 23-53 50zm1380 74-321-405-182 228 140 177zm-440 0-452-572-77 94 356 478zm-1000-150v-816c0-60 51-110 113-110h1232v-40c0-27-24-49-53-49h-1332c-27 0-50 23-50 49v916c0 27 23 50 50 50zm942-413c-97 0-173-76-173-173s76-173 173-173 173 76 173 173-76 173-173 173zm0-286c-64 0-113 50-113 113 0 64 49 113 113 113s113-49 113-113c0-63-49-113-113-113z" fill="#fff"/></g></svg>