<svg clip-rule="evenodd" fill-rule="evenodd" height="2.667in" image-rendering="optimizeQuality" shape-rendering="geometricPrecision" text-rendering="geometricPrecision" viewBox="0 0 2667 2667" width="2.667in" xmlns="http://www.w3.org/2000/svg"><g id="Layer_x0020_1"><circle cx="1333" cy="1333" fill="#00ab94" r="1333"/><path d="m1582 2073h-500c-39 0-39-60 0-60h500c39 0 39 60 0 60zm67 113h-633c-33 0-60-27-60-60v-480h-87c-16 0-30-13-30-30v-349c0-17 14-30 30-30h87v-177c0-33 27-60 60-60h36v-406c0-64 50-113 114-113 63 0 113 49 113 113v406h93v-93c0-17 13-30 30-30h180c17 0 30 13 30 30v93h37c33 0 59 27 59 60v74h89c17 0 30 13 30 29v217c0 17-13 30-30 30h-89v67h89c17 0 30 13 30 30v216c0 17-13 30-30 30h-89v373c0 33-26 60-59 60zm-693-600v-289h-57v289zm476-586h120v-63h-120zm-416 60v195c1 4 2 8 2 12v349c0 4-1 8-2 12v498h633v-1066zm96-60h107v-406c0-70-107-70-107 0zm596 350h59v-157h-59zm0 343h59v-157h-59zm-143-163h-466c-26 0-47-20-47-43v-330c0-24 21-43 47-43h466c26 0 47 19 47 43v330c0 23-21 43-47 43zm-453-60h440v-297h-440zm470 196h-500c-39 0-39-60 0-60h500c39 0 39 60 0 60zm0 137h-500c-39 0-39-60 0-60h500c39 0 39 60 0 60zm0 133h-500c-39 0-39-60 0-60h500c39 0 39 60 0 60z" fill="#fff"/></g></svg>