<?xml version="1.0" encoding="iso-8859-1"?>
<!-- Generator: Adobe Illustrator 19.0.0, SVG Export Plug-In . SVG Version: 6.00 Build 0)  -->
<svg xmlns="http://www.w3.org/2000/svg" xmlns:xlink="http://www.w3.org/1999/xlink" version="1.1" id="Layer_1" x="0px" y="0px" viewBox="0 0 512 512" style="enable-background:new 0 0 512 512;" xml:space="preserve" width="512" height="512">
<g>
	<path style="fill:#FFF5F5;" d="M362,45v362c0,24.901-20.099,45-45,45c-19.501,0-54.6-12.599-68.699-30H60V30h188.301   C262.4,12.599,297.499,0,317,0C341.901,0,362,20.099,362,45z"/>
	<path style="fill:#EFE2DD;" d="M362,45v362c0,24.901-20.099,45-45,45c-19.501,0-54.6-12.599-68.699-30H196V30h52.301   C262.4,12.599,297.499,0,317,0C341.901,0,362,20.099,362,45z"/>
	<path style="fill:#EFE2DD;" d="M317,0c-24.901,0-45,20.099-45,45v15H0V45C0,20.099,20.099,0,45,0H317z"/>
	<path style="fill:#EFE2DD;" d="M317,452H45c-24.901,0-45-20.099-45-45v-15h272v15C272,431.901,292.099,452,317,452z"/>
	<rect x="120" y="122" style="fill:#EFE2DD;" width="152" height="30"/>
	<rect x="120" y="182" style="fill:#EFE2DD;" width="152" height="30"/>
	<rect x="120" y="242" style="fill:#EFE2DD;" width="152" height="30"/>
	<rect x="120" y="302" style="fill:#EFE2DD;" width="152" height="30"/>
	<rect x="196" y="122" style="fill:#CDBFBA;" width="76" height="30"/>
	<rect x="196" y="182" style="fill:#CDBFBA;" width="76" height="30"/>
	<rect x="196" y="242" style="fill:#CDBFBA;" width="76" height="30"/>
	<rect x="196" y="302" style="fill:#CDBFBA;" width="76" height="30"/>
	<path style="fill:#CDBFBA;" d="M317,452H196v-60h76v15C272,431.901,292.099,452,317,452z"/>
	<path style="fill:#CDBFBA;" d="M272,60h-76V0h121c-24.901,0-45,20.099-45,45V60z"/>
	<g>
		<rect x="302" y="212" style="fill:#61729B;" width="210" height="300"/>
		<rect x="407" y="212" style="fill:#47568C;" width="105" height="300"/>
		<rect x="332" y="332" style="fill:#FFF5F5;" width="30" height="30"/>
		<rect x="452" y="332" style="fill:#EFE2DD;" width="30" height="30"/>
		<rect x="332" y="392" style="fill:#FFF5F5;" width="30" height="30"/>
		<rect x="452" y="392" style="fill:#FF9100;" width="30" height="90"/>
		<rect x="332" y="452" style="fill:#FFF5F5;" width="30" height="30"/>
		<rect x="392" y="392" style="fill:#FFF5F5;" width="30" height="30"/>
		<rect x="332" y="242" style="fill:#7FE881;" width="150" height="60"/>
		<rect x="392" y="332" style="fill:#FFF5F5;" width="30" height="30"/>
		<rect x="392" y="452" style="fill:#FFF5F5;" width="30" height="30"/>
		<rect x="407" y="332" style="fill:#EFE2DD;" width="15" height="30"/>
		<rect x="407" y="392" style="fill:#EFE2DD;" width="15" height="30"/>
		<rect x="407" y="452" style="fill:#EFE2DD;" width="15" height="30"/>
		<rect x="407" y="242" style="fill:#5BC980;" width="75" height="60"/>
	</g>
</g>















</svg>
