<?xml version="1.0" encoding="iso-8859-1"?>
<!-- Generator: Adobe Illustrator 19.0.0, SVG Export Plug-In . SVG Version: 6.00 Build 0)  -->
<svg xmlns="http://www.w3.org/2000/svg" xmlns:xlink="http://www.w3.org/1999/xlink" version="1.1" id="Layer_1" x="0px" y="0px" viewBox="0 0 512 512" style="enable-background:new 0 0 512 512;" xml:space="preserve" width="512" height="512">
<g>
	<polygon style="fill:#FF9100;" points="512,256 471,226 331,226 256,256 226,291 226,458.5 256,512 512,512  "/>
	<polygon style="fill:#47568C;" points="512,256 512,0 256,0 226,61 226,218.5 256,256  "/>
	<polygon style="fill:#47568C;" points="256,512 256,256 226,226 72.367,226 0,256 0,512  "/>
	<rect style="fill:#61729B;" width="256" height="256"/>
	<rect x="113" y="53" style="fill:#FFF5F5;" width="30" height="150"/>
	<rect x="53" y="113" style="fill:#FFF5F5;" width="150" height="30"/>
	<polygon style="fill:#FFF5F5;" points="191.633,341.578 170.422,320.367 128,362.789 85.578,320.367 64.367,341.578 106.789,384    64.367,426.422 85.578,447.633 128,405.211 170.422,447.633 191.633,426.422 149.211,384  "/>
	<rect x="309" y="113" style="fill:#EFE2DD;" width="150" height="30"/>
	<rect x="309" y="369" style="fill:#EFE2DD;" width="150" height="30"/>
	<rect x="369" y="309" style="fill:#EFE2DD;" width="30" height="30"/>
	<rect x="369" y="429" style="fill:#EFE2DD;" width="30" height="30"/>
</g>















</svg>
