<?xml version="1.0" encoding="iso-8859-1"?>
<!-- Generator: Adobe Illustrator 19.0.0, SVG Export Plug-In . SVG Version: 6.00 Build 0)  -->
<svg xmlns="http://www.w3.org/2000/svg" xmlns:xlink="http://www.w3.org/1999/xlink" version="1.1" id="Layer_1" x="0px" y="0px" viewBox="0 0 512 512" style="enable-background:new 0 0 512 512;" xml:space="preserve" width="512" height="512">
<g>
	<path style="fill:#FF9100;" d="M482,128h-31V60h-67V30c0-16.569-13.431-30-30-30s-30,13.431-30,30v30h-68l-59.5,30v136l59.5,30   l33.75,30h127.5L451,256v-68h31c16.569,0,30-13.433,30-30C512,141.431,498.569,128,482,128z"/>
	<path style="fill:#7FE881;" d="M189,60V30c0-16.569-13.431-30-30-30s-30,13.431-30,30v30H61v68H30c-16.569,0-30,13.431-30,30   c0,16.567,13.431,30,30,30h31v68h68v-45c0-16.569,13.431-30,30-30s30,13.431,30,30v45h67V60H189z"/>
	<path style="fill:#FDBF00;" d="M482,323h-31v-67H256v67h30c16.569,0,30,13.431,30,30c0,16.567-13.431,30-30,30h-30v68h68v31   c0,16.567,13.431,30,30,30s30-13.433,30-30v-31h67v-68h31c16.569,0,30-13.433,30-30C512,336.431,498.569,323,482,323z"/>
</g>















</svg>
