<?xml version="1.0" encoding="iso-8859-1"?>
<!-- Generator: Adobe Illustrator 19.0.0, SVG Export Plug-In . SVG Version: 6.00 Build 0)  -->
<svg xmlns="http://www.w3.org/2000/svg" xmlns:xlink="http://www.w3.org/1999/xlink" version="1.1" id="Layer_1" x="0px" y="0px" viewBox="0 0 512 512" style="enable-background:new 0 0 512 512;" xml:space="preserve" width="512" height="512">
<g>
	<path style="fill:#EFE2DD;" d="M387.048,338.297L250.344,472.544c-52.608,52.608-138.311,52.608-190.919,0   c-7.213-7.213-13.575-15.274-18.668-23.759c-32.88-51.973-26.729-121.764,18.668-167.16L312.802,30.706   c40.941-40.941,107.551-40.941,148.492,0s40.941,107.551,0,148.492L210.251,427.784c-27.152,27.152-69.579,31.394-98.853,10.605   c-11.879-8.909-21.001-20.576-26.092-34.153c-2.758-6.575-4.455-13.788-5.091-21.213c-1.91-21.849,6.151-43.487,21.637-58.972   l221.556-219.099l21.213,21.213L123.065,345.265c-9.122,9.122-13.788,21.424-12.94,34.153v1.274   c1.06,13.363,7.636,25.03,18.88,33.304c17.395,12.304,43.274,9.334,60.032-7.424l251.043-248.586   c29.274-29.274,29.274-76.792,0-106.066s-76.792-29.274-106.066,0L80.639,302.838c-33.516,33.516-39.456,84.428-18.031,124.097   c4.666,8.91,10.607,16.972,18.031,24.396c40.941,40.941,107.551,40.941,148.492,0l136.703-134.246L387.048,338.297z"/>
	<path style="fill:#CDBFBA;" d="M461.294,179.198L210.251,427.784c-27.152,27.152-69.579,31.394-98.853,10.605   c-11.879-8.909-21.001-20.576-26.092-34.153l24.819-24.819v1.274c1.06,13.363,7.636,25.03,18.88,33.304   c17.395,12.304,43.274,9.334,60.032-7.424l251.043-248.586c29.274-29.274,29.274-76.792,0-106.066l21.213-21.213   C502.235,71.647,502.235,138.257,461.294,179.198z"/>
	<path style="fill:#CDBFBA;" d="M387.048,338.297L250.344,472.544c-52.608,52.608-138.311,52.608-190.919,0   c-7.213-7.213-13.575-15.274-18.668-23.759l21.85-21.85c4.666,8.91,10.607,16.972,18.031,24.396   c40.941,40.941,107.551,40.941,148.492,0l136.703-134.246L387.048,338.297z"/>
</g>















</svg>
