<?xml version="1.0" encoding="iso-8859-1"?>
<!-- Generator: Adobe Illustrator 19.0.0, SVG Export Plug-In . SVG Version: 6.00 Build 0)  -->
<svg xmlns="http://www.w3.org/2000/svg" xmlns:xlink="http://www.w3.org/1999/xlink" version="1.1" id="Layer_1" x="0px" y="0px" viewBox="0 0 512 512" style="enable-background:new 0 0 512 512;" xml:space="preserve" width="512" height="512">
<g>
	<path style="fill:#61729B;" d="M265.3,60l-30-60H30v332h452V60H265.3z"/>
	<polygon style="fill:#47568C;" points="482,60 482,332 256,332 256,41.4 265.3,60  "/>
	<rect x="90" y="120" style="fill:#FFF5F5;" width="332" height="182"/>
	<rect x="256" y="120" style="fill:#EFE2DD;" width="166" height="182"/>
	<path style="fill:#FFDA2D;" d="M306.7,182l-30,60H0l31.8,270h448.7L512,182H306.7z"/>
	<polygon style="fill:#FDBF00;" points="512,182 480.5,512 256,512 256,242 276.7,242 306.7,182  "/>
	<rect x="331" y="362" style="fill:#47568C;" width="91" height="30"/>
	<rect x="331" y="422" style="fill:#47568C;" width="91" height="30"/>
</g>















</svg>
