<?xml version="1.0" encoding="iso-8859-1"?>
<!-- Generator: Adobe Illustrator 19.0.0, SVG Export Plug-In . SVG Version: 6.00 Build 0)  -->
<svg xmlns="http://www.w3.org/2000/svg" xmlns:xlink="http://www.w3.org/1999/xlink" version="1.1" id="Layer_1" x="0px" y="0px" viewBox="0 0 512 512" style="enable-background:new 0 0 512 512;" xml:space="preserve" width="512" height="512">
<g>
	<polygon style="fill:#FFF5F5;" points="512,151 512,512 90,512 90,482 90,189.403 120,151 150,121 482,121  "/>
	<polygon style="fill:#EFE2DD;" points="512,151 512,512 256,512 256,121 482,121  "/>
	<polygon style="fill:#61729B;" points="120,512 0,512 0,451 60,421 120,451  "/>
	<polygon style="fill:#FF9100;" points="120,451 0,451 0,391 60,361 120,391  "/>
	<polygon style="fill:#FFDA2D;" points="120,391 0,391 0,331 60,301 120,331  "/>
	<polygon style="fill:#7FE881;" points="120,331 0,331 0,271 60,241 120,271  "/>
	<polygon style="fill:#25D9F8;" points="120,271 0,271 0,211 60,181 120,211  "/>
	<polygon style="fill:#FCCED3;" points="120,211 0,211 0,151 60,121 120,151  "/>
	<rect style="fill:#61729B;" width="512" height="151"/>
	<rect x="256" style="fill:#47568C;" width="256" height="151"/>
	<rect x="60" y="61" style="fill:#25D9F8;" width="30" height="30"/>
	<rect x="120" y="61" style="fill:#25D9F8;" width="30" height="30"/>
	<rect x="181" y="61" style="fill:#25D9F8;" width="30" height="30"/>
	<rect x="286" y="61" style="fill:#2C3B73;" width="181" height="30"/>
	<polygon style="fill:#61729B;" points="361,256 361,226 256,226 334.6,331 256,436 361,436 361,406 391,406 391,466 196,466    256,386.199 297.4,331 256,275.799 196,196 391,196 391,256  "/>
	<polygon style="fill:#47568C;" points="334.6,331 256,436 256,386.199 297.4,331 256,275.799 256,226  "/>
	<polygon style="fill:#47568C;" points="361,256 361,226 256,226 256,196 391,196 391,256  "/>
	<polygon style="fill:#47568C;" points="256,466 256,436 361,436 361,406 391,406 391,466  "/>
</g>















</svg>
