<?xml version="1.0" encoding="iso-8859-1"?>
<!-- Generator: Adobe Illustrator 19.0.0, SVG Export Plug-In . SVG Version: 6.00 Build 0)  -->
<svg xmlns="http://www.w3.org/2000/svg" xmlns:xlink="http://www.w3.org/1999/xlink" version="1.1" id="Layer_1" x="0px" y="0px" viewBox="0 0 512 512" style="enable-background:new 0 0 512 512;" xml:space="preserve" width="512" height="512">
<g>
	<path style="fill:#FF9100;" d="M181,31v210h160.499l4.501,2.999L451,313.9V241h61V31H181z"/>
	<polygon style="fill:#FF641A;" points="512,31 512,241 451,241 451,313.9 346,243.999 346,31  "/>
	<path style="fill:#FFDA2D;" d="M31,91v210h90v72.9l75-49.801L230.501,301H361V91H31z"/>
	<polygon style="fill:#FDBF00;" points="361,91 361,301 230.501,301 196,324.099 196,91  "/>
	<rect x="121" y="181" style="fill:#61729B;" width="30" height="30"/>
	<rect x="181" y="181" style="fill:#61729B;" width="30" height="30"/>
	<rect x="241" y="181" style="fill:#47568C;" width="30" height="30"/>
	<polygon style="fill:#61729B;" points="91,436 61,481 0,481 0,391 61,391  "/>
	<polygon style="fill:#47568C;" points="0,436 91,436 61,481 0,481  "/>
	<polygon style="fill:#FDE4E4;" points="481,436 361,481 331,436 361,391  "/>
	<rect x="61" y="391" style="fill:#25D9F8;" width="300" height="90"/>
	<polygon style="fill:#FCCED3;" points="481,436 361,481 331,436  "/>
	<rect x="61" y="436" style="fill:#00C0F1;" width="300" height="45"/>
	<rect x="196" y="181" style="fill:#47568C;" width="15" height="30"/>
</g>















</svg>
