<?xml version="1.0" encoding="iso-8859-1"?>
<!-- Generator: Adobe Illustrator 19.0.0, SVG Export Plug-In . SVG Version: 6.00 Build 0)  -->
<svg xmlns="http://www.w3.org/2000/svg" xmlns:xlink="http://www.w3.org/1999/xlink" version="1.1" id="Layer_1" x="0px" y="0px" viewBox="0 0 512 512" style="enable-background:new 0 0 512 512;" xml:space="preserve" width="512" height="512">
<g>
	<polygon style="fill:#47568C;" points="362,0 362,105 332,105 332,30 181,30 181,105 151,105 151,0  "/>
	<polygon style="fill:#2C3B73;" points="362,0 362,105 332,105 332,30 256,30 256,0  "/>
	<polygon style="fill:#47568C;" points="482,242 482,392 362,512 151,512 30,392 30,242  "/>
	<polygon style="fill:#2C3B73;" points="482,242 482,392 362,512 256,512 256,242  "/>
	<path style="fill:#61729B;" d="M512,90v167c0,24.899-20.099,45-45,45H45c-24.901,0-45-20.101-45-45V90H512z"/>
	<path style="fill:#47568C;" d="M512,90v167c0,24.899-20.099,45-45,45H256V90H512z"/>
	<path style="fill:#47568C;" d="M482,392h-15c-57.99,0-105,47.01-105,105v15h120V392z"/>
	<path style="fill:#61729B;" d="M45,392H30v120h121v-15C151,439.01,102.99,392,45,392z"/>
	<rect x="181" y="272" style="fill:#FFDA2D;" width="151" height="60"/>
	<rect x="256" y="272" style="fill:#FDBF00;" width="76" height="60"/>
</g>















</svg>
