<?xml version="1.0" encoding="iso-8859-1"?>
<!-- Generator: Adobe Illustrator 19.0.0, SVG Export Plug-In . SVG Version: 6.00 Build 0)  -->
<svg xmlns="http://www.w3.org/2000/svg" xmlns:xlink="http://www.w3.org/1999/xlink" version="1.1" id="Layer_1" x="0px" y="0px" viewBox="0 0 512 512" style="enable-background:new 0 0 512 512;" xml:space="preserve" width="512" height="512">
<g>
	<polygon style="fill:#25D9F8;" points="512,121 512,451 0,451 0,121 31,91 482,91  "/>
	<polygon style="fill:#00C0F1;" points="512,121 512,451 256,451 256,91 482,91  "/>
	<path style="fill:#FFF5F5;" d="M136,181c-57.9,0-105,47.1-105,105s47.1,105,105,105s105-47.1,105-105S193.9,181,136,181z"/>
	<path style="fill:#EFE2DD;" d="M241,286c0,57.9-47.1,105-105,105V181C193.9,181,241,228.1,241,286z"/>
	<path style="fill:#25D9F8;" d="M211,286c0,41.4-33.6,75-75,75s-75-33.6-75-75s33.6-75,75-75S211,244.6,211,286z"/>
	<path style="fill:#00C0F1;" d="M211,286c0,41.4-33.6,75-75,75V211C177.4,211,211,244.6,211,286z"/>
	<rect x="301" y="301" style="fill:#EFE2DD;" width="150" height="30"/>
	<rect x="301" y="361" style="fill:#EFE2DD;" width="150" height="30"/>
	<path style="fill:#FFF5F5;" d="M136,181c-31.199,0-45,52.8-45,105s13.801,105,45,105s45-52.8,45-105S167.199,181,136,181z    M136,359.5c-5.7-6.901-15-32.1-15-73.5s9.3-66.601,15-73.5c5.7,6.899,15,32.1,15,73.5S141.7,352.599,136,359.5z"/>
	<rect x="46" y="271" style="fill:#FFF5F5;" width="180" height="30"/>
	<rect x="301" y="241" style="fill:#EFE2DD;" width="30" height="30"/>
	<rect x="361" y="241" style="fill:#EFE2DD;" width="30" height="30"/>
	<rect x="421" y="241" style="fill:#EFE2DD;" width="30" height="30"/>
	<path style="fill:#EFE2DD;" d="M181,286c0,52.2-13.801,105-45,105v-31.5c5.7-6.901,15-32.1,15-73.5s-9.3-66.601-15-73.5V181   C167.199,181,181,233.8,181,286z"/>
	<rect x="136" y="271" style="fill:#EFE2DD;" width="90" height="30"/>
	<rect y="61" style="fill:#61729B;" width="512" height="60"/>
	<rect x="256" y="61" style="fill:#47568C;" width="256" height="60"/>
</g>















</svg>
