<?xml version="1.0" encoding="iso-8859-1"?>
<!-- Generator: Adobe Illustrator 19.0.0, SVG Export Plug-In . SVG Version: 6.00 Build 0)  -->
<svg xmlns="http://www.w3.org/2000/svg" xmlns:xlink="http://www.w3.org/1999/xlink" version="1.1" id="Layer_1" x="0px" y="0px" viewBox="0 0 512 512" style="enable-background:new 0 0 512 512;" xml:space="preserve" width="512" height="512">
<g>
	<rect x="61" y="61" style="fill:#61729B;" width="90" height="90"/>
	<rect x="361" y="61" style="fill:#47568C;" width="90" height="90"/>
	<rect x="121" style="fill:#FFF5F5;" width="270" height="151"/>
	<rect x="256" style="fill:#EFE2DD;" width="135" height="151"/>
	<polygon style="fill:#FF9100;" points="512,121 512,355.3 451,385.3 421,361 91,361 61,385.3 0,355.3 0,121  "/>
	<polygon style="fill:#FF641A;" points="512,121 512,355.3 451,385.3 421,361 256,361 256,121  "/>
	<rect x="61" y="166" style="fill:#61729B;" width="30" height="30"/>
	<rect x="121" y="166" style="fill:#61729B;" width="30" height="30"/>
	<polygon style="fill:#61729B;" points="451,241 451,385.3 439.6,391 72.4,391 61,385.3 61,241 121,241 151,271 361,271 391,241     "/>
	<polygon style="fill:#47568C;" points="451,241 451,385.3 439.6,391 256,391 256,271 361,271 391,241  "/>
	<rect x="121" y="241" style="fill:#FFF5F5;" width="270" height="271"/>
	<rect x="256" y="241" style="fill:#EFE2DD;" width="135" height="271"/>
	<polygon style="fill:#FF9100;" points="331,301 331,421 316,436 301,421 301,301  "/>
	<polygon style="fill:#7FE881;" points="211,361 211,421 196,436 181,421 181,361  "/>
	<rect x="241" y="331" style="fill:#FFDA2D;" width="30" height="105"/>
	<rect x="256" y="331" style="fill:#FDBF00;" width="15" height="105"/>
	<rect x="181" y="421" style="fill:#47568C;" width="150" height="30"/>
	<rect x="256" y="421" style="fill:#47568C;" width="75" height="30"/>
</g>















</svg>
