<?xml version="1.0" encoding="iso-8859-1"?>
<!-- Generator: Adobe Illustrator 19.0.0, SVG Export Plug-In . SVG Version: 6.00 Build 0)  -->
<svg xmlns="http://www.w3.org/2000/svg" xmlns:xlink="http://www.w3.org/1999/xlink" version="1.1" id="Layer_1" x="0px" y="0px" viewBox="0 0 512 512" style="enable-background:new 0 0 512 512;" xml:space="preserve" width="512" height="512">
<g>
	<polygon style="fill:#47568C;" points="271,61 271,391 241,422 30,422 0,391 0,61 30,30 241,30  "/>
	<polygon style="fill:#2C3B73;" points="271,61 271,391 241,422 136,422 136,30 241,30  "/>
	<rect x="30" y="91" style="fill:#25D9F8;" width="211" height="270"/>
	<rect x="136" y="91" style="fill:#00C0F1;" width="105" height="270"/>
	<rect style="fill:#EFE2DD;" width="271" height="61"/>
	<rect x="136" style="fill:#CDBFBA;" width="135" height="61"/>
	<rect y="391" style="fill:#EFE2DD;" width="271" height="121"/>
	<rect x="136" y="391" style="fill:#CDBFBA;" width="135" height="121"/>
	<g>
		<rect x="91" y="121" style="fill:#7FE881;" width="421" height="270"/>
		<rect x="301" y="121" style="fill:#5BC980;" width="211" height="270"/>
		<g>
			<path style="fill:#5BC980;" d="M436,211c-8.401,0-15-6.599-15-15v-15H181v15c0,8.401-6.599,15-15,15h-15v90h15     c8.401,0,15,6.599,15,15v15h240v-15c0-8.401,6.599-15,15-15h15v-90H436z"/>
		</g>
		<path style="fill:#00AB5E;" d="M451,211v90h-15c-8.401,0-15,6.599-15,15v15H301V181h120v15c0,8.401,6.599,15,15,15H451z"/>
		<rect x="211" y="241" style="fill:#7FE881;" width="45" height="30"/>
		<rect x="346" y="241" style="fill:#5BC980;" width="45" height="30"/>
		<path style="fill:#7FE881;" d="M301,181c-32.999,0-60,33.6-60,75s27.001,75,60,75s60-33.6,60-75S333.999,181,301,181z"/>
		<path style="fill:#5BC980;" d="M301,331V181c32.999,0,60,33.6,60,75S333.999,331,301,331z"/>
	</g>
	<rect x="121" y="437" style="fill:#FFF5F5;" width="30" height="30"/>
	<rect x="136" y="437" style="fill:#EFE2DD;" width="15" height="30"/>
</g>















</svg>
