<?xml version="1.0" encoding="iso-8859-1"?>
<!-- Generator: Adobe Illustrator 19.0.0, SVG Export Plug-In . SVG Version: 6.00 Build 0)  -->
<svg xmlns="http://www.w3.org/2000/svg" xmlns:xlink="http://www.w3.org/1999/xlink" version="1.1" id="Layer_1" x="0px" y="0px" viewBox="0 0 512 512" style="enable-background:new 0 0 512 512;" xml:space="preserve" width="512" height="512">
<g>
	<polygon style="fill:#61729B;" points="512,210 331,420 91,180 271,0  "/>
	<polygon style="fill:#47568C;" points="512,210 331,420 256,345 256,15 271,0  "/>
	<polygon style="fill:#7FE881;" points="512,300 331,482 256,418.5 0,210 181,30 256,91.5  "/>
	<polygon style="fill:#5BC980;" points="512,300 331,482 256,418.5 256,91.5  "/>
	<g>
		
			<rect x="170.948" y="113.932" transform="matrix(0.7606 0.6493 -0.6493 0.7606 128.2363 -89.8594)" style="fill:#5BC980;" width="30.007" height="30.007"/>
	</g>
	<g>
		<polygon style="fill:#5BC980;" points="233.236,189.053 210.429,169.57 229.911,146.748 252.719,166.23   "/>
	</g>
	<g>
		
			<rect x="262.193" y="191.862" transform="matrix(0.7606 0.6493 -0.6493 0.7606 200.6805 -130.4422)" style="fill:#00AB5E;" width="30.007" height="30.007"/>
	</g>
	<g>
		<polygon style="fill:#5BC980;" points="239.901,273.633 125.834,176.221 145.316,153.398 259.384,250.811   "/>
	</g>
	<g>
		<polygon style="fill:#5BC980;" points="200.937,319.263 86.869,221.851 106.352,199.028 220.419,296.44   "/>
	</g>
	<g>
		<polygon style="fill:#FDBF00;" points="0,210 0,512 166,435 196,360   "/>
		<polygon style="fill:#FF9100;" points="512,210 316,360 356.468,474.477 512,512   "/>
		<polygon style="fill:#FFDA2D;" points="512,512 0,512 196,360 316,360   "/>
		<polygon style="fill:#FDBF00;" points="512,512 256,512 256,360 316,360   "/>
	</g>
</g>















</svg>
