<?xml version="1.0" encoding="iso-8859-1"?>
<!-- Generator: Adobe Illustrator 19.0.0, SVG Export Plug-In . SVG Version: 6.00 Build 0)  -->
<svg xmlns="http://www.w3.org/2000/svg" xmlns:xlink="http://www.w3.org/1999/xlink" version="1.1" id="Layer_1" x="0px" y="0px" viewBox="0 0 512 512" style="enable-background:new 0 0 512 512;" xml:space="preserve" width="512" height="512">
<g>
	<polygon style="fill:#25D9F8;" points="466,106 496,166 406,166 376,106 406,46 496,46  "/>
	<polygon style="fill:#00C0F1;" points="496,166 406,166 376,106 466,106  "/>
	<path style="fill:#FFF5F5;" d="M346,0v482H129.699C115.6,499.399,80.501,512,61,512c-5.4,0-10.201-0.901-15-2.701   c-17.401-6-30-22.8-30-42.299V0H346z"/>
	<rect x="181" style="fill:#EFE2DD;" width="165" height="482"/>
	<rect x="76" y="181" style="fill:#EFE2DD;" width="210" height="30"/>
	<rect x="76" y="241" style="fill:#EFE2DD;" width="210" height="30"/>
	<rect x="76" y="301" style="fill:#EFE2DD;" width="210" height="30"/>
	<rect x="76" y="361" style="fill:#EFE2DD;" width="210" height="30"/>
	<rect x="181" y="181" style="fill:#CDBFBA;" width="105" height="30"/>
	<rect x="181" y="241" style="fill:#CDBFBA;" width="105" height="30"/>
	<rect x="181" y="301" style="fill:#CDBFBA;" width="105" height="30"/>
	<rect x="181" y="361" style="fill:#CDBFBA;" width="105" height="30"/>
	<path style="fill:#EFE2DD;" d="M406,452v15c0,24.899-20.099,45-45,45H61c24.901,0,45-20.101,45-45v-15H406z"/>
	<path style="fill:#CDBFBA;" d="M406,452v15c0,24.899-20.099,45-45,45H181v-60H406z"/>
	<rect x="106" y="91" style="fill:#61729B;" width="390" height="30"/>
	<rect x="106" y="106" style="fill:#47568C;" width="390" height="15"/>
	<path style="fill:#FF9100;" d="M376,106c0,16.5-13.5,30-30,30H196c-16.5,0-30-13.5-30-30s13.5-30,30-30h150   C362.5,76,376,89.5,376,106z"/>
	<path style="fill:#FF641A;" d="M166,106h210c0,16.5-13.5,30-30,30H196C179.5,136,166,122.5,166,106z"/>
</g>















</svg>
