<?xml version="1.0" encoding="iso-8859-1"?>
<!-- Generator: Adobe Illustrator 19.0.0, SVG Export Plug-In . SVG Version: 6.00 Build 0)  -->
<svg xmlns="http://www.w3.org/2000/svg" xmlns:xlink="http://www.w3.org/1999/xlink" version="1.1" id="Layer_1" x="0px" y="0px" viewBox="0 0 512 512" style="enable-background:new 0 0 512 512;" xml:space="preserve" width="512" height="512">
<g>
	<path style="fill:#CDBFBA;" d="M150,212v240c0,32.999-57.001,60-90,60c-32.119,0-60-26.092-60-60V212H150z"/>
	<path style="fill:#EFE2DD;" d="M150,452h-45c-24.853,0-45-20.147-45-45V182h90V452z"/>
	<path style="fill:#FFF5F5;" d="M512,0v437c0,41.4-34.6,75-76,75H60c32.999,0,60-27.001,60-60V0H512z"/>
	<path style="fill:#EFE2DD;" d="M512,0v437c0,41.4-34.6,75-76,75H316V0H512z"/>
	<path style="fill:#FDBF00;" d="M361,212c0,37.8-17.401,71.7-45,93.6c-20.7,16.5-46.8,26.4-75,26.4h-45v-30h45   c31.199,0,58.801-16.201,75-40.201c9.3-14.399,15-31.5,15-49.799H361z"/>
	<path style="fill:#EFE2DD;" d="M181,60v122h270V60H181z"/>
	<rect x="391" y="242" style="fill:#CDBFBA;" width="60" height="30"/>
	<rect x="391" y="302" style="fill:#CDBFBA;" width="60" height="30"/>
	<rect x="391" y="362" style="fill:#CDBFBA;" width="60" height="30"/>
	<rect x="181" y="422" style="fill:#EFE2DD;" width="270" height="30"/>
	<path style="fill:#FF9100;" d="M316,305.6v-43.801c9.3-14.399,15-31.5,15-49.799h30C361,249.8,343.599,283.7,316,305.6z"/>
	<rect x="316" y="60" style="fill:#CDBFBA;" width="135" height="122"/>
	<rect x="316" y="422" style="fill:#CDBFBA;" width="135" height="30"/>
	<polygon style="fill:#61729B;" points="361,362 361,392 181,392 181,212 211,212 211,362  "/>
	<rect x="316" y="362" style="fill:#47568C;" width="45" height="30"/>
</g>















</svg>
