<?xml version="1.0" encoding="iso-8859-1"?>
<!-- Generator: Adobe Illustrator 19.0.0, SVG Export Plug-In . SVG Version: 6.00 Build 0)  -->
<svg xmlns="http://www.w3.org/2000/svg" xmlns:xlink="http://www.w3.org/1999/xlink" version="1.1" id="Layer_1" x="0px" y="0px" viewBox="0 0 512 512" style="enable-background:new 0 0 512 512;" xml:space="preserve" width="512" height="512">
<g>
	<polygon style="fill:#61729B;" points="271,121 271,271 213.701,271 181.901,241 183.401,271 88.599,271 84.401,241 58.299,271    0,271 0,121  "/>
	<polygon style="fill:#47568C;" points="271,121 271,271 213.701,271 181.901,241 183.401,271 136,271 136,121  "/>
	<rect x="226" y="331" style="fill:#EFE2DD;" width="105" height="151"/>
	<rect x="226" y="406" style="fill:#CDBFBA;" width="105" height="76"/>
	<path style="fill:#25D9F8;" d="M38.5,301l-4.501,6C32.5,308.8,0,352,0,406s32.5,98.2,33.999,100l4.501,6H241V301H38.5z"/>
	<path style="fill:#25D9F8;" d="M479.001,307l-4.501-6H361v211h113.5l4.501-6C480.5,504.2,512,460,512,406S480.5,308.8,479.001,307z   "/>
	<rect x="391" y="196" style="fill:#FFF5F5;" width="30" height="75"/>
	<rect x="406" y="196" style="fill:#EFE2DD;" width="15" height="75"/>
	<path style="fill:#FDBF00;" d="M466,181v30H346v-30c0-22.2,12.001-41.4,30-51.599V76h60v53.401C453.999,139.6,466,158.8,466,181z"/>
	<path style="fill:#FF9100;" d="M466,181v30h-60V76h30v53.401C453.999,139.6,466,158.8,466,181z"/>
	<rect x="331" y="61" style="fill:#FF9100;" width="150" height="30"/>
	<rect x="406" y="61" style="fill:#FF641A;" width="75" height="30"/>
	<path style="fill:#00C0F1;" d="M0,406h241v106H38.5l-4.501-6C32.5,504.2,0,460,0,406z"/>
	<path style="fill:#00C0F1;" d="M512,406c0,54-31.5,98.2-32.999,100l-4.501,6H361V406H512z"/>
	<path style="fill:#EFE2DD;" d="M213.701,271h-30.3L158.2,121l-9.901-61H166c8.401,0,15-6.601,15-15c0-8.401-6.599-15-15-15h-60   c-8.401,0-15,6.599-15,15c0,8.399,6.599,15,15,15h17.701l-9.901,61L88.599,271h-30.3L83.2,121l5.7-34.3C72.4,79.799,61,63.6,61,45   c0-24.901,20.099-45,45-45h60c24.901,0,45,20.099,45,45c0,18.6-11.4,34.799-27.9,41.7l5.7,34.3L213.701,271z"/>
	<path style="fill:#CDBFBA;" d="M213.701,271h-30.3L158.2,121l-9.901-61H166c8.401,0,15-6.601,15-15c0-8.401-6.599-15-15-15h-30V0   h30c24.901,0,45,20.099,45,45c0,18.6-11.4,34.799-27.9,41.7l5.7,34.3L213.701,271z"/>
</g>















</svg>
