<?xml version="1.0" encoding="iso-8859-1"?>
<!-- Generator: Adobe Illustrator 19.0.0, SVG Export Plug-In . SVG Version: 6.00 Build 0)  -->
<svg xmlns="http://www.w3.org/2000/svg" xmlns:xlink="http://www.w3.org/1999/xlink" version="1.1" id="Layer_1" x="0px" y="0px" viewBox="0 0 511.563 511.563" style="enable-background:new 0 0 511.563 511.563;" xml:space="preserve" width="512" height="512">
<g>
	<g>
		<polygon style="fill:#FFF5F5;" points="199.899,332.664 160.9,371.964 150.401,361.463 139.599,350.663 178.899,311.663     189.4,322.163   "/>
	</g>
	<polygon style="fill:#EFE2DD;" points="199.899,332.664 160.9,371.964 150.401,361.463 189.4,322.163  "/>
	<g>
		<path style="fill:#25D9F8;" d="M129.1,318.863c0,0-125.8,125.8-129.1,129.1l63.6,63.6c0,0,125.8-125.8,129.1-129.1L129.1,318.863z    "/>
	</g>
	<path style="fill:#00C0F1;" d="M160.9,350.663l31.8,31.8c-3.3,3.3-129.1,129.1-129.1,129.1l-31.8-31.8L160.9,350.663z"/>
	<path style="fill:#61729B;" d="M454.301,57.262c-76.201-76.5-199.2-76.199-275.402,0c-76.5,76.201-76.199,199.2,0,275.402   c76.201,76.5,199.2,76.199,275.402,0C530.8,256.463,530.5,133.463,454.301,57.262z"/>
	<path style="fill:#47568C;" d="M454.301,332.664c-76.201,76.199-199.2,76.5-275.402,0L454.301,57.262   C530.5,133.463,530.8,256.463,454.301,332.664z"/>
	<path style="fill:#FFDA2D;" d="M412,99.563c-24.6-24.6-58.2-39.6-95.4-39.6c-74.399,0-135,60.601-135,135c0,37.2,15,70.8,39.6,95.4   s58.2,39.6,95.4,39.6c74.399,0,135-60.601,135-135C451.6,157.763,436.6,124.163,412,99.563z"/>
	<path style="fill:#FDBF00;" d="M451.6,194.963c0,74.399-60.601,135-135,135c-37.2,0-70.8-15-95.4-39.6L412,99.563   C436.6,124.163,451.6,157.763,451.6,194.963z"/>
	<path style="fill:#FDBF00;" d="M390.699,120.864c-18.898-19.2-45.298-30.901-74.099-30.901c-57.9,0-105,47.1-105,105   c0,28.801,11.7,55.201,30.901,74.099c18.898,19.2,45.298,30.901,74.099,30.901c57.9,0,105-47.1,105-105   C421.6,166.162,409.899,139.762,390.699,120.864z"/>
	<path style="fill:#FF9100;" d="M421.6,194.963c0,57.9-47.1,105-105,105c-28.801,0-55.201-11.7-74.099-30.901l148.198-148.198   C409.899,139.762,421.6,166.162,421.6,194.963z"/>
	<polygon style="fill:#FFDA2D;" points="301.6,149.963 301.6,179.963 361.6,179.963 361.6,269.963 331.6,269.963 331.6,314.963    301.6,314.963 301.6,269.963 271.6,269.963 271.6,239.963 331.6,239.963 331.6,209.963 271.6,209.963 271.6,119.963 301.6,119.963    301.6,74.963 331.6,74.963 331.6,119.963 361.6,119.963 361.6,149.963  "/>
	<polygon style="fill:#FDBF00;" points="361.6,179.963 361.6,269.963 331.6,269.963 331.6,314.963 301.6,314.963 301.6,269.963    271.6,269.963 271.6,239.963 331.6,239.963 331.6,209.963 301.6,209.963 331.6,179.963  "/>
</g>















</svg>
