<?xml version="1.0" encoding="iso-8859-1"?>
<!-- Generator: Adobe Illustrator 19.0.0, SVG Export Plug-In . SVG Version: 6.00 Build 0)  -->
<svg xmlns="http://www.w3.org/2000/svg" xmlns:xlink="http://www.w3.org/1999/xlink" version="1.1" id="Layer_1" x="0px" y="0px" viewBox="0 0 512 512" style="enable-background:new 0 0 512 512;" xml:space="preserve" width="512" height="512">
<g>
	<polygon style="fill:#47568C;" points="421,60 391,92 391,482 421,512 481,512 481,60  "/>
	<polygon style="fill:#00C0F1;" points="421,512 241,512 241,92 361,60 421,60  "/>
	<polygon style="fill:#FFF5F5;" points="361,60 361,392 271,452 241,512 31,512 31,60 91,60 105.399,45 121,60  "/>
	<polygon style="fill:#EFE2DD;" points="361,60 361,392 271,452 241,512 196,512 196,60  "/>
	<path style="fill:none;" d="M136,30c-8.276,0-15,6.724-15,15v15h30V45C151,36.724,144.276,30,136,30z"/>
	<rect x="91" y="212" style="fill:#EFE2DD;" width="210" height="30"/>
	<rect x="181" y="152" style="fill:#EFE2DD;" width="120" height="30"/>
	<rect x="91" y="272" style="fill:#EFE2DD;" width="210" height="30"/>
	<rect x="91" y="332" style="fill:#EFE2DD;" width="210" height="30"/>
	<rect x="91" y="392" style="fill:#EFE2DD;" width="165" height="30"/>
	<rect x="196" y="392" style="fill:#CDBFBA;" width="60" height="30"/>
	<rect x="196" y="152" style="fill:#CDBFBA;" width="105" height="30"/>
	<rect x="196" y="212" style="fill:#CDBFBA;" width="105" height="30"/>
	<rect x="196" y="272" style="fill:#CDBFBA;" width="105" height="30"/>
	<rect x="196" y="332" style="fill:#CDBFBA;" width="105" height="30"/>
	<polygon style="fill:#CDBFBA;" points="361,392 241,512 241,392  "/>
	<path style="fill:#61729B;" d="M136,0c-24.814,0-45,20.186-45,45v15h30V45c0-8.276,6.724-15,15-15s15,6.724,15,15v15v47   c0,8.276-6.724,15-15,15s-15-6.724-15-15H91c0,24.814,20.186,45,45,45s45-20.186,45-45V60V45C181,20.186,160.814,0,136,0z"/>
</g>















</svg>
