<?xml version="1.0" encoding="iso-8859-1"?>
<!-- Generator: Adobe Illustrator 19.0.0, SVG Export Plug-In . SVG Version: 6.00 Build 0)  -->
<svg xmlns="http://www.w3.org/2000/svg" xmlns:xlink="http://www.w3.org/1999/xlink" version="1.1" id="Layer_1" x="0px" y="0px" viewBox="0 0 512 512" style="enable-background:new 0 0 512 512;" xml:space="preserve" width="512" height="512">
<g>
	<rect x="91" y="121" style="fill:#B9ACAC;" width="330" height="301"/>
	<rect x="256" y="121" style="fill:#9E9797;" width="165" height="301"/>
	<rect x="61" y="121" style="fill:#EFE2DD;" width="60" height="301"/>
	<rect x="181" y="241" style="fill:#61729B;" width="150" height="181"/>
	<rect x="256" y="241" style="fill:#47568C;" width="75" height="181"/>
	<rect x="391" y="121" style="fill:#CDBFBA;" width="60" height="301"/>
	<path style="fill:#FFF5F5;" d="M256,0L31,96.099V151h450V96.099L256,0z"/>
	<polygon style="fill:#EFE2DD;" points="481,96.099 481,151 256,151 256,0  "/>
	<rect x="211" y="271" style="fill:#25D9F8;" width="30" height="151"/>
	<rect x="271" y="271" style="fill:#00C0F1;" width="30" height="151"/>
	<rect x="241" y="76" style="fill:#EFE2DD;" width="30" height="30"/>
	<rect x="301" y="76" style="fill:#CDBFBA;" width="30" height="30"/>
	<rect x="181" y="76" style="fill:#EFE2DD;" width="30" height="30"/>
	<rect x="256" y="76" style="fill:#CDBFBA;" width="15" height="30"/>
	<polygon style="fill:#B9ACAC;" points="482,452 482,392 331,392 316.937,423.875 361,452 428.5,482  "/>
	<polygon style="fill:#CDBFBA;" points="181,392 30,392 30,452 151,452 195.625,422.75  "/>
	<polygon style="fill:#EFE2DD;" points="361,452 256,478.4 241,482 151,452 181,392 331,392  "/>
	<polygon style="fill:#CDBFBA;" points="331,392 361,452 256,478.4 256,392  "/>
	<polygon style="fill:#CDBFBA;" points="482,452 361,452 346,482 391,512 512,512 512,452  "/>
	<polygon style="fill:#EFE2DD;" points="30,452 0,452 0,512 121,512 166,482 151,452  "/>
	<polygon style="fill:#FFF5F5;" points="391,512 121,512 151,452 361,452  "/>
	<polygon style="fill:#EFE2DD;" points="361,452 391,512 256,512 256,452  "/>
</g>















</svg>
