<?xml version="1.0" encoding="iso-8859-1"?>
<!-- Generator: Adobe Illustrator 19.0.0, SVG Export Plug-In . SVG Version: 6.00 Build 0)  -->
<svg xmlns="http://www.w3.org/2000/svg" xmlns:xlink="http://www.w3.org/1999/xlink" version="1.1" id="Layer_1" x="0px" y="0px" viewBox="0 0 512 512" style="enable-background:new 0 0 512 512;" xml:space="preserve" width="512" height="512">
<g>
	<polygon style="fill:#EFE2DD;" points="451,0 451,482 391,482 391,512 331,512 331,482 181,482 181,512 121,512 121,482 61,482    61,331 91,301 61,271 61,211 91,181 61,151 61,0  "/>
	<polygon style="fill:#CDBFBA;" points="451,0 451,482 391,482 391,512 331,512 331,482 256,482 256,0  "/>
	<polygon style="fill:#61729B;" points="391,60 391,422 121,422 121,331 61,331 61,271 121,271 121,211 61,211 61,151 121,151    121,60  "/>
	<rect x="256" y="60" style="fill:#47568C;" width="135" height="362"/>
	<path style="fill:#25D9F8;" d="M181,121v90h150v-90H181z"/>
	<rect x="241" y="241" style="fill:#FFF5F5;" width="30" height="30"/>
	<rect x="181" y="241" style="fill:#FFF5F5;" width="30" height="30"/>
	<rect x="301" y="241" style="fill:#EFE2DD;" width="30" height="30"/>
	<rect x="241" y="301" style="fill:#FFF5F5;" width="30" height="30"/>
	<rect x="181" y="301" style="fill:#FFF5F5;" width="30" height="30"/>
	<rect x="301" y="301" style="fill:#EFE2DD;" width="30" height="30"/>
	<rect x="256" y="241" style="fill:#EFE2DD;" width="15" height="30"/>
	<rect x="256" y="301" style="fill:#EFE2DD;" width="15" height="30"/>
	<rect x="256" y="121" style="fill:#00C0F1;" width="75" height="90"/>
</g>















</svg>
