<?xml version="1.0" encoding="iso-8859-1"?>
<!-- Generator: Adobe Illustrator 19.0.0, SVG Export Plug-In . SVG Version: 6.00 Build 0)  -->
<svg xmlns="http://www.w3.org/2000/svg" xmlns:xlink="http://www.w3.org/1999/xlink" version="1.1" id="Layer_1" x="0px" y="0px" viewBox="0 0 512 512" style="enable-background:new 0 0 512 512;" xml:space="preserve" width="512" height="512">
<g>
	<path style="fill:#FFF5F5;" d="M452,61v330l-226,30L0,391V61h181c24.901,0,45,20.099,45,45c0-24.901,21.099-45,46-45H452z"/>
	<path style="fill:#EFE2DD;" d="M452,61v330l-226,30V106c0-24.901,21.099-45,46-45H452z"/>
	<path style="fill:#61729B;" d="M196,451H0v-60h196c16.569,0,30,13.431,30,30v0C226,437.569,212.569,451,196,451z"/>
	<path style="fill:#47568C;" d="M256,391h196v60H256c-16.569,0-30-13.431-30-30v0C226,404.431,239.431,391,256,391z"/>
	<polygon style="fill:#00C0F1;" points="488.563,388 421.502,305.658 444.939,286.908 512,369.25  "/>
	<rect x="60" y="121" style="fill:#EFE2DD;" width="121" height="30"/>
	<rect x="60" y="181" style="fill:#EFE2DD;" width="121" height="30"/>
	<rect x="60" y="241" style="fill:#EFE2DD;" width="121" height="30"/>
	<rect x="60" y="301" style="fill:#EFE2DD;" width="121" height="30"/>
	<path style="fill:#47568C;" d="M377,331c-57.891,0-105-47.109-105-105s47.109-105,105-105s105,47.109,105,105S434.891,331,377,331z   "/>
	<path style="fill:#EFE2DD;" d="M377,151c-41.353,0-75,33.647-75,75s33.647,75,75,75s75-33.647,75-75S418.353,151,377,151z"/>
</g>















</svg>
