<?xml version="1.0" encoding="iso-8859-1"?>
<!-- Generator: Adobe Illustrator 19.0.0, SVG Export Plug-In . SVG Version: 6.00 Build 0)  -->
<svg xmlns="http://www.w3.org/2000/svg" xmlns:xlink="http://www.w3.org/1999/xlink" version="1.1" id="Layer_1" x="0px" y="0px" viewBox="0 0 512 512" style="enable-background:new 0 0 512 512;" xml:space="preserve" width="512" height="512">
<g>
	<polygon style="fill:#47568C;" points="512,0 512,330 482,361 30,361 0,330 0,0  "/>
	<polygon style="fill:#2C3B73;" points="512,0 512,330 482,361 256,361 256,0  "/>
	<rect x="30" y="30" style="fill:#FFDA2D;" width="452" height="270"/>
	<rect x="256" y="30" style="fill:#FDBF00;" width="226" height="270"/>
	<rect x="181" y="361" style="fill:#EFE2DD;" width="150" height="121"/>
	<rect x="256" y="361" style="fill:#CDBFBA;" width="75" height="121"/>
	<rect y="330" style="fill:#FFF5F5;" width="512" height="61"/>
	<rect x="256" y="330" style="fill:#EFE2DD;" width="256" height="61"/>
	<rect x="121" y="451" style="fill:#FFF5F5;" width="270" height="61"/>
	<rect x="256" y="451" style="fill:#EFE2DD;" width="135" height="61"/>
	<polygon style="fill:#47568C;" points="391,150 361,150 361,90 301,90 301,60 391,60  "/>
	<polygon style="fill:#00C0F1;" points="301,255 256,255 241,202.5 256,150 301,150  "/>
	<polygon style="fill:#25D9F8;" points="211,120 256,150 256,255 211,255 196,202.5  "/>
	<polygon style="fill:#00C0F1;" points="211,255 166,255 151,210 166,165 211,120  "/>
	<polygon style="fill:#25D9F8;" points="166,255 121,255 106,187.5 121,120 166,165  "/>
	<g>
		<polygon style="fill:#61729B;" points="387.4,84.6 303.999,185.099 256,152.999 214.6,125.4 167.5,187.8 95.501,115.499     116.499,94.499 164.5,142.2 207.4,84.6 256,116.999 298.001,144.899 364.6,65.4   "/>
	</g>
	<polygon style="fill:#47568C;" points="387.4,84.6 303.999,185.099 256,152.999 256,116.999 298.001,144.899 364.6,65.4  "/>
	<polygon style="fill:#61729B;" points="421,240 421,270 91,270 91,60 121,60 121,240  "/>
	<rect x="256" y="240" style="fill:#47568C;" width="165" height="30"/>
</g>















</svg>
