<?xml version="1.0" encoding="iso-8859-1"?>
<!-- Generator: Adobe Illustrator 19.0.0, SVG Export Plug-In . SVG Version: 6.00 Build 0)  -->
<svg xmlns="http://www.w3.org/2000/svg" xmlns:xlink="http://www.w3.org/1999/xlink" version="1.1" id="Layer_1" x="0px" y="0px" viewBox="0 0 512 512" style="enable-background:new 0 0 512 512;" xml:space="preserve" width="512" height="512">
<g>
	<polygon style="fill:#CDBFBA;" points="315.165,0 250.888,60.264 271.396,112.148 420.692,121.553 439.296,97.998  "/>
	<polygon style="fill:#FFF5F5;" points="319.3,98.099 300.7,121.5 256,121.199 110.2,120.599 89.801,98.699 195.099,0 256,47.999     "/>
	<polygon style="fill:#EFE2DD;" points="319.3,98.099 300.7,121.5 256,121.199 256,47.999  "/>
	<polygon style="fill:#61729B;" points="442,165 388.9,512 123.1,512 70,165  "/>
	<polygon style="fill:#47568C;" points="442,165 388.9,512 256,512 256,165  "/>
	<polygon style="fill:#47568C;" points="411.7,165 363.1,482 148.9,482 100.3,165  "/>
	<polygon style="fill:#2C3B73;" points="411.7,165 363.1,482 256,482 256,165  "/>
	<g>
		<rect x="122.199" y="392" style="fill:#61729B;" width="267.601" height="30"/>
	</g>
	<g>
		<rect x="108.401" y="301" style="fill:#61729B;" width="295.199" height="30"/>
	</g>
	<g>
		<rect x="241" y="120" style="fill:#61729B;" width="30" height="377"/>
	</g>
	<g>
		<polygon style="fill:#61729B;" points="181.059,498.362 149.828,152.842 179.711,150.117 210.941,495.638   "/>
	</g>
	<g>
		<polygon style="fill:#47568C;" points="330.941,498.362 301.059,495.638 332.523,147.407 362.406,150.132   "/>
	</g>
	<rect x="256" y="392" style="fill:#47568C;" width="133.801" height="30"/>
	<rect x="256" y="301" style="fill:#47568C;" width="147.599" height="30"/>
	<rect x="256" y="120" style="fill:#47568C;" width="15" height="377"/>
	<path style="fill:#7FE881;" d="M31,90v136.899l20.7-8.399c20.4-8.401,43.5-6.301,61.8,6c16.199,10.8,34.799,16.199,53.101,16.199   c18.6,0,37.2-5.4,53.399-16.199c11.1-7.5,23.701-11.102,36-11.102c13.2,0,26.1,3.602,37.5,11.102   c32.401,21.599,74.099,21.599,106.5,0c18.001-12.001,40.501-14.401,60.601-6.601l20.4,7.8V90H31z"/>
	<path style="fill:#5BC980;" d="M481,90v135.7l-20.4-7.8c-20.099-7.8-42.599-5.4-60.601,6.601c-32.401,21.599-74.099,21.599-106.5,0   c-11.4-7.5-24.3-11.102-37.5-11.102V90H481z"/>
</g>















</svg>
