<?xml version="1.0" encoding="iso-8859-1"?>
<!-- Generator: Adobe Illustrator 19.0.0, SVG Export Plug-In . SVG Version: 6.00 Build 0)  -->
<svg xmlns="http://www.w3.org/2000/svg" xmlns:xlink="http://www.w3.org/1999/xlink" version="1.1" id="Layer_1" x="0px" y="0px" viewBox="0 0 512 512" style="enable-background:new 0 0 512 512;" xml:space="preserve" width="512" height="512">
<g>
	<rect style="fill:#FFF5F5;" width="512" height="451"/>
	<rect x="256" style="fill:#EFE2DD;" width="256" height="451"/>
	<path style="fill:#00C0F1;" d="M451,151H301V60h150V151z"/>
	<rect x="301" y="181" style="fill:#47568C;" width="30" height="30"/>
	<rect x="361" y="181" style="fill:#47568C;" width="30" height="30"/>
	<rect x="421" y="181" style="fill:#47568C;" width="30" height="30"/>
	<rect x="301" y="241" style="fill:#47568C;" width="30" height="30"/>
	<rect x="361" y="241" style="fill:#47568C;" width="30" height="30"/>
	<rect x="421" y="241" style="fill:#47568C;" width="30" height="30"/>
	<rect x="301" y="301" style="fill:#47568C;" width="30" height="30"/>
	<rect x="361" y="301" style="fill:#47568C;" width="30" height="30"/>
	<rect x="421" y="301" style="fill:#47568C;" width="30" height="30"/>
	<polygon style="fill:#7FE881;" points="395.2,512 116.8,512 151.601,372.4 360.399,372.4  "/>
	<polygon style="fill:#5BC980;" points="395.2,512 256,512 256,372.4 360.399,372.4  "/>
	<rect x="121" y="361" style="fill:#61729B;" width="270" height="30"/>
	<rect x="256" y="361" style="fill:#47568C;" width="135" height="30"/>
	<polygon style="fill:#25D9F8;" points="271,121 271,331 61,331 61,121 91,90 241,90  "/>
	<polygon style="fill:#00C0F1;" points="271,121 271,331 256,331 256,106  "/>
	<rect x="61" y="60" style="fill:#61729B;" width="210" height="61"/>
	<rect x="256" y="60" style="fill:#47568C;" width="15" height="61"/>
</g>















</svg>
