<svg height="2.667in" style="enable-background:new 0 0 122.88 122.88;shape-rendering:geometricPrecision;text-rendering:geometricPrecision;image-rendering:optimizeQuality;fill-rule:evenodd;clip-rule:evenodd" viewBox="0 0 2667 2667" width="2.667in" xmlns="http://www.w3.org/2000/svg"><g id="Layer_x0020_1"><circle cx="1333" cy="1333" fill="#f44c71" r="1333"/><path d="m877 2138c-3 0-6-1-9-2-7-3-12-9-14-16l-33-158h-77c-71 0-129-58-129-130v-800c0-72 58-130 129-130h135v-138c-54-11-96-59-96-116 0-66 53-119 119-119 65 0 118 53 118 119 0 57-41 106-95 116v138h820v-138c-54-11-96-59-96-116 0-66 53-119 119-119 65 0 118 53 118 119 0 57-41 106-95 116v138h131c72 0 130 58 130 130v800c0 72-58 130-130 130h-761l-272 172c-4 2-8 4-12 4zm1220-596h-18v-333h18c49 0 90 41 90 90v153c0 49-41 90-90 90zm-1509 0h-18c-50 0-90-41-90-90v-153c0-49 40-90 90-90h18zm755 117c76 0 152-13 222-40 28-11 62-26 86-44 6-4 7-12 3-17-4-6-12-8-17-3-14 9-32 18-47 25-39 19-82 32-125 41-149 30-300 2-437-62-6-3-14 0-17 6s0 14 6 17c103 48 213 77 326 77zm163-327c5 0 10-3 12-9 14-42 47-74 90-85 66-18 136 20 157 85 2 7 9 11 16 8 7-2 10-9 8-16-25-78-108-123-188-102-51 14-91 52-107 102-3 7 1 14 8 16 1 1 2 1 4 1zm-616 0c5 0 10-3 12-9 13-42 47-74 90-85 66-18 136 20 157 85 2 7 9 11 16 8 7-2 10-9 8-16-25-78-108-123-188-102-51 14-91 52-108 102-2 7 2 14 9 16 1 1 2 1 4 1zm1032 520c11 0 20-9 20-20v-800c0-11-9-20-20-20h-1178c-10 0-19 9-19 20v800c0 11 9 20 19 20zm-1172-26v-789h1167v789z" fill="#fff"/></g></svg>