<svg clip-rule="evenodd" fill-rule="evenodd" height="2.667in" image-rendering="optimizeQuality" shape-rendering="geometricPrecision" text-rendering="geometricPrecision" viewBox="0 0 2667 2667" width="2.667in" xmlns="http://www.w3.org/2000/svg"><g id="Layer_x0020_1"><circle cx="1333" cy="1333" fill="#f10" r="1333"/><path d="m1850 1771h-1034c-185 0-336-151-336-336v-203c0-186 151-337 336-337h1034c186 0 337 151 337 337v203c0 185-151 336-337 336zm-568-256c7 0 12-6 12-13v-181h70c52 0 95-43 95-95s-43-95-95-95h-82c-7 0-13 6-13 13v358c0 7 6 13 13 13zm12-219v-140h70c38 0 70 32 70 70s-32 70-70 70zm-109 219c7 0 12-6 12-13v-358c0-7-5-13-12-13-8 0-13 6-13 13v358c0 7 5 13 13 13zm-109 0c2 0 4-1 6-2 6-3 8-11 5-17l-94-163 75-71c5-4 5-12 0-18-5-5-13-5-18 0l-81 78h-1l-37 35v-213c0-7-5-13-12-13s-13 6-13 13v358c0 7 6 13 13 13s12-6 12-13v-109l43-41 91 156c2 4 6 7 11 7zm-339-180c43 0 77 34 77 77 0 42-34 76-77 76-42 0-76-34-76-76 0-7-6-13-13-13s-13 6-13 13c0 56 46 102 102 102 57 0 102-46 102-102 0-57-45-102-102-102-42 0-76-35-76-77s34-77 76-77c43 0 77 35 77 77 0 7 6 13 13 13s12-6 12-13c0-56-45-102-102-102-56 0-102 46-102 102s46 102 102 102zm1054 255c147 0 267-120 267-267s-120-267-267-267-267 120-267 267 120 267 267 267zm0-509c133 0 241 109 241 242s-108 241-241 241-242-108-242-241 109-242 242-242zm95 398c7 0 12-6 12-13v-286c0-8-5-13-12-13s-13 5-13 13v286c0 7 6 13 13 13zm-190 0c3 0 7-1 9-4l143-143c5-5 5-13 0-18l-143-143c-4-4-9-5-14-3s-8 6-8 12v286c0 5 3 10 8 12 2 1 3 1 5 1zm13-269 112 113-112 113z" fill="#fff"/></g></svg>