<svg clip-rule="evenodd" fill-rule="evenodd" height="2.667in" image-rendering="optimizeQuality" shape-rendering="geometricPrecision" text-rendering="geometricPrecision" viewBox="0 0 2667 2667" width="2.667in" xmlns="http://www.w3.org/2000/svg"><g id="Layer_x0020_1"><circle cx="1333" cy="1333" fill="#378b4e" r="1333"/><path d="m2058 2128h-280v-254h409v126c0 71-58 128-129 128zm-694-1069 211-299c-19-19-32-43-37-70-6-34 1-68 21-96s49-47 83-54c34-6 68 2 97 21 28 20 47 50 53 84 6 33-1 68-21 96-36 52-103 69-159 44l-192 274h332v1069h-1144c-70 0-128-57-128-128v-813c0-70 58-128 128-128h639l-193-274c-23 11-49 14-75 10-34-7-64-26-84-54-19-28-27-63-21-96 7-34 26-64 54-84 28-19 63-27 97-21 33 7 63 26 83 54 19 28 27 62 21 96-5 27-18 51-37 70l210 299zm618 373c67 0 121-55 121-121 0-67-54-121-121-121-66 0-120 54-120 121 0 66 54 121 120 121zm0-216c53 0 95 42 95 95 0 52-42 95-95 95-52 0-95-43-95-95 0-53 43-95 95-95zm0 537c67 0 121-54 121-121s-54-121-121-121c-66 0-120 54-120 121s54 121 120 121zm0-216c53 0 95 42 95 95s-42 95-95 95c-52 0-95-42-95-95s43-95 95-95zm109 459c7 0 13-6 13-13s-6-12-13-12h-218c-7 0-13 5-13 12s6 13 13 13zm-616-226c7 0 13-5 13-12 0-8-6-13-13-13h-148v-138h99c7 0 12-6 12-13s-5-12-12-12h-99v-138h141c8 0 13-6 13-13s-5-13-13-13h-154c-7 0-13 6-13 13v326c0 8 6 13 13 13zm-334 1c2 0 3-1 5-1 1-1 3-2 4-3 2-1 3-3 3-5 0 0 1-1 1-1l87-326c2-7-2-14-9-16s-14 2-16 9l-75 281-75-281c-2-7-9-11-15-9-7 2-11 9-9 16l87 326v1c1 2 2 4 3 5 2 1 3 2 5 3 1 0 3 1 4 1zm-174 0c7 0 13-6 13-13v-314c0-7-6-13-13-13s-12 6-12 13v314c0 7 5 13 12 13zm-85 0c7 0 12-6 12-13s-5-13-12-13h-112v-315c0-7-6-13-13-13s-12 6-12 13v328c0 7 5 13 12 13zm662 151c53 0 97-44 97-97v-462c0-54-44-97-97-97h-855c-53 0-97 43-97 97v462c0 53 44 97 97 97zm-855-631h855c39 0 71 32 71 72v462c0 39-32 71-71 71h-855c-39 0-72-32-72-71v-462c0-40 33-72 72-72zm1089-232h280c71 0 129 58 129 128v661h-409z" fill="#fff"/></g></svg>