<svg clip-rule="evenodd" fill-rule="evenodd" height="2.667in" image-rendering="optimizeQuality" shape-rendering="geometricPrecision" text-rendering="geometricPrecision" viewBox="0 0 2667 2667" width="2.667in" xmlns="http://www.w3.org/2000/svg"><g id="Layer_x0020_1"><circle cx="1333" cy="1333" fill="#00ab94" r="1333"/><path d="m926 1944v-112h511v112zm-239-892c-2 0-5 0-7-1-7-2-13-8-15-16l-25-98h-30c-13 0-23-10-23-23v-389c0-13 10-23 23-23h570c13 0 23 10 23 23v389c0 13-10 23-23 23h-347l-132 110c-4 3-9 5-14 5zm407-221c7 0 13-5 13-12s-6-13-13-13h-398c-7 0-13 6-13 13s6 12 13 12zm0-99c7 0 13-5 13-12s-6-13-13-13h-398c-7 0-13 6-13 13s6 12 13 12zm-66-99c7 0 13-5 13-13 0-7-6-12-13-12h-266c-7 0-13 5-13 12 0 8 6 13 13 13zm523 579c-3 0-5-1-7-1-8-3-13-9-15-16l-33-127h-42c-12 0-22-10-22-22v-485c0-12 10-22 22-22h710c12 0 23 10 23 22v485c0 12-11 22-23 22h-433l-166 138c-4 4-9 6-14 6zm511-281c7 0 13-5 13-12s-6-13-13-13h-503c-7 0-13 6-13 13s6 12 13 12zm0-115c7 0 13-5 13-13 0-7-6-12-13-12h-503c-7 0-13 5-13 12 0 8 6 13 13 13zm-83-115c7 0 13-6 13-13s-6-12-13-12h-337c-7 0-13 5-13 12s6 13 13 13zm-292 1464h-1011c-12 0-23-11-23-23v-149c0-12 11-22 23-22h1011c13 0 23 10 23 22v149c0 12-10 23-23 23zm173-359h-313v-70c0-137-75-261-197-324-3-2-6-2-10-1-3 1-5 3-7 6-29 58-87 94-151 94-65 0-123-36-152-94-1-3-4-5-7-6-4-1-7-1-10 1-121 63-197 187-197 324v70h-313c-13 0-23-11-23-23v-953c0-13 10-23 23-23h57v107c0 28 22 50 50 50h9l20 78c4 16 17 29 33 34 5 2 10 3 15 3 11 0 23-4 32-12l124-103h337c27 0 49-22 49-50v-107h176v239c0 27 22 49 49 49h21l28 106c4 17 16 30 32 35 5 2 10 2 16 2 11 0 22-4 31-11l158-132h143v688c0 12-10 23-23 23zm-338 0h-681v-70c0-119 62-229 164-291l8-5 6 8c36 56 96 89 163 89 66 0 127-33 163-89l5-8 8 5c102 62 164 172 164 291zm-340-421c107 0 194-87 194-194s-87-194-194-194c-108 0-195 87-195 194s87 194 195 194zm0-363c93 0 168 76 168 169s-75 169-168 169c-94 0-169-76-169-169s75-169 169-169z" fill="#fff"/></g></svg>