<svg clip-rule="evenodd" fill-rule="evenodd" height="2.667in" image-rendering="optimizeQuality" shape-rendering="geometricPrecision" text-rendering="geometricPrecision" viewBox="0 0 2667 2667" width="2.667in" xmlns="http://www.w3.org/2000/svg"><g id="Layer_x0020_1"><circle cx="1333" cy="1333" fill="#ff700d" r="1333"/><path d="m1713 2187h-740c-81 0-148-67-148-148v-59h658 378v59c0 81-67 148-148 148zm-705-946c-5 0-10-2-14-5l-101-84h-265c-12 0-22-10-22-23v-300c0-12 10-22 22-22h440c12 0 22 10 22 22v300c0 13-10 23-22 23h-19l-19 72c-2 7-8 13-15 16-2 0-5 1-7 1zm-257-197c34 0 63-29 63-63 0-35-29-63-63-63-35 0-63 28-63 63 0 34 28 63 63 63zm0-101c20 0 37 17 37 38 0 20-17 37-37 37-21 0-38-17-38-37 0-21 17-38 38-38zm194 101c35 0 63-29 63-63 0-35-28-63-63-63-34 0-63 28-63 63 0 34 29 63 63 63zm0-101c21 0 38 17 38 38 0 20-17 37-38 37-20 0-37-17-37-37 0-21 17-38 37-38zm-314 1039c-2 0-5 0-7-1-7-3-13-9-15-16l-26-103h-32c-13 0-23-10-23-23v-406c0-13 10-23 23-23h594c13 0 23 10 23 23v406c0 13-10 23-23 23h-361l-138 115c-4 3-10 5-15 5zm420-240c7 0 12-5 12-12s-5-13-12-13h-406c-7 0-12 6-12 13s5 12 12 12zm0-93c7 0 12-6 12-13s-5-13-12-13h-406c-7 0-12 6-12 13s5 13 12 13zm0-94c7 0 12-6 12-13s-5-13-12-13h-406c-7 0-12 6-12 13s5 13 12 13zm551-115c-2 0-5 0-7-1-8-3-13-9-15-16l-27-103h-32c-12 0-22-10-22-23v-406c0-13 10-23 22-23h595c13 0 23 10 23 23v406c0 13-10 23-23 23h-362l-138 115c-4 3-9 5-14 5zm427-239c7 0 13-5 13-12s-6-13-13-13h-421c-7 0-13 6-13 13s6 12 13 12zm0-95c7 0 13-6 13-13s-6-13-13-13h-421c-7 0-13 6-13 13s6 13 13 13zm-54-96c7 0 13-5 13-12s-6-13-13-13h-313c-7 0-12 6-12 13s5 12 12 12zm-1150 944v-21-45h320c28 0 50-22 50-49v-406c0-28-22-50-50-50h-320v-204h59l92 77c9 7 21 11 32 11 5 0 10 0 15-2 16-5 29-18 33-35l13-51c27-1 48-23 48-50v-300c0-27-22-49-49-49h-243v-17-55h1036v55 78h-340c-27 0-49 22-49 50v406c0 27 22 49 49 49h12l21 83c4 17 17 30 33 35 5 2 10 3 15 3 11 0 23-5 31-12l131-109h97v253h-378c-7 0-13 6-13 13v342zm1036-329v308 21h-365v-329zm-393-1031c7 0 13-6 13-13s-6-12-13-12h-250c-7 0-13 5-13 12s6 13 13 13zm-643 89v-55c0-82 67-148 148-148h740c81 0 148 66 148 148v55z" fill="#fff"/></g></svg>