<svg clip-rule="evenodd" fill-rule="evenodd" height="2.667in" image-rendering="optimizeQuality" shape-rendering="geometricPrecision" text-rendering="geometricPrecision" viewBox="0 0 2667 2667" width="2.667in" xmlns="http://www.w3.org/2000/svg"><g id="Layer_x0020_1"><circle cx="1333" cy="1333" fill="#f44c71" r="1333"/><path d="m1311 1615c-61-5-116-29-160-67l-258 264v352c0 12-10 23-22 23h-362c-12 0-23-11-23-23v-362c0-12 11-22 23-22h352l258-264c-38-44-62-99-67-160h-177c-11 96-93 170-191 170-107 0-193-86-193-193 0-106 86-192 193-192 98 0 180 74 191 170h177c5-61 29-116 66-160l-263-258h-352c-13 0-23-10-23-22v-362c0-12 10-23 23-23h361c13 0 23 11 23 23v352l263 258c44-38 100-62 161-67v-177c-96-11-170-93-170-191 0-107 86-193 192-193 107 0 193 86 193 193 0 98-74 180-170 191v177c61 5 116 29 160 66l257-263v-352c0-13 10-23 23-23h362c12 0 22 10 22 23v361c0 13-10 23-22 23h-352l-258 263c38 44 62 100 67 161h177c11-96 92-170 191-170 106 0 193 86 193 192 0 107-87 193-193 193-99 0-180-74-191-170h-177c-5 61-29 116-67 160l264 257h352c12 0 23 10 23 23v362c0 12-11 22-23 22h-362c-12 0-22-10-22-22v-352l-264-258c-44 38-99 62-160 67v177c96 11 170 92 170 191 0 106-86 193-193 193-106 0-192-87-192-193 0-99 74-180 170-191zm22-144c77 0 138-61 138-138 0-76-61-138-138-138-76 0-138 62-138 138 0 77 62 138 138 138zm0-250c63 0 113 50 113 112 0 63-50 113-113 113-62 0-112-50-112-113 0-62 50-112 112-112z" fill="#fff"/></g></svg>