<svg clip-rule="evenodd" fill-rule="evenodd" height="2.667in" image-rendering="optimizeQuality" shape-rendering="geometricPrecision" text-rendering="geometricPrecision" viewBox="0 0 2667 2667" width="2.667in" xmlns="http://www.w3.org/2000/svg"><g id="Layer_x0020_1"><circle cx="1333" cy="1333" fill="#f10" r="1333"/><path d="m1842 1474c-186 0-337-151-337-337s151-337 337-337 337 151 337 337-151 337-337 337zm-125 713h-740c-82 0-148-67-148-148v-59h658 377v59c0 81-66 148-147 148zm-53-313c7 0 13-5 13-13 0-7-6-12-13-12h-130v-109h86c7 0 13-5 13-13 0-7-6-12-13-12h-86v-109h124c7 0 13-6 13-13s-6-12-13-12h-136c-7 0-13 5-13 12v268c0 7 6 13 13 13zm-295 1c1 0 3-1 4-1 2-1 4-2 5-3s2-3 3-5v-1l77-268c2-6-2-13-8-15-7-2-14 1-16 8l-65 226-65-226c-2-6-9-10-16-8s-11 9-9 15l78 268v1c1 2 2 4 3 5s3 2 4 3c2 0 3 1 5 1zm-154-1c7 0 13-5 13-12v-258c0-7-6-13-13-13s-13 6-13 13v258c0 7 6 12 13 12zm-76 1c7 0 13-6 13-13s-6-13-13-13h-97v-257c0-7-6-12-13-12s-12 5-12 12v270c0 7 5 13 12 13zm725-1112v-55h-1035v65h392c27 0 49 22 49 50v485c0 27-22 49-49 49h-21l-27 106c-5 17-17 30-33 35-5 2-10 3-15 3-12 0-23-4-32-12l-158-132h-106v576 21h1035v-21-433c-7 0-15 1-22 1-201 0-364-164-364-364 0-201 163-364 364-364 7 0 15 0 22 1zm-392-169c7 0 13-6 13-13s-6-12-13-12h-250c-7 0-13 5-13 12s6 13 13 13zm-643 89v-55c0-82 66-148 148-148h740c81 0 147 66 147 148v55zm296 791c-6 0-11-2-15-5l-166-139h-433c-13 0-23-10-23-22v-485c0-13 10-23 23-23h710c12 0 23 10 23 23v485c0 12-11 22-23 22h-42l-32 127c-2 7-8 13-15 16-3 1-5 1-7 1zm-8-283c7 0 13-6 13-13s-6-12-13-12h-503c-7 0-13 5-13 12s6 13 13 13zm0-114c7 0 13-6 13-13s-6-13-13-13h-503c-7 0-13 6-13 13s6 13 13 13zm-65-114c7 0 13-6 13-13s-6-13-13-13h-373c-7 0-13 6-13 13s6 13 13 13zm671 362c3 0 5-1 7-2l301-175c4-2 6-7 6-11 0-5-2-9-6-11l-301-175c-4-3-9-3-13 0-4 2-6 6-6 11v350c0 5 2 9 6 11 2 1 4 2 6 2zm13-341 263 153-263 153z" fill="#fff"/></g></svg>