<svg clip-rule="evenodd" fill-rule="evenodd" height="2.667in" image-rendering="optimizeQuality" shape-rendering="geometricPrecision" text-rendering="geometricPrecision" viewBox="0 0 2667 2667" width="2.667in" xmlns="http://www.w3.org/2000/svg"><g id="Layer_x0020_1"><circle cx="1333" cy="1333" fill="#7ed63f" r="1333"/><path d="m579 1608v-648h133v132 385 131zm1486-674h-1464c-12 0-22-10-22-23v-115c0-13 10-23 22-23h1464c13 0 23 10 23 23v115c0 13-10 23-23 23zm-8 960h-1448c-71 0-129-59-129-130v-106c0-13 10-23 23-23h479l86 149c2 3 7 6 11 6h508c5 0 9-3 11-6l87-149h479c12 0 23 10 23 23v106c0 72-58 130-130 130zm-1046-259h644l-75 130h-493zm61-285v-132h493v132zm-13 26h519 85 132c7 0 13-6 13-13v-158c0-7-6-12-13-12h-132-85-519c-2 0-3 0-5 1l-188 79c-4 1-7 6-7 11s3 10 7 12l188 79h1 1v1h1 1zm617-26v-132h107v132zm-85 0v-132h59v132zm-687-66 143-60v120zm-166-324h145v119h-145zm170 0h150v119h-150zm175 0h150v119h-150zm175 0h150v119h-150zm176 0h149v119h-149zm175 0h150v119h-150zm175 0h145v119h-145zm145 145v359h-158-175-175-175-175-176-157v-359zm0 385v118h-145v-118zm-170 118h-150v-118h150zm-176 0h-149v-118h149zm-175 0h-150v-118h150zm-175 0h-150v-118h150zm-175 0h-150v-118h150zm-175 0h-145v-118h145zm1071-648h134v648h-134v-131-385z" fill="#fff"/></g></svg>