<svg clip-rule="evenodd" fill-rule="evenodd" height="2.667in" image-rendering="optimizeQuality" shape-rendering="geometricPrecision" text-rendering="geometricPrecision" viewBox="0 0 2667 2667" width="2.667in" xmlns="http://www.w3.org/2000/svg"><g id="Layer_x0020_1"><circle cx="1333" cy="1333" fill="#378b4e" r="1333"/><path d="m1333 2187c-470 0-853-383-853-854 0-470 383-853 853-853 471 0 854 383 854 853 0 471-383 854-854 854zm0-744c64 0 116-52 116-116s-52-116-116-116-116 52-116 116 52 116 116 116zm0-207c50 0 91 41 91 91s-41 90-91 90-90-40-90-90 40-91 90-91zm218 639c7 0 12-6 12-13v-125c0-7-5-13-12-13h-435c-7 0-13 6-13 13v125c0 7 6 13 13 13zm-422-26v-99h409v99zm204-176c4 0 7-1 10-4l403-428c3-3 4-9 2-13-2-5-7-8-12-8h-188v-295-1-1-118c0-7-6-13-13-13h-403c-7 0-13 6-13 13v415h-189c-5 0-9 3-11 8-2 4-1 10 2 13l403 428c2 3 6 4 9 4zm-373-428h172c7 0 13-5 13-12v-296h377v296c0 7 6 12 13 12h172l-374 397zm185-334v-94h377v94zm188 1172c413 0 750-337 750-750s-337-749-750-749-749 336-749 749 336 750 749 750zm0-1474c399 0 724 325 724 724s-325 724-724 724-724-325-724-724 325-724 724-724z" fill="#fff"/></g></svg>