<svg clip-rule="evenodd" fill-rule="evenodd" height="2.667in" image-rendering="optimizeQuality" shape-rendering="geometricPrecision" text-rendering="geometricPrecision" viewBox="0 0 2667 2667" width="2.667in" xmlns="http://www.w3.org/2000/svg"><g id="Layer_x0020_1"><circle cx="1333" cy="1333" fill="#1d81ce" r="1333"/><path d="m859 2187c-3 0-5-1-8-2-8-3-13-10-14-18l-26-202h-123c-12 0-22-10-22-23v-945c0-12 10-23 22-23h1290c13 0 23 11 23 23v945c0 13-10 23-23 23h-845l-259 216c-4 4-10 6-15 6zm474-1239c-129 0-233-105-233-234s104-234 233-234 234 105 234 234-105 234-234 234zm0-145c50 0 90-40 90-89s-40-89-90-89c-49 0-89 40-89 89s40 89 89 89zm0-153c36 0 64 29 64 64s-28 64-64 64c-35 0-63-29-63-64s28-64 63-64zm-155 273c-104-34-195-102-259-196-1-1-1-2-2-3-1-3-2-7-2-10s1-6 2-9c1-2 1-3 2-4 64-94 155-162 259-196-64 47-105 123-105 209s41 162 105 209zm310-418c104 34 196 102 260 196 0 1 1 2 2 4 1 3 2 6 2 9s-1 7-2 10c-1 1-2 2-2 3-64 94-156 162-260 196 64-47 106-123 106-209s-42-162-106-209zm-155 1250c158 0 286-128 286-285 0-158-128-286-286-286-157 0-285 128-285 286 0 157 128 285 285 285zm0-545c144 0 260 116 260 260 0 143-116 260-260 260-93 0-174-49-220-123l439-253c6-4 8-12 4-18-3-6-11-8-17-4l-439 253c-17-35-27-74-27-115 0-144 117-260 260-260zm545 645c7 0 13-6 13-13v-745c0-7-6-13-13-13h-1090c-7 0-12 6-12 13v745c0 7 5 13 12 13zm-1077-25v-720h1065v720z" fill="#fff"/></g></svg>