<svg clip-rule="evenodd" fill-rule="evenodd" height="2.667in" image-rendering="optimizeQuality" shape-rendering="geometricPrecision" text-rendering="geometricPrecision" viewBox="0 0 2667 2667" width="2.667in" xmlns="http://www.w3.org/2000/svg"><g id="Layer_x0020_1"><circle cx="1333" cy="1333" fill="#ff700d" r="1333"/><path d="m1059 1966v-129h549v129zm861-511h-1173c-13 0-23-11-23-23v-735c0-13 10-23 23-23h1173c12 0 23 10 23 23v735c0 12-11 23-23 23zm-329-101c22 0 40-18 40-40v-173c0-22-18-40-40-40h-69c-22 0-40 18-40 40v173c0 22 18 40 40 40zm-69-227h69c8 0 14 6 14 14v173c0 8-6 15-14 15h-69c-8 0-15-7-15-15v-173c0-8 7-14 15-14zm261 201v-215c0-10-12-16-20-10l-53 39c-14 9 1 30 15 20l33-24v190c-26 0-53-5-53 13 0 7 5 12 12 12h107c16 0 16-25 0-25zm-428 0v-214c0-11-12-17-21-11l-53 39c-13 10 2 30 15 21l33-24v189c-26 0-53-5-53 13 0 7 6 13 13 13h106c17 0 17-26 0-26zm-202 26c23 0 41-18 41-40v-173c0-22-18-40-41-40h-68c-22 0-40 18-40 40v173c0 22 18 40 40 40zm-68-227h68c8 0 15 6 15 14v173c0 8-7 15-15 15h-68c-8 0-15-7-15-15v-173c0-8 7-14 15-14zm-176 201v-215c0-10-12-16-20-10l-54 38c-13 10 2 31 15 21l33-24v190c-25 0-53-6-53 12 0 7 6 13 13 13h106c17 0 17-25 0-25zm874-326v-214c0-11-12-17-20-11l-53 39c-14 10 1 30 15 21l33-24v189c-26 0-53-5-53 13 0 7 5 13 12 13h107c16 0 16-26 0-26zm-214 1v-215c0-11-12-17-20-10l-53 38c-6 4-7 12-3 18 10 15 30-6 51-21v190c-26 0-54-6-54 12 0 7 6 13 13 13h106c17 0 17-25 0-25zm-214 0v-215c0-10-12-16-21-10l-53 38c-13 10 2 31 15 21l33-24v190c-26 0-53-5-53 13 0 7 6 12 13 12h106c17 0 17-25 0-25zm-202 25c23 0 41-18 41-40v-172c0-22-18-40-41-40h-68c-22 0-40 18-40 40v172c0 22 18 40 40 40zm-68-227h68c8 0 15 7 15 15v172c0 8-7 15-15 15h-68c-8 0-15-7-15-15v-172c0-8 7-15 15-15zm-176 201v-215c0-10-12-16-20-10l-54 39c-13 10 2 30 15 20l33-24v190c-25 0-53-5-53 13 0 7 6 13 13 13h106c17 0 17-26 0-26zm-185-355v-137c0-12 10-23 23-23h1173c12 0 23 11 23 23v137zm402-67c17 0 17-25 0-25h-87c-16 0-16 25 0 25zm-198 0c17 0 17-25 0-25h-87c-17 0-17 25 0 25zm886 1599h-961c-13 0-23-10-23-22v-142c0-12 10-22 23-22h961c12 0 22 10 22 22v142c0 12-10 22-22 22zm350-368h-1661c-13 0-23-10-23-23v-996c0-12 10-23 23-23h194v111h-94c-7 0-13 5-13 12v796c0 7 6 12 13 12h1461c7 0 12-5 12-12v-796c0-7-5-12-12-12h-95v-111h195c12 0 23 11 23 23v996c0 13-11 23-23 23zm-1467-906v527c0 27 22 49 50 49h1173c27 0 49-22 49-49v-527h82v770h-1435v-770z" fill="#fff"/></g></svg>