<svg clip-rule="evenodd" fill-rule="evenodd" height="2.667in" image-rendering="optimizeQuality" shape-rendering="geometricPrecision" text-rendering="geometricPrecision" viewBox="0 0 2667 2667" width="2.667in" xmlns="http://www.w3.org/2000/svg"><g id="Layer_x0020_1"><circle cx="1333" cy="1333" fill="#f10" r="1333"/><path d="m1443 1068v-236c0-130-106-236-236-236h-225c-130 0-236 106-236 236v19c5-4 10-8 14-13 23-25 38-48 52-71 27-45 53-87 131-105 15-4 33-6 52-6 17 0 33 2 49 3 15 1 29 2 43 2 16 0 30-2 42-5 18-5 37-8 55-8 97 0 176 69 204 137 28 65 30 119 33 193 1 26 2 56 5 90zm-17 198c-15 151-171 295-331 299-161-4-317-148-332-299h-101c-12 0-23-10-23-22v-153c0-13 11-23 23-23h39v-1c-35-43-49-78-45-110 3-31 22-52 45-70v-55c0-155 126-282 281-282h225c155 0 281 127 281 282v236h39c12 0 23 10 23 23v153c0 12-11 22-23 22zm-619-176v1 153c1 136 143 272 288 275 144-3 287-140 287-275v-151c-75-65-169-112-254-126-31-5-58-8-82-8-85 0-131 32-203 103-12 12-24 22-36 28zm1210 863h-95-1-1-95c-12 0-22-10-22-22 0-13 10-23 22-23h73v-147c-135-12-242-126-242-265 0-12 10-22 22-22 13 0 23 10 23 22 0 122 99 220 220 220s220-98 220-220c0-12 10-22 23-22 12 0 23 10 23 22 0 139-107 253-243 265v147h73c12 0 23 10 23 23 0 12-11 22-23 22zm-96-293c-86 0-157-67-163-151h90c7 0 13-6 13-13s-6-12-13-12h-91v-60h91c7 0 13-6 13-13s-6-12-13-12h-91v-60h91c7 0 13-6 13-13s-6-12-13-12h-90c6-85 77-151 163-151s157 66 163 151h-90c-7 0-13 5-13 12s6 13 13 13h91v60h-91c-7 0-13 5-13 12s6 13 13 13h91v60h-91c-7 0-13 5-13 12s6 13 13 13h90c-6 84-77 151-163 151zm-959-99c43 19 88 30 133 30 43 0 86-10 126-27v36c0 71-58 130-129 130-72 0-130-59-130-130zm718 555h-188v-187h210v165c0 12-10 22-22 22zm-188-213v-48c0-7-6-13-13-13s-13 6-13 13v61 200h-750v-200-61c0-7-5-13-12-13s-13 6-13 13v48h-210v-56c0-149 129-270 288-270h144c12 0 23 11 23 23 0 86 70 156 156 156s156-70 156-156c0-12 10-23 22-23h145c158 0 287 121 287 270v56zm-801 26v187h-187c-13 0-23-10-23-22v-165z" fill="#fff"/></g></svg>