<svg clip-rule="evenodd" fill-rule="evenodd" height="2.667in" image-rendering="optimizeQuality" shape-rendering="geometricPrecision" text-rendering="geometricPrecision" viewBox="0 0 2667 2667" width="2.667in" xmlns="http://www.w3.org/2000/svg"><g id="Layer_x0020_1"><circle cx="1333" cy="1333" fill="#7ed63f" r="1333"/><path d="m1333 2187c-470 0-853-383-853-854 0-470 383-853 853-853 471 0 854 383 854 853 0 471-383 854-854 854zm208-369c7 0 13-6 13-13v-109c0-7-6-13-13-13h-498c-7 0-13 6-13 13v109c0 7 6 13 13 13zm-485-26v-84h473v84zm72-185c18 0 36-7 49-21l545-545c44-44 44-115 0-159-21-22-49-33-79-33-31 0-59 11-80 33l-435 435-107-107c-21-21-49-33-79-33s-59 12-80 33c-44 44-44 116 0 160l217 216c13 14 30 21 49 21zm-186-404c23 0 45 9 61 25l116 116c5 5 13 5 18 0l444-444c16-17 38-26 62-26 23 0 45 9 61 26 34 34 34 89 0 123l-545 546c-17 16-46 16-62 0l-217-217c-34-34-34-90 0-124 16-16 38-25 62-25zm391 857c401 0 727-326 727-727 0-400-326-726-727-726-400 0-726 326-726 726 0 401 326 727 726 727zm0-1428c387 0 702 315 702 701 0 387-315 702-702 702-386 0-701-315-701-702 0-386 315-701 701-701z" fill="#fff"/></g></svg>