<svg clip-rule="evenodd" fill-rule="evenodd" height="2.667in" image-rendering="optimizeQuality" shape-rendering="geometricPrecision" text-rendering="geometricPrecision" viewBox="0 0 2667 2667" width="2.667in" xmlns="http://www.w3.org/2000/svg"><g id="Layer_x0020_1"><circle cx="1333" cy="1333" fill="#00ab94" r="1333"/><path d="m1690 2187h-1185c-12 0-22-11-22-23v-1661c0-13 10-23 22-23h1185c13 0 23 10 23 23v78h-917c-103 0-187 84-187 187v390c0 103 84 186 187 186h917v820c0 12-10 23-23 23zm334-869h-1228c-89 0-160-72-160-160v-390c0-89 71-160 160-160h1228c88 0 160 71 160 160v390c0 88-72 160-160 160zm-362-227c71 0 128-58 128-129s-57-128-128-128-129 57-129 128 58 129 129 129zm0-232c57 0 103 46 103 103s-46 104-103 104-104-47-104-104 47-103 104-103zm-603 232c71 0 128-58 128-129s-57-129-128-129-129 58-129 129 58 129 129 129zm0-232c57 0 103 46 103 103s-46 103-103 103-103-46-103-103 46-103 103-103zm422 232c7 0 12-5 12-12s-5-13-12-13h-76v-220c0-7-5-12-12-12s-13 5-13 12v233c0 7 6 12 13 12zm-153 1c7 0 12-6 12-13s-5-13-12-13h-75v-219c0-7-6-13-13-13s-13 6-13 13v232c0 7 6 13 13 13zm641-158v-1c-2-1-3-3-6-4-1 0-3-1-4-1-2 0-4 1-6 2 0 0-1 0-2 1v4l-4 1-49 104-43-196c-1-7-8-11-15-10-7 2-11 9-10 15l51 233c1 5 6 9 11 9 5 1 11-2 13-7l54-113 53 113c2 5 7 8 12 8 0 0 1 0 1-1 6 0 10-4 11-9l51-233c1-6-3-13-10-15-7-1-14 3-15 10l-43 196-49-104c0-1-1-2-1-2zm-1224 157c7 0 13-6 13-13v-120h103c7 0 13-5 13-12s-6-13-13-13h-103v-73h120c7 0 12-6 12-13s-5-12-12-12h-133c-7 0-13 5-13 12v231c0 7 6 13 13 13zm800 991c7 0 13-6 13-13s-6-12-13-12h-895c-7 0-12 5-12 12s5 13 12 13zm0-118c7 0 13-6 13-13s-6-13-13-13h-895c-7 0-12 6-12 13s5 13 12 13zm0-118c7 0 13-6 13-13s-6-13-13-13h-895c-7 0-12 6-12 13s5 13 12 13zm-173-118c7 0 13-6 13-13s-6-13-13-13h-549c-7 0-12 6-12 13s5 13 12 13zm173-122c7 0 13-6 13-13v-142c0-7-6-13-13-13h-895c-7 0-12 6-12 13v142c0 7 5 13 12 13zm-882-25v-117h870v117z" fill="#fff"/></g></svg>