<svg clip-rule="evenodd" fill-rule="evenodd" height="2.667in" image-rendering="optimizeQuality" shape-rendering="geometricPrecision" text-rendering="geometricPrecision" viewBox="0 0 2667 2667" width="2.667in" xmlns="http://www.w3.org/2000/svg"><g id="Layer_x0020_1"><circle cx="1333" cy="1333" fill="#ff700d" r="1333"/><path d="m1914 1841c-6 0-11-3-16-7l-118-118-46 47c-6 6-16 8-24 5-9-4-14-12-15-21l-9-258c0-6 2-13 7-17 4-4 10-7 17-7l258 10c9 0 17 6 21 14 3 8 1 18-5 24l-47 47 118 117c4 5 7 10 7 17 0 6-3 11-7 16l-125 124c-4 5-10 7-16 7zm-100 197h-961c-13 0-23-10-23-22v-142c0-12 10-22 23-22h961c12 0 22 10 22 22v142c0 12-10 22-22 22zm350-368h-82c-2-4-5-8-8-11l-99-99v-1h89c7 0 12-5 12-12v-796c0-7-5-12-12-12-487 0-974 0-1461 0-7 0-13 5-13 12v796c0 7 6 12 13 12h1059l4 111h-1163c-13 0-23-10-23-23v-996c0-12 10-23 23-23h1661c12 0 23 11 23 23v996c0 13-11 23-23 23zm-483-330c57 0 102-46 102-102 0-32-15-62-40-81l-11-8 11-8c25-19 40-49 40-81 0-56-45-102-102-102h-88c-7 0-13 6-13 13v356c0 7 6 13 13 13zm-76-26v-330h76c43 0 77 34 77 76s-34 76-77 76c-7 0-12 6-12 13s5 13 12 13c43 0 77 34 77 76s-34 76-77 76zm-519-253c0-56-45-102-101-102s-102 46-102 102 46 101 102 101c42 0 76 34 76 76s-34 76-76 76-76-34-76-76c0-7-6-12-13-12s-13 5-13 12c0 56 46 102 102 102s101-46 101-102-45-101-101-101c-42 0-76-34-76-76s34-76 76-76 76 34 76 76c0 7 6 13 13 13s12-6 12-13zm247 279c82 0 145-70 145-151v-217c0-7-6-13-13-13s-13 6-13 13v217c0 67-51 125-119 125s-119-58-119-125v-217c0-7-6-13-13-13s-12 6-12 13v217c0 81 62 151 144 151zm718-576v770h-50l1-2c14-14 19-35 11-53-7-18-24-30-44-31l-258-9c-14-1-27 5-37 14-10 10-15 23-14 37l1 44h-1045v-770zm-992 1061v-129h549v129z" fill="#fff"/></g></svg>