<svg clip-rule="evenodd" fill-rule="evenodd" height="2.667in" image-rendering="optimizeQuality" shape-rendering="geometricPrecision" text-rendering="geometricPrecision" viewBox="0 0 2667 2667" width="2.667in" xmlns="http://www.w3.org/2000/svg"><g id="Layer_x0020_1"><circle cx="1333" cy="1333" fill="#f10" r="1333"/><path d="m579 1608v-648h1509v648zm1486-674h-1464c-12 0-22-10-22-23v-115c0-13 10-23 22-23h1464c13 0 23 10 23 23v115c0 13-10 23-23 23zm-8 960h-1448c-71 0-129-59-129-130v-106c0-13 10-23 23-23h479l86 149c2 3 7 6 11 6h508c5 0 9-3 11-6l87-149h479c12 0 23 10 23 23v106c0 72-58 130-130 130zm-1046-259h644l-75 130h-493zm-120-184c27 0 50-23 50-50v-233c0-27-23-50-50-50h-116c-28 0-50 23-50 50v233c0 27 22 50 50 50zm-116-307h116c13 0 24 11 24 24v233c0 13-11 24-24 24h-116c-14 0-25-11-25-24v-233c0-13 11-24 25-24zm974 146v-134h100c37 0 67 30 67 67s-30 67-67 67zm-12 161c7 0 12-6 12-13v-106l125 114c2 2 5 4 8 4 4 0 7-2 10-4 5-6 4-14-1-18l-122-113h80c51 0 93-41 93-92s-42-93-93-93h-112c-7 0-13 6-13 13v151 1 143c0 7 6 13 13 13zm-101 0c7 0 12-6 12-13v-299c0-7-5-12-12-12s-13 5-13 12v299c0 7 6 13 13 13zm-330 0c5 0 10-3 12-8l52-136h109l52 136c3 6 10 9 16 7 7-3 10-10 8-17l-56-143v-1l-63-163c-2-5-6-8-12-8-5 0-10 3-11 8l-63 163s0 1-1 1l-55 144c-2 6 1 13 7 16 2 1 3 1 5 1zm74-170 44-115 45 115zm-209 169h3c6-1 10-6 10-12v-305c0-7-6-12-13-12s-13 5-13 12v249l-122-257c-3-5-9-8-15-7-5 1-9 6-9 12v308c0 7 5 12 12 12s13-5 13-12v-251l123 256c2 5 6 7 11 7z" fill="#fff"/></g></svg>