<svg clip-rule="evenodd" fill-rule="evenodd" height="2.667in" image-rendering="optimizeQuality" shape-rendering="geometricPrecision" text-rendering="geometricPrecision" viewBox="0 0 2667 2667" width="2.667in" xmlns="http://www.w3.org/2000/svg"><g id="Layer_x0020_1"><circle cx="1333" cy="1333" fill="#1d81ce" r="1333"/><path d="m916 1893c-214 0-388-174-388-388 0-13 10-23 22-23 13 0 23 10 23 23 0 189 154 343 343 343s343-154 343-343c0-13 10-23 23-23 12 0 22 10 22 23 0 214-174 388-388 388zm499-608c-3 0-7 0-10-2-7-4-12-12-12-20v-115h-111c-12 0-22-10-22-22v-623c0-13 10-23 22-23h834c13 0 23 10 23 23v623c0 12-10 22-23 22h-509l-178 133c-4 3-9 4-14 4zm498-352c7 0 12-6 12-13s-5-13-12-13h-427c-7 0-13 6-13 13s6 13 13 13zm0-106c7 0 12-6 12-13s-5-12-12-12h-427c-7 0-13 5-13 12s6 13 13 13zm0-106c7 0 12-6 12-13s-5-12-12-12h-427c-7 0-13 5-13 12s6 13 13 13zm100 314c7 0 13-6 13-13v-416c0-7-6-12-13-12h-627c-7 0-13 5-13 12v416c0 7 6 13 13 13zm-615-26v-390h602v390zm-275 1178h-414c-12 0-22-11-22-23v-105c0-13 10-23 22-23h414c12 0 22 10 22 23v105c0 12-10 23-22 23zm-299-177v-101c30 7 60 11 92 11 31 0 62-4 92-11v101zm92-217c-155 0-281-122-288-276h193c7 0 13-5 13-12s-6-13-13-13h-193v-93h193c7 0 13-6 13-13s-6-12-13-12h-193v-94h193c7 0 13-5 13-12s-6-13-13-13h-193v-93h193c7 0 13-6 13-13s-6-12-13-12h-193c7-153 133-276 288-276s281 123 288 276h-199c-7 0-13 5-13 12s6 13 13 13h199v93h-199c-7 0-13 6-13 13s6 12 13 12h199v94h-199c-7 0-13 5-13 12s6 13 13 13h199v93h-199c-7 0-13 6-13 13s6 12 13 12h199c-7 154-133 276-288 276z" fill="#fff"/></g></svg>