<svg clip-rule="evenodd" fill-rule="evenodd" height="2.667in" image-rendering="optimizeQuality" shape-rendering="geometricPrecision" text-rendering="geometricPrecision" viewBox="0 0 2667 2667" width="2.667in" xmlns="http://www.w3.org/2000/svg"><g id="Layer_x0020_1"><circle cx="1333" cy="1333" fill="#f10" r="1333"/><path d="m821 1162c-188 0-341-153-341-341s153-341 341-341 341 153 341 341-153 341-341 341zm179 819v-122c0-13 10-23 23-23h228c13 0 23 10 23 23v122zm-392 0v-55c0-13 10-23 22-23h228c13 0 23 10 23 23v55zm785 0v-185c0-12 10-22 23-22h228c12 0 22 10 22 22v185zm392 0v-282c0-12 11-23 23-23h228c13 0 23 11 23 23v282zm-1068-517c-7 0-13-3-18-9-7-10-5-24 5-32l1177-889c10-8 25-6 32 4 8 10 6 24-4 32l-1178 890c-4 3-9 4-14 4zm1447 722h-1661c-13 0-23-10-23-22v-134c0-13 10-23 23-23h1661c12 0 23 10 23 23v134c0 12-11 22-23 22zm-1164-376v-437c0-12 10-22 23-22h228c13 0 23 10 23 22v437zm-392 67v-241c0-13 10-23 22-23h228c13 0 23 10 23 23v241zm785-130v-619c0-13 10-23 23-23h228c12 0 22 10 22 23v619zm392-97v-904c0-12 11-22 23-22h228c13 0 23 10 23 22v904zm-944-635c48-9 85-51 85-102 0-58-47-105-105-105-44 0-79-35-79-79 0-22 9-43 25-58 17-15 38-23 60-21 41 4 73 38 73 79 0 7 6 13 13 13s13-6 13-13c0-50-37-93-85-102v-28c0-7-5-12-13-12-7 0-12 5-12 12v26c-25 1-48 11-66 27-21 20-34 48-34 77 0 58 47 105 105 105 44 0 79 35 79 79 0 43-35 79-79 79s-79-36-79-79c0-7-6-13-13-13s-13 6-13 13c0 56 45 101 100 104v26c0 7 5 13 12 13s13-6 13-13z" fill="#fff"/></g></svg>