<svg clip-rule="evenodd" fill-rule="evenodd" height="2.667in" image-rendering="optimizeQuality" shape-rendering="geometricPrecision" text-rendering="geometricPrecision" viewBox="0 0 2667 2667" width="2.667in" xmlns="http://www.w3.org/2000/svg"><g id="Layer_x0020_1"><circle cx="1333" cy="1333" fill="#7ed63f" r="1333"/><path d="m2161 1784h-1443c-13 0-23-10-23-22v-857c0-13 10-23 23-23h1443c13 0 23 10 23 23v857c0 12-10 22-23 22zm-791 403h-739c-82 0-148-67-148-148v-59h658 377v59c0 81-66 148-148 148zm148-1424v-55h-1035v1225 21h1035v-21-122h-800c-27 0-49-22-49-49v-857c0-27 22-49 49-49h800zm-392-169c7 0 12-6 12-13s-5-12-12-12h-251c-7 0-12 5-12 12s5 13 12 13zm-643 89v-55c0-82 66-148 148-148h739c82 0 148 66 148 148v55zm542 809c3 0 5 0 7-2l225-147c3-3 6-7 6-11s-3-8-6-11l-225-147c-3-3-8-3-13-1-4 2-6 7-6 11v296c0 4 2 9 6 11 2 1 4 1 6 1zm13-284 189 124-189 124zm71 402c84 0 159-37 209-96h716c7 0 13-5 13-12v-337c0-7-6-13-13-13h-716c-50-58-125-95-209-95-152 0-277 124-277 276 0 153 125 277 277 277zm255-168 1-3 1-2c9-23 15-46 18-71v-3l1-3c0-1 0-3 0-5v-1c1-7 1-14 1-21s0-14-1-21c0-2 0-4-1-6v-2c0-1 0-3 0-4-3-24-9-48-18-69 0-2-1-3-2-5v-1c-5-11-10-22-16-32l-9-15h682v311h-682l9-15c6-11 11-21 16-32zm-255-360c102 0 189 61 229 147v2l2 3c10 24 17 50 19 77l1 1v4 3 2 5 1 6 7 5 2 4 3l-1 3c-2 24-8 48-17 70l-1 3-1 2c-38 89-127 153-231 153-138 0-251-113-251-252 0-138 113-251 251-251zm838 360c7 0 13-6 13-13s-6-12-13-12h-78v-67h50c7 0 13-6 13-13s-6-13-13-13h-50v-66h74c7 0 13-6 13-13s-6-13-13-13h-87c-7 0-13 6-13 13v184c0 7 6 13 13 13zm-216 1c1 0 3 0 4-1 2-1 3-2 5-3 1-1 2-3 3-4 0-1 0-1 0-2l49-184c2-7-2-14-9-16-6-1-13 3-15 9l-37 139-37-139c-2-6-9-10-16-9-7 2-11 9-9 16l49 184c0 1 1 1 1 2s1 3 3 4c1 1 2 2 4 3s3 1 5 1zm-126-4c7 0 13-6 13-13v-177c0-7-5-13-13-13-7 0-12 6-12 13v177c0 7 5 13 12 13zm-75-1c7 0 12-5 12-12s-5-13-12-13h-58v-173c0-7-5-13-13-13-7 0-12 6-12 13v186c0 7 5 12 12 12z" fill="#fff"/></g></svg>