<svg clip-rule="evenodd" fill-rule="evenodd" height="2.667in" image-rendering="optimizeQuality" shape-rendering="geometricPrecision" text-rendering="geometricPrecision" viewBox="0 0 2667 2667" width="2.667in" xmlns="http://www.w3.org/2000/svg"><g id="Layer_x0020_1"><circle cx="1333" cy="1333" fill="#378b4e" r="1333"/><path d="m1333 1236c-188 0-341-153-341-341s153-341 341-341 341 153 341 341-153 341-341 341zm481 876h-961c-13 0-23-10-23-22v-142c0-12 10-22 23-22h961c12 0 22 10 22 22v142c0 12-10 22-22 22zm350-368h-1661c-13 0-23-10-23-23v-996c0-12 10-22 23-22h517c-20 33-36 70-45 110h-372c-7 0-13 6-13 13v795c0 7 6 13 13 13h246 968 1 246c7 0 12-6 12-13v-795c0-7-5-13-12-13h-372c-9-40-25-77-46-110h518c12 0 23 10 23 22v996c0 13-11 23-23 23zm-113-906v770h-221v-303h53c7 0 13-5 13-12v-138c0-7-6-13-13-13h-278c60-65 96-152 96-247 0-19-2-38-4-57zm-471 330h290v112h-1074v-112h291c65 59 152 95 246 95 95 0 182-36 247-95zm-519-26h-277c-7 0-13 6-13 13v138c0 7 6 12 13 12h53v303h-221v-770h354c-3 19-4 38-4 57 0 95 36 182 95 247zm744 466h-943v-303h943zm-746 291v-128h549v128zm274-991c44 0 79 35 79 79s-35 79-79 79c-43 0-79-35-79-79 0-7-5-13-12-13-8 0-13 6-13 13 0 56 44 102 99 104v26c0 7 6 13 13 13s13-6 13-13v-27c48-10 84-52 84-103 0-58-47-105-105-105-43 0-79-35-79-79 0-22 9-43 26-58 16-15 37-22 59-21h1c41 4 72 38 72 79 0 7 6 13 13 13s13-6 13-13c0-50-36-93-84-102v-28c0-7-6-12-13-12s-13 5-13 12v26c-24 1-48 11-66 27-21 20-33 48-33 77 0 58 47 105 104 105z" fill="#fff"/></g></svg>