<svg clip-rule="evenodd" fill-rule="evenodd" height="2.667in" image-rendering="optimizeQuality" shape-rendering="geometricPrecision" text-rendering="geometricPrecision" viewBox="0 0 2667 2667" width="2.667in" xmlns="http://www.w3.org/2000/svg"><g id="Layer_x0020_1"><circle cx="1333" cy="1333" fill="#ff700d" r="1333"/><path d="m2164 1645h-1661c-13 0-23-11-23-23v-1060c0-13 10-23 23-23h1661c12 0 23 10 23 23v1060c0 12-11 23-23 23zm0 482h-1661c-13 0-23-10-23-22v-331c0-12 10-23 23-23h1661c12 0 23 11 23 23v331c0 12-11 22-23 22zm-1523-99c2 0 4 0 6-1l142-76c4-3 6-7 6-12 0-4-2-9-6-11l-142-76c-4-2-8-2-12 0-4 3-6 7-6 11v153c0 4 2 8 6 11 2 1 4 1 6 1zm13-144 102 55-102 55zm1371 68c7 0 13-6 13-13s-6-12-13-12h-589c-6-46-46-82-93-82-48 0-88 36-94 82h-367c-7 0-13 5-13 12s6 13 13 13h367c6 46 46 82 94 82 47 0 87-36 93-82zm-614-13v1c0 38-31 68-68 68-38 0-69-31-69-69s31-68 69-68c37 0 68 30 68 68zm-272-595c2 0 4-1 6-2l390-239c3-3 6-7 6-11s-3-9-6-11l-390-239c-4-2-8-3-12 0-4 2-7 6-7 11v478c0 5 3 9 7 11 1 1 4 2 6 2zm12-468 353 216-353 216zm903 649c7 0 12-6 12-13v-840c0-7-5-13-12-13h-1441c-7 0-13 6-13 13v840c0 7 6 13 13 13zm-1428-26v-814h1415v814z" fill="#fff"/></g></svg>