<svg clip-rule="evenodd" fill-rule="evenodd" height="2.667in" image-rendering="optimizeQuality" shape-rendering="geometricPrecision" text-rendering="geometricPrecision" viewBox="0 0 2667 2667" width="2.667in" xmlns="http://www.w3.org/2000/svg"><g id="Layer_x0020_1"><circle cx="1333" cy="1333" fill="#f44c71" r="1333"/><path d="m2039 1634h-59v-1035h59c81 0 148 66 148 148v739c0 82-67 148-148 148zm-601 548h-210c-12 0-22-10-22-22v-179c0-13 10-23 22-23h210c13 0 23 10 23 23v179c0 12-10 22-23 22zm-185-251v-156h160v156zm484-182h-807c-12 0-23-10-23-23v-65h852v65c0 13-10 23-22 23zm-649-1150v-92c0-13 10-23 22-23h446c13 0 23 10 23 23v92h375v1035h-1246v-1035zm446 0v-69h-401v69zm-953 655c7 0 13-5 13-12v-251c0-7-6-12-13-12s-12 5-12 12v251c0 7 5 12 12 12zm638 76c2 0 5-1 7-2l307-203c4-2 6-6 6-10 0-5-2-9-6-11l-307-202c-4-3-9-3-13-1s-7 7-7 11v405c0 5 3 9 7 11 2 1 4 2 6 2zm13-394 271 179-271 178zm101 555c207 0 375-168 375-375 0-206-168-374-375-374-206 0-374 168-374 374 0 207 168 375 374 375zm0-723c193 0 349 156 349 348 0 193-156 349-349 349-192 0-348-156-348-349 0-192 156-348 348-348zm-650 866h-55c-82 0-148-66-148-148v-739c0-82 66-148 148-148h55z" fill="#fff"/></g></svg>