<svg clip-rule="evenodd" fill-rule="evenodd" height="2.667in" image-rendering="optimizeQuality" shape-rendering="geometricPrecision" text-rendering="geometricPrecision" viewBox="0 0 2667 2667" width="2.667in" xmlns="http://www.w3.org/2000/svg"><g id="Layer_x0020_1"><circle cx="1333" cy="1333" fill="#1d81ce" r="1333"/><path d="m1333 1920c-196 0-355-160-355-356 0-12 10-22 23-22 12 0 23 10 23 22 0 171 139 310 309 310 171 0 310-139 310-310 0-12 10-22 23-22 12 0 23 10 23 22 0 196-160 356-356 356zm743-844h-503c-53-76-141-126-240-126s-186 50-239 126h-503c-13 0-23-10-23-23v-550c0-13 10-23 23-23h1485c13 0 23 10 23 23v550c0 13-10 23-23 23zm-1190-203c53 0 95-43 95-95s-42-95-95-95c-52 0-94 43-94 95s42 95 94 95zm0-164c39 0 70 31 70 69s-31 69-70 69c-38 0-69-31-69-69s31-69 69-69zm981 220c40 0 78-15 106-44 5-5 5-13 0-18s-13-5-18 0c-48 49-128 49-177 0-48-49-49-128 0-177s129-49 177 0c5 5 13 5 18 0s5-13 0-18c-58-58-154-58-213 0-58 59-58 155 0 213 29 29 67 44 107 44zm-223-1c7 0 13-6 13-13s-6-12-13-12h-123v-113h81c7 0 13-6 13-13s-6-12-13-12h-81v-113h118c7 0 12-5 12-12s-5-13-12-13h-131c-7 0-13 6-13 13v275c0 7 6 13 13 13zm-395-125h33l99 120c2 3 6 5 10 5 2 0 5-1 8-3 5-4 6-12 1-18l-85-105c44-4 78-41 78-86 0-49-39-88-87-88h-95c-3 0-5 1-7 2l-6 4c-1 0-2 1-3 1-1 1-1 2-2 2-6 8-3 120-3 130v15 133c0 7 5 13 12 13s13-6 13-13v-112c12 1 29 0 34 0zm-34-36c-1-35-1-69 0-104v-9h91c34 0 62 27 62 62 0 34-28 61-62 61l-12 1c-15 0-30 0-45 0-8 0-16 0-24 0l-10-1v-9c0-1 0 0 0-1zm-329 208c109 0 197-88 197-197 0-108-88-197-197-197-108 0-196 89-196 197 0 109 88 197 196 197zm0-368c95 0 172 77 172 171 0 95-77 172-172 172-94 0-171-77-171-172 0-94 77-171 171-171zm635 1580h-376c-12 0-22-11-22-23v-96c0-12 10-22 22-22h376c13 0 23 10 23 22v96c0 12-10 23-23 23zm-273-168v-82c27 6 56 9 85 9 30 0 58-3 86-9v82zm85-190c-141 0-257-112-264-252h178c7 0 13-6 13-13s-6-12-13-12h-178v-83h178c7 0 13-5 13-12s-6-13-13-13h-178v-82h178c7 0 13-6 13-13s-6-13-13-13h-178v-82h178c7 0 13-6 13-13s-6-12-13-12h-178c7-140 123-252 264-252 142 0 258 112 264 252h-184c-7 0-12 5-12 12s5 13 12 13h185v82h-185c-7 0-12 6-12 13s5 13 12 13h185v82h-185c-7 0-12 6-12 13s5 12 12 12h185v83h-185c-7 0-12 5-12 12s5 13 12 13h184c-6 140-122 252-264 252z" fill="#fff"/></g></svg>