<svg clip-rule="evenodd" fill-rule="evenodd" height="2.667in" image-rendering="optimizeQuality" shape-rendering="geometricPrecision" text-rendering="geometricPrecision" viewBox="0 0 2667 2667" width="2.667in" xmlns="http://www.w3.org/2000/svg"><g id="Layer_x0020_1"><circle cx="1333" cy="1333" fill="#f10" r="1333"/><path d="m611 1325c-2 0-4 0-6-1-8-2-14-8-16-16l-37-145h-49c-13 0-23-10-23-23v-547c0-13 10-23 23-23h802c12 0 22 10 22 23v428h-297c-27 0-49 22-49 49v93h-167l-188 157c-4 3-9 5-15 5zm1399 772c-5 0-10-2-14-6l-269-223h-697c-13 0-23-10-23-23v-775c0-12 10-22 23-22h1134c12 0 23 10 23 22v775c0 13-11 23-23 23h-77l-55 212c-2 7-7 13-15 16-2 0-4 1-7 1zm-105-479c2 0 5-1 7-3 4-2 6-7 5-12l-13-99 69-72c3-4 4-9 3-13-2-5-5-8-10-9l-99-18-47-88c-2-4-7-6-11-6-5 0-9 2-11 6l-48 88-98 18c-5 1-9 4-10 9-2 4-1 9 3 13l69 72-14 99c0 5 2 10 6 12 3 3 8 4 13 2l90-44 90 44c2 0 4 1 6 1zm-96-72c-2 0-4 1-6 1l-74 36 11-82c0-3-1-7-4-10l-57-60 82-15c3 0 7-3 9-6l39-73 39 73c2 3 5 6 9 6l81 15-57 60c-3 3-4 7-3 10l11 82-75-36c-1 0-3-1-5-1zm-520 72c2 0 4-1 6-1l90-44 90 44c4 2 9 1 13-2 4-2 6-7 5-12l-13-99 69-72c3-4 4-9 3-13-1-5-5-8-10-9l-98-18-48-88c-2-4-6-6-11-6s-9 2-11 6l-48 88-98 18c-5 1-9 4-10 9-2 4-1 9 3 13l69 72-13 99c-1 5 1 10 5 12 2 2 4 3 7 3zm-34-187 82-15c4 0 7-3 9-6l39-73 39 73c2 3 5 6 9 6l81 15-57 60c-2 3-4 7-3 10l11 82-75-36c-3-1-7-1-11 0l-74 36 11-82c1-3-1-7-3-10zm796 314c7 0 13-6 13-13v-549c0-7-6-12-13-12h-908c-7 0-13 5-13 12v549c0 7 6 13 13 13zm-895-26v-523h882v523zm32-761c7 0 13-6 13-13s-6-13-13-13h-568c-7 0-13 6-13 13s6 13 13 13zm0-121c7 0 13-6 13-13s-6-13-13-13h-568c-7 0-13 6-13 13s6 13 13 13zm-74-121c7 0 13-6 13-13s-6-12-13-12h-421c-7 0-13 5-13 12s6 13 13 13z" fill="#fff"/></g></svg>