<svg clip-rule="evenodd" fill-rule="evenodd" height="2.667in" image-rendering="optimizeQuality" shape-rendering="geometricPrecision" text-rendering="geometricPrecision" viewBox="0 0 2667 2667" width="2.667in" xmlns="http://www.w3.org/2000/svg"><g id="Layer_x0020_1"><circle cx="1333" cy="1333" fill="#7ed63f" r="1333"/><path d="m825 904v-130h-193v130zm0 823v-131h-193v131zm0-158v-136h-193v136zm0-162v-157h-193v157zm0-184v-151h-193v151zm0-177v-115h-193v115zm463 204-309-206v413zm899 629v-793l-363 280v233zm-390 14v-821h-124v668c0 7-6 13-14 13h-1041c-7 0-13-6-13-13v-668h-125v821zm-151-166v-131h-193v131zm0-294h-193v136h193zm0-26v-157h-193v157zm0-184v-151h-193v151zm0-177v-115h-193v115zm0-142v-130h-193v130zm-220 823v-953h-574v953zm-453-719 346 231c8 5 8 17 0 22l-346 231c-2 2-5 3-7 3-8 0-14-6-14-14v-462c0-10 12-17 21-11z" fill="#fff"/></g></svg>