<svg clip-rule="evenodd" fill-rule="evenodd" height="2.667in" image-rendering="optimizeQuality" shape-rendering="geometricPrecision" text-rendering="geometricPrecision" viewBox="0 0 2667 2667" width="2.667in" xmlns="http://www.w3.org/2000/svg"><g id="Layer_x0020_1"><circle cx="1333" cy="1333" fill="#f44c71" r="1333"/><path d="m480 853 175-200h-175zm1137 718-356-194v388zm463-336h-1267v672h1267zm-839 108c4-2 9-2 13 0l397 216c5 2 7 7 7 12s-2 9-7 11l-397 217c-1 1-4 1-6 1s-5 0-7-1c-4-3-6-7-6-12v-433c0-4 2-9 6-11zm946-215h-1481v885h1481zm-1387 80h1293c8 0 14 6 14 14v698c0 7-6 13-14 13h-1293c-8 0-14-6-14-13v-698c0-8 6-14 14-14zm-94-128 175-200h-175zm239 22 194-222h-223l-194 222zm258 0 194-222h-223l-194 222zm258 0 194-222h-223l-194 222zm258 0 194-222h-223l-194 222zm258 0 194-222h-197-26l-194 222zm210 0v-200l-175 200zm-227-249v-178l-155 178h136 2zm-190 0 174-200h-222l-175 200h136 2zm-258 0 174-200h-222l-175 200zm-258 0 175-200h-223l-175 200h137 1zm-258 0 175-200h-223l-175 200h137 1zm-316 261v-212h-200v885h200v-671zm58-261 175-200h-223l-194 222h183l1-9v-1-1-1l1-1v-1-1l1-1 1-1 1-1 1-1 1-1h1v-1h1 1 1l1-1h1 1z" fill="#fff"/></g></svg>