<svg clip-rule="evenodd" fill-rule="evenodd" height="2.667in" image-rendering="optimizeQuality" shape-rendering="geometricPrecision" text-rendering="geometricPrecision" viewBox="0 0 2667 2667" width="2.667in" xmlns="http://www.w3.org/2000/svg"><g id="Layer_x0020_1"><circle cx="1333" cy="1333" fill="#1d81ce" r="1333"/><path d="m2039 1634h-59v-1035h59c81 0 148 66 148 148v739c0 82-67 148-148 148zm-601 548h-210c-12 0-22-10-22-22v-179c0-13 10-23 22-23h210c13 0 23 10 23 23v179c0 12-10 22-23 22zm-185-251v-156h160v156zm484-182h-807c-12 0-23-10-23-23v-65h852v65c0 13-10 23-22 23zm-649-1150v-92c0-13 10-23 22-23h446c13 0 23 10 23 23v92h375v1035h-247v-174c0-95-83-164-175-164h-80l-17-40c59-35 103-99 103-166v-98c0-1 0-1 0-2-2-21-3-42-4-63-1-42-3-78-20-117-19-48-72-84-123-84-12 0-23 2-34 5-16 4-37 3-53 2-10-1-20-2-30-2s-21 1-32 3c-41 10-58 30-79 64-10 16-19 31-32 44-7 8-15 14-24 20-18 14-37 28-40 52-3 26 16 53 31 71 9 11 20 18 34 18h1v87c0 66 43 129 100 165l-18 41h-80c-92 0-175 69-175 164v39 4 3 128h-252v-1035zm446 0v-69h-401v69zm-198 687c26 0 52-7 76-18l19 43c-2 53-45 95-97 95-53 0-96-42-97-95l19-44c25 12 53 19 80 19zm177-289v93c0 59-43 117-98 148 0 0-1 0-2 0-1 1-3 2-4 3-23 12-49 19-73 19-26 0-53-7-78-21-1-1-2-2-3-2s-1-1-2-1c-53-31-95-88-95-146v-95c8-4 16-11 22-17 39-39 68-64 126-64 17 0 34 2 50 5 56 10 114 41 157 78zm-372-21h-1c-2 1-5 2-8 2-6 0-10-4-14-9-10-12-27-35-25-52 1-14 19-26 30-34 9-8 19-15 27-23 14-15 24-31 34-48 18-29 29-45 64-53 9-2 17-3 26-3 10 0 19 1 28 2 10 1 19 1 29 1 11 0 22-1 33-4 8-2 17-4 27-4 41 0 84 30 100 68 15 37 16 70 18 109v14l1 20-16-11c-39-27-87-49-133-57-19-3-37-5-56-5-64 0-99 27-143 71-5 5-13 12-21 16zm-560 278c7 0 13-5 13-12v-251c0-7-6-12-13-12s-12 5-12 12v251c0 7 5 12 12 12zm1101 380h-98v-119h98zm-98-144v-25c0-7-6-13-13-13s-13 6-13 13v169h-450v-131-38c0-7-5-13-12-13s-13 6-13 13v25h-97v-30c0-81 71-139 149-139h77l1 9c10 58 61 101 121 101 59 0 110-43 120-101l2-9h76c78 0 150 58 150 139v30zm-501 25v119h-97v-119zm-400 119h-55c-82 0-148-66-148-148v-739c0-82 66-148 148-148h55z" fill="#fff"/></g></svg>