<svg clip-rule="evenodd" fill-rule="evenodd" height="2.667in" image-rendering="optimizeQuality" shape-rendering="geometricPrecision" text-rendering="geometricPrecision" viewBox="0 0 2667 2667" width="2.667in" xmlns="http://www.w3.org/2000/svg"><g id="Layer_x0020_1"><circle cx="1333" cy="1333" fill="#ff700d" r="1333"/><path d="m1295 1782c-16 0-50 1-60-10l-292-291c-3-3-6-8-6-13-11-75 3-159 27-239l515 515c-58 22-122 38-184 38zm-556 387c-5 0-11-2-16-7-9-8-9-23 0-32l173-172c9-9 23-9 32 0s9 23 0 32l-173 172c-4 5-10 7-16 7zm-236-237c-6 0-12-2-16-6-9-9-9-23 0-32l172-173c9-9 23-9 32 0s9 24 0 32l-172 173c-5 4-10 6-16 6zm118 119c-6 0-12-2-16-7-9-9-9-23 0-32l258-258c8-8 23-8 32 0 9 9 9 24 0 33l-258 257c-4 5-10 7-16 7zm549-63c-6 0-12-2-16-7l-427-427c-6-6-8-14-7-21 2-8 8-14 15-17l174-58c0 5 1 9 1 14 2 11 7 21 14 28l292 291c7 8 17 13 28 14 4 1 8 1 12 2l-65 166c-2 8-9 13-16 15-2 0-3 0-5 0zm186 45c-4 0-7-1-10-2-7-4-12-10-13-18l-21-205c35-1 70-7 104-16 83-22 162-61 234-107 19-12 38-25 57-38v144c0 8-4 15-11 19l-328 219c-3 3-8 4-12 4zm-448-658-237-24c-8-1-14-6-18-13-3-7-3-16 2-22l219-328c4-7 11-11 19-11h152c-65 116-126 264-137 398zm65-174c35-106 88-204 128-265 182-291 539-390 791-423l280 279c-33 250-131 607-423 790-15 12-116 96-244 151zm951-692c86-9 157-11 201-11 32 0 60-4 61 22 0 11 4 107-11 240zm-298 777c61 0 118-24 161-67 89-89 89-233 0-322-43-43-100-67-161-67s-118 24-161 67-67 100-67 161 24 118 67 161 100 67 161 67zm0-431c54 0 105 21 143 60 79 79 79 207 0 286-38 38-89 60-143 60s-105-22-143-60-60-89-60-143 22-105 60-143c38-39 89-60 143-60z" fill="#fff"/></g></svg>