<svg clip-rule="evenodd" fill-rule="evenodd" height="2.667in" image-rendering="optimizeQuality" shape-rendering="geometricPrecision" text-rendering="geometricPrecision" viewBox="0 0 2667 2667" width="2.667in" xmlns="http://www.w3.org/2000/svg"><g id="Layer_x0020_1"><circle cx="1333" cy="1333" fill="#00ab94" r="1333"/><path d="m1025 1913v-159h616v159zm887 238h-1158c-12 0-23-10-23-23v-166c0-12 11-22 23-22h1158c13 0 23 10 23 22v166c0 13-10 23-23 23zm252-423h-1661c-13 0-23-11-23-23v-1166c0-13 10-23 23-23h1661c12 0 23 10 23 23v1166c0 12-11 23-23 23zm-100-110c7 0 12-6 12-13v-966c0-7-5-13-12-13h-1461c-7 0-13 6-13 13v966c0 7 6 13 13 13zm-1448-26v-941h1435v941zm636-287c3 0 6-1 8-3l204-170c2-3 4-6 4-10s-2-8-4-10l-204-171c-4-3-9-3-14-1-4 2-7 6-7 11v341c0 5 3 10 7 12 2 1 4 1 6 1zm12-327 172 144-172 143zm270 424c155 0 281-125 281-280s-126-281-281-281h-402c-154 0-280 126-280 281s126 280 280 280zm-402-535h402c141 0 256 114 256 255s-115 255-256 255h-402c-140 0-255-114-255-255s115-255 255-255z" fill="#fff"/></g></svg>