<svg clip-rule="evenodd" fill-rule="evenodd" height="2.667in" image-rendering="optimizeQuality" shape-rendering="geometricPrecision" text-rendering="geometricPrecision" viewBox="0 0 2667 2667" width="2.667in" xmlns="http://www.w3.org/2000/svg"><g id="Layer_x0020_1"><circle cx="1333" cy="1333" fill="#ff700d" r="1333"/><path d="m1333 2187c-470 0-853-383-853-854 0-470 383-853 853-853 471 0 854 383 854 853 0 471-383 854-854 854zm-261-486c3 0 6-1 8-3 6-5 6-13 1-18-27-30-42-69-42-109 0-47 20-92 56-123 5-5 6-13 1-18-4-5-12-6-18-1-41 36-64 87-64 142 0 46 17 91 48 126 3 3 6 4 10 4zm-77 48c4 0 7-2 9-4 5-5 6-13 1-18-40-42-62-98-62-156 0-65 28-127 76-171 5-4 5-12 1-18-5-5-13-5-18 0-54 48-84 117-84 189 0 64 24 126 68 173 3 3 6 5 9 5zm-76 47c3 0 6-1 9-4 5-4 5-12 0-18-52-55-81-127-81-203 0-83 35-162 96-218 5-5 5-13 0-18s-13-5-18-1c-65 61-103 147-103 237 0 82 31 161 88 221 2 3 6 4 9 4zm783-552c4 0 8-2 11-6 36-58 47-122 27-187-7-26-23-60-41-80-4-5-12-6-18-1-5 5-5 13-1 18 17 19 30 48 37 71 17 58 6 115-26 165-4 6-2 14 4 18 2 1 5 2 7 2zm-394 437c5 0 10-1 15-2 19-5 39-28 51-43 26-32 49-69 71-104 23-35 49-78 77-109 50-56 85-124 72-200-4-27-18-63-35-84-1 0-1-1-1-1-45-44-109-88-175-72-39 9-70 37-92 69-12 17-24 39-31 58-2 7 2 14 8 16 7 3 14-1 16-7 6-17 17-36 26-50 19-28 45-54 79-62 58-13 114 25 151 66 17 19 28 54 31 79 7 65-25 124-68 171-29 32-55 76-79 113-17 25-80 128-107 135-10 3-19 1-28-4-33-22-48-95-55-130-1-7-7-12-14-11-7 2-12 8-11 15 8 45 25 120 67 147 9 6 20 10 32 10zm-141-278h1c7 0 12-6 11-13-15-185 7-436 232-471 39-6 79 1 115 15 15 6 36 15 50 25 6 4 14 2 18-3 4-6 2-14-4-18-16-11-38-22-56-28-40-16-84-22-127-16-243 38-270 296-253 498 1 6 6 11 13 11zm219 587c62 0 116-30 152-81 39-55 54-133 67-197 13-58 25-118 49-172 20-47 47-83 79-122 24-31 48-62 66-97 24-45 37-92 43-142 13-109-15-222-75-315-96-149-277-218-448-174-182 46-293 199-306 384 0 7 5 13 12 13 7 1 13-5 13-12 13-175 113-317 287-361 161-41 331 24 421 164 56 88 83 194 70 298-11 99-44 152-103 226-33 41-61 79-83 128-24 56-37 117-50 177-12 60-27 137-63 187-40 58-104 82-172 65-99-23-170-117-184-215-1-7-8-11-15-10-6 1-11 7-10 14 16 110 92 210 203 236 15 4 31 6 47 6z" fill="#fff"/></g></svg>