<svg clip-rule="evenodd" fill-rule="evenodd" height="2.667in" image-rendering="optimizeQuality" shape-rendering="geometricPrecision" text-rendering="geometricPrecision" viewBox="0 0 2667 2667" width="2.667in" xmlns="http://www.w3.org/2000/svg"><g id="Layer_x0020_1"><circle cx="1333" cy="1333" fill="#1d81ce" r="1333"/><path d="m1333 2187c-470 0-853-383-853-854 0-470 383-853 853-853 471 0 854 383 854 853 0 471-383 854-854 854zm0-116c407 0 738-331 738-738 0-406-331-737-738-737-406 0-737 331-737 737 0 407 331 738 737 738zm0-1450c393 0 712 320 712 712 0 393-319 712-712 712-392 0-712-319-712-712 0-392 320-712 712-712zm288 992c3 0 6-2 9-4 5-5 5-13 0-18-164-163-430-163-593 0-5 5-5 13 0 18s13 5 18 0c153-154 403-153 557 0 2 2 5 4 9 4zm16-462c69 0 133-27 182-75 5-5 5-13 0-18s-13-5-18 0c-44 43-102 68-164 68s-120-25-164-68c-5-5-13-5-18 0s-5 13 0 18c49 48 113 75 182 75zm-607 0c68 0 133-27 182-75 5-5 5-13 0-18s-13-5-18 0c-91 90-238 90-328 0-5-5-13-5-18 0s-5 13 0 18c48 48 113 75 182 75z" fill="#fff"/></g></svg>