<svg id="Capa_1" enable-background="new 0 0 512 512" height="512" viewBox="0 0 512 512" width="512" xmlns="http://www.w3.org/2000/svg"><g><g><path d="m357.014 243.693c-92.063-6.69-181.492-6.661-274.417.089-45.45 3.301-80.929 40.562-82.13 86.116-.601 22.793-.622 45.586-.062 68.379 1.176 47.883 40.097 86.385 87.994 86.658 2.572.015 5.145.013 7.717-.005 39.134-.274 72.388-26.096 83.351-61.794 4.238-13.799 16.778-23.363 31.213-23.363h18.177c14.436 0 26.975 9.564 31.213 23.363 10.963 35.698 44.217 61.52 83.351 61.794 2.572.018 5.145.02 7.717.005 47.897-.273 86.818-38.776 87.994-86.659.562-22.904.539-45.808-.071-68.712-1.21-45.481-36.67-82.573-82.047-85.871z" fill="#9dc6fb"/><g fill="#698ed5"><path d="m19.674 398.276c-.56-22.793-.539-45.586.062-68.379 1.035-39.25 27.519-74.947 63.901-86.187-.347.025-.692.046-1.04.071-45.45 3.301-80.929 40.562-82.13 86.116-.601 22.793-.622 45.586-.062 68.379 1.176 47.883 40.097 86.385 87.994 86.658 2.572.015 5.145.013 7.717-.005 1.883-.013 3.747-.103 5.6-.233-45.129-3.274-80.915-40.537-82.042-86.42z"/><path d="m279.34 423.136c-4.238-13.799-16.778-23.363-31.213-23.363h-18.177c-.183 0-.364.008-.546.011 14.204.238 26.483 9.727 30.667 23.352 10.963 35.698 44.217 61.52 83.351 61.794 2.572.018 5.145.02 7.717.005 2.001-.011 3.985-.095 5.952-.238-36.677-2.566-67.315-27.581-77.751-61.561z"/></g><circle cx="370.234" cy="320.978" fill="#f6e266" r="24.654"/><path d="m376.435 344.847c-1.983.516-4.065.788-6.202.788-13.618 0-24.655-11.037-24.655-24.655s11.037-24.655 24.655-24.655c2.137 0 4.219.272 6.202.788-10.621 2.743-18.462 12.386-18.462 23.867s7.841 21.124 18.462 23.867z" fill="#ffd064"/><circle cx="328.102" cy="383.802" fill="#dd636e" r="24.654"/><path d="m334.296 407.666c-1.983.516-4.056.788-6.193.788-13.618 0-24.655-11.037-24.655-24.655 0-13.609 11.037-24.646 24.655-24.646 2.137 0 4.21.272 6.193.788-10.621 2.743-18.462 12.386-18.462 23.858 0 11.481 7.841 21.123 18.462 23.867z" fill="#cb5769"/><g><path d="m234.088 334.987h-28.639c-6.861 0-12.423 5.562-12.423 12.423 0 6.861 5.562 12.423 12.423 12.423h28.639c6.861 0 12.423-5.562 12.423-12.423.001-6.861-5.562-12.423-12.423-12.423z" fill="#f9f6f9"/><path d="m210.918 356.202c2.253 2.244 5.354 3.64 8.783 3.64h-14.252c-3.428 0-6.538-1.396-8.783-3.64-2.244-2.253-3.64-5.354-3.64-8.791 0-6.856 5.566-12.423 12.423-12.423h14.251c-6.856 0-12.423 5.566-12.423 12.423.001 3.437 1.388 6.538 3.641 8.791z" fill="#dddaec"/></g><g><path d="m152.254 341.453c-.833-7.879-7.392-13.936-15.309-14.229-5.355-.198-10.71-.346-16.065-.466-.12-5.355-.268-10.71-.466-16.064-.293-7.917-6.35-14.476-14.229-15.309-6.748-.713-13.497-.713-20.245 0-7.879.833-13.936 7.392-14.229 15.309-.198 5.355-.346 10.71-.466 16.064-5.355.12-10.71.268-16.064.466-7.917.293-14.476 6.35-15.309 14.229-.713 6.748-.713 13.497 0 20.245.833 7.879 7.392 13.936 15.309 14.229 5.355.198 10.71.346 16.064.466.12 5.355.268 10.71.466 16.065.293 7.917 6.35 14.476 14.229 15.309 6.748.713 13.497.713 20.245 0 7.879-.833 13.936-7.391 14.229-15.309.198-5.355.346-10.71.466-16.065 5.355-.12 10.71-.268 16.065-.466 7.917-.293 14.476-6.35 15.309-14.229.714-6.748.714-13.496 0-20.245z" fill="#f9f6f9"/><g fill="#dddaec"><path d="m82.033 326.381c.122-5.436.272-10.872.473-16.309.273-7.384 5.49-13.59 12.538-15.209-3.035.032-6.069.201-9.104.521-7.879.833-13.936 7.392-14.229 15.309-.197 5.327-.344 10.653-.464 15.98 3.595-.111 7.191-.212 10.786-.292z"/><path d="m82.506 393.08c-.201-5.436-.351-10.872-.473-16.309-3.595-.081-7.19-.181-10.786-.293.12 5.327.267 10.653.464 15.98.293 7.917 6.35 14.476 14.229 15.309 3.035.321 6.069.489 9.104.522-7.047-1.618-12.264-7.825-12.538-15.209z"/><path d="m50.183 361.852c-.724-6.851-.724-13.702 0-20.553.818-7.741 7.085-13.733 14.774-14.382-3.259.088-6.517.186-9.776.307-7.917.293-14.476 6.35-15.309 14.229-.713 6.748-.713 13.497 0 20.245.833 7.879 7.392 13.936 15.309 14.229 3.259.121 6.517.218 9.776.307-7.689-.649-13.956-6.64-14.774-14.382z"/></g></g></g><g><circle cx="382.885" cy="156.17" fill="#d3effb" r="121.699"/><path d="m404.149 276.106c-6.739 1.168-13.674 1.767-20.744 1.767-67.213 0-121.703-54.49-121.703-121.703s54.49-121.703 121.703-121.703c7.07 0 14.005.599 20.744 1.767-57.322 9.841-100.949 59.793-100.949 119.936s43.627 110.096 100.949 119.936z" fill="#9dc6fb"/><path d="m382.884 171.674h-56.541c-8.562 0-15.504-6.941-15.504-15.504 0-8.562 6.941-15.504 15.504-15.504h56.541c8.562 0 0 6.941 0 15.504.001 8.563 0 10.393 0 15.504z" fill="#365e7d"/><path d="m382.884 171.674c-8.562 0-15.504-6.941-15.504-15.504v-39.587c0-8.562 6.941-15.504 15.504-15.504 8.562 0 15.504 6.941 15.504 15.504v39.587c0 8.563-6.941 15.504-15.504 15.504z" fill="#2b4d66"/><g fill="#365e7d"><g><path d="m382.885 70.258c-4.096 0-7.416-3.32-7.416-7.416v-24.534c0-4.096 3.32-7.416 7.416-7.416s7.416 3.32 7.416 7.416v24.533c0 4.096-3.32 7.417-7.416 7.417z"/><path d="m382.885 281.449c-4.096 0-7.416-3.32-7.416-7.416v-24.534c0-4.096 3.32-7.416 7.416-7.416s7.416 3.32 7.416 7.416v24.534c0 4.095-3.32 7.416-7.416 7.416z"/></g><g><path d="m500.747 163.586h-24.534c-4.096 0-7.416-3.32-7.416-7.416s3.32-7.416 7.416-7.416h24.534c4.096 0 7.416 3.32 7.416 7.416s-3.32 7.416-7.416 7.416z"/><path d="m289.556 163.586h-24.534c-4.096 0-7.416-3.32-7.416-7.416s3.32-7.416 7.416-7.416h24.534c4.096 0 7.416 3.32 7.416 7.416s-3.32 7.416-7.416 7.416z"/></g><g><path d="m472.422 111.897c-2.563 0-5.056-1.33-6.429-3.709-2.048-3.547-.832-8.083 2.714-10.13l12.542-7.241c3.545-2.047 8.083-.833 10.13 2.715 2.048 3.547.832 8.083-2.714 10.13l-12.542 7.241c-1.167.673-2.443.994-3.701.994z"/><path d="m280.82 222.519c-2.563 0-5.055-1.33-6.429-3.709-2.048-3.547-.832-8.083 2.714-10.13l12.541-7.241c3.546-2.047 8.081-.833 10.13 2.714 2.048 3.547.832 8.083-2.714 10.13l-12.541 7.241c-1.167.674-2.443.995-3.701.995z"/></g><g><path d="m434.568 74.057c-1.258 0-2.534-.321-3.701-.995-3.547-2.048-4.762-6.584-2.714-10.131l7.241-12.541c2.048-3.547 6.584-4.762 10.13-2.714 3.547 2.048 4.762 6.584 2.714 10.131l-7.241 12.541c-1.374 2.379-3.866 3.709-6.429 3.709z"/><path d="m323.947 265.659c-1.258 0-2.533-.32-3.701-.995-3.547-2.048-4.762-6.583-2.714-10.13l7.24-12.541c2.047-3.547 6.582-4.763 10.13-2.714 3.547 2.048 4.762 6.583 2.714 10.13l-7.24 12.541c-1.373 2.379-3.866 3.709-6.429 3.709z"/></g><g><path d="m331.201 74.057c-2.563 0-5.056-1.33-6.429-3.709l-7.24-12.541c-2.048-3.547-.832-8.083 2.714-10.13s8.083-.833 10.13 2.715l7.24 12.541c2.048 3.547.832 8.083-2.714 10.13-1.167.673-2.443.994-3.701.994z"/><path d="m441.823 265.659c-2.563 0-5.055-1.33-6.429-3.709l-7.241-12.541c-2.048-3.547-.833-8.083 2.714-10.131 3.546-2.048 8.081-.833 10.13 2.714l7.241 12.541c2.048 3.547.833 8.083-2.714 10.131-1.167.675-2.443.995-3.701.995z"/></g><g><path d="m293.347 111.897c-1.258 0-2.534-.32-3.701-.995l-12.541-7.241c-3.547-2.048-4.762-6.583-2.714-10.13 2.047-3.547 6.585-4.763 10.13-2.714l12.541 7.241c3.547 2.048 4.762 6.583 2.714 10.13-1.373 2.379-3.866 3.709-6.429 3.709z"/><path d="m484.95 222.519c-1.258 0-2.533-.32-3.701-.995l-12.542-7.241c-3.547-2.048-4.762-6.583-2.714-10.13 2.047-3.548 6.582-4.763 10.13-2.715l12.542 7.241c3.547 2.048 4.762 6.583 2.714 10.13-1.373 2.379-3.866 3.71-6.429 3.71z"/></g></g><path d="m382.885 285.285c-71.195 0-129.115-57.921-129.115-129.115s57.92-129.115 129.115-129.115 129.115 57.921 129.115 129.115c0 71.195-57.92 129.115-129.115 129.115zm0-243.397c-63.016 0-114.283 51.267-114.283 114.283s51.267 114.283 114.283 114.283 114.283-51.267 114.283-114.283-51.267-114.283-114.283-114.283z" fill="#dd636e"/></g></g></svg>