<svg id="Capa_1" enable-background="new 0 0 512 512" height="512" viewBox="0 0 512 512" width="512" xmlns="http://www.w3.org/2000/svg"><g><g><path d="m294.12 426.883c-4.223-.68-8.024-3.425-9.867-7.635-3.615-8.26-5.429-20.767 6.463-33.45 6.433-6.861 15.417-12.27 24.929-17.996 25.033-15.073 36.255-24.121 31.029-41.909-1.72-5.855-4.692-7.713-7.089-8.678-6.974-2.805-19.046-1.413-33.996 3.921-12.682 4.525-22.567 10.151-22.665 10.207-6.238 3.572-14.192 1.408-17.764-4.831-3.572-6.24-1.409-14.193 4.831-17.764 4.997-2.861 49.682-27.608 79.314-15.685 11.024 4.436 18.752 13.251 22.348 25.491 5.118 17.417 1.816 33.138-9.813 46.727-9 10.516-21.626 18.118-32.766 24.825-7.921 4.769-15.402 9.274-19.367 13.501-2.646 2.821-2.297 3.617-1.604 5.2 2.883 6.586-.118 14.262-6.705 17.145-2.376 1.04-4.894 1.315-7.278.931z" fill="#f9f6f9"/><g><path d="m301.077 419.248c-3.615-8.259-5.429-20.767 6.463-33.45 6.433-6.861 15.417-12.27 24.929-17.996 25.033-15.073 36.255-24.121 31.028-41.91-1.72-5.855-4.692-7.713-7.089-8.678-4.291-1.726-10.519-1.857-18.154-.464.461.14.905.293 1.33.464 2.397.965 5.369 2.822 7.089 8.678 5.226 17.789-5.995 26.837-31.029 41.91-9.512 5.727-18.495 11.136-24.929 17.996-11.893 12.682-10.079 25.19-6.463 33.45 1.843 4.21 5.644 6.955 9.867 7.635 2.384.384 4.902.109 7.278-.931 1.192-.522 2.263-1.205 3.206-2.006-1.47-1.243-2.701-2.814-3.526-4.698z" fill="#dddaec"/></g><path d="m290.599 360.942c.382 26.017-7.524 50.256-21.279 70.163-21.505 31.137-57.302 51.696-97.986 51.974-5.797.035-11.594.035-17.382 0-40.692-.278-76.481-20.836-97.986-51.974-13.755-19.908-21.669-44.146-21.288-70.163.46-30.773 2.656-61.546 6.587-92.31 80.916-7.654 161.831-7.654 242.747 0 3.94 30.764 6.136 61.537 6.587 92.31z" fill="#f9f6f9"/><path d="m133.76 481.237c-56.999-10.093-99.956-60.487-99.079-120.297.46-30.773 2.655-61.546 6.587-92.31 20.81-1.97 41.63-3.428 62.44-4.382-1.692 31.823-2.638 63.646-2.838 95.46-.348 53.301 13.156 99.807 32.89 121.529z" fill="#dddaec"/><path d="m269.32 431.105c-21.505 31.137-57.302 51.696-97.986 51.974-5.797.035-11.594.035-17.382 0-40.692-.278-76.481-20.836-97.986-51.974z" fill="#dddaec"/><path d="m325.281 451.528h-325.279c0 31.924 25.88 57.804 57.804 57.804h209.672c31.924 0 57.803-25.88 57.803-57.804z" fill="#f9f6f9"/><path d="m126.494 509.332h-68.688c-15.959 0-30.417-6.465-40.874-16.931-10.458-10.457-16.932-24.907-16.932-40.875h68.688c0 15.968 6.465 30.417 16.931 40.874 10.457 10.467 24.907 16.932 40.875 16.932z" fill="#dddaec"/><g fill="#f6e266"><path d="m146.042 247.99c-4.216 0-7.634-3.418-7.634-7.634 0-11.992 6.272-18.411 10.852-23.099 3.917-4.009 6.504-6.657 6.504-12.428s-2.587-8.42-6.504-12.428c-4.58-4.687-10.852-11.107-10.852-23.099 0-11.991 6.273-18.41 10.852-23.096 3.917-4.008 6.504-6.656 6.504-12.426 0-4.216 3.417-7.634 7.634-7.634 4.216 0 7.634 3.418 7.634 7.634 0 11.991-6.272 18.41-10.852 23.096-3.917 4.008-6.504 6.656-6.504 12.426 0 5.772 2.587 8.42 6.504 12.429 4.58 4.687 10.852 11.106 10.852 23.098s-6.272 18.411-10.852 23.098c-3.917 4.009-6.504 6.658-6.504 12.429 0 4.216-3.418 7.634-7.634 7.634z"/><path d="m107.675 247.99c-4.216 0-7.634-3.418-7.634-7.634 0-11.992 6.272-18.411 10.852-23.099 3.917-4.009 6.504-6.657 6.504-12.428s-2.587-8.42-6.504-12.428c-4.58-4.687-10.852-11.107-10.852-23.099 0-4.216 3.417-7.634 7.634-7.634 4.216 0 7.634 3.418 7.634 7.634 0 5.772 2.587 8.42 6.504 12.429 4.58 4.687 10.852 11.106 10.852 23.098s-6.272 18.411-10.852 23.098c-3.917 4.009-6.504 6.658-6.504 12.429 0 4.216-3.417 7.634-7.634 7.634z"/></g></g><g><circle cx="375.116" cy="139.551" fill="#d3effb" r="129.021"/><path d="m397.66 266.702c-7.144 1.238-14.497 1.874-21.992 1.874-71.257 0-129.025-57.768-129.025-129.025s57.768-129.025 129.025-129.025c7.495 0 14.847.635 21.992 1.874-60.771 10.432-107.022 63.389-107.022 127.151s46.251 116.72 107.022 127.151z" fill="#9dc6fb"/><path d="m375.116 155.987h-59.943c-9.077 0-16.436-7.359-16.436-16.436s7.359-16.436 16.436-16.436h59.943c9.077 0 0 7.359 0 16.436s0 11.018 0 16.436z" fill="#365e7d"/><path d="m375.116 155.987c-9.077 0-16.436-7.359-16.436-16.436v-41.969c0-9.077 7.359-16.436 16.436-16.436s16.436 7.359 16.436 16.436v41.969c0 9.078-7.358 16.436-16.436 16.436z" fill="#2b4d66"/><g fill="#365e7d"><g><path d="m375.117 48.469c-4.343 0-7.862-3.52-7.862-7.862v-26.01c0-4.342 3.52-7.862 7.862-7.862 4.343 0 7.862 3.52 7.862 7.862v26.01c0 4.342-3.52 7.862-7.862 7.862z"/><path d="m375.117 272.367c-4.343 0-7.862-3.52-7.862-7.862v-26.01c0-4.342 3.52-7.862 7.862-7.862 4.343 0 7.862 3.52 7.862 7.862v26.01c0 4.342-3.52 7.862-7.862 7.862z"/></g><g><path d="m500.07 147.413h-26.01c-4.343 0-7.862-3.52-7.862-7.862s3.52-7.862 7.862-7.862h26.01c4.343 0 7.862 3.52 7.862 7.862s-3.52 7.862-7.862 7.862z"/><path d="m276.173 147.413h-26.01c-4.342 0-7.862-3.52-7.862-7.862s3.52-7.862 7.862-7.862h26.01c4.343 0 7.862 3.52 7.862 7.862s-3.52 7.862-7.862 7.862z"/></g><g><path d="m470.041 92.614c-2.717 0-5.36-1.41-6.816-3.933-2.171-3.76-.882-8.569 2.878-10.74l13.296-7.676c3.758-2.17 8.57-.883 10.74 2.878 2.171 3.76.882 8.569-2.878 10.74l-13.296 7.676c-1.238.715-2.591 1.055-3.924 1.055z"/><path d="m266.911 209.892c-2.717 0-5.359-1.41-6.816-3.932-2.171-3.76-.882-8.569 2.878-10.74l13.295-7.676c3.759-2.171 8.568-.883 10.74 2.878 2.171 3.76.882 8.569-2.878 10.74l-13.295 7.676c-1.238.714-2.59 1.054-3.924 1.054z"/></g><g><path d="m429.91 52.497c-1.334 0-2.686-.34-3.924-1.055-3.76-2.171-5.049-6.98-2.878-10.74l7.677-13.296c2.171-3.761 6.98-5.048 10.74-2.877s5.049 6.98 2.878 10.74l-7.677 13.296c-1.457 2.522-4.1 3.932-6.816 3.932z"/><path d="m312.633 255.627c-1.334 0-2.685-.34-3.924-1.055-3.76-2.171-5.049-6.979-2.878-10.74l7.676-13.295c2.17-3.761 6.978-5.05 10.74-2.878 3.76 2.171 5.049 6.979 2.878 10.74l-7.676 13.295c-1.456 2.523-4.099 3.933-6.816 3.933z"/></g><g><path d="m320.323 52.497c-2.717 0-5.36-1.41-6.816-3.933l-7.676-13.296c-2.171-3.76-.882-8.569 2.878-10.74 3.759-2.17 8.57-.883 10.74 2.878l7.676 13.296c2.171 3.76.882 8.569-2.878 10.74-1.238.715-2.59 1.055-3.924 1.055z"/><path d="m437.601 255.627c-2.717 0-5.359-1.41-6.816-3.932l-7.677-13.295c-2.171-3.76-.883-8.569 2.878-10.74 3.759-2.171 8.568-.883 10.74 2.877l7.677 13.295c2.171 3.76.883 8.569-2.878 10.74-1.238.716-2.59 1.055-3.924 1.055z"/></g><g><path d="m280.192 92.614c-1.334 0-2.686-.34-3.924-1.055l-13.295-7.676c-3.76-2.171-5.049-6.98-2.878-10.74 2.17-3.761 6.981-5.05 10.74-2.878l13.295 7.676c3.76 2.171 5.049 6.98 2.878 10.74-1.456 2.523-4.099 3.933-6.816 3.933z"/><path d="m483.322 209.892c-1.334 0-2.685-.34-3.924-1.054l-13.296-7.676c-3.76-2.171-5.049-6.98-2.878-10.74 2.17-3.761 6.978-5.05 10.74-2.878l13.296 7.676c3.76 2.171 5.049 6.98 2.878 10.74-1.455 2.521-4.099 3.932-6.816 3.932z"/></g></g><path d="m375.117 276.434c-75.478 0-136.883-61.406-136.883-136.883s61.405-136.883 136.883-136.883 136.883 61.406 136.883 136.883c0 75.478-61.405 136.883-136.883 136.883zm0-258.042c-66.807 0-121.159 54.352-121.159 121.159s54.352 121.159 121.159 121.159 121.159-54.352 121.159-121.159-54.352-121.159-121.159-121.159z" fill="#698ed5"/></g></g></svg>