<svg id="Capa_1" enable-background="new 0 0 511.996 511.996" height="512" viewBox="0 0 511.996 511.996" width="512" xmlns="http://www.w3.org/2000/svg"><g><g><path d="m351.165 439.799c-.802 11.326-1.776 22.662-2.943 33.988-.213 2.05-.426 4.1-.65 6.15-1.543 14.188-12.909 25.311-27.127 26.427-95.265 7.51-190.531 7.51-285.797 0-14.218-1.116-25.585-12.239-27.127-26.427-.223-2.05-.436-4.09-.649-6.14v-.01c-1.167-11.326-2.141-22.662-2.943-33.988-4.516-63.723-3.319-127.457 3.592-191.181 1.543-14.188 12.909-25.311 27.127-26.427 95.266-7.51 190.531-7.51 285.797 0 14.218 1.116 25.585 12.239 27.127 26.427 6.912 63.723 8.109 127.457 3.593 191.181z" fill="#f6e266"/><g fill="#ffd064"><path d="m40.855 506.835c-2.073-.149-4.139-.306-6.205-.47-14.222-1.119-25.587-12.245-27.123-26.43-8.36-77.105-8.36-154.217 0-231.322 1.536-14.184 12.902-25.304 27.123-26.43 2.066-.164 4.132-.321 6.205-.47-7.204 4.974-12.186 12.947-13.185 22.164-8.703 80.267-8.703 160.526 0 240.793.999 9.218 5.981 17.191 13.185 22.165z"/><path d="m351.165 439.799c-.802 11.326-1.776 22.662-2.943 33.988-2.395-19.597-24.316-51.799-56.924-82.925-3.034-2.902-3.146-7.713-.244-10.758 2.903-3.045 7.713-3.156 10.757-.254 22.004 21.008 38.85 41.62 49.354 59.949z"/><path d="m63.796 390.862c-32.608 31.126-54.529 63.328-56.924 82.925-1.167-11.326-2.141-22.662-2.943-33.988 10.504-18.328 27.351-38.94 49.353-59.948 3.045-2.903 7.855-2.791 10.758.254 2.902 3.044 2.79 7.854-.244 10.757z"/><path d="m347.563 248.614v-.047c-1.558-14.162-12.911-25.261-27.119-26.381-95.265-7.509-190.53-7.509-285.795 0-14.22 1.121-25.581 12.238-27.123 26.418l.003.01c-1.689 19.285 15.606 49.328 41.979 79.065.916 1.026 103.527 66.167 128.038 73.484 24.952-7.452 128.038-73.492 128.038-73.492 26.373-29.736 43.668-59.78 41.979-79.057z"/></g><g><path d="m305.583 327.671c-.829.939-1.674 1.879-2.526 2.818-9.007 9.938-18.993 19.798-29.594 29.16-6.039 5.344-12.275 10.515-18.637 15.464-25.15 19.537-52.328 35.396-77.28 42.848-24.51-7.318-51.152-22.742-75.923-41.798-17.043-13.112-33.194-27.936-47.158-43.013-.742-.805-1.468-1.595-2.187-2.392-.932-1.026-1.855-2.052-2.771-3.078-1.437-38.956-1.389-77.904.15-116.86l93.518-90.542c45.074-1.634 90.147-.055 135.221 4.736 12.535 1.334 22.355 11.375 23.358 23.942 4.753 59.566 6.032 119.14 3.829 178.715z" fill="#f9f6f9"/><g fill="#dddaec"><path d="m306.499 290.31c-.15 12.456-.458 24.905-.916 37.362-.829.939-1.673 1.879-2.526 2.818-9.007 9.938-18.993 19.798-29.594 29.16-6.039 5.344-12.275 10.515-18.637 15.464-25.15 19.537-52.328 35.396-77.28 42.848-24.51-7.317-51.152-22.742-75.923-41.798-17.043-13.112-33.194-27.936-47.158-43.013-.742-.805-1.468-1.595-2.187-2.392-.932-1.026-1.855-2.052-2.771-3.079-.458-12.456-.766-24.905-.916-37.362.3.347.608.695.916 1.042.916 1.026 1.839 2.052 2.771 3.078.718.797 1.445 1.587 2.187 2.392 13.964 15.077 30.115 29.902 47.158 43.013 24.771 19.056 51.412 34.48 75.923 41.798 24.952-7.452 52.131-23.31 77.28-42.848 6.362-4.949 12.599-10.12 18.637-15.464 10.601-9.362 20.587-19.222 29.594-29.16.853-.939 1.697-1.879 2.526-2.818.308-.347.616-.694.916-1.041z"/><path d="m49.655 210.82c22.157-.797 44.315-2.378 66.479-4.737 12.531-1.331 22.355-11.372 23.356-23.936 1.647-20.622 2.873-41.244 3.683-61.867-22.157.797-92.707 69.918-93.518 90.54z"/></g></g><path d="m265.341 256.226h-175.585c-4.204 0-7.611-3.408-7.611-7.611 0-4.204 3.407-7.611 7.611-7.611h175.585c4.204 0 7.612 3.408 7.612 7.611-.001 4.203-3.408 7.611-7.612 7.611z" fill="#365e7d"/><path d="m265.341 289.366h-175.585c-4.204 0-7.611-3.408-7.611-7.611 0-4.204 3.407-7.612 7.611-7.612h175.585c4.204 0 7.612 3.408 7.612 7.612-.001 4.203-3.408 7.611-7.612 7.611z" fill="#365e7d"/><path d="m214.978 322.505h-125.222c-4.204 0-7.611-3.408-7.611-7.611s3.407-7.612 7.611-7.612h125.222c4.204 0 7.611 3.408 7.611 7.612s-3.407 7.611-7.611 7.611z" fill="#365e7d"/></g><g><circle cx="376.256" cy="134.488" fill="#d3effb" r="126.764"/><path d="m398.405 259.415c-7.019 1.217-14.243 1.841-21.607 1.841-70.01 0-126.768-56.757-126.768-126.768s56.758-126.767 126.768-126.767c7.364 0 14.588.624 21.607 1.841-59.707 10.249-105.15 62.28-105.15 124.927s45.443 114.677 105.15 124.926z" fill="#9dc6fb"/><path d="m376.256 150.637h-58.894c-8.919 0-16.149-7.23-16.149-16.149s7.23-16.149 16.149-16.149h58.894c8.919 0 0 7.23 0 16.149s0 10.825 0 16.149z" fill="#365e7d"/><path d="m376.256 150.637c-8.919 0-16.149-7.23-16.149-16.149v-41.234c0-8.919 7.23-16.149 16.149-16.149s16.149 7.23 16.149 16.149v41.234c-.001 8.919-7.231 16.149-16.149 16.149z" fill="#2b4d66"/><g fill="#365e7d"><g><path d="m376.256 45c-4.267 0-7.725-3.458-7.725-7.725v-25.554c0-4.266 3.458-7.725 7.725-7.725s7.725 3.458 7.725 7.725v25.554c0 4.267-3.458 7.725-7.725 7.725z"/><path d="m376.256 264.98c-4.267 0-7.725-3.458-7.725-7.725v-25.555c0-4.266 3.458-7.725 7.725-7.725s7.725 3.458 7.725 7.725v25.555c0 4.267-3.458 7.725-7.725 7.725z"/></g><g><path d="m499.023 142.213h-25.555c-4.267 0-7.725-3.458-7.725-7.725 0-4.266 3.458-7.725 7.725-7.725h25.555c4.267 0 7.725 3.458 7.725 7.725-.001 4.266-3.459 7.725-7.725 7.725z"/><path d="m279.043 142.213h-25.555c-4.266 0-7.725-3.458-7.725-7.725 0-4.266 3.458-7.725 7.725-7.725h25.555c4.267 0 7.725 3.458 7.725 7.725 0 4.266-3.458 7.725-7.725 7.725z"/></g><g><path d="m469.519 88.372c-2.669 0-5.266-1.386-6.697-3.864-2.133-3.695-.867-8.419 2.827-10.552l13.064-7.542c3.692-2.132 8.42-.867 10.552 2.828 2.133 3.695.867 8.419-2.827 10.552l-13.064 7.542c-1.215.702-2.544 1.036-3.855 1.036z"/><path d="m269.944 203.598c-2.669 0-5.265-1.385-6.697-3.864-2.133-3.695-.867-8.419 2.827-10.552l13.062-7.542c3.693-2.133 8.418-.868 10.552 2.827 2.133 3.695.867 8.419-2.827 10.552l-13.063 7.542c-1.215.703-2.544 1.037-3.854 1.037z"/></g><g><path d="m430.09 48.958c-1.311 0-2.639-.334-3.855-1.036-3.694-2.133-4.961-6.858-2.827-10.552l7.543-13.063c2.133-3.695 6.858-4.96 10.552-2.827s4.961 6.858 2.827 10.552l-7.543 13.063c-1.431 2.477-4.027 3.863-6.697 3.863z"/><path d="m314.865 248.534c-1.311 0-2.638-.334-3.855-1.036-3.694-2.133-4.961-6.857-2.827-10.552l7.542-13.063c2.132-3.695 6.856-4.961 10.552-2.827 3.694 2.133 4.961 6.857 2.827 10.552l-7.542 13.063c-1.43 2.477-4.027 3.863-6.697 3.863z"/></g><g><path d="m322.421 48.958c-2.669 0-5.266-1.386-6.697-3.864l-7.542-13.063c-2.133-3.695-.867-8.419 2.827-10.552 3.693-2.132 8.42-.867 10.552 2.828l7.542 13.063c2.133 3.695.867 8.419-2.827 10.552-1.216.702-2.544 1.036-3.855 1.036z"/><path d="m437.647 248.534c-2.669 0-5.265-1.385-6.697-3.863l-7.543-13.063c-2.133-3.694-.868-8.419 2.827-10.552 3.693-2.133 8.418-.868 10.552 2.827l7.543 13.063c2.133 3.694.868 8.419-2.827 10.552-1.216.702-2.544 1.036-3.855 1.036z"/></g><g><path d="m282.992 88.372c-1.311 0-2.639-.334-3.855-1.036l-13.062-7.542c-3.694-2.133-4.961-6.857-2.827-10.552 2.132-3.695 6.859-4.961 10.552-2.827l13.063 7.542c3.694 2.133 4.961 6.857 2.827 10.552-1.432 2.478-4.029 3.863-6.698 3.863z"/><path d="m482.569 203.598c-1.311 0-2.638-.334-3.855-1.036l-13.064-7.542c-3.694-2.133-4.961-6.857-2.827-10.552 2.132-3.695 6.856-4.961 10.552-2.828l13.064 7.542c3.694 2.133 4.961 6.857 2.827 10.552-1.431 2.478-4.028 3.864-6.697 3.864z"/></g></g><path d="m376.256 268.977c-74.158 0-134.488-60.331-134.488-134.488 0-74.158 60.33-134.489 134.488-134.489s134.488 60.331 134.488 134.488c.001 74.157-60.33 134.489-134.488 134.489zm0-253.528c-65.638 0-119.039 53.401-119.039 119.039s53.401 119.039 119.039 119.039 119.039-53.401 119.039-119.039-53.4-119.039-119.039-119.039z" fill="#dd636e"/></g></g></svg>