<svg id="Capa_1" enable-background="new 0 0 512 512" height="512" viewBox="0 0 512 512" width="512" xmlns="http://www.w3.org/2000/svg"><g><path d="m450.262 504.628c-84.18 8.91-168.36 8.91-252.54 0-30.195-3.196-53.717-27.629-55.652-57.931-8.115-127.131-8.115-254.262 0-381.393 1.934-30.302 25.456-54.735 55.651-57.931 84.18-8.91 168.36-8.91 252.54 0 30.195 3.196 53.717 27.629 55.651 57.931 8.115 127.131 8.115 254.262 0 381.393-1.932 30.302-25.454 54.735-55.65 57.931z" fill="#365e7d"/><path d="m188.9 503.05c-25.85-6.555-45.093-29.076-46.829-56.353-8.116-127.131-8.116-254.262 0-381.393 1.736-27.278 20.98-49.798 46.829-56.353-15.658 10.973-26.168 28.654-27.462 48.853-8.435 132.134-8.435 264.259 0 396.393 1.294 20.198 11.804 37.88 27.462 48.853z" fill="#2b4d66"/><path d="m474.675 413.953c-1.603 25.099-21.082 45.339-46.089 47.99-69.73 7.377-139.46 7.377-209.18 0-25.017-2.651-44.497-22.891-46.1-47.99-6.719-105.299-6.719-210.608 0-315.906 1.603-25.1 21.082-45.339 46.1-47.99 8.158-.863 16.305-1.623 24.462-2.281 2.825 11.045 12.267 19.439 23.959 20.682 37.439 3.956 74.887 3.956 112.326 0 11.692-1.243 21.134-9.637 23.959-20.682 8.158.658 16.315 1.418 24.473 2.281 25.007 2.651 44.487 22.89 46.089 47.99 6.731 105.299 6.731 210.607.001 315.906z" fill="#f9f6f9"/><path d="m361.915 43.35h-75.847c-4.268 0-7.726-3.459-7.726-7.726s3.459-7.726 7.726-7.726h75.847c4.268 0 7.726 3.459 7.726 7.726s-3.458 7.726-7.726 7.726z" fill="#2b4d66"/><g><path d="m335.551 174.512c-5.557 0-11.081-1.278-16.21-3.81-18.142-8.956-25.616-31.002-16.66-49.145 4.339-8.789 11.84-15.362 21.122-18.509 9.283-3.147 19.235-2.49 28.023 1.848 8.789 4.338 15.362 11.839 18.509 21.122 3.146 9.282 2.49 19.234-1.848 28.023-4.339 8.789-11.84 15.362-21.123 18.509-3.865 1.311-7.848 1.962-11.813 1.962zm.052-57.964c-2.296 0-4.601.377-6.838 1.135-5.373 1.821-9.715 5.626-12.226 10.714-5.185 10.502-.858 23.264 9.644 28.449 5.087 2.511 10.847 2.891 16.221 1.07 5.373-1.822 9.715-5.627 12.226-10.714 2.512-5.088 2.891-10.849 1.07-16.222-1.822-5.373-5.627-9.715-10.714-12.227-2.969-1.465-6.167-2.205-9.383-2.205z" fill="#ffd064"/><circle cx="158.429" cy="339.864" fill="#e7a561" r="37.771"/><path d="m154.125 377.389c-4.21-.477-8.408-1.678-12.415-3.656-18.706-9.234-26.384-31.882-17.15-50.589 9.234-18.706 31.882-26.384 50.589-17.15 4.007 1.978 7.514 4.58 10.453 7.632-15.391-1.781-30.917 6.107-38.173 20.806-7.258 14.701-4.078 31.823 6.696 42.957z" fill="#e29375"/><path d="m221.949 371.22c46.277 22.844 82.109 35.141 108.784 41.6 37.713 9.131 64.519-36.114 38.502-64.901-.235-.26-.47-.518-.703-.772-9.543-10.393-12.346-25.332-6.887-38.343 6.278-14.962 10.673-28.157 13.741-39.468 11.23-41.399-5.221-85.524-41.128-108.99-3.902-2.55-6.345-3.783-6.345-3.783s-2.464-1.19-6.861-2.737c-40.464-14.234-85.497-.46-111.532 33.63-7.113 9.314-14.915 20.827-22.975 34.91-7.008 12.247-20.572 19.106-34.626 17.851-.344-.031-.691-.06-1.041-.089-38.674-3.147-58.289 45.647-28.107 70.032 21.348 17.249 52.901 38.216 99.178 61.06z" fill="#f6e266"/><path d="m327.913 156.555s-1.092-.513-3.179-.878c-19.242-3.452-47.86 20.342-70.748 58.481-6.25 10.43-13.425 23.069-21.367 38.172-6.905 13.131-16.185 22.821-23.767 25.074-.18.052-.375.11-.559.172-19.081 5.877-39.765 48.218-34.931 67.335-21.216-12.664-37.746-24.385-50.586-34.759-30.178-24.378-10.571-73.181 28.11-70.023.349.019.694.048 1.033.087 14.063 1.254 27.621-5.607 34.628-17.855 8.066-14.082 15.862-25.594 22.971-34.908 26.043-34.097 71.069-47.869 111.533-33.633 4.4 1.545 6.862 2.735 6.862 2.735z" fill="#ffd064"/></g><g fill="#f6e266"><path d="m69.223 213.082-1.046 1.812c-3.689 6.389-11.695 8.831-18.321 5.588l-20.383-9.975c-7.301-3.573-10.049-12.582-5.985-19.621l2.599-4.501c4.064-7.039 13.24-9.164 19.985-4.628l18.83 12.665c6.121 4.117 8.009 12.271 4.321 18.66z"/><path d="m50.706 280.095v2.092c0 7.378-5.713 13.495-13.073 14l-22.64 1.553c-8.109.557-14.993-5.872-14.993-14v-5.198c0-8.128 6.884-14.557 14.994-14l22.64 1.553c7.36.505 13.072 6.623 13.072 14z"/><path d="m68.177 347.388 1.046 1.812c3.689 6.389 1.8 14.544-4.321 18.661l-18.83 12.665c-6.745 4.536-15.921 2.412-19.985-4.628l-2.599-4.501c-4.064-7.039-1.316-16.048 5.985-19.621l20.383-9.975c6.626-3.244 14.632-.802 18.321 5.587z"/></g></g></svg>