<svg id="Capa_1" enable-background="new 0 0 512 512" height="512" viewBox="0 0 512 512" width="512" xmlns="http://www.w3.org/2000/svg"><g><path d="m157.432 9.155c74.935-2.727 149.86-.099 224.784 7.875 20.842 2.212 37.161 18.904 38.826 39.789 10.799 135.414 10.799 270.827 0 406.251-1.665 20.886-17.984 37.577-38.826 39.789-111.757 11.894-223.524 11.894-335.292 0-20.831-2.212-37.161-18.904-38.826-39.789-8.061-101.143-10.109-202.276-6.122-303.409" fill="#f9f6f9"/><g><path d="m356.41 271.272h-283.679c-4.207 0-7.617-3.41-7.617-7.617s3.41-7.617 7.617-7.617h283.679c4.207 0 7.617 3.41 7.617 7.617s-3.41 7.617-7.617 7.617z" fill="#365e7d"/><path d="m203.022 218.424h-130.296c-4.207 0-7.617-3.41-7.617-7.617s3.41-7.617 7.617-7.617h130.295c4.207 0 7.617 3.41 7.617 7.617s-3.409 7.617-7.616 7.617z" fill="#2b4d66"/><g fill="#365e7d"><path d="m356.41 324.117h-283.679c-4.207 0-7.617-3.41-7.617-7.617s3.41-7.617 7.617-7.617h283.679c4.207 0 7.617 3.41 7.617 7.617s-3.41 7.617-7.617 7.617z"/><path d="m356.41 376.963h-283.679c-4.207 0-7.617-3.41-7.617-7.617s3.41-7.617 7.617-7.617h283.679c4.207 0 7.617 3.41 7.617 7.617s-3.41 7.617-7.617 7.617z"/><path d="m301.41 429.808h-228.679c-4.207 0-7.617-3.41-7.617-7.617s3.41-7.617 7.617-7.617h228.679c4.207 0 7.617 3.41 7.617 7.617s-3.41 7.617-7.617 7.617z"/></g></g><path d="m1.976 159.661c36.832-1.325 73.665-3.954 110.508-7.875 20.831-2.212 37.161-18.904 38.826-39.79 2.738-34.281 4.775-68.561 6.122-102.841-36.832 1.325-154.109 116.225-155.456 150.506z" fill="#dddaec"/><g><circle cx="379.845" cy="132.374" fill="#d3effb" r="124.564"/><path d="m401.61 255.133c-6.898 1.195-13.996 1.809-21.232 1.809-68.795 0-124.568-55.773-124.568-124.568s55.773-124.568 124.568-124.568c7.236 0 14.335.614 21.232 1.809-58.671 10.071-103.325 61.2-103.325 122.759s44.654 112.688 103.325 122.759z" fill="#9dc6fb"/><path d="m379.845 148.242h-57.872c-8.764 0-15.869-7.105-15.869-15.869s7.105-15.869 15.869-15.869h57.872c8.764 0 0 7.105 0 15.869z" fill="#365e7d"/><path d="m379.845 148.242c-8.764 0-15.869-7.105-15.869-15.869v-40.518c0-8.764 7.105-15.869 15.869-15.869s15.869 7.105 15.869 15.869v40.519c-.001 8.764-7.105 15.868-15.869 15.868z" fill="#2b4d66"/><g fill="#365e7d"><g><path d="m379.845 44.439c-4.193 0-7.591-3.398-7.591-7.591v-25.111c0-4.192 3.398-7.591 7.591-7.591s7.591 3.398 7.591 7.591v25.111c0 4.192-3.398 7.591-7.591 7.591z"/><path d="m379.845 260.602c-4.193 0-7.591-3.398-7.591-7.591v-25.111c0-4.192 3.398-7.591 7.591-7.591s7.591 3.398 7.591 7.591v25.111c0 4.192-3.398 7.591-7.591 7.591z"/></g><g><path d="m500.482 139.964h-25.112c-4.193 0-7.591-3.398-7.591-7.591 0-4.192 3.398-7.591 7.591-7.591h25.111c4.193 0 7.591 3.398 7.591 7.591s-3.398 7.591-7.59 7.591z"/><path d="m284.319 139.964h-25.111c-4.192 0-7.591-3.398-7.591-7.591 0-4.192 3.398-7.591 7.591-7.591h25.111c4.193 0 7.591 3.398 7.591 7.591s-3.398 7.591-7.591 7.591z"/></g><g><path d="m471.49 87.058c-2.623 0-5.175-1.361-6.581-3.797-2.096-3.631-.852-8.273 2.778-10.369l12.837-7.411c3.628-2.095 8.274-.852 10.369 2.779 2.096 3.631.852 8.273-2.778 10.369l-12.837 7.411c-1.195.69-2.5 1.018-3.788 1.018z"/><path d="m275.377 200.284c-2.623 0-5.174-1.361-6.581-3.797-2.096-3.63-.852-8.273 2.778-10.369l12.836-7.411c3.629-2.096 8.272-.853 10.369 2.778 2.096 3.631.852 8.273-2.778 10.369l-12.836 7.411c-1.194.691-2.5 1.019-3.788 1.019z"/></g><g><path d="m432.745 48.327c-1.288 0-2.593-.328-3.788-1.018-3.63-2.096-4.875-6.739-2.778-10.369l7.412-12.836c2.096-3.631 6.739-4.874 10.369-2.778s4.875 6.739 2.778 10.369l-7.412 12.836c-1.407 2.435-3.958 3.796-6.581 3.796z"/><path d="m319.52 244.44c-1.288 0-2.592-.328-3.788-1.018-3.63-2.096-4.875-6.738-2.778-10.369l7.411-12.836c2.095-3.631 6.737-4.875 10.369-2.778 3.63 2.096 4.875 6.738 2.778 10.369l-7.411 12.836c-1.406 2.435-3.958 3.796-6.581 3.796z"/></g><g><path d="m326.944 48.327c-2.623 0-5.175-1.361-6.581-3.797l-7.411-12.836c-2.096-3.63-.852-8.273 2.778-10.369 3.629-2.095 8.274-.852 10.369 2.779l7.411 12.836c2.096 3.631.852 8.273-2.778 10.369-1.194.69-2.5 1.018-3.788 1.018z"/><path d="m440.171 244.44c-2.623 0-5.174-1.361-6.581-3.796l-7.412-12.836c-2.096-3.63-.853-8.273 2.778-10.369 3.629-2.096 8.272-.853 10.369 2.778l7.412 12.836c2.096 3.63.853 8.273-2.778 10.369-1.195.69-2.5 1.018-3.788 1.018z"/></g><g><path d="m288.199 87.058c-1.288 0-2.593-.328-3.788-1.018l-12.836-7.411c-3.63-2.096-4.875-6.738-2.778-10.369 2.095-3.631 6.74-4.875 10.369-2.778l12.836 7.411c3.63 2.096 4.875 6.738 2.778 10.369-1.406 2.435-3.957 3.796-6.581 3.796z"/><path d="m484.313 200.284c-1.288 0-2.592-.328-3.788-1.018l-12.837-7.411c-3.63-2.096-4.875-6.738-2.778-10.369 2.095-3.631 6.737-4.875 10.369-2.779l12.837 7.411c3.63 2.096 4.875 6.738 2.778 10.369-1.406 2.436-3.958 3.797-6.581 3.797z"/></g></g><path d="m379.845 264.529c-72.871 0-132.155-59.284-132.155-132.155 0-72.87 59.284-132.155 132.155-132.155s132.155 59.285 132.155 132.155-59.284 132.155-132.155 132.155zm0-249.128c-64.499 0-116.974 52.474-116.974 116.973s52.474 116.974 116.974 116.974 116.974-52.474 116.974-116.974c0-64.499-52.474-116.973-116.974-116.973z" fill="#95d6a4"/></g></g></svg>