<svg id="Capa_1" enable-background="new 0 0 512 512" height="512" viewBox="0 0 512 512" width="512" xmlns="http://www.w3.org/2000/svg"><g><path d="m359.346 60.062s27.093 53.167 30.625 108.074c.47 7.302-2.179 14.467-7.264 19.729-8.946 9.257-25.358 25.187-47.17 41.868-16.916 12.936-16.916 38.539 0 51.475 21.812 16.68 38.225 32.611 47.17 41.868 5.085 5.262 7.734 12.426 7.264 19.729-3.532 54.907-30.625 108.074-30.625 108.074h-206.688s-27.093-53.167-30.625-108.074c-.47-7.302 2.179-14.467 7.264-19.729 8.946-9.257 25.358-25.187 47.17-41.868 16.916-12.936 16.916-38.539 0-51.475-21.812-16.68-38.225-32.611-47.17-41.868-5.085-5.262-7.734-12.426-7.264-19.729 3.532-54.907 30.625-108.074 30.625-108.074z" fill="#d3effb"/><path d="m222.373 281.59c-14.357 26.335-23.175 50.835-23.175 50.835 0 51.991 9.973 105.629 12.522 118.456h-59.058s-27.097-53.17-30.629-108.084c-.47-7.302 2.179-14.466 7.263-19.728 8.945-9.257 25.357-25.189 47.17-41.871 16.922-12.929 16.922-38.534 0-51.463-21.813-16.682-38.225-32.614-47.17-41.871-5.084-5.262-7.733-12.426-7.263-19.727 3.532-54.914 30.629-108.084 30.629-108.084h59.058c-2.549 12.828-12.522 66.466-12.522 118.456 0 0 8.818 24.5 23.175 50.835 7.153 13.134 7.153 39.112 0 52.246z" fill="#9dc6fb"/><path d="m341.057 134.245c4.242 17.539-1.714 35.963-15.346 47.786-4.984 4.322-10.586 8.941-16.711 13.624-7.356 5.62-13.03 12.805-16.726 20.916-6.429 14.118-20.754 22.966-36.275 22.966-15.512 0-29.846-8.848-36.275-22.966-3.687-8.111-9.37-15.296-16.717-20.916-6.121-4.68-11.722-9.297-16.705-13.617-13.628-11.816-19.584-30.229-15.356-47.763.293-1.216.594-2.422.902-3.617h168.31c.308 1.185.607 2.381.899 3.587z" fill="#f6e266"/><path d="m255.997 239.537c-15.514 0-29.843-8.844-36.275-22.967-3.69-8.113-9.37-15.298-16.72-20.915-6.113-4.68-11.721-9.298-16.699-13.617-13.628-11.813-19.586-30.224-15.359-47.758.299-1.216.598-2.423.907-3.618h47.769c-.134 1.196-.268 2.402-.392 3.618-1.825 17.534.742 35.945 6.639 47.758 2.154 4.319 4.577 8.937 7.226 13.617 3.175 5.618 5.628 12.803 7.226 20.915 2.783 14.123 8.978 22.967 15.678 22.967z" fill="#ffd064"/><g><path d="m331.589 423.693c0-49.01-38.851-89.203-60.846-108.031-8.478-7.257-21.005-7.257-29.482 0-21.995 18.828-60.846 59.021-60.846 108.031" fill="#f6e266"/><path d="m241.258 315.652c3.177-2.735 6.949-4.434 10.857-5.097-.459.713-.884 1.563-1.291 2.549-7.679 18.723-21.238 61.93-21.391 110.59h-49.017c-.001-49.018 38.839-89.217 60.842-108.042z" fill="#ffd064"/></g><path d="m377.673 423.693h-243.342c-17.123 0-31.003 13.881-31.003 31.003v26.301c0 17.123 13.881 31.003 31.003 31.003h243.343c17.123 0 31.003-13.881 31.003-31.003v-26.301c0-17.123-13.881-31.003-31.004-31.003z" fill="#9d6b6b"/><path d="m377.673.004h-243.342c-17.123 0-31.003 13.881-31.003 31.003v26.301c0 17.123 13.881 31.003 31.003 31.003h243.343c17.123 0 31.003-13.881 31.003-31.003v-26.301c0-17.122-13.881-31.003-31.004-31.003z" fill="#9d6b6b"/><path d="m188.704 88.299h-54.369c-17.126 0-31.007-13.881-31.007-30.99v-26.302c-.001-17.126 13.88-31.007 31.007-31.007h54.369c-17.126 0-31.007 13.881-31.007 31.007v26.301c-.001 17.11 13.88 30.991 31.007 30.991z" fill="#8b5e5e"/><path d="m188.7 511.991h-54.369c-17.126 0-31.007-13.881-31.007-30.99v-26.301c0-17.126 13.881-31.007 31.007-31.007h54.369c-17.126 0-31.007 13.881-31.007 31.007v26.301c-.001 17.11 13.88 30.99 31.007 30.99z" fill="#8b5e5e"/><g fill="#ffd064"><path d="m250.188 273.287c-4.27 0-7.731-3.461-7.731-7.731v-.515c0-4.27 3.461-7.731 7.731-7.731s7.731 3.461 7.731 7.731v.515c0 4.269-3.461 7.731-7.731 7.731z"/><path d="m268.997 289.962c-4.27 0-7.731-3.461-7.731-7.731v-.515c0-4.27 3.461-7.731 7.731-7.731s7.731 3.461 7.731 7.731v.515c0 4.269-3.461 7.731-7.731 7.731z"/><g><path d="m287.943 400.801c-4.27 0-7.731-3.461-7.731-7.731v-.515c0-4.27 3.461-7.731 7.731-7.731s7.731 3.461 7.731 7.731v.515c0 4.269-3.462 7.731-7.731 7.731z"/><path d="m275.807 380.267c-4.27 0-7.731-3.461-7.731-7.731v-.515c0-4.27 3.461-7.731 7.731-7.731s7.731 3.461 7.731 7.731v.515c0 4.27-3.461 7.731-7.731 7.731z"/><path d="m264.036 400.543c-4.27 0-7.731-3.461-7.731-7.731v-.515c0-4.27 3.461-7.731 7.731-7.731s7.731 3.461 7.731 7.731v.515c0 4.27-3.461 7.731-7.731 7.731z"/></g><g><path d="m234.184 159.014c-4.27 0-7.731-3.461-7.731-7.731v-.515c0-4.27 3.461-7.731 7.731-7.731s7.731 3.461 7.731 7.731v.515c.001 4.269-3.461 7.731-7.731 7.731z"/><path d="m246.32 179.548c-4.27 0-7.731-3.461-7.731-7.731v-.515c0-4.27 3.461-7.731 7.731-7.731s7.731 3.461 7.731 7.731v.515c.001 4.269-3.461 7.731-7.731 7.731z"/><path d="m258.091 159.271c-4.27 0-7.731-3.461-7.731-7.731v-.515c0-4.27 3.461-7.731 7.731-7.731s7.731 3.461 7.731 7.731v.515c0 4.27-3.461 7.731-7.731 7.731z"/></g><path d="m242.457 297.809c-4.27 0-7.731-3.461-7.731-7.731v-.515c0-4.27 3.461-7.731 7.731-7.731s7.731 3.461 7.731 7.731v.515c0 4.269-3.461 7.731-7.731 7.731z"/></g></g></svg>