<svg id="Capa_1" enable-background="new 0 0 512 512" height="512" viewBox="0 0 512 512" width="512" xmlns="http://www.w3.org/2000/svg"><g><g><path d="m502.897 423.953c-2.235 20.604-18.739 36.757-39.384 38.385-87.618 6.902-175.226 9.437-262.844 7.582-50.727-1.061-101.454-3.585-152.181-7.582-20.645-1.628-37.149-17.781-39.384-38.385-9.788-90.286-11.683-180.573-5.687-270.859.968-14.515 9.612-19.007 15.927-26.898 3.122-3.894 5.676-8.612 6.459-15.793 2.225-20.594 18.729-36.747 39.384-38.375 138.335-10.899 232.629-13.794 370.963-2.885 20.655 1.628 37.159 17.781 39.394 38.375 2.349 21.696 31.596 23.911 33.038 45.596 5.997 90.287 4.102 180.563-5.685 270.839z" fill="#f9f6f9"/><path d="m508.588 153.119-.206-.021c-168.252-14.835-336.503-14.835-504.755 0l-.206.031c1.432-21.696 3.328-43.382 5.687-65.077 2.235-20.604 18.739-36.757 39.384-38.385 138.345-10.899 276.68-10.899 415.025 0 20.645 1.628 37.149 17.781 39.384 38.385 2.359 21.685 4.255 43.381 5.687 65.067z" fill="#9dc6fb"/><circle cx="65.187" cy="96.195" fill="#dd636e" r="24.165"/><circle cx="210.179" cy="96.195" fill="#95d6a4" r="24.165"/><circle cx="137.683" cy="96.195" fill="#f6e266" r="24.165"/></g><g><g><g fill="#365e7d"><path d="m356.085 231.388h-165.612c-4.267 0-7.726-3.459-7.726-7.726s3.459-7.726 7.726-7.726h165.612c4.267 0 7.726 3.459 7.726 7.726s-3.459 7.726-7.726 7.726z"/><path d="m428.137 269.151h-237.664c-4.267 0-7.726-3.459-7.726-7.726s3.459-7.726 7.726-7.726h237.664c4.267 0 7.726 3.459 7.726 7.726.001 4.267-3.459 7.726-7.726 7.726z"/></g><path d="m107.471 288.905c-2.751 0-5.302-1.465-6.687-3.857l-23.609-40.804c-2.137-3.693-.875-8.42 2.818-10.557 3.691-2.136 8.42-.875 10.557 2.818l16.355 28.268 34.132-69.661c1.877-3.833 6.507-5.416 10.338-3.539 3.832 1.877 5.417 6.506 3.539 10.338l-40.505 82.668c-1.255 2.562-3.82 4.224-6.672 4.323-.088.001-.178.003-.266.003z" fill="#95d6a4"/></g><g><g fill="#365e7d"><path d="m356.085 341.777h-165.612c-4.267 0-7.726-3.459-7.726-7.726s3.459-7.726 7.726-7.726h165.612c4.267 0 7.726 3.459 7.726 7.726 0 4.266-3.459 7.726-7.726 7.726z"/><path d="m428.137 379.54h-237.664c-4.267 0-7.726-3.459-7.726-7.726s3.459-7.726 7.726-7.726h237.664c4.267 0 7.726 3.459 7.726 7.726.001 4.267-3.459 7.726-7.726 7.726z"/></g><path d="m107.471 399.293c-2.751 0-5.302-1.465-6.687-3.857l-23.609-40.804c-2.137-3.693-.875-8.42 2.818-10.557 3.691-2.136 8.42-.876 10.557 2.818l16.355 28.268 34.132-69.661c1.877-3.833 6.507-5.416 10.338-3.539 3.832 1.877 5.417 6.506 3.539 10.338l-40.505 82.668c-1.255 2.562-3.82 4.224-6.672 4.323-.088.002-.178.003-.266.003z" fill="#95d6a4"/></g></g></g></svg>