<svg id="Capa_1" enable-background="new 0 0 512 512" height="512" viewBox="0 0 512 512" width="512" xmlns="http://www.w3.org/2000/svg"><g><path d="m277.872 1.059c-76.175-2.772-152.339-.1-228.503 8.005-21.186 2.249-37.775 19.216-39.467 40.448-10.978 137.654-10.978 275.308 0 412.972 1.692 21.231 18.281 38.199 39.468 40.448 113.606 12.091 227.222 12.091 340.839 0 21.176-2.249 37.776-19.216 39.468-40.448 8.194-102.817 10.276-205.623 6.224-308.43" fill="#f9f6f9"/><path d="m435.9 154.055c-37.442-1.347-74.883-4.019-112.336-8.005-21.176-2.249-37.776-19.216-39.468-40.448-2.783-34.848-4.854-69.695-6.224-104.543 37.442 1.347 156.659 118.148 158.028 152.996z" fill="#dddaec"/><g><path d="m502.605 285.205c-7.139 0-11.381-3.379-13.683-6.214-9.259-11.399-4.298-35.068.954-60.126 2.573-12.276 5.003-23.871 5.003-31.259 0-22.843-9.06-31.743-32.316-31.743-4.268 0-7.726-3.459-7.726-7.726s3.459-7.726 7.726-7.726c31.697 0 47.769 15.879 47.769 47.195 0 8.99-2.59 21.347-5.331 34.429-3.256 15.531-8.703 41.526-4.084 47.215.162.2.407.503 1.688.503 4.268 0 7.726 3.459 7.726 7.726s-3.458 7.726-7.726 7.726z" fill="#f6e266"/><path d="m418.192 391.012v40.741c0 9.808 7.951 17.759 17.759 17.759 9.808 0 17.759-7.951 17.759-17.759v-40.741" fill="#f6e266"/><path d="m443.377 447.88c-2.262 1.054-4.776 1.636-7.432 1.636-9.804 0-17.752-7.948-17.752-17.763v-40.741h14.854v40.741c-.001 7.158 4.226 13.328 10.33 16.127z" fill="#ffd064"/><path d="m472.864 148.137c2.952 35.831 8.754 110.532 13.23 194.821 0 0-16.714 42.83-32.384 72.08h-17.759-17.759c-15.67-29.25-32.384-72.08-32.384-72.08 4.476-84.289 10.278-158.991 13.23-194.821 1.046-12.697 11.658-22.464 24.399-22.464h25.029c12.74 0 23.352 9.767 24.398 22.464z" fill="#dd636e"/><path d="m430.216 415.039h-12.021c-15.677-29.247-32.386-72.085-32.386-72.085 4.468-84.282 10.276-158.99 13.229-194.813 1.043-12.702 11.659-22.473 24.394-22.473h4.831c-16.424 35.91-16.753 181.122-12.713 213.663 3.282 26.393 11.066 60.591 14.666 75.708z" fill="#cb5769"/><path d="m486.101 350.686c-.441 0-.888-.038-1.337-.116-32.39-5.653-65.234-5.653-97.625 0-4.2.733-8.205-2.08-8.94-6.283-.733-4.204 2.079-8.206 6.284-8.94 34.151-5.96 68.784-5.96 102.937 0 4.204.734 7.017 4.736 6.284 8.94-.656 3.754-3.919 6.399-7.603 6.399z" fill="#f6e266"/></g><path d="m270.518 161.781h-133.882c-4.268 0-7.726-3.459-7.726-7.726s3.459-7.726 7.726-7.726h133.882c4.268 0 7.726 3.459 7.726 7.726s-3.458 7.726-7.726 7.726z" fill="#365e7d"/><path d="m328.767 199.544h-192.131c-4.268 0-7.726-3.459-7.726-7.726s3.459-7.726 7.726-7.726h192.131c4.268 0 7.726 3.459 7.726 7.726s-3.458 7.726-7.726 7.726z" fill="#365e7d"/><path d="m69.536 219.297c-2.992 0-5.724-1.73-6.998-4.453l-19.086-40.803c-1.808-3.865-.14-8.464 3.725-10.272 3.863-1.808 8.464-.141 10.273 3.725l11.498 24.582 26.15-66.017c1.571-3.968 6.066-5.908 10.028-4.338 3.968 1.571 5.909 6.061 4.338 10.029l-32.744 82.666c-1.136 2.867-3.867 4.784-6.95 4.878-.078.002-.157.003-.234.003z" fill="#95d6a4"/><path d="m270.518 272.168h-133.882c-4.268 0-7.726-3.459-7.726-7.726s3.459-7.726 7.726-7.726h133.882c4.268 0 7.726 3.459 7.726 7.726.001 4.267-3.458 7.726-7.726 7.726z" fill="#365e7d"/><path d="m328.767 309.932h-192.131c-4.268 0-7.726-3.459-7.726-7.726s3.459-7.726 7.726-7.726h192.131c4.268 0 7.726 3.459 7.726 7.726s-3.458 7.726-7.726 7.726z" fill="#365e7d"/><path d="m69.536 329.684c-2.992 0-5.724-1.73-6.998-4.453l-19.086-40.803c-1.808-3.865-.14-8.464 3.725-10.272 3.863-1.808 8.464-.141 10.273 3.725l11.498 24.582 26.15-66.018c1.571-3.968 6.066-5.908 10.028-4.338 3.968 1.571 5.909 6.061 4.338 10.029l-32.744 82.667c-1.136 2.867-3.867 4.784-6.95 4.878-.078.002-.157.003-.234.003z" fill="#95d6a4"/><g fill="#365e7d"><path d="m270.518 382.556h-133.882c-4.268 0-7.726-3.459-7.726-7.726s3.459-7.726 7.726-7.726h133.882c4.268 0 7.726 3.459 7.726 7.726s-3.458 7.726-7.726 7.726z"/><path d="m328.767 420.319h-192.131c-4.268 0-7.726-3.459-7.726-7.726s3.459-7.726 7.726-7.726h192.131c4.268 0 7.726 3.459 7.726 7.726s-3.458 7.726-7.726 7.726z"/></g></g></svg>