<svg id="Capa_1" enable-background="new 0 0 512 512" height="512" viewBox="0 0 512 512" width="512" xmlns="http://www.w3.org/2000/svg"><g><path d="m322.9 198.425c-2.351 0-4.674-1.069-6.191-3.095-2.56-3.416-1.865-8.26 1.551-10.82l85.458-64.025c3.416-2.559 8.261-1.865 10.82 1.551 2.56 3.416 1.865 8.26-1.551 10.82l-85.458 64.025c-1.391 1.041-3.017 1.544-4.629 1.544z" fill="#78c2a4"/><path d="m110.76 404.54c-2.082 0-4.157-.836-5.681-2.486-2.895-3.136-2.7-8.026.436-10.922l72.518-66.951c3.138-2.895 8.027-2.7 10.922.436s2.7 8.026-.436 10.922l-72.518 66.951c-1.487 1.372-3.366 2.05-5.241 2.05z" fill="#698ed5"/><path d="m183.214 192.993c-1.801 0-3.611-.626-5.075-1.902l-97.71-85.151c-3.217-2.805-3.554-7.687-.749-10.905 2.803-3.218 7.685-3.554 10.905-.749l97.71 85.151c3.217 2.804 3.554 7.687.749 10.905-1.529 1.754-3.674 2.651-5.83 2.651z" fill="#ffd064"/><path d="m394.756 414.031c-2.015 0-4.026-.782-5.542-2.341l-69.725-71.702c-2.976-3.06-2.907-7.953.153-10.929s7.953-2.907 10.929.153l69.725 71.702c2.976 3.06 2.907 7.953-.153 10.929-1.501 1.461-3.445 2.188-5.387 2.188z" fill="#e29375"/><g><path d="m130.267 114.527c-36.356 2.339-72.712 2.339-109.068 0-10.131-.652-18.256-8.542-19.246-18.645-2.466-25.161-2.466-50.322 0-75.483.99-10.103 9.116-17.993 19.246-18.645 36.356-2.339 72.712-2.339 109.068 0 10.131.652 18.256 8.542 19.246 18.645 2.466 25.161 2.466 50.322 0 75.484-.99 10.103-9.116 17.993-19.246 18.644z" fill="#f6e266"/><g fill="#2b4d66"><path d="m117.245 50.834h-83.023c-4.269 0-7.729-3.46-7.729-7.729s3.46-7.729 7.729-7.729h83.023c4.269 0 7.729 3.46 7.729 7.729s-3.46 7.729-7.729 7.729z"/><path d="m82.754 80.905h-48.532c-4.269 0-7.729-3.46-7.729-7.729s3.46-7.729 7.729-7.729h48.533c4.269 0 7.729 3.46 7.729 7.729-.001 4.269-3.461 7.729-7.73 7.729z"/></g></g><g><path d="m490.801 146.615c-36.356 2.339-72.712 2.339-109.068 0-10.131-.652-18.256-8.542-19.246-18.645-2.466-25.161-2.466-50.322 0-75.483.99-10.103 9.116-17.993 19.246-18.645 36.356-2.339 72.712-2.339 109.068 0 10.131.652 18.256 8.542 19.246 18.645 2.466 25.161 2.466 50.322 0 75.484-.99 10.102-9.116 17.993-19.246 18.644z" fill="#95d6a4"/><g fill="#2b4d66"><path d="m477.778 82.922h-83.023c-4.269 0-7.729-3.46-7.729-7.729s3.46-7.729 7.729-7.729h83.023c4.269 0 7.729 3.46 7.729 7.729 0 4.268-3.46 7.729-7.729 7.729z"/><path d="m443.289 112.993h-48.534c-4.269 0-7.729-3.46-7.729-7.729s3.46-7.729 7.729-7.729h48.534c4.269 0 7.729 3.46 7.729 7.729s-3.46 7.729-7.729 7.729z"/></g></g><g><path d="m458.344 472.133c-26.215 1.686-52.43 1.686-78.645 0-7.305-.47-13.164-6.159-13.878-13.444-1.778-18.143-1.778-36.286 0-54.429.714-7.285 6.573-12.974 13.878-13.444 26.215-1.686 52.43-1.686 78.645 0 7.305.47 13.164 6.159 13.878 13.444 1.778 18.143 1.778 36.286 0 54.429-.714 7.284-6.573 12.974-13.878 13.444z" fill="#e7a561"/><g fill="#2b4d66"><path d="m443.289 424.167h-48.534c-4.269 0-7.729-3.46-7.729-7.729s3.46-7.729 7.729-7.729h48.534c4.269 0 7.729 3.46 7.729 7.729s-3.46 7.729-7.729 7.729z"/><path d="m423.126 454.239h-28.371c-4.269 0-7.729-3.46-7.729-7.729s3.46-7.729 7.729-7.729h28.371c4.269 0 7.729 3.46 7.729 7.729 0 4.268-3.46 7.729-7.729 7.729z"/></g></g><g><path d="m146.991 510.022c-40.99 2.637-81.979 2.637-122.969 0-11.422-.735-20.583-9.631-21.699-21.021-2.78-28.368-2.78-56.736 0-85.104 1.116-11.391 10.278-20.287 21.699-21.021 40.99-2.637 81.979-2.637 122.969 0 11.422.735 20.583 9.63 21.699 21.021 2.78 28.368 2.78 56.736 0 85.104-1.116 11.391-10.277 20.287-21.699 21.021z" fill="#9dc6fb"/><g fill="#2b4d66"><path d="m127.019 454.178h-83.024c-4.269 0-7.729-3.46-7.729-7.729s3.46-7.729 7.729-7.729h83.024c4.269 0 7.729 3.46 7.729 7.729 0 4.268-3.46 7.729-7.729 7.729z"/><path d="m127.019 423.072h-83.024c-4.269 0-7.729-3.46-7.729-7.729s3.46-7.729 7.729-7.729h83.024c4.269 0 7.729 3.46 7.729 7.729s-3.46 7.729-7.729 7.729z"/><path d="m92.528 485.284h-48.533c-4.269 0-7.729-3.46-7.729-7.729s3.46-7.729 7.729-7.729h48.534c4.269 0 7.729 3.46 7.729 7.729-.001 4.268-3.461 7.729-7.73 7.729z"/></g></g><g><circle cx="256.324" cy="255.773" fill="#d3effb" r="125.414"/><path d="m278.238 379.37c-6.945 1.204-14.092 1.821-21.377 1.821-69.265 0-125.418-56.153-125.418-125.418s56.153-125.418 125.418-125.418c7.285 0 14.432.618 21.377 1.821-59.072 10.14-104.031 61.617-104.031 123.597s44.959 113.457 104.031 123.597z" fill="#9dc6fb"/><path d="m256.324 271.75h-58.267c-8.824 0-15.977-7.153-15.977-15.977s7.153-15.977 15.977-15.977h58.267c8.824 0 0 7.153 0 15.977z" fill="#365e7d"/><path d="m256.324 271.75c-8.824 0-15.977-7.153-15.977-15.977v-40.796c0-8.824 7.153-15.977 15.977-15.977s15.977 7.153 15.977 15.977v40.796c0 8.824-7.153 15.977-15.977 15.977z" fill="#2b4d66"/><g fill="#365e7d"><g><path d="m256.325 167.238c-4.221 0-7.642-3.422-7.642-7.642v-25.282c0-4.221 3.421-7.642 7.642-7.642s7.642 3.422 7.642 7.642v25.282c0 4.22-3.421 7.642-7.642 7.642z"/><path d="m256.325 384.876c-4.221 0-7.642-3.422-7.642-7.642v-25.283c0-4.221 3.421-7.642 7.642-7.642s7.642 3.422 7.642 7.642v25.283c0 4.221-3.421 7.642-7.642 7.642z"/></g><g><path d="m377.785 263.416h-25.283c-4.221 0-7.642-3.422-7.642-7.642 0-4.221 3.421-7.642 7.642-7.642h25.283c4.221 0 7.642 3.422 7.642 7.642s-3.421 7.642-7.642 7.642z"/><path d="m160.147 263.416h-25.283c-4.221 0-7.642-3.422-7.642-7.642 0-4.221 3.422-7.642 7.642-7.642h25.283c4.221 0 7.642 3.422 7.642 7.642s-3.421 7.642-7.642 7.642z"/></g><g><path d="m348.595 210.148c-2.641 0-5.21-1.371-6.625-3.823-2.111-3.655-.858-8.329 2.797-10.44l12.924-7.462c3.653-2.11 8.33-.858 10.44 2.798 2.111 3.655.858 8.329-2.797 10.44l-12.924 7.462c-1.204.695-2.518 1.025-3.815 1.025z"/><path d="m151.144 324.147c-2.641 0-5.209-1.371-6.625-3.822-2.111-3.655-.858-8.329 2.797-10.44l12.923-7.462c3.654-2.11 8.328-.859 10.44 2.797 2.111 3.655.858 8.329-2.797 10.44l-12.923 7.462c-1.204.695-2.519 1.025-3.815 1.025z"/></g><g><path d="m309.586 171.153c-1.297 0-2.611-.33-3.814-1.025-3.655-2.111-4.908-6.785-2.797-10.44l7.462-12.924c2.111-3.656 6.785-4.907 10.44-2.797 3.655 2.111 4.908 6.785 2.797 10.44l-7.462 12.924c-1.417 2.451-3.985 3.822-6.626 3.822z"/><path d="m195.587 368.605c-1.297 0-2.61-.33-3.814-1.025-3.655-2.11-4.908-6.784-2.797-10.44l7.461-12.924c2.11-3.656 6.783-4.909 10.44-2.797 3.655 2.11 4.908 6.784 2.797 10.44l-7.461 12.924c-1.415 2.451-3.985 3.822-6.626 3.822z"/></g><g><path d="m203.063 171.153c-2.641 0-5.21-1.371-6.625-3.823l-7.461-12.924c-2.111-3.655-.858-8.329 2.797-10.44 3.654-2.109 8.33-.858 10.44 2.798l7.461 12.924c2.111 3.655.858 8.329-2.797 10.44-1.204.695-2.519 1.025-3.815 1.025z"/><path d="m317.062 368.605c-2.641 0-5.209-1.371-6.625-3.822l-7.462-12.924c-2.111-3.655-.859-8.329 2.797-10.44 3.654-2.11 8.328-.859 10.44 2.797l7.462 12.924c2.111 3.655.859 8.329-2.797 10.44-1.204.694-2.518 1.025-3.815 1.025z"/></g><g><path d="m164.053 210.148c-1.297 0-2.611-.33-3.814-1.025l-12.923-7.462c-3.655-2.11-4.908-6.784-2.797-10.44 2.11-3.656 6.786-4.908 10.44-2.797l12.923 7.462c3.655 2.11 4.908 6.784 2.797 10.44-1.415 2.451-3.985 3.822-6.626 3.822z"/><path d="m361.506 324.147c-1.297 0-2.61-.33-3.814-1.025l-12.924-7.462c-3.655-2.11-4.908-6.784-2.797-10.44 2.11-3.656 6.783-4.908 10.44-2.798l12.924 7.462c3.655 2.11 4.908 6.784 2.797 10.44-1.416 2.452-3.985 3.823-6.626 3.823z"/></g></g><path d="m256.325 388.83c-73.368 0-133.057-59.689-133.057-133.057s59.689-133.057 133.057-133.057 133.057 59.689 133.057 133.057-59.689 133.057-133.057 133.057zm0-250.829c-64.94 0-117.772 52.832-117.772 117.772s52.832 117.772 117.772 117.772 117.772-52.832 117.772-117.772c0-64.939-52.832-117.772-117.772-117.772z" fill="#2b4d66"/></g></g></svg>