<svg id="Capa_1" enable-background="new 0 0 512 512" height="512" viewBox="0 0 512 512" width="512" xmlns="http://www.w3.org/2000/svg"><g><circle cx="224.399" cy="241.481" fill="#f6e266" r="33.972"/><path d="m234.151 274.025c-3.088.93-6.366 1.427-9.752 1.427-18.765 0-33.971-15.207-33.971-33.971 0-18.756 15.207-33.971 33.971-33.971 3.386 0 6.664.497 9.752 1.427-14.006 4.19-24.219 17.175-24.219 32.545 0 15.377 10.213 28.363 24.219 32.543z" fill="#ffd064"/><path d="m422.908 453.223-198.509 25.889-198.51-25.889s1.075-6.782 3.278-18.06c4.912-25.14 15.459-72.611 32.292-117.013 4.867-12.85 14.954-23.009 27.75-28.011 25.537-9.978 73.867-24.851 135.19-24.851s109.653 14.873 135.19 24.851c12.796 5.003 22.882 15.162 27.75 28.011 16.832 44.401 27.379 91.872 32.292 117.013 2.203 11.278 3.277 18.06 3.277 18.06z" fill="#f6e266"/><path d="m137.519 314.744c-14.006 68.367-20.435 143.57-20.435 143.57l61.369 14.801-152.564-19.894s11.188-70.76 35.57-135.073c4.867-12.85 14.954-23.009 27.75-28.011 19.939-7.793 53.774-18.566 96.848-22.91-13.861 5.355-24.986 12.254-32.59 17.753-7.351 5.311-13.148 16.111-15.948 29.764z" fill="#ffd064"/><path d="m422.908 453.223-198.509 25.889-198.51-25.889s1.075-6.782 3.278-18.06h390.463c2.204 11.278 3.278 18.06 3.278 18.06z" fill="#ffd064"/><path d="m422.907 453.221h-397.017c-14.299 0-25.89 11.592-25.89 25.89 0 14.299 11.592 25.89 25.89 25.89h397.017c14.299 0 25.89-11.591 25.89-25.89 0-14.299-11.591-25.89-25.89-25.89z" fill="#f6e266"/><path d="m90.834 497.415c4.687 4.687 11.152 7.585 18.304 7.585h-83.249c-7.143 0-13.617-2.899-18.304-7.585s-7.585-11.161-7.585-18.304c0-14.304 11.595-25.889 25.889-25.889h83.249c-14.295 0-25.889 11.586-25.889 25.889 0 7.143 2.898 13.618 7.585 18.304z" fill="#ffd064"/><path d="m20.471 279.572c-4.21 0-7.621-3.412-7.621-7.621 0-11.973 6.262-18.381 10.835-23.061 3.911-4.002 6.494-6.646 6.494-12.408 0-5.763-2.583-8.407-6.494-12.409-4.573-4.679-10.835-11.088-10.835-23.061 0-11.972 6.263-18.38 10.835-23.059 3.911-4.002 6.494-6.645 6.494-12.406 0-4.209 3.412-7.621 7.621-7.621s7.621 3.412 7.621 7.621c0 11.972-6.262 18.38-10.835 23.059-3.911 4.002-6.494 6.645-6.494 12.406 0 5.762 2.583 8.406 6.494 12.408 4.573 4.68 10.835 11.089 10.835 23.062s-6.262 18.381-10.835 23.061c-3.911 4.002-6.494 6.646-6.494 12.408 0 4.209-3.412 7.621-7.621 7.621z" fill="#f9f6f9"/><path d="m68.766 226.369c-4.21 0-7.621-3.412-7.621-7.621 0-11.973 6.262-18.381 10.835-23.061 3.911-4.003 6.494-6.647 6.494-12.409s-2.583-8.406-6.494-12.408c-4.573-4.68-10.835-11.089-10.835-23.061s6.263-18.38 10.835-23.059c3.911-4.002 6.494-6.645 6.494-12.406 0-4.209 3.412-7.621 7.621-7.621s7.621 3.412 7.621 7.621c0 11.972-6.262 18.38-10.835 23.059-3.911 4.002-6.494 6.645-6.494 12.406 0 5.762 2.583 8.406 6.494 12.408 4.573 4.68 10.835 11.089 10.835 23.061 0 11.973-6.262 18.382-10.835 23.062-3.911 4.002-6.494 6.646-6.494 12.408 0 4.209-3.412 7.621-7.621 7.621z" fill="#f9f6f9"/><g><circle cx="379.776" cy="139.222" fill="#d3effb" r="124.629"/><path d="m401.552 262.045c-6.901 1.196-14.003 1.81-21.243 1.81-68.831 0-124.633-55.802-124.633-124.633s55.802-124.633 124.633-124.633c7.24 0 14.342.614 21.243 1.81-58.702 10.077-103.379 61.232-103.379 122.823s44.677 112.747 103.379 122.823z" fill="#9dc6fb"/><path d="m379.776 155.099h-57.902c-8.768 0-15.877-7.108-15.877-15.877 0-8.768 7.108-15.877 15.877-15.877h57.902c8.768 0 0 7.108 0 15.877z" fill="#365e7d"/><path d="m379.776 155.099c-8.768 0-15.877-7.108-15.877-15.877v-40.54c0-8.768 7.108-15.877 15.877-15.877s15.877 7.108 15.877 15.877v40.54c0 8.769-7.109 15.877-15.877 15.877z" fill="#2b4d66"/><g fill="#365e7d"><g><path d="m379.776 51.241c-4.195 0-7.595-3.4-7.595-7.595v-25.124c0-4.194 3.4-7.595 7.595-7.595s7.595 3.4 7.595 7.595v25.124c0 4.195-3.4 7.595-7.595 7.595z"/><path d="m379.776 267.517c-4.195 0-7.595-3.4-7.595-7.595v-25.124c0-4.194 3.4-7.595 7.595-7.595s7.595 3.4 7.595 7.595v25.124c0 4.195-3.4 7.595-7.595 7.595z"/></g><g><path d="m500.476 146.817h-25.124c-4.195 0-7.595-3.4-7.595-7.595 0-4.194 3.4-7.595 7.595-7.595h25.124c4.195 0 7.595 3.4 7.595 7.595-.001 4.194-3.401 7.595-7.595 7.595z"/><path d="m284.2 146.817h-25.124c-4.194 0-7.595-3.4-7.595-7.595 0-4.194 3.4-7.595 7.595-7.595h25.124c4.195 0 7.595 3.4 7.595 7.595 0 4.194-3.4 7.595-7.595 7.595z"/></g><g><path d="m471.469 93.883c-2.624 0-5.178-1.362-6.584-3.799-2.097-3.632-.852-8.277 2.78-10.374l12.844-7.415c3.63-2.096 8.278-.853 10.374 2.78 2.097 3.632.852 8.277-2.78 10.374l-12.844 7.415c-1.195.691-2.502 1.019-3.79 1.019z"/><path d="m275.254 207.168c-2.624 0-5.177-1.362-6.584-3.799-2.097-3.632-.852-8.277 2.78-10.374l12.843-7.415c3.631-2.097 8.276-.853 10.374 2.78 2.097 3.632.852 8.277-2.78 10.374l-12.843 7.415c-1.195.691-2.502 1.019-3.79 1.019z"/></g><g><path d="m432.704 55.132c-1.288 0-2.595-.328-3.79-1.019-3.632-2.097-4.877-6.742-2.78-10.375l7.416-12.843c2.097-3.633 6.742-4.876 10.374-2.779s4.877 6.742 2.78 10.375l-7.416 12.843c-1.407 2.436-3.96 3.798-6.584 3.798z"/><path d="m319.419 251.347c-1.289 0-2.594-.328-3.79-1.019-3.632-2.097-4.877-6.742-2.78-10.374l7.415-12.843c2.096-3.633 6.74-4.878 10.374-2.78 3.632 2.097 4.877 6.742 2.78 10.374l-7.415 12.843c-1.406 2.437-3.959 3.799-6.584 3.799z"/></g><g><path d="m326.848 55.132c-2.624 0-5.178-1.362-6.584-3.799l-7.415-12.843c-2.097-3.632-.852-8.277 2.78-10.374 3.631-2.096 8.278-.853 10.374 2.78l7.415 12.843c2.097 3.632.852 8.277-2.78 10.374-1.196.69-2.502 1.019-3.79 1.019z"/><path d="m440.133 251.347c-2.624 0-5.177-1.362-6.584-3.798l-7.416-12.843c-2.097-3.632-.853-8.277 2.78-10.375 3.631-2.097 8.276-.853 10.374 2.779l7.416 12.843c2.097 3.632.853 8.277-2.78 10.375-1.195.691-2.501 1.019-3.79 1.019z"/></g><g><path d="m288.083 93.883c-1.289 0-2.595-.328-3.79-1.019l-12.843-7.415c-3.632-2.097-4.877-6.742-2.78-10.374 2.096-3.633 6.743-4.878 10.374-2.78l12.843 7.415c3.632 2.097 4.877 6.742 2.78 10.374-1.407 2.437-3.96 3.799-6.584 3.799z"/><path d="m484.299 207.168c-1.289 0-2.594-.328-3.79-1.019l-12.844-7.415c-3.632-2.097-4.877-6.742-2.78-10.374 2.096-3.633 6.74-4.878 10.374-2.78l12.844 7.415c3.632 2.097 4.877 6.742 2.78 10.374-1.407 2.437-3.96 3.799-6.584 3.799z"/></g></g><path d="m379.776 271.446c-72.909 0-132.224-59.315-132.224-132.224 0-72.908 59.315-132.224 132.224-132.224s132.224 59.316 132.224 132.224c0 72.909-59.315 132.224-132.224 132.224zm0-249.258c-64.533 0-117.035 52.501-117.035 117.034s52.501 117.035 117.035 117.035 117.035-52.501 117.035-117.035c0-64.533-52.502-117.034-117.035-117.034z" fill="#698ed5"/></g></g></svg>