<svg id="Capa_1" enable-background="new 0 0 512 512" height="512" viewBox="0 0 512 512" width="512" xmlns="http://www.w3.org/2000/svg"><g><path d="m460.93 9.519c-136.62-12.692-273.24-12.692-409.86 0-22.026 2.046-39.505 19.525-41.551 41.551-12.692 136.62-12.692 273.24 0 409.86 2.046 22.026 19.525 39.505 41.551 41.551 136.62 12.692 273.24 12.692 409.86 0 22.026-2.046 39.505-19.525 41.551-41.551 12.692-136.62 12.692-273.24 0-409.86-2.046-22.026-19.525-39.505-41.551-41.551z" fill="#dd636e"/><path d="m33.502 475.14c.917 9.839 4.708 18.832 10.518 26.126-18.615-4.708-32.677-20.717-34.501-40.331-12.692-136.623-12.692-273.245 0-409.868 1.823-19.615 15.885-35.623 34.501-40.331-5.81 7.294-9.601 16.287-10.518 26.125-13.568 146.089-13.568 292.189 0 438.279z" fill="#cb5769"/><path d="m481.033 262.232c-.051 21.304-.422 42.609-1.113 63.892-.155 5.151-.33 10.302-.536 15.453-.835 21.325-1.978 42.629-3.441 63.892-.34 5.151-.711 10.302-1.113 15.453-.927 12.393-1.968 24.776-3.121 37.148-.67 7.232-6.408 12.97-13.64 13.64-67.044 6.222-135.026 9.385-202.07 9.385s-135.026-3.162-202.07-9.385c-7.232-.669-12.97-6.408-13.64-13.64-1.143-12.362-2.194-24.745-3.121-37.148-.392-5.14-.762-10.291-1.113-15.453-1.463-21.263-2.606-42.567-3.431-63.892-.206-5.151-.391-10.302-.546-15.453-.68-21.283-1.051-42.588-1.102-63.892-.031-5.151-.031-10.302 0-15.453.093-21.304.494-42.608 1.205-63.892.165-5.151.361-10.302.567-15.453.618-15.38 1.401-30.761 2.349-46.121.52-8.501 22.118-16.997 22.741-25.486.624-8.506-19.728-17.005-19.001-25.497.453-5.47.948-10.941 1.453-16.4.67-7.232 6.408-12.97 13.64-13.64 67.044-6.222 135.026-9.385 202.07-9.385s135.026 3.162 202.07 9.385c7.232.67 12.97 6.408 13.64 13.64 1.061 11.373 2.029 22.767 2.895 34.171.402 5.151.783 10.302 1.144 15.453 1.483 21.263 2.658 42.567 3.523 63.881.206 5.151.391 10.302.556 15.453.721 21.284 1.113 42.588 1.195 63.892.03 5.151.03 10.301.01 15.452z" fill="#d3effb"/><path d="m475.748 103.554h-364.159c-4.265 0-7.726-3.461-7.726-7.726s3.461-7.726 7.726-7.726h363.015c.402 5.15.783 10.301 1.144 15.452z" fill="#698ed5"/><path d="m479.828 182.888h-447.645c.165-5.151.361-10.302.567-15.453h446.522c.205 5.151.391 10.302.556 15.453z" fill="#698ed5"/><path d="m234.604 200.659h-118.118c-14.079 0-25.492-11.413-25.492-25.492 0-14.079 11.413-25.492 25.492-25.492h118.118c14.079 0 25.492 11.413 25.492 25.492 0 14.078-11.413 25.492-25.492 25.492z" fill="#ffd064"/><g fill="#698ed5"><path d="m481.033 262.232h-450.055c-.031-5.151-.031-10.302 0-15.453h450.045c.03 5.152.03 10.302.01 15.453z"/><path d="m479.92 326.124c-.155 5.151-.33 10.302-.536 15.453h-446.758c-.206-5.151-.391-10.302-.546-15.453z"/><path d="m475.944 405.469c-.34 5.151-.711 10.302-1.113 15.453h-437.662c-.392-5.14-.762-10.291-1.113-15.453z"/></g><path d="m361.714 280.002h-164.773c-14.079 0-25.492-11.413-25.492-25.492 0-14.079 11.413-25.492 25.492-25.492h164.773c14.079 0 25.492 11.413 25.492 25.492 0 14.079-11.413 25.492-25.492 25.492z" fill="#e7a561"/><path d="m188.08 95.827c0 7.036-2.854 13.413-7.469 18.018-4.615 4.616-10.982 7.469-18.018 7.469h-127.494c1.04-17.018 2.287-34.016 3.739-50.983h123.756c14.072-.001 25.486 11.414 25.486 25.496z" fill="#f6e266"/><path d="m415.62 359.345h-71.54c-14.079 0-25.492-11.413-25.492-25.492 0-14.079 11.413-25.492 25.492-25.492h71.539c14.079 0 25.492 11.413 25.492 25.492.001 14.079-11.412 25.492-25.491 25.492z" fill="#e29375"/><path d="m418.959 438.688h-19.194c-14.079 0-25.492-11.413-25.492-25.492 0-14.079 11.413-25.492 25.492-25.492h19.194c14.079 0 25.492 11.413 25.492 25.492.001 14.079-11.413 25.492-25.492 25.492z" fill="#95d6a4"/><path d="m135.679 438.688h-19.194c-14.079 0-25.492-11.413-25.492-25.492 0-14.079 11.413-25.492 25.492-25.492h19.194c14.079 0 25.492 11.413 25.492 25.492.001 14.079-11.413 25.492-25.492 25.492z" fill="#95d6a4"/></g></svg>