<svg id="Capa_1" enable-background="new 0 0 511.784 511.784" height="512" viewBox="0 0 511.784 511.784" width="512" xmlns="http://www.w3.org/2000/svg"><g><path d="m419.315 461.635c-2.282 22.385-20.251 39.944-42.696 41.59-106.784 7.848-213.568 7.848-320.352 0-22.446-1.646-40.414-19.205-42.696-41.59-7.996-78.512-8.492-157.023-1.498-235.535 1.603-18.073 3.606-36.146 6.01-54.22 132.243-12.028 264.478-12.028 396.721 0 2.404 18.073 4.407 36.146 6.01 54.22 6.993 78.512 6.497 157.024-1.499 235.535z" fill="#f9f6f9"/><path d="m420.813 226.101c-.296.017-.592.026-.888.035-135.658 2.7-271.307 2.7-406.964 0-.296-.009-.592-.017-.888-.035 1.603-18.073 3.606-36.146 6.01-54.22 132.243-12.028 264.478-12.028 396.721 0 2.403 18.073 4.407 36.147 6.009 54.22z" fill="#dddaec"/><path d="m402.135 200.62c-123.795 2.467-247.59 2.467-371.385 0-13.378-.267-24.994-9.408-28.308-22.371-3.256-12.736-3.256-25.473 0-38.209 3.314-12.964 14.93-22.105 28.308-22.371 123.795-2.467 247.59-2.467 371.385 0 13.378.267 24.994 9.408 28.308 22.371 3.256 12.736 3.256 25.472 0 38.209-3.314 12.964-14.93 22.105-28.308 22.371z" fill="#e7a561"/><path d="m54.353 201.071c-7.865-.139-15.739-.287-23.604-.444-13.37-.27-24.989-9.407-28.307-22.376-3.249-12.734-3.249-25.468 0-38.211 3.318-12.96 14.938-22.097 28.307-22.367 7.865-.157 15.739-.305 23.604-.444-10.025 3.205-18.012 11.349-20.712 21.932-3.406 13.326-3.406 26.653 0 39.979 2.7 10.582 10.687 18.726 20.712 21.931z" fill="#e29375"/><g><g><path d="m250.656 287.915h-6.256c-9.376 0-16.976-7.6-16.976-16.976v-21.941c0-9.376 7.601-16.976 16.976-16.976h6.256c9.376 0 16.976 7.601 16.976 16.976v21.941c.001 9.376-7.6 16.976-16.976 16.976z" fill="#95d6a4"/></g><g><path d="m312.828 287.915h-6.256c-9.376 0-16.976-7.6-16.976-16.976v-21.941c0-9.376 7.601-16.976 16.976-16.976h6.256c9.376 0 16.976 7.601 16.976 16.976v21.941c0 9.376-7.6 16.976-16.976 16.976z" fill="#dd636e"/></g><g><path d="m375 287.915h-6.256c-9.376 0-16.976-7.6-16.976-16.976v-21.941c0-9.376 7.6-16.976 16.976-16.976h6.256c9.376 0 16.976 7.601 16.976 16.976v21.941c0 9.376-7.6 16.976-16.976 16.976z" fill="#dd636e"/></g><g><path d="m126.313 287.915h-6.256c-9.376 0-16.976-7.6-16.976-16.976v-21.941c0-9.376 7.601-16.976 16.976-16.976h6.256c9.376 0 16.976 7.601 16.976 16.976v21.941c0 9.376-7.601 16.976-16.976 16.976z" fill="#95d6a4"/></g><g><path d="m188.484 287.915h-6.256c-9.376 0-16.976-7.6-16.976-16.976v-21.941c0-9.376 7.6-16.976 16.976-16.976h6.256c9.376 0 16.976 7.601 16.976 16.976v21.941c.001 9.376-7.6 16.976-16.976 16.976z" fill="#95d6a4"/></g></g><g><g><path d="m64.141 372.303h-6.256c-9.376 0-16.976-7.6-16.976-16.976v-21.941c0-9.376 7.6-16.976 16.976-16.976h6.256c9.376 0 16.976 7.6 16.976 16.976v21.941c0 9.375-7.601 16.976-16.976 16.976z" fill="#95d6a4"/></g><g><path d="m126.313 372.303h-6.256c-9.376 0-16.976-7.6-16.976-16.976v-21.941c0-9.376 7.601-16.976 16.976-16.976h6.256c9.376 0 16.976 7.6 16.976 16.976v21.941c0 9.375-7.601 16.976-16.976 16.976z" fill="#95d6a4"/></g><g><path d="m188.484 372.303h-6.256c-9.376 0-16.976-7.6-16.976-16.976v-21.941c0-9.376 7.6-16.976 16.976-16.976h6.256c9.376 0 16.976 7.6 16.976 16.976v21.941c.001 9.375-7.6 16.976-16.976 16.976z" fill="#95d6a4"/></g><g><path d="m250.656 372.303h-6.256c-9.376 0-16.976-7.6-16.976-16.976v-21.941c0-9.376 7.601-16.976 16.976-16.976h6.256c9.376 0 16.976 7.6 16.976 16.976v21.941c.001 9.375-7.6 16.976-16.976 16.976z" fill="#95d6a4"/></g><g><path d="m312.828 372.303h-6.256c-9.376 0-16.976-7.6-16.976-16.976v-21.941c0-9.376 7.601-16.976 16.976-16.976h6.256c9.376 0 16.976 7.6 16.976 16.976v21.941c0 9.375-7.6 16.976-16.976 16.976z" fill="#dd636e"/></g><g><path d="m375 372.303h-6.256c-9.376 0-16.976-7.6-16.976-16.976v-21.941c0-9.376 7.6-16.976 16.976-16.976h6.256c9.376 0 16.976 7.6 16.976 16.976v21.941c0 9.375-7.6 16.976-16.976 16.976z" fill="#dd636e"/></g></g><g><g><path d="m64.141 456.69h-6.256c-9.376 0-16.976-7.6-16.976-16.976v-21.941c0-9.376 7.6-16.976 16.976-16.976h6.256c9.376 0 16.976 7.6 16.976 16.976v21.941c0 9.376-7.601 16.976-16.976 16.976z" fill="#95d6a4"/></g><g><path d="m126.313 456.69h-6.256c-9.376 0-16.976-7.6-16.976-16.976v-21.941c0-9.376 7.601-16.976 16.976-16.976h6.256c9.376 0 16.976 7.6 16.976 16.976v21.941c0 9.376-7.601 16.976-16.976 16.976z" fill="#95d6a4"/></g><g><path d="m188.484 456.69h-6.256c-9.376 0-16.976-7.6-16.976-16.976v-21.941c0-9.376 7.6-16.976 16.976-16.976h6.256c9.376 0 16.976 7.6 16.976 16.976v21.941c.001 9.376-7.6 16.976-16.976 16.976z" fill="#95d6a4"/></g><g><path d="m250.656 456.69h-6.256c-9.376 0-16.976-7.6-16.976-16.976v-21.941c0-9.376 7.601-16.976 16.976-16.976h6.256c9.376 0 16.976 7.6 16.976 16.976v21.941c.001 9.376-7.6 16.976-16.976 16.976z" fill="#95d6a4"/></g><g><path d="m312.828 456.69h-6.256c-9.376 0-16.976-7.6-16.976-16.976v-21.941c0-9.376 7.601-16.976 16.976-16.976h6.256c9.376 0 16.976 7.6 16.976 16.976v21.941c0 9.376-7.6 16.976-16.976 16.976z" fill="#dd636e"/></g></g><path d="m58.457 159.145c-8.582 0-15.54-6.957-15.54-15.54v-29.086c0-8.582 6.957-15.54 15.54-15.54 8.582 0 15.54 6.957 15.54 15.54v29.086c0 8.582-6.958 15.54-15.54 15.54z" fill="#f6e266"/><path d="m63.437 158.33c-1.568.531-3.24.819-4.982.819-8.579 0-15.539-6.959-15.539-15.539v-29.091c0-8.579 6.959-15.539 15.539-15.539 1.742 0 3.414.287 4.982.819-6.149 2.064-10.574 7.882-10.574 14.72v29.091c.001 6.837 4.425 12.656 10.574 14.72z" fill="#ffd064"/><path d="m121.651 159.145c-8.582 0-15.54-6.957-15.54-15.54v-29.086c0-8.582 6.957-15.54 15.54-15.54 8.582 0 15.54 6.957 15.54 15.54v29.086c0 8.582-6.957 15.54-15.54 15.54z" fill="#f6e266"/><path d="m126.632 158.33c-1.568.531-3.24.819-4.982.819-8.579 0-15.539-6.959-15.539-15.539v-29.091c0-8.579 6.959-15.539 15.539-15.539 1.742 0 3.414.287 4.982.819-6.149 2.064-10.574 7.882-10.574 14.72v29.091c0 6.837 4.425 12.656 10.574 14.72z" fill="#ffd064"/><path d="m184.845 159.145c-8.582 0-15.54-6.957-15.54-15.54v-29.086c0-8.582 6.957-15.54 15.54-15.54 8.582 0 15.54 6.957 15.54 15.54v29.086c0 8.582-6.957 15.54-15.54 15.54z" fill="#f6e266"/><path d="m189.826 158.33c-1.568.531-3.24.819-4.982.819-8.579 0-15.539-6.959-15.539-15.539v-29.091c0-8.579 6.959-15.539 15.539-15.539 1.742 0 3.414.287 4.982.819-6.149 2.064-10.574 7.882-10.574 14.72v29.091c0 6.837 4.425 12.656 10.574 14.72z" fill="#ffd064"/><path d="m248.04 159.145c-8.582 0-15.54-6.957-15.54-15.54v-29.086c0-8.582 6.957-15.54 15.54-15.54 8.582 0 15.54 6.957 15.54 15.54v29.086c0 8.582-6.958 15.54-15.54 15.54z" fill="#f6e266"/><path d="m253.021 158.33c-1.568.531-3.24.819-4.982.819-8.579 0-15.539-6.959-15.539-15.539v-29.091c0-8.579 6.959-15.539 15.539-15.539 1.742 0 3.414.287 4.982.819-6.149 2.064-10.574 7.882-10.574 14.72v29.091c0 6.837 4.424 12.656 10.574 14.72z" fill="#ffd064"/><path d="m311.234 159.145c-8.582 0-15.54-6.957-15.54-15.54v-29.086c0-8.582 6.957-15.54 15.54-15.54 8.582 0 15.54 6.957 15.54 15.54v29.086c0 8.582-6.957 15.54-15.54 15.54z" fill="#f6e266"/><path d="m316.215 158.33c-1.568.531-3.24.819-4.982.819-8.579 0-15.539-6.959-15.539-15.539v-29.091c0-8.579 6.959-15.539 15.539-15.539 1.742 0 3.414.287 4.982.819-6.149 2.064-10.574 7.882-10.574 14.72v29.091c0 6.837 4.425 12.656 10.574 14.72z" fill="#ffd064"/><path d="m374.428 159.145c-8.582 0-15.54-6.957-15.54-15.54v-29.086c0-8.582 6.957-15.54 15.54-15.54 8.582 0 15.54 6.957 15.54 15.54v29.086c0 8.582-6.957 15.54-15.54 15.54z" fill="#f6e266"/><path d="m379.409 158.33c-1.568.531-3.24.819-4.982.819-8.579 0-15.539-6.959-15.539-15.539v-29.091c0-8.579 6.959-15.539 15.539-15.539 1.742 0 3.414.287 4.982.819-6.149 2.064-10.574 7.882-10.574 14.72v29.091c0 6.837 4.425 12.656 10.574 14.72z" fill="#ffd064"/><g><circle cx="379.616" cy="134.841" fill="#d3effb" r="124.577"/><path d="m401.383 257.612c-6.898 1.196-13.997 1.809-21.234 1.809-68.802 0-124.58-55.778-124.58-124.58s55.778-124.58 124.58-124.58c7.237 0 14.336.614 21.234 1.809-58.677 10.072-103.336 61.206-103.336 122.771s44.659 112.698 103.336 122.771z" fill="#9dc6fb"/><path d="m379.616 150.711h-57.878c-8.765 0-15.87-7.105-15.87-15.87s7.105-15.87 15.87-15.87h57.878c8.765 0 0 7.105 0 15.87s0 10.637 0 15.87z" fill="#365e7d"/><path d="m379.616 150.711c-8.765 0-15.87-7.105-15.87-15.87v-40.524c0-8.765 7.105-15.87 15.87-15.87s15.87 7.105 15.87 15.87v40.523c0 8.765-7.106 15.871-15.87 15.871z" fill="#2b4d66"/><g fill="#365e7d"><g><path d="m379.616 46.896c-4.193 0-7.591-3.399-7.591-7.591v-25.114c0-4.193 3.398-7.591 7.591-7.591s7.591 3.399 7.591 7.591v25.114c0 4.193-3.398 7.591-7.591 7.591z"/><path d="m379.616 263.081c-4.193 0-7.591-3.399-7.591-7.591v-25.114c0-4.193 3.398-7.591 7.591-7.591s7.591 3.399 7.591 7.591v25.114c0 4.192-3.398 7.591-7.591 7.591z"/></g><g><path d="m500.264 142.432h-25.114c-4.193 0-7.591-3.399-7.591-7.591 0-4.193 3.398-7.591 7.591-7.591h25.114c4.193 0 7.591 3.399 7.591 7.591.001 4.192-3.397 7.591-7.591 7.591z"/><path d="m284.08 142.432h-25.114c-4.193 0-7.591-3.399-7.591-7.591 0-4.193 3.399-7.591 7.591-7.591h25.114c4.193 0 7.591 3.399 7.591 7.591.001 4.192-3.398 7.591-7.591 7.591z"/></g><g><path d="m471.27 89.52c-2.623 0-5.176-1.362-6.581-3.797-2.097-3.631-.852-8.274 2.779-10.37l12.838-7.412c3.629-2.096 8.274-.852 10.37 2.779s.852 8.274-2.779 10.37l-12.838 7.412c-1.195.69-2.501 1.018-3.789 1.018z"/><path d="m275.138 202.758c-2.623 0-5.175-1.361-6.581-3.797-2.097-3.631-.852-8.274 2.779-10.37l12.837-7.412c3.63-2.096 8.272-.853 10.37 2.779 2.097 3.631.852 8.274-2.779 10.37l-12.837 7.412c-1.195.69-2.501 1.018-3.789 1.018z"/></g><g><path d="m432.521 50.786c-1.288 0-2.594-.328-3.789-1.018-3.631-2.097-4.875-6.739-2.779-10.37l7.412-12.838c2.096-3.631 6.739-4.874 10.37-2.778 3.631 2.097 4.875 6.739 2.779 10.37l-7.412 12.838c-1.406 2.434-3.957 3.796-6.581 3.796z"/><path d="m319.284 246.918c-1.288 0-2.593-.328-3.789-1.018-3.631-2.096-4.875-6.739-2.779-10.37l7.411-12.837c2.096-3.631 6.737-4.876 10.37-2.779 3.631 2.096 4.875 6.739 2.779 10.37l-7.411 12.837c-1.405 2.436-3.957 3.797-6.581 3.797z"/></g><g><path d="m326.71 50.786c-2.623 0-5.176-1.362-6.581-3.797l-7.411-12.838c-2.097-3.631-.852-8.274 2.779-10.37 3.63-2.095 8.274-.852 10.37 2.779l7.411 12.838c2.097 3.631.852 8.274-2.779 10.37-1.196.689-2.501 1.018-3.789 1.018z"/><path d="m439.948 246.918c-2.623 0-5.175-1.361-6.581-3.797l-7.412-12.837c-2.097-3.631-.853-8.274 2.779-10.37 3.63-2.096 8.272-.853 10.37 2.778l7.412 12.837c2.097 3.631.853 8.274-2.779 10.37-1.196.691-2.501 1.019-3.789 1.019z"/></g><g><path d="m287.961 89.52c-1.288 0-2.594-.328-3.789-1.018l-12.837-7.412c-3.631-2.096-4.875-6.739-2.779-10.37s6.74-4.876 10.37-2.779l12.837 7.412c3.631 2.096 4.875 6.739 2.779 10.37-1.405 2.436-3.958 3.797-6.581 3.797z"/><path d="m484.094 202.758c-1.288 0-2.593-.328-3.789-1.018l-12.838-7.412c-3.631-2.096-4.875-6.739-2.779-10.37 2.096-3.632 6.737-4.876 10.37-2.779l12.838 7.412c3.631 2.096 4.875 6.739 2.779 10.37-1.405 2.435-3.957 3.797-6.581 3.797z"/></g></g><path d="m379.616 267.008c-72.878 0-132.168-59.29-132.168-132.168 0-72.877 59.29-132.168 132.168-132.168s132.168 59.29 132.168 132.168-59.29 132.168-132.168 132.168zm0-249.153c-64.506 0-116.985 52.479-116.985 116.985s52.479 116.985 116.985 116.985 116.985-52.479 116.985-116.985c0-64.505-52.479-116.985-116.985-116.985z" fill="#2b4d66"/></g></g></svg>