<svg id="Capa_1" enable-background="new 0 0 512 512" height="512" viewBox="0 0 512 512" width="512" xmlns="http://www.w3.org/2000/svg"><g><g><circle cx="341.242" cy="170.758" fill="#d3effb" r="101.575"/><path d="m358.99 270.861c-5.625.975-11.413 1.475-17.314 1.475-56.099 0-101.578-45.479-101.578-101.578s45.479-101.578 101.578-101.578c5.901 0 11.689.5 17.314 1.475-47.843 8.212-84.256 49.905-84.256 100.103s36.413 91.89 84.256 100.103z" fill="#9dc6fb"/><path d="m341.242 183.126h-45.103c-6.83 0-12.367-5.537-12.367-12.367s5.537-12.367 12.367-12.367h45.103c6.83 0 0 5.537 0 12.367s0 12.367 0 12.367z" fill="#365e7d"/><path d="m341.242 183.126c-6.83 0-12.367-5.537-12.367-12.367v-31.579c0-6.83 5.537-12.367 12.367-12.367s12.367 5.537 12.367 12.367v31.579c0 6.829-5.537 12.367-12.367 12.367z" fill="#2b4d66"/><g fill="#365e7d"><g><path d="m341.242 105.706c-4.267 0-7.726-3.459-7.726-7.726v-19.132c0-4.267 3.459-7.726 7.726-7.726s7.726 3.459 7.726 7.726v19.132c0 4.267-3.459 7.726-7.726 7.726z"/><path d="m341.242 270.395c-4.267 0-7.726-3.459-7.726-7.726v-19.132c0-4.267 3.459-7.726 7.726-7.726s7.726 3.459 7.726 7.726v19.132c0 4.267-3.459 7.726-7.726 7.726z"/></g><g><path d="m433.152 178.485h-19.132c-4.267 0-7.726-3.459-7.726-7.726s3.459-7.726 7.726-7.726h19.132c4.267 0 7.726 3.459 7.726 7.726s-3.458 7.726-7.726 7.726z"/><path d="m268.463 178.485h-19.131c-4.267 0-7.726-3.459-7.726-7.726s3.459-7.726 7.726-7.726h19.131c4.267 0 7.726 3.459 7.726 7.726s-3.459 7.726-7.726 7.726z"/></g><g><path d="m411.066 138.177c-2.67 0-5.267-1.386-6.698-3.864-2.134-3.695-.868-8.421 2.828-10.554l9.78-5.646c3.695-2.133 8.421-.868 10.554 2.828 2.134 3.695.868 8.421-2.828 10.554l-9.78 5.646c-1.217.702-2.545 1.036-3.856 1.036z"/><path d="m261.652 224.441c-2.67 0-5.267-1.386-6.698-3.864-2.134-3.696-.867-8.421 2.828-10.554l9.78-5.646c3.695-2.133 8.42-.868 10.554 2.828s.867 8.421-2.828 10.554l-9.78 5.646c-1.216.702-2.545 1.036-3.856 1.036z"/></g><g><path d="m381.544 108.669c-1.311 0-2.639-.334-3.856-1.036-3.696-2.134-4.962-6.859-2.828-10.554l5.646-9.779c2.133-3.696 6.859-4.962 10.554-2.828s4.962 6.859 2.828 10.554l-5.646 9.779c-1.431 2.478-4.028 3.864-6.698 3.864z"/><path d="m295.28 258.082c-1.311 0-2.639-.334-3.856-1.036-3.696-2.134-4.962-6.859-2.828-10.554l5.646-9.78c2.133-3.696 6.859-4.962 10.554-2.828 3.696 2.134 4.962 6.859 2.828 10.554l-5.646 9.78c-1.431 2.479-4.028 3.864-6.698 3.864z"/></g><g><path d="m300.94 108.669c-2.67 0-5.267-1.386-6.698-3.864l-5.646-9.779c-2.134-3.695-.868-8.421 2.828-10.554 3.694-2.133 8.421-.868 10.554 2.828l5.646 9.779c2.134 3.695.868 8.421-2.828 10.554-1.216.702-2.545 1.036-3.856 1.036z"/><path d="m387.204 258.082c-2.67 0-5.267-1.386-6.698-3.864l-5.646-9.78c-2.134-3.695-.868-8.421 2.828-10.554s8.421-.868 10.554 2.828l5.646 9.78c2.134 3.695.868 8.421-2.828 10.554-1.216.703-2.545 1.036-3.856 1.036z"/></g><g><path d="m271.418 138.177c-1.311 0-2.639-.334-3.856-1.036l-9.78-5.646c-3.696-2.134-4.962-6.859-2.828-10.554 2.133-3.696 6.858-4.962 10.554-2.828l9.78 5.646c3.696 2.134 4.962 6.859 2.828 10.554-1.431 2.478-4.028 3.864-6.698 3.864z"/><path d="m420.831 224.441c-1.311 0-2.639-.334-3.856-1.036l-9.78-5.646c-3.695-2.133-4.962-6.859-2.828-10.554 2.133-3.696 6.858-4.962 10.554-2.828l9.78 5.646c3.695 2.133 4.962 6.859 2.828 10.554-1.43 2.478-4.028 3.864-6.698 3.864z"/></g></g><g><path d="m507.924 145.246c-1.858-5.815-6.988-9.97-13.042-10.754-7.657-.991-15.322-1.751-22.979-2.271-6.03-.421-11.241-4.27-13.554-9.862-.017-.066-.05-.124-.074-.19-2.313-5.584-1.363-11.985 2.618-16.553 5.038-5.782 9.92-11.729 14.636-17.858 3.733-4.832 4.411-11.398 1.611-16.825-8.177-15.867-20.203-27.893-36.07-36.079-5.427-2.792-12.001-2.114-16.825 1.619-6.129 4.716-12.076 9.598-17.866 14.636-4.559 3.981-10.961 4.931-16.553 2.618-.058-.025-.124-.058-.182-.074-5.592-2.313-9.441-7.525-9.862-13.562-.52-7.649-1.28-15.314-2.271-22.979-.785-6.046-4.939-11.175-10.754-13.042-17.007-5.427-34.022-5.427-51.029 0-5.815 1.867-9.969 6.996-10.754 13.042-.991 7.665-1.751 15.33-2.271 22.979-.421 6.038-4.27 11.25-9.862 13.562-.066.017-.124.05-.182.074-5.592 2.313-11.993 1.363-16.561-2.618-5.782-5.038-11.729-9.92-17.858-14.636-4.824-3.733-11.398-4.411-16.825-1.619-15.867 8.185-27.893 20.212-36.079 36.079-2.792 5.427-2.115 11.993 1.619 16.825 4.716 6.129 9.598 12.076 14.636 17.858 3.981 4.568 4.931 10.969 2.618 16.553-.025.066-.058.124-.074.19-2.313 5.592-7.525 9.441-13.563 9.862-7.648.52-15.314 1.28-22.97 2.271-6.054.785-11.184 4.939-13.042 10.754-5.435 17.007-5.435 34.022 0 51.029 1.858 5.815 6.988 9.969 13.042 10.754 7.657.983 15.322 1.751 22.97 2.271 6.038.421 11.25 4.27 13.563 9.862.016.058.05.124.074.182 2.313 5.592 1.363 11.993-2.618 16.553-5.038 5.79-9.92 11.737-14.636 17.858-3.733 4.832-4.411 11.407-1.619 16.833 8.185 15.867 20.212 27.893 36.079 36.07 5.427 2.8 12.001 2.123 16.825-1.611 6.129-4.716 12.076-9.598 17.858-14.636 4.568-3.981 10.969-4.931 16.561-2.618.058.025.116.058.182.074 5.592 2.313 9.441 7.525 9.862 13.554.52 7.657 1.28 15.322 2.271 22.979.785 6.054 4.939 11.184 10.754 13.042 17.007 5.427 34.022 5.427 51.029 0 5.815-1.858 9.97-6.988 10.754-13.042.991-7.657 1.751-15.322 2.271-22.979.421-6.03 4.27-11.242 9.862-13.554.058-.016.124-.05.182-.074 5.592-2.313 11.993-1.363 16.553 2.618 5.79 5.038 11.737 9.92 17.866 14.636 4.824 3.733 11.398 4.411 16.825 1.611 15.867-8.177 27.893-20.203 36.07-36.07 2.8-5.427 2.123-12.001-1.611-16.833-4.716-6.12-9.598-12.067-14.636-17.858-3.981-4.559-4.931-10.961-2.618-16.553.025-.058.058-.124.074-.182 2.313-5.592 7.525-9.441 13.554-9.862 7.657-.52 15.322-1.289 22.979-2.271 6.054-.785 11.184-4.939 13.042-10.754 5.435-17.008 5.435-34.023 0-51.029zm-166.682 122.599c-53.622 0-97.085-43.471-97.085-97.085 0-53.622 43.463-97.085 97.085-97.085 53.614 0 97.085 43.463 97.085 97.085 0 53.614-43.471 97.085-97.085 97.085z" fill="#365e7d"/><g fill="#2b4d66"><path d="m224.24 274.783c-2.797-5.655-2.116-12.499 1.615-17.536 4.714-6.377 9.6-12.582 14.636-18.608 3.979-4.755 4.934-11.427 2.618-17.248-.027-.069-.055-.131-.076-.199-2.309-5.827-7.524-9.833-13.558-10.273-7.655-.543-15.317-1.34-22.978-2.371-6.054-.818-11.18-5.147-13.042-11.207-5.428-17.722-5.428-35.45 0-53.172 1.862-6.061 6.988-10.39 13.042-11.207 7.662-1.031 15.324-1.828 22.978-2.371 6.033-.44 11.249-4.446 13.558-10.273.021-.069.048-.131.076-.199 2.316-5.82 1.361-12.492-2.618-17.248-5.037-6.026-9.922-12.231-14.636-18.608-3.731-5.037-4.412-11.881-1.615-17.536 6.823-13.784 16.32-24.792 28.483-33.011-3.717-1.031-7.758-.687-11.311 1.141-15.866 8.184-27.885 20.202-36.069 36.069-2.797 5.429-2.116 11.998 1.615 16.828 4.714 6.123 9.6 12.073 14.629 17.859 3.979 4.563 4.934 10.967 2.618 16.554-.027.062-.055.124-.076.186-2.309 5.593-7.517 9.441-13.551 9.861-7.655.522-15.317 1.285-22.978 2.274-6.054.783-11.18 4.941-13.042 10.754-5.428 17.007-5.428 34.021 0 51.028 1.862 5.813 6.988 9.971 13.042 10.754 7.662.99 15.324 1.752 22.978 2.274 6.033.419 11.242 4.267 13.551 9.861.021.062.048.124.076.186 2.316 5.587 1.361 11.991-2.618 16.554-5.03 5.786-9.916 11.737-14.629 17.859-3.731 4.831-4.412 11.4-1.615 16.828 8.184 15.866 20.202 27.885 36.069 36.069 3.553 1.828 7.593 2.171 11.311 1.141-12.163-8.22-21.659-19.228-28.483-33.013zm99.63 56.086c-.989-7.985-1.752-15.969-2.274-23.947-.419-6.287-4.267-11.723-9.861-14.128-.062-.021-.124-.048-.186-.076-3.999-1.732-8.418-1.711-12.279-.041 1.972 2.453 3.202 5.477 3.429 8.741.522 7.655 1.285 15.317 2.274 22.978.783 6.054 4.941 11.18 10.754 13.042 4.219 1.347 8.445 2.364 12.664 3.044-2.438-2.542-4.06-5.91-4.521-9.613zm-8.142-326.797c-5.813 1.862-9.971 6.988-10.754 13.042-.989 7.662-1.752 15.324-2.274 22.978-.227 3.264-1.457 6.287-3.429 8.741 3.862 1.67 8.28 1.69 12.279-.041.062-.028.124-.055.186-.076 5.593-2.405 9.441-7.84 9.861-14.128.522-7.978 1.285-15.963 2.274-23.947.46-3.704 2.082-7.071 4.521-9.613-4.219.681-8.445 1.698-12.664 3.044z"/><path d="m341.241 277.114c-58.644 0-106.355-47.711-106.355-106.355s47.711-106.355 106.355-106.355c58.645 0 106.356 47.711 106.356 106.355s-47.711 106.355-106.356 106.355zm0-194.167c-48.42 0-87.812 39.392-87.812 87.812s39.392 87.812 87.812 87.812 87.812-39.392 87.812-87.812c.001-48.42-39.392-87.812-87.812-87.812z"/></g></g></g><circle cx="140.013" cy="371.987" fill="#f6e266" r="140.013"/><path d="m149.778 511.659c-3.224.227-6.48.34-9.766.34-77.326 0-140.012-62.686-140.012-140.012s62.686-140.012 140.012-140.012c3.286 0 6.542.113 9.766.34-72.772 5.007-130.256 65.623-130.256 139.672s57.484 134.666 130.256 139.672z" fill="#ffd064"/><circle cx="140.013" cy="371.987" fill="#ffd064" r="97.29"/><path d="m152.786 364.081c-9.837-2.864-20.742-6.34-27.042-10.409-2.934-1.895-2.911-4.938-2.637-6.583.576-3.456 3.415-7.7 9.656-9.249 2.513-.624 4.858-.922 7.022-1 .067-.004.134-.005.2-.01 9.529-.283 15.419 3.801 15.824 4.09 3.393 2.526 8.199 1.853 10.765-1.525 2.581-3.398 1.919-8.245-1.479-10.826-.404-.307-7.097-5.269-18.006-6.77v-4.127c0-4.267-3.459-7.726-7.726-7.726s-7.726 3.459-7.726 7.726v4.604c-.854.166-1.717.347-2.596.566-11.127 2.761-19.44 11.281-21.178 21.706-1.482 8.893 2.156 17.363 9.495 22.104 6.425 4.15 15.438 7.704 31.108 12.266 8.132 2.368 12.316 7.16 11.478 13.149-1.276 9.131-11.579 14.111-20.625 14.16-10.448.062-14.567-.324-23.406-5.086-3.755-2.024-8.442-.619-10.466 3.137-2.024 3.757-.62 8.443 3.137 10.467 9.01 4.854 15.217 6.376 23.052 6.794v4.762c0 4.267 3.459 7.726 7.726 7.726s7.726-3.459 7.726-7.726v-5.316c16.474-2.96 26.506-14.955 28.16-26.779 1.926-13.767-6.891-25.592-22.462-30.125z" fill="#f6e266"/><g><path d="m413.095 482.178-.086-10.395c31.448-14.192 56.826-38.672 72.2-69.953 6.268-12.753 1.011-28.172-11.742-34.44s-28.172-1.011-34.44 11.742c-6.404 13.03-15.467 24.25-26.512 33.086l-.024-2.938c-.111-13.447-14.738-21.731-26.328-14.91l-62.819 36.97c-11.588 6.82-11.449 23.627.25 30.254l63.423 35.928c11.701 6.629 26.189-1.896 26.078-15.344z" fill="#95d6a4"/></g><g fill="#78c2a4"><path d="m346.605 461.597 60.235 34.12c-5.264 4.399-13.011 5.666-19.821 1.813l-63.418-35.933c-11.703-6.624-11.847-23.437-.258-30.256l62.82-36.963c6.851-4.038 14.773-2.781 20.119 1.7l-59.926 35.263c-11.588 6.819-11.443 23.632.249 30.256z"/><path d="m473.626 367.476c-4.862 2.421-9.004 6.397-11.59 11.651-6.397 13.032-27.351 47.347-53.899 44.195l4.564-11.26c10.961-8.808 19.965-19.975 26.331-32.935 6.264-12.743 21.685-18.008 34.439-11.734.052.021.103.052.155.083z"/></g><g><path d="m58.215 71.194 4.105 9.551c-23.499 25.262-37.418 57.659-39.48 92.453-.841 14.185 9.977 26.365 24.162 27.206s26.365-9.977 27.206-24.162c.859-14.494 4.871-28.348 11.631-40.771l1.16 2.699c5.31 12.355 22.003 14.329 30.048 3.552l43.603-58.411c8.043-10.775 1.407-26.217-11.946-27.797l-72.387-8.566c-13.354-1.58-23.412 11.89-18.102 24.246z" fill="#95d6a4"/></g><g><path d="m39.09 173.193c-.711 11.878 6.768 22.365 17.554 25.94-3.018 1.01-6.274 1.463-9.642 1.267-14.186-.834-25.003-13.021-24.158-27.207 2.06-34.789 15.978-67.188 39.477-92.448l-4.11-9.55c-5.305-12.362 4.749-25.827 18.111-24.25l8.097.958c-8.87 3.297-14.113 13.629-9.962 23.292l4.11 9.55c-23.499 25.26-37.417 57.659-39.477 92.448z" fill="#78c2a4"/></g></g></svg>