<svg id="Capa_1" enable-background="new 0 0 512 512" height="512" viewBox="0 0 512 512" width="512" xmlns="http://www.w3.org/2000/svg"><g><path d="m389.058 97.686h37.427v59.019h-37.427z" fill="#ffd064" transform="matrix(.754 .657 -.657 .754 183.736 -236.486)"/><path d="m443.643 150.362c-22.014-18.148-43.524-36.875-64.532-56.179-8.525-7.834-9.472-21.062-1.897-29.819.091-.105.182-.21.274-.315 7.63-8.708 20.862-9.593 29.796-2.228 22.014 18.148 43.525 36.875 64.532 56.18 8.525 7.834 9.472 21.062 1.897 29.819-.091.105-.182.21-.274.315-7.63 8.708-20.863 9.592-29.796 2.227z" fill="#f6e266"/><path d="m407.512 119.663c-9.568-8.378-19.029-16.868-28.404-25.479-8.523-7.84-9.469-21.064-1.896-29.819l.276-.317c7.629-8.707 20.862-9.596 29.796-2.229 9.82 8.1 19.532 16.301 29.148 24.624-9.142-5.918-21.446-4.513-28.786 3.85l-.285.328c-7.268 8.416-6.97 20.803.151 29.042z" fill="#ffd064"/><path d="m85.516 97.686h37.427v59.019h-37.427z" fill="#ffd064" transform="matrix(-.754 .657 -.657 -.754 266.36 154.692)"/><path d="m68.358 150.362c22.014-18.148 43.524-36.875 64.532-56.179 8.525-7.834 9.472-21.062 1.897-29.819-.091-.105-.182-.21-.274-.315-7.63-8.708-20.862-9.593-29.796-2.228-22.014 18.148-43.525 36.875-64.532 56.18-8.525 7.834-9.472 21.062-1.897 29.819.091.105.182.21.274.315 7.63 8.708 20.863 9.592 29.796 2.227z" fill="#f6e266"/><path d="m68.587 92.52c-9.568 8.378-19.029 16.868-28.404 25.479-8.523 7.84-9.469 21.064-1.896 29.819l.276.317c7.629 8.707 20.861 9.596 29.796 2.229 9.82-8.1 19.532-16.301 29.148-24.624-9.142 5.918-21.446 4.513-28.786-3.85l-.285-.328c-7.269-8.416-6.97-20.802.151-29.042z" fill="#ffd064"/><path d="m217.304 28.858h77.392v84.594h-77.392z" fill="#ffd064"/><path d="m317.318 62.324c-40.879 1.099-81.757 1.099-122.636 0-16.589-.446-30.062-13.855-30.115-30.451-.001-.2-.001-.399 0-.599.053-16.595 13.526-30.005 30.115-30.451 40.879-1.099 81.757-1.099 122.636 0 16.589.446 30.062 13.855 30.115 30.451.001.2.001.399 0 .599-.052 16.595-13.525 30.005-30.115 30.451z" fill="#f6e266"/><path d="m249.367 63.14c-18.229-.053-36.447-.327-54.686-.812-16.593-.454-30.061-13.859-30.114-30.452v-.602c.053-16.592 13.521-30.008 30.114-30.452 18.239-.485 36.457-.76 54.686-.812-15.453 2.206-27.433 15.305-27.496 31.254v.623c.063 15.938 12.043 29.047 27.496 31.253z" fill="#ffd064"/><circle cx="256" cy="298.533" fill="#f6e266" r="213.467"/><path d="m269.201 511.596c-4.363.263-8.768.4-13.194.4-117.897 0-213.473-95.577-213.473-213.463 0-117.897 95.577-213.473 213.473-213.473 4.426 0 8.831.137 13.194.4-111.747 6.811-200.269 99.602-200.269 213.073 0 113.46 88.522 206.25 200.269 213.063z" fill="#ffd064"/><circle cx="256" cy="298.533" fill="#d3effb" r="164.438"/><path d="m271.572 462.225c-5.131.494-10.324.736-15.57.736-90.814 0-164.439-73.614-164.439-164.429 0-90.825 73.625-164.439 164.439-164.439 5.246 0 10.44.242 15.57.736-83.518 7.832-148.88 78.125-148.88 163.703.001 85.569 65.362 155.861 148.88 163.693z" fill="#9dc6fb"/><g fill="#365e7d"><g><path d="m321.619 417.747c-2.725 0-5.375-1.414-6.836-3.944l-9.857-17.073c-2.178-3.771-.886-8.594 2.886-10.771s8.593-.886 10.771 2.886l9.857 17.073c2.178 3.771.886 8.594-2.886 10.771-1.242.717-2.598 1.058-3.935 1.058z"/><path d="m200.253 207.536c-2.725 0-5.375-1.414-6.836-3.944l-9.857-17.073c-2.178-3.771-.886-8.594 2.886-10.771s8.593-.886 10.771 2.886l9.857 17.073c2.178 3.771.886 8.594-2.886 10.771-1.242.717-2.598 1.058-3.935 1.058z"/></g><g><path d="m369.635 369.716c-1.338 0-2.694-.341-3.935-1.058l-17.073-9.857c-3.771-2.177-5.064-7-2.886-10.771 2.177-3.771 6.999-5.064 10.771-2.886l17.073 9.857c3.771 2.177 5.064 7 2.886 10.771-1.461 2.53-4.111 3.944-6.836 3.944z"/><path d="m159.424 248.351c-1.338 0-2.694-.341-3.935-1.058l-17.073-9.857c-3.771-2.177-5.064-7-2.886-10.771 2.177-3.772 6.999-5.064 10.771-2.886l17.073 9.857c3.771 2.177 5.064 7 2.886 10.771-1.461 2.529-4.112 3.944-6.836 3.944z"/></g><g><path d="m352.576 248.351c-2.725 0-5.375-1.414-6.836-3.944-2.178-3.772-.885-8.594 2.886-10.771l17.073-9.857c3.771-2.177 8.593-.886 10.771 2.886s.885 8.594-2.886 10.771l-17.073 9.857c-1.241.717-2.597 1.058-3.935 1.058z"/><path d="m142.365 369.716c-2.725 0-5.375-1.414-6.836-3.944-2.178-3.772-.885-8.594 2.886-10.771l17.073-9.857c3.771-2.177 8.593-.886 10.771 2.886s.885 8.594-2.886 10.771l-17.073 9.857c-1.241.718-2.597 1.058-3.935 1.058z"/></g><g><path d="m311.747 207.536c-1.338 0-2.694-.341-3.935-1.058-3.772-2.177-5.064-7-2.886-10.771l9.857-17.073c2.177-3.771 6.999-5.065 10.771-2.886 3.772 2.177 5.064 7 2.886 10.771l-9.857 17.073c-1.46 2.529-4.111 3.944-6.836 3.944z"/><path d="m190.381 417.747c-1.338 0-2.694-.341-3.935-1.058-3.772-2.177-5.064-7-2.886-10.771l9.857-17.073c2.177-3.772 6.999-5.064 10.771-2.886 3.772 2.177 5.064 7 2.886 10.771l-9.857 17.073c-1.46 2.53-4.111 3.944-6.836 3.944z"/></g></g><path d="m256.491 314.305c-2.708 0-5.452-.677-7.979-2.101-7.83-4.415-10.598-14.341-6.183-22.171l57.542-102.054c4.415-7.83 14.343-10.598 22.171-6.184 7.83 4.415 10.598 14.341 6.184 22.171l-57.542 102.054c-2.99 5.304-8.51 8.285-14.193 8.285z" fill="#e7a561"/><circle cx="256" cy="298.533" fill="#f6e266" r="36.974"/><path d="m266.609 333.952c-3.364 1.009-6.918 1.546-10.608 1.546-20.417 0-36.975-16.548-36.975-36.965 0-20.427 16.559-36.975 36.975-36.975 3.69 0 7.244.536 10.608 1.545-15.255 4.552-26.378 18.682-26.378 35.43 0 16.737 11.124 30.867 26.378 35.419z" fill="#ffd064"/><g><g fill="#698ed5"><circle cx="256" cy="172.217" r="15.284"/><circle cx="256" cy="424.848" r="15.284"/></g></g><g><g fill="#698ed5"><circle cx="382.316" cy="298.533" r="15.284"/><circle cx="129.685" cy="298.533" r="15.284"/></g></g></g></svg>