<svg id="Capa_1" enable-background="new 0 0 512 512" height="512" viewBox="0 0 512 512" width="512" xmlns="http://www.w3.org/2000/svg"><g><g><path d="m28.846 226.01c117.88-7.313 235.759-7.313 353.639 0 10.689.663 19.494 8.694 21.088 19.285 10.345 68.736 10.345 137.471 0 206.207-1.594 10.59-10.399 18.621-21.088 19.285-117.88 7.312-235.759 7.312-353.639 0-10.689-.663-19.494-8.694-21.088-19.285-10.345-68.736-10.345-137.472 0-206.207 1.594-10.59 10.4-18.622 21.088-19.285z" fill="#78c2a4"/><path d="m71.228 445.52c0-21.335-17.295-38.63-38.63-38.63-1.526 0-3.029.098-4.51.271-3.461-39.111-3.461-78.413 0-117.524 1.48.172 2.983.27 4.51.27 21.335 0 38.63-17.295 38.63-38.63 0-.699-.021-1.393-.057-2.083 44.822-2.129 89.897-3.219 134.495-3.219 43.071 0 86.59 1.004 129.893 2.99-.045.765-.075 1.535-.075 2.311 0 21.335 17.296 38.63 38.631 38.63 3.121 0 6.152-.38 9.059-1.079 3.557 39.647 3.557 79.493 0 119.141-2.907-.699-5.938-1.079-9.059-1.079-21.335 0-38.631 17.295-38.631 38.63 0 .777.03 1.546.075 2.311-43.303 1.987-86.822 2.99-129.893 2.99-44.598 0-89.672-1.09-134.495-3.219.036-.688.057-1.382.057-2.081z" fill="#95d6a4"/><ellipse cx="205.667" cy="348.398" fill="#78c2a4" rx="80.894" ry="73.023"/><g fill="#78c2a4"><circle cx="81.616" cy="348.398" r="19.968"/><circle cx="329.718" cy="348.398" r="19.968"/></g><path d="m216.639 340.675c-8.113-2.362-17.097-5.222-22.217-8.529-1.781-1.15-1.891-2.97-1.671-4.293.418-2.508 2.519-5.598 7.161-6.75 10.189-2.526 16.909 1.499 18.152 2.332 3.499 2.341 8.232 1.403 10.573-2.095 2.342-3.498 1.404-8.231-2.094-10.573-1.855-1.24-6.707-4.066-13.796-5.223v-2.385c0-4.209-3.412-7.621-7.621-7.621-4.21 0-7.621 3.412-7.621 7.621v2.859c-.418.091-.838.186-1.262.291-9.729 2.414-17.001 9.887-18.526 19.038-1.314 7.882 1.919 15.393 8.436 19.603 5.455 3.524 13.053 6.526 26.226 10.361 6.15 1.79 9.328 5.308 8.721 9.652-.725 5.186-6.584 10.724-16.016 10.776-8.946.048-11.972-.347-18.93-4.095-3.708-1.998-8.329-.611-10.324 3.095-1.997 3.705-.611 8.328 3.094 10.324 7.279 3.922 12.403 5.297 18.582 5.735v2.842c0 4.209 3.412 7.621 7.621 7.621 4.21 0 7.621-3.412 7.621-7.621v-3.446c13.698-2.855 22.04-13.056 23.447-23.119 1.283-9.18-3.069-21.6-19.556-26.4z" fill="#95d6a4"/></g><g><circle cx="379.776" cy="167.952" fill="#d3effb" r="124.629"/><path d="m401.552 290.775c-6.901 1.196-14.003 1.81-21.243 1.81-68.831 0-124.633-55.802-124.633-124.633s55.802-124.633 124.633-124.633c7.24 0 14.342.614 21.243 1.81-58.702 10.076-103.379 61.232-103.379 122.823s44.677 112.747 103.379 122.823z" fill="#9dc6fb"/><path d="m379.776 183.829h-57.902c-8.768 0-15.877-7.108-15.877-15.877s7.108-15.877 15.877-15.877h57.902c8.768 0 0 7.108 0 15.877s0 10.643 0 15.877z" fill="#365e7d"/><path d="m379.776 183.829c-8.768 0-15.877-7.108-15.877-15.877v-40.54c0-8.768 7.108-15.877 15.877-15.877 8.768 0 15.877 7.108 15.877 15.877v40.54c0 8.769-7.109 15.877-15.877 15.877z" fill="#2b4d66"/><g fill="#365e7d"><g><path d="m379.776 79.971c-4.195 0-7.595-3.4-7.595-7.595v-25.123c0-4.194 3.4-7.595 7.595-7.595s7.595 3.4 7.595 7.595v25.124c0 4.194-3.4 7.594-7.595 7.594z"/><path d="m379.776 296.247c-4.195 0-7.595-3.4-7.595-7.595v-25.124c0-4.194 3.4-7.595 7.595-7.595s7.595 3.4 7.595 7.595v25.124c0 4.195-3.4 7.595-7.595 7.595z"/></g><g><path d="m500.476 175.547h-25.124c-4.195 0-7.595-3.4-7.595-7.595 0-4.194 3.4-7.595 7.595-7.595h25.124c4.195 0 7.595 3.4 7.595 7.595-.001 4.195-3.401 7.595-7.595 7.595z"/><path d="m284.201 175.547h-25.124c-4.194 0-7.595-3.4-7.595-7.595 0-4.194 3.4-7.595 7.595-7.595h25.124c4.195 0 7.595 3.4 7.595 7.595-.001 4.195-3.401 7.595-7.595 7.595z"/></g><g><path d="m471.469 122.613c-2.624 0-5.178-1.362-6.584-3.799-2.097-3.632-.852-8.277 2.78-10.374l12.844-7.415c3.63-2.096 8.278-.853 10.374 2.78 2.097 3.632.852 8.277-2.78 10.374l-12.844 7.415c-1.195.691-2.502 1.019-3.79 1.019z"/><path d="m275.254 235.898c-2.624 0-5.177-1.362-6.584-3.799-2.097-3.632-.852-8.277 2.78-10.374l12.843-7.415c3.631-2.097 8.276-.853 10.374 2.78 2.097 3.632.852 8.277-2.78 10.374l-12.843 7.415c-1.195.691-2.501 1.019-3.79 1.019z"/></g><g><path d="m432.704 83.862c-1.288 0-2.595-.328-3.79-1.019-3.632-2.097-4.877-6.742-2.78-10.375l7.416-12.843c2.097-3.633 6.742-4.876 10.374-2.779s4.877 6.742 2.78 10.375l-7.416 12.843c-1.407 2.436-3.96 3.798-6.584 3.798z"/><path d="m319.419 280.077c-1.288 0-2.594-.328-3.79-1.019-3.632-2.097-4.877-6.742-2.78-10.374l7.415-12.843c2.096-3.633 6.74-4.878 10.374-2.78 3.632 2.097 4.877 6.742 2.78 10.374l-7.415 12.843c-1.406 2.437-3.959 3.799-6.584 3.799z"/></g><g><path d="m326.848 83.862c-2.624 0-5.178-1.362-6.584-3.799l-7.415-12.843c-2.097-3.632-.852-8.277 2.78-10.374 3.631-2.096 8.278-.853 10.374 2.78l7.415 12.843c2.097 3.632.852 8.277-2.78 10.374-1.195.691-2.502 1.019-3.79 1.019z"/><path d="m440.133 280.077c-2.624 0-5.177-1.362-6.584-3.798l-7.416-12.843c-2.097-3.632-.853-8.277 2.78-10.375 3.631-2.097 8.276-.853 10.374 2.779l7.416 12.843c2.097 3.632.853 8.277-2.78 10.375-1.195.691-2.501 1.019-3.79 1.019z"/></g><g><path d="m288.083 122.613c-1.289 0-2.595-.328-3.79-1.019l-12.843-7.415c-3.632-2.097-4.877-6.742-2.78-10.374 2.096-3.633 6.743-4.878 10.374-2.78l12.843 7.415c3.632 2.097 4.877 6.742 2.78 10.374-1.406 2.437-3.96 3.799-6.584 3.799z"/><path d="m484.299 235.898c-1.289 0-2.594-.328-3.79-1.019l-12.844-7.415c-3.632-2.097-4.877-6.742-2.78-10.374 2.096-3.633 6.74-4.878 10.374-2.78l12.844 7.415c3.632 2.097 4.877 6.742 2.78 10.374-1.407 2.437-3.96 3.799-6.584 3.799z"/></g></g><path d="m379.776 300.176c-72.909 0-132.224-59.315-132.224-132.224 0-72.908 59.315-132.223 132.224-132.223s132.224 59.315 132.224 132.223c0 72.909-59.315 132.224-132.224 132.224zm0-249.258c-64.533 0-117.034 52.501-117.034 117.034s52.501 117.034 117.034 117.034 117.034-52.501 117.034-117.034c.001-64.532-52.501-117.034-117.034-117.034z" fill="#f6e266"/></g></g></svg>