<svg id="Capa_1" enable-background="new 0 0 512 512" height="512" viewBox="0 0 512 512" width="512" xmlns="http://www.w3.org/2000/svg"><g><path d="m507.662 306.63c0-10.478 7.588-23.09 2.693-31.551-5.05-8.729-19.938-8.397-28.667-13.447-8.461-4.895-15.495-18.087-25.973-18.087s-17.512 13.192-25.972 18.087c-8.729 5.05-23.617 4.719-28.667 13.447-4.895 8.461 2.693 21.073 2.693 31.551s-7.588 23.09-2.693 31.551c5.05 8.729 19.938 8.397 28.667 13.447 8.461 4.895 15.495 18.087 25.973 18.087s17.512-13.192 25.972-18.087c8.729-5.05 23.617-4.719 28.667-13.447 4.895-8.461-2.693-21.073-2.693-31.551z" fill="#f6e266"/><path d="m454.775 166.38c-9.439 27.536-17.264 52.033-20.647 72.419l-8.105 7.505-8.202-4.59c3.205-24.997 12.842-53.115 22.187-80.39 14.08-41.065 28.628-83.523 11.51-94.471-12.342-7.878-28.555-5.349-48.172 7.524-19.013 12.478-37.235 32.146-49.171 46.444-2.768 3.309-7.69 3.746-11 .989-3.309-2.758-3.746-7.68-.989-10.989 18.347-21.989 36.048-38.639 52.594-49.493 25.225-16.556 47.141-19.117 65.134-7.628 27.464 17.554 11.626 63.759-5.139 112.68z" fill="#9d6b6b"/><path d="m463.079 309.22c-1.134 3.205-4.142 5.214-7.368 5.214-.853 0-1.738-.146-2.591-.448-26.224-9.241-38.39-30.678-36.152-63.709.187-2.809.479-5.661.853-8.564l16.307-2.914c-5.078 30.543-.187 51.877 24.185 60.462 4.058 1.436 6.192 5.89 4.766 9.959z" fill="#dd636e"/><g><path d="m369.108 158.201-13.008 12.997-30.418 30.418-61.95-61.95 43.416-43.416c10.24-10.24 26.838-10.24 37.078 0l24.882 24.871c10.23 10.241 10.23 26.839 0 37.08z" fill="#365e7d"/><path d="m362.954 114.984c-10.239-10.239-26.827-10.239-37.066 0l-43.422 43.422-18.738-18.738 43.422-43.422c10.239-10.239 26.834-10.231 37.074.008z" fill="#2b4d66"/><path d="m356.1 171.198-30.418 30.418-61.95-61.95 30.408-30.408c25.215 15.465 46.486 36.736 61.96 61.94z" fill="#2b4d66"/><circle cx="187.371" cy="277.98" fill="#365e7d" r="187.371"/><path d="m199.4 464.975c-3.977.243-7.991.377-12.028.377-103.489 0-187.372-83.896-187.372-187.372s83.883-187.372 187.372-187.372c4.038 0 8.051.134 12.028.377-97.845 6.251-175.27 87.58-175.27 186.995s77.425 180.743 175.27 186.995z" fill="#2b4d66"/><circle cx="187.371" cy="277.98" fill="#d3effb" r="143.206"/><path d="m212.393 419.111c-7.93 1.374-16.091 2.08-24.41 2.08-79.091 0-143.21-64.119-143.21-143.21s64.119-143.21 143.21-143.21c8.319 0 16.48.705 24.41 2.08-67.452 11.577-118.789 70.357-118.789 141.129s51.337 129.552 118.789 141.131z" fill="#9dc6fb"/><path d="m187.371 296.223h-66.533c-10.075 0-18.243-8.168-18.243-18.243s8.168-18.243 18.243-18.243h66.533c10.075 0 18.243 8.168 18.243 18.243s-8.168 18.243-18.243 18.243z" fill="#365e7d"/><path d="m187.371 296.223c-10.075 0-18.243-8.168-18.243-18.243v-46.583c0-10.075 8.168-18.243 18.243-18.243s18.243 8.168 18.243 18.243v46.583c0 10.075-8.168 18.243-18.243 18.243z" fill="#2b4d66"/><g fill="#365e7d"><g><path d="m187.371 174.729c-4.31 0-7.805-3.494-7.805-7.805v-29.194c0-4.31 3.494-7.805 7.805-7.805 4.31 0 7.805 3.494 7.805 7.805v29.194c0 4.311-3.495 7.805-7.805 7.805z"/><path d="m187.371 426.034c-4.31 0-7.805-3.494-7.805-7.805v-29.194c0-4.31 3.494-7.805 7.805-7.805 4.31 0 7.805 3.494 7.805 7.805v29.194c0 4.311-3.495 7.805-7.805 7.805z"/></g><g><path d="m327.62 285.785h-29.194c-4.31 0-7.805-3.494-7.805-7.805 0-4.31 3.494-7.805 7.805-7.805h29.194c4.31 0 7.805 3.494 7.805 7.805 0 4.31-3.494 7.805-7.805 7.805z"/><path d="m76.315 285.785h-29.194c-4.31 0-7.805-3.494-7.805-7.805 0-4.31 3.494-7.805 7.805-7.805h29.194c4.31 0 7.805 3.494 7.805 7.805 0 4.31-3.494 7.805-7.805 7.805z"/></g><g><path d="m293.915 224.278c-2.697 0-5.321-1.4-6.766-3.904-2.155-3.733-.877-8.506 2.857-10.662l14.923-8.616c3.733-2.156 8.506-.877 10.662 2.857 2.155 3.733.877 8.506-2.857 10.662l-14.923 8.616c-1.23.709-2.572 1.047-3.896 1.047z"/><path d="m65.919 355.911c-2.697 0-5.321-1.4-6.766-3.904-2.155-3.733-.877-8.506 2.857-10.662l14.923-8.616c3.733-2.156 8.506-.877 10.662 2.857 2.155 3.733.877 8.506-2.857 10.662l-14.923 8.616c-1.23.71-2.572 1.047-3.896 1.047z"/></g><g><path d="m248.872 179.25c-1.324 0-2.666-.337-3.895-1.047-3.733-2.155-5.012-6.928-2.857-10.662l8.616-14.923c2.155-3.733 6.927-5.013 10.662-2.857 3.733 2.155 5.012 6.928 2.857 10.662l-8.616 14.923c-1.446 2.504-4.069 3.904-6.767 3.904z"/><path d="m117.239 407.246c-1.324 0-2.666-.337-3.895-1.047-3.733-2.155-5.012-6.928-2.857-10.662l8.615-14.923c2.154-3.733 6.926-5.013 10.662-2.857 3.733 2.155 5.012 6.928 2.857 10.662l-8.615 14.923c-1.446 2.504-4.07 3.904-6.767 3.904z"/></g><g><path d="m125.869 179.25c-2.697 0-5.321-1.4-6.766-3.904l-8.615-14.923c-2.155-3.733-.876-8.507 2.857-10.662 3.732-2.155 8.507-.877 10.662 2.857l8.615 14.923c2.155 3.733.876 8.507-2.857 10.662-1.23.71-2.572 1.047-3.896 1.047z"/><path d="m257.503 407.246c-2.697 0-5.321-1.4-6.766-3.904l-8.616-14.923c-2.155-3.733-.877-8.507 2.857-10.662 3.733-2.155 8.507-.877 10.662 2.857l8.616 14.923c2.155 3.733.877 8.507-2.857 10.662-1.23.71-2.572 1.047-3.896 1.047z"/></g><g><path d="m80.827 224.278c-1.324 0-2.666-.337-3.895-1.047l-14.923-8.616c-3.733-2.155-5.012-6.929-2.857-10.662s6.928-5.013 10.662-2.857l14.923 8.616c3.733 2.155 5.012 6.929 2.857 10.662-1.446 2.504-4.07 3.904-6.767 3.904z"/><path d="m308.823 355.911c-1.324 0-2.666-.337-3.895-1.047l-14.923-8.616c-3.733-2.155-5.012-6.929-2.857-10.662 2.154-3.734 6.928-5.013 10.662-2.857l14.923 8.616c3.733 2.155 5.012 6.929 2.857 10.662-1.446 2.504-4.07 3.904-6.767 3.904z"/></g></g><path d="m187.371 428.991c-83.268 0-151.011-67.743-151.011-151.011s67.743-151.011 151.011-151.011 151.011 67.743 151.011 151.011-67.743 151.011-151.011 151.011zm0-286.412c-74.66 0-135.401 60.741-135.401 135.401 0 74.661 60.741 135.401 135.401 135.401s135.401-60.741 135.401-135.401-60.741-135.401-135.401-135.401z" fill="#2b4d66"/></g></g></svg>