<svg id="Capa_1" enable-background="new 0 0 512 512" height="512" viewBox="0 0 512 512" width="512" xmlns="http://www.w3.org/2000/svg"><g><circle cx="267.075" cy="255.777" fill="#dd636e" r="233.849"/><path d="m499.258 363.984c-40.734 87.421-129.381 148.016-232.183 148.016-141.382 0-256-114.618-256-256s114.618-256 256-256v256z" fill="#95d6a4"/><g><path d="m341.276 115.318s19.452 38.173 21.989 77.596c.337 5.243-1.565 10.387-5.216 14.165-6.423 6.646-18.207 18.084-33.868 30.061-12.146 9.288-12.146 27.671 0 36.959 15.661 11.976 27.445 23.414 33.868 30.061 3.651 3.778 5.553 8.922 5.216 14.165-2.536 39.422-21.989 77.596-21.989 77.596h-148.401s-19.452-38.173-21.989-77.596c-.337-5.243 1.565-10.387 5.216-14.165 6.423-6.646 18.207-18.084 33.868-30.061 12.146-9.288 12.146-27.671 0-36.959-15.661-11.976-27.445-23.414-33.868-30.061-3.651-3.778-5.553-8.922-5.216-14.165 2.536-39.422 21.989-77.596 21.989-77.596z" fill="#f9f6f9"/><path d="m242.93 274.373c-10.308 18.908-16.639 36.499-16.639 36.499 0 37.329 7.161 75.84 8.991 85.05h-42.403s-19.456-38.175-21.992-77.603c-.337-5.243 1.564-10.386 5.215-14.164 6.422-6.647 18.206-18.085 33.868-30.063 12.15-9.283 12.15-27.667 0-36.95-15.662-11.978-27.445-23.417-33.868-30.063-3.65-3.778-5.552-8.922-5.215-14.164 2.536-39.428 21.992-77.603 21.992-77.603h42.403c-1.83 9.21-8.991 47.722-8.991 85.051 0 0 6.331 17.591 16.639 36.499 5.136 9.43 5.136 28.081 0 37.511z" fill="#dddaec"/><path d="m328.144 168.581c3.045 12.593-1.231 25.821-11.018 34.31-3.578 3.103-7.601 6.42-11.998 9.782-5.281 4.035-9.355 9.194-12.009 15.018-4.616 10.137-14.901 16.49-26.045 16.49-11.137 0-21.429-6.353-26.045-16.49-2.647-5.824-6.728-10.982-12.002-15.018-4.395-3.36-8.416-6.675-11.994-9.777-9.785-8.483-14.061-21.704-11.026-34.293.21-.873.427-1.739.648-2.597h120.845c.219.85.435 1.709.644 2.575z" fill="#f6e266"/><path d="m267.073 244.18c-11.136 0-21.428-6.356-26.043-16.493-2.648-5.82-6.727-10.982-12.002-15.02-4.399-3.358-8.417-6.676-11.991-9.776-9.787-8.478-14.062-21.706-11.033-34.295.216-.865.433-1.741.649-2.596h36.54c-.093.855-.175 1.731-.258 2.596-1.205 12.589.484 25.816 4.358 34.295 1.411 3.101 3.008 6.418 4.739 9.776 2.091 4.038 3.698 9.2 4.749 15.02 1.824 10.136 5.894 16.493 10.292 16.493z" fill="#ffd064"/><g><path d="m321.346 376.402c0-35.189-27.894-64.047-43.687-77.566-6.087-5.211-15.081-5.211-21.168 0-15.792 13.518-43.687 42.377-43.687 77.566" fill="#f6e266"/><path d="m256.489 298.829c2.281-1.964 4.989-3.184 7.795-3.66-.329.512-.634 1.122-.927 1.83-5.514 13.443-15.249 44.465-15.358 79.402h-35.194c0-35.192 27.887-64.055 43.684-77.572z" fill="#ffd064"/></g><path d="m354.434 376.402h-174.718c-12.294 0-22.26 9.966-22.26 22.26v18.884c0 12.294 9.966 22.26 22.26 22.26h174.718c12.294 0 22.26-9.966 22.26-22.26v-18.884c.001-12.294-9.966-22.26-22.26-22.26z" fill="#9d6b6b"/><path d="m354.434 72.197h-174.718c-12.294 0-22.26 9.966-22.26 22.26v18.884c0 12.294 9.966 22.26 22.26 22.26h174.718c12.294 0 22.26-9.966 22.26-22.26v-18.884c.001-12.294-9.966-22.26-22.26-22.26z" fill="#9d6b6b"/><path d="m218.756 135.592h-39.036c-12.297 0-22.263-9.966-22.263-22.251v-18.884c0-12.296 9.966-22.263 22.263-22.263h39.036c-12.297 0-22.263 9.967-22.263 22.263v18.884c0 12.284 9.966 22.251 22.263 22.251z" fill="#8b5e5e"/><path d="m218.753 439.8h-39.036c-12.297 0-22.263-9.966-22.263-22.251v-18.884c0-12.296 9.966-22.263 22.263-22.263h39.036c-12.297 0-22.263 9.967-22.263 22.263v18.884c0 12.284 9.966 22.251 22.263 22.251z" fill="#8b5e5e"/><g fill="#ffd064"><path d="m290.009 362.141c-4.268 0-7.726-3.459-7.726-7.726v-.37c0-4.267 3.459-7.726 7.726-7.726 4.268 0 7.726 3.459 7.726 7.726v.37c0 4.267-3.458 7.726-7.726 7.726z"/><path d="m279.234 342.247c-4.268 0-7.726-3.459-7.726-7.726v-.37c0-4.267 3.459-7.726 7.726-7.726s7.726 3.459 7.726 7.726v.37c.001 4.267-3.458 7.726-7.726 7.726z"/><path d="m267.693 361.956c-4.268 0-7.726-3.459-7.726-7.726v-.37c0-4.267 3.459-7.726 7.726-7.726s7.726 3.459 7.726 7.726v.37c0 4.267-3.458 7.726-7.726 7.726z"/></g></g></g></svg>