<svg id="Capa_1" enable-background="new 0 0 511.996 511.996" height="512" viewBox="0 0 511.996 511.996" width="512" xmlns="http://www.w3.org/2000/svg"><g><path d="m475.841 295.947h-49.805l-59.06 72.305h108.865c19.966 0 36.152-16.186 36.152-36.152 0-19.967-16.186-36.153-36.152-36.153z" fill="#ffddce"/><path d="m511.996 332.096c0 19.971-16.185 36.155-36.155 36.155h-108.863l20.523-25.122h88.34c15.549 0 28.803-9.813 33.913-23.589 1.45 3.911 2.242 8.134 2.242 12.556z" fill="#ffcbbe"/><path d="m470.627 223.642h-49.805l-59.06 72.305h108.865c19.966 0 36.152-16.186 36.152-36.152 0-19.967-16.186-36.153-36.152-36.153z" fill="#ffddce"/><path d="m506.782 259.791c0 19.971-16.185 36.155-36.155 36.155h-108.863l20.523-25.122h88.34c15.549 0 28.803-9.813 33.913-23.589 1.45 3.911 2.242 8.134 2.242 12.556z" fill="#ffcbbe"/><path d="m444.556 151.337h-49.805l-59.06 72.305h108.865c19.966 0 36.152-16.186 36.152-36.152 0-19.967-16.186-36.153-36.152-36.153z" fill="#ffddce"/><path d="m480.711 187.486c0 19.971-16.185 36.155-36.155 36.155h-108.863l20.523-25.122h88.34c15.549 0 28.803-9.813 33.913-23.589 1.449 3.911 2.242 8.134 2.242 12.556z" fill="#ffcbbe"/><path d="m314.929 440.426h-167.825l-73.553-63.842-17.077-73.025 31.229-86.114 34.341-80.8c9.918-23.349 28.042-42.267 50.943-53.175l62.957-29.992c15.789-7.529 34.602-4.286 46.97 8.072 4.703 4.703 8.061 10.314 10.032 16.32.01 0 .01.01.01.01 1.366 4.161 2.054 8.52 2.054 12.89 0 7.602-2.096 15.257-6.393 22.046l-25.935 41.067 38.512 211.197 12.963 71.101z" fill="#ffddce"/><path d="m314.157 436.182c-.782 1.429-1.554 2.847-2.326 4.244h-164.727l-24.58-92.271c33.308 14.871 115.151 45.103 178.67 16.925 4.682-2.075 9.271-4.474 13.734-7.217 53.415-32.869 25.415 30.119-.771 78.319z" fill="#ffcbbe"/><path d="m292.945 77.871c-10.053-16.31-53.477 1.898-81.79 16.905-25.925 13.734-95.472 102.199-103.252 198.516l-20.2-75.846 34.341-80.8c9.918-23.349 28.042-42.267 50.943-53.175l62.957-29.992c15.789-7.529 34.602-4.286 46.97 8.072 4.702 4.702 8.061 10.313 10.031 16.32z" fill="#ffcbbe"/><g><path d="m341.655 85.163h57.215v62.539h-57.215z" fill="#ffd064" transform="matrix(.952 .308 -.308 .952 53.788 -108.278)"/><path d="m417.795 116.773c-29.005-8.526-57.759-17.825-86.264-27.896-11.568-4.087-17.995-16.584-14.257-28.27.045-.14.09-.281.136-.421 3.812-11.661 16.339-18.029 28.11-14.569 29.005 8.526 57.759 17.824 86.264 27.896 11.568 4.087 17.995 16.584 14.257 28.27-.045.14-.09.281-.136.421-3.812 11.661-16.34 18.029-28.11 14.569z" fill="#f6e266"/><path d="m369.811 101.89c-12.81-4.183-25.563-8.52-38.282-13.011-11.568-4.094-17.993-16.587-14.256-28.27l.137-.423c3.811-11.659 16.337-18.032 28.109-14.57 12.94 3.807 25.818 7.759 38.652 11.868-11.371-1.963-22.778 4.526-26.45 15.73l-.142.438c-3.581 11.225 1.864 23.172 12.232 28.238z" fill="#ffd064"/></g><path d="m423.798 368.121h-49.805l-59.06 72.305h108.865c19.966 0 36.152-16.186 36.152-36.152.001-19.967-16.185-36.153-36.152-36.153z" fill="#ffddce"/><path d="m459.954 404.27c0 19.97-16.185 36.155-36.155 36.155h-108.863l20.523-25.122h88.34c15.549 0 28.803-9.813 33.913-23.589 1.449 3.911 2.242 8.135 2.242 12.556z" fill="#ffcbbe"/><g><circle cx="314.933" cy="279.765" fill="#f6e266" r="160.66"/><path d="m325.248 440.103c-3.41.209-6.852.323-10.314.323-88.736 0-160.661-71.935-160.661-160.661s71.925-160.661 160.661-160.661c3.462 0 6.904.115 10.314.323-83.897 5.36-150.284 75.095-150.284 160.337s66.387 154.978 150.284 160.339z" fill="#ffd064"/><circle cx="314.933" cy="279.765" fill="#d3effb" r="122.791"/><path d="m336.389 400.777c-6.799 1.178-13.797 1.783-20.93 1.783-67.816 0-122.795-54.979-122.795-122.795s54.979-122.795 122.795-122.795c7.133 0 14.131.605 20.93 1.783-57.836 9.928-101.855 60.329-101.855 121.012s44.018 111.084 101.855 121.012z" fill="#9dc6fb"/><path d="m314.933 295.408c-8.639 0-15.643-7.004-15.643-15.643v-39.942c0-8.639 7.004-15.643 15.643-15.643s15.643 7.004 15.643 15.643v39.942c0 8.639-7.004 15.643-15.643 15.643z" fill="#2b4d66"/><g fill="#698ed5"><g><path d="m314.933 193.578c-4.268 0-7.726-3.459-7.726-7.726v-24.687c0-4.267 3.459-7.726 7.726-7.726s7.726 3.459 7.726 7.726v24.687c0 4.267-3.458 7.726-7.726 7.726z"/><path d="m314.933 406.093c-4.268 0-7.726-3.459-7.726-7.726v-24.687c0-4.267 3.459-7.726 7.726-7.726s7.726 3.459 7.726 7.726v24.687c0 4.266-3.458 7.726-7.726 7.726z"/></g><g><path d="m433.535 287.492h-24.687c-4.268 0-7.726-3.459-7.726-7.726s3.459-7.726 7.726-7.726h24.687c4.268 0 7.726 3.459 7.726 7.726 0 4.266-3.459 7.726-7.726 7.726z"/><path d="m221.019 287.492h-24.687c-4.268 0-7.726-3.459-7.726-7.726s3.459-7.726 7.726-7.726h24.687c4.268 0 7.726 3.459 7.726 7.726.001 4.266-3.458 7.726-7.726 7.726z"/></g><g><path d="m405.033 235.478c-2.67 0-5.268-1.386-6.698-3.864-2.134-3.695-.867-8.421 2.828-10.554l12.62-7.286c3.694-2.133 8.422-.868 10.554 2.828 2.134 3.695.867 8.421-2.828 10.554l-12.62 7.286c-1.217.702-2.546 1.036-3.856 1.036z"/><path d="m212.229 346.793c-2.67 0-5.268-1.386-6.698-3.864-2.134-3.696-.867-8.421 2.828-10.555l12.62-7.286c3.693-2.132 8.422-.867 10.554 2.828 2.134 3.696.867 8.421-2.828 10.555l-12.62 7.286c-1.216.702-2.545 1.036-3.856 1.036z"/></g><g><path d="m366.941 197.401c-1.311 0-2.639-.334-3.856-1.036-3.695-2.134-4.962-6.859-2.828-10.554l7.286-12.619c2.133-3.696 6.856-4.962 10.554-2.828 3.695 2.134 4.962 6.859 2.828 10.554l-7.286 12.619c-1.43 2.478-4.028 3.864-6.698 3.864z"/><path d="m255.626 390.204c-1.311 0-2.639-.334-3.856-1.036-3.695-2.134-4.962-6.859-2.828-10.554l7.286-12.619c2.133-3.696 6.857-4.962 10.554-2.828 3.695 2.134 4.962 6.859 2.828 10.554l-7.286 12.619c-1.43 2.478-4.028 3.864-6.698 3.864z"/></g><g><path d="m262.926 197.401c-2.67 0-5.268-1.386-6.698-3.864l-7.286-12.619c-2.134-3.695-.867-8.421 2.828-10.554 3.693-2.133 8.421-.868 10.554 2.828l7.286 12.619c2.134 3.695.867 8.421-2.828 10.554-1.216.702-2.545 1.036-3.856 1.036z"/><path d="m374.241 390.204c-2.67 0-5.268-1.386-6.698-3.864l-7.286-12.619c-2.134-3.695-.867-8.421 2.828-10.554 3.693-2.133 8.422-.868 10.554 2.828l7.286 12.619c2.134 3.695.867 8.421-2.828 10.554-1.216.702-2.545 1.036-3.856 1.036z"/></g><g><path d="m224.834 235.478c-1.311 0-2.639-.334-3.856-1.036l-12.62-7.286c-3.695-2.134-4.962-6.859-2.828-10.554 2.133-3.696 6.857-4.962 10.554-2.828l12.62 7.286c3.695 2.134 4.962 6.859 2.828 10.554-1.43 2.479-4.028 3.864-6.698 3.864z"/><path d="m417.638 346.793c-1.311 0-2.639-.334-3.856-1.036l-12.62-7.286c-3.695-2.134-4.962-6.859-2.828-10.555 2.133-3.696 6.857-4.962 10.554-2.828l12.62 7.286c3.695 2.134 4.962 6.859 2.828 10.555-1.43 2.478-4.028 3.864-6.698 3.864z"/></g></g><path d="m314.933 410.283c-71.968 0-130.517-58.55-130.517-130.517s58.549-130.518 130.517-130.518 130.518 58.55 130.518 130.518-58.55 130.517-130.518 130.517zm0-245.583c-63.447 0-115.064 51.618-115.064 115.065s51.617 115.065 115.064 115.065c63.448 0 115.065-51.618 115.065-115.065s-51.617-115.065-115.065-115.065z" fill="#ffd064"/></g><path d="m147.104 440.426-87.714 26.895-37.814-141.983-21.576-81.008 87.703-26.885 21.577 80.998z" fill="#dd636e"/><path d="m109.28 298.443-87.704 26.895-21.576-81.008 87.703-26.885z" fill="#cb5769"/></g></svg>