<svg id="Capa_1" enable-background="new 0 0 510 510" height="512" viewBox="0 0 510 510" width="512" xmlns="http://www.w3.org/2000/svg"><g><path d="m255 510c-15.192 0-209.806 0-225 0v-120l107.482-46.051 117.518 31.051 41.7 78.858z" fill="#0079a1"/><path d="m255 375-112.267 34.45-112.733-49.45v-120h225l37.87 65.747z" fill="#0079a1"/><g><g><path d="m255 390h-225v-30h225l15 15z" fill="#014c60"/></g></g><path d="m480 510c-15.192 0-209.806 0-225 0v-133.304l115.474-28.23 109.526 41.534v45l-15 15 15 15z" fill="#005f80"/><g><g><path d="m90 435h30v30h-30z" fill="#e6effb"/></g></g><g><path d="m150 435h30v30h-30z" fill="#ff8759"/></g><g><g><path d="m255 435h225v30h-225z" fill="#014c60"/></g></g><path d="m480 360-107.45 49.45-117.55-34.45v-135h225v45l-15 15 15 15z" fill="#005f80"/><g><g><path d="m90 285h30v30h-30z" fill="#ffef4a"/></g></g><g><g><path d="m150 285h30v30h-30z" fill="#e6effb"/></g></g><g><g><g><path d="m255 285h225v30h-225z" fill="#014c60"/></g></g></g><g><path d="m255 360h225v30h-225z" fill="#01333f"/></g><path d="m135 120c0 66.273 53.724 120 120 120l15-120-15-120c-66.273 0-120 53.724-120 120z" fill="#e6effb"/><path d="m375 120c0-66.272-53.724-120-120-120v240c66.272 0 120-53.724 120-120z" fill="#cdd9fb"/><path d="m240 60v45h-45v30h45v45h15l15-60-15-60c-5.246 0-9.754 0-15 0z" fill="#57d9ad"/><path d="m270 135h45v-30h-45c0-14.981 0-30.019 0-45-5.246 0-9.754 0-15 0v120h15c0-14.981 0-30.019 0-45z" fill="#26bfa6"/></g></svg>