<svg id="Capa_1" enable-background="new 0 0 510 510" height="512" viewBox="0 0 510 510" width="512" xmlns="http://www.w3.org/2000/svg"><g><path d="m240 315v30c-10.128 0-139.871 0-150 0v60l15 15 15-15v-30h120v30l7.5 15 7.5-15 15-45-15-45-7.5-15z" fill="#e6effb"/><path d="m270 375h120v30l15 15 15-15v-60c-10.128 0-139.871 0-150 0 0-10.492 0-19.508 0-30l-7.5-15-7.5 15v90l7.5 15 7.5-15z" fill="#cdd9fb"/><path d="m154.327 75.126c-38.127-2.21-71.154 24.559-78.024 60.915-43.113 6.61-76.303 43.951-76.303 88.959 0 49.625 40.373 90 90 90h165l15-157.5-15-157.5c-47.056 0-87.623 31.153-100.673 75.126z" fill="#8bcafc"/><path d="m510 225c0-45.023-33.205-82.351-76.303-88.96-6.855-36.279-39.816-63.13-78.024-60.915-13.217-44.534-54.184-75.125-100.673-75.125v315h165c49.625 0 90-40.373 90-90z" fill="#6492e0"/><path d="m195 405v75l30 15 30-15 15-37.5-15-37.5z" fill="#ff8759"/><path d="m315 405h-60v75l30 15 30-15z" fill="#ff4057"/><path d="m195 480v30h60l15-15-15-15z" fill="#ff4057"/><path d="m315 480h-60v30h60z" fill="#c40048"/><path d="m45 405v75l30 15 30-15 15-37.5-15-37.5z" fill="#ffef4a"/><path d="m165 405h-60v75l30 15 30-15z" fill="#fc0"/><path d="m45 480v30h60l15-15-15-15z" fill="#fc0"/><path d="m165 480h-60v30h60z" fill="#ff9e22"/><path d="m345 405v75l30 15 30-15 15-37.5-15-37.5z" fill="#57d9ad"/><path d="m465 405h-60v75l30 15 30-15c0-20.194 0-63.236 0-75z" fill="#26bfa6"/><path d="m345 480v30h60l15-15-15-15z" fill="#26bfa6"/><path d="m465 480h-60v30h60c0-10.492 0-19.508 0-30z" fill="#269ea6"/></g></svg>