<svg id="Capa_1" enable-background="new 0 0 510 510" height="512" viewBox="0 0 510 510" width="512" xmlns="http://www.w3.org/2000/svg"><g><path d="m240 208.924v181.076l7.5 11.75 7.5-11.75 7.5-90-7.5-90-7.519-11z" fill="#e6effb"/><path d="m270 208.924-7.481-9.924-7.519 11v180l7.5 11.75 7.5-11.75z" fill="#cdd9fb"/><path d="m105 312.667 15-11.59v-181.077h31.076l8.924-15-8.924-15c-21.341 0-39.736 0-61.076 0v211.076z" fill="#e6effb"/><path d="m348 105 10.924 15h31.076v181.076l15 13.09 15-13.09v-211.076c-21.34 0-39.736 0-61.076 0z" fill="#cdd9fb"/><path d="m208.924 390-10.591 15 10.591 15h46.076l10-15-10-15z" fill="#cdd9fb"/><path d="m312.333 405-11.257-15h-46.076v30h46.076z" fill="#b3c7ef"/><g><path d="m150 105c0 57.895 47.102 105 105 105l10-105-10-105c-57.895 0-105 47.102-105 105z" fill="#5a5f64"/><path d="m360 105c0-57.895-47.101-105-105-105v210c57.896 0 105-47.101 105-105z" fill="#4b5055"/><path d="m195.03 149.986c6.961 9.256 16.011 16.857 26.443 22.093 10.095 5.067 21.484 7.921 33.527 7.921 0-7.259 0-52.693 0-60-23.898 0-46.002 11.419-59.97 29.986z" fill="#ff8759"/><path d="m314.97 149.986c-13.967-18.566-36.072-29.986-59.97-29.986v60c12.043 0 23.432-2.854 33.526-7.921 10.433-5.236 19.483-12.837 26.444-22.093z" fill="#ff8759"/><path d="m217.5 97.5c0 20.677 16.822 37.5 37.5 37.5 0-20.194 0-63.236 0-75-20.677 0-37.5 16.822-37.5 37.5z" fill="#ffccbd"/><path d="m292.5 97.5c0-20.677-16.822-37.5-37.5-37.5v75c20.678 0 37.5-16.822 37.5-37.5z" fill="#ffccbd"/><path d="m180 105c0 16.475 5.358 32.126 15.03 44.986l34.108-25.369 25.862-64.617 7.5-16-7.5-14c-41.354 0-75 33.644-75 75z" fill="#e6effb"/><path d="m280.861 124.617 34.108 25.369c9.669-12.856 15.031-28.505 15.031-44.986 0-41.354-33.644-75-75-75v30z" fill="#cdd9fb"/><path d="m195.03 149.986c6.961 9.256 16.011 16.857 26.443 22.093 10.095 5.067 21.484 7.921 33.527 7.921l5.25-18.375-5.25-26.625-25.861-10.383c-13.517 4.984-25.401 13.794-34.109 25.369z" fill="#ff8759"/><path d="m314.97 149.986c-8.695-11.559-20.572-20.378-34.108-25.37l-25.862 10.384v45c12.043 0 23.432-2.854 33.526-7.921 10.433-5.236 19.483-12.837 26.444-22.093z" fill="#ff4057"/><path d="m217.5 97.5c0 20.677 16.822 37.5 37.5 37.5l7.5-35.666-7.5-39.334c-20.677 0-37.5 16.822-37.5 37.5z" fill="#ffccbd"/><path d="m292.5 97.5c0-20.677-16.822-37.5-37.5-37.5v75c20.678 0 37.5-16.822 37.5-37.5z" fill="#ffbda9"/></g><g><path d="m0 405c0 57.896 47.102 105 105 105l10-105-10-105c-57.896 0-105 47.102-105 105z" fill="#5a5f64"/><path d="m210 405c0-57.895-47.101-105-105-105v210c57.895 0 105-47.101 105-105z" fill="#4b5055"/><path d="m45.03 449.986c14.075 18.716 36.092 30.014 59.97 30.014 0-7.259 0-52.693 0-60-23.897 0-46.002 11.418-59.97 29.986z" fill="#ff8759"/><path d="m164.97 449.986c-13.967-18.566-36.072-29.986-59.97-29.986v60c23.832 0 45.867-11.26 59.97-30.014z" fill="#ff8759"/><path d="m67.5 397.5c0 20.677 16.822 37.5 37.5 37.5 0-20.194 0-63.236 0-75-20.677 0-37.5 16.822-37.5 37.5z" fill="#ffccbd"/><path d="m142.5 397.5c0-20.677-16.822-37.5-37.5-37.5v75c20.678 0 37.5-16.822 37.5-37.5z" fill="#ffccbd"/><path d="m30 405c0 16.475 5.358 32.125 15.03 44.986l34.108-25.369 25.862-64.617 7.5-16-7.5-14c-41.354 0-75 33.644-75 75z" fill="#e6effb"/><path d="m130.861 424.617 34.108 25.369c9.669-12.856 15.031-28.505 15.031-44.986 0-41.354-33.644-75-75-75v30z" fill="#cdd9fb"/><path d="m45.03 449.986c14.075 18.716 36.092 30.014 59.97 30.014l5.25-18.375-5.25-26.625-25.861-10.383c-13.517 4.984-25.401 13.794-34.109 25.369z" fill="#8bcafc"/><path d="m164.97 449.986c-8.695-11.559-20.572-20.378-34.108-25.37l-25.862 10.384v45c23.832 0 45.867-11.26 59.97-30.014z" fill="#6492e0"/><path d="m67.5 397.5c0 20.677 16.822 37.5 37.5 37.5l7.5-35.667-7.5-39.333c-20.677 0-37.5 16.822-37.5 37.5z" fill="#ffccbd"/><path d="m142.5 397.5c0-20.677-16.822-37.5-37.5-37.5v75c20.678 0 37.5-16.822 37.5-37.5z" fill="#ffbda9"/></g><g><path d="m300 405c0 57.896 47.102 105 105 105l10-105-10-105c-57.896 0-105 47.102-105 105z" fill="#5a5f64"/><path d="m510 405c0-57.895-47.101-105-105-105v210c57.896 0 105-47.101 105-105z" fill="#4b5055"/><path d="m345.03 449.986c6.961 9.256 16.011 16.856 26.443 22.093 10.095 5.067 21.484 7.921 33.527 7.921 0-7.259 0-52.693 0-60-23.897 0-46.002 11.418-59.97 29.986z" fill="#ff8759"/><path d="m464.97 449.986c-13.967-18.566-36.072-29.986-59.97-29.986v60c23.832 0 45.867-11.26 59.97-30.014z" fill="#ff8759"/><path d="m367.5 397.5c0 20.677 16.822 37.5 37.5 37.5 0-20.194 0-63.236 0-75-20.677 0-37.5 16.822-37.5 37.5z" fill="#ffccbd"/><path d="m442.5 397.5c0-20.677-16.822-37.5-37.5-37.5v75c20.678 0 37.5-16.822 37.5-37.5z" fill="#ffccbd"/><path d="m330 405c0 16.475 5.358 32.125 15.03 44.986l34.108-25.369 25.862-64.617 7.5-16-7.5-14c-41.353 0-75 33.644-75 75z" fill="#e6effb"/><path d="m430.861 424.617 34.108 25.369c9.669-12.856 15.031-28.505 15.031-44.986 0-41.354-33.644-75-75-75v30z" fill="#cdd9fb"/><path d="m345.03 449.986c6.961 9.256 16.011 16.856 26.443 22.093 10.095 5.067 21.484 7.921 33.527 7.921l5.25-18.375-5.25-26.625-25.861-10.383c-13.517 4.984-25.401 13.794-34.109 25.369z" fill="#fc0"/><path d="m464.97 449.986c-8.695-11.559-20.572-20.378-34.108-25.37l-25.862 10.384v45c23.832 0 45.867-11.26 59.97-30.014z" fill="#ff9e22"/><path d="m367.5 397.5c0 20.677 16.822 37.5 37.5 37.5l7.5-35.667-7.5-39.333c-20.677 0-37.5 16.822-37.5 37.5z" fill="#ffccbd"/><path d="m442.5 397.5c0-20.677-16.822-37.5-37.5-37.5v75c20.678 0 37.5-16.822 37.5-37.5z" fill="#ffbda9"/></g></g></svg>