<svg id="Capa_1" enable-background="new 0 0 510 510" height="512" viewBox="0 0 510 510" width="512" xmlns="http://www.w3.org/2000/svg"><g><path d="m392.58 480 12.42-15-12.42-15h-95.16l-12.42 15 12.42 15z" fill="#b3c7ef"/><path d="m212.58 450h-95.16l-12.42 15 12.42 15h95.16l12.42-15z" fill="#cdd9fb"/><path d="m240 375v47.58l7.39 8.068 7.61-10.648 5-22.5-5-22.5-7.5-15z" fill="#cdd9fb"/><path d="m255 375v45l7.61 10.648 7.39-8.068v-47.58l-7.5-15z" fill="#b3c7ef"/><g><g><g><g><g><path d="m255 279.276-112.499 5.724-112.501-15c0-10.492 0-19.508 0-30l112.499-15 112.501 8.053 15 21.947z" fill="#014c60"/></g></g><g><path d="m480 270-112.499 15-112.501-15v-30l112.499-15 112.501 15z" fill="#01333f"/></g><g><g><path d="m255 144.355-112.499 5.645-112.501-15c0-10.492 0-19.508 0-30l112.499-15 112.501 5.203 15 24.797z" fill="#014c60"/></g></g><g><path d="m480 135-112.499 15-112.501-15v-30l112.499-15 112.501 15z" fill="#01333f"/></g><path d="m255 270h-225v105h225c4.772-14.318 10.228-30.682 15-45z" fill="#0079a1"/><path d="m480 270h-225v105h225c0-14.981 0-30.019 0-45l-15-15 15-15z" fill="#005f80"/><g><g><path d="m120 330c-10.492 0-19.508 0-30 0v-30h30z" fill="#ffef4a"/></g></g><g><g><path d="m180 330c-10.492 0-19.508 0-30 0v-30h30z" fill="#e6effb"/></g></g><g><g><path d="m480 330c-15.191 0-209.806 0-225 0v-30h225z" fill="#014c60"/></g></g><path d="m255 135h-225v105h225l15-45z" fill="#0079a1"/><path d="m480 135h-225v105h225v-45l-15-15 15-15z" fill="#005f80"/><g><g><path d="m90 165h30v30h-30z" fill="#e6effb"/></g></g><g><path d="m150 165h30v30h-30z" fill="#ff8759"/></g><g><g><path d="m255 165h225v30h-225z" fill="#014c60"/></g></g><path d="m255 0h-225v105h225l15-45z" fill="#0079a1"/><path d="m480 0h-225v105h225v-38l-15-15 15-15z" fill="#005f80"/><g><g><path d="m90 37h30v30h-30z" fill="#ffef4a"/></g></g><g><g><path d="m150 37h30v30h-30z" fill="#e6effb"/></g></g><g><g><g><path d="m255 37h225v30h-225z" fill="#014c60"/></g></g></g></g></g></g><circle cx="435" cy="465" fill="#26bfa6" r="45"/><circle cx="75" cy="465" fill="#ffef4a" r="45"/><path d="m210 465c0 24.814 20.188 45 45 45l15-45-15-45c-24.812 0-45 20.186-45 45z" fill="#ff8759"/><path d="m255 420v90c24.814 0 45-20.186 45-45s-20.186-45-45-45z" fill="#ff4057"/></g></svg>