<svg id="Capa_1" enable-background="new 0 0 510 510" height="512" viewBox="0 0 510 510" width="512" xmlns="http://www.w3.org/2000/svg"><g><g><g><path d="m0 120v390h255l15-195-15-223.902-129.056-9.343z" fill="#cdd9fb"/><path d="m510 120-130.573-35.401-124.427 6.499v418.902h255c0-11.005 0-379.007 0-390z" fill="#b3c7ef"/><path d="m0 0v120h255l29.777-60-29.777-60c-7.193 0-247.807 0-255 0z" fill="#5a5f64"/><path d="m314 0h-59v120h255v-45z" fill="#4b5055"/><path d="m30 150v330h225l15-165-15-165z" fill="#e6effb"/><path d="m480 150h-225v330h225c0-18.326 0-311.674 0-330z" fill="#cdd9fb"/><path d="m510 75c0-20.194 0-63.236 0-75-10.822 0-184.178 0-195 0v75z" fill="#fc0"/><path d="m60 45h30v30h-30z" fill="#ff8759"/><path d="m120 45h30v30h-30z" fill="#ffef4a"/><path d="m180 45h30v30h-30z" fill="#57d9ad"/></g></g><path d="m90 255h45v-30h-75v180h195l15-15-15-15h-165z" fill="#8bcafc"/><path d="m218.402 225 17.809-20.035-22.422-19.93-48.858 54.965 48.858 54.966 22.422-19.932-17.808-20.034h36.597l15-15-15-15z" fill="#ff8759"/><path d="m291.597 405-17.808 20.034 22.422 19.932 48.858-54.966-48.858-54.966-22.422 19.932 17.808 20.034h-36.597v30z" fill="#6492e0"/><path d="m255 225v30h165v120h-45v30h75v-180z" fill="#ff4057"/></g></svg>