<svg id="Capa_1" enable-background="new 0 0 510 510" height="512" viewBox="0 0 510 510" width="512" xmlns="http://www.w3.org/2000/svg"><g><path d="m154.327 75.126c-38.127-2.21-71.154 24.559-78.025 60.915-43.112 6.61-76.302 43.951-76.302 88.959 0 49.625 40.373 90 90 90h15l150-105 15-105-15-105c-47.056 0-87.623 31.153-100.673 75.126z" fill="#8bcafc"/><path d="m405 315h15c49.625 0 90-40.373 90-90 0-45.023-33.205-82.351-76.303-88.96-6.869-36.351-39.892-63.125-78.024-60.915-13.072-44.046-53.694-75.125-100.673-75.125v210z" fill="#6492e0"/><path d="m105 210v270l75 15 75-15 15-135-15-135c-10.128 0-139.871 0-150 0z" fill="#e6effb"/><path d="m405 210c-10.128 0-139.871 0-150 0v270l75 15 75-15c0-15 0-255 0-270z" fill="#cdd9fb"/><path d="m105 480v30h150l15-15-15-15z" fill="#cdd9fb"/><path d="m405 480h-150v30h150c0-10.492 0-19.508 0-30z" fill="#b3c7ef"/><path d="m240 270v131l-36-27-18 24 69 51.75 10.25-89.875-10.25-89.875c-5.246 0-9.754 0-15 0z" fill="#ff8759"/><path d="m306 374-36 27v-131c-5.246 0-9.754 0-15 0v179.75l69-51.75z" fill="#ff4057"/></g></svg>