<svg id="Capa_1" enable-background="new 0 0 510 510" height="512" viewBox="0 0 510 510" width="512" xmlns="http://www.w3.org/2000/svg"><g><path d="m261.264 419.928-36.264-.928-30 15v46l30 15 38.257-7.042 6.743-37.958z" fill="#5a5f64"/><path d="m510 105h-111.898l-143.102 195v74l127.5 15 127.5-15c0-7.193 0-261.807 0-269z" fill="#4b5055"/><path d="m0 105v269l127.5 15 127.5-15 27.5-29-27.5-45-143.104-195z" fill="#5a5f64"/><path d="m255 423.168v62.797l30 9.035 30-15v-46l-30-15z" fill="#4b5055"/><path d="m165 480v30h90l15-15-15-15z" fill="#4b5055"/><path d="m255 510h90v-30h-90z" fill="#373c41"/><path d="m30 135v239l112.5 15 119.584-3.852 7.916-32.648-15-52.5-149.253-165z" fill="#e6effb"/><path d="m480 135h-75.748l-149.252 165v84.618l112.5 4.382 112.5-15c0-15.192 0-223.806 0-239z" fill="#cdd9fb"/><path d="m255 0c-82.708 0-150 67.287-150 150l37.5 15 37.5-15z" fill="#6492e0"/><path d="m330 150 37.5 15 37.5-15c0-82.707-67.287-150-150-150z" fill="#506dc7"/><path d="m180 150 37.5 15 37.5-15 15-75-15-75c-24.721 0-46.648 23.921-60.312 60.82-9.23 24.928-14.688 55.779-14.688 89.18z" fill="#8bcafc"/><path d="m255 0v150l37.5 15 37.5-15c0-33.401-5.458-64.252-14.689-89.18-13.663-36.899-35.59-60.82-60.311-60.82z" fill="#6492e0"/><path d="m180 150c-20.194 0-63.236 0-75 0 0 82.708 67.287 150 150 150z" fill="#8bcafc"/><path d="m405 150c-20.194 0-63.236 0-75 0l-75 150c82.707 0 150-67.287 150-150z" fill="#6492e0"/><path d="m180 150c0 33.401 5.458 64.252 14.688 89.18 13.664 36.899 35.591 60.82 60.312 60.82l15-75-15-75c-20.194 0-63.236 0-75 0z" fill="#6492e0"/><path d="m330 150c-20.194 0-63.236 0-75 0v150c24.721 0 46.648-23.921 60.311-60.82 9.231-24.928 14.689-55.779 14.689-89.18z" fill="#506dc7"/><path d="m255 374h-255v60h255l15-30z" fill="#4b5055"/><path d="m510 434c0-7.259 0-52.693 0-60h-255v60z" fill="#373c41"/></g></svg>