<svg id="Capa_1" enable-background="new 0 0 510 510" height="512" viewBox="0 0 510 510" width="512" xmlns="http://www.w3.org/2000/svg"><g><path d="m370.648 85.619c-2.768 8.304-5.146 15.439-7.914 23.743-15.441 7.721-33.157 16.579-48.598 24.299l4.197 17.839 24.714 1.247c14.053-7.026 30.166-15.083 44.219-22.109 4.458-13.372 9.567-28.701 14.024-42.073l-16.29-9.732z" fill="#b3c7ef"/><path d="m147.266 109.362c-2.768-8.304-5.146-15.439-7.914-23.743l-16.352-5.786-14.29 8.731c4.457 13.372 9.567 28.701 14.024 42.073 14.053 7.026 30.166 15.083 44.219 22.109l28.911-1.746v-17.339c-15.442-7.72-33.158-16.578-48.598-24.299z" fill="#cdd9fb"/><path d="m240 87.42v33.418l7.488 14.162 7.512-15 8-15-8-15c-2.594 0-5.136-14.574-7.61-15z" fill="#cdd9fb"/><path d="m270 87.42-7.39-12.42-7.61 15v30l7.512 15 7.488-14.162c0-11.688 0-21.731 0-33.418z" fill="#b3c7ef"/><path d="m240 389.162v64.861l7.234 9.839 7.766-13.862c0-7.259 0-52.693 0-60-2.521 0-5.025-10.86-7.512-11z" fill="#cdd9fb"/><path d="m270 389.162-7.488-10.164-7.512 11.002v60l7.766 13.833 7.234-9.81c0-17.577 0-54.507 0-64.861z" fill="#b3c7ef"/><path d="m389.162 240-14.162 15 14.162 15h75.838c0-10.492 0-19.508 0-30-20.361 0-63.495 0-75.838 0z" fill="#506dc7"/><path d="m480 180c-30.293 0-94.443 0-112.806 0l-7.194 14.528 22.278 15.472h127.722c0-7.259 0-52.693 0-60-10.492 0-19.508 0-30 0z" fill="#6492e0"/><path d="m367.194 330h112.806v30h30c0-7.259 0-52.693 0-60-15.442 0-112.177 0-127.722 0l-22.278 15.472z" fill="#6492e0"/><circle cx="390" cy="45" fill="#26bfa6" r="45"/><circle cx="120" cy="45" fill="#ffef4a" r="45"/><path d="m210 45c0 24.812 20.186 45 45 45l15-45-15-45c-24.813 0-45 20.187-45 45z" fill="#ff8759"/><path d="m300 45c0-24.812-20.186-45-45-45v90c24.812 0 45-20.186 45-45z" fill="#ff4057"/><path d="m120.838 240c-20.361 0-63.496 0-75.838 0v30h75.838l14.162-15z" fill="#6492e0"/><path d="m30 180c0-10.492 0-19.508 0-30-10.492 0-19.508 0-30 0v60h127.722l22.278-15.472-7.194-14.528c-30.293 0-94.443 0-112.806 0z" fill="#8bcafc"/><path d="m0 300v60h30c0-10.492 0-19.508 0-30h112.806l7.194-14.528-22.278-15.472c-15.443 0-112.177 0-127.722 0z" fill="#8bcafc"/><path d="m120 255c0 74.438 60.559 135 135 135l15-135-15-135c-74.438 0-135 60.559-135 135z" fill="#5a5f64"/><path d="m390 255c0-74.438-60.559-135-135-135v270c74.437 0 135-60.559 135-135z" fill="#4b5055"/><path d="m150 255c0 24.424 8.422 47.702 23.72 66.395l52.624-46.699 28.656-79.696 15-22.5-15-22.5c-57.896 0-105 47.102-105 105z" fill="#e6effb"/><path d="m283.656 274.696 52.624 46.699c15.285-18.677 23.72-41.951 23.72-66.395 0-57.895-47.101-105-105-105v45z" fill="#cdd9fb"/><path d="m226.344 274.696c-23.696 7.959-42.352 25.094-52.624 46.699 19.867 24.276 49.464 38.605 81.28 38.605l15-37.5-15-37.5z" fill="#ff8759"/><path d="m336.28 321.395c-10.42-21.917-29.247-38.847-52.624-46.699l-28.656 10.304v75c31.75 0 61.371-14.277 81.28-38.605z" fill="#ff4057"/><path d="m210 240c0 24.852 20.146 45 45 45l15-45-15-45c-24.852 0-45 20.146-45 45z" fill="#ffccbd"/><path d="m300 240c0-24.852-20.147-45-45-45v90c24.852 0 45-20.147 45-45z" fill="#ffbda9"/><path d="m225 480c0 16.568 13.431 30 30 30l8.166-30-8.166-30c-16.568 0-30 13.431-30 30z" fill="#57d9ad"/><path d="m285 480c0-16.568-13.431-30-30-30v60c16.568 0 30-13.431 30-30z" fill="#26bfa6"/></g></svg>