<svg id="Capa_1" enable-background="new 0 0 510 510" height="512" viewBox="0 0 510 510" width="512" xmlns="http://www.w3.org/2000/svg"><g><path d="m255 90.052c-10.949-14.578-26.912-24.851-45-28.538l-15 15.533 15 15.533c17.48 6.2 30 22.887 30 42.42v45l7.5 15 7.5-15 10.5-44.974z" fill="#cdd9fb"/><path d="m270 135c0-19.531 12.519-36.22 30-42.42l15-15.533-15-15.533c-18.08 3.686-34.046 13.953-45 28.538v89.948l7.5 15 7.5-15c0-14.981 0-30.019 0-45z" fill="#b3c7ef"/><path d="m240 330v45c0 19.533-12.52 36.221-30 42.42l-15 15.533 15 15.533c18.08-3.686 34.046-13.954 45-28.538l8-44.974-8-44.974-7.5-15z" fill="#cdd9fb"/><path d="m300 448.486 15-15.533-15-15.533c-17.481-6.2-30-22.888-30-42.42 0-14.981 0-30.019 0-45l-7.5-15-7.5 15v89.948c10.948 14.578 26.912 24.85 45 28.538z" fill="#b3c7ef"/><path d="m60 180v150h195l15-75-15-75c-10.822 0-184.178 0-195 0z" fill="#8bcafc"/><path d="m450 180c-10.822 0-184.178 0-195 0v150h195v-60l-15-15 15-15z" fill="#6594e2"/><path d="m120 240h30v30h-30z" fill="#ff8759"/><path d="m180 240h30v30h-30z" fill="#ffef4a"/><path d="m300 270h150c0-10.492 0-19.508 0-30-6.925 0-143.1 0-150 0z" fill="#506dc7"/><path d="m210 150c-11.664 0-198.336 0-210 0 0-10.128 0-139.871 0-150h210z" fill="#57d9ad"/><path d="m60 60h30v30h-30z" fill="#e6effb"/><path d="m120 60h30v30h-30z" fill="#4b5055"/><path d="m510 150c0-10.128 0-139.871 0-150-11.664 0-198.336 0-210 0v150z" fill="#fc0"/><path d="m360 60h30v30h-30z" fill="#e6effb"/><path d="m420 60h30v30h-30z" fill="#4b5055"/><path d="m210 510c-11.664 0-198.336 0-210 0 0-10.128 0-139.871 0-150h210z" fill="#ff8759"/><path d="m60 420h30v30h-30z" fill="#e6effb"/><path d="m120 420h30v30h-30z" fill="#4b5055"/><path d="m300 510h210c0-10.128 0-139.871 0-150-11.664 0-198.336 0-210 0z" fill="#26bfa6"/><path d="m360 420h30v30h-30z" fill="#e6effb"/><path d="m420 420h30v30h-30z" fill="#4b5055"/></g></svg>