<svg id="Capa_1" enable-background="new 0 0 510 510" height="512" viewBox="0 0 510 510" width="512" xmlns="http://www.w3.org/2000/svg"><g><path d="m0 120v390h255l15-195-15-195-127.5-15z" fill="#cdd9fb"/><path d="m510 120-127.5-15-127.5 15v390h255c0-11.005 0-379.007 0-390z" fill="#b3c7ef"/><path d="m0 0v120h255l15-60-15-60c-7.193 0-247.807 0-255 0z" fill="#5a5f64"/><path d="m314 0h-59v120h255v-45z" fill="#4b5055"/><path d="m30 150v330h225l15-165-15-165c-15.191 0-209.806 0-225 0z" fill="#e6effb"/><path d="m480 150c-15.191 0-209.806 0-225 0v330h225c0-18.326 0-311.674 0-330z" fill="#cdd9fb"/><path d="m510 75c0-20.194 0-63.236 0-75-10.822 0-184.178 0-195 0v75z" fill="#fc0"/><path d="m60 45h30v30h-30z" fill="#ff8759"/><path d="m120 45h30v30h-30z" fill="#ffef4a"/><path d="m180 45h30v30h-30z" fill="#57d9ad"/><path d="m210 300c-10.889 0-79.039 0-90 0 0-14.518 0-105.386 0-120h90zm-60-30h30c0-7.259 0-52.693 0-60-10.492 0-19.508 0-30 0z" fill="#8bcafc"/><path d="m240 180v120h15l9.5-60-9.5-60c-5.246 0-9.754 0-15 0z" fill="#8bcafc"/><path d="m270 180c-5.246 0-9.754 0-15 0v120h15c0-14.518 0-105.386 0-120z" fill="#6492e0"/><path d="m90 300c-10.492 0-19.508 0-30 0 0-14.518 0-105.386 0-120h30z" fill="#8bcafc"/><path d="m300 300h90c0-14.518 0-105.386 0-120-10.889 0-79.039 0-90 0zm30-90h30v60c-10.492 0-19.508 0-30 0 0-7.259 0-52.693 0-60z" fill="#6492e0"/><path d="m420 300h30c0-14.518 0-105.386 0-120-10.492 0-19.508 0-30 0z" fill="#6492e0"/><path d="m210 450c-10.889 0-79.039 0-90 0 0-14.518 0-105.386 0-120h90zm-60-30h30c0-7.259 0-52.693 0-60-10.492 0-19.508 0-30 0z" fill="#8bcafc"/><path d="m240 330v120h15l10.5-60-10.5-60c-5.246 0-9.754 0-15 0z" fill="#8bcafc"/><path d="m270 330c-5.246 0-9.754 0-15 0v120h15c0-14.518 0-105.386 0-120z" fill="#6492e0"/><path d="m300 450h30c0-14.518 0-105.386 0-120-10.492 0-19.508 0-30 0z" fill="#6492e0"/><path d="m90 450c-10.492 0-19.508 0-30 0 0-14.518 0-105.386 0-120h30z" fill="#8bcafc"/><path d="m360 450h90c0-14.518 0-105.386 0-120-10.889 0-79.039 0-90 0zm30-90h30v60c-10.492 0-19.508 0-30 0 0-7.259 0-52.693 0-60z" fill="#6492e0"/></g></svg>