<svg id="Capa_1" enable-background="new 0 0 510 510" height="512" viewBox="0 0 510 510" width="512" xmlns="http://www.w3.org/2000/svg"><g><g><g><g><path d="m0 120v390h255l15-195-15-195-127.5-15z" fill="#cdd9fb"/><path d="m510 120-127.5-15-127.5 15v390h255c0-11.005 0-379.007 0-390z" fill="#b3c7ef"/><path d="m0 0v120h255l15-60-15-60c-7.193 0-247.807 0-255 0z" fill="#5a5f64"/><path d="m314 0h-59v120h255v-45z" fill="#4b5055"/><path d="m30 150v330h225l15-165-15-165c-15.192 0-209.806 0-225 0z" fill="#e6effb"/><path d="m480 150c-15.191 0-209.806 0-225 0v330h225c0-18.326 0-311.674 0-330z" fill="#cdd9fb"/><path d="m510 75c0-20.194 0-63.236 0-75-10.822 0-184.178 0-195 0v75z" fill="#fc0"/><path d="m60 45h30v30h-30z" fill="#ff8759"/><path d="m120 45h30v30h-30z" fill="#ffef4a"/><path d="m180 45h30v30h-30z" fill="#57d9ad"/></g></g></g><g><path d="m195 240v30l15 15 15-15c0-10.492 0-19.508 0-30 0-16.542 13.458-30 30-30l15-15-15-15c-33.083 0-60 26.915-60 60z" fill="#cdd9fb"/><path d="m285 240v30l15 15 15-15c0-10.492 0-19.508 0-30 0-33.083-26.915-60-60-60v30c16.541 0 30 13.458 30 30z" fill="#b3c7ef"/><path d="m255 420-45 15-45-15v-60l14-15-14-15v-60h90l15 75z" fill="#ff8759"/><path d="m345 420-45 15-45-15c0-10.128 0-139.871 0-150h90v60l-13 15 13 15z" fill="#ff4057"/><g><g><path d="m375 420h75v30h-75z" fill="#6492e0"/></g></g><g><g><path d="m375 360h75v30h-75z" fill="#6492e0"/></g></g><g><g><path d="m375 300h75v30h-75z" fill="#6492e0"/></g></g><g><g><path d="m60 420h75v30h-75z" fill="#8bcafc"/></g></g><g><g><path d="m60 360h75v30h-75z" fill="#8bcafc"/></g></g><g><g><path d="m60 300h75v30h-75z" fill="#8bcafc"/></g></g><path d="m165 450h90l15-15-15-15c-10.889 0-79.04 0-90 0z" fill="#ff4057"/><path d="m165 330v30h75v30h15l9-30-9-30c-10.889 0-79.04 0-90 0z" fill="#ff4057"/><g fill="#c40048"><path d="m270 360h75c0-10.492 0-19.508 0-30-10.889 0-79.039 0-90 0v60h15c0-10.492 0-19.508 0-30z"/><path d="m345 450c0-10.492 0-19.508 0-30-10.889 0-79.039 0-90 0v30z"/></g></g></g></svg>