<svg id="Capa_1" enable-background="new 0 0 510 510" height="512" viewBox="0 0 510 510" width="512" xmlns="http://www.w3.org/2000/svg"><g><path d="m315 105 60 15 60-15v-75h-120l-15 37.5z" fill="#5a5f64"/><path d="m225 270-90 15-90-15c0-16.333 0-118.559 0-135h180l15 67.5z" fill="#e6effb"/><path d="m90 195h30v30h-30z" fill="#5a5f64"/><path d="m150 195h30v30h-30z" fill="#5a5f64"/><path d="m225 0v270l15 15 15-15 15-135-15-135z" fill="#cdd9fb"/><path d="m465 105h-150v-105h-60v270l105 15 105-15z" fill="#b3c7ef"/><path d="m390 195h30v30h-30z" fill="#cdd9fb"/><path d="m330 195h30v30h-30z" fill="#cdd9fb"/><path d="m45 270v120l105 15 105 2.64 39.873-77.64-39.873-60z" fill="#5a5f64"/><path d="m465 270h-210v137.64l105 18.904 105-36.544v-45l-15-15 15-15z" fill="#4b5055"/><path d="m45 390v120h210l32.216-60-32.216-60z" fill="#4b5055"/><path d="m465 390h-210v120h210v-45l-15-15 15-15z" fill="#373c41"/><path d="m90 435h30v30h-30z" fill="#5a5f64"/><path d="m150 435h30v30h-30z" fill="#5a5f64"/><path d="m225 435v30h30l15-15-15-15z" fill="#5a5f64"/><g fill="#4b5055"><path d="m255 435h210v30h-210z"/><path d="m90 315h30v30h-30z"/><path d="m150 315h30v30h-30z"/><path d="m225 315v30h30l15-15-15-15z"/></g><path d="m255 315h210v30h-210z" fill="#373c41"/></g></svg>