<svg id="Capa_1" enable-background="new 0 0 510 510" height="512" viewBox="0 0 510 510" width="512" xmlns="http://www.w3.org/2000/svg"><g><path d="m255 0c-82.708 0-150 67.287-150 150l37.5 15 37.5-15z" fill="#6492e0"/><path d="m330 150 37.5 15 37.5-15c0-82.707-67.287-150-150-150z" fill="#506dc7"/><path d="m180 150 37.5 15 37.5-15 15-75-15-75c-24.721 0-46.648 23.921-60.311 60.82-9.231 24.928-14.689 55.779-14.689 89.18z" fill="#8bcafc"/><path d="m255 0v150l37.5 15 37.5-15c0-33.401-5.459-64.252-14.689-89.18-13.663-36.899-35.59-60.82-60.311-60.82z" fill="#6492e0"/><path d="m195 240v-45l-15-45c-20.194 0-63.236 0-75 0 0 33.74 11.201 64.913 30.076 90l29.924 15z" fill="#8bcafc"/><path d="m374.924 240c18.875-25.087 30.076-56.259 30.076-90-20.194 0-63.236 0-75 0l-15 45v45l30 15z" fill="#6492e0"/><path d="m195.002 240 29.998 15 30-15 15-45-15-45c-20.194 0-63.236 0-75 0 0 29.848 4.422 61.836 15.002 90z" fill="#6492e0"/><path d="m314.998 240c10.582-28.169 15.002-60.158 15.002-90-20.194 0-63.236 0-75 0v90l30 15z" fill="#506dc7"/><g><g><path d="m255 510c-15.191 0-209.806 0-225 0 0-14.518 0-105.386 0-120l112.5-15 112.5-5.361 46.576 80.361z" fill="#0079a1"/><path d="m255 369.639-112.5 5.361-112.5-15c0-14.518 0-105.386 0-120h225l15 60z" fill="#0079a1"/><g><g><path d="m255 390h-225c0-10.492 0-19.508 0-30h225l15 15z" fill="#014c60"/></g></g><path d="m480 510c-15.191 0-209.806 0-225 0v-140.361l111.345-23.364 113.655 43.725v45l-15 15 15 15z" fill="#005f80"/><g><g><path d="m90 435h30v30h-30z" fill="#e6effb"/></g></g><g><path d="m150 435h30v30h-30z" fill="#ff8759"/></g><g><path d="m480 465h-225v-30h225z" fill="#014c60"/></g><path d="m480 360-115.408 35.305-109.592-20.305v-135h225v45l-15 15 15 15z" fill="#005f80"/><g><g><path d="m120 315h-30v-30h30z" fill="#ffef4a"/></g></g><g><g><path d="m180 315h-30v-30h30z" fill="#e6effb"/></g></g><g><g><path d="m480 315h-225v-30h225z" fill="#014c60"/></g></g><g><g><path d="m480 390h-225v-30h225z" fill="#01333f"/></g></g></g></g></g></svg>