<svg id="Capa_1" enable-background="new 0 0 510 510" height="512" viewBox="0 0 510 510" width="512" xmlns="http://www.w3.org/2000/svg"><g><g fill="#cdd9fb"><path d="m227.75 390-7.109-15h-40.641l-9.75 15 9.75 15h40.641z"/><path d="m289.359 375-6.859 15 6.859 15h40.641l9.25-15-9.25-15z"/><path d="m255 289.75-15 9.502v56.389l15 7.859 15-7.859v-56.389z"/><path d="m465 315-14.25 15-15.75-15v-240h-50.131l-23.307-15.5.461-14.5h102.977z"/><path d="m75 315-15.333 12.446-14.667-12.446v-270h102.977l-.539 14.25-22.308 15.75h-50.13z"/></g><g><path d="m255 0c-82.708 0-150 67.287-150 150l37.5 15 37.5-15z" fill="#6492e0"/><path d="m330 150 37.5 15 37.5-15c0-82.707-67.287-150-150-150z" fill="#506dc7"/><path d="m180 150 37.5 15 37.5-15 15-75-15-75c-24.721 0-46.648 23.921-60.312 60.82-9.23 24.928-14.688 55.779-14.688 89.18z" fill="#8bcafc"/><path d="m255 0v150l37.5 15 37.5-15c0-33.401-5.458-64.252-14.689-89.18-13.663-36.899-35.59-60.82-60.311-60.82z" fill="#6492e0"/><path d="m180 150c-20.194 0-63.236 0-75 0 0 82.708 67.287 150 150 150z" fill="#8bcafc"/><path d="m405 150c-20.194 0-63.236 0-75 0l-75 150c82.707 0 150-67.287 150-150z" fill="#6492e0"/><path d="m180 150c0 33.4 5.458 64.252 14.688 89.18 13.664 36.899 35.591 60.82 60.312 60.82l15-75-15-75c-20.194 0-63.236 0-75 0z" fill="#6492e0"/><path d="m330 150c-20.194 0-63.236 0-75 0v150c24.721 0 46.648-23.921 60.311-60.82 9.231-24.928 14.689-55.78 14.689-89.18z" fill="#506dc7"/><g><path d="m82.5 495-7.5-15v-30l7.5-15 21.52 26.882z" fill="#4b5055"/><path d="m105 480-7.5 15-7.5-8.869v-43.719l7.5-7.412 7.5 15z" fill="#373c41"/><path d="m93.291 426.511-48.291 8.489-45-15c0-28.278 0-88.527 0-105h90l15 52.5z" fill="#8bcafc"/><path d="m180 420-45 15-45-8.916c0-28.278 0-94.611 0-111.084h90z" fill="#6492e0"/><path d="m0 420h90l15 15-15 15h-90z" fill="#5a5f64"/><path d="m90 510c-14.981 0-30.019 0-45 0v-30h45l15 15z" fill="#5a5f64"/><g fill="#4b5055"><path d="m135 510c-14.981 0-30.019 0-45 0v-30h45z"/><path d="m90 420h90v30h-90z"/></g></g><g><path d="m412.5 495-7.5-15v-30l7.5-15 20.913 30z" fill="#4b5055"/><path d="m435 480-7.5 15-7.5-15v-30l7.5-15 7.5 15z" fill="#373c41"/><path d="m420 427.502-45 7.498-45-15c0-28.278 0-88.527 0-105h90l15 52.5z" fill="#8bcafc"/><path d="m510 420-45 15-45-5.892c0-28.278 0-97.635 0-114.108h90z" fill="#6492e0"/><path d="m330 420h90l15 15-15 15h-90z" fill="#5a5f64"/><path d="m420 510c-14.981 0-30.019 0-45 0v-30h45l15 15z" fill="#5a5f64"/><g fill="#4b5055"><path d="m465 510c-14.981 0-30.019 0-45 0v-30h45z"/><path d="m420 420h90v30h-90z"/></g></g></g><path d="m255 427.5c-20.678 0-37.5-16.822-37.5-37.5s16.822-37.5 37.5-37.5 37.5 16.822 37.5 37.5-16.822 37.5-37.5 37.5z" fill="#57d9ad"/></g></svg>