<svg id="Capa_1" enable-background="new 0 0 510 510" height="512" viewBox="0 0 510 510" width="512" xmlns="http://www.w3.org/2000/svg"><g><path d="m60 0v510h195l15-255-15-255c-10.822 0-184.178 0-195 0z" fill="#57d9ad"/><path d="m450 0s-184.178 0-195 0v510h195z" fill="#26bfa6"/><path d="m165 435-15 22.5 15 22.5h60l15-22.5-15-22.5z" fill="#fc0"/><path d="m285 480h60l15-22.5-15-22.5h-60l-15 22.5z" fill="#ff9e22"/><g><path d="m120 187.5v165l67.5 15 67.5-15 15-15c-6.759-6.758-142.627-142.627-150-150z" fill="#ff8759"/><path d="m390 187.5-135 135v30l67.5 15 67.5-15c0-4.655 0-160.348 0-165z" fill="#ff4057"/><path d="m120 352.5v30h135l15-15-15-15c-16.333 0-118.559 0-135 0z" fill="#ff4057"/><path d="m390 352.5c-16.333 0-118.559 0-135 0v30h135c0-10.492 0-19.508 0-30z" fill="#c40048"/><path d="m225 187.5c0-16.568 13.431-30 30-30l15-52.5-15-52.5c-74.438 0-135 60.559-135 135 0 74.438 60.559 135 135 135l15-52.5-15-52.5c-16.568 0-30-13.431-30-30z" fill="#4b5055"/><path d="m390 187.5c0-74.438-60.559-135-135-135v105c16.568 0 30 13.431 30 30 0 16.568-13.431 30-30 30v105c74.438 0 135-60.559 135-135z" fill="#373c41"/></g><path d="m225 435v45h30l15-22.5-15-22.5z" fill="#ffef4a"/><path d="m285 435h-30v45h30c0-14.981 0-45 0-45z" fill="#fc0"/><path d="m90 435v45h75c0-14.981 0-45 0-45z" fill="#ffef4a"/><path d="m345 480h75c0-14.981 0-45 0-45h-75z" fill="#fc0"/></g></svg>