<svg id="Capa_1" enable-background="new 0 0 510 510" height="512" viewBox="0 0 510 510" width="512" xmlns="http://www.w3.org/2000/svg"><g><path d="m345 195 30 15 30-15c0-10.128 0-139.871 0-150-7.259 0-52.693 0-60 0l-15 75z" fill="#b3c7ef"/><path d="m173.787 0-38.787 60-60 38.787v66.213c13.574 4.524 121.44 40.48 135 45l45-15 15-97.5-15-97.5c-9.822 0-71.326 0-81.213 0z" fill="#e6effb"/><path d="m345 0c-10.889 0-79.04 0-90 0v195l45 15 45-15c0-10.822 0-184.178 0-195z" fill="#cdd9fb"/><path d="m30 315v165l112.5 15 112.5-15 15-82.5-15-82.5-112.5-15z" fill="#fc0"/><path d="m480 315-112.5-15-112.5 15v165l112.5 15 112.5-15c0-4.654 0-160.348 0-165z" fill="#ff9e22"/><path d="m165 195v-30c-16.333 0-118.559 0-135 0v150h225l15-30-15-30z" fill="#ffef4a"/><path d="m480 255h-30l-90-15-105 15v60h225c0-7.259 0-52.693 0-60z" fill="#fc0"/><path d="m165 195v60h90l15-30-15-30c-10.889 0-79.04 0-90 0z" fill="#fc0"/><path d="m450 195c-10.822 0-184.178 0-195 0v60h195c0-7.259 0-52.693 0-60z" fill="#ff9e22"/><path d="m75 98.787h98.787c0-12.171 0-86.755 0-98.787-11.945 11.944-86.764 86.764-98.787 98.787z" fill="#cdd9fb"/><path d="m390 435h30c0-10.492 0-19.508 0-30h-30z" fill="#373c41"/><path d="m330 435h30v-30h-30z" fill="#373c41"/><path d="m30 480v30h225l15-15-15-15c-15.192 0-209.806 0-225 0z" fill="#4b5055"/><path d="m480 480c-15.192 0-209.806 0-225 0v30h225c0-10.492 0-19.508 0-30z" fill="#373c41"/></g></svg>