<svg id="Capa_1" enable-background="new 0 0 510 510" height="512" viewBox="0 0 510 510" width="512" xmlns="http://www.w3.org/2000/svg"><g><path d="m0 0v510h255l15-255-15-255c-7.193 0-247.807 0-255 0z" fill="#e6effb"/><path d="m510 0c-7.193 0-247.807 0-255 0v510h255c0-14.385 0-495.615 0-510z" fill="#cdd9fb"/><path d="m158.75 292.5c-8.317 4.537-60.378 32.934-68.75 37.5 9.158 4.995 155.842 85.005 165 90l15-37.5-15-37.5-48.125-45z" fill="#8bcafc"/><path d="m351.25 292.5-48.125 7.5-48.125 45v75c9.158-4.995 155.842-85.005 165-90-8.317-4.537-60.378-32.934-68.75-37.5z" fill="#6492e0"/><path d="m158.75 217.5c-8.317 4.537-60.378 32.934-68.75 37.5 9.158 4.995 155.842 85.005 165 90l15-37.5-15-37.5-48.125-45z" fill="#ff8759"/><path d="m351.25 217.5-48.125 7.5-48.125 45v75c9.158-4.995 155.842-85.005 165-90-8.317-4.537-60.378-32.934-68.75-37.5z" fill="#ff4057"/><path d="m90 180c9.158 4.995 155.842 85.005 165 90l15-90-15-90c-9.158 4.995-155.842 85.005-165 90z" fill="#ffef4a"/><path d="m255 90v180c9.158-4.995 155.842-85.005 165-90-9.158-4.995-155.842-85.005-165-90z" fill="#fc0"/></g></svg>