<svg id="Capa_1" enable-background="new 0 0 510 510" height="512" viewBox="0 0 510 510" width="512" xmlns="http://www.w3.org/2000/svg"><g><path d="m360 465-12.42-15h-185.16l-10.045 15 10.045 15h185.16z" fill="#b3c7ef"/><path d="m432.42 450-12.42 15 12.42 15h77.58v-30z" fill="#cdd9fb"/><path d="m375 390v32.58l7.289 7.253 7.711-9.833 5-14.833-5-15.167-7.5-8.333z" fill="#cdd9fb"/><path d="m390 390v30l7.711 9.833 7.289-7.253v-32.58l-7.5-9.167z" fill="#b3c7ef"/><path d="m86.125 465-8.545-15h-77.58v30h77.58z" fill="#cdd9fb"/><path d="m105 390v32.58l7.289 7.253 7.711-9.833 5-14.833-5-15.167-7.5-8.333z" fill="#cdd9fb"/><path d="m120 390v30l7.711 9.833 7.289-7.253v-32.58l-7.5-9.167z" fill="#b3c7ef"/><path d="m75 465c0 24.814 20.188 45 45 45l10.5-45-10.5-45c-24.812 0-45 20.186-45 45z" fill="#57d9ad"/><path d="m165 465c0-24.814-20.188-45-45-45v90c24.812 0 45-20.186 45-45z" fill="#26bfa6"/><path d="m345 465c0 24.814 20.188 45 45 45l10.5-45-10.5-45c-24.812 0-45 20.186-45 45z" fill="#ffef4a"/><path d="m435 465c0-24.814-20.186-45-45-45v90c24.814 0 45-20.186 45-45z" fill="#fc0"/><g><path d="m0 0v390h120l15-180-15-210z" fill="#0079a1"/><path d="m120 0h120v390h-120z" fill="#005f80"/><path d="m30 30v330h90l15-150-15-150-15-30z" fill="#e6effb"/><path d="m210 30h-75l-15 30v300h90z" fill="#cdd9fb"/><path d="m60 330h60l15-60-15-60h-60z" fill="#6492e0"/><path d="m120 210h60v120h-60z" fill="#506dc7"/><path d="m60 180h60l11.25-15-11.25-15h-60z" fill="#8bcafc"/><path d="m60 90v30h60l10-15-10-15z" fill="#8bcafc"/><path d="m105 30v30h15l10-13.25-10-16.75z" fill="#005f80"/><path d="m120 30h15v30h-15z" fill="#014c60"/><g fill="#6492e0"><path d="m120 150h60v30h-60z"/><path d="m120 90h60v30h-60z"/></g></g><g><path d="m270 0v390h120l15-180-15-210z" fill="#0079a1"/><path d="m390 0h120v390h-120z" fill="#005f80"/><path d="m300 30v330h90l15-150-15-150-15-30z" fill="#e6effb"/><path d="m480 30h-75l-15 30v300h90z" fill="#cdd9fb"/><path d="m330 330h60l15-60-15-60h-60z" fill="#6492e0"/><path d="m390 210h60v120h-60z" fill="#506dc7"/><path d="m330 180h60l11.25-15-11.25-15h-60z" fill="#8bcafc"/><path d="m330 90v30h60l10-15-10-15z" fill="#8bcafc"/><path d="m375 30v30h15l10-13.25-10-16.75z" fill="#005f80"/><path d="m390 30h15v30h-15z" fill="#014c60"/><g fill="#6492e0"><path d="m390 150h60v30h-60z"/><path d="m390 90h60v30h-60z"/></g></g></g></svg>