<svg id="Capa_1" enable-background="new 0 0 510 510" height="512" viewBox="0 0 510 510" width="512" xmlns="http://www.w3.org/2000/svg"><g><path d="m240 270v152.58l7.39 12.42 7.61-15 10-75-10-75-7.5-15z" fill="#cfdbfd"/><path d="m255 270v150l7.61 15 7.39-12.42c0-8.467 0-144.113 0-152.58l-7.5-15z" fill="#b3c7ef"/><path d="m225 465c-4.344-5.246-8.076-9.754-12.42-15-11.395 0-21.186 0-32.58 0l-15 15 15 15h32.58c.144-.173 12.529-15.133 12.42-15z" fill="#cfdbfd"/><path d="m297.42 450c-4.344 5.246-8.076 9.754-12.42 15 4.344 5.246 8.076 9.754 12.42 15h32.58l15-15-15-15c-11.395 0-21.186 0-32.58 0z" fill="#b3c7ef"/><g><g><g><path d="m255 270c-15.192 0-209.806 0-225 0v-120l112.5-40.096 112.5 25.096 43.803 75z" fill="#44799f"/><path d="m255 135-121.673 25.181-103.327-40.181v-120h225l15 60z" fill="#44799f"/><g><g><path d="m255 150h-225v-30h225l15 15z" fill="#2b4c60"/></g></g><path d="m480 270c-15.192 0-209.806 0-225 0v-135l109.701-25.096 115.299 40.096v45l-15 15 15 15z" fill="#365f7f"/><g><g><path d="m120 225c-10.492 0-19.508 0-30 0v-30h30z" fill="#e4ecf9"/></g></g><g><g><path d="m180 225c-10.492 0-19.508 0-30 0v-30h30z" fill="#e3864f"/></g></g><g><path d="m480 225c-12.487 0-212.513 0-225 0v-30h225z" fill="#2b4c60"/></g><path d="m480 120-115.299 30-109.701-15v-135h225v45l-15 15 15 15z" fill="#365f7f"/><g><g><path d="m120 75h-30v-30h30z" fill="#ffef4a"/></g></g><g><g><path d="m180 75h-30v-30h30z" fill="#e4ecf9"/></g></g><g><g><g><path d="m480 75h-225v-30h225z" fill="#2b4c60"/></g></g></g><g><path d="m255 120h225v30h-225z" fill="#1d333f"/></g></g></g></g><g><path d="m330 330v150l37.5 15 37.5-15 15-75-15-75c-20.194 0-63.236 0-75 0z" fill="#ffef4a"/><path d="m480 383.787c-6.504-6.504-47.24-47.24-53.787-53.787-7.419 0-13.794 0-21.213 0v150l37.5 15 37.5-15c0-26.146 0-80.927 0-96.213z" fill="#fc0"/><path d="m390 420v30h15l9-15-9-15c-5.246 0-9.754 0-15 0z" fill="#fc0"/><path d="m405 420h15v30h-15z" fill="#ff9e22"/><path d="m330 480v30h75l15-15-15-15c-20.194 0-63.236 0-75 0z" fill="#fc0"/><path d="m480 480c-20.194 0-63.236 0-75 0v30h75c0-10.492 0-19.508 0-30z" fill="#ff9e22"/></g><g><path d="m30 330v150l37.5 15 37.5-15 15-75-15-75c-20.194 0-63.236 0-75 0z" fill="#ff8759"/><path d="m180 383.787c-6.504-6.504-47.24-47.24-53.787-53.787-7.419 0-13.794 0-21.213 0v150l37.5 15 37.5-15c0-26.146 0-80.927 0-96.213z" fill="#ff4057"/><path d="m90 420v30h15l9-15-9-15c-5.246 0-9.754 0-15 0z" fill="#ff4057"/><path d="m105 420h15v30h-15z" fill="#c40048"/><path d="m30 480v30h75l15-15-15-15c-20.194 0-63.236 0-75 0z" fill="#ff4057"/><path d="m180 480c-20.194 0-63.236 0-75 0v30h75c0-10.492 0-19.508 0-30z" fill="#c40048"/></g><path d="m210 465c0 24.814 20.187 45 45 45l15-45-15-45c-24.813 0-45 20.186-45 45z" fill="#57d9ad"/><path d="m255 420v90c24.814 0 45-20.186 45-45s-20.186-45-45-45z" fill="#26bfa6"/></g></svg>