<svg id="Capa_1" enable-background="new 0 0 510 510" height="512" viewBox="0 0 510 510" width="512" xmlns="http://www.w3.org/2000/svg"><g><g><g><path d="m0 90v284l127.5 15 127.5-15 19.213-105.842-19.213-178.158c-13.277 0-245.578 0-255 0z" fill="#5a5f64"/><path d="m259.101 428.217-34.101-9.217-30 15v46l30 15 35.295-9.292 9.705-35.708z" fill="#5a5f64"/><g fill="#4b5055"><path d="m510 270-135-20-120 20v104l127.5 15 127.5-15c0-7.193 0-96.807 0-104z"/><path d="m255 427.109v57.43l30 10.461 30-15c0-7.259 0-38.693 0-46l-30-15z"/><path d="m165 480v30h90l15-15-15-15c-18.016 0-71.912 0-90 0z"/></g><path d="m255 510h90c0-10.492 0-19.508 0-30-9.335 0-81.023 0-90 0z" fill="#373c41"/><path d="m30 120v254l112.5 15h123.704l3.796-119-15-150c-21.887 0-203.142 0-225 0z" fill="#e6effb"/><path d="m480 270-105-11.5-120 11.5v115.21l112.5 3.79 112.5-15c0-15.191 0-88.806 0-104z" fill="#cdd9fb"/><path d="m255 374c-7.193 0-247.807 0-255 0v60h255l15-30z" fill="#4b5055"/><path d="m510 434c0-7.259 0-52.693 0-60-7.193 0-247.807 0-255 0v60z" fill="#373c41"/></g></g><g><path d="m510 270h-255v-270h75v30l150 60h30z" fill="#fc0"/><g fill="#ff8759"><path d="m420 180h30v30h-30z"/><path d="m360 180h30v30h-30z"/><path d="m330 30h150v60h-150z"/></g><g><g><path d="m120 240h90v30h-90z" fill="#8bcafc"/></g></g><g><g><path d="m120 180h90v30h-90z" fill="#8bcafc"/></g></g><g><path d="m60 180h30v30h-30z" fill="#ff8759"/></g><g><g><path d="m60 240h30v30h-30z" fill="#fc0"/></g></g></g></g></svg>