<svg id="Capa_1" enable-background="new 0 0 510 510" height="512" viewBox="0 0 510 510" width="512" xmlns="http://www.w3.org/2000/svg"><g><g><path d="m0 120v390h255l15-195-15-195-127.5-15z" fill="#cdd9fb"/><path d="m510 120-127.5-15-127.5 15v390h255c0-11.005 0-379.008 0-390z" fill="#b3c7ef"/><path d="m0 0v120h255l15-60-15-60c-7.193 0-247.807 0-255 0z" fill="#5a5f64"/><path d="m314 0h-59v120h255v-45z" fill="#4b5055"/><path d="m30 150v330h225l15-165-15-165c-15.191 0-209.806 0-225 0z" fill="#e6effb"/><path d="m480 150c-15.191 0-209.806 0-225 0v330h225c0-18.326 0-311.674 0-330z" fill="#cdd9fb"/><path d="m510 75c0-20.194 0-63.236 0-75-10.822 0-184.178 0-195 0v75z" fill="#fc0"/><path d="m90 75c-10.492 0-19.508 0-30 0v-30h30z" fill="#ff8759"/><path d="m150 75c-10.492 0-19.508 0-30 0v-30h30z" fill="#ffef4a"/><path d="m210 75c-10.492 0-19.508 0-30 0v-30h30z" fill="#57d9ad"/></g><path d="m135 180v240l28 11.333 32-11.333 63.043-118.404 11.957-20.596-10.668-28.667-49.332-72.333z" fill="#5a5f64"/><path d="m300 180-45 75v45l60 120 29.667 15 30.333-15c0-4.654 0-160.348 0-165-9.138-9.137-65.865-65.865-75-75z" fill="#4b5055"/><path d="m195 300v120l30 11.333 32.473-3.521 8.436-67.812-10.909-60c-7.26 0-52.693 0-60 0z" fill="#8bcafc"/><path d="m315 300c-7.26 0-52.693 0-60 0v126.486l30 4.847 30-11.333c0-14.518 0-105.387 0-120z" fill="#6492e0"/><path d="m210 180v75h45c0-20.194 0-63.236 0-75-14.981 0-30.019 0-45 0z" fill="#8bcafc"/><path d="m300 180c-14.981 0-30.019 0-45 0v75h45c0-20.194 0-63.236 0-75z" fill="#6492e0"/><path d="m240 345v30h15l10.909-15-10.909-15z" fill="#6492e0"/><path d="m255 345h15v30h-15z" fill="#506dc7"/><path d="m135 420v30h120l16.667-15-16.667-15c-14.518 0-105.387 0-120 0z" fill="#4b5055"/><path d="m375 420c-14.518 0-105.387 0-120 0v30h120c0-10.492 0-19.508 0-30z" fill="#373c41"/></g></svg>