<svg id="Capa_1" enable-background="new 0 0 510 510" height="512" viewBox="0 0 510 510" width="512" xmlns="http://www.w3.org/2000/svg"><g><path d="m390 255-15 15-15-15c0-7.259 0-52.693 0-60h45c0-14.518 0-105.387 0-120-7.259 0-52.693 0-60 0l-15-15 15-15h90v180c-14.981 0-30.019 0-45 0z" fill="#b3c7ef"/><path d="m150 255-15 15-15-15c0-10.492 0-19.508 0-30-14.981 0-30.019 0-45 0 0-10 0-170 0-180h90l15 15-15 15c-7.259 0-52.693 0-60 0v120h45z" fill="#cdd9fb"/><path d="m75 255v60l15 15 15-15c0-10.492 0-19.508 0-30h150l15-15-15-15c-10 0-170 0-180 0z" fill="#e6effb"/><path d="m255 255v30h150v30l15 15 15-15c0-7.259 0-52.693 0-60-10 0-170 0-180 0z" fill="#cdd9fb"/><g><path d="m258.377 132.883-10.877-12.883-7.5 15v30l7.5 15 11.611-11.665 4.389-18.335z" fill="#4b5055"/><path d="m255 165 7.5 15 7.5-15c0-10.492 0-19.508 0-30l-7.5-15-7.5 15z" fill="#373c41"/><path d="m255 0c-10.889 0-79.04 0-90 0v105l45 15 45-6.117 15-61.383z" fill="#8bcafc"/><path d="m255 0v114.792l45 5.208 45-15c0-28.278 0-88.527 0-105-10.889 0-79.04 0-90 0z" fill="#6492e0"/><path d="m255 105c-10.889 0-79.04 0-90 0v30h90l15-15z" fill="#5a5f64"/><path d="m255 135h90c0-10.492 0-19.508 0-30-10.889 0-79.04 0-90 0z" fill="#4b5055"/><path d="m210 165v30h45l15-15-15-15c-9.261 0-29.553 0-45 0z" fill="#5a5f64"/><path d="m255 195h45c0-10.492 0-19.508 0-30-25.465 0-19.66 0-45 0z" fill="#4b5055"/></g><g><path d="m92.748 445.518-10.248-10.518-7.5 15v30l7.5 15 10.128-11.342 5.872-18.658z" fill="#4b5055"/><path d="m90 480 7.5 15 7.5-15c0-10.492 0-19.508 0-30l-7.5-15-7.5 15z" fill="#373c41"/><path d="m90 315c-10.889 0-79.04 0-90 0v105l45 15 45-8.31 15-59.19z" fill="#8bcafc"/><path d="m90 315v111.69l45 8.31 45-15c0-28.278 0-88.527 0-105-10.889 0-79.04 0-90 0z" fill="#6492e0"/><path d="m90 420c-10.889 0-79.04 0-90 0v30h90l15-15z" fill="#5a5f64"/><path d="m90 450h90c0-10.492 0-19.508 0-30-10.889 0-79.04 0-90 0z" fill="#4b5055"/><path d="m45 480v30h45l15-15-15-15c-8.649 0-29.434 0-45 0z" fill="#5a5f64"/><path d="m90 510h45c0-10.492 0-19.508 0-30-15.558 0-36.327 0-45 0z" fill="#4b5055"/></g><g><path d="m422.872 446.366-10.372-11.366-7.5 15v30l7.5 15 10.724-10.443 5.276-19.557z" fill="#4b5055"/><path d="m420 480 7.5 15 7.5-15c0-10.492 0-19.508 0-30l-7.5-15-7.5 15z" fill="#373c41"/><path d="m420 315c-10.889 0-79.04 0-90 0v105l45 15 45-7.905 15-59.595z" fill="#8bcafc"/><path d="m420 315v111.11l45 8.89 45-15c0-28.278 0-88.527 0-105-10.889 0-79.04 0-90 0z" fill="#6492e0"/><path d="m420 420c-10.889 0-79.04 0-90 0v30h90l15-15z" fill="#5a5f64"/><path d="m420 450h90c0-10.492 0-19.508 0-30-10.889 0-79.04 0-90 0z" fill="#4b5055"/><path d="m375 480v30h45l15-15-15-15c-15.68 0-35.522 0-45 0z" fill="#5a5f64"/><path d="m420 510h45c0-10.492 0-19.508 0-30-15.558 0-36.327 0-45 0z" fill="#4b5055"/></g></g></svg>