<svg id="Capa_1" enable-background="new 0 0 510 510" height="512" viewBox="0 0 510 510" width="512" xmlns="http://www.w3.org/2000/svg"><g><path d="m0 0v510h255l21-225-21-285c-7.193 0-247.807 0-255 0z" fill="#e6effb"/><path d="m510 0c-7.193 0-247.807 0-255 0v510h255c0-14.385 0-495.615 0-510z" fill="#cdd9fb"/><g fill="#373c41"><path d="m390 154.189v55.811c-10.492 0-19.508 0-30 0l-15 15 15 15h60c0-17.398 0-53.945 0-64.189 12.151-4.051 22.592-7.53 34.743-11.581-3.318-9.954-6.168-18.507-9.486-28.461-17.572 5.858-37.685 12.562-55.257 18.42z"/><path d="m420 360c-21.34 0-39.736 0-61.076 0l-13.924 15.344 4.855 14.656h40.145v40.811c17.572 5.857 37.685 12.561 55.257 18.419 3.318-9.954 6.168-18.507 9.486-28.461-12.151-4.051-22.592-7.531-34.743-11.581 0-15.647 0-33.541 0-49.188z"/><path d="m360 315h60c0-10.492 0-19.508 0-30-7.259 0-52.693 0-60 0l-15 15z"/></g><path d="m120 210c0-62.769 0-6.012 0-55.811-17.572-5.857-37.685-12.562-55.257-18.419-3.318 9.954-6.169 18.507-9.486 28.461 12.151 4.051 22.592 7.53 34.743 11.581v64.189h60l15-15-15-15c-10.492-.001-19.508-.001-30-.001z" fill="#5a5f64"/><path d="m90 360v49.189c-12.151 4.05-22.592 7.53-34.743 11.581 3.318 9.954 6.168 18.507 9.486 28.461 17.572-5.858 37.685-12.562 55.257-18.419 0-14.263 0-26.55 0-40.811h40.144l4.856-14.657-13.924-15.344c-21.34 0-39.736 0-61.076 0z" fill="#5a5f64"/><path d="m90 285v30h60l15-15-15-15c-7.259 0-52.693 0-60 0z" fill="#5a5f64"/><path d="m288.342 112.846 11.658 22.154h15c0-24.812 20.186-45 45-45 0-10.492 0-19.508 0-30-33.331 0-62.091 21.965-71.658 52.846z" fill="#373c41"/><path d="m165 60v30c19.969 0 37.21 13.141 42.974 31.635l17.026-1.635 9.861-12.231c-11.017-28.163-38.357-47.769-69.861-47.769z" fill="#5a5f64"/><path d="m180 180 37.5 15 37.5-15 15-37.5-15-37.5c-41.354 0-75 33.644-75 75z" fill="#ff8759"/><path d="m255 105v75l37.5 15 37.5-15c0-41.354-33.644-75-75-75z" fill="#ff4057"/><path d="m150 180v165c0 57.895 47.101 105 105 105l15-135-15-135c-28.278 0-88.527 0-105 0z" fill="#ff4057"/><path d="m360 345c0-4.654 0-160.348 0-165-28.278 0-88.527 0-105 0v270c57.896 0 105-47.102 105-105z" fill="#c40048"/></g></svg>