<svg id="Capa_1" enable-background="new 0 0 510 510" height="512" viewBox="0 0 510 510" width="512" xmlns="http://www.w3.org/2000/svg"><g><path d="m83.787 30c-6.505 6.504-47.24 47.239-53.787 53.787v186.213l52.5 15 52.5-15 15-120-15-120c-16.3 0-34.914 0-51.213 0z" fill="#e8f1fd"/><path d="m240 30c-28.278 0-88.527 0-105 0v240l52.5 15 52.5-15c0-6.772 0-233.232 0-240z" fill="#cfdbfd"/><path d="m323.787 30c-6.505 6.504-47.24 47.239-53.787 53.787v186.213l52.5 15 52.5-15 15-120-15-120c-16.3 0-34.914 0-51.213 0z" fill="#e8f1fd"/><path d="m480 30c-28.278 0-88.527 0-105 0v240l52.5 15 52.5-15c0-6.772 0-233.232 0-240z" fill="#cfdbfd"/><path d="m255 288.519-30-3.519-30 15c-3.629 14.516-26.347 105.389-30 120l39.555 33.166 50.445-26.929 15-66.237z" fill="#4b5055"/><path d="m255 430.265 46.777 16.486 43.223-26.751c-3.629-14.516-26.347-105.389-30-120l-30-15-30 2.107z" fill="#373c41"/><path d="m165 420c-5.242 20.969-9.758 39.031-15 60h105l15-30-15-30c-10.889 0-79.04 0-90 0z" fill="#5a5f64"/><path d="m255 270c-7.193 0-247.807 0-255 0v30h255l15-15z" fill="#5a5f64"/><path d="m510 270c-7.193 0-247.807 0-255 0v30h255c0-10.492 0-19.508 0-30z" fill="#4b5055"/><path d="m240 345h15v30h-15z" fill="#5a5f64"/><path d="m255 345h15v30h-15z" fill="#4b5055"/><path d="m255 480h105c-5.242-20.969-9.758-39.031-15-60-10.889 0-79.039 0-90 0z" fill="#4b5055"/><g fill="#8bcafc"><path d="m90 225h45l15-15-15-15h-45z"/><path d="m90 165h45l15-15-15-15h-45z"/><path d="m120 75v30h15l15-15-15-15c-5.246 0-9.754 0-15 0z"/><path d="m330 225h45l15-15-15-15h-45z"/><path d="m330 165h45l15-15-15-15h-45z"/><path d="m360 75v30h15l15-15-15-15c-5.246 0-9.754 0-15 0z"/></g><path d="m180 225c0-10.492 0-30 0-30h-45v30z" fill="#6594e2"/><path d="m135 135h45v30h-45z" fill="#6594e2"/><path d="m180 75c-14.981 0-30.019 0-45 0v30h45s0-19.508 0-30z" fill="#6594e2"/><path d="m420 225c0-10.492 0-30 0-30h-45v30z" fill="#6594e2"/><path d="m375 135h45v30h-45z" fill="#6594e2"/><path d="m420 75c-14.981 0-30.019 0-45 0v30h45s0-19.508 0-30z" fill="#6594e2"/></g></svg>