<svg id="Capa_1" enable-background="new 0 0 510 510" height="512" viewBox="0 0 510 510" width="512" xmlns="http://www.w3.org/2000/svg"><g><path d="m390 182.58 15 12.42 15-12.42c0-20.869 0-41.725 0-62.58l-15-15-15 15z" fill="#b3c7ef"/><path d="m390 267.42v62.58l15 15 15-15c0-20.869 0-41.726 0-62.58l-15-12.42z" fill="#b3c7ef"/><g fill="#cdd9fb"><path d="m45 255-15 12.42v62.58l15 15 15-15c0-20.869 0-41.726 0-62.58z"/><path d="m45 195 15-12.42c0-20.869 0-41.725 0-62.58l-15-15-15 15v62.58z"/><path d="m240 330-15 15-15-15c0-11.664 0-198.336 0-210l15-15 15 15z"/></g><circle cx="45" cy="225" fill="#8bcafc" r="45"/><circle cx="405" cy="225" fill="#8bcafc" r="45"/><g><path d="m360 330v150l37.5 15 37.5-15 15-75-15-75c-20.194 0-63.236 0-75 0z" fill="#57d9ad"/><path d="m510 383.787c-6.504-6.504-47.24-47.24-53.787-53.787-7.419 0-13.794 0-21.213 0v150l37.5 15 37.5-15c0-26.145 0-80.927 0-96.213z" fill="#26bfa6"/><path d="m420 420v30h15l9-15-9-15z" fill="#26bfa6"/><path d="m435 420h15v30h-15z" fill="#269ea6"/><path d="m360 480v30h75l15-15-15-15z" fill="#26bfa6"/><path d="m510 480h-75v30h75c0-10.492 0-19.508 0-30z" fill="#269ea6"/></g><path d="m30 0v120h225l15-60-15-60c-15.191 0-209.806 0-225 0z" fill="#0079a1"/><path d="m480 0c-15.191 0-209.806 0-225 0v120h225v-45l-15-15 15-15z" fill="#005f80"/><path d="m120 75c-10.492 0-19.508 0-30 0v-30h30z" fill="#ff8759"/><path d="m180 75c-10.492 0-19.508 0-30 0v-30h30z" fill="#8ad5d0"/><path d="m285 75h195c0-10.492 0-19.508 0-30h-195z" fill="#014c60"/><g><path d="m180 330v150l37.5 15 37.5-15 15-75-15-75c-20.194 0-63.236 0-75 0z" fill="#ffef4a"/><path d="m330 383.787c-6.504-6.504-47.24-47.24-53.787-53.787-7.419 0-13.794 0-21.213 0v150l37.5 15 37.5-15z" fill="#fc0"/><path d="m240 420v30h15l9-15-9-15z" fill="#fc0"/><path d="m255 420h15v30h-15z" fill="#ff9e22"/><path d="m180 480v30h75l15-15-15-15z" fill="#fc0"/><path d="m330 480h-75v30h75z" fill="#ff9e22"/></g><g><path d="m0 330v150l37.5 15 37.5-15 15-75-15-75c-20.194 0-63.236 0-75 0z" fill="#ff8759"/><path d="m150 383.787c-6.504-6.504-47.24-47.24-53.787-53.787-7.419 0-13.794 0-21.213 0v150l37.5 15 37.5-15z" fill="#ff4057"/><path d="m60 420v30h15l9-15-9-15z" fill="#ff4057"/><path d="m75 420h15v30h-15z" fill="#c40048"/><path d="m0 480v30h75l15-15-15-15z" fill="#ff4057"/><path d="m150 480h-75v30h75z" fill="#c40048"/></g></g></svg>