<svg id="Capa_1" enable-background="new 0 0 510 510" height="512" viewBox="0 0 510 510" width="512" xmlns="http://www.w3.org/2000/svg"><g><path d="m207.289 0c-1.739 6.953-12.623 50.49-14.373 57.49-11.612 3.646-22.883 8.316-33.671 13.953-6.146-3.688-44.634-26.781-50.82-30.493-3.751 3.751-63.724 63.724-67.474 67.475 3.688 6.146 26.779 44.634 30.492 50.82-5.637 10.788-10.308 22.059-13.953 33.671-6.954 1.738-50.491 12.623-57.49 14.373v32.711l67.973 15 67.972-15c.884-7.08 2.386-14.112 4.55-21.001h-.025-.024c15.449-49.192 61.295-83.999 114.504-83.999h.037.013l30-67.5-30-67.5c-15.186 0-32.526 0-47.711 0z" fill="#5a5f64"/><path d="m374.055 240 67.973 15 67.972-15c0-11.44 0-21.271 0-32.711-6.953-1.738-50.491-12.623-57.49-14.373-3.646-11.611-8.316-22.883-13.952-33.671 3.688-6.146 26.779-44.634 30.491-50.82-3.751-3.751-63.723-63.724-67.474-67.475-6.146 3.688-44.634 26.78-50.82 30.493-10.787-5.637-22.059-10.308-33.671-13.953-1.738-6.954-12.622-50.491-14.372-57.49-15.186 0-32.527 0-47.712 0v135c53.197 0 111.551 44.852 119.055 105z" fill="#4b5055"/><path d="m0 240v240l127.5 15 127.5-15 15-120-15-120c-7.193 0-247.807 0-255 0z" fill="#e6effb"/><path d="m510 240c-7.193 0-247.807 0-255 0v240l127.5 15 127.5-15c0-6.772 0-233.232 0-240z" fill="#cdd9fb"/><path d="m195 480c-1.764 0-58.232 0-60 0 0-21.87 0-50.962 0-75h60c5.24 13.102 9.76 24.398 15 37.5-5.24 13.102-9.76 24.398-15 37.5z" fill="#ffef4a"/><path d="m0 480v30h255c0-10.492 0-19.508 0-30-6.852 0-248.12 0-255 0z" fill="#cbd7f9"/><path d="m255 480v30l15-15c-5.246-5.246-9.754-9.754-15-15z" fill="#cbd7f9"/><path d="m510 480c-6.853 0-248.12 0-255 0v30h255c0-6.636 0-23.364 0-30z" fill="#b3c7ef"/><path d="m195 375v105h60c0-28.278 0-88.527 0-105-1.768 0-58.236 0-60 0z" fill="#fc0"/><path d="m255 375v105c4.772-16.701 10.228-35.799 15-52.5-4.772-16.701-10.228-35.799-15-52.5z" fill="#fc0"/><path d="m330 412.5c-4.08-18.36-12.621-56.794-15-67.5-1.764 0-58.232 0-60 0v135h60c4.08-18.36 12.621-56.794 15-67.5z" fill="#ff9e22"/><path d="m315 480h60c0-4.447 0-160.554 0-165-1.764 0-58.232 0-60 0z" fill="#ff4057"/></g></svg>