<svg id="Layer_1" height="512" viewBox="0 0 520 520" width="512" xmlns="http://www.w3.org/2000/svg" data-name="Layer 1"><rect fill="#edebf2" height="256" rx="32" width="432" x="44" y="260"/><path d="m212 324v104a16.047 16.047 0 0 1 -16 16h-96a16 16 0 0 1 -16-16v-104a16 16 0 0 1 16-16h96a16.047 16.047 0 0 1 16 16z" fill="#b5e08c"/><path d="m169.39 361.4a21.394 21.394 0 1 1 -21.385-21.384 21.4 21.4 0 0 1 21.385 21.384z" fill="#f6ccaf"/><rect fill="#82bcf4" height="256" rx="31.992" width="431.988" x="44.006" y="4"/><path d="m260.011 212a87.994 87.994 0 1 1 87.989-87.993 88 88 0 0 1 -87.989 87.993z" fill="#b2e5fb"/><path d="m180 404v40h-64v-40a16.047 16.047 0 0 1 16-16h32a16 16 0 0 1 16 16z" fill="#f26674"/><g fill="#919191"><path d="m212 492h-128a8 8 0 0 1 0-16h128a8 8 0 1 1 0 16z"/><path d="m244.004 307.999h191.995v32.014h-191.995z"/><path d="m292 380h-48a8 8 0 0 1 0-16h48a8 8 0 0 1 0 16z"/><path d="m292 412h-48a8 8 0 0 1 0-16h48a8 8 0 0 1 0 16z"/><path d="m292 444h-48a8 8 0 0 1 0-16h48a8 8 0 0 1 0 16z"/><path d="m436 380h-112a8 8 0 0 1 0-16h112a8 8 0 0 1 0 16z"/><path d="m404 412h-80a8 8 0 0 1 0-16h80a8 8 0 0 1 0 16z"/><path d="m388 444h-64a8 8 0 0 1 0-16h64a8 8 0 0 1 0 16z"/><path d="m319.566 490.66a8 8 0 0 1 -2.218-11.094l4.914-7.371a26.894 26.894 0 0 1 38.527-6.6l5.309 3.976a10.933 10.933 0 0 0 12.59.352c.8-.258 15.484-12.894 32.41-1.231a10.944 10.944 0 0 0 13.711-1.078l5.671-5.406a8 8 0 0 1 11.04 11.592l-5.676 5.406a27.012 27.012 0 0 1 -33.832 2.664c-6.091-4.206-11.068.139-14.45 1.375a26.923 26.923 0 0 1 -31.062-.867l-5.309-3.977a10.9 10.9 0 0 0 -15.617 2.672l-4.914 7.371a8 8 0 0 1 -11.094 2.216z"/></g><path d="m260.16 28h-.32a96 96 0 0 0 -.24 192h.72a96 96 0 0 0 -.16-192zm43.2 72.32c24.08 6 36.64 16 36.64 23.68s-12.56 17.68-36.64 23.68a219.68 219.68 0 0 0 0-47.36zm-2.64-17.04c-2.8-13.52-6.88-24.88-11.92-33.84a80.188 80.188 0 0 1 45.76 45.84c-8.88-5.04-20.32-9.2-33.84-12zm-12.08 40.72a196.2 196.2 0 0 1 -1.76 26.88 197.047 197.047 0 0 1 -26.88 1.76 197.047 197.047 0 0 1 -26.88-1.76 196.2 196.2 0 0 1 -1.76-26.88 194.193 194.193 0 0 1 1.76-26.8 197.261 197.261 0 0 1 53.76 0 194.193 194.193 0 0 1 1.76 26.8zm-26-79.52a6.27 6.27 0 0 1 1.12.4 1.273 1.273 0 0 1 .8.4 15.618 15.618 0 0 1 2.88 2 15.147 15.147 0 0 1 2.72 2.8.078.078 0 0 0 .08.08 26.558 26.558 0 0 1 2.08 2.88 19.7 19.7 0 0 1 1.36 2.16c.8 1.36 1.52 2.8 2.32 4.32.72 1.44 1.44 2.96 2 4.4 1.28 3.04 2.4 6.08 3.36 8.96.64 1.92 1.2 3.76 1.68 5.44.24.8.48 1.6.64 2.32a219.68 219.68 0 0 0 -47.36 0c6-24.08 15.92-36.56 23.68-36.64a7.263 7.263 0 0 1 1.84.24 1.544 1.544 0 0 1 .8.24zm-31.44 4.96c-5.04 8.96-9.12 20.32-11.92 33.84-13.52 2.8-24.96 6.96-33.84 12a80.188 80.188 0 0 1 45.76-45.84zm-14.56 50.88a219.68 219.68 0 0 0 0 47.36c-24.08-6-36.64-16-36.64-23.68s12.56-17.68 36.64-23.68zm2.64 64.4c2.8 13.52 6.88 24.88 11.92 33.84a80.282 80.282 0 0 1 -45.76-45.76c8.88 5.04 20.32 9.12 33.84 11.92zm17.04 2.64a209.374 209.374 0 0 0 23.68 1.28 209.374 209.374 0 0 0 23.68-1.28c-6 24.08-15.92 36.56-23.6 36.64h-.16c-7.68-.08-17.6-12.56-23.6-36.64zm52.48 31.2c5.04-8.88 9.12-20.32 11.92-33.84 13.52-2.8 24.96-6.88 33.84-11.92a80.054 80.054 0 0 1 -45.76 45.76z" fill="#ffde76"/><path d="m444 260h-184v256h184a31.991 31.991 0 0 0 32-32v-192a31.991 31.991 0 0 0 -32-32z" fill="#d7d2e2"/><path d="m476 36v192a31.991 31.991 0 0 1 -32 32h-184v-256h184a31.991 31.991 0 0 1 32 32z" fill="#5ca8f1"/><path d="m348 124a88 88 0 0 1 -88 88v-176a88.053 88.053 0 0 1 88 88z" fill="#8bd8f9"/><path d="m260 308h176v32h-176z" fill="#7d7d7d"/><path d="m300 372a8.024 8.024 0 0 1 -8 8h-32v-16h32a8.024 8.024 0 0 1 8 8z" fill="#7d7d7d"/><path d="m300 404a8.024 8.024 0 0 1 -8 8h-32v-16h32a8.024 8.024 0 0 1 8 8z" fill="#7d7d7d"/><path d="m300 436a8.024 8.024 0 0 1 -8 8h-32v-16h32a8.024 8.024 0 0 1 8 8z" fill="#7d7d7d"/><path d="m436 380h-112a8 8 0 0 1 0-16h112a8 8 0 0 1 0 16z" fill="#7d7d7d"/><path d="m404 412h-80a8 8 0 0 1 0-16h80a8 8 0 0 1 0 16z" fill="#7d7d7d"/><path d="m388 444h-64a8 8 0 0 1 0-16h64a8 8 0 0 1 0 16z" fill="#7d7d7d"/><path d="m319.566 490.66a8 8 0 0 1 -2.218-11.094l4.914-7.371a26.894 26.894 0 0 1 38.527-6.6l5.309 3.976a10.933 10.933 0 0 0 12.59.352c.8-.258 15.484-12.894 32.41-1.231a10.944 10.944 0 0 0 13.711-1.078l5.671-5.406a8 8 0 0 1 11.04 11.592l-5.676 5.406a27.012 27.012 0 0 1 -33.832 2.664c-6.091-4.206-11.068.139-14.45 1.375a26.923 26.923 0 0 1 -31.062-.867l-5.309-3.977a10.9 10.9 0 0 0 -15.617 2.672l-4.914 7.371a8 8 0 0 1 -11.094 2.216z" fill="#7d7d7d"/><path d="m260.16 28h-.16v16a7.263 7.263 0 0 1 1.84.24 1.544 1.544 0 0 1 .8.24 6.27 6.27 0 0 1 1.12.4 3.737 3.737 0 0 1 .8.4 15.618 15.618 0 0 1 2.88 2 14.021 14.021 0 0 1 1.84 1.92 4.584 4.584 0 0 1 .88.88.078.078 0 0 0 .08.08 6.673 6.673 0 0 1 .64.96l1.44 1.92a19.7 19.7 0 0 1 1.36 2.16c.8 1.36 1.6 2.8 2.32 4.32.72 1.44 1.44 2.96 2 4.4a83.577 83.577 0 0 1 3.36 8.96 30.3 30.3 0 0 1 .96 2.88c.24.88.56 1.76.72 2.56.24.8.48 1.6.64 2.32a208.361 208.361 0 0 0 -23.68-1.28v16a196.936 196.936 0 0 1 26.88 1.84 194.193 194.193 0 0 1 1.76 26.8 196.2 196.2 0 0 1 -1.76 26.88 197.047 197.047 0 0 1 -26.88 1.76v16a209.374 209.374 0 0 0 23.68-1.28c-6 24.08-15.92 36.56-23.6 36.64h-.08v16h.32a96 96 0 0 0 -.16-192zm43.2 72.32c24.08 6 36.64 16 36.64 23.68s-12.56 17.68-36.64 23.68a219.68 219.68 0 0 0 0-47.36zm-2.64-17.04c-2.8-13.52-6.88-24.88-11.92-33.84a80.188 80.188 0 0 1 45.76 45.84c-8.88-5.04-20.32-9.2-33.84-12zm0 81.44c13.52-2.8 24.96-6.88 33.84-11.92a80.054 80.054 0 0 1 -45.76 45.76c5.04-8.88 9.12-20.32 11.92-33.84z" fill="#ffde76"/></svg>