<svg id="Layer_1" height="512" viewBox="0 0 520 520" width="512" xmlns="http://www.w3.org/2000/svg" data-name="Layer 1"><g fill="#f29b75"><path d="m60 516a8 8 0 0 1 -8-8v-248a8 8 0 0 1 16 0v248a8 8 0 0 1 -8 8z"/><path d="m468 298.879a8 8 0 0 1 -8-8v-126.879a8 8 0 0 1 16 0v126.879a8 8 0 0 1 -8 8z"/><path d="m308 212.641a8 8 0 0 1 -8-8v-64.641a8 8 0 0 1 16 0v64.641a8 8 0 0 1 -8 8z"/></g><path d="m308 196a201.84 201.84 0 0 0 -201.588 191.76l-6.412 128.24h416l-6.412-128.24a201.84 201.84 0 0 0 -201.588-191.76z" fill="#b5e08c"/><path d="m308 196c-78.6 0-143.389 84.339-147.314 191.76l-4.686 128.24h304l-4.686-128.24c-3.925-107.421-68.714-191.76-147.314-191.76z" fill="#82bcf4"/><path d="m196 484 2.425-48.326a109.428 109.428 0 0 1 218.553 0l2.422 48.326z" fill="#ffde76"/><ellipse cx="60" cy="204" fill="#9dcc6b" rx="56" ry="104"/><ellipse cx="468" cy="112" fill="#9dcc6b" rx="48" ry="76"/><ellipse cx="308" cy="84" fill="#9dcc6b" rx="46.769" ry="80"/><circle cx="156" cy="52" fill="#ffde76" r="48"/><path d="m308 236a40 40 0 0 1 40 40v16a0 0 0 0 1 0 0h-80a0 0 0 0 1 0 0v-16a40 40 0 0 1 40-40z" fill="#b2e5fb"/><path d="m164 148a8 8 0 0 1 -8-8v-8.547a8 8 0 1 1 16 0v8.547a8 8 0 0 1 -8 8z" fill="#ffde76"/><path d="m214.914 122.227-6.043-6.043a8 8 0 0 1 11.313-11.313l6.043 6.043a8 8 0 0 1 -11.313 11.313z" fill="#ffde76"/><path d="m244 68h-8.547a8 8 0 1 1 0-16h8.547a8 8 0 0 1 0 16z" fill="#ffde76"/><path d="m468 298.879a8 8 0 0 1 -8-8v-126.879a8 8 0 0 1 16 0v126.879a8 8 0 0 1 -8 8z" fill="#ee8050"/><path d="m316 140v64.64a8.024 8.024 0 0 1 -8 8h-.32v-80.64h.32a8.024 8.024 0 0 1 8 8z" fill="#ee8050"/><path d="m516 516h-208.32v-320c.8.013 6.836.093 8.32.16a201.577 201.577 0 0 1 144 68.88 184.539 184.539 0 0 1 16 21.04 200.65 200.65 0 0 1 33.6 101.68z" fill="#a0d76c"/><path d="m460 516h-152.32v-320c1.318.018 6 .03 8.32.32 74.88 5.44 135.52 87.68 139.28 191.44z" fill="#5ca8f1"/><path d="m419.44 484h-111.76v-152a109.148 109.148 0 0 1 109.28 103.68z" fill="#ffd44d"/><ellipse cx="468" cy="112" fill="#89c24d" rx="48" ry="76"/><path d="m354.8 84c0 39.52-16.8 72.32-38.8 78.8a26.921 26.921 0 0 1 -8 1.2h-.32v-160h.32c25.84 0 46.8 35.84 46.8 80z" fill="#89c24d"/><path d="m348 276v16h-40.32v-56h.32a39.879 39.879 0 0 1 40 40z" fill="#8bd8f9"/></svg>