<svg id="Layer_1" height="512" viewBox="0 0 520 520" width="512" xmlns="http://www.w3.org/2000/svg" data-name="Layer 1"><path d="m480.507 341.754h-29.8l-140.123-109.329a28.008 28.008 0 0 0 -34.878.384l-19.863 16.169-16.323-32.491c83.037-162.381 54.398-106.376 60.593-118.487a28.109 28.109 0 0 1 38.111-11.779l43.27 23.328a27.668 27.668 0 0 1 12.858 14.551z" fill="#405c79"/><path d="m255.843 248.978v.077l-113.873 92.7h-106.326l75.606-191.1a24.8 24.8 0 0 1 11.319-12.781l38.031-20.474a24.644 24.644 0 0 1 33.491 10.317l30.72 60.054 14.706 28.718z" fill="#374f68"/><path d="m411.049 166.28-41.72-23.552c-15.638-8.585-24.53 7.149-25.33 7.7a18.257 18.257 0 0 1 -14.4 7.007 18.019 18.019 0 0 1 -12.781-5.313 18.3 18.3 0 0 0 -22.018-2.922l-29.487 16.78 34.8-67.98a28.109 28.109 0 0 1 38.111-11.779l43.27 23.328a27.668 27.668 0 0 1 12.858 14.551z" fill="#edebf2"/><path d="m224.814 187.769-26.1-15.014a15.962 15.962 0 0 0 -19.248 2.541 16 16 0 0 1 -23.945-1.463c-.8-.548-8.513-14.338-22.251-6.775l-35.724 18.17 13.7-34.569a24.8 24.8 0 0 1 11.319-12.781l38.035-20.478a24.644 24.644 0 0 1 33.491 10.317z" fill="#edebf2"/><path d="m450.711 341.754h-308.741l133.736-108.945a28.008 28.008 0 0 1 34.878-.384z" fill="#425b72"/><path d="m508.3 349.454h-496.6a7.7 7.7 0 0 1 0-15.4h496.6a7.7 7.7 0 0 1 0 15.4z" fill="#edb996"/><path d="m256.312 43.773c-.216-.727.427-21.851-18.513-28.5-20.073-7.048-39.015 9.434-37.342 30.817a23.475 23.475 0 0 0 -10.64-2.613c-13.508 0-24.5 11.722-24.5 26.131a21 21 0 0 0 21 21h76.993a21 21 0 0 0 21-21c-.001-16.67-14.566-28.515-27.998-25.835z" fill="#82bcf4"/><path d="m419.409 40.489a16.239 16.239 0 0 1 3.15.269c.237-.8-.368-19.672 16.661-25.652 18.066-6.344 35.113 8.49 33.608 27.735a21.124 21.124 0 0 1 9.575-2.352c12.158 0 22.048 10.55 22.048 23.518a18.9 18.9 0 0 1 -18.9 18.9h-69.291a18.9 18.9 0 0 1 -18.9-18.9c.002-12.968 9.892-23.518 22.049-23.518z" fill="#82bcf4"/><path d="m319.823 506.364h-308.123c0-40.729 31.336-73.682 70.063-73.682a66.528 66.528 0 0 1 29.95 7.083 71.6 71.6 0 0 1 30.952 30.258 53.792 53.792 0 0 1 58.591 1.694c11.78-17.631 31.336-29.257 53.433-29.257h.461a62.29 62.29 0 0 1 27.41 6.622c20.787 10.318 35.569 31.951 37.263 57.282z" fill="#b5e08c"/><path d="m255.149 442.46h-.461c-22.1 0-41.653 11.626-53.433 29.257a53.791 53.791 0 0 0 -58.591-1.694 71.6 71.6 0 0 0 -30.952-30.258c17.324-20.557 42.5-33.491 70.679-33.491 29.335 0 55.435 14.089 72.758 36.186z" fill="#9dcc6b"/><path d="m504.3 506.364h-184.477c-1.694-25.331-16.476-46.966-37.264-57.282 21.9-6.07 43.445-1.9 61.363 10.24 15.937-24.022 42.269-39.806 72.3-39.806 46.578 0 84.841 38.419 88.078 86.848z" fill="#9dcc6b"/><g fill="#ffde76"><circle cx="76.352" cy="44.409" r="30.797"/><path d="m76.352 113.8a7.7 7.7 0 0 1 -7.7-7.7v-7.8a7.7 7.7 0 1 1 15.4 0v7.8a7.7 7.7 0 0 1 -7.7 7.7z"/><path d="m114.529 93.473-5.511-5.511a7.7 7.7 0 0 1 10.887-10.888l5.511 5.512a7.7 7.7 0 0 1 -10.887 10.887z"/><path d="m22.457 52.108h-7.8a7.7 7.7 0 0 1 0-15.4h7.8a7.7 7.7 0 1 1 0 15.4z"/><path d="m138.044 52.108h-7.8a7.7 7.7 0 0 1 0-15.4h7.8a7.7 7.7 0 0 1 0 15.4z"/><path d="m27.288 93.473a7.7 7.7 0 0 1 0-10.887l5.512-5.512a7.7 7.7 0 0 1 10.887 10.888l-5.511 5.511a7.7 7.7 0 0 1 -10.888 0z"/></g><path d="m480.48 341.748h-29.76l-112.56-87.84v-167.68h.08l43.28 23.28a27.476 27.476 0 0 1 12.8 14.56l16.72 42.24z" fill="#32485e"/><path d="m255.84 248.948c-.8.64-93.84 76.421-94.64 77.141v-208.9a24.508 24.508 0 0 1 32.88 10.56c.469.919 62.187 122.041 61.76 121.199z" fill="#293b4d"/><path d="m411.04 166.308-41.68-23.6c-15.68-8.56-24.56 7.2-25.36 7.68a17.044 17.044 0 0 1 -5.84 4.88v-69.04h.08l43.28 23.28a27.476 27.476 0 0 1 12.8 14.56z" fill="#d7d2e2"/><path d="m224.8 187.748-26.08-14.96a15.975 15.975 0 0 0 -19.28 2.48 15.617 15.617 0 0 1 -11.28 4.72 16.565 16.565 0 0 1 -6.96-1.52v-61.28a24.508 24.508 0 0 1 32.88 10.56z" fill="#d7d2e2"/><path d="m419.409 40.489a16.239 16.239 0 0 1 3.15.269c.237-.8-.368-19.672 16.661-25.652 18.066-6.344 35.113 8.49 33.608 27.735a21.124 21.124 0 0 1 9.575-2.352c12.158 0 22.048 10.55 22.048 23.518a18.9 18.9 0 0 1 -18.9 18.9h-69.291a18.9 18.9 0 0 1 -18.9-18.9c.002-12.968 9.892-23.518 22.049-23.518z" fill="#5ca8f1"/><path d="m319.84 506.388h-61.84v-63.76a60.814 60.814 0 0 1 24.56 6.48c20.8 10.32 35.6 31.92 37.28 57.28z" fill="#a0d76c"/><path d="m504.3 506.364h-184.477c-1.694-25.331-16.476-46.966-37.264-57.282 21.9-6.07 43.445-1.9 61.363 10.24 15.937-24.022 42.269-39.806 72.3-39.806 46.578 0 84.841 38.419 88.078 86.848z" fill="#89c24d"/><path d="m450.72 341.748h-154.4v-115.12a28.114 28.114 0 0 1 14.24 5.76l27.6 21.52 102.72 80.16z" fill="#334658"/><path d="m516 341.748a7.682 7.682 0 0 1 -7.68 7.68h-250.32v-15.36h250.32a7.682 7.682 0 0 1 7.68 7.68z" fill="#e7a273"/></svg>