<svg id="Layer_1" height="512" viewBox="0 0 520 520" width="512" xmlns="http://www.w3.org/2000/svg" data-name="Layer 1"><path d="m133.273 483.45a7.881 7.881 0 0 1 4.965-9.973l7.547-2.527v-17.965a7.877 7.877 0 1 1 15.753 0v23.63a7.877 7.877 0 0 1 -5.373 7.47l-12.919 4.33a7.876 7.876 0 0 1 -9.973-4.965z" fill="#dad7e5"/><path d="m376.754 488.415-12.919-4.33a7.877 7.877 0 0 1 -5.373-7.47v-23.63a7.877 7.877 0 1 1 15.753 0v17.965l7.547 2.527a7.878 7.878 0 1 1 -5.008 14.938z" fill="#dad7e5"/><circle cx="130.031" cy="492.369" fill="#919191" r="23.631"/><circle cx="389.969" cy="492.369" fill="#919191" r="23.631"/><path d="m283.631 4h-47.262a7.9 7.9 0 0 0 -7.877 7.877v55.138a7.9 7.9 0 0 0 7.877 7.877h47.262a7.9 7.9 0 0 0 7.877-7.877v-55.138a7.9 7.9 0 0 0 -7.877-7.877zm-7.877 55.138h-31.508v-39.384h31.508z" fill="#dad7e5"/><rect fill="#c4455e" height="362.338" rx="31.508" width="299.323" x="110.338" y="90.646"/><path d="m378.154 137.908v63.015a27.229 27.229 0 0 0 -26.939 23.394l-27.806 197.16h-126.818l-27.806-197.16a27.229 27.229 0 0 0 -26.939-23.394v-63.015a15.655 15.655 0 0 1 2.836-9.059 16.033 16.033 0 0 1 12.918-6.695h204.8a16.033 16.033 0 0 1 12.918 6.695 15.655 15.655 0 0 1 2.836 9.059z" fill="#f26674"/><path d="m313 177.292h-98.121c-25.194 0-55.844-15.006-65.782-38.158l-4.415-10.285a16.033 16.033 0 0 1 12.918-6.695h204.8a16.033 16.033 0 0 1 12.918 6.695l-4.418 10.285a63.014 63.014 0 0 1 -57.9 38.158z" fill="#db5669"/><path d="m196.591 421.477h-38.991a15.8 15.8 0 0 1 -15.754-15.754v-204.8a27.229 27.229 0 0 1 26.939 23.394z" fill="#db5669"/><path d="m378.154 200.923v204.8a15.8 15.8 0 0 1 -15.754 15.754h-38.991l27.806-197.16a27.229 27.229 0 0 1 26.939-23.394z" fill="#db5669"/><path d="m293.44 368.566 19.13-133.907a15.755 15.755 0 0 0 -15.6-17.982h-73.944a15.755 15.755 0 0 0 -15.6 17.982l19.13 133.907a15.754 15.754 0 0 0 15.6 13.526h35.688a15.754 15.754 0 0 0 15.596-13.526z" fill="#edebf2"/><g fill="#919191"><path d="m236.369 59.138h47.262a15.754 15.754 0 0 1 15.754 15.754v15.754a0 0 0 0 1 0 0h-78.77a0 0 0 0 1 0 0v-15.754a15.754 15.754 0 0 1 15.754-15.754z"/><path d="m283.631 256.062h-47.262a7.877 7.877 0 1 1 0-15.754h47.262a7.877 7.877 0 0 1 0 15.754z"/><path d="m275.754 290.2h-31.508a7.877 7.877 0 0 1 0-15.754h31.508a7.877 7.877 0 0 1 0 15.754z"/><path d="m267.877 324.327h-15.754a7.877 7.877 0 1 1 0-15.754h15.754a7.877 7.877 0 0 1 0 15.754z"/><path d="m260 358.462a8.29 8.29 0 0 1 -5.592-2.285 8.4 8.4 0 0 1 -2.285-5.592 7.877 7.877 0 1 1 15.754 0 8.029 8.029 0 0 1 -2.285 5.592 8.145 8.145 0 0 1 -5.592 2.285z"/><path d="m307.262 157.6h-94.524a7.877 7.877 0 0 1 0-15.754h94.524a7.877 7.877 0 0 1 0 15.754z"/></g><path d="m315.138 19.754h-110.276a7.877 7.877 0 1 1 0-15.754h110.276a7.877 7.877 0 1 1 0 15.754z" fill="#515151"/><path d="m376.754 488.415-12.919-4.33a7.877 7.877 0 0 1 -5.373-7.47v-23.63a7.877 7.877 0 1 1 15.753 0v17.965l7.547 2.527a7.878 7.878 0 1 1 -5.008 14.938z" fill="#c3bed5"/><circle cx="389.969" cy="492.369" fill="#7d7d7d" r="23.631"/><path d="m283.631 4h-23.631v15.754h15.754v39.384h-15.754v15.754h23.631a7.9 7.9 0 0 0 7.877-7.877v-55.138a7.9 7.9 0 0 0 -7.877-7.877z" fill="#c3bed5"/><path d="m409.662 122.154v299.323a31.5 31.5 0 0 1 -31.508 31.508h-118.154v-362.339h118.154a31.5 31.5 0 0 1 31.508 31.508z" fill="#aa364d"/><path d="m378.154 137.908v63.015a27.229 27.229 0 0 0 -26.939 23.394l-27.806 197.16h-63.409v-299.323h102.4a16.033 16.033 0 0 1 12.918 6.695 15.655 15.655 0 0 1 2.836 9.059z" fill="#ef4052"/><path d="m375.318 128.849-4.411 10.319a63.058 63.058 0 0 1 -57.895 38.124h-53.012v-55.138h102.4a16.033 16.033 0 0 1 12.918 6.695z" fill="#d4344b"/><path d="m378.154 200.923v204.8a15.8 15.8 0 0 1 -15.754 15.754h-38.991l27.806-197.16a27.229 27.229 0 0 1 26.939-23.394z" fill="#d4344b"/><path d="m312.539 234.636-19.062 133.908a15.829 15.829 0 0 1 -15.6 13.548h-17.877v-165.415h36.943a15.708 15.708 0 0 1 15.596 17.959z" fill="#d7d2e2"/><path d="m299.385 74.892v15.754h-39.385v-31.508h23.631a15.793 15.793 0 0 1 15.754 15.754z" fill="#7d7d7d"/><path d="m291.508 248.185a7.9 7.9 0 0 1 -7.877 7.877h-23.631v-15.754h23.631a7.9 7.9 0 0 1 7.877 7.877z" fill="#7d7d7d"/><path d="m283.631 282.291a7.849 7.849 0 0 1 -7.877 7.877h-15.754v-15.754h15.754a7.9 7.9 0 0 1 7.877 7.877z" fill="#7d7d7d"/><path d="m275.754 316.477a7.9 7.9 0 0 1 -7.877 7.877h-7.877v-15.754h7.877a7.85 7.85 0 0 1 7.877 7.877z" fill="#7d7d7d"/><path d="m267.877 350.585c0 2.756-1.1 4.1-2.284 5.592a8.136 8.136 0 0 1 -5.593 2.285v-15.675a7.854 7.854 0 0 1 5.593 2.205 8.282 8.282 0 0 1 2.284 5.593z" fill="#7d7d7d"/><path d="m315.138 149.723a7.9 7.9 0 0 1 -7.876 7.877h-47.262v-15.754h47.262a7.9 7.9 0 0 1 7.876 7.877z" fill="#7d7d7d"/><path d="m323.015 11.877a7.9 7.9 0 0 1 -7.877 7.877h-55.138v-15.754h55.138a7.9 7.9 0 0 1 7.877 7.877z" fill="#3d3d3d"/></svg>