<svg id="Layer_1" height="512" viewBox="0 0 520 520" width="512" xmlns="http://www.w3.org/2000/svg" data-name="Layer 1"><rect fill="#b5e08c" height="272" rx="32" width="512" x="4" y="52"/><path d="m340 356a79.691 79.691 0 0 1 -23.44 56.56 75.794 75.794 0 0 1 -8.64 7.44 79.783 79.783 0 1 1 32.08-64z" fill="#f8834b"/><path d="m468 148v80a48.038 48.038 0 0 0 -48 48h-320a48.038 48.038 0 0 0 -48-48v-80a48.038 48.038 0 0 0 48-48h320a48.038 48.038 0 0 0 48 48z" fill="#9dcc6b"/><path d="m260 244v32a79.75 79.75 0 0 0 -56.56 23.44l-22.64-22.64a111.949 111.949 0 0 1 79.2-32.8z" fill="#ffde76"/><path d="m339.2 276.8-22.64 22.64a79.75 79.75 0 0 0 -56.56-23.44v-32a111.949 111.949 0 0 1 79.2 32.8z" fill="#ffba55"/><path d="m372 356h-32a80.378 80.378 0 0 0 -23.44-56.56l22.64-22.64a113.075 113.075 0 0 1 28.16 47.2 111.343 111.343 0 0 1 4.64 32z" fill="#ffde76"/><path d="m372 356a116.8 116.8 0 0 1 -1.12 16 113.718 113.718 0 0 1 -31.68 63.2l-22.64-22.64a79.691 79.691 0 0 0 23.44-56.56z" fill="#ffba55"/><path d="m339.2 435.2a112.668 112.668 0 0 1 -67.44 32.24c-3.84.32-7.76.56-11.76.56v-32a79.173 79.173 0 0 0 47.92-16 75.794 75.794 0 0 0 8.64-7.44z" fill="#ffde76"/><path d="m260 436v32a111.949 111.949 0 0 1 -79.2-32.8l22.64-22.64a79.75 79.75 0 0 0 56.56 23.44z" fill="#ffba55"/><path d="m203.44 412.56-22.64 22.64a111.949 111.949 0 0 1 -32.8-79.2h32a79.75 79.75 0 0 0 23.44 56.56z" fill="#ffde76"/><path d="m203.44 299.44a79.75 79.75 0 0 0 -23.44 56.56h-32a111.949 111.949 0 0 1 32.8-79.2z" fill="#ffba55"/><path d="m436 436v16a16.047 16.047 0 0 1 -16 16h-144a15.055 15.055 0 0 1 -4.24-.56 112.668 112.668 0 0 0 67.44-32.24 109.865 109.865 0 0 0 12.64-15.2h68.16a16.047 16.047 0 0 1 16 16z" fill="#ffab2e"/><path d="m436 388v16a16.047 16.047 0 0 1 -16 16h-68.16a110.921 110.921 0 0 0 19.04-48h49.12a16.047 16.047 0 0 1 16 16z" fill="#ffcc29"/><path d="m436 340v16a16.047 16.047 0 0 1 -16 16h-49.12a116.8 116.8 0 0 0 1.12-16 111.343 111.343 0 0 0 -4.64-32h52.64a16.047 16.047 0 0 1 16 16z" fill="#ffab2e"/><path d="m266.289 172h-12.578a4.574 4.574 0 0 1 -4.57-4.57v-6.289a4.571 4.571 0 0 1 4.57-4.567h12.578a4.571 4.571 0 0 1 4.57 4.567 8 8 0 1 0 16 0 20.526 20.526 0 0 0 -18.859-20.394v-4.747a8 8 0 0 0 -16 0v4.747a20.526 20.526 0 0 0 -18.859 20.394v6.289a20.592 20.592 0 0 0 20.57 20.57h12.578a4.575 4.575 0 0 1 4.57 4.574v6.285a4.574 4.574 0 0 1 -4.57 4.571h-12.578a4.574 4.574 0 0 1 -4.57-4.571 8 8 0 0 0 -16 0 20.527 20.527 0 0 0 18.859 20.398v4.743a8 8 0 0 0 16 0v-4.743a20.527 20.527 0 0 0 18.859-20.4v-6.285a20.6 20.6 0 0 0 -20.57-20.572z" fill="#edebf2"/><path d="m266.289 348h-12.578a4.574 4.574 0 0 1 -4.57-4.57v-6.289a4.571 4.571 0 0 1 4.57-4.567h12.578a4.571 4.571 0 0 1 4.57 4.567 8 8 0 0 0 16 0 20.526 20.526 0 0 0 -18.859-20.394v-4.747a8 8 0 0 0 -16 0v4.747a20.526 20.526 0 0 0 -18.859 20.394v6.289a20.592 20.592 0 0 0 20.57 20.57h12.578a4.575 4.575 0 0 1 4.57 4.574v6.285a4.574 4.574 0 0 1 -4.57 4.571h-12.578a4.574 4.574 0 0 1 -4.57-4.571 8 8 0 0 0 -16 0 20.527 20.527 0 0 0 18.859 20.398v4.743a8 8 0 0 0 16 0v-4.743a20.527 20.527 0 0 0 18.859-20.4v-6.285a20.6 20.6 0 0 0 -20.57-20.572z" fill="#edebf2"/><ellipse cx="156" cy="188" fill="#edebf2" rx="32" ry="20"/><ellipse cx="364" cy="188" fill="#edebf2" rx="32" ry="20"/><path d="m516 84v208a31.991 31.991 0 0 1 -32 32h-224v-272h224a31.991 31.991 0 0 1 32 32z" fill="#a0d76c"/><path d="m340 356a80.029 80.029 0 0 1 -80 80v-160a80.12 80.12 0 0 1 80 80z" fill="#f66824"/><path d="m468 148v80a48.038 48.038 0 0 0 -48 48h-160v-176h160a48.038 48.038 0 0 0 48 48z" fill="#89c24d"/><path d="m339.2 276.8-22.64 22.64a79.75 79.75 0 0 0 -56.56-23.44v-32a111.771 111.771 0 0 1 78.32 32 7.967 7.967 0 0 1 .88.8z" fill="#ffa92c"/><path d="m372 356h-32a80.378 80.378 0 0 0 -23.44-56.56l22.64-22.64a113.075 113.075 0 0 1 28.16 47.2 111.343 111.343 0 0 1 4.64 32z" fill="#ffd44d"/><path d="m372 356a116.8 116.8 0 0 1 -1.12 16 113.718 113.718 0 0 1 -31.68 63.2l-22.64-22.64a79.78 79.78 0 0 0 23.44-56.56z" fill="#ffa92c"/><path d="m339.2 435.2a112.668 112.668 0 0 1 -67.44 32.24c-3.84.32-7.76.56-11.76.56v-32a79.782 79.782 0 0 0 56.56-23.44z" fill="#ffd44d"/><path d="m436 436v16a16.047 16.047 0 0 1 -16 16h-144a15.055 15.055 0 0 1 -4.24-.56 112.668 112.668 0 0 0 67.44-32.24 109.865 109.865 0 0 0 12.64-15.2h68.16a16.047 16.047 0 0 1 16 16z" fill="#ff9b05"/><path d="m436 388v16a16.047 16.047 0 0 1 -16 16h-68.16a110.921 110.921 0 0 0 19.04-48h49.12a16.047 16.047 0 0 1 16 16z" fill="#ffc200"/><path d="m436 340v16a16.047 16.047 0 0 1 -16 16h-49.12a116.8 116.8 0 0 0 1.12-16 111.343 111.343 0 0 0 -4.64-32h52.64a16.047 16.047 0 0 1 16 16z" fill="#ff9b05"/><g fill="#d7d2e2"><path d="m266.32 156.56h-6.32v-28.56a8.024 8.024 0 0 1 8 8v4.72a20.549 20.549 0 0 1 18.88 20.4 8 8 0 0 1 -16 0 4.61 4.61 0 0 0 -4.56-4.56z"/><path d="m286.88 192.56v6.32a20.549 20.549 0 0 1 -18.88 20.4v4.72a8.024 8.024 0 0 1 -8 8v-28.56h6.32a4.61 4.61 0 0 0 4.56-4.56v-6.32a4.61 4.61 0 0 0 -4.56-4.56h-6.32v-16h6.32a20.6 20.6 0 0 1 20.56 20.56z"/><path d="m266.32 332.56h-6.32v-28.56a8.024 8.024 0 0 1 8 8v4.72a20.547 20.547 0 0 1 18.88 20.4 8 8 0 0 1 -16 0 4.61 4.61 0 0 0 -4.56-4.56z"/><path d="m286.88 368.56v6.32a20.549 20.549 0 0 1 -18.88 20.4v4.72a8.024 8.024 0 0 1 -8 8v-28.56h6.32a4.61 4.61 0 0 0 4.56-4.56v-6.32a4.61 4.61 0 0 0 -4.56-4.56h-6.32v-16h6.32a20.6 20.6 0 0 1 20.56 20.56z"/><ellipse cx="364" cy="188" rx="32" ry="20"/></g></svg>