<svg id="Layer_1" height="512" viewBox="0 0 520 520" width="512" xmlns="http://www.w3.org/2000/svg" data-name="Layer 1"><path d="m132 114.24v354.48l-128 47.28v-354.48z" fill="#9dcc6b"/><path d="m516 161.52v354.48l-40-14.72-48-17.76-40-14.8v-354.48z" fill="#9dcc6b"/><path d="m388 114.24v354.48l-128 47.28-40-14.72-48-17.76-40-14.8v-354.48l128 58.08z" fill="#b5e08c"/><path d="m345.76 70.8c-9.704-37.9-43.733-66.8-85.76-66.8-42.48 0-76.16 29.38-85.76 66.8-5.806 22.783.011 48.19 10.879 65.615l74.881 119.647 74.881-119.651c11.071-17.749 16.609-43.13 10.879-65.611z" fill="#f26674"/><ellipse cx="260" cy="90.646" fill="#ffde76" rx="56" ry="55.139"/><path d="m132 279.68v47.28l-128 47.28v-47.28z" fill="#7c7d7d"/><path d="m388 279.68v47.28l-128 47.28-40-14.72v141.76l-48-17.76v-141.76l-40-14.8v-47.28l40 14.8 48 17.76 40 14.72z" fill="#919191"/><path d="m516 326.96v47.28l-40-14.72v141.76l-48-17.76v-141.76l-40-14.8v-47.28l40 14.8 48 17.76z" fill="#7c7d7d"/><path d="m260 295.57c-26.469 0-48-17.722-48-39.508a8 8 0 0 1 16 0c0 12.961 14.355 23.508 32 23.508s32-10.547 32-23.508a8 8 0 0 1 16 0c0 21.786-21.531 39.508-48 39.508z" fill="#ffde76"/><path d="m516 161.52v354.48l-40-14.72-48-17.76-40-14.8v-354.48z" fill="#89c24d"/><path d="m260 295.6v31.36 47.28 141.76l128-47.28v-141.76-47.28-165.44l-54.8 24.88-73.2 33.2v83.76 23.52z" fill="#a0d76c"/><path d="m345.76 70.8a88.453 88.453 0 0 0 -85.76-66.8v252l.08-.08.08-.16a.99.99 0 0 0 .16-.24 4.9 4.9 0 0 1 .32-.48 3.478 3.478 0 0 0 .32-.56c.24-.4.48-.8.8-1.28 1.84-2.88 5.28-8.32 11.6-18.4l3.76-6c10.72-17.28 28.16-45.12 56.08-89.68.56-.88 1.12-1.84 1.68-2.72 11.04-17.76 16.64-43.12 10.88-65.6z" fill="#ef4052"/><path d="m316 90.64c0 30.48-25.04 55.12-56 55.12v-110.24c30.96 0 56 24.64 56 55.12z" fill="#ffd44d"/><path d="m388 279.68v47.28l-128 47.28v-47.28z" fill="#7d7d7d"/><path d="m516 326.96v47.28l-40-14.72v141.76l-48-17.76v-141.76l-40-14.8v-47.28l40 14.8 48 17.76z" fill="#686969"/><path d="m260 295.6c26.48 0 48-17.76 48-39.52a8 8 0 0 0 -16 0c0 12.96-14.32 23.52-32 23.52z" fill="#ffd44d"/></svg>