<svg id="Layer_1" height="512" viewBox="0 0 520 520" width="512" xmlns="http://www.w3.org/2000/svg" data-name="Layer 1"><path d="m516 276v72a32.094 32.094 0 0 1 -32 32h-448a32.094 32.094 0 0 1 -32-32v-168h488z" fill="#f26674"/><path d="m260 212h56v168h-56z" fill="#6fabe6"/><path d="m516 139.92v24.08a16.047 16.047 0 0 1 -16 16h-496v-40.08a38.489 38.489 0 0 1 3.36-15.84 40.016 40.016 0 0 1 36.64-24.08h432a39.866 39.866 0 0 1 36.64 24.08 38.044 38.044 0 0 1 3.36 15.84z" fill="#f26674"/><path d="m140 180v96h-64a31.991 31.991 0 0 1 -32-32v-64z" fill="#82bcf4"/><path d="m204 212h56v168h-56z" fill="#82bcf4"/><path d="m204 180h112v32h-112z" fill="#ffd44d"/><path d="m140 180h64v96h-64z" fill="#6fabe6"/><path d="m436 180h-48-72v96h120 24v-96z" fill="#4c97e0"/><path d="m492 180 24 96h-56v-96z" fill="#6fabe6"/><circle cx="140" cy="380" fill="#919191" r="40"/><circle cx="420" cy="380" fill="#919191" r="40"/><path d="m284 300a8 8 0 0 1 -8-8v-8a8 8 0 0 1 16 0v8a8 8 0 0 1 -8 8z" fill="#d7d2e2"/><path d="m236 300a8 8 0 0 1 -8-8v-8a8 8 0 0 1 16 0v8a8 8 0 0 1 -8 8z" fill="#d7d2e2"/><path d="m516 139.92c-3.735 1.245-13.155-2.517-39.92 7.6-11.12 4.16-22.64 8.48-45.44 8.48s-34.4-4.32-45.52-8.48c-10.32-3.92-20-7.52-39.84-7.52-19.92 0-29.6 3.68-39.92 7.52-11.12 4.16-22.72 8.48-45.44 8.48-22.8 0-34.32-4.32-45.44-8.48-10.24-3.92-20-7.52-39.84-7.52-19.92 0-29.6 3.68-39.92 7.52-11.12 4.16-22.64 8.48-45.44 8.48s-34.32-4.32-45.52-8.48c-10.08-3.84-19.68-7.44-39.04-7.52a2.215 2.215 0 0 1 -.72-.08 38.489 38.489 0 0 1 3.36-15.84c20.56.4 31.44 4.48 42.08 8.4 10.24 3.92 19.92 7.52 39.84 7.52 19.84 0 29.52-3.6 39.84-7.52 11.12-4.16 22.72-8.48 45.52-8.48s34.32 4.32 45.44 8.48c10.24 3.92 20 7.52 39.84 7.52s29.52-3.6 39.84-7.52c11.12-4.16 22.72-8.48 45.52-8.48s34.32 4.32 45.44 8.48c10.32 3.84 20 7.52 39.92 7.52s29.6-3.6 39.84-7.52c10.64-3.92 21.52-8 42.16-8.4a38.484 38.484 0 0 1 3.36 15.84z" fill="#ffde76"/><path d="m148 388h-16a8 8 0 0 1 0-16h16a8 8 0 0 1 0 16z" fill="#747575"/><path d="m428 388h-16a8 8 0 0 1 0-16h16a8 8 0 0 1 0 16z" fill="#747575"/><path d="m516 308v32h-24a8.024 8.024 0 0 1 -8-8v-16a8.024 8.024 0 0 1 8-8z" fill="#ffd44d"/><path d="m52 356v24h-16a32.094 32.094 0 0 1 -32-32v-16h24a23.968 23.968 0 0 1 24 24z" fill="#ffd44d"/><path d="m516 276v72a32.094 32.094 0 0 1 -32 32h-224v-200h232z" fill="#ef4052"/><path d="m260 212h56v168h-56z" fill="#4c97e0"/><path d="m516 139.92v24.08a16.047 16.047 0 0 1 -16 16h-240v-80h216a39.866 39.866 0 0 1 36.64 24.08 38.472 38.472 0 0 1 3.36 15.84z" fill="#ef4052"/><path d="m260 180h56v32h-56z" fill="#ffca24"/><path d="m316 180v96h144v-96z" fill="#2983da"/><path d="m492 180 24 96h-56v-96z" fill="#4c97e0"/><circle cx="420" cy="380" fill="#7d7d7d" r="40"/><path d="m284 300a8 8 0 0 1 -8-8v-8a8 8 0 0 1 16 0v8a8 8 0 0 1 -8 8z" fill="#c1b9d2"/><path d="m516 139.92c-3.76 1.28-13.12-2.48-39.92 7.6-11.12 4.16-22.64 8.48-45.44 8.48s-34.4-4.32-45.52-8.48c-10.32-3.92-20-7.52-39.84-7.52-19.92 0-29.6 3.68-39.92 7.52-11.12 4.16-22.72 8.48-45.36 8.48v-16c19.76 0 29.44-3.6 39.76-7.52 11.12-4.16 22.72-8.48 45.52-8.48s34.32 4.32 45.44 8.48c10.32 3.84 20 7.52 39.92 7.52s29.6-3.6 39.84-7.52c10.64-3.92 21.52-8 42.16-8.4a38.472 38.472 0 0 1 3.36 15.84z" fill="#ffd44d"/><path d="m428 388h-16a8 8 0 0 1 0-16h16a8 8 0 0 1 0 16z" fill="#606161"/><path d="m516 308v32h-24a8.024 8.024 0 0 1 -8-8v-16a8.024 8.024 0 0 1 8-8z" fill="#ffca24"/></svg>