<svg id="Layer_1" height="512" viewBox="0 0 520 520" width="512" xmlns="http://www.w3.org/2000/svg" data-name="Layer 1"><path d="m509.846 296.124c-14.147 11.429-50.514 11.829-103.185 11.829-31.89 0-72.173-2.238-115.173-5.675-28.533-2.318-58.265-5.195-87.439-8.312-80.249-8.472-156.414-18.866-192.94-24.857a7.989 7.989 0 0 1 -6.634-7.909v-19.585a7.966 7.966 0 0 1 5.2-7.513l16.385-6.075-21.66-103.9h32.05l45.8 95.911c46.916-7.274 88.478-11.989 125.883-14.387a838.336 838.336 0 0 1 95.032-1.359 558.017 558.017 0 0 1 110.535 15.743c14.307 3.516 23.818 10.23 29.972 16.624a43.634 43.634 0 0 0 16.464 10.63c2.623 1.456 16.92 4.786 31.491 12.388 4.716 2.4 9.431 5.2 15.826 8.793a16.83 16.83 0 0 1 2.393 27.654z" fill="#edebf2"/><path d="m457.894 68.176a24.025 24.025 0 0 1 -23.978 23.977h-87.916a23.945 23.945 0 0 1 -23.98-23.977 30.642 30.642 0 0 1 8.232-21.1 27.141 27.141 0 0 1 19.742-8.712h4c0-14.387 8.312-27.734 21.1-32.21 23.091-8.111 44.551 10.862 42.68 35.168a26.093 26.093 0 0 1 21.02-1.359c11.106 3.915 19.1 15.025 19.1 28.213z" fill="#82bcf4"/><path d="m516 73.85a18.352 18.352 0 0 1 -18.3 18.3h-63.784a24.025 24.025 0 0 0 23.978-23.977c0-13.188-7.993-24.3-19.1-28.214a23.783 23.783 0 0 1 13.906-13.585c17.9-6.3 34.414 8.908 32.61 26.936a20.4 20.4 0 0 1 9.271-2.319c11.828 0 21.419 10.231 21.419 22.859z" fill="#6daae4"/><path d="m395.972 461.943h4.445a33.8 33.8 0 0 1 23.514-32.206c25.579-8.075 49.55 10.85 47.433 35.19a32.525 32.525 0 0 1 13.514-2.984c17.159 0 31.117 13.385 31.117 29.839 0 13.243-11.941 23.978-26.672 23.978h-97.8c-14.73 0-26.672-10.735-26.672-23.978.003-16.454 13.962-29.839 31.121-29.839z" fill="#82bcf4"/><path d="m25.862 476.62h3.056c0-10.471 6.361-20.148 16.165-23.422a24.584 24.584 0 0 1 32.609 25.592 21.356 21.356 0 0 1 9.29-2.17 21.573 21.573 0 0 1 21.392 21.7c0 9.631-8.21 17.438-18.336 17.438h-67.232c-10.127 0-18.336-7.807-18.336-17.438a21.573 21.573 0 0 1 21.392-21.7z" fill="#82bcf4"/><path d="m28.448 29.284v-.248c0-10.471 6.361-20.148 16.165-23.422a24.583 24.583 0 0 1 32.608 25.592 21.346 21.346 0 0 1 9.291-2.17 21.572 21.572 0 0 1 21.392 21.7c0 9.631-8.21 17.439-18.336 17.439h-67.232c-10.127.001-18.336-7.807-18.336-17.438 0-13.844 12.723-23.678 24.448-21.453z" fill="#82bcf4"/><path d="m156.305 228.027h15.985v15.985h-15.985z" fill="#b2e5fb"/><path d="m188.267 228.027h15.985v15.985h-15.985z" fill="#b2e5fb"/><path d="m491.622 259.677c-18.463 3.118-77.527 9.672-122.446-8.232a8 8 0 1 1 5.915-14.866c23.818 9.511 58.745 11.749 85.04 10.71 2.623 1.456 16.92 4.786 31.491 12.388z" fill="#b2e5fb"/><path d="m291.488 302.278-142.347 133.556-40.2-7.992 95.111-133.876c29.171 3.117 58.903 5.994 87.436 8.312z" fill="#f26674"/><path d="m303.158 204.289a838.336 838.336 0 0 0 -95.032 1.359l-58.9-121.487h46.274z" fill="#f26674"/><g fill="#b2e5fb"><path d="m220.23 228.027h15.985v15.985h-15.985z"/><path d="m252.196 228.027h15.985v15.985h-15.985z"/><path d="m284.159 228.027h15.985v15.985h-15.985z"/><path d="m316.121 228.027h15.985v15.985h-15.985z"/></g><path d="m509.846 296.124c-14.147 11.429-50.514 11.829-103.185 11.829-31.89 0-72.173-2.238-115.173-5.675-10.39-.879-20.86-1.758-31.49-2.717v-95.991c15.106-.16 29.412.08 43.16.719a558.017 558.017 0 0 1 110.542 15.746c14.307 3.516 23.818 10.23 29.972 16.624a43.634 43.634 0 0 0 16.464 10.63s22.06 7.194 31.491 12.388c4.716 2.4 9.431 5.2 15.826 8.793a16.83 16.83 0 0 1 2.393 27.654z" fill="#d7d2e2"/><path d="m457.894 68.176a24.025 24.025 0 0 1 -23.978 23.977h-87.916a23.945 23.945 0 0 1 -23.98-23.977 30.642 30.642 0 0 1 8.232-21.1 27.141 27.141 0 0 1 19.742-8.712h4c0-14.387 8.312-27.734 21.1-32.21 23.091-8.111 44.551 10.862 42.68 35.168a26.093 26.093 0 0 1 21.02-1.359c11.106 3.915 19.1 15.025 19.1 28.213z" fill="#5ca8f1"/><path d="m516 73.85a18.352 18.352 0 0 1 -18.3 18.3h-63.784a24.025 24.025 0 0 0 23.978-23.977c0-13.188-7.993-24.3-19.1-28.214a23.783 23.783 0 0 1 13.906-13.585c17.9-6.3 34.414 8.908 32.61 26.936a20.4 20.4 0 0 1 9.271-2.319c11.828 0 21.419 10.231 21.419 22.859z" fill="#4b96de"/><path d="m395.972 461.943h4.445a33.8 33.8 0 0 1 23.514-32.206c25.579-8.075 49.55 10.85 47.433 35.19a32.525 32.525 0 0 1 13.514-2.984c17.159 0 31.117 13.385 31.117 29.839 0 13.243-11.941 23.978-26.672 23.978h-97.8c-14.73 0-26.672-10.735-26.672-23.978.003-16.454 13.962-29.839 31.121-29.839z" fill="#5ca8f1"/><path d="m491.622 259.677c-18.463 3.118-77.527 9.672-122.446-8.232a8 8 0 1 1 5.915-14.866c23.818 9.511 58.745 11.749 85.04 10.71 0 0 22.06 7.194 31.491 12.388z" fill="#8bd8f9"/><path d="m291.488 302.278-31.488 29.573v-32.29c10.628.959 21.1 1.839 31.488 2.717z" fill="#ef4052"/><path d="m303.158 204.289c-13.748-.639-28.054-.879-43.16-.719v-47.476z" fill="#ef4052"/><path d="m259.998 228.027h8.153v15.985h-8.153z" fill="#8bd8f9"/><path d="m284.159 228.027h15.985v15.985h-15.985z" fill="#8bd8f9"/><path d="m316.121 228.027h15.985v15.985h-15.985z" fill="#8bd8f9"/></svg>