<svg id="Layer_1" height="512" viewBox="0 0 520 520" width="512" xmlns="http://www.w3.org/2000/svg" data-name="Layer 1"><path d="m453.707 153.709a23.534 23.534 0 0 1 -23.42 23.577h-86.087a23.534 23.534 0 0 1 -23.5-23.577 30.567 30.567 0 0 1 8.068-20.836c6.526-7.044 15.761-9.708 23.263-8.3.231-.784-.439-24.645 20.679-32.037 22.609-7.97 43.589 10.8 41.749 34.7a25.353 25.353 0 0 1 20.679-1.41c10.814 3.915 18.569 14.959 18.569 27.883z" fill="#82bcf4"/><path d="m510.652 159.271a17.991 17.991 0 0 1 -17.937 18.015h-62.428a23.535 23.535 0 0 0 23.42-23.577c0-12.924-7.755-23.968-18.564-27.885a22.962 22.962 0 0 1 13.551-13.316c17.423-6.217 33.525 8.476 31.879 26.554a19.125 19.125 0 0 1 9.087-2.35c11.592 0 20.992 10.104 20.992 22.559z" fill="#6fabe6"/><path d="m30.293 75.71h2.992c0-10.32 6.228-19.858 15.828-23.085 17.27-5.806 33.348 7.839 31.927 25.224a20.792 20.792 0 0 1 9.1-2.139 21.194 21.194 0 0 1 20.942 21.39c0 9.492-8.038 17.187-17.953 17.187h-65.829c-9.915 0-17.953-7.7-17.953-17.187a21.2 21.2 0 0 1 20.946-21.39z" fill="#82bcf4"/><path d="m25.484 421.515h469.502v86.632h-469.502z" fill="#fc6"/><path d="m283.734 421.515h-258.25v-86.632h211.253z" fill="#fc6"/><path d="m494.986 334.883v86.632h-172.166l39.164-86.632z" fill="#fc6"/><path d="m494.986 271.829v63.054h-109.582l23.499-63.054z" fill="#fc6"/><path d="m213.238 334.883h-187.754v-86.709h140.835z" fill="#fc6"/><path d="m142.82 248.174h-117.336v-62.977h78.25z" fill="#fc6"/><g fill="#ffe79c"><path d="m72.414 460.9a15.651 15.651 0 0 1 15.651 15.651v31.619a0 0 0 0 1 0 0h-31.3a0 0 0 0 1 0 0v-31.615a15.651 15.651 0 0 1 15.649-15.655z"/><path d="m135.019 460.9a15.651 15.651 0 0 1 15.651 15.651v31.619a0 0 0 0 1 0 0h-31.3a0 0 0 0 1 0 0v-31.615a15.651 15.651 0 0 1 15.649-15.655z"/><path d="m197.625 460.9a15.651 15.651 0 0 1 15.651 15.651v31.619a0 0 0 0 1 0 0h-31.3a0 0 0 0 1 0 0v-31.615a15.651 15.651 0 0 1 15.649-15.655z"/><path d="m260.23 460.9a15.651 15.651 0 0 1 15.651 15.651v31.619a0 0 0 0 1 0 0h-31.3a0 0 0 0 1 0 0v-31.615a15.651 15.651 0 0 1 15.649-15.655z"/><path d="m322.836 460.9a15.651 15.651 0 0 1 15.651 15.651v31.619a0 0 0 0 1 0 0h-31.3a0 0 0 0 1 0 0v-31.615a15.651 15.651 0 0 1 15.649-15.655z"/><path d="m385.441 460.9a15.651 15.651 0 0 1 15.651 15.651v31.619a0 0 0 0 1 0 0h-31.3a0 0 0 0 1 0 0v-31.615a15.651 15.651 0 0 1 15.649-15.655z"/><path d="m448.046 460.9a15.651 15.651 0 0 1 15.654 15.655v31.615a0 0 0 0 1 0 0h-31.3a0 0 0 0 1 0 0v-31.615a15.651 15.651 0 0 1 15.646-15.655z"/><path d="m72.414 374.25a15.651 15.651 0 0 1 15.651 15.65v31.615a0 0 0 0 1 0 0h-31.3a0 0 0 0 1 0 0v-31.615a15.651 15.651 0 0 1 15.649-15.65z"/><path d="m135.019 374.25a15.651 15.651 0 0 1 15.652 15.65v31.615a0 0 0 0 1 0 0h-31.3a0 0 0 0 1 0 0v-31.615a15.651 15.651 0 0 1 15.648-15.65z"/><path d="m197.625 374.25a15.651 15.651 0 0 1 15.651 15.65v31.615a0 0 0 0 1 0 0h-31.3a0 0 0 0 1 0 0v-31.615a15.651 15.651 0 0 1 15.649-15.65z"/><path d="m385.441 374.25a15.651 15.651 0 0 1 15.651 15.65v31.615a0 0 0 0 1 0 0h-31.3a0 0 0 0 1 0 0v-31.615a15.651 15.651 0 0 1 15.649-15.65z"/><path d="m448.046 374.25a15.651 15.651 0 0 1 15.654 15.65v31.615a0 0 0 0 1 0 0h-31.3a0 0 0 0 1 0 0v-31.615a15.651 15.651 0 0 1 15.646-15.65z"/><path d="m72.414 287.6a15.651 15.651 0 0 1 15.651 15.651v31.615a0 0 0 0 1 0 0h-31.3a0 0 0 0 1 0 0v-31.619a15.651 15.651 0 0 1 15.649-15.647z"/><path d="m135.019 287.6a15.651 15.651 0 0 1 15.651 15.651v31.615a0 0 0 0 1 0 0h-31.3a0 0 0 0 1 0 0v-31.619a15.651 15.651 0 0 1 15.649-15.647z"/></g><path d="m424.559 295.471h15.666v15.758h-15.666z" fill="#f8834b"/><path d="m48.933 208.82h15.666v15.754h-15.666z" fill="#f8834b"/><path d="m455.868 295.471h15.666v15.758h-15.666z" fill="#f8834b"/><path d="m80.234 208.82h15.666v15.754h-15.666z" fill="#f8834b"/><path d="m174.137 256.039h-156.497a7.833 7.833 0 0 1 0-15.666h156.5a7.833 7.833 0 0 1 0 15.666z" fill="#f8834b"/><path d="m244.571 342.7h-226.931a7.833 7.833 0 0 1 0-15.666h226.931a7.833 7.833 0 0 1 0 15.666z" fill="#f8834b"/><path d="m502.819 342.7h-148.672a7.833 7.833 0 0 1 0-15.666h148.672a7.833 7.833 0 0 1 0 15.666z" fill="#f8834b"/><path d="m502.819 429.349h-485.179a7.833 7.833 0 1 1 0-15.666h485.179a7.833 7.833 0 0 1 0 15.666z" fill="#f8834b"/><path d="m502.819 516h-485.179a7.833 7.833 0 1 1 0-15.666h485.179a7.833 7.833 0 0 1 0 15.666z" fill="#f8834b"/><ellipse cx="260" cy="51.266" fill="#ffde76" rx="46.954" ry="47.266"/><path d="m453.707 153.709a23.534 23.534 0 0 1 -23.42 23.577h-86.087a23.534 23.534 0 0 1 -23.5-23.577 30.567 30.567 0 0 1 8.068-20.836c6.526-7.044 15.761-9.708 23.263-8.3.231-.784-.439-24.645 20.679-32.037 22.609-7.97 43.589 10.8 41.749 34.7a25.353 25.353 0 0 1 20.679-1.41c10.814 3.915 18.569 14.959 18.569 27.883z" fill="#5ca8f1"/><path d="m510.652 159.271a17.991 17.991 0 0 1 -17.937 18.015h-62.428a23.535 23.535 0 0 0 23.42-23.577c0-12.924-7.755-23.968-18.564-27.885a22.962 22.962 0 0 1 13.551-13.316c17.423-6.217 33.525 8.476 31.879 26.554a19.125 19.125 0 0 1 9.087-2.35c11.592 0 20.992 10.104 20.992 22.559z" fill="#4c97e0"/><path d="m260 421.515h234.986v86.632h-234.986z" fill="#ffbe3d"/><path d="m283.734 421.515h-23.734v-43.786l19.504 35.953z" fill="#ffbe3d"/><path d="m494.986 334.883v86.632h-172.166l39.164-86.632z" fill="#ffbe3d"/><path d="m494.986 271.829v63.054h-109.582l23.499-63.054z" fill="#ffbe3d"/><path d="m275.9 476.58v31.567h-15.9v-47.233h.235a15.662 15.662 0 0 1 15.665 15.666z" fill="#ffdd73"/><path d="m322.836 460.9a15.651 15.651 0 0 1 15.651 15.651v31.619a0 0 0 0 1 0 0h-31.3a0 0 0 0 1 0 0v-31.615a15.651 15.651 0 0 1 15.649-15.655z" fill="#ffdd73"/><path d="m385.441 460.9a15.651 15.651 0 0 1 15.651 15.651v31.619a0 0 0 0 1 0 0h-31.3a0 0 0 0 1 0 0v-31.615a15.651 15.651 0 0 1 15.649-15.655z" fill="#ffdd73"/><path d="m448.046 460.9a15.651 15.651 0 0 1 15.654 15.655v31.615a0 0 0 0 1 0 0h-31.3a0 0 0 0 1 0 0v-31.615a15.651 15.651 0 0 1 15.646-15.655z" fill="#ffdd73"/><path d="m385.441 374.25a15.651 15.651 0 0 1 15.651 15.65v31.615a0 0 0 0 1 0 0h-31.3a0 0 0 0 1 0 0v-31.615a15.651 15.651 0 0 1 15.649-15.65z" fill="#ffdd73"/><path d="m448.046 374.25a15.651 15.651 0 0 1 15.654 15.65v31.615a0 0 0 0 1 0 0h-31.3a0 0 0 0 1 0 0v-31.615a15.651 15.651 0 0 1 15.646-15.65z" fill="#ffdd73"/><path d="m424.559 295.471h15.666v15.758h-15.666z" fill="#f66824"/><path d="m455.868 295.471h15.666v15.758h-15.666z" fill="#f66824"/><path d="m502.819 342.7h-148.672a7.833 7.833 0 0 1 0-15.666h148.672a7.833 7.833 0 0 1 0 15.666z" fill="#f66824"/><path d="m510.652 421.515a7.856 7.856 0 0 1 -7.833 7.833h-242.819v-15.666h242.819a7.856 7.856 0 0 1 7.833 7.833z" fill="#f66824"/><path d="m510.652 508.147a7.805 7.805 0 0 1 -7.833 7.832h-242.819v-15.665h242.819a7.856 7.856 0 0 1 7.833 7.833z" fill="#f66824"/><path d="m307.154 51.255a47.136 47.136 0 0 1 -46.919 47.311h-.235v-94.543h.235a47.068 47.068 0 0 1 46.919 47.232z" fill="#ffd44d"/></svg>