<svg id="Layer_1" height="512" viewBox="0 0 520 520" width="512" xmlns="http://www.w3.org/2000/svg" data-name="Layer 1"><path d="m53.52 327.04a39.679 39.679 0 0 0 -19.68 76.88l432.64 110.8a39.679 39.679 0 1 1 19.68-76.88z" fill="#df8761"/><circle cx="43.705" cy="476.295" fill="#edb996" r="39.694"/><path d="m486.16 403.92-432.64 110.8a39.679 39.679 0 1 0 -19.68-76.88c642.634-164.55 219.76-56.276 432.64-110.8a39.679 39.679 0 0 1 19.68 76.88z" fill="#f29b75"/><circle cx="476.295" cy="476.295" fill="#edb996" r="39.694"/><path d="m57.2 492.289a8.011 8.011 0 0 1 -6.864-12.089 7.506 7.506 0 0 0 .82-5.789 8 8 0 0 1 15.5-4 23.471 23.471 0 0 1 -2.57 17.977 8 8 0 0 1 -6.886 3.901z" fill="#e7a273"/><path d="m462.8 492.3a8 8 0 0 1 -6.883-3.914 23.48 23.48 0 0 1 -2.57-17.977 8 8 0 0 1 15.5 4 7.585 7.585 0 0 0 .82 5.805 8.008 8.008 0 0 1 -6.867 12.086z" fill="#e7a273"/><path d="m326.32 136.56c-28.4 8.08-55.92 26.64-66.32 67.44-10.8-47.92-41.84-71.92-71.92-83.92-1.12-44.16 67.36-41.28 37.2-116.08 0 0 135.36 13.92 101.04 132.56z" fill="#fc6"/><path d="m384.88 252.32c28.72 91.04-52.8 167.68-124.88 167.68-93.36 0-171.28-74.8-140-168.8 8.8-26.24 16.56-72.96.96-143.2.4.24 33.12-1.52 67.12 12.08 30.08 12 61.12 36 71.92 83.92 10.4-40.8 37.92-59.36 66.32-67.44 38.8-10.88 79.28-1.92 80.64-2.56-46 18.4-33.36 82.48-22.08 118.32z" fill="#ffba55"/><path d="m260 332c-16-80-68.717-67.416-69.518-68 21.518 44 2.572 58.13-.468 71.6-10.014 44.4 28.086 84.4 69.986 84.4 40 0 76.112-41.1 62.444-83.849-6.444-20.151-13.465-58.943 9.556-68.151-2.119 1.094-56-8-72 64z" fill="#e74e12"/><g fill="#cc734c"><path d="m411.992 374.4a8 8 0 0 1 -2.187-15.7l56-16a8 8 0 0 1 4.39 15.391l-56 16a8.229 8.229 0 0 1 -2.203.309z"/><path d="m98.039 380.547-56.32-14.4a8 8 0 1 1 3.969-15.5l56.32 14.4a8 8 0 0 1 -3.969 15.5z"/><path d="m409.781 476.8-39.515-10.1a8 8 0 1 1 3.953-15.5l39.515 10.1a8 8 0 1 1 -3.953 15.5z"/><path d="m96.344 446.781a8.009 8.009 0 0 1 5.5-9.89l56-16a8 8 0 1 1 4.39 15.39l-56 16a8.008 8.008 0 0 1 -9.89-5.5z"/><path d="m164.305 462.2a8.009 8.009 0 0 1 5.5-9.89l56-16a8 8 0 1 1 4.39 15.39l-56 16a8.008 8.008 0 0 1 -9.89-5.5z"/><path d="m348.305 414.2a8.009 8.009 0 0 1 5.5-9.89l56-16a8 8 0 1 1 4.39 15.39l-56 16a8.008 8.008 0 0 1 -9.89-5.5z"/></g><path d="m437.84 466.48a39.636 39.636 0 0 0 28.64 48.24c-50.4-12.88-128.96-32.96-206.48-52.88v-81.92h.16c20.279 5.233 205.883 52.77 226 57.92a39.682 39.682 0 0 0 -48.32 28.64z" fill="#d86d3f"/><path d="m514.72 355.6a39.649 39.649 0 0 0 -48.24-28.56c-18.72 4.88-55.28 14.16-92.72 23.76-16.64 4.24-33.44 8.56-49.04 12.56-29.92 7.68-55.04 14.08-64.56 16.56h-.16v81.92c.56-.16 93.36-23.92 159.92-40.96 37.04-9.52 65.92-16.88 66.24-16.96a39.7 39.7 0 0 0 28.56-48.32z" fill="#ee8050"/><circle cx="476.295" cy="476.295" fill="#e7a273" r="39.694"/><path d="m462.8 492.3a8 8 0 0 1 -6.883-3.914 23.48 23.48 0 0 1 -2.57-17.977 8 8 0 0 1 15.5 4 7.585 7.585 0 0 0 .82 5.805 8.008 8.008 0 0 1 -6.867 12.086z" fill="#e18b50"/><path d="m326.32 136.56c-28.4 8.08-55.92 26.64-66.32 67.44v-191.68c37.44 13.12 89.04 45.76 66.32 124.24z" fill="#ffbe3d"/><path d="m384.88 252.32c26.7 84.55-44.536 165.133-121.52 167.6-1.12.08-2.24.08-3.36.08v-216c10.4-40.8 37.92-59.36 66.32-67.44 38.8-10.88 79.28-1.92 80.64-2.56-46 18.4-33.36 82.48-22.08 118.32z" fill="#ffa92c"/><path d="m322.48 336.16c13.064 40.959-19.815 81.457-59.12 83.76-1.12.08-2.24.08-3.36.08v-88c15.6-70.32 67.36-63.28 71.76-63.92-22.72 9.44-15.76 48-9.28 68.08z" fill="#c1410f"/><path d="m411.992 374.4a8 8 0 0 1 -2.187-15.7l56-16a8 8 0 0 1 4.39 15.391l-56 16a8.229 8.229 0 0 1 -2.203.309z" fill="#ba5e35"/><path d="m409.781 476.8-39.515-10.1a8 8 0 1 1 3.953-15.5l39.515 10.1a8 8 0 1 1 -3.953 15.5z" fill="#ba5e35"/><path d="m348.305 414.2a8.009 8.009 0 0 1 5.5-9.89l56-16a8 8 0 1 1 4.39 15.39l-56 16a8.008 8.008 0 0 1 -9.89-5.5z" fill="#ba5e35"/></svg>