<svg id="Layer_1" height="512" viewBox="0 0 520 520" width="512" xmlns="http://www.w3.org/2000/svg" data-name="Layer 1"><path d="m511.83 304.867c-15.109 85.574-72.894 156.219-149.113 189.592a256.029 256.029 0 0 1 -283.907-53.438c-90.583-90.593-97.4-231.841-27.759-328.945 33.814-49.033 91.016-88.776 156.073-102.476 90.236-18.879 175.676 11.6 233.59 69.6 56.077 55.994 86.636 137.751 71.116 225.667z" fill="#82bcf4"/><g fill="#b5e08c"><path d="m511.83 304.787-65.6-4.4c-13.165-.6-23.474-7.508-28.079-9.839-4.767-3.171-21.225-8.3-30.8-27.439a.611.611 0 0 0 -.16-.4c-5.691-12.256-5.8-22.258-4.24-31.919 7.853-39.213 8.448 12.458 17.12-77.036 1.19-15.463 6.724-21.161 40.638-74.557 56.082 55.997 86.641 137.674 71.121 225.59z"/><path d="m267.841 251.749a41.328 41.328 0 0 1 -40 30.959h-32.876a41.328 41.328 0 0 1 -37.039-22.959l-19.439-39.278a41.194 41.194 0 0 0 -21.279-19.839l-40.078-16.559c-15.549-6.565-19.739-17.989-25.519-24.88a41.028 41.028 0 0 1 -.56-47.117c33.684-48.846 90.786-88.731 156.073-102.476l.08.079-15.6 42.638a102.539 102.539 0 0 0 4.64 80.8l17.679 35.2a90.659 90.659 0 0 0 34.877 37.514 41.315 41.315 0 0 1 19.041 45.918z"/><path d="m370.557 470.7-7.92 23.76a255.925 255.925 0 0 1 -283.827-53.439l43.918-70.237a41.015 41.015 0 0 1 36.479-19.2l95.275 4.16a41.372 41.372 0 0 0 20.719-4.56 40.834 40.834 0 0 1 59.2 29.359l2.4 13.759c2.957 18.084 15.933 25.269 23.92 34.559a41.042 41.042 0 0 1 9.836 41.839z"/><path d="m348.558 141.035a29.79 29.79 0 0 1 -39.358 9.519l-13.84-7.68c-16.051-8.97-15.152-25.826-15.919-28.159-3.367-22.763 18.093-32.045 19.119-33.115 16.23-10.934 44.488-2.921 50 19.119 1.478 10.433 10.445 24.732-.002 40.316z"/><path d="m103.529 320.866c-11.745 15.713-29.765 8.511-31.759 8.56-14.944-3.05-18.936-16.248-19.839-17.439a25.842 25.842 0 0 1 .96-24.719c5.334-7.072 8.729-21.358 24.559-24.559a25.709 25.709 0 0 1 29.759 18.159l3.759 13.12c4.409 15.271-6.299 24.627-7.439 26.878z"/></g><path d="m511.83 304.787v.08a256.452 256.452 0 0 1 -149.113 189.592h-.08a255.4 255.4 0 0 1 -102.637 21.519v-511.978c70.077-.16 134.234 28.718 180.712 75.2 56.079 55.994 86.638 137.671 71.118 225.587z" fill="#5ca8f1"/><path d="m511.83 304.787-65.6-4.4c-13.165-.6-23.474-7.508-28.079-9.839-4.767-3.171-21.225-8.3-30.8-27.439a.611.611 0 0 0 -.16-.4c-5.691-12.256-5.8-22.258-4.24-31.919 7.853-39.213 8.448 12.458 17.12-77.036 1.19-15.463 6.724-21.161 40.638-74.557 56.082 55.997 86.641 137.674 71.121 225.59z" fill="#a0d76c"/><path d="m267.841 251.749a41.606 41.606 0 0 1 -7.839 15.6v-51.838a41.569 41.569 0 0 1 7.839 36.238z" fill="#a0d76c"/><path d="m370.557 470.7-7.92 23.76a255.4 255.4 0 0 1 -102.637 21.518v-160.393a39.159 39.159 0 0 0 15.2-4.4 40.834 40.834 0 0 1 59.2 29.359l2.4 13.759c2.96 18.079 15.92 25.279 23.92 34.559a41.042 41.042 0 0 1 9.837 41.838z" fill="#a0d76c"/><path d="m348.558 141.035a29.79 29.79 0 0 1 -39.358 9.519l-13.84-7.68c-16.051-8.97-15.152-25.826-15.919-28.159-3.367-22.763 18.093-32.045 19.119-33.115 16.23-10.934 44.488-2.921 50 19.119 1.478 10.433 10.445 24.732-.002 40.316z" fill="#a0d76c"/></svg>