<svg id="Layer_1" height="512" viewBox="0 0 520 520" width="512" xmlns="http://www.w3.org/2000/svg" data-name="Layer 1"><path d="m211.062 236.145a8 8 0 0 1 -8-8v-15.93a7.935 7.935 0 0 0 -7.93-7.926h-63.71a7.935 7.935 0 0 0 -7.93 7.926v15.93a8 8 0 0 1 -16 0v-15.93a23.956 23.956 0 0 1 23.93-23.926h63.711a23.955 23.955 0 0 1 23.929 23.926v15.93a8 8 0 0 1 -8 8z" fill="#425b72"/><ellipse cx="461.504" cy="492.192" fill="#919191" rx="23.368" ry="22.653"/><ellipse cx="321.322" cy="492.192" fill="#919191" rx="23.368" ry="22.653"/><path d="m344.664 163.2a8 8 0 0 1 -8-8v-109.6a8 8 0 1 1 16 0v109.6a8 8 0 0 1 -8 8z" fill="#919191"/><path d="m438.133 163.2a8 8 0 0 1 -8-8v-109.6a8 8 0 1 1 16 0v109.6a8 8 0 0 1 -8 8z" fill="#919191"/><path d="m516 308.72c0 32.08-1.12 64.24-3.36 96.24l-1.52 22.32c-1.6 35.12-22 42.24-46.56 42.24h-146.24c-24.56 0-44.96-7.12-46.56-42.24l-1.52-22.32c-2.24-32-3.36-64.16-3.36-96.24q0-57.24 4.72-114.24c1.68-23.68 22-42.08 46.56-42.08h146.56c24.56 0 44.88 18.4 46.56 42.08q4.68 57 4.72 114.24z" fill="#f26674"/><g fill="#edebf2"><path d="m461.5 205.7h-140.2a8 8 0 0 1 0-16h140.2a8 8 0 0 1 0 16z"/><path d="m461.5 262.336h-140.2a8 8 0 0 1 0-16h140.2a8 8 0 0 1 0 16z"/><path d="m461.5 318.969h-140.2a8 8 0 0 1 0-16h140.2a8 8 0 0 1 0 16z"/><path d="m461.5 375.6h-140.2a8 8 0 0 1 0-16h140.2a8 8 0 0 1 0 16z"/><path d="m461.523 432.219h-138.968a8 8 0 0 1 0-16h138.968a8 8 0 0 1 0 16z"/></g><rect fill="#425b72" height="45.306" rx="15.928" width="140.207" x="321.297" y="5.155"/><path d="m75.675 228.144h167.242a39.82 39.82 0 0 1 39.82 39.82v215.026a31.856 31.856 0 0 1 -31.856 31.856h-175.206a31.856 31.856 0 0 1 -31.855-31.856v-222.99a31.856 31.856 0 0 1 31.855-31.856z" fill="#82bcf4"/><path d="m43.82 347.6h238.917a0 0 0 0 1 0 0v135.39a31.856 31.856 0 0 1 -31.856 31.856h-175.206a31.856 31.856 0 0 1 -31.855-31.856v-135.39a0 0 0 0 1 0 0z" fill="#5b9ad8"/><path d="m91.6 260h143.35a15.928 15.928 0 0 1 15.928 15.928v71.672a0 0 0 0 1 0 0h-175.203a0 0 0 0 1 0 0v-71.672a15.928 15.928 0 0 1 15.925-15.928z" fill="#edebf2"/><path d="m20 395.387h23.82a0 0 0 0 1 0 0v87.6a0 0 0 0 1 0 0h-23.82a16 16 0 0 1 -16-16v-55.6a16 16 0 0 1 16-16z" fill="#dad7e5"/><path d="m306.557 482.99h-23.82v-87.6h23.892a15.974 15.974 0 0 1 15.928 15.927v55.724a15.96 15.96 0 0 1 -16 15.949z" fill="#dad7e5"/><path d="m250.883 379.422h-175.211a8 8 0 0 0 0 16h7.928v7.93a8 8 0 0 0 16 0v-7.93h151.283a8 8 0 0 0 0-16z" fill="#425b72"/><path d="m107.531 299.859h7.93v7.922a8 8 0 0 0 16 0v-7.922h87.562a8 8 0 0 0 0-16h-111.492a8 8 0 0 0 0 16z" fill="#425b72"/><path d="m83.639 427.242h159.278a0 0 0 0 1 0 0v39.82a15.928 15.928 0 0 1 -15.927 15.928h-127.423a15.928 15.928 0 0 1 -15.928-15.928v-39.82a0 0 0 0 1 0 0z" fill="#ffde76"/><ellipse cx="461.504" cy="492.192" fill="#7d7d7d" rx="23.368" ry="22.653"/><path d="m446.16 45.6v109.6a8 8 0 0 1 -16 0v-109.6a8 8 0 0 1 16 0z" fill="#7d7d7d"/><path d="m516 308.72c0 32.08-1.12 64.24-3.36 96.24l-1.52 22.32c-1.6 35.12-22 42.24-46.56 42.24h-73.12v-317.12h73.28c24.56 0 44.88 18.4 46.56 42.08q4.68 57 4.72 114.24z" fill="#ef4052"/><path d="m469.52 197.68a7.972 7.972 0 0 1 -8 8h-70.08v-16h70.08a8.024 8.024 0 0 1 8 8z" fill="#d7d2e2"/><path d="m469.52 254.32a8.024 8.024 0 0 1 -8 8h-70.08v-16h70.08a8.024 8.024 0 0 1 8 8z" fill="#d7d2e2"/><path d="m469.52 310.96a8.024 8.024 0 0 1 -8 8h-70.08v-16h70.08a8.024 8.024 0 0 1 8 8z" fill="#d7d2e2"/><path d="m469.52 367.6a8.024 8.024 0 0 1 -8 8h-70.08v-16h70.08a8.024 8.024 0 0 1 8 8z" fill="#d7d2e2"/><path d="m469.52 424.24a8.024 8.024 0 0 1 -8 8h-70.08v-16h70.08a7.972 7.972 0 0 1 8 8z" fill="#d7d2e2"/><path d="m461.52 21.12v13.44a15.9 15.9 0 0 1 -15.36 15.92h-54.72v-45.36h54.16a15.979 15.979 0 0 1 15.92 16z" fill="#334658"/><path d="m219.04 212.24v15.92a8 8 0 0 1 -16 0v-15.92a7.887 7.887 0 0 0 -7.92-7.92h-31.84v-16h31.84a23.934 23.934 0 0 1 23.92 23.92z" fill="#334658"/><path d="m282.72 268v214.96a31.889 31.889 0 0 1 -31.84 31.92h-87.6v-286.72h79.6a39.868 39.868 0 0 1 39.84 39.84z" fill="#5ca8f1"/><path d="m282.72 347.6v135.36a31.889 31.889 0 0 1 -31.84 31.92h-87.6v-167.28z" fill="#3a86d0"/><path d="m250.88 275.92v71.68h-87.6v-87.6h71.68a15.91 15.91 0 0 1 15.92 15.92z" fill="#d7d2e2"/><path d="m306.557 482.99h-23.82v-87.6h23.892a15.974 15.974 0 0 1 15.928 15.927v55.724a15.96 15.96 0 0 1 -16 15.949z" fill="#c3bed5"/><path d="m258.88 387.44a8.024 8.024 0 0 1 -8 8h-87.6v-16h87.6a8.024 8.024 0 0 1 8 8z" fill="#334658"/><path d="m227.04 291.84a7.972 7.972 0 0 1 -8 8h-55.76v-16h55.76a8.024 8.024 0 0 1 8 8z" fill="#334658"/><path d="m242.88 427.28v39.76a15.91 15.91 0 0 1 -15.92 15.92h-63.68v-55.68z" fill="#ffd44d"/></svg>