<svg id="Layer_1" height="512" viewBox="0 0 520 520" width="512" xmlns="http://www.w3.org/2000/svg" data-name="Layer 1"><path d="m20 308a16 16 0 0 0 -16 16v24a16 16 0 0 0 16 16 16 16 0 0 1 16 16v40h403.44l1.6-.8a119.983 119.983 0 0 0 74.96-111.2z" fill="#f26674"/><path d="m516 452v48c-32 0-32 16-64 16-32.08 0-32.08-16-64.08-16s-32 16-64 16-32-16-64-16-32 16-64 16-32-16-64-16c-31.92 0-31.92 16-63.92 16s-32-16-64-16v-48c32 0 32 16 64 16s32-16 63.92-16c32 0 32 16 64 16s32-16 64-16 32 16 64 16 32-16 64-16 32 16 64.08 16c32 0 32-16 64-16z" fill="#5b9ad8"/><path d="m516 404v48c-32 0-32 16-64 16-32.08 0-32.08-16-64.08-16s-32 16-64 16-32-16-64-16-32 16-64 16-32-16-64-16c-31.92 0-31.92 16-63.92 16s-32-16-64-16v-48c32 0 32 16 64 16s32-16 63.92-16c32 0 32 16 64 16s32-16 64-16 32 16 64 16 32-16 64-16 32 16 64.08 16c32 0 32-16 64-16z" fill="#82bcf4"/><path d="m432.223 244h-355.238a32 32 0 0 0 -31.045 24.239l-9.94 39.761h448l-23.155-46.311a32 32 0 0 0 -28.622-17.689z" fill="#dad7e5"/><path d="m428 244h-352v-64a31.991 31.991 0 0 1 32-32h186.8a140.537 140.537 0 0 1 82.08 26.48c2.48 1.76 4.8 3.6 7.12 5.52h-95.2a7.989 7.989 0 0 0 -8.08 8c0 7.066 13.548 24 33.92 24h97.92a140.778 140.778 0 0 1 15.44 32z" fill="#edebf2"/><path d="m412.56 212h-97.92c-20.346 0-33.92-17.132-33.92-24a7.989 7.989 0 0 1 8.08-8h95.2a139.827 139.827 0 0 1 28.56 32z" fill="#425b72"/><path d="m172 148h-64v-144l64 24z" fill="#dad7e5"/><path d="m276 148h-64v-144l64 24z" fill="#dad7e5"/><path d="m108 60h64v48h-64z" fill="#f26674"/><path d="m212 60h64v48h-64z" fill="#f26674"/><g fill="#425b72"><path d="m108 172h16v16h-16z"/><path d="m140 172h16v16h-16z"/><path d="m172 172h16v16h-16z"/><path d="m204 172h16v16h-16z"/><path d="m236 172h16v16h-16z"/><path d="m108 204h16v16h-16z"/><path d="m140 204h16v16h-16z"/><path d="m172 204h16v16h-16z"/><path d="m204 204h16v16h-16z"/><path d="m236 204h16v16h-16z"/><path d="m92 284h-7.7a8 8 0 1 1 0-16h7.7a8 8 0 0 1 0 16z"/><path d="m132 284h-7.7a8 8 0 1 1 0-16h7.7a8 8 0 0 1 0 16z"/><path d="m172 284h-7.7a8 8 0 0 1 0-16h7.7a8 8 0 0 1 0 16z"/><path d="m212 284h-7.7a8 8 0 0 1 0-16h7.7a8 8 0 0 1 0 16z"/><path d="m252 284h-7.7a8 8 0 1 1 0-16h7.7a8 8 0 0 1 0 16z"/><path d="m292 284h-7.7a8 8 0 1 1 0-16h7.7a8 8 0 0 1 0 16z"/><path d="m332 284h-7.7a8 8 0 1 1 0-16h7.7a8 8 0 0 1 0 16z"/><path d="m372.113 284h-7.906a8 8 0 0 1 0-16h7.906a8 8 0 1 1 0 16z"/><path d="m412.113 284h-7.906a8 8 0 0 1 0-16h7.906a8 8 0 1 1 0 16z"/><circle cx="92" cy="356" r="16"/><circle cx="172" cy="356" r="16"/><circle cx="252" cy="356" r="16"/><circle cx="332" cy="356" r="16"/><circle cx="412" cy="356" r="16"/></g><path d="m516 308a119.983 119.983 0 0 1 -74.96 111.2h-.08l-1.52.8h-179.44v-112z" fill="#ef4052"/><path d="m516 452v48c-32 0-32 16-64 16-32.08 0-32.08-16-64.08-16s-32 16-64 16-32-16-63.92-16v-48c31.92 0 31.92 16 63.92 16s32-16 64-16 32 16 64.08 16c32 0 32-16 64-16z" fill="#3a86d0"/><path d="m516 404v48c-32 0-32 16-64 16-32.08 0-32.08-16-64.08-16s-32 16-64 16-32-16-63.92-16v-48c31.92 0 31.92 16 63.92 16s32-16 64-16c27.84 0 31.44 12.08 53.04 15.2h.08a63.926 63.926 0 0 0 10.96.8c32 0 32-16 64-16z" fill="#5ca8f1"/><path d="m484 308h-224v-64h172.24a32.162 32.162 0 0 1 28.64 17.68z" fill="#c3bed5"/><path d="m428 244h-168v-96h34.8a140.284 140.284 0 0 1 89.2 32h-95.2a7.989 7.989 0 0 0 -8.08 8c0 8.214 14.054 22.171 30.72 23.84 3.257.251 6.906.085 101.12.16a140.778 140.778 0 0 1 15.44 32z" fill="#d7d2e2"/><path d="m412.56 212h-97.92c-20.346 0-33.92-17.132-33.92-24a7.989 7.989 0 0 1 8.08-8h95.2a139.827 139.827 0 0 1 28.56 32z" fill="#334658"/><path d="m276 28v120h-16v-126z" fill="#c3bed5"/><path d="m260 60h16v48h-16z" fill="#ef4052"/><path d="m292 284h-7.7a8 8 0 1 1 0-16h7.7a8 8 0 0 1 0 16z" fill="#334658"/><path d="m332 284h-7.7a8 8 0 1 1 0-16h7.7a8 8 0 0 1 0 16z" fill="#334658"/><path d="m372.113 284h-7.906a8 8 0 0 1 0-16h7.906a8 8 0 1 1 0 16z" fill="#334658"/><path d="m412.113 284h-7.906a8 8 0 0 1 0-16h7.906a8 8 0 1 1 0 16z" fill="#334658"/><path d="m268 356a15.969 15.969 0 0 1 -8 13.84v-27.68a15.969 15.969 0 0 1 8 13.84z" fill="#334658"/><circle cx="332" cy="356" fill="#334658" r="16"/><circle cx="412" cy="356" fill="#334658" r="16"/></svg>