<svg id="Layer_1" height="512" viewBox="0 0 520 520" width="512" xmlns="http://www.w3.org/2000/svg" data-name="Layer 1"><path d="m477.134 399.626h-465.376v-147.394h278.108a283.146 283.146 0 0 1 113.261 23.738 293.491 293.491 0 0 1 29.091 15.05c33.823 19.859 60.742 43.675 68.267 54.3 17.454 20.793 3.646 54.306-23.351 54.306z" fill="#f26674"/><path d="m301.968 112.6c0 13.352-12.22 23.272-25.832 23.272h-94.953c-14.352 0-25.91-10.395-25.91-23.272a28.5 28.5 0 0 1 8.843-20.481 31.04 31.04 0 0 1 21.334-8.456h4.344a32.822 32.822 0 0 1 22.806-31.263c24.54-7.758 47.936 10.03 46.08 34.133a30.944 30.944 0 0 1 22.652-1.319c11.948 3.798 20.636 14.586 20.636 27.386z" fill="#82bcf4"/><path d="m364.727 118.1c0 9.623-8.754 17.765-19.781 17.765h-68.81c13.626 0 25.832-9.93 25.832-23.272 0-12.8-8.688-23.584-20.635-27.385a24.745 24.745 0 0 1 15.05-13.188c19.308-6.11 36.984 8.507 35.219 26.144a23.937 23.937 0 0 1 10.008-2.25c12.8.003 23.117 9.932 23.117 22.186z" fill="#6daae4"/><path d="m500.485 345.323h-96.271a83.356 83.356 0 0 1 -40.03-10.318 98.221 98.221 0 0 1 -32.5-29.168c-4.267-5.9-.621-14.817 5.9-14.817h94.642c33.815 19.859 60.734 43.68 68.259 54.303z" fill="#9fdbf3"/><path d="m291.029 345.323h-69.818v-54.3h3.181a83.351 83.351 0 0 1 40.029 10.317 98.221 98.221 0 0 1 32.5 29.168c4.271 5.892.625 14.815-5.892 14.815z" fill="#b2e5fb"/><path d="m11.758 291.02h69.818v54.303h-69.818z" fill="#b2e5fb"/><path d="m81.576 291.02h77.576v54.303h-77.576z" fill="#9fdbf3"/><path d="m159.151 291.02h62.06v108.606h-62.06z" fill="#edebf2"/><path d="m11.758 438.413h496.483v31.03h-496.483z" fill="#606161"/><path d="m112.45 399.625c-1.163 21.644-18.074 38.788-38.632 38.788s-37.469-17.144-38.632-38.788z" fill="#425b72"/><path d="m376.207 399.625c-1.163 21.644-18.075 38.788-38.632 38.788s-37.469-17.144-38.633-38.788z" fill="#425b72"/><path d="m197.939 353.08a7.755 7.755 0 0 1 -7.757-7.757v-7.758a7.758 7.758 0 0 1 15.515 0v7.758a7.755 7.755 0 0 1 -7.758 7.757z" fill="#425b72"/><g fill="#edebf2"><path d="m508.242 135.868h-108.606a7.758 7.758 0 0 1 0-15.515h108.606a7.758 7.758 0 1 1 0 15.515z"/><path d="m120.364 120.353h-108.606a7.758 7.758 0 1 1 0-15.515h108.606a7.758 7.758 0 0 1 0 15.515z"/><path d="m112.606 213.444h-100.848a7.758 7.758 0 1 1 0-15.515h100.848a7.758 7.758 0 1 1 0 15.515z"/><path d="m508.242 221.2h-217.212a7.758 7.758 0 0 1 0-15.516h217.212a7.758 7.758 0 0 1 0 15.516z"/><path d="m252.242 182.414h-116.363a7.758 7.758 0 1 1 0-15.515h116.363a7.758 7.758 0 1 1 0 15.515z"/></g><path d="m477.134 399.626h-217.134v-147.394h29.866a280.082 280.082 0 0 1 142.352 38.788c33.823 19.859 60.742 43.675 68.267 54.3 17.454 20.793 3.646 54.306-23.351 54.306z" fill="#ef4052"/><path d="m301.968 112.6c0 13.342-12.179 23.272-25.832 23.272h-16.136v-49.8a30.794 30.794 0 0 1 21.333-.853c11.947 3.793 20.635 14.581 20.635 27.381z" fill="#5ca8f1"/><path d="m364.727 118.1c0 9.623-8.754 17.765-19.781 17.765h-68.81c13.626 0 25.832-9.93 25.832-23.272 0-12.8-8.688-23.584-20.635-27.385a24.745 24.745 0 0 1 15.05-13.188c19.308-6.11 36.984 8.507 35.219 26.144a23.937 23.937 0 0 1 10.008-2.25c12.8.003 23.117 9.932 23.117 22.186z" fill="#4b96de"/><path d="m500.485 345.323h-96.271a83.356 83.356 0 0 1 -40.03-10.318 98.221 98.221 0 0 1 -32.5-29.168c-4.267-5.9-.621-14.817 5.9-14.817h94.642c33.815 19.859 60.734 43.68 68.259 54.303z" fill="#7bcdee"/><path d="m291.03 345.323h-31.03v-46.236c1.474.7 2.948 1.474 4.422 2.25a98.224 98.224 0 0 1 32.5 29.169c4.271 5.894.625 14.817-5.892 14.817z" fill="#8bd8f9"/><path d="m260 438.414h248.242v31.03h-248.242z" fill="#4c4c4c"/><path d="m376.207 399.625c-1.163 21.644-18.075 38.788-38.632 38.788s-37.469-17.144-38.633-38.788z" fill="#334658"/><path d="m508.242 135.868h-108.606a7.758 7.758 0 0 1 0-15.515h108.606a7.758 7.758 0 1 1 0 15.515z" fill="#d7d2e2"/><path d="m508.242 221.2h-217.212a7.758 7.758 0 0 1 0-15.516h217.212a7.758 7.758 0 0 1 0 15.516z" fill="#d7d2e2"/></svg>