<svg id="Layer_1" height="512" viewBox="0 0 520 520" width="512" xmlns="http://www.w3.org/2000/svg" data-name="Layer 1"><path d="m322.059 4h-23.272a7.752 7.752 0 0 0 -6.663 3.788l-32.124 53.921-32.124-53.921a7.752 7.752 0 0 0 -6.663-3.788h-23.272a7.758 7.758 0 1 0 0 15.515h18.859l36.533 61.317a7.84 7.84 0 0 0 6.655 3.788h.016a8.178 8.178 0 0 0 6.655-3.788l36.541-61.317h18.863a7.758 7.758 0 1 0 0-15.515z" fill="#425b72"/><path d="m360.3 505.44c-4.576-11.87-28.469-74.162-37.7-98.054-1.4-3.724-2.482-6.517-3.1-8.068a7.772 7.772 0 1 0 -14.506 5.585l.931 2.483 12.024 31.029h-121.4l9.542-31.029.931-3.026a7.791 7.791 0 0 0 -14.894-4.577l-2.328 7.6-30.331 98.6a7.849 7.849 0 0 0 5.2 9.7 7.155 7.155 0 0 0 2.249.311 7.868 7.868 0 0 0 7.447-5.508l5.43-17.765h159.02l7.06 18.308a7.677 7.677 0 0 0 7.214 4.965 7.155 7.155 0 0 0 2.793-.544 7.707 7.707 0 0 0 4.418-10.01zm-175.7-28.24 7.137-23.272h132.184l8.921 23.272z" fill="#919191"/><path d="m134.385 221.246h-21.776a23.3 23.3 0 0 1 -23.272-23.273 7.758 7.758 0 0 1 15.515-.038 7.773 7.773 0 0 0 7.757 7.8h21.776a7.758 7.758 0 1 1 0 15.515z" fill="#425b72"/><path d="m407.391 221.246h-22.216a7.758 7.758 0 0 1 0-15.515h22.216a7.765 7.765 0 0 0 7.757-7.758 7.758 7.758 0 0 1 15.515-.038 23.306 23.306 0 0 1 -23.272 23.311z" fill="#425b72"/><path d="m389.161 297.463-10.7 82.927c-2.017 15.437-15.437 27-31.34 27h-174.237c-15.9 0-29.323-11.559-31.34-27l-10.705-82.927a324.785 324.785 0 0 1 -.62-78.582l9.076-80.135a31.1 31.1 0 0 1 21.41-25.91 318.963 318.963 0 0 1 76.721-14.894 292.3 292.3 0 0 1 45.148 0 318.963 318.963 0 0 1 76.726 14.894 31.117 31.117 0 0 1 21.41 25.91l9.076 80.135a324.785 324.785 0 0 1 -.625 78.582z" fill="#f26674"/><path d="m328.817 267.752h-137.634a15.514 15.514 0 0 1 -15.483-16.482l6.32-101.131a9.359 9.359 0 0 1 6.65-8.379 248.248 248.248 0 0 1 142.66 0 9.359 9.359 0 0 1 6.65 8.379l6.32 101.131a15.514 15.514 0 0 1 -15.483 16.482z" fill="#b2e5fb"/><path d="m282.574 97.942a292.3 292.3 0 0 0 -45.148 0l7.059-31.883h31.03z" fill="#425b72"/><g fill="#ffde76"><circle cx="190.183" cy="322.054" r="15.515"/><circle cx="260" cy="322.054" r="15.515"/><circle cx="329.817" cy="322.054" r="15.515"/></g><path d="m89.337 159.148h15.515a7.757 7.757 0 0 1 7.757 7.757v15.515a15.515 15.515 0 0 1 -15.515 15.515 15.515 15.515 0 0 1 -15.515-15.515v-15.514a7.757 7.757 0 0 1 7.758-7.758z" fill="#ffba55"/><path d="m422.906 159.148a15.515 15.515 0 0 1 15.515 15.515v15.515a7.757 7.757 0 0 1 -7.757 7.757h-15.516a7.757 7.757 0 0 1 -7.757-7.757v-15.515a15.515 15.515 0 0 1 15.515-15.515z" fill="#ffba55" transform="matrix(-1 0 0 -1 845.812 357.084)"/><path d="m298.787 376.356h-77.574a7.758 7.758 0 1 1 0-15.515h77.574a7.758 7.758 0 1 1 0 15.515z" fill="#edebf2"/><path d="m221.6 192.451a7.756 7.756 0 0 1 0-10.97l21.943-21.939a7.757 7.757 0 1 1 10.969 10.97l-21.942 21.939a7.756 7.756 0 0 1 -10.97 0z" fill="#8bd1ea"/><path d="m265.485 236.329a7.754 7.754 0 0 1 0-10.97l21.942-21.939a7.757 7.757 0 1 1 10.97 10.97l-21.943 21.939a7.754 7.754 0 0 1 -10.969 0z" fill="#8bd1ea"/><path d="m232.573 225.359a7.753 7.753 0 0 1 0-10.969l43.885-43.878a7.756 7.756 0 0 1 10.969 10.969l-43.885 43.878a7.754 7.754 0 0 1 -10.969 0z" fill="#8bd1ea"/><path d="m329.817 11.757a7.781 7.781 0 0 1 -7.758 7.758h-18.85l-27.694 46.544h-.078l-8.766 14.741a8.181 8.181 0 0 1 -6.671 3.8v-22.885l32.116-53.915a7.848 7.848 0 0 1 6.671-3.8h23.272a7.78 7.78 0 0 1 7.758 7.757z" fill="#334658"/><path d="m360.3 505.44c-1.861-4.888-28.469-74.084-37.7-98.054-1.784-4.655-2.947-7.6-3.1-8.068a7.772 7.772 0 1 0 -14.506 5.585c.078.156.388 1.009.931 2.483 2.948 7.447 11.4 29.4 12.024 31.029h-57.949v15.515h63.921l8.921 23.272h-72.842v15.515h78.815l7.06 18.308a7.736 7.736 0 0 0 14.425-5.585z" fill="#7d7d7d"/><path d="m407.391 221.246h-22.216a7.758 7.758 0 0 1 0-15.515h22.216a7.765 7.765 0 0 0 7.757-7.758 7.758 7.758 0 0 1 15.515-.038 23.306 23.306 0 0 1 -23.272 23.311z" fill="#334658"/><path d="m389.161 297.463-10.7 82.927c-2.017 15.437-15.437 27-31.34 27h-87.121v-310.301c7.524 0 15.049.31 22.574.853a318.963 318.963 0 0 1 76.726 14.894 31.117 31.117 0 0 1 21.41 25.91l7.6 66.947c1.353 12.248 1.264 11.1 1.706 15.515a321.472 321.472 0 0 1 -.855 76.255z" fill="#ef4052"/><path d="m344.323 251.306a15.54 15.54 0 0 1 -15.515 16.446h-68.808v-136.452a248.35 248.35 0 0 1 71.368 10.473 9.231 9.231 0 0 1 6.594 8.377z" fill="#8bd8f9"/><path d="m282.574 97.942c-7.525-.543-15.05-.853-22.574-.853v-31.03h15.515z" fill="#334658"/><path d="m275.515 322.054a15.561 15.561 0 0 1 -15.515 15.515v-31.03a15.561 15.561 0 0 1 15.515 15.515z" fill="#ffd44d"/><circle cx="329.817" cy="322.054" fill="#ffd44d" r="15.515"/><path d="m422.906 159.148a15.515 15.515 0 0 1 15.515 15.515v15.515a7.757 7.757 0 0 1 -7.757 7.757h-15.516a7.757 7.757 0 0 1 -7.757-7.757v-15.515a15.515 15.515 0 0 1 15.515-15.515z" fill="#ffa92c" transform="matrix(-1 0 0 -1 845.812 357.084)"/><path d="m306.545 368.6a7.78 7.78 0 0 1 -7.758 7.757h-38.787v-15.516h38.787a7.781 7.781 0 0 1 7.758 7.759z" fill="#d7d2e2"/><path d="m265.485 236.329a7.754 7.754 0 0 1 0-10.97l21.942-21.939a7.757 7.757 0 1 1 10.97 10.97l-21.943 21.939a7.754 7.754 0 0 1 -10.969 0z" fill="#68c3e4"/><path d="m287.461 181.49-27.461 27.461v-22.031l16.446-16.446a7.789 7.789 0 0 1 11.015 11.016z" fill="#68c3e4"/></svg>