<svg id="Layer_1" height="512" viewBox="0 0 520 520" width="512" xmlns="http://www.w3.org/2000/svg" data-name="Layer 1"><rect fill="#edebf2" height="424" rx="32" width="512" x="4" y="92"/><path d="m468 124h-416c-8.836 0-16 9.551-16 21.333v322.667a16.047 16.047 0 0 0 16 16h416a16.047 16.047 0 0 0 16-16v-322.667c0-11.782-7.164-21.333-16-21.333z" fill="#f26674"/><path d="m4 220h512v32h-512z" fill="#edebf2"/><g fill="#425b72"><path d="m117.52 276h-3.04a16 16 0 0 1 -15.921-14.408l-6.559-65.592h48l-6.559 65.592a16 16 0 0 1 -15.921 14.408z"/><path d="m428 196-2.4 24-3.2 32-.96 9.6a15.981 15.981 0 0 1 -15.92 14.4h-3.04a15.981 15.981 0 0 1 -15.92-14.4l-.96-9.6-3.2-32-2.4-24z"/><path d="m364 52v40h-32v-40a16.047 16.047 0 0 0 -16-16h-112a16.047 16.047 0 0 0 -16 16v40h-32v-40a48.038 48.038 0 0 1 48-48h112a48.038 48.038 0 0 1 48 48z"/></g><path d="m316 352h-40v-40h-32v40h-40v32h40v40h32v-40h40z" fill="#edebf2"/><path d="m516 124v360a31.991 31.991 0 0 1 -32 32h-224v-424h224a31.991 31.991 0 0 1 32 32z" fill="#d7d2e2"/><path d="m484 145.36v322.64a16.047 16.047 0 0 1 -16 16h-208v-360h208c8.8 0 16 9.52 16 21.36z" fill="#ef4052"/><path d="m260 220h256v32h-256z" fill="#d7d2e2"/><path d="m428 196-2.4 24-3.2 32-.96 9.6a15.981 15.981 0 0 1 -15.92 14.4h-3.04a15.981 15.981 0 0 1 -15.92-14.4l-.96-9.6-3.2-32-2.4-24z" fill="#334658"/><path d="m364 52v40h-32v-40a16.047 16.047 0 0 0 -16-16h-56v-32h56a48.038 48.038 0 0 1 48 48z" fill="#334658"/><path d="m316 352v32h-40v40h-16v-112h16v40z" fill="#d7d2e2"/></svg>