<svg id="Layer_1" height="512" viewBox="0 0 520 520" width="512" xmlns="http://www.w3.org/2000/svg" data-name="Layer 1"><path d="m233.516 423.85-7.289-56.487a7.571 7.571 0 0 1 6.988-8.268c4.355-.457 8.375 2.425 8.894 6.5l7.289 56.487a7.571 7.571 0 0 1 -6.988 8.268c-4.352.484-8.368-2.399-8.894-6.5z" fill="#919191"/><path d="m278.059 430.347a7.572 7.572 0 0 1 -6.989-8.268l7.289-56.487c.524-4.079 4.532-6.961 8.9-6.5a7.571 7.571 0 0 1 6.988 8.268l-7.289 56.487c-.531 4.104-4.546 6.987-8.899 6.5z" fill="#919191"/><path d="m412.08 160.078c0 122.892-87.08 108.665-110.24 199.759a16.11 16.11 0 0 1 -7.92 10.241 15.859 15.859 0 0 1 -7.52 1.84h-52.32a15.859 15.859 0 0 1 -7.52-1.84 16.485 16.485 0 0 1 -8-10.241c-20.331-80.737-110.16-87.151-110.16-199.759 0-81.361 60.8-148.16 138.24-155.2 4.48-.4 9.04-.641 13.6-.641s9.04.241 13.52.641a148.665 148.665 0 0 1 80.24 32.64v.08a155.357 155.357 0 0 1 42.96 54.559 159.1 159.1 0 0 1 15.12 67.921z" fill="#f26674"/><path d="m457.92 68.157a24.057 24.057 0 0 1 -24 24h-36.96a155.357 155.357 0 0 0 -42.96-54.557v-.08c.32-14.08 8.56-26.96 21.12-31.361 22.931-8.083 44.522 10.748 42.64 35.2a27.284 27.284 0 0 1 12.16-2.96 25.321 25.321 0 0 1 8.88 1.601c11.12 3.837 19.12 14.958 19.12 28.157z" fill="#82bcf4"/><path d="m516 73.837a18.368 18.368 0 0 1 -18.32 18.32h-63.76a24.056 24.056 0 0 0 24-24c0-13.2-8-24.32-19.12-28.159a23.8 23.8 0 0 1 13.92-13.6c17.912-6.308 34.358 8.922 32.56 26.879a20.434 20.434 0 0 1 9.28-2.319c11.84 0 21.44 10.242 21.44 22.879z" fill="#6daae4"/><g fill="#82bcf4"><path d="m395.975 461.945a25.426 25.426 0 0 1 4.446.341c.305-.926.624-25.321 23.514-32.547 25.58-8.075 49.551 10.85 47.433 35.19a32.545 32.545 0 0 1 13.515-2.984c17.159 0 31.117 13.385 31.117 29.84 0 13.242-11.942 23.978-26.672 23.978h-97.8c-14.731 0-26.672-10.736-26.672-23.978.002-16.455 13.96-29.84 31.119-29.84z"/><path d="m25.862 476.623a16.578 16.578 0 0 1 3.056.247c.25-.8-.35-18.154 16.166-23.67a24.583 24.583 0 0 1 32.608 25.593 21.346 21.346 0 0 1 9.291-2.17 21.572 21.572 0 0 1 21.392 21.7c0 9.631-8.21 17.439-18.336 17.439h-67.233c-10.126 0-18.336-7.808-18.336-17.439a21.572 21.572 0 0 1 21.392-21.7z"/><path d="m25.392 29.034a16.5 16.5 0 0 1 3.056.248c.25-.8-.35-18.155 16.165-23.671a24.584 24.584 0 0 1 32.609 25.589 21.345 21.345 0 0 1 9.29-2.17 21.572 21.572 0 0 1 21.393 21.7c0 9.631-8.21 17.439-18.337 17.439h-67.232c-10.127.005-18.336-7.803-18.336-17.434a21.572 21.572 0 0 1 21.392-21.701z"/></g><path d="m204.287 427.843h111.9a0 0 0 0 1 0 0v55.949a31.971 31.971 0 0 1 -31.971 31.971h-47.959a31.971 31.971 0 0 1 -31.971-31.971v-55.949a0 0 0 0 1 .001 0z" fill="#ffdec7"/><path d="m306.56 275.837a297.549 297.549 0 0 0 -21.28 83.281c-.48 4.24-.8 8.559-1.04 12.8h-16c1.28-8.721 1.2-48.48 23.6-102.241 68.16-164-11.28-239.6-31.6-255.52-20.32 15.921-99.84 91.441-31.6 255.52 21.12 50.8 21.2 85.52 23.6 102.241h-16c-.24-4.241-.56-8.56-1.04-12.8a294.99 294.99 0 0 0 -21.36-83.281c-67.68-162.879 5.68-246.959 32.8-270.959 4.48-.4 9.04-.641 13.6-.641s9.04.241 13.52.641c27.12 23.839 100.64 107.922 32.8 270.959z" fill="#ffde76"/><path d="m316.168 435.841h-111.868a8 8 0 0 1 0-16h111.868a8 8 0 0 1 0 16z" fill="#f26674"/><path d="m294.24 367.358-.32 2.72-6.48 49.759-.48 4c-.4 3.758-4.319 7.017-8.88 6.48-4.191-.483-7.525-3.878-7.04-8.239l.32-2.241 6.16-47.919.8-6.32a7.665 7.665 0 0 1 6.96-6.48 8.356 8.356 0 0 1 2 0c4.4.482 7.52 4.159 6.96 8.24z" fill="#7d7d7d"/><path d="m412.08 160.078c0 122.892-87.08 108.665-110.24 199.759a16.11 16.11 0 0 1 -7.92 10.241c-5.731 3.069-9.12 1.338-33.92 1.84v-367.681h.24c4.56 0 9.04.241 13.52.641a148.665 148.665 0 0 1 80.24 32.64v.08a155.357 155.357 0 0 1 42.96 54.559 159.1 159.1 0 0 1 15.12 67.921z" fill="#ef4052"/><path d="m457.92 68.157a24.057 24.057 0 0 1 -24 24h-36.96a155.357 155.357 0 0 0 -42.96-54.557v-.08c.32-14.08 8.56-26.96 21.12-31.361 22.931-8.083 44.522 10.748 42.64 35.2a27.284 27.284 0 0 1 12.16-2.96 25.321 25.321 0 0 1 8.88 1.601c11.12 3.837 19.12 14.958 19.12 28.157z" fill="#5ca8f1"/><path d="m516 73.837a18.368 18.368 0 0 1 -18.32 18.32h-63.76a24.056 24.056 0 0 0 24-24c0-13.2-8-24.32-19.12-28.159a23.8 23.8 0 0 1 13.92-13.6c17.912-6.308 34.358 8.922 32.56 26.879a20.434 20.434 0 0 1 9.28-2.319c11.84 0 21.44 10.242 21.44 22.879z" fill="#4b96de"/><path d="m395.975 461.945a25.426 25.426 0 0 1 4.446.341c.305-.926.624-25.321 23.514-32.547 25.58-8.075 49.551 10.85 47.433 35.19a32.545 32.545 0 0 1 13.515-2.984c17.159 0 31.117 13.385 31.117 29.84 0 13.242-11.942 23.978-26.672 23.978h-97.8c-14.731 0-26.672-10.736-26.672-23.978.002-16.455 13.96-29.84 31.119-29.84z" fill="#5ca8f1"/><path d="m316.16 427.837v55.92a31.974 31.974 0 0 1 -31.92 32h-24.24v-87.92z" fill="#ffc69e"/><path d="m306.56 275.837a297.549 297.549 0 0 0 -21.28 83.281c-.48 4.24-.8 8.559-1.04 12.8h-16c1.28-8.721 1.2-48.48 23.6-102.241 68.16-164-11.28-239.6-31.6-255.52-.08.08-.16.08-.24.16v-10.08h.24c4.56 0 9.04.241 13.52.641 27.12 23.839 100.64 107.922 32.8 270.959z" fill="#ffd44d"/><path d="m324.16 427.837a8.024 8.024 0 0 1 -8 8h-56.16v-16h56.16a8.024 8.024 0 0 1 8 8z" fill="#ef4052"/></svg>