<svg id="Layer_1" height="512" viewBox="0 0 520 520" width="512" xmlns="http://www.w3.org/2000/svg" data-name="Layer 1"><path d="m482.565 473.582h-436.597l5.586-24.9a21.4 21.4 0 0 1 21.1-17.843h377.329a21.392 21.392 0 0 1 20.325 14.584z" fill="#3a526f"/><path d="m448.354 430.838h-376.708l3.1-15.282a34.239 34.239 0 0 1 33.59-27.54h303.325a34.239 34.239 0 0 1 33.59 27.54z" fill="#425b72"/><path d="m157.29 336.661h205.42v51.355h-205.42z" fill="#fc6"/><path d="m431.21 322.775a13.868 13.868 0 0 1 -13.886 13.886h-314.648a13.853 13.853 0 0 1 -12.412-20.014 25.578 25.578 0 0 1 22.963-14.2h293.546a25.578 25.578 0 0 1 22.963 14.2 13.685 13.685 0 0 1 1.474 6.128z" fill="#ffa92c"/><path d="m405.532 302.45h-291.064c0-78.972 56.087-144.135 128.388-152.979a126.835 126.835 0 0 1 34.288 0c72.301 8.844 128.388 74.007 128.388 152.979z" fill="#fc6"/><path d="m277.144 131.24v18.231a126.835 126.835 0 0 0 -34.288 0v-18.231a17.144 17.144 0 0 1 34.288 0z" fill="#ffba55"/><g fill="#fc6"><path d="m260 78.941a7.754 7.754 0 0 1 -7.758-7.758v-17.008a7.758 7.758 0 0 1 15.516 0v17.008a7.754 7.754 0 0 1 -7.758 7.758z"/><path d="m137.667 106.047-8.508-14.735a7.759 7.759 0 1 1 13.441-7.758l8.508 14.735a7.759 7.759 0 1 1 -13.439 7.758z"/><path d="m55.871 193.524-14.735-8.508a7.759 7.759 0 1 1 7.758-13.439l14.735 8.508a7.759 7.759 0 1 1 -7.758 13.439z"/><path d="m28.773 310.175h-17.015a7.758 7.758 0 1 1 0-15.515h17.015a7.758 7.758 0 0 1 0 15.515z"/><path d="m508.242 310.175h-17.015a7.758 7.758 0 0 1 0-15.515h17.015a7.758 7.758 0 1 1 0 15.515z"/><path d="m453.53 190.683a7.756 7.756 0 0 1 2.841-10.6l14.735-8.508a7.759 7.759 0 1 1 7.758 13.439l-14.735 8.508a7.764 7.764 0 0 1 -10.599-2.839z"/><path d="m371.735 108.888a7.757 7.757 0 0 1 -2.841-10.6l8.506-14.734a7.759 7.759 0 1 1 13.439 7.758l-8.508 14.735a7.764 7.764 0 0 1 -10.596 2.841z"/></g><path d="m482.565 473.582h-222.565v-42.744h189.983a21.392 21.392 0 0 1 20.325 14.584z" fill="#2c3e54"/><path d="m448.354 430.838h-188.354v-42.822h151.661a34.239 34.239 0 0 1 33.59 27.54z" fill="#334658"/><path d="m260 336.661h102.71v51.355h-102.71z" fill="#ffbe3d"/><path d="m431.21 322.775a13.868 13.868 0 0 1 -13.886 13.886h-157.324v-34.211h146.773c14.27 0 24.437 11.673 24.437 20.325z" fill="#ff9803"/><path d="m405.532 302.45h-145.532v-154.143a124.728 124.728 0 0 1 17.144 1.164c72.301 8.844 128.388 74.007 128.388 152.979z" fill="#ffbe3d"/><path d="m277.144 131.24v18.231a124.728 124.728 0 0 0 -17.144-1.164v-34.207a17.2 17.2 0 0 1 17.144 17.14z" fill="#ffa92c"/><path d="m267.758 54.208v16.992a7.78 7.78 0 0 1 -7.758 7.754v-32.504a7.731 7.731 0 0 1 7.758 7.758z" fill="#ffbe3d"/><path d="m508.242 310.175h-17.015a7.758 7.758 0 0 1 0-15.515h17.015a7.758 7.758 0 1 1 0 15.515z" fill="#ffbe3d"/><path d="m453.53 190.683a7.756 7.756 0 0 1 2.841-10.6l14.735-8.508a7.759 7.759 0 1 1 7.758 13.439l-14.735 8.508a7.764 7.764 0 0 1 -10.599-2.839z" fill="#ffbe3d"/><path d="m371.735 108.888a7.757 7.757 0 0 1 -2.841-10.6l8.506-14.734a7.759 7.759 0 1 1 13.439 7.758l-8.508 14.735a7.764 7.764 0 0 1 -10.596 2.841z" fill="#ffbe3d"/></svg>