<svg id="Layer_1" enable-background="new 0 0 520 520" height="512" viewBox="0 0 520 520" width="512" xmlns="http://www.w3.org/2000/svg"><path d="m480.6 130v378.2h-63.1v-393.9z" fill="#6fabe6"/><path d="m39.4 130v378.2h63v-393.9z" fill="#6fabe6"/><path d="m425.4 19.8v78.8c0 8.7-6.5 15.8-14.4 15.8h-302c-8 0-14.4-7.1-14.4-15.8v-78.8c0-8.7 6.4-15.8 14.4-15.8h302c8 0 14.4 7.1 14.4 15.8z" fill="#f26674"/><path d="m102.4 114.3h315.1v393.9h-315.1z" fill="#82bcf4"/><path d="m197 390h63v118.2h-63z" fill="#b2e5fb"/><path d="m260 390h63v118.2h-63z" fill="#9fdefa"/><g fill="#b2e5fb"><path d="m134 145.8h39.4v47.3h-39.4z"/><path d="m204.9 145.8h39.4v47.3h-39.4z"/><path d="m275.8 145.8h39.4v47.3h-39.4z"/><path d="m346.7 145.8h39.4v47.3h-39.4z"/><path d="m134 224.6h39.4v47.3h-39.4z"/><path d="m204.9 224.6h39.4v47.3h-39.4z"/><path d="m275.8 224.6h39.4v47.3h-39.4z"/><path d="m346.7 224.6h39.4v47.3h-39.4z"/><path d="m134 303.3h39.4v47.3h-39.4z"/><path d="m204.9 303.3h39.4v47.3h-39.4z"/><path d="m275.8 303.3h39.4v47.3h-39.4z"/><path d="m346.7 303.3h39.4v47.3h-39.4z"/></g><path d="m236.4 460.9c-4.4 0-7.9-3.5-7.9-7.9v-7.9c0-4.4 3.4-7.9 7.8-8 4.4 0 7.9 3.4 8 7.8v.2 7.9c-.1 4.4-3.6 7.9-7.9 7.9z" fill="#606161"/><path d="m283.6 460.9c-4.4 0-7.9-3.5-7.9-7.9v-7.9c0-4.4 3.4-7.9 7.8-8s7.9 3.4 8 7.8v.2 7.9c0 4.4-3.5 7.9-7.9 7.9z" fill="#606161"/><path d="m347 397.9h-173.7c-4.4 0-7.8-3.6-7.8-8 0-4.3 3.5-7.7 7.8-7.8h173.7c4.4 0 7.9 3.4 8 7.8s-3.4 7.9-7.8 8c0 0-.1 0-.2 0z" fill="#425b72"/><path d="m157.6 27.6c-4.4 0-7.9 3.5-7.9 7.9v15.8h-15.7v-15.8c0-4.4-3.6-7.8-8-7.8-4.3 0-7.7 3.5-7.8 7.8v47.3c0 4.4 3.6 7.8 8 7.8 4.3 0 7.7-3.5 7.8-7.8v-15.8h15.8v15.8c0 4.4 3.6 7.8 8 7.8 4.3 0 7.7-3.5 7.8-7.8v-47.3c-.1-4.3-3.7-7.9-8-7.9z" fill="#ffde76"/><path d="m202.8 27.6c-11.9 0-21.6 9.7-21.6 21.6v19.9c0 11.9 9.7 21.6 21.6 21.6s21.6-9.7 21.6-21.6v-19.9c0-11.9-9.7-21.5-21.6-21.6zm5.8 41.5c0 3.2-2.6 5.8-5.8 5.8s-5.8-2.6-5.8-5.8v-19.9c0-3.2 2.6-5.8 5.8-5.8s5.8 2.6 5.8 5.8z" fill="#ffde76"/><path d="m208.6 49.2v19.9c0 3.2-2.6 5.8-5.8 5.8s-5.8-2.6-5.8-5.8v-19.9c0-3.2 2.6-5.8 5.8-5.8s5.8 2.6 5.8 5.8z" fill="#f26674"/><path d="m275.8 27.6h-31.5c-4.4 0-7.9 3.4-8 7.8 0 4.4 3.4 7.9 7.8 8h.2 7.9v39.4c0 4.4 3.5 7.9 7.9 7.9s7.9-3.5 7.9-7.9v-39.4h7.9c4.4 0 7.9-3.4 8-7.8s-3.4-7.9-7.8-8c-.2 0-.3 0-.3 0z" fill="#ffde76"/><path d="m330.9 43.4c4.4 0 7.8-3.6 7.8-8 0-4.3-3.5-7.7-7.8-7.8h-23.6c-4.4 0-7.9 3.5-7.9 7.9v47.3c0 4.4 3.5 7.9 7.9 7.9h23.6c4.4 0 7.8-3.6 7.8-8 0-4.3-3.5-7.7-7.8-7.8h-15.8v-7.9h7.7c4.4 0 7.9-3.4 8-7.8s-3.4-7.9-7.8-8c-.1 0-.1 0-.2 0h-7.7v-7.9h15.8z" fill="#ffde76"/><path d="m393.9 74.9h-23.6v-39.4c0-4.4-3.6-7.8-8-7.8-4.3 0-7.7 3.5-7.8 7.8v47.3c0 4.4 3.5 7.9 7.9 7.9h31.5c4.4 0 7.8-3.6 7.8-8 0-4.3-3.5-7.7-7.8-7.8z" fill="#ffde76"/><path d="m39.8 445.1c17.2-.8 31.1-53.4 31.1-76.3 0-23.1-14.1-41.8-31.5-41.8s-31.5 18.7-31.5 41.8 14.1 76.4 31.5 76.4c.2-.1.3-.1.4-.1z" fill="#b5e08c"/><path d="m481 445.1c17.2-.8 31.1-53.4 31.1-76.3 0-23.1-14.1-41.8-31.5-41.8s-31.5 18.7-31.5 41.8 14.1 76.4 31.5 76.4c.1-.1.2-.1.4-.1z" fill="#b5e08c"/><path d="m39.4 516c-4.3 0-7.9-3.5-7.9-7.8v-102.4c0-4.4 3.6-7.8 8-7.8 4.3 0 7.7 3.5 7.8 7.8v102.3c0 4.3-3.5 7.9-7.9 7.9z" fill="#f29b75"/><path d="m480.6 516c-4.3 0-7.9-3.5-7.9-7.8v-102.4c0-4.4 3.6-7.8 8-7.8 4.3 0 7.7 3.5 7.8 7.8v102.3c0 4.3-3.6 7.9-7.9 7.9z" fill="#f29b75"/><path d="m512.1 515.9h-504.2c-4.4 0-7.9-3.4-8-7.8s3.4-7.9 7.8-8h.2l504.2.1c4.4 0 7.9 3.4 8 7.8 0 4.4-3.4 7.9-7.8 8-.1-.1-.2-.1-.2-.1z" fill="#425b72"/><path d="m480.6 130v378.2h-63.1v-393.9z" fill="#4c97e0"/><path d="m425.4 19.8v78.8c0 8.7-6.5 15.8-14.4 15.8h-151v-110.4h151c8 0 14.4 7.1 14.4 15.8z" fill="#ef4052"/><path d="m260 114.3h157.5v393.9h-157.5z" fill="#5ca8f1"/><path d="m260 390h63v118.2h-63z" fill="#78d1f8"/><path d="m275.8 145.8h39.4v47.3h-39.4z" fill="#8bd8f9"/><path d="m346.7 145.8h39.4v47.3h-39.4z" fill="#8bd8f9"/><path d="m275.8 224.6h39.4v47.3h-39.4z" fill="#8bd8f9"/><path d="m346.7 224.6h39.4v47.3h-39.4z" fill="#8bd8f9"/><path d="m275.8 303.3h39.4v47.3h-39.4z" fill="#8bd8f9"/><path d="m346.7 303.3h39.4v47.3h-39.4z" fill="#8bd8f9"/><path d="m283.6 460.9c-4.4 0-7.9-3.5-7.9-7.9v-7.9c0-4.4 3.4-7.9 7.8-8s7.9 3.4 8 7.8v.2 7.9c0 4.4-3.5 7.9-7.9 7.9z" fill="#4c4c4c"/><path d="m354.9 390c0 4.3-3.5 7.9-7.9 7.9h-87v-15.8h87c4.4 0 7.9 3.6 7.9 7.9z" fill="#334658"/><path d="m283.6 35.5c0 4.3-3.5 7.9-7.9 7.9h-7.9v39.4c0 4.3-3.5 7.9-7.9 7.9v-63h15.8c4.4-.1 7.9 3.5 7.9 7.8z" fill="#ffd44d"/><path d="m330.9 43.4c4.4 0 7.8-3.6 7.8-8 0-4.3-3.5-7.7-7.8-7.8h-23.6c-4.4 0-7.9 3.5-7.9 7.9v47.3c0 4.4 3.5 7.9 7.9 7.9h23.6c4.4 0 7.8-3.6 7.8-8 0-4.3-3.5-7.7-7.8-7.8h-15.8v-7.9h7.7c4.4 0 7.9-3.4 8-7.8s-3.4-7.9-7.8-8c-.1 0-.1 0-.2 0h-7.7v-7.9h15.8z" fill="#ffd44d"/><path d="m393.9 74.9h-23.6v-39.4c0-4.4-3.6-7.8-8-7.8-4.3 0-7.7 3.5-7.8 7.8v47.3c0 4.4 3.5 7.9 7.9 7.9h31.5c4.4 0 7.8-3.6 7.8-8 0-4.3-3.5-7.7-7.8-7.8z" fill="#ffd44d"/><path d="m481 445.1c17.2-.8 31.1-53.4 31.1-76.3 0-23.1-14.1-41.8-31.5-41.8s-31.5 18.7-31.5 41.8 14.1 76.4 31.5 76.4c.1-.1.2-.1.4-.1z" fill="#a0d76c"/><path d="m480.6 516c-4.3 0-7.9-3.5-7.9-7.8v-102.4c0-4.4 3.6-7.8 8-7.8 4.3 0 7.7 3.5 7.8 7.8v102.3c0 4.3-3.6 7.9-7.9 7.9z" fill="#ee8050"/><path d="m520 508.1c0 4.3-3.5 7.9-7.9 7.9h-252.1v-15.8h252.1c4.3 0 7.8 3.5 7.9 7.9z" fill="#334658"/></svg>