<svg id="Layer_1" height="512" viewBox="0 0 520 520" width="512" xmlns="http://www.w3.org/2000/svg" data-name="Layer 1"><path d="m260 420h-128s48 16 48 64h160c0-48 48-64 48-64z" fill="#dad7e5"/><path d="m465.68 171.36a20.758 20.758 0 0 1 -20.8 20.8h-76.08a20.81 20.81 0 0 1 -20.8-20.8 26.476 26.476 0 0 1 7.12-18.24c6.007-6.444 14.564-8.563 20.56-7.28.237-.8-.416-21.69 18.32-28.16 20.127-7.1 38.752 9.819 36.88 30.4a22.828 22.828 0 0 1 18.24-1.2c9.6 3.44 16.56 13.12 16.56 24.48z" fill="#82bcf4"/><path d="m516 176.32a15.908 15.908 0 0 1 -15.84 15.84h-55.28a20.758 20.758 0 0 0 20.8-20.8c0-11.36-6.96-21.04-16.56-24.48a20.675 20.675 0 0 1 12.08-11.68c15.789-5.577 30.114 8.3 28.24 23.28a18.208 18.208 0 0 1 8-2c10.24 0 18.56 8.88 18.56 19.84z" fill="#6fabe6"/><path d="m132.88 133.68a22.525 22.525 0 0 1 -22.72 22.32h-83.44a22.519 22.519 0 0 1 -22.72-22.32 28.405 28.405 0 0 1 7.76-19.6c6.748-6.969 15.88-9.175 22.56-7.84.254-.836.369-23.5 20.08-30.24 21.872-7.568 42.27 10.3 40.4 32.72a24.854 24.854 0 0 1 20-1.28c10.48 3.6 18.08 14.08 18.08 26.24z" fill="#82bcf4"/><path d="m188 138.96a17.172 17.172 0 0 1 -17.36 17.04h-60.48a22.524 22.524 0 0 0 22.72-22.32c0-12.16-7.6-22.64-18.08-26.24a22.364 22.364 0 0 1 13.2-12.64c17.168-5.979 32.695 8.726 30.88 25.04 14.51-7.034 29.12 4.283 29.12 19.12z" fill="#6fabe6"/><path d="m260 388h-144l16 32h128 128l16-32z" fill="#c6c3d8"/><path d="m364 516h-208l8-32h192z" fill="#c6c3d8"/><path d="m292 388h-64l16-296h32z" fill="#edebf2"/><path d="m228 60h64v32h-64z" fill="#c6c3d8"/><path d="m260 4s-32.508 32-20.254 56h40.508c12.254-24-20.254-56-20.254-56z" fill="#ffde76"/><path d="m388 420s-48 16-48 64h-80v-64z" fill="#c3bed5"/><path d="m465.68 171.36a20.758 20.758 0 0 1 -20.8 20.8h-76.08a20.81 20.81 0 0 1 -20.8-20.8 26.476 26.476 0 0 1 7.12-18.24c6.007-6.444 14.564-8.563 20.56-7.28.237-.8-.416-21.69 18.32-28.16 20.127-7.1 38.752 9.819 36.88 30.4a22.828 22.828 0 0 1 18.24-1.2c9.6 3.44 16.56 13.12 16.56 24.48z" fill="#5ca8f1"/><path d="m516 176.32a15.908 15.908 0 0 1 -15.84 15.84h-55.28a20.758 20.758 0 0 0 20.8-20.8c0-11.36-6.96-21.04-16.56-24.48a20.675 20.675 0 0 1 12.08-11.68c15.789-5.577 30.114 8.3 28.24 23.28a18.208 18.208 0 0 1 8-2c10.24 0 18.56 8.88 18.56 19.84z" fill="#4c97e0"/><path d="m404 388-16 32h-128v-32z" fill="#afaac8"/><path d="m364 516h-104v-32h96z" fill="#afaac8"/><path d="m292 388h-32v-296h16z" fill="#d7d2e2"/><path d="m260 60h32v32h-32z" fill="#afaac8"/><path d="m280.24 60h-20.24v-56s32.48 32 20.24 56z" fill="#ffd44d"/></svg>