<svg id="Layer_1" height="512" viewBox="0 0 520 520" width="512" xmlns="http://www.w3.org/2000/svg" data-name="Layer 1"><path d="m388.71 383.2a15.869 15.869 0 0 1 -11.6 22.56c-65.36 11.04-82.96 70.24-87.6 97.04a15.966 15.966 0 0 1 -15.76 13.2h-27.52a15.966 15.966 0 0 1 -15.761-13.2 159.579 159.579 0 0 0 -8.08-29.36c-5.12-13.28-12.96-27.6-24.88-39.76-12.88-13.2-30.48-23.84-54.64-27.92a15.869 15.869 0 0 1 -11.6-22.56c4.56-9.2 10.08-20.88 15.36-33.76a238.946 238.946 0 0 0 18-78.8 203.02 203.02 0 0 0 -.64-31.2 190.607 190.607 0 0 0 -7.6-39.52c-4.48-14.64-12.32-28.16-20.96-40.88-48.8-71.36 9.76-107.04 9.76-107.04l1.6-48h30.4s.08.88.32 2.56c15.44 92.32 149.52 92.32 164.96 0 .241-1.68.32-2.56.32-2.56h30.4l1.6 48s58.56 35.68 9.76 107.04c-8.64 12.72-16.48 26.24-20.96 40.88a200.9 200.9 0 0 0 -7.52 38.24c-1.92 15.76-.72 31.12-.72 32.32a237.446 237.446 0 0 0 18 78.96c5.28 12.88 10.8 24.56 15.361 33.76z" fill="#f26674"/><g fill="#ffde76"><path d="m223.435 323.331a12.8 12.8 0 0 0 9.61 7.194c10.469 1.567 14.65 14.823 7.074 22.431a13.4 13.4 0 0 0 -3.669 11.644c1.788 10.743-9.157 18.935-18.521 13.863a12.433 12.433 0 0 0 -11.879 0c-9.364 5.072-20.308-3.12-18.52-13.863a13.4 13.4 0 0 0 -3.671-11.641c-7.576-7.608-3.4-20.864 7.074-22.431a12.8 12.8 0 0 0 9.611-7.194 12.6 12.6 0 0 1 22.891-.003z"/><path d="m327.435 339.331a12.8 12.8 0 0 0 9.61 7.194c10.469 1.567 14.65 14.823 7.074 22.431a13.4 13.4 0 0 0 -3.669 11.644c1.788 10.743-9.157 18.935-18.521 13.863a12.433 12.433 0 0 0 -11.879 0c-9.364 5.072-20.308-3.12-18.52-13.863a13.4 13.4 0 0 0 -3.671-11.641c-7.576-7.608-3.395-20.864 7.074-22.431a12.8 12.8 0 0 0 9.611-7.194 12.6 12.6 0 0 1 22.891-.003z"/><path d="m199.435 91.331a12.8 12.8 0 0 0 9.61 7.194c10.469 1.567 14.65 14.823 7.074 22.431a13.4 13.4 0 0 0 -3.669 11.644c1.788 10.743-9.157 18.935-18.521 13.863a12.433 12.433 0 0 0 -11.879 0c-9.364 5.072-20.308-3.12-18.52-13.863a13.4 13.4 0 0 0 -3.671-11.641c-7.576-7.608-3.4-20.864 7.074-22.431a12.8 12.8 0 0 0 9.611-7.194 12.6 12.6 0 0 1 22.891-.003z"/><path d="m311.435 131.331a12.8 12.8 0 0 0 9.61 7.194c10.469 1.567 14.65 14.823 7.074 22.431a13.4 13.4 0 0 0 -3.669 11.644c1.788 10.743-9.157 18.935-18.521 13.863a12.433 12.433 0 0 0 -11.879 0c-9.364 5.072-20.308-3.12-18.52-13.863a13.4 13.4 0 0 0 -3.671-11.641c-7.576-7.608-3.395-20.864 7.074-22.431a12.8 12.8 0 0 0 9.611-7.194 12.6 12.6 0 0 1 22.891-.003z"/><path d="m399.749 129.6a10.056 10.056 0 0 0 -3.76-.64 11.87 11.87 0 0 0 -5.92 1.52 12.538 12.538 0 0 1 -5.92 1.52 13.134 13.134 0 0 1 -12.64-15.44 10.563 10.563 0 0 0 .16-2.24 13.192 13.192 0 0 0 -3.84-9.36 13.267 13.267 0 0 1 7.12-22.4 12.885 12.885 0 0 0 9.6-7.2 12.069 12.069 0 0 1 7.44-6.64c9.28 12.88 17.12 33.12 7.76 60.88z"/><path d="m264.149 240.96a13.192 13.192 0 0 0 -3.84 9.36c0 2.953.32 1.5.32 4.56a13.584 13.584 0 0 1 -1.04 5.12 245.083 245.083 0 0 1 -48.16-4.64c-.3-1.645.24-2.7.24-5.04a13.192 13.192 0 0 0 -3.84-9.36 13.267 13.267 0 0 1 7.12-22.4 12.885 12.885 0 0 0 9.6-7.2 12.571 12.571 0 0 1 22.88 0 12.887 12.887 0 0 0 9.6 7.2 13.267 13.267 0 0 1 7.12 22.4z"/><path d="m256.149 448.8c-5.183 5.016-3.52 11.034-3.52 13.52a12.8 12.8 0 0 1 -18.72 11.28 12.77 12.77 0 0 0 -5.92-1.52 12.312 12.312 0 0 0 -5.6 1.36c-5.12-13.28-12.96-27.6-24.88-39.76a12.547 12.547 0 0 1 9.44-6.64 12.782 12.782 0 0 0 9.6-6.96 12.751 12.751 0 0 1 22.88 0 12.784 12.784 0 0 0 9.6 6.96 12.767 12.767 0 0 1 10.96 12.72 12.488 12.488 0 0 1 -3.84 9.04z"/></g><path d="m355.349 270.48c-29.76 17.04-57.68 21.52-95.36 21.52-51.44 0-76.16-10.56-95.36-21.36a203.02 203.02 0 0 0 -.64-31.2c13.68 7.36 46.48 20.56 96 20.56 52.48 0 84.241-14.8 96.08-21.84-1.92 15.76-.72 31.12-.72 32.32z" fill="#edebf2"/><path d="m211.989 356a7.935 7.935 0 0 1 -5.679-2.32 8.659 8.659 0 0 1 -2.321-5.68 8 8 0 1 1 16 0 8.711 8.711 0 0 1 -2.32 5.68 7.939 7.939 0 0 1 -5.68 2.32z" fill="#f8834b"/><path d="m315.989 372a7.935 7.935 0 0 1 -5.679-2.32 8.621 8.621 0 0 1 -2.321-5.68 8 8 0 1 1 16 0 7.922 7.922 0 0 1 -8 8z" fill="#f8834b"/><path d="m187.989 124a8.3 8.3 0 0 1 -5.679-2.4 7.611 7.611 0 0 1 -2.321-5.6 8 8 0 0 1 .637-3.039 7.886 7.886 0 0 1 14.723 0 8 8 0 0 1 .64 3.039 7.626 7.626 0 0 1 -2.32 5.6 7.7 7.7 0 0 1 -5.68 2.4z" fill="#f8834b"/><path d="m299.989 164a7.935 7.935 0 0 1 -5.679-2.32 9.29 9.29 0 0 1 -1.684-2.641 6.746 6.746 0 0 1 -.637-3.039 8.4 8.4 0 0 1 2.321-5.68 7.979 7.979 0 0 1 8.718-1.679 8.282 8.282 0 0 1 2.641 1.679 8.423 8.423 0 0 1 2.32 5.68 6.709 6.709 0 0 1 -.64 3.039 9.386 9.386 0 0 1 -1.68 2.641 9.239 9.239 0 0 1 -2.641 1.679 7.986 7.986 0 0 1 -3.039.641z" fill="#f8834b"/><path d="m235.989 244a7.924 7.924 0 0 1 -8-8 8.659 8.659 0 0 1 2.321-5.68 8.373 8.373 0 0 1 11.359 0 8.714 8.714 0 0 1 2.32 5.68 7.922 7.922 0 0 1 -8 8z" fill="#f8834b"/><path d="m395.989 108a7.99 7.99 0 0 1 -3.043-.641 7.233 7.233 0 0 1 -4.32-4.32 6.746 6.746 0 0 1 -.637-3.039 8.4 8.4 0 0 1 2.321-5.68 8.007 8.007 0 0 1 8.718-1.679 7.2 7.2 0 0 1 4.321 4.32 7.535 7.535 0 0 1 0 6.078 9.386 9.386 0 0 1 -1.68 2.641 7.939 7.939 0 0 1 -5.68 2.32z" fill="#f8834b"/><path d="m227.989 452a8.69 8.69 0 0 1 -5.679-2.32 7.916 7.916 0 0 1 -2.321-5.68 8 8 0 1 1 16 0 7.932 7.932 0 0 1 -2.32 5.68 8.71 8.71 0 0 1 -5.68 2.32z" fill="#f8834b"/><path d="m399.749 129.6c-3.039 9.04-7.92 18.8-15.2 29.44-8.64 12.72-16.48 26.24-20.96 40.88a200.9 200.9 0 0 0 -7.52 38.24c-1.92 15.76-.72 31.12-.72 32.32a237.446 237.446 0 0 0 18 78.96c5.28 12.88 10.8 24.56 15.361 33.76a15.869 15.869 0 0 1 -11.6 22.56c-65.36 11.04-82.96 70.24-87.6 97.04a15.966 15.966 0 0 1 -15.76 13.2h-13.76v-440.16c37.36 0 74.721-23.12 82.48-69.28.241-1.68.32-2.56.32-2.56h30.4l1.6 48a67.852 67.852 0 0 1 17.2 16.72c13.482 19.035 14.844 38.796 7.759 60.88z" fill="#ef4052"/><path d="m327.435 339.331a12.8 12.8 0 0 0 9.61 7.194c10.469 1.567 14.65 14.823 7.074 22.431a13.4 13.4 0 0 0 -3.669 11.644c1.788 10.743-9.157 18.935-18.521 13.863a12.433 12.433 0 0 0 -11.879 0c-9.364 5.072-20.308-3.12-18.52-13.863a13.4 13.4 0 0 0 -3.671-11.641c-7.576-7.608-3.395-20.864 7.074-22.431a12.8 12.8 0 0 0 9.611-7.194 12.6 12.6 0 0 1 22.891-.003z" fill="#ffd44d"/><path d="m311.435 131.331a12.8 12.8 0 0 0 9.61 7.194c10.469 1.567 14.65 14.823 7.074 22.431a13.4 13.4 0 0 0 -3.669 11.644c1.788 10.743-9.157 18.935-18.521 13.863a12.433 12.433 0 0 0 -11.879 0c-9.364 5.072-20.308-3.12-18.52-13.863a13.4 13.4 0 0 0 -3.671-11.641c-7.576-7.608-3.395-20.864 7.074-22.431a12.8 12.8 0 0 0 9.611-7.194 12.6 12.6 0 0 1 22.891-.003z" fill="#ffd44d"/><path d="m399.749 129.6a10.056 10.056 0 0 0 -3.76-.64c-5.588 0-6.251 3.04-11.84 3.04a13.134 13.134 0 0 1 -12.64-15.44 13.415 13.415 0 0 0 -3.68-11.6 13.267 13.267 0 0 1 7.12-22.4 12.885 12.885 0 0 0 9.6-7.2 12.069 12.069 0 0 1 7.44-6.64c13.101 18.564 14.997 38.27 7.76 60.88z" fill="#ffd44d"/><path d="m264.149 240.96a13.192 13.192 0 0 0 -3.84 9.36c0 2.592.923 4.592-.32 8.32v-39.28a13.35 13.35 0 0 1 4.16 21.6z" fill="#ffd44d"/><path d="m355.349 270.48c-29.76 17.04-57.68 21.52-95.36 21.52v-32c52.48 0 84.241-14.8 96.08-21.84-1.92 15.76-.72 31.12-.72 32.32z" fill="#d7d2e2"/><path d="m315.989 372a7.935 7.935 0 0 1 -5.679-2.32 8.621 8.621 0 0 1 -2.321-5.68 8 8 0 1 1 16 0 7.922 7.922 0 0 1 -8 8z" fill="#f66824"/><path d="m299.989 164a7.935 7.935 0 0 1 -5.679-2.32 8.621 8.621 0 0 1 -2.321-5.68 8.4 8.4 0 0 1 2.321-5.68 8.129 8.129 0 0 1 11.359 0 8.423 8.423 0 0 1 2.32 5.68 7.922 7.922 0 0 1 -8 8z" fill="#f66824"/><path d="m403.749 101.12a.243.243 0 0 1 0 .32 9.141 9.141 0 0 1 -2.08 4.24 7.918 7.918 0 0 1 -5.68 2.32 8.807 8.807 0 0 1 -5.68-2.32 8.707 8.707 0 0 1 -2.32-5.68 8.412 8.412 0 0 1 2.32-5.68 8.124 8.124 0 0 1 11.36 0 9.238 9.238 0 0 1 1.68 2.64v.08a13.389 13.389 0 0 1 .4 4.08z" fill="#f66824"/></svg>