<svg id="Layer_1" height="512" viewBox="0 0 520 520" width="512" xmlns="http://www.w3.org/2000/svg" data-name="Layer 1"><path d="m4.065 4.052h463.941v287.964h-463.941z" fill="#fc6"/><path d="m468.006 292.016h-463.941l173.018-180.537 58.952 36.555 54.313-33.676z" fill="#ffba55"/><path d="m468.006 4.052-231.971 143.982-231.97-143.982z" fill="#ffde76"/><path d="m68.057 260.02h447.943v255.968h-447.943z" fill="#edebf2"/><g fill="#afaac8"><path d="m92.054 276.018h15.998v15.998h-15.998z"/><path d="m124.05 276.018h15.998v15.998h-15.998z"/><path d="m156.046 276.018h15.998v15.998h-15.998z"/><path d="m188.041 276.018h15.998v15.998h-15.998z"/><path d="m220.037 276.018h15.998v15.998h-15.998z"/><path d="m252.033 276.018h15.998v15.998h-15.998z"/><path d="m284.029 276.018h15.998v15.998h-15.998z"/><path d="m316.025 276.018h15.998v15.998h-15.998z"/><path d="m348.021 276.018h15.998v15.998h-15.998z"/><path d="m380.017 276.018h15.998v15.998h-15.998z"/><path d="m412.013 276.018h15.998v15.998h-15.998z"/><path d="m444.009 276.018h15.998v15.998h-15.998z"/><path d="m476.005 276.018h15.998v15.998h-15.998z"/><path d="m92.054 483.992h15.998v15.998h-15.998z"/><path d="m124.05 483.992h15.998v15.998h-15.998z"/><path d="m156.046 483.992h15.998v15.998h-15.998z"/><path d="m188.041 483.992h15.998v15.998h-15.998z"/><path d="m220.037 483.992h15.998v15.998h-15.998z"/><path d="m252.033 483.992h15.998v15.998h-15.998z"/><path d="m284.029 483.992h15.998v15.998h-15.998z"/><path d="m316.025 483.992h15.998v15.998h-15.998z"/><path d="m348.021 483.992h15.998v15.998h-15.998z"/><path d="m380.017 483.992h15.998v15.998h-15.998z"/><path d="m412.013 483.992h15.998v15.998h-15.998z"/><path d="m444.009 483.992h15.998v15.998h-15.998z"/><path d="m476.005 483.992h15.998v15.998h-15.998z"/></g><path d="m164.045 388h-63.992a8 8 0 1 1 0-16h63.992a8 8 0 0 1 0 16z" fill="#747575"/><path d="m196.04 423.992h-95.987a8 8 0 0 1 0-16h95.987a8 8 0 0 1 0 16z" fill="#747575"/><path d="m228.036 454.019h-127.983a8 8 0 0 1 0-16h127.983a8 8 0 0 1 0 16z" fill="#747575"/><path d="m292.028 467.994a8 8 0 0 1 -8-8v-143.981a8 8 0 0 1 16 0v143.987a7.994 7.994 0 0 1 -8 7.994z" fill="#747575"/><path d="m100.053 316.013h159.98v31.996h-159.98z" fill="#f26674"/><path d="m324.024 316.013h159.98v143.982h-159.98z" fill="#5ea9f2"/><path d="m484.004 388.004v71.991h-159.98v-71.991l55.993-39.995 31.996 23.997 31.996-15.998z" fill="#344c62"/><path d="m452.008 428a30.873 30.873 0 0 0 -12.159 2.48 43.987 43.987 0 0 0 -71.67 0 30.87 30.87 0 0 0 -12.159-2.48 31.987 31.987 0 0 0 -32 32h159.98a31.987 31.987 0 0 0 -31.992-32z" fill="#a3db6e"/><path d="m260.032 4.052h207.974v287.964h-207.974z" fill="#ffbe3d"/><path d="m468.006 292.016h-207.974v-158.86c1.482-.988 26.381-16.376 30.316-18.8z" fill="#ffa92c"/><path d="m290.348 114.358c-4.8 2.953-28.958 17.893-30.316 18.8v-129.106h207.894c-.801.801-5.626 3.453-177.578 110.306z" fill="#ffd44d"/><path d="m260.032 260.02v255.968h255.968v-255.968z" fill="#d7d2e2"/><path d="m260.032 276.018h7.999v15.998h-7.999z" fill="#9891b8"/><path d="m284.029 276.018h15.998v15.998h-15.998z" fill="#9891b8"/><path d="m316.025 276.018h15.998v15.998h-15.998z" fill="#9891b8"/><path d="m348.021 276.018h15.998v15.998h-15.998z" fill="#9891b8"/><path d="m380.017 276.018h15.998v15.998h-15.998z" fill="#9891b8"/><path d="m412.013 276.018h15.998v15.998h-15.998z" fill="#9891b8"/><path d="m444.009 276.018h15.998v15.998h-15.998z" fill="#9891b8"/><path d="m476.005 276.018h15.998v15.998h-15.998z" fill="#9891b8"/><path d="m260.032 483.992h7.999v15.998h-7.999z" fill="#9891b8"/><path d="m284.029 483.992h15.998v15.998h-15.998z" fill="#9891b8"/><path d="m316.025 483.992h15.998v15.998h-15.998z" fill="#9891b8"/><path d="m348.021 483.992h15.998v15.998h-15.998z" fill="#9891b8"/><path d="m380.017 483.992h15.998v15.998h-15.998z" fill="#9891b8"/><path d="m412.013 483.992h15.998v15.998h-15.998z" fill="#9891b8"/><path d="m444.009 483.992h15.998v15.998h-15.998z" fill="#9891b8"/><path d="m476.005 483.992h15.998v15.998h-15.998z" fill="#9891b8"/><path d="m292.028 467.994a8 8 0 0 1 -8-8v-143.981a8 8 0 0 1 16 0v143.987a7.994 7.994 0 0 1 -8 7.994z" fill="#606161"/><path d="m324.024 316.013h159.98v143.982h-159.98z" fill="#3895ef"/><path d="m484.004 388.004v71.991h-159.98v-71.991l55.993-39.995 31.996 23.997 31.996-15.998z" fill="#263747"/><path d="m439.849 430.479a43.987 43.987 0 0 0 -71.67 0c-20.527-8.735-44.155 6.431-44.155 29.516h159.976c0-23.04-23.574-38.272-44.151-29.516z" fill="#8ed34d"/></svg>