<svg id="Layer_1" height="512" viewBox="0 0 520 520" width="512" xmlns="http://www.w3.org/2000/svg" data-name="Layer 1"><rect fill="#425b72" height="512" rx="16" width="360" x="16" y="4"/><path d="m496 268a8 8 0 0 1 -8-8v-40h-24a8 8 0 0 1 0-16h32a8 8 0 0 1 8 8v48a8 8 0 0 1 -8 8z" fill="#3b88d3"/><path d="m335.52 90.56c0 9.479-8.067 17.44-18.32 17.44h-22.96a95.711 95.711 0 0 0 -52-36.32c5.36-2.8 9.76-2.72 13.76-2.88 0-10.48 6.4-20.16 16.16-23.44a24.609 24.609 0 0 1 32.64 25.6c14.324-6.96 30.72 3.678 30.72 19.6z" fill="#82bcf4"/><path d="m184 332h64a0 0 0 0 1 0 0v40a16 16 0 0 1 -16 16h-32a16 16 0 0 1 -16-16v-40a0 0 0 0 1 0 0z" fill="#f6ccaf"/><path d="m190.43 339.844a8 8 0 0 1 -6.274-9.414l8-40a8 8 0 0 1 15.688 3.14l-8 40a8 8 0 0 1 -9.414 6.274z" fill="#886454"/><path d="m232.156 333.57-8-40a8 8 0 1 1 15.688-3.14l8 40a8 8 0 0 1 -15.688 3.14z" fill="#886454"/><path d="m252.883 340h-75.445a8 8 0 0 1 0-16h75.445a8 8 0 0 1 0 16z" fill="#e7a273"/><path d="m64 4v512h-32a16.047 16.047 0 0 1 -16-16v-480a16.047 16.047 0 0 1 16-16z" fill="#2c435e"/><path d="m104 420h232v56h-232z" fill="#edebf2"/><path d="m448 156a24 24 0 0 1 24 24v248a0 0 0 0 1 0 0h-48a0 0 0 0 1 0 0v-248a24 24 0 0 1 24-24z" fill="#5ea9f2"/><path d="m472 180v16h-48v-16a24 24 0 0 1 48 0z" fill="#f04153"/><path d="m424 428 24 56.4 24-56.4z" fill="#4f5454"/><path d="m312 163.04a94.629 94.629 0 0 1 -37.76 75.6c-11.86 11.61-27.652 30.124-31.92 46.24a9.988 9.988 0 0 1 -9.76 7.36h-33.12a9.988 9.988 0 0 1 -9.76-7.36c-4.267-16.114-20.056-34.626-31.92-46.24a94.629 94.629 0 0 1 -37.76-75.6c0-47.76 35.6-87.28 81.92-94a90.438 90.438 0 0 1 14.08-1.04 87.375 87.375 0 0 1 13.84 1.04 79.385 79.385 0 0 1 12.4 2.64 95.711 95.711 0 0 1 52 36.32 93.784 93.784 0 0 1 17.76 55.04z" fill="#f26674"/><path d="m248 234.96a8.01 8.01 0 0 1 -14.72-6.32c40.16-93.12-3.12-138.88-17.28-150.64-10.56 8.64-36.64 35.28-33.84 85.92a7.979 7.979 0 0 1 -7.6 8.4h-.4a8 8 0 0 1 -8-7.6c-2.88-52.16 21.52-82.48 35.76-95.68a90.438 90.438 0 0 1 14.08-1.04 87.375 87.375 0 0 1 13.84 1.04c19.52 18.4 59.2 70.64 18.16 165.92z" fill="#ffde76"/><path d="m125.315 212.824h3.045c0-10.481 6.338-20.167 16.107-23.444 17.49-5.868 33.944 7.866 32.491 25.616a21.189 21.189 0 0 1 9.257-2.172 21.544 21.544 0 0 1 21.314 21.721c0 9.64-8.179 17.455-18.269 17.455h-66.99c-10.09 0-18.27-7.815-18.27-17.455a21.545 21.545 0 0 1 21.315-21.721z" fill="#82bcf4"/><path d="m360 4h-144v512h144a16.047 16.047 0 0 0 16-16v-480a16.047 16.047 0 0 0 -16-16z" fill="#334658"/><path d="m496 268a8 8 0 0 1 -8-8v-40h-24a8 8 0 0 1 0-16h32a8 8 0 0 1 8 8v48a8 8 0 0 1 -8 8z" fill="#3b88d3"/><path d="m335.52 90.56c0 9.479-8.067 17.44-18.32 17.44h-22.96a95.711 95.711 0 0 0 -52-36.32c5.36-2.8 9.76-2.72 13.76-2.88 0-10.48 6.4-20.16 16.16-23.44a24.609 24.609 0 0 1 32.64 25.6c14.324-6.96 30.72 3.678 30.72 19.6z" fill="#5ca8f1"/><path d="m248 332v40a16.047 16.047 0 0 1 -16 16h-16v-56z" fill="#f2b58a"/><path d="m232.156 333.57-8-40a8 8 0 1 1 15.688-3.14l8 40a8 8 0 0 1 -15.688 3.14z" fill="#6f5144"/><path d="m260.88 332a8.024 8.024 0 0 1 -8 8h-36.88v-16h36.88a8.024 8.024 0 0 1 8 8z" fill="#e18b50"/><path d="m216 420h120v56h-120z" fill="#d7d2e2"/><path d="m448 156a24 24 0 0 1 24 24v248a0 0 0 0 1 0 0h-48a0 0 0 0 1 0 0v-248a24 24 0 0 1 24-24z" fill="#5ea9f2"/><path d="m472 180v16h-48v-16a24 24 0 0 1 48 0z" fill="#f04153"/><path d="m424 428 24 56.4 24-56.4z" fill="#4f5454"/><path d="m312 163.04a94.629 94.629 0 0 1 -37.76 75.6c-11.84 11.6-27.68 30.16-31.92 46.24a9.831 9.831 0 0 1 -2.72 4.56 10.124 10.124 0 0 1 -7.04 2.8h-16.56v-224.24a87.375 87.375 0 0 1 13.84 1.04 79.385 79.385 0 0 1 12.4 2.64 95.711 95.711 0 0 1 52 36.32 93.784 93.784 0 0 1 17.76 55.04z" fill="#ef4052"/><path d="m248 234.96a8.01 8.01 0 0 1 -14.72-6.32c40.16-93.12-3.12-138.88-17.28-150.64v-10a87.375 87.375 0 0 1 13.84 1.04c19.52 18.4 59.2 70.64 18.16 165.92z" fill="#ffd44d"/></svg>