<svg id="Layer_1" height="512" viewBox="0 0 520 520" width="512" xmlns="http://www.w3.org/2000/svg" data-name="Layer 1"><path d="m356 420h-192l-61.224-397.612a16 16 0 0 1 15.824-18.388h282.8a16 16 0 0 1 15.82 18.388z" fill="#82bcf4"/><path d="m417.2 22.4-5.76 37.6h-302.88l-5.76-37.6a15.949 15.949 0 0 1 15.76-18.4h282.88a15.949 15.949 0 0 1 15.76 18.4z" fill="#6fabe6"/><path d="m164 420h192a0 0 0 0 1 0 0v64a32 32 0 0 1 -32 32h-128a32 32 0 0 1 -32-32v-64a0 0 0 0 1 0 0z" fill="#edebf2"/><path d="m356 476v8a31.991 31.991 0 0 1 -32 32h-128a31.991 31.991 0 0 1 -32-32v-8h64a13.146 13.146 0 0 0 11.6-7.12 16 16 0 0 1 14.32-8.88h12.16a16 16 0 0 1 14.32 8.88 13.146 13.146 0 0 0 11.6 7.12z" fill="#c6c3d8"/><path d="m140 4v24a8 8 0 0 1 -16 0v-24z" fill="#5b9ad8"/><path d="m172 4v24a8 8 0 0 1 -16 0v-24z" fill="#5b9ad8"/><path d="m204 4v24a8 8 0 0 1 -16 0v-24z" fill="#5b9ad8"/><path d="m236 4v24a8 8 0 0 1 -16 0v-24z" fill="#5b9ad8"/><path d="m268 4v24a8 8 0 0 1 -16 0v-24z" fill="#5b9ad8"/><path d="m300 4v24a8 8 0 0 1 -16 0v-24z" fill="#5b9ad8"/><path d="m332 4v24a8 8 0 0 1 -16 0v-24z" fill="#5b9ad8"/><path d="m364 4v24a8 8 0 0 1 -16 0v-24z" fill="#5b9ad8"/><path d="m396 4v24a8 8 0 0 1 -16 0v-24z" fill="#5b9ad8"/><g fill="#ffde76"><circle cx="260" cy="284" r="32.821"/><path d="m260 364a8 8 0 0 1 -8-8v-16a8 8 0 0 1 16 0v16a8 8 0 0 1 -8 8z"/><path d="m310.906 342.91a7.971 7.971 0 0 1 -5.656-2.344l-11.313-11.316a8 8 0 0 1 11.313-11.312l11.312 11.316a8 8 0 0 1 -5.656 13.656z"/><path d="m331.992 292h-16a8 8 0 1 1 0-16h16a8 8 0 0 1 0 16z"/><path d="m299.594 252.406a8 8 0 0 1 -5.657-13.656l11.313-11.316a8 8 0 0 1 11.312 11.312l-11.312 11.316a7.972 7.972 0 0 1 -5.656 2.344z"/><path d="m260 236a8 8 0 0 1 -8-8v-16a8 8 0 0 1 16 0v16a8 8 0 0 1 -8 8z"/><path d="m220.406 252.406a7.971 7.971 0 0 1 -5.656-2.344l-11.313-11.316a8 8 0 0 1 11.313-11.312l11.312 11.316a8 8 0 0 1 -5.656 13.656z"/><path d="m204.008 292h-16a8 8 0 0 1 0-16h16a8 8 0 1 1 0 16z"/><path d="m209.094 342.91a8 8 0 0 1 -5.657-13.656l11.313-11.316a8 8 0 0 1 11.312 11.312l-11.312 11.316a7.972 7.972 0 0 1 -5.656 2.344z"/><path d="m188 124h144v56h-144z"/></g><path d="m417.2 22.4-5.76 37.6-55.44 360h-96v-416h141.44a15.949 15.949 0 0 1 15.76 18.4z" fill="#5ca8f1"/><path d="m417.2 22.4-5.76 37.6h-151.44v-56h141.44a15.949 15.949 0 0 1 15.76 18.4z" fill="#4c97e0"/><path d="m356 420v64a31.991 31.991 0 0 1 -32 32h-64v-96z" fill="#d7d2e2"/><path d="m356 476v8a31.991 31.991 0 0 1 -32 32h-64v-56h6.08a16 16 0 0 1 14.32 8.88 13.146 13.146 0 0 0 11.6 7.12z" fill="#afaac8"/><path d="m292.8 284a32.742 32.742 0 0 1 -32.8 32.8v-65.6a32.742 32.742 0 0 1 32.8 32.8z" fill="#ffd44d"/><path d="m268 340v16a8.024 8.024 0 0 1 -8 8v-32a8.024 8.024 0 0 1 8 8z" fill="#ffd44d"/><path d="m310.906 342.91a7.971 7.971 0 0 1 -5.656-2.344l-11.313-11.316a8 8 0 0 1 11.313-11.312l11.312 11.316a8 8 0 0 1 -5.656 13.656z" fill="#ffd44d"/><path d="m331.992 292h-16a8 8 0 1 1 0-16h16a8 8 0 0 1 0 16z" fill="#ffd44d"/><path d="m299.594 252.406a8 8 0 0 1 -5.657-13.656l11.313-11.316a8 8 0 0 1 11.312 11.312l-11.312 11.316a7.972 7.972 0 0 1 -5.656 2.344z" fill="#ffd44d"/><path d="m268 212v16a8.024 8.024 0 0 1 -8 8v-32a8.024 8.024 0 0 1 8 8z" fill="#ffd44d"/><path d="m260 124h72v56h-72z" fill="#ffd44d"/><path d="m268 4v24a8.024 8.024 0 0 1 -8 8v-32z" fill="#3a86d0"/><path d="m300 4v24a8 8 0 0 1 -16 0v-24z" fill="#3a86d0"/><path d="m332 4v24a8 8 0 0 1 -16 0v-24z" fill="#3a86d0"/><path d="m364 4v24a8 8 0 0 1 -16 0v-24z" fill="#3a86d0"/><path d="m396 4v24a8 8 0 0 1 -16 0v-24z" fill="#3a86d0"/></svg>