<svg clip-rule="evenodd" fill-rule="evenodd" height="2.667in" image-rendering="optimizeQuality" shape-rendering="geometricPrecision" text-rendering="geometricPrecision" viewBox="0 0 2667 2667" width="2.667in" xmlns="http://www.w3.org/2000/svg"><g id="Layer_x0020_1"><circle cx="1333" cy="1333" fill="#7ed63f" r="1333"/><path d="m480 963h476v-116h-427c-27 0-49 22-49 49zm317 1143v-685h-158v685c0 43 34 77 77 77s81-34 81-77zm194-462h-158v151h158zm862-691c33 45 48 101 48 155 0 55-15 111-48 155-29 40-71 67-121 67-4 0-8 0-12-1l-18-1 3 18c12 70 31 142 58 208 28 67 88 178 173 178s146-111 173-178c57-136 78-300 78-446 0-147-21-312-78-448-28-67-88-176-173-176s-145 109-173 176-46 139-58 210l-3 18 18-1c4-1 8-1 12-1 50 0 92 28 121 67zm-157-17c-7 57-10 114-10 172 0 57 3 115 10 172l1 10 10 2c8 2 17 3 25 3 7 0 14-1 21-2 79-18 113-114 113-185s-34-167-113-185c-7-1-14-2-21-2-8 0-17 1-25 3l-10 2zm-705-90v541h14c234 10 479 56 691 158l31 15-12-32c-24-69-40-142-50-214l-1-2-1-2c-1-4-2-8-1-12v-2-2c-8-62-11-124-11-186 0-63 3-125 11-187v-2-2c-1-3 0-7 1-10l1-2v-2c9-66 23-132 44-195l10-31-30 14c-211 98-452 145-683 154zm-35 424h-476v67c0 25 24 49 49 49h427zm0-138h-476v103h476zm0-134h-476v99h476z" fill="#fff"/></g></svg>