<svg clip-rule="evenodd" fill-rule="evenodd" height="2.667in" image-rendering="optimizeQuality" shape-rendering="geometricPrecision" text-rendering="geometricPrecision" viewBox="0 0 2667 2667" width="2.667in" xmlns="http://www.w3.org/2000/svg"><g id="Layer_x0020_1"><circle cx="1333" cy="1333" fill="#378b4e" r="1333"/><path d="m804 1906 62-210h934l63 210zm1222 280h-1385c-17 0-30-13-30-30v-97c0-67 58-123 126-123h1192c69 0 127 56 127 123v97c0 17-13 30-30 30zm-1150-523 86-286h743l85 286zm96-320 88-296h546l89 296zm98-329 87-290h353l86 290zm97-323 21-72c24-88 77-138 145-138 48 0 112 24 146 138l21 72z" fill="#fff"/></g></svg>