<svg clip-rule="evenodd" fill-rule="evenodd" height="2.667in" image-rendering="optimizeQuality" shape-rendering="geometricPrecision" text-rendering="geometricPrecision" viewBox="0 0 2667 2667" width="2.667in" xmlns="http://www.w3.org/2000/svg"><g id="Layer_x0020_1"><circle cx="1333" cy="1333" fill="#f44c71" r="1333"/><path d="m2099 1823h-5c1-10 2-20 2-30 0-129-101-230-230-230-61 0-119 23-163 66-44 44-67 102-67 164 0 10 1 20 2 30h-610c2-10 2-20 2-30 0-61-23-120-66-163-43-44-102-67-164-67-128 0-229 101-229 230 0 10 0 20 2 30h-6c-46 0-86-40-86-87v-160h126c10 0 17-7 17-16v-117c0-9-7-16-17-16h-126c0-47 40-87 86-87h1199 6l219 41c-34 120 61 194 195 210v145c0 47-40 87-87 87zm-819-999c-10 0-20-6-26-15l-30-50c-8-14-4-32 11-41 14-8 32-4 41 11l30 50c8 14 4 32-11 40-4 3-10 5-15 5zm113-30c-16 0-30-13-30-30v-60c0-17 14-30 30-30 17 0 30 13 30 30v60c0 17-13 30-30 30zm114 30c-6 0-11-2-16-5-14-8-18-27-10-40l30-50c8-15 27-19 41-11 14 9 18 27 10 41l-30 50c-6 9-16 15-25 15zm-207 110v-17c0-51 42-93 93-93 54 0 94 40 94 93v17zm566 1059c-112 0-200-88-200-200 0-55 21-105 58-142s88-58 142-58c112 0 200 88 200 200 0 110-90 200-200 200zm0-110c50 0 90-41 90-90 0-50-39-93-90-93-52 0-93 41-93 93 0 51 43 90 93 90zm0-150c33 0 57 28 57 60 0 31-26 57-57 57-32 0-60-24-60-57 0-34 26-60 60-60zm-1066 260c-110 0-199-90-199-200 0-112 88-200 199-200 55 0 106 20 143 58 37 37 57 87 57 142 0 112-88 200-200 200zm-1-109c50 0 93-39 93-89 0-53-41-94-93-94-51 0-90 44-90 94 0 49 40 89 90 89zm0-149c34 0 60 26 60 60 0 33-28 56-60 56-31 0-57-26-57-56 0-32 24-60 57-60zm-166-425 93-279v-1c20-55 57-66 84-66h60v346zm271-346h283v346h-283zm316 0h323c52 0 73 45 80 64l146 282h-549zm107 742c2 0 4 0 6-1l63-27 64 27c5 3 11 2 16-1 5-4 7-9 7-15l-3-70 43-52c3-4 4-10 2-15-1-6-6-10-11-11l-67-19-36-57c-3-5-9-8-14-8-6 0-11 3-14 8l-37 57-67 19c-5 1-10 6-12 11-1 5 0 11 4 16l45 51-6 69c-1 6 2 12 7 15 3 2 6 3 10 3zm70-63c-3 0-5 0-7 1l-45 19 4-48c1-5-1-10-4-13l-32-37 48-12c4-1 7-4 9-8l26-41 26 41c2 4 6 6 10 8l48 13-30 37c-3 3-4 7-4 11l3 50-46-20c-2-1-4-1-6-1zm628-256 53 10c63 10 108 56 108 113v47c-61-8-129-28-157-79-15-29-14-61-4-91zm-1544 156v-83h110v83z" fill="#fff"/></g></svg>