<svg clip-rule="evenodd" fill-rule="evenodd" height="2.667in" image-rendering="optimizeQuality" shape-rendering="geometricPrecision" text-rendering="geometricPrecision" viewBox="0 0 2667 2667" width="2.667in" xmlns="http://www.w3.org/2000/svg"><g id="Layer_x0020_1"><circle cx="1333" cy="1333" fill="#378b4e" r="1333"/><path d="m2066 2186h-1465c-67 0-120-54-120-120v-1309h1705v1309c0 66-54 120-120 120zm-333-729c4 0 9-2 12-5 50-47 74-113 74-181 0-69-26-134-74-182-7-6-17-6-24 0-6 6-6 17 0 23 42 42 65 99 65 158 0 60-23 116-65 158-6 7-7 17 0 24 3 3 7 5 12 5zm-400 539c5 0 9-2 12-5l486-486c62-62 95-144 95-232 0-87-33-169-95-231-61-62-144-95-231-95-88 0-170 33-232 95l-35 34-34-34c-62-62-145-95-232-95s-170 33-232 95-94 144-94 231c0 80 27 155 78 215 1 2 3 4 5 6 4 3 7 7 11 11l486 486c4 3 8 5 12 5zm-266-1015c78 0 153 29 208 84l46 47c7 7 17 7 24 0l47-47c112-112 303-112 416 0 112 113 113 304 0 417l-475 474-459-459 353-1c5 0 10-2 13-7l110-159v336c0 8 5 14 12 16 2 1 3 1 5 1 5 0 10-3 14-7l138-206h131c9 0 16-7 16-17 0-9-7-16-16-16h-140c-6 0-11 2-14 7l-113 168v-335c0-8-4-14-11-16s-15 0-19 6l-135 196h-376c-95-114-90-291 17-398 55-55 130-84 208-84zm-586-257v-123c0-67 53-120 120-120h1465c66 0 120 53 120 120v123z" fill="#fff"/></g></svg>