<svg clip-rule="evenodd" fill-rule="evenodd" height="2.667in" image-rendering="optimizeQuality" shape-rendering="geometricPrecision" text-rendering="geometricPrecision" viewBox="0 0 2667 2667" width="2.667in" xmlns="http://www.w3.org/2000/svg"><g id="Layer_x0020_1"><circle cx="1333" cy="1333" fill="#00ab94" r="1333"/><path d="m701 1703c-124 0-220-97-220-220 0-55 22-110 61-150-17-17-30-37-40-58 154-44 202-163 215-311 48 4 93 23 129 56 33 29 56 68 66 110h405c11 0 21 7 26 16 5 10 5 22-2 31l-123 174 25 151c1 8-1 17-7 24s-14 11-23 11h-301c-10 42-33 81-66 110-40 36-91 56-145 56zm393 143c-7 0-14-2-20-7-12-10-14-29-3-42l103-123c10-13 29-15 42-4s14 30 4 42l-103 124c-6 7-15 10-23 10zm479 0c-9 0-17-3-23-10l-103-124c-11-12-9-31 4-42 12-11 31-9 42 4l103 123c11 13 9 32-4 42-5 5-12 7-19 7zm-240 53c-16 0-30-13-30-29v-177c0-17 14-30 30-30 17 0 30 13 30 30v177c0 16-13 29-30 29zm-136-895c-9 0-17-4-23-11l-103-123c-11-13-9-32 3-43 13-10 32-9 43 4l103 123c10 13 9 32-4 43-6 4-13 7-19 7zm273 0c-7 0-14-3-19-7-13-11-15-30-4-43l103-123c11-13 30-14 42-4 13 11 15 30 4 43l-103 123c-6 7-14 11-23 11zm-137 0c-16 0-30-14-30-30v-177c0-16 14-30 30-30 17 0 30 14 30 30v177c0 16-13 30-30 30zm633 699c-54 0-105-20-146-56-33-30-56-68-66-111h-301c-10 0-19-4-24-13l-120-173c-7-10-7-23-1-33l110-173c6-8 15-14 25-14h311c10-42 33-81 66-110 40-36 92-56 146-56 123 0 220 96 220 219 0 56-23 111-61 150 38 40 61 95 61 150 0 123-97 220-220 220zm-1477-461c-5-19-8-39-8-59 0-117 88-210 203-219-12 134-55 234-195 278z" fill="#fff"/></g></svg>