<svg clip-rule="evenodd" fill-rule="evenodd" height="2.667in" image-rendering="optimizeQuality" shape-rendering="geometricPrecision" text-rendering="geometricPrecision" viewBox="0 0 2667 2667" width="2.667in" xmlns="http://www.w3.org/2000/svg"><g id="Layer_x0020_1"><circle cx="1333" cy="1333" fill="#f44c71" r="1333"/><path d="m2064 2186h-1461c-17 0-30-13-30-30v-140c0-17 13-30 30-30h1461c16 0 30 13 30 30v140c0 17-14 30-30 30zm-1111-1445c-11 0-21-6-27-16l-46-87c-8-14-3-32 12-40s33-3 41 12l46 87c8 14 2 32-12 40-5 3-10 4-14 4zm183-74c-14 0-26-9-29-23l-24-96c-4-16 6-33 22-37s33 6 37 22l23 97c4 16-6 32-22 36-3 1-5 1-7 1zm196-26c-16 0-30-14-30-30v-100c0-17 14-30 30-30 17 0 30 13 30 30v100c0 16-13 30-30 30zm197 26c-3 0-5 0-7-1-16-4-26-20-22-36l23-97c4-16 20-26 36-22s26 20 22 37l-23 96c-3 14-16 23-29 23zm183 74c-5 0-10-1-15-4-14-8-19-26-12-41l47-86c8-15 26-20 40-13 15 8 20 26 13 41l-47 87c-5 10-16 16-26 16zm-911 1099 122-900c17-118 98-196 203-196h413c104 0 186 78 202 195l123 901h-452v-327c22-10 42-23 59-41 37-37 58-86 58-139 0-52-21-102-58-139s-86-57-139-57c-52 0-102 20-139 57s-57 87-57 139c0 53 20 102 57 139 17 18 37 31 59 41v327zm578 0h-93v-316c15 4 30 6 46 6s32-2 47-6zm-47-670c91 0 163 72 163 163 0 68-40 125-98 150 0 0-1 0-2 0-5 0-9 2-12 6-16 5-33 7-51 7s-35-2-51-7c-3-4-7-6-12-6-1 0-1 0-2 0-58-25-98-82-98-150 0-91 72-163 163-163zm-646 786v-57c0-16 13-29 30-29h1235c16 0 30 13 30 29v57z" fill="#fff"/></g></svg>