<svg clip-rule="evenodd" fill-rule="evenodd" height="2.667in" image-rendering="optimizeQuality" shape-rendering="geometricPrecision" text-rendering="geometricPrecision" viewBox="0 0 2667 2667" width="2.667in" xmlns="http://www.w3.org/2000/svg"><g id="Layer_x0020_1"><circle cx="1333" cy="1333" fill="#7ed63f" r="1333"/><path d="m688 1714c35-35 82-53 132-53 49 0 97 18 132 53 35 36 54 83 54 133 0 49-19 96-54 132-35 35-82 54-132 54s-97-19-132-54c-36-35-54-83-54-132 0-50 18-97 54-133zm1026-987c-17 0-31-14-31-31v-185c0-17 14-31 31-31s31 14 31 31v185c0 17-14 31-31 31zm442 257h-185c-17 0-31-14-31-31s14-31 31-31h185c17 0 31 14 31 31s-14 31-31 31zm-312-131c-8 0-16-3-22-8-12-12-12-32 0-44l130-130c12-12 32-12 44 0s12 31 0 43l-130 131c-6 5-14 8-22 8zm-917 886c-28-29-67-44-107-44-41 0-79 15-108 44s-44 67-44 108c0 40 15 79 44 107 29 29 67 44 108 44 40 0 79-15 107-44 29-28 44-67 44-107 0-41-15-80-44-108zm475-1012 538 537 99-99-538-538zm-268 133 675 671 210-136-100-100-77 74c-3 3-7 5-12 5-4 0-9-2-12-5-6-7-6-18 0-24l77-74-106-106-77 74c-3 3-7 5-12 5s-9-2-12-5c-6-7-7-18 0-25l77-73-108-107-75 75c-3 3-8 5-12 5-5 0-9-2-12-5-7-7-7-18 0-24l75-76-107-107-74 77c-3 3-7 5-12 5s-9-2-12-5c-7-7-7-17 0-24l74-77-106-106-74 76c-3 4-8 5-12 5-5 0-9-1-12-4-7-7-7-18 0-24l74-77-101-101zm90 480 101 104 77-77-103-102zm-99 99 102 103 74-74-101-104zm-297-105 504 505 448-289-665-661zm260 93 88-87-33-33c-6-6-6-17 1-24 6-6 17-6 24 0l32 33 87-87c7-7 18-7 24 0l127 126c7 7 7 18 0 25l-89 88 31 31c7 7 6 18 0 24-3 4-8 5-12 5-5 0-9-2-12-5l-31-31-86 86c-3 3-7 5-12 5-4 0-9-2-12-5l-127-126c-6-7-6-18 0-25zm-472 665c127 126 332 126 459 0l231-231-500-500-231 231c-127 126-127 332 0 459z" fill="#fff"/></g></svg>