<svg clip-rule="evenodd" fill-rule="evenodd" height="2.667in" image-rendering="optimizeQuality" shape-rendering="geometricPrecision" text-rendering="geometricPrecision" viewBox="0 0 2667 2667" width="2.667in" xmlns="http://www.w3.org/2000/svg"><g id="Layer_x0020_1"><circle cx="1333" cy="1333" fill="#00ab94" r="1333"/><path d="m1753 2186h-839c-64 0-114-50-114-113v-124h1066v124c0 63-49 113-113 113zm-130-1445h-579c-72 0-130-59-130-130s59-130 130-130h579c70 0 130 59 130 130s-58 130-130 130zm-549 129v-99h519v99zm259 886c46 0 80-34 80-80v-53h54c43 0 79-36 79-80 0-46-34-80-79-80h-54v-53c0-46-33-83-80-83-46 0-80 37-80 83v53h-53c-46 0-80 34-80 80 0 44 36 80 80 80h53v53c0 46 34 80 80 80zm-133-259h70c9 0 17-8 17-17v-70c0-27 19-50 46-50 28 0 47 23 47 50v70c0 9 7 17 17 17l70-1c27 0 46 19 46 47 0 26-21 47-46 47h-70c-10 0-17 7-17 16v70c0 28-19 47-47 47-27 0-46-19-46-47v-70c0-9-8-16-17-16h-70c-26 0-47-21-47-47 0-28 19-46 47-46zm133 358c83 0 162-32 222-90 59-60 90-139 90-222s-31-162-90-221c0-1 0 0 0-1-59-58-138-92-222-92-83 0-162 33-221 92-1 1 0 0-1 1-58 59-89 138-89 221s31 162 89 222h1c59 58 138 90 221 90zm-198-114c-108-108-106-288 1-396 108-110 287-110 396 0 106 108 107 288 0 396-108 108-289 108-397 0zm-335 175v-746h1066v746zm0-779v-127c0-60 51-110 114-110h839c62 0 113 50 113 110v127z" fill="#fff"/></g></svg>