<svg clip-rule="evenodd" fill-rule="evenodd" height="2.667in" image-rendering="optimizeQuality" shape-rendering="geometricPrecision" text-rendering="geometricPrecision" viewBox="0 0 2667 2667" width="2.667in" xmlns="http://www.w3.org/2000/svg"><g id="Layer_x0020_1"><circle cx="1333" cy="1333" fill="#1d81ce" r="1333"/><path d="m1883 1986h-1102c-81 0-156-31-213-88-56-56-87-131-87-212 0-156 117-285 267-301-1-13-1-26-1-38 0-89 35-173 97-235 62-64 146-98 236-98 69 0 135 20 191 59 44 31 80 71 104 117 49-32 105-49 161-49 77 0 150 29 205 84 46 45 75 103 83 165 19-4 39-6 59-6 165 0 300 135 300 303 0 80-31 156-88 212s-132 87-212 87zm-303-1009c-83 0-150-66-150-147 0-82 67-149 150-149 82 0 150 67 150 149 0 81-68 147-150 147zm406 370c-110 0-196-87-196-197s88-200 196-200c110 0 200 90 200 200 0 108-90 197-200 197zm-962 53c74 0 136-59 136-133 0-76-61-137-136-137s-134 63-134 137c0 72 61 133 134 133zm103-133c0 56-48 100-103 100s-100-46-100-100c0-56 43-104 100-104s103 46 103 104zm136 376c0-75-61-137-136-137s-137 62-137 137 63 133 137 133 136-58 136-133zm-136-103c57 0 103 45 103 103 0 56-48 100-103 100-56 0-103-44-103-100 0-58 45-103 103-103zm456-70c47 0 90 42 90 90v153c0 48-43 87-90 87-49 0-90-37-90-87v-153c0-49 41-90 90-90zm0-33c-68 0-123 55-123 123v153c0 67 56 120 123 120 65 0 123-54 123-120v-153c0-65-58-123-123-123zm275 224c-21 0-40 8-54 23-15 14-23 33-23 54 0 9 8 16 17 16s17-7 17-16c0-12 4-23 12-31s19-13 31-13c11 0 22 5 30 13l1 1c8 8 12 19 12 30 0 23-37 45-54 57s-35 25-50 40c-7 6-7 17 0 23 3 4 7 5 12 5h118c9 0 17-7 17-16 0-10-8-17-17-17h-70l32-24c24-18 45-37 45-68 0-20-8-38-21-53l-1-1c-15-15-34-23-54-23z" fill="#fff"/></g></svg>