<svg clip-rule="evenodd" fill-rule="evenodd" height="2.667in" image-rendering="optimizeQuality" shape-rendering="geometricPrecision" text-rendering="geometricPrecision" viewBox="0 0 2667 2667" width="2.667in" xmlns="http://www.w3.org/2000/svg"><g id="Layer_x0020_1"><circle cx="1333" cy="1333" fill="#f10" r="1333"/><path d="m1583 1770h-548c1-10 2-20 2-30 0-115-88-207-203-207-55 0-107 21-145 59-40 39-62 92-62 148 0 10 1 20 3 30h-119c-17 0-30-14-30-30v-250h1132v250c0 16-13 30-30 30zm153-876c-7 0-14-3-20-8l-33-30c-12-11-13-30-2-42 11-13 30-14 42-3l33 30c13 11 14 30 3 43-6 6-14 10-23 10zm137 0c-9 0-17-4-23-11-11-13-9-32 4-43l37-30c12-10 31-8 42 5 10 12 8 31-4 42l-37 30c-6 4-12 7-19 7zm-67-37c-16 0-30-13-30-30v-43c0-17 14-30 30-30 17 0 30 13 30 30v43c0 17-13 30-30 30zm-86 117c3-46 40-80 86-80s80 34 83 80zm196 939c-97 0-176-78-176-173 0-48 18-93 52-126 33-33 77-51 124-51 97 0 173 78 173 177 0 97-76 173-173 173zm-4-116c18 0 36-8 47-23 16-19 17-42 5-63-9-17-28-32-48-32-2 0-4 1-6 1-76 15-65 117 2 117zm2-84c20 2 31 24 19 40-6 8-15 13-25 11-23-7-25-44 2-50l2-1zm-1080 200c-97 0-177-78-177-173 0-48 19-93 53-126 33-33 77-51 124-51 97 0 173 78 173 177 0 97-76 173-173 173zm-3-116c19 0 36-8 48-23 15-19 16-42 5-63-10-16-29-32-49-32-2 1-4 1-6 1-76 15-65 117 2 117zm3-84c20 2 31 24 19 40-6 8-15 14-25 11-23-7-26-44 2-50l2-1zm1322 57h-39c2-10 2-20 2-30 0-115-88-207-203-207-55 0-106 21-145 59-40 39-61 92-61 148 0 10 0 20 2 30h-69v-280h543v250c0 16-13 30-30 30zm-127-417c10 0 17-7 17-16v-94c0-4-2-8-4-11l-110-123c-3-3-8-5-12-5h-167c-9 0-17 7-17 16v217c0 9 8 16 17 16zm-259-33v-183h142l101 113v70zm-127 137v-453h286c8 0 16 3 22 8l226 227c6 5 9 13 9 21v197zm-596-85c52 0 96-45 96-97v-70h70c53 0 97-44 97-96 0-53-44-97-97-97h-70v-70c0-52-44-97-96-97s-97 45-97 97v70h-70c-52 0-96 44-96 97 0 52 44 96 96 96h70v70c0 52 45 97 97 97zm-167-327h87c9 0 17-7 17-16v-87c0-34 29-63 63-63s63 29 63 63v87c0 9 8 16 17 16h86c34 0 64 30 64 64s-30 63-64 63h-86c-9 0-17 7-17 16v87c0 34-29 63-63 63s-63-29-63-63v-87c0-9-8-16-17-16h-87c-34 0-63-29-63-63s29-64 63-64zm-399 412v-667c0-16 13-29 30-29h1072c17 0 30 13 30 29v667z" fill="#fff"/></g></svg>