<svg clip-rule="evenodd" fill-rule="evenodd" height="2.667in" image-rendering="optimizeQuality" shape-rendering="geometricPrecision" text-rendering="geometricPrecision" viewBox="0 0 2667 2667" width="2.667in" xmlns="http://www.w3.org/2000/svg"><g id="Layer_x0020_1"><circle cx="1333" cy="1333" fill="#378b4e" r="1333"/><path d="m637 1210v-141h233v141zm1159 0v-141h233v141zm-956 779h-173c-16 0-30-13-30-30v-327h233v327c0 17-13 30-30 30zm1159 0h-173c-16 0-30-13-30-30v-327h233v327c0 17-13 30-30 30zm157-950h-312l210-362h102c17 0 30 14 30 30v302c0 16-13 30-30 30zm0 563h-312l210-362h102c17 0 30 13 30 30v302c0 16-13 30-30 30zm-350 0h-359l209-362h360zm-398 0h-359l210-362h359zm-398 0h-359l210-362h359zm-397 0h-102c-17 0-30-14-30-30v-302c0-17 13-30 30-30h311zm1193-563h-359l209-362h360zm-398 0h-359l210-362h359zm-398 0h-359l210-362h359zm-397 0h-102c-17 0-30-13-30-30v-302c0-16 13-30 30-30h311z" fill="#fff"/></g></svg>