<svg clip-rule="evenodd" fill-rule="evenodd" height="2.667in" image-rendering="optimizeQuality" shape-rendering="geometricPrecision" text-rendering="geometricPrecision" viewBox="0 0 2667 2667" width="2.667in" xmlns="http://www.w3.org/2000/svg"><g id="Layer_x0020_1"><circle cx="1333" cy="1333" fill="#00ab94" r="1333"/><path d="m1113 1367c-54-151-18-305 105-446 53-60 111-106 154-136l6 9 150 152c-187 132-225 228-223 288 2 78 74 120 75 120 5 4 9 8 12 13zm714 648h-1117c-48 0-86 39-86 86 0 45 40 86 86 86h1247c45 0 86-41 86-86 0-47-39-86-86-86zm0-205h-987c-49 0-86 37-86 85s38 86 86 86h987c47 0 86-38 86-86s-37-85-86-85zm-264-206h-620c-48 0-86 38-86 86 0 45 40 85 85 85h782c45 0 86-40 86-85 0-48-39-86-86-86zm0-206c-155 0-314 0-459 0-49 0-86 37-86 86 0 47 38 86 85 86h460c47 0 86-39 86-86 0-49-37-86-86-86zm1-764 135-135c13-13 31-20 49-19 16 1 31 9 40 21l46 45c12 10 19 24 20 40 2 18-6 36-19 49l-134 135zm16 309c-8 0-16-4-22-10l-157-161c-12-12-12-31 0-43l86-86c12-12 31-12 43 0l161 161c6 6 9 14 9 22 0 9-3 16-10 22l-89 86c-5 6-13 9-21 9z" fill="#fff"/></g></svg>