<svg clip-rule="evenodd" fill-rule="evenodd" height="2.667in" image-rendering="optimizeQuality" shape-rendering="geometricPrecision" text-rendering="geometricPrecision" viewBox="0 0 2667 2667" width="2.667in" xmlns="http://www.w3.org/2000/svg"><g id="Layer_x0020_1"><circle cx="1333" cy="1333" fill="#ff700d" r="1333"/><path d="m1888 2186h-1109c-17 0-30-13-30-30v-223h1169v223c0 17-14 30-30 30zm-408-110c9 0 16-7 16-17 0-9-7-16-16-16h-293c-9 0-17 7-17 16 0 10 8 17 17 17zm-551-1454c9 0 16-7 16-16 0-10-7-17-16-17h-24c-9 0-16 7-16 17 0 9 7 16 16 16zm459 0c10 0 17-7 17-16 0-10-7-17-17-17h-113c-9 0-17 7-17 17 0 9 8 16 17 16zm280 673c5 0 9-2 12-5 6-7 6-17 0-24-93-92-217-144-348-144-132 0-255 52-349 145-6 6-6 17 0 23 7 7 17 7 24 0 179-179 468-176 649 0 3 3 8 5 12 5zm-120 120c5 0 9-2 12-5 7-6 6-17 0-23-61-61-142-95-228-95-87 0-168 34-229 95-6 6-6 17 0 23 7 7 17 7 24 0 113-113 295-111 409 0 3 3 8 5 12 5zm-126 126c4 0 8-1 11-4 7-7 7-17 0-24-56-56-147-56-203 0-7 7-7 17 0 24 6 6 17 6 23 0 44-44 112-43 157 0 3 3 7 4 12 4zm-673 358v-1135h1169v1135zm0-1168v-220c0-17 13-30 30-30h1109c16 0 30 13 30 30v220z" fill="#fff"/></g></svg>