<svg clip-rule="evenodd" fill-rule="evenodd" height="2.667in" image-rendering="optimizeQuality" shape-rendering="geometricPrecision" text-rendering="geometricPrecision" viewBox="0 0 2667 2667" width="2.667in" xmlns="http://www.w3.org/2000/svg"><g id="Layer_x0020_1"><circle cx="1333" cy="1333" fill="#f10" r="1333"/><path d="m1989 2163h-1312c-110 0-196-87-196-197v-464h236v76c0 29 24 53 54 53h89c30 0 54-24 54-53v-76h151c8 54 55 96 112 96h313c57 0 104-42 112-96h151v76c0 29 24 53 53 53h90c29 0 53-24 53-53v-76h237v464c0 110-86 197-197 197zm-1079-1349v-180c0-73 56-130 127-130h593c71 0 126 57 126 130v180h-186v-103c0-21-17-37-37-37h-399c-21 0-37 16-37 37v103zm876 578v93 93c0 11 10 20 20 20h90c11 0 20-9 20-20v-93-93c0-11-9-20-20-20h-90c-10 0-20 9-20 20zm-926-20h-89c-11 0-20 9-20 20v93 93c0 11 9 20 20 20h89c11 0 20-9 20-20v-93-93c0-11-9-20-20-20zm826-90c10 0 17-8 17-17s-7-17-17-17h-706c-9 0-16 8-16 17s7 17 16 17zm94-143c9 0 16-8 16-17s-7-17-16-17h-893c-9 0-17 8-17 17s8 17 17 17zm119-144c10 0 17-7 17-16 0-10-7-17-17-17h-1132c-9 0-16 7-16 17 0 9 7 16 16 16zm-566 1049c44 0 74-34 74-76v-47h46c40 0 77-32 77-73 0-43-34-73-77-73h-46v-47c0-42-30-77-74-77-43 0-73 35-73 77v47h-47c-42 0-76 30-76 73 0 41 37 73 76 73h47v47c0 42 30 76 73 76zm-120-236h64c9 0 16-7 16-17v-63c0-23 16-43 40-43 25 0 40 20 40 43v63c0 10 8 17 17 17h63c24 0 44 15 44 40 0 23-22 40-44 40h-63c-9 0-17 7-17 16v64c0 23-15 43-40 43-24 0-40-20-40-43v-64c0-9-7-16-16-16h-64c-22 0-43-17-43-40 0-25 20-40 43-40zm-148-340h-151v-76c0-30-24-54-54-54h-89c-30 0-54 24-54 54v76h-236v-428c0-110 86-196 196-196h1312c111 0 197 86 197 196v428h-237v-76c0-30-24-54-53-54h-90c-29 0-53 24-53 54v76h-151c-8-54-55-96-112-96h-313c-57 0-104 42-112 96zm112-63h313c44 0 80 36 80 80s-36 80-80 80h-313c-44 0-80-36-80-80s36-80 80-80z" fill="#fff"/></g></svg>