<svg clip-rule="evenodd" fill-rule="evenodd" height="2.667in" image-rendering="optimizeQuality" shape-rendering="geometricPrecision" text-rendering="geometricPrecision" viewBox="0 0 2667 2667" width="2.667in" xmlns="http://www.w3.org/2000/svg"><g id="Layer_x0020_1"><circle cx="1333" cy="1333" fill="#7ed63f" r="1333"/><path d="m820 2186c-63 0-113-50-113-113 0-1 0-1 0-2l80-1479c5-65 52-111 113-111 31 0 61 13 82 35 20 22 30 50 28 80l-8 145h662l-8-145c-2-30 8-58 29-80s51-35 81-35c61 0 109 46 113 111v1l80 1478v2c0 63-49 113-113 113-61 0-108-47-113-111 0-1 0-1 0-1l-8-148h-784l-8 148v1c-4 64-52 111-113 111zm902-320-16-316h-745l-17 316zm-19-376-17-313h-706l-16 313zm-20-373-16-317h-668l-16 317z" fill="#fff"/></g></svg>