<svg clip-rule="evenodd" fill-rule="evenodd" height="2.667in" image-rendering="optimizeQuality" shape-rendering="geometricPrecision" text-rendering="geometricPrecision" viewBox="0 0 2667 2667" width="2.667in" xmlns="http://www.w3.org/2000/svg"><g id="Layer_x0020_1"><circle cx="1333" cy="1333" fill="#1d81ce" r="1333"/><g><path d="m658 898 14-14c-1-13-6-25-15-36-11-12-10-30 1-41l236-233c2-2 3-3 5-4 7-5 192-128 381-49 11 5 19 16 18 28 0 12-8 23-19 28-54 20-199 90-223 169-8 25-2 49 16 75 9 12 8 28-3 39l-176 173c-8 8-20 11-30 7-23-8-50-14-61-13-2 1-5 4-8 7zm63 326c-24 0-47-10-64-27l-150-150c-17-17-27-40-27-64 0-25 10-48 27-65s40-26 64-26c25 0 48 9 65 26l150 150c17 17 26 40 26 65 0 24-9 47-26 64s-40 27-65 27zm-56-466c-14-35-7-76 21-105 19-21 43-32 70-32 14 0 27 3 39 9zm1240 1406c-3 0-6 0-8-1-24-2-45-13-60-32l-735-821c-17-19-17-50 1-68l173-170c18-18 50-19 68-1l813 746s0 1 1 1c19 19 29 46 28 72-1 25-11 48-29 64l-183 183s-1 1-1 1c-19 16-44 26-68 26zm18-151c30 0 58-12 79-32 43-43 43-114 0-157-44-43-114-43-157 0s-43 114 0 157c21 21 49 32 78 32zm0-188c21 0 41 8 55 22 31 30 31 80 0 110-30 30-79 30-109 0s-30-80 0-110c14-14 34-22 54-22zm-825-620-166-168 142-139 165 168z" fill="#fff"/></g></g></svg>