<svg clip-rule="evenodd" fill-rule="evenodd" height="2.667in" image-rendering="optimizeQuality" shape-rendering="geometricPrecision" text-rendering="geometricPrecision" viewBox="0 0 2667 2667" width="2.667in" xmlns="http://www.w3.org/2000/svg"><g id="Layer_x0020_1"><circle cx="1333" cy="1333" fill="#f10" r="1333"/><path d="m1579 1629c-9 0-17-4-23-11-7-9-9-21-4-31 2-3 17-42 9-114 164-88 368-306 455-470 83 12 127-7 127-7 11-5 23-4 32 4 9 7 13 19 10 30-69 283-315 529-598 598-3 1-5 1-8 1zm17-894 99-99c6-5 13-8 21-8h1c8 0 15 3 21 9l143 146c12 12 12 31 0 42l-70 70c-78-45-151-102-215-160zm-942 1304c-8 0-16-3-21-9l-144-147c-11-11-11-30 1-42l148-147 295 78-258 258c-5 6-13 9-21 9zm11-373 150-149 295 78-149 150zm177-176 150-149 295 78-150 149zm177-176 274-273c57 63 114 136 158 213l-137 138zm537 124c0-2-1-5-2-7-20-96-86-252-282-457-12-12-11-30 0-42l217-216c11-12 30-12 42-1 201 193 355 260 451 282-85 153-273 353-426 441z" fill="#fff"/></g></svg>