<svg clip-rule="evenodd" fill-rule="evenodd" height="2.667in" image-rendering="optimizeQuality" shape-rendering="geometricPrecision" text-rendering="geometricPrecision" viewBox="0 0 2667 2667" width="2.667in" xmlns="http://www.w3.org/2000/svg"><g id="Layer_x0020_1"><circle cx="1333" cy="1333" fill="#00ab94" r="1333"/><g fill="#fff"><path d="m1649 2186h-633c-33 0-60-27-60-60v-1066c0-33 27-60 60-60h633c33 0 59 27 59 60v1066c0 33-26 60-59 60zm-67-127c9 0 17-7 17-16 0-10-8-17-17-17h-500c-9 0-16 7-16 17 0 9 7 16 16 16zm0-136c9 0 17-8 17-17s-8-17-17-17l-500 1c-9 0-16 7-16 16s7 17 16 17zm0-133c9 0 17-8 17-17s-8-17-17-17h-500c-9 0-16 8-16 17s7 17 16 17zm0-137c9 0 17-7 17-17 0-9-8-16-17-16h-500c-9 0-16 7-16 16 0 10 7 17 16 17zm-17-137c17 0 34-12 34-29v-330c0-18-17-30-34-30h-466c-17 0-33 12-33 30v330c0 17 16 29 33 29zm-466-33v-323h466v323z"/><path d="m1052 970v-376c0-64 50-113 114-113 63 0 113 49 113 113v376z"/><path d="m1372 970v-63c0-17 13-30 30-30h180c17 0 30 13 30 30v63z"/><path d="m1797 1410h-59v-276h59c17 0 30 13 30 29v217c0 17-13 30-30 30z"/><path d="m1797 1753h-59v-276h59c17 0 30 13 30 30v216c0 17-13 30-30 30z"/><path d="m926 1646h-57c-16 0-30-13-30-30v-349c0-17 14-30 30-30h57z"/></g></g></svg>