<svg clip-rule="evenodd" fill-rule="evenodd" height="2.667in" image-rendering="optimizeQuality" shape-rendering="geometricPrecision" text-rendering="geometricPrecision" viewBox="0 0 2667 2667" width="2.667in" xmlns="http://www.w3.org/2000/svg"><g id="Layer_x0020_1"><circle cx="1333" cy="1333" fill="#ff700d" r="1333"/><path d="m924 1765c-17 16-14 55-14 80h102v-92c-25 0-71-4-88 12zm614-693h352v-592h-352zm-88 141h529v-105h-529zm313 36h-313v177c105-59 208-118 313-177zm-145 122 361 259v-381h-144zm50 451 161-256-245-175-134 76v113c0 30-13 46-30 66zm29 20 273 193c5-24 9-40 9-67v-294l-122-87zm-18 30-198 315h226c18-3 38 0 57 0 87 0 150-45 192-119zm-631-10v325h392l210-335-267-189-18 2h-268c-51 0-49 45-49 74zm-36 155h-239c-47 0-85 38-85 85v85h324zm-14-137c-169 2-172-21-172 102h186v-102z" fill="#fff"/></g></svg>