<svg clip-rule="evenodd" fill-rule="evenodd" height="2.667in" image-rendering="optimizeQuality" shape-rendering="geometricPrecision" text-rendering="geometricPrecision" viewBox="0 0 2667 2667" width="2.667in" xmlns="http://www.w3.org/2000/svg"><g id="Layer_x0020_1"><circle cx="1333" cy="1333" fill="#f44c71" r="1333"/><path d="m1876 1450h-1086c-54 0-96-41-96-93v-343h-77c-43 0-76 33-76 76v683c0 42 35 77 76 77h77v-144c0-57 43-100 100-100h70c16 0 30 14 30 30v483c0 17-14 30-30 30h-70c-57 0-100-43-100-100v-140h-77c-75 0-136-61-136-136v-683c0-76 60-136 136-136h77v-340c0-53 43-97 96-97h1086c53 0 97 44 97 97v340h76c77 0 137 60 137 136v683c0 75-61 136-137 136h-76v140c0 57-43 100-100 100h-70c-17 0-30-13-30-30v-483c0-16 13-30 30-30h70c57 0 100 43 100 100v144h76c42 0 77-35 77-77v-683c0-43-33-76-77-76h-76v343c0 52-43 93-97 93zm-619 463h-150c-17 0-30-14-30-30 0-17 13-30 30-30h134l91-131c8-10 21-15 34-11s21 16 21 29v180l49-71c5-8 15-13 24-13h100c17 0 30 14 30 30 0 17-13 30-30 30h-84l-94 137c-6 8-16 13-25 13-3 0-6 0-9-1-13-4-21-16-21-29v-181l-44 63c-6 9-15 15-26 15zm-323 130h-10v-330h10c55 0 100 45 100 100v130c0 55-45 100-100 100zm809 0h-10c-55 0-100-45-100-100v-130c0-55 45-100 100-100h10zm71-989c10 0 17-8 17-17v-107c0-9-7-16-17-16h-242c-10 0-17 7-17 16v107c0 9 7 17 17 17zm-226-34v-73h210v73zm226 277c10 0 17-8 17-17v-107c0-9-7-16-17-16h-242c-10 0-17 7-17 16v107c0 9 7 17 17 17zm-226-34v-73h210v73zm226-453c10 0 17-7 17-16v-107c0-9-7-16-17-16h-242c-10 0-17 7-17 16v107c0 9 7 16 17 16zm-226-33v-73h210v73zm-143 520c9 0 17-8 17-17v-593c0-9-8-16-17-16h-593c-9 0-16 7-16 16v593c0 9 7 17 16 17zm-576-34v-226h100c5 0 10-2 13-7l77-109 24 75c2 6 7 10 13 11s13-2 16-7l83-120v264c0 7 5 13 12 15 2 1 3 1 5 1 5 0 10-3 13-7l115-166h88v276zm0-259v-300h559v250h-96c-6 0-11 2-14 7l-90 129v-263c0-7-4-14-11-16s-15 1-19 7l-94 135-23-74c-2-6-7-10-13-11s-13 1-16 6l-92 130z" fill="#fff"/></g></svg>