<svg id="Capa_1" enable-background="new 0 0 512 512" height="512" viewBox="0 0 512 512" width="512" xmlns="http://www.w3.org/2000/svg"><g><path d="m331.5 75.5-105.5 180.5 105.5 180.5c99.528 0 180.5-80.972 180.5-180.5s-80.972-180.5-180.5-180.5z" fill="#4fdbff"/><path d="m180.5 75.5c-99.528 0-180.5 80.972-180.5 180.5s80.972 180.5 180.5 180.5h151v-361z" fill="#8ae7ff"/><path d="m331.5 376.5h-151c-66.444 0-120.5-54.056-120.5-120.5s54.056-120.5 120.5-120.5h151z" fill="#373e9f"/><path d="m331.5 135.5-75.5 120.5 75.5 120.5c66.55 0 120.5-53.95 120.5-120.5s-53.95-120.5-120.5-120.5z" fill="#3b88f5"/><path d="m211 256c0 66.55 53.95 120.5 120.5 120.5v-241c-66.55 0-120.5 53.95-120.5 120.5z" fill="#28abfa"/></g></svg>