<svg id="Capa_1" enable-background="new 0 0 512 512" height="512" viewBox="0 0 512 512" width="512" xmlns="http://www.w3.org/2000/svg"><g><path d="m362 437v75h-106l-75-150z" fill="#28abfa"/><path d="m0 150h256v362h-256z" fill="#14cfff"/><path d="m256 0 60 105h-166v-105z" fill="#ffe7b5"/><path d="m512 0v362h-75-181v-362z" fill="#ffd06a"/><path d="m437 362v75h-75l-30-105z" fill="#373e9f"/><path d="m362 332v105h-106l-30-105z" fill="#3a6fd8"/><path d="m150 75 60 135-135-60v-75z" fill="#6241ea"/><path d="m75 150h181v287h-181z" fill="#3b88f5"/><path d="m437 75v287h-75l-166-106 60-181z" fill="#2db94d"/><path d="m256 75v181l-106-106v-75z" fill="#61ce5a"/><path d="m362 150v212h-106l-60-106 60-106z" fill="#61ce5a"/><path d="m150 150h106v212h-106z" fill="#94e368"/></g></svg>