<svg id="Capa_1" enable-background="new 0 0 512 512" height="512" viewBox="0 0 512 512" width="512" xmlns="http://www.w3.org/2000/svg"><g><path d="m308.5 451.987h-82.5l30-80h52.5z" fill="#83a3ab"/><path d="m203.5 371.987h52.5v80h-52.5z" fill="#93b7c0"/><path d="m353.5 234.5v-137c0-53.762-43.738-97.5-97.5-97.5l-75 166 75 166c53.762 0 97.5-43.738 97.5-97.5z" fill="#728e95"/><path d="m158.5 97.5v137c0 53.762 43.738 97.5 97.5 97.5v-332c-53.762 0-97.5 43.738-97.5 97.5z" fill="#83a3ab"/><path d="m443.5 512c0-41.355-33.645-75-75-75h-112.5l-60 37.5 60 37.5z" fill="#93b7c0"/><path d="m413.5 234.5v-68.5h-30v68.5c0 70.304-57.196 127.5-127.5 127.5l-15 15 15 15c86.846 0 157.5-70.654 157.5-157.5z" fill="#acd5df"/><path d="m128.5 234.5v-68.5h-30v68.5c0 86.846 70.654 157.5 157.5 157.5v-30c-70.304 0-127.5-57.196-127.5-127.5z" fill="#c4f3ff"/><path d="m143.5 437c-41.355 0-75 33.645-75 75h187.5v-75z" fill="#acd5df"/></g></svg>