<svg id="Capa_1" enable-background="new 0 0 512 512" height="512" viewBox="0 0 512 512" width="512" xmlns="http://www.w3.org/2000/svg"><g><path d="m422 105v151l15 30 15-30v-151z" fill="#94e368"/><path d="m252.323 30-90 286 169.677-60v-226z" fill="#6241ea"/><path d="m252.323 482h79.677v-226h-139.677z" fill="#4b27a8"/><path d="m100.323 135h-100.323v121l160.323 45z" fill="#c4f3ff"/><path d="m0 256v121h100.323l60-121z" fill="#acd5df"/><path d="m512 165h-30v91l15 30 15-30z" fill="#94e368"/><path d="m482 256h30v91h-30z" fill="#61ce5a"/><path d="m422 256h30v151h-30z" fill="#61ce5a"/><path d="m362 165v91l15 30 15-30v-91z" fill="#94e368"/><path d="m362 256h30v91h-30z" fill="#61ce5a"/><path d="m252.323 256v-226l-152 105v121l76 60z" fill="#acd5df"/><path d="m100.323 256v121l152 105v-226z" fill="#83a3ab"/></g></svg>