<svg id="Capa_1" enable-background="new 0 0 512 512" height="512" viewBox="0 0 512 512" width="512" xmlns="http://www.w3.org/2000/svg"><g><path d="m308.5 0-112.5 30v422h263.5l30-60v-392z" fill="#3a6fd8"/><path d="m22.5 0v392l30 60h203.5v-422l-52.5-30z" fill="#3b88f5"/><path d="m429.5 60h-173.5l-173.5 412h347z" fill="#ffe7b5"/><path d="m82.5 60h173.5v412h-173.5z" fill="#fff"/><path d="m489.5 362h-150v15c0 24.813-20.187 45-45 45h-38.5l-50 45 50 45h233.5z" fill="#3b88f5"/><path d="m217.5 422c-24.813 0-45-20.187-45-45v-15h-150v150h233.5v-90z" fill="#28abfa"/><path d="m308.5 120v-120h-52.5l-20 120 20 113.5 113.5-113.5z" fill="#ff3e3a"/><path d="m203.5 0v120h-61l113.5 113.5v-233.5z" fill="#ff5d34"/></g></svg>