<svg id="Capa_1" enable-background="new 0 0 512 512" height="512" viewBox="0 0 512 512" width="512" xmlns="http://www.w3.org/2000/svg"><g><path d="m30 210h55.809v30h-55.809z" fill="#93b7c0"/><path d="m426.191 210h55.809v30h-55.809z" fill="#667e97"/><path d="m256 0-20 15 20 15h45.5v45h30v-75z" fill="#93b7c0"/><path d="m180.5 0v75h30v-45h45.5v-30z" fill="#acd5df"/><path d="m429.5 437-257-90 83.5 165h173.5z" fill="#667e97"/><path d="m82.5 437v75h173.5v-135z" fill="#728e95"/><path d="m260.675 150 82.075 287h86.75l15.85-287z" fill="#728e95"/><path d="m196 150 60 287h86.75l7.925-287z" fill="#83a3ab"/><path d="m66.65 150 15.85 287h86.75l52.075-287z" fill="#acd5df"/><path d="m161.325 150 7.925 287h86.75v-287z" fill="#93b7c0"/><path d="m474.5 135c0-41.355-33.645-75-75-75h-143.5l-50 60 50 60h218.5z" fill="#667e97"/><path d="m112.5 60c-41.355 0-75 33.645-75 75v45h218.5v-120z" fill="#728e95"/></g></svg>