<svg id="Capa_1" enable-background="new 0 0 512 512" height="512" viewBox="0 0 512 512" width="512" xmlns="http://www.w3.org/2000/svg"><g><path d="m512 0h-60l-293.5 256 120 256h233.5z" fill="#3857bc"/><path d="m45 0v512h233.5v-256l-173.5-256z" fill="#3a6fd8"/><path d="m218.5 20v412h117.178c18.165 12.596 40.169 20 63.822 20 28.875 0 52.5-23.625 52.5-52.5v-399.5h-60z" fill="#c4f3ff"/><path d="m105 0v432h173.5v-412l-113.5-20z" fill="#fff"/><path d="m347 399.5v-7.5h-68.5l-30 30 30 30h121c-28.875 0-52.5-23.625-52.5-52.5z" fill="#8ae7ff"/><path d="m0 392v7.5c0 28.875 23.625 52.5 52.5 52.5h226v-60z" fill="#c4f3ff"/><path d="m362 0h-83.5l-30 45 30 15h98.5z" fill="#83a3ab"/><path d="m195 0-15 60h98.5v-60z" fill="#93b7c0"/><path d="m392 0h-30v120h-83.5l-20 15 20 15h113.5z" fill="#93b7c0"/><path d="m195 120v-120h-30v150h113.5v-30z" fill="#acd5df"/></g></svg>