<svg id="Capa_1" enable-background="new 0 0 512 512" height="512" viewBox="0 0 512 512" width="512" xmlns="http://www.w3.org/2000/svg"><g><path d="m316 0-196 492h265.069c16.508 12.257 40.428 20 66.931 20 33 0 60-27 60-60v-452z" fill="#8ae7ff"/><path d="m120 0h196v492h-196z" fill="#c4f3ff"/><path d="m392 452h-76l-30 30 30 30h136c-33 0-60-27-60-60z" fill="#4fdbff"/><path d="m0 452c0 33 27 60 60 60h256v-60z" fill="#8ae7ff"/><path d="m422 271h-106l-10 15 10 15h106z" fill="#340d66"/><path d="m210 271h106v30h-106z" fill="#373e9f"/><path d="m422 211h-106l-10 15 10 15h106z" fill="#340d66"/><path d="m210 211h106v30h-106z" fill="#373e9f"/><path d="m422 151h-106l-10 15 10 15h106z" fill="#340d66"/><path d="m210 151h106v30h-106z" fill="#373e9f"/></g></svg>