<?xml version="1.0" encoding="iso-8859-1"?>
<!-- Generator: Adobe Illustrator 19.0.0, SVG Export Plug-In . SVG Version: 6.00 Build 0)  -->
<svg version="1.1" id="Capa_1" xmlns="http://www.w3.org/2000/svg" xmlns:xlink="http://www.w3.org/1999/xlink" x="0px" y="0px"
	 viewBox="0 0 512 512" style="enable-background:new 0 0 512 512;" xml:space="preserve">
<path style="fill:#E1E4FB;" d="M497,180c0,90.899-74.099,165-165,165c-45.601,0-87.001-18.6-116.7-48.3
	C185.6,266.999,167,225.599,167,180c0-90.901,74.099-165,165-165c45.601,0,86.7,18.6,116.7,48.3C478.4,93.3,497,134.399,497,180z"/>
<path style="fill:#C5C9F7;" d="M497,180c0,90.899-74.099,165-165,165c-45.601,0-87.001-18.6-116.7-48.3L448.7,63.3
	C478.4,93.3,497,134.399,497,180z"/>
<path style="fill:#063E8B;" d="M225.801,307.2L175.7,357.299c-6.899,7.2-15.599,5.4-20.999,0c-5.402-5.099-6.901-14.099,0-21
	L204.8,286.2c6.899-7.2,15.601-5.4,21,0C231.2,291.299,232.7,300.3,225.801,307.2z"/>
<path style="fill:#18A7FC;" d="M436.099,140.4l-45,120c-4.799,12.9-23.399,12.9-28.198,0l-30.3-81L332,177.6l-1.5,3.9l-29.401,78.9
	c-4.499,11.7-23.699,11.7-28.198,0l-5.7-15.601l-39.3-104.399c-6.901-18.9,21.299-29.099,28.198-10.8L287,212.399l30.901-82.798
	c4.499-11.7,23.699-11.7,28.198,0L356,156l21,56.398l30.901-82.798C414.8,111.301,443,121.5,436.099,140.4z"/>
<g>
	<path style="fill:#1689FC;" d="M267.201,244.799l63.3-63.3l-29.401,78.9c-4.499,11.7-23.699,11.7-28.198,0L267.201,244.799z"/>
	<path style="fill:#1689FC;" d="M436.099,140.4l-45,120c-4.799,12.9-23.399,12.9-28.198,0l-30.3-81L356,156l21,56.398l30.901-82.798
		C414.8,111.301,443,121.5,436.099,140.4z"/>
</g>
<path style="fill:#032E68;" d="M225.801,307.2L175.7,357.299c-6.899,7.2-15.599,5.4-20.999,0l71.1-71.1
	C231.2,291.299,232.7,300.3,225.801,307.2z"/>
<path style="fill:#FD003A;" d="M175.699,336.299c-16.5-16.199-45.298-17.999-63.3,0l-99.2,98.827C4.501,443.525,0,454.925,0,466.926
	c0,11.999,4.501,23.399,13.2,31.8c17.401,17.699,45.901,17.699,63.6,0l98.899-99.126c8.701-8.401,13.2-19.801,13.2-31.501
	C188.899,354.899,183.8,343.799,175.699,336.299z"/>
<path style="fill:#E50027;" d="M175.699,336.299c8.101,7.5,13.2,18.6,13.2,31.8c0,11.7-4.499,23.101-13.2,31.501L76.8,498.726
	c-17.699,17.699-46.199,17.699-63.6,0L175.699,336.299z"/>
<path style="fill:#C5C9F7;" d="M459.2,52.8C426.799,20.099,381.799,0,332,0c-99.3,0-180,80.7-180,180
	c0,49.799,20.099,94.799,52.8,127.2C237.201,339.899,282.201,360,332,360c99.3,0,180-80.7,180-180
	C512,130.199,491.901,85.201,459.2,52.8z M332,330c-41.4,0-79.2-16.8-106.199-43.801C198.8,259.2,182,221.4,182,180
	c0-82.8,67.2-150,150-150c41.4,0,78.9,16.8,106.199,43.801C465.2,101.1,482,138.6,482,180C482,262.8,414.8,330,332,330z"/>
<path style="fill:#A8AFF1;" d="M512,180c0,99.3-80.7,180-180,180c-49.799,0-94.799-20.101-127.2-52.8l21-21
	c27,27,64.8,43.8,106.2,43.8c82.8,0,150-67.2,150-150c0-41.4-16.8-78.9-43.801-106.199l21-21C491.901,85.201,512,130.199,512,180z"
	/>
<g>
</g>
<g>
</g>
<g>
</g>
<g>
</g>
<g>
</g>
<g>
</g>
<g>
</g>
<g>
</g>
<g>
</g>
<g>
</g>
<g>
</g>
<g>
</g>
<g>
</g>
<g>
</g>
<g>
</g>
</svg>
