<?xml version="1.0" encoding="iso-8859-1"?>
<!-- Generator: Adobe Illustrator 19.0.0, SVG Export Plug-In . SVG Version: 6.00 Build 0)  -->
<svg version="1.1" id="Capa_1" xmlns="http://www.w3.org/2000/svg" xmlns:xlink="http://www.w3.org/1999/xlink" x="0px" y="0px"
	 viewBox="0 0 512 512" style="enable-background:new 0 0 512 512;" xml:space="preserve">
<path style="fill:#0A4EAF;" d="M467,391H225c-8.401,0-15,6.599-15,15c0,8.399,6.599,15,15,15c19.799,0,19.799,30,0,30
	c-8.401,0-15,6.599-15,15c0,8.399,6.599,15,15,15h242C526.399,481,526.399,391,467,391z"/>
<path style="fill:#063E8B;" d="M467,481H255v-90h212C526.399,391,526.399,481,467,481z"/>
<path style="fill:#E1E4FB;" d="M497,76v240c0,16.5-13.5,30-30,30H45c-16.5,0-30-13.5-30-30V76c0-16.5,13.5-30,30-30h422
	C483.5,46,497,59.5,497,76z"/>
<path style="fill:#C5C9F7;" d="M467,346H255V46h212c16.5,0,30,13.5,30,30v240C497,332.5,483.5,346,467,346z"/>
<g>
	<path style="fill:#FD003A;" d="M255,402.1c-7.2-6.899-17.1-11.1-30-11.1H45c-59.399,0-59.399,90,0,90h180c12.9,0,22.8-4.2,30-11.1
		C274.501,453.1,274.501,418.9,255,402.1z"/>
	<path style="fill:#FD003A;" d="M352.8,183.1L255,124.3l-52.2-31.2c-10.201-6-22.8,1.2-22.8,12.9v180c0,11.7,12.599,18.9,22.8,12.9
		l52.2-31.2l97.8-58.801C362.401,202.899,362.401,189.099,352.8,183.1z"/>
</g>
<g>
	<path style="fill:#E50027;" d="M255,402.1c19.501,16.8,19.501,51,0,67.8V402.1z"/>
	<path style="fill:#E50027;" d="M352.8,208.9L255,267.7V124.3l97.8,58.801C362.401,189.099,362.401,202.899,352.8,208.9z"/>
</g>
<path style="fill:#0A4EAF;" d="M467,31H45C20.099,31,0,51.099,0,76v240c0,24.899,20.099,45,45,45h422c24.901,0,45-20.101,45-45V76
	C512,51.099,491.901,31,467,31z M482,316c0,8.399-6.599,15-15,15H45c-8.401,0-15-6.601-15-15V76c0-8.401,6.599-15,15-15h422
	c8.401,0,15,6.599,15,15V316z"/>
<path style="fill:#063E8B;" d="M512,76v240c0,24.899-20.099,45-45,45H255v-30h212c8.401,0,15-6.601,15-15V76c0-8.401-6.599-15-15-15
	H255V31h212C491.901,31,512,51.099,512,76z"/>
<g>
</g>
<g>
</g>
<g>
</g>
<g>
</g>
<g>
</g>
<g>
</g>
<g>
</g>
<g>
</g>
<g>
</g>
<g>
</g>
<g>
</g>
<g>
</g>
<g>
</g>
<g>
</g>
<g>
</g>
</svg>
