<?xml version="1.0" encoding="iso-8859-1"?>
<!-- Generator: Adobe Illustrator 19.0.0, SVG Export Plug-In . SVG Version: 6.00 Build 0)  -->
<svg version="1.1" id="Capa_1" xmlns="http://www.w3.org/2000/svg" xmlns:xlink="http://www.w3.org/1999/xlink" x="0px" y="0px"
	 viewBox="0 0 512 512" style="enable-background:new 0 0 512 512;" xml:space="preserve">
<path style="fill:#0A4EAF;" d="M467,31H45C20.099,31,0,51.099,0,76v90c0,8.401,6.599,15,15,15h482c8.401,0,15-6.599,15-15V76
	C512,51.099,491.901,31,467,31z"/>
<path style="fill:#063E8B;" d="M512,76v90c0,8.401-6.599,15-15,15H255V31h212C491.901,31,512,51.099,512,76z"/>
<path style="fill:#1DE8F1;" d="M0,151v285c0,24.901,20.099,45,45,45h422c24.901,0,45-20.099,45-45V151H0z"/>
<path style="fill:#1BD9DE;" d="M512,151v285c0,24.901-20.099,45-45,45H255V151H512z"/>
<path style="fill:#FFBC33;" d="M338.68,363.52L409.959,316l-71.279-47.52c-16.435-10.957,0.049-35.976,16.641-24.961l90,60
	c8.898,5.932,8.898,19.029,0,24.961l-90,60C338.819,399.418,322.072,374.591,338.68,363.52z"/>
<g>
	<path style="fill:#FFDE33;" d="M156.68,388.48l-90-60c-8.898-5.932-8.898-19.029,0-24.961l90-60
		c16.444-10.986,33.162,13.946,16.641,24.961L102.041,316l71.279,47.52C189.657,374.411,173.398,399.563,156.68,388.48z"/>
	<path style="fill:#FFDE33;" d="M301.099,230.799L255,363.1l-15.901,47.699c-6.299,18.9-34.499,9.3-28.198-9.598L255,268.9
		l15.901-47.699C277.2,202.301,307.4,211.901,301.099,230.799z"/>
</g>
<path style="fill:#FFBC33;" d="M301.099,230.799L255,363.1v-94.2l15.901-47.699C277.2,202.301,307.4,211.901,301.099,230.799z"/>
<g>
	<circle style="fill:#E1E4FB;" cx="75" cy="106" r="15"/>
	<circle style="fill:#E1E4FB;" cx="135" cy="106" r="15"/>
	<path style="fill:#E1E4FB;" d="M437,121H255c-19.799,0-19.799-30,0-30h182C456.799,91,456.799,121,437,121z"/>
</g>
<path style="fill:#C5C9F7;" d="M437,121H255V91h182C456.799,91,456.799,121,437,121z"/>
<g>
</g>
<g>
</g>
<g>
</g>
<g>
</g>
<g>
</g>
<g>
</g>
<g>
</g>
<g>
</g>
<g>
</g>
<g>
</g>
<g>
</g>
<g>
</g>
<g>
</g>
<g>
</g>
<g>
</g>
</svg>
