<?xml version="1.0" encoding="iso-8859-1"?>
<!-- Generator: Adobe Illustrator 19.0.0, SVG Export Plug-In . SVG Version: 6.00 Build 0)  -->
<svg version="1.1" id="Capa_1" xmlns="http://www.w3.org/2000/svg" xmlns:xlink="http://www.w3.org/1999/xlink" x="0px" y="0px"
	 viewBox="0 0 512 512" style="enable-background:new 0 0 512 512;" xml:space="preserve">
<path style="fill:#FEDB41;" d="M359.55,105c0,57.99-47.01,106.988-105,106.988s-105-48.998-105-106.988s47.01-105,105-105
	S359.55,47.01,359.55,105z"/>
<path style="fill:#FFCC33;" d="M359.55,105c0-57.99-47.01-105-105-105v211.988C312.539,211.988,359.55,162.99,359.55,105z"/>
<path style="fill:#FEA832;" d="M254.55,181.988c-41.353,0-75-35.635-75-76.988s33.647-75,75-75s75,33.647,75,75
	S295.902,181.988,254.55,181.988z"/>
<path style="fill:#FE9923;" d="M329.55,105c0-41.353-33.647-75-75-75v151.988C295.902,181.988,329.55,146.353,329.55,105z"/>
<path style="fill:#E1E4FB;" d="M314.55,331.988h-120c-8.401,0-15,6.599-15,15v150c0,11.1,11.7,18.3,21.599,13.5l120-60
	c5.101-2.701,8.401-7.8,8.401-13.5v-90C329.55,338.587,322.95,331.988,314.55,331.988z"/>
<g>
	<path style="fill:#C5C9F7;" d="M329.55,346.988v90c0,5.7-3.3,10.8-8.401,13.5l-66.599,33.3v-151.8h60
		C322.95,331.988,329.55,338.587,329.55,346.988z"/>
	<path style="fill:#C5C9F7;" d="M467.45,181.988H44.55c-13.2,0-20.099,16.5-10.499,25.499l146.4,146.4h148.198l149.301-146.4
		C487.55,198.487,480.651,181.988,467.45,181.988z"/>
</g>
<path style="fill:#E1E4FB;" d="M467.45,121.988H44.55c-59.399,0-59.399,90,0,90h422.9C526.85,211.988,526.85,121.988,467.45,121.988
	z"/>
<path style="fill:#A8AFF1;" d="M477.95,207.487l-149.301,146.4H254.55V181.988h212.9C480.651,181.988,487.55,198.487,477.95,207.487
	z"/>
<path style="fill:#C5C9F7;" d="M467.45,211.988h-212.9v-90h212.9C526.85,121.988,526.85,211.988,467.45,211.988z"/>
<g>
</g>
<g>
</g>
<g>
</g>
<g>
</g>
<g>
</g>
<g>
</g>
<g>
</g>
<g>
</g>
<g>
</g>
<g>
</g>
<g>
</g>
<g>
</g>
<g>
</g>
<g>
</g>
<g>
</g>
</svg>
