<?xml version="1.0" encoding="iso-8859-1"?>
<!-- Generator: Adobe Illustrator 19.0.0, SVG Export Plug-In . SVG Version: 6.00 Build 0)  -->
<svg version="1.1" id="Capa_1" xmlns="http://www.w3.org/2000/svg" xmlns:xlink="http://www.w3.org/1999/xlink" x="0px" y="0px"
	 viewBox="0 0 512 512" style="enable-background:new 0 0 512 512;" xml:space="preserve">
<path style="fill:#FE9923;" d="M482,257c0-8.276-6.724-15-15-15h-62c-8.291,0-15-6.709-15-15v-60c0-8.291,6.709-15,15-15h62
	c24.814,0,45,20.186,45,45v60C512,276.773,482,276.854,482,257z"/>
<path style="fill:#FEA832;" d="M120,287c0,8.291-6.709,15-15,15H15c-8.291,0-15-6.709-15-15V137c0-24.814,20.186-45,45-45h60
	c8.291,0,15,6.709,15,15V287z"/>
<path style="fill:#E1E4FB;" d="M405,0H105c-8.401,0-15,6.599-15,15v272c0,8.401,6.599,15,15,15h221.4
	c17.401,0,32.699-9.6,40.499-24.901C373.5,263.301,379.799,242,393.6,242H405c8.401,0,15-6.599,15-15V15C420,6.599,413.401,0,405,0z
	"/>
<path style="fill:#C5C9F7;" d="M420,15v212c0,8.401-6.599,15-15,15h-11.4c-13.801,0-20.099,21.301-26.7,35.099
	C359.099,292.4,343.801,302,326.4,302H255V0h150C413.401,0,420,6.599,420,15z"/>
<g>
	<path style="fill:#0A4EAF;" d="M345,92H165c-19.799,0-19.799-30,0-30h180C364.799,62,364.799,92,345,92z"/>
	<path style="fill:#0A4EAF;" d="M345,152H165c-19.799,0-19.799-30,0-30h180C364.799,122,364.799,152,345,152z"/>
	<path style="fill:#0A4EAF;" d="M345,212H165c-19.799,0-19.799-30,0-30h180C364.799,182,364.799,212,345,212z"/>
</g>
<g>
	<path style="fill:#063E8B;" d="M345,212h-90v-30h90C364.799,182,364.799,212,345,212z"/>
	<path style="fill:#063E8B;" d="M345,152h-90v-30h90C364.799,122,364.799,152,345,152z"/>
	<path style="fill:#063E8B;" d="M345,92h-90V62h90C364.799,62,364.799,92,345,92z"/>
</g>
<path style="fill:#FEDB41;" d="M467,212h-73.4c-32.1,0-39.901,23.699-53.699,51.899c-2.401,5.101-7.8,8.101-13.5,8.101H0v195
	c0,24.901,20.099,45,45,45h422c24.901,0,45-20.099,45-45V257C512,232.099,491.901,212,467,212z"/>
<path style="fill:#FFCC33;" d="M512,257v210c0,24.901-20.099,45-45,45H255V272h71.4c5.7,0,11.1-2.999,13.5-8.101
	c13.799-28.2,21.6-51.899,53.7-51.899H467C491.901,212,512,232.099,512,257z"/>
<g>
</g>
<g>
</g>
<g>
</g>
<g>
</g>
<g>
</g>
<g>
</g>
<g>
</g>
<g>
</g>
<g>
</g>
<g>
</g>
<g>
</g>
<g>
</g>
<g>
</g>
<g>
</g>
<g>
</g>
</svg>
