<?xml version="1.0" encoding="iso-8859-1"?>
<!-- Generator: Adobe Illustrator 19.0.0, SVG Export Plug-In . SVG Version: 6.00 Build 0)  -->
<svg version="1.1" id="Capa_1" xmlns="http://www.w3.org/2000/svg" xmlns:xlink="http://www.w3.org/1999/xlink" x="0px" y="0px"
	 viewBox="0 0 512 512" style="enable-background:new 0 0 512 512;" xml:space="preserve">
<path style="fill:#E1E4FB;" d="M270,347v90c0,9.899-7.5,15-15,15s-15-5.101-15-15v-90c0-9.901,7.5-15,15-15S270,337.099,270,347z"/>
<path style="fill:#C5C9F7;" d="M433.514,345.14l-66.16-36.665c-17.251-9.873-2.27-35.926,14.883-26.045l66.16,36.665
	C465.691,328.992,450.577,354.951,433.514,345.14z"/>
<g>
	<path style="fill:#E1E4FB;" d="M63.604,319.095l64.16-36.665c16.944-9.821,32.232,16.116,14.883,26.045l-64.16,36.665
		C61.423,354.951,46.309,328.992,63.604,319.095z"/>
	<path style="fill:#E1E4FB;" d="M136.86,403.514l43.374-75.894c9.831-17.239,35.902-2.341,26.045,14.883l-43.374,75.894
		C153.074,435.614,127.013,420.721,136.86,403.514z"/>
</g>
<g>
	<path style="fill:#C5C9F7;" d="M347.095,418.396l-43.374-75.894c-9.815-17.15,16.153-32.176,26.045-14.883l43.374,75.894
		C382.987,420.721,356.926,435.614,347.095,418.396z"/>
	<path style="fill:#C5C9F7;" d="M270,347v90c0,9.899-7.5,15-15,15V332C262.5,332,270,337.099,270,347z"/>
</g>
<path style="fill:#1689FC;" d="M467,392c-24.814,0-45-20.186-45-45s20.186-45,45-45s45,20.186,45,45S491.814,392,467,392z"/>
<g>
	<path style="fill:#18A7FC;" d="M45,392c-24.814,0-45-20.186-45-45s20.186-45,45-45s45,20.186,45,45S69.814,392,45,392z"/>
	<path style="fill:#18A7FC;" d="M255,422c-24.901,0-45,20.099-45,45c0,24.899,20.099,45,45,45s45-20.101,45-45
		C300,442.099,279.901,422,255,422z"/>
	<path style="fill:#18A7FC;" d="M135,482c-24.814,0-45-20.186-45-45s20.186-45,45-45s45,20.186,45,45S159.814,482,135,482z"/>
</g>
<g>
	<path style="fill:#1689FC;" d="M375,482c-24.814,0-45-20.186-45-45s20.186-45,45-45s45,20.186,45,45S399.814,482,375,482z"/>
	<path style="fill:#1689FC;" d="M300,467c0,24.899-20.099,45-45,45v-90C279.901,422,300,442.099,300,467z"/>
</g>
<path style="fill:#FEDB41;" d="M255,0C155.7,0,75,80.7,75,180s80.7,182,180,182s180-82.7,180-182S354.3,0,255,0z"/>
<path style="fill:#FFCC33;" d="M435,180c0,99.3-80.7,182-180,182V0C354.3,0,435,80.7,435,180z"/>
<path style="fill:#18A7FC;" d="M301.8,157.2c8.101-10.201,13.2-23.101,13.2-37.2c0-33.001-27.001-60-60-60s-60,26.999-60,60
	c0,14.099,5.099,26.999,13.2,37.2C182.701,169.2,165,195,165,225v32c0,8.399,6.599,15,15,15h150c8.401,0,15-6.601,15-15v-32
	C345,195,327.299,169.2,301.8,157.2z"/>
<path style="fill:#1689FC;" d="M330,272c8.401,0,15-6.601,15-15v-32c0-30-17.701-55.8-43.2-67.8c8.101-10.201,13.2-23.101,13.2-37.2
	c0-33.001-27.001-60-60-60v212H330z"/>
<g>
</g>
<g>
</g>
<g>
</g>
<g>
</g>
<g>
</g>
<g>
</g>
<g>
</g>
<g>
</g>
<g>
</g>
<g>
</g>
<g>
</g>
<g>
</g>
<g>
</g>
<g>
</g>
<g>
</g>
</svg>
