<?xml version="1.0" encoding="iso-8859-1"?>
<!-- Generator: Adobe Illustrator 19.0.0, SVG Export Plug-In . SVG Version: 6.00 Build 0)  -->
<svg version="1.1" id="Capa_1" xmlns="http://www.w3.org/2000/svg" xmlns:xlink="http://www.w3.org/1999/xlink" x="0px" y="0px"
	 viewBox="0 0 512 512" style="enable-background:new 0 0 512 512;" xml:space="preserve">
<path style="fill:#E1E4FB;" d="M373.449,248.601c-30-44.401-39.6-59.401-42.599-64.501V75c0-8.401-7.2-15-15.601-15H195.85
	c-8.401,0-15,6.599-15,15v109.1c-3.001,5.099-12.601,20.099-42.601,64.501c-6.9,9.899,0.3,23.399,12.301,23.399h210.6
	C373.149,272,380.349,258.5,373.449,248.601z"/>
<path style="fill:#C5C9F7;" d="M361.15,272H255.249V60h60c8.401,0,15.601,6.599,15.601,15v109.1
	c2.999,5.099,12.599,20.099,42.599,64.501C380.349,258.5,373.149,272,361.15,272z"/>
<path style="fill:#66BD21;" d="M473.35,394.401c-45.901-67.2-61.8-89.7-104.101-152.401h-226.8
	c-31.199,47.1-67.8,99.3-103.799,152.401C4.75,443,38.65,512,100.45,512h311.1C473.35,512,507.25,443,473.35,394.401z"/>
<path style="fill:#5DAD1D;" d="M411.55,512H255.249V242h114c42.301,62.701,58.2,85.201,104.101,152.401
	C507.25,443,473.35,512,411.55,512z"/>
<path style="fill:#78DE28;" d="M255.249,321.501c-10.8-12.601-27.001-20.7-45-20.7c-32.999,0-60,26.999-60,60
	c0,32.999,27.001,60,60,60c17.999,0,34.2-8.101,45-20.7c9.6-10.501,15-24.3,15-39.3S264.849,332,255.249,321.501z"/>
<path style="fill:#6ECD24;" d="M345.249,450.801c-24.814,0-45-20.186-45-45s20.186-45,45-45s45,20.186,45,45
	S370.064,450.801,345.249,450.801z"/>
<path style="fill:#C5C9F7;" d="M315.249,0h-120c-59.399,0-59.399,90,0,90H316.15C374.949,88.799,374.05,0,315.249,0z"/>
<path style="fill:#6ECD24;" d="M255.249,321.501c9.6,10.499,15,24.3,15,39.3s-5.4,28.799-15,39.3V321.501z"/>
<path style="fill:#A8AFF1;" d="M316.15,90h-60.901V0h60C374.05,0,374.949,88.799,316.15,90z"/>
<g>
</g>
<g>
</g>
<g>
</g>
<g>
</g>
<g>
</g>
<g>
</g>
<g>
</g>
<g>
</g>
<g>
</g>
<g>
</g>
<g>
</g>
<g>
</g>
<g>
</g>
<g>
</g>
<g>
</g>
</svg>
