<?xml version="1.0" encoding="iso-8859-1"?>
<!-- Generator: Adobe Illustrator 19.0.0, SVG Export Plug-In . SVG Version: 6.00 Build 0)  -->
<svg version="1.1" id="Capa_1" xmlns="http://www.w3.org/2000/svg" xmlns:xlink="http://www.w3.org/1999/xlink" x="0px" y="0px"
	 viewBox="0 0 512 512" style="enable-background:new 0 0 512 512;" xml:space="preserve">
<path style="fill:#E1E4FB;" d="M315,360H195c-8.401,0-15,6.599-15,15v92c0,24.899,20.099,45,45,45h60c24.901,0,45-20.101,45-45v-92
	C330,366.599,323.401,360,315,360z"/>
<g>
	<path style="fill:#C5C9F7;" d="M330,375v92c0,24.899-20.099,45-45,45h-30V360h60C323.401,360,330,366.599,330,375z"/>
	<path style="fill:#C5C9F7;" d="M225,452h-45v-30h45C244.872,422,244.872,452,225,452z"/>
</g>
<path style="fill:#A8AFF1;" d="M330,422v30h-45c-19.872,0-19.872-30,0-30H330z"/>
<path style="fill:#FEDB41;" d="M255,0c-11.7,0-23.401,1.199-35.4,3.6c-63.9,13.5-114.901,66-126.899,130.8
	c-7.202,40.201-0.3,80.099,20.4,115.201C141.599,295.199,150,301.199,150,345c0,24.899,20.4,45,45,45h120
	c24.6,0,45-19.801,45-47.401c0-43.2,13.5-53.699,36.599-92.701C411.899,224.099,420,194.7,420,165C420,73.5,345.901,0,255,0z"/>
<path style="fill:#FFCC33;" d="M420,165c0,29.7-8.101,59.099-23.401,84.899C373.5,288.9,360,299.399,360,342.599
	c0,27.6-20.4,47.401-45,47.401h-60V0C345.901,0,420,73.5,420,165z"/>
<path style="fill:#FE9923;" d="M497,180h-30c-19.773,0-19.854-30,0-30h30C516.773,150,516.854,180,497,180z"/>
<path style="fill:#FEA832;" d="M45,180H15c-19.773,0-19.854-30,0-30h30C64.773,150,64.854,180,45,180z"/>
<path style="fill:#FE9923;" d="M431.36,47.007l25.986-15c17.072-9.886,32.224,16.039,15,25.986l-25.986,15
	C429.173,82.921,414.242,56.893,431.36,47.007z"/>
<path style="fill:#FEA832;" d="M39.653,272.007l25.986-15c16.957-9.923,32.294,15.998,15,25.986l-25.986,15
	C37.56,307.867,22.333,282.01,39.653,272.007z"/>
<path style="fill:#FE9923;" d="M457.347,297.993l-25.986-15c-17.184-9.924-2.153-35.963,15-25.986l25.986,15
	C489.465,281.893,474.534,307.921,457.347,297.993z"/>
<g>
	<path style="fill:#FEA832;" d="M65.64,72.993l-25.986-15c-17.118-9.887-2.195-35.902,15-25.986l25.986,15
		C97.758,56.893,82.827,82.921,65.64,72.993z"/>
	<path style="fill:#FEA832;" d="M335.7,181.199l-65.7-26.4V75c0-9.3-7.2-14.7-15-14.7c-4.799-0.3-9.6,1.8-12.599,6.599l-75,120
		c-5.101,8.101-2.1,18.6,6.899,21.899l65.7,26.4V315c0,9.3,7.5,15,15,15c4.799,0,9.6-2.1,12.599-6.901l75-120
		C347.701,195,344.7,184.499,335.7,181.199z"/>
</g>
<path style="fill:#FE9923;" d="M342.599,203.099l-75,120C264.6,327.9,259.799,330,255,330V60.3c7.8,0,15,5.4,15,14.7v79.799
	l65.7,26.4C344.7,184.499,347.701,195,342.599,203.099z"/>
<g>
</g>
<g>
</g>
<g>
</g>
<g>
</g>
<g>
</g>
<g>
</g>
<g>
</g>
<g>
</g>
<g>
</g>
<g>
</g>
<g>
</g>
<g>
</g>
<g>
</g>
<g>
</g>
<g>
</g>
</svg>
