<?xml version="1.0" encoding="iso-8859-1"?>
<!-- Generator: Adobe Illustrator 19.0.0, SVG Export Plug-In . SVG Version: 6.00 Build 0)  -->
<svg version="1.1" id="Capa_1" xmlns="http://www.w3.org/2000/svg" xmlns:xlink="http://www.w3.org/1999/xlink" x="0px" y="0px"
	 viewBox="0 0 512 512" style="enable-background:new 0 0 512 512;" xml:space="preserve">
<path style="fill:#032E68;" d="M285.051,92.013h-29.992c-19.768,0-19.849-29.992,0-29.992h29.992
	c8.274,0,14.996-6.722,14.996-14.996V14.926c0-19.768,29.992-19.849,29.992,0v32.099C330.039,71.832,309.858,92.013,285.051,92.013z
	"/>
<path style="fill:#063E8B;" d="M255.059,92.013h-29.992c-24.807,0-44.988-20.181-44.988-44.988V14.926
	c0-19.768,29.992-19.849,29.992,0v32.099c0,8.274,6.722,14.996,14.996,14.996h29.992C274.827,62.021,274.908,92.013,255.059,92.013z
	"/>
<g>
	<path style="fill:#0A4EAF;" d="M135.091,331.948H15.124c-19.768,0-19.849-29.992,0-29.992h119.967
		C154.859,301.956,154.94,331.948,135.091,331.948z"/>
	<path style="fill:#0A4EAF;" d="M255.059,62.021c-57.884,0-104.971,47.087-104.971,104.972c0,8.399,6.597,14.996,14.996,14.996
		h179.951c8.399,0,14.996-6.597,14.996-14.996C360.03,109.108,312.943,62.021,255.059,62.021z"/>
	<path style="fill:#0A4EAF;" d="M135.091,241.972H88.346c-32.32,0-60.906-20.604-71.128-51.27L0.905,141.745
		c-6.251-18.755,22.152-28.318,28.439-9.489l16.314,48.957c6.15,18.408,23.3,30.768,42.688,30.768h46.745
		C154.859,211.98,154.94,241.972,135.091,241.972z"/>
	<path style="fill:#0A4EAF;" d="M0.904,492.157L17.217,443.2c10.222-30.666,38.807-51.27,71.128-51.27h46.745
		c19.768,0,19.849,29.992,0,29.992H88.346c-19.39,0-36.538,12.36-42.688,30.768l-16.314,48.957
		C23.047,520.538-5.392,511.049,0.904,492.157z"/>
</g>
<g>
	<path style="fill:#063E8B;" d="M497.143,331.948H374.826c-19.768,0-19.849-29.792,0-29.792h122.317
		C516.911,302.156,516.993,331.948,497.143,331.948z"/>
	<path style="fill:#063E8B;" d="M423.321,242.772h-48.495c-19.768,0-19.849-29.792,0-29.792h48.495
		c19.39,0,36.738-12.56,42.888-30.968l16.314-48.957c6.288-18.828,34.692-9.265,28.439,9.489l-16.314,48.957
		C484.428,222.166,455.641,242.772,423.321,242.772z"/>
	<path style="fill:#063E8B;" d="M482.524,501.648l-16.314-48.957c-6.15-18.408-23.3-30.768-42.688-30.768h-48.695
		c-19.768,0-19.849-29.992,0-29.992h48.495c32.32,0,61.106,20.604,71.328,51.27l16.314,48.957
		C517.235,510.971,488.82,520.538,482.524,501.648z"/>
	<path style="fill:#063E8B;" d="M360.03,166.992c0,8.399-6.597,14.996-14.996,14.996h-89.976V62.021
		C312.943,62.021,360.03,109.108,360.03,166.992z"/>
</g>
<path style="fill:#FD003A;" d="M345.034,151.996H165.083c-24.894,0-44.988,20.094-44.988,44.988v179.951
	c0,74.379,60.585,134.963,134.963,134.963s134.763-60.585,134.763-134.963V196.984C389.822,172.09,369.928,151.996,345.034,151.996z
	"/>
<path style="fill:#E50027;" d="M389.822,196.984v179.951c0,74.379-60.385,134.963-134.763,134.963V151.996h89.976
	C369.928,151.996,389.822,172.09,389.822,196.984z"/>
<g>
</g>
<g>
</g>
<g>
</g>
<g>
</g>
<g>
</g>
<g>
</g>
<g>
</g>
<g>
</g>
<g>
</g>
<g>
</g>
<g>
</g>
<g>
</g>
<g>
</g>
<g>
</g>
<g>
</g>
</svg>
