<?xml version="1.0" encoding="iso-8859-1"?>
<!-- Generator: Adobe Illustrator 19.0.0, SVG Export Plug-In . SVG Version: 6.00 Build 0)  -->
<svg version="1.1" id="Capa_1" xmlns="http://www.w3.org/2000/svg" xmlns:xlink="http://www.w3.org/1999/xlink" x="0px" y="0px"
	 viewBox="0 0 512 512" style="enable-background:new 0 0 512 512;" xml:space="preserve">
<path style="fill:#FD003A;" d="M256,0C148.599,0,61,87.599,61,195c0,42.299,13.5,82.8,38.699,116.7l144.3,194.3
	c3.001,4.2,7.5,6,12.001,6s9-1.8,12.001-6L415,307.8c23.701-33.001,36-72.001,36-112.8C451,87.599,363.401,0,256,0z"/>
<path style="fill:#E50027;" d="M451,195c0,40.8-12.299,79.799-36,112.8L268.001,506c-3.001,4.2-7.5,6-12.001,6V0
	C363.401,0,451,87.599,451,195z"/>
<path style="fill:#E1E4FB;" d="M388.001,236.4l-30,52.2c-4.501,7.2-13.5,9.3-20.7,5.4L315.4,281.1c-4.799,3.3-9.3,6-14.399,8.399
	V315c0,8.399-6.599,15-15,15h-60c-8.401,0-15-6.601-15-15v-25.501c-5.099-2.399-9.6-5.099-14.399-8.399L174.699,294
	c-7.2,3.9-16.199,1.8-20.7-5.4l-30-52.2c-4.199-7.2-1.5-16.201,5.7-20.4l21.601-12.601c-0.3-5.7-0.3-11.1,0-16.8L129.699,174
	c-7.2-4.2-9.899-13.2-5.7-20.4l30-52.2c4.2-7.2,13.5-9.6,20.7-5.4l21.901,12.9c4.799-3.301,9.3-6,14.399-8.401V75
	c0-8.401,6.599-15,15-15h60c8.401,0,15,6.599,15,15v25.499c5.099,2.401,9.6,5.099,14.399,8.401L337.301,96
	c7.2-4.2,16.5-1.8,20.7,5.4l30,52.2c4.199,7.2,1.5,16.199-5.7,20.4L360.7,186.599c0.3,5.7,0.3,11.1,0,16.8L382.301,216
	C389.5,220.199,392.199,229.2,388.001,236.4z"/>
<g>
	<path style="fill:#C5C9F7;" d="M388.001,236.4l-30,52.2c-4.501,7.2-13.5,9.3-20.7,5.4L315.4,281.1c-4.799,3.3-9.3,6-14.399,8.399
		V315c0,8.399-6.599,15-15,15h-30V60h30c8.401,0,15,6.599,15,15v25.499c5.099,2.401,9.6,5.099,14.399,8.401L337.301,96
		c7.2-4.2,16.5-1.8,20.7,5.4l30,52.2c4.199,7.2,1.5,16.199-5.7,20.4L360.7,186.599c0.3,5.7,0.3,11.1,0,16.8L382.301,216
		C389.5,220.199,392.199,229.2,388.001,236.4z"/>
	<path style="fill:#C5C9F7;" d="M301,195c0,24.899-20.099,45-45,45s-45-20.101-45-45c0-24.901,20.099-45,45-45S301,170.099,301,195z
		"/>
</g>
<path style="fill:#A8AFF1;" d="M301,195c0,24.899-20.099,45-45,45v-90C280.901,150,301,170.099,301,195z"/>
<g>
</g>
<g>
</g>
<g>
</g>
<g>
</g>
<g>
</g>
<g>
</g>
<g>
</g>
<g>
</g>
<g>
</g>
<g>
</g>
<g>
</g>
<g>
</g>
<g>
</g>
<g>
</g>
<g>
</g>
</svg>
