<?xml version="1.0" encoding="iso-8859-1"?>
<!-- Generator: Adobe Illustrator 19.0.0, SVG Export Plug-In . SVG Version: 6.00 Build 0)  -->
<svg version="1.1" id="Capa_1" xmlns="http://www.w3.org/2000/svg" xmlns:xlink="http://www.w3.org/1999/xlink" x="0px" y="0px"
	 viewBox="0 0 512 512" style="enable-background:new 0 0 512 512;" xml:space="preserve">
<path style="fill:#18A7FC;" d="M191.48,365.806c11.382-13.154,18.52-30.081,18.52-48.799c0-41.351-33.646-74.997-74.997-74.997
	s-74.997,33.646-74.997,74.997c0,18.718,7.139,35.646,18.52,48.799C33.494,377.63,0.01,418.314,0.01,467.002v29.999
	C0.01,505.291,6.718,512,15.009,512H255c8.291,0,14.999-6.709,14.999-14.999v-29.999C270,418.314,236.514,377.63,191.48,365.806z"/>
<path style="fill:#1689FC;" d="M433.471,365.806c11.382-13.154,18.52-30.081,18.52-48.799c0-41.351-33.646-74.997-74.997-74.997
	s-74.997,33.646-74.997,74.997c0,18.718,7.139,35.646,18.52,48.799C275.484,377.629,242,418.314,242,467.002v29.999
	c0,8.291,6.709,14.999,14.999,14.999H496.99c8.291,0,14.999-6.709,14.999-14.999v-29.999
	C511.991,418.314,478.505,377.63,433.471,365.806z"/>
<path style="fill:#FEDB41;" d="M60.381,194.993v-44.998H45.382c-24.813,0-44.998-20.185-44.998-44.998V44.998
	C0.384,20.185,20.569,0,45.382,0h239.991c24.813,0,44.998,20.185,44.998,44.998v29.999c0,8.291-6.709,14.999-14.999,14.999h-89.997
	c-8.276,0-14.999,6.724-14.999,14.999v29.999c0,8.291-6.709,14.999-14.999,14.999h-53.787l-55.603,55.603
	C76.582,215.002,60.381,208.402,60.381,194.993z"/>
<path style="fill:#FFCC33;" d="M376.996,271.009c-3.896,0-7.734-1.523-10.605-4.395l-55.603-55.603h-83.787
	c-24.813,0-44.998-20.185-44.998-44.998v-59.998c0-24.813,20.185-44.998,44.998-44.998h239.991
	c24.813,0,44.998,20.185,44.998,44.998v59.998c0,24.813-20.185,44.998-44.998,44.998h-74.997v44.998
	C391.995,264.287,385.272,271.009,376.996,271.009z"/>
<g>
</g>
<g>
</g>
<g>
</g>
<g>
</g>
<g>
</g>
<g>
</g>
<g>
</g>
<g>
</g>
<g>
</g>
<g>
</g>
<g>
</g>
<g>
</g>
<g>
</g>
<g>
</g>
<g>
</g>
</svg>
