<?xml version="1.0" encoding="iso-8859-1"?>
<!-- Generator: Adobe Illustrator 19.0.0, SVG Export Plug-In . SVG Version: 6.00 Build 0)  -->
<svg version="1.1" id="Capa_1" xmlns="http://www.w3.org/2000/svg" xmlns:xlink="http://www.w3.org/1999/xlink" x="0px" y="0px"
	 viewBox="0 0 512 512" style="enable-background:new 0 0 512 512;" xml:space="preserve">
<path style="fill:#C5C9F7;" d="M480,287c0,24.814-20.186,45-45,45H195c-8.291,0-15-6.709-15-15v-90c0-41.353-33.647-75-75-75
	c-8.291,0-15-6.709-15-15s6.709-15,15-15c24.814,0,45-22.186,45-47s-20.186-45-45-45c-19.773,0-19.854-30,0-30h360
	c8.291,0,15,6.709,15,15V287z"/>
<path style="fill:#1689FC;" d="M419.7,149.001C418.2,142.099,412.2,137,405,137h-60V75c0-8.408-6.943-15-15-15
	c-48.789,0-90,41.709-90,92c0,49.501,40.499,90,90,90c44.399,0,81.599-32.401,88.5-75c1.199-4.799,1.5-9.901,1.5-15
	C420,151.099,420,149.9,419.7,149.001z"/>
<path style="fill:#FFCC33;" d="M419.7,149.001c-1.5-47.1-39.6-87.201-86.7-88.7C332.1,60,330.901,60,330,60
	c-5.099,0-10.201,0.3-15,1.5V152c0,8.401,6.599,15,15,15h88.5c1.199-4.799,1.5-9.901,1.5-15C420,151.099,420,149.9,419.7,149.001z"
	/>
<path style="fill:#063E8B;" d="M497.14,30H105c-19.773,0-19.854-30,0-30h392.14C516.913,0,516.994,30,497.14,30z"/>
<path style="fill:#FD003A;" d="M105,122C47.1,122,0,169.1,0,227v90c0,19.501,12.599,36.301,30,42.299V467c0,24.901,20.099,45,45,45
	h60c24.901,0,45-20.099,45-45V359.299c17.401-5.999,30-22.798,30-42.299v-90C210,169.1,162.9,122,105,122z"/>
<path style="fill:#E1E4FB;" d="M120,137v120c0,9.901-7.5,15-15,15s-15-5.099-15-15V137c0-8.401,6.599-15,15-15S120,128.599,120,137z
	"/>
<path style="fill:#E50027;" d="M210,227v90c0,19.501-12.599,36.301-30,42.299V467c0,24.901-20.099,45-45,45h-30V122
	C162.9,122,210,169.1,210,227z"/>
<path style="fill:#C5C9F7;" d="M120,137v120c0,9.901-7.5,15-15,15V122C113.401,122,120,128.599,120,137z"/>
<path style="fill:#FD003A;" d="M105,0C63.6,0,30,33.6,30,75s33.6,77,75,77s75-35.6,75-77S146.4,0,105,0z"/>
<path style="fill:#E50027;" d="M180,75c0,41.4-33.6,77-75,77V0C146.4,0,180,33.6,180,75z"/>
<g>
</g>
<g>
</g>
<g>
</g>
<g>
</g>
<g>
</g>
<g>
</g>
<g>
</g>
<g>
</g>
<g>
</g>
<g>
</g>
<g>
</g>
<g>
</g>
<g>
</g>
<g>
</g>
<g>
</g>
</svg>
