<?xml version="1.0" encoding="iso-8859-1"?>
<!-- Generator: Adobe Illustrator 19.0.0, SVG Export Plug-In . SVG Version: 6.00 Build 0)  -->
<svg version="1.1" id="Capa_1" xmlns="http://www.w3.org/2000/svg" xmlns:xlink="http://www.w3.org/1999/xlink" x="0px" y="0px"
	 viewBox="0 0 512 512" style="enable-background:new 0 0 512 512;" xml:space="preserve">
<path style="fill:#E1E4FB;" d="M497,180c0,90.899-74.099,165-165,165c-45.601,0-86.7-18.6-116.7-48.3
	c-29.7-30-48.3-71.102-48.3-116.7c0-90.901,74.099-165,165-165c45.601,0,86.7,18.6,116.7,48.3C478.4,93.3,497,134.399,497,180z"/>
<path style="fill:#C5C9F7;" d="M497,180c0,90.899-74.099,165-165,165c-45.601,0-86.7-18.6-116.7-48.3L448.7,63.3
	C478.4,93.3,497,134.399,497,180z"/>
<path style="fill:#063E8B;" d="M225.801,307.2L175.7,357.299c-6.899,7.2-15.599,5.4-20.999,0c-5.402-5.099-6.901-14.099,0-21
	L204.8,286.2c5.7-6,15.3-6,21,0C231.799,291.899,231.799,301.5,225.801,307.2z"/>
<path style="fill:#032E68;" d="M225.801,307.2L175.7,357.299c-6.899,7.2-15.599,5.4-20.999,0l71.1-71.1
	C231.799,291.899,231.799,301.5,225.801,307.2z"/>
<path style="fill:#FD003A;" d="M175.401,336.599C159.5,320.7,133.1,315.3,112.1,336.299l-98.825,98.827
	c-17.699,17.699-17.699,46.199,0,63.6c17.401,17.699,45.901,17.699,63.6,0l98.825-98.827C197,378.9,191.3,352.5,175.401,336.599z"/>
<path style="fill:#E50027;" d="M175.401,336.599C191.3,352.5,197,378.9,175.699,399.899l-98.825,98.827
	c-17.699,17.699-46.199,17.699-63.6,0L175.401,336.599z"/>
<path style="fill:#C5C9F7;" d="M459.2,52.8C426.799,20.099,381.799,0,332,0c-99.3,0-180,80.7-180,180
	c0,49.799,20.099,94.799,52.8,127.2C237.201,339.899,282.201,360,332,360c99.3,0,180-80.7,180-180
	C512,130.199,491.901,85.201,459.2,52.8z M332,330c-41.4,0-78.9-16.8-106.199-43.801C198.8,258.9,182,221.4,182,180
	c0-82.8,67.2-150,150-150c41.4,0,78.9,16.8,106.199,43.801C465.2,101.1,482,138.6,482,180C482,262.8,414.8,330,332,330z"/>
<path style="fill:#A8AFF1;" d="M512,180c0,99.3-80.7,180-180,180c-49.799,0-94.799-20.101-127.2-52.8l21-21
	c27.3,27,64.8,43.8,106.2,43.8c82.8,0,150-67.2,150-150c0-41.4-16.8-78.9-43.801-106.199l21-21C491.901,85.201,512,130.199,512,180z
	"/>
<path style="fill:#18A7FC;" d="M378.8,157.2c8.101-10.201,13.2-23.101,13.2-37.2c0-32.999-27.001-60-60-60s-60,27.001-60,60
	c0,14.099,5.099,26.999,13.2,37.2C259.701,169.2,242,195,242,225v30c0,4.2,1.8,7.8,4.2,10.8c3,2.4,6.6,4.2,10.8,4.2h150
	c8.401,0,15-6.601,15-15v-30C422,195,404.299,169.2,378.8,157.2z"/>
<path style="fill:#1689FC;" d="M246.2,265.8c3,2.4,6.6,4.2,10.8,4.2h150c8.401,0,15-6.601,15-15v-30c0-30-17.701-55.8-43.2-67.8
	c8.1-10.201,13.2-23.101,13.2-37.2L246.2,265.8z"/>
<g>
</g>
<g>
</g>
<g>
</g>
<g>
</g>
<g>
</g>
<g>
</g>
<g>
</g>
<g>
</g>
<g>
</g>
<g>
</g>
<g>
</g>
<g>
</g>
<g>
</g>
<g>
</g>
<g>
</g>
</svg>
