<?xml version="1.0" encoding="iso-8859-1"?>
<!-- Generator: Adobe Illustrator 19.0.0, SVG Export Plug-In . SVG Version: 6.00 Build 0)  -->
<svg version="1.1" id="Capa_1" xmlns="http://www.w3.org/2000/svg" xmlns:xlink="http://www.w3.org/1999/xlink" x="0px" y="0px"
	 viewBox="0 0 512 512" style="enable-background:new 0 0 512 512;" xml:space="preserve">
<g>
	<path style="fill:#063E8B;" d="M57.414,199.71l-12.012-65.405C44.201,127.2,37.917,122,30.754,122H14.86c-19.773,0-19.854-30,0-30
		h15.894c21.606,0,40.605,15.938,44.194,37.09l11.968,65.2C90.474,213.687,61.064,219.523,57.414,199.71z"/>
	<path style="fill:#063E8B;" d="M434.86,452h-315c-59.399,0-59.399-90,0-90c19.799,0,19.799,30,0,30s-19.799,30,0,30h315
		C454.66,422,454.66,452,434.86,452z"/>
</g>
<path style="fill:#18A7FC;" d="M508.785,189.2c-5.7-7.2-14.826-7.2-46.025-7.2h-61.8c-6.899,0-12.9,4.799-14.7,11.4
	c-2.1,8.699-5.7,17.699-11.1,26.999c-3.001,6-2.1,13.2,2.401,18.001l13.499,13.499L369.761,273.2l-13.5-13.5
	c-4.801-4.499-12.001-5.4-17.701-2.399c-9.6,5.4-18.6,9-27.299,11.1c-6.601,1.8-11.4,7.8-11.4,14.7V302h-30v-18.9
	c0-6.899-4.799-12.9-11.4-14.7c-8.699-2.1-17.699-5.7-27.299-11.1c-5.7-3.001-12.9-2.1-17.701,2.399l-13.5,13.5l-21.299-21.301
	L192.16,238.4c4.501-4.801,5.402-12.001,2.401-18.001c-5.4-9.3-9-18.3-11.1-26.999c-1.8-6.601-7.8-11.4-14.7-11.4H54.034
	l3.425,17.699l32.701,180c1.199,7.2,7.5,12.301,14.7,12.301h332.825c6.599,0,12.299-4.2,14.099-10.201l59.401-177.9
	c0.3-0.3,0.3-0.601,0.3-1.199C512.686,198.199,511.785,193.1,508.785,189.2z"/>
<path style="fill:#032E68;" d="M434.86,452h-150v-30h150C454.66,422,454.66,452,434.86,452z"/>
<path style="fill:#1689FC;" d="M511.486,202.7c0,0.599,0,0.899-0.3,1.199l-59.401,177.9c-1.8,6-7.5,10.201-14.099,10.201H284.86v-90
	h15v-18.9c0-6.899,4.799-12.9,11.4-14.7c8.699-2.1,17.699-5.7,27.299-11.1c5.7-3.001,12.9-2.1,17.701,2.399l13.5,13.5l21.299-21.301
	L377.561,238.4c-4.501-4.801-5.402-12.001-2.401-18.001c5.4-9.3,9-18.3,11.1-26.999c1.8-6.601,7.8-11.4,14.7-11.4h61.8
	c31.199,0,40.325,0,46.025,7.2C511.785,193.1,512.686,198.199,511.486,202.7z"/>
<path style="fill:#E1E4FB;" d="M449.86,137c0-8.401-6.599-15-15-15h-22.8c-1.5-4.501-3.3-9-5.4-13.2l16.199-16.201
	c5.7-5.7,5.7-15.298,0-20.999L380.26,28.999c-5.7-5.7-15.3-5.7-21,0L343.06,45.2c-4.2-2.1-8.699-3.9-13.2-5.4V15
	c0-8.401-6.599-15-15-15h-60c-8.401,0-15,6.599-15,15v24.8c-4.501,1.5-9,3.3-13.2,5.4l-16.199-16.201c-5.7-5.7-15.3-5.7-21,0
	l-42.6,42.601c-5.7,5.7-5.7,15.298,0,20.999L163.06,108.8c-2.1,4.2-3.9,8.699-5.4,13.2h-22.8c-8.401,0-15,6.599-15,15v60
	c0,8.399,6.599,15,15,15h22.8c1.5,4.499,3.3,9,5.4,13.2l-16.199,16.199c-5.7,5.7-5.7,15.3,0,21l42.599,42.599c5.7,5.7,15.3,5.7,21,0
	l16.2-16.198c4.2,2.1,8.699,3.9,13.2,5.4V317c0,8.399,6.599,15,15,15h60c8.401,0,15-6.601,15-15v-22.8c4.501-1.5,9-3.3,13.2-5.4
	l16.199,16.199c5.7,5.7,15.3,5.7,21,0L422.86,262.4c5.7-5.7,5.7-15.3,0-21l-16.2-16.2c2.1-4.2,3.9-8.701,5.4-13.2h22.8
	c8.401,0,15-6.601,15-15V137z"/>
<g>
	<path style="fill:#C5C9F7;" d="M449.86,137v60c0,8.399-6.599,15-15,15h-22.8c-1.5,4.499-3.3,9-5.4,13.2l16.199,16.199
		c5.7,5.7,5.7,15.3,0,21l-42.599,42.599c-5.7,5.7-15.3,5.7-21,0l-16.2-16.198c-4.2,2.1-8.699,3.9-13.2,5.4V317
		c0,8.399-6.599,15-15,15h-30V0h30c8.401,0,15,6.599,15,15v24.8c4.501,1.5,9,3.3,13.2,5.4l16.199-16.201c5.7-5.7,15.3-5.7,21,0
		L422.86,71.6c5.7,5.7,5.7,15.298,0,20.999l-16.2,16.201c2.1,4.2,3.9,8.699,5.4,13.2h22.8C443.261,122,449.86,128.599,449.86,137z"
		/>
	<path style="fill:#C5C9F7;" d="M284.86,92c-41.4,0-75,33.6-75,75s33.6,75,75,75s75-33.6,75-75S326.26,92,284.86,92z"/>
</g>
<path style="fill:#A8AFF1;" d="M284.86,242V92c41.4,0,75,33.6,75,75S326.26,242,284.86,242z"/>
<path style="fill:#063E8B;" d="M164.86,437c-16.538,0-30,13.462-30,30s13.462,30,30,30s30-13.462,30-30S181.398,437,164.86,437z"/>
<path style="fill:#0A4EAF;" d="M164.86,512c-24.814,0-45-20.186-45-45s20.186-45,45-45s45,20.186,45,45S189.675,512,164.86,512z
	 M164.86,452c-8.276,0-15,6.724-15,15s6.724,15,15,15s15-6.724,15-15S173.137,452,164.86,452z"/>
<path style="fill:#032E68;" d="M374.86,437c-16.538,0-30,13.462-30,30s13.462,30,30,30s30-13.462,30-30S391.398,437,374.86,437z"/>
<path style="fill:#063E8B;" d="M374.86,512c-24.814,0-45-20.186-45-45s20.186-45,45-45s45,20.186,45,45S399.675,512,374.86,512z
	 M374.86,452c-8.276,0-15,6.724-15,15s6.724,15,15,15s15-6.724,15-15S383.137,452,374.86,452z"/>
<g>
</g>
<g>
</g>
<g>
</g>
<g>
</g>
<g>
</g>
<g>
</g>
<g>
</g>
<g>
</g>
<g>
</g>
<g>
</g>
<g>
</g>
<g>
</g>
<g>
</g>
<g>
</g>
<g>
</g>
</svg>
