<?xml version="1.0" encoding="iso-8859-1"?>
<!-- Generator: Adobe Illustrator 19.0.0, SVG Export Plug-In . SVG Version: 6.00 Build 0)  -->
<svg version="1.1" id="Capa_1" xmlns="http://www.w3.org/2000/svg" xmlns:xlink="http://www.w3.org/1999/xlink" x="0px" y="0px"
	 viewBox="0 0 512 512" style="enable-background:new 0 0 512 512;" xml:space="preserve">
<path style="fill:#E1E4FB;" d="M433.4,91.374l-362,90c-6.601,1.501-11.4,7.5-11.4,14.401v120c0,6.899,4.799,12.9,11.4,14.399
	l362,90.3c9.6,2.1,18.6-5.1,18.6-14.7v-300C452,95.875,442.7,88.976,433.4,91.374z"/>
<path style="fill:#0A4EAF;" d="M210,450.775c-49.629,0-90-40.371-90-90c0-11.865,2.285-23.408,6.768-34.307
	c7.538-18.216,35.301-6.958,27.744,11.426C151.524,345.16,150,352.85,150,360.775c0,33.091,26.909,60,60,60
	c31.011,0,56.689-23.232,59.707-54.053c1.956-19.668,31.775-16.742,29.854,2.93C295.02,415.898,256.523,450.775,210,450.775z"/>
<path style="fill:#C5C9F7;" d="M452,255.775v150c0,9.6-9,16.8-18.6,14.7l-362-90.3c-6.601-1.5-11.4-7.5-11.4-14.399v-60h392V255.775
	z"/>
<path style="fill:#18A7FC;" d="M0,195.775v120c0,59.399,90,59.399,90,0v-120C90,136.374,0,136.374,0,195.775z"/>
<path style="fill:#1689FC;" d="M0,255.775h90v60c0,59.399-90,59.399-90,0V255.775z"/>
<path style="fill:#18A7FC;" d="M422,105.775v300c0,59.399,90,59.399,90,0v-300C512,46.374,422,46.374,422,105.775z"/>
<path style="fill:#1689FC;" d="M512,255.775v150c0,59.399-90,59.399-90,0v-150H512z"/>
<g>
</g>
<g>
</g>
<g>
</g>
<g>
</g>
<g>
</g>
<g>
</g>
<g>
</g>
<g>
</g>
<g>
</g>
<g>
</g>
<g>
</g>
<g>
</g>
<g>
</g>
<g>
</g>
<g>
</g>
</svg>
