<?xml version="1.0" encoding="iso-8859-1"?>
<!-- Generator: Adobe Illustrator 19.0.0, SVG Export Plug-In . SVG Version: 6.00 Build 0)  -->
<svg version="1.1" id="Capa_1" xmlns="http://www.w3.org/2000/svg" xmlns:xlink="http://www.w3.org/1999/xlink" x="0px" y="0px"
	 viewBox="0 0 512.001 512.001" style="enable-background:new 0 0 512.001 512.001;" xml:space="preserve">
<path style="fill:#032E68;" d="M332.476,199.9l-127.2,127.5c-5.7,5.7-15.3,5.7-21.301,0l148.5-148.5
	C338.476,184.6,338.476,194.2,332.476,199.9z"/>
<path style="fill:#FD003A;" d="M332.888,179.301c0-0.3-0.599-0.901-0.899-1.201c-75.901-74.7-199.2-74.399-274.501,1.201
	c-76.8,76.199-76.5,199.499,0,275.4C94.089,491.6,142.989,512,195.189,512s101.1-20.4,137.699-57.299
	C408.188,379.701,408.789,257.3,332.888,179.301z"/>
<path style="fill:#E50027;" d="M332.888,454.701C296.289,491.6,247.389,512,195.189,512s-101.1-20.4-137.701-57.299l275.4-275.4
	C408.789,257.3,408.188,379.701,332.888,454.701z"/>
<path style="fill:#E1E4FB;" d="M290.589,221.6c-52.5-52.8-138.3-52.8-190.8,0c-52.8,52.5-52.8,138.3,0,190.8
	c52.5,52.8,138.3,52.8,190.8,0C343.389,359.9,343.389,274.1,290.589,221.6z"/>
<path style="fill:#FD003A;" d="M248.29,263.899c-29.401-29.099-76.802-29.099-106.201,0c-29.099,29.401-29.099,76.802,0,106.201
	c14.7,14.399,33.9,21.899,53.101,21.899s38.399-7.5,53.101-21.899C277.389,340.701,277.389,293.301,248.29,263.899z"/>
<path style="fill:#C5C9F7;" d="M290.589,221.6c52.8,52.5,52.8,138.3,0,190.8c-52.5,52.8-138.3,52.8-190.8,0L290.589,221.6z"/>
<path style="fill:#E50027;" d="M248.29,370.101C233.588,384.5,214.39,392,195.189,392s-38.401-7.5-53.101-21.899L248.289,263.9
	C277.389,293.301,277.389,340.701,248.29,370.101z"/>
<path style="fill:#063E8B;" d="M332.476,199.9l-127.2,127.5c-5.7,5.7-15.3,5.7-21.301,0c-5.7-6-5.7-15.601,0-21.301l127.5-127.2
	c5.7-6,15.3-6,21,0C338.476,184.6,338.476,194.2,332.476,199.9z"/>
<path style="fill:#032E68;" d="M184.178,327.574c6.012,5.516,15.46,5.464,21.098-0.174l127.2-127.5
	c5.935-5.638,5.99-15.086,0.184-20.807L184.178,327.574z"/>
<path style="fill:#0A4EAF;" d="M496.955,84.882h-69.901V14.981c0-13.2-16.199-20.099-25.499-10.499l-90.08,89.517
	c-2.999,2.701-4.501,6.601-4.501,10.501v83.099c0,3.602,1.802,8.101,5.402,11.4c2.699,3.301,6.899,5.402,11.4,5.402h83.099
	c3.9,0,7.8-1.501,10.501-4.501l90.078-89.519C517.055,101.081,510.456,84.882,496.955,84.882z"/>
<path style="fill:#063E8B;" d="M507.455,110.381L417.376,199.9c-2.701,2.999-6.601,4.501-10.501,4.501h-83.099
	c-4.501,0-8.701-2.1-11.4-5.402L427.055,84.882h69.901C510.456,84.882,517.055,101.081,507.455,110.381z"/>
<g>
</g>
<g>
</g>
<g>
</g>
<g>
</g>
<g>
</g>
<g>
</g>
<g>
</g>
<g>
</g>
<g>
</g>
<g>
</g>
<g>
</g>
<g>
</g>
<g>
</g>
<g>
</g>
<g>
</g>
</svg>
