<?xml version="1.0" encoding="iso-8859-1"?>
<!-- Generator: Adobe Illustrator 19.0.0, SVG Export Plug-In . SVG Version: 6.00 Build 0)  -->
<svg version="1.1" id="Capa_1" xmlns="http://www.w3.org/2000/svg" xmlns:xlink="http://www.w3.org/1999/xlink" x="0px" y="0px"
	 viewBox="0 0 512 512" style="enable-background:new 0 0 512 512;" xml:space="preserve">
<path style="fill:#0A4EAF;" d="M467,0H45C20.099,0,0,20.099,0,45v90c0,8.399,6.599,17,15,17h482c8.401,0,15-8.601,15-17V45
	C512,20.099,491.901,0,467,0z"/>
<g>
	<circle style="fill:#E1E4FB;" cx="75" cy="75" r="15"/>
	<circle style="fill:#E1E4FB;" cx="135" cy="75" r="15"/>
	<circle style="fill:#E1E4FB;" cx="195" cy="75" r="15"/>
	<path style="fill:#E1E4FB;" d="M452,75c0,8.399-6.599,15-15,15H255c-8.401,0-15-6.601-15-15c0-8.401,6.599-15,15-15h182
		C445.401,60,452,66.599,452,75z"/>
</g>
<path style="fill:#063E8B;" d="M512,45v90c0,8.399-6.599,17-15,17H255V0h212C491.901,0,512,20.099,512,45z"/>
<path style="fill:#C5C9F7;" d="M452,75c0,8.399-6.599,15-15,15H255V60h182C445.401,60,452,66.599,452,75z"/>
<path style="fill:#1DE8F1;" d="M0,120v287c0,24.899,20.099,45,45,45h87.9c9.901,0,16.8-9.3,14.7-18.6
	c10.201-10.801,24-20.101,17.1-33.001c-5.4-9.3-9-18.3-11.1-26.999c-1.8-6.601-7.8-11.4-14.7-11.4H120v-30h18.9
	c6.899,0,12.9-4.801,14.7-11.4c2.1-8.701,5.7-17.701,11.1-27.301c3.001-5.7,2.1-12.9-2.401-17.699L148.8,262.1l21.299-21.301
	l13.5,13.5c4.801,4.501,12.001,5.4,17.701,2.401c9.6-5.4,18.6-9,27.299-11.1c6.601-1.8,11.4-7.8,11.4-14.7V212h30v18.9
	c0,6.899,4.799,12.9,11.4,14.7c8.699,2.1,17.699,5.7,27.299,11.1c5.7,3.3,12.9,2.1,17.701-2.401l13.5-13.5l21.299,21.301
	l-13.499,13.5c-4.501,4.799-5.402,11.999-2.401,17.699c5.4,9.6,9,18.6,11.1,27.301c1.8,6.599,7.8,11.4,14.7,11.4H390v30h-18.9
	c-6.899,0-12.9,4.799-14.7,11.4c-2.1,8.699-5.7,17.699-11.1,26.999c-3.001,6-2.1,13.2,2.401,18.001l14.7,15
	c-2.1,9.3,4.799,18.6,14.7,18.6H467c24.901,0,45-20.101,45-45V120H0z"/>
<path style="fill:#1BD9DE;" d="M512,120v287c0,24.899-20.099,45-45,45h-89.9c-9.901,0-16.8-9.3-14.7-18.6l-14.7-15
	c-4.501-4.801-5.402-12.001-2.401-18.001c5.4-9.3,9-18.3,11.1-26.999c1.8-6.601,7.8-11.4,14.7-11.4H390v-30h-18.9
	c-6.899,0-12.9-4.801-14.7-11.4c-2.1-8.701-5.7-17.701-11.1-27.301c-3.001-5.7-2.1-12.9,2.401-17.699l13.499-13.5l-21.299-21.301
	l-13.5,13.5c-4.801,4.501-12.001,5.7-17.701,2.401c-9.6-5.4-18.6-9-27.299-11.1c-6.601-1.8-11.4-7.8-11.4-14.7V212h-15v-92H512z"/>
<path style="fill:#E1E4FB;" d="M405,302h-22.8c-1.5-4.2-3.3-8.701-5.4-13.2l16.199-16.201c5.7-5.7,5.7-15.298-0.298-20.999
	L350.4,209.299c-5.7-6-15-6-21-0.3L313.2,225.2c-4.501-2.1-9-3.9-13.2-5.4V197c0-8.401-6.599-15-15-15h-60c-8.401,0-15,6.599-15,15
	v22.8c-4.2,1.5-8.699,3.3-13.2,5.4l-16.199-16.201c-5.7-5.7-15.3-5.7-21,0.3L117.299,251.6c-5.999,5.7-5.999,15.298-0.298,20.999
	L133.2,288.8c-2.1,4.499-3.9,9-5.4,13.2H105c-8.401,0-15,6.599-15,15v60c0,8.399,6.599,15,15,15h22.8c1.5,4.2,3.3,8.699,5.4,13.2
	l-16.199,16.199c-5.7,5.7-5.7,15.3,0.298,21l42.301,42.299c5.7,6,15.3,6,21,0.3l16.2-16.198c4.501,2.1,9,3.9,13.2,5.4V497
	c0,8.399,6.599,15,15,15h60c8.401,0,15-6.601,15-15v-22.8c4.2-1.5,8.699-3.3,13.2-5.4l16.199,16.199c6,5.7,15.3,5.7,21-0.3
	L392.7,442.4c5.999-5.7,5.999-15.3,0.298-21L376.8,405.2c2.1-4.501,3.9-9,5.4-13.2H405c8.401,0,15-6.601,15-15v-60
	C420,308.599,413.401,302,405,302z"/>
<g>
	<path style="fill:#C5C9F7;" d="M255,272c-41.4,0-75,33.6-75,75s33.6,75,75,75s75-33.6,75-75S296.4,272,255,272z"/>
	<path style="fill:#C5C9F7;" d="M420,317v60c0,8.399-6.599,15-15,15h-22.8c-1.5,4.2-3.3,8.699-5.4,13.2l16.199,16.199
		c5.7,5.7,5.7,15.3-0.298,21l-42.301,42.3c-5.7,6-15,6-21,0.3L313.2,468.8c-4.501,2.1-9,3.9-13.2,5.4V497c0,8.399-6.599,15-15,15
		h-30V182h30c8.401,0,15,6.599,15,15v22.8c4.2,1.5,8.699,3.3,13.2,5.4l16.199-16.201c6-5.7,15.3-5.7,21,0.3L392.7,251.6
		c5.999,5.7,5.999,15.298,0.298,20.999L376.8,288.8c2.1,4.499,3.9,9,5.4,13.2H405C413.401,302,420,308.599,420,317z"/>
</g>
<path style="fill:#A8AFF1;" d="M330,347c0,41.4-33.6,75-75,75V272C296.4,272,330,305.6,330,347z"/>
<g>
</g>
<g>
</g>
<g>
</g>
<g>
</g>
<g>
</g>
<g>
</g>
<g>
</g>
<g>
</g>
<g>
</g>
<g>
</g>
<g>
</g>
<g>
</g>
<g>
</g>
<g>
</g>
<g>
</g>
</svg>
