<?xml version="1.0" encoding="iso-8859-1"?>
<!-- Generator: Adobe Illustrator 19.0.0, SVG Export Plug-In . SVG Version: 6.00 Build 0)  -->
<svg xmlns="http://www.w3.org/2000/svg" xmlns:xlink="http://www.w3.org/1999/xlink" version="1.1" id="Layer_1" x="0px" y="0px" viewBox="0 0 491.52 491.52" style="enable-background:new 0 0 491.52 491.52;" xml:space="preserve">
<circle style="fill:#EA8953;" cx="245.76" cy="245.76" r="245.76"/>
<path style="opacity:0.1;enable-background:new    ;" d="M309.248,124.835c-8.704-9.728-21.402-15.872-35.533-15.872  c-8.96,0-17.306,2.509-24.525,6.758c-6.861-6.656-16.23-10.752-26.573-10.752c-17.613,0-32.358,11.827-36.915,28.006  c-19.866,0.717-35.789,16.998-35.789,37.069c0,4.403,0.819,8.653,2.253,12.595c-12.186,6.042-20.582,18.586-20.582,33.126  c0,9.216,3.379,17.613,9.011,24.115c1.178,1.382,2.509,2.714,3.891,3.891l45.005,45.005l-11.469,28.365  c-5.069-4.198-11.52-6.758-18.586-6.758c-14.643,0-26.829,10.803-28.979,24.883c-14.08,0.051-25.498,11.52-25.498,25.651  c0,6.605,2.509,12.595,6.656,17.152l0.461,0.512l1.024,1.024l110.943,110.904c7.161,0.627,14.393,1.009,21.717,1.009  c116.785,0,214.473-81.486,239.487-190.685L309.504,125.091L309.248,124.835z"/>
<path style="fill:#E56353;" d="M337.58,367.843h-180l88.025-218.235L337.58,367.843z M180.34,352.483h134.1l-68.525-162.585  L180.34,352.483z"/>
<path style="fill:#EBF0F3;" d="M371.414,349.098c0.002-0.127,0.01-0.251,0.01-0.378c0-17.719-14.364-32.082-32.082-32.082  c-9.939,0-18.821,4.52-24.706,11.616c-3.156-1.425-6.649-2.238-10.338-2.238c-13.099,0-23.853,10.008-25.052,22.794  c-0.582-0.054-1.169-0.089-1.765-0.089c-10.449,0-18.92,8.471-18.92,18.92c0,10.449,8.471,18.92,18.92,18.92h90.159  c10.45,0,18.921-8.471,18.921-18.92C386.56,358.483,380.055,350.848,371.414,349.098z"/>
<g>
	<path style="fill:#FFFFFF;" d="M299.643,335.325c2.907,0,5.741,0.613,8.423,1.825l3.234,1.46l2.264-2.73   c0.619-0.747,1.278-1.448,1.962-2.118l-2.806-1.267c-2.682-1.211-5.516-1.825-8.422-1.825c-6.855,0-12.922,3.322-16.648,8.507   C291.026,336.751,295.164,335.325,299.643,335.325z"/>
	<path style="fill:#FFFFFF;" d="M272.827,358.028c0.448,0,0.891,0.029,1.33,0.07l4.634,0.434l0.434-4.633   c0.013-0.139,0.042-0.273,0.058-0.412l-0.472-0.044c-0.439-0.041-0.882-0.07-1.33-0.07c-5.124,0-9.612,2.725-12.128,6.792   C267.53,358.819,270.085,358.028,272.827,358.028z"/>
	<path style="fill:#FFFFFF;" d="M370.49,353.661l-3.8-0.77l0.08-4.172c0-15.124-12.304-27.427-27.43-27.427   c-8.188,0-15.886,3.62-21.123,9.933l-0.536,0.647c4.802-3.804,10.756-5.925,17.005-5.925c15.125,0,27.429,12.303,27.429,27.427   l-0.079,4.173l3.8,0.77c6.614,1.338,11.416,7.217,11.416,13.978c0,2.742-0.791,5.297-2.138,7.474   c4.067-2.516,6.792-7.005,6.792-12.128C381.906,360.878,377.104,354.999,370.49,353.661z"/>
</g>
<path style="fill:#EBF0F3;" d="M359.952,191.917c0-21.169-17.161-38.33-38.33-38.33c-0.056,0-0.11,0.008-0.165,0.008  c-1.687-24.929-22.39-44.643-47.747-44.643c-8.962,0-17.319,2.506-24.494,6.789c-6.896-6.663-16.267-10.781-26.613-10.781  c-17.585,0-32.368,11.856-36.881,28c-19.879,0.715-35.786,17.011-35.786,37.064c0,4.445,0.822,8.687,2.253,12.637  c-12.205,6.028-20.62,18.564-20.62,33.097c0,20.397,16.535,36.933,36.933,36.933c11.18,0,21.176-4.987,27.949-12.835  c9.076,15.104,25.615,25.213,44.519,25.213c14.003,0,26.701-5.555,36.039-14.57c7.652,8.907,18.974,14.57,31.637,14.57  c23.044,0,41.724-18.681,41.724-41.724c0-1.925-0.176-3.805-0.428-5.661C356.141,210.873,359.952,201.851,359.952,191.917z"/>
<g>
	<path style="fill:#FFFFFF;" d="M351.649,191.918c0-16.474-13.338-29.89-29.781-30.026l-8.171,0.008l-0.523-7.743   c-1.403-20.691-18.738-36.9-39.464-36.9c-7.085,0-14.084,1.943-20.235,5.615l-5.458,3.256l-4.57-4.414   c-5.641-5.448-13.041-8.449-20.843-8.449c-10.228,0-19.54,5.281-24.995,13.518c4.837-3.265,10.582-5.213,16.69-5.213   c7.802,0,15.203,3.001,20.844,8.449l4.57,4.414l5.458-3.256c6.152-3.672,13.151-5.614,20.235-5.614   c20.725,0,38.061,16.208,39.464,36.899l0.523,7.743l8.171-0.008c16.443,0.136,29.78,13.552,29.78,30.026   c0,7.451-2.786,14.617-7.846,20.176l-2.612,2.865l0.523,3.841c0.239,1.766,0.349,3.209,0.349,4.546   c0,7.096-2.241,13.67-6.026,19.087c8.649-6.046,14.33-16.061,14.33-27.391c0-1.336-0.109-2.78-0.349-4.546l-0.523-3.84l2.611-2.865   C348.862,206.534,351.649,199.369,351.649,191.918z"/>
	<path style="fill:#FFFFFF;" d="M147.559,198.412l6.659-3.289l-1.211-3.35c-3.453,2.221-6.331,5.088-8.502,8.419   C145.484,199.553,146.489,198.94,147.559,198.412z"/>
	<path style="fill:#FFFFFF;" d="M177.713,149.564l6.066-0.217l1.634-5.846c0.219-0.781,0.56-1.499,0.838-2.251l-0.233,0.009   c-9.761,0.351-18.195,5.447-23.133,13.034C167.154,151.488,172.214,149.762,177.713,149.564z"/>
	<path style="fill:#FFFFFF;" d="M189.36,234.05l-4.333,5.017c1.732-1.231,3.337-2.655,4.783-4.269L189.36,234.05z"/>
</g>
<path style="fill:#EBF0F3;" d="M226.334,353.351c0.7-2.643,1.079-5.418,1.079-8.282c0-17.809-14.437-32.245-32.245-32.245  c-6.097,0-11.797,1.693-16.659,4.633c-5.126-4.39-11.78-7.048-19.058-7.048c-14.669,0-26.822,10.772-28.98,24.838  c-14.103,0.081-25.511,11.531-25.511,25.653c0,14.172,11.488,25.66,25.66,25.66h83.472c10.42,0,18.868-8.448,18.868-18.868  C232.96,361.948,230.384,356.812,226.334,353.351z"/>
<g>
	<path style="fill:#FFFFFF;" d="M125.843,344.556l3.971-0.023l0.602-3.926c0.037-0.239,0.099-0.469,0.142-0.706l-0.06,0   c-6.917,0.04-13.041,3.47-16.843,8.686C117.089,346.087,121.292,344.583,125.843,344.556z"/>
	<path style="fill:#FFFFFF;" d="M223.311,356.89l-2.227-1.902l0.752-2.832c0.611-2.306,0.923-4.691,0.923-7.087   c0-15.214-12.378-27.591-27.591-27.591c-5.037,0-9.966,1.369-14.25,3.961l-2.879,1.741l-2.557-2.189   c-4.466-3.823-10.159-5.928-16.032-5.928c-7.866,0-15.039,3.829-19.601,9.782c4.192-3.211,9.394-5.128,14.946-5.128   c5.873,0,11.566,2.106,16.032,5.928l2.557,2.189l2.879-1.741c4.284-2.592,9.214-3.962,14.25-3.962   c15.214,0,27.591,12.378,27.591,27.591c0,2.396-0.311,4.781-0.923,7.087l-0.753,2.831l2.227,1.903   c3.175,2.713,4.996,6.65,4.996,10.802c0,2.727-0.786,5.269-2.123,7.435c4.059-2.505,6.778-6.98,6.778-12.09   C228.306,363.54,226.486,359.603,223.311,356.89z"/>
</g>
<g>
</g>
<g>
</g>
<g>
</g>
<g>
</g>
<g>
</g>
<g>
</g>
<g>
</g>
<g>
</g>
<g>
</g>
<g>
</g>
<g>
</g>
<g>
</g>
<g>
</g>
<g>
</g>
<g>
</g>
</svg>
