<?xml version="1.0" encoding="iso-8859-1"?>
<!-- Generator: Adobe Illustrator 19.0.0, SVG Export Plug-In . SVG Version: 6.00 Build 0)  -->
<svg xmlns="http://www.w3.org/2000/svg" xmlns:xlink="http://www.w3.org/1999/xlink" version="1.1" id="Layer_1" x="0px" y="0px" viewBox="0 0 491.52 491.52" style="enable-background:new 0 0 491.52 491.52;" xml:space="preserve">
<circle style="fill:#334D5C;" cx="245.76" cy="245.76" r="245.76"/>
<path style="opacity:0.1;enable-background:new    ;" d="M318.413,123.948c-10.291-8.807-23.654-14.08-38.195-14.08  c-11.059,0-21.35,3.123-30.208,8.397c-8.499-8.244-20.07-13.313-32.819-13.313c-21.658,0-39.885,14.644-45.466,34.509  c-24.525,0.923-44.134,20.993-44.134,45.723c0,5.477,1.024,10.7,2.816,15.564c-15.053,7.476-25.446,22.886-25.446,40.806  c0,9.933,3.174,19.149,8.602,26.624c2.867,3.994,6.349,7.526,10.394,10.394l74.138,74.137h-76.237  c-9.318,0-16.896,7.578-16.896,16.947c0,4.506,1.741,8.55,4.608,11.571l0.358,0.358l108.368,108.369  c9.021,1.004,18.176,1.566,27.465,1.566c119.71,0,219.379-85.608,241.25-198.932l-161.736-161.78  C323.174,128.3,320.87,125.996,318.413,123.948z"/>
<path style="fill:#EBF0F3;" d="M386.56,212.18c0-26.102-21.159-47.262-47.262-47.262c-0.069,0-0.135,0.01-0.204,0.01  c-2.08-30.738-27.607-55.045-58.873-55.045c-11.051,0-21.356,3.09-30.201,8.37c-8.503-8.216-20.058-13.294-32.815-13.294  c-21.683,0-39.91,14.619-45.476,34.525c-24.51,0.881-44.125,20.975-44.125,45.701c0,5.48,1.013,10.711,2.778,15.581  c-15.048,7.433-25.424,22.889-25.424,40.809c0,25.15,20.388,45.539,45.538,45.539c13.784,0,26.11-6.15,34.461-15.826  c11.191,18.623,31.584,31.088,54.893,31.088c17.267,0,32.924-6.85,44.436-17.965c9.435,10.982,23.396,17.965,39.01,17.965  c28.413,0,51.447-23.033,51.447-51.446c0-2.374-0.217-4.692-0.528-6.98C381.86,235.553,386.56,224.429,386.56,212.18z"/>
<g>
	<path style="fill:#FFFFFF;" d="M376.322,212.18c0-20.313-16.445-36.855-36.72-37.022l-10.075,0.01l-0.645-9.547   c-1.73-25.513-23.105-45.498-48.66-45.498c-8.735,0-17.365,2.395-24.95,6.923l-6.73,4.015l-5.635-5.443   c-6.955-6.717-16.08-10.418-25.7-10.418c-12.611,0-24.094,6.512-30.818,16.668c5.964-4.026,13.047-6.428,20.578-6.428   c9.62,0,18.745,3.7,25.7,10.418l5.635,5.443l6.73-4.015c7.585-4.528,16.215-6.923,24.95-6.923c25.555,0,46.93,19.985,48.66,45.498   l0.645,9.547l10.075-0.01c20.275,0.167,36.72,16.71,36.72,37.022c0,9.187-3.435,18.022-9.675,24.878l-3.22,3.532l0.645,4.735   c0.295,2.178,0.43,3.958,0.43,5.605c0,8.749-2.763,16.855-7.43,23.534c10.665-7.455,17.67-19.804,17.67-33.774   c0-1.648-0.135-3.428-0.43-5.605l-0.645-4.735l3.22-3.532C372.887,230.202,376.322,221.367,376.322,212.18z"/>
	<path style="fill:#FFFFFF;" d="M124.677,220.188l8.21-4.055l-1.494-4.13c-4.257,2.739-7.806,6.274-10.482,10.382   C122.118,221.594,123.357,220.839,124.677,220.188z"/>
	<path style="fill:#FFFFFF;" d="M161.857,159.957l7.48-0.267l2.015-7.208c0.27-0.963,0.69-1.848,1.033-2.775l-0.288,0.01   c-12.036,0.433-22.435,6.716-28.524,16.071C148.837,162.33,155.077,160.201,161.857,159.957z"/>
	<path style="fill:#FFFFFF;" d="M176.217,264.13l-5.343,6.186c2.135-1.518,4.115-3.273,5.898-5.263L176.217,264.13z"/>
</g>
<path style="fill:#E56353;" d="M297.624,216.552c1.025-4.134,1.628-8.434,1.628-12.884c0-4.451-0.603-8.75-1.628-12.884l9.562-7.919  c1.376-1.14,1.729-3.106,0.836-4.653l-9.086-15.738c-0.894-1.547-2.773-2.224-4.448-1.603l-11.624,4.316  c-6.198-5.978-13.827-10.458-22.333-12.9l-2.074-12.218c-0.298-1.761-1.824-3.05-3.611-3.05h-18.172  c-1.787,0-3.313,1.289-3.611,3.05l-2.074,12.218c-8.506,2.442-16.135,6.922-22.333,12.9l-11.625-4.316  c-1.675-0.622-3.554,0.055-4.448,1.603l-9.086,15.738c-0.893,1.547-0.54,3.513,0.836,4.653l9.562,7.919  c-1.024,4.134-1.628,8.433-1.628,12.884c0,4.45,0.604,8.75,1.628,12.884l-9.562,7.919c-1.376,1.14-1.729,3.105-0.836,4.653  l9.086,15.737c0.894,1.547,2.773,2.225,4.448,1.603l11.625-4.316c6.198,5.978,13.827,10.458,22.333,12.9l2.074,12.218  c0.298,1.761,1.824,3.05,3.611,3.05h18.172c1.787,0,3.313-1.289,3.611-3.05l2.074-12.218c8.506-2.442,16.135-6.922,22.333-12.9  l11.624,4.316c1.675,0.622,3.554-0.055,4.448-1.603l9.086-15.737c0.893-1.548,0.54-3.513-0.836-4.653L297.624,216.552z   M245.76,244.708c-22.666,0-41.041-18.374-41.041-41.04s18.375-41.04,41.041-41.04c22.666,0,41.04,18.374,41.04,41.04  S268.426,244.708,245.76,244.708z"/>
<g>
	<path style="fill:#D15241;" d="M245.76,162.628c-22.666,0-41.041,18.374-41.041,41.04s18.375,41.04,41.041,41.04   c22.666,0,41.04-18.374,41.04-41.04S268.426,162.628,245.76,162.628z M245.76,238.94c-19.481,0-35.272-15.792-35.272-35.272   s15.792-35.272,35.272-35.272c19.48,0,35.272,15.792,35.272,35.272S265.24,238.94,245.76,238.94z"/>
	<circle style="fill:#D15241;" cx="245.76" cy="203.668" r="17.853"/>
</g>
<path style="fill:#64798A;" d="M369.645,352.732H121.874c-9.341,0-16.914,7.573-16.914,16.914c0,9.341,7.572,16.914,16.914,16.914  h247.771c9.341,0,16.915-7.572,16.915-16.914C386.56,360.304,378.986,352.732,369.645,352.732z"/>
<path style="fill:#44C4A1;" d="M249.094,357.852h-127.22c-6.505,0-11.795,5.29-11.795,11.795c0,6.503,5.29,11.793,11.795,11.793  h127.22V357.852z"/>
<g>
	<polygon style="fill:#52CCA6;" points="234.518,381.439 228.013,381.439 237.452,357.852 243.957,357.852  "/>
	<polygon style="fill:#52CCA6;" points="218.574,381.439 212.069,381.439 221.508,357.852 228.013,357.852  "/>
	<polygon style="fill:#52CCA6;" points="202.63,381.439 196.125,381.439 205.564,357.852 212.069,357.852  "/>
	<polygon style="fill:#52CCA6;" points="186.686,381.439 180.181,381.439 189.62,357.852 196.125,357.852  "/>
	<polygon style="fill:#52CCA6;" points="170.742,381.439 164.237,381.439 173.676,357.852 180.181,357.852  "/>
	<polygon style="fill:#52CCA6;" points="154.799,381.439 148.294,381.439 157.732,357.852 164.237,357.852  "/>
	<polygon style="fill:#52CCA6;" points="138.855,381.439 132.349,381.439 141.788,357.852 148.294,357.852  "/>
	<path style="fill:#52CCA6;" d="M125.844,357.852l-8.976,22.432c1.526,0.721,3.21,1.156,5.006,1.156h1.037l9.438-23.588H125.844z"/>
</g>
<g>
</g>
<g>
</g>
<g>
</g>
<g>
</g>
<g>
</g>
<g>
</g>
<g>
</g>
<g>
</g>
<g>
</g>
<g>
</g>
<g>
</g>
<g>
</g>
<g>
</g>
<g>
</g>
<g>
</g>
</svg>
