<?xml version="1.0" encoding="iso-8859-1"?>
<!-- Generator: Adobe Illustrator 19.0.0, SVG Export Plug-In . SVG Version: 6.00 Build 0)  -->
<svg xmlns="http://www.w3.org/2000/svg" xmlns:xlink="http://www.w3.org/1999/xlink" version="1.1" id="Layer_1" x="0px" y="0px" viewBox="0 0 491.52 491.52" style="enable-background:new 0 0 491.52 491.52;" xml:space="preserve">
<circle style="fill:#45B39C;" cx="245.76" cy="245.76" r="245.76"/>
<path style="opacity:0.1;enable-background:new    ;" d="M325.018,122.787c-4.301,0-8.448,0.666-12.39,1.843  c-9.83-11.981-24.73-19.661-41.472-19.661c-15.104,0-28.723,6.298-38.451,16.384c-9.318-5.837-20.275-9.165-32-9.165  c-32.768,0-59.443,26.061-60.416,58.573c-20.019,3.123-35.328,20.378-35.328,41.267c0,13.875,6.758,26.163,17.203,33.741  l0.154,0.154l51.507,51.507c0.051,5.837,0.87,11.469,2.202,16.845l-12.851,10.65c-1.843,1.536-2.304,4.198-1.126,6.246  l12.237,21.146c0.41,0.819,1.075,1.434,1.792,1.843l0.102,0.051l129.84,129.839c98.411-24.81,173.203-108.957,184.108-212.18  L360.09,141.834C352.666,130.365,339.712,122.787,325.018,122.787z"/>
<path style="fill:#EBF0F3;" d="M365.323,175.63c0.961-3.517,1.517-7.202,1.517-11.023c0-23.098-18.725-41.823-41.822-41.823  c-4.313,0-8.474,0.655-12.388,1.868c-9.816-12.014-24.738-19.692-41.461-19.692c-15.12,0-28.75,6.295-38.483,16.377  c-9.283-5.805-20.247-9.171-32.002-9.171c-32.759,0-59.413,26.06-60.408,58.577c-20,3.133-35.315,20.387-35.315,41.266  c0,23.098,18.725,41.823,41.822,41.823c4.239,0,8.326-0.642,12.182-1.815c7.656,20.198,27.129,34.583,50.011,34.583  c5.215,0,10.241-0.782,15.006-2.172c10.971,15.284,28.882,25.251,49.133,25.251c32.37,0,58.797-25.442,60.378-57.42  c3.583,0.999,7.343,1.573,11.244,1.573c23.098,0,41.823-18.724,41.823-41.823C386.56,196.402,377.994,182.816,365.323,175.63z"/>
<g>
	<path style="fill:#FFFFFF;" d="M131.622,191.101l8.39-1.315l0.26-8.49c0-0.014,0.003-0.026,0.003-0.039   c-8.765,1.833-16.039,7.073-20.444,14.291C123.343,193.369,127.288,191.779,131.622,191.101z"/>
	<path style="fill:#FFFFFF;" d="M313.657,249.199l-0.63,12.795c-0.51,10.3-4.115,19.722-9.859,27.436   c11.55-8.633,19.286-22.107,20.087-37.559L313.657,249.199z"/>
	<path style="fill:#FFFFFF;" d="M360.267,184.537l-6.92-3.928l2.095-7.675c0.77-2.818,1.16-5.62,1.16-8.328   c0-17.415-14.17-31.583-31.585-31.583c-3.19,0-6.34,0.475-9.36,1.41l-6.595,2.04l-4.365-5.345   c-8.27-10.122-20.49-15.93-33.53-15.93c-11.82,0-22.865,4.705-31.11,13.247l-5.765,5.97l-7.035-4.398   c-7.965-4.98-17.155-7.612-26.575-7.612c-16.565,0-31.156,7.896-40.285,20.178c8.369-6.232,18.74-9.938,30.045-9.938   c9.42,0,18.61,2.633,26.575,7.612l7.035,4.398l5.765-5.97c8.245-8.543,19.29-13.247,31.11-13.247c13.04,0,25.26,5.808,33.53,15.93   l4.365,5.345l6.595-2.04c3.02-0.935,6.17-1.41,9.36-1.41c17.415,0,31.585,14.168,31.585,31.583c0,2.707-0.39,5.51-1.16,8.328   l-2.095,7.675l6.92,3.928c9.905,5.615,16.055,16.142,16.055,27.472c0,6.087-1.76,11.758-4.756,16.585   c8.983-5.575,14.996-15.499,14.996-26.825C376.322,200.679,370.172,190.152,360.267,184.537z"/>
</g>
<path style="fill:#E56353;" d="M315.486,314.281c1.377-5.558,2.188-11.338,2.188-17.321s-0.811-11.763-2.188-17.32l12.854-10.646  c1.849-1.532,2.324-4.175,1.124-6.255l-12.215-21.157c-1.201-2.08-3.727-2.99-5.979-2.154l-15.627,5.802  c-8.333-8.036-18.589-14.06-30.025-17.342l-2.787-16.426c-0.401-2.368-2.452-4.101-4.855-4.101h-24.43  c-2.403,0-4.454,1.733-4.855,4.101l-2.787,16.426c-11.436,3.283-21.692,9.306-30.025,17.342l-15.627-5.802  c-2.252-0.836-4.778,0.074-5.979,2.154l-12.215,21.157c-1.201,2.08-0.725,4.723,1.124,6.255l12.854,10.646  c-1.377,5.557-2.188,11.337-2.188,17.32s0.812,11.763,2.188,17.321l-12.854,10.646c-1.849,1.532-2.324,4.175-1.124,6.255  l12.215,21.157c1.201,2.08,3.727,2.99,5.979,2.154l15.627-5.802c8.333,8.036,18.589,14.06,30.025,17.342l2.787,16.426  c0.401,2.368,2.452,4.101,4.855,4.101h24.43c2.403,0,4.454-1.733,4.855-4.101l2.787-16.426c11.436-3.283,21.692-9.306,30.025-17.342  l15.627,5.802c2.252,0.836,4.778-0.074,5.979-2.154l12.215-21.157c1.201-2.08,0.725-4.723-1.124-6.255L315.486,314.281z   M245.76,352.134c-30.471,0-55.174-24.702-55.174-55.174s24.702-55.174,55.174-55.174c30.471,0,55.174,24.702,55.174,55.174  S276.231,352.134,245.76,352.134z"/>
<g>
	<path style="fill:#D15241;" d="M245.76,241.786c-30.471,0-55.174,24.702-55.174,55.174s24.702,55.174,55.174,55.174   c30.471,0,55.174-24.702,55.174-55.174S276.231,241.786,245.76,241.786z M245.76,344.378c-26.189,0-47.419-21.23-47.419-47.418   s21.23-47.418,47.419-47.418s47.419,21.23,47.419,47.418S271.949,344.378,245.76,344.378z"/>
	<circle style="fill:#D15241;" cx="245.76" cy="296.96" r="23.997"/>
</g>
<g>
</g>
<g>
</g>
<g>
</g>
<g>
</g>
<g>
</g>
<g>
</g>
<g>
</g>
<g>
</g>
<g>
</g>
<g>
</g>
<g>
</g>
<g>
</g>
<g>
</g>
<g>
</g>
<g>
</g>
</svg>
