<?xml version="1.0" encoding="iso-8859-1"?>
<!-- Generator: Adobe Illustrator 19.0.0, SVG Export Plug-In . SVG Version: 6.00 Build 0)  -->
<svg xmlns="http://www.w3.org/2000/svg" xmlns:xlink="http://www.w3.org/1999/xlink" version="1.1" id="Layer_1" x="0px" y="0px" viewBox="0 0 491.52 491.52" style="enable-background:new 0 0 491.52 491.52;" xml:space="preserve">
<circle style="fill:#45B39C;" cx="245.76" cy="245.76" r="245.76"/>
<path style="opacity:0.1;enable-background:new    ;" d="M491.413,249.997L349.235,107.786l-1.024-1.025  c-1.331-1.126-3.021-1.791-4.864-1.791H148.173c-4.25,0-7.629,3.43-7.629,7.628v49.459c0,2.15,0.922,4.147,2.355,5.53l10.24,10.24  h-4.966c-4.25,0-7.629,3.43-7.629,7.68v49.408c0,2.202,0.922,4.199,2.355,5.581l10.24,10.189h-4.966c-4.25,0-7.629,3.43-7.629,7.68  v49.407c0,2.202,0.922,4.199,2.355,5.53l0.154,0.154l53.248,53.247H104.96v14.747l107.802,107.801  c10.8,1.45,21.801,2.269,32.998,2.269C380.068,491.52,489.142,383.764,491.413,249.997z"/>
<polygon style="fill:#EBF0F3;" points="253.119,366.725 253.119,292.631 238.403,292.631 238.403,366.725 104.96,366.725   104.96,381.441 386.56,381.441 386.56,366.725 "/>
<path style="fill:#E56353;" d="M287.88,361.605h-27.058c-1.427,0-2.585-1.158-2.585-2.586v-21.242c0-1.428-1.158-2.586-2.585-2.586  h-19.785c-1.427,0-2.585,1.158-2.585,2.586v21.242c0,1.427-1.158,2.586-2.585,2.586h-27.055c-1.428,0-2.586,1.158-2.586,2.586  v19.784c0,1.428,1.158,2.586,2.586,2.586h84.238c1.428,0,2.586-1.158,2.586-2.586v-19.784  C290.466,362.763,289.309,361.605,287.88,361.605z"/>
<rect x="155.085" y="161.828" style="fill:#3A556A;" width="181.35" height="95.196"/>
<path style="fill:#EBF0F3;" d="M343.359,104.96H148.16c-4.22,0-7.641,3.428-7.641,7.657v49.433c0,4.229,3.42,7.657,7.641,7.657  h195.199c4.219,0,7.641-3.428,7.641-7.657v-49.433C351,108.388,347.579,104.96,343.359,104.96z"/>
<rect x="244.372" y="116.465" style="fill:#27A2DB;" width="95.15" height="41.738"/>
<rect x="244.372" y="150.548" style="fill:#2D93BA;" width="95.15" height="7.654"/>
<ellipse style="fill:#44C4A1;" cx="169.011" cy="137.334" rx="10.829" ry="10.854"/>
<ellipse style="fill:#FCD462;" cx="207.104" cy="137.334" rx="10.829" ry="10.854"/>
<path style="fill:#EBF0F3;" d="M343.359,177.827H148.16c-4.22,0-7.641,3.428-7.641,7.657v49.434c0,4.229,3.42,7.656,7.641,7.656  h195.199c4.219,0,7.641-3.428,7.641-7.656v-49.434C351,181.255,347.579,177.827,343.359,177.827z"/>
<rect x="244.372" y="189.332" style="fill:#27A2DB;" width="95.15" height="41.738"/>
<rect x="244.372" y="223.416" style="fill:#2D93BA;" width="95.15" height="7.654"/>
<ellipse style="fill:#44C4A1;" cx="169.011" cy="210.176" rx="10.829" ry="10.854"/>
<ellipse style="fill:#FCD462;" cx="207.104" cy="210.176" rx="10.829" ry="10.854"/>
<path style="fill:#EBF0F3;" d="M343.359,250.693H148.16c-4.22,0-7.641,3.428-7.641,7.657v49.434c0,4.229,3.42,7.656,7.641,7.656  h195.199c4.219,0,7.641-3.428,7.641-7.656v-49.434C351,254.121,347.579,250.693,343.359,250.693z"/>
<rect x="244.372" y="262.195" style="fill:#27A2DB;" width="95.15" height="41.738"/>
<rect x="244.372" y="296.279" style="fill:#2D93BA;" width="95.15" height="7.654"/>
<ellipse style="fill:#44C4A1;" cx="169.011" cy="283.085" rx="10.829" ry="10.854"/>
<ellipse style="fill:#FCD462;" cx="207.104" cy="283.085" rx="10.829" ry="10.854"/>
<g>
</g>
<g>
</g>
<g>
</g>
<g>
</g>
<g>
</g>
<g>
</g>
<g>
</g>
<g>
</g>
<g>
</g>
<g>
</g>
<g>
</g>
<g>
</g>
<g>
</g>
<g>
</g>
<g>
</g>
</svg>
