<?xml version="1.0" encoding="iso-8859-1"?>
<!-- Generator: Adobe Illustrator 19.0.0, SVG Export Plug-In . SVG Version: 6.00 Build 0)  -->
<svg xmlns="http://www.w3.org/2000/svg" xmlns:xlink="http://www.w3.org/1999/xlink" version="1.1" id="Layer_1" x="0px" y="0px" viewBox="0 0 491.52 491.52" style="enable-background:new 0 0 491.52 491.52;" xml:space="preserve">
<circle style="fill:#45B39C;" cx="245.76" cy="245.76" r="245.76"/>
<path style="opacity:0.1;enable-background:new    ;" d="M323.072,128.419c-10.752-11.366-25.958-18.534-42.854-18.534  c-11.059,0-21.35,3.072-30.208,8.346c-8.499-8.192-20.07-13.261-32.819-13.261c-21.658,0-39.885,14.592-45.466,34.509  c-24.525,0.87-44.134,20.992-44.134,45.722c0,5.478,1.024,10.701,2.816,15.565c-15.053,7.424-25.446,22.886-25.446,40.806  c0,13.414,5.837,25.498,15.053,33.792l0.256,0.256l48.947,48.947v3.43c0,1.792,0.819,3.379,2.15,4.352l7.117,7.117h-3.686  c-3.072,0-5.581,2.509-5.581,5.581v35.942c0,1.434,0.563,2.765,1.485,3.738l0.41,0.41l104.483,104.517  c106.214-12.863,191.514-93.428,211.457-197.296L323.789,129.136L323.072,128.419z"/>
<path style="fill:#EBF0F3;" d="M386.56,212.179c0-26.102-21.16-47.261-47.262-47.261c-0.069,0-0.135,0.01-0.204,0.01  c-2.08-30.738-27.607-55.046-58.873-55.046c-11.05,0-21.355,3.09-30.201,8.371c-8.503-8.216-20.058-13.294-32.815-13.294  c-21.683,0-39.909,14.619-45.475,34.524c-24.511,0.881-44.125,20.975-44.125,45.701c0,5.48,1.013,10.711,2.778,15.581  c-15.048,7.432-25.424,22.889-25.424,40.809c0,25.15,20.388,45.538,45.538,45.538c13.785,0,26.111-6.15,34.462-15.826  c11.19,18.623,31.584,31.088,54.892,31.088c17.266,0,32.923-6.85,44.436-17.965c9.435,10.982,23.395,17.965,39.01,17.965  c28.413,0,51.446-23.033,51.446-51.446c0-2.374-0.217-4.691-0.528-6.98C381.86,235.553,386.56,224.429,386.56,212.179z"/>
<g>
	<path style="fill:#FFFFFF;" d="M376.322,212.18c0-20.313-16.445-36.855-36.72-37.023l-10.075,0.01l-0.645-9.548   c-1.73-25.512-23.105-45.497-48.66-45.497c-8.735,0-17.365,2.395-24.95,6.922l-6.73,4.015l-5.635-5.443   c-6.955-6.717-16.08-10.417-25.7-10.417c-12.612,0-24.094,6.512-30.819,16.667c5.964-4.026,13.047-6.427,20.579-6.427   c9.62,0,18.745,3.7,25.7,10.417l5.635,5.443l6.73-4.015c7.585-4.527,16.215-6.922,24.95-6.922c25.555,0,46.93,19.985,48.66,45.497   l0.645,9.548l10.075-0.01c20.275,0.167,36.72,16.71,36.72,37.023c0,9.187-3.435,18.022-9.675,24.878l-3.22,3.532l0.645,4.735   c0.295,2.178,0.43,3.958,0.43,5.605c0,8.75-2.762,16.855-7.43,23.535c10.665-7.455,17.67-19.804,17.67-33.775   c0-1.647-0.135-3.427-0.43-5.605l-0.645-4.735l3.22-3.532C372.887,230.202,376.322,221.367,376.322,212.18z"/>
	<path style="fill:#FFFFFF;" d="M124.677,220.187l8.21-4.055l-1.493-4.13c-4.258,2.739-7.806,6.274-10.483,10.381   C122.119,221.594,123.357,220.839,124.677,220.187z"/>
	<path style="fill:#FFFFFF;" d="M161.857,159.957l7.48-0.268l2.015-7.207c0.27-0.964,0.69-1.848,1.033-2.776l-0.288,0.011   c-12.036,0.432-22.435,6.716-28.524,16.071C148.837,162.33,155.077,160.201,161.857,159.957z"/>
	<path style="fill:#FFFFFF;" d="M176.217,264.13l-5.342,6.186c2.135-1.519,4.115-3.273,5.897-5.263L176.217,264.13z"/>
</g>
<rect x="179.814" y="274.862" style="fill:#3A556A;" width="131.866" height="69.217"/>
<path style="fill:#64798A;" d="M316.728,233.511H174.792c-3.069,0-5.556,2.492-5.556,5.567v35.945c0,3.075,2.487,5.568,5.556,5.568  h141.937c3.068,0,5.556-2.492,5.556-5.568v-35.945C322.284,236.004,319.797,233.511,316.728,233.511z"/>
<rect x="244.751" y="241.869" style="fill:#27A2DB;" width="69.187" height="30.346"/>
<rect x="244.751" y="266.65" style="fill:#2D93BA;" width="69.187" height="5.565"/>
<ellipse style="fill:#44C4A1;" cx="189.952" cy="257.075" rx="7.875" ry="7.89"/>
<ellipse style="fill:#FCD462;" cx="217.646" cy="257.075" rx="7.875" ry="7.89"/>
<path style="fill:#64798A;" d="M316.728,286.496H174.792c-3.069,0-5.556,2.492-5.556,5.567v35.945c0,3.075,2.487,5.567,5.556,5.567  h141.937c3.068,0,5.556-2.492,5.556-5.567v-35.945C322.284,288.988,319.797,286.496,316.728,286.496z"/>
<rect x="244.751" y="294.861" style="fill:#27A2DB;" width="69.187" height="30.346"/>
<rect x="244.751" y="319.642" style="fill:#2D93BA;" width="69.187" height="5.565"/>
<ellipse style="fill:#44C4A1;" cx="189.952" cy="310.016" rx="7.875" ry="7.89"/>
<ellipse style="fill:#FCD462;" cx="217.646" cy="310.016" rx="7.875" ry="7.89"/>
<path style="fill:#64798A;" d="M316.728,339.48H174.792c-3.069,0-5.556,2.493-5.556,5.568v35.945c0,3.075,2.487,5.568,5.556,5.568  h141.937c3.068,0,5.556-2.492,5.556-5.568v-35.945C322.284,341.972,319.797,339.48,316.728,339.48z"/>
<rect x="244.751" y="347.843" style="fill:#27A2DB;" width="69.187" height="30.346"/>
<rect x="244.751" y="372.634" style="fill:#2D93BA;" width="69.187" height="5.565"/>
<ellipse style="fill:#44C4A1;" cx="189.952" cy="363.018" rx="7.875" ry="7.89"/>
<ellipse style="fill:#FCD462;" cx="217.646" cy="363.018" rx="7.875" ry="7.89"/>
<g>
</g>
<g>
</g>
<g>
</g>
<g>
</g>
<g>
</g>
<g>
</g>
<g>
</g>
<g>
</g>
<g>
</g>
<g>
</g>
<g>
</g>
<g>
</g>
<g>
</g>
<g>
</g>
<g>
</g>
</svg>
