<?xml version="1.0" encoding="iso-8859-1"?>
<!-- Generator: Adobe Illustrator 19.0.0, SVG Export Plug-In . SVG Version: 6.00 Build 0)  -->
<svg xmlns="http://www.w3.org/2000/svg" xmlns:xlink="http://www.w3.org/1999/xlink" version="1.1" id="Layer_1" x="0px" y="0px" viewBox="0 0 491.52 491.52" style="enable-background:new 0 0 491.52 491.52;" xml:space="preserve">
<circle style="fill:#E05B49;" cx="245.76" cy="245.76" r="245.76"/>
<path style="opacity:0.1;enable-background:new    ;" d="M347.852,125.961c-12.185-9.83-27.647-15.667-44.441-15.667  c-13.414,0-25.959,3.687-36.659,10.189c-11.264-9.677-25.907-15.513-41.933-15.513c-32.255,0-58.982,23.705-63.743,54.63  c-31.027,0.205-56.115,25.395-56.115,56.422c0,13.721,4.915,26.317,13.108,36.148c2.201,2.713,4.71,5.171,7.423,7.423l35.481,35.481  l-21.35,8.755l69.683,69.684v13.057l97.337,97.337c99.17-25.278,174.193-110.868,183.79-215.405L358.963,137.073  C355.686,132.976,351.949,129.239,347.852,125.961z"/>
<path style="fill:#EBF0F3;" d="M371.983,199.433c1.541-5.815,2.373-11.92,2.373-18.22c0-39.179-31.76-70.94-70.94-70.94  c-13.412,0-25.953,3.725-36.649,10.193c-11.278-9.659-25.915-15.506-41.928-15.506c-32.272,0-59.007,23.699-63.755,54.643  c-31.026,0.179-56.124,25.369-56.124,56.436c0,31.178,25.274,56.453,56.453,56.453h183.638c22.925,0,41.509-18.585,41.509-41.509  C386.56,218.344,380.893,207.046,371.983,199.433z"/>
<g>
	<path style="fill:#FFFFFF;" d="M150.902,180.083l8.735-0.05l1.325-8.637c0.081-0.526,0.218-1.032,0.313-1.553l-0.133,0.001   c-15.216,0.089-28.69,7.633-37.055,19.109C131.643,183.451,140.89,180.142,150.902,180.083z"/>
	<path style="fill:#FFFFFF;" d="M365.332,207.218l-4.9-4.185l1.655-6.23c1.345-5.072,2.03-10.32,2.03-15.59   c0-33.47-27.23-60.7-60.7-60.7c-11.08,0-21.925,3.013-31.35,8.715l-6.335,3.83l-5.625-4.815c-9.825-8.41-22.35-13.043-35.27-13.043   c-17.306,0-33.088,8.424-43.123,21.521c9.223-7.065,20.668-11.281,32.883-11.281c12.92,0,25.445,4.633,35.27,13.043l5.625,4.815   l6.335-3.83c9.425-5.703,20.27-8.715,31.35-8.715c33.47,0,60.7,27.23,60.7,60.7c0,5.27-0.685,10.517-2.03,15.59l-1.655,6.23   l4.9,4.185c6.985,5.967,10.99,14.63,10.99,23.765c0,6.001-1.728,11.592-4.671,16.358c8.929-5.512,14.911-15.357,14.911-26.598   C376.322,221.848,372.317,213.186,365.332,207.218z"/>
</g>
<polygon style="fill:#DC8744;" points="241.718,333.836 209.288,386.56 257.641,339.463 241.72,333.837 "/>
<polygon style="fill:#FCD462;" points="351.92,216.573 139.6,303.846 209.288,314.918 336.941,235.461 241.717,333.836   241.72,333.837 257.641,339.463 324.565,363.113 "/>
<polygon style="fill:#F6C358;" points="241.717,333.836 336.941,235.461 209.288,314.918 209.288,386.56 "/>
<g>
</g>
<g>
</g>
<g>
</g>
<g>
</g>
<g>
</g>
<g>
</g>
<g>
</g>
<g>
</g>
<g>
</g>
<g>
</g>
<g>
</g>
<g>
</g>
<g>
</g>
<g>
</g>
<g>
</g>
</svg>
