<?xml version="1.0" encoding="iso-8859-1"?>
<!-- Generator: Adobe Illustrator 19.0.0, SVG Export Plug-In . SVG Version: 6.00 Build 0)  -->
<svg xmlns="http://www.w3.org/2000/svg" xmlns:xlink="http://www.w3.org/1999/xlink" version="1.1" id="Layer_1" x="0px" y="0px" viewBox="0 0 491.52 491.52" style="enable-background:new 0 0 491.52 491.52;" xml:space="preserve">
<circle style="fill:#EFC84A;" cx="245.76" cy="245.76" r="245.76"/>
<path style="opacity:0.1;enable-background:new    ;" d="M329.062,122.378l-0.051-0.051c-12.39-10.803-28.57-17.357-46.336-17.357  c-21.862,0-41.421,9.933-54.323,25.549c-6.963-3.123-14.643-4.915-22.784-4.915c-28.826,0-52.48,22.016-55.091,50.125  c-1.28-0.102-2.56-0.205-3.891-0.205c-22.989,0-41.626,18.637-41.626,41.626c0,11.059,4.352,21.146,11.418,28.621l58.214,58.214  c3.584,19.968,10.701,40.397,24.115,56.115l0.205,0.205c2.611,3.123,5.53,6.042,8.755,8.755l111.32,111.362  c88.754-27.667,155.887-104.301,169.835-198.284l-152.95-152.95C333.773,126.73,331.469,124.477,329.062,122.378z"/>
<path style="fill:#EBF0F3;" d="M353.239,176.374c0.003-0.279,0.021-0.553,0.021-0.833c0-38.981-31.601-70.581-70.581-70.581  c-21.865,0-41.405,9.945-54.352,25.556c-6.945-3.137-14.629-4.924-22.744-4.924c-28.818,0-52.475,22.018-55.115,50.146  c-1.281-0.119-2.572-0.197-3.884-0.197c-22.989,0-41.625,18.636-41.625,41.625c0,22.989,18.636,41.625,41.625,41.625h198.35  c22.989,0,41.625-18.636,41.625-41.625C386.56,197.021,372.249,180.222,353.239,176.374z"/>
<g>
	<path style="fill:#FFFFFF;" d="M195.342,146.072c6.395,0,12.63,1.35,18.53,4.015l7.115,3.213l4.98-6.008   c1.361-1.641,2.811-3.186,4.318-4.658l-6.173-2.787c-5.9-2.665-12.135-4.015-18.53-4.015c-15.08,0-28.428,7.308-36.626,18.715   C176.384,149.21,185.49,146.072,195.342,146.072z"/>
	<path style="fill:#FFFFFF;" d="M136.347,196.02c0.985,0,1.96,0.062,2.925,0.153l10.195,0.955l0.955-10.192   c0.029-0.307,0.093-0.601,0.127-0.905l-1.037-0.097c-0.965-0.09-1.94-0.153-2.925-0.153c-11.273,0-21.148,5.994-26.682,14.943   C124.694,197.76,130.315,196.02,136.347,196.02z"/>
	<path style="fill:#FFFFFF;" d="M351.207,186.412l-8.36-1.692l0.175-9.18c0-33.272-27.07-60.34-60.345-60.34   c-18.015,0-34.95,7.965-46.47,21.853l-1.18,1.423c10.564-8.369,23.663-13.036,37.41-13.036c33.275,0,60.345,27.068,60.345,60.34   l-0.175,9.18l8.36,1.692c14.549,2.945,25.115,15.878,25.115,30.753c0,6.032-1.74,11.653-4.702,16.442   c8.947-5.535,14.942-15.41,14.942-26.682C376.322,202.29,365.757,189.357,351.207,186.412z"/>
</g>
<path style="fill:#64798A;" d="M317.761,229.969c-47.101,4.121-72.001-22.609-72.001-22.609s-24.901,26.729-72.002,22.609  c0,0-22.742,139.267,72.002,156.591C340.503,369.235,317.761,229.969,317.761,229.969z"/>
<path style="fill:#E56353;" d="M250.86,293.361h57.179c2.8-21.46,1.728-41.578,0.676-52.72c-0.24,0-0.48,0-0.725,0  c-26.484,0-45.652-8.843-57.13-16.283V293.361z"/>
<g>
	<path style="fill:#FFFFFF;" d="M240.62,293.361v-68.98c-11.483,7.433-30.635,16.26-57.09,16.26c-0.245,0-0.495,0-0.74,0   c-1.065,11.141-2.16,31.259,0.629,52.72H240.62z"/>
	<path style="fill:#FFFFFF;" d="M250.86,303.601v71.259c34.869-9.677,49.719-40.591,55.55-71.259H250.86z"/>
</g>
<path style="fill:#E56353;" d="M240.62,303.601h-55.578c5.815,30.652,20.663,61.553,55.578,71.25V303.601z"/>
<g>
</g>
<g>
</g>
<g>
</g>
<g>
</g>
<g>
</g>
<g>
</g>
<g>
</g>
<g>
</g>
<g>
</g>
<g>
</g>
<g>
</g>
<g>
</g>
<g>
</g>
<g>
</g>
<g>
</g>
</svg>
