<?xml version="1.0" encoding="iso-8859-1"?>
<!-- Generator: Adobe Illustrator 19.0.0, SVG Export Plug-In . SVG Version: 6.00 Build 0)  -->
<svg xmlns="http://www.w3.org/2000/svg" xmlns:xlink="http://www.w3.org/1999/xlink" version="1.1" id="Layer_1" x="0px" y="0px" viewBox="0 0 491.52 491.52" style="enable-background:new 0 0 491.52 491.52;" xml:space="preserve">
<circle style="fill:#E05B49;" cx="245.76" cy="245.76" r="245.76"/>
<path style="opacity:0.1;enable-background:new    ;" d="M491.455,248.334L367.616,124.46l-5.171-5.171  c-8.038-6.81-18.381-10.905-29.747-10.905c-8.704,0-16.794,2.458-23.756,6.604c-7.323-6.247-16.794-10.036-27.137-10.036  c-19.558,0-35.942,13.415-40.499,31.489h-55.603c-11.161,0-20.275,9.113-20.275,20.275v74.905h-55.092  c-2.97,0-5.376,2.407-5.376,5.376v124.417c0,1.485,0.614,2.816,1.588,3.789l125.914,125.949c4.404,0.234,8.836,0.369,13.299,0.369  C380.626,491.52,490.067,382.871,491.455,248.334z"/>
<g>
	<path style="fill:#64798A;" d="M175.688,249.487h-10.24v-92.785c0-11.17,9.09-20.257,20.26-20.257h92.935v10.24h-92.935   c-5.525,0-10.02,4.495-10.02,10.017V249.487z"/>
	<path style="fill:#64798A;" d="M330.993,322.247h-72.64v-10.24h72.64c5.525,0,10.02-4.495,10.02-10.02V181.27h10.24v120.717   C351.253,313.159,342.163,322.247,330.993,322.247z"/>
</g>
<path style="fill:#EBF0F3;" d="M377.116,166.167c0.998-3.767,1.537-7.722,1.537-11.804c0-25.383-20.577-45.96-45.96-45.96  c-8.69,0-16.815,2.413-23.745,6.603c-7.306-6.258-16.789-10.046-27.164-10.046c-20.909,0-38.229,15.354-41.305,35.402  c-20.101,0.116-36.362,16.436-36.362,36.563c0,20.199,16.375,36.575,36.575,36.575h118.974c14.852,0,26.893-12.041,26.893-26.893  C386.56,178.419,382.888,171.099,377.116,166.167z"/>
<g>
	<path style="fill:#FFFFFF;" d="M233.883,153.631l5.659-0.032l0.859-5.596c0.053-0.341,0.141-0.669,0.203-1.006h-0.086   c-9.859,0.058-18.588,4.945-24.007,12.381C221.406,155.813,227.396,153.669,233.883,153.631z"/>
	<path style="fill:#FFFFFF;" d="M372.807,171.211l-3.175-2.711l1.072-4.037c0.871-3.286,1.315-6.686,1.315-10.1   c0-21.685-17.641-39.326-39.326-39.326c-7.178,0-14.204,1.952-20.311,5.646l-4.105,2.481l-3.644-3.12   c-6.366-5.448-14.48-8.45-22.851-8.45c-11.213,0-21.437,5.457-27.938,13.943c5.975-4.577,13.39-7.309,21.304-7.309   c8.371,0,16.485,3.001,22.851,8.45l3.644,3.12l4.104-2.482c6.106-3.694,13.132-5.646,20.311-5.646   c21.684,0,39.326,17.641,39.326,39.326c0,3.415-0.444,6.814-1.315,10.101l-1.072,4.036l3.174,2.712   c4.526,3.866,7.12,9.478,7.12,15.397c0,3.888-1.12,7.51-3.026,10.598c5.785-3.571,9.66-9.949,9.66-17.232   C379.927,180.689,377.332,175.077,372.807,171.211z"/>
</g>
<polygon style="fill:#D5D6DB;" points="209.705,365.527 167.831,365.527 164.683,369.676 212.853,369.676 "/>
<path style="fill:#2F4859;" d="M272.577,236.981c0-2.966-2.404-5.37-5.37-5.37H110.33c-2.966,0-5.37,2.404-5.37,5.37v105.362  h167.617V236.981z"/>
<rect x="114.099" y="240.742" style="fill:#FCD462;" width="149.35" height="92.467"/>
<g>
	<path style="fill:#E1E6E9;" d="M104.96,342.343v19.07c0,2.966,2.404,5.37,5.37,5.37h156.877c2.966,0,5.37-2.404,5.37-5.37v-19.07   H104.96z"/>
	<polygon style="fill:#E1E6E9;" points="164.683,369.676 151.873,386.56 225.663,386.56 212.853,369.676  "/>
</g>
<circle style="fill:#D5D6DB;" cx="188.769" cy="354.56" r="7.798"/>
<g>
</g>
<g>
</g>
<g>
</g>
<g>
</g>
<g>
</g>
<g>
</g>
<g>
</g>
<g>
</g>
<g>
</g>
<g>
</g>
<g>
</g>
<g>
</g>
<g>
</g>
<g>
</g>
<g>
</g>
</svg>
