<?xml version="1.0" encoding="iso-8859-1"?>
<!-- Generator: Adobe Illustrator 19.0.0, SVG Export Plug-In . SVG Version: 6.00 Build 0)  -->
<svg xmlns="http://www.w3.org/2000/svg" xmlns:xlink="http://www.w3.org/1999/xlink" version="1.1" id="Layer_1" x="0px" y="0px" viewBox="0 0 491.52 491.52" style="enable-background:new 0 0 491.52 491.52;" xml:space="preserve">
<circle style="fill:#45B39C;" cx="245.76" cy="245.76" r="245.76"/>
<path style="opacity:0.1;enable-background:new    ;" d="M282.675,104.97c-21.862,0-41.421,9.932-54.323,25.548  c-6.963-3.124-14.643-4.915-22.784-4.915c-28.826,0-52.48,22.016-55.091,50.125c-1.28-0.102-2.56-0.205-3.891-0.205  c-22.989,0-41.626,18.637-41.626,41.626c0,12.237,5.274,23.194,13.619,30.822l0.307,0.256l51.712,51.712l-15.872,15.821  c-13.466,13.517-4.045,36.353,12.134,52.48l119.824,119.824C391.199,470.536,473.34,387.095,488.85,281.91l-155.59-155.59  C320.41,113.161,302.49,104.97,282.675,104.97z"/>
<path style="fill:#EBF0F3;" d="M353.239,176.374c0.003-0.279,0.021-0.553,0.021-0.833c0-38.981-31.601-70.581-70.581-70.581  c-21.865,0-41.405,9.945-54.352,25.556c-6.945-3.137-14.629-4.924-22.744-4.924c-28.818,0-52.475,22.018-55.115,50.146  c-1.281-0.119-2.572-0.197-3.884-0.197c-22.989,0-41.625,18.636-41.625,41.625c0,22.989,18.636,41.625,41.625,41.625h198.35  c22.989,0,41.625-18.636,41.625-41.625C386.56,197.021,372.248,180.222,353.239,176.374z"/>
<g>
	<path style="fill:#FFFFFF;" d="M195.342,146.072c6.395,0,12.63,1.35,18.53,4.015l7.115,3.213l4.98-6.008   c1.361-1.641,2.811-3.186,4.318-4.658l-6.173-2.787c-5.9-2.665-12.135-4.015-18.53-4.015c-15.08,0-28.428,7.308-36.626,18.715   C176.384,149.21,185.49,146.072,195.342,146.072z"/>
	<path style="fill:#FFFFFF;" d="M136.347,196.02c0.985,0,1.96,0.062,2.925,0.153l10.195,0.955l0.955-10.192   c0.029-0.307,0.093-0.601,0.127-0.905l-1.037-0.097c-0.965-0.09-1.94-0.153-2.925-0.153c-11.273,0-21.148,5.994-26.682,14.943   C124.694,197.76,130.315,196.02,136.347,196.02z"/>
	<path style="fill:#FFFFFF;" d="M351.207,186.412l-8.36-1.692l0.175-9.18c0-33.272-27.07-60.34-60.345-60.34   c-18.015,0-34.95,7.965-46.47,21.853l-1.18,1.423c10.564-8.369,23.663-13.036,37.41-13.036c33.275,0,60.345,27.068,60.345,60.34   l-0.175,9.18l8.36,1.692c14.549,2.945,25.115,15.878,25.115,30.753c0,6.032-1.74,11.653-4.702,16.442   c8.947-5.535,14.942-15.41,14.942-26.682C376.322,202.29,365.757,189.357,351.207,186.412z"/>
</g>
<path style="fill:#3A556A;" d="M278.578,191.934L154.745,315.767c-26.9,26.9,37.451,91.252,64.351,64.352l123.833-123.833  C348.03,251.184,283.679,186.832,278.578,191.934z"/>
<ellipse style="fill:#E56353;" cx="280.969" cy="209.413" rx="7.634" ry="7.634"/>
<ellipse style="fill:#44C4A1;" cx="323.593" cy="252.03" rx="7.634" ry="7.634"/>
<g>
	<path style="fill:#64798A;" d="M276.629,228.045l-10.841-10.841c-0.941-0.941-2.468-0.941-3.409,0.001l-4.809,4.808   c-0.942,0.942-0.942,2.468,0,3.41l10.841,10.841c0.942,0.942,2.468,0.941,3.41-0.001l4.809-4.808   C277.571,230.513,277.571,228.987,276.629,228.045z"/>
	<path style="fill:#64798A;" d="M296.213,247.629l-10.84-10.841c-0.942-0.942-2.469-0.942-3.41-0.001l-4.809,4.808   c-0.942,0.942-0.941,2.469,0.001,3.41l10.841,10.841c0.942,0.942,2.469,0.942,3.41,0.001l4.808-4.809   C297.155,250.097,297.155,248.57,296.213,247.629z"/>
	<path style="fill:#64798A;" d="M315.797,267.213l-10.841-10.841c-0.942-0.942-2.468-0.942-3.41,0l-4.808,4.809   c-0.942,0.942-0.942,2.468,0,3.409l10.842,10.841c0.941,0.942,2.468,0.942,3.41,0l4.809-4.808   C316.739,269.681,316.739,268.154,315.797,267.213z"/>
	<path style="fill:#64798A;" d="M263.397,241.278l-10.841-10.842c-0.942-0.941-2.468-0.941-3.41,0.001l-4.808,4.808   c-0.942,0.942-0.942,2.468-0.001,3.41l10.842,10.841c0.942,0.942,2.468,0.942,3.409,0l4.809-4.809   C264.338,243.746,264.339,242.22,263.397,241.278z"/>
	<path style="fill:#64798A;" d="M282.98,260.861l-10.841-10.841c-0.942-0.942-2.468-0.942-3.41-0.001l-4.809,4.809   c-0.942,0.942-0.942,2.468,0.001,3.41l10.841,10.841c0.942,0.942,2.469,0.942,3.41,0l4.808-4.808   C283.922,263.33,283.922,261.803,282.98,260.861z"/>
	<path style="fill:#64798A;" d="M302.565,280.445l-10.841-10.841c-0.942-0.942-2.468-0.941-3.41,0.001l-4.808,4.808   c-0.942,0.942-0.942,2.468,0,3.41l10.841,10.841c0.942,0.941,2.468,0.941,3.41-0.001l4.808-4.808   C303.506,282.914,303.506,281.387,302.565,280.445z"/>
	<path style="fill:#64798A;" d="M250.164,254.511l-10.841-10.841c-0.942-0.942-2.468-0.942-3.41,0l-4.808,4.809   c-0.942,0.942-0.942,2.468-0.001,3.409l10.841,10.841c0.942,0.942,2.468,0.942,3.41,0l4.808-4.809   C251.105,256.978,251.106,255.452,250.164,254.511z"/>
	<path style="fill:#64798A;" d="M269.748,274.094l-10.841-10.841c-0.942-0.942-2.469-0.942-3.41,0l-4.808,4.809   c-0.942,0.942-0.942,2.468,0.001,3.41l10.841,10.84c0.941,0.942,2.468,0.942,3.41,0l4.809-4.808   C270.69,276.563,270.69,275.036,269.748,274.094z"/>
	<path style="fill:#64798A;" d="M289.332,293.679l-10.841-10.841c-0.942-0.942-2.468-0.942-3.409,0l-4.809,4.808   c-0.942,0.942-0.942,2.468,0,3.41l10.841,10.841c0.941,0.941,2.468,0.942,3.41,0l4.808-4.809   C290.273,296.146,290.273,294.62,289.332,293.679z"/>
	<path style="fill:#64798A;" d="M236.931,267.743l-10.841-10.841c-0.941-0.941-2.468-0.942-3.409,0l-4.809,4.809   c-0.942,0.942-0.941,2.468,0,3.409l10.841,10.841c0.942,0.942,2.468,0.942,3.41,0l4.808-4.808   C237.873,270.212,237.873,268.685,236.931,267.743z"/>
	<path style="fill:#64798A;" d="M256.515,287.327l-10.841-10.841c-0.942-0.942-2.469-0.942-3.41,0l-4.808,4.808   c-0.942,0.942-0.942,2.468,0,3.41l10.841,10.841c0.942,0.942,2.469,0.942,3.41,0.001l4.809-4.809   C257.457,289.796,257.457,288.269,256.515,287.327z"/>
	<path style="fill:#64798A;" d="M276.099,306.911l-10.841-10.841c-0.942-0.942-2.468-0.942-3.409,0l-4.809,4.809   c-0.942,0.942-0.942,2.467,0,3.409l10.841,10.841c0.941,0.942,2.468,0.942,3.409,0l4.809-4.809   C277.041,309.379,277.041,307.852,276.099,306.911z"/>
	<path style="fill:#64798A;" d="M178.458,326.216l-10.841-10.841c-0.941-0.941-2.468-0.941-3.409,0l-4.809,4.809   c-0.942,0.942-0.942,2.468,0,3.409l10.841,10.842c0.941,0.942,2.468,0.941,3.409,0l4.809-4.808   C179.4,328.685,179.4,327.158,178.458,326.216z"/>
	<path style="fill:#64798A;" d="M198.042,345.8l-10.84-10.841c-0.942-0.942-2.469-0.942-3.41,0l-4.809,4.808   c-0.942,0.942-0.941,2.468,0.001,3.41l10.841,10.841c0.942,0.942,2.469,0.942,3.411,0.001l4.808-4.809   C198.984,348.269,198.984,346.742,198.042,345.8z"/>
	<path style="fill:#64798A;" d="M217.626,365.384l-10.841-10.841c-0.942-0.942-2.468-0.942-3.41,0l-4.808,4.809   c-0.942,0.942-0.942,2.468,0,3.409l10.841,10.841c0.941,0.942,2.468,0.942,3.409,0l4.809-4.808   C218.568,367.853,218.567,366.325,217.626,365.384z"/>
	<path style="fill:#64798A;" d="M247.324,321.026c0.202-1.061-0.665-2.034-1.745-2.034l-7.841,0c-0.803,0-1.463,0.553-1.677,1.327   c-0.778,2.805-2.265,5.453-4.466,7.655c-2.202,2.202-4.851,3.69-7.657,4.467c-0.773,0.215-1.327,0.876-1.327,1.677v7.842   c0,1.08,0.973,1.947,2.034,1.745c5.433-1.036,10.626-3.641,14.832-7.847C243.683,331.652,246.288,326.459,247.324,321.026z"/>
	<path style="fill:#64798A;" d="M222.61,297.128c-0.001,0.802,0.553,1.462,1.327,1.677c2.806,0.778,5.454,2.266,7.655,4.467   c2.201,2.202,3.688,4.849,4.467,7.654c0.215,0.774,0.875,1.327,1.677,1.327l7.842-0.001c1.08,0,1.948-0.973,1.745-2.034   c-1.035-5.433-3.64-10.625-7.847-14.832c-4.207-4.207-9.399-6.812-14.832-7.847c-1.062-0.202-2.034,0.665-2.034,1.745V297.128z"/>
	<path style="fill:#64798A;" d="M215.871,334.118c0.001-0.803-0.553-1.463-1.327-1.677c-2.805-0.778-5.453-2.266-7.654-4.467   c-2.201-2.202-3.689-4.85-4.467-7.655c-0.214-0.774-0.874-1.327-1.677-1.327h-7.843c-1.08,0-1.947,0.973-1.745,2.034   c1.035,5.433,3.64,10.625,7.847,14.832c4.207,4.207,9.399,6.812,14.832,7.847c1.062,0.203,2.034-0.665,2.034-1.745V334.118z"/>
	<path style="fill:#64798A;" d="M202.423,310.927c0.778-2.806,2.265-5.455,4.467-7.657c2.201-2.201,4.849-3.688,7.654-4.465   c0.774-0.215,1.328-0.874,1.327-1.678v-7.842c0-1.081-0.973-1.948-2.034-1.745c-5.434,1.036-10.626,3.641-14.832,7.848   c-4.207,4.207-6.812,9.398-7.847,14.832c-0.202,1.061,0.665,2.035,1.745,2.035h7.843   C201.548,312.254,202.208,311.7,202.423,310.927z"/>
</g>
<circle style="fill:#2F4859;" cx="219.238" cy="315.648" r="9.293"/>
<g>
</g>
<g>
</g>
<g>
</g>
<g>
</g>
<g>
</g>
<g>
</g>
<g>
</g>
<g>
</g>
<g>
</g>
<g>
</g>
<g>
</g>
<g>
</g>
<g>
</g>
<g>
</g>
<g>
</g>
</svg>
