<?xml version="1.0" encoding="iso-8859-1"?>
<!-- Generator: Adobe Illustrator 19.0.0, SVG Export Plug-In . SVG Version: 6.00 Build 0)  -->
<svg xmlns="http://www.w3.org/2000/svg" xmlns:xlink="http://www.w3.org/1999/xlink" version="1.1" id="Layer_1" x="0px" y="0px" viewBox="0 0 491.52 491.52" style="enable-background:new 0 0 491.52 491.52;" xml:space="preserve">
<circle style="fill:#EFC84A;" cx="245.76" cy="245.76" r="245.76"/>
<path style="opacity:0.1;enable-background:new    ;" d="M341.402,115.21v27.34c-25.805-23.859-59.955-37.58-95.642-37.58  c-77.619,0-140.8,63.18-140.8,140.8l66.15,66.15h-41.472v64.41l115.166,115.166c0.32,0.001,0.635,0.024,0.955,0.024  c135.73,0,245.76-110.03,245.76-245.76c0-0.314-0.023-0.622-0.024-0.935L361.882,115.21H341.402z"/>
<path style="fill:#EBF0F3;" d="M323.481,214.864c-1.557-17.529-16.262-31.277-34.195-31.277c-5.698,0-11.06,1.409-15.79,3.865  c-6.338-9.548-17.177-15.849-29.496-15.849c-14.552,0-27.04,8.788-32.478,21.341c-5.015-2.768-10.775-4.353-16.909-4.353  c-19.36,0-35.055,15.695-35.055,35.056c0,0.966,0.068,1.915,0.144,2.861c-10.651,6.1-17.844,17.554-17.844,30.708  c0,18.126,13.634,33.046,31.202,35.121c8.06,10.89,20.96,17.982,35.549,17.982c11.937,0,22.749-4.749,30.708-12.433  c7.959,7.684,18.771,12.433,30.708,12.433c17.982,0,33.428-10.746,40.349-26.151c1.281,0.14,2.579,0.225,3.898,0.225  c19.546,0,35.39-15.845,35.39-35.39C349.662,232.647,338.553,218.923,323.481,214.864z"/>
<g>
	<path style="fill:#FFFFFF;" d="M155.903,240.62l4.166-2.387l-0.218-2.662c-2.199,1.772-4.078,3.86-5.631,6.168   C154.778,241.362,155.313,240.957,155.903,240.62z"/>
	<path style="fill:#FFFFFF;" d="M187.055,203.704c4.634,0,9.217,1.179,13.257,3.411l7.28,4.02l3.306-7.632   c0.266-0.615,0.616-1.173,0.922-1.762l-3.952-2.182c-4.04-2.232-8.623-3.411-13.257-3.411c-9.51,0-17.904,4.854-22.844,12.212   C176.142,205.423,181.401,203.704,187.055,203.704z"/>
	<path style="fill:#FFFFFF;" d="M298.174,283.616l-2.251,5.012c-1.106,2.463-2.537,4.7-4.108,6.812   c4.071-3.026,7.512-6.882,10.072-11.42L298.174,283.616z"/>
	<path style="fill:#FFFFFF;" d="M321.514,222.16l-5.091-1.373l-0.469-5.256c-1.236-13.902-12.7-24.389-26.669-24.389   c-4.313,0-8.453,1.015-12.305,3.015l-6.025,3.127l-3.752-5.655c-5.184-7.809-13.859-12.471-23.205-12.471   c-9.328,0-17.853,4.695-22.973,12.235c4.476-2.983,9.806-4.678,15.417-4.678c9.346,0,18.02,4.662,23.204,12.471l3.752,5.655   l6.025-3.127c3.852-2,7.992-3.014,12.305-3.014c13.969,0,25.433,10.486,26.67,24.389l0.468,5.256l5.092,1.373   c12.124,3.265,20.592,14.301,20.592,26.841c0,5.747-1.751,11.092-4.747,15.531c7.416-5.005,12.303-13.486,12.303-23.088   C342.107,236.462,333.639,225.425,321.514,222.16z"/>
</g>
<path style="fill:#44C4A1;" d="M366.08,245.76c0,66.345-53.975,120.32-120.32,120.32c-31.563,0-61.163-12.134-83.463-33.695h31.742  v-20.48h-64.415v64.415h20.48v-27.258c25.85,24.03,59.665,37.498,95.655,37.498c77.635,0,140.8-63.165,140.8-140.8H366.08z"/>
<path style="fill:#E56353;" d="M245.76,125.44c31.285,0,61.228,12.316,83.476,33.695H297.48v20.48h64.415V115.2h-20.48v27.349  c-25.813-23.858-59.97-37.589-95.655-37.589c-77.635,0-140.8,63.165-140.8,140.8h20.48C125.44,179.415,179.415,125.44,245.76,125.44  z"/>
<g>
</g>
<g>
</g>
<g>
</g>
<g>
</g>
<g>
</g>
<g>
</g>
<g>
</g>
<g>
</g>
<g>
</g>
<g>
</g>
<g>
</g>
<g>
</g>
<g>
</g>
<g>
</g>
<g>
</g>
</svg>
