<?xml version="1.0" encoding="iso-8859-1"?>
<!-- Generator: Adobe Illustrator 19.0.0, SVG Export Plug-In . SVG Version: 6.00 Build 0)  -->
<svg xmlns="http://www.w3.org/2000/svg" xmlns:xlink="http://www.w3.org/1999/xlink" version="1.1" id="Layer_1" x="0px" y="0px" viewBox="0 0 491.52 491.52" style="enable-background:new 0 0 491.52 491.52;" xml:space="preserve">
<circle style="fill:#EA8953;" cx="245.76" cy="245.76" r="245.76"/>
<path style="opacity:0.1;enable-background:new    ;" d="M282.675,104.97c-21.862,0-41.421,9.933-54.323,25.549  c-6.963-3.123-14.643-4.915-22.784-4.915c-28.826,0-52.48,22.016-55.091,50.125c-1.28-0.102-2.56-0.205-3.891-0.205  c-22.989,0-41.626,18.637-41.626,41.626c0,12.595,5.632,23.91,14.49,31.539l62.31,62.31l-14.541,3.379l7.68,4.813l-17.818,28.621  c-1.485,2.458-1.126,5.581,0.87,7.578l20.224,20.224L290.03,487.466c102.872-18.724,183.41-101.425,198.804-205.42L335.36,128.573  C322.406,114.083,303.616,104.97,282.675,104.97z"/>
<path style="fill:#EBF0F3;" d="M353.239,176.374c0.003-0.279,0.021-0.553,0.021-0.833c0-38.981-31.601-70.581-70.581-70.581  c-21.865,0-41.405,9.945-54.352,25.556c-6.945-3.137-14.629-4.924-22.744-4.924c-28.818,0-52.475,22.018-55.115,50.146  c-1.281-0.119-2.572-0.197-3.884-0.197c-22.989,0-41.625,18.636-41.625,41.625c0,22.989,18.636,41.625,41.625,41.625h198.35  c22.989,0,41.625-18.636,41.625-41.625C386.56,197.021,372.249,180.222,353.239,176.374z"/>
<g>
	<path style="fill:#FFFFFF;" d="M195.342,146.072c6.395,0,12.63,1.35,18.53,4.015l7.115,3.213l4.98-6.008   c1.361-1.641,2.811-3.186,4.318-4.658l-6.173-2.787c-5.9-2.665-12.135-4.015-18.53-4.015c-15.08,0-28.428,7.308-36.626,18.715   C176.384,149.21,185.49,146.072,195.342,146.072z"/>
	<path style="fill:#FFFFFF;" d="M136.347,196.02c0.985,0,1.96,0.062,2.925,0.153l10.195,0.955l0.955-10.192   c0.029-0.307,0.093-0.601,0.127-0.905l-1.037-0.097c-0.965-0.09-1.94-0.153-2.925-0.153c-11.273,0-21.148,5.994-26.682,14.943   C124.694,197.76,130.315,196.02,136.347,196.02z"/>
	<path style="fill:#FFFFFF;" d="M351.207,186.412l-8.36-1.692l0.175-9.18c0-33.272-27.07-60.34-60.345-60.34   c-18.015,0-34.95,7.965-46.47,21.853l-1.18,1.423c10.564-8.369,23.663-13.036,37.41-13.036c33.275,0,60.345,27.068,60.345,60.34   l-0.175,9.18l8.36,1.692c14.549,2.945,25.115,15.878,25.115,30.753c0,6.032-1.74,11.653-4.702,16.442   c8.947-5.535,14.942-15.41,14.942-26.682C376.322,202.29,365.757,189.357,351.207,186.412z"/>
</g>
<g>
	<path style="fill:#3A556A;" d="M182.142,353.265h53.883v24.149h-53.521c-1.63,0-3.199-0.664-4.346-1.811l-20.195-20.195   c-2.022-2.022-2.385-5.161-0.876-7.577l17.81-28.647l-7.697-4.83l29.069-6.702l6.732,29.099l-7.637-4.769L182.142,353.265z"/>
	<path style="fill:#3A556A;" d="M211.664,305.811l-20.496-12.829l34.171-54.969c1.117-1.781,3.079-2.868,5.192-2.868h30.458   c2.113,0,4.076,1.086,5.192,2.868l13.493,21.734l7.697-4.739l-6.882,29.04l-29.039-6.853l7.697-4.739l-13.372-21.553   L211.664,305.811z"/>
	<path style="fill:#3A556A;" d="M333.557,355.407l-20.194,20.195c-1.148,1.147-2.717,1.811-4.347,1.811h-42.141v9.146l-21.1-21.101   l21.1-21.1v8.905h42.503l-33.96-54.638l20.527-12.708l38.488,61.913C335.942,350.246,335.58,353.385,333.557,355.407z"/>
</g>
<g>
</g>
<g>
</g>
<g>
</g>
<g>
</g>
<g>
</g>
<g>
</g>
<g>
</g>
<g>
</g>
<g>
</g>
<g>
</g>
<g>
</g>
<g>
</g>
<g>
</g>
<g>
</g>
<g>
</g>
</svg>
