<?xml version="1.0" encoding="iso-8859-1"?>
<!-- Generator: Adobe Illustrator 19.0.0, SVG Export Plug-In . SVG Version: 6.00 Build 0)  -->
<svg xmlns="http://www.w3.org/2000/svg" xmlns:xlink="http://www.w3.org/1999/xlink" version="1.1" id="Layer_1" x="0px" y="0px" viewBox="0 0 491.52 491.52" style="enable-background:new 0 0 491.52 491.52;" xml:space="preserve">
<circle style="fill:#334D5C;" cx="245.76" cy="245.76" r="245.76"/>
<path style="opacity:0.1;enable-background:new    ;" d="M333.773,126.883c-0.768-0.87-1.587-1.638-2.406-2.406l-0.205-0.205  c-12.646-11.981-29.696-19.302-48.486-19.302c-21.862,0-41.421,9.933-54.323,25.549c-6.963-3.123-14.643-4.915-22.784-4.915  c-28.826,0-52.48,22.016-55.091,50.125c-1.28-0.102-2.56-0.205-3.891-0.205c-22.989,0-41.626,18.637-41.626,41.626  c0,11.059,4.352,21.146,11.418,28.621l51.507,51.507c-0.461,3.482-0.717,7.066-0.717,10.701c0,21.209,8.483,40.442,22.121,54.598  l-0.003,0.032l3.584,3.584l116.865,116.865c93.359-25.11,164.74-103.798,179.108-201.093L334.95,128.112L333.773,126.883z"/>
<path style="fill:#EBF0F3;" d="M353.239,176.374c0.003-0.279,0.021-0.553,0.021-0.833c0-38.981-31.601-70.581-70.581-70.581  c-21.865,0-41.405,9.945-54.352,25.556c-6.945-3.137-14.629-4.924-22.744-4.924c-28.818,0-52.475,22.018-55.115,50.146  c-1.281-0.119-2.572-0.197-3.884-0.197c-22.989,0-41.625,18.636-41.625,41.625c0,22.989,18.636,41.625,41.625,41.625h198.35  c22.989,0,41.625-18.636,41.625-41.625C386.56,197.021,372.249,180.222,353.239,176.374z"/>
<g>
	<path style="fill:#FFFFFF;" d="M195.342,146.072c6.395,0,12.63,1.35,18.53,4.015l7.115,3.213l4.98-6.008   c1.361-1.641,2.811-3.186,4.318-4.658l-6.173-2.787c-5.9-2.665-12.135-4.015-18.53-4.015c-15.08,0-28.428,7.308-36.626,18.715   C176.384,149.21,185.49,146.072,195.342,146.072z"/>
	<path style="fill:#FFFFFF;" d="M136.347,196.02c0.985,0,1.96,0.062,2.925,0.153l10.195,0.955l0.955-10.192   c0.029-0.307,0.093-0.601,0.127-0.905l-1.037-0.097c-0.965-0.09-1.94-0.153-2.925-0.153c-11.273,0-21.148,5.994-26.682,14.943   C124.695,197.76,130.315,196.02,136.347,196.02z"/>
	<path style="fill:#FFFFFF;" d="M351.207,186.412l-8.36-1.692l0.175-9.18c0-33.272-27.07-60.34-60.345-60.34   c-18.015,0-34.95,7.965-46.47,21.853l-1.18,1.423c10.564-8.369,23.663-13.036,37.41-13.036c33.275,0,60.345,27.068,60.345,60.34   l-0.175,9.18l8.36,1.692c14.55,2.945,25.115,15.878,25.115,30.753c0,6.032-1.74,11.653-4.702,16.442   c8.947-5.535,14.942-15.41,14.942-26.682C376.322,202.29,365.757,189.357,351.207,186.412z"/>
</g>
<path style="fill:#E56353;" d="M167.165,307.965c0,43.407,35.188,78.595,78.595,78.595V229.371  C202.354,229.371,167.165,264.559,167.165,307.965z"/>
<path style="fill:#D15241;" d="M245.76,229.371V386.56c43.406,0,78.594-35.188,78.594-78.595  C324.355,264.559,289.167,229.371,245.76,229.371z"/>
<g>
	<path style="fill:#CE412D;" d="M272.977,253.175v17.486c13.444,8.873,22.345,24.096,22.345,41.376   c0,27.33-22.235,49.562-49.56,49.562c-27.33,0-49.565-22.233-49.565-49.562c0-17.279,8.901-32.501,22.345-41.375v-17.486   c-22.223,10.32-37.705,32.791-37.705,58.861c0,35.797,29.125,64.922,64.925,64.922c35.795,0,64.92-29.125,64.92-64.922   C310.682,285.966,295.2,263.495,272.977,253.175z"/>
	<rect x="238.029" y="238.971" style="fill:#CE412D;" width="15.462" height="66.427"/>
</g>
<path id="SVGCleanerId_0" style="fill:#FFFFFF;" d="M272.977,249.104v17.487c13.444,8.873,22.345,24.096,22.345,41.375  c0,27.33-22.235,49.563-49.56,49.563c-27.33,0-49.565-22.233-49.565-49.563c0-17.279,8.901-32.501,22.345-41.374v-17.487  c-22.223,10.32-37.705,32.791-37.705,58.861c0,35.797,29.125,64.923,64.925,64.923c35.795,0,64.92-29.125,64.92-64.923  C310.682,281.895,295.2,259.423,272.977,249.104z"/>
<rect id="SVGCleanerId_1" x="238.029" y="234.9" style="fill:#FFFFFF;" width="15.462" height="66.427"/>
<g>
	<path id="SVGCleanerId_0_1_" style="fill:#FFFFFF;" d="M272.977,249.104v17.487c13.444,8.873,22.345,24.096,22.345,41.375   c0,27.33-22.235,49.563-49.56,49.563c-27.33,0-49.565-22.233-49.565-49.563c0-17.279,8.901-32.501,22.345-41.374v-17.487   c-22.223,10.32-37.705,32.791-37.705,58.861c0,35.797,29.125,64.923,64.925,64.923c35.795,0,64.92-29.125,64.92-64.923   C310.682,281.895,295.2,259.423,272.977,249.104z"/>
</g>
<g>
	<rect id="SVGCleanerId_1_1_" x="238.029" y="234.9" style="fill:#FFFFFF;" width="15.462" height="66.427"/>
</g>
<g>
</g>
<g>
</g>
<g>
</g>
<g>
</g>
<g>
</g>
<g>
</g>
<g>
</g>
<g>
</g>
<g>
</g>
<g>
</g>
<g>
</g>
<g>
</g>
<g>
</g>
<g>
</g>
<g>
</g>
</svg>
