<?xml version="1.0" encoding="iso-8859-1"?>
<!-- Generator: Adobe Illustrator 19.0.0, SVG Export Plug-In . SVG Version: 6.00 Build 0)  -->
<svg xmlns="http://www.w3.org/2000/svg" xmlns:xlink="http://www.w3.org/1999/xlink" version="1.1" id="Layer_1" x="0px" y="0px" viewBox="0 0 491.52 491.52" style="enable-background:new 0 0 491.52 491.52;" xml:space="preserve">
<circle style="fill:#EA8953;" cx="245.76" cy="245.76" r="245.76"/>
<path style="opacity:0.1;enable-background:new    ;" d="M317.03,122.821l-0.154-0.153c-10.035-7.987-22.784-12.8-36.659-12.8  c-11.059,0-21.35,3.123-30.208,8.397c-8.499-8.244-20.07-13.313-32.819-13.313c-21.658,0-39.885,14.644-45.466,34.509  c-24.525,0.923-44.134,20.993-44.134,45.723c0,5.477,1.024,10.7,2.816,15.564c-15.053,7.476-25.446,22.886-25.446,40.806  c0,10.649,3.635,20.429,9.779,28.16c2.253,2.918,4.915,5.58,7.834,7.834l66.099,66.099c2.918,10.189,8.55,19.302,16.026,26.419  l0.051,0.051l111.155,111.189c86.876-25.835,153.603-98.377,171.073-188.537L326.451,132.242  C323.686,128.761,320.512,125.585,317.03,122.821z"/>
<path style="fill:#EBF0F3;" d="M386.56,212.18c0-26.102-21.159-47.262-47.262-47.262c-0.069,0-0.135,0.01-0.204,0.01  c-2.08-30.738-27.607-55.045-58.873-55.045c-11.051,0-21.355,3.09-30.201,8.37c-8.503-8.216-20.058-13.294-32.815-13.294  c-21.683,0-39.909,14.619-45.475,34.525c-24.511,0.881-44.125,20.975-44.125,45.701c0,5.48,1.013,10.711,2.778,15.581  c-15.048,7.433-25.424,22.889-25.424,40.809c0,25.15,20.388,45.539,45.538,45.539c13.785,0,26.111-6.15,34.462-15.826  c11.19,18.623,31.584,31.088,54.893,31.088c17.266,0,32.923-6.85,44.436-17.965c9.435,10.982,23.395,17.965,39.01,17.965  c28.413,0,51.446-23.033,51.446-51.446c0-2.374-0.217-4.692-0.528-6.98C381.86,235.553,386.56,224.429,386.56,212.18z"/>
<g>
	<path style="fill:#FFFFFF;" d="M376.322,212.18c0-20.313-16.445-36.855-36.72-37.022l-10.075,0.01l-0.645-9.547   c-1.73-25.513-23.105-45.498-48.66-45.498c-8.735,0-17.365,2.395-24.95,6.923l-6.73,4.015l-5.635-5.443   c-6.955-6.717-16.08-10.418-25.7-10.418c-12.612,0-24.094,6.512-30.819,16.668c5.964-4.026,13.047-6.428,20.579-6.428   c9.62,0,18.745,3.7,25.7,10.418l5.635,5.443l6.73-4.015c7.585-4.528,16.215-6.923,24.95-6.923c25.555,0,46.93,19.985,48.66,45.498   l0.645,9.547l10.075-0.01c20.275,0.167,36.72,16.71,36.72,37.022c0,9.187-3.435,18.022-9.675,24.878l-3.22,3.532l0.645,4.735   c0.295,2.178,0.43,3.958,0.43,5.605c0,8.749-2.762,16.855-7.43,23.534c10.665-7.455,17.67-19.804,17.67-33.774   c0-1.648-0.135-3.428-0.43-5.605l-0.645-4.735l3.22-3.532C372.887,230.202,376.322,221.367,376.322,212.18z"/>
	<path style="fill:#FFFFFF;" d="M124.677,220.188l8.21-4.055l-1.494-4.13c-4.258,2.739-7.806,6.274-10.483,10.382   C122.119,221.594,123.357,220.839,124.677,220.188z"/>
	<path style="fill:#FFFFFF;" d="M161.857,159.957l7.48-0.267l2.015-7.208c0.27-0.963,0.69-1.848,1.033-2.775l-0.288,0.01   c-12.036,0.433-22.435,6.716-28.524,16.071C148.837,162.33,155.077,160.201,161.857,159.957z"/>
	<path style="fill:#FFFFFF;" d="M176.217,264.13l-5.342,6.186c2.135-1.518,4.115-3.273,5.897-5.263L176.217,264.13z"/>
</g>
<path style="fill:#3A556A;" d="M305.427,274.021H186.092c-2.187,0-3.959,1.773-3.959,3.96v16.171c0,2.187,1.772,3.96,3.959,3.96  h119.336c2.187,0,3.96-1.773,3.96-3.96v-16.171C309.387,275.794,307.615,274.021,305.427,274.021z"/>
<path style="fill:#64798A;" d="M186.341,298.111v29.03c0,32.816,26.603,59.418,59.418,59.418c32.817,0,59.419-26.603,59.419-59.418  v-29.03H186.341z"/>
<circle style="fill:#3A556A;" cx="245.76" cy="342.333" r="11.955"/>
<g>
	<path style="fill:#64798A;" d="M208.974,207.36c-4.281,0-7.751,3.471-7.751,7.752v58.909h15.502v-58.909   C216.725,210.831,213.255,207.36,208.974,207.36z"/>
	<path style="fill:#64798A;" d="M282.546,207.36c-4.281,0-7.751,3.471-7.751,7.752v58.909h15.502v-58.909   C290.297,210.831,286.827,207.36,282.546,207.36z"/>
</g>
<g>
</g>
<g>
</g>
<g>
</g>
<g>
</g>
<g>
</g>
<g>
</g>
<g>
</g>
<g>
</g>
<g>
</g>
<g>
</g>
<g>
</g>
<g>
</g>
<g>
</g>
<g>
</g>
<g>
</g>
</svg>
