<?xml version="1.0" encoding="iso-8859-1"?>
<!-- Generator: Adobe Illustrator 19.0.0, SVG Export Plug-In . SVG Version: 6.00 Build 0)  -->
<svg xmlns="http://www.w3.org/2000/svg" xmlns:xlink="http://www.w3.org/1999/xlink" version="1.1" id="Layer_1" x="0px" y="0px" viewBox="0 0 491.52 491.52" style="enable-background:new 0 0 491.52 491.52;" xml:space="preserve">
<circle style="fill:#45B39C;" cx="245.76" cy="245.76" r="245.76"/>
<path style="opacity:0.1;enable-background:new    ;" d="M329.37,122.668c-12.442-11.059-28.774-17.716-46.694-17.716  c-21.862,0-41.421,9.933-54.323,25.549c-6.963-3.123-14.643-4.915-22.784-4.915c-28.826,0-52.48,22.017-55.091,50.177  c-1.28-0.154-2.56-0.205-3.891-0.205c-22.989,0-41.626,18.637-41.626,41.627c0,12.236,5.274,23.193,13.619,30.822l0.307,0.255  l65.894,65.895l-16.384,16.333l-7.936,32.972l-4.147,17.357c-0.41,1.587,0.102,3.123,1.075,4.198l0.512,0.512l105.307,105.307  c115.437-8.106,208.877-95.871,225.616-208.714L335.872,129.17C333.875,126.814,331.674,124.664,329.37,122.668z"/>
<path style="fill:#EBF0F3;" d="M353.239,176.374c0.003-0.279,0.021-0.553,0.021-0.833c0-38.981-31.601-70.581-70.581-70.581  c-21.865,0-41.405,9.945-54.352,25.556c-6.945-3.137-14.629-4.924-22.744-4.924c-28.818,0-52.475,22.018-55.115,50.146  c-1.281-0.119-2.572-0.196-3.884-0.196c-22.989,0-41.625,18.636-41.625,41.625s18.636,41.625,41.625,41.625h198.35  c22.989,0,41.625-18.636,41.625-41.625C386.56,197.021,372.249,180.222,353.239,176.374z"/>
<g>
	<path style="fill:#FFFFFF;" d="M195.342,146.073c6.395,0,12.63,1.35,18.53,4.015l7.115,3.212l4.98-6.007   c1.361-1.642,2.811-3.186,4.318-4.659l-6.173-2.786c-5.9-2.665-12.135-4.015-18.53-4.015c-15.08,0-28.428,7.308-36.626,18.715   C176.384,149.211,185.49,146.073,195.342,146.073z"/>
	<path style="fill:#FFFFFF;" d="M136.347,196.02c0.985,0,1.96,0.062,2.925,0.153l10.195,0.955l0.955-10.193   c0.029-0.306,0.093-0.601,0.127-0.905l-1.037-0.097c-0.965-0.09-1.94-0.153-2.925-0.153c-11.273,0-21.148,5.994-26.682,14.943   C124.694,197.76,130.315,196.02,136.347,196.02z"/>
	<path style="fill:#FFFFFF;" d="M351.207,186.413l-8.36-1.693l0.175-9.18c0-33.272-27.07-60.34-60.345-60.34   c-18.015,0-34.95,7.965-46.47,21.853l-1.18,1.423c10.564-8.369,23.663-13.036,37.41-13.036c33.275,0,60.345,27.067,60.345,60.34   l-0.175,9.18l8.36,1.693c14.55,2.945,25.115,15.878,25.115,30.752c0,6.032-1.74,11.653-4.702,16.442   c8.947-5.535,14.942-15.41,14.942-26.682C376.322,202.29,365.757,189.358,351.207,186.413z"/>
</g>
<rect x="211.965" y="225.279" transform="matrix(-0.7071 -0.7071 0.7071 -0.7071 173.5985 654.3121)" style="fill:#E56353;" width="20.685" height="131.85"/>
<rect x="226.561" y="239.892" transform="matrix(-0.7071 -0.7071 0.7071 -0.7071 188.1652 689.5775)" style="fill:#D15241;" width="20.685" height="131.85"/>
<rect x="241.202" y="254.514" transform="matrix(-0.7071 -0.7071 0.7071 -0.7071 202.8371 724.8933)" style="fill:#CE412D;" width="20.685" height="131.85"/>
<rect x="256.975" y="248.41" transform="matrix(-0.7071 -0.7071 0.7071 -0.7071 311.4912 638.4708)" style="fill:#FCD462;" width="62.003" height="12.626"/>
<path style="fill:#44C4A1;" d="M291.03,207.86l-20.493,20.489l14.611,14.612l24.505-24.504  C301.114,210.906,293.214,205.677,291.03,207.86z"/>
<path style="fill:#31978C;" d="M334.86,251.69c2.184-2.184-3.047-10.086-10.596-18.623l-24.505,24.505l14.61,14.61L334.86,251.69z"/>
<path style="fill:#3EA69B;" d="M309.653,218.457l-24.505,24.504l14.61,14.61l24.505-24.505  C319.848,228.073,314.646,222.873,309.653,218.457z"/>
<path style="fill:#FCD462;" d="M173.91,368.81c3.703,3.703,5.463,8.592,5.348,13.446l32.951-7.916l-43.831-43.832l-7.915,32.951  C165.318,363.347,170.205,365.106,173.91,368.81z"/>
<path style="fill:#64798A;" d="M161.897,386.428l17.36-4.172c0.115-4.853-1.645-9.743-5.348-13.446  c-3.705-3.705-8.592-5.464-13.447-5.351l-4.17,17.363C155.482,384.198,158.522,387.238,161.897,386.428z"/>
<g>
</g>
<g>
</g>
<g>
</g>
<g>
</g>
<g>
</g>
<g>
</g>
<g>
</g>
<g>
</g>
<g>
</g>
<g>
</g>
<g>
</g>
<g>
</g>
<g>
</g>
<g>
</g>
<g>
</g>
</svg>
