<?xml version="1.0" encoding="iso-8859-1"?>
<!-- Generator: Adobe Illustrator 19.0.0, SVG Export Plug-In . SVG Version: 6.00 Build 0)  -->
<svg xmlns="http://www.w3.org/2000/svg" xmlns:xlink="http://www.w3.org/1999/xlink" version="1.1" id="Layer_1" x="0px" y="0px" viewBox="0 0 491.52 491.52" style="enable-background:new 0 0 491.52 491.52;" xml:space="preserve">
<circle style="fill:#EA8953;" cx="245.76" cy="245.76" r="245.76"/>
<path style="opacity:0.1;enable-background:new    ;" d="M488.265,285.557L339.2,136.492l-0.256-0.308  c-8.499-9.216-20.685-15.001-34.202-15.001c-7.731,0-15.002,1.945-21.402,5.273c-8.602-12.953-23.296-21.505-39.987-21.505  c-19.712,0-36.608,11.93-43.981,28.929c-6.81-3.738-14.592-5.889-22.938-5.889c-26.214,0-47.514,21.249-47.514,47.514  c0,1.28,0.102,2.56,0.205,3.84c-14.438,8.295-24.166,23.809-24.166,41.627c0,11.417,3.942,21.862,10.65,30.053l0.205,0.257  c2.099,2.662,4.506,5.018,7.168,7.117l33.178,33.178v84.94c0,2.765,1.126,5.223,2.97,7.067l0.358,0.357l106.639,106.673  C379.045,481.34,470.309,395.791,488.265,285.557z"/>
<path style="fill:#EBF0F3;" d="M351.082,163.586c-2.11-23.754-22.036-42.385-46.339-42.385c-7.721,0-14.987,1.91-21.398,5.238  c-8.589-12.939-23.277-21.479-39.971-21.479c-19.719,0-36.642,11.91-44.012,28.92c-6.796-3.751-14.602-5.898-22.914-5.898  c-26.236,0-47.504,21.268-47.504,47.505c0,1.309,0.092,2.595,0.196,3.877c-14.433,8.266-24.18,23.788-24.18,41.613  c0,24.563,18.475,44.781,42.282,47.593c10.922,14.757,28.403,24.367,48.173,24.367c16.176,0,30.827-6.435,41.613-16.848  c10.785,10.413,25.437,16.848,41.613,16.848c24.369,0,45.299-14.562,54.678-35.438c1.736,0.19,3.495,0.306,5.282,0.306  c26.487,0,47.959-21.472,47.959-47.959C386.56,187.684,371.507,169.086,351.082,163.586z"/>
<g>
	<path style="fill:#FFFFFF;" d="M123.992,198.489l5.645-3.235l-0.295-3.607c-2.98,2.4-5.525,5.231-7.631,8.358   C122.467,199.495,123.192,198.946,123.992,198.489z"/>
	<path style="fill:#FFFFFF;" d="M166.207,148.464c6.28,0,12.49,1.597,17.965,4.622l9.865,5.448l4.48-10.343   c0.361-0.834,0.835-1.59,1.25-2.387l-5.355-2.957c-5.475-3.025-11.685-4.622-17.965-4.622c-12.887,0-24.262,6.578-30.957,16.548   C151.418,150.792,158.545,148.464,166.207,148.464z"/>
	<path style="fill:#FFFFFF;" d="M316.787,256.754l-3.05,6.792c-1.499,3.338-3.438,6.369-5.566,9.231   c5.518-4.101,10.179-9.326,13.649-15.475L316.787,256.754z"/>
	<path style="fill:#FFFFFF;" d="M348.417,173.473l-6.9-1.86l-0.635-7.122c-1.675-18.84-17.21-33.05-36.14-33.05   c-5.845,0-11.455,1.375-16.675,4.085l-8.165,4.237l-5.085-7.662c-7.025-10.583-18.78-16.9-31.445-16.9   c-12.641,0-24.194,6.361-31.132,16.579c6.066-4.043,13.288-6.339,20.892-6.339c12.665,0,24.42,6.318,31.445,16.9l5.085,7.662   l8.165-4.237c5.22-2.71,10.83-4.085,16.675-4.085c18.93,0,34.465,14.21,36.14,33.05l0.635,7.122l6.9,1.86   c16.43,4.425,27.905,19.38,27.905,36.372c0,7.788-2.373,15.031-6.432,21.047c10.05-6.782,16.672-18.275,16.672-31.287   C376.322,192.853,364.847,177.898,348.417,173.473z"/>
</g>
<path style="fill:#FCD462;" d="M325.31,207.36H166.211c-5.551,0-10.051,4.5-10.051,10.051v159.098c0,5.551,4.5,10.051,10.051,10.051  H325.31c5.55,0,10.05-4.5,10.05-10.051V217.411C335.36,211.86,330.86,207.36,325.31,207.36z"/>
<polygon style="fill:#DC8744;" points="271.521,207.36 219.999,207.36 219.999,251.201 226.684,247.298 232.507,252.226   241.02,247.298 247.74,252.226 256.7,247.298 262.077,252.226 271.521,248.071 "/>
<g>
</g>
<g>
</g>
<g>
</g>
<g>
</g>
<g>
</g>
<g>
</g>
<g>
</g>
<g>
</g>
<g>
</g>
<g>
</g>
<g>
</g>
<g>
</g>
<g>
</g>
<g>
</g>
<g>
</g>
</svg>
