<svg clip-rule="evenodd" fill-rule="evenodd" height="512" image-rendering="optimizeQuality" shape-rendering="geometricPrecision" text-rendering="geometricPrecision" viewBox="0 0 2667 2667" width="512" xmlns="http://www.w3.org/2000/svg"><g id="Layer_x0020_1"><circle cx="1333" cy="1333" fill="#f44c71" r="1333"/><path d="m739 1676v-54h-40c-54 0-97-44-97-98s43-97 97-97h1268c54 0 98 43 98 97s-44 98-98 98h-39v60c-28 1-55 9-79 23-24-13-51-20-78-20-9 0-17 0-25 1v-64h-322v90c-30-33-73-51-118-51-22 0-44 4-64 12v-51h-321v99c-5 3-10 7-14 11-15-3-31-4-46-3-30-33-74-53-119-53zm27-547v271h297v-240c-33-2-59-30-59-64 0-35 29-64 64-64h531c35 0 64 29 64 64 0 34-27 62-60 64v240h297v-271l-567-328zm658 192c7 0 13-6 13-14v-54c0-8-6-14-13-14-8 0-14 6-14 14v54c0 8 6 14 14 14zm-181 0c7 0 13-6 13-14v-54c0-8-6-14-13-14s-13 6-13 14v54c0 8 6 14 13 14zm-153 79h230v-240h-230zm257 0h230v-240h-230zm-279-342h531c20 0 37 17 37 38s-17 37-37 37h-531c-21 0-38-16-38-37s17-38 38-38zm939 89c-14 0-28-4-40-11l-634-366-634 366c-12 7-25 11-39 11-29 0-55-15-68-40-19-39-7-84 30-105l672-388c12-7 25-11 39-11h1c14 0 27 4 39 11l672 388c36 21 49 66 29 105-12 25-38 40-67 40zm44 916h-1435c-75 0-136-60-136-135s60-135 134-136c20-53 70-89 128-89 42 0 83 20 108 54 22-4 44-2 64 5 26-28 62-44 100-44 30 0 58 9 81 26 33-17 73-21 108-9 25-30 63-48 103-48 44 0 85 22 110 57 29-14 63-18 94-11 25-36 66-58 111-58 39 0 76 17 101 45 15-6 32-9 49-9 28 0 56 9 79 26 23-18 52-28 82-28 55 0 105 33 125 83 72 4 130 63 130 136 0 75-61 135-136 135z" fill="#fff"/></g></svg>