<svg clip-rule="evenodd" fill-rule="evenodd" height="512" image-rendering="optimizeQuality" shape-rendering="geometricPrecision" text-rendering="geometricPrecision" viewBox="0 0 2667 2667" width="512" xmlns="http://www.w3.org/2000/svg"><g id="Layer_x0020_1"><circle cx="1333" cy="1333" fill="#7ed63f" r="1333"/><path d="m1923 2154h-1313c-68 0-123-56-123-124v-83c-13-12-7-40 16-40h141 1 1377 1 140c31 0 31 47 0 47h-117v76c0 68-55 124-123 124zm-786-273c-121-138-23-356 161-356h18c-75 81-18 213 92 213h402c17 0 17-26 0-26h-402c-55 0-100-45-100-100 0-37 21-69 50-87h481c184 0 281 218 161 356zm94-382c-24-44-36-95-33-146 0-8 4-14 10-18 124-83 292-46 370 80-15 28-24 52-30 84zm344 0c38-181 248-267 403-164 6 4 10 10 10 18 4 51-8 102-33 146zm-252-233c5-21 27-90 54-92 74-5 145 22 198 71-20 23-36 48-48 76-59-44-132-63-204-55zm225 72c42-104 149-172 261-164 27 2 49 71 54 92-106-12-210 36-270 124-13-19-28-36-45-52zm-37-167c15-15 68-64 92-52 28 13 52 31 73 53-30 13-58 31-83 54-24-23-52-41-82-55zm-437-277c-70-12-124-72-124-145 0-70 83-161 128-226 9-13 29-13 38 0 45 65 128 156 128 226 0 73-53 133-123 145v55l207-51c59-15 119 31 119 95v159c-23-5-47-6-72-5-15 1-29 9-38 22-21 31-35 65-43 101-35 8-70 22-100 43-13 8-22 22-23 38-3 58 11 115 39 164-146 58-199 238-107 366h-356v-763c0-46 31-84 77-96l250-61z" fill="#fff"/></g></svg>