<svg clip-rule="evenodd" fill-rule="evenodd" height="512" image-rendering="optimizeQuality" shape-rendering="geometricPrecision" text-rendering="geometricPrecision" viewBox="0 0 2667 2667" width="512" xmlns="http://www.w3.org/2000/svg"><g id="Layer_x0020_1"><circle cx="1333" cy="1333" fill="#00ab94" r="1333" stroke="#fff" stroke-width="3"/><path d="m1645 1744h-1060c-58 0-105-47-105-105v-611c0-58 47-105 105-105h1060zm437 0h-387c-13 0-23-11-23-24v-774c0-13 10-23 23-23h387c57 0 105 47 105 105v611c0 58-48 105-105 105zm-45-152c7 0 13-6 13-14 0-7-6-13-13-13h-215c-8 0-14 6-14 13 0 8 6 14 14 14zm0-164c7 0 13-6 13-13s-6-13-13-13h-215c-8 0-14 6-14 13s6 13 14 13zm0-163c7 0 13-6 13-13 0-8-6-14-13-14h-215c-8 0-14 6-14 14 0 7 6 13 14 13zm0-163c7 0 13-6 13-14 0-7-6-13-13-13h-215c-8 0-14 6-14 13 0 8 6 14 14 14zm-1432 510c7 0 13-6 13-13v-531c0-8-6-14-13-14-8 0-14 6-14 14v531c0 7 6 13 14 13zm916 0c7 0 13-6 13-13v-531c0-8-6-14-13-14-8 0-14 6-14 14v531c0 7 6 13 14 13zm-568-513 32-2 2 2c6 3 11 13 14 19l69 118-86 4zm-72 318h8l98-5-29 150c-2 8 1 16 6 22 7 7 17 12 26 12h2l35-2c28-1 38-22 48-44 2-3 3-6 5-9l69-137 247-12c3 0 6-2 9-4 2-3 3-6 3-10-4-87-79-155-166-151l-142 7-73-125-2-4c-10-17-20-35-42-34l-30 1c-8 1-16 5-21 12-5 5-7 13-5 20l30 137-98 5-34-73c-9-22-23-43-50-42l-30 1c-16 1-29 15-28 31l5 103c5 85 74 151 159 151zm136-16 12-62c1-7-4-14-11-15-7-2-14 3-16 10l-10 51-104 6c-73 3-135-53-139-126l-5-106 32-2c13 0 21 17 25 27l37 82c2 4 8 8 13 7l122-6h1l269-13c63-3 120 39 135 100l3 12-218 11 21-42c3-7 1-15-6-18-6-3-14-1-18 6l-104 206c-1 3-3 7-5 10-5 11-11 28-25 28l-42 2z" fill="#fff"/></g></svg>