<svg clip-rule="evenodd" fill-rule="evenodd" height="512" image-rendering="optimizeQuality" shape-rendering="geometricPrecision" text-rendering="geometricPrecision" viewBox="0 0 2667 2667" width="512" xmlns="http://www.w3.org/2000/svg"><g id="Layer_x0020_1"><circle cx="1333" cy="1333" fill="#1d81ce" r="1333"/><path d="m1717 1802h-212v-77c0-37-30-67-67-67h-209c-37 0-67 30-67 67v77h-213c-72 0-131-59-131-132v-462h-79c-77 0-141-57-152-131h-42c-36 0-65-29-65-65v-193c0-36 29-65 65-65h120c35 0 64 29 64 65v193c0 36-29 65-64 65h-31c11 48 54 84 105 84h79v-393c0-72 59-131 133-131h765c73 0 133 59 133 131v393h78c51 0 95-36 105-84h-30c-36 0-65-29-65-65v-193c0-36 29-65 65-65h120c36 0 65 29 65 65v193c0 36-29 65-65 65h-42c-12 74-76 131-153 131h-78v462c0 73-59 132-132 132zm297 227h-1361c-13 0-24-10-24-23s11-23 24-23h1361c13 0 23 10 23 23s-10 23-23 23zm-1070-73c-7-15-11-33-11-51v-77h249v77c0 18-4 36-11 51zm551 0c-7-15-11-33-11-51v-77h249v77c0 18-4 36-11 51zm-252-651c3 0 6-1 9-4l216-216c5-5 5-13 0-19-5-5-14-5-19 0l-216 216c-5 6-5 14 0 19 3 3 6 4 10 4zm-35-167c4 0 7-1 10-4l83-83c5-5 5-14 0-19s-14-5-19 0l-83 83c-6 6-6 14 0 19 2 3 6 4 9 4zm392 488c51 0 92-42 92-93s-41-92-92-92-93 41-93 92 42 93 93 93zm0-159c36 0 66 30 66 66s-30 66-66 66c-37 0-66-30-66-66s29-66 66-66zm-533 159c51 0 92-42 92-93s-41-92-92-92-93 41-93 92 42 93 93 93zm0-159c36 0 66 30 66 66s-30 66-66 66-66-30-66-66 30-66 66-66zm601-603c17 0 30-13 30-30v-70c0-17-13-30-30-30h-670c-16 0-30 13-30 30v70c0 17 14 30 30 30zm-673-27v-76h677v76zm617 571c48 0 86-38 86-86v-311c0-47-38-86-86-86h-557c-48 0-87 39-87 86v311c0 48 39 86 87 86zm-557-456h557c33 0 60 26 60 59v311c0 33-27 60-60 60h-557c-33 0-60-27-60-60v-311c0-33 27-59 60-59zm423 850h-290v-77c0-22 18-40 41-40h209c22 0 40 18 40 40z" fill="#fff"/></g></svg>