<svg clip-rule="evenodd" fill-rule="evenodd" height="512" image-rendering="optimizeQuality" shape-rendering="geometricPrecision" text-rendering="geometricPrecision" viewBox="0 0 2667 2667" width="512" xmlns="http://www.w3.org/2000/svg"><g id="Layer_x0020_1"><circle cx="1333" cy="1333" fill="#1d81ce" r="1333"/><path d="m1317 1501h31c4 0 8 0 11 1v-215c0-52 42-94 94-94h246c52 0 94 42 94 94v601h-125v-146c0-25-20-46-46-46h-92c-25 0-46 21-46 46v146h-78-47v-330c0-6-5-10-11-10h-31v340h-47-43v-97c0-22-18-40-40-40h-42c-22 0-40 18-40 40v97h-43-47v-340h-32c-5 0-10 4-10 10v330h-47-78v-163c0-25-21-46-46-46h-93c-25 0-45 21-45 46v163h-126v-601c0-52 43-94 95-94h246c51 0 94 42 94 94v215c3-1 7-1 10-1h32v-79c0-33 27-60 60-60h182c33 0 60 27 60 60zm469-508h-585c-13 0-23-11-23-24s10-23 23-23h585c13 0 23 10 23 23s-10 24-23 24zm-67-130h-398c-13 0-24-11-24-24s11-23 24-23h398c13 0 23 10 23 23s-10 24-23 24zm163-134h-797c-13 0-24-10-24-23s11-23 24-23h797c13 0 23 10 23 23s-10 23-23 23zm-938 234c-100 0-182-82-182-183 0-80 54-152 132-175 8-2 18 1 24 8s7 17 3 25c-10 19-15 40-15 62 0 75 61 136 136 136 12 0 25-2 37-6 9-2 19 1 25 8s7 17 3 26c-32 61-94 99-163 99zm1169 1099h-1559c-41 0-74-33-74-74 0-40 33-74 74-74h1559c40 0 74 34 74 74 0 41-34 74-74 74zm-293-760 298 198c6 4 10 12 10 19v369h-308zm108 208c7 0 13-6 13-13s-6-13-13-13h-55c-8 0-13 6-13 13s5 13 13 13zm147 86c8 0 14-6 14-14 0-7-6-13-14-13h-54c-8 0-14 6-14 13 0 8 6 14 14 14zm-147 0c7 0 13-6 13-14 0-7-6-13-13-13h-55c-8 0-13 6-13 13 0 8 5 14 13 14zm147 85c8 0 14-6 14-13s-6-13-14-13h-54c-8 0-14 6-14 13s6 13 14 13zm-147 0c7 0 13-6 13-13s-6-13-13-13h-55c-8 0-13 6-13 13s5 13 13 13zm147 86c8 0 14-6 14-14 0-7-6-13-14-13h-54c-8 0-14 6-14 13 0 8 6 14 14 14zm-147 0c7 0 13-6 13-14 0-7-6-13-13-13h-55c-8 0-13 6-13 13 0 8 5 14 13 14zm147 85c8 0 14-6 14-13s-6-13-14-13h-54c-8 0-14 6-14 13s6 13 14 13zm-147 0c7 0 13-6 13-13s-6-13-13-13h-55c-8 0-13 6-13 13s5 13 13 13zm-286 36h-131v-146c0-11 9-19 19-19h92c11 0 20 8 20 19zm44-287c7 0 13-6 13-13s-6-13-13-13h-55c-7 0-13 6-13 13s6 13 13 13zm-164 0c7 0 13-6 13-13s-6-13-13-13h-55c-8 0-14 6-14 13s6 13 14 13zm164-133c7 0 13-6 13-13 0-8-6-14-13-14h-55c-7 0-13 6-13 14 0 7 6 13 13 13zm-164 0c7 0 13-6 13-13 0-8-6-14-13-14h-55c-8 0-14 6-14 14 0 7 6 13 14 13zm164-133c7 0 13-6 13-14 0-7-6-13-13-13h-55c-7 0-13 6-13 13 0 8 6 14 13 14zm-164 0c7 0 13-6 13-14 0-7-6-13-13-13h-55c-8 0-14 6-14 13 0 8 6 14 14 14zm-701 553h-131v-163c0-10 9-19 19-19h93c10 0 19 9 19 19zm44-303c7 0 13-6 13-14 0-7-6-13-13-13h-55c-7 0-13 6-13 13 0 8 6 14 13 14zm-164 0c7 0 13-6 13-14 0-7-6-13-13-13h-55c-7 0-13 6-13 13 0 8 6 14 13 14zm164-134c7 0 13-6 13-13s-6-13-13-13h-55c-7 0-13 6-13 13s6 13 13 13zm-164 0c7 0 13-6 13-13s-6-13-13-13h-55c-7 0-13 6-13 13s6 13 13 13zm164-133c7 0 13-6 13-13 0-8-6-14-13-14h-55c-7 0-13 6-13 14 0 7 6 13 13 13zm-164 0c7 0 13-6 13-13 0-8-6-14-13-14h-55c-7 0-13 6-13 14 0 7 6 13 13 13zm499 570h-69v-97c0-7 6-13 14-13h42c7 0 13 6 13 13zm29-224c8 0 14-6 14-13 0-8-6-14-14-14h-27c-8 0-14 6-14 14 0 7 6 13 14 13zm-99 0c7 0 13-6 13-13 0-8-6-14-13-14h-27c-8 0-14 6-14 14 0 7 6 13 14 13zm99-91c8 0 14-6 14-13s-6-13-14-13h-27c-8 0-14 6-14 13s6 13 14 13zm-99 0c7 0 13-6 13-13s-6-13-13-13h-27c-8 0-14 6-14 13s6 13 14 13zm99-90c8 0 14-6 14-14 0-7-6-13-14-13h-27c-8 0-14 6-14 13 0 8 6 14 14 14zm-99 0c7 0 13-6 13-14 0-7-6-13-13-13h-27c-8 0-14 6-14 13 0 8 6 14 14 14zm300-317v-47c0-28 22-50 50-50h193c27 0 50 22 50 50v47zm-821 0v-47c0-28 23-50 50-50h193c27 0 50 22 50 50v47zm444 170v-68c0-10 6-19 15-22l180-67c7-3 15-2 21 2 7 5 10 12 10 20v135z" fill="#fff"/></g></svg>