<svg clip-rule="evenodd" fill-rule="evenodd" height="512" image-rendering="optimizeQuality" shape-rendering="geometricPrecision" text-rendering="geometricPrecision" viewBox="0 0 2667 2667" width="512" xmlns="http://www.w3.org/2000/svg"><g id="Layer_x0020_1"><circle cx="1333" cy="1333" fill="#7ed63f" r="1333"/><path d="m541 1320c-37-30-61-76-61-128v-544c0-91 74-164 164-164h1378c91 0 165 73 165 164v544c0 52-24 98-61 128zm408 503c55 0 99-44 99-99s-44-100-99-100-100 45-100 100 45 99 100 99zm1057 221c17 0 17-27 0-27h-609c-17 0-17 27 0 27zm0-177c17 0 17-27 0-27h-609c-17 0-17 27 0 27zm0-177c17 0 17-27 0-27h-609c-17 0-17 27 0 27zm0-177c17 0 17-27 0-27h-609c-17 0-17 27 0 27zm-817 531c33 0 61-28 61-62v-435c0-34-28-61-61-61h-480c-34 0-61 27-61 61v435c0 34 27 62 61 62zm-480-531h480c19 0 34 15 34 34v435c0 20-15 35-34 35h-55v-30c0-74-50-137-117-157 103-66 60-233-68-233s-172 167-68 233c-68 20-117 83-117 157v30h-55c-19 0-35-15-35-35v-435c0-19 16-34 35-34zm398 504h-72c0-21 6-54-13-54-20 0-14 33-14 54h-119c0-21 6-54-13-54s-13 33-13 54h-72v-30c0-76 61-137 137-137h42c76 0 137 62 137 137zm903-875c17 0 17-27 0-27h-631c-17 0-17 27 0 27zm0-151c17 0 17-27 0-27h-631c-17 0-17 27 0 27zm0-151c17 0 17-27 0-27h-631c-17 0-17 27 0 27zm0-152c17 0 17-26 0-26h-631c-17 0-17 26 0 26zm-1053 527c177-2 312-143 313-313s-139-313-313-313c-175 0-314 143-313 313s137 313 313 313zm63-592c71 16 132 58 172 116h-119c-10-42-24-82-53-116zm26 116h-179c46-164 134-164 179 0zm-206 0h-119c40-58 101-100 172-116-29 34-42 74-53 116zm369 27c20 37 32 78 34 123h-150c-1-41-5-82-13-123zm-143 123h-219c1-40 5-83 14-123h191c9 40 13 83 14 123zm-245 0h-150c2-45 14-86 34-123h129c-9 41-13 82-13 123zm422 26c-2 44-14 86-34 123h-129c8-42 12-82 13-123zm-191 123h-191c-9-41-13-83-14-123h219c-1 40-5 82-14 123zm-218 0h-129c-20-37-32-79-34-123h150c0 41 4 81 13 123zm358 26c-40 58-101 101-172 117 29-34 43-75 53-117zm-299 117c-71-16-132-59-172-117h119c11 42 24 83 53 117zm-26-117h179c-45 165-134 165-179 0zm1259 283c37 30 61 76 61 127v545c0 90-74 164-165 164h-1378c-90 0-164-74-164-164v-545c0-51 24-97 61-127z" fill="#fff"/></g></svg>