<svg clip-rule="evenodd" fill-rule="evenodd" height="512" image-rendering="optimizeQuality" shape-rendering="geometricPrecision" text-rendering="geometricPrecision" viewBox="0 0 2667 2667" width="512" xmlns="http://www.w3.org/2000/svg"><g id="Layer_x0020_1"><circle cx="1333" cy="1333" fill="#7ed63f" r="1333"/><path d="m1259 2027h-543c6-11 6-24 6-37 0-120-103-214-223-203-7 0-13 2-19 5v-198c12 6 25 7 38 7 120 0 214-103 203-223 0-7-2-13-5-19h543c-6 12-7 25-7 37 0 121 104 215 224 204 6-1 13-3 18-6v198c-11-6-25-6-38-6-119 0-214 103-203 223 1 6 3 13 6 18zm230-646c113-80 9-114 171-241 0-166-18-347 81-447 60-60 157-60 217 0 45 45 51 91 40 144 56-12 101-3 144 40 60 60 60 157 0 217-76 76-195 82-310 82l-140-1c-56 43-89 85-91 117-5 64-69 120-107 143v115c0 22-21 24-38 24-104 0-186-89-176-194 1-12 11-21 23-21h117c9 0 18 2 26 5 46-107-45-86 22-251-73-125-165-253-133-373 33-124 214-142 260-8 31-26 64-40 106-34-74 96-70 243-68 361l-121 69c-22 56-28 100-17 124 17 35 15 79-6 129zm-422-205h-160c-27 0-51-19-57-45h274c-6 26-29 45-57 45zm94 99v-138c0-18-14-32-32-32h-283c-18 0-33 14-33 32v138h5c33 0 61 25 65 57h-186c4-32 31-57 65-57h4v-138c0-43 36-79 80-79h283c43 0 79 36 79 79v138h5c33 0 61 25 65 57h-186c4-32 31-57 65-57zm259 752h-117c-23 0-24-22-24-37 0-104 90-186 194-177 12 1 21 12 21 24v116c0 41-33 74-74 74zm-748 0h-117c-41 0-75-33-75-74v-116c0-24 23-24 38-24 104 0 186 89 177 193-1 12-11 21-23 21zm-154-453c-15 0-38-1-38-24v-116c0-41 34-75 75-75h117c23 0 24 22 24 37 0 98-80 178-178 178zm469 318c10 0 37-32 51-45 65-63 157-145 157-242 0-103-136-154-200-64l-8 11c-26-36-46-57-97-57-74 0-126 67-106 150 22 89 127 176 194 243 2 2 6 4 9 4zm-97-370c77 0 73 73 97 73 25 0 20-73 97-73 51 0 89 42 84 97-9 87-116 177-181 240-67-66-181-160-181-253 0-47 38-84 84-84z" fill="#fff"/></g></svg>