<svg clip-rule="evenodd" fill-rule="evenodd" height="512" image-rendering="optimizeQuality" shape-rendering="geometricPrecision" text-rendering="geometricPrecision" viewBox="0 0 2667 2667" width="512" xmlns="http://www.w3.org/2000/svg"><g id="Layer_x0020_1"><circle cx="1333" cy="1333" fill="#378b4e" r="1333"/><path d="m1333 2187c-470 0-853-383-853-854 0-470 383-853 853-853 471 0 854 383 854 853 0 471-383 854-854 854zm0-196c167 0 325-63 447-176 6-5 6-13 1-19-5-5-13-5-19 0-117 108-269 168-429 168-159 0-312-60-428-168-6-5-14-5-19 0-5 6-5 14 0 19 122 113 281 176 447 176zm-438-1117c4 0 7-1 9-3 117-109 270-168 429-168 160 0 312 59 429 168 6 5 14 5 19-1 5-5 5-14-1-19-122-113-280-175-447-175-166 0-325 62-447 175-5 5-5 14 0 19 2 3 6 4 9 4zm823 611c84 0 152-68 152-152 0-83-68-152-152-152-66 0-190 103-239 142-3 3-4 6-4 10s1 8 4 11c49 39 174 141 239 141zm0-277c69 0 125 56 125 125s-56 126-125 126c-51 0-162-88-199-118l-10-8 10-7c37-30 148-118 199-118zm-770 277c66 0 191-102 239-141 3-3 5-7 5-11s-2-7-5-10c-48-39-173-142-239-142-83 0-151 69-151 152 0 84 68 152 151 152zm0-277c52 0 163 88 200 118l10 7-10 8c-37 30-148 118-200 118-69 0-125-57-125-126s56-125 125-125zm392 210c95 81 249 214 378 214 165 0 299-134 299-299 0-164-134-298-299-298-129 0-283 133-378 214l-7 5-6-5c-96-81-250-214-379-214-164 0-298 134-298 298 0 165 134 299 298 299 129 0 283-133 379-214l6-6zm-7-37c-3 0-6 2-8 4l-3 2c-92 78-250 218-374 218-150 0-272-122-272-272s122-272 272-272c124 0 282 141 374 219l3 2c5 4 12 4 17 0l3-2c92-79 250-219 373-219 150 0 272 122 272 272s-122 272-272 272c-123 0-281-140-373-218l-3-2c-2-2-5-4-9-4z" fill="#fff"/></g></svg>