<svg clip-rule="evenodd" fill-rule="evenodd" height="512" image-rendering="optimizeQuality" shape-rendering="geometricPrecision" text-rendering="geometricPrecision" viewBox="0 0 2667 2667" width="512" xmlns="http://www.w3.org/2000/svg"><g id="Layer_x0020_1"><circle cx="1333" cy="1333" fill="#7ed63f" r="1333"/><path d="m563 1743c-8-25-12-51-12-78 0-11 8-21 20-23l725-108v-890c0-13 11-23 24-23 13 0 23 10 23 23v883l746-110c7-1 14 0 19 5 5 4 8 11 8 18v225c0 31-6 61-16 89-29-12-56-22-88-22-34 0-63 12-94 25-16 6-39 17-57 17-17 0-40-11-56-17-31-13-61-25-94-25-34 0-64 12-95 25-16 6-39 17-56 17s-41-11-57-17c-30-13-60-25-94-25s-64 12-95 25c-15 6-39 17-56 17s-41-11-56-17c-31-13-61-25-95-25s-64 12-95 25c-15 6-39 17-56 17s-41-11-56-17c-31-13-61-25-95-25s-64 12-94 25c-16 6-40 17-57 17s-40-11-56-17c-12-5-23-10-35-14zm1600 368c-30 0-57-12-84-23-24-9-46-19-67-19-20 0-43 10-66 19-27 11-55 23-85 23-29 0-57-12-84-23-24-9-46-19-66-19-21 0-43 10-67 19-27 11-55 23-84 23-30 0-58-12-85-23-23-9-46-19-66-19-21 0-43 10-67 19-27 11-54 23-84 23s-58-12-84-23c-24-9-46-19-67-19s-43 10-67 19c-26 11-54 23-84 23s-57-12-84-23c-24-9-46-19-67-19-20 0-43 10-66 19-27 11-55 23-85 23-29 0-57-12-84-23-24-9-46-19-67-19-12 0-23-10-23-23s11-23 23-23c30 0 58 11 85 22 23 10 46 19 66 19 21 0 43-9 67-19 27-11 54-22 84-22s58 11 85 22c23 10 46 19 66 19 21 0 43-9 67-19 26-11 54-22 84-22s58 11 84 22c24 10 46 19 67 19 20 0 43-9 66-19 27-11 55-22 85-22s57 11 84 22c24 10 46 19 67 19 20 0 43-9 66-19 27-11 55-22 85-22 29 0 57 11 84 22 24 10 46 19 66 19 21 0 43-9 67-19 27-11 55-22 84-22 30 0 58 11 85 22 23 10 46 19 66 19 13 0 24 11 24 24 0 12-11 23-24 23zm0-264c-30 0-57-11-84-22-24-10-46-19-67-19-20 0-43 9-66 19-27 11-55 22-85 22-29 0-57-11-84-22-24-10-46-19-66-19-21 0-43 9-67 19-27 11-55 22-84 22-30 0-58-11-85-22-23-10-46-19-66-19-21 0-43 9-67 19-27 11-54 22-84 22s-58-11-84-22c-24-10-46-19-67-19s-43 9-67 19c-26 11-54 22-84 22s-57-11-84-22c-24-10-46-19-67-19-20 0-43 9-66 19-27 11-55 22-85 22-29 0-57-11-84-22-24-10-46-19-67-19-13 0-23-11-23-24s10-23 23-23c30 0 58 11 85 22 23 10 46 19 66 19 21 0 43-9 67-19 27-11 54-22 84-22s58 11 85 22c23 10 46 19 66 19 21 0 43-9 67-19 26-11 54-22 84-22s58 11 84 22c24 10 46 19 67 19 20 0 43-9 66-19 27-11 55-22 85-22s57 11 84 22c24 10 46 19 67 19 20 0 43-9 66-19 27-11 55-22 85-22 29 0 57 11 84 22 24 10 46 19 66 19 21 0 43-9 67-19 27-11 55-22 84-22 30 0 58 11 85 22 23 10 46 19 66 19 13 0 24 11 24 24s-11 23-24 23zm-893-591-286-59c-7-2-14-6-17-13s-2-15 1-21l302-542zm100-635 397 714c4 6 4 14 1 21s-9 12-17 13l-381 79z" fill="#fff"/></g></svg>