<svg clip-rule="evenodd" fill-rule="evenodd" height="512" image-rendering="optimizeQuality" shape-rendering="geometricPrecision" text-rendering="geometricPrecision" viewBox="0 0 2667 2667" width="512" xmlns="http://www.w3.org/2000/svg"><g id="Layer_x0020_1"><circle cx="1333" cy="1333" fill="#00ab94" r="1333"/><path d="m1474 2131h-971c-12 0-23-10-23-23v-1268c0-13 11-24 23-24h971c13 0 23 11 23 24v1268c0 13-10 23-23 23zm689-281h-639v-1010c0-28-23-50-50-50h-32l-257-253c3-1 5-2 8-2h970c13 0 24 11 24 24v1268c0 13-11 23-24 23zm-759-1060h-234v-231zm395 779c7 0 13-6 13-13 0-8-6-14-13-14h-158c-7 0-13 6-13 14 0 7 6 13 13 13zm0-166c7 0 13-6 13-13 0-8-6-14-13-14h-158c-7 0-13 6-13 14 0 7 6 13 13 13zm0-394c7 0 13-6 13-13s-6-13-13-13h-158c-7 0-13 6-13 13s6 13 13 13zm0-166c7 0 13-6 13-13s-6-13-13-13h-158c-7 0-13 6-13 13s6 13 13 13zm215 792c38 0 68-31 68-69v-187c0-38-30-69-68-69h-90c-38 0-68 31-68 69v187c0 38 30 69 68 69zm-90-298h90c23 0 42 19 42 42v187c0 24-19 42-42 42h-90c-23 0-42-18-42-42v-187c0-23 19-42 42-42zm90-262c38 0 68-30 68-68v-188c0-37-30-68-68-68h-90c-38 0-68 31-68 68v188c0 38 30 68 68 68zm-90-298h90c23 0 42 19 42 42v188c0 23-19 42-42 42h-90c-23 0-42-19-42-42v-188c0-23 19-42 42-42zm-616 1188c7 0 13-6 13-14 0-7-6-13-13-13h-639c-7 0-13 6-13 13 0 8 6 14 13 14zm0-173c7 0 13-6 13-13 0-8-6-13-13-13h-639c-7 0-13 5-13 13 0 7 6 13 13 13zm0-172c7 0 13-6 13-14 0-7-6-13-13-13h-639c-7 0-13 6-13 13 0 8 6 14 13 14zm-53-461c7 0 13-6 13-13 0-8-6-14-13-14h-88c-7 0-13 6-13 14 0 7 6 13 13 13zm-457 7c8 0 14-6 14-14 0-7-6-13-14-13h-87c-7 0-13 6-13 13 0 8 6 14 13 14zm79-92c7 0 13-6 13-13 0-8-6-14-13-14h-141c-8 0-14 6-14 14 0 7 6 13 14 13zm138 165c51 0 92-41 92-92s-41-92-92-92c-50 0-92 41-92 92s42 92 92 92zm0-158c36 0 66 30 66 66s-30 65-66 65-65-29-65-65 29-66 65-66zm274 383c37-2 66-32 66-69v-344c0-37-31-68-68-68h-597c-37 0-68 31-68 68v344c0 38 31 69 68 69h1 363 232 1zm-599-454h597c23 0 42 18 42 41v344c0 22-16 39-36 42l-152-219c-5-7-18-7-22 0l-105 151-130-187c-5-7-18-7-22 0l-177 255c-21-3-36-20-36-42v-344c0-23 18-41 41-41zm570 427h-199l-31-44 100-144zm-232 0h-311l156-224z" fill="#fff"/></g></svg>