<svg clip-rule="evenodd" fill-rule="evenodd" height="512" image-rendering="optimizeQuality" shape-rendering="geometricPrecision" text-rendering="geometricPrecision" viewBox="0 0 2667 2667" width="512" xmlns="http://www.w3.org/2000/svg"><g id="Layer_x0020_1"><circle cx="1333" cy="1333" fill="#ff700d" r="1333"/><path d="m2163 996h-1660c-12 0-23-10-23-23v-215c0-76 61-137 136-137h106v175h-49c-7 0-13 6-13 13s6 13 13 13h1321c7 0 13-6 13-13s-6-13-13-13h-49v-175h105c75 0 137 61 137 137v215c0 13-11 23-24 23zm-454-200v-197c0-58 47-105 105-105 57 0 104 47 104 105v197zm-480 0v-197c0-58 47-105 104-105 58 0 105 47 105 105v197zm-481 0v-197c0-58 47-105 105-105s105 47 105 105v197zm1302 1376h-1434c-75 0-136-61-136-136v-1013h1707v1013c0 75-62 136-137 136zm-125-167c25 0 45-20 45-45v-103c0-25-20-45-45-45h-103c-24 0-45 20-45 45v103c0 25 21 45 45 45zm-103-166h103c10 0 18 8 18 18v103c0 10-8 18-18 18h-103c-10 0-18-8-18-18v-103c0-10 8-18 18-18zm-257 166c25 0 45-20 45-45v-103c0-25-20-45-45-45h-103c-25 0-45 20-45 45v103c0 25 20 45 45 45zm-103-166h103c10 0 18 8 18 18v103c0 10-8 18-18 18h-103c-10 0-18-8-18-18v-103c0-10 8-18 18-18zm-258 166c25 0 46-20 46-45v-103c0-25-21-45-46-45h-102c-25 0-45 20-45 45v103c0 25 20 45 45 45zm-102-166h102c11 0 19 8 19 18v103c0 10-8 18-19 18h-102c-10 0-18-8-18-18v-103c0-10 8-18 18-18zm-258 166c25 0 45-20 45-45v-103c0-25-20-45-45-45h-102c-25 0-45 20-45 45v103c0 25 20 45 45 45zm-102-166h102c10 0 19 8 19 18v103c0 10-9 18-19 18h-102c-10 0-19-8-19-18v-103c0-10 9-18 19-18zm1183-145c25 0 45-20 45-45v-102c0-25-20-46-45-46h-103c-24 0-45 21-45 46v102c0 25 21 45 45 45zm-103-166h103c10 0 18 8 18 19v102c0 10-8 18-18 18h-103c-10 0-18-8-18-18v-102c0-11 8-19 18-19zm-618 166c25 0 46-20 46-45v-102c0-25-21-46-46-46h-102c-25 0-45 21-45 46v102c0 25 20 45 45 45zm-102-166h102c11 0 19 8 19 19v102c0 10-8 18-19 18h-102c-10 0-18-8-18-18v-102c0-11 8-19 18-19zm-258 166c25 0 45-20 45-45v-102c0-25-20-46-45-46h-102c-25 0-45 21-45 46v102c0 25 20 45 45 45zm-102-166h102c10 0 19 8 19 19v102c0 10-9 18-19 18h-102c-10 0-19-8-19-18v-102c0-11 9-19 19-19zm1183-145c25 0 45-20 45-45v-102c0-25-20-45-45-45h-103c-24 0-45 20-45 45v102c0 25 21 45 45 45zm-103-166h103c10 0 18 9 18 19v102c0 10-8 19-18 19h-103c-10 0-18-9-18-19v-102c0-10 8-19 18-19zm-257 166c25 0 45-20 45-45v-102c0-25-20-45-45-45h-103c-25 0-45 20-45 45v102c0 25 20 45 45 45zm-103-166h103c10 0 18 9 18 19v102c0 10-8 19-18 19h-103c-10 0-18-9-18-19v-102c0-10 8-19 18-19zm-258 166c25 0 46-20 46-45v-102c0-25-21-45-46-45h-102c-25 0-45 20-45 45v102c0 25 20 45 45 45zm-102-166h102c11 0 19 9 19 19v102c0 10-8 19-19 19h-102c-10 0-18-9-18-19v-102c0-10 8-19 18-19zm-258 166c25 0 45-20 45-45v-102c0-25-20-45-45-45h-102c-25 0-45 20-45 45v102c0 25 20 45 45 45zm-102-166h102c10 0 19 9 19 19v102c0 10-9 19-19 19h-102c-10 0-19-9-19-19v-102c0-10 9-19 19-19zm658 480c8 0 15-2 22-6l89-51 32 94c3 10 12 15 22 15 5 0 10-2 14-4 28-18 35-20 33-55l-6-105 125-73c32-18-61-98-138-49l-70 46c-26-16-87-53-102-53-7 0-17 4-26 10l102 59-8 5-25 17-71-78c-11 9-17 21-6 33l54 59-43 28-5-4c-20-14-53-46-78-30-15 10-36 22-22 42 24 38 55 100 107 100zm102-83-93 54c-19 11-50-17-59-32l-33-50 15-10 5 3c7 3 14 8 20 13 10 7 35 33 48 24l68-43c17-10 46-30 56-37l79-51c26-16 60-16 85 2l13 9-101 59-1-13c-1-17-28-16-27 2l2 33v1l7 130-19 13-45-130c-6-17-31-8-25 9zm-518-818v-175h218v175zm481 0v-175h217v175z" fill="#fff"/></g></svg>