<svg clip-rule="evenodd" fill-rule="evenodd" height="512" image-rendering="optimizeQuality" shape-rendering="geometricPrecision" text-rendering="geometricPrecision" viewBox="0 0 2667 2667" width="512" xmlns="http://www.w3.org/2000/svg"><g id="Layer_x0020_1"><circle cx="1333" cy="1333" fill="#378b4e" r="1333"/><path d="m1106 1714c-132-66-217-201-217-350 0-157 93-298 238-359 19-8 39-8 58 0 145 61 238 202 238 359 0 149-84 284-217 350v-320c0-27-22-50-50-50-27 0-50 23-50 50zm591-816h-477c-13 0-23-10-23-23s10-24 23-24h477c13 0 24 11 24 24s-11 23-24 23zm310-138h-477c-13 0-24-11-24-23 0-13 11-24 24-24h477c13 0 23 11 23 24 0 12-10 23-23 23zm-440-175h-477c-13 0-24-11-24-24s11-23 24-23h477c13 0 23 10 23 23s-10 24-23 24zm-694 364c-110 0-207-75-235-181-31-115 28-238 137-286 9-4 20-2 26 5 7 7 9 18 5 26-21 43-25 91-13 136 23 86 101 146 190 146 17 0 34-2 51-7 10-2 19-6 28-9 9-4 19-2 26 5s9 17 4 26c-30 64-87 112-156 130-21 6-42 9-63 9zm1171 1238h-1421c-49 0-88-40-88-88 0-49 39-88 88-88h156v-617c0-13 10-23 23-23s23 10 23 23v617h308v-617c0-13 10-23 23-23s24 10 24 23v617h307v-617c0-13 11-23 23-23 13 0 24 10 24 23v617h307v-617c0-13 11-23 24-23s23 10 23 23v617h156c49 0 88 39 88 88 0 48-39 88-88 88zm-229-473c-133-66-218-201-218-350 0-157 94-298 239-359 19-8 39-8 58 0 145 61 238 202 238 359 0 149-85 284-217 350v-320c0-27-23-50-50-50-28 0-50 23-50 50zm-355 0c-40-21-77-48-109-80 63-74 99-169 99-270s-36-196-99-269c37-39 81-69 130-90 19-8 40-8 59 0 49 21 93 51 130 90-63 73-99 168-99 269s36 196 99 270c-32 32-69 59-110 80v-320c0-27-22-50-50-50-27 0-50 23-50 50zm-708 0c-133-66-217-201-217-350 0-157 93-298 238-359 19-8 39-8 58 0 49 21 93 51 130 90-62 73-99 168-99 269s37 196 99 270c-31 32-68 59-109 80v-320c0-27-22-50-50-50s-50 23-50 50z" fill="#fff"/></g></svg>