<svg clip-rule="evenodd" fill-rule="evenodd" height="512" image-rendering="optimizeQuality" shape-rendering="geometricPrecision" text-rendering="geometricPrecision" viewBox="0 0 2667 2667" width="512" xmlns="http://www.w3.org/2000/svg"><g id="Layer_x0020_1"><circle cx="1333" cy="1333" fill="#f44c71" r="1333"/><path d="m849 1862v-111c76-62 122-156 122-259s-46-197-122-260v-388h969v388c-76 62-122 157-122 260s46 197 122 259v111h-267v-259c0-47-38-85-84-85h-134-133c-47 0-85 38-85 85v259zm1029-102c-96-54-155-156-155-268 0-129 77-242 196-289 6-2 12-2 17 0 120 47 197 160 197 289 0 112-60 214-155 268v-197c0-28-23-50-50-50-28 0-50 22-50 50zm-1189 0c-96-54-155-156-155-268 0-129 77-242 196-289 6-2 12-2 17 0 120 47 197 160 197 289 0 112-59 214-155 268v-197c0-28-22-50-50-50s-50 22-50 50zm1215 128v-325c0-13 11-23 24-23s23 10 23 23v325h151c46 0 85 38 85 85s-39 85-85 85h-1537c-47 0-85-38-85-85s38-85 85-85h151v-325c0-13 10-23 23-23s23 10 23 23v325zm-85-1071h-971c-44 0-79-35-79-78v-52c0-43 35-79 79-79h971c43 0 78 36 78 79v52c0 43-35 78-78 78zm-402 924c7 0 13-6 13-14v-48c0-7-6-13-13-13-8 0-14 6-14 13v48c0 8 6 14 14 14zm-167 0c7 0 13-6 13-14v-48c0-7-6-13-13-13s-13 6-13 13v48c0 8 6 14 13 14zm275 121h-178v-317h120c32 0 58 26 58 58zm-205 0h-178v-259c0-32 26-58 58-58h120zm-199-757c18 0 32-14 32-32v-114c0-18-14-33-32-33h-114c-18 0-33 15-33 33v114c0 18 15 32 33 32zm-120-26v-126h126v126zm389 26c18 0 33-14 33-32v-114c0-18-15-33-33-33h-113c-19 0-33 15-33 33v114c0 18 14 32 33 32zm-120-26v-126h126v126zm390 26c18 0 33-14 33-32v-114c0-18-15-33-33-33h-114c-18 0-33 15-33 33v114c0 18 15 32 33 32zm-120-26v-126h126v126zm-419 320c18 0 32-14 32-32v-114c0-18-14-33-32-33h-114c-18 0-33 15-33 33v114c0 18 15 32 33 32zm-120-26v-126h126v126zm389 26c18 0 33-14 33-32v-114c0-18-15-33-33-33h-113c-19 0-33 15-33 33v114c0 18 14 32 33 32zm-120-26v-126h126v126zm390 26c18 0 33-14 33-32v-114c0-18-15-33-33-33h-114c-18 0-33 15-33 33v114c0 18 15 32 33 32zm-120-26v-126h126v126z" fill="#fff"/></g></svg>