<svg height="512pt" viewBox="0 0 512 512" width="512pt" xmlns="http://www.w3.org/2000/svg"><path d="m384 32h-368c-8.832031 0-16-7.167969-16-16s7.167969-16 16-16h368zm0 0" fill="#dd523c"/><path d="m304 128h-288c-8.832031 0-16-7.167969-16-16s7.167969-16 16-16h288c8.832031 0 16 7.167969 16 16s-7.167969 16-16 16zm0 0" fill="#e76e54"/><path d="m496 224h-480c-8.832031 0-16-7.167969-16-16s7.167969-16 16-16h480c8.832031 0 16 7.167969 16 16s-7.167969 16-16 16zm0 0" fill="#f9873a"/><path d="m496 416h-480c-8.832031 0-16-7.167969-16-16s7.167969-16 16-16h480c8.832031 0 16 7.167969 16 16s-7.167969 16-16 16zm0 0" fill="#fba61f"/><path d="m304 320h-288c-8.832031 0-16-7.167969-16-16s7.167969-16 16-16h288c8.832031 0 16 7.167969 16 16s-7.167969 16-16 16zm0 0" fill="#fe9d58"/><path d="m304 512h-288c-8.832031 0-16-7.167969-16-16s7.167969-16 16-16h288c8.832031 0 16 7.167969 16 16s-7.167969 16-16 16zm0 0" fill="#ffcb5a"/><g fill="#dd523c"><path d="m480 0h32v32h-32zm0 0"/><path d="m416 0h32v32h-32zm0 0"/></g></svg>