<svg height="512pt" viewBox="0 0 512 512" width="512pt" xmlns="http://www.w3.org/2000/svg"><path d="m64 0h384v32h-384zm0 0" fill="#77959e"/><path d="m0 0h32v32h-32zm0 0" fill="#77959e"/><path d="m480 0h32v32h-32zm0 0" fill="#77959e"/><path d="m64 64h176v288h-176zm0 0" fill="#ffcb5a"/><path d="m272 64h176v448h-176zm0 0" fill="#ceed5f"/><g fill="#badb31"><path d="m368 224h-96v32h96c8.832031 0 16-7.167969 16-16s-7.167969-16-16-16zm0 0"/><path d="m368 416h-96v32h96c8.832031 0 16-7.167969 16-16s-7.167969-16-16-16zm0 0"/><path d="m368 352h-96v32h96c8.832031 0 16-7.167969 16-16s-7.167969-16-16-16zm0 0"/><path d="m368 288h-96v32h96c8.832031 0 16-7.167969 16-16s-7.167969-16-16-16zm0 0"/><path d="m368 160h-96v32h96c8.832031 0 16-7.167969 16-16s-7.167969-16-16-16zm0 0"/></g><path d="m160 192h-96v32h96c8.832031 0 16-7.167969 16-16s-7.167969-16-16-16zm0 0" fill="#fba61f"/><path d="m160 256h-96v32h96c8.832031 0 16-7.167969 16-16s-7.167969-16-16-16zm0 0" fill="#fba61f"/><path d="m160 128h-96v32h96c8.832031 0 16-7.167969 16-16s-7.167969-16-16-16zm0 0" fill="#fba61f"/></svg>