<svg height="508pt" viewBox="-78 0 508 508.272" width="508pt" xmlns="http://www.w3.org/2000/svg"><path d="m352.136719 508.273438-176-105.617188-176 105.617188v-476.273438c0-17.679688 14.320312-32 32-32h288c17.679687 0 32 14.320312 32 32zm0 0" fill="#ceed5f"/><g fill="#fff"><path d="m256.136719 160h-160c-8.832031 0-16-7.167969-16-16s7.167969-16 16-16h160c8.832031 0 16 7.167969 16 16s-7.167969 16-16 16zm0 0"/><path d="m256.136719 224h-160c-8.832031 0-16-7.167969-16-16s7.167969-16 16-16h160c8.832031 0 16 7.167969 16 16s-7.167969 16-16 16zm0 0"/><path d="m256.136719 288h-160c-8.832031 0-16-7.167969-16-16s7.167969-16 16-16h160c8.832031 0 16 7.167969 16 16s-7.167969 16-16 16zm0 0"/></g></svg>