<svg height="512pt" viewBox="0 0 512 512" width="512pt" xmlns="http://www.w3.org/2000/svg"><g fill="#77959e"><path d="m144 32h320c8.832031 0 16-7.167969 16-16s-7.167969-16-16-16h-320c-8.832031 0-16 7.167969-16 16s7.167969 16 16 16zm0 0"/><path d="m464 64h-416c-8.832031 0-16 7.167969-16 16s7.167969 16 16 16h416c8.832031 0 16-7.167969 16-16s-7.167969-16-16-16zm0 0"/><path d="m32 208c0 8.832031 7.167969 16 16 16h176v-32h-176c-8.832031 0-16 7.167969-16 16zm0 0"/><path d="m464 128h-416c-8.832031 0-16 7.167969-16 16s7.167969 16 16 16h416c8.832031 0 16-7.167969 16-16s-7.167969-16-16-16zm0 0"/><path d="m256 192h32v32h-32zm0 0"/><path d="m320 192h32v32h-32zm0 0"/></g><path d="m512 279.679688v208.640624c0 13.070313-10.609375 23.679688-23.679688 23.679688h-464.640624c-13.070313 0-23.679688-10.609375-23.679688-23.679688v-208.640624c0-13.070313 10.609375-23.679688 23.679688-23.679688h464.640624c13.070313 0 23.679688 10.609375 23.679688 23.679688zm0 0" fill="#48c8ef"/><path d="m370.078125 512h-346.398437c-13.070313 0-23.679688-10.609375-23.679688-23.679688l176.320312-141.121093zm0 0" fill="#badb31"/><path d="m511.390625 493.503906-191.230469-179.265625-217.441406 197.761719h385.601562c11.296876 0 20.703126-7.921875 23.070313-18.496094zm0 0" fill="#ceed5f"/><path d="m432 288h32v32h-32zm0 0" fill="#fff"/></svg>