<svg height="512pt" viewBox="0 0 512 512" width="512pt" xmlns="http://www.w3.org/2000/svg"><g fill="#77959e"><path d="m0 240h48v32h-48zm0 0"/><path d="m80 240h32v32h-32zm0 0"/><path d="m144 240h32v32h-32zm0 0"/><path d="m208 240h32v32h-32zm0 0"/><path d="m272 240h32v32h-32zm0 0"/><path d="m336 240h32v32h-32zm0 0"/><path d="m400 240h32v32h-32zm0 0"/><path d="m464 240h48v32h-48zm0 0"/></g><path d="m384 192h-256c-17.679688 0-32-14.320312-32-32v-160h320v160c0 17.679688-14.320312 32-32 32zm0 0" fill="#48c8ef"/><path d="m416 512h-320v-160c0-17.679688 14.320312-32 32-32h256c17.679688 0 32 14.320312 32 32zm0 0" fill="#48c8ef"/></svg>