<svg height="512pt" viewBox="0 0 512 512" width="512pt" xmlns="http://www.w3.org/2000/svg"><path d="m480 512h-448c-17.679688 0-32-14.320312-32-32v-448c0-17.679688 14.320312-32 32-32h448c17.679688 0 32 14.320312 32 32v448c0 17.679688-14.320312 32-32 32zm0 0" fill="#48c8ef"/><path d="m96 192h320v32h-320zm0 0" fill="#24b2d3"/><path d="m96 256h32v32h-32zm0 0" fill="#fff"/><path d="m160 256h256v32h-256zm0 0" fill="#24b2d3"/><path d="m96 320h32v32h-32zm0 0" fill="#fff"/><path d="m160 320h256v32h-256zm0 0" fill="#24b2d3"/><path d="m96 384h32v32h-32zm0 0" fill="#fff"/><path d="m160 384h256v32h-256zm0 0" fill="#24b2d3"/><path d="m0 96h320v32h-320zm0 0" fill="#77959e"/><g fill="#fff"><path d="m416 96h32v32h-32zm0 0"/><path d="m352 96h32v32h-32zm0 0"/></g></svg>