<svg height="512pt" viewBox="0 -16 512 512" width="512pt" xmlns="http://www.w3.org/2000/svg"><path d="m496 48h-320c-8.832031 0-16-7.167969-16-16s7.167969-16 16-16h320c8.832031 0 16 7.167969 16 16s-7.167969 16-16 16zm0 0" fill="#77959e"/><path d="m224 80h32v32h-32zm0 0" fill="#62808c"/><path d="m160 80h32v32h-32zm0 0" fill="#62808c"/><path d="m128 64c0 35.347656-28.652344 64-64 64s-64-28.652344-64-64 28.652344-64 64-64 64 28.652344 64 64zm0 0" fill="#48c8ef"/><path d="m496 224h-320c-8.832031 0-16-7.167969-16-16s7.167969-16 16-16h320c8.832031 0 16 7.167969 16 16s-7.167969 16-16 16zm0 0" fill="#77959e"/><path d="m224 256h32v32h-32zm0 0" fill="#62808c"/><path d="m160 256h32v32h-32zm0 0" fill="#62808c"/><path d="m128 240c0 35.347656-28.652344 64-64 64s-64-28.652344-64-64 28.652344-64 64-64 64 28.652344 64 64zm0 0" fill="#48c8ef"/><path d="m496 400h-320c-8.832031 0-16-7.167969-16-16s7.167969-16 16-16h320c8.832031 0 16 7.167969 16 16s-7.167969 16-16 16zm0 0" fill="#77959e"/><path d="m224 432h32v32h-32zm0 0" fill="#62808c"/><path d="m160 432h32v32h-32zm0 0" fill="#62808c"/><path d="m128 416c0 35.347656-28.652344 64-64 64s-64-28.652344-64-64 28.652344-64 64-64 64 28.652344 64 64zm0 0" fill="#48c8ef"/><g fill="#fff"><path d="m48 48h32v32h-32zm0 0"/><path d="m48 224h32v32h-32zm0 0"/><path d="m48 400h32v32h-32zm0 0"/></g></svg>