<svg height="512pt" viewBox="0 0 512 512" width="512pt" xmlns="http://www.w3.org/2000/svg"><path d="m480 512h-448c-17.679688 0-32-14.320312-32-32v-448c0-17.679688 14.320312-32 32-32h448c17.679688 0 32 14.320312 32 32v448c0 17.679688-14.320312 32-32 32zm0 0" fill="#ffcb5a"/><path d="m401.089844 296h-84c-33.074219 0-60-26.910156-60-60s26.910156-60 60-60h68v-16c0-26.464844-21.539063-48-48-48-26.464844 0-48 21.535156-48 48h-32c0-44.113281 35.886718-80 80-80 44.109375 0 80 35.886719 80 80v48h-100c-15.441406 0-28 12.558594-28 28s12.558594 28 28 28h84zm0 0" fill="#fff"/><path d="m320.511719 462.015625c-16.367188 0-32.769531-6.238281-45.246094-18.703125l-22.625-22.625c-24.945313-24.960938-24.945313-65.566406 0-90.511719l113.136719-113.136719 113.132812 113.136719-113.132812 113.136719c-12.480469 12.480469-28.882813 18.703125-45.265625 18.703125zm0 0" fill="#62808c"/><path d="m129.089844 48c-52.945313 0-96 43.054688-96 96v160h32v-96h128v96h32v-160c0-52.945312-43.074219-96-96-96zm-64 128v-32c0-35.296875 28.703125-64 64-64 35.292968 0 64 28.703125 64 64v32zm0 0" fill="#fff"/><path d="m320.65625 463.183594c-16.640625 0-33.265625-6.335938-45.9375-18.992188l-22.957031-22.960937c-25.3125-25.34375-25.3125-66.542969 0-91.871094l22.957031-22.960937 114.847656 114.847656-22.957031 22.960937c-12.6875 12.65625-29.328125 18.976563-45.953125 18.976563zm0 0" fill="#e4edfb"/></svg>