<svg height="512pt" viewBox="0 0 512 512" width="512pt" xmlns="http://www.w3.org/2000/svg"><path d="m512 256c0 141.386719-114.613281 256-256 256s-256-114.613281-256-256 114.613281-256 256-256 256 114.613281 256 256zm0 0" fill="#ffcb5a"/><path d="m448 256c0 106.039062-85.960938 192-192 192s-192-85.960938-192-192 85.960938-192 192-192 192 85.960938 192 192zm0 0" fill="#fba61f"/><g fill="#fff"><path d="m112 240h32v32h-32zm0 0"/><path d="m240 368h32v32h-32zm0 0"/><path d="m320 272h-80v-144c0-8.832031 7.167969-16 16-16s16 7.167969 16 16v112h48zm0 0"/><path d="m368 240h32v32h-32zm0 0"/></g></svg>