<svg height="511pt" viewBox="0 1 511.998 511" width="511pt" xmlns="http://www.w3.org/2000/svg"><path d="m511.359375 256.816406c0 141.207032-114.472656 255.679688-255.679687 255.679688-141.207032 0-255.679688-114.472656-255.679688-255.679688 0-141.210937 114.472656-255.679687 255.679688-255.679687 141.207031 0 255.679687 114.46875 255.679687 255.679687zm0 0" fill="#bfc9d1"/><path d="m255.679688 480.496094c-123.34375 0-223.679688-100.335938-223.679688-223.679688s100.335938-223.679687 223.679688-223.679687c123.328124 0 223.664062 100.335937 223.664062 223.679687s-100.335938 223.679688-223.664062 223.679688zm0 0" fill="#d7dee2"/><path d="m480.128906 122.910156-184.320312 184.160156-8.160156 2.082032-84.480469-84.464844 2.078125-8 184.320312-184.320312zm0 0" fill="#e76e54"/><path d="m205.328125 216.640625-30.160156 120.6875 120.6875-30.175781 3.136719-3.121094-90.527344-90.527344zm0 0" fill="#ecce93"/><path d="m502.625 55.117188-45.25-45.246094c-12.496094-12.496094-32.75-12.496094-45.246094 0l-33.9375 33.9375 90.511719 90.511718 33.9375-33.9375c12.480469-12.511718 12.480469-32.769531-.015625-45.265624zm0 0" fill="#e4edfb"/><path d="m236.960938 321.933594-61.761719 15.363281 15.359375-61.761719zm0 0" fill="#57565c"/></svg>