<svg height="512pt" viewBox="-32 0 512 512" width="512pt" xmlns="http://www.w3.org/2000/svg"><path d="m288 416h-256c-17.679688 0-32-14.320312-32-32v-352c0-17.679688 14.320312-32 32-32h256c17.679688 0 32 14.320312 32 32v352c0 17.679688-14.320312 32-32 32zm0 0" fill="#77959e"/><path d="m416 512h-256c-17.679688 0-32-14.320312-32-32v-352c0-17.679688 14.320312-32 32-32h256c17.679688 0 32 14.320312 32 32v352c0 17.679688-14.320312 32-32 32zm0 0" fill="#48c8ef"/><path d="m384 224h-32v-32h-32v-32h64zm0 0" fill="#fff"/></svg>