<svg height="512pt" viewBox="0 0 512 512" width="512pt" xmlns="http://www.w3.org/2000/svg"><path d="m448 512h-368c-44.175781 0-80-35.824219-80-80v-400c0-17.679688 14.320312-32 32-32h320c17.679688 0 32 14.320312 32 32v256h32v160c0 17.648438 14.351562 32 32 32zm0 0" fill="#ecce93"/><g fill="#fff"><path d="m105.617188 351.695312c-33.25-3.246093-57.617188-33.136718-57.617188-66.542968v-77.152344c0-8.832031 7.167969-16 16-16s16 7.167969 16 16v78.191406c0 15.9375 10.847656 30.753906 26.574219 33.359375 20.035156 3.3125 37.425781-12.125 37.425781-31.550781v-80c0-8.832031 7.167969-16 16-16s16 7.167969 16 16v80c0 37.390625-32.222656 67.390625-70.382812 63.695312zm0 0"/><path d="m270.113281 352h-46.113281c-8.832031 0-16-7.167969-16-16s7.167969-16 16-16h48c8.832031 0 16-7.183594 16-16s-7.167969-16-16-16h-14.113281c-23.214844 0-44.542969-15.648438-48.957031-38.433594-5.953126-30.636718 17.46875-57.566406 47.070312-57.566406h48c8.832031 0 16 7.167969 16 16s-7.167969 16-16 16h-48c-8.832031 0-16 7.183594-16 16s7.167969 16 16 16h16c29.601562 0 53.023438 26.929688 47.070312 57.566406-4.429687 22.785156-25.757812 38.433594-48.957031 38.433594zm0 0"/><path d="m320 96h-256c-8.832031 0-16-7.167969-16-16s7.167969-16 16-16h256c8.832031 0 16 7.167969 16 16s-7.167969 16-16 16zm0 0"/><path d="m320 160h-256c-8.832031 0-16-7.167969-16-16s7.167969-16 16-16h256c8.832031 0 16 7.167969 16 16s-7.167969 16-16 16zm0 0"/><path d="m48 384h32v32h-32zm0 0"/><path d="m112 384h32v32h-32zm0 0"/><path d="m176 384h32v32h-32zm0 0"/><path d="m240 384h32v32h-32zm0 0"/><path d="m304 384h32v32h-32zm0 0"/></g><path d="m448 512c-35.296875 0-64-28.703125-64-64v-160h128v160c0 35.296875-28.703125 64-64 64zm0 0" fill="#e5bd76"/></svg>