<svg height="508pt" viewBox="0 0 508.34711 508" width="508pt" xmlns="http://www.w3.org/2000/svg"><path d="m183.734375 432.8125c-12.300781 0-24.574219-4.671875-33.933594-14.015625l-135.761719-135.757813c-18.71875-18.707031-18.71875-49.167968 0-67.890624l147.074219-147.070313 203.628907 203.617187-147.070313 147.070313c-9.359375 9.359375-21.664063 14.046875-33.9375 14.046875zm0 0" fill="#bfc9d1"/><path d="m128.265625 270.109375c-27.34375-2.398437-52.546875-15.917969-71.953125-35.328125l-40.335938-40.335938c-6.242187-6.238281-6.242187-16.382812 0-22.625 6.238282-6.238281 16.382813-6.238281 22.625 0l41.054688 41.058594c13.136719 13.132813 29.9375 22.703125 48.367188 25.023438 25.183593 3.183594 49.472656-5.214844 67.039062-22.769532l11.3125-11.3125 22.625 22.625-11.3125 11.3125c-23.566406 23.550782-55.726562 35.3125-89.421875 32.351563zm0 0" fill="#77959e"/><path d="m370.953125 323.148438-255.089844-255.101563 67.871094-67.875 235.632813 235.648437zm0 0" fill="#77959e"/><path d="m413.558594 507.820312c-31.488282 0-60.832032-15.566406-78.480469-41.648437-17.664063-26.078125-21.199219-59.101563-9.519531-88.335937l.867187-1.804688 87.132813-157.21875 88 159.023438c11.679687 29.25 8.144531 62.273437-9.519532 88.335937-17.648437 26.066406-46.992187 41.648437-78.480468 41.648437zm0 0" fill="#ceed5f"/><path d="m492.039062 434.171875c-17.664062 26.066406-47.007812 41.648437-78.480468 41.648437-31.46875 0-60.832032-15.566406-78.480469-41.648437-7.695313-11.359375-12.542969-24.078125-14.78125-37.199219-4.128906 23.890625.894531 48.6875 14.78125 69.199219 17.664063 26.066406 47.011719 41.648437 78.480469 41.648437 31.472656 0 60.832031-15.566406 78.480468-41.648437 13.890626-20.511719 18.898438-45.308594 14.785157-69.199219-2.238281 13.121094-7.089844 25.839844-14.785157 37.199219zm0 0" fill="#badb31"/><path d="m431.144531 396.972656h32v32h-32zm0 0" fill="#fff"/></svg>