<svg height="507pt" viewBox="0 -21 507.54585 507" width="507pt" xmlns="http://www.w3.org/2000/svg"><path d="m491.542969 232.382812c0 119.347657-96.753907 216.101563-216.101563 216.101563-119.351562 0-216.101562-96.753906-216.101562-216.101563 0-119.351562 96.75-216.101562 216.101562-216.101562 119.347656 0 216.101563 96.75 216.101563 216.101562zm0 0" fill="#ffcb5a"/><path d="m272.992188 464.472656c-81.636719-.832031-155.289063-43.410156-196.492188-112.644531-4.835938-8.113281-1.984375-18.632813 6.46875-22.839844 7.363281-3.683593 16.46875-1.25 20.664062 5.839844 39.859376 67.441406 115.382813 105.730469 196.316407 96.191406 90.96875-10.726562 164.1875-84.792969 174.320312-175.828125 13.398438-120.488281-80.980469-222.902344-198.828125-222.902344-28.269531 0-55.59375 5.761719-81.207031 17.125l-12.980469-29.261718c29.742188-13.1875 61.417969-19.878906 94.1875-19.878906 131.484375 0 237.792969 109.90625 231.867188 242.671874-5.503906 123.386719-110.835938 222.792969-234.316406 221.527344zm-197.644532-232.089844h-32.015625c0-28.398437 5.011719-55.949218 14.917969-81.878906 1.410156-3.699218 2.929688-7.460937 4.53125-11.15625l29.359375 12.757813c-1.394531 3.199219-2.722656 6.449219-3.957031 9.730469-8.515625 22.347656-12.835938 46.070312-12.835938 70.546874zm30.621094-106.417968-27.132812-17.015625c6.066406-9.652344 12.917968-18.96875 20.394531-27.679688l24.300781 20.859375c-6.453125 7.492188-12.359375 15.511719-17.5625 23.835938zm38.433594-44.855469-20.96875-24.167969c8.644531-7.507812 17.898437-14.410156 27.53125-20.539062l17.195312 27.019531c-8.308594 5.265625-16.296875 11.222656-23.757812 17.6875zm0 0" fill="#e76e54"/><g fill="#fff"><path d="m347.476562 248.390625h-96.046874v-160.078125h32.015624v128.0625h64.03125zm0 0"/><path d="m379.488281 216.375h32.015625v32.015625h-32.015625zm0 0"/><path d="m251.429688 344.433594h32.015624v32.015625h-32.015624zm0 0"/></g><path d="m59.339844 271.023438-59.339844-59.339844 22.632812-22.632813 36.707032 36.703125 36.707031-36.703125 22.632813 22.632813zm0 0" fill="#dd523c"/></svg>