<svg height="512pt" viewBox="0 0 512 512" width="512pt" xmlns="http://www.w3.org/2000/svg"><path d="m480 512h-448c-17.679688 0-32-14.320312-32-32v-448c0-17.679688 14.320312-32 32-32h448c17.679688 0 32 14.320312 32 32v448c0 17.679688-14.320312 32-32 32zm0 0" fill="#48c8ef"/><path d="m80 240h-32v-32h-32v96h32v-32h32v32h32v-96h-32zm0 0" fill="#fff"/><path d="m144 240h32v64h32v-64h32v-32h-96zm0 0" fill="#fff"/><path d="m272 304h32v-64h16v64h32v-64h16v64h32v-96h-128zm0 0" fill="#fff"/><path d="m464 272v-64h-32v96h64v-32zm0 0" fill="#fff"/><g fill="#24b2d3"><path d="m0 144h144v32h-144zm0 0"/><path d="m368 144h144v32h-144zm0 0"/><path d="m240 144h32v32h-32zm0 0"/><path d="m176 144h32v32h-32zm0 0"/><path d="m304 144h32v32h-32zm0 0"/><path d="m0 336h144v32h-144zm0 0"/><path d="m368 336h144v32h-144zm0 0"/><path d="m240 336h32v32h-32zm0 0"/><path d="m176 336h32v32h-32zm0 0"/><path d="m304 336h32v32h-32zm0 0"/></g></svg>