<svg height="512pt" viewBox="-16 0 512 512" width="512pt" xmlns="http://www.w3.org/2000/svg"><path d="m286.910156 0h-135.425781c-14.496094 0-27.183594 9.742188-30.910156 23.761719l-119.472657 448c-5.425781 20.300781 9.886719 40.238281 30.910157 40.238281h78.640625c14.878906 0 27.777344-10.238281 31.167968-24.734375l16.625-71.265625h121.503907l16.625 71.265625c3.375 14.496094 16.285156 24.734375 31.148437 24.734375h78.640625c21.023438 0 36.335938-19.9375 30.914063-40.238281l-119.472656-448c-3.710938-14.019531-16.398438-23.761719-30.894532-23.761719zm-129.984375 320 43.742188-224h37.054687l43.746094 224zm0 0" fill="#48c8ef"/><g fill="#77959e"><path d="m452.574219 192-57.378907-57.375-57.375 57.375c-6.238281 6.238281-16.382812 6.238281-22.625 0-6.238281-6.238281-6.238281-16.382812 0-22.625l80-80 80 80c6.242188 6.242188 6.242188 16.386719 0 22.625-6.253906 6.238281-16.382812 6.238281-22.621093 0zm0 0"/><path d="m452.574219 104-57.378907-57.375-57.375 57.375c-6.238281 6.238281-16.382812 6.238281-22.625 0-6.238281-6.238281-6.238281-16.382812 0-22.625l80-80 80 80c6.242188 6.242188 6.242188 16.386719 0 22.625-6.253906 6.238281-16.382812 6.238281-22.621093 0zm0 0"/></g></svg>