<svg height="511pt" viewBox="0 0 511.632 511" width="511pt" xmlns="http://www.w3.org/2000/svg"><path d="m36.078125 511.46875-36.078125-36.066406 62.640625-212.941406h22.960937c47.007813 0 91.199219-18.304688 124.429688-51.554688l11.3125-11.328125 90.71875 90.050781-11.519531 11.773438c-33.230469 33.234375-51.550781 77.425781-51.550781 124.449218v22.945313zm0 0" fill="#d7dee2"/><path d="m29.296875 504.78125-22.527344-22.707031 90.476563-90.496094 22.65625 22.59375zm0 0" fill="#bfc9d1"/><path d="m119.855469 368.988281 22.628906-22.628906 22.625 22.628906-22.625 22.625zm0 0" fill="#fff"/><path d="m233.007812 210.589844-11.664062-10.992188-11.3125 11.328125c-11.535156 11.535157-24.445312 21.132813-38.269531 28.925781l99.855469 99.855469c7.789062-13.824219 17.40625-26.75 28.925781-38.285156l11.519531-11.777344zm0 0" fill="#bfc9d1"/><path d="m398.015625.316406-210.273437 210.273438 113.136718 113.132812 210.753906-210.75zm0 0" fill="#48c8ef"/></svg>