<svg height="512pt" viewBox="0 -5 512 512" width="512pt" xmlns="http://www.w3.org/2000/svg"><path d="m512 32v304c0 17.679688-14.320312 32-32 32h-448c-17.679688 0-32-14.320312-32-32v-304c0-17.679688 14.320312-32 32-32h448c17.679688 0 32 14.320312 32 32zm0 0" fill="#48c8ef"/><path d="m512 265.761719v70.238281c0 17.679688-14.320312 32-32 32h-448c-17.679688 0-32-14.320312-32-32v-36.800781l176.480469-212.160157 134.078125 161.121094 90.402344-77.28125zm0 0" fill="#ceed5f"/><path d="m368 96c0 26.507812-21.492188 48-48 48s-48-21.492188-48-48 21.492188-48 48-48 48 21.492188 48 48zm0 0" fill="#ffcb5a"/><g fill="#77959e"><path d="m240 272v144l-64 64-64-64v-144zm0 0"/><path d="m176 502.625-112-112c-6.238281-6.242188-6.238281-16.386719 0-22.625s16.382812-6.238281 22.625 0l89.375 89.375 89.375-89.375c6.242188-6.238281 16.386719-6.238281 22.625 0s6.238281 16.382812 0 22.625zm0 0"/></g></svg>