<svg height="512pt" viewBox="0 0 512 512" width="512pt" xmlns="http://www.w3.org/2000/svg"><path d="m480 512h-448c-17.679688 0-32-14.320312-32-32v-448c0-17.679688 14.320312-32 32-32h448c17.679688 0 32 14.320312 32 32v448c0 17.679688-14.320312 32-32 32zm0 0" fill="#aa854b"/><path d="m512 160h-160v-160h-32v160h-128v-160h-32v160h-160v32h160v128h-160v32h160v160h32v-160h128v128h32v-288h160zm-192 160h-128v-128h128zm0 0" fill="#916e40"/><path d="m480 352c0 70.691406-57.308594 128-128 128s-128-57.308594-128-128 57.308594-128 128-128 128 57.308594 128 128zm0 0" fill="#ffcb5a"/><path d="m400 336h-32v-32h-32v32h-32v32h32v32h32v-32h32zm0 0" fill="#fff"/></svg>