<svg height="512pt" viewBox="0 -32 512 512" width="512pt" xmlns="http://www.w3.org/2000/svg"><path d="m352.863281 432-37.328125-112h-119.070312l-37.328125 112zm0 0" fill="#bfc9d1"/><path d="m384 448h-256c-8.832031 0-16-7.167969-16-16s7.167969-16 16-16h256c8.832031 0 16 7.167969 16 16s-7.167969 16-16 16zm0 0" fill="#d7dee2"/><path d="m480 352h-448c-17.679688 0-32-14.320312-32-32v-288c0-17.679688 14.320312-32 32-32h448c17.679688 0 32 14.320312 32 32v288c0 17.679688-14.320312 32-32 32zm0 0" fill="#e76e54"/><g fill="#dd523c"><path d="m448 64h32v32h-32zm0 0"/><path d="m448 128h32v32h-32zm0 0"/><path d="m448 192h32v32h-32zm0 0"/><path d="m448 256h32v32h-32zm0 0"/><path d="m32 64h32v32h-32zm0 0"/><path d="m32 128h32v32h-32zm0 0"/><path d="m32 192h32v32h-32zm0 0"/><path d="m32 256h32v32h-32zm0 0"/></g><path d="m192 277.3125v-202.625l157.601562 101.3125zm0 0" fill="#fff"/></svg>