<svg height="512pt" viewBox="0 0 512 512" width="512pt" xmlns="http://www.w3.org/2000/svg"><g fill="#62808c"><path d="m48 416h32v80h-32zm0 0"/><path d="m144 416h32v80h-32zm0 0"/><path d="m240 416h32v80h-32zm0 0"/><path d="m336 416h32v80h-32zm0 0"/><path d="m432 416h32v80h-32zm0 0"/><path d="m48 16h32v85.328125h-32zm0 0"/><path d="m144 16h32v85.328125h-32zm0 0"/><path d="m240 16h32v85.328125h-32zm0 0"/><path d="m336 16h32v85.328125h-32zm0 0"/><path d="m432 16h32v85.328125h-32zm0 0"/></g><path d="m496 32h-480c-8.832031 0-16-7.167969-16-16s7.167969-16 16-16h480c8.832031 0 16 7.167969 16 16s-7.167969 16-16 16zm0 0" fill="#77959e"/><path d="m496 512h-480c-8.832031 0-16-7.167969-16-16s7.167969-16 16-16h480c8.832031 0 16 7.167969 16 16s-7.167969 16-16 16zm0 0" fill="#77959e"/><path d="m480 432h-448c-17.679688 0-32-14.320312-32-32v-288c0-17.679688 14.320312-32 32-32h448c17.679688 0 32 14.320312 32 32v288c0 17.679688-14.320312 32-32 32zm0 0" fill="#e76e54"/><path d="m192 347.566406v-183.132812l160.257812 91.566406zm0 0" fill="#fff"/></svg>