<svg height="512pt" viewBox="-85 0 512 512" width="512pt" xmlns="http://www.w3.org/2000/svg"><path d="m170.945312 512c-61.699218 0-116.960937-31.902344-147.808593-85.328125-30.847657-53.425781-30.847657-117.230469 0-170.671875l147.808593-256 147.808594 256c30.847656 53.425781 30.847656 117.230469 0 170.671875-30.867187 53.425781-86.113281 85.328125-147.808594 85.328125zm0 0" fill="#d7dee2"/><g fill="#bfc9d1"><path d="m170.945312 304c0 8.832031-7.167968 16-16 16h-153.601562c1.28125-10.71875 3.839844-21.601562 7.359375-32h146.242187c8.832032 0 16 7.167969 16 16zm0 0"/><path d="m170.945312 240c0 8.832031-7.167968 16-16 16h-131.839843l18.558593-32h113.28125c8.832032 0 16 7.167969 16 16zm0 0"/><path d="m170.945312 176c0 8.832031-7.167968 16-16 16h-94.882812l18.5625-32h76.320312c8.832032 0 16 7.167969 16 16zm0 0"/><path d="m170.945312 112c0 8.832031-7.167968 16-16 16h-57.921874l18.5625-32h39.359374c8.832032 0 16 7.167969 16 16zm0 0"/></g><path d="m138.945312 352h32v32h-32zm0 0" fill="#fff"/><path d="m74.945312 352h32v32h-32zm0 0" fill="#fff"/><path d="m340.816406 325.328125c-2.304687 23.886719-9.472656 47.488281-22.082031 69.328125-30.847656 53.441406-86.09375 85.34375-147.789063 85.34375-36.769531 0-71.089843-11.535156-99.488281-32h83.488281c8.832032 0 16-7.167969 16-16s-7.167968-16-16-16h-117.105468c-5.328125-6.703125-10.320313-13.726562-14.71875-21.328125-12.609375-21.839844-19.777344-45.441406-22.082032-69.328125-3.328124 34.542969 3.839844 69.746094 22.082032 101.328125 30.863281 53.425781 86.125 85.328125 147.824218 85.328125 61.695313 0 116.957032-31.902344 147.808594-85.328125 18.222656-31.601563 25.390625-66.785156 22.0625-101.34375zm0 0" fill="#bfc9d1"/></svg>