<svg height="512pt" viewBox="-2 0 511 512" width="512pt" xmlns="http://www.w3.org/2000/svg"><g fill="#aa854b"><path d="m336.5 32h-320c-8.832031 0-16-7.167969-16-16s7.167969-16 16-16h320c8.832031 0 16 7.167969 16 16s-7.167969 16-16 16zm0 0"/><path d="m336.5 128h-320c-8.832031 0-16-7.167969-16-16s7.167969-16 16-16h320c8.832031 0 16 7.167969 16 16s-7.167969 16-16 16zm0 0"/><path d="m336.5 224h-320c-8.832031 0-16-7.167969-16-16s7.167969-16 16-16h320c8.832031 0 16 7.167969 16 16s-7.167969 16-16 16zm0 0"/><path d="m336.5 416h-320c-8.832031 0-16-7.167969-16-16s7.167969-16 16-16h320c8.832031 0 16 7.167969 16 16s-7.167969 16-16 16zm0 0"/><path d="m336.5 320h-320c-8.832031 0-16-7.167969-16-16s7.167969-16 16-16h320c8.832031 0 16 7.167969 16 16s-7.167969 16-16 16zm0 0"/><path d="m336.5 512h-320c-8.832031 0-16-7.167969-16-16s7.167969-16 16-16h320c8.832031 0 16 7.167969 16 16s-7.167969 16-16 16zm0 0"/></g><path d="m485.1875 212.6875-20.6875 20.6875v-73.375h-32v73.375l-20.6875-20.6875-22.625 22.625 59.3125 59.3125 59.3125-59.3125zm0 0" fill="#e76e54"/><path d="m432.5 96h32v32h-32zm0 0" fill="#e76e54"/><path d="m432.5 32h32v32h-32zm0 0" fill="#e76e54"/></svg>