<svg height="496.592pt" viewBox="0 0 496.592 496.592" width="496.592pt" xmlns="http://www.w3.org/2000/svg"><path d="m292.257812 98.832031-43.953124-50.238281-43.96875 50.238281-24.078126-21.070312 68.046876-77.761719 68.03125 77.761719zm0 0" fill="#e76e54"/><path d="m248.304688 496.59375-68.046876-77.761719 24.078126-21.070312 43.96875 50.238281 43.953124-50.238281 24.078126 21.070312zm0 0" fill="#e76e54"/><path d="m232.304688 232.304688h32v32h-32zm0 0" fill="#dd523c"/><path d="m77.761719 316.335938-77.761719-68.03125 77.761719-68.046876 21.070312 24.078126-50.238281 43.96875 50.238281 43.953124zm0 0" fill="#e76e54"/><path d="m418.832031 316.335938-21.070312-24.078126 50.238281-43.953124-50.238281-43.96875 21.070312-24.078126 77.761719 68.046876zm0 0" fill="#e76e54"/><g fill="#d7dee2"><path d="m232.304688 136.304688h32v64h-32zm0 0"/><path d="m232.304688 296.304688h32v64h-32zm0 0"/><path d="m136.304688 232.304688h64v32h-64zm0 0"/><path d="m296.304688 232.304688h64v32h-64zm0 0"/></g></svg>