<svg height="512pt" viewBox="-24 0 512 512" width="512pt" xmlns="http://www.w3.org/2000/svg"><path d="m416 512h-416v-374.625l137.375-137.375h278.625zm0 0" fill="#ffcb5a"/><path d="m0 137.375h137.375v-137.375zm0 0" fill="#fba61f"/><g fill="#aa854b"><path d="m272 176h64v32h-64zm0 0"/><path d="m352 96h32v64h-32zm0 0"/><path d="m352 224h32v64h-32zm0 0"/><path d="m400 176h64v32h-64zm0 0"/></g><path d="m192 352h32v32h-32zm0 0" fill="#fff"/><path d="m240 304h32v32h-32zm0 0" fill="#fff"/><path d="m240 400h32v32h-32zm0 0" fill="#fff"/><path d="m288 352h32v32h-32zm0 0" fill="#fff"/></svg>