<svg height="512pt" viewBox="0 0 512 512" width="512pt" xmlns="http://www.w3.org/2000/svg"><path d="m4.6875 36.6875 22.625 22.625 27.3125-27.3125h9.375v96h32v-128h-54.625zm0 0" fill="#e76e54"/><path d="m0 224h64v16h-64v80h96v-32h-64v-16h64v-80h-96zm0 0" fill="#fe9d58"/><path d="m0 416h64v16h-32v32h32v16h-64v32h96v-128h-96zm0 0" fill="#ffcb5a"/><g fill="#e76e54"><path d="m160 48c0 8.832031 7.167969 16 16 16h320c8.832031 0 16-7.167969 16-16s-7.167969-16-16-16h-320c-8.832031 0-16 7.167969-16 16zm0 0"/><path d="m384 96h-208c-8.832031 0-16 7.167969-16 16s7.167969 16 16 16h208zm0 0"/><path d="m480 96h32v32h-32zm0 0"/><path d="m416 96h32v32h-32zm0 0"/></g><path d="m176 256h320c8.832031 0 16-7.167969 16-16s-7.167969-16-16-16h-320c-8.832031 0-16 7.167969-16 16s7.167969 16 16 16zm0 0" fill="#fe9d58"/><path d="m384 288h-208c-8.832031 0-16 7.167969-16 16s7.167969 16 16 16h208zm0 0" fill="#fe9d58"/><path d="m480 288h32v32h-32zm0 0" fill="#fe9d58"/><path d="m416 288h32v32h-32zm0 0" fill="#fe9d58"/><path d="m176 448h320c8.832031 0 16-7.167969 16-16s-7.167969-16-16-16h-320c-8.832031 0-16 7.167969-16 16s7.167969 16 16 16zm0 0" fill="#ffcb5a"/><path d="m176 512h208v-32h-208c-8.832031 0-16 7.167969-16 16s7.167969 16 16 16zm0 0" fill="#ffcb5a"/><path d="m480 480h32v32h-32zm0 0" fill="#ffcb5a"/><path d="m416 480h32v32h-32zm0 0" fill="#ffcb5a"/></svg>