<svg height="512pt" viewBox="0 0 512 512" width="512pt" xmlns="http://www.w3.org/2000/svg"><path d="m319.996094 16h128v496h-128zm0 0" fill="#48c8ef"/><g fill="#77959e"><path d="m159.996094 288h-10.910156c-76.625 0-143.632813-57.679688-148.753907-134.128906-5.632812-83.839844 60.992188-153.871094 143.664063-153.871094h352c8.832031 0 16 7.167969 16 16s-7.167969 16-16 16h-348.09375c-56.929688 0-107.714844 40.800781-114.960938 97.265625-8.769531 68.285156 44.445313 126.734375 111.054688 126.734375h16zm0 0"/><path d="m191.996094 256h32v32h-32zm0 0"/><path d="m255.996094 256h32v32h-32zm0 0"/></g></svg>