<svg height="512pt" viewBox="0 0 512 512" width="512pt" xmlns="http://www.w3.org/2000/svg"><path d="m32 352h-32v-278.625l73.375-73.375h70.625c8.832031 0 16 7.167969 16 16s-7.167969 16-16 16h-57.375l-54.625 54.625zm0 0" fill="#24b2d3"/><path d="m320 352h-32v-278.625l73.375-73.375h70.625c8.832031 0 16 7.167969 16 16s-7.167969 16-16 16h-57.375l-54.625 54.625zm0 0" fill="#24b2d3"/><g fill="#48c8ef"><path d="m160 512h-96c-35.34375 0-64-28.65625-64-64v-96c0-35.34375 28.65625-64 64-64h96c35.34375 0 64 28.65625 64 64v96c0 35.34375-28.65625 64-64 64zm-96-32h96c17.679688 0 32-14.320312 32-32v-96c0-17.679688-14.320312-32-32-32h-96c-17.679688 0-32 14.320312-32 32v96c0 17.679688 14.320312 32 32 32zm0 0"/><path d="m448 512h-96c-35.34375 0-64-28.65625-64-64v-96c0-35.34375 28.65625-64 64-64h96c35.34375 0 64 28.65625 64 64v96c0 35.34375-28.65625 64-64 64zm-96-32h96c17.679688 0 32-14.320312 32-32v-96c0-17.679688-14.320312-32-32-32h-96c-17.679688 0-32 14.320312-32 32v96c0 17.679688 14.320312 32 32 32zm0 0"/></g></svg>