<svg height="512pt" viewBox="0 -6 512 512" width="512pt" xmlns="http://www.w3.org/2000/svg"><path d="m0 340.679688h384v160h-384zm0 0" fill="#fba61f"/><path d="m0 180.679688h384v128h-384zm0 0" fill="#ffcb5a"/><path d="m512 468.679688h-96v-32h64v-352h-99.886719v-32h131.886719zm0 0" fill="#62808c"/><path d="m421.488281 132.679688-64-64 64-64c6.238281-6.238282 16.382813-6.238282 22.625 0 6.238281 6.242187 6.238281 16.382812 0 22.625l-41.378906 41.375 41.378906 41.375c6.238281 6.242187 6.238281 16.386718 0 22.625-6.242187 6.257812-16.371093 6.257812-22.625 0zm0 0" fill="#77959e"/><g fill="#ffcb5a"><path d="m0 116.679688h352v32h-352zm0 0"/><path d="m0 52.679688h32v32h-32zm0 0"/><path d="m64 52.679688h32v32h-32zm0 0"/><path d="m128 52.679688h192v32h-192zm0 0"/></g></svg>