<svg height="512pt" viewBox="0 0 512 512" width="512pt" xmlns="http://www.w3.org/2000/svg"><path d="m512 240h-73.375l20.6875-20.6875-22.625-22.625-59.3125 59.3125 59.3125 59.3125 22.625-22.625-20.6875-20.6875h73.375zm0 0" fill="#e76e54"/><g fill="#badb31"><path d="m272 112h-256c-8.832031 0-16-7.167969-16-16s7.167969-16 16-16h256c8.832031 0 16 7.167969 16 16s-7.167969 16-16 16zm0 0"/><path d="m272 192h-160c-8.832031 0-16-7.167969-16-16s7.167969-16 16-16h160c8.832031 0 16 7.167969 16 16s-7.167969 16-16 16zm0 0"/><path d="m272 272h-256c-8.832031 0-16-7.167969-16-16s7.167969-16 16-16h256c8.832031 0 16 7.167969 16 16s-7.167969 16-16 16zm0 0"/><path d="m272 352h-160c-8.832031 0-16-7.167969-16-16s7.167969-16 16-16h160c8.832031 0 16 7.167969 16 16s-7.167969 16-16 16zm0 0"/><path d="m272 432h-256c-8.832031 0-16-7.167969-16-16s7.167969-16 16-16h256c8.832031 0 16 7.167969 16 16s-7.167969 16-16 16zm0 0"/></g><path d="m320 64h32v384h-32zm0 0" fill="#ceed5f"/><path d="m320 0h32v32h-32zm0 0" fill="#ceed5f"/><path d="m320 480h32v32h-32zm0 0" fill="#ceed5f"/></svg>