<svg height="512pt" viewBox="0 0 512 512" width="512pt" xmlns="http://www.w3.org/2000/svg"><path d="m512 112h-32v-80h-80v-32h112zm0 0" fill="#e76e54"/><path d="m512 512h-112v-32h80v-80h32zm0 0" fill="#e76e54"/><g fill="#dd523c"><path d="m144 0h32v32h-32zm0 0"/><path d="m144 480h32v32h-32zm0 0"/><path d="m208 0h32v32h-32zm0 0"/><path d="m208 480h32v32h-32zm0 0"/><path d="m272 0h32v32h-32zm0 0"/><path d="m272 480h32v32h-32zm0 0"/><path d="m336 0h32v32h-32zm0 0"/><path d="m0 336h32v32h-32zm0 0"/><path d="m0 272h32v32h-32zm0 0"/><path d="m0 208h32v32h-32zm0 0"/><path d="m0 144h32v32h-32zm0 0"/><path d="m480 336h32v32h-32zm0 0"/><path d="m480 272h32v32h-32zm0 0"/><path d="m480 208h32v32h-32zm0 0"/><path d="m480 144h32v32h-32zm0 0"/><path d="m336 480h32v32h-32zm0 0"/></g><path d="m112 512h-112v-112h32v80h80zm0 0" fill="#e76e54"/><path d="m32 112h-32v-112h112v32h-80zm0 0" fill="#e76e54"/><path d="m352 352h32v32h-32zm0 0" fill="#ffcb5a"/><path d="m324.574219 384h-27.421875v-32h27.421875zm-54.863281 0h-27.421876v-32h27.421876zm-54.847657 0h-27.421875v-32h27.421875zm0 0" fill="#ffcb5a"/><path d="m128 352h32v32h-32zm0 0" fill="#ffcb5a"/><path d="m160 324.574219h-32v-27.421875h32zm0-54.863281h-32v-27.421876h32zm0-54.847657h-32v-27.421875h32zm0 0" fill="#ffcb5a"/><path d="m128 128h32v32h-32zm0 0" fill="#ffcb5a"/><path d="m324.574219 160h-27.421875v-32h27.421875zm-54.863281 0h-27.421876v-32h27.421876zm-54.847657 0h-27.421875v-32h27.421875zm0 0" fill="#ffcb5a"/><path d="m352 128h32v32h-32zm0 0" fill="#ffcb5a"/><path d="m384 324.574219h-32v-27.421875h32zm0-54.863281h-32v-27.421876h32zm0-54.847657h-32v-27.421875h32zm0 0" fill="#ffcb5a"/></svg>