<svg height="512pt" viewBox="-48 0 512 512" width="512pt" xmlns="http://www.w3.org/2000/svg"><path d="m416 512h-416v-374.625l137.375-137.375h278.625zm0 0" fill="#d7dee2"/><path d="m176 448h-16c-26.464844 0-48-21.535156-48-48v-41.375l-38.625-38.625 38.625-38.625v-41.375c0-26.464844 21.535156-48 48-48h16v32h-16c-8.816406 0-16 7.183594-16 16v54.625l-25.375 25.375 25.375 25.375v54.625c0 8.816406 7.183594 16 16 16h16zm0 0" fill="#48c8ef"/><path d="m256 448h-16v-32h16c8.816406 0 16-7.183594 16-16v-54.625l25.375-25.375-25.375-25.375v-54.625c0-8.816406-7.183594-16-16-16h-16v-32h16c26.464844 0 48 21.535156 48 48v41.375l38.625 38.625-38.625 38.625v41.375c0 26.464844-21.535156 48-48 48zm0 0" fill="#48c8ef"/><path d="m137.375 137.375v-137.375l-137.375 137.375zm0 0" fill="#bfc9d1"/></svg>