<svg height="512pt" viewBox="-10 0 512 512" width="512pt" xmlns="http://www.w3.org/2000/svg"><path d="m286.910156 0h-135.425781c-14.496094 0-27.183594 9.742188-30.910156 23.761719l-119.472657 448c-5.425781 20.300781 9.886719 40.238281 30.910157 40.238281h78.640625c14.878906 0 27.777344-10.238281 31.167968-24.734375l16.625-71.265625h121.503907l16.625 71.265625c3.375 14.496094 16.285156 24.734375 31.148437 24.734375h78.640625c21.023438 0 36.335938-19.9375 30.914063-40.238281l-119.472656-448c-3.710938-14.019531-16.398438-23.761719-30.894532-23.761719zm-129.984375 320 43.742188-224h37.054687l43.746094 224zm0 0" fill="#48c8ef"/><path d="m491.195312 376c0 75.109375-60.886718 136-136 136-75.109374 0-136-60.890625-136-136s60.890626-136 136-136c75.113282 0 136 60.890625 136 136zm0 0" fill="#ffcb5a"/><path d="m339.195312 422.625-43.3125-43.3125 22.625-22.625 20.6875 20.6875 52.6875-52.6875 22.625 22.625zm0 0" fill="#fff"/></svg>