<svg height="512pt" viewBox="0 0 512 512" width="512pt" xmlns="http://www.w3.org/2000/svg"><path d="m480 512h-448c-17.679688 0-32-14.320312-32-32v-448c0-17.679688 14.320312-32 32-32h448c17.679688 0 32 14.320312 32 32v448c0 17.679688-14.320312 32-32 32zm0 0" fill="#aa854b"/><path d="m352 160v-160h-32v160h-128v-160h-32v160h-160v32h160v128h-160v32h160v160h32v-160h68v-32h-68v-128h128v66.671875h32v-66.671875h160v-32zm0 0" fill="#916e40"/><path d="m450.800781 281.007812-13.953125-24.175781 6.03125-30.433593-69.566406-40.160157-23.359375 20.433594h-27.90625l-23.359375-20.433594-69.535156 40.160157 6 30.417968-13.953125 24.175782-29.199219 9.96875v80.320312l29.199219 9.949219 13.953125 24.175781-6.03125 30.433594 69.566406 40.160156 23.359375-20.433594h27.90625l23.359375 20.433594 69.535156-40.160156-6-30.414063 13.953125-24.179687 29.199219-9.964844v-80.320312zm-114.800781 98.113282c-26.511719 0-48-21.488282-48-48 0-26.511719 21.488281-48 48-48s48 21.488281 48 48c0 26.511718-21.488281 48-48 48zm0 0" fill="#ceed5f"/></svg>