<svg height="512pt" viewBox="0 0 512 512" width="512pt" xmlns="http://www.w3.org/2000/svg"><path d="m256 384c-8.832031 0-16-7.167969-16-16v-224h32v224c0 8.832031-7.167969 16-16 16zm0 0" fill="#62808c"/><g fill="#ffcb5a"><path d="m240 32h32v32h-32zm0 0"/><path d="m304 32h32v32h-32zm0 0"/><path d="m368 32h64v32h-64zm0 0"/><path d="m176 32h32v32h-32zm0 0"/><path d="m80 32h64v32h-64zm0 0"/><path d="m240 448h32v32h-32zm0 0"/><path d="m304 448h32v32h-32zm0 0"/><path d="m368 448h64v32h-64zm0 0"/><path d="m176 448h32v32h-32zm0 0"/><path d="m80 448h64v32h-64zm0 0"/><path d="m32 240h32v32h-32zm0 0"/><path d="m32 176h32v32h-32zm0 0"/><path d="m32 80h32v64h-32zm0 0"/><path d="m32 304h32v32h-32zm0 0"/><path d="m32 368h32v64h-32zm0 0"/><path d="m448 240h32v32h-32zm0 0"/><path d="m448 176h32v32h-32zm0 0"/><path d="m448 80h32v64h-32zm0 0"/><path d="m448 304h32v32h-32zm0 0"/><path d="m448 368h32v64h-32zm0 0"/></g><path d="m361.375 176-16-16h-178.75l-16 16c-6.242188 6.238281-16.386719 6.238281-22.625 0s-6.238281-16.382812 0-22.625l25.375-25.375h205.25l25.375 25.375c6.238281 6.242188 6.238281 16.386719 0 22.625s-16.382812 6.238281-22.625 0zm0 0" fill="#77959e"/><path d="m0 0h96v96h-96zm0 0" fill="#e76e54"/><path d="m0 416h96v96h-96zm0 0" fill="#e76e54"/><path d="m416 0h96v96h-96zm0 0" fill="#e76e54"/><path d="m416 416h96v96h-96zm0 0" fill="#e76e54"/></svg>