<svg height="512pt" viewBox="0 0 512 512" width="512pt" xmlns="http://www.w3.org/2000/svg"><g fill="#badb31"><path d="m237.519531 498.640625-101.808593-33.953125 97.488281-97.488281 67.890625 67.871093zm0 0"/><path d="m288 0h32v32h-32zm0 0"/><path d="m224 0h32v32h-32zm0 0"/><path d="m352 0h32v32h-32zm0 0"/></g><path d="m128 512h-48c-21.375 0-41.457031-8.320312-56.558594-23.425781-15.105468-15.101563-23.441406-35.199219-23.441406-56.574219s8.335938-41.472656 23.441406-56.574219c15.101563-15.105469 35.183594-23.425781 56.558594-23.425781h32c12.816406 0 24.878906-4.992188 33.9375-14.046875 9.054688-9.058594 14.0625-21.121094 14.0625-33.953125s-5.007812-24.878906-14.0625-33.9375c-9.058594-9.070312-21.121094-14.0625-33.9375-14.0625h-16c-25.664062 0-49.742188-9.984375-67.871094-28.113281-18.144531-18.125-28.128906-42.238281-28.128906-67.886719s9.984375-49.761719 28.128906-67.886719c18.128906-18.128906 42.207032-28.113281 67.871094-28.113281h288v32h-288c-17.089844 0-33.167969 6.65625-45.246094 18.734375-12.097656 12.097656-18.753906 28.160156-18.753906 45.265625s6.65625 33.167969 18.753906 45.246094c12.078125 12.097656 28.15625 18.753906 45.246094 18.753906h16c21.375 0 41.457031 8.320312 56.558594 23.425781 15.105468 15.101563 23.441406 35.199219 23.441406 56.574219s-8.335938 41.472656-23.441406 56.574219c-15.101563 15.105469-35.183594 23.425781-56.558594 23.425781h-32c-12.816406 0-24.878906 4.992188-33.9375 14.046875-9.054688 9.058594-14.0625 21.121094-14.0625 33.953125s5.007812 24.878906 14.0625 33.9375c9.058594 9.070312 21.121094 14.0625 33.9375 14.0625h48zm0 0" fill="#ceed5f"/><path d="m278.472656 254.082031 45.253906-45.253906 135.753907 135.75-45.253907 45.253906zm0 0" fill="#0074ff"/><path d="m304 160h-160c-8.832031 0-16-7.167969-16-16s7.167969-16 16-16h160c8.832031 0 16 7.167969 16 16s-7.167969 16-16 16zm0 0" fill="#badb31"/><path d="m512 20.511719-236.207031 236.222656-22.640625 67.890625-53.886719 53.886719 90.511719 90.496093 53.886718-53.886718 67.886719-22.625 100.449219-100.449219zm0 0" fill="#77959e"/><path d="m512 230.351562-139.121094 126.046876-67.871094 22.625-55.054687 50.175781 39.824219 39.808593 53.886718-53.886718 67.886719-22.625 100.449219-100.449219zm0 0" fill="#62808c"/></svg>