<svg height="512pt" viewBox="0 0 512 512" width="512pt" xmlns="http://www.w3.org/2000/svg"><path d="m480 512h-448c-17.679688 0-32-14.320312-32-32v-448c0-17.679688 14.320312-32 32-32h448c17.679688 0 32 14.320312 32 32v448c0 17.679688-14.320312 32-32 32zm0 0" fill="#ecce93"/><g fill="#aa854b"><path d="m416 176h-32v-112c0-8.832031 7.167969-16 16-16s16 7.167969 16 16zm0 0"/><path d="m128 176h-32v-112c0-8.832031 7.167969-16 16-16s16 7.167969 16 16zm0 0"/><path d="m400 464c-8.832031 0-16-7.167969-16-16v-112h32v112c0 8.832031-7.167969 16-16 16zm0 0"/><path d="m112 464c-8.832031 0-16-7.167969-16-16v-112h32v112c0 8.832031-7.167969 16-16 16zm0 0"/><path d="m384 208h32v32h-32zm0 0"/><path d="m96 208h32v32h-32zm0 0"/><path d="m384 272h32v32h-32zm0 0"/><path d="m96 272h32v32h-32zm0 0"/></g></svg>