<svg height="512pt" viewBox="0 0 512 512" width="512pt" xmlns="http://www.w3.org/2000/svg"><path d="m480 512h-448c-17.679688 0-32-14.320312-32-32v-448c0-17.679688 14.320312-32 32-32h448c17.679688 0 32 14.320312 32 32v448c0 17.679688-14.320312 32-32 32zm0 0" fill="#fe9d58"/><g fill="#ffcb5a"><path d="m160 336h32v144h-32zm0 0"/><path d="m160 208h32v32h-32zm0 0"/><path d="m160 48h32v128h-32zm0 0"/><path d="m160 272h32v32h-32zm0 0"/><path d="m320 336h32v144h-32zm0 0"/><path d="m320 208h32v32h-32zm0 0"/><path d="m320 48h32v128h-32zm0 0"/><path d="m320 272h32v32h-32zm0 0"/></g></svg>