<svg height="512pt" viewBox="0 0 512 512" width="512pt" xmlns="http://www.w3.org/2000/svg"><path d="m16 32h480c8.832031 0 16-7.167969 16-16s-7.167969-16-16-16h-480c-8.832031 0-16 7.167969-16 16s7.167969 16 16 16zm0 0" fill="#aa854b"/><g fill="#ffcb5a"><path d="m16 224h400v-32h-400c-8.832031 0-16 7.167969-16 16s7.167969 16 16 16zm0 0"/><path d="m16 320h400v-32h-400c-8.832031 0-16 7.167969-16 16s7.167969 16 16 16zm0 0"/><path d="m511.632812 266.960938c6.238282-93.152344-67.777343-170.960938-159.632812-170.960938h-208c-8.832031 0-16 7.167969-16 16s7.167969 16 16 16h208c73.472656 0 132.703125 62.238281 127.710938 136.769531-4.558594 67.949219-64.125 119.230469-132.238282 119.230469h-244.847656l20.6875-20.6875-22.625-22.625-59.3125 59.3125 59.3125 59.3125 22.625-22.625-20.6875-20.6875h243.710938c85.136718 0 159.601562-64.097656 165.296874-149.039062zm0 0"/></g><path d="m496 480h-480c-8.832031 0-16 7.167969-16 16s7.167969 16 16 16h480c8.832031 0 16-7.167969 16-16s-7.167969-16-16-16zm0 0" fill="#aa854b"/><path d="m0 96h32v32h-32zm0 0" fill="#ffcb5a"/><path d="m64 96h32v32h-32zm0 0" fill="#ffcb5a"/></svg>