<svg id="Capa_1" enable-background="new 0 0 512 512" height="512" viewBox="0 0 512 512" width="512" xmlns="http://www.w3.org/2000/svg"><g><path d="m512 45v220s-164.66 44-252 44-260-44-260-44v-220c0-24.81 20.19-45 45-45h422c24.81 0 45 20.19 45 45z" fill="#27d8f6"/><path d="m467 0h-211v308.97c1.352.02 2.686.03 4 .03 87.34 0 252-44 252-44v-220c0-24.81-20.19-45-45-45z" fill="#3aaaff"/><path d="m392 482h-41.615c-6.575-3.878-19.523-16.782-33.099-59.701-9.135-28.879-13.624-56.408-13.667-56.678-1.168-7.273-7.444-12.621-14.811-12.621h-64.808c-7.366 0-13.642 5.348-14.81 12.621-.044.272-4.469 27.5-13.57 56.368-13.608 43.163-26.602 56.122-33.196 60.01h-42.424c-8.284 0-15 6.716-15 15s6.716 15 15 15h45.851 181.106 45.043c8.284 0 15-6.716 15-15s-6.716-14.999-15-14.999z" fill="#dad0cb"/><path d="m392 482h-41.615c-6.575-3.878-19.523-16.782-33.099-59.701-9.135-28.879-13.624-56.408-13.667-56.678-1.168-7.273-7.444-12.621-14.811-12.621h-32.808v159h90.957 45.043c8.284 0 15-6.716 15-15s-6.716-15-15-15z" fill="#c3b9b4"/><path d="m512 265v73c0 24.81-20.19 45-45 45h-20s-4.26-27-15-27-15 27-15 27h-372c-24.81 0-45-20.19-45-45v-73z" fill="#f5f0eb"/><path d="m512 265v73c0 24.81-20.19 45-45 45h-20s-4.26-27-15-27-15 27-15 27h-161v-118z" fill="#dad0cb"/><path d="m368 183h-224c-8.284 0-15-6.716-15-15s6.716-15 15-15h224c8.284 0 15 6.716 15 15s-6.716 15-15 15z" fill="#ffda2d"/><path d="m368 153h-112v30h112c8.284 0 15-6.716 15-15s-6.716-15-15-15z" fill="#fdbf00"/><path d="m320 119h-128c-8.284 0-15-6.716-15-15s6.716-15 15-15h128c8.284 0 15 6.716 15 15s-6.716 15-15 15z" fill="#ffda2d"/><path d="m320 89h-64v30h64c8.284 0 15-6.716 15-15s-6.716-15-15-15z" fill="#fdbf00"/><path d="m447 344v39h-30v-39c0-8.28 6.72-15 15-15s15 6.72 15 15z" fill="#c3b9b4"/></g></svg>