<svg id="Capa_1" enable-background="new 0 0 512.005 512.005" height="512" viewBox="0 0 512.005 512.005" width="512" xmlns="http://www.w3.org/2000/svg"><g><path d="m338.742 206.845v161.16c.11 39.18-14.44 75.53-40.97 102.28-26.561 26.79-62.78 41.61-101.99 41.72h-16.48c-38.99 0-75.17-14.74-101.9-41.52-26.75-26.82-41.55-63.19-41.66-102.44v-160.4s88-103.64 152-103.64c60.01 0 141.12 91.43 151 102.84z" fill="#b9dd39"/><path d="m195.782 512.005c39.21-.11 75.43-14.93 101.99-41.72 26.53-26.75 41.08-63.1 40.97-102.28v-161.16c-9.88-11.41-90.99-102.84-151-102.84v408z" fill="#90cc1c"/><path d="m312.242 86.135c-16.32-13.56-37.79-21.06-60.46-21.13h-64.04-64.04c-22.67.07-44.14 7.57-60.46 21.13-17.8 14.8-27.56 35.36-27.5 57.87v159h152 152v-159c.06-22.51-9.7-43.07-27.5-57.87z" fill="#f5f0eb"/><path d="m187.742 65.005v238h152v-159c.06-22.51-9.7-43.07-27.5-57.87-16.32-13.56-37.79-21.06-60.46-21.13z" fill="#dad0cb"/><ellipse cx="187.742" cy="184.005" fill="#6c6c6c" rx="47" ry="55"/><path d="m234.742 184.005c0-30.327-21.084-55-47-55v110c25.916 0 47-24.673 47-55z" fill="#404040"/><g fill="#ffda2d"><path d="m385.207 134.777c-5.664 0-11.085-3.224-13.621-8.701-3.481-7.518-.209-16.433 7.309-19.914l50.817-23.529c7.517-3.481 16.433-.208 19.915 7.31 3.48 7.518.208 16.433-7.31 19.914l-50.817 23.528c-2.04.944-4.184 1.392-6.293 1.392z"/><path d="m361.68 83.579c-1.844 0-3.718-.342-5.536-1.065-7.698-3.061-11.458-11.782-8.397-19.48l21.297-53.571c3.059-7.697 11.777-11.459 19.479-8.397 7.698 3.061 11.458 11.782 8.397 19.48l-21.297 53.57c-2.336 5.881-7.978 9.463-13.943 9.463z"/><path d="m461.258 204.25c-1.717 0-3.462-.297-5.168-.923l-52.571-19.296c-7.776-2.854-11.767-11.473-8.912-19.25 2.854-7.777 11.469-11.769 19.25-8.913l52.571 19.296c7.776 2.854 11.767 11.473 8.912 19.25-2.228 6.072-7.97 9.836-14.082 9.836z"/></g></g></svg>