<svg id="Capa_1" enable-background="new 0 0 514 514" height="512" viewBox="0 0 514 514" width="512" xmlns="http://www.w3.org/2000/svg"><g><path d="m481.296 483h-64.296v-130c0-8.284-6.716-15-15-15s-15 6.716-15 15v130h-72.67c-8.284 0-15 6.716-15 15s6.716 15 15 15h166.966c8.284 0 15-6.716 15-15s-6.716-15-15-15z" fill="#ff712f"/><path d="m481.296 513c8.284 0 15-6.716 15-15s-6.716-15-15-15h-64.296v-130c0-8.284-6.716-15-15-15v175z" fill="#ff4c04"/><path d="m497.47 129c0 9.51 16.53 15 16.53 15v33.54l-1 .46s-14.98 8.55-14.98 15 14.98 15 14.98 15 .37-.1 1-.26v34.26s-10.91 4.13-10.91 15 9.89 15 9.89 15c-7.41 54.14-54.35 96-110.98 96-56.12 0-102.65-41.86-109.99-96-.02-.15-.04-.31-.06-.46 2.46-1.35 8.96-5.73 8.96-14.54 0-8.84-7.22-13.23-9.91-14.55v-34.45s14.98-8.55 14.98-15-14.98-15-14.98-15v-34.37c3.58-1.36 15.53-6.54 15.53-14.63s-11.95-13.27-15.53-14.63v-38.37c0-41.35 33.64-75 75-75h73c41.36 0 75 33.65 75 75v38s-16.53 5.49-16.53 15z" fill="#f5f0eb"/><path d="m497.47 129c0 9.51 16.53 15 16.53 15v33.54l-1 .46s-14.98 8.55-14.98 15 14.98 15 14.98 15 .37-.1 1-.26v34.26s-10.91 4.13-10.91 15 9.89 15 9.89 15c-7.41 54.14-54.35 96-110.98 96v-367h37c41.36 0 75 33.65 75 75v38s-16.53 5.49-16.53 15z" fill="#dad0cb"/><path d="m497.47 129c0 5.52 5.56 9.68 10.24 12.21-2.45 1.75-5.46 2.79-8.71 2.79h-193c-3.44 0-6.6-1.16-9.13-3.11 4.54-2.55 9.66-6.6 9.66-11.89 0-8.09-11.95-13.27-15.53-14.63v-38.37c0-41.35 33.64-75 75-75h73c41.36 0 75 33.65 75 75v38s-16.53 5.49-16.53 15z" fill="#dad0cb"/><path d="m497.47 129c0 5.52 5.56 9.68 10.24 12.21-2.45 1.75-5.46 2.79-8.71 2.79h-97v-143h37c41.36 0 75 33.65 75 75v38s-16.53 5.49-16.53 15z" fill="#c3b9b4"/><path d="m361 193c0 8.28-6.72 15-15 15h-55v-30h55c8.28 0 15 6.72 15 15z" fill="#6c6c6c"/><path d="m361 257c0 8.28-6.72 15-15 15h-53.99c-.67-4.91-1.01-9.91-1.01-15v-15h55c8.28 0 15 6.72 15 15z" fill="#6c6c6c"/><path d="m514 242v15c0 5.09-.35 10.09-1.02 15h-54.98c-8.28 0-15-6.72-15-15s6.72-15 15-15z" fill="#404040"/><path d="m514 178v30h-56c-8.28 0-15-6.72-15-15s6.72-15 15-15z" fill="#404040"/><path d="m291 114h223v30h-223z" fill="#6c6c6c"/><path d="m402 114h112v30h-112z" fill="#404040"/><path d="m251.929 214.563-11.929-39.765v-128.798c0-24.813-20.187-45-45-45h-150c-24.813 0-45 20.187-45 45v141c0 24.813 20.187 45 45 45h135.698l26.596 16.623c4.934 3.083 10.439 4.61 15.924 4.61 6.402 0 12.777-2.082 18.176-6.201 10.022-7.648 14.158-20.393 10.535-32.469z" fill="#ffda2d"/><path d="m240 174.798v-128.798c0-24.813-20.187-45-45-45h-73v231h58.698l26.596 16.623c4.934 3.083 10.439 4.61 15.924 4.61 6.402 0 12.777-2.082 18.176-6.201 10.022-7.648 14.158-20.394 10.535-32.47z" fill="#fdbf00"/><path d="m137 138h-32c-8.284 0-15 6.716-15 15s6.716 15 15 15h32c8.284 0 15-6.716 15-15s-6.716-15-15-15z" fill="#6c6c6c"/><path d="m137 138h-15v30h15c8.284 0 15-6.716 15-15s-6.716-15-15-15z" fill="#404040"/><path d="m161 66h-80c-8.284 0-15 6.716-15 15s6.716 15 15 15h80c8.284 0 15-6.716 15-15s-6.716-15-15-15z" fill="#6c6c6c"/><path d="m161 66h-39v30h39c8.284 0 15-6.716 15-15s-6.716-15-15-15z" fill="#404040"/></g></svg>