<svg id="Capa_1" enable-background="new 0 0 512.28 512.28" height="512" viewBox="0 0 512.28 512.28" width="512" xmlns="http://www.w3.org/2000/svg"><g><path d="m512.14 136.28s-95 310.83-95 376h-322c0-65.17-95-376-95-376s42.87-42.4 256-42.4h.32c212.85.04 255.68 42.4 255.68 42.4z" fill="#fdbf00"/><path d="m512.14 136.28s-95 310.83-95 376h-160.68v-418.4c212.85.04 255.68 42.4 255.68 42.4z" fill="#ff9100"/><path d="m223.148 409.876c-4.792 0-9.6-1.152-14.012-3.481-9.867-5.208-15.996-15.374-15.996-26.531v-118.969c0-11.193 6.158-21.374 16.071-26.571 9.915-5.198 21.792-4.468 30.995 1.899l86.523 59.85c8.127 5.622 12.962 14.877 12.934 24.758s-4.917 19.109-13.075 24.684l-86.524 59.119c-5.092 3.48-10.991 5.242-16.916 5.242z" fill="#f5f0eb"/><path d="m326.73 296.073-70.59-48.829v146.406l70.448-48.135c8.158-5.575 13.047-14.803 13.075-24.684s-4.806-19.136-12.933-24.758z" fill="#dad0cb"/><path d="m80.14 121.28h-65c-8.28 0-15 6.72-15 15v331c0 5.26.91 10.31 2.58 15 6.18 17.46 22.87 30 42.42 30h35c8.28 0 15-6.72 15-15v-361c0-8.28-6.72-15-15-15z" fill="#6c6c6c"/><g fill="#404040"><path d="m80.14 121.28h-65c-8.284 0-15 6.716-15 15v72h95v-72c0-8.284-6.716-15-15-15z"/><path d="m.14 280.28h95v72h-95z"/><path d="m.14 424.28v43c0 24.853 20.147 45 45 45h50v-88z"/><path d="m417.14 136.28v361c0 8.28 6.72 15 15 15h35c19.55 0 36.24-12.54 42.42-30 1.67-4.69 2.58-9.74 2.58-15v-331c0-8.28-6.72-15-15-15h-65c-8.28 0-15 6.72-15 15z"/></g><path d="m432.14 121.28h65c8.284 0 15 6.716 15 15v72h-95v-72c0-8.284 6.716-15 15-15z" fill="#262626"/><path d="m417.14 280.28h95v72h-95z" fill="#262626"/><path d="m512.14 424.28v43c0 24.853-20.147 45-45 45h-50v-88z" fill="#262626"/><path d="m512.14 136.28v-34c0-24.813-20.187-45-45-45h-283.689c-4.763 0-9.276-2.286-12.092-6.12l-22.757-32.384c-.044-.063-.089-.126-.134-.188-8.453-11.644-22.076-18.588-36.469-18.588-.03 0-.061 0-.091 0l-66.903.19c-24.739.075-44.865 20.262-44.865 45v91.09z" fill="#ffda2d"/><path d="m467.14 57.28h-211v79h256v-34c0-24.813-20.186-45-45-45z" fill="#fdbf00"/></g></svg>