<svg id="Capa_1" enable-background="new 0 0 512 512" height="512" viewBox="0 0 512 512" width="512" xmlns="http://www.w3.org/2000/svg"><g><path d="m380 49h-248c-41.355 0-75 33.645-75 75v313c0 41.355 33.645 75 75 75h248c41.355 0 75-33.645 75-75v-313c0-41.355-33.645-75-75-75z" fill="#f5f0eb"/><path d="m380 49h-124v463h124c41.355 0 75-33.645 75-75v-313c0-41.355-33.645-75-75-75z" fill="#dad0cb"/><path d="m354 0h-196c-24.813 0-45 20.187-45 45v37c0 24.813 20.187 45 45 45h196c24.813 0 45-20.187 45-45v-37c0-24.813-20.187-45-45-45z" fill="#27d8f6"/><path d="m354 127c24.813 0 45-20.187 45-45v-37c0-24.813-20.187-45-45-45h-98v127z" fill="#3aaaff"/><path d="m376 350.161h-88c-8.284 0-15 6.716-15 15s6.716 15 15 15h88c8.284 0 15-6.716 15-15s-6.716-15-15-15z" fill="#404040"/><path d="m288 262.95h88c8.284 0 15-6.716 15-15s-6.716-15-15-15h-88c-8.284 0-15 6.716-15 15s6.716 15 15 15z" fill="#404040"/><path d="m201.615 212.486c-6.359-5.309-15.818-4.46-21.128 1.899l-25.329 30.332-5.747-11.47c-3.711-7.407-12.723-10.403-20.13-6.691-7.407 3.711-10.402 12.724-6.691 20.13l16 31.934c2.265 4.521 6.656 7.597 11.68 8.181.58.067 1.157.1 1.733.1 4.415 0 8.644-1.951 11.512-5.385l40-47.9c5.308-6.36 4.458-15.82-1.9-21.13z" fill="#90cc1c"/><path d="m184.719 323.694c-6.742-4.814-16.109-3.253-20.925 3.487l-7.794 10.912-7.794-10.912c-4.815-6.741-14.184-8.302-20.925-3.487s-8.302 14.184-3.487 20.925l13.772 19.281-13.772 19.281c-4.815 6.741-3.254 16.109 3.487 20.925 2.643 1.888 5.688 2.795 8.706 2.795 4.68 0 9.291-2.184 12.219-6.282l7.794-10.911 7.794 10.912c2.928 4.099 7.539 6.282 12.219 6.282 3.017 0 6.063-.908 8.706-2.795 6.741-4.815 8.302-14.184 3.487-20.925l-13.772-19.282 13.772-19.281c4.815-6.741 3.254-16.109-3.487-20.925z" fill="#ff4c04"/></g></svg>