<svg id="Capa_1" enable-background="new 0 0 512 512" height="512" viewBox="0 0 512 512" width="512" xmlns="http://www.w3.org/2000/svg"><g><path d="m512 167.919v258.081c0 24.81-20.19 45-45 45h-422c-24.81 0-45-20.19-45-45v-258.081s4.06-87.689 256-87.689 256 87.689 256 87.689z" fill="#f5f0eb"/><path d="m512 167.919v258.081c0 24.81-20.19 45-45 45h-211v-390.77c251.94 0 256 87.689 256 87.689z" fill="#dad0cb"/><path d="m512 86v81.919h-512v-81.919c0-24.81 20.19-45 45-45h422c24.81 0 45 20.19 45 45z" fill="#6c6c6c"/><path d="m467 41h-211v126.919h256v-81.919c0-24.81-20.19-45-45-45z" fill="#404040"/><path d="m433.288 311.929c-.586-10.504-6.467-19.754-15.73-24.742l-60.334-32.488c-9.385-5.054-20.453-4.808-29.606.658-9.154 5.467-14.618 15.096-14.618 25.756v74.258c0 11.195 6.16 21.377 16.077 26.573 4.394 2.302 9.172 3.441 13.933 3.441 5.983 0 11.94-1.8 17.066-5.348l60.335-41.771c8.65-5.987 13.464-15.833 12.877-26.337z" fill="#ff4c04"/><circle cx="80" cy="104.46" fill="#ffda2d" r="15"/><circle cx="144" cy="104.46" fill="#ff712f" r="15"/><circle cx="208" cy="104.46" fill="#90cc1c" r="15"/><g fill="#27d8f6"><path d="m176 271h-96c-8.284 0-15-6.716-15-15s6.716-15 15-15h96c8.284 0 15 6.716 15 15s-6.716 15-15 15z"/><path d="m176 335h-96c-8.284 0-15-6.716-15-15s6.716-15 15-15h96c8.284 0 15 6.716 15 15s-6.716 15-15 15z"/><path d="m176 399h-96c-8.284 0-15-6.716-15-15s6.716-15 15-15h96c8.284 0 15 6.716 15 15s-6.716 15-15 15z"/></g></g></svg>