<svg id="Capa_1" enable-background="new 0 0 512 512" height="512" viewBox="0 0 512 512" width="512" xmlns="http://www.w3.org/2000/svg"><g><path d="m327 110v286s-67.58 58.46-317.9 58.46c-.07-1.15-.1-2.3-.1-3.46v-341c0-24.81 20.19-45 45-45h228c24.81 0 45 20.19 45 45z" fill="#b9dd39"/><path d="m282 65h-114v379.839c121.723-16.595 159-48.839 159-48.839v-286c0-24.81-20.19-45-45-45z" fill="#90cc1c"/><g fill="#f5f0eb"><path d="m148.09 239h-60.09c-8.284 0-15-6.716-15-15s6.716-15 15-15h60.09c8.284 0 15 6.716 15 15s-6.716 15-15 15z"/><path d="m174.12 303h-86.12c-8.284 0-15-6.716-15-15s6.716-15 15-15h86.12c8.284 0 15 6.716 15 15s-6.716 15-15 15z"/><path d="m327 396h-258c-32.979 0-59.298 25.178-59.917 57.321-.007.378 0 .757.021 1.135.865 15.299 7.421 29.669 18.46 40.461 11.267 11.017 25.982 17.083 41.436 17.083h213c24.813 0 45-20.187 45-45z"/></g><path d="m168 512h114c24.813 0 45-20.187 45-45v-71h-159z" fill="#dad0cb"/><circle cx="312" cy="191" fill="#6c6c6c" r="191"/><path d="m503 191c0-105.318-85.683-191-191-191v382c105.317 0 191-85.682 191-191z" fill="#404040"/><path d="m376 199c-8.284 0-15-6.716-15-15 0-27.019-21.981-49-49-49s-49 21.981-49 49c0 8.284-6.716 15-15 15s-15-6.716-15-15c0-43.561 35.439-79 79-79s79 35.439 79 79c0 8.284-6.716 15-15 15z" fill="#f5f0eb"/><path d="m361 184c0 8.284 6.716 15 15 15s15-6.716 15-15c0-43.561-35.439-79-79-79v30c27.019 0 49 21.981 49 49z" fill="#dad0cb"/><path d="m272 169h-32c-25.916 0-47 21.084-47 47s21.084 47 47 47h32c8.284 0 15-6.716 15-15v-64c0-8.284-6.716-15-15-15z" fill="#ffda2d"/><path d="m384 169h-32c-8.284 0-15 6.716-15 15v64c0 8.284 6.716 15 15 15h32c25.916 0 47-21.084 47-47s-21.084-47-47-47z" fill="#fdbf00"/></g></svg>