<svg id="Capa_1" enable-background="new 0 0 512 512" height="512" viewBox="0 0 512 512" width="512" xmlns="http://www.w3.org/2000/svg"><g><path d="m512 167.919v258.081c0 24.81-20.19 45-45 45h-422c-24.81 0-45-20.19-45-45v-258.081s4.06-87.689 256-87.689 256 87.689 256 87.689z" fill="#f5f0eb"/><path d="m512 167.919v258.081c0 24.81-20.19 45-45 45h-211v-390.77c251.94 0 256 87.689 256 87.689z" fill="#dad0cb"/><path d="m512 86v81.919h-512v-81.919c0-24.81 20.19-45 45-45h422c24.81 0 45 20.19 45 45z" fill="#6c6c6c"/><path d="m467 41h-211v126.919h256v-81.919c0-24.81-20.19-45-45-45z" fill="#404040"/><circle cx="80" cy="104.46" fill="#ffda2d" r="15"/><circle cx="144" cy="104.46" fill="#ff712f" r="15"/><circle cx="208" cy="104.46" fill="#90cc1c" r="15"/><path d="m317.213 352 13.394-13.394c5.858-5.858 5.858-15.355 0-21.213-5.857-5.858-15.355-5.858-21.213 0l-13.394 13.394-13.394-13.394c-5.857-5.858-15.355-5.858-21.213 0s-5.858 15.355 0 21.213l13.394 13.394-13.394 13.394c-5.858 5.858-5.858 15.355 0 21.213 2.929 2.929 6.768 4.393 10.607 4.393s7.678-1.464 10.606-4.394l13.394-13.393 13.394 13.394c2.928 2.929 6.767 4.393 10.606 4.393s7.678-1.464 10.606-4.394c5.858-5.858 5.858-15.355 0-21.213z" fill="#ff4c04"/><path d="m152.002 391c-.14 0-.278-.002-.418-.006-5.53-.153-10.526-3.338-13-8.286l-40-80c-3.705-7.41-.702-16.419 6.708-20.125 7.411-3.706 16.42-.701 20.124 6.708l27.466 54.931 50.095-87.665c2.67-4.673 7.64-7.557 13.023-7.557h192c8.284 0 15 6.716 15 15s-6.716 15-15 15h-183.295l-59.682 104.442c-2.674 4.682-7.651 7.558-13.021 7.558z" fill="#27d8f6"/><path d="m408 249h-152v30h152c8.284 0 15-6.716 15-15s-6.716-15-15-15z" fill="#3aaaff"/></g></svg>