<svg id="Capa_1" enable-background="new 0 0 512 512" height="512" viewBox="0 0 512 512" width="512" xmlns="http://www.w3.org/2000/svg"><g><path d="m512 167.919v258.081c0 24.81-20.19 45-45 45h-422c-24.81 0-45-20.19-45-45v-258.081s4.06-87.689 256-87.689 256 87.689 256 87.689z" fill="#f5f0eb"/><path d="m512 167.919v258.081c0 24.81-20.19 45-45 45h-211v-390.77c251.94 0 256 87.689 256 87.689z" fill="#dad0cb"/><path d="m512 86v81.919h-512v-81.919c0-24.81 20.19-45 45-45h422c24.81 0 45 20.19 45 45z" fill="#6c6c6c"/><path d="m467 41h-211v126.919h256v-81.919c0-24.81-20.19-45-45-45z" fill="#404040"/><circle cx="80" cy="104.46" fill="#ffda2d" r="15"/><circle cx="144" cy="104.46" fill="#ff712f" r="15"/><circle cx="208" cy="104.46" fill="#90cc1c" r="15"/><path d="m417.6 259.52-48 40c-2.8 2.34-6.21 3.48-9.59 3.48-4.3 0-8.57-1.84-11.53-5.4-3.11-3.73-4.09-8.52-3.09-12.92l-28.65 9.55c-1.53.51-3.13.77-4.74.77h-70.11l-20.1 46.91c-2.02 4.7-6.28 8.05-11.32 8.89l-90.95 15.15-93.46 100.86c-9.32-4.34-16.92-11.78-21.45-20.99l96.39-104.02c2.26-2.43 5.26-4.05 8.53-4.6l87.91-14.65 20.77-48.46c2.37-5.51 7.79-9.09 13.79-9.09h77.57l22.76-7.59c-2.08-2.57-3.33-5.84-3.33-9.41 0-8.28 6.72-15 15-15h64c6.32 0 11.95 3.96 14.1 9.89 2.15 5.94.35 12.59-4.5 16.63z" fill="#ff712f"/><path d="m408 233h-64c-8.28 0-15 6.72-15 15 0 3.57 1.25 6.84 3.33 9.41l-22.76 7.59h-53.57v30h56c1.61 0 3.21-.26 4.74-.77l28.65-9.55c-1 4.4-.02 9.19 3.09 12.92 2.96 3.56 7.23 5.4 11.53 5.4 3.38 0 6.79-1.14 9.59-3.48l48-40c4.85-4.04 6.65-10.69 4.5-16.63-2.15-5.93-7.78-9.89-14.1-9.89z" fill="#ff4c04"/><path d="m359 352v119h-30v-119c0-8.28 6.72-15 15-15s15 6.72 15 15z" fill="#90cc1c"/><path d="m271 384v87h-30v-87c0-8.28 6.72-15 15-15s15 6.72 15 15z" fill="#b9dd39"/><path d="m271 471v-87c0-8.28-6.72-15-15-15v102z" fill="#90cc1c"/><path d="m183 408v63h-30v-63c0-8.28 6.72-15 15-15s15 6.72 15 15z" fill="#b9dd39"/></g></svg>