<svg id="Capa_1" enable-background="new 0 0 511.967 511.967" height="512" viewBox="0 0 511.967 511.967" width="512" xmlns="http://www.w3.org/2000/svg"><g><path d="m275.38 255.604v.38c0 135.43-67.38 187.59-67.38 187.59l-134.32-62.37c-5.29-2.45-8.68-7.76-8.68-13.6v-216c0-5.68 3.21-10.88 8.29-13.42l134.71-67.35s67.25 49.63 67.38 184.77z" fill="#f5f0eb"/><path d="m275.38 255.604v.38c0 135.43-67.38 187.59-67.38 187.59l-134.32-62.37c-5.29-2.45-8.68-7.76-8.68-13.6v-112z" fill="#dad0cb"/><path d="m65 120.604h-35c-16.542 0-30 13.458-30 30v218c0 16.542 13.458 30 30 30h35c16.542 0 30-13.458 30-30v-218c0-16.542-13.458-30-30-30z" fill="#dad0cb"/><path d="m0 255.604v113c0 16.542 13.458 30 30 30h35c16.542 0 30-13.458 30-30v-113z" fill="#c3b9b4"/><path d="m289.021 478.119c-4.296 0-8.609-.93-12.658-2.81l-68.363-31.735v-9.58-363.16l67.581-33.796c9.191-4.586 19.847-4.203 28.647.988 9.309 5.492 14.772 15.739 14.772 26.548v382.892c0 10.203-4.865 19.941-13.356 25.597-5.037 3.355-10.814 5.056-16.623 5.056z" fill="#27d8f6"/><path d="m208 255.604v178.39 9.58l68.363 31.735c4.049 1.88 8.362 2.81 12.658 2.81 5.809 0 11.585-1.701 16.622-5.056 8.491-5.656 13.356-15.395 13.356-25.597v-191.862z" fill="#3aaaff"/><path d="m371.697 310.608c-1.854 0-3.739-.346-5.566-1.077-7.691-3.077-11.433-11.806-8.355-19.498 13.469-33.673.116-68.56-.021-68.908-3.076-7.692.675-16.396 8.366-19.473 7.692-3.076 16.433.689 19.508 8.381.745 1.861 18.021 46.089 0 91.142-2.346 5.865-7.979 9.433-13.932 9.433z" fill="#ff712f"/><path d="m363.768 255.604c.158 10.591-1.254 22.582-5.993 34.429-3.077 7.692.664 16.421 8.355 19.498 1.827.731 3.712 1.077 5.566 1.077 5.953 0 11.586-3.568 13.932-9.433 6.361-15.903 8.322-31.701 8.166-45.571z" fill="#ff4c04"/><path d="m424.995 334.608c-1.868 0-3.768-.351-5.605-1.093-7.684-3.099-11.399-11.839-8.301-19.522 23.28-57.722.235-116.195 0-116.778-3.099-7.683.617-16.423 8.301-19.522 7.683-3.099 16.423.618 19.521 8.3 1.146 2.842 27.756 70.402 0 139.222-2.357 5.844-7.978 9.393-13.916 9.393z" fill="#ff712f"/><path d="m421.469 255.604c.24 17.878-2.228 38.178-10.38 58.389-3.099 7.683.617 16.423 8.301 19.522 1.838.742 3.737 1.093 5.605 1.093 5.938 0 11.559-3.549 13.916-9.393 9.797-24.292 12.816-48.423 12.577-69.611z" fill="#ff4c04"/><path d="m474.8 366.607c-2.332 0-4.698-.545-6.91-1.696-7.35-3.824-10.207-12.881-6.384-20.23 45.791-88.02.461-177.268-.003-178.159-3.82-7.351-.959-16.407 6.392-20.228 7.35-3.82 16.407-.958 20.228 6.392.554 1.064 13.629 26.51 20.19 64.372 8.73 50.375 1.748 99.294-20.193 141.469-2.673 5.137-7.903 8.08-13.32 8.08z" fill="#ff712f"/><path d="m481.921 255.604c.474 27.279-4.379 58.251-20.416 89.077-3.823 7.349-.966 16.406 6.384 20.23 2.212 1.15 4.578 1.696 6.91 1.696 5.417 0 10.647-2.943 13.319-8.08 16.29-31.311 24.326-66.341 23.817-102.923z" fill="#ff4c04"/></g></svg>