<svg id="Capa_1" enable-background="new 0 0 512 512" height="512" viewBox="0 0 512 512" width="512" xmlns="http://www.w3.org/2000/svg"><g><path d="m426.428 89.12-62.305-65.721c-14.098-14.87-33.936-23.399-54.428-23.399h-199.695c-24.813 0-45 20.187-45 45v422c0 24.813 20.187 45 45 45h292c24.813 0 45-20.187 45-45v-326.279c0-19.283-7.306-37.608-20.572-51.601z" fill="#f5f0eb"/><path d="m364.123 23.399c-14.098-14.87-33.936-23.399-54.428-23.399h-53.695v512h146c24.813 0 45-20.187 45-45v-326.279c0-19.282-7.306-37.607-20.572-51.601z" fill="#dad0cb"/><path d="m458 145h-404c-24.813 0-45 20.187-45 45v180c0 24.813 20.187 45 45 45h404c24.813 0 45-20.187 45-45v-180c0-24.813-20.187-45-45-45z" fill="#6c6c6c"/><path d="m458 145h-202v270h202c24.813 0 45-20.187 45-45v-180c0-24.813-20.187-45-45-45z" fill="#404040"/><path d="m127.741 209h-31.741c-3.986 0-7.809 1.587-10.624 4.41s-4.389 6.651-4.376 10.638c0 0 .01 3.136.023 7.499-.005.152-.023.3-.023.453v105.993c0 8.284 6.716 15 15 15s15-6.716 15-15v-34.596c6.196-.031 12.86-.059 16.741-.059 26.356 0 47.799-21.16 47.799-47.169s-21.443-47.169-47.799-47.169zm0 64.338c-3.869 0-10.445.027-16.602.059-.032-6.386-.06-13.263-.06-17.228 0-3.393-.017-10.494-.035-17.169h16.696c9.648 0 17.799 7.862 17.799 17.169s-8.15 17.169-17.798 17.169z" fill="#ff712f"/><path d="m255.33 209h-31.33c-3.983 0-7.803 1.584-10.617 4.403s-4.391 6.642-4.383 10.625c0 .001.08 42.549.08 55.16 0 15.215.143 55.086.144 55.486.015 3.979 1.609 7.789 4.433 10.592 2.811 2.79 6.609 4.354 10.567 4.354h.057c.947-.004 23.294-.089 32.228-.245 33.894-.592 58.494-30.059 58.494-70.065-.001-42.054-23.981-70.31-59.673-70.31zm.655 110.38c-3.885.068-10.569.123-16.811.163-.042-13.029-.094-31.193-.094-40.354 0-7.72-.03-26.648-.053-40.188h16.303c27.533 0 29.672 30.854 29.672 40.311 0 19.691-8.972 39.718-29.017 40.068z" fill="#ff712f"/><g fill="#ff4c04"><path d="m256 209.017v30.007c26.884.507 29.002 30.91 29.002 40.287 0 19.688-8.968 39.709-29.002 40.068v30.005c.171-.002.347-.005.509-.008 33.894-.592 58.494-30.059 58.494-70.065-.001-41.79-23.684-69.94-59.003-70.294z"/><path d="m410.22 263.35h-27.22v-25.508h30.863c8.284 0 15-6.716 15-15s-6.716-15-15-15h-45.863c-8.284 0-15 6.716-15 15v113.158c0 8.284 6.716 15 15 15s15-6.716 15-15v-42.65h27.22c8.284 0 15-6.716 15-15s-6.716-15-15-15z"/></g></g></svg>