<svg id="Capa_1" enable-background="new 0 0 512 512" height="512" viewBox="0 0 512 512" width="512" xmlns="http://www.w3.org/2000/svg"><g><g><path d="m512 127.419v258.081c0 24.81-20.19 45-45 45h-422c-24.81 0-45-20.19-45-45v-258.081s4.06-87.689 256-87.689 256 87.689 256 87.689z" fill="#f5f0eb"/><path d="m512 127.419v258.081c0 24.81-20.19 45-45 45h-211v-390.77c251.94 0 256 87.689 256 87.689z" fill="#dad0cb"/><path d="m512 45.5v81.919h-512v-81.919c0-24.81 20.19-45 45-45h422c24.81 0 45 20.19 45 45z" fill="#6c6c6c"/><path d="m467 .5h-211v126.919h256v-81.919c0-24.81-20.19-45-45-45z" fill="#404040"/><circle cx="80" cy="63.96" fill="#ffda2d" r="15"/><circle cx="144" cy="63.96" fill="#ff712f" r="15"/><circle cx="208" cy="63.96" fill="#90cc1c" r="15"/></g><path d="m432 304.5h-352c-8.284 0-15 6.716-15 15v96c0 8.284 6.716 15 15 15h352c8.284 0 15-6.716 15-15v-96c0-8.284-6.716-15-15-15z" fill="#ffda2d"/><path d="m432 304.5h-176v126h176c8.284 0 15-6.716 15-15v-96c0-8.284-6.716-15-15-15z" fill="#fdbf00"/><path d="m447 415.5v51c0 24.81-20.19 45-45 45h-292c-24.81 0-45-20.19-45-45v-51c0-8.28 6.72-15 15-15h352c8.28 0 15 6.72 15 15z" fill="#3aaaff"/><path d="m432 400.5h-176v111h146c24.81 0 45-20.19 45-45v-51c0-8.28-6.72-15-15-15z" fill="#0095ff"/><path d="m419.042 257.99-145.966-59.726c-10.988-4.495-23.09-4.497-34.076-.002l-146.035 59.729c-16.988 6.947-27.965 23.297-27.965 41.652v19.857 96 15h382v-15-96-19.861c0-18.351-10.974-34.699-27.958-41.649zm-324.042 142.51v-66h58v66zm88 0v-66h58v66zm88 0v-66h58v66zm88 0v-66h58v66z" fill="#27d8f6"/><path d="m419.042 257.99-145.966-59.726c-5.506-2.252-11.292-3.376-17.076-3.372v235.608h191v-15-96-19.861c0-18.351-10.974-34.699-27.958-41.649zm-90.042 142.51h-58v-66h58zm88 0h-58v-66h58z" fill="#3aaaff"/></g></svg>