<svg id="Capa_1" enable-background="new 0 0 512 512" height="512" viewBox="0 0 512 512" width="512" xmlns="http://www.w3.org/2000/svg"><g><path d="m256 448c-8.284 0-15-6.716-15-15v-65c0-8.284 6.716-15 15-15s15 6.716 15 15v65c0 8.284-6.716 15-15 15z" fill="#404040"/><path d="m271 433v-65c0-8.284-6.716-15-15-15v95c8.284 0 15-6.716 15-15z" fill="#262626"/><path d="m442 65h-372c-24.813 0-45 20.187-45 45v228c0 24.813 20.187 45 45 45h372c24.813 0 45-20.187 45-45v-228c0-24.813-20.187-45-45-45z" fill="#f5f0eb"/><path d="m442 65h-186v318h186c24.813 0 45-20.187 45-45v-228c0-24.813-20.187-45-45-45z" fill="#dad0cb"/><path d="m467 0h-422c-24.813 0-45 20.187-45 45v5c0 24.813 20.187 45 45 45h422c24.813 0 45-20.187 45-45v-5c0-24.813-20.187-45-45-45z" fill="#27d8f6"/><path d="m467 0h-211v95h211c24.813 0 45-20.187 45-45v-5c0-24.813-20.187-45-45-45z" fill="#3aaaff"/><path d="m256 512c-25.916 0-47-21.084-47-47s21.084-47 47-47 47 21.084 47 47-21.084 47-47 47zm0-64c-9.374 0-17 7.626-17 17s7.626 17 17 17 17-7.626 17-17-7.626-17-17-17z" fill="#27d8f6"/><path d="m273 465c0 9.374-7.626 17-17 17v30c25.916 0 47-21.084 47-47s-21.084-47-47-47v30c9.374 0 17 7.626 17 17z" fill="#3aaaff"/><path d="m247 240c0 43.56-35.44 79-79 79s-79-35.44-79-79 35.44-79 79-79l5.15 11.55c11.3 25.33 31.01 45.97 55.8 58.4z" fill="#6c6c6c"/><path d="m247 240c0 43.56-35.44 79-79 79v-158l5.15 11.55c11.3 25.33 31.01 45.97 55.8 58.4z" fill="#404040"/><path d="m247 240c0-43.561-35.439-79-79-79v79z" fill="#90cc1c"/><path d="m413.621 205.688c-10.225-8.182-23.587-12.688-37.621-12.688-30.327 0-55 21.084-55 47v64c0 8.284 6.716 15 15 15h80c8.284 0 15-6.716 15-15v-64c0-12.971-6.335-25.477-17.379-34.312z" fill="#ff712f"/><path d="m416 319c8.284 0 15-6.716 15-15v-64c0-12.971-6.335-25.477-17.379-34.313-10.225-8.181-23.587-12.687-37.621-12.687v126z" fill="#ff4c04"/><circle cx="376" cy="176" fill="#fed2a4" r="47"/><path d="m423 176c0-25.916-21.084-47-47-47v94c25.916 0 47-21.084 47-47z" fill="#ffbd86"/></g></svg>