<svg id="Capa_1" enable-background="new 0 0 512 512" height="512" viewBox="0 0 512 512" width="512" xmlns="http://www.w3.org/2000/svg"><g><path d="m440.5 132.177c0 56.38-71.5 79-71.5 79h-324c-24.81 0-45-20.19-45-45v-68c0-24.81 20.19-45 45-45h324s71.5 22.62 71.5 79z" fill="#f5f0eb"/><path d="m440.5 132.177c0 56.38-71.5 79-71.5 79h-324c-24.81 0-45-20.19-45-45v-34z" fill="#dad0cb"/><path d="m467 53.177h-98v158h98c24.81 0 45-20.19 45-45v-68c0-24.809-20.19-45-45-45z" fill="#b9dd39"/><path d="m369 132.177v79h98c24.81 0 45-20.19 45-45v-34z" fill="#90cc1c"/><path d="m359.99 435.962-54.697-88.937c17.475-14.341 30.312-33.53 36.953-55.667 8.818-29.393 5.662-60.46-8.887-87.479-14.549-27.02-38.748-46.756-68.141-55.573-29.394-8.817-60.461-5.662-87.479 8.887s-46.755 38.748-55.572 68.141c-8.818 29.394-5.662 60.461 8.887 87.479s38.748 46.755 68.141 55.572c10.922 3.276 22.073 4.899 33.164 4.899 16.268 0 32.401-3.499 47.474-10.391l54.604 88.785c2.833 4.605 7.753 7.144 12.792 7.144 2.68 0 5.393-.718 7.844-2.225 7.054-4.339 9.257-13.578 4.917-20.635z" fill="#ffda2d"/><path d="m122.167 225.333c-8.818 29.394-5.662 60.461 8.887 87.479s38.748 46.755 68.141 55.572c10.922 3.276 22.073 4.899 33.164 4.899 16.268 0 32.401-3.499 47.474-10.391l54.604 88.785c2.833 4.605 7.753 7.144 12.792 7.144 2.68 0 5.393-.718 7.844-2.225l-177.334-299.403c-27.018 14.549-46.755 38.748-55.572 68.14z" fill="#fdbf00"/><circle cx="232.207" cy="258.361" fill="#27d8f6" r="84.925"/><path d="m193.034 183.016c-27.181 14.161-45.752 42.576-45.752 75.345 0 46.903 38.022 84.925 84.925 84.925 17.49 0 33.741-5.292 47.25-14.355z" fill="#3aaaff"/></g></svg>