<svg id="Capa_1" enable-background="new 0 0 512 512" height="512" viewBox="0 0 512 512" width="512" xmlns="http://www.w3.org/2000/svg"><g><path d="m440.5 162.005c0 53.43-71.5 79-71.5 79h-324c-24.81 0-45-20.19-45-45v-68c0-24.81 20.19-45 45-45h324s71.5 25.57 71.5 79z" fill="#f5f0eb"/><path d="m440.5 162.005c0 53.43-71.5 79-71.5 79h-324c-24.81 0-45-20.19-45-45v-34z" fill="#dad0cb"/><path d="m467 83.005h-98v158h98c24.853 0 45-20.147 45-45v-68c0-24.852-20.147-45-45-45z" fill="#ff712f"/><path d="m369 162.005v79h98c24.853 0 45-20.147 45-45v-34z" fill="#ff4c04"/><path d="m351.598 369.023-33.118-77.29 5.684-2.436c9.976-4.274 16.88-13.634 18.02-24.426s-3.658-21.387-12.521-27.649l-95.473-67.468c-8.581-6.067-19.473-7.215-29.129-3.077-9.659 4.139-16.338 12.815-17.866 23.212l-17.005 115.664c-1.578 10.736 2.784 21.519 11.384 28.138 8.601 6.618 20.14 8.075 30.112 3.801l5.686-2.436 33.116 77.29c3.152 7.355 9.719 12.957 18.018 15.368 2.947.856 6.031 1.28 9.107 1.28 4.367-.001 8.72-.854 12.647-2.537l44.121-18.905c15.444-6.618 23.329-24.262 17.217-38.529z" fill="#b9dd39"/><path d="m318.479 291.733 5.684-2.436c9.976-4.274 16.88-13.634 18.02-24.426s-3.658-21.387-12.521-27.649l-95.473-67.468c-8.581-6.067-19.473-7.215-29.129-3.077l108.944 249.606 20.376-8.731c15.444-6.618 23.329-24.263 17.217-38.529z" fill="#90cc1c"/></g></svg>