<svg id="Capa_1" enable-background="new 0 0 512 512" height="512" viewBox="0 0 512 512" width="512" xmlns="http://www.w3.org/2000/svg"><g><path d="m289 364.97h-64c-8.284 0-15 6.716-15 15v87.03c0 24.813 20.187 45 45 45h4c24.813 0 45-20.187 45-45v-87.03c0-8.284-6.716-15-15-15z" fill="#27d8f6"/><path d="m289 364.97h-32v147.03h2c24.813 0 45-20.187 45-45v-87.03c0-8.284-6.716-15-15-15z" fill="#3aaaff"/><path d="m381.509 92.109c-8.284 0-15-6.716-15-15v-62.109c0-8.284 6.716-15 15-15s15 6.716 15 15v62.109c0 8.285-6.716 15-15 15z" fill="#fdbf00"/><circle cx="257" cy="256" fill="#ffda2d" r="143"/><path d="m400 256c0-78.851-64.149-143-143-143v286c78.851 0 143-64.149 143-143z" fill="#fdbf00"/><path d="m321 233c-8.284 0-15 6.716-15 15v13.604l-33.2 12.45c-10.188 3.82-21.412 3.82-31.601 0l-33.199-12.45v-13.604c0-8.284-6.716-15-15-15s-15 6.716-15 15v24c0 6.253 3.878 11.85 9.733 14.045l42.932 16.1c3.67 1.376 7.423 2.437 11.218 3.218l.117 46.637v46.21c4.97.53 9.98.79 15 .79s10.03-.26 15-.79v-46.25l-.116-46.551c3.875-.785 7.706-1.86 11.45-3.265l42.933-16.1c5.855-2.194 9.733-7.791 9.733-14.044v-24c0-8.284-6.716-15-15-15z" fill="#fdbf00"/><path d="m321 233c-8.284 0-15 6.716-15 15v13.604l-33.2 12.45c-5.094 1.91-10.447 2.865-15.8 2.865v122.081c5.02 0 10.03-.26 15-.79v-46.25l-.116-46.551c3.875-.785 7.706-1.86 11.45-3.265l42.933-16.1c5.855-2.194 9.733-7.791 9.733-14.044v-24c0-8.284-6.716-15-15-15z" fill="#ff9100"/><path d="m416 0h-119-79.38-121.62c-8.284 0-15 6.716-15 15s6.716 15 15 15h91.62v110c0 14.888 13.035 27 29.056 27h81.268c16.021 0 29.056-12.112 29.056-27v-110h89c8.284 0 15-6.716 15-15s-6.716-15-15-15z" fill="#6c6c6c"/><path d="m416 0h-119-40v167h40.944c16.021 0 29.056-12.112 29.056-27v-110h89c8.284 0 15-6.716 15-15s-6.716-15-15-15z" fill="#404040"/></g></svg>