<svg id="Capa_1" enable-background="new 0 0 512 512" height="512" viewBox="0 0 512 512" width="512" xmlns="http://www.w3.org/2000/svg"><g><path d="m374.295 47.833c-10.075 0-20.012 1.333-29.667 3.971-27.284-33.06-65.559-51.804-106.551-51.804-27.59 0-54.4 8.603-77.532 24.878-19.839 13.958-36.228 32.99-47.794 55.41-55.137 5.854-98.527 56.792-98.527 118.073-.001 65.418 48.961 118.639 109.142 118.639 18.768 0 36.926-5.228 53.062-15.203 19.162 9.972 40.284 15.203 61.649 15.203 25.1 0 49.442-7.078 71.038-20.568 19.474 13.493 41.794 20.568 65.18 20.568 68.088 0 123.482-60.374 123.482-134.583 0-74.21-55.394-134.584-123.482-134.584z" fill="#27d8f6"/><path d="m374.295 47.833c-10.075 0-20.012 1.333-29.667 3.971-23.262-28.186-54.515-45.955-88.628-50.585v314.555c18.708-2.554 36.705-9.092 53.115-19.342 19.474 13.493 41.794 20.568 65.18 20.568 68.088 0 123.482-60.374 123.482-134.583 0-74.21-55.394-134.584-123.482-134.584z" fill="#3aaaff"/><path d="m470.887 389.911c5.645-6.82 6.816-16.023 3.056-24.018-3.742-7.953-11.533-12.893-20.334-12.893h-350.564c-19.723 0-37.634 8.026-50.435 22.602-12.829 14.607-19.61 34.455-19.61 57.398 0 22.927 6.853 42.652 19.819 57.045 12.755 14.158 30.592 21.955 50.226 21.955h347.909c8.53 0 16.219-4.725 20.066-12.331 3.856-7.625 3.102-16.643-1.969-23.534-12.155-16.517-25.445-53.264 1.836-86.224z" fill="#ffda2d"/><path d="m473.942 365.894c-3.741-7.954-11.532-12.894-20.333-12.894h-197.609v159h194.954c8.53 0 16.219-4.725 20.066-12.331 3.856-7.625 3.102-16.643-1.969-23.534-12.154-16.517-25.445-53.264 1.836-86.224 5.645-6.82 6.816-16.023 3.055-24.017z" fill="#fdbf00"/><path d="m362.739 447h-236.054c-8.284 0-15-6.716-15-15s6.716-15 15-15h236.054c8.284 0 15 6.716 15 15s-6.716 15-15 15z" fill="#27d8f6"/><path d="m362.739 417h-106.739v30h106.739c8.284 0 15-6.716 15-15s-6.716-15-15-15z" fill="#3aaaff"/></g></svg>