<svg id="Capa_1" enable-background="new 0 0 512 512" height="512" viewBox="0 0 512 512" width="512" xmlns="http://www.w3.org/2000/svg"><g><path d="m412 81h-104c-41.355 0-75 33.645-75 75v281c0 41.355 33.645 75 75 75h104c41.355 0 75-33.645 75-75v-281c0-41.355-33.645-75-75-75z" fill="#6c6c6c"/><path d="m412 81h-52v431h52c41.355 0 75-33.645 75-75v-281c0-41.355-33.645-75-75-75z" fill="#404040"/><path d="m457 156c0-24.813-20.187-45-45-45h-104c-24.813 0-45 20.187-45 45v197h194z" fill="#27d8f6"/><path d="m412 111h-52v242h97v-197c0-24.813-20.187-45-45-45z" fill="#3aaaff"/><circle cx="360" cy="432" fill="#ffda2d" r="15"/><path d="m375 432c0-8.284-6.716-15-15-15v30c8.284 0 15-6.716 15-15z" fill="#fdbf00"/><path d="m281 0h-73c-15.745 0-29.965 6.649-40 17.288-10.035-10.639-24.255-17.288-40-17.288h-73c-16.542 0-30 13.458-30 30v187c0 16.542 13.458 30 30 30h226c16.542 0 30-13.458 30-30v-187c0-16.542-13.458-30-30-30z" fill="#f5f0eb"/><path d="m168 17.288c-.283-.301-.582-.586-.872-.88v230.592h113.872c16.542 0 30-13.458 30-30v-187c0-16.542-13.458-30-30-30h-73c-15.745 0-29.965 6.649-40 17.288z" fill="#dad0cb"/><path d="m296.516 145.009c-42.051-1.443-98.054 2.498-126.016 29.515-.869.84-1.695 1.699-2.5 2.569-.805-.87-1.631-1.729-2.5-2.569-27.962-27.017-83.965-30.958-126.016-29.515-.12.004-7.357.01-14.484.017v14.974 12.702 44.298c0 16.542 13.458 30 30 30h113 113c16.542 0 30-13.458 30-30v-44.298-12.702-14.975c-7.127-.006-14.365-.012-14.484-.016z" fill="#dad0cb"/><path d="m281 247c16.542 0 30-13.458 30-30v-44.298-12.702-14.975c-7.127-.007-14.365-.013-14.484-.017-42.051-1.443-98.054 2.498-126.016 29.515-.869.84-1.695 1.699-2.5 2.569v69.908z" fill="#c3b9b4"/></g></svg>