<svg id="Capa_1" enable-background="new 0 0 512 512" height="512" viewBox="0 0 512 512" width="512" xmlns="http://www.w3.org/2000/svg"><g><path d="m347.5 0h-184c-41.355 0-75 33.645-75 75v69c0 8.284 6.716 15 15 15h304c8.284 0 15-6.716 15-15v-69c0-41.355-33.645-75-75-75z" fill="#27d8f6"/><path d="m347.5 0h-92v159h152c8.284 0 15-6.716 15-15v-69c0-41.355-33.645-75-75-75z" fill="#3aaaff"/><path d="m436.5 129h-361c-41.355 0-75 33.645-75 75v120c0 41.355 33.645 75 75 75h361c41.355 0 75-33.645 75-75v-120c0-41.355-33.645-75-75-75z" fill="#6c6c6c"/><path d="m436.5 129h-181v270h181c41.355 0 75-33.645 75-75v-120c0-41.355-33.645-75-75-75z" fill="#404040"/><path d="m407.5 289h-304c-8.284 0-15 6.716-15 15v163c0 24.813 20.187 45 45 45h244c24.813 0 45-20.187 45-45v-163c0-8.284-6.716-15-15-15z" fill="#f5f0eb"/><path d="m407.5 289h-152v223h122c24.813 0 45-20.187 45-45v-163c0-8.284-6.716-15-15-15z" fill="#dad0cb"/><path d="m431.5 319h-352c-8.284 0-15-6.716-15-15s6.716-15 15-15h352c8.284 0 15 6.716 15 15s-6.716 15-15 15z" fill="#27d8f6"/><path d="m431.5 289h-176v30h176c8.284 0 15-6.716 15-15s-6.716-15-15-15z" fill="#3aaaff"/><path d="m295.5 417h-80c-8.284 0-15 6.716-15 15s6.716 15 15 15h80c8.284 0 15-6.716 15-15s-6.716-15-15-15z" fill="#ff712f"/><path d="m295.5 417h-40v30h40c8.284 0 15-6.716 15-15s-6.716-15-15-15z" fill="#ff4c04"/><path d="m215.5 383h80c8.284 0 15-6.716 15-15s-6.716-15-15-15h-80c-8.284 0-15 6.716-15 15s6.716 15 15 15z" fill="#ff712f"/><path d="m295.5 353h-40v30h40c8.284 0 15-6.716 15-15s-6.716-15-15-15z" fill="#ff4c04"/><path d="m127.5 193h-48c-8.284 0-15 6.716-15 15s6.716 15 15 15h48c8.284 0 15-6.716 15-15s-6.716-15-15-15z" fill="#27d8f6"/></g></svg>