<svg clip-rule="evenodd" fill-rule="evenodd" height="512" image-rendering="optimizeQuality" shape-rendering="geometricPrecision" text-rendering="geometricPrecision" viewBox="0 0 6773 6773" width="512" xmlns="http://www.w3.org/2000/svg"><g id="Layer_x0020_1"><circle cx="3387" cy="3387" fill="#7ed63f" r="3387"/><path d="m2018 3671c-53 0-107-2-157-18l-20 61 150 157 150-157-19-59c-33 10-68 16-104 16zm2995-480c0-135-92-194-183-194-86 0-205 50-287 189v125c0 286 470 285 470 0zm467 1269h-4187c-41 0-74-33-74-73v-327c0-221 172-400 384-400h101l26-83c-155-142-107-310-122-491-7-97-19-219 60-305 127-139 392-216 570-121 207 110 291 181 189 330-63 92-43 93-50 186-9 141 31 272-124 407l25 77c111 0 205-5 304 60 80-108 206-178 347-178h129l34-108c-168-141-146-292-148-485 0-3 0-6 0-9 17-188-137-234-106-359 17-69 83-125 264-220 208-111 536-8 659 143 109 136 60 319 59 474-3 181 12 315-141 449l37 115h128c141 0 267 70 348 178 99-65 192-60 304-60l24-77c-133-116-128-258-124-420 2-91-17-126-50-173-102-149-18-220 190-330 174-93 459-17 572 124 98 122 53 271 53 406 0 153 7 273-118 387l26 83h101c212 0 384 179 384 400v327c0 40-33 73-74 73zm-1352-534c-31-131-145-237-284-237h-151l-253 266c-28 30-79 30-107 0l-253-266h-151c-170 0-291 153-292 312v76h200c0-50 8-105 73-105 93 0 74 118 74 179v162h805v-267c0-97 148-97 148 0v31h199c0-50 3-102-8-151zm505-212 149 157 150-157-19-61c-78 25-183 26-262 2zm-349 599h1123v-253c0-140-106-253-237-253h-123l-211 222c-28 29-79 29-107 0l-211-222c-90 0-182-12-258 45 31 96 24 199 24 299zm170-1427c20 34 40 55 60 101 132-128 336-184 493-90-47-93-282-171-402-107-104 55-139 83-151 96zm-1964 1427c0-93-10-324 12-418l11-43c-76-57-168-45-257-45l-212 222c-28 30-78 30-106 0l-212-222h-123c-130 0-236 113-236 253v253zm147-88v88h200v-88zm-512-730c61-44 105-101 105-184v-125c-82-139-201-189-287-189-92 0-181 59-183 193-2 123-13 224 101 302 65 45 196 42 264 3zm-182-645c114 0 226 50 316 137 21-46 40-67 61-101-25-27-153-121-262-121-107 0-256 62-291 132 50-30 110-47 176-47zm1269 489c80 41 110 42 197 42 143 0 263-116 263-263v-160c-7-165-128-224-229-224-106 0-252 62-352 232v152c0 93 48 174 121 221zm11 168-28 89 192 202 191-202-29-92c-96 35-229 36-326 3zm-240-893c24 50 58 80 83 144 161-165 426-237 611-95-6-24-15-46-29-64-84-98-331-186-477-108-144 76-179 110-188 123zm1153 1611h-199v88h199z" fill="#fff"/></g></svg>