<svg clip-rule="evenodd" fill-rule="evenodd" height="512" image-rendering="optimizeQuality" shape-rendering="geometricPrecision" text-rendering="geometricPrecision" viewBox="0 0 6773 6773" width="512" xmlns="http://www.w3.org/2000/svg"><g id="Layer_x0020_1"><circle cx="3387" cy="3387" fill="#00ab94" r="3387"/><path d="m4666 4961c-206 0-374-168-374-374s168-373 374-373 373 167 373 373-167 374-373 374zm-1676-631h-510c-37 0-69-29-73-66l-39-349c-52-17-103-38-152-63l-274 219c-30 24-72 21-98-5l-361-361c-26-26-29-68-5-98l219-274c-25-49-46-100-63-153l-349-38c-37-4-66-36-66-73l1-510c0-38 28-69 65-73l349-39c17-52 38-104 63-153l-219-274c-24-29-21-71 5-98l361-360c26-27 68-29 98-6l274 219c49-25 100-46 152-63l39-349c4-37 36-65 73-65h510c38 0 69 28 73 65l39 349c52 17 103 39 153 63l274-219c29-23 71-21 98 6l360 360c27 27 29 69 6 98l-219 274c24 49 46 101 63 153l349 39c37 4 65 35 65 73v510c0 37-28 69-65 73l-349 39c-17 52-39 103-63 152l219 274c23 30 21 72-6 98l-360 361c-27 26-69 29-98 5l-274-219c-49 25-101 46-153 63l-39 349c-4 37-35 66-73 66zm-444-148h378l37-331c9-78 104-60 266-151 27-14 59-12 82 7l260 208 268-267-208-260c-50-62 30-117 81-296 8-28 33-49 63-53l331-36v-378l-331-37c-79-9-61-104-151-266-15-27-12-59 7-82l208-260-268-268-260 208c-62 50-117-30-295-81-29-8-50-33-53-63l-37-331h-378l-37 331c-8 79-103 61-266 151-26 15-58 12-82-7l-260-208-267 268 208 260c50 62-31 117-82 295-8 29-33 50-62 53l-331 37v378l331 37c78 8 60 104 151 266 14 26 12 58-7 82l-208 260 267 267 260-208c62-49 117 31 295 82 29 8 50 33 53 62zm189-602c-422 0-766-344-766-766 0-423 344-767 766-767 423 0 766 344 766 767 0 422-343 766-766 766zm0-1385c-341 0-619 277-619 619 0 341 278 619 619 619 342 0 619-278 619-619 0-342-277-619-619-619zm2075 3280h-288c-38 0-69-28-74-65l-19-177c-18-6-36-14-53-22l-139 112c-29 23-71 21-98-6l-203-204c-27-26-29-68-6-98l111-139c-8-17-15-34-21-52l-177-20c-38-4-66-35-66-73v-288c0-37 29-69 66-73l177-20c6-17 13-35 21-52l-111-139c-23-29-21-72 6-98l203-204c27-26 69-29 98-5l139 111c17-8 35-15 53-22l19-177c5-37 36-65 74-65h288c37 0 69 28 73 65l19 177c18 7 36 14 53 22l139-111c29-24 71-21 98 5l203 204c27 26 29 69 6 98l-111 139c8 17 15 35 22 52l176 20c38 4 66 36 66 73v288c0 38-28 69-66 73l-176 20c-7 18-14 35-22 53l111 138c23 30 21 72-6 99l-203 203c-27 27-69 29-98 6l-139-112c-17 8-35 16-53 22l-19 177c-4 37-36 65-73 65zm-223-147h157c31-280 2-166 184-268 26-15 58-12 82 7l124 99 111-110c-177-221-117-119-59-320 8-29 32-50 62-53l159-18v-156c-281-31-167-2-269-184-14-26-12-59 7-82l100-125-111-110c-220 177-119 116-320 59-28-8-49-33-53-62l-17-159h-157c-31 280-1 167-184 268-26 15-58 12-82-6l-124-100-111 110c177 221 117 120 60 320-9 29-33 50-63 53l-159 18v156c281 32 167 2 269 185 14 26 12 58-7 81l-100 125 111 110c221-176 119-116 320-59 29 8 50 33 53 63zm79-967c-125 0-227 101-227 226s102 227 227 227c124 0 226-102 226-227s-102-226-226-226z" fill="#fff"/></g></svg>