<svg clip-rule="evenodd" fill-rule="evenodd" height="512" image-rendering="optimizeQuality" shape-rendering="geometricPrecision" text-rendering="geometricPrecision" viewBox="0 0 6773 6773" width="512" xmlns="http://www.w3.org/2000/svg"><g id="Layer_x0020_1"><circle cx="3387" cy="3387" fill="#f44c71" r="3387"/><path d="m3620 2256c-65 0-98-79-52-126 296-296 779-296 1075 0 69 69-35 173-104 104-239-239-628-239-867 0-14 15-33 22-52 22zm486 1860c-299 0-584-90-824-256l-398 398 112 111c28 29 28 75 0 104l-1060 1059c-29 29-75 29-104 0l-591-591c-29-29-29-75 0-104l1059-1059c28-28 77-28 105 0l111 111 398-398c-390-564-334-1346 168-1847 565-566 1482-566 2048 0s566 1482 0 2048c-274 273-638 424-1024 424zm-941-347c-62-53-108-100-161-161l-384 385 160 160zm941-2402c-348 0-675 135-920 381-515 515-494 1326-13 1826 494 515 1334 532 1853 14 508-509 508-1332 0-1840-246-246-573-381-920-381zm0 2462c-311 0-602-120-822-340-453-453-453-1190 0-1643 454-454 1189-454 1643 0 453 453 453 1190 0 1643-219 220-511 340-821 340zm0-2176c-271 0-526 106-718 297-395 396-395 1040 0 1435 397 397 1039 397 1435 0 395-395 395-1039 0-1435-192-191-446-297-717-297zm-2709 3236 487 487 495-495-487-487zm1086-112 108-108-487-487-108 108zm212-212 145-144-488-487-144 144zm-795 526c-19 0-38-7-52-21l-144-144c-69-69 35-173 104-104l144 144c46 46 13 125-52 125z" fill="#fff"/></g></svg>