<svg clip-rule="evenodd" fill-rule="evenodd" height="512" image-rendering="optimizeQuality" shape-rendering="geometricPrecision" text-rendering="geometricPrecision" viewBox="0 0 6773 6773" width="512" xmlns="http://www.w3.org/2000/svg"><g id="Layer_x0020_1"><circle cx="3387" cy="3387" fill="#7ed63f" r="3387"/><path d="m5085 4684h-689v796c0 41-33 74-74 74h-2634c-40 0-73-33-73-74v-4187c0-41 33-74 73-74h2634c41 0 74 33 74 74v797h689c41 0 74 33 74 73v2447c0 41-33 74-74 74zm-837 0h-107v228c0 41-33 74-73 74h-2125c-41 0-74-33-74-74v-3051c0-41 33-74 74-74h2125c40 0 73 33 73 74v229h107v-723h-2486v4040h2486zm-1288 0c-40-1-74-34-74-74v-2447c0-40 33-73 74-73h1034v-155h-1978v2904h1978v-155zm-366-3033h-258c-96 0-96-148 0-148h258c97 0 97 148 0 148zm1080 0h-652c-97 0-97-148 0-148h652c97 0 97 148 0 148zm-296 3619h-746c-96 0-96-147 0-147h746c97 0 97 147 0 147zm644-1405c-409 0-743-333-743-743s334-743 743-743c410 0 744 333 744 743s-334 743-744 743zm0-1339c-328 0-596 267-596 596s268 596 596 596c329 0 596-267 596-596s-267-596-596-596zm0 1110c-40 0-73-33-73-74v-440c0-96 147-96 147 0v440c0 41-33 74-74 74zm0-627c-110 0-200-90-200-200 0-111 90-201 200-201 111 0 201 90 201 201 0 110-90 200-201 200zm0-254c-68 0-68 107 0 107 69 0 69-107 0-107zm646 1374h-1291c-96 0-96-147 0-147h1291c96 0 96 147 0 147zm0 265h-1291c-96 0-96-147 0-147h1291c96 0 96 147 0 147zm-1635 142h1978v-2299h-1978z" fill="#fff"/></g></svg>