<svg clip-rule="evenodd" fill-rule="evenodd" height="512" image-rendering="optimizeQuality" shape-rendering="geometricPrecision" text-rendering="geometricPrecision" viewBox="0 0 6773 6773" width="512" xmlns="http://www.w3.org/2000/svg"><g id="Layer_x0020_1"><circle cx="3387" cy="3387" fill="#1d81ce" r="3387"/><path d="m3882 3736h-990c-97 0-97-147 0-147h990c96 0 96 147 0 147zm1385 1818h-3761c-41 0-74-33-74-74v-2461c0-22 9-42 26-57l706-601v-1068c0-41 33-74 73-74h2299c40 0 73 33 73 74v1068l706 601c18 15 26 35 26 58v2460c0 41-33 74-74 74zm-3645-2539 542 423v-884zm1195 934 570 445 1075-840v-2187h-2151v2187zm1792-510 542-424-542-461zm-2946 1968h3447l-1094-1318-584 457-3 2c-26 18-62 18-88-2l-584-457zm3531-131v-2107l-1062 830zm-3003-1630-611-477v2107l1061-1277zm1536-1196h-680c-41 0-74-33-74-74v-680c0-40 33-73 74-73h680c40 0 73 33 73 73v680c0 41-33 74-73 74zm-607-147h533v-533h-533zm1068 559h-1603c-97 0-97-148 0-148h1603c97 0 97 148 0 148zm0 437h-1603c-97 0-97-147 0-147h1603c97 0 97 147 0 147z" fill="#fff"/></g></svg>