<svg clip-rule="evenodd" fill-rule="evenodd" height="512" image-rendering="optimizeQuality" shape-rendering="geometricPrecision" text-rendering="geometricPrecision" viewBox="0 0 6773 6773" width="512" xmlns="http://www.w3.org/2000/svg"><g id="Layer_x0020_1"><circle cx="3387" cy="3387" fill="#00ab94" r="3387"/><path d="m1600 5554c-41 0-74-33-74-74v-233h-233c-97 0-97-147 0-147h233v-3427h-233c-97 0-97-147 0-147h233v-233c0-97 147-97 147 0v233h3427v-233c0-97 147-97 147 0v233h233c97 0 97 147 0 147h-233v3427h233c97 0 97 147 0 147h-233v233c0 97-147 97-147 0v-233h-3427v233c0 41-33 74-73 74zm73-454h545v-545h-545zm692 0h583v-545h-583zm730 0h583v-545h-583zm730 0h583v-545h-583zm730 0h545v-545h-545zm545-692v-583h-545v583zm0-730v-583h-545v583zm0-730v-583h-545v583zm0-730v-545h-545v545zm-692-545h-583v545h583zm-730 0h-583v545h583zm-730 0h-583v545h583zm-730 0h-545v545h545zm-545 692v583h545v-583zm0 730v583h545v-583zm0 730v583h545v-583zm692-1460v583h583v-583zm0 730v583h583v-583zm0 730v583h583v-583zm730-1460v583h583v-583zm0 730v583h583v-583zm0 730v583h583v-583zm730-1460v583h583v-583zm0 730v583h583v-583zm0 730v583h583v-583z" fill="#fff"/></g></svg>