<svg clip-rule="evenodd" fill-rule="evenodd" height="512" image-rendering="optimizeQuality" shape-rendering="geometricPrecision" text-rendering="geometricPrecision" viewBox="0 0 6773 6773" width="512" xmlns="http://www.w3.org/2000/svg"><g id="Layer_x0020_1"><circle cx="3387" cy="3387" fill="#f44c71" r="3387"/><path d="m5064 3582h-1330c-40 0-73-33-73-74v-582c0-40 33-73 73-73h1330c41 0 74 33 74 73v582c0 41-33 74-74 74zm416 1533h-4187c-41 0-74-33-74-74v-3309c0-40 33-73 74-73h4187c41 0 74 33 74 73v3309c0 41-33 74-74 74zm-4113-148h4040v-2283h-4040zm4040-2430v-731h-4040v731zm-3528-135c-127 0-230-104-230-230 0-127 103-231 230-231s230 104 230 231c0 126-103 230-230 230zm0-313c-109 0-109 165 0 165s109-165 0-165zm649 313c-127 0-230-104-230-230 0-127 103-231 230-231s230 104 230 231c0 126-103 230-230 230zm0-313c-109 0-109 165 0 165s109-165 0-165zm648 313c-126 0-230-104-230-230 0-127 104-231 230-231 127 0 231 104 231 231 0 126-104 230-231 230zm0-313c-109 0-109 165 0 165 110 0 110-165 0-165zm1902 2710h-1841c-41 0-74-33-74-76 2-104-9-694 5-730 11-28 38-47 69-47h1842c41 0 73 33 73 74l-1 719c-7 36-37 60-73 60zm-1444-147h1047l-523-201zm1371-34v-492l-642 246zm-324-525h-1047l524 201zm-1370 33v492l641-246zm-543 7h-1073c-97 0-97-147 0-147h1073c97 0 97 147 0 147zm0 313h-1073c-97 0-97-147 0-147h1073c97 0 97 147 0 147zm0 313h-1073c-97 0-97-147 0-147h1073c97 0 97 147 0 147zm271-1177h-1330c-41 0-73-33-73-74v-582c0-40 32-73 73-73h1330c41 0 74 33 74 73v582c0 41-33 74-74 74zm-1256-148h1183v-434h-1183zm2025 0h1183v-434h-1183z" fill="#fff"/></g></svg>