<svg clip-rule="evenodd" fill-rule="evenodd" height="512" image-rendering="optimizeQuality" shape-rendering="geometricPrecision" text-rendering="geometricPrecision" viewBox="0 0 6773 6773" width="512" xmlns="http://www.w3.org/2000/svg"><g id="Layer_x0020_1"><circle cx="3387" cy="3387" fill="#1d81ce" r="3387"/><path d="m4534 4727c-40 0-74-32-74-73v-636c0-41 33-74 74-74h633c42 0 77 34 76 76v634c0 40-33 73-73 73zm946 388h-4187c-41 0-74-33-74-74v-3309c0-40 33-73 74-73h4187c41 0 74 33 74 73v3309c0 41-33 74-74 74zm-4113-148h4040v-2283h-4040zm4040-2430v-731h-4040v731zm-3528-135c-127 0-230-104-230-230 0-127 103-231 230-231s230 104 230 231c0 126-103 230-230 230zm0-313c-109 0-109 165 0 165s109-165 0-165zm649 313c-127 0-230-104-230-230 0-127 103-231 230-231s230 104 230 231c0 126-103 230-230 230zm0-313c-109 0-109 165 0 165s109-165 0-165zm648 313c-126 0-230-104-230-230 0-127 104-231 230-231 127 0 231 104 231 231 0 126-104 230-231 230zm0-313c-108 0-108 165 0 165 109 0 109-165 0-165zm1888 1564h-3355c-41 0-73-33-73-73v-582c0-40 32-73 73-73h3355c41 0 74 33 74 73v582c0 40-33 73-74 73zm-3281-147h3208v-434h-3208zm456 1221h-637c-39-1-72-34-72-73v-636c0-41 33-74 74-74h633c42 0 77 35 76 76v634c0 40-33 73-74 73zm-458-147h385v-384zm281-489h-385v385zm1154 636h-637c-39-1-72-33-72-73v-636c0-41 33-74 73-74h634c42 0 76 34 76 76v634c0 40-33 73-74 73zm-458-147h384v-384zm280-489h-384v385zm1155 636h-638c-39-1-71-33-71-73v-636c0-41 33-74 73-74h634c41 0 76 34 76 76v634c0 40-33 73-74 73zm-458-147h384v-384zm280-489h-384v385zm593 385 384-385h-384zm488-280-384 384h384z" fill="#fff"/></g></svg>