<svg clip-rule="evenodd" fill-rule="evenodd" height="512" image-rendering="optimizeQuality" shape-rendering="geometricPrecision" text-rendering="geometricPrecision" viewBox="0 0 6773 6773" width="512" xmlns="http://www.w3.org/2000/svg"><g id="Layer_x0020_1"><circle cx="3387" cy="3387" fill="#00ab94" r="3387"/><path d="m4358 2822h-935c-97 0-97-148 0-148h935c97 0 97 148 0 148zm-152 1652v-360h-158v360zm147-360v360h456v-360zm530 507h-909c-77 0-73-74-73-114h-295c-96 398-455 695-882 695-500 0-907-407-907-908 0-500 407-907 907-907 427 0 786 297 882 695h295c0-40-4-115 73-115h909c40 0 73 33 73 74v507c0 41-33 73-73 73zm-1254-392v130h272v-130zm-905-695c-419 0-760 341-760 760s341 760 760 760c464 0 802-407 756-837-39-383-363-683-756-683zm2601 2020h-3877c-40 0-73-33-73-74v-3092c0-41 33-74 73-74h898v-1021c0-41 33-74 74-74h2326c41 0 73 33 73 74v1742h506c41 0 74 33 74 74v2371c0 41-33 74-74 74zm-3803-147h3730v-2225h-2103c-27 0-53-15-65-40l-345-681h-1217zm1673-2372h1477v-1668h-2179v947h292c27 0 53 16 65 41zm1163-1308h-1551c-96 0-96-147 0-147h1551c97 0 97 147 0 147zm0 365h-1551c-96 0-96-147 0-147h1551c97 0 97 147 0 147zm0 365h-935c-97 0-97-147 0-147h935c97 0 97 147 0 147z" fill="#fff"/></g></svg>