<svg clip-rule="evenodd" fill-rule="evenodd" height="512" image-rendering="optimizeQuality" shape-rendering="geometricPrecision" text-rendering="geometricPrecision" viewBox="0 0 6773 6773" width="512" xmlns="http://www.w3.org/2000/svg"><g id="Layer_x0020_1"><circle cx="3387" cy="3387" fill="#ff700d" r="3387"/><path d="m3387 4684c-715 0-1297-582-1297-1297s582-1297 1297-1297 1297 582 1297 1297-582 1297-1297 1297zm2093 870h-4187c-42 0-74-34-74-74v-4187c0-39 32-74 74-74h872 2443 872c42 0 74 35 74 74v4187c0 40-32 74-74 74zm-3243-147h2299v-288h-2299zm3170-871v-2299h-288v2299zm0-3169h-723v723h723zm-871 0h-2299v288h2299zm-2446 0h-723v723h723zm-723 870v2299h288v-2299zm3169 2735v-362c0-41 33-74 74-74h361v-2299h-361c-41 0-74-33-74-74v-361h-2299v361c0 41-33 74-74 74h-361v2299h361c41 0 74 33 74 74v362zm148 435h723v-723h-723zm-3317 0h723v-723h-723zm1642-1217c-40 0-74-33-74-74v-1459c0-59 67-94 116-60l1055 729c43 29 43 92 0 121l-1055 729c-13 9-27 14-42 14zm74-1392v1178l852-589zm304-561c-634 0-1150 516-1150 1150s516 1149 1150 1149 1149-515 1149-1149-515-1150-1149-1150z" fill="#fff"/></g></svg>