<svg clip-rule="evenodd" fill-rule="evenodd" height="512" image-rendering="optimizeQuality" shape-rendering="geometricPrecision" text-rendering="geometricPrecision" viewBox="0 0 6773 6773" width="512" xmlns="http://www.w3.org/2000/svg"><g id="Layer_x0020_1"><circle cx="3387" cy="3387" fill="#378b4e" r="3387"/><path d="m4039 4465c-40 0-73-33-73-74 0-146-120-266-266-266-97 0-97-147 0-147 146 0 266-119 266-266 0-96 147-96 147 0 0 147 119 266 265 266 97 0 97 147 0 147-146 0-265 120-265 266 0 41-33 74-74 74zm-2039-1364 964-1225c-139-304 84-657 423-657s561 353 423 657l963 1225h460c41 0 74 33 74 74v2305c0 41-33 74-74 74h-3693c-41 0-74-33-74-74v-2305c0-41 33-74 74-74zm1050-1097-863 1097h2399l-863-1097c-183 193-489 193-673 0zm337-637c-175 0-318 142-318 317s143 317 318 317 317-142 317-317-142-317-317-317zm-1773 4040h3546v-2159h-3546zm3327-145h-994c-51-5-1836 0-2048 0-49 0-141 11-141-74v-1721c0-41 33-74 74-74h3109c41 0 74 33 74 74v1721c0 41-33 74-74 74zm-2918-147h345l208-381-172-315zm513 0h1289l-645-1179zm1537 0h665l-332-607zm795-70v-1505h-2962v1482l433-792c28-51 101-51 129 0l192 351 456-833c28-51 101-51 129 0l704 1287 392-716c28-51 102-51 129 0zm-933-993c41 28 76 63 104 104 28-41 64-76 104-104-40-29-76-64-104-105-28 41-63 76-104 105z" fill="#fff"/></g></svg>