<svg clip-rule="evenodd" fill-rule="evenodd" height="512" image-rendering="optimizeQuality" shape-rendering="geometricPrecision" text-rendering="geometricPrecision" viewBox="0 0 6773 6773" width="512" xmlns="http://www.w3.org/2000/svg"><g id="Layer_x0020_1"><circle cx="3387" cy="3387" fill="#00ab94" r="3387"/><path d="m3625 2054h-1902c-97 0-97-147 0-147h1902c97 0 97 147 0 147zm1611 2849c-30 0-57-18-68-46-30-75-239-582-239-615v-1581h-263v678c0 97-147 97-147 0v-751c0-41 33-74 73-74h337v-335c0-411 625-411 625 0v2063c0 34-219 541-250 616-11 27-38 45-68 45zm-147-644 149 375 155-375zm318-147v-1451h-331v1451zm0-1598v-335c0-216-331-216-331 0v335zm-1090 2822h-2762c-41 0-74-33-74-74v-188h-188c-41 0-74-33-74-74v-3489c0-40 33-73 74-73h2745c40 0 73 32 74 73v188h205c41 0 73 33 73 74v3489c0 41-32 74-73 74zm-2689-148h2615v-3342h-114v3154c0 42-33 74-74 74h-2427zm-261-261h2614l-16-3342h-2598zm2258-1597h-1902c-97 0-97-148 0-148h1902c97 0 97 148 0 148zm0 424h-1902c-97 0-97-147 0-147h1902c97 0 97 147 0 147zm0 426h-1902c-97 0-97-148 0-148h1902c97 0 97 148 0 148zm0 425h-1902c-97 0-97-148 0-148h1902c97 0 97 148 0 148zm0-1701h-1902c-97 0-97-147 0-147h1902c97 0 97 147 0 147zm0-424h-1902c-97 0-97-148 0-148h1902c97 0 97 148 0 148z" fill="#fff"/></g></svg>