<svg clip-rule="evenodd" fill-rule="evenodd" height="512" image-rendering="optimizeQuality" shape-rendering="geometricPrecision" text-rendering="geometricPrecision" viewBox="0 0 6773 6773" width="512" xmlns="http://www.w3.org/2000/svg"><g id="Layer_x0020_1"><circle cx="3387" cy="3387" fill="#f44c71" r="3387"/><path d="m3246 5087c-148 0-297-19-443-59-94-25-56-167 38-142 826 223 1679-268 1901-1098 25-93 168-55 143 39-201 746-878 1260-1639 1260zm-3 323c-1116 0-2024-908-2024-2023 0-1116 908-2024 2024-2024 526 0 1019 199 1398 561l395-396c29-29 76-29 104 0l392 392c29 29 29 75 0 104l-472 472c653 1332-315 2914-1817 2914zm1451-3331-860 860c-35 28-75 30-104 0l-430-430-288 288 770 770 1594-1595-288-288zm-1451-569c-1035 0-1876 842-1876 1877 0 1034 841 1876 1876 1876 1370 0 2270-1423 1707-2656l-1116 1116c-29 29-76 28-104 0-82-82-881-873-885-889-4-13-28-50 11-89l392-392c27-28 76-28 104 0l430 430 754-755c-350-334-806-518-1293-518zm-1571 1529c-48 0-84-45-71-92 243-908 1174-1445 2082-1202 93 25 55 167-38 142-829-222-1680 269-1902 1098-9 33-38 54-71 54z" fill="#fff"/></g></svg>