<svg clip-rule="evenodd" fill-rule="evenodd" height="512" image-rendering="optimizeQuality" shape-rendering="geometricPrecision" text-rendering="geometricPrecision" viewBox="0 0 6773 6773" width="512" xmlns="http://www.w3.org/2000/svg"><g id="Layer_x0020_1"><circle cx="3387" cy="3387" fill="#f10" r="3387"/><path d="m4073 4246h-317c-40 0-73-33-73-74v-628l-935 785c-48 40-121 6-121-57v-1771c0-62 73-96 121-56l935 784v-628c0-41 33-74 73-74h317c41 0 73 33 73 74v1571c0 41-32 74-73 74zm-686 1308c-1195 0-2168-972-2168-2167s973-2168 2168-2168 2167 973 2167 2168-972 2167-2167 2167zm0-4187c-1114 0-2020 906-2020 2020 0 1113 906 2020 2020 2020 1113 0 2020-907 2020-2020 0-1114-906-2020-2020-2020zm0 3818c-992 0-1798-807-1798-1798 0-97 147-97 147 0 0 910 740 1650 1651 1650 97 0 97 148 0 148zm1724-1725c-41 0-74-33-74-73 0-911-740-1651-1650-1651-97 0-97-147 0-147 991 0 1798 806 1798 1798 0 40-33 73-74 73zm-2337-801v1455l868-727zm1056 1440h169v-1425h-169z" fill="#fff"/></g></svg>