<svg clip-rule="evenodd" fill-rule="evenodd" height="512" image-rendering="optimizeQuality" shape-rendering="geometricPrecision" text-rendering="geometricPrecision" viewBox="0 0 6773 6773" width="512" xmlns="http://www.w3.org/2000/svg"><g id="Layer_x0020_1"><circle cx="3387" cy="3387" fill="#7ed63f" r="3387"/><path d="m4668 4736h-2562c-97 0-97-147 0-147h2562c97 0 97 147 0 147zm812 818h-4187c-41 0-74-33-74-74v-4187c0-41 33-74 74-74h4187c41 0 74 33 74 74v4187c0 41-33 74-74 74zm-4113-147h4040v-4040h-4040zm3803-163h-3567c-40 0-73-33-73-74v-3567c0-40 33-73 73-73h3567c41 0 74 33 74 73v3567c0 41-33 74-74 74zm-3493-147h3420v-3420h-3420zm2553-2913h-1686c-97 0-97-147 0-147h1686c97 0 97 147 0 147zm438 511h-2562c-97 0-97-148 0-148h2562c97 0 97 148 0 148zm-438 510h-1686c-97 0-97-147 0-147h1686c97 0 97 147 0 147zm438 510h-2562c-97 0-97-147 0-147h2562c97 0 97 147 0 147zm-438 511h-1686c-97 0-97-147 0-147h1686c97 0 97 147 0 147z" fill="#fff"/></g></svg>