<svg clip-rule="evenodd" fill-rule="evenodd" height="512" image-rendering="optimizeQuality" shape-rendering="geometricPrecision" text-rendering="geometricPrecision" viewBox="0 0 6773 6773" width="512" xmlns="http://www.w3.org/2000/svg"><g id="Layer_x0020_1"><circle cx="3387" cy="3387" fill="#00ab94" r="3387"/><path d="m3365 4091c-263 0-508-141-639-368-285-493 77-1106 638-1106 482 0 838 458 712 928-86 324-379 546-711 546zm0 311c-373 0-721-201-907-524-405-701 109-1571 906-1571 684 0 1191 650 1012 1318-53 198-160 372-308 505l117 203c33-19 102-68 143 2l212 368 221 105 252-239-316-395c-19-24-21-56-7-82 56-100 99-205 130-314 9-29 33-50 63-53l505-56v-602l-505-56c-30-3-54-24-63-53-31-109-74-214-130-314-14-26-12-58 7-81l318-397-426-426-397 318c-23 18-55 21-82 6-99-55-205-99-313-130-29-8-50-33-53-62l-56-505h-602l-56 505c-4 29-25 54-53 62-109 31-215 75-314 130-26 15-59 12-82-6l-397-318-425 426 317 397c19 23 22 55 7 81-55 100-99 205-130 314-8 29-33 50-63 53l-505 56v602l505 56c30 3 55 24 63 53 31 109 75 215 130 314 15 26 12 58-7 82l-317 396 425 426 397-317c23-19 56-22 82-7 99 55 205 99 314 130 28 8 49 33 53 63l56 505h602l56-505c4-36 27-55 58-65-46-80-125-174-43-221l43-25-117-203c-103 34-211 51-320 51zm586-180-128 74 106 185 128-74zm-587-1768c-685 0-1127 748-779 1350 287 497 923 582 1345 251 340-268 437-764 214-1151-160-277-459-450-780-450zm916 3100c-25 0-50-13-64-37l-333-577-56 511c-5 38-36 66-74 66h-733c-38 0-69-28-73-66l-58-522c-87-28-172-63-254-105l-410 328c-29 24-72 21-98-5l-519-519c-26-26-29-69-5-98l328-410c-42-82-77-167-105-254l-522-58c-38-4-66-36-66-73v-734c0-37 28-69 66-73l522-58c28-87 63-172 105-253l-328-411c-24-29-21-71 5-98l519-519c26-26 68-28 98-5l410 328c82-42 167-77 254-105l58-522c4-37 35-66 73-66h733c38 0 69 29 74 66l58 522c87 28 172 63 253 105l411-328c29-23 71-21 98 5l518 519c27 27 29 69 6 98l-329 410c43 82 78 167 106 254l522 58c37 4 65 36 65 73v734c0 37-28 69-65 73l-522 58c-28 87-63 172-106 254l329 410c24 30 21 73-7 99l-339 320c-46 44-98 5-156-22l142 247c21 35 9 80-26 100l-468 270c-12 7-24 10-37 10zm-383-885 89 154 340-196-89-154zm162 282 248 429 340-197-247-428zm-695-2186c-449 0-738 489-510 884 263 456 946 360 1080-142 101-376-185-742-570-742z" fill="#fff"/></g></svg>