<svg clip-rule="evenodd" fill-rule="evenodd" height="512" image-rendering="optimizeQuality" shape-rendering="geometricPrecision" text-rendering="geometricPrecision" viewBox="0 0 6773 6773" width="512" xmlns="http://www.w3.org/2000/svg"><g id="Layer_x0020_1"><circle cx="3387" cy="3387" fill="#1d81ce" r="3387"/><path d="m1726 4588c-41 0-74-33-74-74v-1054h-285v1434h2582v-1434h-1561v1054c0 72-93 101-134 43l-237-341-230 340c-14 20-37 32-61 32zm-359 453v306h2582v-306zm4040-2034h-2583v306h2583zm-2583-147h2583v-1434h-286v1054c0 73-94 102-134 42l-230-340-238 341c-41 58-134 29-134-43v-1054h-1561zm2656 600h-1383v1961c0 40-33 73-74 73h-2730c-41 0-74-33-74-73v-2034c0-41 33-74 74-74h1384v-1960c0-41 33-74 73-74h2730c41 0 74 33 74 74v2034c0 40-33 73-74 73zm-948-2034v820l165-236c29-42 92-42 122 1l155 229v-814zm-2516 2587c24 0 46 11 60 31l165 236v-820h-442v814l156-229c13-20 36-32 61-32z" fill="#fff"/></g></svg>