<svg clip-rule="evenodd" fill-rule="evenodd" height="512" image-rendering="optimizeQuality" shape-rendering="geometricPrecision" text-rendering="geometricPrecision" viewBox="0 0 6773 6773" width="512" xmlns="http://www.w3.org/2000/svg"><g id="Layer_x0020_1"><circle cx="3387" cy="3387" fill="#378b4e" r="3387"/><path d="m3862 3460h-402v402c0 97-147 97-147 0v-402h-402c-97 0-97-147 0-147h402v-402c0-97 147-97 147 0v402h402c97 0 97 147 0 147zm-475 2094c-8 0-17-2-24-4-874-304-1492-1040-1790-2131-223-817-190-1533-188-1563 2-46 45-78 90-68 831 191 1735-449 1866-553 27-21 65-21 91 0 132 105 1035 743 1867 553 44-10 87 22 90 68 1 30 35 746-188 1563-298 1091-917 1827-1790 2131-8 2-16 4-24 4zm-1857-3605c-2 213 12 800 186 1435 286 1044 848 1723 1671 2018 823-295 1385-974 1671-2018 174-635 187-1222 186-1435-788 132-1585-365-1857-564-272 199-1069 696-1857 564zm1857 3038c-8 0-16-1-24-4-644-223-1100-765-1319-1568-163-599-139-1124-138-1146 3-46 46-78 90-68 642 148 1338-394 1345-399 27-21 64-21 91 0 7 5 704 546 1345 399 94-22 127 122 33 143-618 143-1250-268-1423-393-210 151-771 493-1335 410 1 394 83 2040 1359 2483 78 27 58 143-24 143z" fill="#fff"/></g></svg>