<svg clip-rule="evenodd" fill-rule="evenodd" height="512" image-rendering="optimizeQuality" shape-rendering="geometricPrecision" text-rendering="geometricPrecision" viewBox="0 0 6773 6773" width="512" xmlns="http://www.w3.org/2000/svg"><g id="Layer_x0020_1"><circle cx="3387" cy="3387" fill="#ff700d" r="3387"/><path d="m4302 2365h-996c-97 0-97-147 0-147h996c97 0 97 147 0 147zm773 3189h-3084c-41 0-74-33-74-74v-218h-218c-41 0-74-33-74-74v-2725c0-21 7-40 23-55l1167-1167c14-14 32-22 52-22h1916c40 0 73 33 73 74v218h219c40 0 73 33 73 74v3895c0 41-33 74-73 74zm-3011-147h2937v-3748h-145v3529 6 4l-3 10v2l-3 7v2l-1 1-1 2-1 1-1 2-2 4-1 2-1 1-5 6c-14 15-33 24-54 24h-2719zm-292-2872v2580h2937v-3748h-1769v1094c1 41-32 74-73 74zm2530 779h-2123c-97 0-97-147 0-147h2123c97 0 97 147 0 147zm0 475h-2123c-97 0-97-147 0-147h2123c97 0 97 147 0 147zm0 474h-2123c-97 0-97-147 0-147h2123c97 0 97 147 0 147zm0 475h-2123c-97 0-97-148 0-148h2123c97 0 97 148 0 148zm0-1898h-2123c-97 0-97-147 0-147h2123c97 0 97 147 0 147zm0-949h-996c-97 0-97-147 0-147h996c97 0 97 147 0 147zm-2425 497h916v-917z" fill="#fff"/></g></svg>