<svg clip-rule="evenodd" fill-rule="evenodd" height="512" image-rendering="optimizeQuality" shape-rendering="geometricPrecision" text-rendering="geometricPrecision" viewBox="0 0 6773 6773" width="512" xmlns="http://www.w3.org/2000/svg"><g id="Layer_x0020_1"><circle cx="3387" cy="3387" fill="#378b4e" r="3387"/><path d="m4130 3620c-19 0-38-7-52-21l-316-316-479 479 316 316c28 28 28 75 0 104l-1351 1350c-29 29-75 29-104 0l-903-903c-28-28-28-75 0-104l1351-1350c28-29 75-29 104 0l315 315 479-479-316-315c-28-29-28-76 0-104l1351-1351c29-29 76-29 104 0l903 903c29 28 29 76 0 104l-1350 1351c-15 14-34 21-52 21zm-53-860-63-64-1318 1318 64 63zm-211 419 264 264 1246-1247-799-799-1246 1247 263 263 115-114c-61-61-165-133-97-201l913-914c29-29 76-29 104 0l466 466c29 28 29 76 0 104l-913 914c-29 28-76 28-104 0l-97-97zm219-218 45 45 809-810-362-362-809 810 45 45 140-140c32-32 78-44 113-9 250 250 249 190 19 421zm-1378 1273c-43-36-125-126-167-168-29-29-29-76 0-104l149-149-45-45-810 809 362 362 810-809-45-45c-30 29-124 132-161 158-28 20-67 12-93-9zm-1310 343 799 799 1247-1246-264-264-114 114c61 61 165 134 97 202l-914 913c-28 29-76 29-104 0l-466-466c-28-28-28-75 0-104l914-913c67-68 140 36 201 97l114-115-263-263z" fill="#fff"/></g></svg>