<svg clip-rule="evenodd" fill-rule="evenodd" height="512" image-rendering="optimizeQuality" shape-rendering="geometricPrecision" text-rendering="geometricPrecision" viewBox="0 0 6773 6773" width="512" xmlns="http://www.w3.org/2000/svg"><g id="Layer_x0020_1"><circle cx="3387" cy="3387" fill="#f44c71" r="3387"/><path d="m5110 5554h-3447c-41 0-74-33-74-74v-807c0-486 377-881 839-881h329l107-336c-196-142-324-373-324-632l1-367c41-421-277-528-225-737 29-117 163-225 512-410 398-211 997-24 1276 277 207 223 106 637 109 936v301c0 252-121 477-308 619l111 349h329c463 0 839 395 839 881v807c0 41-33 74-74 74zm-73-311h-491v164h491zm-491-147h491v-423c0-404-311-733-692-733h-351l-554 582c-28 29-79 29-107 0l-554-582h-351c-381 0-692 329-692 733v423h492v-152c0-97 147-97 147 0v463h2023v-463c0-97 148-97 148 0zm-2318 147h-492v164h492zm755-1884c5 2 9 4 12 7 132 89 283 90 438 90 344 0 632-280 632-632v-336c-15-333-234-548-561-548-247 0-590 144-817 545v339c0 225 119 423 296 535zm11 173-100 315 493 517 492-517-103-324c-167 83-281 80-456 80-116 0-227-25-326-71zm227-2165c-123 0-232 24-324 73-103 55-415 220-438 315-18 73 168 202 219 480 217-277 519-442 826-442 255 0 461 109 584 291 6-153-7-292-93-399-172-184-497-318-774-318z" fill="#fff"/></g></svg>