<svg height="682.66668pt" viewBox="-21 -21 682.66668 682.66668" width="682.66668pt" xmlns="http://www.w3.org/2000/svg"><path d="m370.40625 534.265625h-105.054688v-37.636719h67.554688v-60.804687h37.5zm0 0" fill="#ffaa20"/><path d="m246.601562 421.179688h-93.574218v218.820312h131.074218v-218.820312zm0 0" fill="#4b5be6"/><path d="m128.140625 207.636719v185.523437h-35.714844c-50.960937 0-92.425781-41.617187-92.425781-92.765625v-.375c.199219-50.972656 41.585938-92.382812 92.425781-92.382812zm0 0" fill="#ffdb2d"/><path d="m544.1875 32.113281v533.65625h-36.101562l-5.539063-5.761719c-57.660156-60.078124-113.308594-89.785156-149.824219-104.125-39.558594-15.515624-65.871094-16.882812-66.136718-16.898437l-18.035157-.6875.070313-18.117187v-257.703126l18.054687-.679687c.183594-.007813 26.921875-1.40625 67-17.273437 37.023438-14.664063 93.359375-45.050782 151.5625-106.550782l5.546875-5.859375zm0 0" fill="#e1e1e3"/><path d="m506.6875 0h133.3125v597.886719h-133.3125zm0 0" fill="#97a1f0"/><path d="m99.160156 161.789062h188.964844v277.210938h-188.964844zm0 0" fill="#97a1f0"/><path d="m0 300.019531h128.140625v93.140625h-35.714844c-50.960937 0-92.425781-41.617187-92.425781-92.765625zm0 0" fill="#ffaa20"/><path d="m544.1875 300.019531v265.746094h-36.101562l-5.539063-5.757813c-57.660156-60.078124-113.308594-89.785156-149.824219-104.125-39.558594-15.515624-65.871094-16.882812-66.136718-16.898437l-18.035157-.6875.070313-18.117187v-120.160157zm0 0" fill="#d9d9db"/><g fill="#4b5be6"><path d="m99.160156 300.019531h188.964844v138.980469h-188.964844zm0 0"/><path d="m506.6875 300.019531h133.3125v297.867188h-133.3125zm0 0"/></g></svg>