<svg height="682pt" viewBox="-90 -21 682 682.66669" width="682pt" xmlns="http://www.w3.org/2000/svg"><path d="m-4.25 0h502.476562v640h-502.476562zm0 0" fill="#97a1f0"/><path d="m246.984375 0h251.242187v640h-251.242187zm0 0" fill="#4b5be6"/><path d="m338.148438 482.671875v157.328125l160.085937-157.328125zm0 0" fill="#97a1f0"/><path d="m78.234375 82.5h337.5v173.339844h-337.5zm0 0" fill="#fff"/><g fill="#e1e1e3"><path d="m80.945312 301.25h143.539063v37.5h-143.539063zm0 0"/><path d="m80.945312 375h143.539063v37.5h-143.539063zm0 0"/><path d="m80.945312 448.75h143.539063v37.5h-143.539063zm0 0"/><path d="m80.945312 522.5h143.539063v37.5h-143.539063zm0 0"/></g><path d="m270.546875 301.25h143.539063v37.5h-143.539063zm0 0" fill="#d9d9db"/><path d="m270.546875 375h143.539063v37.5h-143.539063zm0 0" fill="#d9d9db"/><path d="m246.984375 82.5h168.75v173.339844h-168.75zm0 0" fill="#e1e1e3"/></svg>