<svg height="682pt" viewBox="-21 -50 682.66669 682" width="682pt" xmlns="http://www.w3.org/2000/svg"><path d="m0-1.582031h640v485.382812h-640zm0 0" fill="#97a1f0"/><path d="m320-1.582031h320v485.382812h-320zm0 0" fill="#4b5be6"/><path d="m640 483.800781h-247.324219l14.648438 60.105469h35.675781v37.5h-246v-37.5h35.675781l14.648438-60.105469h-247.324219v-114.246093h640zm0 0" fill="#e1e1e3"/><path d="m640 483.800781h-247.324219l14.648438 60.105469h35.675781v37.5h-123v-211.851562h320zm0 0" fill="#d9d9db"/><path d="m535 369.554688h105v114.246093h-105zm0 0" fill="#e67500"/><g fill="#ffdb2d"><path d="m199.328125 83.378906h241.34375v37.5h-241.34375zm0 0"/><path d="m199.328125 157.328125h241.34375v37.5h-241.34375zm0 0"/><path d="m199.328125 231.292969h241.34375v37.5h-241.34375zm0 0"/></g><path d="m320 83.378906h120.671875v37.5h-120.671875zm0 0" fill="#ffaa20"/><path d="m320 157.328125h120.671875v37.5h-120.671875zm0 0" fill="#ffaa20"/><path d="m320 231.292969h120.671875v37.5h-120.671875zm0 0" fill="#ffaa20"/></svg>