<svg height="682pt" viewBox="-139 -21 682 682.66669" width="682pt" xmlns="http://www.w3.org/2000/svg"><path d="m-7.5 0h404.976562v640h-404.976562zm0 0" fill="#e1e1e3"/><path d="m194.984375 0h202.492187v640h-202.492187zm0 0" fill="#d9d9db"/><path d="m-7.5 512.101562h404.976562v127.898438h-404.976562zm0 0" fill="#72fcba"/><path d="m194.984375 512.101562h202.492187v127.898438h-202.492187zm0 0" fill="#33e58c"/><path d="m-7.5 0h404.976562v108.988281h-404.976562zm0 0" fill="#72fcba"/><path d="m176.449219 566.875h37.078125v37.089844h-37.078125zm0 0" fill="#fff"/><g fill="#97a1f0"><path d="m83.109375 214.160156h223.75v37.5h-223.75zm0 0"/><path d="m83.109375 292.714844h223.75v37.5h-223.75zm0 0"/><path d="m83.109375 371.25h223.75v37.5h-223.75zm0 0"/></g><path d="m194.984375 566.875h18.542969v37.089844h-18.542969zm0 0" fill="#e1e1e3"/><path d="m194.984375 214.160156h111.875v37.5h-111.875zm0 0" fill="#4b5be6"/><path d="m194.984375 292.714844h111.875v37.5h-111.875zm0 0" fill="#4b5be6"/><path d="m194.984375 371.25h111.875v37.5h-111.875zm0 0" fill="#4b5be6"/><path d="m194.984375 0h202.492187v108.988281h-202.492187zm0 0" fill="#33e58c"/></svg>