<svg height="682pt" viewBox="-21 -52 682.66669 682" width="682pt" xmlns="http://www.w3.org/2000/svg"><path d="m0-1.75h640v578.339844h-640zm0 0" fill="#e1e1e3"/><path d="m320-1.75h320v578.339844h-320zm0 0" fill="#d9d9db"/><path d="m0 439.5h640v137.089844h-640zm0 0" fill="#97a1f0"/><path d="m0 439.5h113.183594v137.085938h-113.183594zm0 0" fill="#ffdb2d"/><path d="m449.328125 213.636719-129.328125 74.664062-110.578125 63.835938v-276.996094l110.578125 63.832031zm0 0" fill="#ff9a00"/><path d="m449.328125 213.636719-129.328125 74.664062v-149.328125zm0 0" fill="#e67500"/><path d="m320 439.5h320v137.089844h-320zm0 0" fill="#4b5be6"/><path d="m491.1875 370.6875c-37.945312 0-68.820312 30.867188-68.820312 68.8125s30.875 68.8125 68.820312 68.8125 68.8125-30.867188 68.8125-68.8125-30.867188-68.8125-68.8125-68.8125zm0 0" fill="#e67500"/></svg>