<svg height="682pt" viewBox="-125 -21 682 682.66669" width="682pt" xmlns="http://www.w3.org/2000/svg"><path d="m-6.667969 74.414062h431.226563v565.585938h-431.226563zm0 0" fill="#e1e1e3"/><path d="m208.945312 74.414062h215.613282v565.585938h-215.613282zm0 0" fill="#d9d9db"/><g fill="#97a1f0"><path d="m91.757812 239.375h234.375v37.5h-234.375zm0 0"/><path d="m91.757812 321.875h234.375v37.5h-234.375zm0 0"/><path d="m91.757812 404.375h234.375v37.5h-234.375zm0 0"/><path d="m91.757812 486.875h234.375v37.5h-234.375zm0 0"/></g><path d="m318.832031 46.6875v98.3125h-219.777343v-98.3125h47.515624c7.925782-26.953125 32.886719-46.6875 62.375-46.6875 29.484376 0 54.453126 19.734375 62.375 46.6875zm0 0" fill="#ff9a00"/><path d="m318.832031 145h-109.886719v-145c29.484376 0 54.453126 19.734375 62.375 46.6875h47.511719zm0 0" fill="#e67500"/><path d="m208.945312 239.375h117.1875v37.5h-117.1875zm0 0" fill="#4b5be6"/><path d="m208.945312 321.875h117.1875v37.5h-117.1875zm0 0" fill="#4b5be6"/><path d="m208.945312 404.375h117.1875v37.5h-117.1875zm0 0" fill="#4b5be6"/><path d="m208.945312 486.875h117.1875v37.5h-117.1875zm0 0" fill="#4b5be6"/></svg>