<svg height="682pt" viewBox="-21 -50 682.66669 682" width="682pt" xmlns="http://www.w3.org/2000/svg"><path d="m0-1.582031h640v485.382812h-640zm0 0" fill="#97a1f0"/><path d="m320-1.582031h320v485.382812h-320zm0 0" fill="#4b5be6"/><path d="m640 483.800781h-247.324219l14.648438 60.105469h35.675781v37.5h-246v-37.5h35.675781l14.648438-60.105469h-247.324219v-114.246093h640zm0 0" fill="#e1e1e3"/><path d="m640 483.800781h-247.324219l14.648438 60.105469h35.675781v37.5h-123v-211.851562h320zm0 0" fill="#d9d9db"/><path d="m535 369.554688h105v114.246093h-105zm0 0" fill="#e67500"/><g fill="#fff"><path d="m144.160156 225.128906v-112.375h-40.570312v147.753906h107.574218v-35.378906zm0 0"/><path d="m225.3125 112.753906v147.753906h40.585938v-147.753906zm0 0"/><path d="m377.226562 112.753906-28.515624 96.761719-28.710938-96.050781-.214844-.710938h-42.863281l43.078125 115.847656 11.859375 31.90625h33.71875l54.308594-147.753906zm0 0"/><path d="m471.699219 225.128906v-23.3125h53.6875v-32.871094h-53.6875v-20.816406h62.851562v-35.375h-103.425781v147.753906h105.285156v-35.378906zm0 0"/></g><path d="m377.226562 112.753906h42.660157l-54.308594 147.753906h-33.71875l-11.859375-31.90625v-115.136718l28.710938 96.050781zm0 0" fill="#e1e1e3"/><path d="m536.410156 225.128906v35.378906h-105.285156v-147.753906h103.425781v35.375h-62.851562v20.816406h53.6875v32.871094h-53.6875v23.3125zm0 0" fill="#e1e1e3"/></svg>