<svg height="682pt" viewBox="-21 -124 682.66669 682" width="682pt" xmlns="http://www.w3.org/2000/svg"><path d="m0-6.5h640v434.738281h-640zm0 0" fill="#77fef6"/><path d="m320-6.496094h320v434.738282h-320zm0 0" fill="#00d9e0"/><path d="m539.601562 428.238281h-439.203124l43.476562-130.050781h352.25zm0 0" fill="#ffdb2d"/><path d="m545.1875 153.191406c0 41.261719-33.5625 74.824219-74.828125 74.824219h-300.71875c-41.265625 0-74.828125-33.5625-74.828125-74.824219 0-41.261718 33.5625-74.828125 74.828125-74.828125h300.71875c41.265625 0 74.828125 33.566407 74.828125 74.828125zm0 0" fill="#97a1f0"/><path d="m545.1875 153.191406c0 41.261719-33.5625 74.824219-74.828125 74.824219h-150.359375v-149.652344h150.359375c41.265625 0 74.828125 33.566407 74.828125 74.828125zm0 0" fill="#4b5be6"/><path d="m169.640625 78.363281c-41.265625 0-74.832031 33.570313-74.832031 74.828125 0 41.261719 33.566406 74.832032 74.832031 74.832032 41.257813 0 74.820313-33.570313 74.820313-74.832032 0-41.257812-33.5625-74.828125-74.820313-74.828125zm0 0" fill="#ffdb2d"/><path d="m470.359375 78.363281c-41.257813 0-74.820313 33.570313-74.820313 74.828125 0 41.261719 33.5625 74.832032 74.820313 74.832032 41.265625 0 74.832031-33.570313 74.832031-74.832032 0-41.257812-33.566406-74.828125-74.832031-74.828125zm0 0" fill="#ffaa20"/><path d="m539.601562 428.238281h-219.601562v-130.050781h176.125zm0 0" fill="#ffaa20"/><path d="m214.902344 298.1875h210.195312v130.050781h-210.195312zm0 0" fill="#e1e1e3"/><path d="m320 298.1875h105.097656v130.050781h-105.097656zm0 0" fill="#d9d9db"/></svg>