<svg height="682pt" viewBox="-21 -89 682.66667 682" width="682pt" xmlns="http://www.w3.org/2000/svg"><path d="m30.742188 83.96875h18.75l70.414062.566406v.152344h37.5v-88.855469h-126.664062zm0 0" fill="#ff9a00"/><path d="m482.59375-4.167969v88.136719h18.75l70.414062.566406v.152344h37.5v-88.855469zm0 0" fill="#e67500"/><path d="m0 65.929688h640v434.589843h-640zm0 0" fill="#97a1f0"/><path d="m319.976562 65.929688h320.023438v434.589843h-320.023438zm0 0" fill="#4b5be6"/><path d="m195.585938-2.765625h248.828124v163.597656h-248.828124zm0 0" fill="#77fef6"/><path d="m319.976562-2.765625h124.4375v163.597656h-124.4375zm0 0" fill="#00d9e0"/><path d="m0 248.5625h183.472656v37.5h-183.472656zm0 0" fill="#d9d9db"/><path d="m452.914062 250.398438h187.085938v37.5h-187.085938zm0 0" fill="#a7aff2"/><path d="m488.710938 269.144531c0 93.027344-75.683594 168.714844-168.710938 168.714844-.015625 0-.015625 0-.023438 0-93.015624-.015625-168.6875-75.703125-168.6875-168.714844s75.671876-168.695312 168.6875-168.710937h.023438c93.027344 0 168.710938 75.6875 168.710938 168.710937zm0 0" fill="#ff9a00"/><path d="m408.421875 269.144531c0 48.765625-39.671875 88.425781-88.421875 88.425781-.015625 0-.015625 0-.023438 0-48.742187-.011718-88.398437-39.675781-88.398437-88.425781 0-48.734375 39.65625-88.398437 88.398437-88.410156h.023438c48.75 0 88.421875 39.660156 88.421875 88.410156zm0 0" fill="#ffdb2d"/><path d="m488.710938 269.144531c0 93.027344-75.683594 168.714844-168.710938 168.714844-.015625 0-.015625 0-.023438 0v-337.425781h.023438c93.027344 0 168.710938 75.6875 168.710938 168.710937zm0 0" fill="#e67500"/><path d="m408.421875 269.144531c0 48.765625-39.671875 88.425781-88.421875 88.425781-.015625 0-.015625 0-.023438 0v-176.835937h.023438c48.75 0 88.421875 39.660156 88.421875 88.410156zm0 0" fill="#ffaa20"/></svg>