<svg height="681pt" viewBox="-21 -21 681.33339 681" width="681pt" xmlns="http://www.w3.org/2000/svg"><path d="m366.90625 298.273438-78.976562 79.191406-13.285157-13.265625-13.210937-13.171875 78.976562-79.175782 13.3125 13.273438zm0 0" fill="#33e58c"/><path d="m194.257812 258.363281 140.453126-52.824219 13.171874 35.03125-140.445312 52.820313zm0 0" fill="#33e58c"/><path d="m345.441406 431.386719 52.824219-140.445313 35.027344 13.171875-52.820313 140.445313zm0 0" fill="#00a753"/><path d="m545.496094 198.722656-36.863282-6.472656c2.769532-15.746094-3.371093-33.371094-16.007812-46.015625l-.007812-.015625c-12.652344-12.648438-30.289063-18.789062-46.035157-16.019531l-6.472656-36.859375c27.992187-4.914063 57.507813 4.964844 78.964844 26.421875l.011719.007812c21.445312 21.457031 31.320312 50.960938 26.410156 78.953125zm0 0" fill="#ff9a00"/><path d="m636.234375 219.722656-36.859375-6.476562c7.941406-45.332032-8.636719-93.710938-44.335938-129.425782l-.011718-.015624c-35.714844-35.710938-84.109375-52.289063-129.4375-44.34375l-6.476563-36.863282c57.332031-10.054687 118.035157 10.414063 162.371094 54.75l.015625.015625c44.320312 44.332031 64.789062 105.023438 54.734375 162.359375zm0 0" fill="#ff9a00"/><path d="m366.90625 298.273438-78.976562 79.191406-13.285157-13.265625 79.078125-79.074219zm0 0" fill="#00a753"/><path d="m519.085938 119.769531c21.445312 21.457031 31.320312 50.960938 26.410156 78.953125l-36.863282-6.472656c2.769532-15.746094-3.371093-33.371094-16.007812-46.015625zm0 0" fill="#e67500"/><path d="m636.234375 219.722656-36.859375-6.476562c7.941406-45.332032-8.636719-93.710938-44.335938-129.425782l26.460938-26.457031c44.320312 44.332031 64.789062 105.023438 54.734375 162.359375zm0 0" fill="#e67500"/><path d="m481.523438 237.671875c.023437 21.503906-8.316407 41.714844-23.488282 56.933594-15.707031 15.746093-36.339844 23.613281-56.984375 23.613281-20.570312 0-41.144531-7.820312-56.820312-23.464844-.027344-.023437-.039063-.039062-.066407-.0625-15.179687-15.15625-23.566406-35.324218-23.589843-56.808594-.023438-21.496093 8.324219-41.714843 23.503906-56.933593 31.335937-31.414063 82.382813-31.476563 113.804687-.148438.023438.023438.0625.0625.089844.085938 15.167969 15.171875 23.527344 35.328125 23.550782 56.785156zm0 0" fill="#ffdb2d"/><path d="m344.230469 294.753906c-.027344-.023437-.039063-.039062-.066407-.0625l113.808594-113.804687c15.167969 15.171875 23.527344 35.328125 23.550782 56.785156.023437 21.503906-8.316407 41.714844-23.488282 56.933594-15.707031 15.746093-36.339844 23.613281-56.984375 23.613281-20.570312 0-41.144531-7.820312-56.820312-23.464844zm0 0" fill="#ffaa20"/><path d="m485.617188 543.949219-13.5 13.660156c-52.15625 52.28125-121.527344 81.121094-195.355469 81.222656h-.375c-73.683594 0-142.980469-28.652343-195.179688-80.699219l-.246093-.25c-52.105469-52.105468-80.859376-121.363281-80.960938-195.089843-.0976562-73.828125 28.566406-143.269531 80.703125-195.542969l.433594-.4375 13.210937-13.148438 13.1875 13.1875 182.464844 181.992188zm0 0" fill="#72fcba"/><path d="m290 348.84375 195.617188 195.105469-13.5 13.660156c-52.15625 52.28125-121.527344 81.121094-195.355469 81.222656h-.375c-73.683594 0-142.980469-28.652343-195.179688-80.699219l-.246093-.25zm0 0" fill="#33e58c"/></svg>