<svg height="682pt" viewBox="-21 -113 682.66669 682" width="682pt" xmlns="http://www.w3.org/2000/svg"><path d="m301.289062 144.898438c0 83.0625-67.585937 150.640624-150.648437 150.640624-83.066406 0-150.640625-67.578124-150.640625-150.640624 0-83.074219 67.574219-150.648438 150.640625-150.648438 83.0625 0 150.648437 67.574219 150.648437 150.648438zm0 0" fill="#ffdb2d"/><path d="m301.289062 144.898438c0 83.0625-67.585937 150.640624-150.648437 150.640624v-301.289062c83.0625 0 150.648437 67.574219 150.648437 150.648438zm0 0" fill="#ffaa20"/><path d="m640 299.585938c0 83.390624-67.835938 151.242187-151.234375 151.242187h-322.902344c-71.886719 0-130.363281-58.492187-130.363281-130.367187s58.476562-130.359376 130.363281-130.359376c.988281 0 1.972657.011719 2.960938.039063-.011719-1.003906-.027344-2.011719-.027344-3.015625 0-89.75 73.015625-162.761719 162.765625-162.761719 2.0625 0 4.125.039063 6.1875.125 37.449219 1.414063 73.261719 15.675781 101.4375 40.539063 25.074219 22.125 42.613281 51.25 50.476562 83.335937 82.972657.476563 150.335938 68.136719 150.335938 151.222657zm0 0" fill="#e1e1e3"/><path d="m640 299.585938c0 83.390624-67.835938 151.242187-151.234375 151.242187h-151.015625v-426.339844c37.449219 1.414063 73.261719 15.675781 101.4375 40.539063 25.074219 22.125 42.613281 51.25 50.476562 83.335937 82.972657.476563 150.335938 68.136719 150.335938 151.222657zm0 0" fill="#d9d9db"/></svg>