<svg height="682pt" viewBox="-125 -21 682 682.66669" width="682pt" xmlns="http://www.w3.org/2000/svg"><path d="m377.414062 640h-336.625l55.402344-163.625h225.824219zm0 0" fill="#72fcba"/><path d="m377.414062 640h-168.644531v-163.625h113.246094zm0 0" fill="#33e58c"/><path d="m424.792969 215.6875c0 65.203125-33.210938 115.898438-70.199219 166.347656-8.4375 11.5-144.300781 195.863282-145.824219 197.941406-.015625.007813-.015625.007813-.015625.007813l-145.136718-197.949219c-36.988282-50.457031-70.199219-101.144531-70.199219-166.347656 0-118.828125 96.574219-215.511719 215.351562-215.6875h1.210938c118.523437.472656 214.8125 97.050781 214.8125 215.6875zm0 0" fill="#ff9a00"/><path d="m424.792969 215.6875c0 65.203125-33.210938 115.898438-70.199219 166.347656-8.4375 11.5-144.300781 195.863282-145.824219 197.941406v-579.976562h1.210938c118.523437.472656 214.8125 97.050781 214.8125 215.6875zm0 0" fill="#e67500"/><path d="m340.417969 215.6875c0 72.398438-58.914063 131.3125-131.3125 131.3125h-.335938c-72.253906-.1875-130.976562-59.027344-130.976562-131.3125 0-72.296875 58.722656-131.125 130.976562-131.3125h.335938c72.398437 0 131.3125 58.902344 131.3125 131.3125zm0 0" fill="#fff"/><path d="m209.105469 347h-.335938v-262.625h.335938c72.398437 0 131.3125 58.902344 131.3125 131.3125 0 72.398438-58.914063 131.3125-131.3125 131.3125zm0 0" fill="#e1e1e3"/></svg>