<svg height="682pt" viewBox="-21 -135 682.66669 682" width="682pt" xmlns="http://www.w3.org/2000/svg"><path d="m582.964844 312h-141.875v93h160.625v-93zm0 0" fill="#00a753"/><path d="m172.914062 312h-141.875v93h160.625v-93zm0 0" fill="#33e58c"/><path d="m0 73.75h640v257h-640zm0 0" fill="#72fcba"/><path d="m76.25 136.769531h173.335938v37.5h-173.335938zm0 0" fill="#e1e1e3"/><path d="m76.25 212.082031h173.335938v37.5h-173.335938zm0 0" fill="#e1e1e3"/><path d="m320 73.75h320v257h-320zm0 0" fill="#33e58c"/><path d="m581.25 123.375c0 72.027344-58.597656 130.625-130.625 130.625s-130.625-58.597656-130.625-130.625c0-72.035156 58.597656-130.625 130.625-130.625s130.625 58.589844 130.625 130.625zm0 0" fill="#ff9a00"/><path d="m581.25 123.375c0 72.027344-58.597656 130.625-130.625 130.625v-261.25c72.027344 0 130.625 58.589844 130.625 130.625zm0 0" fill="#e67500"/><path d="m514 123.375c0 34.984375-28.375 63.363281-63.375 63.363281s-63.375-28.378906-63.375-63.363281c0-35 28.375-63.375 63.375-63.375s63.375 28.375 63.375 63.375zm0 0" fill="#ffdb2d"/><path d="m514 123.375c0 34.984375-28.375 63.363281-63.375 63.363281v-126.738281c35 0 63.375 28.375 63.375 63.375zm0 0" fill="#ffaa20"/></svg>