<svg height="682pt" viewBox="-21 -92 682.66669 682" width="682pt" xmlns="http://www.w3.org/2000/svg"><path d="m207.5-4.417969v89.796875h125.160156v-89.796875zm0 0" fill="#72fcba"/><path d="m270.082031-4.417969v89.796875h62.578125v-89.796875zm0 0" fill="#33e58c"/><path d="m332.660156-4.417969v89.796875h125.167969v-89.796875zm0 0" fill="#72fcba"/><path d="m395.242188-4.417969v89.796875h62.585937v-89.796875zm0 0" fill="#33e58c"/><path d="m457.828125-4.417969v89.796875h125.160156v-89.796875zm0 0" fill="#72fcba"/><path d="m520.40625-4.417969v89.796875h62.582031v-89.796875zm0 0" fill="#33e58c"/><path d="m0 66.632812h640v427.101563h-640zm0 0" fill="#ff9a00"/><path d="m320 66.632812h320v427.101563h-320zm0 0" fill="#e67500"/><path d="m57.5 136.882812h525v286.601563h-525zm0 0" fill="#e1e1e3"/><path d="m320 136.882812h262.5v286.601563h-262.5zm0 0" fill="#d9d9db"/><path d="m501.246094 283.179688c0 33.214843-27.011719 60.230468-60.226563 60.230468h-242.039062c-33.214844 0-60.226563-27.015625-60.226563-60.230468 0-33.207032 27.011719-60.222657 60.226563-60.222657h242.042969c33.210937 0 60.222656 27.015625 60.222656 60.222657zm0 0" fill="#97a1f0"/><path d="m501.246094 283.179688c0 33.214843-27.011719 60.230468-60.226563 60.230468h-121.019531v-120.453125h121.019531c33.214844 0 60.226563 27.015625 60.226563 60.222657zm0 0" fill="#4b5be6"/><path d="m198.976562 222.957031c-33.210937 0-60.226562 27.019531-60.226562 60.230469 0 33.207031 27.015625 60.222656 60.230469 60.222656 33.207031 0 60.222656-27.015625 60.222656-60.222656 0-33.210938-27.015625-60.230469-60.226563-60.230469zm0 0" fill="#ffdb2d"/><path d="m441.023438 222.957031c-33.207032 0-60.226563 27.019531-60.226563 60.230469 0 33.207031 27.019531 60.222656 60.226563 60.222656 33.210937 0 60.226562-27.015625 60.226562-60.222656 0-33.210938-27.015625-60.230469-60.226562-60.230469zm0 0" fill="#ffaa20"/></svg>