<svg height="682.66669pt" viewBox="-21 -21 682.66669 682.66669" width="682.66669pt" xmlns="http://www.w3.org/2000/svg"><path d="m0 279.5625h231.292969v196.222656h-231.292969zm0 0" fill="#ffdb2d"/><path d="m231.292969 358.921875h-96.898438v-79.359375h-37.5v79.359375h-96.894531v37.5h96.894531v79.363281h37.5v-79.363281h96.898438zm0 0" fill="#ff9a00"/><path d="m410 279.585938h230v196.226562h-230zm0 0" fill="#ffaa20"/><path d="m640 358.945312h-96.25v-79.359374h-37.5v79.359374h-96.25v37.5h96.25v79.367188h37.5v-79.367188h96.25zm0 0" fill="#e67500"/><path d="m245 535.625h150v104.375h-150zm0 0" fill="#ffdb2d"/><path d="m439.640625 41.523438v18.75c0 59.589843-43.800781 109.140624-100.890625 118.164062v31.972656h-37.5v-31.972656c-57.089844-9.023438-100.890625-58.574219-100.890625-118.164062v-18.75h100.890625v-41.523438h37.5v41.523438zm0 0" fill="#ff9a00"/><path d="m320 535.625h75v104.375h-75zm0 0" fill="#ffaa20"/><path d="m439.640625 41.523438v18.75c0 59.589843-43.800781 109.140624-100.890625 118.164062v31.972656h-18.75v-210.410156h18.75v41.523438zm0 0" fill="#e67500"/><path d="m221.4375 203.75h197.125v350.625h-197.125zm0 0" fill="#97a1f0"/><path d="m320 203.75h98.5625v350.625h-98.5625zm0 0" fill="#4b5be6"/></svg>