<svg height="682pt" viewBox="-21 -78 682.66669 682" width="682pt" xmlns="http://www.w3.org/2000/svg"><path d="m640 170.035156v326.25h-78.238281l-108.8125-82.035156v-151.324219l107.4375-92.890625zm0 0" fill="#97a1f0"/><path d="m640 333.160156v163.125h-78.238281l-108.8125-82.035156v-81.089844zm0 0" fill="#4b5be6"/><path d="m213.242188 40.25h116.246093v37.5h-116.246093zm0 0" fill="#ff9a00"/><path d="m53.875 40.25v122.5h189.367188v-122.5zm0 0" fill="#d9d9db"/><path d="m0 144h490.449219v378.339844h-490.449219zm0 0" fill="#ff9a00"/><path d="m482.914062-3.5h-172.175781v116.875h172.175781c32.222657 0 58.4375-26.214844 58.4375-58.4375s-26.214843-58.4375-58.4375-58.4375zm0 0" fill="#97a1f0"/><path d="m0 333.160156h490.449219v189.179688h-490.449219zm0 0" fill="#e67500"/><path d="m75 219h340.449219v228.339844h-340.449219zm0 0" fill="#77fef6"/><path d="m75 333.160156h340.449219v114.179688h-340.449219zm0 0" fill="#00d9e0"/></svg>