<svg height="682pt" viewBox="-21 -21 682 682.66669" width="682pt" xmlns="http://www.w3.org/2000/svg"><path d="m111.746094 0h416.464844v113.359375h-416.464844zm0 0" fill="#c5c9f7"/><path d="m319.976562 0h208.234376v113.359375h-208.234376zm0 0" fill="#a7aff2"/><path d="m75.8125 81.273438h488.328125v539.996093h-488.328125zm0 0" fill="#97a1f0"/><path d="m319.976562 81.273438h244.164063v539.996093h-244.164063zm0 0" fill="#4b5be6"/><path d="m75.8125 81.273438h488.328125v324.777343h-488.328125zm0 0" fill="#77fef6"/><path d="m57.082031 62.542969v577.457031h525.789063v-577.457031zm281.625 37.457031h83.957031v71.957031h-83.957031zm0 109.417969h83.957031v70.222656h-83.957031zm0 107.675781h83.957031v70.226562h-83.957031zm-121.414062-217.09375h83.953125v71.957031h-83.953125zm0 109.417969h83.953125v70.222656h-83.953125zm0 107.675781h83.953125v70.226562h-83.953125zm-122.75-217.09375h85.292969v71.957031h-85.292969zm0 109.417969h85.292969v70.222656h-85.292969zm0 107.675781h85.292969v70.226562h-85.292969zm450.875 285.449219h-450.875v-177.769531h450.875zm0-215.222657h-85.292969v-70.226562h85.292969zm0-107.679687h-85.292969v-70.222656h85.292969zm0-107.683594h-85.292969v-71.957031h85.292969zm0 0" fill="#97a1f0"/><path d="m319.976562 81.273438h244.164063v324.777343h-244.164063zm0 0" fill="#00d9e0"/><path d="m319.976562 62.542969v362.230469h225.441407v177.769531h-225.441407v37.457031h262.894532v-577.457031zm102.6875 324.777343h-83.957031v-70.226562h83.957031zm0-107.679687h-83.957031v-70.222656h83.957031zm0-107.683594h-83.957031v-71.957031h83.957031zm122.753907 215.363281h-85.292969v-70.226562h85.292969zm0-107.679687h-85.292969v-70.222656h85.292969zm0-107.683594h-85.292969v-71.957031h85.292969zm0 0" fill="#4b5be6"/><path d="m228.203125 492.578125h183.546875v127.984375h-183.546875zm0 0" fill="#77fef6"/><path d="m319.976562 492.578125h91.773438v127.984375h-91.773438zm0 0" fill="#00d9e0"/><path d="m209.472656 473.847656v146.714844h37.460938v-109.257812h146.085937v109.257812h37.460938v-146.714844zm0 0" fill="#e1e1e3"/><path d="m.332031 601.832031h639.289063v37.457031h-639.289063zm0 0" fill="#72fcba"/><path d="m319.976562 473.847656h110.503907v146.714844h-37.460938v-109.257812h-73.042969zm0 0" fill="#d9d9db"/><path d="m319.976562 601.832031h319.644532v37.457031h-319.644532zm0 0" fill="#33e58c"/></svg>