<svg height="682pt" viewBox="-21 -39 682.66669 682" width="682pt" xmlns="http://www.w3.org/2000/svg"><path d="m640 494.890625-71.21875 108.195313-.027344.039062-70.878906-108.410156-.277344-320.136719c.0625-39.230469 31.980469-71.0625 71.171875-71.003906.261719 0 .535157.007812.800781.015625 38.8125.488281 70.210938 32.246094 70.152344 71.164062zm0 0" fill="#ffdb2d"/><path d="m640 494.890625-71.21875 108.195313.789062-499.496094c38.8125.488281 70.210938 32.246094 70.148438 71.164062zm0 0" fill="#ffaa20"/><path d="m639.761719 227.859375-142.125-.226563-.042969-53.054687c.0625-39.230469 31.984375-71.0625 71.175781-71.003906.261719 0 .535157.007812.800781.015625 38.8125.488281 70.210938 32.246094 70.148438 71.164062zm0 0" fill="#72fcba"/><path d="m639.632812 495.449219-70.851562 107.636719-.027344.035156-70.527344-107.894532zm0 0" fill="#ffdba9"/><path d="m639.632812 495.449219-70.851562 107.636719.167969-107.746094zm0 0" fill="#ffc473"/><path d="m639.761719 227.859375-70.386719-.113281.195312-124.15625c38.8125.488281 70.210938 32.246094 70.148438 71.164062zm0 0" fill="#33e58c"/><path d="m590.304688 570.398438-21.523438 32.6875-.027344.035156-21.445312-32.792969zm0 0" fill="#97a1f0"/><path d="m568.832031 570.363281 21.472657.035157-21.523438 32.6875zm0 0" fill="#4b5be6"/><path d="m0-.832031h462.144531v603.953125h-462.144531zm0 0" fill="#72fcba"/><path d="m182.660156-.832031h279.484375v603.953125h-279.484375zm0 0" fill="#33e58c"/><path d="m369.105469-.832031h93.039062v603.953125h-93.039062zm0 0" fill="#4b5be6"/><path d="m369.105469-.832031h93.039062v114.511719h-93.039062zm0 0" fill="#ffaa20"/><path d="m63.96875 73.355469h237.375v153.800781h-237.375zm0 0" fill="#ff9a00"/><path d="m182.660156 73.355469h118.683594v153.800781h-118.683594zm0 0" fill="#e67500"/></svg>