<svg height="682pt" viewBox="-92 -21 682 682.66669" width="682pt" xmlns="http://www.w3.org/2000/svg"><path d="m493.082031 120.25v519.75h-497.5v-640h325.914063zm0 0" fill="#ff9a00"/><path d="m493.082031 120.25v519.75h-248.75v-640h77.164063zm0 0" fill="#e67500"/><path d="m70.582031 313.75h347.5v251.25h-347.5zm0 0" fill="#c5c9f7"/><g fill="#ffdb2d"><path d="m70.589844 74.898438h37.5v106.351562h-37.5zm0 0"/><path d="m145.589844 74.898438h37.5v106.351562h-37.5zm0 0"/><path d="m220.582031 74.902344h37.5v106.347656h-37.5zm0 0"/></g><path d="m295.589844 74.898438h37.5v106.351562h-37.5zm0 0" fill="#ffaa20"/><path d="m244.332031 74.902344h13.75v106.347656h-13.75zm0 0" fill="#ffaa20"/><path d="m244.332031 313.75h173.75v251.25h-173.75zm0 0" fill="#a7aff2"/></svg>