<svg height="682pt" viewBox="-21 -40 682.66669 682" width="682pt" xmlns="http://www.w3.org/2000/svg"><path d="m53.054688 142.277344v260.433594c0 44.492187 36.203124 80.695312 80.695312 80.695312h256.011719l169.832031 118.175781v-118.175781c44.359375-.152344 80.40625-36.296875 80.40625-80.695312v-260.433594c0-44.492188-36.203125-80.695313-80.695312-80.695313h-425.554688c-44.492188 0-80.695312 36.203125-80.695312 80.695313zm0 0" fill="#4b5be6"/><path d="m53.054688 142.277344v260.433594c0 44.492187 36.203124 80.695312 80.695312 80.695312h212.871094v-421.824219h-212.871094c-44.492188 0-80.695312 36.203125-80.695312 80.695313zm0 0" fill="#97a1f0"/><path d="m586.945312 79.777344v260.433594c0 44.492187-36.203124 80.695312-80.695312 80.695312h-256.007812l-169.835938 118.175781v-118.175781c-44.359375-.152344-80.40625-36.296875-80.40625-80.695312v-260.433594c0-44.492188 36.203125-80.695313 80.695312-80.695313h425.554688c44.492188 0 80.695312 36.203125 80.695312 80.695313zm0 0" fill="#ffdb2d"/><path d="m586.945312 79.777344v260.433594c0 44.492187-36.203124 80.695312-80.695312 80.695312h-212.871094v-421.824219h212.871094c44.492188 0 80.695312 36.203125 80.695312 80.695313zm0 0" fill="#ffaa20"/><path d="m199.800781 199.160156h37.34375v37.34375h-37.34375zm0 0" fill="#e1e1e3"/><path d="m274.800781 199.160156h37.34375v37.34375h-37.34375zm0 0" fill="#e1e1e3"/><g fill="#d9d9db"><path d="m293.472656 199.160156h18.671875v37.34375h-18.671875zm0 0"/><path d="m349.800781 199.996094h37.34375v37.34375h-37.34375zm0 0"/></g></svg>