<svg height="682.66669pt" viewBox="-21 -21 682.66669 682.66669" width="682.66669pt" xmlns="http://www.w3.org/2000/svg"><path d="m0 372.164062c0 47.214844 38.414062 85.625 85.625 85.625v-171.25c-47.210938 0-85.625 38.414063-85.625 85.625zm0 0" fill="#97a1f0"/><path d="m554.375 286.539062v171.25c47.210938 0 85.625-38.410156 85.625-85.625 0-47.210937-38.414062-85.625-85.625-85.625zm0 0" fill="#4b5be6"/><path d="m557.5 237.5v31.890625h-37.5v-31.890625c0-110.273438-89.726562-200-200-200s-200 89.726562-200 200v39.449219h-37.5v-39.449219c0-130.960938 106.539062-237.5 237.5-237.5s237.5 106.539062 237.5 237.5zm0 0" fill="#c5c9f7"/><path d="m557.5 237.5v31.890625h-37.5v-31.890625c0-110.273438-89.726562-200-200-200v-37.5c130.960938 0 237.5 106.539062 237.5 237.5zm0 0" fill="#a7aff2"/><path d="m275 610.175781h-74.550781c-36.777344 0-66.699219-29.921875-66.699219-66.699219v-50.554687h37.5v50.554687c0 16.101563 13.101562 29.199219 29.199219 29.199219h74.550781zm0 0" fill="#c5c9f7"/><path d="m82.5 243.496094h140v257.339844h-140zm0 0" fill="#ff9a00"/><path d="m417.5 243.496094h140v257.339844h-140zm0 0" fill="#e67500"/><path d="m374.460938 592.285156c0 26.3125-21.398438 47.714844-47.710938 47.714844h-82.875v-95.410156h82.875c26.3125 0 47.710938 21.394531 47.710938 47.695312zm0 0" fill="#ff9a00"/><path d="m374.460938 592.285156c0 26.3125-21.398438 47.714844-47.710938 47.714844h-6.75v-95.410156h6.75c26.3125 0 47.710938 21.394531 47.710938 47.695312zm0 0" fill="#e67500"/></svg>