<svg height="682pt" viewBox="-21 -51 682.66669 682" width="682pt" xmlns="http://www.w3.org/2000/svg"><path d="m0 156.523438h640v349.132812h-640zm0 0" fill="#72fcba"/><path d="m120.625 380.472656h398.75v37.5h-398.75zm0 0" fill="#33e58c"/><path d="m152.5 380.472656h335v198.125h-335zm0 0" fill="#fff"/><path d="m75 156.523438h490v120.199218h-490zm0 0" fill="#33e58c"/><path d="m319.976562 156.523438h320.023438v349.132812h-320.023438zm0 0" fill="#33e58c"/><path d="m319.976562 380.472656h199.398438v37.5h-199.398438zm0 0" fill="#00a753"/><path d="m319.976562 380.472656h167.523438v198.125h-167.523438zm0 0" fill="#d9d9db"/><path d="m319.976562 156.523438h245.023438v120.199218h-245.023438zm0 0" fill="#00a753"/><path d="m231.875 456.996094h176.25v37.5h-176.25zm0 0" fill="#ff9a00"/><path d="m319.976562 456.996094h88.148438v37.5h-88.148438zm0 0" fill="#e67500"/><path d="m488.628906-1.667969v236.988281h-334.753906v-137.582031l99.398438-99.40625zm0 0" fill="#e1e1e3"/><path d="m319.96875-1.667969h168.660156v236.988281h-168.660156zm0 0" fill="#d9d9db"/><path d="m253.289062-1.667969v99.40625h-99.414062l99.398438-99.40625zm0 0" fill="#ff9a00"/></svg>