<svg height="682pt" viewBox="-21 -21 682 682.66669" width="682pt" xmlns="http://www.w3.org/2000/svg"><path d="m306.304688 54.105469-36.519532 45.136719-13.464844-10.890626-15.664062-12.683593 36.503906-45.136719 13.515625 10.945312h.015625zm0 0" fill="#ffdb2d"/><path d="m185.261719 163.820312h37.480469v73.289063h-37.480469zm0 0" fill="#ffdb2d"/><path d="m204 163.820312h18.742188v73.289063h-18.742188zm0 0" fill="#ffaa20"/><path d="m561.910156 310.40625h-158.164062v265.277344h236.367187v-167.523438zm0 0" fill="#ffaa20"/><path d="m640.113281 436.367188v-28.207032l-78.203125-97.753906h-158.164062v125.960938zm0 0" fill="#00d9e0"/><path d="m.332031 227.679688h440.894531v347.992187h-440.894531zm0 0" fill="#ff9a00"/><path d="m601.59375 567.128906c0 40.175782-32.679688 72.871094-72.871094 72.871094-40.175781 0-72.867187-32.695312-72.867187-72.871094 0-40.183594 32.691406-72.878906 72.867187-72.878906 40.191406 0 72.871094 32.695312 72.871094 72.878906zm0 0" fill="#97a1f0"/><path d="m601.59375 567.128906c0 40.175782-32.679688 72.871094-72.871094 72.871094v-145.75c40.191406 0 72.871094 32.695312 72.871094 72.878906zm0 0" fill="#4b5be6"/><path d="m204 227.679688h237.226562v347.992187h-237.226562zm0 0" fill="#e67500"/><path d="m306.304688 54.105469-36.519532 45.136719-13.464844-10.890626 34.355469-46.875h.015625zm0 0" fill="#ffaa20"/><path d="m357.101562 145.777344-11.78125 14.566406c-22.878906 28.269531-56.40625 42.945312-90.210937 42.945312-23.449219 0-47.023437-7.054687-67.261719-21.53125-1.875-1.335937-3.710937-2.738281-5.523437-4.199218-49.679688-40.199219-57.402344-113.320313-17.199219-162.992188l11.78125-14.566406 90.507812 73.21875zm0 0" fill="#97a1f0"/><path d="m357.101562 145.777344-11.78125 14.566406c-22.878906 28.269531-56.40625 42.945312-90.210937 42.945312-23.449219 0-47.023437-7.054687-67.261719-21.53125l79.566406-108.539062zm0 0" fill="#4b5be6"/><path d="m210.574219 567.128906c0 40.175782-32.683594 72.871094-72.871094 72.871094-40.175781 0-72.867187-32.695312-72.867187-72.871094 0-40.183594 32.691406-72.878906 72.867187-72.878906 40.1875 0 72.871094 32.695312 72.871094 72.878906zm0 0" fill="#97a1f0"/><path d="m210.574219 567.128906c0 40.175782-32.683594 72.871094-72.871094 72.871094v-145.75c40.1875 0 72.871094 32.695312 72.871094 72.878906zm0 0" fill="#4b5be6"/><path d="m58.511719 291.265625h290.980469v129.988281h-290.980469zm0 0" fill="#77fef6"/><path d="m204 291.265625h145.492188v129.988281h-145.492188zm0 0" fill="#00d9e0"/></svg>