<svg height="682pt" viewBox="-21 -21 682 682.66669" width="682pt" xmlns="http://www.w3.org/2000/svg"><path d="m285.277344 459.476562-54.289063 54.296876-26.527343 26.535156-78.121094 78.097656c-14.394532 14.386719-33.296875 21.59375-52.207032 21.59375-18.902343 0-37.8125-7.207031-52.210937-21.59375-28.785156-28.792969-28.785156-75.632812 0-104.417969l78.113281-78.105469 26.535156-26.527343 54.285157-54.300781 26.542969 26.53125 51.347656 51.347656zm0 0" fill="#72fcba"/><path d="m285.277344 459.476562-54.289063 54.296876-26.527343 26.535156-78.121094 78.097656c-14.394532 14.386719-33.296875 21.59375-52.207032 21.59375-18.902343 0-37.8125-7.207031-52.210937-21.59375l211.195313-211.101562 25.628906 25.628906zm0 0" fill="#33e58c"/><path d="m640.328125 253.246094c0 67.648437-26.339844 131.242187-74.171875 179.074218-47.832031 47.832032-111.425781 74.171876-179.074219 74.171876-67.621093 0-131.191406-26.328126-179.023437-74.125l-.046875-.046876c-47.832031-47.832031-74.175781-111.425781-74.175781-179.074218 0-67.644532 26.34375-131.238282 74.175781-179.070313s111.425781-74.175781 179.070312-74.175781c67.648438 0 131.242188 26.34375 179.074219 74.175781l.125.125c47.757812 47.816407 74.046875 111.363281 74.046875 178.945313zm0 0" fill="#ff9a00"/><path d="m230.988281 513.773438-26.527343 26.535156-104.425782-104.425782 26.535156-26.527343zm0 0" fill="#e1e1e3"/><path d="m640.328125 253.246094c0 67.648437-26.339844 131.242187-74.171875 179.074218-47.832031 47.832032-111.425781 74.171876-179.074219 74.171876-67.621093 0-131.191406-26.328126-179.023437-74.125l358.222656-358.066407c47.757812 47.816407 74.046875 111.363281 74.046875 178.945313zm0 0" fill="#e67500"/><path d="m178.816406 461.601562 52.171875 52.171876-26.527343 26.535156-52.1875-52.1875zm0 0" fill="#d9d9db"/><path d="m521.238281 387.402344c-36.988281 36.988281-85.570312 55.488281-134.15625 55.488281-48.558593 0-97.128906-18.484375-134.101562-55.4375l-.054688-.050781c-73.972656-73.972656-73.972656-194.332032 0-268.308594 73.980469-73.976562 194.335938-73.976562 268.3125 0l.113281.109375c73.859376 73.992187 73.820313 194.257813-.113281 268.199219zm0 0" fill="#77fef6"/><path d="m521.238281 387.402344c-36.988281 36.988281-85.570312 55.488281-134.15625 55.488281-48.558593 0-97.128906-18.484375-134.101562-55.4375l268.371093-268.25c73.859376 73.992187 73.820313 194.257813-.113281 268.199219zm0 0" fill="#00d9e0"/></svg>