<svg height="682pt" viewBox="-131 -21 682 682.66669" width="682pt" xmlns="http://www.w3.org/2000/svg"><path d="m158.578125 187.5h97.625l91.527344-187.5h-97.628907zm0 0" fill="#33e58c"/><path d="m-7 93.75h420.722656v546.25h-420.722656zm0 0" fill="#e1e1e3"/><path d="m203.363281 93.75h210.359375v546.25h-210.359375zm0 0" fill="#d9d9db"/><path d="m104.1875 168.75h198.347656v37.5h-198.347656zm0 0" fill="#97a1f0"/><path d="m203.363281 168.75h99.171875v37.5h-99.171875zm0 0" fill="#4b5be6"/><path d="m125.25 528.339844h156.226562v37.5h-156.226562zm0 0" fill="#72fcba"/><path d="m248.152344 187.5h-97.628906l-91.523438-187.5h97.625l46.738281 95.75zm0 0" fill="#72fcba"/><path d="m309.78125 424.203125v56.519531h-212.839844v-56.519531c0-40.476563 32.9375-73.414063 73.417969-73.414063h66.003906c40.484375-.003906 73.417969 32.9375 73.417969 73.414063zm0 0" fill="#ff9a00"/><path d="m203.363281 480.722656v-129.9375h33c40.484375 0 73.417969 32.941406 73.417969 73.417969v56.519531zm0 0" fill="#e67500"/><path d="m248.152344 187.5h-44.789063v-91.75zm0 0" fill="#33e58c"/><path d="m203.363281 528.339844h78.113281v37.5h-78.113281zm0 0" fill="#33e58c"/><path d="m264.226562 305.175781c0 33.566407-27.300781 60.878907-60.863281 60.878907-33.566406 0-60.867187-27.3125-60.867187-60.878907 0-33.550781 27.300781-60.863281 60.867187-60.863281 33.5625 0 60.863281 27.3125 60.863281 60.863281zm0 0" fill="#ffdba9"/><path d="m203.363281 366.054688v-121.742188c33.5625 0 60.863281 27.3125 60.863281 60.863281 0 33.566407-27.300781 60.878907-60.863281 60.878907zm0 0" fill="#ffc473"/></svg>