<svg height="682.66669pt" viewBox="-21 -21 682.66669 682.66669" width="682.66669pt" xmlns="http://www.w3.org/2000/svg"><path d="m301.25 463.75h37.5v87.5h-37.5zm0 0" fill="#c5c9f7"/><path d="m320 463.75h18.75v87.5h-18.75zm0 0" fill="#a7aff2"/><path d="m0 559.375h265v37.5h-265zm0 0" fill="#c5c9f7"/><path d="m375 559.375h265v37.5h-265zm0 0" fill="#a7aff2"/><path d="m544.40625 242.5c0 123.941406-100.464844 224.417969-224.40625 224.417969s-224.40625-100.476563-224.40625-224.417969c0-123.925781 100.464844-224.40625 224.40625-224.40625s224.40625 100.480469 224.40625 224.40625zm0 0" fill="#97a1f0"/><path d="m544.40625 242.5c0 123.941406-100.464844 224.417969-224.40625 224.417969v-448.824219c123.941406 0 224.40625 100.480469 224.40625 224.40625zm0 0" fill="#4b5be6"/><path d="m320 0c-133.710938 0-242.5 108.789062-242.5 242.5 0 133.726562 108.789062 242.5 242.5 242.5s242.5-108.773438 242.5-242.5c0-133.710938-108.789062-242.5-242.5-242.5zm205.511719 224.40625h-110.800781c-1.882813-69.597656-14.632813-137.617188-37.675782-180.191406 80.523438 23.199218 140.964844 94.226562 148.476563 180.191406zm-205.511719-188.214844c9.410156 0 24.574219 16.539063 37.226562 53.488282 12.4375 36.296874 19.859376 83.601562 21.28125 134.726562h-117.019531c1.425781-51.125 8.84375-98.429688 21.285157-134.726562 12.652343-36.949219 27.816406-53.488282 37.226562-53.488282zm-57.035156 8.023438c-23.042969 42.574218-35.792969 110.59375-37.675782 180.191406h-110.800781c7.511719-85.964844 67.953125-156.992188 148.476563-180.191406zm-148.476563 216.378906h110.800781c1.882813 69.605469 14.632813 137.617188 37.675782 180.191406-80.523438-23.183594-140.964844-94.214844-148.476563-180.191406zm205.511719 188.214844c-9.410156 0-24.574219-16.539063-37.226562-53.488282-12.4375-36.296874-19.859376-83.601562-21.28125-134.726562h117.019531c-1.425781 51.125-8.84375 98.429688-21.285157 134.726562-12.652343 36.949219-27.816406 53.488282-37.226562 53.488282zm57.035156-8.023438c23.042969-42.574218 35.792969-110.585937 37.675782-180.191406h110.800781c-7.511719 85.976562-67.953125 157.007812-148.476563 180.191406zm0 0" fill="#e1e1e3"/><path d="m320 0v36.191406c9.410156 0 24.574219 16.539063 37.226562 53.488282 12.4375 36.296874 19.859376 83.601562 21.28125 134.726562h-58.507812v36.1875h58.507812c-1.421874 51.125-8.84375 98.429688-21.28125 134.726562-12.65625 36.949219-27.816406 53.488282-37.226562 53.488282v36.191406c133.710938 0 242.5-108.773438 242.5-242.5 0-133.710938-108.789062-242.5-242.5-242.5zm57.035156 44.214844c80.523438 23.199218 140.964844 94.226562 148.476563 180.191406h-110.800781c-1.882813-69.597656-14.632813-137.617188-37.675782-180.191406zm0 396.570312c23.042969-42.574218 35.792969-110.585937 37.675782-180.191406h110.800781c-7.511719 85.976562-67.953125 157.007812-148.476563 180.191406zm0 0" fill="#d9d9db"/><path d="m381.875 578.125c0 34.109375-27.765625 61.875-61.875 61.875s-61.875-27.765625-61.875-61.875 27.765625-61.875 61.875-61.875 61.875 27.765625 61.875 61.875zm0 0" fill="#72fcba"/><path d="m381.875 578.125c0 34.109375-27.765625 61.875-61.875 61.875v-123.75c34.109375 0 61.875 27.765625 61.875 61.875zm0 0" fill="#33e58c"/></svg>