<svg height="682pt" viewBox="-21 -103 682.66669 682" width="682pt" xmlns="http://www.w3.org/2000/svg"><path d="m58.101562 13.667969h526.398438v363.75h-526.398438zm0 0" fill="#97a1f0"/><path d="m321.296875 13.667969h263.203125v363.75h-263.203125zm0 0" fill="#4b5be6"/><path d="m39.351562-5.082031v401.25h563.898438v-401.25zm526.398438 363.75h-488.898438v-326.25h488.898438zm0 0" fill="#77fef6"/><path d="m640 358.667969v45.273437c0 37.074219-30.152344 67.226563-67.226562 67.226563h-505.546876c-37.074218 0-67.226562-30.152344-67.226562-67.226563v-45.273437zm0 0" fill="#e1e1e3"/><path d="m603.25-5.082031v401.25h-281.953125v-37.5h244.453125v-326.25h-244.453125v-37.5zm0 0" fill="#00d9e0"/><path d="m640 358.667969v45.273437c0 37.074219-30.152344 67.226563-67.226562 67.226563h-251.476563v-112.5zm0 0" fill="#d9d9db"/></svg>