<svg height="682pt" viewBox="-51 -21 682 682.66669" width="682pt" xmlns="http://www.w3.org/2000/svg"><path d="m464.921875 508.027344v131.972656h-466.589844v-131.972656c0-64.253906 39.914063-119.363282 96.238281-141.839844 2.488282-1 5.011719-1.925781 7.5625-2.789062 15.335938-5.1875 31.761719-8.011719 48.851563-8.011719h161.300781c17.074219 0 33.5 2.824219 48.835938 8.027343 2.5625.847657 5.089844 1.773438 7.574218 2.773438 56.328126 22.476562 96.226563 77.585938 96.226563 141.839844zm0 0" fill="#72fcba"/><path d="m464.921875 508.027344v131.972656h-233.289063v-284.613281h80.652344c17.074219 0 33.5 2.824219 48.835938 8.027343 2.5625.847657 5.089844 1.773438 7.574218 2.773438 56.328126 22.476562 96.226563 77.585938 96.226563 141.839844zm0 0" fill="#33e58c"/><path d="m231.628906 417.519531v222.480469h94.171875v-222.480469zm0 0" fill="#00a753"/><path d="m137.460938 417.519531v222.480469h94.167968v-222.480469zm0 0" fill="#33e58c"/><path d="m361.121094 363.414062-129.488282 198.386719-129.5-198.402343c15.335938-5.1875 31.761719-8.011719 48.851563-8.011719h161.300781c17.074219 0 33.5 2.824219 48.835938 8.027343zm0 0" fill="#e1e1e3"/><path d="m361.121094 363.414062-129.488282 198.386719v-206.414062h80.652344c17.074219 0 33.5 2.824219 48.835938 8.027343zm0 0" fill="#d9d9db"/><path d="m420.128906 224.101562c0 26.285157-17.722656 48.523438-41.835937 55.371094-6.351563 30.953125-22.386719 59.203125-46.074219 80.714844-27.585938 25.039062-63.3125 38.828125-100.589844 38.828125-37.273437 0-72.996094-13.789063-100.585937-38.828125-23.6875-21.511719-39.726563-49.761719-46.074219-80.714844-24.109375-6.847656-41.835938-29.085937-41.835938-55.371094 0-23.539062 14.210938-43.828124 34.511719-52.714843 1.398438-.625 2.824219-1.1875 4.289063-1.683594v-20c0-82.539063 67.148437-149.703125 149.695312-149.703125 82.554688 0 149.703125 67.164062 149.703125 149.703125v20c1.410157.484375 2.796875 1.019531 4.148438 1.621094 20.378906 8.863281 34.648437 29.1875 34.648437 52.777343zm0 0" fill="#ffd9a7"/><path d="m420.128906 224.101562c0 26.285157-17.722656 48.523438-41.835937 55.371094-6.351563 30.953125-22.386719 59.203125-46.074219 80.714844-27.585938 25.039062-63.3125 38.828125-100.589844 38.828125v-399.015625c82.554688 0 149.703125 67.164062 149.703125 149.703125v20c22.5625 7.78125 38.796875 29.234375 38.796875 54.398437zm0 0" fill="#ffc273"/><path d="m385.480469 171.324219c-24.675781-.988281-50.726563-13.625-77.472657-37.574219-7.988281-7.148438-14.851562-14.289062-20.226562-20.289062-11.738281 8.710937-30.125 20.226562-56.152344 30.6875-35.921875 14.441406-86.394531 26.875-153.984375 27.238281 1.398438-.625 2.824219-1.1875 4.289063-1.683594v-20c0-82.539063 67.148437-149.703125 149.695312-149.703125 82.554688 0 149.703125 67.164062 149.703125 149.703125v20c1.410157.484375 2.796875 1.019531 4.148438 1.621094zm0 0" fill="#ff9a00"/><path d="m385.480469 171.324219c-24.675781-.988281-50.726563-13.625-77.472657-37.574219-7.988281-7.148438-14.851562-14.289062-20.226562-20.289062-11.738281 8.710937-30.125 20.226562-56.152344 30.6875v-144.148438c82.554688 0 149.703125 67.164062 149.703125 149.703125v20c1.410157.484375 2.796875 1.019531 4.148438 1.621094zm0 0" fill="#e67500"/><path d="m436.601562 527.363281h85.941407v111.667969h-85.941407zm0 0" fill="#ff9a00"/><path d="m479.574219 527.363281h42.96875v111.667969h-42.96875zm0 0" fill="#e67500"/><path d="m568.328125 380.554688c0 15.867187-4.238281 31.441406-12.273437 45.050781l-3.117188 5.289062h-146.734375l-3.113281-5.289062c-8.039063-13.609375-12.277344-29.183594-12.277344-45.050781 0-48.933594 39.816406-88.757813 88.761719-88.757813 48.945312 0 88.753906 39.824219 88.753906 88.757813zm0 0" fill="#97a1f0"/><path d="m568.328125 380.554688c0 15.867187-4.238281 31.441406-12.273437 45.050781l-3.117188 5.289062h-73.363281v-139.09375c48.945312 0 88.753906 39.820313 88.753906 88.753907zm0 0" fill="#4b5be6"/><path d="m381.074219 409.40625h196.996093v128.566406h-196.996093zm0 0" fill="#ffdb2d"/><path d="m479.574219 409.40625h98.496093v128.566406h-98.496093zm0 0" fill="#ffaa20"/></svg>