<svg height="682pt" viewBox="-67 -21 682 682.66669" width="682pt" xmlns="http://www.w3.org/2000/svg"><path d="m-2.75 0h404.976562v640h-404.976562zm0 0" fill="#e1e1e3"/><path d="m199.734375 0h202.492187v640h-202.492187zm0 0" fill="#d9d9db"/><path d="m-2.75 512.101562h404.976562v127.898438h-404.976562zm0 0" fill="#72fcba"/><path d="m199.734375 512.101562h202.492187v127.898438h-202.492187zm0 0" fill="#33e58c"/><path d="m-2.75 0h404.976562v108.988281h-404.976562zm0 0" fill="#72fcba"/><path d="m181.199219 566.875h37.078125v37.089844h-37.078125zm0 0" fill="#fff"/><path d="m199.734375 566.875h18.542969v37.089844h-18.542969zm0 0" fill="#e1e1e3"/><path d="m199.734375 0h202.492187v108.988281h-202.492187zm0 0" fill="#33e58c"/><path d="m545.152344 310.550781c0 78.808594-64.113282 142.925781-142.925782 142.925781s-142.925781-64.117187-142.925781-142.925781c0-78.8125 64.113281-142.9375 142.925781-142.9375s142.925782 64.125 142.925782 142.9375zm0 0" fill="#ffdb2d"/><path d="m545.152344 310.550781c0 78.808594-64.113282 142.925781-142.925782 142.925781v-285.863281c78.8125 0 142.925782 64.125 142.925782 142.9375zm0 0" fill="#ffaa20"/><g fill="#ff9a00"><path d="m458.6875 320.039062-30.699219 21.539063c-5.328125-7.578125-15.1875-12.277344-25.761719-12.277344-10.578124 0-20.441406 4.699219-25.761718 12.277344l-30.703125-21.539063c12.410156-17.691406 33.523437-28.238281 56.464843-28.238281 22.933594 0 44.046876 10.546875 56.460938 28.238281zm0 0"/><path d="m513.539062 285.800781-30.703124 21.539063c-17.273438-24.625-47.410157-39.328125-80.609376-39.328125-33.199218 0-63.339843 14.703125-80.617187 39.328125l-30.695313-21.539063c24.285157-34.625 65.898438-55.289062 111.3125-55.289062 45.410157 0 87.027344 20.664062 111.3125 55.289062zm0 0"/><path d="m422.4375 371.851562c0 11.160157-9.050781 20.210938-20.210938 20.210938-11.164062 0-20.214843-9.050781-20.214843-20.210938 0-11.164062 9.050781-20.214843 20.214843-20.214843 11.160157 0 20.210938 9.050781 20.210938 20.214843zm0 0"/></g><path d="m422.4375 371.851562c0 11.160157-9.050781 20.210938-20.210938 20.210938v-40.425781c11.160157 0 20.210938 9.050781 20.210938 20.214843zm0 0" fill="#e67500"/><path d="m458.6875 320.039062-30.699219 21.539063c-5.328125-7.578125-15.1875-12.277344-25.761719-12.277344v-37.5c22.933594 0 44.046876 10.546875 56.460938 28.238281zm0 0" fill="#e67500"/><path d="m513.539062 285.800781-30.703124 21.539063c-17.273438-24.625-47.410157-39.328125-80.609376-39.328125v-37.5c45.410157 0 87.027344 20.664062 111.3125 55.289062zm0 0" fill="#e67500"/></svg>