<svg height="682pt" viewBox="-164 -21 682 682.66669" width="682pt" xmlns="http://www.w3.org/2000/svg"><path d="m301.585938 0v177.476562h-37.5v-.617187l-96.078126-3.132813-114.8125-3.75h-18.761718v-169.976562zm0 0" fill="#e1e1e3"/><path d="m264.085938 176.859375-96.078126-3.132813v-173.726562h133.578126v177.476562h-37.5zm0 0" fill="#d9d9db"/><path d="m107.878906 83.75h37.5v80h-37.5zm0 0" fill="#97a1f0"/><path d="m190.636719 83.75h37.5v80h-37.5zm0 0" fill="#4b5be6"/><path d="m345.183594 151.226562v311.601563c0 97.683594-79.476563 177.171875-177.175782 177.171875-97.703124 0-177.175781-79.488281-177.175781-177.171875v-311.601563zm0 0" fill="#77fef6"/><path d="m-9.167969 253.625h354.351563v37.5h-354.351563zm0 0" fill="#e1e1e3"/><path d="m345.183594 151.226562v311.601563c0 97.683594-79.476563 177.171875-177.175782 177.171875v-488.773438zm0 0" fill="#00d9e0"/><path d="m168.007812 253.625h177.175782v37.5h-177.175782zm0 0" fill="#a7aff2"/></svg>