<svg id="Capa_1" enable-background="new 0 0 497 497" height="512" viewBox="0 0 497 497" width="512" xmlns="http://www.w3.org/2000/svg"><g><path d="m397.601 33.133c0-18.299-14.834-33.133-33.133-33.133h-231.936c-18.299 0-33.133 14.834-33.133 33.133v430.735c0 18.299 14.834 33.133 33.133 33.133h231.937c18.299 0 33.133-14.834 33.133-33.133v-430.735z" fill="#868eaf"/><path d="m347.895 33.094-36.76.008c-7.602.002-14.227 5.177-16.069 12.552l-2.013 8.06c-1.843 7.376-8.47 12.552-16.073 12.552h-56.96c-7.603 0-14.229-5.175-16.072-12.551l-2.01-8.043c-1.843-7.377-8.472-12.552-16.076-12.551l-36.766.008c-9.148.002-16.563 7.419-16.563 16.567l.001 397.604c0 9.15 7.417 16.567 16.567 16.567l198.802-.001c9.149 0 16.567-7.417 16.567-16.567l-.003-397.639c-.002-9.15-7.421-16.568-16.572-16.566z" fill="#a0c8ff"/><g><path d="m252.642 40.898h-8.283c-4.289 0-7.766-3.477-7.766-7.766s3.476-7.766 7.766-7.766h8.283c4.289 0 7.766 3.477 7.766 7.766s-3.477 7.766-7.766 7.766z" fill="#7d83ad"/></g><path d="m364.468 0h-23.815c18.298 0 33.133 14.834 33.133 33.133v430.735c0 18.299-14.834 33.133-33.133 33.133h23.815c18.299 0 33.133-14.834 33.133-33.133v-430.735c0-18.299-14.834-33.133-33.133-33.133z" fill="#7d83ad"/><g><path d="m364.465 49.661c0-9.151-7.419-16.569-16.57-16.567l-23.966.005c9.104.053 16.469 7.445 16.469 16.562l.003 397.639c0 9.15-7.417 16.567-16.566 16.567l-174.737.001h.001l198.803-.001c9.15 0 16.567-7.417 16.567-16.567z" fill="#91b2fa"/></g><g><g><path d="m184.322 273.357c7.359 28.578 33.302 49.694 64.177 49.694 30.878 0 56.823-21.119 64.179-49.7v-49.701c-7.356-28.581-33.302-49.7-64.179-49.7s-56.823 21.119-64.179 49.7z" fill="#89dd8e"/><g fill="#79d191"><g><path d="m264.831 221.708c.373 4.273 4.157 7.429 8.412 7.06 4.273-.373 7.434-4.14 7.061-8.412-1.325-15.165-4.472-30.85-9.773-42.656-6.74-2.375-13.982-3.682-21.521-3.74 3.833 1.233 13.018 15.647 15.821 47.748z"/><path d="m226.469 177.7c-5.301 11.806-8.449 27.491-9.773 42.657-.373 4.273 2.788 8.039 7.061 8.412.23.02.458.03.685.03 3.983 0 7.374-3.048 7.727-7.091 2.803-32.101 11.988-46.515 15.822-47.747-7.54.057-14.782 1.364-21.522 3.739z"/></g><g><path d="m232.169 275.293c-.372-4.273-4.143-7.424-8.412-7.061-4.273.373-7.434 4.139-7.061 8.412 1.324 15.166 4.471 30.85 9.773 42.656 6.74 2.375 13.982 3.683 21.522 3.74-3.834-1.233-13.02-15.647-15.822-47.747z"/><path d="m270.53 319.3c5.301-11.806 8.449-27.491 9.773-42.656.373-4.273-2.788-8.039-7.061-8.412-4.267-.368-8.039 2.788-8.412 7.06-2.803 32.101-11.988 46.515-15.822 47.748 7.54-.057 14.782-1.365 21.522-3.74z"/></g></g></g><path d="m323.334 273.35h-149.668c-4.418 0-8-3.582-8-8v-33.7c0-4.418 3.582-8 8-8h149.668c4.418 0 8 3.582 8 8v33.7c0 4.418-3.582 8-8 8z" fill="#f9f5f3"/><path d="m323.05 223.65h-23.815c4.575 0 8.283 3.709 8.283 8.283v33.134c0 4.575-3.709 8.283-8.283 8.283h23.815c4.575 0 8.283-3.709 8.283-8.283v-33.134c.001-4.574-3.708-8.283-8.283-8.283z" fill="#f9eae0"/></g></g></svg>