<svg id="Capa_1" enable-background="new 0 0 504.5 504.5" height="512" viewBox="0 0 504.5 504.5" width="512" xmlns="http://www.w3.org/2000/svg"><g><g><path d="m178.25 388.533h148l-18.894-33.133h-110.212z" fill="#868eaf"/><path d="m235.683 155.5v65.61c0 1.158-.251 2.301-.736 3.352l-98.664 213.771v5h33.133v-5l74.317-161.02c1.307-2.833 4.142-4.647 7.262-4.648h2.505c3.121-.001 5.957 1.814 7.265 4.648l74.317 161.02v5h33.133v-5l-98.664-213.771c-.485-1.051-.736-2.195-.736-3.352v-65.61z" fill="#bdd3dd"/><path d="m269.553 224.462c-.485-1.051-.736-2.195-.736-3.352v-65.61h-23v65.61c0 1.158.251 2.301.736 3.352l98.664 213.771v5h23v-5z" fill="#abc4d6"/><path d="m185.983 476.367h-66.267v-30.133c0-4.418 3.582-8 8-8h50.267c4.418 0 8 3.582 8 8z" fill="#a0c8ff"/><path d="m318.517 476.367h66.267v-30.133c0-4.418-3.582-8-8-8h-50.267c-4.418 0-8 3.582-8 8z" fill="#a0c8ff"/><path d="m376.783 438.233h-22.867c4.418 0 8 3.582 8 8v30.133h22.867v-30.133c0-4.418-3.581-8-8-8z" fill="#91b2fa"/><path d="m177.983 438.233h-22.867c4.418 0 8 3.582 8 8v30.133h22.867v-30.133c0-4.418-3.581-8-8-8z" fill="#91b2fa"/><path d="m272.278 230.367-2.725-5.905c-.485-1.051-.736-2.195-.736-3.352v-5.743h-33.133v5.743c0 1.158-.251 2.301-.736 3.352l-2.725 5.905z" fill="#a0c8ff"/><ellipse cx="252.25" cy="140.033" fill="#bdd3dd" rx="33.133" ry="33.133" transform="matrix(.135 -.991 .991 .135 79.499 371.11)"/><path d="m278.304 140.033c0 18.299-7.755 33.133-26.054 33.133s-33.133-14.834-33.133-33.133 14.834-33.133 33.133-33.133 26.054 14.834 26.054 33.133z" fill="#bdd3dd"/><path d="m252.25 106.9c-4.044 0-7.917.727-11.5 2.053 12.63 4.675 21.633 16.825 21.633 31.08s-9.004 26.405-21.633 31.08c3.583 1.326 7.456 2.053 11.5 2.053 18.299 0 33.133-14.834 33.133-33.133s-14.834-33.133-33.133-33.133z" fill="#abc4d6"/></g><g><g><g><path d="m290.788 201.452c-2.337 0-4.64-1.089-6.104-3.135-2.411-3.368-1.635-8.053 1.732-10.464 15.404-11.028 24.601-28.905 24.601-47.82 0-32.404-26.362-58.767-58.767-58.767-32.404 0-58.767 26.363-58.767 58.767 0 18.915 9.196 36.792 24.599 47.82 3.368 2.411 4.144 7.096 1.732 10.464-2.411 3.368-7.098 4.143-10.464 1.732-19.329-13.837-30.868-36.273-30.868-60.016 0-40.675 33.092-73.767 73.767-73.767s73.767 33.092 73.767 73.767c0 23.743-11.54 46.179-30.868 60.017-1.323.947-2.848 1.402-4.36 1.402z" fill="#a0c8ff"/></g><g><path d="m199.537 231.826c-1.36 0-2.737-.37-3.975-1.145-31.441-19.701-50.211-53.587-50.211-90.647 0-58.945 47.955-106.9 106.9-106.9s106.9 47.955 106.9 106.9c0 37.059-18.771 70.945-50.212 90.647-3.512 2.198-8.139 1.136-10.338-2.373-2.199-3.51-1.137-8.138 2.373-10.338 27.036-16.941 43.177-46.076 43.177-77.936 0-50.674-41.227-91.9-91.9-91.9s-91.9 41.226-91.9 91.9c0 31.861 16.141 60.996 43.176 77.936 3.51 2.199 4.572 6.828 2.373 10.338-1.424 2.271-3.866 3.518-6.363 3.518z" fill="#a0c8ff"/></g><g><path d="m319.057 262.027c-2.577 0-5.086-1.33-6.481-3.715-2.091-3.576-.887-8.169 2.689-10.26 38.255-22.368 62.02-63.758 62.02-108.018-.002-68.944-56.092-125.034-125.035-125.034s-125.033 56.09-125.033 125.033c0 44.259 23.763 85.649 62.017 108.017 3.576 2.091 4.78 6.685 2.689 10.26-2.091 3.577-6.686 4.778-10.26 2.689-20.747-12.131-38.138-29.502-50.294-50.235-12.529-21.369-19.151-45.827-19.151-70.73-.001-77.215 62.818-140.034 140.032-140.034 77.215 0 140.033 62.819 140.033 140.033 0 24.904-6.622 49.363-19.151 70.731-12.156 20.733-29.549 38.105-50.296 50.236-1.19.696-2.493 1.027-3.779 1.027z" fill="#a0c8ff"/></g></g></g><path d="m476.183 504.5h-447.866c-4.418 0-8-3.582-8-8v-17.156c0-4.418 3.582-8 8-8h447.867c4.418 0 8 3.582 8 8v17.156c-.001 4.418-3.582 8-8.001 8z" fill="#f9f5f3"/><path d="m476.027 471.344h-23.448c4.504 0 8.156 3.652 8.156 8.156v16.845c0 4.504-3.652 8.156-8.156 8.156h23.448c4.504 0 8.156-3.651 8.156-8.156v-16.845c0-4.505-3.651-8.156-8.156-8.156z" fill="#f9eae0"/></g></svg>