<svg id="Capa_1" enable-background="new 0 0 504.5 504.5" height="512" viewBox="0 0 504.5 504.5" width="512" xmlns="http://www.w3.org/2000/svg"><g><g><path d="m136.284 471.366-14.355 28.711c-1.355 2.71-4.125 4.422-7.155 4.422h-15.246c-5.947 0-9.815-6.258-7.155-11.578l10.778-21.556v-8.033h33.134v8.034z" fill="#7d83ad"/><path d="m368.217 471.366 14.355 28.712c1.355 2.71 4.125 4.422 7.155 4.422h15.245c5.947 0 9.815-6.258 7.156-11.578l-10.778-21.556v-8.033h-33.133z" fill="#7d83ad"/><path d="m36.884 367.467c-18.299 0-33.132 14.834-33.132 33.132v37.636c0 18.299 14.834 33.132 33.132 33.132h430.732c18.299 0 33.132-14.834 33.132-33.132v-37.636c0-18.298-14.834-33.132-33.132-33.132z" fill="#868eaf"/><path d="m467.616 123.467h-23c18.298 0 33.132 14.834 33.132 33.132v281.636c0 18.299-14.834 33.133-33.132 33.133h23c18.298 0 33.132-14.834 33.132-33.133v-281.636c.001-18.298-14.833-33.132-33.132-33.132z" fill="#7d83ad"/><path d="m467.616 123.467h-430.732c-18.298 0-33.132 14.834-33.132 33.132v248.501h496.997v-248.501c0-18.298-14.834-33.132-33.133-33.132z" fill="#a0c8ff"/><path d="m467.616 123.467h-23c18.298 0 33.132 14.834 33.132 33.132v248.501h23v-248.501c.001-18.298-14.833-33.132-33.132-33.132z" fill="#91b2fa"/><g><path d="m401.35 445.733h-16.566c-4.143 0-7.5-3.358-7.5-7.5s3.357-7.5 7.5-7.5h16.566c4.143 0 7.5 3.358 7.5 7.5 0 4.143-3.357 7.5-7.5 7.5z" fill="#f9f5f3"/></g><g><path d="m351.651 445.733h-16.567c-4.143 0-7.5-3.358-7.5-7.5s3.357-7.5 7.5-7.5h16.567c4.143 0 7.5 3.358 7.5 7.5 0 4.143-3.358 7.5-7.5 7.5z" fill="#f9f5f3"/></g><g><g><path d="m451.05 445.733h-16.566c-4.143 0-7.5-3.358-7.5-7.5s3.357-7.5 7.5-7.5h16.566c4.143 0 7.5 3.358 7.5 7.5 0 4.143-3.357 7.5-7.5 7.5z" fill="#fa8ebb"/></g></g><g><path d="m376.784 322.267h-249.067c-4.418 0-8-3.582-8-8v-99.967c0-4.418 3.582-8 8-8h249.067c4.418 0 8 3.582 8 8v99.967c0 4.418-3.582 8-8 8z" fill="#89dd8e"/><g><g><g><path d="m185.984 296.633h-33.134c-4.143 0-7.5-3.358-7.5-7.5v-49.7c0-4.142 3.357-7.5 7.5-7.5s7.5 3.358 7.5 7.5v42.2h25.634c4.143 0 7.5 3.358 7.5 7.5s-3.358 7.5-7.5 7.5z" fill="#f9f5f3"/></g><g><path d="m219.117 296.633c-4.143 0-7.5-3.358-7.5-7.5v-49.7c0-4.142 3.357-7.5 7.5-7.5s7.5 3.358 7.5 7.5v49.7c0 4.142-3.358 7.5-7.5 7.5z" fill="#f9f5f3"/></g><g><path d="m268.817 296.633c-3.228 0-6.095-2.066-7.115-5.128l-16.566-49.7c-1.31-3.93.814-8.177 4.743-9.487 3.93-1.311 8.178.813 9.487 4.744l9.451 28.355 9.452-28.355c1.31-3.93 5.555-6.055 9.487-4.744 3.93 1.31 6.053 5.558 4.743 9.487l-16.567 49.7c-1.021 3.062-3.888 5.128-7.115 5.128z" fill="#f9f5f3"/></g><path d="m351.651 281.633h-25.634v-9.85h17.35c4.143 0 7.5-3.358 7.5-7.5s-3.357-7.5-7.5-7.5h-17.35v-9.85h25.634c4.143 0 7.5-3.358 7.5-7.5s-3.357-7.5-7.5-7.5h-33.134c-4.143 0-7.5 3.358-7.5 7.5v49.7c0 4.142 3.357 7.5 7.5 7.5h33.134c4.143 0 7.5-3.358 7.5-7.5s-3.358-7.5-7.5-7.5z" fill="#f9f5f3"/></g></g><path d="m376.784 206.3h-23c4.418 0 8 3.582 8 8v99.967c0 4.418-3.582 8-8 8h23c4.418 0 8-3.582 8-8v-99.967c0-4.418-3.582-8-8-8z" fill="#79d191"/></g></g><g><g><g><path d="m168.928 44.466c-2.186 0-4.353-.95-5.834-2.781-2.606-3.219-2.109-7.942 1.11-10.548 24.805-20.079 56.074-31.137 88.046-31.137s63.24 11.058 88.045 31.136c3.22 2.606 3.717 7.329 1.11 10.548-2.603 3.22-7.327 3.718-10.548 1.111-22.142-17.924-50.059-27.795-78.607-27.795-28.549 0-56.466 9.872-78.608 27.796-1.389 1.124-3.057 1.67-4.714 1.67z" fill="#a0c8ff"/></g><g><path d="m319.358 74.207c-1.81 0-3.624-.65-5.064-1.969-16.974-15.545-39.009-24.105-62.044-24.105-23.033 0-45.067 8.56-62.043 24.103-3.056 2.797-7.798 2.588-10.596-.467s-2.589-7.799.467-10.597c19.748-18.082 45.379-28.04 72.172-28.04 26.795 0 52.428 9.959 72.175 28.043 3.055 2.797 3.263 7.542.466 10.596-1.48 1.616-3.503 2.436-5.533 2.436z" fill="#a0c8ff"/></g><g><path d="m302.766 104.638c-2.125.001-4.234-.897-5.719-2.643-11.197-13.174-27.525-20.729-44.797-20.729-17.27 0-33.598 7.555-44.796 20.727-2.683 3.155-7.417 3.54-10.571.856-3.156-2.683-3.54-7.416-.856-10.572 14.053-16.53 34.546-26.011 56.224-26.011 21.68 0 42.174 9.482 56.227 26.014 2.683 3.156 2.299 7.889-.858 10.572-1.412 1.2-3.137 1.786-4.854 1.786z" fill="#a0c8ff"/></g></g></g></g></svg>