<svg id="Capa_1" enable-background="new 0 0 497 497" height="512" viewBox="0 0 497 497" width="512" xmlns="http://www.w3.org/2000/svg"><g><path d="m173.95 372.5v99.933c0 4.418 3.582 8 8 8h17.133c4.418 0 8-3.582 8-8v-99.933z" fill="#abc4d6"/><path d="m132.533 381.033-36.801 88.323c-2.196 5.27 1.676 11.077 7.385 11.077h24.083c3.23 0 6.143-1.942 7.385-4.923l39.365-94.477v-8.533h-41.417z" fill="#bdd3dd"/><path d="m248.5 381.033 36.801 88.323c2.196 5.27-1.676 11.077-7.385 11.077h-24.083c-3.23 0-6.142-1.942-7.385-4.923l-39.365-94.477v-8.533h41.417z" fill="#bdd3dd"/><path d="m115.967 341.9v31.133c0 4.418 3.582 8 8 8h133.1c4.418 0 8-3.582 8-8v-31.133z" fill="#a0c8ff"/><path d="m242.067 341.9v31.133c0 4.418-3.582 8-8 8h23c4.418 0 8-3.582 8-8v-31.133z" fill="#91b2fa"/><path d="m372.033 198.8h51.133v66.267h-51.133z" fill="#bdd3dd"/><path d="m271.5 33.133h53.4v33.133h-53.4z" fill="#bdd3dd"/><path d="m122.259 62.839 18.557-37.114c2.806-5.613 8.543-9.158 14.818-9.158h109.432c9.15 0 16.567 7.417 16.567 16.567v88.833h-33.133v-64.267c0-4.418-3.582-8-8-8h-69.682c-3.03 0-5.8 1.712-7.155 4.422l-22.785 45.569h-18.618v-36.852z" fill="#a0c8ff"/><g><g><g><path d="m265.067 16.567h-23c9.149 0 16.567 7.417 16.567 16.567v88.833h23v-88.834c-.001-9.149-7.418-16.566-16.567-16.566z" fill="#91b2fa"/></g></g></g><path d="m33.133 347.9h314.767c18.299 0 33.133-14.834 33.133-33.133v-165.667c0-18.299-14.834-33.133-33.133-33.133h-193.879c-3.018 0-5.779-1.699-7.14-4.393l-26.664-52.778c-2.818-5.579-8.537-9.096-14.787-9.096h-72.297c-18.299 0-33.133 14.834-33.133 33.133v231.933c0 18.3 14.834 33.134 33.133 33.134z" fill="#868eaf"/><g><g><g><path d="m347.9 115.967h-23c18.299 0 33.133 14.834 33.133 33.133v165.667c0 18.299-14.834 33.133-33.133 33.133h23c18.299 0 33.133-14.834 33.133-33.133v-165.667c0-18.299-14.834-33.133-33.133-33.133z" fill="#7d83ad"/></g><g><path d="m97.217 58.796 26.664 52.778c1.361 2.694 4.122 4.393 7.14 4.393h23c-3.018 0-5.779-1.699-7.14-4.393l-26.664-52.778c-2.818-5.579-8.537-9.096-14.787-9.096h-23c6.25 0 11.969 3.518 14.787 9.096z" fill="#7d83ad"/></g></g></g><ellipse cx="314.767" cy="165.667" fill="#fa8ebb" rx="16.567" ry="16.567" transform="matrix(.636 -.771 .771 .636 -13.341 303.031)"/><path d="m240.5 281.633h-149.667c-4.418 0-8-3.582-8-8v-83.4c0-4.418 3.582-8 8-8h149.667c4.418 0 8 3.582 8 8v83.4c0 4.419-3.582 8-8 8z" fill="#bdd3dd"/><g><g><path d="m331.333 289.133h-33.133c-4.142 0-7.5-3.358-7.5-7.5s3.358-7.5 7.5-7.5h33.133c4.142 0 7.5 3.358 7.5 7.5s-3.357 7.5-7.5 7.5z" fill="#bdd3dd"/></g></g><path d="m414.167 265.067 47.357 47.357c1.5 1.5 3.535 2.343 5.657 2.343h21.536c4.575 0 8.283-3.709 8.283-8.283v-149.1c0-4.575-3.709-8.283-8.283-8.283h-21.537c-2.122 0-4.157.843-5.657 2.343l-47.356 47.356z" fill="#868eaf"/><g><g><path d="m124.25 243.575c-4.142 0-7.5-3.358-7.5-7.5v-8.284c0-4.142 3.358-7.5 7.5-7.5s7.5 3.358 7.5 7.5v8.284c0 4.142-3.358 7.5-7.5 7.5z" fill="#abc4d6"/></g></g><g><g><path d="m165.666 243.575c-4.142 0-7.5-3.358-7.5-7.5v-8.284c0-4.142 3.358-7.5 7.5-7.5s7.5 3.358 7.5 7.5v8.284c0 4.142-3.357 7.5-7.5 7.5z" fill="#abc4d6"/></g></g><g><g><path d="m207.083 243.575c-4.142 0-7.5-3.358-7.5-7.5v-8.284c0-4.142 3.358-7.5 7.5-7.5s7.5 3.358 7.5 7.5v8.284c0 4.142-3.357 7.5-7.5 7.5z" fill="#abc4d6"/></g></g><path d="m240.5 182.233h-23c4.418 0 8 3.582 8 8v83.4c0 4.418-3.582 8-8 8h23c4.418 0 8-3.582 8-8v-83.4c0-4.418-3.582-8-8-8z" fill="#abc4d6"/><path d="m0 115.967h154.021c-3.018 0-5.779-1.699-7.14-4.393l-5.359-10.607h-141.522z" fill="#7d83ad"/><path d="m397.6 82.833c18.608 0 33.634-15.34 33.121-34.064-.495-18.047-15.756-32.202-33.81-32.202h-73.861c-4.575 0-8.283 3.708-8.283 8.283v49.7c0 4.575 3.708 8.283 8.283 8.283z" fill="#a0c8ff"/><path d="m430.721 48.769c-.495-18.047-15.756-32.202-33.81-32.202h-49.011v66.267h49.7c18.608-.001 33.634-15.341 33.121-34.065z" fill="#868eaf"/><path d="m430.721 48.769c-.495-18.047-15.756-32.202-33.81-32.202h-23c18.054 0 33.315 14.155 33.81 32.202.513 18.724-14.512 34.064-33.121 34.064h23c18.608 0 33.634-15.34 33.121-34.064z" fill="#7d83ad"/><path d="m461.523 151.443-5.157 5.157v150.667l5.157 5.157c1.5 1.5 3.535 2.343 5.657 2.343h4.186v-165.667h-4.186c-2.121 0-4.156.843-5.657 2.343z" fill="#a0c8ff"/></g></svg>