<svg id="Capa_1" enable-background="new 0 0 497 497" height="512" viewBox="0 0 497 497" width="512" xmlns="http://www.w3.org/2000/svg"><g><path d="m406.168 82.832c4.418 0 8-3.582 8-8v-50.267c0-4.418-3.582-8-8-8h-315.336c-4.418 0-8 3.582-8 8v50.267c0 4.418 3.582 8 8 8z" fill="#bdd3dd"/><path d="m406.168 82.832c4.418 0 8-3.582 8-8v-50.267c0-4.418-3.582-8-8-8h-315.336c-4.418 0-8 3.582-8 8v50.267c0 4.418 3.582 8 8 8z" fill="#bdd3dd"/><path d="m381.034 8.283c0-4.575-3.709-8.283-8.283-8.283h-248.5c-4.575 0-8.283 3.709-8.283 8.283v455.584c0 18.299 14.834 33.133 33.133 33.133h198.802c18.299 0 33.133-14.834 33.133-33.133v-455.584z" fill="#868eaf"/><g><path d="m182.233 40.632h-24.85c-4.142 0-7.5-3.358-7.5-7.5s3.358-7.5 7.5-7.5h24.85c4.142 0 7.5 3.358 7.5 7.5s-3.358 7.5-7.5 7.5z" fill="#a0c8ff"/></g><g><path d="m339.9 198.8h-182.801c-4.418 0-8-3.582-8-8v-116.534c0-4.418 3.582-8 8-8h182.801c4.418 0 8 3.582 8 8v116.534c0 4.418-3.581 8-8 8z" fill="#7d83ad"/><path d="m306.767 165.666h-116.534c-4.418 0-8-3.582-8-8v-50.267c0-4.418 3.582-8 8-8h116.534c4.418 0 8 3.582 8 8v50.267c0 4.419-3.582 8-8 8z" fill="#a0c8ff"/><path d="m306.767 99.399h-23c4.418 0 8 3.582 8 8v50.267c0 4.418-3.582 8-8 8h23c4.418 0 8-3.582 8-8v-50.267c0-4.418-3.582-8-8-8z" fill="#91b2fa"/></g><g fill="#bdd3dd"><circle cx="165.666" cy="248.5" r="16.567"/><circle cx="331.334" cy="248.5" r="16.567"/><ellipse cx="248.5" cy="265.067" rx="33.134" ry="33.134" transform="matrix(.861 -.509 .509 .861 -100.375 163.585)"/></g><g><g><g><g><path d="m207.083 388.534h-16.567c-4.142 0-7.5-3.358-7.5-7.5s3.358-7.5 7.5-7.5h16.567c4.142 0 7.5 3.358 7.5 7.5s-3.358 7.5-7.5 7.5z" fill="#7d83ad"/></g><g><path d="m256.783 388.534h-16.566c-4.142 0-7.5-3.358-7.5-7.5s3.358-7.5 7.5-7.5h16.566c4.143 0 7.5 3.358 7.5 7.5s-3.357 7.5-7.5 7.5z" fill="#7d83ad"/></g><g><path d="m306.483 388.534h-16.566c-4.143 0-7.5-3.358-7.5-7.5s3.357-7.5 7.5-7.5h16.566c4.143 0 7.5 3.358 7.5 7.5s-3.357 7.5-7.5 7.5z" fill="#7d83ad"/></g></g><g><g><path d="m207.083 454.801h-16.567c-4.142 0-7.5-3.358-7.5-7.5s3.358-7.5 7.5-7.5h16.567c4.142 0 7.5 3.358 7.5 7.5s-3.358 7.5-7.5 7.5z" fill="#7d83ad"/></g><g><path d="m256.783 454.801h-16.566c-4.142 0-7.5-3.358-7.5-7.5s3.358-7.5 7.5-7.5h16.566c4.143 0 7.5 3.358 7.5 7.5s-3.357 7.5-7.5 7.5z" fill="#7d83ad"/></g><g><path d="m306.483 454.801h-16.566c-4.143 0-7.5-3.358-7.5-7.5s3.357-7.5 7.5-7.5h16.566c4.143 0 7.5 3.358 7.5 7.5s-3.357 7.5-7.5 7.5z" fill="#7d83ad"/></g></g><g><g><path d="m182.233 421.668h-16.567c-4.142 0-7.5-3.358-7.5-7.5s3.358-7.5 7.5-7.5h16.567c4.142 0 7.5 3.358 7.5 7.5s-3.358 7.5-7.5 7.5z" fill="#7d83ad"/></g><g><path d="m231.933 421.668h-16.566c-4.142 0-7.5-3.358-7.5-7.5s3.358-7.5 7.5-7.5h16.566c4.142 0 7.5 3.358 7.5 7.5s-3.358 7.5-7.5 7.5z" fill="#7d83ad"/></g><g><path d="m281.634 421.668h-16.567c-4.143 0-7.5-3.358-7.5-7.5s3.357-7.5 7.5-7.5h16.567c4.143 0 7.5 3.358 7.5 7.5s-3.358 7.5-7.5 7.5z" fill="#7d83ad"/></g><g><path d="m331.334 421.668h-16.567c-4.143 0-7.5-3.358-7.5-7.5s3.357-7.5 7.5-7.5h16.567c4.143 0 7.5 3.358 7.5 7.5s-3.357 7.5-7.5 7.5z" fill="#7d83ad"/></g></g></g></g><path d="m372.75 0h-23c4.575 0 8.283 3.709 8.283 8.283v455.584c0 18.299-14.834 33.133-33.133 33.133h23c18.299 0 33.133-14.834 33.133-33.133v-455.584c.001-4.574-3.708-8.283-8.283-8.283z" fill="#7d83ad"/><path d="m115.966 338.834h265.067.001v-15h-.001-265.067z" fill="#7d83ad"/><path d="m248.5 231.933c-4.044 0-7.917.727-11.5 2.053 12.63 4.675 21.633 16.825 21.633 31.081 0 14.255-9.004 26.406-21.633 31.081 3.583 1.326 7.456 2.053 11.5 2.053 18.299 0 33.133-14.834 33.133-33.134s-14.834-33.134-33.133-33.134z" fill="#abc4d6"/></g></svg>