<svg id="Capa_1" enable-background="new 0 0 497 497" height="512" viewBox="0 0 497 497" width="512" xmlns="http://www.w3.org/2000/svg"><g><path d="m423.735 33.133c0-18.299-7.834-33.133-26.133-33.133h-298.204c-18.299 0-33.133 14.834-33.133 33.133v33.531 363.748 33.456c0 18.299 14.834 33.133 33.133 33.133h298.205c18.299 0 26.133-14.834 26.133-33.133v-430.735z" fill="#868eaf"/><path d="m397.602 0h-23c18.299 0 33.133 14.834 33.133 33.133v430.735c0 18.299-14.834 33.133-33.133 33.133h23c18.299 0 33.133-14.834 33.133-33.133v-33.132-364.366-33.237c0-18.299-14.834-33.133-33.133-33.133z" fill="#7d83ad"/><path d="m66.265 66.266h364.47v364.469h-364.47z" fill="#a0c8ff"/><g><g><path d="m281.634 40.632h-66.268c-4.143 0-7.5-3.357-7.5-7.5s3.357-7.5 7.5-7.5h66.268c4.143 0 7.5 3.358 7.5 7.5s-3.358 7.5-7.5 7.5z" fill="#7d83ad"/></g><g><g><path d="m331.334 40.632h-16.567c-4.143 0-7.5-3.357-7.5-7.5s3.357-7.5 7.5-7.5h16.567c4.143 0 7.5 3.358 7.5 7.5s-3.357 7.5-7.5 7.5z" fill="#a0c8ff"/></g></g></g><g><path d="m265.066 471.368h-33.133c-4.143 0-7.5-3.357-7.5-7.5s3.357-7.5 7.5-7.5h33.133c4.143 0 7.5 3.357 7.5 7.5s-3.357 7.5-7.5 7.5z" fill="#f9f5f3"/></g><path d="m407.735 66.266h23v364.469h-23z" fill="#91b2fa"/><g><path d="m389.601 364.467h-282.202c-4.418 0-8-3.582-8-8v-215.934c0-4.418 3.582-8 8-8h282.202c4.418 0 8 3.582 8 8v215.935c0 4.418-3.582 7.999-8 7.999z" fill="#fa8ebb"/><g><circle cx="149.099" cy="248.5" fill="#f9f5f3" r="16.567"/><g><g><path d="m198.8 289.134c-4.142 0-7.5-3.357-7.5-7.5v-66.268c0-4.143 3.358-7.5 7.5-7.5h16.567c13.27 0 24.066 10.797 24.066 24.067 0 13.271-10.796 24.066-24.066 24.066h-9.067v25.634c0 4.143-3.358 7.501-7.5 7.501zm7.5-48.134h9.067c4.999 0 9.066-4.067 9.066-9.066 0-5-4.067-9.067-9.066-9.067h-9.067z" fill="#868eaf"/></g></g><g><g><path d="m347.9 289.134c-13.27 0-24.066-10.797-24.066-24.067v-33.133c0-13.27 10.796-24.067 24.066-24.067 13.271 0 24.067 10.797 24.067 24.067 0 4.143-3.358 7.5-7.5 7.5s-7.5-3.357-7.5-7.5c0-5-4.067-9.067-9.067-9.067-4.999 0-9.066 4.067-9.066 9.067v33.133c0 5 4.067 9.067 9.066 9.067s9.067-4.067 9.067-9.067c0-4.143 3.358-7.5 7.5-7.5s7.5 3.357 7.5 7.5c0 13.27-10.796 24.067-24.067 24.067z" fill="#868eaf"/></g></g><path d="m298.2 274.134h-25.633v-18.134h17.35c4.142 0 7.5-3.357 7.5-7.5s-3.358-7.5-7.5-7.5h-17.35v-18.134h25.633c4.142 0 7.5-3.357 7.5-7.5s-3.358-7.5-7.5-7.5h-33.133c-4.142 0-7.5 3.357-7.5 7.5v66.268c0 4.143 3.358 7.5 7.5 7.5h33.133c4.142 0 7.5-3.357 7.5-7.5s-3.358-7.5-7.5-7.5z" fill="#868eaf"/><g><g><path d="m231.939 289.136c-2.752 0-5.4-1.52-6.714-4.147l-16.566-33.134c-1.853-3.705-.351-8.21 3.354-10.063 3.706-1.853 8.209-.351 10.062 3.353l16.566 33.134c1.853 3.705.351 8.21-3.354 10.063-1.077.538-2.221.794-3.348.794z" fill="#868eaf"/></g></g></g><g><path d="m132.533 189.733c-4.142 0-7.5-3.357-7.5-7.5v-16.567c0-4.143 3.358-7.5 7.5-7.5h16.567c4.142 0 7.5 3.357 7.5 7.5s-3.358 7.5-7.5 7.5h-9.067v9.067c0 4.143-3.358 7.5-7.5 7.5z" fill="#f9f5f3"/></g><g><path d="m364.467 189.733c-4.142 0-7.5-3.357-7.5-7.5v-9.067h-9.067c-4.142 0-7.5-3.357-7.5-7.5s3.358-7.5 7.5-7.5h16.567c4.142 0 7.5 3.357 7.5 7.5v16.567c0 4.143-3.358 7.5-7.5 7.5z" fill="#f9f5f3"/></g><g><path d="m364.467 338.834h-16.567c-4.142 0-7.5-3.357-7.5-7.5s3.358-7.5 7.5-7.5h9.067v-9.067c0-4.143 3.358-7.5 7.5-7.5s7.5 3.357 7.5 7.5v16.567c0 4.143-3.358 7.5-7.5 7.5z" fill="#f9f5f3"/></g><g><path d="m149.1 338.834h-16.567c-4.142 0-7.5-3.357-7.5-7.5v-16.567c0-4.143 3.358-7.5 7.5-7.5s7.5 3.357 7.5 7.5v9.067h9.067c4.142 0 7.5 3.357 7.5 7.5s-3.358 7.5-7.5 7.5z" fill="#f9f5f3"/></g><path d="m389.601 132.533h-22.999c4.418 0 8 3.582 8 8v215.935c0 4.418-3.582 8-8 8h22.999c4.418 0 8-3.582 8-8v-215.935c0-4.419-3.582-8-8-8z" fill="#f57fb0"/></g></g></svg>