<svg id="Capa_1" enable-background="new 0 0 497 497" height="512" viewBox="0 0 497 497" width="512" xmlns="http://www.w3.org/2000/svg"><g><path d="m270.144 396.846h23v100h-23z" fill="#abc4d6"/><path d="m270.144 148.812h23v322.556h-23z" fill="#f9f5f3"/><path d="m281.644 463.868v-314.75c.001-18.298 14.834-33.131 33.132-33.131h149.092c18.298 0 33.132 14.834 33.132 33.132v281.619z" fill="#f9f5f3"/><g><g><path d="m414.171 173.184h-49.697c-4.143 0-7.5-3.357-7.5-7.5s3.357-7.5 7.5-7.5h49.697c4.143 0 7.5 3.357 7.5 7.5s-3.358 7.5-7.5 7.5z" fill="#89dd8e"/></g></g><g><g><path d="m447.302 222.882h-115.961c-4.143 0-7.5-3.357-7.5-7.5 0-4.142 3.357-7.5 7.5-7.5h115.961c4.143 0 7.5 3.358 7.5 7.5s-3.357 7.5-7.5 7.5z" fill="#868eaf"/></g></g><g><g><path d="m447.302 256.012h-115.961c-4.143 0-7.5-3.357-7.5-7.5s3.357-7.5 7.5-7.5h115.961c4.143 0 7.5 3.357 7.5 7.5s-3.357 7.5-7.5 7.5z" fill="#868eaf"/></g></g><g><g><path d="m447.302 289.144h-115.961c-4.143 0-7.5-3.357-7.5-7.5s3.357-7.5 7.5-7.5h115.961c4.143 0 7.5 3.357 7.5 7.5s-3.357 7.5-7.5 7.5z" fill="#868eaf"/></g></g><g><g><path d="m447.302 322.276h-115.961c-4.143 0-7.5-3.357-7.5-7.5s3.357-7.5 7.5-7.5h115.961c4.143 0 7.5 3.357 7.5 7.5s-3.357 7.5-7.5 7.5z" fill="#868eaf"/></g></g><g><g><path d="m447.302 355.408h-99.395c-4.143 0-7.5-3.357-7.5-7.5s3.357-7.5 7.5-7.5h99.395c4.143 0 7.5 3.357 7.5 7.5s-3.357 7.5-7.5 7.5z" fill="#868eaf"/></g></g><path d="m281.644 463.868v-314.75c-.001-18.298-14.834-33.131-33.132-33.131h-85.671l-85.384 8.325c-6.851 6.07-11.169 14.934-11.169 24.806v281.619z" fill="#f9f5f3"/><g><path d="m231.947 222.882h-16.54c-4.142 0-7.5-3.357-7.5-7.5 0-4.142 3.358-7.5 7.5-7.5h16.54c4.142 0 7.5 3.358 7.5 7.5s-3.358 7.5-7.5 7.5z" fill="#868eaf"/></g><path d="m258.644 149.117v311.212l23 3.538v-314.75c0-18.298-14.834-33.131-33.132-33.131h-23c18.298.001 33.132 14.834 33.132 33.131z" fill="#f9eae0"/><path d="m463.868 115.987h-23c18.298 0 33.131 14.834 33.131 33.132v281.619l-192.355 29.592v3.538l215.356-33.131v-281.619c0-18.298-14.833-33.131-33.132-33.131z" fill="#f9eae0"/><path d="m281.645 463.868c.001-18.298 14.834-33.131 33.132-33.131h182.223v33.131c0 18.298-14.833 33.132-33.132 33.132h-182.224z" fill="#bdd3dd"/><path d="m281.644 463.868c-.001-18.298-14.834-33.131-33.132-33.131h-182.223v33.131c0 18.298 14.833 33.132 33.131 33.132h182.224z" fill="#bdd3dd"/><g><path d="m271.061 471.368h-149.092c-4.142 0-7.5-3.357-7.5-7.5s3.358-7.5 7.5-7.5h149.092c4.143 0 7.5 3.357 7.5 7.5 0 4.142-3.358 7.5-7.5 7.5z" fill="#abc4d6"/></g><g fill="#abc4d6"><path d="m474 430.737v33.131c0 18.298-14.833 33.132-33.132 33.132h23c18.299 0 33.132-14.834 33.132-33.132v-33.131z"/><path d="m281.644 463.868c0-18.298-14.834-33.131-33.132-33.131h-23c18.298 0 33.131 14.833 33.132 33.131v33.132h23z"/><path d="m430.737 456.368h-148.229c-.558 2.411-.863 4.919-.863 7.5v7.5h149.092c4.143 0 7.5-3.357 7.5-7.5s-3.357-7.5-7.5-7.5z"/></g><g><path d="m201.361 154.503-129.302-129.302-46.858 46.858 129.302 129.302c.816.816 1.79 1.438 2.851 1.835.889.333 2.171-.258 3.139-.258l6.809.766 36.403-36.403-3.658-6.168c-.001-2.121 2.814-5.129 1.314-6.63z" fill="#a0c8ff"/><path d="m201.361 154.503-129.302-129.302-11.476 11.477 133.806 133.806c1.097 1.097 1.838 2.481 2.159 3.974l7.156-7.156-2.426-6.322c0-.915 2.269-2.635 1.97-3.482-.394-1.116-1.034-2.142-1.887-2.995z" fill="#91b2fa"/><g><g><path d="m215.419 222.919c-1.919 0-3.839-.732-5.303-2.197l-26.774-26.774c-2.929-2.929-2.929-7.678 0-10.606 2.929-2.929 7.678-2.929 10.607 0l26.774 26.774c2.929 2.929 2.929 7.678 0 10.606-1.465 1.464-3.385 2.197-5.304 2.197z" fill="#868eaf"/></g></g><path d="m108.493 25.084h15v181.819h-15z" fill="#91b2fa" transform="matrix(.707 -.707 .707 .707 -48.046 115.993)"/><path d="m203.704 195.704v-35.544c0-.966-.183-1.911-.515-2.799l-45.828 45.828c.888.332 1.833.515 2.799.515h35.544c4.418 0 8-3.581 8-8z" fill="#f9eae0"/><path d="m28.281 4.852-23.429 23.429c-6.47 6.47-6.47 16.959 0 23.429l23.429 23.429 46.858-46.858-23.429-23.429c-6.47-6.469-16.959-6.469-23.429 0z" fill="#fa8ebb"/><path d="m28.519 4.637c.078.075.162.139.238.215l34.905 34.905 11.476-11.476-23.428-23.429c-6.393-6.393-16.705-6.457-23.191-.215z" fill="#f57fb0"/></g></g></svg>