<svg id="Capa_1" enable-background="new 0 0 497 497" height="512" viewBox="0 0 497 497" width="512" xmlns="http://www.w3.org/2000/svg"><g><path d="m57.293 81.798h382.413v307.518h-382.413z" fill="#a0c8ff"/><path d="m66.265 377.925-.001-278.524c0-4.575 3.708-8.283 8.283-8.283h347.905c4.575 0 8.283 3.709 8.283 8.283v278.525h33.131v-286.811c0-18.299-14.834-33.132-33.133-33.132h-364.468c-18.299 0-33.133 14.834-33.133 33.132v286.812z" fill="#868eaf"/><g><path d="m430.734 57.983h-23.815c18.299 0 33.132 14.834 33.132 33.133v286.81h23.815v-286.811c0-18.298-14.834-33.132-33.132-33.132z" fill="#7d83ad"/></g><g><g><g><path d="m149.098 239.7c-2.89 0-5.607-1.62-6.943-4.293l-18.422-36.844v33.371c0 4.289-3.476 7.766-7.766 7.766s-7.766-3.476-7.766-7.766v-66.267c0-3.602 2.476-6.73 5.981-7.558 3.51-.829 7.119.865 8.73 4.085l18.422 36.844v-33.371c0-4.289 3.476-7.766 7.766-7.766 4.289 0 7.766 3.476 7.766 7.766v66.267c0 3.602-2.476 6.73-5.981 7.558-.597.14-1.196.208-1.787.208z" fill="#868eaf"/></g><path d="m215.367 206.566c4.289 0 7.766-3.476 7.766-7.766s-3.476-7.766-7.766-7.766h-25.368v-17.602h25.368c4.289 0 7.766-3.476 7.766-7.766s-3.476-7.766-7.766-7.766h-33.133c-4.289 0-7.766 3.476-7.766 7.766v66.267c0 4.289 3.476 7.766 7.766 7.766h33.133c4.289 0 7.766-3.476 7.766-7.766s-3.476-7.766-7.766-7.766h-25.368v-17.602h25.368z" fill="#868eaf"/><g><path d="m298.199 239.699c-3.461 0-6.512-2.294-7.465-5.632l-9.1-31.849-9.1 31.849c-.953 3.338-4.004 5.632-7.465 5.632-.043 0-.087 0-.13-.001-3.515-.059-6.552-2.471-7.405-5.881l-16.567-66.267c-1.039-4.161 1.489-8.377 5.65-9.418 4.158-1.036 8.377 1.49 9.418 5.65l9.533 38.132 8.6-30.099c.953-3.334 3.999-5.632 7.466-5.632s6.514 2.298 7.466 5.632l8.6 30.099 9.533-38.132c1.042-4.16 5.257-6.687 9.418-5.65 4.161 1.04 6.69 5.257 5.65 9.418l-16.567 66.267c-.852 3.41-3.89 5.822-7.405 5.881-.043.001-.087.001-.13.001z" fill="#868eaf"/></g><g><path d="m364.467 239.699c-13.417 0-24.332-10.915-24.332-24.332 0-4.289 3.476-7.766 7.766-7.766 4.289 0 7.766 3.476 7.766 7.766 0 4.853 3.948 8.801 8.801 8.801s8.801-3.949 8.801-8.801c0-4.853-3.949-8.801-8.801-8.801-13.417 0-24.332-10.915-24.332-24.332s10.915-24.332 24.332-24.332 24.332 10.915 24.332 24.332c0 4.289-3.476 7.766-7.766 7.766-4.289 0-7.766-3.476-7.766-7.766 0-4.853-3.949-8.801-8.801-8.801s-8.801 3.949-8.801 8.801 3.948 8.801 8.801 8.801c13.417 0 24.332 10.915 24.332 24.332s-10.915 24.332-24.332 24.332z" fill="#868eaf"/></g></g><path d="m381.317 298.2h-265.634c-4.418 0-8-3.582-8-8v-17.133c0-4.418 3.582-8 8-8h265.634c4.418 0 8 3.582 8 8v17.133c0 4.418-3.582 8-8 8z" fill="#fa8ebb"/><path d="m381.033 265.067h-23.815c4.575 0 8.283 3.709 8.283 8.283v16.567c0 4.575-3.708 8.283-8.283 8.283h23.815c4.575 0 8.283-3.709 8.283-8.283v-16.567c.001-4.575-3.708-8.283-8.283-8.283z" fill="#f57fb0"/></g><path d="m496.999 405.885c0 18.299-14.834 33.133-33.132 33.133h-430.734c-18.299 0-33.132-14.834-33.132-33.133l-.001-24.853c0-4.575 3.708-8.284 8.283-8.284h480.433c4.575 0 8.284 3.709 8.283 8.284z" fill="#bdd3dd"/><g fill="#abc4d6"><path d="m290.434 372.748v16.568c0 4.853-3.948 8.801-8.801 8.801h-66.267c-4.853 0-8.801-3.949-8.801-8.801v-16.568h-15.531v16.568c0 13.417 10.915 24.332 24.332 24.332h66.267c13.417 0 24.332-10.915 24.332-24.332v-16.568z"/><path d="m488.717 372.748h-23.815c4.575 0 8.284 3.709 8.283 8.284l-.001 24.853c0 18.299-14.834 33.133-33.133 33.133h23.815c18.299 0 33.133-14.834 33.133-33.133l.001-24.853c0-4.575-3.708-8.284-8.283-8.284z"/></g></g></svg>