<svg id="Capa_1" enable-background="new 0 0 497 497" height="512" viewBox="0 0 497 497" width="512" xmlns="http://www.w3.org/2000/svg"><g><g><circle cx="248.5" cy="314.767" fill="#a0c8ff" r="182.233"/><g fill="#91b2fa"><path d="m248.5 132.533c-3.864 0-7.696.135-11.5.372 95.285 5.936 170.733 85.081 170.733 181.862s-75.448 175.926-170.733 181.862c3.804.237 7.636.372 11.5.372 100.645 0 182.233-81.589 182.233-182.233s-81.588-182.235-182.233-182.235z"/><path d="m430.568 322.267c.101-2.489.166-4.986.166-7.5 0-2.513-.065-5.011-.166-7.5h-83.549c-.562-30.836-4.58-60.444-11.674-86.9 19.623-5.168 37.509-12.085 52.645-20.541.445-.249.854-.537 1.227-.856-3.234-3.925-6.636-7.704-10.181-11.344-13.848 7.522-30.109 13.709-47.946 18.375-3.324-10.199-7.134-19.828-11.414-28.75-7.795-16.249-16.789-29.411-26.63-39.224-14.257-3.582-29.177-5.494-44.545-5.494s-30.288 1.912-44.545 5.494c-9.84 9.813-18.835 22.975-26.63 39.224-4.28 8.922-8.09 18.552-11.414 28.751-17.838-4.667-34.099-10.853-47.946-18.376-3.546 3.64-6.948 7.419-10.182 11.344.373.32.783.608 1.229.857 15.135 8.455 33.021 15.372 52.644 20.54-7.094 26.456-11.112 56.064-11.674 86.9h-83.551c-.101 2.489-.166 4.987-.166 7.5 0 2.514.065 5.011.166 7.5h83.549c.562 30.828 4.578 60.429 11.669 86.88-19.655 5.17-37.569 12.095-52.726 20.562-.425.238-.815.513-1.174.815.011.014.023.027.034.041h-.001c1.547 1.878 3.134 3.72 4.756 5.531.064.072.126.145.19.216.647.721 1.305 1.432 1.963 2.142.208.225.411.453.62.676.52.556 1.05 1.102 1.576 1.651.35.365.695.735 1.048 1.098.009.009.018.019.027.029 13.847-7.522 30.108-13.708 47.946-18.375 3.324 10.198 7.133 19.828 11.413 28.75 7.795 16.249 16.789 29.411 26.63 39.223 14.259 3.582 29.18 5.494 44.548 5.494s30.288-1.912 44.545-5.494c9.841-9.813 18.835-22.975 26.63-39.224 4.277-8.915 8.084-18.536 11.406-28.725 17.828 4.672 34.084 10.859 47.922 18.384 3.544-3.636 6.945-7.411 10.178-11.332-.387-.338-.813-.642-1.279-.902-11.539-6.447-24.681-11.996-38.967-16.563-.296-.139-.6-.266-.921-.367-4.131-1.306-8.359-2.517-12.657-3.651 7.087-26.446 11.102-56.04 11.663-86.86h83.548zm-174.568-189.124c18.559 3.758 36.138 21.385 50.151 50.595 3.83 7.984 7.261 16.585 10.282 25.687-19.032 3.923-39.475 6.198-60.434 6.639v-82.921zm0 97.924c22.422-.456 44.342-2.942 64.759-7.245 6.826 25.281 10.7 53.723 11.259 83.445h-76.018zm-65.151-47.329c14.013-29.21 31.592-46.837 50.151-50.595v82.922c-20.958-.441-41.402-2.717-60.433-6.639 3.021-9.103 6.452-17.704 10.282-25.688zm-14.607 40.084c20.417 4.303 42.336 6.789 64.758 7.245v76.2h-76.017c.559-29.722 4.433-58.164 11.259-83.445zm-11.259 98.445h76.017v76.2c-22.422.45-44.343 2.931-64.762 7.229-6.824-25.278-10.696-53.714-11.255-83.429zm76.017 174.123c-18.559-3.758-36.138-21.385-50.151-50.595-3.83-7.983-7.26-16.584-10.282-25.687 19.031-3.922 39.475-6.198 60.433-6.639zm65.151-50.595c-14.013 29.21-31.593 46.837-50.151 50.595v-82.919c.042.001.083.002.124.002 2.435.052 12.485.484 14.516.61.792.05 5.256.37 6.694.487 13.472 1.108 26.586 2.979 39.091 5.562-3.02 9.093-6.447 17.686-10.274 25.663zm-35.165-46.712c-1.835-.113-12.083-.552-14.586-.606-.134-.003-.267-.01-.401-.012v-76.199h76.018c-.559 29.709-4.43 58.139-11.25 83.412-13.501-2.842-27.628-4.859-42.095-6.044-1.245-.103-6.368-.471-7.686-.551z"/></g></g><g><path d="m323.05 74.55c0-41.064-33.201-74.374-74.225-74.549-40.635-.174-74.258 32.776-74.867 73.407-.236 15.761 4.426 30.418 12.553 42.559l47.931 76.859c6.486 10.4 21.628 10.4 28.114 0l47.931-76.859c7.932-11.847 12.563-26.09 12.563-41.417z" fill="#fa8ebb"/><path d="m248.825.001c-3.992-.017-7.913.296-11.745.895 35.673 5.564 62.97 36.421 62.97 73.654 0 15.327-4.631 29.57-12.562 41.417l-47.931 76.859c-.745 1.195-1.609 2.246-2.557 3.167 7.299 7.089 19.817 6.038 25.557-3.167l47.931-76.859c7.931-11.847 12.562-26.09 12.562-41.417 0-41.064-33.201-74.374-74.225-74.549z" fill="#f57fb0"/><circle cx="248.5" cy="74.55" fill="#f9f5f3" r="24.85"/><path d="m248.5 49.7c-4.151 0-8.06 1.023-11.5 2.823 7.933 4.15 13.35 12.454 13.35 22.027 0 9.574-5.417 17.877-13.35 22.027 3.44 1.799 7.349 2.822 11.5 2.822 13.724 0 24.85-11.126 24.85-24.85s-11.126-24.849-24.85-24.849z" fill="#f9eae0"/></g></g></svg>