<svg id="Capa_1" enable-background="new 0 0 497 497" height="512" viewBox="0 0 497 497" width="512" xmlns="http://www.w3.org/2000/svg"><g><g><g><path d="m422.45 487.934h-107.683c-4.143 0-7.5-3.357-7.5-7.5s3.357-7.5 7.5-7.5h107.683c14.134 0 25.633-11.499 25.633-25.634v-24.85c0-4.143 3.357-7.5 7.5-7.5s7.5 3.357 7.5 7.5v24.85c0 22.405-18.228 40.634-40.633 40.634z" fill="#bdd3dd"/></g></g><path d="m33.133 219h33.133v83.85h-33.133z" fill="#bdd3dd"/><path d="m430.733 219h33.133v83.85h-33.133z" fill="#bdd3dd"/><path d="m440.867 219h23v83.85h-23z" fill="#abc4d6"/><path d="m430.733 170.667v-29.85c0-59.377-48.307-107.683-107.683-107.683h-149.1c-59.377 0-107.683 48.307-107.683 107.683v29.85h-33.134v-29.85c0-77.646 63.17-140.817 140.817-140.817h149.1c77.646 0 140.817 63.171 140.817 140.817v29.85z" fill="#bdd3dd"/><g><path d="m323.05 0h-23c77.646 0 140.817 63.171 140.817 140.817v29.85h23v-29.85c0-77.646-63.171-140.817-140.817-140.817z" fill="#abc4d6"/></g><g><path d="m71.267 422.449h-39.267c-17.673 0-32-14.327-32-32v-68.533c0-17.673 14.327-32 32-32h39.267z" fill="#a0c8ff"/></g><g><path d="m424.733 422.449h40.267c17.673 0 32-14.327 32-32v-68.533c0-17.673-14.327-32-32-32h-40.267z" fill="#a0c8ff"/><path d="m465 289.917h-22.967c17.673 0 32 14.327 32 32v68.533c0 17.673-14.327 32-32 32h22.967c17.673 0 32-14.327 32-32v-68.533c0-17.674-14.327-32-32-32z" fill="#91b2fa"/></g><g><g><path d="m66.267 388.533h-25.134c-8.547 0-15.5-6.953-15.5-15.5v-33.7c0-8.547 6.953-15.5 15.5-15.5h25.133c4.142 0 7.5 3.357 7.5 7.5s-3.358 7.5-7.5 7.5h-25.133c-.276 0-.5.225-.5.5v33.7c0 .275.224.5.5.5h25.133c4.142 0 7.5 3.357 7.5 7.5s-3.357 7.5-7.499 7.5z" fill="#91b2fa"/></g></g><g><g><path d="m455.866 388.533h-25.133c-4.143 0-7.5-3.357-7.5-7.5s3.357-7.5 7.5-7.5h25.133c.275 0 .5-.225.5-.5v-33.7c0-.275-.225-.5-.5-.5h-25.133c-4.143 0-7.5-3.357-7.5-7.5s3.357-7.5 7.5-7.5h25.133c8.547 0 15.5 6.953 15.5 15.5v33.7c0 8.547-6.953 15.5-15.5 15.5z" fill="#91b2fa"/></g></g><g fill="#868eaf"><path d="m74.833 231.933h-50.266c-4.418 0-8-3.582-8-8v-50.267c0-4.418 3.582-8 8-8h50.267c4.418 0 8 3.582 8 8v50.267c-.001 4.419-3.582 8-8.001 8z"/><path d="m472.433 231.933h-50.267c-4.418 0-8-3.582-8-8v-50.267c0-4.418 3.582-8 8-8h50.267c4.418 0 8 3.582 8 8v50.267c0 4.419-3.581 8-8 8z"/><path d="m306.767 497h-83.4c-4.418 0-8-3.582-8-8v-17.133c0-4.418 3.582-8 8-8h83.4c4.418 0 8 3.582 8 8v17.133c0 4.418-3.582 8-8 8z"/></g><path d="m74.833 165.667h-23c4.418 0 8 3.582 8 8v50.267c0 4.418-3.582 8-8 8h23c4.418 0 8-3.582 8-8v-50.267c0-4.419-3.581-8-8-8z" fill="#7d83ad"/><path d="m472.433 165.667h-23c4.418 0 8 3.582 8 8v50.267c0 4.418-3.582 8-8 8h23c4.418 0 8-3.582 8-8v-50.267c0-4.419-3.581-8-8-8z" fill="#7d83ad"/><path d="m82.267 447.299h34.267c8.837 0 16-7.163 16-16v-150.232c0-8.837-7.163-16-16-16h-34.267c-8.837 0-16 7.163-16 16v150.233c0 8.836 7.163 15.999 16 15.999z" fill="#868eaf"/><path d="m116.533 265.067h-23c8.836 0 16 7.163 16 16v150.233c0 8.837-7.164 16-16 16h23c8.836 0 16-7.163 16-16v-150.233c0-8.837-7.163-16-16-16z" fill="#7d83ad"/><path d="m380.467 447.299h34.267c8.837 0 16-7.163 16-16v-150.232c0-8.837-7.163-16-16-16h-34.267c-8.837 0-16 7.163-16 16v150.233c0 8.836 7.163 15.999 16 15.999z" fill="#868eaf"/><path d="m414.733 265.067h-23c8.836 0 16 7.163 16 16v150.233c0 8.837-7.164 16-16 16h23c8.836 0 16-7.163 16-16v-150.233c0-8.837-7.163-16-16-16z" fill="#7d83ad"/><path d="m281.633 497h25.133c4.418 0 8-3.582 8-8v-17.133c0-4.418-3.582-8-8-8h-25.133z" fill="#a0c8ff"/></g></svg>