<svg id="Capa_1" enable-background="new 0 0 497 497" height="512" viewBox="0 0 497 497" width="512" xmlns="http://www.w3.org/2000/svg"><g><path d="m57.293 81.798h382.413v307.518h-382.413z" fill="#f9f5f3"/><path d="m57.293 81.798h382.413v83.869h-382.413z" fill="#a0c8ff"/><path d="m66.265 377.925-.001-278.524c0-4.575 3.708-8.283 8.283-8.283h347.905c4.575 0 8.283 3.709 8.283 8.283v278.525h33.131v-286.811c0-18.299-14.834-33.132-33.133-33.132h-364.468c-18.299 0-33.133 14.834-33.133 33.132v286.812z" fill="#868eaf"/><g><path d="m430.734 57.983h-23.815c18.299 0 33.132 14.834 33.132 33.133v286.81h23.815v-286.811c0-18.298-14.834-33.132-33.132-33.132z" fill="#7d83ad"/></g><path d="m496.999 405.885c0 18.299-14.834 33.133-33.132 33.133h-430.734c-18.299 0-33.132-14.834-33.132-33.133l-.001-24.853c0-4.575 3.708-8.284 8.283-8.284h480.433c4.575 0 8.284 3.709 8.283 8.284z" fill="#bdd3dd"/><path d="m290.434 372.748v16.568c0 4.853-3.948 8.801-8.801 8.801h-66.267c-4.853 0-8.801-3.949-8.801-8.801v-16.568h-15.531v16.568c0 13.417 10.915 24.332 24.332 24.332h66.267c13.417 0 24.332-10.915 24.332-24.332v-16.568z" fill="#abc4d6"/><path d="m488.717 372.748h-23.815c4.575 0 8.284 3.709 8.283 8.284l-.001 24.853c0 18.299-14.834 33.133-33.133 33.133h23.815c18.299 0 33.133-14.834 33.133-33.133l.001-24.853c0-4.575-3.708-8.284-8.283-8.284z" fill="#abc4d6"/><g><path d="m339.9 331.333h-182.8c-4.418 0-8-3.582-8-8v-116.533c0-4.418 3.582-8 8-8h182.8c4.418 0 8 3.582 8 8v116.533c0 4.419-3.582 8-8 8z" fill="#ffce69"/><g><path d="m115.967 140.299h-16.567c-4.289 0-7.766-3.476-7.766-7.766 0-4.289 3.476-7.766 7.766-7.766h16.567c4.289 0 7.766 3.476 7.766 7.766-.001 4.29-3.477 7.766-7.766 7.766z" fill="#fa8ebb"/></g><g><path d="m165.667 140.299h-16.567c-4.289 0-7.766-3.476-7.766-7.766 0-4.289 3.476-7.766 7.766-7.766h16.567c4.289 0 7.766 3.476 7.766 7.766-.001 4.29-3.477 7.766-7.766 7.766z" fill="#89dd8e"/></g><g><path d="m215.367 140.299h-16.567c-4.289 0-7.766-3.476-7.766-7.766 0-4.289 3.476-7.766 7.766-7.766h16.567c4.289 0 7.766 3.476 7.766 7.766-.001 4.29-3.477 7.766-7.766 7.766z" fill="#ffce69"/></g><path d="m339.617 198.8h-3.847l-81.636 68.029c-3.264 2.722-8.004 2.722-11.268 0l-81.635-68.029h-3.847c-4.575 0-8.283 3.709-8.283 8.283v1.826l83.822 69.852c4.514 3.762 10.045 5.642 15.578 5.642 5.532 0 11.065-1.882 15.578-5.642l83.822-69.851v-1.826c-.001-4.575-3.71-8.284-8.284-8.284z" fill="#ffbd61"/></g></g></svg>