<svg id="Capa_1" enable-background="new 0 0 497 497" height="512" viewBox="0 0 497 497" width="512" xmlns="http://www.w3.org/2000/svg"><g><path d="m447.3 309.767h-397.6v179.233c0 4.418 3.582 8 8 8h381.6c4.418 0 8-3.582 8-8z" fill="#bdd3dd"/><path d="m424.3 309.767v179.233c0 4.418-3.582 8-8 8h23c4.418 0 8-3.582 8-8v-179.233z" fill="#abc4d6"/><ellipse cx="248.5" cy="405.884" fill="#a0c8ff" rx="57.983" ry="57.983" transform="matrix(.168 -.986 .986 .168 -193.424 582.51)"/><circle cx="248.5" cy="405.884" fill="#f9f5f3" r="24.85"/><g><circle cx="132.534" cy="173.95" fill="#ffdad5" r="41.417"/><path d="m182.234 240.217c0-13.724-11.126-24.85-24.85-24.85h-49.7c-13.724 0-24.85 11.126-24.85 24.85v46.417h99.4z" fill="#868eaf"/><path d="m157.383 215.367h-23c13.724 0 24.85 11.126 24.85 24.85v46.417h23v-46.417c.001-13.724-11.125-24.85-24.85-24.85z" fill="#7d83ad"/><path d="m132.534 132.534c-3.992 0-7.847.576-11.5 1.63 17.277 4.986 29.917 20.905 29.917 39.786s-12.64 34.801-29.917 39.786c3.653 1.054 7.508 1.63 11.5 1.63 22.874 0 41.417-18.543 41.417-41.417s-18.544-41.415-41.417-41.415z" fill="#ffc2c2"/></g><g><circle cx="364.467" cy="173.95" fill="#ffdad5" r="41.417"/><path d="m414.167 240.217c0-13.724-11.126-24.85-24.85-24.85h-49.7c-13.724 0-24.85 11.126-24.85 24.85v46.417h99.4z" fill="#868eaf"/><path d="m389.317 215.367h-23c13.724 0 24.85 11.126 24.85 24.85v46.417h23v-46.417c0-13.724-11.126-24.85-24.85-24.85z" fill="#7d83ad"/><path d="m364.467 132.534c-3.992 0-7.847.576-11.5 1.63 17.277 4.986 29.917 20.905 29.917 39.786s-12.64 34.801-29.917 39.786c3.653 1.054 7.508 1.63 11.5 1.63 22.874 0 41.417-18.543 41.417-41.417s-18.544-41.415-41.417-41.415z" fill="#ffc2c2"/></g><path d="m472.434 281.634h-447.867c-4.418 0-8 3.582-8 8v17.132c0 4.418 3.582 8 8 8h447.867c4.418 0 8-3.582 8-8v-17.132c0-4.418-3.582-8-8-8z" fill="#ffce69"/><path d="m472.434 281.634h-23c4.418 0 8 3.582 8 8v17.132c0 4.418-3.582 8-8 8h23c4.418 0 8-3.582 8-8v-17.132c0-4.418-3.582-8-8-8z" fill="#ffbd61"/><path d="m115.967 215.367 9.411 18.823c2.948 5.896 11.363 5.896 14.311 0l9.411-18.823z" fill="#f9f5f3"/><path d="m347.9 215.367 9.411 18.823c2.948 5.896 11.363 5.896 14.311 0l9.411-18.823z" fill="#f9f5f3"/><g><g><path d="m184.323 99.407c7.359 28.578 33.302 49.693 64.178 49.693 30.878 0 56.823-21.119 64.179-49.7v-49.701c-7.357-28.58-33.302-49.699-64.18-49.699s-56.823 21.119-64.179 49.7z" fill="#89dd8e"/><g fill="#79d191"><g><path d="m264.831 47.758c.373 4.273 4.157 7.429 8.412 7.06 4.273-.373 7.434-4.14 7.061-8.412-1.325-15.165-4.472-30.85-9.773-42.656-6.74-2.375-13.982-3.683-21.521-3.74 3.834 1.234 13.018 15.648 15.821 47.748z"/><path d="m226.469 3.75c-5.301 11.806-8.448 27.491-9.773 42.657-.373 4.273 2.788 8.039 7.061 8.412.23.02.458.03.685.03 3.983 0 7.374-3.048 7.727-7.091 2.802-32.101 11.988-46.515 15.822-47.748-7.54.058-14.781 1.365-21.522 3.74z"/></g><g><path d="m232.169 101.343c-.372-4.273-4.143-7.424-8.412-7.061-4.273.373-7.434 4.139-7.061 8.412 1.324 15.166 4.471 30.851 9.773 42.656 6.74 2.375 13.982 3.683 21.522 3.74-3.834-1.233-13.02-15.647-15.822-47.747z"/><path d="m270.531 145.35c5.301-11.806 8.449-27.491 9.773-42.657.373-4.273-2.788-8.039-7.061-8.412-4.267-.368-8.039 2.788-8.412 7.06-2.803 32.101-11.988 46.515-15.822 47.748 7.54-.056 14.781-1.363 21.522-3.739z"/></g></g></g><path d="m323.334 99.4h-149.668c-4.418 0-8-3.582-8-8v-33.7c0-4.418 3.582-8 8-8h149.668c4.418 0 8 3.582 8 8v33.7c0 4.419-3.582 8-8 8z" fill="#f9f5f3"/><path d="m323.051 49.7h-23.815c4.575 0 8.283 3.709 8.283 8.283v33.134c0 4.575-3.709 8.283-8.283 8.283h23.815c4.575 0 8.283-3.709 8.283-8.283v-33.133c0-4.575-3.709-8.284-8.283-8.284z" fill="#f9eae0"/></g></g></svg>