<svg id="Capa_1" enable-background="new 0 0 496.999 496.999" height="512" viewBox="0 0 496.999 496.999" width="512" xmlns="http://www.w3.org/2000/svg"><g><path d="m33.133 49.699c-18.299 0-33.133 14.834-33.133 33.132v331.336c0 18.299 14.834 33.133 33.133 33.133h430.733c18.299 0 33.133-14.834 33.133-33.133v-331.336c0-18.299-14.834-33.133-33.133-33.133h-430.733z" fill="#f9f5f3"/><path d="m463.866 49.699h-23.813c18.298 0 33.132 14.834 33.132 33.133v331.336c0 18.299-14.834 33.132-33.132 33.132h23.813c18.299 0 33.133-14.834 33.133-33.132v-331.337c0-18.298-14.834-33.132-33.133-33.132z" fill="#f9eae0"/><path d="m463.866 49.699h-430.733c-18.299 0-33.133 14.834-33.133 33.132v33.134h496.999v-33.134c0-18.298-14.834-33.132-33.133-33.132z" fill="#a0c8ff"/><g><ellipse cx="248.499" cy="281.633" fill="#a0c8ff" rx="115.967" ry="115.967" transform="matrix(.707 -.707 .707 .707 -126.361 258.204)"/><path d="m364.201 289.398c.17-2.567.265-5.155.265-7.766s-.095-5.198-.265-7.766h-50.074c-.497-17.703-2.694-34.746-6.419-50.299 11.488-3.248 22.003-7.432 31.017-12.467.43-.241.825-.52 1.191-.824-3.253-4.162-6.787-8.092-10.568-11.77-7.591 4.037-16.312 7.444-25.834 10.14-2.056-6.304-4.379-12.288-6.982-17.846-3.442-7.349-7.257-13.773-11.375-19.216-11.522-3.837-23.846-5.919-36.657-5.919s-25.135 2.083-36.658 5.919c-4.118 5.443-7.933 11.867-11.375 19.216-2.603 5.558-4.925 11.541-6.982 17.846-9.523-2.696-18.243-6.103-25.834-10.14-3.781 3.678-7.315 7.608-10.568 11.77.365.305.76.584 1.191.824 9.014 5.035 19.529 9.22 31.017 12.467-3.724 15.553-5.921 32.596-6.419 50.299h-50.074c-.17 2.567-.265 5.155-.265 7.766s.095 5.198.265 7.766h50.074c.497 17.703 2.695 34.745 6.419 50.299-11.487 3.247-22.002 7.431-31.015 12.466-.431.241-.827.521-1.193.826 3.253 4.161 6.787 8.091 10.567 11.769 7.591-4.037 16.312-7.444 25.834-10.14 2.057 6.305 4.379 12.288 6.982 17.846 3.442 7.349 7.257 13.773 11.375 19.216 11.522 3.836 23.846 5.919 36.658 5.919 12.811 0 25.135-2.083 36.657-5.919 4.118-5.443 7.933-11.867 11.375-19.216 2.603-5.558 4.926-11.542 6.982-17.846 9.522 2.696 18.243 6.103 25.834 10.14 3.781-3.678 7.315-7.608 10.568-11.77-.365-.305-.76-.584-1.191-.825-9.014-5.035-19.529-9.22-31.017-12.467 3.724-15.553 5.922-32.596 6.419-50.299h50.075zm-123.467 106.708c-9.51-3.783-18.759-14.338-26.202-30.229-2.169-4.631-4.124-9.602-5.881-14.831 10.195-1.942 21.006-3.129 32.083-3.513zm0-64.114c-12.53.41-24.788 1.802-36.355 4.092-3.441-14.362-5.48-30.181-5.968-46.686h42.324v42.594zm0-58.125h-42.324c.488-16.505 2.527-32.324 5.968-46.686 11.568 2.29 23.825 3.682 36.355 4.092v42.594zm0-58.134c-11.077-.384-21.888-1.571-32.083-3.513 1.756-5.229 3.712-10.2 5.881-14.831 7.443-15.891 16.691-26.446 26.202-30.229zm15.531-48.574c9.51 3.783 18.759 14.338 26.202 30.229 2.169 4.631 4.124 9.602 5.881 14.831-10.195 1.942-21.005 3.129-32.083 3.513zm26.202 198.718c-7.443 15.891-16.692 26.446-26.202 30.229v-48.573c11.077.384 21.888 1.571 32.083 3.513-1.757 5.229-3.712 10.2-5.881 14.831zm10.153-29.793c-11.567-2.29-23.825-3.682-36.355-4.092v-42.594h42.323c-.487 16.505-2.527 32.324-5.968 46.686zm-36.355-62.217v-42.594c12.53-.41 24.788-1.802 36.355-4.092 3.441 14.362 5.48 30.181 5.968 46.686z" fill="#91b2fa"/></g><g><g><g><path d="m428.029 356.509c-1.874 0-3.752-.673-5.243-2.038-3.163-2.896-3.379-7.808-.482-10.972 15.499-16.926 24.035-38.896 24.035-61.864s-8.535-44.939-24.033-61.864c-2.897-3.163-2.681-8.075.483-10.971 3.161-2.898 8.074-2.682 10.971.483 18.127 19.796 28.11 45.492 28.11 72.352 0 26.861-9.984 52.557-28.112 72.354-1.531 1.671-3.626 2.52-5.729 2.52z" fill="#868eaf"/></g><g><path d="m397.604 339.912c-2.2 0-4.384-.929-5.921-2.736-2.778-3.268-2.38-8.169.888-10.947 13.115-11.147 20.636-27.401 20.636-44.595 0-17.193-7.521-33.446-20.634-44.594-3.268-2.778-3.665-7.679-.887-10.946s7.678-3.667 10.946-.887c16.591 14.103 26.106 34.669 26.106 56.426 0 21.758-9.516 42.326-26.108 56.429-1.461 1.242-3.249 1.85-5.026 1.85z" fill="#868eaf"/></g></g></g><g><g><g><path d="m68.967 356.509c-2.102 0-4.197-.848-5.729-2.522-18.127-19.796-28.11-45.491-28.11-72.351s9.984-52.557 28.112-72.354c2.897-3.165 7.809-3.38 10.971-.483 3.164 2.896 3.38 7.808.483 10.971-15.499 16.928-24.035 38.898-24.035 61.866 0 22.967 8.535 44.938 24.033 61.863 2.897 3.163 2.681 8.075-.483 10.971-1.489 1.365-3.369 2.039-5.242 2.039z" fill="#868eaf"/></g><g><path d="m99.393 339.912c-1.778 0-3.564-.607-5.025-1.849-16.591-14.103-26.106-34.669-26.106-56.426 0-21.758 9.516-42.326 26.108-56.429 3.268-2.776 8.168-2.378 10.947.888 2.778 3.268 2.38 8.169-.888 10.947-13.115 11.147-20.636 27.401-20.636 44.595 0 17.193 7.521 33.446 20.633 44.594 3.268 2.778 3.666 7.679.887 10.946-1.536 1.804-3.721 2.734-5.92 2.734z" fill="#868eaf"/></g></g></g><g><g><path d="m49.699 90.598h-16.567c-4.289 0-7.766-3.476-7.766-7.766s3.476-7.766 7.766-7.766h16.567c4.289 0 7.766 3.476 7.766 7.766s-3.477 7.766-7.766 7.766z" fill="#fa8ebb"/></g></g><g><g><path d="m99.399 90.598h-16.567c-4.289 0-7.766-3.476-7.766-7.766s3.476-7.766 7.766-7.766h16.567c4.289 0 7.766 3.476 7.766 7.766s-3.477 7.766-7.766 7.766z" fill="#89dd8e"/></g></g><g><g><path d="m149.099 90.598h-16.567c-4.289 0-7.766-3.476-7.766-7.766s3.476-7.766 7.766-7.766h16.567c4.289 0 7.766 3.476 7.766 7.766s-3.477 7.766-7.766 7.766z" fill="#ffce69"/></g></g><g><path d="m381.033 90.598h-165.667c-4.289 0-7.766-3.476-7.766-7.766s3.476-7.766 7.766-7.766h165.667c4.289 0 7.766 3.476 7.766 7.766s-3.477 7.766-7.766 7.766z" fill="#f9f5f3"/></g><path d="m463.866 49.699h-23.813c18.298 0 33.132 14.834 33.132 33.133v33.134h23.813v-33.135c.001-18.298-14.833-33.132-33.132-33.132z" fill="#91b2fa"/></g></svg>