<svg id="Capa_1" enable-background="new 0 0 489.767 489.767" height="512" viewBox="0 0 489.767 489.767" width="512" xmlns="http://www.w3.org/2000/svg"><g><path d="m285.775 365.384 78.692 49.7-33.134-92.579-59.316-57.571z" fill="#bdd3dd"/><path d="m0 .917 331.333 321.588-124.317 117.918c-4.008 3.802-10.572 2.493-12.816-2.555z" fill="#f9eae0"/><path d="m0 .917 484.294 161.431c5.743 1.914 7.361 9.266 2.953 13.415l-106.213 99.965z" fill="#f9eae0"/><path d="m331.333 322.505 33.134 92.579 16.567-139.356-381.034-274.811z" fill="#abc4d6"/><g><g><path d="m480.433 372.884c-1.919 0-3.839-.732-5.303-2.196l-66.267-66.267c-2.929-2.93-2.929-7.678 0-10.607 2.929-2.928 7.678-2.928 10.606 0l66.267 66.267c2.929 2.93 2.929 7.678 0 10.607-1.464 1.463-3.383 2.196-5.303 2.196z" fill="#a0c8ff"/></g></g><g><g><path d="m364.467 488.85c-1.919 0-3.839-.732-5.303-2.196l-66.267-66.267c-2.929-2.93-2.929-7.678 0-10.607 2.929-2.928 7.678-2.928 10.606 0l66.267 66.267c2.929 2.93 2.929 7.678 0 10.607-1.464 1.464-3.384 2.196-5.303 2.196z" fill="#a0c8ff"/></g></g><g><g><path d="m480.433 488.85c-1.919 0-3.839-.732-5.303-2.196l-66.267-66.267c-2.929-2.93-2.929-7.678 0-10.607 2.929-2.928 7.678-2.928 10.606 0l66.267 66.267c2.929 2.93 2.929 7.678 0 10.607-1.464 1.464-3.383 2.196-5.303 2.196z" fill="#a0c8ff"/></g></g><g fill="#f9f5f3"><path d="m489.483 167.891c-.65-2.46-2.441-4.626-5.19-5.543l-484.293-161.431 281.633 203.122z"/><path d="m200.179 442.497 48.321-200.389-248.5-241.191 194.201 436.951c1.157 2.604 3.466 4.204 5.978 4.629z"/></g></g></svg>