<svg id="Capa_1" enable-background="new 0 0 497 497" height="512" viewBox="0 0 497 497" width="512" xmlns="http://www.w3.org/2000/svg"><g><path d="m398.167 115.966c8.837 0 16 7.163 16 16v55.267h-331.335v-55.267c0-8.837 7.163-16 16-16z" fill="#868eaf"/><path d="m398.167 115.966h-23c8.837 0 16 7.163 16 16v55.267h23v-55.267c0-8.837-7.163-16-16-16z" fill="#7d83ad"/><path d="m33.133 397.601c-18.299 0-33.133-14.834-33.133-33.132v-149.103c0-18.299 14.834-33.133 33.133-33.133h430.735c18.299 0 33.133 14.834 33.133 33.133v149.103c0 18.299-14.834 33.133-33.133 33.133h-430.735z" fill="#a0c8ff"/><path d="m463.867 182.233h-22.999c18.299 0 33.133 14.834 33.133 33.133v149.103c0 18.298-14.834 33.132-33.133 33.132h22.999c18.299 0 33.133-14.834 33.133-33.132v-149.103c0-18.299-14.834-33.133-33.133-33.133z" fill="#91b2fa"/><path d="m0 298.2v66.268c0 18.298 14.834 33.132 33.133 33.132h430.735c18.299 0 33.133-14.834 33.133-33.132v-66.268z" fill="#868eaf"/><path d="m474.001 364.469c0 18.298-14.834 33.132-33.133 33.132h22.999c18.299 0 33.133-14.834 33.133-33.132v-66.269h-22.999z" fill="#7d83ad"/><path d="m373.034 215.366h-249.068c-4.418 0-8-3.582-8-8v-149.667c0-4.418 3.582-8 8-8h249.068c4.418 0 8 3.582 8 8v149.668c0 4.418-3.582 7.999-8 7.999z" fill="#f9f5f3"/><path d="m373.034 447.301h-249.068c-4.418 0-8-3.582-8-8v-83.401c0-4.418 3.582-8 8-8h249.068c4.418 0 8 3.582 8 8v83.401c0 4.419-3.582 8-8 8z" fill="#f9f5f3"/><g><g><path d="m33.132 371.968c-4.142 0-7.5-3.357-7.5-7.5v-16.568c0-4.143 3.358-7.5 7.5-7.5s7.5 3.357 7.5 7.5v16.567c0 4.143-3.358 7.501-7.5 7.501z" fill="#bdd3dd"/></g></g><path d="m315.05 414.168h-133.1c-4.418 0-8-3.582-8-8v-17.134c0-4.418 3.582-8 8-8h133.1c4.418 0 8 3.582 8 8v17.134c0 4.418-3.581 8-8 8z" fill="#868eaf"/><path d="m315.05 381.034h-23c4.418 0 8 3.582 8 8v17.134c0 4.418-3.582 8-8 8h23c4.418 0 8-3.582 8-8v-17.134c0-4.418-3.581-8-8-8z" fill="#7d83ad"/><path d="m373.034 347.901h-23c4.418 0 8 3.582 8 8v83.401c0 4.418-3.582 8-8 8h23c4.418 0 8-3.582 8-8v-83.401c0-4.419-3.582-8-8-8z" fill="#f9eae0"/><path d="m373.034 49.699h-23c4.418 0 8 3.582 8 8v149.667c0 4.419-3.582 8-8 8h23c4.418 0 8-3.581 8-8v-149.667c0-4.419-3.582-8-8-8z" fill="#f9eae0"/><path d="m75.332 298.2h15v99.401h-15z" fill="#7d83ad"/><path d="m406.667 298.2h15v99.401h-15z" fill="#7d83ad"/><path d="m406.667 182.233v49.699c0 5-4.067 9.067-9.067 9.067h-298.201c-4.999 0-9.067-4.067-9.067-9.067v-49.699h-15v49.699c0 13.27 10.796 24.067 24.067 24.067h298.201c13.271 0 24.067-10.797 24.067-24.067v-49.699z" fill="#91b2fa"/></g></svg>