<svg id="Capa_1" enable-background="new 0 0 497 497" height="512" viewBox="0 0 497 497" width="512" xmlns="http://www.w3.org/2000/svg"><g><path d="m427.208 349.301c-.615-.198-1.041-.755-1.041-1.401s.426-1.203 1.041-1.401c11.656-3.757 20.092-14.685 20.092-27.591s-8.436-23.834-20.092-27.591c-.615-.198-1.041-.755-1.041-1.401v-.001c0-.646.427-1.203 1.041-1.401 11.695-3.769 20.148-14.758 20.092-27.721-.07-16.072-13.591-28.862-29.664-28.862h-7.853c-4.418 0-8-3.582-8-8v-.283c0-18.299-14.834-33.133-33.133-33.133h-99.399c-27.448 0-49.699 22.251-49.7 49.699v33.418c0 4.418-3.582 8-8 8h-40.933l.004 132.532h41.481c3.952 0 7.372 2.877 7.907 6.792 3.312 24.235 24.095 42.908 49.24 42.908h16.566 66.266 53.202c15.928 0 29.364-12.575 29.627-28.5.213-12.842-7.929-23.807-19.345-27.832-.34-.12-.569-.435-.569-.795v-.007c0-.469.38-.85.85-.85h1.788c16.072-.002 29.592-12.793 29.662-28.864.058-12.959-8.395-23.946-20.089-27.715z" fill="#ffdad5"/><path d="m427.208 346.499c3.948-1.272 7.512-3.383 10.519-6.099h-85.641c-4.143 0-7.5 3.357-7.5 7.5s3.357 7.5 7.5 7.5h85.643c-3.007-2.717-6.571-4.827-10.52-6.1-.615-.198-1.041-.755-1.041-1.401-.001-.645.425-1.202 1.04-1.4z" fill="#ffc2c2"/><path d="m415.85 405.883h1.788c7.558-.001 14.551-2.831 19.847-7.5h-85.4c-4.143 0-7.5 3.357-7.5 7.5s3.357 7.5 7.5 7.5h73.277c-2.819-2.549-6.135-4.559-9.793-5.849-.34-.12-.569-.435-.569-.795v-.007c0-.468.381-.849.85-.849z" fill="#ffc2c2"/><path d="m144.103 273.352h29.848c4.575 0 8.283 3.709 8.283 8.283v132.531c0 4.575-3.709 8.283-8.283 8.283h-29.848z" fill="#f9f5f3"/><path d="m173.951 273.352h-23.001c4.575 0 8.283 3.708 8.283 8.283v132.531c0 4.575-3.709 8.283-8.283 8.283h23.001c4.575 0 8.283-3.709 8.283-8.283v-132.531c0-4.575-3.708-8.283-8.283-8.283z" fill="#f9eae0"/><path d="m352.085 454.8v-15h-66.267v15z" fill="#a0c8ff"/><path d="m57.7 447.299h74.836c9.15 0 16.567-7.417 16.567-16.567v-165.665c0-9.15-7.417-16.567-16.567-16.567h-74.836c-4.418 0-8 3.582-8 8v182.798c0 4.419 3.582 8.001 8 8.001z" fill="#bdd3dd"/><g><g><path d="m115.968 322.269c-4.142 0-7.5-3.357-7.5-7.5v-33.134c0-4.143 3.358-7.5 7.5-7.5s7.5 3.357 7.5 7.5v33.134c0 4.142-3.358 7.5-7.5 7.5z" fill="#ffce69"/></g></g><path d="m385.197 120.967h-132.512v-88.967c0-17.673 14.327-32 32-32h68.512c17.673 0 32 14.327 32 32z" fill="#868eaf"/><path d="m353.197 0h-23c17.673 0 32 14.327 32 32v88.967h23v-88.967c0-17.673-14.327-32-32-32z" fill="#7d83ad"/><path d="m227.645 213.039c-4.847-2.89-8.094-8.186-8.094-14.239v-66.267c0-9.149 7.417-16.567 16.567-16.567h165.667c9.15 0 16.567 7.417 16.567 16.567v66.267c0 9.149-7.417 16.567-16.567 16.567h-1.047z" fill="#a0c8ff"/><path d="m401.785 115.967h-23c9.149 0 16.567 7.417 16.567 16.566v66.267c0 8.186-5.944 14.969-13.747 16.309l19.134.257h1.047c9.149 0 16.567-7.417 16.567-16.567v-66.267c-.001-9.148-7.419-16.565-16.568-16.565z" fill="#91b2fa"/><path d="m132.536 248.501h-23c9.149 0 16.567 7.417 16.567 16.567v165.665c0 9.15-7.417 16.567-16.567 16.567h23c9.149 0 16.567-7.417 16.567-16.567v-165.666c0-9.15-7.417-16.566-16.567-16.566z" fill="#abc4d6"/><path d="m352.085 231.499v257.217c0 4.575-3.709 8.283-8.283 8.283h-49.7c-4.575 0-8.283-3.709-8.283-8.283v-257.217z" fill="#868eaf"/><path d="m329.085 231.499v257.218c0 4.575-3.708 8.283-8.283 8.283h23c4.575 0 8.283-3.708 8.283-8.283v-257.218z" fill="#7d83ad"/><path d="m219.552 240.217c0-27.449 22.251-49.7 49.7-49.7h99.398c18.299 0 33.133 14.834 33.133 33.133v82.833c0 4.575-3.709 8.283-8.283 8.283h-16.565c-18.299 0-33.133-14.834-33.133-33.133v-33.133l-17.802-.142-40.75 60.642z" fill="#ffdad5"/><g><path d="m252.685 322.267c-4.142 0-7.5-3.357-7.5-7.5s3.358-7.5 7.5-7.5c30.083 0 55.2-22.518 58.424-52.377.854-7.918 7.479-13.89 15.41-13.89h42.133c4.142 0 7.5 3.357 7.5 7.5s-3.358 7.5-7.5 7.5h-42.133c-.257 0-.465.21-.496.499-4.049 37.494-35.577 65.768-73.338 65.768z" fill="#ffc2c2"/></g><path d="m416.75 306.483v-74.55h-6.967c-4.418 0-8-3.582-8-8v-.283c0-.357-.016-.71-.027-1.064-.003.361-.007.72-.007 1.064v82.833c0 .432-.352.783-.783.783h-24.032c-14.134 0-25.633-11.499-25.633-25.633v-33.133c0-4.143-3.358-7.5-7.5-7.5-4.143 0-7.5 3.357-7.5 7.5v33.134c0 22.405 18.228 40.633 40.633 40.633h24.032c8.704 0 15.784-7.081 15.784-15.784z" fill="#ffc2c2"/></g></svg>