<svg id="Capa_1" enable-background="new 0 0 497 497" height="512" viewBox="0 0 497 497" width="512" xmlns="http://www.w3.org/2000/svg"><g><ellipse cx="198.8" cy="182.233" fill="#fa8ebb" rx="182.233" ry="182.233" transform="matrix(.707 -.707 .707 .707 -70.631 193.948)"/><ellipse cx="198.8" cy="182.233" fill="#fa8ebb" rx="182.233" ry="182.233" transform="matrix(.707 -.707 .707 .707 -70.631 193.948)"/><path d="m198.8 0c-3.864 0-7.696.134-11.5.372 95.285 5.935 170.733 85.081 170.733 181.862s-75.448 175.926-170.733 181.861c3.804.237 7.636.372 11.5.372 100.645 0 182.233-81.589 182.233-182.233 0-100.645-81.588-182.234-182.233-182.234z" fill="#f57fb0"/><ellipse cx="198.8" cy="182.233" fill="#f9f5f3" rx="149.1" ry="149.1" transform="matrix(.707 -.707 .707 .707 -70.631 193.948)"/><path d="m198.8 33.133c-3.869 0-7.704.148-11.5.437 76.972 5.871 137.6 70.187 137.6 148.663s-60.628 142.792-137.6 148.663c3.795.289 7.63.437 11.5.437 82.346 0 149.1-66.754 149.1-149.1s-66.754-149.1-149.1-149.1z" fill="#f9eae0"/><g><g><path d="m198.8 90.333c-4.143 0-7.5-3.357-7.5-7.5v-16.566c0-4.143 3.357-7.5 7.5-7.5s7.5 3.357 7.5 7.5v16.566c0 4.143-3.358 7.5-7.5 7.5z" fill="#868eaf"/></g></g><g><g><path d="m99.4 189.733h-16.567c-4.143 0-7.5-3.357-7.5-7.5s3.357-7.5 7.5-7.5h16.567c4.143 0 7.5 3.357 7.5 7.5s-3.357 7.5-7.5 7.5z" fill="#868eaf"/></g></g><g><g><path d="m198.8 305.7c-4.143 0-7.5-3.357-7.5-7.5v-16.566c0-4.143 3.357-7.5 7.5-7.5s7.5 3.357 7.5 7.5v16.566c0 4.143-3.358 7.5-7.5 7.5z" fill="#868eaf"/></g></g><g><g><path d="m314.767 189.733h-16.567c-4.143 0-7.5-3.357-7.5-7.5s3.357-7.5 7.5-7.5h16.566c4.143 0 7.5 3.357 7.5 7.5.001 4.143-3.357 7.5-7.499 7.5z" fill="#868eaf"/></g></g><g><g><path d="m198.8 173.167c-4.143 0-7.5-3.357-7.5-7.5v-49.7c0-4.143 3.357-7.5 7.5-7.5s7.5 3.357 7.5 7.5v49.7c0 4.143-3.358 7.5-7.5 7.5z" fill="#a0c8ff"/></g></g><g><g><path d="m182.233 189.733h-33.133c-4.143 0-7.5-3.357-7.5-7.5s3.357-7.5 7.5-7.5h33.134c4.143 0 7.5 3.357 7.5 7.5-.001 4.143-3.358 7.5-7.501 7.5z" fill="#a0c8ff"/></g></g><ellipse cx="198.8" cy="182.233" fill="#ffce69" rx="16.567" ry="16.567" transform="matrix(.924 -.383 .383 .924 -54.605 89.949)"/><g><ellipse cx="364.467" cy="381.033" fill="#a0c8ff" rx="115.967" ry="115.967" transform="matrix(.707 -.707 .707 .707 -162.681 369.319)"/><path d="m480.169 388.799c.17-2.568.265-5.155.265-7.766 0-2.61-.095-5.198-.265-7.766h-50.074c-.497-17.703-2.694-34.746-6.419-50.299 11.488-3.248 22.003-7.432 31.017-12.467.431-.241.825-.52 1.191-.825-3.253-4.162-6.787-8.092-10.568-11.77-7.591 4.037-16.312 7.444-25.834 10.14-2.056-6.304-4.379-12.288-6.982-17.846-3.442-7.349-7.257-13.773-11.375-19.216-11.522-3.836-23.846-5.919-36.658-5.919-12.811 0-25.135 2.083-36.658 5.919-4.118 5.443-7.933 11.867-11.375 19.216-2.603 5.558-4.926 11.542-6.982 17.846-9.523-2.696-18.243-6.103-25.834-10.14-3.781 3.678-7.315 7.608-10.568 11.77.365.305.76.584 1.191.825 9.014 5.035 19.529 9.22 31.017 12.467-3.724 15.553-5.921 32.596-6.419 50.299h-50.074c-.17 2.567-.265 5.155-.265 7.766 0 2.61.095 5.198.265 7.766h50.074c.497 17.703 2.695 34.745 6.419 50.299-11.487 3.247-22.002 7.432-31.015 12.467-.431.241-.827.52-1.193.826 3.253 4.161 6.787 8.091 10.567 11.769 7.591-4.037 16.312-7.444 25.834-10.14 2.057 6.305 4.379 12.288 6.982 17.846 3.442 7.349 7.257 13.773 11.375 19.216 11.522 3.836 23.846 5.919 36.658 5.919 12.811 0 25.135-2.083 36.658-5.919 4.118-5.443 7.933-11.867 11.375-19.216 2.603-5.558 4.926-11.542 6.982-17.846 9.522 2.696 18.243 6.103 25.834 10.14 3.781-3.678 7.315-7.608 10.568-11.77-.365-.305-.76-.584-1.191-.825-9.014-5.035-19.529-9.22-31.017-12.467 3.724-15.554 5.922-32.596 6.419-50.299zm-123.468 106.708c-9.51-3.783-18.759-14.338-26.202-30.229-2.169-4.631-4.124-9.602-5.881-14.831 10.195-1.942 21.006-3.129 32.083-3.513zm0-64.114c-12.53.411-24.788 1.802-36.355 4.092-3.441-14.362-5.48-30.181-5.968-46.686h42.323zm0-58.125h-42.323c.488-16.505 2.527-32.324 5.968-46.686 11.568 2.29 23.825 3.682 36.355 4.092zm0-58.135c-11.077-.384-21.888-1.571-32.083-3.513 1.756-5.229 3.712-10.2 5.881-14.831 7.443-15.891 16.692-26.446 26.202-30.229zm15.531-48.573c9.51 3.783 18.759 14.338 26.202 30.229 2.169 4.631 4.124 9.602 5.881 14.831-10.195 1.942-21.005 3.129-32.083 3.513zm26.202 198.717c-7.443 15.891-16.692 26.447-26.202 30.229v-48.573c11.077.384 21.888 1.571 32.083 3.513-1.756 5.23-3.711 10.2-5.881 14.831zm10.154-29.792c-11.567-2.29-23.825-3.682-36.355-4.092v-42.594h42.323c-.488 16.505-2.527 32.324-5.968 46.686zm-36.356-62.217v-42.594c12.53-.41 24.788-1.802 36.355-4.092 3.441 14.362 5.48 30.181 5.968 46.686z" fill="#91b2fa"/></g></g></svg>