<svg id="Capa_1" enable-background="new 0 0 495.168 495.168" height="512" viewBox="0 0 495.168 495.168" width="512" xmlns="http://www.w3.org/2000/svg"><g><path d="m247.584 98.484c-109.618 0-204.021 59.653-246.733 145.472-1.135 2.28-1.135 4.975 0 7.256 42.712 85.819 137.115 145.472 246.733 145.472s204.021-59.653 246.733-145.472c1.135-2.28 1.135-4.975 0-7.256-42.712-85.819-137.116-145.472-246.733-145.472z" fill="#f9f5f3"/><path d="m494.317 243.956c-42.712-85.819-137.116-145.472-246.733-145.472-3.991 0-7.959.089-11.907.245 104.513 4.143 193.669 62.533 234.826 145.227 1.135 2.28 1.135 4.975 0 7.256-41.157 82.694-130.313 141.084-234.826 145.227 3.949.156 7.917.245 11.907.245 109.617 0 204.021-59.653 246.733-145.472 1.134-2.281 1.134-4.976 0-7.256z" fill="#f9eae0"/><circle cx="247.584" cy="247.584" fill="#a0c8ff" r="115.967"/><path d="m247.584 131.617c-4.02 0-7.993.205-11.907.604 58.453 5.962 104.059 55.336 104.059 115.362s-45.607 109.4-104.059 115.362c3.915.399 7.887.604 11.907.604 64.047 0 115.967-51.92 115.967-115.967s-51.92-115.965-115.967-115.965z" fill="#91b2fa"/><circle cx="247.584" cy="247.584" fill="#868eaf" r="49.7"/><path d="m247.584 197.884c-4.106 0-8.091.508-11.907 1.446 21.696 5.336 37.793 24.911 37.793 48.254s-16.096 42.917-37.793 48.254c3.816.939 7.802 1.446 11.907 1.446 27.449 0 49.7-22.251 49.7-49.7s-22.251-49.7-49.7-49.7z" fill="#7d83ad"/><ellipse cx="280.717" cy="214.451" fill="#f9f5f3" rx="16.567" ry="16.567" transform="matrix(.707 -.707 .707 .707 -69.419 261.308)"/></g></svg>