<svg id="Capa_1" enable-background="new 0 0 503.439 503.439" height="512" viewBox="0 0 503.439 503.439" width="512" xmlns="http://www.w3.org/2000/svg"><g><g><path d="m206.3 396.286h-149.1c-4.142 0-7.5-3.357-7.5-7.5s3.358-7.5 7.5-7.5h149.1c4.142 0 7.5 3.357 7.5 7.5s-3.358 7.5-7.5 7.5z" fill="#abc4d6"/></g><g><g><path d="m231.15 429.42h-182.233c-17.838 0-32.35-14.513-32.35-32.351 0-4.143 3.358-7.5 7.5-7.5s7.5 3.357 7.5 7.5c0 9.567 7.783 17.351 17.35 17.351h182.233c9.567 0 17.35-7.783 17.35-17.351 0-4.143 3.358-7.5 7.5-7.5s7.5 3.357 7.5 7.5c0 17.838-14.512 32.351-32.35 32.351z" fill="#bdd3dd"/></g></g><g><g><path d="m57.2 429.42c-4.142 0-7.5-3.357-7.5-7.5v-66.267c0-4.143 3.358-7.5 7.5-7.5s7.5 3.357 7.5 7.5v66.267c0 4.142-3.358 7.5-7.5 7.5z" fill="#bdd3dd"/></g></g><g><g><path d="m206.3 429.42c-4.142 0-7.5-3.357-7.5-7.5v-66.267c0-4.143 3.358-7.5 7.5-7.5s7.5 3.357 7.5 7.5v66.267c0 4.142-3.358 7.5-7.5 7.5z" fill="#bdd3dd"/></g></g><path d="m156.6 101.803h33.133v43.833h-33.133z" fill="#868eaf"/><path d="m423.085 173.419h-140.28c-6.275 0-12.011-3.545-14.818-9.158l-2.83-5.66c-5.613-11.225-17.085-18.316-29.635-18.316h-161.755c-9.15 0-16.567 7.417-16.567 16.567v16.567l-16.567 99.4-28.281 28.281c-3.107 3.107-4.852 7.321-4.852 11.714v9.704c0 18.299 14.834 33.133 33.133 33.133h166.59c10.288 0 20.434-2.395 29.635-6.996l37.781-18.89c9.145-4.573 15.667-13.111 17.672-23.137l11.047-55.234c1.398-6.992 7.114-12.305 14.19-13.19l115.069-14.383c3.366-.421 6.631 1.327 8.148 4.361l11.824 23.648c1.355 2.71 4.125 4.422 7.155 4.422h21.127c4.035 0 7.438-3.004 7.938-7.008l14.567-116.533c.597-4.775-3.126-8.992-7.938-8.992h-19.79c-2.675 0-5.173 1.337-6.656 3.562l-10.659 15.988z" fill="#a0c8ff"/><g><g><path d="m140.033 98.086h-132.533c-4.142 0-7.5-3.357-7.5-7.5s3.358-7.5 7.5-7.5h132.533c4.142 0 7.5 3.357 7.5 7.5s-3.358 7.5-7.5 7.5z" fill="#868eaf"/></g></g><g><g><path d="m338.833 98.086h-132.533c-4.142 0-7.5-3.357-7.5-7.5s3.358-7.5 7.5-7.5h132.534c4.142 0 7.5 3.357 7.5 7.5s-3.358 7.5-7.501 7.5z" fill="#868eaf"/></g></g><g><g><g><path d="m242.158 158.602 2.83 5.66c2.806 5.613 8.543 9.158 14.818 9.158h23c-6.275 0-12.011-3.545-14.818-9.158l-2.83-5.66c-5.613-11.225-17.085-18.316-29.635-18.316h-23c12.549 0 24.022 7.091 29.635 18.316z" fill="#91b2fa"/></g><g><path d="m294 241.053c-7.076.885-12.792 6.197-14.19 13.19l-10.499 52.387c-2.005 10.026-8.527 18.565-17.672 23.137l-37.781 18.89c-9.201 4.601-19.348 6.996-29.635 6.996h23c10.288 0 20.434-2.395 29.635-6.996l37.781-18.89c9.145-4.573 15.667-13.111 17.672-23.137l11.047-55.234c1.398-6.992 7.114-12.305 14.19-13.19z" fill="#91b2fa"/></g><g><path d="m495.438 123.719h-19.79c-.536 0-1.062.068-1.577.172 3.987.826 6.832 4.603 6.305 8.821l-14.567 116.533c-.46 3.681-3.376 6.51-6.979 6.944.302.035.605.064.914.064h21.127c4.035 0 7.438-3.004 7.938-7.008l14.567-116.533c.597-4.775-3.126-8.993-7.938-8.993z" fill="#91b2fa"/></g></g></g><path d="m57.2 173.419h73.39c4.944 0 8.704 4.439 7.891 9.315l-13.9 83.4c-.643 3.857-3.98 6.685-7.891 6.685h-76.057z" fill="#868eaf"/><path d="m166.044 272.819h23.69c18.299 0 33.133-14.834 33.133-33.133v-58.267c0-4.418-3.582-8-8-8h-34.923c-3.911 0-7.248 2.827-7.891 6.685l-13.9 83.4c-.813 4.876 2.947 9.315 7.891 9.315z" fill="#868eaf"/><path d="m214.867 173.419h-23c4.418 0 8 3.582 8 8v58.267c0 18.299-14.834 33.133-33.133 33.133h23c18.299 0 33.133-14.834 33.133-33.133v-58.267c0-4.418-3.582-8-8-8z" fill="#7d83ad"/><circle cx="446.517" cy="165.136" fill="#868eaf" r="24.85"/><g><path d="m289.133 214.052h-33.133c-4.142 0-7.5-3.357-7.5-7.5s3.358-7.5 7.5-7.5h33.133c4.142 0 7.5 3.357 7.5 7.5s-3.358 7.5-7.5 7.5z" fill="#ffce69"/></g><path d="m198.3 107.153h-50.267c-4.418 0-8-3.582-8-8v-17.134c0-4.418 3.582-8 8-8h50.267c4.418 0 8 3.582 8 8v17.133c0 4.419-3.582 8.001-8 8.001z" fill="#bdd3dd"/><path d="m198.3 74.019h-23c4.418 0 8 3.582 8 8v17.133c0 4.418-3.582 8-8 8h23c4.418 0 8-3.582 8-8v-17.133c0-4.418-3.582-8-8-8z" fill="#abc4d6"/><path d="m292.311 298.453h-102.578c-4.142 0-7.5 3.357-7.5 7.5s3.358 7.5 7.5 7.5h100.416c.954-2.171 1.688-4.454 2.162-6.824l1.6-8.001c-.515-.112-1.05-.175-1.6-.175z" fill="#91b2fa"/><path d="m130.59 173.419h-23c4.944 0 8.704 4.439 7.891 9.315l-13.9 83.4c-.643 3.858-3.98 6.685-7.891 6.685h23c3.911 0 7.248-2.827 7.891-6.685l13.9-83.4c.813-4.876-2.948-9.315-7.891-9.315z" fill="#7d83ad"/></g></svg>