<svg id="Capa_1" enable-background="new 0 0 497 497" height="512" viewBox="0 0 497 497" width="512" xmlns="http://www.w3.org/2000/svg"><g><path d="m115.966 33.134c-18.299 0-33.133 14.834-33.133 33.133v397.601c0 18.299 14.834 33.133 33.133 33.133h265.068c18.299 0 33.133-14.834 33.133-33.133v-397.602c0-18.299-14.834-33.133-33.133-33.133h-265.068z" fill="#f9f5f3"/><path d="m281.633 71.444h-66.267v-63.444c0-4.418 3.582-8 8-8h50.267c4.418 0 8 3.582 8 8z" fill="#a0c8ff"/><path d="m273.35 0h-23.815c4.575 0 8.283 3.709 8.283 8.283v63.161h23.815v-63.161c0-4.574-3.708-8.283-8.283-8.283z" fill="#91b2fa"/><path d="m323.333 314.767h-25.005l-49.545-7-49.712 7h-25.404c-4.418 0-8-3.582-8-8v-166.233c0-4.418 3.582-8 8-8h149.667c4.418 0 8 3.582 8 8v166.234c-.001 4.418-3.582 7.999-8.001 7.999z" fill="#a0c8ff"/><path d="m323.333 381.034h-149.666c-4.418 0-8-3.582-8-8v-17.133c0-4.418 3.582-8 8-8h149.667c4.418 0 8 3.582 8 8v17.133c-.001 4.419-3.582 8-8.001 8z" fill="#89dd8e"/><g><g><g><path d="m240.217 421.933h-49.7c-4.289 0-7.766-3.477-7.766-7.766s3.476-7.766 7.766-7.766h49.7c4.289 0 7.766 3.477 7.766 7.766-.001 4.29-3.477 7.766-7.766 7.766z" fill="#868eaf"/></g><g><path d="m306.483 421.933h-33.133c-4.289 0-7.766-3.477-7.766-7.766s3.476-7.766 7.766-7.766h33.133c4.289 0 7.766 3.477 7.766 7.766 0 4.29-3.476 7.766-7.766 7.766z" fill="#868eaf"/></g></g></g><ellipse cx="248.5" cy="207.084" fill="#f9f5f3" rx="41.417" ry="41.417" transform="matrix(.924 -.383 .383 .924 -60.332 110.86)"/><path d="m298.2 273.351c0-13.724-11.126-24.85-24.85-24.85h-49.7c-13.724 0-24.85 11.126-24.85 24.85v41.417h99.4z" fill="#ffce69"/><path d="m314.767 99.4c9.15 0 16.567-7.417 16.567-16.567s-7.417-16.567-16.567-16.567h-132.534c-9.15 0-16.567 7.417-16.567 16.567s7.417 16.567 16.567 16.567z" fill="#868eaf"/><path d="m314.767 66.267h-23.815c9.149 0 16.567 7.417 16.567 16.567s-7.417 16.567-16.567 16.567h23.815c9.149 0 16.567-7.417 16.567-16.567-.001-9.15-7.418-16.567-16.567-16.567z" fill="#7d83ad"/><path d="m381.034 33.134h-23.814c18.299 0 33.132 14.834 33.132 33.132v397.601c0 18.299-14.834 33.133-33.132 33.133h23.815c18.298 0 33.132-14.834 33.132-33.133v-397.601c0-18.298-14.834-33.132-33.133-33.132z" fill="#f9eae0"/><path d="m323.05 132.534h-23.815c4.575 0 8.283 3.709 8.283 8.283v165.667c0 4.575-3.709 8.283-8.283 8.283h23.815c4.575 0 8.283-3.709 8.283-8.283v-165.667c0-4.575-3.708-8.283-8.283-8.283z" fill="#91b2fa"/><path d="m323.05 347.901h-23.815c4.575 0 8.283 3.709 8.283 8.283v16.567c0 4.575-3.709 8.283-8.283 8.283h23.815c4.575 0 8.283-3.709 8.283-8.283v-16.567c0-4.575-3.708-8.283-8.283-8.283z" fill="#79d191"/><path d="m274.385 162.043h23.815v117.002h-23.815z" fill="#a0c8ff"/><path d="m248.5 165.667c-4.14 0-8.135.615-11.907 1.746 17.068 5.116 29.509 20.937 29.509 39.671s-12.441 34.555-29.509 39.671c3.772 1.131 7.767 1.746 11.907 1.746 22.874 0 41.417-18.543 41.417-41.417s-18.543-41.417-41.417-41.417z" fill="#f9eae0"/><path d="m273.35 248.501h-23.815c13.724 0 24.85 11.126 24.85 24.85v41.417h23.815v-41.417c0-13.725-11.126-24.85-24.85-24.85z" fill="#ffbd61"/></g></svg>