<svg id="Capa_1" enable-background="new 0 0 497 497" height="512" viewBox="0 0 497 497" width="512" xmlns="http://www.w3.org/2000/svg"><g><path d="m99.4 76h298.2v179.333h-298.2z" fill="#868eaf"/><path d="m374.6 76h23v179.333h-23z" fill="#7d83ad"/><path d="m66.267 273.5h364.467v198.5h-364.467z" fill="#868eaf"/><path d="m407.733 273.5h23v198.5h-23z" fill="#7d83ad"/><path d="m439.3 281.633h-381.6c-4.418 0-8-3.582-8-8v-17.133c0-4.418 3.582-8 8-8h381.6c4.418 0 8 3.582 8 8v17.133c0 4.419-3.582 8-8 8z" fill="#f9f5f3"/><g fill="#a0c8ff"><path d="m141.1 414.167h-33.7c-4.418 0-8-3.582-8-8v-33.7c0-4.418 3.582-8 8-8h33.7c4.418 0 8 3.582 8 8v33.7c0 4.418-3.582 8-8 8z"/><path d="m389.6 414.167h-33.7c-4.418 0-8-3.582-8-8v-33.7c0-4.418 3.582-8 8-8h33.7c4.418 0 8 3.582 8 8v33.7c0 4.418-3.582 8-8 8z"/><path d="m314.767 468.867h-132.534v-112.967c0-4.418 3.582-8 8-8h116.533c4.418 0 8 3.582 8 8v112.967z"/></g><path d="m298.2 347.9h-99.4v-25.133c0-4.418 3.582-8 8-8h83.4c4.418 0 8 3.582 8 8z" fill="#89dd8e"/><path d="m256 347.9v115.967c0 4.142-3.357 7.5-7.5 7.5s-7.5-3.358-7.5-7.5v-115.967" fill="#91b2fa"/><path d="m439.3 248.5h-23c4.418 0 8 3.582 8 8v17.133c0 4.418-3.582 8-8 8h23c4.418 0 8-3.582 8-8v-17.133c0-4.418-3.582-8-8-8z" fill="#f9eae0"/><g><path d="m406.167 82.832h-315.334c-4.418 0-8-3.582-8-8v-17.133c0-4.418 3.582-8 8-8h315.333c4.418 0 8 3.582 8 8v17.133c.001 4.419-3.581 8-7.999 8z" fill="#f9f5f3"/><path d="m406.167 49.699h-23c4.418 0 8 3.582 8 8v17.133c0 4.418-3.582 8-8 8h23c4.418 0 8-3.582 8-8v-17.133c0-4.418-3.582-8-8-8z" fill="#f9eae0"/></g><path d="m356.467 215.367h-214.898c-4.418 0-8-3.582-8-8v-199.367c0-4.418 3.582-8 8-8h214.898c4.418 0 8 3.582 8 8v199.367c0 4.418-3.582 8-8 8z" fill="#a0c8ff"/><g><g><path d="m184.322 132.54c7.359 28.578 33.302 49.693 64.177 49.693 30.878 0 56.823-21.119 64.179-49.7v-49.701c-7.356-28.581-33.302-49.7-64.179-49.7s-56.823 21.118-64.179 49.7z" fill="#89dd8e"/><g fill="#79d191"><g><path d="m264.831 80.891c.373 4.273 4.157 7.429 8.412 7.06 4.273-.373 7.434-4.14 7.061-8.412-1.325-15.166-4.472-30.85-9.773-42.656-6.74-2.375-13.982-3.682-21.521-3.74 3.833 1.234 13.018 15.648 15.821 47.748z"/><path d="m226.469 36.883c-5.301 11.806-8.449 27.491-9.773 42.657-.373 4.273 2.788 8.039 7.061 8.412.23.02.458.03.685.03 3.983 0 7.374-3.048 7.727-7.091 2.803-32.101 11.988-46.515 15.822-47.747-7.54.057-14.782 1.364-21.522 3.739z"/></g><g><path d="m232.169 134.476c-.372-4.273-4.143-7.424-8.412-7.061-4.273.373-7.434 4.139-7.061 8.412 1.324 15.166 4.471 30.851 9.773 42.656 6.74 2.375 13.982 3.683 21.522 3.74-3.834-1.233-13.02-15.647-15.822-47.747z"/><path d="m270.53 178.483c5.301-11.806 8.449-27.491 9.773-42.657.373-4.273-2.788-8.039-7.061-8.412-4.267-.368-8.039 2.788-8.412 7.06-2.803 32.101-11.988 46.515-15.822 47.748 7.54-.056 14.782-1.363 21.522-3.739z"/></g></g></g><path d="m323.334 132.533h-149.668c-4.418 0-8-3.582-8-8v-33.7c0-4.418 3.582-8 8-8h149.668c4.418 0 8 3.582 8 8v33.7c0 4.419-3.582 8-8 8z" fill="#f9f5f3"/><path d="m323.05 82.833h-23.815c4.575 0 8.283 3.709 8.283 8.283v33.133c0 4.575-3.709 8.283-8.283 8.283h23.815c4.575 0 8.283-3.709 8.283-8.283v-33.132c.001-4.575-3.708-8.284-8.283-8.284z" fill="#f9eae0"/></g><path d="m356.467 0h-23c4.418 0 8 3.582 8 8v199.367c0 4.418-3.582 8-8 8h23c4.418 0 8-3.582 8-8v-199.367c0-4.418-3.582-8-8-8z" fill="#91b2fa"/><path d="m389.6 364.467h-23c4.418 0 8 3.582 8 8v33.7c0 4.418-3.582 8-8 8h23c4.418 0 8-3.582 8-8v-33.7c0-4.419-3.582-8-8-8z" fill="#91b2fa"/><path d="m141.069 364.467h-23c4.418 0 8 3.582 8 8v33.7c0 4.418-3.582 8-8 8h23c4.418 0 8-3.582 8-8v-33.7c0-4.419-3.582-8-8-8z" fill="#91b2fa"/><path d="m290.2 314.767h-23c4.418 0 8 3.582 8 8v25.133h23v-25.133c0-4.419-3.582-8-8-8z" fill="#79d191"/><path d="m306.767 347.9h-23c4.418 0 8 3.582 8 8v112.967h23v-112.967c0-4.418-3.582-8-8-8z" fill="#91b2fa"/><g><path d="m472.433 497h-447.866c-4.418 0-8-3.582-8-8v-17.156c0-4.418 3.582-8 8-8h447.867c4.418 0 8 3.582 8 8v17.156c-.001 4.418-3.582 8-8.001 8z" fill="#f9f5f3"/><path d="m472.277 463.844h-23.448c4.504 0 8.156 3.652 8.156 8.156v16.844c0 4.504-3.652 8.156-8.156 8.156h23.448c4.504 0 8.156-3.651 8.156-8.156v-16.844c0-4.505-3.651-8.156-8.156-8.156z" fill="#f9eae0"/></g></g></svg>