<svg id="Capa_1" enable-background="new 0 0 512 512" height="512" viewBox="0 0 512 512" width="512" xmlns="http://www.w3.org/2000/svg"><g><g><path d="m220.96 512h-168.744c-5.602 0-10.143-4.541-10.143-10.143v-309.826c0-5.602 4.541-10.143 10.143-10.143h168.744c5.602 0 10.143 4.541 10.143 10.143v309.826c0 5.602-4.541 10.143-10.143 10.143z" fill="#0067c5"/><path d="m231.103 192.031c0-5.602-4.541-10.143-10.143-10.143h-107.588v295.476h117.731z" fill="#0055a3"/><g><path d="m256.922 95.916c-4.204 0-7.611-3.408-7.611-7.611v-80.694c0-4.204 3.407-7.611 7.611-7.611s7.611 3.408 7.611 7.611v80.693c0 4.204-3.407 7.612-7.611 7.612z" fill="#444"/></g><path d="m309.021 64.629h-104.198c-5.602 0-10.143 4.541-10.143 10.143v72.846h124.483v-72.846c.001-5.602-4.54-10.143-10.142-10.143z" fill="#9c9c9c"/><path d="m309.021 64.629h-43.152c5.602 0 10.143 4.541 10.143 10.143v72.846h43.152v-72.846c0-5.602-4.541-10.143-10.143-10.143z" fill="#838383"/><g fill="#c0d6f2"><path d="m171.706 246.196h-78.534c-8.869 0-16.059-7.19-16.059-16.059 0-8.869 7.19-16.059 16.059-16.059h78.534c8.869 0 16.059 7.19 16.059 16.059 0 8.869-7.19 16.059-16.059 16.059z"/><path d="m171.706 314.478h-78.534c-8.869 0-16.059-7.19-16.059-16.059 0-8.869 7.19-16.059 16.059-16.059h78.534c8.869 0 16.059 7.19 16.059 16.059 0 8.869-7.19 16.059-16.059 16.059z"/><path d="m171.706 382.76h-78.534c-8.869 0-16.059-7.19-16.059-16.059 0-8.869 7.19-16.059 16.059-16.059h78.534c8.869 0 16.059 7.19 16.059 16.059 0 8.87-7.19 16.059-16.059 16.059z"/><path d="m171.706 451.043h-78.534c-8.869 0-16.059-7.19-16.059-16.059 0-8.869 7.19-16.059 16.059-16.059h78.534c8.869 0 16.059 7.19 16.059 16.059 0 8.869-7.19 16.059-16.059 16.059z"/></g><path d="m113.372 246.196h58.334c8.869 0 16.059-7.19 16.059-16.059 0-8.869-7.19-16.059-16.059-16.059h-58.334z" fill="#b2caec"/><path d="m113.372 314.478h58.334c8.869 0 16.059-7.19 16.059-16.059s-7.19-16.059-16.059-16.059h-58.334z" fill="#b2caec"/><path d="m113.372 382.76h58.334c8.869 0 16.059-7.19 16.059-16.058 0-8.869-7.19-16.059-16.059-16.059h-58.334z" fill="#b2caec"/><path d="m113.372 451.043h58.334c8.869 0 16.059-7.19 16.059-16.059s-7.19-16.059-16.059-16.059h-58.334z" fill="#b2caec"/><path d="m231.103 501.857v-24.493h-131.371c-6.726 0-12.178 5.452-12.178 12.178v22.458h133.406c5.602 0 10.143-4.541 10.143-10.143z" fill="#0055a3"/><path d="m459.784 512h-168.744c-5.602 0-10.143-4.541-10.143-10.143v-244.357c0-5.602 4.541-10.143 10.143-10.143h168.744c5.602 0 10.143 4.541 10.143 10.143v244.356c0 5.603-4.541 10.144-10.143 10.144z" fill="#0473ce"/><path d="m430.705 322.595h-27.442c-2.546 0-4.611-2.064-4.611-4.611v-26.751c0-2.546 2.064-4.611 4.611-4.611h27.442c2.546 0 4.611 2.064 4.611 4.611v26.751c0 2.547-2.064 4.611-4.611 4.611z" fill="#c0d6f2"/><path d="m430.705 399.071h-27.442c-2.546 0-4.611-2.064-4.611-4.61v-26.751c0-2.546 2.064-4.611 4.611-4.611h27.442c2.546 0 4.611 2.064 4.611 4.611v26.751c0 2.546-2.064 4.61-4.611 4.61z" fill="#c0d6f2"/><path d="m430.705 475.548h-27.442c-2.546 0-4.611-2.064-4.611-4.611v-26.751c0-2.546 2.064-4.611 4.611-4.611h27.442c2.546 0 4.611 2.064 4.611 4.611v26.751c0 2.546-2.064 4.611-4.611 4.611z" fill="#c0d6f2"/><path d="m360.197 477.364h-206.55v-355.242c0-5.602 4.541-10.143 10.143-10.143h186.264c5.602 0 10.143 4.541 10.143 10.143z" fill="#5a5a5a"/><path d="m208.555 430.637h-19.057c-2.546 0-4.611-2.064-4.611-4.611v-262.71c0-2.546 2.064-4.611 4.611-4.611h19.057c2.546 0 4.611 2.064 4.611 4.611v262.71c0 2.547-2.065 4.611-4.611 4.611z" fill="#d3e1f5"/><path d="m266.45 430.637h-19.057c-2.546 0-4.611-2.064-4.611-4.611v-262.71c0-2.546 2.064-4.611 4.611-4.611h19.057c2.546 0 4.611 2.064 4.611 4.611v262.71c0 2.547-2.064 4.611-4.611 4.611z" fill="#d3e1f5"/><path d="m459.784 247.357h-34.611c5.602 0 10.143 4.541 10.143 10.143v244.356c0 5.602-4.541 10.143-10.143 10.143h34.611c5.602 0 10.143-4.541 10.143-10.143v-244.356c0-5.602-4.541-10.143-10.143-10.143z" fill="#0067c5"/><path d="m350.054 111.979h-43.152c5.602 0 10.143 4.541 10.143 10.143v355.243h43.152v-355.244c0-5.601-4.541-10.142-10.143-10.142z" fill="#444"/><path d="m324.346 430.637h-19.057c-2.546 0-4.611-2.064-4.611-4.611v-262.71c0-2.546 2.064-4.611 4.611-4.611h19.057c2.546 0 4.61 2.064 4.61 4.611v262.71c0 2.547-2.064 4.611-4.61 4.611z" fill="#d3e1f5"/><path d="m324.346 430.637c2.546 0 4.611-2.064 4.611-4.611v-262.71c0-2.546-2.064-4.611-4.611-4.611h-7.3v271.932z" fill="#82aee3"/><path d="m373.838 477.364h-233.831c-6.726 0-12.178 5.452-12.178 12.178v22.458h258.188v-22.457c-.001-6.726-5.453-12.179-12.179-12.179z" fill="#838383"/><path d="m386.016 512v-22.457c0-6.726-5.452-12.178-12.178-12.178h-43.152c6.726 0 12.178 5.452 12.178 12.178 0 24.041-.004 21.059.011 22.457z" fill="#5a5a5a"/></g></g></svg>