<svg id="Capa_1" enable-background="new 0 0 512 512" height="512" viewBox="0 0 512 512" width="512" xmlns="http://www.w3.org/2000/svg"><g><path d="m458.667 68.166h-405.334c-14.224 0-25.755 11.531-25.755 25.755v323.813h456.844c0-10.651 0-306.482 0-323.813 0-14.224-11.531-25.755-25.755-25.755z" fill="#5a5a5a"/><path d="m64.665 348.366v-236.932c0-3.414 2.767-6.181 6.181-6.181h370.308c3.414 0 6.181 2.767 6.181 6.181v236.932c0 3.414-2.767 6.181-6.181 6.181h-370.308c-3.414 0-6.181-2.767-6.181-6.181z" fill="#d3e1f5"/><circle cx="166.837" cy="189.745" fill="#ee6161" r="59.819"/><path d="m166.837 129.925v59.819h59.819c0-33.037-26.782-59.819-59.819-59.819z" fill="#d83131"/><g><path d="m404.983 159.313h-138.883c-4.268 0-7.726-3.459-7.726-7.726s3.459-7.726 7.726-7.726h138.883c4.268 0 7.726 3.459 7.726 7.726s-3.459 7.726-7.726 7.726z" fill="#528fd8"/></g><g><path d="m404.983 186.105h-138.883c-4.268 0-7.726-3.459-7.726-7.726s3.459-7.726 7.726-7.726h138.883c4.268 0 7.726 3.459 7.726 7.726s-3.459 7.726-7.726 7.726z" fill="#528fd8"/></g><g><path d="m335.541 212.896h-69.441c-4.268 0-7.726-3.459-7.726-7.726s3.459-7.726 7.726-7.726h69.442c4.268 0 7.726 3.459 7.726 7.726s-3.459 7.726-7.727 7.726z" fill="#528fd8"/></g><path d="m286.555 328.844h-17.513c-2.845 0-5.151-2.306-5.151-5.151v-84.576c0-2.845 2.306-5.151 5.151-5.151h17.513c2.845 0 5.151 2.306 5.151 5.151v84.576c0 2.845-2.306 5.151-5.151 5.151z" fill="#d83131"/><path d="m344.298 328.844h-17.513c-2.845 0-5.151-2.306-5.151-5.151v-69.901c0-2.845 2.306-5.151 5.151-5.151h17.513c2.845 0 5.151 2.306 5.151 5.151v69.901c0 2.845-2.306 5.151-5.151 5.151z" fill="#e94444"/><path d="m402.04 328.844h-17.513c-2.845 0-5.151-2.306-5.151-5.151v-44.232c0-2.845 2.306-5.151 5.151-5.151h17.513c2.845 0 5.151 2.306 5.151 5.151v44.232c0 2.845-2.306 5.151-5.151 5.151z" fill="#ee6161"/><g><path d="m236.278 297.418h-129.261c-4.268 0-7.726-3.459-7.726-7.726s3.459-7.726 7.726-7.726h129.261c4.268 0 7.726 3.459 7.726 7.726s-3.459 7.726-7.726 7.726z" fill="#528fd8"/></g><g><path d="m171.648 324.21h-64.631c-4.268 0-7.726-3.459-7.726-7.726s3.459-7.726 7.726-7.726h64.631c4.268 0 7.726 3.459 7.726 7.726s-3.459 7.726-7.726 7.726z" fill="#528fd8"/></g><path d="m458.667 68.166h-37.323c14.224 0 25.755 11.531 25.755 25.755v323.813h37.323c0-10.651 0-306.481 0-323.813 0-14.224-11.531-25.755-25.755-25.755z" fill="#444"/><path d="m503.759 391.633h-495.518c-4.552 0-8.241 3.69-8.241 8.241v15.114c0 15.931 12.914 28.845 28.845 28.845h454.31c15.931 0 28.845-12.914 28.845-28.845v-15.114c0-4.551-3.69-8.241-8.241-8.241z" fill="#838383"/><path d="m503.759 391.633h-37.323c4.552 0 8.241 3.69 8.241 8.241v15.114c0 15.931-12.914 28.845-28.845 28.845h37.323c15.931 0 28.845-12.914 28.845-28.845v-15.114c0-4.551-3.69-8.241-8.241-8.241z" fill="#5a5a5a"/></g></svg>