<svg id="Capa_1" enable-background="new 0 0 512 512" height="512" viewBox="0 0 512 512" width="512" xmlns="http://www.w3.org/2000/svg"><g><path d="m477.32 182.638h-307.171v-101.511c0-7.965 6.457-14.423 14.423-14.423h278.326c7.965 0 14.423 6.457 14.423 14.423v101.511z" fill="#838383"/><path d="m462.897 66.704h-40.883c7.965 0 14.423 6.457 14.423 14.423v101.511h40.883v-101.511c0-7.966-6.457-14.423-14.423-14.423z" fill="#5a5a5a"/><path d="m447.356 182.638h-247.243v-162.807c0-8.534 6.918-15.453 15.453-15.453h216.338c8.534 0 15.453 6.918 15.453 15.453v162.807z" fill="#d3e1f5"/><g><path d="m402.028 56.577h-156.587c-4.268 0-7.726-3.459-7.726-7.726s3.459-7.726 7.726-7.726h156.588c4.268 0 7.726 3.459 7.726 7.726s-3.459 7.726-7.727 7.726z" fill="#528fd8"/></g><g><path d="m402.028 100.38h-156.587c-4.268 0-7.726-3.459-7.726-7.726s3.459-7.726 7.726-7.726h156.588c4.268 0 7.726 3.459 7.726 7.726s-3.459 7.726-7.727 7.726z" fill="#528fd8"/></g><path d="m492.427 130.561c-24.302 0-449.42 0-472.853 0-10.811 0-19.574 8.764-19.574 19.574v310.761c0 10.81 8.763 19.573 19.573 19.573h472.853c10.81 0 19.573-8.763 19.573-19.573v-310.761c.001-10.81-8.762-19.574-19.572-19.574z" fill="#e2e2e2"/><path d="m108.684 507.622h-50.479c-14.793 0-26.785-11.992-26.785-26.785v-350.643c0-14.793 11.992-26.785 26.785-26.785h50.479c14.793 0 26.785 11.992 26.785 26.785v350.643c0 14.793-11.992 26.785-26.785 26.785z" fill="#9c9c9c"/><g fill="#838383"><path d="m217.948 290.575c-9.85 0-17.835-7.985-17.835-17.835 0-9.85 7.985-17.835 17.835-17.835 9.85 0 17.835 7.985 17.835 17.835 0 9.85-7.985 17.835-17.835 17.835z"/><path d="m288.032 290.575c-9.85 0-17.835-7.985-17.835-17.835 0-9.85 7.985-17.835 17.835-17.835 9.85 0 17.835 7.985 17.835 17.835 0 9.85-7.985 17.835-17.835 17.835z"/><path d="m358.117 290.575c-9.85 0-17.835-7.985-17.835-17.835 0-9.85 7.985-17.835 17.835-17.835 9.85 0 17.835 7.985 17.835 17.835 0 9.85-7.985 17.835-17.835 17.835z"/><path d="m217.948 360.66c-9.85 0-17.835-7.985-17.835-17.835 0-9.85 7.985-17.835 17.835-17.835 9.85 0 17.835 7.985 17.835 17.835 0 9.85-7.985 17.835-17.835 17.835z"/><path d="m288.032 360.66c-9.85 0-17.835-7.985-17.835-17.835 0-9.85 7.985-17.835 17.835-17.835 9.85 0 17.835 7.985 17.835 17.835 0 9.85-7.985 17.835-17.835 17.835z"/><path d="m358.117 360.66c-9.85 0-17.835-7.985-17.835-17.835 0-9.85 7.985-17.835 17.835-17.835 9.85 0 17.835 7.985 17.835 17.835 0 9.85-7.985 17.835-17.835 17.835z"/><path d="m217.948 430.745c-9.85 0-17.835-7.985-17.835-17.835 0-9.85 7.985-17.835 17.835-17.835 9.85 0 17.835 7.985 17.835 17.835 0 9.85-7.985 17.835-17.835 17.835z"/><path d="m288.032 430.745c-9.85 0-17.835-7.985-17.835-17.835 0-9.85 7.985-17.835 17.835-17.835 9.85 0 17.835 7.985 17.835 17.835 0 9.85-7.985 17.835-17.835 17.835z"/><path d="m358.117 430.745c-9.85 0-17.835-7.985-17.835-17.835 0-9.85 7.985-17.835 17.835-17.835 9.85 0 17.835 7.985 17.835 17.835 0 9.85-7.985 17.835-17.835 17.835z"/><path d="m450.447 360.66h-30.648c-3.983 0-7.211-3.229-7.211-7.211v-91.332c0-3.983 3.229-7.211 7.211-7.211h30.648c3.983 0 7.211 3.229 7.211 7.211v91.332c0 3.983-3.229 7.211-7.211 7.211z"/><path d="m450.447 430.745h-30.648c-3.983 0-7.211-3.229-7.211-7.211v-21.247c0-3.983 3.229-7.211 7.211-7.211h30.648c3.983 0 7.211 3.229 7.211 7.211v21.247c0 3.982-3.229 7.211-7.211 7.211z"/></g><path d="m445.296 216.139h-232.821c-6.827 0-12.362-5.535-12.362-12.362v-29.759c0-6.827 5.535-12.362 12.362-12.362h232.821c6.827 0 12.362 5.535 12.362 12.362v29.759c0 6.827-5.535 12.362-12.362 12.362z" fill="#82aee3"/><path d="m492.427 130.561c-3.993 0-18.808 0-40.883 0 10.81 0 19.573 8.764 19.573 19.573v310.761c0 10.81-8.763 19.573-19.573 19.573h40.883c10.81 0 19.573-8.763 19.573-19.573v-310.76c0-10.81-8.763-19.574-19.573-19.574z" fill="#cecece"/><path d="m108.684 103.409h-40.883c14.793 0 26.785 11.992 26.785 26.785v350.643c0 14.793-11.992 26.785-26.785 26.785h40.883c14.793 0 26.785-11.992 26.785-26.785v-350.643c0-14.793-11.992-26.785-26.785-26.785z" fill="#838383"/></g></svg>