<svg id="Capa_1" enable-background="new 0 0 512 512" height="512" viewBox="0 0 512 512" width="512" xmlns="http://www.w3.org/2000/svg"><g><path d="m0 245.387v199.411c0 13.807 11.531 25 25.755 25h460.491c14.224 0 25.755-11.193 25.755-25v-199.411z" fill="#c86d36"/><path d="m471.117 245.387v199.411c0 13.807-11.531 25-25.755 25h40.883c14.224 0 25.755-11.193 25.755-25v-199.411z" fill="#ac5e2e"/><g><path d="m387.745 170.202h-263.49c-9.775 0-17.093-8.711-15.141-18l16.735-79.599c3.704-17.616 19.835-30.401 38.357-30.401h183.59c18.522 0 34.653 12.786 38.357 30.401l16.735 79.599c1.952 9.297-5.377 18-15.143 18zm-244.565-30h225.64l-12.951-61.6c-.78-3.708-4.176-6.4-8.075-6.4h-183.59c-3.899 0-7.295 2.692-8.075 6.4z" fill="#5a5a5a"/></g><path d="m0 155.059v140.977c0 9.389 7.841 17 17.513 17h476.974c9.672 0 17.513-7.611 17.513-17v-140.977c0-13.807-11.531-25-25.755-25h-460.49c-14.224 0-25.755 11.193-25.755 25z" fill="#9e5528"/><path d="m117.509 366.076h-31.954c-5.718 0-10.353-4.635-10.353-10.353v-69.786c0-14.327 11.614-25.941 25.941-25.941h.777c14.327 0 25.941 11.614 25.941 25.941v69.786c0 5.718-4.635 10.353-10.352 10.353z" fill="#fece85"/><path d="m426.445 366.076h-31.954c-5.718 0-10.353-4.635-10.353-10.353v-69.786c0-14.327 11.614-25.941 25.941-25.941h.777c14.327 0 25.941 11.614 25.941 25.941v69.786c.001 5.718-4.634 10.353-10.352 10.353z" fill="#fece85"/><g><path d="m101.532 347.056c-4.267 0-7.726-3.358-7.726-7.5v-41.191c0-4.142 3.459-7.5 7.726-7.5s7.726 3.358 7.726 7.5v41.191c0 4.142-3.459 7.5-7.726 7.5z" fill="#fea613"/></g><g><path d="m410.468 347.056c-4.267 0-7.726-3.358-7.726-7.5v-41.191c0-4.142 3.459-7.5 7.726-7.5s7.726 3.358 7.726 7.5v41.191c.001 4.142-3.459 7.5-7.726 7.5z" fill="#fea613"/></g><path d="m101.532 259.996c-14.541 0-26.33 11.443-26.33 25.558v27.482h52.659v-27.482c0-14.115-11.788-25.558-26.329-25.558z" fill="#fea613"/><path d="m410.468 259.996c-14.541 0-26.33 11.443-26.33 25.558v27.482h52.659v-27.482c.001-14.115-11.787-25.558-26.329-25.558z" fill="#fea613"/><path d="m486.245 130.059h-40.883c14.224 0 25.755 11.193 25.755 25v140.977c0 9.389-7.841 17-17.513 17h40.883c9.672 0 17.513-7.611 17.513-17v-140.977c0-13.807-11.531-25-25.755-25z" fill="#904d24"/></g></svg>