<svg id="Capa_1" enable-background="new 0 0 512 512" height="512" viewBox="0 0 512 512" width="512" xmlns="http://www.w3.org/2000/svg"><g><path d="m405.891 512h-299.782c-18.207 0-32.966-14.759-32.966-32.966v-446.068c0-18.207 14.759-32.966 32.966-32.966h299.783c18.206 0 32.966 14.759 32.966 32.966v446.068c-.001 18.207-14.76 32.966-32.967 32.966z" fill="#0067c5"/><path d="m120.454 153.374v-90.733c0-9.672 7.841-17.513 17.513-17.513h236.066c9.672 0 17.513 7.841 17.513 17.513v90.733c0 9.672-7.841 17.513-17.513 17.513h-236.066c-9.672 0-17.513-7.841-17.513-17.513z" fill="#d3e1f5"/><g fill="#82aee3"><path d="m344.596 241.676v-21.733c0-3.414 2.767-6.181 6.181-6.181h34.588c3.414 0 6.181 2.767 6.181 6.181v21.733c0 3.414-2.767 6.181-6.181 6.181h-34.588c-3.414 0-6.181-2.767-6.181-6.181z"/><path d="m120.454 460.691v-30.075c0-3.414 2.767-6.181 6.181-6.181h32.013c3.414 0 6.181 2.767 6.181 6.181v30.075c0 3.414-2.767 6.181-6.181 6.181h-32.013c-3.414 0-6.181-2.767-6.181-6.181z"/><path d="m193.459 460.691v-30.075c0-3.414 2.767-6.181 6.181-6.181h32.013c3.414 0 6.181 2.767 6.181 6.181v30.075c0 3.414-2.767 6.181-6.181 6.181h-32.013c-3.414 0-6.181-2.767-6.181-6.181z"/><path d="m266.464 460.691v-30.075c0-3.414 2.767-6.181 6.181-6.181h32.013c3.414 0 6.181 2.767 6.181 6.181v30.075c0 3.414-2.767 6.181-6.181 6.181h-32.013c-3.414 0-6.181-2.767-6.181-6.181z"/><path d="m120.454 387.686v-30.075c0-3.414 2.767-6.181 6.181-6.181h32.013c3.414 0 6.181 2.767 6.181 6.181v30.075c0 3.414-2.767 6.181-6.181 6.181h-32.013c-3.414 0-6.181-2.767-6.181-6.181z"/><path d="m193.459 387.686v-30.075c0-3.414 2.767-6.181 6.181-6.181h32.013c3.414 0 6.181 2.767 6.181 6.181v30.075c0 3.414-2.767 6.181-6.181 6.181h-32.013c-3.414 0-6.181-2.767-6.181-6.181z"/><path d="m266.464 387.686v-30.075c0-3.414 2.767-6.181 6.181-6.181h32.013c3.414 0 6.181 2.767 6.181 6.181v30.075c0 3.414-2.767 6.181-6.181 6.181h-32.013c-3.414 0-6.181-2.767-6.181-6.181z"/><path d="m120.454 314.681v-30.075c0-3.414 2.767-6.181 6.181-6.181h32.013c3.414 0 6.181 2.767 6.181 6.181v30.075c0 3.414-2.767 6.181-6.181 6.181h-32.013c-3.414 0-6.181-2.767-6.181-6.181z"/><path d="m193.459 314.681v-30.075c0-3.414 2.767-6.181 6.181-6.181h32.013c3.414 0 6.181 2.767 6.181 6.181v30.075c0 3.414-2.767 6.181-6.181 6.181h-32.013c-3.414 0-6.181-2.767-6.181-6.181z"/><path d="m266.464 314.681v-30.075c0-3.414 2.767-6.181 6.181-6.181h32.013c3.414 0 6.181 2.767 6.181 6.181v30.075c0 3.414-2.767 6.181-6.181 6.181h-32.013c-3.414 0-6.181-2.767-6.181-6.181z"/><path d="m120.454 241.676v-21.733c0-3.414 2.767-6.181 6.181-6.181h105.018c3.414 0 6.181 2.767 6.181 6.181v21.733c0 3.414-2.767 6.181-6.181 6.181h-105.018c-3.414 0-6.181-2.767-6.181-6.181z"/><path d="m266.464 241.676v-21.733c0-3.414 2.767-6.181 6.181-6.181h32.013c3.414 0 6.181 2.767 6.181 6.181v21.733c0 3.414-2.767 6.181-6.181 6.181h-32.013c-3.414 0-6.181-2.767-6.181-6.181z"/><path d="m344.596 460.691v-176.085c0-3.414 2.767-6.181 6.181-6.181h34.588c3.414 0 6.181 2.767 6.181 6.181v176.085c0 3.414-2.767 6.181-6.181 6.181h-34.588c-3.414 0-6.181-2.767-6.181-6.181z"/></g><g><path d="m251.79 150.24h-9.349c-13.349 0-24.209-10.86-24.209-24.209v-34.511c0-13.349 10.86-24.209 24.209-24.209h9.349c13.349 0 24.209 10.86 24.209 24.209v34.511c0 13.349-10.86 24.209-24.209 24.209zm-9.349-67.477c-4.828 0-8.757 3.928-8.757 8.757v34.511c0 4.828 3.928 8.757 8.757 8.757h9.349c4.828 0 8.757-3.928 8.757-8.757v-34.511c0-4.828-3.928-8.757-8.757-8.757z" fill="#444"/></g><g><path d="m294.155 150.24c-4.267 0-7.726-3.459-7.726-7.726v-11.332c0-4.267 3.459-7.726 7.726-7.726s7.726 3.459 7.726 7.726v11.332c.001 4.267-3.458 7.726-7.726 7.726z" fill="#444"/></g><g><path d="m345.869 150.24h-9.349c-13.349 0-24.209-10.86-24.209-24.209v-34.511c0-13.349 10.86-24.209 24.209-24.209h9.349c13.349 0 24.209 10.86 24.209 24.209v34.511c0 13.349-10.86 24.209-24.209 24.209zm-9.348-67.477c-4.828 0-8.757 3.928-8.757 8.757v34.511c0 4.828 3.928 8.757 8.757 8.757h9.349c4.828 0 8.757-3.928 8.757-8.757v-34.511c0-4.828-3.928-8.757-8.757-8.757z" fill="#444"/></g><path d="m405.891 0h-47.311c18.206 0 32.966 14.759 32.966 32.966v446.068c0 18.206-14.759 32.966-32.966 32.966h47.311c18.206 0 32.966-14.759 32.966-32.966v-446.068c0-18.207-14.759-32.966-32.966-32.966z" fill="#0055a3"/></g></svg>