<svg id="Capa_1" enable-background="new 0 0 512 512" height="512" viewBox="0 0 512 512" width="512" xmlns="http://www.w3.org/2000/svg"><g><path d="m511.539 285.293-42.651-117.181c-1.438-3.95-5.806-5.989-9.756-4.549-3.949 1.438-5.987 5.806-4.549 9.756l-250.098 91.028 30.679 84.289 250.098-91.028 11.972 32.892c1.125 3.091 4.044 5.01 7.154 5.01.864 0 1.743-.148 2.603-.461 3.948-1.438 5.986-5.805 4.548-9.756z" fill="#bfbfbf"/><path d="m464.111 381.071v20.309c0 9.422-7.638 17.059-17.059 17.059h40.275c9.422 0 17.059-7.638 17.059-17.059v-20.309z" fill="#a72b2b"/><path d="m468.888 168.112c-1.438-3.95-5.806-5.989-9.756-4.549-3.949 1.438-5.987 5.806-4.549 9.756l-250.098 91.028 22.857 62.799 264.404-96.235z" fill="#acacac"/><path d="m483.959 217.521-384.732 140.031c-38.365 13.964-80.785-5.817-94.749-44.182-13.964-38.365 5.817-80.785 44.182-94.749l331.297-120.582c38.365-13.964 80.785 5.817 94.749 44.182l19.449 53.435c3.222 8.854-1.343 18.643-10.196 21.865z" fill="#ca2c2c"/><path d="m483.959 217.521c8.853-3.222 13.418-13.012 10.196-21.865l-19.449-53.435c-13.964-38.365-56.384-58.146-94.749-44.182l-30.093 10.953c34.492-5.823 69.297 13.565 81.69 47.613l19.449 53.435c3.222 8.853-1.342 18.643-10.196 21.865l-47.705 18.685z" fill="#a72b2b"/><path d="m236.324 418.439h251.003c9.422 0 17.059-7.638 17.059-17.059v-20.309h-268.062z" fill="#ca2c2c"/><path d="m249.351 418.439h-191.955c-12.894 0-23.346-10.452-23.346-23.346v-62.256c0-12.894 10.452-23.346 23.346-23.346h168.609c12.894 0 23.346 10.452 23.346 23.346z" fill="#838383"/><path d="m179.475 381.634h-75.548c-9.758 0-17.669-7.91-17.669-17.669 0-9.758 7.91-17.669 17.669-17.669h75.548c9.758 0 17.669 7.91 17.669 17.669-.001 9.758-7.911 17.669-17.669 17.669z" fill="#444"/></g></svg>