<svg id="Capa_1" enable-background="new 0 0 512 512" height="512" viewBox="0 0 512 512" width="512" xmlns="http://www.w3.org/2000/svg"><g><g><path d="m256 210.586c-4.268 0-7.726-3.459-7.726-7.726v-106.493c0-21.302 17.33-38.632 38.632-38.632h175.121c4.268 0 7.726 3.459 7.726 7.726s-3.459 7.726-7.726 7.726h-175.122c-12.781 0-23.179 10.398-23.179 23.179v106.494c0 4.267-3.458 7.726-7.726 7.726z" fill="#9c9c9c"/></g><path d="m493.457 454.265h-474.914c-10.241 0-18.543-8.302-18.543-18.543v-199.855c0-10.241 8.302-18.543 18.543-18.543h474.913c10.241 0 18.543 8.302 18.543 18.543v199.855c.001 10.241-8.301 18.543-18.542 18.543z" fill="#5a5a5a"/><g fill="#cecece"><path d="m30.905 277.39c0-8.504 6.894-15.398 15.398-15.398h9.079c8.504 0 15.398 6.894 15.398 15.398 0 8.504-6.894 15.398-15.398 15.398h-9.079c-8.504 0-15.398-6.894-15.398-15.398z"/><path d="m98.919 277.39c0-8.504 6.894-15.398 15.398-15.398h9.079c8.504 0 15.398 6.894 15.398 15.398 0 8.504-6.894 15.398-15.398 15.398h-9.079c-8.504 0-15.398-6.894-15.398-15.398z"/><path d="m166.933 277.39c0-8.504 6.894-15.398 15.398-15.398h9.079c8.504 0 15.398 6.894 15.398 15.398 0 8.504-6.894 15.398-15.398 15.398h-9.079c-8.504 0-15.398-6.894-15.398-15.398z"/><path d="m302.961 277.39c0-8.504 6.894-15.398 15.398-15.398h9.079c8.504 0 15.398 6.894 15.398 15.398 0 8.504-6.894 15.398-15.398 15.398h-9.079c-8.504 0-15.398-6.894-15.398-15.398z"/><path d="m234.947 277.39c0-8.504 6.894-15.398 15.398-15.398h9.079c8.504 0 15.398 6.894 15.398 15.398 0 8.504-6.894 15.398-15.398 15.398h-9.079c-8.504 0-15.398-6.894-15.398-15.398z"/><path d="m377.905 277.39c0-8.504 6.894-15.398 15.398-15.398h7.343c8.504 0 15.398 6.894 15.398 15.398 0 8.504-6.894 15.398-15.398 15.398h-7.343c-8.505 0-15.398-6.894-15.398-15.398z"/><path d="m30.905 335.794c0-8.504 6.894-15.398 15.398-15.398h9.079c8.504 0 15.398 6.894 15.398 15.398 0 8.504-6.894 15.398-15.398 15.398h-9.079c-8.504 0-15.398-6.894-15.398-15.398z"/><path d="m98.919 335.794c0-8.504 6.894-15.398 15.398-15.398h9.079c8.504 0 15.398 6.894 15.398 15.398 0 8.504-6.894 15.398-15.398 15.398h-9.079c-8.504 0-15.398-6.894-15.398-15.398z"/><path d="m166.933 335.794c0-8.504 6.894-15.398 15.398-15.398h9.079c8.504 0 15.398 6.894 15.398 15.398 0 8.504-6.894 15.398-15.398 15.398h-9.079c-8.504 0-15.398-6.894-15.398-15.398z"/><path d="m302.961 335.794c0-8.504 6.894-15.398 15.398-15.398h9.079c8.504 0 15.398 6.894 15.398 15.398 0 8.504-6.894 15.398-15.398 15.398h-9.079c-8.504 0-15.398-6.894-15.398-15.398z"/><path d="m234.947 335.794c0-8.504 6.894-15.398 15.398-15.398h9.079c8.504 0 15.398 6.894 15.398 15.398 0 8.504-6.894 15.398-15.398 15.398h-9.079c-8.504 0-15.398-6.894-15.398-15.398z"/><path d="m30.905 335.794c0-8.504 6.894-15.398 15.398-15.398h9.079c8.504 0 15.398 6.894 15.398 15.398 0 8.504-6.894 15.398-15.398 15.398h-9.079c-8.504 0-15.398-6.894-15.398-15.398z"/><path d="m98.919 335.794c0-8.504 6.894-15.398 15.398-15.398h9.079c8.504 0 15.398 6.894 15.398 15.398 0 8.504-6.894 15.398-15.398 15.398h-9.079c-8.504 0-15.398-6.894-15.398-15.398z"/><path d="m166.933 335.794c0-8.504 6.894-15.398 15.398-15.398h9.079c8.504 0 15.398 6.894 15.398 15.398 0 8.504-6.894 15.398-15.398 15.398h-9.079c-8.504 0-15.398-6.894-15.398-15.398z"/><path d="m302.961 335.794c0-8.504 6.894-15.398 15.398-15.398h9.079c8.504 0 15.398 6.894 15.398 15.398 0 8.504-6.894 15.398-15.398 15.398h-9.079c-8.504 0-15.398-6.894-15.398-15.398z"/><path d="m234.947 335.794c0-8.504 6.894-15.398 15.398-15.398h9.079c8.504 0 15.398 6.894 15.398 15.398 0 8.504-6.894 15.398-15.398 15.398h-9.079c-8.504 0-15.398-6.894-15.398-15.398z"/><path d="m30.905 335.794c0-8.504 6.894-15.398 15.398-15.398h9.079c8.504 0 15.398 6.894 15.398 15.398 0 8.504-6.894 15.398-15.398 15.398h-9.079c-8.504 0-15.398-6.894-15.398-15.398z"/><path d="m98.919 335.794c0-8.504 6.894-15.398 15.398-15.398h9.079c8.504 0 15.398 6.894 15.398 15.398 0 8.504-6.894 15.398-15.398 15.398h-9.079c-8.504 0-15.398-6.894-15.398-15.398z"/><path d="m166.933 335.794c0-8.504 6.894-15.398 15.398-15.398h9.079c8.504 0 15.398 6.894 15.398 15.398 0 8.504-6.894 15.398-15.398 15.398h-9.079c-8.504 0-15.398-6.894-15.398-15.398z"/><path d="m302.961 335.794c0-8.504 6.894-15.398 15.398-15.398h9.079c8.504 0 15.398 6.894 15.398 15.398 0 8.504-6.894 15.398-15.398 15.398h-9.079c-8.504 0-15.398-6.894-15.398-15.398z"/><path d="m234.947 335.794c0-8.504 6.894-15.398 15.398-15.398h9.079c8.504 0 15.398 6.894 15.398 15.398 0 8.504-6.894 15.398-15.398 15.398h-9.079c-8.504 0-15.398-6.894-15.398-15.398z"/><path d="m30.905 335.794c0-8.504 6.894-15.398 15.398-15.398h9.079c8.504 0 15.398 6.894 15.398 15.398 0 8.504-6.894 15.398-15.398 15.398h-9.079c-8.504 0-15.398-6.894-15.398-15.398z"/><path d="m98.919 335.794c0-8.504 6.894-15.398 15.398-15.398h9.079c8.504 0 15.398 6.894 15.398 15.398 0 8.504-6.894 15.398-15.398 15.398h-9.079c-8.504 0-15.398-6.894-15.398-15.398z"/><path d="m166.933 335.794c0-8.504 6.894-15.398 15.398-15.398h9.079c8.504 0 15.398 6.894 15.398 15.398 0 8.504-6.894 15.398-15.398 15.398h-9.079c-8.504 0-15.398-6.894-15.398-15.398z"/><path d="m302.961 335.794c0-8.504 6.894-15.398 15.398-15.398h9.079c8.504 0 15.398 6.894 15.398 15.398 0 8.504-6.894 15.398-15.398 15.398h-9.079c-8.504 0-15.398-6.894-15.398-15.398z"/><path d="m234.947 335.794c0-8.504 6.894-15.398 15.398-15.398h9.079c8.504 0 15.398 6.894 15.398 15.398 0 8.504-6.894 15.398-15.398 15.398h-9.079c-8.504 0-15.398-6.894-15.398-15.398z"/><path d="m30.905 335.794c0-8.504 6.894-15.398 15.398-15.398h9.079c8.504 0 15.398 6.894 15.398 15.398 0 8.504-6.894 15.398-15.398 15.398h-9.079c-8.504 0-15.398-6.894-15.398-15.398z"/><path d="m98.919 335.794c0-8.504 6.894-15.398 15.398-15.398h9.079c8.504 0 15.398 6.894 15.398 15.398 0 8.504-6.894 15.398-15.398 15.398h-9.079c-8.504 0-15.398-6.894-15.398-15.398z"/><path d="m166.933 335.794c0-8.504 6.894-15.398 15.398-15.398h9.079c8.504 0 15.398 6.894 15.398 15.398 0 8.504-6.894 15.398-15.398 15.398h-9.079c-8.504 0-15.398-6.894-15.398-15.398z"/><path d="m302.961 335.794c0-8.504 6.894-15.398 15.398-15.398h9.079c8.504 0 15.398 6.894 15.398 15.398 0 8.504-6.894 15.398-15.398 15.398h-9.079c-8.504 0-15.398-6.894-15.398-15.398z"/><path d="m234.947 335.794c0-8.504 6.894-15.398 15.398-15.398h9.079c8.504 0 15.398 6.894 15.398 15.398 0 8.504-6.894 15.398-15.398 15.398h-9.079c-8.504 0-15.398-6.894-15.398-15.398z"/><path d="m30.905 335.794c0-8.504 6.894-15.398 15.398-15.398h9.079c8.504 0 15.398 6.894 15.398 15.398 0 8.504-6.894 15.398-15.398 15.398h-9.079c-8.504 0-15.398-6.894-15.398-15.398z"/><path d="m98.919 335.794c0-8.504 6.894-15.398 15.398-15.398h9.079c8.504 0 15.398 6.894 15.398 15.398 0 8.504-6.894 15.398-15.398 15.398h-9.079c-8.504 0-15.398-6.894-15.398-15.398z"/><path d="m166.933 335.794c0-8.504 6.894-15.398 15.398-15.398h9.079c8.504 0 15.398 6.894 15.398 15.398 0 8.504-6.894 15.398-15.398 15.398h-9.079c-8.504 0-15.398-6.894-15.398-15.398z"/><path d="m302.961 335.794c0-8.504 6.894-15.398 15.398-15.398h9.079c8.504 0 15.398 6.894 15.398 15.398 0 8.504-6.894 15.398-15.398 15.398h-9.079c-8.504 0-15.398-6.894-15.398-15.398z"/><path d="m234.947 335.794c0-8.504 6.894-15.398 15.398-15.398h9.079c8.504 0 15.398 6.894 15.398 15.398 0 8.504-6.894 15.398-15.398 15.398h-9.079c-8.504 0-15.398-6.894-15.398-15.398z"/><path d="m377.905 335.794c0-8.504 6.894-15.398 15.398-15.398h7.343c8.504 0 15.398 6.894 15.398 15.398 0 8.504-6.894 15.398-15.398 15.398h-7.343c-8.505 0-15.398-6.894-15.398-15.398z"/><path d="m30.905 394.198c0-8.504 6.894-15.398 15.398-15.398h9.079c8.504 0 15.398 6.894 15.398 15.398 0 8.504-6.894 15.398-15.398 15.398h-9.079c-8.504 0-15.398-6.894-15.398-15.398z"/><path d="m98.919 394.198c0-8.504 6.894-15.398 15.398-15.398h213.12c8.504 0 15.398 6.894 15.398 15.398 0 8.504-6.894 15.398-15.398 15.398h-213.12c-8.504 0-15.398-6.894-15.398-15.398z"/><path d="m377.905 394.198c0-8.504 6.894-15.398 15.398-15.398h7.343c8.504 0 15.398 6.894 15.398 15.398 0 8.504-6.894 15.398-15.398 15.398h-7.343c-8.505 0-15.398-6.894-15.398-15.398z"/></g><path d="m280.038 217.323h-48.077v-18.625c0-5.69 4.612-10.302 10.302-10.302h27.473c5.69 0 10.302 4.612 10.302 10.302z" fill="#383838"/><path d="m493.457 217.323h-30.905c10.241 0 18.543 8.302 18.543 18.543v199.855c0 10.241-8.302 18.543-18.543 18.543h30.905c10.241 0 18.543-8.302 18.543-18.543v-199.854c0-10.241-8.302-18.544-18.543-18.544z" fill="#444"/><path d="m442.957 277.39c0-8.504 6.894-15.398 15.398-15.398h7.343c8.504 0 15.398 6.894 15.398 15.398 0 8.504-6.894 15.398-15.398 15.398h-7.343c-8.504 0-15.398-6.894-15.398-15.398z" fill="#cecece"/><path d="m442.957 390.527v-51.061c0-10.531 8.537-19.069 19.069-19.069 10.531 0 19.069 8.537 19.069 19.069v51.061c0 10.531-8.537 19.069-19.069 19.069-10.532 0-19.069-8.538-19.069-19.069z" fill="#cecece"/></g></svg>