<svg id="Capa_1" enable-background="new 0 0 512 512" height="512" viewBox="0 0 512 512" width="512" xmlns="http://www.w3.org/2000/svg"><g><path d="m240.835 122.947-117.888 117.888-119.747-119.747c-4.267-4.267-4.267-11.184 0-15.451l102.437-102.437c4.267-4.267 11.184-4.267 15.451 0z" fill="#e2e2e2"/><g fill="#838383"><path d="m148.684 87.641-12.361 12.361c-2.133 2.133-5.592 2.133-7.726 0l-32.447-32.448c-2.133-2.133-2.133-5.592 0-7.726l12.361-12.361c2.133-2.133 5.592-2.133 7.726 0l32.448 32.448c2.132 2.134 2.132 5.592-.001 7.726z"/><path d="m100.506 135.819-12.361 12.361c-2.133 2.133-5.592 2.133-7.726 0l-32.448-32.448c-2.133-2.133-2.133-5.592 0-7.726l12.361-12.361c2.133-2.133 5.592-2.133 7.726 0l32.448 32.448c2.133 2.134 2.133 5.593 0 7.726z"/></g><path d="m496 415.138-80.862 80.862c-21.334 21.334-55.922 21.334-77.256 0l-271.177-271.178c-3.655-3.655-3.655-9.582 0-13.237l144.88-144.88c3.655-3.655 9.582-3.655 13.237 0l271.178 271.177c21.333 21.334 21.333 55.923 0 77.256z" fill="#528fd8"/><path d="m358.748 290.371-68.377 68.377c-2.56 2.56-6.711 2.56-9.271 0l-149.104-149.104c-2.56-2.56-2.56-6.711 0-9.271l68.377-68.377c2.56-2.56 6.711-2.56 9.271 0l149.104 149.104c2.56 2.56 2.56 6.711 0 9.271z" fill="#b2caec"/><path d="m211.585 66.705-28.909 28.909c3.655-3.655 9.582-3.655 13.237 0l271.178 271.178c21.334 21.334 21.334 55.922 0 77.256l28.909-28.91c21.334-21.334 21.334-55.922 0-77.256l-271.178-271.177c-3.655-3.656-9.582-3.656-13.237 0z" fill="#0473ce"/><path d="m496 337.882-68.433-68.433-158.117 158.118 68.432 68.433c21.334 21.334 55.922 21.334 77.256 0l80.862-80.862c21.333-21.333 21.333-55.922 0-77.256z" fill="#0055a3"/><path d="m398.659 298.358 68.433 68.433c21.334 21.334 21.334 55.922 0 77.256l28.908-28.909c21.334-21.334 21.334-55.922 0-77.256l-68.433-68.433z" fill="#004281"/></g></svg>