<svg id="Capa_1" enable-background="new 0 0 512 512" height="512" viewBox="0 0 512 512" width="512" xmlns="http://www.w3.org/2000/svg"><g><path d="m495.517 449.159h-479.034c-9.103 0-16.483-7.38-16.483-16.483v-353.352c0-9.103 7.38-16.483 16.483-16.483h479.034c9.103 0 16.483 7.38 16.483 16.483v353.352c0 9.103-7.38 16.483-16.483 16.483z" fill="#9e5528"/><path d="m36.056 403.359v-294.718c0-4.552 3.69-8.241 8.241-8.241h423.404c4.552 0 8.241 3.69 8.241 8.241v294.718c0 4.552-3.69 8.241-8.241 8.241h-423.403c-4.552 0-8.242-3.69-8.242-8.241z" fill="#f4d7c8"/><path d="m495.517 62.841h-36.056c9.103 0 16.483 7.38 16.483 16.483v353.352c0 9.103-7.38 16.483-16.483 16.483h36.056c9.103 0 16.483-7.38 16.483-16.483v-353.352c0-9.103-7.38-16.483-16.483-16.483z" fill="#904d24"/><path d="m218.386 387.027h-101.217c-3.414 0-6.181-2.767-6.181-6.181v-101.218c0-3.414 2.767-6.181 6.181-6.181h101.217c3.414 0 6.181 2.767 6.181 6.181v101.217c0 3.414-2.767 6.182-6.181 6.182z" fill="#ecbba3"/><path d="m422.688 259.673-96.815 29.528c-3.265.996-6.72-.844-7.715-4.109l-29.528-96.815c-.996-3.265.844-6.72 4.109-7.715l96.815-29.528c3.265-.996 6.72.844 7.715 4.109l29.528 96.815c.996 3.265-.844 6.719-4.109 7.715z" fill="#ecbba3"/><path d="m182.038 286.49h-101.218c-3.414 0-6.181-2.767-6.181-6.181v-101.218c0-3.414 2.767-6.181 6.181-6.181h101.217c3.414 0 6.181 2.767 6.181 6.181v101.217c.001 3.415-2.766 6.182-6.18 6.182z" fill="#0473ce"/><circle cx="131.429" cy="172.91" fill="#444" r="16.998"/><path d="m434.369 236.312-96.815 29.528c-3.265.996-6.72-.844-7.715-4.109l-29.528-96.815c-.996-3.265.844-6.72 4.109-7.715l96.815-29.528c3.265-.996 6.72.844 7.715 4.109l29.528 96.815c.996 3.264-.844 6.719-4.109 7.715z" fill="#22b27f"/><circle cx="352.685" cy="141.971" fill="#444" r="16.998"/><path d="m117.169 273.447c-3.414 0-6.181 2.767-6.181 6.181v6.862h71.05c3.414 0 6.181-2.768 6.181-6.181v-6.862z" fill="#0067c5"/><path d="m238.828 372.426h-101.218c-3.414 0-6.181-2.767-6.181-6.181v-101.218c0-3.414 2.767-6.181 6.181-6.181h101.217c3.414 0 6.181 2.767 6.181 6.181v101.217c.001 3.414-2.767 6.182-6.18 6.182z" fill="#fdb441"/><circle cx="188.219" cy="258.846" fill="#444" r="16.998"/></g></svg>