<svg id="Capa_1" enable-background="new 0 0 512 512" height="512" viewBox="0 0 512 512" width="512" xmlns="http://www.w3.org/2000/svg"><g><path d="m424.959 512h-337.918c-14.49 0-26.236-11.746-26.236-26.236v-412.303c0-14.49 11.746-26.236 26.236-26.236h337.919c14.49 0 26.236 11.746 26.236 26.236v412.303c-.001 14.49-11.747 26.236-26.237 26.236z" fill="#09a76d"/><g><path d="m371.438 393.32h-230.876c-4.268 0-7.726-3.459-7.726-7.726s3.459-7.726 7.726-7.726h230.875c4.268 0 7.726 3.459 7.726 7.726s-3.458 7.726-7.725 7.726z" fill="#98d5b9"/></g><path d="m378.321 264.73h-244.642c-6.375 0-11.544-5.168-11.544-11.544v-109.658c0-6.375 5.168-11.544 11.544-11.544h244.643c6.375 0 11.544 5.168 11.544 11.544v109.657c-.001 6.376-5.169 11.545-11.545 11.545z" fill="#98d5b9"/><g><path d="m371.438 446.865h-230.876c-4.268 0-7.726-3.459-7.726-7.726s3.459-7.726 7.726-7.726h230.875c4.268 0 7.726 3.459 7.726 7.726s-3.458 7.726-7.725 7.726z" fill="#98d5b9"/></g><path d="m424.959 47.225h-40.883c14.49 0 26.236 11.746 26.236 26.236v412.303c0 14.489-11.746 26.236-26.236 26.236h40.883c14.49 0 26.236-11.746 26.236-26.236v-412.303c0-14.49-11.746-26.236-26.236-26.236z" fill="#02905d"/><g fill="#5a5a5a"><path d="m211.378 94.449c-10.433 0-18.89-8.457-18.89-18.89v-56.669c0-10.433 8.457-18.89 18.89-18.89 10.433 0 18.89 8.457 18.89 18.89v56.67c0 10.432-8.457 18.889-18.89 18.889z"/><path d="m122.135 94.449c-10.433 0-18.89-8.457-18.89-18.89v-56.669c0-10.433 8.457-18.89 18.89-18.89 10.433 0 18.89 8.457 18.89 18.89v56.67c0 10.432-8.458 18.889-18.89 18.889z"/><path d="m300.622 94.449c-10.433 0-18.89-8.457-18.89-18.89v-56.669c0-10.433 8.457-18.89 18.89-18.89 10.433 0 18.89 8.457 18.89 18.89v56.67c0 10.432-8.458 18.889-18.89 18.889z"/><path d="m389.865 94.449c-10.433 0-18.89-8.457-18.89-18.89v-56.669c0-10.433 8.457-18.89 18.89-18.89 10.433 0 18.89 8.457 18.89 18.89v56.67c0 10.432-8.457 18.889-18.89 18.889z"/><path d="m211.378 94.449c-10.433 0-18.89-8.457-18.89-18.89v-56.669c0-10.433 8.457-18.89 18.89-18.89 10.433 0 18.89 8.457 18.89 18.89v56.67c0 10.432-8.457 18.889-18.89 18.889z"/><path d="m122.135 94.449c-10.433 0-18.89-8.457-18.89-18.89v-56.669c0-10.433 8.457-18.89 18.89-18.89 10.433 0 18.89 8.457 18.89 18.89v56.67c0 10.432-8.458 18.889-18.89 18.889z"/><path d="m300.622 94.449c-10.433 0-18.89-8.457-18.89-18.89v-56.669c0-10.433 8.457-18.89 18.89-18.89 10.433 0 18.89 8.457 18.89 18.89v56.67c0 10.432-8.458 18.889-18.89 18.889z"/><path d="m389.865 94.449c-10.433 0-18.89-8.457-18.89-18.89v-56.669c0-10.433 8.457-18.89 18.89-18.89 10.433 0 18.89 8.457 18.89 18.89v56.67c0 10.432-8.457 18.889-18.89 18.889z"/></g><path d="m211.378 0c-3.164 0-6.141.788-8.761 2.162 6.018 3.159 10.129 9.459 10.129 16.727v56.67c0 7.269-4.111 13.568-10.129 16.727 2.62 1.375 5.597 2.162 8.761 2.162 10.433 0 18.89-8.457 18.89-18.89v-56.668c0-10.433-8.457-18.89-18.89-18.89z" fill="#444"/><path d="m122.135 0c-3.164 0-6.141.788-8.761 2.162 6.018 3.159 10.129 9.459 10.129 16.727v56.67c0 7.269-4.111 13.568-10.129 16.727 2.62 1.375 5.597 2.162 8.761 2.162 10.433 0 18.89-8.457 18.89-18.89v-56.668c0-10.433-8.458-18.89-18.89-18.89z" fill="#444"/><path d="m300.622 0c-3.164 0-6.141.788-8.761 2.162 6.018 3.159 10.129 9.459 10.129 16.727v56.67c0 7.269-4.111 13.568-10.129 16.727 2.62 1.375 5.597 2.162 8.761 2.162 10.433 0 18.89-8.457 18.89-18.89v-56.668c0-10.433-8.458-18.89-18.89-18.89z" fill="#444"/><path d="m389.865 0c-3.164 0-6.141.788-8.761 2.162 6.018 3.159 10.129 9.459 10.129 16.727v56.67c0 7.269-4.111 13.568-10.129 16.727 2.62 1.375 5.597 2.162 8.761 2.162 10.433 0 18.89-8.457 18.89-18.89v-56.668c0-10.433-8.457-18.89-18.89-18.89z" fill="#444"/></g></svg>