<svg id="Capa_1" enable-background="new 0 0 512 512" height="512" viewBox="0 0 512 512" width="512" xmlns="http://www.w3.org/2000/svg"><g><path d="m158.919 121.058h194.161v49.449h-194.161z" fill="#82aee3"/><path d="m312.198 121.058h40.883v49.448h-40.883z" fill="#528fd8"/><path d="m158.919 41.562h194.161v48.419h-194.161z" fill="#82aee3"/><path d="m312.198 41.562h40.883v48.419h-40.883z" fill="#528fd8"/><path d="m369.566 512h-227.132c-6.827 0-12.362-5.535-12.362-12.362v-22.32h251.856v22.32c0 6.827-5.535 12.362-12.362 12.362z" fill="#5a5a5a"/><path d="m351.908 240.395h-191.816c-16.58 0-30.02 13.44-30.02 30.02v206.903h251.856v-206.903c0-16.58-13.44-30.02-30.02-30.02z" fill="#d3e1f5"/><g fill="#0473ce"><path d="m355.595 51.23h-199.19c-3.414 0-6.181-2.767-6.181-6.181v-38.868c0-3.414 2.767-6.181 6.181-6.181h199.191c3.414 0 6.181 2.767 6.181 6.181v38.868c-.001 3.414-2.768 6.181-6.182 6.181z"/><path d="m355.595 131.542h-199.19c-3.414 0-6.181-2.767-6.181-6.181v-38.868c0-3.414 2.767-6.181 6.181-6.181h199.191c3.414 0 6.181 2.767 6.181 6.181v38.868c-.001 3.414-2.768 6.181-6.182 6.181z"/><path d="m207.816 240.395c2.304 0 97.982 0 96.367 0h.001l46.082-33.34c7.23-5.231 11.511-13.612 11.511-22.535v-17.714c0-3.414-2.767-6.181-6.181-6.181h-199.191c-3.414 0-6.181 2.767-6.181 6.181v17.714c0 8.923 4.281 17.305 11.511 22.535z"/></g><path d="m315.497 292.889h-118.994c-8.589 0-15.552 6.963-15.552 15.552v168.877h150.1v-168.876c-.001-8.59-6.964-15.553-15.554-15.553z" fill="#82aee3"/><path d="m355.595 0h-40.883c3.413 0 6.181 2.768 6.181 6.181v38.868c0 3.413-2.768 6.181-6.181 6.181h40.883c3.414 0 6.181-2.768 6.181-6.181v-38.868c0-3.413-2.767-6.181-6.181-6.181z" fill="#0067c5"/><path d="m355.595 80.312h-40.883c3.413 0 6.181 2.767 6.181 6.181v38.868c0 3.413-2.768 6.181-6.181 6.181h40.883c3.414 0 6.181-2.768 6.181-6.181v-38.868c0-3.414-2.767-6.181-6.181-6.181z" fill="#0067c5"/><path d="m355.596 160.624h-40.883c3.414 0 6.181 2.767 6.181 6.181v17.714c0 8.923-4.281 17.305-11.511 22.535l-46.082 33.34v.001h.005 40.878v-.001l46.082-33.34c7.23-5.23 11.511-13.612 11.511-22.535v-17.714c0-3.414-2.768-6.181-6.181-6.181z" fill="#0067c5"/><g><path d="m227.481 399.538c-4.268 0-7.726-3.459-7.726-7.726v-20.773c0-4.268 3.459-7.726 7.726-7.726s7.726 3.459 7.726 7.726v20.773c0 4.267-3.459 7.726-7.726 7.726z" fill="#d3e1f5"/></g><g><path d="m284.519 399.538c-4.268 0-7.726-3.459-7.726-7.726v-20.773c0-4.268 3.459-7.726 7.726-7.726s7.726 3.459 7.726 7.726v20.773c0 4.267-3.458 7.726-7.726 7.726z" fill="#d3e1f5"/></g><path d="m277.721 373.958h13.596c3.983 0 7.211-3.229 7.211-7.211v-28.482c0-7.737-6.272-14.009-14.009-14.009-7.737 0-14.009 6.272-14.009 14.009v28.482c0 3.983 3.228 7.211 7.211 7.211z" fill="#d83131"/><path d="m220.683 373.958h13.596c3.983 0 7.211-3.229 7.211-7.211v-28.482c0-7.737-6.272-14.009-14.009-14.009-7.737 0-14.009 6.272-14.009 14.009v28.482c0 3.983 3.228 7.211 7.211 7.211z" fill="#0055a3"/></g></svg>