<svg id="Capa_1" enable-background="new 0 0 512 512" height="512" viewBox="0 0 512 512" width="512" xmlns="http://www.w3.org/2000/svg"><g><path d="m486.245 139.016h-460.49c-14.224 0-25.755 11.53-25.755 25.754v11.63.691l8.572 14.942-8.572 16.073v1.256 31.296.538l6.973 14.38-6.973 17.12v.929 65.211h512v-174.066c0-14.224-11.531-25.754-25.755-25.754z" fill="#9c9c9c"/><path d="m113.505 404.414h-60.777c-4.552 0-8.241-3.69-8.241-8.241v-69.018h77.26v69.018c-.001 4.552-3.691 8.241-8.242 8.241z" fill="#444"/><path d="m459.272 404.414h-60.777c-4.552 0-8.241-3.69-8.241-8.241v-69.018h77.26v69.018c0 4.552-3.69 8.241-8.242 8.241z" fill="#444"/><path d="m110.744 209.389h-110.744v-32.966h110.744c9.103 0 16.483 7.38 16.483 16.483 0 9.104-7.379 16.483-16.483 16.483z" fill="#bfbfbf"/><path d="m110.744 273.634h-110.744v-32.966h110.744c9.103 0 16.483 7.38 16.483 16.483 0 9.103-7.379 16.483-16.483 16.483z" fill="#bfbfbf"/><path d="m512 343.992v-32.951h-512v32.951c0 14.224 11.531 25.755 25.755 25.755h460.491c14.223 0 25.754-11.531 25.754-25.755z" fill="#838383"/><circle cx="357.21" cy="209.313" fill="#bfbfbf" r="101.728"/><circle cx="357.21" cy="209.313" fill="#5a5a5a" r="72.059"/><path d="m357.21 240.165c-17.012 0-30.852-13.84-30.852-30.852 0-17.011 13.84-30.851 30.852-30.851s30.852 13.84 30.852 30.851c0 17.012-13.84 30.852-30.852 30.852z" fill="#444"/><path d="m486.245 139.016h-40.883c14.224 0 25.755 11.531 25.755 25.755v174.065h40.883v-174.066c0-14.224-11.531-25.754-25.755-25.754z" fill="#838383"/><path d="m471.117 311.041v32.951c0 14.224-11.531 25.755-25.755 25.755h40.883c14.224 0 25.755-11.531 25.755-25.755v-32.951z" fill="#5a5a5a"/></g></svg>