<svg id="Capa_1" enable-background="new 0 0 512 512" height="512" viewBox="0 0 512 512" width="512" xmlns="http://www.w3.org/2000/svg"><g><path d="m36.056 127.194h442.839v157.342h-442.839z" fill="#dc8758"/><path d="m459.461 344.286h-134.439c-3.414 0-6.181-2.767-6.181-6.181v-58.857h140.62z" fill="#ecbba3"/><path d="m318.841 214.209h140.62v65.038h-140.62z" fill="#f4d7c8"/><path d="m318.841 149.171h140.62v65.038h-140.62z" fill="#ecbba3"/><g><path d="m406.321 189.417h-34.34c-4.268 0-7.726-3.459-7.726-7.726 0-4.268 3.459-7.726 7.726-7.726h34.34c4.268 0 7.726 3.459 7.726 7.726s-3.458 7.726-7.726 7.726z" fill="#444"/></g><g><path d="m406.321 254.455h-34.34c-4.268 0-7.726-3.459-7.726-7.726s3.459-7.726 7.726-7.726h34.34c4.268 0 7.726 3.459 7.726 7.726s-3.458 7.726-7.726 7.726z" fill="#444"/></g><g><path d="m406.321 322.668h-34.34c-4.268 0-7.726-3.459-7.726-7.726s3.459-7.726 7.726-7.726h34.34c4.268 0 7.726 3.459 7.726 7.726s-3.458 7.726-7.726 7.726z" fill="#444"/></g><path d="m489.336 406.784h-26.785c-1.707 0-3.091-1.384-3.091-3.091v-276.5h32.966v276.5c.001 1.707-1.383 3.091-3.09 3.091z" fill="#c86d36"/><path d="m49.449 406.784h-26.785c-1.707 0-3.091-1.384-3.091-3.091v-276.5h32.966v276.5c0 1.707-1.383 3.091-3.09 3.091z" fill="#c86d36"/><path d="m19.573 134.419h32.966v43.954h-32.966z" fill="#ac5e2e"/><path d="m459.461 134.419h32.966v43.954h-32.966z" fill="#ac5e2e"/><path d="m505.819 149.171h-499.638c-3.414 0-6.181-2.767-6.181-6.181v-31.592c0-3.414 2.767-6.181 6.181-6.181h499.638c3.414 0 6.181 2.767 6.181 6.181v31.592c0 3.413-2.767 6.181-6.181 6.181z" fill="#9e5528"/><path d="m505.819 105.216h-40.883c3.414 0 6.181 2.768 6.181 6.181v31.593c0 3.413-2.767 6.181-6.181 6.181h40.883c3.414 0 6.181-2.768 6.181-6.181v-31.593c0-3.413-2.767-6.181-6.181-6.181z" fill="#904d24"/><path d="m430.259 279.248h29.202v65.038h-29.202z" fill="#e8ad8c"/><path d="m430.259 214.209h29.202v65.038h-29.202z" fill="#ecbba3"/><path d="m430.259 149.171h29.202v65.038h-29.202z" fill="#e8ad8c"/></g></svg>