<svg id="Capa_1" enable-background="new 0 0 512 512" height="512" viewBox="0 0 512 512" width="512" xmlns="http://www.w3.org/2000/svg"><g><path d="m418.092 455.901h-324.184v40.691c0 8.509 6.898 15.407 15.407 15.407h293.37c8.509 0 15.407-6.898 15.407-15.407z" fill="#5a5a5a"/><path d="m93.908 455.901h324.185v34.464h-324.185z" fill="#444"/><path d="m327.822 425.382-22.526-306.519c-14.305 0-84.301 0-98.592 0l-22.526 306.519z" fill="#d77f4a"/><path d="m305.296 118.863c-6.196 0-22.842 0-40.883 0l22.526 306.519h40.883z" fill="#c86d36"/><circle cx="256" cy="93.524" fill="#ac5e2e" r="93.524"/><path d="m256 0c-7.022 0-13.861.78-20.441 2.247 41.82 9.324 73.083 46.647 73.083 91.277s-31.263 81.953-73.083 91.277c6.58 1.467 13.419 2.247 20.441 2.247 51.652 0 93.524-41.872 93.524-93.524s-41.872-93.524-93.524-93.524z" fill="#9e5528"/><path d="m319.119 217.455h-126.238c-13.739 0-24.876-11.138-24.876-24.876v-.004c0-13.739 11.138-24.876 24.876-24.876h126.238c13.739 0 24.876 11.138 24.876 24.876v.004c.001 13.739-11.137 24.876-24.876 24.876z" fill="#c86d36"/><path d="m425.481 469.924h-338.962c-4.582 0-8.296-3.714-8.296-8.296v-63.011c0-9.818 7.959-17.778 17.778-17.778h320c9.818 0 17.778 7.959 17.778 17.778v63.011c-.001 4.582-3.716 8.296-8.298 8.296z" fill="#c86d36"/><g fill="#ac5e2e"><path d="m319.119 167.699h-40.883c13.739 0 24.876 11.137 24.876 24.876v.004c0 13.739-11.138 24.877-24.876 24.877h40.883c13.739 0 24.877-11.138 24.877-24.877v-.004c0-13.739-11.138-24.876-24.877-24.876z"/><path d="m416 380.84h-40.883c9.818 0 17.778 7.959 17.778 17.778v63.011c0 4.581-3.714 8.296-8.296 8.296h40.883c4.582 0 8.296-3.715 8.296-8.296v-63.011c0-9.819-7.96-17.778-17.778-17.778z"/></g></g></svg>