<svg id="Capa_1" enable-background="new 0 0 512 512" height="512" viewBox="0 0 512 512" width="512" xmlns="http://www.w3.org/2000/svg"><g><path d="m489.278 17.927-219.422 288.77-69.471-52.788 143.739-189.167c10.136-13.339 22.267-24.993 35.828-34.418 29.293-20.359 63.623-29.199 95.903-24.695l8.86 1.236c5.249.732 7.769 6.843 4.563 11.062z" fill="#bfbfbf"/><path d="m364.565 88.103c10.136-13.339 22.267-24.993 35.828-34.418 24.92-17.32 53.485-26.297 81.333-25.819l7.552-9.939c3.206-4.219.686-10.33-4.562-11.062l-8.86-1.236c-32.28-4.505-66.61 4.336-95.903 24.695-13.56 9.425-25.692 21.079-35.828 34.418l-143.74 189.168 24.213 18.398z" fill="#e2e2e2"/><path d="m272.787 316.688c2.065-2.718 1.536-6.596-1.182-8.661l-72.97-55.447c-2.718-2.065-6.596-1.536-8.661 1.182l-51.476 67.744c-1.086 1.43-2.739 2.336-4.532 2.427-26.727 1.37-52.693 14.049-70.151 37.025-31.443 41.381-23.387 100.417 17.994 131.86s100.416 23.387 131.859-17.994c20.712-27.258 24.272-62.172 12.47-91.818-.799-2.008-.487-4.286.82-6.006zm-95.559 130.447c-16.125 21.221-46.508 25.367-67.729 9.242s-25.367-46.507-9.242-67.728 46.507-25.367 67.728-9.242 25.367 46.508 9.243 67.728z" fill="#0055a3"/><path d="m22.666 13.045 215.441 291.752 70.189-51.83-141.132-191.121c-9.952-13.477-21.922-25.296-35.352-34.906-29.012-20.759-63.217-30.069-95.556-26.008l-8.876 1.115c-5.258.66-7.862 6.735-4.714 10.998z" fill="#e2e2e2"/><path d="m443.384 361.88c-17.142-23.214-42.932-36.247-69.637-37.984-1.792-.117-3.432-1.045-4.498-2.489l-50.542-68.444c-2.028-2.746-5.898-3.328-8.644-1.301l-73.724 54.441c-2.746 2.028-3.328 5.898-1.301 8.644l44.997 60.935c1.283 1.738 1.565 4.02.738 6.017-12.207 29.482-9.126 64.442 11.21 91.981 30.873 41.808 89.792 50.673 131.6 19.8s50.674-89.792 19.801-131.6zm-43.555 92.003c-22.629 20.047-57.76 14.763-73.489-11.055-12.057-19.79-8.146-45.785 9.2-61.152 22.629-20.047 57.759-14.762 73.488 11.055 12.057 19.79 8.146 45.785-9.199 61.152z" fill="#0473ce"/><g><path d="m443.384 361.88c-17.142-23.214-42.932-36.247-69.637-37.984-1.792-.117-3.432-1.045-4.498-2.489l-50.542-68.444c-2.028-2.746-5.898-3.328-8.644-1.301l-26.088 19.265c2.078-.187 4.2.677 5.53 2.478l50.542 68.444c1.066 1.445 2.707 2.372 4.498 2.489 26.705 1.736 52.495 14.771 69.637 37.984 27.742 37.569 23.379 88.943-8.124 121.379 6.072-2.719 11.954-6.106 17.526-10.22 41.808-30.874 50.673-89.793 19.8-131.601z" fill="#0067c5"/></g><path d="m36.776 32.154c28.608-.655 57.97 8.743 83.354 26.907 13.43 9.61 25.401 21.43 35.352 34.906l129.903 175.917 22.909-16.917-141.13-191.121c-9.952-13.477-21.922-25.297-35.352-34.906-29.012-20.759-63.217-30.069-95.556-26.008l-8.876 1.115c-5.258.66-7.862 6.736-4.714 10.998z" fill="#cecece"/><circle cx="245.956" cy="241.717" fill="#5a5a5a" r="15.452"/></g></svg>