<svg id="Capa_1" enable-background="new 0 0 512 512" height="512" viewBox="0 0 512 512" width="512" xmlns="http://www.w3.org/2000/svg"><g><path d="m101.473 33.481h309.054v420.314h-309.054z" fill="#d3e1f5"/><path d="m410.527 78.809h-309.054v-47.904c0-17.068 13.837-30.905 30.905-30.905h247.243c17.069 0 30.905 13.837 30.905 30.905v47.904z" fill="#bfbfbf"/><path d="m379.622 512h-247.244c-17.069 0-30.905-13.837-30.905-30.905v-54.085h309.054v54.085c0 17.068-13.837 30.905-30.905 30.905z" fill="#bfbfbf"/><path d="m214.793 478.004v-16.998c0-3.983 3.229-7.211 7.211-7.211h67.992c3.983 0 7.211 3.229 7.211 7.211v16.998c0 3.983-3.229 7.211-7.211 7.211h-67.992c-3.983 0-7.211-3.228-7.211-7.211z" fill="#f8f6f6"/><circle cx="256" cy="39.404" fill="#838383" r="15.453"/><path d="m369.644 33.481h40.883v420.314h-40.883z" fill="#c0d6f2"/><g fill="#acacac"><path d="m379.622 0h-40.883c17.069 0 30.905 13.837 30.905 30.905v47.903h40.883v-47.903c0-17.068-13.837-30.905-30.905-30.905z"/><path d="m369.644 427.01v54.085c0 17.068-13.837 30.905-30.905 30.905h40.883c17.069 0 30.905-13.837 30.905-30.905v-54.085z"/></g></g></svg>