<svg clip-rule="evenodd" fill-rule="evenodd" height="2.667in" image-rendering="optimizeQuality" shape-rendering="geometricPrecision" text-rendering="geometricPrecision" viewBox="0 0 2667 2667" width="2.667in" xmlns="http://www.w3.org/2000/svg"><g id="Layer_x0020_1"><circle cx="1333" cy="1333" fill="#f10" r="1333"/><path d="m1259 1502v-358c0-13 10-23 23-23h82c58 0 105 47 105 105s-47 105-105 105h-60v171c0 30-45 30-45 0zm591 269h-1034c-185 0-336-151-336-336v-203c0-186 151-337 336-337h1034c186 0 337 151 337 337v203c0 185-151 336-337 336zm-1034-830c-160 0-290 130-290 291v203c0 160 130 291 290 291h1034c161 0 291-131 291-291v-203c0-161-130-291-291-291zm880 548c-12 0-23-10-23-23v-286c0-21 25-31 39-17l143 144c9 9 9 23 0 32l-143 143c-4 5-10 7-16 7zm23-255v177l88-88zm167 255c-13 0-23-10-23-23v-286c0-30 45-30 45 0v286c0 13-10 23-22 23zm-95 111c-153 0-277-124-277-277s124-277 277-277 277 124 277 277-124 277-277 277zm0-509c-128 0-232 104-232 232s104 231 232 231c127 0 231-103 231-231s-104-232-231-232zm-1054 433c-103 0-141-135-89-135 13 0 23 10 23 23 0 87 133 87 133 0 0-37-30-67-67-67-61 0-112-50-112-112s51-112 112-112c103 0 142 135 90 135-13 0-23-10-23-23 0-88-133-88-133 0 0 37 30 67 66 67 62 0 112 50 112 112 0 61-50 112-112 112zm319-11-84-145-31 29v105c0 30-45 30-45 0v-358c0-30 45-30 45 0v190l102-97c22-21 53 12 32 33l-69 65 90 156c15 26-25 48-40 22zm106-11v-358c0-30 45-30 45 0v358c0 30-45 30-45 0zm142-216h60c79 0 79-120 0-120h-60z" fill="#fff"/></g></svg>