<svg clip-rule="evenodd" fill-rule="evenodd" height="2.667in" image-rendering="optimizeQuality" shape-rendering="geometricPrecision" text-rendering="geometricPrecision" viewBox="0 0 2667 2667" width="2.667in" xmlns="http://www.w3.org/2000/svg"><g id="Layer_x0020_1"><circle cx="1333" cy="1333" fill="#7ed63f" r="1333"/><path d="m1041 1007h-177c-12 0-23-10-23-23v-153h-65c-20 0-30-25-16-39l176-177c9-9 24-9 32 0l175 175c18 16 6 41-14 41h-66v153c0 13-10 23-22 23zm905 1180h-1226c-12 0-22-11-22-23v-607c-27 0-58 5-68-9-5-5-6-12-5-19l73-312c3-10 12-18 22-18h1226c10 0 20 8 22 18l74 317c0 14-12 24-23 23h-50v607c0 12-11 23-23 23zm-1203-46h1180v-584h-1180zm-67-630h1314l-62-266h-1190zm453 582h-308c-13 0-23-10-23-22v-114c0-13 10-23 23-23h308c12 0 23 10 23 23v114c0 12-11 22-23 22zm-286-45h263v-69h-263zm772-386h-563c-30 0-30-46 0-46h563c30 0 30 46 0 46zm164 102h-891c-30 0-30-45 0-45h891c30 0 30 45 0 45zm0 103h-891c-30 0-30-45 0-45h891c30 0 30 45 0 45zm-65-732c-181 0-328-147-328-327 0-181 147-328 328-328s328 147 328 328c0 180-147 327-328 327zm0-609c-156 0-282 126-282 282 0 155 126 282 282 282s282-127 282-282c0-156-126-282-282-282zm88 481h-176c-13 0-23-10-23-23v-153h-65c-21 0-31-25-16-39l176-177c8-8 24-8 32 0l175 175c18 16 5 41-15 41h-65v153c0 13-10 23-23 23zm-22-45v-154c0-29 33-23 56-23l-122-122-122 122c23 0 57-6 57 23v154zm-828 173c-180 0-327-147-327-327 0-181 147-328 327-328 181 0 328 147 328 328 0 180-147 327-328 327zm0-609c-155 0-282 126-282 282 0 155 127 282 282 282 156 0 283-127 283-282 0-156-127-282-283-282zm66 436v-154c0-29 34-23 56-23l-122-122-121 122c22 0 56-6 56 23v154z" fill="#fff"/></g></svg>