<svg clip-rule="evenodd" fill-rule="evenodd" height="2.667in" image-rendering="optimizeQuality" shape-rendering="geometricPrecision" text-rendering="geometricPrecision" viewBox="0 0 2667 2667" width="2.667in" xmlns="http://www.w3.org/2000/svg"><g id="Layer_x0020_1"><circle cx="1333" cy="1333" fill="#00ab94" r="1333"/><path d="m1094 841h-398c-30 0-30-45 0-45h398c30 0 30 45 0 45zm766 965h-423v165h250c13 0 23 10 23 22v149c0 12-10 23-23 23h-1011c-12 0-23-11-23-23v-149c0-12 11-22 23-22h250v-165h-423c-13 0-23-11-23-23v-953c0-13 10-23 23-23h84v-282c0-13 10-23 23-23h570c13 0 23 10 23 23v282h229v-246c0-12 10-22 22-22h710c12 0 23 10 23 22v485c0 12-11 22-23 22h-281v715c0 12-10 23-23 23zm-1273-953h-61v907h280v-24c0-140 77-268 202-333 11-6 25-1 31 10 58 118 227 118 285 0 6-11 20-16 31-10 125 65 202 193 202 333v24h281v-692h-107l-166 138c-13 11-32 5-36-11l-33-127c-27 0-64 7-64-22v-193h-229v61c0 13-10 23-23 23h-347l-132 110c-12 11-32 4-36-12l-25-98c-61 0-53 2-53-84zm570-306h-525v345c53 0 41-7 68 97l111-92c4-3 9-5 14-5h332zm235 1424v-165h-421v165zm-693 148h965v-103h-965zm778-1096c26 0 53-5 59 17l28 109 144-121c4-3 9-5 14-5h419v-439h-664zm-295 372c-113 0-205-91-205-204s92-204 205-204c112 0 204 91 204 204s-92 204-204 204zm0-363c-88 0-159 71-159 159s71 159 159 159c87 0 158-71 158-159s-71-159-158-159zm-331 722h661v-18c0-116-60-222-159-282-80 124-263 124-343 0-98 60-159 166-159 282zm1128-1043h-337c-30 0-30-45 0-45h337c30 0 30 45 0 45zm83 115h-503c-30 0-30-45 0-45h503c30 0 30 45 0 45zm0 115h-503c-30 0-30-45 0-45h503c30 0 30 45 0 45zm-1034-298h-266c-30 0-30-45 0-45h266c30 0 30 45 0 45zm66 99h-398c-30 0-30-45 0-45h398c30 0 30 45 0 45z" fill="#fff"/></g></svg>