<svg clip-rule="evenodd" fill-rule="evenodd" height="2.667in" image-rendering="optimizeQuality" shape-rendering="geometricPrecision" text-rendering="geometricPrecision" viewBox="0 0 2667 2667" width="2.667in" xmlns="http://www.w3.org/2000/svg"><g id="Layer_x0020_1"><circle cx="1333" cy="1333" fill="#ff700d" r="1333"/><path d="m751 1054c-40 0-73-33-73-73 0-41 33-73 73-73s73 32 73 73c0 40-33 73-73 73zm829 369-27-103c-21 0-54 5-54-23v-406c0-13 10-23 22-23h294v-150h-944v89h197c12 0 22 10 22 22v300c0 26-27 23-41 23l-19 72c-4 16-24 22-36 12l-101-84h-22v258h274c13 0 23 10 23 23v406c0 13-10 23-23 23h-274v82h589v-332c0-13 11-23 23-23h332v-269h-61l-138 115c-12 10-32 4-36-12zm281-555h255c13 0 23 10 23 23v406c0 13-10 23-23 23h-255v719c0 81-67 148-148 148h-740c-81 0-148-67-148-148v-177h-41l-138 115c-13 10-33 4-37-12l-26-103c-22 0-55 5-55-23v-406c0-13 10-23 23-23h274v-258h-197c-12 0-22-10-22-23v-300c0-12 10-22 22-22h197v-179c0-82 67-148 148-148h740c81 0 148 66 148 148zm-317 406c55 0 43-7 71 103l116-97c5-4 10-6 15-6h347v-361h-549zm431-254h-313c-30 0-30-45 0-45h313c30 0 30 45 0 45zm-1104 970v49c0 56 46 102 102 102h740c56 0 102-46 102-102v-49zm944-1317v-45c0-57-46-102-102-102h-740c-56 0-102 45-102 102v45zm-309 1271h309v-309h-309zm-933-128c55 0 43-7 71 103l117-97c4-4 9-6 14-6h348v-361h-550zm885-1194h-250c-30 0-30-46 0-46h250c30 0 30 46 0 46zm571 494h-421c-30 0-30-46 0-46h421c30 0 30 46 0 46zm0 95h-421c-30 0-30-45 0-45h421c30 0 30 45 0 45zm-978 354h-406c-29 0-29-46 0-46h406c29 0 29 46 0 46zm0 94h-406c-29 0-29-46 0-46h406c29 0 29 46 0 46zm0 93h-406c-29 0-29-45 0-45h406c29 0 29 45 0 45zm-400-645h251c5 0 10 2 14 5l79 66c17-67 11-71 50-71v-255h-394zm294-53c-40 0-73-33-73-73 0-41 33-73 73-73s73 32 73 73c0 40-33 73-73 73zm0-101c-36 0-36 55 0 55s36-55 0-55zm-194 0c-36 0-36 55 0 55s36-55 0-55z" fill="#fff"/></g></svg>