<svg clip-rule="evenodd" fill-rule="evenodd" height="2.667in" image-rendering="optimizeQuality" shape-rendering="geometricPrecision" text-rendering="geometricPrecision" viewBox="0 0 2667 2667" width="2.667in" xmlns="http://www.w3.org/2000/svg"><g id="Layer_x0020_1"><circle cx="1333" cy="1333" fill="#1d81ce" r="1333"/><path d="m2043 888h-1419v816h1419zm-282 746h-855c-59 0-107-48-107-107v-462c0-59 48-107 107-107h855c59 0 107 48 107 107v462c0 59-48 107-107 107zm-855-631c-34 0-62 28-62 62v462c0 34 28 62 62 62h855c34 0 61-28 61-62v-462c0-34-27-62-61-62zm193 480h-125c-12 0-22-10-22-23v-328c0-30 45-30 45 0v305h102c29 0 29 46 0 46zm85 0c-12 0-22-10-22-23v-314c0-30 45-30 45 0v314c0 13-10 23-23 23zm174 0c-10 0-19-7-22-17l-87-326c-8-29 36-41 44-12l65 244 66-244c8-29 51-17 44 12l-88 328c-4 9-12 15-22 15zm334-1h-161c-12 0-23-10-23-22v-327c0-12 11-22 23-22h155c29 0 29 45 0 45h-132v118h89c30 0 30 45 0 45h-89v118h138c30 0 30 45 0 45zm-1113-617v-137c0-13 10-23 22-23h1464c13 0 23 10 23 23v976h76c12 0 23 10 23 23v106c0 71-58 129-129 129h-1449c-71 0-129-58-129-129v-106c0-13 10-23 23-23h76zm-53 885v83c0 46 37 83 83 83h1449c46 0 83-37 83-83v-83h-458l-63 108c-4 7-11 11-19 11h-508c-9 0-16-4-20-11l-63-108zm1104 0h-567l43 74h482zm-1006-908h1419v-92h-1419z" fill="#fff"/></g></svg>