<svg clip-rule="evenodd" fill-rule="evenodd" height="2.667in" image-rendering="optimizeQuality" shape-rendering="geometricPrecision" text-rendering="geometricPrecision" viewBox="0 0 2667 2667" width="2.667in" xmlns="http://www.w3.org/2000/svg"><g id="Layer_x0020_1"><circle cx="1333" cy="1333" fill="#7ed63f" r="1333"/><path d="m1749 1084v-96h-130v96zm-1170 623v-989c0-12 10-22 22-22h1464c13 0 23 10 23 22v989h76c12 0 23 10 23 22v110c0 73-60 132-133 132h-1442c-73 0-132-59-132-132v-110c0-12 10-22 23-22zm1464 0v-817h-1419v817zm-1517 45v87c0 48 38 87 86 87h1442c48 0 87-39 87-87v-87h-458l-63 109c-4 7-11 11-19 11h-508c-9 0-16-4-20-11l-63-109zm1104 0h-567l43 74h482zm-1006-907h1419v-104h-1419zm426 553-188-78c-18-8-18-35 0-42 24-10 186-81 197-81h736c13 0 23 10 23 23v157c0 13-10 23-23 23h-736c-5 0-5 0-9-2zm-120-99 107 44v-89zm671-57v113h39v-113zm-519 113h473v-113h-473zm604 0h87v-113h-87zm81-412h175c12 0 22 10 22 22v667c0 13-10 23-22 23h-1217c-13 0-23-10-23-23v-667c0-12 10-22 23-22l696-1zm27 45v96h125v-96zm125 141h-1171v340h1171zm-1171-45h125v-96h-125zm170-96v96h130v-96zm175 0v96h130v-96zm175 0v96h130v-96zm176 0v96h129v-96zm-696 621h125v-95h-125zm170 0h130v-95h-130zm175 0h130v-95h-130zm175 0h130v-95h-130zm176 0h129v-95h-129zm175 0h130v-95h-130zm175 0h125v-95h-125z" fill="#fff"/></g></svg>