<svg clip-rule="evenodd" fill-rule="evenodd" height="2.667in" image-rendering="optimizeQuality" shape-rendering="geometricPrecision" text-rendering="geometricPrecision" viewBox="0 0 2667 2667" width="2.667in" xmlns="http://www.w3.org/2000/svg"><g id="Layer_x0020_1"><circle cx="1333" cy="1333" fill="#00ab94" r="1333"/><path d="m1071 1709v161h525v-161zm1093 0h-523v161h180c12 0 22 10 22 23v139c0 12-10 22-22 22h-975c-13 0-23-10-23-22v-139c0-13 10-23 23-23h179v-161h-522c-13 0-23-10-23-23v-1051c0-13 10-23 23-23h1661c12 0 23 10 23 23v1051c0 13-11 23-23 23zm-1638-45h56v-19c0-140 78-268 202-333 12-6 26-1 31 10 58 118 227 118 285 0 6-11 20-16 31-10 125 65 203 193 203 333v19h807v-1006h-1615zm1538-398h-810c-12 0-22-10-22-23v-508c0-12 10-23 22-23h810c12 0 22 11 22 23v508c0 13-10 23-22 23zm-787-46h764v-462h-764zm-408 789h929v-94h-929zm489-844c-15 0-27-16-21-30l118-308c8-19 35-19 43 0l118 308c11 27-31 44-42 16l-50-130-95 1-50 129c-3 9-12 14-21 14zm89-189h60l-30-77zm496 189h-202c-18 0-29-20-19-35l181-272h-162c-30 0-30-45 0-45h204c18 0 29 20 19 35l-180 272h159c30 0 30 45 0 45zm-246-153h-76c-30 0-30-46 0-46h76c30 0 30 46 0 46zm367 481h-557c-13 0-23-10-23-22v-118c0-12 10-22 23-22h557c12 0 22 10 22 22v118c0 12-10 22-22 22zm-535-45h512v-72h-512zm535 151h-642c-30 0-30-45 0-45h642c30 0 30 45 0 45zm-1106-295c-113 0-204-91-204-204 0-112 91-204 204-204 112 0 204 92 204 204 0 113-92 204-204 204zm0-363c-88 0-159 72-159 159 0 88 71 159 159 159 87 0 159-71 159-159 0-87-72-159-159-159zm-331 723h661v-19c0-116-60-222-159-282-80 124-262 124-343 0-98 60-159 166-159 282z" fill="#fff"/></g></svg>