<svg clip-rule="evenodd" fill-rule="evenodd" height="2.667in" image-rendering="optimizeQuality" shape-rendering="geometricPrecision" text-rendering="geometricPrecision" viewBox="0 0 2667 2667" width="2.667in" xmlns="http://www.w3.org/2000/svg"><g id="Layer_x0020_1"><circle cx="1333" cy="1333" fill="#00ab94" r="1333"/><path d="m1662 1101c-77 0-139-62-139-139 0-76 62-138 139-138 76 0 138 62 138 138 0 77-62 139-138 139zm28 1086h-1185c-12 0-22-11-22-23v-1661c0-13 10-23 22-23h1185c13 0 23 10 23 23v105h311c88 0 160 71 160 160v390c0 88-72 160-160 160h-311v846c0 12-10 23-23 23zm-22-1579v-82h-1140v1615h1140v-823h-872c-89 0-160-72-160-160v-390c0-89 71-160 160-160zm356 664c63 0 115-51 115-114v-390c0-64-52-115-115-115h-1228c-64 0-115 51-115 115v390c0 63 51 114 115 114zm-479 311h-895c-12 0-22-10-22-23v-142c0-13 10-23 22-23h895c13 0 23 10 23 23v142c0 13-10 23-23 23zm-872-45h850v-97h-850zm699 167h-549c-29 0-29-46 0-46h549c30 0 30 46 0 46zm173 118h-895c-29 0-29-46 0-46h895c30 0 30 46 0 46zm0 118h-895c-29 0-29-45 0-45h895c30 0 30 45 0 45zm0 118h-895c-29 0-29-45 0-45h895c30 0 30 45 0 45zm-823-981v-231c0-12 11-22 23-22h133c30 0 30 45 0 45h-110v53h93c30 0 30 45 0 45h-93v110c0 30-46 30-46 0zm1302 24c-9 0-17-5-21-13l-44-95-45 95c-9 19-38 16-43-5l-51-233c-6-29 38-38 45-9l36 167 40-82 1-1 3-3c4-5 26-10 34 9l37 77 36-167c7-29 51-20 45 9l-51 233c-3 10-12 18-22 18zm-696 0h-88c-13 0-23-10-23-23v-232c0-30 46-30 46 0v209h65c30 0 30 46 0 46zm153-1h-88c-13 0-23-10-23-22v-233c0-29 45-29 45 0v210h66c29 0 29 45 0 45zm-422 0c-77 0-139-62-139-139 0-76 62-139 139-139 76 0 138 63 138 139 0 77-62 139-138 139zm0-232c-52 0-94 42-94 93 0 52 42 93 94 93 51 0 93-41 93-93 0-51-42-93-93-93zm603 0c-52 0-94 42-94 93 0 52 42 94 94 94 51 0 93-42 93-94 0-51-42-93-93-93z" fill="#fff"/></g></svg>