<svg clip-rule="evenodd" fill-rule="evenodd" height="2.667in" image-rendering="optimizeQuality" shape-rendering="geometricPrecision" text-rendering="geometricPrecision" viewBox="0 0 2667 2667" width="2.667in" xmlns="http://www.w3.org/2000/svg"><g id="Layer_x0020_1"><circle cx="1333" cy="1333" fill="#f10" r="1333"/><path d="m2043 950h-1419v685h1419zm-1464-22v-132c0-13 10-23 22-23h1464c13 0 23 10 23 23v839h76c12 0 23 10 23 23v106c0 72-58 130-130 130h-1448c-71 0-129-59-129-130v-106c0-13 10-23 23-23h76zm-53 752v84c0 46 37 84 83 84h1448c46 0 84-38 84-84v-84h-458l-63 109c-4 7-11 11-19 11h-508c-9 0-16-4-20-11l-63-109zm1104 0h-567l43 75h482zm-459-211c-8 0-16-5-20-13l-104-217v207c0 13-10 23-23 23-12 0-22-10-22-23v-307c0-24 32-32 43-10l103 217v-204c0-30 46-30 46 0v304c0 13-10 23-23 23zm135 0c-16 0-27-16-21-31l118-307c8-19 35-19 43 0l118 307c11 28-32 45-42 17l-50-130h-95l-50 130c-3 9-12 14-21 14zm89-189h59l-30-78zm241 189c-13 0-23-10-23-23v-298c0-30 45-30 45 0v298c0 13-10 23-22 23zm101 0c-13 0-23-10-23-23v-295c0-12 10-23 23-23h112c57 0 103 46 103 103s-46 103-103 103h-54l103 95c22 20-9 53-31 33l-108-99v83c0 13-10 23-22 23zm22-181h90c75 0 75-114 0-114h-90zm-868 181h-116c-33 0-60-27-60-60v-233c0-33 27-59 60-59h116c33 0 60 26 60 59v233c0 33-27 60-60 60zm-116-307c-8 0-15 7-15 14v233c0 8 7 14 15 14h116c8 0 14-6 14-14v-233c0-7-6-14-14-14zm-151-257h1419v-86h-1419z" fill="#fff"/></g></svg>