<svg clip-rule="evenodd" fill-rule="evenodd" height="2.667in" image-rendering="optimizeQuality" shape-rendering="geometricPrecision" text-rendering="geometricPrecision" viewBox="0 0 2667 2667" width="2.667in" xmlns="http://www.w3.org/2000/svg"><g id="Layer_x0020_1"><circle cx="1333" cy="1333" fill="#f10" r="1333"/><path d="m828 1066c-25 0-22-27-22-40-94-12-127-136-77-136 13 0 23 10 23 23 0 38 31 69 69 69s69-31 69-69-31-69-69-69c-104 0-154-129-78-199 18-16 40-26 63-29 0-13-3-39 22-39 27 0 23 27 23 42 81 22 110 133 62 133-13 0-23-10-23-23 0-59-71-92-116-51-46 43-16 120 47 120s115 52 115 115c0 53-36 97-85 110 0 15 4 43-23 43zm1336 1120h-1661c-13 0-23-10-23-22v-134c0-13 10-23 23-23h105v-371c0-13 10-23 22-23h228c13 0 23 10 23 23v371h119v-634c0-12 10-22 23-22h228c13 0 23 10 23 22v634h119v-879c0-13 10-23 23-23h228c12 0 22 10 22 23v879h119v-1261c0-12 11-22 23-22h228c13 0 23 10 23 22v1261h105c12 0 23 10 23 23v134c0 12-11 22-23 22zm-1638-45h1615v-88h-1615zm191-677c-21 0-31-27-13-41l1177-889c24-18 52 18 28 36l-1178 890c-4 3-9 4-14 4zm1114 212h183v-907h-183zm183 46h-183v280h183zm-576 52h183v-623h-183zm0 228h183v-183h-183zm-785-99h183v-244h-183zm183 46h-183v53h183zm210-113h182v-440h-182zm182 46h-182v120h182zm-407-720c-188 0-341-153-341-341s153-341 341-341 341 153 341 341-153 341-341 341zm0-636c-163 0-295 132-295 295s132 296 295 296 296-133 296-296-133-295-296-295z" fill="#fff"/></g></svg>