<svg clip-rule="evenodd" fill-rule="evenodd" height="2.667in" image-rendering="optimizeQuality" shape-rendering="geometricPrecision" text-rendering="geometricPrecision" viewBox="0 0 2667 2667" width="2.667in" xmlns="http://www.w3.org/2000/svg"><g id="Layer_x0020_1"><circle cx="1333" cy="1333" fill="#7ed63f" r="1333"/><path d="m2034 1524h-711c-175 196-501 72-501-191 0-262 326-386 501-191h711c13 0 23 11 23 23v337c0 12-10 22-23 22zm-664 663h-739c-82 0-148-67-148-148v-1411c0-82 66-148 148-148h739c82 0 148 66 148 148v254h643c13 0 23 10 23 23v857c0 12-10 22-23 22h-643v255c0 81-66 148-148 148zm-842-1559v45h945v-45c0-57-46-102-103-102h-738c-57 0-104 44-104 102zm0 90v1226h945v-160h-755c-13 0-23-10-23-22v-857c0-13 10-23 23-23h755v-164zm0 1272v49c0 56 46 102 103 102h739c57 0 103-46 103-102v-49zm588-1368h-250c-30 0-30-46 0-46h250c30 0 30 46 0 46zm-375 1117h1398v-811h-1398zm789-291h-71c-12 0-22-10-22-22v-186c0-30 45-30 45 0v163c32 0 70-7 70 23 0 12-10 22-22 22zm75 1c-12 0-22-10-22-23v-177c0-30 45-30 45 0v177c0 13-10 23-23 23zm126 4c-11 0-20-7-22-17l-50-185c-7-28 36-40 44-11l28 102 27-102c8-29 52-17 44 11l-50 187c-4 9-12 15-21 15zm216-1h-91c-13 0-23-10-23-23v-184c0-13 10-23 23-23h87c30 0 30 46 0 46h-64v46c26 0 63-6 63 23s-37 23-63 23v47h68c30 0 30 45 0 45zm-618-19c69-146-34-341-220-341-133 0-241 108-241 241s108 242 241 242c98 0 182-59 220-142zm46-206c33 82 26 175-19 252h655v-291h-655zm-372 253v-296c0-18 20-29 35-19l224 148c14 9 14 29 0 38l-224 148c-15 9-35-1-35-19zm45-254v212l161-106z" fill="#fff"/></g></svg>