<svg clip-rule="evenodd" fill-rule="evenodd" height="2.667in" image-rendering="optimizeQuality" shape-rendering="geometricPrecision" text-rendering="geometricPrecision" viewBox="0 0 2667 2667" width="2.667in" xmlns="http://www.w3.org/2000/svg"><g id="Layer_x0020_1"><circle cx="1333" cy="1333" fill="#378b4e" r="1333"/><path d="m1341 1140c-26 0-23-26-23-40-93-12-127-136-77-136 13 0 23 10 23 23 0 38 31 69 69 69s69-31 69-69-31-69-69-69c-104 0-153-129-77-199 17-16 39-26 62-29 0-13-2-39 23-39 26 0 22 28 22 42 81 22 110 133 62 133-12 0-23-10-23-23 0-59-71-92-116-50-46 42-15 119 47 119 63 0 115 52 115 115 0 53-36 97-85 110 0 15 4 43-22 43zm823 604h-556v182h206c12 0 22 10 22 22v142c0 12-10 22-22 22h-961c-13 0-23-10-23-22v-142c0-12 10-22 23-22h206v-182h-556c-13 0-23-10-23-23v-996c0-12 10-22 23-22h549c136-198 427-198 562 0h550c12 0 23 10 23 22v996c0 13-11 23-23 23zm-1138-996h-500v950h1615v-950h-500c8 17 15 36 21 55h402c12 0 22 10 22 23v795c0 12-10 23-22 23h-1461c-12 0-23-11-23-23v-795c0-13 11-23 23-23h402c5-19 12-38 21-55zm-30 100h-370v750h201v-283c-29 0-66 7-66-22v-138c0-13 10-23 23-23h305c-72-74-108-177-93-284zm844 750h201v-750h-370c15 107-21 210-93 284h305c13 0 23 10 23 23v138c0 29-37 22-66 22zm-278 328v-182h-458v182zm-686 141h915v-96h-915zm-4-469h923v-283h-923zm271-420h-337v92h1054v-92h-336c-54 37-120 58-191 58-70 0-136-21-190-58zm190-578c-163 0-295 132-295 295s132 296 295 296 296-133 296-296-133-295-296-295z" fill="#fff"/></g></svg>