<svg clip-rule="evenodd" fill-rule="evenodd" height="2.667in" image-rendering="optimizeQuality" shape-rendering="geometricPrecision" text-rendering="geometricPrecision" viewBox="0 0 2667 2667" width="2.667in" xmlns="http://www.w3.org/2000/svg"><g id="Layer_x0020_1"><circle cx="1333" cy="1333" fill="#00ab94" r="1333"/><path d="m998 1130-162-162-107 108 161 162zm863 55c-67 0-132-17-189-49l-54 54 99 98c8 9 8 24 0 32l-166 166 52 52 57-57c9-9 23-9 32 0l388 387c9 9 9 24 0 33l-280 279c-8 9-23 9-32 0l-387-388c-9-9-9-23 0-32l57-57-52-52-252 251c-8 9-23 9-32 0l-338-338c-9-8-9-23 0-32l252-251-52-52-58 57c-8 9-23 9-32 0l-387-388c-9-9-9-23 0-32l279-279c9-9 23-9 32 0l388 387c9 9 9 24 0 33l-58 57 53 52 165-166c9-9 24-9 32 0l99 99 54-55c-83-145-62-333 61-457l50-50c9-9 24-9 32 0l237 236 69-68c-44-80 62-161 127-96 66 66-14 172-95 128l-69 69 237 236c9 9 9 23 0 32l-50 50c-72 72-167 111-269 111zm-227-75c-30-22-55-47-77-77l-48 48 77 77zm24-575-34 34c-112 113-128 286-46 415 121 187 372 206 520 58l34-34zm393 46c-31 0-47 38-25 60 32 32 82-17 49-49-6-7-15-11-24-11zm-53 436-354-354c-21-21 11-53 32-32l354 354c22 21-11 53-32 32zm-1100 445 306 306 464-464-306-306zm-86 86 306 306 54-53-306-306zm606 71 52 52 101-101-52-52zm11 157 162 162 107-108-161-161zm194 194 161 162 108-108-162-162zm301 22 108-108-162-161-108 107zm-86-301-162-162-107 108 161 161zm-842-495 52 53 100-101-52-52zm-299-152 107-108-161-161-108 107zm-22-301 161 161 108-107-162-162zm301 86-108 107 162 162 108-108z" fill="#fff"/></g></svg>