<svg clip-rule="evenodd" fill-rule="evenodd" height="2.667in" image-rendering="optimizeQuality" shape-rendering="geometricPrecision" text-rendering="geometricPrecision" viewBox="0 0 2667 2667" width="2.667in" xmlns="http://www.w3.org/2000/svg"><g id="Layer_x0020_1"><circle cx="1333" cy="1333" fill="#f10" r="1333"/><path d="m1188 1001h-568c-30 0-30-45 0-45h568c30 0 30 45 0 45zm808 1090-269-223h-697c-13 0-23-10-23-23v-682h-193l-188 157c-13 11-32 4-37-12l-37-145c-32 0-72 8-72-23v-547c0-13 10-23 23-23h802c12 0 22 10 22 23v455h837c12 0 23 10 23 22v775c0 13-11 23-23 23h-77l-55 212c-4 16-24 22-36 11zm-989-973c0-31-7-70 23-70h252v-433h-756v503c30 0 60-6 66 17l33 127 166-139c4-3 9-5 15-5zm46 704h682c6 0 11 2 15 6l247 206 50-195c3-10 12-17 22-17h72v-729h-1088zm998-67h-908c-13 0-23-10-23-23v-549c0-12 10-22 23-22h908c12 0 23 10 23 22v549c0 13-11 23-23 23zm-885-46h862v-503h-862zm123-81c-14 0-24-12-22-26l12-94-65-69c-13-13-6-35 12-38l94-17 45-84c8-16 31-16 40 0l45 84 94 17c18 3 25 24 12 38l-66 69 13 94c3 18-16 31-32 24l-86-42c-15 7-85 44-96 44zm-13-190c62 65 53 39 41 128 81-39 54-39 136 0-13-89-21-63 41-128-88-16-66 0-109-80-43 80-21 64-109 80zm629 190c-11 0-82-37-96-44l-86 42c-16 7-35-6-32-24l12-94-66-69c-12-13-5-35 13-38l94-17 45-84c8-16 31-16 40 0l45 84 94 17c18 3 25 24 12 38l-66 69 13 94c2 14-9 26-22 26zm-96-92c10 0 56 25 67 30-12-89-20-63 42-128-88-16-67 0-109-80-43 80-21 64-110 80 63 65 54 39 42 128 12-5 58-30 68-30zm-695-777h-421c-30 0-30-45 0-45h421c30 0 30 45 0 45zm74 121h-568c-30 0-30-45 0-45h568c30 0 30 45 0 45z" fill="#fff"/></g></svg>