<svg clip-rule="evenodd" fill-rule="evenodd" height="2.667in" image-rendering="optimizeQuality" shape-rendering="geometricPrecision" text-rendering="geometricPrecision" viewBox="0 0 2667 2667" width="2.667in" xmlns="http://www.w3.org/2000/svg"><g id="Layer_x0020_1"><circle cx="1333" cy="1333" fill="#f44c71" r="1333"/><path d="m1532 1356h-438c-30 0-30-45 0-45h438c30 0 30 45 0 45zm-199 831c-470 0-853-383-853-854 0-470 383-853 853-853 471 0 854 383 854 853 0 471-383 854-854 854zm0-1661c-445 0-807 362-807 807 0 446 362 808 807 808 446 0 808-362 808-808 0-445-362-807-808-807zm0 346c-42 0-76-34-76-76v-123c0-42 35-76 76-76 42 0 76 34 76 76v123c0 42-34 76-76 76zm0-230c-16 0-30 14-30 31v123c0 40 61 40 61 0v-123c0-17-14-31-31-31zm380 387c-67 0-101-82-53-129l87-87c29-30 77-30 107 0 30 29 30 77 0 107l-87 87c-14 14-33 22-54 22zm87-193c-8 0-15 3-21 9l-87 87c-29 29 15 71 43 43l87-87c19-19 6-52-22-52zm194 573h-123c-42 0-76-34-76-76s34-76 76-76h123c42 0 76 35 76 76 0 42-34 76-76 76zm-123-106c-40 0-40 61 0 61h123c40 0 40-61 0-61zm-71 573c-20 0-39-8-53-22l-87-87c-48-48-14-129 53-129 21 0 40 7 54 22l87 87c48 47 14 129-54 129zm-87-193c-27 0-40 33-21 52l87 87c28 28 72-14 43-43l-87-87c-6-6-13-9-22-9zm-380 387c-42 0-76-34-76-76v-123c0-42 35-76 76-76 42 0 76 34 76 76v123c0 42-34 76-76 76zm0-230c-16 0-30 14-30 31v123c0 40 61 40 61 0v-123c0-17-14-31-31-31zm-467 36c-67 0-101-82-53-129l87-87c47-48 129-14 129 53 0 21-8 40-22 54l-87 87c-14 14-33 22-54 22zm87-193c-8 0-16 3-21 9l-87 87c-29 29 15 71 43 43l87-87c19-19 6-52-22-52zm-157-274h-123c-42 0-76-34-76-76s34-76 76-76h123c42 0 76 35 76 76 0 42-34 76-76 76zm-123-106c-40 0-40 61 0 61h123c40 0 40-61 0-61zm280-274c-20 0-39-8-53-22l-87-87c-48-48-14-129 53-129 21 0 40 7 54 22l87 87c47 47 14 129-54 129zm-87-193c-27 0-40 33-21 52l87 87c28 28 71-15 43-43l-87-87c-6-6-14-9-22-9zm799 625h-663c-13 0-23-10-23-22v-211c0-12 10-23 23-23h663c12 0 22 11 22 23v211c0 12-10 22-22 22zm-640-45h617v-165h-617z" fill="#fff"/></g></svg>