<svg id="Capa_1" enable-background="new 0 0 512 512" height="512" viewBox="0 0 512 512" width="512" xmlns="http://www.w3.org/2000/svg"><g><g><path d="m111.03 189.59c-.02-1.19-.03-2.39-.03-3.59 0-74.56 38.06-135 85-135 11.85 0 23.14 3.85 33.39 10.82 3.258 36.393 6.517 72.787 9.775 109.18-9.908 14.899-19.817 29.798-29.725 44.697-32.803-8.702-65.607-17.405-98.41-26.107z" fill="#ffd47c"/><path d="m194.87 147h-10.57c-11.05 0-20-8.95-20-20 0-5.52 2.24-10.52 5.86-14.14s8.62-5.86 14.14-5.86h45.09c1.447 3.617 3.737 11.039 1.188 19.027-4.019 12.597-18.442 21.517-35.708 20.973z" fill="#ffecc7"/><path d="m282.65 107.8c10.24-4.38 21.51-6.8 33.35-6.8 46.94 0 85 38.06 85 85 0 1.21-.03 2.41-.08 3.6-36.964 8.038-73.928 16.077-110.893 24.116-2.459-35.306-4.918-70.611-7.377-105.916z" fill="#ff6d8a"/><path d="m282.61 20c0-5.52-4.48-10-10-10h-33.22c-5.52 0-10 4.48-10 10v50.222h53.22z" fill="#b6bccf"/><path d="m285.54 114.04c-1.88-1.88-2.93-4.42-2.93-7.07v-36.748h-53.22v36.748c0 2.65-1.05 5.19-2.93 7.07l-26.85 26.85c-5.83 5.83-9.11 13.75-9.11 22v26.82c6.584 5.289 31.5 24.01 68.041 23.125 33.402-.809 55.981-17.505 62.959-23.115 0-8.943 0-17.887 0-26.83 0-8.25-3.28-16.17-9.11-22z" fill="#33d6f5"/><path d="m431 301.7v-107.443c0-6.644-6.359-11.44-12.747-9.615l-19.512 5.574c-1.795.513-3.698.513-5.494 0l-29.512-8.431c-1.795-.513-3.699-.513-5.494 0l-29.506 8.43c-1.796.513-3.699.513-5.494 0l-29.507-8.43c-1.796-.513-3.699-.513-5.494 0l-29.506 8.43c-1.796.513-3.699.513-5.494 0l-29.505-8.43c-1.796-.513-3.699-.513-5.495 0l-29.5 8.43c-1.796.513-3.699.513-5.495 0l-29.499-8.43c-1.796-.513-3.699-.513-5.495 0l-29.505 8.43c-1.796.513-3.699.513-5.495 0l-19.504-5.573c-6.388-1.825-12.747 2.972-12.747 9.615v267.743c0 22.091 17.909 40 40 40h270c22.091 0 40-17.909 40-40v-80.3z" fill="#ffd47c"/><path d="m336 382h-160c-5.523 0-10-4.477-10-10v-60c0-5.523 4.477-10 10-10h160c5.523 0 10 4.477 10 10v60c0 5.523-4.477 10-10 10z" fill="#fff"/></g><g><path d="m441 194.257c0-6.334-2.9-12.153-7.957-15.967-5.056-3.813-11.448-5.003-17.537-3.263l-4.985 1.424c-4.804-47.917-45.361-85.451-94.521-85.451-7.975 0-15.798.976-23.39 2.903v-73.903c0-11.028-8.972-20-20-20h-33.22c-11.028 0-20 8.972-20 20v25.344c-7.572-2.88-15.392-4.344-23.39-4.344-26.263 0-50.613 15.701-68.565 44.212-15.597 24.77-24.758 56.847-26.208 91.167l-4.734-1.352c-6.09-1.74-12.482-.551-17.538 3.264-5.055 3.814-7.955 9.633-7.955 15.966v267.743c0 27.57 22.43 50 50 50h270c27.57 0 50-22.43 50-50v-80.3c0-5.523-4.477-10-10-10s-10 4.477-10 10v80.3c0 16.542-13.458 30-30 30h-270c-16.542 0-30-13.458-30-30v-267.743l19.504 5.573c3.594 1.027 7.394 1.027 10.989.001l29.505-8.43 29.499 8.43c3.595 1.027 7.395 1.027 10.99 0l29.501-8.43 29.506 8.431c3.593 1.025 7.391 1.026 10.988-.001l29.505-8.431 29.509 8.431c3.593 1.025 7.391 1.026 10.988-.001l29.505-8.431 29.512 8.431c3.593 1.026 7.392 1.026 10.987 0l19.512-5.573v107.443c0 5.523 4.477 10 10 10s10-4.477 10-10zm-168.39-174.257v40.222h-33.22v-40.222zm-80.071 113.819c-1.01 1.01-1.959 2.075-2.853 3.181h-5.386c-5.514 0-10-4.486-10-10 0-2.668 1.041-5.179 2.932-7.069 1.89-1.89 4.4-2.931 7.068-2.931h25.058zm-36.045 38.351c-3.596-1.027-7.396-1.028-10.99 0l-24.385 6.967c1.034-31.6 9.19-60.953 23.241-83.269 14.158-22.485 32.497-34.868 51.64-34.868 7.997 0 15.843 2.15 23.389 6.384v29.616h-35.089c-8.01 0-15.543 3.121-21.211 8.789-5.667 5.668-8.789 13.201-8.789 21.211 0 15.413 11.686 28.143 26.661 29.81-.304 2.007-.461 4.039-.461 6.08v16.14zm128.999-.001-29.505 8.431-29.504-8.43c-3.596-1.027-7.396-1.027-10.99 0l-14.993 4.284v-13.564c0-5.56 2.253-11.001 6.181-14.929l26.85-26.85c3.778-3.778 5.859-8.8 5.859-14.141v-26.748h33.22v26.748c0 5.341 2.081 10.363 5.859 14.141l26.85 26.85c3.928 3.928 6.181 9.369 6.181 14.929v13.57l-15.02-4.292c-3.594-1.025-7.393-1.025-10.988.001zm80.989 0c-3.593-1.026-7.392-1.026-10.987.001l-23.995 6.856v-16.136c0-10.824-4.388-21.42-12.039-29.071l-20.791-20.789c5.635-1.335 11.426-2.03 17.33-2.03 39.02 0 71.162 29.958 74.668 68.078z"/><circle cx="430.999" cy="341.7" r="10"/><path d="m176 292c-11.028 0-20 8.972-20 20v60c0 11.028 8.972 20 20 20h160c11.028 0 20-8.972 20-20v-60c0-11.028-8.972-20-20-20zm160 80h-160v-60h160l.013 60s-.004 0-.013 0z"/></g></g></svg>