<svg id="Capa_1" enable-background="new 0 0 512 512" height="512" viewBox="0 0 512 512" width="512" xmlns="http://www.w3.org/2000/svg"><g><g><path d="m60 278.5v143.5c0 5.52 4.48 10 10 10h372c5.52 0 10-4.48 10-10v-143.5-45-143.5c0-5.52-4.48-10-10-10h-372c-5.52 0-10 4.48-10 10v143.5z" fill="#ffd47c"/><path d="m216 233.5h-196c-5.523 0-10 4.477-10 10v25c0 5.523 4.477 10 10 10h472c5.523 0 10-4.477 10-10v-25c0-5.523-4.477-10-10-10h-196z" fill="#b6bccf"/><path d="m196 80v83.859c0 7.424 7.805 12.26 14.453 8.954l41.094-20.436c2.805-1.395 6.101-1.395 8.906 0l41.094 20.436c6.648 3.306 14.453-1.53 14.453-8.954v-83.859z" fill="#ff6d8a"/></g><g><path d="m492 223.5h-30v-133.5c0-11.028-8.972-20-20-20h-372c-11.028 0-20 8.972-20 20v133.5h-30c-11.028 0-20 8.972-20 20v25c0 11.028 8.972 20 20 20h30v133.5c0 11.028 8.972 20 20 20h372c11.028 0 20-8.972 20-20v-133.5h30c11.028 0 20-8.972 20-20v-25c0-11.028-8.972-20-20-20zm-286-133.5h100v73.858l-41.095-20.436c-5.576-2.772-12.234-2.772-17.811 0l-41.094 20.437zm236 332h-372v-133.5h372zm50-153.5h-472v-25h196c5.523 0 10-4.477 10-10s-4.477-10-10-10h-146v-133.5h116v73.859c0 6.974 3.539 13.329 9.467 17.002 3.236 2.004 6.871 3.016 10.52 3.016 3.036 0 6.083-.7 8.918-2.11l41.095-20.436 41.093 20.436c6.242 3.104 13.511 2.766 19.439-.906s9.467-10.028 9.467-17.001v-73.86h116v133.5h-145.999c-5.522 0-10 4.477-10 10s4.478 10 10 10h196z"/><circle cx="256" cy="233.499" r="10"/><path d="m230 385.25c5.523 0 10-4.477 10-10v-40c0-5.523-4.477-10-10-10s-10 4.477-10 10v40c0 5.523 4.477 10 10 10z"/><path d="m190 385.25c5.523 0 10-4.477 10-10v-40c0-5.523-4.477-10-10-10s-10 4.477-10 10v40c0 5.523 4.477 10 10 10z"/><path d="m150 385.25c5.523 0 10-4.477 10-10v-40c0-5.523-4.477-10-10-10s-10 4.477-10 10v40c0 5.523 4.477 10 10 10z"/><path d="m110 385.25c5.523 0 10-4.477 10-10v-40c0-5.523-4.477-10-10-10s-10 4.477-10 10v40c0 5.523 4.477 10 10 10z"/><path d="m10 97c5.523 0 10-4.477 10-10v-67h67c5.523 0 10-4.477 10-10s-4.477-10-10-10h-67c-11.028 0-20 8.972-20 20v67c0 5.523 4.477 10 10 10z"/><path d="m502 415c-5.522 0-10 4.477-10 10v67h-67c-5.522 0-10 4.477-10 10s4.478 10 10 10h67c11.028 0 20-8.972 20-20v-67c0-5.523-4.478-10-10-10z"/><path d="m87 492h-67v-67c0-5.523-4.477-10-10-10s-10 4.477-10 10v67c0 11.028 8.972 20 20 20h67c5.523 0 10-4.477 10-10s-4.477-10-10-10z"/><path d="m492 0h-67c-5.522 0-10 4.477-10 10s4.478 10 10 10h67v67c0 5.523 4.478 10 10 10s10-4.477 10-10v-67c0-11.028-8.972-20-20-20z"/></g></g></svg>