<svg id="Capa_1" enable-background="new 0 0 512 512" height="512" viewBox="0 0 512 512" width="512" xmlns="http://www.w3.org/2000/svg"><g><g><path d="m492 432h-472c-5.523 0-10-4.477-10-10v-20c0-5.523 4.477-10 10-10h472c5.523 0 10 4.477 10 10v20c0 5.523-4.477 10-10 10z" fill="#b6bccf"/><g fill="#e7e9ef"><path d="m482 432v40c0 5.523-4.477 10-10 10h-40c-5.523 0-10-4.477-10-10v-40z"/><path d="m90 432v40c0 5.523-4.477 10-10 10h-40c-5.523 0-10-4.477-10-10v-40z"/><path d="m286 432v40c0 5.523-4.477 10-10 10h-40c-5.523 0-10-4.477-10-10v-40z"/></g><path d="m256 392v-181h-191c-5.523 0-10 4.477-10 10v171z" fill="#ffd47c"/><path d="m457 392v-50.498-80-40.502c0-5.523-4.477-10-10-10h-191v181z" fill="#ffd47c"/><path d="m356.5 211v-171c0-5.523-4.477-10-10-10h-181c-5.523 0-10 4.477-10 10v171z" fill="#ffd47c"/><path d="m221 30v43.859c0 7.424 7.805 12.26 14.453 8.954l16.094-8.004c2.805-1.395 6.101-1.395 8.906 0l16.094 8.004c6.648 3.306 14.453-1.53 14.453-8.954v-43.859z" fill="#ff6d8a"/><path d="m321.5 211v43.859c0 7.424 7.805 12.26 14.453 8.954l16.094-8.004c2.805-1.395 6.101-1.395 8.906 0l16.094 8.004c6.648 3.306 14.453-1.53 14.453-8.954v-43.859z" fill="#ff6d8a"/><path d="m120.5 211v43.859c0 7.424 7.805 12.26 14.453 8.954l16.094-8.004c2.805-1.395 6.101-1.395 8.906 0l16.094 8.004c6.648 3.306 14.453-1.53 14.453-8.954v-43.859z" fill="#ff6d8a"/></g><g><path d="m492 382h-25v-40.498c0-5.523-4.478-10-10-10s-10 4.477-10 10v40.498h-181v-161h45.5v33.859c0 6.973 3.539 13.329 9.467 17.002 5.929 3.673 13.195 4.01 19.44.906l16.094-8.003 16.094 8.003c2.836 1.41 5.882 2.11 8.919 2.11 3.649 0 7.285-1.012 10.521-3.016 5.928-3.672 9.467-10.028 9.467-17.002v-33.859h45.498v40.502c0 5.523 4.478 10 10 10s10-4.477 10-10v-40.502c0-11.028-8.972-20-20-20h-80.5v-161c0-11.028-8.972-20-20-20h-181c-11.028 0-20 8.972-20 20v161h-80.5c-11.028 0-20 8.972-20 20v161h-25c-11.028 0-20 8.972-20 20v20c0 11.028 8.972 20 20 20v30c0 11.028 8.972 20 20 20h40c11.028 0 20-8.972 20-20v-30h116v30c0 11.028 8.972 20 20 20h40c11.028 0 20-8.972 20-20v-30h116v30c0 11.028 8.972 20 20 20h40c11.028 0 20-8.972 20-20v-30c11.028 0 20-8.972 20-20v-20c0-11.028-8.972-20-20-20zm-110.5-127.142-16.094-8.003c-5.575-2.774-12.235-2.773-17.812-.001l-16.094 8.004v-33.858h50zm-150.5-214.858h50v33.858l-16.094-8.003c-5.575-2.774-12.235-2.773-17.813 0l-16.093 8.004zm-65.5 0h45.5v33.859c0 6.973 3.539 13.329 9.467 17.001 5.929 3.673 13.194 4.01 19.439.906l16.094-8.003 16.094 8.003c2.836 1.41 5.882 2.11 8.919 2.11 3.649 0 7.285-1.012 10.521-3.016 5.927-3.672 9.466-10.028 9.466-17.001v-33.859h45.5v161h-181zm-35 181h50v33.858l-16.094-8.003c-5.575-2.774-12.235-2.773-17.812-.001l-16.094 8.004zm-65.5 0h45.5v33.859c0 6.973 3.539 13.329 9.467 17.002 5.929 3.673 13.194 4.01 19.439.906l16.094-8.003 16.094 8.003c2.836 1.41 5.882 2.11 8.919 2.11 3.649 0 7.285-1.012 10.521-3.016 5.928-3.672 9.467-10.028 9.467-17.002v-33.859h45.499v161h-181zm15 251h-40v-30h40zm196 0h-40v-30h40zm196 0h-40v-30h40zm20-50h-472v-20h472l.013 20s-.004 0-.013 0z"/><circle cx="457" cy="301.5" r="10"/><path d="m196 141h23c5.523 0 10-4.477 10-10s-4.477-10-10-10h-23c-5.523 0-10 4.477-10 10s4.477 10 10 10z"/><path d="m262 171c0-5.523-4.478-10-10-10h-56c-5.523 0-10 4.477-10 10s4.477 10 10 10h56c5.522 0 10-4.477 10-10z"/><path d="m296 322h23c5.522 0 10-4.477 10-10s-4.478-10-10-10h-23c-5.522 0-10 4.477-10 10s4.478 10 10 10z"/><path d="m296 362h56c5.522 0 10-4.477 10-10s-4.478-10-10-10h-56c-5.522 0-10 4.477-10 10s4.478 10 10 10z"/><path d="m95 322h23c5.522 0 10-4.477 10-10s-4.478-10-10-10h-23c-5.522 0-10 4.477-10 10s4.478 10 10 10z"/><path d="m151 342h-56c-5.522 0-10 4.477-10 10s4.478 10 10 10h56c5.523 0 10-4.477 10-10s-4.477-10-10-10z"/></g></g></svg>