<svg id="Capa_1" enable-background="new 0 0 512 512" height="512" viewBox="0 0 512 512" width="512" xmlns="http://www.w3.org/2000/svg"><g><g><path d="m256 10c10.715 0 24.453.964 40 4.535 78.568 18.141 137.01 88.583 137.251 172.715.31 108.658-135.85 272.304-169.702 311.306-3.985 4.591-11.112 4.591-15.097 0-33.853-39.001-170.013-202.648-169.703-311.305.241-84.132 58.683-154.574 137.251-172.716 10.443-2.399 24.048-4.535 40-4.535z" fill="#33d6f5"/><circle cx="256" cy="187.251" fill="#fff" r="120"/><path d="m206 241.281h100c5.523 0 10-4.477 10-10v-88.06c0-5.523-4.477-10-10-10h-100c-5.523 0-10 4.477-10 10v88.06c0 5.523 4.477 10 10 10z" fill="#ffd47c"/><path d="m236 133.221v41.215c0 3.712 3.902 6.13 7.226 4.477l10.547-5.245c1.402-.697 3.05-.697 4.453 0l10.547 5.245c3.324 1.653 7.226-.765 7.226-4.477v-41.215z" fill="#ff6d8a"/></g><g><path d="m401.789 69.877c-26.249-32.615-63.02-55.729-103.539-65.085-5.383-1.243-10.75 2.113-11.994 7.494-1.243 5.381 2.113 10.751 7.494 11.994 76.024 17.554 129.276 84.582 129.5 163 .304 106.278-139.271 272.484-167.247 304.723-27.982-32.24-167.557-198.446-167.253-304.724.224-78.417 53.477-145.446 129.5-163 5.381-1.243 8.736-6.612 7.494-11.994-1.243-5.381-6.612-8.739-11.994-7.494-40.519 9.356-77.29 32.471-103.539 65.085-26.615 33.071-41.34 74.745-41.462 117.345-.316 110.57 131.686 271.271 172.15 317.89 3.8 4.378 9.304 6.889 15.101 6.889s11.301-2.511 15.1-6.888c40.465-46.619 172.466-207.32 172.15-317.89-.121-42.6-14.846-84.274-41.461-117.345z"/><circle cx="256" cy="10" r="10"/><path d="m126 187.251c0 71.682 58.318 130 130 130s130-58.318 130-130-58.318-130-130-130-130 58.318-130 130zm240 0c0 60.654-49.346 110-110 110s-110-49.346-110-110 49.346-110 110-110 110 49.346 110 110z"/><path d="m186 143.221v88.06c0 11.028 8.972 20 20 20h100c11.028 0 20-8.972 20-20v-88.06c0-11.028-8.972-20-20-20h-100c-11.028 0-20 8.972-20 20zm120 88.06h-100v-88.06h20v31.215c0 5.23 2.654 9.997 7.1 12.751 4.445 2.754 9.895 3.009 14.58.68l8.32-4.138 8.321 4.138c2.126 1.058 4.411 1.582 6.688 1.582 2.737 0 5.464-.759 7.891-2.262 4.445-2.754 7.1-7.521 7.1-12.751v-31.215h20zm-60-88.06h20v23.145l-3.319-1.65c-4.184-2.082-9.179-2.081-13.361-.001l-3.32 1.651z"/></g></g></svg>