<svg id="Capa_1" enable-background="new 0 0 512 512" height="512" viewBox="0 0 512 512" width="512" xmlns="http://www.w3.org/2000/svg"><g><g><path d="m236 143.5h40v69h-40z" fill="#b6bccf"/><path d="m10 403.5v25c0 5.523 4.477 10 10 10h472c5.523 0 10-4.477 10-10v-25c0-5.523-4.477-10-10-10h-472c-5.523 0-10 4.477-10 10z" fill="#e7e9ef"/><path d="m482 438.5v30c0 5.523-4.477 10-10 10h-176-80-176c-5.523 0-10-4.477-10-10v-30z" fill="#b6bccf"/><path d="m457 393.5v-171c0-5.523-4.477-10-10-10h-191v181z" fill="#ffd47c"/><path d="m321.5 212.5v43.859c0 7.424 7.805 12.26 14.453 8.954l16.094-8.004c2.805-1.395 6.101-1.395 8.906 0l16.094 8.004c6.648 3.306 14.453-1.53 14.453-8.954v-43.859z" fill="#ff6d8a"/><path d="m256 393.5v-181h-191c-5.523 0-10 4.477-10 10v171z" fill="#ffd47c"/><path d="m120.5 212.5v43.859c0 7.424 7.805 12.26 14.453 8.954l16.094-8.004c2.805-1.395 6.101-1.395 8.906 0l16.094 8.004c6.648 3.306 14.453-1.53 14.453-8.954v-43.859z" fill="#ff6d8a"/><path d="m156.497 143.5c-5.872 0-10.539-5.042-9.965-10.886 5.466-55.641 52.39-99.114 109.468-99.114s104.002 43.473 109.468 99.114c.574 5.844-4.093 10.886-9.965 10.886z" fill="#fff"/><path d="m296 143.5c0-22.091-17.909-40-40-40s-40 17.909-40 40z" fill="#33d6f5"/></g><g><path d="m492 383.5h-25v-161c0-11.028-8.972-20-20-20h-161v-49h69.504c5.646 0 11.06-2.4 14.853-6.584 3.764-4.152 5.609-9.721 5.063-15.279-2.897-29.499-16.604-56.786-38.594-76.835-22.14-20.185-50.845-31.302-80.826-31.302-29.982 0-58.686 11.117-80.826 31.302-21.99 20.049-35.696 47.336-38.594 76.835-.546 5.558 1.3 11.127 5.064 15.279 3.794 4.184 9.207 6.583 14.853 6.583h69.503v49h-161c-11.028 0-20 8.972-20 20v161h-25c-11.028 0-20 8.972-20 20v25c0 11.028 8.972 20 20 20v20c0 11.028 8.972 20 20 20h176c5.523 0 10-4.477 10-10s-4.477-10-10-10h-176v-20h432v20h-176c-5.522 0-10 4.477-10 10s4.478 10 10 10h176c11.028 0 20-8.972 20-20v-20c11.028 0 20-8.972 20-20v-25c0-11.027-8.972-19.999-20-19.999zm-45 0h-181v-161h45.5v33.859c0 6.973 3.539 13.329 9.467 17.002 5.929 3.673 13.194 4.01 19.44.906l16.094-8.003 16.094 8.003c2.836 1.41 5.882 2.11 8.919 2.11 3.649 0 7.285-1.012 10.521-3.016 5.928-3.672 9.467-10.028 9.467-17.002v-33.859h45.498zm-115.5-161h50v33.858l-16.094-8.003c-5.575-2.774-12.235-2.773-17.812-.001l-16.094 8.004zm-47.22-89h-56.56c4.128-11.639 15.243-20 28.28-20s24.152 8.361 28.28 20zm-127.787-.002c5.088-51.314 47.85-89.998 99.507-89.998 51.656 0 94.418 38.685 99.507 90.001-.001-.001-.002-.001-.003-.001h-50.51c-1.299-6.374-3.82-12.307-7.299-17.553l14.866-14.866c3.905-3.905 3.905-10.237 0-14.143-3.906-3.905-10.236-3.905-14.143 0l-14.866 14.867c-7.905-5.242-17.376-8.305-27.552-8.305-24.146 0-44.348 17.205-48.994 40h-50.51zm89.507 20.002h20v49h-20zm-115.5 69h50v33.858l-16.094-8.003c-5.577-2.774-12.235-2.774-17.812-.001l-16.095 8.004v-33.858zm-65.5 0h45.5v33.859c0 6.974 3.539 13.329 9.467 17.002 3.236 2.004 6.871 3.016 10.52 3.016 3.036 0 6.083-.7 8.918-2.11l16.095-8.003 16.094 8.003c6.243 3.106 13.511 2.767 19.439-.905 5.928-3.673 9.467-10.028 9.467-17.002v-33.86h45.5v161h-181zm427 206h-472v-25h472z"/><circle cx="256" cy="478.499" r="10"/><path d="m296.5 323.5h23c5.522 0 10-4.477 10-10s-4.478-10-10-10h-23c-5.522 0-10 4.477-10 10s4.478 10 10 10z"/><path d="m352.5 343.5h-56c-5.522 0-10 4.477-10 10s4.478 10 10 10h56c5.522 0 10-4.477 10-10s-4.478-10-10-10z"/><path d="m95.5 323.5h23c5.523 0 10-4.477 10-10s-4.477-10-10-10h-23c-5.523 0-10 4.477-10 10s4.477 10 10 10z"/><path d="m151.5 343.5h-56c-5.523 0-10 4.477-10 10s4.477 10 10 10h56c5.523 0 10-4.477 10-10s-4.477-10-10-10z"/></g></g></svg>