<svg id="Capa_1" enable-background="new 0 0 512.001 512.001" height="512" viewBox="0 0 512.001 512.001" width="512" xmlns="http://www.w3.org/2000/svg"><g><g><path d="m402.001 252.971v-212.97c0-5.52-4.48-10-10-10h-372c-5.52 0-10 4.48-10 10v126.002 79.996 126.002c0 5.52 4.48 10 10 10h252.97z" fill="#ffd47c"/><path d="m146.001 30.001v93.859c0 7.424 7.805 12.26 14.453 8.954l41.094-20.436c2.805-1.395 6.101-1.395 8.906 0l41.094 20.436c6.648 3.306 14.453-1.53 14.453-8.954v-93.859z" fill="#ff6d8a"/><circle cx="387.001" cy="367.001" fill="#33d6f5" r="115"/><circle cx="387.001" cy="367.001" fill="#fff" r="75"/></g><g><circle cx="10" cy="206" r="10"/><path d="m60.001 302.001h53c5.522 0 10-4.477 10-10s-4.478-10-10-10h-53c-5.523 0-10 4.477-10 10 0 5.522 4.478 10 10 10z"/><path d="m60.001 342.001h126c5.522 0 10-4.477 10-10s-4.478-10-10-10h-126c-5.523 0-10 4.477-10 10 0 5.522 4.478 10 10 10z"/><path d="m412.001 244.514v-204.513c0-11.028-8.972-20-20-20h-372c-11.028 0-20 8.972-20 20v126.002c0 5.523 4.477 10 10 10s10-4.477 10-10v-126.002h116v83.859c0 6.973 3.539 13.329 9.467 17.001 5.929 3.673 13.195 4.01 19.439.906l41.094-20.436 41.094 20.436c2.836 1.41 5.882 2.11 8.919 2.11 3.649 0 7.285-1.012 10.521-3.016 5.928-3.672 9.467-10.028 9.467-17.001v-83.859h116v202.109c-1.659-.066-3.325-.109-5-.109-68.925 0-125 56.075-125 125 0 1.675.043 3.34.109 5h-242.11v-126.002c0-5.523-4.477-10-10-10s-10 4.477-10 10v126.002c0 11.028 8.972 20 20 20h244.513c11.614 56.987 62.121 100 122.487 100 68.925 0 125-56.075 125-125 0-60.366-43.013-110.873-100-122.487zm-156-120.655-41.095-20.436c-5.576-2.772-12.233-2.772-17.811 0l-41.094 20.437v-83.859h100zm131 348.142c-57.897 0-105-47.103-105-105s47.103-105 105-105 105 47.103 105 105-47.102 105-105 105z"/><path d="m387.001 282.001c-46.869 0-85 38.131-85 85s38.131 85 85 85 85-38.131 85-85-38.131-85-85-85zm0 150c-35.841 0-65-29.159-65-65s29.159-65 65-65 65 29.159 65 65-29.159 65-65 65z"/><path d="m397.001 362.858v-30.858c0-5.523-4.477-10-10-10-5.522 0-10 4.477-10 10v35c0 2.652 1.054 5.196 2.929 7.071l24.75 24.75c1.953 1.953 4.512 2.929 7.071 2.929s5.118-.976 7.071-2.929c3.905-3.905 3.905-10.237 0-14.143z"/></g></g></svg>