<svg id="Capa_1" enable-background="new 0 0 512.003 512.003" height="512" viewBox="0 0 512.003 512.003" width="512" xmlns="http://www.w3.org/2000/svg"><g><g><path d="m267.081 382h-247.08c-5.52 0-10-4.48-10-10v-125.998-80-126.002c0-5.52 4.48-10 10-10h372c5.52 0 10 4.48 10 10v207.08z" fill="#ffd47c"/><path d="m146.001 30v93.859c0 7.424 7.805 12.26 14.453 8.954l41.094-20.436c2.805-1.395 6.101-1.395 8.906 0l41.094 20.436c6.648 3.306 14.453-1.53 14.453-8.954v-93.859z" fill="#ff6d8a"/><path d="m407.201 359.77c39.52 28.05 78.15 55.95 84.52 62.33 13.71 13.7 13.71 35.92 0 49.62-13.7 13.71-35.92 13.71-49.62 0-6.38-6.37-34.28-45-62.33-84.52z" fill="#e7e9ef"/><circle cx="327.001" cy="307" fill="#b6bccf" r="96"/><circle cx="327.001" cy="307" fill="#fff" r="56"/></g><g><circle cx="10" cy="206" r="10"/><path d="m60.001 302h53c5.522 0 10-4.477 10-10s-4.478-10-10-10h-53c-5.523 0-10 4.477-10 10s4.478 10 10 10z"/><path d="m60.001 342h126c5.522 0 10-4.477 10-10s-4.478-10-10-10h-126c-5.523 0-10 4.477-10 10s4.478 10 10 10z"/><path d="m498.797 415.035c-3.562-3.568-15.681-13.539-78.319-58.098 7.986-14.889 12.523-31.892 12.523-49.937 0-23.693-7.815-45.593-21-63.263v-203.737c0-11.028-8.972-20-20-20h-372c-11.028 0-20 8.972-20 20v126.002c0 5.523 4.477 10 10 10s10-4.477 10-10v-126.002h116v83.859c0 6.973 3.539 13.329 9.467 17.001 5.929 3.673 13.194 4.01 19.439.906l41.094-20.436 41.094 20.436c2.836 1.41 5.882 2.11 8.919 2.11 3.649 0 7.285-1.012 10.521-3.016 5.928-3.672 9.467-10.028 9.467-17.001v-83.859h116v183.328c-17.962-13.986-40.524-22.328-65-22.328-58.448 0-106 47.551-106 106 0 24.476 8.342 47.038 22.328 65h-223.329v-125.998c0-5.523-4.477-10-10-10s-10 4.477-10 10v125.998c0 11.028 8.972 20 20 20h243.737c17.67 13.185 39.571 21 63.263 21 18.045 0 35.048-4.537 49.937-12.523 44.563 62.643 54.531 74.759 58.09 78.312 8.515 8.521 19.838 13.214 31.883 13.214 12.046 0 23.369-4.692 31.879-13.208 8.521-8.515 13.214-19.838 13.214-31.884-.001-12.046-4.693-23.37-13.207-31.876zm-242.796-291.176-41.095-20.436c-5.576-2.772-12.233-2.772-17.811 0l-41.094 20.437v-83.86h100zm-15 183.141c0-47.42 38.579-86 86-86s86 38.58 86 86-38.579 86-86 86-86-38.579-86-86zm243.647 157.652c-4.737 4.74-11.036 7.35-17.737 7.35-6.7 0-12.999-2.61-17.744-7.359-2.659-2.655-13.469-16.086-55.565-75.245 5.802-4.699 11.1-9.996 15.798-15.798 59.155 42.091 72.588 52.905 75.253 55.573 4.74 4.737 7.351 11.036 7.351 17.736-.001 6.702-2.611 13.001-7.356 17.743z"/><path d="m327.001 241c-36.393 0-66 29.607-66 66s29.607 66 66 66 66-29.607 66-66-29.607-66-66-66zm0 112c-25.364 0-46-20.636-46-46s20.636-46 46-46 46 20.636 46 46-20.635 46-46 46z"/></g></g></svg>