<svg id="Capa_1" enable-background="new 0 0 512 512" height="512" viewBox="0 0 512 512" width="512" xmlns="http://www.w3.org/2000/svg"><g><g><path d="m196.444 231.887 179.481-65.326c5.19-1.889 10.928.787 12.817 5.977l58.485 160.687c-66.939 31.479-133.878 62.958-200.817 94.437-16.655-65.258-33.311-130.516-49.966-195.775z" fill="#ffd47c"/><path d="m306.85 384.37 168.65-61.38c5.19-1.89 10.93.79 12.82 5.98l6.84 18.8c1.89 5.19-.78 10.93-5.97 12.82l-168.66 61.38z" fill="#e7e9ef"/><path d="m38.91 10.94c-5-2.33-10.95-.17-13.29 4.84l-8.45 18.12c-2.33 5.01-.17 10.96 4.84 13.29l58.001 27.048 16.909-36.257z" fill="#b6bccf"/><path d="m137.45 69.81c-3.63-9.97-11.07-18.09-20.69-22.58l-19.841-9.249-16.908 36.257 19.839 9.252 19.292 53.004 27.362 75.177 56.616 155.549 37.6-13.68z" fill="#e7e9ef"/><path d="m323.772 185.543 15.001 41.214c2.539 6.977-3.141 14.19-10.519 13.357l-17.861-2.016c-3.112-.351-6.21.776-8.368 3.046l-12.386 13.026c-5.116 5.38-14.104 3.506-16.644-3.471l-15.001-41.214z" fill="#ff6d8a"/><ellipse cx="246.41" cy="427.662" fill="#b6bccf" rx="74.338" ry="74.338" transform="matrix(.707 -.707 .707 .707 -230.231 299.498)"/><ellipse cx="246.41" cy="427.662" fill="#e7e9ef" rx="34.338" ry="34.338" transform="matrix(.226 -.974 .974 .226 -225.938 570.842)"/></g><g><circle cx="132.815" cy="174.079" r="10"/><path d="m504.555 344.349-6.841-18.802c-1.827-5.02-5.5-9.028-10.341-11.287-4.843-2.26-10.277-2.498-15.296-.669l-18.858 6.863-55.083-151.34c-1.827-5.02-5.5-9.028-10.342-11.286-4.841-2.257-10.272-2.495-15.293-.668l-170.088 61.907-55.573-152.684c-4.569-12.548-13.752-22.57-25.862-28.223l-77.852-36.29c-9.989-4.656-21.91-.315-26.577 9.677l-8.455 18.13c-4.652 10.004-.306 21.926 9.681 26.57l74.087 34.55 17.876 49.112c1.889 5.189 7.625 7.863 12.818 5.977 5.189-1.889 7.865-7.628 5.977-12.818l-19.293-53.003c-.907-2.492-2.767-4.521-5.171-5.643l-10.777-5.025 8.456-18.133 10.774 5.022c7.268 3.393 12.781 9.409 15.523 16.939l99.123 272.336c-6.597 1.546-12.895 3.864-18.799 6.861l-52.476-144.175c-1.889-5.19-7.628-7.866-12.818-5.977-5.189 1.889-7.865 7.628-5.977 12.818l54.171 148.832c-17.868 15.476-29.206 38.303-29.206 63.741 0 46.505 37.835 84.339 84.339 84.339 46.088 0 83.639-37.165 84.308-83.097l161.896-58.919c5.022-1.828 9.029-5.504 11.284-10.349 2.257-4.84 2.491-10.27.665-15.286zm-429.389-283.405-48.941-22.823 8.452-18.123 48.945 22.816zm254.205 169.23-17.863-2.017c-6.191-.697-12.445 1.579-16.736 6.092l-12.387 13.026-11.58-31.817 46.985-17.101zm-77.36-7.875 11.58 31.817c2.385 6.553 7.885 11.315 14.712 12.738 1.381.288 2.766.429 4.137.429 5.41 0 10.606-2.194 14.439-6.226l12.386-13.026 17.862 2.017c6.929.779 13.643-2.022 17.957-7.5 4.314-5.479 5.466-12.662 3.081-19.215l-11.581-31.817 42.756-15.562 55.083 151.34-124.28 45.231c-15.222-17.574-37.56-28.808-62.495-29.172l-38.396-105.492zm-5.607 269.701c-35.476 0-64.339-28.862-64.339-64.339s28.862-64.339 64.339-64.339 64.339 28.862 64.339 64.339-28.862 64.339-64.339 64.339zm82.1-83.577c-1.546-6.597-3.864-12.895-6.861-18.798l157.277-57.238 6.848 18.803z"/><path d="m360.193 289.769c1.135 0 2.291-.195 3.419-.606l21.613-7.867c5.19-1.889 7.865-7.628 5.977-12.818-1.889-5.189-7.627-7.866-12.818-5.977l-21.613 7.867c-5.189 1.889-7.865 7.628-5.977 12.818 1.478 4.061 5.313 6.583 9.399 6.583z"/><path d="m342.863 338.643c1.135 0 2.291-.195 3.419-.606l52.623-19.153c5.19-1.889 7.866-7.628 5.977-12.817-1.889-5.19-7.625-7.867-12.818-5.977l-52.623 19.153c-5.19 1.889-7.866 7.628-5.977 12.818 1.479 4.061 5.314 6.582 9.399 6.582z"/><path d="m246.404 383.323c-24.448 0-44.338 19.89-44.338 44.339s19.89 44.338 44.338 44.338c24.449 0 44.339-19.89 44.339-44.338 0-24.45-19.89-44.339-44.339-44.339zm0 68.676c-13.42 0-24.338-10.918-24.338-24.338s10.918-24.338 24.338-24.338c13.421 0 24.339 10.918 24.339 24.338s-10.918 24.338-24.339 24.338z"/></g></g></svg>