<svg id="Capa_1" enable-background="new 0 0 512 512" height="512" viewBox="0 0 512 512" width="512" xmlns="http://www.w3.org/2000/svg"><g><g><path d="m402 252.97v-212.97c0-5.52-4.48-10-10-10h-372c-5.52 0-10 4.48-10 10v126.002 79.996 126.002c0 5.52 4.48 10 10 10h252.97z" fill="#ffd47c"/><path d="m146 30v93.859c0 7.424 7.805 12.26 14.453 8.954l41.094-20.436c2.805-1.395 6.101-1.395 8.906 0l41.094 20.436c6.648 3.306 14.453-1.53 14.453-8.954v-93.859z" fill="#ff6d8a"/><circle cx="387" cy="367" fill="#33d6f5" r="115"/><path d="m387 395.005c-25.249 0-45.717-20.468-45.717-45.717v-32.288c0-5.523 4.477-10 10-10h71.434c5.523 0 10 4.477 10 10v32.288c0 25.249-20.468 45.717-45.717 45.717z" fill="#fff"/></g><g><ellipse cx="10" cy="206" rx="10" ry="10" transform="matrix(.997 -.083 .083 .997 -16.957 1.527)"/><path d="m60.001 302h53c5.523 0 10-4.477 10-10s-4.477-10-10-10h-53c-5.523 0-10 4.477-10 10s4.477 10 10 10z"/><path d="m60.001 342h126c5.523 0 10-4.477 10-10s-4.477-10-10-10h-126c-5.523 0-10 4.477-10 10s4.477 10 10 10z"/><path d="m412 244.513v-204.513c0-11.028-8.972-20-20-20h-371.999c-11.028 0-20 8.972-20 20v126.002c0 5.523 4.477 10 10 10s10-4.477 10-10v-126.002h116v83.859c0 6.974 3.539 13.329 9.467 17.002 3.236 2.004 6.871 3.016 10.52 3.016 3.036 0 6.083-.7 8.918-2.11l41.095-20.436 41.094 20.436c6.243 3.106 13.51 2.767 19.438-.905 5.928-3.673 9.467-10.028 9.467-17.002v-83.86h116v202.108c-1.66-.066-3.325-.109-5-.109-68.925 0-125 56.075-125 125 0 1.675.043 3.341.109 5h-242.108v-126.001c0-5.523-4.477-10-10-10s-10 4.477-10 10v126.002c0 11.028 8.972 20 20 20h244.513c11.614 56.987 62.121 100 122.486 100 68.925 0 125-56.075 125-125 0-60.366-43.013-110.873-100-122.487zm-155.999-120.654-41.095-20.436c-5.576-2.772-12.233-2.772-17.81 0l-41.095 20.437v-83.86h100zm130.999 348.141c-57.897 0-105-47.103-105-105s47.103-105 105-105 105 47.103 105 105-47.103 105-105 105z"/><path d="m422.717 297h-71.433c-11.028 0-20 8.972-20 20v32.288c0 27.307 19.753 50.073 45.717 54.8v22.912h-12.858c-5.523 0-10 4.477-10 10s4.477 10 10 10h45.717c5.523 0 10-4.477 10-10s-4.477-10-10-10h-12.86v-22.912c25.964-4.727 45.717-27.493 45.717-54.8v-32.288c0-11.028-8.972-20-20-20zm0 52.288c0 19.694-16.022 35.717-35.717 35.717-19.694 0-35.717-16.023-35.717-35.717v-32.288h23.538l6.389 16.23-7.121 11.32c-2.94 4.675-1.535 10.848 3.141 13.789 1.654 1.04 3.495 1.537 5.315 1.537 3.323 0 6.574-1.656 8.474-4.677l7.121-11.32c3.373-5.362 4.001-12.082 1.681-17.976l-3.505-8.903h26.401z"/></g></g></svg>