<svg id="Capa_1" enable-background="new 0 0 512.001 512.001" height="512" viewBox="0 0 512.001 512.001" width="512" xmlns="http://www.w3.org/2000/svg"><g><g><path d="m462.001 93.501c0-5.52-4.48-10-10-10h-432c-5.52 0-10 4.48-10 10v60h452z" fill="#95e29a"/><path d="m10.001 153.501v270c0 5.52 4.48 10 10 10h312l130-113.08v-166.92z" fill="#e7f9e9"/><path d="m402.001 103.501h-25c-5.523 0-10-4.477-10-10v-32.5c0-12.426 10.074-22.5 22.5-22.5 12.426 0 22.5 10.074 22.5 22.5v32.5c0 5.522-4.477 10-10 10z" fill="#e7e9ef"/><path d="m299.668 103.501h-25c-5.523 0-10-4.477-10-10v-32.5c0-12.426 10.073-22.5 22.5-22.5 12.426 0 22.5 10.074 22.5 22.5v32.5c0 5.522-4.477 10-10 10z" fill="#e7e9ef"/><path d="m197.334 103.501h-25c-5.523 0-10-4.477-10-10v-32.5c0-12.426 10.074-22.5 22.5-22.5 12.426 0 22.5 10.074 22.5 22.5v32.5c0 5.522-4.477 10-10 10z" fill="#e7e9ef"/><path d="m95.001 103.501h-25c-5.523 0-10-4.477-10-10v-32.5c0-12.426 10.074-22.5 22.5-22.5 12.426 0 22.5 10.074 22.5 22.5v32.5c0 5.522-4.477 10-10 10z" fill="#e7e9ef"/><g fill="#fff"><path d="m261.001 266.585h-50c-5.523 0-10-4.477-10-10v-50c0-5.523 4.477-10 10-10h50c5.523 0 10 4.477 10 10v50c0 5.523-4.477 10-10 10z"/><path d="m392.001 266.585h-50c-5.523 0-10-4.477-10-10v-50c0-5.523 4.477-10 10-10h50c5.523 0 10 4.477 10 10v50c0 5.523-4.477 10-10 10z"/><path d="m130.001 266.585h-50c-5.523 0-10-4.477-10-10v-50c0-5.523 4.477-10 10-10h50c5.523 0 10 4.477 10 10v50c0 5.523-4.477 10-10 10z"/><path d="m261.001 390.416h-50c-5.523 0-10-4.477-10-10v-50c0-5.523 4.477-10 10-10h50c5.523 0 10 4.477 10 10v50c0 5.523-4.477 10-10 10z"/><path d="m130.001 390.416h-50c-5.523 0-10-4.477-10-10v-50c0-5.523 4.477-10 10-10h50c5.523 0 10 4.477 10 10v50c0 5.523-4.477 10-10 10z"/></g><path d="m342.001 473.501h150c5.523 0 10-4.477 10-10v-133.085c0-5.523-4.477-10-10-10h-150c-5.523 0-10 4.477-10 10v133.085c0 5.522 4.477 10 10 10z" fill="#ffd47c"/><path d="m392.001 320.416v47.832c0 4.039 4.542 6.411 7.857 4.103l14.286-9.946c1.717-1.196 3.997-1.196 5.714 0l14.286 9.946c3.315 2.308 7.857-.064 7.857-4.103v-47.832z" fill="#ff6d8a"/></g><g><circle cx="10" cy="293.501" r="10"/><path d="m211.001 276.585h50c11.028 0 20-8.972 20-20v-50c0-11.028-8.972-20-20-20h-50c-11.028 0-20 8.972-20 20v50c0 11.028 8.972 20 20 20zm0-70h50l.013 49.999s-.004.001-.013.001h-50z"/><path d="m342.001 276.585h50c11.028 0 20-8.972 20-20v-50c0-11.028-8.972-20-20-20h-50c-11.028 0-20 8.972-20 20v50c0 11.028 8.972 20 20 20zm0-70h50l.013 49.999s-.004.001-.013.001h-50z"/><path d="m80.001 276.585h50c11.028 0 20-8.972 20-20v-50c0-11.028-8.972-20-20-20h-50c-11.028 0-20 8.972-20 20v50c0 11.028 8.972 20 20 20zm0-70h50l.013 49.999s-.004.001-.013.001h-50z"/><path d="m191.001 380.416c0 11.028 8.972 20 20 20h50c11.028 0 20-8.972 20-20v-50c0-11.028-8.972-20-20-20h-50c-11.028 0-20 8.972-20 20zm20-50h50l.013 50s-.004 0-.013 0h-50z"/><path d="m60.001 380.416c0 11.028 8.972 20 20 20h50c11.028 0 20-8.972 20-20v-50c0-11.028-8.972-20-20-20h-50c-11.028 0-20 8.972-20 20zm20-50h50l.013 50s-.004 0-.013 0h-50z"/><path d="m492.001 310.416h-20v-216.915c0-11.028-8.972-20-20-20h-30v-12.5c0-17.92-14.58-32.5-32.5-32.5s-32.5 14.58-32.5 32.5v12.5h-37.334v-12.5c0-17.92-14.58-32.5-32.5-32.5s-32.5 14.58-32.5 32.5v12.5h-37.333v-12.5c0-17.92-14.58-32.5-32.5-32.5s-32.5 14.58-32.5 32.5v12.5h-37.333v-12.5c0-17.92-14.58-32.5-32.5-32.5s-32.5 14.58-32.5 32.5v12.5h-30c-11.028 0-20 8.972-20 20v160.002c0 5.523 4.477 10 10 10s10-4.477 10-10v-90.002h432v146.915h-110c-11.028 0-20 8.972-20 20v93.085h-302v-89.998c0-5.523-4.477-10-10-10s-10 4.477-10 10v89.998c0 11.028 8.972 20 20 20h302v20c0 11.028 8.972 20 20 20h150c11.028 0 20-8.972 20-20v-133.085c0-11.028-8.972-20-20-20zm-115-249.415c0-6.893 5.607-12.5 12.5-12.5s12.5 5.607 12.5 12.5l.013 32.5s-.004.001-.013.001h-25zm-102.333 0c0-6.893 5.607-12.5 12.5-12.5s12.5 5.607 12.5 12.5l.013 32.5s-.004.001-.013.001h-25zm-102.333 0c0-6.893 5.607-12.5 12.5-12.5s12.5 5.607 12.5 12.5l.013 32.5s-.004.001-.013.001h-25zm-102.334 0c0-6.893 5.607-12.5 12.5-12.5s12.5 5.607 12.5 12.5l.013 32.5s-.004.001-.013.001h-25zm-50 82.5v-50h30c0 11.028 8.972 20 20 20h25c11.028 0 20-8.972 20-20h37.333c0 11.028 8.972 20 20 20h25c11.028 0 20-8.972 20-20h37.333c0 11.028 8.972 20 20 20h25c11.028 0 20-8.972 20-20h37.334c0 11.028 8.972 20 20 20h25c11.028 0 20-8.972 20-20h30v50zm382 186.915h30v28.258l-6.43-4.477c-5.127-3.568-12.015-3.568-17.141.001l-6.429 4.476zm90 133.085h-150v-133.085h40v37.832c0 5.605 3.087 10.7 8.056 13.295s10.915 2.218 15.515-.985l11.429-7.957 11.43 7.958c2.57 1.79 5.56 2.697 8.564 2.697 2.374 0 4.757-.566 6.95-1.712 4.969-2.595 8.056-7.69 8.056-13.295v-37.832h40z"/><path d="m442.001 413.379h-50c-5.523 0-10 4.477-10 10s4.477 10 10 10h50c5.523 0 10-4.477 10-10s-4.477-10-10-10z"/></g></g></svg>