<svg id="Capa_1" enable-background="new 0 0 512 512" height="512" viewBox="0 0 512 512" width="512" xmlns="http://www.w3.org/2000/svg"><g><g><path d="m120 178.275s60.12-66.274 60-108.275c-.095-33.137-26.863-60-60-60s-59.905 26.863-60 60c-.12 42.001 60 108.275 60 108.275z" fill="#33d6f5"/><circle cx="120" cy="70" fill="#fff" r="20"/><path d="m292 502h150c5.523 0 10-4.477 10-10v-133.085c0-5.523-4.477-10-10-10h-150c-5.523 0-10 4.477-10 10v133.085c0 5.523 4.477 10 10 10z" fill="#ffd47c"/><path d="m342 348.915v47.832c0 4.039 4.542 6.411 7.857 4.103l14.286-9.946c1.717-1.195 3.997-1.195 5.714 0l14.286 9.946c3.315 2.308 7.857-.064 7.857-4.103v-47.832z" fill="#ff6d8a"/></g><g><path d="m112.748 185.147c1.859 1.977 4.535 3.135 7.252 3.129h83.499c5.523 0 10-4.477 10-10s-4.477-10-10-10h-62.053c18.512-23.306 48.646-66.189 48.554-98.304-.11-38.583-31.512-69.972-70-69.972s-69.89 31.389-70 69.971c-.046 45.553 60.016 112.177 62.748 115.176zm7.252-165.147c27.491 0 49.921 22.443 50 50.029.078 27.155-31.297 70.514-50 92.966-18.703-22.453-50.078-65.811-50-92.966.079-27.586 22.509-50.029 50-50.029z"/><path d="m150 70c0-16.542-13.458-30-30-30s-30 13.458-30 30 13.458 30 30 30 30-13.458 30-30zm-40 0c0-5.514 4.486-10 10-10s10 4.486 10 10-4.486 10-10 10-10-4.486-10-10z"/><path d="m442 338.915h-65.091c-1.379-22.287-19.94-40-42.569-40h-181.68c-12.495 0-22.66-10.165-22.66-22.66s10.165-22.66 22.66-22.66h181.68c23.522 0 42.66-19.137 42.66-42.66s-19.138-42.66-42.66-42.66h-50.841c-5.522 0-10 4.477-10 10s4.478 10 10 10h50.841c12.495 0 22.66 10.165 22.66 22.66s-10.165 22.66-22.66 22.66h-181.68c-23.523 0-42.66 19.137-42.66 42.66s19.138 42.66 42.66 42.66h181.68c11.595 0 21.177 8.755 22.499 20h-64.839c-11.028 0-20 8.972-20 20v133.085c0 11.028 8.972 20 20 20h150c11.028 0 20-8.972 20-20v-133.085c0-11.027-8.972-20-20-20zm-90 20h30v28.258l-6.43-4.476c-5.127-3.57-12.016-3.57-17.141-.001l-6.43 4.477v-28.258zm90 133.085h-150v-133.085h40v37.832c0 5.606 3.087 10.701 8.056 13.296 2.193 1.145 4.576 1.711 6.95 1.711 3.004 0 5.994-.908 8.564-2.697l11.43-7.958 11.43 7.958c4.602 3.203 10.545 3.58 15.515.985 4.969-2.595 8.056-7.69 8.056-13.296v-37.832h40v133.086z"/><path d="m392 441.878h-50c-5.522 0-10 4.477-10 10s4.478 10 10 10h50c5.523 0 10-4.477 10-10s-4.477-10-10-10z"/><circle cx="243.5" cy="178.274" r="10"/></g></g></svg>