<svg id="Capa_1" enable-background="new 0 0 511.973 511.973" height="512" viewBox="0 0 511.973 511.973" width="512" xmlns="http://www.w3.org/2000/svg"><g><g><path d="m472.787 274.197v-92.26c0-5.52-4.47-10-10-10h-180.36c-5.52 0-10 4.48-10 10v114.53c41.192-.002 82.385-.003 123.577-.005 25.594-7.422 51.188-14.844 76.783-22.265z" fill="#ff6d8a"/><path d="m198.846 274.199v-30c0-5.523-4.477-10-10-10h-153.574c-5.523 0-10 4.477-10 10v30z" fill="#b6bccf"/><path d="m178.846 234.199v-80c0-5.523-4.477-10-10-10h-113.574c-5.523 0-10 4.477-10 10v80z" fill="#e7e9ef"/><path d="m147.059 144.199v-30c0-5.523-4.477-10-10-10h-50c-5.523 0-10 4.477-10 10v30z" fill="#b6bccf"/><path d="m490.847 274.199h-84.843v12.262c0 5.523-4.477 10-10 10h-167.592c-4.47 0-8.507-2.674-10.25-6.79l-3.677-8.681c-1.743-4.117-5.78-6.791-10.25-6.791h-183.109c-7.598 0-12.963 7.443-10.56 14.651l15.872 47.616h459.096l15.872-47.616c2.404-7.207-2.961-14.651-10.559-14.651z" fill="#e7e9ef"/><path d="m36.532 366.748c8.167 24.501 31.095 41.026 56.921 41.026h325.067c25.826 0 48.754-16.526 56.921-41.026l10.094-30.281h-459.097z" fill="#b6bccf"/></g><g><path d="m507.99 272.975c-3.961-5.495-10.369-8.775-17.142-8.775h-8.061v-82.263c0-11.028-8.972-20-20-20h-180.36c-11.028 0-20 8.972-20 20v104.525h-34.014c-.455 0-.864-.271-1.041-.69l-3.677-8.683c-2.703-6.381-8.276-10.92-14.848-12.382v-20.507c0-11.028-8.972-20-20-20v-70c0-11.028-8.972-20-20-20h-11.788v-20c0-11.028-8.972-20-20-20h-50c-11.028 0-20 8.972-20 20v20h-11.787c-11.028 0-20 8.972-20 20v70c-11.028 0-20 8.972-20 20v20.839c-4.491 1.301-8.498 4.066-11.288 7.936-3.96 5.495-5.046 12.612-2.904 19.038l25.966 77.897c9.543 28.629 36.23 47.864 66.408 47.864h122.534c5.523 0 10-4.477 10-10s-4.477-10-10-10h-122.535c-21.555 0-40.618-13.739-47.434-34.188l-5.706-17.119h431.348l-5.706 17.119c-6.816 20.449-25.879 34.188-47.434 34.188h-122.534c-5.523 0-10 4.477-10 10s4.477 10 10 10h122.533c30.177 0 56.865-19.235 66.408-47.864l25.966-77.897c2.142-6.426 1.056-13.543-2.904-19.038zm-91.986-8.776v-20h46.782v20zm-20-19.999v42.262h-46.788v-42.262zm-46.787-20v-42.263h46.788v42.263zm113.569 0h-46.782v-42.263h46.782zm-133.569-42.263v42.263h-46.79v-42.263zm-46.791 62.263h46.79v42.262h-46.79zm-195.367-130h50v20h-50zm-31.787 40h113.575v70h-113.575zm133.574 90v20h-153.574v-20zm303.074 41.488-13.593 40.778h-444.681l-13.593-40.778c-.045-.136-.183-.549.156-1.019.338-.47.774-.47.917-.47h183.11c.455 0 .864.271 1.042.689l3.676 8.682c3.316 7.831 10.955 12.891 19.458 12.891h167.592c11.028 0 20-8.972 20-20v-2.262h74.843c.143 0 .579 0 .917.47.339.47.202.883.156 1.019z"/><circle cx="132.059" cy="189.199" r="10"/><circle cx="92.059" cy="189.199" r="10"/><circle cx="255.987" cy="407.773" r="10"/></g></g></svg>