<svg id="Capa_1" enable-background="new 0 0 512 512" height="512" viewBox="0 0 512 512" width="512" xmlns="http://www.w3.org/2000/svg"><g><g><path d="m374 456.001h-236c-5.523 0-10-4.477-10-10 0-16.569 13.431-30 30-30h196c16.569 0 30 13.431 30 30 0 5.522-4.477 10-10 10z" fill="#e7e9ef"/><path d="m206 366.001h100v50h-100z" fill="#e7e9ef"/><path d="m10 316.001v40c0 5.523 4.477 10 10 10h472c5.523 0 10-4.477 10-10v-40z" fill="#b6bccf"/><path d="m502 66.001c0-5.523-4.477-10-10-10h-472c-5.523 0-10 4.477-10 10v250h492z" fill="#fff"/><path d="m282 262.543h150c5.523 0 10-4.477 10-10v-133.085c0-5.523-4.477-10-10-10h-150c-5.523 0-10 4.477-10 10v133.085c0 5.523 4.477 10 10 10z" fill="#ffd47c"/><path d="m332 109.458v47.832c0 4.039 4.542 6.411 7.857 4.104l14.286-9.946c1.717-1.195 3.997-1.195 5.714 0l14.286 9.946c3.315 2.308 7.857-.064 7.857-4.104v-47.832z" fill="#ff6d8a"/></g><g><path d="m492 46.001h-196c-5.522 0-10 4.477-10 10s4.478 10 10 10h196v240h-472v-240h196c5.523 0 10-4.477 10-10s-4.477-10-10-10h-196c-11.028 0-20 8.972-20 20v290c0 11.028 8.972 20 20 20h176v30h-38c-22.056 0-40 17.944-40 40 0 11.028 8.972 20 20 20h236c11.028 0 20-8.972 20-20 0-22.056-17.944-40-40-40h-38v-30h176c11.028 0 20-8.972 20-20v-290c0-11.028-8.972-20-20-20zm-117.987 399.999s-.004.001-.013.001h-236c0-11.028 8.972-20 20-20h196c11.028 0 20 8.972 20.013 19.999zm-78.013-39.999h-80v-30h80zm-276-50v-30h472v30z"/><circle cx="256" cy="55.999" r="10"/><path d="m262 252.543c0 11.028 8.972 20 20 20h150c11.028 0 20-8.972 20-20v-133.085c0-11.028-8.972-20-20-20h-150c-11.028 0-20 8.972-20 20zm80-133.085h30v28.259l-6.43-4.476c-5.126-3.57-12.015-3.57-17.141-.001l-6.43 4.477v-28.259zm-60 0h40v37.832c0 5.606 3.087 10.701 8.057 13.296 2.193 1.145 4.575 1.712 6.949 1.712 3.005 0 5.994-.908 8.564-2.697l11.43-7.957 11.429 7.956c4.6 3.204 10.545 3.583 15.515.987 4.97-2.595 8.057-7.69 8.057-13.296v-37.832h40v133.085h-150.001z"/><path d="m382 202.421h-50c-5.522 0-10 4.477-10 10s4.478 10 10 10h50c5.522 0 10-4.477 10-10s-4.478-10-10-10z"/><path d="m212 156.001h-142c-5.523 0-10 4.477-10 10s4.477 10 10 10h142c5.523 0 10-4.477 10-10s-4.477-10-10-10z"/><path d="m70 256.001h142c5.523 0 10-4.477 10-10s-4.477-10-10-10h-142c-5.523 0-10 4.477-10 10 0 5.522 4.477 10 10 10z"/><path d="m70 136.001h62c5.523 0 10-4.477 10-10s-4.477-10-10-10h-62c-5.523 0-10 4.477-10 10 0 5.522 4.477 10 10 10z"/><path d="m70 216.001h62c5.523 0 10-4.477 10-10s-4.477-10-10-10h-62c-5.523 0-10 4.477-10 10 0 5.522 4.477 10 10 10z"/></g></g></svg>