<svg id="Capa_1" enable-background="new 0 0 512 512" height="512" viewBox="0 0 512 512" width="512" xmlns="http://www.w3.org/2000/svg"><g><g><path d="m111 472c0 16.568 13.432 30 30 30h230c16.569 0 30-13.432 30-30v-50h-290z" fill="#33d6f5"/><path d="m401 40c0-16.569-13.431-30-30-30h-230c-16.568 0-30 13.431-30 30v50h290z" fill="#33d6f5"/><path d="m111 90h290v332h-290z" fill="#fff"/><path d="m296 206.333v16c0 22.091-17.909 40-40 40-22.091 0-40-17.909-40-40v-16c0-22.091 17.909-40 40-40 22.091 0 40 17.909 40 40z" fill="#ffd0c7"/><path d="m337.667 312.333v23.333c0 5.523-4.477 10-10 10h-143.334c-5.523 0-10-4.477-10-10v-23.333c0-27.614 22.386-50 50-50h63.333c27.615 0 50.001 22.386 50.001 50z" fill="#95e29a"/></g><g><path d="m371 0h-230c-22.056 0-40 17.944-40 40v432c0 22.056 17.944 40 40 40h74.998c5.522 0 10-4.477 10-10s-4.478-10-10-10h-74.998c-11.028 0-20-8.972-20-20v-40h270v40c0 11.028-8.972 20-20 20h-75.002c-5.522 0-10 4.477-10 10s4.478 10 10 10h75.002c22.056 0 40-17.944 40-40v-432c0-22.056-17.944-40-40-40zm-230 20h230c11.028 0 20 8.972 20 20v40h-270v-40c0-11.028 8.972-20 20-20zm-20 392v-312h270v312z"/><path d="m295.552 252.868c6.541-8.453 10.448-19.043 10.448-30.535v-16c0-27.57-22.43-50-50-50s-50 22.43-50 50v16c0 11.491 3.906 22.081 10.447 30.535-29.368 3.875-52.115 29.056-52.115 59.465v23.333c0 11.028 8.972 20 20 20h143.334c11.028 0 20-8.972 20-20v-23.333c.001-30.409-22.745-55.59-52.114-59.465zm-69.552-46.535c0-16.542 13.458-30 30-30s30 13.458 30 30v16c0 16.542-13.458 30-30 30s-30-13.458-30-30zm101.667 129.334h-20v-21.667c0-5.523-4.477-10-10-10-5.522 0-10 4.477-10 10v21.667h-63.334v-21.667c0-5.523-4.477-10-10-10-5.522 0-10 4.477-10 10v21.667h-20v-23.333c0-22.056 17.944-40 40-40h63.334c22.056 0 40 17.944 40 40z"/><path d="m306 462c0-5.523-4.478-10-10-10h-80c-5.523 0-10 4.477-10 10s4.477 10 10 10h80c5.522 0 10-4.477 10-10z"/><path d="m256 60h40c5.522 0 10-4.477 10-10s-4.478-10-10-10h-40c-5.523 0-10 4.477-10 10s4.477 10 10 10z"/><circle cx="256" cy="502" r="10"/><circle cx="216" cy="50" r="10"/><path d="m448.071 220.649c-3.906-3.905-10.238-3.905-14.143.001-3.905 3.905-3.905 10.237 0 14.142 5.669 5.669 8.791 13.2 8.791 21.208s-3.122 15.54-8.791 21.208c-3.905 3.905-3.905 10.237 0 14.142 1.953 1.953 4.512 2.929 7.071 2.929s5.118-.977 7.071-2.929c9.446-9.446 14.648-22.001 14.648-35.351.002-13.35-5.2-25.904-14.647-35.35z"/><path d="m476.363 192.362c-3.902-3.908-10.235-3.909-14.142-.005s-3.909 10.236-.005 14.142c13.223 13.231 20.504 30.811 20.504 49.501s-7.281 36.27-20.503 49.501c-3.904 3.906-3.902 10.238.005 14.142 1.952 1.951 4.51 2.926 7.068 2.926 2.561 0 5.121-.978 7.073-2.932 16.996-17.007 26.357-39.607 26.357-63.637s-9.361-46.63-26.357-63.638z"/><path d="m78.071 220.649c-3.905-3.905-10.235-3.905-14.143-.001-9.446 9.447-14.648 22.001-14.648 35.352s5.202 25.905 14.648 35.351c1.953 1.953 4.512 2.929 7.071 2.929s5.119-.977 7.071-2.929c3.905-3.905 3.905-10.237 0-14.142-5.669-5.668-8.791-13.2-8.791-21.208s3.122-15.54 8.791-21.208c3.907-3.907 3.907-10.238.001-14.144z"/><path d="m29.28 256c0-18.69 7.281-36.27 20.503-49.501 3.904-3.906 3.902-10.238-.005-14.142-3.905-3.903-10.238-3.901-14.142.005-16.995 17.008-26.356 39.608-26.356 63.638s9.36 46.63 26.356 63.638c1.952 1.955 4.513 2.932 7.073 2.932 2.558 0 5.116-.976 7.068-2.926 3.907-3.904 3.909-10.236.005-14.142-13.22-13.232-20.502-30.812-20.502-49.502z"/></g></g></svg>