<svg id="Capa_1" enable-background="new 0 0 512 512" height="512" viewBox="0 0 512 512" width="512" xmlns="http://www.w3.org/2000/svg"><g><g><path d="m111 472c0 16.568 13.432 30 30 30h230c16.568 0 30-13.432 30-30v-50h-290z" fill="#33d6f5"/><path d="m111 90h290v332h-290z" fill="#fff"/><path d="m401 40c0-16.569-13.432-30-30-30h-230c-16.568 0-30 13.431-30 30v50h290z" fill="#33d6f5"/><path d="m199.873 236.564c0-30.998 25.129-56.127 56.127-56.127s56.127 25.129 56.127 56.127z" fill="#b6bccf"/></g><g><path d="m411 40c0-22.056-17.944-40-40-40h-230c-22.056 0-40 17.944-40 40v432c0 22.056 17.944 40 40 40h230c22.056 0 40-17.944 40-40v-176.002c0-5.523-4.478-10-10-10s-10 4.477-10 10v116.002h-270v-312h270v116.002c0 5.523 4.478 10 10 10s10-4.477 10-10zm-20 392v40c0 11.028-8.972 20-20 20h-230c-11.028 0-20-8.972-20-20v-40zm-270-352v-40c0-11.028 8.972-20 20-20h230c11.028 0 20 8.972 20 20v40z"/><path d="m216 472h80c5.522 0 10-4.477 10-10s-4.478-10-10-10h-80c-5.523 0-10 4.477-10 10s4.477 10 10 10z"/><path d="m296 40h-40c-5.523 0-10 4.477-10 10s4.477 10 10 10h40c5.522 0 10-4.477 10-10s-4.478-10-10-10z"/><circle cx="216" cy="50" r="10"/><circle cx="401" cy="256" r="10"/><path d="m256 155.436c-5.523 0-10 4.477-10 10v5.756c-28.473 4.337-51.033 26.899-55.371 55.371h-5.756c-5.522 0-10 4.477-10 10s4.478 10 10 10h142.254c5.522 0 10-4.477 10-10s-4.478-10-10-10h-5.756c-4.337-28.472-26.898-51.034-55.371-55.371v-5.756c0-5.522-4.478-10-10-10zm45.023 71.128h-90.045c4.581-20.641 23.022-36.128 45.022-36.128s40.441 15.487 45.023 36.128z"/><path d="m199.873 296.564c-5.522 0-10 4.477-10 10s4.478 10 10 10h112.254c5.522 0 10-4.477 10-10s-4.478-10-10-10z"/><path d="m151 346.564c0 5.523 4.477 10 10 10h190c5.522 0 10-4.477 10-10s-4.478-10-10-10h-190c-5.523 0-10 4.476-10 10z"/></g></g></svg>