<svg id="Capa_1" enable-background="new 0 0 512 512" height="512" viewBox="0 0 512 512" width="512" xmlns="http://www.w3.org/2000/svg"><g><g><path d="m262.359 288.471 233.19-192.151c-3.565-3.291-8.315-5.319-13.549-5.319h-452c-5.235 0-9.984 2.027-13.549 5.319l233.19 192.151c3.693 3.043 9.025 3.043 12.718 0z" fill="#ffd47c"/><path d="m16.451 96.319c-3.958 3.655-6.451 8.871-6.451 14.682v290c0 5.811 2.493 11.027 6.451 14.681l193.787-159.68z" fill="#ffecc7"/><path d="m502 401.001v-290c0-5.811-2.493-11.027-6.451-14.681l-193.787 159.682 193.787 159.68c3.958-3.655 6.451-8.87 6.451-14.681z" fill="#ffecc7"/><path d="m262.359 288.471c-3.694 3.043-9.025 3.043-12.719 0l-39.403-32.468-193.786 159.679c3.565 3.292 8.315 5.319 13.549 5.319h452c5.235 0 9.984-2.027 13.549-5.319l-193.787-159.68z" fill="#ffd47c"/></g><g><path d="m482 81.001h-186c-5.522 0-10 4.478-10 10s4.478 10 10 10h178.142l-218.142 179.752-218.142-179.752h178.142c5.523 0 10-4.478 10-10s-4.477-10-10-10h-186c-16.542 0-30 13.458-30 30v290c0 16.542 13.458 30 30 30h452c16.542 0 30-13.458 30-30v-290c0-16.542-13.458-30-30-30zm-164.513 175.001 174.513-143.801v287.599zm-61.487 44.741c4.517 0 9.034-1.519 12.719-4.555l33.043-27.228 172.38 142.04h-436.284l172.381-142.04 33.042 27.227c3.685 3.037 8.201 4.556 12.719 4.556zm-61.487-44.741-174.513 143.798v-287.598z"/><circle cx="256" cy="90.999" r="10"/></g></g></svg>