<svg id="Capa_1" enable-background="new 0 0 512 512" height="512" viewBox="0 0 512 512" width="512" xmlns="http://www.w3.org/2000/svg"><g><g><path d="m332 356.667v-220c0-5.523 4.477-10 10-10h82.19c10.98 0 21.08 6 26.34 15.63l45.36 83.18c4.01 7.34 6.11 15.57 6.11 23.94v97.25c0 5.523-4.477 10-10 10z" fill="#ff6d8a"/><path d="m500.34 236.667h-108.34c-5.523 0-10-4.477-10-10v-50c0-5.523 4.477-10 10-10h71.81.01z" fill="#fff"/><path d="m502 316.667h-20c-11.046 0-20-8.954-20-20 0-11.046 8.954-20 20-20h20z" fill="#ffd47c"/><path d="m332 356.667v-65h-312c-5.523 0-10 4.477-10 10v45c0 5.523 4.477 10 10 10z" fill="#e7e9ef"/><g fill="#ffd47c"><path d="m40 191c-5.523 0-10 4.477-10 10v90.667h100.667v-100.667z"/><path d="m332 191h-100.667v100.667h100.667c0-33.556 0-67.112 0-100.667z"/><path d="m130.667 191v100.667h100.667v-100.667z"/><path d="m90.333 90.333c-5.523 0-10 4.477-10 10v90.667h100.667v-100.667z"/><path d="m281.667 100.333c0-5.523-4.477-10-10-10h-90.667v100.667h100.667z"/></g><circle cx="415" cy="376.667" fill="#b6bccf" r="45"/><circle cx="116.229" cy="376.667" fill="#b6bccf" r="45"/></g><g><path d="m504.669 220.689-45.362-83.186c-7.021-12.853-20.477-20.836-35.116-20.836h-82.191c-11.028 0-20 8.972-20 20v44.333h-30.333v-80.667c0-11.028-8.972-20-20-20h-181.334c-11.028 0-20 8.972-20 20v80.667h-30.333c-11.028 0-20 8.972-20 20v80.667c-11.028 0-20 8.972-20 20v45c0 11.028 8.972 20 20 20h42.157c-.599 3.245-.928 6.584-.928 10 0 30.327 24.673 55 55 55s55-24.673 55-55c0-3.416-.329-6.755-.928-10h33.974c5.522 0 10-4.477 10-10 0-5.522-4.478-10-10-10h-41.984c-9.827-15.036-26.798-25-46.062-25s-36.236 9.964-46.062 25h-50.167v-45h302v45h-37.725c-5.522 0-10 4.478-10 10 0 5.523 4.478 10 10 10h76.652c-.599 3.245-.928 6.584-.928 10 0 30.327 24.673 55 55 55s55-24.673 55-55c0-3.416-.329-6.755-.928-10h22.929c11.028 0 20-8.972 20-20v-97.25c0-10.018-2.536-19.954-7.331-28.728zm-388.44 120.978c19.299 0 35 15.701 35 35s-15.701 35-35 35-35-15.701-35-35 15.702-35 35-35zm368.92-115h-93.149v-50h65.883zm-213.482-45.667h-80.667v-80.667h30.333v10c0 5.522 4.478 10 10 10 5.523 0 10-4.478 10-10v-10h30.334zm-100.667 20v10c0 5.523 4.477 10 10 10s10-4.477 10-10v-10h30.333v80.667h-80.666v-80.667zm-50.333-100.667v10c0 5.522 4.478 10 10 10s10-4.478 10-10v-10h30.333v80.667h-80.667v-80.667zm-80.667 100.667h30.333v10c0 5.523 4.478 10 10 10s10-4.477 10-10v-10h30.334v80.667h-80.667zm201.333 80.667v-80.667h30.334v10c0 5.523 4.478 10 10 10 5.523 0 10-4.477 10-10v-10h30.333v80.667zm173.667 130c-19.299 0-35-15.701-35-35s15.701-35 35-35 35 15.701 35 35-15.701 35-35 35zm46.062-65c-9.827-15.036-26.798-25-46.062-25s-36.236 9.964-46.062 25h-26.938v-210h82.19c7.321 0 14.052 3.994 17.561 10.417l5.226 9.583h-54.977c-11.028 0-20 8.972-20 20v50c0 11.028 8.972 20 20 20h99.897c.198 1.416.068 18.145.103 20h-10c-16.542 0-30 13.458-30 30s13.458 30 30 30h10v20zm30.938-60v20h-10c-5.514 0-10-4.486-10-10s4.486-10 10-10z"/><path d="m392.478 274.167h-10.478c-5.522 0-10 4.478-10 10 0 5.523 4.478 10 10 10h10.478c5.522 0 10-4.477 10-10 0-5.522-4.478-10-10-10z"/><path d="m171 261.333h20c5.523 0 10-4.478 10-10s-4.477-10-10-10h-20c-5.523 0-10 4.478-10 10s4.477 10 10 10z"/><path d="m291.667 241.333h-20c-5.522 0-10 4.478-10 10 0 5.523 4.478 10 10 10h20c5.523 0 10-4.478 10-10s-4.477-10-10-10z"/><path d="m90.333 241.333h-20c-5.522 0-10 4.478-10 10 0 5.523 4.478 10 10 10h20c5.522 0 10-4.478 10-10s-4.478-10-10-10z"/><path d="m241.333 140.666h-20c-5.522 0-10 4.478-10 10 0 5.523 4.478 10 10 10h20c5.523 0 10-4.477 10-10 0-5.522-4.478-10-10-10z"/><path d="m120.667 160.666h20c5.522 0 10-4.477 10-10 0-5.522-4.478-10-10-10h-20c-5.522 0-10 4.478-10 10 0 5.523 4.478 10 10 10z"/><circle cx="244.275" cy="356.666" r="10"/><circle cx="116.229" cy="376.667" r="10"/><circle cx="415" cy="376.667" r="10"/></g></g></svg>