<svg id="Capa_1" enable-background="new 0 0 512 512" height="512" viewBox="0 0 512 512" width="512" xmlns="http://www.w3.org/2000/svg"><g><g><path d="m10 80v335.858c0 2.652 1.054 5.196 2.929 7.071l76.142 76.142c1.875 1.875 4.419 2.929 7.071 2.929h319.716c2.652 0 5.196-1.054 7.071-2.929l76.142-76.142c1.875-1.875 2.929-4.419 2.929-7.071v-335.858z" fill="#95e29a"/><path d="m181 502v-40c0-5.523 4.477-10 10-10h130c5.523 0 10 4.477 10 10v40z" fill="#ffecc7"/><path d="m146.49 197.85 100.58 199.36c3.7 7.33 14.16 7.33 17.86 0l100.58-199.36c-21.692-9.214-58.717-21.723-106.114-22.297-50.994-.618-90.684 12.861-112.906 22.297z" fill="#ffecc7"/><g fill="#ff6d8a"><path d="m312.181 303.553c-3.698-1.86-7.17-4.342-10.26-7.432-15.627-15.627-15.62-40.949 0-56.569 12.53-12.53 31.304-15.012 46.301-7.439z"/><path d="m192.27 288.605c15.005-7.58 33.771-5.105 46.309 7.432 15.62 15.62 15.62 40.949 0 56.569-3.09 3.09-6.562 5.572-10.267 7.439z"/><path d="m275.01 176.2c5.49 14.3 2.47 31.12-9.06 42.64-15.62 15.62-40.95 15.62-56.57 0-10.11-10.11-13.67-24.3-10.68-37.29 11.19-2.375 24.22-4.413 38.8-5.391 13.899-.932 26.515-.72 37.51.041z"/></g><path d="m118.953 184.434c4.884 11.791 18.401 17.39 30.193 12.506 68.909-28.543 144.806-28.545 213.709-.003 11.791 4.884 25.308-.715 30.192-12.506s-.714-25.309-12.505-30.193c-80.309-33.265-168.769-33.264-249.083.004-11.791 4.884-17.39 18.401-12.506 30.192z" fill="#ffd47c"/><path d="m502 20c0-5.523-4.477-10-10-10h-472c-5.523 0-10 4.477-10 10v60h492z" fill="#ffd47c"/></g><g><path d="m491.999.002h-195.999c-5.523 0-10 4.477-10 10s4.477 10 10 10h195.999v50h-471.998v-50h195.999c5.523 0 10-4.477 10-10 0-5.522-4.477-10-10-10h-195.999c-11.028 0-20 8.972-20 20v395.856c0 5.343 2.08 10.365 5.857 14.143l76.142 76.142c3.778 3.777 8.8 5.857 14.142 5.857h319.715c5.342 0 10.365-2.08 14.142-5.857l76.143-76.143c3.777-3.777 5.857-8.8 5.857-14.143v-395.856c0-11.028-8.972-19.999-20-19.999zm-170.999 491.998h-130v-30h130zm94.857 0h-74.857v-30c0-11.028-8.972-20-20-20h-130c-11.028 0-20 8.972-20 20v30h-74.857l-76.142-76.142v-325.857h471.999v325.857z"/><circle cx="256" cy="10" r="10"/><path d="m402.285 188.259c3.384-8.171 3.385-17.17.001-25.34-3.384-8.171-9.748-14.534-17.918-17.919-82.777-34.287-173.955-34.285-256.736.004-16.866 6.986-24.905 26.391-17.918 43.259 5.276 12.736 17.632 20.438 30.632 20.438.137 0 .275-.008.413-.01l97.384 193.027c3.422 6.779 10.265 10.991 17.857 10.991s14.435-4.212 17.858-10.994l97.386-193.03c13.147.163 25.71-7.556 31.041-20.426zm-274.093-7.651c-2.765-6.678.417-14.36 7.094-17.126 77.845-32.246 163.586-32.248 241.429-.004 3.234 1.34 5.754 3.858 7.093 7.093 1.34 3.235 1.34 6.798 0 10.033-2.766 6.679-10.45 9.861-17.126 7.096-71.371-29.565-149.985-29.563-221.363.002-6.679 2.767-14.361-.416-17.127-7.094zm130.687 31.161c-11.697 11.697-30.73 11.697-42.428 0-5.862-5.861-8.941-13.698-8.768-21.785 19.717-3.637 39.685-5.037 59.597-4.191 1.503 9.385-1.513 19.096-8.401 25.976zm-26.92 133.29-25.475-50.494c9.029-1.163 18.301 1.823 25.022 8.544 11.542 11.541 11.688 30.219.453 41.95zm24.039 47.646-14.706-29.15c1.52-1.203 2.975-2.496 4.358-3.878 19.495-19.495 19.495-51.216 0-70.711-12.896-12.895-31.433-17.577-48.499-12.903l-36.741-72.824c9.033-3.438 18.18-6.368 27.406-8.804.886 11.73 5.892 22.877 14.493 31.477 9.749 9.749 22.552 14.623 35.357 14.622 12.802-.001 25.607-4.874 35.352-14.619 10.305-10.296 15.418-24.394 14.544-38.486 21.679 2.591 43.157 7.86 64.03 15.806l-8.244 16.341c-17.066-4.671-35.602.01-48.497 12.907-9.444 9.443-14.645 21.998-14.647 35.351-.001 13.355 5.201 25.913 14.646 35.359 1.382 1.382 2.837 2.673 4.355 3.875zm52.538-104.132c-5.375-5.611-8.334-12.945-8.333-20.736.001-8.012 3.122-15.545 8.789-21.211 6.721-6.721 15.993-9.709 25.021-8.548z"/><path d="m461.999 256.001h-66c-5.523 0-10 4.478-10 10s4.477 10 10 10h66c5.523 0 10-4.478 10-10s-4.477-10-10-10z"/><path d="m116 256.001h-66c-5.523 0-10 4.478-10 10s4.477 10 10 10h66c5.523 0 10-4.478 10-10s-4.477-10-10-10z"/></g></g></svg>