<svg id="Capa_1" enable-background="new 0 0 512.002 512.002" height="512" viewBox="0 0 512.002 512.002" width="512" xmlns="http://www.w3.org/2000/svg"><g><g><path d="m407.199 329.269c39.52 28.05 78.15 55.95 84.52 62.33 13.71 13.7 13.71 35.92 0 49.62-13.7 13.71-35.92 13.71-49.62 0-6.38-6.37-34.28-45-62.33-84.52z" fill="#e7e9ef"/><circle cx="326.999" cy="276.499" fill="#b6bccf" r="96"/><circle cx="326.999" cy="276.499" fill="#fff" r="56"/></g><g><path d="m67.5 50.5h-47.5c-11.028 0-20 8.972-20 20v47.5c0 5.522 4.477 10 10 10s10-4.478 10-10v-47.5h47.5c5.522 0 10-4.478 10-10s-4.478-10-10-10z"/><path d="m67.5 352.5h-47.5v-47.5c0-5.522-4.477-10-10-10s-10 4.478-10 10v47.5c0 11.028 8.972 20 20 20h47.5c5.522 0 10-4.478 10-10s-4.478-10-10-10z"/><path d="m355.5 70.5h47.5v47.5c0 5.522 4.478 10 10 10s10-4.478 10-10v-47.5c0-11.028-8.972-20-20-20h-47.5c-5.522 0-10 4.478-10 10s4.478 10 10 10z"/><path d="m180.5 96.5c-5.523 0-10 4.478-10 10v210c0 5.522 4.477 10 10 10s10-4.478 10-10v-210c0-5.522-4.477-10-10-10z"/><path d="m118.5 96.5c-5.522 0-10 4.478-10 10v210c0 5.522 4.478 10 10 10s10-4.478 10-10v-210c0-5.522-4.478-10-10-10z"/><path d="m46.5 316.5c0 5.522 4.478 10 10 10s10-4.478 10-10v-64.998c0-5.522-4.478-10-10-10s-10 4.478-10 10z"/><path d="m56.5 181.498c5.522 0 10-4.478 10-10v-64.998c0-5.522-4.478-10-10-10s-10 4.478-10 10v64.998c0 5.522 4.478 10 10 10z"/><circle cx="56.5" cy="211.5" r="10"/><path d="m498.796 384.534c-3.56-3.566-15.675-13.534-78.319-58.098 7.986-14.888 12.523-31.891 12.523-49.936 0-40.579-22.925-75.9-56.5-93.708v-76.292c0-5.522-4.478-10-10-10s-10 4.478-10 10v68.181c-9.369-2.719-19.266-4.181-29.5-4.181-4.229 0-8.399.257-12.5.741v-64.741c0-5.522-4.478-10-10-10s-10 4.478-10 10v69.104c-15.986 5.162-30.324 14.021-42 25.57v-94.674c0-5.522-4.477-10-10-10s-10 4.478-10 10v122.013c-7.35 14.417-11.5 30.726-11.5 47.987 0 58.448 47.552 106 106 106 18.045 0 35.048-4.537 49.936-12.523 44.564 62.644 54.531 74.759 58.09 78.311 8.515 8.522 19.838 13.214 31.883 13.214 12.046 0 23.369-4.692 31.879-13.209 8.522-8.515 13.214-19.838 13.214-31.884 0-12.045-4.692-23.368-13.206-31.875zm-257.796-108.034c0-47.421 38.579-86 86-86s86 38.579 86 86-38.579 86-86 86-86-38.579-86-86zm243.647 157.651c-4.737 4.74-11.036 7.351-17.737 7.351-6.7 0-12.999-2.61-17.744-7.358-2.659-2.655-13.469-16.086-55.565-75.245 5.802-4.699 11.1-9.996 15.799-15.798 59.159 42.097 72.59 52.907 75.253 55.573 4.74 4.737 7.351 11.036 7.351 17.736-.002 6.7-2.612 12.999-7.357 17.741z"/><path d="m327 210.5c-36.393 0-66 29.607-66 66s29.607 66 66 66 66-29.607 66-66-29.607-66-66-66zm0 112c-25.364 0-46-20.636-46-46s20.636-46 46-46 46 20.636 46 46-20.636 46-46 46z"/></g></g></svg>