<svg id="Capa_1" enable-background="new 0 0 512.005 512.005" height="512" viewBox="0 0 512.005 512.005" width="512" xmlns="http://www.w3.org/2000/svg"><g><g><path d="m80.252 211.84-62.25 12.73c-4.66.95-8 5.05-8 9.8v255.59c0 6.32 5.8 11.06 12 9.79l109-22.28c.66-.135 1.33-.202 2-.202v-264.509z" fill="#e7f9e9"/><path d="m133.002 212.759v264.509c.67 0 1.34.067 2 .202l119 24.33c.66.135 1.33.202 2 .202v-287.1z" fill="#95e29a"/><path d="m377.002 201.47-70.02 14.32-50.98-.888v287.101c.67 0 1.34-.067 2-.202l119-24.33c.66-.135 1.33-.202 2-.202v-276c-.669-.001-1.339.066-2 .201z" fill="#e7f9e9"/><path d="m494.002 224.57-113-23.1c-.66-.135-1.33-.202-2-.202v276c.67 0 1.34.067 2 .202l109 22.28c6.2 1.27 12-3.47 12-9.79v-255.59c0-4.75-3.34-8.85-8-9.8z" fill="#95e29a"/><path d="m186.925 371.361c3.992 4.639 11.164 4.639 15.155 0 28.079-32.629 124.574-150.518 124.348-229.435-.208-72.86-59.065-131.926-131.926-131.926s-131.718 59.066-131.926 131.926c-.225 78.917 96.269 196.806 124.349 229.435z" fill="#33d6f5"/><ellipse cx="194.502" cy="141.927" fill="#fff" rx="91.926" ry="91.926" transform="matrix(.707 -.707 .707 .707 -43.389 179.103)"/><path d="m224.502 184.053h-60c-5.523 0-10-4.477-10-10v-60c0-5.523 4.477-10 10-10h60c5.523 0 10 4.477 10 10v60c0 5.523-4.477 10-10 10z" fill="#ffd47c"/></g><g><path d="m512.002 234.37c0-9.468-6.73-17.71-15.997-19.598l-113.003-23.101c-2.654-.541-5.346-.542-8.004.001l-51.482 10.529c8.632-22.582 12.962-42.738 12.912-60.304-.108-37.92-14.897-73.55-41.643-100.324-26.78-26.808-62.394-41.573-100.283-41.573s-73.502 14.765-100.283 41.573c-26.745 26.775-41.534 62.404-41.643 100.324-.052 18.152 4.575 39.072 13.792 62.575l-50.363 10.299c-9.272 1.889-16.003 10.131-16.003 19.599v255.59c0 6.03 2.681 11.677 7.353 15.49 4.674 3.812 10.741 5.304 16.649 4.098l108.996-22.281 118.996 24.33c1.33.272 2.669.408 4.008.408 1.338 0 2.676-.136 4.002-.407l118.994-24.33 108.997 22.279c5.905 1.209 11.979-.283 16.652-4.097s7.353-9.46 7.353-15.49v-98.326c0-5.522-4.477-10-10-10-5.522 0-10 4.478-10 10l.003 98.318-103.003-21.054v-255.586l103 21.058v77.268c0 5.522 4.478 10 10 10 5.523 0 10-4.478 10-10zm-143-21.058v255.587l-103 21.06v-184.647c5.795-8.316 11.616-16.999 17.305-25.945 12.351-19.424 22.56-37.703 30.623-54.791zm-226 119.507c14.593 19.281 27.696 35.018 36.342 45.065 0 .001.001.001.001.001 3.804 4.42 9.329 6.956 15.157 6.956s11.354-2.536 15.158-6.957c8.646-10.047 21.748-25.784 36.342-45.065v157.139l-103-21.059zm51.5-312.819c67.038 0 121.733 54.709 121.926 121.954.171 59.671-62.872 154.26-121.909 222.9 0 0-.005-.005-.015-.016-59.055-68.624-122.098-163.213-121.927-222.884.192-67.245 54.887-121.954 121.925-121.954zm-174.5 469.96.004-255.593 54.442-11.134c8.158 17.473 18.574 36.199 31.249 56.134 5.689 8.946 11.51 17.629 17.305 25.945v163.586z"/><circle cx="502.001" cy="351.635" r="10"/><path d="m296.428 141.927c0-56.202-45.723-101.927-101.926-101.927s-101.925 45.725-101.925 101.927 45.724 101.926 101.926 101.926 101.925-45.724 101.925-101.926zm-101.926 81.925c-45.174 0-81.926-36.752-81.926-81.926 0-45.175 36.752-81.927 81.926-81.927s81.926 36.752 81.926 81.927-36.752 81.926-81.926 81.926z"/><path d="m224.502 94.053h-60c-11.028 0-20 8.972-20 20v60c0 11.028 8.972 20 20 20h60c11.028 0 20-8.972 20-20v-60c0-11.029-8.971-20-20-20zm0 80h-60v-60h20v10c0 5.522 4.477 10 10 10 5.522 0 10-4.478 10-10v-10h20l.013 59.999s-.004.001-.013.001z"/></g></g></svg>