<svg id="Capa_1" enable-background="new 0 0 512.002 512.002" height="512" viewBox="0 0 512.002 512.002" width="512" xmlns="http://www.w3.org/2000/svg"><g><g><path d="m402.001 252.971v-212.97c0-5.52-4.48-10-10-10h-371.999c-5.52 0-10 4.48-10 10v126 80 126c0 5.52 4.48 10 10 10h252.969z" fill="#ffd47c"/><path d="m146.002 30.001v93.858c0 7.424 7.805 12.26 14.453 8.954l41.094-20.436c2.805-1.395 6.101-1.395 8.906 0l41.094 20.436c6.648 3.306 14.453-1.53 14.453-8.954v-93.858z" fill="#ff6d8a"/><circle cx="387.001" cy="367.001" fill="#33d6f5" r="115"/></g><g><circle cx="10" cy="206.001" r="10"/><path d="m60.002 302.001h53c5.522 0 10-4.478 10-10s-4.478-10-10-10h-53c-5.523 0-10 4.478-10 10s4.477 10 10 10z"/><path d="m60.002 342.001h126c5.522 0 10-4.478 10-10s-4.478-10-10-10h-126c-5.523 0-10 4.478-10 10s4.477 10 10 10z"/><path d="m412.002 244.514v-204.513c0-11.028-8.972-20-20-20h-372c-11.028 0-20 8.972-20 20v126c0 5.522 4.477 10 10 10 5.522 0 10-4.478 10-10v-126h116v83.858c0 6.974 3.539 13.329 9.467 17.002 5.929 3.673 13.193 4.012 19.438.906l41.094-20.436 41.095 20.436c2.836 1.41 5.882 2.109 8.918 2.109 3.65 0 7.285-1.011 10.522-3.016 5.928-3.673 9.467-10.028 9.467-17.002v-83.857h116v202.109c-1.659-.066-3.325-.109-5-.109-68.925 0-125 56.075-125 125 0 1.675.043 3.341.109 5h-242.11v-126c0-5.523-4.478-10-10-10-5.523 0-10 4.477-10 10v126c0 11.028 8.972 20 20 20h244.513c11.614 56.986 62.121 100 122.487 100 68.925 0 125-56.075 125-125 0-60.366-43.014-110.873-100-122.487zm-156.001-120.655-41.092-20.435c-5.577-2.775-12.237-2.774-17.812-.001l-41.095 20.436v-83.858h100zm131.001 348.142c-7.577 0-16.482-10.498-23.242-27.397-2.105-5.263-3.964-10.988-5.571-17.081 9.284-.999 18.968-1.522 28.813-1.522s19.529.523 28.813 1.522c-1.607 6.093-3.466 11.819-5.571 17.081-6.76 16.899-15.666 27.397-23.242 27.397zm0-66c-11.313 0-22.355.63-32.906 1.833-1.547-9.768-2.533-20.127-2.911-30.833h71.634c-.378 10.706-1.364 21.065-2.911 30.833-10.552-1.203-21.594-1.833-32.906-1.833zm0-144c7.576 0 16.482 10.498 23.242 27.396 2.105 5.263 3.964 10.989 5.571 17.082-9.284.999-18.968 1.522-28.813 1.522s-19.529-.523-28.813-1.522c1.607-6.093 3.466-11.819 5.571-17.082 6.759-16.898 15.664-27.396 23.242-27.396zm0 66c11.312 0 22.355-.63 32.906-1.833 1.547 9.768 2.533 20.127 2.911 30.833h-71.634c.378-10.706 1.363-21.065 2.911-30.833 10.551 1.203 21.593 1.833 32.906 1.833zm-55.822 29h-48.699c1.556-16.391 6.894-31.694 15.132-45.027 10.585 4.7 23.033 8.461 36.734 11.154-1.706 10.779-2.778 22.161-3.167 33.873zm0 20c.389 11.712 1.461 23.094 3.167 33.873-13.7 2.693-26.149 6.454-36.734 11.154-8.238-13.333-13.576-28.636-15.132-45.027zm111.643 0h48.699c-1.556 16.391-6.894 31.694-15.132 45.027-10.584-4.701-23.033-8.461-36.733-11.154 1.705-10.779 2.777-22.161 3.166-33.873zm0-20c-.39-11.712-1.461-23.094-3.166-33.873 13.7-2.694 26.149-6.454 36.733-11.154 8.238 13.333 13.577 28.637 15.132 45.027zm21.031-61.464c-8.259 3.243-17.792 5.924-28.178 7.958-1.934-7.691-4.221-14.922-6.862-21.526-2.039-5.096-4.258-9.729-6.63-13.899 16.04 5.722 30.291 15.239 41.67 27.467zm-112.034-27.466c-2.372 4.169-4.592 8.803-6.63 13.899-2.642 6.604-4.928 13.835-6.863 21.526-10.386-2.033-19.919-4.714-28.178-7.957 11.379-12.23 25.63-21.747 41.671-27.468zm-41.671 170.393c8.259-3.243 17.792-5.924 28.178-7.957 1.934 7.691 4.221 14.922 6.863 21.526 2.038 5.094 4.255 9.729 6.627 13.898-16.04-5.723-30.29-15.24-41.668-27.467zm112.034 27.468c2.373-4.167 4.592-8.803 6.63-13.899 2.642-6.604 4.928-13.834 6.862-21.526 10.386 2.034 19.919 4.715 28.178 7.958-11.378 12.227-25.629 21.745-41.67 27.467z"/></g></g></svg>