<svg id="Capa_1" enable-background="new 0 0 512.001 512.001" height="512" viewBox="0 0 512.001 512.001" width="512" xmlns="http://www.w3.org/2000/svg"><g><g><path d="m374.001 456.001h-236c-5.523 0-10-4.477-10-10 0-16.569 13.431-30 30-30h196c16.569 0 30 13.431 30 30 0 5.522-4.478 10-10 10z" fill="#e7e9ef"/><path d="m206.001 366.001h100v50h-100z" fill="#e7e9ef"/><path d="m502.001 66.001c0-5.523-4.477-10-10-10h-472c-5.523 0-10 4.477-10 10v250h492z" fill="#fff"/><path d="m10.001 316.001v40c0 5.523 4.477 10 10 10h472c5.523 0 10-4.477 10-10v-40z" fill="#b6bccf"/><path d="m223.001 243.538v-115.075c0-5.523-4.477-10-10-10h-130c-5.523 0-10 4.477-10 10v115.075c0 5.523 4.477 10 10 10h130c5.523 0 10-4.477 10-10z" fill="#ffd47c"/><path d="m123.001 118.463v47.832c0 4.039 4.542 6.411 7.857 4.104l14.286-9.946c1.717-1.195 3.997-1.195 5.714 0l14.286 9.946c3.315 2.308 7.857-.064 7.857-4.104v-47.832z" fill="#ff6d8a"/></g><g><path d="m492.001 46.001h-472c-11.028 0-20 8.972-20 20v80.002c0 5.522 4.477 10 10 10s10-4.478 10-10v-80.002h472v240h-472v-79.998c0-5.523-4.477-10-10-10s-10 4.477-10 10v129.998c0 11.028 8.972 20 20 20h176v30h-38c-22.056 0-40 17.944-40 40 0 11.028 8.972 20 20 20h236c11.028 0 20-8.972 20-20 0-22.056-17.944-40-40-40h-38v-30h176c11.028 0 20-8.972 20-20v-290c0-11.029-8.972-20-20-20zm-117.987 399.999s-.004.001-.013.001h-236c0-11.028 8.972-20 20-20h196c11.028 0 20 8.971 20.013 19.999zm-78.013-39.999h-80v-30h80zm-276-50v-30h472v30z"/><path d="m213.001 263.538c11.028 0 20-8.972 20-20v-115.075c0-11.028-8.972-20-20-20h-130c-11.028 0-20 8.972-20 20v115.074c0 11.028 8.972 20 20 20h130zm-80-135.075h30v28.259l-6.426-4.474c-5.128-3.574-12.019-3.573-17.145-.003l-6.429 4.477zm-50 0h30v37.832c0 5.605 3.087 10.7 8.056 13.296 4.97 2.596 10.914 2.218 15.515-.985l11.429-7.957 11.43 7.958c2.571 1.789 5.559 2.696 8.564 2.696 2.374-.001 4.757-.567 6.95-1.713 4.969-2.595 8.055-7.689 8.055-13.295v-37.832h30v115.074h-130v-115.074z"/><path d="m178.001 202.42h-60c-5.523 0-10 4.478-10 10s4.477 10 10 10h60c5.523 0 10-4.478 10-10s-4.477-10-10-10z"/><path d="m329.001 151.001h110c5.523 0 10-4.477 10-10s-4.477-10-10-10h-110c-5.523 0-10 4.477-10 10s4.477 10 10 10z"/><path d="m329.001 196.001h110c5.523 0 10-4.477 10-10s-4.477-10-10-10h-110c-5.523 0-10 4.477-10 10s4.477 10 10 10z"/><path d="m329.001 241.001h110c5.523 0 10-4.477 10-10s-4.477-10-10-10h-110c-5.523 0-10 4.477-10 10s4.477 10 10 10z"/><circle cx="289.001" cy="141.001" r="10"/><circle cx="289.001" cy="186.001" r="10"/><circle cx="289.001" cy="231.001" r="10"/><ellipse cx="10" cy="186.001" rx="10" ry="10" transform="matrix(.937 -.35 .35 .937 -64.378 15.226)"/></g></g></svg>