<svg id="Capa_1" enable-background="new 0 0 512 512" height="512" viewBox="0 0 512 512" width="512" xmlns="http://www.w3.org/2000/svg"><g><g><path d="m332 368.5h42.68 80.64 36.68c5.52 0 10-4.48 10-10v-97.25c0-8.37-2.1-16.6-6.11-23.94l-45.36-83.18c-5.26-9.63-15.36-15.63-26.34-15.63h-92.19z" fill="#ff6d8a"/><circle cx="415" cy="388.5" fill="#b6bccf" r="45"/><path d="m500.34 248.5h-108.34c-5.523 0-10-4.477-10-10v-50c0-5.523 4.477-10 10-10h71.81.01z" fill="#fff"/><path d="m156.55 368.5h175.45v-280c0-5.52-4.48-10-10-10h-111-80-111c-5.52 0-10 4.48-10 10v270c0 5.52 4.48 10 10 10h55.91z" fill="#33d6f5"/><path d="m10 118.5h322v185h-322z" fill="#ccf5fc"/><circle cx="116.229" cy="388.5" fill="#b6bccf" r="45"/><path d="m502 328.5h-20c-11.046 0-20-8.954-20-20 0-11.046 8.954-20 20-20h20z" fill="#ffd47c"/></g><g><path d="m504.669 232.522-45.362-83.186c-7.021-12.853-20.477-20.836-35.116-20.836h-82.191v-40c0-11.028-8.972-20-20-20h-111c-5.523 0-10 4.478-10 10s4.477 10 10 10h111v20h-302v-20h111c5.523 0 10-4.478 10-10s-4.477-10-10-10h-111c-11.028 0-20 8.972-20 20v270c0 11.028 8.972 20 20 20h42.157c-.599 3.245-.928 6.584-.928 10 0 30.327 24.673 55 55 55s55-24.673 55-55c0-3.416-.329-6.755-.928-10h190.626c-.599 3.245-.928 6.584-.928 10 0 30.327 24.673 55 55 55s55-24.673 55-55c0-3.416-.329-6.755-.928-10h22.929c11.028 0 20-8.972 20-20v-97.25c0-10.016-2.536-19.952-7.331-28.728zm-19.52 5.978h-93.149v-50h65.883zm-163.149-110v165h-302v-165zm-205.771 295c-19.299 0-35-15.701-35-35s15.701-35 35-35 35 15.701 35 35-15.701 35-35 35zm46.063-65c-9.827-15.036-26.798-25-46.062-25s-36.236 9.964-46.062 25h-50.168v-45h302v45zm252.708 65c-19.299 0-35-15.701-35-35s15.701-35 35-35 35 15.701 35 35-15.701 35-35 35zm46.062-65c-9.827-15.036-26.798-25-46.062-25s-36.236 9.964-46.062 25h-26.938v-210h82.19c7.321 0 14.052 3.994 17.561 10.417l5.226 9.583h-54.977c-11.028 0-20 8.972-20 20v50c0 11.028 8.972 20 20 20h99.897c.063.915.103 1.832.103 2.75v17.25h-10c-16.542 0-30 13.458-30 30s13.458 30 30 30h10v20zm30.938-60v20h-10c-5.514 0-10-4.486-10-10s4.486-10 10-10z"/><circle cx="171" cy="78.5" r="10"/><circle cx="116.229" cy="388.5" r="10"/><circle cx="415" cy="388.5" r="10"/><path d="m392.478 286h-10.478c-5.522 0-10 4.478-10 10s4.478 10 10 10h10.478c5.522 0 10-4.478 10-10s-4.478-10-10-10z"/></g></g></svg>