<svg id="Capa_1" enable-background="new 0 0 512 512" height="512" viewBox="0 0 512 512" width="512" xmlns="http://www.w3.org/2000/svg"><g><g><path d="m301 339.562 84.04 34.528c37.508 15.411 61.997 51.947 61.997 92.497v25.413c0 5.523-4.477 10-10 10h-362.074c-5.523 0-10-4.477-10-10v-25.412c0-40.551 24.489-77.087 61.997-92.497l84.04-34.529z" fill="#33d6f5"/><path d="m359.98 155.36h11.5c26.79 0 48.5 21.72 48.5 48.5 0 13.4-5.43 25.52-14.2 34.3-8.78 8.77-20.9 14.2-34.3 14.2h-20.24z" fill="#b6bccf"/><path d="m160.76 252.36h-20.24c-13.4 0-25.52-5.43-34.3-14.2-8.77-8.78-14.2-20.9-14.2-34.3 0-26.78 21.71-48.5 48.5-48.5h11.5z" fill="#b6bccf"/><path d="m301 339.56v-35.21h-90v35.21l45 50.01c15-16.67 30-33.34 45-50.01z" fill="#ffd0c7"/><path d="m340.29 355.7-32.701 74.185c-3.014 6.837-12.187 8.074-16.905 2.281l-34.684-42.596 45-50.01h.01z" fill="#ccf5fc"/><path d="m171.71 355.693 32.701 74.185c3.014 6.837 12.187 8.074 16.905 2.281l34.684-42.597-45-50.01h-.01z" fill="#ccf5fc"/><path d="m359.98 155.359h-11.78c-29.06 0-56.64-11.3-77.2-31v.001c-20.56 19.7-48.14 31-77.2 31h-41.78s-.004-.003-.005-.003v55.222c0 57.429 46.555 103.984 103.984 103.984 57.429 0 103.984-46.556 103.984-103.984v-55.225z" fill="#ffd0c7"/><path d="m193.8 155.36c29.06 0 56.64-11.3 77.2-31v-.001c20.56 19.7 48.14 31 77.2 31h11.78l.004-.006v-1.369c0-57.429-46.555-103.984-103.984-103.984-57.429 0-103.984 46.556-103.984 103.984v1.372s.005.003.005.003h41.779z" fill="#ffd47c"/><circle cx="256" cy="254.562" fill="#b6bccf" r="20"/></g><g><path d="m388.841 364.841-77.841-31.981v-22.474c6.529-3.612 12.666-7.846 18.334-12.622l18.822 6.256c5.336 1.772 10.785 2.645 16.184 2.645 10.462 0 20.727-3.281 29.562-9.656 13.397-9.665 21.079-24.682 21.079-41.2v-12.829c9.694-10.763 15-24.535 15-39.12 0-17.522-7.755-33.259-20-43.99v-5.89c0-34.004-10.908-66.261-31.545-93.285-19.966-26.146-48.254-45.554-79.651-54.648-5.303-1.53-10.851 1.519-12.388 6.823-1.536 5.305 1.518 10.851 6.823 12.388 55.157 15.975 94.207 66.098 96.639 123.077-5.784-1.92-11.959-2.974-18.378-2.974h-1.821c-4.423-58.839-53.71-105.361-113.66-105.361s-109.238 46.522-113.66 105.36h-1.821c-6.42 0-12.594 1.055-18.378 2.974 2.432-56.979 41.482-107.102 96.639-123.077 5.305-1.537 8.359-7.083 6.823-12.388s-7.083-8.357-12.388-6.823c-31.397 9.095-59.686 28.502-79.651 54.648-20.637 27.024-31.545 59.281-31.545 93.285v5.89c-12.245 10.731-20 26.467-20 43.99 0 15.619 6.082 30.31 17.134 41.375 11.057 11.043 25.747 17.125 41.366 17.125h13.952c10.376 20.263 26.646 37.026 46.528 48.026v22.474l-77.84 31.981c-41.428 17.022-68.196 56.96-68.196 101.748v25.412c0 11.028 8.972 20 20 20h362.074c11.028 0 20-8.972 20-20v-25.412c0-44.788-26.768-84.726-68.196-101.747zm-85.124-13.351 23.283 9.566-28.562 64.794-29.278-35.956zm78.482-70.7c-8.121 5.859-18.23 7.408-27.735 4.251l-9.585-3.185c4.845-6.029 9.095-12.555 12.649-19.495h13.952c8.206 0 16.149-1.694 23.452-4.891-.485 9.356-5.061 17.786-12.733 23.32zm27.781-76.93c0 10.281-4.005 19.953-11.267 27.225-7.28 7.27-16.952 11.275-27.233 11.275h-6.01c2.935-10.092 4.514-20.756 4.514-31.782v-45.218h1.496c21.229 0 38.5 17.272 38.5 38.5zm-153.98-143.86c48.915 0 89.215 37.563 93.585 85.358h-1.385c-22.978 0-44.911-7.634-62.745-21.672 3.133-3.595 6.079-7.388 8.804-11.38 3.114-4.562 1.94-10.783-2.621-13.897-4.561-3.11-10.784-1.94-13.896 2.622-18.949 27.76-50.328 44.333-83.938 44.333h-31.389c4.368-47.798 44.668-85.364 93.585-85.364zm-115.48 182.36c-10.281 0-19.953-4.005-27.225-11.267-7.271-7.28-11.275-16.952-11.275-27.233 0-21.229 17.271-38.5 38.5-38.5h1.496v45.218c0 11.026 1.579 21.69 4.514 31.782zm21.496-31.782v-45.215h31.788c28.529 0 55.708-9.987 77.195-27.642 21.715 17.883 48.792 27.637 77.202 27.637h1.784v45.22c0 24.924-9.756 47.611-25.645 64.45-13.09-4.35-26.179-8.701-39.268-13.054.605-2.371.928-4.854.928-7.411 0-16.542-13.458-30-30-30s-30 13.458-30 30 13.458 30 30 30c6.403 0 12.339-2.023 17.216-5.454 10.967 3.648 21.936 7.293 32.904 10.939-14.516 9.188-31.707 14.515-50.121 14.515-51.822-.001-93.983-42.162-93.983-93.985zm103.984 43.984c0 5.514-4.486 10-10 10s-10-4.486-10-10 4.486-10 10-10 10 4.487 10 10zm-10 70c12.206 0 23.967-1.936 35-5.504v16.666l-34.996 38.893-35.004-38.901v-16.658c11.033 3.568 22.794 5.504 35 5.504zm-47.712 26.926 34.552 38.398-29.279 35.958-28.559-64.789zm-133.325 115.1c0-36.645 21.901-69.321 55.798-83.247l35.736-14.683 28.763 65.254c2.831 6.421 8.673 10.814 15.628 11.753.913.123 1.824.184 2.729.184 5.971 0 11.605-2.649 15.453-7.376l16.93-20.793v74.32h-83.984v-38.5c0-5.522-4.477-10-10-10-5.522 0-10 4.478-10 10v38.5h-67.053zm362.074 25.412h-67.053v-38.5c0-5.522-4.478-10-10-10s-10 4.478-10 10v38.5h-83.984v-74.311l16.93 20.791c3.85 4.727 9.483 7.376 15.455 7.376.903 0 1.814-.061 2.729-.184 6.955-.939 12.797-5.332 15.627-11.754l28.766-65.259 35.734 14.682c33.896 13.926 55.797 46.603 55.797 83.247v25.412z"/><circle cx="256" cy="10" r="10"/><path d="m296 219.781c5.522 0 10-4.478 10-10v-15c0-5.522-4.478-10-10-10s-10 4.478-10 10v15c0 5.523 4.478 10 10 10z"/><path d="m226 194.781c0-5.522-4.477-10-10-10s-10 4.478-10 10v15c0 5.522 4.477 10 10 10s10-4.478 10-10z"/></g></g></svg>