<svg id="Capa_1" enable-background="new 0 0 512 512" height="512" viewBox="0 0 512 512" width="512" xmlns="http://www.w3.org/2000/svg"><g><g><path d="m402 282v-242c0-5.52-4.48-10-10-10h-372c-5.52 0-10 4.48-10 10v332c0 5.52 4.48 10 10 10h96.339 80 105.661z" fill="#ffd47c"/><path d="m146 30v93.859c0 7.424 7.805 12.26 14.453 8.954l41.094-20.436c2.805-1.395 6.101-1.395 8.906 0l41.094 20.436c6.648 3.306 14.453-1.53 14.453-8.954v-93.859z" fill="#ff6d8a"/><circle cx="402" cy="382" fill="#33d6f5" r="100"/></g><g><circle cx="156.339" cy="382" r="10"/><path d="m60 302h53c5.523 0 10-4.478 10-10s-4.477-10-10-10h-53c-5.523 0-10 4.478-10 10s4.477 10 10 10z"/><path d="m196 332c0-5.522-4.477-10-10-10h-126c-5.523 0-10 4.478-10 10s4.477 10 10 10h126c5.523 0 10-4.478 10-10z"/><path d="m412 272.46v-232.46c0-11.028-8.972-20-20-20h-372c-11.028 0-20 8.972-20 20v332c0 11.028 8.972 20 20 20h96.339c5.523 0 10-4.478 10-10s-4.477-10-10-10h-96.339v-332h116v83.858c0 6.974 3.539 13.329 9.467 17.002 3.236 2.005 6.871 3.017 10.521 3.016 3.036 0 6.083-.699 8.918-2.109l41.094-20.436 41.095 20.436c6.244 3.105 13.511 2.767 19.438-.906 5.928-3.673 9.467-10.028 9.467-17.002v-83.859h116v232.46c-52.69 4.771-94.77 46.851-99.541 99.54h-96.12c-5.523 0-10 4.478-10 10s4.477 10 10 10h96.12c5.069 55.985 52.258 100 109.541 100 60.654 0 110-49.346 110-110 0-57.283-44.015-104.471-100-109.54zm-156-148.602-41.093-20.435c-5.578-2.775-12.237-2.775-17.812-.001l-41.095 20.436v-83.858h100zm146 348.142c-49.626 0-90-40.374-90-90s40.374-90 90-90 90 40.374 90 90-40.374 90-90 90z"/><path d="m420.785 409.171c-5.41 3.661-11.739 5.597-18.301 5.597-10.283 0-19.491-4.789-25.507-12.251l1.124.602c4.869 2.607 10.929.774 13.537-4.094 2.608-4.869.774-10.93-4.094-13.537l-22.971-12.303c-2.337-1.253-5.079-1.524-7.616-.757-2.539.769-4.668 2.513-5.92 4.852l-12.303 22.972c-2.607 4.868-.774 10.929 4.094 13.536 1.503.805 3.119 1.186 4.712 1.186 3.568 0 7.021-1.915 8.824-5.281l.594-1.109c9.179 15.64 26.168 26.185 45.527 26.185 10.574 0 20.779-3.124 29.511-9.034 4.574-3.095 5.772-9.312 2.677-13.886-3.097-4.575-9.313-5.777-13.888-2.678z"/><path d="m462.268 350.213c-4.869-2.606-10.929-.775-13.537 4.095l-.646 1.207c-9.147-15.703-26.158-26.282-45.602-26.282-10.58 0-20.788 3.124-29.52 9.034-4.574 3.095-5.772 9.312-2.677 13.886 3.096 4.574 9.311 5.775 13.887 2.677 5.41-3.661 11.742-5.597 18.31-5.597 10.244 0 19.39 4.738 25.401 12.126l-.89-.477c-4.87-2.607-10.929-.774-13.537 4.094-2.607 4.869-.774 10.93 4.094 13.537l22.971 12.303c1.465.785 3.089 1.185 4.722 1.185.972 0 1.947-.142 2.895-.428 2.539-.769 4.668-2.513 5.92-4.852l12.303-22.972c2.608-4.868.775-10.929-4.094-13.536z"/></g></g></svg>