<svg id="Capa_1" enable-background="new 0 0 512 512" height="512" viewBox="0 0 512 512" width="512" xmlns="http://www.w3.org/2000/svg"><g><g><path d="m401 242h-290c-27.61 0-50-22.39-50-50v310h390v-310c0 27.61-22.39 50-50 50z" fill="#95e29a"/><path d="m441 80h-370c-5.523 0-10 4.477-10 10v102c0 27.61 22.39 50 50 50h290c27.61 0 50-22.39 50-50v-102c0-5.523-4.477-10-10-10z" fill="#e7f9e9"/><path d="m321 80v-60c0-5.523 4.477-10 10-10h90c5.523 0 10 4.477 10 10v60z" fill="#95e29a"/><path d="m81 80v-60c0-5.523 4.477-10 10-10h90c5.523 0 10 4.477 10 10v60z" fill="#95e29a"/><path d="m271 272h-30c-5.523 0-10-4.477-10-10v-40c0-5.523 4.477-10 10-10h30c5.523 0 10 4.477 10 10v40c0 5.523-4.477 10-10 10z" fill="#e7e9ef"/><g fill="#e7f9e9"><path d="m391 447h-270c-5.523 0-10-4.477-10-10v-100c0-5.523 4.477-10 10-10h270c5.523 0 10 4.477 10 10v100c0 5.523-4.477 10-10 10z"/><path d="m451 502h41c5.523 0 10-4.477 10-10v-108.768c0-10.746-4.324-21.04-11.997-28.563l-39.003-38.238z"/><path d="m61 502h-41c-5.523 0-10-4.477-10-10v-108.768c0-10.746 4.324-21.04 11.997-28.563l39.003-38.238z"/></g></g><g><circle cx="256" cy="502" r="10"/><path d="m411 437v-100c0-11.028-8.972-20-20-20h-270c-11.028 0-20 8.972-20 20v100c0 11.028 8.972 20 20 20h270c11.028 0 20-8.972 20-20zm-290-100h270l.013 99.999s-.004.001-.013.001h-270z"/><path d="m341 357h-170c-5.523 0-10 4.478-10 10s4.477 10 10 10h170c5.522 0 10-4.478 10-10s-4.478-10-10-10z"/><path d="m341 397h-170c-5.523 0-10 4.478-10 10s4.477 10 10 10h170c5.522 0 10-4.478 10-10s-4.478-10-10-10z"/><path d="m497.004 347.528-36.004-35.297v-222.231c0-11.028-8.972-20-20-20v-50c0-11.028-8.972-20-20-20h-90c-11.028 0-20 8.972-20 20v50h-110v-50c0-11.028-8.972-20-20-20h-90c-11.028 0-20 8.972-20 20v50c-11.028 0-20 8.972-20 20v222.231l-36.004 35.297c-9.53 9.344-14.996 22.358-14.996 35.704v108.768c0 11.028 8.972 20 20 20h196c5.523 0 10-4.478 10-10s-4.477-10-10-10h-145v-255.327c10.623 9.522 24.645 15.327 40 15.327h110v10c0 11.028 8.972 20 20 20h30c11.028 0 20-8.972 20-20v-10h110c15.355 0 29.376-5.805 40-15.327v255.327h-145c-5.522 0-10 4.478-10 10s4.478 10 10 10h196c11.028 0 20-8.972 20-20v-108.768c0-13.345-5.466-26.359-14.996-35.704zm-166.004-327.528h90v50h-90zm-240 0h90v50h-90zm-71 363.232c0-8.008 3.28-15.816 8.998-21.423l22.002-21.57v151.761h-31zm251-121.232h-30v-40h30l.013 39.999s-.004.001-.013.001zm130-30h-110v-10c0-11.028-8.972-20-20-20h-30c-11.028 0-20 8.972-20 20v10h-110c-22.056 0-40-17.944-40-40v-102h370v102c0 22.056-17.944 40-40 40zm91 260h-31v-151.761l22.002 21.57c5.719 5.606 8.998 13.415 8.998 21.423z"/></g></g></svg>