<svg id="Capa_1" enable-background="new 0 0 512 512" height="512" viewBox="0 0 512 512" width="512" xmlns="http://www.w3.org/2000/svg"><g><g><path d="m133.142 502h-113.142c-5.523 0-10-4.477-10-10v-206.822c0-2.656 1.057-5.203 2.936-7.079 13.848-13.822 27.697-27.637 41.552-41.452 2.919-2.911 3.753-7.313 2.1-11.09-5.629-12.856-11.252-25.717-16.882-38.573-.941-2.148-1.096-4.558-.44-6.809l11.683-40.062c.749-2.568.438-5.328-.863-7.665l-38.823-69.71c-.828-1.487-1.263-3.162-1.263-4.865v-37.873c0-5.523 4.477-10 10-10h393.119c1.895 0 3.751.538 5.352 1.552 15.487 9.81 30.968 19.62 46.454 29.43 4.194 2.657 5.806 7.989 3.782 12.523-2.927 6.557-5.855 13.115-8.781 19.672-1.009 2.261-1.143 4.816-.376 7.17l15.144 46.536c.945 2.903.511 6.079-1.177 8.624l-37.02 55.791c-3.636 5.48-1.083 12.916 5.152 15.008 17.845 5.988 35.687 11.981 53.534 17.974 4.073 1.368 6.817 5.184 6.817 9.48v258.24c0 5.523-4.477 10-10 10h-278.858z" fill="#ffd47c"/><path d="m181 10v123.365c0 7.542 8.031 12.369 14.691 8.831l55.618-29.543c2.933-1.558 6.449-1.558 9.382 0l55.618 29.543c6.661 3.538 14.691-1.29 14.691-8.831v-123.365z" fill="#ff6d8a"/><path d="m82.142 452h182c5.523 0 10-4.477 10-10v-100c0-5.523-4.477-10-10-10h-182c-5.523 0-10 4.477-10 10v100c0 5.523 4.477 10 10 10z" fill="#ffecc7"/><path d="m394.142 400.005c-25.249 0-45.717-20.468-45.717-45.717v-32.288c0-5.523 4.477-10 10-10h71.434c5.523 0 10 4.477 10 10v32.288c-.001 25.249-20.469 45.717-45.717 45.717z" fill="#ccf5fc"/></g><g><path d="m498.28 214.771c-17.817-5.983-35.633-11.966-53.451-17.943l37.021-55.792c3.396-5.118 4.253-11.404 2.353-17.247l-15.145-46.537 8.78-19.671c4.018-9.002.767-19.77-7.562-25.046l-46.451-29.429c-3.207-2.032-6.908-3.106-10.706-3.106h-393.119c-11.028 0-20 8.972-20 20v37.873c0 3.4.875 6.767 2.527 9.73l38.821 69.71-11.682 40.059c-1.312 4.494-1 9.333.879 13.622l16.882 38.57c-13.856 13.816-27.707 27.633-41.557 41.457-3.785 3.781-5.87 8.808-5.87 14.157v206.822c0 11.028 8.972 20 20 20h113.142c5.522 0 10-4.478 10-10s-4.478-10-10-10h-113.142l.001-206.823c13.847-13.82 27.693-27.635 41.549-41.449 5.882-5.865 7.529-14.572 4.198-22.181l-16.881-38.571 11.682-40.062c1.488-5.102.859-10.69-1.727-15.331l-38.822-69.71v-37.873h151v113.365c0 7.084 3.624 13.491 9.695 17.141s13.431 3.844 19.688.521l55.617-29.542 55.618 29.542c2.968 1.577 6.183 2.361 9.392 2.361 3.556 0 7.104-.964 10.295-2.883 6.071-3.65 9.695-10.057 9.695-17.141v-113.363h72.12l46.455 29.429-8.78 19.673c-2.02 4.528-2.289 9.62-.754 14.34l15.145 46.536-37.021 55.791c-3.465 5.224-4.286 11.619-2.251 17.548 2.034 5.93 6.61 10.475 12.555 12.47 17.815 5.979 35.629 11.961 53.532 17.974v258.238h-278.859c-5.523 0-10 4.478-10 10s4.477 10 10 10h278.858c11.028 0 20-8.972 20-20v-258.239c0-8.601-5.478-16.22-13.72-18.99zm-177.28-81.406-55.617-29.542c-5.875-3.121-12.891-3.121-18.766 0l-55.617 29.542v-113.365h130z"/><circle cx="173.142" cy="501.999" r="10"/><path d="m62.142 342v100c0 11.028 8.972 20 20 20h182c11.028 0 20-8.972 20-20v-100c0-11.028-8.972-20-20-20h-182c-11.029 0-20 8.972-20 20zm202 100h-182v-100h182z"/><path d="m112.142 422h122c5.522 0 10-4.478 10-10s-4.478-10-10-10h-122c-5.522 0-10 4.478-10 10s4.477 10 10 10z"/><path d="m112.142 382h122c5.522 0 10-4.478 10-10s-4.478-10-10-10h-122c-5.522 0-10 4.478-10 10s4.477 10 10 10z"/><path d="m449.858 354.288v-32.288c0-11.028-8.972-20-20-20h-71.434c-11.028 0-20 8.972-20 20v32.288c0 27.308 19.752 50.073 45.717 54.8v32.912h-12.858c-5.522 0-10 4.478-10 10s4.478 10 10 10h45.717c5.522 0 10-4.478 10-10s-4.478-10-10-10h-12.858v-32.912c25.964-4.727 45.716-27.492 45.716-54.8zm-91.433 0v-32.288h23.539l6.39 16.229-7.122 11.32c-2.941 4.675-1.536 10.849 3.139 13.789 1.654 1.041 3.496 1.537 5.315 1.537 3.323 0 6.573-1.655 8.474-4.676l7.125-11.323c3.37-5.363 3.998-12.082 1.678-17.974l-3.506-8.902h26.402v32.288c0 19.694-16.022 35.717-35.717 35.717s-35.717-16.023-35.717-35.717z"/><path d="m256 264.421c5.522 0 10-4.478 10-10v-29.32l2.929 2.929c1.953 1.952 4.512 2.929 7.071 2.929s5.118-.977 7.071-2.929c3.905-3.905 3.905-10.237 0-14.143l-20-20c-3.906-3.904-10.236-3.904-14.143 0l-20 20c-3.905 3.905-3.905 10.237 0 14.143 3.906 3.904 10.236 3.904 14.143 0l2.929-2.929v29.32c0 5.522 4.477 10 10 10z"/><path d="m353.071 193.887c-3.906-3.904-10.236-3.904-14.143 0l-20 20c-3.905 3.905-3.905 10.237 0 14.143 3.906 3.904 10.236 3.904 14.143 0l2.929-2.929v29.32c0 5.522 4.478 10 10 10s10-4.478 10-10v-29.32l2.929 2.929c1.953 1.952 4.512 2.929 7.071 2.929s5.118-.977 7.071-2.929c3.905-3.905 3.905-10.237 0-14.143z"/><path d="m166 264.421c5.523 0 10-4.478 10-10v-29.32l2.929 2.929c1.953 1.952 4.512 2.929 7.071 2.929s5.118-.977 7.071-2.929c3.905-3.905 3.905-10.237 0-14.143l-20-20c-3.906-3.904-10.236-3.904-14.143 0l-20 20c-3.905 3.905-3.905 10.237 0 14.143 3.906 3.904 10.236 3.904 14.143 0l2.929-2.929v29.32c0 5.522 4.477 10 10 10z"/></g></g></svg>