<svg height="512" viewBox="0 0 128 128" width="512" xmlns="http://www.w3.org/2000/svg"><path d="m124.17 88.374h-2.67a20.883 20.883 0 0 0 -2.457-5.921l1.893-1.893a2.44 2.44 0 0 0 0-3.449l-3.539-3.539v-55.572a5.006 5.006 0 0 0 -5-5h-102a5.006 5.006 0 0 0 -5 5v88a5.006 5.006 0 0 0 5 5h72l2.326 2.325a2.439 2.439 0 0 0 3.447 0l1.893-1.893a20.9 20.9 0 0 0 5.921 2.457v2.674a2.441 2.441 0 0 0 2.435 2.437h5.163a2.44 2.44 0 0 0 2.437-2.437v-2.674a20.871 20.871 0 0 0 5.921-2.457l1.894 1.893a2.44 2.44 0 0 0 3.448 0l3.65-3.651a2.439 2.439 0 0 0 0-3.447l-1.893-1.894a20.9 20.9 0 0 0 2.457-5.921h2.674a2.441 2.441 0 0 0 2.437-2.437v-5.163a2.441 2.441 0 0 0 -2.437-2.438z" fill="#e6e7e8"/><rect fill="#d4fbff" height="96" rx="4" width="110" x="2.393" y="10"/><path d="m42.535 36h-6.808a1 1 0 0 1 0-2h6.808a1 1 0 0 1 0 2z" fill="#fa759e"/><path d="m29.727 36h-16.833a1 1 0 1 1 0-2h16.833a1 1 0 1 1 0 2z" fill="#fa759e"/><path d="m42.535 71h-10.308a1 1 0 0 1 0-2h10.308a1 1 0 0 1 0 2z" fill="#fa759e"/><path d="m28.227 71h-15.333a1 1 0 0 1 0-2h15.333a1 1 0 1 1 0 2z" fill="#fa759e"/><path d="m42.535 92h-14.82a1 1 0 0 1 0-2h14.82a1 1 0 0 1 0 2z" fill="#fa759e"/><path d="m20.561 92h-7.667a1 1 0 0 1 0-2h7.667a1 1 0 1 1 0 2z" fill="#fa759e"/><path d="m108.393 103h-102a4 4 0 0 1 -4-4v3a4 4 0 0 0 4 4h102a4 4 0 0 0 4-4v-3a4 4 0 0 1 -4 4z" fill="#fff"/><path d="m108.393 10h-102a4 4 0 0 0 -4 4v10.5h110v-10.5a4 4 0 0 0 -4-4z" fill="#0089ef"/><path d="m91.06 15.083a2.334 2.334 0 1 0 2.333 2.333 2.333 2.333 0 0 0 -2.333-2.333z" fill="#fff"/><path d="m98.06 15.083a2.334 2.334 0 1 0 2.333 2.333 2.333 2.333 0 0 0 -2.333-2.333z" fill="#d4fbff"/><path d="m105.06 15.083a2.334 2.334 0 1 0 2.334 2.333 2.334 2.334 0 0 0 -2.334-2.333z" fill="#fa759e"/><path d="m121.607 91.975v-5.164a1.437 1.437 0 0 0 -1.438-1.437h-3.469a19.988 19.988 0 0 0 -2.93-7.062l2.46-2.46a1.436 1.436 0 0 0 0-2.033l-3.65-3.651a1.438 1.438 0 0 0 -2.034 0l-2.46 2.46a19.981 19.981 0 0 0 -7.066-2.928v-3.476a1.438 1.438 0 0 0 -1.438-1.438h-5.163a1.438 1.438 0 0 0 -1.438 1.438v3.476a19.974 19.974 0 0 0 -7.061 2.929l-2.46-2.46a1.438 1.438 0 0 0 -2.034 0l-3.651 3.651a1.438 1.438 0 0 0 0 2.033l2.46 2.46a20 20 0 0 0 -2.929 7.062h-3.475a1.437 1.437 0 0 0 -1.438 1.437v5.164a1.437 1.437 0 0 0 1.438 1.437h3.475a20 20 0 0 0 2.929 7.062l-2.46 2.46a1.438 1.438 0 0 0 0 2.033l3.651 3.651a1.438 1.438 0 0 0 2.034 0l2.46-2.46a19.955 19.955 0 0 0 7.061 2.929v3.475a1.438 1.438 0 0 0 1.438 1.437h5.163a1.438 1.438 0 0 0 1.438-1.438v-3.475a19.963 19.963 0 0 0 7.061-2.929l2.46 2.46a1.438 1.438 0 0 0 2.034 0l3.65-3.651a1.436 1.436 0 0 0 0-2.033l-2.46-2.46a19.988 19.988 0 0 0 2.93-7.062h3.474a1.437 1.437 0 0 0 1.438-1.437zm-24.607 9.182a11.764 11.764 0 1 1 11.765-11.764 11.764 11.764 0 0 1 -11.765 11.764z" fill="#fa759e"/><g fill="#3a2c60"><path d="m52.226 43h30.309a1 1 0 0 0 0-2h-30.309a1 1 0 0 0 0 2z"/><path d="m19.894 43h25.166a1 1 0 0 0 0-2h-25.166a1 1 0 0 0 0 2z"/><path d="m37.315 49a1 1 0 0 0 1 1h54.22a1 1 0 0 0 0-2h-54.22a1 1 0 0 0 -1 1z"/><path d="m19.894 50h12.333a1 1 0 1 0 0-2h-12.333a1 1 0 0 0 0 2z"/><path d="m19.894 57h72.641a1 1 0 0 0 0-2h-72.641a1 1 0 0 0 0 2z"/><path d="m84.535 62h-11.875a1 1 0 0 0 0 2h11.875a1 1 0 0 0 0-2z"/><path d="m19.894 64h47.75a1 1 0 0 0 0-2h-47.75a1 1 0 0 0 0 2z"/><path d="m70.535 76h-10.475a1 1 0 0 0 0 2h10.475a1 1 0 0 0 0-2z"/><path d="m19.894 78h34.591a1 1 0 1 0 0-2h-34.591a1 1 0 0 0 0 2z"/><path d="m63.535 83h-43.641a1 1 0 0 0 0 2h43.641a1 1 0 0 0 0-2z"/><path d="m66.894 25.5h8.75a1 1 0 0 0 0-2h-8.75a1 1 0 0 0 0 2z"/><path d="m120.169 84.374h-2.669a20.825 20.825 0 0 0 -2.457-5.921l1.9-1.893a2.441 2.441 0 0 0 0-3.449l-3.539-3.538v-55.573a5.006 5.006 0 0 0 -5-5h-102a5.006 5.006 0 0 0 -5 5v88a5.006 5.006 0 0 0 5 5h72l2.325 2.325a2.439 2.439 0 0 0 3.447 0l1.9-1.893a20.858 20.858 0 0 0 5.92 2.457v2.673a2.441 2.441 0 0 0 2.423 2.438h5.163a2.441 2.441 0 0 0 2.438-2.438v-2.673a20.9 20.9 0 0 0 5.921-2.457l1.893 1.893a2.439 2.439 0 0 0 3.447 0l3.652-3.65a2.44 2.44 0 0 0 0-3.448l-1.9-1.894a20.825 20.825 0 0 0 2.457-5.921h2.674a2.441 2.441 0 0 0 2.439-2.437v-5.164a2.441 2.441 0 0 0 -2.434-2.437zm-116.776 17.626v-76.5h58.667a1 1 0 0 0 0-2h-58.667v-9.5a3 3 0 0 1 3-3h102a3 3 0 0 1 3 3v9.5h-30.733a1 1 0 0 0 0 2h30.734v43.263a2.417 2.417 0 0 0 -1.56.7l-1.893 1.893a20.852 20.852 0 0 0 -5.921-2.456v-2.675a2.441 2.441 0 0 0 -2.438-2.439h-5.163a2.441 2.441 0 0 0 -2.438 2.439v2.675a20.822 20.822 0 0 0 -5.92 2.456l-1.9-1.893a2.439 2.439 0 0 0 -3.447 0l-3.65 3.65a2.44 2.44 0 0 0 0 3.449l1.893 1.893a20.849 20.849 0 0 0 -2.457 5.921h-2.669a2.441 2.441 0 0 0 -2.437 2.437v5.164a2.441 2.441 0 0 0 2.437 2.437h2.674a20.842 20.842 0 0 0 2.457 5.921l-1.893 1.894a2.43 2.43 0 0 0 -.469 2.771h-70.207a3 3 0 0 1 -3-3zm117.215-10.025a.439.439 0 0 1 -.439.437h-3.469a1 1 0 0 0 -.981.8 18.868 18.868 0 0 1 -2.783 6.708 1 1 0 0 0 .127 1.26l2.461 2.46a.439.439 0 0 1 0 .62l-3.652 3.65a.439.439 0 0 1 -.619 0l-2.46-2.46a1 1 0 0 0 -1.259-.127 18.935 18.935 0 0 1 -6.708 2.784 1 1 0 0 0 -.8.98v3.474a.439.439 0 0 1 -.438.438h-5.169a.438.438 0 0 1 -.438-.438v-3.474a1 1 0 0 0 -.8-.98 18.92 18.92 0 0 1 -6.708-2.784 1 1 0 0 0 -1.259.127l-2.461 2.46a.439.439 0 0 1 -.619 0l-3.65-3.65a.439.439 0 0 1 0-.62l2.46-2.46a1 1 0 0 0 .127-1.26 18.87 18.87 0 0 1 -2.784-6.708 1 1 0 0 0 -.98-.8h-3.476a.437.437 0 0 1 -.437-.437v-5.164a.437.437 0 0 1 .437-.437h3.475a1 1 0 0 0 .98-.8 18.912 18.912 0 0 1 2.784-6.709 1 1 0 0 0 -.127-1.259l-2.46-2.46a.439.439 0 0 1 0-.62l3.65-3.65a.439.439 0 0 1 .619 0l2.461 2.46a1 1 0 0 0 1.259.127 18.9 18.9 0 0 1 6.708-2.783 1 1 0 0 0 .8-.981v-3.474a.438.438 0 0 1 .438-.439h5.163a.439.439 0 0 1 .438.439v3.475a1 1 0 0 0 .8.981 18.9 18.9 0 0 1 6.708 2.782 1 1 0 0 0 1.259-.127l2.46-2.46a.439.439 0 0 1 .619 0l3.652 3.65a.439.439 0 0 1 0 .62l-2.461 2.46a1 1 0 0 0 -.127 1.26 18.868 18.868 0 0 1 2.783 6.708 1 1 0 0 0 .981.8h3.474a.439.439 0 0 1 .439.437z"/><path d="m97 76.629a12.764 12.764 0 1 0 12.765 12.765 12.778 12.778 0 0 0 -12.765-12.765zm0 23.528a10.764 10.764 0 1 1 10.765-10.763 10.775 10.775 0 0 1 -10.765 10.763z"/></g></svg>