<?xml version="1.0"?>
<svg xmlns="http://www.w3.org/2000/svg" viewBox="0 0 128 128" width="512" height="512"><path d="M118.334,60H102V55.662a3.048,3.048,0,0,0-3.045-3.045H94.818a29.259,29.259,0,0,0-3.695-8.907l2.929-2.929a3.048,3.048,0,0,0,0-4.307l-5.193-5.192a3.047,3.047,0,0,0-4.306,0L81.624,34.21a29.349,29.349,0,0,0-8.907-3.695V26.379a3.048,3.048,0,0,0-3.045-3.045H62.328a3.048,3.048,0,0,0-3.045,3.045v4.136a29.359,29.359,0,0,0-8.907,3.7l-2.929-2.928a3.047,3.047,0,0,0-4.306,0l-5.193,5.192a3.048,3.048,0,0,0,0,4.307l2.929,2.929a29.288,29.288,0,0,0-3.695,8.907H33.045A3.048,3.048,0,0,0,30,55.662V60H13.667a5.006,5.006,0,0,0-5,5v38.666a5.006,5.006,0,0,0,5,5H52.333a5.006,5.006,0,0,0,5-5V92.5h8.113v6.775a1,1,0,0,0,1.638.77l7.583-6.279v9.9a5.006,5.006,0,0,0,5,5h38.667a5.007,5.007,0,0,0,5-5V65A5.006,5.006,0,0,0,118.334,60Zm-68.067-.667a15.733,15.733,0,0,1,31.466,0c0,.216-.024.444-.034.667H79.667a5.006,5.006,0,0,0-5,5V75.334l-7.558-6.691a1,1,0,0,0-1.663.749v6.442H57.333V65a5.006,5.006,0,0,0-5-5H50.3C50.291,59.778,50.267,59.55,50.267,59.334Z" fill="#e6e7e8"/><rect x="5.666" y="57" width="46.667" height="46.667" rx="4" ry="4" fill="#6dc9f7"/><path d="M48.333,57H9.667a4,4,0,0,0-4,4v3a4,4,0,0,1,4-4H48.333a4,4,0,0,1,4,4V61A4,4,0,0,0,48.333,57Z" fill="#fff"/><rect x="71.667" y="57" width="46.667" height="46.667" rx="4" ry="4" fill="#6dc9f7"/><polygon points="79.888 80.834 62.446 65.392 62.446 72.834 46.112 72.834 46.112 87.5 62.446 87.5 62.446 95.276 79.888 80.834" fill="#0089ef"/><path d="M26.533,71.692a1.691,1.691,0,0,1,1.084.386,1.185,1.185,0,0,1,.483.964,1.562,1.562,0,0,1-.145.6L21.278,88.011a1.573,1.573,0,0,1-.663.711,1.918,1.918,0,0,1-1.9,0,1.57,1.57,0,0,1-.664-.711L11.4,73.644a1.505,1.505,0,0,1-.145-.578,1.2,1.2,0,0,1,.494-.988,1.776,1.776,0,0,1,1.121-.386,1.471,1.471,0,0,1,.759.205,1.369,1.369,0,0,1,.543.614L19.711,84.83l5.544-12.319A1.317,1.317,0,0,1,26.533,71.692Z" fill="#fff"/><path d="M41.792,87.554q0,1.276-1.447,1.277H32.2q-1.472,0-1.471-1.277,0-1.23,1.471-1.23h2.507V75.332L32.39,76.754a1.24,1.24,0,0,1-.6.193,1.064,1.064,0,0,1-.856-.434,1.5,1.5,0,0,1-.349-.964,1.208,1.208,0,0,1,.626-1.085l3.737-2.314a2.678,2.678,0,0,1,1.374-.434,1.469,1.469,0,0,1,1.085.41,1.535,1.535,0,0,1,.409,1.133V86.324h2.531Q41.793,86.324,41.792,87.554Z" fill="#fff"/><path d="M97.564,71.728a1.691,1.691,0,0,1,1.084.386,1.185,1.185,0,0,1,.483.964,1.57,1.57,0,0,1-.145.6L92.309,88.048a1.58,1.58,0,0,1-.664.711,1.918,1.918,0,0,1-1.9,0,1.578,1.578,0,0,1-.663-.711L82.425,73.681a1.532,1.532,0,0,1-.145-.579,1.2,1.2,0,0,1,.5-.988,1.774,1.774,0,0,1,1.121-.386,1.471,1.471,0,0,1,.759.205,1.361,1.361,0,0,1,.542.614l5.545,12.319,5.544-12.319A1.317,1.317,0,0,1,97.564,71.728Z" fill="#fff"/><path d="M112.75,87.59q0,1.276-1.446,1.277h-9.16a1.309,1.309,0,0,1-.988-.374,1.277,1.277,0,0,1-.362-.927,1.835,1.835,0,0,1,.554-1.3l5.5-5.905a9.527,9.527,0,0,0,1.483-2.037,4.058,4.058,0,0,0,.47-1.844,2.248,2.248,0,0,0-.651-1.736,2.638,2.638,0,0,0-1.857-.6,5.087,5.087,0,0,0-1.916.374,9.57,9.57,0,0,0-1.868,1.024,2.983,2.983,0,0,1-.482.278,1.17,1.17,0,0,1-.482.108.882.882,0,0,1-.711-.386,1.434,1.434,0,0,1-.3-.916,1.379,1.379,0,0,1,.133-.626,1.606,1.606,0,0,1,.422-.507,8.376,8.376,0,0,1,2.483-1.337,8.6,8.6,0,0,1,2.844-.494,5.944,5.944,0,0,1,3.966,1.253,4.194,4.194,0,0,1,1.482,3.375,6.244,6.244,0,0,1-.626,2.76,12.233,12.233,0,0,1-2.122,2.88l-4.17,4.436H111.3Q112.75,86.36,112.75,87.59Z" fill="#fff"/><path d="M45.351,57c-.054-.548-.084-1.1-.084-1.666a16.733,16.733,0,0,1,33.466,0c0,.562-.03,1.118-.084,1.666H97V51.662a2.045,2.045,0,0,0-2.045-2.045H90.013a28.415,28.415,0,0,0-4.167-10.044l3.5-3.5a2.045,2.045,0,0,0,0-2.893l-5.193-5.193a2.045,2.045,0,0,0-2.892,0l-3.5,3.5a28.43,28.43,0,0,0-10.044-4.167V22.379a2.046,2.046,0,0,0-2.045-2.045H58.328a2.046,2.046,0,0,0-2.045,2.045v4.942a28.423,28.423,0,0,0-10.044,4.167l-3.5-3.5a2.045,2.045,0,0,0-2.892,0l-5.193,5.193a2.045,2.045,0,0,0,0,2.893l3.5,3.5a28.415,28.415,0,0,0-4.167,10.044H29.045A2.045,2.045,0,0,0,27,51.662V57Z" fill="#fa759e"/><path d="M100.666,102.666H90a1,1,0,0,0,0,2h10.666a1,1,0,0,0,0-2Z" fill="#3a2c60"/><path d="M114.333,56H98V51.662a3.048,3.048,0,0,0-3.045-3.045H90.818a29.259,29.259,0,0,0-3.695-8.907l2.929-2.929a3.048,3.048,0,0,0,0-4.307l-5.193-5.192a3.047,3.047,0,0,0-4.306,0L77.624,30.21a29.349,29.349,0,0,0-8.907-3.695V22.379a3.049,3.049,0,0,0-3.045-3.046H58.328a3.049,3.049,0,0,0-3.045,3.046v4.136a29.359,29.359,0,0,0-8.907,3.7l-2.929-2.928a3.047,3.047,0,0,0-4.306,0l-5.193,5.192a3.048,3.048,0,0,0,0,4.307l2.929,2.929a29.288,29.288,0,0,0-3.695,8.907H29.045A3.048,3.048,0,0,0,26,51.662V56H9.666a5.007,5.007,0,0,0-5,5V99.666a5.006,5.006,0,0,0,5,5H48.333a5.006,5.006,0,0,0,5-5V88.5h8.113v6.776a1,1,0,0,0,1.637.77l7.584-6.279v9.9a5.006,5.006,0,0,0,5,5h9.5a1,1,0,0,0,0-2h-9.5a3,3,0,0,1-3-3V88.111L80.525,81.6a1,1,0,0,0,.026-1.52l-7.884-6.979V61a3,3,0,0,1,3-3h38.666a3,3,0,0,1,3,3V99.666a3,3,0,0,1-3,3H105.5a1,1,0,0,0,0,2h8.833a5.006,5.006,0,0,0,5-5V61A5.006,5.006,0,0,0,114.333,56ZM28,51.662a1.046,1.046,0,0,1,1.045-1.045h4.942a1,1,0,0,0,.98-.8,27.333,27.333,0,0,1,4.021-9.692,1,1,0,0,0-.127-1.258l-3.5-3.5a1.047,1.047,0,0,1,0-1.479L40.555,28.7a1.045,1.045,0,0,1,1.478,0l3.5,3.5a1,1,0,0,0,1.259.127A27.336,27.336,0,0,1,56.482,28.3a1,1,0,0,0,.8-.98V22.379a1.046,1.046,0,0,1,1.045-1.046h7.344a1.046,1.046,0,0,1,1.045,1.046v4.942a1,1,0,0,0,.8.98,27.308,27.308,0,0,1,9.69,4.021,1,1,0,0,0,1.26-.127l3.5-3.5a1.045,1.045,0,0,1,1.478,0l5.193,5.192a1.047,1.047,0,0,1,0,1.479l-3.5,3.5a1,1,0,0,0-.127,1.258,27.348,27.348,0,0,1,4.021,9.692,1,1,0,0,0,.98.8h4.942A1.046,1.046,0,0,1,96,51.662V56H79.72c.009-.224.013-.447.013-.667a17.733,17.733,0,0,0-35.466,0c0,.22,0,.443.013.667H28Zm23.333,48a3,3,0,0,1-3,3H9.666a3,3,0,0,1-3-3V61a3,3,0,0,1,3-3H48.333a3,3,0,0,1,3,3V71.833H46.112a1,1,0,0,0-1,1V87.5a1,1,0,0,0,1,1h5.221ZM63.446,93.15V87.5a1,1,0,0,0-1-1H47.112V73.833H62.446a1,1,0,0,0,1-1v-5.22l14.905,13.2ZM70.667,61V71.334l-7.558-6.691a1,1,0,0,0-1.663.749v6.441H53.333V61a5.006,5.006,0,0,0-5-5H46.3c-.01-.222-.034-.45-.034-.667a15.733,15.733,0,0,1,31.466,0c0,.217-.024.445-.034.667H75.667A5.006,5.006,0,0,0,70.667,61Z" fill="#3a2c60"/></svg>
