<svg clip-rule="evenodd" fill-rule="evenodd" height="2.667in" image-rendering="optimizeQuality" shape-rendering="geometricPrecision" text-rendering="geometricPrecision" viewBox="0 0 2667 2667" width="2.667in" xmlns="http://www.w3.org/2000/svg"><g id="Layer_x0020_1"><circle cx="1333" cy="1333" fill="#f44c71" r="1333"/><path d="m1357 2072h-850c-14 0-26-12-26-26v-650c0-10 5-19 13-24 9-4 19-4 27 1l172 109v-87c0-9 5-18 13-23 9-4 19-4 27 1l172 109v-87c0-9 5-18 14-23 8-4 18-4 26 1l172 109v-87c0-9 6-18 14-23 8-4 19-4 27 1l212 135c8 5 12 13 12 22v516c2 15-10 26-25 26zm723-1151c-30 0-57-12-77-33-8 1-17 0-25-1-11 5-23 8-35 8-31 0-58-18-72-44-9 1-19 1-28 1-70 0-145-23-145-75 0-46 59-70 120-75 5-36 34-65 71-69 20-25 50-38 82-38 16 0 32 3 46 10 14-6 28-9 43-9 59 0 106 48 106 107 0 14-2 27-7 40 17 19 27 44 27 71 0 59-48 107-106 107zm-606 556 48-365h286l42 365zm52-391 17-128c2-13 13-23 26-23h195c14 0 25 10 26 24l15 127zm362 986h-97v-197c0-7-6-13-13-13h-232c-7 0-13 6-13 13v197h-124v-568h479c14 0 26 11 26 26v516c0 15-12 26-26 26zm-56-306c7 0 13-6 13-13v-100c0-7-6-13-13-13h-104c-7 0-13 6-13 13v100c0 7 6 13 13 13zm-90-26v-74h77v74zm-147 26c8 0 13-6 13-13v-100c0-7-6-13-13-13h-103c-7 0-13 6-13 13v100c0 7 6 13 13 13zm-90-26v-74h77v74zm260 332h-206v-183h206zm-520-194c8 0 14-6 14-13v-153c0-8-6-14-14-14h-228c-7 0-13 6-13 14v153c0 7 6 13 13 13zm-215-27v-126h202v126zm-184 27c7 0 13-6 13-13v-153c0-8-6-14-13-14h-228c-7 0-13 6-13 14v153c0 7 6 13 13 13zm-215-27v-126h201v126z" fill="#fff"/></g></svg>