<svg clip-rule="evenodd" fill-rule="evenodd" height="2.667in" image-rendering="optimizeQuality" shape-rendering="geometricPrecision" text-rendering="geometricPrecision" viewBox="0 0 2667 2667" width="2.667in" xmlns="http://www.w3.org/2000/svg"><g id="Layer_x0020_1"><circle cx="1333" cy="1333" fill="#f44c71" r="1333"/><path d="m1761 2186h-855c-126 0-229-69-229-196v-95h299c8 0 14-6 14-13s-6-13-14-13h-299v-202h299c8 0 14-6 14-13 0-8-6-14-14-14h-299v-820c0-15 12-27 26-27h718c7 0 13 3 18 7l542 498c5 5 8 12 8 19v323h-299c-7 0-13 6-13 14 0 7 6 13 13 13h299v202h-299c-7 0-13 6-13 13s6 13 13 13h299v95c1 127-102 196-228 196zm-743-1497h-298c-15 0-27-12-27-26v-70c0-62 51-113 113-113h126c62 0 113 51 113 113v70c0 14-12 26-27 26zm-272 78v-51h246v51zm788 665c30 0 59-11 80-33 45-44 44-116 0-160l-219-220c-22-21-50-33-81-33-30 0-58 12-80 33-21 22-33 51-33 81s12 59 33 80l219 219c22 21 50 33 81 33zm-201 608c109 0 198-89 198-198 0-30-19-70-33-97-27-49-59-98-90-145-21-31-43-64-61-98-3-4-7-6-12-6s-9 2-11 6c-19 34-42 67-64 99-31 47-64 95-90 144-15 27-34 66-34 97 0 109 88 198 197 198zm13-487c13 21 27 42 40 62 30 46 119 176 119 227 0 95-77 172-172 172-94 0-171-77-171-172 0-52 89-180 120-226l42-63 11-17z" fill="#fff"/></g></svg>