<svg clip-rule="evenodd" fill-rule="evenodd" height="2.667in" image-rendering="optimizeQuality" shape-rendering="geometricPrecision" text-rendering="geometricPrecision" viewBox="0 0 2667 2667" width="2.667in" xmlns="http://www.w3.org/2000/svg"><g id="Layer_x0020_1"><circle cx="1333" cy="1333" fill="#f44c71" r="1333"/><circle cx="1333" cy="1333" fill="#f10" r="1333"/><path d="m1215 1468h-516c-15 0-27-12-27-26v-620c0-15 12-26 27-26h423c13 0 24 9 26 22l93 620c1 8-1 15-6 21s-12 9-20 9zm46-79-25-161v-406c0-15 12-26 27-26h85c14 0 26 11 26 26v499c-2 6-4 12-4 19 0 16-7 41-17 66l-2-1c-27-9-56-15-85-16zm-279-43c-4 0-7 0-11-2-13-6-19-22-13-35l8-19 1-1 34-78 1-1 9-22c6-13 22-19 35-13s20 21 14 34l-1 2 24 14v-56c0-14 12-26 27-26h7l37 246h-27c-5 4-11 6-17 6-5 0-9-1-13-3l-5-3h-9v-5l-81-47c-5 6-12 9-20 9zm949-68c-102 0-194-60-234-153h-18c-14 0-26-11-26-26v-160c0-14 12-26 26-26h76c9 0 17 4 22 11l48 72h335c14 0 26 12 26 27 0 141-115 255-255 255zm-632 446c-14 0-25-11-26-25l-4-96c-1-10 4-18 11-23l53-36c2-11 5-45 9-52 15-28 55-109 55-152 0-8 4-15 10-20l207-166c4-3 9-5 15-6l26-2c7 4 15 6 24 6h1c24 46 59 84 102 111l-92 12-139 139 22 82c-100 2-182 78-194 175h-54c0 17 6 53-26 53zm279 147c-96 0-174-78-174-174s78-174 174-174 174 78 174 174-78 174-174 174zm0-95c43 0 79-36 79-79 0-44-36-79-79-79-44 0-79 35-79 79 0 43 35 79 79 79zm0-131c29 0 53 23 53 52s-24 53-53 53-53-24-53-53 24-52 53-52zm-774 226c-96 0-174-78-174-174s78-174 174-174 174 78 174 174-78 174-174 174zm0-95c44 0 79-36 79-79 0-44-35-79-79-79-43 0-79 35-79 79 0 43 36 79 79 79zm0-131c29 0 53 23 53 52s-24 53-53 53-53-24-53-53 24-52 53-52zm-52-321h176c14 0 26 12 26 26v39h-202zm0-27v-133h77c14 0 26 12 26 27v106zm331-11-46-26-12 29 58 34zm296 438h-30c2-11 3-21 3-27h25c0 9 1 18 2 27zm-134 0h-242c1-9 2-18 2-27 0-111-90-201-201-201s-201 90-201 201c0 9 1 18 2 27h-98c-15 0-27-12-27-27v-450c0-14 12-26 27-26h139v221c0 29 23 53 53 53h516c16 0 30-7 40-18 10-12 15-28 12-43l-2-18c26 1 53 6 78 14-9 20-18 38-24 49s-9 33-11 50l-43 28c-15 11-24 28-23 47zm-520-309h460l-86-567h-374z" fill="#fff"/></g></svg>