<svg clip-rule="evenodd" fill-rule="evenodd" height="2.667in" image-rendering="optimizeQuality" shape-rendering="geometricPrecision" text-rendering="geometricPrecision" viewBox="0 0 2667 2667" width="2.667in" xmlns="http://www.w3.org/2000/svg"><g id="Layer_x0020_1"><circle cx="1333" cy="1333" fill="#378b4e" r="1333"/><path d="m1966 2186h-1344c-15 0-27-12-27-26v-268c0-15 12-26 27-26h94v-425l-41 24c-6 4-13 6-20 6-14 0-27-7-35-19-11-19-5-44 14-55l630-374c4-4 9-7 14-9l77-45c19-12 43-5 54 13 12 19 5 44-14 55l-65 39v254h69l3-242c0-14 12-26 26-26h539c14 0 26 12 26 27v1071c-1 14-12 26-27 26zm79-1275h-257v-346h257c9 0 17 4 22 12 5 7 6 16 3 24l-56 137 56 137c3 8 2 17-3 25-5 7-13 11-22 11zm-456 125v-529c0-15 12-27 27-27h119c14 0 26 12 26 27v529zm-794 830h68v-242c0-14 12-26 26-26h242v-242c0-14 12-26 26-26h94v-207l-456 271z" fill="#fff"/></g></svg>