<svg clip-rule="evenodd" fill-rule="evenodd" height="2.667in" image-rendering="optimizeQuality" shape-rendering="geometricPrecision" text-rendering="geometricPrecision" viewBox="0 0 2667 2667" width="2.667in" xmlns="http://www.w3.org/2000/svg"><g id="Layer_x0020_1"><circle cx="1333" cy="1333" fill="#1d81ce" r="1333"/><path d="m1905 2186h-172v-583c118 57 199 178 199 318v239c0 14-12 26-27 26zm-462-384c-8 0-16-4-21-11l-71-96v-104l109-79c4-3 10-5 15-5v-61c-37 18-77 28-119 31l-5 1h-2c-5 0-10 0-16 0-3 0-5 0-8 0-3 0-6 0-9 0-3 0-5-1-8-1h-1c-2 0-5 0-7-1h-2c-2 0-3 0-5 0l-4-1h-2-2c-29-5-57-13-83-24v57c5 0 10 1 15 4l108 80v104l-70 96c-5 6-13 10-22 10h-1c-9 0-17-5-21-13l-106-182c-7-12-4-26 6-34l38-31v-120c-89-59-148-161-148-276v-24h-14c-15 0-27-12-27-27v-132c0-14 12-26 27-26h692c15 0 27 12 27 26v132c0 15-12 27-26 27h-15v25c0 110-54 207-137 268v127l38 31c9 8 12 22 6 33l-106 183c-4 8-12 13-21 13-1 0-1 0-2 0zm-210-892v-403c0-15 12-27 26-27h148c14 0 26 12 26 27v403zm227-305c52 22 98 57 133 101 46 58 72 130 72 204h-99v-108c0-9-7-17-16-17s-17 8-17 17v108h-73zm-459 305c1-73 26-146 72-204 35-44 81-79 133-101v305h-73v-108c0-9-7-17-16-17s-17 8-17 17v108zm53 212v25c0 99 53 186 131 236 2 0 3 1 4 2 44 26 94 40 145 40 54 0 107-16 153-46 1-1 2-1 2-2 74-50 123-135 123-230v-25zm284 960c7 0 13-6 13-14v-43c0-7-6-13-13-13s-13 6-13 13v43c0 8 6 14 13 14zm0-186c7 0 13-6 13-13v-44c0-7-6-13-13-13s-13 6-13 13v44c0 7 6 13 13 13zm369 290h-216c61-89 78-228 85-321 5-69 5-139 4-209v-11l15-25c9-17 9-37 0-53 39 2 77 10 112 24zm-247 0h-253c-89-108-98-340-96-515l76 132c9 15 26 25 44 26h2c17 0 33-8 43-21l63-85 62 84c10 14 25 22 42 22h3c18-1 34-11 43-27l66-112c1 169-8 391-95 496zm-285 0h-216v-595c38-15 80-23 123-24-9 16-10 36 0 53l4 8v28c-1 70 0 140 5 209 6 94 23 232 84 321zm-242 0h-172c-15 0-26-12-26-26v-239c0-140 80-260 198-318z" fill="#fff"/></g></svg>