<svg clip-rule="evenodd" fill-rule="evenodd" height="2.667in" image-rendering="optimizeQuality" shape-rendering="geometricPrecision" text-rendering="geometricPrecision" viewBox="0 0 2667 2667" width="2.667in" xmlns="http://www.w3.org/2000/svg"><g id="Layer_x0020_1"><circle cx="1333" cy="1333" fill="#f10" r="1333"/><path d="m741 837v-295h-261v295zm174 1288v-295h-435v295zm790 0v-295h-762v295zm482-295h-455v295h455zm-262-322v294h262v-294zm-309 0v295h282v-295zm-538 0v294h511v-294zm-309 0v295h281v-295zm-28 294v-294h-261v294zm394-321v-295h-655v295zm356 0v-295h-329v295zm696-295h-668v295h668zm-262-349h262v-295h-262zm262 27h-455v295h455zm-571-322v295h282v-295zm-538 295h511v-295h-511zm627 27h-733v295h733zm-936-322v295h189 92v-295zm-14 322h-275v295h465v-295z" fill="#fff"/></g></svg>