<svg clip-rule="evenodd" fill-rule="evenodd" height="2.667in" image-rendering="optimizeQuality" shape-rendering="geometricPrecision" text-rendering="geometricPrecision" viewBox="0 0 2667 2667" width="2.667in" xmlns="http://www.w3.org/2000/svg"><g id="Layer_x0020_1"><circle cx="1333" cy="1333" fill="#00ab94" r="1333"/><path d="m1447 2186c-203 0-368-165-368-368v-239h-84c-28 0-50-22-50-50 0-27 23-49 50-49h221c27 0 49 22 49 49 0 28-22 50-49 50h-84v239c0 174 141 315 315 315s315-141 315-315v-202l-193 193c-10 10-27 10-37 0-11-10-11-27 0-37l238-239c8-8 19-10 29-6s16 14 16 25v266c0 203-165 368-368 368zm-368-832h-84c-27 0-50 23-50 50 0 24 18 45 42 49h1 2 5 221 5 1 2c24-4 41-25 41-49 0-27-22-50-49-50h-84v-120c80-12 142-82 142-166 0-93-76-169-169-169s-168 76-168 169c0 84 61 154 142 166zm-163-590v-94c0-105 85-190 189-190 105 0 190 85 190 190v94zm1 251-64-190c-3-8-2-17 3-24s13-11 22-11h454c9 0 17 4 22 11s6 16 3 24l-64 190c-23-82-99-142-188-142s-165 60-188 142z" fill="#fff"/></g></svg>