<svg clip-rule="evenodd" fill-rule="evenodd" height="2.667in" image-rendering="optimizeQuality" shape-rendering="geometricPrecision" text-rendering="geometricPrecision" viewBox="0 0 2667 2667" width="2.667in" xmlns="http://www.w3.org/2000/svg"><g id="Layer_x0020_1"><circle cx="1333" cy="1333" fill="#f44c71" r="1333"/><path d="m654 1877v-152c0-41 11-80 31-113l-39-148c-53-29-94-79-111-142-16-60-8-123 23-177 22-38 54-69 92-89l60-226c-9-18-17-36-22-56-34-124 40-252 164-286 111-29 224 26 271 126l228 42c4 0 7-1 11-1h129c-6 8-11 15-15 23l-142 245c-11 20-19 41-24 63-30-10-56-28-76-51l-184-33c-8 6-17 12-26 17l-61 227c10 17 17 35 22 55 17 63 7 127-24 179l47 176c49 40 81 101 81 169v152zm1483-632s-1 0-2 0l-153-11c-4 0-8-1-12-4l-100-58 89-155 101 59c3 1 6 4 8 6l91 121c6 8 7 19 2 28s-14 14-24 14zm-432-41c-5 0-10-1-14-3l-55-32c-1-1-1-1-2-2l-94-66c-11-8-15-23-8-35l167-288c7-12 21-16 34-11l105 49c1 0 2 0 3 1l53 31c5 3 9 7 11 12l44 100c3 8 3 17-1 24l-113 195c-4 8-12 13-20 14l-107 11c-1 0-2 0-3 0zm-113 69c-5 0-10-1-14-3l-176-103c-74-42-94-145-45-230l142-246c49-85 149-119 222-77l177 102c6 4 11 9 12 16 2 7 1 14-2 21l-31 54-25-15h-2s0 0-1-1l-105-48c-25-12-55-2-68 22-49 83-110 190-167 288-14 24-7 54 15 70l95 66c2 2 1 1 4 3l23 13-32 55c-3 6-9 11-16 13-2 0-4 0-6 0zm-335-581-115-21c10 55 1 111-27 159-6 10-12 19-18 27l103 19c-5-16-8-34-8-51 0-54 25-102 65-133zm-506 190-40 152c56-13 115-4 166 25 16 10 32 21 45 35l41-153c-17 4-34 6-51 6-40 0-80-11-116-31-16-10-31-21-45-34zm162-63c9 0 18-1 27-3 27-7 50-25 64-49 14-25 18-53 11-81-15-56-73-89-130-74-27 7-50 24-64 49-14 24-18 53-10 80 7 27 24 50 49 64 16 10 34 14 53 14zm0-185c36 0 67 24 77 59 5 21 3 42-8 61-11 18-28 31-49 36-20 6-42 3-60-8-18-10-31-27-37-48-5-20-3-42 8-60 11-19 28-32 48-37 7-2 14-3 21-3zm-206 854 20 75c38-35 89-55 144-55 26 0 50 4 72 12l-23-89c-27 26-61 45-100 55-20 6-40 9-60 9-18 0-36-2-53-7zm53-121c9 0 19-1 28-3 27-8 50-25 64-50 14-24 18-53 10-80-15-56-73-90-129-75-27 8-50 25-64 50-14 24-18 53-11 80s25 50 49 64c17 9 35 14 53 14zm1-185c36 0 67 24 76 59 6 20 3 42-8 60-10 19-28 32-48 37-21 6-42 3-61-8-18-10-31-28-36-48-6-21-3-42 8-61 10-18 27-31 48-36 7-2 14-3 21-3zm453 1004h-685c-15 0-27-12-27-26v-115c0-14 12-26 27-26h685c15 0 27 12 27 26v115c0 14-12 26-27 26zm-615-194v-62c0-14 12-26 27-26h491c15 0 27 12 27 26v62zm272-183c65 0 117-52 117-117 0-64-52-116-117-116-64 0-116 52-116 116 0 65 52 117 116 117zm0-207c50 0 91 41 91 91s-41 90-91 90c-49 0-90-40-90-90s41-91 90-91z" fill="#fff"/></g></svg>