<svg clip-rule="evenodd" fill-rule="evenodd" height="2.667in" image-rendering="optimizeQuality" shape-rendering="geometricPrecision" text-rendering="geometricPrecision" viewBox="0 0 2667 2667" width="2.667in" xmlns="http://www.w3.org/2000/svg"><g id="Layer_x0020_1"><circle cx="1333" cy="1333" fill="#f10" r="1333"/><path d="m1307 1205c-99 0-180-80-180-179 0-100 81-180 180-180s180 80 180 180c0 99-81 179-180 179zm218 981h-446c-15 0-27-12-27-26v-83c0-60 49-110 110-110h280c61 0 110 49 110 110v83c0 14-12 26-27 26zm-631-812c-3 0-5-1-8-1-6-2-12-7-15-13-23-39-29-85-17-128 12-44 40-81 79-104l168-96c1 59 28 112 70 148v38l-264 152c-4 2-9 4-13 4zm773-53c-29 0-58-8-84-23l-150-86v-23c48-37 79-93 80-157l293 168c45 27-36 102-94 116-15 3-30 5-45 5zm-432-841c94 0 170 77 170 170v194c-29-16-62-25-98-25-35 0-69 9-98 25v-337c0-15 12-27 26-27zm-38 1461v-741c32 20 70 32 110 32 36 0 70-9 100-26v735zm110-849c37 0 67-29 67-66s-30-67-67-67-67 30-67 67c0 36 30 66 67 66zm0-107c22 0 40 19 40 41s-18 40-40 40-40-18-40-40 18-41 40-41z" fill="#fff"/></g></svg>