<svg clip-rule="evenodd" fill-rule="evenodd" height="2.667in" image-rendering="optimizeQuality" shape-rendering="geometricPrecision" text-rendering="geometricPrecision" viewBox="0 0 2667 2667" width="2.667in" xmlns="http://www.w3.org/2000/svg"><g id="Layer_x0020_1"><circle cx="1333" cy="1333" fill="#1d81ce" r="1333"/><path d="m755 1106h540v64c0 148-121 270-270 270s-270-122-270-270zm596 0v-39-63h-652v63 39 64c0 179 146 325 326 325s326-146 326-325zm-718 1001v-486l-22 16c-82 57-131 150-131 251v219zm155-215v-96h-127v96zm233-158-155-152h-6c-66 0-128-3-191 24l-8 3v160h140c8 0 14 6 14 13v124c0 8-6 14-14 14h-140v188h360zm14-25 140-146v-73c-46 21-97 33-150 33-50 0-98-10-141-29v68zm382-88v486h153v-219c0-101-49-194-131-251zm-28 175h-127v96h127zm-9-191c-33-14-68-21-104-23-25-1-50 1-75 0h-6l-146 152v374h340v-188h-141c-7 0-13-6-13-14v-124c0-7 6-13 13-13h141v-161zm360-920c-54 15-103 43-143 83-5 5-11 6-17 2l-56-32-70 120 56 33c5 3 8 10 7 16-8 27-11 54-11 82s3 56 11 83c1 6-2 12-7 16l-56 32 70 121 56-33c6-3 13-2 17 3 40 40 89 68 143 82 6 2 10 7 10 14v65h140v-65c0-6 5-12 11-13 54-14 103-43 143-83 4-4 11-5 16-2l57 33 70-121-57-33c-5-3-8-10-6-16 8-27 11-54 11-82s-3-56-11-83c-2-6 1-12 6-15l57-33-70-121-57 33c-5 3-12 2-16-3-40-39-89-68-144-82-5-2-10-7-10-13v-66h-140v65c0 6-4 12-10 13zm80 158c81 0 147 66 147 147s-66 147-147 147-147-66-147-147 66-147 147-147zm-881 134v-308l-19 8c-109 42-180 147-180 264v36h109v-144c0-8 6-14 13-14 8 0 14 6 14 14v144zm144 0v-418h-116v88 4 326zm28-308v308h63v-144c0-8 6-14 13-14 8 0 14 6 14 14v144h108v-37c0-116-71-221-179-264z" fill="#fff"/></g></svg>