<svg clip-rule="evenodd" fill-rule="evenodd" height="2.667in" image-rendering="optimizeQuality" shape-rendering="geometricPrecision" text-rendering="geometricPrecision" viewBox="0 0 2667 2667" width="2.667in" xmlns="http://www.w3.org/2000/svg"><g id="Layer_x0020_1"><circle cx="1333" cy="1333" fill="#1d81ce" r="1333"/><path d="m1333 2061c-182 0-355-72-485-202-131-131-202-303-202-486v-6h215c7 0 13-6 13-13s-6-13-13-13h-215v-462h215c7 0 13-6 13-13s-6-13-13-13h-215v-101c0-81 65-146 145-146h1084c81 0 146 65 146 146v101h-215c-7 0-13 6-13 13s6 13 13 13h215v462h-215c-7 0-13 6-13 13s6 13 13 13h215v6c0 183-72 355-202 486-130 130-303 202-486 202zm744-732h-29v-438h29c60 0 109 49 109 109v220c0 60-49 109-109 109zm-1458 0h-29c-61 0-110-49-110-109v-220c0-60 49-109 110-109h29zm1081-450c7 0 13-6 13-13s-6-13-13-13h-189c-7 0-13 6-13 13s6 13 13 13zm-272 0c7 0 13-5 13-13 0-7-6-13-13-13h-189c-7 0-13 6-13 13s6 13 13 13zm-273 0c8 0 14-6 14-13s-6-13-14-13h-188c-7 0-13 6-13 13s6 13 13 13zm500 923c7 0 13-6 13-13v-189c0-7-6-13-13-13s-13 6-13 13v189c0 7 6 13 13 13zm-161 0c7 0 13-6 13-13v-189c0-7-6-13-13-13s-13 6-13 13v189c0 7 6 13 13 13zm-161 0c8 0 13-6 13-13v-189c0-7-5-13-13-13-7 0-13 6-13 13v189c0 7 6 13 13 13zm-160 0c7 0 13-6 13-13v-189c0-7-6-13-13-13-8 0-13 6-13 13v189c0 7 5 13 13 13zm-161 0c7 0 13-6 13-13v-189c0-7-6-13-13-13s-13 6-13 13v189c0 7 6 13 13 13zm688-435c7 0 13-6 13-13s-6-13-13-13h-189c-7 0-13 6-13 13s6 13 13 13zm-272 0c7 0 13-5 13-13 0-7-6-13-13-13h-189c-7 0-13 6-13 13s6 13 13 13zm-273 0c8 0 14-6 14-13s-6-13-14-13h-188c-7 0-13 6-13 13s6 13 13 13zm530-111c7 0 12-5 12-12v-268c0-6-5-12-11-12h-705c-6 0-11 6-11 12v268c0 6 5 12 11 12z" fill="#fff"/></g></svg>