<svg clip-rule="evenodd" fill-rule="evenodd" height="2.667in" image-rendering="optimizeQuality" shape-rendering="geometricPrecision" text-rendering="geometricPrecision" viewBox="0 0 2667 2667" width="2.667in" xmlns="http://www.w3.org/2000/svg"><g id="Layer_x0020_1"><circle cx="1333" cy="1333" fill="#f10" r="1333"/><path d="m894 1328v-187h-368v187h200 5zm27 671v188h368v-188zm-27 0h-368v188h368zm218-214h-368v187h368zm-218-28v-187h-368v187zm395 0v-187h-368v187zm475-1053 153 152 192-192c21-21 32-48 32-76 0-29-11-56-32-77-42-41-110-41-152 0zm-65 118 100 100c1 1 2 2 3 2l23 24 72-72-152-153-72 73 24 24c1 0 1 1 2 2zm-155 174c-22 22-22 59 0 81s59 22 81 0l145-145-81-81-91 91-1 1c0 1-1 2-1 2-1 1-1 1-2 2l-1 1zm-384 199c0 71 28 138 78 189 50 50 117 77 188 77 29 0 58-4 86-13l1-1 1-1c2-1 4-1 6-1l1-1h2c34-14 66-34 92-60l200-200-129-129-42 41c-15 16-37 25-59 25-23 0-44-9-60-25-33-33-33-86 0-119l41-42-128-128-200 200c-50 50-78 117-78 188zm-20 160v188h368v-65l-17 4c-22 5-43 7-65 7-79 0-153-30-208-86-13-13-25-27-35-42l-4-6zm-28 0h-200c-2 0-3 1-5 1h-163v187h368z" fill="#fff"/></g></svg>