<svg clip-rule="evenodd" fill-rule="evenodd" height="2.667in" image-rendering="optimizeQuality" shape-rendering="geometricPrecision" text-rendering="geometricPrecision" viewBox="0 0 2667 2667" width="2.667in" xmlns="http://www.w3.org/2000/svg"><g id="Layer_x0020_1"><circle cx="1333" cy="1333" fill="#f10" r="1333"/><path d="m990 1899 39-203h642l19 97 289-425h-129c-7 0-15-3-20-9l-246-267-233-93c-4-1-7-3-9-6l-144-151-207-124 79-191c3-6 4-13 4-19l873 505c7 4 15 8 22 12 40 22 86 46 86 106v205c2 6 1 12-2 18l-349 512 7 33zm-169-887h-66v192c17 4 33 13 45 26 19 18 30 44 30 70 0 55-45 100-100 100-51 0-93-38-99-89-1-14 9-28 24-29 14-2 27 9 29 24 2 23 22 41 46 41 26 0 47-21 47-46 0-13-5-25-14-34s-21-13-34-13c-7 0-14-3-18-8-5-5-8-12-8-19v-215h-66c-8 0-17-5-22-12s-6-17-2-25l200-478c4-10 14-17 24-17h184c9 0 17 5 22 12 5 8 6 17 3 25l-200 479c-4 9-14 16-25 16zm851-3c4 0 9-2 11-6 4-6 2-14-4-18l-414-248c-6-4-14-2-18 5-4 6-2 14 5 18l413 248c2 1 4 1 7 1zm266 1177h-1176c-14 0-26-12-26-26v-208c0-15 12-27 26-27h1176c15 0 27 12 27 27v208c0 14-12 26-27 26zm-904-516 50-254h532l50 254zm55-281 50-254h422l50 254zm55-281 36-181c2-12 13-21 26-21h16l100 106c6 5 12 9 19 12l212 84z" fill="#fff"/></g></svg>