<svg clip-rule="evenodd" fill-rule="evenodd" height="2.667in" image-rendering="optimizeQuality" shape-rendering="geometricPrecision" text-rendering="geometricPrecision" viewBox="0 0 2667 2667" width="2.667in" xmlns="http://www.w3.org/2000/svg"><g id="Layer_x0020_1"><circle cx="1333" cy="1333" fill="#7ed63f" r="1333"/><path d="m603 701h189v-14-5c0-53-42-97-96-97-53 0-96 44-96 97v1 2c1 1 1 3 1 5zm310 1289c0-51-41-93-92-93h-249c-51 0-92 42-92 93v92h433zm39-336 172-243h-309v243zm287 0 172-243h-253l-172 243zm287 0 172-243h-253l-172 243zm34 0h291v-243h-119zm534 243h-248c-51 0-92 42-92 93v92h433v-92c0-51-42-93-93-93zm-217-1196h189v-14-5c0-53-42-97-96-97-53 0-96 44-96 97 0 3 0 5 1 8zm2 28v1141h182v-1141zm-145 107-180 405h297v-405zm-287 0-179 405h256l180-405zm-287 0-180 405h257l180-405zm-345 0v405h135l180-405zm-27-107h-183v1141h183z" fill="#fff"/></g></svg>