<svg clip-rule="evenodd" fill-rule="evenodd" height="2.667in" image-rendering="optimizeQuality" shape-rendering="geometricPrecision" text-rendering="geometricPrecision" viewBox="0 0 2667 2667" width="2.667in" xmlns="http://www.w3.org/2000/svg"><g id="Layer_x0020_1"><circle cx="1333" cy="1333" fill="#378b4e" r="1333"/><path d="m2160 2146h-1653c-15 0-27-12-27-27v-1571c0-15 12-27 27-27h462v573c0 4 3 9 7 11 2 1 4 2 7 2 2 0 4-1 6-2l327-203 362 203c4 3 9 2 13 0s6-7 6-11v-573h463c14 0 26 12 26 27v1571c0 15-12 27-26 27zm-323-373c7 0 13-6 13-13s-6-13-13-13h-232c-7 0-13 6-13 13s6 13 13 13zm-112-107h2s1-1 1-1l91-48c6-3 9-11 6-17-4-7-12-9-18-6l-72 38v-137c0-8-6-13-14-13-7 0-13 5-13 13v137l-72-38c-7-3-14-1-18 6-3 6-1 14 6 17l89 47 2 1c2 1 4 2 6 2s3-1 4-1zm-537 158c7 0 13-6 13-13s-6-13-13-13h-542c-7 0-13 6-13 13s6 13 13 13zm0-368c7 0 13-6 13-13s-6-13-13-13h-542c-7 0-13 6-13 13s6 13 13 13zm812 449c7 0 13-6 13-13v-530c0-7-6-13-13-13h-557c-7 0-13 6-13 13v530c0 7 6 13 13 13zm-544-26v-503h531v503zm-460-1358h675v550l-349-196c-1-1-4-1-6-1s-5 0-7 2l-313 194z" fill="#fff"/></g></svg>