<svg clip-rule="evenodd" fill-rule="evenodd" height="2.667in" image-rendering="optimizeQuality" shape-rendering="geometricPrecision" text-rendering="geometricPrecision" viewBox="0 0 2667 2667" width="2.667in" xmlns="http://www.w3.org/2000/svg"><g id="Layer_x0020_1"><circle cx="1333" cy="1333" fill="#ff700d" r="1333"/><path d="m2160 2146h-1653c-15 0-27-12-27-27v-1571c0-15 12-27 27-27h584v407c0 8 6 14 13 14h459c7 0 13-6 13-14v-407h584c14 0 26 12 26 27v1571c0 15-12 27-26 27zm-724-170c7 0 13-6 13-13s-6-13-13-13h-113c-7 0-13 6-13 13s6 13 13 13zm599 0c7 0 13-6 13-13s-6-13-13-13h-295c-7 0-13 6-13 13s6 13 13 13zm-396 0c7 0 13-6 13-13s-6-13-13-13h-113c-7 0-13 6-13 13s6 13 13 13zm-519-152c7 0 13-6 13-13v-470c0-7-6-13-13-13h-467c-7 0-13 6-13 13v470c0 7 6 13 13 13zm-454-26v-444h441v444zm161-105c3 0 6-1 8-4l208-207c5-5 5-14 0-19s-14-5-19 0l-198 198-78-78c-5-5-13-5-18 0s-5 14 0 19l87 87c3 3 6 4 10 4zm693 101h1 1l145-77c7-3 9-11 6-17-3-7-11-10-18-6l-126 66v-232c0-7-6-13-14-13-7 0-13 6-13 13v232l-126-66c-7-3-15-1-18 6-3 6-1 14 6 17l143 76 3 1c2 1 4 1 6 1h1l2-1zm379 1h1s1 0 2-1h2l145-77c7-3 9-11 6-17-4-7-11-10-18-6l-127 66v-232c0-7-6-13-13-13s-13 6-13 13v232l-126-66c-7-3-15-1-18 6-4 6-1 14 5 17l145 76 1 1c2 1 4 1 7 1zm-782-1274h433v394h-433z" fill="#fff"/></g></svg>