<svg clip-rule="evenodd" fill-rule="evenodd" height="2.667in" image-rendering="optimizeQuality" shape-rendering="geometricPrecision" text-rendering="geometricPrecision" viewBox="0 0 2667 2667" width="2.667in" xmlns="http://www.w3.org/2000/svg"><g id="Layer_x0020_1"><circle cx="1333" cy="1333" fill="#378b4e" r="1333"/><path d="m2037 2027h-1407c-83 0-150-67-150-149v-123c0-14 12-26 27-26h1653c14 0 26 12 26 26v123c0 82-67 149-149 149zm-906-325v-1036c0-14 12-26 26-26h353c14 0 26 12 26 26v1036zm432-788c141 45 269 133 362 251 107 135 164 297 164 468v69h-262v-332c0-7-5-13-13-13-7 0-13 6-13 13v332h-238zm-985 788v-69c0-171 57-333 163-468 94-117 221-206 363-251v788h-239v-332c0-7-5-13-13-13-7 0-13 6-13 13v332z" fill="#fff"/></g></svg>