<svg clip-rule="evenodd" fill-rule="evenodd" height="2.667in" image-rendering="optimizeQuality" shape-rendering="geometricPrecision" text-rendering="geometricPrecision" viewBox="0 0 2667 2667" width="2.667in" xmlns="http://www.w3.org/2000/svg"><g id="Layer_x0020_1"><circle cx="1333" cy="1333" fill="#00ab94" r="1333"/><path d="m1632 2186h-1097c-15 0-26-12-26-26v-1486c0-15 11-27 26-27h286v125h-174c-7 0-13 6-13 13v1263c0 7 6 13 13 13h873c7 0 13-6 13-13v-1263c0-7-6-13-13-13h-174v-125h286c14 0 26 12 26 27v1486c0 14-12 26-26 26zm-339-1310h-419c-15 0-27-12-27-27v-240c0-14 12-26 27-26h74c15-55 66-94 124-94h22c59 0 109 40 125 94h74c15 0 26 12 26 26v240c0 15-11 27-26 27zm537 980v-1036h151v1029h-124c-10 0-19 3-27 7zm177-1036h151v1036c-8-4-16-7-26-7h-125zm125-157h-275c-15 0-27-12-27-27v-64c0-51 41-92 91-92h146c50 0 91 41 91 92v65c0 14-12 26-26 26zm0 130h-275c-15 0-27-12-27-26v-78h328v78c0 14-12 26-26 26zm-136 1393c-9 0-18-5-23-14l-140-257c-9-18 4-39 24-39h275c20 0 32 21 23 39l-135 257c-5 9-14 14-24 14zm-618-253c7 0 13-6 13-13 0-8-6-14-13-14h-589c-7 0-13 6-13 14 0 7 6 13 13 13zm0-181c7 0 13-6 13-13s-6-13-13-13h-589c-7 0-13 6-13 13s6 13 13 13zm0-180c7 0 13-6 13-13s-6-13-13-13h-589c-7 0-13 6-13 13s6 13 13 13zm0-180c7 0 13-6 13-14 0-7-6-13-13-13h-589c-7 0-13 6-13 13 0 8 6 14 13 14zm0-181c7 0 13-6 13-13s-6-13-13-13h-589c-7 0-13 6-13 13s6 13 13 13zm0-180c7 0 13-6 13-13s-6-13-13-13h-589c-7 0-13 6-13 13s6 13 13 13zm-557-233v51c0 30 24 54 53 54h419c29 0 53-24 53-54v-51h161v1237h-847v-1237z" fill="#fff"/></g></svg>