<svg id="Capa_1" enable-background="new 0 0 512 512" viewBox="0 0 512 512" xmlns="http://www.w3.org/2000/svg"><g><g><g><path d="m437.141 505.304-22.775 6.696h-344.603c-8.534 0-15.453-6.918-15.453-15.453v-343.783c0-10.568 8.567-19.135 19.135-19.135h365.055c10.568 0 19.135 8.567 19.135 19.135l-5.042 337.087c.001 8.534-6.918 15.453-15.452 15.453z" fill="#978ecb"/><path d="m438.501 133.628h-30.909c10.568 0 19.135 8.567 19.135 19.135v343.784c0 8.534-6.919 15.453-15.453 15.453h30.908c8.534 0 15.453-6.919 15.453-15.453v-343.783c.001-10.568-8.566-19.136-19.134-19.136z" fill="#8379c1"/><path d="m457.208 111.966-191.331-29.348-242.047 29.348v339.494c0 13.05 10.579 23.629 23.629 23.629h355.491l28.426-48.359 36.606-38.094 8.671-124.328z" fill="#eef5f6"/><path d="m457.208 111.966 26.87-56.012c0-8.534-28.382-15.453-36.916-15.453h-407.879c-8.534 0-15.453 6.919-15.453 15.453v56.012z" fill="#978ecb"/><path d="m488.115 379.817.002-267.851-18.435-7.119-12.474 7.119-.002 267.851c0 2.854-.453 5.666-1.329 8.324-1.288 3.956.634 8.547-2.364 11.545l33.715-11.545c1.274-3.042.887-5.47.887-8.324z" fill="#deecf1"/><path d="m472.664 40.501h-30.908c8.534 0 15.453 6.919 15.453 15.453v56.012h30.908v-56.012c0-8.534-6.918-15.453-15.453-15.453z" fill="#8379c1"/><path d="m78.941 78.942c-2.983 0-5.791 1.308-8.243-.017-5.433-2.935-9.124-8.681-9.124-15.29v-46.268c0-6.608 3.691-12.354 9.124-15.289 2.452-1.325 5.26-.017 8.243-.017 9.591 0 15.306 5.715 15.306 15.306v46.269c0 9.591-5.715 15.306-15.306 15.306z" fill="#ffe177"/><path d="m78.657 0c-2.983 0-5.79.753-8.243 2.078 5.433 2.935 9.125 8.681 9.125 15.289v46.269c0 6.608-3.409 12.355-8.842 15.29 2.452 1.325 4.976 2.077 7.96 2.077 9.591 0 17.367-7.775 17.367-17.367v-46.269c0-9.592-7.775-17.367-17.367-17.367z" fill="#ffd15b"/><path d="m142.751 78.942c-2.983 0-5.791 1.308-8.243-.017-5.433-2.935-9.124-8.681-9.124-15.29v-46.268c0-6.608 3.691-12.354 9.124-15.289 2.452-1.325 5.26-.017 8.243-.017 9.591 0 15.306 5.715 15.306 15.306v46.269c0 9.591-5.715 15.306-15.306 15.306z" fill="#ffe177"/><path d="m142.467 0c-2.983 0-5.79.753-8.243 2.078 5.433 2.935 9.125 8.681 9.125 15.289v46.269c0 6.608-3.409 12.355-8.842 15.29 2.452 1.325 4.976 2.077 7.96 2.077 9.591 0 17.367-7.775 17.367-17.367v-46.269c0-9.592-7.776-17.367-17.367-17.367z" fill="#ffd15b"/><path d="m369.338 78.942c-2.983 0-5.791 1.308-8.243-.017-5.433-2.935-9.124-8.681-9.124-15.29v-46.268c0-6.608 3.691-12.354 9.124-15.289 2.452-1.325 5.259-.017 8.243-.017 9.591 0 15.306 5.715 15.306 15.306v46.269c0 9.591-5.714 15.306-15.306 15.306z" fill="#ffe177"/><path d="m369.055 0c-2.983 0-5.79.753-8.243 2.078 5.433 2.935 9.125 8.681 9.125 15.289v46.269c0 6.608-3.409 12.355-8.842 15.29 2.452 1.325 4.976 2.077 7.96 2.077 9.591 0 17.367-7.775 17.367-17.367v-46.269c-.001-9.592-7.776-17.367-17.367-17.367z" fill="#ffd15b"/><path d="m433.148 78.942c-2.983 0-5.791 1.308-8.243-.017-5.433-2.935-9.124-8.681-9.124-15.29v-46.268c0-6.608 3.691-12.354 9.124-15.289 2.453-1.325 5.26-.017 8.243-.017 9.591 0 15.306 5.715 15.306 15.306v46.269c0 9.591-5.714 15.306-15.306 15.306z" fill="#ffe177"/><path d="m432.865 0c-2.983 0-5.79.753-8.243 2.078 5.433 2.935 9.125 8.681 9.125 15.289v46.269c0 6.608-3.409 12.355-8.842 15.29 2.452 1.325 4.976 2.077 7.96 2.077 9.591 0 17.367-7.775 17.367-17.367v-46.269c-.001-9.592-7.776-17.367-17.367-17.367z" fill="#ffd15b"/><path d="m487.229 388.141c-.484 1.102-1.164 2.112-2.009 2.998l-79.231 81.786c-.876.906-1.906 1.648-3.039 2.163v-71.494c0-8.54 6.923-15.453 15.453-15.453z" fill="#cbe5e8"/></g><g><path d="m395.844 292.52c0 .796 0 1.577-.03 2.373-.457 29.609-9.903 51.896-25.555 74.681-18.585 27.103-44.448 44.954-76.665 54.563-13.205 3.95-24.21 6.815-38.697 6.815s-27.378-.674-40.584-4.624c-32.217-9.609-59.763-23.302-78.347-50.405-15.637-22.785-24.966-50.242-25.423-79.836-.03-.796 3.09-8.907 3.09-9.703 0-24.525 11.156-41.934 20.987-60.115 3.473-6.424.837-14.43 5.724-20.821 17.258-22.579 40.986-39.97 68.414-49.372 14.812-5.099 30.714 2.777 47.25 2.777s32.438-7.877 47.25-2.777c27.428 9.403 51.156 26.794 68.414 49.387 18.702 24.479 24.172 53.867 24.172 87.057z" fill="#deecf1"/><path d="m373.971 210.875 6.632 45.208-8.511 18.662c-7.738 34.599-26.851 64.971-53.016 86.908-5.738 4.811-11.496 9.02-17.906 12.999-24.278 15.072-53.302 24.025-83.98 24.025-4.801 0-9.567-.207-14.282-.656-24.229-2.311-38.587-3.787-58.385-15.501 17.375 25.012 31.858 32.991 60.237 42.51 1.963.658 7.487 7.475 9.553 8.091 13.205 3.95 27.206 6.072 41.694 6.072s28.489-2.122 41.694-6.072c3.882-1.158 7.488-5.084 11.226-6.55 20.973-8.226 36.634-23.517 51.597-39.184 4.505-4.717 11.727-5.948 15.51-11.464 15.652-22.785 24.966-50.227 25.423-79.836.03-.796-3.452-8.785-3.452-9.581 0-32.778-24.034-75.631-24.034-75.631z" fill="#cbe5e8"/><g fill="#8379c1"><path d="m256.004 235.651-57.226 41.576 21.858 67.273 70.734.001 21.859-67.273z"/><path d="m303.257 156.075-47.25 34.325-47.25-34.325c14.812-5.099 30.714-7.855 47.25-7.855s32.439 2.755 47.25 7.855z"/><path d="m158.471 261.26-47.928 34.826c-.03-.796-.03-1.577-.03-2.373 0-33.19 11.112-63.786 29.83-88.266z"/><path d="m205.494 422.004c-32.217-9.609-52.816-29.669-69.528-46.082h59.763l7.18 22.098z"/></g><path d="m376.034 375.922c-18.585 27.103-46.115 47.589-78.333 57.198l18.585-57.198z" fill="#6e61b6"/><path d="m395.859 283.281c0 .796 0 1.577-.03 2.373l-23.739-10.906-18.561-13.487 18.143-55.798c13.084 20.456 24.187 44.627 24.187 77.818z" fill="#8379c1"/><g><path d="m218.821 296.224c-1.355 0-2.732-.25-4.068-.78l-73.148-28.975c-5.676-2.248-8.454-8.672-6.205-14.347 2.247-5.676 8.672-8.455 14.347-6.205l73.148 28.975c5.676 2.248 8.454 8.672 6.205 14.347-1.719 4.339-5.88 6.985-10.279 6.985z" fill="#8379c1"/></g><g><path d="m256.004 259.227c-6.105 0-11.054-4.949-11.054-11.054l.001-73.988c0-6.105 4.95-11.054 11.054-11.054 6.105 0 11.054 4.949 11.054 11.054l-.001 73.988c-.001 6.105-4.95 11.054-11.054 11.054z" fill="#8379c1"/></g><g><path d="m289.169 297.816c-4.401 0-8.561-2.646-10.28-6.985-2.248-5.676.531-12.099 6.206-14.347l86.868-34.409c5.676-2.25 12.1.53 14.348 6.205 2.248 5.676-.531 12.099-6.206 14.347l-86.868 34.409c-1.337.53-2.713.78-4.068.78z" fill="#8379c1"/></g><g><path d="m327.291 400.849c-3.259 0-6.487-1.435-8.669-4.187l-48.546-61.227c-3.792-4.783-2.989-11.736 1.794-15.529 4.784-3.792 11.736-2.989 15.529 1.794l48.546 61.227c3.792 4.783 2.989 11.736-1.794 15.529-2.031 1.611-4.454 2.393-6.86 2.393z" fill="#8379c1"/></g><path d="m319.077 361.652c-5.648 4.733-11.63 9.078-17.906 12.999l17.452 22.011c2.182 2.752 5.409 4.187 8.669 4.187 2.406 0 4.829-.782 6.86-2.393 4.783-3.793 5.586-10.746 1.794-15.529z" fill="#6e61b6"/><g><path d="m184.714 400.849c-2.406 0-4.829-.782-6.86-2.393-4.783-3.793-5.587-10.746-1.794-15.529l52.498-66.208c3.793-4.784 10.746-5.586 15.529-1.794 4.783 3.793 5.586 10.746 1.794 15.529l-52.498 66.208c-2.183 2.752-5.411 4.187-8.669 4.187z" fill="#8379c1"/></g><path d="m214.313 433.121-11.405-35.101c-24.094-2.152-47.158-10.39-66.943-22.098 16.896 24.322 41.457 43.84 69.785 54.337 2.82 1.045 5.675 2 8.563 2.862z" fill="#6e61b6"/><path d="m375.918 239.948c0 11.954-1.321 23.598-3.826 34.796l29.364 21.342c.03-.796.03-1.577.03-2.373 0-32.777-11.532-63.927-29.815-88.252 2.329 10.82 4.247 22.972 4.247 34.487z" fill="#6e61b6"/></g></g></g><g/><g/><g/><g/><g/><g/><g/><g/><g/><g/><g/><g/><g/><g/><g/></svg>