<svg id="Capa_1" enable-background="new 0 0 512 512" viewBox="0 0 512 512" xmlns="http://www.w3.org/2000/svg"><g><g><g fill="#685e68"><path d="m189.326 26.364h39.26v50.922h-39.26z"/><path d="m86.044 49.429h25.243v63.897h-25.243z" transform="matrix(-.866 .5 -.5 -.866 224.8 102.52)"/><path d="m306.625 57.128h25.243v48.499h-25.243z" transform="matrix(.866 .5 -.5 .866 83.46 -148.721)"/></g><circle cx="208.956" cy="272.407" fill="#0ed2b3" r="182.077"/><path d="m297.685 113.39c25.003 30.395 40.019 69.316 40.019 111.746 0 45.568-15.327 90.025-43.738 121.283-6.083 6.693-12.497 12.743-19.651 18.264-30.715 23.702-70.742 36.471-112.629 36.471-42.43 0-81.351-15.015-111.746-40.019 31.141 55.69 90.676 93.348 159.016 93.348 100.558 0 182.077-81.518 182.077-182.077-.001-68.339-37.658-127.875-93.348-159.016z" fill="#0ab69f"/><circle cx="208.956" cy="272.407" fill="#deecf1" r="113.07"/><g><g><path d="m127.716 139.278c-2.698 0-5.323-1.4-6.769-3.905l-7.352-12.734c-2.156-3.735-.877-8.51 2.858-10.665 3.734-2.157 8.51-.877 10.665 2.858l7.352 12.734c2.156 3.735.877 8.51-2.858 10.665-1.229.709-2.571 1.047-3.896 1.047z" fill="#0ab69f"/></g><g><path d="m68.135 198.845c-1.325 0-2.667-.338-3.897-1.048l-12.734-7.352c-3.734-2.156-5.014-6.931-2.858-10.665 2.155-3.735 6.931-5.015 10.665-2.858l12.734 7.352c3.734 2.156 5.014 6.931 2.858 10.665-1.445 2.505-4.07 3.906-6.768 3.906z" fill="#0ab69f"/></g><g><path d="m55.415 368.938c-2.698 0-5.323-1.4-6.769-3.905-2.156-3.734-.877-8.509 2.858-10.665l12.734-7.352c3.734-2.156 8.51-.877 10.665 2.858 2.156 3.734.877 8.509-2.858 10.665l-12.734 7.352c-1.229.71-2.572 1.047-3.896 1.047z" fill="#0ab69f"/></g><g><path d="m120.35 433.888c-1.325 0-2.667-.338-3.897-1.048-3.734-2.156-5.014-6.931-2.858-10.665l7.352-12.734c2.155-3.735 6.931-5.015 10.665-2.858 3.734 2.156 5.014 6.931 2.858 10.665l-7.352 12.734c-1.445 2.505-4.07 3.906-6.768 3.906z" fill="#01998d"/></g><g><path d="m209.079 457.659c-4.312 0-7.808-3.496-7.808-7.808v-34.28c0-4.312 3.496-7.808 7.808-7.808s7.808 3.496 7.808 7.808v34.28c0 4.312-3.496 7.808-7.808 7.808z" fill="#01998d"/></g><g><path d="m209.079 137.049c-4.312 0-7.808-3.496-7.808-7.808v-34.28c0-4.312 3.496-7.808 7.808-7.808s7.808 3.496 7.808 7.808v34.28c0 4.313-3.496 7.808-7.808 7.808z" fill="#0ab69f"/></g><g><path d="m65.915 280.214h-34.28c-4.312 0-7.808-3.496-7.808-7.808s3.496-7.808 7.808-7.808h34.28c4.312 0 7.808 3.496 7.808 7.808s-3.496 7.808-7.808 7.808z" fill="#0ab69f"/></g><g><path d="m350.024 198.845c-2.698 0-5.322-1.4-6.769-3.905-2.156-3.735-.877-8.51 2.858-10.665l12.734-7.352c3.735-2.157 8.509-.877 10.665 2.858s.877 8.51-2.858 10.665l-12.734 7.352c-1.229.709-2.571 1.047-3.896 1.047z" fill="#01998d"/></g><g><path d="m290.443 139.278c-1.325 0-2.667-.338-3.897-1.048-3.735-2.156-5.014-6.931-2.858-10.665l7.352-12.734c2.156-3.734 6.93-5.015 10.665-2.858 3.735 2.156 5.014 6.931 2.858 10.665l-7.352 12.734c-1.446 2.505-4.07 3.906-6.768 3.906z" fill="#0ab69f"/></g></g><path d="m208.956 63.451c-115.403 0-208.956 93.553-208.956 208.956s93.553 208.956 208.956 208.956 208.956-93.553 208.956-208.956-93.553-208.956-208.956-208.956zm0 384.553c-96.98 0-175.598-78.618-175.598-175.598s78.618-175.597 175.598-175.597 175.598 78.618 175.598 175.598-78.618 175.597-175.598 175.597z" fill="#7a6d79"/><path d="m252.978 31.825-18.545 2.061h-71.561c-1.309 0-2.37-1.061-2.37-2.37v-29.146c0-1.309 1.061-2.37 2.37-2.37h71.561l18.545 2.061c1.309 0 2.37 1.061 2.37 2.37v25.024c.001 1.309-1.061 2.37-2.37 2.37z" fill="#0ed2b3"/><path d="m255.039 0h-22.666c1.309 0 2.37 1.061 2.37 2.37v29.145c0 1.309-1.061 2.37-2.37 2.37h22.666c1.309 0 2.37-1.061 2.37-2.37v-29.145c0-1.309-1.061-2.37-2.37-2.37z" fill="#0ab69f"/><path d="m71.185 76.528 22.977-13.266 12.133-7.865c2.961-1.71 3.976-5.497 2.266-8.458l-10.292-16.152c-1.71-2.961-5.497-3.976-8.458-2.266l-11.308 4.655-24.26 14.007c-2.961 1.71-3.976 5.497-2.266 8.458l10.751 18.621c1.709 2.961 5.495 3.976 8.457 2.266z" fill="#0ed2b3"/><path d="m110.472 46.696-10.751-18.621c-1.71-2.961-5.497-3.976-8.458-2.266l-13.31 7.684c1.877.308 3.605 1.424 4.63 3.199l11.412 19.767c1.328 2.3 1.102 5.066-.343 7.098l14.554-8.402c2.961-1.71 3.975-5.497 2.266-8.459z" fill="#0ab69f"/><path d="m346.071 73.883-13.483-5.518-22.882-13.211c-2.961-1.71-3.976-5.497-2.266-8.458l10.751-18.621c1.71-2.961 5.497-3.976 8.458-2.266l22.067 12.74 11.826 9.047c2.961 1.71 3.976 5.497 2.266 8.458l-8.279 15.562c-1.71 2.962-5.497 3.977-8.458 2.267z" fill="#0ed2b3"/><path d="m363.669 47.182-15.823-9.136c1.129 1.924 1.224 4.382.029 6.452l-11.719 20.298c-.976 1.691-2.607 2.765-4.387 3.094l14.958 8.636c2.962 1.71 6.748.695 8.458-2.266l10.751-18.621c1.709-2.96.695-6.747-2.267-8.457z" fill="#0ab69f"/><g fill="#0ed2b3"><path d="m164.225 265.563h-10.157v-10.157c0-4.267-3.459-7.726-7.726-7.726s-7.726 3.459-7.726 7.726v10.157h-10.157c-4.267 0-7.726 3.459-7.726 7.726s3.459 7.726 7.726 7.726h10.157v10.157c0 4.267 3.459 7.726 7.726 7.726s7.726-3.459 7.726-7.726v-10.157h10.157c4.267 0 7.726-3.459 7.726-7.726s-3.459-7.726-7.726-7.726z"/><path d="m193.512 217.118h-20.709c-4.267 0-7.726 3.459-7.726 7.726s3.459 7.726 7.726 7.726h12.983v89.163c0 4.267 3.459 7.726 7.726 7.726s7.726-3.459 7.726-7.726v-96.89c0-4.266-3.459-7.725-7.726-7.725z"/><path d="m274.938 267.143c-6.941-7.31-16.697-11.503-26.767-11.503-3.979 0-7.257.259-10.156.748l3.946-23.817h29.299c4.267 0 7.726-3.459 7.726-7.726s-3.459-7.726-7.726-7.726h-35.85c-3.78 0-7.005 2.734-7.622 6.463l-7.102 42.867c-.477 2.876.716 5.769 3.067 7.491 2.352 1.723 5.483 1.97 8.08.647.07-.036.381-.19.883-.417 4.13-1.859 7.438-3.077 15.455-3.077 5.939 0 11.464 2.376 15.56 6.69 4.093 4.31 6.177 9.964 5.868 15.92-.579 11.158-9.795 20.075-20.981 20.301-10.842.238-20.198-7.713-21.696-18.451-.59-4.226-4.487-7.171-8.72-6.585-4.226.59-7.174 4.494-6.585 8.72 2.545 18.237 18.189 31.774 36.558 31.772.25 0 .504-.003.755-.008 19.247-.388 35.105-15.74 36.101-34.95.531-10.228-3.054-19.945-10.093-27.359z"/></g></g><g><path d="m507.332 390.66c0 .658 0 1.305-.024 1.963-.378 24.495-8.193 42.933-21.141 61.782-15.375 22.422-36.771 37.19-63.424 45.139-10.925 3.268-20.029 5.638-32.014 5.638s-22.65-.558-33.574-3.826c-26.653-7.95-49.441-19.277-64.816-41.699-12.936-18.85-20.654-41.565-21.032-66.047-.024-.658 2.556-7.369 2.556-8.027 0-20.289 9.229-34.691 17.362-49.732 2.873-5.315.693-11.938 4.735-17.225 14.277-18.679 33.907-33.066 56.598-40.845 12.254-4.219 25.409 2.298 39.089 2.298s26.836-6.516 39.089-2.298c22.69 7.779 42.32 22.166 56.598 40.857 15.473 20.252 19.998 44.564 19.998 72.022z" fill="#eef5f6"/><path d="m489.237 323.116 5.487 37.4-7.041 15.439c-6.402 28.623-22.214 53.75-43.859 71.898-4.747 3.98-9.511 7.462-14.813 10.754-20.085 12.469-44.096 19.875-69.475 19.875-3.971 0-7.915-.171-11.815-.543-20.044-1.912-31.923-3.133-48.301-12.824 14.374 20.692 26.355 27.293 49.833 35.168 1.624.545 6.194 6.184 7.903 6.694 10.925 3.268 22.507 5.023 34.493 5.023 11.985 0 23.568-1.756 34.493-5.023 3.212-.958 6.194-4.206 9.287-5.419 17.351-6.805 30.307-19.455 42.685-32.417 3.727-3.902 9.702-4.921 12.831-9.484 12.948-18.85 20.654-41.552 21.032-66.047.024-.658-2.856-7.268-2.856-7.926-.001-27.116-19.884-62.568-19.884-62.568z" fill="#deecf1"/><g fill="#978ecb"><path d="m391.644 343.613-47.341 34.396 18.082 55.653 58.518.001 18.083-55.654z"/><path d="m430.737 277.781-39.089 28.396-39.089-28.396c12.254-4.219 25.409-6.499 39.089-6.499 13.679.001 26.835 2.281 39.089 6.499z"/><path d="m310.957 364.799-39.65 28.811c-.024-.658-.024-1.305-.024-1.963 0-27.458 9.193-52.769 24.678-73.021z"/><path d="m349.858 497.78c-26.653-7.95-43.694-24.545-57.519-38.123h49.441l5.94 18.281z"/></g><path d="m490.943 459.658c-15.375 22.422-38.15 39.37-64.803 47.319l15.375-47.319z" fill="#8379c1"/><path d="m507.344 383.016c0 .658 0 1.305-.024 1.963l-19.639-9.022-15.355-11.158 15.009-46.161c10.824 16.924 20.009 36.921 20.009 64.378z" fill="#978ecb"/><g><path d="m360.883 393.725c-1.121 0-2.26-.207-3.365-.645l-60.514-23.971c-4.695-1.86-6.994-7.174-5.134-11.869 1.859-4.695 7.174-6.995 11.869-5.134l60.514 23.971c4.695 1.86 6.994 7.174 5.134 11.869-1.422 3.59-4.864 5.779-8.504 5.779z" fill="#978ecb"/></g><g><path d="m391.644 363.117c-5.05 0-9.144-4.094-9.144-9.144l.001-61.209c0-5.05 4.095-9.144 9.144-9.144 5.05 0 9.144 4.094 9.144 9.144l-.001 61.209c.001 5.05-4.094 9.144-9.144 9.144z" fill="#978ecb"/></g><g><path d="m419.081 395.041c-3.641 0-7.082-2.189-8.504-5.779-1.86-4.695.439-10.009 5.134-11.869l71.865-28.466c4.696-1.861 10.01.438 11.87 5.134s-.439 10.009-5.134 11.869l-71.865 28.466c-1.106.438-2.245.645-3.366.645z" fill="#978ecb"/></g><g><path d="m450.619 480.279c-2.696 0-5.366-1.187-7.171-3.464l-40.162-50.652c-3.137-3.957-2.473-9.709 1.484-12.847 3.958-3.137 9.709-2.472 12.847 1.484l40.162 50.652c3.137 3.957 2.473 9.709-1.484 12.847-1.681 1.333-3.685 1.98-5.676 1.98z" fill="#978ecb"/></g><path d="m443.823 447.852c-4.672 3.916-9.621 7.51-14.813 10.754l14.438 18.209c1.805 2.277 4.475 3.464 7.171 3.464 1.99 0 3.995-.647 5.675-1.979 3.957-3.138 4.622-8.89 1.484-12.847z" fill="#8379c1"/><g><path d="m332.667 480.279c-1.991 0-3.995-.647-5.675-1.979-3.957-3.138-4.622-8.89-1.484-12.847l43.431-54.773c3.138-3.958 8.89-4.621 12.847-1.484 3.957 3.138 4.622 8.89 1.484 12.847l-43.431 54.773c-1.805 2.276-4.476 3.463-7.172 3.463z" fill="#978ecb"/></g><path d="m357.155 506.977-9.435-29.038c-19.933-1.78-39.013-8.596-55.381-18.281 13.978 20.121 34.297 36.268 57.732 44.952 2.332.864 4.694 1.654 7.084 2.367z" fill="#8379c1"/><path d="m490.848 347.168c0 9.889-1.093 19.522-3.165 28.786l24.293 17.656c.024-.658.024-1.305.024-1.963 0-27.116-9.541-52.886-24.665-73.009 1.926 8.951 3.513 19.004 3.513 28.53z" fill="#8379c1"/></g></g><g/><g/><g/><g/><g/><g/><g/><g/><g/><g/><g/><g/><g/><g/><g/></svg>