<svg id="Capa_1" enable-background="new 0 0 512 512" viewBox="0 0 512 512" xmlns="http://www.w3.org/2000/svg"><g><path d="m226.548 354.528h52.144v128.789h-52.144z" fill="#deecf1"/><path d="m264.846 354.528h20.606v128.789h-20.606z" fill="#cbe5e8"/><path d="m300.214 356.374-14.762 2.061h-75.727c-5.807 0-10.515-4.708-10.515-10.515v-34.844h111.518v32.784c.001 5.806-4.707 10.514-10.514 10.514z" fill="#eef5f6"/><path d="m178.467 479.411h136.521l16.484 2.061c7.344 0 13.298 5.954 13.298 13.298v13.11c0 1.138-.922 2.06-2.06 2.06l-16.485 2.06h-158.995c-1.138 0-2.06-.922-2.06-2.06v-17.231c-.001-7.345 5.953-13.298 13.297-13.298z" fill="#918291"/><path d="m292.184 313.076v34.844c0 5.807-4.708 10.514-10.515 10.514h20.606c5.807 0 10.515-4.707 10.515-10.514v-34.844z" fill="#deecf1"/><path d="m333.533 479.411h-20.606c7.344 0 13.298 5.954 13.298 13.298v17.231c0 1.138-.922 2.06-2.06 2.06h20.606c1.138 0 2.06-.922 2.06-2.06v-17.231c0-7.345-5.954-13.298-13.298-13.298z" fill="#7a6d79"/><path d="m66.29 325.845c-25.096 0-45.513-20.417-45.513-45.512v-234.821c.001-25.095 20.417-45.512 45.513-45.512h372.316c25.096 0 46.273 20.417 46.273 45.512l-1.815 234.821c0 25.095-32.519 45.512-57.615 45.512z" fill="#918291"/><path d="m456.057 0h-30.072c25.144 0 35.233 20.417 35.233 45.512l-69.792 121.2 69.792 113.621c0 25.095-20.456 45.512-45.6 45.512h30.092c25.096 0 45.513-20.417 45.513-45.512v-234.821c-.001-25.095-10.07-45.512-35.166-45.512z" fill="#7a6d79"/><g><path d="m66.29 295.841c-8.551 0-15.508-6.957-15.508-15.508v-234.821c0-8.551 6.957-15.508 15.508-15.508h379.408c8.558 0 15.519 6.962 15.519 15.519v234.798c0 8.557-6.962 15.519-15.519 15.519h-379.408z" fill="#eef5f6"/></g><g><path d="m81.821 259.629v-115.71c0-2.857 2.316-5.173 5.173-5.173h130.7c2.857 0 5.173 2.316 5.173 5.173v115.71c0 2.857-2.316 5.173-5.173 5.173h-130.7c-2.857 0-5.173-2.316-5.173-5.173z" fill="#0ed2b3"/></g><path d="m345.999 57.569-4.121 26.806 4.121 26.805h27.29l5.152-24.026-5.152-29.585z" fill="#deecf1"/><g><path d="m430.179 259.629v-115.71c0-2.857-2.316-5.173-5.173-5.173h-130.7c-2.857 0-5.173 2.316-5.173 5.173v115.71c0 2.857 2.316 5.173 5.173 5.173h130.7c2.857 0 5.173-2.316 5.173-5.173z" fill="#0ed2b3"/></g><path d="m111.203 84.375v22.598c0 2.324 1.884 4.208 4.208 4.208h73.891c2.324 0 4.208-1.884 4.208-4.208v-22.598l-41.154-4.819z" fill="#978ecb"/><path d="m322.698 57.569c-2.324 0-4.208 1.884-4.208 4.208v45.195c0 2.324 1.884 4.208 4.208 4.208h23.3v-53.611z" fill="#fe76a8"/><path d="m396.59 57.569h-23.3v53.611h23.3c2.324 0 4.208-1.884 4.208-4.208v-45.195c-.001-2.324-1.885-4.208-4.208-4.208z" fill="#ffe177"/><g><g><path d="m148.103 247.865c-15.496 0-28.696-11.421-30.843-26.808-.591-4.226 2.358-8.13 6.583-8.72 4.22-.59 8.13 2.358 8.72 6.585 1.095 7.85 7.947 13.619 15.865 13.487 8.179-.165 14.917-6.684 15.339-14.84.226-4.356-1.297-8.491-4.29-11.642-2.995-3.155-7.035-4.892-11.377-4.892-6.129 0-8.64.924-11.772 2.334-.357.16-.581.271-.645.303-2.598 1.317-5.729 1.068-8.077-.654-2.348-1.723-3.542-4.613-3.066-7.486l5.699-34.394c.618-3.729 3.843-6.463 7.623-6.463h28.765c4.268 0 7.726 3.459 7.726 7.726s-3.459 7.726-7.726 7.726h-22.213l-2.615 15.779c1.868-.212 3.936-.323 6.302-.323 8.497 0 16.728 3.537 22.585 9.705 5.939 6.256 8.963 14.453 8.515 23.083-.841 16.208-14.22 29.161-30.46 29.489-.214.002-.426.005-.638.005z" fill="#eef5f6"/></g></g><g><g><path d="m359.656 247.865c-16.17 0-29.325-13.155-29.325-29.325v-34.542c0-16.17 13.155-29.325 29.325-29.325s29.325 13.155 29.325 29.325v34.542c0 16.17-13.155 29.325-29.325 29.325zm0-77.74c-7.649 0-13.872 6.223-13.872 13.873v34.542c0 7.649 6.223 13.872 13.872 13.872s13.872-6.223 13.872-13.872v-34.542c0-7.649-6.223-13.873-13.872-13.873z" fill="#eef5f6"/></g></g><path d="m193.51 61.777c0-2.324-1.884-4.208-4.208-4.208h-73.892c-2.324 0-4.208 1.884-4.208 4.208v22.598h82.307v-22.598z" fill="#0ed2b3"/><g fill="#918291"><circle cx="256" cy="185.748" r="7.726"/><circle cx="256" cy="216.145" r="7.726"/></g></g><g/><g/><g/><g/><g/><g/><g/><g/><g/><g/><g/><g/><g/><g/><g/></svg>