<svg id="Capa_1" enable-background="new 0 0 512 512" viewBox="0 0 512 512" xmlns="http://www.w3.org/2000/svg"><g><g><path d="m406.705 32.78v-30.72c0-1.133-.917-2.06-2.06-2.06h-30.905-331.945c-1.144 0-2.06.927-2.06 2.06v477.16c0 18.1 14.67 32.78 32.78 32.78h309.951 57.02z" fill="#eef5f6"/><path d="m368.933 458.425-26.787 2.061h-97.212c-2.845 0-5.151-2.306-5.151-5.151v-64.708c0-2.845 2.306-5.151 5.151-5.151h97.212l26.787 2.061c2.845 0 5.151 2.306 5.151 5.151v60.586c0 2.845-2.306 5.151-5.151 5.151z" fill="#978ecb"/><path d="m370.994 385.476h-30.908c2.845 0 5.151 2.306 5.151 5.151v64.707c0 2.845-2.306 5.151-5.151 5.151h30.908c2.845 0 5.151-2.306 5.151-5.151v-64.707c0-2.844-2.306-5.151-5.151-5.151z" fill="#8379c1"/><path d="m466.053 69.159c1.138 0 2.06.922 2.06 2.06l-.057 405.173c0 18.1-10.46 33.457-28.571 33.457-5.975 0-11.573.554-16.395-2.237-2.486-1.439-4.766-3.195-6.785-5.214-5.934-5.934-9.601-14.134-9.601-23.179v-446.439h30.72c1.138 0 2.06.922 2.06 2.06v30.72l6.852 4.808z" fill="#deecf1"/><path d="m439.485 65.561v413.659c0 12.13-6.598 22.724-16.395 28.393 4.822 2.791 10.42 4.387 16.395 4.387 18.111 0 32.78-14.68 32.78-32.78v-411.599c0-1.138-.922-2.06-2.06-2.06z" fill="#cbe5e8"/><path d="m201.663 458.425-26.787 2.061h-97.212c-2.845 0-5.151-2.306-5.151-5.151v-64.708c0-2.845 2.306-5.151 5.151-5.151h97.212l26.787 2.061c2.845 0 5.151 2.306 5.151 5.151v60.586c0 2.845-2.306 5.151-5.151 5.151z" fill="#978ecb"/><path d="m203.724 385.476h-30.908c2.845 0 5.151 2.306 5.151 5.151v64.707c0 2.845-2.306 5.151-5.151 5.151h30.908c2.845 0 5.151-2.306 5.151-5.151v-64.707c-.001-2.844-2.307-5.151-5.151-5.151z" fill="#8379c1"/><g fill="#918291"><path d="m129.968 43.788c-4.268 0-7.726 3.459-7.726 7.726v58.648l-43.364-63.027c-1.918-2.787-5.424-4.004-8.658-2.999-3.231 1.004-5.434 3.994-5.434 7.378v80.962c0 4.267 3.459 7.726 7.726 7.726 4.268 0 7.726-3.459 7.726-7.726v-56.1l41.265 59.978c1.656 2.41 4.39 3.849 7.315 3.849 4.893 0 8.875-3.981 8.875-8.875v-79.814c.001-4.267-3.458-7.726-7.725-7.726z"/><path d="m191.093 59.24c4.268 0 7.726-3.459 7.726-7.726s-3.459-7.726-7.726-7.726h-34.114c-4.268 0-7.726 3.459-7.726 7.726v80.962c0 4.267 3.459 7.726 7.726 7.726h34.114c4.268 0 7.726-3.459 7.726-7.726s-3.459-7.726-7.726-7.726h-26.387v-25.028h22.572c4.268 0 7.726-3.459 7.726-7.726s-3.459-7.726-7.726-7.726h-22.572v-25.03z"/><path d="m359.708 85.319-1.2-.409c-11.186-3.808-16.291-5.547-20.7-8.349-2.608-1.657-3.897-4.585-3.451-7.83.549-3.992 3.571-7.188 8.086-8.547 12.697-3.824 24.214 5.369 24.488 5.592 3.266 2.719 8.119 2.289 10.857-.967 2.745-3.267 2.324-8.14-.943-10.886-.724-.608-17.965-14.829-38.859-8.534-10.306 3.104-17.562 11.241-18.938 21.236-1.275 9.26 2.738 18.065 10.472 22.979 5.968 3.793 11.996 5.846 24.007 9.936l1.198.408c8.149 2.776 12.283 7.629 11.341 13.315-.923 5.569-6.802 11.488-15.879 11.488-8.711 0-17.119-3.538-22.488-9.463-2.865-3.162-7.751-3.402-10.913-.537s-3.402 7.752-.537 10.913c8.249 9.104 20.938 14.54 33.939 14.54 15.691 0 28.781-10.268 31.124-24.415 1.751-10.576-3.004-24.134-21.604-30.47z"/><path d="m304.417 43.936c-4.196-.835-8.254 1.886-9.086 6.071l-11.513 57.913-18.099-58.684c-.999-3.238-3.992-5.448-7.38-5.449-.001 0-.002 0-.003 0-3.387 0-6.381 2.207-7.381 5.444l-18.146 58.687-11.466-57.905c-.829-4.185-4.887-6.908-9.08-6.078-4.186.828-6.907 4.894-6.078 9.08l15.673 79.146c.921 4.659 5.036 8.042 9.787 8.042 4.404 0 8.236-2.827 9.531-7.03l17.152-55.472 17.105 55.463c1.298 4.21 5.13 7.039 9.535 7.039 4.745 0 8.861-3.378 9.786-8.032l15.735-79.15c.831-4.185-1.887-8.253-6.072-9.085z"/></g><g><path d="m317.241 258.507c0 .529 0 1.048-.02 1.576-.304 19.672-6.58 34.479-16.979 49.618-12.348 18.007-29.531 29.867-50.936 36.252-8.774 2.624-16.085 4.528-25.711 4.528-9.625 0-18.19-.448-26.964-3.072-21.405-6.384-39.706-15.482-52.054-33.489-10.389-15.138-16.588-33.381-16.891-53.043-.02-.529 2.053-5.918 2.053-6.447 0-16.294 7.412-27.861 13.943-39.94 2.308-4.268.556-9.587 3.803-13.834 11.466-15.001 27.231-26.556 45.454-32.803 9.841-3.388 20.406 1.845 31.393 1.845s21.552-5.233 31.393-1.845c18.223 6.247 33.988 17.802 45.454 32.813 12.427 16.265 16.062 35.79 16.062 57.841z" fill="#deecf1"/><path d="m302.708 204.263 4.406 30.036-5.654 12.399c-5.141 22.988-17.84 43.167-35.224 57.741-3.812 3.196-7.638 5.993-11.897 8.637-16.13 10.014-35.414 15.962-55.796 15.962-3.189 0-6.356-.137-9.489-.436-16.098-1.535-25.637-2.516-38.791-10.299 11.544 16.618 21.166 21.919 40.021 28.244 1.304.437 4.974 4.967 6.347 5.376 8.774 2.624 18.076 4.034 27.701 4.034s18.928-1.41 27.701-4.034c2.579-.769 4.975-3.378 7.459-4.352 13.934-5.465 24.34-15.624 34.281-26.034 2.993-3.134 7.792-3.952 10.305-7.617 10.399-15.138 16.587-33.371 16.891-53.043.02-.529-2.294-5.837-2.294-6.366.001-21.777-15.967-50.248-15.967-50.248z" fill="#cbe5e8"/><g fill="#978ecb"><path d="m224.331 220.724-38.02 27.623 14.522 44.696h46.996l14.522-44.695z"/><path d="m255.726 167.854-31.393 22.805-31.393-22.805c9.841-3.388 20.406-5.219 31.393-5.219s21.553 1.831 31.393 5.219z"/><path d="m159.531 237.739-31.843 23.138c-.02-.529-.02-1.048-.02-1.577 0-22.051 7.383-42.379 19.819-58.644z"/><path d="m190.772 344.536c-21.405-6.384-35.091-19.712-46.194-30.617h39.706l4.77 14.682z"/></g><path d="m304.079 313.92c-12.348 18.007-30.639 31.618-52.044 38.002l12.348-38.002z" fill="#8379c1"/><path d="m317.25 252.369c0 .529 0 1.048-.02 1.576l-15.772-7.246-12.332-8.961 12.054-37.072c8.694 13.592 16.07 29.651 16.07 51.703z" fill="#978ecb"/><g><path d="m199.627 260.969c-.9 0-1.815-.166-2.703-.518l-48.599-19.251c-3.771-1.494-5.617-5.761-4.123-9.532 1.493-3.771 5.762-5.617 9.532-4.123l48.599 19.251c3.771 1.494 5.617 5.761 4.123 9.532-1.142 2.883-3.906 4.641-6.829 4.641z" fill="#978ecb"/></g><g><path d="m224.331 236.387c-4.056 0-7.344-3.288-7.344-7.344v-49.158c0-4.056 3.289-7.344 7.344-7.344 4.056 0 7.344 3.288 7.344 7.344v49.158c0 4.056-3.288 7.344-7.344 7.344z" fill="#978ecb"/></g><g><path d="m246.366 262.026c-2.924 0-5.688-1.758-6.83-4.641-1.494-3.771.353-8.039 4.123-9.532l57.715-22.861c3.771-1.495 8.039.352 9.533 4.123s-.353 8.039-4.123 9.532l-57.715 22.861c-.888.352-1.803.518-2.703.518z" fill="#978ecb"/></g><g><path d="m271.694 330.481c-2.165 0-4.31-.953-5.759-2.782l-32.254-40.679c-2.52-3.178-1.986-7.797 1.192-10.317 3.179-2.519 7.798-1.986 10.317 1.192l32.254 40.679c2.52 3.178 1.986 7.797-1.192 10.317-1.35 1.07-2.959 1.59-4.558 1.59z" fill="#978ecb"/></g><path d="m266.236 304.439c-3.752 3.145-7.727 6.032-11.897 8.637l11.595 14.624c1.45 1.828 3.594 2.782 5.759 2.782 1.598 0 3.208-.52 4.558-1.59 3.178-2.52 3.712-7.139 1.192-10.317z" fill="#8379c1"/><g><path d="m176.966 330.481c-1.599 0-3.208-.52-4.558-1.59-3.178-2.52-3.712-7.139-1.192-10.317l34.879-43.989c2.52-3.179 7.14-3.711 10.317-1.192 3.178 2.52 3.712 7.139 1.192 10.317l-34.879 43.989c-1.449 1.829-3.594 2.782-5.759 2.782z" fill="#978ecb"/></g><path d="m196.632 351.922-7.577-23.321c-16.008-1.43-31.331-6.903-44.476-14.682 11.226 16.16 27.544 29.127 46.365 36.102 1.872.694 3.769 1.329 5.688 1.901z" fill="#8379c1"/><path d="m304.002 223.579c0 7.942-.878 15.678-2.542 23.118l19.51 14.18c.02-.529.02-1.048.02-1.577 0-21.777-7.662-42.473-19.809-58.634 1.547 7.188 2.821 15.262 2.821 22.913z" fill="#8379c1"/></g></g><g><g><path d="m137.34 358.087h-64.827c-4.268 0-7.726-3.459-7.726-7.726s3.459-7.726 7.726-7.726h64.827c4.268 0 7.726 3.459 7.726 7.726s-3.458 7.726-7.726 7.726z" fill="#deecf1"/></g><g><path d="m112.389 324.762h-39.876c-4.268 0-7.726-3.459-7.726-7.726s3.459-7.726 7.726-7.726h39.876c4.268 0 7.726 3.459 7.726 7.726.001 4.267-3.458 7.726-7.726 7.726z" fill="#deecf1"/></g><g><path d="m376.144 358.087h-64.827c-4.268 0-7.726-3.459-7.726-7.726s3.459-7.726 7.726-7.726h64.827c4.268 0 7.726 3.459 7.726 7.726s-3.459 7.726-7.726 7.726z" fill="#deecf1"/></g><g><path d="m376.144 324.762h-39.876c-4.268 0-7.726-3.459-7.726-7.726s3.459-7.726 7.726-7.726h39.876c4.268 0 7.726 3.459 7.726 7.726s-3.459 7.726-7.726 7.726z" fill="#deecf1"/></g></g></g><g/><g/><g/><g/><g/><g/><g/><g/><g/><g/><g/><g/><g/><g/><g/></svg>