<svg id="Capa_1" enable-background="new 0 0 512 512" viewBox="0 0 512 512" xmlns="http://www.w3.org/2000/svg"><g><path d="m227.427 26.099v65.306c0 7.829-1.638 15.571-4.81 22.728l-2.386 5.732 26.489 36.321 26.114-15.991 1.268-6.027-8.901-15.266c-1.821-3.123-2.78-6.672-2.78-10.287v-10.28c0-1.927 1.745-3.384 3.641-3.041l11.428 2.069c6.707.887 12.65-4.358 12.605-11.123l-.076-11.176c-.005-.735.323-1.432.893-1.897l2.018-1.646c3.083-2.514 3.895-6.89 1.918-10.342l-3.523-6.154c-.554-.967-.849-2.056-.857-3.171-.011-1.593-.031-22.631-.056-25.755z" fill="#d78878"/><path d="m189.746 337.087v30.458 1.579c0 .319-.053.639-.152.942-4.307 13.134-5.428 25.138-3.27 38.84l4.401 27.934 22.925 10.303 19.757-10.303 8.638-99.754-28.395-10.303z" fill="#ca6e59"/><path d="m245.246 300.114-55.5-26.544v63.517h52.299z" fill="#deecf1"/><path d="m196.785 475.313 31.9 16.056 4.722-54.529h-42.682z" fill="#deecf1"/><path d="m295.04 368.134 12.517 37.908 33.181 12.245v-50.153l-22.849-7.235z" fill="#eef5f6"/><path d="m340.737 286.184v81.951h-45.699l-5.779-17.523c-3.06-9.591-3.74-19.769-2.009-29.638.299-1.731 8.193-3.911 8.636-5.611l-4.649-9.842h-7.459l-.937-24.693.937-30.916h20.687c5.728 0 11.28 1.35 16.267 3.853 4.986 2.493 9.385 6.14 12.805 10.724 4.676 6.263 7.2 13.876 7.2 21.695z" fill="#d78878"/><path d="m276.55 178.545-6.449 9.632c-2.112 3.163-3.482 6.768-3.987 10.539l-7.091 71.902-59.771-32.203v-48.81l3.976-14.021-3.976-8.231-9.869 10.219h-24.209l-3.431-28.629 28.309-28.083c1.514-1.504 3.194-2.802 4.996-3.904 1.813-1.092 3.75-1.978 5.779-2.627 13.227-4.224 27.691.319 36.118 11.363l4.626 6.047c1.782 2.349 4.049 4.296 6.634 5.707 2.668 1.473 5.398 2.39 8.097 2.781 6.346.896 11.318 4.87 16.531-.034l5.189 6.124c2.514 3.987 2.387 7.051 2.892 11.738.773 7.193-.223 14.299-4.364 20.49z" fill="#ffe177"/><path d="m280.028 178.108-6.449 9.632c-2.112 3.163-3.482 6.768-3.987 10.539l-10.57 72.339-59.771-32.203v-10.209h25.193c11.12 0 20.544-8.183 22.105-19.192l9.753-68.785c6.346.896 12.589-1.154 17.802-6.057l6.294 10.034c2.514 3.987 4.224 8.468 4.729 13.155.773 7.19-.958 14.556-5.099 20.747z" fill="#ffd15b"/><path d="m262.194 512h-58.917c-3.383 0-6.126-2.743-6.126-6.126v-30.56h46.111c13.839 0 25.057 11.219 25.057 25.057v5.503c.001 3.383-2.741 6.126-6.125 6.126z" fill="#ffd15b"/><path d="m369.271 440.851h-55.901c-3.21 0-5.813-2.602-5.813-5.813v-28.997h43.752c13.131 0 23.775 10.644 23.775 23.775v5.222c0 3.21-2.603 5.813-5.813 5.813z" fill="#ffe177"/><path d="m198.143 73.269c-12.199 0-22.089-9.889-22.089-22.089v-7.252c0-12.199 9.889-22.089 22.089-22.089 12.199 0 22.089 9.889 22.089 22.089v7.252c-.001 12.199-9.89 22.089-22.089 22.089z" fill="#7a6d79"/><g><path d="m317.104 313.247c0 4.265-3.451 7.726-7.726 7.726h-22.128c.299-1.731.68-3.441 1.123-5.141l2.864-10.312h18.142c4.274.001 7.725 3.462 7.725 7.727z" fill="#ca6e59"/></g><path d="m227.427 84.304 2.713-20.274c1.021-7.634 7.535-13.333 15.236-13.333 8.728 0 16.913-4.239 21.949-11.368l1.424-2.016c.459-.65 1.383-.761 1.974-.228 3.669 3.309 8.448 5.158 13.423 5.158h6.217c4.764 0 8.626-3.862 8.626-8.626.001-18.566-15.05-33.617-33.617-33.617h-20.746c-20.748 0-37.567 16.819-37.567 37.567l-.212 18.481c-.092 8.024 3.405 15.671 9.535 20.85z" fill="#918291"/><path d="m226.306 249.91-42.024-6.075c-.5 1.729-1.609 6.758-1.883 8.547-2.034 13.247 1.36 27.693 10.864 37.143 10.963 10.901 26.82 15.996 41.309 15.996h49.209v-55.611z" fill="#eef5f6"/><g><path d="m219.505 168.744-20.253 20.861v-22.252l9.148-9.344c2.957-3.07 7.85-3.152 10.92-.185 3.069 2.967 3.152 7.85.185 10.92z" fill="#ffd15b"/></g><path d="m230.147 271.051-.556.433c-5.089 3.935-12.012 4.533-17.699 1.525l-.319-.165c-7.778-4.121-14.206-10.395-18.492-18.08l-2.524-4.523c-.67-1.205-1.586-2.246-2.699-3.049l-57.216-36.324c-9.776-6.222-11.26-19.913-3.029-28.072l34.13-33.852 27.64 28.629-8.736 9.045-6.908 4.387-3.805 6.698 36.922 30.658c.855.793 1.854 1.422 2.946 1.844l7.716 3.039c8.427 3.317 14.968 10.158 17.904 18.729l.196.587c2.327 6.788.112 14.174-5.471 18.491z" fill="#d78878"/><g><path d="m180.647 186.617-10.714 11.085-12.3-10.219c-3.276-2.73-3.729-7.603-.999-10.879 2.73-3.286 7.592-3.74 10.879-1.01l12.3 10.219c.298.248.576.516.834.804z" fill="#ca6e59"/></g><g><g><path d="m382.051 192.546c0 22.573-10.619 31.978-33.192 31.978-16.623 0-30.922-1.032-37.309-15.278-2.286-5.1-3.563-10.75-3.563-16.701 0-22.573 18.299-40.872 40.873-40.872 5.643 0 11.019 1.144 15.909 3.212 14.669 6.206 17.282 20.732 17.282 37.661z" fill="#eef5f6"/></g><path d="m364.769 154.886c2.286 5.1 3.327 11.104 3.327 17.055 0 22.573-17.269 40.872-39.842 40.872-5.95 0-11.604-1.28-16.703-3.566 6.387 14.245 20.686 24.172 37.309 24.172 22.573 0 40.872-18.299 40.872-40.872 0-16.623-10.718-31.274-24.963-37.661z" fill="#deecf1"/></g></g><g/><g/><g/><g/><g/><g/><g/><g/><g/><g/><g/><g/><g/><g/><g/></svg>