<svg id="Capa_1" enable-background="new 0 0 512 512" viewBox="0 0 512 512" xmlns="http://www.w3.org/2000/svg"><g><path d="m95.322 478.397v28.452c0 2.845 2.306 5.151 5.151 5.151h47.53l18.656-7.745h175.001l22.372 7.745h47.495c2.845 0 5.151-2.306 5.151-5.151v-33.556z" fill="#ffcebf"/><g><path d="m380.084 349.913c.062.907.093 1.823.093 2.74 0 21.263-17.245 38.508-38.518 38.508h-171.678c-21.273 0-38.518-17.245-38.518-38.508 0-.917.031-1.834.093-2.74.196-2.787 3.781-5.491 4.539-8.08.758-2.59-1.31-5.065-.058-7.393-6.099-4.893-10.013-12.393-10.013-20.82 0-9.107 4.564-17.142 11.538-21.953 1.849-1.277 3.865.764 6.011-.017 2.841-1.035 5.908-4.691 9.112-4.691h.021c.196-10.394 6.336-19.336 15.174-23.56h175.88c8.839 4.224 14.979 13.166 15.174 23.56h.021c2.11 0 4.163 3.337 6.132 3.801 3.271.771 6.309-.945 8.991.907 6.974 4.801 11.538 12.846 11.538 21.953 0 8.427-3.915 15.926-10.013 20.82 1.252 2.328-.817 4.803-.058 7.393.758 2.589 4.343 5.294 4.539 8.08z" fill="#ca6e59"/><g><g><path d="m374.078 291.668c-1.102 7.963-4.986 15.37-11.023 20.82-1.473 1.329-3.327 1.988-5.171 1.988-2.112 0-4.213-.855-5.738-2.545-2.864-3.163-2.617-8.056.556-10.909 3.966-3.595 6.253-8.715 6.253-14.062 5.614 0 10.827 1.741 15.123 4.708z" fill="#bb5d4c"/></g><g><path d="m380.084 349.913c-4.976 2.678-10.6 4.121-16.308 4.121-4.265 0-7.726-3.461-7.726-7.726s3.461-7.726 7.726-7.726c4.347 0 8.437-1.432 11.826-4.141 2.504 4.655 4.09 9.899 4.482 15.472z" fill="#bb5d4c"/></g></g><g><g><g><path d="m159.494 311.931c-1.525 1.69-3.626 2.545-5.738 2.545-1.844 0-3.698-.659-5.171-1.988-6.037-5.45-9.921-12.856-11.023-20.82 4.296-2.967 9.498-4.708 15.123-4.708 0 5.347 2.277 10.466 6.253 14.062 3.162 2.853 3.42 7.746.556 10.909z" fill="#bb5d4c"/></g><g><path d="m155.589 346.308c0 4.265-3.461 7.726-7.726 7.726-5.707 0-11.322-1.442-16.308-4.121.391-5.573 1.978-10.817 4.481-15.473 3.389 2.709 7.479 4.141 11.826 4.141 4.266 0 7.727 3.462 7.727 7.727z" fill="#bb5d4c"/></g></g></g></g><g><path d="m238.485 372.582c11.349 3.794 23.68 3.794 35.029 0l8.259-4.083c7.276-2.432 5.887-10.207 11.835-15.759-.13-.906-.211-1.826-.211-2.763v-16.164l-16.898-51.378h-20.499-24.582l-12.815 51.552v15.991c0 .937-.081 1.857-.211 2.763 5.949 5.551 4.559 13.156 11.835 15.589z" fill="#ffcebf"/><path d="m218.602 282.435v51.552c11.547 5.347 24.201 8.186 37.217 8.186 13.152 0 25.933-2.902 37.578-8.359v-51.378h-37.397-37.398z" fill="#ffb09e"/><path d="m147.514 415.18-34.358-18.633c-18.586 12.701-30.457 34.015-30.457 57.664v29.898c0 3.08 2.497 5.576 5.576 5.576h59.693l18.691-22.976c0-18.916-6.794-37.202-19.145-51.529z" fill="#eef5f6"/><path d="m170.365 395-21.593-11.85-10.035 2.608c-9.486 2.617-18.043 5.637-25.581 10.788l15.667 18.633c12.351 14.327 19.145 32.613 19.145 51.529v22.976h.034v22.316h37.053l11.952-45.291c0-26.313-9.461-51.779-26.642-71.709z" fill="#918291"/><path d="m218.391 352.74c-1.098 7.655-6.673 14.05-14.329 16.04l-55.291 14.371 9.641 11.85c17.181 19.929 26.643 45.396 26.643 71.708v45.291h53.43l9.207-73.64-9.207-73.64c-7.276-2.432-14.145-6.428-20.094-11.98z" fill="#deecf1"/><path d="m398.911 396.594-27.593 18.586c-12.351 14.327-19.145 32.613-19.145 51.529l11.858 22.976h59.693c3.08 0 5.576-2.497 5.576-5.576v-29.898c.001-23.62-11.842-44.91-30.389-57.617z" fill="#eef5f6"/><path d="m383.177 415.18 15.735-18.586c-7.554-5.175-16.357-8.285-25.648-10.835l-9.852-2.561-25.112 11.802c-17.181 19.929-26.643 45.396-26.643 71.708l15.288 45.292h37.087v-22.315-22.976c0-18.916 6.794-37.202 19.145-51.529z" fill="#918291"/><path d="m353.587 395 9.824-11.802-55.473-14.418c-7.656-1.99-13.232-8.384-14.329-16.04-5.949 5.552-12.818 9.547-20.094 11.98l-8.17 69.899 8.17 77.381h53.43v-45.291c0-26.313 9.461-51.779 26.642-71.709z" fill="#deecf1"/><path d="m233.799 364.72v147.28h44.401v-147.28c-14.385 3.794-30.016 3.794-44.401 0z" fill="#918291"/></g><path d="m379.478 128.261 7.847 61.224h-263.011v-92.385c0-65.035 62.439-111.011 123.775-93.261 2.05.598 4.09 6.912 6.13 7.644.515.185 1.061.278 1.597.278.546 0 1.092-.093 1.607-.278 2.04-.731 4.079-7.046 6.119-7.634 9.004-2.606 15.678-.01 24.527-.01 51.435-.001 97.178 53.795 91.409 124.422z" fill="#d78878"/><path d="m387.326 97.1v81.754l-25.62-26.3.041-30.503c0-102.976-98.206-118.202-98.206-118.202 9.004-2.606 18.049-3.843 26.898-3.843 51.436 0 96.887 41.609 96.887 97.094z" fill="#ca6e59"/><g><path d="m263.541 3.849v69.423c0 4.265-3.451 7.726-7.726 7.726-4.265 0-7.726-3.461-7.726-7.726v-69.434c2.05.598 4.09 1.267 6.13 1.999.515.185 1.061.278 1.597.278.546 0 1.092-.093 1.607-.278 2.038-.731 4.078-1.401 6.118-1.988z" fill="#ca6e59"/></g><path d="m349.178 226.42h-186.717c-29.186 0-52.846-23.66-52.846-52.846 0-11.611 9.412-21.023 21.023-21.023h250.363c11.611 0 21.023 9.412 21.023 21.023 0 8.59-2.05 16.702-5.687 23.873-1.916 3.778-2.787 11.241-5.517 14.429-2.516 2.937-6.833 1.649-9.929 3.975-8.834 6.637-19.814 10.569-31.713 10.569z" fill="#ffb09e"/><path d="m255.819 321.569c16.713 0 33.425-6.126 46.507-18.378l35.714-33.449c6.112-5.724 11.22-12.432 15.114-19.845 5.643-10.745 8.592-22.7 8.592-34.837v-62.511h-.043c-5.778 0-10.857-3.826-12.451-9.38-10.707-37.299-37.311-67.982-72.716-83.866l-18.777-8.423c-1.233-.553-2.645-.553-3.878 0l-18.777 8.423c-35.406 15.883-62.01 46.567-72.716 83.866-1.594 5.554-6.673 9.38-12.451 9.38h-.043v62.511c0 12.137 2.949 24.092 8.592 34.837 3.893 7.413 9.002 14.121 15.114 19.845l35.714 33.449c13.08 12.252 29.793 18.378 46.505 18.378z" fill="#ffcebf"/><g><g><g><path d="m255.819 228.891c-5.344 0-10.686-1.24-15.558-3.722-3.802-1.937-5.314-6.589-3.377-10.392s6.589-5.313 10.392-3.377c5.348 2.725 11.735 2.725 17.085 0 3.802-1.938 8.455-.426 10.392 3.377 1.937 3.802.425 8.455-3.377 10.392-4.87 2.481-10.214 3.722-15.557 3.722z" fill="#ffb09e"/></g><g><path d="m229.848 147.951c-1.259 0-2.535-.308-3.715-.957-7.929-4.359-17.396-4.359-25.325 0-3.74 2.055-8.437.691-10.493-3.048s-.691-8.437 3.048-10.493c12.59-6.923 27.624-6.922 40.214 0 3.739 2.056 5.104 6.753 3.048 10.493-1.406 2.558-4.05 4.005-6.777 4.005z" fill="#ffb09e"/></g><g><path d="m281.79 147.951c-2.727 0-5.371-1.447-6.778-4.005-2.056-3.739-.691-8.437 3.048-10.493 12.591-6.922 27.625-6.921 40.215 0 3.739 2.056 5.104 6.753 3.048 10.493-2.056 3.738-6.755 5.103-10.493 3.048-7.928-4.359-17.395-4.359-25.326 0-1.179.649-2.455.957-3.714.957z" fill="#ffb09e"/></g></g><g><g><path d="m255.639 271.889c-8.752 0-17.5-2.032-25.478-6.097-3.802-1.937-5.314-6.59-3.377-10.392 1.938-3.803 6.59-5.314 10.392-3.377 11.56 5.89 25.365 5.89 36.926 0 3.801-1.939 8.454-.426 10.392 3.377 1.937 3.802.426 8.455-3.377 10.392-7.976 4.065-16.729 6.097-25.478 6.097z" fill="#ffb09e"/></g></g><g><path d="m298.365 190.769c-4.267 0-7.726-3.459-7.726-7.726v-17.131c0-4.267 3.459-7.726 7.726-7.726s7.726 3.459 7.726 7.726v17.131c0 4.267-3.459 7.726-7.726 7.726z" fill="#ffb09e"/></g><g><path d="m213.635 190.769c-4.267 0-7.726-3.459-7.726-7.726v-17.131c0-4.267 3.459-7.726 7.726-7.726s7.726 3.459 7.726 7.726v17.131c0 4.267-3.459 7.726-7.726 7.726z" fill="#ffb09e"/></g></g><g><path d="m396.34 197.448v26.331c0 26.105-21.232 47.347-47.346 47.347h-83.65c-4.265 0-7.726-3.451-7.726-7.726 0-4.265 3.461-7.726 7.726-7.726h83.65c17.585 0 31.894-14.309 31.894-31.894v-7.932c6.458-4.843 11.764-11.137 15.452-18.4z" fill="#7a6d79"/></g><path d="m269.401 277.92h12.658c8.017 0 14.517-6.499 14.517-14.517 0-8.017-6.499-14.517-14.517-14.517h-12.658c-8.017 0-14.517 6.499-14.517 14.517 0 8.018 6.5 14.517 14.517 14.517z" fill="#918291"/><path d="m256 367.567-46.869 43.223c-1.561 1.439-4.075.913-4.926-1.032l-12.682-28.959c-3.771-8.612.761-18.592 9.727-21.419l17.164-6.835c21.24 20.03 53.927 20.03 75.167 0l17.169 6.835c8.966 2.828 13.498 12.808 9.727 21.419l-12.682 28.959c-.852 1.945-3.365 2.471-4.926 1.032z" fill="#eef5f6"/></g><g/><g/><g/><g/><g/><g/><g/><g/><g/><g/><g/><g/><g/><g/><g/></svg>