<svg id="Capa_1" enable-background="new 0 0 512 512" viewBox="0 0 512 512" xmlns="http://www.w3.org/2000/svg"><g><path d="m315.581 189.482 28.551-29.799c-1.259-6.958-3.483-13.705-6.608-20.048l-3.417-6.937c-1.805-3.664-1.75-7.97.147-11.587l2.28-4.346c1.052-2.005 3.455-2.883 5.551-2.027l16.376 6.684c7.616 3.004 16.13-1.416 18.055-9.374l3.283-13.568c.145-.597.552-1.097 1.108-1.359l3.244-1.527c4.356-2.05 6.589-6.951 5.278-11.583l-2.337-8.257c-.367-1.298-.395-2.663-.079-3.974.476-1.969 6.757-24.324 7.701-28.249l-68.388-22.421-19.293 69.23-5.589 11.986c-1.731 3.712-4.178 7.046-7.2 9.811l-28.255 24.656z" fill="#ffcebf"/><path d="m161.814 352.054c-19.482 3.703-37.772 12.085-53.295 24.425l-12.117 9.918 3.975 17.588 26.423 19.858 55.399-20.272c6.614-2.527 12.316-6.983 16.367-12.79l13.419-18.641-22.72-25.649-16.989-1.173c-2.461 3.481-6.192 5.925-10.462 6.736z" fill="#ffb09e"/><path d="m61.856 414.672-.919 33.273 65.862-24.102-30.398-37.446z" fill="#deecf1"/><path d="m198.622 289.827-24.726 52.647c-.448 1.01-.995 1.958-1.621 2.843l39.708 26.822 28.828-40.048z" fill="#ffd15b"/><path d="m315.581 8.632c-2.07-2.379-6.224-4.557-8.817-5.775-8.825-4.145-19.112-3.761-27.603 1.031l-.002.001c-9.625 5.432-16.049 15.163-17.263 26.148l-.798 7.222c-1.238 11.208-6.311 21.645-14.361 29.541l-12.954 12.707c-1.144 1.122-.625 3.063.926 3.465l10.918 2.83c12.103 3.137 35.559.716 45.767-10.594l8.052-10.094z" fill="#ca6e59"/><path d="m297.065 226.674 34.822 34.447c3.17 3.017 7.544 4.421 11.878 3.812l82.375-11.576c1.327-.165 2.672-.083 3.969.24l9.202 2.298c10.043 2.508 20.68.476 29.093-5.555l.575-.412c6.672-4.784 9.51-13.128 7.183-20.847-.078-.26-.156-.519-.235-.778-2.123-7.041-8.166-12.188-15.455-13.162-.137-.018-.275-.037-.412-.055-9.975-1.333-20.123.25-29.219 4.558l-5.349 2.533c-1.419.672-2.968 1.029-4.538 1.045l-65.625.668c-2.315.024-4.361-1.5-5.002-3.724l-10.731-33.858z" fill="#ffb09e"/><path d="m307.034 90.34 11.098-23.8c3.253-6.976 10.973-10.691 18.454-8.881l2.2.532c9.773 2.364 20.085-.165 27.655-6.782l2.001-1.749c.824-.721 2.064-.672 2.83.111 2.619 2.681 8.572 8.335 13.215 9.458l6.961 1.684c5.334 1.291 10.704-1.987 11.995-7.322 5.03-20.789-7.746-41.719-28.534-46.748l-23.228-5.62c-23.23-5.62-46.619 8.655-52.239 31.886l-5.244 20.635c-2.277 8.96-.433 18.468 5.028 25.928z" fill="#d78878"/><path d="m342.658 179.829c0 13.341-6.173 24.412-16.692 32.973-4.533 3.688-8.303 8.221-11.095 13.361l-16.335 38.666-44.565-8.829-24.344-29.224c5.017-5.975 5.244-14.796 8.551-21.863 2.256-4.801 4.079-9.818 5.45-15.01l1.916-7.17 5.645-9.57-1.267-6.84-11.775 1.504-21.149-21.737 10.219-18.79 37.972-9.653c16.277-4.131 33.028 4.79 38.683 20.593l2.359 6.603c1.174 3.307 3.039 6.325 5.46 8.87 3.327 3.503 7.407 5.985 11.796 7.386 6.655 2.122 11.99 3.693 18.604.53l.062 11.533c.34 2.227.505 4.462.505 6.667z" fill="#fe76a8"/><path d="m346.594 179.345c0 13.341-5.985 26.125-16.504 34.686-4.533 3.688-8.303 8.221-11.095 13.361l-20.459 37.437-44.565-8.829-28.34-31.431c5.017-5.975 9.241-12.589 12.548-19.656l36.463 17.387c8.707 4.152 19.148 1.177 24.342-6.951 14.331-22.424 24.504-54.249 24.504-54.249 6.655 2.122 14.031 1.741 20.645-1.422l1.957 13.001c.339 2.226.504 4.461.504 6.666z" fill="#fe5694"/><path d="m238.142 167.823-10.927-40.523-25.1 6.378c-6.187 1.572-11.353 5.816-14.098 11.579l-37.93 75.331c-.545 1.145-1.297 2.18-2.218 3.052l-6.182 5.854c-7.355 6.965-11.273 16.813-10.712 26.927.435 7.839 5.801 14.537 13.356 16.671 6.938 1.96 14.381-.318 19.035-5.824 6.168-7.299 10.089-16.229 11.287-25.71l.704-5.572c.187-1.478.692-2.899 1.481-4.163l36.993-55.986c2.204-3.402 5.795-5.659 9.816-6.171z" fill="#ffcebf"/><path d="m61.856 414.672 30.589 37.23c10.206 12.572 8.598 30.786-3.592 40.681l-.331.268c-5.572 4.524-13.872 3.532-18.538-2.216l-31.879-39.271c-4.666-5.747-3.93-14.074 1.642-18.597z" fill="#fe5694"/><g><path d="m355.042 349.613c0 9.066-3.678 17.75-10.199 24.055l-56.392 55.99-22.036-4.687-20.037-23.91.958-1.72c5.779-10.456 13.114-19.429 21.994-26.908 3.76-3.194 11.17.405 15.486-2.232l-.034-8.43-19.862-6.686 10.415-30.246 25.899-25.435 36.747 21.036c10.54 5.922 17.061 17.078 17.061 29.173z" fill="#ffcebf"/><path d="m225.26 438.919-.326 14.753 25.632 13.61 37.887-37.623-42.071-28.603z" fill="#eef5f6"/></g><g><path d="m155.016 149.347h-102.777c-4.268 0-7.726-3.459-7.726-7.726s3.459-7.726 7.726-7.726h102.778c4.268 0 7.726 3.459 7.726 7.726s-3.459 7.726-7.727 7.726z" fill="#cbe5e8"/></g><g><path d="m137.142 179.717h-42.353c-4.268 0-7.726-3.459-7.726-7.726s3.459-7.726 7.726-7.726h42.353c4.268 0 7.726 3.459 7.726 7.726s-3.458 7.726-7.726 7.726z" fill="#deecf1"/></g><g><path d="m305.572 376.912c-1.082 3.224-4.09 5.264-7.325 5.264-.814 0-1.648-.134-2.462-.412l-26.455-9.333c3.76-3.194 7.809-6.099 12.125-8.736l3.327-1.926 15.927 5.357c4.049 1.36 6.223 5.738 4.863 9.786z" fill="#ffb09e"/></g><path d="m301.235 299.402-36.314 55.681-30.153-10.137c-9.848-3.317-18.564-8.942-25.538-16.246-6.964-7.304-12.187-16.267-15.041-26.259-4.698-16.442-2.524-34.089 6.016-48.903l.979-1.71c3.637-6.284 8.324-11.899 13.856-16.596 3.843-3.266 7.376-6.84 10.59-10.662l72.906 40.259-6.346 11.6-5.797 4.779-1.61 8.778z" fill="#ffe177"/><g><path d="m292.19 276.429-7.407 13.557-24.395-13.959c-3.698-2.112-4.986-6.84-2.864-10.539 2.122-3.709 6.84-4.986 10.539-2.864z" fill="#ffd15b"/></g><g><path d="m272.813 178.984-27.269 3.75 4.378-16.411 20.944-2.668c4.234-.536 8.097 2.462 8.643 6.696.535 4.234-2.462 8.097-6.696 8.633z" fill="#fe5694"/></g><path d="m225.26 438.919 40.218 27.097c13.564 8.845 17.607 26.677 9.031 39.829l-.233.357c-3.921 6.012-12.126 7.608-18.326 3.564l-42.369-27.63c-6.201-4.044-8.049-12.195-4.128-18.207z" fill="#fe76a8"/><g><g><path d="m393.988 471.128c0 22.573-10.619 31.978-33.192 31.978-16.623 0-30.922-1.032-37.309-15.278-2.286-5.1-3.563-10.75-3.563-16.701 0-22.573 18.299-40.872 40.873-40.872 5.643 0 11.019 1.144 15.909 3.212 14.669 6.205 17.282 20.731 17.282 37.661z" fill="#eef5f6"/></g><path d="m376.705 433.468c2.286 5.1 3.327 11.104 3.327 17.055 0 22.573-17.269 40.872-39.842 40.872-5.95 0-11.604-1.28-16.703-3.566 6.386 14.245 20.686 24.171 37.308 24.171 22.573 0 40.872-18.299 40.872-40.872.001-16.623-10.716-31.274-24.962-37.66z" fill="#deecf1"/></g></g><g/><g/><g/><g/><g/><g/><g/><g/><g/><g/><g/><g/><g/><g/><g/></svg>