<svg id="Capa_1" enable-background="new 0 0 512 512" viewBox="0 0 512 512" xmlns="http://www.w3.org/2000/svg"><g><path d="m219.535 390.718c15.119 0 28.805-8.753 37.611-24.034l1.655-9.104c-1.252-2.577-1.959-5.449-1.959-8.458v-16.332l-15.147-51.047h-22.16-17.648l-19.658 51.219v16.159c0 2.955-.681 5.778-1.891 8.319l2.076 10.076c8.818 14.766 22.28 23.202 37.121 23.202z" fill="#ffcebf"/><path d="m182.228 281.743v51.219c11.517 5.342 24.141 8.179 37.127 8.179 13.122 0 25.873-2.9 37.487-8.351v-51.047h-37.307z" fill="#ffb09e"/><g><path d="m59.018 508.909v-32.483h86.479l-16.835 35.574h-66.553c-1.707 0-3.091-1.384-3.091-3.091z" fill="#ffcebf"/></g><path d="m106.392 416.699-26.473-22.995c-20.19 12.378-33.264 34.605-33.264 59.398v7.622l26.785 16.747 3.45-23.714c0-16.546 15.194-29.959 29.502-37.058z" fill="#ffd15b"/><path d="m166.329 400.706c13.152 12.2 35.721 17.58 53.24 17.58 24.846 0 54.412-7.41 68.399-30.659l-4.262-16.536-12.359-3.212c-5.63-1.463-10.125-5.319-12.546-10.299l-1.655 2.972c-8.806 15.281-22.492 24.034-37.611 24.034-14.841 0-28.303-8.435-37.122-23.201l-2.076-3.945c-2.404 5.048-6.932 8.961-12.614 10.438l-12.992 3.377-4.091 9.473c4.354 7.682 9.663 14.389 15.689 19.978z" fill="#eef5f6"/><path d="m138.06 421.349.729-.147 33.506-26.837c-6.025-5.589-11.335-12.296-15.688-19.978l-1.876-3.132-52.174 13.561c-8.205 1.653-15.825 4.711-22.638 8.887l17.406 20.97c3.279-1.626 37.019 7.424 40.735 6.676z" fill="#ffe177"/><path d="m118.534 428.022-21.208-13.349c-14.307 7.1-23.886 21.883-23.886 38.429v24.369l65.35 6.667c0-20.495-7.166-40.346-20.256-56.116z" fill="#fe5694"/><path d="m145.497 492.129h-104.749c-3.846 0-6.964-3.118-6.964-6.964v-17.478c0-3.846 3.118-6.964 6.964-6.964h100.513z" fill="#eef5f6"/><path d="m336.513 384.816-52.807-13.725-2.405 5.285c-13.987 23.249-36.921 37.056-61.766 37.056-17.519 0-34.087-6.867-47.239-19.067l-63.721 16.562-.729.147c-3.716.749-7.242 1.973-10.52 3.599l11.081 13.349c13.09 15.77 20.256 35.62 20.256 56.116v27.862h32.239l58.053-8.653 58.053 8.653h99.516l15.892-15.271v-43.627c-.001-33.159-23.383-61.735-55.903-68.286z" fill="#fe76a8"/><path d="m340.933 105.83c0-55.352-37.717-103.434-89.03-103.434-8.818 0-15.841-1.17-24.824 1.426-2.04.587-4.079 5.161-6.119 5.893-.515.185-1.061.278-1.607.278-.536 0-1.082-.093-1.597-.278-2.04-.731-4.09-5.305-6.13-5.893-61.183-17.688-123.457 28.176-123.457 93.036v79.856h260.304z" fill="#d78878"/><path d="m369.295 249.551c-12.146-15.164-18.76-34.017-18.76-53.446l-2.063-19.391h-260.303v19.391c0 9.715-1.648 19.285-4.821 28.32s-7.86 17.544-13.928 25.126c-.989 1.236-.68 3.049.659 3.884l.258.154c91.305 56.917 207.056 56.856 298.299-.154 1.339-.835 1.648-2.648.659-3.873z" fill="#ca6e59"/><path d="m350.535 96.858v81.065l-25.816-25.579.051-41.98c0-90.161-97.692-106.541-97.692-106.541 8.984-2.597 17.988-3.823 26.806-3.823 51.313 0 96.651 41.506 96.651 96.858z" fill="#ca6e59"/><g><path d="m227.079 3.822v62.996c0 4.265-3.461 7.726-7.726 7.726s-7.726-3.461-7.726-7.726v-62.996c2.04.587 4.09 1.257 6.13 1.988.515.185 1.061.278 1.597.278.546 0 1.092-.093 1.607-.278 2.038-.731 4.078-1.401 6.118-1.988z" fill="#ca6e59"/></g><path d="m312.487 225.864h-186.264c-29.115 0-52.718-23.603-52.718-52.718 0-11.583 9.39-20.972 20.972-20.972h249.755c11.583 0 20.972 9.39 20.972 20.972 0 29.116-23.602 52.718-52.717 52.718z" fill="#ffb09e"/><path d="m219.355 320.538c16.631 0 33.263-6.096 46.281-18.288l35.54-33.286c6.082-5.696 11.166-12.372 15.04-19.749 5.616-10.693 8.55-22.589 8.55-34.667v-62.208h-.043c-5.75 0-10.804-3.808-12.391-9.335-10.654-37.118-37.129-67.652-72.363-83.458l-18.686-8.382c-1.227-.551-2.632-.551-3.859 0l-18.686 8.382c-35.234 15.806-61.709 46.34-72.363 83.458-1.586 5.527-6.641 9.335-12.391 9.335h-.043v62.207c0 12.078 2.934 23.975 8.55 34.667 3.875 7.377 8.959 14.053 15.04 19.749l35.54 33.286c13.021 12.193 29.652 18.289 46.284 18.289z" fill="#ffcebf"/><g><g><g><path d="m219.355 228.348c-5.333 0-10.666-1.238-15.528-3.715-3.802-1.937-5.314-6.59-3.377-10.392 1.937-3.803 6.59-5.313 10.392-3.377 5.331 2.716 11.695 2.716 17.026 0 3.801-1.938 8.454-.426 10.392 3.377 1.937 3.802.426 8.455-3.377 10.392-4.862 2.476-10.195 3.715-15.528 3.715z" fill="#ffb09e"/></g><g><path d="m193.447 147.604c-1.259 0-2.534-.308-3.715-.957-7.904-4.346-17.343-4.346-25.245 0-3.74 2.056-8.438.691-10.493-3.048-2.056-3.739-.691-8.437 3.048-10.493 12.566-6.908 27.57-6.907 40.135 0 3.739 2.056 5.104 6.754 3.048 10.493-1.407 2.558-4.052 4.005-6.778 4.005z" fill="#ffb09e"/></g><g><path d="m277.939 147.604c-1.258 0-2.534-.308-3.715-.957-7.902-4.345-17.342-4.345-25.246 0-3.74 2.055-8.438.69-10.493-3.048-2.056-3.739-.691-8.437 3.048-10.493 12.566-6.908 27.569-6.908 40.135 0 3.739 2.056 5.104 6.754 3.048 10.493-1.405 2.558-4.049 4.005-6.777 4.005z" fill="#ffb09e"/></g></g><g><g><path d="m219.535 271.242c-8.732 0-17.465-2.028-25.425-6.083-3.802-1.937-5.314-6.59-3.377-10.392 1.937-3.803 6.59-5.313 10.392-3.377 11.527 5.873 25.292 5.873 36.819 0 3.8-1.938 8.454-.426 10.392 3.377 1.937 3.802.426 8.455-3.377 10.392-7.959 4.055-16.692 6.083-25.424 6.083z" fill="#ffb09e"/></g></g><g><path d="m261.798 190.319c-4.267 0-7.726-3.459-7.726-7.726v-17.089c0-4.267 3.459-7.726 7.726-7.726s7.726 3.459 7.726 7.726v17.089c0 4.267-3.459 7.726-7.726 7.726z" fill="#ffb09e"/></g><g><path d="m177.273 190.319c-4.267 0-7.726-3.459-7.726-7.726v-17.089c0-4.267 3.459-7.726 7.726-7.726s7.726 3.459 7.726 7.726v17.089c0 4.267-3.459 7.726-7.726 7.726z" fill="#ffb09e"/></g></g><path d="m160.901 512v-20.24c0-5.69 4.612-10.302 10.302-10.302h95.503c5.69 0 10.302 4.612 10.302 10.302v20.24z" fill="#ffe177"/><g><path d="m474.272 409.476c0 .556 0 1.102-.021 1.659-.319 20.696-6.922 36.275-17.863 52.202-12.991 18.945-31.069 31.423-53.588 38.139-9.23 2.761-16.923 4.763-27.049 4.763-10.127 0-19.137-.471-28.368-3.232-22.52-6.717-41.774-16.288-54.764-35.233-10.93-15.927-17.451-35.119-17.771-55.805-.021-.556 2.16-6.226 2.16-6.782 0-17.143 7.798-29.311 14.669-42.02 2.428-4.49.585-10.086 4.001-14.554 12.063-15.782 28.649-27.939 47.821-34.511 10.353-3.565 21.469 1.941 33.028 1.941s22.674-5.506 33.028-1.941c19.172 6.573 35.758 18.729 47.821 34.521 13.073 17.112 16.896 37.654 16.896 60.853z" fill="#eef5f6"/><path d="m458.983 352.407 4.636 31.6-5.949 13.044c-5.409 24.185-18.769 45.414-37.058 60.748-4.011 3.363-8.036 6.305-12.516 9.086-16.97 10.535-37.258 16.793-58.702 16.793-3.356 0-6.687-.145-9.983-.459-16.936-1.615-26.972-2.647-40.81-10.835 12.145 17.483 22.268 23.061 42.105 29.715 1.372.46 5.233 5.225 6.677 5.656 9.23 2.761 19.017 4.244 29.144 4.244s19.913-1.483 29.144-4.244c2.714-.809 5.234-3.553 7.847-4.578 14.66-5.75 25.607-16.438 36.066-27.39 3.149-3.297 8.197-4.158 10.841-8.013 10.94-15.927 17.451-35.109 17.771-55.805.021-.556-2.413-6.141-2.413-6.697-.001-22.911-16.8-52.865-16.8-52.865z" fill="#deecf1"/><g fill="#978ecb"><path d="m376.524 369.726-40 29.061 15.278 47.023 49.443.001 15.279-47.023z"/><path d="m409.555 314.102-33.028 23.993-33.028-23.993c10.353-3.565 21.469-5.491 33.028-5.491 11.559.001 22.674 1.927 33.028 5.491z"/><path d="m308.35 387.626-33.501 24.343c-.021-.556-.021-1.102-.021-1.659 0-23.2 7.768-44.586 20.851-61.698z"/><path d="m341.218 499.985c-22.52-6.717-36.918-20.739-48.599-32.211h41.774l5.019 15.446z"/></g><path d="m460.425 467.774c-12.991 18.945-32.234 33.264-54.754 39.981l12.991-39.981z" fill="#8379c1"/><path d="m474.282 403.018c0 .556 0 1.102-.021 1.659l-16.593-7.623-12.974-9.427 12.682-39.003c9.146 14.299 16.906 31.195 16.906 54.394z" fill="#978ecb"/><g><path d="m350.534 412.066c-.947 0-1.909-.175-2.844-.545l-51.13-20.254c-3.967-1.571-5.909-6.061-4.338-10.029 1.57-3.967 6.062-5.91 10.029-4.338l51.13 20.254c3.967 1.571 5.909 6.061 4.338 10.029-1.202 3.033-4.11 4.883-7.185 4.883z" fill="#978ecb"/></g><g><path d="m376.524 386.205c-4.267 0-7.726-3.459-7.726-7.726l.001-51.717c0-4.267 3.46-7.726 7.726-7.726 4.267 0 7.726 3.459 7.726 7.726l-.001 51.717c.001 4.267-3.459 7.726-7.726 7.726z" fill="#978ecb"/></g><g><path d="m399.707 413.179c-3.076 0-5.984-1.85-7.186-4.883-1.571-3.967.371-8.457 4.338-10.029l60.72-24.052c3.968-1.572 8.458.37 10.029 4.338 1.571 3.967-.371 8.457-4.338 10.029l-60.72 24.052c-.934.37-1.896.545-2.843.545z" fill="#978ecb"/></g><g><path d="m426.354 485.198c-2.278 0-4.534-1.003-6.059-2.927l-33.934-42.797c-2.651-3.344-2.09-8.203 1.254-10.855 3.344-2.65 8.204-2.089 10.855 1.254l33.934 42.797c2.651 3.344 2.09 8.203-1.254 10.855-1.421 1.126-3.115 1.673-4.796 1.673z" fill="#978ecb"/></g><path d="m420.612 457.8c-3.948 3.309-8.129 6.346-12.516 9.086l12.199 15.385c1.525 1.924 3.781 2.927 6.059 2.927 1.682 0 3.375-.547 4.795-1.673 3.344-2.651 3.905-7.511 1.254-10.855z" fill="#8379c1"/><g><path d="m326.693 485.198c-1.682 0-3.375-.547-4.795-1.673-3.344-2.651-3.905-7.511-1.254-10.855l36.696-46.279c2.651-3.344 7.512-3.904 10.855-1.254 3.344 2.651 3.905 7.511 1.254 10.855l-36.696 46.279c-1.526 1.924-3.782 2.927-6.06 2.927z" fill="#978ecb"/></g><path d="m347.383 507.756-7.972-24.535c-16.842-1.504-32.963-7.263-46.792-15.446 11.81 17.001 28.978 30.644 48.78 37.982 1.969.729 3.965 1.396 5.984 1.999z" fill="#8379c1"/><path d="m460.344 372.729c0 8.356-.923 16.495-2.674 24.322l20.526 14.918c.021-.556.021-1.102.021-1.659 0-22.911-8.061-44.684-20.841-61.687 1.627 7.563 2.968 16.057 2.968 24.106z" fill="#8379c1"/></g></g><g/><g/><g/><g/><g/><g/><g/><g/><g/><g/><g/><g/><g/><g/><g/></svg>