<svg id="Capa_1" enable-background="new 0 0 512 512" viewBox="0 0 512 512" xmlns="http://www.w3.org/2000/svg"><g><path d="m239.075 409.602 32.38-22.84c8.516-5.994 12.848-16.337 11.144-26.611l-2.806-16.922-63.881-10.303z" fill="#ca6e59"/><g><path d="m214.857 145.424 9.888-19.298 4.86-11.186c1.521-3.502 2.313-7.276 2.328-11.094l.076-69.809 62.58-7.145c.026 3.238.046 23.61.058 25.262.008 1.155.314 2.284.888 3.287l3.652 6.38c2.049 3.579 1.207 8.115-1.988 10.721l-2.013 1.642c-.64.522-1.009 1.306-1.004 2.132l.078 11.484c.048 7.013-6.114 12.45-13.066 11.53l-11.467-2.076c-1.896-.343-3.641 1.113-3.641 3.04l-.006 42.112z" fill="#d78878"/><path d="m232.01 84.196v-13.394c-.015-7.795 4.108-14.753 11.041-18.317 2.266-1.165 4.642-1.853 6.885-1.853 8.717 0 16.891-4.233 21.921-11.353l1.166-1.65c.617-.874 1.823-1.079 2.689-.452 2.611 1.892 8.107 5.355 12.946 5.013h6.21c4.758 0 8.615-3.857 8.614-8.615-.002-18.543-15.035-33.575-33.579-33.575h-23.193c-25.189 0-45.609 20.42-46.222 45.949v37.157c.614.549 1.076 1.374 1.834 1.838 9.177 5.626 20.804 5.333 29.688-.748z" fill="#ffe177"/></g><path d="m332.048 158.568-1.169 16.47-14.483 5.532-19.961-14.29-5.146 26.085c-1.01 12.609-4.945 24.817-11.497 35.634l-21.347 34.286-35.725 2.543-30.885-13.138 3.434-7.836c2.709-5.975-1.652-12.116-.457-18.534.865-4.564 1.329-9.21 1.391-13.887l.391-28.505-18.327 21.284-20.799-9.354-8.932-13.269 23.777-37.426c6.253-9.859 16.885-16.081 28.536-16.72l23.9-1.319c7.355 14.721 27.691 16.421 37.396 3.121l3.935-5.388 10.271-.567 8.516 3.066c8.046-.443 15.937 2.359 21.902 7.778z" fill="#978ecb"/><path d="m337.132 157.35-6.253 17.688-15.906 10.673-16.668-13.866-2.06 23.735c-1.01 12.609-4.945 24.817-11.497 35.634l-18.471 30.514-43.556 3.101-36.932-13.949 3.142-6.913c2.709-5.975 4.687-12.228 5.882-18.646l43.208 4.303c11.885 1.184 23.049-6.042 26.694-17.416 10.381-32.394 11.537-83.015 11.636-88.916l9.375-.515c8.046-.443 15.937 2.359 21.902 7.778z" fill="#8379c1"/><g><path d="m198.094 389.681-42.584 32.694 8.632 39.92 45.892-32.301z" fill="#8379c1"/></g><path d="m200.851 440.41 13.926 55.009 32.529-4.216-5.123-50.793-19.047-6.241z" fill="#978ecb"/><g fill="#d78878"><path d="m133.479 205.3-46.535 18.087c-.481.187-1.01.176-1.493-.007-5.585-2.119-12.439-2.124-19.024.498-12.351 4.918-19.063 17.191-14.993 27.413s17.382 14.522 29.733 9.604c5.154-2.052 9.327-5.386 12.143-9.317.265-.369.635-.646 1.069-.779l49.369-15.061c6.544-1.996 12.387-5.809 16.851-10.994l17.674-20.53-29.733-22.629z"/><path d="m239.075 409.602-7.813-76.247-55.013 9.873 24.602 97.182h41.332z"/><path d="m461.677 196.204c-1.069-10.951-12.662-18.781-25.893-17.489-5.957.582-11.228 2.916-15.128 6.304-.424.368-.969.563-1.529.519l-55.123-4.37c-.455-.036-.885-.222-1.222-.529l-25.644-23.288-22.169 28.362 29.73 24.729c3.09 2.57 6.957 4.024 10.975 4.125l65.808-.385c.398-.002.783.117 1.119.332 4.629 2.97 10.65 4.483 17.055 3.858 13.231-1.293 23.09-11.218 22.021-22.168z"/></g><path d="m266.278 261.727-80.491-10.851-7.829 10.812c-7.494 10.35-11.513 22.811-11.479 35.589.014 4.951.636 9.882 1.852 14.681l7.916 31.27h56.024l6.718-3.141 8.839 3.141h31.962z" fill="#0ed2b3"/><path d="m230.203 478.621c12.714 0 23.02 10.306 23.02 23.02v6.238c0 2.276-1.845 4.121-4.121 4.121h-37.799c-2.276 0-4.121-1.845-4.121-4.121v-6.238c.001-12.714 10.307-23.02 23.021-23.02z" fill="#0ed2b3"/><path d="m164.4 494.625c17.374-10.137 19.433-26.924 12.096-38.665l-20.986-33.585-25.381 17.405c-2.446 1.529-3.19 4.751-1.661 7.197l28.735 45.986c1.529 2.446 4.751 3.19 7.197 1.662z" fill="#0ab69f"/><g><g><path d="m361.383 471.128c0 22.573-10.619 31.978-33.192 31.978-16.623 0-30.922-1.032-37.309-15.278-2.286-5.1-3.563-10.75-3.563-16.701 0-22.573 18.299-40.872 40.873-40.872 5.643 0 11.019 1.144 15.909 3.212 14.669 6.205 17.282 20.731 17.282 37.661z" fill="#eef5f6"/></g><path d="m344.101 433.467c2.286 5.1 3.327 11.104 3.327 17.055 0 22.573-17.269 40.872-39.842 40.872-5.95 0-11.604-1.28-16.703-3.566 6.386 14.246 20.685 24.172 37.308 24.172 22.573 0 40.872-18.299 40.872-40.872 0-16.623-10.717-31.274-24.962-37.661z" fill="#deecf1"/></g><path d="m243.614 301.434c-.428-4.244-4.212-7.34-8.463-6.911-4.245.428-7.34 4.217-6.911 8.463l4.033 40.243h15.557z" fill="#0ab69f"/></g><g/><g/><g/><g/><g/><g/><g/><g/><g/><g/><g/><g/><g/><g/><g/></svg>