<svg id="Capa_1" enable-background="new 0 0 512 512" viewBox="0 0 512 512" xmlns="http://www.w3.org/2000/svg"><g><path d="m408.115 428.949-34.161 24.345c15.588 7.735 32.33 21.781 32.33 39.808l8.89 18.898h24.031c2.845 0 5.151-2.306 5.151-5.151v-13.184c.001-27.013-14.244-51.23-36.241-64.716z" fill="#cbe5e8"/><path d="m389.15 451.796-27.098 13.747c-10.932 13.17-3.046 29.749-5.784 46.457h58.906v-18.335c0-18.027-10.436-34.134-26.024-41.869z" fill="#8379c1"/><path d="m135.604 451.796-31.719-22.847c-21.997 13.486-36.242 37.703-36.242 64.716v13.184c0 2.845 2.306 5.151 5.151 5.151h24.031l14.127-17.537c0-18.027 9.064-34.932 24.652-42.667z" fill="#cbe5e8"/><path d="m122.85 451.796c-15.588 7.735-26.025 23.842-26.025 41.869v18.335h58.906c-2.738-16.708 3.407-36.009-7.525-49.179z" fill="#8379c1"/><path d="m255.804 424.373c16.473 0 33.477-7.848 43.071-24.497v-10.094c-1.424-2.856-2.229-6.053-2.229-9.406v-19.554l-13.191-53.857h-27.455-20.689l-19.958 54.048v19.363c0 3.342-.8 6.53-2.215 9.379l-2.835 10.121c9.609 16.087 29.331 24.497 45.501 24.497z" fill="#ffcebf"/><path d="m215.354 306.965v54.048c12.518 5.931 26.281 9.089 40.451 9.089 14.314 0 28.216-3.226 40.842-9.28v-53.857h-40.647z" fill="#ffb09e"/><path d="m201.286 434.921c14.37 13.442 35.511 18.373 54.714 18.373 19.236 0 42.335-6.249 56.717-19.734 5.857-5.492 9.366-12.744 13.777-20.074v-9.023l-14.043-3.65c-6.061-1.575-10.916-5.697-13.575-11.03l-1.897 3.047c-9.595 16.649-24.506 26.186-40.979 26.186-16.17 0-30.836-9.19-40.445-25.278l-2.416-3.983c-2.656 5.347-7.517 9.479-13.588 11.057l-13.916 3.617-1.529 7.696c4.68 8.259 10.722 16.754 17.18 22.796z" fill="#eef5f6"/><path d="m157.906 453.294 46.369-23.865c-6.458-6.041-12.154-13.266-16.836-21.525l-1.805-3.475-57.085 14.837c-9.233 2.471-17.242 5.133-24.664 9.683l18.965 22.847c3.572-1.772 31.007 2.313 35.056 1.498z" fill="#deecf1"/><path d="m307.797 429.355 51.533 25.98c4.049.815 26.248-5.312 29.82-3.539l18.965-22.847c-7.422-4.551-15.836-7.347-24.664-9.683l-56.957-14.804-3.197 5.608c-4.411 7.33-9.642 13.793-15.5 19.285z" fill="#deecf1"/><path d="m389.15 451.796c-3.571-1.772-7.413-3.106-11.462-3.922l-69.891-18.519c-14.382 13.485-32.562 21.088-51.797 21.088-19.202 0-37.355-7.572-51.725-21.014l-69.963 18.445c-4.049.816-7.89 2.149-11.462 3.922l12.072 14.544c10.932 13.17 18.071 28.952 20.809 45.66h200.536c2.738-16.708 9.877-32.49 20.809-45.66z" fill="#978ecb"/><path d="m159.172 245.776-14.581 54.667v77.054c0 2.701-3.265 4.053-5.175 2.144l-6.092-6.092c-16.194-16.194-25.292-38.159-25.292-61.061v-98.667z" fill="#7a6d79"/><path d="m403.652 212.07v100.421c0 22.903-9.098 44.869-25.293 61.064l-6.091 6.091c-1.91 1.91-5.175.557-5.175-2.144v-77.056l-17.774-42.874z" fill="#7a6d79"/><path d="m144.59 235.887v64.557c0 22.902 9.098 44.867 25.292 61.061l6.092 6.092c1.91 1.91 5.175.557 5.175-2.144v-90.064z" fill="#685e68"/><path d="m367.098 235.887v64.557c0 22.902-9.098 44.867-25.292 61.061l-6.092 6.092c-1.91 1.91-5.175.557-5.175-2.144v-90.064z" fill="#685e68"/><path d="m390.973 113.051 7.759 92.893h-285.855v-100.412c0-70.918 68.322-120.995 135.201-101.153 1.998.587 3.997 9.447 5.985 10.168.556.196 1.154.299 1.741.299s1.185-.103 1.741-.299c1.988-.721 3.987-9.581 5.985-10.168 10.013-2.977 17.232 0 27.07 0 55.909-.001 100.373 48.365 100.373 108.672z" fill="#918291"/><path d="m398.732 105.532v79.53l-27.794-19.264v-56.083c0-89.55-107.407-105.336-107.407-105.336 10.013-2.978 20.057-4.379 29.896-4.379 55.907 0 105.305 45.225 105.305 105.532z" fill="#7a6d79"/><g><path d="m263.531 4.378v82.476c0 4.265-3.462 7.726-7.726 7.726-4.265 0-7.726-3.461-7.726-7.726v-82.476c1.998.587 3.997 1.236 5.985 1.957.556.196 1.154.299 1.741.299s1.185-.103 1.741-.299c1.987-.721 3.986-1.37 5.985-1.957z" fill="#7a6d79"/></g><path d="m357.273 246.084h-202.939c-31.722 0-57.437-25.715-57.437-57.437 0-12.62 10.23-22.85 22.85-22.85h272.113c12.62 0 22.85 10.23 22.85 22.85 0 31.722-25.715 57.437-57.437 57.437z" fill="#ffb09e"/><path d="m370.937 165.797v59.04c0 4.998-6.504 12.133-7.411 19.208-.931 7.26 3.71 14.455 1.858 19.208-1.092 2.843-2.359 5.635-3.791 8.345-4.234 8.066-9.787 15.35-16.421 21.572l-38.817 36.355c-14.227 13.32-32.389 19.975-50.551 19.975s-36.335-6.655-50.551-19.975l-38.817-36.355c-6.634-6.222-12.187-13.506-16.421-21.572-1.432-2.709-2.699-5.501-3.791-8.345-1.795-4.592 3.425-13.562 2.496-20.569-.97-7.313-8.048-12.675-8.048-17.846v-59.04h.051c3.132 0 6.088-1.04 8.468-2.833 2.38-1.803 4.203-4.347 5.068-7.366 11.631-40.538 40.548-73.885 79.025-91.15l20.408-9.148c1.35-.608 2.874-.608 4.224 0l20.408 9.148c19.234 8.633 36.087 21.284 49.583 36.85 13.495 15.566 23.632 34.027 29.443 54.301 1.741 6.037 7.252 10.199 13.537 10.199h.05z" fill="#ffcebf"/><g fill="#ffb09e"><path d="m239.199 244.126c5.199 2.649 10.9 3.973 16.605 3.973 5.702 0 11.405-1.324 16.604-3.973 3.803-1.937 5.315-6.59 3.377-10.392-1.936-3.802-6.591-5.312-10.391-3.377-6.006 3.059-13.176 3.059-19.178 0-3.802-1.937-8.455-.426-10.392 3.377-1.939 3.802-.427 8.454 3.375 10.392z"/><path d="m234.354 156.121c2.055-3.739.691-8.437-3.048-10.493-13.483-7.411-29.578-7.41-43.061 0-3.739 2.056-5.104 6.754-3.048 10.493s6.753 5.104 10.493 3.048c8.821-4.848 19.351-4.849 28.172 0 1.181.649 2.457.957 3.715.957 2.727 0 5.371-1.447 6.777-4.005z"/><path d="m323.363 145.628c-13.48-7.411-29.578-7.412-43.062 0-3.739 2.055-5.104 6.753-3.048 10.492 2.055 3.74 6.754 5.104 10.493 3.049 8.821-4.849 19.354-4.848 28.173 0 1.181.649 2.457.957 3.715.957 2.727-.001 5.371-1.447 6.778-4.006 2.055-3.739.691-8.436-3.049-10.492z"/><path d="m276.372 274.511c-12.757 6.499-27.988 6.499-40.744 0-3.8-1.936-8.455-.426-10.391 3.377-1.938 3.802-.426 8.455 3.377 10.392 8.573 4.369 17.98 6.553 27.386 6.553s18.813-2.184 27.386-6.553c3.803-1.937 5.315-6.59 3.377-10.392-1.937-3.802-6.591-5.313-10.391-3.377z"/><path d="m302.046 172.594c-4.268 0-7.726 3.459-7.726 7.726v18.619c0 4.267 3.459 7.726 7.726 7.726 4.268 0 7.726-3.459 7.726-7.726v-18.619c.001-4.267-3.458-7.726-7.726-7.726z"/><path d="m209.954 172.594c-4.268 0-7.726 3.459-7.726 7.726v18.619c0 4.267 3.459 7.726 7.726 7.726s7.726-3.459 7.726-7.726v-18.619c0-4.267-3.459-7.726-7.726-7.726z"/></g><g fill="#978ecb"><path d="m370.937 224.837v8.901c0 10.127-1.896 20.13-5.553 29.515h-49.521c-2.843 0-5.151-2.297-5.151-5.151v-28.114c0-2.843 2.308-5.151 5.151-5.151z"/><path d="m201.287 229.988v28.114c0 2.854-2.308 5.151-5.151 5.151h-49.912c-3.667-9.385-5.553-19.388-5.553-29.515v-8.901h55.465c2.844 0 5.151 2.308 5.151 5.151z"/></g></g><g/><g/><g/><g/><g/><g/><g/><g/><g/><g/><g/><g/><g/><g/><g/></svg>