<svg id="Capa_1" enable-background="new 0 0 512 512" viewBox="0 0 512 512" xmlns="http://www.w3.org/2000/svg"><g><path d="m64.601 491.316v-470.632c0-11.423 9.26-20.684 20.684-20.684h291.783l44.035 4.251c11.424 0 20.684 9.261 20.684 20.684l1.366 457.846c0 11.424-9.261 20.684-20.684 20.684l-41.823 8.535h-295.361c-11.424 0-20.684-9.261-20.684-20.684z" fill="#918291"/><path d="m426.715 0h-51.715c11.423 0 20.684 9.261 20.684 20.684v470.632c0 11.424-9.261 20.684-20.684 20.684h51.715c11.424 0 20.684-9.261 20.684-20.684v-470.632c0-11.423-9.26-20.684-20.684-20.684z" fill="#7a6d79"/><path d="m406.029 82.408 2.057 345.128-3.418 43.952-40.562 9.483h-28.596l-75.208-21.987-83.812 21.987h-28.596l-45.97-9.452-6.299-42.92v-164.842l3.103-7.757-3.103-7.757v-164.842l3.072-45.712 49.197-6.66h28.596l79.22 15.316 79.8-15.316h28.596l46.756 5.75z" fill="#0ed2b3"/><path d="m395.684 34.912v438.676l8.984-2.1 11.707-42.889v-164.842l-3.103-7.757 3.103-7.757v-164.842l-5.513-46.622z" fill="#0ab69f"/><g><path d="m200.629 417.533c-1.326 0-2.67-.34-3.898-1.056-3.702-2.157-4.953-6.906-2.796-10.607l4.719-8.097c11.654-20.687 33.622-33.535 57.346-33.535 23.082 0 44.71 12.305 56.537 32.138l5.068 7.051c2.501 3.479 1.708 8.325-1.771 10.826-3.476 2.498-8.325 1.707-10.825-1.771l-5.268-7.329c-.137-.191-.267-.389-.386-.592-9.01-15.303-25.622-24.809-43.355-24.809-18.147 0-34.95 9.839-43.853 25.677-.02.035-.039.07-.061.105l-4.749 8.149c-1.44 2.469-4.038 3.85-6.708 3.85z" fill="#eef5f6"/></g><g><path d="m256 321.78c-36.271 0-65.78-29.509-65.78-65.78s29.509-65.78 65.78-65.78 65.78 29.509 65.78 65.78-29.509 65.78-65.78 65.78zm0-116.047c-27.718 0-50.267 22.55-50.267 50.267s22.55 50.267 50.267 50.267 50.267-22.55 50.267-50.267-22.549-50.267-50.267-50.267z" fill="#eef5f6"/></g><g><path d="m256 147.764c-23.745 0-45.73-12.87-57.376-33.588-.112-.199-.215-.403-.308-.611l-3.611-8.002c-1.762-3.905-.025-8.498 3.879-10.26s8.498-.025 10.26 3.88l3.465 7.679c8.943 15.67 25.653 25.39 43.69 25.39 17.733 0 34.345-9.506 43.355-24.809l3.66-6.264c2.161-3.698 6.912-4.946 10.611-2.783 3.699 2.161 4.945 6.912 2.783 10.61l-3.673 6.286c-11.796 20.037-33.532 32.472-56.735 32.472z" fill="#eef5f6"/></g><g><path d="m95.625 248.243h316.559v15.513h-316.559z" fill="#eef5f6"/></g><path d="m395.684 248.243h20.691v15.513h-20.691z" fill="#deecf1"/><path d="m332.408 109.146h-152.816c-1.714 0-3.103-1.389-3.103-3.103v-75.017h34.132l44.158 7.116 46.6-7.116h34.132v75.017c0 1.714-1.389 3.103-3.103 3.103z" fill="#0ab69f"/><path d="m332.408 402.854h-152.816c-1.714 0-3.103 1.389-3.103 3.103v75.017h34.132l46.793-12.904 43.964 12.904h34.132v-75.017c.001-1.714-1.388-3.103-3.102-3.103z" fill="#0ab69f"/><path d="m298.276 75.014h-84.552c-1.714 0-3.103-1.389-3.103-3.103v-40.885h90.757v40.885c.001 1.714-1.388 3.103-3.102 3.103z" fill="#01998d"/><path d="m298.276 436.986h-84.552c-1.714 0-3.103 1.389-3.103 3.103v40.885h90.757v-40.885c.001-1.714-1.388-3.103-3.102-3.103z" fill="#01998d"/><path d="m147.894 477.052v3.92h-49.166c-1.714 0-3.103-1.389-3.103-3.103v-49.27h1.851c26.786.931 48.453 21.956 50.418 48.453z" fill="#eef5f6"/><path d="m364.106 477.052v3.92h31.578l18.265-3.85-2.161-42.526h-1.851c-6.673.232-8.441-4.286-14.254-1.786-17.518 7.535-30.102 24.346-31.577 44.242z" fill="#eef5f6"/><path d="m395.684 432.811v48.16h17.588c1.714 0 3.103-1.389 3.103-3.103v-49.27h-1.851c-6.674.233-13.028 1.713-18.84 4.213z" fill="#deecf1"/><path d="m364.106 34.948v-3.92h31.578l15.516 3.883-.926 40.102c-6.673-.232-8.779 6.676-14.591 4.176-17.518-7.534-30.102-24.345-31.577-44.241z" fill="#eef5f6"/><path d="m395.684 79.189c5.812 2.5 12.167 3.98 18.84 4.212h1.851v-49.27c0-1.714-1.389-3.103-3.103-3.103h-17.588z" fill="#deecf1"/><path d="m147.894 34.948v-3.92h-49.166c-1.714 0-3.103 1.389-3.103 3.103v49.27h1.851c26.786-.931 48.453-21.956 50.418-48.453z" fill="#eef5f6"/></g><g/><g/><g/><g/><g/><g/><g/><g/><g/><g/><g/><g/><g/><g/><g/></svg>