<svg id="Capa_1" enable-background="new 0 0 512 512" viewBox="0 0 512 512" xmlns="http://www.w3.org/2000/svg"><g><g><g><path d="m281.383 1.487-12.43 20.468-5.365 30.866 17.682 47.334 37.007-43.971 23.817-56.184h-58.068c-1.08 0-2.082.564-2.643 1.487z" fill="#0ab69f"/><path d="m268.954 21.954-18.352 30.219 30.668 47.982 20.432-24.276z" fill="#01998d"/><path d="m342.094 0-43.237 71.195 2.836 60.912 15.954-2.602 78.376-125.848-16.892-3.657z" fill="#8379c1"/><path d="m379.131 0-54.924 90.441c-3.112 5.125-10.55 5.125-13.662 0l-11.687-19.245-17.587 28.959 20.423 31.952h19.881l77.374-127.411c1.251-2.06-.232-4.696-2.642-4.696z" fill="#6e61b6"/><g><path d="m340.484 220.492h-167.171c-4.268 0-7.728-3.459-7.728-7.728v-68.019c0-10.935 8.896-19.832 19.832-19.832h142.963c10.935 0 19.831 8.897 19.831 19.832v68.019c.001 4.268-3.459 7.728-7.727 7.728zm-159.443-15.456h151.716v-60.291c0-2.414-1.963-4.377-4.376-4.377h-11.625l-64.9-10.863-54.615 10.863h-11.824c-2.413 0-4.376 1.963-4.376 4.377z" fill="#ffc344"/></g><g><g><path d="m374.584 225.449c66.241 66.241 62.929 164.732-3.312 230.974s-162.504 64.54-228.745-1.701c-24.679-24.679-45.729-47.474-52.019-79.323-10.593-53.635 4.889-111.399 46.45-152.961 54.875-54.875 137.996-64.291 202.564-28.247 13.374 7.466 23.696 19.892 35.062 31.258z" fill="#ffe177"/></g><path d="m376.839 222.438c-11.366-11.366-23.944-20.782-37.317-28.247 14 18.415 23.023 40.524 27.593 64.105 1.848 9.535 3.745 18.936 3.745 29.011 0 85.059-68.954 154.013-154.012 154.013-27.004 0-52.256-8.393-74.321-20.604-20.667-11.437-38.556-26.046-52.019-45.319 6.29 31.848 21.771 62.241 46.451 86.92 66.241 66.241 173.64 66.241 239.881 0s66.24-173.637-.001-239.879z" fill="#ffd15b"/><g><path d="m390.147 341.248c0 .758 0 1.503-.028 2.261-.435 28.212-9.436 49.448-24.35 71.159-17.708 25.825-42.351 42.834-73.049 51.99-12.582 3.764-23.068 6.493-36.872 6.493s-26.087-.643-38.67-4.406c-30.698-9.156-56.944-22.203-74.652-48.028-14.9-21.71-23.789-47.872-24.224-76.07-.028-.758 2.944-8.487 2.944-9.245 0-23.368 10.63-39.956 19.997-57.28 3.31-6.121.798-13.749 5.454-19.839 16.444-21.514 39.053-38.084 65.187-47.044 14.113-4.859 29.265 2.646 45.022 2.646 15.756 0 30.908-7.505 45.022-2.646 26.134 8.959 48.743 25.53 65.187 47.058 17.821 23.325 23.032 51.327 23.032 82.951z" fill="#eef5f6"/><path d="m369.306 263.454 6.319 43.076-8.109 17.782c-7.373 32.967-25.585 61.907-50.516 82.809-5.467 4.584-10.954 8.595-17.061 12.386-23.133 14.361-50.788 22.891-80.019 22.891-4.574 0-9.116-.197-13.608-.626-23.086-2.202-36.767-3.608-55.631-14.77 16.556 23.832 30.355 31.435 57.396 40.505 1.87.627 7.134 7.123 9.102 7.71 12.582 3.764 25.923 5.786 39.727 5.786s27.145-2.022 39.727-5.786c3.699-1.103 7.134-4.844 10.697-6.241 19.984-7.838 34.907-22.407 49.163-37.336 4.292-4.495 11.174-5.668 14.778-10.923 14.914-21.71 23.789-47.858 24.224-76.07.028-.758-3.289-8.371-3.289-9.129 0-31.232-22.9-72.064-22.9-72.064z" fill="#deecf1"/><g fill="#978ecb"><path d="m256.903 287.062-54.526 39.615 20.826 64.1h67.398l20.828-64.099z"/><path d="m301.928 211.239-45.022 32.706-45.022-32.706c14.113-4.859 29.265-7.485 45.022-7.485s30.909 2.626 45.022 7.485z"/><path d="m163.971 311.463-45.667 33.183c-.028-.758-.028-1.503-.028-2.261 0-31.625 10.588-60.778 28.423-84.103z"/><path d="m208.775 464.626c-30.698-9.156-50.325-28.27-66.248-43.909h56.944l6.841 21.055z"/></g><path d="m371.272 420.717c-17.708 25.825-43.94 45.344-74.638 54.5l17.708-54.5z" fill="#8379c1"/><path d="m390.162 332.445c0 .758 0 1.503-.028 2.261l-22.619-10.391-17.686-12.851 17.287-53.167c12.467 19.492 23.046 42.523 23.046 74.148z" fill="#978ecb"/><g><path d="m221.474 344.778c-1.291 0-2.603-.239-3.876-.743l-69.698-27.609c-5.408-2.142-8.055-8.263-5.913-13.671 2.141-5.408 8.263-8.056 13.671-5.913l69.697 27.609c5.408 2.142 8.055 8.263 5.913 13.671-1.638 4.135-5.602 6.656-9.794 6.656z" fill="#978ecb"/></g><g><path d="m256.903 309.526c-5.817 0-10.532-4.715-10.532-10.532l.001-70.498c0-5.817 4.716-10.532 10.532-10.532 5.817 0 10.532 4.715 10.532 10.532l-.001 70.498c0 5.816-4.716 10.532-10.532 10.532z" fill="#978ecb"/></g><g><path d="m288.504 346.295c-4.193 0-8.157-2.521-9.795-6.656-2.142-5.408.506-11.528 5.913-13.671l82.771-32.786c5.409-2.143 11.529.505 13.671 5.913s-.506 11.528-5.913 13.671l-82.771 32.786c-1.273.504-2.585.743-3.876.743z" fill="#978ecb"/></g><g><path d="m324.828 444.468c-3.105 0-6.181-1.367-8.26-3.989l-46.257-58.339c-3.614-4.558-2.848-11.182 1.709-14.796 4.558-3.613 11.183-2.848 14.796 1.709l46.257 58.339c3.614 4.558 2.848 11.182-1.709 14.796-1.935 1.535-4.244 2.28-6.536 2.28z" fill="#978ecb"/></g><path d="m317.001 407.12c-5.381 4.51-11.081 8.65-17.061 12.386l16.629 20.972c2.079 2.622 5.154 3.989 8.26 3.989 2.292 0 4.601-.745 6.537-2.28 4.558-3.614 5.323-10.239 1.709-14.796z" fill="#8379c1"/><g><path d="m188.975 444.468c-2.293 0-4.601-.745-6.537-2.28-4.558-3.614-5.323-10.239-1.709-14.796l50.022-63.085c3.614-4.558 10.239-5.322 14.796-1.709 4.558 3.614 5.323 10.239 1.709 14.796l-50.022 63.085c-2.078 2.622-5.154 3.989-8.259 3.989z" fill="#978ecb"/></g><path d="m217.179 475.218-10.867-33.445c-22.958-2.051-44.933-9.9-63.785-21.055 16.099 23.175 39.502 41.772 66.494 51.775 2.685.994 5.406 1.904 8.158 2.725z" fill="#8379c1"/><path d="m371.162 291.157c0 11.39-1.259 22.485-3.645 33.155l27.979 20.335c.028-.758.028-1.503.028-2.261 0-31.231-10.988-60.912-28.409-84.089 2.219 10.308 4.047 21.888 4.047 32.86z" fill="#8379c1"/></g></g><path d="m256.935 140.346-34.795-74.263-50.436-66.083h-54.214c-2.41 0-3.893 2.636-2.642 4.696l82.393 135.673z" fill="#0ed2b3"/><path d="m293.882 140.366 16.275-6.451-80.199-130.428-21.117-3.487h-37.137l85.231 140.346z" fill="#978ecb"/><path d="m316.756 140.368-84.342-138.881c-.56-.923-1.562-1.487-2.642-1.487h-20.931l84.461 139.078c.254.419.446.851.58 1.288z" fill="#8379c1"/></g></g><g><g><path d="m448.337 126.914h-17.664c-4.268 0-7.728-3.459-7.728-7.728s3.459-7.728 7.728-7.728h17.664c4.268 0 7.728 3.459 7.728 7.728s-3.459 7.728-7.728 7.728z" fill="#ffe177"/></g><g><path d="m394.58 126.914h-17.664c-4.268 0-7.728-3.459-7.728-7.728s3.459-7.728 7.728-7.728h17.664c4.268 0 7.728 3.459 7.728 7.728s-3.459 7.728-7.728 7.728z" fill="#ffe177"/></g><g><path d="m412.626 108.867c-4.268 0-7.728-3.459-7.728-7.728v-17.663c0-4.268 3.459-7.728 7.728-7.728s7.728 3.459 7.728 7.728v17.664c0 4.268-3.459 7.727-7.728 7.727z" fill="#ffd15b"/></g><g><path d="m412.626 162.624c-4.268 0-7.728-3.459-7.728-7.728v-17.664c0-4.268 3.459-7.728 7.728-7.728s7.728 3.459 7.728 7.728v17.664c0 4.269-3.459 7.728-7.728 7.728z" fill="#ffd15b"/></g></g><g><g><path d="m81.326 126.914h-17.663c-4.268 0-7.728-3.459-7.728-7.728s3.46-7.728 7.728-7.728h17.663c4.268 0 7.728 3.459 7.728 7.728s-3.46 7.728-7.728 7.728z" fill="#ffe177"/></g><g><path d="m135.083 126.914h-17.664c-4.268 0-7.728-3.459-7.728-7.728s3.46-7.728 7.728-7.728h17.664c4.268 0 7.728 3.459 7.728 7.728s-3.46 7.728-7.728 7.728z" fill="#ffe177"/></g><g><path d="m99.373 108.867c-4.268 0-7.728-3.459-7.728-7.728v-17.663c0-4.268 3.46-7.728 7.728-7.728s7.728 3.459 7.728 7.728v17.664c-.001 4.268-3.461 7.727-7.728 7.727z" fill="#ffd15b"/></g><g><path d="m99.373 162.624c-4.268 0-7.728-3.459-7.728-7.728v-17.664c0-4.268 3.46-7.728 7.728-7.728s7.728 3.459 7.728 7.728v17.664c-.001 4.269-3.461 7.728-7.728 7.728z" fill="#ffd15b"/></g></g></g><g/><g/><g/><g/><g/><g/><g/><g/><g/><g/><g/><g/><g/><g/><g/></svg>