<svg id="Capa_1" enable-background="new 0 0 512 512" viewBox="0 0 512 512" xmlns="http://www.w3.org/2000/svg"><g><path d="m31.851 183.293v-74.359c0-2.845 2.306-5.151 5.151-5.151h469.847c2.845 0 5.151 2.306 5.151 5.151v262.28c0 2.845-2.306 5.151-5.151 5.151h-61.324z" fill="#978ecb"/><path d="m472.937 137.695-16.485-2.061h-62.893l-10.303 137.867 10.303 134.715h62.893l16.485-2.061c2.845 0 5.151-2.306 5.151-5.151v-258.158c0-2.845-2.306-5.151-5.151-5.151z" fill="#eef5f6"/><path d="m474.998 135.635h-20.606c2.845 0 5.151 2.306 5.151 5.151v262.28c0 2.845-2.306 5.151-5.151 5.151h20.606c2.845 0 5.151-2.306 5.151-5.151v-262.28c0-2.845-2.306-5.151-5.151-5.151z" fill="#deecf1"/><path d="m5.151 135.635c-2.845 0-5.151 2.306-5.151 5.151v262.28c0 2.845 2.306 5.151 5.151 5.151h388.409v-272.582z" fill="#0ed2b3"/><g><path d="m357.185 186.254h-100.373c-4.267 0-7.726-3.459-7.726-7.726s3.459-7.726 7.726-7.726h100.373c4.267 0 7.726 3.459 7.726 7.726s-3.459 7.726-7.726 7.726z" fill="#0ab69f"/></g><g><path d="m357.185 219.927h-79.767c-4.267 0-7.726-3.459-7.726-7.726s3.459-7.726 7.726-7.726h79.767c4.267 0 7.726 3.459 7.726 7.726s-3.459 7.726-7.726 7.726z" fill="#0ab69f"/></g><g><path d="m357.185 373.05h-100.373c-4.267 0-7.726-3.459-7.726-7.726s3.459-7.726 7.726-7.726h100.373c4.267 0 7.726 3.459 7.726 7.726s-3.459 7.726-7.726 7.726z" fill="#0ab69f"/></g><g><path d="m357.185 339.377h-79.767c-4.267 0-7.726-3.459-7.726-7.726s3.459-7.726 7.726-7.726h79.767c4.267 0 7.726 3.459 7.726 7.726s-3.459 7.726-7.726 7.726z" fill="#0ab69f"/></g><g><path d="m436.954 340.225c-4.267 0-7.726-3.459-7.726-7.726v-121.147c0-4.268 3.459-7.726 7.726-7.726s7.726 3.459 7.726 7.726v121.147c0 4.268-3.459 7.726-7.726 7.726z" fill="#deecf1"/></g><path d="m352.034 297.274h-69.465c-2.845 0-5.151-2.306-5.151-5.151v-40.395c0-2.845 2.306-5.151 5.151-5.151h69.465c2.845 0 5.151 2.306 5.151 5.151v40.395c0 2.845-2.307 5.151-5.151 5.151z" fill="#0ab69f"/><g><path d="m243.325 271.051c0 .586 0 1.162-.022 1.748-.337 21.816-7.297 38.238-18.829 55.027-13.694 19.97-32.75 33.123-56.488 40.203-9.73 2.91-17.838 5.021-28.513 5.021s-20.173-.497-29.903-3.407c-23.738-7.08-44.035-17.169-57.728-37.139-11.522-16.789-18.396-37.019-18.732-58.825-.022-.586 2.277-6.563 2.277-7.149 0-18.07 8.22-30.898 15.463-44.294 2.559-4.733.617-10.632 4.218-15.341 12.716-16.636 30.2-29.45 50.409-36.379 10.914-3.757 22.631 2.046 34.815 2.046s23.901-5.804 34.815-2.046c20.209 6.928 37.693 19.742 50.409 36.389 13.778 18.038 17.809 39.691 17.809 64.146z" fill="#eef5f6"/><path d="m227.208 210.894 4.887 33.31-6.271 13.75c-5.702 25.493-19.785 47.872-39.063 64.036-4.228 3.545-8.471 6.646-13.193 9.578-17.889 11.105-39.274 17.702-61.878 17.702-3.537 0-7.049-.152-10.523-.484-17.852-1.703-28.432-2.79-43.019-11.422 12.802 18.429 23.473 24.309 44.384 31.323 1.446.485 5.517 5.508 7.039 5.962 9.73 2.91 20.046 4.474 30.721 4.474s20.991-1.564 30.721-4.474c2.861-.853 5.517-3.746 8.272-4.826 15.453-6.061 26.993-17.328 38.018-28.872 3.319-3.476 8.641-4.383 11.428-8.447 11.533-16.789 18.396-37.009 18.732-58.825.022-.586-2.544-6.473-2.544-7.06-.002-24.15-17.711-55.725-17.711-55.725z" fill="#deecf1"/><g fill="#978ecb"><path d="m140.287 229.149-42.165 30.635 16.105 49.568h52.119l16.106-49.568z"/><path d="m175.105 170.516-34.815 25.291-34.815-25.291c10.914-3.757 22.631-5.788 34.815-5.788s23.901 2.03 34.815 5.788z"/><path d="m68.423 248.019-35.314 25.661c-.022-.586-.022-1.162-.022-1.748 0-24.455 8.188-46.999 21.979-65.036z"/><path d="m103.07 366.459c-23.738-7.08-38.916-21.861-51.23-33.954h44.035l5.29 16.282z"/></g><path d="m228.728 332.504c-13.694 19.97-33.979 35.065-57.717 42.145l13.694-42.145z" fill="#8379c1"/><path d="m243.336 264.244c0 .586 0 1.162-.022 1.748l-17.491-8.036-13.676-9.938 13.368-41.113c9.64 15.073 17.821 32.884 17.821 57.339z" fill="#978ecb"/><g><path d="m112.89 273.781c-.998 0-2.013-.185-2.997-.575l-53.897-21.35c-4.182-1.656-6.229-6.389-4.572-10.571 1.655-4.182 6.39-6.23 10.571-4.572l53.897 21.35c4.182 1.656 6.229 6.389 4.572 10.571-1.266 3.197-4.332 5.147-7.574 5.147z" fill="#978ecb"/></g><g><path d="m140.287 246.52c-4.498 0-8.144-3.646-8.144-8.144l.001-54.516c0-4.498 3.647-8.144 8.144-8.144 4.498 0 8.144 3.646 8.144 8.144l-.001 54.516c.001 4.498-3.646 8.144-8.144 8.144z" fill="#978ecb"/></g><g><path d="m164.724 274.954c-3.242 0-6.308-1.95-7.574-5.147-1.656-4.182.391-8.915 4.573-10.571l64.006-25.353c4.183-1.658 8.915.39 10.572 4.572 1.656 4.182-.391 8.915-4.573 10.571l-64.006 25.353c-.985.39-2 .575-2.998.575z" fill="#978ecb"/></g><g><path d="m192.813 350.871c-2.401 0-4.78-1.057-6.387-3.085l-35.77-45.113c-2.794-3.525-2.203-8.647 1.322-11.442 3.525-2.794 8.648-2.202 11.442 1.322l35.77 45.113c2.794 3.525 2.203 8.647-1.322 11.442-1.497 1.187-3.282 1.763-5.055 1.763z" fill="#978ecb"/></g><path d="m186.761 321.99c-4.161 3.488-8.569 6.689-13.193 9.578l12.859 16.218c1.608 2.028 3.986 3.085 6.387 3.085 1.773 0 3.558-.576 5.055-1.763 3.525-2.795 4.116-7.918 1.322-11.442z" fill="#8379c1"/><g><path d="m87.759 350.871c-1.773 0-3.558-.576-5.055-1.763-3.525-2.795-4.116-7.918-1.322-11.442l38.682-48.784c2.795-3.525 7.918-4.116 11.442-1.322 3.525 2.795 4.116 7.918 1.322 11.442l-38.682 48.784c-1.607 2.028-3.986 3.085-6.387 3.085z" fill="#978ecb"/></g><path d="m109.569 374.649-8.403-25.863c-17.753-1.586-34.747-7.656-49.325-16.282 12.449 17.921 30.546 32.302 51.419 40.037 2.077.77 4.18 1.473 6.309 2.108z" fill="#8379c1"/><path d="m228.643 232.316c0 8.808-.973 17.387-2.819 25.638l21.636 15.725c.022-.586.022-1.162.022-1.748 0-24.151-8.497-47.103-21.968-65.026 1.716 7.972 3.129 16.926 3.129 25.411z" fill="#8379c1"/></g></g><g/><g/><g/><g/><g/><g/><g/><g/><g/><g/><g/><g/><g/><g/><g/></svg>