<svg id="Capa_1" enable-background="new 0 0 512 512" viewBox="0 0 512 512" xmlns="http://www.w3.org/2000/svg"><g><g><path d="m338.521 439.386-9.33.659h-.01l-135.917 9.618-159.087-10.277 25.991-89.609 19.711-32.458-.887-32.458 29.914-103.151 19.791-32.737-.968-32.179 31.882-109.915c1.185-4.078 4.912-6.879 9.165-6.879h6.309l25.333 5.06c4.243 0 7.981 2.801 9.165 6.879l102.947 337.838z" fill="#fe76a8"/><path d="m312.53 349.777-19.711-32.458.887-32.458-29.914-103.151-19.112-30.395.288-34.521-31.881-109.915c-1.185-4.078-4.923-6.879-9.165-6.879h-30.896c4.243 0 7.981 2.801 9.165 6.879l31.881 109.916-.288 34.521 19.112 30.395 29.914 103.151-.887 32.458 19.711 32.458 25.991 89.609 21.556.659h.01l9.33-.659z" fill="#fe5694"/><path d="m312.53 349.777h-252.362l18.824-64.916h214.714z" fill="#eef5f6"/><path d="m255.774 176.754-22.878 4.957h-123.99l18.824-64.916h86.342l26.461 6.563z" fill="#eef5f6"/><path d="m341.978 474.206h-338.766c-1.706 0-3.089-1.383-3.089-3.089v-14.195c0-9.686 7.852-17.538 17.538-17.538h306.779c9.686 0 17.538 7.852 17.538 17.538z" fill="#fe5694"/></g><g><path d="m244.968 116.795h-30.896l18.824 64.916h30.896z" fill="#deecf1"/></g><g><path d="m506.334 367.915c0 .782 0 1.549-.029 2.331-.449 29.086-9.728 50.98-25.104 73.363-18.257 26.625-43.663 44.161-75.312 53.601-12.972 3.88-23.783 6.694-38.015 6.694s-26.895-.662-39.868-4.543c-31.649-9.44-58.708-22.891-76.965-49.516-15.361-22.383-24.526-49.356-24.975-78.428-.029-.782 3.035-8.75 3.035-9.532 0-24.092 10.959-41.194 20.616-59.054 3.412-6.311.822-14.175 5.623-20.454 16.954-22.18 40.263-39.264 67.207-48.501 14.55-5.01 30.172 2.728 46.417 2.728 16.244 0 31.866-7.738 46.417-2.728 26.944 9.237 50.253 26.321 67.207 48.516 18.373 24.049 23.746 52.918 23.746 85.523z" fill="#eef5f6"/><path d="m484.847 287.71 6.515 44.41-8.36 18.332c-7.602 33.989-26.378 63.825-52.081 85.375-5.637 4.726-11.293 8.861-17.59 12.77-23.85 14.806-52.362 23.601-82.498 23.601-4.716 0-9.398-.203-14.03-.645-23.802-2.27-37.906-3.72-57.354-15.228 17.069 24.57 31.296 32.409 59.174 41.76 1.928.647 7.355 7.343 9.384 7.949 12.972 3.88 26.726 5.965 40.958 5.965s27.986-2.085 40.958-5.965c3.814-1.138 7.355-4.994 11.028-6.434 20.603-8.081 35.988-23.102 50.686-38.493 4.425-4.634 11.52-5.843 15.236-11.262 15.376-22.383 24.526-49.341 24.975-78.428.029-.782-3.391-8.63-3.391-9.412 0-32.197-23.61-74.295-23.61-74.295z" fill="#deecf1"/><g fill="#978ecb"><path d="m368.961 312.05-56.216 40.842 21.472 66.086h69.487l21.473-66.085z"/><path d="m415.381 233.877-46.417 33.719-46.417-33.719c14.55-5.01 30.172-7.717 46.417-7.717s31.867 2.708 46.417 7.717z"/><path d="m273.149 337.207-47.082 34.212c-.029-.782-.029-1.549-.029-2.331 0-32.605 10.916-62.661 29.303-86.709z"/><path d="m319.342 495.115c-31.649-9.44-51.885-29.146-68.301-45.269h58.708l7.053 21.708z"/></g><path d="m486.874 449.846c-18.257 26.625-45.302 46.749-76.951 56.189l18.257-56.189z" fill="#8379c1"/><path d="m506.349 358.839c0 .782 0 1.549-.029 2.331l-23.32-10.714-18.234-13.249 17.822-54.814c12.854 20.096 23.761 43.841 23.761 76.446z" fill="#978ecb"/><g><path d="m332.434 371.554c-1.331 0-2.684-.246-3.996-.766l-71.857-28.464c-5.576-2.208-8.305-8.519-6.096-14.094 2.207-5.576 8.519-8.306 14.094-6.096l71.857 28.464c5.576 2.208 8.305 8.519 6.096 14.094-1.689 4.263-5.776 6.862-10.098 6.862z" fill="#978ecb"/></g><g><path d="m368.961 335.209c-5.997 0-10.859-4.862-10.859-10.859l.001-72.683c0-5.997 4.862-10.859 10.859-10.859 5.997 0 10.859 4.862 10.859 10.859l-.001 72.683c0 5.997-4.863 10.859-10.859 10.859z" fill="#978ecb"/></g><g><path d="m401.541 373.118c-4.323 0-8.41-2.599-10.099-6.862-2.208-5.576.522-11.886 6.097-14.094l85.336-33.802c5.576-2.21 11.886.52 14.095 6.096 2.208 5.576-.522 11.886-6.097 14.094l-85.336 33.802c-1.313.52-2.665.766-3.996.766z" fill="#978ecb"/></g><g><path d="m438.991 474.333c-3.202 0-6.372-1.41-8.516-4.113l-47.69-60.147c-3.726-4.699-2.937-11.529 1.762-15.255 4.7-3.725 11.529-2.936 15.255 1.762l47.69 60.147c3.726 4.699 2.937 11.529-1.762 15.255-1.996 1.583-4.376 2.351-6.739 2.351z" fill="#978ecb"/></g><path d="m430.921 435.828c-5.548 4.65-11.425 8.918-17.59 12.77l17.144 21.622c2.143 2.703 5.314 4.113 8.516 4.113 2.363 0 4.744-.768 6.739-2.351 4.699-3.726 5.488-10.556 1.762-15.255z" fill="#8379c1"/><g><path d="m298.929 474.333c-2.364 0-4.744-.768-6.739-2.351-4.699-3.726-5.488-10.556-1.762-15.255l51.572-65.04c3.726-4.7 10.557-5.487 15.255-1.762 4.699 3.726 5.488 10.556 1.762 15.255l-51.572 65.04c-2.144 2.703-5.315 4.113-8.516 4.113z" fill="#978ecb"/></g><path d="m328.006 506.035-11.204-34.481c-23.669-2.114-46.326-10.207-65.762-21.708 16.598 23.893 40.726 43.066 68.554 53.379 2.77 1.026 5.574 1.964 8.412 2.81z" fill="#8379c1"/><path d="m486.76 316.271c0 11.743-1.298 23.181-3.758 34.182l28.846 20.965c.029-.782.029-1.549.029-2.331 0-32.199-11.329-62.799-29.289-86.695 2.288 10.629 4.172 22.567 4.172 33.879z" fill="#8379c1"/></g></g><g/><g/><g/><g/><g/><g/><g/><g/><g/><g/><g/><g/><g/><g/><g/></svg>