<svg id="Capa_1" enable-background="new 0 0 512 512" viewBox="0 0 512 512" xmlns="http://www.w3.org/2000/svg"><g><path d="m324.519 484.641c0 15.11-28.97 24.268-68.519 24.268-32.291 0-59.586-5.077-68.519-16.298-2.008-2.522-3.091-5.196-3.091-7.969 0-15.11 32.061-27.359 71.61-27.359 18.423 0 35.221 2.66 47.911 7.027 14.55 5.007 20.608 12.26 20.608 20.331z" fill="#978ecb"/><path d="m303.911 464.309c2.006 2.521 3.094 5.197 3.094 7.969 0 15.11-32.061 27.359-71.61 27.359-18.425 0-35.223-2.658-47.913-7.026 8.929 11.223 36.224 19.389 68.518 19.389 39.549 0 71.61-12.249 71.61-27.359 0-8.07-9.151-15.324-23.699-20.332z" fill="#8379c1"/><g><g><g><path d="m448.306 424.49h-17.661c-4.268 0-7.726-3.459-7.726-7.726s3.459-7.726 7.726-7.726h17.661c4.268 0 7.726 3.459 7.726 7.726s-3.458 7.726-7.726 7.726z" fill="#ffe177"/></g><g><path d="m394.558 424.49h-17.661c-4.268 0-7.726-3.459-7.726-7.726s3.459-7.726 7.726-7.726h17.661c4.268 0 7.726 3.459 7.726 7.726s-3.459 7.726-7.726 7.726z" fill="#ffe177"/></g><g><path d="m412.601 406.447c-4.268 0-7.726-3.459-7.726-7.726v-17.661c0-4.268 3.459-7.726 7.726-7.726 4.268 0 7.726 3.459 7.726 7.726v17.661c0 4.267-3.458 7.726-7.726 7.726z" fill="#ffd15b"/></g><g><path d="m412.601 460.195c-4.268 0-7.726-3.459-7.726-7.726v-17.661c0-4.268 3.459-7.726 7.726-7.726 4.268 0 7.726 3.459 7.726 7.726v17.661c0 4.268-3.458 7.726-7.726 7.726z" fill="#ffd15b"/></g></g><g><g><path d="m81.355 424.49h-17.661c-4.268 0-7.726-3.459-7.726-7.726s3.459-7.726 7.726-7.726h17.661c4.268 0 7.726 3.459 7.726 7.726s-3.459 7.726-7.726 7.726z" fill="#ffe177"/></g><g><path d="m135.103 424.49h-17.661c-4.268 0-7.726-3.459-7.726-7.726s3.459-7.726 7.726-7.726h17.661c4.268 0 7.726 3.459 7.726 7.726s-3.458 7.726-7.726 7.726z" fill="#ffe177"/></g><g><path d="m99.399 406.447c-4.268 0-7.726-3.459-7.726-7.726v-17.661c0-4.268 3.459-7.726 7.726-7.726 4.268 0 7.726 3.459 7.726 7.726v17.661c0 4.267-3.458 7.726-7.726 7.726z" fill="#ffd15b"/></g><g><path d="m99.399 460.195c-4.268 0-7.726-3.459-7.726-7.726v-17.661c0-4.268 3.459-7.726 7.726-7.726 4.268 0 7.726 3.459 7.726 7.726v17.661c0 4.268-3.458 7.726-7.726 7.726z" fill="#ffd15b"/></g></g></g><g><path d="m256 489.277c-4.268 0-7.726-3.459-7.726-7.726v-71.316c0-4.268 3.459-7.726 7.726-7.726 4.268 0 7.726 3.459 7.726 7.726v71.316c0 4.267-3.458 7.726-7.726 7.726z" fill="#8379c1"/></g><path d="m424.051 174.545c2.366 141.312-148.372 241.033-166.42 252.248-1.001.622-2.261.625-3.262.003-4.093-2.543-15.579-4.074-30.868-15.562-51.559-38.742-146.326-124.612-146.326-232.407 0-97.365 77.813-176.556 174.644-178.777 14.642-.336 28.911 1.025 42.573 4.051 59.399 13.154 128.238 85.553 129.659 170.444z" fill="#0ed2b3"/><path d="m434.799 175.752c-1.421-84.891-61.128-154.439-140.406-171.651 56.807 29.053 97.208 88.502 98.356 157.076 2.134 127.48-130.291 223.98-169.248 250.056 15.282 11.482 26.779 18.835 30.871 21.377 1.001.622 2.262.619 3.262-.003 18.048-11.214 179.531-115.543 177.165-256.855z" fill="#0ab69f"/><g><path d="m385.677 177.729c0 .737 0 1.46-.027 2.197-.423 27.412-9.168 48.046-23.659 69.141-17.206 25.092-41.15 41.619-70.977 50.515-12.226 3.657-22.414 6.309-35.827 6.309s-25.347-.624-37.573-4.281c-29.827-8.896-55.329-21.573-72.535-46.665-14.477-21.095-23.114-46.515-23.537-73.913-.027-.737 2.861-8.246 2.861-8.983 0-22.705 10.329-38.823 19.43-55.655 3.216-5.947.775-13.359 5.299-19.276 15.978-20.904 37.946-37.004 63.338-45.71 13.713-4.721 28.435 2.571 43.745 2.571 15.309 0 30.032-7.292 43.745-2.571 25.393 8.705 47.361 24.806 63.338 45.723 17.315 22.663 22.379 49.87 22.379 80.598z" fill="#eef5f6"/><path d="m365.427 102.141 6.14 41.854-7.879 17.277c-7.164 32.032-24.859 60.151-49.083 80.46-5.312 4.454-10.643 8.351-16.578 12.035-22.477 13.953-49.348 22.242-77.75 22.242-4.444 0-8.857-.191-13.222-.608-22.431-2.139-35.725-3.506-54.053-14.351 16.086 23.156 29.494 30.544 55.768 39.357 1.817.61 6.932 6.921 8.844 7.491 12.226 3.657 25.188 5.622 38.601 5.622s26.375-1.965 38.601-5.622c3.594-1.072 6.932-4.706 10.393-6.064 19.417-7.616 33.917-21.772 47.769-36.277 4.17-4.367 10.857-5.507 14.359-10.614 14.491-21.095 23.114-46.501 23.537-73.913.027-.737-3.196-8.133-3.196-8.87-.001-30.345-22.251-70.019-22.251-70.019z" fill="#deecf1"/><g fill="#978ecb"><path d="m256.211 125.079-52.98 38.492 20.236 62.282h65.487l20.237-62.281z"/><path d="m299.959 51.407-43.745 31.778-43.744-31.778c13.713-4.721 28.435-7.273 43.745-7.273 15.309 0 30.031 2.551 43.744 7.273z"/><path d="m165.914 148.788-44.372 32.242c-.027-.737-.027-1.46-.027-2.197 0-30.728 10.288-59.054 27.617-81.718z"/><path d="m209.448 297.607c-29.827-8.896-48.898-27.468-64.37-42.663h55.329l6.647 20.458z"/></g><path d="m367.336 254.944c-17.206 25.092-42.694 44.058-72.521 52.955l17.206-52.955z" fill="#8379c1"/><path d="m385.69 169.175c0 .737 0 1.46-.027 2.197l-21.978-10.097-17.184-12.487 16.797-51.659c12.114 18.94 22.392 41.318 22.392 72.046z" fill="#978ecb"/><g><path d="m221.786 181.158c-1.255 0-2.529-.232-3.766-.722l-67.721-26.826c-5.255-2.081-7.827-8.028-5.745-13.283 2.08-5.255 8.029-7.828 13.283-5.745l67.721 26.826c5.255 2.081 7.827 8.028 5.745 13.283-1.591 4.018-5.443 6.467-9.517 6.467z" fill="#978ecb"/></g><g><path d="m256.211 146.906c-5.652 0-10.233-4.582-10.233-10.233l.001-68.499c0-5.652 4.582-10.233 10.233-10.233 5.652 0 10.233 4.582 10.233 10.233l-.001 68.499c.001 5.651-4.582 10.233-10.233 10.233z" fill="#978ecb"/></g><g><path d="m286.916 182.632c-4.074 0-7.926-2.45-9.517-6.467-2.081-5.255.492-11.202 5.746-13.283l80.423-31.856c5.255-2.083 11.202.49 13.284 5.745 2.081 5.255-.492 11.202-5.746 13.283l-80.423 31.856c-1.238.49-2.513.722-3.767.722z" fill="#978ecb"/></g><g><path d="m322.21 278.021c-3.017 0-6.005-1.328-8.026-3.876l-44.945-56.685c-3.511-4.429-2.768-10.865 1.661-14.377 4.429-3.51 10.866-2.767 14.377 1.661l44.945 56.685c3.511 4.429 2.768 10.865-1.661 14.377-1.881 1.491-4.124 2.215-6.351 2.215z" fill="#978ecb"/></g><path d="m314.605 241.733c-5.229 4.382-10.767 8.405-16.578 12.035l16.157 20.378c2.02 2.548 5.008 3.876 8.026 3.876 2.227 0 4.47-.724 6.351-2.215 4.428-3.512 5.172-9.948 1.661-14.377z" fill="#8379c1"/><g><path d="m190.21 278.021c-2.228 0-4.47-.724-6.351-2.215-4.429-3.512-5.172-9.948-1.661-14.377l48.603-61.296c3.512-4.429 9.949-5.171 14.377-1.661 4.429 3.512 5.172 9.948 1.661 14.377l-48.603 61.296c-2.021 2.548-5.009 3.876-8.026 3.876z" fill="#978ecb"/></g><path d="m217.614 307.899-10.559-32.497c-22.307-1.992-43.659-9.62-61.976-20.458 15.643 22.518 38.381 40.587 64.608 50.306 2.609.967 5.252 1.851 7.927 2.649z" fill="#8379c1"/><path d="m367.229 129.058c0 11.067-1.223 21.847-3.542 32.214l27.186 19.759c.027-.737.027-1.46.027-2.197 0-30.345-10.677-59.184-27.603-81.704 2.157 10.016 3.932 21.267 3.932 31.928z" fill="#8379c1"/></g></g><g/><g/><g/><g/><g/><g/><g/><g/><g/><g/><g/><g/><g/><g/><g/></svg>