<svg id="Capa_1" enable-background="new 0 0 512 512" viewBox="0 0 512 512" xmlns="http://www.w3.org/2000/svg"><g><g><path d="m394.385 142.794c0 .788 0 1.56-.029 2.348-.452 29.3-9.8 51.354-25.288 73.901-18.391 26.82-43.984 44.485-75.865 53.994-13.067 3.909-23.957 6.744-38.294 6.744-14.336 0-27.093-.667-40.16-4.576-31.881-9.509-59.139-23.059-77.53-49.879-15.474-22.547-24.706-49.718-25.158-79.003-.029-.788 3.058-8.814 3.058-9.602 0-24.269 11.04-41.496 20.767-59.487 3.437-6.357.828-14.279 5.664-20.604 17.078-22.343 40.559-39.552 67.7-48.857 14.657-5.046 30.393 2.748 46.757 2.748s32.1-7.794 46.757-2.748c27.141 9.305 50.622 26.514 67.7 48.871 18.508 24.225 23.921 53.306 23.921 86.15z" fill="#eef5f6"/><path d="m372.74 62.001 6.563 44.736-8.422 18.467c-7.658 34.238-26.571 64.293-52.463 86.001-5.678 4.76-11.376 8.926-17.719 12.864-24.025 14.914-52.746 23.774-83.103 23.774-4.75 0-9.467-.205-14.133-.65-23.976-2.287-38.184-3.747-57.775-15.339 17.194 24.751 31.525 32.647 59.608 42.067 1.943.652 7.409 7.397 9.453 8.007 13.067 3.909 26.922 6.009 41.259 6.009 14.336 0 28.191-2.1 41.259-6.009 3.842-1.146 7.409-5.03 11.109-6.482 20.754-8.14 36.252-23.271 51.058-38.775 4.458-4.668 11.605-5.886 15.348-11.344 15.488-22.547 24.706-49.703 25.158-79.003.029-.788-3.416-8.693-3.416-9.481-.001-32.436-23.784-74.842-23.784-74.842z" fill="#deecf1"/><g fill="#978ecb"><path d="m256.004 86.519-56.628 41.142 9.786 34.41 11.349 7.12 8.36 62.178 37.632 58.429 24.325-110.74 11.993-16.912 9.811-34.484z"/><path d="m302.765 7.773-46.757 33.967-46.757-33.967c14.657-5.046 30.394-7.773 46.757-7.773s32.1 2.727 46.757 7.773z"/><path d="m159.49 111.861-47.428 34.462c-.029-.788-.029-1.56-.029-2.348 0-32.844 10.996-63.12 29.518-87.345z"/><path d="m206.022 270.927c-31.881-9.509-52.265-29.36-68.802-45.601h59.139l7.105 21.867z"/></g><path d="m374.782 225.326c-18.391 26.82-45.634 47.092-77.515 56.601l18.391-56.601z" fill="#8379c1"/><path d="m394.399 133.651c0 .788 0 1.56-.029 2.348l-23.491-10.792-18.368-13.346 17.953-55.216c12.949 20.243 23.935 44.162 23.935 77.006z" fill="#978ecb"/><g><path d="m219.209 146.46c-1.341 0-2.703-.248-4.026-.772l-72.383-28.673c-5.616-2.225-8.366-8.581-6.141-14.198 2.223-5.616 8.582-8.367 14.198-6.141l72.384 28.673c5.616 2.225 8.366 8.581 6.141 14.198-1.701 4.294-5.819 6.913-10.173 6.913z" fill="#978ecb"/></g><g><path d="m256.004 109.848c-6.041 0-10.938-4.897-10.938-10.938l.001-73.216c0-6.041 4.898-10.938 10.938-10.938 6.041 0 10.938 4.897 10.938 10.938l-.001 73.216c.001 6.041-4.897 10.938-10.938 10.938z" fill="#978ecb"/></g><g><path d="m288.823 148.035c-4.355 0-8.471-2.618-10.173-6.913-2.225-5.616.526-11.973 6.141-14.198l85.961-34.05c5.617-2.226 11.974.524 14.198 6.141 2.225 5.616-.526 11.973-6.141 14.198l-85.961 34.05c-1.322.524-2.684.772-4.025.772z" fill="#978ecb"/></g><g><path d="m326.548 249.993c-3.225 0-6.419-1.42-8.578-4.143l-48.04-60.588c-3.753-4.733-2.958-11.613 1.775-15.367 4.734-3.752 11.614-2.957 15.367 1.775l48.04 60.588c3.753 4.733 2.958 11.613-1.775 15.367-2.011 1.593-4.409 2.368-6.789 2.368z" fill="#978ecb"/></g><path d="m318.419 211.205c-5.589 4.684-11.509 8.984-17.719 12.864l17.27 21.781c2.159 2.723 5.353 4.143 8.578 4.143 2.381 0 4.778-.774 6.789-2.368 4.733-3.754 5.528-10.633 1.775-15.367z" fill="#8379c1"/><g><path d="m185.458 249.993c-2.381 0-4.778-.774-6.789-2.368-4.733-3.754-5.528-10.633-1.775-15.367l51.95-65.517c3.754-4.734 10.634-5.527 15.367-1.775 4.733 3.754 5.528 10.633 1.775 15.367l-51.95 65.517c-2.159 2.723-5.353 4.143-8.578 4.143z" fill="#978ecb"/></g><path d="m214.749 281.927-11.286-34.734c-23.843-2.13-46.665-10.282-66.244-21.867 16.72 24.068 41.024 43.382 69.057 53.77 2.789 1.033 5.615 1.978 8.473 2.831z" fill="#8379c1"/><path d="m374.667 90.771c0 11.829-1.307 23.351-3.786 34.433l29.058 21.119c.029-.788.029-1.56.029-2.348 0-32.435-11.412-63.259-29.504-87.33 2.305 10.706 4.203 22.731 4.203 34.126z" fill="#8379c1"/></g><g><g><path d="m422.856 329.053-19.062 81.145 60.797 17.205c1.491.422 3.042-.445 3.464-1.936l21.91-77.423-29.128-21.008z" fill="#0ab69f"/><path d="m511.893 270.552c.422-1.491-.445-3.042-1.936-3.464l-68.023-19.25-19.078 81.214 67.108 18.991z" fill="#ffd15b"/><path d="m420.307 212.497-98.279-27.595-44.149-2.084-18.764 71.685 150.344 59.102z" fill="#0ed2b3"/><path d="m280.394 173.211-21.279 81.292 38.89 15.288 24.023-84.889z" fill="#0ab69f"/><path d="m397.35 293.621-17.681 33.902-4.7 45.185 50.84 14.387 9.736 17.422 26.224-92.666-28.267-16.241z" fill="#0ed2b3"/><path d="m461.769 311.851 19.144-67.648c2.122-7.499-2.237-15.299-9.736-17.422l-50.869-14.284-22.957 81.124z" fill="#ffe177"/><path d="m257.654 260.086-6.748 25.779 16.316 56.352 107.747 30.491 22.381-79.087-98.222-27.795z" fill="#ffe177"/><path d="m259.115 254.503-8.209 31.362 16.316 56.352 9.525 2.695 22.381-79.087z" fill="#ffd15b"/></g><g><path d="m418.124 414.253-14.33-4.055c-3.991-1.129-6.311-5.28-5.181-9.271l5.64-19.931 21.556 6.1c7.499 2.122 11.858 9.922 9.736 17.422-2.122 7.498-9.922 11.857-17.421 9.735z" fill="#01998d"/><path d="m180.904 497.463 96.895-342.398c.465-1.642 2.173-2.597 3.815-2.132l19.029 5.385c1.642.465 2.597 2.173 2.132 3.815l-96.172 339.847z" fill="#cbe5e8"/></g><path d="m205.858 511.758-30.629-8.668c-3.386-.958-5.354-4.48-4.396-7.866l26.762-94.568c.958-3.386 4.48-5.354 7.866-4.396l30.629 8.668c3.386.958 5.354 4.48 4.396 7.866l-26.762 94.568c-.958 3.386-4.48 5.354-7.866 4.396z" fill="#deecf1"/><g><path d="m22.036 348.044 21.91 77.423c.422 1.491 1.973 2.358 3.464 1.936l46.467-13.15-4.732-85.2-44.572 2.31z" fill="#8379c1"/><path d="m70.065 247.839-68.023 19.25c-1.491.422-2.358 1.973-1.936 3.464l21.929 77.491 67.108-18.991z" fill="#fe5694"/><path d="m253.111 254.438-104.724 19.333-98.156 38.08 26.224 92.666 31.292-23.522 127.506-36.083 37.561-18.869z" fill="#978ecb"/><path d="m211.808 262.063 23.445 82.849 40.239-11.387-22.381-79.087z" fill="#8379c1"/><path d="m231.852 181.78-41.966 2.819-149.062 42.182c-7.499 2.122-11.858 9.922-9.736 17.422l19.144 67.648 162.641-46.025 40.239-20.223z" fill="#fe76a8"/><path d="m200.589 177.31h41.819v84.417h-41.819z" fill="#fe5694" transform="matrix(.962 -.272 .272 .962 -51.404 68.608)"/></g><path d="m331.629 499.348-97.449-344.357c-.465-1.642-2.173-2.597-3.815-2.132l-19.029 5.385c-1.642.465-2.597 2.173-2.132 3.815l96.937 342.547z" fill="#deecf1"/><path d="m306.172 511.758 30.629-8.668c3.386-.958 5.354-4.48 4.396-7.866l-26.762-94.568c-.958-3.386-4.48-5.354-7.866-4.396l-30.629 8.668c-3.386.958-5.354 4.48-4.396 7.866l26.762 94.568c.958 3.386 4.48 5.354 7.866 4.396z" fill="#eef5f6"/><path d="m93.876 414.253 14.33-4.055c3.991-1.129 6.311-5.28 5.181-9.271l-5.64-19.931-21.556 6.1c-7.499 2.122-11.858 9.922-9.736 17.422 2.122 7.498 9.922 11.857 17.421 9.735z" fill="#6e61b6"/></g></g><g/><g/><g/><g/><g/><g/><g/><g/><g/><g/><g/><g/><g/><g/><g/></svg>