<svg id="Capa_1" enable-background="new 0 0 512 512" viewBox="0 0 512 512" xmlns="http://www.w3.org/2000/svg"><g><g><g fill="#cbe5e8"><path d="m256.338 292.786h121.541c4.615 0 8.37 3.755 8.37 8.37v41.479c0 4.255 3.449 7.704 7.704 7.704s7.704-3.449 7.704-7.704v-41.479c0-13.11-10.666-23.777-23.777-23.777h-114.176v-59.168c0-4.255-3.449-7.704-7.704-7.704s-7.704 3.449-7.704 7.704v59.168h-113.647c-13.111 0-23.777 10.667-23.777 23.777v33.033c0 4.255 3.449 7.704 7.704 7.704s7.704-3.449 7.704-7.704v-33.033c0-4.615 3.755-8.37 8.37-8.37h121.013c.113.005.224.017.338.017s.224-.012.337-.017z"/><path d="m184.477 406.321h-58.536v-55.156c0-4.255-3.449-7.704-7.704-7.704s-7.704 3.449-7.704 7.704v55.156h-58.536c-13.111 0-23.777 10.667-23.777 23.777v39.112c0 4.255 3.449 7.704 7.704 7.704s7.704-3.449 7.704-7.704v-39.112c0-4.615 3.755-8.37 8.37-8.37h132.48c4.615 0 8.37 3.755 8.37 8.37v35.719c0 4.255 3.449 7.704 7.704 7.704s7.704-3.449 7.704-7.704v-35.719c-.002-13.11-10.668-23.777-23.779-23.777z"/><path d="m460.706 406.321h-58.536v-33.458c0-4.255-3.449-7.704-7.704-7.704s-7.704 3.449-7.704 7.704v33.458h-58.536c-13.111 0-23.777 10.667-23.777 23.777v39.112c0 4.255 3.449 7.704 7.704 7.704s7.704-3.449 7.704-7.704v-39.112c0-4.615 3.755-8.37 8.37-8.37h132.48c4.615 0 8.37 3.755 8.37 8.37v43.794c0 4.255 3.449 7.704 7.704 7.704s7.704-3.449 7.704-7.704v-43.794c-.002-13.11-10.668-23.777-23.779-23.777z"/></g><g><g><g><path d="m143.47 340.121c0 18.133-8.531 25.689-26.664 25.689-13.353 0-24.841-.829-29.971-12.273-1.837-4.097-2.862-8.636-2.862-13.416 0-18.134 14.7-32.834 32.834-32.833 4.533 0 8.852.919 12.78 2.58 11.784 4.984 13.883 16.653 13.883 30.253z" fill="#0ed2b3"/></g><path d="m129.586 309.867c1.837 4.097 2.673 8.92 2.672 13.701 0 18.133-13.873 32.833-32.006 32.833-4.78 0-9.322-1.028-13.418-2.865 5.131 11.444 16.618 19.418 29.971 19.418 18.134 0 32.834-14.7 32.834-32.833 0-13.354-8.609-25.123-20.053-30.254z" fill="#0ab69f"/></g><g><g><path d="m422.489 339.889c0 18.006-8.471 25.508-26.476 25.508-13.259 0-24.665-.823-29.76-12.187-1.824-4.068-2.842-8.575-2.842-13.322 0-18.006 14.597-32.602 32.602-32.602 4.501 0 8.79.912 12.69 2.562 11.702 4.95 13.786 16.537 13.786 30.041z" fill="#fe76a8"/></g><path d="m408.703 309.849c1.824 4.068 2.654 8.857 2.654 13.604 0 18.006-13.775 32.602-31.78 32.602-4.746 0-9.256-1.021-13.323-2.845 5.095 11.363 16.501 19.281 29.76 19.281 18.006 0 32.602-14.596 32.602-32.602-.001-13.259-8.55-24.945-19.913-30.04z" fill="#fe5694"/></g><g><g><path d="m60.245 479.167c0 18.134-8.531 25.689-26.664 25.689-13.353 0-24.841-.829-29.971-12.273-1.837-4.097-2.862-8.636-2.862-13.416 0-18.133 14.7-32.833 32.834-32.833 4.533 0 8.852.919 12.78 2.58 11.784 4.984 13.883 16.652 13.883 30.253z" fill="#0ed2b3"/></g><path d="m46.362 448.913c1.837 4.097 2.673 8.92 2.672 13.701 0 18.133-13.873 32.833-32.006 32.833-4.78 0-9.322-1.028-13.418-2.865 5.131 11.444 16.618 19.418 29.971 19.418 18.134 0 32.834-14.7 32.834-32.833 0-13.354-8.609-25.123-20.053-30.254z" fill="#0ab69f"/></g><g><g><path d="m226.694 479.167c0 18.134-8.531 25.689-26.664 25.689-13.353 0-24.841-.829-29.971-12.273-1.837-4.097-2.862-8.636-2.862-13.416 0-18.133 14.7-32.833 32.834-32.833 4.533 0 8.852.919 12.78 2.58 11.784 4.984 13.883 16.652 13.883 30.253z" fill="#ffe177"/></g><path d="m212.81 448.913c1.837 4.097 2.673 8.92 2.672 13.701 0 18.133-13.873 32.833-32.006 32.833-4.78 0-9.322-1.028-13.418-2.865 5.131 11.444 16.618 19.418 29.972 19.418 18.134 0 32.834-14.7 32.834-32.833 0-13.354-8.61-25.123-20.054-30.254z" fill="#ffd15b"/></g><g><g><path d="m339.852 477.954c0 18.006-8.471 25.508-26.476 25.508-13.259 0-24.665-.823-29.76-12.187-1.824-4.068-2.842-8.575-2.842-13.322 0-18.006 14.597-32.602 32.602-32.602 4.501 0 8.79.912 12.69 2.562 11.701 4.951 13.786 16.537 13.786 30.041z" fill="#978ecb"/></g><path d="m326.066 447.914c1.824 4.068 2.654 8.857 2.654 13.604 0 18.006-13.775 32.602-31.78 32.602-4.746 0-9.256-1.021-13.323-2.845 5.094 11.363 16.501 19.281 29.76 19.281 18.006 0 32.602-14.596 32.602-32.602-.001-13.259-8.55-24.945-19.913-30.04z" fill="#8379c1"/></g><g><g><path d="m505.126 477.954c0 18.006-8.471 25.508-26.476 25.508-13.259 0-24.665-.823-29.76-12.187-1.824-4.068-2.842-8.575-2.842-13.322 0-18.006 14.597-32.602 32.602-32.602 4.501 0 8.79.912 12.69 2.562 11.702 4.951 13.786 16.537 13.786 30.041z" fill="#fe76a8"/></g><path d="m491.341 447.914c1.824 4.068 2.654 8.857 2.654 13.604 0 18.006-13.775 32.602-31.78 32.602-4.746 0-9.256-1.021-13.323-2.845 5.094 11.363 16.501 19.281 29.76 19.281 18.006 0 32.602-14.596 32.602-32.602-.002-13.259-8.55-24.945-19.913-30.04z" fill="#fe5694"/></g></g></g><g><path d="m367.096 114.742c0 .633 0 1.254-.023 1.887-.363 23.544-7.875 41.266-20.32 59.384-14.778 21.551-35.343 35.746-60.961 43.387-10.5 3.141-19.251 5.419-30.771 5.419s-21.77-.536-32.271-3.677c-25.618-7.641-47.521-18.529-62.299-40.08-12.434-18.118-19.852-39.951-20.216-63.483-.023-.633 2.457-7.082 2.457-7.715 0-19.501 8.871-33.344 16.688-47.801 2.762-5.108.666-11.474 4.551-16.556 13.723-17.954 32.591-31.782 54.4-39.259 11.778-4.055 24.423 2.208 37.572 2.208s25.794-6.263 37.572-2.208c21.809 7.477 40.677 21.305 54.4 39.271 14.872 19.464 19.221 42.832 19.221 69.223z" fill="#eef5f6"/><path d="m349.704 49.821 5.274 35.948-6.767 14.839c-6.153 27.512-21.351 51.663-42.156 69.106-4.562 3.825-9.141 7.173-14.238 10.337-19.305 11.984-42.384 19.103-66.778 19.103-3.817 0-7.608-.164-11.356-.522-19.266-1.837-30.683-3.011-46.425-12.326 13.816 19.888 25.332 26.233 47.898 33.803 1.561.524 5.953 5.944 7.596 6.434 10.5 3.141 21.634 4.828 33.153 4.828 11.52 0 22.653-1.687 33.154-4.828 3.087-.921 5.954-4.042 8.927-5.208 16.677-6.541 29.13-18.699 41.028-31.158 3.582-3.751 9.325-4.73 12.333-9.116 12.446-18.118 19.852-39.939 20.216-63.483.023-.633-2.745-6.986-2.745-7.619-.003-26.063-19.114-60.138-19.114-60.138z" fill="#deecf1"/><g fill="#978ecb"><path d="m255.901 69.522-45.504 33.06 17.38 53.493h56.246l17.381-53.492z"/><path d="m293.475 6.246-37.571 27.294-37.572-27.294c11.778-4.055 24.423-6.246 37.572-6.246 13.148 0 25.793 2.191 37.571 6.246z"/><path d="m178.346 89.886-38.111 27.692c-.023-.633-.023-1.254-.023-1.887 0-26.392 8.836-50.72 23.72-70.186z"/><path d="m215.737 217.703c-25.618-7.641-41.998-23.592-55.286-36.643h47.521l5.709 17.571z"/></g><path d="m351.344 181.061c-14.778 21.551-36.669 37.841-62.287 45.482l14.778-45.482z" fill="#8379c1"/><path d="m367.108 107.395c0 .633 0 1.254-.023 1.887l-18.876-8.672-14.759-10.725 14.426-44.369c10.404 16.268 19.232 35.488 19.232 61.879z" fill="#978ecb"/><g><path d="m226.334 117.688c-1.077 0-2.172-.199-3.235-.62l-58.164-23.04c-4.513-1.788-6.722-6.895-4.934-11.408 1.786-4.513 6.896-6.723 11.408-4.934l58.164 23.04c4.513 1.788 6.722 6.895 4.934 11.408-1.366 3.45-4.674 5.554-8.173 5.554z" fill="#978ecb"/></g><g><path d="m255.901 88.269c-4.854 0-8.789-3.935-8.789-8.789l.001-58.833c0-4.854 3.936-8.789 8.789-8.789 4.854 0 8.789 3.935 8.789 8.789l-.001 58.833c0 4.853-3.936 8.789-8.789 8.789z" fill="#978ecb"/></g><g><path d="m282.272 118.954c-3.499 0-6.807-2.104-8.174-5.555-1.788-4.513.422-9.621 4.935-11.408l69.074-27.361c4.514-1.789 9.621.421 11.409 4.934s-.422 9.621-4.935 11.408l-69.074 27.361c-1.063.421-2.157.621-3.235.621z" fill="#978ecb"/></g><g><path d="m312.586 200.882c-2.592 0-5.158-1.141-6.893-3.329l-38.602-48.685c-3.016-3.804-2.377-9.332 1.427-12.348 3.804-3.015 9.332-2.376 12.348 1.427l38.602 48.685c3.016 3.804 2.377 9.332-1.427 12.348-1.616 1.28-3.542 1.902-5.455 1.902z" fill="#978ecb"/></g><path d="m306.054 169.714c-4.491 3.764-9.248 7.219-14.238 10.337l13.877 17.502c1.735 2.188 4.301 3.329 6.893 3.329 1.913 0 3.84-.622 5.455-1.903 3.804-3.016 4.442-8.544 1.427-12.348z" fill="#8379c1"/><g><path d="m199.213 200.882c-1.914 0-3.84-.622-5.455-1.903-3.804-3.016-4.442-8.544-1.427-12.348l41.744-52.646c3.016-3.804 8.545-4.442 12.348-1.427 3.804 3.016 4.442 8.544 1.427 12.348l-41.744 52.646c-1.735 2.189-4.302 3.33-6.893 3.33z" fill="#978ecb"/></g><path d="m222.75 226.543-9.069-27.911c-19.159-1.711-37.498-8.262-53.23-17.571 13.435 19.34 32.965 34.86 55.491 43.207 2.241.83 4.511 1.59 6.808 2.275z" fill="#8379c1"/><path d="m351.252 72.939c0 9.505-1.05 18.764-3.042 27.668l23.349 16.97c.023-.633.023-1.254.023-1.887 0-26.063-9.17-50.832-23.708-70.174 1.853 8.604 3.378 18.267 3.378 27.423z" fill="#8379c1"/></g></g><g/><g/><g/><g/><g/><g/><g/><g/><g/><g/><g/><g/><g/><g/><g/></svg>