<svg id="Capa_1" enable-background="new 0 0 512 512" viewBox="0 0 512 512" xmlns="http://www.w3.org/2000/svg"><g><g><path d="m10.774 224.704c-.006-.001-.096-.021-.245-.054 0 .001-.001.002-.001.002-2.639 6.408-9.37 21.797-9.37 21.797-3.474 7.862 1.198 16.923 9.613 18.647l107.442 21.933h179.798v-62.355z" fill="#ffe177"/><path d="m510.842 246.449s-6.732-15.389-9.37-21.797l-203.461.022v62.355h95.777l107.442-21.933c8.414-1.724 13.086-10.785 9.612-18.647z" fill="#ffd15b"/><path d="m463.492 111.749-10.501-40.134c-5.87-22.43-22.874-40.268-44.994-47.202-2.554 9.69-22.251 25.477-24.245 35.283 11.32 4.297 30.066 16.236 33.161 28.063l11.411 41.247c6.608 25.239 40.335 99.723 41.08 102.009l32.068-6.364c-15.227-36.727-27.91-74.437-37.98-112.902z" fill="#deecf1"/><path d="m59.009 71.615-10.501 40.134c-10.07 38.464-22.752 76.173-37.979 112.901.149.033.239.053.245.054l29.836 6.076c14.031-34.999 41.696-65.421 51.214-101.774l6.465-44.47c3.095-11.828 14.878-22.423 26.199-26.719-1.994-9.806-17.929-23.714-20.483-33.404-22.122 6.934-39.126 24.773-44.996 47.202z" fill="#eef5f6"/><path d="m230.351 112.305c-29.458-17.536-52.247-43.909-65.331-75.261l-52.18 15.908c-12.336 3.902-21.651 13.7-24.93 26.227l-10.5 40.133c-9.518 36.353-22.77 76.47-36.801 111.468l79.619 16.216 120.168-.252v-129.886c-3.462-1.138-6.834-2.642-10.045-4.553z" fill="#fe5694"/><path d="m469.404 231.016c-.746-2.285-28.205-86.46-34.814-111.7l-10.502-40.138c-3.278-12.528-12.598-22.327-24.937-26.228l-51.982-15.886c-13.086 31.341-35.871 57.709-65.321 75.239-12.673 7.541-27.79 9.047-41.452 4.555v129.886l151.354-.318z" fill="#fd3581"/><path d="m115.64 39.104c.985 4.292-5.708 10.249-4.832 14.562 7.006 34.459 10.559 69.554 10.559 104.768v28.236c0 96.805-8.802 193.388-26.28 288.558l16.47 13.096h288.526l-3.743-28.68c-17.478-95.17-15.872-174.709-15.872-271.514v-28.236c0-35.214 5.35-69.773 12.356-104.232.965-4.744 2.25-13.201 3.346-17.919l-138.904-6.493z" fill="#fe76a8"/><path d="m390.632 186.671v-28.236c0-35.214 3.555-70.317 10.561-104.776 0 0-6.118-11.197-5.022-15.916l-30.564-1.429c-1.775 6.443-3.972 14.282-4.595 17.345-7.006 34.459-10.561 69.562-10.561 104.776v28.236c0 96.805 8.802 193.388 26.28 288.558l23.352 13.096 16.829-13.096c-17.478-95.17-26.28-191.753-26.28-288.558z" fill="#fe5694"/><path d="m328.111 0h-2.413c-11.994 0-23.852 2.532-34.8 7.43h-.001c-22.143 9.906-47.458 9.906-69.6 0-10.948-4.898-22.806-7.43-34.8-7.43h-2.412v45.002l68.787 59.656 77.575-64.646z" fill="#fe5694"/><path d="m357.922 9.11-12.788 13.662 2.035 14.291 16.702 5.104 31.676 5.981c.691.218 1.37.455 2.042.71 1.994-9.806 3.117-12.539 5.671-22.229l-31.281-13.223z" fill="#deecf1"/><path d="m165.02 37.044 4.889-15.462-14.796-12.75-51.109 15.581c2.554 9.69 4.812 19.447 6.805 29.253.669-.254 1.344-.496 2.032-.714z" fill="#deecf1"/><path d="m416.913 502.265c-2.075-10.18-2.194-13.353-4.07-23.566l-36.111-3.469h-281.645c-1.876 10.214-3.849 20.411-5.924 30.591-.651 3.193 1.789 6.18 5.047 6.18h286.49l31.166-3.555c3.258-.001 5.698-2.988 5.047-6.181z" fill="#ffe177"/><path d="m371.978 13.406c-2.362 8.326-5.666 19.712-8.107 28.762l35.28 10.782c.691.218 1.37.455 2.042.71 1.993-9.806 4.25-19.556 6.804-29.246z" fill="#cbe5e8"/><path d="m422.837 505.82c-2.075-10.18-4.048-20.377-5.924-30.591h-40.181c1.876 10.214 3.849 20.411 5.924 30.591.651 3.193-1.789 6.18-5.047 6.18h40.181c3.258 0 5.698-2.987 5.047-6.18z" fill="#ffd15b"/><path d="m165.02 37.044c13.084 31.351 35.873 57.724 65.331 75.261 15.881 9.452 35.613 9.45 51.497-.002 29.45-17.53 52.235-43.898 65.321-75.239l10.753-27.954-29.811-9.11-4.266 13.823c-9.419 30.525-29.83 56.468-57.279 72.808-6.451 3.84-14.486 3.84-20.936 0-27.45-16.34-47.86-42.284-57.279-72.808l-4.266-13.823-28.972 8.832z" fill="#ffe177"/></g><path d="m345.134 247.839c0 52.88-36.254 86.37-89.134 86.37-31.169 0-58.859-5.515-76.343-28.573-12.179-16.062-19.405-36.085-19.405-57.797 0-52.88 42.868-95.748 95.748-95.748 21.711 0 41.735 7.226 57.796 19.405 23.059 17.484 31.338 45.174 31.338 76.343z" fill="#eef5f6"/><path d="m313.796 171.496c12.179 16.062 19.406 36.086 19.406 57.798 0 52.88-42.868 95.747-95.747 95.747-21.711 0-41.736-7.227-57.798-19.406 17.484 23.058 45.174 37.951 76.343 37.951 52.88 0 95.748-42.868 95.748-95.748 0-31.168-14.894-58.858-37.952-76.342z" fill="#deecf1"/><path d="m297.721 224.003c0-23.328-18.979-42.307-42.306-42.307-23.328 0-42.307 18.979-42.307 42.307s18.979 42.307 42.307 42.307c5.88 0 11.481-1.208 16.574-3.385-11.819 25.013-29.249 38.392-29.537 38.609-3.411 2.549-4.117 7.381-1.574 10.801 1.517 2.038 3.846 3.115 6.206 3.115 1.603 0 3.22-.497 4.605-1.527 1.598-1.189 39.02-29.605 45.504-83.261.344-2.171.528-4.394.528-6.659zm-42.306 26.854c-14.807 0-26.854-12.046-26.854-26.854s12.047-26.854 26.854-26.854 26.854 12.046 26.854 26.854c0 1.327-.101 2.631-.287 3.907-.011.078-.029.153-.038.232-.006.048-.013.093-.019.141-2.057 12.78-13.159 22.574-26.51 22.574z" fill="#fe76a8"/></g><g/><g/><g/><g/><g/><g/><g/><g/><g/><g/><g/><g/><g/><g/><g/></svg>