<svg id="Capa_1" enable-background="new 0 0 512 512" viewBox="0 0 512 512" xmlns="http://www.w3.org/2000/svg"><g><path d="m361.377 483.622h-318.507c-5.511 0-9.978-4.467-9.978-9.978v-432.8c0-5.511 4.467-9.978 9.978-9.978h55.164z" fill="#deecf1"/><path d="m412.918 88.443-1.732 354.339c0 5.511-4.471 9.972-9.982 9.972h-327.467c-5.512 0-9.982-4.461-9.982-9.972v-432.8c0-5.511 4.471-9.982 9.982-9.982h261.625c2.081 0 4.131.34 6.068.999 2.74.927 3.808 9.901 5.889 11.982l59.883 61.924c2.441 2.442 4.305 5.606 5.129 8.902.391 1.505.587 3.061.587 4.636z" fill="#eef5f6"/><path d="m413.836 76.096-22.007-1.191c1.182 1.788 2.05 3.763 2.57 5.84.391 1.504.587 3.06.587 4.636v357.401c0 5.511-4.471 9.972-9.982 9.972h25.757c5.512 0 9.982-4.461 9.982-9.972v-357.401c0-1.576-.196-3.132-.587-4.636-.519-2.077-5.138-2.861-6.32-4.649z" fill="#deecf1"/><path d="m355.923 285.605h-42.682l-80.397-10.923-68.443 10.923h-42.682c-1.707 0-3.091-1.384-3.091-3.091v-241.916c0-1.707 1.384-3.091 3.091-3.091h234.204c1.707 0 3.091 1.384 3.091 3.091v241.917c0 1.706-1.384 3.09-3.091 3.09z" fill="#918291"/><g><path d="m296.112 131.726-3.459 128.724h-118.906v-130.534c0-33.038 25.054-60.276 57.35-64.057 2.689-.319 5.439 6.758 8.221 6.779 2.442.021 4.893-7.243 7.232-6.768 22.74 4.612 49.562 32.705 49.562 65.856z" fill="#ffe177"/><path d="m303.9 130.73v129.72h-14.938l-15.133-1.813s-37.426-15.309-37.426-21.829c0-6.511-7.829-41.115-7.829-41.115l49.459-57.783c0-55.393-31.482-72.041-31.482-72.041 32.429 3.843 57.349 31.71 57.349 64.861z" fill="#ffd15b"/><g><path d="m246.55 65.87v40.816c0 4.265-3.461 7.726-7.726 7.726s-7.726-3.462-7.726-7.726v-40.827c2.689-.319 5.439-.474 8.221-.453 2.441.021 4.862.175 7.231.464z" fill="#ffd15b"/></g><path d="m238.821 261.586c13.964 0 30.469-15.523 30.469-29.488l-5.184-9.88-1.868-.516c-2.994-.827-5.067-3.551-5.067-6.657v-28.539h-36.698v28.539c0 3.106-2.073 5.83-5.067 6.657l-1.868.516-3.676 11.695c-.001 13.964 14.995 27.673 28.959 27.673z" fill="#ca6e59"/><path d="m255.32 196.784-7.645 5.116c-5.358 3.585-12.349 3.585-17.707 0l-7.645-5.116c-14.192-9.496-22.71-25.446-22.71-42.521v-16.349c0-14.537 8.043-27.881 20.897-34.67l16.869-8.91c.903-.477 1.984-.477 2.887 0l16.869 8.91c12.854 6.789 20.897 20.133 20.897 34.67v16.349c-.002 17.075-8.52 33.025-22.712 42.521z" fill="#d78878"/><path d="m302.97 237.521c-4.203-4.154-9.401-7.162-15.098-8.736l-23.767-6.567v8.409c0 13.965-11.32 25.285-25.285 25.285-13.964 0-25.285-11.32-25.285-25.285v-8.409l-23.767 6.567c-5.696 1.574-10.894 4.582-15.098 8.736-6.572 6.495-10.27 15.352-10.27 24.592v23.493h148.84v-23.493c.001-9.241-3.698-18.097-10.27-24.592z" fill="#0ed2b3"/></g><path d="m420.156 80.745h-68.445c-5.676 0-10.281-4.605-10.281-10.291v-69.455c2.74.927 5.254 2.473 7.335 4.554l66.426 66.415c2.441 2.442 4.141 5.481 4.965 8.777z" fill="#cbe5e8"/><g><path d="m223.319 342.808h-65.119c-4.267 0-7.726-3.459-7.726-7.726s3.459-7.726 7.726-7.726h65.119c4.267 0 7.726 3.459 7.726 7.726s-3.459 7.726-7.726 7.726z" fill="#deecf1"/></g><g><path d="m125.42 342.808h-6.792c-4.267 0-7.726-3.459-7.726-7.726s3.459-7.726 7.726-7.726h6.792c4.267 0 7.726 3.459 7.726 7.726s-3.459 7.726-7.726 7.726z" fill="#918291"/></g><g><path d="m210.026 376.907h-51.826c-4.267 0-7.726-3.459-7.726-7.726s3.459-7.726 7.726-7.726h51.826c4.267 0 7.726 3.459 7.726 7.726s-3.458 7.726-7.726 7.726z" fill="#deecf1"/></g><g><path d="m125.42 376.907h-6.792c-4.267 0-7.726-3.459-7.726-7.726s3.459-7.726 7.726-7.726h6.792c4.267 0 7.726 3.459 7.726 7.726s-3.459 7.726-7.726 7.726z" fill="#918291"/></g><g><path d="m210.026 411.006h-51.826c-4.267 0-7.726-3.459-7.726-7.726 0-4.268 3.459-7.726 7.726-7.726h51.826c4.267 0 7.726 3.459 7.726 7.726.001 4.267-3.458 7.726-7.726 7.726z" fill="#deecf1"/></g><g><path d="m125.42 411.006h-6.792c-4.267 0-7.726-3.459-7.726-7.726 0-4.268 3.459-7.726 7.726-7.726h6.792c4.267 0 7.726 3.459 7.726 7.726.001 4.267-3.459 7.726-7.726 7.726z" fill="#918291"/></g><g><path d="m474.446 390.828c0 .658 0 1.303-.024 1.96-.377 24.461-8.181 42.873-21.112 61.697-15.353 22.391-36.72 37.138-63.336 45.077-10.909 3.263-20.001 5.63-31.97 5.63s-22.618-.557-33.528-3.82c-26.616-7.939-49.372-19.251-64.726-41.641-12.918-18.824-20.626-41.507-21.003-65.956-.024-.658 2.553-7.358 2.553-8.016 0-20.261 9.217-34.643 17.338-49.663 2.869-5.307.692-11.921 4.729-17.201 14.258-18.653 33.861-33.02 56.519-40.788 12.237-4.213 25.374 2.294 39.035 2.294s26.799-6.507 39.035-2.294c22.659 7.768 42.262 22.135 56.519 40.801 15.453 20.222 19.971 44.5 19.971 71.92z" fill="#deecf1"/><path d="m456.376 323.378 5.479 37.348-7.031 15.417c-6.393 28.584-22.183 53.675-43.799 71.798-4.74 3.974-9.498 7.452-14.793 10.739-20.057 12.451-44.035 19.848-69.379 19.848-3.966 0-7.904-.171-11.799-.542-20.017-1.909-31.878-3.128-48.234-12.806 14.354 20.663 26.319 27.255 49.764 35.12 1.622.544 6.185 6.176 7.892 6.685 10.909 3.263 22.476 5.016 34.445 5.016s23.536-1.753 34.445-5.016c3.207-.957 6.186-4.2 9.274-5.411 17.327-6.796 30.265-19.428 42.626-32.372 3.721-3.897 9.688-4.914 12.813-9.471 12.931-18.824 20.626-41.495 21.003-65.956.024-.658-2.852-7.258-2.852-7.915.002-27.079-19.854-62.482-19.854-62.482z" fill="#cbe5e8"/><g fill="#8379c1"><path d="m358.919 343.847-47.276 34.347 18.057 55.577h58.437l18.058-55.576z"/><path d="m397.957 278.106-39.035 28.357-39.035-28.357c12.237-4.213 25.374-6.49 39.035-6.49s26.799 2.277 39.035 6.49z"/><path d="m278.344 365.003-39.595 28.771c-.024-.658-.024-1.303-.024-1.96 0-27.42 9.18-52.696 24.644-72.92z"/><path d="m317.191 497.8c-26.616-7.939-43.634-24.511-57.44-38.07h49.372l5.932 18.256z"/></g><path d="m458.081 459.73c-15.353 22.391-38.098 39.315-64.714 47.254l15.353-47.254z" fill="#6e61b6"/><path d="m474.459 383.195c0 .658 0 1.303-.024 1.96l-19.612-9.01-15.334-11.142 14.988-46.097c10.81 16.9 19.982 36.869 19.982 64.289z" fill="#8379c1"/><g><path d="m328.201 393.888c-1.119 0-2.257-.207-3.361-.644l-60.43-23.938c-4.689-1.857-6.984-7.164-5.126-11.853 1.856-4.689 7.164-6.985 11.853-5.126l60.43 23.938c4.689 1.857 6.984 7.164 5.126 11.853-1.42 3.584-4.858 5.77-8.492 5.77z" fill="#8379c1"/></g><g><path d="m358.919 363.323c-5.043 0-9.132-4.089-9.132-9.132l.001-61.124c0-5.043 4.089-9.132 9.132-9.132 5.043 0 9.132 4.088 9.132 9.132l-.001 61.124c0 5.044-4.089 9.132-9.132 9.132z" fill="#8379c1"/></g><g><path d="m386.318 395.203c-3.635 0-7.072-2.186-8.493-5.771-1.857-4.689.439-9.996 5.127-11.853l71.765-28.427c4.69-1.858 9.996.438 11.853 5.126 1.857 4.689-.439 9.996-5.127 11.853l-71.765 28.427c-1.103.439-2.241.645-3.36.645z" fill="#8379c1"/></g><g><path d="m417.812 480.323c-2.693 0-5.359-1.185-7.162-3.459l-40.106-50.582c-3.133-3.952-2.47-9.695 1.482-12.829 3.952-3.132 9.696-2.469 12.829 1.482l40.106 50.582c3.133 3.952 2.47 9.695-1.482 12.829-1.677 1.331-3.679 1.977-5.667 1.977z" fill="#8379c1"/></g><path d="m411.026 447.941c-4.666 3.91-9.608 7.5-14.793 10.739l14.418 18.184c1.803 2.273 4.469 3.459 7.162 3.459 1.987 0 3.989-.646 5.668-1.977 3.952-3.134 4.615-8.877 1.482-12.829z" fill="#6e61b6"/><g><path d="m300.024 480.323c-1.988 0-3.989-.646-5.668-1.977-3.952-3.134-4.615-8.877-1.482-12.829l43.37-54.697c3.134-3.952 8.878-4.615 12.829-1.482 3.952 3.134 4.615 8.877 1.482 12.829l-43.37 54.697c-1.803 2.274-4.47 3.459-7.161 3.459z" fill="#8379c1"/></g><path d="m324.477 506.984-9.422-28.998c-19.905-1.778-38.959-8.584-55.304-18.256 13.958 20.094 34.249 36.218 57.652 44.89 2.329.863 4.688 1.652 7.074 2.364z" fill="#6e61b6"/><path d="m457.985 347.397c0 9.875-1.091 19.495-3.161 28.746l24.259 17.631c.024-.658.024-1.303.024-1.96 0-27.078-9.527-52.812-24.631-72.908 1.925 8.938 3.509 18.978 3.509 28.491z" fill="#6e61b6"/></g></g><g/><g/><g/><g/><g/><g/><g/><g/><g/><g/><g/><g/><g/><g/><g/></svg>