<svg id="Capa_1" enable-background="new 0 0 512 512" viewBox="0 0 512 512" xmlns="http://www.w3.org/2000/svg"><g><path d="m119.791 388.994-38.746 45.774-20.451-10.104 15.193-34.669z" fill="#7a6d79"/><path d="m392.209 388.994 39.425 46.575 19.772-10.905-15.193-34.669z" fill="#7a6d79"/><path d="m499.5 386.658h-487c-2.761 0-5-2.239-5-5v-310.002c0-2.761 2.239-5 5-5h487c2.761 0 5 2.239 5 5v310.002c0 2.761-2.239 5-5 5z" fill="#0ed2b3"/><path d="m467.605 386.658h31.895c2.761 0 5-2.239 5-5v-310.002c0-2.761-2.239-5-5-5h-31.895v91.385l-28.117 62.763 28.117 71.835v86.519z" fill="#0ab69f"/><path d="m499.5 59.156-487 .001c-6.893 0-12.5 5.607-12.5 12.5v310.001c0 6.893 5.607 12.5 12.5 12.5h487c6.893 0 12.5-5.607 12.5-12.5v-310.002c0-6.892-5.607-12.5-12.5-12.5zm-484.5 320.002v-305.001l482-.001v305.002z" fill="#eef5f6"/><path d="m472.422 449.97-20.101 2.874h-415.881c-2.761 0-5-2.239-5-5v-18.18c0-2.761 2.239-5 5-5h416.644l20.659 1.269c2.761 0 5 2.239 5 5l-1.321 14.037c0 2.762-2.239 5-5 5z" fill="#918291"/><path d="m475.56 424.664h-23.186c1.758 0 3.184 1.426 3.184 3.184v19.996c0 2.761-2.239 5-5 5h25.002c2.761 0 5-2.239 5-5v-18.18c0-2.761-2.239-5-5-5z" fill="#7a6d79"/><path d="m457.917 302.327h-403.834c-5.351 0-9.688-4.337-9.688-9.688v-134.598c0-5.351 4.337-9.688 9.688-9.688h403.835c5.351 0 9.688 4.337 9.688 9.688v134.598c-.001 5.35-4.338 9.688-9.689 9.688z" fill="#eef5f6"/><g fill="#978ecb"><path d="m98.879 209.968c-3.036 0-5.612.17-7.909.495l3.155-19.044h24.862c4.143 0 7.5-3.357 7.5-7.5s-3.357-7.5-7.5-7.5h-31.221c-3.669 0-6.8 2.654-7.399 6.274l-6.186 37.332c-.462 2.79.696 5.597 2.977 7.269 2.281 1.671 5.32 1.912 7.842.632.065-.032.323-.16.738-.347 3.503-1.577 6.311-2.611 13.142-2.611 4.958 0 9.572 1.983 12.992 5.586 3.417 3.599 5.157 8.319 4.898 13.293-.483 9.316-8.178 16.761-17.518 16.949-9.093.164-16.864-6.439-18.116-15.403-.572-4.104-4.37-6.973-8.464-6.392-4.103.572-6.965 4.362-6.392 8.464 2.27 16.264 16.221 28.335 32.6 28.334.225 0 .449-.002.674-.007 17.164-.345 31.307-14.035 32.196-31.168.474-9.121-2.723-17.786-9.001-24.398-6.188-6.519-14.89-10.258-23.87-10.258z"/><path d="m412.516 176.419c-17.062 0-30.943 13.882-30.943 30.944v37.492c0 17.062 13.881 30.944 30.943 30.944s30.944-13.882 30.944-30.944v-37.492c0-17.062-13.882-30.944-30.944-30.944zm15.944 68.436c0 8.792-7.152 15.944-15.944 15.944-8.791 0-15.943-7.152-15.943-15.944v-37.492c0-8.792 7.152-15.944 15.943-15.944 8.792 0 15.944 7.152 15.944 15.944z"/></g><g><path d="m357.811 225.795c0 .578 0 1.146-.021 1.725-.332 21.521-7.198 37.72-18.574 54.281-13.508 19.7-32.306 32.674-55.723 39.659-9.598 2.871-17.597 4.953-28.127 4.953s-19.9-.49-29.498-3.361c-23.417-6.984-43.438-16.937-56.946-36.636-11.366-16.561-18.146-36.518-18.478-58.028-.021-.578 2.246-6.474 2.246-7.052 0-17.825 8.109-30.479 15.254-43.694 2.525-4.669.608-10.488 4.16-15.134 12.544-16.411 29.79-29.051 49.726-35.886 10.766-3.706 22.324 2.019 34.343 2.019s23.577-5.725 34.343-2.019c19.935 6.834 37.182 19.475 49.726 35.896 13.593 17.793 17.569 39.153 17.569 63.277z" fill="#deecf1"/><path d="m341.913 166.452 4.82 32.859-6.186 13.564c-5.624 25.148-19.517 47.223-38.534 63.168-4.17 3.497-8.356 6.556-13.015 9.448-17.646 10.955-38.742 17.462-61.04 17.462-3.489 0-6.954-.15-10.381-.477-17.611-1.679-28.047-2.752-42.436-11.267 12.629 18.179 23.155 23.979 43.782 30.898 1.427.479 5.442 5.433 6.943 5.881 9.598 2.871 19.775 4.413 30.305 4.413s20.707-1.542 30.305-4.413c2.822-.842 5.442-3.695 8.16-4.761 15.244-5.979 26.627-17.093 37.502-28.481 3.274-3.429 8.524-4.323 11.273-8.332 11.376-16.561 18.146-36.507 18.478-58.028.021-.578-2.509-6.385-2.509-6.964.001-23.822-17.467-54.97-17.467-54.97z" fill="#cbe5e8"/><g fill="#8379c1"><path d="m256.17 184.461-41.594 30.219 15.887 48.896h51.412l15.888-48.895z"/><path d="m290.515 126.622-34.343 24.949-34.343-24.949c10.766-3.706 22.324-5.71 34.343-5.71s23.578 2.003 34.343 5.71z"/><path d="m185.279 203.074-34.836 25.313c-.021-.578-.021-1.146-.021-1.725 0-24.124 8.077-46.362 21.681-64.155z"/><path d="m219.457 319.909c-23.417-6.984-38.389-21.565-50.535-33.494h43.438l5.219 16.061z"/></g><path d="m343.412 286.415c-13.508 19.7-33.518 34.589-56.935 41.574l13.508-41.574z" fill="#6e61b6"/><path d="m357.821 219.08c0 .578 0 1.146-.021 1.725l-17.254-7.927-13.491-9.803 13.187-40.556c9.51 14.868 17.579 32.437 17.579 56.561z" fill="#8379c1"/><g><path d="m229.143 228.488c-.985 0-1.986-.182-2.957-.567l-53.166-21.06c-4.125-1.634-6.145-6.303-4.51-10.428 1.633-4.125 6.303-6.145 10.428-4.51l53.166 21.06c4.125 1.634 6.145 6.303 4.51 10.428-1.248 3.153-4.273 5.077-7.471 5.077z" fill="#8379c1"/></g><g><path d="m256.17 201.596c-4.437 0-8.034-3.597-8.034-8.034l.001-53.777c0-4.437 3.598-8.034 8.034-8.034 4.437 0 8.034 3.597 8.034 8.034l-.001 53.777c0 4.437-3.598 8.034-8.034 8.034z" fill="#8379c1"/></g><g><path d="m280.275 229.645c-3.198 0-6.222-1.923-7.472-5.077-1.634-4.125.386-8.794 4.511-10.428l63.139-25.01c4.126-1.635 8.795.385 10.429 4.51s-.386 8.794-4.511 10.428l-63.139 25.01c-.971.385-1.972.567-2.957.567z" fill="#8379c1"/></g><g><path d="m307.984 304.533c-2.369 0-4.715-1.043-6.301-3.043l-35.285-44.502c-2.757-3.477-2.173-8.53 1.304-11.287 3.477-2.756 8.53-2.172 11.287 1.304l35.285 44.502c2.757 3.477 2.173 8.53-1.304 11.287-1.476 1.17-3.238 1.739-4.986 1.739z" fill="#8379c1"/></g><path d="m302.013 276.043c-4.105 3.44-8.453 6.599-13.015 9.448l12.685 15.998c1.586 2 3.932 3.043 6.301 3.043 1.749 0 3.51-.569 4.986-1.739 3.477-2.757 4.06-7.81 1.304-11.287z" fill="#6e61b6"/><g><path d="m204.353 304.533c-1.749 0-3.51-.569-4.986-1.739-3.477-2.757-4.06-7.81-1.304-11.287l38.157-48.123c2.757-3.477 7.811-4.06 11.287-1.304 3.477 2.757 4.06 7.81 1.304 11.287l-38.157 48.123c-1.586 2-3.932 3.043-6.301 3.043z" fill="#8379c1"/></g><path d="m225.868 327.989-8.289-25.512c-17.513-1.564-34.276-7.552-48.656-16.061 12.281 17.678 30.132 31.864 50.723 39.494 2.047.758 4.122 1.453 6.222 2.079z" fill="#6e61b6"/><path d="m343.328 187.584c0 8.688-.96 17.152-2.781 25.291l21.343 15.512c.021-.578.021-1.146.021-1.725 0-23.824-8.382-46.464-21.671-64.144 1.694 7.864 3.088 16.697 3.088 25.066z" fill="#6e61b6"/></g></g><g/><g/><g/><g/><g/><g/><g/><g/><g/><g/><g/><g/><g/><g/><g/></svg>