<svg id="Capa_1" enable-background="new 0 0 512 512" viewBox="0 0 512 512" xmlns="http://www.w3.org/2000/svg"><g><g><path d="m446.899 196.982c0 1.087 0 2.153-.04 3.239-.624 40.418-13.519 70.843-34.885 101.946-25.37 36.998-60.675 61.366-104.654 74.484-18.026 5.392-33.049 9.303-52.826 9.303s-37.374-.921-55.4-6.312c-43.98-13.117-81.581-31.809-106.951-68.807-21.346-31.104-34.081-68.585-34.705-108.983-.04-1.086 4.218-12.159 4.218-13.245 0-33.478 15.229-57.243 28.649-82.062 4.741-8.769 1.143-19.698 7.814-28.423 23.559-30.822 55.95-54.562 93.391-67.398 20.219-6.961 41.927 3.791 64.501 3.791 22.573 0 44.281-10.752 64.501-3.791 37.441 12.836 69.832 36.576 93.391 67.418 25.53 33.416 32.996 73.533 32.996 118.84z" fill="#eef5f6"/><path d="m417.041 85.53 9.053 61.713-11.618 25.475c-10.563 47.231-36.655 88.691-72.372 118.637-7.833 6.567-15.694 12.314-24.443 17.745-33.142 20.574-72.763 32.796-114.64 32.796-6.553 0-13.06-.282-19.496-.896-33.075-3.154-52.675-5.169-79.7-21.16 23.719 34.143 43.488 45.036 82.228 58.031 2.68.899 10.221 10.204 13.04 11.045 18.026 5.392 37.139 8.289 56.916 8.289s38.89-2.897 56.916-8.289c5.3-1.581 10.221-6.94 15.325-8.941 28.63-11.229 50.009-32.102 70.434-53.49 6.149-6.439 16.009-8.12 21.172-15.649 21.366-31.104 34.081-68.565 34.705-108.983.04-1.086-4.713-11.993-4.713-13.079.001-44.745-32.807-103.244-32.807-103.244z" fill="#deecf1"/><g fill="#978ecb"><path d="m256.005 119.352-78.118 56.755 29.838 91.833 96.559.001 29.839-91.833z"/><path d="m320.511 10.723-64.501 46.857-64.501-46.856c20.22-6.962 41.928-10.724 64.501-10.724s44.281 3.762 64.501 10.723z"/><path d="m122.864 154.311-65.426 47.541c-.04-1.086-.04-2.153-.04-3.239 0-45.307 15.169-87.074 40.72-120.491z"/><path d="m187.055 373.741c-43.98-13.117-72.099-40.501-94.911-62.906h81.581l9.801 30.165z"/></g><path d="m419.857 310.834c-25.37 36.998-62.951 64.963-106.931 78.081l25.37-78.081z" fill="#8379c1"/><path d="m446.92 184.37c0 1.087 0 2.153-.04 3.239l-32.406-14.887-25.338-18.411 24.766-76.17c17.862 27.925 33.018 60.922 33.018 106.229z" fill="#978ecb"/><path d="m199.094 388.915-15.568-47.915c-32.891-2.938-64.374-14.184-91.383-30.165 23.065 33.202 56.592 59.845 95.263 74.175 3.847 1.425 7.745 2.729 11.688 3.905z" fill="#8379c1"/><path d="m419.699 125.218c0 16.318-1.803 32.213-5.223 47.5l40.085 29.134c.04-1.086.04-2.153.04-3.239 0-44.744-15.743-87.266-40.7-120.471 3.18 14.767 5.798 31.357 5.798 47.076z" fill="#8379c1"/></g><g><g><g><path d="m202.8 190.849c-.946 0-1.907-.175-2.84-.545l-96.101-38.068c-3.964-1.57-5.903-6.055-4.333-10.018 1.57-3.964 6.055-5.905 10.018-4.333l96.101 38.068c3.964 1.57 5.903 6.055 4.333 10.018-1.201 3.03-4.106 4.878-7.178 4.878z" fill="#978ecb"/></g><g><path d="m256 152.778c-4.263 0-7.718-3.455-7.718-7.718v-110.136c0-4.263 3.455-7.718 7.718-7.718s7.718 3.455 7.718 7.718v110.136c0 4.263-3.455 7.718-7.718 7.718z" fill="#978ecb"/></g><g><path d="m312.722 189.452c-3.072 0-5.978-1.847-7.177-4.878-1.57-3.963.37-8.448 4.333-10.018l92.58-36.671c3.962-1.573 8.448.37 10.018 4.333s-.37 8.448-4.333 10.018l-92.58 36.671c-.934.37-1.896.545-2.841.545z" fill="#978ecb"/></g></g><g><g><g><path d="m379.408 413.868c0 5.218-1.986 10.425-5.969 14.397l-.175.185c-10.404 5.434-20.736 7.718-28.619-.185l3.746 3.766c3.982 3.983 5.979 9.19 5.979 14.397 0 5.218-1.997 10.435-5.979 14.407-.052.062-.103.124-.165.165-12.411 5.711-20.674 4.868-28.557-3.036l-3.839-.885c3.972 3.972 5.969 9.19 5.969 14.407 0 5.207-1.996 10.415-5.969 14.397-.062.052-.113.113-.175.175-11.783 5.897-21.065 5.958-28.958-1.945l-8.202-6.771c6.628 6.627 7.06 17.114 1.286 24.235-.01.021-.031.031-.041.052 0 0-.432.021-.906.092-.484.072-1.019.195-1.235.422-7.09 7.09-17.103 5.156-24.173-1.925l-18.812-15.436-96.768-99.352-8.655-8.438-3.345-3.252c-2.212-2.151-6.624-.686-9.341-2.044-4.116-2.089-8.696-3.201-13.378-3.221l-98.762-.37c-2.264-.01-4.096-1.852-4.096-4.116v-164.563c0-2.686 2.542-4.652 5.145-3.982l208.02 53.585c10.126 2.645 19.357 7.934 26.766 15.313 0 0 93.935 101.814 101.519 109.399l10.831 4.841 20.886 20.889c3.986 3.973 5.972 9.18 5.972 14.397z" fill="#ffcebf"/></g><g fill="#ffb09e"><path d="m352.555 378.581c-3.727 3.727-14.122 7.884-21.177.83l-33.334-32.734c-2.792-2.745-6.281-4.661-10.074-5.604-11.008-2.735-23.932-8.864-38.647-22.96-2.955-2.831-7.132-2.683-9.838.386l-1.154.322c-2.546-14.112 17.973-28.817 29.855-20.79 22.039 14.889 42.579 28.057 49.056 34.534l34.714 38.033z"/><path d="m279.782 501.578c-.01.021-.031.031-.041.052-.371.473-.803.936-1.245 1.379-7.09 7.091-18.575 7.091-25.665 0l-18.215-18.225-85.96-71.069-12.709-25.038-2.635-5.197c-.679-.679-3.108-1.883-6.02-3.242l-3.345-3.252c-2.212-2.151-4.723-3.931-7.44-5.289l3.406-3.098c9.354-8.49 23.196-10.075 34.083-3.664 3.499 2.058 6.555 4.261 8.552 6.257 1.801 1.801 3.375 3.766 4.713 5.866 1.019 1.585 2.902 2.439 4.765 2.13 3.097-.515 6.298-.618 9.54-.268 6.473.7 12.668 3.252 17.731 7.337 6.381 5.145 10.6 12.092 12.226 19.769.36 1.729 1.667 3.128 3.365 3.612 5.578 1.585 10.702 4.58 14.922 8.788 6.617 6.329 10.044 16.229 10.106 24.472.01 1.76 1.019 3.375 2.603 4.147 3.396 1.647 6.535 3.88 9.282 6.627 7.512 7.512 10.816 17.639 9.941 27.477-.113 1.389.391 2.768 1.379 3.756z"/><g><path d="m312.223 425.008 35.995 35.995c-7.968 7.787-20.729 7.73-28.621-.171l-3.765-3.755-17.839-17.839c-3.928-3.928-3.928-10.297 0-14.225l.005-.005c3.928-3.928 10.297-3.928 14.225 0z"/><path d="m373.265 428.446c-7.901 7.72-20.529 7.72-28.44.01l-18.027-18.028c-3.929-3.929-3.928-10.299.002-14.227 3.928-3.926 10.295-3.925 14.222.002z"/><path d="m283.414 453.812 32.238 32.238c-7.958 7.787-20.72 7.73-28.621-.172l-8.482-8.473-9.363-9.369c-3.925-3.927-3.925-10.293 0-14.22l.002-.002c3.926-3.93 10.297-3.931 14.226-.002z"/></g></g><g><path d="m199.414 477.45 4.176-9.884 9.486-3.778c7.904-7.904 20.72-7.904 28.624 0 .476.476.927.966 1.346 1.476 4.398 10.067 2.177 15.815-5.251 23.243l-13.662 13.662c-7.904 7.904-15.689 9.899-23.593 1.995-5.876-5.876-5.586-19.972-5.586-19.972.987-2.509 2.432-4.714 4.46-6.742z" fill="#d78878"/><path d="m247.631 478.101c0 5.185-1.973 10.36-5.928 14.315l-13.667 13.658c-7.901 7.901-20.72 7.901-28.621 0-3.946-3.955-5.928-9.13-5.928-14.306 0-2.573.486-5.147 1.468-7.577.086.095.181.191.267.276 7.901 7.91 20.72 7.91 28.621 0l19.204-19.205c3.059 3.728 4.584 8.284 4.584 12.839z" fill="#ca6e59"/></g><g><path d="m170.79 448.826 7.594-13.104 12.817-7.307c7.904-7.904 20.72-7.904 28.624 0 .476.476.927.966 1.346 1.476 4.398 10.067 2.177 15.815-5.251 23.243l-20.411 20.411c-7.904 7.904-15.689 9.899-23.593 1.995-5.876-5.876-8.269-12.518-5.408-19.788.987-2.509 2.254-4.898 4.282-6.926z" fill="#d78878"/><path d="m225.755 442.729c0 5.185-1.973 10.36-5.928 14.315l-20.416 20.406c-7.901 7.901-20.72 7.901-28.621 0-3.946-3.955-5.928-9.13-5.928-14.306 0-2.573.664-4.962 1.646-7.393.086.095-.086-.086 0 0 7.901 7.91 20.809 8.003 28.71.092l25.953-25.953c3.059 3.727 4.584 8.283 4.584 12.839z" fill="#ca6e59"/></g><g><path d="m113.542 391.577 9.884-9.884c7.904-7.904 20.72-7.904 28.624 0 .476.476.927.966 1.346 1.476 4.398 10.067 2.177 15.815-5.251 23.243l-9.884 9.884c-7.904 7.904-15.689 9.899-23.593 1.995-5.876-5.876-8.269-12.518-5.408-19.788.987-2.508 2.254-4.897 4.282-6.926z" fill="#d78878"/><path d="m157.98 396.007c0 5.185-1.973 10.36-5.928 14.315l-2.642 5.217-7.248 4.663c-7.901 7.901-20.72 7.901-28.621 0-3.946-3.955-5.928-9.13-5.928-14.306 0-2.573.664-4.962 1.646-7.393.086.095-.086-.086 0 0 7.901 7.91 20.809 8.003 28.71.092l15.427-15.427c3.06 3.727 4.584 8.283 4.584 12.839z" fill="#ca6e59"/></g><g><path d="m142.166 420.202 21.232-21.232c7.904-7.904 20.72-7.904 28.624 0 .476.476.927.966 1.346 1.476 4.398 10.067 2.177 15.815-5.251 23.243l-21.232 21.232c-7.904 7.904-15.689 9.899-23.593 1.995-5.876-5.876-8.269-12.518-5.408-19.788.987-2.509 2.254-4.898 4.282-6.926z" fill="#d78878"/><path d="m197.952 413.284c0 5.185-1.973 10.36-5.928 14.315l-21.237 21.227c-7.901 7.901-20.72 7.901-28.621 0-3.946-3.955-5.928-9.13-5.928-14.306 0-2.573.664-4.962 1.646-7.393.086.095-.086-.086 0 0 7.901 7.91 20.809 8.003 28.71.092l26.774-26.774c3.059 3.727 4.584 8.283 4.584 12.839z" fill="#ca6e59"/></g><path d="m506.541 195.159-182.689 49.273-66.157 3.077c-12.035.843-23.298 6.235-31.502 15.08l-29.859 32.192c-6.182 6.665-9.617 15.419-9.617 24.509v45.35c0 4.043 3.281 7.318 7.324 7.31 18.299-.036 33.128-14.852 33.183-33.15l.465-4.125c.236-2.099 1.113-4.074 2.51-5.657l12.962-14.685 7.697-8.705c2.604-2.945 7.146-3.146 9.98-.421 14.875 14.306 27.39 19.875 38.595 22.665 3.845.958 7.374 2.893 10.199 5.672l42.923 45.035 15.545-9.686c4.758-2.664 10.119-4.062 15.571-4.062h123.941c2.273 0 4.116-1.843 4.116-4.116v-161.582c.001-2.709-2.572-4.679-5.187-3.974z" fill="#d78878"/></g></g></g></g><g/><g/><g/><g/><g/><g/><g/><g/><g/><g/><g/><g/><g/><g/><g/></svg>