<svg id="Capa_1" enable-background="new 0 0 512 512" viewBox="0 0 512 512" xmlns="http://www.w3.org/2000/svg"><g><path d="m438.248 451.217c0-24.999-12.609-47.522-32.327-60.856l-24.209 2.336c-1.302 1.511-17.87 20.355-19.054 21.946 9.75 7.95 31.303 26.493 31.303 39.708l7.925 34.177h36.363v-37.311z" fill="#0ab69f"/><path d="m142.341 418.193c-1.142-1.526-10.933-19.324-12.185-20.775l-24.119-7.07c-19.73 13.333-32.346 35.862-32.346 60.869v37.312h36.001l11.391-38.94c0-13.317 11.378-23.45 21.258-31.396z" fill="#0ab69f"/><path d="m386.021 414.829c-10.622 14.278-30.905 31.632-30.905 49.533l14.481 24.166h32.288v-40.448c0-13.214-6.114-25.301-15.864-33.251z" fill="#8379c1"/><path d="m125.778 414.644c5.209-4.189 15.643 5.709 22.525 4.323l76.895-22.796-42.281-30.021-50.286 13.07c-10.001 2.761-18.741 5.821-26.595 11.129l16.167 19.817c1.253 1.45 2.433 2.952 3.575 4.478z" fill="#0ed2b3"/><path d="m125.778 414.644c-9.88 7.946-16.086 20.121-16.086 33.438v40.448h32.649l18.21-24.166c.001-17.98-24.063-35.407-34.773-49.72z" fill="#8379c1"/><path d="m361.478 419.101c6.981 1.406 19.289-8.556 24.544-4.271 1.184-1.591 2.41-3.154 3.713-4.665l16.187-19.803c-7.859-5.314-16.925-8.493-26.614-11.142l-50.255-13.062-40.908 29.333z" fill="#0ed2b3"/><path d="m89.32 488.529v18.32c0 2.845 2.306 5.151 5.151 5.151h47.87l109.623-20.956 117.633 20.956h47.932c2.845 0 5.151-2.306 5.151-5.151v-18.32z" fill="#ffcebf"/><path d="m255.789 425.972 46.903-68.678c-4.563-3.792-7.388-9.483-7.388-15.711v-10.897l-12.68-60.145h-26.655-13.637l-25.698 59.957v11.085c0 6.322-2.907 12.096-7.592 15.886z" fill="#ffcebf"/><path d="m216.635 270.543v59.957c12.149 6.104 25.635 9.349 39.531 9.349 13.748 0 27.091-3.182 39.139-9.161v-60.145h-39.335z" fill="#ffb09e"/><path d="m355.116 496.089h84.378c3.792 0 6.865-3.074 6.865-6.865v-17.995c0-3.792-3.074-6.865-6.865-6.865h-84.378z" fill="#eef5f6"/><path d="m160.552 496.089h-87.91c-3.867 0-7.002-3.135-7.002-7.002v-17.722c0-3.867 3.135-7.002 7.002-7.002h87.909v31.726z" fill="#eef5f6"/><path d="m386.021 414.829c-5.254-4.284-11.561-7.37-18.542-8.776l-.729-.147-59.393-15.437-41.979 37.684c-2.443 2.725-5.93 4.283-9.589 4.283s-7.147-1.557-9.589-4.283l-41.768-37.744-60.333 15.643c-6.882 1.386-13.112 4.401-18.32 8.591 10.711 14.313 16.563 31.74 16.563 49.719v12.871l18.21 11.296h196.926l12.119-11.296v-12.871c0-17.9 5.802-35.255 16.424-49.533z" fill="#978ecb"/><path d="m142.341 477.233h227.256v34.767h-227.256z" fill="#0ed2b3"/><path d="m246.2 437.511c2.443 2.725 5.93 4.283 9.589 4.283 3.659 0 7.146-1.557 9.589-4.283l63.674-71.354-18.454-4.796c-2.979-.774-5.651-2.192-7.905-4.066l-45.369 50.617c-.819.914-2.25.914-3.069 0l-45.212-50.442c-2.211 1.789-4.814 3.14-7.701 3.89l-18.423 4.789z" fill="#eef5f6"/><path d="m213.393 184.445v87.574c0 24.272-9.642 47.549-26.805 64.712l-5.517 5.517c-2.37 2.37-6.423.692-6.423-2.661v-67.569l-4.703-26.552z" fill="#ca6e59"/><path d="m174.648 184.445v87.574c0 24.272-9.642 47.549-26.805 64.712l-5.517 5.517c-2.37 2.37-6.423.692-6.423-2.661v-94.121z" fill="#bb5d4c"/><path d="m375.886 160.583v-55.388c0-57.535-60.131-97.169-102.462-89.867-5.244.905-10.51 2.275-15.75 4.162l-4.122 1.787-11.219 5.385v133.921z" fill="#d78878"/><path d="m273.424 15.327c48.386 7.193 87.905 38.816 87.905 107.102v38.153h18.32v-55.388c-.001-57.533-52.044-99.173-106.225-89.867z" fill="#ca6e59"/><path d="m256.166 151.445h124.279c11.527 0 20.872 9.345 20.872 20.872 0 28.976-23.489 52.465-52.465 52.465h-90.364z" fill="#ffb09e"/><path d="m151.003 107.746v105.758c0 12.049 2.927 23.918 8.53 34.585 3.865 7.36 8.937 14.019 15.005 19.702l35.456 33.207c12.987 12.163 29.579 18.245 46.172 18.245s33.184-6.082 46.172-18.245l35.456-33.207c6.068-5.683 11.14-12.342 15.005-19.702 5.603-10.667 8.53-22.536 8.53-34.585v-62.06c-5.706 0-10.668-3.914-11.996-9.464l-2.758-11.526c-8.544-35.705-35.903-63.894-71.336-73.501l-21.687-5.88-81.284 16.602z" fill="#ffcebf"/><g><g><path d="m227.879 145.941c-1.149 0-2.314-.281-3.392-.874-6.489-3.568-14.24-3.567-20.73 0-3.413 1.877-7.704.631-9.581-2.783s-.631-7.704 2.783-9.581c10.746-5.908 23.578-5.908 34.326 0 3.414 1.877 4.66 6.167 2.783 9.581-1.284 2.335-3.699 3.656-6.189 3.657z" fill="#ffb09e"/></g><g><path d="m311.967 145.941c-1.149 0-2.314-.281-3.392-.874-6.491-3.568-14.24-3.568-20.731 0-3.415 1.877-7.703.632-9.581-2.784-1.877-3.414-.631-7.704 2.783-9.58 10.748-5.908 23.578-5.908 34.326 0 3.414 1.877 4.66 6.167 2.783 9.58-1.283 2.336-3.697 3.658-6.188 3.658z" fill="#ffb09e"/></g><g><g><path d="m256.166 227.181c-5.123 0-10.244-1.189-14.914-3.568-3.471-1.769-4.852-6.017-3.083-9.489s6.017-4.852 9.489-3.083c5.328 2.714 11.69 2.714 17.017 0 3.47-1.768 7.721-.388 9.488 3.084 1.769 3.472.389 7.72-3.084 9.488-4.668 2.378-9.792 3.568-14.913 3.568z" fill="#ffb09e"/></g><g><path d="m256.166 269.93c-8.589 0-17.177-1.994-25.006-5.983-3.471-1.769-4.852-6.017-3.083-9.489 1.769-3.473 6.017-4.852 9.489-3.083 11.648 5.934 25.555 5.934 37.203 0 3.47-1.768 7.719-.389 9.488 3.083s.389 7.72-3.084 9.489c-7.83 3.988-16.418 5.983-25.007 5.983z" fill="#ffb09e"/></g></g><g><path d="m298.21 189.425c-3.897 0-7.055-3.159-7.055-7.055v-17c0-3.896 3.158-7.055 7.055-7.055s7.055 3.159 7.055 7.055v17c0 3.897-3.159 7.055-7.055 7.055z" fill="#ffb09e"/></g><g><path d="m214.122 189.425c-3.896 0-7.055-3.159-7.055-7.055v-17c0-3.896 3.159-7.055 7.055-7.055s7.055 3.159 7.055 7.055v17c0 3.897-3.159 7.055-7.055 7.055z" fill="#ffb09e"/></g></g><path d="m253.552 51.073v-20.534c0-11.226-7.041-21.246-17.602-25.051-59.552-21.455-122.35 22.67-122.35 85.968v191.177c0 3.323 3.993 5.015 6.38 2.703l35.501-34.38c13.153-12.738 20.578-30.265 20.578-48.574v-63.379c0-27.915 15.189-53.619 39.641-67.085z" fill="#ca6e59"/></g><g/><g/><g/><g/><g/><g/><g/><g/><g/><g/><g/><g/><g/><g/><g/></svg>