<svg id="Capa_1" enable-background="new 0 0 512 512" viewBox="0 0 512 512" xmlns="http://www.w3.org/2000/svg"><g><path d="m438.247 451.218c0-24.999-12.609-47.521-32.327-60.856l-24.209 2.336c-1.302 1.511-17.87 20.355-19.054 21.946 9.75 7.95 31.302 26.493 31.302 39.708l7.925 34.177h36.362v-37.311z" fill="#deecf1"/><path d="m142.342 418.194c-1.142-1.526-10.933-19.323-12.185-20.775l-24.119-7.07c-19.729 13.332-32.346 35.862-32.346 60.869v37.312h36.001l11.391-38.94c0-13.318 11.378-23.45 21.258-31.396z" fill="#deecf1"/><path d="m386.021 414.83c-10.622 14.278-30.905 31.632-30.905 49.533l14.481 24.166h32.288v-40.447c-.001-13.216-6.115-25.302-15.864-33.252z" fill="#fe5694"/><path d="m125.779 414.644c5.209-4.189 15.643 5.709 22.525 4.323l76.895-22.796-42.28-30.021-50.286 13.07c-9.423 2.561-18.741 5.821-26.594 11.129l16.167 19.816c1.251 1.452 2.431 2.953 3.573 4.479z" fill="#eef5f6"/><path d="m125.779 414.644c-9.88 7.946-16.086 20.121-16.086 33.437v40.447h32.649l18.21-24.166c0-17.978-24.063-35.405-34.773-49.718z" fill="#fe5694"/><path d="m361.477 419.101c6.981 1.406 19.289-8.556 24.543-4.271 1.183-1.591 2.41-3.154 3.713-4.665l16.186-19.803c-7.859-5.314-16.911-8.482-26.614-11.142l-50.255-13.062-40.908 29.332z" fill="#eef5f6"/><path d="m89.321 488.529v18.32c0 2.845 2.306 5.151 5.151 5.151h47.87l109.622-20.956 117.633 20.956h47.932c2.845 0 5.151-2.306 5.151-5.151v-18.32z" fill="#d78878"/><g fill="#7a6d79"><path d="m370.069 325.11c8.258 0 14.953-7.048 14.953-15.307v-103.067h-47.089l17.183 103.068c0 8.258 6.694 15.306 14.953 15.306z"/><path d="m310.257 325.11c8.258 0 14.953-7.048 14.953-15.307l19.981-103.068h-70.48l20.593 103.422c0 8.259 6.695 14.953 14.953 14.953z"/><path d="m142.164 325.836c-8.226 0-14.894-6.668-14.894-14.894v-103.924h58.234l-28.445 103.924c-.001 8.225-6.669 14.894-14.895 14.894z"/><path d="m201.741 325.836c-8.226 0-14.894-6.668-14.894-14.894l-11.323-103.924h94.361l-53.249 103.924c-.001 8.225-6.67 14.894-14.895 14.894z"/></g><path d="m171.952 344.012c-8.226 0-14.894-6.668-14.894-14.894v-122.1h29.788v122.101c0 8.225-6.668 14.893-14.894 14.893z" fill="#685e68"/><path d="m340.163 343.359c8.258 0 14.953-6.695 14.953-14.953v-121.67h-29.906v121.67c0 8.258 6.694 14.953 14.953 14.953z" fill="#685e68"/><path d="m255.789 425.973 46.903-68.677c-4.563-3.792-7.388-9.483-7.388-15.711v-13.042l-12.944-57.999h-26.39-23.626l-15.709 58.157v12.884c0 6.322-2.907 12.096-7.592 15.886z" fill="#d78878"/><path d="m216.635 270.544v58.157c12.047 6.018 25.405 9.219 39.169 9.219 13.889 0 27.368-3.253 39.5-9.378v-57.999h-39.335-39.334z" fill="#ca6e59"/><path d="m355.116 496.089h84.377c3.792 0 6.865-3.074 6.865-6.865v-17.995c0-3.792-3.074-6.865-6.865-6.865h-84.377z" fill="#ffd15b"/><path d="m160.552 496.089h-87.909c-3.867 0-7.002-3.135-7.002-7.002v-17.722c0-3.867 3.135-7.002 7.002-7.002h87.909z" fill="#ffd15b"/><g><path d="m378.526 102.641 7.045 84.339h-259.533v-91.166c0-64.387 62.03-109.853 122.751-91.839 1.814.533 3.629 8.577 5.434 9.232.505.178 1.048.271 1.581.271s1.076-.094 1.581-.271c1.805-.655 3.62-8.698 5.434-9.232 9.091-2.703 15.645 0 24.577 0 50.76 0 91.13 43.912 91.13 98.666z" fill="#918291"/><path d="m385.57 95.814v72.207l-25.235-17.49v-50.919c0-81.304-97.516-95.636-97.516-95.636 9.091-2.704 18.211-3.976 27.143-3.976 50.76 0 95.608 41.06 95.608 95.814z" fill="#7a6d79"/><g><path d="m262.819 3.975v74.882c0 3.872-3.143 7.015-7.015 7.015s-7.015-3.143-7.015-7.015v-74.882c1.814.533 3.629 1.122 5.434 1.777.505.178 1.048.271 1.581.271s1.076-.094 1.581-.271c1.805-.654 3.62-1.244 5.434-1.777z" fill="#7a6d79"/></g><path d="m347.929 223.424h-184.251c-28.801 0-52.148-23.348-52.148-52.148 0-11.458 9.288-20.746 20.746-20.746h247.056c11.458 0 20.746 9.288 20.746 20.746 0 28.801-23.348 52.148-52.149 52.148z" fill="#ca6e59"/><path d="m255.804 317.317c16.492 0 32.984-6.045 45.893-18.135l35.242-33.007c6.031-5.648 11.072-12.268 14.914-19.583 5.569-10.603 8.479-22.4 8.479-34.377v-61.685h-.043c-5.702 0-10.714-3.776-12.287-9.256-10.565-36.807-36.818-67.085-71.756-82.758l-18.529-8.312c-1.217-.546-2.61-.546-3.827 0l-18.529 8.312c-34.938 15.674-61.191 45.952-71.756 82.758-1.573 5.48-6.585 9.256-12.287 9.256h-.043v61.685c0 11.977 2.91 23.774 8.479 34.377 3.842 7.315 8.883 13.935 14.914 19.583l35.242 33.007c12.91 12.09 29.402 18.135 45.894 18.135z" fill="#d78878"/><g fill="#ca6e59"><path d="m240.728 221.646c4.72 2.405 9.897 3.607 15.076 3.607 5.177 0 10.355-1.202 15.075-3.607 3.453-1.759 4.825-5.983 3.066-9.435-1.757-3.452-5.984-4.823-9.434-3.066-5.453 2.778-11.963 2.778-17.412 0-3.452-1.758-7.676-.386-9.435 3.066-1.76 3.452-.388 7.676 3.064 9.435z"/><path d="m236.329 141.745c1.866-3.395.628-7.66-2.768-9.527-12.241-6.729-26.855-6.728-39.096 0-3.395 1.867-4.634 6.132-2.768 9.527 1.867 3.395 6.131 4.634 9.527 2.768 8.009-4.402 17.569-4.403 25.578 0 1.072.59 2.231.869 3.373.869 2.477-.001 4.877-1.314 6.154-3.637z"/><path d="m317.142 132.218c-12.239-6.729-26.855-6.729-39.097 0-3.395 1.866-4.634 6.131-2.768 9.526 1.866 3.396 6.132 4.634 9.527 2.768 8.009-4.403 17.572-4.402 25.579 0 1.072.59 2.23.869 3.373.869 2.476 0 4.877-1.314 6.154-3.637 1.866-3.394.627-7.659-2.768-9.526z"/><path d="m274.478 249.233c-11.582 5.901-25.411 5.901-36.993 0-3.45-1.758-7.676-.387-9.434 3.066-1.759 3.452-.386 7.676 3.066 9.435 7.784 3.966 16.324 5.949 24.865 5.949s17.081-1.983 24.865-5.949c3.453-1.759 4.825-5.983 3.066-9.435s-5.985-4.823-9.435-3.066z"/><path d="m297.788 156.701c-3.875 0-7.015 3.141-7.015 7.015v16.904c0 3.874 3.14 7.015 7.015 7.015s7.015-3.141 7.015-7.015v-16.904c0-3.875-3.14-7.015-7.015-7.015z"/><path d="m214.176 156.701c-3.875 0-7.015 3.141-7.015 7.015v16.904c0 3.874 3.14 7.015 7.015 7.015s7.015-3.141 7.015-7.015v-16.904c0-3.875-3.141-7.015-7.015-7.015z"/></g></g><path d="m386.021 414.83c-5.254-4.284-11.561-7.37-18.542-8.776l-.729-.147-59.393-15.437-41.978 37.684c-2.443 2.725-5.93 4.283-9.589 4.283-3.659 0-7.146-1.557-9.589-4.283l-41.768-37.743-60.332 15.643c-6.882 1.386-13.111 4.401-18.32 8.591 10.71 14.313 16.563 31.74 16.563 49.719v24.166 23.47h69.705l43.951-20.956 43.953 20.956h69.643v-23.471-24.166c.001-17.901 5.802-35.255 16.425-49.533z" fill="#fe76a8"/><path d="m246.2 437.512c2.443 2.725 5.93 4.283 9.589 4.283 3.659 0 7.146-1.557 9.589-4.283l63.673-71.354-18.454-4.796c-2.979-.774-5.651-2.192-7.905-4.066l-45.369 50.617c-.819.914-2.25.914-3.069 0l-45.212-50.441c-2.211 1.789-4.814 3.14-7.701 3.89l-18.423 4.788z" fill="#ffe177"/><path d="m256 470.089c-23.601 0-42.862 18.58-43.953 41.911l87.9-.003h.006c-1.092-23.329-20.353-41.908-43.953-41.908z" fill="#eef5f6"/></g><g/><g/><g/><g/><g/><g/><g/><g/><g/><g/><g/><g/><g/><g/><g/></svg>