<svg id="Capa_1" enable-background="new 0 0 512 512" viewBox="0 0 512 512" xmlns="http://www.w3.org/2000/svg"><g><path d="m381.398 202.723h-5.069c-16.515 0-29.903-13.388-29.903-29.903v-1.406c0-16.515 13.388-29.903 29.903-29.903h5.069c16.515 0 29.903 13.388 29.903 29.903v1.406c.001 16.515-13.388 29.903-29.903 29.903z" fill="#ffc344"/><path d="m431.199 225.965v2.507c0 24.418-11.065 45.004-33.443 51.357-4.648 1.319-9.55 2.03-14.614 2.03h-9.042c-29.492 0-53.392-23.9-53.392-53.382v-2.507c0-29.492 23.9-53.392 53.392-53.392h9.042c22.807 0 48.057 23.895 48.057 53.387z" fill="#ffe177"/><path d="m436.535 225.97v2.507c0 24.418-16.4 44.999-38.778 51.352-2.831-7.409-5.551-15.345-5.551-15.345l22.317-28.284c0-46.674-31.38-63.622-31.38-63.622 29.481 0 53.392 23.9 53.392 53.392z" fill="#ffd15b"/><path d="m470.867 275.387c.778-1.19 1.193-2.582 1.193-4.004v-60.654c-3.626-4.941-5.859-11.648-5.859-19.042 0-15.184 9.401-25.703 20.997-25.703s20.997 10.519 20.997 25.703c0 7.394-2.233 14.101-5.859 19.042v73.607c0 4.072-1.252 8.046-3.587 11.383l-21.255 30.381-26.057-25.432z" fill="#d78878"/><path d="m286.373 275.387c-.778-1.19-1.193-2.582-1.193-4.004v-60.654c3.626-4.941 5.859-11.648 5.859-19.042 0-15.184-9.401-25.703-20.997-25.703s-20.997 10.519-20.997 25.703c0 7.394 2.233 14.101 5.859 19.042v73.607c0 4.072 1.252 8.046 3.587 11.383l21.255 30.381 26.057-25.432z" fill="#d78878"/><path d="m377.854 360.426h1.533c13.5 0 35.138-26.48 24.444-34.907v-.013c-4.059-.141-7.308-3.467-7.308-7.56v-31.556c0-4.183-3.391-7.573-7.573-7.573h-10.33-17.902v39.129c0 4.093-3.249 7.419-7.308 7.56v.013c-13.049 9.433 10.944 34.907 24.444 34.907z" fill="#ca6e59"/><path d="m317.754 501.758v7.198c0 1.681 1.363 3.045 3.045 3.045h98.391c1.681 0 7.985-1.237 7.985-2.919l9.214-10.893c0-9.103.192-14.185-1.896-23.016l-55.97-10.15-57.69 10.15c-2.027 8.704-3.079 17.62-3.079 26.585z" fill="#ffe177"/><path d="m436.34 512c1.681 0 3.045-1.363 3.045-3.045v-6.798c0-9.103-1.085-18.155-3.173-26.986l-23.067-4.058c.449 1.394.909 2.752 1.381 4.058 4.104 11.366 4.758 26.767 4.665 36.828h17.149z" fill="#ffd15b"/><path d="m324.934 387.748c2.842 8.469 4.652 17.187 5.476 25.973l48.453 11.165 43.45-11.165c.809-8.242 2.487-16.421 5.076-24.391l.441-1.359c.999-3.075 2.374-6.001 4.066-8.735l-53.032-10.15-57.965 10.15c1.666 2.664 3.03 5.516 4.035 8.512z" fill="#ffe177"/><path d="m431.881 389.329.441-1.359c.999-3.075 2.374-6.001 4.066-8.735l-22.645-3.995c-6.772 14.433-9.824 28.911-10.033 38.481-.036 1.653-.013 3.455.06 5.364l23.035-5.364c.81-8.242 2.488-16.422 5.076-24.392z" fill="#ffd15b"/><path d="m324.667 462.046-.547 1.591c-1.302 3.79-2.383 7.643-3.289 11.534h93.693s15.527-4.255 14.157-8.156l-7.206-46.591-17.765-6.704h-73.3c1.522 16.237-.378 32.714-5.743 48.326z" fill="#fe76a8"/><path d="m432.758 463.29c-5.613-15.985-7.589-32.906-5.953-49.569h-23.095c-.335 15.419 4.198 43.127 10.814 61.451h21.687c-.948-4.011-2.083-7.981-3.453-11.882z" fill="#fe5694"/><path d="m471.753 334.011c2.24-2.422 2.143-6.188-.218-8.492l-7.407-14.451-11.324-11.053c-2.405-2.347-6.258-2.302-8.607.101l-20.66 21.132c-2.67 2.731-6.329 4.271-10.149 4.271h-9.292c-.09 0-.177-.01-.266-.013v.013c0 13.5-10.944 24.444-24.444 24.444h-1.533c-13.5 0-24.443-10.944-24.443-24.444v-.013c-.089.003-.176.013-.266.013h-9.292c-3.82 0-7.478-1.54-10.149-4.271l-20.659-21.132c-2.35-2.403-6.202-2.448-8.607-.101l-25.094 24.492c-2.361 2.304-2.457 6.07-.218 8.492l37.215 40.246c1.712 1.852 3.23 3.863 4.56 5.99h91.06c1.351-2.183 23.685-8.254 25.438-10.15z" fill="#fe76a8"/><path d="m477.898 324.507-13.77-13.439s-14.832 18.711-33.603 38.895c-8.195 8.813-14.281 19.145-18.566 29.273h24.429c1.351-2.183 2.9-4.245 4.653-6.141l37.075-40.095c2.24-2.423 2.143-6.188-.218-8.493z" fill="#fe5694"/><path d="m393.729 299.314-7.001 4.684c-4.906 3.283-11.308 3.283-16.215 0l-7.001-4.684c-12.995-8.696-20.796-23.301-20.796-38.938v-24.181c0-9.344 9.159-15.937 18.02-12.973l8.388 2.806c6.163 2.062 12.83 2.062 18.993 0l8.388-2.806c8.861-2.964 18.02 3.629 18.02 12.973v24.181c0 15.637-7.801 30.242-20.796 38.938z" fill="#d78878"/><g><g><path d="m425.148 86.982h-17.398c-4.204 0-7.611-3.408-7.611-7.611s3.408-7.611 7.611-7.611h17.398c4.204 0 7.612 3.408 7.612 7.611s-3.408 7.611-7.612 7.611z" fill="#ffe177"/></g><g><path d="m372.199 86.982h-17.398c-4.204 0-7.611-3.408-7.611-7.611s3.408-7.611 7.611-7.611h17.398c4.204 0 7.611 3.408 7.611 7.611s-3.407 7.611-7.611 7.611z" fill="#ffe177"/></g><g><path d="m389.975 69.207c-4.204 0-7.612-3.408-7.612-7.611v-17.399c0-4.204 3.408-7.611 7.612-7.611s7.611 3.408 7.611 7.611v17.398c0 4.204-3.408 7.612-7.611 7.612z" fill="#ffd15b"/></g><g><path d="m389.975 122.156c-4.204 0-7.612-3.408-7.612-7.611v-17.399c0-4.204 3.408-7.611 7.612-7.611s7.611 3.408 7.611 7.611v17.398c0 4.204-3.408 7.612-7.611 7.612z" fill="#ffd15b"/></g></g><g><g><path d="m104.25 86.982h-17.398c-4.204 0-7.612-3.408-7.612-7.611s3.408-7.611 7.612-7.611h17.398c4.204 0 7.611 3.408 7.611 7.611s-3.408 7.611-7.611 7.611z" fill="#ffe177"/></g><g><path d="m157.199 86.982h-17.398c-4.204 0-7.611-3.408-7.611-7.611s3.408-7.611 7.611-7.611h17.398c4.204 0 7.611 3.408 7.611 7.611s-3.407 7.611-7.611 7.611z" fill="#ffe177"/></g><g><path d="m122.025 69.207c-4.204 0-7.612-3.408-7.612-7.611v-17.399c0-4.204 3.408-7.611 7.612-7.611s7.611 3.408 7.611 7.611v17.398c.001 4.204-3.407 7.612-7.611 7.612z" fill="#ffd15b"/></g><g><path d="m122.025 122.156c-4.204 0-7.612-3.408-7.612-7.611v-17.399c0-4.204 3.408-7.611 7.612-7.611s7.611 3.408 7.611 7.611v17.398c.001 4.204-3.407 7.612-7.611 7.612z" fill="#ffd15b"/></g></g><g><g><path d="m235.975 64.538h-29.296c-4.204 0-7.611-3.408-7.611-7.611s3.408-7.611 7.611-7.611h29.296c4.204 0 7.611 3.408 7.611 7.611s-3.408 7.611-7.611 7.611z" fill="#ffd15b"/></g><g><path d="m305.308 64.538h-29.296c-4.204 0-7.612-3.408-7.612-7.611s3.408-7.611 7.612-7.611h29.296c4.204 0 7.611 3.408 7.611 7.611s-3.407 7.611-7.611 7.611z" fill="#ffd15b"/></g><g><path d="m255.994 44.519c-4.204 0-7.611-3.408-7.611-7.611v-29.297c0-4.204 3.408-7.611 7.611-7.611s7.611 3.408 7.611 7.611v29.296c0 4.204-3.408 7.612-7.611 7.612z" fill="#ffc344"/></g><g><path d="m255.994 113.853c-4.204 0-7.611-3.408-7.611-7.611v-29.297c0-4.204 3.408-7.611 7.611-7.611s7.611 3.408 7.611 7.611v29.296c0 4.204-3.408 7.612-7.611 7.612z" fill="#ffc344"/></g></g><g><path d="m225.627 275.387c.778-1.19 1.193-2.582 1.193-4.004v-60.654c-3.626-4.941-5.859-11.648-5.859-19.042 0-15.184 9.401-25.703 20.997-25.703s20.997 10.519 20.997 25.703c0 7.394-2.233 14.101-5.859 19.042v73.607c0 4.072-1.252 8.046-3.587 11.383l-21.255 30.381-26.057-25.432z" fill="#ffcebf"/><path d="m41.132 275.387c-.778-1.19-1.193-2.582-1.193-4.004v-60.654c3.626-4.941 5.859-11.648 5.859-19.042 0-15.184-9.401-25.703-20.997-25.703s-20.997 10.519-20.997 25.703c0 7.394 2.233 14.101 5.859 19.042v73.607c0 4.072 1.252 8.046 3.587 11.383l21.255 30.381 26.057-25.432z" fill="#ffcebf"/><path d="m136.158 202.723h-5.069c-16.515 0-29.903-13.388-29.903-29.903v-1.406c0-16.515 13.388-29.903 29.903-29.903h5.069c16.515 0 29.903 13.388 29.903 29.903v1.406c0 16.515-13.388 29.903-29.903 29.903z" fill="#685e68"/><path d="m188.414 239.648 7.821 106.817-60.242.396-65.469.426v-115.38c0-32.76 26.559-59.329 59.329-59.329h7.053c24.556 0 51.508 34.31 51.508 67.07z" fill="#918291"/><path d="m196.235 231.907v114.558l-60.242.396c-3.877-11.427-7.987-27.239-7.987-27.239l41.274-83.422c0-49.901-32.374-63.622-32.374-63.622 32.769 0 59.329 26.569 59.329 59.329z" fill="#7a6d79"/><path d="m132.613 360.426h1.533c13.5 0 35.138-26.48 24.443-34.907v-.013c-4.059-.141-7.308-3.467-7.308-7.56v-31.556c0-4.183-3.391-7.573-7.573-7.573h-10.328-17.903v39.129c0 4.093-3.249 7.419-7.308 7.56v.013c-13.049 9.433 10.944 34.907 24.444 34.907z" fill="#ffb09e"/><path d="m72.513 501.758v7.198c0 1.681 1.363 3.045 3.045 3.045h98.391c1.681 0 7.985-1.237 7.985-2.919l9.214-10.893c0-9.103.192-14.185-1.896-23.016l-55.97-10.15-57.69 10.15c-2.027 8.704-3.079 17.62-3.079 26.585z" fill="#ffe177"/><path d="m191.099 512c1.682 0 3.045-1.363 3.045-3.045v-6.798c0-9.103-1.085-18.155-3.173-26.986l-23.067-4.058c.449 1.394.909 2.752 1.381 4.058 4.104 11.366 4.758 26.767 4.665 36.828h17.149z" fill="#ffd15b"/><path d="m79.694 387.748c2.842 8.469 4.652 17.187 5.476 25.973l48.454 11.165 43.45-11.165c.809-8.242 2.487-16.421 5.076-24.391l.441-1.359c.999-3.075 2.374-6.001 4.066-8.735l-53.032-10.15-57.965 10.15c1.665 2.664 3.029 5.516 4.034 8.512z" fill="#ffe177"/><path d="m186.641 389.329.441-1.359c.999-3.075 2.374-6.001 4.066-8.735l-22.645-3.995c-6.772 14.433-9.824 28.911-10.033 38.481-.036 1.653-.013 3.455.06 5.364l23.035-5.364c.809-8.242 2.487-16.422 5.076-24.392z" fill="#ffd15b"/><path d="m79.427 462.046-.547 1.591c-1.302 3.79-2.383 7.643-3.289 11.534h93.693s15.527-4.255 14.157-8.156l-7.206-46.591-17.765-6.704h-73.3c1.522 16.237-.379 32.714-5.743 48.326z" fill="#fe76a8"/><path d="m226.513 334.011c2.24-2.422 2.143-6.188-.218-8.492l-7.407-14.451-11.325-11.053c-2.405-2.347-6.258-2.302-8.607.101l-20.66 21.132c-2.67 2.731-6.329 4.271-10.149 4.271h-9.292c-.09 0-.177-.01-.266-.013v.013c0 13.5-10.944 24.444-24.443 24.444h-1.533c-13.5 0-24.444-10.944-24.444-24.444v-.013c-.089.003-.176.013-.266.013h-9.292c-3.82 0-7.478-1.54-10.149-4.271l-20.66-21.132c-2.35-2.403-6.202-2.448-8.607-.101l-25.094 24.492c-2.361 2.304-2.457 6.07-.218 8.492l37.215 40.246c1.712 1.852 3.23 3.863 4.56 5.99h91.06c1.351-2.183 23.685-8.254 25.438-10.15z" fill="#fe76a8"/><path d="m232.658 324.507-13.77-13.439s-14.833 18.711-33.603 38.895c-8.195 8.813-14.281 19.145-18.566 29.273h24.429c1.351-2.183 2.9-4.245 4.653-6.141l37.075-40.095c2.239-2.423 2.143-6.188-.218-8.493z" fill="#fe5694"/><path d="m148.488 299.314-7.001 4.684c-4.906 3.283-11.308 3.283-16.215 0l-7.001-4.684c-12.995-8.696-20.796-23.301-20.796-38.938v-24.181c0-9.344 9.159-15.937 18.02-12.973l8.388 2.806c6.163 2.062 12.83 2.062 18.993 0l8.388-2.806c8.861-2.964 18.02 3.629 18.02 12.973v24.181c0 15.637-7.8 30.242-20.796 38.938z" fill="#ffcebf"/></g><path d="m187.518 463.29c-5.613-15.985-7.589-32.906-5.953-49.569h-23.095c-.335 15.419 4.198 43.127 10.814 61.451h21.687c-.948-4.011-2.083-7.981-3.453-11.882z" fill="#fe5694"/></g><g/><g/><g/><g/><g/><g/><g/><g/><g/><g/><g/><g/><g/><g/><g/></svg>