<svg id="Capa_1" enable-background="new 0 0 512 512" viewBox="0 0 512 512" xmlns="http://www.w3.org/2000/svg"><g><path d="m256 331.557h-12.998l-27.995 87.184v4.497c-9.872 17.969 16.723 52.828 37.351 52.828h7.283c20.628 0 49.625-37.02 37.351-52.828v-4.496l-21.021-87.184h-19.971z" fill="#d78878"/><path d="m256 331.557h-40.993v87.184c12.259 7.47 26.369 11.49 40.993 11.49s28.734-4.021 40.993-11.49v-87.184z" fill="#ca6e59"/><path d="m452.988 439.046 28.716-43.93c4.742-7.254 7.267-15.733 7.267-24.399v-129.439c0-3.912 1.284-7.703 3.638-10.828 5.172-6.866 14.05-21.835 14.218-43.86v-20.146l-61.874-7.078-23.801 12.934-9.822-8.327c-6.691-6.367-17.275-6.103-23.642.587-6.366 6.69-6.104 17.275.587 23.641l39.651 35.766c1.026.926 1.612 2.243 1.612 3.625v118.697c0 2.792-.814 5.524-2.341 7.861l-24.134 35.438z" fill="#d78878"/><g><path d="m449.711 140.888c0-5.292-2.879-9.911-7.156-12.378-2.097-1.209-4.529-1.901-7.124-1.901-.357 0-.711.039-1.063.039-6.001 0-10.716 6.494-10.716 14.023l.224 23.728c0 7.886 2.939 12.014 10.825 12.014 0 0 3.792.948 5.889-.262 3.715-2.142 8.34-3.239 8.975-7.66.096-.669.146-1.353.146-2.048l3.05-12.751z" fill="#d78878"/><path d="m421.152 166.443v-25.555c0-7.528 5.829-13.681 13.218-14.226v27.579c0 2.651.722 5.133 1.981 7.26z" fill="#ca6e59"/><path d="m478.269 140.888c0-5.292-2.879-9.911-7.156-12.378-2.097-1.209-4.529-1.901-7.124-1.901-.357 0-.711.039-1.063.039-6.001 0-10.716 6.494-10.716 14.023l.224 23.728c0 7.886 2.938 12.014 10.825 12.014 0 0 3.792.948 5.889-.262 3.715-2.142 8.34-3.239 8.975-7.66.096-.669.146-1.353.146-2.048l3.05-12.751z" fill="#d78878"/><path d="m462.928 126.663v27.579c0 7.886 6.393 14.279 14.279 14.279.307 0 .614-.011.916-.03-.635 4.42-3.295 8.187-7.01 10.33-2.097 1.209-4.529 1.901-7.124 1.901-7.886 0-14.279-6.393-14.279-14.279v-25.555c.001-7.527 5.83-13.68 13.218-14.225z" fill="#ca6e59"/><path d="m506.827 140.888c0-5.292-2.879-9.911-7.156-12.378-2.097-1.209-4.529-1.901-7.124-1.901-.357 0-.711.039-1.063.039-6.001 0-10.716 6.494-10.716 14.023l.224 23.728c0 7.886 2.938 12.014 10.825 12.014 0 0 3.792.948 5.889-.262 3.715-2.142 8.34-3.239 8.975-7.66.096-.669.146-1.353.146-2.048z" fill="#d78878"/><path d="m491.487 126.663v27.579c0 7.886 6.393 14.279 14.279 14.279.307 0 .614-.011.916-.03-.635 4.42-3.295 8.187-7.01 10.33-2.097 1.209-4.529 1.901-7.124 1.901-7.886 0-14.279-6.393-14.279-14.279v-25.555c0-7.527 5.829-13.68 13.218-14.225z" fill="#ca6e59"/><g><path d="m421.152 172.3c10.548 0 21.739 7.666 23.372 18.087l.344 2.196c.589 3.76 3.833 6.445 7.524 6.445.393 0 .789-.03 1.189-.093 4.16-.651 7.005-4.552 6.353-8.713l-.344-2.196c-2.804-17.89-17.981-30.875-36.088-30.875-.815 0-1.6.128-2.337.365z" fill="#ca6e59"/></g></g><path d="m59.012 439.046-28.716-43.93c-4.742-7.254-7.267-15.733-7.267-24.399v-129.439c0-3.912-1.284-7.703-3.638-10.828-5.172-6.866-14.05-21.835-14.218-43.86v-20.146l61.874-7.078 23.801 12.934 9.822-8.327c6.691-6.367 17.275-6.103 23.642.587 6.366 6.69 6.104 17.275-.587 23.641l-39.651 35.766c-1.026.926-1.612 2.243-1.612 3.625v118.697c0 2.792.814 5.524 2.341 7.861l24.134 35.438z" fill="#d78878"/><path d="m252.358 497.517h7.283c27.683 0 57.358-22.674 66.161-47.373 0 0 4.327-13.096 4.469-20.111l-6.859-6.796h-26.42v4.067c0 20.628-16.723 37.351-37.351 37.351h-7.283c-20.628 0-37.351-16.723-37.351-37.351v-4.067h-26.433l-8.243 9.701c.001 35.171 36.857 64.579 72.027 64.579z" fill="#eef5f6"/><g><path d="m62.289 140.888c0-5.292 2.879-9.911 7.156-12.378 2.097-1.209 4.529-1.901 7.124-1.901.357 0 .711.039 1.063.039 6.001 0 10.716 6.494 10.716 14.023l-.224 23.728c0 7.886-2.938 12.014-10.825 12.014 0 0-3.792.948-5.889-.262-3.715-2.142-8.34-3.239-8.975-7.66-.096-.669-.146-1.353-.146-2.048l-3.05-12.751z" fill="#d78878"/><path d="m90.848 166.443v-25.555c0-7.528-5.829-13.681-13.218-14.226v27.579c0 2.651-.722 5.133-1.981 7.26z" fill="#ca6e59"/><path d="m33.731 140.888c0-5.292 2.879-9.911 7.156-12.378 2.097-1.209 4.529-1.901 7.124-1.901.357 0 .711.039 1.063.039 6.001 0 10.716 6.494 10.716 14.023l-.224 23.728c0 7.886-2.938 12.014-10.825 12.014 0 0-3.792.948-5.889-.262-3.715-2.142-8.34-3.239-8.975-7.66-.096-.669-.146-1.353-.146-2.048l-3.05-12.751z" fill="#d78878"/><path d="m49.072 126.663v27.579c0 7.886-6.393 14.279-14.279 14.279-.307 0-.614-.011-.916-.03.635 4.42 3.295 8.187 7.01 10.33 2.097 1.209 4.529 1.901 7.124 1.901 7.886 0 14.279-6.393 14.279-14.279v-25.555c-.001-7.527-5.83-13.68-13.218-14.225z" fill="#ca6e59"/><path d="m5.173 140.888c0-5.292 2.879-9.911 7.156-12.378 2.097-1.209 4.529-1.901 7.124-1.901.357 0 .711.039 1.063.039 6.001 0 10.716 6.494 10.716 14.023l-.224 23.728c0 7.886-2.938 12.014-10.825 12.014 0 0-3.792.948-5.889-.262-3.715-2.142-8.34-3.239-8.975-7.66-.096-.669-.146-1.353-.146-2.048z" fill="#d78878"/><path d="m20.513 126.663v27.579c0 7.886-6.393 14.279-14.279 14.279-.307 0-.614-.011-.916-.03.635 4.42 3.295 8.187 7.01 10.33 2.097 1.209 4.529 1.901 7.124 1.901 7.886 0 14.279-6.393 14.279-14.279v-25.555c0-7.527-5.829-13.68-13.218-14.225z" fill="#ca6e59"/><g><path d="m90.848 172.3c-10.548 0-21.739 7.666-23.372 18.087l-.344 2.196c-.589 3.76-3.833 6.445-7.524 6.445-.393 0-.789-.03-1.189-.093-4.16-.651-7.005-4.552-6.353-8.713l.344-2.196c2.804-17.89 17.981-30.875 36.088-30.875.815 0 1.6.128 2.337.365z" fill="#ca6e59"/></g></g><path d="m319.731 448.653 34.073 8.634c14.353 0 27.958-6.802 36.577-18.241l17.569-37.922-19.583-18.061-25.89 31.739c-3.831 5.298-9.972 8.435-16.511 8.435h-22.555v5.378c-.141 7.016-1.439 13.749-3.68 20.038z" fill="#deecf1"/><path d="m160.668 460.377 31.594-11.724c-2.38-6.679-3.687-13.863-3.687-21.349v-4.067h-22.542c-6.538 0-12.679-3.138-16.511-8.435l-25.89-31.739-18.185 16.772 18.644 42.301c8.619 11.439 22.224 18.241 36.577 18.241z" fill="#deecf1"/><path d="m407.951 401.124-25.406 29.288c-8.619 11.439-22.225 18.241-36.577 18.241h-26.236c-8.802 24.699-32.406 42.435-60.089 42.435h-7.283c-27.684 0-51.295-17.734-60.097-42.435h-26.229c-14.353 0-27.958-6.802-36.577-18.241l-24.009-30.577-55.72 51.389 44.559 58.767c.959 1.265 2.456 2.008 4.043 2.008h318.169c1.644 0 3.186-.796 4.137-2.137l41.637-58.639z" fill="#978ecb"/><ellipse cx="193.216" cy="158.885" fill="#ffd15b" rx="40.226" ry="31.994" transform="matrix(.866 -.5 .5 .866 -53.557 117.895)"/><ellipse cx="318.784" cy="158.885" fill="#ffc344" rx="31.994" ry="40.226" transform="matrix(.5 -.866 .866 .5 21.793 355.518)"/><path d="m361.164 251.491.335 51.233h-214.759v-51.91c0-57.787 44.857-105.089 101.649-108.997 2.507-.172 5.054 9.956 7.611 9.956s5.106-10.145 7.612-9.956c20.181 1.521 47.773 15.045 65.878 33.14 19.769 19.78 31.674 46.362 31.674 76.534z" fill="#ffe177"/><path d="m365.26 250.814v51.91h-9.854l-8.129-13.772v-27.066c0-84.467-83.666-120.069-83.666-120.069 27.138 1.867 51.545 13.64 69.65 31.735 19.77 19.78 31.999 47.09 31.999 77.262z" fill="#ffd15b"/><g><path d="m263.612 141.817v68.777c0 4.212-3.41 7.611-7.612 7.611s-7.611-3.4-7.611-7.611v-68.777c2.507-.172 5.054-.264 7.611-.264 2.557.001 5.105.092 7.612.264z" fill="#ffd15b"/></g><g><path d="m159.557 340.225h192.886c15.212 0 27.543-12.331 27.543-27.543v-9.009c0-8.132-6.593-14.725-14.725-14.725h-218.522c-8.132 0-14.725 6.593-14.725 14.725v9.009c0 15.212 12.331 27.543 27.543 27.543z" fill="#ca6e59"/><path d="m323.18 269.247c-6.224-26.199-22.953-62.3-65.533-81.341-1.044-.467-2.25-.467-3.294 0-42.58 19.041-59.309 55.142-65.533 81.341-2.653 11.142-12.637 19.701-24.094 19.701v30.125c0 10.461 2.531 20.76 7.401 30.021 3.355 6.384 7.757 12.169 13.023 17.1l30.774 28.822c11.274 10.563 25.67 15.839 40.076 15.839s28.802-5.276 40.076-15.839l30.774-28.822c5.266-4.931 9.668-10.715 13.023-17.1 4.87-9.262 7.401-19.56 7.401-30.021v-30.12c-11.457 0-21.441-8.564-24.094-19.706z" fill="#d78878"/><g fill="#ca6e59"><path d="m239.386 324.101c-1.908 3.745-.419 8.329 3.327 10.237 4.16 2.119 8.723 3.179 13.287 3.179s9.127-1.06 13.287-3.179c3.746-1.908 5.235-6.492 3.327-10.237-1.908-3.746-6.494-5.236-10.237-3.327-3.993 2.035-8.76 2.035-12.753 0-3.746-1.908-8.33-.419-10.238 3.327z"/><path d="m270.471 353.922c-9.061 4.617-19.881 4.617-28.943 0-3.743-1.909-8.329-.42-10.237 3.327-1.908 3.745-.419 8.329 3.327 10.237 6.694 3.411 14.038 5.116 21.382 5.116s14.688-1.706 21.382-5.116c3.746-1.908 5.235-6.492 3.327-10.237-1.909-3.746-6.494-5.236-10.238-3.327z"/><path d="m235.383 302.465c2.482 0 4.915-1.213 6.376-3.444 2.302-3.518 1.316-8.235-2.201-10.537-11.35-7.427-24.901-7.428-36.251 0-3.517 2.302-4.503 7.019-2.201 10.537 2.302 3.517 7.019 4.502 10.537 2.201 6.221-4.071 13.358-4.071 19.579.001 1.285.84 2.731 1.242 4.161 1.242z"/><path d="m308.694 288.484c-11.35-7.428-24.902-7.428-36.251 0-3.517 2.302-4.503 7.019-2.201 10.537 1.461 2.232 3.894 3.444 6.376 3.444 1.43 0 2.876-.402 4.161-1.243 6.221-4.072 13.358-4.072 19.579-.001 3.517 2.302 8.235 1.317 10.537-2.201 2.302-3.517 1.316-8.234-2.201-10.536z"/></g></g><path d="m137.629 394.44-86.49 68.693c-1.911 1.518-4.691 1.199-6.209-.712l-14.963-18.84c-1.518-1.911-1.199-4.691.712-6.209l86.49-68.693c1.911-1.518 4.691-1.199 6.209.712l14.963 18.84c1.518 1.912 1.199 4.691-.712 6.209z" fill="#eef5f6"/><path d="m374.371 394.44 86.49 68.693c1.911 1.518 4.691 1.199 6.209-.712l14.963-18.84c1.518-1.911 1.199-4.691-.712-6.209l-86.49-68.693c-1.911-1.518-4.691-1.199-6.209.712l-14.963 18.84c-1.518 1.912-1.199 4.691.712 6.209z" fill="#eef5f6"/><g><g><path d="m425.148 86.982h-17.398c-4.204 0-7.611-3.408-7.611-7.611s3.408-7.611 7.611-7.611h17.398c4.204 0 7.612 3.408 7.612 7.611s-3.408 7.611-7.612 7.611z" fill="#ffe177"/></g><g><path d="m372.199 86.982h-17.398c-4.204 0-7.611-3.408-7.611-7.611s3.408-7.611 7.611-7.611h17.398c4.204 0 7.611 3.408 7.611 7.611s-3.407 7.611-7.611 7.611z" fill="#ffe177"/></g><g><path d="m389.975 69.207c-4.204 0-7.612-3.408-7.612-7.611v-17.399c0-4.204 3.408-7.611 7.612-7.611s7.611 3.408 7.611 7.611v17.398c0 4.204-3.408 7.612-7.611 7.612z" fill="#ffd15b"/></g><g><path d="m389.975 122.156c-4.204 0-7.612-3.408-7.612-7.611v-17.399c0-4.204 3.408-7.611 7.612-7.611s7.611 3.408 7.611 7.611v17.398c0 4.204-3.408 7.612-7.611 7.612z" fill="#ffd15b"/></g></g><g><g><path d="m104.25 86.982h-17.398c-4.204 0-7.612-3.408-7.612-7.611s3.408-7.611 7.612-7.611h17.398c4.204 0 7.611 3.408 7.611 7.611s-3.408 7.611-7.611 7.611z" fill="#ffe177"/></g><g><path d="m157.199 86.982h-17.398c-4.204 0-7.611-3.408-7.611-7.611s3.408-7.611 7.611-7.611h17.398c4.204 0 7.611 3.408 7.611 7.611s-3.407 7.611-7.611 7.611z" fill="#ffe177"/></g><g><path d="m122.025 69.207c-4.204 0-7.612-3.408-7.612-7.611v-17.399c0-4.204 3.408-7.611 7.612-7.611s7.611 3.408 7.611 7.611v17.398c.001 4.204-3.407 7.612-7.611 7.612z" fill="#ffd15b"/></g><g><path d="m122.025 122.156c-4.204 0-7.612-3.408-7.612-7.611v-17.399c0-4.204 3.408-7.611 7.612-7.611s7.611 3.408 7.611 7.611v17.398c.001 4.204-3.407 7.612-7.611 7.612z" fill="#ffd15b"/></g></g><g><g><path d="m235.975 64.538h-29.296c-4.204 0-7.611-3.408-7.611-7.611s3.408-7.611 7.611-7.611h29.296c4.204 0 7.611 3.408 7.611 7.611s-3.408 7.611-7.611 7.611z" fill="#ffd15b"/></g><g><path d="m305.308 64.538h-29.296c-4.204 0-7.612-3.408-7.612-7.611s3.408-7.611 7.612-7.611h29.296c4.204 0 7.611 3.408 7.611 7.611s-3.407 7.611-7.611 7.611z" fill="#ffd15b"/></g><g><path d="m255.994 44.519c-4.204 0-7.611-3.408-7.611-7.611v-29.297c0-4.204 3.408-7.611 7.611-7.611s7.611 3.408 7.611 7.611v29.296c0 4.204-3.408 7.612-7.611 7.612z" fill="#ffc344"/></g><g><path d="m255.994 113.853c-4.204 0-7.611-3.408-7.611-7.611v-29.297c0-4.204 3.408-7.611 7.611-7.611s7.611 3.408 7.611 7.611v29.296c0 4.204-3.408 7.612-7.611 7.612z" fill="#ffc344"/></g></g></g><g/><g/><g/><g/><g/><g/><g/><g/><g/><g/><g/><g/><g/><g/><g/></svg>