<svg id="Capa_1" enable-background="new 0 0 512 512" viewBox="0 0 512 512" xmlns="http://www.w3.org/2000/svg"><g><g><g><g><path d="m498.29 78.775v329.109l-75.984-45.503-6.429-16.135-8.801 11.724h-63.926l-9.525-2.081-6.1 2.081h-63.729l-7.802-3.121-7.802 3.121h-63.729l-10.294-3.121-5.332 3.121h-63.905l-12.931-12.629-2.299 17.04-75.984 45.503v-329.109z" fill="#deecf1"/><g><g><path d="m16.733 344.668c-2.672 0-5.274-1.373-6.728-3.841-2.188-3.712-.953-8.495 2.759-10.683l71.595-42.206c3.71-2.187 8.495-.953 10.683 2.759s.953 8.495-2.759 10.683l-71.595 42.206c-1.243.733-2.608 1.082-3.955 1.082z" fill="#cbe5e8"/></g><g><path d="m13.718 277.171c-2.617 0-5.173-1.317-6.648-3.708-2.261-3.667-1.122-8.474 2.546-10.736l67.26-41.478c3.666-2.26 8.474-1.122 10.736 2.546 2.261 3.667 1.122 8.474-2.546 10.736l-67.26 41.478c-1.276.787-2.691 1.162-4.088 1.162z" fill="#cbe5e8"/></g><g><path d="m13.096 208.272c-2.617 0-5.173-1.317-6.648-3.708-2.261-3.667-1.122-8.474 2.546-10.736l62.22-38.37c3.666-2.261 8.474-1.122 10.736 2.546 2.261 3.667 1.122 8.474-2.546 10.736l-62.22 38.37c-1.276.787-2.691 1.162-4.088 1.162z" fill="#cbe5e8"/></g><g><path d="m492.841 204.533c-1.397 0-2.812-.375-4.088-1.162l-56.157-34.631c-3.667-2.262-4.807-7.069-2.546-10.736 2.262-3.668 7.07-4.808 10.736-2.546l56.157 34.631c3.667 2.262 4.807 7.069 2.546 10.736-1.475 2.392-4.031 3.708-6.648 3.708z" fill="#cbe5e8"/></g><g><path d="m495.267 344.668c-1.347 0-2.711-.348-3.955-1.082l-71.595-42.206c-3.712-2.188-4.948-6.972-2.759-10.683 2.189-3.713 6.975-4.947 10.683-2.759l71.595 42.206c3.712 2.188 4.948 6.972 2.759 10.683-1.455 2.468-4.057 3.841-6.728 3.841z" fill="#cbe5e8"/></g><g><path d="m491.184 272.794c-1.398 0-2.812-.375-4.088-1.162l-60.162-37.101c-3.667-2.262-4.807-7.069-2.546-10.736 2.262-3.668 7.072-4.807 10.736-2.546l60.162 37.101c3.667 2.262 4.807 7.069 2.546 10.736-1.474 2.392-4.031 3.708-6.648 3.708z" fill="#cbe5e8"/></g></g><g><path d="m419.157 300.599h-326.314c-4.31 0-7.802-3.493-7.802-7.802s3.493-7.802 7.802-7.802h326.315c4.31 0 7.802 3.493 7.802 7.802s-3.493 7.802-7.803 7.802z" fill="#cbe5e8"/></g><g fill="#cbe5e8"><path d="m87.742 219.646c-4.31 0-7.802 3.493-7.802 7.802s3.493 7.802 7.802 7.802h82.174v-15.604z"/><path d="m427.291 219.646h-83.52v15.604h83.52c4.31 0 7.802-3.493 7.802-7.802s-3.493-7.802-7.802-7.802z"/></g><g><path d="m432.655 169.902h-354.764c-4.31 0-7.802-3.493-7.802-7.802s3.493-7.802 7.802-7.802h354.763c4.31 0 7.802 3.493 7.802 7.802.001 4.308-3.492 7.802-7.801 7.802z" fill="#cbe5e8"/></g><g><path d="m452.856 78.779c0 .104-.01.198-.021.291l-30.533 283.315-6.883-4.116c-.323-.193-.692-.295-1.068-.295h-7.28l30.096-279.196.146-1.384c.458-4.286 4.296-7.386 8.593-6.928 4.193.459 7.252 4.152 6.95 8.313z" fill="#cbe5e8"/></g><g><path d="m104.928 357.974h-7.28c-.376 0-.745.102-1.068.295l-6.882 4.116-30.564-283.606-.02-.192c-.454-4.264 2.46-8.317 6.713-8.868 4.382-.567 8.302 2.56 8.777 6.896l.229 2.164z" fill="#cbe5e8"/></g></g></g><g><g><g><path d="m263.796 83.529v274.441h-15.604v-274.441c0-1.789.603-3.443 1.633-4.754 1.415-1.852 3.651-3.048 6.169-3.048 2.517 0 4.754 1.196 6.169 3.048 1.03 1.31 1.633 2.964 1.633 4.754z" fill="#cbe5e8"/></g><g><path d="m184.463 357.97h-15.625l-14.596-270.207c-.229-4.307 3.069-7.979 7.376-8.208 4.296-.239 7.979 3.069 8.208 7.365z" fill="#cbe5e8"/></g><g><path d="m357.954 83.955-14.804 274.015h-15.625l14.845-274.857c.083-1.633.676-3.131 1.613-4.338 1.508-1.966 3.943-3.183 6.595-3.038 2.361.125 4.421 1.3 5.763 3.038 1.103 1.425 1.717 3.235 1.613 5.18z" fill="#cbe5e8"/></g></g></g><g><path d="m374.541 319.38c0 .675 0 1.337-.025 2.011-.387 25.1-8.395 43.993-21.663 63.308-15.754 22.976-37.679 38.108-64.99 46.254-11.194 3.348-20.523 5.777-32.804 5.777s-23.209-.572-34.403-3.92c-27.311-8.146-50.662-19.753-66.416-42.729-13.256-19.315-21.164-42.591-21.551-67.678-.025-.675 2.619-7.55 2.619-8.225 0-20.79 9.457-35.548 17.791-50.96 2.944-5.446.71-12.232 4.852-17.65 14.63-19.14 34.745-33.883 57.995-41.854 12.556-4.323 26.037 2.354 40.054 2.354 14.018 0 27.498-6.677 40.054-2.354 23.251 7.971 43.365 22.713 57.995 41.866 15.855 20.752 20.492 45.664 20.492 73.8z" fill="#eef5f6"/><path d="m355.999 250.169 5.622 38.323-7.214 15.82c-6.56 29.33-22.762 55.077-44.942 73.673-4.864 4.078-9.746 7.647-15.179 11.02-20.581 12.776-45.185 20.366-71.191 20.366-4.069 0-8.11-.175-12.107-.556-20.539-1.959-32.711-3.21-49.493-13.14 14.729 21.203 27.006 27.967 51.063 36.037 1.664.558 6.347 6.337 8.098 6.859 11.194 3.348 23.063 5.147 35.344 5.147s24.15-1.799 35.344-5.147c3.291-.982 6.347-4.309 9.517-5.552 17.779-6.973 31.055-19.935 43.739-33.217 3.819-3.999 9.941-5.042 13.148-9.718 13.268-19.315 21.164-42.578 21.551-67.678.025-.675-2.926-7.447-2.926-8.122 0-27.788-20.374-64.115-20.374-64.115z" fill="#deecf1"/><g fill="#978ecb"><path d="m255.997 271.172-48.511 35.244 18.529 57.028 59.963.001 18.529-57.028z"/><path d="m296.054 203.714-40.054 29.098-40.054-29.097c12.556-4.323 26.037-6.659 40.054-6.659 14.018-.001 27.498 2.335 40.054 6.658z"/><path d="m173.317 292.881-40.629 29.522c-.025-.675-.025-1.337-.025-2.011 0-28.136 9.42-54.072 25.287-74.824z"/><path d="m213.179 429.145c-27.311-8.146-44.773-25.151-58.939-39.064h50.662l6.086 18.732z"/></g><path d="m357.748 390.081c-15.754 22.976-39.092 40.342-66.403 48.488l15.754-48.488z" fill="#8379c1"/><path d="m374.553 311.548c0 .675 0 1.337-.025 2.011l-20.124-9.245-15.735-11.433 15.38-47.301c11.093 17.342 20.504 37.832 20.504 65.968z" fill="#978ecb"/><g><path d="m224.476 322.52c-1.149 0-2.316-.212-3.449-.661l-62.008-24.563c-4.811-1.906-7.167-7.351-5.26-12.162 1.905-4.811 7.352-7.167 12.162-5.26l62.008 24.563c4.811 1.906 7.167 7.351 5.26 12.162-1.456 3.678-4.983 5.921-8.713 5.921z" fill="#978ecb"/></g><g><path d="m255.997 291.157c-5.175 0-9.37-4.195-9.37-9.37l.001-62.721c0-5.175 4.196-9.37 9.37-9.37 5.175 0 9.37 4.195 9.37 9.37l-.001 62.721c0 5.175-4.196 9.37-9.37 9.37z" fill="#978ecb"/></g><g><path d="m284.111 323.87c-3.73 0-7.257-2.243-8.714-5.922-1.906-4.811.45-10.257 5.261-12.162l73.639-29.169c4.812-1.907 10.257.449 12.163 5.26s-.45 10.257-5.261 12.162l-73.639 29.169c-1.133.449-2.3.662-3.449.662z" fill="#978ecb"/></g><g><path d="m316.428 411.212c-2.763 0-5.499-1.216-7.349-3.549l-41.153-51.903c-3.215-4.055-2.534-9.949 1.521-13.164 4.056-3.214 9.949-2.534 13.164 1.521l41.153 51.903c3.215 4.055 2.534 9.949-1.521 13.164-1.722 1.365-3.776 2.028-5.815 2.028z" fill="#978ecb"/></g><path d="m309.464 377.984c-4.788 4.013-9.859 7.696-15.179 11.02l14.794 18.659c1.85 2.333 4.586 3.549 7.349 3.549 2.039 0 4.093-.663 5.816-2.028 4.055-3.216 4.736-9.109 1.521-13.164z" fill="#8379c1"/><g><path d="m195.564 411.212c-2.04 0-4.093-.663-5.816-2.028-4.055-3.216-4.736-9.109-1.521-13.164l44.503-56.125c3.216-4.056 9.11-4.735 13.164-1.521 4.055 3.216 4.736 9.109 1.521 13.164l-44.503 56.125c-1.85 2.333-4.586 3.549-7.348 3.549z" fill="#978ecb"/></g><path d="m220.656 438.569-9.668-29.755c-20.425-1.824-39.976-8.808-56.748-18.732 14.323 20.618 35.144 37.163 59.158 46.062 2.388.885 4.809 1.694 7.258 2.425z" fill="#8379c1"/><path d="m357.65 274.815c0 10.133-1.12 20.004-3.243 29.497l24.893 18.092c.025-.675.025-1.337.025-2.011 0-27.785-9.776-54.191-25.275-74.812 1.974 9.17 3.6 19.472 3.6 29.234z" fill="#8379c1"/></g></g><g><path d="m472.958 68.284h-458.394c-8.043 0-14.564 6.521-14.564 14.564v332.144c0 8.277 6.903 14.941 15.267 14.548 7.834-.368 13.861-7.116 13.861-14.959v-315.088c0-1.149.932-2.081 2.081-2.081h449.582c.705 0 1.326.353 1.702.889.237.338.378.747.378 1.191l1.618.008 2.126-23.776c.001-5.474-8.182-7.44-13.657-7.44z" fill="#918291"/><path d="m497.436 68.284h-24.478c5.475 0 9.913 4.438 9.913 9.913v21.296 315.087c0 7.843 6.027 14.591 13.861 14.959 8.364.393 15.267-6.271 15.267-14.548v-332.143c.001-8.043-6.52-14.564-14.563-14.564z" fill="#7a6d79"/></g></g><g/><g/><g/><g/><g/><g/><g/><g/><g/><g/><g/><g/><g/><g/><g/></svg>