<svg id="Capa_1" enable-background="new 0 0 497 497" height="512" viewBox="0 0 497 497" width="512" xmlns="http://www.w3.org/2000/svg"><g><path d="m479.455 17.545c-23.394-23.394-61.459-23.394-84.853 0l-377.057 377.057c-23.394 23.394-23.394 61.459 0 84.853s61.459 23.394 84.853 0l377.056-377.056c23.394-23.395 23.394-61.46.001-84.854z" fill="#fff1a0"/><path d="m458.241 38.759-31.82 10.607-377.056 377.056-10.607 31.82c11.716 11.716 30.711 11.716 42.426 0l377.058-377.057c11.715-11.716 11.715-30.711-.001-42.426z" fill="#ff4c3b"/><path d="m415.815 38.759-377.056 377.056c-11.716 11.716-11.716 30.711 0 42.426l419.482-419.482c-11.715-11.716-30.71-11.716-42.426 0z" fill="#ff6c4a"/><path d="m108 0c-59.647 0-108 48.353-108 108s48.353 108 108 108 108-48.353 108-108-48.353-108-108-108zm0 141c-18.225 0-33-14.775-33-33s14.775-33 33-33 33 14.775 33 33-14.775 33-33 33z" fill="#fff1a0"/><path d="m108 30 33 78-33 78c43.078 0 78-34.922 78-78s-34.922-78-78-78z" fill="#ff4c3b"/><path d="m108 126c-9.941 0-18-8.059-18-18s8.059-18 18-18 18 8.059 18 18-8.059 18-18 18zm48-18c0-43.078-21.49-78-48-78-43.078 0-78 34.922-78 78s34.922 78 78 78c26.51 0 48-34.922 48-78z" fill="#ff6c4a"/><path d="m389 281c-59.647 0-108 48.353-108 108s48.353 108 108 108 108-48.353 108-108-48.353-108-108-108zm0 141c-18.225 0-33-14.775-33-33s14.775-33 33-33 33 14.775 33 33-14.775 33-33 33z" fill="#fff1a0"/><path d="m389 311 33 78-33 78c43.078 0 78-34.922 78-78s-34.922-78-78-78z" fill="#ff4c3b"/><path d="m389 407c-9.941 0-18-8.059-18-18s8.059-18 18-18 18 8.059 18 18-8.059 18-18 18zm48-18c0-43.078-21.49-78-48-78-43.078 0-78 34.922-78 78s34.922 78 78 78c26.51 0 48-34.922 48-78z" fill="#ff6c4a"/></g></svg>