<svg id="Capa_1" enable-background="new 0 0 497 497" height="512" viewBox="0 0 497 497" width="512" xmlns="http://www.w3.org/2000/svg"><g><path d="m224.5 293 12.43 186.43 174-174z" fill="#ffc649"/><path d="m398.5 0-30 60v263c16.57 0 31.57-6.72 42.43-17.57 10.85-10.86 17.57-25.86 17.57-42.43v-255.5c0-4.142-3.358-7.5-7.5-7.5z" fill="#fff1a0"/><path d="m398.5 0v293c0 16.569-13.431 30-30 30h-114v114c0 16.57-6.72 31.57-17.57 42.43-10.86 10.85-25.86 17.57-42.43 17.57h-118.5c-4.142 0-7.5-3.358-7.5-7.5v-482c0-4.142 3.358-7.5 7.5-7.5z" fill="#fff9d6"/><path d="m308.5 248 30 45h30v-30z" fill="#54d8ff"/><path d="m278.5 248 30 45h30v-30z" fill="#8de5ff"/><path d="m128.5 263v30h180v-45h-137z" fill="#c6f2ff"/><path d="m308.5 218 30 45h30v-30z" fill="#43b7d9"/><path d="m278.5 218 30 45h30v-30z" fill="#54d8ff"/><path d="m128.5 233v30h180v-45h-137z" fill="#8de5ff"/><path d="m308.5 188 30 45h30v-30z" fill="#54d8ff"/><path d="m278.5 188 30 45h30v-30z" fill="#8de5ff"/><path d="m128.5 203v30h180v-45h-137z" fill="#c6f2ff"/><path d="m338.5 173-30 15 30 15h30v-30z" fill="#22748b"/><path d="m128.5 173h210v30h-210z" fill="#3295b2"/><path d="m338.5 60-45 30.5 45 52.5h30v-83z" fill="#ffc649"/><path d="m128.5 60h210v83h-210z" fill="#ffe341"/><path d="m224.5 384.5h-96c-4.143 0-7.5-3.358-7.5-7.5s3.357-7.5 7.5-7.5h96c4.143 0 7.5 3.358 7.5 7.5s-3.357 7.5-7.5 7.5z" fill="#22748b"/><g fill="#3295b2"><path d="m224.5 414.5h-96c-4.143 0-7.5-3.358-7.5-7.5s3.357-7.5 7.5-7.5h96c4.143 0 7.5 3.358 7.5 7.5s-3.357 7.5-7.5 7.5z"/><path d="m224.5 444.5h-96c-4.143 0-7.5-3.358-7.5-7.5s3.357-7.5 7.5-7.5h96c4.143 0 7.5 3.358 7.5 7.5s-3.357 7.5-7.5 7.5z"/></g></g></svg>