<svg id="Capa_1" enable-background="new 0 0 504.5 504.5" height="512" viewBox="0 0 504.5 504.5" width="512" xmlns="http://www.w3.org/2000/svg"><g><path d="m277.893 437-81.286 15-4.616 16.154c-4.532 15.865-21.741 28.846-38.241 28.846h167z" fill="#8de5ff"/><path d="m312.508 468.154-4.615-16.154-8.571-30-47.071-45.847-47.072 45.847-8.571 30h81.286l4.616 16.154c4.531 15.865 21.74 28.846 38.24 28.846h30c-16.5 0-33.709-12.981-38.242-28.846z" fill="#54d8ff"/><path d="m399.75 504.5h-295c-4.143 0-7.5-3.358-7.5-7.5s3.357-7.5 7.5-7.5h295c4.143 0 7.5 3.358 7.5 7.5s-3.357 7.5-7.5 7.5z" fill="#c6f2ff"/><path d="m440.75 422h30c16.5 0 30-13.5 30-30v-30l-60-75.847z" fill="#8de5ff"/><path d="m3.75 362v30c0 16.5 13.5 30 30 30h407c16.5 0 30-13.5 30-30v-165.847z" fill="#c6f2ff"/><path d="m470.75 45h-30v286.153l30 30.847h30v-287c0-16.5-13.5-30-30-30z" fill="#234b72"/><path d="m470.749 332-218.499-128.5 218.5-128.5c0-16.5-13.5-30-30-30h-407c-16.5 0-30 13.5-30 30v287h467z" fill="#375798"/><path d="m470.75 75.026-29.994-.026c-.001.007-188.506 128.5-188.506 128.5s188.502 128.497 188.5 128.5h29.999c.001 0-.002-256.968.001-256.974z" fill="#43b7d9"/><path d="m440.75 75h-406.912c-.024.014-.045 256.994-.088 257h67.5l151-60 151 60h37.49c.005 0-.032-256.994.01-257z" fill="#54d8ff"/><path d="m373.25 0-120 173.077 120 158.077h30v-323.654c0-4.142-3.358-7.5-7.5-7.5z" fill="#fff1a0"/><path d="m101.25 7.5v323.653h272v-331.153h-264.5c-4.142 0-7.5 3.358-7.5 7.5z" fill="#fff9d6"/><path d="m283.25 227 30 45h30v-30z" fill="#54d8ff"/><path d="m253.25 227 30 45h30v-30z" fill="#8de5ff"/><path d="m161.25 242v30h122v-45h-107z" fill="#c6f2ff"/><path d="m283.25 197 30 45h30v-30z" fill="#43b7d9"/><path d="m253.25 197 30 45h30v-30z" fill="#54d8ff"/><path d="m161.25 212v30h122v-45h-107z" fill="#8de5ff"/><path d="m283.25 167 30 45h30v-30z" fill="#54d8ff"/><path d="m253.25 167 30 45h30v-30z" fill="#8de5ff"/><path d="m161.25 182v30h122v-45h-107z" fill="#c6f2ff"/><path d="m313.25 152-30 15 30 15h30v-30z" fill="#22748b"/><path d="m161.25 152h152v30h-152z" fill="#3295b2"/><path d="m313.25 61-45 30.5 45 30.5h30v-61z" fill="#ffc649"/><path d="m161.25 61h152v61h-152z" fill="#ffe341"/></g></svg>