<svg id="Capa_1" enable-background="new 0 0 497 497" height="512" viewBox="0 0 497 497" width="512" xmlns="http://www.w3.org/2000/svg"><g><path d="m274.143 410.75-81.286 15-4.616 16.154c-4.532 15.865-21.741 28.846-38.241 28.846h167z" fill="#8de5ff"/><path d="m308.758 441.904-4.616-16.154-8.571-30-47.071-45.847-47.071 45.847-8.571 30h81.286l4.616 16.154c4.531 15.865 21.74 28.846 38.24 28.846h30c-16.5 0-33.709-12.981-38.242-28.846z" fill="#54d8ff"/><path d="m396 478.25h-295c-4.142 0-7.5-3.358-7.5-7.5s3.358-7.5 7.5-7.5h295c4.142 0 7.5 3.358 7.5 7.5s-3.358 7.5-7.5 7.5z" fill="#c6f2ff"/><path d="m437 395.75h30c16.5 0 30-13.5 30-30v-30l-60-75.847z" fill="#8de5ff"/><path d="m0 335.75v30c0 16.5 13.5 30 30 30h407c16.5 0 30-13.5 30-30v-165.847z" fill="#c6f2ff"/><path d="m467 18.75h-30v286.153l30 30.847h30v-287c0-16.5-13.5-30-30-30z" fill="#234b72"/><path d="m466.999 305.75-218.499-128.5 218.5-128.5c0-16.5-13.5-30-30-30h-407c-16.5 0-30 13.5-30 30v287h467z" fill="#375798"/><path d="m362 170.75 105 105v30h-30z" fill="#43b7d9"/><path d="m437 170.75-407 105v30h407z" fill="#54d8ff"/><path d="m467 48.773-29.994-.023c-.001.006-188.506 113.5-188.506 113.5s188.502 113.497 188.5 113.5h29.999c.001 0-.002-226.972.001-226.977z" fill="#fff9d6"/><path d="m437 48.75h-406.912c-.024.012-.045 226.995-.088 227h406.99c.005 0-.032-226.995.01-227z" fill="#fff"/><path d="m97.5 198.75h53v47h-53z" fill="#ffa951"/><path d="m180.5 108.75h53v137h-53z" fill="#ff8c59"/><path d="m263.5 138.75h53v107h-53z" fill="#ff6c4a"/><path d="m346.5 78.75h53v167h-53z" fill="#ff4c3b"/></g></svg>