<svg id="Capa_1" enable-background="new 0 0 497 497" height="512" viewBox="0 0 497 497" width="512" xmlns="http://www.w3.org/2000/svg"><g><path d="m489.5 437h-22.5l-30-60 60 30v22.5c0 4.142-3.358 7.5-7.5 7.5z" fill="#1f727b"/><path d="m467 437h-150l-68.5-30-68.5 30h-172.5c-4.142 0-7.5-3.358-7.5-7.5v-22.5l467-105z" fill="#2c9091"/><path d="m497 407h-30l-30-60 60 30z" fill="#2c9091"/><path d="m467 407h-467v-30l467-105z" fill="#3aafa7"/><path d="m497 377h-30l-30-60 60 30z" fill="#3aafa7"/><path d="m467 377h-467v-30l467-105z" fill="#47cdbd"/><path d="m497 347h-30l-135-143.5 135-143.5h22.5c4.142 0 7.5 3.358 7.5 7.5z" fill="#47cdbd"/><path d="m467 347h-467v-279.5c0-4.142 3.358-7.5 7.5-7.5h172.5l68.5 45 68.5-45h150v75l-60 68.5 60 68.5z" fill="#54ecd3"/><path d="m437 105h-30v197h30c16.569 0 30-13.431 30-30v-137c0-16.569-13.432-30-30-30z" fill="#fff1a0"/><path d="m437 272v-137c0-16.569-13.431-30-30-30h-347c-16.569 0-30 13.431-30 30v137c0 16.569 13.431 30 30 30h347c16.568 0 30-13.431 30-30z" fill="#fff9d6"/><path d="m317 437h-30l-45-120 75 30z" fill="#ffc649"/><path d="m287 437v-219l-107 129v90z" fill="#ffe341"/><path d="m317 347h-30l-90-143.5 90-143.5h30z" fill="#ffe341"/><path d="m180 60h107v287h-107z" fill="#fff1a0"/><circle cx="105" cy="203.5" fill="#54ecd3" r="45"/><circle cx="105" cy="203.5" fill="#47cdbd" r="15"/><circle cx="392" cy="203.5" fill="#54ecd3" r="45"/><circle cx="392" cy="203.5" fill="#47cdbd" r="15"/></g></svg>