<svg id="Capa_1" enable-background="new 0 0 497 497" height="512" viewBox="0 0 497 497" width="512" xmlns="http://www.w3.org/2000/svg"><g><path d="m210 421.99v75h30c16.57 0 30-13.43 30-30v-44.996z" fill="#234b72"/><path d="m0 422v45c0 16.57 13.43 30 30 30l180-.01c16.57 0 30-13.43 30-30v-44.99z" fill="#375798"/><path d="m270 421.989c16.568-.001 29.999-13.432 29.999-30l.001-179.984h-150z" fill="#375798"/><path d="m270 421.994v-392.004h-60v392l30.002 29.999c16.566-.001 29.995-13.43 29.998-29.995z" fill="#22748b"/><path d="m240 29.99v242.005l-15 15.005 15 14.995v30l-15 15 15 15v30l-15 15 15 15v29.995l-210 .01c-8.28 0-15.78-3.36-21.21-8.79-5.43-5.43-8.79-12.93-8.79-21.21v-362c0-16.57 13.43-30 30-30z" fill="#3295b2"/><path d="m30 59.999v152.006h150v-152.016z" fill="#ffe341"/><g fill="#54d8ff"><path d="m30 272.005h50.001v29.99h-50.001z"/><path d="m110.001 272.003h50v29.992h-50z"/><path d="m190.001 271.996h50v29.999h-50z"/><path d="m30 332.005h50.001v29.99h-50.001z"/><path d="m110.001 332.003h50v29.992h-50z"/><path d="m190.001 331.996h50v29.999h-50z"/><path d="m30 392.005h50.001v29.99h-50.001z"/><path d="m110.001 392.003h50v29.992h-50z"/><path d="m190.001 391.996h50v29.999h-50z"/></g><path d="m467 0h-30v242.005h30c16.568 0 30-13.431 30-30v-105l-15-23.502 15-23.503v-30c0-16.569-13.431-30-30-30z" fill="#43b7d9"/><path d="m467 212.005v-182.005c0-16.569-13.432-30-30-30h-272c-16.568 0-30 13.431-30 30v30l15 23.502-15 23.502v105c0 16.569 13.432 30 30 30h272c16.569.001 30-13.43 30-29.999z" fill="#54d8ff"/><path d="m467 107.005-30-23.502 30-23.503h30v47.005z" fill="#234b72"/><path d="m135 60h332v47.005h-332z" fill="#375798"/><path d="m407 182.005-30-15 30-15h30v30z" fill="#3295b2"/><path d="m195 152.005h212v30h-212z" fill="#43b7d9"/></g></svg>