<svg id="Capa_1" enable-background="new 0 0 497 497" height="512" viewBox="0 0 497 497" width="512" xmlns="http://www.w3.org/2000/svg"><g><path d="m181.418 0h134.164v90h-134.164z" fill="#375798"/><path d="m338.5 362v135h30c16.57 0 30-13.43 30-30v-15z" fill="#234b72"/><path d="m98.5 452v15c0 16.57 13.43 30 30 30h210c16.57 0 30-13.43 30-30v-105z" fill="#375798"/><path d="m368.5 0h-30v422l30 30h30v-422c0-16.57-13.43-30-30-30z" fill="#b5cdff"/><path d="m338.5 0h-22.918c-11.363 0-21.751 6.42-26.833 16.583l-13.416 26.833c-5.082 10.164-15.47 16.584-26.833 16.584s-21.751-6.42-26.833-16.584l-13.416-26.833c-5.082-10.163-15.47-16.583-26.833-16.583h-52.918c-16.569 0-30 13.431-30 30v422h270v-422c0-16.569-13.431-30-30-30z" fill="#c6f2ff"/><circle cx="248.5" cy="30" fill="#0e3e4c" r="7.5"/><path d="m467 392h-30v-182h30c16.569 0 30 13.431 30 30v122c0 16.569-13.431 30-30 30z" fill="#a0b4de"/><path d="m295.122 86.307h15v172.385h-15z" fill="#fff9d6" transform="matrix(.832 -.556 .556 .832 -44.835 197.199)"/><path d="m108.185 165h172.385v15h-172.385z" fill="#fff9d6" transform="matrix(.556 -.831 .831 .556 -57.044 238.274)"/><path d="m437 392h-407c-16.569 0-30-13.431-30-30v-122c0-16.569 13.431-30 30-30h407c16.569 0 30 13.431 30 30l-30 64.796 30 57.204c0 16.569-13.431 30-30 30z" fill="#b5cdff"/><path d="m437 240-60 61 60 61h30v-122z" fill="#ff4c3b"/><path d="m30 240h407v122h-407z" fill="#ff6c4a"/><circle cx="248.5" cy="105" fill="#a0b4de" r="15"/></g></svg>