<svg id="Capa_1" enable-background="new 0 0 497 497" height="512" viewBox="0 0 497 497" width="512" xmlns="http://www.w3.org/2000/svg"><g><path d="m233.5 285v197c0 8.284 6.716 15 15 15s15-6.716 15-15v-197z" fill="#ff8c59"/><path d="m324.249 305.732 75.389 182.004c3.17 7.654 11.945 11.288 19.598 8.118s11.288-11.945 8.118-19.598l-75.389-182.004z" fill="#ff6c4a"/><path d="m172.751 305.732-75.389 182.004c-3.17 7.654-11.945 11.288-19.598 8.118s-11.288-11.945-8.118-19.598l75.389-182.004z" fill="#ff8c59"/><path d="m248.5 0v420c115.98 0 210-94.02 210-210s-94.02-210-210-210z" fill="#fff1a0"/><path d="m428.5 210c0-115.98-80.589-210-180-210-115.98 0-210 94.02-210 210s94.02 210 210 210c99.411 0 180-94.02 180-210z" fill="#fff9d6"/><path d="m248.5 60v300c82.843 0 150-67.157 150-150s-67.157-150-150-150z" fill="#43b7d9"/><path d="m368.5 210c0-82.843-53.726-150-120-150-82.843 0-150 67.157-150 150s67.157 150 150 150c66.274 0 120-67.157 120-150z" fill="#54d8ff"/><path d="m248.5 120v180c49.706 0 90-40.294 90-90s-40.294-90-90-90z" fill="#ff4c3b"/><path d="m248.5 120c-49.706 0-90 40.294-90 90s40.294 90 90 90c33.137 0 60-40.294 60-90s-26.863-90-60-90z" fill="#ff6c4a"/><circle cx="248.5" cy="210" fill="#ffe341" r="30"/></g></svg>