<svg id="Capa_1" enable-background="new 0 0 490.787 490.787" height="512" viewBox="0 0 490.787 490.787" width="512" xmlns="http://www.w3.org/2000/svg"><g><path d="m473.902 265.385 14.689-14.689c2.929-2.929 2.929-7.678 0-10.607l-14.689-14.689 11.915-17.016c2.376-3.393 1.551-8.07-1.842-10.445l-17.016-11.915 8.779-18.827c1.751-3.754.126-8.216-3.628-9.967l-18.827-8.779 5.376-20.065c1.072-4.001-1.302-8.114-5.303-9.186l-20.065-5.376 1.81-20.694c.361-4.126-2.691-7.764-6.818-8.125l-20.694-1.81-1.81-20.694c-.361-4.126-3.999-7.179-8.125-6.818l-20.694 1.81-5.376-20.065c-1.072-4.001-5.185-6.375-9.186-5.303l-20.065 5.376-8.779-18.826c-1.751-3.754-6.213-5.378-9.967-3.628l-18.827 8.779-11.913-17.014c-2.376-3.393-7.052-4.218-10.445-1.842l-17.016 11.915-14.689-14.688c-2.929-2.929-7.678-2.929-10.607 0l-14.689 14.689-17.016-11.916c-3.393-2.376-8.07-1.551-10.445 1.842l-11.915 17.016-18.826-8.779c-3.754-1.751-8.216-.126-9.967 3.628l-8.779 18.826-20.065-5.376c-4.001-1.072-8.114 1.302-9.186 5.303l-5.376 20.065-20.694-1.81c-4.126-.361-7.764 2.691-8.125 6.818l-1.81 20.694-20.694 1.81c-4.126.361-7.179 3.999-6.818 8.125l1.81 20.694-20.065 5.376c-4.001 1.072-6.375 5.185-5.303 9.186l5.376 20.065-18.827 8.779c-3.754 1.751-5.378 6.213-3.628 9.967l8.779 18.826-17.015 11.915c-3.393 2.376-4.218 7.052-1.842 10.445l11.915 17.016-14.688 14.689c-2.929 2.929-2.929 7.678 0 10.607l14.689 14.689-11.916 17.015c-2.376 3.393-1.551 8.07 1.842 10.445l17.016 11.915-8.779 18.827c-1.751 3.754-.126 8.216 3.628 9.967l18.827 8.779-5.376 20.065c-1.072 4.001 1.302 8.114 5.303 9.186l20.065 5.376-1.81 20.694c-.361 4.126 2.691 7.764 6.818 8.125l20.694 1.81 1.81 20.694c.361 4.126 3.999 7.179 8.125 6.818l20.694-1.81 5.376 20.065c1.072 4.001 5.185 6.375 9.186 5.303l20.065-5.376 8.779 18.827c1.751 3.754 6.213 5.378 9.967 3.628l18.827-8.779 11.915 17.016c2.376 3.393 7.052 4.218 10.445 1.842l17.016-11.915 14.689 14.689c2.929 2.929 7.678 2.929 10.607 0l14.689-14.689 17.016 11.915c3.393 2.376 8.07 1.551 10.445-1.842l11.915-17.016 18.827 8.779c3.754 1.751 8.216.126 9.967-3.628l8.779-18.827 20.065 5.376c4.001 1.072 8.113-1.302 9.186-5.303l5.376-20.065 20.694 1.81c4.126.361 7.764-2.691 8.125-6.818l1.81-20.694 20.694-1.81c4.126-.361 7.179-3.999 6.818-8.125l-1.81-20.694 20.065-5.376c4.001-1.072 6.375-5.185 5.303-9.186l-5.376-20.065 18.827-8.779c3.754-1.751 5.378-6.213 3.628-9.967l-8.779-18.827 17.016-11.915c3.393-2.376 4.218-7.052 1.842-10.445z" fill="#ff4c3b"/><circle cx="245.393" cy="245.393" fill="#fff1a0" r="195"/><path d="m245.393 80.393v330c91.127 0 165-73.873 165-165s-73.873-165-165-165z" fill="#ff4c3b"/><path d="m380.393 245.393c0-91.127-60.442-165-135-165-91.127 0-165 73.873-165 165s73.873 165 165 165c74.559 0 135-73.873 135-165z" fill="#ff6c4a"/><g fill="#fff1a0"><path d="m181.754 136.754c-24.853 0-45 20.147-45 45s20.147 45 45 45 45-20.147 45-45-20.148-45-45-45zm0 60c-8.284 0-15-6.716-15-15s6.716-15 15-15 15 6.716 15 15-6.716 15-15 15z"/><path d="m309.033 264.033c-24.853 0-45 20.147-45 45s20.147 45 45 45 45-20.147 45-45-20.147-45-45-45zm0 60c-8.284 0-15-6.716-15-15s6.716-15 15-15 15 6.716 15 15-6.716 15-15 15z"/><path d="m155.237 335.55c-5.858-5.858-5.858-15.355 0-21.213l159.099-159.099c5.858-5.858 15.355-5.858 21.213 0s5.858 15.355 0 21.213l-159.099 159.099c-5.857 5.857-15.355 5.857-21.213 0z"/></g></g></svg>