<svg id="Capa_1" enable-background="new 0 0 497 497" height="512" viewBox="0 0 497 497" width="512" xmlns="http://www.w3.org/2000/svg"><g><path d="m497 93.58v107.57c0 4.142-3.358 7.5-7.5 7.5h-22.5l-60-66.479 60-66.479 25.474 11.003c2.747 1.187 4.526 3.893 4.526 6.885z" fill="#54d8ff"/><path d="m467 75.692v132.958h-158.5l90.001-161.327z" fill="#8de5ff"/><path d="m98.501 47.323-93.903 39.398c-2.785 1.169-4.598 3.895-4.598 6.916v107.513c0 4.142 3.358 7.5 7.5 7.5h181z" fill="#8de5ff"/><path d="m391.001 482h-22.5l-105-223.554 105-223.554 30 12.43v427.178c0 4.142-3.357 7.5-7.5 7.5z" fill="#43b7d9"/><path d="m368.501 34.893v447.107h-262.5c-4.142 0-7.5-3.358-7.5-7.5v-427.177l73.89-30.61h152.22z" fill="#54d8ff"/><path d="m398.5 208.65 14.998 183.35h30l.002-138.35z" fill="#ffe341"/><path d="m398.5 208.65-45 45-.002 138.35h60l.002-138.35z" fill="#fff1a0"/><path d="m338.5 37.5c0 49.706-40.294 90-90 90s-90-40.294-90-90c0-12.426 10.074-22.5 22.5-22.5h135c12.426 0 22.5 10.074 22.5 22.5z" fill="#8de5ff"/><path d="m248.5 97.5c-30.544 0-55.831-22.943-59.534-52.5h119.067c-3.702 29.557-28.989 52.5-59.533 52.5z" fill="#375798"/><path d="m398.501 39.822c-4.142 0-7.5 3.358-7.5 7.5l-.002 168.828 15-.001.002-168.827c0-4.141-3.357-7.5-7.5-7.5z" fill="#ffcd79"/></g></svg>