<svg id="Capa_1" enable-background="new 0 0 497 497" height="512" viewBox="0 0 497 497" width="512" xmlns="http://www.w3.org/2000/svg"><g><path d="m361.964 2.646c-2.537-1.764-5.501-2.646-8.464-2.646v225h60v-123.761c0-40.868-20.378-76.929-51.536-98.593z" fill="#c44e46"/><path d="m357.732 2.646c-1.269-1.764-2.75-2.646-4.232-2.646-2.963 0-5.927.882-8.464 2.646-31.158 21.664-51.536 57.725-51.536 98.593v123.761h90v-123.761c0-40.868-10.189-76.929-25.768-98.593z" fill="#ff4c3b"/><path d="m383.5 407v90h30c16.569 0 30-13.431 30-30v-60z" fill="#b5cdff"/><path d="m263.5 407v60c0 16.569 13.431 30 30 30h90c16.569 0 30-13.431 30-30v-60z" fill="#c6f2ff"/><path d="m398.5 195-60 107h90v-99.5c0-4.142-3.358-7.5-7.5-7.5z" fill="#b5cdff"/><path d="m278.5 202.5v99.5h120v-107h-112.5c-4.142 0-7.5 3.358-7.5 7.5z" fill="#c6f2ff"/><path d="m413.5 287-60 90 90-60v-22.5c0-4.142-3.358-7.5-7.5-7.5z" fill="#a0b4de"/><path d="m413.5 287v75l-150-45v-22.5c0-4.142 3.358-7.5 7.5-7.5z" fill="#b5cdff"/><path d="m413.5 317-60 60 60 60c16.569 0 30-13.431 30-30v-90z" fill="#234b72"/><path d="m263.5 317v90c0 16.569 13.431 30 30 30h120v-120z" fill="#375798"/><path d="m173.5 407v90h30c16.569 0 30-13.431 30-30v-60z" fill="#b5cdff"/><path d="m53.5 407v60c0 16.569 13.431 30 30 30h90c16.569 0 30-13.431 30-30v-60z" fill="#c6f2ff"/><path d="m203.5 197-60 90 90-60v-22.5c0-4.142-3.358-7.5-7.5-7.5z" fill="#a0b4de"/><path d="m203.5 197v75l-150-45v-22.5c0-4.142 3.358-7.5 7.5-7.5z" fill="#b5cdff"/><path d="m203.5 227-60 105 60 105c16.569 0 30-13.431 30-30v-180z" fill="#234b72"/><path d="m53.5 227v180c0 16.569 13.431 30 30 30h120v-210z" fill="#375798"/></g></svg>