<svg id="Capa_1" enable-background="new 0 0 497 497" height="512" viewBox="0 0 497 497" width="512" xmlns="http://www.w3.org/2000/svg"><g><path d="m68.5 112.5v32c0 4.142 3.358 7.5 7.5 7.5h52.5v-47h-52.5c-4.142 0-7.5 3.358-7.5 7.5z" fill="#c6f2ff"/><path d="m398.5 0h-30v497h30c16.568 0 30-13.431 30-30v-437c0-16.569-13.431-30-30-30z" fill="#8b9bbd"/><path d="m398.5 30c0-16.569-13.432-30-30-30h-240c-16.568 0-30 13.431-30 30v437c0 16.569 13.432 30 30 30h240c16.568 0 30-13.431 30-30v-240l-60-98.5z" fill="#a0b4de"/><path d="m368.5 30-60 98.5 60 98.5h30v-197z" fill="#234b72"/><path d="m128.5 30v197h240v-30l-45-68.5 45-68.5v-30z" fill="#375798"/><path d="m368.5 167v30h-30l-45-77z" fill="#ff8c59"/><path d="m158.5 167v30h180v-107z" fill="#ffa951"/><path d="m338.5 60-60 53.5 60 53.5h30v-107z" fill="#47cdbd"/><path d="m158.5 60h180v107h-180z" fill="#54ecd3"/><path d="m263.5 257v210c57.99 0 105-47.01 105-105s-47.01-105-105-105z" fill="#b5cdff"/><path d="m338.5 362c0-57.99-33.579-105-75-105-57.99 0-105 47.01-105 105s47.01 105 105 105c41.421 0 75-47.01 75-105z" fill="#c6f2ff"/><path d="m263.5 317v90c24.853 0 45-20.147 45-45s-20.147-45-45-45z" fill="#a0b4de"/><path d="m278.5 362c0-24.853-6.716-45-15-45-24.853 0-45 20.147-45 45s20.147 45 45 45c8.284 0 15-20.147 15-45z" fill="#b5cdff"/></g></svg>