<svg id="Capa_1" enable-background="new 0 0 497 497" height="512" viewBox="0 0 497 497" width="512" xmlns="http://www.w3.org/2000/svg"><g><path d="m377 347h60v30h-60z" fill="#a0b4de"/><path d="m377 60h60v30h-60z" fill="#a0b4de"/><path d="m60 347h60v30h-60z" fill="#b5cdff"/><path d="m60 60h60v30h-60z" fill="#b5cdff"/><path d="m444.5 497h-15c-4.142 0-7.5-3.358-7.5-7.5v-474.076c0-8.077 6.207-15.027 14.275-15.406 8.614-.406 15.725 6.457 15.725 14.982v474.5c0 4.142-3.358 7.5-7.5 7.5z" fill="#8b9bbd"/><path d="m67.5 497h-15c-4.142 0-7.5-3.358-7.5-7.5v-474.076c0-8.077 6.207-15.027 14.275-15.406 8.614-.406 15.725 6.457 15.725 14.982v474.5c0 4.142-3.358 7.5-7.5 7.5z" fill="#a0b4de"/><path d="m362 30-90 188.5 90 188.5h22.5c4.142 0 7.5-3.358 7.5-7.5v-362c0-4.142-3.358-7.5-7.5-7.5z" fill="#8b9bbd"/><path d="m105 37.5v362c0 4.142 3.358 7.5 7.5 7.5h249.5v-30l-90-158.5 90-158.5v-30h-249.5c-4.142 0-7.5 3.358-7.5 7.5z" fill="#a0b4de"/><path d="m332 60-90 158.5 90 158.5h30v-317z" fill="#ffe341"/><path d="m135 60h197v317h-197z" fill="#fff1a0"/></g></svg>