<svg id="Capa_1" enable-background="new 0 0 497 497" height="512" viewBox="0 0 497 497" width="512" xmlns="http://www.w3.org/2000/svg"><g><path d="m181.418 0h134.164v90h-134.164z" fill="#375798"/><path d="m338.5 362v135h30c16.57 0 30-13.43 30-30v-15z" fill="#234b72"/><path d="m98.5 452v15c0 16.57 13.43 30 30 30h210c16.57 0 30-13.43 30-30v-105z" fill="#375798"/><path d="m368.5 0h-30v422l30 30h30v-422c0-16.57-13.43-30-30-30z" fill="#b5cdff"/><path d="m338.5 0h-22.918c-11.363 0-21.751 6.42-26.833 16.583l-13.416 26.833c-5.082 10.164-15.47 16.584-26.833 16.584s-21.751-6.42-26.833-16.584l-13.416-26.833c-5.082-10.163-15.47-16.583-26.833-16.583h-52.918c-16.569 0-30 13.431-30 30v422h270v-422c0-16.569-13.431-30-30-30z" fill="#c6f2ff"/><g fill="#0e3e4c"><circle cx="248.5" cy="30" r="7.5"/><circle cx="248.5" cy="376" r="7.5"/><circle cx="278.5" cy="376" r="7.5"/><circle cx="218.5" cy="376" r="7.5"/></g><path d="m308.5 256v-120h-30l-15 135z" fill="#47cdbd"/><path d="m278.5 256v-120h-90v120h-30l90 90 90-90z" fill="#54ecd3"/></g></svg>