<svg id="Capa_1" enable-background="new 0 0 504.5 504.5" height="512" viewBox="0 0 504.5 504.5" width="512" xmlns="http://www.w3.org/2000/svg"><g><path d="m339.143 54.5h-39.319l72.425 450h22.5c4.142 0 7.5-3.358 7.5-7.5v-379.393c0-1.989-.79-3.897-2.197-5.303l-55.607-55.607c-1.405-1.407-3.312-2.197-5.302-2.197z" fill="#ffe341"/><path d="m372.25 126.927-72.425-72.427h-134.468c-1.989 0-3.897.79-5.303 2.197l-55.607 55.607c-1.407 1.407-2.197 3.314-2.197 5.303v379.393c0 4.142 3.358 7.5 7.5 7.5h262.5v-30l-30-142.5 30-142.5zm-120 17.573c-16.569 0-30-13.431-30-30s13.431-30 30-30 30 13.431 30 30-13.431 30-30 30z" fill="#fff1a0"/><path d="m342.25 189.5-30 142.5 30 142.5h30v-285z" fill="#ffc649"/><path d="m132.25 189.5h210v285h-210z" fill="#ffe341"/><path d="m215.127 324.862c-7.683 0-15.364-2.924-21.213-8.771-11.696-11.697-11.696-30.73-.001-42.427 11.697-11.697 30.729-11.696 42.427-.001 11.696 11.697 11.696 30.73.001 42.427l-.001.001c-5.849 5.847-13.53 8.771-21.213 8.771zm15.91-14.075h.01zm-15.91-30.903c-3.842 0-7.683 1.462-10.607 4.387-5.848 5.848-5.848 15.365.001 21.214 5.849 5.848 15.365 5.849 21.214-.001 5.848-5.848 5.848-15.365-.001-21.214-2.924-2.923-6.766-4.386-10.607-4.386z" fill="#0e3e4c"/><path d="m289.373 399.108c-7.683 0-15.364-2.924-21.213-8.771-11.696-11.697-11.696-30.73-.001-42.427 11.697-11.697 30.729-11.696 42.427-.001 11.696 11.697 11.696 30.73.001 42.427l-.001.001c-5.849 5.848-13.53 8.771-21.213 8.771zm15.91-14.075h.01zm-15.91-30.903c-3.842 0-7.683 1.462-10.607 4.387-5.848 5.848-5.848 15.365.001 21.214 5.849 5.847 15.365 5.849 21.214-.001 5.848-5.848 5.848-15.365-.001-21.214-2.924-2.923-6.766-4.386-10.607-4.386z" fill="#0e3e4c"/><path d="m198.781 386.012c-2.929-2.929-2.929-7.677 0-10.607l96.874-96.874c2.929-2.929 7.677-2.929 10.607 0 2.929 2.929 2.929 7.677 0 10.607l-96.874 96.874c-2.929 2.929-7.677 2.929-10.607 0z" fill="#0e3e4c"/><g fill="#ff4c3b"><path d="m192.25 197h-15c-4.143 0-7.5-3.357-7.5-7.5s3.357-7.5 7.5-7.5h15c4.143 0 7.5 3.357 7.5 7.5s-3.357 7.5-7.5 7.5z"/><path d="m237.25 197h-15c-4.143 0-7.5-3.357-7.5-7.5s3.357-7.5 7.5-7.5h15c4.143 0 7.5 3.357 7.5 7.5s-3.357 7.5-7.5 7.5z"/><path d="m327.25 197h-15c-4.143 0-7.5-3.357-7.5-7.5s3.357-7.5 7.5-7.5h15c4.143 0 7.5 3.357 7.5 7.5s-3.357 7.5-7.5 7.5z"/><path d="m192.25 482h-15c-4.143 0-7.5-3.357-7.5-7.5s3.357-7.5 7.5-7.5h15c4.143 0 7.5 3.357 7.5 7.5s-3.357 7.5-7.5 7.5z"/><path d="m237.25 482h-15c-4.143 0-7.5-3.357-7.5-7.5s3.357-7.5 7.5-7.5h15c4.143 0 7.5 3.357 7.5 7.5s-3.357 7.5-7.5 7.5z"/><path d="m282.25 482h-15c-4.143 0-7.5-3.357-7.5-7.5s3.357-7.5 7.5-7.5h15c4.143 0 7.5 3.357 7.5 7.5s-3.357 7.5-7.5 7.5z"/><path d="m282.25 197h-15c-4.143 0-7.5-3.357-7.5-7.5s3.357-7.5 7.5-7.5h15c4.143 0 7.5 3.357 7.5 7.5s-3.357 7.5-7.5 7.5z"/><path d="m327.25 482h-15c-4.143 0-7.5-3.357-7.5-7.5s3.357-7.5 7.5-7.5h15c4.143 0 7.5 3.357 7.5 7.5s-3.357 7.5-7.5 7.5z"/><path d="m132.25 212c-4.143 0-7.5-3.357-7.5-7.5v-15c0-4.143 3.357-7.5 7.5-7.5h15c4.143 0 7.5 3.357 7.5 7.5s-3.357 7.5-7.5 7.5h-7.5v7.5c0 4.143-3.357 7.5-7.5 7.5z"/><path d="m132.25 302c-4.143 0-7.5-3.357-7.5-7.5v-15c0-4.143 3.357-7.5 7.5-7.5s7.5 3.357 7.5 7.5v15c0 4.143-3.357 7.5-7.5 7.5z"/><path d="m132.25 347c-4.143 0-7.5-3.357-7.5-7.5v-15c0-4.143 3.357-7.5 7.5-7.5s7.5 3.357 7.5 7.5v15c0 4.143-3.357 7.5-7.5 7.5z"/><path d="m132.25 392c-4.143 0-7.5-3.357-7.5-7.5v-15c0-4.143 3.357-7.5 7.5-7.5s7.5 3.357 7.5 7.5v15c0 4.143-3.357 7.5-7.5 7.5z"/><path d="m132.25 437c-4.143 0-7.5-3.357-7.5-7.5v-15c0-4.143 3.357-7.5 7.5-7.5s7.5 3.357 7.5 7.5v15c0 4.143-3.357 7.5-7.5 7.5z"/><path d="m147.25 482h-15c-4.143 0-7.5-3.357-7.5-7.5v-15c0-4.143 3.357-7.5 7.5-7.5s7.5 3.357 7.5 7.5v7.5h7.5c4.143 0 7.5 3.357 7.5 7.5s-3.357 7.5-7.5 7.5z"/><path d="m372.25 212c-4.143 0-7.5-3.357-7.5-7.5v-7.5h-7.5c-4.143 0-7.5-3.357-7.5-7.5s3.357-7.5 7.5-7.5h15c4.143 0 7.5 3.357 7.5 7.5v15c0 4.143-3.357 7.5-7.5 7.5z"/><path d="m372.25 302c-4.143 0-7.5-3.357-7.5-7.5v-15c0-4.143 3.357-7.5 7.5-7.5s7.5 3.357 7.5 7.5v15c0 4.143-3.357 7.5-7.5 7.5z"/><path d="m132.25 257c-4.143 0-7.5-3.357-7.5-7.5v-15c0-4.143 3.357-7.5 7.5-7.5s7.5 3.357 7.5 7.5v15c0 4.143-3.357 7.5-7.5 7.5z"/><path d="m372.25 257c-4.143 0-7.5-3.357-7.5-7.5v-15c0-4.143 3.357-7.5 7.5-7.5s7.5 3.357 7.5 7.5v15c0 4.143-3.357 7.5-7.5 7.5z"/><path d="m372.25 347c-4.143 0-7.5-3.357-7.5-7.5v-15c0-4.143 3.357-7.5 7.5-7.5s7.5 3.357 7.5 7.5v15c0 4.143-3.357 7.5-7.5 7.5z"/><path d="m372.25 392c-4.143 0-7.5-3.357-7.5-7.5v-15c0-4.143 3.357-7.5 7.5-7.5s7.5 3.357 7.5 7.5v15c0 4.143-3.357 7.5-7.5 7.5z"/><path d="m372.25 437c-4.143 0-7.5-3.357-7.5-7.5v-15c0-4.143 3.357-7.5 7.5-7.5s7.5 3.357 7.5 7.5v15c0 4.143-3.357 7.5-7.5 7.5z"/><path d="m372.25 482h-15c-4.143 0-7.5-3.357-7.5-7.5s3.357-7.5 7.5-7.5h7.5v-7.5c0-4.143 3.357-7.5 7.5-7.5s7.5 3.357 7.5 7.5v15c0 4.143-3.357 7.5-7.5 7.5z"/></g><path d="m252.25 92c-4.143 0-7.5-3.357-7.5-7.5v-77c0-4.143 3.357-7.5 7.5-7.5s7.5 3.357 7.5 7.5v77c0 4.143-3.357 7.5-7.5 7.5z" fill="#ffcd79"/></g></svg>