<svg id="Capa_1" enable-background="new 0 0 504.5 504.5" height="512" viewBox="0 0 504.5 504.5" width="512" xmlns="http://www.w3.org/2000/svg"><g><path d="m339.143 54.5h-39.319l72.425 450h22.5c4.142 0 7.5-3.358 7.5-7.5v-379.393c0-1.989-.79-3.897-2.197-5.303l-55.607-55.607c-1.405-1.407-3.312-2.197-5.302-2.197z" fill="#ffa951"/><path d="m372.25 126.927-72.425-72.427h-134.468c-1.989 0-3.897.79-5.303 2.197l-55.607 55.607c-1.407 1.407-2.197 3.314-2.197 5.303v379.393c0 4.142 3.358 7.5 7.5 7.5h262.5v-30l-30-142.5 30-142.5zm-120 17.573c-16.569 0-30-13.431-30-30s13.431-30 30-30 30 13.431 30 30-13.431 30-30 30z" fill="#ffcd79"/><path d="m342.25 189.5-30 142.5 30 142.5h30v-285z" fill="#fff1a0"/><path d="m132.25 189.5h210v285h-210z" fill="#fff9d6"/><g fill="#ff4c3b"><path d="m192.25 197h-15c-4.142 0-7.5-3.357-7.5-7.5s3.358-7.5 7.5-7.5h15c4.142 0 7.5 3.357 7.5 7.5s-3.358 7.5-7.5 7.5z"/><path d="m237.25 197h-15c-4.142 0-7.5-3.357-7.5-7.5s3.358-7.5 7.5-7.5h15c4.142 0 7.5 3.357 7.5 7.5s-3.358 7.5-7.5 7.5z"/><path d="m327.25 197h-15c-4.142 0-7.5-3.357-7.5-7.5s3.358-7.5 7.5-7.5h15c4.142 0 7.5 3.357 7.5 7.5s-3.358 7.5-7.5 7.5z"/><path d="m192.25 482h-15c-4.142 0-7.5-3.357-7.5-7.5s3.358-7.5 7.5-7.5h15c4.142 0 7.5 3.357 7.5 7.5s-3.358 7.5-7.5 7.5z"/><path d="m237.25 482h-15c-4.142 0-7.5-3.357-7.5-7.5s3.358-7.5 7.5-7.5h15c4.142 0 7.5 3.357 7.5 7.5s-3.358 7.5-7.5 7.5z"/><path d="m282.25 482h-15c-4.142 0-7.5-3.357-7.5-7.5s3.358-7.5 7.5-7.5h15c4.142 0 7.5 3.357 7.5 7.5s-3.358 7.5-7.5 7.5z"/><path d="m282.25 197h-15c-4.142 0-7.5-3.357-7.5-7.5s3.358-7.5 7.5-7.5h15c4.142 0 7.5 3.357 7.5 7.5s-3.358 7.5-7.5 7.5z"/><path d="m327.25 482h-15c-4.142 0-7.5-3.357-7.5-7.5s3.358-7.5 7.5-7.5h15c4.142 0 7.5 3.357 7.5 7.5s-3.358 7.5-7.5 7.5z"/><path d="m132.25 212c-4.142 0-7.5-3.357-7.5-7.5v-15c0-4.143 3.358-7.5 7.5-7.5h15c4.142 0 7.5 3.357 7.5 7.5s-3.358 7.5-7.5 7.5h-7.5v7.5c0 4.143-3.358 7.5-7.5 7.5z"/><path d="m132.25 302c-4.142 0-7.5-3.357-7.5-7.5v-15c0-4.143 3.358-7.5 7.5-7.5s7.5 3.357 7.5 7.5v15c0 4.143-3.358 7.5-7.5 7.5z"/><path d="m132.25 347c-4.142 0-7.5-3.357-7.5-7.5v-15c0-4.143 3.358-7.5 7.5-7.5s7.5 3.357 7.5 7.5v15c0 4.143-3.358 7.5-7.5 7.5z"/><path d="m132.25 392c-4.142 0-7.5-3.357-7.5-7.5v-15c0-4.143 3.358-7.5 7.5-7.5s7.5 3.357 7.5 7.5v15c0 4.143-3.358 7.5-7.5 7.5z"/><path d="m132.25 437c-4.142 0-7.5-3.357-7.5-7.5v-15c0-4.143 3.358-7.5 7.5-7.5s7.5 3.357 7.5 7.5v15c0 4.143-3.358 7.5-7.5 7.5z"/><path d="m147.25 482h-15c-4.142 0-7.5-3.357-7.5-7.5v-15c0-4.143 3.358-7.5 7.5-7.5s7.5 3.357 7.5 7.5v7.5h7.5c4.142 0 7.5 3.357 7.5 7.5s-3.358 7.5-7.5 7.5z"/><path d="m372.25 212c-4.142 0-7.5-3.357-7.5-7.5v-7.5h-7.5c-4.142 0-7.5-3.357-7.5-7.5s3.358-7.5 7.5-7.5h15c4.142 0 7.5 3.357 7.5 7.5v15c0 4.143-3.358 7.5-7.5 7.5z"/><path d="m372.25 302c-4.142 0-7.5-3.357-7.5-7.5v-15c0-4.143 3.358-7.5 7.5-7.5s7.5 3.357 7.5 7.5v15c0 4.143-3.358 7.5-7.5 7.5z"/><path d="m132.25 257c-4.142 0-7.5-3.357-7.5-7.5v-15c0-4.143 3.358-7.5 7.5-7.5s7.5 3.357 7.5 7.5v15c0 4.143-3.358 7.5-7.5 7.5z"/><path d="m372.25 257c-4.142 0-7.5-3.357-7.5-7.5v-15c0-4.143 3.358-7.5 7.5-7.5s7.5 3.357 7.5 7.5v15c0 4.143-3.358 7.5-7.5 7.5z"/><path d="m372.25 347c-4.142 0-7.5-3.357-7.5-7.5v-15c0-4.143 3.358-7.5 7.5-7.5s7.5 3.357 7.5 7.5v15c0 4.143-3.358 7.5-7.5 7.5z"/><path d="m372.25 392c-4.142 0-7.5-3.357-7.5-7.5v-15c0-4.143 3.358-7.5 7.5-7.5s7.5 3.357 7.5 7.5v15c0 4.143-3.358 7.5-7.5 7.5z"/><path d="m372.25 437c-4.142 0-7.5-3.357-7.5-7.5v-15c0-4.143 3.358-7.5 7.5-7.5s7.5 3.357 7.5 7.5v15c0 4.143-3.358 7.5-7.5 7.5z"/><path d="m372.25 482h-15c-4.142 0-7.5-3.357-7.5-7.5s3.358-7.5 7.5-7.5h7.5v-7.5c0-4.143 3.358-7.5 7.5-7.5s7.5 3.357 7.5 7.5v15c0 4.143-3.358 7.5-7.5 7.5z"/></g><path d="m252.25 92c-4.142 0-7.5-3.357-7.5-7.5v-77c0-4.143 3.358-7.5 7.5-7.5s7.5 3.357 7.5 7.5v77c0 4.143-3.358 7.5-7.5 7.5z" fill="#ff8c59"/><path d="m321.963 326.839-24.713-62.339-45 165c41.421 0 75-33.579 75-75 0-9.773-1.882-19.102-5.287-27.661z" fill="#ff6c4a"/><path d="m297.25 354.5v-90l-17.234 4.692-27.766-34.692-27.766 34.692-17.234-4.692-24.713 62.339c-3.404 8.559-5.287 17.888-5.287 27.661 0 41.421 33.579 75 75 75 24.853 0 45-33.579 45-75z" fill="#ff8c59"/><path d="m252.25 399.5c-16.542 0-30-13.458-30-30 0-8.687 3.572-14.968 6.568-18.709l23.432-29.276 23.421 29.263c3.007 3.755 6.579 10.036 6.579 18.723 0 16.541-13.458 29.999-30 29.999z" fill="#fff"/></g></svg>