<svg id="Capa_1" enable-background="new 0 0 497 497" height="512" viewBox="0 0 497 497" width="512" xmlns="http://www.w3.org/2000/svg"><g><path d="m473.5 112.5c0-4.142-3.358-7.5-7.5-7.5h-37.5l-45 332.5 87.803 57.303c1.357-1.357 2.197-3.232 2.197-5.303z" fill="#ff6c4a"/><path d="m383.5 105-60 196 60 196 45-25v-367z" fill="#ff8c59"/><path d="m383.5 497h82.5c2.071 0 3.946-.839 5.303-2.197l-42.803-42.803z" fill="#ff4c3b"/><path d="m293.5 0c-49.626 0-90 40.374-90 90v30h30v-30c0-33.084 26.916-60 60-60s60 26.916 60 60v30h30v-30c0-49.626-40.374-90-90-90z" fill="#ffcd79"/><path d="m23.5 112.5v377c0 4.142 3.358 7.5 7.5 7.5h352.5v-392h-352.5c-4.142 0-7.5 3.358-7.5 7.5z" fill="#ffa951"/><path d="m278.501 225 14.997 183.35h30l.002-138.35z" fill="#fff9d6"/><path d="m278.501 225-44.999 45-.002 138.35h59.998l.003-138.35z" fill="#fff"/><path d="m271.001 135h15v97.5h-15z" fill="#ffcd79"/><path d="m278.5 165c-8.284 0-15-6.716-15-15v-60c0-33.084-26.916-60-60-60s-60 26.916-60 60v60c0 8.284-6.716 15-15 15s-15-6.716-15-15v-60c0-49.626 40.374-90 90-90s90 40.374 90 90v60c0 8.284-6.716 15-15 15z" fill="#fff9d6"/></g></svg>