<svg id="Capa_1" enable-background="new 0 0 497 497" height="512" viewBox="0 0 497 497" width="512" xmlns="http://www.w3.org/2000/svg"><g><path d="m492.054 87.97-241-87.284 215.946 496.076h22.5c4.142 0 7.5-3.358 7.5-7.5v-394.24c0-3.157-1.977-5.977-4.946-7.052z" fill="#ffcd79"/><path d="m251.054.687c-1.65-.598-3.458-.598-5.108 0l-241 87.284c-2.969 1.074-4.946 3.894-4.946 7.051v394.24c0 4.142 3.358 7.5 7.5 7.5h52.5l188.5-60 188.5 60h30v-385.958z" fill="#fff1a0"/><path d="m392 361.762 15 135h30v-120z" fill="#375798"/><path d="m75 361.762-15 15v120h83.5l45-15 45 15h30l45-15 45 15h53.5v-135z" fill="#626a7c"/><path d="m392 331.762 15 45h30v-30z" fill="#c44e46"/><path d="m75 331.762-15 15v30h143.5l45-15 45 15h113.5v-45z" fill="#ff4c3b"/><path d="m392 301.762 15 45h30v-30z" fill="#895050"/><path d="m60 316.762v30h347v-45h-332z" fill="#c44e46"/><path d="m392 271.762 15 45h30v-30z" fill="#c44e46"/><path d="m60 286.762v30h347v-45h-332z" fill="#ff4c3b"/><path d="m407 256.762-30 15 30 15h30v-30z" fill="#895050"/><path d="m60 256.762h347v30h-347z" fill="#c44e46"/><path d="m203.5 346.762h90v30h-90z" fill="#ff6c4a"/><path d="m185.667 146.762h-30l-30 30 30 30h30l62.833-15v-30z" fill="#c6f2ff"/><path d="m407 146.762-30 30 30 30h30v-60z" fill="#c6f2ff"/><path d="m60 146.762h95.667v60h-95.667z" fill="#fff"/><path d="m311.333 146.762-62.833 15v30l62.833 15h95.667v-60z" fill="#fff"/><path d="m281.333 146.762-15 30 15 30h30v-60z" fill="#54d8ff"/><path d="m185.667 146.762h95.667v60h-95.667z" fill="#8de5ff"/><path d="m203.5 406.762-15 15-15-15h-30v90h90v-90z" fill="#ffa951"/><path d="m173.5 406.762h30v45h-30z" fill="#fff9d6"/><path d="m323.5 406.762-15 15-15-15h-30v90h90v-90z" fill="#ffa951"/><path d="m293.5 406.762h30v45h-30z" fill="#fff9d6"/></g></svg>