<svg id="Capa_1" enable-background="new 0 0 512 512" height="512" viewBox="0 0 512 512" width="512" xmlns="http://www.w3.org/2000/svg"><g fill="#6b595c"><path d="m352.482 489.196c-52.228.007-127.244-73.998-185.419-187.115-5.513-10.778-10.663-21.548-15.441-32.245-46.006 90.346-53.552 164.284-27.643 181.552 15.431 9.797 43.685 1.619 77.314-22.496 4.791-3.44 11.453-2.332 14.883 2.452 3.43 4.791 2.332 11.449-2.452 14.883-42.277 30.31-77.334 38.272-101.369 23.047-45.348-30.23-22.358-130.426 28.627-224.672-8.463-21.35-15.35-42.203-20.551-62.045-38.578 7.824-69.147 20.067-86.227 35.645-8.184 7.468-12.498 15.212-12.817 23.016-1.035 16.59 15.014 34.254 45.183 49.964 5.224 2.721 7.253 9.165 4.532 14.386-2.711 5.221-9.155 7.257-14.382 4.535-48.833-25.431-57.75-52.096-56.631-69.986.551-13.475 7.196-26.228 19.741-37.671 19.741-18.007 53.458-31.929 95.704-40.638-8.436-40.322-9.131-75.292-1.015-100.005 5.402-16.455 14.48-27.969 26.984-34.221 15.017-7.794 42.428-9.928 86.976 24.491 4.66 3.601 5.52 10.3 1.918 14.96-3.605 4.656-10.304 5.516-14.96 1.918-27.804-21.488-50.632-29.427-64.255-22.365-7.368 3.685-12.837 11.019-16.398 21.868-7.018 21.377-6.067 52.87 1.73 89.57 20.399-3.188 42.391-5.258 65.455-6.104 64.357-81.979 143.525-142.798 189.384-114.218 23.957 15.965 31.043 48.59 21.333 97.146-1.156 5.775-6.763 9.545-12.548 8.369-5.779-1.156-9.524-6.773-8.369-12.548 5.399-26.994 7.704-61.927-11.97-75.043-25.069-15.629-87.255 20.147-150.187 95.869 10.327.054 20.806.346 31.419.887 145.426 7.418 253.302 56.555 250.931 114.296-2.51 25.298-25.398 47.491-64.491 63.133-5.479 2.184-11.678-.477-13.862-5.946-2.187-5.463.47-11.671 5.94-13.862 30.438-12.175 49.557-28.926 51.143-44.824 1.515-37.301-92.849-84.463-230.746-91.498-16.092-.813-31.96-1.028-47.37-.712-9.121 12.041-18.192 24.901-27.095 38.551-7.562 11.587-14.54 23.06-20.947 34.342 6.373 15.36 13.563 30.942 21.508 46.483 63.291 123.068 144.771 189.924 178.33 172.864 32.685-16.603 28.345-114.951-30.213-234.885-2.584-5.295-.386-11.678 4.905-14.265 5.298-2.57 11.681-.39 14.265 4.905 61.057 125.067 69.957 238.238 20.702 263.26-6.599 3.346-13.828 4.966-21.549 4.972zm-210.958-310.355c3.595 13.438 8.003 27.411 13.17 41.689 4.176-6.971 8.486-13.865 12.921-20.668 5.661-8.671 11.55-17.258 17.631-25.701-15.229 1.012-29.874 2.587-43.722 4.68z"/><path d="m287.324 249.037c3.44 16.513-6.88 33.026-23.393 36.466s-32.338-6.88-35.778-23.393 6.88-33.026 23.393-36.466c15.825-3.44 32.338 6.88 35.778 23.393"/></g></svg>