<svg id="Capa_1" enable-background="new 0 0 512 512" height="512" viewBox="0 0 512 512" width="512" xmlns="http://www.w3.org/2000/svg"><path id="path3" d="m353.957 196.193s-7.547-70.366-77.364-72.32-105.674 52.774-105.674 130.958 39.627 140.733 107.558 140.733c67.932 0 75.48-78.183 75.48-78.183l130.201 7.817s7.666 70.613-46.818 124.486c-54.486 53.869-121.362 62.671-168.066 62.305-46.703-.373-111.457.732-174.076-63.404-62.619-64.135-73.246-126.44-73.246-187.643 0-61.206 11.875-142.285 86.33-203.77 50.602-41.778 101.898-57.172 153.202-57.172 214.178 0 228.563 197.539 228.563 197.539z" fill="#a1b9cd"/></svg>