<svg id="Capa_1" enable-background="new 0 0 511.712 511.712" height="512" viewBox="0 0 511.712 511.712" width="512" xmlns="http://www.w3.org/2000/svg"><g><circle cx="255.855" cy="255.855" fill="#f32735" r="255.845"/><path d="m436.043 74.227-360.358 363.274c.008.008.015.015.023.023 100.326 99.499 262.317 98.829 361.816-1.497 99.493-100.321 98.829-262.299-1.481-361.8z" fill="#9e0f20"/><g fill="#fff"><path d="m244.032 328.068c4.563-.881 9.025-1.774 13.506-2.56.451-.079 1.122.374 1.511.761 6.477 6.436 12.733 13.109 19.439 19.295 5.623 5.187 11.758 9.821 17.678 14.686 8.438 6.934 15.813 14.875 22.16 23.742 11.092 15.496 19.11 32.453 23.562 51.011.391 1.632-.106 3.639-.673 5.309-1.927 5.67-6.014 9.759-10.533 13.417-6.33 5.123-13.421 8.95-20.936 12.052-1.562.645-2.129.336-2.828-1.194-7.737-16.924-15.571-33.804-23.37-50.7-10.573-22.906-21.136-45.815-31.705-68.723-2.461-5.334-4.931-10.664-7.392-15.998-.152-.325-.258-.669-.419-1.098z"/><path d="m419.961 106.625c-20.877-14.844-44.468-26.053-69.862-32.705l-66.584 96.441c18.167 3.115 32.554 10.59 40.357 15.101 1.202.549 1.942.45 2.911-.382z"/><path d="m322.666 68.633c-8.785-1.102-17.732-1.673-26.809-1.673-16.152 0-31.893 1.802-47.041 5.21l-27.36 101.795c2.978-.664 20.671-7.368 45.983-5.681 1.22.074 1.853-.363 2.421-1.427z"/><path d="m170.439 204.677c4.95-4.837 20.277-18.506 39.177-26.352.88-.365 1.751-.564 1.973-1.977l17.005-98.567c-24.032 7.966-46.215 20.079-65.712 35.497-.009.039-.02.078-.021.115z"/><path d="m164.73 209.205c.129.607-.109 1.514-.519 1.982-7.923 9.029-16.327 22.346-20.349 31.261l-33.407-67.216c-.242-.486-.386-.911-.387-1.333.866-1.472 1.749-2.933 2.648-4.383 5.314-7.547 10.479-15.207 16.114-22.506 4.183-5.419 9.219-10.179 13.878-15.23 1.115-1.209 2.249-2.4 3.703-3.949z"/><path d="m133.625 276.477c1.012-7.987 3.723-17.894 6.778-25.705.586-1.499-.002-2.387-.787-3.44l-39.905-53.326c-.286.538-.469.843-.616 1.164-.382.835-.757 1.673-1.128 2.512-5.001 11.528-9.038 23.576-12.011 36.036.099.427.321.866.583 1.114z"/><path d="m133.203 314.894c-1.716-10.603-.946-25.643-.759-28.883.076-1.32-.363-2.065-1.526-2.781l-48.668-30.116c-1.489 10.3-2.263 20.83-2.263 31.539 0 3.99.11 7.954.321 11.892.184.104.4.197.654.284z"/><path d="m141.664 351.268c1.292-.311 2.045-.111 2.76 1.144 2.819 4.949 3.375 7.2 9.197 16.199-15.041 8.035-30.105 16.057-45.126 24.079-5.468-9.605-10.228-19.669-14.213-30.118z"/><path d="m140.693 343.827c-.171-.66-4.199-12.17-5.465-18.133-.081-.566-1.017-1.312-1.668-1.451l-51.68-10.723c1.383 10.48 3.504 20.728 6.316 30.685.051 0 .101 0 .154-.001z"/><path d="m261.388 386.38c-.248-.533-1.018-1.095-1.599-1.161-11.421-1.283-22.833-2.69-34.283-3.654-8.012-.675-16.063-.191-24.034.938-5.643.799-11.167 2.14-16.227 4.915-2.972 1.63-5.186 3.816-6.532 7.116-3.91 9.584-8.09 19.057-12.168 28.572-2.117 4.94-4.243 9.875-6.499 15.125.531-.159.739-.215.943-.283 11.098-3.724 22.598-4.792 34.19-4.802 6.913-.006 13.84.485 20.736 1.048 6.76.552 13.517 1.291 20.225 2.286 8.729 1.295 17.409 2.924 26.302 4.442 4.181-7.532 8.469-15.235 12.711-22.964.219-.399.214-1.094.021-1.519-4.558-10.036-9.143-20.061-13.786-30.059zm-65.335 7.917c-.904.277-1.855.963-2.41 1.73-6.139 8.48-12.204 17.012-18.28 25.537-.166.232-.213.549-.316.826-.159-.137-.317-.273-.476-.41 1.054-2.246 2.093-4.499 3.165-6.735 3.544-7.393 7.08-14.79 10.688-22.152.328-.67 1.063-1.385 1.756-1.595 7.32-2.216 14.795-3.565 22.43-4.223 5.658-.487 11.228-.323 16.783.767.584.115 1.152.312 1.727.471-12.215-.882-23.672 2.293-35.067 5.784z"/><path d="m218.983 298.448c6.622-4.432 13.153-8.999 19.732-13.496 26.458-18.087 52.919-36.169 79.38-54.252l29.478-20.23c-1.532-1.407-2.872-2.711-4.291-3.923-8.368-7.152-17.346-13.409-27.083-18.579-15.199-8.069-31.281-13.275-48.486-14.412-8.867-.586-17.768-.115-26.57 1.395-13.235 2.27-25.794 6.505-37.645 12.844-17.508 9.364-31.993 22.155-43.47 38.337-13.227 18.649-20.566 39.467-22.448 62.194-.754 9.112-.33 18.239 1.085 27.28 1.812 11.578 5.087 22.74 10.023 33.389 5.483 11.828 12.678 22.512 21.582 32.03 2.164 2.313 4.508 4.457 6.83 6.739 3.43-4.769 8.09-7.369 13.248-9.202 9.244-3.286 18.91-3.872 28.577-4.088 5.38-.12 10.787.253 16.161.676 6.096.48 12.17 1.237 18.248 1.927 2.881.327 5.747.779 8.896 1.212-8.915-18.719-17.69-37.146-26.464-55.568-4.549.897-8.851 1.746-13.255 2.615-.165-.446-.309-.724-.37-1.019-1.544-7.398-2.992-14.818-4.68-22.183-.423-1.852.051-2.702 1.522-3.686zm-12.256-91.793c-19.137 15.906-34.453 34.596-42.375 58.615-2.208 6.694-3.47 13.565-4.089 20.596-1.696 19.27 2.687 37.31 11.084 54.465 3.089 6.311 6.929 12.255 10.426 18.367.235.41.465.822.846 1.496-2.607 1.328-5.082 2.65-7.618 3.845-.865.408-1.743.571-2.448-.664-7.339-12.857-13.374-26.258-17.035-40.647-2.546-10.006-3.986-20.188-3.595-30.512.654-17.263 5.493-33.311 14.62-48.043 7.971-12.867 18.136-23.724 29.912-33.151 10.04-8.037 20.834-14.852 32.507-20.264.534-.248 1.083-.466 1.625-.697-8.45 4.898-16.402 10.395-23.86 16.594z"/><path d="m373.898 288.158c1.483-.287 1.623-.9 1.419-2.114l-12.855-79.342-138.795 95.25c-.474.43-.936 1.241-.821 1.695 1.136 4.462 2.428 8.884 3.666 13.293.313.016.503.063.676.029z"/></g></g></svg>