<svg id="Capa_1" enable-background="new 0 0 512.039 512.039" height="512" viewBox="0 0 512.039 512.039" width="512" xmlns="http://www.w3.org/2000/svg"><circle cx="256.019" cy="256" fill="#fff" r="235"/><g><path d="m255.543 2.684c-66.957.125-131.146 26.753-178.518 74.06-99.012 98.856-99.138 259.263-.281 358.269 98.855 99.012 259.263 99.138 358.269.281 99.012-98.857 99.138-259.263.281-358.269-47.637-47.712-112.327-74.467-179.751-74.341zm2.448 1.08c64.337.52 128.161 25.558 176.542 74.019 98.438 98.592 98.313 258.319-.278 356.755-49.296 49.219-129.159 49.157-178.378-.139s-49.157-129.159.138-178.378c49.822-49.743 49.885-130.458.139-180.278-39.808-39.869-101.396-49.973-150.994-23.249 45.534-33.857 99.524-49.162 152.831-48.73zm-204.86 139.829h42.939c10.673 45.243 27.056 85.252 43.744 124.984 17.068-44.362 35.642-87.218 59.309-124.984h42.939c-52.522 104.517-109.697 176.113-25.763 268.366h-42.939c-51.062-82.917-88.496-158.518-120.229-268.366z"/><path d="m256.026 512.039c-.071 0-.135 0-.206 0-68.386-.053-132.658-26.735-180.975-75.129-48.318-48.391-74.898-112.703-74.845-181.089s26.735-132.658 75.128-180.975c23.825-23.792 51.677-42.399 82.783-55.303 31.105-12.905 63.951-19.48 97.626-19.543 33.941-.044 66.992 6.475 98.327 19.436 31.334 12.959 59.371 31.697 83.33 55.693 48.318 48.391 74.897 112.703 74.844 181.089s-26.735 132.657-75.129 180.976c-48.34 48.267-112.576 74.845-180.883 74.845zm-149.601-457.198c-9.643 7.202-18.836 15.147-27.503 23.802-47.38 47.305-73.502 110.23-73.554 177.182s25.971 129.916 73.275 177.292c47.305 47.379 110.229 73.502 177.182 73.554h.201c51.172.001 100.001-15.23 141.319-43.555-16.225 7.196-33.927 10.979-52.207 10.979-.036 0-.068 0-.104 0-34.408-.027-66.746-13.451-91.056-37.8-24.311-24.349-37.686-56.708-37.659-91.117s13.451-66.746 37.8-91.056c23.589-23.552 36.594-54.88 36.62-88.213.025-33.334-12.931-64.682-36.484-88.269-39.153-39.214-99.939-48.582-147.821-22.783zm57.842-19.954c6.787 0 13.626.534 20.479 1.609 27.538 4.32 53.573 17.586 73.31 37.352 24.565 24.602 38.079 57.298 38.052 92.065-.027 34.768-13.592 67.443-38.195 92.008-23.335 23.298-36.2 54.288-36.225 87.262-.026 32.974 12.792 63.985 36.09 87.32 23.298 23.334 54.288 36.199 87.262 36.225h.1c32.939.001 63.909-12.813 87.22-36.09 47.176-47.101 73.185-109.757 73.238-176.422.051-66.665-25.861-129.361-72.963-176.537-46.613-46.69-108.644-72.698-174.666-73.232-46.43-.365-90.439 11.076-128.662 33.324 11.328-3.243 23.06-4.884 34.96-4.884zm58.1 379.756h-50.507l-.786-1.277c-48.395-78.588-87.411-154.413-120.521-269.028l-.99-3.428h48.631l.488 2.067c9.821 41.63 24.357 78.54 41.032 118.42 13.908-35.742 32.687-80.217 57.135-119.229l.788-1.258h48.776l-1.954 3.889c-6.672 13.278-13.413 26.013-19.932 38.329-22.53 42.565-41.987 79.325-46.943 115.715-5.38 39.508 7.553 74.879 40.699 111.311zm-47.508-5.368h35.465c-69.278-79.913-34.436-145.731 9.459-228.659 5.866-11.082 11.912-22.505 17.917-34.339h-37.089c-25.254 40.624-44.401 87.157-58.293 123.263l-2.396 6.227-2.583-6.151c-17.566-41.821-32.975-80.032-43.389-123.339h-37.245c32.548 111.503 70.835 186.025 118.154 262.998z"/></g><path d="m293.019 110.72c78.194 85.936 24.928 152.64-24 250h40c22.047-35.179 39.35-75.102 55.25-116.43 15.546 37.01 30.807 74.282 40.75 116.43h40c-29.561-102.33-64.433-172.76-112-250z"/></svg>