<svg id="Capa_1" enable-background="new 0 0 512 512" height="512" viewBox="0 0 512 512" width="512" xmlns="http://www.w3.org/2000/svg" xmlns:xlink="http://www.w3.org/1999/xlink"><linearGradient id="SVGID_1_" gradientUnits="userSpaceOnUse" x1="256" x2="256" y1="1.326" y2="510.674"><stop offset="0" stop-color="#fff"/><stop offset="1" stop-color="#fff" stop-opacity="0"/></linearGradient><g><path d="m73.973 402.139c-6.117 5.227-14.655 6.568-22.08 3.467l-38.773-16.267c-7.907-3.299-13.074-11.007-13.12-19.574v-227.52c.046-8.567 5.213-16.275 13.12-19.573l38.773-16c7.425-3.101 15.963-1.76 22.08 3.467l8.693 7.2c-5.286-3.8-12.651-2.595-16.45 2.69-1.447 2.013-2.223 4.431-2.216 6.91v258.133c-.016 6.51 5.247 11.8 11.757 11.816 2.479.006 4.897-.769 6.91-2.216z" fill="#5e1b8d"/><path d="m13.12 389.339c-7.907-3.299-13.074-11.007-13.12-19.574v-1.76c.073 6.804 5.647 12.26 12.451 12.188 3.373-.036 6.583-1.453 8.883-3.921l330.666-365.6c9.596-9.548 24.161-12.025 36.373-6.187l105.493 50.773c11.09 5.332 18.139 16.55 18.134 28.854v1.227c-.01-11.164-9.067-20.206-20.231-20.196-4.66.004-9.176 1.618-12.783 4.569l-396.32 324.96-8.693 7.467c-6.117 5.227-14.655 6.568-22.08 3.467z" fill="#7c30b3"/><path d="m13.12 122.672c-7.907 3.298-13.074 11.006-13.12 19.573v1.76c.073-6.804 5.647-12.26 12.451-12.188 3.373.036 6.583 1.453 8.883 3.921l330.666 365.601c9.596 9.548 24.161 12.025 36.373 6.187l105.493-50.773c11.089-5.332 18.139-16.549 18.133-28.853v-1.227c-.01 11.164-9.067 20.206-20.231 20.196-4.66-.004-9.176-1.618-12.783-4.569l-396.32-324.96-8.693-7.467c-6.171-5.137-14.704-6.374-22.08-3.2z" fill="#954bcb"/><path d="m388.373 507.525c-12.213 5.839-26.778 3.361-36.373-6.187 7.358 7.305 19.244 7.262 26.549-.096 3.481-3.506 5.439-8.243 5.451-13.184v-464c.035-10.368-8.341-18.802-18.709-18.837-4.978-.017-9.758 1.944-13.291 5.451 9.596-9.548 24.161-12.025 36.373-6.187l105.493 50.72c11.089 5.332 18.139 16.549 18.133 28.853v343.893c.005 12.304-7.044 23.522-18.133 28.853z" fill="#c37af4"/><path clip-rule="evenodd" d="m367.413 509.872c7.051 1.609 14.439.782 20.96-2.347l105.493-50.72c11.089-5.332 18.139-16.549 18.133-28.853v-343.893c.005-12.304-7.044-23.522-18.133-28.853l-105.493-50.721c-7.464-3.588-16.029-4.142-23.893-1.547-4.703 1.576-8.976 4.223-12.48 7.733l-170.027 188.054-99.307-81.387-8.693-7.467c-5.307-4.537-12.498-6.191-19.253-4.427-.975.215-1.923.537-2.827.96l-38.773 16.268c-7.399 3.055-12.465 9.995-13.12 17.973v1.6 227.52 1.6c.655 7.978 5.721 14.918 13.12 17.973l38.773 16c.904.423 1.852.745 2.827.96 6.755 1.764 13.947.111 19.253-4.427l8.693-7.2 99.307-81.387 170.027 188.055c4.238 4.23 9.578 7.187 15.413 8.533zm16.587-362.24-132.213 108.373 132.213 108.374zm-320 35.147 66.187 73.227-66.187 73.226z" fill="url(#SVGID_1_)" fill-rule="evenodd" opacity=".25"/></g></svg>