<?xml version="1.0" encoding="UTF-8"?>
<!-- Generator: Adobe Illustrator 25.4.1, SVG Export Plug-In . SVG Version: 6.00 Build 0)  -->
<svg xmlns="http://www.w3.org/2000/svg" xmlns:xlink="http://www.w3.org/1999/xlink" version="1.1" id="Capa_1" x="0px" y="0px" viewBox="0 0 511.804 511.804" style="enable-background:new 0 0 511.804 511.804;" xml:space="preserve" width="512" height="512">
<g>
	<linearGradient id="SVGID_1_" gradientUnits="userSpaceOnUse" x1="450.8429" y1="557.4579" x2="342.0952" y2="365.4581">
		<stop offset="0" style="stop-color:#DB8E72"/>
		<stop offset="0" style="stop-color:#DB8E72"/>
		<stop offset="0.41" style="stop-color:#BC4839"/>
		<stop offset="0.99" style="stop-color:#8D2927"/>
		<stop offset="1" style="stop-color:#8D2927"/>
	</linearGradient>
	<polygon style="fill-rule:evenodd;clip-rule:evenodd;fill:url(#SVGID_1_);" points="106.09,511.069 482.898,485.535    511.27,101.854 348.829,326.192  "/>
	
		<linearGradient id="SVGID_00000132793009496560698810000013014113191734931344_" gradientUnits="userSpaceOnUse" x1="503.6876" y1="397.4494" x2="364.4685" y2="304.0249">
		<stop offset="0" style="stop-color:#85392A"/>
		<stop offset="0" style="stop-color:#85392A"/>
		<stop offset="0.99" style="stop-color:#8B382D"/>
		<stop offset="1" style="stop-color:#8B382D"/>
	</linearGradient>
	
		<polygon style="fill-rule:evenodd;clip-rule:evenodd;fill:url(#SVGID_00000132793009496560698810000013014113191734931344_);" points="   362.361,377.739 483.518,485.277 450.98,260.717  "/>
	
		<linearGradient id="SVGID_00000145049247425622854760000015848989065803445143_" gradientUnits="userSpaceOnUse" x1="392.299" y1="563.4387" x2="253.0794" y2="470.0139">
		<stop offset="0" style="stop-color:#85392A"/>
		<stop offset="0" style="stop-color:#85392A"/>
		<stop offset="0.99" style="stop-color:#8B382D"/>
		<stop offset="1" style="stop-color:#8B382D"/>
	</linearGradient>
	
		<polygon style="fill-rule:evenodd;clip-rule:evenodd;fill:url(#SVGID_00000145049247425622854760000015848989065803445143_);" points="   105.625,510.733 483.957,485.277 245.597,466.566  "/>
	
		<linearGradient id="SVGID_00000072964307086776107340000011910094789206253734_" gradientUnits="userSpaceOnUse" x1="96.6849" y1="330.3454" x2="118.3026" y2="470.8387">
		<stop offset="0" style="stop-color:#FFFFFF"/>
		<stop offset="0" style="stop-color:#FFFFFF"/>
		<stop offset="0.23" style="stop-color:#CE8A6F"/>
		<stop offset="0.46" style="stop-color:#BD593D"/>
		<stop offset="0.99" style="stop-color:#A60003"/>
		<stop offset="1" style="stop-color:#A60003"/>
	</linearGradient>
	
		<polygon style="fill-rule:evenodd;clip-rule:evenodd;fill:url(#SVGID_00000072964307086776107340000011910094789206253734_);" points="   34.476,343.729 23.311,435.874 106.09,511.069 198.993,412.862 165.506,315.713  "/>
	
		<linearGradient id="SVGID_00000052096806566829645620000017475625785536465834_" gradientUnits="userSpaceOnUse" x1="267.3403" y1="199.6601" x2="275.7584" y2="351.1975">
		<stop offset="0" style="stop-color:#FFFFFF"/>
		<stop offset="0" style="stop-color:#FFFFFF"/>
		<stop offset="0.23" style="stop-color:#CC8A6B"/>
		<stop offset="0.56" style="stop-color:#A63B2D"/>
		<stop offset="0.99" style="stop-color:#972F26"/>
		<stop offset="1" style="stop-color:#972F26"/>
	</linearGradient>
	
		<polygon style="fill-rule:evenodd;clip-rule:evenodd;fill:url(#SVGID_00000052096806566829645620000017475625785536465834_);" points="   150.749,310.751 164.76,315.23 229.996,398.489 362.335,378.386 393.228,255.91 307.545,163.776  "/>
	
		<linearGradient id="SVGID_00000109011188220585870620000006035467255564018622_" gradientUnits="userSpaceOnUse" x1="381.1409" y1="70.71" x2="408.7328" y2="189.6177">
		<stop offset="0" style="stop-color:#FFFFFF"/>
		<stop offset="0" style="stop-color:#FFFFFF"/>
		<stop offset="0.18" style="stop-color:#C97D5F"/>
		<stop offset="0.4" style="stop-color:#AC432F"/>
		<stop offset="0.99" style="stop-color:#972F26"/>
		<stop offset="1" style="stop-color:#972F26"/>
	</linearGradient>
	
		<polygon style="fill-rule:evenodd;clip-rule:evenodd;fill:url(#SVGID_00000109011188220585870620000006035467255564018622_);" points="   310.13,179.179 415.689,211.003 499.619,166.8 462.176,84.848 351.403,45.746  "/>
	
		<linearGradient id="SVGID_00000033328799326238408210000012819932900987020972_" gradientUnits="userSpaceOnUse" x1="312.9054" y1="41.2694" x2="415.491" y2="-10.0235">
		<stop offset="0" style="stop-color:#FFFFFF"/>
		<stop offset="0" style="stop-color:#FFFFFF"/>
		<stop offset="0.54" style="stop-color:#AC3F2F"/>
		<stop offset="0.99" style="stop-color:#A32825"/>
		<stop offset="1" style="stop-color:#A32825"/>
	</linearGradient>
	
		<polygon style="fill-rule:evenodd;clip-rule:evenodd;fill:url(#SVGID_00000033328799326238408210000012819932900987020972_);" points="   288.136,1.94 430.305,2.586 420.035,39.419 352.318,45.683 343.133,50.759  "/>
	
		<linearGradient id="SVGID_00000060723312774838880690000001343995772967962539_" gradientUnits="userSpaceOnUse" x1="10.0893" y1="294.07" x2="18.5326" y2="378.606">
		<stop offset="0" style="stop-color:#FFFFFF"/>
		<stop offset="0" style="stop-color:#FFFFFF"/>
		<stop offset="0.31" style="stop-color:#BE5D41"/>
		<stop offset="0.99" style="stop-color:#A63B2B"/>
		<stop offset="1" style="stop-color:#A63B2B"/>
	</linearGradient>
	
		<polygon style="fill-rule:evenodd;clip-rule:evenodd;fill:url(#SVGID_00000060723312774838880690000001343995772967962539_);" points="   6.978,263.224 0,409.166 24.596,387.212 34.973,344.967 36.518,342.566  "/>
	<path style="fill-rule:evenodd;clip-rule:evenodd;fill:#FFFFFF;" d="M5.014,260.717l29.721,84.304l129.143-28.971l147.441-137.026   l41.609-132.167L287.413,0.596L176.025,42.282c-35.096,32.641-103.196,97.226-105.651,98.44   C67.944,141.963,25.405,222.364,5.014,260.717z"/>
	
		<linearGradient id="SVGID_00000096026200830625106780000016770052108959123102_" gradientUnits="userSpaceOnUse" x1="-47.9689" y1="401.4613" x2="348.9307" y2="-6.6625">
		<stop offset="0" style="stop-color:#BD0012"/>
		<stop offset="0" style="stop-color:#BD0012"/>
		<stop offset="0.07" style="stop-color:#FFFFFF"/>
		<stop offset="0.17" style="stop-color:#FFFFFF"/>
		<stop offset="0.27" style="stop-color:#AF4E39"/>
		<stop offset="0.33" style="stop-color:#81332A"/>
		<stop offset="0.46" style="stop-color:#953B27"/>
		<stop offset="0.72" style="stop-color:#9D3625"/>
		<stop offset="0.99" style="stop-color:#BC4324"/>
		<stop offset="1" style="stop-color:#BC4324"/>
	</linearGradient>
	<path style="fill-rule:evenodd;clip-rule:evenodd;fill:url(#SVGID_00000096026200830625106780000016770052108959123102_);" d="   M109.372,109.271c76.059-75.413,174.112-119.968,211.741-82.003c37.603,37.965-2.274,130.229-78.334,205.616   C166.721,308.27,69.883,355.281,32.279,317.316C-5.35,279.377,33.313,184.658,109.372,109.271z"/>
	
		<linearGradient id="SVGID_00000142861458541111514500000002302204549243626675_" gradientUnits="userSpaceOnUse" x1="256.0994" y1="442.7913" x2="136.6772" y2="413.3169">
		<stop offset="0" style="stop-color:#873229"/>
		<stop offset="0" style="stop-color:#873229"/>
		<stop offset="0.54" style="stop-color:#8E3128"/>
		<stop offset="0.99" style="stop-color:#972F2F"/>
		<stop offset="1" style="stop-color:#972F2F"/>
	</linearGradient>
	<path style="fill-rule:evenodd;clip-rule:evenodd;fill:url(#SVGID_00000142861458541111514500000002302204549243626675_);" d="   M106.09,511.069l58.95-196.054l196.209,63.034C290.307,444.572,211.534,501.171,106.09,511.069z"/>
	
		<linearGradient id="SVGID_00000134943393662646823790000000964131219521993120_" gradientUnits="userSpaceOnUse" x1="461.3833" y1="299.1312" x2="355.1799" y2="203.944">
		<stop offset="0" style="stop-color:#7F382F"/>
		<stop offset="0" style="stop-color:#7F382F"/>
		<stop offset="0.99" style="stop-color:#913027"/>
		<stop offset="1" style="stop-color:#913027"/>
	</linearGradient>
	<path style="fill-rule:evenodd;clip-rule:evenodd;fill:url(#SVGID_00000134943393662646823790000000964131219521993120_);" d="   M311.577,178.636l50.37,199.517c59.261-62.31,112.448-129.298,138.499-212.155L311.577,178.636z"/>
	
		<linearGradient id="SVGID_00000158713927256365815520000014175557310142045845_" gradientUnits="userSpaceOnUse" x1="500.4021" y1="124.4841" x2="447.4991" y2="67.9269">
		<stop offset="0" style="stop-color:#7C3930"/>
		<stop offset="0" style="stop-color:#7C3930"/>
		<stop offset="0.99" style="stop-color:#92372D"/>
		<stop offset="1" style="stop-color:#92372D"/>
	</linearGradient>
	<path style="fill-rule:evenodd;clip-rule:evenodd;fill:url(#SVGID_00000158713927256365815520000014175557310142045845_);" d="   M499.929,167.006c20.158-60.837,24.81-148.113-70.244-164.317l-77.998,43.082L499.929,167.006z"/>
	<path style="fill-rule:evenodd;clip-rule:evenodd;fill:#A93527;" d="M0,408.287c2.791,100.405,75.232,101.904,106.09,102.782   L34.789,344.836L0,408.287z"/>
	
		<radialGradient id="SVGID_00000116916114043281379320000009777236966588848548_" cx="371.7163" cy="205.7725" r="130.1506" gradientUnits="userSpaceOnUse">
		<stop offset="0" style="stop-color:#972F26"/>
		<stop offset="0" style="stop-color:#972F26"/>
		<stop offset="0.99" style="stop-color:#7F352D"/>
		<stop offset="1" style="stop-color:#7F352D"/>
	</radialGradient>
	<path style="fill-rule:evenodd;clip-rule:evenodd;fill:url(#SVGID_00000116916114043281379320000009777236966588848548_);" d="   M311.861,178.946c45.537,27.989,137.31,84.2,139.171,85.234c2.895,1.628,39.567-61.845,47.889-97.717L311.861,178.946z"/>
	
		<radialGradient id="SVGID_00000142142396998619923590000010737757603810686109_" cx="191.4792" cy="377.2742" r="173.0191" gradientUnits="userSpaceOnUse">
		<stop offset="0" style="stop-color:#943026"/>
		<stop offset="0" style="stop-color:#943026"/>
		<stop offset="0.99" style="stop-color:#81352E"/>
		<stop offset="1" style="stop-color:#81352E"/>
	</radialGradient>
	<path style="fill-rule:evenodd;clip-rule:evenodd;fill:url(#SVGID_00000142142396998619923590000010737757603810686109_);" d="   M164.963,315.016l78.98,152.377c46.7-25.327,83.27-56.185,116.764-89.24L164.963,315.016z"/>
	
		<linearGradient id="SVGID_00000020374709127330175350000006136508099576512940_" gradientUnits="userSpaceOnUse" x1="70.4656" y1="514.2029" x2="26.3589" y2="364.5631">
		<stop offset="0" style="stop-color:#884334"/>
		<stop offset="0" style="stop-color:#884334"/>
		<stop offset="0.43" style="stop-color:#91342D"/>
		<stop offset="0.99" style="stop-color:#9D322D"/>
		<stop offset="1" style="stop-color:#9D322D"/>
	</linearGradient>
	<path style="fill-rule:evenodd;clip-rule:evenodd;fill:url(#SVGID_00000020374709127330175350000006136508099576512940_);" d="   M34.502,344.814L23.311,478.066c21.115,28.842,52.179,34.967,82.65,32.719C83.916,455.918,37.862,342.591,34.502,344.814z"/>
	
		<linearGradient id="SVGID_00000049197688447593281000000003839323834756650113_" gradientUnits="userSpaceOnUse" x1="399.6611" y1="25.9193" x2="496.3181" y2="68.5854">
		<stop offset="0" style="stop-color:#9D3225"/>
		<stop offset="0" style="stop-color:#9D3225"/>
		<stop offset="0.44" style="stop-color:#8A352D"/>
		<stop offset="0.99" style="stop-color:#7D4134"/>
		<stop offset="1" style="stop-color:#7D4134"/>
	</linearGradient>
	<path style="fill-rule:evenodd;clip-rule:evenodd;fill:url(#SVGID_00000049197688447593281000000003839323834756650113_);" d="   M351.222,46.107l156.9,22.019c-8.374-35.484-34.089-58.382-77.92-65.541L351.222,46.107z"/>
</g>















</svg>
