<?xml version="1.0" encoding="UTF-8"?>
<!-- Generator: Adobe Illustrator 25.4.1, SVG Export Plug-In . SVG Version: 6.00 Build 0)  -->
<svg xmlns="http://www.w3.org/2000/svg" xmlns:xlink="http://www.w3.org/1999/xlink" version="1.1" id="Capa_1" x="0px" y="0px" viewBox="0 0 512 512" style="enable-background:new 0 0 512 512;" xml:space="preserve" width="512" height="512">
<g>
	<path style="fill-rule:evenodd;clip-rule:evenodd;fill:#3F0502;" d="M94.982,190.518c4.466,6.156,42.126,17.768,98.301,29.862   c56.175,10.767,114.596,53.279,160.029,40.17c30.731-8.884,64.069-88.041,64.069-99.798v-1.207c0-8.208-6.156-14.798-16.609-20.278   c-42.85-21.896-50.961-29.959-66.846-25.589C251.462,136.443,105.869,124.807,94.982,190.518z"/>
	<path style="fill-rule:evenodd;clip-rule:evenodd;fill:#3F0502;" d="M94.982,351.247c4.466,6.252,42.126,17.768,98.301,29.886   c62.766,11.443,117.348,48.74,162.805,35.608c30.731-8.884,61.293-83.479,61.293-95.259v-1.159c0-8.184-6.156-14.798-16.609-20.254   c-32.686-17.381-75.874-36.525-91.735-32.155C226.428,290.63,116.008,295.627,94.982,351.247z"/>
	<path style="fill-rule:evenodd;clip-rule:evenodd;fill:#FF311C;" d="M355.967,31.069C280.02,53.013,159.534,65.397,94.619,65.397   l0,0V189.36c0.021,0.426,0.182,0.834,0.459,1.159c44.298,0,181.055-14.484,263.568-37.177c14.39-3.663,28.5-8.35,42.222-14.026   c10.091-4.538,16.609-9.318,16.609-14.291V0C417.381,11.781,386.698,22.209,355.967,31.069z"/>
	<path style="fill-rule:evenodd;clip-rule:evenodd;fill:#FF311C;" d="M355.967,191.822   c-45.457,13.108-106.798,22.861-162.684,28.558c-37.515,3.838-72.567,5.842-98.663,5.842l0,0v123.866   c0.021,0.426,0.182,0.834,0.459,1.159c44.298,0,181.055-14.484,263.568-37.153c14.387-3.673,28.497-8.36,42.222-14.026   c10.091-4.563,16.609-9.318,16.609-14.291V160.753C417.381,172.509,386.698,182.938,355.967,191.822z"/>
	<path style="fill-rule:evenodd;clip-rule:evenodd;fill:#FF311C;" d="M355.967,352.671   c-45.457,13.108-106.798,22.837-162.684,28.558c-37.563,3.838-72.663,5.842-98.76,5.842V512c43.84,0,181.297-14.364,264.027-37.153   c30.49-8.401,58.831-17.961,58.831-28.341V321.482C417.381,333.359,386.698,343.691,355.967,352.671z"/>
</g>















</svg>
