<svg id="Layer_1" enable-background="new 0 0 497 497" height="512" viewBox="0 0 497 497" width="512" xmlns="http://www.w3.org/2000/svg"><g><path d="m381.033 33.133c-.001-18.299-14.835-33.133-33.134-33.133h-198.799c-18.299 0-33.133 14.834-33.133 33.133v430.733c0 18.299 14.834 33.133 33.133 33.133h198.8c18.299 0 33.133-14.834 33.133-33.134z" fill="#5b7fa0"/><path d="m381.033 33.133c0-18.299-14.835-33.133-33.134-33.133h-23c18.299 0 33.133 14.834 33.133 33.133l.001 430.733c0 18.299-14.834 33.134-33.133 33.134h23c18.299 0 33.133-14.835 33.133-33.134v-16.566l-16-198.8 16-198.798z" fill="#4a6f99"/><path d="m115.966 447.301h265.066v-397.598h-52.863c-3.137 0-6.006 1.773-7.409 4.579l-3.704 7.408c-1.403 2.806-4.271 4.579-7.409 4.579h-122.295c-3.138 0-6.006-1.773-7.409-4.579l-3.704-7.409c-1.403-2.806-4.271-4.579-7.409-4.579h-52.864z" fill="#77dfff"/><path d="m381.033 61.223v-11.521h-23l.001 397.599h22.999z" fill="#69cdff"/><g><path d="m256.784 40.633h-49.701c-4.142 0-7.5-3.358-7.5-7.5s3.358-7.5 7.5-7.5h49.701c4.142 0 7.5 3.358 7.5 7.5s-3.358 7.5-7.5 7.5z" fill="#4a6f99"/></g><g><g><path d="m289.917 40.633h-8.284c-4.142 0-7.5-3.358-7.5-7.5s3.358-7.5 7.5-7.5h8.284c4.142 0 7.5 3.358 7.5 7.5s-3.358 7.5-7.5 7.5z" fill="#e9efff"/></g></g><path d="m231.933 99.4c9.149 0 16.567 7.417 16.567 16.567v99.4c0 9.15-7.417 16.567-16.567 16.567h-24.85c-4.575 0-8.283 3.709-8.283 8.283v13.136c0 7.38-8.922 11.075-14.14 5.857l-24.85-24.85c-1.553-1.553-3.66-2.426-5.857-2.426h-87.687c-9.15 0-16.567-7.417-16.567-16.567v-99.4c0-9.15 7.417-16.567 16.567-16.567z" fill="#65e1a3"/><g><g><path d="m149.1 206.3c-22.405 0-40.633-18.228-40.633-40.633s18.228-40.633 40.633-40.633 40.633 18.228 40.633 40.633-18.228 40.633-40.633 40.633zm0-66.267c-14.134 0-25.633 11.499-25.633 25.633s11.499 25.633 25.633 25.633 25.633-11.499 25.633-25.633-11.499-25.633-25.633-25.633z" fill="#e9efff"/></g></g><g><g><path d="m182.233 206.3c-1.919 0-3.839-.732-5.303-2.197l-24.85-24.85c-2.929-2.929-2.929-7.678 0-10.606 2.929-2.929 7.678-2.93 10.606 0l24.85 24.85c2.929 2.929 2.929 7.678 0 10.606-1.464 1.464-3.384 2.197-5.303 2.197z" fill="#e9efff"/></g></g><path d="m265.067 248.5c-9.149 0-16.567 7.417-16.567 16.567v99.4c0 9.149 7.417 16.567 16.567 16.567h24.85c4.575 0 8.283 3.709 8.283 8.283v13.136c0 7.38 8.922 11.075 14.141 5.857l24.85-24.85c1.553-1.553 3.66-2.426 5.857-2.426h87.686c9.15 0 16.567-7.417 16.567-16.567v-99.4c0-9.15-7.417-16.567-16.567-16.567z" fill="#ff6c6c"/><g><g><path d="m381.04 355.402c-2.751 0-5.4-1.519-6.714-4.147l-26.426-52.851-26.426 52.851c-1.852 3.705-6.355 5.207-10.063 3.354-3.704-1.852-5.206-6.357-3.353-10.062l33.134-66.267c1.271-2.541 3.867-4.146 6.708-4.146s5.438 1.605 6.708 4.146l33.134 66.267c1.852 3.705.351 8.21-3.354 10.062-1.076.538-2.221.793-3.348.793z" fill="#e9efff"/></g></g><g><g><path d="m372.75 338.833h-49.7c-4.143 0-7.5-3.358-7.5-7.5s3.357-7.5 7.5-7.5h49.7c4.143 0 7.5 3.358 7.5 7.5s-3.357 7.5-7.5 7.5z" fill="#e9efff"/></g></g><g fill="#f74242"><path d="m314.19 383.46-15.99 15.99v3.003c0 7.38 8.922 11.075 14.141 5.857l24.85-24.85c1.553-1.553 3.66-2.426 5.857-2.426h-23.001c-2.197 0-4.304.872-5.857 2.426z"/><path d="m430.734 248.5h-23.001c9.15 0 16.567 7.417 16.567 16.567v99.4c0 9.149-7.417 16.567-16.567 16.567h23.001c9.15 0 16.567-7.417 16.567-16.567v-99.4c0-9.15-7.418-16.567-16.567-16.567z"/></g><g fill="#57cf97"><path d="m175.799 240.217v10.133l8.86 8.86c5.218 5.218 14.14 1.522 14.14-5.857v-13.136c0-4.575 3.709-8.283 8.283-8.283h-23.001c-4.573-.001-8.282 3.708-8.282 8.283z"/><path d="m231.933 99.4h-23.001c9.15 0 16.567 7.417 16.567 16.567v99.4c0 9.15-7.417 16.567-16.567 16.567h23.001c9.149 0 16.567-7.417 16.567-16.567v-99.4c0-9.15-7.417-16.567-16.567-16.567z"/></g></g></svg>