<svg id="Layer_1" enable-background="new 0 0 497 497" height="512" viewBox="0 0 497 497" width="512" xmlns="http://www.w3.org/2000/svg"><g><path d="m447.3 463.867v-430.734c0-18.299-14.834-33.133-33.133-33.133h-331.334c-18.299 0-33.133 14.834-33.133 33.133v430.733c0 18.3 14.834 33.134 33.133 33.134h331.333c18.3 0 33.134-14.834 33.134-33.133z" fill="#e9efff"/><path d="m414.167 0h-22.995c18.296.003 33.128 14.836 33.128 33.133v430.733c0 18.299-14.834 33.133-33.133 33.133h23c18.299 0 33.133-14.834 33.133-33.133v-430.733c0-18.298-14.834-33.133-33.133-33.133z" fill="#d3dcfb"/><path d="m82.833 497h331.333c18.299 0 33.133-14.834 33.133-33.133v-364.467h-397.599v364.467c0 18.299 14.834 33.133 33.133 33.133z" fill="#368df6"/><ellipse cx="99.4" cy="49.7" fill="#fd3d54" rx="16.567" ry="16.567" transform="matrix(.23 -.973 .973 .23 28.192 135.022)"/><ellipse cx="165.667" cy="49.7" fill="#89e56a" rx="16.567" ry="16.567" transform="matrix(.16 -.987 .987 .16 90.072 205.267)"/><ellipse cx="231.933" cy="49.7" fill="#ffc55e" rx="16.567" ry="16.567" transform="matrix(.707 -.707 .707 .707 32.789 178.559)"/><path d="m406.167 265.067h-315.334c-4.418 0-8-3.582-8-8v-83.4c0-4.418 3.582-8 8-8h315.333c4.418 0 8 3.582 8 8v83.4c.001 4.418-3.581 8-7.999 8z" fill="#e9efff"/><path d="m406.167 430.733h-315.334c-4.418 0-8-3.582-8-8v-83.4c0-4.418 3.582-8 8-8h315.333c4.418 0 8 3.582 8 8v83.4c.001 4.418-3.581 8-7.999 8z" fill="#e9efff"/><path d="m424.3 99.4v364.467c0 18.299-14.834 33.133-33.133 33.133h23c18.299 0 33.133-14.834 33.133-33.133v-364.467z" fill="#336fe7"/><path d="m90.833 165.667c-4.418 0-8 3.582-8 8v83.4c0 4.418 3.582 8 8 8h91.4v-99.4z" fill="#65e1a3"/><g><path d="m140.816 222.61h-16.566c-4 0-7.243-3.243-7.243-7.244s3.243-7.244 7.243-7.244h16.566c4 0 7.243 3.243 7.243 7.244s-3.243 7.244-7.243 7.244z" fill="#57cf97"/></g><g><g><path d="m248.5 206.044h-33.134c-4 0-7.243-3.243-7.243-7.244s3.243-7.244 7.243-7.244h33.134c4 0 7.243 3.243 7.243 7.244 0 4-3.243 7.244-7.243 7.244z" fill="#57cf97"/></g></g><g><path d="m314.767 239.177h-99.4c-4 0-7.243-3.243-7.243-7.244s3.243-7.244 7.243-7.244h99.4c4 0 7.243 3.243 7.243 7.244s-3.243 7.244-7.243 7.244z" fill="#5b7fa0"/></g><g><path d="m381.033 239.177h-33.133c-4 0-7.243-3.243-7.243-7.244s3.243-7.244 7.243-7.244h33.133c4 0 7.243 3.243 7.243 7.244s-3.243 7.244-7.243 7.244z" fill="#5b7fa0"/></g><path d="m406.167 165.667h-23c4.418 0 8 3.582 8 8v83.4c0 4.418-3.582 8-8 8h23c4.418 0 8-3.582 8-8v-83.4c0-4.419-3.582-8-8-8z" fill="#d3dcfb"/><path d="m90.833 331.333c-4.418 0-8 3.582-8 8v83.4c0 4.418 3.582 8 8 8h91.4v-99.4z" fill="#65e1a3"/><g><path d="m140.816 388.277h-16.566c-4 0-7.243-3.243-7.243-7.244 0-4 3.243-7.244 7.243-7.244h16.566c4 0 7.243 3.243 7.243 7.244.001 4.001-3.243 7.244-7.243 7.244z" fill="#57cf97"/></g><g><path d="m248.5 371.71h-33.134c-4 0-7.243-3.243-7.243-7.244s3.243-7.244 7.243-7.244h33.134c4 0 7.243 3.243 7.243 7.244s-3.243 7.244-7.243 7.244z" fill="#57cf97"/></g><g><path d="m314.767 404.843h-99.4c-4 0-7.243-3.243-7.243-7.244s3.243-7.244 7.243-7.244h99.4c4 0 7.243 3.243 7.243 7.244s-3.243 7.244-7.243 7.244z" fill="#5b7fa0"/></g><g><path d="m381.033 404.843h-33.133c-4 0-7.243-3.243-7.243-7.244s3.243-7.244 7.243-7.244h33.133c4 0 7.243 3.243 7.243 7.244s-3.243 7.244-7.243 7.244z" fill="#5b7fa0"/></g><g fill="#d3dcfb"><path d="m406.167 331.333h-23c4.418 0 8 3.582 8 8v83.4c0 4.418-3.582 8-8 8h23c4.418 0 8-3.582 8-8v-83.4c0-4.418-3.582-8-8-8z"/><path d="m361.56 401.143-38.102-3.464c-4.93-.448-9.06 3.682-8.612 8.612l3.464 38.102c.609 6.693 8.747 9.639 13.499 4.887 3.096-3.095 8.114-3.095 11.21 0l12.219 12.219c3.096 3.095 8.114 3.095 11.21 0l12.219-12.219c3.095-3.095 3.095-8.114 0-11.21l-12.219-12.219c-3.095-3.095-3.095-8.114 0-11.21 4.751-4.751 1.805-12.89-4.888-13.498z"/></g></g></svg>