<svg id="Layer_1" enable-background="new 0 0 496.999 496.999" height="512" viewBox="0 0 496.999 496.999" width="512" xmlns="http://www.w3.org/2000/svg"><g><g><path d="m16.566 33.133c0-18.299 14.835-33.133 33.134-33.133h248.5c18.299 0 33.133 14.834 33.133 33.133v70.366h-314.767z" fill="#e9efff"/><path d="m298.199 0h-23.001c18.299 0 33.134 14.834 33.134 33.133v70.366h23.002v-70.366c-.001-18.299-14.835-33.133-33.135-33.133z" fill="#d3dcfb"/><path d="m364.467 99.4c0-18.299-14.834-33.133-33.133-33.133l-281.634-.001c-18.299 0-33.133-14.834-33.133-33.133v66.267l12 16.567-12 16.567v99.4l13 49.7-13 49.7v132.533c0 18.299 14.834 33.133 33.133 33.133h281.633c18.299 0 33.133-14.834 33.133-33.133z" fill="#368df6"/><path d="m331.333 66.267h-23.001c18.299 0 33.133 14.834 33.133 33.134l-.001 364.466c0 18.299-14.835 33.133-33.133 33.133h23.001c18.299 0 33.133-14.834 33.133-33.133l.002-364.467c0-18.299-14.834-33.133-33.134-33.133z" fill="#336fe7"/><path d="m49.7 66.266c-18.299 0-33.133-14.834-33.133-33.133v66.267l12 16.566-12 16.567v99.4l12 49.7-12 49.7v132.533c0 18.299 14.834 33.133 33.133 33.133h33.133v-430.733z" fill="#336fe7"/><path d="m16.566 331.333h25.134c4.418 0 8-3.582 8-8v-83.4c0-4.418-3.582-8-8-8h-25.134z" fill="#ffc55e"/><path d="m16.566 132.533h25.134c4.418 0 8-3.582 8-8v-17.133c0-4.418-3.582-8-8-8h-25.134z" fill="#65e1a3"/><path d="m290.2 182.233h-133.1c-4.418 0-8-3.582-8-8v-50.267c0-4.418 3.582-8 8-8h133.1c4.418 0 8 3.582 8 8v50.267c0 4.418-3.582 8-8 8z" fill="#e9efff"/><path d="m75.333 33.133c0 4.142 3.357 7.5 7.5 7.5h248.5v-7.499c0-2.581-.305-5.089-.863-7.501h-247.637c-4.143 0-7.5 3.357-7.5 7.5z" fill="#a2b6f4"/><path d="m290.2 115.966h-23.002c4.418 0 8 3.582 8 8v50.267c0 4.418-3.582 8-8 8h23.002c4.418 0 8-3.582 8-8v-50.267c0-4.418-3.582-8-8-8z" fill="#d3dcfb"/></g><circle cx="381.033" cy="314.775" fill="#e9efff" r="99.4"/><ellipse cx="381.033" cy="314.775" fill="#77dfff" rx="66.267" ry="66.267" transform="matrix(.223 -.975 .975 .223 -10.91 615.857)"/><g><g><path d="m380.985 355.15c-.858 0-1.717-.027-2.579-.082-20.081-1.278-36.267-17.375-37.651-37.445-.782-11.331 3.039-22.125 10.757-30.394 7.611-8.155 18.372-12.832 29.521-12.832 17.107 0 32.416 10.837 38.094 26.966 1.664 4.726.925 9.993-1.975 14.089-2.911 4.111-7.655 6.565-12.689 6.565h-48.28c-.006 0-.013 0-.018 0 2.978 10.244 12.157 17.892 23.162 18.592 7.455.48 14.755-2.27 20.014-7.529 2.829-2.828 7.415-2.828 10.244 0 2.829 2.829 2.829 7.415 0 10.244-7.594 7.594-17.898 11.826-28.6 11.826zm.048-66.265c-7.255 0-13.978 2.922-18.931 8.229-2.821 3.022-4.83 6.573-5.942 10.417h.023 48.28c.363 0 .654-.151.866-.45.302-.427.175-.788.133-.907-3.64-10.341-13.458-17.289-24.429-17.289z" fill="#e9efff"/></g></g><path d="m381.033 215.374c-3.89 0-7.726.231-11.5.666 49.479 5.701 87.9 47.727 87.9 98.734s-38.421 93.033-87.9 98.734c3.774.435 7.61.666 11.5.666 54.897 0 99.4-44.503 99.4-99.4 0-54.896-44.503-99.4-99.4-99.4z" fill="#d3dcfb"/><path d="m381.033 248.508c-3.925 0-7.763.361-11.5 1.015 31.113 5.447 54.767 32.578 54.767 65.252s-23.653 59.804-54.767 65.252c3.737.654 7.575 1.015 11.5 1.015 36.598 0 66.267-29.669 66.267-66.267s-29.669-66.267-66.267-66.267z" fill="#69cdff"/></g></svg>