<svg id="Layer_1" enable-background="new 0 0 497 497" height="512" viewBox="0 0 497 497" width="512" xmlns="http://www.w3.org/2000/svg"><g><g><path d="m33.134 33.133c-18.299 0-33.132 14.834-33.132 33.132v265.069l7 16.375-7 16.758h496.997l-9-16.127 9-17.007v-265.067c0-18.299-14.834-33.132-33.132-33.132h-430.733z" fill="#5b7fa0"/><path d="m496.998 364.468-6-18.021 6-15.112v-265.069c0-18.299-14.834-33.132-33.133-33.132h-23c18.299 0 33.133 14.834 33.133 33.132v298.203h23z" fill="#4a6f99"/><g><g><g><path d="m318.909 463.862-8.283-66.262v-8.1h-124.251v8.1l-8.284 66.262v9.304h140.818z" fill="#bec8f7"/></g></g></g><g><g><path d="m265.067 438.233h-33.133c-4.142 0-7.5-3.358-7.5-7.5v-33.132c0-4.142 3.358-7.5 7.5-7.5s7.5 3.358 7.5 7.5v25.632h18.133v-25.632c0-4.142 3.358-7.5 7.5-7.5s7.5 3.358 7.5 7.5v33.132c0 4.142-3.358 7.5-7.5 7.5z" fill="#a2b6f4"/></g></g><path d="m33.133 331.334v-256.783c0-4.575 3.708-8.283 8.283-8.283h414.168c4.575 0 8.283 3.709 8.283 8.283v256.783z" fill="#77dfff"/><path d="m455.584 66.268h-23.002c4.575 0 8.283 3.709 8.283 8.283v256.783h23.002v-256.783c0-4.575-3.708-8.283-8.283-8.283z" fill="#69cdff"/><path d="m356.467 463.868h-215.933c-4.418 0-8 3.582-8 8v17.132c0 4.418 3.582 8 8 8h215.933c4.418 0 8-3.582 8-8v-17.132c0-4.418-3.582-8-8-8z" fill="#e9efff"/><path d="m356.467 463.868h-23c4.418 0 8 3.582 8 8v17.132c0 4.418-3.582 8-8 8h23c4.418 0 8-3.582 8-8v-17.132c0-4.418-3.582-8-8-8z" fill="#d3dcfb"/><g><g fill="#e9efff"><path d="m91.117 189.477h42.452c4.001 0 7.244-3.243 7.244-7.244s-3.243-7.244-7.244-7.244h-42.452c-8.561 0-15.527 6.966-15.527 15.527v49.7c0 8.561 6.965 15.527 15.527 15.527h42.452c4.001 0 7.244-3.243 7.244-7.244s-3.243-7.244-7.244-7.244h-42.452c-.573 0-1.04-.466-1.04-1.039v-17.606h25.89c4 0 7.244-3.243 7.244-7.244s-3.243-7.244-7.244-7.244h-25.89v-17.606c0-.573.467-1.039 1.04-1.039z"/><path d="m183.269 191.555h-16.567c-4 0-7.244 3.243-7.244 7.244 0 4 3.243 7.244 7.244 7.244h16.567c4 0 7.244-3.243 7.244-7.244s-3.243-7.244-7.244-7.244z"/><path d="m183.269 224.689h-16.567c-4 0-7.244 3.243-7.244 7.244 0 4 3.243 7.244 7.244 7.244h16.567c4 0 7.244-3.243 7.244-7.244s-3.243-7.244-7.244-7.244z"/><path d="m265.067 191.555c-6.435 0-12.277 2.57-16.567 6.732-4.289-4.162-10.132-6.732-16.566-6.732-3.946 0-7.667.97-10.947 2.676-1.328-1.632-3.351-2.676-5.62-2.676-4.001 0-7.244 3.243-7.244 7.244v49.7c0 4.001 3.243 7.244 7.244 7.244s7.244-3.243 7.244-7.244v-33.133c0-5.141 4.182-9.323 9.323-9.323s9.323 4.182 9.323 9.323v33.133c0 4.001 3.243 7.244 7.244 7.244 4 0 7.243-3.243 7.243-7.244v-33.133c0-5.141 4.183-9.323 9.323-9.323 5.141 0 9.323 4.182 9.323 9.323v33.133c0 4.001 3.243 7.244 7.243 7.244s7.243-3.243 7.243-7.244v-33.133c0-13.129-10.68-23.811-23.809-23.811z"/><path d="m362.971 234.82c-2.981-2.669-7.562-2.415-10.228.565-3.34 3.731-8.124 5.871-13.126 5.871-9.709 0-17.607-7.898-17.607-17.607s7.898-17.607 17.607-17.607c5.001 0 9.784 2.139 13.123 5.868 2.667 2.979 7.246 3.234 10.228.565 2.981-2.668 3.234-7.248.565-10.228-6.083-6.795-14.801-10.692-23.916-10.692-17.696 0-32.094 14.397-32.094 32.094s14.397 32.094 32.094 32.094c9.116 0 17.835-3.898 23.919-10.695 2.669-2.98 2.416-7.559-.565-10.228z"/><path d="m414.166 191.555h-11.401l9.018-6.763c6.028-4.476 9.627-11.626 9.627-19.127 0-13.129-10.681-23.81-23.81-23.81s-23.81 10.681-23.81 23.81c0 4.001 3.243 7.244 7.243 7.244s7.243-3.243 7.243-7.244c0-5.141 4.183-9.323 9.323-9.323 5.141 0 9.323 4.182 9.323 9.323 0 2.982-1.376 5.714-3.804 7.516l-26.432 19.822c-2.494 1.871-3.512 5.127-2.526 8.085s3.754 4.953 6.872 4.953h33.133c4 0 7.243-3.243 7.243-7.244.002-3.999-3.242-7.242-7.242-7.242z"/></g></g><ellipse cx="248.5" cy="74.55" fill="#89e56a" rx="74.55" ry="74.55" transform="matrix(.133 -.991 .991 .133 141.662 310.972)"/><g><g><path d="m248.5 94.218c-4.001 0-7.244-3.243-7.244-7.244v-12.842c0-5.42 3.813-10.107 9.066-11.144 4.481-.884 7.701-5.009 7.491-9.596-.216-4.672-4.192-8.648-8.864-8.863-2.577-.12-5.027.793-6.886 2.568-1.861 1.777-2.886 4.172-2.886 6.744 0 4-3.243 7.244-7.244 7.244-4 0-7.244-3.243-7.244-7.244 0-6.473 2.686-12.749 7.367-17.221 4.749-4.535 10.993-6.87 17.558-6.564 12.152.559 22.109 10.517 22.669 22.669.496 10.782-6.468 20.568-16.541 23.8v10.449c.002 4.001-3.242 7.244-7.242 7.244z" fill="#e9efff"/></g></g><g><g><path d="m248.5 119.068c-4.001 0-7.244-3.243-7.244-7.244v-4.142c0-4 3.243-7.244 7.244-7.244 4 0 7.243 3.243 7.243 7.244v4.142c.001 4.001-3.243 7.244-7.243 7.244z" fill="#e9efff"/></g></g><path d="m248.5 0c-3.911 0-7.751.305-11.5.885 35.712 5.53 63.05 36.403 63.05 73.665 0 37.261-27.338 68.134-63.05 73.665 3.749.58 7.589.885 11.5.885 41.173 0 74.55-33.377 74.55-74.55 0-41.173-33.377-74.55-74.55-74.55z" fill="#65d33c"/></g><path d="m496.998 364.468v-33.133h-496.996v33.133c0 18.299 14.834 33.132 33.132 33.132h430.732c18.298.001 33.132-14.833 33.132-33.132z" fill="#e9efff"/><path d="m473.998 364.468c0 18.299-14.834 33.132-33.133 33.132h23c18.299 0 33.133-14.834 33.133-33.132v-33.133h-23z" fill="#d3dcfb"/></g></svg>