<svg id="Layer_1" enable-background="new 0 0 497 497" height="512" viewBox="0 0 497 497" width="512" xmlns="http://www.w3.org/2000/svg"><g><path d="m198.8 463.867c0 18.299 14.834 33.133 33.133 33.133h33.133c18.299 0 33.133-14.834 33.133-33.133v-5h-99.4v5z" fill="#5b7fa0"/><path d="m275.2 458.867v5c0 18.299-14.834 33.133-33.133 33.133h23c18.299 0 33.133-14.834 33.133-33.133v-5z" fill="#4a6f99"/><path d="m331.333 359.467h-165.666v72.4c0 17.673 14.327 32 32 32h101.666c17.673 0 32-14.327 32-32z" fill="#bec8f7"/><path d="m308.333 359.467v72.4c0 17.673-14.327 32-32 32h23c17.673 0 32-14.327 32-32v-72.4z" fill="#a2b6f4"/><g><g><path d="m331.333 405.1h-165.666c-4.143 0-7.5-3.358-7.5-7.5s3.357-7.5 7.5-7.5h165.666c4.143 0 7.5 3.358 7.5 7.5 0 4.143-3.357 7.5-7.5 7.5z" fill="#e9efff"/></g></g><g><g><path d="m331.333 438.234h-165.666c-4.143 0-7.5-3.358-7.5-7.5s3.357-7.5 7.5-7.5h165.666c4.143 0 7.5 3.358 7.5 7.5s-3.357 7.5-7.5 7.5z" fill="#e9efff"/></g></g><path d="m405.883 157.385c0-85.088-67.524-154.406-151.91-157.29-88.689-3.031-161.881 66.803-162.846 155.539-.56 51.505 23.629 97.379 61.405 126.484 8.22 6.333 13.136 16.038 13.136 26.415v27.801h165.666v-27.803c0-10.367 4.901-20.071 13.114-26.397 37.359-28.774 61.435-73.947 61.435-124.749z" fill="#ffc55e"/><path d="m253.973.095c-5.766-.197-11.464-.079-17.083.325 81.601 5.838 145.992 73.876 145.992 156.965 0 50.803-24.076 95.976-61.435 124.75-8.213 6.326-13.115 16.03-13.115 26.397v27.802h23v-27.802c0-10.367 4.901-20.071 13.115-26.397 37.36-28.774 61.435-73.947 61.435-124.75.001-85.089-67.523-154.406-151.909-157.29z" fill="#ffa438"/><g><path d="m49.7 164.885h-33.133c-4.143 0-7.5-3.358-7.5-7.5s3.357-7.5 7.5-7.5h33.133c4.143 0 7.5 3.358 7.5 7.5s-3.357 7.5-7.5 7.5z" fill="#ffa438"/></g><g><path d="m47.648 280.852c-2.592 0-5.112-1.345-6.502-3.751-2.071-3.587-.842-8.174 2.745-10.245l28.694-16.567c3.585-2.072 8.173-.843 10.245 2.745 2.071 3.587.842 8.174-2.745 10.245l-28.694 16.567c-1.181.682-2.471 1.006-3.743 1.006z" fill="#ffa438"/></g><g><path d="m449.353 280.852c-1.272 0-2.561-.324-3.743-1.006l-28.694-16.567c-3.587-2.071-4.816-6.658-2.745-10.245 2.07-3.588 6.655-4.818 10.245-2.745l28.694 16.567c3.587 2.071 4.816 6.658 2.745 10.245-1.389 2.406-3.911 3.751-6.502 3.751z" fill="#ffa438"/></g><g><path d="m480.433 164.885h-33.133c-4.143 0-7.5-3.358-7.5-7.5s3.357-7.5 7.5-7.5h33.133c4.143 0 7.5 3.358 7.5 7.5s-3.358 7.5-7.5 7.5z" fill="#ffa438"/></g><g><path d="m420.672 65.486c-2.592 0-5.113-1.345-6.502-3.751-2.071-3.587-.842-8.174 2.745-10.245l28.694-16.566c3.586-2.071 8.175-.842 10.245 2.745 2.071 3.587.842 8.174-2.745 10.245l-28.694 16.566c-1.181.682-2.471 1.006-3.743 1.006z" fill="#ffa438"/></g><g><path d="m76.328 65.486c-1.272 0-2.562-.324-3.743-1.006l-28.694-16.567c-3.587-2.071-4.816-6.658-2.745-10.245 2.07-3.587 6.655-4.817 10.245-2.745l28.694 16.567c3.587 2.071 4.816 6.658 2.745 10.245-1.389 2.405-3.91 3.751-6.502 3.751z" fill="#ffa438"/></g><g><path d="m358.982 135.823-13.647-2.729c-2.862-.573-5.153-2.669-6.061-5.444-1.518-4.64-3.381-9.123-5.56-13.42-1.322-2.606-1.187-5.711.434-8.142l7.72-11.581c1.804-2.705 1.447-6.308-.852-8.607l-21.033-21.033c-2.299-2.299-5.902-2.656-8.608-.852l-11.581 7.72c-2.431 1.621-5.536 1.755-8.142.434-4.296-2.179-8.78-4.042-13.419-5.56-2.774-.908-4.871-3.198-5.443-6.06l-2.73-13.647c-.638-3.189-3.437-5.484-6.689-5.484h-29.745c-3.252 0-6.051 2.295-6.689 5.484l-2.729 13.647c-.572 2.862-2.669 5.153-5.444 6.06-4.64 1.518-9.123 3.381-13.42 5.56-2.606 1.322-5.711 1.187-8.142-.434l-11.581-7.721c-2.706-1.804-6.308-1.447-8.607.852l-21.031 21.034c-2.299 2.299-2.656 5.902-.852 8.607l7.721 11.581c1.621 2.431 1.756 5.536.434 8.142-2.179 4.296-4.042 8.78-5.56 13.42-.908 2.774-3.198 4.871-6.061 5.444l-13.647 2.729c-3.189.638-5.484 3.437-5.484 6.689v29.745c0 3.252 2.295 6.051 5.484 6.689l13.647 2.729c2.862.572 5.153 2.669 6.061 5.443 1.518 4.64 3.381 9.123 5.56 13.42 1.322 2.606 1.187 5.711-.434 8.142l-7.721 11.581c-1.804 2.706-1.447 6.308.852 8.607l21.033 21.033c2.299 2.299 5.902 2.656 8.608.852l11.581-7.721c2.431-1.621 5.536-1.755 8.142-.434 4.296 2.179 8.78 4.042 13.42 5.56 2.774.908 4.871 3.198 5.444 6.061l2.729 13.647c.638 3.189 3.437 5.484 6.689 5.484h29.745c3.252 0 6.051-2.295 6.689-5.484l2.73-13.647c.572-2.862 2.669-5.153 5.443-6.061 4.64-1.518 9.123-3.381 13.42-5.56 2.606-1.322 5.711-1.187 8.142.434l11.581 7.721c2.706 1.804 6.308 1.447 8.608-.852l21.032-21.033c2.299-2.299 2.656-5.902.852-8.607l-7.72-11.581c-1.621-2.431-1.755-5.536-.434-8.142 2.179-4.296 4.042-8.78 5.56-13.42.908-2.774 3.198-4.871 6.061-5.443l13.647-2.729c3.189-.638 5.484-3.438 5.484-6.689v-29.744c-.003-3.252-2.298-6.052-5.487-6.69zm-110.482 38.128c-9.149 0-16.567-7.417-16.567-16.566 0-9.15 7.417-16.567 16.567-16.567s16.567 7.417 16.567 16.567c0 9.149-7.418 16.566-16.567 16.566z" fill="#e9efff"/><g><g><path d="m248.5 214.584c-31.54 0-57.2-25.66-57.2-57.2s25.66-57.2 57.2-57.2 57.2 25.66 57.2 57.2c0 31.541-25.66 57.2-57.2 57.2zm0-99.4c-23.27 0-42.2 18.931-42.2 42.2s18.931 42.2 42.2 42.2 42.2-18.931 42.2-42.2c0-23.268-18.93-42.2-42.2-42.2z" fill="#d3dcfb"/></g></g><g><g><g><path d="m358.982 135.823-13.647-2.729c-2.862-.573-5.153-2.669-6.061-5.444-1.518-4.64-3.381-9.123-5.56-13.42-1.322-2.606-1.187-5.711.434-8.142l7.721-11.581c1.804-2.705 1.447-6.308-.852-8.607l-21.032-21.033c-2.299-2.299-5.902-2.656-8.608-.852l-9.147 6.098 15.787 15.787c2.299 2.299 2.656 5.902.852 8.607l-7.721 11.581c-1.621 2.431-1.755 5.536-.434 8.142 2.179 4.296 4.042 8.78 5.56 13.42.908 2.774 3.198 4.871 6.061 5.444l13.647 2.729c3.189.638 5.484 3.438 5.484 6.689v29.744c0 3.252-2.295 6.051-5.484 6.689l-13.647 2.729c-2.862.572-5.153 2.669-6.061 5.444-1.518 4.64-3.381 9.123-5.56 13.42-1.322 2.606-1.187 5.711.434 8.142l7.721 11.581c1.804 2.706 1.447 6.308-.852 8.607l-15.787 15.787 9.147 6.098c2.706 1.804 6.308 1.447 8.608-.852l21.032-21.033c2.299-2.299 2.656-5.902.852-8.607l-7.721-11.581c-1.621-2.431-1.755-5.536-.434-8.142 2.179-4.296 4.042-8.78 5.56-13.42.908-2.774 3.198-4.871 6.061-5.444l13.647-2.729c3.189-.638 5.484-3.438 5.484-6.689v-29.744c0-3.251-2.295-6.051-5.484-6.689z" fill="#d3dcfb"/></g></g></g></g><path d="m331.333 364.467c9.149 0 16.567-7.417 16.567-16.567s-7.417-16.567-16.567-16.567h-165.666c-9.149 0-16.567 7.417-16.567 16.567s7.417 16.567 16.567 16.567z" fill="#e9efff"/><path d="m331.333 331.334h-23c9.149 0 16.567 7.417 16.567 16.567s-7.417 16.567-16.567 16.567h23c9.149 0 16.567-7.417 16.567-16.567s-7.418-16.567-16.567-16.567z" fill="#d3dcfb"/></g></svg>