<svg id="Layer_1" enable-background="new 0 0 497 497" height="512" viewBox="0 0 497 497" width="512" xmlns="http://www.w3.org/2000/svg"><g><g><path d="m298.303 0c-100.687-.051-182.326 81.557-182.326 182.232v24.209c0 5.847-1.547 11.59-4.485 16.646l-48.237 83.018c-.734 1.264-1.121 2.699-1.121 4.161v21.065c0 4.575 3.709 8.283 8.283 8.283h37.278c4.575 0 8.283 3.709 8.283 8.283l.001 49.701c0 18.299 14.834 33.133 33.133 33.133l54.122-.001c4.418 0 8 3.582 8 8v41.703c0 9.149 7.417 16.567 16.567 16.567h120.109c9.15 0 16.567-7.417 16.567-16.567v-56.763c0-3.213 1.927-6.104 4.884-7.36 65.288-27.716 111.081-92.414 111.081-167.812v-64.522c0-100.891-81.247-183.925-182.139-183.976z" fill="#ffc2a3"/><g fill="#ffb294"><path d="m180.235 430.73-31.141.001h.018l31.131-.001c-.002.001-.005 0-.008 0z"/><path d="m298.303 0c-3.907-.002-7.782.134-11.628.374 95.553 6.007 170.766 86.533 170.766 183.602v64.522c0 75.398-45.793 140.096-111.081 167.812-2.957 1.256-4.884 4.147-4.884 7.36v56.763c0 9.149-7.417 16.567-16.567 16.567h23c9.15 0 16.567-7.417 16.567-16.567v-56.763c0-3.213 1.927-6.104 4.884-7.36 65.288-27.716 111.081-92.414 111.081-167.812v-64.522c.001-100.891-81.246-183.925-182.138-183.976z"/></g><path d="m347.908 137.534h-66.267v-129.534c0-4.418 3.582-8 8-8h50.267c4.418 0 8 3.582 8 8z" fill="#5b7fa0"/><g fill="#ffb294"><path d="m62.134 310.267v3.713h33.133c4.142 0 7.5-3.357 7.5-7.5s-3.358-7.5-7.5-7.5h-27.871l-4.14 7.126c-.735 1.263-1.122 2.699-1.122 4.161z"/><path d="m343.767 410.8c-4.142 0-7.5 3.357-7.5 7.5s3.358 7.5 7.5 7.5h20.709v-2.13c0-3.213 1.927-6.104 4.884-7.36 4.003-1.699 7.931-3.539 11.781-5.51z"/><path d="m273.195 445.657c4.142 0 7.5-3.357 7.5-7.5s-3.358-7.5-7.5-7.5h-72.52c-.338 0-.669.03-.995.074h3.556c4.418 0 8 3.582 8 8v6.927h61.959z"/></g><path d="m339.908 0h-23c4.418 0 8 3.582 8 8v129.533h23v-129.533c0-4.418-3.581-8-8-8z" fill="#4a6f99"/><path d="m357.325 298.2h-85.1c-17.673 0-32-14.327-32-32v-101.666c0-17.673 14.327-32 32-32h85.1c17.673 0 32 14.327 32 32v101.666c0 17.673-14.327 32-32 32z" fill="#e9efff"/><path d="m356.192 248.5c0 9.15-7.417 16.567-16.567 16.567h-49.7c-9.15 0-16.567-7.417-16.567-16.567v-66.267c0-9.15 7.417-16.567 16.567-16.567h49.7c9.15 0 16.567 7.417 16.567 16.567z" fill="#5b7fa0"/><path d="m357.325 132.534h-23c17.673 0 32 14.327 32 32v101.666c0 17.673-14.327 32-32 32h23c17.673 0 32-14.327 32-32v-101.666c0-17.674-14.327-32-32-32z" fill="#d3dcfb"/><path d="m339.625 165.667h-23c9.15 0 16.567 7.417 16.567 16.567v66.266c0 9.15-7.417 16.567-16.567 16.567h23c9.15 0 16.567-7.417 16.567-16.567v-66.267c0-9.149-7.417-16.566-16.567-16.566z" fill="#4a6f99"/><g><g><path d="m331.342 206.3h-33.133c-4.142 0-7.5-3.358-7.5-7.5s3.358-7.5 7.5-7.5h33.133c4.142 0 7.5 3.358 7.5 7.5s-3.358 7.5-7.5 7.5z" fill="#e9efff"/></g></g><g><g><path d="m323.058 239.433h-16.566c-4.142 0-7.5-3.358-7.5-7.5s3.358-7.5 7.5-7.5h16.566c4.142 0 7.5 3.358 7.5 7.5s-3.358 7.5-7.5 7.5z" fill="#e9efff"/></g></g><g><g><path d="m198.825 0c9.15 0 16.567 7.417 16.567 16.567v132.533c0 9.15-7.417 16.567-16.567 16.567h-33.683c-4.575 0-8.283 3.709-8.283 8.283v13.136c0 7.38-8.922 11.075-14.14 5.857l-24.85-24.85c-1.553-1.553-3.66-2.426-5.857-2.426h-78.885c-9.15 0-16.567-7.417-16.567-16.567v-132.533c-.001-9.15 7.416-16.567 16.565-16.567z" fill="#89e56a"/></g><g fill="#57cf97"><path d="m133.858 173.95v10.134l8.859 8.859c5.218 5.218 14.141 1.523 14.141-5.857v-13.136c0-4.575 3.708-8.283 8.283-8.283h-23c-4.574 0-8.283 3.709-8.283 8.283z"/><path d="m198.825 0h-23c9.15 0 16.567 7.417 16.567 16.567v132.533c0 9.15-7.417 16.567-16.567 16.567h23c9.15 0 16.567-7.417 16.567-16.567v-132.533c0-9.15-7.418-16.567-16.567-16.567z"/></g></g><g><g><g><path d="m65.741 123.467c-1.968 0-3.882-.775-5.304-2.197l-16.566-16.567c-2.929-2.929-2.929-7.678 0-10.606 2.929-2.929 7.678-2.929 10.606 0l8.331 8.331 20.761-55.36c1.098-2.927 3.896-4.867 7.022-4.867h82.833c4.142 0 7.5 3.358 7.5 7.5s-3.358 7.5-7.5 7.5h-77.635l-23.025 61.4c-.896 2.388-2.942 4.157-5.435 4.697-.527.113-1.06.169-1.588.169z" fill="#e9efff"/></g><g><g><path d="m148.574 123.467c-1.92 0-3.839-.732-5.304-2.197l-33.133-33.133c-2.929-2.929-2.929-7.678 0-10.606 2.931-2.929 7.679-2.929 10.607 0l33.133 33.133c2.929 2.929 2.929 7.678 0 10.606-1.464 1.464-3.384 2.197-5.303 2.197z" fill="#e9efff"/></g><g><path d="m115.441 123.467c-1.919 0-3.839-.732-5.304-2.197-2.929-2.929-2.929-7.678 0-10.606l33.133-33.134c2.93-2.929 7.678-2.929 10.607 0s2.929 7.678 0 10.606l-33.133 33.133c-1.464 1.465-3.384 2.198-5.303 2.198z" fill="#e9efff"/></g></g></g></g></g></g></svg>