<svg id="Layer_1" enable-background="new 0 0 497 497" height="512" viewBox="0 0 497 497" width="512" xmlns="http://www.w3.org/2000/svg"><g><path d="m281.633 54.7v-38.133c0-9.15-7.417-16.567-16.567-16.567h-33.133c-9.149 0-16.567 7.417-16.567 16.567v38.133z" fill="#ffc55e"/><g><path d="m248.5 56.944c-4.001 0-7.244-3.243-7.244-7.244v-16.567c0-4.001 3.243-7.244 7.244-7.244 4 0 7.244 3.243 7.244 7.244v16.567c0 4.001-3.243 7.244-7.244 7.244z" fill="#ffa438"/></g><path d="m265.067 0h-23c9.149 0 16.567 7.417 16.567 16.567v38.133h23v-38.133c-.001-9.15-7.418-16.567-16.567-16.567z" fill="#ffa438"/><path d="m497 463.867v-381.034c0-18.299-14.834-33.133-33.133-33.133h-430.734c-18.299 0-33.133 14.834-33.133 33.133v381.034c0 18.299 14.834 33.133 33.133 33.133h430.733c18.3 0 33.134-14.834 33.134-33.133z" fill="#368df6"/><path d="m463.867 49.7h-23c18.299 0 33.133 14.834 33.133 33.133v381.034c0 18.299-14.834 33.133-33.133 33.133h23c18.299 0 33.133-14.834 33.133-33.133v-381.034c0-18.299-14.834-33.133-33.133-33.133z" fill="#336fe7"/><path d="m463.867 447.3c0 9.15-7.417 16.567-16.567 16.567h-397.599c-9.149 0-16.567-7.417-16.567-16.567v-347.9c0-9.149 7.417-16.567 16.567-16.567h397.599c9.15 0 16.567 7.417 16.567 16.567z" fill="#e9efff"/><path d="m174.233 331.333h-50.267c-4.418 0-8 3.582-8 8v17.133c0 4.418 3.582 8 8 8h50.267c4.418 0 8-3.582 8-8v-17.133c0-4.418-3.581-8-8-8z" fill="#77dfff"/><path d="m306.767 115.967h-116.534c-4.418 0-8 3.582-8 8v17.133c0 4.418 3.582 8 8 8h116.533c4.418 0 8-3.582 8-8v-17.133c.001-4.419-3.581-8-7.999-8z" fill="#77dfff"/><g><path d="m381.033 189.477h-265.066c-4.001 0-7.244-3.243-7.244-7.244s3.243-7.244 7.244-7.244h265.066c4 0 7.244 3.243 7.244 7.244s-3.243 7.244-7.244 7.244z" fill="#5b7fa0"/></g><g><path d="m381.033 222.61h-265.066c-4.001 0-7.244-3.243-7.244-7.244s3.243-7.244 7.244-7.244h265.066c4 0 7.244 3.243 7.244 7.244s-3.243 7.244-7.244 7.244z" fill="#5b7fa0"/></g><g><path d="m248.5 255.744h-132.533c-4.001 0-7.244-3.243-7.244-7.244 0-4 3.243-7.244 7.244-7.244h132.533c4 0 7.244 3.243 7.244 7.244 0 4-3.243 7.244-7.244 7.244z" fill="#5b7fa0"/></g><g><path d="m381.033 311.311v-54.527c0-4.575-3.709-8.283-8.283-8.283h-49.7c-4.575 0-8.283 3.709-8.283 8.283v54.527z" fill="#65e1a3"/><path d="m372.75 248.5h-23c4.575 0 8.283 3.709 8.283 8.283v54.527h23v-54.527c0-4.574-3.708-8.283-8.283-8.283z" fill="#57cf97"/><ellipse cx="347.9" cy="364.467" fill="#ffc55e" rx="66.267" ry="66.267" transform="matrix(.707 -.707 .707 .707 -155.819 352.752)"/><path d="m347.9 298.2c-3.925 0-7.763.361-11.5 1.015 31.113 5.447 54.767 32.578 54.767 65.252 0 32.673-23.653 59.804-54.767 65.252 3.737.654 7.575 1.015 11.5 1.015 36.598 0 66.267-29.669 66.267-66.267s-29.669-66.267-66.267-66.267z" fill="#ffa438"/><circle cx="347.9" cy="364.467" fill="#ff6c6c" r="33.133"/></g><g><path d="m182.233 404.844h-66.267c-4.001 0-7.244-3.243-7.244-7.244 0-4 3.243-7.244 7.244-7.244h66.267c4 0 7.244 3.243 7.244 7.244s-3.243 7.244-7.244 7.244z" fill="#5b7fa0"/></g><path d="m447.3 82.834h-23c9.15 0 16.567 7.417 16.567 16.567v347.9c0 9.15-7.417 16.567-16.567 16.567h23c9.15 0 16.567-7.417 16.567-16.567v-347.901c0-9.149-7.418-16.566-16.567-16.566z" fill="#d3dcfb"/><g fill="#69cdff"><path d="m306.767 115.967h-23c4.418 0 8 3.582 8 8v17.133c0 4.418-3.582 8-8 8h23c4.418 0 8-3.582 8-8v-17.133c0-4.419-3.582-8-8-8z"/><path d="m174.233 331.333h-23c4.418 0 8 3.582 8 8v17.133c0 4.418-3.582 8-8 8h23c4.418 0 8-3.582 8-8v-17.133c0-4.418-3.581-8-8-8z"/></g></g></svg>