<svg id="Layer_1" enable-background="new 0 0 504.5 504.5" height="512" viewBox="0 0 504.5 504.5" width="512" xmlns="http://www.w3.org/2000/svg"><g><g><path d="m235.684 504.5c-13.27 0-24.067-10.796-24.067-24.067v-165.666c0-4.999-4.067-9.066-9.066-9.066s-9.066 4.067-9.066 9.066v165.667c0 13.271-10.796 24.067-24.066 24.067s-24.067-10.796-24.067-24.067v-165.667c0-4.999-4.067-9.066-9.066-9.066s-9.066 4.067-9.066 9.066v165.667c0 13.271-10.796 24.067-24.066 24.067s-24.067-10.796-24.067-24.067v-215.367c0-4.142 3.357-7.5 7.5-7.5s7.5 3.358 7.5 7.5v215.366c0 5 4.067 9.067 9.067 9.067 4.999 0 9.066-4.067 9.066-9.067v-165.666c0-13.27 10.796-24.066 24.066-24.066s24.066 10.796 24.066 24.066v165.667c0 5 4.067 9.067 9.067 9.067 4.999 0 9.066-4.067 9.066-9.067v-165.667c0-13.27 10.796-24.066 24.066-24.066s24.066 10.796 24.066 24.066v165.667c0 5 4.067 9.067 9.067 9.067 4.999 0 9.066-4.067 9.066-9.067v-165.667c0-13.27 10.796-24.066 24.066-24.066h82.834c13.271 0 24.066 10.796 24.066 24.066v49.7c0 4.142-3.357 7.5-7.5 7.5s-7.5-3.358-7.5-7.5v-49.7c0-4.999-4.067-9.066-9.066-9.066h-82.834c-4.999 0-9.066 4.067-9.066 9.066v165.667c0 13.27-10.796 24.066-24.066 24.066z" fill="#5b7fa0"/></g><path d="m70.016 33.133c-9.15 0-16.567 7.417-16.567 16.567v198.801c0 9.15 7.417 16.567 16.567 16.567h364.468c9.15 0 16.567-7.417 16.567-16.567v-198.801c0-9.15-7.417-16.567-16.567-16.567z" fill="#368df6"/><path d="m401.351 0h-115.967c-18.299 0-33.133 14.834-33.133 33.133-.001-18.299-14.835-33.133-33.134-33.133h-115.967c-9.15 0-16.567 7.417-16.567 16.567v182.234l165.667 33.133 165.667-33.133v-182.234c0-9.15-7.417-16.567-16.566-16.567z" fill="#e9efff"/><path d="m186.267 66.267h-33.7c-4.418 0-8-3.582-8-8v-17.134c0-4.418 3.582-8 8-8h33.7c4.418 0 8 3.582 8 8v17.133c0 4.419-3.582 8.001-8 8.001z" fill="#77dfff"/><g><path d="m219.117 106.9h-99.4c-4.142 0-7.5-3.358-7.5-7.5s3.358-7.5 7.5-7.5h99.4c4.142 0 7.5 3.358 7.5 7.5s-3.358 7.5-7.5 7.5z" fill="#5b7fa0"/></g><g><path d="m219.117 140.034h-99.4c-4.142 0-7.5-3.358-7.5-7.5s3.358-7.5 7.5-7.5h99.4c4.142 0 7.5 3.358 7.5 7.5s-3.358 7.5-7.5 7.5z" fill="#5b7fa0"/></g><g><path d="m219.117 173.167h-99.4c-4.142 0-7.5-3.358-7.5-7.5s3.358-7.5 7.5-7.5h99.4c4.142 0 7.5 3.358 7.5 7.5s-3.358 7.5-7.5 7.5z" fill="#5b7fa0"/></g><path d="m351.934 66.267h-33.7c-4.418 0-8-3.582-8-8v-17.134c0-4.418 3.582-8 8-8h33.7c4.418 0 8 3.582 8 8v17.133c0 4.419-3.582 8.001-8 8.001z" fill="#77dfff"/><g><path d="m384.784 106.9h-99.4c-4.142 0-7.5-3.358-7.5-7.5s3.358-7.5 7.5-7.5h99.4c4.142 0 7.5 3.358 7.5 7.5s-3.358 7.5-7.5 7.5z" fill="#5b7fa0"/></g><g><path d="m384.784 140.034h-99.4c-4.142 0-7.5-3.358-7.5-7.5s3.358-7.5 7.5-7.5h99.4c4.142 0 7.5 3.358 7.5 7.5s-3.358 7.5-7.5 7.5z" fill="#5b7fa0"/></g><g><path d="m384.784 173.167h-99.4c-4.142 0-7.5-3.358-7.5-7.5s3.358-7.5 7.5-7.5h99.4c4.142 0 7.5 3.358 7.5 7.5s-3.358 7.5-7.5 7.5z" fill="#5b7fa0"/></g><path d="m434.484 33.133h-23c9.15 0 16.567 7.417 16.567 16.567v198.8c0 9.149-7.417 16.567-16.567 16.567h23c9.15 0 16.567-7.417 16.567-16.567v-198.8c0-9.149-7.417-16.567-16.567-16.567z" fill="#336fe7"/><path d="m401.351 0h-23c9.15 0 16.567 7.417 16.567 16.567v186.834l23-4.6v-182.234c-.001-9.15-7.418-16.567-16.567-16.567z" fill="#d3dcfb"/><path d="m252.25 231.934c0-18.299 14.834-33.133 33.133-33.133h132.534v16.567c0 9.15-7.417 16.567-16.567 16.567z" fill="#bec8f7"/><path d="m394.917 198.801v16.567c0 9.15-7.417 16.567-16.567 16.567h-126.1 149.1c9.15 0 16.567-7.417 16.567-16.567v-16.567z" fill="#a2b6f4"/><path d="m219.117 0h-23c18.299 0 33.133 14.834 33.133 33.133v194.201l23.001 4.6v-198.801c-.001-18.299-14.835-33.133-33.134-33.133z" fill="#d3dcfb"/><path d="m252.25 231.934c0-18.299-14.834-33.133-33.133-33.133h-132.534v16.567c0 9.15 7.417 16.567 16.567 16.567z" fill="#bec8f7"/><path d="m229.25 231.934h23.001c0-18.299-14.834-33.133-33.133-33.133h-23c18.297 0 33.132 14.834 33.132 33.133z" fill="#a2b6f4"/><path d="m351.934 33.133h-23c4.418 0 8 3.582 8 8v17.133c0 4.418-3.582 8-8 8h23c4.418 0 8-3.582 8-8v-17.133c0-4.418-3.582-8-8-8z" fill="#69cdff"/><path d="m186.267 33.133h-23c4.418 0 8 3.582 8 8v17.133c0 4.418-3.582 8-8 8h23c4.418 0 8-3.582 8-8v-17.133c0-4.418-3.582-8-8-8z" fill="#69cdff"/><path d="m318.517 389.317c0-13.724 11.126-24.85 24.85-24.85h49.7c13.724 0 24.85 11.126 24.85 24.85v57.983c0 27.449-22.251 49.7-49.7 49.7s-49.7-22.251-49.7-49.7z" fill="#e9efff"/><path d="m393.067 364.467h-23c13.724 0 24.85 11.126 24.85 24.85v57.983c0 23.488-16.299 43.157-38.2 48.348 3.693.875 7.539 1.352 11.5 1.352 27.448 0 49.7-22.251 49.7-49.7v-57.983c0-13.724-11.126-24.85-24.85-24.85z" fill="#d3dcfb"/><path d="m318.517 406.667h99.4v15h-99.4z" fill="#a2b6f4"/><g><path d="m368.217 421.667c-4.143 0-7.5-3.358-7.5-7.5v-16.567c0-4.142 3.357-7.5 7.5-7.5s7.5 3.358 7.5 7.5v16.566c0 4.143-3.357 7.501-7.5 7.501z" fill="#5b7fa0"/></g></g></svg>