<svg id="Layer_1" enable-background="new 0 0 497 497" height="512" viewBox="0 0 497 497" width="512" xmlns="http://www.w3.org/2000/svg"><g><g><g><path d="m364.468 487.934h-33.135c-4.143 0-7.5-3.358-7.5-7.5s3.357-7.5 7.5-7.5h33.135c14.134 0 25.632-11.499 25.632-25.633v-49.701c0-4.142 3.357-7.5 7.5-7.5s7.5 3.358 7.5 7.5v49.701c0 22.405-18.228 40.633-40.632 40.633z" fill="#e9efff"/></g></g><g><g><path d="m397.422 206.3c-4.143 0-7.5-3.358-7.5-7.5v-33.133c0-33.54-11.936-66.069-33.61-91.595-2.682-3.158-2.295-7.891.862-10.572s7.892-2.294 10.571.863c23.974 28.235 37.177 64.212 37.177 101.304v33.133c0 4.142-3.357 7.5-7.5 7.5z" fill="#e9efff"/></g></g><g><g><path d="m99.223 206.3c-4.143 0-7.5-3.358-7.5-7.5v-33.133c0-37.328 13.352-73.48 37.596-101.796 2.694-3.146 7.429-3.513 10.575-.819s3.513 7.429.819 10.575c-21.919 25.6-33.99 58.287-33.99 92.04v33.133c0 4.142-3.358 7.5-7.5 7.5z" fill="#e9efff"/></g></g><path d="m314.767 497c9.15 0 16.567-7.417 16.567-16.567s-7.417-16.567-16.567-16.567h-49.7c-9.15 0-16.567 7.417-16.567 16.567 0 9.149 7.417 16.567 16.567 16.567z" fill="#5b7fa0"/><g><path d="m71.267 381.033h-38.135c-18.298 0-33.132-14.834-33.132-33.132v-99.401c0-18.298 14.834-33.132 33.133-33.132h38.134z" fill="#e9efff"/><g><path d="m66.267 338.833h-25.133c-8.547 0-15.5-6.953-15.5-15.5v-50.267c0-8.547 6.953-15.5 15.5-15.5h25.133c4.143 0 7.5 3.358 7.5 7.5s-3.357 7.5-7.5 7.5h-25.133c-.275 0-.5.224-.5.5v50.267c0 .276.225.5.5.5h25.133c4.143 0 7.5 3.358 7.5 7.5s-3.358 7.5-7.5 7.5z" fill="#368df6"/></g><path d="m74.267 397.6h50.267c4.418 0 8-3.582 8-8v-182.8c0-4.418-3.582-8-8-8h-50.267c-4.418 0-8 3.582-8 8v182.8c0 4.418 3.582 8 8 8z" fill="#5b7fa0"/><path d="m124.533 198.8h-30.414c4.418 0 8 3.582 8 8v182.8c0 4.418-3.582 8-8 8h30.415c4.418 0 8-3.582 8-8v-182.8c-.001-4.418-3.582-8-8.001-8z" fill="#4a6f99"/><path d="m425.733 381.033h38.134c18.299 0 33.133-14.834 33.133-33.132v-99.401c0-18.298-14.834-33.132-33.132-33.132h-38.134v165.665z" fill="#e9efff"/><g><path d="m430.733 338.833h25.133c8.547 0 15.5-6.953 15.5-15.5v-50.267c0-8.547-6.953-15.5-15.5-15.5h-25.133c-4.143 0-7.5 3.358-7.5 7.5s3.357 7.5 7.5 7.5h25.133c.275 0 .5.224.5.5v50.267c0 .276-.225.5-.5.5h-25.133c-4.143 0-7.5 3.358-7.5 7.5s3.358 7.5 7.5 7.5z" fill="#368df6"/></g><path d="m372.467 397.6h50.267c4.418 0 8-3.582 8-8v-182.8c0-4.418-3.582-8-8-8h-50.267c-4.418 0-8 3.582-8 8v182.8c0 4.418 3.581 8 8 8z" fill="#5b7fa0"/><path d="m422.733 198.8h-30.415c4.418 0 8 3.582 8 8v182.8c0 4.418-3.582 8-8 8h30.415c4.418 0 8-3.582 8-8v-182.8c0-4.418-3.582-8-8-8z" fill="#4a6f99"/><path d="m497 248.499c0-18.298-14.834-33.132-33.132-33.132h-29.633c18.299 0 33.133 14.834 33.133 33.132v99.401c0 18.298-14.834 33.132-33.133 33.132h29.633c18.299 0 33.133-14.834 33.133-33.132z" fill="#d3dcfb"/></g><path d="m248.322 0c-46.913 0-89.331 19.603-119.501 51.045-3.128 3.26-3.088 8.422.107 11.617l11.71 11.71c3.299 3.299 8.648 3.203 11.87-.171 24.149-25.287 58.171-41.067 95.814-41.067 37.852 0 72.045 15.953 96.218 41.487 3.217 3.398 8.586 3.506 11.894.197l11.709-11.709c3.187-3.187 3.235-8.332.127-11.596-30.197-31.716-72.803-51.513-119.948-51.513z" fill="#5b7fa0"/><path d="m331.156 265.067c0-46.247-37.899-83.642-84.334-82.82-45.319.802-81.333 37.495-81.333 82.821 0 30.629 16.632 57.362 41.351 71.692 5.115 2.965 8.349 8.345 8.349 14.257v18.45h66.267v-18.324c0-5.981 3.264-11.427 8.435-14.432 24.672-14.343 41.265-41.05 41.265-71.644z" fill="#ffc55e"/><path d="m246.822 182.247c-3.378.06-6.697.342-9.96.79 40.284 5.616 71.294 40.199 71.294 82.03 0 30.594-16.593 57.301-41.265 71.643-5.171 3.006-8.435 8.452-8.435 14.432v18.324h23v-18.324c0-5.981 3.264-11.427 8.435-14.432 24.672-14.342 41.265-41.05 41.265-71.643 0-46.247-37.9-83.642-84.334-82.82z" fill="#ffa438"/><path d="m265.456 430.733h-34.267c-8.837 0-16-7.163-16-16v-21.133h66.267v21.133c0 8.837-7.164 16-16 16z" fill="#bec8f7"/><path d="m258.456 393.6v21.133c0 8.837-7.163 16-16 16h23c8.837 0 16-7.163 16-16v-21.133z" fill="#a2b6f4"/><path d="m281.456 397.6c9.15 0 16.567-7.417 16.567-16.567s-7.417-16.567-16.567-16.567h-66.267c-9.149 0-16.567 7.417-16.567 16.567 0 9.149 7.417 16.567 16.567 16.567z" fill="#e9efff"/><path d="m281.456 364.467h-23c9.15 0 16.567 7.417 16.567 16.567s-7.417 16.567-16.567 16.567h23c9.15 0 16.567-7.417 16.567-16.567-.001-9.15-7.418-16.567-16.567-16.567z" fill="#d3dcfb"/><g><path d="m264.889 305.7h-33.134c-4.143 0-7.5-3.358-7.5-7.5 0-4.143 3.357-7.5 7.5-7.5h33.134c4.143 0 7.5 3.357 7.5 7.5 0 4.142-3.357 7.5-7.5 7.5z" fill="#5b7fa0"/></g><path d="m240.823 364.467v-66.267c0-4.143 3.357-7.5 7.5-7.5s7.5 3.357 7.5 7.5v66.267z" fill="#5b7fa0"/><g fill="#4a6f99"><path d="m314.767 463.867h-30.178c9.15 0 16.567 7.417 16.567 16.567 0 9.149-7.417 16.567-16.567 16.567h30.178c9.15 0 16.567-7.417 16.567-16.567-.001-9.15-7.418-16.567-16.567-16.567z"/><path d="m368.27 51.512c-30.197-31.715-72.803-51.512-119.948-51.512-5.057 0-10.057.241-15 .687 41.138 3.71 77.99 22.511 104.948 50.824 3.108 3.264 3.06 8.409-.127 11.596l-2.74 2.74c3.182 2.78 6.234 5.705 9.137 8.772 3.217 3.398 8.586 3.506 11.894.197l11.709-11.709c3.187-3.186 3.235-8.331.127-11.595z"/></g></g></svg>