<svg id="Layer_1" enable-background="new 0 0 497 497" height="512" viewBox="0 0 497 497" width="512" xmlns="http://www.w3.org/2000/svg"><g><g><path d="m33.134 33.133c-18.299 0-33.132 14.834-33.132 33.132v265.069l7 15.196-7 17.937h496.997l-7-17.432 7-15.702v-265.067c0-18.299-14.834-33.132-33.132-33.132h-430.733z" fill="#5b7fa0"/><path d="m496.998 364.468-6-17.432 6-15.702v-265.068c0-18.299-14.834-33.132-33.133-33.132h-23c18.299 0 33.133 14.834 33.133 33.132v298.203h23z" fill="#4a6f99"/><g><g><g><path d="m318.909 463.863-8.283-66.263v-8.1h-124.251v8.1l-8.284 66.263v9.303h140.818z" fill="#bec8f7"/></g></g></g><g><g><path d="m265.067 438.233h-33.133c-4.142 0-7.5-3.358-7.5-7.5v-33.132c0-4.142 3.358-7.5 7.5-7.5s7.5 3.358 7.5 7.5v25.632h18.133v-25.632c0-4.142 3.358-7.5 7.5-7.5s7.5 3.358 7.5 7.5v33.132c0 4.142-3.358 7.5-7.5 7.5z" fill="#a2b6f4"/></g></g><path d="m33.133 331.334v-256.783c0-4.575 3.708-8.283 8.283-8.283h414.168c4.575 0 8.283 3.709 8.283 8.283v256.783z" fill="#77dfff"/><path d="m455.584 66.268h-23.002c4.575 0 8.283 3.709 8.283 8.283v256.783h23.002v-256.783c0-4.575-3.708-8.283-8.283-8.283z" fill="#69cdff"/><path d="m356.467 463.868h-215.933c-4.418 0-8 3.582-8 8v17.132c0 4.418 3.582 8 8 8h215.933c4.418 0 8-3.582 8-8v-17.132c0-4.418-3.582-8-8-8z" fill="#e9efff"/><path d="m356.467 463.868h-23c4.418 0 8 3.582 8 8v17.132c0 4.418-3.582 8-8 8h23c4.418 0 8-3.582 8-8v-17.132c0-4.418-3.582-8-8-8z" fill="#d3dcfb"/><g><g><path d="m248.5 305.699c-4.143 0-7.5-3.358-7.5-7.5v-49.7c0-4.142 3.357-7.5 7.5-7.5s7.5 3.358 7.5 7.5v49.7c0 4.142-3.357 7.5-7.5 7.5z" fill="#e9efff"/></g></g><g><g><path d="m381.034 305.699h-265.067c-13.271 0-24.066-10.796-24.066-24.066v-49.7c0-4.142 3.357-7.5 7.5-7.5s7.5 3.358 7.5 7.5v49.7c0 4.999 4.067 9.066 9.066 9.066h265.066c4.999 0 9.066-4.067 9.066-9.066v-49.7c0-4.142 3.357-7.5 7.5-7.5s7.5 3.358 7.5 7.5v49.7c.001 13.27-10.795 24.066-24.065 24.066z" fill="#e9efff"/></g></g><path d="m331.334 82.833c0-46.247-37.899-83.642-84.334-82.82-45.319.802-81.333 37.495-81.333 82.821 0 30.629 16.632 57.362 41.351 71.692 5.115 2.965 8.349 8.345 8.349 14.257v18.45h66.267v-18.324c0-5.981 3.264-11.427 8.435-14.432 24.672-14.343 41.265-41.05 41.265-71.644z" fill="#ffc55e"/><path d="m247 .013c-3.378.06-6.697.342-9.96.79 40.284 5.616 71.294 40.199 71.294 82.03 0 30.594-16.593 57.301-41.265 71.643-5.171 3.006-8.435 8.452-8.435 14.432v18.324h23v-18.324c0-5.981 3.264-11.427 8.435-14.432 24.672-14.342 41.265-41.05 41.265-71.643 0-46.247-37.9-83.641-84.334-82.82z" fill="#ffa438"/><path d="m265.634 248.5h-34.267c-8.837 0-16-7.163-16-16v-21.133h66.267v21.133c0 8.837-7.163 16-16 16z" fill="#bec8f7"/><path d="m258.634 211.367v21.133c0 8.837-7.163 16-16 16h23c8.837 0 16-7.163 16-16v-21.133z" fill="#a2b6f4"/><path d="m281.634 215.367c9.15 0 16.567-7.417 16.567-16.567s-7.417-16.567-16.567-16.567h-66.267c-9.15 0-16.567 7.417-16.567 16.567s7.417 16.567 16.567 16.567z" fill="#e9efff"/><path d="m281.634 182.233h-23c9.15 0 16.567 7.417 16.567 16.567s-7.417 16.567-16.567 16.567h23c9.15 0 16.567-7.417 16.567-16.567s-7.417-16.567-16.567-16.567z" fill="#d3dcfb"/><g><path d="m265.067 123.467h-33.134c-4.143 0-7.5-3.357-7.5-7.5s3.357-7.5 7.5-7.5h33.134c4.143 0 7.5 3.357 7.5 7.5 0 4.142-3.357 7.5-7.5 7.5z" fill="#5b7fa0"/></g><path d="m241.001 182.233v-66.267c0-4.143 3.357-7.5 7.5-7.5s7.5 3.357 7.5 7.5v66.267z" fill="#5b7fa0"/><g><path d="m99.401 239.433c-13.271 0-24.066-10.796-24.066-24.066s10.795-24.067 24.066-24.067 24.066 10.796 24.066 24.066-10.796 24.067-24.066 24.067zm0-33.133c-4.999 0-9.066 4.067-9.066 9.066s4.067 9.066 9.066 9.066 9.066-4.067 9.066-9.066-4.067-9.066-9.066-9.066z" fill="#5b7fa0"/></g><g><path d="m397.6 239.433c-13.27 0-24.066-10.796-24.066-24.066s10.795-24.067 24.066-24.067 24.066 10.796 24.066 24.066-10.796 24.067-24.066 24.067zm0-33.133c-4.999 0-9.066 4.067-9.066 9.066s4.067 9.066 9.066 9.066 9.066-4.067 9.066-9.066-4.067-9.066-9.066-9.066z" fill="#5b7fa0"/></g></g><path d="m496.998 364.468v-33.133h-496.996v33.133c0 18.299 14.834 33.132 33.132 33.132h430.732c18.298.001 33.132-14.833 33.132-33.132z" fill="#e9efff"/><path d="m473.998 364.468c0 18.299-14.834 33.132-33.133 33.132h23c18.299 0 33.133-14.834 33.133-33.132v-33.133h-23z" fill="#d3dcfb"/></g></svg>