<svg id="Layer_1" enable-background="new 0 0 497 497" height="512" viewBox="0 0 497 497" width="512" xmlns="http://www.w3.org/2000/svg"><g><g><path d="m381.033 71.267v-54.7c0-9.15-7.417-16.567-16.566-16.567h-298.2c-9.15 0-16.567 7.417-16.567 16.567v364.466c0 9.15 7.417 16.567 16.567 16.567h49.7z" fill="#bec8f7"/><path d="m364.467 0h-23c9.149 0 16.567 7.417 16.567 16.567v82.921l23-28.221v-54.7c-.001-9.15-7.418-16.567-16.567-16.567z" fill="#a2b6f4"/></g><path d="m447.3 480.433c0 9.149-7.417 16.567-16.567 16.567h-298.2c-9.149 0-16.567-7.417-16.567-16.567v-397.6c0-9.149 7.417-16.567 16.567-16.567h220.714l11.242 2 9.682-2c4.394 0 8.607 1.745 11.714 4.852l56.562 56.561c3.107 3.107 4.852 7.321 4.852 11.715v341.039z" fill="#e9efff"/><path d="m323.333 165.667h-83.4c-4.418 0-8-3.582-8-8v-17.133c0-4.418 3.582-8 8-8h83.4c4.418 0 8 3.582 8 8v17.133c0 4.418-3.581 8-8 8z" fill="#77dfff"/><g><path d="m397.6 206.044h-231.933c-4 0-7.243-3.243-7.243-7.244s3.243-7.244 7.243-7.244h231.933c4 0 7.243 3.243 7.243 7.244 0 4-3.243 7.244-7.243 7.244z" fill="#5b7fa0"/></g><g><path d="m397.6 239.177h-231.933c-4 0-7.243-3.243-7.243-7.244s3.243-7.244 7.243-7.244h231.933c4 0 7.243 3.243 7.243 7.244s-3.243 7.244-7.243 7.244z" fill="#5b7fa0"/></g><g><path d="m397.6 272.31h-231.933c-4 0-7.243-3.243-7.243-7.244 0-4 3.243-7.244 7.243-7.244h231.933c4 0 7.243 3.243 7.243 7.244s-3.243 7.244-7.243 7.244z" fill="#5b7fa0"/></g><g><path d="m347.9 305.444h-132.534c-4 0-7.243-3.243-7.243-7.244 0-4 3.243-7.244 7.243-7.244h132.534c4 0 7.243 3.243 7.243 7.244.001 4.001-3.243 7.244-7.243 7.244z" fill="#5b7fa0"/></g><g><g><g><path d="m323.049 437.979c-.845 0-1.704-.149-2.542-.463-3.746-1.405-5.643-5.58-4.239-9.326l24.851-66.267c1.06-2.827 3.763-4.7 6.782-4.7 3.02 0 5.722 1.873 6.782 4.7l24.85 66.267c1.404 3.746-.493 7.921-4.239 9.326-3.741 1.405-7.92-.493-9.325-4.239l-18.069-48.181-18.068 48.181c-1.091 2.908-3.851 4.702-6.783 4.702z" fill="#5b7fa0"/></g><g><path d="m366.538 421.411h-37.275c-4 0-7.243-3.243-7.243-7.244 0-4 3.243-7.244 7.243-7.244h37.275c4 0 7.243 3.243 7.243 7.244s-3.243 7.244-7.243 7.244z" fill="#5b7fa0"/></g></g><g><path d="m347.9 471.11c-40.533 0-73.51-32.977-73.51-73.51s32.977-73.51 73.51-73.51 73.51 32.977 73.51 73.51-32.976 73.51-73.51 73.51zm0-132.533c-32.546 0-59.023 26.478-59.023 59.023s26.478 59.023 59.023 59.023 59.023-26.477 59.023-59.023-26.477-59.023-59.023-59.023z" fill="#5b7fa0"/></g></g><path d="m442.448 127.68-56.562-56.561c-3.107-3.107-7.321-4.852-11.714-4.852h-23c4.394 0 8.608 1.745 11.714 4.852l56.562 56.561c3.107 3.107 4.852 7.321 4.852 11.715v341.039c0 9.15-7.417 16.567-16.567 16.567h23c9.149 0 16.567-7.417 16.567-16.567v-341.039c0-4.394-1.745-8.608-4.852-11.715z" fill="#bec8f7"/><path d="m442.448 127.68-56.562-56.561c-1.415-1.415-3.066-2.531-4.853-3.344v48.192c0 9.149 7.417 16.567 16.567 16.567h48.192c-.813-1.787-1.93-3.439-3.344-4.854z" fill="#bec8f7"/><path d="m383.849 69.41c-.094-.068-.185-.142-.28-.207-.391-.267-.793-.518-1.204-.75-.008-.004-.015-.009-.023-.014-.426-.24-.862-.461-1.307-.664-.001 0-.001-.001-.001-.001v21.492l38.414 38.414c1.415 1.415 2.531 3.067 3.345 4.853h23c-.203-.445-.424-.882-.665-1.309-.003-.006-.007-.012-.011-.018-.233-.413-.484-.816-.753-1.209-.065-.094-.138-.184-.205-.277-.218-.306-.44-.611-.681-.902-.326-.393-.667-.774-1.031-1.138l-56.562-56.561c-.363-.364-.745-.705-1.138-1.031-.289-.239-.593-.46-.898-.678z" fill="#a2b6f4"/><path d="m323.333 132.533h-23c4.418 0 8 3.582 8 8v17.133c0 4.418-3.582 8-8 8h23c4.418 0 8-3.582 8-8v-17.133c0-4.418-3.581-8-8-8z" fill="#69cdff"/></g></svg>