<svg id="Layer_1" enable-background="new 0 0 497 497" height="512" viewBox="0 0 497 497" width="512" xmlns="http://www.w3.org/2000/svg"><g><g><g><path d="m198.8 355.4c-4.142 0-7.5-3.357-7.5-7.5v-16.567c0-4.999-4.067-9.066-9.066-9.066h-149.1c-13.27 0-24.066-10.796-24.066-24.066s10.796-24.066 24.066-24.066h99.4c4.999 0 9.067-4.067 9.067-9.067 0-4.999-4.067-9.066-9.067-9.066h-99.4c-13.27 0-24.066-10.796-24.066-24.066s10.796-24.067 24.066-24.067h99.4c4.999 0 9.067-4.067 9.067-9.066s-4.067-9.066-9.067-9.066h-99.4c-13.27 0-24.066-10.796-24.066-24.066 0-13.271 10.796-24.067 24.066-24.067h165.666c4.142 0 7.5 3.357 7.5 7.5s-3.358 7.5-7.5 7.5h-165.667c-4.999 0-9.066 4.067-9.066 9.067 0 4.999 4.067 9.066 9.066 9.066h99.4c13.27 0 24.067 10.796 24.067 24.066s-10.796 24.066-24.067 24.066h-99.4c-4.999 0-9.066 4.067-9.066 9.067 0 4.999 4.067 9.066 9.066 9.066h99.4c13.27 0 24.067 10.796 24.067 24.066s-10.796 24.067-24.067 24.067h-99.4c-4.999 0-9.066 4.067-9.066 9.066s4.067 9.066 9.066 9.066h149.1c13.27 0 24.066 10.796 24.066 24.066v16.567c.001 4.143-3.357 7.5-7.499 7.5z" fill="#5b7fa0"/></g></g><g><circle cx="347.9" cy="149.1" fill="#77dfff" r="149.1"/><g fill="#69cdff"><path d="m347.9 0c-3.87 0-7.705.148-11.5.437 76.972 5.872 137.6 70.187 137.6 148.663s-60.628 142.791-137.6 148.663c3.795.289 7.63.437 11.5.437 82.346 0 149.1-66.754 149.1-149.1 0-82.346-66.754-149.1-149.1-149.1z"/><path d="m496.813 156.6c.123-2.484.187-4.984.187-7.5 0-2.515-.064-5.016-.188-7.5h-66.946c-.528-24.337-3.62-47.739-9.008-68.833 15.56-4.211 29.756-9.771 41.834-16.519.433-.242.83-.522 1.194-.831-3.203-3.961-6.601-7.757-10.187-11.369-10.754 5.802-23.269 10.63-36.995 14.33-2.734-8.457-5.865-16.445-9.381-23.851-5.44-11.459-11.591-21.092-18.276-28.773-13.07-3.745-26.873-5.754-41.147-5.754s-28.077 2.009-41.147 5.754c-6.685 7.681-12.836 17.314-18.275 28.773-3.516 7.406-6.647 15.394-9.381 23.851-13.726-3.7-26.241-8.527-36.996-14.33-3.586 3.611-6.984 7.408-10.187 11.368.364.309.762.589 1.194.831 12.078 6.748 26.275 12.308 41.835 16.519-5.388 21.094-8.48 44.496-9.008 68.833h-66.947c-.123 2.485-.188 4.985-.188 7.5s.064 5.015.187 7.5h66.947c.528 24.337 3.62 47.74 9.009 68.834-15.56 4.211-29.755 9.771-41.833 16.518-.433.242-.831.522-1.195.831 3.203 3.961 6.601 7.757 10.187 11.368 10.754-5.802 23.269-10.629 36.996-14.329 2.734 8.457 5.865 16.445 9.381 23.851 5.44 11.459 11.59 21.092 18.276 28.773 13.07 3.745 26.874 5.754 41.147 5.754 14.274 0 28.077-2.009 41.147-5.754 6.685-7.681 12.836-17.314 18.276-28.773 3.516-7.406 6.647-15.394 9.381-23.851 13.726 3.7 26.241 8.527 36.996 14.329 3.589-3.614 6.989-7.413 10.194-11.378-.346-.286-.718-.55-1.124-.777-12.096-6.768-26.32-12.343-41.913-16.563 5.388-21.094 8.481-44.497 9.009-68.833h66.945zm-156.413 140.649c-18.825-4.909-35.564-27.989-46.464-60.894 14.683-2.941 30.373-4.691 46.464-5.107zm0-81.002c-17.526.434-34.661 2.382-50.702 5.684-5.073-19.61-8.206-41.854-8.759-65.331h59.461zm0-74.647h-59.461c.553-23.477 3.686-45.721 8.759-65.33 16.041 3.302 33.176 5.25 50.702 5.684zm0-74.648c-16.091-.415-31.781-2.166-46.464-5.106 10.9-32.906 27.638-55.986 46.464-60.895zm15-66.001c18.826 4.909 35.565 27.989 46.465 60.895-14.683 2.94-30.373 4.691-46.465 5.106zm0 296.298v-66.001c16.092.415 31.782 2.166 46.465 5.106-10.9 32.906-27.64 55.987-46.465 60.895zm50.703-75.319c-16.041-3.302-33.175-5.25-50.703-5.684v-59.646h59.462c-.553 23.477-3.686 45.721-8.759 65.33zm-50.703-80.33v-59.647c17.526-.434 34.662-2.382 50.703-5.684 5.073 19.61 8.206 41.853 8.759 65.33h-59.462z"/></g></g><path d="m381.033 347.9c9.15 0 16.567 7.417 16.567 16.567v115.967c0 9.15-7.417 16.567-16.567 16.567h-364.466c-9.15-.001-16.567-7.418-16.567-16.568v-115.966c0-9.15 7.417-16.567 16.567-16.567z" fill="#e9efff"/><path d="m190.8 463.867h-149.667c-4.418 0-8-3.582-8-8v-17.133c0-4.418 3.582-8 8-8h149.667c4.418 0 8 3.582 8 8v17.133c0 4.418-3.582 8-8 8z" fill="#a2b6f4"/><g><g><path d="m364.466 388.533h-16.566c-4.142 0-7.5-3.358-7.5-7.5s3.358-7.5 7.5-7.5h16.566c4.142 0 7.5 3.358 7.5 7.5s-3.357 7.5-7.5 7.5z" fill="#a2b6f4"/></g></g><g><g><path d="m314.767 388.533h-16.567c-4.142 0-7.5-3.358-7.5-7.5s3.358-7.5 7.5-7.5h16.567c4.142 0 7.5 3.358 7.5 7.5s-3.358 7.5-7.5 7.5z" fill="#a2b6f4"/></g></g><g><g><path d="m265.067 388.533h-16.567c-4.142 0-7.5-3.358-7.5-7.5s3.358-7.5 7.5-7.5h16.566c4.142 0 7.5 3.358 7.5 7.5s-3.357 7.5-7.499 7.5z" fill="#a2b6f4"/></g></g><g><g><path d="m149.1 388.533h-16.566c-4.142 0-7.5-3.358-7.5-7.5s3.358-7.5 7.5-7.5h16.566c4.142 0 7.5 3.358 7.5 7.5s-3.358 7.5-7.5 7.5z" fill="#a2b6f4"/></g></g><g><g><path d="m198.8 388.533h-16.567c-4.142 0-7.5-3.358-7.5-7.5s3.358-7.5 7.5-7.5h16.567c4.142 0 7.5 3.358 7.5 7.5s-3.358 7.5-7.5 7.5z" fill="#a2b6f4"/></g></g><g><g><path d="m99.4 388.533h-16.567c-4.142 0-7.5-3.358-7.5-7.5s3.358-7.5 7.5-7.5h16.567c4.142 0 7.5 3.358 7.5 7.5s-3.358 7.5-7.5 7.5z" fill="#a2b6f4"/></g></g><g><g><path d="m49.7 388.533h-16.567c-4.142 0-7.5-3.358-7.5-7.5s3.358-7.5 7.5-7.5h16.567c4.142 0 7.5 3.358 7.5 7.5s-3.358 7.5-7.5 7.5z" fill="#a2b6f4"/></g></g><g><g><path d="m364.466 429.95h-16.566c-4.142 0-7.5-3.358-7.5-7.5s3.358-7.5 7.5-7.5h16.566c4.142 0 7.5 3.358 7.5 7.5s-3.357 7.5-7.5 7.5z" fill="#a2b6f4"/></g></g><g><g><path d="m314.767 429.95h-16.567c-4.142 0-7.5-3.358-7.5-7.5s3.358-7.5 7.5-7.5h16.567c4.142 0 7.5 3.358 7.5 7.5s-3.358 7.5-7.5 7.5z" fill="#a2b6f4"/></g></g><g><g><path d="m265.067 429.95h-16.567c-4.142 0-7.5-3.358-7.5-7.5s3.358-7.5 7.5-7.5h16.566c4.142 0 7.5 3.358 7.5 7.5s-3.357 7.5-7.499 7.5z" fill="#a2b6f4"/></g></g><g><g><path d="m364.466 471.367h-16.566c-4.142 0-7.5-3.358-7.5-7.5s3.358-7.5 7.5-7.5h16.566c4.142 0 7.5 3.358 7.5 7.5s-3.357 7.5-7.5 7.5z" fill="#a2b6f4"/></g></g><g><g><path d="m314.767 471.367h-16.567c-4.142 0-7.5-3.358-7.5-7.5s3.358-7.5 7.5-7.5h16.567c4.142 0 7.5 3.358 7.5 7.5s-3.358 7.5-7.5 7.5z" fill="#a2b6f4"/></g></g><g><g><path d="m265.067 471.367h-16.567c-4.142 0-7.5-3.358-7.5-7.5s3.358-7.5 7.5-7.5h16.566c4.142 0 7.5 3.358 7.5 7.5s-3.357 7.5-7.499 7.5z" fill="#a2b6f4"/></g></g><path d="m381.033 347.9h-23c9.149 0 16.567 7.417 16.567 16.567v115.967c0 9.15-7.417 16.567-16.567 16.567h23c9.15 0 16.567-7.417 16.567-16.567v-115.967c0-9.15-7.417-16.567-16.567-16.567z" fill="#d3dcfb"/></g></svg>