<svg id="Layer_1" enable-background="new 0 0 496.98 496.98" height="512" viewBox="0 0 496.98 496.98" width="512" xmlns="http://www.w3.org/2000/svg"><g><g><g><path d="m430.607 331.419-165.561 16.556h-99.337l-132.449-16.556c-18.287 0-33.112 14.825-33.112 33.112v82.781c0 18.287 14.825 33.112 33.112 33.112l132.449-16.556h99.337l165.561 16.556z" fill="#e9efff"/><path d="m463.107 358.158c-2.931-15.034-16.035-26.43-31.854-26.733-18.563-.355-33.758 15.193-33.758 33.76v82.127c0 18.287 14.825 33.112 33.112 33.112h33.112c18.287 0 33.112-14.825 33.112-33.112v-66.225c0-9.144-7.412-16.556-16.556-16.556h-9.342c-3.79 0-7.101-2.653-7.826-6.373z" fill="#bec8f7"/><path d="m471.22 430.756v-66.225h-.286c-3.791 0-7.102-2.653-7.827-6.374-1.067-5.471-3.486-10.456-6.887-14.604v87.203c0 4.993-4.062 9.056-9.056 9.056s-9.056-4.063-9.056-9.056v-66.225c0-4.143-3.358-7.5-7.5-7.5s-7.5 3.357-7.5 7.5v66.225c0 13.265 10.792 24.056 24.056 24.056s24.056-10.791 24.056-24.056z" fill="#a2b6f4"/><path d="m165.709 347.975h99.337v115.893h-99.337z" fill="#ffc55e"/><path d="m242.046 347.975h23v115.893h-23z" fill="#ffa438"/></g><path d="m223.934 496.98h-17.112c-4.418 0-8-3.582-8-8v-107.893h33.112v107.893c0 4.418-3.582 8-8 8z" fill="#368df6"/><path d="m165.709 373.587h99.337v15h-99.337z" fill="#5b7fa0"/><g><path d="m99.362 105.731h297.985v151.225h-297.985z" fill="#336fe7"/><path d="m462.627 243.114 7.61 45.55c.841 5.045-3.05 9.638-8.165 9.638h-30.122c-5.115 0-9.006-4.593-8.165-9.638l7.611-45.55z" fill="#ffa438"/><g><path d="m447.012 206.474c-4.142 0-7.5-3.357-7.5-7.5v-106.423c0-4.143 3.358-7.5 7.5-7.5s7.5 3.357 7.5 7.5v106.423c0 4.142-3.358 7.5-7.5 7.5z" fill="#5b7fa0"/></g><path d="m397.348 232.083v-126.352h-23v126.352 24.873z" fill="#325be3"/><path d="m237.219 159.522-198.804-71.001c-7.325-2.616-7.325-12.974 0-15.59l198.804-71.002c7.201-2.572 15.071-2.572 22.272 0l198.804 71.001c7.324 2.616 7.324 12.974 0 15.59l-198.804 71.002c-7.201 2.572-15.071 2.572-22.272 0z" fill="#368df6"/><path d="m458.295 72.93-198.804-71.001c-7.201-2.572-15.071-2.572-22.272 0l-.364.13 198.44 70.872c7.324 2.616 7.324 12.974 0 15.59l-198.44 70.872.364.13c7.201 2.572 15.071 2.572 22.272 0l198.804-71.001c7.325-2.617 7.325-12.975 0-15.592z" fill="#336fe7"/><circle cx="447.012" cy="223.805" fill="#ffc55e" r="24.832"/></g><path d="m198.822 406.699h33.112v15h-33.112z" fill="#336fe7"/></g><path d="m115.917 273.511h264.876c9.143 0 16.555-7.412 16.555-16.555v-24.874h-297.986v24.874c0 9.143 7.412 16.555 16.555 16.555z" fill="#ffc55e"/><path d="m374.348 256.956c0 9.143-7.412 16.555-16.555 16.555h23c9.143 0 16.555-7.412 16.555-16.555v-24.874h-23z" fill="#ffa438"/></g></svg>