<svg id="Layer_1" enable-background="new 0 0 497 497" height="512" viewBox="0 0 497 497" width="512" xmlns="http://www.w3.org/2000/svg"><g><path d="m463.866 435.733v-286.634c0-18.299-14.834-33.133-33.133-33.133h-364.467c-18.299 0-33.132 14.834-33.132 33.133v286.634z" fill="#5b7fa0"/><path d="m430.734 115.966h-23c18.299 0 33.133 14.834 33.133 33.133v286.634h23v-286.634c-.001-18.299-14.835-33.133-33.133-33.133z" fill="#4a6f99"/><path d="m66.265 430.732v-273.348c0-4.575 3.708-8.283 8.283-8.283h347.903c4.575 0 8.283 3.709 8.283 8.283v273.347h-364.469z" fill="#77dfff"/><path d="m422.452 149.101h-23.002c4.575 0 8.283 3.709 8.283 8.283v273.347h23.002v-273.347c0-4.575-3.708-8.283-8.283-8.283z" fill="#69cdff"/><path d="m465 497h-433c-17.673 0-32-14.327-32-32v-26.267c0-4.418 3.582-8 8-8h481c4.418 0 8 3.582 8 8v26.267c0 17.673-14.327 32-32 32z" fill="#e9efff"/><g fill="#bec8f7"><path d="m290.7 430.733v24.85c0 .432-.352.784-.784.784h-82.833c-.432 0-.784-.352-.784-.784v-24.85h-15v24.85c0 8.703 7.081 15.784 15.784 15.784h82.833c8.703 0 15.784-7.081 15.784-15.784v-24.85z"/><path d="m42.2 497v-16.567c0-4.142 3.358-7.5 7.5-7.5s7.5 3.358 7.5 7.5v16.567z"/><path d="m75.333 497v-16.567c0-4.142 3.358-7.5 7.5-7.5s7.5 3.358 7.5 7.5v16.567z"/><path d="m108.467 497v-16.567c0-4.142 3.358-7.5 7.5-7.5s7.5 3.358 7.5 7.5v16.567z"/></g><path d="m489 430.733h-23c4.418 0 8 3.582 8 8v26.267c0 17.673-14.327 32-32 32h23c17.673 0 32-14.327 32-32v-26.267c0-4.418-3.582-8-8-8z" fill="#d3dcfb"/><g><path d="m281.633 141.278v-97.578h-66.267v97.578c0 5.144-1.198 10.217-3.498 14.818l-71.926 143.853c-11.015 22.03 5.005 47.951 29.635 47.951h157.845c24.631 0 40.651-25.921 29.635-47.951l-71.927-143.853c-2.299-4.601-3.497-9.674-3.497-14.818z" fill="#e9efff"/><path d="m200.421 253.079-18.856 37.712c-5.508 11.015 2.502 23.975 14.818 23.975h104.234c12.315 0 20.325-12.96 14.818-23.975l-18.856-37.712c-1.403-2.806-4.271-4.579-7.409-4.579h-81.34c-3.137 0-6.005 1.773-7.409 4.579z" fill="#89e56a"/><path d="m215.367 75.333h66.267v15h-66.267z" fill="#e9efff"/><path d="m357.058 299.949-71.927-143.853c-2.3-4.601-3.498-9.674-3.498-14.818v-97.578h-23v97.578c0 5.144 1.198 10.217 3.498 14.818l71.927 143.853c11.015 22.03-5.005 47.951-29.635 47.951h23c24.63 0 40.65-25.921 29.635-47.951z" fill="#d3dcfb"/><path d="m290.2 49.7h-83.4c-4.418 0-8-3.582-8-8v-33.7c0-4.418 3.582-8 8-8h83.4c4.418 0 8 3.582 8 8v33.7c0 4.418-3.582 8-8 8z" fill="#e9efff"/><path d="m290.2 49.7h-83.4c-4.418 0-8-3.582-8-8v-33.7c0-4.418 3.582-8 8-8h83.4c4.418 0 8 3.582 8 8v33.7c0 4.418-3.582 8-8 8z" fill="#e9efff"/><path d="m290.2 0h-23c4.418 0 8 3.582 8 8v33.7c0 4.418-3.582 8-8 8h23c4.418 0 8-3.582 8-8v-33.7c0-4.418-3.582-8-8-8z" fill="#d3dcfb"/><path d="m315.435 290.791-18.856-37.712c-1.403-2.806-4.271-4.579-7.409-4.579h-23.005c3.137 0 6.006 1.773 7.409 4.579l18.856 37.712c5.508 11.015-2.502 23.976-14.818 23.976h23.005c12.315 0 20.325-12.961 14.818-23.976z" fill="#57cf97"/></g></g></svg>