<svg id="Layer_1" enable-background="new 0 0 497 497" height="512" viewBox="0 0 497 497" width="512" xmlns="http://www.w3.org/2000/svg"><g><g><path d="m33.134 33.133c-18.299 0-33.132 14.834-33.132 33.132v265.069l5 17.175-5 15.958h496.997l-14-16.337 14-16.796v-265.069c0-18.299-14.834-33.132-33.132-33.132z" fill="#5b7fa0"/><path d="m496.998 364.468-11-16.337 11-16.796v-265.07c0-18.299-14.834-33.132-33.132-33.132h-23c18.299 0 33.132 14.834 33.132 33.132v298.203z" fill="#4a6f99"/><path d="m318.909 463.862-8.283-66.263v-8.1h-124.251v8.1l-8.284 66.263v9.304h140.818z" fill="#bec8f7"/><path d="m265.067 438.233h-33.133c-4.142 0-7.5-3.358-7.5-7.5v-33.133c0-4.142 3.358-7.5 7.5-7.5s7.5 3.358 7.5 7.5v25.632h18.133v-25.632c0-4.142 3.358-7.5 7.5-7.5s7.5 3.358 7.5 7.5v33.132c0 4.143-3.358 7.501-7.5 7.501z" fill="#a2b6f4"/><path d="m33.133 331.334v-256.783c0-4.575 3.708-8.283 8.283-8.283h414.168c4.575 0 8.283 3.709 8.283 8.283v256.783z" fill="#77dfff"/><path d="m455.584 66.267h-23.002c4.575 0 8.283 3.709 8.283 8.283v256.783h23.002v-256.782c0-4.575-3.708-8.284-8.283-8.284z" fill="#69cdff"/><path d="m356.467 463.868h-215.933c-4.418 0-8 3.582-8 8v17.132c0 4.418 3.582 8 8 8h215.933c4.418 0 8-3.582 8-8v-17.132c0-4.419-3.582-8-8-8z" fill="#e9efff"/><path d="m356.467 463.868h-23c4.418 0 8 3.582 8 8v17.132c0 4.418-3.582 8-8 8h23c4.418 0 8-3.582 8-8v-17.132c0-4.419-3.582-8-8-8z" fill="#d3dcfb"/><path d="m496.998 364.468-7-17.474 7-15.659h-496.997v33.133c0 18.299 14.834 33.132 33.132 33.132h430.732c18.299 0 33.133-14.833 33.133-33.132z" fill="#e9efff"/><path d="m473.998 364.468c0 18.299-14.834 33.132-33.132 33.132h23c18.299 0 33.132-14.834 33.132-33.132v-33.133h-23z" fill="#d3dcfb"/></g><path d="m414.167 331.335h-331.333v-315.335c0-8.837 7.163-16 16-16h299.333c8.837 0 16 7.163 16 16z" fill="#e9efff"/><path d="m398.167 0h-23c8.837 0 16 7.163 16 16v315.335h23v-315.335c0-8.837-7.164-16-16-16z" fill="#d3dcfb"/><circle cx="347.9" cy="82.833" fill="#89e56a" r="33.133"/><g><path d="m298.2 231.933v36.133h-182.233v-36.133c0-36.598 29.669-66.267 66.267-66.267h49.699c36.598 0 66.267 29.669 66.267 66.267z" fill="#368df6"/><path d="m231.933 165.666h-23c36.598 0 66.267 29.669 66.267 66.267v36.133h23v-36.133c0-36.598-29.669-66.267-66.267-66.267z" fill="#336fe7"/><path d="m223.65 33.133c18.299 0 33.133 14.834 33.133 33.133v49.7c0 27.449-22.251 49.7-49.7 49.7s-49.7-22.251-49.7-49.7c0-3.187 0-49.7 0-49.7 0-18.299 14.834-33.133 33.133-33.133z" fill="#ffc2a3"/><path d="m199.584 268.066v-81.267c0-4.143 3.358-7.5 7.5-7.5s7.5 3.357 7.5 7.5v81.267z" fill="#336fe7"/><path d="m256.783 66.266c0-18.299-14.834-33.133-33.133-33.133h-23c18.299 0 33.133 14.834 33.133 33.133v49.7c0 23.488-16.299 43.157-38.2 48.348 3.693.875 7.54 1.352 11.5 1.352 27.448 0 49.7-22.251 49.7-49.7.001-3.186 0-49.7 0-49.7z" fill="#ffb294"/><path d="m182.234 165.666 18.45 24.6c3.2 4.267 9.6 4.267 12.8 0l18.45-24.6z" fill="#e9efff"/><path d="m223.65 33.133h-33.133c-18.299 0-33.133 14.834-33.133 33.133v24.85h99.4c0-12.439 0-24.85 0-24.85-.001-18.299-14.835-33.133-33.134-33.133z" fill="#ffc55e"/><g fill="#ffa438"><path d="m198.017 91.117v-16.568c0-4.143-3.358-7.5-7.5-7.5s-7.5 3.357-7.5 7.5v16.567h15z"/><path d="m233.783 66.266v24.85h23c0-2.333 0-4.663 0-6.912 0-2.49 0-4.876 0-7.052 0-6.343 0-10.885 0-10.885 0-18.299-14.834-33.133-33.133-33.133h-23c18.299-.001 33.133 14.833 33.133 33.132z"/></g></g><g><path d="m82.834 265.066h331.333v66.269h-331.333z" fill="#bec8f7"/><path d="m391.167 265.066h23v66.267h-23z" fill="#a2b6f4"/><path d="m82.834 265.066h66.267v66.268h-66.267z" fill="#ff6c6c"/><g><path d="m120.109 305.7h-8.283c-4.142 0-7.5-3.357-7.5-7.5s3.358-7.5 7.5-7.5h8.283c4.142 0 7.5 3.357 7.5 7.5s-3.358 7.5-7.5 7.5z" fill="#f74242"/></g><g><path d="m381.033 305.7h-198.8c-4.142 0-7.5-3.357-7.5-7.5s3.358-7.5 7.5-7.5h198.8c4.142 0 7.5 3.357 7.5 7.5s-3.358 7.5-7.5 7.5z" fill="#5b7fa0"/></g></g></g></svg>