<svg id="Layer_1" enable-background="new 0 0 497 497" height="512" viewBox="0 0 497 497" width="512" xmlns="http://www.w3.org/2000/svg"><g><path d="m265.067 198.8h90.252c31.867 0 58.429-25.349 58.843-57.214.42-32.376-25.699-58.753-57.978-58.753-.003 0-.006 0-.009 0h-33.499c-4.251 0-7.861-3.213-8.239-7.447-3.766-42.258-39.266-75.386-82.503-75.386-43.326 0-78.883 33.263-82.526 75.645-.348 4.047-3.665 7.188-7.727 7.188-31.867 0-58.429 25.349-58.843 57.214-.42 32.376 25.699 58.753 57.978 58.753h91.117z" fill="#e9efff"/><path d="m66.266 265.066c-9.15 0-16.567 7.417-16.567 16.567v198.801c0 9.15 7.417 16.567 16.567 16.567h364.468c9.15 0 16.567-7.417 16.567-16.567v-198.801c0-9.149-7.417-16.567-16.567-16.567z" fill="#368df6"/><path d="m397.601 231.933h-115.967c-18.299 0-33.133 14.834-33.133 33.133 0-18.299-14.834-33.133-33.133-33.133h-115.968c-9.15 0-16.567 7.417-16.567 16.567v182.234l165.667 33.133 165.667-33.134v-182.233c0-9.15-7.417-16.567-16.566-16.567z" fill="#e9efff"/><path d="m182.517 298.2h-33.7c-4.418 0-8-3.582-8-8v-17.133c0-4.418 3.582-8 8-8h33.7c4.418 0 8 3.582 8 8v17.133c0 4.418-3.582 8-8 8z" fill="#77dfff"/><g><path d="m215.367 338.833h-99.4c-4.142 0-7.5-3.358-7.5-7.5s3.358-7.5 7.5-7.5h99.4c4.142 0 7.5 3.358 7.5 7.5s-3.358 7.5-7.5 7.5z" fill="#5b7fa0"/></g><g><path d="m215.367 371.967h-99.4c-4.142 0-7.5-3.358-7.5-7.5s3.358-7.5 7.5-7.5h99.4c4.142 0 7.5 3.358 7.5 7.5s-3.358 7.5-7.5 7.5z" fill="#5b7fa0"/></g><g><path d="m215.367 405.1h-99.4c-4.142 0-7.5-3.358-7.5-7.5s3.358-7.5 7.5-7.5h99.4c4.142 0 7.5 3.358 7.5 7.5s-3.358 7.5-7.5 7.5z" fill="#5b7fa0"/></g><path d="m348.184 298.2h-33.7c-4.418 0-8-3.582-8-8v-17.133c0-4.418 3.582-8 8-8h33.7c4.418 0 8 3.582 8 8v17.133c0 4.418-3.582 8-8 8z" fill="#77dfff"/><g><path d="m381.034 338.833h-99.4c-4.142 0-7.5-3.358-7.5-7.5s3.358-7.5 7.5-7.5h99.4c4.142 0 7.5 3.358 7.5 7.5s-3.358 7.5-7.5 7.5z" fill="#5b7fa0"/></g><g><path d="m381.034 371.967h-99.4c-4.142 0-7.5-3.358-7.5-7.5s3.358-7.5 7.5-7.5h99.4c4.142 0 7.5 3.358 7.5 7.5s-3.358 7.5-7.5 7.5z" fill="#5b7fa0"/></g><g><path d="m381.034 405.1h-99.4c-4.142 0-7.5-3.358-7.5-7.5s3.358-7.5 7.5-7.5h99.4c4.142 0 7.5 3.358 7.5 7.5s-3.358 7.5-7.5 7.5z" fill="#5b7fa0"/></g><path d="m430.734 265.066h-23c9.15 0 16.567 7.417 16.567 16.567v198.8c0 9.149-7.417 16.567-16.567 16.567h23c9.15 0 16.567-7.417 16.567-16.567v-198.8c0-9.15-7.417-16.567-16.567-16.567z" fill="#336fe7"/><path d="m397.601 231.933h-23c9.15 0 16.567 7.417 16.567 16.567v186.834l23-4.6v-182.234c-.001-9.15-7.418-16.567-16.567-16.567z" fill="#d3dcfb"/><path d="m248.5 463.867c0-18.299 14.834-33.134 33.133-33.134h132.534v16.567c0 9.15-7.417 16.567-16.567 16.567z" fill="#bec8f7"/><path d="m391.167 430.733v16.567c0 9.15-7.417 16.567-16.567 16.567h-126.1 149.1c9.15 0 16.567-7.417 16.567-16.567v-16.567z" fill="#a2b6f4"/><path d="m215.367 231.933h-23.001c18.299 0 33.133 14.834 33.133 33.133v194.201l23.001 4.6v-198.801c0-18.299-14.834-33.133-33.133-33.133z" fill="#d3dcfb"/><path d="m248.5 463.867c0-18.299-14.834-33.134-33.133-33.134h-132.534v16.567c0 9.15 7.417 16.567 16.567 16.567z" fill="#bec8f7"/><path d="m225.5 463.867h23c0-18.299-14.834-33.134-33.133-33.134h-23.001c18.299 0 33.134 14.835 33.134 33.134z" fill="#a2b6f4"/><path d="m348.184 265.066h-23c4.418 0 8 3.582 8 8v17.134c0 4.418-3.582 8-8 8h23c4.418 0 8-3.582 8-8v-17.133c0-4.419-3.582-8.001-8-8.001z" fill="#69cdff"/><path d="m182.517 265.066h-23c4.418 0 8 3.582 8 8v17.134c0 4.418-3.582 8-8 8h23c4.418 0 8-3.582 8-8v-17.133c0-4.419-3.582-8.001-8-8.001z" fill="#69cdff"/><path d="m279.083 152.666-24.493-29.392c-3.169-3.803-9.01-3.803-12.179 0l-24.493 29.392c-4.302 5.163-.631 13.001 6.089 13.001 4.378 0 7.927 3.549 7.927 7.926v33.847c0 4.378 3.549 7.927 7.926 7.927h17.28c4.378 0 7.926-3.549 7.926-7.927v-33.847c0-4.378 3.549-7.926 7.927-7.926 6.721 0 10.392-7.838 6.09-13.001z" fill="#89e56a"/><path d="m279.083 152.666-24.493-29.392c-3.169-3.803-9.01-3.803-12.179 0l-5.411 6.493 19.082 22.899c4.302 5.163.631 13.001-6.089 13.001-4.378 0-7.927 3.549-7.927 7.927v33.847c0 3.368-2.104 6.238-5.067 7.386.888.344 1.85.54 2.86.54h17.28c4.378 0 7.926-3.549 7.926-7.926v-33.847c0-4.378 3.549-7.927 7.927-7.927 6.722 0 10.393-7.838 6.091-13.001z" fill="#57cf97"/><g><g><g><path d="m291.436 75.386c.377 4.234 3.988 7.447 8.239 7.447h23c-4.251 0-7.861-3.213-8.239-7.447-3.765-42.258-39.265-75.386-82.502-75.386-3.902 0-7.739.279-11.498.802 37.884 5.264 67.575 36.141 71 74.584z" fill="#d3dcfb"/></g><g><path d="m356.184 82.833c-.003 0-.006 0-.009 0h-22.982c32.275.005 58.389 26.38 57.969 58.753-.413 31.864-26.976 57.214-58.843 57.214h23c31.867 0 58.429-25.349 58.843-57.214.42-32.376-25.699-58.753-57.978-58.753z" fill="#d3dcfb"/></g></g></g></g></svg>