<svg id="Layer_1" enable-background="new 0 0 496.999 496.999" height="512" viewBox="0 0 496.999 496.999" width="512" xmlns="http://www.w3.org/2000/svg"><g><g><path d="m33.134 33.133c-18.299 0-33.132 14.834-33.132 33.132v265.069l5 17.175-5 15.958h496.997l-14-16.337 14-16.796v-265.069c0-18.299-14.834-33.132-33.132-33.132z" fill="#5b7fa0"/><path d="m496.998 364.468-11-16.337 11-16.796v-265.07c0-18.299-14.834-33.132-33.133-33.132h-23c18.299 0 33.133 14.834 33.133 33.132v298.203z" fill="#4a6f99"/><path d="m318.909 463.862-8.283-66.263v-8.1h-124.251v8.1l-8.284 66.263v9.304h140.818z" fill="#bec8f7"/><path d="m265.067 438.232h-33.133c-4.142 0-7.5-3.358-7.5-7.5v-33.132c0-4.142 3.358-7.5 7.5-7.5s7.5 3.358 7.5 7.5v25.632h18.133v-25.632c0-4.142 3.358-7.5 7.5-7.5s7.5 3.358 7.5 7.5v33.132c0 4.143-3.358 7.5-7.5 7.5z" fill="#a2b6f4"/><path d="m33.133 331.334v-256.784c0-4.575 3.708-8.283 8.283-8.283h414.168c4.575 0 8.283 3.709 8.283 8.283v256.783h-430.734z" fill="#77dfff"/><path d="m455.584 66.267h-23.002c4.575 0 8.283 3.709 8.283 8.283v256.783h23.002v-256.783c0-4.574-3.708-8.283-8.283-8.283z" fill="#69cdff"/><path d="m356.467 463.867h-215.933c-4.418 0-8 3.582-8 8v17.132c0 4.418 3.582 8 8 8h215.933c4.418 0 8-3.582 8-8v-17.132c0-4.418-3.582-8-8-8z" fill="#e9efff"/><path d="m356.467 463.867h-23c4.418 0 8 3.582 8 8v17.132c0 4.418-3.582 8-8 8h23c4.418 0 8-3.582 8-8v-17.132c0-4.418-3.582-8-8-8z" fill="#d3dcfb"/><path d="m496.998 364.468-7-17.474 7-15.659h-496.997v33.133c0 18.299 14.834 33.132 33.132 33.132h430.732c18.299 0 33.133-14.834 33.133-33.132z" fill="#e9efff"/><path d="m473.998 364.468c0 18.299-14.834 33.132-33.133 33.132h23c18.299 0 33.133-14.834 33.133-33.132v-33.133h-23z" fill="#d3dcfb"/></g><g><path d="m414.166 331.335h-331.333l17-141.602-17-140.033v-33.7c0-8.837 7.163-16 16-16h299.333c8.837 0 16 7.163 16 16v33.7l-13 141.856z" fill="#e9efff"/><path d="m124.25 32.35h-8.283c-4.142 0-7.5-3.358-7.5-7.5s3.358-7.5 7.5-7.5h8.283c4.142 0 7.5 3.358 7.5 7.5s-3.358 7.5-7.5 7.5z" fill="#ff6c6c"/><path d="m165.667 32.35h-8.284c-4.142 0-7.5-3.358-7.5-7.5s3.358-7.5 7.5-7.5h8.284c4.142 0 7.5 3.358 7.5 7.5s-3.358 7.5-7.5 7.5z" fill="#89e56a"/><path d="m207.083 32.35h-8.283c-4.142 0-7.5-3.358-7.5-7.5s3.358-7.5 7.5-7.5h8.283c4.142 0 7.5 3.358 7.5 7.5s-3.358 7.5-7.5 7.5z" fill="#ffc55e"/><path d="m398.166 0h-23c8.837 0 16 7.163 16 16v315.335h23l-15-132.535 15-149.1v-33.7c0-8.837-7.163-16-16-16z" fill="#d3dcfb"/><path d="m82.833 49.7h331.333v281.635h-331.333z" fill="#368df6"/><path d="m391.166 49.7h23v281.635h-23z" fill="#336fe7"/><path d="m373.033 132.533h-249.066c-4.418 0-8-3.582-8-8v-33.7c0-4.418 3.582-8 8-8h249.066c4.418 0 8 3.582 8 8v33.7c0 4.418-3.582 8-8 8z" fill="#e9efff"/><ellipse cx="248.5" cy="231.933" fill="#e9efff" rx="66.267" ry="66.267" transform="matrix(.707 -.707 .707 .707 -91.218 243.647)"/><path d="m273.35 272.311c-2.933.001-5.692-1.794-6.783-4.702l-18.067-48.18-18.067 48.18c-1.405 3.746-5.578 5.646-9.325 4.239-3.746-1.404-5.644-5.58-4.239-9.325l24.85-66.267c1.061-2.827 3.763-4.7 6.782-4.7s5.722 1.873 6.782 4.7l24.85 66.267c1.404 3.745-.493 7.921-4.239 9.325-.839.315-1.699.463-2.544.463z" fill="#5b7fa0"/><path d="m267.137 255.743h-37.275c-4 0-7.243-3.243-7.243-7.243s3.243-7.243 7.243-7.243h37.275c4 0 7.243 3.243 7.243 7.243s-3.243 7.243-7.243 7.243z" fill="#5b7fa0"/><path d="m248.5 165.666c-3.925 0-7.763.361-11.5 1.015 31.113 5.447 54.767 32.578 54.767 65.252 0 32.673-23.653 59.804-54.767 65.251 3.737.654 7.575 1.015 11.5 1.015 36.598 0 66.267-29.669 66.267-66.267-.001-36.597-29.669-66.266-66.267-66.266z" fill="#d3dcfb"/><path d="m347.899 206.299c-4.143 0-7.5-3.357-7.5-7.5v-33.133c0-4.143 3.357-7.5 7.5-7.5s7.5 3.357 7.5 7.5v33.133c0 4.143-3.357 7.5-7.5 7.5z" fill="#5b7fa0"/><path d="m364.466 189.733h-33.134c-4.143 0-7.5-3.357-7.5-7.5s3.357-7.5 7.5-7.5h33.134c4.143 0 7.5 3.357 7.5 7.5s-3.357 7.5-7.5 7.5z" fill="#5b7fa0"/><path d="m373.033 82.833h-23c4.418 0 8 3.582 8 8v33.7c0 4.418-3.582 8-8 8h23c4.418 0 8-3.582 8-8v-33.7c0-4.418-3.582-8-8-8z" fill="#d3dcfb"/></g></g></svg>