<svg id="Layer_1" enable-background="new 0 0 497 497" height="512" viewBox="0 0 497 497" width="512" xmlns="http://www.w3.org/2000/svg"><g><path d="m140.535 497h215.933" fill="#e9efff"/><path d="m333.467 497h23" fill="#d3dcfb"/><path d="m496.999 364.469v-33.133" fill="#e9efff"/><path d="m496.999 364.469v-33.133" fill="#d3dcfb"/><g><g><path d="m33.134 33.133c-18.298 0-33.132 14.834-33.132 33.132v265.069l5 17.175-5 15.958h496.997l-14-16.337 14-16.796v-265.068c0-18.299-14.834-33.132-33.132-33.132h-430.733z" fill="#5b7fa0"/><path d="m496.999 364.468-11-16.337 11-16.796v-265.069c0-18.299-14.834-33.132-33.133-33.132h-23c18.299 0 33.133 14.834 33.133 33.132v298.203h23z" fill="#4a6f99"/><path d="m318.91 463.862-8.284-66.262v-8.1h-124.251v8.1l-8.284 66.262v9.304h140.819z" fill="#bec8f7"/><path d="m265.067 438.233h-33.133c-4.142 0-7.5-3.358-7.5-7.5v-33.132c0-4.142 3.358-7.5 7.5-7.5s7.5 3.358 7.5 7.5v25.632h18.133v-25.632c0-4.142 3.358-7.5 7.5-7.5s7.5 3.358 7.5 7.5v33.132c0 4.142-3.357 7.5-7.5 7.5z" fill="#a2b6f4"/><path d="m33.133 331.334v-256.783c0-4.575 3.708-8.283 8.283-8.283h414.168c4.575 0 8.283 3.709 8.283 8.283v256.783z" fill="#77dfff"/><path d="m455.584 66.268h-23.002c4.575 0 8.283 3.709 8.283 8.283v256.783h23.002v-256.783c.001-4.575-3.708-8.283-8.283-8.283z" fill="#69cdff"/><path d="m356.467 463.868h-215.932c-4.418 0-8 3.582-8 8v17.132c0 4.418 3.582 8 8 8h215.933c4.418 0 8-3.582 8-8v-17.132c-.001-4.418-3.582-8-8.001-8z" fill="#e9efff"/><path d="m356.467 463.868h-23c4.418 0 8 3.582 8 8v17.132c0 4.418-3.582 8-8 8h23c4.418 0 8-3.582 8-8v-17.132c0-4.418-3.582-8-8-8z" fill="#d3dcfb"/><path d="m496.999 364.468-7-17.474 7-15.659h-496.997v33.133c0 18.299 14.834 33.132 33.132 33.132h430.732c18.299.001 33.133-14.833 33.133-33.132z" fill="#e9efff"/><path d="m473.999 364.468c0 18.299-14.834 33.132-33.133 33.132h23c18.299 0 33.133-14.834 33.133-33.132v-33.133h-23z" fill="#d3dcfb"/></g><path d="m323.334 265.067h-149.667c-4.418 0-8-3.582-8-8v-17.133c0-4.418 3.582-8 8-8h149.666c4.418 0 8 3.582 8 8v17.133c.001 4.418-3.581 8-7.999 8z" fill="#e9efff"/><g><g><path d="m347.9 0c9.15 0 16.567 7.417 16.567 16.567v132.533c0 9.149-7.417 16.567-16.567 16.567h-41.417c-4.575 0-8.283 3.708-8.283 8.283v13.136c0 7.38-8.922 11.075-14.141 5.857l-24.85-24.85c-1.553-1.553-3.66-2.426-5.857-2.426h-104.252c-9.15 0-16.567-7.417-16.567-16.567v-132.533c.001-9.15 7.418-16.567 16.567-16.567z" fill="#89e56a"/></g></g><g><g><g><path d="m207.083 123.467c-1.968 0-3.882-.775-5.304-2.197l-16.566-16.567c-2.929-2.929-2.929-7.678 0-10.606 2.929-2.929 7.678-2.929 10.606 0l8.331 8.33 20.761-55.36c1.098-2.927 3.896-4.867 7.022-4.867h82.833c4.143 0 7.5 3.358 7.5 7.5s-3.357 7.5-7.5 7.5h-77.636l-23.025 61.4c-.896 2.388-2.942 4.157-5.435 4.697-.526.114-1.058.17-1.587.17z" fill="#e9efff"/></g><g><g><path d="m289.916 123.467c-1.92 0-3.839-.732-5.304-2.197l-33.132-33.133c-2.929-2.929-2.929-7.678 0-10.606 2.931-2.929 7.679-2.929 10.607 0l33.133 33.133c2.929 2.929 2.929 7.678 0 10.606-1.465 1.464-3.385 2.197-5.304 2.197z" fill="#e9efff"/></g><g><path d="m256.784 123.467c-1.919 0-3.839-.732-5.304-2.197-2.929-2.929-2.929-7.678 0-10.606l33.133-33.133c2.93-2.929 7.678-2.929 10.607 0s2.929 7.678 0 10.606l-33.133 33.133c-1.465 1.464-3.384 2.197-5.303 2.197z" fill="#e9efff"/></g></g></g></g><g fill="#57cf97"><path d="m275.2 173.95v10.133l8.859 8.859c5.218 5.218 14.141 1.522 14.141-5.857v-13.135c0-4.575 3.708-8.283 8.283-8.283h-23c-4.574 0-8.283 3.708-8.283 8.283z"/><path d="m347.9 0h-23c9.15 0 16.567 7.417 16.567 16.567v132.533c0 9.149-7.417 16.567-16.567 16.567h23c9.15 0 16.567-7.417 16.567-16.567v-132.533c0-9.15-7.417-16.567-16.567-16.567z"/></g><path d="m323.334 231.933h-23c4.418 0 8 3.582 8 8v17.133c0 4.418-3.582 8-8 8h23c4.418 0 8-3.582 8-8v-17.133c0-4.418-3.582-8-8-8z" fill="#d3dcfb"/></g></g></svg>