<svg id="Layer_1" enable-background="new 0 0 496.997 496.997" height="512" viewBox="0 0 496.997 496.997" width="512" xmlns="http://www.w3.org/2000/svg"><g><g><path d="m33.132 33.103c-18.298 0-33.132 14.834-33.132 33.132v265.069l5 17.175-5 15.958h496.997l-14-16.337 14-16.796v-265.069c0-18.299-14.834-33.132-33.132-33.132z" fill="#5b7fa0"/><path d="m496.997 364.438-11-16.337 11-16.796v-265.07c0-18.299-14.834-33.132-33.133-33.132h-23c18.299 0 33.133 14.834 33.133 33.132v298.203z" fill="#4a6f99"/><path d="m318.908 463.832-8.284-66.263v-8.1h-124.251v8.1l-8.284 66.263v9.304h140.819z" fill="#bec8f7"/><path d="m265.066 438.203h-33.133c-4.142 0-7.5-3.358-7.5-7.5v-33.133c0-4.142 3.358-7.5 7.5-7.5s7.5 3.358 7.5 7.5v25.632h18.133v-25.632c0-4.142 3.358-7.5 7.5-7.5s7.5 3.358 7.5 7.5v33.132c0 4.143-3.358 7.501-7.5 7.501z" fill="#a2b6f4"/><path d="m33.132 331.304v-256.783c0-4.575 3.708-8.283 8.283-8.283h414.168c4.575 0 8.283 3.709 8.283 8.283v256.783z" fill="#77dfff"/><path d="m455.582 66.237h-23.002c4.575 0 8.283 3.709 8.283 8.283v256.783h23.002v-256.782c.001-4.575-3.708-8.284-8.283-8.284z" fill="#69cdff"/><path d="m356.465 463.838h-215.932c-4.418 0-8 3.582-8 8v17.132c0 4.418 3.582 8 8 8h215.933c4.418 0 8-3.582 8-8v-17.132c-.001-4.419-3.582-8-8.001-8z" fill="#e9efff"/><path d="m356.465 463.838h-23c4.418 0 8 3.582 8 8v17.132c0 4.418-3.582 8-8 8h23c4.418 0 8-3.582 8-8v-17.132c0-4.419-3.581-8-8-8z" fill="#d3dcfb"/><path d="m496.997 364.438-7-17.474 7-15.659h-496.997v33.133c0 18.299 14.834 33.132 33.132 33.132h430.732c18.299 0 33.133-14.833 33.133-33.132z" fill="#e9efff"/><path d="m473.997 364.438c0 18.299-14.834 33.132-33.133 33.132h23c18.299 0 33.133-14.834 33.133-33.132v-33.133h-23z" fill="#d3dcfb"/></g><path d="m406.164 298.227h-315.333c-4.418 0-8-3.582-8-8v-99.967c0-4.418 3.582-8 8-8h315.333c4.418 0 8 3.582 8 8v99.967c0 4.418-3.582 8-8 8z" fill="#e9efff"/><path d="m406.164 182.26h-23c4.418 0 8 3.582 8 8v99.967c0 4.418-3.582 8-8 8h23c4.418 0 8-3.582 8-8v-99.967c0-4.418-3.581-8-8-8z" fill="#d3dcfb"/><path d="m157.381 265.036h-41.417c-4 0-7.243-3.243-7.243-7.243s3.243-7.243 7.243-7.243h41.417c4 0 7.243 3.243 7.243 7.243.001 4-3.243 7.243-7.243 7.243z" fill="#5b7fa0"/><path d="m156.863 264.828c-1.92 0-3.839-.732-5.304-2.197-2.929-2.929-2.929-7.678 0-10.607l26.396-26.396c2.931-2.929 7.679-2.929 10.607 0 2.929 2.929 2.929 7.678 0 10.607l-26.396 26.396c-1.464 1.464-3.384 2.197-5.303 2.197z" fill="#4a6f99"/><path d="m171.336 194.338 189.287-189.287c6.699-6.699 17.56-6.699 24.259 0l24.258 24.259c6.699 6.699 6.699 17.56 0 24.259l-189.287 189.287c-1.5 1.5-3.535 2.343-5.657 2.343h-37.203c-4.418 0-8-3.582-8-8v-37.203c-.001-2.122.842-4.157 2.343-5.658z" fill="#f9ba8f"/><path d="m409.14 29.31-24.259-24.259c-6.497-6.497-16.896-6.673-23.629-.569.21.19.427.366.629.569l24.259 24.259c6.699 6.699 6.699 17.56 0 24.259l-189.287 189.287c-1.5 1.5-3.535 2.343-5.657 2.343h23c2.122 0 4.157-.843 5.657-2.343l189.287-189.288c6.699-6.699 6.699-17.56 0-24.258z" fill="#fcad6d"/><path d="m409.14 29.31-24.259-24.259c-6.699-6.699-17.56-6.699-24.258 0l-28.41 28.41 48.517 48.517 28.41-28.41c6.699-6.699 6.699-17.56 0-24.258z" fill="#ff6c6c"/><path d="m409.14 29.31-24.259-24.259c-6.496-6.497-16.896-6.673-23.629-.569l-.001.001c.21.19 24.888 24.827 24.888 24.827 6.699 6.699 6.699 17.56 0 24.259l-16.91 16.91 11.5 11.5 28.41-28.41c6.7-6.7 6.7-17.561.001-24.259z" fill="#f74242"/><path d="m312.106 53.568-140.77 140.77c-.817.817-1.431 1.796-1.828 2.858l47.487 47.487c1.062-.397 2.041-1.011 2.858-1.828l140.77-140.77z" fill="#368df6"/><path d="m331.34 31.391h34.307v68.614h-34.307z" fill="#ffc55e" transform="matrix(.707 -.707 .707 .707 55.616 265.664)"/><path d="m349.849 76.074h34.307v16.264h-34.307z" fill="#ffa438" transform="matrix(.707 -.707 .707 .707 47.95 284.174)"/><g fill="#336fe7"><path d="m349.123 90.585-143.114 143.114 10.985 10.985c.264-.099.523-.211.775-.336.002-.001.004-.002.006-.003.238-.118.468-.25.694-.391.019-.012.04-.023.059-.035.204-.13.399-.274.591-.423.035-.027.072-.051.106-.078.218-.175.428-.362.627-.561l140.77-140.77z"/><path d="m163.612 141.883h202.393v15h-202.393z" transform="matrix(.707 -.707 .707 .707 -28.07 231.001)"/></g></g></svg>