<svg id="Layer_1" enable-background="new 0 0 497.001 497.001" height="512" viewBox="0 0 497.001 497.001" width="512" xmlns="http://www.w3.org/2000/svg"><g><path d="m33.133 149.1c-18.299 0-33.133 14.835-33.133 33.134v281.633c0 18.299 14.834 33.133 33.133 33.133h430.734c18.299 0 33.133-14.834 33.133-33.133v-281.633c0-18.299-14.834-33.133-33.133-33.133h-430.734z" fill="#ffa438"/><g><path d="m414.167 414.167c0 9.15-7.417 16.567-16.567 16.567h-298.2c-9.15 0-16.567-7.417-16.567-16.567v-397.6c0-9.149 7.417-16.567 16.567-16.567h241.638c4.394 0 8.607 1.745 11.714 4.852l56.562 56.561c3.107 3.107 4.852 7.321 4.852 11.714v341.04z" fill="#e9efff"/><path d="m409.315 61.414-56.562-56.561c-3.107-3.107-7.321-4.852-11.714-4.852h-23c4.394 0 8.608 1.745 11.714 4.852l56.562 56.561c3.107 3.107 4.852 7.321 4.852 11.714v341.039c0 9.15-7.417 16.567-16.567 16.567h23c9.149 0 16.567-7.417 16.567-16.567v-341.038c0-4.394-1.745-8.608-4.852-11.715z" fill="#bec8f7"/><path d="m409.315 61.414-56.562-56.561c-1.415-1.415-3.066-2.531-4.853-3.345v48.192c0 9.149 7.417 16.567 16.567 16.567h48.192c-.813-1.786-1.93-3.438-3.344-4.853z" fill="#bec8f7"/><path d="m350.716 3.144c-.094-.068-.185-.141-.28-.207-.391-.267-.793-.517-1.205-.75-.008-.004-.015-.009-.023-.014-.426-.24-.862-.461-1.307-.664h-.001v21.491l38.414 38.414c1.415 1.415 2.531 3.066 3.345 4.853h23c-.203-.445-.424-.882-.665-1.309-.003-.006-.007-.012-.011-.018-.233-.413-.484-.816-.753-1.209-.065-.094-.138-.184-.205-.277-.219-.306-.44-.611-.681-.902-.326-.392-.667-.774-1.03-1.138l-56.561-56.561c-.363-.364-.745-.705-1.138-1.031-.29-.239-.594-.46-.899-.678z" fill="#a2b6f4"/></g><path d="m290.201 33.134h-83.4c-4.418 0-8 3.582-8 8v17.133c0 4.418 3.582 8 8 8h83.4c4.418 0 8-3.582 8-8v-17.133c0-4.419-3.582-8-8-8z" fill="#77dfff"/><g><g><g><g><path d="m223.649 222.612c-.845 0-1.705-.148-2.542-.463-3.746-1.404-5.644-5.58-4.239-9.325l24.85-66.267c1.06-2.827 3.763-4.7 6.782-4.7 3.019 0 5.722 1.873 6.782 4.7l24.85 66.267c1.404 3.745-.493 7.921-4.239 9.325-3.741 1.407-7.92-.493-9.325-4.239l-18.068-48.18-18.068 48.18c-1.09 2.908-3.85 4.702-6.783 4.702z" fill="#5b7fa0"/></g><g><path d="m267.138 206.044h-37.275c-4.001 0-7.244-3.243-7.244-7.243s3.243-7.243 7.244-7.243h37.275c4 0 7.243 3.243 7.243 7.243s-3.243 7.243-7.243 7.243z" fill="#5b7fa0"/></g></g><g><path d="m248.5 255.744c-40.534 0-73.51-32.977-73.51-73.51s32.977-73.51 73.51-73.51 73.51 32.977 73.51 73.51-32.976 73.51-73.51 73.51zm0-132.533c-32.545 0-59.023 26.478-59.023 59.023s26.478 59.023 59.023 59.023c32.546 0 59.023-26.478 59.023-59.023s-26.477-59.023-59.023-59.023z" fill="#5b7fa0"/></g></g></g><path d="m497.001 463.867v-281.633c0-10.147-4.566-19.223-11.75-25.301l-199.992 133.329c-22.259 14.839-51.257 14.839-73.516 0l-199.994-133.329c-7.183 6.078-11.749 15.154-11.749 25.301v281.633c0 18.299 14.834 33.133 33.133 33.133h430.734c18.299 0 33.134-14.834 33.134-33.133z" fill="#ffc55e"/><path d="m273.634 447.301h-50.267c-4.418 0-8-3.582-8-8v-17.133c0-4.418 3.582-8 8-8h50.267c4.418 0 8 3.582 8 8v17.133c0 4.418-3.582 8-8 8z" fill="#77dfff"/><path d="m313.308 271.562-12.094 8.063c.16.24.331.474.523.698l180.79 210.922c4.053-2.768 7.455-6.414 9.943-10.661z" fill="#ffa438"/><path d="m195.787 279.625-12.094-8.063-179.162 209.023c2.488 4.247 5.89 7.893 9.942 10.661l180.791-210.922c.192-.224.363-.459.523-.699z" fill="#ffa438"/><path d="m273.634 414.167h-23c4.418 0 8 3.582 8 8v17.133c0 4.418-3.582 8-8 8h23c4.418 0 8-3.582 8-8v-17.133c0-4.418-3.582-8-8-8z" fill="#69cdff"/><path d="m290.195 33.134h-23c4.418 0 8 3.582 8 8v17.133c0 4.418-3.582 8-8 8h23c4.418 0 8-3.582 8-8v-17.133c0-4.419-3.582-8-8-8z" fill="#69cdff"/><g><path d="m485.251 156.933-15.185 10.124c2.351 4.548 3.689 9.704 3.689 15.177v281.633c0 18.299-14.835 33.133-33.134 33.133h23.245c18.299 0 33.134-14.834 33.134-33.133v-281.633c.001-10.147-4.565-19.223-11.749-25.301z" fill="#ffb332"/></g></g></svg>