<svg id="Layer_1" enable-background="new 0 0 497.117 497.117" height="512" viewBox="0 0 497.117 497.117" width="512" xmlns="http://www.w3.org/2000/svg"><g><g><circle cx="348.017" cy="149.1" fill="#77dfff" r="149.1"/><g fill="#69cdff"><path d="m348.017 0c-3.87 0-7.705.148-11.5.437 76.972 5.871 137.6 70.187 137.6 148.663s-60.628 142.791-137.6 148.663c3.795.289 7.63.437 11.5.437 82.346 0 149.1-66.754 149.1-149.1 0-82.346-66.754-149.1-149.1-149.1z"/><path d="m496.93 156.6c.123-2.485.187-4.985.187-7.5s-.064-5.016-.188-7.5h-66.946c-.528-24.337-3.62-47.739-9.009-68.833 15.56-4.211 29.756-9.771 41.834-16.519.433-.242.83-.522 1.194-.831-3.203-3.961-6.601-7.757-10.187-11.369-10.754 5.802-23.269 10.63-36.995 14.33-2.734-8.457-5.865-16.445-9.381-23.851-5.439-11.459-11.589-21.092-18.275-28.773-13.07-3.745-26.873-5.754-41.147-5.754-14.273 0-28.077 2.009-41.147 5.754-6.685 7.681-12.836 17.314-18.276 28.773-3.516 7.406-6.647 15.394-9.381 23.851-13.726-3.7-26.241-8.527-36.996-14.33-3.586 3.611-6.984 7.408-10.187 11.369.364.309.762.589 1.194.831 12.078 6.748 26.275 12.308 41.835 16.519-5.388 21.094-8.48 44.496-9.009 68.833h-66.947c-.123 2.485-.188 4.985-.188 7.5s.064 5.015.187 7.5h66.947c.528 24.337 3.62 47.74 9.009 68.834-15.559 4.211-29.755 9.771-41.833 16.518-.433.242-.831.522-1.195.831 3.203 3.961 6.601 7.757 10.187 11.368 10.754-5.802 23.269-10.629 36.996-14.329 2.734 8.457 5.865 16.445 9.381 23.851 5.44 11.459 11.591 21.092 18.276 28.773 13.07 3.745 26.874 5.754 41.147 5.754 14.274 0 28.077-2.009 41.148-5.754 6.685-7.681 12.836-17.314 18.276-28.773 3.516-7.406 6.647-15.394 9.381-23.851 13.726 3.7 26.241 8.527 36.996 14.329 3.589-3.614 6.989-7.413 10.194-11.378-.346-.286-.718-.55-1.124-.777-12.096-6.768-26.32-12.343-41.913-16.563 5.388-21.094 8.481-44.497 9.009-68.833zm-156.413 140.649c-18.825-4.909-35.564-27.989-46.464-60.894 14.683-2.941 30.373-4.691 46.464-5.107zm0-81.002c-17.526.434-34.661 2.382-50.702 5.684-5.073-19.61-8.206-41.854-8.759-65.331h59.461zm0-74.647h-59.461c.553-23.477 3.686-45.721 8.759-65.33 16.041 3.302 33.176 5.25 50.702 5.684zm0-74.648c-16.091-.415-31.781-2.166-46.464-5.106 10.9-32.905 27.639-55.986 46.464-60.895zm15-66.001c18.826 4.909 35.565 27.989 46.465 60.895-14.683 2.94-30.373 4.691-46.465 5.106zm0 296.298v-66.001c16.092.415 31.782 2.166 46.465 5.106-10.9 32.906-27.639 55.987-46.465 60.895zm50.703-75.319c-16.04-3.302-33.175-5.25-50.703-5.684v-59.646h59.462c-.553 23.477-3.686 45.721-8.759 65.33zm-50.703-80.33v-59.647c17.526-.434 34.662-2.382 50.703-5.684 5.073 19.61 8.206 41.853 8.759 65.33h-59.462z"/></g></g><g><path d="m106.667 347.484h52.8v33.133h-52.8z" fill="#4a6f99" transform="matrix(.707 -.707 .707 .707 -218.448 200.72)"/><circle cx="215.067" cy="282.05" fill="#5b7fa0" r="99.4"/><circle cx="215.067" cy="282.05" fill="#77dfff" r="66.267"/><path d="m37.887 494.774-35.544-35.544c-3.124-3.124-3.124-8.19 0-11.314l89.923-89.923c3.124-3.124 8.189-3.124 11.314 0l35.544 35.544c3.124 3.124 3.124 8.189 0 11.314l-89.923 89.923c-3.124 3.124-8.19 3.124-11.314 0z" fill="#e9efff"/><path d="m139.124 393.537-16.263-16.264c3.124 3.124 3.124 8.19 0 11.314l-89.924 89.923c-3.124 3.124-8.19 3.124-11.314 0l16.264 16.263c3.124 3.124 8.189 3.124 11.314 0l89.923-89.923c3.124-3.124 3.124-8.189 0-11.313z" fill="#d3dcfb"/><path d="m53.076 394.341h66.267v33.133h-66.267z" fill="#77dfff" transform="matrix(.707 .707 -.707 .707 315.806 59.393)"/><path d="m84.939 414.705h33.133v23h-33.133z" fill="#69cdff" transform="matrix(.707 -.707 .707 .707 -271.643 196.609)"/><path d="m285.354 211.763c-2.751-2.751-5.627-5.3-8.603-7.661 30.955 39.018 28.406 95.903-7.661 131.97s-92.952 38.616-131.97 7.661c2.361 2.976 4.91 5.852 7.661 8.603 38.818 38.818 101.755 38.818 140.573 0s38.818-101.755 0-140.573z" fill="#4a6f99"/><path d="m261.925 235.192c-2.775-2.775-5.744-5.234-8.849-7.414 18.148 25.852 15.69 61.762-7.414 84.866s-59.014 25.563-84.866 7.414c2.18 3.105 4.639 6.074 7.414 8.849 25.879 25.879 67.836 25.879 93.715 0s25.879-67.836 0-93.715z" fill="#69cdff"/></g></g></svg>