<svg id="Layer_1" enable-background="new 0 0 497 497" height="512" viewBox="0 0 497 497" width="512" xmlns="http://www.w3.org/2000/svg"><g><path d="m182.233 0h132.534l-38.636 49.7h-55.262z" fill="#f74242"/><path d="m281.633 115.967 53.295-62.177c2.131-2.486 2.598-5.995 1.19-8.952l-21.351-44.838-66.267 77.311v44.522h33.133z" fill="#ff6c6c"/><path d="m281.633 115.967-99.4-115.967-21.351 44.837c-1.408 2.957-.942 6.465 1.189 8.952l53.295 62.177v5.867h66.267z" fill="#ff6c6c"/><path d="m231.933 135.5h33.133v60.333h-33.133z" fill="#ffa438"/><circle cx="248.5" cy="281.633" fill="#ffc55e" r="99.4"/><ellipse cx="248.5" cy="281.633" fill="#ffa438" rx="66.267" ry="66.267" transform="matrix(.707 -.707 .707 .707 -126.361 258.205)"/><ellipse cx="248.5" cy="281.633" fill="#ffc55e" rx="33.133" ry="33.133" transform="matrix(.16 -.987 .987 .16 -69.302 481.812)"/><path d="m290.2 149.1h-83.4c-4.418 0-8-3.582-8-8v-17.133c0-4.418 3.582-8 8-8h83.4c4.418 0 8 3.582 8 8v17.133c0 4.418-3.582 8-8 8z" fill="#ffc55e"/><g><g><path d="m413.989 289.134h-33.134c-4.143 0-7.5-3.357-7.5-7.5s3.357-7.5 7.5-7.5h33.134c4.143 0 7.5 3.357 7.5 7.5 0 4.142-3.357 7.5-7.5 7.5z" fill="#ffa438"/></g><g><path d="m369.142 234.581c-1.919 0-3.839-.732-5.304-2.196-2.929-2.93-2.929-7.678 0-10.607l23.429-23.429c2.93-2.928 7.678-2.928 10.607 0 2.929 2.93 2.929 7.678 0 10.607l-23.429 23.429c-1.465 1.464-3.385 2.196-5.303 2.196z" fill="#ffa438"/></g><g><path d="m392.57 367.114c-1.919 0-3.839-.732-5.304-2.196l-23.429-23.429c-2.929-2.93-2.929-7.678 0-10.607 2.93-2.928 7.678-2.928 10.607 0l23.429 23.429c2.929 2.93 2.929 7.678 0 10.608-1.464 1.463-3.384 2.195-5.303 2.195z" fill="#ffa438"/></g></g><g><g><path d="m116.145 289.134h-33.134c-4.142 0-7.5-3.357-7.5-7.5s3.358-7.5 7.5-7.5h33.134c4.143 0 7.5 3.357 7.5 7.5 0 4.142-3.358 7.5-7.5 7.5z" fill="#ffa438"/></g><g><path d="m104.43 367.114c-1.919 0-3.839-.732-5.304-2.196-2.929-2.93-2.929-7.678 0-10.608l23.429-23.429c2.93-2.928 7.678-2.928 10.607 0 2.929 2.93 2.929 7.678 0 10.607l-23.429 23.429c-1.464 1.465-3.384 2.197-5.303 2.197z" fill="#ffa438"/></g><g><path d="m127.858 234.581c-1.919 0-3.839-.732-5.304-2.196l-23.429-23.429c-2.929-2.93-2.929-7.678 0-10.607 2.93-2.928 7.678-2.928 10.607 0l23.429 23.429c2.929 2.93 2.929 7.678 0 10.607-1.464 1.464-3.384 2.196-5.303 2.196z" fill="#ffa438"/></g></g><path d="m406.167 497h-315.334c-4.418 0-8-3.582-8-8v-66.833c0-4.418 3.582-8 8-8h315.333c4.418 0 8 3.582 8 8v66.833c.001 4.418-3.581 8-7.999 8z" fill="#e9efff"/><path d="m406.167 414.167h-23c4.418 0 8 3.582 8 8v66.833c0 4.418-3.582 8-8 8h23c4.418 0 8-3.582 8-8v-66.833c0-4.419-3.582-8-8-8z" fill="#d3dcfb"/><path d="m82.833 422.167v66.833c0 4.418 3.582 8 8 8h91.4v-82.833h-91.4c-4.418 0-8 3.581-8 8z" fill="#65e1a3"/><path d="m140.816 463.083h-16.566c-4.143 0-7.5-3.357-7.5-7.5s3.357-7.5 7.5-7.5h16.566c4.143 0 7.5 3.357 7.5 7.5s-3.357 7.5-7.5 7.5z" fill="#57cf97"/><g fill="#ffa438"><path d="m290.2 115.967h-23c4.418 0 8 3.582 8 8v17.133c0 4.418-3.582 8-8 8h23c4.418 0 8-3.582 8-8v-17.133c0-4.419-3.582-8-8-8z"/><path d="m248.5 182.233c-3.89 0-7.726.231-11.5.666 49.479 5.701 87.9 47.727 87.9 98.734s-38.421 93.033-87.9 98.734c3.774.435 7.61.666 11.5.666 54.897 0 99.4-44.503 99.4-99.4s-44.503-99.4-99.4-99.4z"/><path d="m256 249.363c-2.411-.558-4.919-.863-7.5-.863s-5.089.305-7.5.863v24.771h-24.77c-.558 2.411-.863 4.919-.863 7.5s.305 5.089.863 7.5h24.77v24.77c2.411.558 4.919.863 7.5.863s5.089-.305 7.5-.863v-24.77h24.77c.558-2.411.863-4.919.863-7.5s-.305-5.089-.863-7.5h-24.77z"/></g></g></svg>