<svg id="Layer_1" enable-background="new 0 0 497.076 497.076" height="512" viewBox="0 0 497.076 497.076" width="512" xmlns="http://www.w3.org/2000/svg"><g><g><path d="m33.172 33.209c-18.299 0-33.132 14.834-33.132 33.132v265.069l5 17.175-5 15.958h496.997l-14-16.337 14-16.796v-265.068c0-18.299-14.834-33.132-33.132-33.132h-430.733z" fill="#5b7fa0"/><path d="m497.036 364.544-11-16.337 11-16.796v-265.069c0-18.299-14.834-33.132-33.133-33.132h-23c18.299 0 33.133 14.834 33.133 33.132v298.203h23z" fill="#4a6f99"/><path d="m318.947 463.938-8.283-66.263v-8.1h-124.251v8.1l-8.284 66.263v9.304h140.818z" fill="#bec8f7"/><path d="m265.105 438.309h-33.133c-4.142 0-7.5-3.358-7.5-7.5v-33.132c0-4.142 3.358-7.5 7.5-7.5s7.5 3.358 7.5 7.5v25.632h18.133v-25.632c0-4.142 3.358-7.5 7.5-7.5s7.5 3.358 7.5 7.5v33.132c0 4.142-3.358 7.5-7.5 7.5z" fill="#a2b6f4"/><path d="m33.171 331.41v-256.783c0-4.575 3.708-8.283 8.283-8.283h414.168c4.575 0 8.283 3.709 8.283 8.283v256.783z" fill="#77dfff"/><path d="m455.622 66.344h-23.002c4.575 0 8.283 3.709 8.283 8.283v256.783h23.002v-256.783c0-4.575-3.708-8.283-8.283-8.283z" fill="#69cdff"/><path d="m356.505 463.944h-215.933c-4.418 0-8 3.582-8 8v17.132c0 4.418 3.582 8 8 8h215.933c4.418 0 8-3.582 8-8v-17.132c0-4.418-3.582-8-8-8z" fill="#e9efff"/><path d="m356.505 463.944h-23c4.418 0 8 3.582 8 8v17.132c0 4.418-3.582 8-8 8h23c4.418 0 8-3.582 8-8v-17.132c0-4.418-3.582-8-8-8z" fill="#d3dcfb"/><path d="m497.036 364.544-7-17.474 7-15.659h-496.996v33.133c0 18.299 14.834 33.132 33.132 33.132h430.732c18.298.001 33.132-14.833 33.132-33.132z" fill="#e9efff"/><path d="m474.036 364.544c0 18.299-14.834 33.132-33.133 33.132h23c18.299 0 33.133-14.834 33.133-33.132v-33.133h-23z" fill="#d3dcfb"/></g><path d="m421.547 226.443 7.616 45.582c.842 5.049-3.052 9.645-8.171 9.645h-30.144c-5.119 0-9.012-4.596-8.171-9.645l7.616-45.582z" fill="#ffa438"/><path d="m405.919 189.771c-4.111 0-7.461-3.313-7.498-7.434l-.999-112.354c-.037-4.142 3.291-7.529 7.433-7.566h.068c4.111 0 7.462 3.313 7.498 7.434l.999 112.354c.037 4.142-3.291 7.529-7.433 7.566-.022 0-.045 0-.068 0z" fill="#4a6f99"/><path d="m149.138 207.162 13-13.65-13-11.241v-96.117h198.799v96.117l-12 10.231 12 14.66z" fill="#336fe7"/><path d="m347.938 207.162-8-12.892 8-11.999v-96.117h-23v121.008z" fill="#325be3"/><path d="m165.704 223.729h165.667c9.15 0 16.567-7.417 16.567-16.567v-24.892h-198.8v24.892c0 9.15 7.417 16.567 16.566 16.567z" fill="#ffc55e"/><path d="m324.938 207.162c0 9.149-7.417 16.567-16.567 16.567h23c9.15 0 16.567-7.417 16.567-16.567v-24.892h-23z" fill="#ffa438"/><circle cx="405.921" cy="207.121" fill="#ffc55e" r="24.85"/><path d="m237.038 121.66-144.885-51.744c-7.33-2.618-7.33-12.984 0-15.601l148.027-52.867c5.405-1.93 11.311-1.93 16.716 0l148.026 52.867c7.33 2.618 7.33 12.984 0 15.601l-56.984 20.352-47.851 8.875z" fill="#368df6"/><path d="m404.922 54.314-148.026-52.866c-5.405-1.931-11.311-1.931-16.716 0l-3.142 1.122 144.884 51.744c7.33 2.618 7.33 12.984 0 15.602l-144.884 51.744 3.142 1.122c5.405 1.93 11.311 1.93 16.716 0l68.042-24.301 79.984-28.566c7.33-2.617 7.33-12.983 0-15.601z" fill="#336fe7"/></g></svg>