<svg id="Layer_1" enable-background="new 0 0 507.147 507.147" height="512" viewBox="0 0 507.147 507.147" width="512" xmlns="http://www.w3.org/2000/svg"><g><g><path d="m323.502 507.147c-13.271 0-24.067-10.796-24.067-24.067v-165.666c0-4.999-4.067-9.066-9.066-9.066s-9.066 4.067-9.066 9.066v165.666c0 13.271-10.796 24.067-24.066 24.067-13.271 0-24.067-10.796-24.067-24.067v-165.666c0-4.999-4.067-9.066-9.066-9.066s-9.066 4.067-9.066 9.066v165.666c0 13.271-10.796 24.067-24.066 24.067-13.271 0-24.067-10.796-24.067-24.067v-236.933c0-4.142 3.357-7.5 7.5-7.5s7.5 3.358 7.5 7.5v236.933c0 5 4.067 9.067 9.067 9.067 4.999 0 9.066-4.067 9.066-9.067v-165.666c0-13.27 10.796-24.066 24.066-24.066s24.066 10.796 24.066 24.066v165.666c0 5 4.067 9.067 9.067 9.067 4.999 0 9.066-4.067 9.066-9.067v-165.666c0-13.27 10.796-24.066 24.066-24.066s24.066 10.796 24.066 24.066v165.666c0 5 4.067 9.067 9.067 9.067 4.999 0 9.066-4.067 9.066-9.067v-165.666c0-13.27 10.796-24.066 24.066-24.066h82.834c13.271 0 24.066 10.796 24.066 24.066v49.7c0 4.142-3.357 7.5-7.5 7.5s-7.5-3.358-7.5-7.5v-49.7c0-4.999-4.067-9.066-9.066-9.066h-82.834c-4.999 0-9.066 4.067-9.066 9.066v165.666c0 13.271-10.796 24.067-24.066 24.067z" fill="#4a6f99"/></g><path d="m406.335 391.964c0-13.724 11.126-24.85 24.85-24.85h49.7c13.724 0 24.85 11.126 24.85 24.85v57.983c0 27.449-22.251 49.7-49.7 49.7s-49.7-22.251-49.7-49.7z" fill="#e9efff"/><path d="m480.885 367.114h-23c13.724 0 24.85 11.126 24.85 24.85v57.983c0 23.488-16.299 43.157-38.2 48.348 3.693.875 7.54 1.352 11.5 1.352 27.448 0 49.7-22.251 49.7-49.7v-57.983c0-13.725-11.126-24.85-24.85-24.85z" fill="#d3dcfb"/><path d="m406.335 409.313h99.4v15h-99.4z" fill="#a2b6f4"/><g><path d="m456.035 424.313c-4.143 0-7.5-3.358-7.5-7.5v-16.566c0-4.142 3.357-7.5 7.5-7.5s7.5 3.358 7.5 7.5v16.566c0 4.143-3.357 7.5-7.5 7.5z" fill="#4a6f99"/></g><g><g><path d="m339.89 92.98h-33.133c-4.142 0-7.5-3.357-7.5-7.5s3.358-7.5 7.5-7.5h33.133c4.142 0 7.5 3.357 7.5 7.5s-3.358 7.5-7.5 7.5z" fill="#ffa438"/></g><g><path d="m295.042 38.428c-1.919 0-3.839-.733-5.303-2.196-2.929-2.93-2.929-7.678 0-10.608l23.429-23.429c2.929-2.928 7.678-2.928 10.606 0 2.929 2.93 2.929 7.678 0 10.608l-23.429 23.429c-1.464 1.464-3.383 2.196-5.303 2.196z" fill="#ffa438"/></g><g><path d="m318.471 170.961c-1.919 0-3.839-.732-5.303-2.196l-23.429-23.429c-2.929-2.93-2.929-7.678 0-10.607 2.929-2.928 7.678-2.928 10.606 0l23.429 23.429c2.929 2.93 2.929 7.678 0 10.608-1.464 1.463-3.383 2.195-5.303 2.195z" fill="#ffa438"/></g></g><g><g><path d="m42.045 92.98h-33.133c-4.142 0-7.5-3.357-7.5-7.5s3.358-7.5 7.5-7.5h33.133c4.142 0 7.5 3.357 7.5 7.5s-3.358 7.5-7.5 7.5z" fill="#ffa438"/></g><g><path d="m30.331 170.961c-1.92 0-3.839-.732-5.303-2.196-2.929-2.93-2.929-7.678 0-10.608l23.429-23.429c2.929-2.928 7.678-2.928 10.606 0 2.929 2.93 2.929 7.678 0 10.607l-23.429 23.429c-1.464 1.465-3.384 2.197-5.303 2.197z" fill="#ffa438"/></g><g><path d="m53.76 38.428c-1.919 0-3.839-.733-5.303-2.196l-23.429-23.429c-2.929-2.93-2.929-7.678 0-10.608 2.929-2.928 7.678-2.928 10.606 0l23.429 23.429c2.929 2.93 2.929 7.678 0 10.608-1.464 1.464-3.384 2.196-5.303 2.196z" fill="#ffa438"/></g></g><path d="m257.234 85.707c0-46.247-37.9-83.642-84.334-82.82-45.319.802-81.333 37.495-81.333 82.821 0 30.629 16.632 57.362 41.351 71.693 5.115 2.965 8.349 8.344 8.349 14.257v18.45h66.267v-18.324c0-5.981 3.264-11.426 8.435-14.432 24.672-14.344 41.265-41.051 41.265-71.645z" fill="#ffc55e"/><path d="m172.9 2.887c-3.378.06-6.697.342-9.96.79 40.284 5.616 71.294 40.199 71.294 82.03 0 30.594-16.593 57.301-41.265 71.643-5.171 3.006-8.435 8.452-8.435 14.432v18.324h23v-18.324c0-5.981 3.264-11.427 8.435-14.432 24.672-14.342 41.265-41.049 41.265-71.643 0-46.247-37.899-83.642-84.334-82.82z" fill="#ffa438"/><path d="m191.534 251.373h-34.267c-8.837 0-16-7.163-16-16v-21.133h66.267v21.133c0 8.837-7.163 16-16 16z" fill="#bec8f7"/><path d="m184.534 214.24v21.133c0 8.837-7.163 16-16 16h23c8.837 0 16-7.163 16-16v-21.133z" fill="#a2b6f4"/><path d="m207.534 218.24c9.149 0 16.567-7.417 16.567-16.567s-7.417-16.567-16.567-16.567h-66.267c-9.15 0-16.567 7.417-16.567 16.567 0 9.149 7.417 16.567 16.567 16.567z" fill="#e9efff"/><path d="m207.534 185.107h-23c9.15 0 16.567 7.417 16.567 16.567 0 9.149-7.417 16.567-16.567 16.567h23c9.15 0 16.567-7.417 16.567-16.567s-7.417-16.567-16.567-16.567z" fill="#d3dcfb"/><g><path d="m190.968 126.34h-33.134c-4.143 0-7.5-3.357-7.5-7.5s3.357-7.5 7.5-7.5h33.134c4.143 0 7.5 3.357 7.5 7.5s-3.358 7.5-7.5 7.5z" fill="#4a6f99"/></g><path d="m166.901 185.107v-66.267c0-4.143 3.357-7.5 7.5-7.5s7.5 3.357 7.5 7.5v66.267z" fill="#4a6f99"/></g></svg>