<svg id="Layer_1" enable-background="new 0 0 499.631 499.631" height="512" viewBox="0 0 499.631 499.631" width="512" xmlns="http://www.w3.org/2000/svg"><g><g><g><path d="m245.787 372.031c-4.143 0-7.5-3.357-7.5-7.5v-91.059c0-4.142 3.357-7.5 7.5-7.5s7.5 3.358 7.5 7.5v91.059c0 4.143-3.358 7.5-7.5 7.5z" fill="#5b7fa0"/></g><g><path d="m196.223 389.45c0-13.724 11.126-24.85 24.85-24.85h49.7c13.724 0 24.85 11.126 24.85 24.85v57.983c0 27.449-22.251 49.7-49.7 49.7s-49.7-22.251-49.7-49.7z" fill="#e9efff"/><path d="m270.773 364.6h-23c13.724 0 24.85 11.126 24.85 24.85v57.983c0 23.488-16.299 43.157-38.2 48.348 3.693.875 7.54 1.352 11.5 1.352 27.448 0 49.7-22.251 49.7-49.7v-57.983c0-13.725-11.126-24.85-24.85-24.85z" fill="#d3dcfb"/><path d="m196.223 406.799h99.4v15h-99.4z" fill="#a2b6f4"/><g><path d="m245.923 421.799c-4.143 0-7.5-3.358-7.5-7.5v-16.566c0-4.142 3.357-7.5 7.5-7.5s7.5 3.358 7.5 7.5v16.566c0 4.142-3.358 7.5-7.5 7.5z" fill="#5b7fa0"/></g></g></g><g><g><g><g><path d="m411.171 421.699h-33.112c-4.142 0-7.5-3.357-7.5-7.5s3.358-7.5 7.5-7.5h33.112c4.143 0 7.5 3.357 7.5 7.5s-3.358 7.5-7.5 7.5z" fill="#77dfff"/></g><g><path d="m366.351 367.182c-1.919 0-3.839-.732-5.304-2.196-2.929-2.93-2.929-7.678 0-10.607l23.414-23.414c2.93-2.928 7.678-2.928 10.607 0 2.929 2.93 2.929 7.678 0 10.607l-23.414 23.414c-1.464 1.463-3.384 2.196-5.303 2.196z" fill="#77dfff"/></g><g><path d="m389.765 499.631c-1.919 0-3.839-.732-5.304-2.196l-23.414-23.414c-2.929-2.93-2.929-7.678 0-10.607 2.93-2.928 7.678-2.928 10.607 0l23.414 23.414c2.929 2.93 2.929 7.678 0 10.607-1.464 1.463-3.384 2.196-5.303 2.196z" fill="#77dfff"/></g></g><g><g><path d="m113.515 421.699h-33.111c-4.142 0-7.5-3.357-7.5-7.5s3.358-7.5 7.5-7.5h33.111c4.143 0 7.5 3.357 7.5 7.5s-3.357 7.5-7.5 7.5z" fill="#77dfff"/></g><g><path d="m101.809 499.631c-1.919 0-3.839-.732-5.303-2.196-2.93-2.929-2.93-7.678-.001-10.607l23.413-23.414c2.93-2.93 7.679-2.929 10.606-.001 2.93 2.929 2.93 7.678.001 10.606l-23.413 23.414c-1.464 1.465-3.384 2.198-5.303 2.198z" fill="#77dfff"/></g><g><path d="m125.222 367.182c-1.92 0-3.839-.732-5.304-2.197l-23.412-23.415c-2.929-2.929-2.929-7.678.001-10.606 2.929-2.929 7.678-2.928 10.606.001l23.413 23.414c2.929 2.929 2.929 7.678-.001 10.606-1.464 1.464-3.384 2.197-5.303 2.197z" fill="#77dfff"/></g></g></g></g><g><path d="m394.78 105.731v151.225c0 9.143-7.412 16.555-16.555 16.555h-264.875c-9.143 0-16.555-7.412-16.555-16.555v-151.225z" fill="#336fe7"/><path d="m460.06 243.114 7.611 45.55c.841 5.045-3.05 9.638-8.165 9.638h-30.122c-5.115 0-9.006-4.593-8.165-9.638l7.611-45.55z" fill="#ffa438"/><g><path d="m444.445 206.474c-4.142 0-7.5-3.357-7.5-7.5v-106.423c0-4.143 3.358-7.5 7.5-7.5s7.5 3.357 7.5 7.5v106.423c0 4.142-3.358 7.5-7.5 7.5z" fill="#5b7fa0"/></g><path d="m371.78 105.731v151.225c0 9.143-7.412 16.555-16.555 16.555h23c9.143 0 16.555-7.412 16.555-16.555v-151.225z" fill="#325be3"/><path d="m113.35 273.511h264.876c9.143 0 16.555-7.412 16.555-16.555v-24.874h-297.986v24.874c0 9.143 7.412 16.555 16.555 16.555z" fill="#ffc55e"/><path d="m371.78 256.956c0 9.143-7.412 16.555-16.555 16.555h23c9.143 0 16.555-7.412 16.555-16.555v-24.874h-23z" fill="#ffa438"/><path d="m234.652 159.522-198.804-71.001c-7.325-2.616-7.325-12.974 0-15.59l198.804-71.002c7.201-2.572 15.071-2.572 22.272 0l198.804 71.001c7.324 2.616 7.324 12.974 0 15.59l-60.564 21.63-65.251 16.219z" fill="#368df6"/><path d="m455.728 72.93-198.804-71.001c-7.201-2.572-15.071-2.572-22.272 0l-.364.13 198.44 70.872c7.324 2.616 7.324 12.974 0 15.59l-198.44 70.872.364.13c7.201 2.572 15.071 2.572 22.272 0l198.804-71.001c7.324-2.617 7.324-12.975 0-15.592z" fill="#336fe7"/><circle cx="444.445" cy="223.805" fill="#ffc55e" r="24.832"/></g></g></svg>