<svg id="Layer_1" enable-background="new 0 0 504.5 504.5" height="512" viewBox="0 0 504.5 504.5" width="512" xmlns="http://www.w3.org/2000/svg"><g><g><circle cx="252.25" cy="239.433" fill="#77dfff" r="149.1"/><g fill="#69cdff"><path d="m252.25 90.333c-3.869 0-7.705.148-11.5.437 76.972 5.871 137.6 70.187 137.6 148.663s-60.628 142.791-137.6 148.663c3.795.289 7.631.437 11.5.437 82.346 0 149.1-66.754 149.1-149.1s-66.754-149.1-149.1-149.1z"/><path d="m401.163 246.933c.123-2.485.187-4.985.187-7.5s-.064-5.016-.188-7.5h-66.946c-.528-24.337-3.62-47.739-9.009-68.833 15.56-4.211 29.756-9.771 41.834-16.519.433-.242.83-.522 1.194-.831-3.203-3.961-6.601-7.757-10.187-11.369-10.754 5.802-23.269 10.63-36.995 14.329-2.734-8.457-5.865-16.445-9.381-23.851-5.44-11.459-11.591-21.092-18.276-28.774-13.07-3.745-26.874-5.754-41.147-5.754s-28.077 2.009-41.147 5.754c-6.685 7.681-12.836 17.314-18.275 28.773-3.516 7.406-6.647 15.394-9.381 23.851-13.726-3.7-26.241-8.527-36.996-14.33-3.586 3.611-6.984 7.408-10.187 11.369.364.309.762.589 1.194.83 12.078 6.748 26.275 12.308 41.835 16.519-5.388 21.094-8.48 44.496-9.008 68.833h-66.947c-.123 2.485-.188 4.985-.188 7.5s.064 5.015.187 7.5h66.947c.528 24.337 3.62 47.74 9.009 68.834-15.56 4.211-29.755 9.771-41.834 16.518-.433.242-.831.523-1.195.832 3.203 3.961 6.601 7.757 10.187 11.368 10.754-5.802 23.269-10.629 36.996-14.329 2.734 8.457 5.865 16.445 9.381 23.851 5.44 11.459 11.59 21.092 18.276 28.773 13.07 3.745 26.874 5.754 41.147 5.754 14.274 0 28.077-2.009 41.148-5.754 6.685-7.681 12.836-17.314 18.276-28.773 3.516-7.406 6.647-15.394 9.381-23.851 13.726 3.7 26.241 8.527 36.996 14.329 3.589-3.614 6.989-7.414 10.194-11.378-.346-.286-.718-.55-1.124-.777-12.096-6.768-26.32-12.343-41.913-16.563 5.388-21.094 8.481-44.497 9.009-68.833h66.946zm-156.413 140.649c-18.825-4.909-35.564-27.989-46.464-60.894 14.683-2.941 30.373-4.691 46.464-5.107zm0-81.002c-17.526.434-34.661 2.382-50.702 5.684-5.073-19.61-8.206-41.854-8.759-65.331h59.461zm0-74.647h-59.461c.553-23.477 3.686-45.721 8.759-65.33 16.041 3.302 33.176 5.25 50.702 5.684zm0-74.648c-16.091-.415-31.781-2.166-46.464-5.106 10.9-32.905 27.639-55.986 46.464-60.895zm15-66.001c18.826 4.909 35.565 27.989 46.465 60.895-14.683 2.94-30.373 4.691-46.465 5.106zm0 296.298v-66.001c16.092.415 31.782 2.166 46.465 5.106-10.9 32.906-27.639 55.987-46.465 60.895zm50.703-75.319c-16.04-3.302-33.175-5.25-50.703-5.684v-59.647h59.462c-.553 23.478-3.686 45.722-8.759 65.331zm-50.703-80.33v-59.646c17.526-.434 34.662-2.382 50.703-5.684 5.073 19.61 8.206 41.853 8.759 65.33z"/></g></g><g><g><g><path d="" fill="#e9efff"/></g><g><path d="m451.05 329.908c-.964 0-1.943-.186-2.889-.582-3.822-1.597-5.626-5.989-4.028-9.812 10.605-25.383 15.983-52.326 15.983-80.081 0-34.119-8.442-67.951-24.415-97.838-1.953-3.653-.574-8.197 3.079-10.149 3.656-1.952 8.197-.573 10.149 3.079 17.132 32.055 26.186 68.331 26.186 104.908 0 29.751-5.768 58.64-17.143 85.864-1.201 2.878-3.987 4.611-6.922 4.611z" fill="#e9efff"/></g><g><path d="m424.559 117.705c-2.278 0-4.528-1.033-6.002-2.995-36.006-47.931-90.797-78.015-150.323-82.538-4.13-.314-7.224-3.917-6.91-8.047.313-4.13 3.916-7.223 8.047-6.91 63.832 4.851 122.58 37.103 161.179 88.485 2.488 3.313 1.82 8.014-1.491 10.501-1.351 1.015-2.933 1.504-4.5 1.504z" fill="#e9efff"/></g><g><path d="m79.942 117.705c-1.567 0-3.148-.489-4.499-1.504-3.311-2.487-3.979-7.188-1.491-10.501 38.597-51.382 97.345-83.634 161.178-88.485 4.142-.318 7.732 2.78 8.047 6.91.314 4.13-2.78 7.732-6.91 8.047-59.529 4.524-114.319 34.608-150.323 82.538-1.474 1.961-3.724 2.995-6.002 2.995z" fill="#e9efff"/></g><g><path d="m53.453 329.916c-2.935 0-5.721-1.733-6.923-4.61-11.378-27.228-17.146-56.119-17.146-85.872 0-36.576 9.055-72.851 26.185-104.902 1.952-3.652 6.494-5.033 10.149-3.079 3.653 1.952 5.032 6.496 3.079 10.149-15.971 29.884-24.413 63.714-24.413 97.832 0 27.757 5.379 54.703 15.986 80.089 1.598 3.822-.206 8.215-4.028 9.812-.944.393-1.925.581-2.889.581z" fill="#e9efff"/></g></g></g><g><path d="m252.25 48.134c-13.27 0-24.066-10.797-24.066-24.067s10.796-24.067 24.066-24.067 24.066 10.796 24.066 24.066-10.795 24.068-24.066 24.068zm0-33.134c-4.999 0-9.066 4.067-9.066 9.066 0 5 4.067 9.067 9.066 9.067s9.066-4.067 9.066-9.067c.001-4.999-4.067-9.066-9.066-9.066z" fill="#69cdff"/></g><g><path d="m70.017 147.533c-13.271 0-24.066-10.796-24.066-24.066s10.795-24.067 24.066-24.067 24.066 10.796 24.066 24.066-10.796 24.067-24.066 24.067zm0-33.133c-4.999 0-9.066 4.067-9.066 9.066s4.067 9.066 9.066 9.066 9.066-4.067 9.066-9.066c0-4.998-4.067-9.066-9.066-9.066z" fill="#69cdff"/></g><g><path d="m434.484 147.533c-13.271 0-24.066-10.796-24.066-24.066s10.795-24.067 24.066-24.067c13.27 0 24.066 10.796 24.066 24.066s-10.796 24.067-24.066 24.067zm0-33.133c-4.999 0-9.066 4.067-9.066 9.066s4.067 9.066 9.066 9.066 9.066-4.067 9.066-9.066c0-4.998-4.067-9.066-9.066-9.066z" fill="#69cdff"/></g><path d="m70.016 272.566c-9.15 0-16.567 7.417-16.567 16.567v198.801c0 9.15 7.417 16.567 16.567 16.567h364.468c9.15 0 16.567-7.417 16.567-16.567v-198.801c0-9.149-7.417-16.567-16.567-16.567z" fill="#368df6"/><path d="m401.351 239.433h-115.967c-18.299 0-33.133 14.834-33.133 33.133 0-18.299-14.834-33.133-33.133-33.133h-115.968c-9.15 0-16.567 7.417-16.567 16.567v182.234l165.667 33.134 165.667-33.134v-182.234c0-9.15-7.417-16.567-16.566-16.567z" fill="#e9efff"/><path d="m186.267 305.7h-33.7c-4.418 0-8-3.582-8-8v-17.133c0-4.418 3.582-8 8-8h33.7c4.418 0 8 3.582 8 8v17.133c0 4.418-3.582 8-8 8z" fill="#77dfff"/><g><path d="m219.117 346.333h-99.4c-4.142 0-7.5-3.358-7.5-7.5s3.358-7.5 7.5-7.5h99.4c4.142 0 7.5 3.358 7.5 7.5s-3.358 7.5-7.5 7.5z" fill="#5b7fa0"/></g><g><path d="m219.117 379.467h-99.4c-4.142 0-7.5-3.358-7.5-7.5s3.358-7.5 7.5-7.5h99.4c4.142 0 7.5 3.358 7.5 7.5s-3.358 7.5-7.5 7.5z" fill="#5b7fa0"/></g><g><path d="m219.117 412.6h-99.4c-4.142 0-7.5-3.358-7.5-7.5s3.358-7.5 7.5-7.5h99.4c4.142 0 7.5 3.358 7.5 7.5s-3.358 7.5-7.5 7.5z" fill="#5b7fa0"/></g><path d="m351.934 305.7h-33.7c-4.418 0-8-3.582-8-8v-17.133c0-4.418 3.582-8 8-8h33.7c4.418 0 8 3.582 8 8v17.133c0 4.418-3.582 8-8 8z" fill="#77dfff"/><g><path d="m384.784 346.333h-99.4c-4.142 0-7.5-3.358-7.5-7.5s3.358-7.5 7.5-7.5h99.4c4.142 0 7.5 3.358 7.5 7.5s-3.358 7.5-7.5 7.5z" fill="#5b7fa0"/></g><g><path d="m384.784 379.467h-99.4c-4.142 0-7.5-3.358-7.5-7.5s3.358-7.5 7.5-7.5h99.4c4.142 0 7.5 3.358 7.5 7.5s-3.358 7.5-7.5 7.5z" fill="#5b7fa0"/></g><g><path d="m384.784 412.6h-99.4c-4.142 0-7.5-3.358-7.5-7.5s3.358-7.5 7.5-7.5h99.4c4.142 0 7.5 3.358 7.5 7.5s-3.358 7.5-7.5 7.5z" fill="#5b7fa0"/></g><path d="m434.484 272.566h-23c9.15 0 16.567 7.417 16.567 16.567v198.8c0 9.149-7.417 16.567-16.567 16.567h23c9.15 0 16.567-7.417 16.567-16.567v-198.8c0-9.15-7.417-16.567-16.567-16.567z" fill="#336fe7"/><path d="m401.351 239.433h-23c9.15 0 16.567 7.417 16.567 16.567v186.834l23-4.6v-182.234c-.001-9.15-7.418-16.567-16.567-16.567z" fill="#d3dcfb"/><path d="m252.25 471.367c0-18.299 14.834-33.134 33.133-33.134h132.534v16.567c0 9.15-7.417 16.567-16.567 16.567z" fill="#bec8f7"/><path d="m394.917 438.233v16.567c0 9.15-7.417 16.567-16.567 16.567h-126.1 149.1c9.15 0 16.567-7.417 16.567-16.567v-16.567z" fill="#a2b6f4"/><path d="m219.117 239.433h-23.001c18.299 0 33.133 14.834 33.133 33.133v194.201l23.001 4.6v-198.801c0-18.299-14.834-33.133-33.133-33.133z" fill="#d3dcfb"/><path d="m252.25 471.367c0-18.299-14.834-33.134-33.133-33.134h-132.534v16.567c0 9.15 7.417 16.567 16.567 16.567z" fill="#bec8f7"/><path d="m229.25 471.367h23.001c0-18.299-14.834-33.134-33.133-33.134h-23.001c18.298 0 33.133 14.835 33.133 33.134z" fill="#a2b6f4"/><g fill="#69cdff"><path d="m351.934 272.566h-23c4.418 0 8 3.582 8 8v17.134c0 4.418-3.582 8-8 8h23c4.418 0 8-3.582 8-8v-17.133c0-4.419-3.582-8.001-8-8.001z"/><path d="m186.267 272.566h-23c4.418 0 8 3.582 8 8v17.134c0 4.418-3.582 8-8 8h23c4.418 0 8-3.582 8-8v-17.133c0-4.419-3.582-8.001-8-8.001z"/></g></g></svg>