<svg id="Layer_1" enable-background="new 0 0 512 512" height="512" viewBox="0 0 512 512" width="512" xmlns="http://www.w3.org/2000/svg"><g><path d="m497 128.533h-113.533v-113.533c0-8.284-6.716-15-15-15h-224.934c-8.284 0-15 6.716-15 15v113.533h-113.533c-8.284 0-15 6.716-15 15v224.934c0 8.284 6.716 15 15 15h113.533v113.533c0 8.284 6.716 15 15 15h224.934c8.284 0 15-6.716 15-15v-113.533h113.533c8.284 0 15-6.716 15-15v-224.934c0-8.284-6.716-15-15-15z" fill="#352e2f"/><path d="m497 128.533h-113.533v-113.533c0-8.284-6.716-15-15-15h-112.467v512h112.467c8.284 0 15-6.716 15-15v-113.533h113.533c8.284 0 15-6.716 15-15v-224.934c0-8.284-6.716-15-15-15z" fill="#0a0400"/><g fill="#f5f5f5"><path d="m256 158.533c-8.284 0-15-6.716-15-15v-32.133c0-8.284 6.716-15 15-15s15 6.716 15 15v32.133c0 8.284-6.716 15-15 15z"/><path d="m256 512c-8.284 0-15-6.716-15-15v-32.133c0-8.284 6.716-15 15-15s15 6.716 15 15v32.133c0 8.284-6.716 15-15 15z"/><path d="m256 62.133c-8.284 0-15-6.716-15-15v-32.133c0-8.284 6.716-15 15-15s15 6.716 15 15v32.133c0 8.284-6.716 15-15 15z"/><path d="m256 415.6c-8.284 0-15-6.716-15-15v-32.133c0-8.284 6.716-15 15-15s15 6.716 15 15v32.133c0 8.284-6.716 15-15 15z"/></g><path d="m400.6 271h-32.133c-8.284 0-15-6.716-15-15s6.716-15 15-15h32.133c8.284 0 15 6.716 15 15s-6.716 15-15 15z" fill="#dedcde"/><path d="m47.133 271h-32.133c-8.284 0-15-6.716-15-15s6.716-15 15-15h32.133c8.284 0 15 6.716 15 15s-6.716 15-15 15z" fill="#f5f5f5"/><path d="m497 271h-32.133c-8.284 0-15-6.716-15-15s6.716-15 15-15h32.133c8.284 0 15 6.716 15 15s-6.716 15-15 15z" fill="#dedcde"/><path d="m143.533 271h-32.133c-8.284 0-15-6.716-15-15s6.716-15 15-15h32.133c8.284 0 15 6.716 15 15s-6.716 15-15 15z" fill="#f5f5f5"/><path d="m256 158.533v-62.133c8.284 0 15 6.716 15 15v32.133c0 8.284-6.716 15-15 15z" fill="#dedcde"/><path d="m256 62.133v-62.133c8.284 0 15 6.716 15 15v32.133c0 8.284-6.716 15-15 15z" fill="#dedcde"/><path d="m256 512v-62.133c8.284 0 15 6.716 15 15v32.133c0 8.284-6.716 15-15 15z" fill="#dedcde"/><path d="m256 415.6v-62.133c8.284 0 15 6.716 15 15v32.133c0 8.284-6.716 15-15 15z" fill="#dedcde"/></g></svg>