<svg id="Layer_1" enable-background="new 0 0 512 512" height="512" viewBox="0 0 512 512" width="512" xmlns="http://www.w3.org/2000/svg"><g><path d="m111.4 206.733h-64.267c-25.808 0-47.133-20.855-47.133-47.133 0-26.03 21.058-47.133 47.133-47.133 43.715 0 79.267 35.552 79.267 79.25v.016c0 8.285-6.716 15-15 15z" fill="#c8003c"/><path d="m464.866 206.733h-64.266c-8.284 0-15-6.716-15-15v-.016c0-43.699 35.552-79.25 79.251-79.25 26.094 0 47.149 21.097 47.149 47.133 0 25.744-20.796 47.133-47.134 47.133z" fill="#78141e"/><path d="m63.2 479.867c-34.849 0-63.2-28.352-63.2-63.2v-32.133c0-8.284 6.716-15 15-15h96.4c8.284 0 15 6.716 15 15v32.133c0 34.848-28.351 63.2-63.2 63.2z" fill="#352e2f"/><path d="m448.8 479.867c-34.849 0-63.2-28.352-63.2-63.2v-32.133c0-8.284 6.716-15 15-15h96.4c8.284 0 15 6.716 15 15v32.133c0 34.848-28.352 63.2-63.2 63.2z" fill="#0a0400"/><path d="m400.6 206.733h-289.2c-8.284 0-15-6.716-15-15v-64.267c0-52.641 42.587-95.333 95.333-95.333h128.533c52.65 0 95.333 42.587 95.333 95.333v64.267c.001 8.285-6.715 15-14.999 15z" fill="#ff0032"/><path d="m415.6 191.733v-64.267c0-52.746-42.683-95.333-95.333-95.333h-64.267v174.6h144.6c8.284 0 15-6.715 15-15z" fill="#c8003c"/><path d="m126.4 206.733h259.2v-79.267c0-36.076-29.186-65.333-65.333-65.333h-128.534c-36.11 0-65.333 29.214-65.333 65.333z" fill="#c3e1ff"/><path d="m385.6 127.467c0-36.076-29.186-65.333-65.333-65.333h-64.267v144.6h129.6z" fill="#5abeff"/><path d="m352.4 206.733c-8.284 0-15-6.716-15-15v-16.067c0-13.834-11.236-25.167-25.167-25.167-13.832 0-25.167 11.236-25.167 25.167v16.067c0 8.284-6.716 15-15 15s-15-6.716-15-15v-16.067c0-30.483 24.658-55.167 55.167-55.167 30.48 0 55.167 24.653 55.167 55.167v16.067c0 8.285-6.715 15-15 15z" fill="#0a0400"/><path d="m497 399.533h-482c-8.284 0-15-6.716-15-15v-96.4c0-61.524 49.776-111.4 111.4-111.4h289.2c61.524 0 111.4 49.776 111.4 111.4v96.4c0 8.284-6.716 15-15 15z" fill="#ff6478"/><path d="m512 384.533v-96.4c0-61.624-49.876-111.4-111.4-111.4h-144.6v222.8h241c8.284 0 15-6.716 15-15z" fill="#ff0032"/><circle cx="111.4" cy="288.133" fill="#fadca9" r="47.133"/><path d="m400.6 335.267c-25.989 0-47.133-21.144-47.133-47.133s21.143-47.134 47.133-47.134 47.134 21.144 47.134 47.133-21.145 47.134-47.134 47.134z" fill="#ffc85a"/><path d="m304.2 271h-96.4c-8.284 0-15-6.716-15-15s6.716-15 15-15h96.4c8.284 0 15 6.716 15 15s-6.716 15-15 15z" fill="#c8003c"/><path d="m304.2 335.267h-96.4c-8.284 0-15-6.716-15-15s6.716-15 15-15h96.4c8.284 0 15 6.716 15 15s-6.716 15-15 15z" fill="#c8003c"/><g fill="#78141e"><path d="m319.2 256c0-8.284-6.716-15-15-15h-48.2v30h48.2c8.284 0 15-6.716 15-15z"/><path d="m319.2 320.267c0-8.284-6.716-15-15-15h-48.2v30h48.2c8.284 0 15-6.716 15-15z"/></g></g></svg>