<svg id="Layer_1" enable-background="new 0 0 512 512" height="512" viewBox="0 0 512 512" width="512" xmlns="http://www.w3.org/2000/svg"><g><path d="m256 208.867c-114.624 0-207.87 93.289-207.8 207.929.005 8.233 6.766 14.871 15 14.871h18.2c8.284 0 15 6.716 15 15v50.333c0 8.284 6.716 15 15 15h289.2c8.284 0 15-6.716 15-15v-50.333c0-8.284 6.716-15 15-15h18.2c8.233 0 14.995-6.637 15-14.871.07-114.64-93.176-207.929-207.8-207.929z" fill="#5abeff"/><path d="m256 208.867v303.133h144.6c8.284 0 15-6.716 15-15v-50.333c0-8.284 6.716-15 15-15h18.2c8.233 0 14.995-6.637 15-14.871.07-114.64-93.176-207.929-207.8-207.929z" fill="#0096f0"/><path d="m223.867 431.667h-80.333c-8.284 0-15-6.716-15-15s6.716-15 15-15h80.333c8.284 0 15 6.716 15 15s-6.716 15-15 15z" fill="#352e2f"/><path d="m368.467 431.667h-80.333c-8.284 0-15-6.716-15-15s6.716-15 15-15h80.333c8.284 0 15 6.716 15 15s-6.716 15-15 15z" fill="#0a0400"/><path d="m364.123 381.955c-9.928-30.907-44.196-78.822-108.123-78.822-63.951 0-98.182 47.875-108.123 78.822-2.533 7.887-10.981 12.226-18.869 9.694-7.887-2.534-12.228-10.981-9.694-18.869 12.61-39.257 55.905-99.647 136.685-99.647 80.686 0 124.033 60.258 136.685 99.647 2.534 7.887-1.807 16.335-9.694 18.869-8.186 2.63-16.431-2.109-18.867-9.694z" fill="#61585d"/><circle cx="256" cy="119.433" fill="#ffebd7" r="119.433"/><path d="m256 238.867v-238.867c65.855 0 119.433 53.578 119.433 119.433 0 65.856-53.578 119.434-119.433 119.434z" fill="#ffcbc8"/><path d="m256 158.505c-14.128 0-28.257-5.378-39.012-16.134-5.858-5.858-5.858-15.355 0-21.213 5.857-5.858 15.355-5.858 21.213 0 9.814 9.814 25.784 9.814 35.599 0 5.857-5.858 15.355-5.858 21.213 0s5.858 15.355 0 21.213c-10.756 10.756-24.885 16.134-39.013 16.134z" fill="#ffacb9"/><path d="m295.012 142.371c5.858-5.858 5.858-15.355 0-21.213-5.857-5.858-15.355-5.858-21.213 0-4.907 4.907-11.353 7.361-17.799 7.361v29.986c14.128 0 28.257-5.378 39.012-16.134z" fill="#ff8caa"/><path d="m364.123 381.955c-9.928-30.907-44.196-78.822-108.123-78.822v-30c80.686 0 124.033 60.258 136.685 99.647 2.534 7.887-1.807 16.335-9.694 18.869-8.187 2.63-16.432-2.109-18.868-9.694z" fill="#352e2f"/><path d="m256 512c-8.284 0-15-6.716-15-15v-48.2c0-8.284 6.716-15 15-15s15 6.716 15 15v48.2c0 8.284-6.716 15-15 15z" fill="#352e2f"/><path d="m271 497v-48.2c0-8.284-6.716-15-15-15v78.2c8.284 0 15-6.716 15-15z" fill="#0a0400"/><circle cx="256" cy="416.667" fill="#8c828c" r="47.133"/><path d="m256 463.8v-94.267c25.989 0 47.133 21.144 47.133 47.133s-21.144 47.134-47.133 47.134z" fill="#61585d"/><path d="m111.4 512c-34.849 0-63.2-28.352-63.2-63.2v-32.133c0-34.849 28.351-63.2 63.2-63.2 26.036 0 47.133 21.059 47.133 47.133v64.267c0 25.989-21.144 47.133-47.133 47.133z" fill="#ffebd7"/><path d="m400.6 512c-25.989 0-47.133-21.144-47.133-47.133v-64.267c0-26.031 21.058-47.133 47.133-47.133 34.849 0 63.2 28.351 63.2 63.2v32.133c0 34.848-28.351 63.2-63.2 63.2z" fill="#ffcbc8"/></g></svg>