<svg id="Layer_1" enable-background="new 0 0 512 512" height="512" viewBox="0 0 512 512" width="512" xmlns="http://www.w3.org/2000/svg"><g><path d="m320.267 497h-128.534c-8.284 0-15-6.716-15-15v-49.267c0-8.284 6.716-15 15-15h128.533c8.284 0 15 6.716 15 15v49.267c.001 8.284-6.715 15-14.999 15z" fill="#c7c2c8"/><path d="m335.267 482v-49.267c0-8.284-6.716-15-15-15h-64.267v79.267h64.267c8.284 0 15-6.716 15-15z" fill="#b0a9b1"/><path d="m464.866 447.733h-417.732c-25.744 0-47.134-20.796-47.134-47.133v-64.267c0-8.284 6.716-15 15-15s15 6.716 15 15c0 9.58 7.789 17.133 17.134 17.133h417.732c9.577 0 17.134-7.786 17.134-17.133 0-8.284 6.716-15 15-15s15 6.716 15 15v64.267c0 25.744-20.796 47.133-47.134 47.133z" fill="#f5f5f5"/><path d="m512 400.6v-64.267c0-8.284-6.716-15-15-15s-15 6.716-15 15c0 9.348-7.557 17.133-17.134 17.133h-208.866v94.267h208.866c26.338 0 47.134-21.389 47.134-47.133z" fill="#dedcde"/><path d="m464.866 15h-417.732c-17.772 0-32.134 14.38-32.134 32.133v175.667h482v-175.667c0-17.769-14.377-32.133-32.134-32.133z" fill="#5abeff"/><path d="m497 47.133c0-17.769-14.377-32.133-32.134-32.133h-208.866v207.8h241z" fill="#0096f0"/><path d="m290.896 200.873c-2.583 4.961-2.191 10.947 1.016 15.529l106.445 152.065h66.51c17.812 0 32.134-14.432 32.134-32.133v-143.534h-192.801c-5.593 0-10.721 3.112-13.304 8.073z" fill="#1e8267"/><path d="m47.134 368.467h66.51l106.445-152.065c3.208-4.582 3.599-10.568 1.016-15.529s-7.711-8.073-13.305-8.073h-192.8v143.534c0 17.81 14.429 32.133 32.134 32.133z" fill="#48b658"/><path d="m304.2 192.8h-96.4c-4.895 0-9.481 2.388-12.289 6.398l-112.466 160.667c-1.798 2.569-2.71 5.579-2.711 8.602h351.331c0-3.023-.912-6.033-2.711-8.602l-112.465-160.667c-2.807-4.01-7.394-6.398-12.289-6.398z" fill="#352e2f"/><path d="m428.955 359.865-112.466-160.667c-2.807-4.01-7.394-6.398-12.289-6.398h-48.2v175.667h175.666c-.001-3.024-.913-6.034-2.711-8.602z" fill="#0a0400"/><path d="m384.533 512h-257.066c-8.284 0-15-6.716-15-15s6.716-15 15-15h257.066c8.284 0 15 6.716 15 15s-6.716 15-15 15z" fill="#dedcde"/><path d="m256 238.867c-8.284 0-15-6.716-15-15v-16.067c0-8.284 6.716-15 15-15s15 6.716 15 15v16.067c0 8.284-6.716 15-15 15z" fill="#f5f5f5"/><path d="m256 303.133c-8.284 0-15-6.716-15-15v-16.066c0-8.284 6.716-15 15-15s15 6.716 15 15v16.066c0 8.284-6.716 15-15 15z" fill="#f5f5f5"/><path d="m400.6 262.967c-8.284 0-15-6.716-15-15v-40.167c0-8.284 6.716-15 15-15s15 6.716 15 15v40.167c0 8.284-6.716 15-15 15z" fill="#ff6d5a"/><path d="m256 329.367c-8.284 0-15 6.716-15 15v24.1h30v-24.1c0-8.284-6.716-15-15-15z" fill="#f5f5f5"/><path d="m143.533 158.533c25.989 0 47.133-21.144 47.133-47.133s-21.144-47.133-47.133-47.133h-128.533v94.267h128.533z" fill="#f5f5f5"/><path d="m399.533 497c0-8.284-6.716-15-15-15h-128.533v30h128.533c8.284 0 15-6.716 15-15z" fill="#c7c2c8"/><g fill="#dedcde"><path d="m271 223.867v-16.067c0-8.284-6.716-15-15-15v46.067c8.284 0 15-6.716 15-15z"/><path d="m271 288.133v-16.066c0-8.284-6.716-15-15-15v46.066c8.284 0 15-6.716 15-15z"/><path d="m271 344.367c0-8.284-6.716-15-15-15v39.1h15z"/></g><path d="m464.866 0h-417.732c-26.034 0-47.134 21.058-47.134 47.133v289.2c0 26.352 21.404 47.133 47.134 47.133h417.732c25.822 0 47.134-20.868 47.134-47.133v-289.2c0-26.03-21.058-47.133-47.134-47.133zm17.134 336.333c0 9.356-7.565 17.133-17.134 17.133h-417.732c-9.359.001-17.134-7.566-17.134-17.133v-289.2c0-9.448 7.639-17.133 17.134-17.133h417.732c9.486 0 17.134 7.676 17.134 17.133z" fill="#61585d"/><path d="m512 336.333v-289.2c0-26.03-21.058-47.133-47.134-47.133h-208.866v30h208.866c9.486 0 17.134 7.676 17.134 17.133v289.2c0 9.356-7.565 17.133-17.134 17.133h-208.866v30h208.866c25.822.001 47.134-20.868 47.134-47.133z" fill="#352e2f"/><path d="m400.6 222.8c-25.989 0-47.133-21.144-47.133-47.133v-64.267c0-25.989 21.144-47.133 47.133-47.133s47.133 21.144 47.133 47.133v64.267c0 25.989-21.144 47.133-47.133 47.133z" fill="#23575c"/></g></svg>