<svg id="Layer_1" enable-background="new 0 0 512 512" height="512" viewBox="0 0 512 512" width="512" xmlns="http://www.w3.org/2000/svg"><g><path d="m497 239.933h-482c-8.284 0-15-6.716-15-15v-49.267c0-8.284 6.716-15 15-15h482c8.284 0 15 6.716 15 15v49.267c0 8.284-6.716 15-15 15z" fill="#c7c2c8"/><path d="m512 224.933v-49.267c0-8.284-6.716-15-15-15h-241v79.267h241c8.284 0 15-6.716 15-15z" fill="#b0a9b1"/><path d="m512 224.933h-512v272.067c0 8.284 6.716 15 15 15h160.667c8.284 0 15-6.716 15-15v-81.4h130.666v81.4c0 8.284 6.716 15 15 15h160.667c8.284 0 15-6.716 15-15z" fill="#f5f5f5"/><path d="m321.333 497c0 8.284 6.716 15 15 15h160.667c8.284 0 15-6.716 15-15v-272.067h-256v190.667h65.333z" fill="#dedcde"/><path d="m95.333 447.733c-8.284 0-15-6.716-15-15v-32.133c0-8.284 6.716-15 15-15s15 6.716 15 15v32.133c0 8.285-6.716 15-15 15z" fill="#5abeff"/><path d="m416.667 447.733c-8.284 0-15-6.716-15-15v-32.133c0-8.284 6.716-15 15-15s15 6.716 15 15v32.133c0 8.285-6.716 15-15 15z" fill="#0096f0"/><path d="m95.333 351.333c-8.284 0-15-6.716-15-15v-32.133c0-8.284 6.716-15 15-15s15 6.716 15 15v32.133c0 8.285-6.716 15-15 15z" fill="#5abeff"/><path d="m256 351.333c-8.284 0-15-6.716-15-15v-32.133c0-8.284 6.716-15 15-15s15 6.716 15 15v32.133c0 8.285-6.716 15-15 15z" fill="#5abeff"/><path d="m416.667 351.333c-8.284 0-15-6.716-15-15v-32.133c0-8.284 6.716-15 15-15s15 6.716 15 15v32.133c0 8.285-6.716 15-15 15z" fill="#0096f0"/><path d="m175.667 351.333c-8.284 0-15-6.716-15-15v-32.133c0-8.284 6.716-15 15-15s15 6.716 15 15v32.133c0 8.285-6.716 15-15 15z" fill="#5abeff"/><path d="m336.333 351.333c-8.284 0-15-6.716-15-15v-32.133c0-8.284 6.716-15 15-15s15 6.716 15 15v32.133c0 8.285-6.716 15-15 15z" fill="#0096f0"/><path d="m271 336.333v-32.133c0-8.284-6.716-15-15-15v62.133c8.284 0 15-6.715 15-15z" fill="#0096f0"/><path d="m336.333 385.6h-160.666c-8.284 0-15 6.716-15 15v96.4c0 8.284 6.716 15 15 15h160.666c8.284 0 15-6.716 15-15v-96.4c0-8.284-6.716-15-15-15z" fill="#c3e1ff"/><path d="m351.333 497v-96.4c0-8.284-6.716-15-15-15h-80.333v126.4h80.333c8.284 0 15-6.716 15-15z" fill="#5abeff"/><path d="m336.333 80.333h-160.666c-8.284 0-15 6.716-15 15s6.716 15 15 15h65.333v65.333c0 8.284 6.716 15 15 15s15-6.716 15-15v-65.333h65.333c8.284 0 15-6.716 15-15s-6.716-15-15-15z" fill="#61585d"/><path d="m271 175.667v-65.333h65.333c8.284 0 15-6.716 15-15s-6.716-15-15-15h-80.333v110.333c8.284 0 15-6.716 15-15z" fill="#352e2f"/><path d="m256 0c-52.566 0-95.333 42.767-95.333 95.333s42.767 95.333 95.333 95.333 95.333-42.766 95.333-95.333-42.767-95.333-95.333-95.333zm0 160.667c-36.024 0-65.333-29.308-65.333-65.333s29.309-65.334 65.333-65.334 65.333 29.309 65.333 65.333-29.309 65.334-65.333 65.334z" fill="#352e2f"/><path d="m351.333 95.333c0-52.566-42.767-95.333-95.333-95.333v30c36.024 0 65.333 29.309 65.333 65.333s-29.309 65.334-65.333 65.334v30c52.566 0 95.333-42.767 95.333-95.334z" fill="#0a0400"/></g></svg>