<svg id="Layer_1" enable-background="new 0 0 512 512" height="512" viewBox="0 0 512 512" width="512" xmlns="http://www.w3.org/2000/svg"><g><path d="m497 319.2h-417.733c-8.284 0-15-6.716-15-15v-289.2c0-8.284 6.716-15 15-15h417.733c8.284 0 15 6.716 15 15v289.2c0 8.284-6.716 15-15 15z" fill="#f5f5f5"/><path d="m512 304.2v-289.2c0-8.284-6.716-15-15-15h-213.311v319.2h213.311c8.284 0 15-6.716 15-15z" fill="#dedcde"/><path d="m288.083 395.14c-5.858-5.857-5.858-15.355 0-21.213l134.044-134.047c5.857-5.858 15.355-5.858 21.213 0 5.858 5.857 5.858 15.355 0 21.213l-134.045 134.047c-5.858 5.859-15.356 5.857-21.212 0z" fill="#ff9355"/><path d="m175.849 464.684-10.786-10.788c-2.815-2.813-4.396-6.63-4.396-10.609v-90.887c0-6.067 3.655-11.537 9.26-13.858 5.604-2.322 12.056-1.039 16.347 3.252l45.626 45.626 12.112-12.113c18.386-18.376 48.287-18.374 66.659 0 18.376 18.377 18.376 48.279 0 66.656l-22.716 22.721c-30.954 30.952-81.098 31.01-112.106 0z" fill="#3264a0"/><g fill="#0a0400"><path d="m432.733 158.533h-128.533c-8.284 0-15-6.716-15-15s6.716-15 15-15h128.533c8.284 0 15 6.716 15 15s-6.715 15-15 15z"/><path d="m432.733 94.267h-128.533c-8.284 0-15-6.716-15-15s6.716-15 15-15h128.533c8.284 0 15 6.716 15 15s-6.715 15-15 15z"/><path d="m384.533 222.8h-80.333c-8.284 0-15-6.716-15-15s6.716-15 15-15h80.333c8.284 0 15 6.716 15 15s-6.716 15-15 15z"/></g><path d="m252.795 151.883-48.2-80.333c-2.711-4.518-7.593-7.283-12.862-7.283s-10.151 2.765-12.862 7.283l-48.2 80.333c-2.78 4.634-2.854 10.405-.191 15.108s7.649 7.609 13.053 7.609h96.4c5.404 0 10.391-2.907 13.053-7.609s2.59-10.474-.191-15.108zm-82.769-7.283 21.708-36.179 21.706 36.179z" fill="#ff0032"/><path d="m79.267 512h-64.267c-8.284 0-15-6.716-15-15v-80.35c0-44.448 36.19-79.25 79.25-79.25 8.284 0 15.016 6.716 15.016 15v144.6c.001 8.284-6.715 15-14.999 15z" fill="#0096f0"/><path d="m175.667 512h-96.4c-8.284 0-15-6.716-15-15v-144.6c0-8.284 6.716-15 15-15h96.4c8.284 0 15 6.716 15 15v144.6c0 8.284-6.716 15-15 15z" fill="#5abeff"/><path d="m175.667 337.4h-48.2v174.6h48.2c8.284 0 15-6.716 15-15v-144.6c0-8.284-6.716-15-15-15z" fill="#0096f0"/><ellipse cx="127.467" cy="304.2" fill="#ffebd7" rx="63.2" ry="63.2" transform="matrix(.707 -.707 .707 .707 -177.768 179.231)"/><path d="m127.467 367.4v-126.4c34.849 0 63.2 28.352 63.2 63.2s-28.352 63.2-63.2 63.2z" fill="#ffcbc8"/></g></svg>