<svg id="Layer_1" enable-background="new 0 0 512 512" height="512" viewBox="0 0 512 512" width="512" xmlns="http://www.w3.org/2000/svg"><g><path d="m464.866 512h-417.732c-25.744 0-47.134-20.796-47.134-47.133v-417.734c0-25.808 20.855-47.133 47.134-47.133h417.732c25.742 0 47.134 20.793 47.134 47.133v417.733c0 25.744-20.796 47.134-47.134 47.134z" fill="#0096f0"/><path d="m512 464.867v-417.734c0-26.34-21.392-47.133-47.134-47.133h-208.866v512h208.866c26.338 0 47.134-21.39 47.134-47.133z" fill="#3264a0"/><path d="m272.066 64.267h-128.533c-8.284 0-15 6.716-15 15v353.467c0 8.284 6.716 15 15 15h64.267c8.284 0 15-6.716 15-15v-81.4h49.267c79.145 0 143.533-64.389 143.533-143.534s-64.389-143.533-143.534-143.533zm0 192.8h-49.266v-98.534h49.267c27.166 0 49.267 22.101 49.267 49.267-.001 27.166-22.102 49.267-49.268 49.267z" fill="#f5f5f5"/><path d="m415.6 207.8c0-79.145-64.389-143.533-143.533-143.533h-16.067v94.267h16.066c27.166 0 49.267 22.101 49.267 49.267s-22.101 49.267-49.267 49.267h-16.066v94.267h16.066c79.145-.002 143.534-64.39 143.534-143.535z" fill="#dedcde"/></g></svg>