<svg id="Layer_1" enable-background="new 0 0 512 512" height="512" viewBox="0 0 512 512" width="512" xmlns="http://www.w3.org/2000/svg"><g><circle cx="256" cy="256" fill="#352e2f" r="256"/><path d="m256 512v-512c141.159 0 256 114.841 256 256s-114.841 256-256 256z" fill="#0a0400"/><circle cx="256" cy="256" fill="#c7c2c8" r="144.6"/><path d="m256 400.6v-289.2c79.733 0 144.6 64.867 144.6 144.6s-64.867 144.6-144.6 144.6z" fill="#b0a9b1"/><path d="m256 465.933c-8.284 0-15 6.716-15 15v16.067c0 8.284 6.716 15 15 15s15-6.716 15-15v-16.067c0-8.284-6.716-15-15-15z" fill="#61585d"/><path d="m271 497v-16.067c0-8.284-6.716-15-15-15v46.067c8.284 0 15-6.716 15-15z" fill="#352e2f"/><g fill="#dedcde"><path d="m205.515 255.369-91.673-29.787c-7.878-2.56-12.19-11.022-9.63-18.901s11.019-12.191 18.901-9.63l91.673 29.787c7.878 2.56 12.19 11.022 9.63 18.901-2.41 7.415-10.583 12.331-18.901 9.63z"/><path d="m256 222.8c-8.284 0-15-6.716-15-15v-96.4c0-8.284 6.716-15 15-15s15 6.716 15 15v96.4c0 8.284-6.716 15-15 15z"/><path d="m162.219 385.121c-6.703-4.868-8.19-14.248-3.323-20.951l56.639-77.993c4.867-6.703 14.244-8.192 20.952-3.323 6.703 4.868 8.19 14.248 3.323 20.951l-56.639 77.993c-5.031 6.927-14.462 8.035-20.952 3.323z"/></g><path d="m328.857 381.801-56.665-77.993c-4.869-6.702-3.383-16.083 3.319-20.952 6.702-4.868 16.082-3.382 20.952 3.318l56.665 77.993c4.869 6.702 3.383 16.083-3.319 20.952-6.539 4.752-15.966 3.542-20.952-3.318z" fill="#c7c2c8"/><path d="m287.584 245.738c-2.561-7.879 1.752-16.341 9.63-18.901l91.673-29.787c7.879-2.563 16.342 1.751 18.901 9.63 2.561 7.879-1.752 16.341-9.63 18.901l-91.673 29.787c-8.131 2.643-16.424-2.005-18.901-9.63z" fill="#c7c2c8"/><path d="m322.259 8.723c-8.002-2.144-16.227 2.604-18.371 10.606l-4.158 15.519c-2.144 8.002 2.604 16.227 10.606 18.371s16.227-2.605 18.371-10.607l4.158-15.519c2.145-8-2.604-16.226-10.606-18.37z" fill="#352e2f"/><path d="m201.664 458.78c-8.002-2.144-16.227 2.605-18.371 10.607l-4.159 15.519c-2.144 8.002 2.605 16.227 10.607 18.371s16.227-2.605 18.371-10.607l4.158-15.519c2.145-8.002-2.604-16.227-10.606-18.371z" fill="#61585d"/><path d="m384 34.298c-7.174-4.142-16.348-1.684-20.49 5.49l-8.033 13.914c-4.142 7.174-1.684 16.348 5.49 20.49s16.348 1.684 20.49-5.49l8.033-13.914c4.143-7.174 1.685-16.348-5.49-20.49z" fill="#352e2f"/><path d="m151.033 437.807c-7.174-4.142-16.348-1.684-20.49 5.49l-8.033 13.914c-4.142 7.174-1.684 16.348 5.49 20.49s16.348 1.684 20.49-5.49l8.033-13.914c4.143-7.174 1.685-16.348-5.49-20.49z" fill="#61585d"/><path d="m425.658 107.555 11.361-11.361c5.858-5.858 5.858-15.355 0-21.213s-15.355-5.858-21.213 0l-11.361 11.361c-5.858 5.858-5.858 15.355 0 21.213s15.356 5.858 21.213 0z" fill="#352e2f"/><path d="m86.342 404.445-11.362 11.361c-5.858 5.858-5.858 15.355 0 21.213s15.355 5.858 21.213 0l11.361-11.361c5.858-5.858 5.858-15.355 0-21.213-5.857-5.858-15.355-5.858-21.212 0z" fill="#61585d"/><path d="m437.808 151.034c4.142 7.174 13.316 9.633 20.49 5.49l13.914-8.033c7.174-4.142 9.633-13.316 5.49-20.49-4.142-7.174-13.316-9.633-20.49-5.49l-13.914 8.033c-7.174 4.142-9.632 13.316-5.49 20.49z" fill="#352e2f"/><path d="m74.192 360.966c-4.142-7.174-13.316-9.633-20.49-5.49l-13.914 8.033c-7.174 4.142-9.633 13.316-5.49 20.49 4.142 7.174 13.316 9.633 20.49 5.49l13.914-8.033c7.174-4.142 9.632-13.316 5.49-20.49z" fill="#61585d"/><path d="m458.78 201.666c2.144 8.002 10.369 12.751 18.371 10.607l15.519-4.158c8.002-2.144 12.751-10.369 10.607-18.371s-10.369-12.751-18.371-10.607l-15.52 4.158c-8.001 2.144-12.75 10.369-10.606 18.371z" fill="#352e2f"/><path d="m53.22 310.334c-2.144-8.002-10.369-12.751-18.371-10.607l-15.519 4.158c-8.002 2.144-12.751 10.369-10.607 18.371s10.369 12.751 18.371 10.607l15.52-4.158c8.001-2.144 12.75-10.369 10.606-18.371z" fill="#61585d"/><path d="m497 241h-16.067c-8.284 0-15 6.716-15 15s6.716 15 15 15h16.067c8.284 0 15-6.716 15-15s-6.716-15-15-15z" fill="#352e2f"/><path d="m31.067 271c8.284 0 15-6.716 15-15s-6.716-15-15-15h-16.067c-8.284 0-15 6.716-15 15s6.716 15 15 15z" fill="#61585d"/><path d="m492.67 303.886-15.519-4.158c-8.002-2.144-16.227 2.605-18.371 10.607s2.605 16.227 10.607 18.371l15.52 4.158c8.002 2.144 16.227-2.605 18.371-10.607s-2.606-16.227-10.608-18.371z" fill="#352e2f"/><path d="m19.33 208.114 15.519 4.158c8.002 2.144 16.227-2.605 18.371-10.607s-2.605-16.227-10.607-18.371l-15.52-4.158c-8.002-2.144-16.227 2.605-18.371 10.607s2.606 16.227 10.608 18.371z" fill="#61585d"/><path d="m472.212 363.509-13.914-8.033c-7.174-4.142-16.348-1.684-20.49 5.49s-1.684 16.348 5.49 20.49l13.914 8.033c7.174 4.142 16.348 1.684 20.49-5.49 4.143-7.174 1.685-16.348-5.49-20.49z" fill="#352e2f"/><path d="m39.788 148.491 13.914 8.033c7.174 4.142 16.348 1.684 20.49-5.49s1.684-16.348-5.49-20.49l-13.914-8.033c-7.174-4.142-16.348-1.684-20.49 5.49-4.143 7.174-1.685 16.348 5.49 20.49z" fill="#61585d"/><path d="m425.658 404.445c-5.858-5.858-15.355-5.858-21.213 0s-5.858 15.355 0 21.213l11.361 11.361c5.858 5.858 15.355 5.858 21.213 0s5.858-15.355 0-21.213z" fill="#352e2f"/><path d="m96.194 74.981c-5.858-5.858-15.355-5.858-21.213 0s-5.858 15.355 0 21.213l11.361 11.361c5.858 5.858 15.355 5.858 21.213 0s5.858-15.355 0-21.213z" fill="#61585d"/><path d="m381.457 443.298c-4.142-7.174-13.316-9.632-20.49-5.49s-9.632 13.316-5.49 20.49l8.033 13.914c4.142 7.174 13.316 9.632 20.49 5.49s9.633-13.316 5.49-20.49z" fill="#352e2f"/><path d="m148.491 39.788c-4.142-7.174-13.316-9.632-20.49-5.49s-9.632 13.316-5.49 20.49l8.033 13.914c4.142 7.174 13.316 9.632 20.49 5.49s9.632-13.316 5.49-20.49z" fill="#61585d"/><path d="m328.707 469.386c-2.144-8.002-10.369-12.751-18.371-10.607s-12.75 10.369-10.606 18.371l4.158 15.519c2.144 8.002 10.369 12.751 18.371 10.607s12.75-10.369 10.606-18.371z" fill="#352e2f"/><path d="m208.113 19.33c-2.144-8.002-10.369-12.751-18.371-10.607s-12.751 10.369-10.606 18.371l4.158 15.519c2.144 8.002 10.369 12.751 18.371 10.607s12.751-10.369 10.607-18.371z" fill="#61585d"/><path d="m256 0c-8.284 0-15 6.716-15 15v16.067c0 8.284 6.716 15 15 15s15-6.716 15-15v-16.067c0-8.284-6.716-15-15-15z" fill="#61585d"/><path d="m271 31.067v-16.067c0-8.284-6.716-15-15-15v46.067c8.284 0 15-6.716 15-15z" fill="#352e2f"/><path d="m256 222.8v-126.4c8.284 0 15 6.716 15 15v96.4c0 8.284-6.716 15-15 15z" fill="#c7c2c8"/><path d="m256 96.4c-88.004 0-159.6 71.596-159.6 159.6s71.596 159.6 159.6 159.6 159.6-71.596 159.6-159.6-71.596-159.6-159.6-159.6zm0 289.2c-71.462 0-129.6-58.138-129.6-129.6s58.138-129.6 129.6-129.6 129.6 58.138 129.6 129.6-58.138 129.6-129.6 129.6z" fill="#f5f5f5"/><path d="m385.6 256c0 71.462-58.138 129.6-129.6 129.6v30c88.004 0 159.6-71.596 159.6-159.6s-71.596-159.6-159.6-159.6v30c71.462 0 129.6 58.138 129.6 129.6z" fill="#dedcde"/><circle cx="256" cy="256" fill="#f5f5f5" r="63.2"/><path d="m256 319.2v-126.4c34.849 0 63.2 28.352 63.2 63.2s-28.351 63.2-63.2 63.2z" fill="#dedcde"/></g></svg>