<svg id="Layer_1" enable-background="new 0 0 512 512" height="512" viewBox="0 0 512 512" width="512" xmlns="http://www.w3.org/2000/svg"><g><path d="m331.393 190.667h-150.786c-4.667 0-9.067-2.172-11.906-5.876s-3.792-8.518-2.578-13.024l43.259-160.667c1.764-6.549 7.702-11.1 14.485-11.1h64.267c6.782 0 12.721 4.551 14.484 11.1l43.259 160.667c1.213 4.506.26 9.32-2.578 13.024-2.839 3.704-7.239 5.876-11.906 5.876z" fill="#ffc85a"/><path d="m343.299 184.791c2.838-3.704 3.791-8.518 2.578-13.024l-43.259-160.667c-1.764-6.549-7.702-11.1-14.484-11.1h-32.134v190.667h75.393c4.667 0 9.067-2.172 11.906-5.876z" fill="#ff9355"/><path d="m365.992 319.2h-219.985c-4.667 0-9.067-2.172-11.906-5.875-2.838-3.704-3.792-8.518-2.579-13.023l34.6-128.534h179.754l34.6 128.534c1.213 4.506.26 9.32-2.579 13.023-2.837 3.703-7.239 5.875-11.905 5.875z" fill="#f5f5f5"/><path d="m377.897 313.325c2.839-3.704 3.792-8.518 2.579-13.023l-34.6-128.534h-89.876v147.432h109.992c4.666 0 9.068-2.172 11.905-5.875z" fill="#dedcde"/><path d="m400.6 447.733h-289.2c-4.667 0-9.067-2.172-11.906-5.876-2.838-3.704-3.792-8.518-2.579-13.024l34.608-128.533h248.954l34.607 128.533c1.213 4.506.26 9.32-2.578 13.024-2.839 3.705-7.239 5.876-11.906 5.876z" fill="#ffc85a"/><path d="m412.506 441.857c2.838-3.704 3.791-8.518 2.578-13.024l-34.607-128.533h-124.477v147.433h144.6c4.667 0 9.067-2.171 11.906-5.876z" fill="#ff9355"/><path d="m497 512h-482c-8.284 0-15-6.716-15-15 0-43.708 35.559-79.267 79.267-79.267h353.467c43.707 0 79.266 35.559 79.266 79.267 0 8.284-6.716 15-15 15z" fill="#ff9355"/><path d="m512 497c0-43.708-35.559-79.267-79.267-79.267h-176.733v94.267h241c8.284 0 15-6.716 15-15z" fill="#ff6d5a"/></g></svg>