<svg id="Layer_1" enable-background="new 0 0 512 512" height="512" viewBox="0 0 512 512" width="512" xmlns="http://www.w3.org/2000/svg"><g><path d="m427.191 175.721-90.937-90.881c-5.863-5.86-5.857-15.368.002-21.221l59.285-59.23c5.859-5.854 15.354-5.852 21.21.007l90.857 90.889c5.855 5.858 5.855 15.353 0 21.21l-59.206 59.222c-5.857 5.858-15.353 5.858-21.211.004z" fill="#352e2f"/><path d="m448.402 175.716 59.206-59.222c5.856-5.857 5.856-15.352 0-21.21l-45.438-45.454-80.449 80.449 45.47 45.442c5.858 5.854 15.354 5.854 21.211-.005z" fill="#0a0400"/><path d="m256.714 300.686-45.388-45.445c-5.85-5.857-5.849-15.347.003-21.203l29.671-29.692v-39.235c0-6.067 3.655-11.537 9.261-13.859 5.606-2.32 12.059-1.037 16.348 3.254l90.857 90.889c4.289 4.291 5.571 10.742 3.25 16.347-2.322 5.604-7.792 9.258-13.858 9.258h-39.183l-29.75 29.701c-5.861 5.851-15.357 5.846-21.211-.015z" fill="#f5f5f5"/><path d="m277.925 300.701 29.75-29.701h39.183c6.066 0 11.536-3.654 13.858-9.258s1.04-12.056-3.25-16.347l-45.422-45.438-78.015 78.015 22.686 22.714c5.853 5.861 15.349 5.866 21.21.015z" fill="#dedcde"/><path d="m347.658 277.966-113.596-113.612c-18.475-18.477-18.444-48.206.004-66.654l45.394-45.45c18.356-18.355 48.295-18.375 66.676.006l113.596 113.611c18.547 18.571 18.245 48.404-.004 66.653-.002.002-45.475 45.451-45.475 45.451-18.655 18.657-48.44 18.15-66.595-.005z" fill="#8c828c"/><path d="m402.929 109.056-112.087 112.087 56.815 56.823c18.156 18.156 47.94 18.662 66.596.006 0 0 45.473-45.449 45.475-45.451 18.249-18.249 18.551-48.082.004-66.653z" fill="#61585d"/><path d="m84.892 336.285 90.857 90.889c5.855 5.858 5.855 15.353 0 21.21l-59.206 59.222c-5.856 5.858-15.353 5.86-21.211.005l-90.937-90.882c-5.863-5.859-5.857-15.368.002-21.222l59.285-59.229c5.859-5.854 15.355-5.851 21.21.007z" fill="#352e2f"/><path d="m116.543 507.605 59.206-59.222c5.856-5.857 5.856-15.352 0-21.21l-45.454-45.469-80.449 80.449 45.485 45.457c5.86 5.855 15.356 5.853 21.212-.005z" fill="#0a0400"/><path d="m165.863 459.744-113.597-113.621c-18.337-18.337-18.459-48.181.006-66.644l56.803-56.811c5.858-5.852 15.35-5.85 21.206.006l159.059 159.045c5.861 5.859 5.853 15.366-.004 21.219-.002.001-56.779 56.795-56.779 56.795-18.364 18.362-48.301 18.403-66.694.011z" fill="#8c828c"/><path d="m232.557 459.733s56.777-56.794 56.779-56.795c5.858-5.852 5.866-15.36.004-21.219l-79.533-79.526-100.741 100.741 56.798 56.809c18.392 18.393 48.329 18.352 66.693-.01z" fill="#61585d"/><path d="m370.396 209.806-68.204-68.163c-5.859-5.856-5.862-15.354-.006-21.213s15.354-5.862 21.213-.006l68.204 68.163c5.859 5.856 5.862 15.354.006 21.213-5.858 5.86-15.354 5.861-21.213.006z" fill="#352e2f"/><path d="m391.609 209.8c5.856-5.86 5.853-15.357-.006-21.213l-34.105-34.084-21.213 21.213 34.111 34.091c5.859 5.854 15.355 5.853 21.213-.007z" fill="#0a0400"/></g></svg>