<svg id="Layer_1" enable-background="new 0 0 512 512" height="512" viewBox="0 0 512 512" width="512" xmlns="http://www.w3.org/2000/svg"><g><circle cx="256" cy="256" fill="#0096f0" r="256"/><path d="m256 512v-512c141.159 0 256 114.841 256 256s-114.841 256-256 256z" fill="#3264a0"/><path d="m288.133 415.6h-64.267c-8.284 0-15-6.716-15-15v-177.8h-49.266c-6.067 0-11.537-3.655-13.858-9.26s-1.038-12.057 3.252-16.347l96.4-96.4c5.857-5.858 15.355-5.858 21.213 0l96.4 96.4c4.29 4.29 5.573 10.742 3.252 16.347-2.322 5.605-7.792 9.26-13.858 9.26h-49.267v177.8c-.001 8.284-6.717 15-15.001 15z" fill="#f5f5f5"/><path d="m288.133 415.6c8.284 0 15-6.716 15-15v-177.8h49.267c6.067 0 11.537-3.655 13.858-9.26s1.038-12.057-3.252-16.347l-96.4-96.4c-2.928-2.929-6.767-4.393-10.606-4.393v319.2z" fill="#dedcde"/></g></svg>