<svg id="Layer_1" enable-background="new 0 0 512 512" height="512" viewBox="0 0 512 512" width="512" xmlns="http://www.w3.org/2000/svg"><g><path d="m416.667 512h-321.334c-8.284 0-15-6.716-15-15v-449.866c0-8.284 6.716-15 15-15h321.334c8.284 0 15 6.716 15 15v449.866c0 8.284-6.716 15-15 15z" fill="#f5f5f5"/><path d="m431.667 497v-449.866c0-8.284-6.716-15-15-15h-160.667v479.866h160.667c8.284 0 15-6.716 15-15z" fill="#dedcde"/><path d="m175.667 206.733c-3.839 0-7.678-1.464-10.606-4.393l-16.067-16.067c-5.857-5.857-5.858-15.354-.001-21.213 5.859-5.857 15.356-5.859 21.214 0l5.461 5.46 21.526-21.527c5.857-5.857 15.355-5.859 21.213 0 5.858 5.857 5.858 15.354 0 21.213l-32.133 32.134c-2.929 2.929-6.768 4.393-10.607 4.393z" fill="#48b658"/><path d="m175.667 303.134c-3.979 0-7.794-1.58-10.606-4.394l-16.067-16.067c-5.858-5.857-5.858-15.355 0-21.213 5.857-5.857 15.355-5.857 21.213 0l5.461 5.461 21.526-21.527c5.857-5.857 15.355-5.859 21.213 0 5.858 5.857 5.858 15.354 0 21.213l-32.133 32.134c-2.813 2.813-6.628 4.393-10.607 4.393z" fill="#48b658"/><path d="m196.88 368.467 5.46-5.46c5.858-5.857 5.858-15.354 0-21.213-5.857-5.859-15.355-5.857-21.213 0l-5.46 5.46-5.46-5.46c-5.857-5.859-15.355-5.857-21.213 0-5.858 5.858-5.858 15.355 0 21.213l5.46 5.46-5.46 5.46c-5.858 5.857-5.858 15.354 0 21.213 5.857 5.857 15.355 5.859 21.213 0l5.46-5.46 5.46 5.46c5.857 5.857 15.355 5.859 21.213 0 5.858-5.858 5.858-15.355 0-21.213z" fill="#ff0032"/><path d="m320.267 94.267h-128.534c-8.284 0-15-6.716-15-15v-64.267c0-8.284 6.716-15 15-15h128.533c8.284 0 15 6.716 15 15v64.267c.001 8.284-6.715 15-14.999 15z" fill="#5abeff"/><g fill="#0a0400"><path d="m352.4 190.667h-80.334c-8.284 0-15-6.716-15-15s6.716-15 15-15h80.334c8.284 0 15 6.716 15 15s-6.715 15-15 15z"/><path d="m352.4 287.066h-80.334c-8.284 0-15-6.716-15-15s6.716-15 15-15h80.334c8.284 0 15 6.716 15 15s-6.715 15-15 15z"/><path d="m352.4 383.467h-80.334c-8.284 0-15-6.716-15-15s6.716-15 15-15h80.334c8.284 0 15 6.716 15 15s-6.715 15-15 15z"/></g><path d="m335.267 79.267v-64.267c0-8.284-6.716-15-15-15h-64.267v94.267h64.267c8.284 0 15-6.716 15-15z" fill="#0096f0"/></g></svg>