<svg id="Layer_1" enable-background="new 0 0 512 512" height="512" viewBox="0 0 512 512" width="512" xmlns="http://www.w3.org/2000/svg"><g><path d="m336.333 0c-8.284 0-15 6.716-15 15v97.467h-306.333c-8.284 0-15 6.716-15 15v257.066c0 8.284 6.716 15 15 15h306.333v97.467c0 8.284 6.716 15 15 15h160.667c8.284 0 15-6.716 15-15v-482c0-8.284-6.716-15-15-15z" fill="#352e2f"/><path d="m321.333 497c0 8.284 6.716 15 15 15h160.667c8.284 0 15-6.716 15-15v-482c0-8.284-6.716-15-15-15h-160.667c-8.284 0-15 6.716-15 15v97.467h-49.267v287.066h49.267z" fill="#0a0400"/><path d="m336.333 271h-128.533c-8.284 0-15-6.716-15-15s6.716-15 15-15h128.533c8.284 0 15 6.716 15 15s-6.716 15-15 15z" fill="#f5f5f5"/><path d="m336.333 206.733h-128.533c-8.284 0-15-6.716-15-15s6.716-15 15-15h128.533c8.284 0 15 6.716 15 15s-6.716 15-15 15z" fill="#f5f5f5"/><path d="m336.333 335.267h-128.533c-8.284 0-15-6.716-15-15s6.716-15 15-15h128.533c8.284 0 15 6.716 15 15s-6.716 15-15 15z" fill="#f5f5f5"/><path d="m47.133 271h-32.133c-8.284 0-15-6.716-15-15s6.716-15 15-15h32.133c8.284 0 15 6.716 15 15s-6.716 15-15 15z" fill="#f5f5f5"/><path d="m464.866 287.066c-8.284 0-15-6.716-15-15v-32.133c0-8.284 6.716-15 15-15s15 6.716 15 15v32.133c0 8.285-6.716 15-15 15z" fill="#dedcde"/><path d="m464.866 383.467c-8.284 0-15-6.716-15-15v-32.134c0-8.284 6.716-15 15-15s15 6.716 15 15v32.134c0 8.284-6.716 15-15 15z" fill="#dedcde"/><path d="m464.866 479.866c-8.284 0-15-6.716-15-15v-32.133c0-8.284 6.716-15 15-15s15 6.716 15 15v32.133c0 8.284-6.716 15-15 15z" fill="#dedcde"/><path d="m143.533 271h-32.133c-8.284 0-15-6.716-15-15s6.716-15 15-15h32.133c8.284 0 15 6.716 15 15s-6.716 15-15 15z" fill="#f5f5f5"/><g fill="#dedcde"><path d="m464.866 190.667c-8.284 0-15-6.716-15-15v-32.134c0-8.284 6.716-15 15-15s15 6.716 15 15v32.134c0 8.284-6.716 15-15 15z"/><path d="m464.866 94.267c-8.284 0-15-6.716-15-15v-32.133c0-8.284 6.716-15 15-15s15 6.716 15 15v32.133c0 8.284-6.716 15-15 15z"/><path d="m351.333 256c0-8.284-6.716-15-15-15h-64.267v30h64.267c8.284 0 15-6.716 15-15z"/><path d="m351.333 191.733c0-8.284-6.716-15-15-15h-64.267v30h64.267c8.284 0 15-6.715 15-15z"/><path d="m351.333 320.267c0-8.284-6.716-15-15-15h-64.267v30h64.267c8.284 0 15-6.716 15-15z"/></g></g></svg>