<svg id="Layer_1" enable-background="new 0 0 512 512" height="512" viewBox="0 0 512 512" width="512" xmlns="http://www.w3.org/2000/svg"><g><path d="m288.133 119.925h-64.267c-8.284 0-15 6.716-15 15v177.885c0 8.284 6.716 15 15 15h64.267c8.284 0 15-6.716 15-15v-177.885c0-8.284-6.716-15-15-15z" fill="#f5f5f5"/><path d="m303.133 312.81v-177.885c0-8.284-6.716-15-15-15h-32.149v207.885h32.149c8.284 0 15-6.716 15-15z" fill="#dedcde"/><path d="m320.267 383.467h-128.534c-8.284 0-15-6.716-15-15 0-43.715 35.552-79.267 79.25-79.267 43.724 0 79.283 35.559 79.283 79.267.001 8.284-6.715 15-14.999 15z" fill="#8c828c"/><path d="m335.267 368.467c0-43.708-35.559-79.267-79.283-79.267v94.267h64.283c8.284 0 15-6.716 15-15z" fill="#61585d"/><path d="m384.533 447.733h-257.066c-8.284 0-15-6.716-15-15 0-43.708 35.559-79.267 79.267-79.267h128.533c43.708 0 79.267 35.559 79.267 79.267-.001 8.285-6.717 15-15.001 15z" fill="#61585d"/><path d="m399.533 432.733c0-43.708-35.559-79.267-79.267-79.267h-64.283v94.267h128.549c8.285 0 15.001-6.715 15.001-15z" fill="#352e2f"/><path d="m448.8 512h-385.6c-8.284 0-15-6.716-15-15 0-21.183 8.245-41.085 23.216-56.055 14.741-14.75 35.166-23.212 56.035-23.212h257.083c21.176 0 41.082 8.245 56.052 23.218 14.969 14.973 23.214 34.878 23.214 56.049 0 8.284-6.716 15-15 15z" fill="#352e2f"/><path d="m463.8 497c0-21.171-8.245-41.076-23.215-56.049s-34.876-23.218-56.052-23.218h-128.549v94.267h192.816c8.284 0 15-6.716 15-15z" fill="#0a0400"/><circle cx="256" cy="79.267" fill="#5abeff" r="79.267"/><path d="m335.267 79.267c0-43.708-35.559-79.267-79.267-79.267-.005 0-.011 0-.016 0v158.532h.016c43.708.001 79.267-35.557 79.267-79.265z" fill="#0096f0"/></g></svg>