<svg id="Layer_1" enable-background="new 0 0 512 512" height="512" viewBox="0 0 512 512" width="512" xmlns="http://www.w3.org/2000/svg"><g><path d="m464.866 439.7h-417.732c-25.744 0-47.134-20.797-47.134-47.134v-273.132c0-25.744 20.797-47.134 47.134-47.134h417.732c25.744 0 47.134 20.797 47.134 47.134v273.133c0 25.743-20.797 47.133-47.134 47.133z" fill="#fadca9"/><path d="m464.866 72.3h-208.866v367.4h208.866c26.337 0 47.134-21.39 47.134-47.134v-273.132c0-26.338-21.39-47.134-47.134-47.134z" fill="#ffc85a"/><path d="m159.6 281.167c-22.148 0-40.166-18.019-40.166-40.167s18.018-40.167 40.166-40.167 40.167 18.019 40.167 40.167-18.019 40.167-40.167 40.167z" fill="#ff9355"/><path d="m223.866 375.434h-128.533c-8.284 0-15-6.716-15-15 0-43.708 35.559-79.267 79.267-79.267s79.267 35.559 79.267 79.267c-.001 8.284-6.717 15-15.001 15z" fill="#48b658"/><path d="m416.667 246.9h-112.467c-8.284 0-15-6.716-15-15s6.716-15 15-15h112.467c8.284 0 15 6.716 15 15s-6.716 15-15 15z" fill="#0a0400"/><path d="m416.667 166.566h-321.334c-8.284 0-15-6.716-15-15s6.716-15 15-15h321.334c8.284 0 15 6.716 15 15s-6.716 15-15 15z" fill="#352e2f"/><g fill="#0a0400"><path d="m416.667 311.167h-112.467c-8.284 0-15-6.716-15-15s6.716-15 15-15h112.467c8.284 0 15 6.716 15 15s-6.716 15-15 15z"/><path d="m384.533 375.434h-80.333c-8.284 0-15-6.716-15-15s6.716-15 15-15h80.333c8.284 0 15 6.716 15 15s-6.716 15-15 15z"/><path d="m431.667 151.566c0-8.284-6.716-15-15-15h-160.667v30h160.667c8.284 0 15-6.715 15-15z"/></g></g></svg>