<svg id="Layer_1" enable-background="new 0 0 512 512" height="512" viewBox="0 0 512 512" width="512" xmlns="http://www.w3.org/2000/svg"><g><path d="m497 447.733h-482c-8.284 0-15-6.716-15-15v-417.733c0-8.284 6.716-15 15-15h482c8.284 0 15 6.716 15 15v417.733c0 8.285-6.716 15-15 15z" fill="#f5f5f5"/><path d="m512 432.733v-417.733c0-8.284-6.716-15-15-15h-241v447.733h241c8.284 0 15-6.715 15-15z" fill="#dedcde"/><path d="m400.6 337.4c-8.284 0-15 6.716-15 15 0 18.306-14.894 33.199-33.2 33.199s-33.2-14.894-33.2-33.199c0-8.284-6.716-15-15-15s-15 6.716-15 15v144.6c0 6.071 3.66 11.544 9.271 13.863 5.611 2.317 12.067 1.026 16.353-3.274.115-.115 11.567-11.605 20.747-20.715.024-.024.049-.048.073-.072 4.381-4.408 10.488-6.936 16.756-6.936s12.375 2.527 16.756 6.936c.024.024.048.048.073.072 9.18 9.109 20.632 20.6 20.747 20.715 4.286 4.301 10.742 5.592 16.353 3.274 5.611-2.319 9.271-7.792 9.271-13.863v-144.6c0-8.284-6.716-15-15-15z" fill="#ffc85a"/><g fill="#352e2f"><path d="m336.334 110.333h-160.667c-8.284 0-15-6.716-15-15s6.716-15 15-15h160.667c8.284 0 15 6.716 15 15s-6.716 15-15 15z"/><path d="m400.6 190.667h-289.2c-8.284 0-15-6.716-15-15s6.716-15 15-15h289.2c8.284 0 15 6.716 15 15s-6.716 15-15 15z"/><path d="m207.8 319.2h-96.4c-8.284 0-15-6.716-15-15s6.716-15 15-15h96.4c8.284 0 15 6.716 15 15s-6.716 15-15 15z"/><path d="m400.6 254.934h-289.2c-8.284 0-15-6.716-15-15s6.716-15 15-15h289.2c8.284 0 15 6.716 15 15s-6.716 15-15 15z"/><path d="m207.8 383.467h-96.4c-8.284 0-15-6.716-15-15s6.716-15 15-15h96.4c8.284 0 15 6.716 15 15s-6.716 15-15 15z"/></g><path d="m400.6 337.4c-8.284 0-15 6.716-15 15 0 18.306-14.894 33.199-33.2 33.199v94.267c6.268 0 12.375 2.527 16.756 6.936.024.024.048.048.073.072 9.18 9.109 20.632 20.6 20.747 20.715 4.286 4.301 10.742 5.592 16.353 3.274 5.611-2.319 9.271-7.792 9.271-13.863v-144.6c0-8.284-6.716-15-15-15z" fill="#ff9355"/><path d="m352.4 415.6c-34.849 0-63.2-28.351-63.2-63.199s28.351-63.2 63.2-63.2 63.2 28.352 63.2 63.2-28.351 63.199-63.2 63.199z" fill="#ff0032"/><path d="m352.4 415.6v-126.4c34.849 0 63.2 28.352 63.2 63.2s-28.351 63.2-63.2 63.2z" fill="#c8003c"/><path d="m351.334 95.333c0-8.284-6.716-15-15-15h-80.334v30h80.333c8.285 0 15.001-6.716 15.001-15z" fill="#0a0400"/><path d="m415.6 175.667c0-8.284-6.716-15-15-15h-144.6v30h144.6c8.284 0 15-6.716 15-15z" fill="#0a0400"/><path d="m415.6 239.934c0-8.284-6.716-15-15-15h-144.6v30h144.6c8.284 0 15-6.716 15-15z" fill="#0a0400"/></g></svg>