<svg id="Layer_1" enable-background="new 0 0 512 512" height="512" viewBox="0 0 512 512" width="512" xmlns="http://www.w3.org/2000/svg"><g><path d="m432.733 176.733c-8.284 0-15 6.716-15 15v49.267h-146.733v-49.267c0-8.284-6.716-15-15-15s-15 6.716-15 15v49.267h-146.733v-49.267c0-8.284-6.716-15-15-15s-15 6.716-15 15v128.533c0 8.284 6.716 15 15 15s15-6.716 15-15v-49.266h146.733v49.267c0 8.284 6.716 15 15 15s15-6.716 15-15v-49.267h146.733v49.267c0 8.284 6.716 15 15 15s15-6.716 15-15v-128.534c0-8.284-6.715-15-15-15z" fill="#352e2f"/><path d="m432.733 176.733c-8.284 0-15 6.716-15 15v49.267h-146.733v-49.267c0-8.284-6.716-15-15-15v158.533c8.284 0 15-6.716 15-15v-49.266h146.733v49.267c0 8.284 6.716 15 15 15s15-6.716 15-15v-128.534c0-8.284-6.715-15-15-15z" fill="#0a0400"/><g fill="#0096f0"><path d="m79.267 0c-8.284 0-15 6.716-15 15v9.1h-9.1c-8.284 0-15 6.716-15 15s6.716 15 15 15h9.1v73.367c0 8.284 6.716 15 15 15s15-6.716 15-15v-112.467c0-8.284-6.716-15-15-15z"/><path d="m111.4 512h-64.266c-6.067 0-11.537-3.655-13.858-9.261s-1.038-12.058 3.253-16.347c0 0 34.467-34.459 52.944-52.913 4.39-4.414 6.928-10.556 6.928-16.813 0-9.447-7.687-17.134-17.134-17.134s-17.133 7.687-17.133 17.134c0 8.284-6.716 15-15 15s-15-6.716-15-15c0-25.989 21.144-47.134 47.133-47.134s47.134 21.145 47.134 47.134c0 14.124-5.72 27.976-15.692 38.003-7.593 7.584-17.87 17.854-27.352 27.33h28.043c8.284 0 15 6.716 15 15s-6.715 15.001-15 15.001z"/><path d="m256 142.467c-25.989 0-47.134-21.145-47.134-47.134 0-8.284 6.716-15 15-15s15 6.716 15 15c0 9.447 7.687 17.134 17.134 17.134s17.134-7.687 17.134-17.134v-8.049c0-9.438-7.687-17.117-17.134-17.117-5.766 0-11.021-3.306-13.52-8.502-2.498-5.197-1.796-11.366 1.807-15.868l12.638-15.797h-33.059c-8.284 0-15-6.716-15-15s6.716-15 15-15h64.268c5.766 0 11.021 3.306 13.52 8.502 2.498 5.197 1.796 11.366-1.807 15.868l-18.542 23.178c13.116 8.376 21.829 23.058 21.829 39.736v8.049c0 25.989-21.145 47.134-47.134 47.134z"/></g><path d="m432.733 142.467h-32.133c-8.284 0-15-6.716-15-15s6.716-15 15-15h32.134c4.516 0 8.937-1.831 12.129-5.022 3.227-3.227 5.004-7.528 5.004-12.111 0-9.447-7.686-17.133-17.133-17.133h-32.134c-8.284 0-15-6.716-15-15v-48.201c0-8.284 6.716-15 15-15h64.267c8.284 0 15 6.716 15 15s-6.716 15-15 15h-49.267v18.2h17.134c25.989 0 47.133 21.144 47.133 47.133 0 12.595-4.897 24.43-13.791 33.324-8.779 8.778-20.931 13.81-33.343 13.81z" fill="#3264a0"/><path d="m312.233 449.866h-17.133v-65.333c0-6.067-3.654-11.536-9.26-13.858-5.603-2.32-12.057-1.039-16.347 3.252l-80.333 80.333c-4.29 4.29-5.573 10.741-3.252 16.347 2.322 5.605 7.791 9.26 13.858 9.26h65.334v17.133c0 8.284 6.716 15 15 15s15-6.716 15-15v-17.134h17.134c8.284 0 15-6.716 15-15s-6.716-15-15.001-15zm-47.133 0h-29.12l29.12-29.12z" fill="#0096f0"/><path d="m474.744 485.681-34.397-30.098c21.916-1.864 39.52-20.156 39.52-42.963 0-23.575-19.188-43.117-43.116-43.117h-36.151c-8.284 0-15 6.716-15 15v56.086c-.001.096-.001.192 0 .288v56.093c0 8.284 6.716 15 15 15s15-6.716 15-15v-23.177l39.389 34.466c7.525 6.582 16.933 3.427 21.167-1.411 5.454-6.235 4.822-15.711-1.412-21.167zm-59.144-59.944v-26.233h21.15c7.37 0 13.116 6.09 13.116 13.117 0 7.186-5.882 13.116-13.116 13.116z" fill="#3264a0"/><path d="m281.305 47.548 18.542-23.178c3.603-4.502 4.305-10.671 1.807-15.868-2.499-5.196-7.755-8.502-13.52-8.502h-32.134v30h.925l-.925 1.156v39.011c9.447 0 17.134 7.679 17.134 17.117v8.049c0 9.447-7.687 17.134-17.134 17.134v30c25.989 0 47.134-21.145 47.134-47.134v-8.049c0-16.679-8.713-31.36-21.829-39.736z" fill="#3264a0"/><path d="m312.233 449.866h-17.133v-65.333c0-6.067-3.654-11.536-9.26-13.858-5.603-2.32-12.057-1.039-16.347 3.252l-13.493 13.493v42.426l9.099-9.099v29.12h-9.099v30h9.099v17.133c0 8.284 6.716 15 15 15s15-6.716 15-15v-17.134h17.134c8.284 0 15-6.716 15-15s-6.715-15-15-15z" fill="#3264a0"/></g></svg>