<svg id="Layer_1" enable-background="new 0 0 512 512" height="512" viewBox="0 0 512 512" width="512" xmlns="http://www.w3.org/2000/svg"><g><path d="m464.866 222.825c-8.284 0-15-6.716-15-15v-112.492c0-8.284 6.716-15 15-15s15 6.716 15 15v112.491c0 8.285-6.715 15.001-15 15.001z" fill="#3264a0"/><path d="m470.251 81.333-208.866-80.333c-3.467-1.334-7.303-1.334-10.77 0l-208.866 80.333c-5.793 2.228-9.615 7.793-9.615 14 0 6.206 3.822 11.771 9.615 14l208.866 80.333c3.467 1.334 7.303 1.334 10.77 0l208.866-80.333c5.793-2.229 9.615-7.794 9.615-14 0-6.207-3.822-11.772-9.615-14z" fill="#5abeff"/><path d="m470.251 109.333c5.793-2.229 9.615-7.794 9.615-14 0-6.207-3.822-11.772-9.615-14l-208.866-80.333c-1.733-.667-3.559-1-5.385-1v190.667c1.826 0 3.651-.333 5.385-1z" fill="#0096f0"/><g fill="#0a0400"><path d="m207.8 321.333h-112.467c-8.284 0-15 6.716-15 15s6.716 15 15 15h112.467c8.284 0 15-6.716 15-15s-6.716-15-15-15z"/><path d="m416.667 321.333h-112.467c-8.284 0-15 6.716-15 15s6.716 15 15 15h112.467c8.284 0 15-6.716 15-15s-6.716-15-15-15z"/><path d="m256 369.534c-8.284 0-15 6.716-15 15v112.466c0 8.284 6.716 15 15 15s15-6.716 15-15v-112.466c0-8.284-6.716-15-15-15z"/></g><path d="m256 160.667c-97.018 0-175.667 78.649-175.667 175.667s78.649 175.666 175.667 175.666 175.667-78.649 175.667-175.667-78.649-175.666-175.667-175.666zm0 321.333c-80.45 0-145.667-65.217-145.667-145.667s65.218-145.666 145.667-145.666 145.667 65.217 145.667 145.667-65.217 145.666-145.667 145.666z" fill="#61585d"/><path d="m431.667 336.333c0-97.018-78.649-175.667-175.667-175.667v30c80.45 0 145.667 65.217 145.667 145.667s-65.217 145.667-145.667 145.667v30c97.018 0 175.667-78.648 175.667-175.667z" fill="#352e2f"/><path d="m256 399.534c-34.849 0-63.2-28.352-63.2-63.2s28.352-63.199 63.2-63.199 63.2 28.351 63.2 63.199-28.351 63.2-63.2 63.2z" fill="#8c828c"/><path d="m319.2 336.333c0-34.849-28.352-63.199-63.2-63.199v126.399c34.849.001 63.2-28.351 63.2-63.2z" fill="#61585d"/><path d="m367.401 200.503v-82.411c0-5.682-3.21-10.876-8.292-13.416-31.847-15.924-67.501-24.341-103.109-24.341s-71.262 8.417-103.108 24.341c-5.082 2.54-8.292 7.734-8.292 13.416v82.411z" fill="#0096f0"/><path d="m367.401 118.092c0-5.682-3.21-10.876-8.292-13.416-31.847-15.924-67.501-24.341-103.109-24.341v120.168h111.4v-82.411z" fill="#3264a0"/></g></svg>