<svg clip-rule="evenodd" fill-rule="evenodd" height="2.667in" image-rendering="optimizeQuality" shape-rendering="geometricPrecision" text-rendering="geometricPrecision" viewBox="0 0 2667 2667" width="2.667in" xmlns="http://www.w3.org/2000/svg"><g id="Layer_x0020_1"><circle cx="1333" cy="1333" fill="#f44c71" r="1333"/><path d="m2051 2185h-78v-406c0-7-7-13-14-13h-179c-8 0-14 6-14 13v406h-126v-406c0-7-6-13-14-13h-179c-8 0-14 6-14 13v406h-123v-406c0-7-6-13-13-13h-180c-7 0-13 6-13 13v406h-105v-652h1052c15 0 27 12 27 26v600c0 14-12 26-27 26zm-1225-1279c-11 0-21-1-32-4-31-9-57-29-72-56-16-27-21-58-14-88 5-20 14-38 27-52-2-3-3-5-5-8 0-1-1-1-1-2-26-47-11-104 36-132 16-10 31-14 46-14 11-22 28-40 50-53 27-16 59-21 91-12 30 8 56 27 72 54v1c7 11 12 24 15 37 40 1 79 23 99 60 16 26 20 60 12 91s-29 58-56 72c0 0 0 1-1 1l-4 2c-1 32-19 66-48 88-2 1-3 2-4 3-44 22-98 13-132-20-5 6-12 11-20 16-17 10-38 16-59 16zm119 1280h-75v-354c0-7-6-13-13-13h-153c-7 0-13 6-13 13v354h-75c-15 0-27-12-27-27v-1186c0-14 12-26 27-26h329c15 0 27 12 27 26v1186c0 15-12 27-27 27zm-88-857c7 0 13-6 13-13v-153c0-7-6-13-13-13h-153c-7 0-13 6-13 13v153c0 7 6 13 13 13zm-139-27v-126h126v126zm139 363c7 0 13-6 13-13v-153c0-7-6-13-13-13h-153c-7 0-13 6-13 13v153c0 7 6 13 13 13zm-139-26v-126h126v126zm126 547h-126v-340h126zm229-680v-130c0-10 6-19 14-23l437-233c8-5 18-5 26 0s13 14 13 23v363zm517-188 374-198c8-5 18-4 26 0 8 5 13 14 13 23v363h-413zm-307 867h-153v-392h153zm330 0h-153v-392h153zm333 0h-153v-392h153z" fill="#fff"/></g></svg>