<svg clip-rule="evenodd" fill-rule="evenodd" height="2.667in" image-rendering="optimizeQuality" shape-rendering="geometricPrecision" text-rendering="geometricPrecision" viewBox="0 0 2667 2667" width="2.667in" xmlns="http://www.w3.org/2000/svg"><g id="Layer_x0020_1"><circle cx="1333" cy="1333" fill="#7ed63f" r="1333"/><path d="m1904 2187h-1144c-70 0-132-37-165-99-35-63-33-141 6-202l486-770v-423h-17c-19 0-40-9-55-24-16-16-25-36-25-56v-53c0-24 10-45 27-57 15-15 34-23 53-23h527c16 0 33 6 46 16 6 2 11 6 14 12 13 13 20 31 20 52v54c0 19-9 40-24 55-16 15-36 24-56 24h-17v423l486 770c39 61 41 138 7 201s-98 100-169 100zm-610-907c-27 0-53-10-77-29-4-4-7-8-9-13-15-19-24-43-24-68 0-27 9-52 29-77l4-4c24-19 50-29 77-29 26 0 52 10 76 29l4 4c20 25 30 50 30 77s-10 52-30 77c-1 1-2 3-4 4-24 19-50 29-76 29zm210 230c-26 0-52-10-71-27-6-2-10-7-13-12-17-19-26-45-26-71 0-29 12-56 34-79 20-20 47-31 76-31 26 0 52 10 76 29 1 1 2 2 3 2 20 21 31 48 31 79 0 32-11 59-31 79-1 1-2 2-3 2-24 19-50 29-76 29zm-170-523c-33 0-64-13-86-35l-3-3c-22-22-35-52-35-82 0-31 13-61 37-85 22-25 52-39 87-39 34 0 65 14 86 39 22 22 34 52 34 85s-13 63-35 85c-22 23-52 35-85 35zm-373 479c130 9 252 39 370 67 153 38 298 73 461 68l207 328c23 36 25 82 4 120s-57 58-99 58h-1143c-42 0-76-21-96-57-21-38-20-85 4-121zm844 431c-2 2-3 3-4 5l-129-63c3-10 5-21 5-32 0-26-11-52-27-72 0-1-1-1-1-2-20-16-46-26-72-26s-52 11-72 26c-2 2-3 4-4 6l-1 3-2 1c-15 18-24 40-24 64 0 10 1 20 4 30l-164 69c-4-7-8-13-14-19-18-17-45-27-70-27-24 0-49 10-66 27l-3 3c-2 2-3 4-5 5l-137-85c7-13 11-28 11-43 0-29-10-53-31-73-19-19-45-31-72-31-28 0-54 11-73 31-21 20-27 44-27 73 0 25 12 48 26 68 1 1 1 1 1 1 19 19 46 31 73 31s53-12 72-31c2-1 4-3 5-5l138 87c-6 12-8 25-8 39 0 26 12 49 29 69 19 19 40 27 67 27 26 0 52-7 70-27s27-43 27-69c0-9-1-18-3-26l165-70c4 7 9 13 15 19 19 18 46 30 73 30s53-11 72-30c1-1 1-2 2-2 4-5 7-9 10-14l127 62c-3 10-5 20-5 31 0 25 12 48 27 68 0 1 0 1 1 1 19 19 42 27 69 27s50-8 69-27c1 0 1-1 2-2 17-19 26-42 26-67 0-26-12-49-27-69-1-1-1-1-2-2-20-16-42-26-68-26s-49 10-68 26c-2 2-4 4-5 7l-1 2zm127 11c11 14 18 30 18 49s-7 36-20 50c-13 15-31 20-50 20s-36-5-50-19c-13-14-20-32-20-51 0-10 2-19 6-27 1-1 2-3 3-4 0-1 1-2 1-3 3-5 6-9 9-13 1-1 2-3 3-4l2-3 2-2c14-9 28-14 44-14 19 0 35 7 49 18l2 1zm-1058-90c-13-15-20-32-20-51 0-21 4-39 19-54 14-14 34-23 54-23s40 9 54 23c15 15 23 32 23 54 0 13-5 26-12 36-1 1-2 2-3 4 0 0-1 1-1 2-2 3-5 5-7 8-14 14-34 23-54 23s-40-8-53-22zm758-63c11 14 18 33 18 52s-7 40-20 54c-13 15-33 22-53 22s-40-9-54-22c-5-5-9-11-13-17 0-2 0-4-1-6s-2-4-4-5c-3-9-5-17-5-26 0-20 9-37 23-51l3-3 1-3 3-2c14-9 30-15 47-15 18 0 37 8 52 19l2 1zm-402 132c18 0 38 7 51 19 5 5 9 11 12 17 0 2 1 4 2 6 0 1 1 3 3 4 2 7 3 15 3 24 0 19-6 36-20 50 0 1-1 1-1 2-12 13-32 18-49 18-18 0-37-4-47-19 0 0-1-1-1-1-14-14-23-30-23-50 0-12 3-24 9-34 1 0 2-1 3-2 0-1 1-2 1-4 2-2 4-5 7-7l3-4c12-12 30-19 47-19zm-90-1194v430c0 5-1 10-4 15l-490 776c-28 45-30 102-4 149 24 45 68 71 119 71h1143c53 0 97-26 122-72 26-46 24-103-4-147l-490-777c-3-4-4-9-4-14v-431z" fill="#fff"/></g></svg>