<svg clip-rule="evenodd" fill-rule="evenodd" height="2.667in" image-rendering="optimizeQuality" shape-rendering="geometricPrecision" text-rendering="geometricPrecision" viewBox="0 0 2667 2667" width="2.667in" xmlns="http://www.w3.org/2000/svg"><g id="Layer_x0020_1"><circle cx="1333" cy="1333" fill="#f44c71" r="1333"/><path d="m2109 2186h-1428v-353c0-7-6-13-14-13-7 0-13 6-13 13v353h-100c-40 0-73-34-73-77v-473c0-41 32-73 73-73h1432v350c0 7 6 13 13 13 8 0 14-6 14-13v-350h96c43 0 77 33 77 73v473c0 42-35 77-77 77zm-166-1352h-270c-15 0-27-12-27-27v-299c0-11 7-21 17-25 11-4 22-1 30 7l269 299c7 8 9 19 5 29s-14 16-24 16zm-1246 702v-1028c0-15 12-27 27-27h896v326c0 30 24 54 53 54h296v675zm1086-113c7 0 13-6 13-13s-6-13-13-13h-899c-8 0-14 6-14 13s6 13 14 13zm0-239c7 0 13-6 13-14 0-7-6-13-13-13h-899c-8 0-14 6-14 13 0 8 6 14 14 14zm0-244c7 0 13-6 13-13s-6-13-13-13h-899c-8 0-14 6-14 13s6 13 14 13zm-410-239c8 0 14-6 14-14 0-7-6-13-14-13h-489c-8 0-14 6-14 13 0 8 6 14 14 14zm207 1372c37 0 70-33 70-70v-257c0-39-31-70-70-70h-74c-39 0-69 31-69 70v257c0 37 33 70 69 70zm-74-370h74c24 0 43 19 43 43v257c0 22-21 43-43 43h-74c-22 0-43-21-43-43v-257c0-24 19-43 43-43zm-265 157h-1c-44 0-80-36-80-80 0-43 38-77 80-77s80 34 80 77c0 7 6 13 13 13 8 0 14-6 14-13 0-59-50-104-107-104s-106 45-106 104c0 58 47 106 106 106 43 0 80 37 80 80s-37 80-80 80-80-37-80-80c0-7-6-13-13-13s-13 6-13 13c0 58 49 107 106 107 58 0 107-49 107-107 0-57-49-106-106-106zm-211 213c8 0 14-6 14-14v-369c0-8-6-14-14-14-7 0-13 6-13 14v369c0 8 6 14 13 14z" fill="#fff"/></g></svg>