<svg clip-rule="evenodd" fill-rule="evenodd" height="2.667in" image-rendering="optimizeQuality" shape-rendering="geometricPrecision" text-rendering="geometricPrecision" viewBox="0 0 2667 2667" width="2.667in" xmlns="http://www.w3.org/2000/svg"><g id="Layer_x0020_1"><circle cx="1333" cy="1333" fill="#378b4e" r="1333"/><path d="m746 1988v-791h1088v791zm1285-1048h-64c-15 0-27-12-27-26 0-15 12-27 27-27h64c14 0 26 12 26 27 0 14-12 26-26 26zm-111-170c-9 0-18-4-23-13-7-12-3-29 10-36l56-34c13-7 30-3 37 9 8 13 4 30-9 37l-57 34c-4 2-9 3-14 3zm-126-127c-5 0-10-1-14-3-12-8-17-24-9-37l33-57c8-12 24-17 37-9 13 7 17 24 9 37l-33 56c-5 9-14 13-23 13zm-341 0c-9 0-18-4-23-13l-33-56c-7-13-3-29 9-37 13-7 29-3 37 9l33 57c8 13 4 29-9 37-4 2-9 3-14 3zm171-46c-15 0-27-12-27-27v-63c0-15 12-27 27-27 14 0 26 12 26 27v63c0 15-12 27-26 27zm0 16c231 0 369 249 265 441l-511-312c56-80 147-129 246-129zm-774 344v-203c0-15 12-27 26-27h110c15 0 27 12 27 27v103zm1095 1230h-1309c-15 0-27-12-27-27v-119c0-14 12-26 27-26h1309c14 0 26 12 26 26v119c0 15-11 27-26 27zm-11-1016h-1288c-12 0-22-8-26-20-3-11 2-23 12-30l644-393c9-6 19-6 28 0l643 393c11 7 15 19 12 30-3 12-13 20-25 20zm-644-117c48 0 87-39 87-87s-39-87-87-87-87 39-87 87 39 87 87 87zm0-147c33 0 60 27 60 60s-27 60-60 60-60-27-60-60 27-60 60-60zm-167 707c7 0 14-6 14-13s-7-13-14-13h-80c-7 0-13 6-13 13s6 13 13 13zm0-93c7 0 14-6 14-14 0-7-7-13-14-13h-40c-7 0-13 6-13 13 0 8 6 14 13 14zm0-94c7 0 14-6 14-13s-7-13-14-13h-80c-7 0-13 6-13 13s6 13 13 13zm0-90c7 0 14-6 14-13s-7-13-14-13h-40c-7 0-13 6-13 13s6 13 13 13zm167 564c41 0 77-36 77-77 0-42-35-76-77-76-44 0-77 32-77 76 0 43 35 77 77 77zm0-127c28 0 50 23 50 50 0 26-24 50-50 50-28 0-50-22-50-50 0-29 21-50 50-50zm0 211c43 0 83-17 113-48 30-30 47-70 47-113 0-48-20-90-56-122l-4-4v-394c0-54-46-100-100-100-56 0-100 44-100 100v394l-4 4c-36 33-56 74-56 122 0 43 17 83 47 113 30 31 70 48 113 48zm0-754c39 0 73 34 73 73v400c0 4 2 8 5 11 35 28 55 64 55 109 0 73-61 134-133 134s-133-61-133-134c0-45 20-81 55-109 3-3 5-7 5-11v-400c0-41 32-73 73-73z" fill="#fff"/></g></svg>