<svg clip-rule="evenodd" fill-rule="evenodd" height="2.667in" image-rendering="optimizeQuality" shape-rendering="geometricPrecision" text-rendering="geometricPrecision" viewBox="0 0 2667 2667" width="2.667in" xmlns="http://www.w3.org/2000/svg"><g id="Layer_x0020_1"><circle cx="1333" cy="1333" fill="#1d81ce" r="1333"/><path d="m2017 1880h-1367c-15 0-27-12-27-26v-147h1420v147c0 14-12 26-26 26zm-624-533h-120c-28 0-50-22-50-50v-72c-18-8-34-17-48-26l-61 34c-22 14-55 7-70-15 0 0 0-1-1-1l-60-107c0-1-1-3-2-5-7-22 2-47 21-61 1 0 1 0 2-1l60-34c-1-11-1-20-1-29 0-10 0-20 1-29l-60-34c-1-1-1-1-2-1-19-13-27-37-21-62 1-3 2-5 3-7l60-104s0-1 1-1c14-22 47-29 69-15l61 35c15-12 32-22 49-29v-70c0-28 22-50 50-50h120c28 0 50 22 50 50v69c17 9 33 19 48 30l61-35c22-14 52-7 66 15 1 0 1 1 1 1l60 103c1 1 1 1 1 2 12 24 6 53-16 67 0 0-1 1-1 1l-62 35v1c1 8 2 17 2 28 0 8-1 15-2 22 0 2 0 4-1 6l63 35c0 1 1 1 1 1 22 15 29 44 15 66l-60 107s-1 1-1 1c-15 22-44 29-66 15l-62-35c-16 11-32 20-48 27v72c0 28-22 50-50 50zm-194-366c0 73 61 133 135 133 75 0 133-58 133-133 0-74-60-134-133-134-35 0-69 14-95 39-26 26-40 60-40 95zm-199 469c-15 0-27-12-27-26v-110c0-15 12-27 27-27h107c14 0 26 12 26 27 0 14-12 26-26 26h-36c106 78 245 106 379 71 236-63 377-308 314-547 0-1 0-1 0-1-2-3-4-9-4-16 0-15 12-27 27-27 12 0 23 9 26 21 1 2 3 6 3 11 69 267-89 541-352 611-43 11-86 16-129 16-113 0-222-37-308-106v51c0 14-12 26-27 26zm663-777h-103c-15 0-27-12-27-26 0-15 12-27 27-27h36c-107-80-247-107-379-71-236 63-377 309-315 547 0 1 0 1 1 1 1 3 4 9 4 16 0 15-12 27-27 27-13 0-23-9-26-20-1-3-3-7-4-11-69-267 89-541 353-611 153-42 316-8 437 89v-50c0-15 12-27 27-27 14 0 26 12 26 27v110c0 7-3 14-7 18v1h-1c-6 6-14 8-22 7zm-27 1514h-606c-15 0-27-12-27-27v-116c0-15 12-27 27-27h606c15 0 27 12 27 27v116c0 15-12 27-27 27zm-413-197v-83h222v83zm-600-310v-700c0-15 12-27 27-27h164c-4 54 0 108 10 161 1 5 3 10 5 15 7 22 27 38 51 38 30 0 53-24 53-54 0-9-2-18-6-26-11-44-15-89-12-134h99l23 13v14 14l-47 26c0 1-1 1-2 1-31 19-41 57-33 91 3 9 3 7 5 11l60 107s1 1 1 2c8 13 20 23 34 28h-55c-29 0-53 24-53 54v110c0 29 24 53 53 53s52-23 53-52c84 53 182 81 282 81 46 0 91-6 135-17 100-26 188-81 255-160 89-105 132-240 129-376h163c14 0 26 12 26 27v700zm1029-727h100c6 94-20 188-74 267-56 82-138 140-234 165-102 27-210 15-302-32 11-10 18-24 18-39 0-27-19-48-44-53 4-1 7-3 11-5l47-26c7 4 15 8 23 12v55c0 43 34 77 76 77h120c43 0 77-34 77-77v-56c8-3 15-7 22-12l48 27c35 20 81 11 102-24 0-1 1-2 1-2l60-107c20-35 12-81-24-102-1 0-2-1-2-1l-47-26c0-5 0-10 0-14 0-5 0-9 0-14z" fill="#fff"/></g></svg>