<svg clip-rule="evenodd" fill-rule="evenodd" height="2.667in" image-rendering="optimizeQuality" shape-rendering="geometricPrecision" text-rendering="geometricPrecision" viewBox="0 0 2667 2667" width="2.667in" xmlns="http://www.w3.org/2000/svg"><g id="Layer_x0020_1"><circle cx="1333" cy="1333" fill="#1d81ce" r="1333"/><path d="m1887 1267c-7-298-252-539-553-539-300 0-545 241-552 539h179c15 0 27 12 27 27 0 191 156 346 346 346 191 0 347-155 347-346 0-10 5-18 13-23h1v-1h1l1-1h1 1 1v-1h1 1 1 1 1v-1h1 1zm-1135 866c-15 0-27-12-27-26v-189c0-7 2-15 8-20 6-6 13-8 20-8h189c14 0 26 12 26 27 0 14-12 26-26 26h-123c196 168 467 230 722 161 206-54 379-187 485-372 107-185 135-399 79-604-1-2-1-4-1-7 0 0-1-2-1-3-1-4-3-10-3-17 0-14 12-26 27-26s27 11 27 26c0 1 0 3 1 4 0 3 2 7 2 12 59 218 29 446-84 642-114 197-298 338-518 397-74 19-150 29-225 29s-151-10-224-30c-121-34-233-94-328-177v129c0 14-12 26-26 26zm1163-1355h-188c-14 0-26-12-26-27 0-14 12-26 26-26h122c-195-168-466-231-721-165-425 115-679 553-568 977 4 8 9 18 9 33s-12 27-27 27-27-12-27-27c0-3-1-5-4-11 0-2-1-3-2-5-58-220-27-449 86-646 114-198 299-339 519-399 275-72 567-3 777 181v-129c0-14 12-26 26-26 15 0 27 12 27 26v190c0 14-11 26-25 27-1 0-2 0-4 0zm-1085 463c5-71 26-139 60-201l112 63c2 1 4 1 6 1 5 0 9-2 12-7 4-6 1-14-5-18l-112-62c21-33 45-65 74-94 29-28 61-53 94-74l62 112c2 4 7 7 12 7 2 0 4-1 6-2 7-4 9-12 5-18l-61-112c69-38 146-59 226-61v129c0 8 6 14 13 14 8 0 14-6 14-14v-129c80 2 157 23 227 61l-62 112c-4 6-2 14 5 18 2 1 4 2 6 2 5 0 10-3 12-7l62-112c34 21 65 46 94 74 28 29 52 59 73 92l-111 64c-6 4-8 12-5 19 3 4 7 6 12 6 2 0 4 0 6-2l111-64c34 62 55 131 61 203h-132-1-1-1-2-1-2l-1 1h-1-2-1l-1 1h-1-1l-2 1h-1l-1 1h-2l-1 1-1 1h-1l-1 1c-17 9-27 27-27 46 0 176-143 320-320 320-176 0-319-144-319-320 0-29-24-53-54-53zm1008 106c-1 6-1 11-2 16l133 81c17 8 30 22 35 41 6 18 3 40-7 56l-116 206c-1 0-1 1-1 1-23 34-65 45-99 25l-137-80c-35 29-75 54-119 72v155c-1 40-32 73-71 73h-239c-39 0-70-33-70-73v-155c-43-18-85-43-123-72l-133 80h-1c-34 20-76 9-98-25-1 0-1-1-1-1l-117-206c-10-17-13-38-7-57 5-18 18-33 35-41l133-80c0-5-1-10-1-16h79c12 94 54 181 122 249 80 80 188 124 301 124 114 0 222-44 302-124 67-68 110-155 121-249zm-504 37c53 0 96-39 103-90h157c7 0 13-6 13-13 0-8-6-14-13-14h-157c-6-46-43-83-89-89v-94c0-7-6-13-14-13-7 0-13 6-13 13v94c-51 7-90 50-90 103 0 57 47 103 103 103zm0-180c43 0 77 34 77 77s-34 76-77 76-76-33-76-76 33-77 76-77zm399 117c-6 97-47 187-116 256-75 75-176 117-283 117-106 0-207-42-282-117-69-69-110-159-116-256h-181c-15 0-27-12-27-27v-13c0-335 272-606 606-606 335 0 607 271 607 606v13c0 15-12 27-27 27z" fill="#fff"/></g></svg>