<svg clip-rule="evenodd" fill-rule="evenodd" height="2.667in" image-rendering="optimizeQuality" shape-rendering="geometricPrecision" text-rendering="geometricPrecision" viewBox="0 0 2667 2667" width="2.667in" xmlns="http://www.w3.org/2000/svg"><g id="Layer_x0020_1"><circle cx="1333" cy="1333" fill="#00ab94" r="1333"/><path d="m609 2052v-584c0-15-12-28-28-28h-73c-17 0-28 11-28 28v584c0 17 11 28 28 28h73c16 0 28-13 28-28zm1054-1372v322c0 75-38 130-99 169l12 45c129 0 217-4 314 110l10-16c220-351-30-815-447-815-419 0-672 464-450 815l10 16c99-114 183-110 314-110l11-45c-61-39-99-94-99-169v-224c0-81 69-150 151-150h224c27 0 49 26 49 52zm-144 71c9 39 46 62 84 62h32v-133c0-11-9-24-21-24h-224c-66 0-123 57-123 122v35h140c90 0 72-80 101-73 6 2 10 6 11 11zm-87 416c46 0 67 4 111-17 57-27 92-85 92-148v-161c-68 0-87-1-130-51-27 33-49 51-98 51h-140v161c0 91 75 165 165 165zm63-109c18 0 18 28 0 28h-88c-18 0-18-28 0-28zm21-116c-1-1-16-23 19-24h23c18 0 18 28 0 28-10 0-35 3-42-4zm-140 4c-22 0-46 5-46-14 0-18 27-14 46-14 18 0 18 28 0 28zm-24 283 100 219 98-220-12-45c-57 17-116 17-174 0zm-315 129c213 267 616 268 829 0l6-8c-52-71-129-106-217-106h-81l-108 243c-5 12-21 12-26 1l-112-244h-78c-91 0-165 34-220 106zm-400 206v389c134-7 312 3 422 89 55 43 119 78 185 103 23 8 79 27 104 27l761-25c56-2 94-63 71-114-14-30-43-49-76-47-363 16-742 103-1039-168-13-13 5-34 19-21 137 125 291 173 473 185 47-53-4-104-52-142-135-108-402-212-427-231-60-44-131-76-206-80-59-3-170 24-235 35z" fill="#fff"/></g></svg>