<svg clip-rule="evenodd" fill-rule="evenodd" height="2.667in" image-rendering="optimizeQuality" shape-rendering="geometricPrecision" text-rendering="geometricPrecision" viewBox="0 0 2667 2667" width="2.667in" xmlns="http://www.w3.org/2000/svg"><g id="Layer_x0020_1"><circle cx="1333" cy="1333" fill="#f44c71" r="1333"/><path d="m803 1831c-178 0-323-145-323-323 0-179 145-324 323-324 34 0 66 5 97 15l126-284-55-15c-22-6-46 8-52 30v2c-4 11-3 22 3 32 5 9 14 16 24 18 19 5 31 25 26 45-4 16-19 27-35 27-3 0-6 0-9-1-30-6-55-27-70-53-15-27-18-59-10-89 17-60 79-96 140-82h2l89 25c5 0 9 1 13 3 18 8 27 30 18 49l-29 67 439 119 39-144h-46c-20 0-36-17-36-37s16-37 36-37h90 7 93c21 0 37 17 37 37s-16 37-37 37h-68l-48 179 95 112c52-35 114-55 181-55 179 0 324 145 324 324 0 178-145 323-324 323-167 0-306-126-324-287h-92c-11 0-22-5-29-13l-379-465-72 163c95 56 160 160 160 279 0 178-145 323-324 323zm914-552 108 125c12-4 25-6 38-6 60 0 110 50 110 110 0 59-50 110-110 110-48 0-89-31-104-74h-166c18 132 132 234 270 234 149 0 270-121 270-270s-121-270-270-270c-53 0-103 15-146 41zm-772-1-66 149c21 20 34 48 34 81 0 61-48 110-110 110-61 0-110-49-110-110 0-62 49-110 110-110h8l67-150c-24-7-49-10-75-10-149 0-270 121-270 270s121 270 270 270 270-121 270-270c0-97-51-183-128-230zm618-65-69 258h45c8-71 40-136 87-185zm30 258h166c3-7 6-13 9-20l-107-125c-36 40-61 90-68 145zm-92-308-370-100 299 366z" fill="#fff"/></g></svg>