<svg clip-rule="evenodd" fill-rule="evenodd" height="2.667in" image-rendering="optimizeQuality" shape-rendering="geometricPrecision" text-rendering="geometricPrecision" viewBox="0 0 2667 2667" width="2.667in" xmlns="http://www.w3.org/2000/svg"><g id="Layer_x0020_1"><circle cx="1333" cy="1333" fill="#f10" r="1333"/><path d="m1697 2187h-727c-48 0-87-39-87-87v-1533c0-48 39-87 87-87h727c47 0 86 39 86 87v1533c0 48-39 87-86 87zm-594-164c8 0 14-6 14-13s-6-13-14-13h-80c-7 0-13 6-13 13s6 13 13 13zm0-213c8 0 14-6 14-13 0-8-6-14-14-14h-80c-7 0-13 6-13 14 0 7 6 13 13 13zm184 213c7 0 13-6 13-13s-6-13-13-13h-80c-8 0-14 6-14 13s6 13 14 13zm0-213c7 0 13-6 13-13 0-8-6-14-13-14h-80c-8 0-14 6-14 14 0 7 6 13 14 13zm183 213c7 0 13-6 13-13s-6-13-13-13h-80c-7 0-13 6-13 13s6 13 13 13zm0-213c7 0 13-6 13-13 0-8-6-14-13-14h-80c-7 0-13 6-13 14 0 7 6 13 13 13zm187 213c7 0 13-6 13-13s-6-13-13-13h-80c-8 0-14 6-14 13s6 13 14 13zm0-213c7 0 13-6 13-13 0-8-6-14-13-14h-80c-8 0-14 6-14 14 0 7 6 13 14 13zm-554-890c8 0 14-6 14-13 0-8-6-14-14-14h-80c-7 0-13 6-13 14 0 7 6 13 13 13zm0-130c8 0 14-6 14-13 0-8-6-14-14-14h-80c-7 0-13 6-13 14 0 7 6 13 13 13zm184 130c7 0 13-6 13-13 0-8-6-14-13-14h-80c-8 0-14 6-14 14 0 7 6 13 14 13zm0-130c7 0 13-6 13-13 0-8-6-14-13-14h-80c-8 0-14 6-14 14 0 7 6 13 14 13zm183 130c7 0 13-6 13-13 0-8-6-14-13-14h-80c-7 0-13 6-13 14 0 7 6 13 13 13zm0-130c7 0 13-6 13-13 0-8-6-14-13-14h-80c-7 0-13 6-13 14 0 7 6 13 13 13zm187 130c7 0 13-6 13-13 0-8-6-14-13-14h-80c-8 0-14 6-14 14 0 7 6 13 14 13zm0-130c7 0 13-6 13-13 0-8-6-14-13-14h-80c-8 0-14 6-14 14 0 7 6 13 14 13zm0-133c7 0 13-6 13-14 0-7-6-13-13-13h-94c-7 0-13 6-13 13 0 8 6 14 13 14zm-544 0c8 0 14-6 14-14 0-7-6-13-14-13h-90c-7 0-13 6-13 13 0 8 6 14 13 14zm220 866c51 0 98-20 134-56s56-83 56-134c0-50-20-98-56-134-36-35-83-56-134-56-50 0-98 21-134 56-35 36-56 84-56 134 0 51 21 98 56 134 36 36 83 56 134 56zm0-353c89 0 164 75 164 163 0 89-75 164-164 164-88 0-163-75-163-164 0-88 75-163 163-163zm0 490c180 0 327-147 327-327s-147-326-327-326-326 146-326 326 146 327 326 327zm0-627c166 0 300 135 300 300 0 166-134 300-300 300-165 0-300-134-300-300 0-165 135-300 300-300z" fill="#fff"/></g></svg>