<svg clip-rule="evenodd" fill-rule="evenodd" height="2.667in" image-rendering="optimizeQuality" shape-rendering="geometricPrecision" text-rendering="geometricPrecision" viewBox="0 0 2667 2667" width="2.667in" xmlns="http://www.w3.org/2000/svg"><g id="Layer_x0020_1"><circle cx="1333" cy="1333" fill="#7ed63f" r="1333"/><path d="m2053 2043h-1439c-73 0-133-60-133-134v-246c0-74 59-133 133-133h1439c74 0 133 58 133 133v246c0 75-59 134-133 134zm-1436-540v-186c0-15 12-27 27-27h248c15 0 27 12 27 27v186zm377 0v-186c0-15 12-27 26-27h248c15 0 27 12 27 27v186zm376 0v-186c0-15 12-27 27-27h248c14 0 26 12 26 27v186zm376 0v-186c0-15 12-27 27-27h248c15 0 27 12 27 27v186zm-854-294h-248c-15 0-27-12-27-27v-107l-128-129c-11-10-11-27 0-38l132-132v-72h300v74l128 131c10 10 10 27 0 37l-130 130v106c0 15-12 27-27 27zm-275-210v-59c0-14 12-26 27-26h248c15 0 27 12 27 26v61l74-74-72-73c-2 13-13 22-26 22h-248c-14 0-25-11-26-25l-76 76zm1542-322h-1651c-15 0-27-12-27-26 0-15 12-27 27-27h1651c15 0 27 12 27 27 0 14-12 26-27 26zm-256 1259c84 0 150-66 150-150s-66-150-150-150-150 66-150 150 66 150 150 150zm0-273c69 0 123 54 123 123s-54 123-123 123-123-54-123-123 54-123 123-123zm-380 273c84 0 150-66 150-150s-66-150-150-150-150 66-150 150 66 150 150 150zm0-273c69 0 123 54 123 123s-54 123-123 123-123-54-123-123 54-123 123-123zm-379 273c84 0 149-66 149-150s-65-150-149-150c-85 0-150 66-150 150s65 150 150 150zm0-273c69 0 123 54 123 123s-54 123-123 123-124-54-124-123 55-123 124-123zm-380 273c84 0 150-66 150-150s-66-150-150-150-150 66-150 150 66 150 150 150zm0-273c69 0 123 54 123 123s-54 123-123 123-123-54-123-123 54-123 123-123z" fill="#fff"/></g></svg>