<svg clip-rule="evenodd" fill-rule="evenodd" height="2.667in" image-rendering="optimizeQuality" shape-rendering="geometricPrecision" text-rendering="geometricPrecision" viewBox="0 0 2667 2667" width="2.667in" xmlns="http://www.w3.org/2000/svg"><g id="Layer_x0020_1"><circle cx="1333" cy="1333" fill="#378b4e" r="1333"/><path d="m1333 1743c-349 0-632-282-632-629 0-349 283-633 632-633s633 284 633 633c0 347-284 629-633 629zm190 443c-6 0-13-3-18-7l-172-151-175 151c-8 7-19 9-29 4-9-4-15-13-15-24v-427c68 24 142 38 219 38 76 0 149-13 217-37v426c0 10-6 20-16 24-4 2-7 3-11 3zm-376-809c2 0 4-1 6-2l180-84 179 84c4 2 9 2 13-1s6-8 6-13l-23-196 136-146c3-3 4-8 3-13-2-5-6-8-11-9l-196-36-94-174c-2-4-7-7-12-7s-9 3-12 7l-97 174-193 36c-5 1-9 4-11 9-1 5 0 10 3 13l136 145-26 197c-1 5 1 10 5 13 3 2 5 3 8 3zm-87-358 176-32c4-1 7-3 9-7l88-159 85 159c2 3 5 6 9 7l180 32-124 132c-2 3-4 7-3 11l21 179-162-77c-4-1-8-1-11 0l-165 77 24-179c0-4-1-8-4-11zm273 561c257 0 467-209 467-466 0-126-49-244-137-333-88-88-205-137-330-137-259 0-469 210-469 470 0 124 49 241 138 329s206 137 331 137zm0-909c244 0 440 200 440 443 0 242-197 439-440 439s-443-196-443-439c0-245 199-443 443-443z" fill="#fff"/></g></svg>