<svg clip-rule="evenodd" fill-rule="evenodd" height="2.667in" image-rendering="optimizeQuality" shape-rendering="geometricPrecision" text-rendering="geometricPrecision" viewBox="0 0 2667 2667" width="2.667in" xmlns="http://www.w3.org/2000/svg"><g id="Layer_x0020_1"><circle cx="1333" cy="1333" fill="#f44c71" r="1333"/><path d="m977 1740c-18-45-27-93-27-143 0-70 19-138 54-197h-317v393h317c-11-17-19-35-27-53zm706-840h-700c-51 0-93-42-93-93 0-52 42-94 93-94h700c52 0 94 42 94 94 0 51-42 93-94 93zm-140 440h-423c-40 0-73-34-73-73 0-40 33-74 73-74h423c43 0 77 33 77 74 0 40-34 73-77 73zm554 543c-48 0-90-42-90-90v-393c0-48 42-90 90-90s90 42 90 90v393c0 48-42 90-90 90zm-1527 0c-50 0-90-40-90-90v-393c0-50 40-90 90-90 48 0 90 42 90 90v393c0 48-42 90-90 90zm613-956v240h300v-240zm150 1026c-95 0-185-37-252-104s-104-156-104-252c0-92 34-179 94-243 15 8 31 13 49 13h423c19 0 37-5 52-14 60 65 95 152 95 244 0 95-37 185-104 252s-157 104-253 104zm-9-492-1 1c-58 75-135 204-103 304 17 51 60 85 114 85s97-34 113-85c31-96-50-229-102-303-1-1-2-3-3-4-6-4-13-3-18 2zm98 297c-13 39-47 66-88 66-42 0-76-27-88-66-27-82 32-187 77-251l11-15 11 15c45 64 103 169 77 251zm558-358h-317c35 59 54 127 54 197s-19 137-54 196h317z" fill="#fff"/></g></svg>