<svg clip-rule="evenodd" fill-rule="evenodd" height="2.667in" image-rendering="optimizeQuality" shape-rendering="geometricPrecision" text-rendering="geometricPrecision" viewBox="0 0 2667 2667" width="2.667in" xmlns="http://www.w3.org/2000/svg"><g id="Layer_x0020_1"><circle cx="1333" cy="1333" fill="#1d81ce" r="1333"/><path d="m1675 2187h-680c-72 0-140-29-192-80-52-52-81-121-81-194 0-148 125-273 273-273h680c72 0 139 29 191 81 51 52 79 121 79 192 0 151-121 274-270 274zm-879-860 62-74c5-6 13-10 20-10h160c12-43 48-73 94-73h80v-42h-84c-14 0-26-12-26-26v-329c0-14 12-26 26-26h77v-87c-39-11-67-45-67-87 0-51 42-93 94-93 48 0 90 43 90 93 0 41-27 75-64 86v88h154v-87c-38-11-64-45-64-87 0-52 40-93 90-93 52 0 94 42 94 93 0 42-28 76-67 87v87h78c14 0 26 12 26 26v329c0 14-12 26-26 26h-86v42h81c44 0 82 32 93 73h157c8 0 15 4 20 9l66 75 158 3c15 0 27 12 26 27 0 15-12 26-26 26-1 0-1 0-1 0l-104-2 77 77c10 10 10 27 0 38-5 5-12 7-19 7s-14-2-19-7l-78-78v109c0 14-12 26-26 26-15 0-27-12-27-26v-164l-59-66h-141v316h-600v-317h-144l-56 67-3 164c-1 15-13 26-27 26 0 0 0 0-1 0-14 0-26-12-26-27l2-107-76 77c-5 5-12 7-19 7s-14-2-19-7c-10-11-10-28 0-38l77-77-107 2c-1 0-1 0-1 0-14 0-26-11-27-26 0-14 12-27 26-27zm594-308c8 0 14-6 14-13s-6-14-14-14l-110 1c-7 0-13 6-13 13s6 13 13 13zm70-136c8 0 14-7 14-14s-6-13-14-13h-40c-7 0-13 6-13 13s6 14 13 14zm-206 0c7 0 13-7 13-14s-6-13-13-13h-44c-7 0-13 6-13 13s6 14 13 14zm150 287v-40h-139v40zm-69 343c67 0 123-52 123-120 0-33-13-63-36-87-23-23-54-36-87-36s-64 13-87 36c-23 24-36 54-36 87 0 68 56 120 123 120zm0-216c53 0 97 44 97 96 0 53-45 94-97 94s-97-41-97-94c0-52 44-96 97-96zm342 733c64 0 116-52 116-117 0-64-52-116-116-116-65 0-120 51-120 116 0 66 55 117 120 117zm0-207c49 0 90 41 90 90 0 50-41 90-90 90-51 0-94-38-94-90 0-51 43-90 94-90zm-344 207c65 0 117-52 117-117 0-64-52-116-117-116-64 0-116 52-116 116 0 65 52 117 116 117zm0-207c50 0 90 41 90 90 0 50-40 90-90 90-49 0-90-40-90-90 0-49 41-90 90-90zm-343 207c64 0 117-52 117-117 0-64-53-116-117-116s-117 52-117 116c0 65 53 117 117 117zm0-207c50 0 90 41 90 90 0 50-40 90-90 90s-90-40-90-90c0-49 40-90 90-90z" fill="#fff"/></g></svg>