<svg clip-rule="evenodd" fill-rule="evenodd" height="2.667in" image-rendering="optimizeQuality" shape-rendering="geometricPrecision" text-rendering="geometricPrecision" viewBox="0 0 2667 2667" width="2.667in" xmlns="http://www.w3.org/2000/svg"><g id="Layer_x0020_1"><circle cx="1333" cy="1333" fill="#f10" r="1333"/><path d="m1860 2087h-290-290-290-353c-15 0-27-12-27-27v-1013c0-15 12-27 27-27h150v-207h-25c18-27 28-59 28-93s-10-64-26-90h499c15 0 27 12 27 27v263h410c15 0 27 12 27 27v266h433c15 0 27 12 27 27v820c0 15-12 27-27 27h-130c-15 0-27-12-27-27v-663h-116v443 220c0 15-12 27-27 27zm-1240-1224c-77 0-140-64-140-143s61-140 140-140c80 0 143 61 143 140 0 38-14 74-41 101s-63 42-102 42zm1213 534h-236v193 223h236zm-290-27v-267h-236v267 27 166h236zm-290-267h-120c-14 0-26-12-26-26v-264h-267v207h150c15 0 27 12 27 27v296h236z" fill="#fff"/></g></svg>