<svg clip-rule="evenodd" fill-rule="evenodd" height="2.667in" image-rendering="optimizeQuality" shape-rendering="geometricPrecision" text-rendering="geometricPrecision" viewBox="0 0 2667 2667" width="2.667in" xmlns="http://www.w3.org/2000/svg"><g id="Layer_x0020_1"><circle cx="1333" cy="1333" fill="#378b4e" r="1333"/><path d="m480 1033h318v-165h-318zm318 765v-164h-318v164zm346-164h-318v164h318zm0-28v-164h-318v164zm28 0h322v-164h-322zm322 192v-164h-322v164zm346-164h-318v164h318zm0-28v-164h-318v164zm347 28h-319v164h319zm0-192h-319v164h319zm0-189h-319v161h319zm-319-220h319v-165h-319zm-28 220h-318v161h318zm-318-192v164h318v-164zm-350-28h322v-165h-322zm0 192h322v-164h-322zm0 28v161h322v-161zm-28 0h-318v161h318zm-318-220h318v-165h-318zm0 28v164h318v-164zm-28 192h-318v161h318zm0-192h-318v164h318z" fill="#fff"/></g></svg>