<svg clip-rule="evenodd" fill-rule="evenodd" height="2.667in" image-rendering="optimizeQuality" shape-rendering="geometricPrecision" text-rendering="geometricPrecision" viewBox="0 0 2667 2667" width="2.667in" xmlns="http://www.w3.org/2000/svg"><g id="Layer_x0020_1"><circle cx="1333" cy="1333" fill="#7ed63f" r="1333"/><path d="m1454 2030h-239c-38 0-70-32-70-70v-158c-47-19-88-42-123-69l-134 77c-37 21-83 7-100-23l-116-207c-21-36-10-79 26-99l135-78c-6-51-6-87 0-138l-135-78c-35-20-47-63-26-99l118-209c18-31 71-42 99-24l134 80c35-27 75-50 122-69v-158c0-38 32-70 70-70h240c38 0 70 32 70 70v158c47 19 86 42 119 69l140-82c29-16 80-3 97 28l116 207c20 35 12 76-27 96l-134 80c6 51 6 88 0 139l135 78c35 20 47 63 26 99l-117 208c-22 32-64 42-99 22l-137-77c-33 27-72 49-120 69v158c0 38-32 70-70 70zm-229-527c-33-11-57-41-57-76 0-44 39-83 83-83s83 39 83 83c0 35-23 65-56 76v44c0 40-34 73-77 73h-93c60 48 137 78 226 78 193 0 350-148 364-337h-220c-16 0-27 11-27 26v44c35 12 60 44 60 83 0 47-39 86-87 86-45 0-83-39-83-86 0-38 24-70 57-82v-45c0-45 35-80 80-80h220c-13-193-169-322-337-336v137c35 12 60 44 60 83 0 47-39 86-87 86-47 0-86-39-86-86 0-39 25-71 60-83v-138c-82 6-164 39-231 106-51 51-82 110-97 171h99c11-34 43-60 79-60 48 0 87 39 87 87s-39 87-87 87c-36 0-68-26-79-60h-108c-8 97 24 194 86 269 3-2 7-3 11-3h133c12 0 24-8 24-20zm-473 630c-15 0-27-12-27-26v-189c0-7 2-15 8-20 6-6 13-8 20-8h189c14 0 26 12 26 27 0 14-12 26-26 26h-123c196 168 467 230 722 161 206-54 379-187 485-372 107-185 135-399 79-604-1-2-1-4-1-7 0 0-1-2-1-3-1-4-3-10-3-17 0-14 12-26 27-26s27 11 27 26c0 1 0 3 1 4 0 3 2 7 2 12 59 218 29 446-84 642-114 197-298 338-518 397-74 19-150 29-225 29s-151-10-224-30c-121-34-233-94-328-177v129c0 14-12 26-26 26zm1163-1355h-188c-14 0-26-12-26-27 0-14 12-26 26-26h122c-195-168-466-231-721-165-425 115-679 553-568 977 4 8 9 18 9 33s-12 27-27 27-27-12-27-27c0-3-1-5-4-11 0-2-1-3-2-5-58-220-27-449 86-646 114-198 299-339 519-399 275-72 567-3 777 181v-129c0-14 12-26 26-26 15 0 27 12 27 26v190c0 14-11 26-25 27-1 0-2 0-4 0z" fill="#fff"/></g></svg>