<svg clip-rule="evenodd" fill-rule="evenodd" height="2.667in" image-rendering="optimizeQuality" shape-rendering="geometricPrecision" text-rendering="geometricPrecision" viewBox="0 0 2667 2667" width="2.667in" xmlns="http://www.w3.org/2000/svg"><g id="Layer_x0020_1"><circle cx="1333" cy="1333" fill="#ff700d" r="1333"/><path d="m1200 1977v-245c0-1 0-2 0-4 0-1 0-2 0-3v-1089c-1-6 1-12 4-17 1-2 2-3 3-4l106-126c5-6 13-9 21-9s15 4 20 10l103 126c4 5 6 11 6 17v134c1 2 1 4 0 6v267c1 2 1 4 0 6v268c1 2 1 4 0 6v267c1 2 1 4 0 6v273 1 110h197c47 0 87 41 87 90v30c0 50-38 90-87 90h-653c-50 0-90-41-90-90v-30c0-48 42-90 90-90zm667-447h-377v-296l391 247c10 6 15 18 11 30-3 11-13 19-25 19zm-694 0h-373c-12 0-22-8-26-19-3-12 2-24 12-30l387-245zm694-413h-377v-297l391 247c10 7 15 19 11 30-3 12-13 20-25 20zm-694 0h-373c-12 0-22-8-26-20-3-11 2-23 12-30l387-245zm215-347-135-87v174zm-122-143 144 94v-78l-77-95zm122 416-135-87v175zm22-224-134 88 134 87zm-22 498-135-88v175zm22-224-134 87 134 87zm-157 861 135-87-135-88zm157-38-93 61h93zm-157-238 137-87-137-88zm157-36-137 87 137 89zm0-276-134 87 134 88z" fill="#fff"/></g></svg>