<svg clip-rule="evenodd" fill-rule="evenodd" height="2.667in" image-rendering="optimizeQuality" shape-rendering="geometricPrecision" text-rendering="geometricPrecision" viewBox="0 0 2667 2667" width="2.667in" xmlns="http://www.w3.org/2000/svg"><g id="Layer_x0020_1"><circle cx="1333" cy="1333" fill="#1d81ce" r="1333"/><path d="m588 910h640c8 0 14 6 14 14s-6 14-14 14h-640c-7 0-14-6-14-14s7-14 14-14zm1018 731v-294h-224c-20 0-35 15-35 35v770c0 20 15 35 35 35h752c19 0 35-17 35-35v-770c0-18-16-35-35-35h-227v294c0 6-4 11-9 13-6 2-11 1-15-4l-130-138-122 138c-3 3-7 5-11 5-2 0-3 0-5-1-5-2-9-7-9-13zm-168 136h640c8 0 14 7 14 14 0 8-6 14-14 14h-640c-7 0-14-6-14-14 0-7 7-14 14-14zm0 130h640c8 0 14 6 14 14s-6 14-14 14h-640c-7 0-14-6-14-14s7-14 14-14zm0 129h640c8 0 14 7 14 14 0 8-6 14-14 14h-640c-7 0-14-6-14-14 0-7 7-14 14-14zm196-689v257l109-123c2-3 6-4 10-4 4 0 8 1 10 4l116 125v-259zm-601 258v-258h-245v258l112-123c3-3 6-5 10-5s8 1 10 4zm28-258v294c0 6-3 11-9 13-2 1-3 1-5 1-4 0-8-2-11-4l-126-139-126 139c-4 4-10 5-15 3-6-2-9-7-9-13v-294h-228c-20 0-35 15-35 35v770c0 20 15 35 35 35h752c21 0 36-15 35-35v-770c0-20-14-35-35-35zm-473 430h640c8 0 14 7 14 14 0 8-6 14-14 14h-640c-7 0-14-6-14-14 0-7 7-14 14-14zm0 130h640c8 0 14 6 14 14s-6 14-14 14h-640c-7 0-14-6-14-14s7-14 14-14zm640 129c8 0 14 7 14 14 0 8-6 14-14 14h-640c-7 0-14-6-14-14 0-7 7-14 14-14zm-318-1427c4 0 8 2 10 5l113 123v-257h-245v258l112-124c3-3 6-5 10-5zm-322 431h640c8 0 14 6 14 14 0 7-6 14-14 14h-640c-7 0-14-7-14-14 0-8 7-14 14-14zm0 129h640c8 0 14 6 14 14s-6 14-14 14h-640c-7 0-14-6-14-14s7-14 14-14zm-56 150h752c21 0 35-14 35-35v-769c0-20-14-35-35-35h-223v294c0 5-3 11-9 13-2 0-3 1-5 1-4 0-8-2-11-5l-126-139-126 139c-4 4-10 6-15 4-6-2-9-7-9-13v-294h-228c-20 0-35 15-35 35v769c0 21 15 35 35 35z" fill="#fff"/></g></svg>