<svg clip-rule="evenodd" fill-rule="evenodd" height="2.667in" image-rendering="optimizeQuality" shape-rendering="geometricPrecision" text-rendering="geometricPrecision" viewBox="0 0 2667 2667" width="2.667in" xmlns="http://www.w3.org/2000/svg"><g id="Layer_x0020_1"><circle cx="1333" cy="1333" fill="#7ed63f" r="1333"/><path d="m1452 1620c-314 0-570-256-570-570s256-570 570-570c152 0 294 59 401 167 106 108 165 251 165 403s-59 295-165 403c-107 107-249 167-401 167zm-810-37v387l15-1c126-7 299 8 403 89 56 43 119 77 184 102 23 8 79 27 104 27l755-25c22 0 45-9 57-29 0 0 0-1 1-1 22-23 26-54 13-83-14-30-42-48-75-47-58 3-115 7-172 12-120 9-242 18-363 12h-1-2c-2 1-4 0-6 0h-1l-2-1c-185-11-346-63-485-190-6-5-6-14-1-20 5-5 14-6 19 0 133 121 287 171 463 183h7l4-5c11-12 17-26 15-42-8-60-117-128-162-155-83-50-171-92-259-132-16-7-32-14-47-22-9-4-18-8-26-13-1-1-1-1-2-2-61-40-131-70-205-76-52-4-180 24-231 32zm-28-16v-79c0-15-13-28-28-28h-73c-16 0-27 11-27 28v580c0 17 11 28 27 28h73c15 0 28-13 28-28v-80-6-406zm838-229c3 0 7-1 9-3 110-98 304-265 304-421 0-86-80-153-164-153-61 0-105 22-139 72l-11 17-12-17c-35-49-75-72-137-72-85 0-163 65-163 153 0 156 193 323 303 421 3 2 6 3 10 3zm-150-549c72 0 104 38 138 97 2 5 7 8 12 8 5-1 10-3 12-8 31-63 65-97 137-97 69 0 136 53 136 125 0 124-141 259-226 337-16 16-33 31-50 46l-9 9-10-9c-16-15-33-30-50-46-84-78-225-213-225-337 0-72 65-125 135-125z" fill="#fff"/></g></svg>