<svg clip-rule="evenodd" fill-rule="evenodd" height="2.667in" image-rendering="optimizeQuality" shape-rendering="geometricPrecision" text-rendering="geometricPrecision" viewBox="0 0 2667 2667" width="2.667in" xmlns="http://www.w3.org/2000/svg"><g id="Layer_x0020_1"><circle cx="1333" cy="1333" fill="#378b4e" r="1333"/><path d="m1763 1220h-863c-52 0-93-42-93-96 0-52 42-94 93-94h863c54 0 96 41 96 94 0 54-41 96-96 96zm-117 936h-143c-30 0-53-24-53-53v-89c-22-9-43-21-62-36l-74 44c-1 1-1 1-2 1-12 6-26 8-39 5-15-4-26-13-33-25l-73-123c-14-22-7-54 17-72 1 0 2-1 3-2l76-40c-2-12-3-24-3-36 0-14 1-27 3-39l-76-41c-1 0-2-1-3-2-23-17-30-45-18-70 0-1 1-1 1-2l73-122c7-13 18-22 33-25 13-4 27-2 39 4 1 1 1 1 2 1l74 44c19-15 40-27 62-36v-89c0-28 25-53 53-53h143c28 0 54 25 54 53v89c22 9 43 21 62 35l74-43c0-1 1-1 1-1 13-6 27-8 40-5 14 4 26 13 32 25l73 123c1 0 1 1 1 1 13 25 6 53-18 70-1 1-2 2-3 3l-76 41c2 12 3 24 3 39 0 12-1 24-3 35l76 41c1 0 2 1 3 2 24 18 31 49 17 72l-73 122c-6 13-18 22-32 26-13 3-27 1-40-5 0 0-1-1-1-1l-74-44c-19 15-40 27-62 36v89c0 29-24 53-54 53zm-73-276c-82 0-150-68-150-151 0-84 68-153 150-153 42 0 80 16 109 45 28 29 45 67 45 108 0 83-69 151-154 151zm-693 306c-5 0-10-2-14-5-8-5-12-13-12-22v-86h-47v86c0 9-4 17-12 22-7 5-17 6-25 3-57-25-93-79-93-141 0-47 25-94 64-122v-387c-39-27-64-74-64-121 0-62 36-116 93-141 8-4 18-3 25 2 8 5 12 14 12 23v90h47v-90c0-9 4-18 12-23 7-5 17-5 25-2 57 25 93 79 93 141 0 48-23 92-60 118v394c37 26 60 70 60 118 0 62-36 116-93 141-4 1-7 2-11 2zm363-1182-33-447c-2-19 4-37 16-51 14-16 35-25 57-25h97c42 0 76 33 76 73v2l-35 448zm204 0 32-395c18 7 37 15 54 24v251c0 7 6 13 13 13 8 0 14-6 14-13v-236c22 13 43 29 63 46v140c0 7 6 13 13 13 8 0 14-6 14-13v-115c73 75 120 176 126 285-5 0-9 0-13 0zm-556 0c6-109 53-210 126-285v115c0 7 6 13 13 13 8 0 14-6 14-13v-141c18-16 38-31 60-44v235c0 7 6 13 13 13s13-6 13-13v-250c18-10 37-18 57-25l29 395h-316c-3 0-6 0-9 0z" fill="#fff"/></g></svg>