<svg clip-rule="evenodd" fill-rule="evenodd" height="2.667in" image-rendering="optimizeQuality" shape-rendering="geometricPrecision" text-rendering="geometricPrecision" viewBox="0 0 2667 2667" width="2.667in" xmlns="http://www.w3.org/2000/svg"><g id="Layer_x0020_1"><circle cx="1333" cy="1333" fill="#ff700d" r="1333"/><path d="m2160 2177h-243v-384c0-7-6-13-14-13-7 0-13 6-13 13v384h-810v-384c0-7-6-13-13-13-8 0-14 6-14 13v384h-243c-15 0-27-12-27-27v-313c0-92 43-178 121-243 77-63 178-97 286-97h110l8-29c44 25 95 39 149 39h56c53 0 104-14 149-39l8 29h107c226 0 410 152 410 340v313c0 15-12 27-27 27zm-1293-667h-204c-14 0-26-12-26-27 0-14 12-26 26-26h204c14 0 26 12 26 26 0 15-12 27-26 27zm20-90h-244c-14 0-26-12-26-27 0-14 12-26 26-26h244c14 0 26 12 26 26 0 15-12 27-26 27zm26-93h-296c-15 0-27-12-27-27s12-27 27-27h296c15 0 27 12 27 27s-12 27-27 27zm-16-94h-267c-15 0-27-12-27-26v-50c-2-34-5-63-10-87h342c-7 35-12 79-12 137 0 14-12 26-26 26zm-311-190c-14-50-34-79-52-106-28-40-54-78-54-160 0-77 30-148 84-203 53-54 124-84 199-84 158 0 287 129 287 287 0 82-28 122-55 161-19 27-39 56-53 105zm587-174c1-156 128-282 284-282h56c75 0 146 29 200 83s84 125 84 200v110h26c45 0 80 35 80 80v53c0 45-35 80-80 80h-26v4c0 75-30 145-84 199s-125 84-200 84h-56c-157 0-284-127-284-283v-4h-26c-45 0-80-35-80-80v-53c0-45 35-80 80-80h26v-110zm-26 164c-16 0-27 12-27 27v53c0 16 11 27 27 27h26v-107zm650 107h26c16 0 27-11 27-27v-53c0-15-11-27-27-27h-26zm-570-243v300c0 126 103 230 230 230h56c125 0 230-106 230-230v-30-160-110z" fill="#fff"/></g></svg>