<svg clip-rule="evenodd" fill-rule="evenodd" height="512" image-rendering="optimizeQuality" shape-rendering="geometricPrecision" text-rendering="geometricPrecision" viewBox="0 0 2667 2667" width="512" xmlns="http://www.w3.org/2000/svg"><g id="Layer_x0020_1"><circle cx="1333" cy="1333" fill="#00ab94" r="1333"/><path d="m1794 1355c-13 0-24-10-24-23v-86c0-31 47-31 47 0v86c0 13-11 23-23 23zm38 531h-1223c-71 0-129-58-129-130v-528c0-71 58-129 129-129h109l1169-313c69-19 140 22 158 91l137 510c19 69-22 140-91 158l-130 35v176c0 72-58 130-129 130zm-1223-741c-45 0-82 37-82 83v241h139c-33-31-54-75-54-124 0-54 44-98 97-98 96 0 178-12 247 69v-171zm-82 371v240c0 46 37 83 82 83h347v-289c-71 64-171 112-285 73-29-10-14-54 15-44 107 37 194-21 240-63zm475 323h830c45 0 82-37 82-83v-240h-882c46 42 133 100 240 63 29-10 44 34 15 44-113 39-214-9-285-73zm912-370v-241c0-46-38-83-82-83h-830v171c70-81 151-69 247-69 54 0 97 44 97 98 0 49-21 93-54 124zm-1016-370h934c68 0 129 56 129 129v304l118-32c44-11 70-57 58-101l-137-510c-11-44-57-70-101-58zm104 370h173c127 0 165-175 74-175h-98c-82 0-149 67-149 149zm-293-175c-91 0-53 175 74 175h173v-26c0-82-67-149-149-149zm757 468c-12 0-23-11-23-24v-86c0-30 47-30 47 0v86c0 13-11 24-24 24zm164 0c-13 0-23-11-23-24v-86c0-30 46-30 46 0v86c0 13-10 24-23 24zm164 0c-13 0-24-11-24-24v-86c0-30 47-30 47 0v86c0 13-11 24-23 24zm-328-407c-12 0-23-10-23-23v-86c0-31 47-31 47 0v86c0 13-11 23-24 23zm164 0c-13 0-23-10-23-23v-86c0-31 46-31 46 0v86c0 13-10 23-23 23z" fill="#fcfcfc"/></g></svg>