<svg clip-rule="evenodd" fill-rule="evenodd" height="512" image-rendering="optimizeQuality" shape-rendering="geometricPrecision" text-rendering="geometricPrecision" viewBox="0 0 2667 2667" width="512" xmlns="http://www.w3.org/2000/svg"><g id="Layer_x0020_1"><circle cx="1333" cy="1333" fill="#7ed63f" r="1333"/><path d="m1246 1537c-18-28-32-64-44-105h-119c42 50 99 87 163 105zm-506-669c0-89 71-162 160-164l695-215c107-33 203 27 203 154v65c74 16 129 82 129 160v1154c-2 90-70 165-164 165h-859c-91 0-164-74-164-165zm164-117c-65 0-118 52-118 117v823h1094v-823c0-65-54-117-117-117zm-118 987v284c0 65 53 118 118 118h859c65 0 117-53 117-118v-284zm273-1034h693v-61c0-96-66-133-143-109zm628 1164h-708c-30 0-30-46 0-46h708c30 0 30 46 0 46zm0 188h-708c-30 0-30-46 0-46h708c30 0 30 46 0 46zm-728-835c0-204 166-374 374-374s376 171 375 375c-2 203-165 373-375 373-208 0-374-169-374-374zm91 164h142c-9-45-14-93-15-141h-170c3 51 18 99 43 141zm-43-187h170c1-48 6-97 15-141h-142c-25 42-40 90-43 141zm76-188h119c12-41 26-77 44-105-64 18-121 55-163 105zm337-105c18 28 33 64 44 105h120c-42-50-99-87-164-105zm197 152h-142c9 44 14 93 15 141h170c-3-51-19-99-43-141zm43 187h-170c-1 48-6 96-15 141h142c24-42 40-90 43-141zm-76 188h-120c-11 41-26 77-44 105 65-18 122-55 164-105zm-157-375h-188c-9 41-14 89-16 141h220c-1-52-7-100-16-141zm-176-47h165c-47-155-119-155-165 0zm192 234h-220c2 52 7 100 16 141h188c9-41 15-89 16-141zm-27 188h-165c46 154 118 154 165 0z" fill="#fcfcfc"/></g></svg>