<svg clip-rule="evenodd" fill-rule="evenodd" height="512" image-rendering="optimizeQuality" shape-rendering="geometricPrecision" text-rendering="geometricPrecision" viewBox="0 0 2667 2667" width="512" xmlns="http://www.w3.org/2000/svg"><g id="Layer_x0020_1"><circle cx="1333" cy="1333" fill="#378b4e" r="1333"/><path d="m1230 1888c-191-20-358-135-443-306-410-124-410-374 0-497 191-382 724-419 964-61 54 81 88 181 93 284 1 31-6 138-11 138-6 27-13 54-23 80 72-25 132-55 174-89-32-19-71-33-65-79 3-23 19-42 42-48 22-6 120-34 136-34 26 0 49 18 55 43l33 120c13 50-41 90-85 65l-74-43c-53 49-137 90-241 122-101 202-319 329-555 305zm-467-363c-46-123-46-260 0-384-315 108-313 276 0 384zm524 123c-23 0-45-1-67-1-9 9-20 19-32 34-33 39-28 91 14 156 210 36 414-63 521-237-127 31-277 48-436 48zm-129-4c-35-2-68-5-101-9-12 29-33 76-65 116 45 31 95 56 149 72-34-72-27-129 17-179zm-149-15c-56-7-109-18-159-30 29 47 64 88 105 123 25-32 44-71 54-93zm-188-85c60 17 128 31 204 41 20-89-123-78-151-148-37-91 157-210-80-241-32 116-22 239 27 348zm250 46c42 5 86 8 132 10l39-29c6-14-72-166-29-229 47-68 170-6 237-6 113 0 132-135 235-115 23 5 59 20 108 46-9-72-34-140-70-199-78 33-177-8-240 29-117 68-161 46-227-77-46-86-15-51-124-54-32-1-72-16-99-76-102 58-181 150-224 261 98 14 151 53 151 110 0 107-100 149-1 188 78 30 126 71 112 141zm206 11c176 1 341-20 475-58 31-67 47-143 45-220-76-43-109-53-121-56-66-13-95 115-226 115-64 0-175-47-198-13-11 15-6 56 16 122 21 64 28 88 9 110zm846-138c9 5 19-2 16-12l-32-120c-1-6-7-10-13-8l-121 32c-9 3-11 15-2 20 51 30 102 59 152 88zm-905-548c37 0 49 26 82 89 53 100 75 102 160 52 75-44 171-7 236-28-146-195-405-259-621-160 20 50 48 51 58 52 46 1 61-5 85-5z" fill="#fcfcfc"/></g></svg>