<svg clip-rule="evenodd" fill-rule="evenodd" height="512" image-rendering="optimizeQuality" shape-rendering="geometricPrecision" text-rendering="geometricPrecision" viewBox="0 0 2667 2667" width="512" xmlns="http://www.w3.org/2000/svg"><g id="Layer_x0020_1"><circle cx="1333" cy="1333" fill="#00ab94" r="1333"/><path d="m993 1591c-7-9-10-20-8-31l27-137-94 4c-90 0-165-70-169-160l-5-104c-1-21 16-40 37-41 47-2 67-5 90 47l31 67 79-4-27-126c-5-22 13-43 35-44 48-2 57-4 84 42l69 120 136-7c141-7 197 148 171 178-4 4-10 7-16 7l-241 12-71 141c-9 20-22 47-57 49-24 1-52 7-71-13zm-408 153c-58 0-105-47-105-105v-611c0-58 47-105 105-105h1497c57 0 105 47 105 105v611c0 58-47 105-105 105zm0-774c-32 0-58 26-58 58v611c0 32 26 58 58 58h1087v-727zm1555 669v-611c0-33-27-58-58-58h-363v727h363c32 0 58-26 58-58zm-103-527h-215c-31 0-31-47 0-47h215c31 0 31 47 0 47zm0 163h-215c-31 0-31-47 0-47h215c31 0 31 47 0 47zm0 163h-215c-31 0-31-46 0-46h215c31 0 31 46 0 46zm0 164h-215c-31 0-31-47 0-47h215c31 0 31 47 0 47zm-480 20c-13 0-23-10-23-23v-531c0-31 47-31 47 0v531c0 13-11 23-24 23zm-916 0c-12 0-23-10-23-23v-531c0-31 47-31 47 0v531c0 13-11 23-24 23zm380-246c5-29 6-68 36-62 12 2 20 15 18 27l-42 218c42-2 31 4 51-35l104-205c14-28 55-7 42 21l-14 26 189-9c-14-56-65-96-125-93l-392 19c-9 1-18-5-22-13-52-113-38-103-75-101l5 96c3 67 60 119 128 116zm-19-268 27 122 61-3c-6-11-67-119-71-119z" fill="#fcfcfc"/></g></svg>