<svg clip-rule="evenodd" fill-rule="evenodd" height="512" image-rendering="optimizeQuality" shape-rendering="geometricPrecision" text-rendering="geometricPrecision" viewBox="0 0 2667 2667" width="512" xmlns="http://www.w3.org/2000/svg"><g id="Layer_x0020_1"><circle cx="1333" cy="1333" fill="#1d81ce" r="1333"/><path d="m874 1793h-62c-24 0-43-19-43-42v-41h-141v41c0 23-20 42-43 42h-62c-24 0-43-19-43-42v-344c0-39 31-70 70-70h23c-60-97 19-200 52-200h50v-13h-112c-15 0-26-15-22-30l51-189c2-10 12-17 22-17h169c10 0 19 7 22 17 7 24 52 185 52 196 0 13-11 22-24 23h-111v13c14 0 52-4 63 5 62 44 78 131 39 195h23c38 0 70 31 70 70v344c0 23-19 42-43 42zm1258-103h-54v56c0 26-21 47-47 47h-64c-26 0-47-21-47-47v-56h-717v56c0 26-21 47-47 47h-64c-26 0-47-21-47-47v-56h-54c-30 0-55-24-55-54v-201c0-68 53-114 122-114v-301c0-13 10-24 23-24 55 0 100-44 100-99 0-13 10-23 23-23h715c13 0 23 10 23 23 0 55 45 99 100 99 13 0 23 11 23 24v301c69 0 122 46 122 114v201c0 30-25 54-55 54zm-1149-255v201c0 4 4 8 8 8h1141c4 0 8-4 8-8v-201c0-37-30-67-68-67h-1015c-40 0-74 24-74 67zm109 255v56h64v-56zm875 0v56h64v-56zm-808-369c0-30 0-56 26-77v-132c0-29 47-26 91-100 4-7 12-12 20-12h531c28 0 26 48 100 92 7 4 11 11 11 20v132c26 20 26 47 26 77h54v-280c-61-10-110-59-120-121h-673c-10 62-59 111-121 121l1 280zm61-45c-18 8-14 29-14 45h254c0-18 5-46-23-46-27 0-206-3-217 1zm667-1h-201c-26 0-23 28-23 46h254c0-6 1-14 0-20-1-20-11-26-30-26zm-380 46h109c0-14-1-27 3-41 7-30 35-52 67-52h206v-104c-31-20-57-46-78-77h-505c-21 31-47 57-78 77v104h206c38 0 70 31 70 70zm504 208h-899c-30 0-30-47 0-47h899c30 0 30 47 0 47zm-1141 134v-256c0-13-10-23-23-23h-297c-13 0-23 10-23 23v256zm-343 83h54v-36h-54zm67-669h209l-38-143h-133zm39 260h131c22-19 35-47 35-77 0-29-13-57-35-76h-131c-22 19-35 47-35 76 0 30 13 58 35 77zm183 409h54v-36h-54z" fill="#fcfcfc"/></g></svg>