<svg clip-rule="evenodd" fill-rule="evenodd" height="512" image-rendering="optimizeQuality" shape-rendering="geometricPrecision" text-rendering="geometricPrecision" viewBox="0 0 2667 2667" width="512" xmlns="http://www.w3.org/2000/svg"><g id="Layer_x0020_1"><circle cx="1333" cy="1333" fill="#378b4e" r="1333"/><path d="m725 1280c-9 0-17-4-21-13l-49-103h-32v93c0 30-46 30-46 0v-237c0-13 10-23 23-23h70c91 0 114 125 33 160l43 90c7 15-4 33-21 33zm1378 182h-828l25 90c18 70-58 128-120 92l-24-14-102 176c-40 70-144 55-164-21-7-24-3-48 9-68l101-177c-33-19-62-35-65-78h-372c-46 0-83-38-83-84v-479c0-46 37-84 83-84h1540c46 0 84 38 84 84v479c0 46-38 84-84 84zm-892-59c-5-18-24-29-42-24-24 6-158 39-171 47-21 13-21 47 2 60 27 16 68 31 52 58l-113 196c-28 48 46 93 75 43l113-196c25-43 74 45 115 14 12-9 16-23 13-37zm52 12h840c21 0 37-17 37-37v-479c0-20-16-37-37-37h-1540c-20 0-36 17-36 37v479c0 20 16 37 36 37h383c11-19 29-33 50-38 31-9 158-46 182-46 37 0 69 25 79 61zm-203-135c-76 0-108-106-59-106 13 0 23 11 23 24 0 47 72 47 72 0 0-20-16-36-36-36-45 0-83-37-83-83 0-45 38-82 83-82 77 0 109 106 59 106-12 0-23-11-23-24 0-47-72-47-72 0 0 20 16 36 36 36 46 0 83 37 83 83 0 45-37 82-83 82zm675 0c-8 0-16-4-20-11l-138-237c-15-26 25-50 40-24l118 203 118-203c15-26 55-2 40 24l-138 237c-4 7-12 11-20 11zm191-23v-237c0-13 11-23 23-23h118c30 0 30 46 0 46h-94v72h94c30 0 30 47 0 47h-94v72h94c30 0 30 46 0 46h-118c-12 0-23-10-23-23zm-536 23c-13 0-23-10-23-23v-237c0-13 10-23 23-23h70c91 0 114 125 33 160l43 90c13 27-29 48-42 20l-49-103h-32v93c0 13-10 23-23 23zm23-162c30 0 84 8 84-37 0-21-17-38-37-38h-47zm-240 138v-236c0-13 11-23 23-23h117c31 0 30 46 0 46h-94v72h94c30 0 30 47 0 47h-94v72h94c30 0 31 46 0 46-19 0-110 3-123 0-10-3-17-13-17-24zm-390 1v-237c0-13 11-23 24-23h117c30 0 30 46 0 46h-94v72h94c30 0 30 47 0 47h-94v72h94c30 0 30 46 0 46h-117c-13 0-24-10-24-23zm-114-139c50-2 49-75 1-75h-47v75z" fill="#fcfcfc"/></g></svg>