<svg clip-rule="evenodd" fill-rule="evenodd" height="512" image-rendering="optimizeQuality" shape-rendering="geometricPrecision" text-rendering="geometricPrecision" viewBox="0 0 2667 2667" width="512" xmlns="http://www.w3.org/2000/svg"><g id="Layer_x0020_1"><circle cx="1333" cy="1333" fill="#1d81ce" r="1333"/><path d="m1243 1315c-21 0-32-25-17-40l216-216c22-21 55 12 33 33l-216 216c-5 5-11 7-16 7zm-310 486c-65-8-115-64-115-131v-462h-79c-77 0-141-57-152-131h-42c-36 0-65-29-65-65v-193c0-36 29-65 65-65h120c35 0 64 29 64 65v193c0 36-29 65-64 65h-31c11 48 54 84 105 84h79v-393c0-72 59-131 133-131h765c73 0 133 59 133 131v393h78c51 0 95-36 105-84h-30c-36 0-65-29-65-65v-193c0-36 29-65 65-65h120c36 0 65 29 65 65v193c0 36-29 65-65 65h-42c-12 74-76 131-153 131h-78v462c0 67-51 123-116 131v104c0 29-10 56-27 78h308c31 0 31 46 0 46h-1361c-31 0-31-46 0-46h308c-17-22-28-49-28-78zm18-1117c-49 0-86 37-86 84v902c0 50 38 86 92 85h195v-30c0-43 34-77 77-77h209c43 0 77 34 77 77v30h202c47 0 85-38 85-85v-902c0-47-38-84-86-84zm231 1118v103c0 29-10 56-27 78h357c-17-22-28-49-28-78v-103zm-202 0v103c0 44 35 78 80 78 42-1 76-36 76-78v-103zm551 0v103c0 44 35 78 80 78 42-1 76-36 76-78v-103zm81-384h-557c-53 0-97-43-97-96v-311c0-53 44-96 97-96h557c53 0 96 43 96 96v311c0 53-43 96-96 96zm-557-456c-28 0-50 22-50 49v311c0 27 22 50 50 50h557c27 0 50-23 50-50v-311c0-27-23-49-50-49zm613-88h-670c-22 0-40-18-40-40v-70c0-22 18-40 40-40h670c22 0 40 18 40 40v70c0 22-18 40-40 40zm-663-47h657v-56h-657zm62 809c-57 0-103-46-103-103 0-56 46-102 103-102 56 0 102 46 102 102 0 57-46 103-102 103zm0-159c-74 0-74 112 0 112 73 0 73-112 0-112zm533 159c-57 0-103-46-103-103 0-56 46-102 103-102 56 0 102 46 102 102 0 57-46 103-102 103zm0-159c-74 0-74 112 0 112 73 0 73-112 0-112zm-132 278c0-21 6-60-30-60h-209c-36 0-31 39-31 60zm-923-954c-10 0-18 8-18 18v193c0 10 8 18 18 18h120c9 0 18-8 18-18v-193c0-10-9-18-18-18zm1457 0c-10 0-18 8-18 18v193c0 10 8 18 18 18h120c10 0 18-8 18-18v-193c0-10-8-18-18-18zm-794 347c-20 0-31-25-16-40l83-83c22-22 55 11 33 33l-83 83c-5 5-11 7-17 7z" fill="#fcfcfc"/></g></svg>