<svg clip-rule="evenodd" fill-rule="evenodd" height="512" image-rendering="optimizeQuality" shape-rendering="geometricPrecision" text-rendering="geometricPrecision" viewBox="0 0 2667 2667" width="512" xmlns="http://www.w3.org/2000/svg"><g id="Layer_x0020_1"><circle cx="1333" cy="1333" fill="#378b4e" r="1333"/><path d="m651 1173c-31 0-31-46 0-46h116l-78-170c-40-88-55-74-147-69-9 0-16 8-15 17l13 258c4 91 68 261 175 261h461l16-87c6-30 52-21 46 9l-111 569c-1 8 14 18 26 17 137-7 116 8 173-106l260-514c14-27 55-6 41 21l-45 91h556c-4-30-11-58-22-85h-262c-100 0-181-81-181-181v-28l-661 33c-126 6-235 10-361 10zm1512 297h-605l-190 377c-27 53-48 124-124 127l-92 5c-39 0-78-33-70-73l85-436h-452c-144 0-217-202-222-305l-13-258c-2-34 25-64 60-66 103-5 139-18 192 96l86 189 263-13-77-355c-7-35 23-65 56-67 109-5 117-14 176 87l185 318 360-18c212-10 395 156 406 368 0 13-10 24-24 24zm-70-178c-64-108-184-173-310-167l-64 3v30c0 74 61 134 135 134zm-965-181 240-12-179-309c-39-69-41-56-126-52-7 0-14 6-13 10z" fill="#fcfcfc"/></g></svg>