<svg clip-rule="evenodd" fill-rule="evenodd" height="512" image-rendering="optimizeQuality" shape-rendering="geometricPrecision" text-rendering="geometricPrecision" viewBox="0 0 2667 2667" width="512" xmlns="http://www.w3.org/2000/svg"><g id="Layer_x0020_1"><circle cx="1333" cy="1333" fill="#00ab94" r="1333"/><path d="m1361 947c-77 0-100-109-127-136-50 0-110 25-148-55-75 45-135 113-168 195 211 34 71 183 83 213 9 22 94 33 118 88 20 49-24 131-56 174 31 22 65 39 101 51-37-92 18-148 76-188 2-2 5-4 7-5-5-50-91-202 39-209 55-3 119 39 172 11 51-27 78-94 144-80 18 3 43 14 78 32-7-51-25-99-51-142-55 21-140-6-184 20-37 22-62 31-84 31zm-73 1240c-8 0-15-4-20-11-102-152-226-311-335-476-232-37-412-112-412-221 0-66 67-124 196-169-30-77-48-148-48-211 0-341 278-619 619-619s618 278 618 619c0 150-103 351-229 548 140-26 249-66 300-113-31-9-65-14-70-53-3-22 7-42 26-53l85-49c24-14 58-5 72 20l49 84c23 41-16 90-60 78l-51-14c-56 69-198 123-386 154-109 164-233 323-335 475-4 7-12 11-19 11zm-390-540c-63-99-121-199-163-294-105 37-168 83-168 126 0 62 126 129 331 168zm390-1120c-316 0-572 256-572 572 0 172 153 418 245 559 196 29 454 29 654-1 132-202 244-409 244-558 0-316-256-572-571-572zm-293 1182c97 144 200 279 293 413 92-134 195-268 292-412-182 23-400 23-585-1zm1029-211c97 22 95 45 26-76-2-3-6-4-9-2-115 66-114 52-17 78zm-729-844c229 5 437 187 437 444 0 246-201 446-446 445-228-2-441-182-443-441-2-251 207-452 452-448zm-7 47c-57 0-112 12-161 34 24 51 64 29 106 29 32 0 44 25 70 73 42 79 56 76 118 39 60-35 120-7 181-21-82-106-186-146-314-154zm-385 295c-38 145 9 302 123 402 24-32 61-102 50-127-17-38-99-42-118-89-31-77 121-161-55-186zm321 495c260 43 450-152 461-398-97-53-104-53-143-15-66 66-108 75-199 53-85-21-99-14-66 90 38 117 3 76-63 154-24 29-21 68 10 116z" fill="#fcfcfc"/></g></svg>