<svg clip-rule="evenodd" fill-rule="evenodd" height="512" image-rendering="optimizeQuality" shape-rendering="geometricPrecision" text-rendering="geometricPrecision" viewBox="0 0 2667 2667" width="512" xmlns="http://www.w3.org/2000/svg"><g id="Layer_x0020_1"><circle cx="1333" cy="1333" fill="#f10" r="1333"/><path d="m1066 1161c-24 0-32-32-12-44l17-9c-61-44-49-42-73-27l47 73c18 27 62 59 84 46l137-78c-5-14-17-41 8-49 12-4 25 2 30 14l65 191c30-19 25-9 23-48l-12-212c-2-31 45-33 46-3l1 14 141-82c-36-36-94-42-137-14l-304 196c-9 6-51 32-61 32zm222 382c-245 0-445-199-445-444s200-445 445-445 444 200 444 445-199 444-444 444zm0-842c-220 0-398 178-398 398 0 219 178 397 398 397 219 0 397-178 397-397 0-220-178-398-397-398zm0 1486c-8 0-15-4-20-11-101-150-224-308-335-476-232-37-412-112-412-221 0-66 67-124 196-169-30-77-48-148-48-211 0-341 278-619 619-619s618 278 618 619c0 150-103 351-229 548 140-26 249-66 300-113-30-8-65-13-70-53-3-22 7-42 26-53l85-49c25-14 57-6 72 20l49 84c24 42-15 90-60 78l-51-14c-56 69-198 123-386 154-111 168-233 325-335 475-4 7-12 11-19 11zm-390-540c-63-99-121-199-163-294-105 37-168 83-168 126 0 62 126 129 331 168zm390-1120c-316 0-572 256-572 572 0 172 153 418 245 559 204 30 446 31 654-1 132-202 244-409 244-558 0-316-256-572-571-572zm-293 1182c98 146 200 279 293 413 93-134 194-267 292-412-185 23-396 23-585-1zm1029-211c97 22 95 45 26-76-2-3-6-4-9-2-115 66-114 52-17 78zm-907-248c-80 0-127-95-163-151-11-17-6-41 11-52 63-40 65-26 150 34l59-38-79-86c-14-16-9-42 9-54 37-24 44-30 88-5l109 63 105-67c111-72 229 28 220 65-1 6-5 12-11 15l-185 107 9 156c4 54-10 58-51 85-21 13-51 6-59-18l-47-138-129 75c-12 6-24 9-36 9zm97-232 43-28c-9-6-105-62-107-61l-11 7z" fill="#fcfcfc"/></g></svg>