<svg clip-rule="evenodd" fill-rule="evenodd" height="512" image-rendering="optimizeQuality" shape-rendering="geometricPrecision" text-rendering="geometricPrecision" viewBox="0 0 2667 2667" width="512" xmlns="http://www.w3.org/2000/svg"><g id="Layer_x0020_1"><circle cx="1333" cy="1333" fill="#7ed63f" r="1333"/><path d="m1172 1093h-91c-9 34-21 65-36 89 50-17 95-48 127-89zm850 1090h-1378c-90 0-164-74-164-164v-545c0-60 32-112 80-141-48-28-80-81-80-141v-544c0-91 74-164 164-164h1378c91 0 165 73 165 164v544c0 60-33 113-80 141 47 29 80 81 80 141v545c0 90-74 164-165 164zm-1378-873h1378c65 0 118-53 118-118v-544c0-65-53-118-118-118h-1378c-65 0-117 53-117 118v544c0 65 52 118 117 118zm0 47c-65 0-117 52-117 117v545c0 65 52 117 117 117h1378c65 0 118-53 118-117v-545c0-65-53-117-118-117zm545 678h-480c-39 0-71-32-71-71v-435c0-39 32-71 71-71h480c39 0 71 32 71 71v435c0 39-32 71-71 71zm-505-506v435c0 33 46 25 70 25v-20c0-72 44-134 106-160-93-81-40-240 89-240 128 0 182 159 89 240 62 26 106 88 106 160v20c24 0 69 8 69-25v-435c0-14-11-25-24-25h-476c-15 0-29 8-29 25zm117 460h52c0-19-6-55 23-55s23 36 23 55h99c0-19-5-55 24-55 28 0 23 36 23 55h52v-20c0-70-57-127-127-127h-42c-70 0-127 57-127 127zm148-373c-50 0-90 40-90 89 0 50 40 90 90 90 49 0 89-40 89-90 0-49-40-89-89-89zm1057-112h-609c-30 0-30-46 0-46h609c30 0 30 46 0 46zm0 177h-609c-30 0-30-46 0-46h609c30 0 30 46 0 46zm0 177h-609c-30 0-30-46 0-46h609c30 0 30 46 0 46zm0 177h-609c-30 0-30-46 0-46h609c30 0 30 46 0 46zm4-1318h-631c-30 0-30-47 0-47h631c30 0 30 47 0 47zm0 151h-631c-30 0-30-47 0-47h631c30 0 30 47 0 47zm0 151h-631c-30 0-30-46 0-46h631c30 0 30 46 0 46zm0 151h-631c-30 0-30-46 0-46h631c30 0 30 46 0 46zm-1141 12c-15-24-28-55-37-89h-91c33 41 77 72 128 89zm-235-262c0-175 142-323 323-323 180 0 323 148 323 323s-143 323-323 323c-181 0-323-145-323-323zm77 126h111c-6-33-10-68-11-102h-130c3 36 14 71 30 102zm-30-149h130c1-35 5-70 11-103h-111c-16 32-27 66-30 103zm60-149h91c9-34 22-65 37-90-51 17-95 49-128 90zm304-90c15 25 27 56 36 90h91c-32-41-77-73-127-90zm158 136h-111c6 33 9 68 10 103h130c-3-37-13-71-29-103zm29 150h-130c-1 34-4 69-10 102h111c16-31 26-66 29-102zm-199 149h-152c42 137 109 137 152 0zm-164-47h175c6-31 10-65 12-102h-198c1 37 5 71 11 102zm88-402c-28 0-57 40-76 104h152c-20-64-49-104-76-104zm-88 150c-6 31-10 66-11 103h198c-2-37-6-72-12-103z" fill="#fcfcfc"/></g></svg>