<svg clip-rule="evenodd" fill-rule="evenodd" height="512" image-rendering="optimizeQuality" shape-rendering="geometricPrecision" text-rendering="geometricPrecision" viewBox="0 0 2667 2667" width="512" xmlns="http://www.w3.org/2000/svg"><g id="Layer_x0020_1"><circle cx="1333" cy="1333" fill="#378b4e" r="1333"/><path d="m1333 2001c-169 0-330-64-453-178-23-21 9-55 31-35 238 221 607 221 844 0 23-20 55 14 32 35-124 114-285 178-454 178zm385-359c-126 0-268-117-385-217-116 100-259 217-385 217-170 0-308-138-308-309 0-170 138-308 308-308 126 0 269 117 385 216 117-99 259-216 385-216 170 0 309 138 309 308 0 171-139 309-309 309zm-367-263c113 97 254 216 367 216 145 0 262-117 262-262 0-144-117-262-262-262-114 0-256 122-370 219-10 9-22 6-32-3-113-96-254-216-368-216-144 0-262 118-262 262 0 145 118 262 262 262 115 0 257-121 370-218 11-9 23-6 33 2zm-403 116c-89 0-161-72-161-162 0-89 72-162 161-162 48 0 124 45 246 144 11 10 11 27 0 36-122 100-198 144-246 144zm0-277c-63 0-115 52-115 115 0 64 52 116 115 116 23 0 75-21 194-116-119-94-171-115-194-115zm770 277c-48 0-123-44-245-144-11-9-11-26 0-36 122-99 197-144 245-144 90 0 162 73 162 162 0 90-72 162-162 162zm-193-162c119 95 171 116 193 116 64 0 115-52 115-116 0-63-51-115-115-115-22 0-74 21-193 115zm-192 854c-470 0-853-383-853-854 0-470 383-853 853-853 471 0 854 383 854 853 0 471-383 854-854 854zm0-1660c-444 0-806 362-806 806 0 445 362 807 806 807 445 0 807-362 807-807 0-444-362-806-807-806zm-438 357c-21 0-31-25-15-40 256-237 651-237 907 0 23 21-9 55-32 34-237-221-606-221-844 0-4 4-10 6-16 6z" fill="#fcfcfc"/></g></svg>