<svg clip-rule="evenodd" fill-rule="evenodd" height="512" image-rendering="optimizeQuality" shape-rendering="geometricPrecision" text-rendering="geometricPrecision" viewBox="0 0 2667 2667" width="512" xmlns="http://www.w3.org/2000/svg"><g id="Layer_x0020_1"><circle cx="1333" cy="1333" fill="#00ab94" r="1333"/><path d="m1265 1947c-6 0-12-2-17-7l-46-46-46 46c-21 21-54-11-33-33l46-46-46-46c-21-21 12-54 33-33l46 46 46-46c21-21 54 12 33 33l-46 46 46 46c15 15 4 40-16 40zm808 189h-1303c-161 0-289-131-290-291v-930c0-289 439-289 439 0v67h556c-21-45-33-89-33-129 0-178 144-322 322-322 177 0 321 144 321 322 0 40-12 84-32 129h20c63 0 114 51 114 113v927c0 63-51 114-114 114zm-1546-338c114-79 219-88 346 0v-883c0-228-346-228-346 0zm1237-481c97-127 275-326 275-464 0-152-124-275-275-275-152 0-275 123-275 275 0 131 173 334 275 464zm-1237 539c6 130 113 233 243 233h1303c37 0 67-30 67-67v-927c0-36-30-66-67-66h-43c-32 57-73 115-115 171 196 98 97 315-151 315-249 0-347-217-151-315-42-56-84-114-115-171h-579v444c23-4 45-8 66-11 30-4 36 43 6 47-23 3-47 7-72 11v326c0 17-21 31-38 17-131-106-222-110-354-7zm1247-480c-10 5-22 2-29-7l-103-131c-168 75-71 231 122 231s289-156 121-231c-25 32-102 134-111 138zm-10-355c-93 0-169-75-169-168s76-169 169-169 168 76 168 169-75 168-168 168zm0-290c-67 0-122 55-122 122s55 122 122 122 122-55 122-122-55-122-122-122zm69 955c-34 0-77 8-76-24 0-13 10-23 23-23 32 1 63 1 93 1 30-1 31 46 1 46-14 0-27 0-41 0zm180-4c-29 0-30-45-1-47 32-1 63-3 93-5s33 45 3 47zm-373-2c-30 0-71-7-96-11-30-4-23-50 7-46 27 4 58 7 91 10 29 2 27 47-2 47zm-229-43c-26 0-132-64-89-95 10-7 25-4 32 6 29 41 93 37 79 74-4 9-12 15-22 15zm-191-125c-4 0-54-10-93-11-30-1-29-48 1-47 36 1 69 5 98 12 26 6 21 46-6 46zm-175-202 46-46-46-46c-22-21 11-54 33-33l46 46 46-46c21-21 54 12 33 33l-46 46 46 46c21 22-12 54-33 33l-46-46-46 46c-22 22-55-11-33-33zm754 676c-20 0-31-25-16-40l46-46-46-46c-21-21 12-54 33-33l46 46 46-46c21-21 54 12 33 33l-46 46 46 46c21 22-12 54-33 33l-46-46-46 46c-5 5-11 7-17 7z" fill="#fcfcfc"/></g></svg>