<svg clip-rule="evenodd" fill-rule="evenodd" height="512" image-rendering="optimizeQuality" shape-rendering="geometricPrecision" text-rendering="geometricPrecision" viewBox="0 0 2667 2667" width="512" xmlns="http://www.w3.org/2000/svg"><g id="Layer_x0020_1"><circle cx="1333" cy="1333" fill="#ff700d" r="1333"/><path d="m926 1118c-7-16-7-22 0-39 136-313 583-314 722-3 10 24 9 25-2 50-142 307-584 303-720-8zm362 1069c-8 0-15-4-20-11-102-152-226-311-335-476-232-37-412-112-412-221 0-66 67-124 196-169-30-77-48-148-48-211 0-341 277-619 619-619 341 0 618 278 618 619 0 150-103 351-229 548 140-26 249-66 300-113-31-9-65-14-70-53-3-22 7-42 26-53l85-49c24-14 58-5 72 20l49 84c23 41-16 90-60 78l-51-14c-56 69-198 123-386 154-109 164-233 323-335 475-4 7-12 11-19 11zm-390-540c-63-99-121-199-163-294-105 37-168 83-168 126 0 62 126 129 331 168zm390-1120c-316 0-572 256-572 572 0 62 19 135 52 213l3 7c45 107 114 224 190 339 196 29 454 29 654-1 132-202 244-409 244-558 0-316-256-572-571-572zm-293 1182c97 144 200 279 293 413 92-134 195-268 292-412-182 23-400 23-585-1zm293-141c-259 0-470-210-470-469s211-470 470-470 469 211 469 470-210 469-469 469zm0-892c-234 0-423 189-423 423 0 233 189 423 423 423 233 0 423-190 423-423 0-234-190-423-423-423zm736 822c97 22 95 45 26-76-2-3-6-4-9-2l-85 49c-5 2-4 10 2 11zm-736-246c-85 0-153-69-153-153 0-85 68-153 153-153 84 0 153 68 153 153 0 84-69 153-153 153zm0-260c-59 0-107 48-107 107 0 58 48 106 107 106 58 0 106-48 106-106 0-59-48-107-106-107zm-255 7c49 57 49 143 0 199 136 146 373 146 509 0-49-56-49-142 0-199-136-145-373-145-509 0zm-65 100c10 22 22 42 35 62 27-37 27-88 0-125-13 20-25 41-35 63zm604-63c-27 37-27 88 0 125 14-20 25-41 35-62-10-22-21-43-35-63z" fill="#fcfcfc"/></g></svg>