<svg clip-rule="evenodd" fill-rule="evenodd" height="512" image-rendering="optimizeQuality" shape-rendering="geometricPrecision" text-rendering="geometricPrecision" viewBox="0 0 2667 2667" width="512" xmlns="http://www.w3.org/2000/svg"><g id="Layer_x0020_1"><circle cx="1333" cy="1333" fill="#f44c71" r="1333"/><path d="m1426 1323c-13 0-23-10-23-23v-56c0-30 46-30 46 0v56c0 13-10 23-23 23zm557 280h-41v194c62-25 93-20 155 6 23 9 46 19 66 19 30 0 30 46 0 46-53 0-104-41-151-41-45 0-95 39-144 41-26-2-34-1-56-9-33-11-70-32-101-32-47 0-98 41-151 41-78 0-110-61-190-33-82 28-96 52-196 11-60-25-74-25-134 0-71 29-98 29-168 0-62-25-77-23-133 0-70 29-99 29-169 0-24-10-46-19-67-19-30 0-30-47 0-47 54 0 105 42 151 42 22 0 47-11 71-21v-198h-41c-55 0-100-45-100-99 0-55 45-100 100-100h69v-339l-70 41c-37 21-89 8-108-31-20-39-8-85 29-106l689-398c25-14 56-14 80 0l689 398c68 39 42 147-38 147-15 0-29-3-41-10l-69-41v339h69c55 0 99 45 99 100 0 54-44 99-99 99zm-227 0h-330v178c44 6 92 41 134 41 63 0 105-63 196-34zm-515 0h-331v208c45 17 67 10 113-8 70-29 98-29 168 0 17 7 34 14 50 17zm-557-152c-70 0-70 105 0 105h1299c69 0 69-105 0-105zm116-412v365h247v-265c-88-17-77-150 14-150h544c91 0 103 133 15 150v265h247v-365l-534-309zm545-356 662 382c38 22 68-35 32-56l-689-398c-10-6-23-6-34 0l-688 398c-36 21-6 78 32 56l662-382c7-4 16-4 23 0zm-275 410h535c38 0 38-57 0-57h-544c-37 0-37 57 0 57zm24 311h216v-264h-216zm263 0h216v-264h-216zm-586 381c32-8 62-4 93 7v-189h-93zm516 32c31-9 61-26 92-33v-181h-92zm608-2v-212h-92v203c33 13 57 21 92 9zm268 291c-53 0-104-41-151-41-46 0-97 41-151 41-53 0-104-41-150-41-47 0-98 41-151 41-54 0-104-41-151-41s-98 41-151 41-104-41-151-41-98 41-151 41-104-41-151-41-97 41-151 41c-53 0-104-41-151-41-30 0-30-47 0-47 54 0 105 42 151 42 47 0 98-42 151-42s104 42 151 42 98-42 151-42 104 42 151 42 97-42 151-42c53 0 104 42 151 42 46 0 97-42 151-42 53 0 104 42 150 42 47 0 98-42 151-42 54 0 104 42 151 42 30 0 30 46 0 46zm-922-783c-13 0-24-10-24-23v-56c0-30 47-30 47 0v56c0 13-10 23-23 23z" fill="#fcfcfc"/></g></svg>