<svg clip-rule="evenodd" fill-rule="evenodd" height="512" image-rendering="optimizeQuality" shape-rendering="geometricPrecision" text-rendering="geometricPrecision" viewBox="0 0 2667 2667" width="512" xmlns="http://www.w3.org/2000/svg"><g id="Layer_x0020_1"><circle cx="1333" cy="1333" fill="#1d81ce" r="1333"/><path d="m2125 2015h-1583c-34 0-62-28-62-62v-298c0-34 28-62 62-62h1583c34 0 61 28 61 62v298c0 34-27 62-61 62zm-28-738v-38l-155-42c-65-17-105-86-88-151l3-8-626-140c-29-8-17-53 12-45l58 16c-28-170-12-146-89-164-1 0-2 0-2 1l-35 161c-12 54-2 162 59 179l275 73c13-25 25-68 53-54 12 6 16 20 11 31l-161 329c5 7 51 14 62 16 21 5 40-23 60-46l244-272c20-23 55 8 34 31l-33 38zm-195-229c-6 23-8 46 5 68 11 18 27 31 47 36l132 36c-33-90-96-122-184-140zm-1108 779h-178c-30 0-30-46 0-46h178c30 0 30 46 0 46zm419 0h-178c-30 0-30-46 0-46h178c30 0 30 46 0 46zm418 0h-177c-30 0-30-46 0-46h177c31 0 31 46 0 46zm419 0h-177c-30 0-30-46 0-46h177c30 0 30 46 0 46zm66-498c-12 0-332-88-372-98-58 65-131 143-186 208-55 66-79 51-149 36-30-6-54-40-39-69l119-244-267-71c-96-26-107-165-93-234l35-160c6-27 32-43 58-38 74 16 95 19 108 98l21 124 148 32 11-221c1-26 29-45 55-39 72 15 81 16 100 88l60 221 219 47c137 29 224 165 195 302-2 11-12 18-23 18zm-571-406 129 28-56-206c-12-45-14-36-62-46zm-553-120c-12 0-217-58-247-66-29-8-17-53 12-45l241 65c26 7 20 46-6 46zm-205 96c-12 0-218-58-248-66-29-8-17-53 13-45l241 65c26 7 20 46-6 46zm130 185c-12 0-218-57-248-65-29-8-17-53 12-45l242 65c26 7 20 45-6 45zm-375 556c-8 0-15 7-15 15v298c0 8 7 15 15 15h1583c8 0 15-7 15-15v-298c0-8-7-15-15-15z" fill="#fcfcfc"/></g></svg>