<svg clip-rule="evenodd" fill-rule="evenodd" height="512" image-rendering="optimizeQuality" shape-rendering="geometricPrecision" text-rendering="geometricPrecision" viewBox="0 0 2667 2667" width="512" xmlns="http://www.w3.org/2000/svg"><g id="Layer_x0020_1"><circle cx="1333" cy="1333" fill="#00ab94" r="1333"/><path d="m1762 1019h-157c-31 0-31-46 0-46h157c31 0 31 46 0 46zm-288 1112h-971c-12 0-23-10-23-23v-1268c0-13 11-24 23-24h667v-261c2-11 12-20 23-20h970c13 0 24 11 24 24v1268c0 13-11 23-24 23h-666v258c0 13-10 23-23 23zm16-1308c4 4 7 10 7 17v964h643v-1222h-891zm-963 1262h923v-1222h-923zm689-1470v201h201zm761 470h-89c-44 0-79-35-79-78v-188c0-43 35-78 79-78h89c43 0 79 35 79 78v188c0 43-36 78-79 78zm-89-298c-18 0-32 15-32 32v188c0 17 14 32 32 32h89c18 0 32-15 32-32v-188c0-17-14-32-32-32zm89 858h-89c-44 0-79-35-79-79v-187c0-43 35-79 79-79h89c43 0 79 36 79 79v187c0 44-36 79-79 79zm-89-298c-18 0-32 14-32 32v187c0 18 14 32 32 32h89c18 0 32-14 32-32v-187c0-18-14-32-32-32zm-601 127h-597c-43 0-78-35-78-79v-344c0-43 35-78 78-78h597c43 0 78 35 78 78v344c0 44-35 79-78 79zm-597-454c-17 0-31 14-31 31v344c0 14 9 26 21 31l173-250c9-12 30-12 39 0l122 176 97-140c8-12 29-12 38 0l148 214c12-5 22-17 22-31v-344c0-17-15-31-32-31zm325 229c-56 0-102-46-102-102s46-102 102-102c57 0 102 46 102 102s-45 102-102 102zm0-158c-73 0-73 111 0 111s73-111 0-111zm-138-7h-141c-31 0-31-47 0-47h141c31 0 31 47 0 47zm-79 91h-87c-31 0-31-46 0-46h87c31 0 31 46 0 46zm457-6h-88c-30 0-30-47 0-47h88c30 0 30 47 0 47zm53 461h-639c-30 0-30-47 0-47h639c31 0 31 47 0 47zm0 172h-639c-30 0-30-46 0-46h639c31 0 31 46 0 46zm0 173h-639c-30 0-30-47 0-47h639c31 0 31 47 0 47zm-572-548h273l-136-197zm330 0h175l-111-161-88 127zm696-14h-157c-31 0-31-47 0-47h157c31 0 31 47 0 47zm0 166h-157c-31 0-31-47 0-47h157c31 0 31 47 0 47zm0-726h-157c-31 0-31-46 0-46h157c31 0 31 46 0 46z" fill="#fcfcfc"/></g></svg>