<svg clip-rule="evenodd" fill-rule="evenodd" height="512" image-rendering="optimizeQuality" shape-rendering="geometricPrecision" text-rendering="geometricPrecision" viewBox="0 0 2667 2667" width="512" xmlns="http://www.w3.org/2000/svg"><g id="Layer_x0020_1"><circle cx="1333" cy="1333" fill="#378b4e" r="1333"/><path d="m779 2011v-286c-2 0-4-1-6-2-317-134-317-584 0-718 19-8 39-8 58 0 58 24 108 62 148 110 39-47 89-85 148-110 19-8 39-8 58 0 59 25 109 63 148 110 40-48 91-86 148-110 19-8 40-8 59 0 57 24 108 62 147 110 40-47 90-85 149-110 19-8 39-8 58 0 316 134 316 585 0 718-2 1-4 2-6 2v286h156c49 0 88 39 88 88 0 48-39 88-88 88h-1421c-49 0-88-40-88-88 0-49 39-88 88-88zm0-336v-281c0-30 46-30 46 0v281c49-23 92-58 125-100-81-128-81-294 0-421-36-47-83-83-137-106-8-3-14-3-22 0-273 116-280 501-12 627zm46 50v286h308v-286c-58-19-117-68-154-112-37 45-97 94-154 112zm308-50v-281c0-30 47-30 47 0v281c268-126 259-513-13-627-7-3-14-3-22 0-272 116-280 501-12 627zm47 50v286h307v-286c-57-19-116-66-154-111-36 43-96 92-153 111zm307-50v-281c0-30 47-30 47 0v281c49-23 92-58 125-100-82-129-82-294 0-421-36-47-83-83-138-106-7-3-14-3-22 0-54 23-101 59-137 106 81 127 81 294 0 421 33 42 76 77 125 100zm47 50v286h307v-286c-58-19-116-67-153-112-38 46-97 93-154 112zm307-50v-281c0-30 47-30 47 0v281c267-126 261-512-12-627-8-3-15-3-22 0-273 115-281 501-13 627zm-968-726c-110 0-207-75-235-181-31-115 28-238 137-286 20-8 40 12 31 31-62 129 32 282 177 282 62 0 86-31 105-11 7 7 9 17 4 26-40 84-127 139-219 139zm824-51h-477c-30 0-30-47 0-47h477c31 0 31 47 0 47zm310-138h-477c-30 0-30-47 0-47h477c30 0 30 47 0 47zm-440-175h-477c-31 0-31-47 0-47h477c30 0 30 47 0 47zm-824-28c-134 118-53 345 130 345 54 0 107-23 144-63-163 23-301-122-274-282zm-120 1500c-54 0-54 83 0 83h1421c54 0 54-82 0-82z" fill="#fcfcfc"/></g></svg>