<svg clip-rule="evenodd" fill-rule="evenodd" height="512" image-rendering="optimizeQuality" shape-rendering="geometricPrecision" text-rendering="geometricPrecision" viewBox="0 0 2667 2667" width="512" xmlns="http://www.w3.org/2000/svg"><g id="Layer_x0020_1"><circle cx="1333" cy="1333" fill="#f44c71" r="1333"/><path d="m1417 1769c-32 0-24-43-24-72 0-30 47-30 47 0 0 29 8 72-23 72zm-568 119v-172c-25 23-54 43-87 58v114zm-110-638c-200 87-213 367-23 472v-159c0-30 46-30 46 0v159c185-103 182-383-23-472zm110 18v-451c-44 0-80-34-80-78v-52c0-43 35-79 79-79h971c43 0 78 36 78 79v52c0 44-35 78-79 78v451c17-17 92-75 118-65 255 100 263 459 15 571v114h151c46 0 85 38 85 85s-39 85-85 85h-1537c-47 0-85-38-85-85s38-85 85-85h151v-114c-249-112-240-471 14-571 27-10 102 48 119 65zm23-497h923c23 0 56 2 56-32 0-31 9-84-32-84h-971c-41 0-32 53-32 84 0 34 32 32 56 32zm1032 951v-159c0-30 47-30 47 0v159c190-105 177-385-23-472-196 84-218 364-24 472zm-86-6v172h86v-114c-32-15-61-35-86-58zm-47 172v-229c-4-13-51-69-48-175 2-98 44-146 48-160v-507h-876v507c32 49 49 107 49 168s-17 118-49 167v229h210v-285c0-52 43-95 95-95h267c52 0 94 43 94 95v285zm-1206 47c-50 0-50 77 0 77h1537c50 0 50-77 0-77zm556-820c-177 0-157 21-157-156 0-24 19-43 43-43 177 0 156-20 156 157 0 23-19 42-42 42zm-110-46h106v-106h-106zm379 46c-176 0-156 21-156-156 0-24 19-43 42-43 177 0 157-20 157 157 0 23-19 42-43 42zm-110-46h106v-106h-106zm380 46c-177 0-157 21-157-156 0-24 19-43 43-43 177 0 157-20 157 157 0 23-20 42-43 42zm-110-46h106v-106h-106zm-429 340c-177 0-157 21-157-156 0-24 19-43 43-43 177 0 156-20 156 157 0 23-19 42-42 42zm-110-46h106v-106h-106zm379 46c-176 0-156 21-156-156 0-24 19-43 42-43 177 0 157-20 157 157 0 23-19 42-43 42zm-110-46h106v-106h-106zm380 46c-177 0-157 21-157-156 0-24 19-43 43-43 177 0 157-20 157 157 0 23-20 42-43 42zm-110-46h106v-106h-106zm-398 525h158v-333h-110c-26 0-48 21-48 48zm205 0h158v-285c0-27-22-48-48-48h-110zm-107-119c-31 0-23-43-23-72 0-30 46-30 46 0 0 29 8 72-23 72z" fill="#fcfcfc"/></g></svg>