<?xml version="1.0" encoding="iso-8859-1"?>
<!-- Generator: Adobe Illustrator 19.0.0, SVG Export Plug-In . SVG Version: 6.00 Build 0)  -->
<svg version="1.1" id="Capa_1" xmlns="http://www.w3.org/2000/svg" xmlns:xlink="http://www.w3.org/1999/xlink" x="0px" y="0px"
	 viewBox="0 0 512 512" style="enable-background:new 0 0 512 512;" xml:space="preserve">
<path style="fill:#0A4EAF;" d="M273.759,15v30c0,8.399-6.599,15-15,15s-15-6.601-15-15V15c0-8.401,6.599-15,15-15
	S273.759,6.599,273.759,15z"/>
<path style="fill:#063E8B;" d="M258.759,60V0c8.401,0,15,6.599,15,15v30C273.759,53.399,267.16,60,258.759,60z"/>
<path style="fill:#0A4EAF;" d="M363.759,437v15c0,32.999-27.001,60-60,60c-17.999,0-34.2-8.101-45-20.7
	c-9.602-10.501-15-24.3-15-39.3V225c0-8.401,6.599-15,15-15s15,6.599,15,15v227c0,16.5,13.499,30,30,30s30-13.5,30-30v-15
	C333.759,417.199,363.759,417.199,363.759,437z"/>
<path style="fill:#FE52A2;" d="M258.759,30C23.061,30-8.318,286.196,1.744,242.358c-7.677,33.448,25.904,33.359,28.037,13.359
	c0.073-0.67,0.264-1.377,0.374-2.078c7.229-6.138,27.62-13.64,57.605-13.64c37.207,0,58.096,11.338,60,15l29.883,1.831
	c0.586-1.479,0.908-3.032,0.996-4.629C184.849,137.227,227.968,60,258.759,60c8.291,0,15-6.709,15-15S267.05,30,258.759,30z"/>
<path style="fill:#FE318F;" d="M258.759,30c-8.291,0-15,6.709-15,15s6.709,15,15,15c30.791,0,67.91,77.227,74.121,192.202
	c0.088,1.582,0.41,3.149,0.996,4.614l29.883-1.216c2.666-4.673,23.667-15.601,60.2-15.601c30.103,0,50.559,7.566,57.708,13.715
	c0.077,0.615,0.19,0.989,0.271,1.681c2.118,19.857,31.936,16.539,29.824-3.237C498.357,132.379,393.43,30,258.759,30z"/>
<path style="fill:#FE91C2;" d="M362.858,250.499c1.501,26.1-27.898,24.3-29.399,5.7c-4.2-5.099-29.7-16.199-74.7-16.199
	c-45.601,0-77.7,11.7-81,16.5c-3.9,18.3-29.399,15.899-29.399-1.5c0-69.6,36.901-225,110.399-225
	C322.059,30,357.16,144.3,362.858,250.499z"/>
<path style="fill:#063E8B;" d="M363.759,437v15c0,32.999-27.001,60-60,60c-17.999,0-34.2-8.101-45-20.7V210c8.401,0,15,6.599,15,15
	v227c0,16.5,13.499,30,30,30s30-13.5,30-30v-15C333.759,417.199,363.759,417.199,363.759,437z"/>
<path style="fill:#FE73B1;" d="M362.858,250.499c1.501,26.1-27.898,24.3-29.399,5.7c-4.2-5.099-29.7-16.199-74.7-16.199V30
	C322.059,30,357.16,144.3,362.858,250.499z"/>
<g>
</g>
<g>
</g>
<g>
</g>
<g>
</g>
<g>
</g>
<g>
</g>
<g>
</g>
<g>
</g>
<g>
</g>
<g>
</g>
<g>
</g>
<g>
</g>
<g>
</g>
<g>
</g>
<g>
</g>
</svg>
