<?xml version="1.0" encoding="iso-8859-1"?>
<!-- Generator: Adobe Illustrator 19.0.0, SVG Export Plug-In . SVG Version: 6.00 Build 0)  -->
<svg version="1.1" id="Capa_1" xmlns="http://www.w3.org/2000/svg" xmlns:xlink="http://www.w3.org/1999/xlink" x="0px" y="0px"
	 viewBox="0 0 512 512" style="enable-background:new 0 0 512 512;" xml:space="preserve">
<path style="fill:#FEDB41;" d="M257,422c-90.967,0-167-76.019-167-167S166.033,90,257,90s165,74.019,165,165S347.967,422,257,422z"
	/>
<path style="fill:#FFCC33;" d="M422,255c0-90.981-74.033-165-165-165v332C347.967,422,422,345.981,422,255z"/>
<path style="fill:#FEA832;" d="M257,392c-74.443,0-137-62.557-137-137s62.557-135,137-135s135,60.557,135,135S331.443,392,257,392z"
	/>
<path style="fill:#FE9923;" d="M392,255c0-74.443-60.557-135-135-135v272C331.443,392,392,329.443,392,255z"/>
<path style="fill:#994C0F;" d="M257,482C132.928,482,30,379.072,30,255S132.928,30,257,30s225,100.928,225,225S381.072,482,257,482z
	 M257,60C149.48,60,60,147.48,60,255s89.48,197,197,197s195-89.48,195-197S364.52,60,257,60z"/>
<path style="fill:#713708;" d="M452,255c0,107.52-87.48,197-195,197v30c124.072,0,225-102.928,225-227S381.072,30,257,30v30
	C364.52,60,452,147.48,452,255z"/>
<path style="fill:#994C0F;" d="M257,120c-8.291,0-15-6.709-15-15V15c0-8.291,6.709-15,15-15c8.291,0,15,6.709,15,15v90
	C272,113.291,265.291,120,257,120z"/>
<path style="fill:#713708;" d="M497,270h-90c-8.291,0-15-6.709-15-15s6.709-15,15-15h90c8.291,0,15,6.709,15,15
	C512,263.291,505.291,270,497,270z"/>
<g>
	<path style="fill:#994C0F;" d="M105,270H15c-8.291,0-15-6.709-15-15s6.709-15,15-15h90c8.291,0,15,6.709,15,15
		C120,263.291,113.291,270,105,270z"/>
	<path style="fill:#994C0F;" d="M257,512c-8.291,0-15-6.709-15-15v-90c0-8.291,6.709-15,15-15c8.291,0,15,6.709,15,15v90
		C272,505.291,265.291,512,257,512z"/>
</g>
<g>
	<path style="fill:#713708;" d="M272,497v-90c0-8.291-6.709-15-15-15v120C265.291,512,272,505.291,272,497z"/>
	<path style="fill:#713708;" d="M272,105V15c0-8.291-6.709-15-15-15v120C265.291,120,272,113.291,272,105z"/>
</g>
<path style="fill:#FEDB41;" d="M257,240c-8.262,0-15-6.724-15-15c0-6.05,3.604-11.47,9.17-13.828
	c6.65-2.827,14.736-0.425,22.061,6.665c5.947,5.771,15.439,5.625,21.211-0.352c5.771-5.947,5.596-15.439-0.352-21.211
	c-6.76-6.526-14.33-10.679-22.09-13.299V165c0-8.291-6.709-15-15-15s-15,6.709-15,15v17.915c-0.839,0.298-1.721,0.28-2.549,0.63
	C222.781,190.62,210,206.88,210,225c0,24.814,22.186,45,47,45c8.262,0,15,6.724,15,15c0,6.284-3.955,11.953-9.873,14.092
	c-7.588,2.856-16.67-0.996-24.609-10.444c-5.303-6.343-16.795-7.178-23.123-1.831c-6.357,5.332-7.178,14.795-1.846,21.138
	c8.093,9.639,19.563,15.969,29.451,19.305V345c0,8.291,6.709,15,15,15c8.291,0,15-6.709,15-15v-17.637
	c0.135-0.048,0.275-0.024,0.41-0.073C290.105,320.845,302,303.838,302,285C302,260.186,281.814,240,257,240z"/>
<g>
	<path style="fill:#FFCC33;" d="M257,240v30c8.262,0,15,6.724,15,15c0,6.284-3.955,11.953-9.873,14.092
		c-1.641,0.617-3.376,0.776-5.127,0.778V360c8.291,0,15-6.709,15-15v-17.637c0.135-0.048,0.275-0.024,0.41-0.073
		C290.105,320.845,302,303.838,302,285C302,260.186,281.814,240,257,240z"/>
	<path style="fill:#FFCC33;" d="M273.23,217.837c5.947,5.771,15.439,5.625,21.211-0.352c5.771-5.947,5.596-15.439-0.352-21.211
		c-6.76-6.526-14.33-10.679-22.09-13.299V165c0-8.291-6.709-15-15-15v60.108C262.259,210.132,267.935,212.714,273.23,217.837z"/>
</g>
<g>
</g>
<g>
</g>
<g>
</g>
<g>
</g>
<g>
</g>
<g>
</g>
<g>
</g>
<g>
</g>
<g>
</g>
<g>
</g>
<g>
</g>
<g>
</g>
<g>
</g>
<g>
</g>
<g>
</g>
</svg>
