<?xml version="1.0" encoding="iso-8859-1"?>
<!-- Generator: Adobe Illustrator 19.0.0, SVG Export Plug-In . SVG Version: 6.00 Build 0)  -->
<svg version="1.1" id="Capa_1" xmlns="http://www.w3.org/2000/svg" xmlns:xlink="http://www.w3.org/1999/xlink" x="0px" y="0px"
	 viewBox="0 0 512 512" style="enable-background:new 0 0 512 512;" xml:space="preserve">
<path style="fill:#713708;" d="M452,194.85c0,8.291-6.709,15-15,15h-5.391c-3.985,0-7.793-1.582-10.605-4.395l-90-90
	c-9.384-9.417-2.743-25.605,10.605-25.605H407c24.814,0,45,20.186,45,45V194.85z"/>
<path style="fill:#994C0F;" d="M150.674,99.107c-2.314-5.596-7.793-9.258-13.857-9.258c-33.914,0-55.491,0-91.816,0
	c-24.851,0-45,20.147-45,45v15c0,32.906,28.043,58.198,48.604,58.198c3.926,0,7.764-1.553,10.605-4.395l88.213-88.198
	C151.699,111.163,152.988,104.718,150.674,99.107z"/>
<path style="fill:#32D736;" d="M442.098,184.35l-127.8-127.8c-5.698-6-15.297-6-20.999,0L272,77.849
	c-8.401,8.401-20.098,12.601-31.802,12.601c-11.697,0-25.401-4.2-33.798-12.601L185.098,56.55c-5.698-6-15.3-6-20.999,0L38.1,182.55
	c-10.202,10.199-5.101,27.3,21.9,27.3h371.602C445.101,209.85,451.7,193.65,442.098,184.35z"/>
<g>
	<path style="fill:#10BB67;" d="M431.602,209.85c13.499,0,20.098-16.199,10.496-25.499l-127.8-127.8c-5.698-6-15.297-6-20.999,0
		L272,77.849c-8.401,8.401-20.098,12.601-31.802,12.601v119.4H431.602z"/>
	<path style="fill:#10BB67;" d="M272.3,13.649C263.599,4.95,252.203,0.15,240.198,0.15c-12.297,0-25.401,4.799-33.798,13.499
		l-53.101,53.4l32.098,31.8c14.399,14.401,35.604,21.901,54.8,21.901c19.204,0,38.401-7.5,52.8-21.901l32.102-31.8L272.3,13.649z"/>
</g>
<path style="fill:#0CA656;" d="M292.999,98.849c-14.399,14.401-33.596,21.901-52.8,21.901V0.15c12.004,0,23.401,4.799,32.102,13.499
	l52.8,53.4L292.999,98.849z"/>
<path style="fill:#BF6015;" d="M405.198,313.35c-8.401,8.099-13.198,21.499-13.198,33.5c0,16.199,8.401,30.601,22.5,39
	c6.599,3.9,14.7,6,22.5,6h60c8.401,0,15,6.599,15,15v60c0,24.901-20.098,45-45,45H45c-24.902,0-45-20.099-45-45V136.049
	c0.601,24.3,20.398,43.801,45,43.801h422c24.902,0,45,20.099,45,45v60c0,8.401-6.599,15-15,15h-60c-7.8,0-15.901,2.1-22.5,6
	c-3.9,2.401-6.599,4.499-8.701,6.899C405.499,313.05,405.499,313.05,405.198,313.35z"/>
<g>
	<path style="fill:#994C0F;" d="M405.198,313.35c-8.401,8.099-13.198,21.499-13.198,33.5c0,16.199,8.401,30.601,22.5,39
		c6.599,3.9,14.7,6,22.5,6h60c8.401,0,15,6.599,15,15v60c0,24.901-20.098,45-45,45H240.198v-332H467c24.902,0,45,20.099,45,45v60
		c0,8.401-6.599,15-15,15h-60c-7.8,0-15.901,2.1-22.5,6c-3.9,2.401-6.599,4.499-8.701,6.899
		C405.499,313.05,405.499,313.05,405.198,313.35z"/>
	<path style="fill:#994C0F;" d="M405.799,312.749c2.102-2.401,4.801-4.499,9.001-6.899c4.497-2.701,7.2-7.5,7.2-12.9v-38.1
		c0-8.401-6.599-15-15-15H75c-8.401,0-15,6.599-15,15v182c0,8.401,6.599,15,15,15h332c8.401,0,15-6.599,15-15v-38.101
		c0-5.4-2.703-10.199-7.5-12.9c-14.099-8.399-22.5-22.8-22.5-39c0-12.001,4.797-25.401,13.198-33.5
		C405.499,313.05,405.499,313.05,405.799,312.749z"/>
</g>
<path style="fill:#713708;" d="M422,254.85v38.101c0,5.4-2.703,10.199-7.2,12.9c-4.2,2.401-6.899,4.499-9.001,6.899
	c-0.3,0.3-0.3,0.3-0.601,0.601C396.797,321.45,392,334.85,392,346.851c0,16.199,8.401,30.601,22.5,39c4.797,2.701,7.5,7.5,7.5,12.9
	v38.101c0,8.401-6.599,15-15,15H240.198v-212H407C415.401,239.85,422,246.449,422,254.85z"/>
<path style="fill:#FFCC33;" d="M512,421.85h-75c-13.242,0-26.25-3.516-37.588-10.151C376.004,398.017,362,373.773,362,346.85
	c0-20.259,7.881-41.097,22.236-55.057c3.604-3.94,8.584-7.837,15.059-11.719c11.455-6.709,24.463-10.225,37.705-10.225h75V421.85z"
	/>
<path style="fill:#994C0F;" d="M436.854,362.143c-8.291,0-15.146-6.855-15.146-15.146s6.855-17.146,15.146-17.146
	S452,338.705,452,346.996S445.145,362.143,436.854,362.143z"/>
<g>
</g>
<g>
</g>
<g>
</g>
<g>
</g>
<g>
</g>
<g>
</g>
<g>
</g>
<g>
</g>
<g>
</g>
<g>
</g>
<g>
</g>
<g>
</g>
<g>
</g>
<g>
</g>
<g>
</g>
</svg>
