<?xml version="1.0" encoding="iso-8859-1"?>
<!-- Generator: Adobe Illustrator 19.0.0, SVG Export Plug-In . SVG Version: 6.00 Build 0)  -->
<svg version="1.1" id="Capa_1" xmlns="http://www.w3.org/2000/svg" xmlns:xlink="http://www.w3.org/1999/xlink" x="0px" y="0px"
	 viewBox="0 0 512 512" style="enable-background:new 0 0 512 512;" xml:space="preserve">
<path style="fill:#FE73B1;" d="M256,0C148.598,0,61,87.599,61,195c0,43.5,14.099,84.6,40.203,118.799L243.999,506
	c2.999,4.2,7.5,6,12.001,6s9.001-1.8,12.001-6L413.5,309.899C438.102,276.299,451,236.7,451,195C451,87.599,363.402,0,256,0z"/>
<path style="fill:#FE52A2;" d="M451,195c0,41.7-12.898,81.299-37.5,114.899L268.001,506c-2.999,4.2-7.5,6-12.001,6V0
	C363.402,0,451,87.599,451,195z"/>
<path style="fill:#FEDB41;" d="M256,60c-73.499,0-135,59.399-135,135c0,75.599,61.201,135,135,135c73.499,0,135-59.401,135-135
	C391,119.399,329.799,60,256,60z"/>
<path style="fill:#FFCC33;" d="M391,195c0,75.599-61.501,135-135,135V60C329.799,60,391,119.399,391,195z"/>
<path style="fill:#FEA832;" d="M301,225c0,18.9-12.001,35.7-29.7,42.299H271V285c0,9.899-7.5,15-15,15s-15-5.101-15-15v-17.701
	c-9.902-3.3-19.501-9.6-27.598-19.2C200.797,232.8,223.898,213.6,236.499,228.6c6.603,7.8,13.802,11.1,19.501,11.4
	c8.701,0.3,15-6.301,15-15c0-8.401-6.599-15-15-15c-24.902,0-45-20.101-45-45c0-18.001,10.203-35.101,30-42.001V105
	c0-9.901,7.5-15,15-15s15,5.099,15,15v17.999c7.8,2.701,15.3,6.601,22.2,13.2c14.099,14.101-6.899,35.4-20.999,21.601
	c-5.702-5.402-11.104-7.8-16.201-7.8c-8.701,0-15,6.299-15,15c0,8.399,6.599,15,15,15C280.902,180,301,200.099,301,225z"/>
<g>
	<path style="fill:#FE9923;" d="M301,225c0,18.9-12.001,35.7-29.7,42.299H271V285c0,9.899-7.5,15-15,15v-60
		c8.701,0.3,15-6.301,15-15c0-8.401-6.599-15-15-15v-30C280.902,180,301,200.099,301,225z"/>
	<path style="fill:#FE9923;" d="M272.201,157.8c-5.702-5.402-11.104-7.8-16.201-7.8V90c7.5,0,15,5.099,15,15v17.999
		c7.8,2.701,15.3,6.601,22.2,13.2C307.299,150.3,286.3,171.599,272.201,157.8z"/>
</g>
<g>
</g>
<g>
</g>
<g>
</g>
<g>
</g>
<g>
</g>
<g>
</g>
<g>
</g>
<g>
</g>
<g>
</g>
<g>
</g>
<g>
</g>
<g>
</g>
<g>
</g>
<g>
</g>
<g>
</g>
</svg>
