<?xml version="1.0" encoding="iso-8859-1"?>
<!-- Generator: Adobe Illustrator 19.0.0, SVG Export Plug-In . SVG Version: 6.00 Build 0)  -->
<svg version="1.1" id="Capa_1" xmlns="http://www.w3.org/2000/svg" xmlns:xlink="http://www.w3.org/1999/xlink" x="0px" y="0px"
	 viewBox="0 0 512 512" style="enable-background:new 0 0 512 512;" xml:space="preserve">
<path style="fill:#0D70B2;" d="M467,0H45C20.098,0,0,20.099,0,45v60c0,24.899,20.098,45,45,45h60c8.401,0,15-6.601,15-15V90h272v45
	c0,8.399,6.599,15,15,15h60c24.902,0,45-20.101,45-45V45C512,20.099,491.902,0,467,0z"/>
<path style="fill:#095C92;" d="M512,45v60c0,24.899-20.098,45-45,45h-60c-8.401,0-15-6.601-15-15V90H257V0h210
	C491.902,0,512,20.099,512,45z"/>
<path style="fill:#E1E1E4;" d="M422,75v392c0,3.9-1.501,7.8-4.501,10.499l-30,30C384.8,510.5,380.9,512,377,512
	s-7.8-1.5-10.499-4.501L347,488.299l-19.501,19.2c-5.702,6-15.297,6-20.999,0l-19.5-19.2l-19.501,19.2
	C264.8,510.5,260.9,512,257,512s-9.8-1.5-12.499-4.501L225,488.299l-19.501,19.2c-5.702,6-15.297,6-20.999,0l-19.5-19.2
	l-19.501,19.2c-5.702,6-15.297,6-20.999,0l-30-30C91.501,474.8,90,470.9,90,467V75H422z"/>
<g>
	<path style="fill:#D9D8DB;" d="M422,75v392c0,3.9-1.501,7.8-4.501,10.499l-30,30C384.8,510.5,380.9,512,377,512
		s-7.8-1.5-10.499-4.501L347,488.299l-19.501,19.2c-5.702,6-15.297,6-20.999,0l-19.5-19.2l-19.501,19.2
		C264.8,510.5,260.9,512,257,512V75H422z"/>
	<path style="fill:#D9D8DB;" d="M135,150H90v-30h45C154.872,120,154.872,150,135,150z"/>
	<path style="fill:#D9D8DB;" d="M225,150h-30c-19.773,0-19.854-30,0-30h30C244.773,120,244.854,150,225,150z"/>
</g>
<g>
	<path style="fill:#C8C6CD;" d="M317,150h-30c-19.773,0-19.854-30,0-30h30C336.773,120,336.854,150,317,150z"/>
	<path style="fill:#C8C6CD;" d="M422,120v30h-45c-19.872,0-19.872-30,0-30H422z"/>
</g>
<path style="fill:#1689FC;" d="M347,242h-60c-19.773,0-19.854-30,0-30h60C366.773,212,366.854,242,347,242z"/>
<path style="fill:#095C92;" d="M437,90H75c-19.797,0-19.797-30,0-30h362C456.797,60,456.797,90,437,90z"/>
<path style="fill:#08469C;" d="M437,60c19.797,0,19.797,30,0,30H257V60"/>
<path style="fill:#17ACE8;" d="M195,272c-16.305,0-20.781-22.493-5.83-28.828c6.65-2.798,14.736-0.41,22.061,6.665
	c5.947,5.771,15.439,5.625,21.211-0.352c5.771-5.947,5.596-15.439-0.352-21.211c-6.76-6.535-14.333-10.695-22.09-13.314V197
	c0-8.291-6.709-15-15-15s-15,6.709-15,15v17.915c-0.839,0.298-1.721,0.278-2.549,0.63C160.781,222.62,150,238.88,150,257
	c0,24.814,20.186,45,45,45c16.735,0,20.738,23.45,5.127,29.092c-7.588,2.886-16.699-0.996-24.609-10.444
	c-5.332-6.372-14.795-7.192-21.123-1.831c-6.357,5.332-7.178,14.795-1.846,21.138c8.093,9.639,17.563,15.969,27.451,19.305V377
	c0,8.291,6.709,15,15,15s15-6.709,15-15v-17.637c0.135-0.048,0.275-0.024,0.41-0.073C228.105,352.845,240,335.838,240,317
	C240,292.186,219.814,272,195,272z"/>
<g>
	<path style="fill:#1689FC;" d="M347,302h-60c-19.773,0-19.854-30,0-30h60C366.773,272,366.854,302,347,302z"/>
	<path style="fill:#1689FC;" d="M347,362h-60c-19.773,0-19.854-30,0-30h60C366.773,332,366.854,362,347,362z"/>
</g>
<g>
</g>
<g>
</g>
<g>
</g>
<g>
</g>
<g>
</g>
<g>
</g>
<g>
</g>
<g>
</g>
<g>
</g>
<g>
</g>
<g>
</g>
<g>
</g>
<g>
</g>
<g>
</g>
<g>
</g>
</svg>
