<?xml version="1.0" encoding="iso-8859-1"?>
<!-- Generator: Adobe Illustrator 19.0.0, SVG Export Plug-In . SVG Version: 6.00 Build 0)  -->
<svg version="1.1" id="Capa_1" xmlns="http://www.w3.org/2000/svg" xmlns:xlink="http://www.w3.org/1999/xlink" x="0px" y="0px"
	 viewBox="0 0 511.999 511.999" style="enable-background:new 0 0 511.999 511.999;" xml:space="preserve">
<path style="fill:#E1E1E4;" d="M256.958,420.889c-0.029,0-0.088,0-0.117,0C119.266,420.831,8.504,301.072,3.936,295.978
	c-5.065-5.694-5.065-14.302,0-19.997c4.567-5.095,115.33-124.853,252.904-124.911c0.029,0,0.088,0,0.117,0
	c8.285,0,14.99,6.704,14.99,14.99s-6.704,14.99-14.99,14.99c-57.852,0-106.928,47.077-106.928,104.929
	s49.076,104.929,106.928,104.929C276.717,390.909,276.798,420.889,256.958,420.889z"/>
<g>
	<path style="fill:#D9D8DB;" d="M256.958,420.889c-19.76,0-19.841-29.98,0-29.98c57.852,0,104.929-47.077,104.929-104.929
		S314.81,181.05,256.958,181.05c-8.285,0-14.99-6.704-14.99-14.99s6.704-14.99,14.99-14.99c0.029,0,0.088,0,0.117,0
		c137.573,0.059,246.338,119.816,250.905,124.911c5.065,5.694,5.065,14.302,0,19.997c-4.567,5.095-113.332,124.853-250.905,124.911
		C257.046,420.889,256.987,420.889,256.958,420.889z"/>
	<path style="fill:#D9D8DB;" d="M487.2,215.826c-52.165-43.171-134.609-94.735-230.243-94.735S76.88,172.655,24.716,215.826
		c-15.59,12.591-34.181-10.793-19.191-23.083c56.066-46.47,146.803-101.632,251.433-101.632s193.369,55.162,249.434,101.632
		C521.681,205.334,502.49,228.417,487.2,215.826z"/>
</g>
<path style="fill:#C8C6CD;" d="M487.2,215.826c-52.165-43.171-134.609-94.735-230.243-94.735v-29.98
	c104.63,0,193.369,55.162,249.434,101.632C521.681,205.334,502.49,228.417,487.2,215.826z"/>
<path style="fill:#1689FC;" d="M256.958,151.07c-74.349,0-136.908,60.558-136.908,134.909c0,74.349,62.559,134.909,136.908,134.909
	s134.909-60.56,134.909-134.909C391.867,211.629,331.306,151.07,256.958,151.07z"/>
<path style="fill:#136EF1;" d="M391.867,285.98c0,74.349-60.56,134.909-134.909,134.909V151.07
	C331.306,151.07,391.867,211.629,391.867,285.98z"/>
<path style="fill:#FEDBAB;" d="M301.927,315.959c0,18.887-11.993,35.676-29.68,42.271h-0.3v17.689c0,8.393-6.595,14.99-14.99,14.99
	c-8.395,0-14.99-6.597-14.99-14.99V358.23c-9.895-3.298-19.488-9.594-27.579-19.187c-12.597-15.288,10.489-34.476,23.081-19.486
	c5.998,7.495,13.193,11.392,19.488,11.392c1.801,0,3.598-0.3,5.095-0.9c15.591-5.696,11.696-29.079-5.095-29.079
	c-24.885,0-44.97-20.087-44.97-44.97c0-17.989,10.196-35.077,29.98-41.973V196.04c0-8.395,6.595-14.99,14.99-14.99
	c8.395,0,14.99,6.595,14.99,14.99v17.987c7.795,2.699,15.29,6.597,22.185,13.191c5.694,5.696,5.995,15.29,0.3,21.287
	c-5.695,5.997-15.29,5.996-21.285,0.3c-5.698-5.398-11.097-7.795-16.19-7.795c-8.695,0-14.99,6.295-14.99,14.99
	c0,8.393,6.595,14.99,14.99,14.99C281.843,270.99,301.927,291.076,301.927,315.959z"/>
<g>
	<path style="fill:#FEC478;" d="M301.927,315.959c0,18.887-11.993,35.676-29.68,42.271h-0.3v17.689c0,8.393-6.595,14.99-14.99,14.99
		v-59.96c1.801,0,3.598-0.3,5.095-0.9c15.591-5.696,11.696-29.079-5.095-29.079v-29.98
		C281.843,270.99,301.927,291.076,301.927,315.959z"/>
	<path style="fill:#FEC478;" d="M273.148,248.806c-5.698-5.398-11.097-7.795-16.19-7.795v-59.96c8.395,0,14.99,6.595,14.99,14.99
		v17.987c7.795,2.699,15.29,6.597,22.185,13.191c5.694,5.696,5.995,15.29,0.3,21.287
		C288.737,254.503,279.142,254.502,273.148,248.806z"/>
</g>
<g>
</g>
<g>
</g>
<g>
</g>
<g>
</g>
<g>
</g>
<g>
</g>
<g>
</g>
<g>
</g>
<g>
</g>
<g>
</g>
<g>
</g>
<g>
</g>
<g>
</g>
<g>
</g>
<g>
</g>
</svg>
