<?xml version="1.0" encoding="iso-8859-1"?>
<!-- Generator: Adobe Illustrator 19.0.0, SVG Export Plug-In . SVG Version: 6.00 Build 0)  -->
<svg version="1.1" id="Capa_1" xmlns="http://www.w3.org/2000/svg" xmlns:xlink="http://www.w3.org/1999/xlink" x="0px" y="0px"
	 viewBox="0 0 512 512" style="enable-background:new 0 0 512 512;" xml:space="preserve">
<path style="fill:#FEDB41;" d="M60,255c0,107.399,89.598,197,197,197v60C116.302,512,0,395.7,0,255S116.302,0,257,0v60
	C149.598,60,60,147.599,60,255z"/>
<path style="fill:#FFCC33;" d="M512,255c0,140.7-114.302,257-255,257V0C397.698,0,512,114.3,512,255z"/>
<path style="fill:#FEA832;" d="M257,60C149.598,60,60,147.599,60,255c0,107.399,89.598,197,197,197s195-89.601,195-197
	C452,147.599,364.402,60,257,60z"/>
<path style="fill:#FE9923;" d="M452,255c0,107.399-87.598,197-195,197V60C364.402,60,452,147.599,452,255z"/>
<path style="fill:#FEDB41;" d="M195,240c-24.814,0-45-20.186-45-45s20.186-45,45-45s47,20.186,47,45S219.814,240,195,240z M195,180
	c-8.262,0-15,6.724-15,15s6.738,15,15,15s15-6.724,15-15S203.262,180,195,180z"/>
<path style="fill:#FFCC33;" d="M317,362c-24.814,0-45-22.186-45-47s20.186-45,45-45s45,20.186,45,45S341.814,362,317,362z M317,300
	c-8.262,0-15,6.724-15,15s6.738,17,15,17s15-8.724,15-17S325.262,300,317,300z"/>
<path style="fill:#FEDB41;" d="M329.598,173.399L257,282.299l-49.402,73.1c-2.996,4.2-7.8,6.601-12.598,6.601
	c-2.999,0-5.698-0.901-8.401-2.401c-6.899-4.799-8.701-14.099-4.197-21L257,227.699l47.402-71.1
	c4.797-6.899,14.099-8.699,20.999-4.2C332.3,157.2,334.102,166.5,329.598,173.399z"/>
<path style="fill:#FFCC33;" d="M329.598,173.399L257,282.299v-54.6l47.402-71.1c4.797-6.899,14.099-8.699,20.999-4.2
	C332.3,157.2,334.102,166.5,329.598,173.399z"/>
<g>
</g>
<g>
</g>
<g>
</g>
<g>
</g>
<g>
</g>
<g>
</g>
<g>
</g>
<g>
</g>
<g>
</g>
<g>
</g>
<g>
</g>
<g>
</g>
<g>
</g>
<g>
</g>
<g>
</g>
</svg>
