<?xml version="1.0" encoding="iso-8859-1"?>
<!-- Generator: Adobe Illustrator 19.0.0, SVG Export Plug-In . SVG Version: 6.00 Build 0)  -->
<svg version="1.1" id="Capa_1" xmlns="http://www.w3.org/2000/svg" xmlns:xlink="http://www.w3.org/1999/xlink" x="0px" y="0px"
	 viewBox="0 0 512 512" style="enable-background:new 0 0 512 512;" xml:space="preserve">
<path style="fill:#095C92;" d="M136.002,0c-5.098,0-10.203,0.599-15,1.5C86.803,8.399,61.003,38.699,61.003,74.999v331.994
	c0,8.399,6.599,15,15,15s15-6.601,15-15c0-8.401,6.599-15,15-15h29.999c8.401,0,15-6.601,15-15V15
	C151.002,6.599,144.402,0,136.002,0z"/>
<path style="fill:#B758CE;" d="M450.997,44.999C450.997,20.099,430.899,0,405.997,0H136.002c-5.098,0-10.203,0.599-15,1.5v390.493
	h314.994c8.401,0,15-6.601,15-15V44.999z"/>
<rect x="225.995" y="376.993" style="fill:#E1E1E4;" width="224.996" height="59.999"/>
<path style="fill:#0D70B2;" d="M450.997,391.993v-29.999H226c-8.401,0-15,6.599-15,15v59.999c0,8.399,6.599,15,15,15h209.996
	c8.401,0,15-6.601,15-15v-15H241v-29.999H450.997z"/>
<path style="fill:#E1E1E4;" d="M106.003,436.992c-16.553,0-29.999-13.462-29.999-29.999c0-16.538,13.447-29.999,29.999-29.999H226
	v59.999H106.003z"/>
<path style="fill:#0D70B2;" d="M241,436.992c0,8.291-6.709,15-15,15H106.003c-24.814,0-44.999-20.186-44.999-44.999
	c0-24.814,20.186-44.999,44.999-44.999H226c8.291,0,15,6.709,15,15V436.992z M106.003,391.993c-8.262,0-15,6.724-15,15
	c0,8.276,6.738,15,15,15h104.998v-29.999H106.003z"/>
<path style="fill:#AA3DC8;" d="M405.997,0c24.902,0,44.999,20.099,44.999,44.999v331.994c0,8.399-6.599,15-15,15H285.999V0H405.997z
	"/>
<rect x="285.994" y="376.993" style="fill:#D9D8DB;" width="164.997" height="59.999"/>
<g>
	<rect x="285.994" y="361.994" style="fill:#095C92;" width="164.997" height="29.999"/>
	<path style="fill:#095C92;" d="M285.999,421.993h164.997v15c0,8.399-6.599,15-15,15H285.999V421.993z"/>
</g>
<path style="fill:#FE73B1;" d="M217.68,509.471L181,485.023l-36.679,24.448c-9.992,6.609-23.32-0.5-23.32-12.48V391.993h119.998
	v104.998C241,508.976,227.628,516.066,217.68,509.471z"/>
<path style="fill:#E1E1E4;" d="M315.999,179.997h-15v-59.999h15c8.401,0,15,6.599,15,15c0,19.799,29.999,19.799,29.999,0
	c0-24.901-20.098-44.999-44.999-44.999h-15v-15c0-8.401-6.599-15-15-15s-15,6.599-15,15v15h-15
	c-24.902,0-44.999,20.099-44.999,44.999v29.999c0,24.899,20.098,44.999,44.999,44.999h15v61.999h-15c-8.401,0-15-6.601-15-15
	c0-19.801-29.999-19.801-29.999,0c0,24.899,20.098,44.999,44.999,44.999h15v15c0,9.899,7.5,15,15,15s15-5.101,15-15v-15h15
	c24.902,0,44.999-20.101,44.999-44.999v-31.999C360.998,200.095,340.9,179.997,315.999,179.997z M271,179.997h-15
	c-8.401,0-15-6.601-15-15v-29.999c0-8.401,6.599-15,15-15h15V179.997z M330.999,256.995c0,8.399-6.599,15-15,15h-15v-61.999h15
	c8.401,0,15,6.599,15,15V256.995z"/>
<path style="fill:#D9D8DB;" d="M315.999,179.997h-15v-59.999h15c8.401,0,15,6.599,15,15c0,19.799,29.999,19.799,29.999,0
	c0-24.901-20.098-44.999-44.999-44.999h-15v-15c0-8.401-6.599-15-15-15v271.995c7.5,0,15-5.101,15-15v-15h15
	c24.902,0,44.999-20.101,44.999-44.999v-31.999C360.998,200.095,340.9,179.997,315.999,179.997z M330.999,256.995
	c0,8.399-6.599,15-15,15h-15v-61.999h15c8.401,0,15,6.599,15,15V256.995z"/>
<g>
</g>
<g>
</g>
<g>
</g>
<g>
</g>
<g>
</g>
<g>
</g>
<g>
</g>
<g>
</g>
<g>
</g>
<g>
</g>
<g>
</g>
<g>
</g>
<g>
</g>
<g>
</g>
<g>
</g>
</svg>
