<?xml version="1.0" encoding="iso-8859-1"?>
<!-- Generator: Adobe Illustrator 19.0.0, SVG Export Plug-In . SVG Version: 6.00 Build 0)  -->
<svg version="1.1" id="Capa_1" xmlns="http://www.w3.org/2000/svg" xmlns:xlink="http://www.w3.org/1999/xlink" x="0px" y="0px"
	 viewBox="0 0 512 512" style="enable-background:new 0 0 512 512;" xml:space="preserve">
<g>
	<path style="fill:#095C92;" d="M467,61H197c-8.401,0-15,6.599-15,15v360c0,8.399,6.599,15,15,15h270c24.902,0,45-20.101,45-45V106
		C512,81.099,491.902,61,467,61z"/>
	<path style="fill:#095C92;" d="M75,451H45c-24.814,0-45-20.186-45-45V106c0-24.814,20.186-45,45-45h30c8.291,0,15,6.709,15,15v360
		C90,444.291,83.291,451,75,451z"/>
</g>
<path style="fill:#0D70B2;" d="M167,31h-62c-24.902,0-45,20.099-45,45v360c0,24.899,20.098,45,45,45h62c24.902,0,45-20.101,45-45V76
	C212,51.099,191.902,31,167,31z"/>
<path style="fill:#08469C;" d="M512,106v300c0,24.899-20.098,45-45,45H347V61h120C491.902,61,512,81.099,512,106z"/>
<path style="fill:#E1E1E4;" d="M317,271h-60c-19.773,0-19.854-30,0-30h60c8.291,0,15,6.709,15,15C332,264.291,325.291,271,317,271z"
	/>
<g>
	<path style="fill:#D9D8DB;" d="M437,271h-60c-19.773,0-19.854-30,0-30h60C456.773,241,456.854,271,437,271z"/>
	<path style="fill:#D9D8DB;" d="M437,331h-60c-19.773,0-19.854-30,0-30h60C456.773,301,456.854,331,437,331z"/>
	<path style="fill:#D9D8DB;" d="M437,391h-60c-19.773,0-19.854-30,0-30h60C456.773,361,456.854,391,437,391z"/>
</g>
<g>
	<path style="fill:#E1E1E4;" d="M317,391h-60c-19.773,0-19.854-30,0-30h60c8.291,0,15,6.709,15,15S325.291,391,317,391z"/>
	<path style="fill:#E1E1E4;" d="M317,331h-60c-19.773,0-19.854-30,0-30h60c8.291,0,15,6.709,15,15S325.291,331,317,331z"/>
</g>
<path style="fill:#81C8EE;" d="M437,121H257c-8.401,0-15,6.599-15,15v60c0,8.399,6.599,15,15,15h180c8.401,0,15-6.601,15-15v-60
	C452,127.599,445.401,121,437,121z"/>
<path style="fill:#4DBBEB;" d="M452,136v60c0,8.399-6.599,15-15,15h-90v-90h90C445.401,121,452,127.599,452,136z"/>
<g>
</g>
<g>
</g>
<g>
</g>
<g>
</g>
<g>
</g>
<g>
</g>
<g>
</g>
<g>
</g>
<g>
</g>
<g>
</g>
<g>
</g>
<g>
</g>
<g>
</g>
<g>
</g>
<g>
</g>
</svg>
