<?xml version="1.0" encoding="iso-8859-1"?>
<!-- Generator: Adobe Illustrator 19.0.0, SVG Export Plug-In . SVG Version: 6.00 Build 0)  -->
<svg version="1.1" id="Capa_1" xmlns="http://www.w3.org/2000/svg" xmlns:xlink="http://www.w3.org/1999/xlink" x="0px" y="0px"
	 viewBox="0 0 512 512" style="enable-background:new 0 0 512 512;" xml:space="preserve">
<path style="fill:#6ECD24;" d="M257,255l21.828,36.828l141.281,143.279l17.118,2.118C483.399,391.052,512,325.303,512,255
	l-23.761-15H281.994L257,255z"/>
<path style="fill:#FFCC33;" d="M257,0C116.404,0,0,114.39,0,255c0,70.303,28.601,136.052,74.773,182.225l30.226-15.226
	l150.439-150.437L257,255l15-20.606V48.135L257,0z"/>
<path style="fill:#AA3DC8;" d="M512,255C512,114.39,397.596,0,257,0v255H512z"/>
<path style="fill:#1689FC;" d="M74.773,437.225C120.948,483.401,186.702,512,257,512s134.048-28.599,180.227-74.775L257,255
	L74.773,437.225z"/>
<g>
</g>
<g>
</g>
<g>
</g>
<g>
</g>
<g>
</g>
<g>
</g>
<g>
</g>
<g>
</g>
<g>
</g>
<g>
</g>
<g>
</g>
<g>
</g>
<g>
</g>
<g>
</g>
<g>
</g>
</svg>
