<?xml version="1.0" encoding="iso-8859-1"?>
<!-- Generator: Adobe Illustrator 19.0.0, SVG Export Plug-In . SVG Version: 6.00 Build 0)  -->
<svg version="1.1" id="Capa_1" xmlns="http://www.w3.org/2000/svg" xmlns:xlink="http://www.w3.org/1999/xlink" x="0px" y="0px"
	 viewBox="0 0 512 512" style="enable-background:new 0 0 512 512;" xml:space="preserve">
<path style="fill:#32D736;" d="M452,497c0,8.291-6.709,15-15,15H287c-8.291,0-15-6.709-15-15v-30c0-8.276-6.738-15-15-15h-30
	c-8.291,0-15-6.709-15-15v-60c0-8.291,6.709-15,15-15h30c8.262,0,15-6.724,15-15v-30c0-8.291,6.709-15,15-15h150
	c8.291,0,15,6.709,15,15v30c0,8.276,6.738,15,15,15h30c8.291,0,15,6.709,15,15v60c0,8.291-6.709,15-15,15h-30
	c-8.262,0-15,6.724-15,15V497z"/>
<path style="fill:#10BB67;" d="M362,452c-24.814,0-45-20.186-45-45s20.186-45,45-45s45,20.186,45,45S386.814,452,362,452z"/>
<path style="fill:#32D736;" d="M240,195c0,8.291-6.709,15-15,15H75c-8.291,0-15-6.709-15-15v-30c0-8.276-6.738-15-15-15H15
	c-8.291,0-15-6.709-15-15V75c0-8.291,6.709-15,15-15h30c8.262,0,15-6.724,15-15V15c0-8.291,6.709-15,15-15h150
	c8.291,0,15,6.709,15,15v30c0,8.276,6.738,15,15,15h30c8.291,0,15,6.709,15,15v60c0,8.291-6.709,15-15,15h-30
	c-8.262,0-15,6.724-15,15V195z"/>
<g>
	<path style="fill:#10BB67;" d="M150,150c-24.814,0-45-20.186-45-45s20.186-45,45-45s45,20.186,45,45S174.814,150,150,150z"/>
	<path style="fill:#10BB67;" d="M302,347c0,24.814-20.186,45-45,45h-45v-45c0-24.814,20.186-45,45-45h45V347z"/>
	<path style="fill:#10BB67;" d="M512,392h-45c-24.814,0-45-20.186-45-45v-45h45c24.814,0,45,20.186,45,45V392z"/>
	<path style="fill:#10BB67;" d="M512,467c0,24.814-20.186,45-45,45h-45v-45c0-24.814,20.186-45,45-45h45V467z"/>
	<path style="fill:#10BB67;" d="M302,512h-45c-24.814,0-45-20.186-45-45v-45h45c24.814,0,45,20.186,45,45V512z"/>
	<path style="fill:#10BB67;" d="M300,165c0,24.814-20.186,45-45,45h-45v-45c0-24.814,20.186-45,45-45h45V165z"/>
	<path style="fill:#10BB67;" d="M300,90h-45c-24.814,0-45-20.186-45-45V0h45c24.814,0,45,20.186,45,45V90z"/>
	<path style="fill:#10BB67;" d="M90,45c0,24.814-20.186,45-45,45H0V45C0,20.186,20.186,0,45,0h45V45z"/>
	<path style="fill:#10BB67;" d="M90,210H45c-24.814,0-45-20.186-45-45v-45h45c24.814,0,45,20.186,45,45V210z"/>
</g>
<path style="fill:#FEA832;" d="M93.211,451.547c-33.137,0-60-26.863-60-60v-60H8.337c-3.372,0-6.412-2.031-7.702-5.146
	s-0.577-6.701,1.807-9.085l54.874-54.874c3.256-3.256,8.534-3.256,11.789,0l54.874,54.874c2.384,2.384,3.097,5.97,1.807,9.085
	s-4.33,5.146-7.702,5.146H93.211v60h45c8.284,0,15,6.716,15,15v30c0,8.284-6.716,15-15,15H93.211z"/>
<path style="fill:#FE9923;" d="M388.02,192.684c-2.384-2.384-3.097-5.97-1.807-9.085c1.29-3.115,4.33-5.146,7.702-5.146h24.874v-60
	h-45c-8.284,0-15-6.716-15-15v-30c0-8.284,6.716-15,15-15h45c33.137,0,60,26.863,60,60v60h24.874c3.372,0,6.411,2.031,7.702,5.146
	c1.29,3.115,0.577,6.701-1.807,9.085l-54.874,54.874c-3.256,3.256-8.534,3.256-11.789,0L388.02,192.684z"/>
<g>
</g>
<g>
</g>
<g>
</g>
<g>
</g>
<g>
</g>
<g>
</g>
<g>
</g>
<g>
</g>
<g>
</g>
<g>
</g>
<g>
</g>
<g>
</g>
<g>
</g>
<g>
</g>
<g>
</g>
</svg>
