<?xml version="1.0" encoding="iso-8859-1"?>
<!-- Generator: Adobe Illustrator 19.0.0, SVG Export Plug-In . SVG Version: 6.00 Build 0)  -->
<svg version="1.1" id="Capa_1" xmlns="http://www.w3.org/2000/svg" xmlns:xlink="http://www.w3.org/1999/xlink" x="0px" y="0px"
	 viewBox="0 0 512 512" style="enable-background:new 0 0 512 512;" xml:space="preserve">
<path style="fill:#FE91C2;" d="M314.7,117.7c-7.5-2.401-15.901,1.8-18.6,9.3c-8.698,23.399-31.198,39-56.1,39
	s-47.402-15.601-56.1-39c-2.699-7.5-11.1-11.7-18.9-9.3c-11.7,3.898-23.101,8.699-34.2,14.399l-11.1-5.7
	c-28.499-14.101-62.699-8.699-85.199,14.099c-5.702,5.4-6.002,14.101-0.901,20.101l40.199,47.699
	C63.9,222.999,56.7,238.9,51.899,256H45c-24.902,0-45,20.099-45,45v30c0,24.899,20.098,45,45,45c0,0,10.203,0,17.999,0
	c10.199,20.099,24.598,37.8,42.001,52.2V481c0,8.399,6.599,15,15,15h60c8.401,0,15-6.601,15-15v-20.4
	c13.499,3.6,29.399,5.099,45,5.099s31.501-1.5,45-5.099V481c0,8.399,6.599,15,15,15h60c8.401,0,15-6.601,15-15v-57.301
	C423.3,389.2,450,338.8,450,286C450,211.599,395.698,144.099,314.7,117.7z"/>
<path style="fill:#FE52A2;" d="M450,346c-10.107,0-20.039-3.135-28.77-9.067c-16.417-11.155,0.543-35.95,16.875-24.814
	C456.826,324.906,482,301.542,482,271c0-4.102-0.381-8.086-1.113-11.895c-3.744-19.639,25.747-24.896,29.473-5.684
	c1.083,5.626,1.64,11.515,1.64,17.579C512,312.353,483.076,346,450,346z"/>
<path style="fill:#FE73B1;" d="M450,286c0,52.8-26.7,103.2-75,137.699V481c0,8.399-6.599,15-15,15h-60c-8.401,0-15-6.601-15-15
	v-20.4c-13.499,3.6-29.399,5.099-45,5.099V166c24.902,0,47.402-15.601,56.1-39c2.699-7.5,11.1-11.7,18.6-9.3
	C395.698,144.099,450,211.599,450,286z"/>
<path style="fill:#FEDB41;" d="M240,16c-49.501,0-90,40.499-90,90c0,50.099,41.1,90,90,90s90-39.6,90-90
	C330,56.499,289.501,16,240,16z"/>
<g>
	<path style="fill:#0D70B2;" d="M119.854,286.293c-8.291,0-15.146-6.855-15.146-15.146S111.563,256,119.854,256
		S135,262.855,135,271.146S128.145,286.293,119.854,286.293z M134.707,271.146H135H134.707z M119.854,271.146h0.293H119.854z"/>
	<path style="fill:#0D70B2;" d="M313.799,197.199c-2.999,7.8-11.697,11.7-19.497,8.699C277.5,199.3,258.9,196,240,196
		c-18.3,0-36.299,2.999-52.8,9.3c-7.8,2.999-16.501-0.901-19.497-8.701C165,188.8,168.9,180.399,176.4,177.4
		c20.101-7.5,41.7-11.4,63.6-11.4c22.5,0,45,4.2,65.398,11.999C312.898,181,316.802,189.699,313.799,197.199z"/>
</g>
<path style="fill:#FEA832;" d="M255,91v30c0,9.899-7.5,15-15,15s-15-5.101-15-15V91c0-9.901,7.5-15,15-15S255,81.099,255,91z"/>
<path style="fill:#FFCC33;" d="M330,106c0,50.4-41.1,90-90,90V16C289.501,16,330,56.499,330,106z"/>
<path style="fill:#FE9923;" d="M240,136V76c7.5,0,15,5.099,15,15v30C255,130.899,247.5,136,240,136z"/>
<path style="fill:#095C92;" d="M313.799,197.199c-2.999,7.8-11.697,11.7-19.497,8.699C277.5,199.3,258.9,196,240,196v-30
	c22.5,0,45,4.2,65.398,11.999C312.898,181,316.802,189.699,313.799,197.199z"/>
<g>
</g>
<g>
</g>
<g>
</g>
<g>
</g>
<g>
</g>
<g>
</g>
<g>
</g>
<g>
</g>
<g>
</g>
<g>
</g>
<g>
</g>
<g>
</g>
<g>
</g>
<g>
</g>
<g>
</g>
</svg>
