<?xml version="1.0" encoding="iso-8859-1"?>
<!-- Generator: Adobe Illustrator 19.0.0, SVG Export Plug-In . SVG Version: 6.00 Build 0)  -->
<svg version="1.1" id="Capa_1" xmlns="http://www.w3.org/2000/svg" xmlns:xlink="http://www.w3.org/1999/xlink" x="0px" y="0px"
	 viewBox="0 0 512 512" style="enable-background:new 0 0 512 512;" xml:space="preserve">
<path style="fill:#81C8EE;" d="M497,45v270H15V45c0-16.5,13.499-30,30-30h422C483.501,15,497,28.5,497,45z"/>
<path style="fill:#4DBBEB;" d="M497,45v270H257V15h210C483.501,15,497,28.5,497,45z"/>
<path style="fill:#095C92;" d="M317,360H195c-8.401,0-15,6.599-15,15v62c0,8.399,6.599,15,15,15h122c8.401,0,15-6.601,15-15v-62
	C332,366.599,325.401,360,317,360z"/>
<path style="fill:#08469C;" d="M332,375v62c0,8.399-6.599,15-15,15h-60v-92h60C325.401,360,332,366.599,332,375z"/>
<path style="fill:#B758CE;" d="M361.7,161.999c-1.502-6.9-7.5-11.999-14.7-11.999h-75V75c0-7.2-5.098-13.2-12.001-14.7
	C259.102,60,257.901,60,257,60c-5.098,0-10.203,0.3-15,1.199c-50.698,7.202-92,51-92,103.801c0,57.9,49.102,105,107,105
	c52.8,0,96.599-39.3,103.799-90c0.901-4.801,1.201-9.901,1.201-15C362,164.099,362,162.9,361.7,161.999z"/>
<path style="fill:#095C92;" d="M467,0H45C20.098,0,0,20.099,0,45v270c0,8.399,6.599,15,15,15h482c8.401,0,15-6.601,15-15V45
	C512,20.099,491.902,0,467,0z M482,300H30V45c0-8.401,6.599-15,15-15h422c8.401,0,15,6.599,15,15V300z"/>
<path style="fill:#AA3DC8;" d="M257,270V60c0.901,0,2.102,0,2.999,0.3C266.902,61.8,272,67.8,272,75v75h75
	c7.2,0,13.198,5.099,14.7,11.999c0.3,0.901,0.3,2.1,0.3,3.001c0,5.099-0.3,10.199-1.201,15C353.599,230.7,309.8,270,257,270z"/>
<path style="fill:#08469C;" d="M512,45v270c0,8.399-6.599,15-15,15H257v-30h225V45c0-8.401-6.599-15-15-15H257V0h210
	C491.902,0,512,20.099,512,45z"/>
<path style="fill:#0D70B2;" d="M0,300v45c0,24.899,20.098,45,45,45h422c24.902,0,45-20.101,45-45v-45H0z"/>
<path style="fill:#095C92;" d="M512,300v45c0,24.899-20.098,45-45,45H257v-90H512z"/>
<path style="fill:#0D70B2;" d="M420.499,490.399l-21.599-43.5C391.099,431.6,375.799,422,358.4,422H153.6
	c-17.399,0-32.699,9.6-40.499,24.899l-21.599,43.5C86.7,500.3,93.9,512,105,512h302C418.1,512,425.3,500.3,420.499,490.399z"/>
<path style="fill:#095C92;" d="M420.499,490.399C425.3,500.3,418.1,512,407,512H257v-90h101.4c17.399,0,32.699,9.6,40.499,24.899
	L420.499,490.399z"/>
<path style="fill:#D9D8DB;" d="M362,165c0-0.901,0-2.1-0.3-3.001C360.499,106.5,315.499,61.5,259.999,60.3
	C259.102,60,257.901,60,257,60v105H362z"/>
<g>
</g>
<g>
</g>
<g>
</g>
<g>
</g>
<g>
</g>
<g>
</g>
<g>
</g>
<g>
</g>
<g>
</g>
<g>
</g>
<g>
</g>
<g>
</g>
<g>
</g>
<g>
</g>
<g>
</g>
</svg>
