<?xml version="1.0" encoding="iso-8859-1"?>
<!-- Generator: Adobe Illustrator 19.0.0, SVG Export Plug-In . SVG Version: 6.00 Build 0)  -->
<svg version="1.1" id="Capa_1" xmlns="http://www.w3.org/2000/svg" xmlns:xlink="http://www.w3.org/1999/xlink" x="0px" y="0px"
	 viewBox="0 0 512 512" style="enable-background:new 0 0 512 512;" xml:space="preserve">
<path style="fill:#FE9923;" d="M512,497c0,8.291-6.709,15-15,15h-93.604c-8.291,0-15-6.709-15-15V228.604
	c0-3.984,1.582-7.793,4.395-10.605l93.604-93.604C495.836,114.954,512,121.703,512,135V497z"/>
<path style="fill:#FFCC33;" d="M305.098,303.9c-2.996,2.699-4.497,6.599-4.497,10.499V497c0,8.399,6.599,15,15,15h87.8V207.299
	L305.098,303.9z"/>
<path style="fill:#FE9923;" d="M214.501,394.499C211.501,397.2,210,401.1,210,405v92c0,8.399,6.599,15,15,15h90.601V293.099
	L214.501,394.499z"/>
<path style="fill:#FFCC33;" d="M145.499,304.499c-4.2-4.499-10.499-5.7-16.198-3.3C123.6,303.6,120,309,120,315v182
	c0,8.399,6.599,15,15,15h90V384L145.499,304.499z"/>
<g>
	<path style="fill:#1689FC;" d="M51.65,249.858l48.193-48.208c13.945-13.945,35.271,7.151,21.211,21.211l-48.193,48.208
		C58.915,285.015,37.59,263.919,51.65,249.858z"/>
	<path style="fill:#1689FC;" d="M197.139,271.069l-48.193-48.208c-5.859-5.859-5.859-15.352,0-21.211s15.352-5.859,21.211,0
		l48.193,48.208C232.295,263.804,211.199,285.13,197.139,271.069z"/>
	<path style="fill:#1689FC;" d="M231.65,249.858L431.844,51.65c13.945-13.945,35.271,7.151,21.211,21.211L252.861,271.069
		C238.907,285.024,217.511,263.998,231.65,249.858z"/>
</g>
<g>
	<path style="fill:#17ACE8;" d="M135,240c-24.814,0-45-20.186-45-45s20.186-45,45-45s45,20.186,45,45S159.814,240,135,240z"/>
	<path style="fill:#17ACE8;" d="M225,330c-24.814,0-45-20.186-45-45s20.186-45,45-45s45,20.186,45,45S249.814,330,225,330z"/>
</g>
<path style="fill:#FE9923;" d="M124.501,304.499l-90,90C31.501,397.2,30,401.1,30,405v92c0,8.399,6.599,15,15,15h90V300
	C131.1,300,127.2,301.5,124.501,304.499z"/>
<path style="fill:#17ACE8;" d="M45,330c-24.814,0-45-20.186-45-45s20.186-45,45-45s45,20.186,45,45S69.814,330,45,330z"/>
<path style="fill:#FE318F;" d="M467,90c-24.814,0-45-20.186-45-45s20.186-45,45-45s45,20.186,45,45S491.814,90,467,90z"/>
<g>
</g>
<g>
</g>
<g>
</g>
<g>
</g>
<g>
</g>
<g>
</g>
<g>
</g>
<g>
</g>
<g>
</g>
<g>
</g>
<g>
</g>
<g>
</g>
<g>
</g>
<g>
</g>
<g>
</g>
</svg>
