<?xml version="1.0" encoding="iso-8859-1"?>
<!-- Generator: Adobe Illustrator 19.0.0, SVG Export Plug-In . SVG Version: 6.00 Build 0)  -->
<svg version="1.1" id="Capa_1" xmlns="http://www.w3.org/2000/svg" xmlns:xlink="http://www.w3.org/1999/xlink" x="0px" y="0px"
	 viewBox="0 0 512 512" style="enable-background:new 0 0 512 512;" xml:space="preserve">
<path style="fill:#E1E1E4;" d="M500.6,210.599l-24.598-6.299c-5.402-24.3-15-47.401-28.202-68.401l12.902-21.599
	c3.596-6,2.699-13.5-2.102-18.3l-42.598-42.601c-4.801-4.799-12.301-5.7-18.303-2.1l-21.6,12.901C355.101,51,332,41.4,307.698,36
	L301.7,11.4C299.898,4.799,293.899,0,287,0h-62c-6.899,0-12.898,4.799-14.7,11.4L204.302,36C180,41.4,156.899,51,135.901,64.2
	l-21.599-12.902c-6.002-3.6-13.502-2.699-18.303,2.1L53.401,96c-4.801,4.799-5.698,12.299-2.102,18.3L64.2,135.899
	c-13.202,21-22.8,44.101-28.202,68.401L11.4,210.599C4.797,212.1,0,218.099,0,225v62c0,6.899,4.797,12.9,11.4,14.399l24.598,6.301
	c5.402,24.3,15,47.399,28.202,68.399L51.299,397.7c-3.596,6-2.699,13.5,2.102,18.3l42.598,42.599c4.801,4.801,12.301,5.7,18.303,2.1
	l21.599-12.9C156.899,461,180,470.6,204.302,476l5.999,24.6c1.802,6.599,7.8,11.4,14.7,11.4h62c6.899,0,12.898-4.801,14.7-11.4
	L307.7,476c24.302-5.4,47.402-15,68.401-28.2l21.599,12.9c6.002,3.6,13.502,2.701,18.303-2.1l42.596-42.6
	c4.801-4.799,5.698-12.299,2.102-18.3L447.8,376.099c13.202-21,22.8-44.099,28.202-68.399l24.598-6.301
	c6.603-1.5,11.4-7.5,11.4-14.399v-62C512,218.099,507.203,212.1,500.6,210.599z"/>
<path style="fill:#D9D8DB;" d="M512,225v62c0,6.899-4.797,12.9-11.4,14.399l-24.598,6.301c-5.402,24.3-15,47.399-28.202,68.399
	l12.902,21.601c3.596,6,2.699,13.5-2.102,18.3l-42.598,42.599c-4.801,4.801-12.301,5.7-18.303,2.1l-21.599-12.9
	C355.101,461,332,470.6,307.698,476l-5.999,24.6c-1.802,6.599-7.8,11.4-14.7,11.4h-30V0h30c6.899,0,12.898,4.799,14.7,11.4
	l5.999,24.6C332,41.4,355.1,51,376.099,64.2l21.599-12.902c6.002-3.6,13.502-2.699,18.303,2.1L458.599,96
	c4.801,4.799,5.698,12.299,2.102,18.3L447.8,135.899c13.202,21,22.8,44.101,28.202,68.401l24.598,6.299
	C507.203,212.1,512,218.099,512,225z"/>
<path style="fill:#1689FC;" d="M407,255c0,5.099-0.3,10.199-0.901,15c-2.699,30-14.7,59.599-32.999,81.799
	c-6.302,7.8-13.502,15-21.302,21.301c-22.2,18.3-49.797,30.3-79.797,32.999c-4.797,0.601-9.902,0.901-15,0.901s-10.203-0.3-15-0.901
	c-30-2.699-59.598-14.7-81.797-32.999c-7.8-6.301-15-13.5-21.302-21.301c-18.3-22.2-30.3-51.799-32.999-81.799
	c-0.601-4.801-0.901-9.901-0.901-15c0-5.101,0.3-10.201,0.901-15c2.699-30,14.7-57.601,32.999-79.801
	c6.302-7.8,13.502-15,21.302-21.299c22.2-18.301,51.797-30.3,81.797-33.001c4.797-0.599,9.902-0.899,15-0.899s10.203,0.3,15,0.899
	c30,2.701,57.598,14.7,79.797,33.001c7.8,6.299,15,13.499,21.302,21.299c18.3,22.2,30.3,49.801,32.999,79.801
	C406.7,244.799,407,249.899,407,255z"/>
<path style="fill:#136EF1;" d="M407,255c0,5.099-0.3,10.199-0.901,15c-2.699,30-14.7,59.599-32.999,81.799
	c-6.302,7.8-13.502,15-21.302,21.301c-22.2,18.3-49.797,30.3-79.797,32.999c-4.797,0.601-9.902,0.901-15,0.901V105
	c5.098,0,10.203,0.3,15,0.899c30,2.701,57.598,14.7,79.797,33.001c7.8,6.299,15,13.499,21.302,21.299
	c18.3,22.2,30.3,49.801,32.999,79.801C406.7,244.799,407,249.899,407,255z"/>
<path style="fill:#81C8EE;" d="M272,377v29.099c-4.797,0.601-9.902,0.901-15,0.901s-10.203-0.3-15-0.901V377c0-9.901,7.5-15,15-15
	S272,367.099,272,377z"/>
<path style="fill:#4DBBEB;" d="M373.1,351.799c-6.302,7.8-13.502,15-21.302,21.301L331.1,352.4
	c-13.949-13.953,7.35-35.254,21.299-21.301L373.1,351.799z"/>
<path style="fill:#81C8EE;" d="M159.602,180.899l-20.702-20.7c6.302-7.8,13.502-15,21.302-21.299l20.698,20.7
	C194.39,173.094,174.834,194.632,159.602,180.899z"/>
<path style="fill:#4DBBEB;" d="M407,255c0,5.099-0.3,10.199-0.901,15H377c-19.872,0-19.872-30,0-30h29.099
	C406.7,244.799,407,249.899,407,255z"/>
<path style="fill:#81C8EE;" d="M135,270h-29.099c-0.601-4.801-0.901-9.901-0.901-15c0-5.101,0.3-10.201,0.901-15H135
	C154.872,240,154.872,270,135,270z"/>
<path style="fill:#4DBBEB;" d="M373.1,160.199l-20.702,20.7c-14.909,13.441-35.191-7.402-21.299-21.299l20.698-20.7
	C359.598,145.199,366.797,152.399,373.1,160.199z"/>
<path style="fill:#81C8EE;" d="M180.901,352.4l-20.698,20.7c-7.8-6.301-15-13.5-21.302-21.301l20.702-20.7
	c5.698-5.7,15.3-5.7,21.299,0C186.599,337.099,186.599,346.7,180.901,352.4z"/>
<path style="fill:#C8C6CD;" d="M347,270h-60c-19.773,0-19.854-30,0-30h60C366.773,240,366.854,270,347,270z"/>
<path style="fill:#81C8EE;" d="M257,90c-90.901,0-167,74.099-167,165c0,90.899,76.099,167,167,167s165-76.101,165-167
	C422,164.099,347.901,90,257,90z M257,392c-74.399,0-137-62.601-137-137c0-74.401,62.601-135,137-135s135,60.599,135,135
	C392,329.399,331.399,392,257,392z"/>
<g>
	<path style="fill:#4DBBEB;" d="M272,377v29.099c-4.797,0.601-9.902,0.901-15,0.901v-45C264.5,362,272,367.099,272,377z"/>
	<path style="fill:#4DBBEB;" d="M422,255c0,90.899-74.099,167-165,167v-30c74.399,0,135-62.601,135-137c0-74.401-60.601-135-135-135
		V90C347.901,90,422,164.099,422,255z"/>
</g>
<path style="fill:#D9D8DB;" d="M257,240L257,240c-8.284,0-15-6.716-15-15v-90c0-8.284,6.716-15,15-15l0,0c8.284,0,15,6.716,15,15v90
	C272,233.284,265.284,240,257,240z"/>
<path style="fill:#C8C6CD;" d="M272,225v-90c0-8.286-6.716-15-15-15v120C265.284,240,272,233.284,272,225z"/>
<path style="fill:#E1E1E4;" d="M299.297,240c-4.497-12.9-14.399-22.8-27.297-27.301c-4.797-1.8-9.602-2.699-15-2.699
	s-10.203,0.899-15,2.699c-17.402,6-32,22.8-32,42.301c0,24.899,22.098,47,47,47c19.501,0,36.299-14.601,42.297-32
	c1.802-4.801,2.703-9.6,2.703-15S301.099,244.799,299.297,240z"/>
<path style="fill:#D9D8DB;" d="M302,255c0,5.4-0.901,10.199-2.703,15c-5.999,17.399-22.797,32-42.297,32v-92
	c5.398,0,10.203,0.899,15,2.699C284.898,217.2,294.8,227.1,299.297,240C301.099,244.799,302,249.6,302,255z"/>
<g>
</g>
<g>
</g>
<g>
</g>
<g>
</g>
<g>
</g>
<g>
</g>
<g>
</g>
<g>
</g>
<g>
</g>
<g>
</g>
<g>
</g>
<g>
</g>
<g>
</g>
<g>
</g>
<g>
</g>
</svg>
