<?xml version="1.0" encoding="iso-8859-1"?>
<!-- Generator: Adobe Illustrator 19.0.0, SVG Export Plug-In . SVG Version: 6.00 Build 0)  -->
<svg version="1.1" id="Capa_1" xmlns="http://www.w3.org/2000/svg" xmlns:xlink="http://www.w3.org/1999/xlink" x="0px" y="0px"
	 viewBox="0 0 512 512" style="enable-background:new 0 0 512 512;" xml:space="preserve">
<path style="fill:#0A4EAF;" d="M452,347v30c0,19.799-30,19.799-30,0v-30c0-8.401-6.599-15-15-15H270v45c0,9.899-7.5,15-15,15
	s-15-5.101-15-15v-45H105c-8.401,0-15,6.599-15,15v30c0,19.799-30,19.799-30,0v-30c0-24.901,20.098-45,45-45h135v-47
	c0-8.401,6.599-15,15-15s15,6.599,15,15v47h137C431.902,302,452,322.099,452,347z"/>
<path style="fill:#063E8B;" d="M452,347v30c0,19.799-30,19.799-30,0v-30c0-8.401-6.599-15-15-15H270v45c0,9.899-7.5,15-15,15V240
	c8.401,0,15,6.599,15,15v47h137C431.902,302,452,322.099,452,347z"/>
<path style="fill:#FEDB41;" d="M255,0c-73.499,0-135,59.399-135,135c0,75.599,61.201,135,135,135c73.499,0,135-59.401,135-135
	C390,59.399,328.799,0,255,0z"/>
<path style="fill:#FEA832;" d="M300,165c0,18.9-12.001,35.7-29.7,42.299H270V225c0,8.399-6.599,15-15,15s-15-6.601-15-15v-17.701
	c-9.902-3.3-19.501-9.6-27.598-19.2C199.797,172.8,222.598,153.3,235.499,168.6c6.302,7.5,13.202,11.4,19.501,11.4
	c1.802,0,3.6-0.3,5.098-0.901c15.6-5.7,11.704-29.099-5.098-29.099c-24.902,0-45-20.101-45-45c0-17.701,10.203-35.101,30-42.001V45
	c0-9.901,7.5-15,15-15s15,5.099,15,15v17.999c7.8,2.701,15.3,6.601,22.2,13.2c14.099,14.101-6.899,35.4-20.999,21.601
	C265.8,92.399,260.098,89.7,255,90c-2.102,0-3.9,0.3-5.698,1.199C234.302,97.5,238.799,120,255,120C279.902,120,300,140.099,300,165
	z"/>
<g>
	<path style="fill:#32D736;" d="M75,512c-41.367,0-75-33.647-75-75s33.633-75,75-75s75,33.647,75,75S116.367,512,75,512z"/>
	<path style="fill:#32D736;" d="M255,362c-41.4,0-75,33.6-75,75s33.6,75,75,75s75-33.6,75-75S296.4,362,255,362z"/>
</g>
<g>
	<path style="fill:#10BB67;" d="M437,512c-41.367,0-75-33.647-75-75s33.633-75,75-75s75,33.647,75,75S478.367,512,437,512z"/>
	<path style="fill:#10BB67;" d="M330,437c0,41.4-33.6,75-75,75V362C296.4,362,330,395.6,330,437z"/>
</g>
<path style="fill:#FFCC33;" d="M390,135c0,75.599-61.501,135-135,135V0C328.799,0,390,59.399,390,135z"/>
<g>
	<path style="fill:#FE9923;" d="M300,165c0,18.9-12.001,35.7-29.7,42.299H270V225c0,8.399-6.599,15-15,15v-60
		c1.802,0,3.6-0.3,5.098-0.901c15.6-5.7,11.704-29.099-5.098-29.099v-30C279.902,120,300,140.099,300,165z"/>
	<path style="fill:#FE9923;" d="M271.201,97.8C265.8,92.399,260.098,89.7,255,90V30c7.5,0,15,5.099,15,15v17.999
		c7.8,2.701,15.3,6.601,22.2,13.2C306.299,90.3,285.3,111.599,271.201,97.8z"/>
</g>
<g>
</g>
<g>
</g>
<g>
</g>
<g>
</g>
<g>
</g>
<g>
</g>
<g>
</g>
<g>
</g>
<g>
</g>
<g>
</g>
<g>
</g>
<g>
</g>
<g>
</g>
<g>
</g>
<g>
</g>
</svg>
