<?xml version="1.0" encoding="iso-8859-1"?>
<!-- Generator: Adobe Illustrator 19.0.0, SVG Export Plug-In . SVG Version: 6.00 Build 0)  -->
<svg version="1.1" id="Capa_1" xmlns="http://www.w3.org/2000/svg" xmlns:xlink="http://www.w3.org/1999/xlink" x="0px" y="0px"
	 viewBox="0 0 512 512" style="enable-background:new 0 0 512 512;" xml:space="preserve">
<path style="fill:#FE9923;" d="M504.8,188.599L342.8,362l-6.899-6c-45-39.3-114.8-39.3-159.8,0l-6.899,6L13.198,193.4
	c0.3-0.901,1.802-2.401,3.904-3.9l78.296-64.2c4.504-3.6,10.803-4.2,15.901-1.8C116.7,125.9,120,131.3,120,137v149.399
	l50.398,54.901c49.204-39.6,122-39.6,171.204,0l50.398-54V137c0-5.4,2.999-10.501,7.8-13.2c5.098-2.701,10.8-2.401,15.601,0.599
	l76.501,51C497,178.999,501.501,183.199,504.8,188.599z"/>
<path style="fill:#E1E1E4;" d="M342.811,377c-3.486,0-7.002-1.216-9.844-3.677l-6.914-6.006
	c-39.404-34.395-100.789-34.336-140.076-0.029l-6.943,6.035c-6.152,5.303-15.41,4.805-20.859-1.157l-64.189-69.595
	C91.406,299.803,90,296.17,90,292.405V15c0-8.291,6.709-15,15-15h302c8.291,0,15,6.709,15,15v278.299
	c0,3.809-1.436,7.456-4.043,10.239l-64.189,68.701C350.838,375.389,346.824,377,342.811,377z"/>
<g>
	<path style="fill:#17ACE8;" d="M195,152c-8.262,0-15-6.724-15-15c0-6.05,3.604-11.47,9.17-13.828
		c6.621-2.827,14.766-0.41,22.061,6.665c5.977,5.771,15.469,5.61,21.211-0.352c5.771-5.947,5.596-15.439-0.352-21.211
		c-6.76-6.526-14.33-10.679-22.09-13.299V75c0-8.291-6.709-15-15-15s-15,6.709-15,15v19.915c-0.839,0.298-1.721,0.28-2.549,0.63
		C160.781,102.62,150,118.88,150,137c0,24.814,20.186,45,45,45c8.262,0,15,6.724,15,15c0,6.284-3.955,11.953-9.873,14.092
		c-7.617,2.871-16.67-0.996-24.609-10.444c-5.332-6.343-14.795-7.178-21.123-1.831c-6.357,5.332-7.178,14.795-1.846,21.138
		c8.093,9.639,17.563,15.969,27.451,19.305V257c0,8.291,6.709,15,15,15s15-6.709,15-15v-17.637c0.135-0.048,0.275-0.024,0.41-0.073
		C228.105,232.845,240,215.838,240,197C240,172.186,219.814,152,195,152z"/>
	<path style="fill:#17ACE8;" d="M347,122h-60c-8.291,0-15-6.709-15-15s6.709-15,15-15h60c8.291,0,15,6.709,15,15
		S355.291,122,347,122z"/>
	<path style="fill:#17ACE8;" d="M347,182h-60c-8.291,0-15-6.709-15-15s6.709-15,15-15h60c8.291,0,15,6.709,15,15
		S355.291,182,347,182z"/>
	<path style="fill:#17ACE8;" d="M347,242h-60c-8.291,0-15-6.709-15-15s6.709-15,15-15h60c8.291,0,15,6.709,15,15
		S355.291,242,347,242z"/>
</g>
<path style="fill:#FEDB41;" d="M498.802,498.5c0,0.3-0.3,0.601-0.601,0.899C489.2,507.8,478.1,512,467,512H45
	c-11.1,0-22.2-4.2-30.601-12.001c-0.601-0.601-0.901-0.899-1.201-1.5L176.1,356c45-39.3,114.8-39.3,159.8,0L498.802,498.5z"/>
<g>
	<path style="fill:#FFCC33;" d="M169.2,362L13.198,498.5C4.501,489.5,0,478.4,0,467V224.9c0-11.7,4.501-23.101,12.598-30.901
		c0,0,0-0.298,0.601-0.599L169.2,362z"/>
	<path style="fill:#FFCC33;" d="M512,213.199V467c0,11.7-4.797,22.8-13.198,31.5L342.8,362l162-173.401
		c0.901,1.5,1.802,3.001,2.699,4.801C509.598,198.5,512,204.8,512,213.199z"/>
</g>
<g>
</g>
<g>
</g>
<g>
</g>
<g>
</g>
<g>
</g>
<g>
</g>
<g>
</g>
<g>
</g>
<g>
</g>
<g>
</g>
<g>
</g>
<g>
</g>
<g>
</g>
<g>
</g>
<g>
</g>
</svg>
