<?xml version="1.0" encoding="iso-8859-1"?>
<!-- Generator: Adobe Illustrator 19.0.0, SVG Export Plug-In . SVG Version: 6.00 Build 0)  -->
<svg version="1.1" id="Capa_1" xmlns="http://www.w3.org/2000/svg" xmlns:xlink="http://www.w3.org/1999/xlink" x="0px" y="0px"
	 viewBox="0 0 512 512" style="enable-background:new 0 0 512 512;" xml:space="preserve">
<path style="fill:#FEDB41;" d="M257,0C116.302,0,0,114.3,0,255s116.302,257,257,257s255-116.3,255-257S397.698,0,257,0z"/>
<path style="fill:#FFCC33;" d="M512,255c0,140.7-114.302,257-255,257V0C397.698,0,512,114.3,512,255z"/>
<path style="fill:#FEA832;" d="M257,60C149.598,60,60,147.599,60,255s89.598,197,197,197s195-89.599,195-197S364.402,60,257,60z"/>
<path style="fill:#FE9923;" d="M452,255c0,107.401-87.598,197-195,197V60C364.402,60,452,147.599,452,255z"/>
<path style="fill:#FEDB41;" d="M327.499,357.499c-22.2,22.5-44.7,20.7-70.499,9.6c-4.797-1.8-9.602-4.199-14.399-6.599
	c-25.203-12.9-37.999-16.8-51.801-3.001h-0.3c-14.099,14.101-35.101-7.2-20.999-20.999c22.5-22.5,25.499-45.2,22.797-66.501H165
	c-19.797,0-19.797-30,0-30h20.999c-5.398-23.101-10.796-47.1,0.601-71.1c11.7-24.899,42.802-36.6,70.4-34.199
	c30.901,2.701,60,22.8,60,60.3c0,19.799-30,19.799-30,0c0-17.999-14.099-27.599-30-30c-16.501-2.701-37.098,3.3-43.4,16.5
	c-7.2,15.601-2.699,33.3,2.098,53.701c0.601,1.5,0.901,3.3,1.201,4.799H287c19.797,0,19.797,30,0,30h-64.703
	c1.802,15,0.901,32.901-5.698,49.401c13.799,2.1,28.7,8.699,39.8,14.099c0.3,0,0.3,0.3,0.601,0.3
	c25.203,12.9,35.698,16.5,49.501,2.701C320.6,322.4,341.602,343.7,327.499,357.499z"/>
<g>
	<path style="fill:#FFCC33;" d="M287,270h-30v-30h30C306.797,240,306.797,270,287,270z"/>
	<path style="fill:#FFCC33;" d="M257,165v-30.3c30.901,2.701,60,22.8,60,60.3c0,19.799-30,19.799-30,0
		C287,177.001,272.901,167.401,257,165z"/>
	<path style="fill:#FFCC33;" d="M327.499,357.499c-22.2,22.5-44.7,20.7-70.499,9.6v-33.3c25.203,12.9,35.698,16.5,49.501,2.701
		C320.6,322.4,341.602,343.7,327.499,357.499z"/>
</g>
<g>
</g>
<g>
</g>
<g>
</g>
<g>
</g>
<g>
</g>
<g>
</g>
<g>
</g>
<g>
</g>
<g>
</g>
<g>
</g>
<g>
</g>
<g>
</g>
<g>
</g>
<g>
</g>
<g>
</g>
</svg>
