<?xml version="1.0" encoding="iso-8859-1"?>
<!-- Generator: Adobe Illustrator 19.0.0, SVG Export Plug-In . SVG Version: 6.00 Build 0)  -->
<svg version="1.1" id="Capa_1" xmlns="http://www.w3.org/2000/svg" xmlns:xlink="http://www.w3.org/1999/xlink" x="0px" y="0px"
	 viewBox="0 0 512.001 512.001" style="enable-background:new 0 0 512.001 512.001;" xml:space="preserve">
<path style="fill:#FEA832;" d="M245.402,76.603c25.499,25.496,39.6,59.099,39.6,94.797c0,36.599-15.3,70.503-39.3,95.698l-0.3,0.3
	c-57.601,54.903-140.101,50.703-190.801,0.001c-53.399-53.401-52.5-138.896,0-190.796C107.101,23.803,192.302,23.502,245.402,76.603
	z"/>
<path style="fill:#FE9923;" d="M245.402,76.603c25.499,25.496,39.6,59.099,39.6,94.797c0,36.599-15.3,70.503-39.3,95.698l-0.3,0.3
	L54.601,76.603C107.101,23.803,192.302,23.502,245.402,76.603z"/>
<g>
	<path style="fill:#FEDB41;" d="M251.102,235.901c-4.2,6.899-9.3,13.799-16.201,20.702h-0.3c-7.2,7.2-13.799,12.297-20.698,16.498
		c-8.701,5.101-9.901,16.798-3.001,23.397l190.702,189.001c5.7,6.002,15.298,6.002,20.999,0l21.301-21.302l21.301-21.299
		c5.999-5.698,5.999-15.3,0.3-20.999c0,0-185.603-183.9-191.003-188.998C267.602,226.002,256.202,227.2,251.102,235.901z"/>
	<path style="fill:#FEDB41;" d="M96.902,97.602l12.599,12.898c7.5-3.896,15.601-6.299,25.201-6.299c19.799-0.3,20.4,29.7,0.3,30
		c-7.5,0.3-13.2,2.402-16.8,5.698c-6.301,6.002-6,15.3,0,21.302c5.7,5.999,15.298,5.999,20.999,0
		c17.701-17.399,46.201-17.399,63.9,0c13.2,13.499,16.8,34.2,8.701,50.999v0.3l12.299,12.601c7.2,6.899,5.4,15.601,0,20.999
		s-14.099,7.2-21,0l-12.599-12.297c-9.3,4.797-20.7,6.599-32.999,5.698c-8.401-0.901-14.702-8.401-13.801-16.501
		c0.601-8.101,8.101-14.099,16.199-13.499c10.501,0.901,17.701-1.802,21.901-5.698c6.299-6.002,6.299-15,0-21.302
		c-6-5.702-15.3-5.702-21.301,0c-17.401,17.699-46.199,17.699-63.6,0c-12.599-12.602-17.7-31.799-8.4-51.003l-12.9-12.598
		c-7.2-7.2-5.099-15.901,0-21.299C81.001,92.5,90.002,90.702,96.902,97.602z"/>
</g>
<path style="fill:#FE9923;" d="M507.607,358.406l-63.296,63.311c-5.845,5.83-15.308,5.859-21.182,0.029L295.6,294.509
	c-5.859-5.859-5.859-15.352,0-21.211l63.604-63.604c5.758-5.758,15.27-5.956,21.255,0.03l42.29,42.597
	c5.83,5.889,5.815,15.352-0.044,21.182l-10.43,10.43l21.167,21.328l10.649-10.664c5.758-5.758,15.27-5.956,21.255,0.029
	l42.305,42.598C513.442,343.073,513.475,352.538,507.607,358.406z"/>
<path style="fill:#FEDB41;" d="M44.101,66.1c-58.801,58.499-58.801,153.303,0,211.802c56.7,56.697,148.5,60.901,211.8,0h0.3
	c29.4-30.601,43.801-68.701,43.801-106.502c0-38.101-15-76.201-44.101-105.3C197.401,7.301,102.302,7.301,44.101,66.1z
	 M234.901,87.099c39.6,39.902,46.502,100.803,16.201,148.802c-4.2,6.899-9.3,13.799-16.201,20.702h-0.3
	c-7.2,6.899-13.799,12.297-21.299,16.798c-47.401,30-108.3,23.097-148.2-16.498c-47.401-47.703-46.199-123.604,0-169.805
	c23.399-23.397,54.3-35.097,84.9-35.097C180.601,52.001,211.502,63.701,234.901,87.099z"/>
<g>
	<path style="fill:#FFCC33;" d="M274.501,232.902C279.901,238,465.504,421.9,465.504,421.9c5.698,5.698,5.698,15.3-0.3,20.999
		l-21.301,21.299L234.901,256.603c6.901-6.903,12.001-13.802,16.201-20.702C256.202,227.2,267.602,226.002,274.501,232.902z"/>
	<path style="fill:#FFCC33;" d="M203.101,161.201c13.2,13.499,16.8,34.2,8.701,50.999v0.3l12.299,12.601
		c7.2,6.899,5.4,15.601,0,20.999l-42.299-42.297c6.299-6.002,6.299-15,0-21.302c-6-5.702-15.3-5.702-21.301,0l-21.3-21.3
		C156.902,143.803,185.402,143.803,203.101,161.201z"/>
	<path style="fill:#FFCC33;" d="M96.902,97.602l12.599,12.898c7.5-3.896,15.601-6.299,25.201-6.299c19.799-0.3,20.4,29.7,0.3,30
		c-7.5,0.3-13.2,2.402-16.8,5.698L75.601,97.602C81.001,92.5,90.002,90.702,96.902,97.602z"/>
	<path style="fill:#FFCC33;" d="M255.901,66.1c29.101,29.099,44.101,67.2,44.101,105.3c0,37.8-14.401,75.901-43.801,106.501h-0.3
		l-21-21.299c6.901-6.903,12.001-13.802,16.201-20.702c30.301-47.998,23.399-108.899-16.201-148.801
		c-23.399-23.398-54.3-35.098-84.899-35.098c-30.6,0-61.501,11.7-84.9,35.098l-21-20.999C102.302,7.301,197.401,7.301,255.901,66.1z
		"/>
</g>
<g>
</g>
<g>
</g>
<g>
</g>
<g>
</g>
<g>
</g>
<g>
</g>
<g>
</g>
<g>
</g>
<g>
</g>
<g>
</g>
<g>
</g>
<g>
</g>
<g>
</g>
<g>
</g>
<g>
</g>
</svg>
