<?xml version="1.0" encoding="iso-8859-1"?>
<!-- Generator: Adobe Illustrator 19.0.0, SVG Export Plug-In . SVG Version: 6.00 Build 0)  -->
<svg version="1.1" id="Capa_1" xmlns="http://www.w3.org/2000/svg" xmlns:xlink="http://www.w3.org/1999/xlink" x="0px" y="0px"
	 viewBox="0 0 512 512" style="enable-background:new 0 0 512 512;" xml:space="preserve">
<path style="fill:#994C0F;" d="M341.499,11.999C313.297,4.2,284.799,0,256,0s-57.297,4.2-85.499,11.999
	c-9.298,2.701-13.502,13.5-8.701,21.901l47.999,81.899c3.303,5.4,9.602,8.401,15.601,7.2c10.202-1.8,20.397-2.999,30.6-2.999
	s20.398,1.199,30.601,2.999c6.299,1.201,12.598-1.8,15.601-7.2L350.2,33.9C355.001,25.499,350.797,14.7,341.499,11.999z"/>
<path style="fill:#713708;" d="M286.601,122.999C276.398,121.199,266.203,120,256,120V0c28.799,0,57.297,4.2,85.499,11.999
	c9.298,2.701,13.502,13.5,8.701,21.901l-47.999,81.9C299.198,121.199,292.899,124.2,286.601,122.999z"/>
<path style="fill:#FEC478;" d="M313.898,99.3C294.401,92.999,275.2,90,256,90c-19.797,0-39.001,3.3-58.198,9.3
	C174.401,107.1,161.5,132.6,169,156c7.8,24,33.3,35.4,47.999,30.298C229.6,182.1,242.802,180,256,180s26.4,2.1,38.701,6.299
	c2.098,0.901,4.797,1.201,7.5,1.201c14.7,0,34.197-11.4,40.8-31.5C350.501,132.599,337.599,107.1,313.898,99.3z"/>
<path style="fill:#FEB756;" d="M343.001,156c-6.603,20.099-26.1,31.5-40.8,31.5c-2.703,0-5.402-0.3-7.5-1.201
	C282.4,182.1,269.198,180,256,180V90c19.2,0,38.401,2.999,57.898,9.3C337.599,107.1,350.501,132.599,343.001,156z"/>
<path style="fill:#994C0F;" d="M303.102,157.5c-15-5.101-30.901-7.5-47.102-7.5s-32.102,2.399-47.402,7.5
	C148.297,170.4,61,266.3,61,377c0,120.899,111.299,135,195,135s195-14.101,195-135C451,263.899,362.201,169.799,303.102,157.5z"/>
<path style="fill:#713708;" d="M451,377c0,120.899-111.299,135-195,135V150c16.201,0,32.102,2.399,47.102,7.5
	C362.201,169.799,451,263.899,451,377z"/>
<path style="fill:#FEDB41;" d="M301,362c0,18.9-12.001,35.7-29.7,42.299H271V422c0,8.399-6.599,15-15,15s-15-6.601-15-15v-17.701
	c-9.902-3.3-19.501-9.6-27.598-19.2c-5.105-6.599-4.504-15.899,2.098-21.299c6.299-5.4,15.597-4.501,20.999,1.8
	c6.002,7.5,13.202,11.4,19.501,11.4c1.802,0,3.3-0.3,5.098-0.901c15.6-5.7,11.704-31.099-5.098-31.099c-24.902,0-45-20.101-45-45
	c0-18.001,10.203-35.101,30-42.001V240c0-8.401,6.599-15,15-15s15,6.599,15,15v17.999c7.8,2.701,15.3,6.601,22.2,13.2
	c5.698,5.7,5.999,15.3,0.3,21.301s-15.3,6-21.299,0.3C267.1,287.699,261.398,285,256,285c-2.102,0-3.9,0.3-5.698,1.199
	C235.302,292.5,239.799,315,256,315C280.902,315,301,337.099,301,362z"/>
<g>
	<path style="fill:#FFCC33;" d="M301,362c0,18.9-12.001,35.7-29.7,42.299H271V422c0,8.399-6.599,15-15,15v-60
		c1.802,0,3.3-0.3,5.098-0.901c15.6-5.7,11.704-31.099-5.098-31.099v-30C280.902,315,301,337.099,301,362z"/>
	<path style="fill:#FFCC33;" d="M272.201,292.8C267.1,287.699,261.398,285,256,285v-60c8.401,0,15,6.599,15,15v17.999
		c7.8,2.701,15.3,6.601,22.2,13.2c5.698,5.7,5.999,15.3,0.3,21.301S278.2,298.5,272.201,292.8z"/>
</g>
<g>
</g>
<g>
</g>
<g>
</g>
<g>
</g>
<g>
</g>
<g>
</g>
<g>
</g>
<g>
</g>
<g>
</g>
<g>
</g>
<g>
</g>
<g>
</g>
<g>
</g>
<g>
</g>
<g>
</g>
</svg>
