<?xml version="1.0" encoding="iso-8859-1"?>
<!-- Generator: Adobe Illustrator 19.0.0, SVG Export Plug-In . SVG Version: 6.00 Build 0)  -->
<svg version="1.1" id="Capa_1" xmlns="http://www.w3.org/2000/svg" xmlns:xlink="http://www.w3.org/1999/xlink" x="0px" y="0px"
	 viewBox="0 0 512 512" style="enable-background:new 0 0 512 512;" xml:space="preserve">
<path style="fill:#17ACE8;" d="M378.602,198.298c0,32.999-8.701,63.899-24.302,90.598H195.001v91.2
	c-99.597-0.901-179.998-81.898-179.998-181.798S95.404,17.401,195.001,16.5h1.802C297.301,16.5,378.602,97.799,378.602,198.298z"/>
<path style="fill:#1689FC;" d="M378.602,198.298c0,32.999-8.701,63.899-24.302,90.598H195.001V16.5h1.802
	C297.301,16.5,378.602,97.799,378.602,198.298z"/>
<path style="fill:#81C8EE;" d="M363.602,97.499C328.798,37.2,264.001,0,195.001,0C87.603,0,0.303,87.298,0.003,194.698v0.3
	c0,0.298,0,0.599,0,0.599c0.3,107.399,87.6,194.399,194.998,194.399c8.401,0,15-6.601,15-15v-59.999c0-8.401,6.599-15,15-15h125.701
	c5.402,0,10.199-2.701,12.902-7.5c17.399-29.101,26.396-62.7,26.396-97.499C389.999,160.197,381.001,126.598,363.602,97.499z
	 M127.501,44.399c-8.701,13.501-16.498,30.901-21.299,45.601H68.102C84.304,70.799,104.4,54.9,127.501,44.399z M48.305,119.999
	h49.497c-4.797,21.299-6.599,39.899-7.5,59.999H31.203C33.005,158.697,39.003,138.299,48.305,119.999z M48.605,269.997
	c-9.602-18.301-15.601-38.401-17.402-59.999h59.398c0.601,19.799,2.703,39.3,7.2,59.999H48.605z M68.403,299.997h37.8
	c5.098,15,12.598,32.098,21.299,45.599C104.4,335.096,84.304,319.496,68.403,299.997z M180.001,355.797
	c-20.398-10.501-32.999-34.501-41.396-55.799h41.396V355.797z M180.001,269.997h-50.697c-7.2-27.902-7.5-39.901-8.401-59.999h59.098
	V269.997z M180.001,179.998h-59.098c0.901-21.601,1.501-32.401,8.401-59.999h50.697V179.998z M180.001,89.999h-41.697
	c8.698-21.301,20.999-45.3,41.697-55.799L180.001,89.999L180.001,89.999z M210,34.2c15.901,7.798,30.901,27.9,42.001,55.799H210
	L210,34.2L210,34.2z M260.702,269.997H225c-5.398,0-10.199,1.199-15,2.699v-62.698h59.098
	C268.202,230.398,268.202,239.698,260.702,269.997z M210,179.998v-59.999h50.702c4.801,19.199,7.5,39.3,8.397,59.999H210z
	 M262.5,44.7c22.8,10.201,43.202,25.8,59.398,45.3h-38.101C277.5,71.998,269.099,54.599,262.5,44.7z M341.999,269.997h-49.801
	c4.801-22.5,6.302-44.101,6.899-59.999h59.999C357.3,231.297,351.598,251.396,341.999,269.997z M299.099,179.998
	c-0.897-20.402-3.596-40.501-7.8-59.999h50.105c9.895,18.6,15.597,39,17.695,59.999H299.099z"/>
<path style="fill:#4DBBEB;" d="M363.602,97.499C328.798,37.2,264.001,0,195.001,0v389.996c8.401,0,15-6.601,15-15v-59.999
	c0-8.401,6.599-15,15-15h125.701c5.402,0,10.199-2.701,12.902-7.5c17.399-29.101,26.396-62.7,26.396-97.499
	C389.999,160.197,381.001,126.598,363.602,97.499z M210,34.2c15.901,7.798,30.901,27.9,42.001,55.799H210L210,34.2L210,34.2z
	 M260.702,269.997H225c-5.398,0-10.199,1.199-15,2.699v-62.698h59.098C268.202,230.398,268.202,239.698,260.702,269.997z
	 M210,179.998v-59.999h50.702c4.801,19.199,7.5,39.3,8.397,59.999H210z M262.5,44.7c22.8,10.201,43.202,25.8,59.398,45.3h-38.101
	C277.5,71.998,269.099,54.599,262.5,44.7z M341.999,269.997h-49.801c4.801-22.5,6.302-44.101,6.899-59.999h59.999
	C357.3,231.297,351.598,251.396,341.999,269.997z M299.099,179.998c-0.897-20.402-3.596-40.501-7.8-59.999h50.105
	c9.895,18.6,15.597,39,17.695,59.999H299.099z"/>
<path style="fill:#32D736;" d="M496.99,329.997h-30c-8.401,0-15-6.301-15-15v-30c0-8.401-6.599-15-15-15H255
	c-8.401,0-15,6.599-15,15v30c0,8.399-6.599,15-15,15h-30c-8.401,0-15,6.599-15,15v91.999c0,8.399,6.599,15,15,15h30
	c8.401,0,15,6.599,15,15v30c0,8.399,6.599,15,15,15h181.991c8.401,0,15-6.601,15-15v-30c0-8.401,6.599-15,15-15h30
	c8.401,0,15-6.601,15-15v-91.999C511.99,336.596,505.391,329.997,496.99,329.997z"/>
<path style="fill:#10BB67;" d="M255.007,270.002h-30c-24.814,0-45,20.186-45,45v30v15h15h30c24.814,0,45-20.186,45-45v-30v-15
	H255.007z"/>
<path style="fill:#0CA656;" d="M466.998,270.002h-30h-15v15v30c0,25.239,19.775,45,45,45h30h15v-15v-30
	C511.997,290.188,491.812,270.002,466.998,270.002z"/>
<g>
	<path style="fill:#10BB67;" d="M344.999,329.997c-33.296,0-59.999,26.999-59.999,59.999c0,33.3,26.704,61.999,59.999,61.999
		c33.003,0,61.999-28.7,61.999-61.999C406.999,356.996,378.002,329.997,344.999,329.997z"/>
	<path style="fill:#10BB67;" d="M511.99,389.996v47c0,8.399-6.599,15-15,15h-30c-8.401,0-15,6.599-15,15v30c0,8.399-6.599,15-15,15
		H255c-8.401,0-15-6.601-15-15v-30c0-8.401-6.599-15-15-15h-30c-8.401,0-15-6.601-15-15v-47H511.99z"/>
</g>
<g>
	<path style="fill:#0CA656;" d="M406.999,389.996c0,33.3-28.997,61.999-61.999,61.999c-33.296,0-59.999-28.7-59.999-61.999H406.999z
		"/>
	<path style="fill:#0CA656;" d="M225.007,422.001h-30h-15v15v30c0,25.239,19.775,45,45,45h30h15v-15v-30
		C270.007,442.187,249.822,422.001,225.007,422.001z"/>
	<path style="fill:#0CA656;" d="M496.998,422.001h-30c-24.814,0-45,20.186-45,45v30v15h15h30c24.814,0,45-20.186,45-45v-30v-15
		H496.998z"/>
</g>
<g>
</g>
<g>
</g>
<g>
</g>
<g>
</g>
<g>
</g>
<g>
</g>
<g>
</g>
<g>
</g>
<g>
</g>
<g>
</g>
<g>
</g>
<g>
</g>
<g>
</g>
<g>
</g>
<g>
</g>
</svg>
