<svg id="Capa_1" enable-background="new 0 0 512 512" height="512" viewBox="0 0 512 512" width="512" xmlns="http://www.w3.org/2000/svg"><g><g><path d="m472 166h-432c-16.57 0-30 13.43-30 30v260c0 16.57 13.43 30 30 30h432c16.57 0 30-13.43 30-30v-260c0-16.57-13.43-30-30-30z" fill="#ffda8f"/><path d="m50 206h412v240h-412z" fill="#f3eff0"/><path d="m296 206c0 11.05-8.95 20-20 20h-40c-11.05 0-20-8.95-20-20 0-9.679 0-70.257 0-80h80z" fill="#ff7b79"/><path d="m216 386v10h-100v-10c0-27.61 22.39-50 50-50s50 22.39 50 50z" fill="#ff7b79"/><circle cx="166" cy="286" fill="#fce8d0" r="30"/></g><g><circle cx="386" cy="296" r="10"/><circle cx="336" cy="296" r="10"/><circle cx="286" cy="296" r="10"/><path d="m206 286c0-22.056-17.944-40-40-40s-40 17.944-40 40 17.944 40 40 40 40-17.944 40-40zm-40 20c-11.028 0-20-8.972-20-20s8.972-20 20-20 20 8.972 20 20-8.972 20-20 20z"/><path d="m166 326c-33.084 0-60 26.916-60 60v10c0 5.523 4.477 10 10 10h100c5.523 0 10-4.477 10-10v-10c0-33.084-26.916-60-60-60zm-40 60c0-22.056 17.944-40 40-40s40 17.944 40 40z"/><path d="m276 336c-5.523 0-10 4.477-10 10s4.477 10 10 10h120c5.523 0 10-4.477 10-10s-4.477-10-10-10z"/><path d="m396 386h-120c-5.523 0-10 4.477-10 10s4.477 10 10 10h120c5.523 0 10-4.477 10-10s-4.477-10-10-10z"/><circle cx="256" cy="486" r="10"/><path d="m472 156h-166v-25.316l116.402-97.001c4.243-3.536 4.816-9.841 1.28-14.084-3.535-4.243-9.841-4.816-14.084-1.28l-117.218 97.681h-72.76l-117.218-97.682c-4.242-3.536-10.548-2.962-14.084 1.28s-2.962 10.548 1.28 14.084l116.402 97.002v25.316h-166c-22.056 0-40 17.944-40 40v260c0 22.056 17.944 40 40 40h171c5.523 0 10-4.477 10-10s-4.477-10-10-10h-171c-11.028 0-20-8.972-20-20v-260c0-11.028 8.972-20 20-20h166v20h-156c-5.523 0-10 4.477-10 10v240c0 5.523 4.477 10 10 10h412c5.523 0 10-4.477 10-10v-240c0-5.523-4.477-10-10-10h-156v-20h166c11.028 0 20 8.972 20 20v260c0 11.028-8.972 20-20 20h-171c-5.523 0-10 4.477-10 10s4.477 10 10 10h171c22.056 0 40-17.944 40-40v-260c0-22.056-17.944-40-40-40zm-246-20h60v70c0 5.514-4.486 10-10 10h-40c-5.514 0-10-4.486-10-10zm226 300h-392v-220h147.72c4.128 11.639 15.243 20 28.28 20h40c13.036 0 24.152-8.361 28.28-20h147.72z"/></g></g></svg>