<svg id="Capa_1" enable-background="new 0 0 512 512" height="512" viewBox="0 0 512 512" width="512" xmlns="http://www.w3.org/2000/svg"><g><g><path d="m10 236h492v266h-492z" fill="#ffda8f"/><path d="m502 236-86 68.72v-113.16z" fill="#ff7b79"/><path d="m416 304.72c-17.02 13.601-102.353 81.793-119.33 95.36-10.7 9.88-24.99 15.92-40.67 15.92s-29.97-6.04-40.67-15.93c-.572-.457-119.164-95.217-119.33-95.35 0-7.455 0-287.074 0-294.72h320z" fill="#f3eff0"/><g fill="#ff7b79"><path d="m296 76c23.68 0 40 20.07 40 43.84 0 32.88-32.55 54.65-80 96.16-47.45-41.51-80-63.28-80-96.16 0-23.77 16.32-43.84 40-43.84 30.4 0 40 35 40 35s9.6-35 40-35z"/><path d="m96 191.56v113.16l-86-68.72z"/></g></g><g><path d="m228.779 205.779c6.588 5.614 13.401 11.418 20.637 17.748 1.885 1.648 4.234 2.473 6.584 2.473s4.699-.825 6.584-2.474c7.235-6.329 14.048-12.134 20.637-17.748 37.804-32.209 62.779-53.488 62.779-85.938 0-29.585-21.002-53.84-50-53.84-19.864 0-32.464 11.341-40 22.294-7.536-10.953-20.136-22.294-40-22.294-29.002 0-50 24.259-50 53.84 0 32.45 24.975 53.729 62.779 85.939zm-12.779-119.779c22.274 0 30.044 26.543 30.366 27.682 1.204 4.324 5.143 7.318 9.634 7.318 4.504 0 8.452-3.011 9.644-7.355.076-.276 7.842-27.645 30.356-27.645 17.103 0 30 14.548 30 33.84 0 23.215-20.984 41.095-55.75 70.715-4.613 3.931-9.336 7.955-14.25 12.197-4.914-4.243-9.637-8.267-14.25-12.197-34.766-29.621-55.75-47.5-55.75-70.715 0-19.292 12.897-33.84 30-33.84z"/><path d="m166 266h180c5.522 0 10-4.477 10-10s-4.478-10-10-10h-180c-5.523 0-10 4.477-10 10s4.477 10 10 10z"/><path d="m306 296h-100c-5.523 0-10 4.477-10 10s4.477 10 10 10h100c5.522 0 10-4.477 10-10s-4.478-10-10-10z"/><circle cx="256" cy="502" r="10"/><path d="m10 512h201c5.523 0 10-4.477 10-10s-4.477-10-10-10h-191v-235.209c18.205 14.547 110.825 88.555 128.821 102.935l-52.976 48.928c-4.057 3.747-4.309 10.074-.562 14.131 3.736 4.045 10.062 4.32 14.131.562l55.21-50.992 44.192 35.312c12.931 11.824 29.672 18.333 47.184 18.333 17.506 0 34.247-6.504 47.181-18.322l44.198-35.319 55.206 50.988c4.085 3.771 10.409 3.47 14.131-.562 3.748-4.057 3.496-10.384-.561-14.131l-52.972-48.925 128.817-102.938v235.209h-191c-5.522 0-10 4.477-10 10s4.478 10 10 10h201c5.522 0 10-4.477 10-10v-266c0-3.622-2.026-7.111-5.365-8.857-.015-.008-.029-.019-.044-.027l-80.591-41.645v-175.471c0-5.523-4.478-10-10-10h-320c-5.523 0-10 4.477-10 10v175.471l-80.591 41.645c-3.287 1.694-5.409 5.181-5.409 8.884v266c0 5.523 4.477 10 10 10zm473.718-274.191-57.718 46.122v-75.948zm-77.718-217.809v279.913c-121.182 96.848-115.611 92.356-116.114 92.819-9.266 8.557-21.3 13.268-33.886 13.268-12.589 0-24.622-4.714-33.882-13.273-.495-.458 4.701 3.735-116.118-92.818v-279.909zm-320 263.928-57.717-46.119 57.717-29.825z"/></g></g></svg>