<svg id="Capa_1" enable-background="new 0 0 512 512" height="512" viewBox="0 0 512 512" width="512" xmlns="http://www.w3.org/2000/svg"><g><g><path d="m299 176c-10.309 0-191.708 0-199 0l-30-40h-60l25.14 62.85v.01l54.86 37.14h126v20c0 66.442 53.915 120 120 120h106c33.14 0 60-26.86 60-60v-20z" fill="#ff7b79"/><path d="m502 296h-120v-120c66.27 0 120 53.73 120 120z" fill="#f3eff0"/><path d="m382 176v120h-43c-22.09 0-40-17.91-40-40v-80z" fill="#c1b0b5"/><g fill="#f3eff0"><path d="m362 126 20 50c-18.72 0-146.273 0-166 0l20-50z"/><path d="m50 196c22.09 0 40 17.91 40 40s-17.91 40-40 40-40-17.91-40-40c0-16.84 10.4-31.24 25.14-37.14 4.59-1.85 9.61-2.86 14.86-2.86z"/></g></g><g><path d="m502 86c5.523 0 10-4.477 10-10s-4.477-10-10-10h-193v-10c0-5.523-4.477-10-10-10s-10 4.477-10 10v10h-193c-5.523 0-10 4.477-10 10s4.477 10 10 10h193v30h-53c-4.089 0-7.766 2.489-9.285 6.286l-17.485 43.714h-104.23l-27-36c-1.889-2.518-4.853-4-8-4h-60c-3.318 0-6.42 1.646-8.281 4.394-1.86 2.748-2.236 6.239-1.004 9.32l21.801 54.503c-13.928 9.112-22.516 24.631-22.516 41.783 0 27.57 22.43 50 50 50 24.146 0 44.348-17.205 48.994-40h107.006v10c0 58.793 39.494 110.209 96.067 125.506l-32.247 64.494h-13.82c-16.542 0-30-13.458-30-30 0-5.523-4.477-10-10-10s-10 4.477-10 10c0 27.57 22.43 50 50 50h58c5.523 0 10-4.477 10-10s-4.477-10-10-10h-21.82l30.359-60.719c4.455.46 8.955.719 13.46.719h59.82l30 60h-21.819c-5.523 0-10 4.477-10 10s4.477 10 10 10h58c27.57 0 50-22.43 50-50 0-5.523-4.477-10-10-10s-10 4.477-10 10c0 16.542-13.458 30-30 30h-13.82l-30-60h23.82c38.598 0 70-31.402 70-70v-20c0-69.387-54.644-126.25-123.158-129.82l-17.557-43.894c-1.519-3.797-5.196-6.286-9.285-6.286h-53v-30zm-452 180c-16.542 0-30-13.458-30-30 0-16.911 13.702-30 30-30 16.542 0 30 13.458 30 30s-13.458 30-30 30zm392 100h-106c-60.685 0-110-48.648-110-110v-20c0-5.523-4.477-10-10-10h-117.006c-4.646-22.795-24.847-40-48.994-40-3.017 0-5.992.275-8.909.801l-16.32-40.801h40.229l27 36c1.889 2.518 4.853 4 8 4h189v70c0 27.57 22.43 50 50 50h153v10c0 27.57-22.43 50-50 50zm-70-180v100h-33c-16.542 0-30-13.458-30-30v-70zm119.541 100h-99.541v-99.541c52.69 4.771 94.77 46.851 99.541 99.541zm-124.311-120h-136.46l12-30h112.46z"/><circle cx="359" cy="456" r="10"/></g></g></svg>