<svg id="Capa_1" enable-background="new 0 0 512.002 512.002" height="512" viewBox="0 0 512.002 512.002" width="512" xmlns="http://www.w3.org/2000/svg"><g><g><path d="m96.001 256.001h320v246h-320z" fill="#ff7b79"/><path d="m386.001 10.001v246h-210v-246h210z" fill="#d8ec84"/><path d="m216.001 86.001h130v60h-130z" fill="#f3eff0"/><path d="m296.001 306.001c23.68 0 40 20.07 40 43.84 0 32.88-32.55 54.65-80 96.16-47.45-41.51-80-63.28-80-96.16 0-23.77 16.32-43.84 40-43.84 30.4 0 40 35 40 35s9.6-35 40-35z" fill="#fce8d0"/><path d="m176.001 10.001v246h-50v-206c0-22.09 17.91-40 40-40h10z" fill="#c1b0b5"/></g><g><path d="m346.001 349.841c0-29.585-21.002-53.84-50-53.84-19.864 0-32.464 11.341-40 22.294-7.536-10.953-20.136-22.294-40-22.294-29.002 0-50 24.259-50 53.84 0 32.45 24.975 53.729 62.779 85.939 6.589 5.614 13.401 11.418 20.637 17.748 1.885 1.649 4.234 2.474 6.584 2.474s4.699-.825 6.584-2.474c7.235-6.329 14.048-12.134 20.637-17.748 37.804-32.21 62.779-53.489 62.779-85.939zm-90 82.912c-4.914-4.243-9.637-8.267-14.25-12.197-34.766-29.621-55.75-47.5-55.75-70.715 0-19.292 12.897-33.84 30-33.84 22.274 0 30.044 26.543 30.366 27.682 1.204 4.324 5.143 7.318 9.634 7.318 4.504 0 8.452-3.011 9.644-7.355.076-.276 7.843-27.645 30.356-27.645 17.103 0 30 14.548 30 33.84 0 23.215-20.984 41.095-55.75 70.715-4.613 3.931-9.336 7.955-14.25 12.197z"/><path d="m386.001.001h-220c-27.57 0-50 22.43-50 50v196h-16.606l-83.307-63.933c-4.381-3.363-10.658-2.537-14.021 1.845-3.362 4.381-2.536 10.659 1.846 14.021l82.088 62.998v241.069c0 5.523 4.478 10 10 10h115c5.522 0 10-4.477 10-10s-4.478-10-10-10h-105v-226h300v226h-105c-5.522 0-10 4.477-10 10s4.478 10 10 10h115c5.522 0 10-4.477 10-10v-241.069l82.088-62.998c4.382-3.362 5.208-9.64 1.846-14.021-3.363-4.381-9.641-5.205-14.021-1.845l-83.307 63.933h-16.605v-236c-.001-5.523-4.479-10-10.001-10zm-10 246h-190v-226h190zm-240-196c0-16.542 13.458-30 30-30v226h-30z"/><path d="m216.001 156.001h130c5.522 0 10-4.477 10-10v-60c0-5.523-4.478-10-10-10h-130c-5.522 0-10 4.477-10 10v60c0 5.523 4.477 10 10 10zm10-60h110v40h-110z"/><path d="m336.001 186.001h-100c-5.522 0-10 4.477-10 10s4.478 10 10 10h100c5.522 0 10-4.477 10-10s-4.478-10-10-10z"/><circle cx="256.001" cy="502.001" r="10"/></g></g></svg>