<svg id="Capa_1" enable-background="new 0 0 511.962 511.962" height="512" viewBox="0 0 511.962 511.962" width="512" xmlns="http://www.w3.org/2000/svg"><g><g><path d="m465.107 27.972c7.28 16.38-1.32 35.58-18.5 40.67-22.416 6.647-47.048 11.32-70.62 11.32-23.42 0-47.909-4.599-70.64-11.32-17.18-5.1-25.78-24.28-18.51-40.65l.11-.26c6.13-13.82 21.58-20.7 36.08-16.42 14.69 4.33 34.06 8.65 52.96 8.65 18.83 0 38.23-4.33 52.95-8.67 14.49-4.27 29.91 2.61 36.04 16.41z" fill="#b3f1ff"/><path d="m399.277 461.692 6.71 40.27h-60l6.71-40.27c1.9-11.39 11.75-19.73 23.29-19.73s21.39 8.34 23.29 19.73z" fill="#c1b0b5"/><path d="m225.107 27.972c7.28 16.38-1.32 35.58-18.5 40.67-22.416 6.647-47.048 11.32-70.62 11.32-23.42 0-47.909-4.599-70.64-11.32-17.18-5.1-25.78-24.28-18.51-40.65l.11-.26c6.13-13.82 21.58-20.7 36.08-16.42 14.69 4.33 34.06 8.65 52.96 8.65 18.83 0 38.23-4.33 52.95-8.67 14.49-4.27 29.91 2.61 36.04 16.41z" fill="#b3f1ff"/><path d="m159.277 461.692 6.71 40.27h-60l6.71-40.27c1.9-11.39 11.75-19.73 23.29-19.73s21.39 8.34 23.29 19.73z" fill="#c1b0b5"/></g><g><path d="m445.987 187.852v-108.629c1.157-.329 2.321-.654 3.461-.992 10.854-3.216 19.81-10.98 24.572-21.304 14.46-31.345-15.06-64.906-47.911-55.226-18.332 5.405-35.664 8.262-50.122 8.262-14.504 0-31.84-2.85-50.129-8.241-33.151-9.784-62.296 24.053-47.932 55.194 4.761 10.322 13.718 18.091 24.585 21.316 1.14.337 2.303.672 3.476 1.004v108.616c0 46.453 22.007 89.922 60 117.327v128.292c-11.868 3.67-21.01 13.73-23.154 26.577l-6.71 40.27c-.482 2.899.334 5.865 2.234 8.107 1.899 2.243 4.69 3.536 7.63 3.536h60c2.939 0 5.73-1.293 7.63-3.536s2.717-5.208 2.234-8.107l-6.711-40.272c-2.143-12.846-11.285-22.905-23.153-26.575v-128.293c39.123-28.224 60-72.341 60-117.326zm-70-97.89c15.583 0 32.355-1.922 50-5.721v45.721h-100v-45.719c17.656 3.798 34.428 5.719 50 5.719zm-49.977 100c-.012-.703-.024-40-.024-40h100s-.012 39.297-.024 40zm-29.923-141.423c-7.212-15.634 7.494-32.536 24.112-27.634 20.391 6.011 39.16 9.058 55.787 9.058 16.58 0 35.347-3.054 55.776-9.078 16.666-4.911 31.283 12.089 24.096 27.664-2.386 5.171-6.68 8.902-12.095 10.507-21.422 6.352-45.067 10.907-67.777 10.907-22.567 0-46.073-4.484-67.794-10.906-5.419-1.61-9.719-5.345-12.105-10.518zm31.877 161.413h96.043c-5.559 31.122-22.587 58.771-48.02 77.773-25.431-18.997-42.46-46.644-48.023-77.773zm66.219 282.01h-36.393l4.77-28.625c1.101-6.591 6.747-11.375 13.427-11.375s12.326 4.784 13.426 11.374z"/><path d="m37.926 56.915c4.761 10.322 13.718 18.091 24.585 21.317 1.141.337 2.303.672 3.475 1.004v108.616c0 46.453 22.006 89.921 60 117.326v20.783c0 5.523 4.477 10 10 10s10-4.477 10-10v-20.784c39.049-28.17 60-72.244 60-117.326v-108.628c1.157-.329 2.321-.655 3.461-.993 10.853-3.216 19.809-10.98 24.572-21.303 14.462-31.348-15.062-64.907-47.91-55.227-18.333 5.405-35.665 8.262-50.123 8.262-14.505 0-31.84-2.85-50.129-8.241-33.222-9.804-62.269 24.107-47.931 55.194zm48.084 133.047c-.012-.703-.024-40-.024-40h100s-.012 39.297-.024 40zm99.977-60h-100v-45.719c17.656 3.798 34.429 5.719 50 5.719 15.584 0 32.356-1.922 50-5.721zm-50.001 157.763c-25.43-18.997-42.46-46.645-48.023-77.773h96.044c-5.559 31.122-22.587 58.772-48.021 77.773zm55.777-266.84c16.631-4.905 31.293 12.062 24.095 27.664-4.383 9.5-12.447 10.796-22.681 13.441-20.5 5.29-39.743 7.973-57.191 7.973-17.427 0-36.663-2.679-57.156-7.958-10.228-2.657-18.336-3.911-22.743-13.465-7.233-15.682 7.55-32.522 24.112-27.634 20.39 6.011 39.16 9.058 55.787 9.058 16.58-.002 35.347-3.056 55.777-9.079z"/><circle cx="135.987" cy="370.962" r="10"/><path d="m125.987 433.471c-11.869 3.67-21.011 13.73-23.154 26.577l-6.71 40.27c-.483 2.899.333 5.865 2.234 8.107 1.9 2.243 4.69 3.536 7.63 3.536h60c2.939 0 5.73-1.293 7.63-3.536s2.717-5.208 2.234-8.107l-6.71-40.272c-2.143-12.846-11.285-22.905-23.154-26.575v-17.509c0-5.523-4.477-10-10-10s-10 4.477-10 10zm28.195 58.491h-36.392l4.77-28.625c1.1-6.591 6.746-11.375 13.426-11.375s12.327 4.784 13.426 11.374z"/></g></g></svg>