<svg id="Capa_1" enable-background="new 0 0 512 512" height="512" viewBox="0 0 512 512" width="512" xmlns="http://www.w3.org/2000/svg"><g><g><path d="m372.2 10c-57 0-103.8 52.2-116.2 78-12.4-25.8-59.2-78-116.2-78-59.2 0-103.8 61.2-103.8 120 0 64.87 34.79 123.72 122.01 192.25h.01l170.89 18.91h.01c105.69-76.81 147.08-140.4 147.08-211.16 0-58.8-44.6-120-103.8-120z" fill="#ff7b79"/><path d="m196 370h120v132h-120z" fill="#c1b0b5"/><path d="m316 170c-11.05 0-20 8.95-20 20v-20c0-11.05-8.95-20-20-20s-20 8.95-20 20v-20c0-11.05-8.95-20-20-20s-20 8.95-20 20v20c0-11.05-8.95-20-20-20s-20 8.95-20 20v80c-11.05 0-20 8.95-20 20v35.28c0 27.278 15.372 52.4 40 64.72h120c2.474-6.308 20-31.868 20-72.24 0-12.114 0-95.671 0-107.76 0-11.05-8.95-20-20-20z" fill="#fce8d0"/></g><g><circle cx="438" cy="240" r="10"/><path d="m456.354 210.139c5.027 2.287 10.957.066 13.244-4.959 11.037-24.249 16.402-48.841 16.402-75.18 0-64.038-48.638-130-113.8-130-53.189 0-96.183 40.193-116.2 68.682-20.017-28.489-63.011-68.682-116.2-68.682-65.128 0-113.8 65.926-113.8 130 0 69.312 38.036 130.491 123.217 198.044 5.77 20.099 18.897 37.145 36.783 47.861v126.095c0 5.522 4.478 10 10 10h120c5.522 0 10-4.478 10-10v-129.639c3.16-6.599 7.032-13.079 11.302-24.946 31.787-23.26 57.435-45.055 78.302-66.559 3.846-3.964 3.751-10.295-.213-14.141-3.963-3.846-10.295-3.75-14.141.213-15.717 16.198-34.341 32.63-56.494 49.84.823-6.287 1.244-12.632 1.244-19.008 0-23.165 0-83.192 0-107.76 0-16.542-13.458-30-30-30-3.904 0-7.633.758-11.057 2.121-3.47-12.731-15.128-22.121-28.943-22.121-3.904 0-7.633.758-11.057 2.121-3.47-12.731-15.128-22.121-28.943-22.121s-25.473 9.39-28.943 22.121c-3.424-1.363-7.153-2.121-11.057-2.121-16.542 0-30 13.458-30 30v71.72c-11.639 4.128-20 15.243-20 28.28v29.583c-68.979-58.27-100-111.191-100-169.583 0-52.028 38.522-110 93.8-110 46.096 0 92.456 41.686 107.188 72.332 1.664 3.465 5.168 5.668 9.012 5.668s7.348-2.203 9.013-5.668c14.527-30.223 60.565-72.332 107.187-72.332 55.277 0 93.8 57.972 93.8 110 0 23.421-4.777 45.302-14.604 66.895-2.289 5.027-.068 10.956 4.958 13.244zm-150.354 281.861h-100v-112h100zm-80-342c0-5.514 4.486-10 10-10s10 4.486 10 10v90h-20zm-30 10c5.514 0 10 4.486 10 10v70h-20v-70c0-5.514 4.486-10 10-10zm-30 110c0-5.514 4.486-10 10-10.01h68.286c-4.127 11.651-15.249 20.01-28.286 20.01h-20c-5.522 0-10 4.478-10 10s4.478 10 10 10c16.542 0 30 13.458 30 30 0 5.522 4.478 10 10 10s10-4.478 10-10c0-12.7-4.767-24.301-12.596-33.13 19.014-7.083 32.596-25.418 32.596-46.87v-80c0-5.514 4.486-10 10-10s10 4.486 10 10v80c0 5.522 4.478 10 10 10s10-4.478 10-10v-60c0-5.514 4.486-10 10-10s10 4.486 10 10v107.76c0 29.918-9.535 48.136-16.18 62.24h-111.322c-20.539-11.206-32.498-32.429-32.498-54.72z"/></g></g></svg>