<svg id="Capa_1" enable-background="new 0 0 512 512" height="512" viewBox="0 0 512 512" width="512" xmlns="http://www.w3.org/2000/svg"><g><g><path d="m436 90v100.09c0 127.09-68.9 250.19-180 311.91-111.1-61.72-180-184.82-180-311.91v-100.09c64.03 0 125.44-25.44 170.71-70.71l9.29-9.29 9.29 9.29c45.27 45.27 106.68 70.71 170.71 70.71z" fill="#f3eff0"/><path d="m386 135.75v54.34c0 99.28-49.17 197.57-130 253.16-80.83-55.59-130-153.88-130-253.16v-54.34c47.5-8.16 91.96-27.94 130-57.93 38.04 29.99 82.5 49.77 130 57.93z" fill="#d8ec84"/><path d="m316 236v40h-40v40h-40v-40h-40v-40h40v-40h40v40z" fill="#ff7b79"/></g><g><path d="m226 196v30h-30c-5.522 0-10 4.478-10 10v40c0 5.522 4.478 10 10 10h30v30c0 5.522 4.478 10 10 10h40c5.522 0 10-4.478 10-10v-30h30c5.522 0 10-4.478 10-10v-40c0-5.522-4.478-10-10-10h-30v-30c0-5.522-4.478-10-10-10h-40c-5.523 0-10 4.477-10 10zm20 40v-30h20v30c0 5.522 4.478 10 10 10h30v20h-30c-5.522 0-10 4.478-10 10v30h-20v-30c0-5.522-4.478-10-10-10h-30v-20h30c5.522 0 10-4.478 10-10z"/><path d="m396 135.75c0-4.869-3.508-9.031-8.307-9.855-45.64-7.841-89.037-27.18-125.502-55.928-3.631-2.861-8.752-2.861-12.383 0-36.465 28.748-79.862 48.087-125.502 55.928-4.799.824-8.307 4.986-8.307 9.855v54.34c0 103.781 51.741 204.598 134.333 261.399 1.707 1.174 3.687 1.761 5.667 1.761s3.96-.587 5.667-1.761c82.503-56.74 134.334-157.507 134.334-261.4zm-20 54.339c0 95.358-45.813 186.992-120 240.914-74.188-53.922-120-145.556-120-240.914v-46.034c43.322-8.727 84.507-27.132 120-53.632 35.493 26.5 76.678 44.905 120 53.632z"/><circle cx="388" cy="369" r="10"/><path d="m436 80c-61.814 0-119.93-24.071-163.639-67.781l-9.29-9.29c-3.906-3.904-10.236-3.904-14.143 0l-9.29 9.29c-43.709 43.709-101.824 67.781-163.638 67.781-5.522 0-10 4.478-10 10v100.09c0 130.487 70.639 257.04 185.144 320.651 1.51.839 3.183 1.259 4.856 1.259s3.347-.42 4.856-1.259c43.215-24.007 80.563-56.919 111.006-97.819 3.298-4.43 2.38-10.695-2.051-13.992-4.43-3.298-10.695-2.379-13.992 2.051-27.59 37.066-61.151 67.162-99.817 89.524-103.453-59.904-170.002-177.174-170.002-300.416v-90.285c61.012-2.394 121.582-27.244 167.781-73.443l2.219-2.219 2.219 2.219c43.705 43.705 103.271 70.912 167.781 73.443v90.285c0 46.143-9.108 91.516-27.071 134.857-2.114 5.103.308 10.953 5.409 13.067 5.104 2.113 10.952-.307 13.067-5.409 18.974-45.781 28.595-93.73 28.595-142.515v-100.089c0-5.523-4.478-10-10-10z"/></g></g></svg>