<svg id="Capa_1" enable-background="new 0 0 512 512" height="512" viewBox="0 0 512 512" width="512" xmlns="http://www.w3.org/2000/svg"><g><g><path d="m166 190s-22.5-20-45-20-45 20-45 20c0-99.41 80.59-180 180-180s180 80.59 180 180c0 0-22.5-20-45-20s-45 20-45 20-22.5-20-45-20-45 20-45 20-22.5-20-45-20-45 20-45 20z" fill="#b3f1ff"/><path d="m376 316v166c0 11.05-8.95 20-20 20h-200c-11.05 0-20-8.95-20-20v-166c0-11.05 8.95-20 20-20h200c11.05 0 20 8.95 20 20z" fill="#ff7b79"/><path d="m316 379v40h-40v40h-40v-40h-40v-40h40v-40h40v40z" fill="#fce8d0"/></g><g><path d="m286 459v-30h30c5.523 0 10-4.478 10-10v-40c0-5.522-4.477-10-10-10h-30v-30c0-5.522-4.477-10-10-10h-40c-5.523 0-10 4.478-10 10v30h-30c-5.523 0-10 4.478-10 10v40c0 5.522 4.477 10 10 10h30v30c0 5.522 4.477 10 10 10h40c5.523 0 10-4.478 10-10zm-20-40v30h-20v-30c0-5.522-4.477-10-10-10h-30v-20h30c5.523 0 10-4.478 10-10v-30h20v30c0 5.522 4.477 10 10 10h30v20h-30c-5.523 0-10 4.478-10 10z"/><path d="m68.018 196.024 71.596 94.865c-8.189 5.362-13.614 14.613-13.614 25.111v166c0 16.542 13.458 30 30 30h55c5.523 0 10-4.478 10-10s-4.477-10-10-10h-55c-5.514 0-10-4.486-10-10v-166c0-5.514 4.486-10 10-10h199.968c.008 0 .017.001.025.001.004 0 .008-.001.013-.001 5.512.003 9.995 4.488 9.995 10v166c0 5.514-4.486 10-10 10h-55c-5.523 0-10 4.478-10 10s4.477 10 10 10h55c16.542 0 30-13.458 30-30v-166c0-10.498-5.425-19.749-13.614-25.111l71.596-94.865c1.31-1.736 2.018-3.957 2.018-6.024 0-.019-.001-.085-.001-.099-.055-104.721-85.267-189.901-190-189.901s-189.945 85.18-189.999 189.901c0 .014-.001.08-.001.099 0 2.058.71 4.292 2.018 6.024zm197.982 89.976v-91.266c7.493-5.724 22.036-14.734 35-14.734 11.845 0 25.148 7.641 33.06 13.318l-34.975 92.682zm-20 0h-33.085l-34.974-92.681c7.918-5.683 21.217-13.319 33.059-13.319 12.876 0 27.477 9.03 35 14.75zm-88.434-90.027 33.972 90.027h-30.557l-71.016-94.095c8.038-5.455 20.153-11.905 31.035-11.905 13.84 0 29.672 10.431 36.566 15.973zm193.453 90.027h-30.557l33.978-90.041c6.867-5.549 22.625-15.959 36.56-15.959 10.884 0 23.002 6.453 31.035 11.904zm-95.019-266c87.025 0 158.974 65.733 168.835 150.154-9.36-5.24-21.435-10.154-33.835-10.154-13.131 0-25.905 5.51-35.468 11.083-1.46-30.106-6.388-58.883-14.49-84.137-1.687-5.26-7.322-8.151-12.577-6.468-5.259 1.688-8.154 7.318-6.467 12.577 7.439 23.188 12.021 49.658 13.483 77.462-9.445-5.374-21.795-10.517-34.481-10.517-12.919 0-25.49 5.334-35 10.814v-80.814c0-5.522-4.477-10-10-10s-10 4.478-10 10v80.814c-9.51-5.48-22.081-10.814-35-10.814-12.686 0-25.036 5.143-34.482 10.517 1.462-27.803 6.044-54.274 13.483-77.462 1.687-5.259-1.208-10.89-6.467-12.577-5.259-1.685-10.89 1.209-12.577 6.468-8.102 25.254-13.031 54.031-14.49 84.137-9.562-5.573-22.336-11.083-35.467-11.083-12.4 0-24.475 4.914-33.835 10.154 9.861-84.421 81.81-150.154 168.835-150.154z"/><circle cx="256" cy="502" r="10"/></g></g></svg>