<svg id="Capa_1" enable-background="new 0 0 512 512" height="512" viewBox="0 0 512 512" width="512" xmlns="http://www.w3.org/2000/svg"><g><g><path d="m402 136h-212v-46c0-44.18-35.82-80-80-80h-80c-11.05 0-20 8.95-20 20s8.95 20 20 20h80c22.09 0 40 17.91 40 40v132c-77.323 0-140 62.67-140 140 0 77.323 62.67 140 140 140 77.323 0 140-62.67 140-140 0-63.419-42.163-116.982-100-134.193v-51.807h152v126h40v-126h20c11.03 0 20 8.97 20 20 0 11.05 8.95 20 20 20s20-8.95 20-20c0-33.09-26.91-60-60-60z" fill="#f3eff0"/><circle cx="422" cy="462" fill="#f3eff0" r="40"/><g fill="#b3f1ff"><path d="m382 302c-15.503 0-96.423 0-105.47 0l13.47 60h132v-20c0-22.09-17.91-40-40-40z"/><circle cx="150" cy="362" r="40"/></g></g><g><path d="m502 452h-31.006c-3.987-19.563-19.431-35.007-38.994-38.994 0-14.631 0-56.165 0-71.006 0-24.146-17.205-44.348-40-48.994v-107.006h10c5.514 0 10 4.486 10 10 0 16.542 13.458 30 30 30s30-13.458 30-30c-.929-42.014-33.909-70-70-70h-60.999c-5.523 0-10 4.478-10 10s4.477 10 10 10h60.999c27.57 0 50 22.43 50 50 0 5.514-4.486 10-10 10s-10-4.486-10-10c-1.744-20.52-15.991-30-30-30h-20c-5.523 0-10 4.478-10 10v116h-20v-116c0-5.522-4.477-10-10-10h-152c-5.523 0-10 4.478-10 10v39.03c-6.587-1.338-13.265-2.242-20-2.687v-122.343c0-27.57-22.43-50-50-50h-80c-5.514 0-10-4.486-10-10s4.486-10 10-10h80c38.598 0 70 31.402 70 70v46c0 5.522 4.477 10 10 10h60.999c5.523 0 10-4.478 10-10s-4.477-10-10-10h-50.999v-36c0-49.626-40.374-90-90-90h-80c-16.542 0-30 13.458-30 30s13.458 30 30 30h80c16.542 0 30 13.458 30 30v122.336c-77.239 5.051-140 69.184-140 149.664 0 82.921 67.096 150 150 150 80.527 0 144.617-62.815 149.664-140h112.336v41.006c-22.795 4.646-40 24.847-40 48.994 0 27.57 22.43 50 50 50 24.146 0 44.348-17.205 48.994-40h31.006c5.523 0 10-4.478 10-10s-4.477-10-10-10zm-170-266v106h-49.301c-17.564-33.247-47.08-58.829-82.699-71.439v-34.561zm-133 166c-1.271-6.283-3.738-12.231-7.288-17.569l57.003-57.003c7.512 8.757 13.82 18.423 18.782 28.862 6.868 14.459 10.924 29.796 12.12 45.71zm-178.62 20h80.62c1.271 6.283 3.738 12.231 7.288 17.569l-57.019 57.019c-18.068-21.03-28.8-46.945-30.889-74.588zm30.889-94.588 57.02 57.02c-3.55 5.34-6.018 11.286-7.289 17.568h-80.62c2.089-27.644 12.822-53.559 30.889-74.588zm98.731 54.588c8.002 0 15.529 3.124 21.204 8.807 5.672 5.664 8.796 13.19 8.796 21.193s-3.124 15.529-8.806 21.203c-5.665 5.673-13.192 8.797-21.194 8.797s-15.529-3.124-21.204-8.807c-5.672-5.664-8.796-13.19-8.796-21.193s3.124-15.529 8.806-21.203c5.665-5.673 13.192-8.797 21.194-8.797zm-27.568 71.71c5.34 3.551 11.287 6.018 17.568 7.289v80.621c-27.644-2.089-53.559-12.822-74.588-30.89zm37.568 7.29c6.283-1.271 12.231-3.739 17.569-7.288l57.019 57.019c-21.03 18.068-46.945 28.801-74.588 30.89zm74.572-147.714-57.004 57.004c-5.34-3.551-11.287-6.018-17.568-7.289v-80.612c27.904 2.125 53.719 13.04 74.572 30.897zm-94.572 49.714c-6.283 1.271-12.231 3.739-17.569 7.288l-57.019-57.018c21.03-18.068 46.945-28.801 74.588-30.89zm108.731 133.588-57.02-57.02c3.55-5.34 6.018-11.286 7.289-17.578h80.621c-2.09 27.654-12.823 53.569-30.89 74.598zm50.932-94.588c-.894-13.744-3.637-27.124-8.201-40h90.538c16.542 0 30 13.458 30 30v10zm122.337 140c-16.542 0-30-13.458-30-30s13.458-30 30-30 30 13.458 30 30-13.458 30-30 30z"/><circle cx="296" cy="136" r="10"/></g></g></svg>