<svg id="Capa_1" enable-background="new 0 0 512.001 512.001" height="512" viewBox="0 0 512.001 512.001" width="512" xmlns="http://www.w3.org/2000/svg"><g><g><path d="m256.001 136.001c-15.37 0-29.38 5.78-40 15.28v104.72h92l-.13-90.18c-10.4-17.84-29.74-29.82-51.87-29.82z" fill="#d8ec84"/><path d="m96.001 256.001h320v246h-320z" fill="#ff7b79"/><path d="m416.001 204.281v51.72h-120v-51.72c0-18.135 7.229-35.509 20-48.28 12.81-12.81 20-30.17 20-48.28v-57.72h40v57.72c0 18.11 7.19 35.47 20 48.28s20 30.17 20 48.28z" fill="#b3f1ff"/><path d="m396.001 10.001v40c-24.962 0-56.553 0-80 0v-40z" fill="#f3eff0"/><path d="m296.001 309.001c23.68 0 40 20.07 40 43.84 0 32.88-32.55 54.65-80 96.16-47.45-41.51-80-63.28-80-96.16 0-23.77 16.32-43.84 40-43.84 30.4 0 40 35 40 35s9.6-35 40-35z" fill="#fce8d0"/><path d="m216.001 151.281v104.72h-120v-106c0-77.32 26.86-140 60-140s60 62.68 60 140z" fill="#ffda8f"/></g><g><path d="m346.001 352.84c0-29.527-20.947-53.84-50-53.84-19.864 0-32.463 11.342-40 22.295-7.537-10.953-20.136-22.295-40-22.295-29.058 0-50 24.316-50 53.84 0 32.45 24.975 53.729 62.78 85.939 6.588 5.613 13.401 11.418 20.636 17.747 1.885 1.649 4.234 2.474 6.584 2.474s4.699-.824 6.584-2.474c7.235-6.329 14.048-12.134 20.636-17.747 37.804-32.209 62.78-53.488 62.78-85.939zm-90 82.913c-4.914-4.243-9.636-8.267-14.249-12.197-34.766-29.621-55.751-47.501-55.751-70.716 0-19.292 12.897-33.84 30-33.84 22.226 0 30.011 26.43 30.364 27.675 1.201 4.328 5.142 7.325 9.636 7.325 4.504 0 8.452-3.011 9.644-7.354.076-.276 7.843-27.646 30.356-27.646 17.103 0 30 14.548 30 33.84 0 23.215-20.985 41.095-55.751 70.716-4.614 3.931-9.336 7.954-14.249 12.197z"/><path d="m140.473 218.945 40-20c4.94-2.47 6.942-8.477 4.472-13.416-2.47-4.94-8.475-6.942-13.417-4.473l-40 20c-4.94 2.47-6.942 8.477-4.472 13.416 2.47 4.941 8.478 6.942 13.417 4.473z"/><path d="m140.473 158.945 40-20c4.94-2.47 6.942-8.477 4.472-13.416-2.47-4.94-8.475-6.942-13.417-4.473l-40 20c-4.94 2.47-6.942 8.477-4.472 13.416 2.47 4.941 8.478 6.942 13.417 4.473z"/><path d="m141.008 97.502c1.502 0 3.029-.34 4.464-1.058l30-15c4.94-2.47 6.942-8.477 4.472-13.416-2.47-4.94-8.475-6.942-13.417-4.473l-30 15c-4.94 2.47-6.942 8.477-4.472 13.416 1.754 3.506 5.285 5.531 8.953 5.531z"/><path d="m276.001 106.001c5.523 0 10-4.478 10-10s-4.477-10-10-10c-16.542 0-30 13.458-30 30v10.723c-7.117 1.025-14.006 3.136-20.443 6.246-2.537-50.452-21.562-132.969-69.557-132.969-52.345 0-70 96.532-70 150v85.719l-69.912-53.653c-4.382-3.36-10.66-2.535-14.021 1.846-3.362 4.381-2.537 10.658 1.845 14.021l82.088 62.998v241.068c0 5.522 4.477 10 10 10h115c5.523 0 10-4.478 10-10s-4.477-10-10-10h-105v-226h300v226h-105c-5.523 0-10 4.478-10 10s4.477 10 10 10h115c5.523 0 10-4.478 10-10v-241.068l82.088-62.998c4.381-3.363 5.207-9.641 1.845-14.021-3.362-4.382-9.639-5.205-14.021-1.846l-69.912 53.653v-31.439c0-20.908-8.143-40.566-22.929-55.352-11.008-11.008-17.071-25.643-17.071-41.209v-47.72h10c5.523 0 10-4.478 10-10v-40c0-5.522-4.477-10-10-10h-80c-5.523 0-10 4.478-10 10v40c0 5.522 4.477 10 10 10h10v47.72c0 15.566-6.063 30.201-17.072 41.21-.199.199-.386.409-.582.61-10.952-12.294-25.997-20.425-42.346-22.807v-10.733c0-5.513 4.485-9.999 10-9.999zm-120-86c23.649 0 50 53.389 50 130v96h-100v-96c0-76.612 26.35-130 50-130zm170 0h60v20h-60zm20 87.719v-47.72h20v47.72c0 20.908 8.143 40.566 22.929 55.352 11.008 11.008 17.071 25.643 17.071 41.209v41.72h-100v-41.72c0-15.966 6.492-30.628 17.071-41.209 14.785-14.785 22.929-34.444 22.929-55.352zm-50.001 58.308c-6.553 11.668-9.999 24.758-9.999 38.253v41.72h-60v-89.99c8.628-6.478 19.126-10.01 30-10.01 15.778 0 30.62 7.558 39.999 20.027z"/><circle cx="256.001" cy="502.001" r="10"/></g></g></svg>