<svg id="Capa_1" enable-background="new 0 0 512 512" height="512" viewBox="0 0 512 512" width="512" xmlns="http://www.w3.org/2000/svg"><g><g><g><path d="m376 236v-160h-240v160h-106v266h452v-266z" fill="#f3eff0"/><g fill="#b3f1ff"><path d="m136 176v60c-15.852 0-107.202 0-126 0v-60z"/><path d="m502 176v60c-18.862 0-110.183 0-126 0v-60z"/><path d="m426 302v160h56c0-21.806 0-139.396 0-160z"/></g><path d="m316 156v40h-40v40h-40v-40h-40v-40h40v-40h40v40z" fill="#ff7b79"/><path d="m176 436v66h160v-66c-4.514 0-155.488 0-160 0z" fill="#b3f1ff"/><path d="m176 276v120h160c0-12.697 0-107.529 0-120-18.427 0-143.484 0-160 0z" fill="#b3f1ff"/><path d="m30 302v160h56c0-21.806 0-139.396 0-160z" fill="#b3f1ff"/></g><path d="m396 10v66c-13.4 0-260.385 0-280 0v-66z" fill="#b3f1ff"/></g><g><path d="m196 206h30v30c0 5.522 4.477 10 10 10h40c5.522 0 10-4.478 10-10v-30h30c5.522 0 10-4.478 10-10v-40c0-5.522-4.478-10-10-10h-30v-30c0-5.522-4.478-10-10-10h-40c-5.523 0-10 4.478-10 10v30h-30c-5.523 0-10 4.478-10 10v40c0 5.522 4.477 10 10 10zm10-40h30c5.522 0 10-4.478 10-10v-30h20v30c0 5.522 4.478 10 10 10h30v20h-30c-5.522 0-10 4.478-10 10v30h-20v-30c0-5.522-4.478-10-10-10h-30z"/><path d="m176 406h160c5.522 0 10-4.478 10-10v-120c0-5.522-4.478-10-10-10h-160c-5.523 0-10 4.478-10 10v120c0 5.522 4.477 10 10 10zm100-80v20h-40v-20zm-40-20v-20h40v20zm90 40h-30v-20h30zm-50 20v20h-40v-20zm-60-20h-30v-20h30zm-30 20h30v20h-30zm110 20v-20h30v20zm30-80h-30v-20h30zm-110-20v20h-30v-20z"/><path d="m502 166h-116v-80h10c5.522 0 10-4.478 10-10v-66c0-5.522-4.478-10-10-10h-95c-5.522 0-10 4.478-10 10s4.478 10 10 10h85v46h-260v-46h85c5.523 0 10-4.478 10-10s-4.477-10-10-10h-95c-5.523 0-10 4.478-10 10v66c0 5.522 4.477 10 10 10h10v80h-116c-5.523 0-10 4.478-10 10v60c0 5.522 4.477 10 10 10h10v256c0 5.522 4.477 10 10 10h452c5.522 0 10-4.478 10-10v-256h10c5.522 0 10-4.478 10-10v-60c0-5.522-4.478-10-10-10zm-482 20h106v40h-106zm56 226h-36v-20h36zm0-40h-36v-20h36zm-36 60h36v20h-36zm36-100h-36v-20h36zm-36 140h46c5.523 0 10-4.478 10-10v-160c0-5.522-4.477-10-10-10h-46v-46h86v246h-86zm106-386h220v406h-20v-56c0-5.522-4.478-10-10-10h-160c-5.523 0-10 4.478-10 10v56h-20c0-2.29 0-394.315 0-406zm120 360h60v46h-60zm-20 46h-60v-46h60zm190-140h36v20h-36zm0 40h36v20h-36zm36-60h-36v-20h36zm-36 100h36v20h-36zm36-140h-46c-5.522 0-10 4.478-10 10v160c0 5.522 4.478 10 10 10h46v20h-86v-246h86zm20-66h-106v-40h106z"/><circle cx="256" cy="10" r="10"/></g></g></svg>