<svg id="Capa_1" enable-background="new 0 0 512.002 512.002" height="512" viewBox="0 0 512.002 512.002" width="512" xmlns="http://www.w3.org/2000/svg"><g><g><path d="m256.072 10.001c-135.994 0-246.652 110.474-246.07 247 .586 135.191 110.252 245 245.93 245 135.338 0 246.121-109.635 246.07-246-.05-134.963-109.188-246-245.93-246zm-.11 391.94c-80.939 0-146.416-65.68-145.884-146.94.533-81.55 66.989-144.94 145.964-144.94 79.871 0 145.315 64.141 145.884 144.94.576 81.828-65.7 146.94-145.964 146.94z" fill="#f3eff0"/><g fill="#ff7b79"><path d="m383.662 327.101 72.27 72.27c-15.66 21.79-34.79 40.9-56.58 56.54l-72.25-72.25-.09-.17c12.95-7.18 24.83-16.34 35.13-27.24 8.51-9.02 15.65-18.84 21.42-29.21z"/><path d="m455.922 112.641-72.26 72.26-.1.05c-7.07-12.72-16.18-24.58-27.31-35.09-8.91-8.41-18.72-15.59-29.21-21.42l.06-.1 72.28-72.28c21.78 15.67 40.89 34.8 56.54 56.58z"/><path d="m296.002 196.001c23.68 0 40 20.07 40 43.84 0 32.88-32.55 54.65-80 96.16-47.45-41.51-80-63.28-80-96.16 0-23.77 16.32-43.84 40-43.84 30.4 0 40 35 40 35s9.6-35 40-35z"/><path d="m184.902 128.341.09.17c-12.95 7.18-24.83 16.34-35.13 27.24-8.51 9.02-15.65 18.84-21.42 29.21l-.1-.06-72.27-72.27c15.66-21.78 34.79-40.89 56.58-56.54z"/><path d="m184.962 383.561-.06.1-72.27 72.27c-21.79-15.65-40.9-34.78-56.55-56.57l72.26-72.26.1-.05c7.07 12.72 16.18 24.58 27.31 35.09 8.91 8.41 18.72 15.59 29.21 21.42z"/></g></g><g><path d="m256.073.001c-142.578 0-256.673 116.14-256.071 257.043.609 140.306 114.223 254.957 255.93 254.957 140.527 0 256.122-113.64 256.07-256.004-.051-141.12-114.232-255.996-255.929-255.996zm198.393 383.761-58.634-58.635c21.325-43.261 21.324-94.938 0-138.252l58.617-58.617c24.583 38.098 37.537 82.011 37.554 127.748.016 45.773-12.932 89.69-37.537 127.756zm-291.848-28.892c-54.978-51.917-56.359-138.34-5.486-192.251 50.693-53.648 136.881-57.754 192.256-5.487 54.978 51.917 56.359 138.34 5.486 192.251-50.3 53.232-136.536 58.08-192.256 5.487zm280.112-243.18-57.269 57.27c-6.421-9.549-13.894-18.39-22.345-26.371-6.269-5.917-12.996-11.277-20.078-16.042l57.289-57.29c15.887 12.308 30.102 26.533 42.403 42.433zm-58.958-54.16-58.639 58.638c-42.892-21.184-93.853-21.772-138.195.065l-58.67-58.669c38.116-24.605 82.05-37.563 127.805-37.563 45.752 0 89.65 12.946 127.699 37.529zm-272.071 11.752 57.303 57.302c-9.611 6.434-18.468 13.893-26.415 22.303-5.909 6.263-11.268 12.99-16.039 20.079l-57.283-57.284c12.301-15.884 26.526-30.097 42.434-42.4zm-54.161 58.959 58.633 58.634c-21.325 43.261-21.324 94.938 0 138.252l-58.617 58.618c-24.403-37.814-37.357-81.397-37.553-126.787-.198-46.121 12.752-90.37 37.537-128.717zm11.734 272.072 57.27-57.271c6.421 9.549 13.894 18.39 22.345 26.371 6.269 5.917 12.996 11.276 20.078 16.042l-57.285 57.284c-15.885-12.289-30.101-26.511-42.408-42.426zm58.968 54.151 58.63-58.629c42.892 21.184 93.853 21.772 138.195-.065l58.67 58.67c-38.114 24.605-82.048 37.562-127.805 37.562-45.747-.001-89.64-12.948-127.69-37.538zm272.063-11.743-57.305-57.304c9.611-6.434 18.468-13.893 26.415-22.303 5.909-6.263 11.268-12.99 16.039-20.079l57.284 57.285c-12.3 15.891-26.524 30.105-42.433 42.401z"/><circle cx="304.002" cy="294.001" r="10"/><path d="m296.002 186.001c-19.864 0-32.464 11.341-40 22.295-7.536-10.954-20.136-22.295-40-22.295-29.057 0-50 24.315-50 53.84 0 32.45 24.976 53.729 62.78 85.939 6.588 5.613 13.4 11.418 20.636 17.747 1.885 1.649 4.234 2.474 6.584 2.474s4.699-.824 6.584-2.473c4.197-3.672 8.56-7.438 14.145-12.212 4.198-3.588 4.693-9.9 1.104-14.099-3.588-4.198-9.899-4.693-14.099-1.104-2.845 2.432-5.377 4.605-7.734 6.641-4.913-4.243-9.636-8.267-14.249-12.197-34.767-29.621-55.751-47.501-55.751-70.716 0-19.292 12.897-33.84 30-33.84 22.278 0 30.047 26.553 30.356 27.646 1.191 4.344 5.14 7.354 9.644 7.354s8.452-3.011 9.644-7.354c.076-.277 7.843-27.646 30.356-27.646 17.103 0 30 14.548 30 33.84 0 5.203-1.023 10.147-3.13 15.114-2.155 5.085.219 10.954 5.304 13.11 5.086 2.155 10.954-.219 13.11-5.304 3.173-7.484 4.716-14.982 4.716-22.921 0-29.525-20.947-53.839-50-53.839z"/></g></g></svg>