<svg id="Capa_1" enable-background="new 0 0 512 512" height="512" viewBox="0 0 512 512" width="512" xmlns="http://www.w3.org/2000/svg"><g><g><path d="m462 246h-140v-160h-312v300h492v-100c0-22.09-17.91-40-40-40z" fill="#ff7b79"/><path d="m412 121v25h-50v-25c0-13.81 11.19-25 25-25s25 11.19 25 25z" fill="#ff7b79"/><path d="m442 146 20 100h-140v-100z" fill="#b3f1ff"/><path d="m236 206v40h-40v40h-40v-40h-40v-40h40v-40h40v40z" fill="#fce8d0"/><g fill="#f3eff0"><path d="m402 346c22.09 0 40 17.91 40 40s-17.91 40-40 40-40-17.91-40-40 17.91-40 40-40z"/><path d="m116 346c22.09 0 40 17.91 40 40s-17.91 40-40 40-40-17.91-40-40 17.91-40 40-40z"/></g></g><g><circle cx="402" cy="386" r="10"/><circle cx="116" cy="386" r="10"/><path d="m146 166v30h-30c-5.522 0-10 4.478-10 10v40c0 5.522 4.478 10 10 10h30v30c0 5.522 4.478 10 10 10h40c5.522 0 10-4.478 10-10v-30h30c5.522 0 10-4.478 10-10v-40c0-5.522-4.478-10-10-10h-30v-30c0-5.522-4.478-10-10-10h-40c-5.522 0-10 4.478-10 10zm20 40v-30h20v30c0 5.522 4.478 10 10 10h30v20h-30c-5.522 0-10 4.478-10 10v30h-20v-30c0-5.522-4.478-10-10-10h-30v-20h30c5.522 0 10-4.478 10-10z"/><path d="m470.34 236.709-18.534-92.67c-.935-4.675-5.039-8.039-9.806-8.039h-20v-15c0-19.299-15.701-35-35-35s-35 15.701-35 35v15h-20v-50c0-5.522-4.478-10-10-10h-101c-5.522 0-10 4.478-10 10s4.478 10 10 10h91v280h-147.006c-4.646-22.795-24.847-40-48.994-40s-44.348 17.205-48.994 40h-47.006v-280h111c5.522 0 10-4.478 10-10s-4.478-10-10-10h-121c-5.522 0-10 4.478-10 10v300c0 5.522 4.478 10 10 10h57.006c4.646 22.795 24.847 40 48.994 40s44.348-17.205 48.994-40h188.012c4.646 22.795 24.847 40 48.994 40s44.348-17.205 48.994-40h51.006c5.522 0 10-4.478 10-10v-100c0-24.728-18.048-45.308-41.66-49.291zm-98.34-115.709c0-8.271 6.729-15 15-15s15 6.729 15 15v15h-30zm61.802 35 16 80h-117.802v-80zm-317.802 260c-16.542 0-30-13.458-30-30s13.458-30 30-30 30 13.458 30 30-13.458 30-30 30zm286 0c-16.542 0-30-13.458-30-30s13.458-30 30-30 30 13.458 30 30-13.458 30-30 30zm48.994-40c-4.646-22.795-24.847-40-48.994-40s-44.348 17.205-48.994 40h-21.006v-120h129.945c.015 0 .03.002.044.002.01 0 .02-.001.03-.001 16.533.01 29.981 13.464 29.981 30v10h-30c-5.522 0-10 4.478-10 10s4.478 10 10 10h30v60h-41.006z"/><circle cx="176" cy="86" r="10"/></g></g></svg>