<svg id="Capa_1" enable-background="new 0 0 512 512" height="512" viewBox="0 0 512 512" width="512" xmlns="http://www.w3.org/2000/svg"><g><g><path d="m36 156v200h440v-200z" fill="#d8ec84"/><circle cx="396" cy="256" fill="#f3eff0" r="20"/><path d="m205.3 356h170.7v1.41c0 24.03-6.5 47.74-19.54 67.92-13.36 20.68-20.46 50.76-20.46 75.36v1.31h-180c0-25.18-11.86-54.89-32-70l-16-12c-20.14-15.11-32-38.82-32-64v-160c33.14 0 60 26.86 60 60v60c29.61 0 55.46 16.09 69.3 40z" fill="#fce8d0"/><path d="m256 196c44.18 0 80 26.86 80 60s-35.82 60-80 60-80-26.86-80-60 35.82-60 80-60z" fill="#f3eff0"/><ellipse cx="256" cy="256" fill="#d8ec84" rx="40" ry="20"/><path d="m346 90c-16.57 0-30 13.43-30 30v-40c0-16.57-13.43-30-30-30s-30 13.43-30 30v-40c0-16.57-13.43-30-30-30s-30 13.43-30 30v40c0-16.57-13.43-30-30-30s-30 13.43-30 30v76h240v-36c0-16.57-13.43-30-30-30z" fill="#fce8d0"/></g><g><path d="m476 146h-90v-26c0-22.056-17.944-40-40-40-7.283 0-14.112 1.966-20 5.382v-5.382c0-22.056-17.944-40-40-40-7.283 0-14.112 1.966-20 5.382v-5.382c0-22.056-17.944-40-40-40s-40 17.944-40 40v5.381c-5.888-3.415-12.717-5.381-20-5.381-22.056 0-40 17.944-40 40v66h-90c-5.523 0-10 4.478-10 10v200c0 5.522 4.477 10 10 10h30.571c2.77 24.442 15.572 47.102 35.429 62l15.999 11.999c16.225 12.173 28.001 38.248 28.001 62.001 0 5.522 4.477 10 10 10h45c5.523 0 10-4.478 10-10s-4.477-10-10-10h-35.54c-2.497-23.732-13.738-51.702-35.46-68l-15.999-11.999c-17.533-13.154-28.001-34.09-28.001-56.001v-148.995c22.794 4.646 40 24.85 40 48.995v60c0 5.522 4.477 10 10 10 37.915 0 70 30.696 70 70 0 5.522 4.477 10 10 10s10-4.478 10-10c0-10.257-1.764-20.407-5.149-30.01h144.849c-1.365 19.57-7.392 38.056-17.639 53.913-12.045 18.644-20.26 46.148-21.799 72.097h-35.262c-5.522 0-10 4.478-10 10s4.478 10 10 10h45c5.522 0 10-4.478 10-10v-1.31c0-24.75 7.402-52.2 18.859-69.933 12.332-19.084 19.463-41.321 20.868-64.758h90.273c5.522 0 10-4.478 10-10v-199.999c0-5.522-4.478-10-10-10zm-130-46c11.028 0 20 8.972 20 20v26h-40v-26c0-11.028 8.972-20 20-20zm-60-40c11.028 0 20 8.972 20 20v66h-40v-66c0-11.028 8.972-20 20-20zm-80-20c0-11.028 8.972-20 20-20s20 8.972 20 20v106h-40zm-60 40c0-11.028 8.972-20 20-20s20 8.972 20 20v66h-40zm320 266h-255.165c-14.768-22.035-38.627-36.482-64.835-39.438v-50.562c0-38.598-31.402-70-70-70-5.523 0-10 4.478-10 10v150h-20v-180h420z"/><path d="m256 186c-45.248 0-90 27.691-90 70 0 42.43 44.919 70 90 70 45.248 0 90-27.691 90-70 0-42.43-44.919-70-90-70zm0 120c-38.598 0-70-22.43-70-50s31.402-50 70-50 70 22.43 70 50-31.402 50-70 50z"/><path d="m256 226c-28.505 0-50 12.897-50 30s21.495 30 50 30 50-12.897 50-30-21.495-30-50-30zm23.812 35.199c-6.103 3.051-14.782 4.801-23.812 4.801s-17.709-1.75-23.812-4.801c-5.112-2.555-6.188-4.852-6.188-5.199s1.076-2.644 6.188-5.199c6.103-3.051 14.782-4.801 23.812-4.801s17.709 1.75 23.812 4.801c5.112 2.556 6.188 4.853 6.188 5.199s-1.075 2.644-6.188 5.199z"/><path d="m366 256c0 16.542 13.458 30 30 30s30-13.458 30-30-13.458-30-30-30-30 13.458-30 30zm30-10c5.514 0 10 4.486 10 10s-4.486 10-10 10-10-4.486-10-10 4.486-10 10-10z"/><circle cx="246" cy="502" r="10"/></g></g></svg>