<svg height="2.667in" style="enable-background:new 0 0 123 123;shape-rendering:geometricPrecision;text-rendering:geometricPrecision;image-rendering:optimizeQuality;fill-rule:evenodd;clip-rule:evenodd" viewBox="0 0 2667 2667" width="2.667in" xmlns="http://www.w3.org/2000/svg"><g id="Layer_x0020_1"><circle cx="1333" cy="1333" fill="#f44c71" r="1333"/><path d="m1413 1994h-738c-33 0-33-52 0-52h738c34 0 34 52 0 52zm404 193h-1301c-14 0-26-12-26-26v-1655c0-14 12-26 26-26h1301c14 0 26 12 26 26v867c186 14 333 169 333 358 0 190-147 345-333 358v72c0 14-12 26-26 26zm-307-456c0-171 138-306 308-307 169 0 307 138 307 307 0 171-141 310-312 308-165-2-303-138-303-308zm-968 404h1249v-46c-342-28-452-462-178-653 53-37 114-58 178-63v-841h-1249zm1275-145c-142 0-258-116-258-259 0-142 116-258 258-258 143 0 259 116 259 258 0 143-116 259-259 259zm0-465c-114 0-207 92-207 206s93 207 207 207 207-93 207-207-93-206-207-206zm-25 346c-67-17-89-107-41-107 15 0 26 12 26 26 0 43 80 43 80 0 0-18-18-33-40-33-107 0-125-142-25-166 0-18 2-38 26-38s26 20 26 38c69 18 85 107 39 107-14 0-26-12-26-26 0-42-80-45-80 0 0 18 18 33 40 33 105 0 127 138 27 166 0 18-2 39-26 39s-26-21-26-39zm-426-1146h-399c-33 0-33-52 0-52h399c34 0 34 52 0 52zm292 181h-983c-33 0-33-52 0-52h983c34 0 34 52 0 52zm0 181h-983c-33 0-33-51 0-51h983c34 0 34 51 0 51zm0 182h-983c-33 0-33-52 0-52h983c34 0 34 52 0 52zm-185 181h-798c-33 0-33-52 0-52h798c34 0 34 52 0 52zm-112 181h-686c-33 0-33-52 0-52h686c34 0 33 52 0 52zm0 181h-686c-33 0-33-51 0-51h686c34 0 33 51 0 51z" fill="#fff"/></g></svg>