<svg clip-rule="evenodd" fill-rule="evenodd" height="2.667in" image-rendering="optimizeQuality" shape-rendering="geometricPrecision" text-rendering="geometricPrecision" viewBox="0 0 2667 2667" width="2.667in" xmlns="http://www.w3.org/2000/svg"><g id="Layer_x0020_1"><circle cx="1333" cy="1333" fill="#7ed63f" r="1333"/><path d="m1049 1834c-19 0-32-21-22-39l8-14c-76-67-37-195 10-168 12 7 16 23 9 35-16 28-13 63 8 87l75-130c-103-92-6-260 125-217 7-12 19-37 43-23s9 37 2 49c76 67 37 196-10 169-12-7-16-23-9-36 16-27 13-62-8-87l-75 130c87 78 32 224-85 224-14 0-27-2-40-7-8 13-13 27-31 27zm679-759c150 0 271-122 271-272s-121-271-271-271c-147 0-267 118-271 264l119-62c80-41 139-4 141 82zm-267-223c3 18 9 36 15 53 104-32 186 88 125 172-59 79-176 53-200-36-11-40 1-82 30-110-7-17-13-36-18-54l-293 153-443 767 568 328 443-767-23-541c-1-49-22-59-66-37zm40 100c18 27 41 51 67 71 8-40-26-76-67-71zm37 113c-32-23-59-52-80-85-33 53 26 115 80 85zm-133-242c-11-186 137-343 323-343 178 0 323 145 323 323s-144 322-321 323l10 237c0 5-1 10-3 14l-460 797c-7 12-23 16-35 9l-613-354c-13-7-17-23-10-35l460-797c2-4 6-7 10-10zm-172 1228c-4 0-9-1-13-4l-463-267c-13-7-17-23-10-36l339-587c7-12 23-16 35-9l464 268c13 7 17 23 10 35l-339 587c-5 8-13 13-23 13zm-428-303 419 242 313-542-419-242zm359-190 71-123c-69-13-117 69-71 123zm14 79-71 124c68 12 117-70 71-124z" fill="#fff"/></g></svg>