<svg clip-rule="evenodd" fill-rule="evenodd" height="2.667in" image-rendering="optimizeQuality" shape-rendering="geometricPrecision" text-rendering="geometricPrecision" viewBox="0 0 2667 2667" width="2.667in" xmlns="http://www.w3.org/2000/svg"><g id="Layer_x0020_1"><circle cx="1333" cy="1333" fill="#ff700d" r="1333"/><path d="m1941 1464h-141c-34 0-61-28-61-62v-89c0-34 27-62 61-62h141c34 0 61 28 61 62v89c0 34-27 62-61 62zm106 723h-1428c-77 0-139-63-139-140v-1428c0-77 62-139 139-139h1428c77 0 140 62 140 139v1428c0 77-63 140-140 140zm-1428-1655c-48 0-87 39-87 87v1428c0 49 39 88 87 88h1428c49 0 88-39 88-88v-1428c0-48-39-87-88-87zm1287 616h-1145c-53 0-97-43-97-97v-311c0-54 44-97 97-97h1145c53 0 96 43 96 97v311c0 54-43 97-96 97zm-1145-453c-25 0-45 20-45 45v311c0 25 20 45 45 45h1145c25 0 45-20 45-45v-311c0-25-20-45-45-45zm1061 336h-94c-28 0-52-23-52-52v-167c0-29 24-52 52-52h94c29 0 52 23 52 52v167c0 29-23 52-52 52zm-94-219v167h94v-167zm-862 936h-140c-34 0-62-28-62-62v-89c0-34 28-62 62-62h140c34 0 62 28 62 62v89c0 34-28 62-62 62zm-140-161c-5 0-10 5-10 10v89c0 5 5 10 10 10h140c6 0 10-5 10-10v-89c0-5-4-10-10-10zm498 161h-140c-34 0-62-28-62-62v-89c0-34 28-62 62-62h140c34 0 62 28 62 62v89c0 34-28 62-62 62zm-140-161c-5 0-10 5-10 10v89c0 5 5 10 10 10h140c6 0 10-5 10-10v-89c0-5-4-10-10-10zm498 161h-140c-34 0-62-28-62-62v-89c0-34 28-62 62-62h140c35 0 62 28 62 62v89c0 34-27 62-62 62zm-140-161c-5 0-10 5-10 10v89c0 5 5 10 10 10h140c6 0 11-5 11-10v-89c0-5-5-10-11-10zm-576 445h-140c-34 0-62-28-62-62v-89c0-34 28-62 62-62h140c34 0 62 28 62 62v89c0 34-28 62-62 62zm-140-161c-5 0-10 5-10 10v89c0 5 5 10 10 10h140c6 0 10-5 10-10v-89c0-5-4-10-10-10zm498 161h-140c-34 0-62-28-62-62v-89c0-34 28-62 62-62h140c34 0 62 28 62 62v89c0 34-28 62-62 62zm-140-161c-5 0-10 5-10 10v89c0 5 5 10 10 10h140c6 0 10-5 10-10v-89c0-5-4-10-10-10zm498 161h-140c-34 0-62-28-62-62v-89c0-34 28-62 62-62h140c35 0 62 28 62 62v89c0 34-27 62-62 62zm-140-161c-5 0-10 5-10 10v89c0 5 5 10 10 10h140c6 0 11-5 11-10v-89c0-5-5-10-11-10zm487 161h-117c-40 0-73-33-73-74v-349c0-41 33-74 73-74h117c41 0 73 33 73 74v349c0 41-32 74-73 74zm-117-445c-12 0-22 10-22 22v349c0 12 10 22 22 22h117c12 0 22-10 22-22v-349c0-12-10-22-22-22zm-946-123h-140c-34 0-62-28-62-62v-89c0-34 28-62 62-62h140c34 0 62 28 62 62v89c0 34-28 62-62 62zm-140-161c-5 0-10 5-10 10v89c0 5 5 10 10 10h140c6 0 10-5 10-10v-89c0-5-4-10-10-10zm498 161h-140c-34 0-62-28-62-62v-89c0-34 28-62 62-62h140c34 0 62 28 62 62v89c0 34-28 62-62 62zm-140-161c-5 0-10 5-10 10v89c0 5 5 10 10 10h140c6 0 10-5 10-10v-89c0-5-4-10-10-10zm498 161h-140c-34 0-62-28-62-62v-89c0-34 28-62 62-62h140c35 0 62 28 62 62v89c0 34-27 62-62 62zm-140-161c-5 0-10 5-10 10v89c0 5 5 10 10 10h140c6 0 11-5 11-10v-89c0-5-5-10-11-10zm358 0c-5 0-10 5-10 10v89c0 5 5 10 10 10h141c5 0 10-5 10-10v-89c0-5-5-10-10-10z" fill="#fff"/></g></svg>