<svg clip-rule="evenodd" fill-rule="evenodd" height="2.667in" image-rendering="optimizeQuality" shape-rendering="geometricPrecision" text-rendering="geometricPrecision" viewBox="0 0 2667 2667" width="2.667in" xmlns="http://www.w3.org/2000/svg"><g id="Layer_x0020_1"><circle cx="1333" cy="1333" fill="#1d81ce" r="1333"/><path d="m1738 1950h-810c-14 0-26-12-26-26v-1162c0-25 21-45 45-45h791c15 0 26 11 26 26v1181c0 14-11 26-26 26zm-166-526-331-4 7 36h322c34 0 34 51 0 51h-344c-12 0-23-9-25-21l-16-88-47-276-14-51c-16-60-119 35-134-21-4-14 4-28 18-32 49-13 90-32 128-9 34 19 38 48 47 82h422c41 0 79 35 72 76l-34 189c-8 41-36 68-71 68zm-1-52c13 1 19-15 21-25l34-189c1-7-11-15-21-15h-411l38 225zm-275 297c-39 0-71-32-71-71s32-71 71-71c40 0 71 32 71 71 1 39-31 71-71 71zm0-90c-25 0-25 38 0 38 26 0 26-38 0-38zm246 89c-39 0-71-32-71-71 0-40 32-71 71-71 40 0 71 31 71 71 0 39-31 71-71 71zm0-91c-25 0-25 39 0 39 26 0 26-39 0-39zm-72 491h-273c-34 0-34-52 0-52h273c34 0 34 52 0 52zm-316-1376c-88 0-88-135 0-135 89 0 89 135 0 135zm0-83c-20 0-20 31 0 31 21 0 21-31 0-31zm400 41h-273c-34 0-34-52 0-52h273c34 0 34 52 0 52zm235 1537h-912c-70 0-127-57-127-127v-1453c0-70 57-127 127-127h912c70 0 127 57 127 127v1453c0 70-57 127-127 127zm-912-1655c-41 0-75 33-75 75v1453c0 41 34 75 75 75h912c42 0 76-34 76-75v-1453c0-42-34-75-76-75zm77 1366h759v-1129h-759z" fill="#fff"/></g></svg>