<svg clip-rule="evenodd" fill-rule="evenodd" height="2.667in" image-rendering="optimizeQuality" shape-rendering="geometricPrecision" text-rendering="geometricPrecision" viewBox="0 0 2667 2667" width="2.667in" xmlns="http://www.w3.org/2000/svg"><g id="Layer_x0020_1"><circle cx="1333" cy="1333" fill="#f10" r="1333"/><path d="m1215 1237h-447c-14 0-26-12-26-26v-469c0-144 115-260 263-262h714c113 0 205 92 205 205v466c0 48-38 86-85 86h-387v898h423c34 0 34 52 0 52h-1084c-34 0-34-52 0-52h424zm185 0h-134v898h134zm-133-52h572c18 0 33-15 33-34v-466c0-84-68-153-153-153h-558c64 48 106 124 106 210zm519-60c-14 0-26-12-26-26v-414c0-22-19-41-41-41h-263c-34 0-34-52 0-52h263c51 0 93 42 93 93v414c0 14-11 26-26 26zm-931 60v-443c0-83 67-150 150-150s150 67 150 150v443h60v-443c0-116-94-210-210-210s-211 94-211 210v443zm248 0v-443c0-54-44-98-98-98-55 0-99 44-99 98v443z" fill="#fff"/></g></svg>