<svg clip-rule="evenodd" fill-rule="evenodd" height="2.667in" image-rendering="optimizeQuality" shape-rendering="geometricPrecision" text-rendering="geometricPrecision" viewBox="0 0 2667 2667" width="2.667in" xmlns="http://www.w3.org/2000/svg"><g id="Layer_x0020_1"><circle cx="1333" cy="1333" fill="#7ed63f" r="1333"/><path d="m842 880c-71 0-129-57-129-128s58-129 129-129c70 0 128 58 128 129s-58 128-128 128zm491 1288c-470 0-853-383-853-853 0-162 46-320 132-456-78-166 43-361 230-361 139 0 253 114 253 254 0 174-172 295-335 240-245 434 67 981 573 981s819-547 574-981c-163 55-335-66-335-240 0-140 113-254 253-254 186 0 308 195 230 361 86 136 132 294 132 456 0 470-383 853-854 853zm-691-1260c-72 123-110 263-110 407 0 442 359 802 801 802s802-360 802-802c0-144-38-284-111-407-19 25-43 46-70 62 261 468-77 1055-621 1055-543 0-881-587-620-1055-27-16-51-37-71-62zm200-358c-112 0-202 91-202 202s90 201 202 201c111 0 201-90 201-201s-90-202-201-202zm983 0c-111 0-202 91-202 202s91 201 202 201 202-90 202-201-91-202-202-202zm0 330c-71 0-128-57-128-128s57-129 128-129 129 58 129 129-58 128-129 128zm0-205c-42 0-77 34-77 77 0 42 35 77 77 77s77-35 77-77c0-43-35-77-77-77zm-983 0c-43 0-77 34-77 77 0 42 34 77 77 77 42 0 76-35 76-77 0-43-34-77-76-77z" fill="#fff"/></g></svg>