<svg clip-rule="evenodd" fill-rule="evenodd" height="2.667in" image-rendering="optimizeQuality" shape-rendering="geometricPrecision" text-rendering="geometricPrecision" viewBox="0 0 2667 2667" width="2.667in" xmlns="http://www.w3.org/2000/svg"><g id="Layer_x0020_1"><circle cx="1333" cy="1333" fill="#378b4e" r="1333"/><path d="m1411 1184c-31 0-26-36-26-58 0-34 52-34 52 0 0 22 6 58-26 58zm123 1003h-401c-76 0-137-62-137-138v-642c0-33 42-26 75-26v-379c0-31 37-25 59-25v-471c0-20 21-32 38-23l343 188c8 5 13 13 13 23v283c18 0 52-5 52 25v379h69c15 0 26 12 26 26v642c0 76-61 138-137 138zm-411-806h262v-133c0-34 52-34 52 0v133h87v-353h-401zm-76 52v212h572v-212zm0 490v126c0 48 39 86 86 86h401c47 0 85-38 85-86v-126zm135-946h291v-268l-291-159zm-135 894h572v-174h-572z" fill="#fff"/></g></svg>