<svg clip-rule="evenodd" fill-rule="evenodd" height="2.667in" image-rendering="optimizeQuality" shape-rendering="geometricPrecision" text-rendering="geometricPrecision" viewBox="0 0 2667 2667" width="2.667in" xmlns="http://www.w3.org/2000/svg"><g id="Layer_x0020_1"><circle cx="1333" cy="1333" fill="#1d81ce" r="1333"/><path d="m831 1351h-94c-34 0-34-51 0-51h94c34 0 34 51 0 51zm76 160h-118l134 407h147zm-173-1c-56-9-102-50-116-104h-46c-51 0-92-41-92-92v-220c0-51 41-92 92-92h46c16-60 72-105 137-105h171c22 1 44 1 65 1 302 0 505-79 727-198 18-9 38 4 38 23v267c99 25 171 115 171 218 0 104-72 194-171 219v258c0 21-22 33-39 22-189-117-397-198-613-205 19 64-22 131-87 144 13 33 117 286 117 298 0 14-10 24-26 26h-203c-11 0-21-8-25-18zm-121-155v-301h-41c-22 0-40 18-40 40v220c0 22 18 41 40 41zm337-405v506c208-23 407 14 608 106v-727c-168 73-358 121-608 115zm-195-1c-49 0-90 40-90 89v332c0 49 42 90 88 89h145v-510zm292 552c-28 1-57 3-86 6l36 90c48-2 75-55 50-96zm563 86c32 16 63 34 95 52v-873c-31 16-62 31-95 46zm146-543 1 329c157-54 157-277-1-329zm405 190h-152c-34 0-34-52 0-52h152c34 0 34 52 0 52zm-197-108c-23 0-35-28-18-44l107-107c24-24 61 12 37 36l-108 108c-5 5-11 7-18 7zm108 324c-7 0-14-3-19-8l-107-108c-24-24 12-60 36-36l108 107c16 17 4 45-18 45zm-1241-341h-94c-34 0-34-52 0-52h94c34 0 34 52 0 52zm0 121h-94c-34 0-34-52 0-52h94c34 0 34 52 0 52z" fill="#fff"/></g></svg>