<svg clip-rule="evenodd" fill-rule="evenodd" height="2.667in" image-rendering="optimizeQuality" shape-rendering="geometricPrecision" text-rendering="geometricPrecision" viewBox="0 0 2667 2667" width="2.667in" xmlns="http://www.w3.org/2000/svg"><g id="Layer_x0020_1"><circle cx="1333" cy="1333" fill="#00ab94" r="1333"/><path d="m2000 1354h-1333l105 569h1123zm-1275 600v-1l-111-601c-78-15-134-74-134-156 0-87 71-157 158-157h580v-465c0-14 12-26 26-26h178c15 0 26 12 26 26v465h581c134 0 200 150 128 249-24 34-63 58-104 64-12 65-109 578-109 596l-12 58c-12 69-54 112-108 112h-981c-54 0-96-43-109-112zm545-915h127v-439h-127zm-632 51c-59 0-106 48-106 106 0 59 47 106 106 106h1391c58 0 106-47 106-106 0-58-48-106-106-106-116 0-1391 0-1391 0zm695 776c-66 0-119-53-119-119v-217c0-66 53-120 119-120s120 54 120 120v217c0 66-54 119-120 119zm355-14c-90 0-148-100-103-179l109-188c32-57 107-76 163-44 57 33 77 106 44 163l-109 188c-21 37-61 60-104 60zm-710 0c-42 0-82-23-103-60l-109-188c-46-79 13-179 103-179 43 0 83 23 104 60l108 188c47 79-13 179-103 179zm908 122h-1105c7 38 19 92 62 92h981c43 0 55-54 62-92zm-1017-497c-51 0-84 57-58 101l108 188c19 32 61 43 93 25 32-19 43-60 25-92l-109-189c-12-20-34-33-59-33zm928 0c-24 0-46 13-58 33l-109 189c-25 44 8 101 58 101 25 0 47-13 59-34l109-188c25-44-8-101-59-101zm-464-15c-37 0-67 30-67 68v217c0 89 135 89 135 0v-217c0-38-30-68-68-68z" fill="#fff"/></g></svg>