<svg clip-rule="evenodd" fill-rule="evenodd" height="2.667in" image-rendering="optimizeQuality" shape-rendering="geometricPrecision" text-rendering="geometricPrecision" viewBox="0 0 2667 2667" width="2.667in" xmlns="http://www.w3.org/2000/svg"><g id="Layer_x0020_1"><circle cx="1333" cy="1333" fill="#f44c71" r="1333"/><path d="m723 1478c22-54-38-108-89-80l-1 82zm1287 347h-1358c-100 0-174-82-172-180 1-67 41-128 101-156l2-242c0-7 3-13 7-18l78-81c-4-37-6-129 44-153 52-26 114 36 136 58 6 4 47 36 88 29 21-4 40-19 56-44 6-16 8-102 19-116 50-70 168-137 242 0 3 4 182 347 555 449 46-1 305-3 374 112l5 15v150c0 98-80 177-177 177zm-1398-293c-39 15-68 48-77 88h183c56 0 102 46 102 102v51h317c23-50 60-83 105-95 70-18 155 14 255 95h438c-7-45 14-93 39-131-37 7-78 10-123 10h-812c-15 0-49-30-61-40l-109-84zm-79 140c9 57 59 101 119 101h116v-51c0-27-23-50-51-50zm662 101h215c-83-54-164-76-215 0zm793 0h22c69 0 125-56 125-125v-79c-21 19-46 35-75 47-45 49-84 113-72 157zm142-275c-42-49-151-67-237-73-66 78-193 92-270 92-32 0-55-2-61-4-137-37-329-264-388-336l-2 2c-5 75-33 209-144 406l20 15h803c137 0 231-34 279-102zm-1143 55c81-146 114-253 127-324-160 123-340 102-471 21l-8 8-1 85c82-22 160 51 143 135l100-2c6 0 12 2 16 6zm135-398c0-17-2-28-3-33-23-36-66-46-88-49-65 95-166 62-217 19-1-1-1-1-2-2-57-58-76-49-77-49-16 8-21 66-15 113 2 19-24 39-41 57 65 40 253 124 443-56zm-76-132c34 6 89 23 120 76l4 12c37-34 71-70 84-89-41-60-63-126-110-129-35-1-72 35-88 54zm770 400c-23 0-45-9-67-16-17 11-69 52-84 52-24 0-36-32-15-47l40-27c-10-4-20-9-30-13-15 10-67 51-82 51-24 0-36-33-15-47l44-31c-17-9-34-19-51-30-15 10-65 50-80 50-24 0-36-33-15-47l49-34c-16-11-30-22-45-33-14 10-63 48-78 48-24 0-35-33-14-47l52-36c-15-13-29-27-43-40-14 10-61 47-76 47-24 0-35-32-14-47l54-38c-23-25-43-50-60-73-20 25-48 54-73 77 53 67 240 289 362 321 14 4 154 13 241-40z" fill="#fff"/></g></svg>