<svg clip-rule="evenodd" fill-rule="evenodd" height="2.667in" image-rendering="optimizeQuality" shape-rendering="geometricPrecision" text-rendering="geometricPrecision" viewBox="0 0 2667 2667" width="2.667in" xmlns="http://www.w3.org/2000/svg"><g id="Layer_x0020_1"><circle cx="1333" cy="1333" fill="#1d81ce" r="1333"/><path d="m1351 1374c-23 0-35-27-19-43l249-270c23-25 61 10 38 35l-249 270c-6 6-12 8-19 8zm669 232h-838c-9 0-17-5-22-13l-27-47-52 52c-4 5-11 8-18 8h-416c-14 0-26-12-26-26v-255c0-36 43-23 55-23 65 0 118-52 118-117 0-78-76-131-141-115-16 4-32-8-32-25v-236c0-14 12-26 26-26h416c7 0 14 3 18 8l52 52 27-47c4-8 13-13 22-13h838c14 0 26 12 26 26v236c0 35-43 23-55 23-65 0-118 52-118 117 0 78 75 131 141 115 16-4 32 8 32 25v255c0 14-12 26-26 26zm-823-52h797v-200c-93 3-173-76-173-169 0-95 80-171 173-169v-181h-797l-35 63c-9 15-29 17-41 5l-69-68h-379v181c92-3 172 76 172 169 0 94-77 171-172 169v200h379l69-69c12-12 32-9 41 6zm-58-462c-14 0-26-12-26-26v-80c0-34 52-34 52 0v80c0 14-12 26-26 26zm0 168c-14 0-26-11-26-26v-80c0-34 52-34 52 0v80c0 15-12 26-26 26zm0 169c-14 0-26-12-26-26v-80c0-34 52-34 52 0v80c0 14-12 26-26 26zm-332-513c-29 0-70 7-70-26s41-26 70-26c34 0 34 52 0 52zm1097 0c-30 0-70 7-70-26s40-26 70-26c34 0 34 52 0 52zm0 608c-30 0-70 8-70-25s40-26 70-26c34 0 34 51 0 51zm-1096 0c-29 0-70 8-70-25s41-26 70-26c34 0 34 51 0 51zm-272 197v-947c0-87 71-158 158-158h1279c87 0 158 71 158 158v947c20 0 56-5 56 26v139c0 91-74 165-165 165h-1377c-91 0-165-74-165-165v-139c0-31 35-26 56-26zm1543 0v-947c0-59-48-106-106-106h-1279c-59 0-106 47-106 106v947zm-1547 52v113c0 62 50 113 113 113h1377c62 0 113-51 113-113v-113h-467v58c0 60-49 110-109 110h-424c-60 0-109-50-109-110v-58zm545 0v58c0 32 26 58 58 58h424c32 0 58-26 58-58v-58zm322-628c-53 0-97-44-97-97 0-54 44-98 97-98 54 0 97 44 97 98 0 53-43 97-97 97zm0-143c-60 0-60 91 0 91s60-91 0-91zm185 438c-54 0-97-43-97-97s43-97 97-97 97 43 97 97-43 97-97 97zm0-143c-60 0-60 91 0 91s60-91 0-91z" fill="#fff"/></g></svg>