<svg clip-rule="evenodd" fill-rule="evenodd" height="2.667in" image-rendering="optimizeQuality" shape-rendering="geometricPrecision" text-rendering="geometricPrecision" viewBox="0 0 2667 2667" width="2.667in" xmlns="http://www.w3.org/2000/svg"><g id="Layer_x0020_1"><circle cx="1333" cy="1333" fill="#f10" r="1333"/><path d="m1794 1315h-146c-23 0-20 25-20 40h234c0-46-5-41-68-40zm202 872h-1326c-14 0-25-12-25-26v-620h-66c-14 0-26-12-26-26v-134c0-25 23-26 42-26-8-23-4-107-4-135 0-162 142-182 251-221v-63c-42-29-74-73-87-125-15-13-23-32-23-52 0-30 17-40 17-50v-15c0-118 96-214 214-214s215 96 215 214l-1 20c12 12 18 28 18 45 0 20-9 39-24 52-13 52-45 96-87 125v63c107 38 252 58 252 221 0 28 4 112-4 135h244v-20c0-39 32-72 72-72h22v-41h-176c-44 0-80-36-80-80v-266c0-44 36-80 80-80h502c44 0 80 36 80 80v266c0 44-36 80-80 80h-176v41h22c40 0 72 33 72 72v20h173c15 0 26 12 26 26v134c0 14-11 26-26 26h-65v620c0 14-12 26-26 26zm-1300-52h1274v-594h-1274zm-34-780h55v-105c0-33 52-33 52 0v105h107l40-145-25-43-77-104c-191 60-172 99-172 268 0 13 9 24 20 24zm267 0h74l-33-123h-7zm128 0h100v-105c0-33 52-33 52 0v105c90 0 75 18 75-135 0-101-80-128-166-156l-76 103-25 43zm-452 134h1457v-82h-1457zm1064 181h-671c-33 0-33-51 0-51h671c33 0 33 51 0 51zm0 194h-671c-33 0-33-52 0-52h671c33 0 33 52 0 52zm0 193h-671c-33 0-33-51 0-51h671c33 0 33 51 0 51zm-782-1022c-6 6-14 8-21 11l45 61 21-31zm179 12-23-9-43 38 21 32zm-186-148c55 29 112 31 166 0 39-23 67-61 77-108 3-15 20-17 20-32 0-8-6-12-11-17-79 18-176-2-229-64-29 26-64 44-103 52-2 12-17 17-17 29 0 15 18 17 21 32 9 46 38 85 76 108zm14 63v10l72 65 66-59v-16c-43 15-94 15-138 0zm80 218 16-27-24-35-23 35 15 27zm-172-503c73-22 77-69 106-66 9 1 16 6 21 14 33 62 128 84 197 65-3-88-75-158-163-158-83 0-153 63-161 145zm1018 493h176c16 0 28-13 28-28v-266c0-16-12-29-28-29h-502c-15 0-28 13-28 29v266c0 15 13 28 28 28h176v-54c0-29 24-53 53-53h44c29 0 53 24 53 53zm-98 93h46v-147c0-2-46-2-46 0z" fill="#fff"/></g></svg>