<svg clip-rule="evenodd" fill-rule="evenodd" height="2.667in" image-rendering="optimizeQuality" shape-rendering="geometricPrecision" text-rendering="geometricPrecision" viewBox="0 0 2667 2667" width="2.667in" xmlns="http://www.w3.org/2000/svg"><g id="Layer_x0020_1"><circle cx="1333" cy="1333" fill="#ff700d" r="1333"/><path d="m1727 1154c-28 0-26-26-26-46l-102-2c0 19 1 45-26 45-38 0-22-47-26-64l-51-89c-12-18-48-46-21-68 24-19 42 12 55 28h234c18 0 31 19 25 35l-36 95c-4 21 10 66-26 66zm-493 1033c-75 0-632 2-645-1-12-3-21-14-20-26v-725-261c1-56 20-109 54-153v-290c0-334 584-334 584 0v290c5 15 54 57 54 160v115l287 1v-81h-222c-14 0-26-12-26-26v-319c0-14 12-26 26-26h625c14 0 26 12 26 26v319c0 14-12 26-26 26h-222v81h314c14 0 25 12 25 26v76l29 211c4 27-7 56-29 76v475c0 14-11 26-25 26zm-613-1012v107c29-39 70-73 118-97v-199c-71 43-118 112-118 189zm0 258v107c29-39 70-73 118-97v-199c-71 43-118 112-118 189zm0 260v106c29-40 70-74 118-97v-200c-73 44-117 112-118 191zm0 258v100c30-37 71-69 118-92v-199c-73 44-117 113-118 191zm9 184h109v-118c-50 29-89 70-109 118zm161 0h248v-142c-77-28-171-28-248 0zm299 0h110c-20-48-59-89-110-118zm119-595v-106c0-78-47-147-119-190v199c49 24 89 58 119 97zm0-258v-106c0-81-51-149-119-190v199c49 24 89 58 119 97zm52 142v228c27 24 73 29 106 14-10-17-15-36-13-55l19-187zm0 289v422h462v-315c0-15 11-26 26-26h192c14 0 26 11 26 26v315h50v-417c-43 15-93 10-131-14-47 29-112 29-159 1-47 28-113 28-160-1-48 29-114 30-162 0-42 26-99 29-144 9zm-586-744c67-55 151-82 240-82s172 27 240 81v-237c0-268-480-265-480 0zm364-8c-76-28-172-28-248 0v203c77-24 171-24 248 0zm0 258c-76-28-172-28-248 0v204c77-25 171-25 248 0zm170 473c0-78-47-147-119-190v200c49 23 89 57 119 97zm-170-215c-76-28-172-28-248 0v204c77-25 171-25 248 0zm170 473c0-77-47-147-119-190v199c48 23 89 55 119 92zm-170-215c-76-28-172-28-248 0v204c78-25 169-25 248 0zm987-80c12-10 22-24 20-38l-27-193h-106l25 186c3 19-2 39-13 57 32 13 74 9 101-12zm-165-231h-116l-19 192c-5 54 104 83 150 30 9-9 12-19 11-29zm-168 0h-101l26 186c2 19-2 38-13 56 26 11 57 11 83 1-10-18-15-37-13-56zm-153 0h-116l-18 192c-6 56 105 82 150 30 8-9 12-19 10-29zm-279-52h756v-23l-756-1zm513 763h141v-290h-141zm-127-74h-326c-14 0-26-12-26-26v-210c0-14 12-26 26-26h326c14 0 26 12 26 26v210c0 14-12 26-26 26zm-300-52h274v-158h-274zm253-712h78v-81h-78zm-248-133h573v-267h-573zm236-110 121 3 18-47h-165z" fill="#fff"/></g></svg>