<svg clip-rule="evenodd" fill-rule="evenodd" height="2.667in" image-rendering="optimizeQuality" shape-rendering="geometricPrecision" text-rendering="geometricPrecision" viewBox="0 0 2667 2667" width="2.667in" xmlns="http://www.w3.org/2000/svg"><g id="Layer_x0020_1"><circle cx="1333" cy="1333" fill="#f10" r="1333"/><path d="m1438 1887h-758c-34 0-34-51 0-51h758c34 0 34 51 0 51zm173 175h-1105c-14 0-26-11-26-25v-1407c0-14 12-26 26-26h1105c15 0 26 12 26 26v495c80 7 156 43 211 102 105 113 114 282 30 404l62 67c21-6 45 0 60 16l171 191c22 24 20 60-3 82l-64 60c-24 22-61 20-83-3l-172-191c-15-17-19-40-11-60l-63-67c-42 25-89 39-138 43v268c0 14-11 25-26 25zm1-886c-246 4-356 288-199 456 101 109 273 116 383 14 181-168 60-469-184-470zm-26-51v-469h-1054v1355h1054v-242c-280-22-400-367-195-558 54-50 122-80 195-86zm258 546-26 25 53 57 27-24zm-232-6c-197 0-293-243-148-377 88-82 225-76 307 11 129 139 29 366-159 366zm-1-383c-144 0-219 172-121 278 63 67 168 71 234 8 110-102 37-286-113-286zm341 467-65 60c-2 3-2 7 1 9l172 191c2 2 6 2 9 0l64-60c3-2 3-7 0-9l-172-191c-2-2-6-2-9 0zm-386-209c-6 0-13-2-18-7l-44-44c-24-25 13-61 37-37l25 26 116-116c24-24 61 12 37 36l-134 135c-5 5-12 7-19 7zm-338-709h-339c-34 0-34-52 0-52h339c34 0 34 52 0 52zm210 151h-758c-34 0-34-52 0-52h758c34 0 34 52 0 52zm0 151h-758c-34 0-34-52 0-52h758c34 0 34 52 0 52zm-179 151h-579c-34 0-34-52 0-52h579c34 0 34 52 0 52zm-51 151h-528c-34 0-34-52 0-52h528c34 0 34 52 0 52zm0 151h-528c-34 0-34-52 0-52h528c34 0 34 52 0 52zm51 150h-579c-34 0-34-51 0-51h579c34 0 34 51 0 51z" fill="#fff"/></g></svg>