<svg clip-rule="evenodd" fill-rule="evenodd" height="2.667in" image-rendering="optimizeQuality" shape-rendering="geometricPrecision" text-rendering="geometricPrecision" viewBox="0 0 2667 2667" width="2.667in" xmlns="http://www.w3.org/2000/svg"><g id="Layer_x0020_1"><circle cx="1333" cy="1333" fill="#ff700d" r="1333"/><path d="m1000 1665c3-175 57-149 62-309h-103c-5 173-59 146-62 309zm892 373h-1226c-102 0-186-84-186-186v-161c0-31 36-26 58-26v-154c0-114 93-207 207-207h315c114 0 206 93 206 207v154h71v-118c0-93 76-169 170-169h348c93 0 169 76 169 169v118c20 0 55-5 55 26v161c0 102-84 186-187 186zm-1360-321v81h1495v-81zm0 133c0 76 60 136 134 136h1226c75 0 135-60 135-136zm857-185h91c5-137 52-116 58-236h-31c-66 0-118 53-118 118zm143 0h94c4-137 52-116 57-236h-94c-5 135-53 113-57 236zm146 0h94c4-137 51-116 57-236h-94c-5 135-53 113-57 236zm145 0h150v-118c0-56-40-103-92-115-6 133-53 111-58 233zm-1176-441c-11 0-22-7-25-19l-24-91c-4-13 4-27 17-31l416-135-416-134c-13-4-21-18-17-31l24-91c4-13 17-22 31-19l739 159 609-197c122-39 235 103 164 220-20 33-52 55-88 63l-142 30 142 31c126 27 152 206 32 272-34 18-72 22-108 11l-609-197c-4 0-733 159-745 159zm468-303 178-57-627-135-12 44zm697 54-53 11-35 132 293 94c77 25 150-67 104-143-13-21-32-35-55-39zm-109 23-210 45 182 59zm-1049 126 12 44 1048-225-39-148zm1111-192 301-65c51-10 79-66 66-115-14-50-66-83-115-67l-293 94zm-652 434c-6 164-58 138-61 299h162v-154c0-67-42-124-101-145zm-523 299h101c3-175 57-149 61-309-94 0-162 68-162 155zm152 0h104c3-175 56-149 61-309h-103c-4 173-59 145-62 309z" fill="#fff"/></g></svg>