<svg clip-rule="evenodd" fill-rule="evenodd" height="2.667in" image-rendering="optimizeQuality" shape-rendering="geometricPrecision" text-rendering="geometricPrecision" viewBox="0 0 2667 2667" width="2.667in" xmlns="http://www.w3.org/2000/svg"><g id="Layer_x0020_1"><circle cx="1333" cy="1333" fill="#f44c71" r="1333"/><path d="m1986 2071h-810c-34 0-34-52 0-52h810v-43h-810c-34 0-34-52 0-52h810v-64h-1168c-76 0-137 61-137 137s61 138 137 138h1168zm-1197-261v-1275c-62 13-108 68-108 134v1198c28-29 65-50 108-57zm24-1330c102-2 1200-1 1207 1 10 4 18 13 18 25v1655c0 14-12 26-26 26h-1194c-104 0-188-83-189-190v-1328c0-102 82-186 184-189zm27 1328h1146v-1276h-1146zm193-778c-9-202 146-400 380-400 210 0 381 171 381 381 0 214-176 383-386 380-199-3-366-161-375-361zm380-348c-265 0-420 298-271 515 35-114 142-197 265-197 129 0 238 88 269 208 162-215 8-526-263-526zm-229 564c124 121 319 125 448 10-11-115-107-204-225-204-112 0-208 84-223 194zm229-292c-58 0-105-48-105-105 0-58 47-106 105-106s105 48 105 106c0 57-47 105-105 105zm0-159c-70 0-70 107 0 107s70-107 0-107zm425 758h-850c-34 0-34-52 0-52h850c35 0 35 52 0 52zm0 156h-850c-34 0-34-51 0-51h850c35 0 35 51 0 51z" fill="#fff"/></g></svg>