<svg clip-rule="evenodd" fill-rule="evenodd" height="2.667in" image-rendering="optimizeQuality" shape-rendering="geometricPrecision" text-rendering="geometricPrecision" viewBox="0 0 2667 2667" width="2.667in" xmlns="http://www.w3.org/2000/svg"><g id="Layer_x0020_1"><circle cx="1333" cy="1333" fill="#f44c71" r="1333"/><circle cx="1333" cy="1333" fill="#7ed63f" r="1333"/><path d="m1746 1788h-35c-38 0-69-30-69-68v-119c0-37 31-68 69-68h167c38 0 69 31 69 68v10h146v-594h-1520v940h1173zm268 399h-1361c-73 0-131-59-131-131v-1247c0-72 58-130 131-130h114v-67c0-73 59-132 132-132s133 59 133 132v67h169v-67c0-73 59-132 132-132s133 59 133 132v67h169v-67c0-73 59-132 132-132s133 59 133 132v67h114c72 0 131 58 131 130v1247c0 72-59 131-131 131zm-1112-1310c41-1 78-35 78-81v-184c0-44-36-80-81-80-44 0-80 36-80 80s-2 136 0 184c0 5 0 9 1 13 3 39 44 69 82 68zm437 0c40-3 75-36 75-81v-184c0-44-36-80-81-80-44 0-80 36-80 80 0 49-3 155 1 197 3 40 46 71 85 68zm347-81c0 60 64 97 114 74 29-13 48-42 48-74v-184c0-44-36-80-81-80-44 0-81 36-81 80zm-1033-66c-44 0-80 36-80 79v156h1520v-156c0-43-35-79-79-79h-114c0 38 5 79-10 115-45 115-218 112-251-16-8-30-4-69-4-99h-169c0 27 2 58-2 86-9 62-58 110-126 112-58 2-116-33-133-99-8-30-4-69-4-99h-169c0 38 5 79-9 115-22 54-71 82-121 83-56 2-113-31-131-99-8-30-4-69-4-99zm-80 1279v47c0 43 36 79 80 79h1361c44 0 79-36 79-79v-357l-303 304c-8 8-17 8-27 6zm1224-88 260-258h-198c-34 0-62 27-62 61zm-841-480h-168c-37 0-68-30-68-68v-119c0-37 30-68 68-68h168c38 0 68 31 68 68v119c0 38-30 68-68 68zm-168-203c-9 0-16 7-16 16v119c0 9 7 17 16 17h168c9 0 17-8 17-17v-119c0-9-8-16-17-16zm629 203h-168c-37 0-68-30-68-68v-119c0-37 31-68 68-68h168c38 0 69 31 69 68v119c0 38-31 68-69 68zm-168-203c-9 0-16 7-16 16v119c0 9 7 17 16 17h168c9 0 17-8 17-17v-119c0-9-8-16-17-16zm629 203h-167c-38 0-69-30-69-68v-119c0-37 31-68 69-68h167c38 0 69 31 69 68v119c0 38-31 68-69 68zm-167-203c-9 0-17 7-17 16v119c0 9 8 17 17 17h167c9 0 17-8 17-17v-119c0-9-8-16-17-16zm-755 550h-168c-37 0-68-30-68-68v-119c0-37 30-68 68-68h168c38 0 68 31 68 68v119c0 38-30 68-68 68zm-168-203c-9 0-16 7-16 16v119c0 9 7 17 16 17h168c9 0 17-8 17-17v-119c0-9-8-16-17-16zm629 203h-168c-37 0-68-30-68-68v-119c0-37 31-68 68-68h168c38 0 69 31 69 68v119c0 38-31 68-69 68zm-168-203c-9 0-16 7-16 16v119c0 9 7 17 16 17h168c9 0 17-8 17-17v-119c0-9-8-16-17-16zm462 0c-9 0-17 7-17 16v119c0 23 37 17 52 17v-13c0-62 50-113 113-113h36c0-12-1-26-17-26z" fill="#fff"/></g></svg>