<svg clip-rule="evenodd" fill-rule="evenodd" height="2.667in" image-rendering="optimizeQuality" shape-rendering="geometricPrecision" text-rendering="geometricPrecision" viewBox="0 0 2667 2667" width="2.667in" xmlns="http://www.w3.org/2000/svg"><g id="Layer_x0020_1"><circle cx="1333" cy="1333" fill="#f44c71" r="1333"/><path d="m721 2147-99-3c-14 0-25-11-25-25 0-132-60-689-66-745-21-43-163-370 145-554 14-33 66-170 40-268-5-16 8-33 25-33h448c14 0 26 11 26 25 8 126 72 293 140 470 38 98 77 200 109 302 40 124 147 301 216 393 66-22 83-46 103-27 153 150 260 277 396 422 16 16 4 43-19 43h-815c-5 0-10-1-14-4-82-51-197-229-218-273-1-3-94-189-280-334l-86 589c-2 13-13 22-26 22zm-135-744c14 129 57 541 62 690l51 2 87-594c-59-39-125-74-200-98zm143-575c67 46 301 217 450 475 1 2 174 283 280 389 42 43 107 44 167 32-69-96-170-265-211-392-73-232-229-563-249-761h-394c13 99-26 212-43 257zm623 1268h749c-114-124-211-235-341-364-89 43-245 89-338-4-110-110-280-387-288-399-144-250-380-421-438-460-253 157-147 421-122 476 387 110 572 476 585 502 52 90 133 207 193 249z" fill="#fff"/></g></svg>