<svg clip-rule="evenodd" fill-rule="evenodd" height="2.667in" image-rendering="optimizeQuality" shape-rendering="geometricPrecision" text-rendering="geometricPrecision" viewBox="0 0 2667 2667" width="2.667in" xmlns="http://www.w3.org/2000/svg"><g id="Layer_x0020_1"><circle cx="1333" cy="1333" fill="#1d81ce" r="1333"/><path d="m1184 1406c-14 0-26-12-26-26v-391c0-34 52-34 52 0v391c0 14-12 26-26 26zm86 322c-189 0-388-90-544-246-274-274-327-666-118-874 83-84 197-128 330-128 368 0 732 336 784 704 16 116 0 223-45 311l427 342c144 115 93 361-109 349-62-3-119-33-158-82l-342-427c-66 34-142 51-225 51zm380-188c-30 43-67 81-110 110l337 422c84 105 266 78 257-73-2-48-25-92-62-122zm-712-1008c-119 0-220 39-294 112-188 189-135 548 118 801 147 147 332 231 508 231 113 0 217-35 293-112 95-95 127-231 107-373-48-345-394-659-732-659zm331 1073c-294 0-604-281-658-580-43-239 93-422 328-422 152 0 322 79 454 212 225 224 278 537 119 697-61 61-145 93-243 93zm-330-950c-338 0-383 408-88 702 123 123 279 196 418 196 334 0 385-404 88-702-123-123-279-196-418-196zm1051 1429c-83 0-126-101-66-160 36-37 96-37 132 0 59 59 17 160-66 160zm0-136c-37 0-56 46-30 72 39 39 100-20 60-60-8-8-19-12-30-12zm-966-703c-15 0-26-11-26-25v-392c0-34 51-34 51 0v392c0 14-11 25-25 25z" fill="#fff"/></g></svg>