<svg clip-rule="evenodd" fill-rule="evenodd" height="2.667in" image-rendering="optimizeQuality" shape-rendering="geometricPrecision" text-rendering="geometricPrecision" viewBox="0 0 2667 2667" width="2.667in" xmlns="http://www.w3.org/2000/svg"><g id="Layer_x0020_1"><circle cx="1333" cy="1333" fill="#f10" r="1333"/><path d="m1869 1627h-53v126c0 78-64 142-143 142h-41l-118 276c-4 9-13 16-23 16h-474c-11 0-20-7-24-16l-118-276h-41c-78 0-142-64-142-142v-839c0-79 64-143 142-143h41l118-275c4-10 13-16 24-16h474c10 0 19 6 23 16l118 275h41c79 0 143 64 143 143v125h53c59 0 106 48 106 106v74c0 58-47 105-106 105h-53v18h53c59 0 106 48 106 106v74c0 58-47 105-106 105zm-1035-804c-50 0-91 41-91 91v839c0 50 41 91 91 91h839c50 0 91-41 91-91v-839c0-50-41-91-91-91zm98-52h644l-102-239h-440zm102 1364h440l102-240h-644zm201-544c-121-121-247-247-247-378 0-136 181-205 266-81 85-124 265-55 265 81 0 131-125 257-247 378-10 10-27 10-37 0zm-101-472c-52 0-94 43-94 94 0 104 106 215 214 324 108-109 214-220 214-324 0-51-43-94-94-94-92 0-79 90-120 90-42 0-28-90-120-90zm459 673h-678c-66 0-120-54-120-120v-678c0-66 54-120 120-120h678c66 0 120 54 120 120v678c0 66-54 120-120 120zm-678-866c-38 0-68 31-68 68v678c0 38 30 68 68 68h678c37 0 68-30 68-68v-678c0-37-31-68-68-68zm901 346h53c30 0 54-24 54-53v-74c0-30-24-54-54-54h-53zm0 304h53c30 0 54-25 54-54v-74c0-30-24-54-54-54h-53z" fill="#fff"/></g></svg>