<svg clip-rule="evenodd" fill-rule="evenodd" height="2.667in" image-rendering="optimizeQuality" shape-rendering="geometricPrecision" text-rendering="geometricPrecision" viewBox="0 0 2667 2667" width="2.667in" xmlns="http://www.w3.org/2000/svg"><g id="Layer_x0020_1"><circle cx="1333" cy="1333" fill="#7ed63f" r="1333"/><path d="m1410 1530c-6 0-13-2-18-7l-115-116c-55 28-121-11-121-74 0-36 24-68 57-79v-163c0-34 52-34 52 0v163c48 16 71 72 48 117l116 115c16 16 4 44-19 44zm249 365h-41l-118 276c-4 9-13 16-24 16h-474c-10 0-19-7-23-16l-118-276h-41c-79 0-143-64-143-142v-839c0-79 64-143 143-143h41l118-275c4-10 13-16 23-16h474c11 0 20 6 24 16l118 275h41c78 0 142 64 142 143v277h68c67 0 120 54 120 120v35c0 66-53 120-120 120h-68v287c0 78-64 142-142 142zm-839-1072c-50 0-91 41-91 91v839c0 50 41 91 91 91h839c50 0 91-41 91-91v-839c0-50-41-91-91-91zm839 972h-839c-24 0-43-19-43-42v-839c0-24 19-43 43-43h839c23 0 42 19 42 43v839c0 23-19 42-42 42zm-830-51h384c0-24-6-61 26-61s26 37 26 61h384v-385c-23 0-60 6-60-26 0-31 37-26 60-26v-384h-384c0 24 6 61-26 61s-26-37-26-61h-384v384c24 0 61-5 61 26 0 32-37 26-61 26zm88-973h644l-102-239h-440zm102 1364h440l102-240h-644zm782-721h68c38 0 69-30 69-68v-35c0-37-31-68-69-68h-68zm-562-112c-41 0-41 63 0 63s41-63 0-63z" fill="#fff"/></g></svg>