<svg clip-rule="evenodd" fill-rule="evenodd" height="2.667in" image-rendering="optimizeQuality" shape-rendering="geometricPrecision" text-rendering="geometricPrecision" viewBox="0 0 2667 2667" width="2.667in" xmlns="http://www.w3.org/2000/svg"><g id="Layer_x0020_1"><circle cx="1333" cy="1333" fill="#378b4e" r="1333"/><path d="m1381 672-48-104-48 104zm-104 344c-292 28-531 274-531 584 0 323 264 587 587 587 324 0 587-264 587-587 0-305-233-556-530-584l281-303 5-14-5-16-134-190c-5-7-12-12-21-12-52-3-331-1-364-1-8 0-16 4-21 11l-135 192c-7 10-6 24 2 33zm56 49c-301 3-535 241-535 535 0 295 240 535 535 535s536-240 536-535c0-294-235-532-536-535zm0 991c-251 0-456-205-456-456 0-252 205-457 456-457 252 0 457 205 457 457 0 251-205 456-457 456zm0-861c-223 0-405 181-405 405 0 223 182 405 405 405 224 0 405-182 405-405 0-224-181-405-405-405zm-128-332-78-139h-51zm-18-139 120 216v-216zm172 216 121-216h-121zm180-216-77 139 129-139zm61-52-81-115-57 115zm-127-140h-99l48 105zm-180 0h-99l51 105zm-145 25-81 115h137z" fill="#fff"/></g></svg>