<svg clip-rule="evenodd" fill-rule="evenodd" height="2.667in" image-rendering="optimizeQuality" shape-rendering="geometricPrecision" text-rendering="geometricPrecision" viewBox="0 0 2667 2667" width="2.667in" xmlns="http://www.w3.org/2000/svg"><g id="Layer_x0020_1"><circle cx="1333" cy="1333" fill="#00ab94" r="1333"/><path d="m1069 1035v-147c-108-30-125-232 16-289 7-2 14-2 20 0 141 57 124 259 16 289v147h189v-147c-109-30-125-232 16-289 6-2 13-2 19 0 141 57 125 259 17 289v147h188v-147c-108-30-124-232 17-289 6-2 13-2 19 0 141 57 125 259 16 289v147h152c63 0 115 52 115 115v223h30c84 0 151 68 151 151v324h26c61 0 111 50 111 111v85c0 14-12 25-26 25h-1655c-14 0-26-11-26-25v-85c0-61 50-111 111-111h25v-324c0-83 68-151 151-151h36v-223c0-63 51-115 115-115zm-302 390c-55 0-99 44-99 99v65c42 35 230 168 405-6 9-10 27-10 36 0 194 194 405 7 414-1 8-8 22-9 32-2s249 170 444-14v-42c0-55-45-99-100-99-377 0-754 0-1132 0zm88-52h962v-89c-126 11-235-46-275-70-57 44-260 174-451 4-70 62-151 91-236 84zm1144 475v-215c-186 140-397 35-457 0-119 91-297 141-451 4-167 149-344 67-423 16v195zm-182-616v-82c0-35-29-63-63-63h-836c-35 0-63 28-63 63v100c79 8 153-21 218-86 10-10 26-10 36 0 194 194 405 7 414-1 8-8 22-9 32-2 1 1 123 85 262 71zm-1285 786h1603v-59c0-33-27-59-59-59h-1485c-33 0-59 26-59 59zm1044-1366c-92 48-66 188 0 188s93-140 0-188zm-240 0c-93 48-66 188 0 188s92-140 0-188zm-241 0c-92 48-66 188 0 188s92-140 0-188z" fill="#fff"/></g></svg>