<svg clip-rule="evenodd" fill-rule="evenodd" height="2.667in" image-rendering="optimizeQuality" shape-rendering="geometricPrecision" text-rendering="geometricPrecision" viewBox="0 0 2667 2667" width="2.667in" xmlns="http://www.w3.org/2000/svg"><g id="Layer_x0020_1"><circle cx="1333" cy="1333" fill="#00ab94" r="1333"/><path d="m997 1587v-278c0-49 36-91 83-99v-146c0-109 88-197 197-197h75c109 0 197 88 197 197v66c0 33-27 61-60 61h-26c-33 0-60-27-60-61 0-58 4-117-88-117-49 0-89 40-89 89v107h329c55 0 100 45 100 100v316c0 56-45 101-100 101h-458c-55 0-100-45-100-101zm336 600c-4 0-8-2-12-4-943-543-769-1313-746-1399 12-43 37-17 88-17 136 0 238-123 214-256-3-16 9-31 25-31h863c16 0 28 15 25 31-28 156 115 289 268 249 14-4 28 4 32 17 2 9 63 213 1 490-56 255-231 620-745 916-4 2-8 4-13 4zm-712-1372c-13 60-42 231 6 444 54 242 221 588 706 872 486-284 653-631 707-873 48-212 19-383 6-443-170 27-322-112-310-283h-805c12 171-140 310-310 283zm705 1244c-5 0-9-1-14-4-342-206-552-468-625-778-28-123-34-253-15-375 3-16 15-22 30-22 140 0 254-104 267-243 1-13 12-24 26-24h662c13 0 24 11 26 24 12 140 127 243 271 243 13 0 23 9 25 22 20 122 14 252-15 375-72 310-283 572-625 778-4 3-9 4-13 4zm-606-1128c-14 111-8 224 18 334 68 292 266 540 588 738 322-198 520-446 588-738 26-110 32-223 17-334-150-8-273-118-297-266h-617c-24 148-147 258-297 266zm412 278h42v-107c0-177 281-197 281-6 0 49-6 43 34 43 4 0 8-4 8-9v-66c0-80-65-145-145-145h-75c-80 0-145 65-145 145zm-84 119 97 32c11 3 18 13 18 24v170c0 12-7 22-18 25l-97 28v18c0 27 22 49 49 49h458c26 0 48-22 48-49v-18l-96-28c-11-3-19-13-19-25v-170c0-11 8-21 18-24l97-32v-19c0-27-22-49-48-49h-458c-27 0-49 22-49 49zm492 207 63 18v-170l-63 20zm-214 104c-84 0-124-98-64-153v-165c0-14 12-26 26-26h75c15 0 26 12 26 26v165c61 54 21 153-63 153zm-12-292v151c0 26-29 22-29 52 0 49 82 49 82 0 0-30-29-26-29-52v-151zm-266 36v170l64-18v-132z" fill="#fff"/></g></svg>