<svg clip-rule="evenodd" fill-rule="evenodd" height="2.667in" image-rendering="optimizeQuality" shape-rendering="geometricPrecision" text-rendering="geometricPrecision" viewBox="0 0 2667 2667" width="2.667in" xmlns="http://www.w3.org/2000/svg"><g id="Layer_x0020_1"><circle cx="1333" cy="1333" fill="#1d81ce" r="1333"/><path d="m1591 1415h-598c-33 0-33-51 0-51h598c33 0 33 51 0 51zm570 266h-79c1 90-72 164-161 164-90 0-163-74-162-164h-502c2 90-72 164-161 164-90 0-163-74-162-164-14 0-49 3-61-1-11-2-20-12-20-25v-723c0-61 50-110 110-110h658c61 0 110 49 110 110v65h153c38 0 70 31 70 70v18c16 0 38-4 47 14l182 332 4 12v212c0 15-12 26-26 26zm-88-51h62v-161h-332c-14 0-26-11-26-26v-230c0-14 12-26 26-26h188l-28-50h-232v493h37c50-144 255-144 305 0zm44-212-98-179h-190v179zm-438 120v-606c0-32-26-58-58-58h-658c-32 0-58 26-58 58v606h119c21-11 46-17 72-17 25 0 50 6 71 17zm-431 92h431v-40h-451c8 12 15 25 20 40zm-285-40h-58v40h38c5-15 12-28 20-40zm133 168c-42 0-75-34-75-75s33-75 75-75c41 0 75 34 75 75s-34 75-75 75zm0-98c-30 0-30 46 0 46s30-46 0-46zm0-87c-61 0-111 49-111 110s50 110 111 110c60 0 110-49 110-110s-50-110-110-110zm635-488h171c0-14 2-36-18-36h-153zm190 673c-42 0-75-34-75-75s33-75 75-75c41 0 74 34 74 75s-33 75-74 75zm0-98c-31 0-31 46 0 46 30 0 30-46 0-46zm0-87c-62 0-111 51-111 110 0 61 50 110 111 110 60 0 110-49 110-110s-50-110-110-110zm-1166-671h-175c-33 0-33-52 0-52h175c33 0 33 52 0 52zm20 150h-269c-34 0-34-52 0-52h269c33 0 33 52 0 52zm-20 150h-175c-33 0-33-51 0-51h175c33 0 33 51 0 51zm20 151h-269c-34 0-34-52 0-52h269c33 0 33 52 0 52zm-20 150h-175c-33 0-33-52 0-52h175c33 0 33 52 0 52zm20 150h-269c-34 0-34-51 0-51h269c33 0 33 51 0 51zm816-605h-598c-33 0-33-52 0-52h598c33 0 33 52 0 52zm0 122h-598c-33 0-33-51 0-51h598c33 0 33 51 0 51zm0 123h-598c-33 0-33-52 0-52h598c33 0 33 52 0 52z" fill="#fff"/></g></svg>