<svg height="512pt" viewBox="0 0 512 512" width="512pt" xmlns="http://www.w3.org/2000/svg"><path d="m489.480469 180.5c8.097656 23.941406 12.519531 49.351562 12.519531 75.5s-4.421875 51.558594-12.519531 75.5h-.011719l-99.519531-19.910156c7.722656-17.359375 12.050781-36.210938 12.050781-55.589844s-4.328125-38.230469-12.050781-55.589844c.160156-.03125 99.417969-19.890625 99.519531-19.910156zm0 0" fill="#fff"/><path d="m389.949219 200.410156c-15.308594-34.449218-43.917969-63.058594-78.359375-78.359375l19.910156-99.519531c71.945312 24.230469 132.863281 83.425781 157.96875 157.96875-.175781.035156-99.359375 19.878906-99.519531 19.910156zm0 0" fill="#ff7da4"/><path d="m331.5 489.46875-19.910156-99.519531c34.441406-15.300781 63.050781-43.910157 78.359375-78.359375l93 18.601562-.007813.046875c1.597656 2.351563 3.109375 4.660157 4.527344 6.953125-26.140625 71.304688-85.078125 128.402344-155.96875 152.277344zm0 0" fill="#ff7da4"/><path d="m311.589844 389.949219 19.910156 99.519531c-23.941406 8.101562-49.351562 12.53125-75.5 12.53125s-51.558594-4.421875-75.5-12.519531l19.910156-99.53125c17.359375 7.722656 36.210938 12.050781 55.589844 12.050781s38.230469-4.328125 55.589844-12.050781zm0 0" fill="#fff"/><path d="m331.5 22.519531-19.910156 99.53125c-17.359375-7.722656-36.210938-12.050781-55.589844-12.050781s-38.230469 4.328125-55.589844 12.050781l-19.910156-99.519531c23.941406-8.109375 49.351562-12.53125 75.5-12.53125s51.558594 4.421875 75.5 12.519531zm0 0" fill="#fff"/><path d="m180.5 22.53125 19.910156 99.519531c-34.441406 15.300781-63.050781 43.910157-78.359375 78.359375l-99.519531-19.910156c24.65625-73.21875 84.664062-133.28125 157.96875-157.96875zm0 0" fill="#ff7da4"/><path d="m122.050781 311.589844c15.308594 34.449218 43.917969 63.058594 78.359375 78.359375l-19.910156 99.519531c-71.953125-24.230469-132.867188-83.433594-157.96875-157.96875.175781-.035156 99.359375-19.878906 99.519531-19.910156zm0 0" fill="#ff7da4"/><path d="m22.519531 180.5 99.53125 19.910156c-7.722656 17.359375-12.050781 36.210938-12.050781 55.589844s4.328125 38.230469 12.050781 55.589844c-.160156.03125-99.417969 19.890625-99.519531 19.910156-8.101562-23.941406-12.53125-49.351562-12.53125-75.5s4.421875-51.558594 12.519531-75.5zm0 0" fill="#fff"/><path d="m382 100c5.519531 0 10-4.480469 10-10s-4.480469-10-10-10-10 4.480469-10 10 4.480469 10 10 10zm0 0"/><path d="m130 412c-5.519531 0-10 4.480469-10 10s4.480469 10 10 10 10-4.480469 10-10-4.480469-10-10-10zm0 0"/><path d="m512 120c0-66.167969-53.832031-120-120-120-19.394531 0-38.515625 4.710938-55.59375 13.644531-26.484375-9.152343-53.335938-13.644531-80.40625-13.644531-25.675781 0-51.195312 4.089844-75.890625 12.136719-1.640625.050781-3.191406.449219-4.761719 1.375-17.027344-8.847657-36.050781-13.511719-55.347656-13.511719-66.167969 0-120 53.832031-120 120 0 19.40625 4.714844 38.535156 13.640625 55.597656-.171875.5-.347656 1.003906-.515625 1.503906-.023438.066407-.054688.125-.078125.195313-8.65625 25.585937-13.046875 52.066406-13.046875 78.703125 0 27.183594 4.53125 54.046875 13.644531 80.40625-8.933593 17.078125-13.644531 36.199219-13.644531 55.59375 0 66.167969 53.832031 120 120 120 19.378906 0 38.488281-4.703125 55.589844-13.636719.496094.167969 1.003906.34375 1.527344.519531.058593.019532.117187.050782.179687.070313 25.585937 8.65625 52.066406 13.046875 78.703125 13.046875s53.117188-4.390625 78.703125-13.046875c.066406-.023437.128906-.054687.195313-.078125.496093-.167969 1.003906-.34375 1.503906-.519531 17.074218 8.933593 36.191406 13.644531 55.597656 13.644531 67.003906 0 120-60.484375 120-126 0-18.226562-4.089844-33.398438-13.539062-49.882812.140624-.402344.273437-.800782.40625-1.191407.027343-.074219.058593-.144531.085937-.222656 8.65625-25.585937 13.046875-52.066406 13.046875-78.703125s-4.390625-53.117188-13.046875-78.703125c-.023437-.070313-.054687-.128906-.078125-.195313-.167969-.5-.34375-1.003906-.519531-1.507812 8.933593-17.078125 13.644531-36.199219 13.644531-55.59375zm-172.984375 356.0625-16.089844-80.433594c31.039063-15.734375 56.964844-41.65625 72.699219-72.703125l80.441406 16.085938c-24.433594 61.964843-75.078125 112.605469-137.050781 137.050781zm-166.03125-.003906c-61.957031-24.429688-112.601563-75.074219-137.046875-137.042969l17.359375-3.472656c9.074219 24.253906 22.449219 46.417969 39.863281 65.976562 3.679688 4.128907 10 4.488281 14.121094.820313 4.125-3.671875 4.492188-9.996094.820312-14.121094-15.03125-16.882812-26.738281-35.902344-34.910156-56.65625l43.183594-8.640625c15.738281 31.050781 41.664062 56.972656 72.703125 72.703125zm0-440.117188 16.089844 80.433594c-31.039063 15.730469-56.964844 41.652344-72.699219 72.703125l-80.4375-16.09375c24.441406-61.957031 75.070312-112.59375 137.046875-137.042969zm-143.640625 283.996094c-6.199219-20.902344-9.34375-42.371094-9.34375-63.9375s3.144531-43.035156 9.34375-63.9375l78.992188 15.800781c-5.53125 15.695313-8.335938 31.835938-8.335938 48.136719s2.804688 32.441406 8.335938 48.136719c-14.808594 2.960937-59.105469 11.824219-78.992188 15.800781zm90.65625-63.9375c0-71.695312 64.296875-136 136-136 72.011719 0 136 64.613281 136 136 0 71.945312-64.566406 136-136 136-72.011719 0-136-64.613281-136-136zm219.015625-220.0625c61.960937 24.445312 112.605469 75.085938 137.046875 137.046875l-17.359375 3.472656c-9.074219-24.253906-22.449219-46.417969-39.863281-65.976562-3.675782-4.125-9.992188-4.492188-14.121094-.820313-4.125 3.671875-4.488281 9.996094-.816406 14.121094 15.03125 16.882812 26.734375 35.902344 34.90625 56.65625l-43.183594 8.640625c-15.738281-31.050781-41.660156-56.972656-72.703125-72.703125zm143.640625 156.125c6.199219 20.902344 9.34375 42.371094 9.34375 63.9375s-3.144531 43.035156-9.34375 63.9375l-78.992188-15.800781c5.53125-15.695313 8.335938-31.835938 8.335938-48.136719s-2.804688-32.441406-8.335938-48.136719zm9.34375-72.0625c0 10.007812-1.507812 19.925781-4.414062 29.40625-25.914063-54.28125-70.707032-99.074219-124.992188-124.992188 9.480469-2.90625 19.398438-4.414062 29.40625-4.414062 55.140625 0 100 44.859375 100 100zm-172.0625-90.65625-15.800781 78.992188c-15.695313-5.53125-31.835938-8.335938-48.136719-8.335938s-32.441406 2.804688-48.136719 8.335938l-15.800781-78.984376c20.894531-6.207031 42.363281-9.351562 63.9375-9.351562 21.566406 0 43.035156 3.144531 63.9375 9.34375zm-199.9375-9.34375c10.011719 0 19.929688 1.507812 29.410156 4.414062-54.28125 25.90625-99.074218 70.699219-124.996094 124.992188-2.90625-9.480469-4.414062-19.398438-4.414062-29.40625 0-55.140625 44.859375-100 100-100zm-100 372c0-10.007812 1.507812-19.925781 4.414062-29.40625 25.921876 54.296875 70.722657 99.097656 124.988282 124.992188-9.480469 2.90625-19.394532 4.414062-29.402344 4.414062-55.140625 0-100-44.859375-100-100zm172.0625 90.65625 15.800781-78.992188c15.695313 5.53125 31.835938 8.335938 48.136719 8.335938s32.441406-2.804688 48.136719-8.335938l15.800781 78.992188c-20.902344 6.199219-42.371094 9.34375-63.9375 9.34375s-43.035156-3.144531-63.9375-9.34375zm199.9375 9.34375c-10.011719 0-19.925781-1.507812-29.40625-4.414062 54.710938-26.117188 99.785156-71.398438 125.601562-126.257813 2.414063 7.140625 3.804688 15.046875 3.804688 24.671875 0 56.46875-46.730469 106-100 106zm0 0"/></svg>