<svg height="512pt" viewBox="0 0 512 512" width="512pt" xmlns="http://www.w3.org/2000/svg"><path d="m88.269531 145.910156-36.800781-36.789062 56.570312-56.570313s33.710938 33.699219 36.769532 36.769531c20.992187-14.082031 44.589844-24.199218 70.191406-29.410156v-49.910156h80v49.910156c25.671875 5.230469 49.808594 15.390625 70.890625 29.449219 2.417969-2.390625 37.449219-37.429687 37.449219-37.429687l56.570312 56.570312s-36.070312 36.070312-37.601562 37.601562c13.792968 20.859376 23.75 44.578126 28.910156 69.898438h50.78125v80h-50.78125c-5.21875 25.601562-15.339844 49.328125-29.359375 70.371094.390625.378906 37.589844 37.589844 37.589844 37.589844l-56.570313 56.570312s-37.4375-37.441406-37.738281-37.75c-20.859375 13.917969-44.75 23.917969-70.140625 29.089844v50.128906h-80v-50.128906c-24.878906-5.070313-48.300781-14.871094-69.488281-28.960938-.25.238282-37.011719 37-37.011719 37l-56.570312-56.570312s36.589843-36.589844 36.820312-36.808594c-14.371094-21.480469-24.359375-45.339844-29.488281-70.53125h-49.261719v-80h49.261719c5.117187-25.140625 15.027343-48.949219 29.007812-70.089844zm0 0" fill="#94e1ff"/><path d="m256 116c-80.828125 0-140 65.882812-140 140 0 77.320312 62.679688 140 140 140 76.96875 0 140-62.3125 140-140 0-77.320312-62.679688-140-140-140zm0 0" fill="#fff"/><path d="m256 316c-5.519531 0-10 4.480469-10 10s4.480469 10 10 10 10-4.480469 10-10-4.480469-10-10-10zm0 0"/><path d="m156 166c5.519531 0 10-4.480469 10-10 0-5.488281-4.460938-10-10-10-5.519531 0-10 4.480469-10 10 0 5.535156 4.507812 10 10 10zm0 0"/><path d="m266 261.738281c0-3.933593 2.125-7.460937 5.28125-8.769531 15.015625-6.207031 24.71875-20.71875 24.71875-36.96875 0-22.054688-17.945312-40-40-40s-40 17.945312-40 40c0 5.523438 4.476562 10 10 10s10-4.476562 10-10c0-11.027344 8.972656-20 20-20s20 8.972656 20 20c0 8.125-4.851562 15.382812-12.371094 18.492188-10.707031 4.441406-17.628906 15.136718-17.628906 27.246093v24.261719c0 5.523438 4.476562 10 10 10s10-4.476562 10-10zm0 0"/><path d="m502 206h-42.773438c-5.058593-20.707031-13.171874-40.320312-24.1875-58.488281l31.941407-31.941407c3.902343-3.902343 3.90625-10.238281 0-14.140624l-56.570313-56.570313c-3.902344-3.90625-10.238281-3.90625-14.144531 0-.269531.273437-21.300781 21.304687-31.757813 31.75-18.421874-11.269531-38.378906-19.554687-59.507812-24.707031v-41.902344c0-5.523438-4.476562-10-10-10h-80c-5.523438 0-10 4.476562-10 10v41.90625c-20.757812 5.089844-40.480469 13.351562-58.8125 24.644531-10.457031-10.457031-31.078125-31.074219-31.078125-31.074219-3.90625-3.902343-10.234375-3.902343-14.140625.003907l-56.570312 56.570312c-1.875 1.875-2.929688 4.417969-2.929688 7.070313s1.054688 5.195312 2.929688 7.070312l31.140624 31.128906c-11.074218 18.246094-19.214843 37.921876-24.285156 58.679688h-41.253906c-5.523438 0-10 4.476562-10 10v80c0 5.523438 4.476562 10 10 10h41.253906c5.117188 20.882812 13.410156 40.714844 24.730469 59.148438-4.945313 4.941406-14.109375 14.101562-31.125 31.121093-3.90625 3.90625-3.90625 10.238281 0 14.140625l56.570313 56.570313c3.902343 3.90625 10.238281 3.90625 14.140624 0l31.332032-31.328125c18.136718 11.070312 37.617187 19.191406 58.097656 24.21875v42.128906c0 5.523438 4.476562 10 10 10h80c5.523438 0 10-4.476562 10-10v-42.121094c20.90625-5.097656 40.605469-13.261718 58.75-24.347656l32.058594 32.070312c3.90625 3.90625 10.238281 3.902344 14.144531 0l56.570313-56.570312c3.902343-3.90625 3.90625-10.234375 0-14.140625-7.96875-7.972656-23.484376-23.492187-31.90625-31.914063 11.253906-18.390624 19.507812-38.167968 24.605468-58.976562h42.777344c5.523438 0 10-4.476562 10-10v-80c0-5.523438-4.476562-10-10-10zm-10 80h-40.78125c-4.75 0-8.847656 3.34375-9.796875 8.003906-4.871094 23.878906-14.25 46.363282-27.882813 66.820313-2.652343 3.980469-2.097656 9.300781 1.300782 12.667969.613281.605468 17.527344 17.523437 30.46875 30.46875l-42.425782 42.425781s-30.414062-30.414063-30.566406-30.570313c-3.359375-3.460937-8.714844-4.035156-12.726562-1.355468-19.824219 13.230468-42.847656 22.777343-66.585938 27.609374-4.65625.949219-8.003906 5.046876-8.003906 9.800782v40.128906h-60v-40.128906c0-4.753906-3.347656-8.851563-8.003906-9.800782-23.546875-4.796874-45.734375-14.046874-65.949219-27.488281-3.902344-2.59375-9.078125-2.132812-12.457031 1.109375-.339844.328125-.570313.558594-.570313.558594l-29.519531 29.519531-42.429688-42.429687c12.558594-12.558594 28.847657-28.84375 29.679688-29.667969 3.433594-3.363281 3.988281-8.699219 1.3125-12.703125-13.703125-20.480469-23.125-43.011719-28.003906-66.964844-.949219-4.65625-5.046875-8.003906-9.796875-8.003906h-39.261719v-60h39.261719c4.75 0 8.847656-3.347656 9.796875-8.003906 4.863281-23.882813 14.132812-46.277344 27.550781-66.570313 2.625-3.964843 2.09375-9.226562-1.269531-12.585937l-29.726563-29.71875 42.425781-42.429688c10.058594 10.054688 27.527344 27.519532 29.6875 29.691406 3.378907 3.386719 8.679688 3.90625 12.65625 1.242188 20.386719-13.675781 42.800782-23.066406 66.609376-27.914062 4.660156-.949219 8.007812-5.046876 8.007812-9.800782v-39.910156h60v39.910156c0 4.753906 3.347656 8.851563 8.003906 9.800782 23.925782 4.875 47.210938 14.546874 67.335938 27.96875 3.945312 2.628906 9.199218 2.128906 12.574218-1.203126 1.757813-1.734374 20.035157-20.011718 30.425782-30.402343l42.429687 42.425781-30.53125 30.527344c-3.359375 3.363281-3.890625 8.625-1.269531 12.585937 13.355469 20.207031 22.59375 42.542969 27.453125 66.382813.949219 4.65625 5.046875 8.003906 9.796875 8.003906h40.78125zm0 0"/><path d="m256 106c-24.9375 0-49.605469 6.230469-71.34375 18.023438-.164062.085937-.558594.296874-.558594.296874-4.871094 2.601563-6.710937 8.660157-4.109375 13.53125 2.605469 4.871094 8.660157 6.710938 13.535157 4.109376 0 0 .40625-.214844.527343-.277344 18.855469-10.261719 40.277344-15.683594 61.949219-15.683594 71.683594 0 130 58.316406 130 130s-58.316406 130-130 130-130-58.316406-130-130c0-21.90625 5.222656-42.34375 15.964844-62.484375 2.597656-4.871094.753906-10.929687-4.117188-13.527344-4.875-2.601562-10.933594-.757812-13.53125 4.117188-12.324218 23.109375-18.316406 46.625-18.316406 71.894531 0 82.710938 67.289062 150 150 150 39.644531 0 77.078125-15.339844 105.40625-43.195312 28.757812-28.277344 44.59375-66.207032 44.59375-106.804688 0-82.710938-67.289062-150-150-150zm0 0"/></svg>