<svg height="512pt" viewBox="0 0 512.001 512" width="512pt" xmlns="http://www.w3.org/2000/svg"><path d="m10 10h492v306h-492zm0 0" fill="#fff"/><path d="m376 276c0-11.050781 8.949219-20 20-20s20 8.949219 20 20v20c0-11.050781 8.949219-20 20-20s20 8.949219 20 20v125.859375c0 9.3125-3.800781 18.230469-10.550781 24.679687-6.621094 6.332032-9.449219 15.691407-9.449219 24.863282v30.597656h-120v-33.96875c0-8.492188-4.109375-16.101562-10.089844-22.121094-2.628906-2.648437-4.570312-5.378906-6-8.121094-13.410156-25.597656-28.019531-50.546874-48.460937-70.980468l-13.128907-13.128906c-10.796874-10.804688-9.425781-28.695313 2.679688-37.679688 9.796875-7.382812 23.785156-6.574219 32.679688 2.320312l22.320312 22.332032c0-16.398438 0-111.273438 0-124.652344 0-11.050781 8.949219-20 20-20s20 8.949219 20 20v60c0-11.050781 8.949219-20 20-20s20 8.949219 20 20zm0 0" fill="#fed2a4"/><path d="m70 86c5.519531 0 10-4.480469 10-10s-4.480469-10-10-10-10 4.480469-10 10 4.480469 10 10 10zm0 0"/><path d="m70 146c5.519531 0 10-4.480469 10-10s-4.480469-10-10-10-10 4.480469-10 10 4.480469 10 10 10zm0 0"/><path d="m10 325.992188h212.46875c-3.527344 11.914062-.601562 25.367187 8.78125 34.757812l13.132812 13.132812c19.855469 19.847657 34.164063 44.675782 46.664063 68.535157 1.976563 3.789062 4.589844 7.335937 7.769531 10.539062 3.277344 3.300781 7.183594 8.59375 7.183594 15.074219v33.96875c0 5.523438 4.480469 10 10 10h120c5.523438 0 10-4.476562 10-10v-30.597656c0-7.34375 2.320312-13.769532 6.359375-17.632813 8.667969-8.28125 13.640625-19.914062 13.640625-31.910156v-95.859375h36c5.523438 0 10-4.476562 10-10v-306c0-5.523438-4.476562-10-10-10h-492c-5.523438 0-10 4.476562-10 10v306c0 5.523438 4.476562 9.992188 10 9.992188zm436 95.867187c0 6.5625-2.71875 12.921875-7.460938 17.453125-8.085937 7.730469-12.539062 19.128906-12.539062 32.089844v20.597656h-100v-23.96875c0-10.523438-4.492188-20.609375-12.992188-29.164062-1.78125-1.796876-3.167968-3.664063-4.238281-5.714844-13.242187-25.28125-28.496093-51.667969-50.246093-73.414063l-13.128907-13.125c-6.472656-6.480469-5.648437-17.226562 1.625-22.625 5.824219-4.390625 14.21875-3.964843 19.589844 1.402344l22.320313 22.328125c6.28125 6.285156 17.070312 1.828125 17.070312-7.066406v-124.652344c0-5.511719 4.484375-10 10-10s10 4.488281 10 10v100c0 5.523438 4.476562 10 10 10s10-4.476562 10-10c0-13.988281 0-26.007812 0-40 0-5.511719 4.484375-10 10-10s10 4.488281 10 10v40c0 5.523438 4.476562 10 10 10s10-4.476562 10-10v-40c0-5.511719 4.484375-10 10-10s10 4.488281 10 10v40c0 5.523438 4.476562 10 10 10s10-4.476562 10-10v-20c0-5.511719 4.484375-10 10-10s10 4.488281 10 10zm46-115.859375h-26v-10c0-16.542969-13.457031-30-30-30-3.902344 0-7.632812.757812-11.058594 2.121094-3.46875-12.730469-15.125-22.121094-28.941406-22.121094-7.679688 0-14.6875 2.902344-20 7.664062-5.3125-4.761718-12.320312-7.664062-20-7.664062-3.507812 0-6.871094.609375-10 1.71875v-31.71875c0-16.542969-13.457031-30-30-30s-30 13.457031-30 30v100.5l-5.25-5.25c-4.179688-4.179688-9.234375-7.167969-14.75-8.804688v-282.445312h226zm-472-286h226v282.441406c-2.820312.835938-5.515625 2.027344-8.039062 3.558594h-217.960938zm0 0"/><path d="m316 86h126c5.523438 0 10-4.476562 10-10s-4.476562-10-10-10h-126c-5.523438 0-10 4.476562-10 10s4.476562 10 10 10zm0 0"/><path d="m110 86h86c5.523438 0 10-4.476562 10-10s-4.476562-10-10-10h-86c-5.523438 0-10 4.476562-10 10s4.476562 10 10 10zm0 0"/><path d="m316 146h126c5.523438 0 10-4.476562 10-10s-4.476562-10-10-10h-126c-5.523438 0-10 4.476562-10 10s4.476562 10 10 10zm0 0"/><path d="m196 186h-126c-5.523438 0-10 4.476562-10 10s4.476562 10 10 10h126c5.523438 0 10-4.476562 10-10s-4.476562-10-10-10zm0 0"/><path d="m196 246h-126c-5.523438 0-10 4.476562-10 10s4.476562 10 10 10h126c5.523438 0 10-4.476562 10-10s-4.476562-10-10-10zm0 0"/><path d="m442 186h-66c-5.523438 0-10 4.476562-10 10s4.476562 10 10 10h66c5.523438 0 10-4.476562 10-10s-4.476562-10-10-10zm0 0"/><path d="m196 126h-86c-5.523438 0-10 4.476562-10 10s4.476562 10 10 10h86c5.523438 0 10-4.476562 10-10s-4.476562-10-10-10zm0 0"/></svg>