<svg height="511pt" viewBox="1 0 511.999 511" width="511pt" xmlns="http://www.w3.org/2000/svg"><path d="m371.996094 10.5c71.800781 0 130.003906 58.203125 130.003906 130.003906 0 71.800782-58.203125 130-130.003906 130-17.730469 0-34.640625-3.546875-50.039063-9.976562l-59.960937 29.980468 15.25-60.992187c-21.859375-23.261719-35.25-54.570313-35.25-89.011719 0-71.800781 58.199218-130.003906 130-130.003906zm0 0" fill="#94e1ff"/><path d="m404.417969 433.21875c3.898437 3.910156 5.859375 9.019531 5.859375 14.140625s-1.960938 10.230469-5.859375 14.140625c-9.832031 9.820312-20.75 17.878906-32.378907 24.179688l-103.382812-103.382813 37.269531-24.839844c7.929688-5.289062 18.492188-4.238281 25.230469 2.5zm0 0" fill="#446091"/><path d="m268.65625 382.296875 103.382812 103.382813c-53.0625 28.722656-120.773437 20.660156-165.613281-24.179688l-155.425781-155.421875c-27.328125-27.332031-41-63.171875-41-98.992187 0-22.960938 5.609375-45.902344 16.820312-66.621094l103.382813 103.378906-13.539063 20.300781c-5.28125 7.929688-4.242187 18.5 2.5 25.242188l103.949219 103.953125c6.742188 6.738281 17.3125 7.777344 25.242188 2.5zm0 0" fill="#ff7da4"/><path d="m152.542969 181.34375c6.738281 6.742188 7.789062 17.300781 2.5 25.230469l-24.839844 37.269531-103.382813-103.378906c6.300782-11.632813 14.359376-22.550782 24.179688-32.382813 7.8125-7.808593 20.472656-7.808593 28.28125 0zm0 0" fill="#446091"/><path d="m301.996094 120.503906c5.519531 0 10-4.480468 10-10 0-5.519531-4.480469-10-10-10-5.519532 0-10 4.480469-10 10 0 5.519532 4.480468 10 10 10zm0 0"/><path d="m301.996094 180.503906c5.519531 0 10-4.480468 10-10 0-5.519531-4.480469-10-10-10-5.519532 0-10 4.480469-10 10 0 5.519532 4.480468 10 10 10zm0 0"/><path d="m0 207.085938c0 40.066406 15.601562 77.734374 43.929688 106.0625l155.421874 155.421874c48.421876 48.421876 120.960938 56.363282 177.253907 26.003907.050781-.023438.179687-.09375.195312-.101563 12.699219-6.878906 24.367188-15.59375 34.699219-25.910156 11.550781-11.582031 11.867188-30.507812-.011719-42.414062l-73.257812-73.261719c-10.082031-10.078125-26-11.65625-37.851563-3.75-6.839844 4.558593-50.847656 33.898437-57.566406 38.378906-3.953125 2.632813-9.269531 2.109375-12.625-1.25l-103.953125-103.949219c-3.359375-3.359375-3.882813-8.667968-1.25-12.621094 47.039063-70.5625 36.910156-55.371093 38.378906-57.570312 7.90625-11.855469 6.332031-27.773438-3.75-37.851562l-73.257812-73.261719c-11.722657-11.71875-30.695313-11.730469-42.429688.003906-28.945312 28.976563-43.925781 67.175781-43.925781 106.070313zm311.476562 158.691406c3.945313-2.632813 9.246094-2.109375 12.609376 1.25l73.25 73.253906c3.9375 3.941406 3.90625 10.238281.015624 14.144531-7.191406 7.179688-15.144531 13.453125-23.6875 18.734375l-89.308593-89.304687zm-95.433593 34.632812c10.074219 10.070313 25.992187 11.648438 37.859375 3.746094l13.480468-8.984375 87.542969 87.539063c-47.855469 19.613281-104.304687 8.84375-141.429687-28.28125l-155.425782-155.425782c-24.546874-24.550781-38.070312-57.195312-38.070312-91.917968 0-17.007813 3.367188-33.886719 9.78125-49.519532l87.550781 87.550782-8.992187 13.484374c-7.898438 11.863282-6.320313 27.78125 3.75 37.855469zm-157.972657-285.257812c3.910157-3.90625 10.230469-3.90625 14.140626 0l73.261718 73.261718c3.359375 3.359376 3.886719 8.664063 1.25 12.613282l-18.078125 27.117187-89.304687-89.304687c5.285156-8.546875 11.554687-16.5 18.730468-23.6875zm0 0"/><path d="m341.996094 120.503906h100.003906c5.519531 0 10-4.476562 10-10 0-5.523437-4.480469-10-10-10h-100.003906c-5.523438 0-10 4.476563-10 10 0 5.523438 4.476562 10 10 10zm0 0"/><path d="m341.996094 180.503906h100.003906c5.519531 0 10-4.476562 10-10 0-5.523437-4.480469-10-10-10h-100.003906c-5.523438 0-10 4.476563-10 10 0 5.523438 4.476562 10 10 10zm0 0"/><path d="m252.292969 288.082031c-.945313 3.789063.398437 7.78125 3.445312 10.222657 3.042969 2.445312 7.234375 2.894531 10.726563 1.144531l55.957031-27.976563c15.8125 5.996094 32.464844 9.03125 49.574219 9.03125 77.199218 0 140.003906-62.804687 140.003906-140 0-77.199218-62.804688-140.003906-140.003906-140.003906-77.199219 0-140.003906 62.804688-140.003906 140.003906 0 33.917969 12.125 66.285156 34.257812 91.757813zm-.296875-147.578125c0-66.171875 53.832031-120.003906 120-120.003906 66.171875 0 120.003906 53.832031 120.003906 120.003906 0 66.167969-53.832031 120-120.003906 120-16.011719 0-31.554688-3.097656-46.1875-9.207031-2.683594-1.121094-5.722656-1.015625-8.324219.285156l-40.515625 20.253907 9.976562-39.894532c.828126-3.300781-.082031-6.796875-2.414062-9.273437-20.980469-22.328125-32.535156-51.507813-32.535156-82.164063zm0 0"/></svg>