<svg height="512pt" viewBox="0 0 512 512.00013" width="512pt" xmlns="http://www.w3.org/2000/svg"><path d="m241.875 128.714844 118.710938-118.710938 141.410156 141.40625-118.710938 118.714844zm0 0" fill="#fff"/><path d="m397.425781 284.261719-42.425781 42.429687-169.691406-169.691406 42.429687-42.425781c56.808594 56.808593 113.3125 113.3125 169.6875 169.6875zm0 0" fill="#595959"/><path d="m355 326.691406-140.132812 140.128906c-46.855469 46.867188-122.832032 46.867188-169.6875 0-46.867188-46.855468-46.867188-122.832031 0-169.6875l140.128906-140.132812zm-175.480469 90.640625c23.429688-23.4375 23.429688-61.425781 0-84.851562-23.425781-23.429688-61.414062-23.429688-84.855469 0-23.425781 23.425781-23.425781 61.414062 0 84.851562 23.441407 23.429688 61.429688 23.429688 84.855469 0zm0 0" fill="#ffe470"/><path d="m369.148438 199.417969c-3.910157 3.910156-3.910157 10.238281 0 14.140625 3.898437 3.90625 10.230468 3.90625 14.140624 0 3.898438-3.902344 3.898438-10.230469 0-14.140625-3.910156-3.898438-10.242187-3.898438-14.140624 0zm0 0"/><path d="m312.582031 128.710938c-3.910156-3.898438-10.238281-3.898438-14.140625 0-3.910156 3.910156-3.910156 10.242187 0 14.140624 3.902344 3.910157 10.230469 3.910157 14.140625 0 3.898438-3.898437 3.898438-10.230468 0-14.140624zm0 0"/><path d="m221.9375 473.890625c3.945312-3.941406 180.320312-180.320313 182.558594-182.558594 3.90625-3.90625 3.90625-10.238281 0-14.140625l-7.066406-7.066406 111.640624-111.644531c3.90625-3.902344 3.90625-10.234375 0-14.140625l-141.410156-141.410156c-1.875-1.875-4.417968-2.929688-7.070312-2.929688s-5.195313 1.054688-7.070313 2.929688l-111.644531 111.640624-7.066406-7.066406c-3.90625-3.90625-10.234375-3.90625-14.144532 0-64.476562 64.476563-141.15625 141.15625-182.554687 182.554688-50.808594 50.796875-50.816406 133.027344-.003906 183.832031 50.800781 50.808594 133.027343 50.816406 183.832031 0zm161.351562-217.910156-56.566406-56.5625 104.570313-104.570313 56.566406 56.5625zm-22.699218-231.839844 56.5625 56.5625-104.570313 104.574219-56.566406-56.566406zm-132.851563 104.574219 7.066407 7.066406c20.230468 20.230469 134 134 148.480468 148.480469l-28.285156 28.285156-155.550781-155.546875zm-175.488281 175.488281 133.058594-133.0625 155.546875 155.550781-133.058594 133.058594c-42.980469 42.992188-112.558594 43-155.546875 0-42.992188-42.980469-43-112.558594 0-155.546875zm0 0"/><path d="m431.292969 137.269531-33.867188 33.867188c-3.90625 3.90625-3.90625 10.238281 0 14.144531 3.90625 3.902344 10.234375 3.902344 14.140625 0l33.871094-33.867188c3.902344-3.90625 3.902344-10.238281 0-14.144531-3.910156-3.902343-10.238281-3.902343-14.144531 0zm0 0"/><path d="m340.859375 114.574219 33.871094-33.867188c3.902343-3.90625 3.902343-10.238281 0-14.140625-3.90625-3.90625-10.234375-3.90625-14.144531 0l-33.867188 33.867188c-3.90625 3.902344-3.90625 10.234375 0 14.140625s10.234375 3.90625 14.140625 0zm0 0"/><path d="m186.589844 424.40625s.003906-.003906.003906-.003906c27.285156-27.296875 27.285156-71.707032-.003906-98.992188-27.289063-27.289062-71.695313-27.289062-98.996094 0-27.285156 27.285156-27.285156 71.695313.003906 98.996094 27.292969 27.28125 71.699219 27.292969 98.992188 0zm-84.855469-84.855469c19.496094-19.484375 51.21875-19.5 70.714844 0 19.492187 19.492188 19.492187 51.214844 0 70.710938-19.488281 19.492187-51.210938 19.492187-70.710938.003906-19.492187-19.5-19.492187-51.222656-.003906-70.714844zm0 0"/></svg>