<svg height="512pt" viewBox="0 0 512 512" width="512pt" xmlns="http://www.w3.org/2000/svg"><path d="m482 116c-79.660156 0-417.367188 0-452 0-11.050781 0-20 8.949219-20 20v326c0 22.089844 17.910156 40 40 40h412c22.089844 0 40-17.910156 40-40 0-16.652344 0-309.382812 0-326 0-11.050781-8.949219-20-20-20zm0 0" fill="#ff7da4"/><path d="m442 402c0 11.050781-8.949219 20-20 20h-20c-11.050781 0-20-8.949219-20-20 0-5.265625 0-44.867188 0-60h60zm0 0" fill="#ffe470"/><path d="m376 50v66h-40v-66h-160v66h-40v-66c0-22.089844 17.910156-40 40-40h160c22.089844 0 40 17.910156 40 40zm0 0" fill="#446091"/><path d="m326 226v40h-50v50h-40v-50h-50v-40h50v-50h40v50zm0 0" fill="#fff"/><path d="m130 402c0 11.050781-8.949219 20-20 20h-20c-11.050781 0-20-8.949219-20-20 0-5.265625 0-44.867188 0-60h60zm0 0" fill="#ffe470"/><path d="m170 432c-5.519531 0-10 4.480469-10 10s4.480469 10 10 10 10-4.480469 10-10-4.480469-10-10-10zm0 0"/><path d="m50 512h412c27.570312 0 50-22.429688 50-50 0-17.855469 0-313.445312 0-326 0-16.542969-13.457031-30-30-30h-96v-56c0-27.570312-22.429688-50-50-50h-160c-27.570312 0-50 22.429688-50 50v56h-96c-16.542969 0-30 13.457031-30 30v326c0 27.570312 22.429688 50 50 50zm412-20h-412c-16.542969 0-30-13.457031-30-30v-80.027344c8.363281 6.292969 18.753906 10.027344 30 10.027344h10v10c0 16.542969 13.457031 30 30 30h20c16.542969 0 30-13.457031 30-30v-10h232v10c0 16.542969 13.457031 30 30 30h20c16.542969 0 30-13.457031 30-30v-10h10c11.246094 0 21.636719-3.734375 30-10.027344v80.027344c0 16.542969-13.457031 30-30 30zm-342-90c0 5.515625-4.484375 10-10 10h-20c-5.515625 0-10-4.484375-10-10v-50h40zm312 0c0 5.515625-4.484375 10-10 10h-20c-5.515625 0-10-4.484375-10-10v-50h40zm-286-352c0-16.542969 13.457031-30 30-30h160c16.542969 0 30 13.457031 30 30v56h-20v-56c0-5.523438-4.476562-10-10-10h-160c-5.523438 0-10 4.476562-10 10v56h-20zm40 56v-46h140v46zm-166 30c0-5.515625 4.484375-10 10-10h452c5.515625 0 10 4.484375 10 10v206c0 16.542969-13.457031 30-30 30h-10v-30c0-5.523438-4.476562-10-10-10h-60c-5.523438 0-10 4.476562-10 10v30h-232v-30c0-5.523438-4.476562-10-10-10h-60c-5.523438 0-10 4.476562-10 10v30h-10c-16.542969 0-30-13.457031-30-30 0-36.316406 0-202.921875 0-206zm0 0"/><path d="m186 276h40v40c0 5.523438 4.476562 10 10 10h40c5.523438 0 10-4.476562 10-10v-40h40c5.523438 0 10-4.476562 10-10v-40c0-5.523438-4.476562-10-10-10h-40v-40c0-5.523438-4.476562-10-10-10h-40c-5.523438 0-10 4.476562-10 10v40h-40c-5.523438 0-10 4.476562-10 10v40c0 5.523438 4.476562 10 10 10zm10-40h40c5.523438 0 10-4.476562 10-10v-40h20v40c0 5.523438 4.476562 10 10 10h40v20h-40c-5.523438 0-10 4.476562-10 10v40h-20v-40c0-5.523438-4.476562-10-10-10h-40zm0 0"/><path d="m342 432h-132c-5.523438 0-10 4.476562-10 10s4.476562 10 10 10h132c5.523438 0 10-4.476562 10-10s-4.476562-10-10-10zm0 0"/></svg>