<svg height="512pt" viewBox="0 0 512 512.00013" width="512pt" xmlns="http://www.w3.org/2000/svg"><path d="m197.65625 356.773438-136.4375 136.429687c-11.710938 11.71875-30.710938 11.71875-42.421875 0-11.71875-11.710937-11.71875-30.710937 0-42.421875l136.429687-136.4375zm0 0" fill="#ff7da4"/><path d="m226.773438 313.515625-36.1875 36.1875-28.289063-28.289063 36.1875-36.1875c8.28125 10.5 17.789063 20.007813 28.289063 28.289063zm0 0" fill="#fff"/><path d="m332.003906 10c93.886719 0 169.996094 76.109375 169.996094 169.996094 0 93.890625-76.109375 169.996094-169.996094 169.996094-39.730468 0-76.28125-13.628907-105.230468-36.476563-10.5-8.28125-20.007813-17.789063-28.289063-28.289063-22.847656-28.949218-36.476563-65.5-36.476563-105.230468 0-93.886719 76.105469-169.996094 169.996094-169.996094zm0 0" fill="#446091"/><path d="m332.003906 50c71.679688 0 129.996094 58.316406 129.996094 129.996094 0 71.476562-58.195312 130-129.996094 130-73.152344 0-131.679687-60.664063-129.96875-132.539063.832032-68.191406 57.457032-127.457031 129.96875-127.457031zm0 0" fill="#94e1ff"/><path d="m332.003906 239.996094c-5.519531 0-10 4.480468-10 10 0 5.519531 4.480469 10 10 10 5.519532 0 10-4.480469 10-10 0-5.519532-4.480468-10-10-10zm0 0"/><path d="m342.003906 185.738281c0-3.9375 2.125-7.460937 5.28125-8.769531 15.015625-6.210938 24.71875-20.722656 24.71875-36.972656 0-22.054688-17.945312-40-40-40-22.054687 0-40 17.945312-40 40 0 5.523437 4.476563 10 10 10 5.523438 0 10-4.476563 10-10 0-11.027344 8.972656-20 20-20s20 8.972656 20 20c0 8.125-4.855468 15.382812-12.371094 18.492187-10.710937 4.441407-17.628906 15.136719-17.628906 27.246094v24.261719c0 5.523437 4.476563 10 10 10 5.519532 0 10-4.476563 10-10zm0 0"/><path d="m332.003906 0c-99.25 0-179.996094 80.746094-179.996094 179.996094 0 37.882812 11.480469 73.75 33.277344 104.285156l-22.988281 22.992188c-3.902344-3.902344-10.238281-3.90625-14.140625 0l-136.425781 136.433593c-15.636719 15.625-15.640625 40.9375-.007813 56.5625 15.625 15.636719 40.9375 15.644531 56.566406.003907 140.460938-141.953126 139.367188-135.675782 139.367188-143.5 0-2.652344-1.054688-5.195313-2.929688-7.070313l22.992188-22.988281c30.535156 21.796875 66.398438 33.277344 104.285156 33.277344 99.25 0 179.996094-80.746094 179.996094-179.996094s-80.746094-179.996094-179.996094-179.996094zm-155.566406 321.414062 21.417969-21.417968c4.449219 4.972656 9.175781 9.699218 14.144531 14.148437l-21.414062 21.417969zm-122.292969 164.71875c-7.710937 7.714844-20.367187 7.914063-28.277343-.003906-7.816407-7.808594-7.820313-20.457031 0-28.277344l129.359374-129.363281 28.285157 28.285157zm277.859375-146.140624c-88.402344 0-160-71.636719-160-159.996094 0-88.222656 71.777344-159.996094 160-159.996094s159.996094 71.773438 159.996094 159.996094-71.773438 159.996094-159.996094 159.996094zm0 0"/><path d="m332.003906 40c-12.113281 0-24.839844 1.652344-35.839844 4.652344-5.328124 1.453125-8.472656 6.949218-7.019531 12.277344 1.453125 5.328124 6.949219 8.46875 12.277344 7.015624 9.335937-2.542968 20.195313-3.945312 30.582031-3.945312 66.164063 0 119.996094 53.828125 119.996094 119.996094 0 66.167968-53.832031 120-119.996094 120-66.167968 0-120-53.832032-120-120 0-28.082032 9.914063-55.375 27.914063-76.855469 3.546875-4.230469 2.992187-10.539063-1.242188-14.085937-4.230469-3.546876-10.539062-2.992188-14.085937 1.242187-21.011719 25.070313-32.585938 56.929687-32.585938 89.699219 0 77.195312 62.804688 140 140 140 77.90625 0 139.996094-63.023438 139.996094-140 0-77.195313-62.800781-139.996094-139.996094-139.996094zm0 0"/><path d="m272.003906 70c0 5.523438-4.476562 10-10 10-5.523437 0-10-4.476562-10-10s4.476563-10 10-10c5.523438 0 10 4.476562 10 10zm0 0"/></svg>