<svg height="512pt" viewBox="0 -16 512 512" width="512pt" xmlns="http://www.w3.org/2000/svg"><path d="m502 90v360c0 11.050781-8.949219 20-20 20h-452c-11.050781 0-20-8.949219-20-20v-360zm0 0" fill="#fff"/><path d="m502 30v60h-492v-60c0-11.050781 8.949219-20 20-20h452c11.050781 0 20 8.949219 20 20zm0 0" fill="#94e1ff"/><path d="m386 270v40l-23.851562 5.960938c-2.269532 8.378906-5.589844 16.257812-9.828126 23.617187l12.679688 21.132813-28.289062 28.277343-21.132813-12.667969c-7.359375 4.238282-15.238281 7.558594-23.617187 9.828126l-5.960938 23.851562h-40l-5.960938-23.851562c-7.96875-2.160157-15.890624-5.367188-23.617187-9.828126l-21.132813 12.667969-28.289062-28.277343 12.679688-21.132813c-4.238282-7.359375-7.558594-15.238281-9.828126-23.617187l-23.851562-5.960938v-40l23.851562-5.960938c2.269532-8.378906 5.589844-16.257812 9.828126-23.617187l-12.679688-21.132813 28.289062-28.289062 21.132813 12.679688c7.476563-4.308594 15.367187-7.589844 23.617187-9.828126l5.960938-23.851562h40l5.960938 23.851562c8.378906 2.269532 16.257812 5.589844 23.617187 9.828126l21.132813-12.679688 28.289062 28.289062-12.679688 21.132813c4.238282 7.359375 7.558594 15.238281 9.828126 23.617187zm-60 20c0-33.140625-26.859375-60-60-60s-60 26.859375-60 60 26.859375 60 60 60 60-26.859375 60-60zm0 0" fill="#94e1ff"/><path d="m156 60c5.519531 0 10-4.480469 10-10s-4.480469-10-10-10-10 4.480469-10 10 4.480469 10 10 10zm0 0"/><path d="m116 60c5.519531 0 10-4.480469 10-10s-4.480469-10-10-10-10 4.480469-10 10 4.480469 10 10 10zm0 0"/><path d="m30 480h452c16.542969 0 30-13.457031 30-30v-420c0-16.542969-13.457031-30-30-30h-452c-16.542969 0-30 13.457031-30 30v420c0 16.542969 13.457031 30 30 30zm452-20h-452c-5.515625 0-10-4.484375-10-10v-350h472v350c0 5.515625-4.484375 10-10 10zm-452-440h452c5.515625 0 10 4.484375 10 10v50h-472v-50c0-5.515625 4.484375-10 10-10zm0 0"/><path d="m196 60h266c5.523438 0 10-4.476562 10-10s-4.476562-10-10-10h-266c-5.523438 0-10 4.476562-10 10s4.476562 10 10 10zm0 0"/><path d="m388.425781 260.296875-18.339843-4.582031c-1.703126-5.144532-3.796876-10.167969-6.261719-15.035156l9.75-16.246094c2.359375-3.933594 1.742187-8.96875-1.503907-12.214844l-28.289062-28.289062c-3.246094-3.246094-8.28125-3.867188-12.21875-1.503907l-16.246094 9.75c-4.863281-2.464843-9.890625-4.558593-15.03125-6.261719l-4.582031-18.339843c-1.113281-4.449219-5.113281-7.574219-9.703125-7.574219h-40c-4.589844 0-8.589844 3.125-9.703125 7.574219l-4.582031 18.34375c-5.148438 1.707031-10.175782 3.796875-15.03125 6.257812l-16.246094-9.75c-3.9375-2.363281-8.972656-1.742187-12.21875 1.503907l-28.289062 28.289062c-3.246094 3.246094-3.863282 8.28125-1.503907 12.214844l9.75 16.246094c-2.464843 4.867187-4.558593 9.890624-6.261719 15.035156l-18.339843 4.582031c-4.453125 1.113281-7.574219 5.113281-7.574219 9.703125v40c0 4.589844 3.121094 8.589844 7.574219 9.703125l18.339843 4.582031c1.703126 5.144532 3.796876 10.167969 6.261719 15.035156l-9.75 16.246094c-2.363281 3.933594-1.742187 8.972656 1.503907 12.214844l28.289062 28.28125c3.246094 3.246094 8.28125 3.863281 12.214844 1.503906l16.242187-9.742187c4.859375 2.460937 9.886719 4.554687 15.039063 6.261719l4.582031 18.339843c1.113281 4.453125 5.113281 7.574219 9.703125 7.574219h40c4.589844 0 8.589844-3.121094 9.703125-7.574219l4.582031-18.339843c5.144532-1.703126 10.171875-3.796876 15.035156-6.261719l16.246094 9.742187c3.933594 2.359375 8.96875 1.738282 12.214844-1.503906l28.289062-28.28125c3.246094-3.242188 3.867188-8.28125 1.503907-12.214844l-9.75-16.246094c2.464843-4.867187 4.558593-9.890624 6.261719-15.035156l18.339843-4.582031c4.453125-1.113281 7.574219-5.113281 7.574219-9.703125v-40c0-4.589844-3.121094-8.589844-7.574219-9.703125zm-12.425781 41.894531-16.273438 4.066406c-3.515624.878907-6.28125 3.589844-7.230468 7.085938-1.996094 7.382812-4.972656 14.527344-8.839844 21.246094-1.8125 3.144531-1.777344 7.023437.089844 10.136718l8.660156 14.433594-17.246094 17.238282-14.4375-8.65625c-3.113281-1.863282-6.992187-1.898438-10.136718-.089844-6.714844 3.871094-13.859376 6.84375-21.242188 8.84375-3.496094.949218-6.207031 3.714844-7.085938 7.230468l-4.066406 16.273438h-24.382812l-4.066406-16.273438c-.878907-3.515624-3.589844-6.28125-7.085938-7.230468-7.402344-2.003906-14.550781-4.976563-21.238281-8.839844-3.144531-1.8125-7.027344-1.78125-10.140625.085938l-14.4375 8.65625-17.246094-17.238282 8.660156-14.433594c1.867188-3.113281 1.902344-6.992187.089844-10.136718-3.867188-6.71875-6.84375-13.863282-8.84375-21.246094-.945312-3.496094-3.710938-6.207031-7.226562-7.085938l-16.273438-4.066406v-24.382812l16.273438-4.066406c3.515624-.878907 6.28125-3.589844 7.230468-7.085938 1.996094-7.382812 4.972656-14.527344 8.839844-21.246094 1.8125-3.144531 1.777344-7.023437-.089844-10.136718l-8.660156-14.433594 17.246094-17.25 14.433594 8.664062c3.113281 1.867188 6.996093 1.902344 10.140624.089844 6.695313-3.859375 13.847657-6.835938 21.246094-8.84375 3.496094-.949219 6.203125-3.714844 7.082032-7.226562l4.066406-16.273438h24.382812l4.066406 16.273438c.878907 3.515624 3.589844 6.28125 7.089844 7.230468 7.378906 1.996094 14.527344 4.972656 21.242188 8.839844 3.144531 1.8125 7.023437 1.777344 10.136718-.089844l14.433594-8.660156 17.246094 17.246094-8.660156 14.433594c-1.867188 3.113281-1.902344 6.992187-.089844 10.136718 3.867188 6.71875 6.84375 13.863282 8.84375 21.246094.945312 3.496094 3.710938 6.207031 7.226562 7.085938l16.273438 4.066406zm0 0"/><path d="m266 220c-38.597656 0-70 31.402344-70 70s31.402344 70 70 70 70-31.402344 70-70-31.402344-70-70-70zm0 120c-27.570312 0-50-22.429688-50-50s22.429688-50 50-50 50 22.429688 50 50-22.429688 50-50 50zm0 0"/><path d="m402 120h-20c-5.523438 0-10 4.476562-10 10s4.476562 10 10 10h20c5.523438 0 10-4.476562 10-10s-4.476562-10-10-10zm0 0"/><path d="m462 120h-20c-5.523438 0-10 4.476562-10 10s4.476562 10 10 10h20c5.523438 0 10-4.476562 10-10s-4.476562-10-10-10zm0 0"/></svg>