<svg height="511pt" viewBox="0 -16 511.99947 511" width="511pt" xmlns="http://www.w3.org/2000/svg"><path d="m490.957031 350.101562c31.105469 53.324219-7.359375 120.300782-69.09375 120.300782h-331.734375c-61.734375 0-100.199218-66.976563-69.09375-120.300782l186.175782-312.3125c9.890624-16.929687 28.015624-27.347656 47.625-27.347656 19.609374 0 37.738281 10.417969 47.617187 27.347656zm0 0" fill="#ff7da4"/><path d="m456.417969 370.25c10.519531 18.046875 3.589843 34.046875.121093 40.078125-3.460937 6.039063-13.789062 20.078125-34.675781 20.078125h-331.734375c-20.886718 0-31.214844-14.039062-34.675781-20.078125-3.46875-6.03125-10.398437-22.03125.121094-40.089844l186.183593-312.292969c2.710938-4.628906 7.71875-7.507812 13.078126-7.507812 5.359374 0 10.371093 2.878906 13.070312 7.519531zm0 0" fill="#fff"/><path d="m275.996094 170.425781v119.992188c0 11.046875-8.949219 19.996093-20 19.996093-11.046875 0-19.996094-8.949218-19.996094-19.996093v-119.992188c0-11.046875 8.949219-19.996093 19.996094-19.996093 5.519531 0 10.519531 2.238281 14.140625 5.859374 3.617187 3.617188 5.859375 8.617188 5.859375 14.136719zm0 0" fill="#595959"/><path d="m255.996094 350.410156c11.050781 0 20 8.949219 20 20 0 11.050782-8.949219 20-20 20-11.046875 0-19.996094-8.949218-19.996094-20 0-11.050781 8.949219-20 19.996094-20zm0 0" fill="#595959"/><path d="m362.308594 300.417969c5.527344 0 10-4.480469 10-10s-4.472656-10-10-10c-5.519532 0-10 4.480469-10 10s4.480468 10 10 10zm0 0"/><path d="m90.128906 480.402344h331.734375c69.433594 0 112.761719-75.292969 77.730469-135.339844-.023438-.042969-188.542969-312.382812-188.542969-312.382812-25.09375-42.882813-87.359375-42.925782-112.429687-.011719l-186.222656 312.394531c-34.984376 59.976562 8.210937 135.339844 77.730468 135.339844zm-60.503906-125.179688 186.21875-312.390625c17.394531-29.773437 60.570312-29.820312 77.972656-.003906.023438.042969.050782.085937.074219.125l188.46875 312.25c27.183594 46.714844-6.539063 105.199219-60.496094 105.199219h-331.734375c-54.191406 0-87.589844-58.742188-60.503906-105.179688zm0 0"/><path d="m90.128906 440.402344h331.734375c38.605469 0 62.640625-41.824219 43.195313-75.1875-.023438-.042969-188.558594-312.367188-188.558594-312.367188-9.734375-16.589844-33.726562-16.429687-43.332031-.023437 0 0-186.21875 312.351562-186.234375 312.382812-19.441406 33.375 4.582031 75.195313 43.195312 75.195313zm-25.9375-65.089844 186.195313-312.316406c1.964843-3.355469 6.875-3.449219 8.875-.011719.027343.046875 188.554687 312.363281 188.554687 312.363281 11.667969 20.109375-2.800781 45.058594-25.953125 45.058594h-331.734375c-23.351562 0-37.53125-25.132812-25.9375-45.09375zm0 0"/><path d="m413.234375 395.445312c2.769531 4.746094 8.886719 6.394532 13.675781 3.601563 4.773438-2.785156 6.382813-8.90625 3.601563-13.675781l-38.816407-66.535156c-2.78125-4.769532-8.910156-6.382813-13.675781-3.597657-4.773437 2.78125-6.382812 8.902344-3.601562 13.675781zm0 0"/><path d="m255.996094 320.414062c16.539062 0 29.996094-13.457031 29.996094-29.996093v-119.992188c0-16.574219-13.421876-29.996093-29.996094-29.996093-16.539063 0-29.996094 13.457031-29.996094 29.996093v119.992188c0 16.539062 13.457031 29.996093 29.996094 29.996093zm-10-149.988281c0-5.511719 4.488281-9.996093 10-9.996093 5.519531 0 10 4.476562 10 9.996093v119.992188c0 5.511719-4.484375 10-10 10-5.511719 0-10-4.488281-10-10zm0 0"/><path d="m255.996094 400.40625c16.539062 0 29.996094-13.457031 29.996094-29.996094 0-16.539062-13.457032-29.996094-29.996094-29.996094-16.539063 0-29.996094 13.457032-29.996094 29.996094 0 16.539063 13.457031 29.996094 29.996094 29.996094zm0-39.996094c5.515625 0 10 4.488282 10 10 0 5.511719-4.484375 10-10 10-5.511719 0-10-4.488281-10-10 0-5.511718 4.488281-10 10-10zm0 0"/></svg>