<svg height="511pt" viewBox="-25 0 511 511.99971" width="511pt" xmlns="http://www.w3.org/2000/svg"><path d="m330.472656 367.027344h-199.941406c-69.03125 17.761718-120.03125 60.410156-120.03125 134.972656h440.003906c0-74.5625-51-117.210938-120.03125-134.972656zm0 0" fill="#94e1ff"/><path d="m370.503906 215.996094c0 11.050781-8.949218 20-20 20h-22c1.308594-6.460938 2-13.148438 2-20v-66h20c11.050782 0 20 8.949218 20 20zm0 0" fill="#94e1ff"/><path d="m330.503906 366.996094-.03125.03125-59.96875 74.972656c-4.859375-4.859375-35.125-35.125-40-40l60-60.003906zm0 0" fill="#fff"/><path d="m330.503906 149.996094h-56.339844c-4.480468 0-8.949218-1.351563-12.441406-4.152344-13.28125-10.648438-24.03125-24.320312-31.21875-39.957031-7.191406 15.636719-17.941406 29.308593-31.222656 39.957031-3.488281 2.800781-7.960938 4.152344-12.4375 4.152344h-56.34375c0-55.230469 44.773438-100 100.003906-100 55.222656 0 100 44.757812 100 100zm0 0" fill="#595959"/><path d="m274.164062 149.996094c-4.480468 0-8.949218-1.351563-12.441406-4.152344-13.28125-10.648438-24.03125-24.320312-31.21875-39.957031-7.191406 15.636719-17.941406 29.308593-31.222656 39.957031-3.488281 2.800781-7.960938 4.152344-12.4375 4.152344h-56.34375v66c0 32.222656 15.328125 61.484375 40 80v46c10.601562 10.601562 53.082031 53.082031 60.003906 60.003906l60-60.003906v-46c24.9375-18.726563 40-48.054688 40-80v-66zm0 0" fill="#fed2a4"/><path d="m250.503906 422 10 80h-60l10-80 20-20zm0 0" fill="#595959"/><path d="m230.503906 402c-4.859375 4.855469-35.125 35.125-40 40l-59.972656-74.972656-.03125-.03125 40-25c10.601562 10.601562 53.082031 53.082031 60.003906 60.003906zm0 0" fill="#fff"/><path d="m135.390625 246.945312-29.628906-7.230468c-8.960938-2.179688-15.261719-10.207032-15.261719-19.429688 0-15.066406 0-35.707031 0-50.289062 0-11.050782 8.949219-20 20-20h20v66c0 10.800781 1.710938 21.210937 4.890625 30.949218zm0 0" fill="#94e1ff"/><path d="m390.503906 472c5.519532 0 10-4.480469 10-10s-4.480468-10-10-10c-5.519531 0-10 4.480469-10 10s4.480469 10 10 10zm0 0"/><path d="m270.503906 199.996094c5.519532 0 10-4.480469 10-10 0-5.519532-4.480468-10-10-10-5.519531 0-10 4.480468-10 10 0 5.519531 4.480469 10 10 10zm0 0"/><path d="m190.503906 199.996094c5.519532 0 10-4.480469 10-10 0-5.519532-4.480468-10-10-10-5.523437 0-10 4.480468-10 10 0 5.519531 4.476563 10 10 10zm0 0"/><path d="m10.5 512h440.003906c5.523438 0 10-4.476562 10-10 0-71.632812-44.6875-122.792969-125.875-144.214844l-34.125-21.328125v-35.609375c17.3125-14.285156 29.769532-33.410156 35.832032-54.851562h14.167968c16.542969 0 30-13.457032 30-30 0-21.285156 0-39.734375 0-61.121094 0-76.546875-55.085937-143.964844-130.296875-153.609375-91.125-11.703125-169.707031 59.289063-169.707031 148.730469v70.292968c0 13.878907 9.414062 25.867188 22.890625 29.144532l24.398437 5.949218c6.789063 17.761719 17.976563 33.3125 32.710938 45.453126v35.621093l-34.125 21.328125c-81.1875 21.421875-125.875 72.582032-125.875 144.214844 0 5.523438 4.476562 10 10 10zm170.003906-198c15.367188 7.878906 32.355469 11.996094 50 11.996094 17.644532 0 34.632813-4.117188 50-11.996094v23.855469l-50 50-50-50zm31.328125 178 8.167969-65.355469 10.503906-10.503906 10.503906 10.503906 8.167969 65.355469zm228.339844 0h-170.839844l-5.300781-42.386719c4.335938 3.683594 10.785156 3 14.28125-1.367187l55.875-69.851563c47.691406 13.566407 101.285156 44.257813 105.984375 113.605469zm-170.496094-64.972656-25.03125-25.027344 47.304688-47.304688 23.726562 14.828126zm90.828125-211.03125c0 5.515625-4.484375 10-10 10h-10.460937c.300781-3.320313.460937-6.660156.460937-10v-56h10c5.515625 0 10 4.484375 10 10zm-112.84375-194.894532c60.066406 7.707032 106.335938 58.355469 112.207032 120.398438-2.945313-.96875-6.09375-1.503906-9.363282-1.503906h-10.453125c-4.9375-55.167969-51.25-100-109.546875-100-57.285156 0-104.472656 44.015625-109.542968 100h-10.460938c-3.398438 0-6.664062.578125-9.714844 1.625 4.679688-72.167969 69.101563-130.5 146.875-120.519532zm72.277344 118.894532h-45.773438c-2.421874 0-4.617187-.691406-6.183593-1.953125-12.113281-9.710938-21.929688-22.273438-28.394531-36.335938-1.628907-3.546875-5.179688-5.820312-9.085938-5.820312s-7.453125 2.273437-9.085938 5.820312c-6.460937 14.0625-16.28125 26.628907-28.390624 36.339844-1.566407 1.257813-3.761719 1.949219-6.183594 1.949219h-45.78125c4.992187-44.9375 43.199218-80 89.441406-80 47.097656 0 84.578125 35.742187 89.4375 80zm-219.4375 80.289062v-50.289062c0-5.515625 4.488281-10 10-10h10v56c0 5.847656.457031 11.648437 1.363281 17.355468l-13.738281-3.351562c-4.488281-1.089844-7.625-5.085938-7.625-9.714844zm74.371094 25.996094-31.488282-7.679688c-1.902343-7.332031-2.882812-14.910156-2.882812-22.605468v-56h46.34375c6.953125 0 13.59375-2.253906 18.695312-6.347656 9.660157-7.75 18.109376-17.015626 24.964844-27.320313 6.855469 10.304687 15.300782 19.570313 24.960938 27.316406 5.105468 4.097657 11.742187 6.351563 18.699218 6.351563h46.339844v56c0 6.042968-.601562 12.085937-1.789062 17.960937-.003906.019531-.007813.039063-.011719.058594-8.34375 41.097656-44.710937 71.980469-88.199219 71.980469-33.433594 0-62.277344-18.1875-77.679687-44.507813l17.308593 4.222657c5.328126 1.300781 10.765626-1.945313 12.082032-7.34375 1.3125-5.367188-1.976563-10.777344-7.34375-12.085938zm-5.816406 108.414062 47.304687 47.304688-25.027344 25.027344-46-57.503906zm-42.238282 23.699219 55.875 69.851563c3.5 4.375 9.949219 5.046875 14.28125 1.363281l-5.296875 42.390625h-170.84375c4.703125-69.347656 58.292969-100.039062 105.984375-113.605469zm0 0"/><path d="m310.503906 452c-5.523437 0-10 4.476562-10 10s4.476563 10 10 10h40c5.523438 0 10-4.476562 10-10s-4.476562-10-10-10zm0 0"/><path d="m210.503906 265.996094h40c5.523438 0 10-4.476563 10-10 0-5.523438-4.476562-10-10-10h-40c-5.523437 0-10 4.476562-10 10 0 5.523437 4.476563 10 10 10zm0 0"/></svg>