<svg height="511pt" viewBox="1 -26 511.999 511" width="511pt" xmlns="http://www.w3.org/2000/svg"><path d="m196 230.5v-220h306v280l-60-60zm0 0" fill="#ff7da4"/><path d="m316 390.5h-246l-60 60v-280h306zm0 0" fill="#ffe470"/><path d="m462 180.5c5.519531 0 10-4.480469 10-10s-4.480469-10-10-10-10 4.480469-10 10 4.480469 10 10 10zm0 0"/><path d="m50 320.5c-5.519531 0-10 4.480469-10 10s4.480469 10 10 10 10-4.480469 10-10-4.480469-10-10-10zm0 0"/><path d="m502 .5h-306c-5.523438 0-10 4.476562-10 10v150h-176c-5.523438 0-10 4.476562-10 10v280c0 4.042969 2.4375 7.691406 6.171875 9.238281 3.738281 1.550781 8.039063.691407 10.898437-2.167969l57.074219-57.070312h241.855469c5.523438 0 10-4.476562 10-10v-150h111.855469l57.074219 57.070312c2.863281 2.863282 7.167968 3.714844 10.894531 2.167969 3.738281-1.546875 6.175781-5.195312 6.175781-9.238281v-280c0-5.523438-4.476562-10-10-10zm-196 380h-236c-2.652344 0-5.195312 1.054688-7.070312 2.929688l-42.929688 42.929687v-245.859375h286zm186-114.140625-42.929688-42.929687c-1.875-1.878907-4.417968-2.929688-7.070312-2.929688h-116v-45.15625c6.984375-5.480469 13.3125-10.40625 20-16.542969 8.460938 7.761719 16.820312 13.964844 23.757812 19.507813 4.347657 3.480468 10.632813 2.710937 14.054688-1.566406 3.449219-4.3125 2.746094-10.605469-1.566406-14.054688-6.835938-5.460938-14.644532-11.261719-22.394532-18.328125 10.820313-13.007813 18.648438-27.476563 23.722657-43.859375h2.425781c5.523438 0 10-4.476562 10-10s-4.476562-10-10-10h-30v-10c0-5.523438-4.476562-10-10-10s-10 4.476562-10 10v10h-30c-5.523438 0-10 4.476562-10 10s4.476562 10 10 10h2.425781c5.074219 16.382812 12.902344 30.851562 23.722657 43.859375-6.65625 6.066406-13.292969 11.148437-19.628907 16.140625h-106.519531v-140h286zm-129.527344-165.859375c-3.953125 10.738281-9.347656 20.324219-16.472656 29.238281-7.125-8.910156-12.519531-18.5-16.472656-29.238281zm0 0"/><path d="m182.804688 227.828125c-.933594-4.671875-5.039063-8.039063-9.804688-8.039063h-20c-4.765625 0-8.871094 3.367188-9.804688 8.039063-4.074218 20.359375-13.296874 66.480469-20 100-1.085937 5.417969 2.425782 10.683594 7.84375 11.765625 5.414063 1.085938 10.683594-2.425781 11.765626-7.84375l6.394531-32.25h27.601562l6.394531 32.25c1.085938 5.433594 6.367188 8.925781 11.765626 7.84375 5.417968-1.082031 8.929687-6.347656 7.84375-11.765625-6.65625-33.28125-15.945313-79.738281-20-100zm-29.605469 51.671875 8-39.710938h3.601562l8 39.710938zm0 0"/><path d="m50 220.5c-5.523438 0-10 4.476562-10 10v60c0 5.523438 4.476562 10 10 10s10-4.476562 10-10v-60c0-5.523438-4.476562-10-10-10zm0 0"/><path d="m462 140.5c5.523438 0 10-4.476562 10-10v-60c0-5.523438-4.476562-10-10-10s-10 4.476562-10 10v60c0 5.523438 4.476562 10 10 10zm0 0"/></svg>