<svg height="512pt" viewBox="0 0 512 512" width="512pt" xmlns="http://www.w3.org/2000/svg"><path d="m389 10c60.75 0 113 52.25 113 113s-52.25 113-113 113-113-52.25-113-113 52.25-113 113-113zm0 0" fill="#ffe470"/><path d="m389 276c60.75 0 113 52.25 113 113s-52.25 113-113 113-113-52.25-113-113 52.25-113 113-113zm0 0" fill="#ff7da4"/><path d="m439 439h-100c0-27.570312 22.429688-50 50-50s50 22.429688 50 50zm0 0" fill="#fff"/><path d="m123 10c60.75 0 113 52.25 113 113s-52.25 113-113 113-113-52.25-113-113 52.25-113 113-113zm0 0" fill="#fff"/><path d="m123 276c60.75 0 113 52.25 113 113s-52.25 113-113 113-113-52.25-113-113 52.25-113 113-113zm0 0" fill="#94e1ff"/><path d="m419 103c5.519531 0 10-4.480469 10-10s-4.480469-10-10-10-10 4.480469-10 10 4.480469 10 10 10zm0 0"/><path d="m359 103c5.519531 0 10-4.480469 10-10s-4.480469-10-10-10-10 4.480469-10 10 4.480469 10 10 10zm0 0"/><path d="m153 103c5.519531 0 10-4.480469 10-10s-4.480469-10-10-10-10 4.480469-10 10 4.480469 10 10 10zm0 0"/><path d="m153 369c5.519531 0 10-4.480469 10-10s-4.480469-10-10-10-10 4.480469-10 10 4.480469 10 10 10zm0 0"/><path d="m93 103c5.519531 0 10-4.480469 10-10s-4.480469-10-10-10-10 4.480469-10 10 4.480469 10 10 10zm0 0"/><path d="m93 369c5.519531 0 10-4.480469 10-10s-4.480469-10-10-10-10 4.480469-10 10 4.480469 10 10 10zm0 0"/><path d="m389 0c-66.214844 0-123 56.796875-123 123 0 66.214844 56.796875 123 123 123 31.589844 0 63.0625-13.355469 86.351562-36.648438 23.292969-23.289062 36.648438-54.761718 36.648438-86.351562 0-66.214844-56.796875-123-123-123zm0 226c-54.867188 0-103-48.132812-103-103s48.132812-103 103-103 103 48.132812 103 103-48.132812 103-103 103zm0 0"/><path d="m439 113c-5.523438 0-10 4.476562-10 10 0 22.054688-17.945312 40-40 40s-40-17.945312-40-40c0-5.523438-4.476562-10-10-10s-10 4.476562-10 10c0 33.085938 26.914062 60 60 60s60-26.914062 60-60c0-5.523438-4.476562-10-10-10zm0 0"/><path d="m123 512c66.214844 0 123-56.796875 123-123 0-66.214844-56.796875-123-123-123-66.214844 0-123 56.796875-123 123 0 66.214844 56.796875 123 123 123zm0-226c54.867188 0 103 48.132812 103 103s-48.132812 103-103 103-103-48.132812-103-103 48.132812-103 103-103zm0 0"/><path d="m389 266c-66.214844 0-123 56.796875-123 123 0 66.214844 56.796875 123 123 123 66.214844 0 123-56.796875 123-123 0-66.214844-56.796875-123-123-123zm0 226c-54.867188 0-103-48.132812-103-103s48.132812-103 103-103 103 48.132812 103 103-48.132812 103-103 103zm0 0"/><path d="m123 246c66.214844 0 123-56.796875 123-123 0-66.214844-56.796875-123-123-123-66.214844 0-123 56.796875-123 123 0 66.214844 56.796875 123 123 123zm0-226c54.867188 0 103 48.132812 103 103s-48.132812 103-103 103-103-48.132812-103-103 48.132812-103 103-103zm0 0"/><path d="m73 163h100c5.523438 0 10-4.476562 10-10s-4.476562-10-10-10h-100c-5.523438 0-10 4.476562-10 10s4.476562 10 10 10zm0 0"/><path d="m73 449c5.523438 0 10-4.476562 10-10 0-22.054688 17.945312-40 40-40s40 17.945312 40 40c0 5.523438 4.476562 10 10 10s10-4.476562 10-10c0-33.085938-26.914062-60-60-60s-60 26.914062-60 60c0 5.523438 4.476562 10 10 10zm0 0"/><path d="m389 379c-33.085938 0-60 26.914062-60 60 0 5.523438 4.476562 10 10 10h100c5.523438 0 10-4.476562 10-10 0-33.085938-26.914062-60-60-60zm-38.734375 50c4.453125-17.234375 20.128906-30 38.734375-30s34.28125 12.765625 38.734375 30zm0 0"/><path d="m423.472656 367.945312 20-10c4.9375-2.472656 6.941406-8.476562 4.472656-13.417968-2.472656-4.9375-8.476562-6.941406-13.417968-4.472656l-20 10c-4.941406 2.46875-6.941406 8.476562-4.472656 13.417968 2.472656 4.941406 8.480468 6.941406 13.417968 4.472656zm0 0"/><path d="m334.527344 357.945312 20 10c4.945312 2.46875 10.949218.460938 13.417968-4.472656 2.46875-4.941406.46875-10.949218-4.472656-13.417968l-20-10c-4.941406-2.46875-10.945312-.46875-13.417968 4.472656-2.46875 4.941406-.464844 10.949218 4.472656 13.417968zm0 0"/></svg>