<svg height="512pt" viewBox="-106 0 512 512" width="512pt" xmlns="http://www.w3.org/2000/svg"><path d="m290 176v306c0 11.050781-8.949219 20-20 20h-200c-11.050781 0-20-8.949219-20-20 0-32.8125 0-273.035156 0-306 0-11.050781 8.949219-20 20-20h200c11.050781 0 20 8.949219 20 20zm0 0" fill="#ffe470"/><path d="m270 136v20h-60v-20c0-11.050781 8.949219-20 20-20h20c11.050781 0 20 8.949219 20 20zm0 0" fill="#595959"/><path d="m250 196v100h-160v-100zm0 0" fill="#595959"/><path d="m170 339c33.140625 0 60 26.859375 60 60s-26.859375 60-60 60-60-26.859375-60-60 26.859375-60 60-60zm0 0" fill="#fff"/><path d="m170 379c11.03125 0 20 8.96875 20 20s-8.96875 20-20 20-20-8.96875-20-20 8.96875-20 20-20zm0 0" fill="#ffe470"/><path d="m150 136v20h-60v-20c0-11.050781 8.949219-20 20-20h20c11.050781 0 20 8.949219 20 20zm0 0" fill="#595959"/><path d="m50 216v60h-20c-11.050781 0-20-8.949219-20-20v-20c0-11.050781 8.949219-20 20-20zm0 0" fill="#595959"/><path d="m130 226c-5.519531 0-10 4.480469-10 10s4.480469 10 10 10 10-4.480469 10-10-4.480469-10-10-10zm0 0"/><path d="m70 512h200c16.542969 0 30-13.457031 30-30v-306c0-13.035156-8.359375-24.152344-20-28.28125v-11.71875c0-16.542969-13.457031-30-30-30v-96c0-5.523438-4.476562-10-10-10s-10 4.476562-10 10v96c-16.542969 0-30 13.457031-30 30v10h-40v-10c0-16.542969-13.457031-30-30-30h-20c-16.542969 0-30 13.457031-30 30v10h-10c-16.542969 0-30 13.457031-30 30v30h-10c-16.542969 0-30 13.457031-30 30v20c0 16.542969 13.457031 30 30 30h10v196c0 16.542969 13.457031 30 30 30zm150-376c0-5.515625 4.484375-10 10-10h20c5.515625 0 10 4.484375 10 10v10h-40zm-120 0c0-5.515625 4.484375-10 10-10h20c5.515625 0 10 4.484375 10 10v10h-40zm-40 40c0-5.515625 4.484375-10 10-10h200c5.515625 0 10 4.484375 10 10v306c0 5.515625-4.484375 10-10 10h-200c-5.515625 0-10-4.484375-10-10zm-30 90c-5.515625 0-10-4.484375-10-10v-20c0-5.515625 4.484375-10 10-10h10v40zm0 0"/><path d="m90 306h160c5.523438 0 10-4.476562 10-10v-100c0-5.523438-4.476562-10-10-10h-160c-5.523438 0-10 4.476562-10 10v100c0 5.523438 4.476562 10 10 10zm10-100h140v80h-140zm0 0"/><path d="m170 329c-38.597656 0-70 31.402344-70 70s31.402344 70 70 70 70-31.402344 70-70-31.402344-70-70-70zm0 120c-27.570312 0-50-22.429688-50-50s22.429688-50 50-50 50 22.429688 50 50-22.429688 50-50 50zm0 0"/><path d="m170 369c-16.542969 0-30 13.457031-30 30s13.457031 30 30 30 30-13.457031 30-30-13.457031-30-30-30zm0 40c-5.515625 0-10-4.484375-10-10s4.484375-10 10-10 10 4.484375 10 10-4.484375 10-10 10zm0 0"/><path d="m210 226h-40c-5.523438 0-10 4.476562-10 10s4.476562 10 10 10h40c5.523438 0 10-4.476562 10-10s-4.476562-10-10-10zm0 0"/></svg>