<svg height="512pt" viewBox="-26 0 512 512" width="512pt" xmlns="http://www.w3.org/2000/svg"><path d="m350 116c55.230469 0 100 44.769531 100 100v160c-7.015625 0-192.914062 0-200 0v-160c0-55.230469-44.769531-100-100-100zm0 0" fill="#ff7da4"/><path d="m370 10-20 30 20 30h-80v-60zm0 0" fill="#ff7da4"/><path d="m170 376v20c0 11.050781 8.949219 20 20 20h30v86h60v-86h30c11.050781 0 20-8.949219 20-20v-20c-4.515625 0-155.488281 0-160 0zm0 0" fill="#fff"/><path d="m150 116c-48.378906 0-88.730469 34.359375-98 80l-2 6v174h200v-160c0-55.230469-44.769531-100-100-100zm0 0" fill="#595959"/><path d="m10 196h180v120h-180zm0 0" fill="#fff"/><path d="m190 196-90 70-90-70zm0 0" fill="#ff7da4"/><path d="m410 266c-5.519531 0-10 4.480469-10 10s4.480469 10 10 10 10-4.480469 10-10-4.480469-10-10-10zm0 0"/><path d="m350 166c27.570312 0 50 22.429688 50 50v20c0 5.523438 4.476562 10 10 10s10-4.476562 10-10v-20c0-38.597656-31.402344-70-70-70-5.523438 0-10 4.476562-10 10s4.476562 10 10 10zm0 0"/><path d="m220 512h60c5.523438 0 10-4.476562 10-10v-76h20c16.542969 0 30-13.457031 30-30v-10h110c5.523438 0 10-4.476562 10-10v-160c0-60.652344-49.347656-110-110-110h-50v-26h70c3.6875 0 7.074219-2.03125 8.816406-5.28125 1.738282-3.25 1.550782-7.195312-.496094-10.265625l-16.300781-24.453125 16.300781-24.453125c2.046876-3.066406 2.238282-7.015625.496094-10.265625-1.742187-3.25-5.128906-5.28125-8.816406-5.28125h-80c-5.523438 0-10 4.476562-10 10v96h-140c-1.496094 0-2.910156.339844-4.1875.925781-43.269531 5.65625-79.675781 36.808594-91.644531 79.074219h-34.167969c-5.4375 0-10 4.453125-10 10v120c0 5.523438 4.476562 10 10 10h30v50c0 5.523438 4.476562 10 10 10h110v10c0 16.542969 13.457031 30 30 30h20v76c0 5.523438 4.476562 10 10 10zm80-492h51.3125l-9.632812 14.453125c-2.238282 3.359375-2.238282 7.734375 0 11.09375l9.632812 14.453125h-51.3125zm-30 472h-40v-66h40zm10-366v30c0 5.523438 4.476562 10 10 10s10-4.476562 10-10v-30h50c49.625 0 90 40.375 90 90v150h-180v-150c0-37.164062-18.527344-70.074219-46.828125-90zm-228.019531 80h108.875l-60.855469 47.332031-60.855469-47.332031zm-31.980469 10.445312 73.859375 57.449219c1.804687 1.402344 3.972656 2.105469 6.140625 2.105469s4.335938-.703125 6.140625-2.105469l73.859375-57.449219v89.554688h-160zm40 109.554688h130c5.523438 0 10-4.476562 10-10v-120c0-5.453125-4.449219-10-10-10h-124.867188c12.523438-35.398438 46.4375-60 84.867188-60 49.625 0 90 40.375 90 90v150h-180zm120 70v-10h140v10c0 5.515625-4.484375 10-10 10h-120c-5.515625 0-10-4.484375-10-10zm0 0"/></svg>