<svg height="512pt" viewBox="0 0 512 512" width="512pt" xmlns="http://www.w3.org/2000/svg"><path d="m350.988281 410.339844 109.652344-34.550782c15.558594-5.1875 33.769531 1.621094 39.429687 17.019532 5.539063 15.089844-1.332031 30.820312-14.609374 37.460937l-141.011719 67.511719c-5.558594 2.769531-11.679688 4.21875-17.890625 4.21875h-178.449219c-7.898437 0-15.621094-2.339844-22.1875-6.71875l-29.921875-19.953125v-113.328125l8.929688-3.191406c47.082031-16.828125 99.390624-9.949219 140.519531 18.480468 3.742187 3.144532 8.355469 4.710938 12.902343 4.710938h62.6875c16.011719 0 29.089844 12.539062 29.949219 28.339844zm0 0" fill="#fed2a4"/><path d="m372 10c71.800781 0 130 58.199219 130 130s-58.199219 130-130 130c-17.730469 0-34.640625-3.550781-50.039062-9.980469l-59.960938 29.980469 15.25-60.988281c-21.859375-23.261719-35.25-54.570313-35.25-89.011719 0-71.800781 58.199219-130 130-130zm0 0" fill="#94e1ff"/><path d="m96 502h-86v-160h86zm0 0" fill="#ff7da4"/><path d="m372 200c-5.519531 0-10 4.480469-10 10s4.480469 10 10 10 10-4.480469 10-10-4.480469-10-10-10zm0 0"/><path d="m176 452c5.519531 0 10-4.480469 10-10s-4.480469-10-10-10-10 4.480469-10 10 4.480469 10 10 10zm0 0"/><path d="m372 60c-22.054688 0-40 17.945312-40 40 0 5.523438 4.476562 10 10 10s10-4.476562 10-10c0-11.027344 8.972656-20 20-20s20 8.972656 20 20c0 8.125-4.851562 15.382812-12.371094 18.492188-10.707031 4.441406-17.628906 15.136718-17.628906 27.246093v24.261719c0 5.523438 4.476562 10 10 10s10-4.476562 10-10v-24.261719c0-3.933593 2.125-7.460937 5.28125-8.769531 15.015625-6.207031 24.71875-20.71875 24.71875-36.96875 0-22.054688-17.945312-40-40-40zm0 0"/><path d="m96 332h-86c-5.523438 0-10 4.476562-10 10v160c0 5.523438 4.476562 10 10 10h86c5.523438 0 10-4.476562 10-10v-7.984375l14.371094 9.585937c8.246094 5.496094 17.835937 8.398438 27.738281 8.398438h178.449219c7.671875 0 15.371094-1.808594 22.269531-5.230469 0 0 141.054687-67.53125 141.105469-67.554687 18.21875-9.109375 26.613281-30.542969 19.523437-49.855469-7.28125-19.8125-30.550781-30.152344-51.894531-23.082031l-99.226562 31.265625c-5.8125-15-20.375-25.542969-37.296876-25.542969h-62.6875c-2.226562 0-4.558593-.761719-6.46875-2.367188-.238281-.199218-.488281-.390624-.746093-.566406-42.386719-29.296875-96.300781-37.082031-145.136719-21.183594v-5.882812c0-5.523438-4.476562-10-10-10zm-76 160v-140h66v140zm88.296875-123.773438c43.804687-15.660156 92.792969-9.28125 131.125 17.054688 5.546875 4.5 12.292969 6.71875 18.929687 6.71875h62.6875c11.039063 0 20 8.933594 20 20 0 11.027344-8.972656 20-20 20h-101.667968c-5.523438 0-10 4.476562-10 10s4.476562 10 10 10h101.667968c20.089844 0 36.761719-14.886719 39.574219-34.207031 0 0 103.136719-32.496094 103.191407-32.515625 11.023437-3.679688 23.339843 1.351562 26.878906 10.980468 3.625 9.875-.421875 20.390626-9.625 25.03125 0 0-141.023438 67.519532-141.066406 67.539063-4.164063 2.074219-8.808594 3.171875-13.433594 3.171875h-178.449219c-5.941406 0-11.695313-1.742188-16.640625-5.039062l-25.46875-16.980469v-100.933594zm0 0"/><path d="m372 0c-77.195312 0-140 62.804688-140 140 0 33.917969 12.125 66.285156 34.257812 91.757812l-13.957031 55.816407c-.949219 3.789062.394531 7.78125 3.441407 10.226562 3.046874 2.441407 7.238281 2.890625 10.730468 1.144531l55.953125-27.976562c15.8125 5.996094 32.464844 9.03125 49.574219 9.03125 77.195312 0 140-62.804688 140-140s-62.804688-140-140-140zm0 260c-16.015625 0-31.554688-3.097656-46.1875-9.207031-2.683594-1.121094-5.722656-1.019531-8.324219.28125l-40.511719 20.257812 9.972657-39.894531c.828125-3.300781-.082031-6.796875-2.414063-9.277344-20.980468-22.324218-32.535156-51.503906-32.535156-82.160156 0-66.167969 53.832031-120 120-120s120 53.832031 120 120-53.832031 120-120 120zm0 0"/></svg>