<svg height="512pt" viewBox="-16 0 512 512" width="512pt" xmlns="http://www.w3.org/2000/svg"><path d="m10 50h280v372h-280zm0 0" fill="#ffe470"/><path d="m470 136v140c0 11.050781-8.949219 20-20 20h-120c-21.679688 16.261719-67.230469 50.421875-80 60v-60h-40c-11.050781 0-20-8.949219-20-20v-140c0-11.050781 8.949219-20 20-20h240c11.050781 0 20 8.949219 20 20zm0 0" fill="#94e1ff"/><path d="m290 422v40c0 22.089844-17.910156 40-40 40h-200c-22.089844 0-40-17.910156-40-40v-40zm0 0" fill="#595959"/><path d="m290 50h-280c0-22.089844 17.910156-40 40-40h200c22.089844 0 40 17.910156 40 40zm0 0" fill="#595959"/><path d="m250 166c-5.519531 0-10 4.480469-10 10s4.480469 10 10 10 10-4.480469 10-10-4.480469-10-10-10zm0 0"/><path d="m250 226c-5.519531 0-10 4.480469-10 10s4.480469 10 10 10 10-4.480469 10-10-4.480469-10-10-10zm0 0"/><path d="m110 452c-5.519531 0-10 4.480469-10 10s4.480469 10 10 10 10-4.480469 10-10-4.480469-10-10-10zm0 0"/><path d="m280 176c0 5.523438 4.476562 10 10 10h120c5.523438 0 10-4.476562 10-10s-4.476562-10-10-10h-120c-5.523438 0-10 4.476562-10 10zm0 0"/><path d="m410 226h-120c-5.523438 0-10 4.476562-10 10s4.476562 10 10 10h120c5.523438 0 10-4.476562 10-10s-4.476562-10-10-10zm0 0"/><path d="m250 0h-200c-27.570312 0-50 22.429688-50 50v412c0 27.570312 22.429688 50 50 50h200c27.570312 0 50-22.429688 50-50v-131l33.332031-25h116.667969c16.542969 0 30-13.457031 30-30v-140c0-16.542969-13.457031-30-30-30h-150v-56c0-27.570312-22.429688-50-50-50zm-200 20h200c13.035156 0 24.152344 8.359375 28.28125 20h-256.5625c4.128906-11.640625 15.246094-20 28.28125-20zm200 472h-200c-16.542969 0-30-13.457031-30-30v-30h260v30c0 16.542969-13.457031 30-30 30zm210-356v140c0 5.515625-4.484375 10-10 10h-120c-2.164062 0-4.269531.703125-6 2l-64 48v-40c0-5.523438-4.476562-10-10-10h-40c-5.515625 0-10-4.484375-10-10v-140c0-5.515625 4.484375-10 10-10h240c5.515625 0 10 4.484375 10 10zm-250-30c-16.542969 0-30 13.457031-30 30v140c0 16.542969 13.457031 30 30 30h30v50c0 3.789062 2.140625 7.25 5.527344 8.945312 3.378906 1.6875 7.4375 1.332032 10.472656-.945312l24-18v66h-260v-352h260v46zm0 0"/><path d="m190 452h-40c-5.523438 0-10 4.476562-10 10s4.476562 10 10 10h40c5.523438 0 10-4.476562 10-10s-4.476562-10-10-10zm0 0"/></svg>