<svg height="512pt" viewBox="-36 0 512 512" width="512pt" xmlns="http://www.w3.org/2000/svg"><path d="m430 456v46h-420v-46c0-11.050781 8.949219-20 20-20h380c11.050781 0 20 8.949219 20 20zm0 0" fill="#ff7da4"/><path d="m355.898438 375.949219 14.101562 60.050781h-300l14.101562-60.050781.1875.050781h271.421876zm0 0" fill="#fff"/><path d="m327.710938 255.871094 28.1875 120.078125-.1875.050781h-271.421876l-.1875-.050781 28.1875-120.078125.570313.128906h214.28125zm0 0" fill="#ff7da4"/><path d="m318.320312 215.839844 9.390626 40.03125-.570313.128906h-214.28125l-.570313-.128906 9.390626-40.03125.699218.160156h195.242188zm0 0" fill="#fff"/><path d="m298.171875 130 20.148437 85.839844-.699218.160156h-195.242188l-.699218-.160156 20.148437-85.839844zm0 0" fill="#ff7da4"/><path d="m288.78125 90 9.390625 40h-156.34375l9.390625-40zm0 0" fill="#fff"/><path d="m270 10 18.78125 80h-137.5625l18.78125-80zm0 0" fill="#ff7da4"/><path d="m170 326c-5.519531 0-10 4.480469-10 10s4.480469 10 10 10 10-4.480469 10-10-4.480469-10-10-10zm0 0"/><path d="m30 426c-16.542969 0-30 13.457031-30 30v46c0 5.523438 4.476562 10 10 10h420c5.523438 0 10-4.476562 10-10v-46c0-16.542969-13.457031-30-30-30h-32.074219s-92.21875-392.847656-98.191406-418.285156c-1.058594-4.519532-5.089844-7.714844-9.734375-7.714844h-100c-4.644531 0-8.675781 3.195312-9.734375 7.714844-5.277344 22.480468-98.191406 418.285156-98.191406 418.285156zm390 30v36h-400v-36c0-5.515625 4.484375-10 10-10h39.976562c.007813 0 .019532.003906.03125.003906.015626 0 .03125-.003906.046876-.003906h339.945312c5.515625 0 10 4.484375 10 10zm-318.601562-110h28.601562c5.523438 0 10-4.476562 10-10s-4.476562-10-10-10h-23.90625l14.085938-60h199.640624l14.085938 60h-123.90625c-5.523438 0-10 4.476562-10 10s4.476562 10 10 10h128.601562l4.695313 20h-246.59375zm184.152343-226h-131.101562l4.695312-20h121.710938zm-135.796875 20h140.492188l15.492187 66h-171.476562zm160.679688 86 4.695312 20h-190.257812l4.695312-20zm-132.507813-206h84.148438l14.085937 60h-112.320312zm-85.917969 366h255.984376l9.390624 40h-274.765624zm0 0"/></svg>