<svg height="512pt" viewBox="-16 0 512 512" width="512pt" xmlns="http://www.w3.org/2000/svg"><path d="m410 110h60v312h-60zm0 0" fill="#ff7da4"/><path d="m410 70h60v40h-60zm0 0" fill="#595959"/><path d="m470 40v30h-60v-30c0-16.570312 13.429688-30 30-30 16.558594 0 30 13.441406 30 30zm0 0" fill="#fff"/><path d="m470 422-30 80-30-80zm0 0" fill="#fed2a4"/><path d="m350 10h-240l-100 100v372c0 11.050781 8.949219 20 20 20h320c11.050781 0 20-8.949219 20-20v-452c0-11.050781-8.949219-20-20-20zm0 0" fill="#fff"/><path d="m110 10v100h-100zm0 0" fill="#94e1ff"/><path d="m70 186c5.519531 0 10-4.480469 10-10s-4.480469-10-10-10-10 4.480469-10 10 4.480469 10 10 10zm0 0"/><path d="m350 512c16.542969 0 30-13.457031 30-30v-452c0-16.542969-13.457031-30-30-30h-240c-2.71875 0-5.285156 1.144531-7.070312 2.929688l-100 100c-1.792969 1.792968-2.929688 4.335937-2.929688 7.070312v372c0 16.542969 13.457031 30 30 30zm-250-477.855469v65.855469h-65.855469zm-80 447.855469v-362h90c5.523438 0 10-4.476562 10-10v-90h230c5.515625 0 10 4.484375 10 10v452c0 5.515625-4.484375 10-10 10h-320c-5.515625 0-10-4.484375-10-10zm0 0"/><path d="m400.636719 425.511719 30 80c1.464843 3.902343 5.195312 6.488281 9.363281 6.488281s7.898438-2.585938 9.363281-6.488281l30-80c.410157-1.101563.636719-2.433594.636719-3.511719 0-13.945312 0-357.320312 0-382 0-22.097656-17.898438-40-40-40-22.054688 0-40 17.945312-40 40v382c0 1.058594.21875 2.394531.636719 3.511719zm19.363281-305.511719h40v292h-40zm40-20h-40v-20h40zm-20 373.519531-15.570312-41.519531h31.140624zm0-453.519531c11.046875 0 20 8.953125 20 20v20h-40v-20c0-11.027344 8.972656-20 20-20zm0 0"/><path d="m110 186h200c5.523438 0 10-4.476562 10-10s-4.476562-10-10-10h-200c-5.523438 0-10 4.476562-10 10s4.476562 10 10 10zm0 0"/><path d="m70 246h240c5.523438 0 10-4.476562 10-10s-4.476562-10-10-10h-240c-5.523438 0-10 4.476562-10 10s4.476562 10 10 10zm0 0"/><path d="m70 306h240c5.523438 0 10-4.476562 10-10s-4.476562-10-10-10h-240c-5.523438 0-10 4.476562-10 10s4.476562 10 10 10zm0 0"/><path d="m70 366h240c5.523438 0 10-4.476562 10-10s-4.476562-10-10-10h-240c-5.523438 0-10 4.476562-10 10s4.476562 10 10 10zm0 0"/><path d="m310 432h-80c-5.523438 0-10 4.476562-10 10s4.476562 10 10 10h80c5.523438 0 10-4.476562 10-10s-4.476562-10-10-10zm0 0"/><path d="m230 120h80c5.523438 0 10-4.476562 10-10s-4.476562-10-10-10h-80c-5.523438 0-10 4.476562-10 10s4.476562 10 10 10zm0 0"/></svg>