<svg height="512pt" viewBox="0 0 512 512" width="512pt" xmlns="http://www.w3.org/2000/svg"><path d="m256 10c132.550781 0 246 113.449219 246 246s-113.449219 246-246 246-246-113.449219-246-246 113.449219-246 246-246zm0 0" fill="#446091"/><path d="m256 76c99.25 0 180 80.738281 180 180s-80.75 180-180 180-180-80.738281-180-180 80.75-180 180-180zm0 0" fill="#fff"/><path d="m256 236c11.050781 0 20 8.949219 20 20s-8.949219 20-20 20-20-8.949219-20-20 8.949219-20 20-20zm0 0" fill="#595959"/><path d="m256 326c-5.519531 0-10 4.480469-10 10s4.480469 10 10 10 10-4.480469 10-10-4.480469-10-10-10zm0 0"/><path d="m256 0c-138.011719 0-256 117.816406-256 256 0 138.011719 117.816406 256 256 256 138.011719 0 256-117.816406 256-256 0-138.03125-117.839844-256-256-256zm0 492c-127.925781 0-236-108.074219-236-236s108.074219-236 236-236 236 108.074219 236 236-108.074219 236-236 236zm0 0"/><path d="m256 66c-104.765625 0-190 85.234375-190 190s85.234375 190 190 190 190-85.234375 190-190-85.234375-190-190-190zm0 360c-93.738281 0-170-76.261719-170-170s76.261719-170 170-170 170 76.261719 170 170-76.261719 170-170 170zm0 0"/><path d="m256 146c5.523438 0 10-4.476562 10-10v-20c0-5.523438-4.476562-10-10-10s-10 4.476562-10 10v20c0 5.523438 4.476562 10 10 10zm0 0"/><path d="m256 366c-5.523438 0-10 4.476562-10 10v20c0 5.523438 4.476562 10 10 10s10-4.476562 10-10v-20c0-5.523438-4.476562-10-10-10zm0 0"/><path d="m366 256c0 5.523438 4.476562 10 10 10h20c5.523438 0 10-4.476562 10-10s-4.476562-10-10-10h-20c-5.523438 0-10 4.476562-10 10zm0 0"/><path d="m136 246h-20c-5.523438 0-10 4.476562-10 10s4.476562 10 10 10h20c5.523438 0 10-4.476562 10-10s-4.476562-10-10-10zm0 0"/><path d="m164.082031 149.9375c-3.90625-3.902344-10.238281-3.902344-14.144531 0-3.902344 3.90625-3.90625 10.238281 0 14.144531l14.140625 14.140625c3.90625 3.90625 10.238281 3.90625 14.144531 0 3.902344-3.90625 3.90625-10.238281 0-14.144531zm0 0"/><path d="m347.921875 333.777344c-3.90625-3.902344-10.238281-3.902344-14.144531 0-3.902344 3.90625-3.90625 10.238281 0 14.144531l14.140625 14.140625c3.90625 3.90625 10.238281 3.90625 14.144531 0 3.902344-3.90625 3.90625-10.238281 0-14.144531zm0 0"/><path d="m347.917969 149.9375-14.140625 14.140625c-3.902344 3.90625-3.902344 10.238281 0 14.144531 3.90625 3.90625 10.238281 3.902344 14.144531 0l14.140625-14.140625c3.902344-3.90625 3.902344-10.238281 0-14.144531-3.90625-3.902344-10.238281-3.902344-14.144531 0zm0 0"/><path d="m164.078125 333.777344-14.140625 14.140625c-3.902344 3.90625-3.902344 10.238281 0 14.144531 3.90625 3.90625 10.238281 3.902344 14.144531 0l14.140625-14.140625c3.902344-3.90625 3.902344-10.238281 0-14.144531-3.90625-3.902344-10.238281-3.902344-14.144531 0zm0 0"/><path d="m336 266c5.523438 0 10-4.476562 10-10s-4.476562-10-10-10h-51.71875c-3.019531-8.507812-9.773438-15.261719-18.28125-18.28125v-31.71875c0-5.523438-4.476562-10-10-10s-10 4.476562-10 10v31.71875c-11.640625 4.128906-20 15.246094-20 28.28125 0 16.542969 13.457031 30 30 30 13.035156 0 24.152344-8.359375 28.28125-20zm-80 0c-5.515625 0-10-4.484375-10-10s4.484375-10 10-10 10 4.484375 10 10-4.484375 10-10 10zm0 0"/></svg>