<svg height="512pt" viewBox="-26 0 512 512" width="512pt" xmlns="http://www.w3.org/2000/svg"><path d="m310 10h-220c-11.050781 0-20 8.949219-20 20v146l80 60h240c0-7.527344 0-140.484375 0-146zm0 0" fill="#fff"/><path d="m450 256v226c0 11.050781-8.949219 20-20 20h-400c-11.050781 0-20-8.949219-20-20v-286c0-11.050781 8.949219-20 20-20h74.109375c7.171875 0 13.800781 3.851562 17.359375 10.078125l28.53125 49.921875h280c11.050781 0 20 8.949219 20 20zm0 0" fill="#ffe470"/><path d="m430 196v40h-40v-60h20c11.050781 0 20 8.949219 20 20zm0 0" fill="#595959"/><path d="m390 90h-80v-80zm0 0" fill="#94e1ff"/><path d="m230 392c5.519531 0 10-4.480469 10-10s-4.480469-10-10-10-10 4.480469-10 10 4.480469 10 10 10zm0 0"/><path d="m230 452c5.519531 0 10-4.480469 10-10s-4.480469-10-10-10-10 4.480469-10 10 4.480469 10 10 10zm0 0"/><path d="m110 432c-5.519531 0-10 4.480469-10 10s4.480469 10 10 10 10-4.480469 10-10-4.480469-10-10-10zm0 0"/><path d="m80 342c5.523438 0 10-4.476562 10-10 0-11.027344 8.972656-20 20-20s20 8.972656 20 20c0 8.125-4.851562 15.382812-12.371094 18.492188-10.707031 4.441406-17.628906 15.136718-17.628906 27.246093v24.261719c0 5.523438 4.476562 10 10 10s10-4.476562 10-10v-24.261719c0-3.933593 2.125-7.460937 5.28125-8.765625 15.015625-6.210937 24.71875-20.722656 24.71875-36.972656 0-22.054688-17.945312-40-40-40s-40 17.945312-40 40c0 5.523438 4.476562 10 10 10zm0 0"/><path d="m0 196v286c0 16.542969 13.457031 30 30 30h400c16.542969 0 30-13.457031 30-30v-226c0-13.035156-8.359375-24.152344-20-28.28125v-31.71875c0-16.542969-13.457031-30-30-30h-10v-76c0-2.675781-1.09375-5.238281-2.929688-7.070312l-80-80c-1.761718-1.761719-4.320312-2.929688-7.070312-2.929688h-220c-16.542969 0-30 13.457031-30 30v136h-30c-16.542969 0-30 13.457031-30 30zm410-10c5.515625 0 10 4.484375 10 10v30h-20v-40zm-90-151.855469 45.855469 45.855469h-45.855469zm-240-4.144531c0-5.515625 4.484375-10 10-10h210v70c0 5.523438 4.476562 10 10 10h70v126h-224.195312l-25.652344-44.882812c-5.328125-9.324219-15.308594-15.117188-26.042969-15.117188h-24.109375zm-60 166c0-5.515625 4.484375-10 10-10h74.109375c3.578125 0 6.902344 1.933594 8.679687 5.042969l28.527344 49.917969c1.78125 3.117187 5.09375 5.039062 8.683594 5.039062h280c5.515625 0 10 4.484375 10 10v226c0 5.515625-4.484375 10-10 10h-400c-5.515625 0-10-4.484375-10-10zm0 0"/><path d="m270 392h120c5.523438 0 10-4.476562 10-10s-4.476562-10-10-10h-120c-5.523438 0-10 4.476562-10 10s4.476562 10 10 10zm0 0"/><path d="m270 452h120c5.523438 0 10-4.476562 10-10s-4.476562-10-10-10h-120c-5.523438 0-10 4.476562-10 10s4.476562 10 10 10zm0 0"/></svg>