<svg height="512pt" viewBox="0 0 512 512" width="512pt" xmlns="http://www.w3.org/2000/svg"><path d="m482 190h-452c-11.050781 0-20 8.949219-20 20v272c0 11.050781 8.949219 20 20 20h452c11.050781 0 20-8.949219 20-20v-272c0-11.050781-8.949219-20-20-20zm0 0" fill="#fff"/><path d="m76 276h180v160h-180zm0 0" fill="#595959"/><path d="m296 210h-80c0-13.988281 0-26.011719 0-40h80zm0 0" fill="#446091"/><path d="m336 10-80 128-80-128h-60l100 160h80l100-160zm0 0" fill="#ff7da4"/><path d="m216 426v10h-100v-10c0-27.609375 22.390625-50 50-50 13.800781 0 26.300781 5.601562 35.351562 14.648438 9.046876 9.050781 14.648438 21.550781 14.648438 35.351562zm0 0" fill="#94e1ff"/><path d="m196 346c0 16.570312-13.429688 30-30 30s-30-13.429688-30-30 13.429688-30 30-30 30 13.429688 30 30zm0 0" fill="#94e1ff"/><path d="m316 306c5.519531 0 10-4.480469 10-10s-4.480469-10-10-10-10 4.480469-10 10 4.480469 10 10 10zm0 0"/><path d="m482 180h-176v-7.132812l98.480469-157.566407c1.925781-3.082031 2.027343-6.96875.265625-10.148437-1.761719-3.179688-5.109375-5.152344-8.746094-5.152344h-60c-3.449219 0-6.652344 1.777344-8.480469 4.699219l-71.519531 114.433593-71.519531-114.433593c-1.828125-2.921875-5.03125-4.699219-8.480469-4.699219h-60c-3.636719 0-6.984375 1.972656-8.746094 5.152344-1.765625 3.179687-1.660156 7.066406.265625 10.148437l98.480469 157.566407v7.132812h-176c-16.542969 0-30 13.457031-30 30v272c0 16.542969 13.457031 30 30 30h452c16.542969 0 30-13.457031 30-30v-272c0-16.542969-13.457031-30-30-30zm-256 0h60v20h-60zm115.542969-160h36.414062l-87.5 140h-8.914062l-13.75-22zm-171.085938 0 87.5 140h-36.414062l-87.5-140zm321.542969 462c0 5.515625-4.484375 10-10 10h-452c-5.515625 0-10-4.484375-10-10v-272c0-5.515625 4.484375-10 10-10h176v10c0 5.523438 4.476562 10 10 10h80c5.523438 0 10-4.476562 10-10v-10h176c5.515625 0 10 4.484375 10 10zm0 0"/><path d="m462 286h-106c-5.523438 0-10 4.476562-10 10s4.476562 10 10 10h106c5.523438 0 10-4.476562 10-10s-4.476562-10-10-10zm0 0"/><path d="m462 346h-146c-5.523438 0-10 4.476562-10 10s4.476562 10 10 10h146c5.523438 0 10-4.476562 10-10s-4.476562-10-10-10zm0 0"/><path d="m462 406h-146c-5.523438 0-10 4.476562-10 10s4.476562 10 10 10h146c5.523438 0 10-4.476562 10-10s-4.476562-10-10-10zm0 0"/><path d="m256 266h-180c-5.523438 0-10 4.476562-10 10v160c0 5.523438 4.476562 10 10 10h180c5.523438 0 10-4.476562 10-10v-160c0-5.523438-4.476562-10-10-10zm-110 80c0-11.027344 8.972656-20 20-20s20 8.972656 20 20-8.972656 20-20 20-20-8.972656-20-20zm20 40c22.089844 0 40 17.902344 40 40h-80c0-22.054688 17.945312-40 40-40zm80 40h-20c0-22.492188-12.347656-42.1875-30.976562-52.519531 6.796874-7.171875 10.976562-16.84375 10.976562-27.480469 0-22.054688-17.945312-40-40-40s-40 17.945312-40 40c0 10.644531 4.1875 20.324219 10.992188 27.5-18.460938 10.242188-30.992188 29.933594-30.992188 52.5h-20v-140h160zm0 0"/></svg>