<svg height="512pt" viewBox="0 0 512 512" width="512pt" xmlns="http://www.w3.org/2000/svg"><path d="m10 130v352c0 11.050781 8.949219 20 20 20h452c11.050781 0 20-8.949219 20-20v-352zm0 0" fill="#94e1ff"/><path d="m482 50h-452c-11.050781 0-20 8.949219-20 20v60h492v-60c0-11.050781-8.949219-20-20-20zm0 0" fill="#ff7da4"/><path d="m50 130v332h312l100-80v-252zm0 0" fill="#fff"/><path d="m462 382-100 80v-80zm0 0" fill="#446091"/><path d="m256 140c5.519531 0 10-4.480469 10-10s-4.480469-10-10-10-10 4.480469-10 10 4.480469 10 10 10zm0 0"/><path d="m482 40h-30v-10c0-16.574219-13.425781-30-30-30-16.542969 0-30 13.457031-30 30v10h-106v-10c0-16.574219-13.425781-30-30-30-16.542969 0-30 13.457031-30 30v10h-106v-10c0-16.574219-13.425781-30-30-30-16.542969 0-30 13.457031-30 30v10h-30c-16.542969 0-30 13.457031-30 30v412c0 16.542969 13.457031 30 30 30h452c16.542969 0 30-13.457031 30-30v-412c0-16.542969-13.457031-30-30-30zm-70-10c0-5.515625 4.484375-10 10-10 5.523438 0 10 4.480469 10 10v10h-20zm-166 0c0-5.515625 4.484375-10 10-10 5.523438 0 10 4.480469 10 10v10h-20zm-166 0c0-5.515625 4.484375-10 10-10 5.523438 0 10 4.480469 10 10v10h-20zm-50 30h30v10c0 16.542969 13.457031 30 30 30 5.523438 0 10-4.476562 10-10s-4.476562-10-10-10c-5.515625 0-10-4.484375-10-10v-10h146v10c0 16.542969 13.457031 30 30 30 5.523438 0 10-4.476562 10-10s-4.476562-10-10-10c-5.515625 0-10-4.484375-10-10v-10h146v10c0 16.542969 13.457031 30 30 30 5.523438 0 10-4.476562 10-10s-4.476562-10-10-10c-5.515625 0-10-4.484375-10-10v-10h70c5.515625 0 10 4.484375 10 10v50h-193c-5.523438 0-10 4.476562-10 10s4.476562 10 10 10h153v232h-90c-5.523438 0-10 4.476562-10 10v70h-292v-312h156c5.523438 0 10-4.476562 10-10s-4.476562-10-10-10h-196v-50c0-5.515625 4.484375-10 10-10zm403.492188 332-61.492188 49.195312v-49.195312zm48.507812 100h-452c-5.515625 0-10-4.484375-10-10v-342h20v322c0 5.523438 4.476562 10 10 10h312c2.277344 0 4.539062-.820312 6.246094-2.191406l100-80c.019531-.011719.03125-.027344.046875-.042969 2.316406-1.875 3.707031-4.746094 3.707031-7.765625v-242h20v342c0 5.515625-4.484375 10-10 10zm0 0"/><path d="m173 186h-83c-5.523438 0-10 4.476562-10 10v40c0 5.523438 4.476562 10 10 10h83c5.523438 0 10-4.476562 10-10v-40c0-5.523438-4.476562-10-10-10zm-10 40h-63v-20h63zm0 0"/><path d="m203 196v40c0 5.523438 4.476562 10 10 10h86c5.523438 0 10-4.476562 10-10v-40c0-5.523438-4.476562-10-10-10h-86c-5.523438 0-10 4.476562-10 10zm20 10h66v20h-66zm0 0"/><path d="m339 246h83c5.523438 0 10-4.476562 10-10v-40c0-5.523438-4.476562-10-10-10h-83c-5.523438 0-10 4.476562-10 10v40c0 5.523438 4.476562 10 10 10zm10-40h63v20h-63zm0 0"/><path d="m173 266h-83c-5.523438 0-10 4.476562-10 10v40c0 5.523438 4.476562 10 10 10h83c5.523438 0 10-4.476562 10-10v-40c0-5.523438-4.476562-10-10-10zm-10 40h-63v-20h63zm0 0"/><path d="m173 346h-83c-5.523438 0-10 4.476562-10 10v40c0 5.523438 4.476562 10 10 10h83c5.523438 0 10-4.476562 10-10v-40c0-5.523438-4.476562-10-10-10zm-10 40h-63v-20h63zm0 0"/><path d="m299 346h-86c-5.523438 0-10 4.476562-10 10v40c0 5.523438 4.476562 10 10 10h86c5.523438 0 10-4.476562 10-10v-40c0-5.523438-4.476562-10-10-10zm-10 40h-66v-20h66zm0 0"/><path d="m299 266h-86c-5.523438 0-10 4.476562-10 10v40c0 5.523438 4.476562 10 10 10h86c5.523438 0 10-4.476562 10-10v-40c0-5.523438-4.476562-10-10-10zm-10 40h-66v-20h66zm0 0"/><path d="m339 326h83c5.523438 0 10-4.476562 10-10v-40c0-5.523438-4.476562-10-10-10h-83c-5.523438 0-10 4.476562-10 10v40c0 5.523438 4.476562 10 10 10zm10-40h63v20h-63zm0 0"/></svg>