<svg height="512pt" viewBox="0 0 512 512" width="512pt" xmlns="http://www.w3.org/2000/svg"><path d="m502 336v80c0 11.050781-8.949219 20-20 20h-46v-120h46c11.050781 0 20 8.949219 20 20zm0 0" fill="#ffe470"/><path d="m502 216v80c0 11.050781-8.949219 20-20 20h-46v-120h46c11.050781 0 20 8.949219 20 20zm0 0" fill="#fff"/><path d="m502 96v80c0 11.050781-8.949219 20-20 20h-46v-120h46c11.050781 0 20 8.949219 20 20zm0 0" fill="#ffe470"/><path d="m436 482c0 11.050781-8.949219 20-20 20h-286v-492h286c11.050781 0 20 8.949219 20 20zm0 0" fill="#94e1ff"/><path d="m321.148438 146.628906c8.761718-2.339844 14.851562-10.269531 14.851562-19.328125v-31.300781c0-11.050781-8.949219-20-20-20-44.304688 0-80 35.941406-80 80v120c0 44.1875 35.835938 80 80 80 11.039062 0 20-8.960938 20-20v-31.300781c0-9.058594-6.089844-16.988281-14.851562-19.328125l-35.148438-9.371094v-120zm0 0" fill="#446091"/><path d="m50 30c0-11.050781 8.949219-20 20-20h60v492h-60c-11.050781 0-20-8.949219-20-20 0-208.839844 0-319.984375 0-452zm0 0" fill="#595959"/><path d="m196 406c-5.519531 0-10 4.480469-10 10s4.480469 10 10 10 10-4.480469 10-10-4.480469-10-10-10zm0 0"/><path d="m482 66h-36v-36c0-16.542969-13.457031-30-30-30h-346c-16.542969 0-30 13.457031-30 30v36h-10c-16.574219 0-30 13.425781-30 30 0 16.542969 13.457031 30 30 30h10v40h-10c-16.574219 0-30 13.425781-30 30 0 16.542969 13.457031 30 30 30h10v60h-10c-16.574219 0-30 13.425781-30 30 0 16.542969 13.457031 30 30 30h10v40h-10c-16.574219 0-30 13.425781-30 30 0 16.542969 13.457031 30 30 30h10v36c0 16.542969 13.457031 30 30 30h346c16.542969 0 30-13.457031 30-30v-36h36c16.542969 0 30-13.457031 30-30v-80c0-7.679688-2.902344-14.6875-7.664062-20 4.761718-5.3125 7.664062-12.320312 7.664062-20v-80c0-7.679688-2.902344-14.6875-7.664062-20 4.761718-5.3125 7.664062-12.320312 7.664062-20v-80c0-16.542969-13.457031-30-30-30zm10 30v80c0 5.515625-4.484375 10-10 10h-36v-100h36c5.515625 0 10 4.484375 10 10zm0 120v80c0 5.515625-4.484375 10-10 10h-36v-100h36c5.515625 0 10 4.484375 10 10zm-462-110c-5.515625 0-10-4.484375-10-10 0-5.519531 4.476562-10 10-10h10v20zm0 100c-5.515625 0-10-4.484375-10-10 0-5.519531 4.476562-10 10-10h10v20zm0 120c-5.515625 0-10-4.484375-10-10 0-5.519531 4.476562-10 10-10h10v20zm0 100c-5.515625 0-10-4.484375-10-10 0-5.519531 4.476562-10 10-10h10v20zm30 56v-36h10c16.542969 0 30-13.457031 30-30 0-5.523438-4.476562-10-10-10s-10 4.476562-10 10c0 5.515625-4.484375 10-10 10h-10v-80h10c16.542969 0 30-13.457031 30-30 0-5.523438-4.476562-10-10-10s-10 4.476562-10 10c0 5.515625-4.484375 10-10 10h-10v-100h10c16.542969 0 30-13.457031 30-30 0-5.523438-4.476562-10-10-10s-10 4.476562-10 10c0 5.515625-4.484375 10-10 10h-10v-80h10c16.542969 0 30-13.457031 30-30 0-5.523438-4.476562-10-10-10s-10 4.476562-10 10c0 5.515625-4.484375 10-10 10h-10v-76c0-5.515625 4.484375-10 10-10h50v472h-50c-5.515625 0-10-4.484375-10-10zm366 0c0 5.515625-4.484375 10-10 10h-276v-472h276c5.515625 0 10 4.484375 10 10zm66-66c0 5.515625-4.484375 10-10 10h-36v-100h36c5.515625 0 10 4.484375 10 10zm0 0"/><path d="m282.023438 359.355469c.054687.023437.203124.085937.222656.09375 10.734375 4.347656 22.089844 6.550781 33.753906 6.550781 16.574219 0 30-13.425781 30-30v-31.300781c0-13.566407-9.15625-25.488281-22.273438-28.992188l-27.726562-7.390625v-104.632812l27.730469-7.394532c13.113281-3.5 22.269531-15.421874 22.269531-28.988281v-31.300781c0-16.542969-13.457031-30-30-30-49.519531 0-90 40.117188-90 90v120c0 36.78125 21.984375 69.46875 56.023438 83.355469zm36.546874-64.324219c4.375 1.167969 7.429688 5.144531 7.429688 9.667969v31.300781c0 5.519531-4.480469 10-10 10-6.84375 0-13.542969-.976562-20-2.898438v-54.085937zm7.429688-199.03125v31.300781c0 4.523438-3.054688 8.5-7.425781 9.667969l-22.574219 6.015625v-54.085937c6.457031-1.921876 13.15625-2.898438 20-2.898438 5.515625 0 10 4.484375 10 10zm-80 60c0-23.488281 11.488281-44.511719 30-57.433594v234.917969c-18.597656-12.886719-30-34.125-30-57.484375zm0 0"/><path d="m376 406h-140c-5.523438 0-10 4.476562-10 10s4.476562 10 10 10h140c5.523438 0 10-4.476562 10-10s-4.476562-10-10-10zm0 0"/></svg>