<svg height="511pt" viewBox="0 1 511 511.999" width="511pt" xmlns="http://www.w3.org/2000/svg"><path d="m276.496094 65c0-13.824219 11.199218-25 25-25 13.808594 0 25 11.191406 25 25v30c0-13.808594 11.1875-25 25-25 13.808594 0 25 11.191406 25 25v218.796875c0 25.859375-14.609375 49.511719-37.75 61.070313l-2.25 1.128906v106.121094c-16.179688-8.550782-34.671875-6.070313-49.5 7.449218-18.171875 16.570313-41.832032 16.570313-60 0-15.140625-13.800781-34.089844-16.097656-50.5-6.898437v-106.671875c-30.199219-12.078125-50-41.328125-50-73.847656v-121.148438c0-13.8125 11.191406-25 25-25s25 11.1875 25 25v-126c0-13.824219 11.199218-25 25-25 13.808594 0 25 11.191406 25 25v-20c0-13.824219 11.199218-25 25-25 13.808594 0 25 11.191406 25 25zm0 0" fill="#fed2a4"/><path d="m256.496094 345.996094c-5.519532 0-10 4.480468-10 10 0 5.523437 4.480468 10 10 10 5.519531 0 10-4.476563 10-10 0-5.519532-4.480469-10-10-10zm0 0"/><path d="m502.621094 492c-8.046875-.105469-15.960938-3.496094-22.890625-9.824219-10.632813-9.691406-24.210938-15.027343-38.234375-15.027343-14.023438 0-27.605469 5.335937-38.238282 15.03125-14.347656 13.082031-35.175781 13.085937-49.53125-.007813-2.316406-2.109375-4.738281-4.007813-7.230468-5.691406v-94.402344c24.769531-13.839844 40-39.671875 40-68.277344v-218.800781c0-19.300781-15.699219-35-35-35-5.382813 0-10.480469 1.222656-15.039063 3.402344-.839843-18.558594-16.199219-33.402344-34.960937-33.402344-5.292969 0-10.402344 1.167969-15.042969 3.375-.847656-18.546875-16.203125-33.375-34.957031-33.375-15.867188 0-28.875 10.433594-33.3125 24.238281-4.964844-2.703125-10.648438-4.238281-16.6875-4.238281-19.347656 0-35 15.648438-35 35v94.382812c-4.546875-2.167968-9.632813-3.382812-15-3.382812-19.296875 0-35 15.699219-35 35v121.148438c0 34.515624 19.410156 65.347656 50 80.339843v94.699219c-2.144532 1.511719-4.234375 3.167969-6.238282 4.992188-14.347656 13.082031-35.175781 13.082031-49.523437-.003907-10.632813-9.691406-24.214844-15.027343-38.238281-15.027343-14.019532 0-27.601563 5.335937-38.238282 15.03125-7.046874 6.429687-15.089843 9.820312-23.273437 9.820312-.164063 0-.324219-.003906-.488281-.003906-5.464844 0-9.929688 4.398437-9.996094 9.878906-.066406 5.519531 4.355469 10.054688 9.878906 10.121094.207032 0 .414063.003906.621094.003906 13.25 0 25.9375-5.195312 36.734375-15.042969 14.347656-13.078125 35.179687-13.078125 49.523437 0 21.953126 20.015625 54.46875 20.070313 76.472657.003907 14.265625-12.996094 32.023437-13.226563 46.527343-.003907 21.976563 20.035157 51.503907 20.035157 73.476563 0 14.367187-13.097656 32.15625-13.078125 46.523437 0 10.636719 9.695313 24.214844 15.035157 38.238282 15.035157 14.023437 0 27.605468-5.339844 38.234375-15.035157 14.347656-13.078125 35.179687-13.078125 49.523437-.003906 10.601563 9.675781 23.089844 14.878906 36.113282 15.042969h.128906c5.464844 0 9.929687-4.394532 9.996094-9.875.070312-5.519532-4.347657-10.054688-9.871094-10.121094zm-222.363282-9.820312c-14.347656 13.082031-32.175781 13.082031-46.523437-.003907-13.769531-12.546875-30.890625-17.347656-47.238281-13.875v-92.304687c0-4.085938-2.488282-7.765625-6.285156-9.285156-26.554688-10.621094-43.714844-35.960938-43.714844-64.5625v-121.148438c0-8.273438 6.730468-15 15-15 8.273437 0 15 6.726562 15 15v75c0 5.519531 4.480468 10 10 10 32 0 59.886718 21.613281 67.8125 52.558594 1.371094 5.351562 6.820312 8.574218 12.171875 7.207031 5.347656-1.371094 8.574219-6.816406 7.203125-12.167969-9.359375-36.539062-40.339844-62.960937-77.1875-67.046875v-191.550781c0-8.292969 6.703125-15 15-15 8.273437 0 15 6.730469 15 15v161c0 5.519531 4.480468 10 10 10 5.523437 0 10-4.480469 10-10v-181c0-8.292969 6.703125-15 15-15 8.273437 0 15 6.730469 15 15v181c0 5.519531 4.480468 10 10 10 5.523437 0 10-4.480469 10-10v-151c0-8.292969 6.703125-15 15-15 8.269531 0 15 6.730469 15 15v151c0 5.519531 4.476562 10 10 10 5.523437 0 10-4.480469 10-10 0-7.136719 0-114.277344 0-121 0-8.273438 6.730468-15 15-15 8.269531 0 15 6.726562 15 15v218.796875c0 22.222656-12.347656 42.195313-32.238282 52.136719l-2.25 1.128906c-3.378906 1.695312-5.511718 5.15625-5.511718 8.9375v92.035156c-16.074219-3.171875-32.585938 1.699219-46.238282 14.144532zm0 0"/></svg>