<svg height="512pt" viewBox="0 0 512 512" width="512pt" xmlns="http://www.w3.org/2000/svg"><path d="m495.789062 210.089844-99.789062-89.328125h-280l-99.789062 89.328125c-3.964844 3.761718-6.210938 9.050781-6.210938 14.480468v257.429688c0 11.039062 8.960938 20 20 20h452c11.039062 0 20-8.960938 20-20v-257.429688c0-5.421874-2.238281-10.710937-6.210938-14.480468zm0 0" fill="#fff"/><path d="m10 224.570312c0-5.429687 2.246094-10.71875 6.210938-14.480468l99.789062-89.328125h280l99.789062 89.328125c3.972657 3.769531 6.210938 9.058594 6.210938 14.480468l-143.722656 130.429688s-46.609375-43-100.277344-43c-48.332031 0-104 41.140625-104 41.140625zm0 0" fill="#446091"/><path d="m396 316 .828125.871094-40.859375 39.160156c-26.910156-25.671875-62.6875-40.03125-99.96875-40.03125s-73.058594 14.359375-99.96875 40.03125l-40.859375-39.160156.828125-.871094c0-7.761719 0-242.503906 0-246h280zm0 0" fill="#94e1ff"/><path d="m349 70h-186l41.28125-39.308594c13.9375-13.28125 32.457031-20.691406 51.71875-20.691406s37.78125 7.410156 51.71875 20.691406zm0 0" fill="#446091"/><path d="m256 266c-5.519531 0-10 4.480469-10 10s4.480469 10 10 10 10-4.480469 10-10-4.480469-10-10-10zm0 0"/><path d="m176 386c-5.519531 0-10 4.480469-10 10s4.480469 10 10 10 10-4.480469 10-10-4.480469-10-10-10zm0 0"/><path d="m226 176c5.523438 0 10-4.476562 10-10 0-11.027344 8.972656-20 20-20s20 8.972656 20 20c0 8.125-4.851562 15.382812-12.371094 18.492188-10.707031 4.441406-17.628906 15.136718-17.628906 27.246093v24.261719c0 5.523438 4.476562 10 10 10s10-4.476562 10-10v-24.261719c0-3.933593 2.125-7.460937 5.28125-8.765625 15.015625-6.210937 24.71875-20.722656 24.71875-36.972656 0-22.054688-17.945312-40-40-40s-40 17.945312-40 40c0 5.523438 4.476562 10 10 10zm0 0"/><path d="m502.671875 202.835938c-.070313-.066407-.140625-.132813-.210937-.195313l-96.460938-86.351563v-46.289062c0-5.523438-4.476562-10-10-10h-43l-38.382812-36.550781c-15.875-15.121094-36.691407-23.449219-58.617188-23.449219s-42.742188 8.328125-58.617188 23.449219l-38.382812 36.550781h-43c-5.523438 0-10 4.476562-10 10v46.289062s-96.601562 86.480469-96.671875 86.546876c-5.773437 5.476562-9.328125 13.386718-9.328125 21.734374v257.429688c0 16.574219 13.425781 30 30 30h452c16.558594 0 30-13.433594 30-30v-257.429688c0-8.433593-3.613281-16.316406-9.328125-21.734374zm-10.671875 275.019531-121.703125-121.703125 121.703125-116.660156zm-472-238.363281 121.703125 116.660156-121.703125 121.703125zm142.933594 123.773437c25.191406-24.03125 58.242187-37.265625 93.066406-37.265625s67.875 13.234375 93.074219 37.269531c2.257812 2.152344-5.660157-5.691406 128.785156 128.730469h-443.71875c134.507813-134.488281 126.550781-126.597656 128.792969-128.734375zm324.574218-147.167969-81.507812 78.125v-151.089844zm-276.332031-178.167968c12.140625-11.5625 28.058594-17.929688 44.824219-17.929688s32.683594 6.367188 44.824219 17.933594l23.171875 22.066406h-135.992188zm174.824219 42.070312v233.394531l-30.265625 29.007813c-27.898437-23.535156-62.953125-36.402344-99.734375-36.402344s-71.839844 12.867188-99.734375 36.402344l-30.265625-29.007813v-233.394531zm-280 214.222656-81.507812-78.125 81.507812-72.964844zm0 0"/><path d="m336 386h-120c-5.523438 0-10 4.476562-10 10s4.476562 10 10 10h120c5.523438 0 10-4.476562 10-10s-4.476562-10-10-10zm0 0"/></svg>