<svg height="512pt" viewBox="0 0 512 512" width="512pt" xmlns="http://www.w3.org/2000/svg"><path d="m502 76v360c0 11.050781-8.949219 20-20 20h-296v-400h296c11.050781 0 20 8.949219 20 20zm0 0" fill="#446091"/><g fill="#fff"><path d="m399 376h40v40h-40zm0 0"/><path d="m399 296h40v40h-40zm0 0"/><path d="m399 216h40v40h-40zm0 0"/><path d="m439 96v80h-200v-80zm0 0"/><path d="m319 376h40v40h-40zm0 0"/><path d="m319 296h40v40h-40zm0 0"/><path d="m319 216h40v40h-40zm0 0"/><path d="m239 376h40v40h-40zm0 0"/><path d="m239 296h40v40h-40zm0 0"/><path d="m239 216h40v40h-40zm0 0"/></g><path d="m186 482c0 11.050781-8.949219 20-20 20h-86c-11.050781 0-20-8.949219-20-20 0-15.367188 0-426.394531 0-452 0-11.050781 8.949219-20 20-20h86c11.050781 0 20 8.949219 20 20zm0 0" fill="#94e1ff"/><path d="m60 56v400h-30c-11.050781 0-20-8.949219-20-20v-360c0-11.050781 8.949219-20 20-20zm0 0" fill="#446091"/><path d="m279 146c5.519531 0 10-4.480469 10-10s-4.480469-10-10-10-10 4.480469-10 10 4.480469 10 10 10zm0 0"/><path d="m482 46h-286v-16c0-16.542969-13.457031-30-30-30h-86c-16.542969 0-30 13.457031-30 30v16h-20c-16.542969 0-30 13.457031-30 30v360c0 16.542969 13.457031 30 30 30h20v16c0 16.542969 13.457031 30 30 30h86c16.542969 0 30-13.457031 30-30v-16h286c16.542969 0 30-13.457031 30-30v-360c0-16.542969-13.457031-30-30-30zm-452 400c-5.515625 0-10-4.484375-10-10v-360c0-5.515625 4.484375-10 10-10h20v380zm146 36c0 5.515625-4.484375 10-10 10h-86c-5.515625 0-10-4.484375-10-10v-452c0-5.515625 4.484375-10 10-10h86c5.515625 0 10 4.484375 10 10zm316-46c0 5.515625-4.484375 10-10 10h-286v-380h286c5.515625 0 10 4.484375 10 10zm0 0"/><path d="m439 86h-200c-5.523438 0-10 4.476562-10 10v80c0 5.523438 4.476562 10 10 10h200c5.523438 0 10-4.476562 10-10v-80c0-5.523438-4.476562-10-10-10zm-10 80h-180v-60h180zm0 0"/><path d="m319 146h80c5.523438 0 10-4.476562 10-10s-4.476562-10-10-10h-80c-5.523438 0-10 4.476562-10 10s4.476562 10 10 10zm0 0"/><path d="m279 366h-40c-5.523438 0-10 4.476562-10 10v40c0 5.523438 4.476562 10 10 10h40c5.523438 0 10-4.476562 10-10v-40c0-5.523438-4.476562-10-10-10zm-10 40h-20v-20h20zm0 0"/><path d="m359 366h-40c-5.523438 0-10 4.476562-10 10v40c0 5.523438 4.476562 10 10 10h40c5.523438 0 10-4.476562 10-10v-40c0-5.523438-4.476562-10-10-10zm-10 40h-20v-20h20zm0 0"/><path d="m439 366h-40c-5.523438 0-10 4.476562-10 10v40c0 5.523438 4.476562 10 10 10h40c5.523438 0 10-4.476562 10-10v-40c0-5.523438-4.476562-10-10-10zm-10 40h-20v-20h20zm0 0"/><path d="m279 286h-40c-5.523438 0-10 4.476562-10 10v40c0 5.523438 4.476562 10 10 10h40c5.523438 0 10-4.476562 10-10v-40c0-5.523438-4.476562-10-10-10zm-10 40h-20v-20h20zm0 0"/><path d="m359 286h-40c-5.523438 0-10 4.476562-10 10v40c0 5.523438 4.476562 10 10 10h40c5.523438 0 10-4.476562 10-10v-40c0-5.523438-4.476562-10-10-10zm-10 40h-20v-20h20zm0 0"/><path d="m439 286h-40c-5.523438 0-10 4.476562-10 10v40c0 5.523438 4.476562 10 10 10h40c5.523438 0 10-4.476562 10-10v-40c0-5.523438-4.476562-10-10-10zm-10 40h-20v-20h20zm0 0"/><path d="m279 206h-40c-5.523438 0-10 4.476562-10 10v40c0 5.523438 4.476562 10 10 10h40c5.523438 0 10-4.476562 10-10v-40c0-5.523438-4.476562-10-10-10zm-10 40h-20v-20h20zm0 0"/><path d="m359 206h-40c-5.523438 0-10 4.476562-10 10v40c0 5.523438 4.476562 10 10 10h40c5.523438 0 10-4.476562 10-10v-40c0-5.523438-4.476562-10-10-10zm-10 40h-20v-20h20zm0 0"/><path d="m439 206h-40c-5.523438 0-10 4.476562-10 10v40c0 5.523438 4.476562 10 10 10h40c5.523438 0 10-4.476562 10-10v-40c0-5.523438-4.476562-10-10-10zm-10 40h-20v-20h20zm0 0"/></svg>