<svg clip-rule="evenodd" fill-rule="evenodd" height="512" image-rendering="optimizeQuality" shape-rendering="geometricPrecision" text-rendering="geometricPrecision" viewBox="0 0 6773 6773" width="512" xmlns="http://www.w3.org/2000/svg"><g id="Layer_x0020_1"><circle cx="3387" cy="3387" fill="#f44c71" r="3387"/><path d="m4703 5554h-2633c-41 0-74-33-74-74v-4187c0-41 33-74 74-74h2633c41 0 74 33 74 74v4187c0 41-33 74-74 74zm-1985-3994h257c22 0 40-18 40-40s-18-39-40-39h-257c-22 0-40 17-40 39s18 40 40 40zm646-40c0 22 17 40 39 40h652c22 0 40-18 40-40s-18-39-40-39h-652c-22 0-39 17-39 39zm-350 3773h746c22 0 39-18 39-40s-17-40-39-40h-746c-22 0-40 18-40 40s18 40 40 40zm1435-341c22 0 40-18 40-40v-3051c0-22-18-40-40-40h-2125c-22 0-40 18-40 40v3051c0 22 18 40 40 40zm-2085-79v-2972h2045v2972z" fill="#fff"/></g></svg>