<svg clip-rule="evenodd" fill-rule="evenodd" height="512" image-rendering="optimizeQuality" shape-rendering="geometricPrecision" text-rendering="geometricPrecision" viewBox="0 0 6773 6773" width="512" xmlns="http://www.w3.org/2000/svg"><g id="Layer_x0020_1"><circle cx="3387" cy="3387" fill="#f10" r="3387"/><path d="m4629 4610h-2485c-22 0-43-10-57-28-14-17-19-40-15-62 26-112 58-223 91-331h2448c33 108 65 219 90 331 5 22-1 45-15 62-13 18-35 28-57 28zm220-1477c-6 0-13-1-19-3-39-11-63-51-52-90 61-230-75-467-305-529-39-10-63-50-52-90 10-39 51-62 90-52 308 83 492 401 409 709-9 33-38 55-71 55zm296 79c-6 0-12-1-19-3-39-10-62-50-52-90 106-393-129-799-522-904-39-11-62-51-52-90 11-39 51-63 90-52 472 126 753 613 627 1084-9 33-39 55-72 55zm297 79c-6 0-13 0-19-2-39-11-63-51-52-90 72-270 35-552-105-793-139-242-365-415-634-487-40-11-63-51-52-91 10-39 51-62 90-52 307 83 565 280 724 556s201 597 119 905c-9 33-39 54-71 54zm-3518-158c-32 0-62-22-71-55-40-149-19-305 58-439s202-230 351-270c40-10 80 13 91 52 10 39-13 80-52 90-112 30-205 102-262 201-58 100-73 216-44 328 11 39-12 79-52 90-6 2-12 3-19 3zm-296 79c-33 0-62-22-71-55-61-228-30-467 88-672 119-204 310-351 538-412 39-11 80 13 90 52 11 39-13 79-52 90-190 51-350 173-448 344-99 171-125 370-74 560 11 40-13 80-52 90-6 2-13 3-19 3zm-297 79c-32 0-62-21-71-54-82-308-40-629 119-905 160-276 417-473 725-556 39-10 79 13 90 52 10 40-13 80-52 91-270 72-495 245-635 487-140 241-177 523-104 793 10 39-13 79-52 90-7 2-13 2-20 2zm2056 1709c-206 0-381-136-441-322h882c-60 186-235 322-441 322zm-410-2837c7-93 46-183 112-252 78-83 184-128 298-128s220 45 298 128c65 69 105 159 112 252 277 129 595 433 605 1155 14 250 90 490 169 745l15 46h-2399l15-46c80-255 155-495 170-749 9-719 327-1023 605-1151zm410-233c-74 0-141 29-191 82-26 27-45 58-58 92 85-22 156-30 201-33h3 3c14-1 25-1 32-1h10 9 16 2 3c43 2 121 8 218 34-12-34-32-65-57-92-50-53-118-82-191-82zm349 1949c22 0 39-18 39-40s-17-39-39-39h-699c-22 0-39 17-39 39s17 40 39 40z" fill="#fff"/></g></svg>