<svg clip-rule="evenodd" fill-rule="evenodd" height="512" image-rendering="optimizeQuality" shape-rendering="geometricPrecision" text-rendering="geometricPrecision" viewBox="0 0 6773 6773" width="512" xmlns="http://www.w3.org/2000/svg"><g id="Layer_x0020_1"><circle cx="3387" cy="3387" fill="#378b4e" r="3387"/><path d="m5480 4287h-4187c-41 0-74-33-74-74v-625h4335v625c0 41-33 74-74 74zm-584 930s0 0-1 0h-3017c-28 0-54-16-66-41s-9-55 8-77l294-380c14-18 35-29 58-29h2430c22 0 44 11 58 29l288 373c14 13 22 31 22 52 0 40-33 73-74 73zm-2299-594v-269h1580v269zm2419-646c22 0 40-18 40-40s-18-39-40-39h-98c-22 0-40 17-40 39s18 40 40 40zm-422 0c22 0 40-18 40-40s-18-39-40-39h-98c-22 0-40 17-40 39s18 40 40 40zm-423 0c22 0 40-18 40-40s-18-39-40-39h-98c-22 0-39 17-39 39s17 40 39 40zm-2952-468v-1879c0-41 33-74 74-74h4187c41 0 74 33 74 74v1879z" fill="#fff"/></g></svg>