<svg clip-rule="evenodd" fill-rule="evenodd" height="512" image-rendering="optimizeQuality" shape-rendering="geometricPrecision" text-rendering="geometricPrecision" viewBox="0 0 6773 6773" width="512" xmlns="http://www.w3.org/2000/svg"><g id="Layer_x0020_1"><circle cx="3387" cy="3387" fill="#378b4e" r="3387"/><path d="m3258 3823c-68-11-130-38-183-76l-403 403c32 52 50 112 50 175 0 87-34 170-96 232s-145 96-233 96c-87 0-170-34-232-96-128-128-128-337 0-465 62-62 145-96 232-96 63 0 123 17 175 50l403-403c-38-53-65-116-76-183h-833c-34 200-209 351-418 351-234 0-425-190-425-424 0-235 191-425 425-425 209 0 384 152 418 351h833c11-67 38-129 76-183l-465-465c-59 39-127 59-198 59-96 0-187-37-255-105-68-69-106-159-106-256 0-96 38-187 106-255s159-105 255-105 187 37 255 105c123 123 138 313 47 453l465 465c53-38 115-64 183-76v-832c-200-35-351-209-351-418 0-235 190-425 424-425s425 190 425 425c0 209-152 383-351 418v832c67 12 129 38 182 76l328-327c-65-111-49-256 46-351 54-55 127-85 204-85 78 0 150 30 205 85 113 113 113 296 0 409-55 55-127 85-205 85-52 0-102-14-146-39l-327 327c38 54 64 116 75 183h897c35-212 220-374 442-374 247 0 448 201 448 448s-201 448-448 448c-222 0-407-163-442-375h-897c-11 67-37 130-75 183l282 282c39-22 83-33 128-33 71 0 138 28 188 78s78 117 78 188-28 137-78 188c-50 50-117 78-188 78s-138-28-188-78c-50-51-78-117-78-188 0-46 12-90 34-129l-283-282c-53 38-115 65-182 76v832c199 35 351 210 351 419 0 234-191 424-425 424s-424-190-424-424c0-209 151-384 351-419z" fill="#fff"/></g></svg>