<svg clip-rule="evenodd" fill-rule="evenodd" height="512" image-rendering="optimizeQuality" shape-rendering="geometricPrecision" text-rendering="geometricPrecision" viewBox="0 0 6773 6773" width="512" xmlns="http://www.w3.org/2000/svg"><g id="Layer_x0020_1"><circle cx="3387" cy="3387" fill="#378b4e" r="3387"/><path d="m4265 5337h-2972c-41 0-74-33-74-73v-3754c0-41 33-74 74-74h2972c40 0 73 33 73 74v3754c0 40-33 73-73 73zm1215-1924c-40 0-73-33-73-74v-679h-264v1527c0 41-33 74-74 74h-478c-41 0-73-33-73-74v-1601c0-40 32-73 73-73h478 411c41 0 74 33 74 73v753c0 41-33 74-74 74zm-645 1492c-29 0-56-18-68-45l-224-540c15 5 31 8 48 8h478c18 0 34-3 49-8l-214 539c-11 28-38 46-68 46zm-317-2439v-288c0-204 157-310 312-310 156 0 313 106 313 310v288c-21-13-47-21-74-21h-478c-27 0-52 8-73 21zm-696 2287c22 0 39-18 39-40s-17-40-39-40h-2086c-22 0-40 18-40 40s18 40 40 40zm0-531c22 0 39-17 39-39s-17-40-39-40h-2086c-22 0-40 18-40 40s18 39 40 39zm0-530c22 0 39-18 39-40s-17-40-39-40h-2086c-22 0-40 18-40 40s18 40 40 40zm0-531c22 0 39-18 39-40s-17-39-39-39h-2086c-22 0-40 17-40 39s18 40 40 40zm0-530c22 0 39-18 39-40s-17-40-39-40h-2086c-22 0-40 18-40 40s18 40 40 40zm0-531c22 0 39-18 39-40s-17-40-39-40h-2086c-22 0-40 18-40 40s18 40 40 40z" fill="#fff"/></g></svg>