<svg clip-rule="evenodd" fill-rule="evenodd" height="512" image-rendering="optimizeQuality" shape-rendering="geometricPrecision" text-rendering="geometricPrecision" viewBox="0 0 6773 6773" width="512" xmlns="http://www.w3.org/2000/svg"><g id="Layer_x0020_1"><circle cx="3387" cy="3387" fill="#1d81ce" r="3387"/><path d="m4703 5554h-2633c-41 0-74-33-74-74v-4187c0-41 33-74 74-74h2633c41 0 74 33 74 74v4187c0 41-33 74-74 74zm-553-1179c22 0 39-18 39-40v-932c0-22-18-40-39-40h-1526c-22 0-40 18-40 40v932c0 22 18 40 40 40zm-1486-79v-853h1446v853zm577-155c8 0 16-2 23-7l336-232c11-7 18-20 18-33s-7-25-18-32l-336-232c-12-9-28-10-41-3s-22 21-22 35v464c0 15 9 29 22 36 5 3 12 4 18 4zm40-428 227 156-227 157zm370-673c10 0 20-4 28-11 15-16 15-41 0-57-161-161-423-161-584 0-16 16-16 41 0 57 15 15 40 15 56 0 130-130 341-131 472 0 7 7 17 11 28 11zm-689-160c11 0 21-4 28-12 219-218 574-218 793 0 16 16 41 16 56 0 16-15 16-40 0-56-249-249-655-250-905 0-15 16-15 41 0 56 8 8 18 12 28 12zm-188-172c15 15 40 15 56 0 307-307 806-307 1113 0 8 7 18 11 29 11 10 0 20-4 28-11 15-16 15-41 0-56-338-338-888-338-1226 0-16 15-16 40 0 56zm-56-1148h257c22 0 40-18 40-40s-18-39-40-39h-257c-22 0-40 17-40 39s18 40 40 40zm646-40c0 22 17 40 39 40h652c22 0 40-18 40-40s-18-39-40-39h-652c-22 0-39 17-39 39zm-350 3773h746c22 0 39-18 39-40s-17-40-39-40h-746c-22 0-40 18-40 40s18 40 40 40zm1435-341c22 0 40-18 40-40v-3051c0-22-18-40-40-40h-2125c-22 0-40 18-40 40v3051c0 22 18 40 40 40zm-2085-79v-2972h2045v2972z" fill="#fff"/></g></svg>