<svg clip-rule="evenodd" fill-rule="evenodd" height="512" image-rendering="optimizeQuality" shape-rendering="geometricPrecision" text-rendering="geometricPrecision" viewBox="0 0 6773 6773" width="512" xmlns="http://www.w3.org/2000/svg"><g id="Layer_x0020_1"><circle cx="3387" cy="3387" fill="#7ed63f" r="3387"/><path d="m5480 5115h-4187c-41 0-74-33-74-74v-2390h4335v2390c0 41-33 74-74 74zm-878-515c22 0 40-17 40-39s-18-40-40-40h-2431c-22 0-40 18-40 40s18 39 40 39zm0-259c22 0 40-18 40-40s-18-40-40-40h-2431c-22 0-40 18-40 40s18 40 40 40zm0-260c22 0 40-18 40-39 0-22-18-40-40-40h-2431c-22 0-40 18-40 40 0 21 18 39 40 39zm271-280c22 0 39-18 39-40v-556c0-22-17-40-39-40h-2972c-22 0-40 18-40 40v556c0 22 18 40 40 40zm-2933-80v-477h2893v477zm3286 1162c22 0 40-18 40-40v-1921c0-22-18-40-40-40h-3679c-22 0-39 18-39 40v1921c0 22 17 40 39 40zm-3639-79v-1842h3599v1842zm3524-2649c22 0 39-18 39-40s-17-40-39-40h-1357c-21 0-39 18-39 40s18 40 39 40zm-1994 156c108 0 196-88 196-196s-88-196-196-196c-109 0-197 88-197 196s88 196 197 196zm0-313c64 0 116 52 116 117 0 64-52 117-116 117-65 0-117-53-117-117 0-65 52-117 117-117zm-649 313c108 0 196-88 196-196s-88-196-196-196-196 88-196 196 88 196 196 196zm0-313c64 0 117 52 117 117 0 64-53 117-117 117-65 0-117-53-117-117 0-65 52-117 117-117zm-649 313c108 0 197-88 197-196s-89-196-197-196-196 88-196 196 88 196 196 196zm0-313c65 0 117 52 117 117 0 64-52 117-117 117-64 0-117-53-117-117 0-65 53-117 117-117zm-600 573v-839c0-40 33-73 74-73h4187c41 0 74 33 74 73v839z" fill="#fff"/></g></svg>