<svg clip-rule="evenodd" fill-rule="evenodd" height="512" image-rendering="optimizeQuality" shape-rendering="geometricPrecision" text-rendering="geometricPrecision" viewBox="0 0 6773 6773" width="512" xmlns="http://www.w3.org/2000/svg"><g id="Layer_x0020_1"><circle cx="3387" cy="3387" fill="#ff700d" r="3387"/><path d="m4156 3597c-28 0-53-15-66-40l-126-247h-151c-41 0-74-33-74-74v-894c0-41 33-74 74-74h1246c41 0 74 33 74 74v894c0 41-33 74-74 74h-712l-125 247c-13 24-38 40-66 40zm547 1957h-2633c-41 0-74-33-74-74v-1194h288v626c0 22 18 40 40 40h2125c22 0 40-18 40-40v-1535h288v2103c0 41-33 74-74 74zm-2707-2446v-1815c0-41 33-74 74-74h2633c41 0 74 33 74 74v907h-288v-339c0-22-18-40-40-40h-2125c-22 0-40 18-40 40v1247zm722-1548h257c22 0 40-18 40-40s-18-39-40-39h-257c-22 0-40 17-40 39s18 40 40 40zm646-40c0 22 17 40 39 40h652c22 0 40-18 40-40s-18-39-40-39h-652c-22 0-39 17-39 39zm-350 3773h746c22 0 39-18 39-40s-17-40-39-40h-746c-22 0-40 18-40 40s18 40 40 40zm-650-420v-587h21l106 210c24 47 73 77 126 77 53 0 102-30 126-77l108-210h110c78 0 141-64 141-142v-894c0-78-63-142-141-142h-597v-1207h2045v299h-596c-78 0-142 64-142 142v894c0 78 64 141 142 141h109l108 211c18 35 49 60 86 71l4 6h36c53 0 102-30 126-78l106-210h21v1496zm253-368c-27 0-53-15-65-40l-125-247h-713c-41 0-74-33-74-74v-894c0-41 33-74 74-74h1247c40 0 73 33 73 74v894c0 41-33 74-73 74h-151l-127 247c-13 25-38 40-66 40zm69-641c22 0 39-18 39-40s-17-40-39-40h-697c-22 0-40 18-40 40s18 40 40 40zm0-254c22 0 39-18 39-40s-17-40-39-40h-697c-22 0-40 18-40 40s18 40 40 40zm1993-669c84 0 152-68 152-152s-68-152-152-152-152 68-152 152 68 152 152 152zm0-225c40 0 73 33 73 73s-33 73-73 73-73-33-73-73 33-73 73-73zm-486 225c84 0 152-68 152-152s-68-152-152-152-152 68-152 152 68 152 152 152zm0-225c40 0 73 33 73 73s-33 73-73 73-73-33-73-73 33-73 73-73z" fill="#fff"/></g></svg>