<svg clip-rule="evenodd" fill-rule="evenodd" height="512" image-rendering="optimizeQuality" shape-rendering="geometricPrecision" text-rendering="geometricPrecision" viewBox="0 0 6773 6773" width="512" xmlns="http://www.w3.org/2000/svg"><g id="Layer_x0020_1"><circle cx="3387" cy="3387" fill="#f44c71" r="3387"/><path d="m3243 5410c-1116 0-2024-908-2024-2023 0-1116 908-2024 2024-2024 503 0 977 182 1348 515l-809 809-382-382c-54-54-146-54-200 0l-392 392c-55 55-55 145 0 200l874 874c26 26 62 41 100 41 37 0 73-15 100-41l1209-1209c115 258 175 540 175 825 0 1115-908 2023-2023 2023zm539-1666c-19 0-38-7-52-21l-874-874c-29-29-29-75 0-104l392-392c27-28 76-28 104 0l430 430 1254-1255c29-29 76-29 104 0l392 392c14 14 22 33 22 52 0 20-8 38-22 52l-1698 1699c-15 14-33 21-52 21zm-536 1309c292 0 577-78 830-224 385-222 661-581 776-1011 6-21-7-43-28-49s-43 7-49 28c-109 409-372 752-739 963-366 212-796 269-1204 159-21-6-43 7-48 28-6 21 7 43 28 49 141 38 287 57 434 57zm-1574-2047c18 0 34-13 38-30 110-409 373-751 740-963 366-212 795-268 1203-159 21 6 43-7 49-28s-7-43-28-48c-429-115-880-56-1264 166-386 222-661 582-776 1012-6 21 7 43 28 48 3 1 7 2 10 2z" fill="#fff"/></g></svg>