<svg clip-rule="evenodd" fill-rule="evenodd" height="512" image-rendering="optimizeQuality" shape-rendering="geometricPrecision" text-rendering="geometricPrecision" viewBox="0 0 6773 6773" width="512" xmlns="http://www.w3.org/2000/svg"><g id="Layer_x0020_1"><circle cx="3387" cy="3387" fill="#7ed63f" r="3387"/><path d="m5480 5554h-4187c-41 0-74-33-74-74v-4187c0-41 33-74 74-74h4187c41 0 74 33 74 74v4187c0 41-33 74-74 74zm-812-852c22 0 39-17 39-39s-17-40-39-40h-2562c-22 0-40 18-40 40s18 39 40 39zm-438-510c22 0 40-18 40-40s-18-39-40-39h-1686c-22 0-40 17-40 39s18 40 40 40zm438-510c22 0 39-18 39-40s-17-40-39-40h-2562c-22 0-40 18-40 40s18 40 40 40zm-438-511c22 0 40-18 40-40s-18-39-40-39h-1686c-22 0-40 17-40 39s18 40 40 40zm438-510c22 0 39-18 39-40s-17-40-39-40h-2562c-22 0-40 18-40 40s18 40 40 40zm-438-511c22 0 40-17 40-39s-18-40-40-40h-1686c-22 0-40 18-40 40s18 39 40 39zm940 3060c22 0 40-18 40-40v-3567c0-22-18-40-40-40h-3567c-22 0-40 18-40 40v3567c0 22 18 40 40 40zm-3527-80v-3487h3487v3487z" fill="#fff"/></g></svg>