<svg clip-rule="evenodd" fill-rule="evenodd" height="512" image-rendering="optimizeQuality" shape-rendering="geometricPrecision" text-rendering="geometricPrecision" viewBox="0 0 6773 6773" width="512" xmlns="http://www.w3.org/2000/svg"><g id="Layer_x0020_1"><circle cx="3387" cy="3387" fill="#7ed63f" r="3387"/><path d="m3387 5049c-29 0-55-17-67-44-47-102-121-255-206-431-350-725-879-1819-879-2203 0-635 516-1152 1152-1152 635 0 1152 517 1152 1152 0 384-529 1478-880 2203-85 176-159 329-205 431-12 27-38 44-67 44zm0 505c-598 0-1217-73-1631-213 75-92 140-170 187-229l12-15 450 70c14 2 28-3 37-14s12-26 7-39l-276-687c231-44 489-74 752-90 42 89 85 177 128 266 69 143 139 286 205 430 23 51 73 83 129 83 55 0 105-32 128-83 66-144 136-287 205-430 43-89 86-177 129-266 227 14 450 38 656 73l-204 423c-8 18-2 40 15 51l704 456c-413 140-1034 214-1633 214zm-1710-242c-251-97-408-222-408-374 0-230 347-395 826-496l256 636-407-63c-14-2-28 3-37 14-76 95-154 189-230 283zm2909-888c526 98 918 269 918 514 0 148-150 271-390 367l-726-469zm-1199-1394c361 0 656-295 656-656 0-362-295-656-656-656-362 0-656 294-656 656 0 361 294 656 656 656zm0-1233c318 0 576 259 576 577s-258 576-576 576-577-258-577-576 259-577 577-577z" fill="#fff"/></g></svg>