<svg clip-rule="evenodd" fill-rule="evenodd" height="512" image-rendering="optimizeQuality" shape-rendering="geometricPrecision" text-rendering="geometricPrecision" viewBox="0 0 6773 6773" width="512" xmlns="http://www.w3.org/2000/svg"><g id="Layer_x0020_1"><circle cx="3387" cy="3387" fill="#378b4e" r="3387"/><path d="m5480 5554h-4187c-41 0-74-33-74-74v-4187c0-41 33-74 74-74h4187c41 0 74 33 74 74v4187c0 41-33 74-74 74zm-656-691c22 0 40-18 40-40 0-21-18-39-40-39h-2874c-22 0-40 18-40 39 0 22 18 40 40 40zm0-410c22 0 40-18 40-40s-18-40-40-40h-2874c-22 0-40 18-40 40s18 40 40 40zm0-411c22 0 40-18 40-40s-18-39-40-39h-2874c-22 0-40 17-40 39s18 40 40 40zm0-410c22 0 40-18 40-40s-18-40-40-40h-2874c-22 0-40 18-40 40s18 40 40 40zm0-411c22 0 40-18 40-40s-18-39-40-39h-2874c-22 0-40 17-40 39s18 40 40 40zm0-410c22 0 40-18 40-40s-18-40-40-40h-2874c-22 0-40 18-40 40s18 40 40 40zm0-411c22 0 40-18 40-40s-18-39-40-39h-2874c-22 0-40 17-40 39s18 40 40 40zm0-410c22 0 40-18 40-40s-18-40-40-40h-2874c-22 0-40 18-40 40s18 40 40 40zm346 3220c22 0 40-18 40-40v-3567c0-22-18-40-40-40h-3567c-22 0-40 18-40 40v3567c0 22 18 40 40 40zm-3527-80v-3487h3487v3487z" fill="#fff"/></g></svg>