<svg clip-rule="evenodd" fill-rule="evenodd" height="512" image-rendering="optimizeQuality" shape-rendering="geometricPrecision" text-rendering="geometricPrecision" viewBox="0 0 6773 6773" width="512" xmlns="http://www.w3.org/2000/svg"><g id="Layer_x0020_1"><circle cx="3387" cy="3387" fill="#f44c71" r="3387"/><path d="m4609 3537h-511v442h494c32-114 136-197 260-197 149 0 271 121 271 271 0 149-122 270-271 270-124 0-228-83-260-197h-568c-41 0-73-33-73-73v-516h-172v1150h494c32-113 137-197 260-197 149 0 271 122 271 271s-122 271-271 271c-123 0-228-84-260-197h-568c-40 0-73-33-73-74v-1224h-172v1486c114 32 197 137 197 260 0 149-121 271-270 271-150 0-271-122-271-271 0-123 83-228 197-260v-1486h-171v1224c0 41-33 74-74 74h-568c-32 113-136 197-260 197-149 0-271-122-271-271s122-271 271-271c124 0 228 84 260 197h494v-1150h-171v516c0 40-33 73-74 73h-567c-32 114-137 197-261 197-149 0-270-121-270-270 0-150 121-271 270-271 124 0 229 83 261 197h494v-442h-511c-293 0-530-238-530-530 0-161 72-310 195-410-24-62-37-127-37-193 0-222 137-417 339-494-1-15-1-31-1-46 0-355 289-645 645-645 307 0 567 214 630 509 135 3 259 71 335 179 87-50 185-76 288-76 321 0 582 260 582 581 0 22-1 44-4 65h2c292 0 530 238 530 530s-238 530-530 530z" fill="#fff"/></g></svg>