<svg clip-rule="evenodd" fill-rule="evenodd" height="512" image-rendering="optimizeQuality" shape-rendering="geometricPrecision" text-rendering="geometricPrecision" viewBox="0 0 6773 6773" width="512" xmlns="http://www.w3.org/2000/svg"><g id="Layer_x0020_1"><circle cx="3387" cy="3387" fill="#00ab94" r="3387"/><path d="m3387 5251c-30 0-56-18-68-45l-191-444c-4-7-6-15-6-23l-184-2238c136 79 291 120 449 120 157 0 312-41 448-120l-183 2238c-1 8-3 16-6 23l-192 444c-11 27-38 45-67 45zm-1701-2331v-239c0-41 33-74 74-74h254c41 0 74 33 74 74v121zm607-178v-239c0-41 33-74 73-74h255c40 0 73 33 73 74v121zm2392 60v-121c0-41 33-74 74-74h254c41 0 74 33 74 74v239zm-606-178v-121c0-41 33-74 74-74h254c41 0 74 33 74 74v239zm1271 1039c-2 0-4-1-7-1l-1523-150 72-872 1609 472c19 6 35 19 44 37 10 17 11 38 5 57l-129 405c-10 31-39 52-71 52zm-1371 1338c-11 0-22-2-32-7l-271-132 32-73c6-14 10-29 11-45l30-359 510 295c21 12 35 35 37 59 1 25-10 49-29 63l-243 184c-13 10-29 15-45 15zm-2556-1338c-32 0-60-21-70-52l-130-405c-6-19-4-40 5-57 9-18 25-31 44-37l1610-472 71 872-1523 150c-2 0-5 1-7 1zm1371 1338c-16 0-31-5-45-15l-242-184c-20-14-31-38-29-63 1-24 15-47 36-59l511-295 29 359c1 16 5 31 11 45l32 73-271 132c-10 5-21 7-32 7zm593-2447c-149 0-296-41-423-117-21-12-34-33-36-57l-30-363c-9-121 32-238 119-332 95-103 230-162 370-162s275 59 370 162c86 94 128 211 118 332l-30 363c-2 24-15 45-36 57-127 77-273 117-422 117zm-175-565c15 0 28-8 35-21 28-51 82-83 140-83s111 32 139 83c11 19 35 26 54 16 19-11 26-35 16-54-42-77-122-124-209-124s-168 48-209 124c-11 19-4 43 15 54 6 3 13 5 19 5z" fill="#fff"/></g></svg>