<svg id="Capa_1" enable-background="new 0 0 512 512" height="512" viewBox="0 0 512 512" width="512" xmlns="http://www.w3.org/2000/svg"><g><path d="m35.312 158.087 34.053-66.427c.608-1.187 1.83-1.933 3.164-1.933h70.155c1.344 0 2.574-.758 3.177-1.959l20.627-41.07c.603-1.201 1.833-1.959 3.177-1.959h50.621c.859 0 1.69-.311 2.337-.876l37.103-32.37c1.576-1.375 3.993-1.099 5.218.596l38.76 53.622 38.373-14.018c.92-.336 1.938-.278 2.813.161l62.39 31.279c.495.248 1.04.377 1.593.377h44.206c1.673 0 3.119 1.166 3.474 2.801l15.582 71.778-34.369 20.604h-367.41z" fill="#365e7d"/><path d="m453.077 83.508h-44.205c-.553 0-1.099-.129-1.593-.377l-62.39-31.279c-.875-.439-1.893-.497-2.813-.161l-38.373 14.018-38.76-53.622c-1.225-1.695-3.642-1.971-5.218-.596l-15.04 13.122 40.576 56.134c1.819 2.516 5.088 3.518 8.005 2.453l32.071-11.716c1.795-.656 3.782-.542 5.49.315l60.369 30.266c.965.484 2.03.736 3.109.736h40.677c3.265 0 6.088 2.276 6.781 5.467l3.352 15.439c1.859 8.564-4.665 16.657-13.429 16.657h-387.287l-9.087 17.725h436.822l-15.582-71.778c-.355-1.637-1.802-2.803-3.475-2.803z" fill="#2b4d66"/><path d="m486.905 192.549-41.001-20.604h-398.086l-22.723 20.604 50.725 208.648c1.042 4.288 4.882 7.306 9.295 7.306h341.771c4.413 0 8.253-3.018 9.295-7.306z" fill="#df6b57"/><path d="m25.095 192.549 5.187 21.336h403.445c13.419 0 23.295 12.565 20.125 25.604l-41.089 169.014h14.123c4.412 0 8.253-3.018 9.295-7.306l50.725-208.648z" fill="#dd544f"/><path d="m506.901 192.549h-501.802c-2.816 0-5.099-2.283-5.099-5.099v-24.265c0-2.816 2.283-5.099 5.099-5.099h501.803c2.816 0 5.099 2.283 5.099 5.099v24.265c-.001 2.816-2.284 5.099-5.1 5.099z" fill="#eab14d"/><path d="m506.901 158.087h-20.648c2.816 0 5.099 2.283 5.099 5.099v24.265c0 2.816-2.283 5.099-5.099 5.099h20.648c2.816 0 5.099-2.283 5.099-5.099v-24.265c0-2.816-2.283-5.099-5.099-5.099z" fill="#e49542"/><path d="m407.324 444.994h-302.648c-4.11 0-7.441-3.332-7.441-7.441v-29.05h317.531v29.05c-.001 4.109-3.332 7.441-7.442 7.441z" fill="#365e7d"/><g><g><path d="m129.996 242.301h-94.684c-4.268 0-7.726-3.459-7.726-7.726 0-4.268 3.459-7.726 7.726-7.726h94.684c4.268 0 7.726 3.459 7.726 7.726 0 4.268-3.459 7.726-7.726 7.726z" fill="#d82e3d"/></g><g><path d="m204.491 242.301h-43.228c-4.268 0-7.726-3.459-7.726-7.726 0-4.268 3.459-7.726 7.726-7.726h43.228c4.268 0 7.726 3.459 7.726 7.726 0 4.268-3.459 7.726-7.726 7.726z" fill="#d82e3d"/></g><g><path d="m83.877 319.229h-29.863c-4.268 0-7.726-3.459-7.726-7.726 0-4.268 3.459-7.726 7.726-7.726h29.863c4.268 0 7.726 3.459 7.726 7.726s-3.458 7.726-7.726 7.726z" fill="#d82e3d"/></g><g><path d="m183.779 319.229h-65.586c-4.268 0-7.726-3.459-7.726-7.726 0-4.268 3.459-7.726 7.726-7.726h65.586c4.268 0 7.726 3.459 7.726 7.726.001 4.267-3.458 7.726-7.726 7.726z" fill="#d82e3d"/></g><g><path d="m464.831 291.076h-92.286c-4.268 0-7.726-3.459-7.726-7.726s3.459-7.726 7.726-7.726h92.286c4.268 0 7.726 3.459 7.726 7.726s-3.459 7.726-7.726 7.726z" fill="#d82e3d"/></g><g><path d="m353.816 372.63h-65.558c-4.268 0-7.726-3.459-7.726-7.726 0-4.268 3.459-7.726 7.726-7.726h65.558c4.268 0 7.726 3.459 7.726 7.726 0 4.268-3.459 7.726-7.726 7.726z" fill="#d82e3d"/></g><g><path d="m83.877 386.448h-13.521c-4.268 0-7.726-3.459-7.726-7.726 0-4.268 3.459-7.726 7.726-7.726h13.521c4.268 0 7.726 3.459 7.726 7.726s-3.458 7.726-7.726 7.726z" fill="#d82e3d"/></g><g><path d="m394.162 249.528h-40.356c-4.268 0-7.726-3.459-7.726-7.726s3.459-7.726 7.726-7.726h40.356c4.268 0 7.726 3.459 7.726 7.726s-3.459 7.726-7.726 7.726z" fill="#d82e3d"/></g><g><path d="m409.614 331.853h-80.951c-4.268 0-7.726-3.459-7.726-7.726s3.459-7.726 7.726-7.726h80.951c4.268 0 7.726 3.459 7.726 7.726s-3.458 7.726-7.726 7.726z" fill="#d82e3d"/></g><g><path d="m303.702 283.743h-82.084c-4.268 0-7.726-3.459-7.726-7.726 0-4.268 3.459-7.726 7.726-7.726h82.084c4.268 0 7.726 3.459 7.726 7.726s-3.459 7.726-7.726 7.726z" fill="#d82e3d"/></g></g><circle cx="178.961" cy="444.994" fill="#c3d5ef" r="56.392"/><path d="m178.961 388.602c-4.048 0-7.993.435-11.8 1.246 25.478 5.426 44.592 28.049 44.592 55.145s-19.114 49.72-44.592 55.146c3.806.811 7.752 1.246 11.8 1.246 31.144 0 56.392-25.247 56.392-56.392-.001-31.143-25.248-56.391-56.392-56.391z" fill="#b7c8ea"/><g><path d="m178.96 454.251c-4.268 0-7.726-3.459-7.726-7.726v-3.062c0-4.268 3.459-7.726 7.726-7.726 4.268 0 7.726 3.459 7.726 7.726v3.062c.001 4.267-3.458 7.726-7.726 7.726z" fill="#e7ecf6"/></g><circle cx="333.039" cy="444.994" fill="#c3d5ef" r="56.392"/><path d="m333.039 388.602c-4.048 0-7.993.435-11.8 1.246 25.478 5.426 44.592 28.049 44.592 55.145s-19.114 49.72-44.592 55.146c3.806.811 7.752 1.246 11.8 1.246 31.144 0 56.392-25.247 56.392-56.392 0-31.143-25.248-56.391-56.392-56.391z" fill="#b7c8ea"/><g><path d="m333.039 454.251c-4.268 0-7.726-3.459-7.726-7.726v-3.062c0-4.268 3.459-7.726 7.726-7.726s7.726 3.459 7.726 7.726v3.062c0 4.267-3.459 7.726-7.726 7.726z" fill="#e7ecf6"/></g><g><g><path d="m118.194 134.867c-4.268 0-7.726-3.459-7.726-7.726v-6.622l-9.156-3.378c-4.003-1.477-6.051-5.92-4.574-9.923 1.476-4.004 5.919-6.053 9.923-4.574l14.208 5.241c3.036 1.12 5.052 4.013 5.052 7.248v12.007c-.001 4.268-3.46 7.727-7.727 7.727z" fill="#2b4d66"/></g><g><path d="m225.395 97.404c-1.33 0-2.648-.344-3.82-1.01l-20.904-11.891c-3.709-2.111-5.006-6.828-2.896-10.536 2.111-3.709 6.829-5.004 10.536-2.896l18.361 10.445 25.464-5.344c4.179-.879 8.274 1.798 9.149 5.974.877 4.177-1.798 8.273-5.974 9.149l-28.328 5.946c-.527.109-1.058.163-1.588.163z" fill="#2b4d66"/></g><g><path d="m389.43 132.423h-30.724c-2.902 0-5.56-1.627-6.881-4.212l-15.647-30.638c-1.941-3.8-.433-8.454 3.367-10.395s8.455-.433 10.395 3.367l13.495 26.426h25.995c4.268 0 7.726 3.459 7.726 7.726.001 4.267-3.458 7.726-7.726 7.726z" fill="#2b4d66"/></g><g><path d="m262.659 132.425c-3.225 0-6.234-2.036-7.321-5.262-1.362-4.044.811-8.427 4.855-9.789l25.598-8.624c4.042-1.365 8.427.812 9.789 4.855 1.362 4.044-.811 8.427-4.855 9.789l-25.598 8.624c-.818.276-1.65.407-2.468.407z" fill="#2b4d66"/></g></g></g></svg>