<svg id="Capa_1" enable-background="new 0 0 512 512" height="512" viewBox="0 0 512 512" width="512" xmlns="http://www.w3.org/2000/svg"><g><g><path d="m408.915 224.213c-4.143 0-7.5-3.357-7.5-7.5v-27.954c0-4.143 3.357-7.5 7.5-7.5s7.5 3.357 7.5 7.5v27.954c0 4.143-3.357 7.5-7.5 7.5z" fill="#365e7d"/></g><path d="m349.906 106.353h-142.181v-95.426c0-3.964 3.213-7.177 7.177-7.177h127.826c3.964 0 7.177 3.213 7.177 7.177v95.426z" fill="#df6b57"/><path d="m342.729 3.75h-19.321c3.964 0 7.177 3.213 7.177 7.177v95.426h19.321v-95.426c0-3.964-3.214-7.177-7.177-7.177z" fill="#dd544f"/><path d="m312.944 30.402h-9.5c-4.017 0-7.951.748-11.637 2.182l-6.657-6.657c-1.692-1.691-3.942-2.623-6.335-2.623s-4.643.932-6.335 2.623l-6.657 6.657c-3.686-1.435-7.62-2.182-11.637-2.182h-9.499c-4.94 0-8.959 4.019-8.959 8.958v9.5c0 17.716 14.412 32.129 32.128 32.129h.812l2.746 2.746c.001 0 .002.001.003.002 2.039 2.037 4.718 3.057 7.396 3.057 2.68 0 5.36-1.02 7.401-3.059l2.746-2.746h.812c17.716 0 32.128-14.413 32.128-32.129v-9.5c.002-4.94-4.016-8.958-8.956-8.958zm-34.129 10.404 2.445 2.446c6.679 6.678 6.679 17.545 0 24.223l-2.445 2.446-2.445-2.446c-6.679-6.678-6.679-17.545 0-24.223zm-28.086 8.054v-3.458h3.458c1.233 0 2.451.134 3.637.392-1.648 5.312-1.888 10.966-.723 16.379-3.882-3.144-6.372-7.941-6.372-13.313zm56.173 0c0 5.373-2.491 10.17-6.372 13.312 1.165-5.413.926-11.067-.723-16.379 1.187-.257 2.404-.392 3.637-.392h3.458z" fill="#e7ecf6"/><path d="m75.399 350.612h361.201v150.138h-361.201z" fill="#df6b57"/><path d="m416.093 350.612h20.508v150.138h-20.508z" fill="#dd544f"/><path d="m436.6 350.612h-221.201v-143.899h214.024c3.964 0 7.177 3.213 7.177 7.177z" fill="#e7ecf6"/><path d="m429.423 206.713h-20.508c3.964 0 7.177 3.213 7.177 7.177v136.722h20.508v-136.722c0-3.964-3.213-7.177-7.177-7.177z" fill="#d8e2f1"/><path d="m75.403 206.718h196.37v143.89h-196.37z" fill="#d3effb"/><path d="m253 206.713h18.777v143.899h-18.777z" fill="#b1e4f9"/><path d="m349.903 106.348v100.37h-274.5v-93.19c0-3.96 3.21-7.18 7.17-7.18z" fill="#e7ecf6"/><path d="m330.585 106.353v71.49c0 6.757-5.477 12.234-12.234 12.234h-242.952v16.636h255.186 19.321v-16.636-83.724z" fill="#d8e2f1"/><g><g><path d="m136.523 106.348h15v100.37h-15z" fill="#d8e2f1"/></g><g><path d="m102.213 106.348h15v100.37h-15z" fill="#d8e2f1"/></g><g><path d="m170.843 106.348h15v100.37h-15z" fill="#d8e2f1"/></g><g><path d="m205.153 106.348h15v100.37h-15z" fill="#d8e2f1"/></g><g><path d="m239.463 106.348h15v100.37h-15z" fill="#d8e2f1"/></g><g><path d="m273.783 106.348h15v100.37h-15z" fill="#d8e2f1"/></g><g><path d="m308.093 106.348h15v100.37h-15z" fill="#d8e2f1"/></g></g><path d="m219.176 500.75h-100.757v-47.985c0-4.425 3.587-8.012 8.012-8.012h84.733c4.425 0 8.012 3.587 8.012 8.012z" fill="#d3effb"/><path d="m211.164 444.753h-17.195c4.425 0 8.012 3.587 8.012 8.012v47.985h17.195v-47.985c0-4.425-3.587-8.012-8.012-8.012z" fill="#b1e4f9"/><path d="m396.93 444.753h-139.011c-4.004 0-7.251-3.246-7.251-7.251v-46.504c0-4.004 3.246-7.251 7.251-7.251h139.011c4.004 0 7.251 3.246 7.251 7.251v46.504c-.001 4.005-3.247 7.251-7.251 7.251z" fill="#d3effb"/><path d="m396.93 383.748h-17.009c4.005 0 7.251 3.246 7.251 7.25v46.504c0 4.004-3.246 7.25-7.251 7.25h17.009c4.004 0 7.251-3.246 7.251-7.25v-46.504c-.001-4.004-3.247-7.25-7.251-7.25z" fill="#b1e4f9"/><path d="m436.6 307.231h-105.021c-2.295 0-4.155-1.86-4.155-4.155v-20.26c0-2.295 1.86-4.155 4.155-4.155h105.021z" fill="#df6b57"/><path d="m416.093 278.663h20.508v28.569h-20.508z" fill="#dd544f"/><g><g><path d="m116.993 206.718h15v143.89h-15z" fill="#b1e4f9"/></g><g><path d="m166.093 206.718h15v143.89h-15z" fill="#b1e4f9"/></g><g><path d="m215.183 206.718h15v143.89h-15z" fill="#b1e4f9"/></g></g><g><path d="m504.5 508.25h-497c-4.143 0-7.5-3.357-7.5-7.5s3.357-7.5 7.5-7.5h497c4.143 0 7.5 3.357 7.5 7.5s-3.357 7.5-7.5 7.5z" fill="#95d6a4"/></g><g><path d="m445.004 358.112h-378.009c-4.143 0-7.5-3.357-7.5-7.5s3.357-7.5 7.5-7.5h378.009c4.143 0 7.5 3.357 7.5 7.5s-3.358 7.5-7.5 7.5z" fill="#365e7d"/></g></g></svg>