<svg id="Capa_1" enable-background="new 0 0 512 512" height="512" viewBox="0 0 512 512" width="512" xmlns="http://www.w3.org/2000/svg"><g><g><path d="m443.294 153.486v-43.903h-69.366v43.118c0 22.741-10.236 44.461-28.267 58.319-24.087 18.513-39.788 47.395-40.419 79.972-1.105 57.034 44.853 104.625 101.893 105.421 57.776.806 104.865-45.787 104.865-103.379 0-33.474-15.91-63.229-40.579-82.122-17.831-13.656-28.127-34.966-28.127-57.426z" fill="#d3effb"/><path d="m471.421 210.912c-17.831-13.656-28.127-34.967-28.127-57.427v-43.903h-69.366v28.573h30.167c8.467 0 15.331 6.864 15.331 15.331 0 22.46 10.295 43.77 28.127 57.426 24.669 18.893 40.579 48.648 40.579 82.122 0 53.054-39.962 96.774-91.428 102.703 3.429.397 6.909.626 10.431.675 57.776.807 104.865-45.786 104.865-103.377 0-33.475-15.91-63.229-40.579-82.123z" fill="#b1e4f9"/></g><path d="m459.014 119.884h-100.805c-5.06 0-9.161-4.102-9.161-9.161v-10.439c0-5.059 4.102-9.161 9.161-9.161h100.805c5.06 0 9.161 4.102 9.161 9.161v10.439c0 5.06-4.101 9.161-9.161 9.161z" fill="#d3effb"/><path d="m459.014 91.123h-16.702c5.059 0 9.161 4.102 9.161 9.161v10.439c0 5.06-4.102 9.161-9.161 9.161h16.702c5.06 0 9.161-4.102 9.161-9.161v-10.439c0-5.059-4.101-9.161-9.161-9.161z" fill="#b1e4f9"/><path d="m454.929 232.445c-4.078-3.124-7.878-6.558-11.38-10.255-2.368-2.5-5.694-3.865-9.137-3.865h-51.67c-3.454 0-6.789 1.374-9.159 3.887-3.507 3.72-7.311 7.174-11.394 10.311-18.506 14.225-29.378 35.727-29.83 58.994-.394 20.337 7.261 39.674 21.554 54.454 14.272 14.755 33.308 23.038 53.599 23.321.364.005 1.101.008 1.103.008 20.37 0 39.522-7.933 53.924-22.336 14.404-14.405 22.337-33.558 22.337-53.931.001-23.928-10.915-46.012-29.947-60.588z" fill="#b3e59f"/><path d="m454.929 232.445c-4.078-3.124-7.878-6.558-11.38-10.255-2.368-2.5-5.694-3.865-9.137-3.865h-27.123c3.443 0 6.769 1.366 9.137 3.865 3.502 3.697 7.301 7.131 11.38 10.255 19.032 14.576 29.948 36.66 29.948 60.59 0 20.373-7.933 39.526-22.337 53.931-11.144 11.144-25.136 18.394-40.331 21.113 4.069.733 8.218 1.155 12.426 1.214.364.005 1.101.008 1.103.008 20.37 0 39.522-7.933 53.924-22.336 14.404-14.405 22.337-33.558 22.337-53.931.001-23.929-10.915-46.013-29.947-60.589z" fill="#95d6a4"/><g><path d="m138.071 153.486v-43.903h-69.366v43.118c0 22.741-10.236 44.461-28.267 58.319-24.086 18.512-39.787 47.395-40.418 79.972-1.105 57.034 44.853 104.625 101.893 105.421 57.776.806 104.865-45.787 104.865-103.378 0-33.474-15.91-63.229-40.579-82.122-17.832-13.657-28.128-34.967-28.128-57.427z" fill="#d3effb"/><path d="m166.198 210.912c-17.831-13.656-28.127-34.967-28.127-57.427v-43.903h-69.366v28.573h30.167c8.467 0 15.331 6.864 15.331 15.331 0 22.46 10.295 43.77 28.127 57.426 24.669 18.893 40.579 48.648 40.579 82.122 0 53.054-39.963 96.774-91.428 102.703 3.429.397 6.909.626 10.431.675 57.776.806 104.865-45.787 104.865-103.378 0-33.474-15.91-63.228-40.579-82.122z" fill="#b1e4f9"/></g><path d="m153.791 119.884h-100.805c-5.059 0-9.161-4.102-9.161-9.161v-10.439c0-5.059 4.102-9.161 9.161-9.161h100.805c5.059 0 9.161 4.102 9.161 9.161v10.439c0 5.06-4.101 9.161-9.161 9.161z" fill="#d3effb"/><path d="m153.791 91.123h-16.702c5.059 0 9.161 4.102 9.161 9.161v10.439c0 5.06-4.102 9.161-9.161 9.161h16.702c5.06 0 9.161-4.102 9.161-9.161v-10.439c0-5.059-4.101-9.161-9.161-9.161z" fill="#b1e4f9"/><path d="m149.706 232.445c-4.078-3.124-7.878-6.558-11.38-10.255-2.368-2.5-5.694-3.865-9.137-3.865h-51.67c-3.454 0-6.789 1.374-9.159 3.887-3.507 3.72-7.311 7.174-11.394 10.311-18.506 14.225-29.378 35.727-29.83 58.994-.394 20.337 7.261 39.674 21.554 54.454 14.272 14.755 33.308 23.038 53.599 23.321.364.005 1.101.008 1.103.008 20.37 0 39.522-7.933 53.924-22.336 14.404-14.405 22.337-33.558 22.337-53.931.001-23.928-10.914-46.012-29.947-60.588z" fill="#b3e59f"/><path d="m149.706 232.445c-4.078-3.124-7.878-6.558-11.38-10.255-2.368-2.5-5.694-3.865-9.137-3.865h-27.123c3.443 0 6.769 1.366 9.137 3.865 3.502 3.697 7.301 7.131 11.38 10.255 19.032 14.576 29.948 36.66 29.948 60.59 0 20.373-7.933 39.526-22.337 53.931-11.144 11.144-25.136 18.394-40.331 21.113 4.069.733 8.218 1.155 12.426 1.214.364.005 1.101.008 1.103.008 20.37 0 39.522-7.933 53.924-22.336 14.404-14.405 22.337-33.558 22.337-53.931.001-23.929-10.914-46.013-29.947-60.589z" fill="#95d6a4"/><g><path d="m392.479 375.405-58.643-68.83c-23.574-27.669-36.521-62.829-36.521-99.178v-119.673h-82.631v119.672c0 36.349-12.947 71.51-36.521 99.179l-58.643 68.83c-22.608 26.536-3.751 67.377 31.11 67.377h210.737c34.863-.001 53.72-40.842 31.112-67.377z" fill="#e7ecf6"/><path d="m392.479 375.405-58.643-68.83c-23.574-27.668-36.521-62.829-36.521-99.178v-119.673h-82.631v30.243h45.288c8.541 0 15.465 6.924 15.465 15.465v73.964c0 36.349 12.947 71.51 36.521 99.179l58.643 68.83c22.608 26.536 3.751 67.377-31.11 67.377h21.878c34.861-.001 53.718-40.842 31.11-67.377z" fill="#d8e2f1"/></g><path d="m311.965 98.026h-111.93c-3.423 0-6.197-2.775-6.197-6.197v-16.413c0-3.423 2.775-6.197 6.197-6.197h111.931c3.423 0 6.197 2.775 6.197 6.197v16.413c0 3.423-2.775 6.197-6.198 6.197z" fill="#e7ecf6"/><path d="m311.965 69.219h-17.883c3.423 0 6.197 2.774 6.197 6.197v16.413c0 3.423-2.775 6.197-6.197 6.197h17.883c3.423 0 6.197-2.775 6.197-6.197v-16.413c.001-3.423-2.774-6.197-6.197-6.197z" fill="#d8e2f1"/><path d="m372.876 392.107-58.644-68.83c-20.07-23.556-33.553-51.826-39.386-81.864-.515-2.652-2.84-4.563-5.542-4.563h-26.608c-2.702 0-5.027 1.911-5.542 4.563-5.833 30.038-19.317 58.308-39.387 81.864l-58.643 68.83c-5.66 6.644-3.436 13.501-2.216 16.14 1.218 2.64 4.996 8.78 13.723 8.78h210.737c8.727 0 12.505-6.14 13.723-8.78 1.221-2.639 3.445-9.496-2.215-16.14z" fill="#b3e59f"/><path d="m372.876 392.107-58.644-68.83c-20.07-23.557-33.553-51.826-39.386-81.864-.515-2.652-2.84-4.563-5.542-4.563h-23.694c2.702 0 5.027 1.911 5.542 4.563 5.833 30.038 19.316 58.308 39.386 81.864l58.644 68.83c5.66 6.644 3.436 13.501 2.216 16.14-1.218 2.64-4.996 8.78-13.723 8.78h23.694c8.727 0 12.505-6.14 13.723-8.78 1.22-2.639 3.444-9.496-2.216-16.14z" fill="#95d6a4"/></g></svg>