<svg id="Capa_1" enable-background="new 0 0 512 512" height="512" viewBox="0 0 512 512" width="512" xmlns="http://www.w3.org/2000/svg"><g><g><path d="m485.131 37.59-23.632-23.632c-1.148-1.148-2.927-1.379-4.33-.56l-61.331 35.774c-.906.528-1.49 1.471-1.561 2.518l-1.628 24.147-215 215 30.604 30.604 213.631-213.631c.883-.883 2.056-1.415 3.301-1.499l22.215-1.498c1.046-.071 1.989-.655 2.518-1.561l35.774-61.331c.817-1.404.587-3.182-.561-4.331z" fill="#e7ecf6"/><path d="m485.131 37.59-12.576-12.576-33.475 57.389c-2.835 4.86-7.895 7.998-13.509 8.376l-10.493.707c-4.094.276-7.95 2.027-10.851 4.929l-164.818 164.819c-4.897 4.897-12.837 4.897-17.734 0l-7.212-7.212-36.815 36.815 30.604 30.604s213.631-213.631 213.631-213.631c.883-.883 2.056-1.415 3.301-1.499l22.215-1.498c1.046-.071 1.989-.655 2.518-1.561l35.774-61.331c.818-1.404.588-3.182-.56-4.331z" fill="#d8e2f1"/></g><path d="m176.539 391.826c3.903-3.903 8.251-7.085 12.882-9.55 19.533-10.395 37.278-23.846 51.681-40.644 9.085-10.595 8.48-26.4-1.39-36.269l-50.803-50.803c-7.152-7.152-18.605-7.591-26.284-1.007-18.476 15.842-34.38 34.63-45.814 56.114-2.464 4.63-5.647 8.979-9.549 12.881-5.442 5.442-11.752 9.488-18.485 12.137-24.129 9.494-46.807 22.322-66.491 39.2l-.001.001c-28.227 24.206-29.879 67.319-3.585 93.614l12.889 12.889c26.294 26.294 69.407 24.642 93.613-3.587 16.878-19.684 29.707-42.362 39.201-66.491 2.649-6.733 6.694-13.043 12.136-18.485z" fill="#b3e59f"/><path d="m125.202 476.802c16.878-19.684 29.707-42.363 39.201-66.491 2.649-6.732 6.694-13.042 12.137-18.485 3.903-3.903 8.251-7.085 12.882-9.55 19.533-10.395 37.278-23.846 51.681-40.644 9.085-10.595 8.48-26.4-1.39-36.269l-17.27-17.27c9.869 9.869 10.475 25.673 1.39 36.269-14.403 16.798-32.148 30.248-51.681 40.644-4.631 2.464-8.98 5.647-12.882 9.55-5.442 5.442-9.488 11.752-12.137 18.485-9.494 24.129-22.323 46.807-39.201 66.491-23.529 27.44-64.918 29.761-91.364 5.719.691.761 1.397 1.513 2.132 2.248l12.889 12.889c26.295 26.295 69.407 24.643 93.613-3.586z" fill="#95d6a4"/><g><path d="m199.097 320.012c-1.977 0-3.955-.755-5.464-2.263l-12.294-12.294c-3.017-3.018-3.017-7.909 0-10.928 3.018-3.016 7.909-3.016 10.928 0l12.294 12.294c3.017 3.018 3.017 7.909 0 10.928-1.509 1.508-3.487 2.263-5.464 2.263z" fill="#e7ecf6"/></g><g><g><path d="m42.097 415.812c-1.977 0-3.955-.755-5.464-2.263-3.017-3.018-3.017-7.909 0-10.928l23.697-23.697c3.018-3.016 7.909-3.016 10.928 0 3.017 3.018 3.017 7.909 0 10.928l-23.697 23.697c-1.509 1.508-3.487 2.263-5.464 2.263z" fill="#95d6a4"/></g><g><path d="m66.551 440.264c-1.977 0-3.955-.755-5.464-2.263-3.017-3.018-3.017-7.909 0-10.928l23.696-23.696c3.018-3.016 7.909-3.016 10.928 0 3.017 3.018 3.017 7.909 0 10.928l-23.696 23.696c-1.509 1.509-3.487 2.263-5.464 2.263z" fill="#95d6a4"/></g><g><path d="m91.004 464.718c-1.977 0-3.955-.755-5.464-2.263-3.017-3.018-3.017-7.909 0-10.928l23.697-23.697c3.018-3.016 7.909-3.016 10.928 0 3.017 3.018 3.017 7.909 0 10.928l-23.697 23.697c-1.51 1.509-3.488 2.263-5.464 2.263z" fill="#95d6a4"/></g></g><circle cx="352.636" cy="299.992" fill="#e7ecf6" r="49.718"/><path d="m352.636 250.274c-3.786 0-7.468.437-11.011 1.239 22.157 5.012 38.707 24.807 38.707 48.479s-16.55 43.467-38.707 48.479c3.543.802 7.225 1.239 11.011 1.239 27.458 0 49.718-22.26 49.718-49.718s-22.26-49.718-49.718-49.718z" fill="#d8e2f1"/><circle cx="462.282" cy="211.066" fill="#e7ecf6" r="49.718"/><path d="m462.282 161.347c-3.786 0-7.468.437-11.011 1.239 22.157 5.012 38.707 24.807 38.707 48.479s-16.55 43.467-38.707 48.479c3.543.802 7.225 1.239 11.011 1.239 27.458 0 49.718-22.26 49.718-49.718s-22.26-49.718-49.718-49.718z" fill="#d8e2f1"/><g fill="#c3d5ef"><path d="m369.922 292.265h-9.56v-9.56c0-4.268-3.459-7.726-7.726-7.726s-7.726 3.459-7.726 7.726v9.56h-9.559c-4.268 0-7.726 3.459-7.726 7.726s3.459 7.726 7.726 7.726h9.559v9.56c0 4.268 3.459 7.726 7.726 7.726s7.726-3.459 7.726-7.726v-9.56h9.56c4.268 0 7.726-3.459 7.726-7.726s-3.458-7.726-7.726-7.726z"/><path d="m479.568 203.339h-9.56v-9.56c0-4.268-3.459-7.726-7.726-7.726-4.268 0-7.726 3.459-7.726 7.726v9.56h-9.559c-4.268 0-7.726 3.459-7.726 7.726 0 4.268 3.459 7.726 7.726 7.726h9.559v9.56c0 4.268 3.459 7.726 7.726 7.726 4.268 0 7.726-3.459 7.726-7.726v-9.56h9.56c4.268 0 7.726-3.459 7.726-7.726s-3.458-7.726-7.726-7.726z"/></g></g></svg>