<svg id="Capa_1" enable-background="new 0 0 512 512" height="512" viewBox="0 0 512 512" width="512" xmlns="http://www.w3.org/2000/svg"><g><path d="m245.176 164.072v234.716c0 15.997-12.968 28.965-28.965 28.965h-210.374c-3.224 0-5.837 2.613-5.837 5.837v36.025c0 3.224 2.613 5.837 5.837 5.837h210.374c42.34 0 76.664-34.324 76.664-76.664v-234.716z" fill="#c3d5ef"/><path d="m245.176 164.072v16.509h17.104c6.651 0 12.042 5.391 12.042 12.042v206.165c0 42.273-34.391 76.664-76.664 76.664h18.553c42.34 0 76.664-34.324 76.664-76.664v-234.716z" fill="#b7c8ea"/><path d="m408.966 116.374h-247.609c-21.221 0-38.423-17.203-38.423-38.423v-68.309c0-3.224-2.613-5.837-5.837-5.837h-36.025c-3.224 0-5.837 2.613-5.837 5.837v68.308c0 47.564 38.558 86.122 86.122 86.122h247.609c21.22 0 38.422 17.202 38.422 38.422v299.863c0 3.224 2.613 5.837 5.837 5.837h36.025c3.224 0 5.837-2.613 5.837-5.837v-299.862c0-47.564-38.558-86.121-86.121-86.121z" fill="#c3d5ef"/><g fill="#b7c8ea"><path d="m143.192 116.374h18.166c-21.186 0-38.423-17.237-38.423-38.423v-68.309c0-3.224-2.613-5.837-5.837-5.837h-12.329v74.145c0 21.221 17.202 38.424 38.423 38.424z"/><path d="m408.966 116.374h-18.166c47.488 0 86.121 38.633 86.121 86.121v305.699h12.329c3.224 0 5.837-2.613 5.837-5.837v-299.862c0-47.564-38.558-86.121-86.121-86.121z"/></g><g><g><path d="m134.265 53.426h-68.331c-4.204 0-7.611-3.407-7.611-7.611s3.407-7.611 7.611-7.611h68.331c4.204 0 7.611 3.407 7.611 7.611s-3.407 7.611-7.611 7.611z" fill="#365e7d"/></g><g><path d="m504.388 468.672h-66.301c-4.204 0-7.611-3.407-7.611-7.611s3.407-7.612 7.611-7.612h66.301c4.204 0 7.611 3.407 7.611 7.612s-3.407 7.611-7.611 7.611z" fill="#365e7d"/></g><g><path d="m504.388 263.612h-66.301c-4.204 0-7.611-3.407-7.611-7.611s3.407-7.611 7.611-7.611h66.301c4.204 0 7.611 3.407 7.611 7.611s-3.407 7.611-7.611 7.611z" fill="#365e7d"/></g><g><path d="m302.176 215.057h-66.301c-4.204 0-7.611-3.407-7.611-7.611s3.407-7.611 7.611-7.611h66.301c4.204 0 7.612 3.407 7.612 7.611s-3.408 7.611-7.612 7.611z" fill="#365e7d"/></g><g><path d="m302.176 380.728h-66.301c-4.204 0-7.611-3.407-7.611-7.611s3.407-7.612 7.611-7.612h66.301c4.204 0 7.612 3.407 7.612 7.612s-3.408 7.611-7.612 7.611z" fill="#365e7d"/></g><g><path d="m372.545 180.985c-4.204 0-7.611-3.407-7.611-7.611v-66.301c0-4.204 3.407-7.611 7.611-7.611s7.612 3.407 7.612 7.611v66.301c-.001 4.204-3.408 7.611-7.612 7.611z" fill="#365e7d"/></g><g><path d="m40.887 492.429c-4.204 0-7.611-3.407-7.611-7.612v-66.302c0-4.204 3.407-7.611 7.611-7.611s7.611 3.407 7.611 7.611v66.302c0 4.205-3.407 7.612-7.611 7.612z" fill="#365e7d"/></g><g><path d="m193.485 492.429c-4.204 0-7.611-3.407-7.611-7.612v-66.302c0-4.204 3.407-7.611 7.611-7.611s7.611 3.407 7.611 7.611v66.302c.001 4.205-3.407 7.612-7.611 7.612z" fill="#365e7d"/></g><g><path d="m187.598 180.985c-4.204 0-7.611-3.407-7.611-7.611v-66.301c0-4.204 3.407-7.611 7.611-7.611s7.611 3.407 7.611 7.611v66.301c.001 4.204-3.407 7.611-7.611 7.611z" fill="#365e7d"/></g></g><path d="m306.696 334.71h-75.34c-4.825 0-8.737-3.912-8.737-8.737v-71.385c0-4.825 3.912-8.737 8.737-8.737h75.34c4.825 0 8.737 3.912 8.737 8.737v71.385c0 4.825-3.912 8.737-8.737 8.737z" fill="#365e7d"/><path d="m306.696 245.851h-18.814c4.825 0 8.737 3.912 8.737 8.737v71.385c0 4.825-3.912 8.737-8.737 8.737h18.814c4.825 0 8.737-3.912 8.737-8.737v-71.385c0-4.825-3.912-8.737-8.737-8.737z" fill="#2b4d66"/><circle cx="269.025" cy="290.281" fill="#df6b57" r="25.913"/><path d="m269.025 264.367c-3.253 0-6.363.605-9.232 1.699 9.752 3.721 16.681 13.155 16.681 24.214 0 11.058-6.93 20.494-16.681 24.214 2.869 1.095 5.979 1.699 9.232 1.699 14.312 0 25.913-11.602 25.913-25.913.001-14.311-11.601-25.913-25.913-25.913z" fill="#dd544f"/></g></svg>