<svg id="Capa_1" enable-background="new 0 0 512 512" height="512" viewBox="0 0 512 512" width="512" xmlns="http://www.w3.org/2000/svg"><g><path d="m372.097 501.311c0 5.903-4.786 10.689-10.689 10.689h-210.815c-5.903 0-10.689-4.786-10.689-10.689v-147.929c0-37.416 30.332-67.747 67.748-67.747h96.699c37.416 0 67.747 30.332 67.747 67.747v147.929z" fill="#80b4fb"/><path d="m271.154 285.634c41.082 0 74.385 33.303 74.385 74.385v151.981h15.869c5.904 0 10.689-4.786 10.689-10.689v-147.929c0-37.416-30.332-67.747-67.748-67.747h-33.195z" fill="#61a2f9"/><path d="m186.797 277.062h25.993v106.364h-25.993z" fill="#365e7d"/><path d="m186.797 365.138h25.993v18.289h-25.993z" fill="#2b4d66"/><path d="m299.212 277.062h25.993v106.364h-25.993z" fill="#365e7d"/><path d="m299.212 365.138h25.993v18.289h-25.993z" fill="#2b4d66"/><path d="m186.797 383.427h138.408v128.574h-138.408z" fill="#e7ecf6"/><path d="m307.986 383.427h17.218v128.574h-17.218z" fill="#d8e2f1"/><g><g><path d="m215.323 416.791h-3.884c-4.204 0-7.611-3.407-7.611-7.611s3.407-7.612 7.611-7.612h3.884c4.204 0 7.611 3.407 7.611 7.612s-3.407 7.611-7.611 7.611z" fill="#365e7d"/></g><g><path d="m300.563 416.791h-3.884c-4.204 0-7.612-3.407-7.612-7.611s3.407-7.612 7.612-7.612h3.884c4.204 0 7.612 3.407 7.612 7.612s-3.408 7.611-7.612 7.611z" fill="#365e7d"/></g></g><g><path d="m296.679 491.935h-81.356c-4.204 0-7.611-3.407-7.611-7.611s3.407-7.612 7.611-7.612h81.356c4.204 0 7.611 3.407 7.611 7.612s-3.407 7.611-7.611 7.611z" fill="#365e7d"/></g><path d="m256.001 354.437c-11.127 0-20.147-9.02-20.147-20.147v-43.685h40.294v43.685c0 11.127-9.02 20.147-20.147 20.147z" fill="#365e7d"/><path d="m343.57 120.263-21.945 20.297h-129.922l-23.273-20.297v-10.205c0-48.364 39.206-87.57 87.57-87.57 48.364 0 87.57 39.206 87.57 87.57z" fill="#eab14d"/><path d="m256 22.487c-4.198 0-8.321.314-12.361.885 42.507 6.008 75.209 42.519 75.209 86.685v30.503l24.722-20.297v-10.206c0-48.364-39.206-87.57-87.57-87.57z" fill="#e49542"/><path d="m358.607 154.84h-205.214c-5.505 0-9.967-4.462-9.967-9.967v-14.644c0-5.505 4.462-9.967 9.967-9.967h205.214c5.505 0 9.967 4.462 9.967 9.967v14.644c0 5.505-4.462 9.967-9.967 9.967z" fill="#df6b57"/><path d="m358.315 120.263h-25.165c5.666 0 10.259 4.335 10.259 9.683v15.211c0 5.348-4.593 9.683-10.259 9.683h25.165c5.666 0 10.259-4.335 10.259-9.683v-15.211c0-5.348-4.593-9.683-10.259-9.683z" fill="#dd544f"/><g><path d="m256 42.829c-4.204 0-7.611-3.407-7.611-7.611v-27.607c-.001-4.204 3.407-7.611 7.611-7.611s7.612 3.407 7.612 7.611v27.606c-.001 4.204-3.408 7.612-7.612 7.612z" fill="#dd544f"/></g><g><g><path d="m222.467 43.167c-2.563 0-5.064-1.294-6.5-3.64l-7.994-13.068c-2.194-3.587-1.065-8.272 2.52-10.465 3.587-2.193 8.272-1.065 10.465 2.52l7.994 13.068c2.194 3.587 1.065 8.272-2.52 10.465-1.24.759-2.612 1.12-3.965 1.12z" fill="#dd544f"/></g><g><path d="m289.533 43.167c-1.355 0-2.725-.361-3.965-1.12-3.586-2.193-4.715-6.878-2.52-10.465l7.994-13.068c2.194-3.586 6.88-4.716 10.465-2.52 3.586 2.193 4.715 6.878 2.52 10.465l-7.994 13.068c-1.436 2.346-3.937 3.64-6.5 3.64z" fill="#dd544f"/></g></g><g><path d="m272.803 94.91h-33.605c-4.204 0-7.611-3.407-7.611-7.611s3.407-7.611 7.611-7.611h33.605c4.204 0 7.612 3.407 7.612 7.611s-3.408 7.611-7.612 7.611z" fill="#dd544f"/></g><path d="m256.001 317.492c-55.745 0-100.935-45.19-100.935-100.935v-61.717h201.87v61.718c0 55.744-45.191 100.934-100.935 100.934z" fill="#c3d5ef"/><path d="m155.066 154.84v17.953h161.15c11.922 0 21.588 9.665 21.588 21.588v22.177c0 52.518-40.112 95.661-91.369 100.481 3.15.296 6.339.454 9.566.454 55.745 0 100.935-45.19 100.935-100.935v-61.718z" fill="#b7c8ea"/><path d="m320.597 226.588h-129.193c-4.521 0-8.187-3.665-8.187-8.187v-19.468c0-4.521 3.665-8.187 8.187-8.187h129.193c4.521 0 8.187 3.665 8.187 8.187v19.468c0 4.521-3.666 8.187-8.187 8.187z" fill="#d3effb"/><path d="m320.597 190.746h-16.802c4.521 0 8.187 3.665 8.187 8.187v19.468c0 4.522-3.665 8.187-8.187 8.187h16.802c4.521 0 8.187-3.665 8.187-8.187v-19.468c0-4.521-3.666-8.187-8.187-8.187z" fill="#b1e4f9"/></g></svg>