<svg id="Capa_1" enable-background="new 0 0 512 512" height="512" viewBox="0 0 512 512" width="512" xmlns="http://www.w3.org/2000/svg"><g><path d="m208.625 364.404-11.874 27.156c-.328.75-1.069 1.234-1.887 1.234h-40.697c-.818 0-1.559-.485-1.887-1.234l-11.874-27.156c-.663-1.516-1.887-2.716-3.415-3.349l-36.899-15.284c-1.529-.633-3.243-.65-4.784-.047l-27.598 10.806c-.762.298-1.629.117-2.207-.461l-28.777-28.777c-.579-.579-.76-1.445-.461-2.207l10.806-27.598c.603-1.541.587-3.255-.047-4.783l-15.284-36.901c-.633-1.529-1.834-2.753-3.349-3.415l-27.157-11.874c-.749-.328-1.234-1.069-1.234-1.887v-40.697c0-.818.485-1.559 1.234-1.887l27.156-11.874c1.516-.663 2.716-1.887 3.349-3.415l15.284-36.899c.633-1.529.65-3.243.047-4.783l-10.806-27.598c-.298-.762-.117-1.629.461-2.207l28.777-28.777c.579-.579 1.445-.76 2.207-.461l27.598 10.806c1.541.603 3.255.587 4.784-.047l36.899-15.284c1.529-.633 2.753-1.834 3.415-3.349l11.874-27.156c.328-.75 1.069-1.234 1.887-1.234h40.697c.818 0 1.559.485 1.887 1.234l11.874 27.156c.663 1.516 1.887 2.716 3.415 3.349l36.899 15.284c1.529.633 3.243.65 4.783.047l27.598-10.806c.762-.298 1.629-.117 2.207.461l28.777 28.777c.579.579.76 1.445.461 2.207l-10.806 27.598c-.603 1.541-.587 3.255.047 4.783l15.284 36.899c.633 1.529 1.834 2.753 3.349 3.415l27.156 11.874c.75.328 1.234 1.069 1.234 1.887v40.697c0 .818-.485 1.559-1.234 1.887l-27.156 11.874c-1.516.663-2.716 1.887-3.349 3.415l-15.284 36.899c-.633 1.529-.65 3.243-.047 4.783l10.806 27.598c.298.762.117 1.629-.461 2.207l-28.777 28.777c-.579.579-1.445.76-2.207.461l-27.598-10.806c-1.541-.603-3.255-.587-4.783.047l-36.899 15.284c-1.527.634-2.751 1.835-3.414 3.351zm39.417-146.126c0-40.607-32.919-73.526-73.526-73.526s-73.526 32.919-73.526 73.526 32.919 73.526 73.526 73.526 73.526-32.918 73.526-73.526z" fill="#c3d5ef"/><g><path d="m317.292 180.754-15.284-36.899c-.633-1.529-.65-3.243-.047-4.783l10.806-27.598c.298-.762.117-1.629-.461-2.207l-28.777-28.777c-.579-.579-1.445-.76-2.207-.461l-19.896 7.79 20.376 20.376c3.104 3.104 4.075 7.751 2.475 11.839l-7.981 20.382c-1.041 2.659-1.012 5.617.08 8.255l13.852 33.441c1.093 2.638 3.164 4.75 5.78 5.894l20.055 8.769c4.022 1.759 6.621 5.732 6.621 10.121v28.939c0 4.39-2.599 8.363-6.621 10.121l-20.055 8.769c-2.616 1.144-4.688 3.256-5.78 5.894l-13.852 33.441c-1.093 2.638-1.121 5.596-.08 8.255l7.98 20.381c1.6 4.087.629 8.735-2.475 11.839l-15.942 15.942 15.463 6.054c.762.298 1.629.117 2.207-.461l28.777-28.777c.579-.579.76-1.445.461-2.207l-10.806-27.598c-.603-1.541-.587-3.255.047-4.784l15.284-36.899c.633-1.529 1.834-2.753 3.349-3.415l27.156-11.874c.75-.328 1.234-1.069 1.234-1.887v-40.699c0-.818-.485-1.559-1.234-1.887l-27.156-11.874c-1.516-.663-2.716-1.887-3.349-3.415z" fill="#b7c8ea"/></g><path d="m434.121 452.368-6.089 13.925c-.516 1.181-1.683 1.944-2.972 1.944h-19.839c-1.289 0-2.456-.763-2.972-1.944l-6.089-13.925c-.336-.769-.957-1.378-1.733-1.7l-20.707-8.577c-.776-.321-1.646-.33-2.427-.024l-14.152 5.541c-1.2.47-2.565.185-3.477-.727l-14.028-14.028c-.912-.912-1.197-2.276-.727-3.477l5.541-14.152c.306-.782.298-1.652-.024-2.427l-8.577-20.707c-.321-.776-.93-1.397-1.7-1.733l-13.925-6.089c-1.181-.516-1.944-1.683-1.944-2.972v-19.839c0-1.289.763-2.456 1.944-2.972l13.925-6.089c.769-.336 1.378-.957 1.7-1.733l8.577-20.707c.321-.776.33-1.646.024-2.427l-5.541-14.152c-.47-1.2-.185-2.565.727-3.477l14.028-14.028c.912-.912 2.276-1.197 3.477-.727l14.152 5.541c.782.306 1.652.298 2.427-.024l20.707-8.577c.776-.321 1.397-.93 1.733-1.7l6.089-13.925c.516-1.181 1.683-1.944 2.972-1.944h19.839c1.289 0 2.456.763 2.972 1.944l6.089 13.925c.336.769.957 1.378 1.733 1.7l20.707 8.577c.776.321 1.646.33 2.427.024l14.152-5.541c1.2-.47 2.565-.185 3.477.727l14.028 14.028c.912.912 1.197 2.276.727 3.477l-5.541 14.152c-.306.782-.298 1.652.024 2.427l8.577 20.707c.321.776.93 1.397 1.7 1.733l13.925 6.089c1.181.516 1.944 1.683 1.944 2.972v19.839c0 1.289-.763 2.456-1.944 2.972l-13.925 6.089c-.769.336-1.378.957-1.7 1.733l-8.577 20.707c-.321.776-.33 1.646-.024 2.427l5.541 14.152c.47 1.2.185 2.565-.727 3.477l-14.028 14.028c-.912.912-2.276 1.197-3.477.727l-14.152-5.541c-.782-.306-1.652-.298-2.427.024l-20.707 8.577c-.776.321-1.397.93-1.733 1.7zm21.828-80.991c0-22.538-18.271-40.809-40.809-40.809s-40.809 18.271-40.809 40.809 18.271 40.809 40.809 40.809 40.809-18.271 40.809-40.809z" fill="#c3d5ef"/><g><path d="m494.431 350.664-8.577-20.707c-.321-.776-.33-1.646-.024-2.427l5.541-14.152c.47-1.2.185-2.565-.727-3.477l-14.028-14.028c-.912-.912-2.276-1.197-3.477-.727l-12.558 4.917 6.752 6.752c2.786 2.786 3.659 6.958 2.222 10.627l-2.971 7.587c-.935 2.387-.909 5.042.072 7.41l6.521 15.743c.981 2.368 2.84 4.264 5.189 5.291l7.465 3.264c3.61 1.579 5.944 5.145 5.944 9.086v11.109c0 3.94-2.333 7.507-5.944 9.086l-7.465 3.264c-2.348 1.027-4.208 2.923-5.189 5.291l-6.521 15.743c-.981 2.368-1.007 5.024-.072 7.41l2.971 7.587c1.437 3.669.565 7.841-2.222 10.627l-6.752 6.752 12.558 4.917c1.2.47 2.565.185 3.477-.727l14.028-14.028c.912-.912 1.197-2.276.727-3.477l-5.541-14.152c-.306-.782-.298-1.652.024-2.427l8.577-20.706c.321-.776.93-1.397 1.7-1.733l13.925-6.089c1.181-.516 1.944-1.683 1.944-2.972v-19.839c0-1.289-.763-2.456-1.944-2.972l-13.925-6.089c-.77-.337-1.379-.959-1.7-1.734z" fill="#b7c8ea"/></g><g><g><path d="m174.516 123.273c-4.259 0-7.712-3.452-7.712-7.712v-9.79c0-4.26 3.453-7.712 7.712-7.712s7.712 3.452 7.712 7.712v9.79c0 4.259-3.453 7.712-7.712 7.712z" fill="#e7ecf6"/></g><g><path d="m247.148 153.359c-1.974 0-3.947-.753-5.453-2.258-3.012-3.012-3.012-7.895-.001-10.906l6.923-6.924c3.013-3.013 7.894-3.012 10.907-.001 3.012 3.012 3.012 7.895 0 10.906l-6.923 6.924c-1.506 1.505-3.479 2.259-5.453 2.259z" fill="#e7ecf6"/></g><g><path d="m287.024 225.99h-9.791c-4.26 0-7.712-3.452-7.712-7.712s3.452-7.712 7.712-7.712h9.791c4.26 0 7.712 3.452 7.712 7.712s-3.453 7.712-7.712 7.712z" fill="#e7ecf6"/></g><g><path d="m254.071 305.545c-1.974 0-3.947-.753-5.453-2.258l-6.923-6.923c-3.012-3.012-3.012-7.895-.001-10.906 3.013-3.013 7.894-3.012 10.907-.001l6.923 6.923c3.012 3.012 3.012 7.895 0 10.906-1.505 1.506-3.479 2.259-5.453 2.259z" fill="#e7ecf6"/></g><g><path d="m174.516 338.498c-4.259 0-7.712-3.452-7.712-7.712v-9.79c0-4.26 3.453-7.712 7.712-7.712s7.712 3.452 7.712 7.712v9.79c0 4.26-3.453 7.712-7.712 7.712z" fill="#e7ecf6"/></g><g><path d="m94.961 305.545c-1.974 0-3.947-.753-5.453-2.258-3.012-3.013-3.012-7.895 0-10.907l6.923-6.923c3.012-3.011 7.895-3.011 10.906 0 3.012 3.013 3.012 7.895 0 10.907l-6.923 6.923c-1.506 1.505-3.48 2.258-5.453 2.258z" fill="#e7ecf6"/></g><g><path d="m71.798 225.99h-9.79c-4.259 0-7.712-3.452-7.712-7.712s3.453-7.712 7.712-7.712h9.79c4.259 0 7.712 3.452 7.712 7.712s-3.453 7.712-7.712 7.712z" fill="#e7ecf6"/></g><g><path d="m101.884 153.359c-1.974 0-3.948-.753-5.454-2.259l-6.923-6.924c-3.012-3.012-3.011-7.895.001-10.906s7.895-3.012 10.906.001l6.923 6.924c3.012 3.012 3.011 7.895-.001 10.906-1.506 1.504-3.479 2.258-5.452 2.258z" fill="#e7ecf6"/></g></g></g></svg>