<svg id="Capa_1" enable-background="new 0 0 512 512" height="512" viewBox="0 0 512 512" width="512" xmlns="http://www.w3.org/2000/svg"><g><g><g><path d="m417.178 216.325c-4.143 0-7.5-3.357-7.5-7.5v-19.15c0-4.143 3.357-7.5 7.5-7.5s7.5 3.357 7.5 7.5v19.15c0 4.143-3.358 7.5-7.5 7.5z" fill="#2b4d66"/></g><g><path d="m94.823 216.325c-4.143 0-7.5-3.357-7.5-7.5v-19.15c0-4.143 3.357-7.5 7.5-7.5s7.5 3.357 7.5 7.5v19.15c0 4.143-3.357 7.5-7.5 7.5z" fill="#2b4d66"/></g></g><path d="m461.243 500.057h-410.485v-280.359c0-11.528 9.345-20.873 20.873-20.873h368.74c11.528 0 20.873 9.345 20.873 20.873v280.359z" fill="#80b4fb"/><path d="m440.37 198.825h-19.561c11.528 0 20.873 9.345 20.873 20.873v280.359h19.561v-280.359c0-11.528-9.345-20.873-20.873-20.873z" fill="#61a2f9"/><path d="m271.278 140.995-28.441 28.441-83.074-47.252c-.399-.227-.711-.582-.885-1.007l-40.946-99.857c-.314-.767-.138-1.647.448-2.233l14.042-14.042c.802-.802 2.104-.802 2.906 0z" fill="#e7ecf6"/><path d="m122.27 15.197 137.403 137.403 11.605-11.605-135.95-135.95c-.802-.802-2.104-.802-2.906 0z" fill="#d8e2f1"/><path d="m413.128 415.874h-85.633c-5.435 0-9.84-4.406-9.84-9.84v-42.605c0-5.435 4.406-9.84 9.84-9.84h85.633c5.435 0 9.84 4.406 9.84 9.84v42.605c.001 5.434-4.405 9.84-9.84 9.84z" fill="#e7ecf6"/><path d="m413.128 353.588h-16.23c5.435 0 9.84 4.406 9.84 9.84v42.605c0 5.435-4.406 9.84-9.84 9.84h16.23c5.435 0 9.84-4.405 9.84-9.84v-42.605c.001-5.434-4.405-9.84-9.84-9.84z" fill="#d8e2f1"/><path d="m238.439 163.142h35.122v306.207h-35.122z" fill="#c3d5ef"/><path d="m238.439 221.577c5.602 1.503 11.485 2.317 17.561 2.317s11.959-.814 17.561-2.317v-58.435h-35.122z" fill="#b7c8ea"/><path d="m271.278 171.55-28.441-28.441 47.252-83.074c.227-.399.582-.711 1.007-.885l99.858-40.946c.767-.314 1.647-.138 2.233.448l14.042 14.042c.802.802.802 2.104 0 2.906z" fill="#e7ecf6"/><path d="m397.076 22.543-137.403 137.402 11.605 11.605 135.95-135.95c.802-.802.802-2.104 0-2.906z" fill="#d8e2f1"/><path d="m240.722 171.55 28.441-28.441 83.074 47.252c.399.227.711.581.885 1.007l40.946 99.858c.314.767.138 1.647-.448 2.233l-14.042 14.041c-.802.802-2.104.802-2.906 0z" fill="#e7ecf6"/><path d="m389.73 297.348-137.403-137.403-11.605 11.605 135.95 135.95c.802.802 2.104.802 2.906 0z" fill="#d8e2f1"/><path d="m240.722 140.995 28.441 28.441-47.252 83.074c-.227.399-.582.711-1.007.885l-99.858 40.946c-.767.314-1.647.138-2.233-.448l-14.042-14.042c-.802-.802-.802-2.104 0-2.906z" fill="#e7ecf6"/><path d="m114.925 290.003 137.402-137.403-11.605-11.605-135.95 135.95c-.802.802-.802 2.104 0 2.906z" fill="#d8e2f1"/><path d="m354.082 500.057h-196.163v-19.819c0-6.014 4.875-10.889 10.889-10.889h174.386c6.014 0 10.889 4.875 10.889 10.889v19.819z" fill="#365e7d"/><path d="m343.194 469.349h-19.905c6.013 0 10.888 4.875 10.888 10.889v19.819h19.905v-19.819c0-6.014-4.875-10.889-10.888-10.889z" fill="#2b4d66"/><g><path d="m222.599 417.77h-93.613c-13.3 0-24.119-10.819-24.119-24.119v-22.721c0-4.143 3.357-7.5 7.5-7.5s7.5 3.357 7.5 7.5v22.721c0 5.028 4.091 9.119 9.119 9.119h93.613c4.143 0 7.5 3.357 7.5 7.5s-3.358 7.5-7.5 7.5z" fill="#2b4d66"/></g><circle cx="256" cy="156.273" fill="#df6b57" r="43.402"/><path d="m256 112.871c-4.5 0-8.839.685-12.92 1.956 17.66 5.5 30.481 21.975 30.481 41.446s-12.821 35.946-30.481 41.446c4.081 1.271 8.421 1.956 12.92 1.956 23.97 0 43.402-19.432 43.402-43.402s-19.432-43.402-43.402-43.402z" fill="#dd544f"/><path d="m238.439 432.009h-17.991c-4.335 0-7.849-3.514-7.849-7.849v-27.778c0-4.335 3.514-7.849 7.849-7.849h17.991z" fill="#e7ecf6"/><path d="m131.549 380.93h-38.366c-4.506 0-8.159-3.653-8.159-8.159v-38.367c0-4.506 3.653-8.159 8.159-8.159h38.367c4.506 0 8.159 3.653 8.159 8.159v38.367c-.001 4.506-3.654 8.159-8.16 8.159z" fill="#df6b57"/><path d="m131.549 326.246h-19.737c4.506 0 8.159 3.653 8.159 8.159v38.367c0 4.506-3.653 8.159-8.159 8.159h19.737c4.506 0 8.159-3.653 8.159-8.159v-38.367c0-4.506-3.653-8.159-8.159-8.159z" fill="#dd544f"/><g><path d="m504.5 507.557h-497c-4.143 0-7.5-3.357-7.5-7.5s3.357-7.5 7.5-7.5h497c4.143 0 7.5 3.357 7.5 7.5s-3.357 7.5-7.5 7.5z" fill="#95d6a4"/></g><g><path d="m117.525 361.088h-10.319c-4.143 0-7.5-3.357-7.5-7.5s3.357-7.5 7.5-7.5h10.319c4.143 0 7.5 3.357 7.5 7.5s-3.357 7.5-7.5 7.5z" fill="#2b4d66"/></g><g><path d="m392.771 392.231h-44.917c-4.143 0-7.5-3.357-7.5-7.5s3.357-7.5 7.5-7.5h44.917c4.143 0 7.5 3.357 7.5 7.5s-3.358 7.5-7.5 7.5z" fill="#df6b57"/></g></g></svg>