<svg id="Capa_1" enable-background="new 0 0 512 512" height="512" viewBox="0 0 512 512" width="512" xmlns="http://www.w3.org/2000/svg"><g><g><path d="m412.201 358.013c-4.143 0-7.5-3.357-7.5-7.5v-31.443c0-2.527-2.057-4.584-4.584-4.584h-70.68c-4.143 0-7.5-3.357-7.5-7.5s3.357-7.5 7.5-7.5h70.68c10.799 0 19.584 8.785 19.584 19.584v31.442c0 4.143-3.358 7.501-7.5 7.501z" fill="#c3d5ef"/></g><path d="m339.437 425.895h-313.3v-232.073c0-.655.312-1.271.841-1.658l154.596-113.162c.723-.529 1.705-.529 2.427 0l154.595 113.162c.529.387.841 1.003.841 1.658z" fill="#365e7d"/><path d="m184.001 79.002c-.723-.529-1.705-.529-2.427 0l-14.515 10.625 150.935 110.483c2.944 2.155 4.684 5.585 4.684 9.234v216.552h16.759v-232.074c0-.655-.312-1.271-.841-1.658z" fill="#2b4d66"/><path d="m485.863 425.895h-110.338v-79.877c0-3.041 2.465-5.506 5.506-5.506h99.326c3.041 0 5.506 2.465 5.506 5.506z" fill="#eab14d"/><path d="m480.357 340.512h-16.493c3.041 0 5.506 2.465 5.506 5.506v79.877h16.493v-79.877c0-3.04-2.466-5.506-5.506-5.506z" fill="#e49542"/><path d="m412.201 388.909h36.986v36.986h-36.986z" fill="#d3effb"/><path d="m434.194 388.909h14.993v36.986h-14.993z" fill="#b1e4f9"/><path d="m309.228 252.003c1.135 0 2.055.92 2.055 2.055v171.835h-256.99v-171.835c0-1.135.92-2.055 2.055-2.055z" fill="#e7ecf6"/><path d="m292.068 252.005v173.891h19.219v-171.837c0-1.135-.92-2.055-2.055-2.055h-17.164z" fill="#d8e2f1"/><path d="m311.286 299.486h-89.222c-10.799 0-19.584 8.785-19.584 19.584v42.677c0 4.143 3.358 7.5 7.5 7.5s7.5-3.357 7.5-7.5v-42.677c0-2.527 2.057-4.584 4.584-4.584h89.222z" fill="#c3d5ef"/><g><path d="m246.958 433.307c-4.142 0-7.5-3.357-7.5-7.5v-37.497c0-4.143 3.358-7.5 7.5-7.5s7.5 3.357 7.5 7.5v37.496c0 4.143-3.358 7.501-7.5 7.501z" fill="#365e7d"/></g><g><path d="m170.314 433.307c-4.142 0-7.5-3.357-7.5-7.5v-37.497c0-4.143 3.358-7.5 7.5-7.5s7.5 3.357 7.5 7.5v37.496c0 4.143-3.358 7.501-7.5 7.501z" fill="#365e7d"/></g><path d="m220.162 174.385c-.032-.564-.297-1.089-.729-1.454-.432-.364-.994-.534-1.555-.471l-32.453 3.669c-.337.038-.557-.343-.356-.616l19.296-26.126c.336-.454.469-1.026.37-1.583-.099-.556-.422-1.048-.894-1.358-6.047-3.968-13.28-6.279-21.053-6.279-7.774 0-15.006 2.311-21.054 6.279-.472.31-.796.801-.896 1.357-.099.556.035 1.128.371 1.583l19.296 26.125c.201.273-.019.654-.356.616l-32.452-3.668c-.561-.063-1.124.107-1.555.471-.432.364-.696.889-.729 1.453-.413 7.221 1.202 14.64 5.089 21.372s9.504 11.84 15.965 15.094c.505.254 1.092.289 1.623.097s.96-.595 1.185-1.113l13.156-30.184c.135-.311.576-.311.711 0l13.156 30.184c.226.518.654.92 1.185 1.113.531.192 1.118.157 1.623-.097 6.461-3.253 12.078-8.361 15.965-15.094 3.889-6.73 5.504-14.149 5.091-21.37z" fill="#eab14d"/><g><path d="m190.283 252.003v33.35c0 10.8-8.78 19.58-19.58 19.58h-116.41v-15h116.41c2.53 0 4.58-2.05 4.58-4.58v-33.35z" fill="#c3d5ef"/></g><g><path d="m96.483 341.453v84.44c-.05 4.11-3.39 7.41-7.5 7.41s-7.45-3.3-7.5-7.41v-84.44c0-2.53-2.05-4.59-4.58-4.59h-22.61v-15h22.61c10.8 0 19.58 8.79 19.58 19.59z" fill="#c3d5ef"/></g><g><path d="m311.283 273.203v15h-38.56c-10.8 0-19.59-8.79-19.59-19.59v-16.61h15v16.61c0 2.53 2.06 4.59 4.59 4.59z" fill="#c3d5ef"/></g><path d="m252.161 398.31h-84.361c-12.858 0-23.281-10.423-23.281-23.281 0-12.858 10.423-23.281 23.281-23.281h84.361c12.858 0 23.281 10.423 23.281 23.281.001 12.857-10.423 23.281-23.281 23.281z" fill="#eab14d"/><path d="m252.161 351.747h-22.194c12.858 0 23.281 10.423 23.281 23.281s-10.424 23.281-23.281 23.281h22.194c12.858 0 23.281-10.423 23.281-23.281s-10.423-23.281-23.281-23.281z" fill="#e49542"/><g><path d="m504.5 433.395h-497c-4.142 0-7.5-3.357-7.5-7.5s3.358-7.5 7.5-7.5h497c4.143 0 7.5 3.357 7.5 7.5s-3.357 7.5-7.5 7.5z" fill="#95d6a4"/></g></g></svg>