<svg id="Capa_1" enable-background="new 0 0 512.004 512.004" height="512" viewBox="0 0 512.004 512.004" width="512" xmlns="http://www.w3.org/2000/svg"><g><g fill="#2b4d66"><path d="m175.889 122.157c-3.814 0-7.104-2.861-7.552-6.741l-12.321-106.93c-.482-4.175 2.513-7.951 6.69-8.433 4.154-.48 7.951 2.513 8.433 6.691l12.322 106.93c.481 4.175-2.514 7.951-6.691 8.433-.295.033-.589.05-.881.05z"/><path d="m136.961 192.107c-3.366 0-6.444-2.25-7.351-5.657l-47.053-176.879c-1.08-4.062 1.337-8.232 5.399-9.312 4.06-1.084 8.23 1.337 9.312 5.399l47.053 176.879c1.08 4.062-1.337 8.231-5.399 9.312-.655.175-1.314.258-1.961.258z"/><path d="m336.114 122.157c-.291 0-.585-.017-.881-.051-4.176-.482-7.171-4.258-6.69-8.433l12.321-106.93c.483-4.176 4.254-7.173 8.433-6.691 4.176.482 7.171 4.258 6.691 8.433l-12.322 106.93c-.448 3.881-3.739 6.742-7.552 6.742z"/><path d="m375.043 192.107c-.648 0-1.306-.083-1.961-.258-4.062-1.081-6.48-5.25-5.399-9.312l47.052-176.879c1.081-4.062 5.255-6.478 9.312-5.399 4.062 1.08 6.48 5.25 5.399 9.312l-47.052 176.879c-.907 3.407-3.985 5.657-7.351 5.657z"/></g><path d="m273.245 386.474v-38.298h-34.528v53.195c0 9.535 7.729 17.264 17.264 17.264 16.223 0 29.421 13.198 29.421 29.42s-13.198 29.42-29.421 29.42c-16.222 0-29.42-13.198-29.42-29.42 0-5.161-2.309-10.05-6.294-13.331-3.984-3.279-9.225-4.602-14.292-3.611l-17.64 3.458c-9.357 1.835-15.455 10.906-13.62 20.263 1.833 9.357 10.907 15.45 20.263 13.62l.367-.072c8.512 25.327 32.478 43.62 60.636 43.62 35.262 0 63.949-28.687 63.949-63.948-.001-29.281-19.782-54.029-46.685-61.58z" fill="#365e7d"/><path d="m238.716 348.176v39.063h37.049c-.833-.272-1.673-.527-2.521-.765v-38.298z" fill="#2b4d66"/><path d="m385.591 190.638-76.329 146.777h-106.562l-2.255-4.338-1.375-23.772-16.893-11.36-22.238-42.772-3.276-23.693-15.002-11.439-15.289-29.403c-5.017-9.646-4.262-21.289 1.953-30.212l34.226-49.106c5.46-7.855 14.426-12.527 23.986-12.527h76.372l24.59 8.908 28.821-8.908h9.107c9.56 0 18.526 4.672 23.986 12.527l7.963 11.427 3.015 20.19 18.921 11.285 4.327 6.204c6.214 8.923 6.969 20.566 1.952 30.212z" fill="#eab14d"/><path d="m383.638 160.426-4.327-6.204-18.921-11.285-3.015-20.189-7.963-11.427c-5.46-7.855-14.426-12.527-23.986-12.527h-9.107l-4.754 1.15 1.07 2.529c3.84 2.133 7.205 5.135 9.786 8.848l7.963 11.427 21.936 31.475 4.327 6.204c6.215 8.923 6.97 20.566 1.953 30.212l-76.329 146.777h26.991l76.329-146.777c5.017-9.647 4.262-21.29-1.953-30.213z" fill="#e49542"/><path d="m320.54 368.474h-129.118c-3.758 0-6.805-3.047-6.805-6.805v-17.446c0-3.759 3.047-6.805 6.805-6.805h129.118c3.758 0 6.805 3.047 6.805 6.805v17.446c0 3.758-3.047 6.805-6.805 6.805z" fill="#c3d5ef"/><path d="m320.54 337.417h-19.819c3.758 0 6.805 3.047 6.805 6.805v17.446c0 3.758-3.047 6.805-6.805 6.805h19.819c3.759 0 6.805-3.047 6.805-6.805v-17.446c0-3.758-3.047-6.805-6.805-6.805z" fill="#b7c8ea"/><path d="m379.311 154.222-178.867 178.855-18.267-35.132 175.198-175.198z" fill="#e7ecf6"/><path d="m357.375 122.747-15.906 15.906 10.851 15.569 4.327 6.204c2.476 3.555 4.07 7.545 4.793 11.665l17.871-17.87z" fill="#d8e2f1"/><path d="m316.319 98.793h-53.411l-121.248 121.248 18.279 35.132z" fill="#e7ecf6"/><path d="m298.434 98.793c5.041 0 9.911 1.31 14.195 3.69l3.69-3.69z" fill="#d8e2f1"/></g></svg>