<svg id="Capa_1" enable-background="new 0 0 512 512" height="512" viewBox="0 0 512 512" width="512" xmlns="http://www.w3.org/2000/svg"><g><g><g><path d="m342.014 139.237c-4.143 0-7.5-3.357-7.5-7.5v-37.169c0-4.143 3.357-7.5 7.5-7.5s7.5 3.357 7.5 7.5v37.169c0 4.143-3.358 7.5-7.5 7.5z" fill="#365e7d"/></g><g><path d="m43.021 139.237c-4.143 0-7.5-3.357-7.5-7.5v-37.169c0-4.143 3.357-7.5 7.5-7.5s7.5 3.357 7.5 7.5v37.169c0 4.143-3.357 7.5-7.5 7.5z" fill="#365e7d"/></g></g><path d="m360.751 183.687-19.091-20h-298.639l-18.737 20v46.776l18.737 20h298.992l18.738-20z" fill="#365e7d"/><path d="m341.66 163.687v86.776l19.091-20v-46.776z" fill="#2b4d66"/><path d="m360.751 302.412-19.091-20h-298.639l-18.737 20v46.776l18.737 20h298.639l19.091-20z" fill="#365e7d"/><path d="m341.66 282.412v86.776l19.091-20v-46.776z" fill="#2b4d66"/><path d="m24.284 349.188h336.467v155.312h-336.467z" fill="#e7ecf6"/><path d="m341.66 349.188h19.091v155.312h-19.091z" fill="#d8e2f1"/><path d="m24.284 230.463h336.467v71.949h-336.467z" fill="#d3effb"/><path d="m341.66 230.463h19.091v71.949h-19.091z" fill="#b1e4f9"/><path d="m360.751 183.687h-336.467v-68.047c0-2.155 1.747-3.902 3.902-3.902h328.664c2.155 0 3.902 1.747 3.902 3.902v68.047z" fill="#d3effb"/><path d="m341.66 111.738v71.95h19.091v-68.048c0-2.155-1.747-3.902-3.902-3.902z" fill="#b1e4f9"/><path d="m487.715 504.5h-80.091v-345.218c0-2.986 2.421-5.407 5.407-5.407h69.278c2.986 0 5.407 2.421 5.407 5.407v345.218z" fill="#e7ecf6"/><path d="m470.824 153.876v350.624h16.891v-345.218c0-2.986-2.421-5.407-5.407-5.407h-11.484z" fill="#d8e2f1"/><path d="m147.775 504.5h-85.568v-80.511c0-5.407 4.383-9.79 9.79-9.79h65.987c5.407 0 9.79 4.383 9.79 9.79v80.511z" fill="#d3effb"/><path d="m137.985 414.199h-19.186c5.407 0 9.79 4.383 9.79 9.791v80.51h19.186v-80.51c0-5.408-4.383-9.791-9.79-9.791z" fill="#b1e4f9"/><path d="m320.901 462.089h-108.825c-4.178 0-7.566-3.387-7.566-7.566v-32.759c0-4.178 3.387-7.566 7.566-7.566h108.825c4.178 0 7.566 3.387 7.566 7.566v32.759c-.001 4.179-3.388 7.566-7.566 7.566z" fill="#365e7d"/><g fill="#80b4fb"><path d="m253.334 504.5h-27.542v-54.832c0-7.605 6.165-13.771 13.771-13.771 7.605 0 13.771 6.165 13.771 13.771z"/><path d="m307.184 504.5h-27.542v-54.832c0-7.605 6.165-13.771 13.771-13.771 7.605 0 13.771 6.165 13.771 13.771z"/></g><g><g><path d="m91.577 309.912c-4.143 0-7.5-3.357-7.5-7.5v-71.949c0-4.143 3.357-7.5 7.5-7.5s7.5 3.357 7.5 7.5v71.949c0 4.143-3.357 7.5-7.5 7.5z" fill="#b1e4f9"/></g><g><path d="m158.87 309.912c-4.143 0-7.5-3.357-7.5-7.5v-71.949c0-4.143 3.357-7.5 7.5-7.5s7.5 3.357 7.5 7.5v71.949c0 4.143-3.357 7.5-7.5 7.5z" fill="#b1e4f9"/></g><g><path d="m226.164 309.912c-4.143 0-7.5-3.357-7.5-7.5v-71.949c0-4.143 3.357-7.5 7.5-7.5s7.5 3.357 7.5 7.5v71.949c0 4.143-3.357 7.5-7.5 7.5z" fill="#b1e4f9"/></g><g><path d="m293.458 309.912c-4.143 0-7.5-3.357-7.5-7.5v-71.949c0-4.143 3.357-7.5 7.5-7.5s7.5 3.357 7.5 7.5v71.949c0 4.143-3.357 7.5-7.5 7.5z" fill="#b1e4f9"/></g></g><g><g><path d="m91.577 191.188c-4.143 0-7.5-3.357-7.5-7.5v-71.95c0-4.143 3.357-7.5 7.5-7.5s7.5 3.357 7.5 7.5v71.95c0 4.142-3.357 7.5-7.5 7.5z" fill="#b1e4f9"/></g><g><path d="m158.87 191.188c-4.143 0-7.5-3.357-7.5-7.5v-71.95c0-4.143 3.357-7.5 7.5-7.5s7.5 3.357 7.5 7.5v71.95c0 4.142-3.357 7.5-7.5 7.5z" fill="#b1e4f9"/></g><g><path d="m226.164 191.188c-4.143 0-7.5-3.357-7.5-7.5v-71.95c0-4.143 3.357-7.5 7.5-7.5s7.5 3.357 7.5 7.5v71.95c0 4.142-3.357 7.5-7.5 7.5z" fill="#b1e4f9"/></g><g><path d="m293.458 191.188c-4.143 0-7.5-3.357-7.5-7.5v-71.95c0-4.143 3.357-7.5 7.5-7.5s7.5 3.357 7.5 7.5v71.95c0 4.142-3.357 7.5-7.5 7.5z" fill="#b1e4f9"/></g></g><g><path d="m496.975 194.575h-98.609c-4.143 0-7.5-3.357-7.5-7.5s3.357-7.5 7.5-7.5h98.609c4.143 0 7.5 3.357 7.5 7.5s-3.358 7.5-7.5 7.5z" fill="#80b4fb"/></g><path d="m360.751 402.294h46.873v31.904h-46.873z" fill="#365e7d"/><path d="m407.624 241.532h80.058v87.656h-80.058z" fill="#80b4fb"/><path d="m407.624 241.532h80.058v87.656h-80.058z" fill="#80b4fb"/><path d="m470.824 241.532h16.858v87.656h-16.858z" fill="#61a2f9"/><path d="m407.624 416.844h80.058v87.656h-80.058z" fill="#80b4fb"/><path d="m470.824 416.844h16.858v87.656h-16.858z" fill="#61a2f9"/><g><path d="m433.778 137.634c-4.143 0-7.5-3.357-7.5-7.5v-12.739c0-3.717-3.024-6.741-6.741-6.741h-6.931c-11.988 0-21.741-9.754-21.741-21.742v-81.412c0-4.143 3.357-7.5 7.5-7.5s7.5 3.357 7.5 7.5v81.411c0 3.718 3.024 6.742 6.741 6.742h6.931c11.988 0 21.741 9.753 21.741 21.741v12.739c0 4.143-3.357 7.501-7.5 7.501z" fill="#d8e2f1"/></g><g><path d="m458.988 137.634c-4.143 0-7.5-3.357-7.5-7.5v-50.935c0-11.988 9.753-21.741 21.741-21.741h4.104c3.718 0 6.742-3.024 6.742-6.742v-43.216c0-4.143 3.357-7.5 7.5-7.5s7.5 3.357 7.5 7.5v43.216c0 11.988-9.754 21.742-21.742 21.742h-4.104c-3.717 0-6.741 3.024-6.741 6.741v50.935c0 4.142-3.357 7.5-7.5 7.5z" fill="#d8e2f1"/></g><g><path d="m420.866 56.471c-4.143 0-7.5-3.357-7.5-7.5v-41.471c0-4.143 3.357-7.5 7.5-7.5s7.5 3.357 7.5 7.5v41.471c0 4.142-3.357 7.5-7.5 7.5z" fill="#d8e2f1"/></g><g><path d="m458.988 46.471c-4.143 0-7.5-3.357-7.5-7.5v-16.602c0-4.143 3.357-7.5 7.5-7.5s7.5 3.357 7.5 7.5v16.602c0 4.142-3.357 7.5-7.5 7.5z" fill="#d8e2f1"/></g><g><path d="m433.778 88.271c-4.143 0-7.5-3.357-7.5-7.5v-11.955c0-4.143 3.357-7.5 7.5-7.5s7.5 3.357 7.5 7.5v11.955c0 4.143-3.357 7.5-7.5 7.5z" fill="#d8e2f1"/></g><g><path d="m479.519 123.633c-4.143 0-7.5-3.357-7.5-7.5v-12.979c0-4.143 3.357-7.5 7.5-7.5s7.5 3.357 7.5 7.5v12.979c0 4.142-3.358 7.5-7.5 7.5z" fill="#d8e2f1"/></g><g><path d="m504.5 512h-497c-4.143 0-7.5-3.357-7.5-7.5s3.357-7.5 7.5-7.5h497c4.143 0 7.5 3.357 7.5 7.5s-3.357 7.5-7.5 7.5z" fill="#95d6a4"/></g></g></svg>