<svg id="Capa_1" enable-background="new 0 0 512 512" height="512" viewBox="0 0 512 512" width="512" xmlns="http://www.w3.org/2000/svg"><g><path d="m445.399 237.56c36.081-36.081 46.683-87.984 31.824-133.372-.619-1.891-3.02-2.466-4.427-1.059l-61.545 61.545c-1.273 1.273-3.129 1.771-4.869 1.305l-55.943-14.99c-1.739-.466-3.098-1.825-3.564-3.564l-14.99-55.943c-.466-1.739.031-3.596 1.305-4.869l61.545-61.545c1.407-1.407.832-3.808-1.059-4.427-45.389-14.859-97.292-4.256-133.372 31.824-32.385 32.385-44.246 77.517-35.59 119.244 4.089 19.715-2.471 40.122-17.557 53.457l-185.654 164.097c-27.257 23.43-28.829 65.095-3.413 90.511 25.416 25.416 67.081 23.845 90.51-3.413l164.098-185.653c13.335-15.086 33.741-21.647 53.457-17.557 41.727 8.654 86.859-3.206 119.244-35.591z" fill="#e7ecf6"/><path d="m472.796 103.128-8.975 8.975c3.976 37.908-8.556 77.218-37.608 106.27-32.385 32.385-77.517 44.246-119.244 35.59-19.715-4.089-40.122 2.471-53.457 17.557l-164.098 185.654c-20.386 23.717-54.574 27.976-79.855 11.943 2.393 3.774 5.229 7.354 8.531 10.656 25.416 25.416 67.081 23.845 90.51-3.413 0 0 164.098-185.653 164.098-185.653 13.335-15.086 33.741-21.647 53.457-17.557 41.727 8.655 86.859-3.205 119.244-35.59 36.081-36.081 46.683-87.984 31.824-133.373-.618-1.891-3.02-2.466-4.427-1.059z" fill="#d8e2f1"/><g><g><path d="m270.84 171.542c-1.978 0-3.955-.755-5.464-2.264-3.017-3.017-3.017-7.909.001-10.927l8.491-8.49c3.017-3.017 7.909-3.016 10.927.001 3.017 3.017 3.017 7.909-.001 10.927l-8.491 8.49c-1.509 1.509-3.486 2.263-5.463 2.263z" fill="#d8e2f1"/></g><g><path d="m291.909 192.612c-1.977 0-3.955-.755-5.463-2.263-3.018-3.017-3.018-7.909-.001-10.927l8.49-8.491c3.018-3.018 7.91-3.017 10.927-.001 3.018 3.017 3.018 7.909.001 10.927l-8.49 8.491c-1.509 1.509-3.487 2.264-5.464 2.264z" fill="#d8e2f1"/></g><g><path d="m312.979 213.681c-1.977 0-3.955-.755-5.463-2.263-3.018-3.017-3.018-7.909-.001-10.927l8.49-8.491c3.018-3.018 7.91-3.017 10.927-.001 3.018 3.017 3.018 7.909.001 10.927l-8.49 8.491c-1.51 1.509-3.488 2.264-5.464 2.264z" fill="#d8e2f1"/></g><g><path d="m334.047 234.75c-1.977 0-3.955-.755-5.464-2.263-3.017-3.018-3.017-7.909 0-10.928l8.491-8.491c3.018-3.016 7.909-3.016 10.928 0 3.017 3.018 3.017 7.909 0 10.928l-8.491 8.491c-1.509 1.509-3.487 2.263-5.464 2.263z" fill="#d8e2f1"/></g></g><g><path d="m47.261 458.328c-1.978 0-3.955-.755-5.464-2.264-3.017-3.017-3.017-7.909.001-10.927l14.256-14.255c3.017-3.017 7.909-3.016 10.927.001 3.017 3.017 3.017 7.909-.001 10.927l-14.256 14.255c-1.508 1.509-3.486 2.263-5.463 2.263z" fill="#d8e2f1"/></g><path d="m507.481 317.298-46.159-26.65c-2.796-1.614-6.242-1.614-9.038 0l-46.16 26.65c-2.796 1.614-4.519 4.598-4.519 7.827v53.301c0 3.229 1.723 6.213 4.519 7.827l46.16 26.65c2.796 1.614 6.242 1.614 9.038 0l46.159-26.65c2.796-1.614 4.519-4.598 4.519-7.827v-53.301c0-3.229-1.723-6.213-4.519-7.827zm-50.679 55.27c-11.483 0-20.793-9.309-20.793-20.793 0-11.483 9.309-20.792 20.793-20.792 11.483 0 20.792 9.309 20.792 20.792.001 11.483-9.308 20.793-20.792 20.793z" fill="#365e7d"/><path d="m347.739 379.636-46.159-26.65c-2.796-1.614-6.242-1.614-9.038 0l-46.16 26.65c-2.796 1.614-4.519 4.598-4.519 7.827v53.301c0 3.229 1.723 6.213 4.519 7.827l46.16 26.65c2.796 1.614 6.242 1.614 9.038 0l46.159-26.65c2.796-1.614 4.519-4.598 4.519-7.827v-53.301c0-3.229-1.722-6.212-4.519-7.827zm-50.678 55.27c-11.483 0-20.793-9.309-20.793-20.793 0-11.483 9.309-20.792 20.793-20.792s20.792 9.309 20.792 20.792c0 11.484-9.309 20.793-20.792 20.793z" fill="#365e7d"/><g fill="#2b4d66"><path d="m507.481 317.298-46.159-26.65c-2.797-1.614-6.242-1.614-9.038 0l-8.142 4.701 38.017 21.95c2.796 1.614 4.519 4.598 4.519 7.827v53.301c0 3.229-1.723 6.213-4.519 7.827l-38.017 21.949 8.142 4.701c2.796 1.614 6.241 1.614 9.038 0l46.159-26.65c2.796-1.614 4.519-4.598 4.519-7.827v-53.301c0-3.23-1.723-6.214-4.519-7.828z"/><path d="m347.739 379.636-46.159-26.65c-2.796-1.614-6.242-1.614-9.038 0l-8.142 4.701 38.017 21.949c2.797 1.614 4.519 4.598 4.519 7.827v53.301c0 3.229-1.722 6.213-4.519 7.827l-38.017 21.949 8.142 4.701c2.796 1.614 6.242 1.614 9.038 0l46.159-26.65c2.797-1.614 4.519-4.598 4.519-7.827v-53.301c0-3.229-1.722-6.212-4.519-7.827z"/></g></g></svg>