<svg id="Capa_1" enable-background="new 0 0 513.307 513.307" height="512" viewBox="0 0 513.307 513.307" width="512" xmlns="http://www.w3.org/2000/svg"><g><path d="m369.878 256.036h-307.401l35.767-148.372c2.709-11.237 12.763-19.155 24.322-19.155h187.224c11.559 0 21.613 7.918 24.322 19.155z" fill="#b3e59f"/><path d="m324.286 194.751c-2.265 2.628-5.562 4.14-9.032 4.14h-198.153c-3.47 0-6.767-1.511-9.032-4.14l-24.082-27.948-21.51 89.232h307.401l-21.51-89.231z" fill="#95d6a4"/><path d="m363.921 175.891c-.598 0-1.166.26-1.557.713l-33.239 38.573c-.39.453-.959.713-1.557.713h-222.782c-.598 0-1.166-.26-1.557-.713l-33.239-38.573c-.39-.453-.959-.713-1.557-.713h-44.392c-1.135 0-2.055.92-2.055 2.055v239.352h388.382v-239.352c0-1.135-.92-2.055-2.055-2.055z" fill="#e7ecf6"/><g><path d="m390.75 175.891v241.407h19.618v-239.352c0-1.135-.92-2.055-2.055-2.055z" fill="#d8e2f1"/></g><path d="m196.559 417.297h-134.082v-65.657c0-4.423 3.586-8.009 8.009-8.009h118.064c4.424 0 8.009 3.586 8.009 8.009z" fill="#d3effb"/><path d="m188.55 343.631h-16.63c4.424 0 8.01 3.586 8.01 8.01v65.657h16.63v-65.657c-.001-4.424-3.586-8.01-8.01-8.01z" fill="#b1e4f9"/><g><path d="m151.593 423.797c-4.143 0-7.5-2.357-7.5-6.5v-73.666c0-4.143 3.357-7.5 7.5-7.5s7.5 3.357 7.5 7.5v73.666c0 4.143-3.358 6.5-7.5 6.5z" fill="#b1e4f9"/></g><g><path d="m107.444 423.797c-4.143 0-7.5-2.357-7.5-6.5v-73.666c0-4.143 3.357-7.5 7.5-7.5s7.5 3.357 7.5 7.5v73.666c0 4.143-3.357 6.5-7.5 6.5z" fill="#b1e4f9"/></g><path d="m448.014 361.115v56.183h42v-56.183c0-29.529-24.023-53.553-53.553-53.553h-26.093v42h26.093c6.37 0 11.553 5.183 11.553 11.553z" fill="#df6b57"/><path d="m410.368 307.562h18.102v42h-18.102z" fill="#dd544f"/><path d="m178.636 137.199c.225-.058.448-.119.675-.172 4.032-.945 6.535-4.98 5.59-9.014-.944-4.033-4.979-6.527-9.014-5.59-5.65 1.324-10.783 3.571-15.431 6.428.057-1.751.289-3.511.808-5.071 1.307-3.93-.82-8.176-4.751-9.483-3.929-1.306-8.177.82-9.483 4.751-2.774 8.341-1.257 17.544-.422 21.308-.9.965-1.77 1.948-2.612 2.942.036-.159.078-.316.139-.465 1.575-3.831-.254-8.213-4.085-9.788-3.826-1.573-8.213.253-9.788 4.085-2.354 5.728-1.656 12.11 2.021 18.459.484.835.988 1.611 1.488 2.325-6.774 11.656-9.965 21.79-10.243 22.699-1.214 3.957 1.008 8.144 4.962 9.363.735.227 1.479.334 2.209.334 3.203 0 6.17-2.069 7.166-5.288.071-.23 4.149-13.088 12.666-25.56 1.743.731 3.973 2.201 5.449 5.151 1.314 2.628 3.963 4.147 6.714 4.147 1.127 0 2.271-.256 3.349-.794 3.705-1.853 5.206-6.357 3.354-10.062-2.341-4.681-5.649-7.925-9.044-10.12 1.103-1.041 2.248-2.039 3.436-2.982 1.754.691 4.177 2.159 5.725 5.254 1.313 2.629 3.962 4.148 6.714 4.148 1.127 0 2.271-.256 3.348-.794 3.705-1.852 5.207-6.356 3.354-10.062-1.214-2.417-2.688-4.441-4.294-6.149z" fill="#eab14d"/><g><g><path d="m288.812 141.842h-58.824c-4.143 0-7.5-3.357-7.5-7.5s3.357-7.5 7.5-7.5h58.824c4.143 0 7.5 3.357 7.5 7.5s-3.357 7.5-7.5 7.5z" fill="#2b4d66"/></g><g><path d="m302.623 177.386h-86.445c-4.143 0-7.5-3.357-7.5-7.5s3.357-7.5 7.5-7.5h86.445c4.143 0 7.5 3.357 7.5 7.5s-3.357 7.5-7.5 7.5z" fill="#2b4d66"/></g></g><path d="m93.577 298.556h-26.866c-2.546 0-4.61-2.064-4.61-4.61v-32.497c0-2.546 2.064-4.61 4.61-4.61h26.867c2.546 0 4.61 2.064 4.61 4.61v32.497c0 2.546-2.065 4.61-4.611 4.61z" fill="#d3effb"/><path d="m93.577 256.838h-14.038c2.546 0 4.61 2.064 4.61 4.61v32.497c0 2.546-2.064 4.61-4.61 4.61h14.038c2.546 0 4.61-2.064 4.61-4.61v-32.497c.001-2.546-2.064-4.61-4.61-4.61z" fill="#b1e4f9"/><path d="m155.611 298.556h-26.867c-2.546 0-4.61-2.064-4.61-4.61v-32.497c0-2.546 2.064-4.61 4.61-4.61h26.867c2.546 0 4.61 2.064 4.61 4.61v32.497c.001 2.546-2.064 4.61-4.61 4.61z" fill="#d3effb"/><path d="m155.611 256.838h-14.038c2.546 0 4.61 2.064 4.61 4.61v32.497c0 2.546-2.064 4.61-4.61 4.61h14.038c2.546 0 4.61-2.064 4.61-4.61v-32.497c.001-2.546-2.064-4.61-4.61-4.61z" fill="#b1e4f9"/><path d="m303.61 298.556h-26.867c-2.546 0-4.61-2.064-4.61-4.61v-32.497c0-2.546 2.064-4.61 4.61-4.61h26.867c2.546 0 4.61 2.064 4.61 4.61v32.497c.001 2.546-2.064 4.61-4.61 4.61z" fill="#d3effb"/><path d="m303.61 256.838h-14.038c2.546 0 4.61 2.064 4.61 4.61v32.497c0 2.546-2.064 4.61-4.61 4.61h14.038c2.546 0 4.61-2.064 4.61-4.61v-32.497c.001-2.546-2.064-4.61-4.61-4.61z" fill="#b1e4f9"/><path d="m365.644 298.556h-26.867c-2.546 0-4.61-2.064-4.61-4.61v-32.497c0-2.546 2.064-4.61 4.61-4.61h26.867c2.546 0 4.61 2.064 4.61 4.61v32.497c.001 2.546-2.064 4.61-4.61 4.61z" fill="#d3effb"/><path d="m365.644 256.838h-14.038c2.546 0 4.61 2.064 4.61 4.61v32.497c0 2.546-2.064 4.61-4.61 4.61h14.038c2.546 0 4.61-2.064 4.61-4.61v-32.497c.001-2.546-2.064-4.61-4.61-4.61z" fill="#b1e4f9"/><g><path d="m505.807 424.798h-498.307c-4.143 0-7.5-3.357-7.5-7.5s3.357-7.5 7.5-7.5h498.307c4.143 0 7.5 3.357 7.5 7.5s-3.358 7.5-7.5 7.5z" fill="#95d6a4"/></g></g></svg>