<svg id="Capa_1" enable-background="new 0 0 512 512" height="512" viewBox="0 0 512 512" width="512" xmlns="http://www.w3.org/2000/svg"><g><path d="m82.482 170.875h144.979v100.652h-144.979z" fill="#e7ecf6"/><path d="m190.824 170.875h18.617v100.652h-18.617z" fill="#d8e2f1"/><path d="m288.406 179.993h-42.925v82.414h42.925c11.893 0 21.568 9.675 21.568 21.567v69.356c0 22.759 18.449 41.207 41.207 41.207s41.207-18.449 41.207-41.207v-69.356c.001-57.335-46.646-103.981-103.982-103.981z" fill="#b3e59f"/><path d="m288.406 179.993h-42.925v82.414h19.05v-46.712c0-9.788 7.935-17.722 17.722-17.722 49.016 0 88.751 39.735 88.751 88.751v15.006c0 12.912-10.404 23.493-23.316 23.524-.098 0-.196 0-.295 0-18.101 0-28.239-3.987-37.42-8.453v36.529c0 7.996 2.284 15.454 6.225 21.773 2.676 3.165 12.087 19.696 35.538 19.431 22.591-.255 40.651-18.93 40.651-41.522v-69.037c.002-57.427-46.553-103.982-103.981-103.982z" fill="#95d6a4"/><path d="m100.502 417.876h-97.963c-1.402 0-2.539-1.137-2.539-2.539v-285.936h100.502z" fill="#365e7d"/><path d="m0 129.4v18.408h58.933c9.939 0 17.996 8.057 17.996 17.996v252.071h23.573v-288.475z" fill="#2b4d66"/><path d="m123.685 103.923c0-5.411-4.387-9.798-9.798-9.798h-111.348c-1.402-.001-2.539 1.136-2.539 2.539v32.737h113.887c5.411 0 9.798-4.387 9.798-9.798z" fill="#c3d5ef"/><path d="m113.887 94.124h-23.183c5.411 0 9.798 4.387 9.798 9.798v15.68c0 5.411-4.387 9.798-9.798 9.798h23.183c5.412 0 9.798-4.387 9.798-9.798v-15.68c0-5.411-4.387-9.798-9.798-9.798z" fill="#b7c8ea"/><path d="m100.502 323.453c41.149 0 41.149 20.604 82.298 20.604 41.148 0 41.148-20.604 82.296-20.604 41.149 0 41.149 20.604 82.299 20.604 41.151 0 41.151-20.604 82.303-20.604 35.273 0 40.311 15.137 66.946 19.462 8.892 1.444 15.357 9.243 15.357 18.252v54.17c0 1.402-1.137 2.539-2.539 2.539h-408.96z" fill="#b3e59f"/><g><path d="m429.697 323.452c-18.945 0-29.168 4.367-38.7 9.08 5.856.746 12.79 1.221 21.625 1.221 34.266 0 39.999 14.285 64.717 19.066 10.219 1.977 17.586 10.955 17.586 21.364v43.691h14.536c1.402 0 2.539-1.137 2.539-2.539v-54.169c0-9.009-6.465-16.808-15.357-18.252-26.634-4.324-31.673-19.462-66.946-19.462z" fill="#95d6a4"/></g><g><path d="m176.33 214.687h-40.415c-4.268 0-7.726-3.459-7.726-7.726s3.459-7.726 7.726-7.726h40.415c4.268 0 7.726 3.459 7.726 7.726s-3.459 7.726-7.726 7.726z" fill="#eab14d"/></g><g><path d="m176.33 243.166h-40.415c-4.268 0-7.726-3.459-7.726-7.726s3.459-7.726 7.726-7.726h40.415c4.268 0 7.726 3.459 7.726 7.726s-3.459 7.726-7.726 7.726z" fill="#eab14d"/></g><g><g><path d="m333.49 275.916c-2.898 0-5.676-1.639-6.994-4.434-5.333-11.314-15.211-19.95-27.101-23.691-4.07-1.282-6.331-5.62-5.05-9.69 1.281-4.069 5.618-6.329 9.69-5.05 15.99 5.033 29.272 16.639 36.439 31.842 1.819 3.86.165 8.464-3.694 10.284-1.065.501-2.187.739-3.29.739z" fill="#ccf49f"/></g><g><path d="m362.342 264.411c-3.212 0-6.212-2.019-7.31-5.228-6.819-19.94-22.929-35.459-43.096-41.516-4.087-1.227-6.404-5.535-5.177-9.622 1.226-4.088 5.534-6.409 9.622-5.177 24.93 7.487 44.845 26.67 53.273 51.315 1.38 4.037-.774 8.43-4.811 9.811-.828.282-1.671.417-2.501.417z" fill="#ccf49f"/></g><g><path d="m269.06 219.138h-33.88c-4.268 0-7.726-3.459-7.726-7.726 0-4.268 3.459-7.726 7.726-7.726h33.88c4.268 0 7.726 3.459 7.726 7.726s-3.458 7.726-7.726 7.726z" fill="#ccf49f"/></g><g><path d="m145.607 382.219c-2.579 0-5.101-1.292-6.565-3.643l-5.246-8.424c-2.256-3.622-1.149-8.387 2.474-10.643 3.62-2.256 8.385-1.149 10.643 2.474l5.246 8.424c2.256 3.622 1.149 8.387-2.474 10.643-1.271.791-2.682 1.169-4.078 1.169z" fill="#ccf49f"/></g><g><path d="m223.843 376.747c-2.243 0-4.467-.971-5.994-2.845-2.696-3.308-2.2-8.175 1.108-10.87l7.246-5.905c3.308-2.699 8.175-2.2 10.87 1.108 2.696 3.308 2.2 8.175-1.108 10.87l-7.246 5.905c-1.434 1.168-3.161 1.737-4.876 1.737z" fill="#ccf49f"/></g><g><path d="m423.171 382.218c-2.02 0-4.036-.787-5.552-2.352l-8.156-8.424c-2.968-3.065-2.888-7.957.177-10.926 3.065-2.967 7.957-2.888 10.926.177l8.156 8.424c2.968 3.065 2.888 7.957-.177 10.926-1.501 1.451-3.439 2.175-5.374 2.175z" fill="#ccf49f"/></g><g><path d="m350.573 391.232c-1.562 0-3.139-.473-4.504-1.454-3.465-2.491-4.255-7.318-1.764-10.784l6.038-8.4c2.49-3.466 7.318-4.254 10.784-1.764 3.465 2.491 4.255 7.318 1.764 10.784l-6.038 8.4c-1.509 2.1-3.878 3.218-6.28 3.218z" fill="#ccf49f"/></g><g><path d="m472.69 382.831c-2.652 0-5.234-1.366-6.672-3.82-2.159-3.681-.924-8.414 2.758-10.572l7.572-4.44c3.678-2.159 8.415-.925 10.572 2.758 2.159 3.681.924 8.414-2.758 10.572l-7.572 4.44c-1.227.72-2.572 1.062-3.9 1.062z" fill="#ccf49f"/></g><g><path d="m291.716 391.231h-11.79c-4.268 0-7.726-3.459-7.726-7.726 0-4.268 3.459-7.726 7.726-7.726h11.79c4.268 0 7.726 3.459 7.726 7.726s-3.458 7.726-7.726 7.726z" fill="#ccf49f"/></g></g><path d="m50.251 311.759c0 1.402-1.137 2.539-2.539 2.539h-47.712v-114.3h47.712c1.402 0 2.539 1.137 2.539 2.539z" fill="#eab14d"/><path d="m31.122 199.999v114.3h16.59c1.402 0 2.539-1.137 2.539-2.539v-109.222c0-1.402-1.137-2.539-2.539-2.539z" fill="#e49542"/><path d="m215.114 285.181h24.695c3.133 0 5.673-2.54 5.673-5.673v-116.616c0-3.133-2.54-5.673-5.673-5.673h-24.695c-3.133 0-5.673 2.54-5.673 5.673v116.616c0 3.133 2.54 5.673 5.673 5.673z" fill="#c3d5ef"/></g></svg>