<svg id="Capa_1" enable-background="new 0 0 512 512" height="512" viewBox="0 0 512 512" width="512" xmlns="http://www.w3.org/2000/svg"><g><path d="m182.015 407.807h-74.929c-8.549 0-15.479-6.93-15.479-15.479v-47.552h105.886v47.552c0 8.549-6.93 15.479-15.478 15.479z" fill="#c3d5ef"/><path d="m177.931 344.777v47.552c0 8.549-6.93 15.479-15.479 15.479h19.563c8.549 0 15.479-6.93 15.479-15.479v-47.552z" fill="#b7c8ea"/><path d="m474.882 505.718v-448.485c0-31.391-25.448-56.839-56.839-56.839h-72.367c-31.391 0-56.839 25.448-56.839 56.839v397.929c0 15.46-12.533 27.993-27.993 27.993h-73.877c-15.46 0-27.993-12.533-27.993-27.993v-47.355h-28.845v47.355c0 31.391 25.447 56.838 56.838 56.838h73.877c31.391 0 56.838-25.447 56.838-56.838v-397.929c0-15.461 12.533-27.994 27.994-27.994h72.368c15.46 0 27.993 12.533 27.993 27.993v448.486c0 3.469 2.813 6.282 6.282 6.282h16.281c3.469 0 6.282-2.813 6.282-6.282z" fill="#365e7d"/><path d="m130.128 407.807h28.845v23.074h-28.845z" fill="#2b4d66"/><path d="m185.524 374.032h-81.947c-36.704 0-66.459-29.755-66.459-66.459v-144.845c0-3.158 2.56-5.718 5.718-5.718h203.429c3.158 0 5.718 2.56 5.718 5.718v144.846c0 36.704-29.755 66.458-66.459 66.458z" fill="#e7ecf6"/><path d="m246.265 157.01h-24.906c3.158 0 5.718 2.56 5.718 5.718v144.846c0 36.704-29.755 66.459-66.459 66.459h24.906c36.704 0 66.459-29.755 66.459-66.459v-144.846c0-3.158-2.56-5.718-5.718-5.718z" fill="#d8e2f1"/><path d="m235.941 157.01h-182.781v-21.053c0-6.18 5.01-11.189 11.189-11.189h160.403c6.18 0 11.189 5.01 11.189 11.189z" fill="#c3d5ef"/><path d="m224.752 124.768h-26.551c6.18 0 11.189 5.01 11.189 11.189v21.053h26.551v-21.053c0-6.18-5.01-11.189-11.189-11.189z" fill="#b7c8ea"/><g fill="#eab14d"><path d="m114.292 124.768h-28.929v-110.304c0-7.988 6.476-14.464 14.464-14.464 7.988 0 14.464 6.476 14.464 14.464v110.304z"/><path d="m203.738 124.768h-28.929v-110.304c0-7.988 6.476-14.464 14.464-14.464 7.988 0 14.464 6.476 14.464 14.464v110.304z"/></g><path d="m85.363 106.586h28.929v18.182h-28.929z" fill="#e49542"/><path d="m174.809 106.586h28.929v18.182h-28.929z" fill="#e49542"/><g><path d="m193.383 201.446h-97.666c-4.268 0-7.726-3.459-7.726-7.726 0-4.268 3.459-7.726 7.726-7.726h97.666c4.268 0 7.726 3.459 7.726 7.726s-3.458 7.726-7.726 7.726z" fill="#d8e2f1"/></g><g><path d="m177.93 238.155h-66.76c-4.268 0-7.726-3.459-7.726-7.726s3.459-7.726 7.726-7.726h66.761c4.268 0 7.726 3.459 7.726 7.726s-3.459 7.726-7.727 7.726z" fill="#d8e2f1"/></g></g></svg>