<svg id="Capa_1" enable-background="new 0 0 512 512" height="512" viewBox="0 0 512 512" width="512" xmlns="http://www.w3.org/2000/svg"><g><path d="m468.47 270.109v-74.308c0-6.737-5.462-12.199-12.199-12.199h-86.084c-25.229 0-45.681 20.452-45.681 45.681v107.809h169.098c5.956 0 10.784-4.828 10.784-10.784v-36.894c0-4.697-3.041-8.854-7.517-10.277z" fill="#c3d5ef"/><path d="m468.47 270.109v-74.308c0-6.737-5.462-12.199-12.199-12.199h-23.207c6.737 0 12.199 5.462 12.199 12.199v59.052c0 9.085 5.881 17.125 14.539 19.877l5.724 1.819c9.323 2.963 15.655 11.621 15.655 21.404v39.139h12.423c5.956 0 10.784-4.828 10.784-10.784v-36.894c0-4.697-3.041-8.854-7.517-10.277z" fill="#b7c8ea"/><path d="m52.011 191.334h25.929v117.592h-25.929z" fill="#365e7d"/><path d="m324.506 337.092h-314.262c-2.723 0-4.472-2.894-3.205-5.304l2.124-4.043c6.08-11.572 18.074-18.819 31.145-18.819h284.198z" fill="#eab14d"/><path d="m303.864 308.926h20.642v28.166h-20.642z" fill="#e49542"/><path d="m468.47 270.109h-63.931c-11.226 0-20.326-9.1-20.326-20.326v-15.299c0-11.226 9.1-20.326 20.326-20.326h63.931z" fill="#80b4fb"/><path d="m468.47 214.158h-23.207v40.695c0 5.926 2.513 11.397 6.657 15.256h16.55z" fill="#61a2f9"/><path d="m113.409 281.361h127.287c3.297 0 6.376-1.648 8.204-4.392l82.295-123.541h-267.645l-28.992 32.174z" fill="#eab14d"/><path d="m63.55 153.428-17.738 19.684h230.474c6.789 0 10.839 7.565 7.076 13.215l-63.305 95.034h20.639c3.297 0 6.376-1.648 8.204-4.392l82.295-123.541z" fill="#e49542"/><path d="m129.077 281.361h97.143v27.565h-97.143z" fill="#c3d5ef"/><g><path d="m504.388 316.538h-14.91c-4.204 0-7.611-3.407-7.611-7.611s3.407-7.612 7.611-7.612h14.91c4.204 0 7.611 3.407 7.611 7.612.001 4.203-3.407 7.611-7.611 7.611z" fill="#dd544f"/></g><g><path d="m72.486 239.284c-1.334 0-2.684-.35-3.911-1.087-3.604-2.164-4.772-6.839-2.609-10.443l50.889-84.774c2.163-3.605 6.838-4.773 10.444-2.609 3.604 2.164 4.772 6.839 2.609 10.443l-50.889 84.774c-1.427 2.378-3.948 3.696-6.533 3.696z" fill="#365e7d"/></g><g><path d="m111.332 286.459c-1.343 0-2.703-.355-3.935-1.101-3.596-2.176-4.747-6.856-2.57-10.453l79.868-131.949c2.176-3.597 6.857-4.746 10.453-2.57s4.747 6.857 2.57 10.453l-79.868 131.949c-1.431 2.364-3.943 3.671-6.518 3.671z" fill="#365e7d"/></g><g><path d="m178.361 288.974c-1.334 0-2.684-.35-3.911-1.086-3.604-2.164-4.772-6.839-2.609-10.444l80.719-134.464c2.164-3.604 6.839-4.772 10.444-2.608 3.604 2.164 4.772 6.839 2.609 10.444l-80.719 134.464c-1.427 2.376-3.948 3.694-6.533 3.694z" fill="#365e7d"/></g><circle cx="410.66" cy="355.099" fill="#365e7d" r="54.455"/><circle cx="410.66" cy="355.099" fill="#c3d5ef" r="17.39"/><g><g><path d="m410.66 317.178c-4.204 0-7.611-3.407-7.611-7.611v-8.923c0-4.204 3.407-7.612 7.611-7.612s7.612 3.407 7.612 7.612v8.923c-.001 4.203-3.408 7.611-7.612 7.611z" fill="#2b4d66"/></g><g><path d="m442.856 330.514c-1.947 0-3.896-.743-5.383-2.229-2.972-2.973-2.972-7.792 0-10.765l6.309-6.309c2.973-2.971 7.792-2.971 10.765 0 2.972 2.973 2.972 7.792 0 10.765l-6.309 6.309c-1.486 1.485-3.435 2.229-5.382 2.229z" fill="#2b4d66"/></g><g><path d="m465.115 362.71h-8.923c-4.204 0-7.612-3.407-7.612-7.612s3.407-7.611 7.612-7.611h8.923c4.204 0 7.611 3.407 7.611 7.611s-3.407 7.612-7.611 7.612z" fill="#2b4d66"/></g><g><path d="m449.165 401.215c-1.947 0-3.896-.743-5.383-2.229l-6.309-6.309c-2.972-2.973-2.972-7.792 0-10.765 2.973-2.971 7.792-2.971 10.765 0l6.309 6.309c2.972 2.973 2.972 7.792 0 10.765-1.486 1.486-3.434 2.229-5.382 2.229z" fill="#2b4d66"/></g><g><path d="m410.66 417.165c-4.204 0-7.611-3.407-7.611-7.612v-8.923c0-4.204 3.407-7.612 7.611-7.612s7.612 3.407 7.612 7.612v8.923c-.001 4.205-3.408 7.612-7.612 7.612z" fill="#2b4d66"/></g><g><path d="m372.154 401.215c-1.947 0-3.896-.743-5.383-2.229-2.972-2.973-2.972-7.792 0-10.765l6.309-6.309c2.973-2.971 7.792-2.971 10.765 0 2.972 2.973 2.972 7.792 0 10.765l-6.309 6.309c-1.486 1.486-3.434 2.229-5.382 2.229z" fill="#2b4d66"/></g><g><path d="m365.128 362.71h-8.923c-4.204 0-7.611-3.407-7.611-7.612s3.407-7.611 7.611-7.611h8.923c4.204 0 7.612 3.407 7.612 7.611s-3.408 7.612-7.612 7.612z" fill="#2b4d66"/></g><g><path d="m378.463 330.514c-1.947 0-3.896-.743-5.383-2.229l-6.309-6.309c-2.972-2.973-2.972-7.792 0-10.765 2.973-2.971 7.792-2.971 10.765 0l6.309 6.309c2.972 2.973 2.972 7.792 0 10.765-1.486 1.485-3.434 2.229-5.382 2.229z" fill="#2b4d66"/></g></g><circle cx="110.526" cy="355.099" fill="#365e7d" r="54.455"/><circle cx="110.526" cy="355.099" fill="#c3d5ef" r="17.39"/><g><g><path d="m110.526 317.178c-4.204 0-7.612-3.407-7.612-7.611v-8.923c0-4.204 3.407-7.612 7.612-7.612 4.204 0 7.611 3.407 7.611 7.612v8.923c0 4.203-3.407 7.611-7.611 7.611z" fill="#2b4d66"/></g><g><path d="m142.722 330.514c-1.947 0-3.896-.743-5.383-2.229-2.972-2.973-2.972-7.792 0-10.765l6.309-6.309c2.973-2.971 7.792-2.971 10.765 0 2.972 2.973 2.972 7.792 0 10.765l-6.309 6.309c-1.486 1.485-3.434 2.229-5.382 2.229z" fill="#2b4d66"/></g><g><path d="m164.981 362.71h-8.923c-4.204 0-7.611-3.407-7.611-7.612s3.407-7.611 7.611-7.611h8.923c4.204 0 7.611 3.407 7.611 7.611s-3.407 7.612-7.611 7.612z" fill="#2b4d66"/></g><g><path d="m149.031 401.215c-1.947 0-3.896-.743-5.383-2.229l-6.309-6.309c-2.972-2.973-2.972-7.792 0-10.765 2.973-2.971 7.792-2.971 10.765 0l6.309 6.309c2.972 2.973 2.972 7.792 0 10.765-1.486 1.486-3.434 2.229-5.382 2.229z" fill="#2b4d66"/></g><g><path d="m110.526 417.165c-4.204 0-7.612-3.407-7.612-7.612v-8.923c0-4.204 3.407-7.612 7.612-7.612 4.204 0 7.611 3.407 7.611 7.612v8.923c0 4.205-3.407 7.612-7.611 7.612z" fill="#2b4d66"/></g><g><path d="m72.02 401.215c-1.947 0-3.896-.743-5.383-2.229-2.972-2.973-2.972-7.792 0-10.765l6.309-6.309c2.973-2.971 7.792-2.971 10.765 0 2.972 2.973 2.972 7.792 0 10.765l-6.309 6.309c-1.486 1.486-3.434 2.229-5.382 2.229z" fill="#2b4d66"/></g><g><path d="m64.994 362.71h-8.924c-4.204 0-7.611-3.407-7.611-7.612s3.407-7.611 7.611-7.611h8.924c4.204 0 7.611 3.407 7.611 7.611s-3.407 7.612-7.611 7.612z" fill="#2b4d66"/></g><g><path d="m78.33 330.514c-1.947 0-3.896-.743-5.383-2.229l-6.309-6.309c-2.972-2.973-2.972-7.792 0-10.765 2.973-2.971 7.792-2.971 10.765 0l6.309 6.309c2.972 2.973 2.972 7.792 0 10.765-1.486 1.485-3.435 2.229-5.382 2.229z" fill="#2b4d66"/></g></g><path d="m324.506 308.926h-32.141v-50.861c0-4.383 3.553-7.936 7.936-7.936h24.206v58.797z" fill="#df6b57"/><path d="m295.237 364.986h-83.757c-4.955 0-8.972-4.017-8.972-8.972v-18.922h101.701v18.922c0 4.955-4.017 8.972-8.972 8.972z" fill="#365e7d"/><path d="m284.577 337.092v18.922c0 4.955-4.017 8.972-8.972 8.972h19.632c4.955 0 8.971-4.017 8.971-8.972v-18.922z" fill="#2b4d66"/><path d="m414.447 97.438c0-1.438-1.165-2.603-2.603-2.603h-39.999c-4.142 0-8.128 1.585-11.138 4.43l-22.681 21.43c-.892.843-2.072 1.312-3.299 1.312h-278.394c-4.594 0-8.973 1.949-12.049 5.361l-40.115 44.517c-5.995 6.654-5.462 16.909 1.192 22.905 3.1 2.794 6.981 4.17 10.851 4.17 4.433 0 8.851-1.808 12.054-5.361l35.284-39.156h279.538c4.142 0 8.127-1.585 11.138-4.43l22.578-21.333c.981-.927 2.163-1.613 3.454-2.005l32.342-9.818c1.097-.333 1.847-1.344 1.847-2.491z" fill="#df6b57"/><path d="m409.732 94.835v1.775c0 2.571-1.682 4.838-4.141 5.585l-30.449 9.244c-1.027.312-1.968.858-2.748 1.595l-22.884 21.622c-3.011 2.845-6.996 4.43-11.138 4.43h-276.001c-2.251 0-4.397.955-5.904 2.627l-32.916 36.528c-3.202 3.553-7.62 5.361-12.054 5.361-3.87 0-7.751-1.376-10.851-4.17-.086-.078-.16-.164-.245-.244-1.235 5.526.453 11.54 4.96 15.601 3.1 2.794 6.982 4.17 10.851 4.17 4.433 0 8.851-1.808 12.054-5.361l33.858-37.574c.907-1.007 2.199-1.582 3.555-1.582h277.408c4.142 0 8.128-1.585 11.138-4.43l22.578-21.333c.981-.927 2.163-1.613 3.454-2.005l32.341-9.818c1.097-.333 1.847-1.344 1.847-2.491v-16.927c0-1.438-1.165-2.603-2.603-2.603z" fill="#dd544f"/></g></svg>