<svg id="Capa_1" enable-background="new 0 0 512 512" height="512" viewBox="0 0 512 512" width="512" xmlns="http://www.w3.org/2000/svg"><g><g><path d="m399.046 113.92c-4.204 0-7.612-3.407-7.612-7.611v-20.734c0-4.204 3.407-7.611 7.612-7.611s7.611 3.407 7.611 7.611v20.733c0 4.205-3.407 7.612-7.611 7.612z" fill="#eab14d"/></g><g><path d="m365.328 113.92c-4.204 0-7.612-3.407-7.612-7.611v-20.734c0-4.204 3.407-7.611 7.612-7.611s7.611 3.407 7.611 7.611v20.733c0 4.205-3.407 7.612-7.611 7.612z" fill="#eab14d"/></g><g><path d="m307.412 234.355c-1.665 0-3.341-.543-4.743-1.662-3.285-2.622-3.823-7.412-1.201-10.698l27.926-35.307c2.623-3.285 7.411-3.823 10.698-1.201 3.285 2.622 3.823 7.412 1.201 10.698l-27.926 35.307c-1.504 1.883-3.719 2.863-5.955 2.863z" fill="#2b4d66"/></g><g><path d="m345.759 207.842c-1.845 0-3.696-.667-5.16-2.017l-19.063-17.587c-3.089-2.85-3.283-7.666-.433-10.756 2.851-3.089 7.666-3.282 10.756-.433l19.063 17.587c3.089 2.85 3.283 7.666.433 10.756-1.5 1.626-3.544 2.45-5.596 2.45z" fill="#365e7d"/></g><path d="m316.809 299.338h-41.627l15.432-86.05h14.024c6.722 0 12.172 5.449 12.172 12.172v73.878z" fill="#365e7d"/><g><path d="m277.296 330.042c-.443 0-.892-.039-1.344-.119-4.138-.737-6.896-4.69-6.159-8.829l38.498-216.16c3.006-16.812 17.579-29.011 34.652-29.011h139.915c16.068 0 29.142 13.073 29.142 29.142v163.029c0 4.204-3.407 7.612-7.611 7.612s-7.611-3.407-7.611-7.612v-163.028c0-7.675-6.244-13.919-13.919-13.919h-139.916c-9.69 0-17.96 6.924-19.666 16.463l-38.497 216.155c-.656 3.686-3.865 6.277-7.484 6.277z" fill="#2b4d66"/></g><g><path d="m164.357 237.341c-3.127 0-6.056-1.941-7.168-5.055l-8.166-22.873c-.014-.039-.028-.078-.041-.117-.238-.701-.462-1.405-.672-2.11-7.672-25.736 3.414-53.512 26.958-67.545l13.873-8.27c3.607-2.154 8.281-.971 10.435 2.641 2.153 3.611.97 8.282-2.641 10.435l-13.873 8.27c-17.55 10.461-25.842 31.071-20.164 50.121.152.507.312 1.014.483 1.517l8.144 22.813c1.413 3.959-.65 8.314-4.61 9.727-.845.303-1.709.446-2.558.446z" fill="#e7ecf6"/></g><g><path d="m260.25 128.23h-19.23c-4.204 0-7.611-3.407-7.611-7.611s3.407-7.611 7.611-7.611h19.23c4.204 0 7.611 3.407 7.611 7.611s-3.407 7.611-7.611 7.611z" fill="#2b4d66"/></g><path d="m21.498 311.71h84.121v57.269h-84.121z" fill="#eab14d"/><path d="m86.667 311.71h18.952v57.269h-18.952z" fill="#e49542"/><path d="m105.619 311.71h-84.121v-52.006c0-2.907 2.356-5.263 5.263-5.263h73.596c2.907 0 5.263 2.356 5.263 5.263v52.006z" fill="#b3e59f"/><path d="m86.667 254.441v57.269h18.952v-52.006c0-2.907-2.356-5.263-5.263-5.263z" fill="#95d6a4"/><g><path d="m63.559 275.941c-4.204 0-7.611-3.407-7.611-7.611v-13.888c0-4.204 3.407-7.611 7.611-7.611s7.611 3.407 7.611 7.611v13.888c0 4.204-3.407 7.611-7.611 7.611z" fill="#2b4d66"/></g><g><path d="m145.196 376.59h-137.585c-4.204 0-7.611-3.407-7.611-7.611s3.407-7.612 7.611-7.612h137.585c4.204 0 7.611 3.407 7.611 7.612s-3.407 7.611-7.611 7.611z" fill="#2b4d66"/></g><g><path d="m63.559 333.211c-4.204 0-7.611-3.407-7.611-7.611v-13.89c0-4.204 3.407-7.611 7.611-7.611s7.611 3.407 7.611 7.611v13.889c0 4.204-3.407 7.612-7.611 7.612z" fill="#2b4d66"/></g><path d="m503.14 407.594h-305.116l28.934-43.121h285.042v34.261c0 4.893-3.967 8.86-8.86 8.86z" fill="#df6b57"/><path d="m493.217 364.473v34.261c0 4.893-3.967 8.861-8.86 8.861h18.783c4.893 0 8.861-3.967 8.861-8.861v-34.261z" fill="#dd544f"/><path d="m247.063 386.033h-62.233v-260.675c0-6.822 5.53-12.352 12.352-12.352h49.881z" fill="#c3d5ef"/><path d="m247.063 313.316c-8.556-3.505-17.917-5.451-27.735-5.451-12.475 0-24.217 3.127-34.498 8.628v69.539h62.233z" fill="#b7c8ea"/><path d="m512 247.239h-138.801c-4.347 0-7.87 3.524-7.87 7.87v109.363h146.671z" fill="#eab14d"/><path d="m492.979 247.239h19.022v117.234h-19.022z" fill="#e49542"/><path d="m281.209 299.338h84.119v65.134h-138.37l44.636-60.289c2.256-3.047 5.824-4.845 9.615-4.845z" fill="#eab14d"/><path d="m346.307 299.338h19.021v65.134h-19.021z" fill="#e49542"/><path d="m456.638 247.239h-73.99v-13.394c0-8.789 7.125-15.915 15.915-15.915h58.075z" fill="#365e7d"/><path d="m439.318 217.931h17.32v29.308h-17.32z" fill="#2b4d66"/><path d="m456.638 217.931h-29.642l17.498-66.981c1.649-6.312 7.351-10.715 13.874-10.715 9.392 0 16.248 8.878 13.874 17.964z" fill="#eab14d"/><path d="m138.85 386.033h45.981v-168.102h-33.671c-8.898 0-16.112 7.213-16.112 16.112v148.189c0 2.099 1.702 3.801 3.802 3.801z" fill="#365e7d"/><path d="m168.087 217.931v95.178c0 8.965-2.677 17.781-7.952 25.03-8.777 12.062-13.959 26.906-13.959 42.967 0 1.658.075 3.298.184 4.928h38.471v-168.103z" fill="#2b4d66"/><g><path d="m215.946 155.34c-4.204 0-7.611-3.407-7.611-7.611v-7.369c0-4.204 3.407-7.611 7.611-7.611s7.611 3.407 7.611 7.611v7.369c.001 4.204-3.406 7.611-7.611 7.611z" fill="#2b4d66"/></g><g><path d="m215.946 290.687c-4.204 0-7.611-3.407-7.611-7.611v-7.37c0-4.204 3.407-7.612 7.611-7.612s7.611 3.407 7.611 7.612v7.37c.001 4.204-3.406 7.611-7.611 7.611z" fill="#2b4d66"/></g><g><path d="m465.315 330.041h-53.301c-4.204 0-7.612-3.407-7.612-7.611s3.407-7.612 7.612-7.612h53.301c4.204 0 7.612 3.407 7.612 7.612s-3.408 7.611-7.612 7.611z" fill="#e7ecf6"/></g><g><g><path d="m387.447 277.533c-1.948 0-3.898-.744-5.385-2.231l-1.355-1.356c-2.971-2.974-2.969-7.793.004-10.765 2.974-2.969 7.793-2.969 10.765.004l1.355 1.356c2.971 2.974 2.969 7.793-.004 10.765-1.486 1.484-3.433 2.227-5.38 2.227z" fill="#e7ecf6"/></g><g><path d="m489.881 277.533c-1.947 0-3.896-.743-5.383-2.229-2.972-2.973-2.972-7.792 0-10.765l1.356-1.356c2.973-2.971 7.792-2.971 10.765 0 2.972 2.973 2.972 7.792 0 10.765l-1.356 1.356c-1.486 1.485-3.435 2.229-5.382 2.229z" fill="#e7ecf6"/></g></g><circle cx="219.328" cy="381.105" fill="#365e7d" r="54.971"/><path d="m219.328 326.134c-3.977 0-7.851.432-11.588 1.234 24.793 5.322 43.383 27.354 43.383 53.736 0 26.383-18.59 48.415-43.383 53.737 3.737.802 7.611 1.234 11.588 1.234 30.359 0 54.971-24.611 54.971-54.971 0-30.358-24.611-54.97-54.971-54.97z" fill="#2b4d66"/><circle cx="429.064" cy="395.353" fill="#365e7d" r="40.723"/><path d="m429.064 354.63c-3.997 0-7.856.586-11.506 1.659 16.886 4.966 29.217 20.57 29.217 39.064 0 18.493-12.331 34.097-29.217 39.064 3.65 1.074 7.509 1.66 11.506 1.66 22.491 0 40.723-18.232 40.723-40.723 0-22.492-18.233-40.724-40.723-40.724z" fill="#2b4d66"/><circle cx="219.328" cy="381.105" fill="#e7ecf6" r="20.814"/><path d="m219.328 360.291c-2.672 0-5.218.522-7.566 1.439 7.75 3.029 13.248 10.552 13.248 19.374 0 8.823-5.499 16.345-13.248 19.374 2.347.917 4.893 1.439 7.566 1.439 11.495 0 20.814-9.319 20.814-20.814 0-11.493-9.319-20.812-20.814-20.812z" fill="#d8e2f1"/><g><path d="m429.063 405.369c-4.204 0-7.611-3.407-7.611-7.611v-4.81c0-4.204 3.407-7.611 7.611-7.611s7.612 3.407 7.612 7.611v4.81c0 4.204-3.407 7.611-7.612 7.611z" fill="#e7ecf6"/></g></g></svg>