<svg id="Capa_1" enable-background="new 0 0 512 512" height="512" viewBox="0 0 512 512" width="512" xmlns="http://www.w3.org/2000/svg"><g><g><path d="m132.298 437.531h-39.66c-21.706 0-39.366-17.66-39.366-39.366v-75.218c0-4.268 3.459-7.726 7.726-7.726s7.726 3.459 7.726 7.726v75.218c0 13.186 10.727 23.913 23.913 23.913h39.66c4.268 0 7.726 3.459 7.726 7.726s-3.457 7.727-7.725 7.727z" fill="#365e7d"/></g><path d="m507.439 486.466h-380.882c-2.519 0-4.561-2.042-4.561-4.56v-451.812c0-2.519 2.042-4.561 4.561-4.561h380.882c2.519 0 4.56 2.042 4.56 4.561v451.812c.001 2.519-2.041 4.56-4.56 4.56z" fill="#80b4fb"/><path d="m507.439 25.534h-22.393c2.519 0 4.56 2.042 4.56 4.561v451.811c0 2.519-2.042 4.561-4.56 4.561h22.393c2.519 0 4.561-2.042 4.561-4.561v-451.812c0-2.519-2.042-4.56-4.561-4.56z" fill="#61a2f9"/><path d="m121.997 307.387h-112.487c-5.252 0-9.51-4.258-9.51-9.51v-151.491c0-5.252 4.258-9.51 9.51-9.51h112.487z" fill="#365e7d"/><path d="m104.167 136.877h17.83v170.511h-17.83z" fill="#2b4d66"/><path d="m81.048 333.248h-40.1c-4.601 0-8.33-3.73-8.33-8.33v-17.531h56.761v17.531c0 4.601-3.73 8.33-8.331 8.33z" fill="#c3d5ef"/><path d="m401.046 247.526h-168.096c-3.619 0-6.552-2.933-6.552-6.552v-147.17c0-3.619 2.933-6.552 6.552-6.552h168.096c3.619 0 6.552 2.933 6.552 6.552v147.17c0 3.619-2.933 6.552-6.552 6.552z" fill="#d3effb"/><path d="m401.046 87.252h-22.393c3.618 0 6.552 2.933 6.552 6.552v147.17c0 3.618-2.934 6.552-6.552 6.552h22.393c3.618 0 6.552-2.934 6.552-6.552v-147.17c0-3.618-2.933-6.552-6.552-6.552z" fill="#b1e4f9"/><circle cx="172.851" cy="126.04" fill="#df6b57" r="20.226"/><circle cx="461.146" cy="126.04" fill="#df6b57" r="20.226"/><path d="m172.851 105.814c-2.498 0-4.88.474-7.089 1.302 7.669 2.875 13.137 10.251 13.137 18.924s-5.469 16.049-13.137 18.924c2.209.828 4.591 1.303 7.089 1.303 11.171 0 20.226-9.056 20.226-20.226 0-11.172-9.056-20.227-20.226-20.227z" fill="#dd544f"/><path d="m461.146 105.814c-2.498 0-4.88.474-7.089 1.302 7.669 2.875 13.138 10.251 13.138 18.924s-5.469 16.049-13.138 18.924c2.209.828 4.591 1.303 7.089 1.303 11.171 0 20.226-9.056 20.226-20.226 0-11.172-9.055-20.227-20.226-20.227z" fill="#dd544f"/><g><path d="m181.563 204.468h-17.426c-4.268 0-7.726-3.459-7.726-7.726s3.459-7.726 7.726-7.726h17.426c4.268 0 7.726 3.459 7.726 7.726s-3.458 7.726-7.726 7.726z" fill="#e7ecf6"/></g><g><path d="m181.563 234.34h-17.426c-4.268 0-7.726-3.459-7.726-7.726s3.459-7.726 7.726-7.726h17.426c4.268 0 7.726 3.459 7.726 7.726s-3.458 7.726-7.726 7.726z" fill="#e7ecf6"/></g><g><path d="m469.859 204.468h-17.426c-4.268 0-7.726-3.459-7.726-7.726s3.459-7.726 7.726-7.726h17.426c4.268 0 7.726 3.459 7.726 7.726s-3.459 7.726-7.726 7.726z" fill="#e7ecf6"/></g><g><path d="m469.859 234.34h-17.426c-4.268 0-7.726-3.459-7.726-7.726s3.459-7.726 7.726-7.726h17.426c4.268 0 7.726 3.459 7.726 7.726s-3.459 7.726-7.726 7.726z" fill="#e7ecf6"/></g><path d="m451.36 424.748h-268.723c-5.405 0-9.787-4.382-9.787-9.787v-117.382c0-5.405 4.382-9.787 9.787-9.787h268.723c5.405 0 9.787 4.382 9.787 9.787v117.382c-.001 5.405-4.382 9.787-9.787 9.787z" fill="#c3d5ef"/><path d="m451.36 287.792h-21.363c5.405 0 9.787 4.382 9.787 9.787v117.383c0 5.405-4.382 9.786-9.787 9.786h21.363c5.405 0 9.786-4.382 9.786-9.786v-117.383c0-5.405-4.381-9.787-9.786-9.787z" fill="#b7c8ea"/><g><g><path d="m230.895 332.501h-18.924c-4.268 0-7.726-3.459-7.726-7.726s3.459-7.726 7.726-7.726h18.924c4.268 0 7.726 3.459 7.726 7.726s-3.458 7.726-7.726 7.726z" fill="#365e7d"/></g><g><path d="m294.605 332.501h-18.924c-4.268 0-7.726-3.459-7.726-7.726s3.459-7.726 7.726-7.726h18.924c4.268 0 7.726 3.459 7.726 7.726s-3.458 7.726-7.726 7.726z" fill="#365e7d"/></g><g><path d="m358.315 332.501h-18.924c-4.268 0-7.726-3.459-7.726-7.726s3.459-7.726 7.726-7.726h18.924c4.268 0 7.726 3.459 7.726 7.726s-3.458 7.726-7.726 7.726z" fill="#365e7d"/></g><g><path d="m422.025 332.501h-18.924c-4.268 0-7.726-3.459-7.726-7.726s3.459-7.726 7.726-7.726h18.924c4.268 0 7.726 3.459 7.726 7.726s-3.459 7.726-7.726 7.726z" fill="#365e7d"/></g></g><g><g><path d="m230.895 363.996h-18.924c-4.268 0-7.726-3.459-7.726-7.726 0-4.268 3.459-7.726 7.726-7.726h18.924c4.268 0 7.726 3.459 7.726 7.726s-3.458 7.726-7.726 7.726z" fill="#365e7d"/></g><g><path d="m294.605 363.996h-18.924c-4.268 0-7.726-3.459-7.726-7.726 0-4.268 3.459-7.726 7.726-7.726h18.924c4.268 0 7.726 3.459 7.726 7.726.001 4.267-3.458 7.726-7.726 7.726z" fill="#365e7d"/></g><g><path d="m358.315 363.996h-18.924c-4.268 0-7.726-3.459-7.726-7.726 0-4.268 3.459-7.726 7.726-7.726h18.924c4.268 0 7.726 3.459 7.726 7.726.001 4.267-3.458 7.726-7.726 7.726z" fill="#365e7d"/></g><g><path d="m422.025 363.996h-18.924c-4.268 0-7.726-3.459-7.726-7.726 0-4.268 3.459-7.726 7.726-7.726h18.924c4.268 0 7.726 3.459 7.726 7.726s-3.459 7.726-7.726 7.726z" fill="#365e7d"/></g></g><g><g><path d="m230.895 395.491h-18.924c-4.268 0-7.726-3.459-7.726-7.726 0-4.268 3.459-7.726 7.726-7.726h18.924c4.268 0 7.726 3.459 7.726 7.726s-3.458 7.726-7.726 7.726z" fill="#365e7d"/></g><g><path d="m294.605 395.491h-18.924c-4.268 0-7.726-3.459-7.726-7.726 0-4.268 3.459-7.726 7.726-7.726h18.924c4.268 0 7.726 3.459 7.726 7.726.001 4.267-3.458 7.726-7.726 7.726z" fill="#365e7d"/></g><g><path d="m358.315 395.491h-18.924c-4.268 0-7.726-3.459-7.726-7.726 0-4.268 3.459-7.726 7.726-7.726h18.924c4.268 0 7.726 3.459 7.726 7.726.001 4.267-3.458 7.726-7.726 7.726z" fill="#365e7d"/></g><g><path d="m422.025 395.491h-18.924c-4.268 0-7.726-3.459-7.726-7.726 0-4.268 3.459-7.726 7.726-7.726h18.924c4.268 0 7.726 3.459 7.726 7.726s-3.459 7.726-7.726 7.726z" fill="#365e7d"/></g></g><g><path d="m279.185 146.127c-1.977 0-3.955-.755-5.464-2.263-3.017-3.018-3.017-7.909 0-10.928l12.361-12.361c3.018-3.016 7.909-3.016 10.928 0 3.017 3.018 3.017 7.909 0 10.928l-12.361 12.361c-1.51 1.509-3.487 2.263-5.464 2.263z" fill="#b1e4f9"/></g><g><path d="m275.018 194.099c-1.977 0-3.955-.755-5.464-2.263-3.017-3.018-3.017-7.909 0-10.928l60.333-60.333c3.018-3.016 7.909-3.016 10.928 0 3.017 3.018 3.017 7.909 0 10.928l-60.333 60.333c-1.51 1.508-3.487 2.263-5.464 2.263z" fill="#b1e4f9"/></g><path d="m91.227 197.878h-60.457c-1.781 0-3.224-1.444-3.224-3.224v-27.685c0-1.781 1.444-3.224 3.224-3.224h60.457c1.781 0 3.224 1.444 3.224 3.224v27.685c0 1.781-1.443 3.224-3.224 3.224z" fill="#d3effb"/><path d="m91.227 163.744h-17.983c1.781 0 3.224 1.443 3.224 3.224v27.685c0 1.781-1.444 3.224-3.224 3.224h17.983c1.781 0 3.224-1.443 3.224-3.224v-27.685c0-1.78-1.443-3.224-3.224-3.224z" fill="#b1e4f9"/><g><g><path d="m44.046 235.102h-11.288c-4.268 0-7.726-3.459-7.726-7.726 0-4.268 3.459-7.726 7.726-7.726h11.288c4.268 0 7.726 3.459 7.726 7.726s-3.458 7.726-7.726 7.726z" fill="#c3d5ef"/></g><g><path d="m89.239 235.102h-11.288c-4.268 0-7.726-3.459-7.726-7.726 0-4.268 3.459-7.726 7.726-7.726h11.288c4.268 0 7.726 3.459 7.726 7.726s-3.458 7.726-7.726 7.726z" fill="#c3d5ef"/></g></g><g><g><path d="m44.046 260.636h-11.288c-4.268 0-7.726-3.459-7.726-7.726 0-4.268 3.459-7.726 7.726-7.726h11.288c4.268 0 7.726 3.459 7.726 7.726s-3.458 7.726-7.726 7.726z" fill="#c3d5ef"/></g><g><path d="m89.239 260.636h-11.288c-4.268 0-7.726-3.459-7.726-7.726 0-4.268 3.459-7.726 7.726-7.726h11.288c4.268 0 7.726 3.459 7.726 7.726s-3.458 7.726-7.726 7.726z" fill="#c3d5ef"/></g></g><g><g><path d="m44.046 286.169h-11.288c-4.268 0-7.726-3.459-7.726-7.726 0-4.268 3.459-7.726 7.726-7.726h11.288c4.268 0 7.726 3.459 7.726 7.726 0 4.268-3.458 7.726-7.726 7.726z" fill="#c3d5ef"/></g><g><path d="m89.239 286.169h-11.288c-4.268 0-7.726-3.459-7.726-7.726 0-4.268 3.459-7.726 7.726-7.726h11.288c4.268 0 7.726 3.459 7.726 7.726 0 4.268-3.458 7.726-7.726 7.726z" fill="#c3d5ef"/></g></g><g><g><g><path d="m149.377 61.278c-1.977 0-3.955-.755-5.464-2.263l-.596-.596c-3.017-3.018-3.017-7.909 0-10.928 3.018-3.016 7.909-3.016 10.928 0l.596.596c3.017 3.018 3.017 7.909 0 10.928-1.509 1.508-3.487 2.263-5.464 2.263z" fill="#2b4d66"/></g><g><path d="m484.62 61.278c-1.977 0-3.955-.755-5.464-2.263-3.017-3.018-3.017-7.909 0-10.928l.596-.596c3.018-3.016 7.909-3.016 10.928 0 3.017 3.018 3.017 7.909 0 10.928l-.596.596c-1.509 1.508-3.487 2.263-5.464 2.263z" fill="#2b4d66"/></g></g><g><g><path d="m148.781 466.771c-1.977 0-3.955-.755-5.464-2.263-3.017-3.018-3.017-7.909 0-10.928l.596-.596c3.018-3.016 7.909-3.016 10.928 0 3.017 3.018 3.017 7.909 0 10.928l-.596.596c-1.509 1.508-3.487 2.263-5.464 2.263z" fill="#2b4d66"/></g><g><path d="m485.216 466.771c-1.977 0-3.955-.755-5.464-2.263l-.596-.596c-3.017-3.018-3.017-7.909 0-10.928 3.018-3.016 7.909-3.016 10.928 0l.596.596c3.017 3.018 3.017 7.909 0 10.928-1.509 1.508-3.487 2.263-5.464 2.263z" fill="#2b4d66"/></g></g></g></g></svg>