<svg id="Capa_1" enable-background="new 0 0 512 512" height="512" viewBox="0 0 512 512" width="512" xmlns="http://www.w3.org/2000/svg"><g><g><g><path d="m160.708 117.348c-4.268 0-7.726-3.459-7.726-7.726v-35.126c0-4.268 3.459-7.726 7.726-7.726s7.726 3.459 7.726 7.726v35.126c0 4.267-3.459 7.726-7.726 7.726z" fill="#eab14d"/></g><g><path d="m256 117.348c-4.268 0-7.726-3.459-7.726-7.726v-35.126c0-4.268 3.459-7.726 7.726-7.726s7.726 3.459 7.726 7.726v35.126c0 4.267-3.459 7.726-7.726 7.726z" fill="#eab14d"/></g><g><path d="m351.292 117.348c-4.268 0-7.726-3.459-7.726-7.726v-35.126c0-4.268 3.459-7.726 7.726-7.726s7.726 3.459 7.726 7.726v35.126c.001 4.267-3.458 7.726-7.726 7.726z" fill="#eab14d"/></g></g><g><path d="m479.463 445.231h-446.926c-9.199 0-16.656-7.457-16.656-16.656v-259.796h480.239v259.795c0 9.199-7.458 16.657-16.657 16.657z" fill="#80b4fb"/><path d="m15.88 168.779v28.095h453.003c4.205 0 7.614 3.409 7.614 7.614v224.087c0 9.199-7.457 16.656-16.656 16.656h19.622c9.199 0 16.656-7.457 16.656-16.656v-259.796z" fill="#61a2f9"/></g><path d="m432.593 445.231h-353.186v-178.752c0-7.969 6.46-14.429 14.429-14.429h324.328c7.969 0 14.429 6.46 14.429 14.429z" fill="#9dc6fb"/><path d="m418.164 252.049h-23.196c7.969 0 14.429 6.46 14.429 14.43v178.752h23.196v-178.752c0-7.969-6.46-14.43-14.429-14.43z" fill="#80b4fb"/><path d="m391.845 411.671h-271.69c-4.103 0-7.43-3.326-7.43-7.43v-111.202c0-4.103 3.326-7.43 7.43-7.43h271.69c4.103 0 7.43 3.326 7.43 7.43v111.202c0 4.103-3.327 7.43-7.43 7.43z" fill="#e7ecf6"/><path d="m391.845 285.61h-22.166c4.103 0 7.43 3.326 7.43 7.43v111.202c0 4.103-3.326 7.43-7.43 7.43h22.166c4.103 0 7.43-3.326 7.43-7.43v-111.203c0-4.103-3.327-7.429-7.43-7.429z" fill="#d8e2f1"/><path d="m505.53 179.081h-499.06c-3.573 0-6.47-2.897-6.47-6.47v-15.569c0-3.573 2.897-6.47 6.47-6.47h499.06c3.573 0 6.47 2.897 6.47 6.47v15.569c0 3.573-2.897 6.47-6.47 6.47z" fill="#365e7d"/><path d="m492.766 150.572v28.509h12.764c3.573 0 6.47-2.897 6.47-6.47v-15.569c0-3.573-2.897-6.47-6.47-6.47z" fill="#2b4d66"/><path d="m406.665 150.572h-301.33v-17.063c0-5.871 4.759-10.63 10.63-10.63h280.07c5.871 0 10.63 4.759 10.63 10.63z" fill="#c3d5ef"/><path d="m396.035 122.879h-21.136c5.871 0 10.63 4.759 10.63 10.63v17.063h21.136v-17.063c0-5.871-4.759-10.63-10.63-10.63z" fill="#b7c8ea"/><path d="m72.478 150.572h-45.951v-43.757c0-4.139 3.356-7.495 7.495-7.495h30.961c4.139 0 7.495 3.356 7.495 7.495z" fill="#c3d5ef"/><path d="m64.983 99.32h-17.618c4.139 0 7.495 3.356 7.495 7.495v43.757h17.618v-43.757c0-4.14-3.356-7.495-7.495-7.495z" fill="#b7c8ea"/><path d="m485.473 150.572h-45.951v-43.757c0-4.139 3.356-7.495 7.495-7.495h30.961c4.139 0 7.495 3.356 7.495 7.495z" fill="#c3d5ef"/><path d="m477.978 99.32h-16.528c4.139 0 7.495 3.356 7.495 7.495v43.757h16.528v-43.757c0-4.14-3.356-7.495-7.495-7.495z" fill="#b7c8ea"/><g fill="#df6b57"><path d="m183.904 122.879h-46.393v-17.77c0-3.197 2.592-5.789 5.789-5.789h34.814c3.197 0 5.789 2.592 5.789 5.789v17.77z"/><path d="m279.196 122.879h-46.393v-17.77c0-3.197 2.592-5.789 5.789-5.789h34.814c3.197 0 5.789 2.592 5.789 5.789v17.77z"/><path d="m374.489 122.879h-46.393v-17.77c0-3.197 2.592-5.789 5.789-5.789h34.814c3.197 0 5.789 2.592 5.789 5.789v17.77z"/></g><g><path d="m49.503 133.925c-4.268 0-7.726-3.459-7.726-7.726v-1.443c0-4.268 3.459-7.726 7.726-7.726s7.726 3.459 7.726 7.726v1.443c0 4.267-3.459 7.726-7.726 7.726z" fill="#2b4d66"/></g><g><path d="m462.498 133.925c-4.268 0-7.726-3.459-7.726-7.726v-1.443c0-4.268 3.459-7.726 7.726-7.726s7.726 3.459 7.726 7.726v1.443c0 4.267-3.459 7.726-7.726 7.726z" fill="#2b4d66"/></g><g><path d="m246.711 385.272c-1.535 0-3.086-.457-4.437-1.406-3.491-2.454-4.331-7.274-1.877-10.765l15.828-22.516h-15.326c-2.912 0-5.578-1.638-6.893-4.237-1.316-2.599-1.057-5.716.667-8.063l16.989-23.123c2.527-3.44 7.361-4.18 10.801-1.652 3.439 2.526 4.178 7.362 1.652 10.801l-7.951 10.822h14.938c2.883 0 5.527 1.606 6.857 4.165 1.329 2.559 1.122 5.646-.536 8.005l-24.383 34.686c-1.505 2.139-3.897 3.283-6.329 3.283z" fill="#eab14d"/></g><g><path d="m160.708 319.882h-17.35c-4.268 0-7.726-3.459-7.726-7.726 0-4.268 3.459-7.726 7.726-7.726h17.35c4.268 0 7.726 3.459 7.726 7.726s-3.459 7.726-7.726 7.726z" fill="#2b4d66"/></g><g><path d="m367.851 390.482h-17.35c-4.268 0-7.726-3.459-7.726-7.726s3.459-7.726 7.726-7.726h17.35c4.268 0 7.726 3.459 7.726 7.726s-3.459 7.726-7.726 7.726z" fill="#2b4d66"/></g><g><path d="m181.312 346.729h-37.954c-4.268 0-7.726-3.459-7.726-7.726s3.459-7.726 7.726-7.726h37.954c4.268 0 7.726 3.459 7.726 7.726s-3.459 7.726-7.726 7.726z" fill="#2b4d66"/></g></g></svg>