<svg id="Capa_1" enable-background="new 0 0 512 512" height="512" viewBox="0 0 512 512" width="512" xmlns="http://www.w3.org/2000/svg"><g><path d="m342.287 118.5-21.624 20h-128.02l-22.932-20v-10.056c0-47.655 38.632-86.287 86.287-86.287 47.655 0 86.287 38.632 86.287 86.287v10.056z" fill="#e7ecf6"/><path d="m256 22.157c-4.136 0-8.199.309-12.18.872 41.885 5.92 74.108 41.896 74.108 85.415v30.056l24.359-20v-10.056c0-47.655-38.632-86.287-86.287-86.287z" fill="#d8e2f1"/><path d="m359.863 504.5h-207.727c-5.817 0-10.533-4.716-10.533-10.533v-43.911l8.925-13.605-8.925-13.605v-74.641c0-36.868 29.887-66.755 66.755-66.755h95.282c36.868 0 66.755 29.887 66.755 66.755v74.641l-7.528 13.605 7.528 13.605v43.911c.001 5.817-4.715 10.533-10.532 10.533z" fill="#df6b57"/><path d="m270.931 281.45c40.48 0 73.296 32.816 73.296 73.296v149.754h15.636c5.817 0 10.533-4.716 10.533-10.533v-43.911l-7.528-13.605 7.528-13.605v-74.641c0-36.868-29.887-66.755-66.755-66.755z" fill="#dd544f"/><path d="m256 392.975 30.979-120.201h-61.958z" fill="#eab14d"/><path d="m357.104 152.571h-202.208c-5.424 0-9.821-4.397-9.821-9.821v-14.429c0-5.424 4.397-9.821 9.821-9.821h202.208c5.424 0 9.821 4.397 9.821 9.821v14.429c0 5.424-4.397 9.821-9.821 9.821z" fill="#df6b57"/><path d="m356.816 118.5h-24.797c5.583 0 10.109 4.272 10.109 9.541v14.988c0 5.27-4.526 9.541-10.109 9.541h24.797c5.583 0 10.109-4.272 10.109-9.541v-14.988c0-5.269-4.526-9.541-10.109-9.541z" fill="#dd544f"/><path d="m141.603 422.846h114.397v27.21h-114.397z" fill="#e7ecf6"/><path d="m256 422.846h114.397v27.21h-114.397z" fill="#e7ecf6"/><path d="m344.227 422.846h26.169v27.21h-26.169z" fill="#d8e2f1"/><path d="m229.831 422.846h26.169v27.21h-26.169z" fill="#d8e2f1"/><g><path d="m337.295 375.324h-33.811c-4.143 0-7.5-3.357-7.5-7.5s3.357-7.5 7.5-7.5h33.811c4.143 0 7.5 3.357 7.5 7.5s-3.358 7.5-7.5 7.5z" fill="#e7ecf6"/></g><g><g><path d="m256 42.201c-4.143 0-7.5-3.357-7.5-7.5v-27.201c0-4.143 3.357-7.5 7.5-7.5s7.5 3.357 7.5 7.5v27.201c0 4.143-3.358 7.5-7.5 7.5z" fill="#b7c8ea"/></g><g><g><path d="m222.958 42.534c-2.525 0-4.99-1.275-6.404-3.587l-7.877-12.876c-2.162-3.533-1.05-8.15 2.483-10.312 3.532-2.164 8.149-1.05 10.312 2.483l7.877 12.876c2.162 3.533 1.05 8.15-2.483 10.312-1.223.749-2.573 1.104-3.908 1.104z" fill="#b7c8ea"/></g><g><path d="m289.042 42.534c-1.335 0-2.686-.355-3.907-1.104-3.533-2.161-4.646-6.778-2.483-10.312l7.877-12.876c2.162-3.533 6.78-4.646 10.312-2.483 3.533 2.161 4.646 6.778 2.483 10.312l-7.877 12.876c-1.415 2.312-3.881 3.587-6.405 3.587z" fill="#b7c8ea"/></g></g><g><path d="m272.555 93.52h-33.111c-4.143 0-7.5-3.357-7.5-7.5s3.357-7.5 7.5-7.5h33.111c4.143 0 7.5 3.357 7.5 7.5s-3.357 7.5-7.5 7.5z" fill="#b7c8ea"/></g></g><path d="m160.199 339.811-35.525-35.525c-2.69-2.69-2.69-7.05 0-9.74l15.806-15.806c2.69-2.69 7.05-2.69 9.74 0l35.525 35.525c2.69 2.69 2.69 7.05 0 9.74l-15.806 15.806c-2.69 2.689-7.051 2.689-9.74 0z" fill="#365e7d"/><path d="m185.744 314.265-11.429-11.429c2.69 2.69 2.69 7.05 0 9.74l-15.806 15.806c-2.69 2.69-7.05 2.689-9.74 0l11.429 11.429c2.69 2.69 7.05 2.69 9.74 0l15.806-15.806c2.69-2.689 2.69-7.05 0-9.74z" fill="#2b4d66"/><path d="m173.096 250.669h27.742v53.698h-27.742z" fill="#b7c8ea" transform="matrix(.707 .707 -.707 .707 250.996 -50.923)"/><path d="m387.326 304.286-35.525 35.525c-2.69 2.69-7.05 2.69-9.74 0l-15.806-15.806c-2.69-2.69-2.69-7.05 0-9.74l35.525-35.525c2.69-2.69 7.05-2.69 9.74 0l15.806 15.806c2.69 2.69 2.69 7.051 0 9.74z" fill="#365e7d"/><path d="m361.781 278.741-11.429 11.429c2.69-2.69 7.05-2.69 9.74 0l15.806 15.806c2.69 2.69 2.689 7.05 0 9.74l11.429-11.429c2.69-2.69 2.69-7.05 0-9.74l-15.806-15.806c-2.69-2.69-7.051-2.69-9.74 0z" fill="#2b4d66"/><path d="m311.162 250.669h27.742v53.698h-27.742z" fill="#b7c8ea" transform="matrix(.707 -.707 .707 .707 -101.035 311.116)"/><path d="m256 312.841c-54.928 0-99.457-44.528-99.457-99.456v-60.813h198.913v60.813c0 54.928-44.528 99.456-99.456 99.456z" fill="#365e7d"/><path d="m156.544 152.571v17.69h158.79c11.748 0 21.271 9.523 21.271 21.271v21.852c0 51.749-39.524 94.26-90.031 99.009 3.103.292 6.246.448 9.426.448 54.928 0 99.456-44.528 99.456-99.456v-60.813h-198.912z" fill="#2b4d66"/><circle cx="256" cy="264.603" fill="#eab14d" r="24.066"/><path d="m256 240.537c-2.807 0-5.499.485-8.003 1.368 9.356 3.299 16.062 12.213 16.062 22.697s-6.707 19.398-16.062 22.697c2.504.883 5.197 1.368 8.003 1.368 13.291 0 24.066-10.774 24.066-24.065s-10.775-24.065-24.066-24.065z" fill="#e49542"/><path d="m233.516 215.099-30.98 12.019c-6.514 2.527-13.532-2.279-13.532-9.265v-24.441c0-5.489 4.449-9.938 9.938-9.938h30.587c6.09 0 11.026 4.937 11.026 11.026v10.318c-.001 4.551-2.796 8.635-7.039 10.281z" fill="#e7ecf6"/><path d="m278.484 215.099 30.98 12.019c6.514 2.527 13.532-2.279 13.532-9.265v-24.441c0-5.489-4.449-9.938-9.938-9.938h-30.587c-6.09 0-11.026 4.937-11.026 11.026v10.318c.001 4.551 2.796 8.635 7.039 10.281z" fill="#e7ecf6"/><g><path d="m256.001 512c-4.143 0-7.5-3.357-7.5-7.5v-145.871c0-4.143 3.357-7.5 7.5-7.5s7.5 3.357 7.5 7.5v145.871c0 4.143-3.358 7.5-7.5 7.5z" fill="#eab14d"/></g></g></svg>