<svg id="Capa_1" enable-background="new 0 0 512 512" height="512" viewBox="0 0 512 512" width="512" xmlns="http://www.w3.org/2000/svg"><g><path d="m87.598 29.418v453.164c0 16.247 75.396 29.418 168.402 29.418s168.402-13.171 168.402-29.418v-453.164z" fill="#365e7d"/><path d="m87.598 29.418v34.548c45.349 6.752 104.145 10.83 168.402 10.83 40.882 0 79.549-1.652 113.952-4.592 15.554-1.329 28.902 10.952 28.902 26.563v385.816c0 15.496-68.589 28.194-155.628 29.334 4.217.054 8.476.083 12.774.083 93.006 0 168.402-13.171 168.402-29.418v-453.164z" fill="#2b4d66"/><ellipse cx="256" cy="29.418" fill="#c3d5ef" rx="168.402" ry="29.418"/><path d="m256 0c-7.406 0-14.699.084-21.852.246 82.682 1.872 146.55 14.218 146.55 29.172s-63.868 27.3-146.55 29.172c7.153.162 14.446.246 21.852.246 93.006 0 168.402-13.171 168.402-29.418s-75.396-29.418-168.402-29.418z" fill="#b7c8ea"/><g><path d="m256 191.839c-47.503 0-92.226-3.096-125.928-8.718-16.713-2.788-29.94-6.077-39.312-9.772-4.628-1.825-18.709-7.379-18.709-18.65 0-10.19 11.319-15.385 15.039-17.091 3.826-1.754 8.329-.028 10.058 3.858 1.728 3.887.028 8.462-3.798 10.217-2.732 1.254-4.326 2.295-5.23 3.011 3.077 2.425 14.119 8.634 50.393 14.136 32.149 4.878 73.873 7.564 117.487 7.564s85.339-2.686 117.488-7.564c36.274-5.502 47.316-11.711 50.393-14.136-.904-.716-2.498-1.757-5.23-3.011-3.826-1.756-5.527-6.33-3.798-10.217s6.235-5.614 10.058-3.858c3.719 1.706 15.039 6.901 15.039 17.091 0 11.271-14.081 16.825-18.709 18.65-9.371 3.695-22.598 6.984-39.312 9.772-33.704 5.622-78.425 8.718-125.929 8.718zm168.97-36.086h.011z" fill="#b7c8ea"/></g><g><path d="m256 381.856c-47.504 0-92.226-3.096-125.928-8.718-16.713-2.788-29.94-6.077-39.312-9.773-4.628-1.825-18.709-7.379-18.709-18.65 0-10.192 11.319-15.385 15.04-17.09 3.829-1.756 8.33-.028 10.057 3.859 1.728 3.887.027 8.462-3.799 10.216-2.731 1.253-4.325 2.295-5.229 3.01 3.077 2.426 14.119 8.634 50.392 14.137 32.149 4.878 73.874 7.564 117.488 7.564 43.615 0 85.34-2.686 117.489-7.564 36.27-5.502 47.314-11.711 50.392-14.136-.904-.716-2.498-1.758-5.229-3.011-3.827-1.756-5.528-6.33-3.799-10.216 1.727-3.886 6.229-5.618 10.057-3.859 3.72 1.706 15.04 6.899 15.04 17.09 0 11.271-14.081 16.825-18.709 18.65-9.371 3.696-22.598 6.985-39.312 9.773-33.703 5.622-78.425 8.718-125.929 8.718zm168.971-36.086h.01z" fill="#b7c8ea"/></g><g><path d="m174.317 37.14h-14.22c-4.266 0-7.723-3.457-7.723-7.723s3.457-7.723 7.723-7.723h14.22c4.266 0 7.723 3.457 7.723 7.723s-3.457 7.723-7.723 7.723z" fill="#2b4d66"/></g><circle cx="256" cy="278.09" fill="#df6b57" r="65.727"/><path d="m256 212.363c-3.937 0-7.786.366-11.532 1.029 30.798 5.454 54.195 32.335 54.195 64.698s-23.397 59.244-54.195 64.698c3.746.663 7.596 1.029 11.532 1.029 36.3 0 65.727-29.427 65.727-65.727s-29.427-65.727-65.727-65.727z" fill="#dd544f"/></g></svg>