<svg id="Capa_1" enable-background="new 0 0 512 512" height="512" viewBox="0 0 512 512" width="512" xmlns="http://www.w3.org/2000/svg"><g><path d="m36.275 280.534h162.87v83.427h-162.87z" fill="#c3d5ef"/><path d="m127.794 322.248c0 14.754 2.883 28.833 8.104 41.714h63.246v-83.427h-63.246c-5.221 12.88-8.104 26.959-8.104 41.713z" fill="#b7c8ea"/><g><path d="m101.722 375.584c-4.267 0-7.726-3.459-7.726-7.726v-91.22c0-4.268 3.459-7.726 7.726-7.726s7.726 3.459 7.726 7.726v91.22c.001 4.267-3.458 7.726-7.726 7.726z" fill="#365e7d"/></g><path d="m312.855 280.534h162.87v83.427h-162.87z" fill="#c3d5ef" transform="matrix(-1 0 0 -1 788.581 644.495)"/><path d="m457.588 280.534h18.137v83.427h-18.137z" fill="#b7c8ea"/><path d="m6.629 381.311h23.017c3.661 0 6.629-2.968 6.629-6.629v-104.87c0-3.661-2.968-6.629-6.629-6.629h-23.017c-3.661 0-6.629 2.968-6.629 6.629v104.87c0 3.661 2.968 6.629 6.629 6.629z" fill="#365e7d"/><path d="m29.646 263.184h-16.077c3.661 0 6.629 2.968 6.629 6.629v104.87c0 3.661-2.968 6.629-6.629 6.629h16.077c3.661 0 6.629-2.968 6.629-6.629v-104.87c0-3.661-2.968-6.629-6.629-6.629z" fill="#2b4d66"/><path d="m505.371 381.311h-23.017c-3.661 0-6.629-2.968-6.629-6.629v-104.87c0-3.661 2.968-6.629 6.629-6.629h23.017c3.661 0 6.629 2.968 6.629 6.629v104.87c0 3.661-2.968 6.629-6.629 6.629z" fill="#365e7d"/><path d="m505.371 263.184h-18.137c3.661 0 6.629 2.968 6.629 6.629v104.87c0 3.661-2.968 6.629-6.629 6.629h18.137c3.661 0 6.629-2.968 6.629-6.629v-104.87c0-3.661-2.968-6.629-6.629-6.629z" fill="#2b4d66"/><path d="m297.714 315.247v-152.864c0-5.526-4.48-10.006-10.006-10.006h-63.415c-5.526 0-10.006 4.48-10.006 10.006v152.864z" fill="#c3d5ef"/><path d="m287.708 152.377h-18.119c5.526 0 10.006 4.48 10.006 10.006v152.864h18.119v-152.864c0-5.526-4.48-10.006-10.006-10.006z" fill="#b7c8ea"/><g><path d="m410.277 375.584c-4.268 0-7.726-3.459-7.726-7.726v-91.22c0-4.268 3.459-7.726 7.726-7.726s7.726 3.459 7.726 7.726v91.22c.001 4.267-3.458 7.726-7.726 7.726z" fill="#365e7d"/></g><circle cx="256" cy="322.248" fill="#df6b57" r="111.117"/><path d="m256 211.131c-3.76 0-7.477.189-11.141.554 56.136 5.589 99.976 52.955 99.976 110.563s-43.839 104.974-99.976 110.563c3.664.365 7.381.554 11.141.554 61.368 0 111.117-49.749 111.117-111.117s-49.749-111.117-111.117-111.117z" fill="#dd544f"/><g><g><path d="m259.439 377.985c-4.016 0-7.406-3.105-7.699-7.173l-2.968-41.337-41.338-2.969c-4.256-.306-7.459-4.003-7.153-8.26s4.018-7.476 8.26-7.153l48.012 3.448c3.83.275 6.878 3.322 7.153 7.153l3.447 48.011c.306 4.257-2.896 7.955-7.153 8.26-.188.014-.375.02-.561.02z" fill="#2b4d66"/></g><g><path d="m256 329.974c-1.977 0-3.955-.755-5.463-2.263-3.018-3.018-3.018-7.909 0-10.928l34.043-34.044c3.018-3.016 7.909-3.016 10.928 0 3.017 3.018 3.017 7.909 0 10.928l-34.044 34.044c-1.509 1.509-3.486 2.263-5.464 2.263z" fill="#2b4d66"/></g><g><path d="m256 378.094c-14.308 0-28.615-5.447-39.508-16.338-21.784-21.786-21.784-57.231 0-79.016 21.785-21.783 57.231-21.784 79.015 0 21.784 21.785 21.784 57.23 0 79.015v.001c-10.892 10.891-25.2 16.338-39.507 16.338zm0-96.247c-10.352 0-20.7 3.939-28.581 11.82-15.759 15.759-15.759 41.401 0 57.162 15.76 15.759 41.403 15.76 57.161-.001 15.76-15.76 15.76-41.402 0-57.161-7.878-7.879-18.23-11.82-28.58-11.82zm34.044 74.445h.01z" fill="#365e7d"/></g></g><path d="m314.882 107.51h-117.764c-4.892 0-8.857-3.966-8.857-8.857v-11.16c0-4.892 3.966-8.857 8.857-8.857h117.764c4.892 0 8.857 3.966 8.857 8.857v11.16c0 4.891-3.965 8.857-8.857 8.857z" fill="#df6b57"/><path d="m314.882 78.636h-20.222c4.892 0 8.857 3.965 8.857 8.857v11.159c0 4.892-3.966 8.857-8.857 8.857h20.222c4.892 0 8.857-3.965 8.857-8.857v-11.159c0-4.892-3.965-8.857-8.857-8.857z" fill="#dd544f"/><path d="m239.941 107.51h32.117v44.868h-32.117z" fill="#365e7d"/><path d="m239.941 107.509h32.117v15.467h-32.117z" fill="#2b4d66"/><g><g><path d="m256 249.508c-4.267 0-7.726-3.459-7.726-7.726v-2.819c0-4.268 3.459-7.726 7.726-7.726s7.727 3.459 7.727 7.726v2.819c0 4.268-3.46 7.726-7.727 7.726z" fill="#2b4d66"/></g><g><path d="m339.284 329.974h-2.819c-4.268 0-7.726-3.459-7.726-7.726s3.459-7.726 7.726-7.726h2.819c4.268 0 7.726 3.459 7.726 7.726s-3.458 7.726-7.726 7.726z" fill="#2b4d66"/></g><g><path d="m256 413.259c-4.267 0-7.726-3.459-7.726-7.726v-2.82c0-4.268 3.459-7.726 7.726-7.726s7.727 3.459 7.727 7.726v2.82c0 4.267-3.46 7.726-7.727 7.726z" fill="#2b4d66"/></g><g><path d="m175.534 329.974h-2.819c-4.267 0-7.726-3.459-7.726-7.726s3.459-7.726 7.726-7.726h2.819c4.267 0 7.726 3.459 7.726 7.726s-3.459 7.726-7.726 7.726z" fill="#2b4d66"/></g></g></g></svg>