<svg id="Capa_1" enable-background="new 0 0 512 512" height="512" viewBox="0 0 512 512" width="512" xmlns="http://www.w3.org/2000/svg"><g><path d="m255.083 208.143-34.676 34.676c-19.12 19.12-29.875 45.06-29.875 72.113v117.307c0 9.776-7.922 17.709-17.699 17.709h-155.124c-9.777-.001-17.709-7.933-17.709-17.709v-330.091c0-6.583 2.668-12.537 6.974-16.843 4.317-4.306 10.271-6.974 16.844-6.974 13.155 0 23.818 10.662 23.818 23.818v-36.243c0-6.583 2.668-12.537 6.974-16.843 4.317-4.306 10.271-6.974 16.844-6.974 13.155 0 23.818 10.662 23.818 23.818v-42.094c0-13.444 11.136-24.281 24.683-23.797 12.908.453 22.952 11.456 22.952 24.374v33.296c0-6.583 2.668-12.537 6.974-16.843 4.317-4.306 10.271-6.974 16.844-6.974 13.145 0 23.808 10.662 23.808 23.818v122.478c0 9.282 11.229 13.938 17.791 7.366l13.073-13.073c9.303-9.292 24.384-9.292 33.687 0 9.302 9.301 9.302 24.383-.001 33.685z" fill="#eab14d"/><path d="m162.202 57.685v122.478c0 9.282 11.229 13.938 17.791 7.366l10.539-10.539v-119.305c0-13.155-10.662-23.818-23.808-23.818-5.304 0-10.205 1.74-14.168 4.674 5.851 4.34 9.646 11.298 9.646 19.144z" fill="#e49542"/><path d="m255.083 174.456c-8.459-8.45-21.683-9.189-31.009-2.272.93.69 1.835 1.429 2.679 2.272 9.302 9.303 9.302 24.384 0 33.687l-34.676 34.676c-19.12 19.12-29.875 45.06-29.875 72.113v117.307c0 9.776-7.922 17.709-17.699 17.709h28.33c9.776 0 17.699-7.932 17.699-17.709v-117.307c0-27.053 10.755-52.992 29.875-72.113l34.676-34.676c9.303-9.302 9.303-24.384 0-33.687z" fill="#e49542"/><g><path d="m142.903 160.193c-4.268 0-7.726-3.459-7.726-7.726v-94.786c0-4.268 3.459-7.726 7.726-7.726s7.726 3.459 7.726 7.726v94.786c0 4.268-3.458 7.726-7.726 7.726z" fill="#e49542"/></g><g><path d="m95.268 168.147c-4.268 0-7.726-3.459-7.726-7.726v-94.518c0-4.268 3.459-7.726 7.726-7.726 4.268 0 7.726 3.459 7.726 7.726v94.518c.001 4.267-3.458 7.726-7.726 7.726z" fill="#e49542"/></g><g><path d="m47.634 177.542c-4.268 0-7.726-3.459-7.726-7.726v-67.666c0-4.268 3.459-7.726 7.726-7.726s7.726 3.459 7.726 7.726v67.666c.001 4.268-3.458 7.726-7.726 7.726z" fill="#e49542"/></g><path d="m0 338.791h190.532v35.407h-190.532z" fill="#e7ecf6"/><path d="m162.202 338.791h28.33v35.407h-28.33z" fill="#d8e2f1"/><path d="m256.917 303.857 34.676-34.676c19.12-19.12 29.875-45.06 29.875-72.113v-117.306c0-9.776 7.922-17.709 17.699-17.709h155.125c9.776 0 17.709 7.932 17.709 17.709v330.091c0 6.583-2.668 12.537-6.974 16.843-4.317 4.306-10.271 6.974-16.844 6.974-13.155 0-23.818-10.662-23.818-23.818v36.242c0 6.583-2.668 12.537-6.974 16.843-4.317 4.306-10.271 6.974-16.844 6.974-13.155 0-23.818-10.662-23.818-23.818v42.093c0 13.444-11.136 24.281-24.683 23.797-12.908-.453-22.952-11.456-22.952-24.374v-33.296c0 6.583-2.668 12.537-6.974 16.843-4.317 4.306-10.271 6.974-16.844 6.974-13.145 0-23.808-10.662-23.808-23.818v-122.475c0-9.282-11.229-13.938-17.791-7.366l-13.073 13.073c-9.303 9.292-24.384 9.292-33.687 0-9.303-9.303-9.303-24.384 0-33.687z" fill="#eab14d"/><path d="m494.291 62.053h-24.033c9.776 0 17.709 7.932 17.709 17.709v330.091c0 6.583-2.668 12.537-6.974 16.844-1.439 1.436-3.064 2.684-4.829 3.717 3.528 2.067 7.634 3.257 12.019 3.257 6.573 0 12.527-2.668 16.844-6.974 4.306-4.306 6.974-10.261 6.974-16.844v-330.091c-.001-9.777-7.933-17.709-17.71-17.709z" fill="#e49542"/><g><path d="m369.097 462.045c-4.268 0-7.726-3.459-7.726-7.726v-94.786c0-4.268 3.459-7.726 7.726-7.726s7.726 3.459 7.726 7.726v94.786c.001 4.267-3.458 7.726-7.726 7.726z" fill="#e49542"/></g><g><path d="m416.732 453.824c-4.268 0-7.726-3.459-7.726-7.726v-94.519c0-4.268 3.459-7.726 7.726-7.726s7.726 3.459 7.726 7.726v94.519c0 4.267-3.458 7.726-7.726 7.726z" fill="#e49542"/></g><g><path d="m464.366 417.577c-4.268 0-7.726-3.459-7.726-7.726v-67.667c0-4.268 3.459-7.726 7.726-7.726s7.726 3.459 7.726 7.726v67.667c0 4.267-3.458 7.726-7.726 7.726z" fill="#e49542"/></g><path d="m321.468 137.802h190.532v35.407h-190.532z" fill="#e7ecf6"/><path d="m487.967 137.802h24.033v35.407h-24.033z" fill="#d8e2f1"/></g></svg>