<svg id="Capa_1" enable-background="new 0 0 512 512" height="512" viewBox="0 0 512 512" width="512" xmlns="http://www.w3.org/2000/svg"><g><g><path d="m73.264 278.265c-4.142 0-7.5-3.357-7.5-7.5v-78.883c0-4.142 3.358-7.5 7.5-7.5s7.5 3.358 7.5 7.5v78.883c0 4.143-3.358 7.5-7.5 7.5z" fill="#365e7d"/></g><path d="m262.844 357.581h117.526v33.738h-117.526z" fill="#365e7d"/><path d="m325.997 391.319h54.373v-33.738h-51.51z" fill="#2b4d66"/><path d="m262.844 504.5h-238.114v-269.814c0-1.311 1.316-2.212 2.538-1.739l234.384 90.796c.718.278 1.191.969 1.191 1.739v179.018z" fill="#e7ecf6"/><path d="m27.269 232.948c-1.222-.473-2.538.428-2.538 1.739v21.707l197.573 76.536c11.216 4.345 18.608 15.136 18.608 27.164v144.406h21.933v-179.017c0-.77-.473-1.461-1.191-1.739z" fill="#d8e2f1"/><path d="m220.662 344.957c1.306.46 2.179 1.694 2.179 3.079v46.595c0 1.803-1.462 3.265-3.265 3.265h-151.581c-1.803 0-3.265-1.462-3.265-3.265v-100.053c0-1.059.514-2.053 1.379-2.665s1.973-.766 2.972-.414l49.24 17.366 50.93 17.96z" fill="#80b4fb"/><path d="m169.25 326.825-50.93-17.96-49.24-17.366c-.999-.352-2.107-.198-2.972.414s-1.379 1.605-1.379 2.665v12.543l31.739 11.194 50.93 17.96 43.408 15.309c6.101 2.152 10.182 7.918 10.182 14.388v31.923h18.587c1.803 0 3.265-1.462 3.265-3.265v-46.595c0-1.384-.873-2.618-2.179-3.079z" fill="#61a2f9"/><path d="m436.19 431.261-16.49 20h-59.54l-16.49-20 11-129.62 5.49-64.81.958-11.286 10.785-19.194c.152-2.449 1.651-4.33 3.449-4.33h29.157c1.798 0 3.297 1.882 3.449 4.33l10.858 20.051 6.385 75.239 5.49 64.81z" fill="#c3d5ef"/><path d="m430.69 366.451-5.49-64.81-10.633-125.29c-.208-2.449-2.256-4.33-4.713-4.33h-18.26c2.457 0 4.505 1.882 4.713 4.33l10.633 125.29 5.49 64.81 5.5 84.81 18.26-20z" fill="#b7c8ea"/><path d="m419.7 236.831h-59.54l5.133-60.48c.208-2.449 2.256-4.33 4.713-4.33h39.849c2.457 0 4.505 1.882 4.713 4.33z" fill="#eab14d"/><path d="m396.308 176.351 5.133 60.48h18.26l-5.133-60.48c-.208-2.449-2.256-4.33-4.713-4.33h-18.26c2.457 0 4.505 1.881 4.713 4.33z" fill="#e49542"/><path d="m430.69 366.451h-81.52l5.5-64.81h70.53z" fill="#eab14d"/><path d="m430.69 366.451-5.49-64.81h-18.26l5.49 64.81z" fill="#e49542"/><path d="m193.727 504.5h-99.879v-47.405c0-1.803 1.462-3.265 3.265-3.265h93.35c1.803 0 3.265 1.462 3.265 3.265v47.405z" fill="#80b4fb"/><path d="m172.588 453.831v50.67h21.138v-47.405c0-1.803-1.462-3.265-3.265-3.265z" fill="#61a2f9"/><g><path d="m118.32 405.395c-4.142 0-7.5-3.357-7.5-7.5v-89.03c0-4.143 3.358-7.5 7.5-7.5s7.5 3.357 7.5 7.5v89.03c0 4.143-3.358 7.5-7.5 7.5z" fill="#365e7d"/></g><g><path d="m169.25 405.395c-4.142 0-7.5-3.357-7.5-7.5v-71.07c0-4.143 3.358-7.5 7.5-7.5s7.5 3.357 7.5 7.5v71.07c0 4.143-3.357 7.5-7.5 7.5z" fill="#365e7d"/></g><g><path d="m397.931 154.536c-4.143 0-7.5-3.358-7.5-7.5v-10.961c0-14.574 11.857-26.432 26.432-26.432 10.934 0 19.828-8.895 19.828-19.829v-10.537c0-10.933-8.895-19.828-19.828-19.828h-25.974c-14.732 0-26.719-11.986-26.719-26.718v-25.231c0-4.142 3.357-7.5 7.5-7.5s7.5 3.358 7.5 7.5v25.23c0 6.461 5.257 11.718 11.719 11.718h25.974c19.204 0 34.828 15.624 34.828 34.828v10.538c0 19.205-15.624 34.829-34.828 34.829-6.304 0-11.432 5.128-11.432 11.432v10.961c0 4.142-3.358 7.5-7.5 7.5z" fill="#c3d5ef"/></g><g><path d="m369.217 147.313c-4.143 0-7.5-3.358-7.5-7.5v-12.201c0-5.101-4.15-9.251-9.251-9.251-13.371 0-24.25-10.879-24.25-24.25v-16.264c0-4.142 3.357-7.5 7.5-7.5s7.5 3.358 7.5 7.5v16.264c0 5.101 4.149 9.25 9.25 9.25 13.372 0 24.251 10.879 24.251 24.251v12.201c0 4.143-3.358 7.5-7.5 7.5z" fill="#c3d5ef"/></g><g><path d="m407.931 29.328c-4.143 0-7.5-3.358-7.5-7.5v-14.261c0-4.142 3.357-7.5 7.5-7.5s7.5 3.358 7.5 7.5v14.261c0 4.142-3.358 7.5-7.5 7.5z" fill="#c3d5ef"/></g><path d="m487.27 504.5h-224.426v-73.238h210.063c7.933 0 14.363 6.431 14.363 14.364z" fill="#e7ecf6"/><path d="m472.907 431.262h-21.874c7.933 0 14.363 6.431 14.363 14.364v58.874h21.874v-58.874c0-7.933-6.43-14.364-14.363-14.364z" fill="#d8e2f1"/><g><g><path d="m304.798 474.381c-4.143 0-7.5-3.357-7.5-7.5v-7.079c0-4.143 3.357-7.5 7.5-7.5s7.5 3.357 7.5 7.5v7.079c0 4.143-3.358 7.5-7.5 7.5z" fill="#61a2f9"/></g><g><path d="m351.638 474.381c-4.143 0-7.5-3.357-7.5-7.5v-7.079c0-4.143 3.357-7.5 7.5-7.5s7.5 3.357 7.5 7.5v7.079c0 4.143-3.358 7.5-7.5 7.5z" fill="#61a2f9"/></g><g><path d="m398.478 474.381c-4.143 0-7.5-3.357-7.5-7.5v-7.079c0-4.143 3.357-7.5 7.5-7.5s7.5 3.357 7.5 7.5v7.079c0 4.143-3.358 7.5-7.5 7.5z" fill="#61a2f9"/></g><g><path d="m445.316 474.381c-4.143 0-7.5-3.357-7.5-7.5v-7.079c0-4.143 3.357-7.5 7.5-7.5s7.5 3.357 7.5 7.5v7.079c0 4.143-3.357 7.5-7.5 7.5z" fill="#61a2f9"/></g></g><g><path d="m504.5 512h-497c-4.142 0-7.5-3.357-7.5-7.5s3.358-7.5 7.5-7.5h497c4.143 0 7.5 3.357 7.5 7.5s-3.357 7.5-7.5 7.5z" fill="#95d6a4"/></g></g></svg>