<svg id="Capa_1" enable-background="new 0 0 512 512" height="512" viewBox="0 0 512 512" width="512" xmlns="http://www.w3.org/2000/svg"><g><g><path d="m122.401 330.605c-4.143 0-7.5-3.357-7.5-7.5v-78.961c0-4.143 3.357-7.5 7.5-7.5s7.5 3.357 7.5 7.5v78.961c0 4.143-3.357 7.5-7.5 7.5z" fill="#365e7d"/></g><g><path d="m133.515 261.696h-22.226c-4.143 0-7.5-3.357-7.5-7.5s3.357-7.5 7.5-7.5h22.226c4.143 0 7.5 3.357 7.5 7.5s-3.358 7.5-7.5 7.5z" fill="#2b4d66"/></g><path d="m401.449 129.578h73.939v341.562h-73.939z" fill="#e7ecf6"/><path d="m455.514 129.578h19.874v341.562h-19.874z" fill="#d8e2f1"/><path d="m436.014 471.139h-343.345v-162.018c0-3.322 2.693-6.015 6.015-6.015h331.314c3.322 0 6.015 2.693 6.015 6.015v162.018z" fill="#80b4fb"/><path d="m429.999 303.105h-19.874c3.322 0 6.016 2.693 6.016 6.016v162.019h19.874v-162.019c-.001-3.323-2.694-6.016-6.016-6.016z" fill="#61a2f9"/><path d="m319.648 471.139h-110.614v-57.098c0-1.361 1.104-2.465 2.465-2.465h105.684c1.361 0 2.465 1.104 2.465 2.465z" fill="#365e7d"/><path d="m300.546 411.577v59.562h19.102v-57.098c0-1.361-1.104-2.465-2.465-2.465h-16.637z" fill="#2b4d66"/><path d="m388.362 373.138h-248.04c-2.535 0-4.59-2.055-4.59-4.59v-27.159c0-2.535 2.055-4.59 4.59-4.59h248.04c2.535 0 4.59 2.055 4.59 4.59v27.159c0 2.535-2.055 4.59-4.59 4.59z" fill="#d3effb"/><g><g><path d="m179.106 379.188c-4.143 0-7.5-3.357-7.5-7.5v-33.44c0-4.143 3.357-7.5 7.5-7.5s7.5 3.357 7.5 7.5v33.44c0 4.143-3.357 7.5-7.5 7.5z" fill="#b1e4f9"/></g><g><path d="m221.724 379.188c-4.143 0-7.5-3.357-7.5-7.5v-33.44c0-4.143 3.357-7.5 7.5-7.5s7.5 3.357 7.5 7.5v33.44c0 4.143-3.358 7.5-7.5 7.5z" fill="#b1e4f9"/></g><g><path d="m264.342 379.188c-4.143 0-7.5-3.357-7.5-7.5v-33.44c0-4.143 3.357-7.5 7.5-7.5s7.5 3.357 7.5 7.5v33.44c0 4.143-3.358 7.5-7.5 7.5z" fill="#b1e4f9"/></g><g><path d="m306.959 379.188c-4.143 0-7.5-3.357-7.5-7.5v-33.44c0-4.143 3.357-7.5 7.5-7.5s7.5 3.357 7.5 7.5v33.44c0 4.143-3.357 7.5-7.5 7.5z" fill="#b1e4f9"/></g><g><path d="m349.577 379.188c-4.143 0-7.5-3.357-7.5-7.5v-33.44c0-4.143 3.357-7.5 7.5-7.5s7.5 3.357 7.5 7.5v33.44c0 4.143-3.357 7.5-7.5 7.5z" fill="#b1e4f9"/></g></g><g><path d="m486.04 137.078h-95.244c-4.143 0-7.5-3.357-7.5-7.5s3.357-7.5 7.5-7.5h95.244c4.143 0 7.5 3.357 7.5 7.5s-3.357 7.5-7.5 7.5z" fill="#80b4fb"/></g><g><path d="m486.04 178.622h-95.244c-4.143 0-7.5-3.357-7.5-7.5s3.357-7.5 7.5-7.5h95.244c4.143 0 7.5 3.357 7.5 7.5s-3.357 7.5-7.5 7.5z" fill="#80b4fb"/></g><path d="m166.151 40.86h118.032v262.245h-118.032z" fill="#e7ecf6"/><path d="m263.865 40.86h20.318v262.245h-20.318z" fill="#d8e2f1"/><g><path d="m296.038 48.36h-141.743c-4.143 0-7.5-3.357-7.5-7.5s3.357-7.5 7.5-7.5h141.743c4.143 0 7.5 3.357 7.5 7.5s-3.357 7.5-7.5 7.5z" fill="#80b4fb"/></g><g><path d="m296.038 92.423h-141.743c-4.143 0-7.5-3.357-7.5-7.5s3.357-7.5 7.5-7.5h141.743c4.143 0 7.5 3.357 7.5 7.5s-3.357 7.5-7.5 7.5z" fill="#80b4fb"/></g><path d="m401.449 229.384-64.426-64.426c-3.281-3.282-7.732-5.126-12.374-5.126h-40.466v35h33.217l84.049 84.049z" fill="#365e7d"/><path d="m384.479 261.911 16.969 16.969v-49.496l-16.969-16.969z" fill="#2b4d66"/><path d="m284.183 159.832h19.777v35h-19.777z" fill="#2b4d66"/><path d="m92.669 365.732h-22.32c-24.476 0-44.389 19.913-44.389 44.389v61.019h35v-61.019c0-5.177 4.212-9.389 9.389-9.389h22.32z" fill="#df6b57"/><path d="m74.136 365.732h18.533v35h-18.533z" fill="#dd544f"/><g><path d="m504.5 478.64h-497c-4.143 0-7.5-3.357-7.5-7.5s3.357-7.5 7.5-7.5h497c4.143 0 7.5 3.357 7.5 7.5s-3.357 7.5-7.5 7.5z" fill="#95d6a4"/></g></g></svg>