<svg height="512" viewBox="0 0 64 64" width="512" xmlns="http://www.w3.org/2000/svg"><g id="Layer_8" data-name="Layer 8"><path d="m40 21-3 29-.057 1.553h-9.984l.041-1.553-3-29z" fill="#f5b54f"/><path d="m36 21-3 29h-2l-3-29z" fill="#ffc76f"/><path d="m44 58-4-8h-16l-4 8v1.573h24.186z" fill="#f5b54f"/><rect fill="#f19537" height="4" rx="2" width="32" x="16" y="58"/><circle cx="32" cy="16" fill="#f19537" r="14"/><path d="m32 2a13.945 13.945 0 0 0 -10.237 4.472 13.983 13.983 0 0 0 23.474 14.056 13.974 13.974 0 0 0 -13.237-18.528z" fill="#f5b54f"/><path d="m36 14h-2v-4h-4v4h-2v-5a1 1 0 0 1 1-1h6a1 1 0 0 1 1 1z" fill="#578ff2"/><path d="m24 13h16v10h-16z" fill="#578ff2"/><path d="m24 13 3 4h10l3-4z" fill="#3a64db"/><path d="m31 17h2v3h-2z" fill="#7db2ff"/><path d="m26.033 50a6.077 6.077 0 0 0 6.052 6.573h11.2l-3.285-6.573z" fill="#ffc76f"/></g></svg>