<svg height="512" viewBox="0 0 64 64" width="512" xmlns="http://www.w3.org/2000/svg"><g id="i"><g><path d="m17.52 39.453-7.52 17.547 8-3 3.977 8 7.139-16.381z" fill="#fadd60"/><path d="m46.48 39.453 7.52 17.547-8-3-3.977 8-7.138-16.381z" fill="#fadd60"/><path d="m34.724 2.431c4.132-1.338 8.625.523 10.601 4.391.847 1.658 2.195 3.006 3.853 3.853 3.868 1.976 5.729 6.469 4.391 10.601-.573 1.771-.573 3.677 0 5.448 1.338 4.133-.523 8.625-4.391 10.601-1.658.847-3.006 2.195-3.853 3.853-1.976 3.868-6.468 5.729-10.601 4.391-1.771-.573-3.677-.573-5.448 0-4.132 1.338-8.625-.523-10.601-4.391-.847-1.658-2.195-3.006-3.853-3.853-3.868-1.976-5.729-6.469-4.391-10.601.573-1.771.573-3.677 0-5.448-1.338-4.133.523-8.625 4.391-10.601 1.658-.847 3.006-2.195 3.853-3.853 1.976-3.868 6.468-5.729 10.601-4.391 1.771.573 3.677.573 5.448 0z" fill="#ec525b"/><circle cx="32" cy="24" fill="#fadd60" r="17"/><path d="m32 7c-4.185 0-8.011 1.519-10.973 4.027-2.508 2.962-4.027 6.788-4.027 10.973 0 9.389 7.611 17 17 17 4.185 0 8.011-1.519 10.973-4.027 2.508-2.962 4.027-6.788 4.027-10.973 0-9.389-7.611-17-17-17z" fill="#ffeb99"/><g><path d="m42 26.5c0 .56-.19 1.09-.5 1.5.31.42.5.94.5 1.5 0 .69-.28 1.32-.73 1.77-.24.24-.53.43-.86.56.37.37.59.88.59 1.43 0 1-.73 1.85-1.72 2.01l-2.61.4-5.54.85c-2.06.32-4.16.14-6.13-.52l-3.67 1.23h-.01c-3.13-2.53-5.34-6.14-6.06-10.26l4.16-.52c1.6-.2 3.15-.65 4.6-1.33h.01c-.02-.17-.03-.33-.03-.5 0-1.06.29-2.1.83-3.01 1.43-2.38 3.31-4.47 5.54-6.14l.63-.47 1.49-2.98c.31-.62.95-1.02 1.66-1.02 1.02 0 1.85.83 1.85 1.85 0 1.4-.45 2.75-1.29 3.87-.69.92-1.19 1.98-1.46 3.08l5.44-.5c1.78-.16 3.31 1.24 3.31 3.02 0 .76-.28 1.47-.76 2.01-.06.07-.13.14-.2.2.59.46.96 1.17.96 1.97z" fill="#f2b9a1"/><path d="m39.132 35.293-2.223-.596-1.211-.303c-.411-.103-.698-.47-.698-.894 0-.228.089-.436.233-.601.232.059.471.1.721.1h3.547c.472 0 .93-.092 1.362-.274l.051-.021c-.095-.331-.263-.633-.503-.873.022-.009.04-.022.061-.031l-.387-.917c-.185.078-.381.118-.584.118h-3.546c-.526 0-.954-.429-.954-.954 0-.085.035-.163.057-.244.333.122.689.199 1.064.199h3.379c.926 0 1.792-.377 2.44-1.012-.077-.363-.227-.7-.44-.988.025-.033.044-.071.067-.106l-.823-.556c-.28.415-.746.662-1.245.662h-3.379c-.618 0-1.121-.503-1.121-1.121 0-.052.021-.099.028-.15.177.038.357.064.54.064.106 0 .212-.007.318-.02l3.58-.448c.834-.104 1.598-.461 2.217-1.027-.163-.295-.377-.56-.643-.768l-.682-.725c-.315.296-.709.481-1.139.535l-3.581.448c-.221.026-.374-.075-.446-.138s-.192-.203-.192-.425c0-.261.177-.488.43-.551l2.812-.703-.485-1.94-2.812.703c-1.146.286-1.945 1.311-1.945 2.491 0 .447.129.875.345 1.257-.217.431-.345.904-.345 1.398 0 .594.175 1.143.464 1.616-.288.464-.464.996-.464 1.55 0 .647.215 1.241.57 1.728-.361.491-.57 1.088-.57 1.727 0 1.057.569 1.997 1.444 2.511l2.226-.341 2.462-.377z" fill="#d08d78"/></g><g fill="#ec525b"><path d="m12 52.333-2 4.667 8-3 3.977 8 2.106-4.834-4.083-8.166z"/><path d="m52 52.333-8-3.333-4.083 8.166 2.106 4.834 3.977-8 8 3z"/></g></g></g></svg>