<svg height="512" viewBox="0 0 64 64" width="512" xmlns="http://www.w3.org/2000/svg"><g id="Layer_6" data-name="Layer 6"><path d="m8 40h11v4h-11z" fill="#f2b9a1"/><path d="m47.5 19.5a6 6 0 0 1 6 6v5a0 0 0 0 1 0 0h-6a0 0 0 0 1 0 0v-11a0 0 0 0 1 0 0z" fill="#eda58c" transform="matrix(0 1 -1 0 75.5 -25.5)"/><path d="m8 42v-13.838a4.387 4.387 0 0 0 -3-4.162 4.389 4.389 0 0 1 -3-4.163v-4.837a2 2 0 0 1 2-2 2 2 0 0 1 2 2v-8.893a2.075 2.075 0 0 1 1.664-2.08 2 2 0 0 1 2.336 1.973v-2a2 2 0 0 1 2.336-1.973 2.075 2.075 0 0 1 1.664 2.08v1.893a2 2 0 0 1 2.336-1.973 2.075 2.075 0 0 1 1.664 2.08v.893a2 2 0 0 1 2.336-1.973 2.075 2.075 0 0 1 1.664 2.08v9.393a7.5 7.5 0 0 1 -1.5 4.5 7.5 7.5 0 0 0 -1.5 4.5v16.5z" fill="#f2b9a1"/><path d="m10.5 33.5a6 6 0 0 1 6 6v5a0 0 0 0 1 0 0h-6a0 0 0 0 1 0 0v-11a0 0 0 0 1 0 0z" fill="#eda58c" transform="matrix(0 -1 1 0 -25.5 52.5)"/><g fill="#d08d78"><path d="m11 17v-14.727a2 2 0 0 0 -1 1.727v2a2 2 0 0 0 -1-1.727v12.727z"/><path d="m15 17v-12.727a2 2 0 0 0 -1 1.727v-1.893a2.158 2.158 0 0 0 -1-1.833v14.726z"/><path d="m19 17v-11.727a2 2 0 0 0 -1 1.727v-.893a2.158 2.158 0 0 0 -1-1.833v12.726z"/><path d="m7 17v-12.726a2.158 2.158 0 0 0 -1 1.833v8.893a1.994 1.994 0 0 0 -1-1.723v3.723z"/></g><path d="m20 8h15.838a4.387 4.387 0 0 0 4.162-3 4.389 4.389 0 0 1 4.163-3h4.837a2 2 0 0 1 2 2 2 2 0 0 1 -2 2h8.893a2.075 2.075 0 0 1 2.08 1.664 2 2 0 0 1 -1.973 2.336h2a2 2 0 0 1 1.973 2.336 2.075 2.075 0 0 1 -2.08 1.664h-1.893a2 2 0 0 1 1.973 2.336 2.075 2.075 0 0 1 -2.08 1.664h-.893a2 2 0 0 1 1.973 2.336 2.075 2.075 0 0 1 -2.08 1.664h-9.393a7.5 7.5 0 0 1 -4.5-1.5 7.5 7.5 0 0 0 -4.5-1.5h-18.5z" fill="#f2b9a1"/><path d="m22 8a6 6 0 0 1 6 6v5a0 0 0 0 1 0 0h-6a0 0 0 0 1 0 0v-11a0 0 0 0 1 0 0z" fill="#eda58c"/><path d="m47 11h14.727a2 2 0 0 0 -1.727-1h-2a2 2 0 0 0 1.727-1h-12.727z" fill="#d08d78"/><path d="m47 15h12.727a2 2 0 0 0 -1.727-1h1.893a2.158 2.158 0 0 0 1.833-1h-14.726z" fill="#d08d78"/><path d="m47 19h11.727a2 2 0 0 0 -1.727-1h.893a2.158 2.158 0 0 0 1.833-1h-12.726z" fill="#d08d78"/><path d="m47 7h12.726a2.158 2.158 0 0 0 -1.833-1h-8.893a1.994 1.994 0 0 0 1.723-1h-3.723z" fill="#d08d78"/><path d="m56 20v15.838a4.387 4.387 0 0 0 3 4.162 4.389 4.389 0 0 1 3 4.163v4.837a2 2 0 0 1 -2 2 2 2 0 0 1 -2-2v8.893a2.075 2.075 0 0 1 -1.664 2.08 2 2 0 0 1 -2.336-1.973v2a2 2 0 0 1 -2.336 1.973 2.075 2.075 0 0 1 -1.664-2.08v-1.893a2 2 0 0 1 -2.336 1.973 2.075 2.075 0 0 1 -1.664-2.08v-.893a2 2 0 0 1 -2.336 1.973 2.075 2.075 0 0 1 -1.664-2.08v-9.393a7.5 7.5 0 0 1 1.5-4.5 7.5 7.5 0 0 0 1.5-4.5v-18.5z" fill="#f2b9a1"/><path d="m47.5 19.5a6 6 0 0 1 6 6v5a0 0 0 0 1 0 0h-6a0 0 0 0 1 0 0v-11a0 0 0 0 1 0 0z" fill="#eda58c" transform="matrix(0 1 -1 0 75.5 -25.5)"/><path d="m53 47v14.727a2 2 0 0 0 1-1.727v-2a2 2 0 0 0 1 1.727v-12.727z" fill="#d08d78"/><path d="m49 47v12.727a2 2 0 0 0 1-1.727v1.893a2.158 2.158 0 0 0 1 1.833v-14.726z" fill="#d08d78"/><path d="m45 47v11.727a2 2 0 0 0 1-1.727v.893a2.158 2.158 0 0 0 1 1.833v-12.726z" fill="#d08d78"/><path d="m57 47v12.726a2.158 2.158 0 0 0 1-1.833v-8.893a1.994 1.994 0 0 0 1 1.723v-3.723z" fill="#d08d78"/><path d="m44 56h-15.838a4.387 4.387 0 0 0 -4.162 3 4.389 4.389 0 0 1 -4.163 3h-4.837a2 2 0 0 1 -2-2 2 2 0 0 1 2-2h-8.893a2.075 2.075 0 0 1 -2.08-1.664 2 2 0 0 1 1.973-2.336h-2a2 2 0 0 1 -1.973-2.336 2.075 2.075 0 0 1 2.08-1.664h1.893a2 2 0 0 1 -1.973-2.336 2.075 2.075 0 0 1 2.08-1.664h.893a2 2 0 0 1 -1.973-2.336 2.075 2.075 0 0 1 2.08-1.664h9.393a7.5 7.5 0 0 1 4.5 1.5 7.5 7.5 0 0 0 4.5 1.5h18.5z" fill="#f2b9a1"/><path d="m36 45a6 6 0 0 1 6 6v5a0 0 0 0 1 0 0h-6a0 0 0 0 1 0 0v-11a0 0 0 0 1 0 0z" fill="#eda58c" transform="matrix(-1 0 0 -1 78 101)"/><path d="m17 53h-14.727a2 2 0 0 0 1.727 1h2a2 2 0 0 0 -1.727 1h12.727z" fill="#d08d78"/><path d="m17 49h-12.727a2 2 0 0 0 1.727 1h-1.893a2.158 2.158 0 0 0 -1.833 1h14.726z" fill="#d08d78"/><path d="m17 45h-11.727a2 2 0 0 0 1.727 1h-.893a2.158 2.158 0 0 0 -1.833 1h12.726z" fill="#d08d78"/><circle cx="32" cy="32" fill="#ec525b" r="17"/><path d="m60 32 2 4h-3l-6-4 6-4h3z" fill="#ec525b"/><circle cx="32" cy="32" fill="#ffeb99" r="13"/><circle cx="32" cy="32" fill="#ec525b" r="9"/><circle cx="32" cy="32" fill="#ffeb99" r="5"/><path d="m32 31h25v2h-25z" fill="#3a64db"/><circle cx="32" cy="32" fill="#ec525b" r="1"/></g></svg>