<svg height="512" viewBox="0 0 64 64" width="512" xmlns="http://www.w3.org/2000/svg"><g id="Layer_4" data-name="Layer 4"><path d="m38 49h-33a3 3 0 0 1 -3-3v-30a3 3 0 0 1 3-3h48a3 3 0 0 1 3 3v19l-11-2-10 11z" fill="#4678e8"/><path d="m56 16a3 3 0 0 0 -3-3h-46v9.373a22.626 22.626 0 0 0 22.627 22.627h5.973l-.6-1 10-11 1.17.213 9.83 1.787z" fill="#578ff2"/><path d="m24 16v-10h10v10h4v-10a4 4 0 0 0 -4-4h-10a4 4 0 0 0 -4 4v10z" fill="#8a96a8"/><path d="m12 27v6h6v-6z" fill="#dbedfc"/><path d="m40 27v6h1.6l4.4-.967v-5.033z" fill="#dbedfc"/><path d="m13 33h4v4h-4z" fill="#f5fbff"/><path d="m53 13h-48a3 3 0 0 0 -3 3l4.172 9.179a3.107 3.107 0 0 0 2.828 1.821h40a3.107 3.107 0 0 0 2.828-1.821l4.172-9.179a3 3 0 0 0 -3-3z" fill="#3a64db"/><circle cx="47" cy="47" fill="#f5fbff" r="11"/><path d="m47 32a15 15 0 1 0 15 15 15 15 0 0 0 -15-15zm0 24a9 9 0 1 1 9-9 9 9 0 0 1 -9 9z" fill="#fadd60"/><g fill="#ec525b"><path d="m51.314 54.9a9 9 0 0 1 -8.628 0l-1.017 6.107a14.809 14.809 0 0 0 10.668 0l-1.02-6.107z"/><path d="m42.686 39.1a9 9 0 0 1 8.628 0l1.018-6.107a14.809 14.809 0 0 0 -10.668 0l1.02 6.107z"/><path d="m61.006 41.666-6.106 1.017a9 9 0 0 1 0 8.628l6.107 1.017a14.809 14.809 0 0 0 0-10.668z"/><path d="m39.1 51.314a9 9 0 0 1 0-8.628l-6.107-1.017a14.809 14.809 0 0 0 0 10.668l6.107-1.02z"/></g><path d="m47 46a1 1 0 1 1 1-1h2a3 3 0 0 0 -2-2.816v-1.184h-2v1.184a2.993 2.993 0 0 0 1 5.816 1 1 0 1 1 -1 1h-2a3 3 0 0 0 2 2.816v1.184h2v-1.184a2.993 2.993 0 0 0 -1-5.816z" fill="#f19537"/></g></svg>