<svg height="512" viewBox="0 0 64 64" width="512" xmlns="http://www.w3.org/2000/svg"><g id="Layer_27" data-name="Layer 27"><path d="m32 10.591a21.846 21.846 0 0 1 12-3.591l-1.172 1.172a9.656 9.656 0 0 0 -2.828 6.828 9.783 9.783 0 0 0 6.078-4.561 17.007 17.007 0 0 1 14.691-8.439h1.231l-2.3 2.3a23.5 23.5 0 0 0 -6.7 13.7 7.218 7.218 0 0 0 6.12-3.392l2.88-4.608v4.292a10.855 10.855 0 0 1 -6 9.708h6a20.466 20.466 0 0 1 -13.048 19.074l-3.391 1.319-17.561-1.393-4.7-28.107z" fill="#ec525b"/><path d="m30.572 40.194-3.947-23.594 6.869-3.4.154-.1a18.8 18.8 0 0 1 3.952-1.983 12.7 12.7 0 0 0 -.6 3.883v3.843l3.728-.933a12.46 12.46 0 0 0 7.862-5.822 14.015 14.015 0 0 1 5.3-5.274 26.624 26.624 0 0 0 -3.865 10.814l-.425 3.372h3.4a10.281 10.281 0 0 0 2.814-.39c-.2.144-1.059 1.18-1.873 2.129a2.956 2.956 0 0 0 -.2 3.58 2.957 2.957 0 0 0 3.268 1.181l1.738-.5a17.339 17.339 0 0 1 -10.882 13.278l-2.751 1.07z" fill="#fc6372"/><path d="m37.553 22.67 2.447-3.67 2 3 7-6v1a15 15 0 0 1 -3 9 5.284 5.284 0 0 0 4.773 1.445l2.227-.445a9 9 0 0 1 -7.39 8.856z" fill="#ffaebe"/><path d="m20 12h8v9.363h-8z" fill="#578ff2"/><path d="m9.728 23.257-2.779-3.335.433-2.687h2.995l2.94 3.528.971 4.705z" fill="#578ff2"/><path d="m16 10h16v4h-16z" fill="#3a64db" transform="matrix(-1 0 0 -1 48 24)"/><path d="m3.382 15.042h8v4h-8z" fill="#3a64db" transform="matrix(-.787 .617 -.617 -.787 23.704 25.901)"/><circle cx="24" cy="40" fill="#3a64db" r="22"/><circle cx="24" cy="40" fill="#fadd60" r="18"/><path d="m24 22a17.944 17.944 0 0 0 -12.757 5.3 18 18 0 0 0 28.514 21.4 18 18 0 0 0 -15.757-26.7z" fill="#ffeb99"/><path d="m23.447 33.957h11.192v2h-11.192z" fill="#3a64db" transform="matrix(.707 -.707 .707 .707 -16.212 30.775)"/><g fill="#f19537"><path d="m26 30v-7.883a17.153 17.153 0 0 0 -4 0v7.883z"/><path d="m22 50v7.883a17.153 17.153 0 0 0 4 0v-7.883z"/><path d="m41.883 38h-7.883v4h7.883a17.153 17.153 0 0 0 0-4z"/><path d="m14 38h-7.883a17.153 17.153 0 0 0 0 4h7.883z"/><circle cx="24" cy="40" r="3"/></g></g></svg>