<svg height="512" viewBox="0 0 64 64" width="512" xmlns="http://www.w3.org/2000/svg"><g id="Layer_5" data-name="Layer 5"><path d="m12 49h2v12h-2z" fill="#ec525b"/><path d="m50 49h2v12h-2z" fill="#ec525b"/><path d="m31 45h2v9h-2z" fill="#ec525b"/><path d="m51 38h-18v-9h-2v9h-18a1 1 0 0 0 -1 1v8h2v-7h36v7h2v-8a1 1 0 0 0 -1-1z" fill="#ec525b"/><g fill="#6274f4"><circle cx="32" cy="6" r="3"/><path d="m32 9a6 6 0 0 1 6 6 0 0 0 0 1 0 0h-12a0 0 0 0 1 0 0 6 6 0 0 1 6-6z"/><circle cx="14" cy="14" r="3"/><path d="m14 17a6 6 0 0 1 6 6 0 0 0 0 1 0 0h-12a0 0 0 0 1 0 0 6 6 0 0 1 6-6z"/><circle cx="50" cy="14" r="3"/><path d="m50 17a6 6 0 0 1 6 6 0 0 0 0 1 0 0h-12a0 0 0 0 1 0 0 6 6 0 0 1 6-6z"/><circle cx="13" cy="45" r="3"/><path d="m13 48a6 6 0 0 1 6 6 0 0 0 0 1 0 0h-12a0 0 0 0 1 0 0 6 6 0 0 1 6-6z"/><circle cx="51" cy="45" r="3"/><path d="m51 48a6 6 0 0 1 6 6 0 0 0 0 1 0 0h-12a0 0 0 0 1 0 0 6 6 0 0 1 6-6z"/><circle cx="32" cy="39" r="3"/><path d="m32 42a6 6 0 0 1 6 6 0 0 0 0 1 0 0h-12a0 0 0 0 1 0 0 6 6 0 0 1 6-6z"/></g><path d="m7 58h12v4h-12z" fill="#68c1f7"/><path d="m45 58h12v4h-12z" fill="#68c1f7"/><path d="m26 52h12v4h-12z" fill="#68c1f7"/><path d="m58 32v-5h-18v-8h-16v8h-18v5z" fill="#4da8e2"/><path d="m6 32a21.051 21.051 0 0 1 10.831-3h6.41a7.7 7.7 0 0 0 6.887-4.256 10.391 10.391 0 0 1 9.293-5.744h.579v8h18v5z" fill="#68c1f7"/></g></svg>