<svg height="512" viewBox="0 0 64 64" width="512" xmlns="http://www.w3.org/2000/svg"><g id="Layer_18" data-name="Layer 18"><path d="m56 28v-16h4l-7-10-7 10h4v16z" fill="#ec525b"/><path d="m31 25h31v32h-31z" fill="#99573a"/><path d="m37 38.059a14.941 14.941 0 0 0 14.941 14.941h10.059v-28h-25z" fill="#a8694a"/><path d="m18 36h26v26h-26z" fill="#a8694a"/><path d="m22 45.52a12.479 12.479 0 0 0 12.48 12.48h9.52v-22h-22z" fill="#ba7c63"/><path d="m22 52v-4h-2.25a7.807 7.807 0 0 0 -.86-2.06l1.6-1.6-2.83-2.83-1.6 1.6a7.807 7.807 0 0 0 -2.06-.86v-2.25h-4v2.25a7.807 7.807 0 0 0 -2.06.86l-1.6-1.6-2.83 2.83 1.6 1.6a7.807 7.807 0 0 0 -.86 2.06h-2.25v4h2.25a7.807 7.807 0 0 0 .86 2.06l-1.6 1.6 2.83 2.83 1.6-1.6a7.807 7.807 0 0 0 2.06.86v2.25h4v-2.25a7.807 7.807 0 0 0 2.06-.86l1.6 1.6 2.83-2.83-1.6-1.6a7.807 7.807 0 0 0 .86-2.06zm-10 2a4 4 0 1 1 4-4 4 4 0 0 1 -4 4z" fill="#3a64db"/><path d="m29 36v10l2-2 2 2v-10z" fill="#f5b54f"/><path d="m50 49h8v4h-8z" fill="#ffeb99"/><path d="m32 54h8v4h-8z" fill="#ffeb99"/><path d="m43 25v7l3-2 3 2v-7z" fill="#f5b54f"/><path d="m37 36v-18h4l-7-10-7 10h4v18z" fill="#ec525b"/><path d="m31.71 33h2.29v-4h-2.29a7.031 7.031 0 0 0 -.55-1.33l1.62-1.62-2.83-2.83-1.61 1.62h-.01a7.031 7.031 0 0 0 -1.33-.55v-2.29h-4v2.29a7.031 7.031 0 0 0 -1.33.55h-.01l-1.61-1.62-2.83 2.83 1.62 1.62a7.031 7.031 0 0 0 -.55 1.33h-2.29v4h2.29a7.031 7.031 0 0 0 .55 1.33v.01l-1.62 1.61 2.83 2.83 1.62-1.62a7.031 7.031 0 0 0 1.33.55v2.29h4v-2.29a7.031 7.031 0 0 0 1.33-.55l1.62 1.62 2.83-2.83-1.62-1.61v-.01a7.031 7.031 0 0 0 .55-1.33zm-6.71 1a3 3 0 1 1 3-3 3 3 0 0 1 -3 3z" fill="#3a64db"/></g></svg>