<svg height="512" viewBox="0 0 64 64" width="512" xmlns="http://www.w3.org/2000/svg"><g id="Layer_30" data-name="Layer 30"><path d="m30 26h4v21h-4z" fill="#5db07c"/><circle cx="32" cy="22" fill="#f19537" r="8"/><path d="m32 14a7.96 7.96 0 0 0 -4.565 1.435 7.995 7.995 0 0 0 11.13 11.13 7.995 7.995 0 0 0 -6.565-12.565z" fill="#f5b54f"/><path d="m16 31h6a8 8 0 0 1 8 8 0 0 0 0 1 0 0h-6a8 8 0 0 1 -8-8 0 0 0 0 1 0 0z" fill="#82d055"/><path d="m42 31h6a0 0 0 0 1 0 0 8 8 0 0 1 -8 8h-6a0 0 0 0 1 0 0 8 8 0 0 1 8-8z" fill="#82d055" transform="matrix(-1 0 0 -1 82 70)"/><path d="m32 14a8.047 8.047 0 0 0 -1 .069v3.115a2.993 2.993 0 0 0 1 5.816 1 1 0 1 1 -1 1h-2a3 3 0 0 0 2 2.816v3.115a7.281 7.281 0 0 0 2 0v-3.115a2.993 2.993 0 0 0 -1-5.816 1 1 0 1 1 1-1h2a3 3 0 0 0 -2-2.816v-3.115a8.047 8.047 0 0 0 -1-.069z" fill="#ffeb99"/><path d="m48 31-14 8h6a8 8 0 0 0 8-8z" fill="#b6f98a"/><path d="m24 39h6l-14-8a8 8 0 0 0 8 8z" fill="#b6f98a"/><path d="m42 50-2.094-2.932a9.716 9.716 0 0 0 -7.906-4.068 9.716 9.716 0 0 0 -7.906 4.068l-2.094 2.932z" fill="#99573a"/><path d="m50.385 50.385a26 26 0 1 0 -18.385 7.615v4a30 30 0 1 1 21.213-8.787l-2.213 1.787-2-3z" fill="#fc6372"/><path d="m52 52-5-5-2 12 12-2z" fill="#ec525b"/></g></svg>