<svg id="Layer_1" enable-background="new 0 0 64 64" height="512" viewBox="0 0 64 64" width="512" xmlns="http://www.w3.org/2000/svg"><g id="k"><g><path d="m37 34v7l-2 3 2 3v2l-2 3 2 3v2l-5 5-5-5v-23z" fill="#fadd60"/><path d="m31 34v27l-4-4v-23z" fill="#f5b54f"/><path d="m40.8 13.1c3.2 2.5 5.2 6.5 5.2 10.9 0 7.7-6.3 14-14 14s-14-6.3-14-14c0-4.4 2-8.4 5.2-10.9z" fill="#f19537"/><path d="m40.8 13.1h-17.6c-1 .8-1.8 1.7-2.6 2.8-.4 1.3-.6 2.6-.6 4.1 0 7.7 6.3 14 14 14 4.7 0 8.8-2.3 11.4-5.9.4-1.3.6-2.7.6-4.1 0-4.4-2-8.4-5.2-10.9z" fill="#f5b54f"/><g><path d="m41 11c0 2.7-1.2 5.1-3.1 6.8-1.2 1-1.9 2.6-1.9 4.2v3l-2 5h-4l-2-5v-3c0-1.6-.6-3.1-1.9-4.2-1.9-1.6-3.1-4.1-3.1-6.8 0-5.1 4.2-9.1 9.2-9 4.8.1 8.8 4.2 8.8 9z" fill="#afcfe8"/><path d="m37 10h-10v2h2.1l1.1 11.1 1.8-.2 1.8.2 1.1-11.1h2.1zm-5 10.9-.9-8.9h1.8z" fill="#f5fbff"/><path d="m28 25 2 5h4l2-5z" fill="#798499"/><path d="m36.1 21.1-8.2-.1c.1.3.1.6.1 1v3h8v-3c0-.3 0-.6.1-.9z" fill="#8a96a8"/></g></g></g></svg>