<svg id="Layer_3" height="512" viewBox="0 0 64 64" width="512" xmlns="http://www.w3.org/2000/svg" data-name="Layer 3"><path d="m8 4h19v40h-19z" fill="#dbedfc"/><path d="m12 4h19v40h-19z" fill="#f5fbff"/><path d="m5 58v-16h18v-6h-18v-4h18v-6h-18v-4h18v-6h-18v-4h18v-6h-18v-4h29v56z" fill="#8dd9ff"/><path d="m56 58v-44h-30v7l2 2v35z" fill="#68c1f7"/><path d="m15 50h10v8h-10z" fill="#dbedfc"/><path d="m20 50h5v8h-5z" fill="#f5fbff"/><path d="m2 58h60v4h-60z" fill="#798499"/><path d="m29 14h32v3.875h-32z" fill="#6274f4"/><path d="m31 17.937h28v40.063h-28z" fill="#9faaf7"/><path d="m35 22h20v10h-20z" fill="#dbedfc"/><path d="m35 36h20v10h-20z" fill="#dbedfc"/><path d="m45 22h10v10h-10z" fill="#f5fbff"/><path d="m45 36h10v10h-10z" fill="#f5fbff"/><g fill="#95ccf9"><path d="m37.586 25h2.828v2h-2.828z" transform="matrix(.707 -.707 .707 .707 -6.962 35.192)"/><path d="m47.586 25h2.828v2h-2.828z" transform="matrix(.707 -.707 .707 .707 -4.033 42.263)"/><path d="m37.586 39h2.828v2h-2.828z" transform="matrix(.707 -.707 .707 .707 -16.861 39.293)"/><path d="m47.586 39h2.828v2h-2.828z" transform="matrix(.707 -.707 .707 .707 -13.933 46.364)"/></g><path d="m40 50h10v8h-10z" fill="#dbedfc"/><path d="m45 50h5v8h-5z" fill="#f5fbff"/></svg>