<svg height="512" viewBox="0 0 64 64" width="512" xmlns="http://www.w3.org/2000/svg"><g id="Layer_22" data-name="Layer 22"><path d="m39.119 23.6a8.155 8.155 0 0 1 4.881 7.471v2.929a10.3 10.3 0 0 0 -7.159-4.864h-9.67a10.3 10.3 0 0 0 -7.171 4.864v-2.929a8.155 8.155 0 0 1 4.881-7.471z" fill="#3a64db"/><path d="m36 31 2.241-5.042a20.406 20.406 0 0 0 1.759-8.289 20.407 20.407 0 0 0 -5.051-13.44l-1.292-1.477a2.2 2.2 0 0 0 -1.657-.752 2.2 2.2 0 0 0 -1.659.753l-1.293 1.477a20.408 20.408 0 0 0 -5.048 13.437 20.406 20.406 0 0 0 1.759 8.289l2.241 5.044z" fill="#6274f4"/><path d="m40 17.669a20.407 20.407 0 0 0 -5.051-13.44l-.949-1.086-.952 1.087a20.408 20.408 0 0 0 -5.048 13.437 20.406 20.406 0 0 0 1.759 8.289l2.241 5.044h4l2.241-5.042a20.406 20.406 0 0 0 1.759-8.289z" fill="#7d86f5"/><path d="m12.535 41a4 4 0 0 1 3.465-2 4.041 4.041 0 0 1 2.58.94 3.992 3.992 0 0 1 5.48-1.37 2.76 2.76 0 0 1 -.06-.57 3 3 0 0 1 4-2.83h8a3 3 0 0 1 4 2.83 2.76 2.76 0 0 1 -.06.57 3.992 3.992 0 0 1 5.48 1.37 4.041 4.041 0 0 1 2.58-.94 4 4 0 0 1 2.929 6.725l-7.929 8.275-31 1z" fill="#bdddfc"/><path d="m20 51a5 5 0 1 1 2.28-9.45 3.975 3.975 0 0 1 3.72-2.55 3.931 3.931 0 0 1 1.09.15 4 4 0 0 1 3.91-3.15 3.934 3.934 0 0 1 3.03 1.4 5.011 5.011 0 0 1 6.56 2.62h.01c.13-.01.27-.02.4-.02a4.007 4.007 0 0 1 3.48 2.03 4.405 4.405 0 0 1 .52-.03 5 5 0 0 1 0 10z" fill="#dbedfc"/><path d="m12 44h9.451a59.613 59.613 0 0 1 12.942 1.421 3.329 3.329 0 0 1 2.607 3.25 3.314 3.314 0 0 1 -.857 2.229l15.485-5.42a8.546 8.546 0 0 1 2.825-.48 2.547 2.547 0 0 1 2.547 2.547 2.547 2.547 0 0 1 -1.251 2.192l-17.333 10.243a14.516 14.516 0 0 1 -7.383 2.018 14.524 14.524 0 0 1 -3.987-.558l-12.046-3.442-3-.068z" fill="#edac96"/><path d="m56 45.535a2.53 2.53 0 0 0 -1.547-.535 8.546 8.546 0 0 0 -2.825.48l-15.485 5.42a3.329 3.329 0 0 0 -1.75-5.479 59.613 59.613 0 0 0 -12.942-1.421h-9.451v11.955l2 .045 12.046 3.442a14.517 14.517 0 0 0 11.37-1.46l17.333-10.243a2.547 2.547 0 0 0 1.251-2.192z" fill="#f2b9a1"/><path d="m35 31a9.468 9.468 0 0 1 1 4.236v1.764l-2-1-2 5-2-5-2 1v-1.764a9.468 9.468 0 0 1 1-4.236v-2h6z" fill="#ec525b"/><path d="m7 41h8v20h-8z" fill="#4c4c4c"/><circle cx="32" cy="16" fill="#bdc6f4" r="3"/><path d="m34 31v-7l-2-2-2 2v7z" fill="#bdc6f4"/><path d="m32 9a12.7 12.7 0 0 1 5.683 1.342l1.152.575a20.4 20.4 0 0 0 -3.886-6.688l-1.292-1.477a2.2 2.2 0 0 0 -3.317 0l-1.292 1.478a20.377 20.377 0 0 0 -3.884 6.688l1.153-.576a12.7 12.7 0 0 1 5.683-1.342z" fill="#3a64db"/><path d="m36.143 50.9a3.324 3.324 0 0 0 .426-3.865l-.014.3a4.781 4.781 0 0 1 -1.155 2.895 2.332 2.332 0 0 1 -1.73.77h-6.67v2h6.671a4.349 4.349 0 0 0 3.229-1.443 6.7 6.7 0 0 0 .814-1.206z" fill="#d08d78"/></g></svg>