<svg height="512" viewBox="0 0 64 64" width="512" xmlns="http://www.w3.org/2000/svg"><g id="Layer_15" data-name="Layer 15"><circle cx="25" cy="39" fill="#fadd60" r="23"/><g fill="#ec525b"><path d="m56 18h6v17h-6z"/><path d="m46 10h6v25h-6z"/><path d="m36 17h6v18h-6z"/><path d="m26 10h6v25h-6z"/></g><path d="m58.375 12.781-9.415-7.532-9.387 6.57a1 1 0 0 1 -1.146 0l-10-7 1.146-1.638 9.427 6.598 9.427-6.6a1 1 0 0 1 1.2.038l10 8z" fill="#f89"/><path d="m8.737 22.737a23 23 0 0 0 16.263 39.263v-23z" fill="#5db07c"/><path d="m44.967 50.41-19.967-11.41v23a22.986 22.986 0 0 0 19.967-11.59z" fill="#6274f4"/><path d="m44.967 50.41a22.888 22.888 0 0 0 3.033-11.41h-23z" fill="#f19537"/><circle cx="29" cy="4" fill="#ec525b" r="2"/><circle cx="39" cy="11" fill="#ec525b" r="2"/><circle cx="49" cy="4" fill="#ec525b" r="2"/><circle cx="59" cy="12" fill="#ec525b" r="2"/><path d="m5 35a23 23 0 0 0 20 22.8v-18.8l-16.255-16.255c-.183.183-.368.365-.545.554a22.893 22.893 0 0 0 -3.2 11.701z" fill="#68c186"/><path d="m25 57.8a23.194 23.194 0 0 0 3 .2 22.934 22.934 0 0 0 16.8-7.3c.057-.1.106-.2.161-.294l-19.961-11.406z" fill="#7d86f5"/><path d="m28 27a6 6 0 0 0 4 5.651v-22.651h-4z" fill="#fc6372"/><path d="m38 27a6 6 0 0 0 4 5.651v-15.651h-4z" fill="#fc6372"/><path d="m48 27a6 6 0 0 0 4 5.651v-22.651h-4z" fill="#fc6372"/><path d="m58 27a6 6 0 0 0 4 5.651v-14.651h-4z" fill="#fc6372"/></g></svg>