<svg height="512" viewBox="0 0 64 64" width="512" xmlns="http://www.w3.org/2000/svg"><g id="Layer_28" data-name="Layer 28"><path d="m6 26h4v12h-4z" fill="#3a64db" transform="matrix(0 -1 1 0 -24 40)"/><path d="m29 32.488h6v12.512h-6z" fill="#ec525b"/><path d="m31 39.307a3.692 3.692 0 0 0 3.693 3.693h.307v-10.512h-4z" fill="#fc6372"/><path d="m19 38h6v7h-6z" fill="#ec525b"/><path d="m40.488 30h4.512v15h-6v-14.343z" fill="#ec525b"/><circle cx="32" cy="27" fill="#f19537" r="9"/><path d="m32 18a8.973 8.973 0 0 0 -6.334 2.608 9 9 0 0 0 14.668 9.784 9 9 0 0 0 -8.334-12.392z" fill="#f5b54f"/><path d="m34 6.076h-4a26 26 0 0 0 -23.924 23.924v4a26 26 0 0 0 23.924 23.924h4a26 26 0 0 0 23.924-23.924v-4a26 26 0 0 0 -23.924-23.924zm19.91 27.924a22.006 22.006 0 0 1 -19.91 19.91h-4a22.006 22.006 0 0 1 -19.91-19.91v-4a22.006 22.006 0 0 1 19.91-19.91h4a22.006 22.006 0 0 1 19.91 19.91z" fill="#578ff2"/><g fill="#3a64db"><path d="m30 2h4v12h-4z"/><path d="m30 50h4v12h-4z"/><path d="m54 26h4v12h-4z" transform="matrix(0 -1 1 0 24 88)"/></g><path d="m32 26a1 1 0 1 1 1-1h2a3 3 0 0 0 -2-2.816v-1.184h-2v1.184a2.993 2.993 0 0 0 1 5.816 1 1 0 1 1 -1 1h-2a3 3 0 0 0 2 2.816v1.184h2v-1.184a2.993 2.993 0 0 0 -1-5.816z" fill="#ffeb99"/><path d="m19.94 38h5.06a0 0 0 0 1 0 0v6a0 0 0 0 1 0 0 5.06 5.06 0 0 1 -5.06-5.06v-.94a0 0 0 0 1 0 0z" fill="#fc6372"/><path d="m41 39.307a3.692 3.692 0 0 0 3.693 3.693h.307v-13h-4z" fill="#fc6372"/></g></svg>