<svg height="512" viewBox="0 0 64 64" width="512" xmlns="http://www.w3.org/2000/svg"><g id="Layer_14" data-name="Layer 14"><path d="m43 59v-8.343a8.828 8.828 0 0 1 2.586-6.243 4.828 4.828 0 0 1 3.414-1.414l3.336-6.672a2.4 2.4 0 0 1 2.148-1.328 2.508 2.508 0 0 1 1.779.737l-.06-.057 1.516-9.854a2.153 2.153 0 0 1 2.128-1.826 2.153 2.153 0 0 1 2.153 2.153v13.847a8.9 8.9 0 0 1 -2.99 6.657l-4.51 4.014a4.454 4.454 0 0 0 -1.5 3.329v5z" fill="#f2b9a1"/><path d="m21 59v-8.343a8.828 8.828 0 0 0 -2.586-6.243 4.828 4.828 0 0 0 -3.414-1.414l-3.336-6.672a2.4 2.4 0 0 0 -2.148-1.328 2.508 2.508 0 0 0 -1.779.737l.06-.058-1.516-9.853a2.153 2.153 0 0 0 -2.128-1.826 2.153 2.153 0 0 0 -2.153 2.153v13.847a8.9 8.9 0 0 0 2.99 6.657l4.515 4.014a4.454 4.454 0 0 1 1.495 3.329v5z" fill="#f2b9a1"/><path d="m52 19v6h-3.27a16.706 16.706 0 0 1 -2.78 6.71l2.31 2.31-4.24 4.24-2.31-2.31a16.706 16.706 0 0 1 -6.71 2.78v3.27h-6v-3.27a16.706 16.706 0 0 1 -6.71-2.78l-2.31 2.31-4.24-4.24 2.31-2.31a16.706 16.706 0 0 1 -2.78-6.71h-3.27v-6h3.27a16.706 16.706 0 0 1 2.78-6.71l-2.31-2.31 4.24-4.24 2.31 2.31a16.706 16.706 0 0 1 6.71-2.78v-3.27h6v3.27a16.706 16.706 0 0 1 6.71 2.78l2.31-2.31 4.24 4.24-2.31 2.31a16.706 16.706 0 0 1 2.78 6.71z" fill="#3a64db"/><circle cx="32" cy="22" fill="#fadd60" r="13"/><path d="m37.293 28.707-6-6a1 1 0 0 1 -.293-.707v-4h2v3.586l5.707 5.707z" fill="#f19537"/><path d="m8.108 38.08a1.528 1.528 0 0 1 -.108-.564 1.5 1.5 0 0 1 .443-1.072.882.882 0 0 0 .077-.085l1.071-1.348c-.026 0-.05-.011-.075-.011a2.508 2.508 0 0 0 -1.779.737l.06-.058-.21-1.362-.6.757a3.517 3.517 0 0 0 -.735 3.747l1.82 4.551 1.858-.744z" fill="#d08d78"/><path d="m54.071 42.628 1.858.744 1.82-4.553a3.491 3.491 0 0 0 .251-1.3 3.426 3.426 0 0 0 -.975-2.427l-.619-.728-.2 1.319.06.057a2.508 2.508 0 0 0 -1.782-.74c-.048 0-.093.017-.14.02l1.213 1.424a1.518 1.518 0 0 1 .335 1.634z" fill="#d08d78"/><path d="m40 56h16v6h-16z" fill="#4c4c4c"/><path d="m8 56h16v6h-16z" fill="#4c4c4c" transform="matrix(-1 0 0 -1 32 118)"/><g fill="#f19537"><path d="m33 13v-3.949c-.331-.026-.662-.051-1-.051s-.669.025-1 .051v3.949z"/><path d="m31 31v3.949c.331.026.662.051 1 .051s.669-.025 1-.051v-3.949z"/><path d="m23 21h-3.949c-.026.331-.051.662-.051 1s.025.669.051 1h3.949z"/><path d="m44.949 21h-3.949v2h3.949c.026-.331.051-.662.051-1s-.025-.669-.051-1z"/></g></g></svg>