<svg id="Layer_1" enable-background="new 0 0 512 512" height="512" viewBox="0 0 512 512" width="512" xmlns="http://www.w3.org/2000/svg"><g><path d="m456 86v368h-320v-448h240z" fill="#fff"/><path d="m376 86h80v16h-80z" fill="#dce1e7"/><path d="m136 438h320v16h-320z" fill="#dce1e7"/><path d="m456 86h-80v-80" fill="#95a4b6"/><g><path d="m72 362h128v144h-128z" fill="#b9c2cf"/><path d="m72 362h128v16h-128z" fill="#95a4b6"/><path d="m104 330v-24h64v24" fill="#95a4b6"/><path d="m56 330h160v32h-160z" fill="#b9c2cf"/></g><g fill="#012d4a"><path d="m462 83.515-83.515-83.515h-248.485v300h-32v24h-48v44h16v144h140v-52h256zm-80-63.03 59.515 59.515h-59.515zm-272 291.515h52v12h-52zm-48 24h148v20h-148zm68 32v132h-20v-132zm12 0h20v132h-20zm-64 0h20v132h-20zm96 132v-132h20v132zm32-52v-80h16v-44h-48v-24h-32v-288h228v80h80v356z"/><path d="m184 64h96v12h-96z"/><path d="m184 96h64v12h-64z"/><path d="m184 144h224v12h-224z"/><path d="m184 176h224v12h-224z"/><path d="m184 240h224v12h-224z"/><path d="m184 272h160v12h-160z"/><path d="m184 208h224v12h-224z"/><path d="m328 320h80v12h-80z"/></g></g></svg>