<svg id="Layer_1" enable-background="new 0 0 512 512" height="512" viewBox="0 0 512 512" width="512" xmlns="http://www.w3.org/2000/svg"><g><path d="m464 86v368h-320v-448h240z" fill="#fff"/><path d="m144 438h320v16h-320z" fill="#dce1e7"/><path d="m384 86h80v16h-80z" fill="#dce1e7"/><path d="m464 86h-80v-80" fill="#95a4b6"/><g><path d="m192 150h224v32h-224z" fill="#95a4b6"/><path d="m192 150h48v32h-48z" fill="#fff"/></g><g><circle cx="144" cy="410" fill="#b9c2cf" r="96"/><path d="m144 490c-50.325 0-91.6-38.725-95.666-88-.218 2.638-.334 5.305-.334 8 0 53.019 42.981 96 96 96s96-42.981 96-96c0-2.695-.117-5.362-.334-8-4.066 49.275-45.341 88-95.666 88z" fill="#95a4b6"/><circle cx="128" cy="394" fill="#fff" r="32"/></g><g fill="#012d4a"><path d="m470 83.515-83.515-83.515h-248.485v308.181c-53.461 3.117-96 47.591-96 101.819 0 56.243 45.757 102 102 102 38.087 0 71.36-20.987 88.876-52h237.124zm-80-63.03 59.515 59.515h-59.515zm-246 479.515c-49.626 0-90-40.374-90-90s40.374-90 90-90 90 40.374 90 90-40.374 90-90 90zm94.653-52c4.734-11.75 7.347-24.575 7.347-38 0-54.228-42.539-98.702-96-101.819v-296.181h228v80h80v356z"/><path d="m192 64h160v12h-160z"/><path d="m192 96h128v12h-128z"/><path d="m186 188h236v-44h-236zm224-12h-164v-20h164zm-212-20h36v20h-36z"/><path d="m192 288h224v12h-224z"/><path d="m192 256h224v12h-224z"/><path d="m192 224h224v12h-224z"/><path d="m240 320h176v12h-176z"/><path d="m352 352h64v12h-64z"/><path d="m166 394c0-20.953-17.047-38-38-38s-38 17.047-38 38 17.047 38 38 38c8.316 0 16.01-2.692 22.274-7.241l37.483 37.483 8.485-8.485-37.483-37.483c4.549-6.264 7.241-13.959 7.241-22.274zm-38 26c-14.336 0-26-11.664-26-26s11.664-26 26-26 26 11.664 26 26-11.664 26-26 26z"/></g></g></svg>