<svg id="Layer_1" enable-background="new 0 0 512 512" height="512" viewBox="0 0 512 512" width="512" xmlns="http://www.w3.org/2000/svg"><g><g><g><path d="m330 48h176v240h-176z" fill="#b9c2cf"/><path d="m314 272h192v16h-192z" fill="#95a4b6"/><g><path d="m474 128v208h-192v-256h144z" fill="#fff"/><path d="m282 320h192v16h-192z" fill="#dce1e7"/><path d="m426 128h48v16h-48z" fill="#dce1e7"/><path d="m474 128h-48v-48" fill="#95a4b6"/></g></g><g><path d="m314 128h64v32h-64z" fill="#b9c2cf"/></g></g><path d="m198 256v208h-192v-256h144z" fill="#fff"/><path d="m6 448h192v16h-192z" fill="#dce1e7"/><path d="m150 256h48v16h-48z" fill="#dce1e7"/><path d="m198 256h-48v-48" fill="#95a4b6"/><g><path d="m38 256h64v32h-64z" fill="#b9c2cf"/></g><g fill="#012d4a"><path d="m228.243 11.757-8.486 8.486 21.758 21.757h-119.515v134h12v-122h107.515l-21.758 21.757 8.486 8.486 36.242-36.243z"/><path d="m378 458h-107.515l21.757-21.757-8.484-8.486-36.243 36.243 36.243 36.243 8.484-8.486-21.757-21.757h119.515v-102h-12z"/><path d="m512 42h-188v32h-48v268h204v-48h32zm-224 288v-244h132v48h48v196zm144-235.515 27.515 27.515h-27.515zm68 187.515h-20v-156.485l-51.515-51.515h-92.485v-20h164z"/><path d="m384 122h-76v44h76zm-12 32h-52v-20h52z"/><path d="m314 218h128v12h-128z"/><path d="m314 186h128v12h-128z"/><path d="m314 250h128v12h-128z"/><path d="m314 282h96v12h-96z"/><path d="m0 202v268h204v-216.485l-51.515-51.515zm156 20.485 27.515 27.515h-27.515zm-144 235.515v-244h132v48h48v196z"/><path d="m108 250h-76v44h76zm-12 32h-52v-20h52z"/><path d="m38 346h128v12h-128z"/><path d="m38 314h128v12h-128z"/><path d="m38 378h128v12h-128z"/><path d="m38 410h96v12h-96z"/></g></g></svg>