<svg id="Layer_1" enable-background="new 0 0 512 512" height="512" viewBox="0 0 512 512" width="512" xmlns="http://www.w3.org/2000/svg"><g><path d="m464 86v368h-320v-448h240z" fill="#fff"/><path d="m144 438h320v16h-320z" fill="#dce1e7"/><path d="m384 86h80v16h-80z" fill="#dce1e7"/><path d="m464 86h-80v-80" fill="#95a4b6"/><g fill="#95a4b6"><path d="m192 150h32v32h-32z"/><path d="m192 230h32v32h-32z"/></g><g><circle cx="144" cy="410" fill="#b9c2cf" r="96"/><path d="m144 490c-50.325 0-91.6-38.725-95.665-88-.218 2.638-.334 5.305-.334 8 0 53.019 42.981 96 96 96s96-42.981 96-96c0-2.695-.117-5.362-.335-8-4.066 49.275-45.341 88-95.666 88z" fill="#95a4b6"/><circle cx="144" cy="410" fill="#fff" r="32"/><path d="m144 442c-27.862 0-51.553 17.809-60.342 42.661 16.488 13.342 37.48 21.339 60.342 21.339s43.854-7.997 60.342-21.339c-8.789-24.852-32.48-42.661-60.342-42.661z" fill="#fff"/><path d="m148.488 505.892c1.231-.057 2.455-.138 3.674-.241.226-.019.451-.04.676-.06 1.233-.113 2.461-.244 3.68-.403.136-.018.271-.039.407-.057 1.233-.166 2.459-.353 3.676-.565.07-.012.14-.022.21-.035 1.241-.22 2.472-.467 3.696-.734.173-.038.346-.074.518-.113 1.203-.269 2.398-.56 3.584-.874.147-.039.294-.079.44-.119 2.512-.678 4.985-1.452 7.411-2.324.049-.018.1-.035.149-.053 1.203-.435 2.393-.894 3.572-1.375.099-.04.198-.081.297-.121 1.186-.488 2.362-.997 3.524-1.53.027-.013.054-.026.082-.038 2.411-1.11 4.769-2.317 7.068-3.616.011-.006.022-.012.033-.019 1.146-.648 2.277-1.32 3.394-2.014.022-.014.044-.027.067-.042 3.378-2.102 6.616-4.408 9.696-6.9-1.466-4.146-3.356-8.091-5.602-11.795-15.528 10.801-34.393 17.136-54.74 17.136s-39.212-6.335-54.74-17.134c-2.246 3.704-4.136 7.649-5.602 11.795 3.081 2.493 6.319 4.798 9.696 6.9.022.014.044.028.067.042 1.116.694 2.248 1.365 3.394 2.014.011.006.022.012.033.019 2.299 1.299 4.657 2.505 7.068 3.616.028.012.055.026.082.038 1.162.534 2.338 1.042 3.524 1.53.099.041.198.081.297.121 1.18.48 2.37.94 3.573 1.375.049.018.1.035.149.053 2.426.872 4.899 1.646 7.411 2.324.147.04.293.08.44.119 1.186.314 2.381.605 3.584.874.173.039.345.075.518.113 1.224.266 2.455.514 3.696.734.07.012.14.022.21.035 1.217.212 2.443.399 3.676.565.136.018.271.039.407.057 1.219.159 2.447.29 3.68.403.225.02.451.041.676.06 1.219.103 2.443.184 3.674.241.201.009.404.015.605.023 1.288.051 2.581.085 3.882.085s2.594-.033 3.882-.085c.202-.01.404-.015.606-.025z" fill="#dce1e7"/></g><g fill="#012d4a"><path d="m386.485 0h-248.485v308.181c-53.46 3.117-96 47.591-96 101.819 0 56.243 45.757 102 102 102 38.087 0 71.36-20.987 88.876-52h237.124v-376.485zm3.515 20.485 59.515 59.515h-59.515zm-246 479.515c-19.84 0-38.198-6.458-53.092-17.376 9.182-20.918 29.86-34.624 53.092-34.624s43.91 13.706 53.092 34.624c-14.894 10.918-33.252 17.376-53.092 17.376zm-26-90c0-14.336 11.663-26 26-26s26 11.664 26 26-11.663 26-26 26-26-11.664-26-26zm88.584 64.611c-8.18-16.358-22.342-28.676-39.275-34.632 8.931-6.959 14.691-17.806 14.691-29.979 0-20.953-17.047-38-38-38s-38 17.047-38 38c0 12.173 5.76 23.02 14.691 29.979-16.934 5.956-31.096 18.274-39.275 34.632-16.895-16.37-27.416-39.283-27.416-64.611 0-49.626 40.374-90 90-90s90 40.374 90 90c0 25.328-10.52 48.241-27.416 64.611zm251.416-26.611h-219.347c4.734-11.75 7.347-24.575 7.347-38 0-54.228-42.54-98.702-96-101.819v-296.181h228v80h80z"/><path d="m192 64h160v12h-160z"/><path d="m192 96h128v12h-128z"/><path d="m186 188h44v-44h-44zm12-32h20v20h-20z"/><path d="m256 176h128v12h-128z"/><path d="m256 144h160v12h-160z"/><path d="m186 268h44v-44h-44zm12-32h20v20h-20z"/><path d="m256 256h128v12h-128z"/><path d="m256 224h160v12h-160z"/><path d="m256 336h128v12h-128z"/><path d="m256 304h160v12h-160z"/></g></g></svg>