<svg id="Layer_1" enable-background="new 0 0 512 512" height="512" viewBox="0 0 512 512" width="512" xmlns="http://www.w3.org/2000/svg"><g><path d="m122 6h320v448h-320z" fill="#b9c2cf"/><path d="m122 438h320v16h-320z" fill="#95a4b6"/><path d="m70 426v-368h320v448h-240z" fill="#fff"/><path d="m150 490h240v16h-240z" fill="#dce1e7"/><path d="m70 426h80v80" fill="#95a4b6"/><g><g><path d="m118 186h224v160h-224z" fill="#dce1e7"/><path d="m118 330h224v16h-224z" fill="#b9c2cf"/><path d="m198 282 32 32v-96l-32 32" fill="#95a4b6"/><path d="m198 282 32 32v-20l-32-32z" fill="#72869e"/><path d="m166 250h32v32h-32z" fill="#95a4b6"/><path d="m166 266h32v16h-32z" fill="#72869e"/></g><g fill="#012d4a"><path d="m116 0v52h-52v376.485l83.515 83.515h248.485v-52h52v-460zm28 491.515-59.515-59.515h59.515zm240 8.485h-228v-80h-80v-356h308zm52-52h-40v-396h-268v-40h308z"/><path d="m118 116h96v12h-96z"/><path d="m118 148h96v12h-96z"/><path d="m246 116h96v12h-96z"/><path d="m246 148h96v12h-96z"/><path d="m348 180h-236v172h236zm-12 160h-212v-148h212z"/><path d="m236 328.485v-124.97l-40.485 40.485h-35.515v44h35.515zm-32-76 20-19.999v67.029l-20-19.999zm-12 23.515h-20v-20h20z"/><path d="m268 266c0-12.131-9.869-22-22-22v12c5.514 0 10 4.486 10 10s-4.486 10-10 10v12c12.131 0 22-9.869 22-22z"/><path d="m300 266c0-29.776-24.225-54-54-54v12c23.159 0 42 18.841 42 42s-18.841 42-42 42v12c29.775 0 54-24.224 54-54z"/><path d="m118 372h224v12h-224z"/><path d="m182 404h160v12h-160z"/><path d="m182 436h160v12h-160z"/></g></g></g></svg>