<svg id="Layer_1" enable-background="new 0 0 512 512" height="512" viewBox="0 0 512 512" width="512" xmlns="http://www.w3.org/2000/svg"><g><path d="m96 74h320v432h-320z" fill="#b9c2cf"/><path d="m96 490h320v16h-320z" fill="#95a4b6"/><g><path d="m128 122h256v352h-256z" fill="#fff"/><path d="m128 458h256v16h-256z" fill="#dce1e7"/></g><path d="m224 38v-32h64v32h32v52h-128v-52z" fill="#dce1e7"/><path d="m192 74h128v16h-128z" fill="#b9c2cf"/><g fill="#012d4a"><path d="m122 480h268v-364h-268zm12-352h244v340h-244z"/><path d="m160 180h112v12h-112z"/><path d="m160 212h80v12h-80z"/><path d="m160 260h192v12h-192z"/><path d="m160 292h192v12h-192z"/><path d="m160 356h192v12h-192z"/><path d="m192 388h128v12h-128z"/><path d="m160 324h192v12h-192z"/><path d="m326 68v-36h-32v-32h-76v32h-32v36h-96v444h332v-444zm-128-24h32v-32h52v32h32v40h-116zm212 456h-308v-420h84v16h140v-16h84z"/></g></g></svg>