<svg id="Layer_1" enable-background="new 0 0 512 512" height="512" viewBox="0 0 512 512" width="512" xmlns="http://www.w3.org/2000/svg"><g><g><path d="m464 86v368h-320v-448h240z" fill="#fff"/><path d="m384 86h80v16h-80z" fill="#dce1e7"/><path d="m144 438h320v16h-320z" fill="#dce1e7" transform="matrix(-1 0 0 -1 608 892)"/><path d="m464 86h-80v-80" fill="#95a4b6"/><g><path d="m192 134h224v192h-224z" fill="#dce1e7"/><path d="m192 310h224v16h-224z" fill="#b9c2cf"/><g><circle cx="304" cy="230" fill="#95a4b6" r="64"/><path d="m304 278c-32.635 0-59.545-24.432-63.484-56-.327 2.623-.516 5.289-.516 8 0 35.346 28.654 64 64 64s64-28.654 64-64c0-2.711-.188-5.377-.516-8-3.939 31.568-30.849 56-63.484 56z" fill="#72869e"/></g></g></g><g><path d="m48 410h96v96h-96z" fill="#b9c2cf"/><path d="m128 410h16v96h-16z" fill="#95a4b6"/><path d="m240 442h96v64h-96z" fill="#b9c2cf"/><path d="m320 442h16v64h-16z" fill="#95a4b6"/><path d="m144 378h96v128h-96z" fill="#b9c2cf"/><path d="m224 378h16v128h-16z" fill="#95a4b6"/></g><g fill="#012d4a"><path d="m310 190h-12v10h-16v36h32v12h-34v12h18v10h12v-10h16v-36h-32v-12h34v-12h-18z"/><path d="m304 160c-38.598 0-70 31.402-70 70s31.402 70 70 70 70-31.402 70-70-31.402-70-70-70zm0 128c-31.981 0-58-26.019-58-58s26.019-58 58-58 58 26.019 58 58-26.019 58-58 58z"/><path d="m186 332h236v-204h-236zm12-192h212v180h-212z"/><path d="m256 352h160v12h-160z"/><path d="m272 384h144v12h-144z"/><path d="m192 64h160v12h-160z"/><path d="m192 96h128v12h-128z"/><path d="m470 83.515-83.515-83.515h-248.485v404h-96v108h300v-52h128zm-80-63.03 59.515 59.515h-59.515zm-240 363.515h84v20h-84zm180 84h-84v-20h84zm-96 0h-84v-20h84zm0 12v20h-84v-20zm-84-44v-20h84v20zm-96-20h84v20h-84zm84 32v20h-84v-20zm-84 32h84v20h-84zm192 20v-20h84v20zm96-52v-12h-96v-64h-96v-360h228v80h80v356z"/></g></g></svg>