<svg id="Layer_1" enable-background="new 0 0 512 512" height="512" viewBox="0 0 512 512" width="512" xmlns="http://www.w3.org/2000/svg"><g><path d="m122 6h320v448h-320z" fill="#b9c2cf"/><path d="m122 438h320v16h-320z" fill="#95a4b6"/><path d="m390 138v368h-320v-448h240z" fill="#fff"/><path d="m310 138h80v16h-80z" fill="#dce1e7"/><path d="m70 490h320v16h-320z" fill="#dce1e7"/><path d="m390 138h-80v-80" fill="#95a4b6"/><g><path d="m118 218h224v160h-224z" fill="#dce1e7"/><path d="m118 186h224v32h-224z" fill="#95a4b6"/><g fill="#012d4a"><path d="m448 0h-332v52h-52v460h332v-52h52zm-372 500v-436h228v80h80v356zm240-427.515 59.515 59.515h-59.515zm120 375.515h-40v-312.485l-83.515-83.515h-184.485v-40h308z"/><path d="m118 116h160v12h-160z"/><path d="m118 148h128v12h-128z"/><path d="m118 192h42v20h-42v12h42v148h-42v12h224v-12h-42v-148h42v-12h-42v-20h42v-12h-224zm170 180h-116v-148h116zm0-160h-116v-20h116z"/><path d="m118 404h104v12h-104z"/><path d="m238 404h104v12h-104z"/><path d="m118 436h104v12h-104z"/><path d="m238 436h104v12h-104z"/></g></g></g></svg>