<svg id="Layer_1" enable-background="new 0 0 512 512" height="512" viewBox="0 0 512 512" width="512" xmlns="http://www.w3.org/2000/svg"><g><path d="m122 6h320v448h-320z" fill="#b9c2cf"/><path d="m122 438h320v16h-320z" fill="#95a4b6"/><path d="m70 426v-368h320v448h-240z" fill="#fff"/><path d="m150 490h240v16h-240z" fill="#dce1e7"/><path d="m70 426h80v80" fill="#95a4b6"/><g><g><path d="m242 254 68 68-24 24-68-68" fill="#95a4b6"/><circle cx="198" cy="234" fill="#b9c2cf" r="48"/><path d="m198 266c-23.783 0-43.513-17.3-47.324-40-.437 2.603-.676 5.273-.676 8 0 26.51 21.49 48 48 48s48-21.49 48-48c0-2.727-.239-5.397-.676-8-3.811 22.7-23.541 40-47.324 40z" fill="#95a4b6"/><circle cx="192" cy="228" fill="#fff" r="16"/></g><g fill="#012d4a"><path d="m448 0h-332v52h-52v376.485l83.515 83.515h248.485v-52h52zm-304 491.515-59.515-59.515h59.515zm240 8.485h-228v-80h-80v-356h308zm52-52h-40v-396h-268v-40h308z"/><path d="m198 180c-29.776 0-54 24.225-54 54s24.224 54 54 54c6.426 0 12.591-1.133 18.313-3.202l69.687 69.687 32.485-32.485-69.688-69.688c2.07-5.721 3.203-11.886 3.203-18.312 0-29.775-24.224-54-54-54zm-42 54c0-23.159 18.841-42 42-42s42 18.841 42 42-18.841 42-42 42-42-18.841-42-42zm109.515 52-7.758 7.758 8.485 8.484 7.757-7.757 9.515 9.515-7.758 7.758 8.485 8.484 7.757-7.757 9.515 9.515-15.513 15.515-58.39-58.39c6.167-4.06 11.454-9.348 15.515-15.515z"/><path d="m192 206c-12.131 0-22 9.869-22 22s9.869 22 22 22 22-9.869 22-22-9.869-22-22-22zm0 32c-5.514 0-10-4.486-10-10s4.486-10 10-10 10 4.486 10 10-4.486 10-10 10z"/><path d="m118 372h224v12h-224z"/><path d="m182 404h160v12h-160z"/><path d="m182 436h160v12h-160z"/><path d="m118 116h160v12h-160z"/><path d="m118 148h128v12h-128z"/></g></g></g></svg>