<svg id="Layer_1" enable-background="new 0 0 512 512" height="512" viewBox="0 0 512 512" width="512" xmlns="http://www.w3.org/2000/svg"><g><path d="m208 266v-260h256v260" fill="#b9c2cf"/><path d="m208 250h256v16h-256z" fill="#95a4b6"/><path d="m432 506h-400v-320h112v32h288z" fill="#95a4b6"/><path d="m32 490h448v16h-448z" fill="#72869e"/><path d="m432 118v148h-256v-228h176z" fill="#fff"/><path d="m352 118h80v16h-80z" fill="#dce1e7"/><path d="m176 250h256v16h-256z" fill="#dce1e7"/><g><path d="m208 142h112v96h-112z" fill="#b9c2cf"/><path d="m304 142h16v96h-16z" fill="#95a4b6"/></g><path d="m80 266h400v240h-400z" fill="#dce1e7"/><path d="m80 490h400v16h-400z" fill="#b9c2cf"/><path d="m368 442h80v32h-80z" fill="#fff"/><path d="m432 118h-80v-80" fill="#95a4b6"/><g fill="#012d4a"><path d="m208 104h64v12h-64z"/><path d="m208 72h96v12h-96z"/><path d="m326 136h-124v108h124zm-12 12v20h-68v-10h-12v10h-20v-20zm-80 42v10h-20v-20h100v20h-68v-10zm12 42v-10h-12v10h-20v-20h100v20z"/><path d="m470 260v-260h-268v32h-32v180h-20v-32h-124v332h460v-252zm-256-248h244v248h-20v-144.485l-83.515-83.515h-140.485zm144 40.485 59.515 59.515h-59.515zm-12-8.485v80h80v136h-244v-216zm-272 456h-36v-308h100v20h-74v12h106v36h-96zm400 0h-388v-228h388z"/><path d="m454 436h-92v44h92zm-12 32h-68v-20h68z"/></g></g></svg>