<svg id="Layer_1" enable-background="new 0 0 512 512" height="512" viewBox="0 0 512 512" width="512" xmlns="http://www.w3.org/2000/svg"><g><path d="m122 6h320v448h-320z" fill="#b9c2cf"/><path d="m122 438h320v16h-320z" fill="#95a4b6"/><path d="m390 138v368h-320v-448h240z" fill="#fff"/><path d="m310 138h80v16h-80z" fill="#dce1e7"/><path d="m70 490h320v16h-320z" fill="#dce1e7"/><g fill="#95a4b6"><path d="m390 138h-80v-80"/><path d="m198 114h32v32h-32z"/><path d="m230 146h32v32h-32z"/><path d="m198 178h32v32h-32z"/><path d="m230 210h32v32h-32z"/><path d="m198 242h32v32h-32z" transform="matrix(-1 0 0 -1 428 516)"/><path d="m230 274h32v32h-32z" transform="matrix(-1 0 0 -1 492 580)"/><path d="m198 306h32v32h-32z" transform="matrix(-1 0 0 -1 428 644)"/></g><path d="m254 450h-48v-56l24-24 24 24z" fill="#b9c2cf"/><path d="m206 426h48v24h-48z" fill="#fff"/><g fill="#012d4a"><path d="m448 0h-332v52h-52v460h332v-52h52zm-372 500v-436h228v80h80v356zm240-427.515 59.515 59.515h-59.515zm120 375.515h-40v-312.485l-83.515-83.515h-184.485v-40h308z"/><path d="m236 108h-44v44h32v20h-32v44h32v20h-32v44h32v20h-32v44h32v23.515l-24 24v64.485h60v-64.485l-24-24v-55.515h32v-44h-32v-20h32v-44h-32v-20h32v-44h-32zm-32 32v-20h20v20zm0 64v-20h20v20zm0 64v-20h20v20zm0 64v-20h20v20zm8 112v-12h36v12zm36-24h-36v-23.515l18-18 18 18zm8-140v20h-20v-20zm0-64v20h-20v-20zm0-64v20h-20v-20z"/></g></g></svg>