<svg id="Layer_1" enable-background="new 0 0 512 512" height="512" viewBox="0 0 512 512" width="512" xmlns="http://www.w3.org/2000/svg"><path d="m464 86v368h-320v-448h240z" fill="#fff"/><path d="m384 86h80v16h-80z" fill="#dce1e7"/><path d="m464 86h-80v-80" fill="#95a4b6"/><g><path d="m190 182h224v100h-224z" fill="#dce1e7"/><path d="m190 150h224v32h-224z" fill="#95a4b6"/></g><path d="m144 438h320v16h-320z" fill="#dce1e7"/><path d="m48 314h256v192h-256z" fill="#b9c2cf"/><path d="m48 314h256v192h-256z" fill="#b9c2cf"/><path d="m48 490h256v16h-256z" fill="#95a4b6"/><g fill="#012d4a"><path d="m192 64h160v12h-160z"/><path d="m192 96h128v12h-128z"/><path d="m190 156h42v20h-42v12h42v88h-42v12h224v-12h-42v-88h42v-12h-42v-20h42v-12h-224zm54 0h116v20h-116zm0 32h116v88h-116z"/><path d="m386.485 0h-248.485v308h-96v204h268v-52h160v-376.485zm3.515 20.485 59.515 59.515h-59.515zm-100.485 299.515-113.515 113.515-113.515-113.515zm-235.515 8.485 81.515 81.515-81.515 81.515zm8.485 171.515 81.515-81.515 32 32 32-32 81.515 81.515zm235.515-8.485-81.515-81.515 81.515-81.515zm160-43.515h-148v-140h-160v-296h228v80h80z"/><path d="m336 320h80v12h-80z"/><path d="m336 352h80v12h-80z"/></g></svg>