<?xml version="1.0" encoding="iso-8859-1"?>
<!-- Generator: Adobe Illustrator 19.0.0, SVG Export Plug-In . SVG Version: 6.00 Build 0)  -->
<svg version="1.1" id="Capa_1" xmlns="http://www.w3.org/2000/svg" xmlns:xlink="http://www.w3.org/1999/xlink" x="0px" y="0px"
	 viewBox="0 0 512.007 512.007" style="enable-background:new 0 0 512.007 512.007;" xml:space="preserve">
<polygon style="fill:#D9EFFD;" points="174.314,512 0.345,512 0.345,233.871 172.308,233.871 "/>
<rect x="337.694" y="277.979" style="fill:#52B6FC;" width="173.968" height="234.028"/>
<path style="fill:#265185;" d="M340.186,512H171.823V165.881h168.362V512z"/>
<g>
	<rect x="240.973" style="fill:#FDA42D;" width="30.07" height="63.106"/>
	
		<rect x="367.933" y="53.895" transform="matrix(-0.7071 -0.7071 0.7071 -0.7071 592.9114 417.7155)" style="fill:#FDA42D;" width="30.07" height="64.334"/>
	
		<rect x="96.663" y="70.835" transform="matrix(-0.7071 -0.7071 0.7071 -0.7071 159.2073 237.6857)" style="fill:#FDA42D;" width="64.334" height="30.07"/>
</g>
<rect x="337.694" y="277.979" style="fill:#3B97D6;" width="173.968" height="234.028"/>
<rect x="256.003" y="165.879" style="fill:#183866;" width="84.178" height="346.118"/>
<g>
	<rect x="256.003" style="fill:#EE7F2A;" width="15.03" height="63.106"/>
	
		<rect x="367.933" y="53.895" transform="matrix(-0.7071 -0.7071 0.7071 -0.7071 592.9114 417.7155)" style="fill:#EE7F2A;" width="30.07" height="64.334"/>
</g>
<rect x="240.973" y="334.264" style="fill:#D9EFFD;" width="30.07" height="117.274"/>
<rect x="256.003" y="334.264" style="fill:#B2E0F9;" width="15.03" height="117.274"/>
<path style="fill:#265185;" d="M461.986,369.817c0-18.585-15.121-33.706-33.705-33.706h-31.446v30.071h31.447
	c2.003,0,3.634,1.631,3.634,3.635v4.394c0,2.761-2.246,5.007-5.008,5.007h-29.071v30.071h29.071h0.001l0,0
	c2.76,0,5.007,2.246,5.007,5.007v4.394c0,2.004-1.631,3.635-3.634,3.635h-31.447v30.071h31.447
	c18.584,0,33.705-15.121,33.705-33.705v-4.394c0-7.448-2.341-14.357-6.315-20.042c3.975-5.686,6.315-12.594,6.315-20.042v-4.396
	H461.986z"/>
<path style="fill:#183866;" d="M461.986,369.817c0-18.585-15.121-33.706-33.705-33.706h-31.446v30.071h31.447
	c2.003,0,3.634,1.631,3.634,3.635v4.394c0,2.761-2.246,5.007-5.008,5.007h-29.071v30.071h29.071h0.001l0,0
	c2.76,0,5.007,2.246,5.007,5.007v4.394c0,2.004-1.631,3.635-3.634,3.635h-31.447v30.071h31.447
	c18.584,0,33.705-15.121,33.705-33.705v-4.394c0-7.448-2.341-14.357-6.315-20.042c3.975-5.686,6.315-12.594,6.315-20.042v-4.396
	H461.986z"/>
<path style="fill:#52B6FC;" d="M86.668,335.103H57.539v30.071h29.13c1.347,0,2.443,1.097,2.443,2.444v6.777
	c0,1.307-0.608,2.189-1.118,2.698c-0.503,0.502-1.369,1.099-2.647,1.115h-2.44c-0.001,0-0.001,0-0.002,0
	c-0.04,0-0.08,0.003-0.121,0.003h-2.191v0.084c-8.18,0.548-15.797,3.987-21.648,9.838c-6.4,6.4-9.926,14.91-9.926,23.962v6.777
	c0,17.928,14.586,32.515,32.514,32.515h34.142v-30.071H81.532c-1.347,0-2.443-1.097-2.443-2.444v-6.777
	c0-1.306,0.608-2.188,1.118-2.698c0.503-0.502,1.37-1.099,2.647-1.115h2.44c0.001,0,0.001,0,0.002,0c0.04,0,0.08-0.003,0.121-0.003
	h2.693v-0.121c7.989-0.653,15.415-4.07,21.147-9.801c6.399-6.4,9.925-14.91,9.925-23.962v-6.777
	C119.182,349.689,104.596,335.103,86.668,335.103z"/>
<g>
</g>
<g>
</g>
<g>
</g>
<g>
</g>
<g>
</g>
<g>
</g>
<g>
</g>
<g>
</g>
<g>
</g>
<g>
</g>
<g>
</g>
<g>
</g>
<g>
</g>
<g>
</g>
<g>
</g>
</svg>
