<?xml version="1.0" encoding="iso-8859-1"?>
<!-- Generator: Adobe Illustrator 19.0.0, SVG Export Plug-In . SVG Version: 6.00 Build 0)  -->
<svg version="1.1" id="Capa_1" xmlns="http://www.w3.org/2000/svg" xmlns:xlink="http://www.w3.org/1999/xlink" x="0px" y="0px"
	 viewBox="0 0 512 512" style="enable-background:new 0 0 512 512;" xml:space="preserve">
<path style="fill:#FEDC36;" d="M377.75,323.989l-57.973-26.292c-28.479,12.872-59.692,16.791-90.741,11.319
	c-12.699-2.237-25.01-6.015-36.692-11.251l-58.086,26.137l5.758-64.504c-31.489-35.376-45.311-83.59-37.064-130.395
	C117.82,44.613,198.579-11.949,282.965,2.919l0,0c40.881,7.203,76.51,29.894,100.324,63.894s32.963,75.239,25.76,116.119
	c-5.049,28.659-17.815,54.958-37.063,76.487L377.75,323.989z"/>
<path style="fill:#FDC500;" d="M383.288,66.812c-23.814-34-59.443-56.691-100.324-63.894c-8.944-1.576-17.843-2.326-26.631-2.347
	v310.802c21.831,0.001,43.322-4.582,63.444-13.677l57.973,26.292l-5.765-64.57c19.247-21.529,32.014-47.829,37.063-76.487
	C416.251,142.051,407.103,100.812,383.288,66.812z"/>
<path style="fill:#EA0016;" d="M512,511.454H322.368v-15c0-44.464,36.174-80.638,80.638-80.638h28.356
	c44.464,0,80.638,36.174,80.638,80.638V511.454z"/>
<path style="fill:#C30010;" d="M431.362,415.816h-14.501v95.638H512v-15C512,451.99,475.826,415.816,431.362,415.816z"/>
<path style="fill:#FFDFCF;" d="M417.084,445.816c-31.78,0-57.635-25.855-57.635-57.635s25.854-57.635,57.635-57.635
	s57.635,25.855,57.635,57.635S448.864,445.816,417.084,445.816z"/>
<path style="fill:#FFCEBF;" d="M417.084,330.546c-0.075,0-0.148,0.005-0.223,0.006V445.81c0.075,0,0.148,0.006,0.223,0.006
	c31.78,0,57.635-25.855,57.635-57.635S448.864,330.546,417.084,330.546z"/>
<g>
	<rect x="241" y="193.39" style="fill:#265185;" width="30" height="25.385"/>
	<rect x="241" y="82.96" style="fill:#265185;" width="30" height="86.64"/>
</g>
<g>
	<rect x="256.33" y="193.39" style="fill:#183866;" width="14.667" height="25.385"/>
	<rect x="256.33" y="82.96" style="fill:#183866;" width="14.667" height="86.64"/>
</g>
<path style="fill:#FDA42D;" d="M189.632,511.454H0v-15c0-44.464,36.174-80.638,80.638-80.638h28.356
	c44.464,0,80.638,36.174,80.638,80.638V511.454z"/>
<path style="fill:#EE7F2A;" d="M108.994,415.816H94.716v95.638h94.916v-15C189.632,451.99,153.458,415.816,108.994,415.816z"/>
<path style="fill:#FFDFCF;" d="M94.716,445.816c-31.78,0-57.635-25.855-57.635-57.635s25.854-57.635,57.635-57.635
	s57.635,25.855,57.635,57.635S126.496,445.816,94.716,445.816z"/>
<path style="fill:#FFCEBF;" d="M94.716,330.546v115.27c31.78,0,57.635-25.855,57.635-57.635S126.496,330.546,94.716,330.546z"/>
<g>
</g>
<g>
</g>
<g>
</g>
<g>
</g>
<g>
</g>
<g>
</g>
<g>
</g>
<g>
</g>
<g>
</g>
<g>
</g>
<g>
</g>
<g>
</g>
<g>
</g>
<g>
</g>
<g>
</g>
</svg>
