<?xml version="1.0" encoding="iso-8859-1"?>
<!-- Generator: Adobe Illustrator 19.0.0, SVG Export Plug-In . SVG Version: 6.00 Build 0)  -->
<svg version="1.1" id="Capa_1" xmlns="http://www.w3.org/2000/svg" xmlns:xlink="http://www.w3.org/1999/xlink" x="0px" y="0px"
	 viewBox="0 0 512 512" style="enable-background:new 0 0 512 512;" xml:space="preserve">
<path style="fill:#FEDC36;" d="M256,82.226c-68.989,0-125.115,56.126-125.115,125.115c0,21.941,5.79,43.546,16.745,62.48
	c8.928,15.43,21.113,28.823,35.566,39.202h145.608c14.453-10.38,26.639-23.773,35.566-39.202
	c10.955-18.934,16.745-40.539,16.745-62.48C381.115,138.352,324.989,82.226,256,82.226z"/>
<path style="fill:#FDC500;" d="M256,82.226v226.797h72.804c14.453-10.38,26.639-23.773,35.566-39.202
	c10.955-18.934,16.745-40.539,16.745-62.48C381.115,138.352,324.989,82.226,256,82.226z"/>
<rect x="184.35" y="321.62" style="fill:#D9EFFD;" width="143.31" height="107.73"/>
<rect x="256" y="321.62" style="fill:#B2E0F9;" width="71.65" height="107.73"/>
<path style="fill:#FFDFCF;" d="M255.041,259.498c-28.757,0-52.153-23.396-52.153-52.153s23.396-52.153,52.153-52.153
	s52.153,23.396,52.153,52.153S283.799,259.498,255.041,259.498z"/>
<g>
	<rect x="241" y="0.596" style="fill:#265185;" width="30" height="42.959"/>
	<rect x="422.01" y="181.07" style="fill:#265185;" width="52.96" height="30"/>
	<rect x="37.03" y="181.07" style="fill:#265185;" width="52.96" height="30"/>
	
		<rect x="382.673" y="46.442" transform="matrix(-0.7071 -0.7071 0.7071 -0.7071 628.3393 403.1903)" style="fill:#265185;" width="30" height="50.04"/>
	
		<rect x="89.107" y="56.254" transform="matrix(-0.7071 -0.7071 0.7071 -0.7071 144.4415 202.338)" style="fill:#265185;" width="50.04" height="30"/>
</g>
<path style="fill:#FDA42D;" d="M267.484,229.498h-24.711c-38.813,0-70.556,30.79-72.123,69.225c3.954,3.693,8.143,7.138,12.545,10.3
	h145.608c3.776-2.712,7.393-5.634,10.842-8.74C338.888,261.125,306.82,229.498,267.484,229.498z"/>
<g>
	<rect x="184.35" y="369.1" style="fill:#265185;" width="143.31" height="30"/>
	<rect x="184.35" y="309.1" style="fill:#265185;" width="143.31" height="30"/>
</g>
<path style="fill:#FFDFCF;" d="M256,155.216v104.257c28.315-0.515,51.194-23.693,51.194-52.128S284.315,155.731,256,155.216z"/>
<g>
	<rect x="256" y="0.596" style="fill:#183866;" width="15" height="42.959"/>
	<rect x="422.01" y="181.07" style="fill:#183866;" width="52.96" height="30"/>
	
		<rect x="382.673" y="46.442" transform="matrix(-0.7071 -0.7071 0.7071 -0.7071 628.3393 403.1903)" style="fill:#183866;" width="30" height="50.04"/>
</g>
<path style="fill:#EE7F2A;" d="M267.484,229.498H256v79.525h72.804c3.776-2.712,7.393-5.634,10.842-8.74
	C338.888,261.125,306.82,229.498,267.484,229.498z"/>
<g>
	<rect x="256" y="369.1" style="fill:#183866;" width="71.65" height="30"/>
	<rect x="256" y="309.1" style="fill:#183866;" width="71.65" height="30"/>
</g>
<path style="fill:#FFDFCF;" d="M255.128,259.494c-28.756,0-52.151-23.395-52.151-52.151s23.395-52.151,52.151-52.151
	s52.151,23.395,52.151,52.151C307.28,236.099,283.885,259.494,255.128,259.494z"/>
<path style="fill:#FFCEBF;" d="M256,155.214v104.258c28.354-0.469,51.28-23.665,51.28-52.129
	C307.28,178.879,284.354,155.683,256,155.214z"/>
<path style="fill:#EA0016;" d="M512,511.404H322.368v-15c0-44.464,36.174-80.638,80.638-80.638h28.356
	c44.464,0,80.638,36.174,80.638,80.638V511.404z"/>
<path style="fill:#C30010;" d="M431.362,415.766h-14.501v95.638H512v-15C512,451.94,475.826,415.766,431.362,415.766z"/>
<path style="fill:#FFDFCF;" d="M417.084,445.766c-31.78,0-57.635-25.855-57.635-57.635s25.854-57.635,57.635-57.635
	s57.635,25.855,57.635,57.635S448.864,445.766,417.084,445.766z"/>
<path style="fill:#FFCEBF;" d="M417.084,330.497c-0.075,0-0.148,0.005-0.223,0.006v115.258c0.075,0,0.148,0.006,0.223,0.006
	c31.78,0,57.635-25.855,57.635-57.635S448.864,330.497,417.084,330.497z"/>
<path style="fill:#35B25B;" d="M189.632,511.404H0v-15c0-44.464,36.174-80.638,80.638-80.638h28.356
	c44.464,0,80.638,36.174,80.638,80.638V511.404z"/>
<path style="fill:#279246;" d="M108.994,415.766H94.716v95.638h94.916v-15C189.632,451.94,153.458,415.766,108.994,415.766z"/>
<path style="fill:#FFDFCF;" d="M94.716,445.766c-31.78,0-57.635-25.855-57.635-57.635s25.854-57.635,57.635-57.635
	s57.635,25.855,57.635,57.635S126.496,445.766,94.716,445.766z"/>
<path style="fill:#FFCEBF;" d="M94.716,330.497v115.27c31.78,0,57.635-25.855,57.635-57.635S126.496,330.497,94.716,330.497z"/>
<g>
</g>
<g>
</g>
<g>
</g>
<g>
</g>
<g>
</g>
<g>
</g>
<g>
</g>
<g>
</g>
<g>
</g>
<g>
</g>
<g>
</g>
<g>
</g>
<g>
</g>
<g>
</g>
<g>
</g>
</svg>
