<?xml version="1.0" encoding="iso-8859-1"?>
<!-- Generator: Adobe Illustrator 19.0.0, SVG Export Plug-In . SVG Version: 6.00 Build 0)  -->
<svg version="1.1" id="Capa_1" xmlns="http://www.w3.org/2000/svg" xmlns:xlink="http://www.w3.org/1999/xlink" x="0px" y="0px"
	 viewBox="0 0 512 512" style="enable-background:new 0 0 512 512;" xml:space="preserve">
<g>
	<rect x="27.99" y="419.52" style="fill:#FDA42D;" width="30" height="92.48"/>
	<rect x="453.99" y="419.52" style="fill:#FDA42D;" width="30" height="92.48"/>
</g>
<rect x="453.99" y="419.52" style="fill:#EE7F2A;" width="30" height="92.48"/>
<rect x="208.77" y="241.1" style="fill:#35B25B;" width="93.56" height="110.83"/>
<path style="fill:#FFDFCF;" d="M85.766,404.522V229.831l-36.821-8.128L0,274.259v160.263h125.99v77h30v-107H85.766z"/>
<polygon style="fill:#265185;" points="57.667,276.286 85.766,276.286 85.766,229.831 48.945,221.703 0,274.259 0,434.522 
	57.667,434.522 "/>
<path style="fill:#FFDFCF;" d="M463.055,221.703l-36.82,8.128v174.691H356.01v107h30v-77H512V274.259L463.055,221.703z"/>
<polygon style="fill:#EA0016;" points="463.055,221.703 426.234,229.831 426.234,276.415 454.081,276.415 454.081,434.522 
	512,434.522 512,274.259 "/>
<g>
	<rect x="240.99" style="fill:#D9EFFD;" width="30" height="56.04"/>
	
		<rect x="353.738" y="49.06" transform="matrix(-0.7071 -0.7071 0.7071 -0.7071 574.5852 393.2503)" style="fill:#D9EFFD;" width="30" height="57.129"/>
	
		<rect x="114.499" y="62.439" transform="matrix(-0.7071 -0.7071 0.7071 -0.7071 189.4669 233.3579)" style="fill:#D9EFFD;" width="57.129" height="30"/>
</g>
<rect x="256.33" y="241.1" style="fill:#279246;" width="46" height="110.83"/>
<path style="fill:#FFCEBF;" d="M463.055,221.703l-36.82,8.128v174.691H356.01v107h30v-77H512V274.259L463.055,221.703z"/>
<polygon style="fill:#C30010;" points="463.055,221.703 426.234,229.831 426.234,276.415 454.081,276.415 454.081,434.522 
	512,434.522 512,274.259 "/>
<g>
	<rect x="256.33" style="fill:#B2E0F9;" width="14.656" height="56.04"/>
	
		<rect x="353.738" y="49.06" transform="matrix(-0.7071 -0.7071 0.7071 -0.7071 574.5852 393.2503)" style="fill:#B2E0F9;" width="30" height="57.129"/>
</g>
<path style="fill:#FFDFCF;" d="M350.706,357.43h-30v-60.043c0-24.761-17.678-45.752-42.033-49.912
	c-2.82-0.482-5.716-0.726-8.604-0.726h-28.357c-27.922,0-50.638,22.716-50.638,50.638v59.998h-30v-59.998
	c0-44.464,36.174-80.638,80.638-80.638h28.357c4.576,0,9.171,0.388,13.654,1.154c38.813,6.629,66.983,40.057,66.983,79.484V357.43z"
	/>
<path style="fill:#FFCEBF;" d="M283.723,217.903c-4.483-0.766-9.078-1.154-13.654-1.154h-13.735v30h13.735
	c2.889,0,5.784,0.244,8.604,0.726c24.355,4.16,42.033,25.15,42.033,49.912v60.043h30v-60.043
	C350.706,257.959,322.536,224.532,283.723,217.903z"/>
<rect x="183.53" y="356.49" style="fill:#EE7F2A;" width="141.47" height="155.51"/>
<rect x="114.1" y="342.43" style="fill:#FDA42D;" width="282.99" height="30"/>
<rect x="256.33" y="356.49" style="fill:#EB6529;" width="68.67" height="155.51"/>
<rect x="256.33" y="342.43" style="fill:#EE7F2A;" width="140.75" height="30"/>
<path style="fill:#FFDFCF;" d="M255.79,246.749c-31.78,0-57.635-25.855-57.635-57.635s25.855-57.635,57.635-57.635
	s57.635,25.855,57.635,57.635S287.569,246.749,255.79,246.749z"/>
<path style="fill:#FFCEBF;" d="M256.333,131.493v115.242c31.529-0.294,57.091-26.024,57.091-57.621S287.862,131.788,256.333,131.493
	z"/>
<g>
	<path style="fill:#FFDFCF;" d="M58.084,246.749c-31.78,0-57.635-25.855-57.635-57.635s25.855-57.635,57.635-57.635
		s57.635,25.855,57.635,57.635S89.864,246.749,58.084,246.749z"/>
	<path style="fill:#FFDFCF;" d="M453.916,246.749c-31.78,0-57.635-25.855-57.635-57.635s25.854-57.635,57.635-57.635
		s57.635,25.855,57.635,57.635S485.696,246.749,453.916,246.749z"/>
</g>
<path style="fill:#FFCEBF;" d="M453.916,246.749c-31.78,0-57.635-25.855-57.635-57.635s25.854-57.635,57.635-57.635
	s57.635,25.855,57.635,57.635S485.696,246.749,453.916,246.749z"/>
<g>
</g>
<g>
</g>
<g>
</g>
<g>
</g>
<g>
</g>
<g>
</g>
<g>
</g>
<g>
</g>
<g>
</g>
<g>
</g>
<g>
</g>
<g>
</g>
<g>
</g>
<g>
</g>
<g>
</g>
</svg>
