<?xml version="1.0" encoding="iso-8859-1"?>
<!-- Generator: Adobe Illustrator 19.0.0, SVG Export Plug-In . SVG Version: 6.00 Build 0)  -->
<svg version="1.1" id="Capa_1" xmlns="http://www.w3.org/2000/svg" xmlns:xlink="http://www.w3.org/1999/xlink" x="0px" y="0px"
	 viewBox="0 0 512 512" style="enable-background:new 0 0 512 512;" xml:space="preserve">
<path style="fill:#FDA42D;" d="M512,511.895H322.368v-15c0-44.464,36.174-80.638,80.638-80.638h28.356
	c44.464,0,80.638,36.174,80.638,80.638V511.895z"/>
<path style="fill:#EE7F2A;" d="M512,511.895H322.368v-15c0-44.464,36.174-80.638,80.638-80.638h28.356
	c44.464,0,80.638,36.174,80.638,80.638V511.895z"/>
<path style="fill:#FFDFCF;" d="M417.084,446.257c-31.78,0-57.635-25.855-57.635-57.635s25.854-57.635,57.635-57.635
	s57.635,25.855,57.635,57.635S448.864,446.257,417.084,446.257z"/>
<path style="fill:#FFCEBF;" d="M417.084,446.257c-31.78,0-57.635-25.855-57.635-57.635s25.854-57.635,57.635-57.635
	s57.635,25.855,57.635,57.635S448.864,446.257,417.084,446.257z"/>
<g>
	<path style="fill:#35B25B;" d="M214.451,182.488l13.345-13.345l-21.213-21.213l-13.359,13.36
		c-4.417-2.556-9.142-4.509-14.076-5.813v-18.858h-30v18.893c-4.931,1.316-9.653,3.276-14.064,5.843l-13.335-13.335l-21.213,21.214
		l13.371,13.37c-2.571,4.462-4.495,9.195-5.783,14.065h-18.9v30h18.933c1.299,4.867,3.232,9.596,5.814,14.054l-13.345,13.345
		l21.213,21.213l13.359-13.359c4.417,2.556,9.142,4.509,14.076,5.813v18.857h30v-18.893c4.931-1.316,9.653-3.276,14.064-5.843
		l13.334,13.334l21.213-21.213l-13.37-13.37c2.571-4.462,4.495-9.195,5.783-14.065h18.898v-30h-18.932
		C218.966,191.675,217.033,186.945,214.451,182.488z M144.361,231.455c-10.944-10.945-10.944-28.754,0-39.699
		c5.473-5.472,12.661-8.208,19.85-8.208s14.377,2.736,19.85,8.208c10.944,10.945,10.944,28.754,0,39.699
		C173.114,242.399,155.306,242.399,144.361,231.455z"/>
	<path style="fill:#35B25B;" d="M422.776,226.542v-30h-18.933c-1.299-4.867-3.232-9.597-5.814-14.054l13.345-13.345l-21.213-21.213
		l-13.359,13.36c-4.417-2.556-9.142-4.509-14.076-5.813v-18.858h-30v18.893c-4.931,1.316-9.653,3.276-14.064,5.843l-13.334-13.334
		l-21.213,21.213l13.37,13.37c-2.571,4.463-4.496,9.195-5.784,14.065h-18.898v30h18.932c1.299,4.867,3.232,9.596,5.814,14.054
		l-13.345,13.345l21.213,21.213l13.359-13.359c4.417,2.556,9.142,4.509,14.076,5.813v18.857h30v-18.893
		c4.931-1.316,9.653-3.276,14.064-5.843l13.335,13.335l21.213-21.214l-13.371-13.371c2.571-4.462,4.495-9.195,5.783-14.065h18.9
		V226.542z M327.939,231.455c-10.944-10.945-10.944-28.754,0-39.699c5.473-5.472,12.661-8.208,19.85-8.208s14.377,2.736,19.85,8.208
		c10.944,10.945,10.944,28.754,0,39.699C356.692,242.399,338.884,242.399,327.939,231.455z"/>
	<path style="fill:#35B25B;" d="M283.411,125.342l13.334,13.335l21.213-21.213l-13.37-13.371c2.571-4.463,4.496-9.195,5.784-14.065
		h18.898v-30h-18.932c-1.299-4.867-3.232-9.596-5.814-14.053l13.345-13.345l-21.213-21.213l-13.359,13.36
		c-4.417-2.556-9.142-4.509-14.076-5.813V0.105h-30v18.893c-4.931,1.316-9.653,3.276-14.064,5.843l-13.334-13.334L190.608,32.72
		l13.37,13.37c-2.571,4.463-4.496,9.195-5.784,14.065h-18.898v30h18.932c1.299,4.867,3.232,9.596,5.814,14.054l-13.345,13.345
		l21.213,21.213l13.359-13.359c4.417,2.557,9.142,4.509,14.076,5.813v18.857h30v-18.893
		C274.278,129.87,278.999,127.909,283.411,125.342z M254.283,47.034c7.188,0,14.377,2.736,19.85,8.208
		c10.944,10.945,10.944,28.753,0,39.699c-5.302,5.302-12.352,8.222-19.85,8.222s-14.548-2.92-19.85-8.222
		c-10.944-10.945-10.944-28.754,0-39.699C239.906,49.77,247.095,47.034,254.283,47.034z"/>
</g>
<g>
	<path style="fill:#279246;" d="M422.776,226.542v-30h-18.933c-1.299-4.867-3.232-9.597-5.814-14.054l13.345-13.345l-21.213-21.213
		l-13.359,13.36c-4.417-2.556-9.142-4.509-14.076-5.813v-18.858h-30v18.893c-4.931,1.316-9.653,3.276-14.064,5.843l-13.334-13.334
		l-21.213,21.213l13.37,13.37c-2.571,4.463-4.496,9.195-5.784,14.065h-18.898v30h18.932c1.299,4.867,3.232,9.596,5.814,14.054
		l-13.345,13.345l21.213,21.213l13.359-13.359c4.417,2.556,9.142,4.509,14.076,5.813v18.857h30v-18.893
		c4.931-1.316,9.653-3.276,14.064-5.843l13.335,13.335l21.213-21.214l-13.371-13.371c2.571-4.462,4.495-9.195,5.783-14.065h18.9
		V226.542z M327.939,231.455c-10.944-10.945-10.944-28.754,0-39.699c5.473-5.472,12.661-8.208,19.85-8.208s14.377,2.736,19.85,8.208
		c10.944,10.945,10.944,28.754,0,39.699C356.692,242.399,338.884,242.399,327.939,231.455z"/>
	<path style="fill:#279246;" d="M329.27,90.028v-30h-18.932c-1.299-4.867-3.232-9.596-5.814-14.053l13.345-13.345l-21.213-21.213
		l-13.359,13.36c-4.417-2.556-9.142-4.509-14.076-5.813V0.105h-15.553v46.943c0.205-0.004,0.411-0.015,0.616-0.015
		c7.188,0,14.377,2.736,19.85,8.208c10.944,10.945,10.944,28.753,0,39.699c-5.302,5.302-12.352,8.222-19.85,8.222
		c-0.206,0-0.411-0.011-0.616-0.015v46.93h15.68v-18.893c4.931-1.316,9.653-3.276,14.064-5.843l13.334,13.335l21.213-21.213
		l-13.37-13.371c2.571-4.463,4.496-9.195,5.784-14.065h18.897V90.028z"/>
</g>
<path style="fill:#52B6FC;" d="M189.632,511.895H0v-15c0-44.464,36.174-80.638,80.638-80.638h28.356
	c44.464,0,80.638,36.174,80.638,80.638V511.895z"/>
<path style="fill:#FFDFCF;" d="M94.716,446.257c-31.78,0-57.635-25.855-57.635-57.635s25.854-57.635,57.635-57.635
	s57.635,25.855,57.635,57.635S126.496,446.257,94.716,446.257z"/>
<path style="fill:#EA0016;" d="M350.716,511.895H161.084v-15c0-44.464,36.174-80.638,80.638-80.638h28.356
	c44.464,0,80.638,36.174,80.638,80.638V511.895z"/>
<path style="fill:#C30010;" d="M270.078,416.257h-13.745v95.638h94.383v-15C350.716,452.431,314.542,416.257,270.078,416.257z"/>
<path style="fill:#FFDFCF;" d="M255.8,446.257c-31.78,0-57.635-25.855-57.635-57.635s25.854-57.635,57.635-57.635
	s57.635,25.855,57.635,57.635S287.58,446.257,255.8,446.257z"/>
<path style="fill:#FFCEBF;" d="M256.333,331.001v115.242c31.534-0.289,57.101-26.02,57.101-57.621S287.868,331.29,256.333,331.001z"
	/>
<g>
</g>
<g>
</g>
<g>
</g>
<g>
</g>
<g>
</g>
<g>
</g>
<g>
</g>
<g>
</g>
<g>
</g>
<g>
</g>
<g>
</g>
<g>
</g>
<g>
</g>
<g>
</g>
<g>
</g>
</svg>
