<?xml version="1.0" encoding="iso-8859-1"?>
<!-- Generator: Adobe Illustrator 19.0.0, SVG Export Plug-In . SVG Version: 6.00 Build 0)  -->
<svg version="1.1" id="Capa_1" xmlns="http://www.w3.org/2000/svg" xmlns:xlink="http://www.w3.org/1999/xlink" x="0px" y="0px"
	 viewBox="0 0 512 512" style="enable-background:new 0 0 512 512;" xml:space="preserve">
<polygon style="fill:#EA0016;" points="366.007,60.582 161.059,60.582 161.059,268.726 251.736,268.726 341.004,357.994 
	341.004,268.726 441.011,268.726 441.011,60.582 "/>
<path style="fill:#52B6FC;" d="M431.363,415.783h-28.357c-44.464,0-80.638,36.174-80.638,80.638v15H512v-15
	C512,451.957,475.826,415.783,431.363,415.783z"/>
<path style="fill:#3B97D6;" d="M431.363,415.783H417v95.638h95v-15C512,451.957,475.826,415.783,431.363,415.783z"/>
<polygon style="fill:#C30010;" points="227.667,58.633 227.667,268.726 251.736,268.726 341.004,357.994 341.004,268.726 
	441.011,268.726 441.011,60.582 "/>
<polygon style="fill:#FDA42D;" points="78.004,0.579 78.004,208.723 138.008,208.723 138.008,297.991 227.275,208.723 
	381.007,208.723 381.007,0.579 "/>
<rect x="227.67" y="0.579" style="fill:#EE7F2A;" width="153.34" height="208.14"/>
<g>
	<rect x="138" y="58.63" style="fill:#FEDC36;" width="183" height="30"/>
	<rect x="138" y="118.64" style="fill:#FEDC36;" width="183" height="30"/>
</g>
<g>
	<rect x="227.67" y="58.63" style="fill:#FDC500;" width="93.33" height="30"/>
	<rect x="227.67" y="118.64" style="fill:#FDC500;" width="93.33" height="30"/>
</g>
<path style="fill:#265185;" d="M108.995,415.783H80.638C36.174,415.783,0,451.957,0,496.421v15h189.632v-15
	C189.632,451.957,153.458,415.783,108.995,415.783z"/>
<path style="fill:#183866;" d="M108.995,415.783H94.948v95.638h94.684v-15C189.632,451.957,153.458,415.783,108.995,415.783z"/>
<path style="fill:#FFDFCF;" d="M94.716,330.514c-31.78,0-57.635,25.855-57.635,57.635s25.855,57.635,57.635,57.635
	s57.635-25.855,57.635-57.635S126.496,330.514,94.716,330.514z"/>
<path style="fill:#FFCEBF;" d="M94.948,330.52v115.258c31.673-0.126,57.402-25.927,57.402-57.629S126.621,330.646,94.948,330.52z"/>
<path style="fill:#FFDFCF;" d="M417.084,330.514c-31.78,0-57.635,25.855-57.635,57.635s25.855,57.635,57.635,57.635
	s57.635-25.855,57.635-57.635S448.864,330.514,417.084,330.514z"/>
<path style="fill:#FFCEBF;" d="M417.084,330.514c-0.028,0-0.056,0.002-0.084,0.002v115.265c0.028,0,0.056,0.002,0.084,0.002
	c31.78,0,57.635-25.855,57.635-57.635S448.864,330.514,417.084,330.514z"/>
<g>
</g>
<g>
</g>
<g>
</g>
<g>
</g>
<g>
</g>
<g>
</g>
<g>
</g>
<g>
</g>
<g>
</g>
<g>
</g>
<g>
</g>
<g>
</g>
<g>
</g>
<g>
</g>
<g>
</g>
</svg>
