<?xml version="1.0" encoding="iso-8859-1"?>
<!-- Generator: Adobe Illustrator 19.0.0, SVG Export Plug-In . SVG Version: 6.00 Build 0)  -->
<svg version="1.1" id="Capa_1" xmlns="http://www.w3.org/2000/svg" xmlns:xlink="http://www.w3.org/1999/xlink" x="0px" y="0px"
	 viewBox="0 0 512 512" style="enable-background:new 0 0 512 512;" xml:space="preserve">
<path style="fill:#FEDC36;" d="M413.048,276.207h-36.572c-54.562,0-98.952,44.159-98.952,98.437v14.225H512v-14.225
	C512,320.367,467.61,276.207,413.048,276.207z"/>
<path style="fill:#FDC500;" d="M413.048,276.207h-36.572c-54.562,0-98.952,44.159-98.952,98.437v14.225H512v-14.225
	C512,320.367,467.61,276.207,413.048,276.207z"/>
<path style="fill:#FFDFCF;" d="M394.632,166.807c-38.204,0-69.286,30.92-69.286,68.925s31.082,68.925,69.286,68.925
	s69.286-30.919,69.286-68.925C463.918,197.727,432.836,166.807,394.632,166.807z"/>
<path style="fill:#FFB09A;" d="M394.632,166.807c-38.204,0-69.286,30.92-69.286,68.925s31.082,68.925,69.286,68.925
	s69.286-30.919,69.286-68.925C463.918,197.727,432.836,166.807,394.632,166.807z"/>
<path style="fill:#35B25B;" d="M135.524,276.207H98.952C44.39,276.207,0,320.367,0,374.645v14.225h234.476v-14.225
	C234.476,320.367,190.086,276.207,135.524,276.207z"/>
<path style="fill:#FFBDAB;" d="M117.109,166.807c-38.204,0-69.286,30.92-69.286,68.925s31.082,68.925,69.286,68.925
	s69.286-30.919,69.286-68.925C186.394,197.727,155.313,166.807,117.109,166.807z"/>
<polygon style="fill:#265185;" points="255.923,0.637 138.093,108.824 200.002,108.824 200.002,319.192 310.357,319.192 
	310.357,108.824 373.753,108.824 "/>
<polygon style="fill:#183866;" points="255.923,0.637 255.809,319.192 310.357,319.192 310.357,108.824 373.753,108.824 "/>
<path style="fill:#52B6FC;" d="M343.892,337.536H307.32c-54.562,0-98.952,44.159-98.952,98.437v14.225h234.476v-14.225
	C442.844,381.695,398.454,337.536,343.892,337.536z"/>
<path style="fill:#3B97D6;" d="M343.892,337.536H307.32c-54.562,0-98.952,44.159-98.952,98.437v14.225h234.476v-14.225
	C442.844,381.695,398.454,337.536,343.892,337.536z"/>
<path style="fill:#FFCEBF;" d="M325.476,228.136c-38.204,0-69.286,30.92-69.286,68.925s31.082,68.925,69.286,68.925
	s69.286-30.919,69.286-68.925C394.762,259.056,363.68,228.136,325.476,228.136z"/>
<path style="fill:#FFBDAB;" d="M325.476,228.136c-38.204,0-69.286,30.92-69.286,68.925s31.082,68.925,69.286,68.925
	s69.286-30.919,69.286-68.925C394.762,259.056,363.68,228.136,325.476,228.136z"/>
<path style="fill:#FDA42D;" d="M204.939,337.536h-36.572c-54.562,0-98.952,44.159-98.952,98.437v14.225h234.476v-14.225
	C303.891,381.695,259.501,337.536,204.939,337.536z"/>
<path style="fill:#FFCEBF;" d="M186.524,228.136c-38.204,0-69.286,30.92-69.286,68.925s31.082,68.925,69.286,68.925
	s69.286-30.919,69.286-68.925C255.809,259.056,224.728,228.136,186.524,228.136z"/>
<path style="fill:#EA0016;" d="M274.354,398.701h-36.572c-54.562,0-98.952,44.159-98.952,98.437v14.225h234.476v-14.225
	C373.306,442.86,328.916,398.701,274.354,398.701z"/>
<path style="fill:#C30010;" d="M274.354,398.701H256.08v112.662h117.226v-14.225C373.306,442.86,328.916,398.701,274.354,398.701z"
	/>
<path style="fill:#FFDFCF;" d="M255.939,289.301c-38.204,0-69.286,30.92-69.286,68.925s31.082,68.925,69.286,68.925
	s69.286-30.919,69.286-68.925C325.224,320.221,294.143,289.301,255.939,289.301z"/>
<path style="fill:#FFCEBF;" d="M256.08,289.304v137.843c38.139-0.077,69.144-30.963,69.144-68.921S294.219,289.381,256.08,289.304z"
	/>
<g>
</g>
<g>
</g>
<g>
</g>
<g>
</g>
<g>
</g>
<g>
</g>
<g>
</g>
<g>
</g>
<g>
</g>
<g>
</g>
<g>
</g>
<g>
</g>
<g>
</g>
<g>
</g>
<g>
</g>
</svg>
