<?xml version="1.0" encoding="iso-8859-1"?>
<!-- Generator: Adobe Illustrator 19.0.0, SVG Export Plug-In . SVG Version: 6.00 Build 0)  -->
<svg version="1.1" id="Capa_1" xmlns="http://www.w3.org/2000/svg" xmlns:xlink="http://www.w3.org/1999/xlink" x="0px" y="0px"
	 viewBox="0 0 512.001 512.001" style="enable-background:new 0 0 512.001 512.001;" xml:space="preserve">
<path style="fill:#265185;" d="M255.692,388.734c-71.868,0-130.336-58.468-130.336-130.336s58.468-130.336,130.336-130.336
	s130.336,58.468,130.336,130.336S327.559,388.734,255.692,388.734z"/>
<g>
	<path style="fill:#FDA42D;" d="M152.92,456.859c-49.891-25.596-88.282-68.611-108.101-121.12
		c-18.354-48.63-19.542-100.392-3.436-149.692c11.942-36.555,33.142-69.509,60.999-95.462l-5.138,42.64l29.938,3.609l11.327-93.99
		l-92.81-10.974l-3.541,29.946l41.603,4.92C51.239,96.42,26.522,134.437,12.72,176.682c-8.855,27.105-13.104,55.245-12.628,83.637
		c0.493,29.38,6.049,58.337,16.516,86.069c22.465,59.522,65.987,108.283,122.548,137.301
		c36.557,18.754,76.608,28.312,116.889,28.312c21.594,0,43.256-2.747,64.475-8.298l-7.63-29.173
		C259.277,488.551,202.464,482.276,152.92,456.859z"/>
	<path style="fill:#FDA42D;" d="M496.473,343.459c20.968-57.4,20.612-120.548-1-177.809
		C472.07,103.642,426.264,53.749,366.492,25.161C306.911-3.335,239.593-7.787,176.937,12.627l9.342,28.671
		c55.258-18.004,114.637-14.073,167.201,11.067c52.727,25.218,93.134,69.231,113.78,123.934
		c19.062,50.506,19.377,106.197,0.888,156.814c-14.621,40.026-40.207,74.946-73.408,100.816l5.589-46.375l-29.938-3.609
		l-11.328,93.99l92.809,10.974l3.541-29.946l-38.058-4.501C453.006,425.49,480.51,387.158,496.473,343.459z"/>
</g>
<path style="fill:#EE7F2A;" d="M496.473,343.459c20.968-57.4,20.612-120.548-1-177.809
	C472.07,103.642,426.264,53.749,366.492,25.161C306.911-3.335,239.593-7.787,176.937,12.627l9.342,28.671
	c55.258-18.004,114.637-14.073,167.201,11.067c52.727,25.218,93.134,69.231,113.78,123.934
	c19.062,50.506,19.377,106.197,0.888,156.814c-14.621,40.026-40.207,74.946-73.408,100.816l5.589-46.375l-29.938-3.609
	l-11.328,93.99l92.809,10.974l3.541-29.946l-38.058-4.501C453.006,425.49,480.51,387.158,496.473,343.459z"/>
<path style="fill:#183866;" d="M255.692,128.063c-0.065,0-0.065,260.671,0,260.671c71.868,0,130.336-58.468,130.336-130.336
	S327.559,128.063,255.692,128.063z"/>
<path style="fill:#52B6FC;" d="M255.692,114.334c-79.438,0-144.065,64.627-144.065,144.065s64.627,144.065,144.065,144.065
	s144.065-64.627,144.065-144.065S335.13,114.334,255.692,114.334z M368.603,243.322h-55.147
	c-1.125-23.739-4.898-46.33-11.092-66.051c-3.143-10.007-6.821-19.026-11.003-27.056C332.147,163.696,362.8,199.636,368.603,243.322
	z M255.693,366.387c-15.151-18.858-25.464-53.355-27.571-92.912h55.141C281.156,313.034,270.844,347.53,255.693,366.387z
	 M228.123,243.322c2.107-39.557,12.42-74.053,27.571-92.912c15.151,18.858,25.463,53.355,27.571,92.912H228.123z M220.025,150.214
	c-4.182,8.029-7.86,17.049-11.003,27.056c-6.194,19.722-9.967,42.312-11.092,66.051h-55.148
	C148.585,199.635,179.239,163.694,220.025,150.214z M142.781,273.477h55.149c1.126,23.74,4.897,46.331,11.092,66.052
	c3.143,10.007,6.821,19.026,11.003,27.055C179.239,353.103,148.585,317.162,142.781,273.477z M291.36,366.583
	c4.181-8.029,7.859-17.048,11.003-27.055c6.195-19.722,9.967-42.312,11.092-66.052h55.147
	C362.8,317.162,332.147,353.102,291.36,366.583z"/>
<path style="fill:#3B97D6;" d="M255.692,114.334c-0.065,0-0.065,36.159,0.001,36.076c15.151,18.858,25.463,53.355,27.571,92.912
	h-27.62v30.155h27.62c-2.107,39.557-12.42,74.054-27.571,92.912c-0.066-0.082-0.066,36.076-0.001,36.076
	c79.438,0,144.065-64.627,144.065-144.065S335.13,114.334,255.692,114.334z M368.603,243.322h-55.147
	c-1.125-23.739-4.898-46.33-11.092-66.051c-3.143-10.007-6.821-19.026-11.003-27.056C332.147,163.696,362.8,199.636,368.603,243.322
	z M291.36,366.583c4.181-8.029,7.859-17.048,11.003-27.055c6.195-19.722,9.967-42.312,11.092-66.052h55.147
	C362.8,317.162,332.147,353.102,291.36,366.583z"/>
<g>
</g>
<g>
</g>
<g>
</g>
<g>
</g>
<g>
</g>
<g>
</g>
<g>
</g>
<g>
</g>
<g>
</g>
<g>
</g>
<g>
</g>
<g>
</g>
<g>
</g>
<g>
</g>
<g>
</g>
</svg>
