<?xml version="1.0" encoding="iso-8859-1"?>
<!-- Generator: Adobe Illustrator 19.0.0, SVG Export Plug-In . SVG Version: 6.00 Build 0)  -->
<svg version="1.1" id="Capa_1" xmlns="http://www.w3.org/2000/svg" xmlns:xlink="http://www.w3.org/1999/xlink" x="0px" y="0px"
	 viewBox="0 0 512 512" style="enable-background:new 0 0 512 512;" xml:space="preserve">
<circle style="fill:#D9EFFD;" cx="256" cy="255.99" r="208.99"/>
<circle style="fill:#B2E0F9;" cx="256" cy="255.99" r="208.99"/>
<path style="fill:#FEDC36;" d="M256.079,46.998c-0.026,0-0.053-0.001-0.079-0.001c-115.424,0-208.994,93.57-208.994,208.994
	c0,0.003,0,0.006,0,0.009h209.073L256.079,46.998L256.079,46.998z"/>
<path style="fill:#52B6FC;" d="M47.006,256C47.01,371.42,140.579,464.986,256,464.986c0.026,0,0.053-0.001,0.079-0.001V256H47.006z"
	/>
<path style="fill:#265185;" d="M464.994,256H256.079v208.985C371.464,464.942,464.99,371.394,464.994,256z"/>
<path style="fill:#183866;" d="M464.994,256H256.079v208.985C371.464,464.942,464.99,371.394,464.994,256z"/>
<g>
	<path style="fill:#EA0016;" d="M512,512H322.368v-15c0-44.464,36.174-80.638,80.638-80.638h28.356
		C475.826,416.362,512,452.536,512,497V512z"/>
	<path style="fill:#EA0016;" d="M512,180.907H322.368v-15c0-44.463,36.174-80.637,80.638-80.637h28.356
		c44.464,0,80.638,36.174,80.638,80.637V180.907z"/>
</g>
<g>
	<path style="fill:#C30010;" d="M431.362,416.362H417V512h95v-15C512,452.536,475.826,416.362,431.362,416.362z"/>
	<path style="fill:#C30010;" d="M431.362,85.27H417v95.637h95v-15C512,121.443,475.826,85.27,431.362,85.27z"/>
</g>
<path style="fill:#EA0016;" d="M189.632,180.907H0v-15C0,121.443,36.174,85.27,80.638,85.27h28.357
	c44.463,0,80.637,36.174,80.637,80.637V180.907z"/>
<g>
	<path style="fill:#D9EFFD;" d="M185.525,256L79.019,367.176c5.426,8.619,11.462,16.813,18.051,24.523L227.069,256H185.525z"/>
	<path style="fill:#D9EFFD;" d="M256.079,282.935L122.352,416.663c7.78,6.479,16.037,12.404,24.712,17.714l109.015-109.015
		L256.079,282.935L256.079,282.935z"/>
	<path style="fill:#D9EFFD;" d="M93.653,256l-42.349,42.349c2.324,11.291,5.569,22.245,9.635,32.791l75.14-75.14H93.653z"/>
	<path style="fill:#D9EFFD;" d="M256.079,377.788l-73.806,73.806c10.62,4.005,21.649,7.171,33.011,9.415l40.795-40.795V377.788z"/>
</g>
<path style="fill:#EA0016;" d="M189.632,512H0v-15c0-44.464,36.174-80.638,80.638-80.638h28.357
	c44.464,0,80.638,36.174,80.638,80.638L189.632,512L189.632,512z"/>
<g>
	<path style="fill:#C30010;" d="M108.995,85.27H95v95.637h94.632v-15C189.632,121.443,153.458,85.27,108.995,85.27z"/>
	<path style="fill:#C30010;" d="M108.995,416.362H95V512h94.632v-15C189.632,452.536,153.459,416.362,108.995,416.362z"/>
</g>
<g>
	<path style="fill:#FFDFCF;" d="M94.716,115.27c-31.78,0-57.635-25.855-57.635-57.635S62.936,0,94.716,0
		s57.635,25.855,57.635,57.635S126.496,115.27,94.716,115.27z"/>
	<path style="fill:#FFDFCF;" d="M94.716,446.362c-31.78,0-57.635-25.855-57.635-57.635s25.855-57.635,57.635-57.635
		s57.635,25.855,57.635,57.635S126.496,446.362,94.716,446.362z"/>
</g>
<g>
	<path style="fill:#FFCEBF;" d="M95,0.007v115.255c31.649-0.154,57.351-25.943,57.351-57.628S126.649,0.162,95,0.007z"/>
	<path style="fill:#FFCEBF;" d="M95,331.1v115.255c31.649-0.154,57.351-25.943,57.351-57.628S126.649,331.254,95,331.1z"/>
</g>
<g>
	<path style="fill:#FFDFCF;" d="M417.084,446.362c-31.78,0-57.635-25.855-57.635-57.635s25.854-57.635,57.635-57.635
		s57.635,25.855,57.635,57.635S448.864,446.362,417.084,446.362z"/>
	<path style="fill:#FFDFCF;" d="M417.084,115.27c-31.78,0-57.635-25.855-57.635-57.635S385.304,0,417.084,0
		s57.635,25.855,57.635,57.635S448.864,115.27,417.084,115.27z"/>
</g>
<g>
	<path style="fill:#FFCEBF;" d="M417.084,331.093c-0.028,0-0.056,0.002-0.084,0.002V446.36c0.028,0,0.056,0.002,0.084,0.002
		c31.78,0,57.635-25.855,57.635-57.635S448.864,331.093,417.084,331.093z"/>
	<path style="fill:#FFCEBF;" d="M417.084,0c-0.028,0-0.056,0.002-0.084,0.002v115.265c0.028,0,0.056,0.002,0.084,0.002
		c31.78,0,57.635-25.855,57.635-57.635S448.864,0,417.084,0z"/>
</g>
<g>
</g>
<g>
</g>
<g>
</g>
<g>
</g>
<g>
</g>
<g>
</g>
<g>
</g>
<g>
</g>
<g>
</g>
<g>
</g>
<g>
</g>
<g>
</g>
<g>
</g>
<g>
</g>
<g>
</g>
</svg>
