<?xml version="1.0" encoding="iso-8859-1"?>
<!-- Generator: Adobe Illustrator 19.0.0, SVG Export Plug-In . SVG Version: 6.00 Build 0)  -->
<svg version="1.1" id="Capa_1" xmlns="http://www.w3.org/2000/svg" xmlns:xlink="http://www.w3.org/1999/xlink" x="0px" y="0px"
	 viewBox="0 0 512 512" style="enable-background:new 0 0 512 512;" xml:space="preserve">
<polygon style="fill:#265185;" points="317.5,60.476 204.551,167.913 204.551,197.913 274.394,197.913 342.497,261.772 
	342.497,197.913 382.504,197.913 382.504,60.476 "/>
<polygon style="fill:#183866;" points="317.5,60.476 255,119.926 255,197.913 274.394,197.913 342.497,261.772 342.497,197.913 
	382.504,197.913 382.504,60.476 "/>
<rect x="452.99" y="419.048" style="fill:#FDA42D;" width="30" height="92.48"/>
<g>
	<rect x="452.99" y="419.048" style="fill:#EE7F2A;" width="30" height="92.48"/>
	<rect x="196" y="365.618" style="fill:#EE7F2A;" width="117.02" height="145.91"/>
</g>
<rect x="28.561" y="419.048" style="fill:#FDA42D;" width="30" height="92.48"/>
<g>
	<path style="fill:#FFDFCF;" d="M471.38,268.62l-45.146,9.241v126.185H366.01v107.478h30v-77.478H512V308.791L471.38,268.62z"/>
	<path style="fill:#FFDFCF;" d="M85.316,277.861l-45.148-9.238L0,308.791v125.255h115.541v77.478h30V404.046H85.316V277.861z"/>
</g>
<polygon style="fill:#35B25B;" points="58.561,316.521 85.316,316.521 85.316,277.861 40.168,268.623 0,308.791 0,434.046 
	58.561,434.046 "/>
<polygon style="fill:#FEDC36;" points="99.496,0.472 99.496,137.909 189.5,137.909 189.5,224.244 261.673,137.909 332.5,137.909 
	332.5,0.472 "/>
<path style="fill:#FFDFCF;" d="M57.635,179.509C25.854,179.509,0,205.364,0,237.144s25.854,57.635,57.635,57.635
	s57.635-25.855,57.635-57.635S89.415,179.509,57.635,179.509z"/>
<rect x="255" y="365.618" style="fill:#EB6529;" width="58.02" height="145.91"/>
<path style="fill:#FFCEBF;" d="M471.38,268.62l-45.146,9.241v126.185H366.01v107.478h30v-77.478H512V308.791L471.38,268.62z"/>
<polygon style="fill:#FDC500;" points="255,0.472 255,145.892 261.673,137.909 332.5,137.909 332.5,0.472 "/>
<rect x="130.76" y="341.958" style="fill:#FDA42D;" width="250.49" height="30"/>
<rect x="255" y="341.958" style="fill:#EE7F2A;" width="126.24" height="30"/>
<polygon style="fill:#EA0016;" points="471.38,268.62 426.234,277.861 426.234,314.521 453,314.521 453,434.046 512,434.046 
	512,308.791 "/>
<polygon style="fill:#C30010;" points="471.38,268.62 426.234,277.861 426.234,314.521 453,314.521 453,434.046 512,434.046 
	512,308.791 "/>
<path style="fill:#FFDFCF;" d="M453.916,179.509c-31.78,0-57.635,25.855-57.635,57.635s25.854,57.635,57.635,57.635
	s57.635-25.855,57.635-57.635S485.696,179.509,453.916,179.509z"/>
<path style="fill:#FFCEBF;" d="M453.916,179.509c-31.78,0-57.635,25.855-57.635,57.635s25.854,57.635,57.635,57.635
	s57.635-25.855,57.635-57.635S485.696,179.509,453.916,179.509z"/>
<g>
</g>
<g>
</g>
<g>
</g>
<g>
</g>
<g>
</g>
<g>
</g>
<g>
</g>
<g>
</g>
<g>
</g>
<g>
</g>
<g>
</g>
<g>
</g>
<g>
</g>
<g>
</g>
<g>
</g>
</svg>
