<?xml version="1.0" encoding="iso-8859-1"?>
<!-- Generator: Adobe Illustrator 19.0.0, SVG Export Plug-In . SVG Version: 6.00 Build 0)  -->
<svg version="1.1" id="Capa_1" xmlns="http://www.w3.org/2000/svg" xmlns:xlink="http://www.w3.org/1999/xlink" x="0px" y="0px"
	 viewBox="0 0 512 512" style="enable-background:new 0 0 512 512;" xml:space="preserve">
<path style="fill:#FEDC36;" d="M256.012,348.868c-68.406,0-124.059-55.653-124.059-124.059S187.605,100.75,256.012,100.75
	S380.07,156.403,380.07,224.809S324.418,348.868,256.012,348.868z"/>
<path style="fill:#FDA42D;" d="M258.56,209.793h-5.098c-4.772,0-8.655-3.882-8.655-8.655c0-4.773,3.882-8.655,8.655-8.655h5.098
	c4.772,0,8.655,3.882,8.655,8.655h30.033c0-16.97-10.988-31.413-26.22-36.615V148.88h-30.033v15.642
	c-15.232,5.201-26.22,19.643-26.22,36.615c0,21.333,17.355,38.688,38.688,38.688h5.098c4.772,0,8.655,3.882,8.655,8.655
	c0,4.773-3.882,8.655-8.655,8.655h-5.098c-4.772,0-8.655-3.882-8.655-8.655h-30.033c0,16.97,10.988,31.413,26.22,36.615v15.642
	h30.033v-15.642c15.232-5.201,26.22-19.643,26.22-36.615C297.248,227.148,279.893,209.793,258.56,209.793z"/>
<path style="fill:#FDC500;" d="M256.012,100.75v248.118c68.406,0,124.059-55.653,124.059-124.059S324.418,100.75,256.012,100.75z"/>
<g>
	<path style="fill:#EE7F2A;" d="M256.012,148.88v43.602h2.549c4.772,0,8.655,3.882,8.655,8.655h30.033
		c0-16.97-10.988-31.413-26.22-36.615v-15.642h-15.017V148.88z"/>
	<path style="fill:#EE7F2A;" d="M258.56,209.793h-2.549v30.033h2.549c4.772,0,8.655,3.882,8.655,8.655
		c0,4.773-3.882,8.655-8.655,8.655h-2.549v43.602h15.016v-15.642c15.232-5.201,26.22-19.643,26.22-36.615
		C297.248,227.148,279.893,209.793,258.56,209.793z"/>
</g>
<rect x="27.58" y="320.27" style="fill:#FFDFCF;" width="30.033" height="160.815"/>
<polygon style="fill:#265185;" points="48.507,121.071 0,174.85 0,335.288 84.316,335.288 84.316,142.394 "/>
<rect x="454.384" y="320.27" style="fill:#FFDFCF;" width="30.033" height="160.815"/>
<polygon style="fill:#EA0016;" points="463.493,121.071 427.684,141.66 427.684,335.288 512,335.288 512,174.85 "/>
<g>
	<path style="fill:#FFDFCF;" d="M63.422,146.311c-31.815,0-57.698-25.882-57.698-57.698s25.883-57.698,57.698-57.698
		s57.698,25.882,57.698,57.698S95.237,146.311,63.422,146.311z"/>
	<path style="fill:#FFDFCF;" d="M448.578,146.311c-31.815,0-57.698-25.882-57.698-57.698s25.883-57.698,57.698-57.698
		s57.698,25.882,57.698,57.698S480.393,146.311,448.578,146.311z"/>
	<path style="fill:#FFDFCF;" d="M84.361,183.22v-3.163H54.328v3.163c0,37.496,30.505,68.001,68.001,68.001h25.364v-30.033h-25.364
		C101.392,221.188,84.361,204.156,84.361,183.22z"/>
</g>
<rect x="454.384" y="320.27" style="fill:#FFCEBF;" width="30.033" height="160.815"/>
<polygon style="fill:#C30010;" points="463.493,121.071 427.684,141.66 427.684,335.288 512,335.288 512,174.85 "/>
<path style="fill:#FFCEBF;" d="M448.578,146.311c-31.815,0-57.698-25.882-57.698-57.698s25.883-57.698,57.698-57.698
	s57.698,25.882,57.698,57.698S480.393,146.311,448.578,146.311z"/>
<path style="fill:#FFDFCF;" d="M427.773,180.056v3.163c0,20.936-17.033,37.968-37.968,37.968h-25.364v30.033h25.364
	c37.496,0,68.001-30.505,68.001-68.001v-3.163H427.773z"/>
<path style="fill:#FFCEBF;" d="M427.679,180.056v3.163c0,20.936-17.033,37.968-37.968,37.968h-25.364v30.033h25.364
	c37.496,0,68.001-30.505,68.001-68.001v-3.163H427.679z"/>
<g>
</g>
<g>
</g>
<g>
</g>
<g>
</g>
<g>
</g>
<g>
</g>
<g>
</g>
<g>
</g>
<g>
</g>
<g>
</g>
<g>
</g>
<g>
</g>
<g>
</g>
<g>
</g>
<g>
</g>
</svg>
