<?xml version="1.0" encoding="iso-8859-1"?>
<!-- Generator: Adobe Illustrator 19.0.0, SVG Export Plug-In . SVG Version: 6.00 Build 0)  -->
<svg version="1.1" id="Capa_1" xmlns="http://www.w3.org/2000/svg" xmlns:xlink="http://www.w3.org/1999/xlink" x="0px" y="0px"
	 viewBox="0 0 512 512" style="enable-background:new 0 0 512 512;" xml:space="preserve">
<g>
	
		<rect x="347.283" y="62.092" transform="matrix(-0.6945 -0.7195 0.7195 -0.6945 507.404 511.501)" style="fill:#52B6FC;" width="30.026" height="171.87"/>
	
		<rect x="285.342" y="324.502" transform="matrix(-0.6973 -0.7168 0.7168 -0.6973 325.7596 816.6031)" style="fill:#52B6FC;" width="99.938" height="30.026"/>
</g>
<g>
	
		<rect x="347.283" y="62.092" transform="matrix(-0.6945 -0.7195 0.7195 -0.6945 507.404 511.501)" style="fill:#3B97D6;" width="30.026" height="171.87"/>
	
		<rect x="285.342" y="324.502" transform="matrix(-0.6973 -0.7168 0.7168 -0.6973 325.7596 816.6031)" style="fill:#3B97D6;" width="99.938" height="30.026"/>
</g>
<rect x="133.839" y="275.405" transform="matrix(-0.723 -0.6909 0.6909 -0.723 6.2878 726.7678)" style="fill:#52B6FC;" width="30.027" height="173.436"/>
<path style="fill:#FDA42D;" d="M454.315,0.475c-31.808,0-57.685,25.877-57.685,57.685s25.876,57.685,57.685,57.685
	S512,89.968,512,58.16S486.123,0.475,454.315,0.475z"/>
<path style="fill:#FEDC36;" d="M402.11,345.92c-31.808,0-57.685,25.877-57.685,57.685s25.876,57.685,57.685,57.685
	s57.685-25.877,57.685-57.685S433.917,345.92,402.11,345.92z"/>
<path style="fill:#35B25B;" d="M57.685,396.155C25.877,396.155,0,422.032,0,453.84s25.877,57.685,57.685,57.685
	s57.685-25.877,57.685-57.685S89.492,396.155,57.685,396.155z"/>
<path style="fill:#279246;" d="M57.685,396.155v115.37c31.808,0,57.685-25.877,57.685-57.685S89.492,396.155,57.685,396.155z"/>
<rect x="123.574" y="159.781" transform="matrix(-0.6973 -0.7168 0.7168 -0.6973 170.4427 421.5695)" style="fill:#52B6FC;" width="101.329" height="30.026"/>
<path style="fill:#EA0016;" d="M256.763,175.759c-44.078,0-79.938,35.86-79.938,79.938s35.86,79.938,79.938,79.938
	c44.077,0,79.937-35.86,79.937-79.938S300.84,175.759,256.763,175.759z"/>
<path style="fill:#265185;" d="M106.984,52.501c-31.808,0-57.685,25.877-57.685,57.685s25.877,57.685,57.685,57.685
	s57.685-25.877,57.685-57.685S138.79,52.501,106.984,52.501z"/>
<path style="fill:#183866;" d="M106.984,52.501v115.37c31.808,0,57.685-25.877,57.685-57.685S138.79,52.501,106.984,52.501z"/>
<path style="fill:#EE7F2A;" d="M454.315,0.475v115.37c31.808,0,57.685-25.877,57.685-57.685S486.123,0.475,454.315,0.475z"/>
<path style="fill:#FDC500;" d="M402.11,345.92v115.37c31.808,0,57.685-25.877,57.685-57.685S433.917,345.92,402.11,345.92z"/>
<path style="fill:#C30010;" d="M256.763,175.759v159.875c44.077,0,79.937-35.86,79.937-79.938S300.84,175.759,256.763,175.759z"/>
<g>
</g>
<g>
</g>
<g>
</g>
<g>
</g>
<g>
</g>
<g>
</g>
<g>
</g>
<g>
</g>
<g>
</g>
<g>
</g>
<g>
</g>
<g>
</g>
<g>
</g>
<g>
</g>
<g>
</g>
</svg>
