<?xml version="1.0" encoding="iso-8859-1"?>
<!-- Generator: Adobe Illustrator 19.0.0, SVG Export Plug-In . SVG Version: 6.00 Build 0)  -->
<svg version="1.1" id="Capa_1" xmlns="http://www.w3.org/2000/svg" xmlns:xlink="http://www.w3.org/1999/xlink" x="0px" y="0px"
	 viewBox="0 0 512 512" style="enable-background:new 0 0 512 512;" xml:space="preserve">
<path style="fill:#FEDC36;" d="M256,0C152.042,0,67.467,84.575,67.467,188.532c0,33.06,8.724,65.613,25.227,94.136
	c14.558,25.162,34.852,46.745,59.016,62.852v166.479H360.29V345.521c24.164-16.107,44.459-37.69,59.016-62.852
	c16.503-28.523,25.227-61.076,25.227-94.136C444.533,84.575,359.957,0,256,0z"/>
<path style="fill:#FDC500;" d="M256,0v512h104.29V345.521c24.164-16.107,44.459-37.69,59.016-62.852
	c16.503-28.523,25.227-61.076,25.227-94.136C444.533,84.575,359.957,0,256,0z"/>
<path style="fill:#265185;" d="M360.29,345.521c24.164-16.107,44.459-37.69,59.016-62.852c1.129-1.951,2.213-3.925,3.27-5.914
	c-6.167-42.884-43.147-75.949-87.71-75.949h-31.164c-48.866,0-88.62,39.755-88.62,88.62v63.298H360.29L360.29,345.521
	L360.29,345.521z"/>
<path style="fill:#183866;" d="M360.29,345.521c24.164-16.107,44.459-37.69,59.016-62.852c1.129-1.951,2.213-3.925,3.27-5.914
	c-6.167-42.884-43.147-75.949-87.71-75.949h-31.164c-48.866,0-88.62,39.755-88.62,88.62v63.298H360.29L360.29,345.521
	L360.29,345.521z"/>
<path style="fill:#35B25B;" d="M207.681,200.806h-31.164c-44.239,0-81.009,32.584-87.575,75.011
	c1.207,2.305,2.447,4.595,3.752,6.852c14.558,25.162,34.852,46.745,59.016,62.852v7.204h144.592v-63.298
	C296.301,240.561,256.547,200.806,207.681,200.806z"/>
<g>
	<rect x="151.706" y="426.588" style="fill:#FDA42D;" width="208.579" height="28.469"/>
	<rect x="151.706" y="483.531" style="fill:#FDA42D;" width="208.579" height="28.469"/>
	<rect x="151.706" y="369.646" style="fill:#FDA42D;" width="208.579" height="28.469"/>
</g>
<g>
	<rect x="256.001" y="426.588" style="fill:#EE7F2A;" width="104.294" height="28.469"/>
	<rect x="256.001" y="483.531" style="fill:#EE7F2A;" width="104.294" height="28.469"/>
	<rect x="255.811" y="369.646" style="fill:#EE7F2A;" width="104.294" height="28.469"/>
</g>
<path style="fill:#FFCEBF;" d="M319.398,233.552c-34.802,0-63.116-28.314-63.116-63.116s28.314-63.116,63.116-63.116
	s63.116,28.314,63.116,63.116S354.2,233.552,319.398,233.552z"/>
<path style="fill:#FFBDAB;" d="M319.398,233.552c-34.802,0-63.116-28.314-63.116-63.116s28.314-63.116,63.116-63.116
	s63.116,28.314,63.116,63.116S354.2,233.552,319.398,233.552z"/>
<path style="fill:#FFCEBF;" d="M192.152,233.94c-35.015,0-63.504-28.487-63.504-63.504s28.487-63.504,63.504-63.504
	s63.504,28.487,63.504,63.504S227.168,233.94,192.152,233.94z"/>
<path style="fill:#EA0016;" d="M360.114,369.645H151.71V353.16c0-48.866,39.755-88.62,88.62-88.62h31.164
	c48.866,0,88.62,39.755,88.62,88.62L360.114,369.645L360.114,369.645z"/>
<path style="fill:#C30010;" d="M271.525,264.54h-15.718v105.105h104.339v-16.485C360.145,304.295,320.391,264.54,271.525,264.54z"/>
<path style="fill:#FFDFCF;" d="M255.802,297.51c-34.925,0-63.341-28.414-63.341-63.341s28.414-63.341,63.341-63.341
	s63.341,28.414,63.341,63.341S290.727,297.51,255.802,297.51z"/>
<path style="fill:#FFCEBF;" d="M255.802,297.51V170.83c34.925,0,63.341,28.414,63.341,63.341S290.727,297.51,255.802,297.51z"/>
<g>
</g>
<g>
</g>
<g>
</g>
<g>
</g>
<g>
</g>
<g>
</g>
<g>
</g>
<g>
</g>
<g>
</g>
<g>
</g>
<g>
</g>
<g>
</g>
<g>
</g>
<g>
</g>
<g>
</g>
</svg>
