<?xml version="1.0" encoding="iso-8859-1"?>
<!-- Generator: Adobe Illustrator 19.0.0, SVG Export Plug-In . SVG Version: 6.00 Build 0)  -->
<svg version="1.1" id="Capa_1" xmlns="http://www.w3.org/2000/svg" xmlns:xlink="http://www.w3.org/1999/xlink" x="0px" y="0px"
	 viewBox="0 0 512 512" style="enable-background:new 0 0 512 512;" xml:space="preserve">
<polygon style="fill:#265185;" points="395.516,62.053 53.138,62.053 53.138,512 396.81,512 "/>
<polygon style="fill:#183866;" points="285.086,512 396.81,512 395.516,62.053 285.086,62.053 "/>
<polygon style="fill:#D9EFFD;" points="371.655,0 115.191,0 115.191,449.947 458.862,449.947 458.862,87.208 "/>
<polygon style="fill:#B2E0F9;" points="371.655,0 262.569,0 262.569,449.947 458.862,449.947 458.862,87.208 "/>
<g>
	<rect x="171.235" y="60.047" style="fill:#52B6FC;" width="125.849" height="30.024"/>
	<rect x="171.235" y="120.094" style="fill:#52B6FC;" width="75.809" height="30.024"/>
</g>
<path style="fill:#EA0016;" d="M397.64,343.382H219.035V328.37c0-41.965,34.141-76.106,76.106-76.106h26.395
	c41.965,0,76.106,34.141,76.106,76.106L397.64,343.382L397.64,343.382z"/>
<path style="fill:#C30010;" d="M397.64,343.382H219.035V328.37c0-41.965,34.141-76.106,76.106-76.106h26.395
	c41.965,0,76.106,34.141,76.106,76.106L397.64,343.382L397.64,343.382z"/>
<path style="fill:#FFCEBF;" d="M317.264,282.288c-30.16,0-54.695-24.536-54.695-54.695s24.536-54.695,54.695-54.695
	s54.695,24.536,54.695,54.695S347.424,282.288,317.264,282.288z"/>
<path style="fill:#FFBDAB;" d="M317.264,282.288c-30.16,0-54.695-24.536-54.695-54.695s24.536-54.695,54.695-54.695
	s54.695,24.536,54.695,54.695S347.424,282.288,317.264,282.288z"/>
<polygon style="fill:#B2E0F9;" points="371.655,0 371.655,87.208 458.862,87.208 "/>
<rect x="262.566" y="60.047" style="fill:#3B97D6;" width="34.512" height="30.024"/>
<polygon style="fill:#B2E0F9;" points="371.655,0 371.655,87.208 458.862,87.208 "/>
<polygon style="fill:#52B6FC;" points="371.655,0 371.655,87.208 458.862,87.208 "/>
<path style="fill:#FDA42D;" d="M352.661,387.947H174.055v-15.012c0-41.965,34.141-76.106,76.106-76.106h26.395
	c41.965,0,76.106,34.141,76.106,76.106L352.661,387.947L352.661,387.947z"/>
<path style="fill:#EE7F2A;" d="M276.555,296.829h-13.987v91.117h90.092v-15.012C352.661,330.97,318.52,296.829,276.555,296.829z"/>
<path style="fill:#FFDFCF;" d="M263.265,326.853c-30.16,0-54.695-24.536-54.695-54.695c0-30.159,24.536-54.695,54.695-54.695
	s54.695,24.536,54.695,54.695C317.96,302.317,293.424,326.853,263.265,326.853z"/>
<path style="fill:#FFCEBF;" d="M263.265,217.462c-0.233,0-0.463,0.015-0.696,0.018v109.356c0.233,0.003,0.462,0.018,0.696,0.018
	c30.16,0,54.695-24.536,54.695-54.695S293.424,217.462,263.265,217.462z"/>
<g>
</g>
<g>
</g>
<g>
</g>
<g>
</g>
<g>
</g>
<g>
</g>
<g>
</g>
<g>
</g>
<g>
</g>
<g>
</g>
<g>
</g>
<g>
</g>
<g>
</g>
<g>
</g>
<g>
</g>
</svg>
