<?xml version="1.0" encoding="iso-8859-1"?>
<!-- Generator: Adobe Illustrator 19.0.0, SVG Export Plug-In . SVG Version: 6.00 Build 0)  -->
<svg version="1.1" id="Capa_1" xmlns="http://www.w3.org/2000/svg" xmlns:xlink="http://www.w3.org/1999/xlink" x="0px" y="0px"
	 viewBox="0 0 512 512" style="enable-background:new 0 0 512 512;" xml:space="preserve">
<path style="fill:#EA0016;" d="M109.532,85.495H81.1c-44.581,0-80.85,36.269-80.85,80.85v15.04h190.131v-15.04
	C190.381,121.763,154.113,85.495,109.532,85.495z"/>
<path style="fill:#52B6FC;" d="M429.536,85.495h-28.431c-44.581,0-80.85,36.269-80.85,80.85v15.04h190.132v-15.04
	C510.386,121.763,474.118,85.495,429.536,85.495z"/>
<path style="fill:#35B25B;" d="M174.418,294.952h-28.432c-44.581,0-80.85,36.269-80.85,80.849v15.039h190.132v-15.039
	C255.269,331.221,218.999,294.952,174.418,294.952z"/>
<path style="fill:#FEDC36;" d="M395.935,300.641c-8.973-3.35-21.98-5.689-31.631-5.689h-28.432c-44.581,0-80.85,36.269-80.85,80.849
	v15.039h74.391l61.26-76.109l0.001-0.001L395.935,300.641z"/>
<path style="fill:#FDC500;" d="M395.935,300.641c-8.973-3.35-21.98-5.689-31.631-5.689h-28.432c-44.581,0-80.85,36.269-80.85,80.849
	v15.039h74.391l61.26-76.109l0.001-0.001L395.935,300.641z"/>
<path style="fill:#3B97D6;" d="M429.536,85.495h-28.431c-44.581,0-80.85,36.269-80.85,80.85v15.04h190.132v-15.04
	C510.386,121.763,474.118,85.495,429.536,85.495z"/>
<g>
	<path style="fill:#FFDFCF;" d="M95.215,0C63.351,0,37.428,25.922,37.428,57.787s25.922,57.787,57.787,57.787
		s57.787-25.923,57.787-57.787S127.08,0,95.215,0z"/>
	<path style="fill:#FFDFCF;" d="M415.22,0c-31.864,0-57.787,25.922-57.787,57.787s25.922,57.787,57.787,57.787
		s57.787-25.922,57.787-57.787S447.085,0,415.22,0z"/>
</g>
<path style="fill:#FFCEBF;" d="M415.22,0c-31.864,0-57.787,25.922-57.787,57.787s25.922,57.787,57.787,57.787
	s57.787-25.922,57.787-57.787S447.085,0,415.22,0z"/>
<g>
	<path style="fill:#FFDFCF;" d="M160.102,209.457c-31.864,0-57.787,25.922-57.787,57.787s25.922,57.787,57.787,57.787
		s57.787-25.922,57.787-57.787S191.965,209.457,160.102,209.457z"/>
	<path style="fill:#FFDFCF;" d="M349.987,209.457c-31.864,0-57.787,25.922-57.787,57.787s25.922,57.787,57.787,57.787
		s57.787-25.922,57.787-57.787S381.852,209.457,349.987,209.457z"/>
</g>
<path style="fill:#FFCEBF;" d="M349.987,209.457c-31.864,0-57.787,25.922-57.787,57.787s25.922,57.787,57.787,57.787
	s57.787-25.922,57.787-57.787S381.852,209.457,349.987,209.457z"/>
<path style="fill:#265185;" d="M403.506,295.513c-59.685,0-108.243,48.559-108.243,108.243S343.821,512,403.506,512
	c59.686,0,108.244-48.559,108.244-108.243S463.192,295.513,403.506,295.513z"/>
<polygon style="fill:#D9EFFD;" points="444.384,388.717 418.546,388.717 418.546,362.878 388.467,362.878 388.467,388.717 
	362.628,388.717 362.628,418.796 388.467,418.796 388.467,444.635 418.546,444.635 418.546,418.796 444.384,418.796 "/>
<path style="fill:#183866;" d="M403.506,295.513c-59.685,0-108.243,48.559-108.243,108.243S343.821,512,403.506,512
	c59.686,0,108.244-48.559,108.244-108.243S463.192,295.513,403.506,295.513z"/>
<polygon style="fill:#B2E0F9;" points="444.384,388.717 418.546,388.717 418.546,362.878 388.467,362.878 388.467,388.717 
	362.628,388.717 362.628,418.796 388.467,418.796 388.467,444.635 418.546,444.635 418.546,418.796 444.384,418.796 "/>
<path style="fill:#FDA42D;" d="M269.484,85.495h-28.431c-44.581,0-80.85,36.269-80.85,80.85v15.04h190.131v-15.04
	C350.334,121.763,314.065,85.495,269.484,85.495z"/>
<path style="fill:#EE7F2A;" d="M269.484,85.495h-14.115v95.89h94.965v-15.04C350.334,121.763,314.065,85.495,269.484,85.495z"/>
<path style="fill:#FFDFCF;" d="M255.168,0c-31.864,0-57.787,25.922-57.787,57.787s25.922,57.787,57.787,57.787
	s57.787-25.922,57.787-57.787S287.032,0,255.168,0z"/>
<path style="fill:#FFCEBF;" d="M255.369,0.005v115.563c31.771-0.109,57.586-25.985,57.586-57.782S287.14,0.114,255.369,0.005z"/>
<g>
</g>
<g>
</g>
<g>
</g>
<g>
</g>
<g>
</g>
<g>
</g>
<g>
</g>
<g>
</g>
<g>
</g>
<g>
</g>
<g>
</g>
<g>
</g>
<g>
</g>
<g>
</g>
<g>
</g>
</svg>
