<?xml version="1.0" encoding="iso-8859-1"?>
<!-- Generator: Adobe Illustrator 19.0.0, SVG Export Plug-In . SVG Version: 6.00 Build 0)  -->
<svg version="1.1" id="Capa_1" xmlns="http://www.w3.org/2000/svg" xmlns:xlink="http://www.w3.org/1999/xlink" x="0px" y="0px"
	 viewBox="0 0 512 512" style="enable-background:new 0 0 512 512;" xml:space="preserve">
<path style="fill:#FDA42D;" d="M512,269.065v-55.881H0v55.881l48.417,9.399c3.576,11.05,8.04,21.812,13.342,32.161l-27.656,40.891
	l81.388,81.553l40.944-27.572c10.469,5.39,21.363,9.922,32.558,13.543l9.398,48.417h115.217l9.398-48.417
	c11.048-3.574,21.812-8.04,32.162-13.342l40.89,27.656l81.553-81.388l-27.572-40.944c5.389-10.468,9.921-21.364,13.543-32.558
	L512,269.065z"/>
<path style="fill:#EE7F2A;" d="M512,269.065v-55.881H256v254.272h57.608l9.398-48.417c11.048-3.574,21.812-8.04,32.162-13.342
	l40.89,27.656l81.553-81.388l-27.572-40.944c5.389-10.468,9.921-21.364,13.543-32.558L512,269.065z"/>
<path style="fill:#FEDC36;" d="M97.008,213.184C97.939,300.071,168.897,370.471,256,370.471s158.061-70.4,158.992-157.287H97.008z"
	/>
<path style="fill:#FDC500;" d="M256,213.184v157.287c87.103,0,158.061-70.4,158.992-157.287H256z"/>
<path style="fill:#52B6FC;" d="M109.624,130.383H81.077C36.371,130.383,0,166.754,0,211.46v15h190.7v-15
	C190.7,166.754,154.33,130.383,109.624,130.383z"/>
<path style="fill:#265185;" d="M430.923,130.383h-28.547c-44.706,0-81.077,36.371-81.077,81.077v15H512v-15
	C512,166.754,475.629,130.383,430.923,130.383z"/>
<path style="fill:#183866;" d="M430.923,130.383h-28.547c-44.706,0-81.077,36.371-81.077,81.077v15H512v-15
	C512,166.754,475.629,130.383,430.923,130.383z"/>
<g>
	<path style="fill:#FFDFCF;" d="M95.249,44.543c-31.937,0-57.92,25.982-57.92,57.92s25.983,57.92,57.92,57.92
		c31.938,0,57.92-25.982,57.92-57.92S127.187,44.543,95.249,44.543z"/>
	<path style="fill:#FFDFCF;" d="M416.549,44.543c-31.937,0-57.92,25.982-57.92,57.92s25.983,57.92,57.92,57.92
		s57.92-25.982,57.92-57.92S448.486,44.543,416.549,44.543z"/>
</g>
<path style="fill:#FFCEBF;" d="M416.549,44.543c-31.937,0-57.92,25.982-57.92,57.92s25.983,57.92,57.92,57.92
	s57.92-25.982,57.92-57.92S448.486,44.543,416.549,44.543z"/>
<path style="fill:#EA0016;" d="M270.223,130.383h-28.546c-44.706,0-81.077,36.371-81.077,81.077v15h190.7v-15
	C351.3,166.754,314.929,130.383,270.223,130.383z"/>
<path style="fill:#C30010;" d="M270.223,130.383H256v96.077h95.3v-15C351.3,166.754,314.929,130.383,270.223,130.383z"/>
<path style="fill:#FFDFCF;" d="M255.849,44.543c-31.937,0-57.92,25.982-57.92,57.92s25.983,57.92,57.92,57.92
	s57.92-25.982,57.92-57.92S287.786,44.543,255.849,44.543z"/>
<path style="fill:#FFCEBF;" d="M256,44.547v115.832c31.867-0.082,57.769-26.029,57.769-57.916S287.867,44.63,256,44.547z"/>
<g>
</g>
<g>
</g>
<g>
</g>
<g>
</g>
<g>
</g>
<g>
</g>
<g>
</g>
<g>
</g>
<g>
</g>
<g>
</g>
<g>
</g>
<g>
</g>
<g>
</g>
<g>
</g>
<g>
</g>
</svg>
