<?xml version="1.0" encoding="iso-8859-1"?>
<!-- Generator: Adobe Illustrator 19.0.0, SVG Export Plug-In . SVG Version: 6.00 Build 0)  -->
<svg version="1.1" id="Capa_1" xmlns="http://www.w3.org/2000/svg" xmlns:xlink="http://www.w3.org/1999/xlink" x="0px" y="0px"
	 viewBox="0 0 512 512" style="enable-background:new 0 0 512 512;" xml:space="preserve">
<polygon style="fill:#265185;" points="81.268,243.627 81.268,298.627 111.268,298.627 111.268,273.627 241,273.627 241,298.627 
	271,298.627 271,273.627 400.532,273.627 400.532,298.627 430.532,298.627 430.532,243.627 "/>
<path style="fill:#52B6FC;" d="M189.632,511.895H0v-15c0-44.464,36.174-80.638,80.638-80.638h28.356
	c44.464,0,80.638,36.174,80.638,80.638V511.895z"/>
<path style="fill:#FFDFCF;" d="M94.716,446.257c-31.78,0-57.635-25.855-57.635-57.635s25.854-57.635,57.635-57.635
	s57.635,25.855,57.635,57.635S126.496,446.257,94.716,446.257z"/>
<path style="fill:#EA0016;" d="M350.716,511.895H161.084v-15c0-44.464,36.174-80.638,80.638-80.638h28.356
	c44.464,0,80.638,36.174,80.638,80.638V511.895z"/>
<polygon style="fill:#183866;" points="256.333,243.627 256.333,298.627 271,298.627 271,273.627 400.532,273.627 400.532,298.627 
	430.532,298.627 430.532,243.627 "/>
<path style="fill:#C30010;" d="M270.078,416.257h-13.745v95.638h94.383v-15C350.716,452.431,314.542,416.257,270.078,416.257z"/>
<path style="fill:#FFDFCF;" d="M255.8,446.257c-31.78,0-57.635-25.855-57.635-57.635s25.854-57.635,57.635-57.635
	s57.635,25.855,57.635,57.635S287.58,446.257,255.8,446.257z"/>
<path style="fill:#FFCEBF;" d="M256.333,331.001v115.242c31.534-0.289,57.101-26.02,57.101-57.621S287.868,331.29,256.333,331.001z"
	/>
<path style="fill:#35B25B;" d="M512,511.895H322.368v-15c0-44.464,36.174-80.638,80.638-80.638h28.356
	c44.464,0,80.638,36.174,80.638,80.638V511.895z"/>
<path style="fill:#279246;" d="M512,511.895H322.368v-15c0-44.464,36.174-80.638,80.638-80.638h28.356
	c44.464,0,80.638,36.174,80.638,80.638V511.895z"/>
<path style="fill:#FFDFCF;" d="M417.084,446.257c-31.78,0-57.635-25.855-57.635-57.635s25.854-57.635,57.635-57.635
	s57.635,25.855,57.635,57.635S448.864,446.257,417.084,446.257z"/>
<path style="fill:#FFCEBF;" d="M417.084,446.257c-31.78,0-57.635-25.855-57.635-57.635s25.854-57.635,57.635-57.635
	s57.635,25.855,57.635,57.635S448.864,446.257,417.084,446.257z"/>
<path style="fill:#FEDC36;" d="M255.832,243.627c-67.139,0-121.761-54.622-121.761-121.761S188.693,0.105,255.832,0.105
	s121.761,54.622,121.761,121.761S322.971,243.627,255.832,243.627z"/>
<path style="fill:#FDC500;" d="M256.333,0.111V243.62c66.908-0.272,121.26-54.783,121.26-121.754
	C377.593,54.895,323.242,0.383,256.333,0.111z"/>
<path style="fill:#FDA42D;" d="M258.021,106.653h-4.377c-2.935,0-5.321-2.387-5.321-5.322s2.387-5.322,5.321-5.322h4.377
	c2.935,0,5.321,2.388,5.321,5.322h30c0-14.958-9.351-27.766-22.51-32.907V48.82h-30v19.604c-13.159,5.142-22.51,17.949-22.51,32.907
	c0,19.477,15.845,35.322,35.321,35.322h4.377c2.935,0,5.321,2.387,5.321,5.322s-2.387,5.322-5.321,5.322h-4.377
	c-2.935,0-5.321-2.387-5.321-5.322h-30c0,14.958,9.351,27.765,22.51,32.907v19.604h30v-19.604
	c13.159-5.141,22.51-17.948,22.51-32.907C293.342,122.499,277.497,106.653,258.021,106.653z"/>
<g>
	<path style="fill:#EE7F2A;" d="M256.333,48.82v47.189h1.687c2.935,0,5.321,2.388,5.321,5.322h30
		c0-14.958-9.351-27.766-22.51-32.907V48.82H256.333z"/>
	<path style="fill:#EE7F2A;" d="M258.021,106.653h-1.687v30h1.687c2.935,0,5.321,2.387,5.321,5.322s-2.387,5.322-5.321,5.322h-1.687
		v47.189h14.499v-19.604c13.159-5.141,22.51-17.948,22.51-32.907C293.342,122.499,277.497,106.653,258.021,106.653z"/>
</g>
<g>
</g>
<g>
</g>
<g>
</g>
<g>
</g>
<g>
</g>
<g>
</g>
<g>
</g>
<g>
</g>
<g>
</g>
<g>
</g>
<g>
</g>
<g>
</g>
<g>
</g>
<g>
</g>
<g>
</g>
</svg>
