<?xml version="1.0" encoding="iso-8859-1"?>
<!-- Generator: Adobe Illustrator 19.0.0, SVG Export Plug-In . SVG Version: 6.00 Build 0)  -->
<svg version="1.1" id="Capa_1" xmlns="http://www.w3.org/2000/svg" xmlns:xlink="http://www.w3.org/1999/xlink" x="0px" y="0px"
	 viewBox="0 0 512.005 512.005" style="enable-background:new 0 0 512.005 512.005;" xml:space="preserve">
<path style="fill:#FEDC36;" d="M441.47,128.582h-10.253V0H86.441v128.582H70.536c-38.723,0-70.226,31.503-70.226,70.226v23.351
	c0,71.267,57.981,129.249,129.249,129.249h81.317v58.251h87.047v-58.251h84.522c71.268,0,129.249-57.981,129.249-129.249v-23.352
	C511.695,160.085,480.192,128.582,441.47,128.582z M129.56,321.391c-54.717,0-99.233-44.516-99.233-99.233v-23.351
	c0-22.171,18.038-40.21,40.21-40.21h16.23c2.243,33.95,16.324,65.726,40.232,90.331c22.678,23.34,52.046,38.041,83.879,42.246
	v30.215H129.56V321.391z M481.679,222.157c0,54.717-44.516,99.233-99.233,99.233h-84.522v-29.318
	c71.201-5.003,128.224-62.203,132.965-133.475h10.581c22.172,0,40.21,18.038,40.21,40.21V222.157z"/>
<path style="fill:#FDC500;" d="M441.47,128.582h-10.253V0H255.555v409.658h42.368v-58.251h84.522
	c71.268,0,129.249-57.981,129.249-129.249v-23.351C511.695,160.085,480.192,128.582,441.47,128.582z M481.679,222.157
	c0,54.717-44.516,99.233-99.233,99.233h-84.522v-29.318c71.201-5.003,128.224-62.203,132.965-133.475h10.581
	c22.172,0,40.21,18.038,40.21,40.21V222.157z"/>
<rect x="86.439" style="fill:#FDA42D;" width="344.775" height="55.31"/>
<rect x="255.55" style="fill:#EE7F2A;" width="175.664" height="55.31"/>
<path style="fill:#265185;" d="M214.21,233.218l0.346-43.586l-25.9-35.061l41.561-13.14l25.341-35.466l25.341,35.466l41.561,13.14
	l-25.9,35.061l0.346,43.586l-41.348-13.797L214.21,233.218z"/>
<path style="fill:#183866;" d="M255.557,105.964l25.341,35.466l41.561,13.14l-25.9,35.061l0.346,43.586l-41.348-13.797
	L255.557,105.964L255.557,105.964z"/>
<path style="fill:#FDA42D;" d="M352.289,512H159.513V394.65H352.29V512H352.289z"/>
<rect x="256.231" y="394.652" style="fill:#EE7F2A;" width="96.052" height="117.353"/>
<g>
</g>
<g>
</g>
<g>
</g>
<g>
</g>
<g>
</g>
<g>
</g>
<g>
</g>
<g>
</g>
<g>
</g>
<g>
</g>
<g>
</g>
<g>
</g>
<g>
</g>
<g>
</g>
<g>
</g>
</svg>
