<?xml version="1.0" encoding="iso-8859-1"?>
<!-- Generator: Adobe Illustrator 19.0.0, SVG Export Plug-In . SVG Version: 6.00 Build 0)  -->
<svg version="1.1" id="Capa_1" xmlns="http://www.w3.org/2000/svg" xmlns:xlink="http://www.w3.org/1999/xlink" x="0px" y="0px"
	 viewBox="0 0 512 512" style="enable-background:new 0 0 512 512;" xml:space="preserve">
<path style="fill:#265185;" d="M256,0C163.298,0,87.88,75.418,87.88,168.12c0,37.646,26.39,104.328,78.439,198.195
	C204.423,435.035,256,512,256,512s51.576-76.965,89.681-145.685c52.049-93.868,78.439-160.55,78.439-198.196
	C424.119,75.418,348.701,0,256,0z"/>
<path style="fill:#183866;" d="M256,0v512c0,0,51.576-76.965,89.681-145.685c52.049-93.868,78.439-160.55,78.439-198.196
	C424.119,75.418,348.701,0,256,0z"/>
<path style="fill:#52B6FC;" d="M324.305,279.654H187.777V173.675c0-28.806,23.352-52.159,52.159-52.159h32.211
	c28.806,0,52.159,23.352,52.159,52.159V279.654z"/>
<path style="fill:#3B97D6;" d="M272.146,121.518H256v158.136h68.305V173.675C324.305,144.87,300.952,121.518,272.146,121.518z"/>
<path style="fill:#EA0016;" d="M255.953,270c0-28.806-23.596-52.159-52.702-52.159h-32.547c-29.107,0-52.702,23.352-52.702,52.159
	v0.863c8.432,18.784,18.28,39.414,30.184,61.875h107.768L255.953,270L255.953,270z"/>
<path style="fill:#FDA42D;" d="M391.057,270c0-28.806-23.109-52.159-51.614-52.159h-31.875c-28.506,0-51.614,23.352-51.614,52.159
	v62.738h107.86c10.322-19.887,19.587-38.334,27.244-55.341V270H391.057z"/>
<g>
	<path style="fill:#FFDFCF;" d="M186.266,246.627c-27.39,0-49.674-22.283-49.674-49.674s22.284-49.675,49.674-49.675
		c27.391,0,49.675,22.284,49.675,49.675S213.657,246.627,186.266,246.627z"/>
	<path style="fill:#FFDFCF;" d="M322.794,246.627c-27.39,0-49.674-22.283-49.674-49.674s22.284-49.675,49.674-49.675
		c27.39,0,49.674,22.284,49.674,49.675S350.185,246.627,322.794,246.627z"/>
</g>
<path style="fill:#EE7F2A;" d="M391.057,270c0-28.806-23.109-52.159-51.614-52.159h-31.875c-28.506,0-51.614,23.352-51.614,52.159
	v62.738h107.86c10.322-19.887,19.587-38.334,27.244-55.341V270H391.057z"/>
<path style="fill:#FFCEBF;" d="M322.794,246.627c-27.39,0-49.674-22.283-49.674-49.674s22.284-49.675,49.674-49.675
	c27.39,0,49.674,22.284,49.674,49.675S350.185,246.627,322.794,246.627z"/>
<path style="fill:#FFDFCF;" d="M255.953,149.999c-27.39,0-49.674-22.284-49.674-49.675s22.284-49.674,49.674-49.674
	c27.391,0,49.675,22.283,49.675,49.674S283.344,149.999,255.953,149.999z"/>
<path style="fill:#FFCEBF;" d="M256,50.65v99.348c27.37-0.025,49.629-22.299,49.629-49.674S283.369,50.675,256,50.65z"/>
<g>
</g>
<g>
</g>
<g>
</g>
<g>
</g>
<g>
</g>
<g>
</g>
<g>
</g>
<g>
</g>
<g>
</g>
<g>
</g>
<g>
</g>
<g>
</g>
<g>
</g>
<g>
</g>
<g>
</g>
</svg>
