<?xml version="1.0" encoding="iso-8859-1"?>
<!-- Generator: Adobe Illustrator 19.0.0, SVG Export Plug-In . SVG Version: 6.00 Build 0)  -->
<svg version="1.1" id="Capa_1" xmlns="http://www.w3.org/2000/svg" xmlns:xlink="http://www.w3.org/1999/xlink" x="0px" y="0px"
	 viewBox="0 0 512 512" style="enable-background:new 0 0 512 512;" xml:space="preserve">
<path style="fill:#265185;" d="M415.22,106.811h-35.337c-53.365,0-96.779,43.415-96.779,96.779v14.986H512V203.59
	C512,150.227,468.584,106.811,415.22,106.811z"/>
<path style="fill:#183866;" d="M415.22,106.811h-17.723v111.766H512V203.59C512,150.227,468.584,106.811,415.22,106.811z"/>
<path style="fill:#EA0016;" d="M239.533,271.933l0.245-209.542H224.53c-59.598,0-115.879,23.458-158.474,66.054
	C23.458,171.04,0,227.321,0,286.919s23.458,115.879,66.054,158.474c42.595,42.595,98.876,66.053,158.474,66.053
	c59.599,0,115.88-23.458,158.475-66.053s66.053-98.876,66.053-158.474v-14.986L239.533,271.933L239.533,271.933z"/>
<path style="fill:#C30010;" d="M239.533,271.933l-0.059,239.005c54.013-3.583,104.514-26.529,143.53-65.545
	c42.595-42.595,66.053-98.876,66.053-158.474v-14.986L239.533,271.933L239.533,271.933z"/>
<g>
	<path style="fill:#FDA42D;" d="M172.218,68.588L6.197,234.607c-3.794,15.759-5.876,32.011-6.151,48.539l220.71-220.71
		C204.228,62.711,187.976,64.793,172.218,68.588z"/>
	<path style="fill:#FDA42D;" d="M239.733,100.533L5.226,335.039c2.447,11.109,5.731,21.986,9.838,32.549L239.683,142.97
		L239.733,100.533z"/>
	<path style="fill:#FDA42D;" d="M239.613,202.779L34.348,405.785c5.365,8.493,11.334,16.667,17.874,24.478l187.342-185.28
		L239.613,202.779z"/>
	<path style="fill:#FDA42D;" d="M267.254,271.933L80.52,458.666c7.789,6.571,15.937,12.58,24.41,17.978l204.71-204.71h-42.387
		V271.933z"/>
	<path style="fill:#FDA42D;" d="M366.714,271.933L142.722,495.926c10.506,4.152,21.322,7.506,32.376,10.012l234.004-234.005
		L366.714,271.933L366.714,271.933z"/>
	<path style="fill:#FDA42D;" d="M449.027,289.355L226.966,511.417c16.381-0.177,32.5-2.121,48.14-5.754l168.167-168.168
		C446.907,321.854,448.851,305.736,449.027,289.355z"/>
</g>
<g>
	<polygon style="fill:#EE7F2A;" points="239.474,342.1 309.64,271.933 267.254,271.933 239.474,299.712 	"/>
	<polygon style="fill:#EE7F2A;" points="239.474,441.56 409.101,271.933 366.714,271.933 239.474,399.173 	"/>
	<path style="fill:#EE7F2A;" d="M239.474,498.91v12.023c12.083-0.8,23.991-2.566,35.634-5.269l168.167-168.168
		c3.633-15.641,5.577-31.759,5.753-48.14L239.474,498.91z"/>
</g>
<path style="fill:#FFDFCF;" d="M397.427,0.553c-37.559,0-68.115,30.556-68.115,68.115c0,37.56,30.556,68.116,68.115,68.116
	s68.115-30.556,68.115-68.116C465.541,31.11,434.985,0.553,397.427,0.553z"/>
<path style="fill:#FFCEBF;" d="M397.498,0.555v136.228c37.526-0.039,68.044-30.578,68.044-68.114
	C465.541,31.134,435.024,0.593,397.498,0.555z"/>
<g>
</g>
<g>
</g>
<g>
</g>
<g>
</g>
<g>
</g>
<g>
</g>
<g>
</g>
<g>
</g>
<g>
</g>
<g>
</g>
<g>
</g>
<g>
</g>
<g>
</g>
<g>
</g>
<g>
</g>
</svg>
