<?xml version="1.0" encoding="iso-8859-1"?>
<!-- Generator: Adobe Illustrator 19.0.0, SVG Export Plug-In . SVG Version: 6.00 Build 0)  -->
<svg version="1.1" id="Capa_1" xmlns="http://www.w3.org/2000/svg" xmlns:xlink="http://www.w3.org/1999/xlink" x="0px" y="0px"
	 viewBox="0 0 512 512" style="enable-background:new 0 0 512 512;" xml:space="preserve">
<rect y="35.34" style="fill:#D9EFFD;" width="512" height="441.32"/>
<rect x="367.57" y="75.09" style="fill:#FEDC36;" width="30" height="30"/>
<rect x="425.77" y="75.09" style="fill:#EA0016;" width="30" height="30"/>
<rect x="309.46" y="75.09" style="fill:#35B25B;" width="30" height="30"/>
<rect x="256" y="35.34" style="fill:#B2E0F9;" width="256" height="441.32"/>
<path style="fill:#52B6FC;" d="M322.768,287.399h-27.823c-41.51,0-75.28,33.595-75.28,74.889v10.822h178.384v-10.822
	C398.048,320.995,364.277,287.399,322.768,287.399z"/>
<path style="fill:#3B97D6;" d="M322.768,287.399h-27.823c-41.51,0-75.28,33.595-75.28,74.889v10.822h178.384v-10.822
	C398.048,320.995,364.277,287.399,322.768,287.399z"/>
<path style="fill:#FFCEBF;" d="M308.758,204.17c-29.065,0-52.711,23.523-52.711,52.437s23.646,52.436,52.711,52.436
	s52.711-23.523,52.711-52.436C361.468,227.693,337.822,204.17,308.758,204.17z"/>
<path style="fill:#FFBDAB;" d="M308.758,204.17c-29.065,0-52.711,23.523-52.711,52.437s23.646,52.436,52.711,52.436
	s52.711-23.523,52.711-52.436C361.468,227.693,337.822,204.17,308.758,204.17z"/>
<path style="fill:#FDA42D;" d="M217.056,287.399h-27.823c-41.51,0-75.28,33.595-75.28,74.889v10.822h178.384v-10.822
	C292.336,320.995,258.565,287.399,217.056,287.399z"/>
<path style="fill:#FFCEBF;" d="M203.046,204.17c-29.065,0-52.711,23.523-52.711,52.437s23.646,52.436,52.711,52.436
	s52.711-23.523,52.711-52.436C255.756,227.693,232.11,204.17,203.046,204.17z"/>
<path style="fill:#EA0016;" d="M269.865,333.932h-27.823c-41.51,0-75.28,33.595-75.28,74.889v10.822h178.384v-10.822
	C345.145,367.527,311.375,333.932,269.865,333.932z"/>
<path style="fill:#C30010;" d="M269.865,333.932h-13.902v85.711h89.183v-10.822C345.145,367.527,311.375,333.932,269.865,333.932z"
	/>
<path style="fill:#FFDFCF;" d="M255.855,250.703c-29.065,0-52.711,23.523-52.711,52.437s23.646,52.436,52.711,52.436
	s52.711-23.523,52.711-52.436C308.566,274.226,284.92,250.703,255.855,250.703z"/>
<path style="fill:#FFCEBF;" d="M255.962,250.705v104.868c29.015-0.058,52.603-23.556,52.603-52.434
	C308.566,274.262,284.978,250.764,255.962,250.705z"/>
<rect y="35.34" style="fill:#265185;" width="512" height="109.5"/>
<rect x="256" y="35.34" style="fill:#183866;" width="256" height="109.5"/>
<rect x="367.57" y="75.09" style="fill:#FDC500;" width="30" height="30"/>
<rect x="425.77" y="75.09" style="fill:#C30010;" width="30" height="30"/>
<rect x="309.46" y="75.09" style="fill:#279246;" width="30" height="30"/>
<g>
</g>
<g>
</g>
<g>
</g>
<g>
</g>
<g>
</g>
<g>
</g>
<g>
</g>
<g>
</g>
<g>
</g>
<g>
</g>
<g>
</g>
<g>
</g>
<g>
</g>
<g>
</g>
<g>
</g>
</svg>
