<?xml version="1.0" encoding="iso-8859-1"?>
<!-- Generator: Adobe Illustrator 19.0.0, SVG Export Plug-In . SVG Version: 6.00 Build 0)  -->
<svg version="1.1" id="Capa_1" xmlns="http://www.w3.org/2000/svg" xmlns:xlink="http://www.w3.org/1999/xlink" x="0px" y="0px"
	 viewBox="0 0 512.002 512.002" style="enable-background:new 0 0 512.002 512.002;" xml:space="preserve">
<path style="fill:#265185;" d="M348.516,276.989c16.678,0,32.009,8.416,41.01,22.512l3.55,5.559l6.589,0.001
	c0.016,0,0.031,0,0.047,0c21.364,0,38.817-17.364,38.917-38.728l0.571-126.971l-124.658-0.743
	c-6.218-0.01-11.548-3.888-13.709-9.348c17.067-13.741,27.043-34.352,27.043-56.567c0-20.058-7.992-38.735-22.505-52.59
	c-14.505-13.85-33.549-20.961-53.643-20.033c-37.344,1.732-67.741,32.358-69.199,69.723c-0.9,23.028,9.305,45.146,27.02,59.478
	c-2.125,5.468-7.424,9.382-13.617,9.444L72.803,137.84V512h364.939l0.712-126.691c0.123-21.267-17.08-38.82-38.302-39.129
	l-7.078-0.004l-3.55,5.559c-9.422,14.755-25.466,23.173-42.97,22.473c-24.983-0.976-45.458-21.295-46.616-46.26
	c-0.624-13.451,4.133-26.202,13.395-35.904C322.604,282.336,335.099,276.989,348.516,276.989z"/>
<path style="fill:#183866;" d="M348.516,276.989c16.678,0,32.009,8.416,41.01,22.512l3.55,5.559l6.589,0.001h0.047
	c21.364,0,38.817-17.364,38.917-38.728l0.571-126.971l-124.658-0.743c-6.218-0.01-11.548-3.888-13.709-9.348
	c17.067-13.741,27.043-34.352,27.043-56.567c0-20.058-7.992-38.735-22.505-52.59C291.892,7.245,274.49,0.227,255.972,0.039v511.963
	h181.77l0.712-126.691c0.123-21.267-17.08-38.82-38.302-39.129l-7.078-0.004l-3.55,5.559c-9.422,14.755-25.466,23.173-42.97,22.473
	c-24.983-0.976-45.458-21.295-46.616-46.26c-0.624-13.451,4.133-26.202,13.395-35.904
	C322.604,282.336,335.099,276.989,348.516,276.989z"/>
<g>
</g>
<g>
</g>
<g>
</g>
<g>
</g>
<g>
</g>
<g>
</g>
<g>
</g>
<g>
</g>
<g>
</g>
<g>
</g>
<g>
</g>
<g>
</g>
<g>
</g>
<g>
</g>
<g>
</g>
</svg>
