<?xml version="1.0" encoding="iso-8859-1"?>
<!-- Generator: Adobe Illustrator 19.0.0, SVG Export Plug-In . SVG Version: 6.00 Build 0)  -->
<svg version="1.1" id="Capa_1" xmlns="http://www.w3.org/2000/svg" xmlns:xlink="http://www.w3.org/1999/xlink" x="0px" y="0px"
	 viewBox="0 0 512 512" style="enable-background:new 0 0 512 512;" xml:space="preserve">
<g>
	<path style="fill:#265185;" d="M201.538,17.43l-14.69,26.236l24.912,13.95c-39.327,9.833-75.273,30.476-104.065,60.27
		c-39.659,41.041-61.5,95.081-61.5,152.168c0,22.288,3.34,44.28,9.926,65.366l28.701-8.966c-5.678-18.18-8.558-37.155-8.558-56.4
		c0-49.249,18.842-95.868,53.054-131.273c25.408-26.294,57.27-44.329,92.103-52.568l-23.142,27.868l23.133,19.21l59.366-71.491
		L201.538,17.43z"/>
	<path style="fill:#265185;" d="M474.306,203.792l-28.707,8.949c5.659,18.154,8.53,37.099,8.53,56.31
		c0,45.405-16.341,89.291-46.014,123.576c-21.289,24.598-48.406,43.143-78.51,54.073l19.818-31.008l-25.335-16.193l-50.044,78.3
		L358.173,512l11.325-27.855l-25.967-10.556c33.429-12.822,63.523-33.788,87.321-61.284c34.401-39.748,53.347-90.623,53.347-143.254
		C484.197,246.801,480.87,224.845,474.306,203.792z"/>
</g>
<path style="fill:#183866;" d="M474.306,203.792l-28.707,8.949c5.659,18.154,8.53,37.099,8.53,56.31
	c0,45.405-16.341,89.291-46.014,123.576c-21.289,24.598-48.406,43.143-78.51,54.073l19.818-31.008l-25.335-16.193l-50.044,78.3
	L358.173,512l11.325-27.855l-25.967-10.556c33.429-12.822,63.523-33.788,87.321-61.284c34.401-39.748,53.347-90.623,53.347-143.254
	C484.197,246.801,480.87,224.845,474.306,203.792z"/>
<path style="fill:#EA0016;" d="M235.116,511.897H0.643v-15.034c0-54.634,44.448-99.081,99.081-99.081h36.311
	c54.634,0,99.081,44.448,99.081,99.081V511.897z"/>
<path style="fill:#C30010;" d="M136.035,397.781h-18.343v114.115h117.424v-15.034C235.116,442.228,190.669,397.781,136.035,397.781z
	"/>
<path style="fill:#35B25B;" d="M511.356,223.301H276.883v-15.034c0-54.634,44.448-99.082,99.081-99.082h36.311
	c54.634,0,99.081,44.448,99.081,99.082v15.034H511.356z"/>
<path style="fill:#279246;" d="M412.275,109.185h-18.304v114.116h117.385v-15.034C511.356,153.632,466.909,109.185,412.275,109.185z
	"/>
<path style="fill:#FFDFCF;" d="M117.751,427.85c-38.392,0-69.626-31.234-69.626-69.627s31.234-69.627,69.626-69.627
	c38.393,0,69.627,31.234,69.627,69.627S156.143,427.85,117.751,427.85z"/>
<path style="fill:#FFCEBF;" d="M117.751,288.596c-0.02,0-0.039,0.001-0.058,0.001v139.251c0.02,0,0.039,0.001,0.058,0.001
	c38.393,0,69.627-31.234,69.627-69.627S156.143,288.596,117.751,288.596z"/>
<path style="fill:#FFDFCF;" d="M393.991,139.253c-38.393,0-69.627-31.234-69.627-69.627C324.364,31.234,355.598,0,393.991,0
	s69.627,31.234,69.627,69.626C463.618,108.019,432.384,139.253,393.991,139.253z"/>
<path style="fill:#FFCEBF;" d="M393.991,0c-0.112,0,0,139.253,0,139.253c38.393,0,69.627-31.234,69.627-69.627
	C463.618,31.234,432.384,0,393.991,0z"/>
<g>
</g>
<g>
</g>
<g>
</g>
<g>
</g>
<g>
</g>
<g>
</g>
<g>
</g>
<g>
</g>
<g>
</g>
<g>
</g>
<g>
</g>
<g>
</g>
<g>
</g>
<g>
</g>
<g>
</g>
</svg>
