<?xml version="1.0" encoding="iso-8859-1"?>
<!-- Generator: Adobe Illustrator 19.0.0, SVG Export Plug-In . SVG Version: 6.00 Build 0)  -->
<svg version="1.1" id="Capa_1" xmlns="http://www.w3.org/2000/svg" xmlns:xlink="http://www.w3.org/1999/xlink" x="0px" y="0px"
	 viewBox="0 0 512 512" style="enable-background:new 0 0 512 512;" xml:space="preserve">
<path style="fill:#52B6FC;" d="M478.833,432.902v-13.551c0-111.502-90.713-202.215-202.215-202.215h-71.11
	C94.007,217.135,3.295,307.849,3.295,419.35v13.551h475.538V432.902z"/>
<path style="fill:#3B97D6;" d="M478.833,432.902v-13.551c0-111.502-90.713-202.215-202.215-202.215h-35.907v215.766L478.833,432.902
	L478.833,432.902z"/>
<path style="fill:#35B25B;" d="M395.751,512c-62.281,0-112.953-50.671-112.953-112.952s50.671-112.953,112.952-112.953
	c62.282,0,112.954,50.671,112.954,112.953S458.034,512,395.751,512z"/>
<path style="fill:#279246;" d="M395.751,286.095V512c62.282,0,112.954-50.671,112.954-112.952S458.034,286.095,395.751,286.095z"/>
<polygon style="fill:#D9EFFD;" points="278.067,235.16 204.367,235.16 223.216,278.851 196.843,314.22 220.899,432.987 
	261.438,432.987 285.495,314.22 259.293,279.078 "/>
<polygon style="fill:#B2E0F9;" points="259.293,279.078 278.067,235.16 240.848,235.16 240.848,432.987 261.438,432.987 
	285.495,314.22 "/>
<path style="fill:#FFDFCF;" d="M240.848,249.153c-68.693,0-124.576-55.885-124.576-124.576S172.155,0,240.848,0
	s124.576,55.885,124.576,124.576S309.54,249.153,240.848,249.153z"/>
<path style="fill:#FFCEBF;" d="M240.848,0v249.153c68.693,0,124.576-55.885,124.576-124.576S309.54,0,240.848,0z"/>
<polygon style="fill:#FEDC36;" points="396.531,453.495 341.651,402.526 363.011,379.528 389.027,403.69 422.526,345.621 
	449.715,361.304 "/>
<polygon style="fill:#FDC500;" points="422.526,345.621 395.751,392.033 395.751,452.771 396.531,453.495 449.715,361.304 "/>
<g>
</g>
<g>
</g>
<g>
</g>
<g>
</g>
<g>
</g>
<g>
</g>
<g>
</g>
<g>
</g>
<g>
</g>
<g>
</g>
<g>
</g>
<g>
</g>
<g>
</g>
<g>
</g>
<g>
</g>
</svg>
