<?xml version="1.0" encoding="iso-8859-1"?>
<!-- Generator: Adobe Illustrator 19.0.0, SVG Export Plug-In . SVG Version: 6.00 Build 0)  -->
<svg version="1.1" id="Capa_1" xmlns="http://www.w3.org/2000/svg" xmlns:xlink="http://www.w3.org/1999/xlink" x="0px" y="0px"
	 viewBox="0 0 512 512" style="enable-background:new 0 0 512 512;" xml:space="preserve">
<path style="fill:#265185;" d="M63.53,511.755L0,448.227L371.465,73.752L297.959,0.245H512v214.041l-77.005-77.005L63.53,511.755z"
	/>
<polygon style="fill:#183866;" points="297.959,0.246 371.465,73.752 254.582,191.584 254.582,319.157 434.996,137.282 512,214.287 
	512,0.246 "/>
<path style="fill:#FEDC36;" d="M403.352,285.154H196.957v-15.038c0-48.268,39.269-87.537,87.537-87.537h31.32
	c48.268,0,87.537,39.268,87.537,87.537L403.352,285.154L403.352,285.154z"/>
<path id="SVGCleanerId_0" style="fill:#FFCEBF;" d="M236.696,265.456c-2.736,0-62.129-59.418-62.129-62.129
	c0-34.258,27.872-62.129,62.129-62.129c34.259,0,62.13,27.872,62.13,62.129S270.954,265.456,236.696,265.456z"/>
<path style="fill:#FFBFAB;" d="M255.718,144.142V262.51c25.049-8.013,43.242-31.511,43.242-59.185S280.768,152.155,255.718,144.142z
	"/>
<path style="fill:#FFC6B3;" d="M298.715,212.646c-2.732,0-5.484-0.18-8.179-0.535l-53.421-53.457
	c-0.352-2.682-0.529-5.419-0.529-8.137c0-34.258,27.872-62.129,62.13-62.129c34.258,0,62.129,27.872,62.129,62.129
	S332.972,212.646,298.715,212.646z"/>
<path style="fill:#FDC500;" d="M403.352,285.154H196.957v-15.038c0-48.268,39.269-87.537,87.537-87.537h31.32
	c48.268,0,87.537,39.268,87.537,87.537L403.352,285.154L403.352,285.154z"/>
<path style="fill:#FFB09A;" d="M298.715,212.646c-2.732,0-5.484-0.18-8.179-0.535l-53.421-53.457
	c-0.352-2.682-0.529-5.419-0.529-8.137c0-34.258,27.872-62.129,62.13-62.129c34.258,0,62.129,27.872,62.129,62.129
	S332.972,212.646,298.715,212.646z"/>
<path style="fill:#35B25B;" d="M230.427,338.054V235.38h23.369c48.268,0,87.537,39.268,87.537,87.537v15.019L230.427,338.054z"/>
<g>
	<path id="SVGCleanerId_0_1_" style="fill:#FFCEBF;" d="M236.696,265.456c-2.736,0-62.129-59.418-62.129-62.129
		c0-34.258,27.872-62.129,62.129-62.129c34.259,0,62.13,27.872,62.13,62.129S270.954,265.456,236.696,265.456z"/>
</g>
<path style="fill:#279246;" d="M253.795,235.38h-16.892v102.667l104.43-0.11v-15.019C341.333,274.649,302.063,235.38,253.795,235.38
	z"/>
<path style="fill:#FFBFAB;" d="M236.903,141.202v124.249c34.163-0.113,61.922-27.936,61.922-62.124S271.066,141.315,236.903,141.202
	z"/>
<path style="fill:#35B25B;" d="M341.333,338.054H134.938v-15.038c0-48.268,39.269-87.537,87.537-87.537h31.32
	c48.268,0,87.537,39.268,87.537,87.537v15.038H341.333z"/>
<path style="fill:#279246;" d="M253.795,235.479h-15.851v102.575h103.388v-15.038C341.333,274.747,302.063,235.479,253.795,235.479z
	"/>
<path style="fill:#FFCEBF;" d="M238.024,265.555c-34.258,0-62.129-27.872-62.129-62.129s27.872-62.129,62.129-62.129
	c34.259,0,62.13,27.872,62.13,62.129S272.283,265.555,238.024,265.555z"/>
<path style="fill:#FFBDAB;" d="M238.024,141.296c-0.027,0-0.053,0.002-0.079,0.002v124.255c0.027,0,0.053,0.002,0.079,0.002
	c34.259,0,62.13-27.872,62.13-62.129S272.283,141.296,238.024,141.296z"/>
<path style="fill:#EA0016;" d="M277.764,390.838H71.369v-15.038c0-48.268,39.269-87.537,87.537-87.537h31.32
	c48.268,0,87.537,39.268,87.537,87.537L277.764,390.838L277.764,390.838z"/>
<path style="fill:#C30010;" d="M237.947,302.444l-1.044,88.394h40.861v-15.038C277.764,345.163,261.846,318.088,237.947,302.444z"/>
<path style="fill:#FFDFCF;" d="M174.455,318.339c-34.258,0-62.129-27.872-62.129-62.129s27.872-62.129,62.129-62.129
	c34.259,0,62.13,27.872,62.13,62.129S208.714,318.339,174.455,318.339z"/>
<g>
</g>
<g>
</g>
<g>
</g>
<g>
</g>
<g>
</g>
<g>
</g>
<g>
</g>
<g>
</g>
<g>
</g>
<g>
</g>
<g>
</g>
<g>
</g>
<g>
</g>
<g>
</g>
<g>
</g>
</svg>
