<svg id="Capa_1" enable-background="new 0 0 512 512" height="512" viewBox="0 0 512 512" width="512" xmlns="http://www.w3.org/2000/svg"><g><g><g><path d="m486.331 168.866h-256.694c-14.177 0-25.669 11.493-25.669 25.669v212.293c0 14.177 11.493 25.669 25.669 25.669h138.98c1.424 0 2.804.491 3.907 1.391l50.299 41.026c4.037 3.293 10.088.42 10.088-4.79v-31.446c0-3.414 2.767-6.181 6.181-6.181h47.239c14.177 0 25.669-11.493 25.669-25.669v-212.293c0-14.176-11.493-25.669-25.669-25.669z" fill="#f7e365"/></g><g><path d="m229.637 168.866c-14.177 0-25.669 11.492-25.669 25.669v131.835h78.396c29.073 0 52.726-23.652 52.726-52.726v-104.778z" fill="#f3d332"/></g></g><g><g><path d="m25.669 35.683h256.694c14.177 0 25.669 11.493 25.669 25.669v212.293c0 14.177-11.493 25.669-25.669 25.669h-138.98c-1.424 0-2.804.491-3.907 1.391l-50.299 41.026c-4.037 3.293-10.088.42-10.088-4.79v-31.446c0-3.414-2.767-6.181-6.181-6.181h-47.239c-14.176 0-25.669-11.492-25.669-25.669v-212.293c0-14.177 11.493-25.669 25.669-25.669z" fill="#edf6ff"/></g><g><path d="m282.363 35.683h-3.844v221.284c0 7.088-5.746 12.835-12.835 12.835h-265.684v3.844c0 14.177 11.493 25.669 25.669 25.669h47.239c3.414 0 6.181 2.767 6.181 6.181v31.446c0 5.21 6.05 8.083 10.088 4.79l50.299-41.026c1.103-.9 2.483-1.391 3.907-1.391h138.98c14.177 0 25.669-11.493 25.669-25.669v-212.294c0-14.177-11.492-25.669-25.669-25.669z" fill="#ddebfd"/></g><g><g><circle cx="154.016" cy="167.498" fill="#a2f5c3" r="82.142"/></g><g><path d="m197.821 98.025c8.013 12.681 12.668 27.695 12.668 43.804 0 45.366-36.776 82.142-82.142 82.142-16.109 0-31.123-4.656-43.804-12.668 14.552 23.03 40.217 38.338 69.474 38.338 45.366 0 82.142-36.776 82.142-82.142-.001-29.257-15.308-54.923-38.338-69.474z" fill="#88f2a9"/></g></g></g><g><path d="m154.016 206.289c-12.946 0-25.138-5.054-34.331-14.231-2.932-2.927-2.936-7.675-.009-10.606 2.926-2.932 7.674-2.937 10.606-.009 6.36 6.35 14.789 9.847 23.733 9.847s17.373-3.497 23.733-9.847c2.931-2.928 7.68-2.923 10.606.009 2.927 2.932 2.922 7.681-.009 10.606-9.191 9.177-21.383 14.231-34.329 14.231z" fill="#4172ca"/></g><g><path d="m174.552 149.329c-4.142 0-7.5-3.357-7.5-7.5v-10.268c0-4.143 3.358-7.5 7.5-7.5s7.5 3.357 7.5 7.5v10.268c0 4.143-3.358 7.5-7.5 7.5z" fill="#4172ca"/></g><g><path d="m133.481 149.329c-4.142 0-7.5-3.357-7.5-7.5v-10.268c0-4.143 3.358-7.5 7.5-7.5s7.5 3.357 7.5 7.5v10.268c0 4.143-3.358 7.5-7.5 7.5z" fill="#4172ca"/></g></g></svg>