<svg id="Capa_1" enable-background="new 0 0 512 512" height="512" viewBox="0 0 512 512" width="512" xmlns="http://www.w3.org/2000/svg"><g><g><path d="m99.902 33.301h312.195v445.398h-312.195z" fill="#b2e5fb"/></g><g><path d="m380.878 33.301h31.22v445.398h-31.22z" fill="#91dafa"/></g><g><path d="m99.902 20.813v12.488h113.728c4.722 0 8.884 3.201 9.985 7.793 3.508 14.632 16.676 25.508 32.384 25.508 15.708 0 28.876-10.876 32.384-25.508 1.101-4.592 5.263-7.793 9.985-7.793h113.728v-12.488c.002-11.495-9.317-20.813-20.811-20.813h-270.57c-11.494 0-20.813 9.318-20.813 20.813z" fill="#4172ca"/></g><g><path d="m391.285 0h-31.22c11.495 0 20.813 9.318 20.813 20.813v12.488h31.22v-12.488c0-11.495-9.319-20.813-20.813-20.813z" fill="#3a67c1"/></g><g><path d="m412.098 491.187v-12.488h-312.196v12.488c0 11.495 9.318 20.813 20.813 20.813h270.569c11.495 0 20.814-9.318 20.814-20.813z" fill="#4172ca"/></g><g><path d="m380.878 478.699v12.488c0 11.495-9.318 20.813-20.813 20.813h31.22c11.495 0 20.813-9.318 20.813-20.813v-12.488z" fill="#3a67c1"/></g><g><g><g><g><circle cx="149.854" cy="126.959" fill="#a2f5c3" r="16.65"/></g></g></g><g><g><g><circle cx="149.854" cy="193.561" fill="#688ed5" r="16.65"/></g></g></g><g><g><g><circle cx="149.854" cy="326.764" fill="#688ed5" r="16.65"/></g></g></g><g><g><g><circle cx="149.854" cy="260.163" fill="#a2f5c3" r="16.65"/></g></g></g></g><g><g><path d="m189.398 426.667v-29.138c0-5.747 4.659-10.406 10.406-10.406h112.39c5.747 0 10.406 4.659 10.406 10.406v29.138c0 5.747-4.659 10.407-10.406 10.407h-112.39c-5.746-.001-10.406-4.66-10.406-10.407z" fill="#88f2a9"/></g><g><path d="m312.195 387.122h-23.935c5.747 0 10.406 4.659 10.406 10.406v29.138c0 5.747-4.659 10.407-10.406 10.407h23.935c5.747 0 10.406-4.659 10.406-10.407v-29.138c.001-5.747-4.658-10.406-10.406-10.406z" fill="#80e29e"/></g></g><g><path d="m241.431 117.809h-41.626c-4.142 0-7.5-3.357-7.5-7.5s3.358-7.5 7.5-7.5h41.626c4.142 0 7.5 3.357 7.5 7.5s-3.358 7.5-7.5 7.5z" fill="#e175a5"/></g><g><path d="m220.618 350.915h-20.813c-4.142 0-7.5-3.357-7.5-7.5s3.358-7.5 7.5-7.5h20.813c4.142 0 7.5 3.357 7.5 7.5s-3.358 7.5-7.5 7.5z" fill="#f3d332"/></g><g><path d="m378.797 350.915h-124.879c-4.142 0-7.5-3.357-7.5-7.5s3.358-7.5 7.5-7.5h124.878c4.142 0 7.5 3.357 7.5 7.5s-3.357 7.5-7.499 7.5z" fill="#77d192"/></g><g><path d="m241.431 184.41h-41.626c-4.142 0-7.5-3.357-7.5-7.5s3.358-7.5 7.5-7.5h41.626c4.142 0 7.5 3.357 7.5 7.5s-3.358 7.5-7.5 7.5z" fill="#e175a5"/></g><g><path d="m220.618 284.313h-20.813c-4.142 0-7.5-3.357-7.5-7.5s3.358-7.5 7.5-7.5h20.813c4.142 0 7.5 3.357 7.5 7.5s-3.358 7.5-7.5 7.5z" fill="#f3d332"/></g><g><path d="m378.797 284.313h-124.879c-4.142 0-7.5-3.357-7.5-7.5s3.358-7.5 7.5-7.5h124.878c4.142 0 7.5 3.357 7.5 7.5s-3.357 7.5-7.499 7.5z" fill="#77d192"/></g><g><path d="m241.431 317.614h-41.626c-4.142 0-7.5-3.357-7.5-7.5s3.358-7.5 7.5-7.5h41.626c4.142 0 7.5 3.357 7.5 7.5s-3.358 7.5-7.5 7.5z" fill="#e175a5"/></g><g><path d="m220.618 151.109h-20.813c-4.142 0-7.5-3.357-7.5-7.5s3.358-7.5 7.5-7.5h20.813c4.142 0 7.5 3.357 7.5 7.5s-3.358 7.5-7.5 7.5z" fill="#f3d332"/></g><g><path d="m378.797 151.109h-124.879c-4.142 0-7.5-3.357-7.5-7.5s3.358-7.5 7.5-7.5h124.878c4.142 0 7.5 3.357 7.5 7.5s-3.357 7.5-7.499 7.5z" fill="#77d192"/></g><g><path d="m241.431 251.012h-41.626c-4.142 0-7.5-3.357-7.5-7.5s3.358-7.5 7.5-7.5h41.626c4.142 0 7.5 3.357 7.5 7.5s-3.358 7.5-7.5 7.5z" fill="#e175a5"/></g><g><path d="m220.618 217.711h-20.813c-4.142 0-7.5-3.357-7.5-7.5s3.358-7.5 7.5-7.5h20.813c4.142 0 7.5 3.357 7.5 7.5s-3.358 7.5-7.5 7.5z" fill="#f3d332"/></g><g><path d="m378.797 217.711h-124.879c-4.142 0-7.5-3.357-7.5-7.5s3.358-7.5 7.5-7.5h124.878c4.142 0 7.5 3.357 7.5 7.5s-3.357 7.5-7.499 7.5z" fill="#77d192"/></g><g><path d="m256 24.976c-4.598 0-8.325 3.727-8.325 8.325 0 4.598 3.727 8.325 8.325 8.325 4.598 0 8.325-3.727 8.325-8.325 0-4.598-3.727-8.325-8.325-8.325z" fill="#edf6ff"/></g></g></svg>