<svg id="Capa_1" enable-background="new 0 0 512 512" height="512" viewBox="0 0 512 512" width="512" xmlns="http://www.w3.org/2000/svg"><g><g><path d="m256 496.199c-4.142 0-7.5-3.358-7.5-7.5v-94.927c0-4.142 3.358-7.5 7.5-7.5s7.5 3.358 7.5 7.5v94.927c0 4.142-3.358 7.5-7.5 7.5z" fill="#bed9fd"/></g><g><path d="m503.759 33.301h-495.518c-4.551 0-8.241-3.69-8.241-8.242v-16.818c0-4.551 3.69-8.241 8.241-8.241h495.517c4.552 0 8.242 3.69 8.242 8.241v16.818c0 4.552-3.69 8.242-8.241 8.242z" fill="#4172ca"/></g><g><path d="m503.759 33.301h-18.815v-33.301h18.815c4.551 0 8.241 3.69 8.241 8.241v16.818c0 4.552-3.69 8.242-8.241 8.242z" fill="#3a67c1"/></g><g><path d="m503.759 403.772h-495.518c-4.552 0-8.241-3.69-8.241-8.241v-16.818c0-4.552 3.69-8.241 8.241-8.241h495.517c4.552 0 8.241 3.69 8.241 8.241v16.818c.001 4.552-3.689 8.241-8.24 8.241z" fill="#4172ca"/></g><g><path d="m503.759 403.772h-18.815v-33.301h18.815c4.552 0 8.241 3.69 8.241 8.241v16.818c0 4.553-3.69 8.242-8.241 8.242z" fill="#3a67c1"/></g><g><path d="m16.65 33.301h478.699v337.171h-478.699z" fill="#edf6ff"/></g><g><path d="m468.293 33.301h27.057v337.171h-27.057z" fill="#ddebfd"/></g><g><g><path d="m134.141 149.854h82.314c0-45.979-37.273-83.252-83.252-83.252v78.985c0 1.488.333 2.938.938 4.267z" fill="#e175a5"/></g><g><path d="m134.141 149.854c.506 1.11 1.2 2.137 2.079 3.017l55.851 55.851c15.066-15.066 24.384-35.879 24.384-58.868z" fill="#a2f5c3"/></g><g><path d="m133.203 145.587v-78.985c-47.465 0-85.652 39.721-83.134 87.736 2.273 43.349 38.151 77.948 81.551 78.753 23.616.438 45.04-8.959 60.451-24.369l-55.851-55.851c-1.931-1.932-3.017-4.552-3.017-7.284z" fill="#f7e365"/></g></g><g><path d="m355.902 337.171h-33.301v-87.498c0-4.552 3.69-8.241 8.241-8.241h16.818c4.552 0 8.241 3.69 8.241 8.241v87.498z" fill="#e175a5"/></g><g><path d="m389.203 337.171h-33.301v-127.043c0-4.552 3.69-8.241 8.241-8.241h16.818c4.552 0 8.241 3.69 8.241 8.241v127.043z" fill="#e69642"/></g><g><path d="m422.504 337.171h-33.301v-176.995c0-4.552 3.69-8.241 8.241-8.241h16.818c4.552 0 8.241 3.69 8.241 8.241v176.995z" fill="#f7e365"/></g><g><path d="m455.805 337.171h-33.301v-220.702c0-4.552 3.69-8.241 8.241-8.241h16.818c4.552 0 8.241 3.69 8.241 8.241v220.702z" fill="#a2f5c3"/></g><g><circle cx="256" cy="493.457" fill="#4172ca" r="18.543"/></g><g><g><path d="m256 278.069h-119.675c-4.142 0-7.5-3.358-7.5-7.5s3.358-7.5 7.5-7.5h119.675c4.142 0 7.5 3.358 7.5 7.5s-3.358 7.5-7.5 7.5z" fill="#e175a5"/></g><g><path d="m256 311.37h-24.976c-4.142 0-7.5-3.358-7.5-7.5s3.358-7.5 7.5-7.5h24.976c4.142 0 7.5 3.358 7.5 7.5s-3.358 7.5-7.5 7.5z" fill="#91dafa"/></g><g><path d="m101.984 278.069h-20.813c-4.142 0-7.5-3.358-7.5-7.5s3.358-7.5 7.5-7.5h20.813c4.142 0 7.5 3.358 7.5 7.5s-3.358 7.5-7.5 7.5z" fill="#e175a5"/></g><g><path d="m195.642 311.37h-145.691c-4.142 0-7.5-3.358-7.5-7.5s3.358-7.5 7.5-7.5h145.691c4.142 0 7.5 3.358 7.5 7.5s-3.358 7.5-7.5 7.5z" fill="#91dafa"/></g><g><path d="m256.002 344.671h-206.048c-4.142 0-7.5-3.358-7.5-7.5s3.358-7.5 7.5-7.5h206.049c4.142 0 7.5 3.358 7.5 7.5s-3.358 7.5-7.501 7.5z" fill="#91dafa"/></g></g><g><path d="m462.049 344.671h-172.748c-4.142 0-7.5-3.358-7.5-7.5v-270.569c0-4.142 3.358-7.5 7.5-7.5s7.5 3.358 7.5 7.5v263.069h165.248c4.142 0 7.5 3.358 7.5 7.5s-3.358 7.5-7.5 7.5z" fill="#4172ca"/></g></g></svg>