<svg id="Capa_1" enable-background="new 0 0 512 512" height="512" viewBox="0 0 512 512" width="512" xmlns="http://www.w3.org/2000/svg"><g><path d="m256 22.894c-128.535 0-233.106 104.571-233.106 233.106s104.571 233.106 233.106 233.106 233.106-104.571 233.106-233.106-104.571-233.106-233.106-233.106zm0 416.26c-100.992 0-183.154-82.163-183.154-183.154s82.162-183.154 183.154-183.154 183.154 82.162 183.154 183.154-82.162 183.154-183.154 183.154z" fill="#e175a5"/><g fill="#de5791"><path d="m203.967 28.754v51.632c16.501-4.898 33.963-7.541 52.033-7.541s35.531 2.643 52.033 7.541v-51.632c-16.736-3.83-34.151-5.86-52.033-5.86s-35.296 2.03-52.033 5.86z"/><path d="m28.754 308.033h51.632c-4.898-16.501-7.541-33.963-7.541-52.033s2.643-35.531 7.541-52.033h-51.632c-3.83 16.736-5.86 34.151-5.86 52.033s2.03 35.296 5.86 52.033z"/><path d="m308.033 483.246v-51.632c-16.501 4.898-33.963 7.541-52.033 7.541s-35.531-2.643-52.033-7.541v51.632c16.736 3.83 34.151 5.86 52.033 5.86s35.296-2.03 52.033-5.86z"/><path d="m483.246 203.967h-51.632c4.898 16.501 7.541 33.963 7.541 52.033s-2.643 35.531-7.541 52.033h51.632c3.83-16.736 5.86-34.151 5.86-52.033s-2.03-35.296-5.86-52.033z"/></g><g><path d="m376.717 256c0 29.68-10.714 56.866-28.495 77.882 0 0-38.137 30.936-92.222 30.936s-92.222-30.936-92.222-30.936c-17.781-21.016-28.495-48.202-28.495-77.882 0-66.673 54.043-120.717 120.717-120.717s120.717 54.044 120.717 120.717z" fill="#e175a5"/><path d="m163.777 333.882s50.013 30.937 92.223 30.937c41.903 0 92.211-30.927 92.22-30.933 17.774-21.023 28.496-48.201 28.496-77.887 0-40.641-20.084-76.59-50.867-98.466 14.011 19.716 22.249 43.82 22.249 69.849 0 66.669-54.046 120.715-120.715 120.715-26.029 0-50.133-8.238-69.849-22.249 1.968 2.769 4.054 5.448 6.243 8.038z" fill="#de5791"/><g><path d="m163.777 333.882c22.143 26.194 55.238 42.833 92.223 42.833 36.984 0 70.076-16.637 92.22-42.829-.002-.007-.004-.013-.006-.02-20.533-28.831-54.202-47.688-92.214-47.688s-71.681 18.857-92.214 47.688c-.003.006-.006.011-.009.016z" fill="#edf6ff"/><path d="m163.777 333.882c22.143 26.194 55.238 42.833 92.223 42.833 36.984 0 70.076-16.637 92.22-42.829-.002-.007-.004-.013-.006-.02-20.533-28.831-54.202-47.688-92.214-47.688s-71.681 18.857-92.214 47.688c-.003.006-.006.011-.009.016z" fill="#edf6ff"/><path d="m319.305 305.619c-22.142 25.99-55.104 42.478-91.923 42.478-22.517 0-43.59-6.172-61.631-16.907-.668.882-1.323 1.774-1.965 2.676-.003.005-.006.01-.009.016 22.143 26.194 55.238 42.833 92.223 42.833 36.984 0 70.076-16.637 92.22-42.829-.002-.007-.004-.013-.006-.02-7.87-11.05-17.675-20.627-28.909-28.247z" fill="#ddebfd"/><circle cx="256" cy="240.911" fill="#edf6ff" r="45.268"/></g></g><path d="m270.569 95.74h-29.138c-5.747 0-10.407-4.659-10.407-10.407v-74.926c0-5.748 4.66-10.407 10.407-10.407h29.138c5.747 0 10.407 4.659 10.407 10.407v74.927c0 5.747-4.66 10.406-10.407 10.406z" fill="#da0b62"/><path d="m95.74 241.431v29.138c0 5.747-4.659 10.407-10.407 10.407h-74.926c-5.748 0-10.407-4.66-10.407-10.407v-29.138c0-5.747 4.659-10.407 10.407-10.407h74.927c5.747 0 10.406 4.66 10.406 10.407z" fill="#da0b62"/><path d="m241.431 416.26h29.138c5.747 0 10.407 4.659 10.407 10.406v74.927c0 5.747-4.659 10.406-10.407 10.406h-29.138c-5.747 0-10.407-4.659-10.407-10.406v-74.927c0-5.747 4.66-10.406 10.407-10.406z" fill="#da0b62"/><path d="m416.26 270.569v-29.138c0-5.747 4.659-10.407 10.406-10.407h74.927c5.747 0 10.406 4.659 10.406 10.407v29.138c0 5.747-4.659 10.407-10.406 10.407h-74.927c-5.747 0-10.406-4.66-10.406-10.407z" fill="#da0b62"/></g></svg>