<svg id="Capa_1" enable-background="new 0 0 512 512" height="512" viewBox="0 0 512 512" width="512" xmlns="http://www.w3.org/2000/svg"><g><g><path d="m496.259 253.909-196.806 85.69-43.453 18.925-43.453-18.925-196.806-85.69c.742-1.411 1.793-2.648 3.121-3.595l45.658-32.821h382.96l45.658 32.821c1.328.947 2.379 2.183 3.121 3.595z" fill="#dbb72b"/></g><g><g><path d="m447.48 382.959h-382.96v-362.355c0-11.379 9.225-20.604 20.604-20.604h341.752c11.379 0 20.604 9.225 20.604 20.604z" fill="#edf6ff"/></g><g><path d="m308.732 308.32c-2.917 1.27-6.304.748-8.702-1.341l-7.126-6.206c-10.231-8.91-23.336-13.816-36.903-13.816s-26.673 4.907-36.904 13.816l-7.126 6.205c-2.399 2.089-5.786 2.611-8.702 1.341l-138.749-60.411v135.052h382.96v-135.052z" fill="#ddebfd"/></g><g><g><g><circle cx="114.472" cy="79.089" fill="#a2f5c3" r="16.65"/></g></g></g><g><g><g><circle cx="114.472" cy="145.691" fill="#a2f5c3" r="16.65"/></g></g></g><g><g><g><circle cx="114.472" cy="220.618" fill="#a2f5c3" r="16.65"/></g></g></g><g><g><g><circle cx="293.463" cy="79.089" fill="#a2f5c3" r="16.65"/></g></g></g><g><g><g><circle cx="293.463" cy="145.691" fill="#a2f5c3" r="16.65"/></g></g></g><g><g><g><circle cx="293.463" cy="220.618" fill="#a2f5c3" r="16.65"/></g></g></g></g><g><path d="m497.433 258.679v243.02c0 2.946-1.246 5.614-3.235 7.489-1.844 1.741-4.327 2.812-7.067 2.812h-462.262c-2.74 0-5.223-1.071-7.067-2.812-1.988-1.875-3.235-4.543-3.235-7.489v-243.02c0-1.69.412-3.317 1.174-4.77l196.806 85.69 43.453 18.925 43.453-18.925 196.806-85.69c.762 1.452 1.174 3.08 1.174 4.77z" fill="#f3d332"/></g><g><path d="m494.198 509.188c-1.844 1.741-4.327 2.812-7.067 2.812h-462.262c-2.74 0-5.223-1.071-7.067-2.812l194.745-169.589 22.952-19.985c11.754-10.24 29.247-10.24 41.001 0l22.952 19.985z" fill="#f7e365"/></g><g><path d="m235.187 103.24h-70.764c-4.142 0-7.5-3.357-7.5-7.5s3.358-7.5 7.5-7.5h70.764c4.142 0 7.5 3.357 7.5 7.5s-3.358 7.5-7.5 7.5z" fill="#91dafa"/></g><g><path d="m174.829 69.939h-10.406c-4.142 0-7.5-3.357-7.5-7.5s3.358-7.5 7.5-7.5h10.406c4.142 0 7.5 3.357 7.5 7.5s-3.358 7.5-7.5 7.5z" fill="#e175a5"/></g><g><path d="m235.187 69.939h-27.057c-4.142 0-7.5-3.357-7.5-7.5s3.358-7.5 7.5-7.5h27.057c4.142 0 7.5 3.357 7.5 7.5s-3.358 7.5-7.5 7.5z" fill="#e175a5"/></g><g><path d="m235.187 169.842h-70.764c-4.142 0-7.5-3.357-7.5-7.5s3.358-7.5 7.5-7.5h70.764c4.142 0 7.5 3.357 7.5 7.5s-3.358 7.5-7.5 7.5z" fill="#91dafa"/></g><g><path d="m174.829 136.541h-10.406c-4.142 0-7.5-3.357-7.5-7.5s3.358-7.5 7.5-7.5h10.406c4.142 0 7.5 3.357 7.5 7.5s-3.358 7.5-7.5 7.5z" fill="#e175a5"/></g><g><path d="m235.187 136.541h-27.057c-4.142 0-7.5-3.357-7.5-7.5s3.358-7.5 7.5-7.5h27.057c4.142 0 7.5 3.357 7.5 7.5s-3.358 7.5-7.5 7.5z" fill="#e175a5"/></g><g><path d="m235.187 244.769h-70.764c-4.142 0-7.5-3.357-7.5-7.5s3.358-7.5 7.5-7.5h70.764c4.142 0 7.5 3.357 7.5 7.5s-3.358 7.5-7.5 7.5z" fill="#91dafa"/></g><g><path d="m174.829 211.468h-10.406c-4.142 0-7.5-3.357-7.5-7.5s3.358-7.5 7.5-7.5h10.406c4.142 0 7.5 3.357 7.5 7.5s-3.358 7.5-7.5 7.5z" fill="#e175a5"/></g><g><path d="m235.187 211.468h-27.057c-4.142 0-7.5-3.357-7.5-7.5s3.358-7.5 7.5-7.5h27.057c4.142 0 7.5 3.357 7.5 7.5s-3.358 7.5-7.5 7.5z" fill="#e175a5"/></g><g><path d="m414.179 103.24h-70.764c-4.143 0-7.5-3.357-7.5-7.5s3.357-7.5 7.5-7.5h70.764c4.143 0 7.5 3.357 7.5 7.5s-3.358 7.5-7.5 7.5z" fill="#91dafa"/></g><g><path d="m353.821 69.939h-10.406c-4.143 0-7.5-3.357-7.5-7.5s3.357-7.5 7.5-7.5h10.406c4.143 0 7.5 3.357 7.5 7.5s-3.357 7.5-7.5 7.5z" fill="#e175a5"/></g><g><path d="m414.179 69.939h-27.057c-4.143 0-7.5-3.357-7.5-7.5s3.357-7.5 7.5-7.5h27.057c4.143 0 7.5 3.357 7.5 7.5s-3.358 7.5-7.5 7.5z" fill="#e175a5"/></g><g><path d="m414.179 169.842h-70.764c-4.143 0-7.5-3.357-7.5-7.5s3.357-7.5 7.5-7.5h70.764c4.143 0 7.5 3.357 7.5 7.5s-3.358 7.5-7.5 7.5z" fill="#91dafa"/></g><g><path d="m353.821 136.541h-10.406c-4.143 0-7.5-3.357-7.5-7.5s3.357-7.5 7.5-7.5h10.406c4.143 0 7.5 3.357 7.5 7.5s-3.357 7.5-7.5 7.5z" fill="#e175a5"/></g><g><path d="m414.179 136.541h-27.057c-4.143 0-7.5-3.357-7.5-7.5s3.357-7.5 7.5-7.5h27.057c4.143 0 7.5 3.357 7.5 7.5s-3.358 7.5-7.5 7.5z" fill="#e175a5"/></g><g><path d="m414.179 244.769h-70.764c-4.143 0-7.5-3.357-7.5-7.5s3.357-7.5 7.5-7.5h70.764c4.143 0 7.5 3.357 7.5 7.5s-3.358 7.5-7.5 7.5z" fill="#91dafa"/></g><g><path d="m353.821 211.468h-10.406c-4.143 0-7.5-3.357-7.5-7.5s3.357-7.5 7.5-7.5h10.406c4.143 0 7.5 3.357 7.5 7.5s-3.357 7.5-7.5 7.5z" fill="#e175a5"/></g><g><path d="m414.179 211.468h-27.057c-4.143 0-7.5-3.357-7.5-7.5s3.357-7.5 7.5-7.5h27.057c4.143 0 7.5 3.357 7.5 7.5s-3.358 7.5-7.5 7.5z" fill="#e175a5"/></g></g></svg>