<svg id="Capa_1" enable-background="new 0 0 512 512" height="512" viewBox="0 0 512 512" width="512" xmlns="http://www.w3.org/2000/svg"><g><g><path d="m256 0c-141.217 0-255.727 114.342-256 255.495-.272 141.062 114.77 256.414 255.832 256.505 70.759.046 134.808-28.633 181.171-74.997l-174.968-174.968c-3.864-3.864-6.035-9.105-6.035-14.569z" fill="#a2f5c3"/></g><g><path d="m208.65 464.65c-58.622 0-112.63-19.718-155.786-52.865 46.797 60.929 120.373 100.215 203.136 100.215 70.692 0 134.676-28.67 181.003-74.997l-47.333-47.333c-46.327 46.326-110.327 74.98-181.02 74.98z" fill="#88f2a9"/></g><g><path d="m256 0v247.466c0 5.464 2.171 10.705 6.035 14.569l174.985 174.985c46.326-46.328 74.98-110.327 74.98-181.02 0-141.385-114.615-256-256-256z" fill="#e175a5"/></g><g><path d="m411.786 52.865c33.146 43.156 52.865 97.164 52.865 155.786 0 70.693-28.654 134.692-74.981 181.019l47.35 47.35c46.326-46.328 74.98-110.327 74.98-181.02 0-82.763-39.286-156.339-100.214-203.135z" fill="#de5791"/></g><g><g><circle cx="142.569" cy="166.504" fill="#edf6ff" r="66.602"/></g></g><g><g><g><circle cx="369.431" cy="166.504" fill="#edf6ff" r="66.602"/></g></g></g><g><path d="m136.557 186.029c-1.989 0-3.897-.79-5.303-2.196l-12.025-12.025c-2.929-2.93-2.929-7.678 0-10.607 2.929-2.928 7.678-2.928 10.606 0l6.722 6.723 18.747-18.748c2.929-2.928 7.678-2.928 10.606 0 2.929 2.93 2.929 7.678 0 10.607l-24.05 24.051c-1.406 1.405-3.314 2.195-5.303 2.195z" fill="#4172ca"/></g><path d="m380.038 166.504 11.347-11.347c2.929-2.93 2.929-7.678 0-10.607-2.928-2.927-7.677-2.929-10.606 0l-11.347 11.347-11.347-11.347c-2.929-2.928-7.678-2.928-10.606 0-2.929 2.93-2.929 7.678 0 10.607l11.347 11.347-11.347 11.347c-2.929 2.93-2.929 7.678 0 10.607 1.464 1.464 3.384 2.196 5.303 2.196s3.839-.732 5.303-2.196l11.347-11.347 11.347 11.347c1.464 1.464 3.384 2.196 5.303 2.196s3.839-.732 5.303-2.196c2.929-2.93 2.929-7.678 0-10.607z" fill="#4172ca"/><g><path d="m160.26 307.207h-35.382c-4.142 0-7.5-3.357-7.5-7.5s3.358-7.5 7.5-7.5h35.382c4.142 0 7.5 3.357 7.5 7.5s-3.358 7.5-7.5 7.5z" fill="#e69642"/></g><g><path d="m170.667 273.906h-56.195c-4.142 0-7.5-3.357-7.5-7.5s3.358-7.5 7.5-7.5h56.195c4.142 0 7.5 3.357 7.5 7.5s-3.358 7.5-7.5 7.5z" fill="#e69642"/></g><g><path d="m387.122 307.207h-35.382c-4.142 0-7.5-3.357-7.5-7.5s3.358-7.5 7.5-7.5h35.382c4.142 0 7.5 3.357 7.5 7.5s-3.358 7.5-7.5 7.5z" fill="#e69642"/></g><g><path d="m397.528 273.906h-56.195c-4.142 0-7.5-3.357-7.5-7.5s3.358-7.5 7.5-7.5h56.195c4.142 0 7.5 3.357 7.5 7.5s-3.358 7.5-7.5 7.5z" fill="#e69642"/></g></g></svg>