<svg id="Capa_1" enable-background="new 0 0 512 512" height="512" viewBox="0 0 512 512" width="512" xmlns="http://www.w3.org/2000/svg"><g><path d="m470.374 49.302h-428.748c-22.989 0-41.626 18.637-41.626 41.626v276.472c0 22.989 18.637 41.626 41.626 41.626h156.906c6.942 0 13.417 3.496 17.226 9.299l23.017 35.073c8.137 12.399 26.314 12.399 34.451 0l23.017-35.073c3.809-5.804 10.284-9.299 17.226-9.299h156.906c22.989 0 41.626-18.637 41.626-41.626v-276.472c-.001-22.989-18.638-41.626-41.627-41.626z" fill="#edf6ff"/><path d="m470.374 49.302h-26.78c0 83.01-29.968 171.711-106.423 251.086-40.585 42.135-132.163 97.29-186.005 108.638h47.367c6.942 0 13.417 3.496 17.226 9.299l23.017 35.073c8.137 12.399 26.314 12.399 34.451 0l23.017-35.073c3.809-5.804 10.284-9.299 17.226-9.299h156.906c22.989 0 41.626-18.637 41.626-41.626v-276.472c-.002-22.989-18.639-41.626-41.628-41.626z" fill="#ddebfd"/><g><g><g><path d="m251.738 193.887-21.405 11.253c-6.72 3.533-14.574-2.173-13.29-9.656l4.088-23.835c.51-2.971-.475-6.003-2.634-8.108l-17.317-16.88c-5.436-5.299-2.437-14.532 5.076-15.624l23.932-3.477c2.983-.434 5.563-2.307 6.897-5.011l10.703-21.686c3.36-6.808 13.068-6.808 16.428 0l10.703 21.686c1.334 2.703 3.913 4.577 6.897 5.011l23.932 3.477c7.513 1.092 10.513 10.325 5.076 15.624l-17.317 16.88c-2.159 2.104-3.144 5.136-2.634 8.108l4.088 23.835c1.283 7.483-6.57 13.189-13.29 9.656l-21.405-11.253c-2.672-1.403-5.86-1.403-8.528 0z" fill="#f7e365"/><path d="m310.821 146.662c5.436-5.299 2.437-14.532-5.076-15.624l-13.352-1.94c-5.455 7.842-12.072 15.783-19.708 23.419-18.202 18.202-38.131 30.645-54.311 35.203l-1.332 7.765c-1.283 7.483 6.571 13.189 13.29 9.656l21.405-11.253c2.668-1.403 5.856-1.403 8.525 0l21.405 11.253c6.72 3.533 14.574-2.173 13.29-9.656l-4.088-23.835c-.51-2.971.475-6.003 2.634-8.108z" fill="#f3d332"/></g><g><path d="m403.795 193.887-21.405 11.253c-6.72 3.533-14.574-2.173-13.29-9.656l4.088-23.835c.51-2.971-.475-6.003-2.634-8.108l-17.317-16.88c-5.436-5.299-2.437-14.532 5.076-15.624l23.932-3.477c2.983-.434 5.562-2.307 6.897-5.011l10.703-21.686c3.36-6.808 13.068-6.808 16.428 0l10.703 21.686c1.334 2.703 3.913 4.577 6.897 5.011l23.932 3.477c7.513 1.092 10.513 10.325 5.076 15.624l-17.317 16.88c-2.159 2.104-3.144 5.136-2.634 8.108l4.088 23.835c1.283 7.483-6.571 13.189-13.29 9.656l-21.405-11.253c-2.671-1.403-5.859-1.403-8.528 0z" fill="#f7e365"/><path d="m462.879 146.662c5.436-5.299 2.437-14.532-5.076-15.624l-13.352-1.94c-5.455 7.842-12.072 15.783-19.708 23.419-18.202 18.202-38.131 30.645-54.311 35.203l-1.332 7.765c-1.283 7.483 6.571 13.189 13.29 9.656l21.405-11.253c2.668-1.403 5.856-1.403 8.525 0l21.405 11.253c6.72 3.533 14.574-2.173 13.29-9.656l-4.088-23.835c-.51-2.971.475-6.003 2.634-8.108z" fill="#f3d332"/></g><g><path d="m99.68 193.887-21.405 11.253c-6.72 3.533-14.574-2.173-13.29-9.656l4.088-23.835c.51-2.971-.475-6.003-2.634-8.108l-17.317-16.88c-5.436-5.299-2.437-14.532 5.076-15.624l23.932-3.477c2.983-.434 5.563-2.307 6.897-5.011l10.703-21.686c3.36-6.808 13.068-6.808 16.428 0l10.703 21.686c1.334 2.703 3.913 4.577 6.897 5.011l23.932 3.477c7.513 1.092 10.513 10.325 5.076 15.624l-17.317 16.88c-2.159 2.104-3.144 5.136-2.634 8.108l4.088 23.835c1.283 7.483-6.571 13.189-13.29 9.656l-21.405-11.253c-2.672-1.403-5.86-1.403-8.528 0z" fill="#f7e365"/><path d="m158.764 146.662c5.436-5.299 2.437-14.532-5.076-15.624l-13.352-1.94c-5.455 7.842-12.072 15.783-19.708 23.419-18.202 18.202-38.131 30.645-54.311 35.203l-1.332 7.765c-1.283 7.483 6.571 13.189 13.29 9.656l21.405-11.253c2.668-1.403 5.856-1.403 8.525 0l21.405 11.253c6.72 3.533 14.574-2.173 13.29-9.656l-4.088-23.835c-.51-2.971.475-6.003 2.634-8.108z" fill="#f3d332"/></g></g><g><g><path d="m330.07 350.245-21.405 11.253c-6.72 3.533-14.574-2.173-13.29-9.656l4.088-23.835c.51-2.971-.475-6.003-2.634-8.108l-17.317-16.88c-5.436-5.299-2.437-14.532 5.076-15.624l23.932-3.477c2.983-.434 5.562-2.307 6.897-5.011l10.703-21.686c3.36-6.808 13.068-6.808 16.428 0l10.703 21.686c1.334 2.703 3.913 4.577 6.897 5.011l23.932 3.477c7.513 1.092 10.513 10.325 5.076 15.624l-17.317 16.88c-2.159 2.104-3.144 5.136-2.634 8.108l4.088 23.835c1.283 7.483-6.57 13.189-13.29 9.656l-21.405-11.253c-2.671-1.403-5.859-1.403-8.528 0z" fill="#f7e365"/><path d="m389.154 303.019c5.436-5.299 2.437-14.532-5.076-15.624l-13.352-1.94c-5.455 7.842-12.072 15.783-19.708 23.419-18.202 18.202-38.131 30.645-54.311 35.203l-1.332 7.765c-1.283 7.483 6.571 13.189 13.29 9.656l21.405-11.253c2.668-1.403 5.856-1.403 8.525 0l21.405 11.253c6.72 3.533 14.574-2.173 13.29-9.656l-4.088-23.835c-.51-2.971.475-6.003 2.634-8.108z" fill="#f3d332"/></g><g><path d="m162.461 350.245-21.405 11.253c-6.72 3.533-14.574-2.173-13.29-9.656l4.088-23.835c.51-2.971-.475-6.003-2.634-8.108l-17.317-16.88c-5.436-5.299-2.437-14.532 5.076-15.624l23.932-3.477c2.983-.434 5.562-2.307 6.897-5.011l10.703-21.686c3.36-6.808 13.068-6.808 16.428 0l10.703 21.686c1.334 2.703 3.913 4.577 6.897 5.011l23.932 3.477c7.513 1.092 10.513 10.325 5.076 15.624l-17.317 16.88c-2.159 2.104-3.144 5.136-2.634 8.108l4.088 23.835c1.283 7.483-6.571 13.189-13.29 9.656l-21.405-11.253c-2.671-1.403-5.859-1.403-8.528 0z" fill="#f7e365"/><path d="m221.545 303.019c5.436-5.299 2.437-14.532-5.076-15.624l-13.352-1.94c-5.455 7.842-12.072 15.783-19.708 23.419-18.202 18.202-38.131 30.645-54.311 35.203l-1.332 7.765c-1.283 7.483 6.571 13.189 13.29 9.656l21.405-11.253c2.668-1.403 5.856-1.403 8.525 0l21.405 11.253c6.72 3.533 14.574-2.173 13.29-9.656l-4.088-23.835c-.51-2.971.475-6.003 2.634-8.108z" fill="#f3d332"/></g></g></g></g></svg>