<svg id="Capa_1" enable-background="new 0 0 512 512" height="512" viewBox="0 0 512 512" width="512" xmlns="http://www.w3.org/2000/svg"><g><g><path d="m432.911 512h-353.822c-17.242 0-31.22-13.977-31.22-31.22v-449.56c.001-17.243 13.978-31.22 31.22-31.22h353.821c17.242 0 31.22 13.977 31.22 31.22v449.56c0 17.243-13.977 31.22-31.219 31.22z" fill="#c27e4e"/></g><g><path d="m432.911 0h-24.976c17.242 0 31.22 13.977 31.22 31.22v449.56c0 17.242-13.977 31.22-31.22 31.22h24.976c17.242 0 31.22-13.977 31.22-31.22v-449.56c-.001-17.243-13.978-31.22-31.22-31.22z" fill="#b36d3c"/></g><g><path d="m81.171 468.699v-425.398c0-5.523 4.477-10 10-10h329.659c5.523 0 10 4.477 10 10v425.398c0 5.523-4.477 10-10 10h-329.659c-5.523 0-10-4.477-10-10z" fill="#edf6ff"/></g><g><path d="m403.772 478.699v-445.398h17.057c5.523 0 10 4.477 10 10v425.398c0 5.523-4.477 10-10 10z" fill="#ddebfd"/></g><g><g><path d="m335.089 174.829v-49.951h52.033c5.747 0 10.406 4.659 10.406 10.406v29.138c0 5.747-4.659 10.407-10.406 10.407z" fill="#4172ca"/></g><g><path d="m164.423 174.829v-49.951h170.667c5.747 0 10.407 4.659 10.407 10.406v29.138c0 5.747-4.659 10.407-10.407 10.407z" fill="#e69642"/></g><g><path d="m335.089 156.098h-96.005c.172-2.059.265-4.141.265-6.244 0-8.756-1.524-17.159-4.296-24.976h-70.631v49.951h170.667c5.747 0 10.407-4.659 10.407-10.407v-18.732c0 5.748-4.659 10.408-10.407 10.408z" fill="#e38523"/></g></g><g><g><path d="m283.057 308.033v-49.951h104.065c5.747 0 10.406 4.659 10.406 10.406v29.138c0 5.747-4.659 10.407-10.406 10.407z" fill="#4172ca"/></g><g><path d="m164.423 308.033v-49.951h118.634c5.747 0 10.406 4.659 10.406 10.406v29.138c0 5.747-4.659 10.407-10.406 10.407z" fill="#f7e365"/></g><g><path d="m283.057 289.301h-43.972c.172-2.059.265-4.141.265-6.244 0-8.756-1.524-17.159-4.296-24.976h-70.631v49.951h118.634c5.747 0 10.406-4.659 10.406-10.407v-18.732c0 5.749-4.659 10.408-10.406 10.408z" fill="#f3d332"/></g></g><g><g><circle cx="164.423" cy="149.854" fill="#a2f5c3" r="49.951"/></g><g><path d="m189.374 106.587c4.244 7.343 6.685 15.859 6.685 24.951 0 27.587-22.364 49.951-49.951 49.951-9.091 0-17.608-2.441-24.951-6.685 8.634 14.94 24.77 25 43.266 25 27.587 0 49.951-22.364 49.951-49.951 0-18.495-10.061-34.631-25-43.266z" fill="#88f2a9"/></g></g><g><g><g><circle cx="164.423" cy="283.057" fill="#e175a5" r="49.951"/></g><g><path d="m189.374 239.791c4.244 7.343 6.685 15.859 6.685 24.951 0 27.587-22.364 49.951-49.951 49.951-9.091 0-17.608-2.441-24.951-6.685 8.634 14.94 24.77 25 43.266 25 27.587 0 49.951-22.364 49.951-49.951 0-18.496-10.061-34.632-25-43.266z" fill="#de5791"/></g></g></g><g><path d="m172.748 0v49.951c0 9.196 7.455 16.65 16.65 16.65h133.203c9.196 0 16.65-7.455 16.65-16.65v-49.951z" fill="#fff0af"/></g><g><path d="m172.748 0v49.951c0 9.196 7.455 16.65 16.65 16.65h133.203c9.196 0 16.65-7.455 16.65-16.65v-49.951z" fill="#fff0af"/></g><g><path d="m317.398 0v49.951c0 9.196-7.455 16.65-16.65 16.65h21.854c9.196 0 16.65-7.455 16.65-16.65v-49.951z" fill="#ffe07d"/></g><g><path d="m159.913 166.373c-1.989 0-3.897-.79-5.303-2.197l-9.019-9.019c-2.929-2.929-2.929-7.678 0-10.606 2.929-2.929 7.678-2.929 10.606 0l3.715 3.715 12.735-12.734c2.929-2.929 7.678-2.929 10.606 0 2.929 2.929 2.929 7.678 0 10.606l-18.038 18.038c-1.405 1.407-3.313 2.197-5.302 2.197z" fill="#4172ca"/></g><path d="m175.029 283.057 7.185-7.185c2.929-2.929 2.929-7.678 0-10.606-2.929-2.929-7.678-2.929-10.606 0l-7.185 7.185-7.185-7.185c-2.929-2.929-7.678-2.929-10.606 0-2.929 2.929-2.929 7.678 0 10.606l7.185 7.185-7.185 7.185c-2.929 2.929-2.929 7.678 0 10.606 1.464 1.464 3.384 2.197 5.303 2.197s3.839-.732 5.303-2.197l7.185-7.185 7.185 7.185c1.464 1.464 3.384 2.197 5.303 2.197s3.839-.732 5.303-2.197c2.929-2.929 2.929-7.678 0-10.606z" fill="#4172ca"/><g><path d="m305.951 40.801h-99.902c-4.142 0-7.5-3.358-7.5-7.5s3.358-7.5 7.5-7.5h99.902c4.143 0 7.5 3.358 7.5 7.5s-3.357 7.5-7.5 7.5z" fill="#e38523"/></g><g><g><path d="m366.309 386.297h-128c-4.142 0-7.5-3.358-7.5-7.5s3.358-7.5 7.5-7.5h128c4.143 0 7.5 3.358 7.5 7.5s-3.358 7.5-7.5 7.5z" fill="#91dafa"/></g><g><path d="m366.309 419.598h-20.812c-4.143 0-7.5-3.358-7.5-7.5s3.357-7.5 7.5-7.5h20.812c4.143 0 7.5 3.358 7.5 7.5s-3.358 7.5-7.5 7.5z" fill="#91dafa"/></g><g><path d="m203.967 386.297h-27.057c-4.142 0-7.5-3.358-7.5-7.5s3.358-7.5 7.5-7.5h27.057c4.142 0 7.5 3.358 7.5 7.5s-3.358 7.5-7.5 7.5z" fill="#91dafa"/></g><g><path d="m310.114 419.598h-164.423c-4.142 0-7.5-3.358-7.5-7.5s3.358-7.5 7.5-7.5h164.423c4.143 0 7.5 3.358 7.5 7.5s-3.357 7.5-7.5 7.5z" fill="#91dafa"/></g><g><path d="m256 452.898h-110.307c-4.142 0-7.5-3.358-7.5-7.5s3.358-7.5 7.5-7.5h110.307c4.143 0 7.5 3.358 7.5 7.5s-3.357 7.5-7.5 7.5z" fill="#91dafa"/></g></g></g></svg>