<svg id="Capa_1" enable-background="new 0 0 512 512" height="512" viewBox="0 0 512 512" width="512" xmlns="http://www.w3.org/2000/svg"><g><g><path d="m437.178 512h-362.356c-5.69 0-10.302-4.612-10.302-10.302v-491.396c0-5.69 4.613-10.302 10.302-10.302h362.356c5.69 0 10.302 4.612 10.302 10.302v491.396c0 5.69-4.613 10.302-10.302 10.302z" fill="#edf6ff"/></g><g><path d="m437.178 512h-16.755v-512h16.755c5.69 0 10.302 4.612 10.302 10.302v491.396c0 5.69-4.613 10.302-10.302 10.302z" fill="#ddebfd"/></g><g><g><g><circle cx="351.74" cy="106.146" fill="#e175a5" r="66.602"/></g><g><path d="m387.257 49.816c6.497 10.282 10.272 22.455 10.272 35.517 0 36.783-29.819 66.602-66.602 66.602-13.062 0-25.235-3.775-35.517-10.272 11.799 18.673 32.609 31.085 56.33 31.085 36.783 0 66.602-29.819 66.602-66.602-.001-23.721-12.412-44.531-31.085-56.33z" fill="#de5791"/></g></g><g><g><circle cx="160.26" cy="106.146" fill="#e69642" r="66.602"/></g><g><path d="m195.777 49.816c6.497 10.282 10.272 22.455 10.272 35.517 0 36.783-29.819 66.602-66.602 66.602-13.062 0-25.235-3.775-35.517-10.272 11.799 18.673 32.609 31.085 56.33 31.085 36.783 0 66.602-29.819 66.602-66.602 0-23.721-12.412-44.531-31.085-56.33z" fill="#e38523"/></g></g><g><path d="m194.602 305.951c8.621 0 15.61-6.989 15.61-15.61v-68.683c0-8.621-6.989-15.61-15.61-15.61h-68.683c-8.621 0-15.61 6.989-15.61 15.61v68.683c0 8.621 6.989 15.61 15.61 15.61z" fill="#a2f5c3"/></g></g><g><path d="m328.2 139.018c-1.922 0-3.843-.734-5.308-2.202-2.926-2.931-2.922-7.68.01-10.606 7.722-7.708 17.963-11.954 28.838-11.954s21.117 4.245 28.838 11.954c2.931 2.926 2.936 7.675.009 10.606s-7.675 2.935-10.606.009c-4.89-4.881-11.368-7.569-18.241-7.569s-13.351 2.688-18.241 7.57c-1.464 1.461-3.382 2.192-5.299 2.192z" fill="#4172ca"/></g><g><path d="m368.39 92.833c-4.142 0-7.5-3.358-7.5-7.5v-8.325c0-4.142 3.358-7.5 7.5-7.5s7.5 3.358 7.5 7.5v8.325c0 4.143-3.358 7.5-7.5 7.5z" fill="#4172ca"/></g><g><path d="m335.089 92.833c-4.142 0-7.5-3.358-7.5-7.5v-8.325c0-4.142 3.358-7.5 7.5-7.5s7.5 3.358 7.5 7.5v8.325c0 4.143-3.358 7.5-7.5 7.5z" fill="#4172ca"/></g><g><path d="m160.26 139.018c-10.875 0-21.117-4.245-28.838-11.954-2.931-2.926-2.936-7.675-.009-10.606 2.926-2.932 7.674-2.936 10.606-.009 4.89 4.881 11.368 7.569 18.241 7.569s13.351-2.688 18.241-7.569c2.931-2.927 7.68-2.922 10.606.01s2.922 7.68-.01 10.606c-7.721 7.707-17.963 11.953-28.837 11.953z" fill="#4172ca"/></g><g><path d="m176.911 92.833c-4.142 0-7.5-3.358-7.5-7.5v-8.325c0-4.142 3.358-7.5 7.5-7.5s7.5 3.358 7.5 7.5v8.325c0 4.143-3.358 7.5-7.5 7.5z" fill="#4172ca"/></g><g><path d="m143.61 92.833c-4.142 0-7.5-3.358-7.5-7.5v-8.325c0-4.142 3.358-7.5 7.5-7.5s7.5 3.358 7.5 7.5v8.325c0 4.143-3.358 7.5-7.5 7.5z" fill="#4172ca"/></g><g><path d="m386.082 313.451h-68.683c-12.743 0-23.11-10.367-23.11-23.11v-68.683c0-12.743 10.367-23.11 23.11-23.11h68.683c12.743 0 23.109 10.367 23.109 23.11v68.683c0 12.743-10.367 23.11-23.109 23.11zm-68.684-99.902c-4.472 0-8.11 3.638-8.11 8.11v68.683c0 4.472 3.638 8.11 8.11 8.11h68.683c4.472 0 8.109-3.638 8.109-8.11v-68.683c0-4.472-3.638-8.11-8.109-8.11z" fill="#4172ca"/></g><g><path d="m151.935 280.15c-1.919 0-3.839-.732-5.303-2.197l-16.65-16.65c-2.929-2.929-2.929-7.678 0-10.606 2.929-2.929 7.678-2.929 10.606 0l11.347 11.347 27.998-27.998c2.929-2.929 7.678-2.929 10.606 0 2.929 2.929 2.929 7.678 0 10.606l-33.301 33.301c-1.464 1.465-3.384 2.197-5.303 2.197z" fill="#edf6ff"/></g><g><g><g><path d="m226.862 346.752h-78.049c-4.142 0-7.5-3.358-7.5-7.5s3.358-7.5 7.5-7.5h78.049c4.142 0 7.5 3.358 7.5 7.5s-3.358 7.5-7.5 7.5z" fill="#e175a5"/></g><g><path d="m226.862 380.053h-24.976c-4.142 0-7.5-3.358-7.5-7.5s3.358-7.5 7.5-7.5h24.976c4.142 0 7.5 3.358 7.5 7.5s-3.358 7.5-7.5 7.5z" fill="#91dafa"/></g><g><path d="m114.472 346.752h-20.813c-4.142 0-7.5-3.358-7.5-7.5s3.358-7.5 7.5-7.5h20.813c4.142 0 7.5 3.358 7.5 7.5s-3.358 7.5-7.5 7.5z" fill="#e175a5"/></g><g><path d="m166.504 380.053h-72.845c-4.142 0-7.5-3.358-7.5-7.5s3.358-7.5 7.5-7.5h72.845c4.142 0 7.5 3.358 7.5 7.5s-3.358 7.5-7.5 7.5z" fill="#91dafa"/></g><g><path d="m226.864 413.354h-133.203c-4.142 0-7.5-3.358-7.5-7.5s3.358-7.5 7.5-7.5h133.203c4.142 0 7.5 3.358 7.5 7.5s-3.358 7.5-7.5 7.5z" fill="#91dafa"/></g></g><g><path d="m114.472 446.654h-20.813c-4.142 0-7.5-3.358-7.5-7.5s3.358-7.5 7.5-7.5h20.813c4.142 0 7.5 3.358 7.5 7.5s-3.358 7.5-7.5 7.5z" fill="#91dafa"/></g><g><path d="m226.862 446.654h-77.008c-4.142 0-7.5-3.358-7.5-7.5s3.358-7.5 7.5-7.5h77.008c4.142 0 7.5 3.358 7.5 7.5s-3.358 7.5-7.5 7.5z" fill="#91dafa"/></g><g><path d="m197.726 479.955h-104.065c-4.142 0-7.5-3.358-7.5-7.5s3.358-7.5 7.5-7.5h104.065c4.142 0 7.5 3.358 7.5 7.5s-3.358 7.5-7.5 7.5z" fill="#f7e365"/></g></g><g><g><g><path d="m418.34 346.752h-78.049c-4.142 0-7.5-3.358-7.5-7.5s3.358-7.5 7.5-7.5h78.049c4.142 0 7.5 3.358 7.5 7.5s-3.358 7.5-7.5 7.5z" fill="#e175a5"/></g><g><path d="m418.34 380.053h-24.976c-4.142 0-7.5-3.358-7.5-7.5s3.358-7.5 7.5-7.5h24.976c4.142 0 7.5 3.358 7.5 7.5s-3.358 7.5-7.5 7.5z" fill="#91dafa"/></g><g><path d="m305.95 346.752h-20.813c-4.142 0-7.5-3.358-7.5-7.5s3.358-7.5 7.5-7.5h20.813c4.142 0 7.5 3.358 7.5 7.5s-3.358 7.5-7.5 7.5z" fill="#e175a5"/></g><g><path d="m357.982 380.053h-72.845c-4.142 0-7.5-3.358-7.5-7.5s3.358-7.5 7.5-7.5h72.845c4.142 0 7.5 3.358 7.5 7.5s-3.357 7.5-7.5 7.5z" fill="#91dafa"/></g><g><path d="m418.343 413.354h-133.203c-4.142 0-7.5-3.358-7.5-7.5s3.358-7.5 7.5-7.5h133.203c4.142 0 7.5 3.358 7.5 7.5s-3.358 7.5-7.5 7.5z" fill="#91dafa"/></g></g><g><path d="m305.95 446.654h-20.813c-4.142 0-7.5-3.358-7.5-7.5s3.358-7.5 7.5-7.5h20.813c4.142 0 7.5 3.358 7.5 7.5s-3.358 7.5-7.5 7.5z" fill="#91dafa"/></g><g><path d="m418.34 446.654h-77.008c-4.142 0-7.5-3.358-7.5-7.5s3.358-7.5 7.5-7.5h77.008c4.142 0 7.5 3.358 7.5 7.5s-3.358 7.5-7.5 7.5z" fill="#91dafa"/></g><g><path d="m389.205 479.955h-104.065c-4.142 0-7.5-3.358-7.5-7.5s3.358-7.5 7.5-7.5h104.065c4.142 0 7.5 3.358 7.5 7.5s-3.358 7.5-7.5 7.5z" fill="#f7e365"/></g></g></g></svg>