<svg id="Capa_1" enable-background="new 0 0 512 512" height="512" viewBox="0 0 512 512" width="512" xmlns="http://www.w3.org/2000/svg"><g><g><path d="m447.48 66.602h-382.96v424.585c0 11.495 9.318 20.813 20.813 20.813h341.333c11.495 0 20.813-9.318 20.813-20.813v-424.585z" fill="#edf6ff"/></g><g><path d="m419.382 66.602v424.585c0 11.495-9.318 20.813-20.813 20.813h28.098c11.495 0 20.813-9.318 20.813-20.813v-424.585z" fill="#ddebfd"/></g><g><path d="m426.667 0h-341.334c-11.494 0-20.813 9.318-20.813 20.813v45.789h382.96v-45.789c0-11.495-9.319-20.813-20.813-20.813z" fill="#4172ca"/></g><g><path d="m426.667 0h-28.098c11.495 0 20.813 9.318 20.813 20.813v45.789h28.098v-45.789c0-11.495-9.319-20.813-20.813-20.813z" fill="#3a67c1"/></g><g><g><circle cx="256" cy="384.52" fill="#f7e365" r="127.48"/></g><g><path d="m327.982 279.302c14.041 20.484 22.262 45.272 22.262 71.982 0 70.405-57.075 127.48-127.48 127.48-26.71 0-51.498-8.221-71.982-22.262 22.969 33.51 61.523 55.498 105.218 55.498 70.405 0 127.48-57.075 127.48-127.48 0-43.694-21.988-82.249-55.498-105.218z" fill="#f3d332"/></g><g><circle cx="256" cy="384.52" fill="#dbb72b" r="94.179"/></g><g><path d="m304.427 366.214-38.126-38.126c-5.69-5.69-14.914-5.69-20.604 0l-38.126 38.126c-6.34 6.34-6.923 16.666-.888 23.297 6.443 7.08 17.412 7.274 24.103.583l8.562-8.562v46.747c0 8.966 6.89 16.68 15.845 17.102 9.562.45 17.455-7.169 17.455-16.631v-47.217l8.562 8.562c6.691 6.691 17.66 6.497 24.103-.583 6.037-6.632 5.454-16.959-.886-23.298z" fill="#edf6ff"/></g></g><g><g><g><g><circle cx="114.472" cy="130.081" fill="#a2f5c3" r="16.65"/></g></g></g><g><g><g><circle cx="114.472" cy="196.683" fill="#688ed5" r="16.65"/></g></g></g><g><g><g><circle cx="293.463" cy="196.683" fill="#a2f5c3" r="16.65"/></g></g></g><g><g><g><circle cx="293.463" cy="130.081" fill="#688ed5" r="16.65"/></g></g></g></g><g><path d="m235.187 154.231h-70.764c-4.142 0-7.5-3.357-7.5-7.5s3.358-7.5 7.5-7.5h70.764c4.142 0 7.5 3.357 7.5 7.5s-3.358 7.5-7.5 7.5z" fill="#91dafa"/></g><g><path d="m174.829 120.931h-10.406c-4.142 0-7.5-3.357-7.5-7.5s3.358-7.5 7.5-7.5h10.406c4.142 0 7.5 3.357 7.5 7.5s-3.358 7.5-7.5 7.5z" fill="#e175a5"/></g><g><path d="m235.187 120.931h-27.057c-4.142 0-7.5-3.357-7.5-7.5s3.358-7.5 7.5-7.5h27.057c4.142 0 7.5 3.357 7.5 7.5s-3.358 7.5-7.5 7.5z" fill="#e175a5"/></g><g><path d="m235.187 220.833h-70.764c-4.142 0-7.5-3.357-7.5-7.5s3.358-7.5 7.5-7.5h70.764c4.142 0 7.5 3.357 7.5 7.5s-3.358 7.5-7.5 7.5z" fill="#91dafa"/></g><g><path d="m174.829 187.532h-10.406c-4.142 0-7.5-3.357-7.5-7.5s3.358-7.5 7.5-7.5h10.406c4.142 0 7.5 3.357 7.5 7.5s-3.358 7.5-7.5 7.5z" fill="#e175a5"/></g><g><path d="m235.187 187.532h-27.057c-4.142 0-7.5-3.357-7.5-7.5s3.358-7.5 7.5-7.5h27.057c4.142 0 7.5 3.357 7.5 7.5s-3.358 7.5-7.5 7.5z" fill="#e175a5"/></g><g><path d="m414.179 220.833h-70.764c-4.142 0-7.5-3.357-7.5-7.5s3.358-7.5 7.5-7.5h70.764c4.142 0 7.5 3.357 7.5 7.5s-3.358 7.5-7.5 7.5z" fill="#91dafa"/></g><g><path d="m353.821 187.532h-10.407c-4.142 0-7.5-3.357-7.5-7.5s3.358-7.5 7.5-7.5h10.407c4.142 0 7.5 3.357 7.5 7.5s-3.358 7.5-7.5 7.5z" fill="#e175a5"/></g><g><path d="m414.179 187.532h-27.057c-4.142 0-7.5-3.357-7.5-7.5s3.358-7.5 7.5-7.5h27.057c4.142 0 7.5 3.357 7.5 7.5s-3.358 7.5-7.5 7.5z" fill="#e175a5"/></g><g><path d="m414.179 154.231h-70.764c-4.142 0-7.5-3.357-7.5-7.5s3.358-7.5 7.5-7.5h70.764c4.142 0 7.5 3.357 7.5 7.5s-3.358 7.5-7.5 7.5z" fill="#91dafa"/></g><g><path d="m353.821 120.931h-10.407c-4.142 0-7.5-3.357-7.5-7.5s3.358-7.5 7.5-7.5h10.407c4.142 0 7.5 3.357 7.5 7.5s-3.358 7.5-7.5 7.5z" fill="#e175a5"/></g><g><path d="m414.179 120.931h-27.057c-4.142 0-7.5-3.357-7.5-7.5s3.358-7.5 7.5-7.5h27.057c4.142 0 7.5 3.357 7.5 7.5s-3.358 7.5-7.5 7.5z" fill="#e175a5"/></g><g><circle cx="391.285" cy="33.301" fill="#a2f5c3" r="8.325"/></g><g><circle cx="357.984" cy="33.301" fill="#f7e365" r="8.325"/></g><g><circle cx="324.683" cy="33.301" fill="#e175a5" r="8.325"/></g></g></svg>