<svg id="Capa_1" enable-background="new 0 0 512 512" height="512" viewBox="0 0 512 512" width="512" xmlns="http://www.w3.org/2000/svg"><g><g><g><circle cx="256" cy="162.341" fill="#f7e365" r="66.602"/></g><g><path d="m291.517 106.011c6.497 10.282 10.272 22.455 10.272 35.517 0 36.783-29.819 66.602-66.602 66.602-13.062 0-25.235-3.775-35.517-10.272 11.799 18.673 32.609 31.085 56.33 31.085 36.783 0 66.602-29.819 66.602-66.602 0-23.721-12.412-44.531-31.085-56.33z" fill="#f3d332"/></g></g><g><g><circle cx="66.602" cy="162.341" fill="#e175a5" r="66.602"/></g><g><path d="m102.119 106.011c6.497 10.282 10.272 22.455 10.272 35.517 0 36.783-29.819 66.602-66.602 66.602-13.062 0-25.235-3.775-35.517-10.272 11.799 18.673 32.609 31.085 56.33 31.085 36.783 0 66.602-29.819 66.602-66.602-.001-23.721-12.412-44.531-31.085-56.33z" fill="#de5791"/></g></g><g><g><circle cx="445.398" cy="162.341" fill="#a2f5c3" r="66.602"/></g><g><path d="m480.915 106.011c6.497 10.282 10.272 22.455 10.272 35.517 0 36.783-29.819 66.602-66.602 66.602-13.062 0-25.235-3.775-35.517-10.272 11.799 18.673 32.609 31.085 56.33 31.085 36.783 0 66.602-29.819 66.602-66.602 0-23.721-12.412-44.531-31.085-56.33z" fill="#88f2a9"/></g></g><g><path d="m495.35 295.545h-133.204v-33.301h133.204c9.196 0 16.65 7.455 16.65 16.65 0 9.196-7.455 16.651-16.65 16.651z" fill="#4172ca"/></g><g><path d="m362.146 295.545h-345.496c-9.196 0-16.65-7.455-16.65-16.65 0-9.196 7.455-16.65 16.65-16.65h345.496c9.196 0 16.65 7.455 16.65 16.65.001 9.195-7.454 16.65-16.65 16.65z" fill="#e69642"/></g><g><path d="m273.691 195.212h-35.383c-4.143 0-7.5-3.358-7.5-7.5s3.357-7.5 7.5-7.5h35.383c4.143 0 7.5 3.358 7.5 7.5s-3.357 7.5-7.5 7.5z" fill="#4172ca"/></g><g><path d="m272.65 149.028c-4.143 0-7.5-3.358-7.5-7.5v-8.325c0-4.142 3.357-7.5 7.5-7.5s7.5 3.358 7.5 7.5v8.325c0 4.142-3.357 7.5-7.5 7.5z" fill="#4172ca"/></g><g><path d="m239.35 149.028c-4.143 0-7.5-3.358-7.5-7.5v-8.325c0-4.142 3.357-7.5 7.5-7.5s7.5 3.358 7.5 7.5v8.325c0 4.142-3.358 7.5-7.5 7.5z" fill="#4172ca"/></g><g><path d="m43.062 195.212c-1.922 0-3.843-.734-5.308-2.201-2.927-2.931-2.923-7.68.009-10.606 7.721-7.708 17.962-11.954 28.838-11.954 10.875 0 21.117 4.245 28.839 11.953 2.932 2.926 2.936 7.675.009 10.606-2.927 2.932-7.674 2.936-10.606.01-4.89-4.881-11.368-7.569-18.241-7.569-6.874 0-13.352 2.688-18.24 7.569-1.465 1.461-3.383 2.192-5.3 2.192z" fill="#4172ca"/></g><g><path d="m83.252 149.028c-4.143 0-7.5-3.358-7.5-7.5v-8.325c0-4.142 3.357-7.5 7.5-7.5s7.5 3.358 7.5 7.5v8.325c0 4.142-3.357 7.5-7.5 7.5z" fill="#4172ca"/></g><g><path d="m49.951 149.028c-4.143 0-7.5-3.358-7.5-7.5v-8.325c0-4.142 3.357-7.5 7.5-7.5s7.5 3.358 7.5 7.5v8.325c0 4.142-3.357 7.5-7.5 7.5z" fill="#4172ca"/></g><g><path d="m445.398 195.212c-10.875 0-21.117-4.245-28.839-11.953-2.932-2.926-2.936-7.675-.009-10.606 2.926-2.932 7.673-2.937 10.606-.01 4.89 4.881 11.368 7.569 18.241 7.569 6.874 0 13.352-2.688 18.24-7.569 2.932-2.927 7.681-2.922 10.606.009 2.927 2.931 2.923 7.68-.009 10.606-7.718 7.709-17.96 11.954-28.836 11.954z" fill="#4172ca"/></g><g><path d="m462.049 149.028c-4.143 0-7.5-3.358-7.5-7.5v-8.325c0-4.142 3.357-7.5 7.5-7.5s7.5 3.358 7.5 7.5v8.325c0 4.142-3.358 7.5-7.5 7.5z" fill="#4172ca"/></g><g><path d="m428.748 149.028c-4.143 0-7.5-3.358-7.5-7.5v-8.325c0-4.142 3.357-7.5 7.5-7.5s7.5 3.358 7.5 7.5v8.325c0 4.142-3.357 7.5-7.5 7.5z" fill="#4172ca"/></g><g><path d="m370.472 390.459c-4.143 0-7.5-3.358-7.5-7.5v-54.114c0-4.142 3.357-7.5 7.5-7.5s7.5 3.358 7.5 7.5v54.114c0 4.143-3.358 7.5-7.5 7.5z" fill="#9ec8fc"/></g><g><g><circle cx="370.472" cy="382.959" fill="#bed9fd" r="33.301"/></g></g></g></svg>