<svg id="Capa_1" enable-background="new 0 0 512 512" height="512" viewBox="0 0 512 512" width="512" xmlns="http://www.w3.org/2000/svg"><g><path d="m447.48 66.602h-382.96v424.585c0 11.495 9.318 20.813 20.813 20.813h341.333c11.495 0 20.813-9.318 20.813-20.813v-424.585z" fill="#edf6ff"/><path d="m419.382 66.602v424.585c0 11.495-9.318 20.813-20.813 20.813h28.098c11.495 0 20.813-9.318 20.813-20.813v-424.585z" fill="#ddebfd"/><path d="m426.667 0h-341.334c-11.494 0-20.813 9.318-20.813 20.813v45.789h382.96v-45.789c0-11.495-9.319-20.813-20.813-20.813z" fill="#4172ca"/><path d="m426.667 0h-28.098c11.495 0 20.813 9.318 20.813 20.813v45.789h28.098v-45.789c0-11.495-9.319-20.813-20.813-20.813z" fill="#3a67c1"/><g><g><circle cx="256" cy="247.675" fill="#e175a5" r="145.691"/><path d="m338.265 127.426c16.047 23.411 25.442 51.739 25.442 82.265 0 80.463-65.228 145.691-145.691 145.691-30.526 0-58.855-9.395-82.265-25.442 26.25 38.297 70.312 63.426 120.249 63.426 80.463 0 145.691-65.228 145.691-145.691 0-49.937-25.129-93.999-63.426-120.249z" fill="#de5791"/><g fill="#da0b62"><ellipse cx="317.398" cy="213.333" rx="24.976" ry="33.301"/><ellipse cx="194.602" cy="213.333" rx="24.976" ry="33.301"/></g></g><g><path d="m189.398 466.211v-29.138c0-5.747 4.659-10.407 10.406-10.407h112.39c5.747 0 10.406 4.659 10.406 10.407v29.138c0 5.747-4.659 10.406-10.406 10.406h-112.39c-5.746.001-10.406-4.658-10.406-10.406z" fill="#88f2a9"/><path d="m312.195 426.667h-23.935c5.747 0 10.406 4.659 10.406 10.407v29.138c0 5.747-4.659 10.406-10.406 10.406h23.935c5.747 0 10.406-4.659 10.406-10.406v-29.138c.001-5.748-4.658-10.407-10.406-10.407z" fill="#80e29e"/></g></g><path d="m330.265 313.026c-1.544-3.33-5.157-5.038-8.6-4.31-13.624-23.025-38.64-37.548-65.664-37.548s-52.041 14.523-65.664 37.548c-3.446-.729-7.059.978-8.6 4.31-1.793 3.872-.108 8.465 3.765 10.258l11.421 5.289c1.051.487 2.155.717 3.241.717 2.917 0 5.71-1.661 7.016-4.482 1.614-3.487.402-7.551-2.682-9.636 11.037-17.553 30.511-28.551 51.504-28.551s40.466 10.999 51.504 28.551c-3.083 2.085-4.296 6.149-2.682 9.636 1.307 2.821 4.099 4.482 7.016 4.482 1.087 0 2.191-.23 3.241-.717l11.421-5.289c3.87-1.793 5.555-6.386 3.763-10.258z" fill="#da0b62"/><circle cx="391.285" cy="33.301" fill="#a2f5c3" r="8.325"/><circle cx="357.984" cy="33.301" fill="#f7e365" r="8.325"/><circle cx="324.683" cy="33.301" fill="#e175a5" r="8.325"/></g></svg>