<svg id="Capa_1" enable-background="new 0 0 512 512" height="512" viewBox="0 0 512 512" width="512" xmlns="http://www.w3.org/2000/svg"><g><path d="m289.301 478.378h-66.602v-228.705c0-5.69 4.612-10.302 10.302-10.302h45.998c5.69 0 10.302 4.612 10.302 10.302z" fill="#f7e365"/><path d="m455.805 478.378h-66.602v-301.446c0-5.69 4.612-10.302 10.302-10.302h45.998c5.69 0 10.302 4.612 10.302 10.302z" fill="#a2f5c3"/><path d="m122.797 478.378h-66.602v-147.65c0-5.69 4.612-10.302 10.302-10.302h45.998c5.69 0 10.302 4.612 10.302 10.302z" fill="#e175a5"/><path d="m289.301 478.378h-24.976v-239.007h14.674c5.69 0 10.302 4.612 10.302 10.302z" fill="#f3d332"/><path d="m455.805 478.378h-24.976v-311.748h14.674c5.69 0 10.302 4.612 10.302 10.302z" fill="#88f2a9"/><path d="m122.797 478.378h-24.976v-157.952h14.674c5.69 0 10.302 4.612 10.302 10.302z" fill="#de5791"/><g><path d="m156.093 220.663c0 16.359-5.913 31.328-15.721 42.907h-101.751c-9.818-11.579-15.731-26.548-15.731-42.907 0-36.726 29.824-66.498 66.601-66.498 36.789-.001 66.602 29.772 66.602 66.498z" fill="#e175a5"/><g fill="#ddebfd"><path d="m89.496 287.173c20.407 0 38.66-9.174 50.877-23.607-11.328-15.884-29.904-26.273-50.877-26.273s-39.548 10.389-50.877 26.273c12.217 14.432 30.47 23.607 50.877 23.607z"/><ellipse cx="89.496" cy="212.353" rx="24.976" ry="24.94"/></g></g><g><path d="m489.109 66.867c0 16.359-5.913 31.328-15.731 42.907h-101.75c-9.807-11.579-15.721-26.548-15.721-42.907 0-36.726 29.813-66.498 66.601-66.498 36.778 0 66.601 29.772 66.601 66.498z" fill="#a2f5c3"/><g fill="#ddebfd"><path d="m422.504 133.377c-20.407 0-38.66-9.174-50.877-23.607 11.328-15.884 29.904-26.273 50.877-26.273s39.548 10.389 50.877 26.273c-12.217 14.433-30.47 23.607-50.877 23.607z"/><ellipse cx="422.504" cy="58.557" rx="24.976" ry="24.94"/></g></g><g><path d="m322.601 139.608c0 16.359-5.903 31.328-15.721 42.907h-101.761c-9.818-11.579-15.721-26.548-15.721-42.907 0-36.726 29.813-66.498 66.601-66.498 36.789 0 66.602 29.772 66.602 66.498z" fill="#f7e365"/><g fill="#ddebfd"><path d="m256 206.118c20.407 0 38.66-9.174 50.877-23.607-11.328-15.884-29.904-26.273-50.877-26.273s-39.548 10.389-50.877 26.273c12.217 14.433 30.47 23.607 50.877 23.607z"/><ellipse cx="256" cy="131.298" rx="24.976" ry="24.94"/></g></g><path d="m503.759 511.631h-495.518c-4.552 0-8.241-3.69-8.241-8.241v-16.77c0-4.552 3.69-8.241 8.241-8.241h495.517c4.552 0 8.241 3.69 8.241 8.241v16.77c.001 4.552-3.689 8.241-8.24 8.241z" fill="#4172ca"/><path d="m503.759 511.631h-16.734v-33.253h16.734c4.552 0 8.241 3.69 8.241 8.241v16.77c0 4.553-3.69 8.242-8.241 8.242z" fill="#3a67c1"/></g></svg>