<svg id="Capa_1" enable-background="new 0 0 512 512" height="512" viewBox="0 0 512 512" width="512" xmlns="http://www.w3.org/2000/svg"><g><g><path d="m447.48 66.602h-382.96v424.585c0 11.495 9.318 20.813 20.813 20.813h341.333c11.495 0 20.813-9.318 20.813-20.813v-424.585z" fill="#edf6ff"/></g><g><path d="m419.382 66.602v424.585c0 11.495-9.318 20.813-20.813 20.813h28.098c11.495 0 20.813-9.318 20.813-20.813v-424.585z" fill="#ddebfd"/></g><g><path d="m426.667 0h-341.334c-11.494 0-20.813 9.318-20.813 20.813v45.789h382.96v-45.789c0-11.495-9.319-20.813-20.813-20.813z" fill="#4172ca"/></g><g><path d="m426.667 0h-28.098c11.495 0 20.813 9.318 20.813 20.813v45.789h28.098v-45.789c0-11.495-9.319-20.813-20.813-20.813z" fill="#3a67c1"/></g><g><g><g><g><circle cx="147.772" cy="156.098" fill="#a2f5c3" r="49.951"/></g><g><path d="m172.723 112.831c4.244 7.343 6.685 15.859 6.685 24.951 0 27.587-22.364 49.951-49.951 49.951-9.091 0-17.608-2.441-24.951-6.685 8.634 14.94 24.77 25 43.266 25 27.587 0 49.951-22.364 49.951-49.951.001-18.495-10.06-34.631-25-43.266z" fill="#88f2a9"/></g></g></g><g><g><g><circle cx="147.772" cy="289.301" fill="#a2f5c3" r="49.951"/></g><g><path d="m172.723 246.035c4.244 7.343 6.685 15.859 6.685 24.951 0 27.587-22.364 49.951-49.951 49.951-9.091 0-17.608-2.441-24.951-6.685 8.634 14.94 24.77 25 43.266 25 27.587 0 49.951-22.364 49.951-49.951.001-18.496-10.06-34.632-25-43.266z" fill="#88f2a9"/></g></g></g><g><g><g><circle cx="147.772" cy="422.504" fill="#e175a5" r="49.951"/></g><g><path d="m172.723 379.238c4.244 7.343 6.685 15.859 6.685 24.951 0 27.587-22.364 49.951-49.951 49.951-9.091 0-17.608-2.441-24.951-6.685 8.634 14.94 24.77 25 43.266 25 27.587 0 49.951-22.364 49.951-49.951.001-18.496-10.06-34.632-25-43.266z" fill="#de5791"/></g></g></g></g><g><path d="m143.263 172.617c-1.989 0-3.896-.79-5.304-2.197l-9.019-9.019c-2.929-2.929-2.929-7.678.001-10.606 2.929-2.929 7.678-2.929 10.606 0l3.715 3.715 12.734-12.734c2.93-2.929 7.678-2.929 10.607 0s2.929 7.678 0 10.606l-18.038 18.038c-1.406 1.407-3.313 2.197-5.302 2.197z" fill="#4172ca"/></g><g><g><path d="m414.179 130.297h-90.536c-4.143 0-7.5-3.358-7.5-7.5s3.357-7.5 7.5-7.5h90.536c4.143 0 7.5 3.358 7.5 7.5s-3.358 7.5-7.5 7.5z" fill="#e175a5"/></g><g><path d="m414.179 163.598h-20.812c-4.143 0-7.5-3.358-7.5-7.5s3.357-7.5 7.5-7.5h20.812c4.143 0 7.5 3.358 7.5 7.5s-3.358 7.5-7.5 7.5z" fill="#91dafa"/></g><g><path d="m289.301 130.297h-27.057c-4.143 0-7.5-3.358-7.5-7.5s3.357-7.5 7.5-7.5h27.057c4.143 0 7.5 3.358 7.5 7.5s-3.358 7.5-7.5 7.5z" fill="#e175a5"/></g><g><path d="m357.983 163.598h-126.959c-4.143 0-7.5-3.358-7.5-7.5s3.357-7.5 7.5-7.5h126.959c4.143 0 7.5 3.358 7.5 7.5s-3.357 7.5-7.5 7.5z" fill="#91dafa"/></g><g><path d="m335.092 196.898h-104.066c-4.143 0-7.5-3.358-7.5-7.5s3.357-7.5 7.5-7.5h104.065c4.143 0 7.5 3.358 7.5 7.5s-3.357 7.5-7.499 7.5z" fill="#91dafa"/></g></g><g><path d="m143.263 305.82c-1.989 0-3.896-.79-5.304-2.197l-9.019-9.019c-2.929-2.929-2.929-7.678.001-10.606 2.929-2.93 7.678-2.929 10.606 0l3.715 3.715 12.734-12.734c2.93-2.929 7.678-2.929 10.607 0s2.929 7.678 0 10.606l-18.038 18.038c-1.406 1.407-3.313 2.197-5.302 2.197z" fill="#4172ca"/></g><g><g><path d="m414.179 263.5h-90.536c-4.143 0-7.5-3.358-7.5-7.5s3.357-7.5 7.5-7.5h90.536c4.143 0 7.5 3.358 7.5 7.5s-3.358 7.5-7.5 7.5z" fill="#e175a5"/></g><g><path d="m414.179 296.801h-20.812c-4.143 0-7.5-3.358-7.5-7.5s3.357-7.5 7.5-7.5h20.812c4.143 0 7.5 3.358 7.5 7.5s-3.358 7.5-7.5 7.5z" fill="#91dafa"/></g><g><path d="m289.301 263.5h-27.057c-4.143 0-7.5-3.358-7.5-7.5s3.357-7.5 7.5-7.5h27.057c4.143 0 7.5 3.358 7.5 7.5s-3.358 7.5-7.5 7.5z" fill="#e175a5"/></g><g><path d="m357.983 296.801h-126.959c-4.143 0-7.5-3.358-7.5-7.5s3.357-7.5 7.5-7.5h126.959c4.143 0 7.5 3.358 7.5 7.5s-3.357 7.5-7.5 7.5z" fill="#91dafa"/></g><g><path d="m335.092 330.102h-104.066c-4.143 0-7.5-3.358-7.5-7.5s3.357-7.5 7.5-7.5h104.065c4.143 0 7.5 3.358 7.5 7.5s-3.357 7.5-7.499 7.5z" fill="#91dafa"/></g></g><path d="m158.379 422.504 7.185-7.185c2.929-2.929 2.929-7.678 0-10.606-2.93-2.929-7.678-2.929-10.607 0l-7.184 7.184-7.184-7.184c-2.93-2.929-7.678-2.929-10.607 0s-2.929 7.678 0 10.606l7.185 7.185-7.185 7.185c-2.929 2.929-2.929 7.678 0 10.606 1.465 1.464 3.385 2.197 5.304 2.197s3.839-.732 5.304-2.197l7.184-7.184 7.184 7.184c1.465 1.464 3.385 2.197 5.304 2.197s3.839-.732 5.304-2.197c2.929-2.929 2.929-7.678 0-10.606z" fill="#4172ca"/><g><g><path d="m414.179 396.703h-90.536c-4.143 0-7.5-3.358-7.5-7.5s3.357-7.5 7.5-7.5h90.536c4.143 0 7.5 3.358 7.5 7.5s-3.358 7.5-7.5 7.5z" fill="#e175a5"/></g><g><path d="m414.179 430.004h-20.812c-4.143 0-7.5-3.358-7.5-7.5s3.357-7.5 7.5-7.5h20.812c4.143 0 7.5 3.358 7.5 7.5s-3.358 7.5-7.5 7.5z" fill="#91dafa"/></g><g><path d="m289.301 396.703h-27.057c-4.143 0-7.5-3.358-7.5-7.5s3.357-7.5 7.5-7.5h27.057c4.143 0 7.5 3.358 7.5 7.5s-3.358 7.5-7.5 7.5z" fill="#e175a5"/></g><g><path d="m357.983 430.004h-126.959c-4.143 0-7.5-3.358-7.5-7.5s3.357-7.5 7.5-7.5h126.959c4.143 0 7.5 3.358 7.5 7.5s-3.357 7.5-7.5 7.5z" fill="#91dafa"/></g><g><path d="m335.092 463.305h-104.066c-4.143 0-7.5-3.358-7.5-7.5s3.357-7.5 7.5-7.5h104.065c4.143 0 7.5 3.358 7.5 7.5s-3.357 7.5-7.499 7.5z" fill="#91dafa"/></g></g><g><circle cx="391.285" cy="33.301" fill="#a2f5c3" r="8.325"/></g><g><circle cx="357.984" cy="33.301" fill="#f7e365" r="8.325"/></g><g><circle cx="324.683" cy="33.301" fill="#e175a5" r="8.325"/></g></g></svg>