<svg id="Capa_1" enable-background="new 0 0 512 512" height="512" viewBox="0 0 512 512" width="512" xmlns="http://www.w3.org/2000/svg"><g><path d="m272.734 512h-33.468c-4.552 0-8.241-3.69-8.241-8.241v-81.254h49.951v81.254c0 4.551-3.69 8.241-8.242 8.241z" fill="#ddebfd"/><path d="m289.301 422.504h-66.602c-5.747 0-10.407-4.659-10.407-10.406v-39.545h87.415v39.545c0 5.747-4.659 10.406-10.406 10.406z" fill="#4172ca"/><path d="m212.293 403.499c14.121 2.907 28.739 4.436 43.707 4.436 14.969 0 29.586-1.529 43.707-4.436v-30.946h-87.415v30.946z" fill="#3a67c1"/><circle cx="256" cy="191.48" fill="#a2f5c3" r="191.48"/><path d="m376.613 42.769c26.737 32.925 42.769 74.894 42.769 120.613 0 105.751-85.728 191.48-191.48 191.48-45.719 0-87.688-16.033-120.613-42.769 35.108 43.233 88.678 70.867 148.71 70.867 105.751 0 191.48-85.728 191.48-191.48.001-60.033-27.633-113.603-70.866-148.711z" fill="#88f2a9"/><circle cx="256" cy="191.48" fill="#77d192" r="158.179"/><g><path d="m234.031 270.492c-7.103 0-14.204-2.709-19.623-8.128l-43.939-43.939c-10.837-10.838-10.837-28.408 0-39.245 10.838-10.838 28.408-10.838 39.245 0l24.316 24.316 68.255-68.254c10.837-10.837 28.408-10.837 39.245 0 10.837 10.838 10.837 28.408 0 39.245l-87.877 87.877c-5.418 5.418-12.521 8.128-19.622 8.128z" fill="#edf6ff"/></g></g></svg>