<svg id="Capa_1" enable-background="new 0 0 512 512" height="512" viewBox="0 0 512 512" width="512" xmlns="http://www.w3.org/2000/svg"><g><g><g><path d="m191.007 456.135c3.47-7.2 10.757-11.777 18.749-11.777h35.725c7.189 0 13.868-3.71 17.668-9.812l20.719-33.275c4.531-7.277 13.06-11.032 21.487-9.459l54.145 10.107c6.271 1.17 11.658 5.152 14.618 10.802l16.275 31.07h.001c20.185-27.549 32.114-61.528 32.114-98.3 0-66.838-39.384-124.477-96.208-150.973-.01 0-.01.01-.01.01l-57.567 75.914c-8.138 10.724-20.253 17.719-33.605 19.388l-15.463 1.927c-13.969 1.751-26.548 9.313-34.655 20.82l-17.884 25.425c-5.82 8.272-8.993 18.11-9.096 28.227l-.175 17.039c-.165 16.411-8.386 31.688-21.984 40.878l-18.986 12.826c-.01 0-.01 0-.021 0 14.591 22.154 34.341 40.601 57.526 53.666z" fill="#4172ca"/><path d="m174.377 490.642c24.12 13.593 51.963 21.358 81.623 21.358 55.189 0 104.098-26.858 134.393-68.209l-16.275-31.07c-2.96-5.65-8.347-9.632-14.618-10.802l-54.145-10.107c-8.427-1.573-16.956 2.182-21.487 9.459l-20.719 33.275c-3.8 6.102-10.479 9.812-17.668 9.812h-35.726c-7.993 0-15.279 4.577-18.749 11.777z" fill="#a2f5c3"/><path d="m256 512c55.189 0 104.098-26.858 134.393-68.209l-16.275-31.07c-2.96-5.65-8.347-9.632-14.618-10.802l-1.507-.281c-29.875 44.586-80.716 73.94-138.416 73.94-12.38 0-24.442-1.357-36.05-3.922l-9.148 18.982c-.002.001-.003.002-.005.003 24.121 13.594 51.965 21.359 81.626 21.359z" fill="#88f2a9"/><path d="m256 178.992c-91.958 0-166.504 74.546-166.504 166.504 0 33.792 10.076 65.225 27.374 91.48l18.991-12.832c13.597-9.187 21.814-24.466 21.983-40.875l.175-17.039c.104-10.115 3.277-19.96 9.098-28.232l17.885-25.416c8.102-11.513 20.686-19.073 34.655-20.819l15.456-1.932c13.356-1.669 25.473-8.658 33.605-19.383l57.573-75.921c-21.356-9.962-45.171-15.535-70.291-15.535z" fill="#a2f5c3"/></g><path d="m491.187 0c11.495 0 20.813 9.318 20.813 20.813v141.528c0 11.495-9.318 20.813-20.813 20.813h-195.254c-2.899 0-5.664 1.221-7.616 3.365l-24.701 27.119c-4.086 4.486-11.146 4.486-15.232 0l-24.701-27.119c-1.952-2.143-4.717-3.365-7.616-3.365h-195.254c-11.495 0-20.813-9.318-20.813-20.813v-141.528c0-11.495 9.318-20.813 20.813-20.813z" fill="#edf6ff"/><path d="m491.187 0h-34.341c11.495 0 20.813 9.318 20.813 20.813v141.528c0 11.495-9.318 20.813-20.813 20.813h34.341c11.495 0 20.813-9.318 20.813-20.813v-141.528c0-11.495-9.318-20.813-20.813-20.813z" fill="#ddebfd"/><g fill="#f7e365"><path d="m61.465 114.232-11.303 5.942c-3.548 1.866-7.696-1.148-7.018-5.099l2.159-12.586c.269-1.569-.251-3.17-1.391-4.281l-9.144-8.914c-2.871-2.798-1.287-7.674 2.681-8.25l12.637-1.836c1.575-.229 2.937-1.218 3.642-2.646l5.652-11.451c1.774-3.595 6.901-3.595 8.675 0l5.652 11.451c.705 1.428 2.066 2.417 3.642 2.646l12.637 1.836c3.967.576 5.551 5.452 2.681 8.25l-9.144 8.914c-1.14 1.111-1.66 2.712-1.391 4.281l2.159 12.586c.678 3.951-3.47 6.964-7.018 5.099l-11.303-5.942c-1.413-.741-3.096-.741-4.505 0z"/><path d="m157.607 114.232-11.303 5.942c-3.548 1.866-7.696-1.148-7.018-5.099l2.159-12.586c.269-1.569-.251-3.17-1.391-4.281l-9.144-8.914c-2.871-2.798-1.287-7.674 2.681-8.25l12.637-1.836c1.575-.229 2.937-1.218 3.642-2.646l5.652-11.451c1.774-3.595 6.901-3.595 8.675 0l5.652 11.451c.705 1.428 2.066 2.417 3.642 2.646l12.637 1.836c3.967.576 5.551 5.452 2.681 8.25l-9.144 8.914c-1.14 1.111-1.66 2.712-1.391 4.281l2.159 12.586c.678 3.951-3.47 6.964-7.018 5.099l-11.303-5.942c-1.412-.741-3.096-.741-4.505 0z"/><path d="m253.749 114.232-11.303 5.942c-3.548 1.866-7.696-1.148-7.018-5.099l2.159-12.586c.269-1.569-.251-3.17-1.391-4.281l-9.144-8.914c-2.871-2.798-1.287-7.674 2.681-8.25l12.637-1.836c1.575-.229 2.937-1.218 3.642-2.646l5.652-11.451c1.774-3.595 6.901-3.595 8.675 0l5.652 11.451c.705 1.428 2.066 2.417 3.642 2.646l12.637 1.836c3.967.576 5.551 5.452 2.681 8.25l-9.144 8.914c-1.14 1.111-1.66 2.712-1.391 4.281l2.159 12.586c.678 3.951-3.47 6.964-7.018 5.099l-11.303-5.942c-1.412-.741-3.096-.741-4.505 0z"/><path d="m450.535 114.232 11.303 5.942c3.548 1.866 7.696-1.148 7.018-5.099l-2.159-12.586c-.269-1.569.251-3.17 1.391-4.281l9.144-8.914c2.871-2.798 1.287-7.674-2.681-8.25l-12.637-1.836c-1.575-.229-2.937-1.218-3.642-2.646l-5.652-11.451c-1.774-3.595-6.901-3.595-8.675 0l-5.652 11.451c-.705 1.428-2.066 2.417-3.642 2.646l-12.637 1.836c-3.967.576-5.551 5.452-2.681 8.25l9.144 8.914c1.14 1.111 1.66 2.712 1.391 4.281l-2.159 12.586c-.678 3.951 3.47 6.964 7.018 5.099l11.303-5.942c1.413-.741 3.096-.741 4.505 0z"/><path d="m354.393 114.232 11.303 5.942c3.548 1.866 7.696-1.148 7.018-5.099l-2.159-12.586c-.269-1.569.251-3.17 1.391-4.281l9.144-8.914c2.871-2.798 1.287-7.674-2.681-8.25l-12.637-1.836c-1.575-.229-2.937-1.218-3.642-2.646l-5.65-11.452c-1.774-3.595-6.901-3.595-8.675 0l-5.652 11.451c-.705 1.428-2.066 2.417-3.642 2.646l-12.637 1.836c-3.967.576-5.551 5.452-2.681 8.25l9.144 8.914c1.14 1.111 1.66 2.712 1.391 4.281l-2.159 12.586c-.678 3.951 3.47 6.964 7.018 5.099l11.303-5.942c1.41-.74 3.094-.74 4.503.001z"/></g><path d="m347.002 279.06 23.183 16.904c9.729 7.094 11.427 20.939 3.7 30.173l-20.838 24.904c-4.685 5.599-11.962 8.334-19.175 7.207l-20.761-3.244c-15.511-2.424-22.857-20.492-13.437-33.051 2.386-2.952 4.426-6.323 5.15-10.09l3.891-18.345c1.514-7.138 6.656-12.962 13.552-15.349l5.665-1.961c6.439-2.228 13.563-1.163 19.07 2.852z" fill="#a2f5c3"/></g><g fill="#3a67c1"><path d="m357.994 401.637 1.507.281c6.271 1.17 11.658 5.152 14.618 10.802l16.275 31.07c20.184-27.549 32.111-61.527 32.111-98.295 0-55.273-26.939-104.245-68.396-134.53 20.1 27.516 31.974 61.422 31.974 98.107-.002 34.258-10.352 66.095-28.089 92.565z"/><path d="m183.527 471.656c-22.79-5.034-43.827-14.735-62.057-28.052 14.033 19.21 32.084 35.294 52.909 47.034z"/></g></g></svg>