<svg id="Capa_1" enable-background="new 0 0 512 512" height="512" viewBox="0 0 512 512" width="512" xmlns="http://www.w3.org/2000/svg"><g><g><path d="m82.979 318.573c-.298 15.726 12.953 28.598 28.683 28.598h22.748c-15.314 0-27.762 12.269-28.051 27.513-.298 15.726 12.953 28.598 28.683 28.598h117.99l-23.843 66.377c-7.405 20.617 7.873 42.339 29.78 42.339 13.351 0 25.266-8.38 29.78-20.946l10.357-28.834c3.673-10.225 10.792-18.852 20.134-24.399l47.131-27.984c7.224-4.289 15.471-6.553 23.873-6.553h21.858v-224.446h-254.964c-15.729 0-28.981 12.872-28.683 28.598.289 15.244 12.737 27.513 28.051 27.513h-21.465c-15.729 0-28.981 12.872-28.683 28.598.289 15.244 12.737 27.513 28.051 27.513h-23.38c-15.313.002-27.761 12.271-28.05 27.515z" fill="#fed2a4"/></g><g><path d="m380.46 178.836c-3.584 45.011-18.916 96.389-46.067 146.679-26.73 49.51-60.626 90.031-95.703 117.697l-9.5 26.449c-7.405 20.617 7.874 42.339 29.78 42.339 13.351 0 25.266-8.38 29.78-20.946l10.357-28.834c3.673-10.225 10.792-18.852 20.134-24.399l47.131-27.984c7.224-4.289 15.471-6.553 23.873-6.553h21.858v-224.448z" fill="#ffbd86"/></g><g><g><path d="m412.098 178.836h89.601c5.69 0 10.302 4.612 10.302 10.302v220.873c0 5.69-4.612 10.302-10.302 10.302h-79.299c-5.69 0-10.302-4.612-10.302-10.302z" fill="#4172ca"/></g><g><path d="m487.024 178.836h14.674c5.69 0 10.302 4.612 10.302 10.302v220.873c0 5.69-4.612 10.302-10.302 10.302h-14.674z" fill="#3a67c1"/></g><g><circle cx="462.049" cy="365.118" fill="#f7e365" r="16.65"/></g><g><circle cx="462.049" cy="298.505" fill="#f7e365" r="16.65"/></g></g><g><g><path d="m175.198 250.401c4.267 0 7.726-3.459 7.726-7.726s-3.459-7.726-7.726-7.726h-40.163c-10.993.003-20.767 6.296-25.558 15.453h65.721z" fill="#ea9b58"/></g><g><path d="m202.927 306.679c4.267 0 7.726-3.459 7.726-7.726s-3.459-7.726-7.726-7.726h-94.936c-9.723 1.048-17.958 7.059-22.116 15.453h117.052z" fill="#ea9b58"/></g><g><path d="m210.653 354.898c0-4.268-3.459-7.726-7.726-7.726h-68.517c-10.962 0-20.453 6.288-25.07 15.453h93.587c4.267-.001 7.726-3.46 7.726-7.727z" fill="#ea9b58"/></g></g><g><path d="m228.943 0h-208.13c-11.495 0-20.813 9.319-20.813 20.813v171c0 11.495 9.318 20.813 20.813 20.813h110.742c2.41 0 4.744.845 6.595 2.388l30.189 25.158c6.71 5.592 16.897.82 16.897-7.914v-9.329c0-5.69 4.612-10.302 10.302-10.302h33.406c11.495 0 20.813-9.318 20.813-20.813v-171c-.001-11.495-9.319-20.814-20.814-20.814z" fill="#edf6ff"/></g><g><path d="m228.943 0h-3.117v178.29c0 5.747-4.659 10.407-10.406 10.407h-215.42v3.116c0 11.495 9.318 20.813 20.813 20.813h110.742c2.41 0 4.744.845 6.595 2.388l33.568 27.974c5.368 4.473 13.518.656 13.518-6.331v-13.728c0-5.69 4.612-10.302 10.302-10.302h33.406c11.495 0 20.813-9.318 20.813-20.813v-171c-.001-11.495-9.319-20.814-20.814-20.814z" fill="#ddebfd"/></g><g><g><circle cx="124.878" cy="106.313" fill="#e175a5" r="66.602"/></g><g><path d="m160.395 49.983c6.497 10.282 10.272 22.455 10.272 35.517 0 36.783-29.819 66.602-66.602 66.602-13.062 0-25.235-3.775-35.517-10.272 11.799 18.673 32.609 31.085 56.33 31.085 36.783 0 66.602-29.819 66.602-66.602 0-23.721-12.412-44.531-31.085-56.33z" fill="#de5791"/></g></g><g><path d="m101.338 139.184c-1.922 0-3.843-.734-5.309-2.202-2.926-2.932-2.921-7.681.01-10.606 7.723-7.707 17.964-11.952 28.838-11.952 10.875 0 21.116 4.245 28.838 11.952 2.932 2.927 2.936 7.676.01 10.607-2.927 2.93-7.676 2.935-10.606.01-4.89-4.881-11.368-7.569-18.241-7.569s-13.351 2.688-18.241 7.569c-1.465 1.46-3.382 2.191-5.299 2.191z" fill="#4172ca"/></g><g><path d="m141.528 93c-4.142 0-7.5-3.357-7.5-7.5v-8.325c0-4.143 3.358-7.5 7.5-7.5s7.5 3.357 7.5 7.5v8.325c0 4.143-3.358 7.5-7.5 7.5z" fill="#4172ca"/></g><g><path d="m108.228 93c-4.142 0-7.5-3.357-7.5-7.5v-8.325c0-4.143 3.358-7.5 7.5-7.5s7.5 3.357 7.5 7.5v8.325c0 4.143-3.358 7.5-7.5 7.5z" fill="#4172ca"/></g></g></svg>