<svg id="Capa_1" enable-background="new 0 0 512 512" height="512" viewBox="0 0 512 512" width="512" xmlns="http://www.w3.org/2000/svg"><g><g><g><path d="m340.011 279.948c-11.841-.421-21.572 9.053-21.572 20.799v-21.355c0-11.285-8.776-20.897-20.054-21.298-11.841-.421-21.572 9.053-21.572 20.799v-20.314c0-11.286-8.776-20.897-20.054-21.298-11.841-.421-21.572 9.053-21.572 20.799v-70.265c0-11.286-8.776-20.897-20.054-21.298-11.841-.421-21.572 9.053-21.572 20.799v124.878c0-11.495-9.318-20.813-20.813-20.813-11.495 0-20.813 9.318-20.813 20.813v104.066c0 6.755 2.191 13.328 6.244 18.732l18.732 24.976c4.053 5.404 6.244 11.977 6.244 18.732v22.999c0 5.69 4.612 10.302 10.302 10.302h145.9c5.69 0 10.302-4.612 10.302-10.302v-23.157c0-6.807.835-13.588 2.486-20.191l5.435-21.741c1.651-6.604 2.486-13.385 2.486-20.191v-115.172c-.001-11.286-8.777-20.897-20.055-21.299z" fill="#fed2a4"/></g><g><path d="m183.041 476.081c.073.868.114 1.741.114 2.618v22.999c0 5.69 4.612 10.302 10.302 10.302h145.9c5.69 0 10.302-4.612 10.302-10.302v-23.157c0-6.807.835-13.588 2.486-20.191l5.435-21.741c1.651-6.604 2.486-13.385 2.486-20.192v-95.897c-.001 0-34.137 139.223-177.025 155.561z" fill="#ffbd86"/></g></g><g><g><g><path d="m124.382 133.203h-69.773c-17.516 0-31.715-14.199-31.715-31.715v-69.773c0-17.516 14.2-31.715 31.715-31.715h69.773c17.516 0 31.715 14.199 31.715 31.715v69.773c.001 17.516-14.199 31.715-31.715 31.715z" fill="#a2f5c3"/></g><g><path d="m124.382 0h-27.056c17.516 0 31.715 14.199 31.715 31.715v69.773c0 17.516-14.199 31.715-31.715 31.715h27.057c17.516 0 31.715-14.199 31.715-31.715v-69.773c0-17.516-14.2-31.715-31.716-31.715z" fill="#88f2a9"/></g></g><g><g><path d="m290.887 133.203h-69.773c-17.516 0-31.715-14.199-31.715-31.715v-69.773c-.001-17.516 14.199-31.715 31.714-31.715h69.773c17.516 0 31.715 14.199 31.715 31.715v69.773c.001 17.516-14.199 31.715-31.714 31.715z" fill="#4172ca"/></g><g><path d="m290.887 0h-27.057c17.516 0 31.715 14.199 31.715 31.715v69.773c0 17.516-14.199 31.715-31.715 31.715h27.057c17.516 0 31.715-14.199 31.715-31.715v-69.773c0-17.516-14.2-31.715-31.715-31.715z" fill="#3a67c1"/></g></g><g><g><path d="m457.391 133.203h-69.773c-17.516 0-31.715-14.199-31.715-31.715v-69.773c-.001-17.516 14.199-31.715 31.714-31.715h69.773c17.516 0 31.715 14.199 31.715 31.715v69.773c.001 17.516-14.199 31.715-31.714 31.715z" fill="#4172ca"/></g><g><path d="m457.391 0h-27.057c17.516 0 31.715 14.199 31.715 31.715v69.773c0 17.516-14.199 31.715-31.715 31.715h27.057c17.516 0 31.715-14.199 31.715-31.715v-69.773c0-17.516-14.2-31.715-31.715-31.715z" fill="#3a67c1"/></g></g></g><g><g><path d="m185.574 376.456 5.723-5.723c1.449-1.45 2.263-3.414 2.263-5.464v-53.076c-.001-9.637-6.561-17.72-15.453-20.088v69.964l-3.46 3.46c-3.018 3.018-3.018 7.909 0 10.928 3.018 3.015 7.91 3.015 10.927-.001z" fill="#ea9b58"/></g><g><path d="m310.712 351.141c4.268 0 7.726-3.459 7.726-7.726v-64.029c-.003-9.689-6.483-18.125-15.453-20.573v84.602c.001 4.267 3.46 7.726 7.727 7.726z" fill="#ea9b58"/></g><g><path d="m227.461 351.141c4.267 0 7.726-3.459 7.726-7.726v-85.336.003-70.265c0-9.692-6.481-18.132-15.453-20.581v176.179c0 4.267 3.46 7.726 7.727 7.726z" fill="#ea9b58"/></g><g><path d="m269.087 351.141c4.268 0 7.726-3.459 7.726-7.726v-84.837c-.001-9.691-6.481-18.13-15.453-20.578v105.415c0 4.267 3.459 7.726 7.727 7.726z" fill="#ea9b58"/></g></g><g><g><path d="m81.865 89.364c-1.919 0-3.839-.732-5.303-2.196l-15.264-15.263c-2.929-2.93-2.929-7.678 0-10.606 2.929-2.93 7.678-2.929 10.606-.001l9.96 9.96 25.222-25.223c2.929-2.928 7.678-2.928 10.606 0 2.929 2.93 2.929 7.678 0 10.607l-30.524 30.526c-1.464 1.464-3.384 2.196-5.303 2.196z" fill="#4172ca"/></g></g></g></svg>