<svg id="Capa_1" enable-background="new 0 0 512 512" height="512" viewBox="0 0 512 512" width="512" xmlns="http://www.w3.org/2000/svg"><g><g><path d="m250.437 507.527 53.254-26.908c77.089-38.95 125.697-117.97 125.697-204.341l.04-201.352c0-5.747-4.659-10.407-10.406-10.407h-4.163c-27.587 0-49.951-22.364-49.951-49.951v-4.163c0-5.746-4.659-10.405-10.406-10.405h-122.797-122.797c-5.747 0-10.407 4.659-10.407 10.407v4.163c0 27.587-22.364 49.951-49.951 49.951h-4.163c-5.747 0-10.407 4.659-10.407 10.407l-.04 201.352c0 86.371 48.608 165.39 125.697 204.341l53.254 26.908c11.806 5.962 25.742 5.962 37.546-.002z" fill="#f7e365"/></g><g><path d="m358.302 296.081c-74.455 88.829-175.159 136.784-264.11 134.98 18.347 20.002 40.39 36.899 65.446 49.558l53.254 26.908c11.804 5.964 25.74 5.964 37.544 0l53.254-26.908c77.089-38.95 125.697-117.97 125.697-204.341l.02-102.347c-15.266 42.112-39.018 83.868-71.105 122.15z" fill="#f3d332"/></g><g><path d="m174.656 450.897c-32.323-16.331-59.436-41.267-78.411-72.113s-29.004-66.292-29.004-102.505l.04-180.583c30.893-7.13 55.265-31.502 62.395-62.395h204.055c7.13 30.893 31.502 55.265 62.395 62.395l-.04 180.583c0 36.213-10.029 71.66-29.004 102.505s-46.088 55.781-78.41 72.113l-52.316 26.434c-2.951 1.491-6.435 1.491-9.386 0z" fill="#e69642"/></g><g><path d="m358.302 296.081c-62.105 74.095-142.471 119.742-219.048 131.803 10.888 8.878 22.738 16.615 35.402 23.013l52.316 26.434c2.951 1.491 6.435 1.491 9.386 0l52.316-26.434c32.322-16.331 59.436-41.267 78.41-72.113s29.004-66.292 29.004-102.505l.007-32.981c-10.948 18.097-23.544 35.783-37.793 52.783z" fill="#e38523"/></g><g><g><circle cx="231.705" cy="255.875" fill="#edf6ff" r="124.878"/></g><g><path d="m310.428 158.94c17.468 21.482 27.944 48.877 27.944 78.723 0 68.968-55.91 124.878-124.878 124.878-29.846 0-57.241-10.476-78.723-27.944 22.897 28.159 57.812 46.155 96.935 46.155 68.968 0 124.878-55.91 124.878-124.878-.001-39.122-17.997-74.037-46.156-96.934z" fill="#ddebfd"/></g><g><g><circle cx="231.705" cy="205.924" fill="#fed2a4" r="41.626"/></g><g><path d="m249.889 168.487c2.681 5.497 4.19 11.667 4.19 18.184 0 22.953-18.673 41.626-41.626 41.626-6.517 0-12.687-1.509-18.184-4.19 6.762 13.865 21 23.442 37.436 23.442 22.953 0 41.626-18.673 41.626-41.626 0-16.435-9.577-30.674-23.442-37.436z" fill="#ffbd86"/></g><g><path d="m288.005 318.314h-112.6c-5.69 0-10.302-4.612-10.302-10.302v-18.836c0-22.989 18.637-41.626 41.626-41.626h49.951c22.989 0 41.626 18.637 41.626 41.626v18.836c.001 5.69-4.612 10.302-10.301 10.302z" fill="#e175a5"/></g></g></g><g><g><g><circle cx="385.441" cy="409.736" fill="#a2f5c3" r="92.618"/></g><g><path d="m441.191 335.775c11.71 15.51 18.657 34.818 18.657 55.75 0 51.151-41.466 92.618-92.618 92.618-20.932 0-40.239-6.947-55.75-18.657 16.905 22.393 43.742 36.868 73.961 36.868 51.151 0 92.618-41.466 92.618-92.618 0-30.219-14.476-57.056-36.868-73.961z" fill="#88f2a9"/></g></g><g><g><circle cx="385.441" cy="409.736" fill="#77d192" r="49.951"/></g></g></g><g><g><path d="m265.006 291.856c-4.267 0-7.726 3.459-7.726 7.726v18.731h15.453v-18.731c-.001-4.267-3.46-7.726-7.727-7.726z" fill="#de5791"/></g><g><path d="m198.404 291.856c-4.267 0-7.726 3.459-7.726 7.726v18.731h15.453v-18.731c0-4.267-3.46-7.726-7.727-7.726z" fill="#de5791"/></g></g><g><path d="m380.932 426.255c-1.919 0-3.839-.732-5.303-2.196l-9.019-9.019c-2.929-2.929-2.929-7.678 0-10.606 2.929-2.93 7.678-2.929 10.606-.001l3.716 3.716 12.734-12.735c2.929-2.928 7.678-2.928 10.606 0 2.929 2.93 2.929 7.678 0 10.607l-18.038 18.038c-1.464 1.463-3.383 2.196-5.302 2.196z" fill="#edf6ff"/></g></g></svg>