<?xml version="1.0" encoding="iso-8859-1"?>
<!-- Generator: Adobe Illustrator 19.0.0, SVG Export Plug-In . SVG Version: 6.00 Build 0)  -->
<svg version="1.1" id="Capa_1" xmlns="http://www.w3.org/2000/svg" xmlns:xlink="http://www.w3.org/1999/xlink" x="0px" y="0px"
	 viewBox="0 0 512 512" style="enable-background:new 0 0 512 512;" xml:space="preserve">
<rect x="230.09" y="37.825" style="fill:#CCDFED;" width="51.829" height="56.979"/>
<path style="fill:#45748C;" d="M323.938,130.751H188.062V80.406c0-3.63,2.943-6.573,6.573-6.573h122.729
	c3.63,0,6.573,2.943,6.573,6.573v50.345H323.938z"/>
<path style="fill:#2C5871;" d="M317.364,73.833h-39.685v56.918h46.259V80.406C323.938,76.776,320.995,73.833,317.364,73.833z"/>
<path style="fill:#00F0FF;" d="M350.844,209.385l-6.003-100.088c-0.424-7.066-6.277-12.579-13.356-12.579h-150.97
	c-7.078,0-12.932,5.513-13.356,12.579l-6.003,100.088c-0.36,6.009,2.962,11.635,8.398,14.221l9.441,4.492
	c5.146,2.448,8.424,7.639,8.424,13.337v18.746c0,5.699-3.278,10.889-8.424,13.337l-10.011,4.763
	c-5.146,2.448-8.424,7.639-8.424,13.337v197.978c0,12.373,10.03,22.403,22.403,22.403h146.075c12.373,0,22.403-10.03,22.403-22.403
	V291.619c0-5.699-3.278-10.889-8.424-13.337l-10.011-4.763c-5.146-2.448-8.424-7.639-8.424-13.337v-18.746
	c0-5.699,3.278-10.889,8.424-13.337l9.441-4.492C347.882,221.02,351.204,215.394,350.844,209.385z"/>
<path style="fill:#00D6FF;" d="M343.016,278.281l-10.011-4.763c-5.146-2.448-8.424-7.639-8.424-13.337v-18.745
	c0-5.699,3.278-10.889,8.424-13.337l9.441-4.492c5.436-2.586,8.758-8.212,8.397-14.221l-6.003-100.088
	c-0.424-7.066-6.278-12.579-13.356-12.579h-32.797l6.434,107.278c0.556,9.266-4.567,17.942-12.95,21.93l0,0
	c-7.935,3.775-12.99,11.779-12.99,20.566v8.632c0,8.787,5.055,16.791,12.99,20.566l0.879,0.418
	c7.935,3.775,12.99,11.779,12.99,20.566V512h22.996c12.373,0,22.403-10.03,22.403-22.403V291.618
	C351.441,285.92,348.161,280.729,343.016,278.281z"/>
<path style="fill:#45748C;" d="M286.35,51.546h-60.7c-2.655,0-4.807-2.152-4.807-4.807V4.807c0-2.655,2.152-4.807,4.807-4.807
	h60.701c2.655,0,4.807,2.152,4.807,4.807v41.931C291.158,49.393,289.005,51.546,286.35,51.546z"/>
<path style="fill:#2C5871;" d="M286.35,0H245.5v51.546h40.85c2.655,0,4.807-2.152,4.807-4.807V4.807
	C291.158,2.152,289.005,0,286.35,0z"/>
<rect x="160.56" y="311.2" style="fill:#CCDFED;" width="190.88" height="137.26"/>
<rect x="306.04" y="311.2" style="fill:#B8D1E0;" width="45.4" height="137.26"/>
<path style="fill:#00F0FF;" d="M258.45,340.691c-1.299-1.488-3.602-1.488-4.9,0c-7.751,8.882-31.106,37.603-28.985,58.968
	C227.103,425.238,256,424.652,256,424.652s28.897,0.586,31.436-24.992C289.556,378.295,266.201,349.573,258.45,340.691z"/>
<g>
</g>
<g>
</g>
<g>
</g>
<g>
</g>
<g>
</g>
<g>
</g>
<g>
</g>
<g>
</g>
<g>
</g>
<g>
</g>
<g>
</g>
<g>
</g>
<g>
</g>
<g>
</g>
<g>
</g>
</svg>
