<?xml version="1.0" encoding="iso-8859-1"?>
<!-- Generator: Adobe Illustrator 19.0.0, SVG Export Plug-In . SVG Version: 6.00 Build 0)  -->
<svg version="1.1" id="Capa_1" xmlns="http://www.w3.org/2000/svg" xmlns:xlink="http://www.w3.org/1999/xlink" x="0px" y="0px"
	 viewBox="0 0 512 512" style="enable-background:new 0 0 512 512;" xml:space="preserve">
<path style="fill:#00BEEA;" d="M140.023,54.633h-7.922c-22.948,0-41.552-18.603-41.552-41.552l0,0h91.026l0,0
	C181.574,36.03,162.971,54.633,140.023,54.633z"/>
<path style="fill:#00F0FF;" d="M182.812,13.082h-2.265c-2.148,0-4.085,1.269-4.968,3.227c-6.79,15.058-21.927,25.542-39.518,25.542
	s-32.727-10.484-39.517-25.542c-0.883-1.958-2.819-3.227-4.968-3.227h-2.265c-8.704,0-17.196,2.686-24.318,7.691L3.606,63.916
	c-3.866,2.717-4.767,8.069-2.002,11.902l24.673,34.209c2.691,3.732,7.867,4.637,11.666,2.041l28.761-19.655v134.03
	c0,3.983,3.229,7.212,7.212,7.212h124.293c3.983,0,7.212-3.229,7.212-7.212V92.412l28.761,19.655
	c3.799,2.596,8.974,1.69,11.666-2.041l24.673-34.209c2.764-3.832,1.864-9.185-2.002-11.902l-61.388-43.144
	C200.008,15.767,191.516,13.082,182.812,13.082z"/>
<path style="fill:#00D6FF;" d="M268.517,63.916l-61.388-43.144c-7.121-5.005-15.614-7.691-24.318-7.691h-2.265
	c-2.148,0-4.085,1.269-4.968,3.227c-3.455,7.662-9.073,14.135-16.074,18.65v198.696h38.702c3.983,0,7.212-3.229,7.212-7.212V92.412
	l28.761,19.655c3.799,2.596,8.974,1.691,11.666-2.041l24.673-34.209C273.284,71.985,272.383,66.633,268.517,63.916z"/>
<g>
	<path style="fill:#FFFFFF;" d="M108.625,108.936l-2.784,2.784c-0.695,0.61-1.478,0.783-2.088,0.783
		c-2.174,0-3.654-2.262-3.654-4.523c0-1.567,0.783-3.219,2.174-4.09l10.266-7.83c0.609-0.522,1.392-0.87,2.349-0.87
		c2.35,0,5.046,1.393,5.046,3.654v56.551c0,2.349-2.871,3.567-5.655,3.567c-2.872,0-5.656-1.218-5.656-3.567v-46.459H108.625z"/>
	<path style="fill:#FFFFFF;" d="M128.895,139.56v-24.273c0-14.529,8.874-19.922,20.358-19.922c11.484,0,20.445,5.394,20.445,19.922
		v24.273c0,14.53-8.962,19.923-20.445,19.923C137.769,159.484,128.895,154.09,128.895,139.56z M158.387,115.287
		c0-6.873-3.48-10.005-9.135-10.005c-5.742,0-9.048,3.132-9.048,10.005v24.273c0,6.874,3.306,10.006,9.048,10.006
		c5.655,0,9.135-3.132,9.135-10.006V115.287z"/>
</g>
<path style="fill:#268C6F;" d="M379.899,319.896h-7.922c-22.948,0-41.552-18.603-41.552-41.552l0,0h91.025l0,0
	C421.451,301.292,402.848,319.896,379.899,319.896z"/>
<path style="fill:#2ECCA6;" d="M422.689,278.344h-2.265c-2.148,0-4.085,1.269-4.968,3.227c-6.79,15.058-21.927,25.542-39.518,25.542
	s-32.728-10.484-39.518-25.542c-0.883-1.959-2.819-3.227-4.968-3.227h-2.265c-8.704,0-17.196,2.686-24.318,7.691l-61.388,43.144
	c-3.866,2.717-4.767,8.069-2.002,11.902l24.673,34.209c2.691,3.732,7.867,4.637,11.666,2.041l28.761-19.655v134.03
	c0,3.983,3.229,7.212,7.212,7.212h124.293c3.983,0,7.212-3.229,7.212-7.212v-134.03l28.761,19.655
	c3.799,2.596,8.974,1.69,11.666-2.041l24.673-34.209c2.764-3.832,1.864-9.185-2.002-11.902l-61.388-43.144
	C439.885,281.03,431.393,278.344,422.689,278.344z"/>
<path style="fill:#2CA888;" d="M508.394,329.178l-61.388-43.144c-7.121-5.005-15.613-7.691-24.318-7.691h-2.265
	c-2.148,0-4.085,1.269-4.968,3.227c-3.389,7.516-8.857,13.891-15.672,18.393v198.953h38.301c3.983,0,7.212-3.229,7.212-7.212
	v-134.03l28.761,19.655c3.799,2.596,8.974,1.691,11.666-2.041l24.673-34.209C513.161,337.247,512.26,331.895,508.394,329.178z"/>
<path style="fill:#F9C861;" d="M508.394,329.178l-48.073-33.786L306.58,449.134v42.571c0,3.983,3.229,7.212,7.212,7.212h124.293
	c3.983,0,7.212-3.229,7.212-7.212v-134.03l28.761,19.655c3.799,2.596,8.974,1.69,11.666-2.041l24.673-34.209
	C513.161,337.247,512.26,331.895,508.394,329.178z"/>
<path style="fill:#F3A656;" d="M508.394,329.178l-42.071-29.568l-6.002-4.218l-60.537,60.537v142.987h38.301
	c0.996,0,1.944-0.202,2.807-0.567c2.589-1.095,4.405-3.658,4.405-6.645v-134.03l0,0l0,0l28.761,19.655
	c0.092,0.063,0.188,0.114,0.281,0.173c0.454,0.285,0.925,0.525,1.408,0.715c0.702,0.276,1.426,0.46,2.157,0.541
	c0.268,0.03,0.536,0.046,0.804,0.05c1.34,0.02,2.673-0.277,3.882-0.87c0.242-0.119,0.478-0.249,0.709-0.391
	c0.336-0.207,0.654-0.448,0.962-0.704c0.326-0.272,0.641-0.562,0.929-0.888c0.187-0.211,0.365-0.433,0.533-0.666l24.673-34.209
	C513.161,337.247,512.26,331.895,508.394,329.178z"/>
<circle style="fill:#E5D8C6;" cx="375.94" cy="388.629" r="45.513"/>
<g>
	<path style="fill:#45748C;" d="M392.575,375.646c0,1.47-0.909,3.639-1.749,5.318l-17.706,34.012c-0.49,0.91-1.4,1.329-2.589,1.329
		c-2.87,0-5.738-1.959-5.738-4.548c0-0.56,0.07-1.05,0.419-1.61l18.266-32.751v-4.619h-14.626v5.669c0,1.68-2.24,2.939-4.619,2.939
		c-2.449,0-4.479-1.259-4.479-2.939v-10.777c0-1.4,1.96-2.869,3.989-2.869h24.844c1.749,0,3.988,1.469,3.988,2.869L392.575,375.646
		L392.575,375.646z"/>
	<path style="fill:#45748C;" d="M233.28,168.649c-0.119-0.355-0.119-0.71-0.119-1.065c0-3.076,4.378-5.205,7.809-5.205
		c2.13,0,3.787,0.709,4.378,2.603l19.521,67.439l19.403-67.439c0.592-1.893,2.249-2.603,4.26-2.603c3.549,0,7.927,2.248,7.927,5.205
		c0,0.355-0.118,0.71-0.237,1.065l-23.426,76.668c-0.828,2.839-4.378,4.26-7.928,4.26c-3.549,0-6.981-1.421-7.927-4.26
		L233.28,168.649z"/>
	<path style="fill:#45748C;" d="M342.008,225.913c0-20.942-38.452-12.777-38.452-41.174c0-17.51,14.671-22.716,27.331-22.716
		c7.69,0,21.533,2.012,21.533,8.519c0,2.366-1.656,6.744-5.205,6.744c-3.195,0-6.271-4.496-16.327-4.496
		c-8.637,0-14.79,3.313-14.79,10.766c0,17.511,38.452,9.583,38.452,41.056c0,16.919-11.359,25.2-26.976,25.2
		c-15.381,0-26.148-8.045-26.148-13.96c0-2.84,2.485-6.744,5.443-6.744c4.259,0,7.099,9.347,20.232,9.347
		C335.619,238.455,342.008,234.432,342.008,225.913z"/>
</g>
<g>
	<path style="fill:#E9F6FF;" d="M18.726,53.289L3.606,63.916c-3.866,2.717-4.766,8.07-2.002,11.902l24.673,34.209
		c2.691,3.731,7.867,4.637,11.666,2.041l15.525-10.61L18.726,53.289z"/>
	<path style="fill:#E9F6FF;" d="M268.517,63.916l-15.12-10.626l-34.741,48.169l15.524,10.609c3.799,2.596,8.974,1.69,11.666-2.041
		l24.673-34.209C273.284,71.985,272.383,66.633,268.517,63.916z"/>
</g>
<g>
</g>
<g>
</g>
<g>
</g>
<g>
</g>
<g>
</g>
<g>
</g>
<g>
</g>
<g>
</g>
<g>
</g>
<g>
</g>
<g>
</g>
<g>
</g>
<g>
</g>
<g>
</g>
<g>
</g>
</svg>
