<?xml version="1.0" encoding="iso-8859-1"?>
<!-- Generator: Adobe Illustrator 19.0.0, SVG Export Plug-In . SVG Version: 6.00 Build 0)  -->
<svg version="1.1" id="Capa_1" xmlns="http://www.w3.org/2000/svg" xmlns:xlink="http://www.w3.org/1999/xlink" x="0px" y="0px"
	 viewBox="0 0 512 512" style="enable-background:new 0 0 512 512;" xml:space="preserve">
<path style="fill:#E8E7D9;" d="M426.731,125.109V37.157c0-10.284-8.337-18.62-18.62-18.62H18.62C8.337,18.537,0,26.873,0,37.157
	v410.712c0,25.181,20.413,45.594,45.594,45.594h381.137h36.746h2.929c25.181,0,45.594-20.413,45.594-45.594v-304.14
	c0-10.284-8.337-18.62-18.62-18.62H426.731z"/>
<path style="fill:#D1CFBD;" d="M493.38,125.109h-27.007v341.38c0,14.897-12.077,26.974-26.974,26.974h24.078h2.929
	c25.181,0,45.594-20.413,45.594-45.594v-304.14C512,133.446,503.663,125.109,493.38,125.109z"/>
<path style="fill:#E8E7D9;" d="M426.731,450.829V37.157c0-10.284-8.337-18.62-18.62-18.62H18.62C8.337,18.537,0,26.873,0,37.157
	v410.712c0,25.181,20.413,45.594,45.594,45.594h417.883l0,0C442.719,490.594,426.731,472.376,426.731,450.829z"/>
<path style="fill:#D1CFBD;" d="M426.731,450.829V37.157c0-10.284-8.337-18.62-18.62-18.62h-46.407c10.284,0,18.62,8.337,18.62,18.62
	v413.672c0,21.547,15.988,39.765,36.746,42.634h46.407C442.719,490.594,426.731,472.376,426.731,450.829z"/>
<path style="fill:#FF4F6D;" d="M426.731,146.004H0V37.157c0-10.284,8.337-18.62,18.62-18.62h389.491
	c10.284,0,18.62,8.337,18.62,18.62V146.004z"/>
<path style="fill:#F93A5A;" d="M408.111,18.537h-46.405c10.283,0.001,18.619,8.337,18.619,18.62v108.847h46.407V37.157
	c0-0.643-0.033-1.278-0.096-1.904c-0.064-0.626-0.158-1.243-0.282-1.849C424.617,24.919,417.109,18.537,408.111,18.537z"/>
<g>
	<path style="fill:#F9C861;" d="M104.368,115.758L82.922,75.659v40.099c0,2.693-3.292,4.09-6.484,4.09
		c-3.292,0-6.484-1.397-6.484-4.09V51.021c0-2.794,3.192-4.09,6.484-4.09c4.688,0,6.583,0.997,9.676,6.882l19.252,37.206V50.921
		c0-2.794,3.192-3.99,6.484-3.99c3.192,0,6.484,1.196,6.484,3.99v64.836c0,2.693-3.292,4.09-6.484,4.09
		C108.757,119.848,106.064,118.851,104.368,115.758z"/>
	<path style="fill:#F9C861;" d="M156.736,78.252h15.162c2.593,0,4.09,2.495,4.09,5.188c0,2.294-1.297,4.987-4.09,4.987h-15.162
		v20.05h28.229c2.594,0,4.09,2.693,4.09,5.785c0,2.694-1.297,5.586-4.09,5.586h-35.51c-2.893,0-5.686-1.397-5.686-4.09V51.021
		c0-2.694,2.793-4.09,5.686-4.09h35.51c2.793,0,4.09,2.892,4.09,5.585c0,3.093-1.496,5.786-4.09,5.786h-28.229V78.252z"/>
	<path style="fill:#F9C861;" d="M271.347,116.057c-0.998,2.993-4.688,4.389-8.479,4.389c-3.69,0-7.581-1.396-8.279-4.389
		l-6.384-26.932l-6.484,26.932c-0.698,2.993-4.588,4.389-8.279,4.389c-3.791,0-7.581-1.396-8.479-4.389l-19.751-62.742
		c-0.1-0.299-0.199-0.799-0.199-1.197c0-2.892,4.588-5.187,8.279-5.187c1.995,0,3.79,0.698,4.289,2.593l15.76,54.064l8.479-34.712
		c0.599-2.494,3.492-3.591,6.384-3.591c2.793,0,5.686,1.098,6.284,3.591l8.479,34.712l15.76-54.064
		c0.499-1.895,2.294-2.593,4.289-2.593c3.691,0,8.279,2.294,8.279,5.187c0,0.399-0.1,0.898-0.199,1.197L271.347,116.057z"/>
	<path style="fill:#F9C861;" d="M341.869,100.397c0-14.962-32.019-10.374-32.019-34.014c0-14.863,12.768-19.95,24.239-19.95
		c5.885,0,18.952,1.397,18.952,7.98c0,2.294-1.596,6.882-5.187,6.882c-3.092,0-5.386-3.79-13.765-3.79
		c-7.182,0-11.272,2.892-11.272,7.68c0,12.369,32.019,8.08,32.019,33.915c0,14.264-9.975,21.645-23.74,21.645
		c-13.067,0-23.042-6.583-23.042-12.368c0-2.794,2.594-6.983,5.686-6.983c4.089,0,6.783,7.681,16.957,7.681
		C336.682,109.075,341.869,106.382,341.869,100.397z"/>
</g>
<circle style="fill:#CCDFED;" cx="127.11" cy="268.07" r="87.19"/>
<path style="fill:#B8D1E0;" d="M127.108,180.879c-5.765,0-11.397,0.565-16.849,1.633c40.09,7.85,70.341,43.168,70.341,85.557
	s-30.251,77.707-70.341,85.557c5.452,1.068,11.084,1.633,16.849,1.633c48.154,0,87.19-39.036,87.19-87.19
	C214.298,219.916,175.261,180.879,127.108,180.879z"/>
<path style="fill:#2C5871;" d="M191.521,252.401l22.763,16.809c0.005-0.38,0.014-0.759,0.014-1.14
	c0-21.059-7.466-40.375-19.896-55.444l-7.135,24.85l-33.765,12.64l-18.66-12.963v-34.108l23.565-16.371
	c-9.715-3.738-20.267-5.792-31.299-5.792s-21.584,2.054-31.299,5.792l23.564,16.371v34.109l-19.141,13.298l-32.827-12.788
	c-0.147-0.057-0.296-0.1-0.444-0.148l-7.147-24.888c-12.43,15.069-19.896,34.384-19.896,55.444c0,0.381,0.01,0.76,0.014,1.14
	l22.739-16.791l33.478,13.042l6.655,19.585l-21.777,30.609l-27.5-0.794c11.226,17.616,28.604,30.927,49.108,36.912l-9.154-26.94
	l21.732-30.546h23.784l21.736,30.552l-9.152,26.934c20.504-5.985,37.882-19.296,49.108-36.912l-27.506,0.795l-21.773-30.604
	l6.866-20.205L191.521,252.401z"/>
<g>
	<path style="fill:#1D4859;" d="M173.183,315.655l-3.634-5.108c-2.693,4.815-5.819,9.354-9.344,13.55l0.528,0.742l-9.144,26.912
		c0.195-0.057,0.392-0.108,0.586-0.167c0.74-0.222,1.473-0.458,2.204-0.699c0.575-0.189,1.149-0.381,1.719-0.582
		c0.722-0.254,1.439-0.52,2.152-0.793c0.565-0.216,1.128-0.438,1.688-0.665c0.704-0.286,1.403-0.58,2.097-0.884
		c0.555-0.243,1.105-0.494,1.654-0.748c0.684-0.317,1.366-0.638,2.04-0.972c0.544-0.269,1.081-0.549,1.619-0.829
		c0.664-0.346,1.328-0.694,1.982-1.057c0.531-0.295,1.053-0.602,1.577-0.907c0.644-0.375,1.289-0.748,1.922-1.139
		c0.518-0.32,1.025-0.654,1.535-0.984c0.623-0.403,1.249-0.801,1.86-1.219c0.5-0.341,0.986-0.7,1.478-1.051
		c0.605-0.432,1.216-0.857,1.809-1.304c0.475-0.358,0.934-0.734,1.401-1.101c2.158-1.695,4.232-3.488,6.219-5.376
		c0.476-0.452,0.959-0.896,1.425-1.359c0.483-0.48,0.948-0.979,1.42-1.47c0.463-0.482,0.931-0.958,1.382-1.45
		c0.458-0.499,0.899-1.014,1.346-1.523c0.443-0.505,0.889-1.008,1.319-1.523c0.434-0.519,0.853-1.05,1.275-1.58
		c0.42-0.526,0.84-1.052,1.248-1.588c0.41-0.539,0.806-1.087,1.204-1.635c0.396-0.547,0.791-1.095,1.174-1.651
		c0.384-0.556,0.757-1.12,1.128-1.686c0.206-0.314,0.406-0.632,0.608-0.949L173.183,315.655z"/>
	<path style="fill:#1D4859;" d="M143.723,196.873l14.666-10.189c-0.173-0.066-0.342-0.138-0.515-0.203
		c-0.702-0.265-1.412-0.515-2.123-0.762c-0.58-0.202-1.162-0.401-1.747-0.591c-0.702-0.228-1.409-0.444-2.118-0.654
		c-0.615-0.182-1.233-0.357-1.853-0.526c-0.694-0.189-1.391-0.371-2.091-0.543c-0.656-0.161-1.317-0.311-1.979-0.457
		c-0.679-0.15-1.36-0.298-2.045-0.432c-0.707-0.138-1.419-0.26-2.132-0.381c-0.655-0.111-1.308-0.226-1.967-0.322
		c-0.775-0.113-1.557-0.204-2.339-0.297c-0.611-0.073-1.219-0.154-1.833-0.214c-0.895-0.087-1.798-0.146-2.701-0.205
		c-0.514-0.034-1.024-0.083-1.54-0.108c-1.384-0.067-2.775-0.103-4.175-0.105c-0.041,0-0.081-0.003-0.123-0.003
		c-0.07,0-0.139,0.005-0.209,0.005c-1.343,0.003-2.68,0.034-4.008,0.098c-0.38,0.018-0.755,0.056-1.134,0.079
		c-1.021,0.062-2.043,0.126-3.054,0.224c-0.401,0.038-0.797,0.096-1.196,0.139c-0.982,0.108-1.963,0.218-2.935,0.359
		c-0.42,0.06-0.834,0.138-1.251,0.205c-0.934,0.149-1.868,0.3-2.792,0.478c-0.082,0.016-0.162,0.035-0.244,0.051
		C122.549,184.923,133.886,189.909,143.723,196.873z"/>
	<path style="fill:#1D4859;" d="M214.298,268.069c0-1.418-0.04-2.827-0.107-4.228c-0.022-0.46-0.062-0.915-0.091-1.373
		c-0.06-0.94-0.125-1.879-0.214-2.811c-0.051-0.535-0.117-1.066-0.177-1.599c-0.097-0.85-0.201-1.698-0.323-2.541
		c-0.08-0.552-0.167-1.101-0.257-1.649c-0.135-0.821-0.28-1.638-0.438-2.452c-0.105-0.543-0.212-1.085-0.327-1.624
		c-0.176-0.825-0.369-1.644-0.568-2.46c-0.124-0.508-0.244-1.018-0.376-1.523c-0.233-0.886-0.489-1.762-0.749-2.637
		c-0.125-0.42-0.24-0.845-0.371-1.263c-0.403-1.283-0.83-2.555-1.29-3.812c-0.014-0.037-0.029-0.073-0.043-0.11
		c-0.449-1.221-0.927-2.427-1.428-3.621c-0.173-0.411-0.36-0.814-0.539-1.222c-0.357-0.814-0.717-1.627-1.098-2.428
		c-0.223-0.469-0.457-0.932-0.689-1.397c-0.363-0.73-0.731-1.457-1.114-2.175c-0.254-0.477-0.515-0.95-0.778-1.422
		c-0.388-0.697-0.785-1.388-1.192-2.073c-0.275-0.463-0.551-0.925-0.834-1.382c-0.428-0.692-0.869-1.374-1.316-2.052
		c-0.282-0.428-0.56-0.859-0.849-1.282c-0.5-0.732-1.018-1.45-1.54-2.165c-0.256-0.351-0.503-0.708-0.764-1.054
		c-0.787-1.047-1.594-2.079-2.427-3.088l-7.135,24.849l-10.786,4.038c1.568,4.908,2.706,10.008,3.385,15.251l11.655-4.363
		l22.749,16.798c0.005-0.378,0.029-0.751,0.029-1.13C214.298,268.069,214.298,268.069,214.298,268.069z"/>
</g>
<g>
	<path style="fill:#2C5871;" d="M377.443,204.695H267.076c-4.272,0-7.734,3.462-7.734,7.734s3.463,7.734,7.734,7.734h110.367
		c4.272,0,7.734-3.462,7.734-7.734S381.715,204.695,377.443,204.695z"/>
	<path style="fill:#2C5871;" d="M377.443,255.6H267.076c-4.272,0-7.734,3.462-7.734,7.734s3.463,7.734,7.734,7.734h110.367
		c4.272,0,7.734-3.462,7.734-7.734S381.715,255.6,377.443,255.6z"/>
	<path style="fill:#2C5871;" d="M377.443,306.505H267.076c-4.272,0-7.734,3.462-7.734,7.734s3.463,7.734,7.734,7.734h110.367
		c4.272,0,7.734-3.462,7.734-7.734C385.178,309.968,381.715,306.505,377.443,306.505z"/>
	<path style="fill:#2C5871;" d="M377.443,384.776H39.918c-4.272,0-7.734,3.462-7.734,7.734s3.463,7.734,7.734,7.734h337.526
		c4.272,0,7.734-3.462,7.734-7.734S381.715,384.776,377.443,384.776z"/>
	<path style="fill:#2C5871;" d="M377.443,430.991H39.918c-4.272,0-7.734,3.462-7.734,7.734s3.463,7.734,7.734,7.734h337.526
		c4.272,0,7.734-3.462,7.734-7.734S381.715,430.991,377.443,430.991z"/>
</g>
<g>
</g>
<g>
</g>
<g>
</g>
<g>
</g>
<g>
</g>
<g>
</g>
<g>
</g>
<g>
</g>
<g>
</g>
<g>
</g>
<g>
</g>
<g>
</g>
<g>
</g>
<g>
</g>
<g>
</g>
</svg>
