<?xml version="1.0" encoding="iso-8859-1"?>
<!-- Generator: Adobe Illustrator 19.0.0, SVG Export Plug-In . SVG Version: 6.00 Build 0)  -->
<svg version="1.1" id="Capa_1" xmlns="http://www.w3.org/2000/svg" xmlns:xlink="http://www.w3.org/1999/xlink" x="0px" y="0px"
	 viewBox="0 0 512.001 512.001" style="enable-background:new 0 0 512.001 512.001;" xml:space="preserve">
<path style="fill:#B8D1E0;" d="M489.136,374.402l-34.494-30.372c0.208-0.975,0.323-1.985,0.323-3.021v-27.734v-34.773v-34.773
	v-34.771c0-0.002,0-0.004,0-0.005v-34.77l0,0l0,0v-0.035v-0.001v-0.011v-34.725c0-0.002,0-0.004,0-0.005v-27.731
	c0-0.999-0.102-1.974-0.296-2.917l33.565-28.271c3.257-2.744,3.674-7.609,0.93-10.866c-2.743-3.257-7.608-3.675-10.866-0.93
	L443.93,97.639c-1.102-0.269-2.246-0.428-3.43-0.428h-28.307h-34.2h-35.347h-34.2H273.1l0,0l0,0h-34.2h-35.347h-34.196
	c-0.002,0-0.004,0-0.005,0h-35.345h-34.2H71.5c-1.184,0-2.328,0.159-3.43,0.428l-49.616-41.79c-3.258-2.744-8.123-2.328-10.866,0.93
	c-2.744,3.257-2.327,8.122,0.93,10.866l48.813,41.114c-0.194,0.942-0.296,1.918-0.296,2.917v27.733v34.773v34.773l0,0l0,0v34.773
	v34.773l0,0l0,0v34.771c0,0.002,0,0.004,0,0.005v27.731c0,1.025,0.111,2.025,0.315,2.991l-48.96,43.11
	c-3.196,2.815-3.506,7.688-0.691,10.884c1.524,1.731,3.652,2.615,5.791,2.615c1.81,0,3.628-0.634,5.094-1.924l49.545-43.625
	c1.084,0.26,2.209,0.413,3.372,0.413h28.307l0,0l0,0h34.2l0,0l0,0h35.346h34.2l0,0l0,0H238.9h34.2h35.346l0,0l0,0h34.2h35.347h34.2
	l0,0l0,0H440.5c1.151,0,2.265-0.149,3.339-0.405l35.104,30.909c1.466,1.29,3.284,1.924,5.094,1.924c2.138,0,4.267-0.884,5.791-2.615
	C492.642,382.09,492.332,377.217,489.136,374.402z M140.774,226.341l-11.933,11.934l-11.934,11.934L93.04,226.341l11.934-11.933
	l11.934-11.933L140.774,226.341z M127.813,191.569l11.933-11.934l11.934-11.934l23.867,23.867l-23.867,23.867L127.813,191.569z
	 M139.747,249.181l11.933-11.934l11.933,11.934l11.933,11.934l-23.867,23.867l-23.867-23.867L139.747,249.181z M174.52,238.275
	l-11.933-11.934l23.867-23.867l23.867,23.867l-11.933,11.934l-11.933,11.934L174.52,238.275z M197.36,191.569l23.867-23.867
	l23.867,23.867l-23.867,23.867l-11.934-11.933L197.36,191.569z M221.227,237.247l11.934,11.934l11.933,11.934l-23.867,23.867
	l-11.934-11.933l-11.934-11.933L221.227,237.247z M244.067,238.275l-11.933-11.934L256,202.475l23.867,23.867l-11.933,11.934
	L256,250.209L244.067,238.275z M266.906,191.569l23.867-23.867l11.934,11.934l11.933,11.934l-23.867,23.867l-11.934-11.933
	L266.906,191.569z M290.773,237.247l11.934,11.934l11.933,11.934l-23.867,23.867l-11.934-11.933l-11.934-11.933L290.773,237.247z
	 M301.679,226.341l11.934-11.933l11.934-11.933l23.867,23.867l-11.933,11.934l-11.934,11.934L301.679,226.341z M336.453,191.569
	l11.933-11.934l11.933-11.934l11.933,11.934l11.933,11.934l-23.867,23.867L336.453,191.569z M348.386,249.181l11.933-11.934
	l11.933,11.934l11.933,11.934l-23.867,23.867l-23.867-23.867L348.386,249.181z M383.159,238.275l-11.933-11.934l11.934-11.933
	l11.934-11.933l23.867,23.867l-23.867,23.867L383.159,238.275z M395.093,180.662l-23.867-23.867l23.867-23.867l11.934,11.934
	l11.933,11.934l-11.934,11.933L395.093,180.662z M345.84,112.634h28.958l9.388,9.388l-11.933,11.934l-11.933,11.933l-11.933-11.934
	l-11.933-11.934L345.84,112.634z M337.48,144.861l11.933,11.934l-23.867,23.867l-11.934-11.933l-11.934-11.933l23.867-23.867
	L337.48,144.861z M273.544,115.384l2.75-2.75h28.958l9.388,9.388l-23.867,23.867l-23.867-23.867L273.544,115.384z M279.867,156.795
	L256,180.662l-23.867-23.867l11.933-11.934L256,132.928L279.867,156.795z M206.747,112.634h28.959l9.388,9.388l-11.933,11.934
	l-11.934,11.934l-23.867-23.867L206.747,112.634z M210.321,156.795l-23.867,23.867l-11.934-11.933l-11.934-11.933l23.867-23.867
	L210.321,156.795z M137.201,112.634h28.958l9.388,9.388l-23.867,23.867l-11.934-11.934l-11.933-11.934L137.201,112.634z
	 M128.841,144.861l11.933,11.934l-23.867,23.867l-11.934-11.933L93.04,156.795l23.867-23.867L128.841,144.861z M72.459,112.634
	h24.154l2.75,2.75l6.638,6.638l-23.867,23.867l-9.675-9.675V112.634z M72.459,177.376l9.675-9.675l23.867,23.867l-11.934,11.933
	l-11.934,11.933l-9.675-9.675L72.459,177.376L72.459,177.376z M72.459,246.922l9.675-9.675l23.867,23.867l-11.934,11.933
	L82.133,284.98l-9.675-9.675L72.459,246.922L72.459,246.922z M96.613,340.049H72.459v-23.58l9.675-9.675l23.867,23.867
	L96.613,340.049z M93.04,295.888l11.934-11.933l11.934-11.933l23.867,23.867l-11.933,11.934l-11.934,11.934L93.04,295.888z
	 M168.909,337.3l-2.75,2.75h-28.958l-9.388-9.388l23.867-23.867l23.867,23.867L168.909,337.3z M174.52,307.821l-11.933-11.934
	l23.867-23.867l11.934,11.934l11.933,11.934l-23.867,23.867L174.52,307.821z M235.706,340.049h-28.958l-9.388-9.388l23.867-23.867
	l23.867,23.867L235.706,340.049z M232.133,295.888l11.933-11.934L256,272.021l11.933,11.934l11.933,11.934L256,319.755
	L232.133,295.888z M305.252,340.049h-28.958l-9.388-9.388l23.867-23.867l23.867,23.867L305.252,340.049z M313.613,307.822
	l-11.934-11.933l23.867-23.867l11.934,11.934l11.933,11.934l-23.867,23.867L313.613,307.822z M377.549,337.3l-2.75,2.75h-28.958
	l-2.75-2.75l-6.638-6.638l23.867-23.867l23.867,23.867L377.549,337.3z M371.226,295.888l23.867-23.867l23.867,23.867l-11.933,11.934
	l-11.934,11.934L371.226,295.888z M439.541,340.049h-24.154l-9.388-9.388l11.934-11.933l11.934-11.933l9.674,9.674V340.049z
	 M439.541,275.307l-9.674,9.674l-11.934-11.933l-11.934-11.933l23.867-23.867l6.841,6.841l2.834,2.834L439.541,275.307
	L439.541,275.307z M439.541,205.761l-9.675,9.675l-23.867-23.867l23.867-23.867l6.841,6.841l2.834,2.834L439.541,205.761
	L439.541,205.761z M439.541,136.214l-9.675,9.675l-11.934-11.934l-11.933-11.934l9.388-9.388h24.154V136.214z"/>
<path style="fill:#E1EFFB;" d="M0,67.145v340.32c0,3.788,3.07,6.858,6.858,6.858H21.06c3.788,0,6.858-3.07,6.858-6.858V77.04
	c0-2.27,1.84-4.11,4.11-4.11h447.945c2.27,0,4.11,1.84,4.11,4.11v330.426c0,3.788,3.07,6.858,6.858,6.858h14.202
	c3.788,0,6.858-3.07,6.858-6.858V67.145c0-12.224-9.909-22.133-22.133-22.133H22.133C9.909,45.012,0,54.921,0,67.145z"/>
<g>
	<path style="fill:#CCDFED;" d="M489.867,45.012h-13.666V72.93h3.772c2.27,0,4.11,1.84,4.11,4.11v330.426
		c0,3.788,3.07,6.858,6.858,6.858h14.202c3.788,0,6.858-3.07,6.858-6.858V67.145C512,54.921,502.091,45.012,489.867,45.012z"/>
	<path style="fill:#CCDFED;" d="M0,67.145v340.32c0,3.788,3.07,6.858,6.858,6.858H21.06c3.788,0,6.858-3.07,6.858-6.858V77.04
		c0-2.27,1.84-4.11,4.11-4.11h447.945c2.27,0,4.11,1.84,4.11,4.11v330.426c0,3.788,3.07,6.858,6.858,6.858h14.202
		c3.788,0,6.858-3.07,6.858-6.858V67.145c0-12.224-9.909-22.133-22.133-22.133H22.133C9.909,45.012,0,54.921,0,67.145z"/>
</g>
<path style="fill:#B8D1E0;" d="M489.867,45.012h-13.666V72.93h3.772c2.27,0,4.11,1.84,4.11,4.11v330.426
	c0,3.788,3.07,6.858,6.858,6.858h14.202c3.788,0,6.858-3.07,6.858-6.858V67.145C512,54.921,502.091,45.012,489.867,45.012z"/>
<circle style="fill:#CCDFED;" cx="256" cy="365.059" r="101.93"/>
<path style="fill:#B8D1E0;" d="M256,263.123c-6.74,0-13.324,0.661-19.698,1.909c46.868,9.177,82.234,50.467,82.234,100.023
	s-35.366,90.846-82.234,100.023c6.374,1.248,12.958,1.909,19.698,1.909c56.295,0,101.932-45.636,101.932-101.932
	S312.295,263.123,256,263.123z"/>
<path style="fill:#2C5871;" d="M330.902,346.44l27.012,19.947c0.006-0.444,0.017-0.887,0.017-1.333
	c0-24.62-8.729-47.201-23.26-64.818l-9.112,31.734l-36.971,13.297l-24.876-17.283v-38.027l28.879-20.063
	c-11.358-4.37-23.693-6.772-36.591-6.772c-12.898,0-25.233,2.402-36.591,6.772l28.879,20.063v38.027l-24.549,17.055l-37.409-13.454
	l-9.002-31.35c-14.531,17.617-23.26,40.198-23.26,64.818c0,0.446,0.011,0.888,0.017,1.333l27.327-20.179l37.625,13.532l9.5,27.957
	l-24.74,33.036l-33.819-0.977c13.124,20.595,33.44,36.156,57.411,43.153l-11.207-32.982l25.628-34.222h29.826l24.633,32.893
	l-11.659,34.311c23.971-6.997,44.287-22.558,57.411-43.153l-32.402,0.936l-25.705-34.324l8.915-26.234L330.902,346.44z"/>
<g>
	<path style="fill:#1D4859;" d="M309.619,420.692l-4.204-5.614c-2.691,4.766-5.756,9.288-9.152,13.538l-11.653,34.293
		c7.468-2.18,14.58-5.192,21.232-8.928c0.037-0.02,0.073-0.041,0.11-0.061c1.291-0.727,2.564-1.482,3.819-2.263
		c0.053-0.033,0.105-0.066,0.158-0.099c1.25-0.781,2.483-1.588,3.696-2.421c0.041-0.028,0.082-0.057,0.123-0.086
		c1.229-0.846,2.441-1.718,3.63-2.617c0.004-0.003,0.008-0.007,0.013-0.01c3.621-2.736,7.052-5.708,10.273-8.893
		c0.027-0.026,0.054-0.052,0.081-0.079c1.029-1.02,2.035-2.063,3.02-3.126c0.067-0.072,0.135-0.144,0.202-0.217
		c0.959-1.04,1.895-2.102,2.811-3.181c0.08-0.095,0.161-0.19,0.241-0.285c0.906-1.076,1.79-2.171,2.652-3.285
		c0.074-0.095,0.146-0.191,0.22-0.286c0.867-1.129,1.712-2.275,2.532-3.44c0.049-0.07,0.097-0.14,0.146-0.21
		c0.842-1.203,1.661-2.423,2.451-3.663c0.001-0.001,0.002-0.003,0.002-0.004L309.619,420.692z"/>
	<path style="fill:#1D4859;" d="M275.425,281.821l17.166-11.926c-5.62-2.162-11.48-3.839-17.528-4.985
		c-0.108-0.02-0.216-0.042-0.325-0.062c-1.402-0.261-2.815-0.491-4.237-0.694c-0.169-0.024-0.337-0.047-0.506-0.071
		c-1.395-0.192-2.799-0.356-4.212-0.491c-0.182-0.017-0.365-0.032-0.548-0.049c-1.423-0.128-2.854-0.231-4.294-0.3
		c-0.139-0.007-0.278-0.01-0.417-0.016c-1.501-0.066-3.008-0.105-4.525-0.105c-1.537,0-3.065,0.039-4.585,0.106
		c-0.105,0.005-0.211,0.007-0.315,0.012c-1.425,0.068-2.84,0.171-4.249,0.296c-0.206,0.019-0.414,0.033-0.62,0.053
		c-1.328,0.127-2.647,0.284-3.96,0.462c-0.279,0.038-0.559,0.073-0.838,0.113c-1.266,0.181-2.524,0.39-3.775,0.618
		c-0.302,0.055-0.605,0.109-0.906,0.166c-0.141,0.027-0.279,0.061-0.42,0.089C250.671,267.85,263.924,273.68,275.425,281.821z"/>
	<path style="fill:#1D4859;" d="M357.839,360.851c-0.008-0.201-0.014-0.403-0.023-0.604c-0.062-1.325-0.151-2.643-0.263-3.955
		c-0.021-0.246-0.043-0.491-0.065-0.737c-0.121-1.309-0.264-2.612-0.434-3.906c-0.026-0.196-0.055-0.39-0.082-0.586
		c-0.186-1.355-0.392-2.705-0.63-4.043c0-0.001,0-0.003-0.001-0.004c-0.239-1.339-0.511-2.666-0.802-3.986
		c-0.042-0.192-0.082-0.385-0.126-0.577c-0.284-1.255-0.594-2.5-0.924-3.737c-0.061-0.23-0.124-0.46-0.187-0.69
		c-0.339-1.234-0.697-2.461-1.081-3.676c-0.057-0.182-0.118-0.362-0.177-0.544c-0.409-1.271-0.836-2.535-1.293-3.784
		c-0.001-0.002-0.001-0.003-0.002-0.005c-0.458-1.251-0.946-2.487-1.451-3.715c-0.072-0.175-0.142-0.352-0.215-0.527
		c-0.488-1.167-0.999-2.323-1.529-3.468c-0.097-0.209-0.194-0.417-0.292-0.625c-0.538-1.142-1.094-2.274-1.672-3.393
		c-0.084-0.162-0.171-0.323-0.256-0.484c-1.226-2.34-2.541-4.626-3.939-6.854c-0.098-0.156-0.194-0.314-0.293-0.469
		c-0.673-1.059-1.366-2.104-2.077-3.136c-0.127-0.185-0.255-0.368-0.383-0.552c-0.719-1.03-1.454-2.048-2.209-3.05
		c-0.104-0.139-0.211-0.275-0.316-0.413c-0.798-1.047-1.61-2.082-2.447-3.096l-9.112,31.734l-11.245,4.044
		c1.462,4.927,2.582,10.001,3.288,15.208l13.299-4.783l27.012,19.947c0.005-0.423,0.015-0.844,0.016-1.267
		c0-0.022,0.001-0.043,0.001-0.065C357.932,363.646,357.895,362.246,357.839,360.851z"/>
</g>
<g>
</g>
<g>
</g>
<g>
</g>
<g>
</g>
<g>
</g>
<g>
</g>
<g>
</g>
<g>
</g>
<g>
</g>
<g>
</g>
<g>
</g>
<g>
</g>
<g>
</g>
<g>
</g>
<g>
</g>
</svg>
