<?xml version="1.0" encoding="iso-8859-1"?>
<!-- Generator: Adobe Illustrator 19.0.0, SVG Export Plug-In . SVG Version: 6.00 Build 0)  -->
<svg version="1.1" id="Capa_1" xmlns="http://www.w3.org/2000/svg" xmlns:xlink="http://www.w3.org/1999/xlink" x="0px" y="0px"
	 viewBox="0 0 512.002 512.002" style="enable-background:new 0 0 512.002 512.002;" xml:space="preserve">
<path style="fill:#FFC084;" d="M88.98,219.051l69.004-214.44c0.853-2.652,3.319-4.45,6.105-4.452L357.73,0
	c5.02-0.004,8.102,5.497,5.476,9.776l-173.92,283.415l-16.727,33.196L69.47,265.267L88.98,219.051z"/>
<path style="fill:#F7B076;" d="M357.73,0l-41.678,0.034L136.154,293.191l-4.505,8.941l40.91,24.255l16.727-33.195L363.206,9.776
	C365.831,5.497,362.75-0.004,357.73,0z"/>
<polygon style="fill:#E9F6FF;" points="274.443,154.421 123.951,110.375 88.98,219.051 69.47,265.266 172.559,326.386 
	189.286,293.191 "/>
<polygon style="fill:#CCDFED;" points="274.443,154.421 229.401,141.238 136.154,293.191 131.649,302.131 172.559,326.386 
	189.286,293.191 "/>
<path style="fill:#418BE5;" d="M150.926,298.488l10.544-24.834c8.566-20.175,29.099-32.589,50.945-30.799l7.381,0.617
	l-30.716,62.982L150.926,298.488z"/>
<path style="fill:#5FA0FF;" d="M313.752,470.644l-52.847-64.98l-62.08-105.695c-2.066-3.518-5.537-5.984-9.539-6.778l-68.649-13.617
	c-3.644-0.723-7.111-2.155-10.203-4.215c-7.614-5.072-12.313-13.506-12.619-22.65l-0.636-19.004
	c-0.198-5.923-3.252-11.385-8.198-14.655c-1.148-0.759-2.626-0.815-3.848-0.181c-7.509,3.895-33.864,18.059-43.899,30.015
	c-11.758,14.008-34.672,55.691-34.672,55.691l0,0l-5.332,8.079c-2.186,3.313-1.344,7.762,1.905,10.042
	c20.907,14.672,93.311,65.821,140.388,103.281c47.642,37.91,131.431,72.966,155.467,82.971c3.584,1.492,7.721,0.238,9.874-2.993l0,0
	l3.369-5.058l2.975-4.466C320.512,488.469,319.919,477.959,313.752,470.644z"/>
<path style="fill:#418BE5;" d="M313.752,470.644l-52.847-64.98l-62.08-105.695c-2.066-3.518-5.537-5.984-9.539-6.778l-47.084-9.339
	L228.369,438.2l50.661,62.292c8.423,3.647,15.312,6.522,19.959,8.457c3.585,1.492,7.722,0.238,9.874-2.993l3.369-5.058l2.975-4.466
	C320.512,488.469,319.919,477.959,313.752,470.644z"/>
<path style="fill:#F3A656;" d="M50.006,356.027c3.673-3.708,7.146-8.243,10.316-13.771c23.191-40.441-3.47-80.226-16.607-96.049
	c-0.904,0.901-1.742,1.796-2.482,2.677c-11.758,14.008-34.672,55.691-34.672,55.691l-5.332,8.079
	c-2.186,3.313-1.344,7.762,1.905,10.042C11.773,328.758,29.205,341.05,50.006,356.027z"/>
<path style="fill:#45748C;" d="M155.74,408.403c-27.734-22.069-97.769-68.252-123.693-89.645
	c-5.758-4.751-10.062-11.024-12.493-18.082l-4.104-11.913l-8.888,15.813l-5.332,8.079c-2.186,3.313-1.344,7.762,1.905,10.042
	c0.775,0.544,1.622,1.139,2.536,1.781c1.312,0.922,1.813,2.634,1.2,4.116l-5.268,12.745c-1.074,2.598-0.229,5.594,2.044,7.249
	l5.583,4.065c2.273,1.655,5.383,1.538,7.526-0.282l10.839-9.207c1.196-1.016,2.927-1.092,4.205-0.181
	c5.228,3.728,10.872,7.768,16.805,12.036c1.29,0.928,1.776,2.625,1.169,4.093l-5.693,13.773c-1.074,2.598-0.229,5.594,2.044,7.249
	l5.583,4.065c2.273,1.655,5.383,1.538,7.526-0.282l11.407-9.69c1.208-1.026,2.956-1.095,4.235-0.16
	c23.495,17.177,48.41,35.808,68.647,51.911c11.18,8.896,24.595,17.796,38.888,26.338c1.337,0.799,1.975,2.395,1.544,3.892
	l-2.916,10.147c-0.613,2.132,0.314,4.406,2.242,5.503l4.736,2.694c1.928,1.097,4.356,0.731,5.875-0.885l7.229-7.69
	c1.068-1.136,2.766-1.404,4.136-0.659c5.872,3.193,11.771,6.299,17.614,9.299c1.392,0.715,2.119,2.274,1.774,3.8l-2.114,9.358
	c-0.489,2.163,0.567,4.38,2.555,5.364l4.883,2.417c1.988,0.984,4.391,0.479,5.815-1.222l6.128-7.322
	c1.009-1.205,2.713-1.565,4.129-0.883c6.228,2.997,7.844,2.89,13.536,5.512c1.463,0.674,2.248,2.289,1.893,3.86l-1.928,8.533
	c-0.47,2.082,0.546,4.216,2.459,5.162l4.699,2.326c1.913,0.947,4.226,0.461,5.596-1.176l6.251-7.469
	c0.976-1.166,2.609-1.547,4.003-0.939c6.882,3,12.517,5.38,16.438,7.012c3.584,1.492,7.721,0.238,9.874-2.993l6.344-9.523
	C315.208,496.432,211.247,452.571,155.74,408.403z"/>
<circle style="fill:#CCDFED;" cx="391.178" cy="308.81" r="120.81"/>
<g>
	<path style="fill:#B8D1E0;" d="M391.176,188.008c-7.987,0-15.791,0.783-23.345,2.262c55.546,10.877,97.46,59.811,97.46,118.543
		s-41.914,107.666-97.46,118.543c7.554,1.479,15.357,2.262,23.345,2.262c66.719,0,120.805-54.086,120.805-120.805
		S457.895,188.008,391.176,188.008z"/>
	<polygon style="fill:#B8D1E0;" points="113.368,143.262 254.944,186.196 274.443,154.421 123.951,110.375 	"/>
</g>
<polygon style="fill:#A2BECC;" points="254.944,186.196 274.443,154.421 229.401,141.238 210.148,172.611 "/>
<circle style="fill:#E5D8C6;" cx="131.698" cy="329.82" r="29.53"/>
<g>
	<path style="fill:#45748C;" d="M193.561,329.928c-4.091,0-7.506-3.212-7.711-7.343c-0.211-4.262,3.072-7.888,7.334-8.1l17.736-0.88
		c4.269-0.21,7.889,3.073,8.1,7.334c0.211,4.262-3.072,7.888-7.334,8.1l-17.736,0.88C193.82,329.925,193.69,329.928,193.561,329.928
		z"/>
	<path style="fill:#45748C;" d="M207.33,353.438c-4.091,0-7.506-3.211-7.711-7.343c-0.211-4.261,3.072-7.888,7.334-8.1l17.737-0.881
		c4.248-0.212,7.888,3.072,8.1,7.334c0.211,4.261-3.072,7.888-7.334,8.1l-17.737,0.881
		C207.59,353.435,207.459,353.438,207.33,353.438z"/>
	<path style="fill:#45748C;" d="M222.006,378.374c-4.091,0-7.505-3.211-7.711-7.343c-0.211-4.261,3.072-7.888,7.334-8.1
		l17.736-0.881c4.244-0.191,7.887,3.072,8.1,7.333c0.211,4.261-3.072,7.888-7.334,8.1l-17.736,0.881
		C222.266,378.371,222.135,378.374,222.006,378.374z"/>
	<path style="fill:#45748C;" d="M237.074,404.02c-4.091,0-7.505-3.211-7.711-7.343c-0.211-4.261,3.072-7.888,7.334-8.1l17.736-0.881
		c4.243-0.186,7.887,3.072,8.1,7.334c0.211,4.261-3.072,7.888-7.334,8.1l-17.736,0.881
		C237.333,404.016,237.202,404.02,237.074,404.02z"/>
	<path style="fill:#45748C;" d="M477.651,285.057l34.31,25.336c0.007-0.527,0.02-1.051,0.02-1.58
		c0-29.178-10.345-55.941-27.567-76.819l-10.943,38.109l-42.057,16.383l-32.512-22.588v-43.104l35.64-24.76
		c-13.461-5.179-28.08-8.026-43.366-8.026s-29.905,2.846-43.366,8.026l35.641,24.761v43.103l-32.471,22.559l-42.113-16.406
		l-10.928-38.057c-17.222,20.879-27.567,47.641-27.567,76.819c0,0.528,0.013,1.053,0.02,1.58l34.351-25.366l42.282,16.471
		l11.664,34.327l-27.763,39.023l-41.698-1.205c15.554,24.408,39.632,42.85,68.041,51.143l-13.871-40.816l27.627-38.831h40.293
		l27.633,38.839l-13.867,40.809c28.409-8.292,52.487-26.735,68.041-51.143l-41.706,1.205l-27.758-39.016l11.649-34.282
		L477.651,285.057z"/>
</g>
<g>
	<path style="fill:#2C5871;" d="M414.207,210.161l20.335-14.127c-0.001-0.001-0.002-0.001-0.003-0.001
		c-5.764-2.218-11.742-4.004-17.892-5.326c-0.173-0.037-0.345-0.077-0.519-0.113c-0.671-0.141-1.346-0.273-2.021-0.403
		c-0.28-0.054-0.559-0.109-0.839-0.161c-0.615-0.114-1.233-0.22-1.851-0.325c-0.345-0.058-0.691-0.116-1.037-0.172
		c-0.575-0.092-1.151-0.179-1.729-0.263c-0.398-0.057-0.795-0.113-1.194-0.167c-0.543-0.073-1.086-0.143-1.631-0.209
		c-0.44-0.053-0.881-0.103-1.323-0.151c-0.514-0.056-1.028-0.112-1.544-0.162c-0.482-0.047-0.966-0.088-1.45-0.129
		c-0.485-0.041-0.969-0.083-1.455-0.118c-0.528-0.038-1.059-0.069-1.589-0.101c-0.448-0.027-0.896-0.057-1.346-0.078
		c-0.611-0.029-1.224-0.049-1.837-0.07c-0.375-0.012-0.748-0.03-1.124-0.039c-0.911-0.022-1.826-0.033-2.742-0.035
		c-0.08,0-0.159-0.003-0.24-0.003c-0.136,0-0.272,0.004-0.408,0.005c-0.841,0.003-1.68,0.011-2.517,0.031
		c-0.281,0.007-0.561,0.021-0.842,0.029c-0.699,0.022-1.398,0.043-2.094,0.077c-0.262,0.013-0.522,0.031-0.783,0.046
		c-0.718,0.039-1.436,0.08-2.151,0.132c-0.222,0.016-0.442,0.037-0.663,0.054c-0.757,0.059-1.513,0.121-2.265,0.194
		c-0.18,0.017-0.359,0.038-0.539,0.057c-0.792,0.08-1.583,0.165-2.37,0.261c-0.152,0.018-0.303,0.039-0.454,0.058
		c-0.812,0.102-1.622,0.209-2.429,0.327c-0.138,0.02-0.276,0.042-0.414,0.063c-0.812,0.121-1.621,0.249-2.427,0.386
		c-0.149,0.025-0.298,0.053-0.447,0.078c-0.783,0.136-1.563,0.278-2.34,0.429c-0.064,0.013-0.129,0.026-0.193,0.039
		C384.845,193.603,400.569,200.506,414.207,210.161z"/>
	<path style="fill:#2C5871;" d="M451.42,374.848l-3.072-4.317c-2.849,4.783-6.015,9.356-9.476,13.682l-13.787,40.574
		c7.949-2.32,15.558-5.437,22.737-9.254c0.054-0.029,0.108-0.057,0.161-0.085c0.725-0.387,1.445-0.783,2.162-1.184
		c0.095-0.053,0.19-0.106,0.285-0.159c0.688-0.388,1.372-0.784,2.052-1.185c0.118-0.07,0.237-0.14,0.355-0.21
		c0.663-0.394,1.322-0.795,1.977-1.202c0.129-0.08,0.257-0.16,0.385-0.24c0.649-0.406,1.294-0.818,1.934-1.236
		c0.125-0.081,0.249-0.164,0.374-0.246c0.642-0.423,1.281-0.85,1.915-1.285c0.114-0.078,0.228-0.158,0.341-0.237
		c0.644-0.445,1.285-0.895,1.921-1.352c0.085-0.061,0.169-0.124,0.255-0.186c0.662-0.479,1.321-0.963,1.973-1.456
		c0.027-0.021,0.054-0.042,0.081-0.062c4.203-3.18,8.191-6.63,11.94-10.322c0.099-0.097,0.199-0.192,0.297-0.29
		c0.507-0.502,1.006-1.011,1.504-1.522c0.152-0.156,0.305-0.311,0.456-0.468c0.465-0.482,0.923-0.97,1.379-1.459
		c0.178-0.191,0.357-0.381,0.534-0.574c0.437-0.475,0.869-0.955,1.298-1.437c0.188-0.211,0.375-0.421,0.562-0.633
		c0.418-0.476,0.832-0.956,1.243-1.439c0.19-0.223,0.38-0.447,0.568-0.672c0.403-0.48,0.802-0.964,1.197-1.45
		c0.188-0.231,0.375-0.464,0.561-0.697c0.391-0.489,0.78-0.98,1.163-1.475c0.181-0.233,0.359-0.468,0.538-0.702
		c0.384-0.503,0.766-1.007,1.142-1.516c0.168-0.227,0.333-0.456,0.499-0.684c0.38-0.522,0.759-1.045,1.131-1.574
		c0.148-0.211,0.293-0.424,0.441-0.636c0.385-0.554,0.768-1.108,1.144-1.669c0.107-0.16,0.211-0.322,0.318-0.483
		c0.409-0.617,0.817-1.236,1.215-1.861c0-0.001,0.001-0.001,0.001-0.002L451.42,374.848z"/>
	<path style="fill:#2C5871;" d="M511.912,304.924c-0.021-0.659-0.043-1.318-0.075-1.974c-0.018-0.376-0.041-0.751-0.062-1.126
		c-0.034-0.599-0.071-1.197-0.114-1.793c-0.028-0.39-0.059-0.779-0.091-1.167c-0.048-0.583-0.099-1.164-0.155-1.745
		c-0.037-0.389-0.075-0.777-0.116-1.165c-0.062-0.589-0.131-1.176-0.201-1.763c-0.044-0.369-0.088-0.739-0.135-1.107
		c-0.083-0.638-0.174-1.274-0.267-1.909c-0.046-0.311-0.087-0.622-0.135-0.932c-0.145-0.939-0.299-1.875-0.465-2.807
		c-0.007-0.036-0.014-0.072-0.021-0.108c-0.161-0.898-0.333-1.792-0.514-2.683c-0.063-0.311-0.132-0.619-0.197-0.929
		c-0.13-0.616-0.262-1.232-0.402-1.845c-0.081-0.358-0.168-0.714-0.253-1.071c-0.134-0.563-0.27-1.125-0.411-1.685
		c-0.094-0.372-0.191-0.743-0.288-1.114c-0.143-0.545-0.29-1.088-0.441-1.631c-0.103-0.37-0.206-0.739-0.313-1.107
		c-0.159-0.551-0.323-1.099-0.49-1.646c-0.106-0.35-0.211-0.7-0.321-1.049c-0.187-0.596-0.382-1.188-0.577-1.779
		c-0.097-0.294-0.191-0.59-0.291-0.882c-0.298-0.877-0.605-1.751-0.922-2.62c-0.02-0.054-0.041-0.107-0.061-0.161
		c-0.3-0.817-0.609-1.629-0.927-2.437c-0.116-0.297-0.238-0.591-0.357-0.887c-0.226-0.564-0.454-1.127-0.689-1.687
		c-0.143-0.34-0.289-0.678-0.435-1.016c-0.221-0.514-0.444-1.027-0.672-1.537c-0.156-0.349-0.314-0.696-0.473-1.042
		c-0.229-0.5-0.462-0.998-0.697-1.494c-0.163-0.344-0.327-0.687-0.494-1.029c-0.244-0.502-0.494-1.002-0.745-1.5
		c-0.164-0.326-0.328-0.653-0.495-0.978c-0.279-0.54-0.564-1.077-0.851-1.612c-0.147-0.275-0.291-0.551-0.44-0.825
		c-0.436-0.8-0.879-1.595-1.333-2.384c-0.048-0.084-0.099-0.166-0.147-0.249c-0.41-0.709-0.826-1.414-1.25-2.115
		c-0.169-0.279-0.342-0.554-0.513-0.831c-0.31-0.502-0.62-1.003-0.937-1.501c-0.2-0.314-0.403-0.625-0.606-0.936
		c-0.297-0.457-0.597-0.914-0.9-1.367c-0.214-0.32-0.43-0.638-0.647-0.955c-0.303-0.444-0.61-0.885-0.918-1.325
		c-0.221-0.314-0.442-0.627-0.665-0.939c-0.319-0.444-0.642-0.885-0.966-1.324c-0.219-0.297-0.437-0.595-0.659-0.89
		c-0.355-0.472-0.716-0.939-1.078-1.405c-0.198-0.256-0.393-0.513-0.594-0.767c-0.557-0.706-1.12-1.407-1.692-2.101l-10.943,38.109
		l-12.941,5.041c1.439,4.967,2.568,10.064,3.364,15.272l13.756-5.359l34.31,25.336c0.007-0.527,0.02-1.051,0.02-1.58
		c0-0.983-0.014-1.963-0.037-2.941C511.936,305.555,511.922,305.24,511.912,304.924z"/>
</g>
<g>
</g>
<g>
</g>
<g>
</g>
<g>
</g>
<g>
</g>
<g>
</g>
<g>
</g>
<g>
</g>
<g>
</g>
<g>
</g>
<g>
</g>
<g>
</g>
<g>
</g>
<g>
</g>
<g>
</g>
</svg>
