<?xml version="1.0" encoding="iso-8859-1"?>
<!-- Generator: Adobe Illustrator 19.0.0, SVG Export Plug-In . SVG Version: 6.00 Build 0)  -->
<svg version="1.1" id="Capa_1" xmlns="http://www.w3.org/2000/svg" xmlns:xlink="http://www.w3.org/1999/xlink" x="0px" y="0px"
	 viewBox="0 0 512 512" style="enable-background:new 0 0 512 512;" xml:space="preserve">
<rect x="23.358" y="260.8" style="fill:#45748C;" width="24.47" height="60.1"/>
<path style="fill:#FF4F6D;" d="M115.579,89.466H55.115c-19.755,0-35.769,16.014-35.769,35.769v128.299h132.003V125.235
	C151.348,105.481,135.333,89.466,115.579,89.466z"/>
<g>
	<path style="fill:#F93A5A;" d="M115.578,89.466H70.246c19.755,0,35.769,16.014,35.769,35.769v128.299h45.332V125.235
		C151.348,105.481,135.333,89.466,115.578,89.466z"/>
	<path style="fill:#F93A5A;" d="M163.457,275.765H7.236c-3.996,0-7.236-3.24-7.236-7.236v-20.886c0-3.996,3.24-7.236,7.236-7.236
		h156.221c3.996,0,7.236,3.24,7.236,7.236v20.886C170.693,272.526,167.453,275.765,163.457,275.765z"/>
</g>
<path style="fill:#FF4F6D;" d="M286.208,89.466h-60.464c-19.755,0-35.769,16.014-35.769,35.769v128.299h132.003V125.235
	C321.977,105.481,305.963,89.466,286.208,89.466z"/>
<g>
	<path style="fill:#F93A5A;" d="M286.208,89.466h-45.59c19.755,0,35.769,16.014,35.769,35.769v128.299h45.59V125.235
		C321.977,105.481,305.963,89.466,286.208,89.466z"/>
	<path style="fill:#F93A5A;" d="M334.086,275.765H177.865c-3.996,0-7.236-3.24-7.236-7.236v-20.886c0-3.996,3.24-7.236,7.236-7.236
		h156.221c3.996,0,7.236,3.24,7.236,7.236v20.886C341.322,272.526,338.083,275.765,334.086,275.765z"/>
</g>
<rect x="463.92" y="260.8" style="fill:#45748C;" width="24.47" height="60.1"/>
<path style="fill:#FF4F6D;" d="M456.885,89.466h-60.464c-19.755,0-35.769,16.014-35.769,35.769v128.299h132.003V125.235
	C492.655,105.481,476.64,89.466,456.885,89.466z"/>
<g>
	<path style="fill:#F93A5A;" d="M456.885,89.466h-45.332c19.755,0,35.769,16.014,35.769,35.769v128.299h45.332V125.235
		C492.655,105.481,476.64,89.466,456.885,89.466z"/>
	<path style="fill:#F93A5A;" d="M504.764,275.765H348.543c-3.996,0-7.236-3.24-7.236-7.236v-20.886c0-3.996,3.24-7.236,7.236-7.236
		h156.221c3.996,0,7.236,3.24,7.236,7.236v20.886C512,272.526,508.76,275.765,504.764,275.765z"/>
</g>
<path style="fill:#D63054;" d="M504.764,240.407h-38.268v35.358h38.268c3.996,0,7.236-3.24,7.236-7.236v-20.886
	C512,243.647,508.76,240.407,504.764,240.407z"/>
<g>
	<rect x="108.65" y="354.71" style="fill:#45748C;" width="24.47" height="60.1"/>
	<rect x="207.9" y="354.71" style="fill:#45748C;" width="24.47" height="60.1"/>
</g>
<path style="fill:#FF4F6D;" d="M200.869,183.375h-60.464c-19.755,0-35.769,16.014-35.769,35.769v128.299h132.003V219.144
	C236.638,199.389,220.624,183.375,200.869,183.375z"/>
<g>
	<path style="fill:#F93A5A;" d="M200.869,183.375h-45.332c19.755,0,35.769,16.014,35.769,35.769v128.299h45.332V219.144
		C236.638,199.389,220.624,183.375,200.869,183.375z"/>
	<path style="fill:#F93A5A;" d="M248.747,369.674H92.527c-3.996,0-7.236-3.24-7.236-7.236v-20.886c0-3.996,3.24-7.236,7.236-7.236
		h156.221c3.996,0,7.236,3.24,7.236,7.236v20.886C255.983,366.434,252.744,369.674,248.747,369.674z"/>
</g>
<path style="fill:#D63054;" d="M248.747,334.316h-38.869v35.358h38.869c3.996,0,7.236-3.24,7.236-7.236v-20.886
	C255.983,337.555,252.744,334.316,248.747,334.316z"/>
<g>
	<rect x="279.33" y="354.71" style="fill:#45748C;" width="24.47" height="60.1"/>
	<rect x="378.58" y="354.71" style="fill:#45748C;" width="24.47" height="60.1"/>
</g>
<path style="fill:#FF4F6D;" d="M371.547,183.375h-60.464c-19.755,0-35.769,16.014-35.769,35.769v128.299h132.003V219.144
	C407.316,199.389,391.301,183.375,371.547,183.375z"/>
<g>
	<path style="fill:#F93A5A;" d="M371.547,183.375h-45.461c19.755,0,35.769,16.014,35.769,35.769v128.299h45.461V219.144
		C407.316,199.389,391.301,183.375,371.547,183.375z"/>
	<path style="fill:#F93A5A;" d="M419.425,369.674H263.204c-3.996,0-7.236-3.24-7.236-7.236v-20.886c0-3.996,3.24-7.236,7.236-7.236
		h156.221c3.996,0,7.236,3.24,7.236,7.236v20.886C426.661,366.434,423.421,369.674,419.425,369.674z"/>
</g>
<path style="fill:#D63054;" d="M419.425,334.316h-38.44v35.358h38.44c3.996,0,7.236-3.24,7.236-7.236v-20.886
	C426.661,337.555,423.421,334.316,419.425,334.316z"/>
<g>
	<path style="fill:#2C5871;" d="M237.811,407.595h-35.092c-4.115,0-7.663,3.29-7.563,7.404c0.006,0.263,0.026,0.53,0.059,0.798
		c0.486,3.904,3.989,6.736,7.923,6.736h4.764h24.47h5.012c3.945,0,7.457-2.846,7.932-6.763c0.033-0.268,0.051-0.534,0.057-0.796
		C245.46,410.87,241.916,407.595,237.811,407.595z"/>
	<path style="fill:#2C5871;" d="M138.557,407.595h-35.092c-4.115,0-7.663,3.29-7.563,7.404c0.006,0.263,0.026,0.53,0.059,0.798
		c0.486,3.904,3.989,6.736,7.923,6.736h4.764h24.471h5.011c3.946,0,7.457-2.846,7.932-6.763c0.033-0.268,0.051-0.534,0.057-0.796
		C146.206,410.87,142.662,407.595,138.557,407.595z"/>
	<path style="fill:#2C5871;" d="M53.14,313.429H18.048c-4.115,0-7.663,3.29-7.563,7.404c0.006,0.263,0.026,0.53,0.059,0.798
		c0.486,3.904,3.989,6.736,7.923,6.736h4.764h24.471h5.011c3.946,0,7.457-2.846,7.932-6.763c0.033-0.268,0.051-0.534,0.057-0.796
		C60.79,316.704,57.246,313.429,53.14,313.429z"/>
	<path style="fill:#2C5871;" d="M493.701,313.429h-35.092c-4.115,0-7.663,3.29-7.563,7.404c0.006,0.263,0.026,0.53,0.059,0.798
		c0.486,3.904,3.989,6.736,7.923,6.736h4.764h24.471h5.011c3.946,0,7.457-2.846,7.932-6.763c0.033-0.268,0.051-0.534,0.057-0.796
		C501.35,316.704,497.806,313.429,493.701,313.429z"/>
	<path style="fill:#2C5871;" d="M309.235,407.595h-35.092c-4.115,0-7.663,3.29-7.563,7.404c0.006,0.263,0.026,0.53,0.059,0.798
		c0.486,3.904,3.989,6.736,7.923,6.736h4.764h24.471h5.011c3.946,0,7.457-2.846,7.932-6.763c0.033-0.268,0.051-0.534,0.057-0.796
		C316.884,410.87,313.341,407.595,309.235,407.595z"/>
	<path style="fill:#2C5871;" d="M408.488,407.595h-35.092c-4.116,0-7.663,3.291-7.563,7.405c0.006,0.263,0.026,0.53,0.06,0.798
		c0.486,3.904,3.989,6.736,7.924,6.736h4.764h24.47h5.011c3.946,0,7.457-2.846,7.932-6.763c0.033-0.268,0.051-0.534,0.057-0.796
		C416.137,410.87,412.593,407.595,408.488,407.595z"/>
</g>
<g>
</g>
<g>
</g>
<g>
</g>
<g>
</g>
<g>
</g>
<g>
</g>
<g>
</g>
<g>
</g>
<g>
</g>
<g>
</g>
<g>
</g>
<g>
</g>
<g>
</g>
<g>
</g>
<g>
</g>
</svg>
