<?xml version="1.0" encoding="iso-8859-1"?>
<!-- Generator: Adobe Illustrator 19.0.0, SVG Export Plug-In . SVG Version: 6.00 Build 0)  -->
<svg version="1.1" id="Capa_1" xmlns="http://www.w3.org/2000/svg" xmlns:xlink="http://www.w3.org/1999/xlink" x="0px" y="0px"
	 viewBox="0 0 512 512" style="enable-background:new 0 0 512 512;" xml:space="preserve">
<circle style="fill:#E1EFFB;" cx="219.16" cy="256" r="219.16"/>
<path style="fill:#CCDFED;" d="M219.156,36.844c-6.134,0-12.205,0.265-18.212,0.759C313.458,46.86,401.889,141.097,401.889,256
	s-88.43,209.14-200.944,218.397c6.007,0.494,12.078,0.759,18.212,0.759c121.037,0,219.156-98.12,219.156-219.156
	S340.193,36.844,219.156,36.844z"/>
<path style="fill:#2C5871;" d="M370.055,208.488l68.222,50.377c0.012-0.955,0.036-1.907,0.036-2.865
	c0-52.934-18.767-101.484-50.01-139.361l-22.032,76.728l-67.896,26.449l-71.487-49.665v-69.464l70.94-49.285
	c-24.42-9.397-50.941-14.56-78.672-14.56s-54.252,5.164-78.672,14.56l70.941,49.285v69.464l-71.411,49.612l-67.999-26.49
	L50.01,116.64C18.767,154.516,0,203.066,0,256c0,0.958,0.024,1.91,0.036,2.865l68.295-50.431l68.085,26.523l26.295,77.383
	l-45.301,63.675l-83.203-2.404c28.217,44.28,71.898,77.736,123.436,92.78l-27.654-81.383l44.899-63.109h88.524l44.908,63.123
	l-27.649,81.369c51.538-15.044,95.219-48.5,123.435-92.78l-83.217,2.404l-45.292-63.662l26.267-77.3L370.055,208.488z"/>
<circle style="fill:#F3A656;" cx="377.05" cy="340.2" r="134.95"/>
<path style="fill:#ED864A;" d="M377.048,205.253c-6.148,0-12.197,0.419-18.126,1.216c65.959,8.856,116.825,65.352,116.825,133.736
	s-50.866,124.88-116.825,133.736c5.93,0.796,11.979,1.216,18.126,1.216c74.532,0,134.952-60.42,134.952-134.952
	S451.58,205.253,377.048,205.253z"/>
<circle style="fill:#F9C861;" cx="377.05" cy="340.2" r="100.43"/>
<path style="fill:#F3A656;" d="M377.048,239.774c-6.159,0-12.187,0.557-18.04,1.619c46.856,8.499,82.391,49.505,82.391,98.812
	c0,49.308-35.534,90.313-82.391,98.812c5.853,1.062,11.881,1.619,18.04,1.619c55.466,0,100.431-44.964,100.431-100.431
	S432.515,239.774,377.048,239.774z"/>
<path style="fill:#FFFFFF;" d="M377.095,409.233c2.475,0,4.951-1.816,4.951-3.796v-5.611c17.824-2.475,30.037-13.698,30.037-33.998
	c0-22.445-15.678-29.707-30.037-34.988v-33.502c11.553,0.826,15.844,6.107,19.805,6.107c4.951,0,7.261-6.272,7.261-9.408
	c0-8.087-15.844-11.552-27.066-11.882v-4.456c0-1.981-2.475-3.796-4.951-3.796c-2.806,0-4.786,1.815-4.786,3.796v4.786
	c-15.678,1.65-31.357,9.902-31.357,30.697c0,21.125,16.503,27.066,31.357,32.348v38.784c-16.834-1.32-21.29-12.873-26.736-12.873
	c-4.126,0-7.592,5.446-7.592,9.407c0,8.087,13.863,19.145,34.328,19.475v5.116C372.309,407.417,374.289,409.233,377.095,409.233z
	 M381.056,349.159c8.087,3.466,14.524,8.087,14.524,18.485c0,9.407-5.611,14.688-14.524,16.338V349.159z M357.455,311.531
	c0-8.582,6.602-12.708,15.844-13.863v30.037C364.552,324.404,357.455,320.938,357.455,311.531z"/>
<g>
</g>
<g>
</g>
<g>
</g>
<g>
</g>
<g>
</g>
<g>
</g>
<g>
</g>
<g>
</g>
<g>
</g>
<g>
</g>
<g>
</g>
<g>
</g>
<g>
</g>
<g>
</g>
<g>
</g>
</svg>
