<?xml version="1.0" encoding="iso-8859-1"?>
<!-- Generator: Adobe Illustrator 19.0.0, SVG Export Plug-In . SVG Version: 6.00 Build 0)  -->
<svg version="1.1" id="Capa_1" xmlns="http://www.w3.org/2000/svg" xmlns:xlink="http://www.w3.org/1999/xlink" x="0px" y="0px"
	 viewBox="0 0 512.001 512.001" style="enable-background:new 0 0 512.001 512.001;" xml:space="preserve">
<path style="fill:#2CA888;" d="M263.453,126.676h-14.905c-43.177,0-78.18-35.002-78.18-78.18l0,0h171.265l0,0
	C341.632,91.674,306.63,126.676,263.453,126.676z"/>
<path style="fill:#2ECCA6;" d="M343.961,48.496H339.7c-4.042,0-7.685,2.387-9.347,6.072C317.577,82.9,289.097,102.626,256,102.626
	S194.423,82.9,181.648,54.568c-1.662-3.685-5.305-6.072-9.347-6.072h-4.261c-16.377,0-32.355,5.053-45.754,14.47L6.784,144.141
	c-7.274,5.112-8.968,15.183-3.767,22.394l46.423,64.364c5.064,7.021,14.802,8.725,21.949,3.841l54.113-36.981v252.177
	c0,7.494,6.075,13.57,13.57,13.57h233.857c7.494,0,13.57-6.075,13.57-13.57V197.757l54.113,36.981
	c7.147,4.884,16.885,3.18,21.949-3.841l46.423-64.364c5.201-7.211,3.507-17.281-3.767-22.394L389.714,62.966
	C376.315,53.549,360.337,48.496,343.961,48.496z"/>
<path style="fill:#F9C861;" d="M505.216,144.141l-90.449-63.568L125.502,369.837v80.097c0,7.494,6.075,13.57,13.57,13.57h233.857
	c7.494,0,13.57-6.075,13.57-13.57V197.757l54.113,36.981c7.147,4.885,16.885,3.181,21.949-3.841l46.423-64.363
	C514.184,159.323,512.49,149.253,505.216,144.141z"/>
<g>
	<path style="fill:#F3A656;" d="M505.216,144.141l-24.044-16.899l-65.325,90.572l24.765,16.925
		c7.147,4.884,16.885,3.18,21.949-3.841l46.423-64.364C514.184,159.323,512.49,149.253,505.216,144.141z"/>
	<path style="fill:#F3A656;" d="M340.655,173.87v289.634h32.273c7.494,0,13.57-6.075,13.57-13.57V197.757l-39.619-27.166
		C344.241,168.782,340.655,170.671,340.655,173.87z"/>
</g>
<circle style="fill:#E8E7D9;" cx="256" cy="256" r="85.63"/>
<path style="fill:#2C5871;" d="M287.291,231.582c0,2.765-1.71,6.846-3.29,10.005l-33.308,63.982
	c-0.922,1.711-2.634,2.501-4.871,2.501c-5.398,0-10.795-3.686-10.795-8.557c0-1.052,0.131-1.974,0.789-3.027l34.36-61.613v-8.688
	h-27.513v10.663c0,3.16-4.213,5.529-8.69,5.529c-4.608,0-8.425-2.369-8.425-5.529v-20.274c0-2.633,3.686-5.397,7.503-5.397h46.736
	c3.292,0,7.503,2.765,7.503,5.397v15.008H287.291z"/>
<g>
	<polygon style="fill:#E8E7D9;" points="79.926,228.904 92.689,220.182 27.395,129.656 14.751,138.542 	"/>
	<polygon style="fill:#E8E7D9;" points="418.017,219.297 430.779,228.019 495.966,137.64 483.322,128.754 	"/>
</g>
<g>
</g>
<g>
</g>
<g>
</g>
<g>
</g>
<g>
</g>
<g>
</g>
<g>
</g>
<g>
</g>
<g>
</g>
<g>
</g>
<g>
</g>
<g>
</g>
<g>
</g>
<g>
</g>
<g>
</g>
</svg>
