<?xml version="1.0" encoding="iso-8859-1"?>
<!-- Generator: Adobe Illustrator 19.0.0, SVG Export Plug-In . SVG Version: 6.00 Build 0)  -->
<svg version="1.1" id="Capa_1" xmlns="http://www.w3.org/2000/svg" xmlns:xlink="http://www.w3.org/1999/xlink" x="0px" y="0px"
	 viewBox="0 0 512 512" style="enable-background:new 0 0 512 512;" xml:space="preserve">
<path style="fill:#5FA0FF;" d="M256,0C162.057,0,85.9,76.157,85.9,170.101c0,130.296,131.326,255.443,163.196,283.895
	c3.937,3.515,9.874,3.515,13.811,0c31.87-28.452,163.196-153.6,163.196-283.895C426.102,76.157,349.944,0,256,0z"/>
<path style="fill:#418BE5;" d="M256,0c-7.75,0-15.376,0.529-22.852,1.533c83.136,11.165,147.249,82.374,147.249,168.568
	c0,114.189-100.86,224.419-147.249,269.079c6.543,6.299,12.007,11.299,15.946,14.816c3.937,3.515,9.874,3.515,13.811,0
	c31.87-28.452,163.196-153.6,163.196-283.895C426.102,76.157,349.944,0,256,0z"/>
<path style="fill:#2C5871;" d="M256,512c-56.652,0-109.992-6.602-150.195-18.589c-24.569-7.326-65.786-23.566-65.786-50.02
	c0-16.455,16.137-28.529,29.674-35.761c17.336-9.26,42.154-17.155,71.771-22.833c4.124-0.785,8.117,1.914,8.908,6.043
	c0.792,4.129-1.914,8.117-6.042,8.909c-28.133,5.393-51.462,12.762-67.465,21.309c-13.742,7.342-21.624,15.482-21.624,22.334
	c0,11.578,21.554,25.485,54.913,35.432c38.831,11.579,90.626,17.955,145.845,17.955c55.22,0,107.015-6.377,145.845-17.955
	c33.359-9.946,54.914-23.854,54.914-35.432c0-12.794-27.879-31.908-89.089-43.643c-4.128-0.792-6.834-4.78-6.042-8.909
	c0.792-4.129,4.782-6.826,8.908-6.043c64.47,12.36,101.445,33.716,101.445,58.594c0,26.455-41.218,42.694-65.787,50.02
	C365.992,505.398,312.651,512,256,512z"/>
<circle style="fill:#E1EFFB;" cx="256" cy="171.27" r="124.36"/>
<path style="fill:#CCDFED;" d="M292.942,52.523c-19.944-6.204-40.268-7.126-59.472-3.572c4.835,0.894,9.668,2.075,14.48,3.572
	c65.584,20.403,102.211,90.109,81.808,155.693c-14.198,45.64-52.275,77.248-96.221,85.381
	c61.067,11.292,122.307-24.608,141.213-85.381C395.154,142.631,358.526,72.925,292.942,52.523z"/>
<path style="fill:#2C5871;" d="M380.122,163.132l-35.567,27.719l-41.916-13.04l-12.495-39.607l28.699-35.997l41.182,0.905
	c-15.257-23.314-38.401-41.666-67.083-50.589c-0.519-0.161-1.039-0.309-1.559-0.463l14.562,41.905l-28.807,36.133l-38.179,0.991
	l-29.581-38.845l14.069-41.01c-28.749,7.825-54.241,25.855-71.08,51.244l44.785-1.163l29.426,38.642l-12.571,40.41L167.845,195.5
	l-36.215-26.358c-0.536,30.462,10.23,59.77,29.466,82.523l11.68-41.761l46.389-15.207l30.838,22.445l3.231,46.162l-35.723,26.219
	c0.515,0.168,1.027,0.341,1.546,0.503c28.682,8.923,58.153,6.938,83.943-3.607l-34.473-22.646l-3.21-45.862l32.8-25.563
	l41.916,13.04l13.566,43.003c9.208-11.648,16.476-25.148,21.151-40.174C379.425,193.189,381.097,177.948,380.122,163.132z"/>
<g>
	<path style="fill:#1D4859;" d="M380.123,163.146c0-0.004-0.001-0.009-0.001-0.014l-35.567,27.719l-10.256-3.191
		c-0.671,5.007-1.653,10.021-2.962,15.02l8.697,2.706l13.566,43.003c6.904-8.734,12.718-18.509,17.165-29.187
		c0.038-0.09,0.073-0.182,0.11-0.273c0.331-0.799,0.656-1.602,0.971-2.411c0.087-0.223,0.168-0.45,0.254-0.674
		c0.261-0.681,0.521-1.362,0.771-2.049c0.148-0.407,0.286-0.819,0.43-1.229c0.181-0.514,0.365-1.026,0.54-1.543
		c0.247-0.732,0.482-1.47,0.716-2.21c0.063-0.2,0.131-0.398,0.194-0.598c0.006-0.018,0.011-0.037,0.016-0.055
		c0.299-0.964,0.585-1.928,0.86-2.894c0.1-0.352,0.192-0.704,0.288-1.055c0.174-0.631,0.348-1.261,0.511-1.892
		c0.111-0.431,0.215-0.862,0.321-1.293c0.136-0.549,0.272-1.099,0.4-1.648c0.111-0.477,0.215-0.954,0.32-1.431
		c0.11-0.499,0.22-0.999,0.324-1.498c0.107-0.514,0.208-1.027,0.308-1.541c0.089-0.458,0.177-0.916,0.261-1.374
		c0.1-0.548,0.196-1.096,0.289-1.645c0.07-0.416,0.139-0.833,0.205-1.249c0.093-0.585,0.182-1.17,0.267-1.755
		c0.053-0.367,0.103-0.734,0.152-1.101c0.085-0.631,0.168-1.262,0.243-1.893c0.036-0.3,0.068-0.6,0.101-0.9
		c0.078-0.695,0.154-1.39,0.219-2.084c0.018-0.193,0.033-0.385,0.051-0.578C380.467,175.889,380.539,169.479,380.123,163.146z"/>
	<path style="fill:#1D4859;" d="M282.556,272.987c-14.608,10.258-31.336,17.337-49.018,20.609
		c16.22,2.999,32.453,2.669,47.901-0.572c0.001,0,0.003-0.001,0.004-0.001c0.895-0.188,1.786-0.386,2.676-0.593
		c0.03-0.007,0.06-0.014,0.091-0.021c0.864-0.202,1.725-0.413,2.583-0.633c0.045-0.012,0.09-0.023,0.135-0.035
		c0.846-0.218,1.69-0.445,2.53-0.681c0.051-0.014,0.102-0.029,0.153-0.043c0.839-0.236,1.675-0.481,2.509-0.735
		c0.047-0.014,0.094-0.029,0.142-0.043c0.845-0.258,1.687-0.526,2.526-0.802c0.031-0.01,0.062-0.02,0.093-0.03
		c0.864-0.285,1.725-0.579,2.581-0.883c0.004-0.001,0.009-0.003,0.013-0.004c1.858-0.659,3.697-1.364,5.519-2.109L282.556,272.987z"
		/>
	<path style="fill:#1D4859;" d="M304.174,88.866c4.532,5.133,8.618,10.623,12.232,16.399l2.438-3.058l41.182,0.905
		c-0.001-0.001-0.002-0.003-0.003-0.004c-0.876-1.338-1.784-2.655-2.711-3.959c-0.126-0.177-0.249-0.355-0.376-0.532
		c-0.891-1.24-1.809-2.463-2.746-3.671c-0.169-0.218-0.339-0.435-0.509-0.652c-0.944-1.2-1.909-2.386-2.898-3.553
		c-0.146-0.172-0.296-0.342-0.443-0.514c-2.089-2.436-4.276-4.796-6.557-7.072c-0.157-0.157-0.312-0.316-0.47-0.472
		c-1.094-1.08-2.211-2.138-3.347-3.179c-0.207-0.189-0.414-0.378-0.622-0.566c-1.142-1.032-2.302-2.046-3.486-3.038
		c-0.178-0.149-0.358-0.295-0.537-0.443c-1.247-1.033-2.51-2.05-3.801-3.037c-0.002-0.001-0.004-0.003-0.006-0.004
		c-1.29-0.985-2.608-1.941-3.941-2.879c-0.189-0.133-0.376-0.268-0.566-0.4c-1.277-0.888-2.577-1.75-3.893-2.592
		c-0.244-0.156-0.489-0.312-0.734-0.466c-1.322-0.833-2.661-1.646-4.021-2.432c-0.207-0.12-0.417-0.236-0.625-0.354
		c-1.433-0.817-2.88-1.616-4.353-2.379c-0.004-0.002-0.008-0.004-0.011-0.006c-1.469-0.762-2.963-1.488-4.472-2.195
		c-0.22-0.103-0.438-0.209-0.659-0.311c-1.445-0.667-2.91-1.305-4.391-1.92c-0.277-0.115-0.556-0.23-0.834-0.343
		c-1.487-0.605-2.99-1.187-4.511-1.739c-0.233-0.084-0.468-0.165-0.702-0.248c-1.603-0.571-3.219-1.12-4.859-1.63
		c-0.518-0.161-1.038-0.304-1.557-0.458L304.174,88.866z"/>
</g>
<g>
</g>
<g>
</g>
<g>
</g>
<g>
</g>
<g>
</g>
<g>
</g>
<g>
</g>
<g>
</g>
<g>
</g>
<g>
</g>
<g>
</g>
<g>
</g>
<g>
</g>
<g>
</g>
<g>
</g>
</svg>
