<?xml version="1.0" encoding="iso-8859-1"?>
<!-- Generator: Adobe Illustrator 19.0.0, SVG Export Plug-In . SVG Version: 6.00 Build 0)  -->
<svg version="1.1" id="Capa_1" xmlns="http://www.w3.org/2000/svg" xmlns:xlink="http://www.w3.org/1999/xlink" x="0px" y="0px"
	 viewBox="0 0 512 512" style="enable-background:new 0 0 512 512;" xml:space="preserve">
<path style="fill:#2ECCA6;" d="M454.819,109.63c-0.71-4.632-4.88-7.922-9.555-7.607c-1.572,0.106-3.103,0.18-4.311,0.18
	c-40.533,0-73.824-28.12-77.45-64.022c-0.375-3.714-3.548-6.516-7.281-6.516H256.001H155.78c-3.733,0-6.906,2.802-7.281,6.516
	c-3.626,35.902-36.917,64.022-77.45,64.022c-1.225,0-2.788-0.076-4.392-0.185c-4.675-0.317-8.845,2.975-9.555,7.607
	C37.748,235.951,92.809,362.542,202.559,442.943l49.109,35.976c2.579,1.889,6.085,1.889,8.664,0l49.109-35.976
	C419.191,362.542,474.175,235.956,454.819,109.63z"/>
<path style="fill:#2CA888;" d="M454.819,109.63c-0.71-4.632-4.88-7.922-9.555-7.607c-1.572,0.106-3.103,0.18-4.311,0.18
	c-40.533,0-73.824-28.119-77.45-64.022c-0.375-3.714-3.548-6.516-7.281-6.516h-38.635c5.124,50.247,37.674,95.16,77.071,95.16
	c3.1,0,8.32-0.487,10.916-0.751c0.886-0.09,1.688,0.523,1.841,1.4c22.415,128.561-32.556,258.252-144.268,340.09l-13.489,9.881
	l2.011,1.473c2.579,1.889,6.085,1.889,8.664,0l49.109-35.976C419.191,362.542,474.175,235.956,454.819,109.63z"/>
<path style="fill:#F9C861;" d="M223.093,414.913c-49.963-36.601-88.432-84.564-111.25-138.704
	c-18.148-43.061-25.987-89.108-23.151-134.883c0.203-3.269,2.555-6.03,5.768-6.668c36.923-7.341,67.211-31.675,81.029-63.807
	c1.15-2.675,3.744-4.44,6.656-4.44h147.709c2.912,0,5.505,1.765,6.656,4.44c13.818,32.132,44.107,56.466,81.03,63.807
	c3.213,0.639,5.566,3.399,5.768,6.668c2.836,45.777-5.003,91.823-23.151,134.883c-22.817,54.14-61.287,102.103-111.25,138.704
	l-28.624,20.97c-2.55,1.868-6.016,1.868-8.565,0L223.093,414.913z"/>
<path style="fill:#F3A656;" d="M423.308,141.325c-0.202-3.269-2.555-6.029-5.768-6.668c-36.923-7.341-67.212-31.675-81.03-63.807
	c-1.15-2.675-3.744-4.44-6.656-4.44h-45.62c5.96,34.107,51.28,80.856,87.277,88.013c3.213,0.639,5.566,3.399,5.769,6.669
	c2.836,45.776-5.003,91.822-23.151,134.883c-22.27,52.842-59.457,99.793-107.681,136.046l5.271,3.862
	c2.55,1.868,6.016,1.868,8.565,0l28.624-20.97c49.963-36.601,88.432-84.564,111.25-138.704
	C418.305,233.148,426.144,187.102,423.308,141.325z"/>
<g>
	<path style="fill:#ED864A;" d="M489.604,463.918c-39.013-12.646-78.418-22.339-118.898-29.209
		c3.305-22.745,6.609-45.491,9.914-68.236c44.075,7.48,86.978,18.041,129.453,31.824c2.012,0.653,2.588,3.22,1.058,4.682
		c-7.818,7.472-15.511,15.106-23.038,22.864c-0.64,0.66-0.913,1.591-0.733,2.493c2.147,10.784,4.108,21.629,5.874,32.486
		C493.57,462.886,491.594,464.563,489.604,463.918z"/>
	<path style="fill:#ED864A;" d="M22.396,463.918c39.018-12.648,78.424-22.34,118.898-29.209
		c-3.305-22.745-6.609-45.491-9.914-68.236c-44.068,7.479-86.972,18.04-129.453,31.824c-2.013,0.653-2.588,3.22-1.058,4.682
		c7.818,7.472,15.51,15.106,23.037,22.864c0.64,0.66,0.913,1.591,0.733,2.493c-2.147,10.784-4.108,21.629-5.874,32.486
		C18.43,462.886,20.406,464.563,22.396,463.918z"/>
</g>
<path style="fill:#F3A656;" d="M443.139,414.42c-124.333-29.819-250.116-29.805-374.447,0.043
	c-4.938-21.346-9.875-42.691-14.812-64.037c-0.39-1.687,0.656-3.379,2.341-3.779c132.508-31.442,266.855-31.46,399.377-0.046
	c1.685,0.399,2.731,2.091,2.341,3.778C453.005,371.727,448.072,393.074,443.139,414.42z"/>
<path style="fill:#ED864A;" d="M455.597,346.602c-13.955-3.308-27.93-6.246-41.921-8.857l-15.514,67.211
	c15.01,2.726,30.004,5.873,44.978,9.464c4.933-21.347,9.866-42.694,14.8-64.041C458.328,348.693,457.282,347.001,455.597,346.602z"
	/>
<g>
	<path style="fill:#FFFFFF;" d="M187.274,275.786c4.668,0,9.163-1.902,9.163-6.052v-49.969h26.8c4.15,0,5.878-3.804,5.878-7.088
		c0-3.977-2.075-7.436-5.878-7.436h-26.8v-39.594h50.488c3.804,0,5.879-3.805,5.879-8.299c0-3.805-1.729-7.954-5.879-7.954h-60.689
		c-3.976,0-8.126,2.075-8.126,6.051v114.289C178.11,273.884,182.778,275.786,187.274,275.786z"/>
	<path style="fill:#FFFFFF;" d="M300.179,276.824c23.688,0,39.422-13.313,39.422-32.333c0-7.607-2.939-9.509-9.337-9.509
		c-5.015,0-8.646,1.555-8.991,6.051c-0.692,7.609-2.248,19.538-19.884,19.538c-13.659,0-21.094-7.088-21.094-22.304v-50.314
		c0-15.216,7.436-22.304,20.749-22.304c17.809,0,19.884,12.449,20.23,18.501c0.173,4.149,3.631,6.051,9.164,6.051
		c6.225,0,9.164-1.729,9.164-9.509c0-18.328-15.561-31.296-39.249-31.296c-20.922,0-38.384,10.547-38.384,38.558v50.314
		C261.968,266.277,279.257,276.824,300.179,276.824z"/>
</g>
<g>
	<path style="fill:#E05F07;" d="M370.706,434.709c23.931-7.819,47.931-14.526,72.433-20.289
		c-22.479-5.391-45.006-9.792-67.563-13.233C373.652,414.431,372.659,421.267,370.706,434.709z"/>
	<path style="fill:#E05F07;" d="M68.868,414.423c24.504,5.763,48.504,12.471,72.426,20.286c-1.953-13.442-2.946-20.278-4.87-33.521
		C113.869,404.629,91.345,409.032,68.868,414.423z"/>
</g>
<g>
</g>
<g>
</g>
<g>
</g>
<g>
</g>
<g>
</g>
<g>
</g>
<g>
</g>
<g>
</g>
<g>
</g>
<g>
</g>
<g>
</g>
<g>
</g>
<g>
</g>
<g>
</g>
<g>
</g>
</svg>
