<?xml version="1.0" encoding="iso-8859-1"?>
<!-- Generator: Adobe Illustrator 19.0.0, SVG Export Plug-In . SVG Version: 6.00 Build 0)  -->
<svg version="1.1" id="Capa_1" xmlns="http://www.w3.org/2000/svg" xmlns:xlink="http://www.w3.org/1999/xlink" x="0px" y="0px"
	 viewBox="0 0 512 512" style="enable-background:new 0 0 512 512;" xml:space="preserve">
<rect x="58.3" style="fill:#E1EFFB;" width="395.43" height="85.22"/>
<rect x="58.3" style="fill:#2C5871;" width="395.43" height="27.675"/>
<rect x="58.3" y="57.55" style="fill:#FF4F6D;" width="395.43" height="27.675"/>
<path style="fill:#E1EFFB;" d="M199.998,339.028L6.866,81.226c-10.009-13.361-7.784-32.223,5.06-42.888L58.098,0L312.08,339.028
	H199.998z"/>
<path style="fill:#FF4F6D;" d="M12.026,38.255l-0.1,0.083C-0.918,49.002-3.143,67.865,6.866,81.226l193.132,257.802h37.354
	L12.026,38.255z"/>
<polygon style="fill:#2C5871;" points="274.681,339.027 312.079,339.027 58.098,0 35.04,19.146 "/>
<path style="fill:#CCDFED;" d="M199.928,339.028L453.91,0l46.168,38.348c12.84,10.665,15.064,29.525,5.056,42.884L312.008,339.028
	H199.928z"/>
<polygon style="fill:#F93A5A;" points="476.97,19.154 453.91,0 199.928,339.027 237.335,339.027 "/>
<g>
	<path style="fill:#2C5871;" d="M500.078,38.348l-0.097-0.081l-225.317,300.76h37.344L505.134,81.233
		C515.142,67.874,512.918,49.014,500.078,38.348z"/>
	<path style="fill:#2C5871;" d="M332.637,435.038c-4.268,0-7.726-3.459-7.726-7.726v-80.558H187.095v80.558
		c0,4.268-3.459,7.726-7.726,7.726s-7.726-3.459-7.726-7.726v-81.767c0-7.854,6.39-14.244,14.244-14.244H326.12
		c7.854,0,14.243,6.39,14.243,14.244v81.767C340.363,431.579,336.904,435.038,332.637,435.038z"/>
</g>
<circle style="fill:#F3A656;" cx="256" cy="427.31" r="84.69"/>
<path style="fill:#ED864A;" d="M256.003,342.625c-7.978,0-15.689,1.127-23.007,3.189c35.586,10.027,61.68,42.705,61.68,81.498
	s-26.094,71.471-61.68,81.498c7.319,2.062,15.029,3.189,23.007,3.189c46.772,0,84.688-37.916,84.688-84.688
	C340.69,380.541,302.774,342.625,256.003,342.625z"/>
<path style="fill:#F9C861;" d="M257.023,377.396l14.822,30.032c0.166,0.337,0.487,0.57,0.859,0.624l33.142,4.816
	c0.935,0.136,1.309,1.285,0.632,1.945l-23.982,23.376c-0.269,0.262-0.391,0.639-0.328,1.009l5.661,33.008
	c0.16,0.931-0.818,1.642-1.654,1.202l-29.643-15.584c-0.332-0.175-0.729-0.175-1.061,0l-29.643,15.584
	c-0.837,0.44-1.814-0.271-1.654-1.202l5.661-33.008c0.063-0.37-0.059-0.747-0.328-1.009l-23.982-23.376
	c-0.677-0.66-0.303-1.809,0.632-1.945l33.142-4.816c0.371-0.054,0.692-0.287,0.859-0.624l14.822-30.032
	C255.396,376.549,256.604,376.549,257.023,377.396z"/>
<g>
</g>
<g>
</g>
<g>
</g>
<g>
</g>
<g>
</g>
<g>
</g>
<g>
</g>
<g>
</g>
<g>
</g>
<g>
</g>
<g>
</g>
<g>
</g>
<g>
</g>
<g>
</g>
<g>
</g>
</svg>
