<?xml version="1.0" encoding="iso-8859-1"?>
<!-- Generator: Adobe Illustrator 19.0.0, SVG Export Plug-In . SVG Version: 6.00 Build 0)  -->
<svg version="1.1" id="Capa_1" xmlns="http://www.w3.org/2000/svg" xmlns:xlink="http://www.w3.org/1999/xlink" x="0px" y="0px"
	 viewBox="0 0 512.001 512.001" style="enable-background:new 0 0 512.001 512.001;" xml:space="preserve">
<path style="fill:#FFC084;" d="M325.655,309.561c-10.789-2.168-18.551-14.684-18.551-25.689v-49.04H256l0,0h-51.104v49.04
	c0,11.005-7.762,23.52-18.551,25.689l-12.452,3.515v82.617H256l0,0h82.107v-82.617L325.655,309.561z"/>
<path style="fill:#F7B076;" d="M261.499,234.833v67.849c0,11.005,7.762,23.52,18.551,25.689l27.868,7.952l30.19,9.413v-32.658
	l-12.452-3.515c-10.789-2.168-18.551-14.684-18.551-25.689v-49.04L261.499,234.833L261.499,234.833z"/>
<path style="fill:#00F0FF;" d="M417.514,332.452l-73.647-22.963c-4.059-1.266-8.492,0.424-10.576,4.13
	c-10.129,18.007-40.893,35.442-77.29,35.442s-67.161-17.434-77.29-35.442c-2.084-3.706-6.517-5.395-10.576-4.13l-73.647,22.963
	c-41.691,12.275-70.317,50.544-70.317,94.005v66.151c0,10.71,8.682,19.392,19.392,19.392H468.44c10.71,0,19.392-8.682,19.392-19.392
	v-66.151C487.829,382.996,459.204,344.727,417.514,332.452z"/>
<path style="fill:#FFC084;" d="M358.484,124.878h-6.541v-7.682V98.835c0-25.925-10.643-51.047-30.289-67.963
	C306.251,17.609,284.6,6.033,256,5.714c-28.6,0.319-50.251,11.895-65.654,25.158C170.7,47.788,160.057,72.91,160.057,98.835v18.361
	v7.682h-6.541c-9.59,0-17.364,7.774-17.364,17.364v19.243c0,9.59,7.774,17.364,17.364,17.364h6.567
	c0.541,25.201,11.131,49.458,30.263,65.931c15.403,13.262,37.054,24.839,65.654,25.158c28.6-0.319,50.251-11.895,65.654-25.158
	c19.132-16.474,29.722-40.73,30.263-65.931h6.567c9.59,0,17.364-7.774,17.364-17.364v-19.243
	C375.849,132.652,368.074,124.878,358.484,124.878z"/>
<path style="fill:#F7B076;" d="M358.484,124.878h-6.541v-7.682V98.835c0-25.925-10.643-51.047-30.289-67.963
	C306.251,17.609,284.6,6.033,256,5.714c-8.162,0.091-15.756,1.102-22.803,2.804c17.644,4.262,31.844,12.876,42.851,22.354
	c19.646,16.916,30.289,42.038,30.289,67.963v18.361l-0.026,61.653c-0.541,25.201-11.131,49.458-30.263,65.931
	c-11.007,9.477-25.207,18.091-42.851,22.353c7.046,1.702,14.64,2.713,22.803,2.804c28.6-0.319,50.251-11.895,65.654-25.158
	c19.132-16.474,29.722-40.73,30.263-65.931h6.567c9.59,0,17.364-7.774,17.364-17.364v-19.243
	C375.849,132.652,368.074,124.878,358.484,124.878z"/>
<path style="fill:#F9A058;" d="M313.197,0H256h-57.197c-29.434,0-53.295,23.861-53.295,53.295v73.538c0,0,14.676-0.332,24.106,9.001
	c1.964,1.944,5.302,0.523,5.302-2.24V75.959c0-13.01,10.547-23.557,23.557-23.557h21.405c5.614,0,11.055,1.941,15.402,5.494
	l2.1,1.717c5.255,4.296,11.833,6.643,18.621,6.643c6.787,0,13.366-2.347,18.621-6.643l2.1-1.717
	c4.346-3.553,9.788-5.494,15.401-5.494h21.405c13.01,0,23.557,10.547,23.557,23.557v57.636c0,2.763,3.338,4.183,5.302,2.24
	c9.431-9.333,24.106-9.001,24.106-9.001V53.295C366.491,23.861,342.631,0,313.197,0z"/>
<path style="fill:#EF8F48;" d="M313.197,0h-45.599c29.434,0,53.295,23.861,53.295,53.295v0.288
	c9.401,3.093,16.191,11.939,16.191,22.376v57.636c0,2.763,3.338,4.183,5.302,2.24c9.431-9.333,24.106-9.001,24.106-9.001V53.295
	C366.491,23.861,342.631,0,313.197,0z"/>
<path style="fill:#E1EFFB;" d="M90.069,476.363H24.17v16.246c0,10.71,8.682,19.392,19.392,19.392h46.507V476.363z"/>
<path id="SVGCleanerId_0" style="fill:#E1EFFB;" d="M421.931,476.363V512h46.507c10.71,0,19.392-8.682,19.392-19.392v-16.246
	h-65.899V476.363z"/>
<g>
	<path style="fill:#E1EFFB;" d="M193.97,462.087c1.008,0,2.353-0.504,3.53-1.849l6.22-9.246v60.888h14.121v-77.026
		c0-3.194-3.194-5.043-6.22-5.043c-2.017,0-3.194,1.009-4.371,2.186l-15.466,18.324c-1.513,1.177-3.026,3.866-3.026,5.884
		C188.758,459.23,190.944,462.087,193.97,462.087z"/>
	<path style="fill:#E1EFFB;" d="M252.301,511.88v-45.253c0-16.307,8.237-23.872,22.023-23.872c13.785,0,22.191,7.565,22.191,23.872
		v45.253h14.121v-45.253c0-26.73-15.971-36.649-36.312-36.649c-20.342,0-36.144,9.919-36.144,36.649v45.253H252.301z"/>
</g>
<path style="fill:#00D6FF;" d="M417.514,332.452l-73.647-22.963c-4.059-1.266-8.492,0.424-10.576,4.13
	c-4.626,8.225-13.567,16.324-25.373,22.703l63.997,19.954c41.691,12.275,70.316,36.584,70.316,80.045V512h26.208
	c10.71,0,19.392-8.682,19.392-19.392v-66.151C487.829,382.996,459.204,344.727,417.514,332.452z"/>
<g>
	<path id="SVGCleanerId_0_1_" style="fill:#E1EFFB;" d="M421.931,476.363V512h46.507c10.71,0,19.392-8.682,19.392-19.392v-16.246
		h-65.899V476.363z"/>
</g>
<path style="fill:#CCDFED;" d="M442.23,512h26.208c10.71,0,19.392-8.682,19.392-19.392v-16.246h-45.599V512H442.23z"/>
<g>
	<path style="fill:#00BEEA;" d="M97.798,512v-81.863c0-4.269-3.461-7.73-7.73-7.73c-4.269,0-7.73,3.461-7.73,7.73V512H97.798z"/>
	<path style="fill:#00BEEA;" d="M429.661,512v-81.863c0-4.269-3.461-7.73-7.73-7.73s-7.73,3.461-7.73,7.73V512H429.661z"/>
</g>
<g>
</g>
<g>
</g>
<g>
</g>
<g>
</g>
<g>
</g>
<g>
</g>
<g>
</g>
<g>
</g>
<g>
</g>
<g>
</g>
<g>
</g>
<g>
</g>
<g>
</g>
<g>
</g>
<g>
</g>
</svg>
