<?xml version="1.0" encoding="iso-8859-1"?>
<!-- Generator: Adobe Illustrator 19.0.0, SVG Export Plug-In . SVG Version: 6.00 Build 0)  -->
<svg version="1.1" id="Capa_1" xmlns="http://www.w3.org/2000/svg" xmlns:xlink="http://www.w3.org/1999/xlink" x="0px" y="0px"
	 viewBox="0 0 512.001 512.001" style="enable-background:new 0 0 512.001 512.001;" xml:space="preserve">
<g>
	<path style="fill:#F3A656;" d="M277.299,135.425c-1.948,0-3.896-0.743-5.383-2.23c-2.973-2.973-2.973-7.793,0-10.765l120.2-120.2
		c2.974-2.973,7.793-2.973,10.766,0s2.973,7.793,0,10.765l-120.2,120.2C281.196,134.682,279.247,135.425,277.299,135.425z"/>
	<path style="fill:#F3A656;" d="M234.7,135.425c-1.948,0-3.896-0.743-5.383-2.23l-120.2-120.2c-2.973-2.973-2.973-7.793,0-10.765
		c2.974-2.973,7.793-2.973,10.766,0l120.2,120.2c2.973,2.973,2.973,7.793,0,10.765C238.597,134.682,236.648,135.425,234.7,135.425z"
		/>
</g>
<g>
	<path style="fill:#E27620;" d="M55.503,511.406l-9.076-3.595c-4.336-1.717-6.458-6.625-4.741-10.961l45.803-115.628l43.92,17.398
		L65.854,507.9C63.727,511.445,59.347,512.929,55.503,511.406z"/>
	<path style="fill:#E27620;" d="M456.497,511.406l9.076-3.595c4.336-1.717,6.458-6.625,4.741-10.961l-45.802-115.628l-43.92,17.398
		l65.555,109.279C448.273,511.445,452.653,512.929,456.497,511.406z"/>
</g>
<path style="fill:#45748C;" d="M493.168,435.953H18.832c-8.097,0-14.66-6.564-14.66-14.66V126.645c0-8.097,6.564-14.66,14.66-14.66
	h474.335c8.097,0,14.66,6.564,14.66,14.66v294.647C507.828,429.389,501.264,435.953,493.168,435.953z"/>
<path style="fill:#2C5871;" d="M493.168,111.985h-44.907c8.096,0,14.66,6.564,14.66,14.66v294.647c0,8.097-6.564,14.66-14.66,14.66
	h44.907c8.097,0,14.66-6.564,14.66-14.66V126.645C507.828,118.549,501.264,111.985,493.168,111.985z"/>
<path style="fill:#E8E7D9;" d="M38.681,396.881V151.057c0-2.52,2.043-4.563,4.563-4.563h364.837c2.52,0,4.563,2.043,4.563,4.563
	v245.824c0,2.52-2.043,4.563-4.563,4.563H43.244C40.724,401.444,38.681,399.401,38.681,396.881z"/>
<path style="fill:#D1CFBD;" d="M408.081,146.494h-44.907c2.52,0,4.563,2.043,4.563,4.563v245.824c0,2.52-2.043,4.563-4.563,4.563
	h44.907c2.52,0,4.563-2.043,4.563-4.563V151.057C412.644,148.537,410.601,146.494,408.081,146.494z"/>
<g>
	<path style="fill:#E1EFFB;" d="M459.206,203.038L459.206,203.038c-11.321,0-20.498-9.177-20.498-20.498l0,0
		c0-11.321,9.177-20.498,20.498-20.498l0,0c11.321,0,20.498,9.177,20.498,20.498l0,0
		C479.704,193.861,470.527,203.038,459.206,203.038z"/>
	<path style="fill:#E1EFFB;" d="M459.206,272.461L459.206,272.461c-11.321,0-20.498-9.177-20.498-20.498l0,0
		c0-11.321,9.177-20.498,20.498-20.498l0,0c11.321,0,20.498,9.177,20.498,20.498l0,0
		C479.704,263.283,470.527,272.461,459.206,272.461z"/>
	<path style="fill:#E1EFFB;" d="M479.704,319.162h-40.996c-4.205,0-7.612-3.408-7.612-7.612s3.408-7.612,7.612-7.612h40.996
		c4.205,0,7.612,3.408,7.612,7.612S483.909,319.162,479.704,319.162z"/>
	<path style="fill:#E1EFFB;" d="M479.704,356.335h-40.996c-4.205,0-7.612-3.408-7.612-7.612s3.408-7.612,7.612-7.612h40.996
		c4.205,0,7.612,3.408,7.612,7.612S483.909,356.335,479.704,356.335z"/>
	<path style="fill:#E1EFFB;" d="M479.704,393.509h-40.996c-4.205,0-7.612-3.408-7.612-7.612s3.408-7.612,7.612-7.612h40.996
		c4.205,0,7.612,3.408,7.612,7.612S483.909,393.509,479.704,393.509z"/>
</g>
<g>
	<path style="fill:#45748C;" d="M123.047,315.679c-3.589,0-7.055-1.733-7.055-5.075v-80.453c0-3.466,3.961-4.951,8.045-4.951
		c3.961,0,8.045,1.485,8.045,4.951v71.417h30.201c3.217,0,4.827,3.466,4.827,7.055c0,3.466-1.61,7.055-4.827,7.055h-39.236V315.679z
		"/>
	<path style="fill:#45748C;" d="M175.898,230.152c0-3.466,3.961-4.951,8.044-4.951c3.961,0,8.045,1.485,8.045,4.951v80.453
		c0,3.342-4.085,5.075-8.045,5.075c-4.084,0-8.044-1.733-8.044-5.075V230.152z"/>
	<path style="fill:#45748C;" d="M200.777,233.122c-0.124-0.495-0.248-0.99-0.248-1.238c0-3.961,5.817-6.684,10.15-6.684
		c2.723,0,4.827,0.866,5.446,3.218l18.938,67.086l18.814-67.086c0.618-2.352,2.723-3.218,5.447-3.218
		c4.331,0,10.149,2.847,10.149,6.684c0,0.371-0.124,0.743-0.247,1.238l-23.765,77.854c-1.114,3.713-5.694,5.446-10.398,5.446
		s-9.16-1.733-10.398-5.446L200.777,233.122z"/>
	<path style="fill:#45748C;" d="M294.102,264.065h18.814c3.218,0,5.075,3.094,5.075,6.436c0,2.847-1.609,6.189-5.075,6.189h-18.814
		v24.878h35.028c3.218,0,5.075,3.342,5.075,7.179c0,3.342-1.61,6.931-5.075,6.931h-44.064c-3.589,0-7.054-1.733-7.054-5.075v-80.329
		c0-3.342,3.465-5.074,7.054-5.074h44.064c3.465,0,5.075,3.59,5.075,6.931c0,3.837-1.856,7.179-5.075,7.179h-35.028V264.065z"/>
</g>
<g>
</g>
<g>
</g>
<g>
</g>
<g>
</g>
<g>
</g>
<g>
</g>
<g>
</g>
<g>
</g>
<g>
</g>
<g>
</g>
<g>
</g>
<g>
</g>
<g>
</g>
<g>
</g>
<g>
</g>
</svg>
