<?xml version="1.0" encoding="iso-8859-1"?>
<!-- Generator: Adobe Illustrator 19.0.0, SVG Export Plug-In . SVG Version: 6.00 Build 0)  -->
<svg version="1.1" id="Capa_1" xmlns="http://www.w3.org/2000/svg" xmlns:xlink="http://www.w3.org/1999/xlink" x="0px" y="0px"
	 viewBox="0 0 512 512" style="enable-background:new 0 0 512 512;" xml:space="preserve">
<g>
	<path style="fill:#CCDFED;" d="M277.963,123.727V43.255h-43.929v80.472C241.233,122.851,270.763,122.851,277.963,123.727z"/>
	<path style="fill:#CCDFED;" d="M153.99,154.083l-46.464-59.294l-23.53,18.438l46.861,59.801
		C138.021,166.097,145.757,159.757,153.99,154.083z"/>
	<path style="fill:#CCDFED;" d="M381.138,173.028l46.861-59.801l-23.53-18.438l-46.464,59.294
		C366.239,159.757,373.975,166.097,381.138,173.028z"/>
</g>
<path style="fill:#FF4F6D;" d="M292.729,51.444h-73.462c-6.769,0-12.256-5.487-12.256-12.256V12.256
	C207.011,5.487,212.498,0,219.267,0h73.462c6.769,0,12.256,5.487,12.256,12.256v26.932
	C304.985,45.956,299.498,51.444,292.729,51.444z"/>
<path style="fill:#F93A5A;" d="M292.729,0h-32.672v51.444h32.672c6.769,0,12.256-5.487,12.256-12.256V12.256
	C304.985,5.487,299.498,0,292.729,0z"/>
<g>
	<path style="fill:#F3A656;" d="M432.472,123.811l-39.349-30.834c-3.626-2.841-4.262-8.083-1.421-11.709l11.304-14.426
		c2.841-3.626,8.083-4.262,11.709-1.42l39.349,30.834c3.626,2.841,4.262,8.083,1.421,11.709l-11.304,14.426
		C441.34,126.016,436.098,126.652,432.472,123.811z"/>
	<path style="fill:#F3A656;" d="M79.524,123.811l39.349-30.834c3.626-2.841,4.262-8.083,1.421-11.709L108.99,66.842
		c-2.841-3.626-8.083-4.262-11.709-1.42L57.932,96.256c-3.626,2.841-4.262,8.083-1.42,11.709l11.304,14.426
		C70.656,126.016,75.898,126.652,79.524,123.811z"/>
</g>
<circle style="fill:#2C5871;" cx="255.998" cy="293.24" r="218.76"/>
<path style="fill:#1D4859;" d="M255.998,74.473c-7.438,0-14.787,0.375-22.034,1.1c110.472,11.049,196.73,104.282,196.73,217.664
	S344.437,499.851,233.964,510.9c7.247,0.725,14.596,1.1,22.034,1.1c120.82,0,218.764-97.944,218.764-218.764
	S376.818,74.473,255.998,74.473z"/>
<circle style="fill:#E1EFFB;" cx="255.998" cy="293.24" r="179.99"/>
<path style="fill:#CCDFED;" d="M255.998,113.25c-7.623,0-15.134,0.479-22.507,1.398c88.781,11.076,157.48,86.807,157.48,178.588
	s-68.699,167.512-157.48,178.588c7.374,0.92,14.884,1.398,22.507,1.398c99.404,0,179.987-80.583,179.987-179.987
	S355.402,113.25,255.998,113.25z"/>
<path style="fill:#2C5871;" d="M256.004,301.029c-2.901,0-5.686-1.628-7.027-4.418c-1.863-3.878-0.23-8.532,3.648-10.395
	l112.054-53.843c3.877-1.862,8.531-0.23,10.395,3.648c1.863,3.878,0.23,8.532-3.648,10.395l-112.054,53.843
	C258.284,300.781,257.135,301.029,256.004,301.029z"/>
<g>
	<path style="fill:#F3A656;" d="M255.998,113.25c-2.611,0-5.206,0.068-7.79,0.178v32.421c0,4.302,3.488,7.79,7.79,7.79
		c4.302,0,7.79-3.488,7.79-7.79v-32.421C261.204,113.318,258.609,113.25,255.998,113.25z"/>
	<path style="fill:#F3A656;" d="M255.998,432.833c-4.302,0-7.79,3.488-7.79,7.79v32.421c2.584,0.11,5.179,0.178,7.79,0.178
		s5.206-0.068,7.79-0.178v-32.421C263.788,436.321,260.3,432.833,255.998,432.833z"/>
	<path style="fill:#F3A656;" d="M435.807,285.447h-32.421c-4.302,0-7.79,3.488-7.79,7.79s3.488,7.79,7.79,7.79h32.421
		c0.11-2.584,0.178-5.179,0.178-7.79C435.985,290.625,435.917,288.031,435.807,285.447z"/>
	<path style="fill:#F3A656;" d="M76.19,301.027h32.421c4.302,0,7.79-3.488,7.79-7.79s-3.488-7.79-7.79-7.79H76.19
		c-0.11,2.584-0.178,5.179-0.178,7.79C76.011,295.848,76.079,298.442,76.19,301.027z"/>
	<path style="fill:#F3A656;" d="M377.635,160.582l-12.155,12.155c-3.042,3.042-3.042,7.975,0,11.017
		c1.521,1.521,3.515,2.282,5.508,2.282c1.994,0,3.987-0.761,5.508-2.282l12.155-12.156
		C385.139,167.77,381.464,164.095,377.635,160.582z"/>
	<path style="fill:#F3A656;" d="M135.499,402.718l-12.155,12.155c3.512,3.828,7.188,7.504,11.017,11.017l12.155-12.155
		c3.042-3.042,3.042-7.975,0-11.017C143.474,399.675,138.541,399.676,135.499,402.718z"/>
	<path style="fill:#F3A656;" d="M388.652,414.874l-12.155-12.156c-3.042-3.043-7.975-3.042-11.017,0s-3.042,7.974,0,11.017
		l12.155,12.156C381.464,422.378,385.139,418.702,388.652,414.874z"/>
	<path style="fill:#F3A656;" d="M123.344,171.599l12.155,12.156c1.521,1.521,3.515,2.282,5.508,2.282
		c1.994,0,3.987-0.761,5.508-2.282c3.042-3.042,3.042-7.974,0-11.017l-12.155-12.155
		C130.532,164.095,126.857,167.77,123.344,171.599z"/>
</g>
<circle style="fill:#FF4F6D;" cx="255.998" cy="293.24" r="33.597"/>
<g>
</g>
<g>
</g>
<g>
</g>
<g>
</g>
<g>
</g>
<g>
</g>
<g>
</g>
<g>
</g>
<g>
</g>
<g>
</g>
<g>
</g>
<g>
</g>
<g>
</g>
<g>
</g>
<g>
</g>
</svg>
