<?xml version="1.0" encoding="iso-8859-1"?>
<!-- Generator: Adobe Illustrator 19.0.0, SVG Export Plug-In . SVG Version: 6.00 Build 0)  -->
<svg version="1.1" id="Capa_1" xmlns="http://www.w3.org/2000/svg" xmlns:xlink="http://www.w3.org/1999/xlink" x="0px" y="0px"
	 viewBox="0 0 512.001 512.001" style="enable-background:new 0 0 512.001 512.001;" xml:space="preserve">
<path style="fill:#F3A656;" d="M511.739,429.051L461.35,145.398c-0.357-2.011-0.927-3.978-1.699-5.869l-29.533-72.29l0,0V28.941
	c0-2.926-2.372-5.298-5.298-5.298H87.181c-2.926,0-5.298,2.372-5.298,5.298V67.24L52.35,139.529
	c-0.772,1.891-1.342,3.858-1.699,5.869L0.261,429.051c-1.556,8.762,3.987,17.219,12.643,19.286l165.773,39.59
	c7.641,1.825,15.449-2.309,18.233-9.655L256,322.417l59.089,155.855c2.785,7.346,10.592,11.48,18.233,9.655l165.773-39.59
	C507.751,446.27,513.295,437.814,511.739,429.051z"/>
<path style="fill:#ED864A;" d="M511.738,429.051L461.35,145.398c-0.357-2.011-0.927-3.978-1.699-5.869l-29.533-72.29V28.941
	c0-2.926-2.372-5.298-5.298-5.298h-46.616c2.926,0,5.298,2.372,5.298,5.298V67.24l29.533,72.29c0.772,1.891,1.342,3.858,1.699,5.869
	l53.103,310.404l31.258-7.465C507.751,446.27,513.295,437.814,511.738,429.051z"/>
<path style="fill:#E1EFFB;" d="M511.739,429.051l-2.567-14.448l-200.103,47.789l6.021,15.88c2.785,7.346,10.592,11.48,18.233,9.655
	l165.773-39.59C507.751,446.27,513.295,437.814,511.739,429.051z"/>
<path style="fill:#CCDFED;" d="M511.738,429.051l-2.567-14.448l-46.484,11.101l5.149,30.098l31.258-7.465
	c2.164-0.517,4.134-1.433,5.846-2.653c0.428-0.305,0.84-0.629,1.235-0.971c1.975-1.708,3.525-3.855,4.528-6.254
	c0.401-0.96,0.714-1.96,0.932-2.988C512.073,433.413,512.128,431.242,511.738,429.051z"/>
<path style="fill:#E1EFFB;" d="M0.261,429.051c-1.556,8.762,3.987,17.219,12.643,19.286l165.773,39.59
	c7.641,1.825,15.449-2.309,18.233-9.655l6.021-15.88L2.828,414.603L0.261,429.051z"/>
<path style="fill:#ED864A;" d="M148.149,478.273c-0.282,0.745-0.629,1.447-1.009,2.123l31.538,7.532
	c7.641,1.825,15.448-2.309,18.233-9.655L256,322.417l-13.064-82.94c-0.359-2.278-3.505-2.602-4.321-0.445L148.149,478.273z"/>
<path style="fill:#CCDFED;" d="M158.194,451.708l-10.045,26.565c-0.282,0.745-0.629,1.447-1.009,2.123l31.538,7.532
	c7.641,1.825,15.449-2.309,18.233-9.655l6.021-15.88L158.194,451.708z"/>
<g>
	<path style="fill:#F9C861;" d="M326.496,384.08c-1.049,0-2.114-0.215-3.134-0.668c-3.899-1.733-5.656-6.299-3.923-10.198
		l20.604-46.358c1.733-3.9,6.301-5.653,10.198-3.923c3.899,1.733,5.656,6.299,3.923,10.198L333.56,379.49
		C332.281,382.369,329.456,384.08,326.496,384.08z"/>
	<path style="fill:#F9C861;" d="M355.475,384.08c-1.049,0-2.114-0.215-3.134-0.668c-3.899-1.733-5.656-6.299-3.923-10.198
		l20.604-46.358c1.733-3.9,6.3-5.653,10.198-3.923c3.899,1.733,5.656,6.299,3.923,10.198l-20.604,46.358
		C361.26,382.369,358.435,384.08,355.475,384.08z"/>
	<path style="fill:#F9C861;" d="M384.455,384.08c-1.049,0-2.114-0.215-3.134-0.668c-3.899-1.733-5.656-6.299-3.923-10.198
		l20.604-46.358c1.733-3.9,6.3-5.653,10.198-3.923c3.899,1.733,5.656,6.299,3.923,10.198l-20.604,46.358
		C390.24,382.369,387.415,384.08,384.455,384.08z"/>
	<path style="fill:#F9C861;" d="M413.434,384.08c-1.049,0-2.114-0.215-3.134-0.668c-3.899-1.733-5.656-6.299-3.923-10.198
		l20.604-46.358c1.733-3.9,6.302-5.653,10.198-3.923c3.899,1.733,5.656,6.299,3.923,10.198l-20.604,46.358
		C419.218,382.369,416.393,384.08,413.434,384.08z"/>
</g>
<path style="fill:#CCDFED;" d="M294.808,122.672c-3.442,0-6.579-2.315-7.477-5.802c-8.244-32.019-21.414-47.26-26.118-51.89H250.78
	c-4.654,4.582-17.854,19.821-26.111,51.89c-1.064,4.133-5.276,6.619-9.409,5.556c-4.132-1.064-6.62-5.277-5.556-9.409
	c11.617-45.118,32.607-61.279,33.494-61.945c1.338-1.003,2.964-1.545,4.636-1.545h16.33c1.672,0,3.299,0.542,4.636,1.545
	c0.887,0.666,21.877,16.826,33.494,61.945c1.064,4.132-1.423,8.345-5.555,9.409C296.094,122.592,295.445,122.672,294.808,122.672z"
	/>
<path id="SVGCleanerId_0" style="fill:#E1EFFB;" d="M430.117,67.24H81.883V28.941c0-2.926,2.372-5.298,5.299-5.298H424.82
	c2.926,0,5.298,2.372,5.298,5.298V67.24H430.117z"/>
<g>
	<path id="SVGCleanerId_0_1_" style="fill:#E1EFFB;" d="M430.117,67.24H81.883V28.941c0-2.926,2.372-5.298,5.299-5.298H424.82
		c2.926,0,5.298,2.372,5.298,5.298V67.24H430.117z"/>
</g>
<path style="fill:#CCDFED;" d="M430.117,67.24V28.941c0-1.829-0.927-3.441-2.336-4.394c-0.564-0.381-1.205-0.656-1.895-0.797
	c-0.345-0.071-0.702-0.108-1.068-0.108h-46.616c2.926,0,5.298,2.372,5.298,5.298v38.3H430.117z"/>
<g>
</g>
<g>
</g>
<g>
</g>
<g>
</g>
<g>
</g>
<g>
</g>
<g>
</g>
<g>
</g>
<g>
</g>
<g>
</g>
<g>
</g>
<g>
</g>
<g>
</g>
<g>
</g>
<g>
</g>
</svg>
