<?xml version="1.0" encoding="iso-8859-1"?>
<!-- Generator: Adobe Illustrator 19.0.0, SVG Export Plug-In . SVG Version: 6.00 Build 0)  -->
<svg version="1.1" id="Capa_1" xmlns="http://www.w3.org/2000/svg" xmlns:xlink="http://www.w3.org/1999/xlink" x="0px" y="0px"
	 viewBox="0 0 512.001 512.001" style="enable-background:new 0 0 512.001 512.001;" xml:space="preserve">
<path style="fill:#00BEEA;" d="M263.453,126.676h-14.905c-43.177,0-78.18-35.002-78.18-78.18l0,0h171.265l0,0
	C341.632,91.674,306.63,126.676,263.453,126.676z"/>
<path style="fill:#00F0FF;" d="M343.961,48.496H339.7c-4.042,0-7.685,2.387-9.347,6.072C317.577,82.9,289.097,102.626,256,102.626
	S194.423,82.9,181.648,54.568c-1.662-3.685-5.305-6.072-9.347-6.072h-4.261c-16.377,0-32.355,5.053-45.754,14.47L6.784,144.141
	c-7.274,5.112-8.968,15.183-3.767,22.394l46.423,64.364c5.064,7.021,14.802,8.725,21.949,3.841l54.113-36.981v252.177
	c0,7.494,6.075,13.57,13.57,13.57h233.857c7.494,0,13.57-6.075,13.57-13.57V197.757l54.113,36.981
	c7.147,4.884,16.885,3.18,21.949-3.841l46.423-64.364c5.201-7.211,3.507-17.281-3.767-22.394L389.714,62.966
	C376.315,53.549,360.337,48.496,343.961,48.496z"/>
<g>
	<path style="fill:#00D6FF;" d="M505.216,144.141l-24.044-16.899l-65.325,90.572l24.765,16.925
		c7.147,4.884,16.885,3.18,21.949-3.841l46.423-64.364C514.184,159.323,512.49,149.253,505.216,144.141z"/>
	<path style="fill:#00D6FF;" d="M340.655,166.324v297.18h32.273c7.494,0,13.57-6.075,13.57-13.57V197.757L340.655,166.324z"/>
</g>
<g>
	<path style="fill:#E1EFFB;" d="M204.215,226.233l-5.729,7.202c-1.145,1.146-2.619,1.637-3.601,1.637
		c-3.437,0-5.892-3.601-5.892-7.039c0-2.455,1.309-5.238,3.437-6.711l17.024-16.369c1.145-1.146,2.455-1.8,4.42-1.8
		c3.601,0,7.693,2.128,7.693,5.729v108.36c0,3.765-4.42,5.729-8.676,5.729c-4.42,0-8.675-1.964-8.675-5.729L204.215,226.233
		L204.215,226.233z"/>
	<path style="fill:#E1EFFB;" d="M240.061,287.452V239.82c0-26.517,15.878-36.502,36.665-36.502c20.624,0,36.829,9.985,36.829,36.502
		v47.632c0,26.517-16.205,36.501-36.829,36.501C255.938,323.953,240.061,313.969,240.061,287.452z M296.204,239.819
		c0-14.404-7.366-21.116-19.478-21.116c-12.276,0-19.315,6.711-19.315,21.116v47.632c0,14.404,7.039,21.115,19.315,21.115
		c12.113,0,19.478-6.711,19.478-21.115V239.819z"/>
	<path style="fill:#E1EFFB;" d="M14.751,138.542l-7.967,5.599c-7.274,5.112-8.968,15.183-3.767,22.394l46.423,64.364
		c5.064,7.021,14.802,8.725,21.949,3.841l8.537-5.834L14.751,138.542z"/>
</g>
<path style="fill:#CCDFED;" d="M430.78,228.019l9.832,6.719c7.147,4.884,16.885,3.18,21.949-3.841l46.423-64.364
	c5.201-7.211,3.507-17.281-3.767-22.394l-9.25-6.501l0,0L430.78,228.019z"/>
<g>
</g>
<g>
</g>
<g>
</g>
<g>
</g>
<g>
</g>
<g>
</g>
<g>
</g>
<g>
</g>
<g>
</g>
<g>
</g>
<g>
</g>
<g>
</g>
<g>
</g>
<g>
</g>
<g>
</g>
</svg>
