<?xml version="1.0" encoding="iso-8859-1"?>
<!-- Generator: Adobe Illustrator 19.0.0, SVG Export Plug-In . SVG Version: 6.00 Build 0)  -->
<svg version="1.1" id="Capa_1" xmlns="http://www.w3.org/2000/svg" xmlns:xlink="http://www.w3.org/1999/xlink" x="0px" y="0px"
	 viewBox="0 0 512 512" style="enable-background:new 0 0 512 512;" xml:space="preserve">
<path style="fill:#FF4F6D;" d="M426.906,198.665c-105.384,2.226-187.407,88.863-294.722,84.253L84.443,95.817
	c-1.456-5.705,2.799-11.28,8.686-11.361C196.55,83.022,277.354-0.144,381.251,0c4.687,0.007,8.784,3.172,9.943,7.714
	c15.156,59.396,30.312,118.792,45.468,178.187C438.297,192.309,433.518,198.526,426.906,198.665z"/>
<path style="fill:#F93A5A;" d="M436.662,185.901C421.506,126.506,406.35,67.11,391.194,7.714c-1.159-4.542-5.256-7.707-9.943-7.714
	c-13.155-0.018-25.938,1.303-38.446,3.621c14.274,55.885,36.098,140.411,50.943,198.462c10.824-1.964,21.856-3.179,33.158-3.418
	C433.518,198.526,438.297,192.309,436.662,185.901z"/>
<path style="fill:#2C5871;" d="M165.232,419.88c-3.441,0-6.577-2.32-7.467-5.807L75.257,90.728
	c-1.053-4.127,1.439-8.326,5.565-9.379c4.126-1.053,8.326,1.438,9.379,5.565l82.508,323.346c1.053,4.127-1.439,8.326-5.565,9.379
	C166.504,419.802,165.863,419.88,165.232,419.88z"/>
<path style="fill:#F3A656;" d="M201.295,505.983l-22.808,5.82c-3.368,0.859-6.796-1.174-7.655-4.543L132.84,358.372
	c-0.859-3.368,1.174-6.796,4.543-7.655l22.808-5.82c3.368-0.859,6.796,1.174,7.655,4.543l37.992,148.889
	C206.697,501.696,204.664,505.124,201.295,505.983z"/>
<g>
</g>
<g>
</g>
<g>
</g>
<g>
</g>
<g>
</g>
<g>
</g>
<g>
</g>
<g>
</g>
<g>
</g>
<g>
</g>
<g>
</g>
<g>
</g>
<g>
</g>
<g>
</g>
<g>
</g>
</svg>
