<?xml version="1.0" encoding="iso-8859-1"?>
<!-- Generator: Adobe Illustrator 19.0.0, SVG Export Plug-In . SVG Version: 6.00 Build 0)  -->
<svg version="1.1" id="Capa_1" xmlns="http://www.w3.org/2000/svg" xmlns:xlink="http://www.w3.org/1999/xlink" x="0px" y="0px"
	 viewBox="0 0 512 512" style="enable-background:new 0 0 512 512;" xml:space="preserve">
<path style="fill:#F9C861;" d="M426.784,198.665c-105.384,2.226-187.407,88.863-294.721,84.254L84.32,95.817
	c-1.456-5.704,2.799-11.28,8.686-11.361C196.427,83.022,277.231-0.144,381.128,0c4.687,0.007,8.784,3.172,9.943,7.714
	c15.155,59.396,30.312,118.792,45.467,178.188C438.174,192.309,433.395,198.525,426.784,198.665z"/>
<path style="fill:#F3A656;" d="M436.539,185.902C421.383,126.506,406.227,67.11,391.071,7.714c-1.159-4.542-5.256-7.707-9.943-7.714
	c-13.098-0.018-25.83,1.291-38.285,3.59c16.4,64.238,34.482,134.252,50.878,198.476c10.794-1.954,21.795-3.163,33.063-3.401
	C433.395,198.525,438.174,192.309,436.539,185.902z"/>
<g>
	<path style="fill:#FF4F6D;" d="M260.605,141.549c-49.693,23.624-97.741,44.584-153.888,42.045c0,0,0,0,0,0.001l25.345,99.324
		c55.912,2.402,104.958-19.966,154.02-42.258C277.675,207.949,267.064,166.86,260.605,141.549z"/>
	<path style="fill:#FF4F6D;" d="M391.071,7.714c-1.159-4.542-5.256-7.707-9.943-7.714c-52.511-0.073-99.122,21.135-145.736,42.315
		c8.084,31.727,17.278,68.137,25.212,99.232c49.693-23.624,97.74-44.585,153.888-42.046C406.685,68.906,398.879,38.31,391.071,7.714
		z"/>
</g>
<path style="fill:#F3A656;" d="M436.539,185.902C421.383,126.506,406.227,67.11,391.071,7.714c-1.159-4.542-5.256-7.707-9.943-7.714
	c-13.098-0.018-25.83,1.291-38.285,3.59c16.4,64.238,34.482,134.252,50.878,198.476c10.794-1.954,21.795-3.163,33.063-3.401
	C433.395,198.525,438.174,192.309,436.539,185.902z"/>
<path style="fill:#F93A5A;" d="M414.492,99.502c-7.807-30.596-15.615-61.192-23.422-91.788c-1.158-4.542-5.255-7.707-9.942-7.714
	c-13.098-0.018-25.83,1.291-38.285,3.59c8.179,32.039,16.778,65.516,25.376,98.994C383.136,99.97,398.485,98.778,414.492,99.502z"/>
<path style="fill:#2C5871;" d="M165.354,421.422c-3.441,0-6.577-2.319-7.466-5.807L75.38,92.27
	c-1.053-4.127,1.439-8.326,5.565-9.379c4.126-1.053,8.326,1.438,9.379,5.565l82.509,323.345c1.053,4.127-1.439,8.326-5.565,9.379
	C166.627,421.344,165.985,421.422,165.354,421.422z"/>
<path style="fill:#F3A656;" d="M201.173,505.983l-22.808,5.82c-3.368,0.859-6.795-1.174-7.655-4.542l-37.992-148.89
	c-0.859-3.368,1.174-6.795,4.542-7.655l22.808-5.82c3.368-0.859,6.795,1.174,7.655,4.542l37.992,148.889
	C206.575,501.696,204.541,505.124,201.173,505.983z"/>
<g>
</g>
<g>
</g>
<g>
</g>
<g>
</g>
<g>
</g>
<g>
</g>
<g>
</g>
<g>
</g>
<g>
</g>
<g>
</g>
<g>
</g>
<g>
</g>
<g>
</g>
<g>
</g>
<g>
</g>
</svg>
