<?xml version="1.0" encoding="iso-8859-1"?>
<!-- Generator: Adobe Illustrator 19.0.0, SVG Export Plug-In . SVG Version: 6.00 Build 0)  -->
<svg version="1.1" id="Capa_1" xmlns="http://www.w3.org/2000/svg" xmlns:xlink="http://www.w3.org/1999/xlink" x="0px" y="0px"
	 viewBox="0 0 512.001 512.001" style="enable-background:new 0 0 512.001 512.001;" xml:space="preserve">
<path style="fill:#CCDFED;" d="M489.136,400.734l-34.494-30.372c0.208-0.975,0.323-1.985,0.323-3.021v-27.734v-34.773v-34.773
	V235.29c0-0.002,0-0.004,0-0.005v-34.77l0,0l0,0v-0.035v-0.001v-0.011v-34.725c0-0.002,0-0.004,0-0.005v-27.731
	c0-0.999-0.102-1.974-0.296-2.917l33.565-28.271c3.257-2.744,3.674-7.609,0.93-10.866c-2.743-3.257-7.608-3.675-10.866-0.93
	l-34.369,28.948c-1.102-0.269-2.246-0.428-3.43-0.428h-28.307h-34.2h-35.347h-34.2H273.1l0,0l0,0h-34.2h-35.347h-34.196
	c-0.002,0-0.004,0-0.005,0h-35.345h-34.2H71.5c-1.184,0-2.328,0.159-3.43,0.428l-49.616-41.79c-3.258-2.744-8.123-2.328-10.866,0.93
	c-2.744,3.257-2.327,8.122,0.93,10.866l48.813,41.114c-0.194,0.942-0.296,1.918-0.296,2.917v27.733v34.773v34.773l0,0l0,0v34.773
	v34.773l0,0l0,0v34.771c0,0.002,0,0.004,0,0.005v27.731c0,1.025,0.111,2.025,0.315,2.991l-48.96,43.11
	c-3.196,2.815-3.506,7.688-0.691,10.884c1.524,1.731,3.652,2.615,5.791,2.615c1.81,0,3.628-0.634,5.094-1.924l49.545-43.625
	c1.084,0.26,2.209,0.413,3.372,0.413h28.307l0,0l0,0h34.2l0,0l0,0h35.346h34.2l0,0l0,0H238.9h34.2h35.346l0,0l0,0h34.2h35.347h34.2
	l0,0l0,0H440.5c1.151,0,2.265-0.149,3.339-0.405l35.104,30.909c1.466,1.29,3.284,1.924,5.094,1.924c2.138,0,4.267-0.884,5.791-2.615
	C492.642,408.422,492.332,403.549,489.136,400.734z M140.774,252.674l-11.933,11.934l-11.934,11.934L93.04,252.674l11.934-11.933
	l11.934-11.933L140.774,252.674z M127.813,217.901l11.933-11.934l11.934-11.934l23.867,23.867l-23.867,23.867L127.813,217.901z
	 M139.747,275.514l11.933-11.934l11.933,11.934l11.933,11.934l-23.867,23.867l-23.867-23.867L139.747,275.514z M174.52,264.608
	l-11.933-11.934l23.867-23.867l23.867,23.867l-11.933,11.934l-11.933,11.934L174.52,264.608z M197.36,217.901l23.867-23.867
	l23.867,23.867l-23.867,23.867l-11.934-11.933L197.36,217.901z M221.227,263.58l11.934,11.934l11.933,11.934l-23.867,23.867
	l-11.934-11.933l-11.934-11.933L221.227,263.58z M244.067,264.608l-11.933-11.934L256,228.807l23.867,23.867l-11.933,11.934
	L256,276.541L244.067,264.608z M266.906,217.901l23.867-23.867l11.934,11.934l11.933,11.934l-23.867,23.867l-11.934-11.933
	L266.906,217.901z M290.773,263.58l11.934,11.934l11.933,11.934l-23.867,23.867l-11.934-11.933l-11.934-11.933L290.773,263.58z
	 M301.679,252.674l11.934-11.933l11.934-11.933l23.867,23.867l-11.933,11.934l-11.934,11.934L301.679,252.674z M336.453,217.901
	l11.933-11.934l11.933-11.934l11.933,11.934l11.933,11.934l-23.867,23.867L336.453,217.901z M348.386,275.514l11.933-11.934
	l11.933,11.934l11.933,11.934l-23.867,23.867l-23.867-23.867L348.386,275.514z M383.159,264.608l-11.933-11.934l11.934-11.933
	l11.934-11.933l23.867,23.867l-23.867,23.867L383.159,264.608z M395.093,206.995l-23.867-23.867l23.867-23.867l11.934,11.934
	l11.933,11.934l-11.934,11.933L395.093,206.995z M345.84,138.967h28.958l9.388,9.388l-11.933,11.934l-11.933,11.934l-11.933-11.934
	l-11.933-11.934L345.84,138.967z M337.48,171.194l11.933,11.934l-23.867,23.867l-11.934-11.933l-11.934-11.933l23.867-23.867
	L337.48,171.194z M273.544,141.716l2.75-2.75h28.958l9.388,9.388l-23.867,23.867l-23.867-23.867L273.544,141.716z M279.867,183.128
	L256,206.995l-23.867-23.867l11.933-11.934L256,159.26L279.867,183.128z M206.747,138.967h28.959l9.388,9.388l-11.933,11.934
	l-11.934,11.934l-23.867-23.867L206.747,138.967z M210.321,183.128l-23.867,23.867l-11.934-11.933l-11.934-11.933l23.867-23.867
	L210.321,183.128z M137.201,138.967h28.958l9.388,9.388l-23.867,23.867l-11.934-11.934l-11.933-11.934L137.201,138.967z
	 M128.841,171.194l11.933,11.934l-23.867,23.867l-11.934-11.933L93.04,183.128l23.867-23.867L128.841,171.194z M72.459,138.967
	h24.154l2.75,2.75l6.638,6.638l-23.867,23.867l-9.675-9.675V138.967z M72.459,203.708l9.675-9.675l23.867,23.867l-11.934,11.933
	l-11.934,11.933l-9.675-9.675L72.459,203.708L72.459,203.708z M72.459,273.255l9.675-9.675l23.867,23.867l-11.934,11.933
	l-11.934,11.933l-9.675-9.675L72.459,273.255L72.459,273.255z M96.613,366.382H72.459v-23.58l9.675-9.675l23.867,23.867
	L96.613,366.382z M93.04,322.22l11.934-11.933l11.934-11.933l23.867,23.867l-11.933,11.934l-11.934,11.934L93.04,322.22z
	 M168.909,363.632l-2.75,2.75h-28.958l-9.388-9.388l23.867-23.867l23.867,23.867L168.909,363.632z M174.52,334.154l-11.933-11.934
	l23.867-23.867l11.934,11.934l11.933,11.934l-23.867,23.867L174.52,334.154z M235.706,366.382h-28.958l-9.388-9.388l23.867-23.867
	l23.867,23.867L235.706,366.382z M232.133,322.221l11.933-11.934L256,298.353l11.933,11.934l11.933,11.934L256,346.089
	L232.133,322.221z M305.252,366.382h-28.958l-9.388-9.388l23.867-23.867l23.867,23.867L305.252,366.382z M313.613,334.154
	l-11.934-11.933l23.867-23.867l11.934,11.934l11.933,11.934l-23.867,23.867L313.613,334.154z M377.549,363.632l-2.75,2.75h-28.958
	l-2.75-2.75l-6.638-6.638l23.867-23.867l23.867,23.867L377.549,363.632z M371.226,322.22l23.867-23.867l23.867,23.867
	l-11.933,11.934l-11.934,11.934L371.226,322.22z M439.541,366.382h-24.154l-9.388-9.388l11.934-11.933l11.934-11.933l9.674,9.674
	V366.382z M439.541,301.641l-9.674,9.674l-11.934-11.933l-11.934-11.933l23.867-23.867l6.841,6.841l2.834,2.834L439.541,301.641
	L439.541,301.641z M439.541,232.093l-9.675,9.675l-23.867-23.867l23.867-23.867l6.841,6.841l2.834,2.834L439.541,232.093
	L439.541,232.093z M439.541,162.547l-9.675,9.675l-11.934-11.934l-11.933-11.934l9.388-9.388h24.154V162.547z"/>
<path style="fill:#E1EFFB;" d="M0,93.478v340.32c0,3.788,3.07,6.858,6.858,6.858H21.06c3.788,0,6.858-3.07,6.858-6.858V103.372
	c0-2.27,1.84-4.11,4.11-4.11h447.945c2.27,0,4.11,1.84,4.11,4.11v330.426c0,3.788,3.07,6.858,6.858,6.858h14.202
	c3.788,0,6.858-3.07,6.858-6.858V93.478c0-12.224-9.909-22.133-22.133-22.133H22.133C9.909,71.344,0,81.254,0,93.478z"/>
<path style="fill:#CCDFED;" d="M489.867,71.344h-13.666v27.918h3.772c2.27,0,4.11,1.84,4.11,4.11v330.426
	c0,3.788,3.07,6.858,6.858,6.858h14.202c3.788,0,6.858-3.07,6.858-6.858V93.477C512,81.254,502.091,71.344,489.867,71.344z"/>
<g>
</g>
<g>
</g>
<g>
</g>
<g>
</g>
<g>
</g>
<g>
</g>
<g>
</g>
<g>
</g>
<g>
</g>
<g>
</g>
<g>
</g>
<g>
</g>
<g>
</g>
<g>
</g>
<g>
</g>
</svg>
