<?xml version="1.0" encoding="iso-8859-1"?>
<!-- Generator: Adobe Illustrator 19.0.0, SVG Export Plug-In . SVG Version: 6.00 Build 0)  -->
<svg version="1.1" id="Capa_1" xmlns="http://www.w3.org/2000/svg" xmlns:xlink="http://www.w3.org/1999/xlink" x="0px" y="0px"
	 viewBox="0 0 512 512" style="enable-background:new 0 0 512 512;" xml:space="preserve">
<g>
	<path style="fill:#FF4F6D;" d="M132.506,102.856L74.127,82.137v45.996l58.378-20.719
		C134.651,106.652,134.651,103.618,132.506,102.856z"/>
	<path style="fill:#FF4F6D;" d="M496.333,102.856l-58.378-20.719v45.996l58.378-20.719
		C498.478,106.652,498.478,103.618,496.333,102.856z"/>
	<path style="fill:#FF4F6D;" d="M314.378,84.018L256,63.298v45.996l58.378-20.719C316.524,87.813,316.524,84.779,314.378,84.018z"/>
</g>
<g>
	<path style="fill:#CCDFED;" d="M74.128,193.76c-4.261,0-7.715-3.454-7.715-7.715V82.819c0-4.261,3.453-7.715,7.715-7.715
		s7.715,3.454,7.715,7.715v103.227C81.842,190.306,78.389,193.76,74.128,193.76z"/>
	<path style="fill:#CCDFED;" d="M437.955,192.007c-4.261,0-7.715-3.454-7.715-7.715V82.819c0-4.261,3.453-7.715,7.715-7.715
		s7.715,3.454,7.715,7.715v101.474C445.669,188.553,442.216,192.007,437.955,192.007z"/>
	<path style="fill:#CCDFED;" d="M256,193.76c-4.261,0-7.715-3.454-7.715-7.715V63.981c0-4.261,3.453-7.715,7.715-7.715
		c4.261,0,7.715,3.454,7.715,7.715v122.065C263.714,190.306,260.261,193.76,256,193.76z"/>
</g>
<ellipse style="fill:#2ECCA6;" cx="256" cy="397.721" rx="255.21" ry="58.01"/>
<path style="fill:#2CA888;" d="M256,339.711c-7.674,0-15.262,0.082-22.764,0.232c130.283,2.618,232.449,27.485,232.449,57.78
	c0,30.295-102.166,55.162-232.449,57.78c7.501,0.151,15.09,0.232,22.764,0.232c140.95,0,255.213-25.973,255.213-58.012
	C511.212,365.684,396.95,339.711,256,339.711z"/>
<path style="fill:#E8E7D9;" d="M512,214.478H0l40.613,176.171h0.106c3.212,17.01,111.995,33.721,215.28,33.721
	s216.182-16.712,219.395-33.721h0.106L512,214.478z"/>
<path style="fill:#D1CFBD;" d="M465.198,214.478l-40.002,195.649c29.497-5.71,48.894-12.569,50.199-19.478h0.106L512,214.478
	H465.198z"/>
<ellipse style="fill:#F9C861;" cx="256" cy="214.481" rx="256" ry="63.59"/>
<path style="fill:#F3A656;" d="M256,150.893c-7.67,0-15.256,0.089-22.755,0.253c130.723,2.861,233.245,30.12,233.245,63.332
	s-102.522,60.471-233.245,63.332c7.499,0.164,15.085,0.253,22.755,0.253c141.385,0,256-28.468,256-63.585
	S397.385,150.893,256,150.893z"/>
<path style="fill:#2ECCA6;" d="M256,237.894c-70.299,0-127.287,14.155-127.287,31.615c0,0.05,0.007,0.1,0.008,0.15
	c37.491,5.346,80.947,8.404,127.279,8.404s89.788-3.057,127.279-8.404c0.001-0.05,0.008-0.1,0.008-0.15
	C383.287,252.048,326.299,237.894,256,237.894z"/>
<path style="fill:#F3A656;" d="M294.044,355.245h-76.087c-6.068,0-10.987,4.919-10.987,10.987v56.946
	c14.523,0.693,29.288,1.102,43.979,1.179c1.68,0.007,3.36,0.014,5.05,0.014H256c1.692,0,3.375-0.007,5.057-0.014
	c14.617-0.076,29.387-0.48,43.974-1.165v-56.96C305.031,360.164,300.111,355.245,294.044,355.245z"/>
<path style="fill:#E27620;" d="M263.714,355.245h-15.429v69.083c0.888,0.007,1.776,0.024,2.664,0.029
	c1.68,0.007,3.36,0.014,5.05,0.014H256c1.692,0,3.375-0.007,5.057-0.014c0.884-0.005,1.773-0.022,2.658-0.029v-69.083H263.714z"/>
<g>
	<path style="fill:#FFFFFF;" d="M40.809,300.144c-0.92,0-1.856-0.166-2.766-0.516c-5.583-2.147-10.731-4.404-15.302-6.71
		c-3.804-1.919-5.332-6.558-3.413-10.362s6.559-5.332,10.362-3.413c4.113,2.075,8.786,4.122,13.889,6.084
		c3.977,1.529,5.962,5.993,4.432,9.97C46.833,298.263,43.909,300.144,40.809,300.144z"/>
	<path style="fill:#FFFFFF;" d="M256,329.278c-4.85,0-9.759-0.034-14.589-0.1c-4.261-0.059-7.666-3.56-7.608-7.821
		c0.059-4.26,3.554-7.685,7.821-7.608c9.519,0.133,19.229,0.133,28.749,0c4.253-0.086,7.762,3.347,7.82,7.608
		c0.059,4.26-3.347,7.761-7.607,7.821C265.756,329.244,260.849,329.278,256,329.278z M319.018,327.337
		c-4.04,0-7.435-3.143-7.693-7.231c-0.267-4.252,2.963-7.916,7.215-8.184c9.671-0.608,19.302-1.368,28.623-2.259
		c4.257-0.41,8.008,2.705,8.414,6.946s-2.704,8.008-6.945,8.413c-9.488,0.907-19.287,1.68-29.124,2.299
		C319.345,327.331,319.181,327.337,319.018,327.337z M192.981,327.336c-0.163,0-0.327-0.006-0.492-0.016
		c-9.836-0.619-19.634-1.392-29.122-2.299c-4.242-0.405-7.351-4.172-6.946-8.413s4.175-7.354,8.413-6.946
		c9.322,0.891,18.952,1.651,28.622,2.259c4.252,0.268,7.483,3.932,7.215,8.184C200.416,324.193,197.021,327.336,192.981,327.336z
		 M396.077,318.92c-3.716,0-6.989-2.691-7.605-6.477c-0.685-4.205,2.17-8.169,6.375-8.854c9.798-1.594,19.238-3.375,28.06-5.293
		c4.169-0.906,8.272,1.736,9.178,5.899c0.905,4.164-1.736,8.273-5.899,9.178c-9.086,1.976-18.795,3.808-28.859,5.446
		C396.906,318.888,396.488,318.92,396.077,318.92z M115.924,318.92c-0.412,0-0.829-0.033-1.249-0.101
		c-10.071-1.639-19.78-3.471-28.858-5.445c-4.163-0.906-6.805-5.014-5.899-9.178c0.905-4.164,5.013-6.806,9.178-5.899
		c8.814,1.917,18.254,3.698,28.057,5.293c4.205,0.685,7.06,4.648,6.376,8.854C122.913,316.23,119.639,318.92,115.924,318.92z"/>
	<path style="fill:#FFFFFF;" d="M471.191,300.144c-3.1,0-6.024-1.881-7.202-4.948c-1.53-3.977,0.455-8.44,4.432-9.97
		c5.099-1.961,9.773-4.008,13.89-6.084c3.804-1.919,8.442-0.391,10.361,3.414c1.919,3.804,0.391,8.443-3.414,10.362
		c-4.575,2.308-9.723,4.565-15.301,6.71C473.047,299.979,472.111,300.144,471.191,300.144z"/>
	<path style="fill:#FFFFFF;" d="M328.276,385.204c-4.04,0-7.435-3.143-7.693-7.231c-0.267-4.252,2.963-7.916,7.215-8.184
		c9.671-0.608,19.302-1.368,28.623-2.259c4.257-0.41,8.008,2.705,8.414,6.946s-2.704,8.008-6.945,8.413
		c-9.488,0.907-19.286,1.68-29.124,2.299C328.602,385.198,328.439,385.204,328.276,385.204z"/>
	<path style="fill:#FFFFFF;" d="M183.723,385.203c-0.163,0-0.327-0.006-0.492-0.016c-9.836-0.619-19.634-1.392-29.122-2.299
		c-4.242-0.405-7.351-4.172-6.946-8.413s4.175-7.354,8.413-6.946c9.322,0.891,18.952,1.651,28.622,2.259
		c4.252,0.268,7.483,3.932,7.215,8.184C191.158,382.059,187.763,385.203,183.723,385.203z"/>
	<path style="fill:#FFFFFF;" d="M405.335,376.787c-3.716,0-6.989-2.691-7.605-6.477c-0.685-4.205,2.17-8.169,6.375-8.854
		c9.798-1.594,19.238-3.375,28.06-5.293c4.169-0.906,8.272,1.736,9.178,5.899c0.905,4.164-1.736,8.273-5.899,9.178
		c-9.086,1.976-18.795,3.808-28.859,5.446C406.163,376.755,405.745,376.787,405.335,376.787z"/>
	<path style="fill:#FFFFFF;" d="M106.667,376.787c-0.412,0-0.829-0.033-1.249-0.101c-10.071-1.639-19.78-3.471-28.858-5.445
		c-4.163-0.906-6.805-5.014-5.899-9.178c0.905-4.164,5.013-6.806,9.178-5.899c8.814,1.917,18.254,3.698,28.057,5.293
		c4.205,0.685,7.06,4.648,6.376,8.854C113.656,374.097,110.381,376.787,106.667,376.787z"/>
</g>
<g>
	<path style="fill:#E5E4D4;" d="M165.649,247.242L53.68,175.52c-6.615,2.116-12.699,4.339-18.212,6.657l111.114,71.173
		C151.926,251.122,158.338,249.072,165.649,247.242z"/>
	<path style="fill:#E5E4D4;" d="M215.843,239.501l-59.338-83.626c-5.944,0.623-11.772,1.302-17.477,2.031l59.195,83.426
		C203.866,240.616,209.753,240.004,215.843,239.501z"/>
	<path style="fill:#E5E4D4;" d="M256,237.894c2.591,0,5.162,0.021,7.714,0.059v-87.029c-2.563-0.019-5.133-0.031-7.714-0.031
		s-5.151,0.012-7.715,0.031v87.029C250.838,237.915,253.409,237.894,256,237.894z"/>
	<path style="fill:#E5E4D4;" d="M313.704,241.322l59.196-83.426c-5.705-0.729-11.534-1.406-17.479-2.029l-59.339,83.628
		C302.173,239.997,308.061,240.608,313.704,241.322z"/>
</g>
<path style="fill:#CCDFED;" d="M355.421,155.867l-3.931,5.54c5.763,0.946,11.363,1.948,16.787,3.004l4.623-6.515
	c-2.618-0.334-5.27-0.655-7.94-0.968c-0.486-0.057-0.973-0.113-1.461-0.169C360.829,156.452,358.141,156.152,355.421,155.867z"/>
<path style="fill:#E5E4D4;" d="M365.371,253.331l111.114-71.173c-5.515-2.316-11.601-4.538-18.217-6.654l-111.973,71.724
	C353.608,249.056,360.023,251.105,365.371,253.331z"/>
<path style="fill:#CCDFED;" d="M458.268,175.504l-17.467,11.188c5.705,2.911,10.535,5.947,14.419,9.086l21.265-13.621
	c-4.093-1.719-8.503-3.386-13.208-4.996c-0.109-0.037-0.218-0.074-0.327-0.111C461.419,176.529,459.861,176.013,458.268,175.504z"/>
<g>
</g>
<g>
</g>
<g>
</g>
<g>
</g>
<g>
</g>
<g>
</g>
<g>
</g>
<g>
</g>
<g>
</g>
<g>
</g>
<g>
</g>
<g>
</g>
<g>
</g>
<g>
</g>
<g>
</g>
</svg>
