<?xml version="1.0" encoding="iso-8859-1"?>
<!-- Generator: Adobe Illustrator 19.0.0, SVG Export Plug-In . SVG Version: 6.00 Build 0)  -->
<svg version="1.1" id="Capa_1" xmlns="http://www.w3.org/2000/svg" xmlns:xlink="http://www.w3.org/1999/xlink" x="0px" y="0px"
	 viewBox="0 0 512.002 512.002" style="enable-background:new 0 0 512.002 512.002;" xml:space="preserve">
<circle style="fill:#E1EFFB;" cx="256" cy="256.001" r="256"/>
<path style="fill:#CCDFED;" d="M256,0.001c-7.714,0-15.342,0.361-22.882,1.029c130.662,11.577,233.117,121.3,233.117,254.971
	S363.78,499.395,233.118,510.972c7.54,0.668,15.168,1.029,22.882,1.029c141.385,0,256-114.615,256-256S397.385,0.001,256,0.001z"/>
<path style="fill:#2C5871;" d="M353.158,229.924l77.872-30.336l80.928,59.76c0.014-1.116,0.042-2.228,0.042-3.347
	c0-61.833-21.922-118.545-58.417-162.789l-26.186,91.197l-77.573,30.22l-86.091-59.811V75.482L347.9,17.009
	C319.372,6.033,288.392,0.001,256,0.001c-32.393,0-63.372,6.032-91.898,17.008l84.166,58.473v79.336l-86.002,59.749l-77.693-30.266
	L58.417,93.212C21.922,137.456,0,194.168,0,256.001c0,1.119,0.028,2.231,0.042,3.347l81.014-59.823l77.748,30.287l31.777,93.517
	l-51.869,72.907l-98.755-2.853c32.96,51.724,83.985,90.805,144.187,108.378l-32.818-96.582l51.367-72.202H309.29l51.379,72.218
	l-32.812,96.565c60.202-17.573,111.226-56.654,144.187-108.378l-98.771,2.853l-51.859-72.893L353.158,229.924z"/>
<g>
	<path style="fill:#204E63;" d="M425.396,394.732c-22.603,34.977-53.492,64.094-89.905,84.56l-7.635,22.47
		c16.843-4.917,32.966-11.519,48.178-19.609c0.116-0.062,0.233-0.122,0.349-0.184c1.535-0.819,3.059-1.657,4.576-2.506
		c0.202-0.113,0.405-0.225,0.607-0.339c1.459-0.823,2.909-1.661,4.35-2.512c0.249-0.147,0.499-0.294,0.747-0.442
		c1.409-0.838,2.808-1.689,4.2-2.553c0.268-0.166,0.535-0.333,0.801-0.5c1.377-0.862,2.746-1.736,4.105-2.623
		c0.265-0.173,0.529-0.348,0.793-0.522c1.363-0.897,2.719-1.805,4.064-2.727c0.235-0.161,0.469-0.326,0.704-0.488
		c1.373-0.948,2.738-1.906,4.091-2.88c0.17-0.123,0.338-0.248,0.508-0.371c1.415-1.025,2.823-2.059,4.217-3.112
		c0.036-0.027,0.071-0.055,0.107-0.082c8.94-6.759,17.419-14.095,25.389-21.946c0.195-0.192,0.393-0.381,0.587-0.573
		c1.085-1.075,2.154-2.165,3.22-3.26c0.31-0.319,0.624-0.634,0.932-0.955c0.997-1.035,1.98-2.082,2.96-3.133
		c0.363-0.39,0.728-0.777,1.088-1.169c0.938-1.019,1.864-2.048,2.785-3.083c0.388-0.435,0.776-0.87,1.161-1.308
		c0.893-1.016,1.776-2.04,2.653-3.071c0.397-0.466,0.792-0.933,1.186-1.402c0.859-1.025,1.711-2.056,2.555-3.094
		c0.392-0.483,0.782-0.968,1.171-1.454c0.834-1.042,1.663-2.09,2.481-3.145c0.377-0.486,0.75-0.977,1.124-1.466
		c0.819-1.072,1.634-2.148,2.436-3.233c0.349-0.473,0.693-0.949,1.039-1.425c0.813-1.116,1.623-2.235,2.419-3.364
		c0.304-0.431,0.601-0.868,0.902-1.301c0.826-1.188,1.648-2.377,2.454-3.58c0.218-0.325,0.429-0.654,0.645-0.98
		c0.877-1.321,1.75-2.646,2.602-3.985c0,0,0-0.001,0.001-0.001L425.396,394.732z"/>
	<path style="fill:#204E63;" d="M233.118,1.03c34.671,3.072,67.356,13.055,96.667,28.562l18.113-12.584
		c-0.004-0.001-0.008-0.003-0.011-0.004c-12.193-4.691-24.837-8.47-37.845-11.269c-0.396-0.085-0.79-0.175-1.187-0.258
		c-1.399-0.294-2.804-0.569-4.211-0.84c-0.618-0.119-1.235-0.241-1.854-0.355c-1.279-0.237-2.562-0.458-3.848-0.676
		c-0.759-0.128-1.518-0.256-2.28-0.378c-1.196-0.191-2.395-0.372-3.596-0.546c-0.865-0.125-1.732-0.247-2.6-0.364
		c-1.127-0.152-2.257-0.297-3.389-0.435c-0.958-0.116-1.919-0.224-2.881-0.329c-1.065-0.117-2.131-0.232-3.2-0.336
		c-1.052-0.102-2.108-0.192-3.163-0.281c-0.996-0.085-1.991-0.171-2.99-0.244c-1.164-0.085-2.333-0.153-3.502-0.222
		c-0.907-0.054-1.813-0.114-2.723-0.158c-1.351-0.066-2.707-0.11-4.063-0.155c-0.739-0.024-1.476-0.059-2.217-0.077
		c-2.107-0.051-4.219-0.08-6.338-0.08c-1.931,0-3.856,0.024-5.777,0.067C244.472,0.201,238.77,0.53,233.118,1.03z"/>
	<path style="fill:#204E63;" d="M511.921,249.773c-0.016-0.675-0.046-1.347-0.067-2.02c-0.044-1.396-0.092-2.79-0.159-4.18
		c-0.038-0.795-0.087-1.588-0.132-2.381c-0.072-1.268-0.15-2.535-0.241-3.798c-0.059-0.828-0.125-1.655-0.193-2.481
		c-0.101-1.234-0.21-2.466-0.328-3.696c-0.079-0.822-0.159-1.644-0.246-2.464c-0.133-1.252-0.278-2.501-0.428-3.748
		c-0.094-0.778-0.184-1.558-0.285-2.334c-0.176-1.355-0.37-2.705-0.567-4.054c-0.096-0.656-0.184-1.314-0.285-1.967
		c-0.307-1.992-0.633-3.978-0.987-5.954c-0.01-0.058-0.022-0.115-0.033-0.173c-0.344-1.921-0.712-3.833-1.1-5.739
		c-0.134-0.66-0.28-1.314-0.42-1.972c-0.275-1.303-0.554-2.606-0.849-3.902c-0.174-0.763-0.357-1.522-0.538-2.283
		c-0.282-1.189-0.569-2.376-0.868-3.558c-0.2-0.792-0.406-1.581-0.613-2.37c-0.303-1.151-0.614-2.299-0.932-3.444
		c-0.219-0.787-0.439-1.573-0.665-2.356c-0.335-1.163-0.683-2.32-1.034-3.476c-0.227-0.745-0.45-1.492-0.683-2.235
		c-0.394-1.253-0.803-2.499-1.215-3.744c-0.209-0.632-0.411-1.267-0.625-1.896c-0.631-1.855-1.279-3.703-1.951-5.539
		c-0.055-0.15-0.114-0.298-0.169-0.448c-0.624-1.695-1.265-3.381-1.923-5.059c-0.251-0.64-0.514-1.273-0.77-1.91
		c-0.476-1.185-0.955-2.369-1.448-3.545c-0.305-0.726-0.618-1.447-0.929-2.169c-0.466-1.082-0.935-2.162-1.415-3.236
		c-0.334-0.747-0.673-1.491-1.014-2.234c-0.481-1.048-0.968-2.092-1.462-3.132c-0.351-0.738-0.703-1.476-1.06-2.21
		c-0.514-1.055-1.038-2.103-1.565-3.15c-0.353-0.7-0.703-1.401-1.062-2.097c-0.582-1.128-1.177-2.247-1.775-3.365
		c-0.321-0.6-0.635-1.204-0.961-1.801c-0.914-1.677-1.844-3.345-2.795-4.999c-0.127-0.222-0.26-0.44-0.388-0.661
		c-0.851-1.47-1.713-2.932-2.592-4.384c-0.364-0.601-0.738-1.194-1.107-1.792c-0.65-1.053-1.301-2.105-1.965-3.148
		c-0.428-0.672-0.865-1.339-1.299-2.008c-0.624-0.96-1.252-1.919-1.889-2.87c-0.459-0.686-0.923-1.368-1.388-2.049
		c-0.636-0.93-1.278-1.856-1.926-2.778c-0.473-0.673-0.947-1.345-1.426-2.013c-0.669-0.933-1.347-1.858-2.029-2.782
		c-0.47-0.638-0.938-1.277-1.414-1.91c-0.748-0.994-1.509-1.979-2.271-2.962c-0.422-0.544-0.838-1.094-1.264-1.634
		c-1.171-1.486-2.356-2.96-3.559-4.419c-0.009-0.011-0.018-0.023-0.027-0.034l-14.039,48.892
		c12.571,25.255,21.095,52.876,24.716,82.023l47.698,35.222c0.014-1.116,0.042-2.228,0.042-3.347
		C512,253.919,511.97,251.844,511.921,249.773z"/>
</g>
<g>
</g>
<g>
</g>
<g>
</g>
<g>
</g>
<g>
</g>
<g>
</g>
<g>
</g>
<g>
</g>
<g>
</g>
<g>
</g>
<g>
</g>
<g>
</g>
<g>
</g>
<g>
</g>
<g>
</g>
</svg>
