<?xml version="1.0" encoding="iso-8859-1"?>
<!-- Generator: Adobe Illustrator 19.0.0, SVG Export Plug-In . SVG Version: 6.00 Build 0)  -->
<svg version="1.1" id="Capa_1" xmlns="http://www.w3.org/2000/svg" xmlns:xlink="http://www.w3.org/1999/xlink" x="0px" y="0px"
	 viewBox="0 0 512.001 512.001" style="enable-background:new 0 0 512.001 512.001;" xml:space="preserve">
<path style="fill:#F3A656;" d="M474.455,444.289H37.545c-4.946,0-8.956-4.01-8.956-8.956v-40.657H483.41v40.657
	C483.411,440.279,479.401,444.289,474.455,444.289z"/>
<path style="fill:#ED864A;" d="M437.188,394.676v49.613h37.266c4.946,0,8.956-4.01,8.956-8.956v-40.657H437.188z"/>
<path style="fill:#2C5871;" d="M506.239,409.161H5.761C2.579,409.161,0,406.582,0,403.4V73.472c0-3.182,2.579-5.761,5.761-5.761
	H506.24c3.182,0,5.761,2.579,5.761,5.761V403.4C512,406.582,509.421,409.161,506.239,409.161z"/>
<path style="fill:#204E63;" d="M506.239,67.711h-39.474v341.45h39.474c3.181,0,5.761-2.579,5.761-5.761V73.472
	C512,70.29,509.421,67.711,506.239,67.711z"/>
<g>
	<circle style="fill:#E1EFFB;" cx="256" cy="212.9" r="7.99"/>
	<circle style="fill:#E1EFFB;" cx="256" cy="266.51" r="7.99"/>
</g>
<path style="fill:#2ECCA6;" d="M220.204,358.567H51.577c-3.508,0-6.352-2.844-6.352-6.352V124.657c0-3.508,2.844-6.352,6.352-6.352
	h168.628c3.508,0,6.352,2.844,6.352,6.352v227.557C226.557,355.723,223.713,358.567,220.204,358.567z"/>
<path id="SVGCleanerId_0" style="fill:#2CA888;" d="M220.204,118.305h-39.698v240.262h39.698c3.508,0,6.352-2.844,6.352-6.352
	V124.657C226.557,121.149,223.712,118.305,220.204,118.305z"/>
<path style="fill:#2ECCA6;" d="M460.423,358.567H291.796c-3.508,0-6.352-2.844-6.352-6.352V124.657c0-3.508,2.844-6.352,6.352-6.352
	h168.628c3.508,0,6.352,2.844,6.352,6.352v227.557C466.776,355.723,463.932,358.567,460.423,358.567z"/>
<path id="SVGCleanerId_1" style="fill:#2CA888;" d="M460.423,118.305h-39.526v240.262h39.526c3.508,0,6.352-2.844,6.352-6.352
	V124.657C466.776,121.149,463.932,118.305,460.423,118.305z"/>
<rect x="45.22" y="230.7" style="fill:#E1EFFB;" width="181.33" height="15.465"/>
<g>
	<path id="SVGCleanerId_0_1_" style="fill:#2CA888;" d="M220.204,118.305h-39.698v240.262h39.698c3.508,0,6.352-2.844,6.352-6.352
		V124.657C226.557,121.149,223.712,118.305,220.204,118.305z"/>
</g>
<rect x="180.51" y="230.7" style="fill:#CCDFED;" width="46.05" height="15.465"/>
<rect x="285.44" y="230.7" style="fill:#E1EFFB;" width="181.33" height="15.465"/>
<g>
	<path id="SVGCleanerId_1_1_" style="fill:#2CA888;" d="M460.423,118.305h-39.526v240.262h39.526c3.508,0,6.352-2.844,6.352-6.352
		V124.657C466.776,121.149,463.932,118.305,460.423,118.305z"/>
</g>
<rect x="420.9" y="230.7" style="fill:#CCDFED;" width="45.879" height="15.465"/>
<g>
	<path style="fill:#2C5871;" d="M135.919,150.389c27.01,0,47.966,19.093,47.966,45.404c0,50.061-76.838,66.127-76.838,95.233v11.875
		h71.483c3.726,0,6.753,3.958,6.753,8.848c0,4.424-3.027,8.848-6.753,8.848H95.637c-3.725,0-8.848-2.794-8.848-6.985v-22.585
		c0-38.187,77.537-56.116,77.537-94.534c0-13.272-8.848-27.941-28.407-27.941c-14.902,0-26.311,8.15-26.311,25.38
		c0,3.958-3.725,7.684-10.245,7.684c-5.588,0-8.848-2.794-8.848-11.41C90.515,166.688,111.004,150.389,135.919,150.389z"/>
	<path style="fill:#2C5871;" d="M325.932,270.536V200.45c0-37.022,21.887-50.759,50.061-50.759s50.294,13.738,50.294,50.759v70.086
		c0,37.022-22.12,50.76-50.294,50.76C347.819,321.296,325.932,307.559,325.932,270.536z M406.729,200.45
		c0-22.585-11.642-33.063-30.736-33.063c-19.093,0-30.502,10.478-30.502,33.063v70.086c0,22.586,11.409,33.064,30.502,33.064
		c19.093,0,30.736-10.478,30.736-33.064V200.45z"/>
</g>
<g>
</g>
<g>
</g>
<g>
</g>
<g>
</g>
<g>
</g>
<g>
</g>
<g>
</g>
<g>
</g>
<g>
</g>
<g>
</g>
<g>
</g>
<g>
</g>
<g>
</g>
<g>
</g>
<g>
</g>
</svg>
