<svg height="512pt" viewBox="0 0 512 512.0377" width="512pt" xmlns="http://www.w3.org/2000/svg"><path d="m499.765625 109.476562c-17.664063-44.378906-52.816406-79.527343-97.195313-97.191406-21.351562-8.410156-44.140624-12.578125-67.085937-12.269531-39.972656.554687-78.652344 14.234375-110.082031 38.929687-15.859375-4.664062-32.285156-7.128906-48.816406-7.328124-22.949219-.308594-45.738282 3.859374-67.089844 12.273437-44.394532 17.589844-79.5625 52.722656-97.191406 97.101563-8.40625 21.386718-12.574219 44.203124-12.2695318 67.179687.2929688 23.164063 5.0273438 46.058594 13.9453128 67.441406 9.300781 22.289063 22.886719 42.535157 39.988281 59.585938 12.324219 12.355469 26.355469 22.878906 41.667969 31.25 5.84375 3.230469 11.855469 6.148437 18.007812 8.738281 18.921875 7.875 39.039063 12.5 59.5 13.683594 1.324219.089844 2.734375.089844 4.058594.175781 1.582031.074219 3.148437-.324219 4.503906-1.148437.371094-.171876.726563-.378907 1.058594-.617188l.175781.53125c31.425782-12.800781 66.914063-21.363281 102.222656-11.210938 11.382813 3.300782 22.191407 8.332032 32.046876 14.917969.402343-1.234375 1.097656-2.355469 2.027343-3.265625l37.429688-37.429687c.929687-.949219 2.082031-1.648438 3.355469-2.03125 3.195312-1.171875 6.777343-.378907 9.179687 2.03125l1.679687 1.675781c9.410157-2.164062 18.625-5.117188 27.539063-8.824219 45.003906-18.875 80.792969-54.664062 99.664063-99.664062 8.921874-21.382813 13.65625-44.277344 13.949218-67.445313.308594-22.945312-3.859375-45.734375-12.269531-67.089844zm0 0" fill="#802f34"/><path d="m360.023438 348.707031v.085938c-1.273438.382812-2.425782 1.082031-3.355469 2.03125l-37.429688 37.429687c-.929687.910156-1.625 2.03125-2.027343 3.265625-9.855469-6.585937-20.664063-11.617187-32.046876-14.917969-35.308593-10.152343-70.796874-1.589843-102.222656 11.210938l-.175781-.53125c.34375-.269531.667969-.566406.96875-.882812l40.253906-40.253907c.089844-.085937.089844-.085937.179688-.085937l130.648437-130.738282c.601563-.59375 1.109375-1.277343 1.5-2.03125l.351563.179688c-12.976563 31.6875-21.890625 67.617188-11.5625 103.28125 3.28125 11.363281 8.3125 22.144531 14.917969 31.957031zm0 0" fill="#cbb292"/><path d="m475.3125 481.914062-24.984375 24.894532c-3.292969 3.34375-7.792969 5.230468-12.488281 5.230468-4.699219 0-9.199219-1.886718-12.492188-5.230468l-6.179687-6.179688h-.089844l-12.445313-12.535156-49.875-49.875h-.089843l-37.429688-37.519531c-2.410156-2.402344-3.199219-5.984375-2.027343-9.179688.402343-1.234375 1.097656-2.355469 2.027343-3.265625l37.429688-37.429687c.929687-.949219 2.082031-1.648438 3.355469-2.03125 3.195312-1.171875 6.777343-.378907 9.179687 2.03125l106.109375 106.109375c3.3125 3.308594 5.175781 7.804687 5.175781 12.488281 0 4.6875-1.863281 9.179687-5.175781 12.492187zm0 0" fill="#7f6e5d"/><g fill="#7f8c8d"><path d="m394.1875 375.804688-24.984375 24.894531c-2.222656 2.238281-5.472656 3.125-8.523437 2.316406-3.050782-.804687-5.4375-3.175781-6.265626-6.222656-.828124-3.046875.03125-6.300781 2.253907-8.539063l24.984375-24.984375zm0 0"/><path d="m444.0625 425.683594-24.984375 24.980468c-1.621094 1.664063-3.855469 2.589844-6.179687 2.558594-2.347657.03125-4.609376-.890625-6.265626-2.558594-3.421874-3.441406-3.421874-9.003906 0-12.445312l24.980469-24.984375zm0 0"/><path d="m394.1875 425.683594-24.984375 24.980468-12.445313-12.445312 24.894532-24.984375c3.46875-3.441406 9.0625-3.441406 12.535156 0 3.421875 3.445313 3.421875 9.003906 0 12.449219zm0 0"/><path d="m444.0625 475.644531-24.894531 24.984375h-.089844l-12.445313-12.535156 24.980469-24.984375c3.445313-3.421875 9.003907-3.421875 12.449219 0 3.441406 3.472656 3.441406 9.066406 0 12.535156zm0 0"/></g><path d="m357.464844 208.699219c.058594 1.609375-.339844 3.203125-1.148438 4.589843-.390625.753907-.898437 1.4375-1.5 2.03125l-130.648437 130.738282c-.089844 0-.089844 0-.179688.085937l-40.253906 40.253907c-.300781.316406-.625.613281-.96875.882812-.332031.238281-.6875.445312-1.058594.617188-1.355469.824218-2.921875 1.222656-4.503906 1.148437-1.324219-.085937-2.734375-.085937-4.058594-.175781-20.460937-1.183594-40.578125-5.808594-59.5-13.683594-6.152343-2.589844-12.164062-5.507812-18.007812-8.738281-15.3125-8.371094-29.34375-18.894531-41.667969-31.25-17.101562-17.050781-30.6875-37.296875-39.988281-59.585938-8.917969-21.382812-13.652344-44.277343-13.9453128-67.441406-.3046872-22.976563 3.8632818-45.792969 12.2695318-67.179687 17.628906-44.378907 52.796874-79.511719 97.191406-97.101563 21.351562-8.414063 44.140625-12.582031 67.089844-12.273437 23.152343.332031 46.035156 5.035156 67.441406 13.859374 44.957031 18.945313 80.722656 54.710938 99.664062 99.664063 8.382813 20.183594 13.046875 41.714844 13.773438 63.558594zm0 0" fill="#cc4b4c"/><path d="m512.035156 176.566406c-.292968 23.167969-5.027344 46.0625-13.949218 67.445313-18.871094 45-54.660157 80.789062-99.664063 99.664062-8.914063 3.707031-18.128906 6.660157-27.539063 8.824219l-1.679687-1.675781c-2.402344-2.410157-5.984375-3.203125-9.179687-2.03125v-.085938c-6.605469-9.8125-11.636719-20.59375-14.917969-31.957031-10.328125-35.664062-1.414063-71.59375 11.5625-103.28125l-.351563-.179688c.808594-1.386718 1.207032-2.980468 1.148438-4.589843-.726563-21.84375-5.390625-43.375-13.773438-63.558594-18.941406-44.953125-54.707031-80.71875-99.664062-99.664063-6.082032-2.515624-12.300782-4.695312-18.625-6.53125 31.429687-24.695312 70.109375-38.375 110.082031-38.929687 22.945313-.308594 45.734375 3.859375 67.085937 12.269531 44.378907 17.664063 79.53125 52.8125 97.195313 97.191406 8.410156 21.355469 12.578125 44.144532 12.269531 67.089844zm0 0" fill="#802f34"/><path d="m173.144531 388.871094-67.710937 67.707031-12.445313 12.449219-6.265625 6.265625c-3.3125 3.316406-7.808594 5.179687-12.492187 5.179687-4.6875 0-9.179688-1.863281-12.492188-5.179687l-24.980469-24.980469c-3.316406-3.3125-5.179687-7.804688-5.179687-12.492188s1.863281-9.179687 5.179687-12.492187l31.25-31.160156v-.089844l27.628907-27.628906c5.84375 3.230469 11.855469 6.148437 18.007812 8.738281 18.921875 7.875 39.039063 12.5 59.5 13.683594zm0 0" fill="#7f6e5d"/><path d="m105.433594 419.0625c-1.644532 1.691406-3.90625 2.644531-6.265625 2.648438-2.335938-.003907-4.566407-.960938-6.179688-2.648438l-24.980469-24.894531v-.089844l12.445313-12.445313 24.980469 24.980469c3.425781 3.445313 3.425781 9.003907 0 12.449219zm0 0" fill="#a5a5a4"/><path d="m105.433594 456.578125-12.445313 12.449219-24.980469-24.984375c-3-3.5-2.800781-8.722657.460938-11.984375 3.261719-3.257813 8.480469-3.460938 11.984375-.460938zm0 0" fill="#a5a5a4"/><path d="m300.171875 467.878906c0 24.375-19.761719 44.136719-44.136719 44.136719-24.378906 0-44.140625-19.761719-44.140625-44.136719 0-24.378906 19.761719-44.140625 44.140625-44.140625 24.375 0 44.136719 19.761719 44.136719 44.140625zm0 0" fill="#95a5a5"/><path d="m247.207031 467.878906c-4.160156-.042968-7.714843-3.011718-8.496093-7.097656-.78125-4.089844 1.425781-8.160156 5.277343-9.734375 3.851563-1.570313 8.28125-.210937 10.582031 3.253906 2.304688 3.464844 1.847657 8.074219-1.097656 11.015625-.417968.382813-.859375.734375-1.324218 1.0625-.492188.332032-1.023438.601563-1.585938.792969-.5.253906-1.039062.433594-1.589844.53125-.582031.101563-1.175781.160156-1.765625.175781zm0 0" fill="#bdc3c7"/><path d="m475.136719 119.1875c-1.148438-2.953125-3.785157-5.066406-6.917969-5.539062-3.132812-.472657-6.277344.773437-8.242188 3.257812-1.964843 2.484375-2.445312 5.832031-1.261718 8.769531 3.78125 9.707031 6.390625 19.832031 7.769531 30.15625l-.539063 40.605469c-1.675781 10.5-4.566406 20.765625-8.605468 30.597656-1.242188 2.917969-.824219 6.28125 1.097656 8.804688 1.921875 2.523437 5.050781 3.820312 8.195312 3.402344 3.140626-.421876 5.820313-2.496094 7.011719-5.4375 7.617188-18.246094 11.660157-37.785157 11.90625-57.554688.289063-19.519531-3.25-38.902344-10.414062-57.0625zm0 0" fill="#c03a2b"/><path d="m284.925781 104.253906c-3.460937-3.347656-8.96875-3.300781-12.375.105469-3.402343 3.40625-3.453125 8.910156-.105469 12.375 13.035157 12.96875 23.386719 28.382813 30.464844 45.355469 5.003906 12.042968 8.273438 24.734375 9.707032 37.695312.492187 4.472656 4.269531 7.859375 8.769531 7.863282.324219 0 .652343-.015626.976562-.050782 4.832031-.539062 8.320313-4.878906 7.804688-9.710937-1.625-14.632813-5.316407-28.957031-10.972657-42.550781-7.953124-19.113282-19.597656-36.472657-34.269531-51.082032zm0 0" fill="#fb7b76"/><path d="m46.121094 228.042969-.535156-40.609375c1.378906-10.320313 3.984374-20.441406 7.765624-30.144532 1.183594-2.9375.703126-6.285156-1.261718-8.773437-1.960938-2.484375-5.109375-3.726563-8.238282-3.253906-3.132812.472656-5.773437 2.585937-6.917968 5.539062-7.160156 18.140625-10.699219 37.507813-10.417969 57.007813.242187 19.785156 4.28125 39.339844 11.902344 57.601562 1.859375 4.511719 7.03125 6.664063 11.546875 4.800782 4.511718-1.863282 6.664062-7.03125 4.800781-11.546876-4.058594-9.839843-6.957031-20.113281-8.644531-30.621093zm0 0" fill="#fb7b76"/></svg>