<svg height="512pt" viewBox="-53 0 512 512.0002" width="512pt" xmlns="http://www.w3.org/2000/svg"><path d="m406.070312 203.035156c0 112.132813-90.902343 203.035156-203.035156 203.035156-112.132812 0-203.035156-90.902343-203.035156-203.035156 0-112.132812 90.902344-203.035156 203.035156-203.035156 53.871094-.0742188 105.558594 21.292969 143.648438 59.382812 38.09375 38.09375 59.460937 89.78125 59.386718 143.652344zm0 0" fill="#95a5a5"/><path d="m379.585938 203.035156c0 97.507813-79.042969 176.550782-176.550782 176.550782-97.507812 0-176.550781-79.042969-176.550781-176.550782 0-97.507812 79.042969-176.550781 176.550781-176.550781 97.507813 0 176.550782 79.042969 176.550782 176.550781zm0 0" fill="#bdc3c7"/><path d="m167.722656 344.277344c0 9.75-7.902344 17.652344-17.652344 17.652344s-17.65625-7.902344-17.65625-17.652344c0-9.753906 7.90625-17.65625 17.65625-17.65625s17.652344 7.902344 17.652344 17.65625zm0 0" fill="#ecf0f1"/><path d="m361.929688 150.070312c0 9.75-7.902344 17.652344-17.652344 17.652344-9.753906 0-17.65625-7.902344-17.65625-17.652344s7.902344-17.65625 17.65625-17.65625c9.75 0 17.652344 7.90625 17.652344 17.65625zm0 0" fill="#ecf0f1"/><path d="m314.617188 372.613281c4.359374 2.09375 7.664062 5.902344 9.117187 10.515625 1.453125 4.617188.933594 9.628906-1.4375 13.847656l-.796875 1.324219c-11.417969 18.695313-26.820312 34.640625-45.109375 46.699219-11.011719 7.28125-20.8125 16.246094-29.042969 26.570312-9.003906 12.269532-9.003906 25.6875-9.003906 40.429688h-70.621094c0-14.742188 0-28.160156-9.003906-40.429688-8.230469-10.324218-18.027344-19.289062-29.042969-26.570312-18.289062-12.058594-33.691406-28.003906-45.105469-46.699219l-.796874-1.324219c-2.371094-4.21875-2.894532-9.230468-1.4375-13.847656 1.453124-4.613281 4.753906-8.421875 9.117187-10.515625zm0 0" fill="#cc4b4c"/><g fill="#ecf0f1"><path d="m238.34375 353.105469c0 9.75-7.902344 17.652343-17.652344 17.652343-9.753906 0-17.65625-7.902343-17.65625-17.652343 0-9.753907 7.902344-17.65625 17.65625-17.65625 9.75 0 17.652344 7.902343 17.652344 17.65625zm0 0"/><path d="m300.136719 326.621094c0 9.75-7.902344 17.65625-17.652344 17.65625-9.753906 0-17.65625-7.90625-17.65625-17.65625s7.902344-17.65625 17.65625-17.65625c9.75 0 17.652344 7.90625 17.652344 17.65625zm0 0"/><path d="m238.34375 282.484375c0 9.75-7.902344 17.652344-17.652344 17.652344-9.753906 0-17.65625-7.902344-17.65625-17.652344 0-9.753906 7.902344-17.65625 17.65625-17.65625 9.75 0 17.652344 7.902344 17.652344 17.65625zm0 0"/><path d="m300.136719 247.171875c0 9.75-7.902344 17.65625-17.652344 17.65625-9.753906 0-17.65625-7.90625-17.65625-17.65625s7.902344-17.65625 17.65625-17.65625c9.75 0 17.652344 7.90625 17.652344 17.65625zm0 0"/><path d="m361.929688 211.863281c0 9.75-7.902344 17.652344-17.652344 17.652344-9.753906 0-17.65625-7.902344-17.65625-17.652344s7.902344-17.65625 17.65625-17.65625c9.75 0 17.652344 7.90625 17.652344 17.65625zm0 0"/><path d="m353.105469 282.484375c0 9.75-7.90625 17.652344-17.65625 17.652344s-17.65625-7.902344-17.65625-17.652344c0-9.753906 7.90625-17.65625 17.65625-17.65625s17.65625 7.902344 17.65625 17.65625zm0 0"/><path d="m61.792969 158.898438c-2.964844 0-5.730469-1.484376-7.367188-3.957032-1.632812-2.46875-1.921875-5.597656-.761719-8.324218 27.605469-65.386719 91.679688-107.882813 162.65625-107.882813 4.875 0 8.828126 3.953125 8.828126 8.828125s-3.953126 8.828125-8.828126 8.828125c-63.84375.117187-121.457031 38.332031-146.398437 97.105469-1.375 3.269531-4.578125 5.398437-8.128906 5.402344zm0 0"/></g></svg>