<svg height="504pt" viewBox="0 -1 504.30645 504" width="504pt" xmlns="http://www.w3.org/2000/svg"><path d="m123.15625 149.101562c.519531-.171874.953125-.347656 1.472656-.519531-2.230468-5.808593-3.265625-12.007812-3.035156-18.226562.953125-27.769531-1.738281-59.875-8.246094-76.191407-15.964844-39.832031-52.675781-62.652343-81.917968-50.9375-29.246094 11.714844-40.007813 53.542969-24.039063 93.460938 6.507813 16.226562 26.726563 41.304688 46.601563 60.746094 5.015624 4.84375 8.847656 10.785156 11.195312 17.355468h.085938c0 .085938.085937.261719.085937.347657l2.515625 4.945312 11.804688 23.691407 56.664062-28.378907zm-59.878906-66.472656c-9.753906 3.90625-20.824219-.835937-24.730469-10.585937-3.90625-9.753907.835937-20.824219 10.585937-24.730469 9.753907-3.90625 20.824219.832031 24.730469 10.582031 1.894531 4.683594 1.839844 9.929688-.148437 14.570313-1.984375 4.644531-5.742188 8.300781-10.4375 10.164062zm0 0" fill="#d1d4d1"/><path d="m468.015625 260.699219c-20.527344.695312-41.054687-1.4375-61.003906-6.332031-20.011719-4.535157-39.308594-11.777344-57.363281-21.523438-1.386719 1.824219-2.6875 3.730469-3.992188 5.640625-35.101562-69.011719-109.972656-108.320313-186.714844-98.023437-76.742187 10.296874-138.605468 67.949218-154.277344 143.773437-15.671874 75.824219 18.265626 153.277344 84.636719 193.152344 66.371094 39.878906 150.6875 33.476562 210.277344-15.964844 1.128906 4.597656 2.34375 9.023437 3.730469 13.191406 2.085937 6.332031 7.308594 11.128907 13.796875 12.667969l66.386719 15.621094c6.515624 1.539062 13.359374-.433594 18.050781-5.207032 28.726562-28.984374 54.671875-78.796874 66.996093-131.125 6.417969-35.015624 6.242188-70.917968-.523437-105.871093zm0 0" fill="#d1d4d1"/><path d="m365.445312 321.1875c-.082031 92.277344-69.179687 169.910156-160.828124 180.679688-91.652344 10.769531-176.867188-48.722657-198.339844-138.46875-21.46875-89.75 27.59375-181.367188 114.191406-213.242188 86.601562-31.875 183.355469 6.078125 225.1875 88.328125 12.9375 25.652344 19.710938 53.972656 19.789062 82.703125zm0 0" fill="#24ae5f"/><path d="m463.765625 13.636719c-30.632813-7.199219-63.523437 20.828125-73.417969 62.65625-3.988281 17.007812-1.90625 49.203125 3.210938 76.539062 2.773437 14.605469-1.578125 29.65625-11.714844 40.527344-2.6875 2.863281-5.378906 5.902344-8.070312 9.023437 13.382812 6.574219 27.472656 11.585938 42.003906 14.925782 14.5 3.46875 29.347656 5.273437 44.257812 5.382812-1.042968-4.078125-2.085937-7.984375-3.210937-11.714844-4.144531-14.257812-1.3125-29.632812 7.636719-41.480468 16.746093-22.128906 32.972656-49.984375 37.054687-66.996094 9.804687-41.828125-7.03125-81.660156-37.75-88.863281zm3.296875 69.164062c-2.410156 10.222657-12.640625 16.558594-22.867188 14.160157-10.222656-2.394532-16.570312-12.617188-14.191406-22.84375 2.382813-10.226563 12.597656-16.59375 22.828125-14.226563 4.929688 1.144531 9.203125 4.199219 11.875 8.5 2.667969 4.300781 3.515625 9.484375 2.355469 14.410156zm0 0" fill="#d1d4d1"/><path d="m468.015625 260.699219c-20.527344.695312-41.054687-1.4375-61.003906-6.332031-20.011719-4.535157-39.308594-11.777344-57.363281-21.523438 7.898437-11.019531 16.140624-21.261719 24.125-30.460938 13.382812 6.574219 27.472656 11.585938 42.003906 14.925782 14.5 3.46875 29.347656 5.273437 44.257812 5.382812 3.035156 11.800782 5.8125 24.644532 7.980469 38.007813zm0 0" fill="#cc4b4c"/><path d="m467.0625 82.800781c-2.410156 10.222657-12.640625 16.558594-22.867188 14.160157-10.222656-2.394532-16.570312-12.617188-14.191406-22.84375 2.382813-10.226563 12.597656-16.59375 22.828125-14.226563 4.929688 1.144531 9.203125 4.199219 11.875 8.5 2.667969 4.300781 3.515625 9.484375 2.355469 14.410156zm0 0" fill="#fff"/><path d="m63.277344 82.628906c-9.753906 3.90625-20.824219-.835937-24.730469-10.585937-3.90625-9.753907.835937-20.824219 10.585937-24.730469 9.753907-3.90625 20.824219.832031 24.730469 10.582031 1.894531 4.683594 1.839844 9.929688-.148437 14.570313-1.984375 4.644531-5.742188 8.300781-10.4375 10.164062zm0 0" fill="#fff"/><path d="m65.359375 175.136719-.171875-.347657h.085938c0 .085938.085937.261719.085937.347657zm0 0" fill="#d1d4d1"/><path d="m339.410156 321.1875c0 86.265625-69.933594 156.203125-156.203125 156.203125s-156.203125-69.9375-156.203125-156.203125c0-86.269531 69.933594-156.207031 156.203125-156.207031s156.203125 69.9375 156.203125 156.207031zm0 0" fill="#71c285"/><path d="m150.316406 220.085938c-.457031 2.859374-1.242187 5.65625-2.34375 8.332031-6.246094 15.535156-20.21875 24.558593-31.414062 20.132812-4.375-1.886719-7.8125-5.449219-9.542969-9.890625-3.234375-8.515625-2.984375-17.964844.691406-26.296875 6.164063-15.621093 20.21875-24.644531 31.328125-20.21875 9.199219 3.644531 13.539063 15.273438 11.28125 27.941407zm0 0" fill="#556080"/><path d="m316.75 344.285156c-4.792969 0-8.675781-3.882812-8.675781-8.675781-.097657-55.792969-33.496094-106.140625-84.863281-127.921875-2.855469-1.210938-4.847657-3.851562-5.230469-6.929688-.378907-3.074218.910156-6.121093 3.386719-7.992187 2.472656-1.867187 5.757812-2.273437 8.613281-1.0625 57.851562 24.417969 95.457031 81.109375 95.457031 143.90625 0 2.300781-.914062 4.511719-2.542969 6.136719-1.628906 1.628906-3.839843 2.542968-6.144531 2.539062zm0 0" fill="#24ae5f"/><path d="m78.898438 296.28125c-2.230469 5.851562-5.867188 11.066406-10.589844 15.183594v.089844c-5.488282 5.382812-13.503906 7.285156-20.824219 4.945312-11.109375-4.425781-15.101563-20.652344-8.851563-36.273438 6.246094-15.621093 20.21875-24.644531 31.414063-20.132812 11.191406 4.511719 15.097656 20.652344 8.851563 36.1875zm0 0" fill="#41767f"/><path d="m154.222656 329.949219c-6.164062 15.621093-20.21875 24.648437-31.414062 20.222656-7.585938-3.804687-12.1875-11.75-11.714844-20.222656v-.085938c-.207031-5.464843.769531-10.914062 2.863281-15.96875 6.160157-15.53125 20.21875-24.558593 31.414063-20.132812 11.195312 4.425781 15.097656 20.65625 8.851562 36.1875zm0 0" fill="#41767f"/><path d="m65.359375 175.136719c.679687 1.839843 1.230469 3.722656 1.648437 5.640625.261719-.261719.609376-.433594.867188-.695313zm0 0" fill="#d1d4d1"/></svg>