<svg height="512pt" viewBox="-4 0 512 512.16641" width="512pt" xmlns="http://www.w3.org/2000/svg"><path d="m17.4375 0h468.613281c9.582031 0 17.355469 7.769531 17.355469 17.355469v347.117187c0 9.585938-7.773438 17.359375-17.355469 17.359375h-468.613281c-9.582031 0-17.3554688-7.773437-17.3554688-17.359375v-347.117187c0-9.585938 7.7734378-17.355469 17.3554688-17.355469zm0 0" fill="#95a5a5"/><path d="m43.472656 26.035156h416.542969c9.585937 0 17.355469 7.769532 17.355469 17.355469v295.050781c0 9.585938-7.769532 17.355469-17.355469 17.355469h-416.542969c-9.585937 0-17.355468-7.769531-17.355468-17.355469v-295.050781c0-9.585937 7.769531-17.355469 17.355468-17.355469zm0 0" fill="#bdc3c7"/><path d="m385.472656 321.847656c-4.367187-1.964844-9.5-.023437-11.472656 4.339844l-44.769531 99.511719-11.925781-34.089844 28.984374-57.96875c2.144532-4.289063.402344-9.503906-3.886718-11.644531-4.289063-2.140625-9.503906-.402344-11.644532 3.886718l-21.445312 42.929688-14.664062-41.886719c-.203126-.410156-.433594-.800781-.695313-1.171875-.238281-.53125-.527344-1.039062-.867187-1.511718-.464844-.492188-.980469-.933594-1.542969-1.308594-.273438-.265625-.5625-.511719-.871094-.738282-.058594 0-.128906 0-.199219-.058593-.585937-.265625-1.203125-.460938-1.839844-.582031-.460937-.167969-.9375-.292969-1.421874-.375-.445313.007812-.890626.046874-1.328126.121093-.679687.011719-1.355468.101563-2.011718.269531-.078125 0-.15625 0-.234375 0-.902344.53125-1.804688 1.066407-2.699219 1.605469-.464844.433594-.878906.921875-1.234375 1.449219-.289063.296875-.558594.617188-.804687.953125l-27.152344 49.308594-27.113282-49.289063c-.242187-.34375-.515624-.664062-.8125-.964844-.355468-.519531-.761718-1.003906-1.214843-1.4375-.507813-.382812-1.054688-.707031-1.632813-.964843-.34375-.242188-.703125-.457031-1.078125-.640625-.078125 0-.15625 0-.222656 0-.648437-.164063-1.3125-.253906-1.980469-.269532-.453125-.074218-.910156-.117187-1.371094-.121093-.488281.082031-.972656.207031-1.441406.371093-.621094.121094-1.230468.316407-1.8125.574219-.070312 0-.148437 0-.207031.066407-.328125.234374-.636719.492187-.921875.773437-.546875.367187-1.050781.789063-1.5 1.269531-.339844.480469-.628906.996094-.867188 1.535156-.261718.363282-.492187.75-.6875 1.152344l-14.707031 41.871094-21.402343-42.929688c-2.140626-4.289062-7.355469-6.027343-11.644532-3.886718-4.289062 2.140625-6.03125 7.355468-3.886718 11.644531l28.984374 57.96875-11.925781 34.089844-44.8125-99.496094c-2-4.304687-7.09375-6.203125-11.425781-4.257813-4.335938 1.949219-6.296875 7.019532-4.402344 11.375l52.269532 116.199219-17.835938 50.964844c-1.585938 4.523437.796875 9.476563 5.320312 11.0625 4.523438 1.589844 9.476563-.792969 11.066407-5.316406l11.800781-33.714844 9.796875 21.78125-2.679687 4.878906c-1.5625 2.71875-1.53125 6.070313.078124 8.761719 1.605469 2.691406 4.542969 4.308594 7.679688 4.226562 3.132812-.082031 5.980469-1.851562 7.445312-4.625l23.847657-43.390624 21.527343 43.0625c.265626.464843.574219.90625.921876 1.316406.113281.1875.238281.367187.371093.539062.679688.753906 1.484375 1.382813 2.378907 1.859375.085937.042969.128906.128907.214843.171875.34375.144532.695313.269532 1.050781.371094.214844.09375.429688.171875.652344.234375.710938.195313 1.441406.292969 2.179688.296875.730468-.007812 1.460937-.109375 2.167968-.304688.222657-.066406.445313-.144531.660157-.234374.351562-.101563.699219-.226563 1.039062-.371094.089844-.042969.132813-.132813.21875-.175782.894531-.472656 1.699219-1.101562 2.378907-1.855468.144531-.164063.234374-.355469.371093-.53125.347657-.414063.652344-.855469.921875-1.328125l21.527344-43.058594 23.847656 43.390625c2.355469 4.105469 7.566406 5.570312 11.714844 3.289062 4.144531-2.28125 5.699219-7.46875 3.488281-11.65625l-2.679687-4.875 9.796875-21.78125 11.800781 33.710938c1.585938 4.527344 6.542969 6.90625 11.066406 5.320312 4.523438-1.585937 6.90625-6.539062 5.320313-11.0625l-17.824219-50.957031 52.265625-116.199219c1.964844-4.371093.015625-9.507812-4.355469-11.472656zm-100.753906 29.140625 13.808594 39.433594-18.222656 36.378906-18.660157-33.921875zm-65.882812 0 23.042968 41.890625-18.660156 33.921875-18.222656-36.378906zm-22.292969 124.242188-11.941407-26.535157 12.410157-35.441406 16.011719 32.03125zm55.203125 8.679687-19.09375-38.261718 19.09375-34.773438 19.089844 34.78125zm55.199218-8.679687-16.488281-29.945313 16.011719-32.03125 12.410156 35.441406zm0 0" fill="#35495e"/><path d="m399.269531 312.40625c-.070312 9.554688-7.800781 17.285156-17.355469 17.355469h-260.339843c-9.574219-.027344-17.328125-7.78125-17.355469-17.355469-.023438-4.605469 1.824219-9.019531 5.121094-12.234375 1.046875-1.09375 2.242187-2.027344 3.558594-2.777344 2.636718-1.53125 5.628906-2.339843 8.675781-2.34375h260.339843c9.585938 0 17.355469 7.769531 17.355469 17.355469zm0 0" fill="#c03a2b"/><path d="m390.589844 156.203125v141.191406c-2.636719-1.53125-5.628906-2.339843-8.675782-2.34375h-26.035156v-138.847656c-.027344-9.574219-7.78125-17.328125-17.355468-17.355469h-173.558594c-9.574219.027344-17.328125 7.78125-17.355469 17.355469v138.847656h-26.035156c-3.046875.003907-6.039063.8125-8.675781 2.34375v-141.191406c0-28.757813 23.308593-52.066406 52.066406-52.066406h173.558594c28.757812 0 52.066406 23.308593 52.066406 52.066406zm0 0" fill="#e64c3c"/></svg>