<svg height="512pt" viewBox="0 0 512 512.08958" width="512pt" xmlns="http://www.w3.org/2000/svg"><path d="m234.96875 200.121094c-10.238281-16.949219-7.503906-40.519532-2.558594-62.589844h14.300782c9.738281-.027344 17.625-7.914062 17.652343-17.652344v-18.363281c0-9.75-7.902343-17.652344-17.652343-17.652344h-4.328126c.355469-25.425781-7.855468-46.964843-21.007812-53.671875-17.65625-8.917968-70.445312 0-96.925781 8.914063-10.535157 3.226562-21.984375.21875-29.574219-7.769531-4.40625-3.730469-10.367188-5.039063-15.933594-3.503907-5.5625 1.535157-10.007812 5.722657-11.875 11.183594-.261718.707031-.527344 1.503906-.792968 2.296875l-36.105469-36.105469c-6.875-6.875-18.019531-6.875-24.894531 0-6.871094 6.875-6.871094 18.019531 0 24.894531l56.5 56.496094c.261718 2.03125.617187 4.0625 1.058593 6.179688 0 0-8.828125 44.753906-17.65625 71.589844-7.855469 24.011718-29.925781 55.261718-9.003906 80.863281v.085937c-2.914063 6.003906-33.808594 73.09375-8.652344 115.820313 3.886719 6.53125 7.152344 12.535156 10.066407 17.917969 10.175781-5.464844 21.550781-8.316407 33.101562-8.296876 32.210938.003907 60.34375 21.785157 68.414062 52.964844 1.457032 5.773438 2.195313 11.703125 2.207032 17.65625-.011719 9.074219-1.746094 18.058594-5.121094 26.484375h54.378906c-3.375-8.425781-5.109375-17.410156-5.121094-26.484375 0-39.003906 31.617188-70.621094 70.621094-70.621094s70.621094 31.617188 70.621094 70.621094c-.007812 9.074219-1.746094 18.058594-5.121094 26.484375h54.378906c-3.371093-8.425781-5.109374-17.410156-5.121093-26.484375.003906-25.15625 13.390625-48.410156 35.140625-61.050781 21.75-12.636719 48.582031-12.753906 70.4375-.300781l.265625-.441406c.089843-.441407.089843-6.886719.089843-7.328126v-8.914062c.324219-14.960938-11.441406-27.398438-26.394531-27.894531v-27.984375c0-17.65625-23.21875-32.484375-54.113281-45.109375-2.738281-1.058594-5.5625-2.207031-8.386719-3.265625s-5.472656-2.03125-8.296875-3.003906c-8.566406-3.175782-17.390625-6.089844-26.394531-8.914063-5.386719-1.675781-10.769531-3.265625-16.066406-4.945313-18.714844-5.472656-36.902344-10.414062-52.171875-14.917968" fill="#2980ba"/><path d="m120.738281 192.96875c-1.585937-2.292969-3.175781-4.765625-4.675781-7.058594-12.714844-18.453125-26.042969-36.460937-37.34375-55.878906-7.316406-11.457031-12.683594-24.042969-15.886719-37.253906 0 0-8.828125 44.753906-17.65625 71.589844-7.855469 24.011718-29.925781 55.261718-9.003906 80.863281v.085937h.089844c2.621093 3.171875 5.617187 6.015625 8.914062 8.476563 35.222657 26.835937 61.703125 53.671875 88.097657 35.75 8.523437-5.550781 13.972656-14.753907 14.742187-24.890625v-.089844c.175781-.632812.265625-1.285156.265625-1.941406 1.414062-23.921875-16.242188-53.320313-27.542969-69.652344zm-31.511719 51.90625c-7.28125.144531-13.921874-4.128906-16.808593-10.8125-2.882813-6.683594-1.4375-14.449219 3.65625-19.648438 5.097656-5.195312 12.832031-6.796874 19.570312-4.042968 6.742188 2.75 11.144531 9.304687 11.148438 16.585937.054687 9.78125-7.785157 17.777344-17.566407 17.917969zm0 0" fill="#f0c419"/><path d="m106.792969 226.957031c-.148438 9.726563-8.132813 17.5-17.859375 17.386719-9.726563-.113281-17.53125-8.070312-17.449219-17.796875s8.015625-17.558594 17.742187-17.511719c4.703126.046875 9.199219 1.960938 12.492188 5.324219 3.296875 3.359375 5.121094 7.890625 5.074219 12.597656zm0 0" fill="#3b97d3"/><path d="m185.445312 441.378906c.011719 9.074219 1.746094 18.058594 5.121094 26.484375h-54.378906c3.375-8.425781 5.109375-17.410156 5.121094-26.484375-.011719-5.953125-.75-11.882812-2.207032-17.65625h3.53125c9.214844.09375 17.769532-4.757812 22.421876-12.710937 7.585937-14.285157 22.488281-23.167969 38.664062-23.039063 2.03125 0 4.0625 0 6.089844.085938-15.492188 13.382812-24.386719 32.847656-24.363282 53.320312zm0 0" fill="#f0c419"/><path d="m476.757812 363.34375v8.914062c0 .441407 0 6.886719-.089843 7.328126l-.265625.441406c-30.015625-17.117188-68.015625-9.984375-89.777344 16.859375h-68.410156c-2.5625 0-5.035156 0-7.417969-.085938-12.050781-14.828125-29.605469-24.132812-48.640625-25.777343-19.035156-1.648438-37.925781 4.5-52.347656 17.035156-2.027344-.085938-4.058594-.085938-6.089844-.085938-16.175781-.128906-31.078125 8.753906-38.664062 23.039063-4.652344 7.953125-13.207032 12.804687-22.421876 12.710937h-3.53125c-8.070312-31.179687-36.203124-52.960937-68.414062-52.964844-11.550781-.019531-22.925781 2.832032-33.101562 8.296876-2.914063-5.382813-6.179688-11.386719-10.066407-17.917969-25.15625-42.726563 5.738281-109.816407 8.652344-115.820313h.089844c2.621093 3.171875 5.617187 6.015625 8.914062 8.476563 35.222657 26.835937 61.703125 53.671875 88.097657 35.75 8.523437-5.550781 13.972656-14.753907 14.742187-24.890625l37.695313 47.667968c13.289062 15.113282 32.578124 23.582032 52.699218 23.128907h211.953125c14.953125.496093 26.71875 12.933593 26.394531 27.894531zm0 0" fill="#285680"/><path d="m264.363281 101.515625v18.363281c-.027343 9.738282-7.914062 17.625-17.652343 17.652344h-70.445313c-9.738281-.027344-17.625-7.914062-17.65625-17.652344v-18.363281c0-9.75 7.90625-17.652344 17.65625-17.652344h70.445313c9.75 0 17.652343 7.902344 17.652343 17.652344zm0 0" fill="#f0c419"/><path d="m284.933594 227.308594c-1.050782 1.644531-2.363282 3.105468-3.886719 4.328125l-55.347656 44.3125c-3.65625 2.929687-8.339844 4.261719-12.988281 3.699219-4.652344-.566407-8.878907-2.980469-11.726563-6.699219l-10.949219-14.035157c-5.988281-7.796874-4.695312-18.941406 2.914063-25.160156l42.019531-33.632812 13.328125-10.683594c3.660156-2.925781 8.339844-4.257812 12.992187-3.691406 4.648438.5625 8.875 2.976562 11.726563 6.695312l10.945313 14.035156c4.65625 6.054688 5.042968 14.371094.972656 20.832032zm0 0" fill="#f0c419"/><path d="m61.773438 86.597656-56.5-56.496094c-3.34375-3.277343-5.2304692-7.765624-5.2304692-12.445312 0-4.683594 1.8867192-9.171875 5.2304692-12.449219 3.285156-3.332031 7.769531-5.207031 12.449218-5.207031 4.679688 0 9.160156 1.875 12.445313 5.207031l36.105469 36.105469c-4.792969 14.585938-6.328126 30.042969-4.5 45.285156zm0 0" fill="#3b97d3"/><path d="m353.171875 247.171875c-.015625 1.582031-.441406 3.132813-1.238281 4.503906l-26.480469 44.136719c-1.582031 2.6875-4.472656 4.335938-7.59375 4.324219-1.582031-.011719-3.132813-.4375-4.5-1.234375-4.195313-2.488282-5.578125-7.902344-3.089844-12.09375l26.480469-44.140625c.089844-.164063.210938-.316407.355469-.441407zm0 0" fill="#3b97d3"/><path d="m396.25 262.355469-7.945312 39.546875c-.839844 4.109375-4.457032 7.0625-8.652344 7.0625-.589844-.019532-1.179688-.078125-1.765625-.175782-2.292969-.46875-4.308594-1.828124-5.601563-3.78125-1.289062-1.953124-1.753906-4.339843-1.285156-6.636718l8.210938-41.046875c.066406-.425781.183593-.839844.355468-1.238281 2.824219.972656 5.558594 1.945312 8.296875 3.003906 2.734375 1.058594 5.648438 2.207031 8.386719 3.265625zm0 0" fill="#3b97d3"/><path d="m141.308594 441.378906c-.011719 9.074219-1.746094 18.058594-5.121094 26.484375-11.679688 28.941407-40.972656 46.78125-72.046875 43.882813-31.078125-2.898438-56.5625-25.855469-62.6875-56.457032-6.125-30.601562 8.566406-61.597656 36.132813-76.234374 10.175781-5.464844 21.550781-8.316407 33.101562-8.296876 32.210938.003907 60.34375 21.785157 68.414062 52.964844 1.457032 5.773438 2.195313 11.703125 2.207032 17.65625zm0 0" fill="#547580"/><path d="m326.6875 441.378906c-.007812 9.074219-1.746094 18.058594-5.121094 26.484375-10.808594 26.675781-36.714844 44.128907-65.5 44.128907-28.78125 0-54.691406-17.453126-65.5-44.128907-3.375-8.425781-5.109375-17.410156-5.121094-26.484375 0-39.003906 31.617188-70.621094 70.621094-70.621094s70.621094 31.617188 70.621094 70.621094zm0 0" fill="#547580"/><path d="m512.066406 441.378906c.039063 33.832032-23.921875 62.941406-57.132812 69.402344-33.210938 6.464844-66.339844-11.539062-78.988282-42.917969-3.371093-8.425781-5.109374-17.410156-5.121093-26.484375 0-39.003906 31.617187-70.621094 70.621093-70.621094 39.003907 0 70.621094 31.617188 70.621094 70.621094zm0 0" fill="#547580"/><g fill="#35495e"><path d="m70.6875 467.863281c-14.625 0-26.484375-11.859375-26.484375-26.484375 0-4.875-3.949219-8.828125-8.824219-8.828125-4.878906 0-8.828125 3.953125-8.828125 8.828125.027344 24.363282 19.773438 44.109375 44.136719 44.136719 4.875 0 8.828125-3.953125 8.828125-8.828125s-3.953125-8.824219-8.828125-8.824219zm0 0"/><path d="m70.6875 397.242188c-4.875 0-8.828125 3.949218-8.828125 8.824218 0 4.878906 3.953125 8.828125 8.828125 8.828125 14.625 0 26.484375 11.859375 26.484375 26.484375 0 4.875 3.949219 8.828125 8.824219 8.828125 4.878906 0 8.828125-3.953125 8.828125-8.828125-.027344-24.363281-19.773438-44.109375-44.136719-44.136718zm0 0"/><path d="m76.953125 435.109375c-.859375-.777344-1.84375-1.402344-2.910156-1.851563-3.292969-1.339843-7.066407-.613281-9.625 1.851563-.796875.84375-1.425781 1.835937-1.851563 2.914063-.941406 2.136718-.941406 4.574218 0 6.710937.800782 2.214844 2.546875 3.964844 4.765625 4.765625 2.136719.941406 4.574219.941406 6.710938 0 1.066406-.449219 2.050781-1.078125 2.910156-1.855469 1.613281-1.691406 2.527344-3.929687 2.5625-6.265625-.015625-1.152344-.253906-2.292968-.707031-3.355468-.449219-1.070313-1.074219-2.054688-1.855469-2.914063zm0 0"/><path d="m256.066406 467.863281c-14.625 0-26.480468-11.859375-26.480468-26.484375 0-4.875-3.953126-8.828125-8.828126-8.828125s-8.828124 3.953125-8.828124 8.828125c.027343 24.363282 19.773437 44.109375 44.136718 44.136719 4.875 0 8.828125-3.953125 8.828125-8.828125s-3.953125-8.824219-8.828125-8.824219zm0 0"/><path d="m256.066406 397.242188c-4.875 0-8.828125 3.949218-8.828125 8.824218 0 4.878906 3.953125 8.828125 8.828125 8.828125 14.625 0 26.484375 11.859375 26.484375 26.484375 0 4.875 3.949219 8.828125 8.828125 8.828125 4.875 0 8.824219-3.953125 8.824219-8.828125-.027344-24.363281-19.773437-44.109375-44.136719-44.136718zm0 0"/><path d="m262.335938 435.109375c-.863282-.777344-1.847657-1.402344-2.914063-1.851563-3.292969-1.339843-7.066406-.613281-9.621094 1.851563-.800781.84375-1.429687 1.835937-1.855469 2.914063-.941406 2.136718-.941406 4.574218 0 6.710937.800782 2.214844 2.550782 3.964844 4.765626 4.765625 2.136718.941406 4.574218.941406 6.710937 0 1.066406-.449219 2.050781-1.078125 2.914063-1.855469 1.609374-1.691406 2.523437-3.929687 2.558593-6.265625-.015625-1.152344-.253906-2.292968-.707031-3.355468-.445312-1.070313-1.074219-2.054688-1.851562-2.914063zm0 0"/><path d="m441.445312 467.863281c-14.625 0-26.480468-11.859375-26.480468-26.484375 0-4.875-3.953125-8.828125-8.828125-8.828125s-8.828125 3.953125-8.828125 8.828125c.027344 24.363282 19.773437 44.109375 44.136718 44.136719 4.875 0 8.828126-3.953125 8.828126-8.828125s-3.953126-8.824219-8.828126-8.824219zm0 0"/><path d="m441.445312 397.242188c-4.875 0-8.828124 3.949218-8.828124 8.824218 0 4.878906 3.953124 8.828125 8.828124 8.828125 14.625 0 26.484376 11.859375 26.484376 26.484375 0 4.875 3.953124 8.828125 8.828124 8.828125s8.828126-3.953125 8.828126-8.828125c-.03125-24.363281-19.773438-44.109375-44.140626-44.136718zm0 0"/><path d="m447.714844 435.109375c-.859375-.777344-1.847656-1.402344-2.914063-1.851563-3.292969-1.339843-7.066406-.613281-9.621093 1.851563-.800782.84375-1.429688 1.835937-1.855469 2.914063-.941407 2.136718-.941407 4.574218 0 6.710937.804687 2.214844 2.550781 3.964844 4.765625 4.765625 2.140625.941406 4.574218.941406 6.710937 0 1.066407-.449219 2.054688-1.078125 2.914063-1.855469 1.609375-1.691406 2.523437-3.929687 2.558594-6.265625-.015626-1.152344-.253907-2.292968-.707032-3.355468-.445312-1.070313-1.074218-2.054688-1.851562-2.914063zm0 0"/></g><path d="m370.824219 441.378906c.011719 9.074219 1.75 18.058594 5.121093 26.484375h-54.378906c3.375-8.425781 5.113282-17.410156 5.121094-26.484375.003906-16.246094-5.609375-31.996094-15.890625-44.578125 2.382813.085938 4.855469.085938 7.417969.085938h68.410156c-10.238281 12.566406-15.820312 28.285156-15.800781 44.492187zm0 0" fill="#f0c419"/></svg>