<svg height="512pt" viewBox="-9 0 512 512" width="512pt" xmlns="http://www.w3.org/2000/svg"><path d="m446.765625 138.679688c-1.765625-.96875-3.621094-1.941407-5.472656-2.910157-1.21875-32.046875-11.234375-63.136719-28.957031-89.867187-8.132813-12.214844-21.871094-19.515625-36.546876-19.417969h-75.652343l-3.441407.96875-.792968-2.824219c-2.425782-10.027344-10.210938-17.882812-20.21875-20.390625l-9.445313-2.121093c-12.554687-2.824219-25.578125-2.824219-38.132812 0l-9.445313 2.121093c-10.007812 2.507813-17.792968 10.363281-20.214844 20.390625l-.796874 2.824219-3.441407-.96875h-75.652343c-14.675782-.097656-28.414063 7.203125-36.546876 19.417969-17.71875 26.730468-27.738281 57.820312-28.953124 89.867187-1.855469.96875-3.707032 1.941407-5.472657 2.910157-12.648437 7.046874-19.792969 21.023437-18.097656 35.398437l2.03125 16.332031 1.585937 12.625 6.269532 50.492188h.089844l4.589843 37.253906h.175781c.742188 9.59375 3.800782 18.863281 8.914063 27.011719 2.304687 3.777343 4.964844 7.324219 7.945313 10.59375-14.125 36.3125 1.410156 77.433593 36.015624 95.335937 31.34375 18.074219 58.25 42.925782 78.742188 72.742188 6.597656 9.707031 17.570312 15.523437 29.308594 15.535156h84.039062c11.738282-.011719 22.710938-5.828125 29.308594-15.535156 20.496094-29.816406 47.398438-54.667969 78.742188-72.742188 34.605468-17.902344 50.140624-59.023437 36.015624-95.335937 2.980469-3.269531 5.640626-6.816407 7.945313-10.59375 5.113281-8.148438 8.175781-17.417969 8.914063-27.011719h.179687l4.589844-37.253906h.085937l6.269532-50.492188 1.589843-12.800781 2.027344-16.15625c1.699219-14.375-5.449219-28.351563-18.09375-35.398437zm0 0" fill="#41767f"/><path d="m197.648438 27.453125-19.773438 73.710937h-.085938c-43.273437 4.210938-85.480468 15.917969-124.734374 34.605469 1.214843-32.046875 11.234374-63.136719 28.953124-89.867187 8.132813-12.214844 21.871094-19.515625 36.546876-19.417969h75.652343zm0 0" fill="#41767f"/><path d="m316.46875 101.164062c-46.039062-5.414062-92.554688-5.414062-138.59375 0l19.773438-73.710937.796874-2.824219c2.421876-10.027344 10.207032-17.882812 20.214844-20.390625l9.445313-2.121093c12.554687-2.824219 25.578125-2.824219 38.132812 0l9.445313 2.121093c10.007812 2.507813 17.792968 10.363281 20.21875 20.390625l.792968 2.824219zm0 0" fill="#2c3e50"/><path d="m441.292969 135.769531c-39.257813-18.6875-81.464844-30.394531-124.734375-34.605469h-.089844l-19.773438-73.710937 3.441407-.96875h75.652343c14.675782-.097656 28.414063 7.203125 36.546876 19.417969 17.722656 26.730468 27.738281 57.820312 28.957031 89.867187zm0 0" fill="#41767f"/><path d="m4.999863 32.999802-.009735-.059739" fill="none" stroke="#000" stroke-linecap="round" stroke-linejoin="round" stroke-width="2" transform="matrix(8.827586 0 0 8.827586 -.000005 0)"/><path d="m464.859375 174.078125-2.027344 16.15625c-.125-.144531-.277343-.261719-.441406-.351563-33.28125-23.746093-80.6875-41.667968-133.738281-50.761718l-2.648438-.441406c-52.105468-8.355469-105.207031-8.355469-157.308594 0l-2.117187.355468c-53.230469 9.003906-100.902344 27.011719-134.359375 50.847656-.261719.175782-.4375.351563-.703125.527344l-2.03125-16.332031c-1.695313-14.375 5.449219-28.351563 18.097656-35.398437 1.765625-.96875 3.617188-1.941407 5.472657-2.910157 39.253906-18.6875 81.460937-30.394531 124.734374-34.605469h.085938c46.039062-5.414062 92.554688-5.414062 138.59375 0h.089844c43.269531 4.210938 85.476562 15.917969 124.734375 34.605469 1.851562.96875 3.707031 1.941407 5.472656 2.910157 12.644531 7.046874 19.792969 21.023437 18.09375 35.398437zm0 0" fill="#35495e"/><path d="m462.832031 190.234375-1.589843 12.800781-6.269532 50.492188h-.085937l-4.589844 37.253906h-.179687c-.738282 9.59375-3.800782 18.863281-8.914063 27.011719-2.304687 3.777343-4.964844 7.324219-7.945313 10.59375-22.320312 22.421875-52.949218 34.570312-84.566406 33.542969-49.964844 0-91.457031-26.65625-99.929687-61.792969-1.0625-4.332031-1.59375-8.777344-1.589844-13.238281.011719 4.460937-.523437 8.90625-1.589844 13.238281-8.472656 35.136719-49.960937 61.792969-99.925781 61.792969-31.621094 1.027343-62.25-11.121094-84.570312-33.542969-2.980469-3.269531-5.640626-6.816407-7.945313-10.59375-5.113281-8.148438-8.171875-17.417969-8.914063-27.011719h-.175781l-4.589843-37.253906h-.089844l-6.269532-50.492188-1.585937-12.625c.265625-.175781.441406-.351562.703125-.527344 33.457031-23.835937 81.128906-41.84375 134.359375-50.847656l2.117187-.355468c52.101563-8.355469 105.203126-8.355469 157.308594 0l2.648438.441406c53.050781 9.09375 100.457031 27.015625 133.738281 50.761718.164063.089844.316406.207032.441406.351563zm0 0" fill="#90bae1"/><g fill="#e6e7e8"><path d="m235.785156 390.972656c-.84375-.796875-1.832031-1.425781-2.914062-1.851562-2.148438-.882813-4.558594-.882813-6.707032 0-1.082031.425781-2.070312 1.054687-2.914062 1.851562-3.414062 3.480469-3.414062 9.054688 0 12.535156.84375.800782 1.832031 1.429688 2.914062 1.855469 2.136719.941407 4.570313.941407 6.707032 0 1.070312-.449219 2.054687-1.074219 2.914062-1.855469 1.609375-1.691406 2.527344-3.929687 2.558594-6.265624-.011719-1.15625-.253906-2.292969-.707031-3.355469-.425781-1.082031-1.054688-2.070313-1.851563-2.914063zm0 0"/><path d="m255.292969 358.578125c-.800781-2.21875-2.546875-3.964844-4.765625-4.769531-2.148438-.882813-4.558594-.882813-6.710938 0-1.078125.425781-2.066406 1.058594-2.910156 1.855468-3.414062 3.480469-3.414062 9.054688 0 12.535157.84375.796875 1.832031 1.425781 2.910156 1.851562 2.140625.941407 4.574219.941407 6.710938 0 1.070312-.445312 2.054687-1.074219 2.914062-1.851562 1.609375-1.691407 2.523438-3.929688 2.558594-6.269531-.015625-1.152344-.253906-2.292969-.707031-3.351563zm0 0"/><path d="m235.785156 426.285156c-.816406-.855468-1.8125-1.515625-2.914062-1.941406-2.164063-.796875-4.542969-.796875-6.707032 0-1.101562.425781-2.097656 1.085938-2.914062 1.941406-1.625 1.683594-2.542969 3.925782-2.558594 6.265625.046875 2.335938.960938 4.566407 2.558594 6.269531.886719.738282 1.867188 1.359376 2.914062 1.851563 2.136719.941406 4.570313.941406 6.707032 0 1.035156-.511719 2.011718-1.132813 2.914062-1.851563 1.597656-1.703124 2.507813-3.933593 2.558594-6.269531-.003906-1.183593-.242188-2.351562-.707031-3.441406-.40625-1.066406-1.035157-2.027344-1.851563-2.824219zm0 0"/><path d="m200.472656 390.972656c-.84375-.796875-1.832031-1.425781-2.910156-1.851562-2.148438-.882813-4.5625-.882813-6.710938 0-1.078124.425781-2.066406 1.054687-2.914062 1.851562-3.414062 3.480469-3.414062 9.054688 0 12.535156.847656.800782 1.835938 1.429688 2.914062 1.855469 2.136719.941407 4.574219.941407 6.710938 0 1.066406-.449219 2.054688-1.074219 2.910156-1.855469 1.613282-1.691406 2.527344-3.929687 2.5625-6.265624-.015625-1.15625-.253906-2.292969-.707031-3.355469-.425781-1.082031-1.054687-2.070313-1.855469-2.914063zm0 0"/><path d="m165.164062 390.972656c-.84375-.796875-1.832031-1.425781-2.914062-1.851562-2.148438-.882813-4.558594-.882813-6.707031 0-1.082031.425781-2.070313 1.054687-2.914063 1.851562-3.414062 3.480469-3.414062 9.054688 0 12.535156.84375.800782 1.832032 1.429688 2.914063 1.855469 2.136719.941407 4.570312.941407 6.707031 0 1.070312-.449219 2.054688-1.074219 2.914062-1.855469 1.613282-1.691406 2.527344-3.929687 2.558594-6.265624-.011718-1.15625-.253906-2.292969-.703125-3.355469-.429687-1.082031-1.058593-2.070313-1.855469-2.914063zm0 0"/><path d="m200.472656 426.285156c-.816406-.855468-1.808594-1.515625-2.910156-1.941406-2.167969-.796875-4.542969-.796875-6.710938 0-1.101562.425781-2.09375 1.085938-2.914062 1.941406-1.625 1.683594-2.539062 3.925782-2.558594 6.265625.050782 2.335938.960938 4.566407 2.558594 6.269531.890625.738282 1.871094 1.359376 2.914062 1.851563 2.136719.945313 4.574219.945313 6.710938 0 1.03125-.511719 2.007812-1.132813 2.910156-1.851563 1.597656-1.703124 2.511719-3.933593 2.5625-6.269531-.003906-1.183593-.246094-2.351562-.707031-3.441406-.40625-1.066406-1.039063-2.027344-1.855469-2.824219zm0 0"/><path d="m235.785156 461.59375c-.816406-.851562-1.8125-1.515625-2.914062-1.941406-2.164063-.796875-4.542969-.796875-6.707032 0-1.101562.425781-2.097656 1.089844-2.914062 1.941406-1.625 1.683594-2.542969 3.929688-2.558594 6.269531.046875 2.332031.960938 4.566407 2.558594 6.265625.886719.738282 1.867188 1.363282 2.914062 1.855469 2.136719.941406 4.570313.941406 6.707032 0 1.035156-.515625 2.011718-1.136719 2.914062-1.855469 1.597656-1.699218 2.507813-3.933594 2.558594-6.265625-.003906-1.183593-.242188-2.355469-.707031-3.445312-.40625-1.0625-1.035157-2.027344-1.851563-2.824219zm0 0"/><path d="m271.09375 426.285156c-.816406-.855468-1.808594-1.515625-2.910156-1.941406-2.167969-.796875-4.546875-.796875-6.710938 0-1.101562.425781-2.097656 1.085938-2.914062 1.941406-1.625 1.683594-2.542969 3.925782-2.558594 6.265625.050781 2.335938.960938 4.566407 2.558594 6.269531.890625.738282 1.867187 1.359376 2.914062 1.851563 2.136719.941406 4.570313.941406 6.710938 0 1.03125-.511719 2.007812-1.132813 2.910156-1.851563 1.597656-1.703124 2.511719-3.933593 2.5625-6.269531-.003906-1.183593-.246094-2.351562-.707031-3.441406-.40625-1.066406-1.039063-2.027344-1.855469-2.824219zm0 0"/><path d="m271.09375 461.59375c-.816406-.851562-1.808594-1.515625-2.910156-1.941406-2.167969-.796875-4.546875-.796875-6.710938 0-1.101562.425781-2.097656 1.089844-2.914062 1.941406-1.625 1.683594-2.542969 3.929688-2.558594 6.269531.050781 2.332031.960938 4.566407 2.558594 6.265625.890625.738282 1.867187 1.363282 2.914062 1.855469 2.136719.941406 4.570313.941406 6.710938 0 1.03125-.515625 2.007812-1.136719 2.910156-1.855469 1.597656-1.699218 2.511719-3.933594 2.5625-6.265625-.003906-1.183593-.246094-2.355469-.707031-3.445312-.40625-1.0625-1.039063-2.027344-1.855469-2.824219zm0 0"/><path d="m271.09375 390.972656c-.84375-.796875-1.832031-1.425781-2.910156-1.851562-2.152344-.882813-4.5625-.882813-6.710938 0-1.078125.425781-2.070312 1.054687-2.914062 1.851562-3.414063 3.480469-3.414063 9.054688 0 12.535156.84375.800782 1.835937 1.429688 2.914062 1.855469 2.136719.941407 4.570313.941407 6.710938 0 1.066406-.449219 2.054687-1.074219 2.910156-1.855469 1.613281-1.691406 2.527344-3.929687 2.5625-6.265624-.015625-1.15625-.253906-2.292969-.707031-3.355469-.425781-1.082031-1.054688-2.070313-1.855469-2.914063zm0 0"/><path d="m306.40625 426.285156c-.816406-.855468-1.8125-1.515625-2.914062-1.941406-2.164063-.796875-4.542969-.796875-6.707032 0-1.105468.425781-2.097656 1.085938-2.914062 1.941406-1.625 1.683594-2.542969 3.925782-2.5625 6.265625.050781 2.335938.964844 4.566407 2.5625 6.269531.886718.738282 1.867187 1.359376 2.914062 1.851563 2.136719.941406 4.570313.941406 6.707032 0 1.035156-.511719 2.011718-1.132813 2.914062-1.851563 1.597656-1.703124 2.507812-3.933593 2.558594-6.269531-.003906-1.183593-.242188-2.351562-.707032-3.441406-.40625-1.066406-1.039062-2.027344-1.851562-2.824219zm0 0"/><path d="m306.40625 390.972656c-.84375-.796875-1.832031-1.425781-2.914062-1.851562-2.148438-.882813-4.558594-.882813-6.707032 0-1.082031.425781-2.070312 1.054687-2.914062 1.851562-3.414063 3.480469-3.414063 9.054688 0 12.535156.84375.800782 1.832031 1.429688 2.914062 1.855469 2.136719.941407 4.570313.941407 6.707032 0 1.070312-.449219 2.054687-1.074219 2.914062-1.855469 1.609375-1.691406 2.523438-3.929687 2.558594-6.265624-.011719-1.15625-.253906-2.292969-.707032-3.355469-.425781-1.082031-1.054687-2.070313-1.851562-2.914063zm0 0"/><path d="m343.570312 393.886719c-.804687-2.21875-2.550781-3.964844-4.765624-4.765625-2.152344-.882813-4.5625-.882813-6.710938 0-1.082031.425781-2.070312 1.054687-2.914062 1.851562-3.414063 3.480469-3.414063 9.054688 0 12.535156.84375.800782 1.832031 1.429688 2.914062 1.855469 2.136719.941407 4.570312.941407 6.710938 0 1.066406-.449219 2.050781-1.074219 2.910156-1.855469 1.613281-1.691406 2.527344-3.929687 2.5625-6.265624-.015625-1.15625-.253906-2.292969-.707032-3.355469zm0 0"/><path d="m79.449219 229.515625c2.339843 0 4.585937-.929687 6.238281-2.585937l26.484375-26.480469c3.34375-3.464844 3.296875-8.972657-.105469-12.375-3.40625-3.40625-8.914062-3.453125-12.375-.109375l-26.484375 26.484375c-2.523437 2.523437-3.277343 6.320312-1.914062 9.617187 1.367187 3.300782 4.585937 5.449219 8.15625 5.449219zm0 0"/><path d="m182.792969 170.3125c-3.449219-3.449219-9.035157-3.449219-12.480469 0l-97.105469 97.101562c-2.292969 2.214844-3.214843 5.5-2.40625 8.585938.808594 3.085938 3.21875 5.496094 6.304688 6.304688 3.085937.808593 6.367187-.113282 8.582031-2.410157l97.105469-97.101562c3.445312-3.449219 3.445312-9.035157 0-12.480469zm0 0"/></g><path d="m53.140625 317.792969h-35.484375c-9.738281-.027344-17.6289062-7.917969-17.65625-17.65625v-79.445313c.0273438-9.742187 7.917969-17.628906 17.65625-17.65625h15.445312l6.269532 50.492188h.089844l4.589843 37.253906h.175781c.742188 9.59375 3.800782 18.863281 8.914063 27.011719zm0 0" fill="#35495e"/><path d="m494.34375 220.691406v79.445313c-.027344 9.738281-7.914062 17.628906-17.652344 17.65625h-35.488281c5.113281-8.148438 8.175781-17.417969 8.914063-27.011719h.179687l4.589844-37.253906h.085937l6.269532-50.492188h15.449218c9.738282.027344 17.625 7.914063 17.652344 17.65625zm0 0" fill="#35495e"/></svg>