<svg height="512pt" viewBox="-8 0 512 512.0215" width="512pt" xmlns="http://www.w3.org/2000/svg"><path d="m461.519531 20.324219h-.089843c-7.707032 5.914062-18.421876 5.914062-26.128907 0l-20.921875-15.890625c-7.707031-5.910156-18.421875-5.910156-26.128906 0l-20.921875 15.890625c-7.738281 5.914062-18.480469 5.914062-26.21875 0l-20.921875-15.890625c-7.703125-5.910156-18.421875-5.910156-26.128906 0l-20.921875 15.890625c-7.703125 5.914062-18.421875 5.914062-26.128907 0h-.089843c-7.25-5.570313-17.226563-5.960938-24.890625-.96875l-19.597656-14.921875c-7.738282-5.910156-18.480469-5.910156-26.21875 0l-20.921876 15.890625c-7.707031 5.914062-18.421874 5.914062-26.128906 0l-20.921875-15.890625c-7.738281-5.910156-18.480469-5.910156-26.21875 0l-20.832031 15.890625c-7.738281 5.914062-18.480469 5.914062-26.21875 0h-.085938c-6.613281-5.015625-15.503906-5.828125-22.917968-2.09375-7.410156 3.734375-12.0507815 11.363281-11.9531252 19.660156-.0859376 54.644531 3.5312502 148.039063 27.4531252 203.742187 35.3125 82.359376 52.964844 118.996094 52.964844 155.628907h123.589843c0-33.457031 14.742188-67 44.222657-135.324219 29.484374 68.324219 44.226562 101.867188 44.226562 135.324219h123.585938c0-36.632813 17.65625-73.269531 52.96875-155.628907 23.832031-55.703124 27.539062-149.097656 27.453124-203.742187.066407-8.304687-4.589843-15.929687-12.015624-19.660156-7.421876-3.726563-16.316407-2.917969-22.941407 2.09375zm0 0" fill="#f0c419"/><path d="m248.242188 261.9375c-29.480469 68.324219-44.222657 101.867188-44.222657 135.324219h-123.589843c0-36.632813-17.652344-73.269531-52.964844-155.628907-23.921875-55.703124-27.5390628-149.097656-27.4531252-203.742187-.0976563-8.296875 4.5429692-15.925781 11.9531252-19.660156 7.414062-3.734375 16.304687-2.921875 22.917968 2.09375h.085938c7.738281 5.914062 18.480469 5.914062 26.21875 0l20.832031-15.890625c7.738281-5.910156 18.480469-5.910156 26.21875 0l20.921875 15.890625c7.707032 5.914062 18.421875 5.914062 26.128906 0l20.921876-15.890625c7.738281-5.910156 18.480468-5.910156 26.21875 0l19.597656 14.921875c-6.3125 4.042969-10.113282 11.039062-10.066406 18.535156 0 18.890625.441406 42.375 1.945312 67.265625.175781 2.914062.441406 5.828125.617188 8.742188v.085937c.527343 7.769531 1.234374 15.539063 2.03125 23.394531 2.605468 35.671875 10.335937 70.785156 22.949218 104.253906 3.003906 7.0625 5.914063 13.859376 8.738282 20.304688zm0 0" fill="#e4c05c"/><path d="m204.019531 397.261719v70.621093c0 24.378907-19.761719 44.140626-44.140625 44.140626h-35.308594c-24.378906 0-44.140624-19.761719-44.140624-44.140626v-70.621093zm0 0" fill="#4482c3"/><path d="m195.191406 247.195312v26.480469h-105.933594v-26.480469c0-29.253906 23.714844-52.96875 52.96875-52.96875 29.230469.046876 52.917969 23.734376 52.964844 52.96875zm0 0" fill="#4482c3"/><path d="m195.191406 273.675781v17.65625c-.03125 9.738281-7.917968 17.625-17.65625 17.65625h-70.621094c-9.738281-.03125-17.625-7.917969-17.65625-17.65625v-17.65625zm0 0" fill="#285680"/><path d="m445.097656 53.339844c-2.246094-.6875-4.675781-.445313-6.746094.664062-2.070312 1.109375-3.613281 3-4.285156 5.25l-35.3125 114.757813c-1.402344 4.652343 1.191406 9.570312 5.828125 11.035156.859375.246094 1.75.367187 2.648438.355469 3.863281-.027344 7.261719-2.570313 8.382812-6.269532l35.3125-114.757812c1.402344-4.652344-1.191406-9.570312-5.828125-11.035156zm-90.835937-.351563c-4.875 0-8.824219 3.949219-8.824219 8.828125v97.101563c0 4.875 3.949219 8.828125 8.824219 8.828125 4.878906 0 8.828125-3.953125 8.828125-8.828125v-97.101563c0-4.878906-3.949219-8.828125-8.828125-8.828125zm-64.085938 57.464844c-.070312-.101563-.101562-.226563-.089843-.351563l-15.710938-50.847656c-.757812-3.195312-3.226562-5.707031-6.410156-6.519531s-6.554688.210937-8.75 2.65625c-2.195313 2.445313-2.851563 5.90625-1.703125 8.984375l35.3125 114.757812c.757812 3.195313 3.226562 5.710938 6.410156 6.519532 3.183594.8125 6.554687-.210938 8.746094-2.65625 2.195312-2.445313 2.851562-5.90625 1.703125-8.984375zm0 0" fill="#f29c1f"/><path d="m416.054688 397.261719v70.621093c0 11.707032-4.648438 22.933594-12.925782 31.210938s-19.503906 12.929688-31.210937 12.929688h-35.308594c-24.378906 0-44.140625-19.761719-44.140625-44.140626v-70.621093zm0 0" fill="#3b97d3"/><path d="m407.230469 247.195312v26.480469h-105.933594v-26.480469c0-29.253906 23.714844-52.96875 52.964844-52.96875 29.253906 0 52.96875 23.714844 52.96875 52.96875zm0 0" fill="#3b97d3"/><path d="m407.230469 273.675781v17.65625c-.03125 9.738281-7.917969 17.625-17.65625 17.65625h-70.621094c-9.75 0-17.65625-7.90625-17.65625-17.65625v-17.65625zm0 0" fill="#2980ba"/><g fill="#f3d55b"><path d="m62.386719 59.21875c-.925781-3.015625-3.390625-5.304688-6.464844-6.011719-3.074219-.703125-6.292969.285157-8.441406 2.597657-2.144531 2.308593-2.898438 5.589843-1.972657 8.605468l35.3125 114.757813c1.433594 4.660156 6.375 7.277343 11.035157 5.84375 4.660156-1.433594 7.277343-6.371094 5.84375-11.035157zm0 0"/><path d="m216.554688 137.378906-12.890626 41.84375c-1.203124 3.664063-4.617187 6.152344-8.472656 6.179688-.867187.015625-1.730468-.101563-2.5625-.355469-4.675781-1.472656-7.304687-6.421875-5.914062-11.121094l19.421875-62.589843c1.078125-3.457032 4.15625-5.90625 7.769531-6.179688.175781 2.914062.441406 5.828125.617188 8.742188v.085937c.527343 7.769531 1.234374 15.539063 2.03125 23.394531zm0 0"/><path d="m142.226562 52.988281c-4.878906 0-8.828124 3.949219-8.828124 8.828125v97.101563c0 4.875 3.949218 8.828125 8.828124 8.828125 4.875 0 8.824219-3.953125 8.824219-8.828125v-97.101563c0-4.878906-3.949219-8.828125-8.824219-8.828125zm0 0"/><path d="m303.859375 185.046875c-4.675781 1.351563-9.574219-1.273437-11.035156-5.914063l-35.3125-114.757812c-1.148438-3.078125-.492188-6.539062 1.703125-8.984375 2.195312-2.445313 5.566406-3.46875 8.75-2.65625s5.652344 3.324219 6.410156 6.519531l15.710938 50.847656c-.011719.125.019531.25.089843.351563l19.507813 63.558594c1.40625 4.652343-1.191406 9.570312-5.824219 11.035156zm0 0"/><path d="m450.925781 64.375-35.3125 114.757812c-1.121093 3.699219-4.519531 6.242188-8.382812 6.269532-.898438.011718-1.789063-.109375-2.648438-.355469-4.636719-1.464844-7.230469-6.382813-5.828125-11.035156l35.3125-114.757813c.753906-3.195312 3.226563-5.707031 6.410156-6.519531 3.179688-.8125 6.550782.210937 8.746094 2.65625 2.195313 2.445313 2.851563 5.90625 1.703125 8.984375zm0 0"/><path d="m363.089844 61.816406v97.101563c0 4.875-3.949219 8.828125-8.828125 8.828125-4.875 0-8.824219-3.953125-8.824219-8.828125v-97.101563c0-4.878906 3.949219-8.828125 8.824219-8.828125 4.878906 0 8.828125 3.949219 8.828125 8.828125zm0 0"/></g></svg>