<svg height="511pt" viewBox="0 -35 511.97805 511" width="511pt" xmlns="http://www.w3.org/2000/svg"><path d="m194.207031 199.285156c65.316407-7.496094 131.351563-5.921875 196.238281 4.679688 70.179688 14.210937 137.179688 34.957031 85.097657 70.179687-13.242188 9.003907-25.601563 9.09375-42.992188 17.917969-32.484375 16.507812-9.445312 53.144531 36.015625 52.878906 43.785156-.175781 52.613282 36.8125 34.695313 52.878906-23.480469 21.183594-104.078125 44.046876-242.9375 44.046876-138.855469 0-260.324219-26.394532-260.324219-105.753907 0-78.125 73.710938-115.640625 158.898438-131.441406zm0 0" fill="#24ae5f"/><path d="m79.449219 390.617188c-1.148438 0-2.285157-.226563-3.347657-.664063-34.761718-14.292969-51.382812-35.019531-49.34375-61.722656 1.984376-26.183594 19.558594-50.871094 48.207032-67.726563 4.191406-2.378906 9.515625-.953125 11.960937 3.199219 2.449219 4.152344 1.109375 9.5-3 12.011719-11.167969 6.570312-37.378906 24.964844-39.566406 53.847656-1.394531 18.46875 11.175781 32.859375 38.433594 44.058594 3.898437 1.601562 6.121093 5.738281 5.308593 9.871094-.816406 4.136718-4.4375 7.117187-8.652343 7.125zm0 0" fill="#71c285"/><path d="m238.34375 318.28125c0 15.980469-18.625 29.484375-44.136719 33.808594v-67.617188c25.511719 4.324219 44.136719 17.832032 44.136719 33.808594zm0 0" fill="#547580"/><path d="m158.898438 284.472656v67.617188c-25.511719-4.324219-44.140626-17.828125-44.140626-33.808594 0-15.976562 18.628907-29.484375 44.140626-33.808594zm0 0" fill="#547580"/><path d="m303.402344 88.148438-118.023438 44.753906v-105.929688l118.023438 44.753906c3.371094 1.332032 5.585937 4.585938 5.585937 8.210938 0 3.621094-2.214843 6.878906-5.585937 8.210938zm0 0" fill="#e64c3c"/><path d="m361.929688 265.316406c0 14.625-11.855469 26.484375-26.480469 26.484375-14.628907 0-26.484375-11.859375-26.484375-26.484375s11.855468-26.484375 26.484375-26.484375c14.625 0 26.480469 11.859375 26.480469 26.484375zm0 0" fill="#fff"/><path d="m194.207031 18.144531v333.945313c-11.683593 2.003906-23.625 2.003906-35.308593 0v-333.945313c0-9.75 7.902343-17.65625 17.652343-17.65625s17.65625 7.90625 17.65625 17.65625zm0 0" fill="#805333"/></svg>