<svg height="512pt" viewBox="0 0 512 512.00066" width="512pt" xmlns="http://www.w3.org/2000/svg"><path d="m511.996094 256c.125 52.949219-16.292969 104.613281-46.964844 147.773438-3.351562 4.855468-6.972656 9.621093-10.769531 14.210937-48.632813 59.503906-121.417969 94.015625-198.265625 94.015625s-149.632813-34.511719-198.269532-94.015625c-3.792968-4.589844-7.414062-9.355469-10.769531-14.210937-43.644531-61.738282-57.761719-139.613282-38.574219-212.746094 19.191407-73.132813 69.726563-134.042969 138.0625-166.398438 5.414063-2.710937 10.984376-5.097656 16.683594-7.152344 59.75-23.300781 126.074219-23.300781 185.820313 0 5.648437 2.121094 11.035156 4.503907 16.507812 7.152344h.089844c89.46875 42.292969 146.507813 132.40625 146.449219 231.371094zm0 0" fill="#bdc3c7"/><path d="m465.03125 403.773438c-3.351562 4.855468-6.972656 9.621093-10.769531 14.210937l-.527344-.441406c-.675781-.496094-1.269531-1.089844-1.765625-1.765625-6.621094-8.914063-13.066406-18.269532-19.246094-27.71875l-28.160156-2.734375c-3.210938-.207031-6.054688-2.144531-7.421875-5.058594s-1.039063-6.34375.851563-8.945313c1.894531-2.601562 5.054687-3.96875 8.25-3.5625l14.828124 1.410157c-4.765624-7.945313-9.269531-16.066407-13.59375-24.1875l-22.953124-2.207031c-3.136719-.3125-5.867188-2.28125-7.164063-5.15625s-.960937-6.222657.882813-8.78125c1.84375-2.5625 4.910156-3.941407 8.046874-3.628907l11.832032 1.148438c-2.828125-5.824219-5.476563-11.652344-8.035156-17.65625-.125.015625-.25-.015625-.351563-.085938l-30.457031-8.476562c-4.703125-1.316407-7.449219-6.195313-6.132813-10.902344 1.316407-4.703125 6.195313-7.449219 10.902344-6.132813l17.476563 4.941407c-2.296876-6-4.5-11.917969-6.621094-17.917969l-27.804688-9.269531c-3.25-.773438-5.785156-3.3125-6.550781-6.566407-.765625-3.25.371094-6.65625 2.933594-8.796874 2.5625-2.140626 6.113281-2.652344 9.175781-1.320313l15.449219 5.03125c-2.648438-8.476563-5.03125-17.039063-7.238281-25.6875l-25.511719-11.742187c-4.4375-2.023438-6.394531-7.261719-4.371094-11.695313 2.023437-4.4375 7.261719-6.394531 11.699219-4.371094l13.238281 6.089844c-1.5-7.0625-2.824219-13.945313-3.972656-20.65625l-23.304688-11.738281c-3.054687-1.273438-5.140625-4.148438-5.402343-7.445313-.265626-3.296875 1.335937-6.46875 4.148437-8.210937 2.8125-1.742188 6.367187-1.765625 9.199219-.058594l12.183594 6.089844c-.882813-6.972656-1.675782-14.035156-2.296876-21.007813l-24.804687-16.683593c-4.046875-2.730469-5.113281-8.222657-2.382813-12.269532 2.730469-4.046875 8.222657-5.113281 12.269532-2.386718l13.332031 9.007812c-.441406-7.683594-.621094-15.449219-.707031-23.394531l-22.511719-15.09375c-4.046875-2.730469-5.113281-8.226563-2.382813-12.273438 2.730469-4.046875 8.222657-5.113281 12.269532-2.382812l12.800781 8.5625c.445313-17.386719 1.773437-34.742188 3.972656-51.992188.058594-.828125.269531-1.636719.617188-2.386719 5.648437 2.121094 11.035156 4.503907 16.507812 7.152344-1.851562 15.09375-2.914062 30.808594-3.441406 46.875l12.179687-8.210937c2.617188-1.765625 5.980469-2 8.816407-.617188 2.839843 1.382813 4.726562 4.175781 4.945312 7.328125.222657 3.148438-1.253906 6.175782-3.875 7.945313l-22.242187 14.917969c.085937 7.589843.261718 15.09375.617187 22.421874l11.738281-7.859374c2.617188-1.765626 5.980469-2 8.816407-.617188 2.839843 1.386719 4.726562 4.179688 4.945312 7.328125.222657 3.148437-1.253906 6.179687-3.875 7.945313l-20.214843 13.59375c.707031 7.855468 1.589843 15.625 2.648437 23.394531l12.359375-10.769531c2.339844-2.25 5.726562-3.03125 8.816406-2.039063s5.386719 3.601563 5.976563 6.792969c.59375 3.191406-.613281 6.449218-3.140625 8.484375l-20.832032 18.273437c1.058594 6.445313 2.382813 12.976563 3.796876 19.6875l11.386718-10.683594c2.300782-2.160156 5.582032-2.925781 8.601563-2.011718 3.023437.914062 5.328125 3.367187 6.046875 6.441406.722656 3.074219-.253906 6.300781-2.554688 8.460938l-18.890625 17.65625c2.027344 8.03125 4.234375 15.976562 6.621094 23.832031l9.089844-10.59375c3.167969-3.703125 8.742187-4.140625 12.449219-.96875 3.703124 3.167969 4.136718 8.742187.96875 12.445312l-16.152344 18.890625c1.941406 5.472656 3.882812 10.945313 6 16.421875l7.503906-9.710937c1.941406-2.492188 5.0625-3.761719 8.191406-3.324219 3.125.433594 5.785156 2.5 6.972656 5.425781 1.1875 2.925782.722657 6.265625-1.214843 8.753906l-13.773438 17.65625c3.355469 7.769532 6.886719 15.449219 10.507813 22.953126l8.648437-16.332032c2.292969-4.316406 7.648438-5.953125 11.960938-3.664062 4.316406 2.292968 5.957031 7.648437 3.664062 11.960937l-14.476562 27.277344c3.707031 6.886719 7.59375 13.773437 11.652343 20.570313l7.238282-13.59375c2.292968-4.316407 7.648437-5.957032 11.960937-3.664063 4.316407 2.289063 5.957031 7.644531 3.664063 11.960937l-12.09375 22.6875c5.738281 8.648438 11.566406 17.300782 17.566406 25.421876zm0 0" fill="#cc4b4c"/><path d="m192.703125 109.816406c1.3125 1.941406 1.800781 4.328125 1.351563 6.628906-.445313 2.300782-1.792969 4.332032-3.738282 5.640626l-24.804687 16.683593c-.617188 6.972657-1.410157 14.035157-2.292969 21.007813l12.179688-6.089844c2.835937-1.707031 6.386718-1.683594 9.199218.058594 2.8125 1.742187 4.417969 4.914062 4.152344 8.210937s-2.351562 6.171875-5.40625 7.445313l-23.304688 11.738281c-1.148437 6.710937-2.472656 13.59375-3.972656 20.65625l13.242188-6.089844c2.871094-1.308593 6.21875-.988281 8.789062.84375 2.566406 1.832031 3.964844 4.894531 3.664063 8.035157-.304688 3.136718-2.257813 5.878906-5.125 7.1875l-25.601563 11.742187c-2.117187 8.648437-4.5 17.210937-7.148437 25.6875l15.445312-5.03125c4.449219-1.058594 8.972657 1.457031 10.417969 5.796875 1.449219 4.335938-.660156 9.0625-4.855469 10.886719l-27.808593 9.269531c-2.117188 5.914062-4.324219 11.917969-6.617188 17.917969l17.476562-4.941407c4.703126-1.316406 9.585938 1.429688 10.902344 6.132813 1.316406 4.707031-1.429687 9.585937-6.136718 10.902344l-30.453126 8.476562c-.105468.070313-.230468.101563-.355468.085938-2.558594 5.914062-5.207032 11.832031-8.03125 17.65625l11.828125-1.148438c3.140625-.3125 6.207031 1.066407 8.050781 3.628907 1.839844 2.558593 2.175781 5.90625.882812 8.78125-1.296874 2.875-4.027343 4.84375-7.167968 5.15625l-22.949219 2.207031c-4.328125 8.121093-8.828125 16.242187-13.597656 24.1875l14.832031-1.410157c3.191406-.40625 6.351562.960938 8.246094 3.5625 1.894531 2.601563 2.222656 6.03125.855468 8.945313-1.367187 2.914063-4.210937 4.851563-7.425781 5.058594l-28.160156 2.734375c-6.179687 9.449218-12.621094 18.804687-19.242187 27.71875-.496094.675781-1.09375 1.269531-1.765626 1.765625l-.53125.441406c-3.792968-4.589844-7.414062-9.355469-10.769531-14.210937 6.003907-8.121094 11.828125-16.773438 17.566407-25.421876l-12.09375-22.6875c-2.289063-4.316406-.648438-9.671874 3.664062-11.960937 4.316406-2.292969 9.671875-.652344 11.960938 3.664063l7.238281 13.59375c4.0625-6.796876 7.945312-13.683594 11.652343-20.570313l-14.476562-27.277344c-2.289062-4.3125-.648438-9.667969 3.664062-11.960937 4.316407-2.289063 9.671876-.652344 11.960938 3.664062l8.652344 16.332032c3.707031-7.503907 7.148437-15.183594 10.503906-22.953126l-13.769531-17.65625c-3-3.851562-2.308594-9.402343 1.542969-12.402343 3.851562-2.996094 9.40625-2.304688 12.402343 1.546875l7.503907 9.710937c2.121093-5.476562 4.0625-10.949219 6.003906-16.421875l-16.15625-18.890625c-3.167969-3.703125-2.734375-9.277343.972656-12.445312 3.703125-3.171875 9.277344-2.734375 12.445312.96875l9.09375 10.59375c2.355469-7.855469 4.5625-15.800781 6.621094-23.832031l-18.890625-17.65625c-3.558593-3.339844-3.738281-8.933594-.398437-12.492188s8.933594-3.738281 12.492187-.398438l11.386719 10.683594c1.5-6.710937 2.738281-13.242187 3.796875-19.6875l-20.835937-18.273437c-3.40625-3.273438-3.632813-8.648438-.511719-12.195313 3.125-3.550781 8.484375-4.007812 12.167969-1.042968l12.355468 10.769531c1.0625-7.769531 1.941406-15.539063 2.648438-23.394531l-20.214844-13.59375c-2.617188-1.765626-4.09375-4.796876-3.871094-7.945313.21875-3.148437 2.101563-5.941406 4.941406-7.328125 2.839844-1.382812 6.199219-1.148438 8.816407.617188l11.742187 7.859374c.351563-7.328124.527344-14.832031.617188-22.421874l-22.246094-14.917969c-2.617188-1.769531-4.09375-4.796875-3.871094-7.945313.21875-3.152344 2.101563-5.945312 4.941406-7.328125 2.839844-1.382812 6.199219-1.148437 8.816407.617188l12.183593 8.210937c-.53125-16.066406-1.589843-31.78125-3.53125-46.875 5.414063-2.710937 10.984376-5.097656 16.683594-7.152344.339844.816407.546875 1.679688.617188 2.5625 2.167968 17.195313 3.464844 34.488282 3.886718 51.816407l12.796876-8.5625c4.046874-2.730469 9.542968-1.664063 12.273437 2.382812s1.660156 9.542969-2.386719 12.273438l-22.507812 15.09375c-.089844 7.945312-.265625 15.710937-.707032 23.394531l13.328126-9.007812c1.945312-1.3125 4.328124-1.800782 6.632812-1.351563 2.300781.445313 4.328125 1.792969 5.640625 3.738281zm0 0" fill="#cc4b4c"/><g fill="#ecf0f1"><path d="m264.734375 430.167969c-2.117187 19.421875-29.394531 32.398437-60.820313 29.042969-31.429687-3.355469-55.4375-21.890626-53.320312-41.3125 2.117188-19.421876 29.308594-32.308594 60.820312-28.957032 31.515626 3.355469 55.351563 21.894532 53.320313 41.226563zm0 0"/><path d="m353.804688 436.4375c-10.222657 8.261719-25.167969 6.894531-33.722657-3.089844-5.863281-11.835937-1.195312-26.1875 10.507813-32.3125 12.179687-8.03125 27.363281-6.617187 33.71875 3.179688 5.867187 11.808594 1.195312 26.140625-10.503906 32.222656zm0 0"/></g></svg>