<svg height="512pt" viewBox="0 -4 512.00003 512" width="512pt" xmlns="http://www.w3.org/2000/svg"><path d="m503.464844 460.800781h-8.53125v-34.132812c0-4.714844-3.820313-8.535157-8.535156-8.535157-4.710938 0-8.53125 3.820313-8.53125 8.535157v34.132812h-34.132813v-34.132812c0-4.714844-3.820313-8.535157-8.535156-8.535157-4.710938 0-8.53125 3.820313-8.53125 8.535157v34.132812h-34.132813v-34.132812c0-4.714844-3.824218-8.535157-8.535156-8.535157s-8.535156 3.820313-8.535156 8.535157v34.132812h-34.132813v-34.132812c0-4.714844-3.820312-8.535157-8.53125-8.535157-4.714843 0-8.535156 3.820313-8.535156 8.535157v34.132812h-34.132813v-34.132812c0-4.714844-3.820312-8.535157-8.53125-8.535157-4.714843 0-8.535156 3.820313-8.535156 8.535157v34.132812h-34.132812v-34.132812c0-4.714844-3.820313-8.535157-8.535156-8.535157-4.710938 0-8.53125 3.820313-8.53125 8.535157v34.132812h-34.132813v-34.132812c0-4.714844-3.820313-8.535157-8.535156-8.535157-4.710938 0-8.53125 3.820313-8.53125 8.535157v34.132812h-34.132813v-34.132812c0-4.714844-3.824218-8.535157-8.535156-8.535157s-8.535156 3.820313-8.535156 8.535157v34.132812h-34.132813v-34.132812c0-4.714844-3.820312-8.535157-8.53125-8.535157-4.714843 0-8.535156 3.820313-8.535156 8.535157v34.132812h-34.132813v-34.132812c0-4.714844-3.820312-8.535157-8.53125-8.535157-4.714843 0-8.535156 3.820313-8.535156 8.535157v34.132812h-8.53125c-4.714844 0-8.535156 3.820313-8.535156 8.535157 0 4.710937 3.820312 8.53125 8.535156 8.53125h8.53125v17.066406c0 4.714844 3.820313 8.535156 8.535156 8.535156 4.710938 0 8.53125-3.820312 8.53125-8.535156v-17.066406h34.132813v17.066406c0 4.714844 3.820313 8.535156 8.535156 8.535156 4.710938 0 8.53125-3.820312 8.53125-8.535156v-17.066406h34.132813v17.066406c0 4.714844 3.824218 8.535156 8.535156 8.535156s8.535156-3.820312 8.535156-8.535156v-17.066406h34.132813v17.066406c0 4.714844 3.820312 8.535156 8.53125 8.535156 4.714843 0 8.535156-3.820312 8.535156-8.535156v-17.066406h34.132813v17.066406c0 4.714844 3.820312 8.535156 8.53125 8.535156 4.714843 0 8.535156-3.820312 8.535156-8.535156v-17.066406h34.132812v17.066406c0 4.714844 3.820313 8.535156 8.535156 8.535156 4.710938 0 8.53125-3.820312 8.53125-8.535156v-17.066406h34.132813v17.066406c0 4.714844 3.820313 8.535156 8.535156 8.535156 4.710938 0 8.53125-3.820312 8.53125-8.535156v-17.066406h34.132813v17.066406c0 4.714844 3.824218 8.535156 8.535156 8.535156s8.535156-3.820312 8.535156-8.535156v-17.066406h34.132813v17.066406c0 4.714844 3.820312 8.535156 8.53125 8.535156 4.714843 0 8.535156-3.820312 8.535156-8.535156v-17.066406h34.132813v17.066406c0 4.714844 3.820312 8.535156 8.53125 8.535156 4.714843 0 8.535156-3.820312 8.535156-8.535156v-17.066406h8.53125c4.714844 0 8.535156-3.820313 8.535156-8.53125 0-4.714844-3.820312-8.535157-8.535156-8.535157zm0 0" fill="#95a5a5"/><path d="m388.097656 341.335938h106.835938c4.710937 0 8.53125 3.820312 8.53125 8.53125v68.265624c0 4.714844-3.820313 8.535157-8.53125 8.535157h-477.867188c-4.710937 0-8.53125-3.820313-8.53125-8.535157v-68.265624c0-4.710938 3.820313-8.53125 8.53125-8.53125h106.835938" fill="#7f8c8d"/><path d="m392.535156 392.535156h68.265625c4.710938 0 8.53125-3.820312 8.53125-8.535156 0-4.710938-3.820312-8.53125-8.53125-8.53125h-68.265625c-4.714844 0-8.535156 3.820312-8.535156 8.53125 0 4.714844 3.820312 8.535156 8.535156 8.535156zm0 0" fill="#95a5a5"/><path d="m51.199219 392.535156h68.265625c4.714844 0 8.535156-3.820312 8.535156-8.535156 0-4.710938-3.820312-8.53125-8.535156-8.53125h-68.265625c-4.710938 0-8.53125 3.820312-8.53125 8.53125 0 4.714844 3.820312 8.535156 8.53125 8.535156zm0 0" fill="#95a5a5"/><path d="m425.726562 97.792969c-16.3125-28.179688-39.394531-51.847657-67.15625-68.863281h-.085937c-30.816406-18.960938-66.300781-28.976563-102.484375-28.929688-8.9375-.0234375-17.863281.605469-26.710938 1.878906h-.082031c-60.152343 8.246094-113.074219 43.925782-143.277343 96.597656-16.386719 28.25-25.371094 60.1875-26.109376 92.839844v.085938c-.085937 1.621094-.085937 3.242187-.085937 4.863281-.074219 43.664063 14.5 86.089844 41.386719 120.492187.167968.085938.253906.257813.425781.339844 6.679687 8.757813 14.164063 16.871094 22.355469 24.238282 36.089844 32.972656 83.214844 51.238281 132.097656 51.199218h.257812c32.578126-.007812 64.644532-8.160156 93.265626-23.722656 39.828124-21.683594 70.960937-56.429688 88.152343-98.390625 23.03125-56.277344 18.617188-120.058594-11.949219-172.628906zm0 0" fill="#3b97d3"/><path d="m437.675781 270.421875c6.65625-34.644531 2.472657-79.359375-28.503906-133.035156-8.160156-14.160157-18.433594-26.992188-30.460937-38.058594 15.5-2.914063 31.359374-3.433594 47.015624-1.535156 30.566407 52.570312 34.980469 116.351562 11.949219 172.628906zm0 0" fill="#2fa8cc"/><path d="m437.675781 270.421875c-17.191406 41.960937-48.324219 76.707031-88.152343 98.390625 24.917968-32.34375 56.75-100.011719.597656-197.292969-9.535156-16.382812-21.800782-31.015625-36.265625-43.261719 19.039062-14.617187 41.257812-24.527343 64.855469-28.929687 12.027343 11.066406 22.300781 23.898437 30.460937 38.058594 30.976563 53.675781 35.160156 98.390625 28.503906 133.035156zm0 0" fill="#f0c419"/><path d="m285.953125 280.40625c-17.832031 6.371094-36.617187 9.660156-55.554687 9.726562-111.871094 0-154.707032-60.925781-170.578126-98.730468v-.085938c.738282-32.652344 9.722657-64.589844 26.109376-92.839844 6.171874 14.492188 14.519531 27.957032 24.746093 39.933594 15.613281 18.253906 35.320313 32.554688 57.515625 41.730469 27.878906 11.261719 57.75 16.746094 87.808594 16.125 15.609375 25.714844 25.800781 54.347656 29.953125 84.140625zm0 0" fill="#2fa8cc"/><path d="m278.613281 351.0625c-15.613281 4.84375-31.867187 7.316406-48.214843 7.339844-61.523438 0-102.140626-18.433594-128.851563-41.304688-.171875-.082031-.257813-.253906-.425781-.339844-26.886719-34.402343-41.460938-76.828124-41.386719-120.492187 0-1.621094 0-3.242187.085937-4.863281 15.871094 37.804687 58.707032 98.730468 170.578126 98.730468 18.9375-.066406 37.722656-3.355468 55.554687-9.726562 3.140625 23.800781.625 48.007812-7.339844 70.65625zm0 0" fill="#f0c419"/><path d="m278.613281 351.0625c-5.292969 14.882812-12.832031 28.871094-22.355469 41.472656h-.257812c-48.882812.039063-96.007812-18.226562-132.097656-51.199218-8.191406-7.367188-15.675782-15.480469-22.355469-24.238282 26.710937 22.871094 67.328125 41.304688 128.851563 41.304688 16.347656-.023438 32.601562-2.496094 48.214843-7.339844zm0 0" fill="#2980ba"/><path d="m425.726562 97.792969c-15.65625-1.898438-31.515624-1.378907-47.015624 1.535156-23.597657 4.402344-45.816407 14.3125-64.855469 28.929687-23.65625 18.554688-43.332031 41.683594-57.855469 68.007813-30.058594.621094-59.929688-4.863281-87.808594-16.125 3.34375-18.640625 9.867188-36.566406 19.285156-52.992187 56.148438-97.109376 130.476563-103.511719 171.007813-98.21875h.085937c27.761719 17.015624 50.84375 40.683593 67.15625 68.863281zm0 0" fill="#2980ba"/><path d="m358.484375 28.929688c-40.53125-5.292969-114.859375 1.109374-171.007813 98.21875-9.417968 16.425781-15.941406 34.351562-19.285156 52.992187-22.195312-9.175781-41.902344-23.476563-57.515625-41.730469 3.585938-15.941406 9.570313-31.25 17.75-45.394531 30.976563-53.503906 67.414063-79.445313 100.78125-91.136719h.082031c8.847657-1.273437 17.773438-1.9023435 26.710938-1.878906 36.183594-.046875 71.667969 9.96875 102.484375 28.929688zm0 0" fill="#f0c419"/><path d="m229.207031 1.878906c-33.367187 11.691406-69.804687 37.632813-100.78125 91.136719-8.179687 14.144531-14.164062 29.453125-17.75 45.394531-10.226562-11.976562-18.574219-25.441406-24.746093-39.933594 30.203124-52.671874 83.125-88.351562 143.277343-96.597656zm0 0" fill="#3b97d3"/><path d="m349.523438 368.8125c-28.621094 15.5625-60.6875 23.714844-93.265626 23.722656 9.523438-12.601562 17.0625-26.589844 22.355469-41.472656 7.964844-22.648438 10.480469-46.855469 7.339844-70.65625-4.152344-29.792969-14.34375-58.425781-29.953125-84.140625 14.523438-26.324219 34.199219-49.453125 57.855469-68.007813 14.464843 12.246094 26.730469 26.878907 36.265625 43.261719 56.152344 97.28125 24.320312 164.949219-.597656 197.292969zm0 0" fill="#3b97d3"/><path d="m437.675781 270.421875c6.65625-34.644531 2.472657-79.359375-28.503906-133.035156-8.160156-14.160157-18.433594-26.992188-30.460937-38.058594 15.5-2.914063 31.359374-3.433594 47.015624-1.535156 30.566407 52.570312 34.980469 116.351562 11.949219 172.628906zm0 0" fill="#2fa8cc"/><path d="m437.675781 270.421875c-17.191406 41.960937-48.324219 76.707031-88.152343 98.390625 24.917968-32.34375 56.75-100.011719.597656-197.292969-9.535156-16.382812-21.800782-31.015625-36.265625-43.261719 19.039062-14.617187 41.257812-24.527343 64.855469-28.929687 12.027343 11.066406 22.300781 23.898437 30.460937 38.058594 30.976563 53.675781 35.160156 98.390625 28.503906 133.035156zm0 0" fill="#f0c419"/><path d="m285.953125 280.40625c-17.832031 6.371094-36.617187 9.660156-55.554687 9.726562-111.871094 0-154.707032-60.925781-170.578126-98.730468v-.085938c.738282-32.652344 9.722657-64.589844 26.109376-92.839844 6.171874 14.492188 14.519531 27.957032 24.746093 39.933594 15.613281 18.253906 35.320313 32.554688 57.515625 41.730469 27.878906 11.261719 57.75 16.746094 87.808594 16.125 15.609375 25.714844 25.800781 54.347656 29.953125 84.140625zm0 0" fill="#2fa8cc"/><path d="m278.613281 351.0625c-15.613281 4.84375-31.867187 7.316406-48.214843 7.339844-61.523438 0-102.140626-18.433594-128.851563-41.304688-.171875-.082031-.257813-.253906-.425781-.339844-26.886719-34.402343-41.460938-76.828124-41.386719-120.492187 0-1.621094 0-3.242187.085937-4.863281 15.871094 37.804687 58.707032 98.730468 170.578126 98.730468 18.9375-.066406 37.722656-3.355468 55.554687-9.726562 3.140625 23.800781.625 48.007812-7.339844 70.65625zm0 0" fill="#f0c419"/><path d="m278.613281 351.0625c-5.292969 14.882812-12.832031 28.871094-22.355469 41.472656h-.257812c-48.882812.039063-96.007812-18.226562-132.097656-51.199218-8.191406-7.367188-15.675782-15.480469-22.355469-24.238282 26.710937 22.871094 67.328125 41.304688 128.851563 41.304688 16.347656-.023438 32.601562-2.496094 48.214843-7.339844zm0 0" fill="#2980ba"/><path d="m425.726562 97.792969c-15.65625-1.898438-31.515624-1.378907-47.015624 1.535156-23.597657 4.402344-45.816407 14.3125-64.855469 28.929687-23.65625 18.554688-43.332031 41.683594-57.855469 68.007813-30.058594.621094-59.929688-4.863281-87.808594-16.125 3.34375-18.640625 9.867188-36.566406 19.285156-52.992187 56.148438-97.109376 130.476563-103.511719 171.007813-98.21875h.085937c27.761719 17.015624 50.84375 40.683593 67.15625 68.863281zm0 0" fill="#2980ba"/><path d="m358.484375 28.929688c-40.53125-5.292969-114.859375 1.109374-171.007813 98.21875-9.417968 16.425781-15.941406 34.351562-19.285156 52.992187-22.195312-9.175781-41.902344-23.476563-57.515625-41.730469 3.585938-15.941406 9.570313-31.25 17.75-45.394531 30.976563-53.503906 67.414063-79.445313 100.78125-91.136719h.082031c8.847657-1.273437 17.773438-1.9023435 26.710938-1.878906 36.183594-.046875 71.667969 9.96875 102.484375 28.929688zm0 0" fill="#f0c419"/><path d="m229.207031 1.878906c-33.367187 11.691406-69.804687 37.632813-100.78125 91.136719-8.179687 14.144531-14.164062 29.453125-17.75 45.394531-10.226562-11.976562-18.574219-25.441406-24.746093-39.933594 30.203124-52.671874 83.125-88.351562 143.277343-96.597656zm0 0" fill="#3b97d3"/></svg>