<svg height="512pt" viewBox="0 -4 512.00003 512" width="512pt" xmlns="http://www.w3.org/2000/svg"><path d="m503.464844 460.734375h-8.53125v-34.132813c0-4.710937-3.820313-8.535156-8.535156-8.535156-4.710938 0-8.53125 3.824219-8.53125 8.535156v34.132813h-34.132813v-34.132813c0-4.710937-3.820313-8.535156-8.535156-8.535156-4.710938 0-8.53125 3.824219-8.53125 8.535156v34.132813h-34.132813v-34.132813c0-4.710937-3.824218-8.535156-8.535156-8.535156s-8.535156 3.824219-8.535156 8.535156v34.132813h-34.132813v-34.132813c0-4.710937-3.820312-8.535156-8.53125-8.535156-4.714843 0-8.535156 3.824219-8.535156 8.535156v34.132813h-34.132813v-34.132813c0-4.710937-3.820312-8.535156-8.53125-8.535156-4.714843 0-8.535156 3.824219-8.535156 8.535156v34.132813h-34.132812v-34.132813c0-4.710937-3.820313-8.535156-8.535156-8.535156-4.710938 0-8.53125 3.824219-8.53125 8.535156v34.132813h-34.132813v-34.132813c0-4.710937-3.820313-8.535156-8.535156-8.535156-4.710938 0-8.53125 3.824219-8.53125 8.535156v34.132813h-34.132813v-34.132813c0-4.710937-3.824218-8.535156-8.535156-8.535156s-8.535156 3.824219-8.535156 8.535156v34.132813h-34.132813v-34.132813c0-4.710937-3.820312-8.535156-8.53125-8.535156-4.714843 0-8.535156 3.824219-8.535156 8.535156v34.132813h-34.132813v-34.132813c0-4.710937-3.820312-8.535156-8.53125-8.535156-4.714843 0-8.535156 3.824219-8.535156 8.535156v34.132813h-8.53125c-4.714844 0-8.535156 3.820313-8.535156 8.535156 0 4.710938 3.820312 8.53125 8.535156 8.53125h8.53125v17.066407c0 4.714843 3.820313 8.535156 8.535156 8.535156 4.710938 0 8.53125-3.820313 8.53125-8.535156v-17.066407h34.132813v17.066407c0 4.714843 3.820313 8.535156 8.535156 8.535156 4.710938 0 8.53125-3.820313 8.53125-8.535156v-17.066407h34.132813v17.066407c0 4.714843 3.824218 8.535156 8.535156 8.535156s8.535156-3.820313 8.535156-8.535156v-17.066407h34.132813v17.066407c0 4.714843 3.820312 8.535156 8.53125 8.535156 4.714843 0 8.535156-3.820313 8.535156-8.535156v-17.066407h34.132813v17.066407c0 4.714843 3.820312 8.535156 8.53125 8.535156 4.714843 0 8.535156-3.820313 8.535156-8.535156v-17.066407h34.132812v17.066407c0 4.714843 3.820313 8.535156 8.535156 8.535156 4.710938 0 8.53125-3.820313 8.53125-8.535156v-17.066407h34.132813v17.066407c0 4.714843 3.820313 8.535156 8.535156 8.535156 4.710938 0 8.53125-3.820313 8.53125-8.535156v-17.066407h34.132813v17.066407c0 4.714843 3.824218 8.535156 8.535156 8.535156s8.535156-3.820313 8.535156-8.535156v-17.066407h34.132813v17.066407c0 4.714843 3.820312 8.535156 8.53125 8.535156 4.714843 0 8.535156-3.820313 8.535156-8.535156v-17.066407h34.132813v17.066407c0 4.714843 3.820312 8.535156 8.53125 8.535156 4.714843 0 8.535156-3.820313 8.535156-8.535156v-17.066407h8.53125c4.714844 0 8.535156-3.820312 8.535156-8.53125 0-4.714843-3.820312-8.535156-8.535156-8.535156zm0 0" fill="#95a5a5"/><path d="m388.097656 341.269531h106.835938c4.710937 0 8.53125 3.820313 8.53125 8.53125v68.265625c0 4.714844-3.820313 8.535156-8.53125 8.535156h-477.867188c-4.710937 0-8.53125-3.820312-8.53125-8.535156v-68.265625c0-4.710937 3.820313-8.53125 8.53125-8.53125h106.835938" fill="#7f8c8d"/><path d="m392.535156 392.46875h68.265625c4.710938 0 8.53125-3.820312 8.53125-8.535156 0-4.710938-3.820312-8.53125-8.53125-8.53125h-68.265625c-4.714844 0-8.535156 3.820312-8.535156 8.53125 0 4.714844 3.820312 8.535156 8.535156 8.535156zm0 0" fill="#95a5a5"/><path d="m51.199219 392.46875h68.265625c4.714844 0 8.535156-3.820312 8.535156-8.535156 0-4.710938-3.820312-8.53125-8.535156-8.53125h-68.265625c-4.710938 0-8.53125 3.820312-8.53125 8.53125 0 4.714844 3.820312 8.535156 8.53125 8.535156zm0 0" fill="#95a5a5"/><path d="m364.628906 262.164062c-51.398437 51.453126-131.835937 59.808594-192.710937 20.015626-60.878907-39.792969-85.5-116.824219-58.996094-184.550782 26.507813-67.722656 96.878906-107.578125 168.59375-95.476562 6.761719 1.03125 13.4375 2.570312 19.96875 4.609375 47.40625 14.714843 84.785156 51.425781 100.351563 98.558593 2.125 6.332032 3.808593 12.804688 5.035156 19.371094 9.617187 49.996094-6.207032 101.503906-42.242188 137.472656zm0 0" fill="#f0c419"/><path d="m406.871094 124.691406c-12.441406 18.792969-22.746094 38.914063-30.722656 59.988282-18.640626 47.78125-64.507813 79.386718-115.796876 79.789062h-2.902343c-31.882813-.527344-62.113281-14.28125-83.453125-37.972656-40.921875-46.824219-39.59375-117.066406 3.070312-162.304688 12.398438-13.488281 27.601563-24.089844 44.542969-31.0625 20.914063-8.386718 40.972656-18.757812 59.90625-30.976562 6.761719 1.03125 13.4375 2.570312 19.96875 4.609375-.515625 1.933593-1.695313 3.625-3.328125 4.777343-21.929688 14.984376-45.421875 27.546876-70.058594 37.460938-14.683594 5.96875-27.855468 15.121094-38.574218 26.796875-36.597657 38.78125-37.851563 98.988281-2.898438 139.261719 18.269531 20.152344 44.054688 31.859375 71.253906 32.34375 45.128906.570312 85.90625-26.851563 102.398438-68.863282 9.34375-24.804687 21.757812-48.339843 36.949218-70.058593 1.113282-1.566407 2.746094-2.6875 4.609376-3.160157 2.125 6.332032 3.808593 12.804688 5.035156 19.371094zm0 0" fill="#fff"/></svg>