<svg height="512pt" viewBox="0 0 512.14701 512" width="512pt" xmlns="http://www.w3.org/2000/svg"><path d="m482.625 153.039062-43.078125-43.078124 22.511719-22.421876 1.234375-1.234374c3.441406-3.46875 3.441406-9.066407 0-12.535157-3.105469-3.136719-8.058594-3.476562-11.5625-.796875-.34375.246094-.667969.511719-.972657.796875l-23.746093 23.746094-18.714844-18.714844 22.511719-22.421875c.457031-.460937.871094-.960937 1.234375-1.5 2.40625-3.820312 1.5625-8.839844-1.960938-11.664062-3.523437-2.820313-8.605469-2.550782-11.808593.628906l-1.941407 1.941406-20.480469 20.570313-36.8125-36.8125c-2.140624-2.535157-5.519531-3.652344-8.746093-2.902344-3.230469.753906-5.765625 3.253906-6.566407 6.472656-.796874 3.21875.273438 6.613281 2.777344 8.789063l5.738282 5.738281-18.714844 18.714844-23.65625-23.660157c-3.46875-3.441406-9.066406-3.441406-12.535156 0-2.636719 2.660157-3.3125 6.691407-1.679688 10.0625.359375.945313.933594 1.789063 1.679688 2.472657l23.65625 23.660156-18.625 18.625-31.25-31.25c-2.128907-2.335937-5.339844-3.355469-8.425782-2.679687-3.085937.679687-5.578125 2.949218-6.535156 5.960937-.957031 3.007813-.234375 6.300781 1.894531 8.636719.15625.222656.332031.429687.53125.617187l31.25 31.25-18.625 18.625-31.25-31.25c-.1875-.195312-.394531-.375-.621093-.527343-3.605469-3.292969-9.199219-3.035157-12.488282.574218-3.292968 3.605469-3.035156 9.199219.574219 12.488282l31.25 31.25-18.628906 18.625-23.65625-23.65625c-.703125-.742188-1.542969-1.339844-2.472657-1.765626-3.898437-1.824218-8.546874-.585937-11.023437 2.933594-2.476563 3.523438-2.070313 8.3125.960937 11.367188l23.65625 23.65625-18.714843 18.714844-5.738281-5.738282c-1.363282-1.347656-3.128907-2.214844-5.03125-2.46875-2.742188-.410156-5.511719.542969-7.414063 2.558594-3.398437 3.46875-3.359375 9.027344.089844 12.445312l5.558593 5.5625 31.25 31.25-20.566406 20.480469-1.941406 1.941407c-3.445312 3.46875-3.445312 9.066406 0 12.535156 1.675781 1.632812 3.925781 2.550781 6.265625 2.558594 1.679687-.011719 3.324219-.46875 4.765625-1.320313.53125-.441406 1.0625-.796875 1.503906-1.238281l22.421875-22.511719 18.714844 18.804687-23.835937 23.746094c-.261719.242188-.496094.507813-.707032.792969-2.753906 3.535156-2.449218 8.5625.707032 11.742187 3.480468 3.414063 9.054687 3.414063 12.535156 0l1.410156-1.414062 22.335938-22.421875 37.339843 37.34375 5.738281 5.648437c2.140626 2.53125 5.519532 3.652344 8.75 2.898438 3.226563-.75 5.761719-3.25 6.5625-6.46875.796876-3.21875-.273437-6.613281-2.777343-8.789062l-43.078125-43.167969 18.714844-18.625 77.242187 74.328125c1.621094 1.554687 3.753906 2.464844 6 2.558594h.265625c2.34375-.007813 4.589844-.925782 6.269531-2.558594 1.355469-1.3125 2.199219-3.0625 2.382813-4.941406.507812-2.769532-.382813-5.613282-2.382813-7.59375l-77.332031-74.328126 18.714844-18.714843 18.714844 18.714843-18.539063 18.449219c-.703125.707031-64.96875 63.914063-65.324219 64.707031-1.78125 3.421876-1.140625 7.601563 1.589844 10.328126 3.480469 3.414062 9.054688 3.414062 12.535156 0l65.679688-64.441407 16.503906-16.597656 17.304688 17.390625 1.851562 1.855469c3.480469 3.414062 9.054688 3.414062 12.535156 0 2.785156-2.777344 3.398438-7.058594 1.503906-10.503907-.390624-.753906-.898437-1.4375-1.503906-2.03125l-19.242187-19.15625 18.714843-18.714843 37.429688 37.519531c.183594.195312.390625.375.617188.527344 1.585937 1.316406 3.585937 2.035156 5.648437 2.03125 2.34375-.007813 4.589844-.925782 6.269531-2.558594 3.441406-3.472656 3.441406-9.066406 0-12.535156l-.882812-.882813-36.636719-36.546875 18.714844-18.714844 29.835937 29.925782c.773438.695312 1.636719 1.289062 2.5625 1.765625 1.160156.53125 2.425782.804687 3.707032.792969 2.339843-.007813 4.589843-.925782 6.265624-2.558594 3.445313-3.46875 3.445313-9.066406 0-12.535156l-2.558593-2.5625-27.367188-27.277344 18.804688-18.710938 11.828125 11.914063c1.40625 1.339843 3.199218 2.203125 5.121094 2.472656.378906.074219.761718.101563 1.148437.089844 2.339844-.011719 4.585937-.929688 6.265625-2.5625 3.445312-3.46875 3.445312-9.0625 0-12.535157zm-68.058594-43.078124-18.714844 18.804687-18.714843-18.804687 18.714843-18.714844zm-31.164062 31.25-18.714844 18.714843-18.710938-18.800781 18.625-18.628906zm-18.714844-81.035157 18.714844 18.625-18.800782 18.714844-18.625-18.625zm-31.160156 31.25 18.625 18.625-18.710938 18.625-18.628906-18.625zm-31.160156 31.160157 18.625 18.539062-18.714844 18.710938-18.625-18.625zm-31.160157 31.160156 18.625 18.539062-18.714843 18.714844-18.625-18.628906zm-49.878906 49.789062 18.628906-18.714844 18.714844 18.714844-18.714844 18.714844zm49.789063 49.875-18.714844-18.714844 18.714844-18.714843 18.714843 18.714843zm31.25-31.160156-18.714844-18.714844 18.625-18.714844 18.804687 18.714844zm12.445312-49.878906 18.714844-18.710938 18.714844 18.710938-18.714844 18.714844zm49.875 49.878906-18.710938-18.714844 18.710938-18.714844 18.714844 18.714844zm31.164062-31.164062-18.714843-18.714844 18.714843-18.710938 18.714844 18.710938zm31.160157-31.160157-18.714844-18.714843 18.714844-18.714844 18.714843 18.714844zm0 0" fill="#35495e"/><path d="m160.507812 386.882812-8.917968 8.917969-48.550782-22.070312 22.15625-22.15625c3.3125-3.316407 7.808594-5.179688 12.492188-5.179688 4.6875 0 9.179688 1.863281 12.492188 5.179688l10.328124 10.328125c3.316407 3.308594 5.175782 7.804687 5.175782 12.488281 0 4.6875-1.859375 9.179687-5.175782 12.492187zm0 0" fill="#df4d60"/><path d="m151.589844 395.800781-31.160156 31.160157-48.550782-22.070313 31.160156-31.160156zm0 0" fill="#ff5364"/><path d="m120.429688 426.960938-31.160157 31.160156-48.550781-22.066406 31.160156-31.164063zm0 0" fill="#df4d60"/><path d="m89.269531 458.121094-31.164062 31.164062-48.550781-22.070312 31.164062-31.160156zm0 0" fill="#ff5364"/><path d="m58.105469 489.285156-17.566407 17.566406c-3.292968 3.34375-7.792968 5.226563-12.488281 5.226563-4.699219 0-9.199219-1.882813-12.492187-5.226563l-10.328125-10.328124c-3.347657-3.296876-5.230469-7.796876-5.230469-12.492188s1.882812-9.195312 5.230469-12.492188l4.324219-4.324218zm0 0" fill="#df4d60"/><path d="m155.386719 365.609375c-3.566407 0-6.785157-2.148437-8.152344-5.445313-1.367187-3.292968-.617187-7.089843 1.902344-9.613281l47.226562-47.328125c3.445313-3.449218 9.035157-3.457031 12.488281-.011718 3.453126 3.445312 3.457032 9.035156.011719 12.488281l-47.226562 47.324219c-1.65625 1.65625-3.90625 2.585937-6.25 2.585937zm0 0" fill="#35495e"/><path d="m459.054688 459.09375v8.828125c0 24.375-19.761719 44.136719-44.136719 44.136719s-44.136719-19.761719-44.136719-44.136719v-8.828125zm0 0" fill="#d75e72"/><path d="m470.53125 415.042969-11.476562 44.050781h-88.273438l-11.386719-44.050781.351563-.089844h110.34375zm0 0" fill="#802d40"/><path d="m414.917969 247.230469v167.722656h-55.171875l-.351563.089844-17.570312-67.617188-8.824219-34.078125h-.089844l-13.59375-52.523437-1.148437-4.414063c-.441407-1.710937.183593-3.523437 1.589843-4.601562 1.402344-1.074219 3.3125-1.210938 4.855469-.339844l3.617188 1.851562 3.886719 2.03125 16.066406 8.386719 16.0625 8.296875c1.292968.707032 2.859375.707032 4.152344 0l13.59375-7.503906 15.890624-8.648438 14.828126-8.121093c.683593-.351563 1.441406-.535157 2.207031-.53125zm0 0" fill="#b0d3f0"/><path d="m512.023438 256.410156-41.492188 158.632813-.441406-.089844h-55.171875v-167.722656c.710937-.003907 1.410156.179687 2.03125.53125l15.183593 8.296875 29.21875 15.976562c.949219.496094 2.039063.652344 3.089844.441406h.085938c.355468-.175781.707031-.265624 1.0625-.441406l40.074218-20.566406c1.535157-.816406 3.40625-.652344 4.777344.414062 1.375 1.066407 1.992188 2.839844 1.582032 4.527344zm0 0" fill="#90bae1"/><path d="m464.527344 272.476562h-.085938c-1.050781.210938-2.140625.054688-3.089844-.441406l-29.21875-15.976562c53.671876-59.851563 60.292969-142.917969 13.59375-189.703125-48.816406-48.730469-137.179687-39.371094-197.386718 20.832031-5.234375 5.179688-10.128906 10.695312-14.652344 16.507812-9.496094 11.84375-17.417969 24.871094-23.570312 38.753907-22.6875 51.023437-17.832032 106.898437 17.390624 142.121093 26.925782 26.835938 65.765626 36.105469 105.402344 28.777344h.089844l8.824219 34.078125c-51.550781 10.148438-103.371094-2.121093-139.210938-37.960937-62.496093-62.5-53.140625-173.195313 20.835938-247.171875 73.972656-73.976563 184.671875-83.332031 247.171875-20.832031 58.085937 58.085937 54.113281 157.835937-6.09375 231.015624zm0 0" fill="#ff5364"/></svg>