<svg height="512pt" viewBox="0 0 512 512.00097" width="512pt" xmlns="http://www.w3.org/2000/svg"><path d="m512 256v.441406c0 6.269532-.265625 12.535156-.792969 18.714844-6.605469 89.367188-59.527343 168.746094-139.476562 209.214844-5.914063 3.089844-12.003907 5.824218-18.183594 8.386718-30.933594 12.769532-64.082031 19.308594-97.546875 19.242188-6.441406 0-12.886719-.265625-19.242188-.792969-9-.625-17.960937-1.742187-26.835937-3.355469-63.445313-11.582031-120.167969-46.707031-158.808594-98.339843-3.796875-5.03125-7.414062-10.328125-10.859375-15.710938-22.929687-35.628906-36.503906-76.464843-39.457031-118.734375l-.796875-18.625v-.441406c-.078125-34.917969 7.046875-69.476562 20.921875-101.515625 2.5625-5.914063 5.296875-11.652344 8.296875-17.214844 36.410156-69.632812 102.816406-118.65625 180.085938-132.945312 8.71875-1.683594 17.53125-2.832031 26.394531-3.441407 6.707031-.617187 13.503906-.882812 20.300781-.882812 60.757812-.113281 119.554688 21.488281 165.78125 60.910156 4.855469 4.148438 9.535156 8.476563 14.125 12.890625 48.753906 48.082031 76.167969 113.722657 76.09375 182.199219zm0 0" fill="#e57e25"/><path d="m256 300.136719c-8.828125 0-17.476562-.085938-26.039062-.175781 4.324218 93.042968 76.710937 149.363281 137.886718 180.347656 1.710938.882812 3.078125 2.3125 3.882813 4.0625-5.914063 3.089844-12.003907 5.824218-18.183594 8.386718-64.355469-33.988281-137.359375-94.191406-141.332031-193.0625-21.007813-.527343-41.105469-1.324218-60.289063-2.382812 6.972657 97.191406 38.132813 178.582031 80.417969 205.417969 2.746094 1.589843 4.457031 4.507812 4.5 7.679687.015625.269532-.015625.539063-.085938.796875-9-.625-17.960937-1.742187-26.835937-3.355469-40.960937-36.8125-69.386719-116.699218-75.742187-211.597656-19.773438-1.410156-38.132813-3.089844-54.730469-5.03125v.089844c.289062 39.71875-8.433594 78.984375-25.511719 114.84375-.617188 1.355469-1.59375 2.519531-2.824219 3.355469-3.796875-5.03125-7.414062-10.328125-10.859375-15.710938 14.445313-32.226562 21.789063-67.179687 21.539063-102.488281v-2.386719c-20.777344-2.378906-41.230469-7.027343-60.996094-13.859375l-.796875-18.625c1.460938-.125 2.925781.152344 4.238281.792969 18.203125 7.039063 37.261719 11.609375 56.671875 13.597656-2.890625-41.621093-16.683594-81.746093-39.988281-116.347656 2.5625-5.914063 5.296875-11.652344 8.296875-17.214844 1.304688.664063 2.421875 1.632813 3.269531 2.824219 27.601563 39.15625 43.632813 85.285156 46.253907 133.121094 16.066406 2.03125 34.339843 3.707031 54.46875 5.207031-.265626-7.503906-.441407-15.09375-.441407-22.6875 0-111.578125 30.1875-209.210937 76.535157-251.410156 8.71875-1.683594 17.53125-2.832031 26.394531-3.441407.367187 3.273438-1.179688 6.46875-3.972657 8.210938-47.847656 31.160156-81.304687 132.589844-81.304687 246.640625 0 8.035156.179687 15.980469.53125 23.835937 18.980469 1.058594 39.460937 1.941407 61.261719 2.382813 6.355468-140.535156 155.367187-203.035156 209.566406-221.042969 4.855469 4.148438 9.535156 8.476563 14.125 12.890625-1.03125 1.09375-2.34375 1.886719-3.792969 2.292969-59.5 18.980469-196.238281 76.449219-202.332031 206.214844 8.566406.085937 17.304688.175781 26.21875.175781 132.0625 0 226.605469-12.714844 251.765625-25.25 1.3125-.640625 2.777344-.917969 4.234375-.792969 0 6.269532-.265625 12.535156-.792969 18.714844-36.8125 15.007812-137.535156 24.980469-255.207031 24.980469zm0 0" fill="#35495e"/><g fill="#f29c1f"><path d="m453.117188 167.472656c-10.96875-31.226562-35.421876-51.074218-54.617188-44.328125-19.195312 6.742188-25.863281 37.523438-14.890625 68.75 10.972656 31.230469 35.425781 51.078125 54.621094 44.332031 19.191406-6.742187 25.859375-37.523437 14.886719-68.753906zm0 0"/><path d="m431.652344 335.191406c-10.011719-4.804687-23.691406 2.890625-30.558594 17.191406-6.863281 14.304688-4.3125 29.792969 5.699219 34.601563 10.011719 4.804687 23.695312-2.894531 30.558593-17.195313 6.867188-14.300781 4.316407-29.792968-5.699218-34.597656zm0 0"/></g></svg>