<svg height="512pt" viewBox="-88 0 512 512.03109" width="512pt" xmlns="http://www.w3.org/2000/svg"><path d="m229.550781 188.378906v-29.480468c-.03125-9.742188-7.917969-17.628907-17.65625-17.65625h-88.277343c-9.738282.027343-17.625 7.914062-17.652344 17.65625v29.480468c-74.839844 29.660156-118.054688 108.308594-102.957032 187.382813 15.097657 79.074219 84.246094 136.269531 164.75 136.269531 80.5 0 149.648438-57.195312 164.746094-136.269531s-28.113281-157.722657-102.953125-187.382813zm0 0" fill="#b19046"/><path d="m167.757812 211.863281c-73.132812 0-132.414062 59.28125-132.414062 132.414063 0 73.128906 59.28125 132.414062 132.414062 132.414062 73.128907 0 132.410157-59.285156 132.410157-132.414062-.085938-73.09375-59.316407-132.328125-132.410157-132.414063zm33.894532 225.191407c-5.066406 5.097656-12.699219 6.65625-19.359375 3.957031-6.660157-2.699219-11.054688-9.132813-11.144531-16.320313-.089844-7.1875 4.140624-13.726562 10.730468-16.59375 5.070313-5.070312 12.6875-6.617187 19.335938-3.914062 6.644531 2.699218 11.027344 9.117187 11.125 16.289062.09375 7.171875-4.113282 13.703125-10.6875 16.582032zm35.046875-58.261719c-12.09375-1.941407-19.332031-19.070313-16.332031-38.3125 3.003906-19.246094 15.273437-33.367188 27.277343-31.515625 12.007813 1.855468 19.332031 19.066406 16.332031 38.3125-3 19.242187-15.269531 33.367187-27.277343 31.515625zm0 0" fill="#e4c05c"/><path d="m263.976562 347.277344c-3 19.332031-15.269531 33.367187-27.277343 31.515625-12.003907-1.855469-19.332031-19.070313-16.332031-38.3125 3.003906-19.246094 15.273437-33.367188 27.277343-31.515625 12.007813 1.855468 19.332031 19.066406 16.332031 38.3125zm0 0" fill="#f9eab0"/><path d="m201.652344 437.054688c-5.066406 5.097656-12.699219 6.65625-19.359375 3.957031-6.660157-2.699219-11.054688-9.132813-11.144531-16.320313-.089844-7.1875 4.140624-13.726562 10.730468-16.59375 5.070313-5.070312 12.6875-6.617187 19.335938-3.914062 6.644531 2.699218 11.027344 9.117187 11.125 16.289062.09375 7.171875-4.113282 13.703125-10.6875 16.582032zm0 0" fill="#f9eab0"/><path d="m229.550781 158.898438v29.480468c-39.6875-15.769531-83.902343-15.769531-123.585937 0v-29.480468c.027344-9.742188 7.914062-17.628907 17.652344-17.65625h88.277343c9.738281.027343 17.625 7.914062 17.65625 17.65625zm0 0" fill="#b19046"/><path d="m167.757812 141.242188h-44.140624c-52.964844-35.3125-61.792969-141.242188-61.792969-141.242188h44.140625s8.824218 105.929688 61.792968 141.242188zm0 0" fill="#df4d60"/><path d="m273.6875 0s-8.828125 105.929688-61.792969 141.242188c-9.878906-6.867188-18.359375-15.554688-24.984375-25.601563 36.019532-41.488281 42.640625-115.640625 42.640625-115.640625zm0 0" fill="#d75e72"/><path d="m211.894531 141.242188h-44.136719c-52.96875-35.3125-61.792968-141.242188-61.792968-141.242188h44.136718c2.734376 26.480469 8.660157 52.535156 17.65625 77.59375 4.824219 13.410156 11.257813 26.183594 19.152344 38.046875 6.625 10.046875 15.105469 18.734375 24.984375 25.601563zm0 0" fill="#ff5364"/><path d="m229.550781 0s-6.621093 74.152344-42.640625 115.640625c-7.894531-11.863281-14.328125-24.636719-19.152344-38.046875 8.992188-25.058594 14.917969-51.113281 17.652344-77.59375zm0 0" fill="#cc4b4c"/></svg>