<svg height="512pt" viewBox="-40 0 512 512.05953" width="512pt" xmlns="http://www.w3.org/2000/svg"><path d="m95.445312 150.070312c-8.917968 7.652344-17.214843 16.007813-24.804687 24.980469l-51.464844-51.464843 24.980469-24.980469zm0 0" fill="#fac176"/><path d="m247.191406 44.136719v52.964843c-17.511718-3.199218-35.457031-3.199218-52.964844 0v-52.964843zm0 0" fill="#fac176"/><path d="m432.570312 300.136719c.019532 93.636719-61.429687 176.179687-151.136718 203.015625-89.707032 26.839844-186.394532-8.394532-237.800782-86.65625-51.40625-78.261719-45.34375-180.984375 14.914063-252.65625 7.589844-8.972656 15.886719-17.328125 24.804687-24.980469 31.390626-26.777344 69.933594-43.777344 110.875-48.90625 17.582032-2.238281 35.378907-2.238281 52.964844 0 105.90625 13.378906 185.335938 103.4375 185.378906 210.183594zm0 0" fill="#24ae5f"/><path d="m396.996094 291.308594c-4.703125-93.933594-82.234375-167.683594-176.289063-167.683594-94.050781 0-171.582031 73.75-176.285156 167.683594-.175781 2.914062-.265625 5.917968-.265625 8.828125 0 2.914062.089844 5.914062.265625 8.828125 4.554687 90.53125 76.925781 162.90625 167.460937 167.460937 2.910157.175781 5.914063.265625 8.824219.265625 2.914063 0 5.917969-.089844 8.828125-.265625 90.53125-4.554687 162.90625-76.929687 167.460938-167.460937.175781-2.914063.265625-5.914063.265625-8.828125 0-2.910157-.089844-5.914063-.265625-8.828125zm-97.105469-68.058594c-4.589844 7.503906-13.0625 21.273438-22.421875 36.105469l1.503906.96875c20.632813 30.160156 14.90625 71.074219-13.214844 94.410156-28.121093 23.335937-69.386718 21.421875-95.226562-4.417969s-27.753906-67.105468-4.417969-95.226562c23.335938-28.121094 64.246094-33.847656 94.40625-13.214844l.972657 1.5c14.832031-9.355469 28.601562-17.832031 36.105468-22.421875.65625-.425781 1.523438-.332031 2.074219.222656.554687.550781.644531 1.417969.21875 2.074219zm0 0" fill="#b0d3f0"/><g fill="#90bae1"><path d="m291.328125 300.136719c.066406 32.542969-22.074219 60.9375-53.652344 68.804687-31.578125 7.867188-64.449219-6.816406-79.664062-35.582031-15.210938-28.769531-8.839844-64.207031 15.441406-85.875 24.277344-21.667969 60.207031-23.984375 87.066406-5.609375l.972657 1.5c-20.648438 12.222656-40.628907 25.542969-59.851563 39.902344-9.796875 9.941406-9.742187 25.929687.128906 35.796875 9.871094 9.871093 25.859375 9.929687 35.800781.132812 14.359376-19.226562 27.679688-39.203125 39.898438-59.851562l1.503906.96875c8.054688 11.714843 12.363282 25.597656 12.355469 39.8125zm0 0"/><path d="m220.707031 167.722656c-4.875 0-8.824219-3.949218-8.824219-8.824218v-26.484376c0-4.875 3.949219-8.828124 8.824219-8.828124 4.878907 0 8.828125 3.953124 8.828125 8.828124v26.484376c0 4.875-3.949218 8.824218-8.828125 8.824218zm0 0"/><path d="m79.46875 300.136719c0 4.875-3.953125 8.828125-8.828125 8.828125h-26.21875c-.175781-2.914063-.265625-5.914063-.265625-8.828125 0-2.910157.089844-5.914063.265625-8.828125h26.21875c4.875 0 8.828125 3.953125 8.828125 8.828125zm0 0"/><path d="m229.535156 450.207031v26.21875c-2.910156.175781-5.914062.265625-8.828125.265625-2.910156 0-5.914062-.089844-8.824219-.265625v-26.21875c0-4.875 3.949219-8.828125 8.824219-8.828125 4.878907 0 8.828125 3.953125 8.828125 8.828125zm0 0"/><path d="m397.261719 300.136719c0 2.914062-.089844 5.914062-.265625 8.828125h-26.21875c-4.875 0-8.828125-3.953125-8.828125-8.828125s3.953125-8.828125 8.828125-8.828125h26.21875c.175781 2.914062.265625 5.917968.265625 8.828125zm0 0"/></g><path d="m220.707031 0v52.964844h-26.480469c-9.738281-.027344-17.625-7.914063-17.65625-17.65625v-17.652344c.03125-9.738281 7.917969-17.6289062 17.65625-17.65625zm0 0" fill="#4fba6f"/><path d="m264.847656 17.65625v17.652344c-.03125 9.742187-7.917968 17.628906-17.65625 17.65625h-26.484375v-52.964844h26.484375c9.738282.0273438 17.625 7.917969 17.65625 17.65625zm0 0" fill="#24ae5f"/><path d="m299.890625 223.25c-4.589844 7.503906-13.0625 21.273438-22.421875 36.105469-12.21875 20.648437-25.539062 40.625-39.898438 59.851562-9.941406 9.796875-25.929687 9.738281-35.800781-.132812-9.871093-9.867188-9.925781-25.855469-.128906-35.796875 19.222656-14.359375 39.203125-27.679688 59.851563-39.902344 14.832031-9.355469 28.601562-17.832031 36.105468-22.421875.65625-.425781 1.523438-.332031 2.074219.222656.554687.550781.644531 1.417969.21875 2.074219zm0 0" fill="#d75e72"/><path d="m56.269531 112.929688-22.863281 22.777343c-3.445312 3.421875-9.003906 3.421875-12.449219 0l-18.359375-18.363281c-3.421875-3.441406-3.421875-9.003906 0-12.445312l22.773438-22.863282c3.464844-3.453125 9.070312-3.453125 12.535156 0l18.363281 18.359375c3.441407 3.472657 3.441407 9.066407 0 12.535157zm0 0" fill="#4fba6f"/></svg>