<svg height="511pt" viewBox="0 0 511 511.93785" width="511pt" xmlns="http://www.w3.org/2000/svg"><path d="m511.113281 165.484375c4.96875-52.019531-4.519531-97.246094-26.863281-124.8125l.34375-.34375c3.34375-3.464844 3.296875-8.972656-.109375-12.375-3.402344-3.40625-8.910156-3.453125-12.371094-.109375l-.347656.34375c-27.558594-22.367188-72.800781-31.867188-124.847656-26.898438l75.875 75.875-75.875-75.835937c-20.992188 1.960937-41.746094 5.953125-61.96875 11.914063-130.722657 38.328124-232.945313 140.550781-271.273438 271.273437-5.960937 20.214844-9.953125 40.957031-11.914062 61.941406-4.972657 52.085938 4.527343 97.289063 26.886719 124.859375l-.371094.371094c-2.292969 2.214844-3.214844 5.496094-2.40625 8.582031.808594 3.089844 3.21875 5.5 6.304687 6.304688 3.085938.808593 6.367188-.109375 8.585938-2.40625l.378906-.378907c27.558594 22.34375 72.765625 31.824219 124.785156 26.863282 20.992188-1.964844 41.746094-5.957032 61.96875-11.917969 130.726563-38.3125 232.960938-140.527344 271.300781-271.246094 5.960938-20.191406 9.953126-40.917969 11.917969-61.878906v-.089844l-75.855469-75.855469zm0 0" fill="#805333"/><path d="m83.855469 428.546875-49.34375 49.34375c-26.574219-26.570313-38.136719-75.03125-32.75-131.441406zm0 0" fill="#af8066"/><g fill="none" stroke="#000" stroke-linecap="round" stroke-linejoin="round" stroke-width="2" transform="matrix(8.827586 0 0 8.827586 .435784 .002169)"><path d="m26.207104 26.203123 5.585739 5.58574"/><path d="m23.414013 28.996214 5.586181 5.586624"/><path d="m20.620922 31.788863 5.586182 5.587066"/><path d="m17.826946 34.582838 5.587067 5.586182"/><path d="m34.585934 17.823851 5.587066 5.586182"/><path d="m31.792843 20.616942 5.586181 5.586181"/><path d="m29.000194 23.410033 5.58574 5.586181"/></g><path d="m120.84375 391.683594-36.988281 36.898437-82.09375-82.097656c1.960937-20.992187 5.953125-41.746094 11.914062-61.96875zm0 0" fill="#fdd7ad"/><path d="m227.921875 498.761719c-20.222656 5.960937-40.976563 9.953125-61.96875 11.917969l-82.097656-82.097657 36.988281-36.898437zm0 0" fill="#7f6e5d"/><path d="m165.953125 510.644531c-56.410156 5.382813-104.871094-6.179687-131.441406-32.753906l49.34375-49.34375zm0 0" fill="#7f5b53"/><path d="m429.015625 83.421875-36.898437 36.988281-107.167969-107.167968c20.222656-5.960938 40.976562-9.953126 61.96875-11.914063zm0 0" fill="#fdd7ad"/><path d="m511.113281 165.484375-82.097656-82.097656 49.34375-49.34375c26.574219 26.570312 38.136719 75.03125 32.753906 131.441406zm0 0" fill="#7f5b53"/><path d="m478.359375 34.042969-49.34375 49.34375-82.097656-82.097657c56.410156-5.382812 104.871093 6.179688 131.441406 32.753907zm0 0" fill="#af8066"/><path d="m511.113281 165.519531v.089844c-1.964843 20.960937-5.957031 41.6875-11.917969 61.878906l-107.078124-107.078125 36.898437-36.988281zm0 0" fill="#7f6e5d"/><path d="m392.117188 120.410156-36.988282 36.988282-24.71875 24.628906-24.628906 24.71875-24.628906 24.628906-24.714844 24.628906-24.628906 24.714844-24.628906 24.628906-24.71875 24.628906-24.628907 24.71875-36.988281 36.988282-107.167969-107.167969c38.328125-130.722656 140.550781-232.945313 271.273438-271.273437zm0 0" fill="#cb8252"/><path d="m484.59375 27.84375c-3.449219-3.445312-9.035156-3.445312-12.480469 0l-141.703125 141.699219-18.421875-18.414063c-2.21875-2.292968-5.5-3.214844-8.585937-2.40625-3.085938.808594-5.496094 3.21875-6.304688 6.304688-.808594 3.085937.113282 6.367187 2.40625 8.585937l18.425782 18.414063-12.183594 12.183594-18.414063-18.417969c-3.464843-3.34375-8.96875-3.296875-12.375.109375s-3.453125 8.910156-.105469 12.375l18.414063 18.414062-12.175781 12.171875-18.414063-18.414062c-3.460937-3.34375-8.96875-3.296875-12.375.109375-3.402343 3.402344-3.453125 8.910156-.105469 12.375l18.414063 18.414062-12.171875 12.171875-18.417969-18.414062c-3.460937-3.34375-8.96875-3.296875-12.371093.109375-3.40625 3.402344-3.453126 8.910156-.109376 12.371094l18.414063 18.417968-12.171875 12.171875-18.414062-18.414062c-3.464844-3.347657-8.972657-3.296875-12.375.105469-3.40625 3.40625-3.453126 8.914062-.109376 12.375l18.414063 18.414062-12.171875 12.175781-18.414062-18.414062c-3.464844-3.347657-8.96875-3.300781-12.375.105469s-3.453126 8.910156-.109376 12.375l18.417969 18.414062-12.183593 12.183594-18.414063-18.425782c-2.21875-2.292968-5.5-3.214843-8.585937-2.40625-3.085938.808594-5.496094 3.21875-6.304688 6.304688s.113281 6.367188 2.40625 8.585938l18.414062 18.421874-141.699218 141.703126c-2.292969 2.214843-3.214844 5.496093-2.40625 8.582031.808594 3.085937 3.21875 5.496093 6.304687 6.304687 3.085938.808594 6.367188-.113281 8.585938-2.40625l141.699219-141.699218 18.421874 18.414062c2.21875 2.292969 5.5 3.214844 8.585938 2.40625s5.496094-3.21875 6.304688-6.304688c.808593-3.085937-.113282-6.367187-2.40625-8.585937l-18.425782-18.414063 12.183594-12.179687 18.414062 18.414063c3.464844 3.34375 8.96875 3.296874 12.375-.109376s3.453126-8.910156.105469-12.375l-18.414062-18.414062 12.175781-12.171875 18.414062 18.414063c3.464844 3.34375 8.96875 3.296874 12.375-.109376 3.402344-3.402343 3.453126-8.910156.105469-12.375l-18.414062-18.414062 12.175781-12.171875 18.414062 18.414063c3.460938 3.34375 8.96875 3.296874 12.375-.105469 3.402344-3.40625 3.453126-8.914063.105469-12.375l-18.414062-18.414063 12.171875-12.175781 18.414062 18.414063c3.464844 3.347656 8.972656 3.296874 12.375-.105469 3.40625-3.40625 3.453125-8.910157.109375-12.375l-18.414062-18.414063 12.171875-12.175781 18.414062 18.414063c3.464844 3.347656 8.96875 3.300781 12.375-.105469s3.453125-8.910157.109375-12.375l-18.414062-18.414063 12.179687-12.183594 18.414063 18.425782c2.21875 2.292968 5.5 3.214844 8.585937 2.40625 3.085938-.808594 5.496094-3.21875 6.304688-6.304688.808594-3.085937-.113282-6.367187-2.40625-8.585937l-18.414063-18.421875 141.699219-141.699219c3.445312-3.449219 3.445312-9.035156 0-12.484375zm0 0" fill="#ecf0f1"/></svg>