<svg height="512pt" viewBox="-4 0 512 512" width="512pt" xmlns="http://www.w3.org/2000/svg"><path d="m121.492188 242.984375c0 23.960937-19.425782 43.386719-43.390626 43.386719-23.964843 0-43.390624-19.425782-43.390624-43.386719 0-23.964844 19.425781-43.390625 43.390624-43.390625 23.964844 0 43.390626 19.425781 43.390626 43.390625zm0 0" fill="#4482c3"/><path d="m130.167969 303.730469c-.070313 9.554687-7.796875 17.285156-17.355469 17.355469h-69.421875c-9.574219-.03125-17.328125-7.785157-17.355469-17.355469.070313-9.558594 7.796875-17.285157 17.355469-17.359375h69.421875c9.574219.03125 17.328125 7.785156 17.355469 17.359375zm0 0" fill="#285680"/><path d="m312.40625 208.269531c-.070312 9.558594-7.800781 17.285157-17.355469 17.359375h-86.78125c-9.570312-.03125-17.324219-7.785156-17.355469-17.359375.070313-9.554687 7.800782-17.285156 17.355469-17.355469h86.78125c9.574219.03125 17.328125 7.785157 17.355469 17.355469zm0 0" fill="#b0d3f0"/><path d="m138.847656 443.53125v25.078125h-121.492187v-25.078125c.058593-5.667969 2.835937-10.960938 7.464843-14.230469 27.246094-20.480469 27.246094-64.828125 27.246094-64.828125v-43.386718h52.070313v43.386718s0 44.347656 27.246093 64.828125c4.628907 3.269531 7.40625 8.5625 7.464844 14.230469zm0 0" fill="#b19046"/><path d="m156.203125 485.964844v26.035156h-156.203125v-26.035156c.0273438-9.574219 7.78125-17.324219 17.355469-17.355469h121.492187c9.574219.03125 17.328125 7.78125 17.355469 17.355469zm0 0" fill="#7f5b53"/><path d="m468.609375 242.984375c0 23.960937-19.425781 43.386719-43.390625 43.386719-23.960938 0-43.386719-19.425782-43.386719-43.386719 0-23.964844 19.425781-43.390625 43.386719-43.390625 23.964844 0 43.390625 19.425781 43.390625 43.390625zm0 0" fill="#4482c3"/><path d="m477.289062 303.730469c-.070312 9.554687-7.800781 17.285156-17.355468 17.355469h-69.425782c-9.574218-.03125-17.328124-7.785157-17.355468-17.355469.070312-9.558594 7.800781-17.285157 17.355468-17.359375h69.425782c9.570312.03125 17.324218 7.785156 17.355468 17.359375zm0 0" fill="#285680"/><path d="m485.964844 443.53125v25.078125h-121.492188v-25.078125c.058594-5.667969 2.835938-10.960938 7.464844-14.230469 27.25-20.480469 27.25-64.828125 27.25-64.828125v-43.386718h52.066406v43.386718s0 44.347656 27.25 64.828125c4.628906 3.269531 7.40625 8.5625 7.460938 14.230469zm0 0" fill="#b19046"/><path d="m503.320312 485.964844v26.035156h-156.203124v-26.035156c.03125-9.574219 7.785156-17.324219 17.355468-17.355469h121.492188c9.574218.03125 17.328125 7.78125 17.355468 17.355469zm0 0" fill="#7f5b53"/><path d="m329.761719 428.863281v31.070313h-156.203125v-31.070313c.113281-6.945312 3.527344-13.425781 9.199218-17.441406 34.191407-25.253906 34.191407-80.097656 34.191407-80.097656v-105.695313h69.421875v105.695313s0 54.84375 34.191406 80.097656c5.671875 4.015625 9.089844 10.496094 9.199219 17.441406zm0 0" fill="#e4c05c"/><path d="m347.117188 477.289062v34.710938h-190.914063v-34.710938c.027344-9.574218 7.78125-17.328124 17.355469-17.355468h156.203125c9.574219.027344 17.328125 7.78125 17.355469 17.355468zm0 0" fill="#804537"/><path d="m303.730469 121.492188-17.359375 69.421874h-69.421875l-17.355469-69.421874s3.125-7.289063 17.441406-12.410157c11.179688-3.601562 22.886719-5.273437 34.625-4.945312 11.738282-.328125 23.449219 1.34375 34.625 4.945312 14.320313 5.121094 17.445313 12.410157 17.445313 12.410157zm0 0" fill="#90bae1"/><path d="m277.695312 26.035156h-17.355468v-17.355468c0-4.792969-3.886719-8.679688-8.679688-8.679688-4.792968 0-8.675781 3.886719-8.675781 8.679688v17.355468h-17.355469c-4.792968 0-8.679687 3.882813-8.679687 8.675782 0 4.792968 3.886719 8.679687 8.679687 8.679687h17.355469v26.03125c0 4.792969 3.882813 8.679687 8.675781 8.679687 4.792969 0 8.679688-3.886718 8.679688-8.679687v-26.03125h17.355468c4.792969 0 8.675782-3.886719 8.675782-8.679687 0-4.792969-3.882813-8.675782-8.675782-8.675782zm0 0" fill="#41767f"/><path d="m286.285156 109.082031c-11.175781-3.601562-22.886718-5.273437-34.625-4.945312-11.738281-.328125-23.445312 1.34375-34.625 4.945312 1.996094-39.660156 34.625-39.660156 34.625-39.660156s32.628906 0 34.625 39.660156zm0 0" fill="#b0d3f0"/></svg>