<svg height="512pt" viewBox="0 0 512.00053 512" width="512pt" xmlns="http://www.w3.org/2000/svg"><path d="m512 203.035156c0 112.132813-90.902344 203.035156-203.035156 203.035156-112.132813 0-203.035156-90.902343-203.035156-203.035156 0-112.132812 90.902343-203.035156 203.035156-203.035156 112.132812 0 203.035156 90.902344 203.035156 203.035156zm0 0" fill="#2c3e50"/><path d="m406.070312 308.964844c0 112.132812-90.902343 203.035156-203.035156 203.035156-112.132812 0-203.035156-90.902344-203.035156-203.035156 0-112.132813 90.902344-203.035156 203.035156-203.035156 112.132813 0 203.035156 90.902343 203.035156 203.035156zm0 0" fill="#e6e7e8"/><g fill="#cc4b4c"><path d="m333.507812 464.417969c-18.128906 15.296875-38.804687 27.277343-61.089843 35.398437l-31.601563-54.816406c23.039063-6.371094 44.066406-18.527344 61.085938-35.3125zm0 0"/><path d="m165.253906 445-31.605468 54.816406c-22.28125-8.121094-42.960938-20.101562-61.085938-35.398437l31.601562-54.730469c17.023438 16.785156 38.050782 28.941406 61.089844 35.3125zm0 0"/><path d="m61.792969 308.964844c.007812 11.914062 1.519531 23.777344 4.503906 35.3125h-63.117187c-4.238282-23.351563-4.238282-47.273438 0-70.621094h63.117187c-2.984375 11.53125-4.496094 23.398438-4.503906 35.308594zm0 0"/><path d="m165.253906 172.933594c-22.207031 6.128906-42.554687 17.652344-59.234375 33.542968v.089844c-.617187.527344-1.234375 1.058594-1.855469 1.675782l-31.601562-54.730469c15.039062-12.710938 31.875-23.121094 49.964844-30.894531 3.621094-1.679688 7.328125-3.089844 11.121094-4.503907zm0 0"/><path d="m406.070312 308.964844c.015626 11.84375-1.046874 23.664062-3.179687 35.3125h-63.117187c6.003906-23.160156 6.003906-47.464844 0-70.621094h63.117187c1.96875 10.480469 3.003906 21.113281 3.089844 31.777344.089843 1.148437.089843 2.382812.089843 3.53125zm0 0"/></g><path d="m271.183594 67c-23.039063 6.375-44.066406 18.527344-61.085938 35.3125l-31.605468-54.730469c18.128906-15.296875 38.804687-27.277343 61.089843-35.398437zm0 0" fill="#95a5a5"/><path d="m439.4375 47.582031-31.601562 54.730469c-17.019532-16.785156-38.050782-28.9375-61.089844-35.3125l31.605468-54.816406c22.28125 8.121094 42.960938 20.101562 61.085938 35.398437zm0 0" fill="#95a5a5"/><path d="m439.4375 358.488281c-15.039062 12.710938-31.875 23.121094-49.964844 30.898438 6.246094-14.453125 10.75-29.597657 13.417969-45.109375 2.132813-11.648438 3.195313-23.46875 3.179687-35.3125 0-1.148438 0-2.382813-.089843-3.53125.617187-.527344 1.238281-1.058594 1.855469-1.675782zm0 0" fill="#95a5a5"/><path d="m512 203.035156c.019531 11.84375-1.046875 23.660156-3.175781 35.308594h-63.117188c6-23.15625 6-47.460938 0-70.621094h63.117188c2.128906 11.652344 3.195312 23.46875 3.175781 35.3125zm0 0" fill="#95a5a5"/><path d="m414.898438 203.035156c.046874 19.371094-5.269532 38.375-15.363282 54.90625-16.914062-64.613281-64.398437-116.851562-127.117187-139.828125-6.015625-2.203125-12.144531-4.085937-18.359375-5.648437 16.53125-10.09375 35.539062-15.410156 54.90625-15.359375 58.484375.046875 105.882812 47.445312 105.933594 105.929687zm0 0" fill="#95a5a5"/><path d="m333.507812 153.511719-31.605468 54.730469c-17.019532-16.78125-38.046875-28.9375-61.085938-35.308594l31.601563-54.820313c22.285156 8.121094 42.960937 20.105469 61.089843 35.398438zm0 0" fill="#cc4b4c"/><path d="m339.773438 273.65625c-12.703126-48.796875-50.390626-87.160156-98.957032-100.722656-24.707031-6.945313-50.855468-6.945313-75.5625 0-22.207031 6.128906-42.554687 17.652344-59.234375 33.542968v.089844c-.617187.527344-1.234375 1.058594-1.855469 1.675782-35.945312 35.347656-50.324218 87.179687-37.730468 135.996093 12.597656 48.816407 50.257812 87.214844 98.820312 100.761719 24.707032 6.941406 50.855469 6.941406 75.5625 0 74.214844-20.542969 118.253906-96.796875 98.957032-171.34375zm-136.738282 141.242188c-58.503906 0-105.929687-47.429688-105.929687-105.933594s47.425781-105.929688 105.929687-105.929688 105.929688 47.425782 105.929688 105.929688c-.046875 58.484375-47.445313 105.882812-105.929688 105.933594zm0 0" fill="#bdc3c7"/><path d="m203.035156 203.035156c-58.503906 0-105.929687 47.425782-105.929687 105.929688s47.425781 105.933594 105.929687 105.933594 105.929688-47.429688 105.929688-105.933594c-.046875-58.484375-47.445313-105.882813-105.929688-105.929688zm44.933594 106.902344-44.933594 51.992188-45.019531-51.992188c-10.59375-13.039062-10.59375-31.71875 0-44.757812 4.820313-5.691407 11.871094-9.007813 19.332031-9.089844 7.433594.066406 14.46875 3.390625 19.242188 9.089844l6.445312 7.503906 6.445313-7.503906c4.691406-5.820313 11.765625-9.203126 19.242187-9.203126 7.476563 0 14.550782 3.382813 19.246094 9.203126 10.707031 12.996093 10.707031 31.761718 0 44.757812zm0 0" fill="#cc4b4c"/><path d="m256 287.601562c.074219 8.167969-2.777344 16.089844-8.03125 22.335938l-44.933594 51.992188-45.019531-51.992188c-10.59375-13.039062-10.59375-31.71875 0-44.757812 4.820313-5.691407 11.871094-9.007813 19.332031-9.089844 7.433594.066406 14.46875 3.390625 19.242188 9.089844l6.445312 7.503906 6.445313-7.503906c4.691406-5.820313 11.765625-9.203126 19.242187-9.203126 7.476563 0 14.550782 3.382813 19.246094 9.203126 5.269531 6.273437 8.121094 14.230468 8.03125 22.421874zm0 0" fill="#bdc3c7"/><path d="m450.207031 203.035156c-.007812 37.90625-15.28125 74.210938-42.371093 100.722656-.617188.617188-1.238282 1.148438-1.855469 1.675782-.085938-10.664063-1.121094-21.296875-3.089844-31.777344-.882813-5.296875-2.03125-10.503906-3.355469-15.625v-.089844c10.09375-16.53125 15.410156-35.535156 15.363282-54.90625-.050782-58.484375-47.449219-105.882812-105.933594-105.929687-19.367188-.050781-38.375 5.265625-54.90625 15.359375-15.515625-4.042969-31.460938-6.207032-47.492188-6.445313 1.058594-1.234375 2.292969-2.472656 3.53125-3.707031 17.019532-16.785156 38.046875-28.9375 61.085938-35.3125 24.710937-6.941406 50.855468-6.941406 75.5625 0 61.121094 16.96875 103.433594 72.601562 103.460937 136.035156zm0 0" fill="#547580"/></svg>