<svg height="512pt" viewBox="0 -71 512 512" width="512pt" xmlns="http://www.w3.org/2000/svg"><path d="m476.691406 0h-97.105468c-19.5 0-35.308594 15.808594-35.308594 35.308594 0-19.5-15.808594-35.308594-35.3125-35.308594h-105.929688c-19.503906 0-35.3125 15.808594-35.3125 35.308594 0-19.5-15.808594-35.308594-35.308594-35.308594h-97.105468c-19.5 0-35.308594 15.808594-35.308594 35.308594v300.140625c0 19.5 15.808594 35.308593 35.308594 35.308593h97.105468c19.5 0 35.308594-15.808593 35.308594-35.308593 0 19.5 15.808594 35.308593 35.3125 35.308593h105.929688c19.503906 0 35.3125-15.808593 35.3125-35.308593 0 19.5 15.808594 35.308593 35.308594 35.308593h97.105468c19.5 0 35.308594-15.808593 35.308594-35.308593v-300.140625c0-19.5-15.808594-35.308594-35.308594-35.308594zm0 0" fill="#4482c3"/><path d="m203.035156 0h105.929688c19.503906 0 35.3125 15.808594 35.3125 35.308594v300.140625c0 19.5-15.808594 35.308593-35.3125 35.308593h-105.929688c-19.503906 0-35.3125-15.808593-35.3125-35.308593v-300.140625c0-19.5 15.808594-35.308594 35.3125-35.308594zm0 0" fill="#90bae1"/><path d="m476.691406 114.757812v35.3125s-35.3125 52.964844-35.3125 105.929688h-52.964844s17.65625-79.449219 44.136719-105.929688h-52.964843v-35.3125zm0 0" fill="#f0c419"/><path d="m308.964844 114.757812v35.3125s-35.308594 52.964844-35.308594 105.929688h-52.964844s17.652344-79.449219 44.136719-105.929688h-52.964844v-35.3125zm0 0" fill="#f0c419"/><path d="m132.414062 114.757812v35.3125s-35.3125 52.964844-35.3125 105.929688h-52.964843s17.65625-79.449219 44.140625-105.929688h-52.96875v-35.3125zm0 0" fill="#f0c419"/><path d="m44.136719 44.136719h-8.828125c-4.875 0-8.824219-3.949219-8.824219-8.828125 0-4.875 3.949219-8.824219 8.824219-8.824219h8.828125c4.875 0 8.828125 3.949219 8.828125 8.824219 0 4.878906-3.953125 8.828125-8.828125 8.828125zm0 0" fill="#b0d3f0"/><path d="m123.585938 44.136719h-44.136719c-4.875 0-8.828125-3.949219-8.828125-8.828125 0-4.875 3.953125-8.824219 8.828125-8.824219h44.136719c4.875 0 8.828124 3.949219 8.828124 8.824219 0 4.878906-3.953124 8.828125-8.828124 8.828125zm0 0" fill="#b0d3f0"/><path d="m220.691406 44.136719h-8.828125c-4.875 0-8.828125-3.949219-8.828125-8.828125 0-4.875 3.953125-8.824219 8.828125-8.824219h8.828125c4.875 0 8.824219 3.949219 8.824219 8.824219 0 4.878906-3.949219 8.828125-8.824219 8.828125zm0 0" fill="#ecf0f1"/><path d="m300.136719 44.136719h-44.136719c-4.875 0-8.828125-3.949219-8.828125-8.828125 0-4.875 3.953125-8.824219 8.828125-8.824219h44.136719c4.875 0 8.828125 3.949219 8.828125 8.824219 0 4.878906-3.953125 8.828125-8.828125 8.828125zm0 0" fill="#ecf0f1"/><g fill="#b0d3f0"><path d="m388.414062 44.136719h-8.828124c-4.875 0-8.828126-3.949219-8.828126-8.828125 0-4.875 3.953126-8.824219 8.828126-8.824219h8.828124c4.875 0 8.828126 3.949219 8.828126 8.824219 0 4.878906-3.953126 8.828125-8.828126 8.828125zm0 0"/><path d="m467.863281 44.136719h-44.140625c-4.875 0-8.824218-3.949219-8.824218-8.828125 0-4.875 3.949218-8.824219 8.824218-8.824219h44.140625c4.875 0 8.828125 3.949219 8.828125 8.824219 0 4.878906-3.953125 8.828125-8.828125 8.828125zm0 0"/><path d="m467.863281 344.277344h-8.828125c-4.875 0-8.828125-3.953125-8.828125-8.828125s3.953125-8.828125 8.828125-8.828125h8.828125c4.875 0 8.828125 3.953125 8.828125 8.828125s-3.953125 8.828125-8.828125 8.828125zm0 0"/><path d="m423.722656 344.277344h-44.136718c-4.875 0-8.828126-3.953125-8.828126-8.828125s3.953126-8.828125 8.828126-8.828125h44.136718c4.875 0 8.828125 3.953125 8.828125 8.828125s-3.953125 8.828125-8.828125 8.828125zm0 0"/></g><path d="m291.308594 344.277344h-8.824219c-4.878906 0-8.828125-3.953125-8.828125-8.828125s3.949219-8.828125 8.828125-8.828125h8.824219c4.878906 0 8.828125 3.953125 8.828125 8.828125s-3.949219 8.828125-8.828125 8.828125zm0 0" fill="#ecf0f1"/><path d="m247.171875 344.277344h-44.136719c-4.875 0-8.828125-3.953125-8.828125-8.828125s3.953125-8.828125 8.828125-8.828125h44.136719c4.875 0 8.828125 3.953125 8.828125 8.828125s-3.953125 8.828125-8.828125 8.828125zm0 0" fill="#ecf0f1"/><path d="m123.585938 344.277344h-8.828126c-4.875 0-8.828124-3.953125-8.828124-8.828125s3.953124-8.828125 8.828124-8.828125h8.828126c4.875 0 8.828124 3.953125 8.828124 8.828125s-3.953124 8.828125-8.828124 8.828125zm0 0" fill="#b0d3f0"/><path d="m79.449219 344.277344h-44.140625c-4.875 0-8.824219-3.953125-8.824219-8.828125s3.949219-8.828125 8.824219-8.828125h44.140625c4.875 0 8.828125 3.953125 8.828125 8.828125s-3.953125 8.828125-8.828125 8.828125zm0 0" fill="#b0d3f0"/></svg>