<svg height="512pt" viewBox="0 0 512 512" width="512pt" xmlns="http://www.w3.org/2000/svg"><path d="m17.65625 105.929688h476.6875c9.75 0 17.65625 7.90625 17.65625 17.65625v35.3125c0 9.75-7.90625 17.652343-17.65625 17.652343h-476.6875c-9.75 0-17.65625-7.902343-17.65625-17.652343v-35.3125c0-9.75 7.90625-17.65625 17.65625-17.65625zm0 0" fill="#464f5d"/><path d="m167.722656 18.183594v229.519531c.105469-9.882813-7.773437-17.996094-17.652344-18.1875h-26.484374c-9.878907.191406-17.757813 8.304687-17.65625 18.1875v-229.519531c-.101563-9.878906 7.777343-17.996094 17.65625-18.183594h26.484374c9.878907.1875 17.757813 8.304688 17.652344 18.183594zm0 0" fill="#285680"/><path d="m105.929688 60.46875v161.808594c-.574219 9.246094-8.394532 16.363281-17.652344 16.066406h-26.484375c-9.371094.335938-17.257813-6.960938-17.65625-16.328125v-161.546875c.398437-9.371094 8.285156-16.664062 17.65625-16.332031h26.484375c9.371094-.332031 17.257812 6.960937 17.652344 16.332031zm0 0" fill="#4482c3"/><path d="m406.070312 18.183594v229.519531c.101563-9.882813-7.777343-17.996094-17.65625-18.1875h-26.484374c-9.878907.191406-17.757813 8.304687-17.652344 18.1875v-229.519531c-.105469-9.878906 7.773437-17.996094 17.652344-18.183594h26.484374c9.878907.1875 17.757813 8.304688 17.65625 18.183594zm0 0" fill="#285680"/><path d="m467.863281 60.46875v161.546875c-.398437 9.367187-8.285156 16.664063-17.65625 16.328125h-26.484375c-9.257812.296875-17.078125-6.820312-17.652344-16.066406v-161.808594c.394532-9.371094 8.28125-16.664062 17.652344-16.332031h26.484375c9.371094-.332031 17.257813 6.960937 17.65625 16.332031zm0 0" fill="#4482c3"/><path d="m17.65625 335.449219h476.6875c9.75 0 17.65625 7.902343 17.65625 17.652343v35.3125c0 9.75-7.90625 17.65625-17.65625 17.65625h-476.6875c-9.75 0-17.65625-7.90625-17.65625-17.65625v-35.3125c0-9.75 7.90625-17.652343 17.65625-17.652343zm0 0" fill="#547580"/><path d="m167.722656 247.703125v246.113281c.105469 9.878906-7.773437 17.996094-17.652344 18.183594h-26.484374c-9.878907-.1875-17.757813-8.304688-17.65625-18.183594v-246.113281c-.101563-9.882813 7.777343-17.996094 17.65625-18.1875h26.484374c9.878907.191406 17.757813 8.304687 17.652344 18.1875zm0 0" fill="#2980ba"/><path d="m105.929688 289.984375v161.8125c-.574219 9.246094-8.394532 16.359375-17.652344 16.066406h-26.484375c-9.371094.332031-17.257813-6.960937-17.65625-16.332031v-161.546875c.398437-9.367187 8.285156-16.664063 17.65625-16.328125h26.484375c9.371094-.335938 17.257812 6.960938 17.652344 16.328125zm0 0" fill="#3b97d3"/><path d="m406.070312 247.703125v246.113281c.101563 9.878906-7.777343 17.996094-17.65625 18.183594h-26.484374c-9.878907-.1875-17.757813-8.304688-17.652344-18.183594v-246.113281c-.105469-9.882813 7.773437-17.996094 17.652344-18.1875h26.484374c9.878907.191406 17.757813 8.304687 17.65625 18.1875zm0 0" fill="#2980ba"/><path d="m467.863281 289.984375v161.546875c-.398437 9.371094-8.285156 16.664062-17.65625 16.332031h-26.484375c-9.257812.292969-17.078125-6.820312-17.652344-16.066406v-161.8125c.394532-9.367187 8.28125-16.664063 17.652344-16.328125h26.484375c9.371094-.335938 17.257813 6.960938 17.65625 16.328125zm0 0" fill="#3b97d3"/></svg>