<svg height="511pt" viewBox="0 1 511 511.99926" width="511pt" xmlns="http://www.w3.org/2000/svg"><path d="m507.359375 67.621094-188.910156 189.261718c-.882813.882813-39.195313 34.25-62.324219 54.554688-1.589844 1.410156-3.089844 2.734375-4.5 3.972656-.15625.171875-.332031.320313-.53125.441406-.707031.527344-1.324219 1.058594-2.03125 1.5l-11.210938 7.945313-.441406.351563c-58.71875 44.722656-112.09375 96.054687-159.074218 152.984374l-43.519532-43.609374c22.070313-18.097657 45.816406-39.902344 68.503906-62.585938 30.519532-30.066406 58.675782-62.441406 84.214844-96.839844l8.210938-11.566406c.792968-1.144531 1.675781-2.292969 2.46875-3.441406 1.765625 1.675781 3.53125 3.441406 5.386718 5.121094l-.089843-5.472657 150.070312-163.136719v-.351562l91.367188-91.628906c6.9375-6.800782 18.039062-6.800782 24.980469 0l37.429687 37.515625c6.796875 6.941406 6.796875 18.042969 0 24.984375zm0 0" fill="#805333"/><path d="m256.480469 311.789062c-1.679688 1.238282-3.269531 2.472657-4.855469 3.621094 1.410156-1.238281 2.910156-2.5625 4.5-3.972656.089844.175781.265625.265625.355469.351562zm0 0" fill="#805333"/><path d="m81.515625 506.792969c-3.285156 3.332031-7.769531 5.207031-12.445313 5.207031-4.679687 0-9.164062-1.875-12.449218-5.207031l-49.875-49.964844c-3.316406-3.3125-5.179688-7.804687-5.179688-12.492187 0-4.683594 1.863282-9.179688 5.179688-12.492188 6.886718-6.84375 18.007812-6.84375 24.894531 0l3.175781 3.179688 43.519532 43.609374 3.179687 3.175782c3.316406 3.3125 5.179687 7.804687 5.179687 12.492187s-1.863281 9.179688-5.179687 12.492188zm0 0" fill="#802f34"/><path d="m256.480469 194.207031h.175781l.175781.175781c20.664063 20.84375 40.003907 42.953126 57.910157 66.207032.792968 1.148437 1.675781 2.296875 2.46875 3.441406l8.210937 11.566406c25.539063 34.398438 53.695313 66.773438 84.214844 96.839844 22.6875 22.683594 46.433593 44.488281 68.503906 62.585938l-43.519531 43.609374c-46.980469-56.929687-100.355469-108.261718-159.074219-152.984374l-11.652344-8.296876c-2.382812-1.675781-4.855469-3.621093-7.414062-5.5625-20.359375-15.96875-39.808594-33.0625-58.265625-51.199218l-3.707032-3.707032-188.910156-189.261718c-6.796875-6.941406-6.796875-18.042969 0-24.984375l37.429688-37.515625c6.941406-6.800782 18.042968-6.800782 24.980468 0l91.367188 91.539062v.441406" fill="#cb8252"/><path d="m506.210938 456.828125-49.875 49.964844c-6.988282 6.308593-17.695313 6.023437-24.339844-.644531-6.644532-6.667969-6.886719-17.375-.554688-24.339844l3.179688-3.175782 43.519531-43.609374 3.175781-3.179688c6.886719-6.84375 18.007813-6.84375 24.894532 0 3.316406 3.3125 5.179687 7.808594 5.179687 12.492188 0 4.6875-1.863281 9.179687-5.179687 12.492187zm0 0" fill="#cc4b4c"/><path d="m353.582031 96.75v.351562c.050781 20.800782-6.640625 41.058594-19.066406 57.734376-1.765625 2.382812-3.621094 4.679687-5.5625 6.886718-1.945313 2.195313-4.011719 4.289063-6.179687 6.265625-17.929688 16.789063-41.554688 26.15625-66.117188 26.21875h-.175781c-24.636719.039063-48.355469-9.339843-66.296875-26.21875-2.191406-1.953125-4.253906-4.046875-6.179688-6.265625-1.941406-2.207031-3.796875-4.503906-5.5625-6.886718-12.425781-16.675782-19.117187-36.933594-19.066406-57.734376v-.441406c.117188-33.359375 17.394531-64.308594 45.726562-81.917968 5.023438-3.1875 10.34375-5.878907 15.890626-8.035157 22.8125-8.941406 48.160156-8.941406 70.972656 0 5.546875 2.15625 10.867187 4.847657 15.890625 8.035157 28.351562 17.632812 45.628906 48.621093 45.726562 82.007812zm0 0" fill="#bdc3c7"/><g fill="#cc4b4c"><path d="m334.515625 154.835938c-1.765625 2.382812-3.621094 4.679687-5.5625 6.886718-1.945313 2.195313-4.011719 4.289063-6.179687 6.265625-27.476563-27.332031-42.863282-64.527343-42.726563-103.28125-.070313-19.949219 3.984375-39.695312 11.917969-58 5.546875 2.15625 10.867187 4.847657 15.890625 8.035157-6.785157 15.777343-10.242188 32.789062-10.152344 49.964843-.078125 33.71875 13.148437 66.105469 36.8125 90.128907zm0 0"/><path d="m232.910156 64.707031c.136719 38.753907-15.25 75.949219-42.726562 103.28125-2.191406-1.953125-4.253906-4.046875-6.179688-6.265625-1.941406-2.207031-3.796875-4.503906-5.5625-6.886718 23.664063-24.023438 36.890625-56.410157 36.8125-90.128907.089844-17.175781-3.367187-34.1875-10.152344-49.964843 5.023438-3.1875 10.34375-5.878907 15.890626-8.035157 7.933593 18.304688 11.988281 38.050781 11.917968 58zm0 0"/></g></svg>