<svg height="512pt" viewBox="0 0 512 512.02913" width="512pt" xmlns="http://www.w3.org/2000/svg"><path d="m512.015625 150.070312c0 82.878907-67.1875 150.066407-150.070313 150.066407-82.878906 0-150.070312-67.1875-150.070312-150.066407 0-82.882812 67.191406-150.070312 150.070312-150.070312 82.882813 0 150.070313 67.1875 150.070313 150.070312zm0 0" fill="#d1d4d1"/><path d="m498.332031 295.371094-54.203125-19.6875-21.007812-7.679688c-6.179688-75.617187-60.046875-138.804687-133.738282-156.863281-2.296874-.621094-4.589843-1.148437-6.886718-1.589844v49.347657c0 14.625-11.855469 26.480468-26.480469 26.480468-14.628906 0-26.484375-11.855468-26.484375-26.480468v-52.96875h-35.308594v52.96875c0 14.625-11.859375 26.480468-26.484375 26.480468s-26.480469-11.855468-26.480469-26.480468v-49.4375c-82.238281 16.863281-141.2695308 89.25-141.242187 173.199218v114.847656c0 4.875 3.953125 8.824219 8.828125 8.824219h26.480469s52.964843 0 79.449219 26.484375c22.597656 22.597656 45.109374 64.441406 100.371093 76.359375 73.886719 15.890625 147.066407-36.371093 146.800781-112.023437-.035156-16.820313-3.769531-33.425782-10.945312-48.640625-1.386719-2.742188-1.257812-6.003907.339844-8.628907 1.601562-2.625 4.441406-4.234374 7.515625-4.257812h131.179687c10.472656.257812 19.625-7.035156 21.714844-17.300781 1.652344-9.886719-3.992188-19.542969-13.417969-22.953125zm-259.972656 146.007812c-19.5 0-35.308594-15.808594-35.308594-35.308594 0-19.503906 15.808594-35.3125 35.308594-35.3125s35.308594 15.808594 35.308594 35.3125c0 19.5-15.808594 35.308594-35.308594 35.308594zm0 0" fill="#2c3e50"/><path d="m194.222656 105.929688v52.96875c0 14.625-11.859375 26.480468-26.484375 26.480468s-26.480469-11.855468-26.480469-26.480468v-49.4375c11.621094-2.34375 23.449219-3.527344 35.308594-3.53125zm0 0" fill="#90bae1"/><path d="m35.324219 379.585938c-4.875 0-8.828125-3.953126-8.828125-8.828126v-8.828124c0-4.875 3.953125-8.828126 8.828125-8.828126s8.828125 3.953126 8.828125 8.828126v8.828124c0 4.875-3.953125 8.828126-8.828125 8.828126zm0 0" fill="#547580"/><path d="m35.324219 335.449219c-4.875 0-8.828125-3.953125-8.828125-8.828125v-52.964844c1.597656-32.277344 15.101562-62.816406 37.898437-85.71875 3.488281-3.125 8.808594-2.984375 12.125.324219 3.316407 3.308593 3.472657 8.628906.355469 12.125-19.367188 19.6875-30.988281 45.703125-32.722656 73.269531v52.964844c0 4.875-3.953125 8.828125-8.828125 8.828125zm0 0" fill="#547580"/><path d="m282.496094 109.550781v49.347657c0 14.625-11.855469 26.480468-26.480469 26.480468-14.628906 0-26.484375-11.855468-26.484375-26.480468v-52.96875h17.65625c11.863281-.011719 23.695312 1.203124 35.308594 3.621093zm0 0" fill="#90bae1"/><g fill="#cc4b4c"><path d="m489.59375 228.988281c-1.679688 2.648438-3.355469 5.296875-5.210938 7.855469-1.675781 2.382812-3.53125 4.765625-5.296874 7.0625-.671876-.496094-1.265626-1.09375-1.765626-1.765625-6.046874-8.195313-11.644531-16.710937-16.769531-25.511719l-13.949219.972656h-.617187c-4.644531.011719-8.503906-3.578124-8.828125-8.210937-.167969-2.332031.605469-4.636719 2.148438-6.398437 1.542968-1.757813 3.726562-2.824219 6.0625-2.960938l6.179687-.441406c-2.648437-5.382813-5.03125-10.769532-7.328125-16.242188l-13.066406-.882812c-2.335938-.132813-4.519532-1.199219-6.0625-2.960938-1.542969-1.757812-2.316406-4.0625-2.144532-6.394531.375-4.820313 4.527344-8.464844 9.355469-8.210937l5.207031.355468c-1.761718-5.296875-3.351562-10.59375-4.765624-15.980468l-12.976563-.882813c-2.34375-.136719-4.535156-1.199219-6.089844-2.953125-1.558593-1.757812-2.351562-4.0625-2.207031-6.402344.417969-4.835937 4.597656-8.472656 9.445312-8.210937l7.769532.53125c-1.238282-6.535157-2.207032-13.066407-3.003906-19.6875l-13.859376-6.972657c-2.113281-1.019531-3.726562-2.851562-4.476562-5.078124-.746094-2.226563-.566406-4.660157.503906-6.75 2.210938-4.320313 7.464844-6.082032 11.832032-3.972657l4.324218 2.207031c-.175781-5.03125-.265625-9.976562-.175781-15.007812l-12.890625-6.445312c-3.054688-1.269532-5.140625-4.144532-5.40625-7.441407-.261719-3.300781 1.339844-6.46875 4.152344-8.210937 2.8125-1.742188 6.363281-1.765625 9.199218-.058594l5.914063 2.914062c1.054687-12.617187 2.941406-25.152343 5.652344-37.519531.183593-.828125.480469-1.632812.882812-2.382812 2.648438 1.324219 5.207031 2.824219 7.765625 4.324219 2.738282 1.679687 5.386719 3.355468 7.945313 5.210937-2.078125 9.636719-3.554688 19.394531-4.414063 29.21875l3.621094-1.765625c4.265625-1.777344 9.183594.039062 11.269531 4.164062 2.085938 4.128907.636719 9.164063-3.324219 11.546876l-12.714843 6.355468c-.085938 5.210938-.085938 10.417969.179687 15.625l5.472656-2.734375c4.367188-2.109375 9.621094-.347656 11.828126 3.972657 1.070312 2.089843 1.25 4.523437.503906 6.75-.746094 2.226562-2.363282 4.058593-4.476563 5.078124l-11.652343 5.824219c.441406 3.710938.972656 7.417969 1.589843 11.125l1.234375-1.5c2.050782-2.398437 5.222656-3.519531 8.324219-2.941406 3.101563.574219 5.660156 2.761719 6.710937 5.738281 1.050782 2.972656.433594 6.28125-1.617187 8.679688l-10.0625 11.738281c1.324219 5.121094 2.734375 10.242187 4.324219 15.273437l3.707031-4.414062c2.066406-2.398438 5.253906-3.511719 8.363281-2.917969 3.109375.589844 5.667969 2.792969 6.710938 5.78125 1.042968 2.984375.410156 6.304688-1.65625 8.699219l-10.0625 11.652344c1.765625 4.238281 3.621094 8.386718 5.5625 12.535156l2.558594-3.882812c1.597656-2.90625 4.683593-4.671876 7.996093-4.574219 3.3125.097656 6.292969 2.042969 7.714844 5.035156s1.046875 6.53125-.96875 9.160156l-7.855469 12.183594c4.175782 7.273437 8.746094 14.316406 13.683594 21.097656zm0 0"/><path d="m312.953125 69.648438-12.890625 6.445312c.191406 12.066406-.457031 24.128906-1.941406 36.105469-.085938.441406-.175782.882812-.265625 1.234375-2.824219-.882813-5.648438-1.589844-8.472657-2.292969-2.296874-.621094-4.589843-1.148437-6.886718-1.589844-.617188-.089843-1.144532-.265625-1.765625-.355469 1.207031-11.046874 1.707031-22.164062 1.503906-33.277343l-12.535156-6.269531c-3.054688-1.269532-5.144531-4.144532-5.40625-7.441407-.265625-3.300781 1.335937-6.46875 4.148437-8.210937 2.8125-1.742188 6.367188-1.765625 9.199219-.058594l3.53125 1.675781c-.914063-9.78125-2.359375-19.503906-4.324219-29.128906 2.558594-1.855469 5.207032-3.53125 7.945313-5.210937 2.558593-1.5 5.121093-2.910157 7.679687-4.324219.398438.75.695313 1.554687.882813 2.382812 2.820312 12.355469 4.769531 24.890625 5.824219 37.519531l5.828124-2.914062c4.269532-1.777344 9.183594.039062 11.269532 4.164062 2.089844 4.128907.636718 9.164063-3.324219 11.546876zm0 0"/></g></svg>