<svg height="511pt" viewBox="0 0 511 511.59526" width="511pt" xmlns="http://www.w3.org/2000/svg"><path d="m329.605469 53.050781-56.144531 56.144531-22.773438-22.773437c-3.316406-3.3125-5.179688-7.808594-5.179688-12.492187 0-4.6875 1.863282-9.179688 5.179688-12.492188l31.160156-31.160156c3.3125-3.316406 7.804688-5.179688 12.492188-5.179688 4.683594 0 9.179687 1.863282 12.488281 5.179688zm0 0" fill="#95a5a5"/><path d="m105.738281 279.304688v.085937l-56.144531 56.144531-22.511719-25.425781c-3.34375-3.292969-5.226562-7.792969-5.226562-12.488281 0-4.695313 1.882812-9.195313 5.226562-12.492188l31.164063-31.25c3.308594-3.316406 7.804687-5.175781 12.488281-5.175781 4.6875 0 9.179687 1.859375 12.492187 5.175781zm0 0" fill="#95a5a5"/><path d="m258.011719 453.648438-31.25 31.160156c-3.292969 3.347656-7.792969 5.230468-12.488281 5.230468-4.695313 0-9.195313-1.882812-12.492188-5.230468l-25.421875-22.421875 56.140625-56.230469 25.511719 22.507812c3.316406 3.3125 5.179687 7.808594 5.179687 12.492188 0 4.6875-1.863281 9.179688-5.179687 12.492188zm0 0" fill="#95a5a5"/><path d="m481.617188 230.046875-31.164063 31.160156c-3.308594 3.316407-7.804687 5.175781-12.488281 5.175781-4.6875 0-9.179688-1.859374-12.492188-5.175781l-22.773437-22.777343 56.140625-56.140626 22.777344 22.773438c3.3125 3.3125 5.175781 7.804688 5.175781 12.492188 0 4.683593-1.863281 9.179687-5.175781 12.492187zm0 0" fill="#95a5a5"/><path d="m511.804688 106.015625c.023437 28.105469-11.121094 55.066406-30.984376 74.949219l-235.253906 235.253906h-.089844l-56.140624 56.144531.085937.085938-8.738281 8.652343c-41.480469 40.871094-108.164063 40.625-149.339844-.550781-41.179688-41.175781-41.425781-107.863281-.550781-149.339843l8.738281-8.652344 56.144531-56.144532v-.085937l167.457031-167.371094 56.230469-56.234375 11.566407-11.652344c30.296874-30.332031 75.890624-39.410156 115.496093-23 39.605469 16.410157 65.414063 55.078126 65.378907 97.945313zm0 0" fill="#24ae5f"/><g fill="#bdc3c7"><path d="m139.546875 343.746094c-.054687 1.148437-.292969 2.277344-.707031 3.351562-.445313 1.070313-1.074219 2.054688-1.851563 2.914063-1.671875 1.648437-3.921875 2.566406-6.269531 2.558593-1.152344-.003906-2.296875-.242187-3.355469-.703124-1.078125-.429688-2.066406-1.058594-2.910156-1.855469-.78125-.859375-1.40625-1.84375-1.855469-2.914063-.441406-1.066406-.707031-2.199218-.792968-3.351562.007812-2.359375.960937-4.617188 2.648437-6.269532.84375-.796874 1.832031-1.425781 2.910156-1.855468 1.058594-.460938 2.203125-.699219 3.355469-.703125 2.949219.027343 5.695312 1.515625 7.328125 3.972656.367187.4375.636719.949219.792969 1.5.28125.519531.460937 1.089844.53125 1.675781.085937.53125.085937 1.148438.175781 1.679688zm0 0"/><path d="m102.117188 381.171875c-.074219 1.15625-.34375 2.289063-.792969 3.355469-.425781 1.082031-1.054688 2.070312-1.855469 2.914062-1.625 1.667969-3.847656 2.621094-6.179688 2.648438-1.179687-.078125-2.34375-.34375-3.441406-.796875-1.054687-.425781-2.011718-1.054688-2.824218-1.851563-.796876-.84375-1.425782-1.832031-1.855469-2.914062-.449219-1.066406-.71875-2.199219-.792969-3.355469.027344-2.355469.976562-4.605469 2.648438-6.265625.8125-.796875 1.769531-1.425781 2.824218-1.855469 3.90625-1.675781 8.453125-.296875 10.769532 3.265625.289062.476563.523437.980469.707031 1.503906.257812.535157.464843 1.097657.617187 1.675782.089844.53125.089844 1.148437.175782 1.675781zm0 0"/><path d="m174.328125 378.523438c-.003906 1.15625-.246094 2.296874-.707031 3.355468-.425782 1.082032-1.054688 2.070313-1.851563 2.914063-1.652343 1.683593-3.910156 2.636719-6.269531 2.648437-1.152344-.085937-2.285156-.355468-3.355469-.796875-1.066406-.445312-2.054687-1.074219-2.910156-1.851562-.800781-.84375-1.429687-1.832031-1.855469-2.914063-.460937-1.058594-.703125-2.199218-.707031-3.355468-.007813-2.34375.914063-4.597657 2.5625-6.265626.855469-.78125 1.84375-1.40625 2.910156-1.855468 3.882813-1.675782 8.402344-.292969 10.683594 3.269531.347656.449219.617187.957031.792969 1.5.269531.523437.449218 1.089844.53125 1.675781.144531.546875.203125 1.113282.175781 1.675782zm0 0"/><path d="m139.546875 418.601562c-.046875 1.179688-.285156 2.34375-.707031 3.445313-.425782 1.050781-1.054688 2.011719-1.851563 2.824219-1.660156 1.667968-3.914062 2.621094-6.269531 2.648437-1.152344-.078125-2.289062-.347656-3.355469-.796875-1.078125-.425781-2.066406-1.054687-2.910156-1.851562-.796875-.8125-1.425781-1.773438-1.855469-2.824219-.449218-1.097656-.71875-2.261719-.792968-3.445313.027343-2.328124.980468-4.550781 2.648437-6.179687.820313-.824219 1.816406-1.460937 2.910156-1.851563 1.066407-.449218 2.203125-.71875 3.355469-.796874 2.949219.027343 5.695312 1.515624 7.328125 3.972656.347656.453125.617187.960937.792969 1.5.269531.527344.449218 1.09375.53125 1.679687.085937.527344.085937 1.148438.175781 1.675781zm0 0"/><path d="m387.074219 90.921875c-.035157 4.863281-3.96875 8.792969-8.828125 8.828125-1.152344-.085938-2.285156-.355469-3.355469-.792969-1.085937-.414062-2.078125-1.046875-2.914063-1.855469-3.421874-3.441406-3.421874-9.003906 0-12.445312.859376-.78125 1.84375-1.40625 2.914063-1.855469 1.070313-.441406 2.203125-.707031 3.355469-.792969 2.972656.023438 5.746094 1.511719 7.414062 3.972657.289063.472656.523438.976562.707032 1.5.28125.550781.460937 1.148437.527343 1.765625.15625.542968.214844 1.109375.179688 1.675781zm0 0"/><path d="m349.644531 128.351562c-.015625 1.152344-.253906 2.292969-.707031 3.355469-.449219 1.066407-1.074219 2.054688-1.855469 2.910157-1.660156 1.664062-3.917969 2.585937-6.265625 2.5625-1.15625-.003907-2.296875-.246094-3.355468-.707032-1.078126-.425781-2.070313-1.054687-2.914063-1.855468-.777344-.855469-1.40625-1.84375-1.851563-2.910157-.441406-1.070312-.707031-2.203125-.796874-3.355469.011718-2.359374.964843-4.617187 2.648437-6.269531.84375-.796875 1.835937-1.425781 2.914063-1.851562 3.878906-1.675781 8.402343-.292969 10.683593 3.265625.367188.4375.636719.949218.792969 1.5.28125.519531.460938 1.089844.53125 1.679687.148438.542969.207031 1.109375.175781 1.675781zm0 0"/><path d="m424.589844 128.351562c-.085938 1.152344-.355469 2.285157-.792969 3.355469-.449219 1.066407-1.078125 2.054688-1.855469 2.910157-3.464844 3.367187-8.980468 3.367187-12.445312 0-.835938-.828126-1.496094-1.820313-1.945313-2.910157-.367187-1.085937-.605469-2.214843-.703125-3.355469.007813-2.359374.960938-4.617187 2.648438-6.269531 1.664062-1.597656 3.871094-2.511719 6.179687-2.558593 2.992188-.050782 5.796875 1.453124 7.414063 3.972656.304687.464844.542968.96875.707031 1.5.269531.53125.480469 1.097656.617187 1.679687.085938.441407.085938 1.144531.175782 1.675781zm0 0"/><path d="m387.074219 165.78125c-.003907 1.152344-.246094 2.296875-.707031 3.351562-1.289063 3.363282-4.523438 5.578126-8.121094 5.5625-1.152344-.085937-2.285156-.351562-3.355469-.792968-1.070313-.449219-2.054687-1.074219-2.914063-1.855469-.796874-.84375-1.425781-1.832031-1.851562-2.914063-.464844-1.054687-.703125-2.199218-.707031-3.351562-.023438-2.347656.898437-4.609375 2.558593-6.269531.859376-.777344 1.84375-1.40625 2.914063-1.851563 1.0625-.453125 2.199219-.695312 3.355469-.707031 2.972656.027344 5.746094 1.511719 7.414062 3.972656.289063.472657.523438.976563.707032 1.5.269531.527344.445312 1.09375.527343 1.675781.148438.546876.207031 1.113282.179688 1.679688zm0 0"/></g></svg>