<svg height="512pt" viewBox="0 -35 512 512" width="512pt" xmlns="http://www.w3.org/2000/svg"><path d="m511.558594 256.007812c-4.558594-45.097656-42.507813-79.425781-87.835938-79.449218h-335.445312c-45.328125.023437-83.277344 34.351562-87.835938 79.449218-.265625 2.910157-.441406 5.824219-.441406 8.824219v88.277344c0 3 .175781 5.914063.441406 8.828125 4.558594 45.097656 42.507813 79.425781 87.835938 79.449219h335.445312c45.328125-.023438 83.277344-34.351563 87.835938-79.449219.265625-2.914062.441406-5.828125.441406-8.828125v-88.277344c0-3-.175781-5.914062-.441406-8.824219zm0 0" fill="#a5a5a4"/><path d="m512 264.832031v44.140625h-512v-44.140625c0-3 .175781-5.914062.441406-8.824219h511.117188c.265625 2.910157.441406 5.824219.441406 8.824219zm0 0" fill="#bdc3c7"/><path d="m512 308.972656v44.136719c0 3-.175781 5.914063-.441406 8.828125h-511.117188c-.265625-2.914062-.441406-5.828125-.441406-8.828125v-44.136719zm0 0" fill="#7f8c8d"/><path d="m423.722656 176.558594h-335.445312l26.480468-52.964844 54.820313-107.699219c4.234375-9.632812 13.753906-15.863281 24.277344-15.8867185h175.402343c14.261719-.3085935 26.382813 10.3554685 27.894532 24.5390625.539062 7.339844-1.996094 14.570313-7.003906 19.960937-5.007813 5.394532-12.03125 8.460938-19.390626 8.464844h-123.585937c-19.5 0-35.308594 15.808594-35.308594 35.308594 0 19.503906 15.808594 35.3125 35.308594 35.3125h139.125c6.699219.003906 12.816406 3.796875 15.800781 9.796875zm0 0" fill="#cc4b4c"/></svg>