<svg height="512pt" viewBox="0 0 512.02193 512" width="512pt" xmlns="http://www.w3.org/2000/svg"><g fill="#95a5a5"><path d="m510.863281 39.738281-17.65625 30.546875c-1.164062 2.042969-3.09375 3.535156-5.367187 4.148438-2.269532.613281-4.691406.296875-6.726563-.882813l-2.558593-1.414062-185.027344 328.121093c-4.480469-2.890624-8.25-6.75-11.035156-11.296874l-26.480469-43.609376 180.613281-297.488281-1.414062-.796875c-4.195313-2.476562-5.613282-7.871094-3.179688-12.09375l17.65625-30.542968c2.425781-4.203126 7.785156-5.660157 12.007812-3.265626l45.902344 26.480469c4.214844 2.460938 5.667969 7.851563 3.265625 12.09375zm0 0"/><path d="m256.011719 466.640625-6.003907 10.683594c-12.730468 21.488281-35.847656 34.671875-60.820312 34.691406h-65.589844l35.308594-105.929687h40.34375c6.851562.023437 13.554688-2.007813 19.242188-5.828126zm0 0"/><path d="m158.90625 406.085938-35.308594 105.929687-70.621094-105.929687zm0 0"/><path d="m123.597656 512.015625h-88.277344c-19.5 0-35.3085932-15.808594-35.3085932-35.308594v-35.3125c0-19.5 15.8085932-35.308593 35.3085932-35.308593h17.65625zm0 0"/></g><path d="m158.90625 406.085938-35.308594 105.929687-70.621094-105.929687zm0 0" fill="#802f34"/><path d="m123.597656 512.015625h-88.277344c-19.5 0-35.3085932-15.808594-35.3085932-35.308594v-35.3125c0-19.5 15.8085932-35.308593 35.3085932-35.308593h17.65625zm0 0" fill="#95a5a5"/><path d="m476.699219 406.085938h-163.925781c-6.855469.023437-13.554688-2.007813-19.246094-5.828126-4.480469-2.890624-8.25-6.75-11.035156-11.296874l-26.480469-43.609376-180.613281-297.488281 1.414062-.796875c4.191406-2.476562 5.609375-7.871094 3.175781-12.09375l-17.65625-30.542968c-2.421875-4.203126-7.785156-5.660157-12.003906-3.265626l-45.902344 26.480469c-4.214843 2.460938-5.671875 7.851563-3.265625 12.09375l17.652344 30.546875c1.167969 2.042969 3.097656 3.535156 5.367188 4.148438 2.273437.613281 4.691406.296875 6.726562-.882813l2.5625-1.414062 185.023438 328.121093 37.519531 66.382813 6.003906 10.683594c12.730469 21.488281 35.84375 34.671875 60.820313 34.691406h153.863281c19.503906 0 35.3125-15.808594 35.3125-35.308594v-35.3125c0-19.5-15.808594-35.308593-35.3125-35.308593zm0 0" fill="#bdc3c7"/><path d="m459.046875 406.085938-70.621094 105.929687-35.3125-105.929687zm0 0" fill="#cc4b4c"/><path d="m256.011719.015625c-58.527344 0-105.933594 23.746094-105.933594 52.964844v44.140625c0 29.21875 47.40625 52.964844 105.933594 52.964844 58.527343 0 105.929687-23.746094 105.929687-52.964844v-44.140625c0-29.21875-47.402344-52.964844-105.929687-52.964844zm0 0" fill="#35495e"/><path d="m256.011719 79.464844c-4.875 0-8.828125-3.953125-8.828125-8.828125s3.953125-8.828125 8.828125-8.828125c30.894531 0 49.539062-6.433594 53.054687-10.046875.652344-4.582031 4.730469-7.878907 9.347656-7.558594 4.617188.320313 8.203126 4.148437 8.21875 8.777344 0 25.742187-63.402343 26.484375-70.621093 26.484375zm0 0" fill="#556080"/><path d="m194.21875 61.808594c-4.875 0-8.828125-3.953125-8.828125-8.828125 0-25.742188 63.398437-26.480469 70.621094-26.480469 4.875 0 8.828125 3.949219 8.828125 8.828125 0 4.875-3.953125 8.824219-8.828125 8.824219-30.898438 0-49.542969 6.4375-53.054688 10.046875-.609375 4.363281-4.335937 7.609375-8.738281 7.609375zm0 0" fill="#556080"/><path d="m361.941406 52.980469v44.140625c0 29.21875-47.402344 52.964844-105.929687 52.964844-58.527344 0-105.933594-23.746094-105.933594-52.964844v-44.140625c0 29.21875 47.40625 52.964843 105.933594 52.964843 58.527343 0 105.929687-23.746093 105.929687-52.964843zm0 0" fill="#2c3e50"/></svg>