<svg height="512pt" viewBox="0 0 512.00639 512" width="512pt" xmlns="http://www.w3.org/2000/svg"><path d="m52.972656 26.46875v476.691406c0 4.875-3.953125 8.824219-8.828125 8.824219h-35.3125c-4.875 0-8.8242185-3.949219-8.8242185-8.824219v-475.191406c-.3085935-14.257812 10.3554685-26.378906 24.5390625-27.8945312 7.339844-.5390628 14.570313 2.0000002 19.960937 7.0039062 5.394532 5.007813 8.460938 12.03125 8.464844 19.390625zm0 0" fill="#7f6e5d"/><path d="m503.179688 123.574219h-167.726563v-70.621094c0-4.875-3.949219-8.828125-8.824219-8.828125h-273.65625v264.828125h123.585938v79.445313h326.621094c4.875 0 8.828124-3.949219 8.828124-8.824219v-247.175781c0-4.875-3.953124-8.824219-8.828124-8.824219zm0 0" fill="#bdc3c7"/><g fill="#35495e"><path d="m52.972656 44.125h61.792969v88.273438h-61.792969zm0 0"/><path d="m335.453125 52.953125v79.445313h-114.757813v-88.273438h105.933594c4.875 0 8.824219 3.953125 8.824219 8.828125zm0 0"/><path d="m52.972656 220.675781h61.792969v88.277344h-61.792969zm0 0"/><path d="m114.765625 132.398438h105.929687v88.277343h-105.929687zm0 0"/><path d="m220.695312 220.675781h114.757813v88.277344h-114.757813zm0 0"/></g><path d="m291.316406 331.019531v57.378907h-114.757812zm0 0" fill="#7f8c8d"/><path d="m397.246094 300.125v88.273438h-105.929688v-57.378907l44.136719-22.066406v-8.828125zm0 0" fill="#2c3e50"/><path d="m512.007812 300.125v79.449219c0 4.875-3.953124 8.824219-8.828124 8.824219h-105.933594v-88.273438zm0 0" fill="#7f8c8d"/><path d="m335.453125 211.847656h61.792969v88.277344h-61.792969zm0 0" fill="#7f8c8d"/><path d="m397.246094 211.847656h114.761718v88.277344h-114.761718zm0 0" fill="#2c3e50"/><path d="m335.453125 123.574219h61.792969v88.273437h-61.792969zm0 0" fill="#2c3e50"/><path d="m512.007812 132.398438v79.449218h-114.761718v-88.273437h105.933594c4.875 0 8.828124 3.949219 8.828124 8.824219zm0 0" fill="#7f8c8d"/><path d="m335.453125 308.953125-158.894531 79.445313v-79.445313zm0 0" fill="#5e5f62"/></svg>