<svg height="512pt" viewBox="0 0 512 512.01444" width="512pt" xmlns="http://www.w3.org/2000/svg"><path d="m455.597656 477.300781c-14.957031 0-29.304687-5.941406-39.882812-16.519531s-16.523438-24.925781-16.523438-39.886719v-138.847656c0-13.949219-7.441406-26.84375-19.523437-33.816406-12.082031-6.976563-26.96875-6.976563-39.050781 0-12.082032 6.972656-19.527344 19.867187-19.527344 33.816406v99.796875c0 4.792969-3.882813 8.679688-8.675782 8.679688-4.792968 0-8.679687-3.886719-8.679687-8.679688v-99.796875c0-31.152344 25.253906-56.40625 56.40625-56.40625s56.40625 25.253906 56.40625 56.40625v138.847656c0 21.570313 17.484375 39.050781 39.050781 39.050781 21.570313 0 39.050782-17.480468 39.050782-39.050781v-403.523437c0-4.792969 3.886718-8.679688 8.679687-8.679688s8.679687 3.886719 8.679687 8.679688v403.523437c-.039062 31.136719-25.273437 56.371094-56.410156 56.40625zm0 0" fill="#d1d4d1"/><path d="m325.429688 512.015625h-13.015626c-4.792968 0-8.679687-3.886719-8.679687-8.679687 0-4.792969 3.886719-8.675782 8.679687-8.675782h13.015626c7.1875 0 13.015624-5.828125 13.015624-13.019531 0-7.1875-5.828124-13.015625-13.015624-13.015625-11.980469 0-21.695313-9.714844-21.695313-21.695312v-13.015626c0-4.792968 3.886719-8.679687 8.679687-8.679687 4.792969 0 8.675782 3.886719 8.675782 8.679687v13.015626c0 2.394531 1.945312 4.339843 4.339844 4.339843 16.773437 0 30.371093 13.597657 30.371093 30.371094 0 16.777344-13.597656 30.375-30.371093 30.375zm0 0" fill="#d1d4d1"/><path d="m503.15625 32.375c-161.316406 90.945312-283.71875 215.828125-364.015625 314.757812l.355469 1.214844c-6.011719 1.527344-11.515625 4.609375-15.960938 8.9375l-3.183594-1.90625c-1.601562-2.308594-3.582031-4.332031-5.847656-5.988281-5.203125-3.855469-11.636718-5.675781-18.085937-5.121094 81.71875-103.960937 212.523437-242.472656 389.007812-341.921875 8.449219-4.8125 19.199219-1.996094 24.203125 6.34375 2.351563 3.984375 2.988282 8.75 1.769532 13.210938-1.21875 4.460937-4.195313 8.238281-8.242188 10.472656zm0 0" fill="#cbb292"/><path d="m112.820312 381.84375c.015626 3.59375.574219 7.160156 1.648438 10.589844-23.65625 31.578125-45.695312 64.335937-66.039062 98.144531-4.699219 7.898437-13.203126 12.742187-22.390626 12.757813-4.675781.023437-9.265624-1.238282-13.277343-3.644532-12.363281-7.332031-16.441407-23.300781-9.109375-35.667968 22.699218-37.773438 47.410156-74.300782 74.019531-109.425782 4.472656-5.980468 11.304687-9.742187 18.746094-10.328125 6.332031-.550781 12.644531 1.273438 17.703125 5.121094 2.230468 1.660156 4.164062 3.683594 5.726562 5.988281l3.125 1.90625c-6.488281 6.53125-10.136718 15.355469-10.152344 24.558594zm0 0" fill="#556080"/><path d="m338.445312 407.878906c0 14.378906-11.65625 26.035156-26.03125 26.035156-14.378906 0-26.035156-11.65625-26.035156-26.035156s11.65625-26.035156 26.035156-26.035156c14.375 0 26.03125 11.65625 26.03125 26.035156zm0 0" fill="#547580"/><path d="m182.242188 381.84375c-.003907 11.964844-6.167969 23.078125-16.3125 29.417969-5.507813 3.476562-11.886719 5.3125-18.398438 5.296875-15.082031-.03125-28.429688-9.773438-33.0625-24.125-1.074219-3.429688-1.632812-6.996094-1.648438-10.589844.015626-9.203125 3.664063-18.027344 10.152344-24.558594 4.320313-4.3125 9.710938-7.398437 15.621094-8.9375 2.910156-.804687 5.917969-1.210937 8.9375-1.214844 19.171875 0 34.710938 15.542969 34.710938 34.710938zm0 0" fill="#547580"/><path d="m185.714844 451.617188c-2.996094 0-5.78125-1.539063-7.367188-4.078126l-38.183594-61.09375c-2.539062-4.074218-1.296874-9.4375 2.777344-11.976562 4.074219-2.539062 9.433594-1.296875 11.976563 2.777344l38.179687 61.09375c1.671875 2.671875 1.761719 6.042968.234375 8.800781-1.527343 2.757813-4.429687 4.472656-7.582031 4.476563zm0 0" fill="#d1d4d1"/><path d="m191.875 474.351562-26.03125 17.355469c-5.140625 3.867188-11.996094 4.574219-17.816406 1.839844-5.820313-2.738281-9.652344-8.464844-9.953125-14.890625-.304688-6.421875 2.96875-12.488281 8.503906-15.757812l26.03125-17.355469c3.847656-2.582031 8.566406-3.519531 13.105469-2.605469 4.492187.882812 8.433594 3.542969 10.933594 7.375 2.578124 3.816406 3.523437 8.5 2.628906 13.015625-.898438 4.515625-3.5625 8.484375-7.402344 11.023437zm0 0" fill="#547580"/></svg>