<svg height="512pt" viewBox="-79 0 512 512" width="512pt" xmlns="http://www.w3.org/2000/svg"><path d="m282.484375 36.414062v60.6875h-211.863281v-60.6875c0-20.152343 11.828125-36.414062 26.480468-36.414062h158.898438c14.652344 0 26.484375 16.261719 26.484375 36.414062zm0 0" fill="#df4d60"/><path d="m203.035156 44.136719h-52.964844c-4.875 0-8.828124-3.949219-8.828124-8.828125 0-4.875 3.953124-8.824219 8.828124-8.824219h52.964844c4.875 0 8.828125 3.949219 8.828125 8.824219 0 4.878906-3.953125 8.828125-8.828125 8.828125zm0 0" fill="#fb7b76"/><path d="m282.484375 414.898438v60.6875c0 20.144531-11.832031 36.414062-26.484375 36.414062h-158.898438c-14.652343 0-26.480468-16.269531-26.480468-36.414062v-60.6875zm0 0" fill="#df4d60"/><path d="m203.035156 485.515625h-52.964844c-4.875 0-8.828124-3.949219-8.828124-8.824219 0-4.878906 3.953124-8.828125 8.828124-8.828125h52.964844c4.875 0 8.828125 3.949219 8.828125 8.828125 0 4.875-3.953125 8.824219-8.828125 8.824219zm0 0" fill="#fb7b76"/><path d="m300.136719 70.621094h-247.171875c-29.25 0-52.964844 23.714844-52.964844 52.964844v264.828124c0 29.25 23.714844 52.964844 52.964844 52.964844h247.171875c29.253906 0 52.964843-23.714844 52.964843-52.964844v-264.828124c0-29.25-23.710937-52.964844-52.964843-52.964844zm17.65625 308.964844c0 14.625-11.855469 26.484374-26.484375 26.484374h-229.515625c-14.625 0-26.484375-11.859374-26.484375-26.484374v-247.171876c0-14.625 11.859375-26.484374 26.484375-26.484374h229.515625c14.628906 0 26.484375 11.859374 26.484375 26.484374zm0 0" fill="#ff5364"/><path d="m61.792969 105.929688h229.515625c14.628906 0 26.484375 11.859374 26.484375 26.484374v247.171876c0 14.625-11.855469 26.484374-26.484375 26.484374h-229.515625c-14.625 0-26.484375-11.859374-26.484375-26.484374v-247.171876c0-14.625 11.859375-26.484374 26.484375-26.484374zm0 0" fill="#b0d3f0"/><g fill="#7f8c8d"><path d="m114.757812 167.722656h31.292969l-38.59375 56.832032c-1.828125 2.609374-2.113281 6-.738281 8.875 1.371094 2.875 4.183594 4.789062 7.363281 5.003906 3.179688.21875 6.226563-1.292969 7.976563-3.957032l42.699218-62.921874c3.207032-3.863282 3.875-9.238282 1.710938-13.769532-2.265625-4.757812-7.085938-7.769531-12.355469-7.714844h-39.355469c-4.875 0-8.828124 3.949219-8.828124 8.828126 0 4.875 3.953124 8.824218 8.828124 8.824218zm0 0"/><path d="m247.171875 220.691406v-17.65625c0-9.75-7.902344-17.65625-17.65625-17.65625h-26.480469v-17.65625h35.308594c4.875 0 8.828125-3.949218 8.828125-8.824218 0-4.878907-3.953125-8.828126-8.828125-8.828126h-35.308594c-9.75 0-17.65625 7.902344-17.65625 17.652344v17.65625c0 9.75 7.90625 17.65625 17.65625 17.65625h26.480469v17.65625h-35.308594c-4.875 0-8.828125 3.949219-8.828125 8.824219 0 4.878906 3.953125 8.828125 8.828125 8.828125h35.308594c9.753906 0 17.65625-7.902344 17.65625-17.652344zm0 0"/><path d="m97.101562 273.65625h-17.652343c-4.875 0-8.828125 3.949219-8.828125 8.828125v70.617187c0 4.878907 3.953125 8.828126 8.828125 8.828126h17.652343c14.601563-.0625 26.421876-11.882813 26.484376-26.480469-.027344-6.542969-2.492188-12.835938-6.910157-17.65625 4.449219-4.800781 6.917969-11.109375 6.910157-17.65625 0-14.625-11.855469-26.480469-26.484376-26.480469zm-8.824218 17.652344h8.824218c4.878907 0 8.828126 3.953125 8.828126 8.828125.007812 2.382812-.96875 4.660156-2.699219 6.296875-1.617188 1.636718-3.828125 2.550781-6.128907 2.53125h-8.824218zm14.953125 50.433594c-1.617188 1.636718-3.828125 2.550781-6.128907 2.535156h-8.824218v-17.65625h8.824218c4.878907 0 8.828126 3.953125 8.828126 8.828125.007812 2.378906-.96875 4.660156-2.699219 6.292969zm0 0"/><path d="m167.722656 273.65625h-17.652344c-4.875 0-8.828124 3.949219-8.828124 8.828125v70.617187c0 4.878907 3.953124 8.828126 8.828124 8.828126s8.828126-3.949219 8.828126-8.828126v-26.480468h8.824218c14.601563-.0625 26.421875-11.882813 26.484375-26.484375 0-14.625-11.855469-26.480469-26.484375-26.480469zm6.128906 32.777344c-1.617187 1.636718-3.828124 2.550781-6.128906 2.53125h-8.824218v-17.65625h8.824218c4.875 0 8.828125 3.953125 8.828125 8.828125.007813 2.382812-.96875 4.660156-2.699219 6.296875zm0 0"/><path d="m277.035156 274.324219c-3.296875-1.382813-7.105468-.625-9.621094 1.917969l-20.242187 20.242187-20.242187-20.242187c-2.523438-2.523438-6.320313-3.277344-9.617188-1.914063-3.300781 1.367187-5.449219 4.585937-5.449219 8.15625v70.617187c0 4.878907 3.949219 8.828126 8.828125 8.828126 4.875 0 8.824219-3.949219 8.824219-8.828126v-49.308593l11.414063 11.414062c3.449218 3.445313 9.035156 3.445313 12.484374 0l11.414063-11.414062v49.308593c0 4.878907 3.953125 8.828126 8.828125 8.828126s8.828125-3.949219 8.828125-8.828126v-70.617187c0-3.570313-2.148437-6.789063-5.449219-8.160156zm0 0"/></g></svg>