<svg height="512pt" viewBox="-61 0 511 512" width="512pt" xmlns="http://www.w3.org/2000/svg"><path d="m371.257812 123.585938h-35.308593v-26.484376c-.03125-9.738281-7.917969-17.625-17.65625-17.652343h-26.484375v-26.484375c-.027344-9.738282-7.914063-17.625-17.652344-17.65625h-26.484375v-17.652344c-.027344-9.738281-7.917969-17.6289062-17.65625-17.65625h-211.859375c-9.738281.0273438-17.628906 7.917969-17.65625 17.65625v370.757812c.027344 9.738282 7.917969 17.625 17.65625 17.65625h26.480469v17.652344c.03125 9.738282 7.917969 17.628906 17.65625 17.65625h26.484375v17.65625c.027344 9.738282 7.914062 17.625 17.652344 17.65625h35.3125v17.652344c.027343 9.738281 7.914062 17.628906 17.65625 17.65625h211.859374c9.738282-.027344 17.625-7.917969 17.65625-17.65625v-353.101562c-.03125-9.738282-7.917968-17.625-17.65625-17.65625zm0 0" fill="#ecf0f1"/><path d="m309.464844 301.992188c.058594 7.367187-2.648438 14.488281-7.589844 19.949218l-36.546875 39.988282-36.546875-39.988282c-10.152344-11.394531-10.152344-28.59375 0-39.988281 4.628906-5.246094 11.277344-8.265625 18.273438-8.296875 7.050781.277344 13.671874 3.476562 18.273437 8.828125 4.515625-5.367187 11.140625-8.507813 18.152344-8.609375s13.722656 2.847656 18.394531 8.078125c4.96875 5.480469 7.683594 12.640625 7.589844 20.039063zm0 0" fill="#df4d60"/><path d="m230.015625 175.84375c.035156 4.4375-1.605469 8.722656-4.589844 12.007812l-21.890625 24.011719-21.980468-24.011719c-6.003907-6.878906-6.003907-17.132812 0-24.011718 2.78125-3.199219 6.832031-5.007813 11.070312-4.941406 4.242188.070312 8.234375 2.007812 10.910156 5.292968 2.699219-3.21875 6.664063-5.105468 10.863282-5.171875 4.203124-.070312 8.226562 1.691407 11.027343 4.820313 2.972657 3.289062 4.609375 7.570312 4.589844 12.003906zm0 0" fill="#ff5364"/><path d="m353.601562 440.671875c.035157 4.4375-1.605468 8.722656-4.589843 12.007813l-21.890625 24.011718-21.980469-24.011718c-6.003906-6.878907-6.003906-17.132813 0-24.011719 2.78125-3.199219 6.832031-5.007813 11.070313-4.941407 4.242187.070313 8.234374 2.007813 10.910156 5.292969 2.699218-3.21875 6.664062-5.105469 10.863281-5.175781 4.203125-.066406 8.226563 1.691406 11.027344 4.824219 2.972656 3.289062 4.609375 7.570312 4.589843 12.003906zm0 0" fill="#ff5364"/><path d="m335.949219 97.101562v26.484376h-176.550781c-9.742188.03125-17.628907 7.917968-17.65625 17.65625v335.449218h-35.3125c-9.738282-.03125-17.625-7.917968-17.652344-17.65625v-361.933594c.027344-9.738281 7.914062-17.625 17.652344-17.652343h211.863281c9.738281.027343 17.625 7.914062 17.65625 17.652343zm0 0" fill="#bdc3c7"/><path d="m291.808594 52.964844v26.484375h-185.378906c-9.738282.027343-17.625 7.914062-17.652344 17.652343v344.277344h-26.484375c-9.738281-.027344-17.625-7.917968-17.65625-17.65625v-370.757812c.03125-9.738282 7.917969-17.625 17.65625-17.65625h211.863281c9.738281.03125 17.625 7.917968 17.652344 17.65625zm0 0" fill="#95a5a5"/><path d="m247.671875 17.65625v17.652344h-185.378906c-9.738281.03125-17.625 7.917968-17.65625 17.65625v353.105468h-26.480469c-9.738281-.03125-17.628906-7.917968-17.65625-17.65625v-370.757812c.027344-9.738281 7.917969-17.6289062 17.65625-17.65625h211.859375c9.738281.0273438 17.628906 7.917969 17.65625 17.65625zm0 0" fill="#7f8c8d"/></svg>