<svg height="512pt" viewBox="0 0 512 512" width="512pt" xmlns="http://www.w3.org/2000/svg"><path d="m256 300.136719v-26.480469c0-4.875-3.953125-8.828125-8.828125-8.828125h-26.480469c0 14.625-11.859375 26.480469-26.484375 26.480469s-26.484375-11.855469-26.484375-26.480469h-79.445312c0 14.625-11.859375 26.480469-26.484375 26.480469s-26.484375-11.855469-26.484375-26.480469h-26.480469c-4.875 0-8.828125 3.953125-8.828125 8.828125v229.515625c0 4.875 3.953125 8.828125 8.828125 8.828125h238.34375c4.875 0 8.828125-3.953125 8.828125-8.828125v-26.480469c-14.625 0-26.484375-11.859375-26.484375-26.484375s11.859375-26.484375 26.484375-26.484375v-70.621094c14.625 0 26.484375-11.855468 26.484375-26.480468s-11.859375-26.484375-26.484375-26.484375zm0 0" fill="#8697cb"/><path d="m494.34375 0h-476.6875c-9.738281.0273438-17.6289062 7.917969-17.65625 17.65625v88.273438c.0273438 9.738281 7.917969 17.628906 17.65625 17.65625h17.652344c0 14.625 11.859375 26.484374 26.484375 26.484374s26.484375-11.859374 26.484375-26.484374h79.445312c0 14.625 11.859375 26.484374 26.484375 26.484374s26.484375-11.859374 26.484375-26.484374h70.617188c0 14.625 11.859375 26.484374 26.484375 26.484374s26.484375-11.859374 26.484375-26.484374h44.136718v44.136718c14.625 0 26.484376 11.859375 26.484376 26.484375s-11.859376 26.484375-26.484376 26.484375v70.617188c-14.625 0-26.484374 11.859375-26.484374 26.484375s11.859374 26.484375 26.484374 26.484375v79.445312c-14.625 0-26.484374 11.859375-26.484374 26.484375s11.859374 26.484375 26.484374 26.484375v17.652344c.027344 9.738281 7.917969 17.628906 17.65625 17.65625h88.273438c9.738281-.027344 17.628906-7.917969 17.65625-17.65625v-476.6875c-.027344-9.738281-7.917969-17.6289062-17.65625-17.65625zm0 0" fill="#8697cb"/><path d="m105.929688 326.621094c0 14.625 11.859374 26.480468 26.484374 26.480468v35.3125h-44.136718c0 14.625-11.859375 26.484376-26.484375 26.484376s-26.484375-11.859376-26.484375-26.484376h-35.308594v-114.757812c0-4.875 3.953125-8.828125 8.828125-8.828125h26.480469c0 14.625 11.859375 26.480469 26.484375 26.480469s26.484375-11.855469 26.484375-26.480469h44.136718v35.308594c-14.625 0-26.484374 11.859375-26.484374 26.484375zm0 0" fill="#556080"/><path d="m282.484375 326.621094c0 14.625-11.859375 26.480468-26.484375 26.480468v35.3125h-35.308594c0-14.625-11.859375-26.484374-26.484375-26.484374s-26.484375 11.859374-26.484375 26.484374h-35.308594v-35.3125c-14.625 0-26.484374-11.855468-26.484374-26.480468s11.859374-26.484375 26.484374-26.484375v-35.308594h35.308594c0 14.625 11.859375 26.480469 26.484375 26.480469s26.484375-11.855469 26.484375-26.480469h26.480469c4.875 0 8.828125 3.953125 8.828125 8.828125v26.480469c14.625 0 26.484375 11.859375 26.484375 26.484375zm0 0" fill="#285680"/><path d="m150.070312 450.207031c0 14.625-11.859374 26.484375-26.484374 26.484375v35.308594h-114.757813c-4.875 0-8.828125-3.953125-8.828125-8.828125v-114.757813h35.308594c0 14.625 11.859375 26.484376 26.484375 26.484376s26.484375-11.859376 26.484375-26.484376h35.308594v35.308594c14.625 0 26.484374 11.859375 26.484374 26.484375zm0 0" fill="#4482c3"/><path d="m282.484375 61.792969c0 14.625-11.859375 26.484375-26.484375 26.484375v35.308594h-35.308594c0 14.625-11.859375 26.484374-26.484375 26.484374s-26.484375-11.859374-26.484375-26.484374h-35.308594v-35.308594c-14.625 0-26.484374-11.859375-26.484374-26.484375s11.859374-26.484375 26.484374-26.484375v-35.308594h123.585938v35.308594c14.625 0 26.484375 11.859375 26.484375 26.484375zm0 0" fill="#556080"/><path d="m361.929688 61.792969c0 14.625 11.859374 26.484375 26.484374 26.484375v35.308594h-44.136718c0 14.625-11.859375 26.484374-26.484375 26.484374s-26.484375-11.859374-26.484375-26.484374h-35.308594v-35.308594c14.625 0 26.484375-11.859375 26.484375-26.484375s-11.859375-26.484375-26.484375-26.484375v-35.308594h132.414062v35.308594c-14.625 0-26.484374 11.859375-26.484374 26.484375zm0 0" fill="#4482c3"/><path d="m512 256v123.585938h-35.308594c0 14.625-11.859375 26.484374-26.484375 26.484374s-26.484375-11.859374-26.484375-26.484374h-35.308594v-35.308594c-14.625 0-26.484374-11.859375-26.484374-26.484375s11.859374-26.484375 26.484374-26.484375v-35.308594h35.308594c0 14.625 11.859375 26.484375 26.484375 26.484375s26.484375-11.859375 26.484375-26.484375zm0 0" fill="#556080"/><path d="m512 379.585938v114.757812c-.027344 9.738281-7.917969 17.628906-17.65625 17.65625h-88.273438c-9.738281-.027344-17.628906-7.917969-17.65625-17.65625v-17.652344c-14.625 0-26.484374-11.859375-26.484374-26.484375s11.859374-26.484375 26.484374-26.484375v-44.136718h35.308594c0 14.625 11.859375 26.484374 26.484375 26.484374s26.484375-11.859374 26.484375-26.484374zm0 0" fill="#4482c3"/><path d="m512 17.65625v105.929688h-35.308594c0 14.625-11.859375 26.484374-26.484375 26.484374s-26.484375-11.859374-26.484375-26.484374h-35.308594v-35.308594c-14.625 0-26.484374-11.859375-26.484374-26.484375s11.859374-26.484375 26.484374-26.484375v-35.308594h105.929688c9.738281.0273438 17.628906 7.917969 17.65625 17.65625zm0 0" fill="#285680"/></svg>