<svg height="512pt" viewBox="0 0 512 512.0229" width="512pt" xmlns="http://www.w3.org/2000/svg"><g fill="#7f8c8d"><path d="m264.839844 441.402344c.023437 18.738281-7.40625 36.714844-20.65625 49.964844s-31.226563 20.679687-49.964844 20.65625h-158.898438c-19.5 0-35.3085932-15.808594-35.3085932-35.3125v-70.617188c0-19.503906 15.8085932-35.3125 35.3085932-35.3125h158.898438c23.683594.078125 45.769531 11.964844 58.878906 31.691406 7.679688 11.527344 11.765625 25.078125 11.742188 38.929688zm0 0"/><path d="m44.148438 397.265625h-8.828126c-4.875 0-8.824218 3.949219-8.824218 8.828125 0 4.875 3.949218 8.824219 8.824218 8.824219h8.828126c4.875 0 8.828124-3.949219 8.828124-8.824219 0-4.878906-3.953124-8.828125-8.828124-8.828125zm0 0"/><path d="m79.460938 414.917969h97.101562c4.875 0 8.828125-3.949219 8.828125-8.824219 0-4.878906-3.953125-8.828125-8.828125-8.828125h-97.101562c-4.875 0-8.828126 3.949219-8.828126 8.828125 0 4.875 3.953126 8.824219 8.828126 8.824219zm0 0"/><path d="m44.148438 432.574219h-8.828126c-4.875 0-8.824218 3.953125-8.824218 8.828125s3.949218 8.828125 8.824218 8.828125h8.828126c4.875 0 8.828124-3.953125 8.828124-8.828125s-3.953124-8.828125-8.828124-8.828125zm0 0"/><path d="m176.5625 432.574219h-97.101562c-4.875 0-8.828126 3.953125-8.828126 8.828125s3.953126 8.828125 8.828126 8.828125h97.101562c4.875 0 8.828125-3.953125 8.828125-8.828125s-3.953125-8.828125-8.828125-8.828125zm0 0"/><path d="m44.148438 467.886719h-8.828126c-4.875 0-8.824218 3.949219-8.824218 8.824219s3.949218 8.828124 8.824218 8.828124h8.828126c4.875 0 8.828124-3.953124 8.828124-8.828124s-3.953124-8.824219-8.828124-8.824219zm0 0"/><path d="m176.5625 467.886719h-97.101562c-4.875 0-8.828126 3.949219-8.828126 8.824219s3.953126 8.828124 8.828126 8.828124h97.101562c4.875 0 8.828125-3.953124 8.828125-8.828124s-3.953125-8.824219-8.828125-8.824219zm0 0"/><path d="m431.769531 166.421875-25.777343 38.578125c-6.523438 9.859375-17.574219 15.765625-29.394532 15.710938-.738281.015624-1.476562-.015626-2.207031-.085938-6.179687-.402344-12.140625-2.410156-17.304687-5.828125-5.191407-3.425781-9.367188-8.179687-12.09375-13.769531-5.578126-11.308594-4.703126-24.734375 2.296874-35.222656l26.128907-39.28125zm0 0"/><path d="m475.90625 100.214844-44.136719 66.207031-58.351562-39.898437 44.136719-66.121094zm0 0"/><path d="m506.097656 54.929688-30.191406 45.285156-58.351562-39.8125 29.75-44.667969c10.824218-16.234375 32.757812-20.621094 48.992187-9.796875 16.238281 10.824219 20.625 32.757812 9.800781 48.992188zm0 0"/><path d="m374.390625 220.625-121.292969 181.847656c-6.613281-10.085937-15.738281-18.269531-26.480468-23.746094l118.375-177.699218c2.726562 5.589844 6.902343 10.34375 12.09375 13.769531 5.164062 3.417969 11.125 5.425781 17.304687 5.828125zm0 0"/></g><path d="m264.839844 441.402344c.023437 18.738281-7.40625 36.714844-20.65625 49.964844s-31.226563 20.679687-49.964844 20.65625h-158.898438c-19.5 0-35.3085932-15.808594-35.3085932-35.3125v-70.617188c0-19.503906 15.8085932-35.3125 35.3085932-35.3125h158.898438c23.683594.078125 45.769531 11.964844 58.878906 31.691406 7.679688 11.527344 11.765625 25.078125 11.742188 38.929688zm0 0" fill="#95a5a5"/><path d="m44.148438 397.265625h-8.828126c-4.875 0-8.824218 3.949219-8.824218 8.828125 0 4.875 3.949218 8.824219 8.824218 8.824219h8.828126c4.875 0 8.828124-3.949219 8.828124-8.824219 0-4.878906-3.953124-8.828125-8.828124-8.828125zm0 0" fill="#7f8c8d"/><path d="m79.460938 414.917969h97.101562c4.875 0 8.828125-3.949219 8.828125-8.824219 0-4.878906-3.953125-8.828125-8.828125-8.828125h-97.101562c-4.875 0-8.828126 3.949219-8.828126 8.828125 0 4.875 3.953126 8.824219 8.828126 8.824219zm0 0" fill="#7f8c8d"/><path d="m44.148438 432.574219h-8.828126c-4.875 0-8.824218 3.953125-8.824218 8.828125s3.949218 8.828125 8.824218 8.828125h8.828126c4.875 0 8.828124-3.953125 8.828124-8.828125s-3.953124-8.828125-8.828124-8.828125zm0 0" fill="#7f8c8d"/><path d="m176.5625 432.574219h-97.101562c-4.875 0-8.828126 3.953125-8.828126 8.828125s3.953126 8.828125 8.828126 8.828125h97.101562c4.875 0 8.828125-3.953125 8.828125-8.828125s-3.953125-8.828125-8.828125-8.828125zm0 0" fill="#7f8c8d"/><path d="m44.148438 467.886719h-8.828126c-4.875 0-8.824218 3.949219-8.824218 8.824219s3.949218 8.828124 8.824218 8.828124h8.828126c4.875 0 8.828124-3.953124 8.828124-8.828124s-3.953124-8.824219-8.828124-8.824219zm0 0" fill="#7f8c8d"/><path d="m176.5625 467.886719h-97.101562c-4.875 0-8.828126 3.949219-8.828126 8.824219s3.953126 8.828124 8.828126 8.828124h97.101562c4.875 0 8.828125-3.953124 8.828125-8.828124s-3.953125-8.824219-8.828125-8.824219zm0 0" fill="#7f8c8d"/><path d="m431.769531 166.421875-25.777343 38.578125c-6.523438 9.859375-17.574219 15.765625-29.394532 15.710938-.738281.015624-1.476562-.015626-2.207031-.085938-6.179687-.402344-12.140625-2.410156-17.304687-5.828125-5.191407-3.425781-9.367188-8.179687-12.09375-13.769531-5.578126-11.308594-4.703126-24.734375 2.296874-35.222656l26.128907-39.28125zm0 0" fill="#cc4b4c"/><path d="m475.90625 100.214844-44.136719 66.207031-58.351562-39.898437 44.136719-66.121094zm0 0" fill="#802f34"/><path d="m506.097656 54.929688-30.191406 45.285156-58.351562-39.8125 29.75-44.667969c10.824218-16.234375 32.757812-20.621094 48.992187-9.796875 16.238281 10.824219 20.625 32.757812 9.800781 48.992188zm0 0" fill="#cc4b4c"/><path d="m512.011719 379.609375c0 43.878906-35.570313 79.449219-79.449219 79.449219s-79.449219-35.570313-79.449219-79.449219 35.570313-79.449219 79.449219-79.449219c21.101562-.09375 41.363281 8.246094 56.285156 23.167969 14.917969 14.917969 23.257813 35.179687 23.164063 56.28125zm0 0" fill="#bdc3c7"/><path d="m485.527344 438.753906v7.0625c0 13.890625-6.539063 26.972656-17.652344 35.308594l-7.0625 5.296875c-6.667969 5.003906-10.59375 12.851563-10.59375 21.1875 0 2.4375-1.976562 4.414063-4.414062 4.414063h-26.484376c-2.4375 0-4.414062-1.976563-4.414062-4.414063 0-8.335937-3.921875-16.183594-10.589844-21.1875l-7.0625-5.296875c-11.117187-8.335938-17.65625-21.417969-17.65625-35.308594v-7.0625c30.121094 27.070313 75.808594 27.070313 105.929688 0zm0 0" fill="#802f34"/><path d="m432.5625 326.644531c-29.238281.027344-52.9375 23.722657-52.964844 52.964844 0 4.875 3.953125 8.828125 8.828125 8.828125s8.828125-3.953125 8.828125-8.828125c0-19.5 15.808594-35.3125 35.308594-35.3125 4.875 0 8.828125-3.949219 8.828125-8.824219s-3.953125-8.828125-8.828125-8.828125zm0 0" fill="#7f8c8d"/><path d="m482.96875 373.339844c-.859375-.777344-1.84375-1.40625-2.914062-1.851563-3.285157-1.382812-7.082032-.652343-9.621094 1.851563-1.613282 1.691406-2.527344 3.933594-2.558594 6.269531 0 4.875 3.949219 8.828125 8.824219 8.828125 4.878906 0 8.828125-3.953125 8.828125-8.828125-.011719-2.339844-.929688-4.585937-2.558594-6.269531zm0 0" fill="#7f8c8d"/><path d="m435.917969 415.625c-3.289063-1.382812-7.082031-.648438-9.621094 1.855469-1.613281 1.691406-2.527344 3.929687-2.5625 6.265625 0 4.875 3.953125 8.828125 8.828125 8.828125s8.828125-3.953125 8.828125-8.828125c-.011719-2.339844-.929687-4.585938-2.558594-6.265625-.859375-.78125-1.84375-1.40625-2.914062-1.855469zm0 0" fill="#7f8c8d"/><path d="m466.8125 402.375c-3.285156-1.382812-7.082031-.652344-9.621094 1.855469-1.613281 1.691406-2.527344 3.929687-2.558594 6.265625 0 4.875 3.953126 8.828125 8.828126 8.828125s8.828124-3.953125 8.828124-8.828125c-.015624-2.339844-.933593-4.585938-2.5625-6.265625-.859374-.78125-1.84375-1.40625-2.914062-1.855469zm0 0" fill="#7f8c8d"/></svg>