<svg height="512pt" viewBox="0 0 512 512.00793" width="512pt" xmlns="http://www.w3.org/2000/svg"><path d="m503.175781 158.902344c0-26.484375 8.828125-35.3125 8.828125-52.96875-1.160156-11.421875-5.921875-22.175782-13.59375-30.71875-2.589844-3.167969-4.019531-7.121094-4.0625-11.210938v-46.34375c-.003906-6.582031-3.683594-12.609375-9.53125-15.625-2.492187-1.351562-5.289062-2.050781-8.121094-2.03124975h-79.449218c-12.359375 11.38671875-25.601563 27.62890575-38.84375 39.19531275-58.089844 53.667969-147.679688 53.667969-205.769532 0-11.828124-10.328125-23.65625-24.453125-34.867187-35.398438v-3.79687475h-82.453125c-1.21875-.03125005-2.441406.11718775-3.617188.44140575-1.585937.25-3.113281.789063-4.503906 1.589844-4.242187 2.203125-7.421875 6.019532-8.824218 10.59375v.085938c-.460938 1.609375-.695313 3.273437-.707032 4.945312v46.34375c-.042968 4.089844-1.472656 8.042969-4.0625 11.210938-5.984375 6.996094-10.355468 15.222656-12.800781 24.101562-.523437 2.167969-.7890625 4.386719-.79296875 6.617188.01171875 3.894531.45703175 7.773437 1.32421875 11.566406 4.449219 13.375 6.976563 27.316406 7.503906 41.402344 24.210938.542968 47.964844 6.707031 69.382813 18.007812 4.039062 2.289063 7.878906 4.917969 11.476562 7.855469.796875 18.980469 1.765625 43.875 2.738282 70.355469 2.292968 59.320312 4.675781 125.96875 4.675781 148.746094 0 44.136718-8.824219 70.621093-8.824219 88.273437 0 13.507813 46.253906 1.238281 79.886719 2.5625 1.0625.085937 2.03125.085937 3.003906.175781.617187 0 1.324219.089844 2.207031.175782 7.320313.246093 14.472656 2.277343 20.832032 5.914062 4.152343 2.628906 8.675781 4.625 13.417968 5.914062 12.890625 3.492188 26.195313 5.214844 39.546875 5.121094h17.65625c14.386719 0 39.722657-2.207031 52.964844-11.035156 26.484375-17.652344 105.929687 8.828125 105.929687-8.828125 0-17.652344-8.824218-44.136719-8.824218-88.273437 0-32.925782 4.941406-157.660157 7.414062-219.101563 31.691406-25.863281 80.859375-25.863281 80.859375-25.863281zm-264.828125 189.792968c0 2.4375-1.976562 4.414063-4.414062 4.414063h-79.445313c-2.4375 0-4.414062-1.976563-4.414062-4.414063v-26.484374c0-2.4375 1.976562-4.414063 4.414062-4.414063h17.652344c2.4375 0 4.414063-1.976563 4.414063-4.414063v-87.214843l-20.921876 5.5625c-1.332031.335937-2.75.039062-3.835937-.804688-1.085937-.847656-1.722656-2.144531-1.722656-3.523437v-24.894532c-.003907-1.710937 1-3.265624 2.558593-3.972656l46.433594-21.007812c2.730469-1.378906 5.980469-1.242188 8.589844.359375 2.609375 1.601562 4.199219 4.4375 4.210938 7.496093v128c0 2.4375 1.976562 4.414063 4.414062 4.414063h17.652344c2.4375 0 4.414062 1.976563 4.414062 4.414063zm132.414063-145.65625c0 4.875-3.953125 8.828126-8.828125 8.828126h-44.136719c-4.875 0-8.828125 3.953124-8.828125 8.828124v17.652344c0 4.875 3.953125 8.828125 8.828125 8.828125h35.308594c9.742187.03125 17.628906 7.917969 17.65625 17.65625v70.621094c-.027344 9.738281-7.914063 17.625-17.65625 17.65625h-70.617188c-4.875 0-8.828125-3.953125-8.828125-8.828125v-17.65625c0-4.875 3.953125-8.828125 8.828125-8.828125h44.136719c4.875 0 8.828125-3.953125 8.828125-8.828125v-17.652344c0-4.878906-3.953125-8.828125-8.828125-8.828125h-35.3125c-9.738281-.03125-17.625-7.917969-17.652344-17.65625v-70.621093c.027344-9.738282 7.914063-17.625 17.652344-17.65625h70.621094c4.875 0 8.828125 3.953124 8.828125 8.828124zm0 0" fill="#c03a2b"/><path d="m397.246094.00390625c-12.359375 11.38671875-25.601563 27.62890575-38.84375 39.19531275-58.089844 53.667969-147.679688 53.667969-205.769532 0-11.828124-10.328125-23.65625-24.453125-34.867187-35.398438v-3.79687475h33.011719c4.855468-.05078125 9.515625 1.89453175 12.890625 5.38671875 8.03125 6.089844 16.683593 14.917969 25.246093 21.097656 32.664063 23.570313 101.515626 23.570313 134.179688 0 8.5625-6.179687 17.214844-15.007812 25.246094-21.097656 3.375-3.492187 8.035156-5.4375 12.890625-5.38671875zm0 0" fill="#bdc3c7"/><g fill="#902c20"><path d="m97.105469 150.515625c-.085938.96875-2.382813 51.289063-4.675781 104.605469-.972657-26.480469-1.941407-51.375-2.738282-70.355469-3.597656-2.9375-7.4375-5.566406-11.476562-7.855469.707031-15.273437 1.148437-25.511718 1.238281-27.277344.15625-3.15625 1.984375-5.984374 4.796875-7.425781 2.808594-1.441406 6.171875-1.269531 8.824219.441407 2.652343 1.714843 4.191406 4.710937 4.03125 7.867187zm0 0"/><path d="m123.324219 81.570312c-1.171875 4.726563-5.953125 7.609376-10.679688 6.445313-48.730469-12.183594-79.714843-50.40625-94.277343-75.300781v-.085938c1.402343-4.574218 4.582031-8.390625 8.824218-10.59375 1.390625-.800781 2.917969-1.339844 4.503906-1.589844 11.652344 21.1875 39.988282 59.144532 85.1875 70.445313 4.726563 1.171875 7.609376 5.953125 6.441407 10.679687zm0 0"/><path d="m82.628906 118.734375c-10.28125 3.484375-21.101562 5.128906-31.953125 4.855469-16.621093-.265625-33.164062-2.304688-49.347656-6.089844-.867187-3.792969-1.3125-7.671875-1.32421875-11.566406.00390625-2.230469.26953175-4.449219.79296875-6.617188 19.070313 4.589844 55.4375 10.589844 75.476563 2.910156 2.1875-.855468 4.628906-.792968 6.769531.167969 2.144531.964844 3.808593 2.75 4.617187 4.953125 1.742188 4.535156-.507812 9.621094-5.03125 11.386719zm0 0"/><path d="m414.902344 150.515625c.085937.96875 2.382812 51.289063 4.675781 104.605469.972656-26.480469 1.941406-51.375 2.738281-70.355469 3.597656-2.9375 7.4375-5.566406 11.476563-7.855469-.707031-15.273437-1.148438-25.511718-1.238281-27.277344-.15625-3.15625-1.984376-5.984374-4.796876-7.425781-2.808593-1.441406-6.171874-1.269531-8.824218.441407-2.652344 1.714843-4.191406 4.710937-4.03125 7.867187zm0 0"/><path d="m388.683594 81.570312c1.171875 4.726563 5.953125 7.609376 10.679687 6.445313 48.730469-12.183594 79.714844-50.40625 94.28125-75.300781v-.085938c-1.40625-4.574218-4.585937-8.390625-8.828125-10.59375-1.390625-.800781-2.917968-1.339844-4.503906-1.589844-11.652344 21.1875-39.988281 59.144532-85.1875 70.445313-4.726562 1.171875-7.609375 5.953125-6.441406 10.679687zm0 0"/><path d="m429.378906 118.734375c10.28125 3.484375 21.101563 5.128906 31.953125 4.855469 16.621094-.265625 33.164063-2.304688 49.347657-6.089844.867187-3.792969 1.3125-7.671875 1.324218-11.566406-.003906-2.230469-.269531-4.449219-.792968-6.617188-19.070313 4.589844-55.4375 10.589844-75.476563 2.910156-2.1875-.855468-4.628906-.792968-6.769531.167969-2.144532.964844-3.808594 2.75-4.617188 4.953125-1.742187 4.535156.507813 9.621094 5.03125 11.386719zm0 0"/></g><path d="m308.96875 220.695312v17.652344c0 4.875 3.953125 8.828125 8.828125 8.828125h35.308594c9.742187.03125 17.628906 7.917969 17.65625 17.65625v70.621094c-.027344 9.738281-7.914063 17.625-17.65625 17.65625h-70.617188c-4.875 0-8.828125-3.953125-8.828125-8.828125v-17.65625c0-4.875 3.953125-8.828125 8.828125-8.828125h44.136719c4.875 0 8.828125-3.953125 8.828125-8.828125v-17.652344c0-4.878906-3.953125-8.828125-8.828125-8.828125h-35.3125c-9.738281-.03125-17.625-7.917969-17.652344-17.65625v-70.621093c.027344-9.738282 7.914063-17.625 17.652344-17.65625h70.621094c4.875 0 8.828125 3.953124 8.828125 8.828124v17.65625c0 4.875-3.953125 8.828126-8.828125 8.828126h-44.136719c-4.875 0-8.828125 3.953124-8.828125 8.828124zm0 0" fill="#ecf0f1"/><path d="m238.347656 322.210938v26.484374c0 2.4375-1.976562 4.414063-4.414062 4.414063h-79.445313c-2.4375 0-4.414062-1.976563-4.414062-4.414063v-26.484374c0-2.4375 1.976562-4.414063 4.414062-4.414063h17.652344c2.4375 0 4.414063-1.976563 4.414063-4.414063v-87.214843l-20.921876 5.5625c-1.332031.335937-2.75.039062-3.835937-.804688-1.085937-.847656-1.722656-2.144531-1.722656-3.523437v-24.894532c-.003907-1.710937 1-3.265624 2.558593-3.972656l46.433594-21.007812c2.730469-1.378906 5.980469-1.242188 8.589844.359375 2.609375 1.601562 4.199219 4.4375 4.210938 7.496093v128c0 2.4375 1.976562 4.414063 4.414062 4.414063h17.652344c2.4375 0 4.414062 1.976563 4.414062 4.414063zm0 0" fill="#ecf0f1"/></svg>