<svg height="512pt" viewBox="0 0 512 512" width="512pt" xmlns="http://www.w3.org/2000/svg"><path d="m256 110.078125v-48.285156c0-34.128907-27.664062-61.792969-61.792969-61.792969-34.128906 0-61.792969 27.664062-61.792969 61.792969v48.285156c-76.976562 10.507813-132.414062 40.253906-132.414062 75.300781v79.449219c0 38.929687 68.324219 71.238281 158.542969 78.125 35.132812-20.570313 93.308593-33.988281 159.25-33.988281 12.183593 0 24.097656.441406 35.664062 1.324218 22.070313-12.886718 34.957031-28.601562 34.957031-45.460937v-79.449219c0-35.046875-55.4375-64.792968-132.414062-75.300781zm0 0" fill="#d75e72"/><path d="m388.414062 185.378906v79.449219c0 16.859375-12.886718 32.574219-34.957031 45.460937-11.566406-.882812-23.480469-1.324218-35.664062-1.324218-65.941407 0-124.117188 13.417968-159.25 33.988281-90.21875-6.886719-158.542969-39.195313-158.542969-78.125v-79.449219c0 43.875 86.953125 79.449219 194.207031 79.449219 107.253907 0 194.207031-35.574219 194.207031-79.449219zm0 0" fill="#802d40"/><path d="m256 61.792969v150.070312c0 9.710938-27.628906 17.652344-61.792969 17.652344-34.164062 0-61.792969-7.941406-61.792969-17.652344v-150.070312c0-34.128907 27.664063-61.792969 61.792969-61.792969 34.128907 0 61.792969 27.664062 61.792969 61.792969zm0 0" fill="#802d40"/><path d="m52.964844 209.152344c-2.03125 0-4.003906-.703125-5.578125-1.988282-7.183594-4.996093-11.644531-13.042968-12.078125-21.785156 0-17.859375 20.632812-32.46875 59.660156-42.214844 3.105469-.902343 6.457031-.035156 8.734375 2.261719 2.28125 2.296875 3.117187 5.65625 2.1875 8.757813-.933594 3.097656-3.484375 5.4375-6.652344 6.097656-36.5625 9.15625-46.273437 20.417969-46.273437 25.097656 0 3.089844 3.53125 6.410156 5.589844 8.113282 2.886718 2.363281 3.976562 6.285156 2.722656 9.800781-1.253906 3.511719-4.582032 5.859375-8.3125 5.859375zm0 0" fill="#f5efca"/><path d="m291.308594 227.859375c-4.453125-.011719-8.203125-3.335937-8.742188-7.757813-.539062-4.421874 2.296875-8.550781 6.617188-9.632812 36.554687-9.148438 46.265625-20.410156 46.265625-25.089844 0-2.902344-3.125-6.664062-8.582031-10.328125-4.046876-2.71875-5.121094-8.207031-2.402344-12.253906 2.722656-4.046875 8.207031-5.121094 12.253906-2.398437 9.394531 4.957031 15.578125 14.390624 16.382812 24.980468 0 17.859375-20.628906 32.46875-59.65625 42.207032-.695312.179687-1.414062.269531-2.136718.273437zm0 0" fill="#f5efca"/><path d="m353.457031 310.289062c-11.566406-.882812-23.480469-1.324218-35.664062-1.324218-65.941407 0-124.117188 13.417968-159.25 33.988281-22.070313 12.886719-34.957031 28.601563-34.957031 45.460937v44.136719c0 43.875 86.953124 79.449219 194.207031 79.449219 107.253906 0 194.207031-35.574219 194.207031-79.449219v-44.136719c0-38.929687-68.324219-71.238281-158.542969-78.125zm0 0" fill="#464f5d"/><path d="m467.863281 388.414062c0-24.378906-67.1875-44.136718-150.070312-44.136718-82.878907 0-150.070313 19.757812-150.070313 44.136718 0 24.375 67.191406 44.136719 150.070313 44.136719 82.882812 0 150.070312-19.761719 150.070312-44.136719zm0 0" fill="#556080"/><path d="m238.34375 401.515625c-.65625 0-1.308594-.070313-1.949219-.214844-4.707031-1.058593-15.714843-3.53125-15.714843-12.886719 0-6.488281 0-15.386718 61.511718-17.371093h.292969c4.875-.078125 8.886719 3.8125 8.960937 8.6875.078126 4.875-3.8125 8.890625-8.6875 8.964843-11.933593.277344-23.84375 1.222657-35.671874 2.824219.144531 1.042969.097656 2.101563-.132813 3.125-.917969 4.019531-4.488281 6.871094-8.609375 6.871094zm0 0" fill="#90bae1"/><path d="m353.101562 406.070312c-4.875.074219-8.886718-3.816406-8.960937-8.691406-.078125-4.875 3.8125-8.890625 8.6875-8.964844 11.933594-.28125 23.84375-1.222656 35.675781-2.816406-.394531-2.867187.644532-5.746094 2.777344-7.703125 2.132812-1.953125 5.089844-2.742187 7.910156-2.105469 4.707032 1.0625 15.714844 3.53125 15.714844 12.890626 0 6.496093 0 15.386718-61.511719 17.371093zm0 0" fill="#90bae1"/><path d="m512 388.414062v44.136719c0 43.875-86.953125 79.449219-194.207031 79.449219-107.253907 0-194.207031-35.574219-194.207031-79.449219v-44.136719c0 43.871094 86.953124 79.449219 194.207031 79.449219 107.253906 0 194.207031-35.578125 194.207031-79.449219zm0 0" fill="#2c3e50"/></svg>