<svg height="512pt" viewBox="-40 0 512 512" width="512pt" xmlns="http://www.w3.org/2000/svg" xmlns:xlink="http://www.w3.org/1999/xlink"><linearGradient id="a"><stop offset="0" stop-color="#3b395f"/><stop offset=".0633" stop-color="#37355a"/><stop offset=".4033" stop-color="#232543"/><stop offset=".7232" stop-color="#171b35"/><stop offset="1" stop-color="#131830"/></linearGradient><linearGradient id="b" gradientUnits="userSpaceOnUse" x1="287.5622295676" x2="470.3526328162" xlink:href="#a" y1="327.0936495676" y2="509.8840528162"/><linearGradient id="c"><stop offset="0" stop-color="#fffcf8"/><stop offset=".1875" stop-color="#faf8f6"/><stop offset=".4041" stop-color="#eceef2"/><stop offset=".6353" stop-color="#d5dcea"/><stop offset=".875" stop-color="#b5c4df"/><stop offset="1" stop-color="#a1b5d8"/></linearGradient><linearGradient id="d" gradientUnits="userSpaceOnUse" x1="71.8764145372" x2="452.930971997" xlink:href="#c" y1="42.9770976824" y2="615.7877845962"/><linearGradient id="e" gradientUnits="userSpaceOnUse" x1="207.8609623798" x2="207.8609623798" y1="475.6564365404" y2="507.5369835724"><stop offset="0" stop-color="#a1b5d8" stop-opacity="0"/><stop offset=".2632" stop-color="#8ea0ba" stop-opacity=".262745"/><stop offset=".5306" stop-color="#808fa3" stop-opacity=".529412"/><stop offset=".7822" stop-color="#778595" stop-opacity=".780392"/><stop offset="1" stop-color="#748290"/></linearGradient><linearGradient id="f" gradientUnits="userSpaceOnUse" x1="428.9972707326" x2="354.357878661" y1="508.0604285032" y2="433.4210364316"><stop offset="0" stop-color="#3b395f" stop-opacity="0"/><stop offset=".0633" stop-color="#37355a" stop-opacity=".062745"/><stop offset=".4033" stop-color="#232543" stop-opacity=".403922"/><stop offset=".7232" stop-color="#171b35" stop-opacity=".721569"/><stop offset="1" stop-color="#131830"/></linearGradient><linearGradient id="g" gradientUnits="userSpaceOnUse" x1="340.3011636014" x2="393.6179551384" xlink:href="#c" y1="406.117068621" y2="486.2642779612"/><linearGradient id="h" gradientUnits="userSpaceOnUse" x1="113.264504478" x2="373.8169991792" xlink:href="#c" y1="-8.8663379274" y2="382.8026868384"/><linearGradient id="i" gradientUnits="userSpaceOnUse" x1="82.3475217816" x2="333.3741018014" xlink:href="#a" y1="132.7289291888" y2="132.7289291888"/><linearGradient id="j"><stop offset="0" stop-color="#a1b5d8" stop-opacity="0"/><stop offset="1" stop-color="#748290"/></linearGradient><linearGradient id="k" gradientUnits="userSpaceOnUse" x1="190.3266615122" x2="127.0276727448" xlink:href="#j" y1="158.1270514746" y2="94.8280627072"/><linearGradient id="l" gradientUnits="userSpaceOnUse" x1="118.9144771018" x2="55.6154883344" xlink:href="#j" y1="229.539235885" y2="166.2402471176"/><linearGradient id="m"><stop offset="0" stop-color="#00e7b2"/><stop offset=".2459" stop-color="#05e5b1"/><stop offset=".5301" stop-color="#13ddac"/><stop offset=".8322" stop-color="#2ad1a5"/><stop offset="1" stop-color="#3ac9a0"/></linearGradient><linearGradient id="n" gradientUnits="userSpaceOnUse" x1="72.5708273846" x2="95.5249015614" xlink:href="#m" y1="180.399261829" y2="207.604042146"/><linearGradient id="o" gradientUnits="userSpaceOnUse" x1="143.9831121872" x2="166.9370859718" xlink:href="#m" y1="108.9870774186" y2="136.1917573434"/><linearGradient id="p" gradientUnits="userSpaceOnUse" x1="244.0453230258" x2="180.7463342584" xlink:href="#j" y1="212.2706731708" y2="148.9716844034"/><linearGradient id="q" gradientUnits="userSpaceOnUse" x1="197.7016733086" x2="220.6557474854" xlink:href="#m" y1="163.1306991148" y2="190.3354794318"/><linearGradient id="r" gradientUnits="userSpaceOnUse" x1="358.8980155138" x2="295.5990267464" xlink:href="#j" y1="99.888733117" y2="36.5897443496"/><linearGradient id="s" gradientUnits="userSpaceOnUse" x1="312.5543657966" x2="335.5084399734" xlink:href="#m" y1="50.748759061" y2="77.953539378"/><path d="m402.949219 512h-355.746094c-16.5625 0-29.988281-13.425781-29.988281-29.988281v-434.808594c0-16.558594 13.425781-29.988281 29.988281-29.988281h355.746094c16.5625 0 29.988281 13.429687 29.988281 29.988281v434.808594c0 16.5625-13.425781 29.988281-29.988281 29.988281zm0 0" fill="url(#b)"/><path d="m385.734375 494.785156h-355.746094c-16.5625 0-29.988281-13.425781-29.988281-29.988281v-434.808594c0-16.5625 13.425781-29.988281 29.988281-29.988281h355.746094c16.5625 0 29.988281 13.425781 29.988281 29.988281v434.808594c0 16.5625-13.425781 29.988281-29.988281 29.988281zm0 0" fill="url(#d)"/><path d="m0 462.902344v1.894531c0 16.5625 13.425781 29.988281 29.988281 29.988281h355.746094c16.558594 0 29.988281-13.425781 29.988281-29.988281v-1.894531zm0 0" fill="url(#e)"/><path d="m415.722656 397.429688v67.617187c0 16.425781-13.316406 29.738281-29.738281 29.738281h-67.617187v-67.617187c0-16.425781 13.3125-29.738281 29.738281-29.738281zm0 0" fill="url(#f)"/><path d="m347.519531 396.59375c-16.5625 0-29.988281 13.425781-29.988281 29.988281v68.203125c54.230469 0 98.191406-43.960937 98.191406-98.191406zm0 0" fill="url(#g)"/><path d="m385.734375 0h-355.746094c-16.5625 0-29.988281 13.425781-29.988281 29.988281v215.757813h415.722656v-215.757813c0-16.5625-13.429687-29.988281-29.988281-29.988281zm0 0" fill="url(#h)"/><g fill="#a1b5d8"><path d="m70.136719 279.394531h275.445312v15.058594h-275.445312zm0 0"/><path d="m70.136719 338.691406h275.445312v15.058594h-275.445312zm0 0"/><path d="m70.136719 397.988281h219.339843v15.058594h-219.339843zm0 0"/></g><path d="m92.996094 203.621094-10.648438-10.648438 76.734375-76.738281 54.625 54.621094 109.019531-109.019531 10.648438 10.648437-119.667969 119.667969-54.625-54.621094zm0 0" fill="url(#i)"/><path d="m171.691406 115.1875c-3.144531-3.386719-7.621094-5.519531-12.605468-5.519531-9.507813 0-17.214844 7.707031-17.214844 17.214843 0 4.984376 2.128906 9.460938 5.515625 12.605469l45.425781 45.425781c3.144531 3.386719 7.621094 5.519532 12.605469 5.519532 9.507812 0 17.214843-7.707032 17.214843-17.214844 0-4.988281-2.132812-9.464844-5.519531-12.605469zm0 0" fill="url(#k)"/><path d="m100.277344 186.597656c-3.144532-3.386718-7.621094-5.515625-12.605469-5.515625-9.507813 0-17.214844 7.707031-17.214844 17.214844 0 4.984375 2.132813 9.460937 5.519531 12.605469l45.421876 45.425781c3.144531 3.382813 7.621093 5.515625 12.605468 5.515625 9.507813 0 17.21875-7.707031 17.21875-17.214844 0-4.984375-2.132812-9.460937-5.519531-12.605468zm0 0" fill="url(#l)"/><path d="m104.886719 198.296875c0 9.507813-7.707031 17.214844-17.214844 17.214844s-17.214844-7.707031-17.214844-17.214844 7.707031-17.214844 17.214844-17.214844 17.214844 7.707031 17.214844 17.214844zm0 0" fill="url(#n)"/><path d="m176.296875 126.882812c0 9.507813-7.707031 17.214844-17.214844 17.214844-9.507812 0-17.214843-7.707031-17.214843-17.214844 0-9.507812 7.707031-17.214843 17.214843-17.214843 9.507813 0 17.214844 7.707031 17.214844 17.214843zm0 0" fill="url(#o)"/><path d="m225.410156 169.332031c-3.144531-3.386719-7.621094-5.519531-12.605468-5.519531-9.507813 0-17.214844 7.707031-17.214844 17.214844 0 4.984375 2.128906 9.460937 5.515625 12.605468l45.425781 45.425782c3.144531 3.386718 7.621094 5.519531 12.605469 5.519531 9.507812 0 17.214843-7.707031 17.214843-17.21875 0-4.984375-2.132812-9.460937-5.519531-12.605469zm0 0" fill="url(#p)"/><path d="m230.015625 181.027344c0 9.507812-7.707031 17.214844-17.214844 17.214844-9.507812 0-17.214843-7.707032-17.214843-17.214844 0-9.507813 7.707031-17.214844 17.214843-17.214844 9.507813 0 17.214844 7.707031 17.214844 17.214844zm0 0" fill="url(#q)"/><path d="m340.261719 56.949219c-3.144531-3.386719-7.621094-5.519531-12.605469-5.519531-9.507812 0-17.214844 7.707031-17.214844 17.214843 0 4.984375 2.128906 9.460938 5.519532 12.605469l45.421874 45.425781c3.144532 3.386719 7.621094 5.519531 12.605469 5.519531 9.507813 0 17.21875-7.707031 17.21875-17.214843 0-4.988281-2.132812-9.464844-5.519531-12.609375zm0 0" fill="url(#r)"/><path d="m344.871094 68.644531c0 9.507813-7.707032 17.21875-17.214844 17.21875s-17.214844-7.710937-17.214844-17.21875c0-9.507812 7.707032-17.214843 17.214844-17.214843s17.214844 7.707031 17.214844 17.214843zm0 0" fill="url(#s)"/></svg>