<svg height="512pt" viewBox="0 0 512 512" width="512pt" xmlns="http://www.w3.org/2000/svg" xmlns:xlink="http://www.w3.org/1999/xlink"><linearGradient id="a" gradientUnits="userSpaceOnUse" x1="168.2550181794" x2="513.9494349552" y1="168.2550181794" y2="513.9494349552"><stop offset="0" stop-color="#3b395f"/><stop offset=".0633" stop-color="#37355a"/><stop offset=".4033" stop-color="#232543"/><stop offset=".7232" stop-color="#171b35"/><stop offset="1" stop-color="#131830"/></linearGradient><linearGradient id="b"><stop offset="0" stop-color="#131830" stop-opacity="0"/><stop offset="1" stop-color="#131830"/></linearGradient><linearGradient id="c" gradientUnits="userSpaceOnUse" x1="256.00011" x2="256.00011" xlink:href="#b" y1="458.3110737932" y2="529.3574290268"/><linearGradient id="d" gradientUnits="userSpaceOnUse" x1="250.6094504288" x2="184.6665326822" xlink:href="#b" y1="121.5339941824" y2="55.5910764358"/><linearGradient id="e" gradientUnits="userSpaceOnUse" x1="314.4704347318" x2="209.9279207916" xlink:href="#b" y1="173.0418186676" y2="68.4993047274"/><linearGradient id="f" gradientUnits="userSpaceOnUse" x1="363.6484574316" x2="260.3904616904" xlink:href="#b" y1="211.7874855122" y2="108.529489771"/><linearGradient id="g" gradientUnits="userSpaceOnUse" x1="182.4220642668" x2="72.7325426248" xlink:href="#b" y1="377.1967863904" y2="285.3997649856"/><linearGradient id="h" gradientUnits="userSpaceOnUse" x1="458.0142140578" x2="362.327496864" xlink:href="#b" y1="331.6889017382" y2="294.931201238"/><linearGradient id="i" gradientUnits="userSpaceOnUse" x1="369.5556348718" x2="260.8396163932" xlink:href="#b" y1="378.653276428" y2="287.6709377262"/><linearGradient id="j" gradientUnits="userSpaceOnUse" x1="270.4377130664" x2="178.2919291588" xlink:href="#b" y1="403.4425200208" y2="326.3275566894"/><linearGradient id="k" gradientUnits="userSpaceOnUse" x1="115.4121782186" x2="115.4121782186" y1="267.7292319026" y2="384.6964852992"><stop offset="0" stop-color="#00e7b2"/><stop offset=".2459" stop-color="#05e5b1"/><stop offset=".5301" stop-color="#13ddac"/><stop offset=".8322" stop-color="#2ad1a5"/><stop offset="1" stop-color="#3ac9a0"/></linearGradient><linearGradient id="l" gradientUnits="userSpaceOnUse" x1="209.1374326088" x2="209.1374326088" y1="317.4966572086" y2="389.05491227"><stop offset="0" stop-color="#ffc738"/><stop offset=".4286" stop-color="#ffbb23"/><stop offset="1" stop-color="#ffa700"/></linearGradient><linearGradient id="m" gradientUnits="userSpaceOnUse" x1="302.862686999" x2="302.862686999" y1="270.4910213246" y2="384.938330109"><stop offset="0" stop-color="#ff4974"/><stop offset=".3262" stop-color="#fe4672"/><stop offset=".5324" stop-color="#fb3e6c"/><stop offset=".7054" stop-color="#f52f60"/><stop offset=".8591" stop-color="#ee1a51"/><stop offset="1" stop-color="#e4003d"/></linearGradient><linearGradient id="n"><stop offset="0" stop-color="#fffcf8"/><stop offset=".1875" stop-color="#faf8f6"/><stop offset=".4041" stop-color="#eceef2"/><stop offset=".6353" stop-color="#d5dcea"/><stop offset=".875" stop-color="#b5c4df"/><stop offset="1" stop-color="#a1b5d8"/></linearGradient><linearGradient id="o" gradientUnits="userSpaceOnUse" x1="396.5879413892" x2="396.5879413892" xlink:href="#n" y1="224.0936617804" y2="380.8750562062"/><linearGradient id="p" gradientUnits="userSpaceOnUse" x1="255.9998088234" x2="255.9998088234" xlink:href="#n" y1="430.2653080168" y2="439.6005779104"/><linearGradient id="q" gradientUnits="userSpaceOnUse" x1="105.6299622506" x2="42.6374708698" xlink:href="#b" y1="476.5264353456" y2="413.5339439648"/><linearGradient id="r" gradientUnits="userSpaceOnUse" x1="482.5530795038" x2="449.6316661422" xlink:href="#b" y1="469.519762531" y2="436.5984495616"/><linearGradient id="s"><stop offset="0" stop-color="#fffcf8"/><stop offset=".2239" stop-color="#fbf9f7"/><stop offset=".4254" stop-color="#f0f1f3"/><stop offset=".6183" stop-color="#dee3ed"/><stop offset=".8059" stop-color="#c4d0e4"/><stop offset=".9882" stop-color="#a3b7d9"/><stop offset="1" stop-color="#a1b5d8"/></linearGradient><radialGradient id="t" cx="48.0394747596" cy="411.2650802448" gradientUnits="userSpaceOnUse" r="38.4344510246" xlink:href="#s"/><radialGradient id="u" cx="431.9673573756" cy="411.2650802448" gradientUnits="userSpaceOnUse" r="38.4344510246" xlink:href="#s"/><path d="m450.105469 512h-388.210938c-34.183593 0-61.894531-27.710938-61.894531-61.894531v-388.210938c0-34.183593 27.710938-61.894531 61.894531-61.894531h388.210938c34.183593 0 61.894531 27.710938 61.894531 61.894531v388.210938c0 34.183593-27.710938 61.894531-61.894531 61.894531zm0 0" fill="url(#a)"/><path d="m0 421.261719v28.84375c0 34.183593 27.710938 61.894531 61.894531 61.894531h388.210938c34.183593 0 61.894531-27.710938 61.894531-61.894531v-28.84375zm0 0" fill="url(#c)"/><path d="m378.542969 191.210938-149.582031-149.550782c-5.386719-4.308594-12.519532-6.464844-21.402344-6.464844-19.507813 0-29.261719 8.984376-29.261719 26.960938v32.4375c0 9.734375 2.882813 16.804688 8.601563 21.269531l108.359374 108.085938c30.269532-5.3125 58.453126-16.652344 83.285157-32.738281zm0 0" fill="url(#d)"/><path d="m424.488281 151.804688-122.476562-122.746094c-1.917969-1.605469-4.050781-2.414063-6.40625-2.414063-3.203125 0-5.390625 1.316407-6.554688 3.945313l-80.175781 161.058594c-.582031 1.023437-.875 2.117187-.875 3.285156 0 2.046875.808594 3.910156 2.429688 5.589844l25.976562 25.980468c6.460938.554688 12.992188.855469 19.59375.855469 66.992188 0 127.15625-29.199219 168.488281-75.554687zm0 0" fill="url(#e)"/><path d="m325.625 115.527344c-5.386719-4.308594-12.523438-6.464844-21.402344-6.464844-19.507812 0-29.261718 8.988281-29.261718 26.960938v32.441406c0 9.730468 2.882812 16.804687 8.601562 21.265625l30.15625 30.15625c28.707031-7.578125 55.175781-20.664063 78.203125-38.070313zm0 0" fill="url(#f)"/><g fill="#fffcf8"><path d="m178.296875 94.59375v-32.4375c0-17.976562 9.753906-26.960938 29.261719-26.960938 8.882812 0 16.015625 2.15625 21.402344 6.464844 5.382812 4.3125 8.078124 11.144532 8.078124 20.496094v32.4375c0 9.355469-2.695312 16.1875-8.078124 20.496094-5.386719 4.3125-12.519532 6.464844-21.402344 6.464844-19.507813 0-29.261719-8.984376-29.261719-26.960938zm15.5625-.363281c0 8.425781 4.566406 12.640625 13.699219 12.640625 9.277344 0 13.917968-4.214844 13.917968-12.640625v-31.710938c0-8.421875-4.640624-12.640625-13.917968-12.640625-9.132813 0-13.699219 4.21875-13.699219 12.640625zm0 0"/><path d="m208 194.933594c0-1.167969.292969-2.261719.871094-3.285156l80.179687-161.058594c1.164063-2.628906 3.347657-3.945313 6.554688-3.945313 2.355469 0 4.488281.804688 6.402343 2.410157 1.914063 1.613281 2.875 3.582031 2.875 5.921874 0 1.167969-.21875 2.335938-.65625 3.503907l-80.179687 160.398437c-1.3125 2.777344-3.789063 4.167969-7.429687 4.167969-2.503907 0-4.566407-.84375-6.1875-2.523437-1.621094-1.679688-2.429688-3.542969-2.429688-5.589844zm0 0"/><path d="m325.625 115.582031c-5.386719-4.34375-12.519531-6.519531-21.402344-6.519531-19.507812 0-29.261718 9.054688-29.261718 27.167969v32.6875c0 18.109375 9.753906 27.164062 29.261718 27.164062 8.882813 0 16.015625-2.171875 21.402344-6.511719 5.382812-4.34375 8.078125-11.230468 8.078125-20.652343v-32.6875c0-9.425781-2.695313-16.308594-8.078125-20.648438zm-7.484375 53.027344c0 8.527344-4.640625 12.785156-13.917969 12.785156-9.136718 0-13.699218-4.257812-13.699218-12.785156v-32.074219c0-8.523437 4.566406-12.785156 13.699218-12.785156 9.277344 0 13.917969 4.261719 13.917969 12.785156zm0 0"/></g><path d="m153.347656 236.097656h-75.871094v159.824219l62.625 62.625h75.871094v-159.824219zm0 0" fill="url(#g)"/><path d="m434.523438 181.695312h-75.871094v214.226563l62.625 62.625h75.871094v-214.226563zm0 0" fill="url(#h)"/><path d="m340.800781 239.539062h-75.875v156.382813l62.625 62.625h75.871094v-156.382813zm0 0" fill="url(#i)"/><path d="m247.074219 298.144531h-75.875v97.777344l62.625 62.625h75.875v-97.777344zm0 0" fill="url(#j)"/><path d="m77.476562 236.097656h75.871094v159.824219h-75.871094zm0 0" fill="url(#k)"/><path d="m171.199219 298.144531h75.875v97.777344h-75.875zm0 0" fill="url(#l)"/><path d="m264.925781 239.539062h75.871094v156.382813h-75.871094zm0 0" fill="url(#m)"/><path d="m358.652344 181.695312h75.871094v214.226563h-75.871094zm0 0" fill="url(#o)"/><path d="m64.035156 430.265625h383.929688v9.335937h-383.929688zm0 0" fill="url(#p)"/><path d="m76.582031 423.292969c-3.128906-3.371094-7.585937-5.492188-12.546875-5.492188-9.460937 0-17.132812 7.667969-17.132812 17.132813 0 4.960937 2.125 9.414062 5.492187 12.542968l45.207031 45.203126c3.125 3.371093 7.582032 5.492187 12.542969 5.492187 9.460938 0 17.132813-7.667969 17.132813-17.128906 0-4.964844-2.121094-9.417969-5.492188-12.546875zm0 0" fill="url(#q)"/><path d="m508.234375 471.429688c-3.785156 10.292968-10.21875 19.308593-18.480469 26.195312-3.203125-.84375-6.042968-2.589844-8.222656-4.941406l-45.207031-45.207032c-3.371094-3.128906-5.492188-7.578124-5.492188-12.546874 0-5.582032 2.671875-10.53125 6.808594-13.664063 2.871094-2.179687 6.445313-3.464844 10.320313-3.464844s7.4375 1.285157 10.300781 3.464844c.8125.601563 1.554687 1.285156 2.246093 2.027344l45.207032 45.207031c.953125.875 1.796875 1.855469 2.519531 2.929688zm0 0" fill="url(#r)"/><path d="m81.167969 434.933594c0 9.460937-7.671875 17.132812-17.132813 17.132812-9.460937 0-17.132812-7.671875-17.132812-17.132812 0-9.460938 7.671875-17.132813 17.132812-17.132813 9.460938 0 17.132813 7.671875 17.132813 17.132813zm0 0" fill="url(#t)"/><path d="m465.097656 434.933594c0 9.460937-7.671875 17.132812-17.132812 17.132812-9.460938 0-17.132813-7.671875-17.132813-17.132812 0-9.460938 7.671875-17.132813 17.132813-17.132813 9.460937 0 17.132812 7.671875 17.132812 17.132813zm0 0" fill="url(#u)"/></svg>