<svg height="512pt" viewBox="-45 0 512 512" width="512pt" xmlns="http://www.w3.org/2000/svg" xmlns:xlink="http://www.w3.org/1999/xlink"><linearGradient id="a" gradientUnits="userSpaceOnUse" x1="114.4726268968" x2="395.1192227812" y1="227.426983997" y2="508.0735798814"><stop offset="0" stop-color="#ff4974"/><stop offset=".3262" stop-color="#fe4672"/><stop offset=".5324" stop-color="#fb3e6c"/><stop offset=".7054" stop-color="#f52f60"/><stop offset=".8591" stop-color="#ee1a51"/><stop offset="1" stop-color="#e4003d"/></linearGradient><linearGradient id="b"><stop offset="0" stop-color="#e4003d" stop-opacity="0"/><stop offset=".5838" stop-color="#bd294b" stop-opacity=".584314"/><stop offset="1" stop-color="#a64153"/></linearGradient><linearGradient id="c" gradientUnits="userSpaceOnUse" x1="213.9107998202" x2="197.7974501514" xlink:href="#b" y1="186.1555497926" y2="80.7987547182"/><linearGradient id="d" gradientUnits="userSpaceOnUse" x1="358.607985132" x2="304.5460826866" xlink:href="#b" y1="257.9373782834" y2="218.715952803"/><linearGradient id="e"><stop offset="0" stop-color="#ffa700"/><stop offset=".3227" stop-color="#fca300"/><stop offset=".6649" stop-color="#f39600"/><stop offset="1" stop-color="#e58200"/></linearGradient><radialGradient id="f" cx="202.4046489938" cy="165.4274718664" gradientUnits="userSpaceOnUse" r="178.4495449128" xlink:href="#e"/><linearGradient id="g"><stop offset="0" stop-color="#e58200" stop-opacity="0"/><stop offset=".0396" stop-color="#e27f04" stop-opacity=".039216"/><stop offset=".4671" stop-color="#c15d2f" stop-opacity=".466667"/><stop offset=".8016" stop-color="#ad4949" stop-opacity=".8"/><stop offset="1" stop-color="#a64153"/></linearGradient><linearGradient id="h" gradientUnits="userSpaceOnUse" x1="210.724251" x2="210.724251" xlink:href="#g" y1="144.2637921844" y2="450.4280774648"/><linearGradient id="i" gradientUnits="userSpaceOnUse" x1="210.724251" x2="210.724251" xlink:href="#g" y1="212.7936161406" y2="-96.5979771932"/><linearGradient id="j" gradientUnits="userSpaceOnUse" x1="210.724251" x2="210.724251" xlink:href="#g" y1="176.513079767" y2="275.4613387544"/><linearGradient id="k" gradientUnits="userSpaceOnUse" x1="210.724251" x2="210.724251" xlink:href="#g" y1="208.7623673496" y2="40.2684157342"/><linearGradient id="l"><stop offset="0" stop-color="#ffc738"/><stop offset=".2837" stop-color="#ffc534"/><stop offset=".5391" stop-color="#ffbf29"/><stop offset=".7827" stop-color="#ffb417"/><stop offset="1" stop-color="#ffa700"/></linearGradient><radialGradient id="m" cx="146.9761075298" cy="125.1158874862" gradientUnits="userSpaceOnUse" r="239.855538357" xlink:href="#l"/><radialGradient id="n" cx="197.119100056" cy="171.3329426392" gradientUnits="userSpaceOnUse" r="150.032629173"><stop offset="0" stop-color="#fffcf8"/><stop offset=".9485" stop-color="#fffcf8" stop-opacity=".05098"/><stop offset="1" stop-color="#fffcf8" stop-opacity="0"/></radialGradient><radialGradient id="o" cx="421.0923" cy="154.6974" gradientTransform="matrix(.920094 0 0 1.003922 -179.292562 0)" gradientUnits="userSpaceOnUse" r="194.8857" xlink:href="#e"/><radialGradient id="p" cx="162.3252717722" cy="128.3377743608" gradientUnits="userSpaceOnUse" r="182.7315734194" xlink:href="#l"/><linearGradient id="q" gradientUnits="userSpaceOnUse" x1="261.8817067072" x2="145.644003428" y1="204.926080211" y2="178.0502851334"><stop offset="0" stop-color="#ffa700" stop-opacity="0"/><stop offset=".0206" stop-color="#fea600" stop-opacity=".019608"/><stop offset=".6348" stop-color="#ec8c00" stop-opacity=".635294"/><stop offset="1" stop-color="#e58200"/></linearGradient><linearGradient id="r" gradientUnits="userSpaceOnUse" x1="187.8798051056" x2="229.973953389" xlink:href="#e" y1="171.3329426392" y2="171.3329426392"/><linearGradient id="s" gradientUnits="userSpaceOnUse" x1="465.9652955758" x2="359.363436437" xlink:href="#b" y1="372.1559936362" y2="363.8923100854"/><linearGradient id="t" gradientUnits="userSpaceOnUse" x1="132.7504323976" x2="364.5345382668" y1="296.4865775926" y2="528.270783854"><stop offset="0" stop-color="#ff4974"/><stop offset=".2115" stop-color="#fd4470"/><stop offset=".4685" stop-color="#f83565"/><stop offset=".748" stop-color="#ef1d52"/><stop offset="1" stop-color="#e4003d"/></linearGradient><linearGradient id="u" gradientTransform="matrix(0 -1.003922 -1.003922 0 466.724141 512)" gradientUnits="userSpaceOnUse" x1="166.6616" x2="166.6616" xlink:href="#b" y1="427.4486" y2="500.0146"/><linearGradient id="v" gradientUnits="userSpaceOnUse" x1="391.3365450774" x2="348.9349958776" xlink:href="#b" y1="472.7464682312" y2="342.7150774564"/><linearGradient id="w" gradientUnits="userSpaceOnUse" x1="341.6876829596" x2="380.4808353148" y1="326.1575926948" y2="409.9016537766"><stop offset="0" stop-color="#fffcf8"/><stop offset=".1875" stop-color="#faf8f6"/><stop offset=".4041" stop-color="#eceef2"/><stop offset=".6353" stop-color="#d5dcea"/><stop offset=".875" stop-color="#b5c4df"/><stop offset="1" stop-color="#a1b5d8"/></linearGradient><linearGradient id="x"><stop offset="0" stop-color="#a1b5d8" stop-opacity="0"/><stop offset=".0343" stop-color="#9fb3d5" stop-opacity=".035294"/><stop offset=".4515" stop-color="#8898af" stop-opacity=".45098"/><stop offset=".788" stop-color="#798898" stop-opacity=".788235"/><stop offset="1" stop-color="#748290"/></linearGradient><linearGradient id="y" gradientUnits="userSpaceOnUse" x1="354.3595880124" x2="296.9041280304" xlink:href="#x" y1="404.0528042046" y2="346.5973442226"/><radialGradient id="z" cx="293.7449862808" cy="333.2431737786" gradientUnits="userSpaceOnUse" r="51.0824627338"><stop offset="0" stop-color="#00e7b2"/><stop offset=".3524" stop-color="#03e6b1"/><stop offset=".5753" stop-color="#0be1af"/><stop offset=".7622" stop-color="#1adaaa"/><stop offset=".9283" stop-color="#2fcfa4"/><stop offset="1" stop-color="#3ac9a0"/></radialGradient><linearGradient id="A" gradientUnits="userSpaceOnUse" x1="394.1109839166" x2="430.1679468608" xlink:href="#x" y1="346.0400671204" y2="346.0400671204"/><linearGradient id="B" gradientUnits="userSpaceOnUse" x1="210.724251" x2="210.724251" xlink:href="#b" y1="482.3190652856" y2="519.4810451752"/><path d="m421.449219 177.375v282.710938c0 28.667968-23.242188 51.910156-51.914063 51.910156h-327.515625c-23.207031 0-42.019531-18.808594-42.019531-42.015625v-292.601563c0-23.207031 18.8125-42.019531 42.019531-42.019531h337.410157c23.207031 0 42.019531 18.8125 42.019531 42.015625zm0 0" fill="url(#a)"/><path d="m381.28125 207.648438h-336.5c-15.046875 0-27.242188-12.195313-27.242188-27.242188s12.195313-27.242188 27.242188-27.242188h336.5c15.046875 0 27.242188 12.195313 27.242188 27.242188s-12.195313 27.242188-27.242188 27.242188zm0 0" fill="url(#c)"/><path d="m379.429688 135.359375h-40.617188v255.796875h30.722656c28.667969 0 51.914063-23.246094 51.914063-51.914062v-161.867188c0-23.203125-18.8125-42.015625-42.019531-42.015625zm0 0" fill="url(#d)"/><path d="m382.058594 171.332031c0 94.625-76.710938 171.335938-171.335938 171.335938s-171.332031-76.710938-171.332031-171.335938 76.707031-171.332031 171.332031-171.332031 171.335938 76.707031 171.335938 171.332031zm0 0" fill="url(#f)"/><path d="m39.390625 171.332031c0 61.152344 32.042969 114.8125 80.25 145.128907h182.167969c48.203125-30.316407 80.246094-83.976563 80.246094-145.128907 0-61.152343-32.042969-114.808593-80.246094-145.128906h-182.167969c-48.207031 30.320313-80.25 83.976563-80.25 145.128906zm0 0" fill="url(#h)"/><path d="m39.390625 171.332031c0 43.625 16.3125 83.433594 43.160156 113.679688h256.347657c26.84375-30.246094 43.160156-70.054688 43.160156-113.679688s-16.3125-83.433593-43.160156-113.679687h-256.347657c-26.847656 30.246094-43.160156 70.054687-43.160156 113.679687zm0 0" fill="url(#i)"/><path d="m39.390625 171.332031c0 25.496094 5.578125 49.6875 15.566406 71.433594h311.535157c9.988281-21.746094 15.566406-45.9375 15.566406-71.433594 0-25.496093-5.578125-49.6875-15.566406-71.429687h-311.535157c-9.988281 21.742187-15.566406 45.933594-15.566406 71.429687zm0 0" fill="url(#j)"/><path d="m39.390625 171.332031c0 14.757813 1.871094 29.078125 5.382813 42.742188h331.902343c3.511719-13.664063 5.382813-27.980469 5.382813-42.742188 0-14.757812-1.871094-29.078125-5.382813-42.738281h-331.902343c-3.511719 13.660156-5.382813 27.980469-5.382813 42.738281zm0 0" fill="url(#k)"/><path d="m197.117188.535156c-88.261719 6.9375-157.726563 80.753906-157.726563 170.796875 0 90.046875 69.464844 163.863281 157.726563 170.796875 88.265624-6.933594 157.730468-80.75 157.730468-170.796875 0-90.042969-69.464844-163.859375-157.730468-170.796875zm0 0" fill="url(#m)"/><path d="m205.988281 16.21875c-5.882812-.800781-11.855469-.800781-17.738281 0-76.386719 10.390625-135.257812 75.875-135.257812 155.113281s58.871093 144.726563 135.257812 155.117188c5.882812.800781 11.855469.800781 17.738281 0 76.386719-10.390625 135.253907-75.878907 135.253907-155.117188s-58.867188-144.722656-135.253907-155.113281zm0 0" fill="url(#n)"/><path d="m310.996094 171.332031c0-69.039062-51.296875-125.003906-114.574219-125.003906-63.273437 0-114.570313 55.964844-114.570313 125.003906 0 69.039063 51.296876 125.007813 114.570313 125.007813 63.277344 0 114.574219-55.96875 114.574219-125.007813zm0 0" fill="url(#o)"/><path d="m227.878906 51.105469c-14.261718-4.433594-29.5-4.433594-43.761718 0-47.980469 14.914062-83.117188 63.089843-83.117188 120.226562 0 58.253907 36.523438 107.195313 85.945312 121.066407 12.449219 3.492187 25.65625 3.492187 38.101563 0 49.425781-13.871094 85.949219-62.8125 85.949219-121.066407 0-57.136719-35.136719-105.3125-83.117188-120.226562zm0 0" fill="url(#p)"/><path d="m309.6875 190.261719-75.84375-75.839844c-1.375-2.402344-4.238281-4.382813-8.585938-5.945313-4.464843-1.605468-9.222656-2.695312-14.265624-3.296874l-6.65625-5.9375c-.132813-.9375-.683594-1.789063-1.703126-2.542969-1.175781-.863281-2.441406-1.296875-3.800781-1.296875-1.480469 0-2.753906.433594-3.800781 1.296875-1.050781.867187-1.578125 1.855469-1.578125 2.96875v5.378906c-10.011719 1.109375-18.386719 4.449219-25.121094 10.011719-6.738281 5.5625-10.105469 13.714844-10.105469 24.453125 0 3.824219.429688 7.308593 1.296876 10.453125.863281 3.148437 2.285156 5.890625 4.265624 8.234375 1.976563 2.34375 3.863282 4.351562 5.65625 6.015625.09375.089844.199219.175781.296876.261718l23.714843 23.769532v31.015625c-5.480469-.367188-10.304687-1.785157-14.476562-4.253907-4.171875-2.464843-7.449219-4.777343-9.835938-6.9375-2.386719-2.160156-4.3125-3.238281-5.777343-3.238281-2.214844 0-4.179688 1.171875-5.898438 3.515625-1.722656 2.34375-2.582031 4.6875-2.582031 7.03125 0 3.839844 2.230469 7.625 6.667969 11.355469l65.171874 65.171875c43.144532-12.878906 76.128907-52.570312 82.960938-101.644531zm0 0" fill="url(#q)"/><path d="m154.890625 215.378906c0-2.34375.855469-4.6875 2.578125-7.03125 1.71875-2.34375 3.683594-3.515625 5.898438-3.515625 1.464843 0 3.390624 1.078125 5.78125 3.238281 2.382812 2.160157 5.664062 4.472657 9.832031 6.9375 4.175781 2.46875 8.996093 3.886719 14.476562 4.253907v-43.480469c-3.707031-1.359375-6.554687-2.4375-8.527343-3.242188-1.980469-.800781-4.609376-1.972656-7.882813-3.515624-3.273437-1.539063-5.808594-3.144532-7.601563-4.808594-1.792968-1.667969-3.679687-3.671875-5.65625-6.015625-1.976562-2.34375-3.398437-5.089844-4.265624-8.234375-.863282-3.144532-1.296876-6.632813-1.296876-10.457032 0-10.734374 3.367188-18.886718 10.105469-24.453124 6.738281-5.5625 15.113281-8.898438 25.125-10.011719v-5.375c0-1.113281.523438-2.101563 1.574219-2.96875 1.050781-.863281 2.320312-1.296875 3.804688-1.296875 1.355468 0 2.625.433594 3.800781 1.296875 1.171875.867187 1.761719 1.855469 1.761719 2.96875v5.003906c7.539062.25 14.492187 1.515625 20.859374 3.800781 6.367188 2.289063 9.550782 5.472656 9.550782 9.550782 0 2.226562-.75 4.542968-2.246094 6.953124-1.496094 2.410157-3.492188 3.613282-5.984375 3.613282-.984375 0-3.695313-1.046875-8.121094-3.152344-4.429687-2.097656-9.117187-3.335938-14.058593-3.707031v37.578125c4.917968 1.851562 9.003906 3.609375 12.261718 5.273437 3.253906 1.667969 6.699219 3.980469 10.328125 6.941407 3.625 2.960937 6.359375 6.691406 8.203125 11.191406 1.84375 4.503906 2.765625 9.78125 2.765625 15.824218 0 11.042969-3.011719 19.820313-9.035156 26.335938-6.023437 6.511719-14.199219 10.511719-24.523437 12v6.195312c0 1.09375-.589844 2.0625-1.761719 2.914063-1.175781.851563-2.445313 1.277344-3.800781 1.277344-1.484376 0-2.753907-.425781-3.804688-1.273438-1.050781-.851562-1.574219-1.824219-1.574219-2.914062v-5.640625c-10.753906-.125-19.871093-2.585938-27.351562-7.382813-7.480469-4.792969-11.214844-9.6875-11.214844-14.671875zm21.691406-77.71875c0 4.8125 1.5 8.484375 4.496094 11.011719s7.492187 4.902344 13.488281 7.121094v-33.707031c-11.988281 1.484374-17.984375 6.675781-17.984375 15.574218zm26.703125 81.234375c10.875-1.972656 16.316406-8.082031 16.316406-18.320312 0-5.425781-1.421874-9.683594-4.265624-12.765625-2.84375-3.082032-6.859376-5.734375-12.050782-7.957032zm0 0" fill="url(#r)"/><path d="m421.449219 258.273438v201.8125c0 28.667968-23.246094 51.914062-51.914063 51.914062h-30.726562v-297.328125h25.488281c9.4375 0 17.929687 3.992187 23.914063 10.363281zm0 0" fill="url(#s)"/><path d="m397.105469 247.480469v228.136719c0 20.089843-16.289063 36.378906-36.382813 36.378906h-324.339844c-20.089843 0-36.382812-16.28125-36.382812-36.378906v-298.242188c0 20.597656 16.699219 37.296875 37.308594 37.296875h326.988281c18.121094 0 32.808594 14.691406 32.808594 32.808594zm0 0" fill="url(#t)"/><path d="m128.296875 511.996094h-91.914063c-20.089843 0-36.37890575-16.285156-36.37890575-36.378906v-298.246094c0 20.601562 16.70312475 37.300781 37.30078175 37.300781h90.996093v297.324219zm0 0" fill="url(#u)"/><path d="m388.457031 322.253906h-95.171875c-11.179687 0-20.242187 9.0625-20.242187 20.242188v40.078125c0 6.355469 2.933593 12.019531 7.515625 15.730469l109.480468 109.480468c18.472657-7.953125 31.410157-26.3125 31.410157-47.699218v-170.820313c0 18.21875-14.773438 32.988281-32.992188 32.988281zm0 0" fill="url(#v)"/><path d="m388.457031 402.816406h-95.171875c-11.179687 0-20.242187-9.0625-20.242187-20.242187v-40.078125c0-11.179688 9.0625-20.242188 20.242187-20.242188h95.171875c18.21875 0 32.992188-14.769531 32.992188-32.988281v80.5625c0 18.21875-14.773438 32.988281-32.992188 32.988281zm0 0" fill="url(#w)"/><path d="m331.679688 349.226562c-4.160157-4.476562-10.082032-7.296874-16.675782-7.296874-12.574218 0-22.769531 10.195312-22.769531 22.769531 0 6.59375 2.820313 12.515625 7.300781 16.671875l21.445313 21.445312h64.285156zm0 0" fill="url(#y)"/><path d="m337.777344 364.699219c0 12.574219-10.195313 22.769531-22.773438 22.769531-12.574218 0-22.769531-10.195312-22.769531-22.769531s10.195313-22.769531 22.769531-22.769531c12.578125 0 22.773438 10.195312 22.773438 22.769531zm0 0" fill="url(#z)"/><path d="m388.457031 322.253906h-36.753906v80.5625h36.753906c18.21875 0 32.992188-14.769531 32.992188-32.988281v-80.5625c0 18.21875-14.773438 32.988281-32.992188 32.988281zm0 0" fill="url(#A)"/><path d="m0 433.714844v36.265625c0 23.203125 18.8125 42.015625 42.019531 42.015625h327.515625c28.671875 0 51.914063-23.242188 51.914063-51.910156v-26.371094zm0 0" fill="url(#B)"/></svg>