<svg height="511pt" viewBox="1 -12 511.99999 511" width="511pt" xmlns="http://www.w3.org/2000/svg" xmlns:xlink="http://www.w3.org/1999/xlink"><linearGradient id="a" gradientUnits="userSpaceOnUse" x1="72.7341489" x2="433.47344116" y1="237.5510883" y2="237.5510883"><stop offset="0" stop-color="#3b395f"/><stop offset=".0633" stop-color="#37355a"/><stop offset=".4033" stop-color="#232543"/><stop offset=".7232" stop-color="#171b35"/><stop offset="1" stop-color="#131830"/></linearGradient><radialGradient id="b" cx="362.1105493198" cy="36.8430867642" gradientUnits="userSpaceOnUse" r="180.0778060046"><stop offset="0" stop-color="#ff4974"/><stop offset=".4073" stop-color="#fe4772"/><stop offset=".5963" stop-color="#fb3f6d"/><stop offset=".7403" stop-color="#f73363"/><stop offset=".8615" stop-color="#f02055"/><stop offset=".9673" stop-color="#e70944"/><stop offset="1" stop-color="#e4003d"/></radialGradient><linearGradient id="c"><stop offset="0" stop-color="#e4003d" stop-opacity="0"/><stop offset=".5838" stop-color="#bd294b" stop-opacity=".584314"/><stop offset="1" stop-color="#a64153"/></linearGradient><linearGradient id="d" gradientUnits="userSpaceOnUse" x1="505.7549216302" x2="409.1565428682" xlink:href="#c" y1="175.1114567646" y2="78.5130780026"/><linearGradient id="e" gradientUnits="userSpaceOnUse" x1="444.5017251144" x2="415.0797830604" xlink:href="#c" y1="238.0772438202" y2="175.5557926418"/><linearGradient id="f"><stop offset="0" stop-color="#fffcf8"/><stop offset=".1875" stop-color="#faf8f6"/><stop offset=".4041" stop-color="#eceef2"/><stop offset=".6353" stop-color="#d5dcea"/><stop offset=".875" stop-color="#b5c4df"/><stop offset="1" stop-color="#a1b5d8"/></linearGradient><linearGradient id="g" gradientUnits="userSpaceOnUse" x1="402.3419203322" x2="402.3419203322" xlink:href="#f" y1="52.0892486094" y2="125.9012081686"/><linearGradient id="h" gradientUnits="userSpaceOnUse" x1="402.3419203322" x2="402.3419203322" xlink:href="#f" y1="140.8721949936" y2="203.9632715148"/><linearGradient id="i"><stop offset="0" stop-color="#a1b5d8" stop-opacity="0"/><stop offset=".2564" stop-color="#98abca" stop-opacity=".254902"/><stop offset=".7358" stop-color="#8292a6" stop-opacity=".737255"/><stop offset="1" stop-color="#748290"/></linearGradient><linearGradient id="j" gradientUnits="userSpaceOnUse" x1="436.0140665654" x2="387.9302184534" xlink:href="#i" y1="167.0544807536" y2="149.992525187"/><linearGradient id="k"><stop offset="0" stop-color="#ffc738"/><stop offset=".4286" stop-color="#ffbb23"/><stop offset="1" stop-color="#ffa700"/></linearGradient><linearGradient id="l" gradientUnits="userSpaceOnUse" x1="398.72268113" x2="410.3673731924" xlink:href="#k" y1="161.1489095886" y2="161.1489095886"/><linearGradient id="m"><stop offset="0" stop-color="#ffa700" stop-opacity="0"/><stop offset=".0206" stop-color="#fea600" stop-opacity=".019608"/><stop offset=".6348" stop-color="#ec8c00" stop-opacity=".635294"/><stop offset="1" stop-color="#e58200"/></linearGradient><linearGradient id="n" gradientUnits="userSpaceOnUse" x1="414.1535646232" x2="396.486444875" xlink:href="#m" y1="147.5614276718" y2="129.8944083158"/><linearGradient id="o" gradientUnits="userSpaceOnUse" x1="400.5323509272" x2="406.2911486958" xlink:href="#k" y1="128.7372878186" y2="128.7372878186"/><radialGradient id="p" cx="69.4268282632" cy="87.8333894584" gradientUnits="userSpaceOnUse" r="180.0778060046"><stop offset="0" stop-color="#00e7b2"/><stop offset=".3524" stop-color="#03e6b1"/><stop offset=".5753" stop-color="#0be1af"/><stop offset=".7622" stop-color="#1adaaa"/><stop offset=".9283" stop-color="#2fcfa4"/><stop offset="1" stop-color="#3ac9a0"/></radialGradient><linearGradient id="q"><stop offset="0" stop-color="#3ac9a0" stop-opacity="0"/><stop offset=".0351" stop-color="#38c69d" stop-opacity=".035294"/><stop offset=".4167" stop-color="#23aa82" stop-opacity=".415686"/><stop offset=".7511" stop-color="#169971" stop-opacity=".752941"/><stop offset="1" stop-color="#11936b"/></linearGradient><linearGradient id="r" gradientUnits="userSpaceOnUse" x1="213.0712005736" x2="116.4728218116" xlink:href="#q" y1="226.101859851" y2="129.503481089"/><linearGradient id="s" gradientUnits="userSpaceOnUse" x1="151.8180040578" x2="122.3960620038" xlink:href="#q" y1="289.0676469066" y2="226.546095336"/><linearGradient id="t" gradientUnits="userSpaceOnUse" x1="109.6581992756" x2="109.6581992756" xlink:href="#f" y1="103.0795513036" y2="176.8915108628"/><linearGradient id="u" gradientUnits="userSpaceOnUse" x1="109.6581992756" x2="109.6581992756" xlink:href="#f" y1="191.86259808" y2="254.953574209"/><linearGradient id="v" gradientUnits="userSpaceOnUse" x1="143.3303455088" x2="95.2464973968" xlink:href="#i" y1="218.04488384" y2="200.9829282734"/><linearGradient id="w"><stop offset="0" stop-color="#ff4974"/><stop offset=".2115" stop-color="#fd4470"/><stop offset=".4685" stop-color="#f83565"/><stop offset=".748" stop-color="#ef1d52"/><stop offset="1" stop-color="#e4003d"/></linearGradient><linearGradient id="x" gradientUnits="userSpaceOnUse" x1="99.4742137232" x2="119.842184828" xlink:href="#w" y1="212.139312675" y2="212.139312675"/><linearGradient id="y" gradientUnits="userSpaceOnUse" x1="121.4697431744" x2="103.8027238184" xlink:href="#c" y1="198.5518307582" y2="180.88471101"/><linearGradient id="z" gradientUnits="userSpaceOnUse" x1="97.9173314856" x2="121.3960552996" xlink:href="#w" y1="179.727690905" y2="179.727690905"/><radialGradient id="A" cx="268.7824464728" cy="305.3818813676" gradientUnits="userSpaceOnUse" r="180.0778060046"><stop offset="0" stop-color="#ffc738"/><stop offset=".4873" stop-color="#ffc636"/><stop offset=".6746" stop-color="#ffc22f"/><stop offset=".8103" stop-color="#ffbb23"/><stop offset=".9203" stop-color="#ffb112"/><stop offset="1" stop-color="#ffa700"/></radialGradient><linearGradient id="B" gradientUnits="userSpaceOnUse" x1="412.426718391" x2="315.828339629" xlink:href="#m" y1="443.650251368" y2="347.051872606"/><linearGradient id="C" gradientUnits="userSpaceOnUse" x1="351.1735218752" x2="321.7516802134" xlink:href="#m" y1="506.6160384236" y2="444.0945872452"/><linearGradient id="D" gradientUnits="userSpaceOnUse" x1="309.013717093" x2="309.013717093" xlink:href="#f" y1="320.6280432128" y2="394.440002772"/><linearGradient id="E" gradientUnits="userSpaceOnUse" x1="309.013717093" x2="309.013717093" xlink:href="#f" y1="409.410989597" y2="472.5020661182"/><linearGradient id="F" gradientUnits="userSpaceOnUse" x1="342.6858633262" x2="294.6021156064" xlink:href="#i" y1="435.593275357" y2="418.5313197904"/><linearGradient id="G"><stop offset="0" stop-color="#00e7b2"/><stop offset=".2459" stop-color="#05e5b1"/><stop offset=".5301" stop-color="#13ddac"/><stop offset=".8322" stop-color="#2ad1a5"/><stop offset="1" stop-color="#3ac9a0"/></linearGradient><linearGradient id="H" gradientUnits="userSpaceOnUse" x1="305.394578283" x2="317.0392703454" xlink:href="#G" y1="429.687704192" y2="429.687704192"/><linearGradient id="I" gradientUnits="userSpaceOnUse" x1="320.825361384" x2="303.1582416358" xlink:href="#q" y1="416.1002222752" y2="398.4332029192"/><linearGradient id="J" gradientUnits="userSpaceOnUse" x1="307.204147688" x2="312.9630458488" xlink:href="#G" y1="397.276082422" y2="397.276082422"/><path d="m72.734375 155.902344 231.886719 243.027344 128.851562-322.757813zm222.800781 196.054687-172.433594-180.703125 268.257813-59.304687zm0 0" fill="url(#a)"/><path d="m512 110.160156c0 60.5625-49.097656 109.65625-109.660156 109.65625s-109.65625-49.09375-109.65625-109.65625 49.09375-109.660156 109.65625-109.660156 109.660156 49.097656 109.660156 109.660156zm0 0" fill="url(#b)"/><path d="m511.488281 120.734375c-2.140625 22.542969-11.128906 43.097656-24.847656 59.5625-5.417969 6.503906-11.574219 12.375-18.347656 17.464844l-75.710938-75.714844-19.050781-19.046875c-8.4375-7.777344-13.730469-18.921875-13.730469-31.300781 0-23.496094 19.046875-42.542969 42.539063-42.542969 12.378906 0 23.527344 5.296875 31.304687 13.734375zm0 0" fill="url(#d)"/><path d="m486.636719 180.296875c-5.417969 6.503906-11.570313 12.375-18.34375 17.464844-18.355469 13.855469-41.195313 22.054687-65.953125 22.054687-3.101563 0-6.171875-.125-9.210938-.394531l-50.433594-50.355469c5.378907-24.242187 25.148438-43.050781 49.882813-47.019531 3.1875-.507813 6.445313-.777344 9.761719-.777344 16.875 0 32.148437 6.847657 43.203125 17.898438zm0 0" fill="url(#e)"/><path d="m444.882812 71.699219c0 23.496093-19.046874 42.542969-42.542968 42.542969-23.492188 0-42.539063-19.046876-42.539063-42.542969 0-23.496094 19.046875-42.542969 42.539063-42.542969 23.496094 0 42.542968 19.046875 42.542968 42.542969zm0 0" fill="url(#g)"/><path d="m461.988281 169.066406c-15.191406 15.394532-36.308593 24.929688-59.648437 24.929688-23.335938 0-44.453125-9.535156-59.644532-24.929688 6.070313-27.351562 30.464844-47.792968 59.644532-47.792968 16.878906 0 32.148437 6.84375 43.203125 17.898437 8.066406 8.054687 13.890625 18.363281 16.445312 29.894531zm0 0" fill="url(#h)"/><path d="m461.988281 169.066406c-.238281.246094-.488281.484375-.734375.722656-14.363281 14.21875-33.855468 23.257813-55.449218 24.125l-10.785157-10.808593-.164062-.132813c-1.902344-1.570312-2.894531-3.980468-2.667969-6.441406l3.753906-39.027344c.070313-.679687.359375-1.292968.796875-1.777344-.042969-.050781-.074219-.105468-.113281-.164062-.613281-.394531-1.128906-.953125-1.4375-1.644531l-4.324219-9.578125c-.300781-.652344-.332031-1.34375-.15625-1.964844.546875-.101562 1.097657-.207031 1.65625-.289062.390625-.070313.792969-.132813 1.1875-.183594.3125-.050782.632813-.09375.953125-.136719.363282-.039063.722656-.09375 1.09375-.125.445313-.050781.890625-.089844 1.335938-.132813.433594-.042968.878906-.074218 1.324218-.105468.453126-.027344.910157-.050782 1.363282-.070313.902344-.042969 1.8125-.0625 2.71875-.0625 1.667968 0 3.320312.0625 4.957031.195313.433594.042968.867187.074218 1.292969.125.875.082031 1.757812.199218 2.625.320312.421875.0625.859375.136719 1.28125.207032.496094.074218.992187.167968 1.480468.269531 12.210938 2.347656 23.121094 8.335937 31.570313 16.78125 8.0625 8.058593 13.886719 18.367187 16.441406 29.898437zm0 0" fill="url(#j)"/><path d="m409.828125 182.976562-4.253906 3.519532c-1.875 1.550781-4.589844 1.550781-6.464844 0l-4.253906-3.519532c-1.902344-1.570312-2.902344-3.984374-2.664063-6.441406l3.753906-39.027344c.15625-1.628906 1.523438-2.871093 3.160157-2.871093h6.472656c1.636719 0 3.003906 1.242187 3.160156 2.871093l3.753907 39.027344c.234374 2.457032-.761719 4.871094-2.664063 6.441406zm0 0" fill="url(#l)"/><path d="m408.738281 137.507812c-.15625-1.628906-1.523437-2.871093-3.160156-2.871093h-6.472656c-.964844 0-1.828125.4375-2.414063 1.128906l13.140625 13.140625zm0 0" fill="url(#n)"/><path d="m413.820312 124.34375-4.324218 9.574219c-.628906 1.398437-2.015625 2.285156-3.554688 2.285156h-7.199218c-1.539063 0-2.925782-.890625-3.554688-2.285156l-4.324219-9.574219c-.300781-.652344-.332031-1.34375-.15625-1.964844 3.765625-.726562 7.652344-1.105468 11.632813-1.105468 3.980468 0 7.871094.378906 11.632812 1.113281.179688.621093.136719 1.304687-.152344 1.957031zm0 0" fill="url(#o)"/><path d="m219.316406 161.148438c0 60.5625-49.09375 109.660156-109.65625 109.660156s-109.660156-49.097656-109.660156-109.660156 49.097656-109.660157 109.660156-109.660157 109.65625 49.097657 109.65625 109.660157zm0 0" fill="url(#p)"/><path d="m218.800781 171.722656c-2.136719 22.542969-11.125 43.101563-24.847656 59.5625-5.417969 6.503906-11.570313 12.378906-18.34375 17.464844l-94.761719-94.761719c-8.4375-7.773437-13.730468-18.921875-13.730468-31.300781 0-23.492188 19.046874-42.539062 42.539062-42.539062 12.378906 0 23.527344 5.292968 31.300781 13.730468zm0 0" fill="url(#r)"/><path d="m193.953125 231.285156c-5.417969 6.503906-11.570313 12.378906-18.34375 17.464844-18.355469 13.855469-41.195313 22.058594-65.953125 22.058594-3.101562 0-6.171875-.125-9.210938-.394532l-50.433593-50.359374c5.378906-24.238282 25.148437-43.046876 49.882812-47.019532 3.1875-.507812 6.445313-.773437 9.761719-.773437 16.878906 0 32.148438 6.84375 43.203125 17.898437zm0 0" fill="url(#s)"/><path d="m152.199219 122.6875c0 23.496094-19.046875 42.542969-42.539063 42.542969-23.496094 0-42.542968-19.046875-42.542968-42.542969 0-23.492188 19.046874-42.539062 42.542968-42.539062 23.492188 0 42.539063 19.046874 42.539063 42.539062zm0 0" fill="url(#t)"/><path d="m169.300781 220.054688c-15.1875 15.398437-36.304687 24.933593-59.644531 24.933593s-44.453125-9.535156-59.644531-24.933593c6.070312-27.351563 30.464843-47.792969 59.644531-47.792969 16.878906 0 32.148438 6.847656 43.203125 17.898437 8.066406 8.054688 13.890625 18.367188 16.441406 29.894532zm0 0" fill="url(#u)"/><path d="m169.300781 220.054688c-.238281.25-.484375.488281-.730469.726562-14.363281 14.214844-33.855468 23.253906-55.449218 24.121094l-10.785156-10.804688-.164063-.132812c-1.902344-1.574219-2.894531-3.984375-2.667969-6.445313l3.753906-39.023437c.070313-.683594.359376-1.292969.792969-1.78125-.039062-.050782-.070312-.101563-.113281-.164063-.609375-.390625-1.125-.953125-1.4375-1.644531l-4.320312-9.574219c-.300782-.652343-.332032-1.34375-.15625-1.964843.546874-.105469 1.097656-.207032 1.652343-.289063.394531-.074219.796875-.136719 1.191407-.1875.308593-.050781.628906-.09375.953124-.132813.359376-.042968.722657-.09375 1.09375-.125.445313-.050781.890626-.09375 1.335938-.136718.433594-.039063.878906-.070313 1.324219-.101563.453125-.03125.90625-.050781 1.363281-.074219.898438-.039062 1.808594-.058593 2.71875-.058593 1.664062 0 3.320312.058593 4.953125.195312.4375.039063.871094.070313 1.292969.125.878906.082031 1.757812.195313 2.628906.320313.421875.0625.855469.132812 1.28125.207031.496094.070313.992188.164063 1.476562.269531 12.214844 2.34375 23.125 8.332032 31.570313 16.78125 8.066406 8.054688 13.890625 18.367188 16.441406 29.894532zm0 0" fill="url(#v)"/><path d="m117.144531 233.96875-4.253906 3.519531c-1.875 1.550781-4.589844 1.550781-6.46875 0l-4.25-3.519531c-1.902344-1.574219-2.902344-3.988281-2.664063-6.445312l3.753907-39.023438c.15625-1.628906 1.523437-2.871094 3.160156-2.871094h6.472656c1.636719 0 3.003907 1.242188 3.160157 2.871094l3.753906 39.023438c.234375 2.457031-.761719 4.871093-2.664063 6.445312zm0 0" fill="url(#x)"/><path d="m116.054688 188.5c-.15625-1.628906-1.523438-2.871094-3.160157-2.871094h-6.472656c-.964844 0-1.828125.4375-2.414063 1.125l13.144532 13.140625zm0 0" fill="url(#y)"/><path d="m121.136719 175.332031-4.324219 9.578125c-.628906 1.394532-2.015625 2.28125-3.554688 2.28125h-7.199218c-1.539063 0-2.925782-.886718-3.554688-2.28125l-4.324218-9.578125c-.300782-.652343-.332032-1.34375-.15625-1.964843 3.765624-.722657 7.652343-1.105469 11.632812-1.105469 3.984375 0 7.871094.382812 11.632812 1.117187.179688.621094.136719 1.300782-.152343 1.953125zm0 0" fill="url(#z)"/><path d="m418.671875 378.695312c0 60.5625-49.09375 109.660157-109.65625 109.660157s-109.660156-49.097657-109.660156-109.660157 49.097656-109.65625 109.660156-109.65625 109.65625 49.09375 109.65625 109.65625zm0 0" fill="url(#A)"/><path d="m418.160156 389.273438c-2.140625 22.542968-11.128906 43.097656-24.851562 59.5625-5.417969 6.503906-11.570313 12.375-18.34375 17.464843l-94.761719-94.761719c-8.4375-7.777343-13.730469-18.921874-13.730469-31.300781 0-23.496093 19.046875-42.542969 42.539063-42.542969 12.378906 0 23.527343 5.296876 31.300781 13.734376zm0 0" fill="url(#B)"/><path d="m393.308594 448.835938c-5.417969 6.503906-11.570313 12.375-18.34375 17.464843-18.355469 13.855469-41.195313 22.054688-65.953125 22.054688-3.101563 0-6.171875-.125-9.210938-.394531l-50.433593-50.359376c5.378906-24.238281 25.148437-43.046874 49.882812-47.015624 3.1875-.507813 6.445312-.777344 9.761719-.777344 16.878906 0 32.148437 6.847656 43.203125 17.898437zm0 0" fill="url(#C)"/><path d="m351.554688 340.238281c0 23.496094-19.046876 42.539063-42.539063 42.539063-23.496094 0-42.542969-19.042969-42.542969-42.539063 0-23.496093 19.046875-42.542969 42.542969-42.542969 23.492187 0 42.539063 19.046876 42.539063 42.542969zm0 0" fill="url(#D)"/><path d="m368.65625 437.605469c-15.1875 15.394531-36.304688 24.929687-59.644531 24.929687-23.335938 0-44.453125-9.535156-59.644531-24.929687 6.070312-27.351563 30.464843-47.796875 59.644531-47.796875 16.878906 0 32.148437 6.847656 43.203125 17.898437 8.066406 8.058594 13.890625 18.367188 16.441406 29.898438zm0 0" fill="url(#E)"/><path d="m368.65625 437.605469c-.234375.246093-.484375.484375-.730469.722656-14.363281 14.21875-33.855469 23.257813-55.449219 24.125l-10.785156-10.808594-.164062-.132812c-1.902344-1.570313-2.894532-3.980469-2.667969-6.441407l3.753906-39.027343c.070313-.679688.359375-1.292969.792969-1.777344-.039062-.050781-.070312-.105469-.113281-.167969-.609375-.390625-1.125-.949218-1.4375-1.640625l-4.320313-9.578125c-.300781-.652344-.332031-1.34375-.15625-1.964844.546875-.101562 1.097656-.207031 1.652344-.289062.394531-.070312.796875-.132812 1.191406-.183594.308594-.050781.628906-.09375.953125-.136718.359375-.039063.722657-.09375 1.09375-.125.445313-.050782.890625-.09375 1.335938-.132813.433593-.042969.878906-.074219 1.324219-.105469.453124-.027344.90625-.050781 1.363281-.070312.898437-.042969 1.8125-.0625 2.71875-.0625 1.664062 0 3.320312.0625 4.953125.195312.4375.042969.871094.074219 1.292968.125.878907.082032 1.757813.199219 2.628907.320313.421875.0625.855469.136719 1.28125.207031.496093.074219.992187.167969 1.480469.269531 12.210937 2.347657 23.121093 8.335938 31.570312 16.78125 8.0625 8.058594 13.886719 18.367188 16.4375 29.898438zm0 0" fill="url(#F)"/><path d="m316.5 451.515625-4.253906 3.519531c-1.875 1.550782-4.589844 1.550782-6.464844 0l-4.253906-3.519531c-1.902344-1.570313-2.902344-3.984375-2.664063-6.441406l3.753907-39.027344c.15625-1.628906 1.523437-2.871094 3.160156-2.871094h6.472656c1.636719 0 3.003906 1.242188 3.160156 2.871094l3.753906 39.027344c.234376 2.457031-.761718 4.871093-2.664062 6.441406zm0 0" fill="url(#H)"/><path d="m315.410156 406.046875c-.15625-1.628906-1.523437-2.871094-3.160156-2.871094h-6.472656c-.964844 0-1.828125.441407-2.414063 1.128907l13.140625 13.140624zm0 0" fill="url(#I)"/><path d="m320.492188 392.878906-4.324219 9.578125c-.628907 1.394531-2.015625 2.285157-3.554688 2.285157h-7.199219c-1.539062 0-2.925781-.890626-3.554687-2.285157l-4.324219-9.578125c-.300781-.648437-.332031-1.34375-.15625-1.960937 3.765625-.726563 7.652344-1.109375 11.632813-1.109375 3.984375 0 7.871093.382812 11.636719 1.117187.171874.621094.132812 1.304688-.15625 1.953125zm0 0" fill="url(#J)"/></svg>