<svg height="512pt" viewBox="-77 0 512 512" width="512pt" xmlns="http://www.w3.org/2000/svg" xmlns:xlink="http://www.w3.org/1999/xlink"><radialGradient id="a" cx="151.9918645506" cy="408.1691855812" gradientUnits="userSpaceOnUse" r="106.59141835"><stop offset="0" stop-color="#fffcf8"/><stop offset=".2239" stop-color="#fbf9f7"/><stop offset=".4254" stop-color="#f0f1f3"/><stop offset=".6183" stop-color="#dee3ed"/><stop offset=".8059" stop-color="#c4d0e4"/><stop offset=".9882" stop-color="#a3b7d9"/><stop offset="1" stop-color="#a1b5d8"/></radialGradient><linearGradient id="b" gradientUnits="userSpaceOnUse" x1="185.8303606592" x2="177.3311570072" y1="495.5746505892" y2="445.2876956482"><stop offset="0" stop-color="#a1b5d8" stop-opacity="0"/><stop offset=".0343" stop-color="#9fb3d5" stop-opacity=".035294"/><stop offset=".4515" stop-color="#8898af" stop-opacity=".45098"/><stop offset=".788" stop-color="#798898" stop-opacity=".788235"/><stop offset="1" stop-color="#748290"/></linearGradient><linearGradient id="c"><stop offset="0" stop-color="#3b395f"/><stop offset=".5234" stop-color="#39385d"/><stop offset=".7119" stop-color="#343356"/><stop offset=".8463" stop-color="#2a2b4b"/><stop offset=".9541" stop-color="#1b1f3a"/><stop offset="1" stop-color="#131830"/></linearGradient><radialGradient id="d" cx="247.1501" cy="366.4164" gradientTransform="matrix(1.003922 0 0 .278287 -77.271092 333.819683)" gradientUnits="userSpaceOnUse" r="111.6908" xlink:href="#c"/><linearGradient id="e"><stop offset="0" stop-color="#131830" stop-opacity="0"/><stop offset="1" stop-color="#131830"/></linearGradient><linearGradient id="f" gradientUnits="userSpaceOnUse" x1="192.3151948182" x2="180.3218406452" xlink:href="#e" y1="467.6982464542" y2="404.30448745"/><linearGradient id="g" gradientUnits="userSpaceOnUse" x1="152.9783183078" x2="211.836859677" y1="428.8223709262" y2="428.8223709262"><stop offset="0" stop-color="#3b395f"/><stop offset=".0633" stop-color="#37355a"/><stop offset=".4033" stop-color="#232543"/><stop offset=".7232" stop-color="#171b35"/><stop offset="1" stop-color="#131830"/></linearGradient><linearGradient id="h" gradientUnits="userSpaceOnUse" x1="206.07585328" x2="115.3081531018" xlink:href="#e" y1="435.2442591758" y2="344.4764586054"/><radialGradient id="i" cx="241.6888" cy="390.4723" gradientTransform="matrix(1.003922 0 0 .238431 -77.271092 298.91845)" gradientUnits="userSpaceOnUse" r="111.6909" xlink:href="#c"/><linearGradient id="j" gradientUnits="userSpaceOnUse" x1="215.1590383594" x2="148.132989167" xlink:href="#e" y1="420.1033083562" y2="353.077359556"/><radialGradient id="k" cx="140.3177575736" cy="86.4860732404" gradientUnits="userSpaceOnUse" r="271.0420741104"><stop offset="0" stop-color="#ffc738"/><stop offset=".4873" stop-color="#ffc636"/><stop offset=".6746" stop-color="#ffc22f"/><stop offset=".8103" stop-color="#ffbb23"/><stop offset=".9203" stop-color="#ffb112"/><stop offset="1" stop-color="#ffa700"/></radialGradient><radialGradient id="l" cx="220.8442486454" cy="239.9422772178" gradientUnits="userSpaceOnUse" r="272.3056103396"><stop offset="0" stop-color="#fff" stop-opacity="0"/><stop offset=".8587" stop-color="#fff" stop-opacity=".858824"/><stop offset="1" stop-color="#fff"/></radialGradient><linearGradient id="m"><stop offset="0" stop-color="#ff4974"/><stop offset=".2115" stop-color="#fd4470"/><stop offset=".4685" stop-color="#f83565"/><stop offset=".748" stop-color="#ef1d52"/><stop offset="1" stop-color="#e4003d"/></linearGradient><linearGradient id="n" gradientUnits="userSpaceOnUse" x1="207.025563492" x2="141.077425351" xlink:href="#m" y1="358.715385508" y2="292.7671469748"/><linearGradient id="o" gradientUnits="userSpaceOnUse" x1="127.4575167536" x2="230.0004188542" xlink:href="#m" y1="360.1099335582" y2="360.1099335582"/><path d="m237.160156 453.566406c0 32.273438-26.160156 58.433594-58.429687 58.433594-32.273438 0-58.433594-26.160156-58.433594-58.433594 0-32.269531 26.160156-58.429687 58.433594-58.429687 32.269531 0 58.429687 26.160156 58.429687 58.429687zm0 0" fill="url(#a)"/><path d="m178.730469 395.136719c-32.273438 0-58.433594 26.160156-58.433594 58.429687 0 3.980469.402344 7.867188 1.160156 11.625l45.648438 45.648438c3.753906.757812 7.644531 1.160156 11.625 1.160156 32.269531 0 58.429687-26.160156 58.429687-58.433594 0-32.269531-26.160156-58.429687-58.429687-58.429687zm0 0" fill="url(#b)"/><path d="m273.992188 442.816406c0-15.464844-42.652344-28-95.261719-28-52.613281 0-95.265625 12.535156-95.265625 28 0 15.460938 42.652344 27.996094 95.265625 27.996094 52.609375 0 95.261719-12.535156 95.261719-27.996094zm0 0" fill="url(#d)"/><path d="m273.992188 442.816406c0-15.464844-42.652344-28-95.261719-28-33.488281 0-62.933594 5.078125-79.917969 12.757813v1.582031c0 5.089844 2.136719 9.820312 5.703125 13.167969l24.347656 24.351562c14.503907 2.625 31.582031 4.136719 49.863281 4.136719 52.613282.003906 95.265626-12.535156 95.265626-27.996094zm0 0" fill="url(#f)"/><path d="m247.105469 446.003906c-43.992188 17.046875-92.765625 17.046875-136.753907 0-6.957031-2.695312-11.539062-9.390625-11.539062-16.847656v-30.300781h159.832031v30.300781c0 7.457031-4.582031 14.152344-11.539062 16.847656zm0 0" fill="url(#g)"/><path d="m98.8125 416.941406 36.890625 36.890625c36.875 8.609375 75.714844 6.003907 111.402344-7.828125 6.957031-2.695312 11.539062-9.390625 11.539062-16.847656v-30.300781h-159.832031zm0 0" fill="url(#h)"/><path d="m273.992188 403.3125c0-13.25-42.652344-23.988281-95.261719-23.988281-52.613281 0-95.265625 10.738281-95.265625 23.988281 0 13.246094 42.652344 23.984375 95.265625 23.984375 52.609375 0 95.261719-10.738281 95.261719-23.984375zm0 0" fill="url(#i)"/><path d="m178.730469 379.324219c-27.070313 0-51.5 2.84375-68.84375 7.410156.089843 1.5625.140625 3.136719.140625 4.71875 0 1.621094.90625 3.1875 2.558594 4.675781l29.3125 29.308594c11.332031 1.199219 23.773437 1.859375 36.832031 1.859375 52.609375 0 95.261719-10.738281 95.261719-23.984375 0-13.25-42.652344-23.988281-95.261719-23.988281zm0 0" fill="url(#j)"/><path d="m357.457031 178.730469c0-98.710938-80.015625-178.730469-178.726562-178.730469-98.523438 0-178.296875 79.40625-178.730469 177.929688-.261719 60.480468 29.515625 114.015624 75.273438 146.546874 21.71875 15.445313 34.753906 40.328126 34.753906 66.976563 0 9.554687 30.757812 17.296875 68.703125 17.296875 37.941406 0 68.699219-7.742188 68.699219-17.296875v-.003906c0-26.636719 13.019531-51.519531 34.734374-66.953125 45.566407-32.390625 75.292969-85.605469 75.292969-145.765625zm0 0" fill="url(#k)"/><path d="m336.199219 183.621094c0 86.96875-70.503907 157.46875-157.46875 157.46875-86.96875 0-157.46875-70.5-157.46875-157.46875s70.5-157.46875 157.46875-157.46875c86.964843 0 157.46875 70.5 157.46875 157.46875zm0 0" fill="url(#l)"/><path d="m202.234375 344.882812c-.003906 0-.007813 0-.011719 0-3.992187-.003906-7.8125-1.707031-10.488281-4.671874l-8.824219-9.746094c-1.085937-1.207032-2.570312-1.867188-4.1875-1.867188-1.613281 0-3.101562.660156-4.183594 1.863282l-8.820312 9.757812c-2.691406 2.964844-6.519531 4.660156-10.507812 4.660156-.011719 0-.015626 0-.023438 0-3.988281-.003906-7.804688-1.707031-10.46875-4.664062l-6.601562-7.304688c-1.574219-1.742187-1.441407-4.429687.300781-6.003906 1.742187-1.574219 4.429687-1.4375 6.003906.304688l6.605469 7.308593c1.078125 1.199219 2.5625 1.859375 4.171875 1.863281 1.605469 0 3.125-.664062 4.21875-1.867187l8.8125-9.75c2.671875-2.964844 6.496093-4.664063 10.492187-4.664063s7.820313 1.703126 10.496094 4.671876l8.824219 9.742187c1.085937 1.207031 2.574219 1.871094 4.1875 1.871094h.003906c1.621094 0 3.109375-.664063 4.199219-1.867188l6.605468-7.308593c1.574219-1.738282 4.261719-1.875 6.003907-.300782 1.738281 1.570313 1.875 4.257813.300781 6l-6.605469 7.308594c-2.683593 2.964844-6.511719 4.664062-10.503906 4.664062zm0 0" fill="url(#n)"/><path d="m230 358.039062v44.917969c-2.601562.742188-5.449219 1.410157-8.5 2.027344v-46.945313c0-7.480468-2.027344-14.75-5.832031-21.058593v-.011719c-1.347657-2.273438-2.941407-4.410156-4.738281-6.394531l-.46875-.523438-4.035157-4.460937c-1.082031-1.199219-2.570312-1.859375-4.1875-1.859375-1.613281 0-3.101562.660156-4.195312 1.859375l-4.039063 4.460937-4.777344 5.304688c-.320312.347656-.648437.6875-1 .988281-2.59375 2.355469-5.980468 3.675781-9.5 3.675781-1.996093 0-3.949218-.425781-5.734374-1.222656-1.371094-.605469-2.648438-1.433594-3.773438-2.453125-.339844-.308594-.667969-.640625-.988281-.988281l-4.792969-5.292969-4.035156-4.460938c-1.082032-1.203124-2.570313-1.871093-4.1875-1.871093-1.625 0-3.113282.667969-4.195313 1.871093l-4.027343 4.449219-.46875.523438c-1.792969 1.984375-3.386719 4.121093-4.738282 6.394531v.011719c-3.800781 6.308593-5.832031 13.566406-5.832031 21.046875v46.957031c-2.027344-.402344-3.972656-.839844-5.8125-1.304687-.921875-.234376-1.816406-.46875-2.6875-.726563v-44.925781c0-10.804688 3.519531-21.238282 9.976563-29.789063v-.011719c.382812-.488281.753906-.96875 1.148437-1.445312.53125-.648438 1.074219-1.285156 1.636719-1.914062l4.503906-4.96875c2.679688-2.964844 6.5-4.667969 10.496094-4.667969 2 0 3.953125.425781 5.75 1.222656 1.785156.796875 3.410156 1.964844 4.746094 3.445313l3.507812 3.875 5.3125 5.886718c.125.140625.265625.277344.402344.402344 1.03125.949219 2.359375 1.457031 3.792968 1.457031 1.421876 0 2.75-.507812 3.78125-1.457031.136719-.125.277344-.265625.402344-.402344l5.324219-5.886718 3.503906-3.875c2.679688-2.964844 6.503907-4.667969 10.5-4.667969 1.996094 0 3.949219.425781 5.746094 1.222656 1.785156.796875 3.410156 1.964844 4.75 3.445313l4.492187 4.96875c.550782.605468 1.082032 1.234374 1.605469 1.871093l.007813.011719c.417968.5.808594 1.007812 1.203125 1.53125 6.460937 8.539062 9.957031 18.953125 9.957031 29.757812zm0 0" fill="url(#o)"/></svg>