<svg height="512pt" viewBox="0 -4 512 512" width="512pt" xmlns="http://www.w3.org/2000/svg" xmlns:xlink="http://www.w3.org/1999/xlink"><linearGradient id="a"><stop offset="0" stop-color="#3b395f"/><stop offset=".0633" stop-color="#37355a"/><stop offset=".4033" stop-color="#232543"/><stop offset=".7232" stop-color="#171b35"/><stop offset="1" stop-color="#131830"/></linearGradient><linearGradient id="b" gradientUnits="userSpaceOnUse" x1="303.8624929188" x2="566.239615855" xlink:href="#a" y1="230.4923611678" y2="230.4923611678"/><linearGradient id="c" gradientUnits="userSpaceOnUse" x1="355.1654169238" x2="355.1654169238" y1="416.8581322272" y2="454.5645390174"><stop offset="0" stop-color="#131830" stop-opacity="0"/><stop offset="1" stop-color="#131830"/></linearGradient><linearGradient id="d" gradientUnits="userSpaceOnUse" x1="276.3317391284" x2="588.7305808132" y1="131.3361899342" y2="443.7351320112"><stop offset="0" stop-color="#ff4974"/><stop offset=".3262" stop-color="#fe4672"/><stop offset=".5324" stop-color="#fb3e6c"/><stop offset=".7054" stop-color="#f52f60"/><stop offset=".8591" stop-color="#ee1a51"/><stop offset="1" stop-color="#e4003d"/></linearGradient><linearGradient id="e" gradientUnits="userSpaceOnUse" x1="364.2392655286" x2="323.9807886222" xlink:href="#a" y1="429.7711793444" y2="389.5128028302"/><linearGradient id="f"><stop offset="0" stop-color="#fffcf8"/><stop offset=".1875" stop-color="#faf8f6"/><stop offset=".4041" stop-color="#eceef2"/><stop offset=".6353" stop-color="#d5dcea"/><stop offset=".875" stop-color="#b5c4df"/><stop offset="1" stop-color="#a1b5d8"/></linearGradient><linearGradient id="g" gradientUnits="userSpaceOnUse" x1="387.9595329758" x2="470.9025646938" xlink:href="#f" y1="243.899337909" y2="326.842369627"/><linearGradient id="h" gradientUnits="userSpaceOnUse" x1="370.7410659694" x2="453.6840976874" xlink:href="#f" y1="265.4888813034" y2="348.4318126292"/><linearGradient id="i" gradientUnits="userSpaceOnUse" x1="348.019098559" x2="431.25979315" xlink:href="#f" y1="292.452017595" y2="375.692712186"/><linearGradient id="j" gradientUnits="userSpaceOnUse" x1="378.0833499086" x2="256.6585824398" y1="363.2567288032" y2="241.8319613344"><stop offset="0" stop-color="#e4003d" stop-opacity="0"/><stop offset=".5838" stop-color="#bd294b" stop-opacity=".584314"/><stop offset="1" stop-color="#a64153"/></linearGradient><linearGradient id="k" gradientUnits="userSpaceOnUse" x1="85.3453166718" x2="353.7950633938" xlink:href="#f" y1="184.8956294186" y2="588.4359314422"/><linearGradient id="l" gradientUnits="userSpaceOnUse" x1="260.9857874364" x2="166.643522585" y1="555.3427470264" y2="461.0005825672"><stop offset="0" stop-color="#a1b5d8" stop-opacity="0"/><stop offset=".0343" stop-color="#9fb3d5" stop-opacity=".035294"/><stop offset=".4515" stop-color="#8898af" stop-opacity=".45098"/><stop offset=".788" stop-color="#798898" stop-opacity=".788235"/><stop offset="1" stop-color="#748290"/></linearGradient><linearGradient id="m" gradientUnits="userSpaceOnUse" x1="154.2786168798" x2="154.2786168798" xlink:href="#f" y1="460.5433964884" y2="522.6477180758"/><linearGradient id="n" gradientUnits="userSpaceOnUse" x1="78.4415458622" x2="275.6414423612" xlink:href="#a" y1="245.5099299736" y2="245.5099299736"/><linearGradient id="o"><stop offset="0" stop-color="#a1b5d8" stop-opacity="0"/><stop offset="1" stop-color="#748290"/></linearGradient><linearGradient id="p" gradientUnits="userSpaceOnUse" x1="163.2671321146" x2="113.541068395" xlink:href="#o" y1="265.462076586" y2="215.7360128664"/><linearGradient id="q" gradientUnits="userSpaceOnUse" x1="107.1675691858" x2="57.4415054662" xlink:href="#o" y1="321.5615391226" y2="271.8355757952"/><linearGradient id="r"><stop offset="0" stop-color="#ffc738"/><stop offset=".4286" stop-color="#ffbb23"/><stop offset="1" stop-color="#ffa700"/></linearGradient><linearGradient id="s" gradientUnits="userSpaceOnUse" x1="70.7612413856" x2="88.7932867808" xlink:href="#r" y1="282.9585295942" y2="304.329920738"/><linearGradient id="t" gradientUnits="userSpaceOnUse" x1="126.8608043144" x2="144.8928497096" xlink:href="#r" y1="226.8589666654" y2="248.230257417"/><linearGradient id="u" gradientUnits="userSpaceOnUse" x1="205.4670937768" x2="155.7410300572" xlink:href="#o" y1="307.9958423132" y2="258.2697785936"/><linearGradient id="v" gradientUnits="userSpaceOnUse" x1="169.0607659766" x2="187.0928113718" xlink:href="#r" y1="269.3927323926" y2="290.7641235364"/><linearGradient id="w" gradientUnits="userSpaceOnUse" x1="295.6922745062" x2="245.9663111788" xlink:href="#o" y1="219.7115439864" y2="169.9854802668"/><linearGradient id="x" gradientUnits="userSpaceOnUse" x1="259.2860470982" x2="277.3180924934" xlink:href="#r" y1="181.1084340658" y2="202.4798252096"/><path d="m469.617188 460.984375h-228.902344c-23.40625 0-42.382813-18.976563-42.382813-42.382813v-376.21875c0-23.40625 18.976563-42.382812 42.382813-42.382812h228.902344c23.40625 0 42.382812 18.976562 42.382812 42.382812v376.21875c0 23.40625-18.976562 42.382813-42.382812 42.382813zm0 0" fill="url(#b)"/><path d="m198.332031 380.410156v38.191406c0 23.40625 18.976563 42.382813 42.382813 42.382813h228.902344c23.40625 0 42.382812-18.976563 42.382812-42.382813v-38.191406zm0 0" fill="url(#c)"/><path d="m452.03125 380.410156h-193.730469c-11.726562 0-21.230469-9.503906-21.230469-21.230468v-298.019532c0-11.726562 9.503907-21.230468 21.230469-21.230468h193.730469c11.726562 0 21.230469 9.503906 21.230469 21.230468v298.019532c-.003907 11.726562-9.507813 21.230468-21.230469 21.230468zm0 0" fill="url(#d)"/><path d="m379.246094 420.699219c0 13.296875-10.78125 24.078125-24.082032 24.078125-13.296874 0-24.078124-10.78125-24.078124-24.078125 0-13.300781 10.78125-24.082031 24.078124-24.082031 13.300782 0 24.082032 10.78125 24.082032 24.082031zm0 0" fill="url(#e)"/><path d="m348.832031 250.316406h106.792969v15.703125h-106.792969zm0 0" fill="url(#g)"/><path d="m348.832031 289.125h106.792969v15.703125h-106.792969zm0 0" fill="url(#h)"/><path d="m348.832031 327.933594h85.039063v15.703125h-85.039063zm0 0" fill="url(#i)"/><path d="m323.214844 162.921875c-3.859375-5.039063-9.921875-8.304687-16.761719-8.304687h-69.382813v204.5625c0 11.726562 9.503907 21.230468 21.230469 21.230468h193.730469c11.722656 0 21.230469-9.503906 21.230469-21.230468v-46.214844zm0 0" fill="url(#j)"/><path d="m306.453125 503.191406h-250.617187c-11.667969 0-21.125-9.460937-21.125-21.128906v-306.316406c0-11.667969 9.457031-21.128906 21.125-21.128906h250.621093c11.664063 0 21.125 9.460937 21.125 21.128906v306.316406c0 11.667969-9.460937 21.128906-21.128906 21.128906zm0 0" fill="url(#k)"/><path d="m55.835938 503.191406h250.621093c11.664063 0 21.125-9.460937 21.125-21.128906v-21.835938l-40.199219-40.199218c-3.867187-4.253906-9.4375-6.921875-15.636718-6.921875h-237.035156v68.960937c0 11.664063 9.457031 21.125 21.125 21.125zm0 0" fill="url(#l)"/><path d="m271.746094 413.105469h-250.621094c-11.667969 0-21.125 9.457031-21.125 21.125v27.847656c0 22.707031 18.40625 41.113281 41.109375 41.113281h267.449219c-8.664063 0-15.6875-7.023437-15.6875-15.6875v-53.273437c0-11.667969-9.457032-21.125-21.125-21.125zm0 0" fill="url(#m)"/><path d="m69.101562 332.429688h224.089844v12.25h-224.089844zm0 0" fill="#a1b5d8"/><path d="m69.101562 380.671875h178.441407v12.25h-178.441407zm0 0" fill="#a1b5d8"/><path d="m86.804688 301.199219-8.363282-8.363281 60.28125-60.28125 42.910156 42.910156 85.644532-85.644532 8.363281 8.363282-94.007813 94.007812-42.910156-42.90625zm0 0" fill="url(#n)"/><path d="m148.625 231.730469c-2.46875-2.660157-5.984375-4.335938-9.902344-4.335938-7.46875 0-13.523437 6.054688-13.523437 13.523438 0 3.917969 1.675781 7.433593 4.335937 9.902343l35.683594 35.683594c2.46875 2.660156 5.988281 4.335938 9.902344 4.335938 7.46875 0 13.523437-6.054688 13.523437-13.523438 0-3.917968-1.671875-7.433594-4.332031-9.902344zm0 0" fill="url(#p)"/><path d="m92.527344 287.828125c-2.46875-2.660156-5.988282-4.332031-9.902344-4.332031-7.46875 0-13.523438 6.054687-13.523438 13.523437 0 3.914063 1.671876 7.433594 4.332032 9.902344l35.6875 35.683594c2.46875 2.660156 5.984375 4.335937 9.902344 4.335937 7.46875 0 13.523437-6.054687 13.523437-13.523437 0-3.917969-1.675781-7.433594-4.335937-9.902344zm0 0" fill="url(#q)"/><path d="m96.148438 297.019531c0 7.46875-6.054688 13.523438-13.523438 13.523438s-13.523438-6.054688-13.523438-13.523438 6.054688-13.523437 13.523438-13.523437 13.523438 6.054687 13.523438 13.523437zm0 0" fill="url(#s)"/><path d="m152.246094 240.917969c0 7.46875-6.054688 13.523437-13.523438 13.523437s-13.523437-6.054687-13.523437-13.523437 6.054687-13.523438 13.523437-13.523438 13.523438 6.054688 13.523438 13.523438zm0 0" fill="url(#t)"/><path d="m190.828125 274.261719c-2.472656-2.660157-5.988281-4.332031-9.90625-4.332031-7.46875 0-13.523437 6.054687-13.523437 13.523437 0 3.914063 1.675781 7.433594 4.335937 9.902344l35.683594 35.683593c2.472656 2.660157 5.988281 4.335938 9.902343 4.335938 7.472657 0 13.527344-6.054688 13.527344-13.523438 0-3.917968-1.675781-7.433593-4.335937-9.902343zm0 0" fill="url(#u)"/><path d="m194.449219 283.453125c0 7.46875-6.054688 13.523437-13.527344 13.523437-7.46875 0-13.523437-6.054687-13.523437-13.523437s6.054687-13.523437 13.523437-13.523437c7.472656 0 13.527344 6.054687 13.527344 13.523437zm0 0" fill="url(#v)"/><path d="m281.050781 185.976562c-2.46875-2.660156-5.984375-4.332031-9.902343-4.332031-7.46875 0-13.523438 6.054688-13.523438 13.523438 0 3.914062 1.675781 7.433593 4.335938 9.902343l35.683593 35.683594c2.46875 2.660156 5.984375 4.335938 9.902344 4.335938 7.46875 0 13.523437-6.054688 13.523437-13.523438 0-3.917968-1.675781-7.433594-4.335937-9.902344zm0 0" fill="url(#w)"/><path d="m284.671875 195.167969c0 7.46875-6.054687 13.523437-13.523437 13.523437s-13.523438-6.054687-13.523438-13.523437 6.054688-13.523438 13.523438-13.523438 13.523437 6.054688 13.523437 13.523438zm0 0" fill="url(#x)"/></svg>