<svg height="512pt" viewBox="0 0 512 512" width="512pt" xmlns="http://www.w3.org/2000/svg" xmlns:xlink="http://www.w3.org/1999/xlink"><linearGradient id="a" gradientUnits="userSpaceOnUse" x1="168.2550181794" x2="513.9494349552" y1="168.2550181794" y2="513.9494349552"><stop offset="0" stop-color="#3b395f"/><stop offset=".0633" stop-color="#37355a"/><stop offset=".4033" stop-color="#232543"/><stop offset=".7232" stop-color="#171b35"/><stop offset="1" stop-color="#131830"/></linearGradient><linearGradient id="b" gradientUnits="userSpaceOnUse" x1="256.00011" x2="256.00011" y1="458.3110737932" y2="529.3574290268"><stop offset="0" stop-color="#131830" stop-opacity="0"/><stop offset="1" stop-color="#131830"/></linearGradient><linearGradient id="c" gradientUnits="userSpaceOnUse" x1="459.294315" x2="351.5209792794" y1="459.294315" y2="351.5209792794"><stop offset="0" stop-color="#3b395f" stop-opacity="0"/><stop offset=".0633" stop-color="#37355a" stop-opacity=".062745"/><stop offset=".4033" stop-color="#232543" stop-opacity=".403922"/><stop offset=".7232" stop-color="#171b35" stop-opacity=".721569"/><stop offset="1" stop-color="#131830"/></linearGradient><radialGradient id="d" cx="215.5790981218" cy="117.8948773246" gradientUnits="userSpaceOnUse" r="353.2190129502"><stop offset="0" stop-color="#fffcf8"/><stop offset=".2239" stop-color="#fbf9f7"/><stop offset=".4254" stop-color="#f0f1f3"/><stop offset=".6183" stop-color="#dee3ed"/><stop offset=".8059" stop-color="#c4d0e4"/><stop offset=".9882" stop-color="#a3b7d9"/><stop offset="1" stop-color="#a1b5d8"/></radialGradient><linearGradient id="e"><stop offset="0" stop-color="#a1b5d8" stop-opacity="0"/><stop offset=".2632" stop-color="#8ea0ba" stop-opacity=".262745"/><stop offset=".5306" stop-color="#808fa3" stop-opacity=".529412"/><stop offset=".7822" stop-color="#778595" stop-opacity=".780392"/><stop offset="1" stop-color="#748290"/></linearGradient><linearGradient id="f" gradientUnits="userSpaceOnUse" x1="310.707835468" x2="287.1313296512" xlink:href="#e" y1="307.7324114444" y2="155.04571368"/><radialGradient id="g" cx="195.4792745832" cy="161.9344256596" gradientUnits="userSpaceOnUse" r="267.245542283"><stop offset="0" stop-color="#00e7b2"/><stop offset=".3524" stop-color="#03e6b1"/><stop offset=".5753" stop-color="#0be1af"/><stop offset=".7622" stop-color="#1adaaa"/><stop offset=".9283" stop-color="#2fcfa4"/><stop offset="1" stop-color="#3ac9a0"/></radialGradient><linearGradient id="h" gradientTransform="matrix(1.003922 -.00421647 .00421647 1.003922 -.406387 .999002)" gradientUnits="userSpaceOnUse" x1="369.8051" x2="171.8654" y1="197.126" y2="83.0591"><stop offset="0" stop-color="#3ac9a0" stop-opacity="0"/><stop offset=".0351" stop-color="#38c69d" stop-opacity=".035294"/><stop offset=".4167" stop-color="#23aa82" stop-opacity=".415686"/><stop offset=".7511" stop-color="#169971" stop-opacity=".752941"/><stop offset="1" stop-color="#11936b"/></linearGradient><radialGradient id="i" cx="157.2030416658" cy="30.3384224478" gradientUnits="userSpaceOnUse" r="256.219968918"><stop offset="0" stop-color="#ff4974"/><stop offset=".3262" stop-color="#fe4672"/><stop offset=".5324" stop-color="#fb3e6c"/><stop offset=".7054" stop-color="#f52f60"/><stop offset=".8591" stop-color="#ee1a51"/><stop offset="1" stop-color="#e4003d"/></radialGradient><linearGradient id="j" gradientUnits="userSpaceOnUse" x1="250.6094504288" x2="184.6665326822" xlink:href="#e" y1="375.8600642474" y2="309.9171465008"/><linearGradient id="k" gradientUnits="userSpaceOnUse" x1="314.4704347318" x2="209.9279207916" xlink:href="#e" y1="427.3678887326" y2="322.8253747924"/><linearGradient id="l" gradientUnits="userSpaceOnUse" x1="363.6484574316" x2="260.3904616904" xlink:href="#e" y1="466.1135555772" y2="362.855559836"/><path d="m450.105469 512h-388.210938c-34.183593 0-61.894531-27.710938-61.894531-61.894531v-388.210938c0-34.183593 27.710938-61.894531 61.894531-61.894531h388.210938c34.183593 0 61.894531 27.710938 61.894531 61.894531v388.210938c0 34.183593-27.710938 61.894531-61.894531 61.894531zm0 0" fill="url(#a)"/><path d="m0 421.261719v28.84375c0 34.183593 27.710938 61.894531 61.894531 61.894531h388.210938c34.183593 0 61.894531-27.710938 61.894531-61.894531v-28.84375zm0 0" fill="url(#b)"/><path d="m512 450.105469v-257.136719l-92.066406-92.070312c-41.136719-43.460938-99.367188-70.582032-163.933594-70.582032-124.640625 0-225.683594 101.042969-225.683594 225.683594 0 64.566406 27.117188 122.796875 70.582032 163.933594l92.070312 92.066406h257.136719c34.183593 0 61.894531-27.710938 61.894531-61.894531zm0 0" fill="url(#c)"/><path d="m481.683594 256c0 124.640625-101.042969 225.683594-225.683594 225.683594s-225.683594-101.042969-225.683594-225.683594 101.042969-225.683594 225.683594-225.683594 225.683594 101.042969 225.683594 225.683594zm0 0" fill="url(#d)"/><path d="m96.410156 96.425781 319.171875 319.160157c40.839844-40.839844 66.101563-97.261719 66.101563-159.585938 0-57.035156-21.164063-109.117188-56.058594-148.851562-.207031-.195313-.40625-.398438-.613281-.597657-2.128907-2.21875-4.300781-4.390625-6.519531-6.519531-41.183594-42.871094-98.945313-69.714844-162.492188-69.714844-.09375 0-.1875.003906-.28125.003906-1.796875 0-3.585938.023438-5.375.066407-52.039062 1.304687-101.949219 20.585937-141.285156 54.328125-.136719.117187-.277344.230468-.414063.347656-1.160156 1-2.304687 2.019531-3.449219 3.046875-.246093.222656-.5.441406-.746093.664063-1.082031.980468-2.148438 1.976562-3.210938 2.980468-.285156.269532-.582031.535156-.867187.808594-1.332032 1.265625-2.652344 2.554688-3.957032 3.859375 0 0-.003906 0-.003906.003906zm0 0" fill="url(#f)"/><path d="m256 256-159.589844-159.574219c42.308594-42.3125 99.753906-66.109375 159.589844-66.109375 123.804688 0 225.683594 101.875 225.683594 225.683594zm0 0" fill="url(#g)"/><path d="m482.152344 255.195312c-.074219-18.066406-2.332032-35.65625-6.496094-52.523437l-167.546875-166.160156c-7.460937-1.773438-15.054687-3.175781-22.769531-4.179688-.621094-.082031-1.246094-.167969-1.871094-.242187-1.175781-.144532-2.359375-.269532-3.542969-.394532-.960937-.101562-1.917969-.199218-2.882812-.285156-.996094-.09375-2-.179687-3-.257812-1.164063-.089844-2.328125-.167969-3.492188-.242188-.867187-.054687-1.730469-.109375-2.601562-.15625-1.371094-.070312-2.742188-.121094-4.117188-.164062-.6875-.023438-1.375-.054688-2.066406-.070313-2.078125-.050781-4.15625-.074219-6.234375-.066406-50.488281.210937-99.203125 17.355469-138.5 48.230469-7.277344 5.714844-14.230469 11.902344-20.816406 18.542968l160.257812 158.90625zm0 0" fill="url(#h)"/><path d="m256 256-159.589844-159.574219c42.308594-42.3125 99.753906-66.109375 159.589844-66.109375 17.667969 0 35.273438 2.074219 52.457031 6.179688zm0 0" fill="url(#i)"/><path d="m378.542969 445.535156-149.582031-149.550781c-5.386719-4.308594-12.519532-6.464844-21.402344-6.464844-19.507813 0-29.261719 8.988281-29.261719 26.960938v32.441406c0 9.730469 2.882813 16.804687 8.601563 21.265625l108.359374 108.085938c30.269532-5.308594 58.453126-16.648438 83.285157-32.738282zm0 0" fill="url(#j)"/><path d="m424.488281 406.128906-122.476562-122.746094c-1.917969-1.605468-4.050781-2.410156-6.40625-2.410156-3.203125 0-5.390625 1.3125-6.554688 3.945313l-80.175781 161.054687c-.582031 1.023438-.875 2.121094-.875 3.289063 0 2.042969.808594 3.90625 2.429688 5.589843l25.976562 25.976563c6.460938.554687 12.992188.855469 19.59375.855469 66.992188 0 127.15625-29.199219 168.488281-75.554688zm0 0" fill="url(#k)"/><path d="m325.625 369.855469c-5.386719-4.308594-12.523438-6.46875-21.402344-6.46875-19.507812 0-29.261718 8.988281-29.261718 26.964843v32.4375c0 9.734376 2.882812 16.804688 8.601562 21.265626l30.15625 30.160156c28.707031-7.578125 55.175781-20.667969 78.203125-38.074219zm0 0" fill="url(#l)"/><g fill="#fffcf8"><path d="m178.296875 348.921875v-32.441406c0-17.972657 9.753906-26.960938 29.261719-26.960938 8.882812 0 16.015625 2.15625 21.402344 6.464844 5.382812 4.3125 8.078124 11.144531 8.078124 20.496094v32.441406c0 9.355469-2.695312 16.183594-8.078124 20.496094-5.386719 4.308593-12.519532 6.464843-21.402344 6.464843-19.507813 0-29.261719-8.988281-29.261719-26.960937zm15.5625-.367187c0 8.429687 4.566406 12.640624 13.699219 12.640624 9.277344 0 13.917968-4.210937 13.917968-12.640624v-31.707032c0-8.425781-4.640624-12.640625-13.917968-12.640625-9.136719 0-13.699219 4.214844-13.699219 12.640625zm0 0"/><path d="m208 449.261719c0-1.167969.292969-2.265625.871094-3.289063l80.179687-161.058594c1.164063-2.628906 3.347657-3.945312 6.554688-3.945312 2.355469 0 4.488281.808594 6.402343 2.414062 1.914063 1.609376 2.875 3.582032 2.875 5.917969 0 1.171875-.21875 2.339844-.65625 3.507813l-80.179687 160.398437c-1.3125 2.773438-3.789063 4.164063-7.429687 4.164063-2.507813 0-4.570313-.84375-6.1875-2.519532-1.621094-1.683593-2.429688-3.546874-2.429688-5.589843zm0 0"/><path d="m325.625 369.90625c-5.386719-4.34375-12.519531-6.519531-21.402344-6.519531-19.507812 0-29.261718 9.058593-29.261718 27.167969v32.6875c0 18.109374 9.753906 27.167968 29.261718 27.167968 8.882813 0 16.015625-2.171875 21.402344-6.515625 5.382812-4.34375 8.078125-11.226562 8.078125-20.652343v-32.6875c0-9.421876-2.695313-16.304688-8.078125-20.648438zm-7.484375 53.03125c0 8.523438-4.640625 12.785156-13.917969 12.785156-9.136718 0-13.699218-4.261718-13.699218-12.785156v-32.078125c0-8.519531 4.566406-12.785156 13.699218-12.785156 9.277344 0 13.917969 4.265625 13.917969 12.785156zm0 0"/></g></svg>