<svg height="511pt" viewBox="1 -66 511.99937 511" width="511pt" xmlns="http://www.w3.org/2000/svg" xmlns:xlink="http://www.w3.org/1999/xlink"><linearGradient id="a" gradientUnits="userSpaceOnUse" x1="174.260278799" x2="379.9455248264" y1="215.9686814364" y2="444.690524029"><stop offset="0" stop-color="#3b395f"/><stop offset=".0633" stop-color="#37355a"/><stop offset=".4033" stop-color="#232543"/><stop offset=".7232" stop-color="#171b35"/><stop offset="1" stop-color="#131830"/></linearGradient><linearGradient id="b"><stop offset="0" stop-color="#131830" stop-opacity="0"/><stop offset="1" stop-color="#131830"/></linearGradient><linearGradient id="c" gradientUnits="userSpaceOnUse" x1="516.1689057128" x2="453.2188802326" xlink:href="#b" y1="363.9273081496" y2="300.9771822772"/><linearGradient id="d" gradientUnits="userSpaceOnUse" x1="240.0330317666" x2="240.0330317666" xlink:href="#b" y1="342.8177398634" y2="396.8252297364"/><linearGradient id="e" gradientUnits="userSpaceOnUse" x1="507.3579842798" x2="436.740705309" xlink:href="#b" y1="413.3935568556" y2="342.7761774926"/><linearGradient id="f"><stop offset="0" stop-color="#fffcf8"/><stop offset=".1875" stop-color="#faf8f6"/><stop offset=".4041" stop-color="#eceef2"/><stop offset=".6353" stop-color="#d5dcea"/><stop offset=".875" stop-color="#b5c4df"/><stop offset="1" stop-color="#a1b5d8"/></linearGradient><linearGradient id="g" gradientUnits="userSpaceOnUse" x1="346.2420562268" x2="442.378731261" xlink:href="#f" y1="252.2775284104" y2="348.4143038368"/><linearGradient id="h"><stop offset="0" stop-color="#a1b5d8" stop-opacity="0"/><stop offset=".0343" stop-color="#9fb3d5" stop-opacity=".035294"/><stop offset=".4515" stop-color="#8898af" stop-opacity=".45098"/><stop offset=".788" stop-color="#798898" stop-opacity=".788235"/><stop offset="1" stop-color="#748290"/></linearGradient><linearGradient id="i" gradientUnits="userSpaceOnUse" x1="459.5831433594" x2="406.5702390118" xlink:href="#h" y1="341.8948343688" y2="288.8819300212"/><linearGradient id="j"><stop offset="0" stop-color="#00e7b2"/><stop offset=".2459" stop-color="#05e5b1"/><stop offset=".5301" stop-color="#13ddac"/><stop offset=".8322" stop-color="#2ad1a5"/><stop offset="1" stop-color="#3ac9a0"/></linearGradient><linearGradient id="k" gradientUnits="userSpaceOnUse" x1="420.6328772112" x2="420.6328772112" xlink:href="#j" y1="248.2835251256" y2="346.307673912"/><linearGradient id="l" gradientUnits="userSpaceOnUse" x1="174.260278799" x2="379.9455248264" y1="18.5579613174" y2="247.27980391"><stop offset="0" stop-color="#ff4974"/><stop offset=".3262" stop-color="#fe4672"/><stop offset=".5324" stop-color="#fb3e6c"/><stop offset=".7054" stop-color="#f52f60"/><stop offset=".8591" stop-color="#ee1a51"/><stop offset="1" stop-color="#e4003d"/></linearGradient><linearGradient id="m"><stop offset="0" stop-color="#e4003d" stop-opacity="0"/><stop offset=".5838" stop-color="#bd294b" stop-opacity=".584314"/><stop offset="1" stop-color="#a64153"/></linearGradient><linearGradient id="n" gradientUnits="userSpaceOnUse" x1="516.1689057128" x2="453.2188802326" xlink:href="#m" y1="166.5165880306" y2="103.5665625504"/><linearGradient id="o" gradientUnits="userSpaceOnUse" x1="240.0330317666" x2="240.0330317666" xlink:href="#m" y1="145.4071201366" y2="199.4145096174"/><linearGradient id="p" gradientUnits="userSpaceOnUse" x1="452.1635574262" x2="379.213966865" xlink:href="#m" y1="160.7883094908" y2="87.8387189296"/><linearGradient id="q" gradientUnits="userSpaceOnUse" x1="346.2420562268" x2="442.378731261" xlink:href="#f" y1="54.8669086836" y2="151.0035837178"/><linearGradient id="r"><stop offset="0" stop-color="#ffc738"/><stop offset=".4286" stop-color="#ffbb23"/><stop offset="1" stop-color="#ffa700"/></linearGradient><linearGradient id="s" gradientUnits="userSpaceOnUse" x1="44.0588236374" x2="225.1598269444" xlink:href="#r" y1="52.178104391" y2="52.178104391"/><linearGradient id="t" gradientUnits="userSpaceOnUse" x1="44.0588236374" x2="225.1598269444" xlink:href="#r" y1="91.6971927444" y2="91.6971927444"/><linearGradient id="u" gradientUnits="userSpaceOnUse" x1="44.0588236374" x2="188.2691067792" xlink:href="#r" y1="131.21638149" y2="131.21638149"/><linearGradient id="v" gradientUnits="userSpaceOnUse" x1="459.5831433594" x2="406.5702390118" xlink:href="#h" y1="144.4841142498" y2="91.4712099022"/><linearGradient id="w" gradientUnits="userSpaceOnUse" x1="420.6328772112" x2="420.6328772112" xlink:href="#j" y1="50.8729053988" y2="148.896953793"/><path d="m451.066406 380.304688h-422.066406c-16.015625 0-29-12.980469-29-29v-124.394532c0-16.015625 12.984375-29 29-29h422.066406c16.015625 0 29 12.984375 29 29v124.394532c0 16.019531-12.984375 29-29 29zm0 0" fill="url(#a)"/><path d="m480.066406 351.304688v-124.394532c0-2.097656-.226562-4.140625-.652344-6.113281l-77.984374 77.976563c-3.945313 3.957031-10.402344 3.957031-14.371094 0l-32.191406-32.195313c-5.855469-5.859375-15.355469-5.859375-21.210938 0-5.851562 5.863281-5.851562 15.359375 0 21.210937l92.515625 92.515626h24.894531c16.015625 0 29-12.980469 29-29zm0 0" fill="url(#c)"/><path d="m0 289.109375v62.199219c0 16.015625 12.984375 28.996094 29 28.996094h422.066406c16.015625 0 29-12.980469 29-28.996094v-62.199219zm0 0" fill="url(#d)"/><path d="m476.566406 365.128906c.445313-.820312.851563-1.667968 1.21875-2.535156.183594-.433594.359375-.871094.519532-1.316406.324218-.890625.609374-1.796875.847656-2.722656.238281-.929688.429687-1.871094.578125-2.832032.21875-1.441406.335937-2.914062.335937-4.417968v-80.4375l-38.046875-38.042969c-2.535156-3.339844-6.539062-5.503907-11.058593-5.503907h-95.78125c-7.675782 0-13.898438 6.222657-13.898438 13.898438v95.78125c0 4.515625 2.167969 8.519531 5.507812 11.054688l32.246094 32.25h92.03125c5.503906 0 10.652344-1.535157 15.035156-4.199219.796876-.484375 1.570313-1.003907 2.316407-1.5625.371093-.277344.734375-.5625 1.09375-.859375.714843-.589844 1.402343-1.214844 2.058593-1.871094 1.96875-1.96875 3.65625-4.21875 4.996094-6.683594zm0 0" fill="url(#e)"/><path d="m430.964844 350.894531h-95.785156c-7.671876 0-13.894532-6.21875-13.894532-13.894531v-95.78125c0-7.675781 6.222656-13.898438 13.894532-13.898438h95.785156c7.671875 0 13.894531 6.222657 13.894531 13.898438v95.78125c0 7.675781-6.222656 13.894531-13.894531 13.894531zm0 0" fill="url(#g)"/><g fill="#a1b5d8"><path d="m44.058594 241.59375h181.101562v15.992188h-181.101562zm0 0"/><path d="m44.058594 281.113281h181.101562v15.992188h-181.101562zm0 0"/><path d="m44.058594 320.628906h144.210937v15.992188h-144.210937zm0 0"/></g><path d="m430.964844 350.894531c7.671875 0 13.894531-6.21875 13.894531-13.894531v-81.648438l-43.429687 43.425782c-3.945313 3.957031-10.402344 3.957031-14.371094 0l-32.191406-32.195313c-5.855469-5.859375-15.355469-5.859375-21.210938 0-5.851562 5.859375-5.851562 15.355469 0 21.207031l63.105469 63.105469zm0 0" fill="url(#i)"/><path d="m507.605469 213.828125c5.859375 5.855469 5.859375 15.351563 0 21.210937l-84.960938 84.949219c-15.660156 15.660157-41.140625 15.660157-56.792969 0l-32.195312-32.195312c-5.855469-5.855469-5.855469-15.351563 0-21.207031 5.855469-5.863282 15.351562-5.863282 21.210938-.003907l32.191406 32.191407c3.960937 3.960937 10.417968 3.960937 14.371094 0l84.960937-84.953126c5.855469-5.855468 15.351563-5.855468 21.210937 0zm0 0" fill="url(#k)"/><path d="m451.066406 182.894531h-422.066406c-16.015625 0-29-12.984375-29-29v-124.394531c0-16.015625 12.984375-29 29-29h422.066406c16.015625 0 29 12.984375 29 29v124.394531c0 16.015625-12.984375 29-29 29zm0 0" fill="url(#l)"/><path d="m480.066406 153.894531v-124.394531c0-2.097656-.226562-4.140625-.652344-6.113281l-77.984374 77.976562c-3.945313 3.957031-10.402344 3.957031-14.371094 0l-32.191406-32.191406c-5.855469-5.863281-15.355469-5.863281-21.210938 0-5.851562 5.859375-5.851562 15.355469 0 21.207031l92.515625 92.515625h24.894531c16.015625 0 29-12.984375 29-29zm0 0" fill="url(#n)"/><path d="m0 91.695312v62.199219c0 16.015625 12.984375 29 29 29h422.066406c16.015625 0 29-12.984375 29-29v-62.199219zm0 0" fill="url(#o)"/><path d="m476.566406 167.71875c.445313-.820312.851563-1.667969 1.21875-2.535156.183594-.433594.359375-.871094.519532-1.316406.324218-.890626.609374-1.796876.847656-2.722657.238281-.929687.429687-1.871093.578125-2.832031.21875-1.441406.335937-2.914062.335937-4.417969v-80.4375l-38.046875-38.042969c-2.535156-3.339843-6.539062-5.503906-11.058593-5.503906h-95.78125c-7.675782 0-13.898438 6.222656-13.898438 13.894532v95.78125c0 4.519531 2.167969 8.519531 5.507812 11.058593l32.246094 32.25h92.03125c5.503906 0 10.652344-1.535156 15.035156-4.199219.796876-.484374 1.570313-1.003906 2.316407-1.5625.371093-.277343.734375-.566406 1.09375-.859374.714843-.59375 1.402343-1.21875 2.058593-1.871094 1.96875-1.96875 3.65625-4.21875 4.996094-6.683594zm0 0" fill="url(#p)"/><path d="m430.964844 153.484375h-95.785156c-7.671876 0-13.894532-6.222656-13.894532-13.894531v-95.785156c0-7.671876 6.222656-13.894532 13.894532-13.894532h95.785156c7.671875 0 13.894531 6.222656 13.894531 13.894532v95.785156c0 7.671875-6.222656 13.894531-13.894531 13.894531zm0 0" fill="url(#q)"/><path d="m44.058594 44.179688h181.101562v15.992187h-181.101562zm0 0" fill="url(#s)"/><path d="m44.058594 83.699219h181.101562v15.992187h-181.101562zm0 0" fill="url(#t)"/><path d="m44.058594 123.21875h144.210937v15.992188h-144.210937zm0 0" fill="url(#u)"/><path d="m430.964844 153.484375c7.671875 0 13.894531-6.222656 13.894531-13.894531v-81.648438l-43.429687 43.425782c-3.945313 3.953124-10.402344 3.953124-14.371094 0l-32.191406-32.195313c-5.855469-5.863281-15.355469-5.863281-21.210938 0-5.851562 5.859375-5.851562 15.355469 0 21.207031l63.105469 63.105469zm0 0" fill="url(#v)"/><path d="m507.605469 16.414062c5.859375 5.859376 5.859375 15.355469 0 21.210938l-84.960938 84.953125c-15.660156 15.660156-41.140625 15.660156-56.792969 0l-32.195312-32.199219c-5.855469-5.855468-5.855469-15.347656 0-21.207031s15.351562-5.859375 21.210938 0l32.191406 32.1875c3.960937 3.964844 10.417968 3.964844 14.371094 0l84.960937-84.949219c5.855469-5.859375 15.351563-5.855468 21.210937 0zm0 0" fill="url(#w)"/></svg>