<svg height="512pt" viewBox="0 -35 512 512" width="512pt" xmlns="http://www.w3.org/2000/svg" xmlns:xlink="http://www.w3.org/1999/xlink"><linearGradient id="a"><stop offset="0" stop-color="#ffc738"/><stop offset=".4286" stop-color="#ffbb23"/><stop offset="1" stop-color="#ffa700"/></linearGradient><linearGradient id="b" gradientUnits="userSpaceOnUse" x1="256.00011" x2="256.00011" xlink:href="#a" y1="15.1489978296" y2="77.242778236"/><linearGradient id="c"><stop offset="0" stop-color="#3b395f"/><stop offset=".0633" stop-color="#37355a"/><stop offset=".4033" stop-color="#232543"/><stop offset=".7232" stop-color="#171b35"/><stop offset="1" stop-color="#131830"/></linearGradient><linearGradient id="d" gradientTransform="matrix(0 1.003922 -1.003922 0 261.907476 -111.695912)" gradientUnits="userSpaceOnUse" x1="186.2607" x2="207.8683" xlink:href="#c" y1="103.979" y2="103.979"/><linearGradient id="e" gradientTransform="matrix(0 1.003922 -1.003922 0 261.907476 -111.695912)" gradientUnits="userSpaceOnUse" x1="186.2607" x2="207.8683" xlink:href="#c" y1="-92.2102" y2="-92.2102"/><linearGradient id="f"><stop offset="0" stop-color="#ff4974"/><stop offset=".3262" stop-color="#fe4672"/><stop offset=".5324" stop-color="#fb3e6c"/><stop offset=".7054" stop-color="#f52f60"/><stop offset=".8591" stop-color="#ee1a51"/><stop offset="1" stop-color="#e4003d"/></linearGradient><linearGradient id="g" gradientUnits="userSpaceOnUse" x1="174.9482665456" x2="443.2347755504" xlink:href="#f" y1="154.6578138532" y2="500.5059310872"/><linearGradient id="h"><stop offset="0" stop-color="#e4003d" stop-opacity="0"/><stop offset=".5838" stop-color="#bd294b" stop-opacity=".584314"/><stop offset="1" stop-color="#a64153"/></linearGradient><linearGradient id="i" gradientUnits="userSpaceOnUse" x1="280.0458489596" x2="244.6555906156" xlink:href="#h" y1="407.4609342442" y2="55.097262838"/><linearGradient id="j" gradientUnits="userSpaceOnUse" x1="256.00011" x2="256.00011" xlink:href="#f" y1="188.0494642796" y2="267.5046701852"/><linearGradient id="k" gradientUnits="userSpaceOnUse" x1="434.143057134" x2="365.3020173578" xlink:href="#h" y1="310.9445759096" y2="242.1035361334"/><linearGradient id="l" gradientUnits="userSpaceOnUse" x1="180.530775611" x2="111.6897358348" xlink:href="#h" y1="310.9445759096" y2="242.1035361334"/><linearGradient id="m" gradientUnits="userSpaceOnUse" x1="122.9429987094" x2="150.6820663148" xlink:href="#c" y1="259.6078197332" y2="259.6078197332"/><linearGradient id="n" gradientUnits="userSpaceOnUse" x1="376.5552802324" x2="404.2943478378" xlink:href="#c" y1="259.6078197332" y2="259.6078197332"/><linearGradient id="o" gradientUnits="userSpaceOnUse" x1="290.7100104046" x2="290.7100104046" xlink:href="#h" y1="244.7674431604" y2="79.4696780164"/><linearGradient id="p" gradientUnits="userSpaceOnUse" x1="256.00011" x2="256.00011" xlink:href="#a" y1="150.2375452872" y2="222.7516344848"/><linearGradient id="q" gradientTransform="matrix(-1.003922 0 0 -1.003922 512 317.204179)" gradientUnits="userSpaceOnUse" x1="255" x2="255" xlink:href="#a" y1="140.5467" y2="173.2276"/><linearGradient id="r" gradientUnits="userSpaceOnUse" x1="256.00011" x2="256.00011" xlink:href="#h" y1="390.9999263868" y2="457.7203817224"/><path d="m369.582031 88.785156h-28.671875v-2.035156c0-32.023438-26.054687-58.074219-58.074218-58.074219h-53.671876c-32.019531 0-58.070312 26.050781-58.070312 58.074219v2.035156h-28.675781v-2.035156c0-47.835938 38.914062-86.75 86.746093-86.75h53.671876c47.832031 0 86.746093 38.914062 86.746093 86.75zm0 0" fill="url(#b)"/><path d="m132.132812 80.28125v-.195312c0-9.398438 7.617188-17.015626 17.015626-17.015626h16.742187c9.398437 0 17.019531 7.617188 17.019531 17.015626v.195312c0 9.398438-7.621094 17.015625-17.019531 17.015625h-16.742187c-9.398438 0-17.015626-7.617187-17.015626-17.015625zm0 0" fill="url(#d)"/><path d="m329.089844 80.28125v-.195312c0-9.398438 7.621094-17.015626 17.019531-17.015626h16.742187c9.398438 0 17.015626 7.617188 17.015626 17.015626v.195312c0 9.398438-7.617188 17.015625-17.015626 17.015625h-16.742187c-9.398437 0-17.019531-7.617187-17.019531-17.015625zm0 0" fill="url(#e)"/><path d="m472.679688 441.328125h-433.359376c-21.714843 0-39.320312-17.601563-39.320312-39.320313v-285.734374c0-21.714844 17.605469-39.320313 39.320312-39.320313h433.359376c21.714843 0 39.320312 17.605469 39.320312 39.320313v285.734374c0 21.71875-17.605469 39.320313-39.320312 39.320313zm0 0" fill="url(#g)"/><path d="m13.957031 249.859375 191.46875 191.46875h267.253907c21.714843 0 39.320312-17.605469 39.320312-39.320313v-285.734374c0-9.664063-3.496094-18.511719-9.28125-25.359376-.4375-.519531-.890625-1.023437-1.355469-1.519531-.035156-.039062-.074219-.078125-.113281-.117187-.429688-.457032-.867188-.898438-1.320312-1.332032-.058594-.058593-.117188-.113281-.175782-.171874-.441406-.414063-.886718-.820313-1.34375-1.214844-.066406-.058594-.136718-.117188-.203125-.175782-.460937-.394531-.929687-.777343-1.410156-1.152343-.0625-.046875-.125-.097657-.1875-.144531-.507813-.390626-1.027344-.769532-1.550781-1.136719-.035156-.023438-.066406-.046875-.101563-.070313-1.714843-1.183594-3.523437-2.230468-5.417969-3.132812-.058593-.023438-.113281-.046875-.167968-.074219-.550782-.257813-1.113282-.507813-1.679688-.742187-.160156-.066407-.324218-.128907-.488281-.191407-.460937-.183593-.929687-.363281-1.402344-.53125-.214843-.074219-.425781-.144531-.640625-.214843-.429687-.144532-.863281-.285157-1.300781-.414063-.242187-.070313-.484375-.140625-.726563-.207031-.417968-.117188-.839843-.222656-1.265624-.324219-.257813-.0625-.515626-.125-.777344-.179687-.417969-.09375-.835938-.171876-1.261719-.253907-.265625-.046875-.53125-.097656-.800781-.140625-.429688-.070312-.867188-.128906-1.300782-.183594-.261718-.035156-.527343-.074218-.789062-.101562-.472656-.050781-.953125-.085938-1.429688-.121094-.226562-.015625-.457031-.039062-.683593-.050781-.710938-.039063-1.425781-.0625-2.144531-.0625h-433.359376c-11.535156 0-21.914062 4.96875-29.105468 12.882813-.847656.929687-1.648438 1.902343-2.402344 2.914062-2.265625 3.027344-4.101562 6.390625-5.425781 10.003906-.441407 1.207032-.824219 2.4375-1.148438 3.695313-.324219 1.253906-.585937 2.535156-.785156 3.835937-.296875 1.953125-.453125 3.953125-.453125 5.988282v103.546874c0 12.050782 5.425781 22.828126 13.957031 30.039063zm0 0" fill="url(#i)"/><path d="m472.679688 76.953125h-433.359376c-21.714843 0-39.320312 17.605469-39.320312 39.320313v103.546874c0 21.71875 17.605469 39.320313 39.320312 39.320313h433.359376c21.714843 0 39.320312-17.601563 39.320312-39.320313v-103.546874c0-21.714844-17.605469-39.320313-39.320312-39.320313zm0 0" fill="url(#j)"/><path d="m398.804688 234.046875c-3.972657-4.238281-9.605469-6.90625-15.875-6.90625h-.246094c-12.019532 0-21.761719 9.742187-21.761719 21.761719v21.410156c0 6.269531 2.667969 11.902344 6.90625 15.871094l50.972656 50.972656c3.96875 4.242188 9.605469 6.90625 15.875 6.90625h.242188c12.019531 0 21.765625-9.742188 21.765625-21.761719v-21.410156c0-6.269531-2.667969-11.902344-6.910156-15.875zm0 0" fill="url(#k)"/><path d="m145.191406 234.046875c-3.972656-4.238281-9.605468-6.90625-15.875-6.90625h-.246094c-12.019531 0-21.761718 9.742187-21.761718 21.761719v21.410156c0 6.269531 2.667968 11.902344 6.910156 15.871094l50.96875 50.972656c3.972656 4.242188 9.605469 6.90625 15.875 6.90625h.246094c12.019531 0 21.761718-9.742188 21.761718-21.761719v-21.410156c0-6.269531-2.667968-11.902344-6.910156-15.875zm0 0" fill="url(#l)"/><path d="m129.316406 292.074219h-.246094c-12.019531 0-21.761718-9.742188-21.761718-21.761719v-21.410156c0-12.019532 9.742187-21.761719 21.761718-21.761719h.246094c12.019532 0 21.761719 9.742187 21.761719 21.761719v21.410156c0 12.019531-9.742187 21.761719-21.761719 21.761719zm0 0" fill="url(#m)"/><path d="m382.929688 292.074219h-.246094c-12.019532 0-21.761719-9.742188-21.761719-21.761719v-21.410156c0-12.019532 9.742187-21.761719 21.761719-21.761719h.246094c12.019531 0 21.761718 9.742187 21.761718 21.761719v21.410156c0 12.019531-9.742187 21.761719-21.761718 21.761719zm0 0" fill="url(#n)"/><path d="m340.0625 149.226562c-2.105469-2.492187-5.25-4.078124-8.765625-4.078124h-150.59375c-6.339844 0-11.480469 5.140624-11.480469 11.480468v22.835938c0 3.519531 1.585938 6.660156 4.074219 8.765625 0 0 67.570313 67.644531 68.058594 68.0625 2.109375 2.488281 5.25 4.074219 8.769531 4.074219h150.59375c6.339844 0 11.480469-5.140626 11.480469-11.480469v-22.835938c0-3.515625-1.585938-6.660156-4.074219-8.765625zm0 0" fill="url(#o)"/><path d="m331.296875 190.945312h-150.59375c-6.339844 0-11.480469-5.140624-11.480469-11.480468v-22.835938c0-6.339844 5.140625-11.480468 11.480469-11.480468h150.59375c6.339844 0 11.480469 5.140624 11.480469 11.480468v22.835938c0 6.34375-5.140625 11.480468-11.480469 11.480468zm0 0" fill="url(#p)"/><path d="m221.933594 157.6875h68.132812c2.871094 0 5.195313 2.324219 5.195313 5.195312v10.332032c0 2.867187-2.324219 5.195312-5.195313 5.195312h-68.132812c-2.871094 0-5.195313-2.328125-5.195313-5.195312v-10.332032c0-2.871093 2.324219-5.195312 5.195313-5.195312zm0 0" fill="url(#q)"/><path d="m0 344.0625v57.945312c0 21.71875 17.605469 39.320313 39.320312 39.320313h433.359376c21.714843 0 39.320312-17.601563 39.320312-39.320313v-57.945312zm0 0" fill="url(#r)"/></svg>