<svg height="512pt" viewBox="0 -32 512 512" width="512pt" xmlns="http://www.w3.org/2000/svg" xmlns:xlink="http://www.w3.org/1999/xlink"><linearGradient id="a" gradientUnits="userSpaceOnUse" x1="388.637280718" x2="467.3047090302" y1="310.2212485466" y2="410.8692478722"><stop offset="0" stop-color="#ff4974"/><stop offset=".3262" stop-color="#fe4672"/><stop offset=".5324" stop-color="#fb3e6c"/><stop offset=".7054" stop-color="#f52f60"/><stop offset=".8591" stop-color="#ee1a51"/><stop offset="1" stop-color="#e4003d"/></linearGradient><linearGradient id="b"><stop offset="0" stop-color="#ffc738"/><stop offset=".4286" stop-color="#ffbb23"/><stop offset="1" stop-color="#ffa700"/></linearGradient><linearGradient id="c" gradientUnits="userSpaceOnUse" x1="332.2934635666" x2="463.0543040666" xlink:href="#b" y1="362.7935315284" y2="362.7935315284"/><linearGradient id="d" gradientUnits="userSpaceOnUse" x1="332.2934635666" x2="463.0543040666" xlink:href="#b" y1="305.78361213" y2="305.78361213"/><linearGradient id="e"><stop offset="0" stop-color="#3b395f"/><stop offset=".0633" stop-color="#37355a"/><stop offset=".4033" stop-color="#232543"/><stop offset=".7232" stop-color="#171b35"/><stop offset="1" stop-color="#131830"/></linearGradient><linearGradient id="f" gradientUnits="userSpaceOnUse" x1="187.3836475752" x2="227.8721230118" xlink:href="#e" y1="344.305103192" y2="416.172365445"/><linearGradient id="g"><stop offset="0" stop-color="#ffc738"/><stop offset=".4873" stop-color="#ffc636"/><stop offset=".6746" stop-color="#ffc22f"/><stop offset=".8103" stop-color="#ffbb23"/><stop offset=".9203" stop-color="#ffb112"/><stop offset="1" stop-color="#ffa700"/></linearGradient><radialGradient id="h" cx="425.1744195548" cy="108.8453377042" gradientUnits="userSpaceOnUse" r="95.6309995228" xlink:href="#g"/><radialGradient id="i" cx="294.7611368512" cy="229.7086115984" gradientUnits="userSpaceOnUse" r="63.8345811544" xlink:href="#g"/><linearGradient id="j" gradientUnits="userSpaceOnUse" x1="408.9975216234" x2="284.384498667" y1="336.6621446138" y2="212.0490212652"><stop offset="0" stop-color="#e4003d" stop-opacity="0"/><stop offset=".5838" stop-color="#bd294b" stop-opacity=".584314"/><stop offset="1" stop-color="#a64153"/></linearGradient><linearGradient id="k" gradientUnits="userSpaceOnUse" x1="157.0793584754" x2="234.278751647" y1="97.3651884576" y2="244.7459576676"><stop offset="0" stop-color="#00e7b2"/><stop offset=".2459" stop-color="#05e5b1"/><stop offset=".5301" stop-color="#13ddac"/><stop offset=".8322" stop-color="#2ad1a5"/><stop offset="1" stop-color="#3ac9a0"/></linearGradient><linearGradient id="l" gradientUnits="userSpaceOnUse" x1="65.6551937014" x2="297.350151297" xlink:href="#e" y1="84.4400942764" y2="84.4400942764"/><linearGradient id="m" gradientUnits="userSpaceOnUse" x1="65.6551937014" x2="297.350151297" xlink:href="#e" y1="134.9995136482" y2="134.9995136482"/><linearGradient id="n" gradientUnits="userSpaceOnUse" x1="65.6551937014" x2="250.1533686642" xlink:href="#e" y1="185.5591338044" y2="185.5591338044"/><path d="m512 321.78125c0-59.273438-51.1875-107.328125-114.328125-107.328125s-114.324219 48.054687-114.324219 107.328125c0 59.277344 51.183594 107.328125 114.324219 107.328125 2.933594 0 5.835937-.105469 8.710937-.308594 3.75-.265625 7.421876 1.171875 10.078126 3.832031l12.414062 12.414063c5.449219 5.445313 14.761719 1.589844 14.761719-6.117187v-10.484376c0-4.988281 2.882812-9.488281 7.351562-11.703124 36.28125-17.988282 61.011719-53.761719 61.011719-94.960938zm0 0" fill="url(#a)"/><path d="m332.292969 353.820312h130.761719v17.945313h-130.761719zm0 0" fill="url(#c)"/><path d="m332.292969 290.285156h130.761719v30.996094h-130.761719zm0 0" fill="url(#d)"/><path d="m140.449219 358.359375c0-28.441406 24.554687-51.496094 54.851562-51.496094 30.292969 0 54.851563 23.054688 54.851563 51.496094s-24.558594 51.496094-54.851563 51.496094c-1.40625 0-2.800781-.050781-4.179687-.148438-1.796875-.128906-3.558594.5625-4.835938 1.835938l-5.953125 5.957031c-2.613281 2.613281-7.085937.761719-7.085937-2.933594v-5.03125c0-2.394531-1.378906-4.554687-3.523438-5.617187-17.410156-8.628907-29.273437-25.792969-29.273437-45.558594zm0 0" fill="url(#f)"/><path d="m494.46875 135.933594c0-28.4375-24.554688-51.492188-54.851562-51.492188-30.292969 0-54.851563 23.054688-54.851563 51.492188 0 28.441406 24.558594 51.496094 54.851563 51.496094 1.40625 0 2.800781-.050782 4.179687-.148438 1.796875-.125 3.5625.5625 4.835937 1.839844l5.953126 5.953125c2.613281 2.613281 7.085937.765625 7.085937-2.933594v-5.03125c0-2.394531 1.382813-4.550781 3.523437-5.613281 17.410157-8.628906 29.273438-25.792969 29.273438-45.5625zm0 0" fill="url(#h)"/><path d="m288.835938 288.390625-62.675782-46.859375 89.679688-70.503906 47.523437 48.105468-.714843.703126-46.894532-47.464844-87.945312 69.140625 61.628906 46.074219zm0 0" fill="url(#i)"/><path d="m504.230469 360.710938-141.222657-141.226563c-.003906 0-.003906 0-.003906 0l-73.867187 68.503906 153.960937 153.960938c.335938-.921875.539063-1.925781.539063-3.015625v-10.488282c0-4.988281 2.882812-9.488281 7.351562-11.703124 24.1875-11.992188 43.226563-31.894532 53.242188-56.03125zm0 0" fill="url(#j)"/><path d="m309.199219 0h-255.390625c-29.71875 0-53.808594 24.089844-53.808594 53.808594v180.375c0 26.976562 19.859375 49.308594 45.757812 53.191406 4.113282.617188 7.199219 4.066406 7.199219 8.222656v20.609375c0 13.175781 15.933594 19.773438 25.25 10.457031l19.894531-19.894531c12.023438-12.023437 28.335938-18.78125 45.339844-18.78125h165.757813c29.714843 0 53.804687-24.089843 53.804687-53.808593v-180.375c0-29.714844-24.089844-53.804688-53.804687-53.804688zm0 0" fill="url(#k)"/><path d="m65.65625 74.210938h231.695312v20.460937h-231.695312zm0 0" fill="url(#l)"/><path d="m65.65625 124.769531h231.695312v20.460938h-231.695312zm0 0" fill="url(#m)"/><path d="m65.65625 175.328125h184.496094v20.460937h-184.496094zm0 0" fill="url(#n)"/></svg>