<svg height="512pt" viewBox="-44 0 512 512.0005" width="512pt" xmlns="http://www.w3.org/2000/svg" xmlns:xlink="http://www.w3.org/1999/xlink"><linearGradient id="a"><stop offset="0" stop-color="#3b395f"/><stop offset=".0633" stop-color="#37355a"/><stop offset=".4033" stop-color="#232543"/><stop offset=".7232" stop-color="#171b35"/><stop offset="1" stop-color="#131830"/></linearGradient><linearGradient id="b" gradientUnits="userSpaceOnUse" x1="211.796802" x2="211.796802" xlink:href="#a" y1="12.34322099" y2="94.3996891898"/><linearGradient id="c" gradientUnits="userSpaceOnUse" x1="165.4891930826" x2="69.410042779" y1="106.263637817" y2="10.1844875134"><stop offset="0" stop-color="#131830" stop-opacity="0"/><stop offset="1" stop-color="#131830"/></linearGradient><linearGradient id="d"><stop offset="0" stop-color="#fffcf8"/><stop offset=".1875" stop-color="#faf8f6"/><stop offset=".4041" stop-color="#eceef2"/><stop offset=".6353" stop-color="#d5dcea"/><stop offset=".875" stop-color="#b5c4df"/><stop offset="1" stop-color="#a1b5d8"/></linearGradient><linearGradient id="e" gradientUnits="userSpaceOnUse" x1="211.796802" x2="211.796802" xlink:href="#d" y1="36.0625849074" y2="63.9436070836"/><linearGradient id="f" gradientUnits="userSpaceOnUse" x1="161.7792997238" x2="82.8486430632" y1="86.619394082" y2="7.6887374214"><stop offset="0" stop-color="#a1b5d8" stop-opacity="0"/><stop offset=".0421" stop-color="#9db1d2" stop-opacity=".043137"/><stop offset=".2868" stop-color="#8b9cb5" stop-opacity=".286275"/><stop offset=".53" stop-color="#7e8ea1" stop-opacity=".529412"/><stop offset=".7693" stop-color="#778594" stop-opacity=".768627"/><stop offset="1" stop-color="#748290"/></linearGradient><linearGradient id="g"><stop offset="0" stop-color="#ff4974"/><stop offset=".3262" stop-color="#fe4672"/><stop offset=".5324" stop-color="#fb3e6c"/><stop offset=".7054" stop-color="#f52f60"/><stop offset=".8591" stop-color="#ee1a51"/><stop offset="1" stop-color="#e4003d"/></linearGradient><linearGradient id="h" gradientUnits="userSpaceOnUse" x1="211.796802" x2="211.796802" xlink:href="#g" y1="68.743056989" y2="95.8295752944"/><linearGradient id="i" gradientUnits="userSpaceOnUse" x1="188.398893907" x2="96.5680403308" y1="129.171631974" y2="37.3406780056"><stop offset="0" stop-color="#e4003d" stop-opacity="0"/><stop offset=".5838" stop-color="#bd294b" stop-opacity=".584314"/><stop offset="1" stop-color="#a64153"/></linearGradient><linearGradient id="j" gradientTransform="matrix(.910456 -.422952 .422952 .910456 -84.454841 122.013315)" gradientUnits="userSpaceOnUse" x1="163.0324" x2="163.0324" xlink:href="#a" y1="7.1567" y2="251.9367"/><linearGradient id="k" gradientTransform="matrix(.910456 -.422952 .422952 .910456 -84.454841 122.013315)" gradientUnits="userSpaceOnUse" x1="163.0324" x2="163.0324" xlink:href="#d" y1="7.1567" y2="251.9367"/><linearGradient id="l" gradientTransform="matrix(.910456 -.422952 .422952 .910456 -84.454841 122.013315)" gradientUnits="userSpaceOnUse" x1="204.617" x2="204.617" xlink:href="#g" y1="7.1558" y2="251.9415"/><linearGradient id="m" gradientTransform="matrix(-.910456 -.422952 -.422952 .910456 329.773539 122.013315)" gradientUnits="userSpaceOnUse" x1="1.9837" x2="1.9837" xlink:href="#a" y1="-67.6588" y2="177.1213"/><linearGradient id="n" gradientTransform="matrix(-.910456 -.422952 -.422952 .910456 329.773539 122.013315)" gradientUnits="userSpaceOnUse" x1="1.9837" x2="1.9837" xlink:href="#d" y1="-67.6588" y2="177.1213"/><linearGradient id="o" gradientTransform="matrix(-.910456 -.422952 -.422952 .910456 329.773539 122.013315)" gradientUnits="userSpaceOnUse" x1="43.5683" x2="43.5683" xlink:href="#g" y1="-67.6596" y2="177.126"/><linearGradient id="p"><stop offset="0" stop-color="#ffc738"/><stop offset=".4873" stop-color="#ffc636"/><stop offset=".6746" stop-color="#ffc22f"/><stop offset=".8103" stop-color="#ffbb23"/><stop offset=".9203" stop-color="#ffb112"/><stop offset="1" stop-color="#ffa700"/></linearGradient><radialGradient id="q" cx="172.632298897" cy="296.6582482546" gradientUnits="userSpaceOnUse" r="212.0582432756" xlink:href="#p"/><linearGradient id="r" gradientTransform="matrix(-1.003922 0 0 -1.003922 -1668.548406 -6965.207843)" gradientUnits="userSpaceOnUse" x1="-1932.6047" x2="-1769.9573" y1="-7347.834" y2="-7185.1865"><stop offset="0" stop-color="#fff465"/><stop offset="1" stop-color="#ffe600"/></linearGradient><radialGradient id="s" cx="211.796802" cy="351.6026985302" gradientUnits="userSpaceOnUse" r="126.1589624442"><stop offset="0" stop-color="#fffcf8"/><stop offset=".9485" stop-color="#fffcf8" stop-opacity=".05098"/><stop offset="1" stop-color="#fffcf8" stop-opacity="0"/></radialGradient><radialGradient id="t" cx="211.796802" cy="351.6026985302" gradientUnits="userSpaceOnUse" r="105.1072200652" xlink:href="#p"/><radialGradient id="u" cx="200.5678340378" cy="267.3488458568" gradientUnits="userSpaceOnUse" r="178.3289738806" xlink:href="#p"/><linearGradient id="v" gradientUnits="userSpaceOnUse" x1="333.8638787644" x2="56.501111742" y1="419.1045063584" y2="315.5013622336"><stop offset="0" stop-color="#e58200" stop-opacity="0"/><stop offset=".1879" stop-color="#e07d07" stop-opacity=".188235"/><stop offset=".4612" stop-color="#d16d1a" stop-opacity=".462745"/><stop offset=".7853" stop-color="#b9553a" stop-opacity=".784314"/><stop offset="1" stop-color="#a64153"/></linearGradient><linearGradient id="w" gradientUnits="userSpaceOnUse" x1="181.2126194466" x2="219.3783205518" xlink:href="#a" y1="349.5296999924" y2="349.5296999924"/><path d="m107.488281 0h208.617188v96.539062h-208.617188zm0 0" fill="url(#b)"/><path d="m107.503906 0h-.015625v96.539062h96.554688zm0 0" fill="url(#c)"/><path d="m107.488281 31.867188h208.617188v32.804687h-208.617188zm0 0" fill="url(#e)"/><path d="m139.371094 31.867188h-31.882813v32.804687h64.6875zm0 0" fill="url(#f)"/><path d="m107.488281 64.667969h208.617188v31.867187h-208.617188zm0 0" fill="url(#h)"/><path d="m107.488281 96.535156h96.550781l-31.867187-31.867187h-64.683594zm0 0" fill="url(#i)"/><path d="m229.308594 262.203125-112.136719 52.09375-115.851563-249.390625c-3.289062-7.074219-.21875-15.476562 6.859376-18.761719l99.324218-46.14062475zm0 0" fill="url(#j)"/><path d="m192.890625 279.121094-39.300781 18.257812-121.804688-262.203125 39.300782-18.253906zm0 0" fill="url(#k)"/><path d="m107.503906 0 121.808594 262.207031-36.414062 16.917969-121.808594-262.207031zm0 0" fill="url(#l)"/><path d="m194.285156 262.203125 112.136719 52.09375 115.851563-249.390625c3.289062-7.074219.21875-15.476562-6.859376-18.761719l-99.324218-46.14062475zm0 0" fill="url(#m)"/><path d="m230.703125 279.121094 39.300781 18.257812 121.804688-262.203125-39.300782-18.253906zm0 0" fill="url(#n)"/><path d="m316.089844 0-121.808594 262.207031 36.414062 16.917969 121.808594-262.207031zm0 0" fill="url(#o)"/><path d="m369.757812 358.613281-13.082031 16.566407c-2.25 2.851562-2.996093 6.609374-2.003906 10.105468l5.765625 20.285156c1.4375 5.050782-.792969 10.421876-5.378906 12.976563l-18.421875 10.261719c-3.175781 1.765625-5.308594 4.953125-5.730469 8.566406l-2.457031 20.960938c-.609375 5.203124-4.714844 9.308593-9.921875 9.917968l-20.957032 2.457032c-3.613281.421874-6.800781 2.554687-8.570312 5.730468l-10.257812 18.425782c-2.554688 4.585937-7.929688 6.8125-12.980469 5.375l-20.285157-5.761719c-3.492187-.996094-7.25-.25-10.101562 2l-16.566406 13.085937c-4.113282 3.246094-9.914063 3.246094-14.023438 0l-16.570312-13.085937c-2.847656-2.25-6.609375-2.996094-10.101563-2l-20.289062 5.761719c-5.046875 1.4375-10.421875-.789063-12.976563-5.375l-10.257812-18.425782c-1.769532-3.175781-4.957032-5.308594-8.566406-5.730468l-20.960938-2.457032c-5.203125-.609375-9.308594-4.714844-9.921875-9.917968l-2.453125-20.960938c-.421875-3.613281-2.558594-6.800781-5.734375-8.570312l-18.421875-10.257813c-4.585938-2.554687-6.8125-7.929687-5.378906-12.976563l5.765625-20.285156c.992187-3.496094.25-7.253906-2.003907-10.105468l-13.082031-16.566407c-3.246093-4.113281-3.246093-9.914062 0-14.023437l13.082031-16.566406c2.253907-2.851563 2.996094-6.609376 2.003907-10.105469l-5.765625-20.285157c-1.433594-5.050781.792968-10.425781 5.378906-12.976562l18.421875-10.261719c3.175781-1.769531 5.3125-4.953125 5.734375-8.566406l2.453125-20.960937c.609375-5.203126 4.71875-9.308594 9.921875-9.917969l20.960938-2.457031c3.609374-.421876 6.796874-2.554688 8.566406-5.730469l10.261718-18.425781c2.550782-4.585938 7.925782-6.8125 12.976563-5.378907l20.285156 5.765625c3.496094.996094 7.253907.25 10.105469-2.003906l16.566406-13.082031c4.109375-3.246094 9.910156-3.246094 14.023438 0l16.566406 13.082031c2.851562 2.253906 6.609375 3 10.105469 2.003906l20.285156-5.765625c5.050781-1.433593 10.421875.792969 12.976563 5.378907l10.257812 18.425781c1.769531 3.175781 4.957031 5.308593 8.570312 5.730469l20.957032 2.457031c5.207031.609375 9.3125 4.714843 9.921875 9.917969l2.457031 20.960937c.421875 3.613281 2.554688 6.800781 5.730469 8.570313l18.421875 10.257812c4.589844 2.554688 6.816406 7.925781 5.378906 12.976562l-5.765625 20.285157c-.992187 3.496093-.246094 7.253906 2.003906 10.105469l13.082031 16.566406c3.246094 4.113281 3.246094 9.914062 0 14.023437zm0 0" fill="url(#q)"/><path d="m316.902344 351.601562c0 58.050782-47.054688 105.109376-105.105469 105.109376s-105.109375-47.058594-105.109375-105.109376c0-58.046874 47.058594-105.105468 105.109375-105.105468s105.105469 47.058594 105.105469 105.105468zm0 0" fill="url(#r)"/><path d="m354.527344 351.601562c0 78.828126-63.902344 142.734376-142.730469 142.734376s-142.730469-63.90625-142.730469-142.734376c0-78.828124 63.902344-142.730468 142.730469-142.730468s142.730469 63.902344 142.730469 142.730468zm0 0" fill="url(#s)"/><path d="m316.902344 351.601562c0 58.050782-47.054688 105.109376-105.105469 105.109376s-105.109375-47.058594-105.109375-105.109376c0-58.046874 47.058594-105.105468 105.109375-105.105468s105.105469 47.058594 105.105469 105.105468zm0 0" fill="url(#t)"/><path d="m297.4375 351.601562c0 47.300782-38.339844 85.644532-85.640625 85.644532s-85.644531-38.34375-85.644531-85.644532c0-47.296874 38.34375-85.640624 85.644531-85.640624s85.640625 38.34375 85.640625 85.640624zm0 0" fill="url(#u)"/><path d="m315.339844 464.425781c4.714844-.554687 8.433594-4.273437 8.988281-8.988281l2.222656-18.996094c.382813-3.269531 2.316407-6.160156 5.195313-7.761718l16.695312-9.296876c1.3125-.734374 2.414063-1.722656 3.261719-2.875l-135.105469-135.351562c-1.855468-1.210938-3.929687-1.820312-6.234375-1.820312-2.046875 0-3.769531.703124-5.175781 2.109374l-19.945312 19.179688c-2.6875 1.917969-4.027344 4.539062-4.027344 7.863281 0 2.046875.671875 3.929688 2.011718 5.65625l15.824219 15.882813v82.984375c0 2.046875.988281 3.679687 2.972657 4.894531.132812.082031.273437.152344.414062.230469l73.707031 73.847656c1.265625-.871094 2.355469-2.03125 3.140625-3.445313l9.296875-16.691406c1.601563-2.878906 4.492188-4.8125 7.765625-5.195312zm0 0" fill="url(#v)"/><path d="m181.210938 308.488281c0-3.324219 1.34375-5.945312 4.027343-7.863281l19.949219-19.179688c1.402344-1.40625 3.128906-2.109374 5.175781-2.109374 2.300781 0 4.378907.605468 6.234375 1.820312 1.851563 1.214844 2.78125 2.847656 2.78125 4.890625v126.964844c0 2.046875-1.027344 3.675781-3.070312 4.890625-2.046875 1.214844-4.410156 1.820312-7.097656 1.820312-2.8125 0-5.210938-.605468-7.191407-1.820312-1.984375-1.214844-2.972656-2.84375-2.972656-4.890625v-106.636719l-6.710937 8.441406c-1.28125 1.277344-2.6875 1.917969-4.222657 1.917969-1.914062 0-3.546875-.863281-4.890625-2.589844-1.339844-1.726562-2.011718-3.609375-2.011718-5.65625zm0 0" fill="url(#w)"/></svg>