<svg height="512pt" viewBox="0 -6 512.00021 512" width="512pt" xmlns="http://www.w3.org/2000/svg" xmlns:xlink="http://www.w3.org/1999/xlink"><linearGradient id="a"><stop offset="0" stop-color="#ff4974"/><stop offset=".3262" stop-color="#fe4672"/><stop offset=".5324" stop-color="#fb3e6c"/><stop offset=".7054" stop-color="#f52f60"/><stop offset=".8591" stop-color="#ee1a51"/><stop offset="1" stop-color="#e4003d"/></linearGradient><linearGradient id="b" gradientUnits="userSpaceOnUse" x1="336.8878540308" x2="433.6179473592" xlink:href="#a" y1="77.2851350362" y2="174.0153287568"/><linearGradient id="c"><stop offset="0" stop-color="#e4003d" stop-opacity="0"/><stop offset=".5838" stop-color="#bd294b" stop-opacity=".584314"/><stop offset="1" stop-color="#a64153"/></linearGradient><linearGradient id="d" gradientUnits="userSpaceOnUse" x1="400.9814470612" x2="295.8748293492" xlink:href="#c" y1="106.062458774" y2="106.062458774"/><linearGradient id="e" gradientUnits="userSpaceOnUse" x1="279.1553115768" x2="389.0877823428" xlink:href="#a" y1="52.2699086012" y2="162.2024797594"/><linearGradient id="f" gradientUnits="userSpaceOnUse" x1="325.8636861566" x2="357.9732277968" xlink:href="#c" y1="132.3404183006" y2="164.4499599408"/><linearGradient id="g" gradientUnits="userSpaceOnUse" x1="232.6744257222" x2="274.4688028964" y1="121.056535805" y2="121.056535805"><stop offset="0" stop-color="#00e7b2"/><stop offset=".2459" stop-color="#05e5b1"/><stop offset=".5301" stop-color="#13ddac"/><stop offset=".8322" stop-color="#2ad1a5"/><stop offset="1" stop-color="#3ac9a0"/></linearGradient><linearGradient id="h"><stop offset="0" stop-color="#fffcf8"/><stop offset=".1875" stop-color="#faf8f6"/><stop offset=".4041" stop-color="#eceef2"/><stop offset=".6353" stop-color="#d5dcea"/><stop offset=".875" stop-color="#b5c4df"/><stop offset="1" stop-color="#a1b5d8"/></linearGradient><linearGradient id="i" gradientUnits="userSpaceOnUse" x1="287.69427054" x2="501.9580300574" xlink:href="#h" y1="342.8482044394" y2="557.1119639568"/><linearGradient id="j" gradientUnits="userSpaceOnUse" x1="429.6389025122" x2="281.6786695238" y1="423.071912636" y2="365.4997969176"><stop offset="0" stop-color="#a1b5d8" stop-opacity="0"/><stop offset=".3911" stop-color="#8c9db6" stop-opacity=".392157"/><stop offset=".7756" stop-color="#7a899a" stop-opacity=".776471"/><stop offset="1" stop-color="#748290"/></linearGradient><linearGradient id="k"><stop offset="0" stop-color="#3b395f"/><stop offset=".0633" stop-color="#37355a"/><stop offset=".4033" stop-color="#232543"/><stop offset=".7232" stop-color="#171b35"/><stop offset="1" stop-color="#131830"/></linearGradient><linearGradient id="l" gradientUnits="userSpaceOnUse" x1="389.0589697814" x2="444.8087662854" xlink:href="#k" y1="319.6892297824" y2="375.4390262864"/><linearGradient id="m" gradientUnits="userSpaceOnUse" x1="24.7837638452" x2="229.563171052" xlink:href="#h" y1="353.6468914324" y2="558.4262986392"/><linearGradient id="n" gradientUnits="userSpaceOnUse" x1="106.82266341" x2="155.9567143262" xlink:href="#k" y1="341.1004766296" y2="390.2344271536"/><linearGradient id="o" gradientUnits="userSpaceOnUse" x1="109.6462944272" x2="412.8945878664" xlink:href="#h" y1="294.4422981498" y2="597.690591589"/><linearGradient id="p" gradientUnits="userSpaceOnUse" x1="300.452111316" x2="231.8278182996" y1="395.3110599232" y2="142.9001718576"><stop offset="0" stop-color="#a1b5d8" stop-opacity="0"/><stop offset=".0421" stop-color="#9db1d2" stop-opacity=".043137"/><stop offset=".2868" stop-color="#8b9cb5" stop-opacity=".286275"/><stop offset=".53" stop-color="#7e8ea1" stop-opacity=".529412"/><stop offset=".7693" stop-color="#778594" stop-opacity=".768627"/><stop offset="1" stop-color="#748290"/></linearGradient><linearGradient id="q" gradientUnits="userSpaceOnUse" x1="242.3595624328" x2="315.1198133048" xlink:href="#k" y1="264.6371590684" y2="337.3974099404"/><path d="m399.09375 159.5625h-62.394531c-12.847657 0-23.261719-10.414062-23.261719-23.261719v-83.738281h85.65625c8.871094 0 14.910156 9 11.542969 17.210938l-9.542969 23.261718c-3.425781 8.347656-3.425781 17.707032 0 26.054688l9.542969 23.261718c3.367187 8.207032-2.671875 17.210938-11.542969 17.210938zm0 0" fill="url(#b)"/><path d="m357.234375 52.5625h-43.796875v83.738281c0 12.847657 10.414062 23.261719 23.261719 23.261719h62.394531c8.871094 0 14.910156-9.003906 11.542969-17.210938l-9.542969-23.261718c-3.214844-7.832032-3.414062-16.550782-.601562-24.488282zm0 0" fill="url(#d)"/><path d="m357.335938 35.195312v108.972657c0-4.277344-1.730469-8.144531-4.535157-10.949219-2.800781-2.800781-6.671875-4.535156-10.949219-4.535156h-87.136718c1.207031-5.679688 2.230468-12.03125 3.023437-18.90625 1.242188-10.699219 1.9375-22.652344 1.9375-35.269532 0-11.328124-.558593-22.117187-1.570312-31.949218-.785157-7.601563-1.835938-14.628906-3.109375-20.875h88.828125c7.464843 0 13.511719 6.050781 13.511719 13.511718zm0 0" fill="url(#e)"/><path d="m313.4375 136.300781v-7.527343h28.503906c8.503906 0 15.394532 6.894531 15.394532 15.394531 0 8.503906-6.890626 15.394531-15.394532 15.394531h-5.242187c-12.847657 0-23.261719-10.414062-23.261719-23.261719zm0 0" fill="url(#f)"/><path d="m250.089844 242.113281h-12.332032c-3.992187 0-7.226562-3.234375-7.226562-7.226562v-221.496094c0-7.394531 5.996094-13.390625 13.390625-13.390625s13.390625 5.996094 13.390625 13.390625v221.496094c.003906 3.992187-3.234375 7.226562-7.222656 7.226562zm0 0" fill="url(#g)"/><path d="m486.765625 500.117188h-236.546875l109.738281-219.476563c11.914063-23.835937 45.929688-23.835937 57.847657 0l91.503906 183.003906c8.378906 16.757813-3.808594 36.472657-22.542969 36.472657zm0 0" fill="url(#i)"/><path d="m486.765625 500.117188h-236.546875l109.738281-219.476563c11.914063-23.835937 45.929688-23.835937 57.847657 0l91.503906 183.003906c8.378906 16.757813-3.808594 36.472657-22.542969 36.472657zm0 0" fill="url(#j)"/><path d="m417.804688 280.640625c-11.917969-23.835937-45.933594-23.835937-57.847657 0l-22.070312 44.132813c-2.898438 5.800781 1.320312 12.621093 7.800781 12.621093 4.816406 0 8.722656 3.90625 8.722656 8.722657v2.003906c0 9.519531 7.714844 17.234375 17.234375 17.234375s17.234375-7.714844 17.234375-17.234375v-10.277344c0-6.304688 5.109375-11.417969 11.417969-11.417969 6.304687 0 11.414063 5.113281 11.414063 11.417969v16.785156c0 9.519532 7.714843 17.234375 17.234374 17.234375 9.519532 0 17.234376-7.714843 17.234376-17.234375v-10.902344c0-4.164062-.96875-8.269531-2.828126-11.992187zm0 0" fill="url(#l)"/><path d="m228.875 500.117188h-203.640625c-18.734375 0-30.917969-19.714844-22.542969-36.472657l78.480469-156.960937c10.503906-21.003906 40.480469-21.003906 50.984375 0zm0 0" fill="url(#m)"/><path d="m132.15625 306.6875c-10.5-21.007812-40.480469-21.007812-50.984375 0l-19.449219 38.894531c-2.554687 5.109375 1.164063 11.125 6.875 11.125 4.246094 0 7.6875 3.441407 7.6875 7.6875v1.765625c0 8.390625 6.800782 15.191406 15.191406 15.191406 8.386719 0 15.1875-6.800781 15.1875-15.191406v-9.058594c0-5.554687 4.503907-10.0625 10.0625-10.0625 5.558594 0 10.0625 4.503907 10.0625 10.0625v14.796876c0 8.386718 6.800782 15.1875 15.191407 15.1875 8.386719 0 15.1875-6.800782 15.1875-15.1875v-9.613282c0-3.667968-.855469-7.285156-2.496094-10.566406zm0 0" fill="url(#n)"/><path d="m423.097656 500.117188h-361.941406l143.21875-286.445313c15.554688-31.105469 59.949219-31.105469 75.503906 0zm0 0" fill="url(#o)"/><path d="m279.878906 213.671875c-1.601562-3.195313-3.519531-6.046875-5.664062-8.585937-3.5-4.148438-7.648438-7.417969-12.167969-9.8125-.015625-.007813-.035156-.019532-.050781-.027344-.710938-.375-1.425782-.722656-2.152344-1.054688-.074219-.035156-.152344-.070312-.226562-.105468-.699219-.3125-1.402344-.605469-2.117188-.882813-.097656-.035156-.199219-.074219-.300781-.113281-.707031-.265625-1.417969-.511719-2.132813-.742188-.097656-.027344-.195312-.054687-.292968-.085937-.730469-.226563-1.46875-.4375-2.210938-.621094-.046875-.015625-.09375-.023437-.140625-.035156-3.230469-.796875-6.542969-1.214844-9.859375-1.25-.007812 0-.019531 0-.027344 0-.660156-.007813-1.320312.011719-1.980468.039062-.234376.007813-.464844.007813-.695313.019531-.582031.03125-1.164063.082032-1.742187.136719-.3125.027344-.621094.054688-.929688.089844-.539062.0625-1.074219.140625-1.613281.222656-.347657.050781-.695313.109375-1.042969.167969-.507812.089844-1.015625.191406-1.519531.300781-.375.082031-.746094.167969-1.117188.261719-.480469.117188-.960937.238281-1.4375.371094-.398437.113281-.789062.234375-1.179687.359375-.453125.140625-.90625.28125-1.351563.4375-.421875.148437-.839843.3125-1.257812.472656-.410157.160156-.828125.3125-1.234375.488281-.503906.210938-.996094.449219-1.492188.679688-.316406.148437-.636718.285156-.949218.441406-.789063.394531-1.566407.820312-2.332032 1.265625-.285156.171875-.566406.359375-.851562.535156-.492188.304688-.984375.609375-1.46875.9375-.3125.210938-.613282.4375-.917969.660157-.445313.316406-.886719.636718-1.320313.976562-.308593.242188-.609374.496094-.910156.746094-.417968.347656-.828125.695312-1.230468 1.058594-.300782.269531-.59375.546874-.882813.824218-.394531.375-.785156.761719-1.164063 1.15625-.28125.289063-.558593.582032-.832031.882813-.378906.414062-.746093.839843-1.113281 1.273437-.253906.304688-.515625.613282-.765625.929688-.367187.460937-.71875.941406-1.070313 1.425781-.226562.3125-.457031.617187-.675781.9375-.375.546875-.730469 1.117187-1.085937 1.691406-.175782.28125-.359375.550781-.527344.835938-.511719.871093-1.003906 1.765625-1.46875 2.691406l-28.796875 57.601563c-2.929687 5.859374-.28125 12.5 4.984375 15.210937l16.6875 17.460937c.636719 6.550782 4.097656 12.265626 9.132812 15.949219l180.222657 180.21875h36.492187zm0 0" fill="url(#p)"/><path d="m279.878906 213.671875c-15.554687-31.105469-59.949218-31.105469-75.503906 0l-28.796875 57.601563c-3.785156 7.570312 1.71875 16.472656 10.179687 16.472656 6.285157 0 11.382813 5.097656 11.382813 11.382812v2.617188c0 12.421875 10.070313 22.496094 22.492187 22.496094 12.421876 0 22.496094-10.070313 22.496094-22.496094v-13.414063c0-8.230469 6.667969-14.902343 14.898438-14.902343 8.230468 0 14.898437 6.671874 14.898437 14.902343v21.90625c0 12.425781 10.070313 22.496094 22.496094 22.496094 12.421875 0 22.492187-10.070313 22.492187-22.496094v-14.230469c0-5.433593-1.265624-10.789062-3.691406-15.648437zm0 0" fill="url(#q)"/></svg>