<svg height="511pt" viewBox="-18 0 511 511.99956" width="511pt" xmlns="http://www.w3.org/2000/svg" xmlns:xlink="http://www.w3.org/1999/xlink"><linearGradient id="a" gradientUnits="userSpaceOnUse" x1="205.6501449018" x2="306.4750352838" y1="206.8316953046" y2="399.3155678164"><stop offset="0" stop-color="#00e7b2"/><stop offset=".2459" stop-color="#05e5b1"/><stop offset=".5301" stop-color="#13ddac"/><stop offset=".8322" stop-color="#2ad1a5"/><stop offset="1" stop-color="#3ac9a0"/></linearGradient><linearGradient id="b" gradientUnits="userSpaceOnUse" x1="476.9334614688" x2="58.072707372" y1="490.379625769" y2="71.5188716722"><stop offset="0" stop-color="#3ac9a0" stop-opacity="0"/><stop offset=".0351" stop-color="#38c69d" stop-opacity=".035294"/><stop offset=".4167" stop-color="#23aa82" stop-opacity=".415686"/><stop offset=".7511" stop-color="#169971" stop-opacity=".752941"/><stop offset="1" stop-color="#11936b"/></linearGradient><linearGradient id="c"><stop offset="0" stop-color="#ffc738"/><stop offset=".4286" stop-color="#ffbb23"/><stop offset="1" stop-color="#ffa700"/></linearGradient><linearGradient id="d" gradientUnits="userSpaceOnUse" x1="253.1241103988" x2="289.5724021386" xlink:href="#c" y1="67.357012629" y2="150.667479799"/><linearGradient id="e" gradientTransform="matrix(.709873 -.709873 .709873 .709873 1711.310736 -564.47491)" gradientUnits="userSpaceOnUse" x1="-1605.0641" x2="-1537.3257" xlink:href="#c" y1="-469.2505" y2="-282.9698"/><linearGradient id="f" gradientUnits="userSpaceOnUse" x1="283.9279510858" x2="49.7134504468" y1="291.7293631566" y2="210.8047166196"><stop offset="0" stop-color="#e58200" stop-opacity="0"/><stop offset=".5669" stop-color="#c35e2d" stop-opacity=".568627"/><stop offset="1" stop-color="#a64153"/></linearGradient><linearGradient id="g" gradientTransform="matrix(.709873 -.709873 .709873 .709873 1711.310736 -564.47491)" gradientUnits="userSpaceOnUse" x1="-1629.1427" x2="-1752.5582" y1="-550.9688" y2="-302.4357"><stop offset="0" stop-color="#f2f2f2"/><stop offset="1" stop-color="#c3c3c3"/></linearGradient><linearGradient id="h" gradientUnits="userSpaceOnUse" x1="179.2119375928" x2="85.2984478276" y1="259.559064932" y2="214.117037563"><stop offset="0" stop-color="#a1b5d8" stop-opacity="0"/><stop offset=".0421" stop-color="#9db1d2" stop-opacity=".043137"/><stop offset=".2868" stop-color="#8b9cb5" stop-opacity=".286275"/><stop offset=".53" stop-color="#7e8ea1" stop-opacity=".529412"/><stop offset=".7693" stop-color="#778594" stop-opacity=".768627"/><stop offset="1" stop-color="#748290"/></linearGradient><linearGradient id="i" gradientUnits="userSpaceOnUse" x1="142.231990593" x2="142.231990593" y1="286.5738221178" y2="409.6129965548"><stop offset="0" stop-color="#3b395f"/><stop offset=".0633" stop-color="#37355a"/><stop offset=".4033" stop-color="#232543"/><stop offset=".7232" stop-color="#171b35"/><stop offset="1" stop-color="#131830"/></linearGradient><path d="m404.320312 79.667969h-333.546874c-38.8125 0-70.273438 31.464843-70.273438 70.273437v235.578125c0 35.234375 25.9375 64.398438 59.757812 69.472657 5.375.804687 9.40625 5.308593 9.40625 10.738281v26.914062c0 17.210938 20.808594 25.828125 32.976563 13.660157l25.984375-25.984376c15.703125-15.707031 37.003906-24.53125 59.214844-24.53125h216.480468c38.8125 0 70.277344-31.460937 70.277344-70.273437v-235.574219c0-38.808594-31.464844-70.273437-70.277344-70.273437zm0 0" fill="url(#a)"/><path d="m474.59375 215.933594v169.597656c0 38.804688-31.460938 70.265625-70.269531 70.265625h-216.480469c-5.265625 0-10.472656.507813-15.574219 1.464844l-62.277343-62.277344c-3.589844-2.113281-6.015626-6-6.015626-10.46875v-257.828125c0-6.707031 5.4375-12.148438 12.15625-12.148438h52.199219c4.46875 0 8.355469 2.429688 10.464844 6.023438.140625.082031.25.144531.386719.226562h17.261718c4.570313 0 8.554688 2.457032 10.746094 6.117188 1.796875 1.074219 3.300782 2.582031 4.367188 4.375h.042968c9.734376-16.707031 16.789063-33.828125 21.234376-51.609375h87.214843l55.433594 55.445313c11.707031 0 22.9375 4.652343 31.21875 12.929687zm0 0" fill="url(#b)"/><path d="m322.882812 57.691406c-2.605468 29.316406-9.722656 57.5625-21.347656 84.628906h-96.753906c23.609375-35.753906 34.65625-73.175781 33.75-114.761718-.273438-13.210938 9.289062-24.589844 22.328125-26.722656.285156-.042969.5625-.085938.847656-.128907 34.113281-5.574219 64.21875 22.542969 61.175781 56.984375zm0 0" fill="url(#d)"/><path d="m377.269531 135.496094-226.824219-.015625v240.238281h184.710938c31.394531 0 58.1875-22.695312 63.355469-53.660156l18.507812-139.628906c4.097657-24.570313-14.84375-46.933594-39.75-46.933594zm0 0" fill="url(#e)"/><path d="m323.097656 375.71875h12.058594c22.101562 0 41.914062-11.257812 53.515625-28.722656l-180.382813-211.511719-57.84375-.003906v240.238281zm0 0" fill="url(#f)"/><path d="m196.441406 390.410156h-28.695312c-6.925782 0-12.539063-5.613281-12.539063-12.539062v-244.539063c0-6.925781 5.613281-12.539062 12.539063-12.539062h28.695312c6.925782 0 12.539063 5.613281 12.539063 12.539062v244.539063c0 6.925781-5.613281 12.539062-12.539063 12.539062zm0 0" fill="url(#g)"/><path d="m177.261719 120.792969h-9.515625c-6.925782 0-12.539063 5.613281-12.539063 12.539062v244.539063c0 6.925781 5.613281 12.539062 12.539063 12.539062h28.695312c6.925782 0 12.539063-5.613281 12.539063-12.539062v-225.363282zm0 0" fill="url(#h)"/><path d="m168.335938 396.664062h-52.207032c-6.707031 0-12.148437-5.441406-12.148437-12.148437v-257.828125c0-6.710938 5.4375-12.148438 12.148437-12.148438h52.207032c6.710937 0 12.148437 5.4375 12.148437 12.148438v257.828125c0 6.707031-5.441406 12.148437-12.148437 12.148437zm0 0" fill="url(#i)"/></svg>