<svg height="512pt" viewBox="-5 0 512 512" width="512pt" xmlns="http://www.w3.org/2000/svg" xmlns:xlink="http://www.w3.org/1999/xlink"><linearGradient id="a"><stop offset="0" stop-color="#fffcf8"/><stop offset=".1875" stop-color="#faf8f6"/><stop offset=".4041" stop-color="#eceef2"/><stop offset=".6353" stop-color="#d5dcea"/><stop offset=".875" stop-color="#b5c4df"/><stop offset="1" stop-color="#a1b5d8"/></linearGradient><linearGradient id="b" gradientUnits="userSpaceOnUse" x1="145.833226045" x2="540.1460793978" xlink:href="#a" y1="44.4724395014" y2="637.2132871358"/><linearGradient id="c"><stop offset="0" stop-color="#a1b5d8" stop-opacity="0"/><stop offset=".0343" stop-color="#9fb3d5" stop-opacity=".035294"/><stop offset=".4515" stop-color="#8898af" stop-opacity=".45098"/><stop offset=".788" stop-color="#798898" stop-opacity=".788235"/><stop offset="1" stop-color="#748290"/></linearGradient><linearGradient id="d" gradientUnits="userSpaceOnUse" x1="236.5730171916" x2="-112.4987939766" xlink:href="#c" y1="266.206984974" y2="266.206984974"/><linearGradient id="e" gradientUnits="userSpaceOnUse" x1="403.8230090568" x2="265.2483424542" xlink:href="#c" y1="588.6042874256" y2="450.029620823"/><linearGradient id="f" gradientUnits="userSpaceOnUse" x1="39.3443354654" x2="68.9149583676" y1="454.3325483986" y2="454.3325483986"><stop offset="0" stop-color="#ffe548"/><stop offset="1" stop-color="#ffb211"/></linearGradient><linearGradient id="g"><stop offset="0" stop-color="#ffb211" stop-opacity="0"/><stop offset=".2281" stop-color="#ff9f19" stop-opacity=".227451"/><stop offset=".6863" stop-color="#ff6f2e" stop-opacity=".686275"/><stop offset="1" stop-color="#ff4b3e"/></linearGradient><linearGradient id="h" gradientUnits="userSpaceOnUse" x1="67.6965986284" x2="34.984101435" xlink:href="#g" y1="461.6281499648" y2="428.9157531636"/><linearGradient id="i" gradientUnits="userSpaceOnUse" x1="27.4759695814" x2="102.4448488534" y1="226.2350448978" y2="226.2350448978"><stop offset="0" stop-color="#3b395f"/><stop offset=".0633" stop-color="#37355a"/><stop offset=".4033" stop-color="#232543"/><stop offset=".7232" stop-color="#171b35"/><stop offset="1" stop-color="#131830"/></linearGradient><linearGradient id="j"><stop offset="0" stop-color="#131830" stop-opacity="0"/><stop offset="1" stop-color="#131830"/></linearGradient><linearGradient id="k" gradientUnits="userSpaceOnUse" x1="69.0407497942" x2="2.68040128" xlink:href="#j" y1="290.7359290836" y2="119.2500891238"/><linearGradient id="l"><stop offset="0" stop-color="#ffc738"/><stop offset=".4286" stop-color="#ffbb23"/><stop offset="1" stop-color="#ffa700"/></linearGradient><linearGradient id="m" gradientUnits="userSpaceOnUse" x1="47.0750368264" x2="47.0750368264" xlink:href="#l" y1="226.7623047322" y2="241.7499566624"/><linearGradient id="n" gradientUnits="userSpaceOnUse" x1="98.313007078" x2="3.7230746692" xlink:href="#j" y1="120.9186074878" y2="110.0044694648"/><linearGradient id="o" gradientUnits="userSpaceOnUse" x1="64.2580653862" x2="9.026694203" xlink:href="#j" y1="93.4912576634" y2="-49.2357307234"/><linearGradient id="p" gradientTransform="matrix(.709873 -.709873 .709873 .709873 121.429133 419.948925)" gradientUnits="userSpaceOnUse" x1="216.7381" x2="206.1778" xlink:href="#l" y1="-323.0634" y2="-309.4322"/><linearGradient id="q" gradientUnits="userSpaceOnUse" x1="64.9877455114" x2="48.9070233076" xlink:href="#g" y1="53.5376117874" y2="44.4581412194"/><linearGradient id="r" gradientUnits="userSpaceOnUse" x1="32.5928892388" x2="59.712436578" xlink:href="#l" y1="92.4409947782" y2="92.4409947782"/><linearGradient id="s" gradientUnits="userSpaceOnUse" x1="57.2303398252" x2="28.5565204456" xlink:href="#l" y1="122.873785894" y2="122.873785894"/><linearGradient id="t" gradientUnits="userSpaceOnUse" x1="247.0860883756" x2="247.0860883756" xlink:href="#a" y1="449.3581977894" y2="540.5801726726"/><linearGradient id="u"><stop offset="0" stop-color="#ff4974"/><stop offset=".3262" stop-color="#fe4672"/><stop offset=".5324" stop-color="#fb3e6c"/><stop offset=".7054" stop-color="#f52f60"/><stop offset=".8591" stop-color="#ee1a51"/><stop offset="1" stop-color="#e4003d"/></linearGradient><linearGradient id="v" gradientUnits="userSpaceOnUse" x1="175.536266259" x2="175.536266259" xlink:href="#u" y1="89.4004588064" y2="241.959256908"/><linearGradient id="w" gradientUnits="userSpaceOnUse" x1="279.6258105928" x2="279.6258105928" xlink:href="#u" y1="89.4004588064" y2="241.959256908"/><linearGradient id="x" gradientUnits="userSpaceOnUse" x1="396.1680034146" x2="396.1680034146" xlink:href="#u" y1="89.4004588064" y2="241.959256908"/><linearGradient id="y"><stop offset="0" stop-color="#e4003d" stop-opacity="0"/><stop offset=".5838" stop-color="#bd294b" stop-opacity=".584314"/><stop offset="1" stop-color="#a64153"/></linearGradient><linearGradient id="z" gradientUnits="userSpaceOnUse" x1="281.0771806282" x2="77.307016208" xlink:href="#y" y1="273.1313361846" y2="69.3611717644"/><linearGradient id="A" gradientUnits="userSpaceOnUse" x1="295.7951791092" x2="92.025014689" xlink:href="#y" y1="258.4133377036" y2="54.6431732834"/><path d="m470.609375 512h-368.121094c-17.140625 0-31.03125-13.894531-31.03125-31.03125v-449.9375c0-17.136719 13.890625-31.03125 31.03125-31.03125h368.121094c17.140625 0 31.03125 13.894531 31.03125 31.03125v449.9375c0 17.136719-13.890625 31.03125-31.03125 31.03125zm0 0" fill="url(#b)"/><path d="m102.488281 512h368.121094c17.140625 0 31.03125-13.894531 31.03125-31.03125v-32.234375l-428.316406-428.320313c-1.207031 3.3125-1.867188 6.886719-1.867188 10.617188v449.9375c0 17.136719 13.890625 31.03125 31.03125 31.03125zm0 0" fill="url(#d)"/><path d="m102.488281 512h368.121094c17.140625 0 31.03125-13.894531 31.03125-31.03125v-32.082031l-59.046875-59.042969c-5.675781-6.246094-13.863281-10.164062-22.964844-10.164062h-348.171875v101.289062c0 17.136719 13.890625 31.03125 31.03125 31.03125zm0 0" fill="url(#e)"/><path d="m47.039062 462.582031c-3.464843 0-6.746093.773438-9.6875 2.152344l6.792969 10.625c1.355469 2.113281 4.433594 2.113281 5.789063 0l6.789062-10.625c-2.9375-1.378906-6.21875-2.152344-9.683594-2.152344zm0 0" fill="#a1b5d8"/><path d="m37.683594 466.25c-4.992188-9.476562-9.304688-20.046875-7.265625-29.46875h33.375c1.71875 9.988281-2.453125 20.167969-7.355469 29.457031-3.96875 7.523438-14.785156 7.539063-18.753906.011719zm0 0" fill="url(#f)"/><path d="m63.792969 436.78125c-11.125 0-22.25 0-33.375 0-.578125 2.675781-.632813 5.449219-.316407 8.261719l24.085938 24.085937c.871094-.796875 1.644531-1.746094 2.25-2.890625 4.902344-9.289062 9.074219-19.46875 7.355469-29.457031zm0 0" fill="url(#h)"/><path d="m67.28125 17.039062c-5.027344-21.339843-35.445312-21.339843-40.476562 0-11.339844 48.109376-23.222657 122.394532-23.222657 222.453126 0 90.203124 9.65625 152.671874 19.867188 193.507812 6.148437 24.59375 41.039062 24.59375 47.1875 0 10.210937-40.835938 19.867187-103.304688 19.867187-193.507812 0-100.058594-11.882812-174.34375-23.222656-222.453126zm0 0" fill="url(#i)"/><path d="m3.589844 237.53125 83.96875 83.96875c1.847656-24.34375 2.949218-51.59375 2.949218-82.007812 0-3.070313-.011718-6.113282-.035156-9.136719h-86.855468c-.019532 2.371093-.023438 4.773437-.027344 7.175781zm0 0" fill="url(#k)"/><path d="m87.613281 238.128906h-81.136719c-3.578124 0-6.476562-2.898437-6.476562-6.476562v-4.589844c0-3.574219 2.898438-6.476562 6.476562-6.476562h81.136719c3.574219 0 6.472657 2.902343 6.472657 6.476562v4.589844c0 3.578125-2.898438 6.476562-6.472657 6.476562zm0 0" fill="url(#m)"/><path d="m75.464844 56.75-22.601563-22.601562c-1.402343-1.652344-3.492187-2.695313-5.820312-2.695313-4.105469 0-7.476563 3.246094-7.636719 7.351563l-4.078125 106.675781c-.09375 2.457031.976563 4.675781 2.707031 6.144531l51.949219 51.949219c-1.742187-59.339844-7.632813-108.308594-14.519531-146.824219zm0 0" fill="url(#n)"/><path d="m22.113281 38.472656c-.925781 4.546875-1.84375 9.253906-2.746093 14.148438l64.753906 64.753906c-3.332032-30.464844-7.644532-56.769531-12.144532-78.902344zm0 0" fill="url(#o)"/><path d="m73.761719 52.246094h-53.4375c-1.976563 0-3.578125-1.601563-3.578125-3.578125v-6.613281c0-1.976563 1.601562-3.578126 3.578125-3.578126h53.4375c1.976562 0 3.582031 1.601563 3.582031 3.578126v6.613281c0 1.976562-1.605469 3.578125-3.582031 3.578125zm0 0" fill="url(#p)"/><path d="m46.820312 52.246094h21.300782l-13.441406-13.441406-.847657-.332032h-7.011719zm0 0" fill="url(#q)"/><path d="m51.09375 153.445312h-8.101562c-4.351563 0-7.828126-3.613281-7.664063-7.964843l4.078125-106.675781c.15625-4.105469 3.53125-7.351563 7.636719-7.351563s7.480469 3.246094 7.636719 7.351563l4.078124 106.675781c.167969 4.351562-3.3125 7.964843-7.664062 7.964843zm0 0" fill="url(#r)"/><path d="m47.042969 143.40625c-3.507813 0-6.351563-2.84375-6.351563-6.351562v-28.34375c0-3.507813 2.84375-6.351563 6.351563-6.351563 3.507812 0 6.351562 2.84375 6.351562 6.351563v28.34375c0 3.507812-2.84375 6.351562-6.351562 6.351562zm0 0" fill="url(#s)"/><path d="m419.628906 379.679688h-368.121094c-17.140624 0-31.035156 13.890624-31.035156 31.03125v40.902343c0 33.351563 27.035156 60.386719 60.386719 60.386719h392.839844c-12.722657 0-23.039063-10.316406-23.039063-23.039062v-78.25c0-17.140626-13.894531-31.03125-31.03125-31.03125zm0 0" fill="url(#t)"/><path d="m121.972656 239.648438h329.15625v17.992187h-329.15625zm0 0" fill="#a1b5d8"/><path d="m121.972656 310.507812h262.105469v17.996094h-262.105469zm0 0" fill="#a1b5d8"/><path d="m123.515625 59.882812c0-2.746093.640625-5.167968 1.929687-7.261718 1.285157-2.09375 3.144532-3.144532 5.578126-3.144532h89.023437c2.429687 0 4.292969 1.011719 5.578125 3.035157 1.289062 2.023437 1.933594 4.40625 1.933594 7.152343 0 3.035157-.683594 5.601563-2.039063 7.695313-1.363281 2.09375-3.183593 3.140625-5.472656 3.140625h-33.035156v128.296875c0 2.285156-1.144531 4.105469-3.429688 5.460937-2.289062 1.355469-4.9375 2.035157-7.941406 2.035157-3.144531 0-5.828125-.679688-8.042969-2.035157-2.21875-1.355468-3.324218-3.175781-3.324218-5.460937v-128.296875h-33.25c-2.289063 0-4.113282-1.046875-5.472657-3.140625s-2.035156-4.589844-2.035156-7.476563zm0 0" fill="url(#v)"/><path d="m221.402344 196.867188c0-.851563.070312-1.496094.214844-1.925782l42.597656-139.035156c1.820312-5.144531 6.90625-7.71875 15.25-7.71875 8.496094 0 13.65625 2.398438 15.480468 7.191406l42.476563 139.007813c.285156.898437.425781 1.574219.425781 2.023437 0 2.695313-1.667968 5.019532-5 6.960938-3.335937 1.949218-6.867187 2.917968-10.601562 2.917968-4.515625 0-7.316406-1.554687-8.40625-4.667968l-8.882813-30.726563h-52.730469l-8.777343 30.644531c-.996094 3.167969-3.636719 4.75-7.917969 4.75-3.425781 0-6.636719-.925781-9.632812-2.78125-3-1.855468-4.496094-4.070312-4.496094-6.640624zm35.984375-43.992188h42.582031l-21.503906-73.625zm0 0" fill="url(#w)"/><path d="m342.753906 195.777344c0-1.285156.425782-2.785156 1.285156-4.503906l37.113282-63.496094-36.039063-63.070313c-1.148437-2-1.71875-3.863281-1.71875-5.578125 0-2.859375 1.503907-5.289062 4.507813-7.292968 3.003906-2.003907 6.289062-3.003907 9.867187-3.003907 3.429688 0 6.289063 2.144531 8.578125 6.4375l29.605469 54.914063 30.03125-54.914063c2-4.292969 4.859375-6.4375 8.582031-6.4375 3.429688 0 6.648438 1 9.652344 3.003907 3.003906 2.003906 4.503906 4.433593 4.503906 7.292968 0 1.714844-.570312 3.578125-1.714844 5.578125l-36.039062 63.070313 37.113281 63.496094c.996094 2.003906 1.5 3.507812 1.5 4.503906 0 3.003906-1.609375 5.617187-4.828125 7.832031-3.21875 2.21875-6.542968 3.324219-9.972656 3.324219-3.003906 0-5.363281-1.714844-7.082031-5.148438l-31.746094-57.0625-31.320313 57.0625c-2.007812 3.433594-4.4375 5.148438-7.296874 5.148438-3.289063 0-6.542969-1.105469-9.757813-3.324219-3.21875-2.214844-4.824219-4.828125-4.824219-7.832031zm0 0" fill="url(#x)"/><path d="m164.277344 111.375v87.421875c0 2.289063 1.105468 4.101563 3.320312 5.457031 2.214844 1.355469 4.902344 2.039063 8.050782 2.039063 2.996093 0 5.640624-.683594 7.929687-2.039063 2.289063-1.355468 3.441406-3.167968 3.441406-5.457031v-64.683594zm0 0" fill="url(#z)"/><path d="m227.765625 174.863281-6.148437 20.070313c-.144532.4375-.21875 1.074218-.21875 1.933594 0 2.570312 1.496093 4.785156 4.503906 6.640624 2.992187 1.855469 6.203125 2.785157 9.632812 2.785157 4.273438 0 6.921875-1.582031 7.917969-4.75l2.453125-8.539063zm0 0" fill="url(#A)"/></svg>