<svg height="512pt" viewBox="-33 0 512 512" width="512pt" xmlns="http://www.w3.org/2000/svg" xmlns:xlink="http://www.w3.org/1999/xlink"><linearGradient id="a" gradientUnits="userSpaceOnUse" x1="223.478522" x2="223.478522" y1="466.9992155656" y2="500.6677476796"><stop offset="0" stop-color="#3b395f"/><stop offset=".0633" stop-color="#37355a"/><stop offset=".4033" stop-color="#232543"/><stop offset=".7232" stop-color="#171b35"/><stop offset="1" stop-color="#131830"/></linearGradient><linearGradient id="b" gradientUnits="userSpaceOnUse" x1="279.7248583252" x2="234.6770711256" y1="501.544874331" y2="456.4971875236"><stop offset="0" stop-color="#131830" stop-opacity="0"/><stop offset="1" stop-color="#131830"/></linearGradient><linearGradient id="c" gradientUnits="userSpaceOnUse" x1="154.4923151026" x2="353.9028478456" y1="140.836703653" y2="340.2473367882"><stop offset="0" stop-color="#ff4974"/><stop offset=".3262" stop-color="#fe4672"/><stop offset=".5324" stop-color="#fb3e6c"/><stop offset=".7054" stop-color="#f52f60"/><stop offset=".8591" stop-color="#ee1a51"/><stop offset="1" stop-color="#e4003d"/></linearGradient><linearGradient id="d" gradientUnits="userSpaceOnUse" x1="404.2745338034" x2="174.4162515068" y1="379.9949177888" y2="150.1367358844"><stop offset="0" stop-color="#e4003d" stop-opacity="0"/><stop offset=".5838" stop-color="#bd294b" stop-opacity=".584314"/><stop offset="1" stop-color="#a64153"/></linearGradient><radialGradient id="e" cx="241.4950732896" cy="227.6660139896" gradientUnits="userSpaceOnUse" r="232.4126614334"><stop offset="0" stop-color="#ff4974" stop-opacity="0"/><stop offset=".3988" stop-color="#ff4b75" stop-opacity=".4"/><stop offset=".5424" stop-color="#ff527b" stop-opacity=".541176"/><stop offset=".6448" stop-color="#ff5d84" stop-opacity=".643137"/><stop offset=".7276" stop-color="#ff6e91" stop-opacity=".729412"/><stop offset=".7986" stop-color="#ff84a1" stop-opacity=".8"/><stop offset=".8613" stop-color="#ffa0b6" stop-opacity=".862745"/><stop offset=".9182" stop-color="#ffc0cf" stop-opacity=".917647"/><stop offset=".9686" stop-color="#ffe4eb" stop-opacity=".968627"/><stop offset="1" stop-color="#fff"/></radialGradient><radialGradient id="f" cx="175.4959696178" cy="111.6889326972" gradientUnits="userSpaceOnUse" r="215.153033625"><stop offset="0" stop-color="#ffc738"/><stop offset=".4873" stop-color="#ffc636"/><stop offset=".6746" stop-color="#ffc22f"/><stop offset=".8103" stop-color="#ffbb23"/><stop offset=".9203" stop-color="#ffb112"/><stop offset="1" stop-color="#ffa700"/></radialGradient><linearGradient id="g"><stop offset="0" stop-color="#ffa700" stop-opacity="0"/><stop offset=".0206" stop-color="#fea600" stop-opacity=".019608"/><stop offset=".6348" stop-color="#ec8c00" stop-opacity=".635294"/><stop offset="1" stop-color="#e58200"/></linearGradient><linearGradient id="h" gradientUnits="userSpaceOnUse" x1="347.119045715" x2="231.7054620056" xlink:href="#g" y1="276.8890162306" y2="161.475332129"/><linearGradient id="i" gradientUnits="userSpaceOnUse" x1="273.9350393668" x2="238.7824093602" xlink:href="#g" y1="352.119116007" y2="277.419789792"/><linearGradient id="j"><stop offset="0" stop-color="#fffcf8"/><stop offset=".1875" stop-color="#faf8f6"/><stop offset=".4041" stop-color="#eceef2"/><stop offset=".6353" stop-color="#d5dcea"/><stop offset=".875" stop-color="#b5c4df"/><stop offset="1" stop-color="#a1b5d8"/></linearGradient><linearGradient id="k" gradientUnits="userSpaceOnUse" x1="223.5634538012" x2="223.5634538012" xlink:href="#j" y1="129.9046958184" y2="218.0936215552"/><linearGradient id="l" gradientUnits="userSpaceOnUse" x1="223.5634538012" x2="223.5634538012" xlink:href="#j" y1="235.9807006136" y2="311.3604851602"/><linearGradient id="m" gradientUnits="userSpaceOnUse" x1="263.7942224604" x2="206.3447860104" y1="267.2627093492" y2="246.8773703938"><stop offset="0" stop-color="#a1b5d8" stop-opacity="0"/><stop offset=".2564" stop-color="#98abca" stop-opacity=".254902"/><stop offset=".7358" stop-color="#8292a6" stop-opacity=".737255"/><stop offset="1" stop-color="#748290"/></linearGradient><linearGradient id="n"><stop offset="0" stop-color="#00e7b2"/><stop offset=".2459" stop-color="#05e5b1"/><stop offset=".5301" stop-color="#13ddac"/><stop offset=".8322" stop-color="#2ad1a5"/><stop offset="1" stop-color="#3ac9a0"/></linearGradient><linearGradient id="o" gradientUnits="userSpaceOnUse" x1="219.2393609628" x2="233.1521136076" xlink:href="#n" y1="260.2068443566" y2="260.2068443566"/><linearGradient id="p" gradientUnits="userSpaceOnUse" x1="237.6756857474" x2="216.567522952" y1="243.9728232634" y2="222.8645600758"><stop offset="0" stop-color="#3ac9a0" stop-opacity="0"/><stop offset=".0351" stop-color="#38c69d" stop-opacity=".035294"/><stop offset=".4167" stop-color="#23aa82" stop-opacity=".415686"/><stop offset=".7511" stop-color="#169971" stop-opacity=".752941"/><stop offset="1" stop-color="#11936b"/></linearGradient><linearGradient id="q" gradientUnits="userSpaceOnUse" x1="221.401407382" x2="228.2819875934" xlink:href="#n" y1="221.4821594818" y2="221.4821594818"/><path d="m48.851562 449.558594-45.53125 43.898437c-6.984374 6.730469-2.21875 18.542969 7.484376 18.542969h425.347656c9.726562 0 14.480468-11.863281 7.449218-18.582031l-45.996093-43.925781c-3.621094-3.457032-8.4375-5.386719-13.449219-5.386719h-321.792969c-5.039062 0-9.886719 1.953125-13.511719 5.453125zm0 0" fill="url(#a)"/><path d="m279.296875 444.144531-.050781-.039062h-111.363282c11.558594 12.929687 22.132813 24.273437 30.882813 33.457031l34.46875 34.4375h113.921875zm0 0" fill="url(#b)"/><path d="m223.5625 0c-110.058594 0-199.285156 89.222656-199.285156 199.285156 0 85.800782 121.101562 222.269532 174.488281 278.277344 13.503906 14.167969 36.09375 14.167969 49.597656 0 53.398438-56.007812 174.5-192.476562 174.5-278.277344 0-110.0625-89.226562-199.285156-199.300781-199.285156zm0 0" fill="url(#c)"/><path d="m421.972656 212.46875-103.453125-103.453125c-23.871093-25.101563-57.585937-40.75-94.957031-40.75-72.355469 0-131.015625 58.660156-131.015625 131.019531 0 37.371094 15.648437 71.085938 40.75 94.953125l147.800781 147.800781c55.320313-62.109374 131.859375-159.183593 140.875-229.570312zm0 0" fill="url(#d)"/><path d="m397.777344 199.285156c0 96.214844-77.996094 174.214844-174.214844 174.214844-96.214844 0-174.214844-78-174.214844-174.214844s78-174.214844 174.214844-174.214844c96.21875 0 174.214844 78 174.214844 174.214844zm0 0" fill="url(#e)"/><path d="m354.582031 199.285156c0 72.355469-58.660156 131.015625-131.019531 131.015625-72.355469 0-131.015625-58.660156-131.015625-131.015625 0-72.359375 58.660156-131.019531 131.015625-131.019531 72.359375 0 131.019531 58.660156 131.019531 131.019531zm0 0" fill="url(#f)"/><path d="m353.96875 211.917969c-2.558594 26.933593-13.296875 51.496093-29.691406 71.164062-6.472656 7.773438-13.824219 14.789063-21.914063 20.867188l-90.464843-90.460938-22.753907-22.757812c-10.082031-9.289063-16.410156-22.609375-16.410156-37.398438 0-28.070312 22.757813-50.828125 50.828125-50.828125 14.789062 0 28.109375 6.328125 37.398438 16.410156zm0 0" fill="url(#h)"/><path d="m324.277344 283.082031c-6.472656 7.773438-13.824219 14.789063-21.914063 20.867188-21.929687 16.558593-49.222656 26.355469-78.800781 26.355469-3.707031 0-7.375-.148438-11.007812-.472657l-60.253907-60.164062c6.421875-28.960938 30.046875-51.433594 59.597657-56.179688 3.804687-.605469 7.699218-.925781 11.664062-.925781 20.160156 0 38.410156 8.179688 51.617188 21.386719zm0 0" fill="url(#i)"/><path d="m274.390625 153.332031c0 28.074219-22.753906 50.828125-50.828125 50.828125-28.070312 0-50.828125-22.753906-50.828125-50.828125 0-28.070312 22.757813-50.824219 50.828125-50.824219 28.074219 0 50.828125 22.753907 50.828125 50.824219zm0 0" fill="url(#k)"/><path d="m294.824219 269.664062c-18.148438 18.398438-43.375 29.789063-71.261719 29.789063-27.882812 0-53.113281-11.390625-71.261719-29.789063 7.25-32.675781 36.398438-57.101562 71.261719-57.101562 20.164062 0 38.410156 8.179688 51.617188 21.386719 9.636718 9.625 16.59375 21.941406 19.644531 35.714843zm0 0" fill="url(#l)"/><path d="m294.824219 269.664062c-.285157.296876-.578125.582032-.875.867188-17.164063 16.984375-40.449219 27.785156-66.246094 28.820312l-12.886719-12.910156-.199218-.160156c-2.273438-1.878906-3.457032-4.753906-3.1875-7.695312l4.484374-46.628907c.085938-.8125.433594-1.542969.953126-2.125-.050782-.0625-.085938-.121093-.136719-.195312-.726563-.472657-1.34375-1.136719-1.714844-1.964844l-5.164063-11.441406c-.359374-.777344-.398437-1.605469-.1875-2.347657.65625-.125 1.308594-.246093 1.976563-.347656.46875-.085937.953125-.160156 1.421875-.222656.371094-.0625.753906-.109375 1.136719-.160156.429687-.050782.863281-.109375 1.308593-.148438.53125-.0625 1.0625-.109375 1.59375-.160156.519532-.050781 1.050782-.085938 1.582032-.125.542968-.035156 1.085937-.0625 1.628906-.085938 1.078125-.046874 2.164062-.074218 3.25-.074218 1.988281 0 3.964844.074218 5.917969.234375.519531.050781 1.039062.085937 1.546875.148437 1.046875.101563 2.097656.234375 3.136718.386719.507813.074219 1.023438.160156 1.53125.246094.59375.085937 1.1875.195312 1.769532.320312 14.589844 2.804688 27.625 9.957031 37.71875 20.050781 9.632812 9.628907 16.589844 21.945313 19.640625 35.71875zm0 0" fill="url(#m)"/><path d="m232.507812 286.289062-5.082031 4.203126c-2.242187 1.855468-5.484375 1.855468-7.726562 0l-5.082031-4.203126c-2.269532-1.882812-3.464844-4.765624-3.179688-7.699218l4.484375-46.628906c.1875-1.945313 1.820313-3.429688 3.777344-3.429688h7.730469c1.953124 0 3.589843 1.484375 3.777343 3.429688l4.484375 46.628906c.28125 2.933594-.910156 5.816406-3.183594 7.699218zm0 0" fill="url(#o)"/><path d="m231.207031 231.960938c-.1875-1.945313-1.824219-3.429688-3.777343-3.429688h-7.734376c-1.152343 0-2.183593.527344-2.882812 1.347656l15.703125 15.703125zm0 0" fill="url(#p)"/><path d="m237.277344 216.230469-5.164063 11.441406c-.753906 1.667969-2.410156 2.730469-4.25 2.730469h-8.597656c-1.84375 0-3.496094-1.0625-4.25-2.730469l-5.164063-11.441406c-.359374-.777344-.394531-1.605469-.1875-2.347657 4.5-.863281 9.144532-1.320312 13.902344-1.320312 4.753906 0 9.398438.457031 13.898438 1.335938.207031.738281.15625 1.554687-.1875 2.332031zm0 0" fill="url(#q)"/></svg>