<svg height="512pt" viewBox="-85 0 512 512" width="512pt" xmlns="http://www.w3.org/2000/svg" xmlns:xlink="http://www.w3.org/1999/xlink"><radialGradient id="a" cx="96.1823903492" cy="168.4933492622" gradientUnits="userSpaceOnUse" r="345.6406065566"><stop offset="0" stop-color="#00e7b2"/><stop offset=".3524" stop-color="#03e6b1"/><stop offset=".5753" stop-color="#0be1af"/><stop offset=".7622" stop-color="#1adaaa"/><stop offset=".9283" stop-color="#2fcfa4"/><stop offset="1" stop-color="#3ac9a0"/></radialGradient><linearGradient id="b" gradientTransform="matrix(1.003922 0 .0498949 1.002516 -85.741929 .028612)" gradientUnits="userSpaceOnUse" x1="199.4387" x2="315.0435" y1="58.7508" y2="58.7508"><stop offset="0" stop-color="#00e7b2"/><stop offset=".2459" stop-color="#05e5b1"/><stop offset=".5301" stop-color="#13ddac"/><stop offset=".8322" stop-color="#2ad1a5"/><stop offset="1" stop-color="#3ac9a0"/></linearGradient><linearGradient id="c"><stop offset="0" stop-color="#3ac9a0" stop-opacity="0"/><stop offset=".0351" stop-color="#38c69d" stop-opacity=".035294"/><stop offset=".4167" stop-color="#23aa82" stop-opacity=".415686"/><stop offset=".7511" stop-color="#169971" stop-opacity=".752941"/><stop offset="1" stop-color="#11936b"/></linearGradient><linearGradient id="d" gradientTransform="matrix(1.003922 0 .0498949 1.002516 -85.741929 .028612)" gradientUnits="userSpaceOnUse" x1="307.3859" x2="272.4022" xlink:href="#c" y1="64.0851" y2="115.2717"/><linearGradient id="e" gradientTransform="matrix(1.003922 0 .0498949 1.002516 -85.741929 .028612)" gradientUnits="userSpaceOnUse" x1="273.923" x2="192.3101" xlink:href="#c" y1="53.2996" y2="16.3429"/><linearGradient id="f" gradientTransform="matrix(1.003922 0 .0498949 1.002516 -85.741929 .028612)" gradientUnits="userSpaceOnUse" x1="175.3289" x2="129.8649" xlink:href="#c" y1="63.9839" y2="99.6557"/><linearGradient id="g" gradientTransform="matrix(1.003922 0 -.0498949 -1.002516 -39.92837 920.495184)" gradientUnits="userSpaceOnUse" x1="220.6885" x2="220.6885" xlink:href="#c" y1="885.2509" y2="834.2954"/><linearGradient id="h" gradientTransform="matrix(1.003922 0 .0498949 1.002516 -85.741929 .028612)" gradientUnits="userSpaceOnUse" x1="189.5237" x2="120.4006" xlink:href="#c" y1="58.9506" y2="-.214"/><linearGradient id="i" gradientUnits="userSpaceOnUse" x1="226.5710769638" x2="162.043086884" xlink:href="#c" y1="269.2931415942" y2="-21.7551905244"/><linearGradient id="j" gradientUnits="userSpaceOnUse" x1="171.257083" x2="171.257083" y1="124.7772645956" y2="158.0110984836"><stop offset="0" stop-color="#ff4974"/><stop offset=".3262" stop-color="#fe4672"/><stop offset=".5324" stop-color="#fb3e6c"/><stop offset=".7054" stop-color="#f52f60"/><stop offset=".8591" stop-color="#ee1a51"/><stop offset="1" stop-color="#e4003d"/></linearGradient><linearGradient id="k" gradientUnits="userSpaceOnUse" x1="311.6376044962" x2="86.1010056252" xlink:href="#c" y1="442.8215612552" y2="290.960187767"/><linearGradient id="l" gradientUnits="userSpaceOnUse" x1="171.257083" x2="171.257083" xlink:href="#c" y1="450.6101889156" y2="541.5136193482"/><linearGradient id="m" gradientUnits="userSpaceOnUse" x1="155.5409852666" x2="232.9763001082" y1="341.0635253742" y2="341.0635253742"><stop offset="0" stop-color="#ffc738"/><stop offset=".4286" stop-color="#ffbb23"/><stop offset="1" stop-color="#ffa700"/></linearGradient><path d="m342.515625 340.742188c0 94.582031-76.675781 171.257812-171.257813 171.257812-94.582031 0-171.257812-76.675781-171.257812-171.257812 0-94.582032 76.675781-213.355469 171.257812-213.355469 94.582032 0 171.257813 118.773437 171.257813 213.355469zm0 0" fill="url(#a)"/><path d="m258.910156 19.5-1.335937 16.214844-10.015625 82.136718h-150.53125l-13.328125-99.210937c-1.347657-10.03125 6.148437-18.640625 16.230469-18.640625h14.066406c6.664062 0 12.734375 7.695312 14.285156 18.136719l3.132812 20.945312c.03125.222657.066407.441407.113282.660157 0 .035156.015625.070312.015625.105468.015625.046875.015625.09375.03125.136719.015625.105469.042969.199219.070312.289063.078125.359374.175781.707031.273438 1.042968.015625.046875.027343.09375.042969.136719.152343.5.335937.972656.542968 1.425781.066406.164063.132813.3125.210938.460938.242187.488281.511718.949218.808594 1.367187.089843.140625.1875.277344.289062.40625.394531.519531.835938.960938 1.292969 1.316407.183593.164062.375.304687.566406.417968.105469.070313.214844.140625.332031.195313.132813.082031.273438.140625.417969.199219.152344.070312.304687.125.472656.171874.058594.023438.117188.046876.1875.058594.117188.035156.234375.058594.351563.070313.234375.046875.464844.070312.710937.070312 3.523438 0 6.160157-4.515625 5.882813-10.105469l-.449219-9.003906c-.453125-9.164062 3.855469-16.59375 9.652344-16.59375h30.804687c5.007813 0 9.78125 4.664063 12.183594 11.894532h15.539062c3.363282 0 6.074219-3.714844 6.5-8.921876.433594-5.207031 3.148438-8.921874 6.507813-8.921874h26.53125c4.507813 0 8.195313 6.5625 7.613281 13.539062zm0 0" fill="url(#b)"/><path d="m258.910156 19.5-1.335937 16.214844-10.015625 82.136718h-50.882813l-.460937-94.046874h15.542968c3.359376 0 6.074219-3.714844 6.496094-8.921876.4375-5.207031 3.148438-8.921874 6.511719-8.921874h26.527344c4.511719 0 8.199219 6.5625 7.617187 13.539062zm0 0" fill="url(#d)"/><path d="m258.910156 19.5-1.335937 16.214844-10.015625 82.136718h-77.839844l-5.269531-105.941406h19.585937c5.003906 0 9.78125 4.664063 12.179688 11.894532h15.542968c3.359376 0 6.074219-3.714844 6.496094-8.921876.4375-5.207031 3.148438-8.921874 6.511719-8.921874h26.527344c4.511719 0 8.199219 6.5625 7.617187 13.539062zm0 0" fill="url(#e)"/><path d="m99.949219 0 5.863281 117.851562h-8.785156l-13.324219-99.191406c-1.351563-10.042968 6.152344-18.660156 16.246094-18.660156zm0 0" fill="url(#f)"/><path d="m131.414062 39.085938c.730469 4.914062 3.585938 8.53125 6.730469 8.53125 3.523438 0 6.15625-4.523438 5.878907-10.105469l1.480468 29.78125c.261719 5.242187-2.210937 9.488281-5.519531 9.488281-3.21875 0-6.066406-4.027344-6.445313-9.117188zm0 0" fill="url(#g)"/><path d="m142.007812 117.851562h-44.980468l-13.324219-99.175781c-1.347656-10.050781 6.160156-18.675781 16.261719-18.675781h14.03125c6.664062 0 12.734375 7.695312 14.285156 18.136719l3.132812 20.945312c.03125.222657.066407.441407.113282.660157 0 .035156.015625.070312.015625.105468.015625.046875.027343.09375.03125.136719.015625.105469.042969.199219.070312.289063.078125.359374.175781.707031.273438 1.042968.015625.046875.027343.09375.042969.136719l.195312 1.402344 4.21875 32.117187zm0 0" fill="url(#h)"/><path d="m171.257812 127.386719c-27.003906 0-52.542968 9.695312-75.261718 25.730469.109375.066406.21875.136718.332031.199218l238.453125 238.457032c5.023438-16.117188 7.734375-33.257813 7.734375-51.03125 0-94.582032-76.675781-213.355469-171.257813-213.355469zm0 0" fill="url(#i)"/><path d="m239.398438 155.09375h-136.28125c-7.679688 0-13.902344-6.222656-13.902344-13.902344v-15.503906c0-7.679688 6.226562-13.902344 13.902344-13.902344h136.28125c7.675781 0 13.898437 6.222656 13.898437 13.902344v15.503906c0 7.679688-6.222656 13.902344-13.898437 13.902344zm0 0" fill="url(#j)"/><path d="m342.511719 340.746094c0 92.96875-74.082031 168.640625-166.4375 171.191406l-68.957031-68.957031c-8.167969-6.855469-12.265626-13.824219-12.265626-20.886719 0-4.316406 1.578126-8.621094 4.746094-12.933594 3.164063-4.316406 6.78125-6.46875 10.851563-6.46875 2.695312 0 6.242187 1.976563 10.628906 5.953125 4.398437 3.96875 10.414063 8.222657 18.089844 12.761719 7.675781 4.550781 16.550781 7.152344 26.625 7.832031v-57.070312l-43.617188-43.710938c-.175781-.164062-.371093-.316406-.542969-.480469-3.300781-3.066406-6.777343-6.765624-10.40625-11.082031-3.644531-4.292969-6.261718-9.347656-7.847656-15.136719-1.601562-5.78125-2.390625-12.195312-2.390625-19.226562 0-19.75 6.191407-34.753906 18.59375-44.996094 12.390625-10.238281 27.792969-16.367187 46.210938-18.417968v-9.890626c0-2.046874.964843-3.863281 2.902343-5.460937 1.925782-1.578125 4.261719-2.378906 7-2.378906 2.5 0 4.816407.800781 6.980469 2.378906 1.882813 1.382813 2.890625 2.960937 3.144531 4.683594l12.25 10.925781c9.261719 1.105469 18.015626 3.105469 26.226563 6.058594 8.003906 2.878906 13.273437 6.515625 15.804687 10.925781l102.398438 102.398437c.011719.664063.011719 1.332032.011719 1.988282zm0 0" fill="url(#k)"/><path d="m2.675781 371.0625c14.3125 80.121094 84.34375 140.9375 168.582031 140.9375 84.234376 0 154.265626-60.816406 168.582032-140.9375zm0 0" fill="url(#l)"/><path d="m94.851562 422.089844c0-4.3125 1.578126-8.625 4.742188-12.9375 3.167969-4.308594 6.78125-6.46875 10.851562-6.46875 2.699219 0 6.242188 1.988281 10.632813 5.960937 4.390625 3.972657 10.417969 8.226563 18.09375 12.761719 7.675781 4.542969 16.550781 7.148438 26.625 7.832031v-79.992187c-6.820313-2.496094-12.054687-4.484375-15.6875-5.960938-3.640625-1.46875-8.476563-3.628906-14.5-6.464844-6.023437-2.835937-10.6875-5.789062-13.984375-8.851562-3.296875-3.066406-6.765625-6.753906-10.402344-11.066406-3.640625-4.308594-6.253906-9.355469-7.847656-15.144532-1.589844-5.789062-2.386719-12.199218-2.386719-19.234374 0-19.753907 6.195313-34.75 18.59375-44.984376 12.390625-10.230468 27.796875-16.371093 46.214844-18.417968v-9.890625c0-2.046875.964844-3.867188 2.898437-5.457031 1.929688-1.589844 4.265626-2.390626 6.996094-2.390626 2.496094 0 4.828125.800782 6.988282 2.390626 2.160156 1.589843 3.242187 3.410156 3.242187 5.457031v9.207031c13.867187.460938 26.660156 2.789062 38.375 6.992188 11.710937 4.210937 17.566406 10.0625 17.566406 17.570312 0 4.09375-1.378906 8.355469-4.128906 12.789062-2.75 4.433594-6.421875 6.652344-11.007813 6.652344-1.8125 0-6.796874-1.929687-14.9375-5.800781-8.152343-3.863281-16.773437-6.136719-25.867187-6.820313v69.125c9.046875 3.40625 16.566406 6.640626 22.554687 9.707032 5.992188 3.0625 12.328126 7.316406 19.003907 12.761718 6.671875 5.449219 11.703125 12.3125 15.09375 20.597657 3.386719 8.28125 5.089843 17.984375 5.089843 29.101562 0 20.316407-5.542968 36.46875-16.625 48.449219-11.085937 11.980469-26.121093 19.339844-45.117187 22.078125v11.394531c0 2.011719-1.078125 3.796875-3.238281 5.363282-2.164063 1.5625-4.492188 2.34375-6.992188 2.34375-2.730468 0-5.0625-.78125-6.992187-2.339844-1.9375-1.566406-2.902344-3.351563-2.902344-5.359375v-10.378907c-19.78125-.230468-36.554687-4.753906-50.308594-13.578124-13.761719-8.828126-20.636719-17.824219-20.636719-26.996094zm39.910157-142.96875c0 8.855468 2.753906 15.605468 8.269531 20.253906 5.511719 4.652344 13.78125 9.023438 24.8125 13.105469v-62.011719c-22.058594 2.730469-33.082031 12.28125-33.082031 28.652344zm49.117187 149.433594c20.007813-3.628907 30.015625-14.867188 30.015625-33.699219 0-9.984375-2.617187-17.8125-7.847656-23.484375-5.230469-5.667969-12.617187-10.550782-22.171875-14.640625v71.824219zm0 0" fill="url(#m)"/></svg>