<svg height="512pt" viewBox="0 0 512 512" width="512pt" xmlns="http://www.w3.org/2000/svg" xmlns:xlink="http://www.w3.org/1999/xlink"><linearGradient id="a"><stop offset="0" stop-color="#3b395f"/><stop offset=".0633" stop-color="#37355a"/><stop offset=".4033" stop-color="#232543"/><stop offset=".7232" stop-color="#171b35"/><stop offset="1" stop-color="#131830"/></linearGradient><linearGradient id="b" gradientUnits="userSpaceOnUse" x1="160.3896908782" x2="570.9272288496" xlink:href="#a" y1="160.389590486" y2="570.9272288496"/><linearGradient id="c" gradientTransform="matrix(-1.003922 0 0 -1.003922 512 512)" gradientUnits="userSpaceOnUse" x1="169.7679" x2="535.7425" xlink:href="#a" y1="169.7678" y2="535.7425"/><radialGradient id="d" cx="217.912313242" cy="125.8665199656" gradientUnits="userSpaceOnUse" r="332.8306622288"><stop offset="0" stop-color="#fffcf8"/><stop offset=".2239" stop-color="#fbf9f7"/><stop offset=".4254" stop-color="#f0f1f3"/><stop offset=".6183" stop-color="#dee3ed"/><stop offset=".8059" stop-color="#c4d0e4"/><stop offset=".9882" stop-color="#a3b7d9"/><stop offset="1" stop-color="#a1b5d8"/></radialGradient><linearGradient id="e" gradientUnits="userSpaceOnUse" x1="248.6179703574" x2="269.0600309058" xlink:href="#a" y1="87.4539544406" y2="87.4539544406"/><linearGradient id="f" gradientUnits="userSpaceOnUse" x1="248.6179703574" x2="269.0600309058" xlink:href="#a" y1="424.5462655594" y2="424.5462655594"/><linearGradient id="g" gradientTransform="matrix(0 1.003922 -1.003922 0 512 -.000009)" gradientUnits="userSpaceOnUse" x1="247.6467" x2="268.0089" xlink:href="#a" y1="87.1123" y2="87.1123"/><linearGradient id="h" gradientTransform="matrix(0 1.003922 -1.003922 0 512 -.000009)" gradientUnits="userSpaceOnUse" x1="247.6467" x2="268.0089" xlink:href="#a" y1="422.8877" y2="422.8877"/><linearGradient id="i" gradientUnits="userSpaceOnUse" x1="360.9451966622" x2="250.5326503958" y1="360.9451966622" y2="250.5326503958"><stop offset="0" stop-color="#a1b5d8" stop-opacity="0"/><stop offset=".0343" stop-color="#9fb3d5" stop-opacity=".035294"/><stop offset=".4515" stop-color="#8898af" stop-opacity=".45098"/><stop offset=".788" stop-color="#798898" stop-opacity=".788235"/><stop offset="1" stop-color="#748290"/></linearGradient><linearGradient id="j" gradientTransform="matrix(.709873 .709873 -.709873 .709873 256 -106.038714)" gradientUnits="userSpaceOnUse" x1="238.6104" x2="269.9658" y1="179.0411" y2="179.0411"><stop offset="0" stop-color="#ff4974"/><stop offset=".2084" stop-color="#fc416e"/><stop offset=".5341" stop-color="#f42b5d"/><stop offset=".9345" stop-color="#e60742"/><stop offset="1" stop-color="#e4003d"/></linearGradient><linearGradient id="k" gradientTransform="matrix(.709873 .709873 -.709873 .709873 256 -106.038714)" gradientUnits="userSpaceOnUse" x1="242.4342" x2="273.7896" y1="330.9589" y2="330.9589"><stop offset="0" stop-color="#00e7b2"/><stop offset=".4757" stop-color="#19daaa"/><stop offset="1" stop-color="#3ac9a0"/></linearGradient><radialGradient id="l" cx="246.8813860818" cy="224.8444950442" gradientUnits="userSpaceOnUse" r="79.683798945"><stop offset="0" stop-color="#ffc738"/><stop offset=".4873" stop-color="#ffc636"/><stop offset=".6746" stop-color="#ffc22f"/><stop offset=".8103" stop-color="#ffbb23"/><stop offset=".9203" stop-color="#ffb112"/><stop offset="1" stop-color="#ffa700"/></radialGradient><radialGradient id="m" cx="276.5222498172" cy="288.4817012978" gradientUnits="userSpaceOnUse" r="265.9891339"><stop offset="0" stop-color="#fff" stop-opacity="0"/><stop offset=".8587" stop-color="#fff" stop-opacity=".858824"/><stop offset="1" stop-color="#fff"/></radialGradient><path d="m512 256c0 141.386719-114.613281 256-256 256s-256-114.613281-256-256 114.613281-256 256-256 256 114.613281 256 256zm0 0" fill="url(#b)"/><path d="m485.105469 256c0 126.53125-102.574219 229.105469-229.105469 229.105469s-229.105469-102.574219-229.105469-229.105469 102.574219-229.105469 229.105469-229.105469 229.105469 102.574219 229.105469 229.105469zm0 0" fill="url(#c)"/><path d="m468.65625 256c0 117.449219-95.207031 212.65625-212.65625 212.65625s-212.65625-95.207031-212.65625-212.65625 95.207031-212.65625 212.65625-212.65625 212.65625 95.207031 212.65625 212.65625zm0 0" fill="url(#d)"/><path d="m256 112.558594c-7.730469 0-14-6.269532-14-14v-22.210938c0-7.730468 6.269531-14 14-14s14 6.269532 14 14v22.210938c0 7.730468-6.269531 14-14 14zm0 0" fill="url(#e)"/><path d="m256 449.652344c-7.730469 0-14-6.269532-14-14v-22.210938c0-7.730468 6.269531-14 14-14s14 6.269532 14 14v22.210938c0 7.730468-6.269531 14-14 14zm0 0" fill="url(#f)"/><path d="m399.441406 256c0-7.730469 6.269532-14 14-14h22.210938c7.730468 0 14 6.269531 14 14s-6.269532 14-14 14h-22.210938c-7.730468 0-14-6.269531-14-14zm0 0" fill="url(#g)"/><path d="m62.347656 256c0-7.730469 6.269532-14 14-14h22.210938c7.730468 0 14 6.269531 14 14s-6.269532 14-14 14h-22.210938c-7.730468 0-14-6.269531-14-14zm0 0" fill="url(#h)"/><path d="m248.828125 205.601562c-11.1875 1.578126-21.210937 6.78125-28.828125 14.398438s-12.820312 17.640625-14.398438 28.828125l-57.445312 115.015625 104.777344 104.773438c1.019531.015624 2.042968.039062 3.066406.039062 117.449219 0 212.65625-95.207031 212.65625-212.65625 0-1.027344-.023438-2.046875-.039062-3.066406l-104.773438-104.777344zm0 0" fill="url(#i)"/><path d="m292 292-72-72 143.84375-71.84375zm0 0" fill="url(#j)"/><path d="m292 292-72-72-71.84375 143.84375zm0 0" fill="url(#k)"/><path d="m306.914062 256c0 28.117188-22.796874 50.914062-50.914062 50.914062s-50.914062-22.796874-50.914062-50.914062 22.796874-50.914062 50.914062-50.914062 50.914062 22.796874 50.914062 50.914062zm0 0" fill="url(#l)"/><path d="m455.382812 256c0 110.117188-89.265624 199.382812-199.382812 199.382812s-199.382812-89.265624-199.382812-199.382812 89.265624-199.382812 199.382812-199.382812 199.382812 89.265624 199.382812 199.382812zm0 0" fill="url(#m)"/></svg>