<svg height="511pt" viewBox="0 0 511.99943 511" width="511pt" xmlns="http://www.w3.org/2000/svg" xmlns:xlink="http://www.w3.org/1999/xlink"><linearGradient id="a"><stop offset="0" stop-color="#ffc738"/><stop offset=".2837" stop-color="#ffc534"/><stop offset=".5391" stop-color="#ffbf29"/><stop offset=".7827" stop-color="#ffb417"/><stop offset="1" stop-color="#ffa700"/></linearGradient><linearGradient id="b" gradientTransform="matrix(.947702 -.331395 .331395 .947702 -69.59078 98.812019)" gradientUnits="userSpaceOnUse" x1="435.7148" x2="435.7148" xlink:href="#a" y1="205.3974" y2="297.7219"/><linearGradient id="c" gradientTransform="matrix(.947702 -.331395 .331395 .947702 -69.59078 98.812019)" gradientUnits="userSpaceOnUse" x1="290.483" x2="290.483" y1="191.9061" y2="379.482"><stop offset="0" stop-color="#fffcf8"/><stop offset=".1875" stop-color="#faf8f6"/><stop offset=".4041" stop-color="#eceef2"/><stop offset=".6353" stop-color="#d5dcea"/><stop offset=".875" stop-color="#b5c4df"/><stop offset="1" stop-color="#a1b5d8"/></linearGradient><linearGradient id="d"><stop offset="0" stop-color="#ff4974"/><stop offset=".3262" stop-color="#fe4672"/><stop offset=".5324" stop-color="#fb3e6c"/><stop offset=".7054" stop-color="#f52f60"/><stop offset=".8591" stop-color="#ee1a51"/><stop offset="1" stop-color="#e4003d"/></linearGradient><linearGradient id="e" gradientTransform="matrix(.947702 -.331395 .331395 .947702 -69.59078 98.812019)" gradientUnits="userSpaceOnUse" x1="417.1684" x2="484.5404" xlink:href="#d" y1="226.6057" y2="226.6057"/><linearGradient id="f" gradientTransform="matrix(.947702 -.331395 .331395 .947702 -69.59078 98.812019)" gradientUnits="userSpaceOnUse" x1="202.4307" x2="137.5529" y1="226.5985" y2="226.5985"><stop offset="0" stop-color="#a1b5d8" stop-opacity="0"/><stop offset=".2632" stop-color="#8ea0ba" stop-opacity=".262745"/><stop offset=".5306" stop-color="#808fa3" stop-opacity=".529412"/><stop offset=".7822" stop-color="#778595" stop-opacity=".780392"/><stop offset="1" stop-color="#748290"/></linearGradient><linearGradient id="g" gradientTransform="matrix(.947702 -.331395 .331395 .947702 -69.59078 98.812019)" gradientUnits="userSpaceOnUse" x1="39.0053" x2="39.0053" xlink:href="#a" y1="202.2646" y2="278.6199"/><linearGradient id="h" gradientTransform="matrix(.947702 -.331395 .331395 .947702 -2524.896919 329.86497)" gradientUnits="userSpaceOnUse" x1="2495.6077" x2="2495.6077" xlink:href="#d" y1="949.9967" y2="1109.3347"/><linearGradient id="i" gradientTransform="matrix(.947702 -.331395 .331395 .947702 -69.59078 98.812019)" gradientUnits="userSpaceOnUse" x1="122.0177" x2="122.0177" y1="363.1989" y2="279.5226"><stop offset="0" stop-color="#e4003d" stop-opacity="0"/><stop offset=".2234" stop-color="#cd1845" stop-opacity=".223529"/><stop offset=".5034" stop-color="#b82e4d" stop-opacity=".501961"/><stop offset=".7682" stop-color="#ab3c51" stop-opacity=".768627"/><stop offset="1" stop-color="#a64153"/></linearGradient><linearGradient id="j" gradientTransform="matrix(.947702 -.331395 .331395 .947702 -2524.896919 329.86497)" gradientUnits="userSpaceOnUse" x1="2553.5928" x2="2454.6575" y1="1049.8719" y2="950.9366"><stop offset="0" stop-color="#e4003d" stop-opacity="0"/><stop offset=".1066" stop-color="#d21243" stop-opacity=".105882"/><stop offset=".2664" stop-color="#bf274a" stop-opacity=".266667"/><stop offset=".4463" stop-color="#b1364f" stop-opacity=".447059"/><stop offset=".6608" stop-color="#a83e52" stop-opacity=".662745"/><stop offset="1" stop-color="#a64153"/></linearGradient><linearGradient id="k" gradientTransform="matrix(.947702 -.331395 .331395 .947702 -69.59078 98.812019)" gradientUnits="userSpaceOnUse" x1="108.634" x2="131.9851" y1="400.0389" y2="410.2176"><stop offset="0" stop-color="#ffc738"/><stop offset=".2447" stop-color="#ffc331"/><stop offset=".5988" stop-color="#ffb81e"/><stop offset="1" stop-color="#ffa700"/></linearGradient><linearGradient id="l" gradientTransform="matrix(.947702 -.331395 .331395 .947702 -69.59078 98.812019)" gradientUnits="userSpaceOnUse" x1="111.2363" x2="111.2363" xlink:href="#d" y1="169.2084" y2="310.3171"/><linearGradient id="m" gradientTransform="matrix(.947702 -.331395 .331395 .947702 -69.59078 98.812019)" gradientUnits="userSpaceOnUse" x1="111.2367" x2="111.2367" xlink:href="#d" y1="222.0213" y2="167.9535"/><linearGradient id="n" gradientTransform="matrix(.947702 -.331395 .331395 .947702 -69.59078 98.812019)" gradientUnits="userSpaceOnUse" x1="111.2354" x2="111.2354" xlink:href="#d" y1="261.9418" y2="207.874"/><path d="m500.46875 169.171875c0 45.308594-36.726562 82.035156-82.035156 82.035156s-82.035156-36.726562-82.035156-82.035156 36.726562-82.035156 82.035156-82.035156 82.035156 36.726562 82.035156 82.035156zm0 0" fill="url(#b)"/><path d="m487.6875 312.15625-330.855469 47.464844-61.675781-176.398438 288.347656-169.035156zm0 0" fill="url(#c)"/><path d="m489.335938 325.90625c-17.628907 6.164062-36.917969-3.128906-43.082032-20.757812l-90.789062-259.664063c-6.164063-17.628906 3.132812-36.917969 20.761718-43.082031 17.628907-6.164063 36.914063 3.132812 43.078126 20.761718l90.789062 259.664063c6.164062 17.628906-3.128906 36.914063-20.757812 43.078125zm0 0" fill="url(#e)"/><path d="m199.597656 121.996094-104.441406 61.226562 61.675781 176.398438 119.835938-17.191406zm0 0" fill="url(#f)"/><path d="m92.730469 324.847656-47.59375 16.640625c-14.851563 5.191407-31.101563-2.636719-36.292969-17.488281l-7.238281-20.703125c-5.195313-14.851563 2.636719-31.101563 17.488281-36.292969l47.59375-16.640625zm0 0" fill="url(#g)"/><path d="m119.804688 360.945312c-7.632813 2.667969-15.421876 3.871094-23.0625 3.765626l16.566406 47.371093c2.578125 7.375 3.285156 15.273438 2.0625 22.992188l-3.484375 21.929687c-5.601563 35.289063 28.5 63.773438 62.226562 51.980469 16.402344-5.734375 28.332031-20.015625 31.054688-37.175781l.855469-5.382813c7.054687-44.449219 4.496093-89.808593-7.390626-133.046875zm0 0" fill="url(#h)"/><path d="m198.632812 333.382812c6.46875 23.503907 10.144532 47.640626 11.046876 71.925782l-29.925782 10.460937-78.359375-37.75-4.652343-13.3125c7.640624.117188 15.429687-1.09375 23.054687-3.761719zm0 0" fill="url(#i)"/><path d="m205.167969 471.8125.855469-5.382812c3.027343-19.074219 4.273437-38.3125 3.78125-57.480469l-22.351563-10.773438c-4.386719-2.394531-9.765625-3.0625-15-1.230469l-31.617187 11.054688c-8.097657 2.832031-13.089844 10.855469-12.28125 19.394531.199218 2.125.25 4.070313.027343 5.476563l-2.523437 15.894531c-2.59375 16.347656 6.570312 30.660156 19.894531 36.648437l38.398437 18.5c11.011719-7.195312 18.703126-18.769531 20.816407-32.101562zm0 0" fill="url(#j)"/><path d="m140.835938 408c-8.097657 2.832031-13.089844 10.855469-12.28125 19.394531.199218 2.125.253906 4.070313.027343 5.476563l-2.523437 15.894531c-4.058594 25.578125 20.65625 46.226563 45.105468 37.679687 11.886719-4.160156 20.53125-14.507812 22.507813-26.945312l.617187-3.902344c2.203126-13.882812 3.113282-27.886718 2.746094-41.839844-.332031-12.460937-12.816406-20.925781-24.582031-16.8125zm0 0" fill="url(#k)"/><path d="m204.984375 355.960938-62.339844 21.792968c-33.96875 11.878906-71.136719-6.03125-83.015625-40.003906l-26.875-76.851562c-11.875-33.972657 6.035156-71.140626 40.003906-83.019532l62.339844-21.796875c3.097656-1.082031 6.484375.550781 7.566406 3.644531l65.964844 188.667969c1.082032 3.09375-.550781 6.480469-3.644531 7.566407zm0 0" fill="url(#l)"/><path d="m121.667969 244.1875-39.410157 13.777344c-8.054687 2.816406-16.863281-1.429688-19.679687-9.484375-2.816406-8.050781 1.429687-16.863281 9.480469-19.679688l39.410156-13.777343c8.054688-2.816407 16.863281 1.429687 19.679688 9.484374 2.816406 8.050782-1.429688 16.863282-9.480469 19.679688zm0 0" fill="url(#m)"/><path d="m134.894531 282.019531-39.410156 13.78125c-8.050781 2.8125-16.863281-1.429687-19.679687-9.484375-2.816407-8.054687 1.429687-16.863281 9.484374-19.679687l39.410157-13.78125c8.054687-2.8125 16.863281 1.429687 19.679687 9.484375 2.816406 8.054687-1.429687 16.863281-9.484375 19.679687zm0 0" fill="url(#n)"/></svg>