<svg height="512pt" viewBox="0 -3 512.00048 512" width="512pt" xmlns="http://www.w3.org/2000/svg" xmlns:xlink="http://www.w3.org/1999/xlink"><radialGradient id="a" cx="151.697172888" cy="76.1229253392" gradientUnits="userSpaceOnUse" r="450.0907596728"><stop offset="0" stop-color="#fffcf8"/><stop offset=".2239" stop-color="#fbf9f7"/><stop offset=".4254" stop-color="#f0f1f3"/><stop offset=".6183" stop-color="#dee3ed"/><stop offset=".8059" stop-color="#c4d0e4"/><stop offset=".9882" stop-color="#a3b7d9"/><stop offset="1" stop-color="#a1b5d8"/></radialGradient><linearGradient id="b"><stop offset="0" stop-color="#a1b5d8" stop-opacity="0"/><stop offset=".2632" stop-color="#8ea0ba" stop-opacity=".262745"/><stop offset=".5306" stop-color="#808fa3" stop-opacity=".529412"/><stop offset=".7822" stop-color="#778595" stop-opacity=".780392"/><stop offset="1" stop-color="#748290"/></linearGradient><linearGradient id="c" gradientUnits="userSpaceOnUse" x1="381.1461561852" x2="339.789489003" xlink:href="#b" y1="390.2004250002" y2="348.843757818"/><linearGradient id="d" gradientUnits="userSpaceOnUse" x1="421.8630238768" x2="339.945598874" xlink:href="#b" y1="396.4038598226" y2="143.91918349"/><linearGradient id="e" gradientUnits="userSpaceOnUse" x1="293.608073081" x2="216.1793841246" xlink:href="#b" y1="141.3361925762" y2="63.9074032276"/><linearGradient id="f"><stop offset="0" stop-color="#00e7b2"/><stop offset=".2459" stop-color="#05e5b1"/><stop offset=".5301" stop-color="#13ddac"/><stop offset=".8322" stop-color="#2ad1a5"/><stop offset="1" stop-color="#3ac9a0"/></linearGradient><linearGradient id="g" gradientUnits="userSpaceOnUse" x1="373.1651770696" x2="478.7826906874" xlink:href="#f" y1="208.4935547662" y2="254.901254707"/><linearGradient id="h" gradientUnits="userSpaceOnUse" x1="17.7076188438" x2="141.8493004212" xlink:href="#f" y1="252.5034874022" y2="376.6451689796"/><linearGradient id="i" gradientUnits="userSpaceOnUse" x1="246.2939319664" x2="270.298008163" xlink:href="#f" y1="428.7384807752" y2="486.3480427842"/><linearGradient id="j"><stop offset="0" stop-color="#3ac9a0" stop-opacity="0"/><stop offset=".0351" stop-color="#38c69d" stop-opacity=".035294"/><stop offset=".4167" stop-color="#23aa82" stop-opacity=".415686"/><stop offset=".7511" stop-color="#169971" stop-opacity=".752941"/><stop offset="1" stop-color="#11936b"/></linearGradient><linearGradient id="k" gradientUnits="userSpaceOnUse" x1="261.8541206132" x2="243.3897864048" xlink:href="#j" y1="468.6479943944" y2="444.5641063988"/><linearGradient id="l" gradientUnits="userSpaceOnUse" x1="228.3386866042" x2="271.219106598" xlink:href="#f" y1="76.065099432" y2="118.945619818"/><linearGradient id="m" gradientUnits="userSpaceOnUse" x1="432.6654253812" x2="351.7565404196" xlink:href="#j" y1="206.6972371316" y2="125.78835217"/><linearGradient id="n"><stop offset="0" stop-color="#ff4974"/><stop offset=".3262" stop-color="#fe4672"/><stop offset=".5324" stop-color="#fb3e6c"/><stop offset=".7054" stop-color="#f52f60"/><stop offset=".8591" stop-color="#ee1a51"/><stop offset="1" stop-color="#e4003d"/></linearGradient><radialGradient id="o" cx="372.1842448834" cy="136.3634657336" gradientUnits="userSpaceOnUse" r="49.3659568982" xlink:href="#n"/><linearGradient id="p" gradientUnits="userSpaceOnUse" x1="328.6786826602" x2="247.7697976986" xlink:href="#j" y1="267.8216304548" y2="186.9127454932"/><radialGradient id="q" cx="268.1975021624" cy="197.4878590568" gradientUnits="userSpaceOnUse" r="49.3659568982" xlink:href="#n"/><linearGradient id="r" gradientUnits="userSpaceOnUse" x1="92.2667975476" x2="11.357912586" xlink:href="#j" y1="296.4319015718" y2="215.5230166102"/><radialGradient id="s" cx="31.785717442" cy="226.0981301738" gradientUnits="userSpaceOnUse" r="49.3659568982" xlink:href="#n"/><linearGradient id="t" gradientUnits="userSpaceOnUse" x1="466.5292203242" x2="442.4452319364" xlink:href="#j" y1="285.5733808276" y2="267.108946227"/><linearGradient id="u" gradientUnits="userSpaceOnUse" x1="187.4446266796" x2="324.1831199442" y1="96.226864958" y2="424.3986263614"><stop offset="0" stop-color="#3b395f"/><stop offset=".0633" stop-color="#37355a"/><stop offset=".4033" stop-color="#232543"/><stop offset=".7232" stop-color="#171b35"/><stop offset="1" stop-color="#131830"/></linearGradient><path d="m500.9375 260.757812c0 135.222657-109.617188 244.839844-244.839844 244.839844-135.21875 0-244.839844-109.617187-244.839844-244.839844 0-135.222656 109.621094-244.839843 244.839844-244.839843 135.222656 0 244.839844 109.617187 244.839844 244.839843zm0 0" fill="url(#a)"/><path d="m500.9375 260.757812c0 135.21875-109.617188 244.839844-244.835938 244.839844-31.445312 0-61.5-5.925781-89.125-16.726562-13.800781-5.398438-27-12.019532-39.449218-19.714844 9.429687-1.914062 19.339844-4.574219 29.707031-8.019531 57.429687-19.050781 121.121094-58.765625 179.367187-111.796875 58.246094-53.046875 103.730469-112.773438 128.054688-168.167969 4.429688-10.078125 8.042969-19.820313 10.835938-29.09375.015624-.023437.015624-.058594.027343-.085937 6.5 13.105468 11.871094 26.867187 15.964844 41.171874 6.152344 21.472657 9.453125 44.148438 9.453125 67.59375zm0 0" fill="url(#c)"/><path d="m500.941406 260.753906c0 15.535156-1.445312 30.726563-4.21875 45.457032-3.796875 20.285156-10.113281 39.683593-18.597656 57.875-13.550781 29.082031-32.660156 55.066406-55.964844 76.574218l-106.195312-106.195312c-3.574219-2.0625-6.324219-5.371094-7.652344-9.34375l-54.226562-54.449219c-12.039063-10.265625-19.671876-25.53125-19.671876-42.589844v-41.152343c0-18.515626 6.886719-35.421876 18.257813-48.285157 12.761719-14.484375 31.179687-23.851562 51.816406-24.667969.96875-.035156 1.960938-.058593 2.9375-.058593h45.222657c9.390624 0 17-7.609375 17-17v-3.089844c0-9.390625 7.617187-17 17.011718-17h31.039063c1.269531 1.121094 2.527343 2.25 3.773437 3.390625 1.191406 1.097656 2.378906 2.203125 3.542969 3.308594.058594.046875.105469.09375.152344.152344 2.445312 2.34375 4.835937 4.730468 7.191406 7.167968l.242187.242188c42.332032 44 68.339844 103.785156 68.339844 169.664062zm0 0" fill="url(#d)"/><path d="m496.722656 306.210938c-3.796875 20.285156-10.113281 39.683593-18.597656 57.875l-225.449219-225.441407-28.492187-28.492187c-6.910156-4.972656-11.40625-13.082032-11.40625-22.242188 0-15.136718 12.269531-27.40625 27.40625-27.40625 9.15625 0 17.269531 4.5 22.242187 11.410156zm0 0" fill="url(#e)"/><path d="m500.941406 260.753906c0 26.519532-4.21875 52.0625-12.027344 75.984375h-164.488281c-9.390625 0-17-7.621093-17-17.011719v-18.644531c0-4.695312-1.910156-8.949219-4.988281-12.023437-3.074219-3.078125-7.328125-4.976563-12.023438-4.976563-30.925781 0-56-25.074219-56-56v-41.152343c0-40.328126 32.683594-73.011719 73.011719-73.011719h45.21875c9.394531 0 17-7.609375 17-17v-3.089844c0-9.390625 7.621094-17 17.011719-17h31.042969c51.035156 44.863281 83.242187 110.636719 83.242187 183.925781zm0 0" fill="url(#g)"/><path d="m123.710938 292.0625c0 46.316406-37.054688 83.976562-83.148438 84.933594-18.691406-34.585938-29.304688-74.164063-29.304688-116.242188 0-17.382812 1.808594-34.324218 5.253907-50.683594v-.011718c7.085937-1.921875 14.542969-2.949219 22.246093-2.949219 46.921876 0 84.953126 38.03125 84.953126 84.953125zm0 0" fill="url(#h)"/><path d="m256.097656 505.597656c48.648438 0 93.976563-14.1875 132.085938-38.648437-15.519532-16.769531-37.714844-27.269531-62.367188-27.269531-.839844 0-1.675781.011718-2.507812.035156-18.503906.539062-36.859375-4.195313-52.113282-14.6875-13.667968-9.40625-30.234374-14.914063-48.085937-14.914063-40.535156 0-74.410156 28.390625-82.890625 66.371094 34.5 18.570313 73.957031 29.113281 115.878906 29.113281zm0 0" fill="url(#i)"/><path d="m256.097656 505.597656c48.648438 0 93.976563-14.1875 132.085938-38.648437-15.519532-16.769531-37.714844-27.269531-62.367188-27.269531-.839844 0-1.675781.011718-2.507812.035156-18.503906.539062-36.859375-4.195313-52.113282-14.6875-13.667968-9.40625-30.234374-14.914063-48.085937-14.914063-40.535156 0-74.410156 28.390625-82.890625 66.371094 34.5 18.570313 73.957031 29.113281 115.878906 29.113281zm0 0" fill="url(#i)"/><path d="m325.816406 439.679688c-.835937 0-1.671875.015624-2.507812.039062-18.503906.535156-36.859375-4.199219-52.109375-14.691406-6.070313-4.175782-12.714844-7.578125-19.785157-10.078125-31.992187 20.40625-63.953124 36.160156-94.175781 46.1875-4.65625 1.546875-9.210937 2.925781-13.679687 4.160156-1.351563 3.617187-2.480469 7.34375-3.335938 11.175781.171875.09375.339844.1875.511719.277344 4.003906 2.144531 8.074219 4.179688 12.207031 6.101562.394532.183594.789063.363282 1.1875.546876 1.75.800781 3.511719 1.585937 5.285156 2.347656.382813.167968.769532.335937 1.152344.5 4.234375 1.796875 8.53125 3.476562 12.882813 5.035156.441406.160156.882812.3125 1.324219.46875 1.773437.621094 3.550781 1.226562 5.339843 1.808594.472657.15625.945313.3125 1.417969.464844 4.355469 1.390624 8.765625 2.664062 13.226562 3.8125.554688.144531 1.117188.28125 1.675782.421874 1.710937.429688 3.429687.839844 5.15625 1.230469.597656.136719 1.191406.277344 1.792968.40625 4.4375.976563 8.921876 1.828125 13.445313 2.558594.6875.113281 1.378906.214844 2.074219.320313 1.628906.25 3.265625.480468 4.90625.695312.722656.097656 1.445312.195312 2.175781.285156 2.109375.257813 4.230469.496094 6.359375.699219.304688.03125.609375.058594.914062.085937 2.109376.199219 4.230469.359376 6.355469.5.789063.054688 1.585938.097657 2.378907.140626 1.582031.09375 3.171874.167968 4.761718.226562.808594.03125 1.617188.0625 2.429688.085938 2.070312.058593 4.140625.089843 6.222656.097656.234375 0 .464844.007812.695312.007812 1.949219 0 3.894532-.027344 5.832032-.074218.386718-.007813.773437-.019532 1.15625-.03125 1.683594-.046876 3.359375-.109376 5.035156-.191407.273438-.011719.550781-.023437.824219-.039062 1.945312-.097657 3.886719-.222657 5.824219-.367188.214843-.015625.429687-.035156.644531-.054687 1.695312-.132813 3.386719-.28125 5.070312-.449219.398438-.039063.796875-.078125 1.191407-.121094 3.785156-.390625 7.546874-.871093 11.28125-1.433593.371093-.058594.742187-.117188 1.109374-.171876 1.574219-.246093 3.144532-.507812 4.707032-.78125.332031-.058593.667968-.113281 1-.175781 1.859375-.332031 3.714844-.6875 5.5625-1.066406.15625-.03125.308594-.066406.464844-.097656 1.664062-.339844 3.316406-.703125 4.964843-1.078125.410157-.09375.820313-.191406 1.230469-.285156 1.664062-.390626 3.324219-.792969 4.972656-1.214844.132813-.03125.269532-.066406.402344-.097656 1.804688-.464844 3.597656-.953126 5.382812-1.457032.355469-.101562.710938-.207031 1.066407-.308594 1.460937-.421874 2.917969-.855468 4.371093-1.300781.375-.117187.753907-.230469 1.132813-.347656 1.757813-.550781 3.511719-1.117187 5.253906-1.707031.082031-.027344.160157-.054688.242188-.082032 1.632812-.554687 3.253906-1.128906 4.867187-1.714843.417969-.152344.839844-.308594 1.257813-.460938 1.460937-.539062 2.914062-1.09375 4.363281-1.660156.25-.097656.5-.191406.75-.289063 1.683594-.667968 3.355469-1.351562 5.019531-2.050781.34375-.144531.683594-.292969 1.023438-.4375 1.351562-.578125 2.695312-1.164062 4.035156-1.765625.40625-.179687.808594-.363281 1.214844-.546875 3.265625-1.484375 6.488281-3.039062 9.671875-4.660156.414062-.207031.820312-.421875 1.230468-.632813 1.296876-.667968 2.585938-1.347656 3.871094-2.039062.316406-.171875.632813-.335938.945313-.507812 1.558593-.851563 3.109375-1.714844 4.648437-2.597657.300782-.175781.601563-.351562.902344-.527343 1.257812-.730469 2.511719-1.46875 3.757812-2.21875.402344-.246094.808594-.488282 1.210938-.734376 1.457031-.890624 2.90625-1.792968 4.34375-2.710937.050781-.035156.101562-.066406.152344-.097656.03125-.023438.0625-.042969.09375-.0625-15.519532-16.769531-37.714844-27.269531-62.367188-27.269531zm0 0" fill="url(#k)"/><path d="m267.582031 87.90625c0 15.132812-12.269531 27.402344-27.402343 27.402344-15.136719 0-27.40625-12.269532-27.40625-27.402344 0-15.136719 12.269531-27.40625 27.40625-27.40625 15.132812 0 27.402343 12.269531 27.402343 27.40625zm0 0" fill="url(#l)"/><path d="m408.84375 151.8125c-4.019531-4.332031-9.738281-7.054688-16.113281-7.054688-12.152344 0-22.003907 9.851563-22.003907 22.003907 0 6.371093 2.722657 12.09375 7.050782 16.113281l58.0625 58.0625c4.019531 4.328125 9.742187 7.050781 16.113281 7.050781 12.152344 0 22.003906-9.851562 22.003906-22.003906 0-6.371094-2.722656-12.09375-7.050781-16.113281zm0 0" fill="url(#m)"/><path d="m414.734375 166.761719c0 12.152343-9.851563 22.003906-22.003906 22.003906-12.152344 0-22.003907-9.851563-22.003907-22.003906 0-12.152344 9.851563-22.003907 22.003907-22.003907 12.152343 0 22.003906 9.851563 22.003906 22.003907zm0 0" fill="url(#o)"/><path d="m304.855469 212.9375c-4.019531-4.332031-9.738281-7.054688-16.113281-7.054688-12.152344 0-22.003907 9.851563-22.003907 22.003907 0 6.371093 2.726563 12.09375 7.054688 16.113281l58.058593 58.0625c4.019532 4.328125 9.742188 7.050781 16.113282 7.050781 12.152344 0 22.007812-9.851562 22.007812-22.003906 0-6.371094-2.726562-12.09375-7.054687-16.113281zm0 0" fill="url(#p)"/><path d="m310.75 227.886719c0 12.152343-9.855469 22.003906-22.007812 22.003906-12.152344 0-22.003907-9.851563-22.003907-22.003906 0-12.152344 9.851563-22.003907 22.003907-22.003907 12.152343 0 22.007812 9.851563 22.007812 22.003907zm0 0" fill="url(#q)"/><path d="m68.445312 241.546875c-4.019531-4.332031-9.742187-7.054687-16.113281-7.054687-12.152343 0-22.003906 9.851562-22.003906 22.003906 0 6.371094 2.722656 12.09375 7.050781 16.113281l58.0625 58.0625c4.019532 4.328125 9.738282 7.050781 16.113282 7.050781 12.152343 0 22.003906-9.851562 22.003906-22.003906 0-6.371094-2.722656-12.09375-7.054688-16.113281zm0 0" fill="url(#r)"/><path d="m74.335938 256.496094c0 12.152344-9.851563 22.003906-22.003907 22.003906-12.152343 0-22.003906-9.851562-22.003906-22.003906s9.851563-22.003906 22.003906-22.003906c12.152344 0 22.003907 9.851562 22.003907 22.003906zm0 0" fill="url(#s)"/><path d="m500.933594 260.210938c-.003906-1.78125-.03125-3.558594-.074219-5.332032-.015625-.601562-.03125-1.203125-.046875-1.800781-.058594-1.875-.132812-3.746094-.230469-5.609375-.027343-.46875-.058593-.941406-.089843-1.410156-.089844-1.53125-.195313-3.054688-.3125-4.578125-.046876-.609375-.09375-1.21875-.144532-1.824219-.152344-1.796875-.324218-3.589844-.519531-5.378906-.066406-.617188-.140625-1.234375-.210937-1.851563-.160157-1.390625-.332032-2.773437-.515626-4.152343-.078124-.605469-.15625-1.214844-.238281-1.816407-.242187-1.722656-.503906-3.441406-.78125-5.15625-.117187-.707031-.238281-1.414062-.359375-2.121093-.226562-1.328126-.464844-2.652344-.714844-3.972657-.144531-.769531-.289062-1.542969-.441406-2.308593-.289062-1.460938-.59375-2.914063-.90625-4.363282-.164062-.75-.332031-1.5-.5-2.246094-.320312-1.414062-.652344-2.820312-1-4.222656-.207031-.839844-.417968-1.675781-.632812-2.511718-.3125-1.203126-.628906-2.402344-.957032-3.597657-.203124-.742187-.40625-1.484375-.613281-2.222656-.261719-.917969-.539062-1.832031-.808593-2.746094-.304688-1.019531-.597657-2.046875-.914063-3.0625-.566406-1.820312-1.152344-3.632812-1.757813-5.429687-.257812-.761719-.53125-1.511719-.792968-2.265625-.402344-1.160157-.808594-2.320313-1.230469-3.472657-.300781-.828124-.613281-1.648437-.925781-2.472656-.40625-1.074218-.8125-2.144531-1.234375-3.210937-.328125-.832031-.660157-1.660157-1-2.488281-.429688-1.058594-.867188-2.113282-1.308594-3.164063-.339844-.800781-.683594-1.605469-1.03125-2.402344-.484375-1.113281-.980469-2.21875-1.484375-3.324219-.324219-.714843-.644531-1.429687-.972656-2.144531-.664063-1.417969-1.339844-2.832031-2.027344-4.238281-.183594-.375-.359375-.75-.542969-1.125-.03125-.0625-.066406-.121094-.09375-.183594-.011719.023438-.011719.054688-.023437.078125-2.792969 9.273438-6.40625 19.015625-10.839844 29.09375-22.414062 51.046875-62.8125 105.773438-114.597656 155.5625h138.839844c.179687-.550781.363281-1.101562.539062-1.652343.242188-.757813.484375-1.515626.71875-2.273438.398438-1.296875.78125-2.597656 1.160156-3.902344.164063-.570312.332032-1.140625.492188-1.710937.433594-1.546875.855468-3.101563 1.261718-4.664063.164063-.625.316407-1.257812.476563-1.886718.296875-1.183594.589844-2.375.871094-3.566407.152343-.648437.304687-1.300781.449219-1.949219.292968-1.292968.574218-2.585937.847656-3.882812.105468-.515625.21875-1.027344.324218-1.546875.367188-1.8125.71875-3.632813 1.046876-5.464844.046874-.265625.089843-.535156.136718-.800781.277344-1.582031.542969-3.167969.789063-4.757812.085937-.542969.164062-1.089844.246093-1.636719.203126-1.375.398438-2.75.578126-4.132813.070312-.535156.140624-1.070312.207031-1.605468.207031-1.65625.398437-3.316407.570312-4.976563.023438-.21875.050781-.433594.070313-.652344.195312-1.933593.367187-3.875.519531-5.824219.023437-.339843.046875-.6875.070313-1.03125.117187-1.578124.214843-3.160156.300781-4.746093.027343-.515625.054687-1.027344.078125-1.542969.070312-1.519531.128906-3.039062.171875-4.5625.015625-.4375.03125-.875.039062-1.3125.046875-1.960938.074219-3.925781.074219-5.894531 0-.1875-.003906-.367188-.003906-.550781zm0 0" fill="url(#t)"/><path d="m490.46875 47.277344c-4.25-4.671875-9.03125-8.757813-14.3125-12.265625l2.085938-5.488281c5.757812-15.128907-6.421876-31.027344-22.53125-29.410157l-46.21875 4.648438c-17.855469 1.792969-25.996094 23.203125-13.847657 36.410156l31.449219 34.183594c10.957031 11.917969 30.625 8.132812 36.378906-7l1.796875-4.71875c1.222657 1.085937 2.382813 2.222656 3.476563 3.421875 15.8125 17.378906 17.996094 47.554687 6.742187 85.015625-2.789062 9.285156-6.398437 19.015625-10.832031 29.101562-24.332031 55.394531-69.808594 115.121094-128.054688 168.160157-58.246093 53.042968-121.941406 92.746093-179.363281 111.804687-10.371093 3.4375-20.296875 6.101563-29.71875 8.015625-38.492187 7.789062-68.425781 2.820312-84.28125-14.589844-15.882812-17.4375-17.894531-47.871094-6.625-85.328125-.4375-.855469-.859375-1.738281-1.277343-2.605469-6.0625-12.636718-10.9375-25.539062-14.675782-38.570312-11.65625 26.300781-18.425781 50.808594-20.207031 73.046875-2.414063 30.136719 4.871094 55.464844 21.046875 73.242187 28.324219 31.101563 79.820312 36.308594 144.988281 14.6875.195313-.066406.390625-.136718.585938-.203124 14.882812-4.972657 30.125-11.199219 45.554687-18.601563 47.90625-22.972656 97.601563-57.140625 143.769532-99.167969 61.128906-55.691406 109.113281-118.847656 135.078124-177.855468.03125-.070313.054688-.136719.089844-.203126 27.621094-62.878906 27.226563-114.628906-1.097656-145.730468zm0 0" fill="url(#u)"/></svg>