<svg height="503pt" viewBox="0 0 503.73244 503" width="503pt" xmlns="http://www.w3.org/2000/svg"><path d="m485.25 1.492188-66.300781 29.417968-57.707031 25.601563 86.34375 86.34375 25.601562-57.707031 29.417969-66.300782c2.203125-4.96875 1.117187-10.785156-2.726563-14.628906s-9.65625-4.925781-14.628906-2.726562zm0 0" fill="#2c3e50"/><path d="m425.632812 95.824219-312.40625 295.050781-22.652343-45.214844c-2.429688-2.457031-5.742188-3.839844-9.199219-3.839844-3.453125 0-6.765625 1.382813-9.195312 3.839844l289.0625-289.148437zm0 0" fill="#f0c419"/><path d="m158.4375 431.921875c2.457031-2.433594 3.839844-5.746094 3.839844-9.199219 0-3.457031-1.382813-6.769531-3.839844-9.199218l-45.210938-22.648438 303.726563-303.730469 30.632813 55.710938-314.921876 314.925781v-.085938zm0 0" fill="#f29c1f"/><path d="m473.1875 85.148438-25.601562 57.707031-86.34375-86.34375 57.707031-25.601563c3.976562 12.753906 11.007812 24.339844 20.480469 33.757813 9.417968 9.472656 21.007812 16.503906 33.757812 20.480469zm0 0" fill="#fdd7ad"/><path d="m138.738281 451.53125v.089844l-35.234375 35.230468c-22.941406 22.910157-60.101562 22.910157-83.046875 0l-3.210937-3.210937c-11.039063-10.996094-17.246094-25.941406-17.246094-41.523437 0-15.582032 6.207031-30.527344 17.246094-41.523438l35.234375-35.320312zm0 0" fill="#d75e72"/><path d="m158.4375 431.921875-25.773438 25.773437-86.257812-86.261718 25.773438-25.773438c2.429687-2.457031 5.742187-3.839844 9.195312-3.839844 3.457031 0 6.769531 1.382813 9.199219 3.839844l67.863281 67.863282c2.457031 2.429687 3.839844 5.742187 3.839844 9.199218 0 3.453125-1.382813 6.765625-3.839844 9.199219zm0 0" fill="#bdc3c7"/></svg>