<svg height="504pt" viewBox="0 0 504.98305 504" width="504pt" xmlns="http://www.w3.org/2000/svg"><path d="m501.144531 234.53125-115.554687 115.554688c-5.121094 5.207031-9.621094 9.621093-15.714844 15.710937l-228.101562-232.164063c5.207031-5.207031 8.472656-8.5625 13.679687-13.683593l15.007813-15.003907 14.035156-14.039062 32.132812-32.132812 54.378906-54.375c2.472657-2.5 5.84375-3.90625 9.355469-3.90625 3.515625 0 6.886719 1.40625 9.359375 3.90625l124.820313 124.820312 86.601562 86.597656c5.117188 5.1875 5.117188 13.527344 0 18.714844zm0 0" fill="#ff5364"/><path d="m477.75 257.925781-75.476562 75.476563-231.8125-228.457032 14.035156-14.039062 32.132812-32.132812 52.4375-4.589844c4-.421875 7.984375.945312 10.882813 3.738281 2.894531 2.792969 4.40625 6.726563 4.125 10.738281l-3.886719 41.136719c-.28125 3.683594.957031 7.324219 3.421875 10.074219 2.46875 2.75 5.953125 4.375 9.644531 4.492187l110.875 5.03125c2.699219.167969 5.296875 1.085938 7.503906 2.648438.6875.511719 1.335938 1.074219 1.941407 1.679687 2.757812 2.796875 4.117187 6.683594 3.707031 10.589844l-10.328125 89.335938c-.753906 7.199218 4.3125 13.707031 11.476563 14.742187zm0 0" fill="#df4d60"/><path d="m144.597656 287.054688-6.003906 10.769531c-14.492188 24.289062-34.027344 45.179687-57.289062 61.265625l-73.359376 56.761718c-15.976562 15.890626-5.648437 51.90625 11.476563 69.03125s53.140625 27.453126 69.03125 11.476563l56.761719-73.359375c16.085937-23.261719 36.976562-42.796875 61.261718-57.289062l10.683594-6.003907zm-71.804687 169.492187c-4.417969 6.613281-12.640625 9.554687-20.25 7.246094-7.609375-2.308594-12.8125-9.324219-12.8125-17.273438 0-7.953125 5.203125-14.96875 12.8125-17.277343 7.609375-2.308594 15.832031.636718 20.25 7.246093 4.058593 6.074219 4.058593 13.992188 0 20.066407zm0 0" fill="#f29c1f"/><path d="m446.589844 289.085938-61 61c-5.121094 5.207031-9.578125 9.578124-15.722656 15.722656l-228.128907-232.167969c5.242188-5.242187 8.507813-8.597656 13.714844-13.71875l29.042969-29.039063 54.46875-4.945312c3.90625-.332031 7.761718 1.078125 10.535156 3.851562 2.773438 2.773438 4.183594 6.628907 3.851562 10.539063l-3.707031 40.78125c-.332031 3.589844.820313 7.160156 3.1875 9.878906 2.371094 2.71875 5.746094 4.347657 9.347657 4.511719l106.371093 5.03125c3.648438.214844 7.050781 1.910156 9.417969 4.691406 2.367188 2.785156 3.492188 6.414063 3.121094 10.050782l-9.890625 88.566406c-.765625 7.011718 4.078125 13.402344 11.035156 14.566406zm0 0" fill="#35495e"/><path d="m208.332031 368.535156c20.578125 18.636719 43.167969 34.921875 67.355469 48.550782 13.503906 7.417968 30.628906 12.269531 42.988281-.085938l57.558594-57.558594-230.136719-230.132812-57.554687 57.554687c-12.359375 12.269531-7.503907 29.484375-.089844 42.992188 13.292969 23.683593 29.160156 45.828125 47.316406 66.027343zm0 0" fill="#f0c419"/><g fill="#f3d55b"><path d="m190.835938 234.019531c-2.34375.007813-4.589844-.925781-6.242188-2.585937l-44.753906-44.746094c-3.347656-3.464844-3.296875-8.96875.105468-12.375 3.40625-3.40625 8.910157-3.453125 12.375-.109375l44.757813 44.75c2.523437 2.523437 3.277344 6.320313 1.910156 9.617187-1.363281 3.296876-4.582031 5.449219-8.152343 5.449219zm0 0"/><path d="m229.191406 272.386719c-2.339844-.003907-4.585937-.933594-6.242187-2.589844l-12.78125-12.789063c-3.34375-3.464843-3.296875-8.96875.109375-12.375 3.402344-3.40625 8.910156-3.453124 12.371094-.109374l12.785156 12.792968c2.523437 2.523438 3.277344 6.320313 1.910156 9.617188-1.363281 3.300781-4.582031 5.449218-8.152344 5.453125zm0 0"/></g></svg>