<svg height="512pt" viewBox="0 -79 512 512" width="512pt" xmlns="http://www.w3.org/2000/svg"><path d="m158.898438 13.242188v326.621093c0 7.3125-5.929688 13.238281-13.242188 13.238281h-66.207031v-353.101562h66.207031c7.3125 0 13.242188 5.929688 13.242188 13.242188zm0 0" fill="#2980ba"/><path d="m79.449219 0v353.101562h-66.207031c-7.3125 0-13.242188-5.925781-13.242188-13.238281v-326.621093c0-7.3125 5.929688-13.242188 13.242188-13.242188zm0 0" fill="#3b97d3"/><path d="m501.320312 181.671875-173.464843 167.722656c-2.496094 2.386719-5.816407 3.714844-9.269531 3.707031h-60.027344l194.296875-194.203124h39.28125c5.398437 0 10.253906 3.28125 12.273437 8.289062 2.019532 5.007812.796875 10.738281-3.089844 14.484375zm0 0" fill="#2980ba"/><path d="m452.855469 158.898438-194.296875 194.203124h-35.75c-5.398438 0-10.253906-3.28125-12.273438-8.289062-2.019531-5.007812-.792968-10.738281 3.09375-14.484375l173.460938-167.722656c2.460937-2.382813 5.753906-3.714844 9.179687-3.707031zm0 0" fill="#3b97d3"/><path d="m35.308594 167.722656c-4.875 0-8.824219-3.949218-8.824219-8.824218v-70.621094c0-4.875 3.949219-8.828125 8.824219-8.828125 4.878906 0 8.828125 3.953125 8.828125 8.828125v70.621094c0 4.875-3.949219 8.824218-8.828125 8.824218zm0 0" fill="#90bae1"/><path d="m35.308594 61.792969c-4.875 0-8.824219-3.953125-8.824219-8.828125v-17.65625c0-4.875 3.949219-8.824219 8.824219-8.824219 4.878906 0 8.828125 3.949219 8.828125 8.824219v17.65625c0 4.875-3.949219 8.828125-8.828125 8.828125zm0 0" fill="#90bae1"/><path d="m335.34375 176.550781h-132.308594c-4.875 0-8.828125-3.953125-8.828125-8.828125s3.953125-8.824218 8.828125-8.824218h132.308594c4.875 0 8.828125 3.949218 8.828125 8.824218s-3.953125 8.828125-8.828125 8.828125zm0 0" fill="#c03a2b"/><path d="m291.203125 220.691406h-88.167969c-4.875 0-8.828125-3.953125-8.828125-8.828125s3.953125-8.828125 8.828125-8.828125h88.167969c4.875 0 8.828125 3.953125 8.828125 8.828125s-3.953125 8.828125-8.828125 8.828125zm0 0" fill="#ff5364"/><path d="m238.238281 264.828125h-35.203125c-4.875 0-8.828125-3.953125-8.828125-8.828125s3.953125-8.828125 8.828125-8.828125h35.203125c4.875 0 8.828125 3.953125 8.828125 8.828125s-3.953125 8.828125-8.828125 8.828125zm0 0" fill="#fb7b76"/><path d="m512 61.792969h-308.964844v-13.242188c0-7.3125 5.925782-13.242187 13.242188-13.242187h203.03125c7.316406 0 13.242187-5.925782 13.242187-13.238282v-11.210937c.003907-3.464844 2.035157-6.609375 5.195313-8.035156 3.15625-1.425781 6.855468-.875 9.460937 1.414062l61.792969 50.933594c1.890625 1.683594 2.984375 4.089844 3 6.621094zm0 0" fill="#fb7b76"/><path d="m512 61.792969c-.015625 2.53125-1.109375 4.9375-3 6.621093l-61.792969 50.933594c-2.605469 2.289063-6.304687 2.839844-9.460937 1.414063-3.160156-1.425781-5.191406-4.570313-5.195313-8.035157v-11.210937c0-7.3125-5.925781-13.238281-13.242187-13.238281h-203.03125c-7.316406 0-13.242188-5.929688-13.242188-13.242188v-13.242187zm0 0" fill="#ff5364"/></svg>