<svg height="511pt" viewBox="-8 0 511 511.21864" width="511pt" xmlns="http://www.w3.org/2000/svg"><path d="m457.210938 3.796875-159.691407 183.085937c-.707031-.707031-1.414062-1.414062-2.207031-2.117187-2.636719-2.324219-5.503906-4.363281-8.5625-6.09375-3.59375-1.914063-6.117188-5.363281-6.855469-9.367187-.742187-4.003907.386719-8.128907 3.058594-11.199219l36.195313-38.578125c2.316406-2.6875 3.515624-6.164063 3.351562-9.710938l-.792969-14.386718c-.234375-3.558594.976563-7.058594 3.355469-9.710938l49.433594-55.878906c8.28125-9.433594 19.574218-15.703125 31.957031-17.742188zm0 0" fill="#bdc3c7"/><path d="m491.195312 22.160156-103.722656 114.847656c-3.730468 4.148438-8.347656 7.40625-13.507812 9.53125l-7.941406 3.265626c-1.914063.804687-3.628907 2.007812-5.035157 3.53125l-37.691406 40.34375c-2.707031 3.058593-6.660156 4.714843-10.738281 4.492187-4.078125-.226563-7.828125-2.300781-10.183594-5.640625-1.449219-2.023438-3.074219-3.914062-4.855469-5.648438l159.691407-183.085937 22.15625-3.617187c5.566406-.925782 11.101562 1.792968 13.777343 6.757812 2.671875 4.96875 1.890625 11.085938-1.949219 15.222656zm0 0" fill="#a5a5a4"/><path d="m372.933594 108.078125c-3.472656 0-6.621094-2.039063-8.046875-5.207031-1.421875-3.164063-.859375-6.875 1.445312-9.472656l41.992188-47.492188c3.242187-3.652344 8.828125-3.984375 12.480469-.742188 3.652343 3.242188 3.984374 8.832032.742187 12.484376l-42.019531 47.445312c-1.667969 1.890625-4.070313 2.976562-6.59375 2.984375zm0 0" fill="#e6e7e8"/><path d="m319.414062 233.050781-185.203124 247.878907c-12.402344 16.78125-31.261719 27.605468-52.007813 29.855468-20.746094 2.246094-41.484375-4.289062-57.191406-18.027344-2.019531-1.769531-3.9375-3.65625-5.738281-5.648437-.046876 0-.085938-.039063-.085938-.089844-27-30.117187-25.121094-76.253906 4.234375-104.078125l223.339844-214.15625c10.757812-10.46875 25.730469-15.414062 40.605469-13.417968 4.910156.625 9.683593 2.058593 14.125 4.238281 4.167968 1.933593 8.03125 4.460937 11.476562 7.503906 7.164062 6.347656 12.292969 14.667969 14.742188 23.921875.640624 2.496094 1.113281 5.03125 1.410156 7.59375 1.175781 12.285156-2.289063 24.5625-9.707032 34.425781zm0 0" fill="#c03a2b"/><path d="m301.582031 218.660156-185.203125 247.878906c-22.515625 30.414063-64.191406 39.242188-97.105468 20.570313-.046876 0-.085938-.039063-.085938-.089844-27-30.117187-25.121094-76.253906 4.234375-104.078125l223.339844-214.15625c10.757812-10.46875 25.730469-15.414062 40.605469-13.417968 4.910156.625 9.683593 2.058593 14.125 4.238281 3.902343 5.09375 6.753906 10.917969 8.386718 17.125.648438 2.496093 1.121094 5.03125 1.410156 7.59375 1.21875 12.261719-2.25 24.527343-9.707031 34.335937zm0 0" fill="#cc4b4c"/><g fill="#fb7b76"><path d="m248.402344 275.996094c-3.617188.003906-6.871094-2.199219-8.207032-5.5625l-14.867187-37.3125c-1.167969-2.929688-.683594-6.261719 1.269531-8.742188 1.953125-2.476562 5.082032-3.722656 8.207032-3.269531 3.121093.453125 5.765624 2.539063 6.933593 5.46875l14.867188 37.324219c.867187 2.175781.835937 4.609375-.089844 6.761718-.925781 2.152344-2.667969 3.847657-4.847656 4.714844-1.039063.414063-2.148438.625-3.265625.617188zm0 0"/><path d="m218.40625 309.929688c-3.617188.003906-6.875-2.207032-8.210938-5.570313l-14.863281-37.324219c-1.804687-4.53125.40625-9.664062 4.9375-11.46875 4.53125-1.804687 9.667969.40625 11.472657 4.9375l14.867187 37.324219c.867187 2.175781.835937 4.609375-.089844 6.761719s-2.667969 3.847656-4.847656 4.714844c-1.039063.414062-2.144531.628906-3.265625.625zm0 0"/><path d="m188.410156 343.847656c-3.617187 0-6.871094-2.203125-8.210937-5.5625l-14.855469-37.324218c-1.757812-4.519532.457031-9.609376 4.960938-11.402344 4.503906-1.796875 9.613281.378906 11.441406 4.871094l14.867187 37.320312c.867188 2.179688.835938 4.609375-.089843 6.761719-.925782 2.152343-2.667969 3.851562-4.847657 4.714843-1.039062.414063-2.148437.625-3.265625.621094zm0 0"/><path d="m33.984375 409.332031c-12.308594-.792969-23.171875 12.371094-24.265625 29.398438-1.09375 17.03125 7.996094 31.476562 20.304688 32.265625 12.308593.792968 23.175781-12.371094 24.269531-29.402344 1.09375-17.027344-7.996094-31.472656-20.308594-32.261719zm0 0"/></g></svg>