<svg height="512pt" viewBox="0 -18 512.00027 512" width="512pt" xmlns="http://www.w3.org/2000/svg"><path d="m0 175.765625v284.089844c.0117188 5.476562 3.394531 10.382812 8.511719 12.335937 5.117187 1.957032 10.910156.5625 14.574219-3.507812l127.867187-142.046875c4.496094-5.023438 4.496094-12.628907 0-17.652344l-127.867187-142.082031c-3.667969-4.074219-9.472657-5.46875-14.589844-3.503906-5.121094 1.964843-8.50000025 6.882812-8.496094 12.367187zm0 0" fill="#4fba6f"/><g fill="#7f8c8d"><path d="m249.996094 476h.089844c1.851562.175781 3.796874.175781 5.648437.175781 2.121094 0 4.238281 0 6.269531-.175781"/><path d="m282.484375 450.222656c0 14.628906-11.859375 26.484375-26.484375 26.484375s-26.484375-11.855469-26.484375-26.484375c0-14.625 11.859375-26.480468 26.484375-26.480468s26.484375 11.855468 26.484375 26.480468zm0 0"/><path d="m282.484375 361.949219c0 14.625-11.859375 26.480469-26.484375 26.480469s-26.484375-11.855469-26.484375-26.480469 11.859375-26.484375 26.484375-26.484375 26.484375 11.859375 26.484375 26.484375zm0 0"/><path d="m282.484375 273.671875c0 14.625-11.859375 26.484375-26.484375 26.484375s-26.484375-11.859375-26.484375-26.484375 11.859375-26.480469 26.484375-26.480469 26.484375 11.855469 26.484375 26.480469zm0 0"/><path d="m282.484375 185.398438c0 14.625-11.859375 26.480468-26.484375 26.480468s-26.484375-11.855468-26.484375-26.480468c0-14.628907 11.859375-26.484376 26.484375-26.484376s26.484375 11.855469 26.484375 26.484376zm0 0"/></g><path d="m365.867188 96.371094.222656-.265625c2.664062-3.253907 3.636718-7.574219 2.617187-11.65625-1.015625-4.078125-3.902343-7.441407-7.78125-9.0625-78.042969-32.414063-166.28125-29.542969-242.054687 7.875-13.015625 6.53125-28.863282 1.277343-35.398438-11.742188-6.53125-13.015625-1.273437-28.863281 11.742188-35.398437 96.570312-48.160156 210.160156-48.160156 306.730468 0 5.53125 2.839844 12.289063 1.453125 16.253907-3.335938l4.414062-5.375c3.164063-3.851562 8.21875-5.597656 13.085938-4.523437 4.863281 1.078125 8.714843 4.792969 9.960937 9.617187l19.015625 73.445313c1.074219 4.101562.117188 8.46875-2.570312 11.746093-2.6875 3.277344-6.785157 5.070313-11.015625 4.824219l-75.765625-4.523437c-4.976563-.289063-9.363281-3.347656-11.359375-7.914063-1.996094-4.5625-1.261719-9.863281 1.902344-13.710937zm0 0" fill="#35495e"/><path d="m124.644531 355.855469-101.605469 112.820312c-3.644531 4.09375-9.449218 5.507813-14.570312 3.546875-5.121094-1.964844-8.4921875-6.890625-8.46875-12.375v-193.324218c18.714844 40.164062 55.4375 87.921874 124.644531 89.332031zm0 0" fill="#24ae5f"/><path d="m512 175.765625v284.089844c-.011719 5.476562-3.394531 10.382812-8.511719 12.335937-5.117187 1.957032-10.910156.5625-14.574219-3.507812l-127.867187-142.046875c-4.496094-5.023438-4.496094-12.628907 0-17.652344l127.867187-142.082031c3.671876-4.074219 9.472657-5.46875 14.589844-3.503906 5.121094 1.964843 8.5 6.882812 8.496094 12.367187zm0 0" fill="#df4d60"/><path d="m512 175.773438v179.554687c-34.074219-71.855469-106.109375-74.152344-126.765625-73.269531l103.726563-115.113282c3.644531-4.09375 9.449218-5.507812 14.570312-3.546874 5.121094 1.964843 8.492188 6.890624 8.46875 12.375zm0 0" fill="#ff5364"/></svg>