<svg height="512pt" viewBox="0 -9 512 512" width="512pt" xmlns="http://www.w3.org/2000/svg"><path d="m8.828125 0h317.792969c4.875 0 8.828125 3.953125 8.828125 8.828125v317.792969c0 4.875-3.953125 8.828125-8.828125 8.828125h-317.792969c-4.875 0-8.828125-3.953125-8.828125-8.828125v-317.792969c0-4.875 3.953125-8.828125 8.828125-8.828125zm0 0" fill="#ff5364"/><path d="m185.378906 158.898438h317.792969c4.875 0 8.828125 3.949218 8.828125 8.824218v317.792969c0 4.878906-3.953125 8.828125-8.828125 8.828125h-317.792969c-4.875 0-8.828125-3.949219-8.828125-8.828125v-317.792969c0-4.875 3.953125-8.824218 8.828125-8.824218zm0 0" fill="#f0c419"/><path d="m335.449219 158.898438v167.722656c0 4.875-3.953125 8.828125-8.828125 8.828125h-150.070313v-167.726563c0-4.875 3.953125-8.824218 8.828125-8.824218zm0 0" fill="#c03a2b"/><path d="m256 235.960938v223.074218c0 3.695313-2.300781 7-5.769531 8.28125s-7.363281.265625-9.765625-2.542968l-57.558594-67.53125c-1.832031-2.105469-4.535156-3.246094-7.324219-3.089844l-7.859375.617187-81.566406 6.089844c-3.722656.296875-7.230469-1.78125-8.757812-5.191406-1.523438-3.410157-.738282-7.410157 1.960937-9.992188l70.355469-67.882812 18.007812-17.390625 1.238282-1.234375 72.121093-69.5625c2.550781-2.433594 6.304688-3.113281 9.550781-1.730469 3.242188 1.378906 5.355469 4.558594 5.367188 8.085938zm0 0" fill="#285680"/><path d="m209.777344 374.332031c-8.433594-9.804687-20.714844-15.464843-33.648438-15.507812h-1.140625l-1.683593.085937-16.675782 1.28125 35.617188-34.425781 1.679687-1.660156 26.765625-25.734375v88.808594zm0 0" fill="#4482c3"/><path d="m35.308594 17.65625c9.753906 0 17.65625 7.902344 17.65625 17.652344v8.828125c0 9.75-7.902344 17.65625-17.65625 17.65625-9.75 0-17.652344-7.90625-17.652344-17.65625v-8.828125c0-9.75 7.902344-17.652344 17.652344-17.652344zm0 0" fill="#fb7b76"/><path d="m35.308594 79.449219c9.753906 0 17.65625 7.902343 17.65625 17.652343v185.382813c0 9.75-7.902344 17.652344-17.65625 17.652344-9.75 0-17.652344-7.902344-17.652344-17.652344v-185.382813c0-9.75 7.902344-17.652343 17.652344-17.652343zm0 0" fill="#fb7b76"/><g fill="#f29c1f"><path d="m467.863281 432.550781c9.75 0 17.652344 7.90625 17.652344 17.65625v8.828125c0 9.75-7.902344 17.65625-17.652344 17.65625s-17.65625-7.90625-17.65625-17.65625v-8.828125c0-9.75 7.90625-17.65625 17.65625-17.65625zm0 0"/><path d="m467.863281 194.207031c9.75 0 17.652344 7.90625 17.652344 17.65625v185.378907c0 9.75-7.902344 17.65625-17.652344 17.65625s-17.65625-7.90625-17.65625-17.65625v-185.378907c0-9.75 7.90625-17.65625 17.65625-17.65625zm0 0"/></g></svg>