<svg height="512pt" viewBox="0 -26 512 512" width="512pt" xmlns="http://www.w3.org/2000/svg"><g fill="#90bae1"><path d="m476.691406 361.929688c-4.878906 0-8.828125-3.949219-8.828125-8.828126v-105.929687c0-4.875 3.949219-8.828125 8.828125-8.828125 4.875 0 8.824219 3.953125 8.824219 8.828125v105.929687c0 4.878907-3.949219 8.828126-8.824219 8.828126zm0 0"/><path d="m441.378906 44.136719h-150.070312c-4.875 0-8.824219-3.949219-8.824219-8.828125 0-4.875 3.949219-8.824219 8.824219-8.824219h150.070312c4.875 0 8.828125 3.949219 8.828125 8.824219 0 4.878906-3.953125 8.828125-8.828125 8.828125zm0 0"/><path d="m35.308594 185.378906c-4.875 0-8.824219-3.953125-8.824219-8.828125v-105.929687c0-4.875 3.949219-8.828125 8.824219-8.828125 4.878906 0 8.828125 3.953125 8.828125 8.828125v105.929687c0 4.875-3.949219 8.828125-8.828125 8.828125zm0 0"/><path d="m220.691406 397.242188h-44.140625c-4.875 0-8.828125-3.953126-8.828125-8.828126s3.953125-8.828124 8.828125-8.828124h44.140625c4.875 0 8.824219 3.953124 8.824219 8.828124s-3.949219 8.828126-8.824219 8.828126zm0 0"/><path d="m35.308594 362.460938c-4.875 0-8.824219-3.953126-8.824219-8.828126v-106.460937c0-4.875 3.949219-8.828125 8.824219-8.828125 4.878906 0 8.828125 3.953125 8.828125 8.828125v106.460937c0 4.875-3.949219 8.828126-8.828125 8.828126zm0 0"/><path d="m220.691406 44.136719h-150.070312c-4.875 0-8.828125-3.949219-8.828125-8.828125 0-4.875 3.953125-8.824219 8.828125-8.824219h150.070312c4.875 0 8.824219 3.949219 8.824219 8.824219 0 4.878906-3.949219 8.828125-8.824219 8.828125zm0 0"/><path d="m476.691406 185.378906c-4.878906 0-8.828125-3.953125-8.828125-8.828125v-105.929687c0-4.875 3.949219-8.828125 8.828125-8.828125 4.875 0 8.824219 3.953125 8.824219 8.828125v105.929687c0 4.875-3.949219 8.828125-8.824219 8.828125zm0 0"/><path d="m441.378906 397.242188h-150.070312c-4.875 0-8.824219-3.953126-8.824219-8.828126s3.949219-8.828124 8.824219-8.828124h150.070312c4.875 0 8.828125 3.953124 8.828125 8.828124s-3.953125 8.828126-8.828125 8.828126zm0 0"/></g><path d="m454.621094 353.101562h44.136718c7.3125 0 13.242188 5.929688 13.242188 13.242188v44.140625c0 7.3125-5.929688 13.238281-13.242188 13.238281h-44.136718c-7.3125 0-13.242188-5.925781-13.242188-13.238281v-44.140625c0-7.3125 5.929688-13.242188 13.242188-13.242188zm0 0" fill="#894b9d"/><path d="m454.621094 0h44.136718c7.3125 0 13.242188 5.929688 13.242188 13.242188v44.136718c0 7.3125-5.929688 13.242188-13.242188 13.242188h-44.136718c-7.3125 0-13.242188-5.929688-13.242188-13.242188v-44.136718c0-7.3125 5.929688-13.242188 13.242188-13.242188zm0 0" fill="#894b9d"/><path d="m13.242188 0h44.136718c7.3125 0 13.242188 5.929688 13.242188 13.242188v44.136718c0 7.3125-5.929688 13.242188-13.242188 13.242188h-44.136718c-7.3125 0-13.242188-5.929688-13.242188-13.242188v-44.136718c0-7.3125 5.929688-13.242188 13.242188-13.242188zm0 0" fill="#894b9d"/><path d="m13.242188 176.550781h44.136718c7.3125 0 13.242188 5.929688 13.242188 13.242188v44.136719c0 7.3125-5.929688 13.242187-13.242188 13.242187h-44.136718c-7.3125 0-13.242188-5.929687-13.242188-13.242187v-44.136719c0-7.3125 5.929688-13.242188 13.242188-13.242188zm0 0" fill="#894b9d"/><path d="m233.929688 0h44.140624c7.3125 0 13.238282 5.929688 13.238282 13.242188v44.136718c0 7.3125-5.925782 13.242188-13.238282 13.242188h-44.140624c-7.3125 0-13.238282-5.929688-13.238282-13.242188v-44.136718c0-7.3125 5.925782-13.242188 13.238282-13.242188zm0 0" fill="#894b9d"/><path d="m233.929688 176.550781h44.140624c7.3125 0 13.238282 5.929688 13.238282 13.242188v44.136719c0 7.3125-5.925782 13.242187-13.238282 13.242187h-44.140624c-7.3125 0-13.238282-5.929687-13.238282-13.242187v-44.136719c0-7.3125 5.925782-13.242188 13.238282-13.242188zm0 0" fill="#894b9d"/><path d="m454.621094 176.550781h44.136718c7.3125 0 13.242188 5.929688 13.242188 13.242188v44.136719c0 7.3125-5.929688 13.242187-13.242188 13.242187h-44.136718c-7.3125 0-13.242188-5.929687-13.242188-13.242187v-44.136719c0-7.3125 5.929688-13.242188 13.242188-13.242188zm0 0" fill="#894b9d"/><path d="m233.929688 353.101562h44.140624c7.3125 0 13.238282 5.929688 13.238282 13.242188v44.140625c0 7.3125-5.925782 13.238281-13.238282 13.238281h-44.140624c-7.3125 0-13.238282-5.925781-13.238282-13.238281v-44.140625c0-7.3125 5.925782-13.242188 13.238282-13.242188zm0 0" fill="#894b9d"/><path d="m168.34375 234.550781c-4.503906-1.945312-6.128906 5.796875-10.277344 9.867188l-85.796875 120.277343c-8.824219 8.550782-15.578125 8.96875-3.308593 7.996094l26.023437 21.636719c1.957031-.152344 3.921875.148437 5.738281.882813 2.125.71875 3.996094 2.039062 5.386719 3.796874l47.050781 56.140626c3.582032 4.28125 9.460938 5.851562 14.703125 3.933593 5.238281-1.917969 8.714844-6.914062 8.6875-12.496093v-199.855469c.050781-5.367188-3.210937-10.214844-8.207031-12.179688zm0 0" fill="#2980ba"/><path d="m168.34375 234.550781-67.621094 160.660157c-1.816406-.734376-3.78125-1.035157-5.738281-.882813l-73.445313 5.5625c-5.515624.375-10.679687-2.710937-12.960937-7.746094-2.28125-5.035156-1.195313-10.957031 2.722656-14.851562l142.742188-140.007813c3.753906-3.757812 9.421875-4.84375 14.300781-2.734375zm0 0" fill="#3b97d3"/></svg>