<svg height="504pt" viewBox="0 0 504 504.29452" width="504pt" xmlns="http://www.w3.org/2000/svg"><path d="m444.246094 200.847656-166.359375 166.273438-116.332031 116.332031c-2.683594 2.695313-6.539063 3.867187-10.265626 3.125-3.730468-.742187-6.839843-3.300781-8.285156-6.816406l-74.449218-181.46875c-1.703126-4.246094-.714844-9.097657 2.515624-12.335938l5.542969-5.539062 5.453125-5.457031 51.871094-51.789063 54.222656-54.21875 165.601563-165.605469c2.667969-2.695312 6.511719-3.871094 10.230469-3.128906s6.8125 3.308594 8.238281 6.824219l66.808593 162.914062 7.640626 18.550781c1.734374 4.230469.773437 9.085938-2.433594 12.339844zm0 0" fill="#bdc3c7"/><path d="m439.039062 169.957031-155.277343 155.195313-116.332031 116.332031c-2.683594 2.695313-6.535157 3.867187-10.265626 3.125-3.730468-.742187-6.839843-3.300781-8.285156-6.816406l-66.8125-162.832031 51.871094-51.789063 54.222656-54.21875 165.601563-165.605469c2.667969-2.695312 6.511719-3.871094 10.230469-3.128906s6.8125 3.308594 8.238281 6.824219zm0 0" fill="#e6e7e8"/><g fill="#802d40"><path d="m394.640625 503.597656h-386.101563c-4.632812 0-8.390624-3.757812-8.390624-8.394531 0-4.632813 3.757812-8.390625 8.390624-8.390625h386.101563c4.632813 0 8.390625 3.757812 8.390625 8.390625 0 4.636719-3.757812 8.394531-8.390625 8.394531zm0 0"/><path d="m495.359375 504.292969h-.082031l-67.148438-.695313c-2.226562-.023437-4.351562-.925781-5.910156-2.515625-1.558594-1.589843-2.421875-3.734375-2.398438-5.960937-.003906-2.234375.894532-4.375 2.488282-5.9375 1.597656-1.566406 3.753906-2.421875 5.988281-2.371094l67.148437.695312c2.996094.015626 5.761719 1.628907 7.246094 4.234376 1.488282 2.601562 1.472656 5.800781-.042968 8.390624-1.511719 2.589844-4.289063 4.175782-7.289063 4.160157zm0 0"/><path d="m444.246094 200.847656-166.359375 166.273438-89.726563-198.167969.335938-.335937 165.265625-165.269532c2.230469-2.234375 5.285156-3.441406 8.4375-3.3281248 3.15625.1132808 6.117187 1.5312498 8.183593 3.9179688l.082032.082031c.75.902344 1.347656 1.925781 1.765625 3.023438l74.449219 181.464843c1.734374 4.230469.773437 9.085938-2.433594 12.339844zm0 0"/></g><path d="m433.332031 175.664062-166.355469 166.277344-78.480468-173.324218 165.265625-165.269532c2.230469-2.234375 5.285156-3.441406 8.4375-3.3281248 3.15625.1132808 6.117187 1.5312498 8.183593 3.9179688l.082032.082031 65.300781 159.308594c1.734375 4.226563.777344 9.085937-2.433594 12.335937zm0 0" fill="#df4d60"/><path d="m253.839844 163.292969c-3.394532 0-6.453125-2.042969-7.753906-5.179688-1.296876-3.136719-.582032-6.746093 1.820312-9.148437l54.195312-54.1875c3.292969-3.179688 8.527344-3.132813 11.765626.101562 3.238281 3.238282 3.285156 8.472656.101562 11.769532l-54.195312 54.1875c-1.570313 1.578124-3.707032 2.464843-5.933594 2.457031zm0 0" fill="#fb7b76"/><path d="m335.886719 88.894531c-3.394531 0-6.457031-2.046875-7.753907-5.179687-1.300781-3.136719-.582031-6.746094 1.816407-9.148438l13.363281-13.363281c2.121094-2.121094 5.210938-2.949219 8.109375-2.175781 2.898437.777344 5.160156 3.039062 5.9375 5.9375.777344 2.894531-.050781 5.988281-2.167969 8.109375l-13.371094 13.371093c-1.578124 1.570313-3.710937 2.449219-5.933593 2.449219zm0 0" fill="#fb7b76"/><path d="m453.292969 444.84375h-125.800781c-4.636719 0-8.394532-3.757812-8.394532-8.394531 0-4.632813 3.757813-8.390625 8.394532-8.390625h125.800781c4.636719 0 8.394531 3.757812 8.394531 8.390625 0 4.636719-3.757812 8.394531-8.394531 8.394531zm0 0" fill="#802d40"/><path d="m453.292969 402.875h-83.835938c-4.632812 0-8.390625-3.757812-8.390625-8.390625 0-4.636719 3.757813-8.394531 8.390625-8.394531h83.835938c4.636719 0 8.394531 3.757812 8.394531 8.394531 0 4.632813-3.757812 8.390625-8.394531 8.390625zm0 0" fill="#df4d60"/><path d="m453.292969 360.910156h-33.472657c-4.636718 0-8.394531-3.757812-8.394531-8.394531s3.757813-8.394531 8.394531-8.394531h33.472657c4.636719 0 8.394531 3.757812 8.394531 8.394531s-3.757812 8.394531-8.394531 8.394531zm0 0" fill="#fb7b76"/></svg>