<svg height="503pt" viewBox="0 0 503 503.32296" width="503pt" xmlns="http://www.w3.org/2000/svg"><path d="m390.671875 355.796875s-117.761719-58.835937-63.4375-193.171875h-150.824219c54.324219 134.335938-63.433594 193.171875-63.433594 193.171875zm0 0" fill="#c03a2b"/><path d="m295.210938 189.179688c1.5625-.78125 3.039062-1.5625 4.601562-2.515626 1.5625-.953124 2.949219-1.734374 4.425781-2.777343 6.726563-4.359375 12.851563-9.582031 18.222657-15.535157.867187-.953124 1.734374-1.992187 2.605468-2.949218l2.082032-2.601563c.046874-.046875.078124-.109375.085937-.175781.78125-.953125 1.5625-1.996094 2.257813-3.035156.964843-1.253906 1.863281-2.558594 2.6875-3.90625 1.273437-1.898438 2.429687-3.867188 3.472656-5.902344 6.488281-11.886719 10.363281-25.023438 11.367187-38.527344.085938-1.042968.171875-2.085937.171875-3.039062.089844-1.386719.089844-2.691406.089844-4.078125s0-2.691407-.089844-4.078125c0-.957032-.085937-1.910156-.171875-2.863282l-.261719-2.863281c-.171874-1.5625-.34375-3.125-.605468-4.773437-.175782-1.476563-.433594-2.953125-.695313-4.425782-.09375-.160156-.15625-.335937-.171875-.523437-7.792968-37.242187-36.933594-66.316406-74.199218-74.019531-1.558594-.261719-3.121094-.609375-4.683594-.78125-1.5625-.175782-3.210938-.433594-4.773438-.609375l-3.039062-.261719c-.867188-.085938-1.734375-.171875-2.601563-.171875-1.390625-.085937-2.777343-.085937-4.164062-.085937-25.324219-.015626-49.609375 10.039062-67.515625 27.941406-17.90625 17.90625-27.957032 42.195312-27.945313 67.515625 0 1.386719 0 2.691406.089844 4.078125 0 .953125.085937 1.996094.171875 3.039062.261719 3.035156.609375 6.074219 1.128906 9.023438.359375 2.3125.851563 4.601562 1.476563 6.855468.746093 3.335938 1.730469 6.613282 2.949219 9.804688.695312 1.996094 1.476562 3.90625 2.253906 5.816406.089844.085938.175781.171875.175781.261719 1.039063 2.253906 2.082031 4.511719 3.296875 6.679687l.085938.085938c1.070312 2.09375 2.257812 4.121094 3.558593 6.074219.324219.585937.703125 1.136719 1.128907 1.652343 1.128906 1.734376 2.429687 3.46875 3.730468 5.117188.011719.066406.039063.128906.085938.175781l2.085937 2.601563c.867188.957031 1.734375 1.996094 2.601563 2.949218 5.371094 5.953126 11.496094 11.175782 18.222656 15.535157 1.476562 1.042969 2.953125 1.910156 4.425781 2.777343 1.476563.867188 3.039063 1.734376 4.601563 2.515626" fill="#cc4b4c"/><path d="m17.515625 442.578125h468.613281v13.015625c0 26.359375-21.371094 47.730469-47.730468 47.730469h-373.152344c-26.359375 0-47.730469-21.371094-47.730469-47.730469zm0 0" fill="#2c3e50"/><path d="m69.585938 442.578125h364.472656v13.015625c0 26.359375-21.367188 47.730469-47.726563 47.730469h-269.019531c-26.359375 0-47.726562-21.371094-47.726562-47.730469zm0 0" fill="#35495e"/><path d="m13.179688 351.457031h477.285156c7.191406 0 13.019531 5.828125 13.019531 13.019531v69.421876c0 7.191406-5.828125 13.019531-13.019531 13.019531h-477.285156c-7.191407 0-13.019532-5.828125-13.019532-13.019531v-69.421876c0-7.191406 5.828125-13.019531 13.019532-13.019531zm0 0" fill="#c03a2b"/><path d="m47.890625 351.457031h407.863281c7.191406 0 13.019532 5.828125 13.019532 13.019531v69.421876c0 7.191406-5.828126 13.019531-13.019532 13.019531h-407.863281c-7.1875 0-13.015625-5.828125-13.015625-13.019531v-69.421876c0-7.191406 5.828125-13.019531 13.015625-13.019531zm0 0" fill="#e64c3c"/><path d="m208.433594 394.847656h-78.101563c-4.792969 0-8.679687-3.882812-8.679687-8.675781s3.886718-8.679687 8.679687-8.679687h78.101563c4.792968 0 8.675781 3.886718 8.675781 8.679687s-3.882813 8.675781-8.675781 8.675781zm0 0" fill="#f09372"/><path d="m95.617188 394.847656h-17.355469c-4.792969 0-8.675781-3.882812-8.675781-8.675781s3.882812-8.679687 8.675781-8.679687h17.355469c4.792968 0 8.679687 3.886718 8.679687 8.679687s-3.886719 8.675781-8.679687 8.675781zm0 0" fill="#f09372"/><path d="m355.957031 104.136719c-.019531 48.523437-33.566406 90.597656-80.871093 101.425781-47.300782 10.824219-95.808594-12.472656-116.933594-56.15625-21.121094-43.6875-9.257813-96.175781 28.601562-126.527344 37.859375-30.355468 91.671875-30.519531 129.71875-.402344 24.949219 19.757813 39.492188 49.835938 39.484375 81.660157zm0 0" fill="#c03a2b"/><path d="m329.925781 73.761719c0 57.515625-46.625 104.136719-104.136719 104.136719-23.480468.074218-46.28125-7.851563-64.652343-22.476563-18.195313-32.253906-17.910157-71.742187.753906-103.726563 18.664063-31.988281 52.898437-51.6679682 89.933594-51.695312 23.476562-.0742188 46.28125 7.851562 64.648437 22.476562 8.863282 15.636719 13.5 33.3125 13.453125 51.285157zm0 0" fill="#e64c3c"/><path d="m225.722656 35.109375c-11.078125-9.164063-29.964844-4.621094-42.1875 10.152344-12.21875 14.769531-13.144531 34.175781-2.066406 43.339843 11.078125 9.164063 29.964844 4.621094 42.1875-10.152343 12.21875-14.769531 13.144531-34.175781 2.066406-43.339844zm0 0" fill="#f09372"/></svg>