<svg height="512pt" viewBox="-36 0 511 512" width="512pt" xmlns="http://www.w3.org/2000/svg"><path d="m18.789062 294.289062c7.113282 22.699219 17.464844 44.253907 30.730469 64 13.984375 20.925782 24.902344 43.746094 32.410157 67.769532 2.3125 12.519531 3.136718 25.273437 2.457031 37.988281-.171875 17.453125-.371094 37.246094 6.769531 44.460937 2.679688 2.472657 6.292969 3.675782 9.917969 3.300782 21.027343 0 39.925781.046875 58.816406.089844 17.710937.054687 35.429687.101562 54.855469.101562 20.855468 0 49.582031 0 78.328125-.101562 30.636719 0 61.257812-.089844 82.285156-.089844 3.597656.367187 7.175781-.835938 9.820313-3.300782 7.023437-7.140624 6.703124-26.789062 6.398437-44.132812-.773437-12.847656 0-25.738281 2.316406-38.398438 5.210938-21.03125 13.363281-46 22.015625-72.421874 8.941406-27.320313 18.164063-55.523438 23.523438-78.191407-.050782-.386719-.074219-.777343-.074219-1.167969v-146.195312c-.023437-14.304688-11.035156-26.191406-25.296875-27.300781-14.261719-1.113281-26.980469 8.921875-29.222656 23.050781-.019532.339844-.058594.675781-.117188 1.011719-.167968 1.070312-.238281 2.15625-.21875 3.238281v.8125c-.003906.09375-.003906.183594 0 .277344.046875.363281.070313.734375.070313 1.105468l-.070313 70.949219c0 5.046875-4.09375 9.140625-9.144531 9.140625-5.046875 0-9.140625-4.09375-9.140625-9.140625v-112.082031c.066406-10.566406-3.851562-20.769531-10.972656-28.574219-6.585938-7.179687-15.859375-11.300781-25.601563-11.382812-21.105469.988281-37.449219 18.84375-36.570312 39.957031v109.335938c0 5.050781-4.09375 9.144531-9.144531 9.144531-5.046876 0-9.140626-4.09375-9.140626-9.144531v-138.796876c.066407-10.5625-3.851562-20.765624-10.972656-28.570312-6.582031-7.183594-15.855468-11.3125-25.597656-11.390625-21.113281.984375-37.457031 18.847656-36.574219 39.960937v141.542969c0 5.046875-4.09375 9.140625-9.140625 9.140625-5.050781 0-9.144531-4.09375-9.144531-9.140625v-161.179687c.070313-10.566406-3.847656-20.769532-10.972656-28.574219-6.582031-7.183594-15.855469-11.3085938-25.597657-11.390625-21.109374.988281-37.457031 18.847656-36.570312 39.964844v238.070312c0 5.046875-4.09375 9.140625-9.144531 9.140625s-9.144531-4.09375-9.144531-9.140625v-166.308594c.515624-10.640624-7.648438-19.703124-18.285157-20.296874-14.703125.082031-28.699219 6.328124-38.582031 17.214843-10.609375 11.554688-16.425781 26.710938-16.273438 42.394531zm0 0" fill="#f09372"/><path d="m.503906 294.289062c7.113282 22.699219 17.460938 44.253907 30.726563 64 13.988281 20.925782 24.90625 43.746094 32.414062 67.769532 2.308594 12.519531 3.136719 25.273437 2.457031 37.988281-.171874 17.453125-.375 37.246094 6.765626 44.460937 2.679687 2.472657 6.292968 3.675782 9.921874 3.300782 21.027344 0 39.925782.046875 58.816407.089844 17.707031.054687 35.429687.101562 54.855469.101562 20.855468 0 49.582031 0 78.328124-.101562 30.636719 0 61.257813-.089844 82.285157-.089844 3.597656.367187 7.175781-.835938 9.820312-3.300782 7.019531-7.140624 6.699219-26.789062 6.398438-44.132812-.773438-12.847656 0-25.738281 2.3125-38.398438 5.214843-21.03125 13.367187-46 22.015625-72.421874 8.945312-27.320313 18.167968-55.523438 23.527344-78.191407-.050782-.386719-.074219-.777343-.074219-1.167969v-146.195312c-.023438-14.304688-11.035157-26.191406-25.296875-27.300781-14.261719-1.113281-26.980469 8.921875-29.222656 23.050781-.019532.339844-.058594.675781-.117188 1.011719-.167969 1.070312-.242188 2.15625-.21875 3.238281v.8125c-.007812.09375-.007812.183594 0 .277344.046875.363281.070312.734375.070312 1.105468l-.070312 70.949219c0 5.046875-4.09375 9.140625-9.144531 9.140625s-9.144531-4.09375-9.144531-9.140625v-112.082031c.066406-10.566406-3.847657-20.769531-10.96875-28.574219-6.585938-7.179687-15.859376-11.300781-25.601563-11.382812-21.105469.988281-37.449219 18.84375-36.570313 39.957031v109.335938c0 5.050781-4.09375 9.144531-9.144531 9.144531-5.046875 0-9.140625-4.09375-9.140625-9.144531v-138.796876c.066406-10.5625-3.851562-20.765624-10.972656-28.570312-6.582031-7.183594-15.855469-11.3125-25.601562-11.390625-21.109376.984375-37.453126 18.847656-36.570313 39.960937v141.542969c0 5.046875-4.09375 9.140625-9.140625 9.140625-5.050781 0-9.144531-4.09375-9.144531-9.140625v-161.179687c.066406-10.566406-3.847657-20.769532-10.972657-28.574219-6.582031-7.183594-15.855468-11.3085938-25.597656-11.390625-21.113281.988281-37.457031 18.847656-36.574218 39.964844v238.070312c0 5.046875-4.089844 9.140625-9.140626 9.140625-5.050781 0-9.144531-4.09375-9.144531-9.140625v-166.308594c.515625-10.640624-7.648437-19.703124-18.285156-20.296874-14.703125.082031-28.699219 6.328124-38.582031 17.214843-10.609375 11.554688-16.429688 26.710938-16.273438 42.394531zm0 0" fill="#fdd7ad"/><path d="m64.503906 365.714844c-3.058594.003906-5.917968-1.523438-7.617187-4.070313-25.296875-37.933593-38.097657-61.171875-38.097657-69.074219v-36.570312c0-5.050781 4.09375-9.144531 9.140626-9.144531 5.050781 0 9.144531 4.09375 9.144531 9.144531v36.570312c10.164062 20.507813 21.875 40.203126 35.035156 58.925782 1.871094 2.804687 2.046875 6.414062.457031 9.386718-1.589844 2.976563-4.691406 4.832032-8.0625 4.832032zm0 0" fill="#f5efca"/><path d="m27.929688 228.570312c-5.046876 0-9.140626-4.09375-9.140626-9.140624v-18.285157c0-5.050781 4.09375-9.144531 9.140626-9.144531 5.050781 0 9.144531 4.09375 9.144531 9.144531v18.285157c0 5.046874-4.09375 9.140624-9.144531 9.140624zm0 0" fill="#f5efca"/><path d="m215.507812 473.507812c-36.945312.765626-73.738281-4.996093-108.683593-17.015624-4.691407-1.871094-6.976563-7.1875-5.105469-11.878907 1.871094-4.691406 7.191406-6.976562 11.882812-5.105469.914063.347657 90.367188 34.886719 213.539063-.292968 3.183594-1.039063 6.679687-.253906 9.113281 2.046875 2.433594 2.296875 3.417969 5.742187 2.5625 8.980469-.855468 3.238281-3.414062 5.746093-6.664062 6.542968-37.914063 10.980469-77.175782 16.609375-116.644532 16.722656zm0 0" fill="#f09372"/></svg>