<svg height="510pt" viewBox="0 0 510 510.41203" width="510pt" xmlns="http://www.w3.org/2000/svg"><path d="m75.503906 237.4375c-12.554687-30.433594-36.726562-54.605469-67.160156-67.160156-1.550781-.730469-2.53125-2.296875-2.503906-4.011719.023437-1.710937 1.046875-3.25 2.617187-3.933594 30.617188-12.824219 54.960938-37.175781 67.769531-67.796875.683594-1.570312 2.222657-2.59375 3.9375-2.621094 1.710938-.023437 3.28125.957032 4.007813 2.507813 12.566406 30.429687 36.738281 54.601563 67.167969 67.167969 1.550781.730468 2.53125 2.296875 2.507812 4.007812-.027344 1.714844-1.050781 3.253906-2.621094 3.9375-30.625 12.832032-54.96875 37.195313-67.777343 67.832032-.691407 1.566406-2.238281 2.582031-3.949219 2.597656-1.714844.011718-3.277344-.976563-3.996094-2.527344zm0 0" fill="#ff5364"/><path d="m404.050781 400.96875c-9.964843-23.199219-28.453125-41.6875-51.652343-51.652344-1.507813-.761718-2.449219-2.324218-2.417969-4.015625.027343-1.691406 1.023437-3.21875 2.558593-3.929687 23.292969-10.253906 41.898438-28.859375 52.15625-52.152344.679688-1.570312 2.214844-2.601562 3.929688-2.628906 1.710938-.027344 3.28125.949218 4.011719 2.496094 9.957031 23.199218 28.445312 41.6875 51.644531 51.640624 1.546875.734376 2.523438 2.304688 2.496094 4.015626-.03125 1.714843-1.058594 3.25-2.628906 3.929687-23.292969 10.257813-41.898438 28.863281-52.15625 52.15625-.675782 1.570313-2.210938 2.601563-3.925782 2.632813-1.710937.027343-3.285156-.945313-4.015625-2.492188zm0 0" fill="#f3d55b"/><path d="m246.617188 99.011719c-7.019532-12.738281-17.507813-23.226563-30.242188-30.253907-2.78125-1.550781-4.507812-4.484374-4.523438-7.667968-.011718-3.1875 1.691407-6.132813 4.460938-7.707032 12.90625-7.46875 23.628906-18.195312 31.101562-31.101562 1.574219-2.769531 4.519532-4.472656 7.707032-4.460938 3.183594.015626 6.113281 1.742188 7.667968 4.523438 7.023438 12.734375 17.507813 23.21875 30.246094 30.242188 2.777344 1.554687 4.507813 4.484374 4.519532 7.671874.011718 3.183594-1.691407 6.128907-4.460938 7.707032-12.90625 7.46875-23.628906 18.191406-31.097656 31.097656-1.574219 2.769531-4.519532 4.476562-7.703125 4.464844-3.1875-.011719-6.121094-1.734375-7.675781-4.515625zm0 0" fill="#f3d55b"/><path d="m325.324219 108.140625 92.160156-92.160156c21.304687-21.308594 55.847656-21.308594 77.152344 0 21.304687 21.304687 21.304687 55.847656 0 77.152343l-92.160157 92.152344zm0 0" fill="#d1d4d1"/><path d="m16.183594 417.28125 309.140625-309.140625c13.738281-13.988281 33.925781-19.523437 52.878906-14.507813 18.953125 5.019532 33.753906 19.820313 38.773437 38.769532 5.019532 18.953125-.515624 39.140625-14.5 52.882812l-309.140624 309.148438zm0 0" fill="#547580"/><path d="m93.335938 494.433594c-21.304688 21.304687-55.847657 21.304687-77.152344 0-21.304688-21.304688-21.304688-55.847656 0-77.152344 21.304687-21.304688 55.847656-21.304688 77.152344 0 21.277343 21.316406 21.277343 55.835938 0 77.152344zm0 0" fill="#2c2f38"/><path d="m254.703125 220.59375c-3.570313 0-6.785156-2.152344-8.152344-5.449219-1.367187-3.296875-.613281-7.09375 1.910157-9.621093l44.140624-44.136719c3.464844-3.34375 8.96875-3.296875 12.375.109375 3.402344 3.402344 3.453126 8.910156.105469 12.371094l-44.136719 44.140624c-1.65625 1.65625-3.898437 2.585938-6.242187 2.585938zm0 0" fill="#95a5a5"/><path d="m325.324219 149.972656c-3.570313 0-6.789063-2.152344-8.152344-5.449218-1.367187-3.296876-.613281-7.09375 1.910156-9.621094l8.828125-8.824219c3.464844-3.347656 8.96875-3.300781 12.375.105469s3.453125 8.910156.109375 12.375l-8.828125 8.828125c-1.65625 1.65625-3.902344 2.585937-6.242187 2.585937zm0 0" fill="#95a5a5"/><path d="m494.601562 93.160156-92.132812 92.125c21.292969-21.3125 21.292969-55.84375 0-77.15625l-.496094-.503906 92.136719-92.113281.492187.492187c10.230469 10.234375 15.980469 24.109375 15.980469 38.578125s-5.75 28.34375-15.980469 38.578125zm0 0" fill="#bdc3c7"/><path d="m402.46875 185.285156-309.035156 309.050782c10.214844-10.21875 15.945312-24.089844 15.921875-38.542969-.027344-14.449219-5.804688-28.300781-16.054688-38.484375l-.496093-.496094 309.167968-309.210938.496094.503907c21.308594 21.3125 21.308594 55.863281 0 77.179687zm0 0" fill="#35495e"/></svg>