<svg height="505pt" viewBox="0 0 505 505.67431" width="505pt" xmlns="http://www.w3.org/2000/svg"><path d="m290.324219 173.191406 194.199219-170.757812c3.53125-3.3125 9.054687-3.234375 12.484374.179687l6.378907 6.378907c3.417969 3.433593 3.496093 8.957031.179687 12.484374l-170.757812 194.203126zm0 0" fill="#d1d4d1"/><path d="m34.71875 331.542969 45.289062-38.550781 20.578126-17.535157 48.011718-40.898437 57.613282-49.097656 114.328124 114.328124-49.097656 57.605469-40.90625 48.019531-17.53125 20.582032-17.527344 20.578125-21.027343 24.710937zm0 0" fill="#c03a2b"/><path d="m179.390625 72.695312c2.496094-2.632812 5.957031-4.136718 9.585937-4.167968 3.628907-.03125 7.113282 1.417968 9.652344 4.007812l234.8125 234.808594c2.609375 2.53125 4.070313 6.019531 4.035156 9.65625-.035156 3.632812-1.558593 7.097656-4.214843 9.578125-28.441407 25.003906-71.414063 23.597656-98.160157-3.207031l-158.765624-158.828125c-26.949219-26.949219-22.203126-64.082031 3.054687-91.847657zm0 0" fill="#cc4b4c"/><path d="m163.085938 501.714844-158.789063-158.789063c-5.261719-5.261719-5.261719-13.792969 0-19.054687l6.351563-6.351563c5.261718-5.261719 13.792968-5.261719 19.054687 0l158.789063 158.789063c5.261718 5.261718 5.261718 13.792968 0 19.054687l-6.351563 6.351563c-5.261719 5.261718-13.792969 5.261718-19.054687 0zm0 0" fill="#cc4b4c"/><g fill="#802f34"><path d="m170.046875 430.152344c-3.503906.003906-6.691406-2.03125-8.164063-5.214844-1.46875-3.179688-.953124-6.929688 1.320313-9.597656l17.523437-20.578125c2.085938-2.441407 5.320313-3.589844 8.476563-3.003907 3.160156.585938 5.769531 2.808594 6.839844 5.839844 1.074219 3.027344.453125 6.398438-1.632813 8.839844l-17.527344 20.582031c-1.710937 1.992188-4.207031 3.136719-6.835937 3.132813zm0 0"/><path d="m210.972656 382.132812c-3.5-.003906-6.683594-2.039062-8.148437-5.214843-1.46875-3.179688-.957031-6.921875 1.3125-9.589844l35.03125-41.15625c2.085937-2.445313 5.316406-3.589844 8.476562-3.003906 3.160157.585937 5.765625 2.808593 6.839844 5.839843 1.074219 3.027344.449219 6.398438-1.636719 8.839844l-35.03125 41.160156c-1.714844 1.992188-4.214844 3.136719-6.84375 3.125zm0 0"/><path d="m382.3125 321.152344c-11.757812-.199219-22.921875-5.214844-30.871094-13.878906-3.40625-3.523438-3.355468-9.128907.109375-12.59375 3.464844-3.464844 9.066407-3.511719 12.589844-.109376 6.070313 7.671876 16.359375 10.609376 25.5625 7.304688 2.875-1.464844 6.316406-1.277344 9.011719.496094 2.695312 1.769531 4.234375 4.851562 4.03125 8.070312-.199219 3.21875-2.113282 6.082032-5.011719 7.503906-4.847656 2.164063-10.109375 3.257813-15.421875 3.207032zm0 0"/></g></svg>