<svg height="512pt" viewBox="0 -53 512 512" width="512pt" xmlns="http://www.w3.org/2000/svg"><path d="m414.898438 13.242188v158.894531c0-7.3125-5.929688-13.238281-13.242188-13.238281h-123.585938c-7.3125 0-13.242187 5.925781-13.242187 13.238281v123.585937c0 7.316406 5.929687 13.242188 13.242187 13.242188h-264.828124c-7.3125 0-13.242188-5.925782-13.242188-13.242188v-282.480468c0-7.3125 5.929688-13.242188 13.242188-13.242188h388.414062c7.3125 0 13.242188 5.929688 13.242188 13.242188zm0 0" fill="#ff5364"/><path d="m512 172.136719v220.691406c0 7.3125-5.929688 13.242187-13.242188 13.242187h-220.6875c-7.3125 0-13.242187-5.929687-13.242187-13.242187v-83.863281h136.828125c7.3125 0 13.242188-5.925782 13.242188-13.242188v-136.824218h83.859374c7.3125 0 13.242188 5.925781 13.242188 13.238281zm0 0" fill="#f0c419"/><path d="m414.898438 158.898438v136.824218c0 7.316406-5.929688 13.242188-13.242188 13.242188h-136.828125v-136.828125c0-7.3125 5.929687-13.238281 13.242187-13.238281zm0 0" fill="#c03a2b"/><path d="m70.886719 114.492188 78.910156 78.910156c2.480469 2.484375 5.851563 3.882812 9.363281 3.882812 3.515625 0 6.882813-1.398437 9.367188-3.882812l24.875-24.875c2.484375-2.484375 3.882812-5.851563 3.882812-9.367188 0-3.511718-1.398437-6.882812-3.882812-9.363281l-78.910156-78.910156 12.96875-12.96875c3.789062-3.785157 4.921874-9.480469 2.875-14.429688-2.046876-4.949219-6.875-8.175781-12.230469-8.179687h-69.554688c-7.3125 0-13.242187 5.929687-13.242187 13.242187v69.554688c.003906 5.355469 3.230468 10.183593 8.179687 12.230469 4.949219 2.046874 10.644531.914062 14.429688-2.875zm0 0" fill="#3d324c"/><g fill="#fb7b76"><path d="m379.585938 44.136719h-17.65625c-4.875 0-8.828126-3.949219-8.828126-8.828125 0-4.875 3.953126-8.824219 8.828126-8.824219h17.65625c4.875 0 8.828124 3.949219 8.828124 8.824219 0 4.878906-3.953124 8.828125-8.828124 8.828125zm0 0"/><path d="m326.621094 44.136719h-70.621094c-4.875 0-8.828125-3.949219-8.828125-8.828125 0-4.875 3.953125-8.824219 8.828125-8.824219h70.621094c4.875 0 8.828125 3.949219 8.828125 8.824219 0 4.878906-3.953125 8.828125-8.828125 8.828125zm0 0"/></g></svg>