<svg height="511pt" viewBox="-4 0 511 511.28849" width="511pt" xmlns="http://www.w3.org/2000/svg"><path d="m164.425781 170.082031 78.957031-78.957031c2.480469-2.484375 5.851563-3.878906 9.363282-3.878906 3.515625 0 6.882812 1.394531 9.367187 3.878906l235.996094 236.085938c3.347656 3.296874 5.230469 7.796874 5.230469 12.492187s-1.882813 9.195313-5.230469 12.492187l-153.863281 153.863282c-3.296875 3.347656-7.796875 5.230468-12.492188 5.230468-4.695312 0-9.195312-1.882812-12.492187-5.230468l-245.230469-245.230469zm0 0" fill="#f0c419"/><path d="m300.285156 335.667969c.019532 3.515625-.390625 7.019531-1.226562 10.433593-3.710938 14.726563-9.519532 32.476563-15.160156 49.710938-5.683594 17.390625-11.5625 35.351562-15.128907 49.839844-1.675781 8.902344-2.246093 17.976562-1.703125 27.019531.167969 10.753906.371094 24.136719-3.636718 28.25-.398438.40625-1.449219 1.464844-4.8125 1.464844-28.777344-.035157-108.402344.050781-108.402344.050781-.402344 0-.804688.027344-1.199219.089844-7.859375 0-51.570313-.089844-77.621094-.089844-1.792969.246094-3.605469-.308594-4.953125-1.515625-4.121094-4.175781-3.992187-17.65625-3.882812-28.558594.460937-8.867187-.132813-17.753906-1.765625-26.480469-5.164063-16.683593-12.722657-32.527343-22.441407-47.035156-8.859374-13.121094-15.78125-27.453125-20.550781-42.550781v-97.410156c-.09375-9.90625 3.5625-19.480469 10.242188-26.800781 6.195312-6.824219 14.96875-10.746094 24.1875-10.804688 5.714843.390625 10.046875 5.316406 9.707031 11.035156v111.226563c0 4.875 3.953125 8.828125 8.828125 8.828125s8.828125-3.953125 8.828125-8.828125v-160.132813c-.585938-12.804687 9.269531-23.683594 22.070312-24.363281 5.851563.046875 11.421876 2.527344 15.375 6.839844 4.34375 4.800781 6.730469 11.050781 6.691407 17.523437v107.167969c0 4.875 3.953125 8.828125 8.828125 8.828125s8.828125-3.953125 8.828125-8.828125v-94.015625c-.585938-12.804688 9.269531-23.683594 22.070312-24.363281 5.871094.050781 11.457031 2.546875 15.414063 6.886719 4.34375 4.777343 6.71875 11.019531 6.652344 17.476562v94.015625c0 4.875 3.953124 8.828125 8.828124 8.828125s8.828126-3.953125 8.828126-8.828125v-73.976563c-.585938-12.804687 9.269531-23.683593 22.070312-24.363281 5.835938.046875 11.394531 2.488281 15.378906 6.753907 4.359375 4.839843 6.746094 11.140624 6.691406 17.652343v73.933594c0 4.875 3.949219 8.828125 8.824219 8.828125s8.828125-3.953125 8.828125-8.828125v-42.460937c-.210937-6.664063 2.628906-13.058594 7.714844-17.363282 3.066406-2.484375 6.878906-3.863281 10.824219-3.910156 9.644531 1.527344 16.75 9.832031 16.773437 19.59375zm0 0" fill="#f09372"/><path d="m379.730469 422.992188c-3.566407-.003907-6.785157-2.152344-8.152344-5.449219-1.367187-3.300781-.609375-7.097657 1.914063-9.621094l70.621093-70.621094c3.460938-3.34375 8.96875-3.296875 12.375.109375 3.402344 3.402344 3.449219 8.910156.105469 12.375l-70.621094 70.621094c-1.65625 1.652344-3.898437 2.585938-6.242187 2.585938zm0 0" fill="#e57e25"/><path d="m353.25 449.472656c-3.570312 0-6.789062-2.152344-8.15625-5.449218-1.363281-3.296876-.609375-7.09375 1.914062-9.617188l8.828126-8.828125c3.464843-3.347656 8.96875-3.296875 12.375.105469 3.40625 3.40625 3.453124 8.914062.105468 12.375l-8.824218 8.828125c-1.65625 1.65625-3.902344 2.585937-6.242188 2.585937zm0 0" fill="#e57e25"/><path d="m282.628906 335.667969c.019532 3.515625-.390625 7.019531-1.226562 10.433593-3.707032 14.726563-9.515625 32.476563-15.15625 49.710938-5.6875 17.390625-11.566406 35.351562-15.132813 49.839844-1.671875 8.902344-2.246093 17.976562-1.703125 27.019531.167969 10.753906.371094 24.136719-3.636718 28.25-.398438.40625-1.449219 1.464844-4.8125 1.464844-28.777344-.035157-108.402344.050781-108.402344.050781-.402344 0-.800782.027344-1.199219.089844-7.855469 0-51.570313-.089844-77.621094-.089844-1.792969.246094-3.601562-.308594-4.953125-1.515625-4.121094-4.175781-3.988281-17.65625-3.882812-28.558594.460937-8.867187-.132813-17.753906-1.765625-26.480469-5.164063-16.683593-12.722657-32.527343-22.441407-47.035156-8.859374-13.121094-15.78125-27.453125-20.550781-42.550781v-97.410156c-.0937498-9.90625 3.566407-19.480469 10.242188-26.800781 6.195312-6.824219 14.96875-10.746094 24.1875-10.804688 5.714843.390625 10.046875 5.316406 9.710937 11.035156v111.226563c0 4.875 3.949219 8.828125 8.828125 8.828125 4.875 0 8.824219-3.953125 8.824219-8.828125v-160.132813c-.582031-12.804687 9.269531-23.683594 22.070312-24.363281 5.851563.046875 11.421876 2.527344 15.378907 6.839844 4.339843 4.800781 6.726562 11.050781 6.691406 17.523437v107.167969c0 4.875 3.953125 8.828125 8.828125 8.828125s8.824219-3.953125 8.824219-8.828125v-94.015625c-.582031-12.804688 9.269531-23.683594 22.070312-24.363281 5.871094.050781 11.457031 2.546875 15.414063 6.886719 4.34375 4.777343 6.71875 11.019531 6.65625 17.476562v94.015625c0 4.875 3.953125 8.828125 8.828125 8.828125s8.824219-3.953125 8.824219-8.828125v-73.976563c-.582032-12.804687 9.269531-23.683593 22.070312-24.363281 5.835938.046875 11.394531 2.488281 15.378906 6.753907 4.359375 4.839843 6.75 11.140624 6.691406 17.652343v73.933594c0 4.875 3.953126 8.828125 8.828126 8.828125s8.828124-3.953125 8.828124-8.828125v-42.460937c-.214843-6.664063 2.625-13.058594 7.714844-17.363282 3.0625-2.484375 6.875-3.863281 10.820313-3.910156 9.644531 1.527344 16.75 9.832031 16.773437 19.59375zm0 0" fill="#fdd7ad"/><path d="m144.34375 481.324219c-25.558594.523437-51.011719-3.46875-75.183594-11.785157-4.402344-1.886718-6.5-6.9375-4.726562-11.386718 1.777344-4.449219 6.777344-6.671875 11.269531-5.007813.597656.230469 60.960937 23.464844 144.074219-.289062 3.03125-.867188 6.296875-.050781 8.5625 2.140625 2.269531 2.191406 3.195312 5.429687 2.429687 8.488281s-3.105469 5.476563-6.136719 6.347656c-26.097656 7.550781-53.121093 11.417969-80.289062 11.492188zm0 0" fill="#f09372"/><path d="m349.71875 96.371094.21875-.265625c2.667969-3.253907 3.636719-7.574219 2.621094-11.65625s-3.902344-7.441407-7.785156-9.0625c-78.039063-32.414063-166.28125-29.542969-242.050782 7.875-8.421875 4.226562-18.457031 3.636719-26.328125-1.542969-7.867187-5.175781-12.378906-14.164062-11.828125-23.566406.550782-9.40625 6.078125-17.804688 14.5-22.03125 96.570313-48.160156 210.15625-48.160156 306.730469 0 5.527344 2.855468 12.296875 1.480468 16.269531-3.308594l4.414063-5.375c3.164062-3.851562 8.21875-5.597656 13.085937-4.523438 4.863282 1.074219 8.714844 4.792969 9.960938 9.613282l19.015625 73.449218c1.0625 4.097657.097656 8.457032-2.59375 11.726563-2.691407 3.269531-6.78125 5.054687-11.007813 4.804687l-75.769531-4.519531c-4.96875-.292969-9.355469-3.351562-11.351563-7.910156-1.992187-4.5625-1.261718-9.859375 1.898438-13.707031zm0 0" fill="#cc4b4c"/></svg>