<svg height="512pt" viewBox="0 -85 512 512" width="512pt" xmlns="http://www.w3.org/2000/svg"><path d="m256 341.328125c-39.761719.085937-79.203125-7.089844-116.386719-21.179687-72.386719-27.996094-124.253906-80.902344-138.683593-141.523438l-.929688-3.882812v-7.972657l.914062-3.933593c14.359376-60.671876 66.210938-113.621094 138.683594-141.652344 75.023438-28.246094 157.761719-28.246094 232.789063 0 72.371093 27.894531 124.21875 80.8125 138.691406 141.535156l.921875 3.875v7.996094l-.921875 3.957031c-14.457031 60.671875-66.296875 113.605469-138.675781 141.601563-37.1875 14.089843-76.636719 21.269531-116.402344 21.179687zm0 0" fill="#f09372"/><path d="m503.464844 170.578125v.085937c-10.835938 43.519532-45.226563 81.492188-93.183594 107.6875-12.25 6.664063-24.96875 12.425782-38.058594 17.238282-37.257812 13.480468-76.601562 20.296875-116.222656 20.140625-39.621094.15625-78.964844-6.660157-116.222656-20.140625-13.089844-4.8125-25.808594-10.574219-38.058594-17.238282-47.957031-26.195312-82.347656-64.082031-93.183594-107.605468v-.082032c11.601563-46.59375 50.175782-86.871093 103.507813-112.984374 9.023437-4.476563 18.28125-8.464844 27.734375-11.945313 37.257812-13.480469 76.601562-20.296875 116.222656-20.136719 39.621094-.160156 78.964844 6.65625 116.222656 20.136719 9.417969 3.472656 18.644532 7.429687 27.648438 11.863281 53.335937 26.109375 91.992187 66.386719 103.59375 112.980469zm0 0" fill="#bdc3c7"/><path d="m441.683594 174.929688c.097656 36.835937-10.839844 72.859374-31.402344 103.421874-12.25 6.664063-24.96875 12.425782-38.058594 17.238282-37.257812 13.480468-76.601562 20.296875-116.222656 20.140625-39.621094.15625-78.964844-6.660157-116.222656-20.140625-13.089844-4.8125-25.808594-10.574219-38.058594-17.238282-45.417969-67.835937-41.226562-157.371093 10.324219-220.671874 9.023437-4.476563 18.28125-8.464844 27.734375-11.945313 37.257812-13.480469 76.601562-20.296875 116.222656-20.136719 39.621094-.160156 78.964844 6.65625 116.222656 20.136719 9.417969 3.472656 18.644532 7.429687 27.648438 11.863281 27.140625 33.066406 41.921875 74.550782 41.8125 117.332032zm0 0" fill="#e6e7e8"/><path d="m366.933594 170.664062c0 61.265626-49.667969 110.933594-110.933594 110.933594s-110.933594-49.667968-110.933594-110.933594c0-61.269531 49.667969-110.933593 110.933594-110.933593s110.933594 49.664062 110.933594 110.933593zm0 0" fill="#2fa8cc"/><path d="m332.800781 170.664062c0 42.414063-34.386719 76.796876-76.800781 76.796876s-76.800781-34.382813-76.800781-76.796876c0-42.417968 34.386719-76.800781 76.800781-76.800781s76.800781 34.382813 76.800781 76.800781zm0 0" fill="#2980ba"/><path d="m307.199219 170.664062c0 28.277344-22.921875 51.199219-51.199219 51.199219s-51.199219-22.921875-51.199219-51.199219c0-28.277343 22.921875-51.203124 51.199219-51.203124s51.199219 22.925781 51.199219 51.203124zm0 0" fill="#2c3e50"/><path d="m230.398438 102.394531c0 14.140625-11.460938 25.601563-25.597657 25.601563-14.140625 0-25.601562-11.460938-25.601562-25.601563 0-14.136719 11.460937-25.597656 25.601562-25.597656 14.136719 0 25.597657 11.460937 25.597657 25.597656zm0 0" fill="#b0d3f0"/><path d="m332.800781 217.597656c0 16.492188-13.371093 29.863282-29.867187 29.863282s-29.867188-13.371094-29.867188-29.863282c0-16.496094 13.371094-29.867187 29.867188-29.867187s29.867187 13.371093 29.867187 29.867187zm0 0" fill="#fff"/><g fill="#fb7b76"><path d="m503.464844 170.578125v.085937c-9.980469 40.019532-39.847656 75.347657-81.832032 101.035157 31.3125-26.351563 53.898438-61.582031 64.765626-101.035157-11.019532-39.546874-33.710938-74.847656-65.109376-101.292968 42.15625 25.6875 72.195313 61.097656 82.175782 101.207031zm0 0"/><path d="m90.027344 271.527344c-41.8125-25.6875-71.59375-60.84375-81.492188-100.78125v-.082032c9.980469-40.109374 40.019532-75.605468 82.175782-101.292968-31.410157 26.472656-54.101563 61.804687-65.109376 101.375 10.859376 39.304687 33.3125 74.421875 64.425782 100.78125zm0 0"/></g></svg>