<svg height="510.98401pt" viewBox="0 0 510.98401 510.98401" width="510.98401pt" xmlns="http://www.w3.org/2000/svg"><path d="m428.601562 118.574219 54.023438-54.109375 23.128906 23.125c3.347656 3.296875 5.230469 7.796875 5.230469 12.492187 0 4.695313-1.882813 9.195313-5.230469 12.492188l-393.179687 393.179687c-3.296875 3.347656-7.796875 5.230469-12.492188 5.230469-4.695312 0-9.195312-1.882813-12.492187-5.230469l-23.125-23.128906 90.480468-90.394531 35.3125-35.308594 202.589844-203.476563zm0 0" fill="#f29c1f"/><path d="m487.039062 68.875-54.023437 54.113281-273.65625 273.65625-90.484375 90.394531-4.410156-4.414062-59.234375-59.230469c-3.347657-3.296875-5.230469-7.796875-5.230469-12.492187 0-4.695313 1.882812-9.195313 5.230469-12.492188l28.425781-28.425781 18.800781-18.714844 12.449219-12.535156 31.160156-31.160156 18.800782-18.714844 12.449218-12.535156 18.714844-18.714844 12.535156-12.445313 18.714844-18.714843 12.445312-12.535157 18.714844-18.714843 12.535156-12.445313 18.714844-18.804687 31.160156-31.160157 12.535157-12.449218 18.714843-18.800782 96.308594-96.308593c3.296875-3.347657 7.796875-5.230469 12.492188-5.230469 4.695312 0 9.195312 1.882812 12.492187 5.230469l59.230469 59.234375zm0 0" fill="#f0c419"/><g fill="#c03a2b"><path d="m102.597656 388.964844c-1.679687 1.632812-3.925781 2.550781-6.265625 2.558594-2.316406-.007813-4.535156-.925782-6.179687-2.558594l-37.695313-37.695313 12.449219-12.535156 37.691406 37.785156c3.421875 3.441407 3.421875 9.003907 0 12.445313zm0 0"/><path d="m54.222656 403c-1.65625 1.667969-3.917968 2.59375-6.265625 2.5625-2.324219.027344-4.558593-.898438-6.179687-2.5625l-20.570313-20.566406 12.449219-12.449219 20.566406 20.570313c3.421875 3.441406 3.421875 9.003906 0 12.445312zm0 0"/><path d="m165.007812 326.554688c-3.441406 3.421874-9.003906 3.421874-12.445312 0l-37.695312-37.695313 12.449218-12.535156 37.691406 37.695312c3.445313 3.46875 3.445313 9.066407 0 12.535157zm0 0"/><path d="m116.632812 340.589844c-3.441406 3.421875-9.003906 3.421875-12.445312 0l-20.570312-20.566406 12.449218-12.449219 20.566406 20.570312c3.425782 3.441407 3.425782 9.003907 0 12.445313zm0 0"/><path d="m227.421875 264.144531c-3.445313 3.421875-9.003906 3.421875-12.449219 0l-37.691406-37.695312 12.445312-12.535157 37.695313 37.695313c3.441406 3.46875 3.441406 9.0625 0 12.535156zm0 0"/><path d="m179.046875 278.179688c-3.445313 3.421874-9.003906 3.421874-12.449219 0l-20.566406-20.570313 12.535156-12.445313 20.480469 20.480469c3.441406 3.46875 3.441406 9.066407 0 12.535157zm0 0"/><path d="m289.832031 201.730469c-3.445312 3.425781-9.003906 3.425781-12.449219 0l-37.691406-37.78125 12.445313-12.445313 37.695312 37.691406c3.441407 3.472657 3.441407 9.066407 0 12.535157zm0 0"/><path d="m241.457031 215.769531c-3.445312 3.421875-9.003906 3.421875-12.449219 0l-20.566406-20.570312 12.535156-12.445313 20.480469 20.480469c3.441407 3.46875 3.441407 9.0625 0 12.535156zm0 0"/><path d="m352.242188 139.320312c-1.644532 1.632813-3.863282 2.550782-6.179688 2.5625-2.339844-.011718-4.589844-.929687-6.265625-2.5625l-37.695313-37.78125 12.445313-12.445312 37.695313 37.691406c3.441406 3.46875 3.441406 9.066406 0 12.535156zm0 0"/><path d="m303.867188 153.355469c-1.644532 1.632812-3.863282 2.550781-6.179688 2.5625-2.339844-.011719-4.589844-.929688-6.265625-2.5625l-20.570313-20.566407 12.535157-12.449218 20.480469 20.480468c3.441406 3.46875 3.441406 9.066407 0 12.535157zm0 0"/><path d="m414.652344 76.820312c-1.613282 1.691407-3.84375 2.644532-6.179688 2.648438-2.359375 0-4.621094-.957031-6.265625-2.648438l-37.695312-37.691406 12.449219-12.449218 37.691406 37.695312c1.695312 1.628906 2.652344 3.875 2.652344 6.222656s-.957032 4.597656-2.652344 6.222656zm0 0"/><path d="m366.367188 90.859375c-1.65625 1.675781-3.910157 2.625-6.269532 2.644531-2.359375 0-4.621094-.953125-6.265625-2.644531l-20.570312-20.480469 12.535156-12.535156 20.570313 20.566406c3.421874 3.445313 3.421874 9.003906 0 12.449219zm0 0"/></g></svg>