<svg height="512pt" viewBox="0 0 512 512" width="512pt" xmlns="http://www.w3.org/2000/svg"><path d="m282.484375 52.964844h163.308594c7.3125 0 13.242187 5.929687 13.242187 13.242187v379.585938c0 7.3125-5.929687 13.242187-13.242187 13.242187h-379.585938c-7.3125 0-13.242187-5.929687-13.242187-13.242187v-379.585938c0-7.3125 5.929687-13.242187 13.242187-13.242187zm0 0" fill="#8697cb"/><g fill="#2980ba"><path d="m128 0h26.484375c7.3125 0 13.238281 5.929688 13.238281 13.242188v61.792968c0 7.3125-5.925781 13.242188-13.238281 13.242188h-26.484375c-7.3125 0-13.242188-5.929688-13.242188-13.242188v-61.792968c0-7.3125 5.929688-13.242188 13.242188-13.242188zm0 0"/><path d="m242.757812 0h26.484376c7.3125 0 13.242187 5.929688 13.242187 13.242188v61.792968c0 7.3125-5.929687 13.242188-13.242187 13.242188h-26.484376c-7.3125 0-13.242187-5.929688-13.242187-13.242188v-61.792968c0-7.3125 5.929687-13.242188 13.242187-13.242188zm0 0"/><path d="m357.515625 0h26.484375c7.3125 0 13.242188 5.929688 13.242188 13.242188v61.792968c0 7.3125-5.929688 13.242188-13.242188 13.242188h-26.484375c-7.3125 0-13.238281-5.929688-13.238281-13.242188v-61.792968c0-7.3125 5.925781-13.242188 13.238281-13.242188zm0 0"/><path d="m128 423.722656h26.484375c7.3125 0 13.238281 5.929688 13.238281 13.242188v61.792968c0 7.3125-5.925781 13.242188-13.238281 13.242188h-26.484375c-7.3125 0-13.242188-5.929688-13.242188-13.242188v-61.792968c0-7.3125 5.929688-13.242188 13.242188-13.242188zm0 0"/><path d="m242.757812 423.722656h26.484376c7.3125 0 13.242187 5.929688 13.242187 13.242188v61.792968c0 7.3125-5.929687 13.242188-13.242187 13.242188h-26.484376c-7.3125 0-13.242187-5.929688-13.242187-13.242188v-61.792968c0-7.3125 5.929687-13.242188 13.242187-13.242188zm0 0"/><path d="m357.515625 423.722656h26.484375c7.3125 0 13.242188 5.929688 13.242188 13.242188v61.792968c0 7.3125-5.929688 13.242188-13.242188 13.242188h-26.484375c-7.3125 0-13.238281-5.929688-13.238281-13.242188v-61.792968c0-7.3125 5.925781-13.242188 13.238281-13.242188zm0 0"/><path d="m512 128v26.484375c0 7.3125-5.929688 13.238281-13.242188 13.238281h-61.792968c-7.3125 0-13.242188-5.925781-13.242188-13.238281v-26.484375c0-7.3125 5.929688-13.242188 13.242188-13.242188h61.792968c7.3125 0 13.242188 5.929688 13.242188 13.242188zm0 0"/><path d="m512 242.757812v26.484376c0 7.3125-5.929688 13.242187-13.242188 13.242187h-61.792968c-7.3125 0-13.242188-5.929687-13.242188-13.242187v-26.484376c0-7.3125 5.929688-13.242187 13.242188-13.242187h61.792968c7.3125 0 13.242188 5.929687 13.242188 13.242187zm0 0"/><path d="m512 357.515625v26.484375c0 7.3125-5.929688 13.242188-13.242188 13.242188h-61.792968c-7.3125 0-13.242188-5.929688-13.242188-13.242188v-26.484375c0-7.3125 5.929688-13.238281 13.242188-13.238281h61.792968c7.3125 0 13.242188 5.925781 13.242188 13.238281zm0 0"/><path d="m88.277344 128v26.484375c0 7.3125-5.929688 13.238281-13.242188 13.238281h-61.792968c-7.3125 0-13.242188-5.925781-13.242188-13.238281v-26.484375c0-7.3125 5.929688-13.242188 13.242188-13.242188h61.792968c7.3125 0 13.242188 5.929688 13.242188 13.242188zm0 0"/><path d="m88.277344 242.757812v26.484376c0 7.3125-5.929688 13.242187-13.242188 13.242187h-61.792968c-7.3125 0-13.242188-5.929687-13.242188-13.242187v-26.484376c0-7.3125 5.929688-13.242187 13.242188-13.242187h61.792968c7.3125 0 13.242188 5.929687 13.242188 13.242187zm0 0"/><path d="m88.277344 357.515625v26.484375c0 7.3125-5.929688 13.242188-13.242188 13.242188h-61.792968c-7.3125 0-13.242188-5.929688-13.242188-13.242188v-26.484375c0-7.3125 5.929688-13.238281 13.242188-13.238281h61.792968c7.3125 0 13.242188 5.925781 13.242188 13.238281zm0 0"/></g><path d="m361.929688 370.757812h-17.652344c-4.875 0-8.828125-3.953124-8.828125-8.828124s3.953125-8.828126 8.828125-8.828126h8.824218v-8.824218c0-4.875 3.953126-8.828125 8.828126-8.828125s8.828124 3.953125 8.828124 8.828125v17.652344c0 4.875-3.953124 8.828124-8.828124 8.828124zm0 0" fill="#2c3e50"/><path d="m308.964844 370.757812h-35.308594c-4.875 0-8.828125-3.953124-8.828125-8.828124s3.953125-8.828126 8.828125-8.828126h35.308594c4.875 0 8.828125 3.953126 8.828125 8.828126s-3.953125 8.828124-8.828125 8.828124zm-70.621094 0h-35.308594c-4.875 0-8.828125-3.953124-8.828125-8.828124s3.953125-8.828126 8.828125-8.828126h35.308594c4.875 0 8.828125 3.953126 8.828125 8.828126s-3.953125 8.828124-8.828125 8.828124zm0 0" fill="#2c3e50"/><path d="m167.722656 370.757812h-17.652344c-4.875 0-8.828124-3.953124-8.828124-8.828124v-17.652344c0-4.875 3.953124-8.828125 8.828124-8.828125s8.828126 3.953125 8.828126 8.828125v8.824218h8.824218c4.875 0 8.828125 3.953126 8.828125 8.828126s-3.953125 8.828124-8.828125 8.828124zm0 0" fill="#2c3e50"/><path d="m150.070312 317.792969c-4.875 0-8.828124-3.953125-8.828124-8.828125v-35.308594c0-4.875 3.953124-8.828125 8.828124-8.828125s8.828126 3.953125 8.828126 8.828125v35.308594c0 4.875-3.953126 8.828125-8.828126 8.828125zm0-70.621094c-4.875 0-8.828124-3.953125-8.828124-8.828125v-35.308594c0-4.875 3.953124-8.828125 8.828124-8.828125s8.828126 3.953125 8.828126 8.828125v35.308594c0 4.875-3.953126 8.828125-8.828126 8.828125zm0 0" fill="#2c3e50"/><path d="m150.070312 176.550781c-4.875 0-8.828124-3.953125-8.828124-8.828125v-17.652344c0-4.875 3.953124-8.828124 8.828124-8.828124h17.652344c4.875 0 8.828125 3.953124 8.828125 8.828124s-3.953125 8.828126-8.828125 8.828126h-8.824218v8.824218c0 4.875-3.953126 8.828125-8.828126 8.828125zm0 0" fill="#2c3e50"/><path d="m308.964844 158.898438h-35.308594c-4.875 0-8.828125-3.953126-8.828125-8.828126s3.953125-8.828124 8.828125-8.828124h35.308594c4.875 0 8.828125 3.953124 8.828125 8.828124s-3.953125 8.828126-8.828125 8.828126zm-70.621094 0h-35.308594c-4.875 0-8.828125-3.953126-8.828125-8.828126s3.953125-8.828124 8.828125-8.828124h35.308594c4.875 0 8.828125 3.953124 8.828125 8.828124s-3.953125 8.828126-8.828125 8.828126zm0 0" fill="#2c3e50"/><path d="m361.929688 176.550781c-4.875 0-8.828126-3.953125-8.828126-8.828125v-8.824218h-8.824218c-4.875 0-8.828125-3.953126-8.828125-8.828126s3.953125-8.828124 8.828125-8.828124h17.652344c4.875 0 8.828124 3.953124 8.828124 8.828124v17.652344c0 4.875-3.953124 8.828125-8.828124 8.828125zm0 0" fill="#2c3e50"/><path d="m361.929688 317.792969c-4.875 0-8.828126-3.953125-8.828126-8.828125v-35.308594c0-4.875 3.953126-8.828125 8.828126-8.828125s8.828124 3.953125 8.828124 8.828125v35.308594c0 4.875-3.953124 8.828125-8.828124 8.828125zm0-70.621094c-4.875 0-8.828126-3.953125-8.828126-8.828125v-35.308594c0-4.875 3.953126-8.828125 8.828126-8.828125s8.828124 3.953125 8.828124 8.828125v35.308594c0 4.875-3.953124 8.828125-8.828124 8.828125zm0 0" fill="#2c3e50"/></svg>