<svg height="504pt" viewBox="0 0 504.73015 504" width="504pt" xmlns="http://www.w3.org/2000/svg"><path d="m499.003906 4.53125c-2.832031-2.640625-6.546875-4.128906-10.414062-4.167969h-436.328125c-3.871094.039063-7.585938 1.527344-10.414063 4.167969-3.683594 3.394531-5.761718 8.183594-5.726562 13.191406v303.726563c-.035156 5.007812 2.042968 9.796875 5.726562 13.191406 2.828125 2.640625 6.542969 4.128906 10.414063 4.164063h436.328125c3.867187-.035157 7.582031-1.523438 10.414062-4.164063 3.679688-3.394531 5.761719-8.183594 5.726563-13.191406v-303.726563c.035156-5.007812-2.046875-9.796875-5.726563-13.191406zm-323.691406 39.222656h190.222656c5.707032.015625 10.738282 3.746094 12.410156 9.203125 1.671876 5.457031-.402343 11.363281-5.121093 14.574219l-95.109375 64.042969c-4.414063 2.953125-10.167969 2.953125-14.578125 0l-95.113281-64.042969c-4.714844-3.210938-6.792969-9.117188-5.121094-14.574219 1.675781-5.457031 6.707031-9.1875 12.410156-9.203125zm-95.804688 205.410156v-159.15625c-.023437-4.824218 2.628907-9.269531 6.886719-11.542968 4.257813-2.273438 9.421875-2.007813 13.421875.695312l118.367188 79.664063c3.5625 2.425781 5.691406 6.453125 5.691406 10.761719 0 4.308593-2.128906 8.335937-5.691406 10.761718l-118.367188 79.664063c-4 2.703125-9.164062 2.96875-13.421875.695312-4.257812-2.273437-6.910156-6.71875-6.886719-11.542969zm300.257813 46.25h-213.476563l-10.847656-14.316406 110.125-75.066406c2.933594-1.984375 6.78125-1.984375 9.71875 0l109.339844 73.503906c3.171875 2.132813 4.578125 6.085938 3.460938 9.742188-1.121094 3.65625-4.496094 6.148437-8.320313 6.136718zm81.921875-46.25c.023438 4.824219-2.625 9.269532-6.882812 11.542969-4.257813 2.273438-9.425782 2.007813-13.425782-.695312l-118.367187-79.664063c-3.558594-2.425781-5.691407-6.453125-5.691407-10.761718 0-4.308594 2.132813-8.335938 5.691407-10.761719l118.367187-79.664063c4-2.703125 9.167969-2.96875 13.425782-.695312 4.257812 2.273437 6.90625 6.71875 6.882812 11.542968zm0 0" fill="#894b9d"/><path d="m175.3125 43.753906h95.113281v-43.390625h-218.164062c-3.871094.039063-7.585938 1.527344-10.414063 4.167969-3.683594 3.394531-5.761718 8.183594-5.726562 13.191406v303.726563c-.035156 5.007812 2.042968 9.796875 5.726562 13.191406 2.828125 2.640625 6.542969 4.128906 10.414063 4.164063h218.164062v-43.390626h-104.136719l-10.847656-14.316406 110.125-75.066406c1.421875-.992188 3.125-1.507812 4.859375-1.472656v-70.726563c-2.597656-.027343-5.132812-.808593-7.289062-2.257812l-95.113281-64.042969c-4.714844-3.210938-6.792969-9.117188-5.121094-14.574219 1.675781-5.457031 6.707031-9.1875 12.410156-9.203125zm42.871094 115.070313c3.5625 2.425781 5.691406 6.453125 5.691406 10.761719 0 4.308593-2.128906 8.335937-5.691406 10.761718l-118.367188 79.664063c-4 2.703125-9.164062 2.96875-13.421875.695312-4.257812-2.273437-6.910156-6.71875-6.886719-11.542969v-159.15625c-.023437-4.824218 2.628907-9.269531 6.886719-11.542968 4.257813-2.273438 9.421875-2.007813 13.421875.695312zm0 0" fill="#955ba5"/><path d="m158.21875 283.007812c-4.425781-1.910156-6.023438 5.699219-10.101562 9.699219l-84.339844 118.238281c-8.679688 8.410157-15.316406 8.816407-3.253906 7.863282l25.582031 21.269531c1.921875-.152344 3.851562.144531 5.640625.867187 2.085937.707032 3.925781 2.003907 5.292968 3.730469l46.253907 55.191407c3.519531 4.207031 9.300781 5.753906 14.453125 3.867187 5.152344-1.882813 8.570312-6.796875 8.542968-12.28125v-196.472656c.050782-5.277344-3.160156-10.039063-8.070312-11.972657zm0 0" fill="#285680"/><path d="m158.21875 283.007812-66.472656 157.9375c-1.789063-.722656-3.71875-1.019531-5.640625-.867187l-72.203125 5.464844c-5.417969.371093-10.5-2.664063-12.742188-7.613281-2.242187-4.949219-1.175781-10.769532 2.675782-14.601563l140.324218-137.632813c3.691406-3.695312 9.265625-4.761718 14.058594-2.6875zm0 0" fill="#3b97d3"/></svg>