<svg height="511pt" viewBox="1 0 511.99882 511" width="511pt" xmlns="http://www.w3.org/2000/svg"><path d="m423.722656 331.847656v79.09375c0 7.3125-5.929687 13.242188-13.242187 13.242188h-26.480469c-7.3125 0-13.242188-5.929688-13.242188-13.242188v-66.207031l51.992188-12.621094zm0 0" fill="#3f5c6c"/><path d="m335.445312 353.5625-29.898437-44.789062-31.894531.652343h-137.445313l-44.136719 44.136719zm0 0" fill="#9fc9d3"/><path d="m423.722656 339.96875 81.921875-44.316406c3.949219-2.390625 6.363281-6.675782 6.355469-11.296875v-267.300781c-.003906-4.484376-2.273438-8.660157-6.03125-11.101563-3.761719-2.441406-8.5-2.816406-12.597656-.992187l-145.125 60.644531c-2.578125 1.144531-5.457032 1.421875-8.207032.796875l-300.757812-65.589844c-4.230469-.9375-8.65625.257812-11.839844 3.195312-3.1875 2.941407-4.730468 7.253907-4.136718 11.546876l42.546874 277.539062 44.050782-44.050781-27.71875-171.34375c-.644532-4.34375.90625-8.726563 4.144531-11.699219 3.234375-2.972656 7.734375-4.144531 12.011719-3.128906l241.519531 56.40625c2.875.636718 5.878906.328125 8.5625-.882813l100.636719-42.371093c4.097656-1.898438 8.878906-1.574219 12.6875.855468 3.804687 2.429688 6.109375 6.632813 6.113281 11.148438v161.371094c.003906 4.4375-2.21875 8.578124-5.914063 11.035156l-41.488281 21.714844c1.148438-.796876 2.207031-1.5 3.265625-2.296876v-1.324218c0-1.5 0-2.914063-.089844-4.414063-2.382812-40.605469-42.371093-72.828125-82.269531-70-59.234375 4.148438-87.660156 75.472657-51.378906 121.203125 16.296875 22.050782 43.105469 33.753906 70.355469 30.71875h.355468c3.351563-.882812 48.636719-11.617187 51.992188-12.675781zm-97.101562-61.441406c0-12.1875 9.878906-22.066406 22.066406-22.066406s22.070312 9.878906 22.070312 22.066406v28.515625c-44.136718 10.679687-44.136718-23.304688-44.136718-28.515625zm0 0" fill="#2fa8cc"/><path d="m194.390625 380.488281-59.328125 59.300781c-5.171875 5.171876-13.554688 5.171876-18.726562 0l-43.695313-43.695312c-5.167969-5.171875-5.167969-13.550781 0-18.722656l59.304687-59.304688-49.9375-49.9375-56.152343 56.179688c-34.472657 34.472656-34.472657 90.367187 0 124.839844l37.453125 37.453124c34.476562 34.476563 90.367187 34.476563 124.839844 0l56.179687-56.175781zm0 0" fill="#cc4b4c"/><g fill="#bdc3c7"><path d="m172.542969 277.496094-40.574219 40.574218-49.9375-49.9375 40.574219-40.574218c5.171875-5.171875 13.554687-5.171875 18.726562 0l31.210938 31.210937c5.167969 5.171875 5.167969 13.554688 0 18.726563zm0 0"/><path d="m284.898438 389.851562-40.574219 40.574219-49.9375-49.9375 40.574219-40.570312c5.171874-5.171875 13.554687-5.171875 18.726562 0l31.210938 31.210937c5.171874 5.167969 5.171874 13.554688 0 18.722656zm0 0"/></g></svg>