<svg height="512pt" viewBox="0 -66 512 511" width="512pt" xmlns="http://www.w3.org/2000/svg"><path d="m361.753906 91.425781c88.628906 20.039063 150.246094 64.707031 150.246094 116.523438 0 43.785156-44.058594 82.511719-111.289062 105.542969-4.523438 1.519531-9.515626.488281-13.066407-2.699219l-28.890625-25.777344c-2.410156-2.179687-3.429687-5.503906-2.65625-8.65625.777344-3.152344 3.21875-5.625 6.363282-6.441406 61.527343-16.242188 96.574218-44.046875 96.574218-61.96875 0-18.980469-39.546875-49.257813-108.402344-64.882813l-24.3125-30.761718zm0 0" fill="#3b97d3"/><path d="m168.253906 87.628906c-98.164062 17.921875-168.253906 65.058594-168.253906 120.320313 0 62.589843 89.777344 114.6875 208.535156 125.777343 6.855469.5625 12.136719 6.28125 12.15625 13.160157v24.375c.011719 3.59375 2.203125 6.820312 5.539063 8.15625 3.335937 1.339843 7.148437.519531 9.644531-2.066407l62.320312-76.976562c1.964844-2.007812 2.855469-4.828125 2.402344-7.597656-.453125-2.773438-2.195312-5.160156-4.695312-6.4375l-62.324219-46.511719c-2.738281-1.421875-6.019531-1.308594-8.652344.296875-2.632812 1.605469-4.238281 4.464844-4.234375 7.550781v19.417969c0 3.800781-1.621094 7.421875-4.457031 9.953125-2.835937 2.527344-6.617187 3.726563-10.394531 3.289063-95.925782-10.523438-152.875-49.609376-152.875-72.386719 0-20.390625 45.726562-53.9375 124.382812-68.148438l33.410156-26.746093zm0 0" fill="#3b97d3"/><path d="m361.929688 97.605469c.035156 44.601562-30.300782 83.5-73.566407 94.332031-43.269531 10.835938-88.355469-9.175781-109.34375-48.527344-20.992187-39.355468-12.5-87.945312 20.597657-117.84375 33.097656-29.898437 82.296874-33.425781 119.324218-8.558594 26.867188 18.023438 42.988282 48.246094 42.988282 80.597657zm0 0" fill="#c03a2b"/><path d="m335.449219 71.121094c-.011719 35.859375-19.785157 68.792968-51.433594 85.660156-31.644531 16.867188-70.007813 14.921875-99.785156-5.0625-25.785157-38.523438-20.746094-89.898438 12.03125-122.679688 32.78125-32.777343 84.15625-37.816406 122.679687-12.03125 10.785156 15.984376 16.535156 34.832032 16.507813 54.113282zm0 0" fill="#ff5364"/><path d="m240.554688 38.019531c-10.726563-10.726562-30.289063-8.550781-43.695313 4.855469s-15.582031 32.96875-4.855469 43.695312c10.722656 10.722657 30.285156 8.546876 43.691406-4.859374 13.410157-13.40625 15.582032-32.96875 4.859376-43.691407zm0 0" fill="#fb7b76"/></svg>