<svg height="510pt" viewBox="0 0 510 510.41203" width="510pt" xmlns="http://www.w3.org/2000/svg"><path d="m51.667969 344.179688c-4.875 0-8.824219-3.953126-8.824219-8.828126v-35.761718c0-4.875 3.949219-8.824219 8.824219-8.824219s8.828125 3.949219 8.828125 8.824219v35.761718c0 4.875-3.953125 8.828126-8.828125 8.828126zm0-71.503907c-4.875 0-8.824219-3.953125-8.824219-8.828125v-35.777344c0-4.875 3.949219-8.828124 8.824219-8.828124s8.828125 3.953124 8.828125 8.828124v35.777344c0 4.875-3.953125 8.828125-8.828125 8.828125zm0-71.503906c-4.875 0-8.824219-3.953125-8.824219-8.828125v-35.792969c0-4.875 3.949219-8.828125 8.824219-8.828125s8.828125 3.953125 8.828125 8.828125v35.792969c0 4.875-3.953125 8.828125-8.828125 8.828125zm.929687-71.503906c-2.53125.003906-4.941406-1.078125-6.617187-2.96875-1.679688-1.894531-2.464844-4.414063-2.160157-6.925781 1.539063-12.71875 4.925782-25.148438 10.054688-36.890626 1.96875-4.441406 7.152344-6.460937 11.605469-4.515624 4.449219 1.941406 6.496093 7.117187 4.578125 11.578124-4.433594 10.167969-7.355469 20.933594-8.679688 31.945313-.53125 4.445313-4.304687 7.789063-8.78125 7.777344zm235.738282-34.839844c-3.503907-.007813-6.675782-2.085937-8.074219-5.296875-4.5-10.144531-10.449219-19.582031-17.65625-28.019531-3.167969-3.710938-2.730469-9.292969.984375-12.460938 3.710937-3.167969 9.289062-2.726562 12.460937.984375 8.296875 9.734375 15.136719 20.625 20.300781 32.328125 1.191407 2.722657.925782 5.867188-.699218 8.355469-1.625 2.492188-4.394532 3.996094-7.367188 4.003906zm-207.535157-29.785156c-3.4375 0-6.5625-1.996094-8.007812-5.117188-1.445313-3.117187-.949219-6.789062 1.273437-9.414062 8.25-9.769531 17.867188-18.296875 28.554688-25.316407 2.636718-1.734374 6-1.929687 8.820312-.515624 2.820313 1.417968 4.671875 4.230468 4.855469 7.378906.183594 3.152344-1.328125 6.160156-3.964844 7.894531-9.253906 6.089844-17.578125 13.484375-24.714843 21.957031-1.695313 2.003906-4.191407 3.152344-6.816407 3.132813zm161.800781-23.921875c-1.707031-.003906-3.375-.5-4.800781-1.429688-9.28125-6.050781-19.390625-10.714844-30.015625-13.851562-3.070312-.855469-5.4375-3.296875-6.199218-6.390625-.765626-3.09375.199218-6.359375 2.519531-8.542969 2.320312-2.183594 5.636719-2.945312 8.675781-2 12.269531 3.621094 23.949219 9.007812 34.667969 15.988281 3.273437 2.132813 4.757812 6.167969 3.640625 9.914063-1.113282 3.75-4.5625 6.316406-8.472656 6.3125zm-102.839843-14.734375c-4.382813 0-8.101563-3.210938-8.738281-7.546875-.636719-4.335938 2.003906-8.480469 6.203124-9.738282 12.253907-3.664062 24.972657-5.53125 37.765626-5.542968 4.875 0 8.828124 3.953125 8.828124 8.828125s-3.953124 8.828125-8.828124 8.828125c-11.085938.007812-22.105469 1.625-32.726563 4.800781-.8125.242187-1.65625.367187-2.503906.371094zm0 0" fill="#ff5364"/><path d="m325.324219 108.140625 92.160156-92.160156c21.304687-21.308594 55.847656-21.308594 77.152344 0 21.304687 21.304687 21.304687 55.847656 0 77.152343l-92.160157 92.152344zm0 0" fill="#d1d4d1"/><path d="m16.183594 417.28125 309.140625-309.140625c13.738281-13.988281 33.925781-19.523437 52.878906-14.507813 18.953125 5.019532 33.753906 19.820313 38.773437 38.769532 5.019532 18.953125-.515624 39.140625-14.5 52.882812l-309.140624 309.148438zm0 0" fill="#547580"/><path d="m93.335938 494.433594c-21.304688 21.304687-55.847657 21.304687-77.152344 0-21.304688-21.304688-21.304688-55.847656 0-77.152344 21.304687-21.304688 55.847656-21.304688 77.152344 0 21.277343 21.316406 21.277343 55.835938 0 77.152344zm0 0" fill="#2c2f38"/><path d="m254.703125 220.59375c-3.570313 0-6.785156-2.152344-8.152344-5.449219-1.367187-3.296875-.613281-7.09375 1.910157-9.621093l44.140624-44.136719c3.464844-3.34375 8.96875-3.296875 12.375.109375 3.402344 3.402344 3.453126 8.910156.105469 12.371094l-44.136719 44.140624c-1.65625 1.65625-3.898437 2.585938-6.242187 2.585938zm0 0" fill="#95a5a5"/><path d="m325.324219 149.972656c-3.570313 0-6.789063-2.152344-8.152344-5.449218-1.367187-3.296876-.613281-7.09375 1.910156-9.621094l8.828125-8.824219c3.464844-3.347656 8.96875-3.300781 12.375.105469s3.453125 8.910156.109375 12.375l-8.828125 8.828125c-1.65625 1.65625-3.902344 2.585937-6.242187 2.585937zm0 0" fill="#95a5a5"/><path d="m494.601562 93.160156-92.132812 92.125c21.292969-21.3125 21.292969-55.84375 0-77.15625l-.496094-.503906 92.136719-92.113281.492187.492187c10.230469 10.234375 15.980469 24.109375 15.980469 38.578125s-5.75 28.34375-15.980469 38.578125zm0 0" fill="#bdc3c7"/><path d="m402.46875 185.285156-309.035156 309.050782c10.214844-10.21875 15.945312-24.089844 15.921875-38.542969-.027344-14.449219-5.804688-28.300781-16.054688-38.484375l-.496093-.496094 309.167968-309.210938.496094.503907c21.308594 21.3125 21.308594 55.863281 0 77.179687zm0 0" fill="#35495e"/></svg>