<svg height="512pt" viewBox="0 0 512.01319 512" width="512pt" xmlns="http://www.w3.org/2000/svg"><path d="m397.257812 256.003906c.019532 18.886719-3.753906 37.582032-11.097656 54.980469-7.152344 16.894531-1.765625 47.800781-14.582031 60.582031-12.820313 12.78125-43.6875 7.433594-60.585937 14.582032-35.15625 14.796874-74.796876 14.796874-109.957032 0-16.894531-7.148438-47.800781-1.765626-60.582031-14.582032s-7.433594-43.6875-14.582031-60.582031c-14.796875-35.160156-14.796875-74.796875 0-109.957031 7.148437-16.898438 1.765625-47.800782 14.582031-60.585938 12.816406-12.78125 43.6875-7.429687 60.582031-14.582031 35.160156-14.792969 74.800782-14.792969 109.957032 0 16.898437 7.152344 47.800781 1.765625 60.585937 14.582031 12.78125 12.820313 7.429687 43.6875 14.582031 60.585938 7.34375 17.398437 11.117188 36.09375 11.097656 54.976562zm0 0" fill="#f0c419"/><g fill="#67b9cc"><path d="m2.355469 250.125c-3.117188 3.328125-3.117188 8.503906 0 11.828125l61.136719 65.238281c2.53125 2.742188 6.46875 3.6875 9.96875 2.390625s5.871093-4.578125 6.003906-8.304687v-130.597656c-.160156-3.714844-2.53125-6.972657-6.019532-8.265626-3.488281-1.292968-7.410156-.363281-9.953124 2.351563zm0 0"/><path d="m327.164062 448.527344c2.746094-2.53125 3.6875-6.46875 2.394532-9.96875-1.296875-3.496094-4.578125-5.867188-8.308594-6.003906h-130.472656c-3.726563.136718-7.007813 2.507812-8.304688 6.003906-1.296875 3.5-.351562 7.4375 2.390625 9.96875l65.238281 61.136718c3.324219 3.117188 8.5 3.117188 11.828126 0zm0 0"/><path d="m327.164062 63.484375-65.234374-61.140625c-3.328126-3.117188-8.503907-3.117188-11.828126 0l-65.238281 61.140625c-2.742187 2.53125-3.6875 6.464844-2.390625 9.964844s4.578125 5.871093 8.304688 6.003906h130.472656c3.730469-.132813 7.011719-2.503906 8.308594-6.003906 1.292968-3.5.351562-7.433594-2.394532-9.964844zm0 0"/><path d="m432.566406 321.328125v-130.59375c.132813-3.730469 2.503906-7.011719 6.003906-8.304687 3.5-1.296876 7.433594-.355469 9.964844 2.390624l61.140625 65.234376c3.117188 3.328124 3.117188 8.503906 0 11.828124l-61.140625 65.324219c-2.535156 2.714844-6.449218 3.644531-9.933594 2.359375-3.484374-1.28125-5.863281-4.527344-6.035156-8.238281zm0 0"/></g><path d="m327.164062 63.484375-65.234374-61.140625c-3.328126-3.117188-8.503907-3.117188-11.828126 0l-65.238281 61.140625c-2.742187 2.53125-3.6875 6.464844-2.390625 9.964844s4.578125 5.871093 8.304688 6.003906h130.472656c3.730469-.132813 7.011719-2.503906 8.308594-6.003906 1.292968-3.5.351562-7.433594-2.394532-9.964844zm0 0" fill="#fb7b76"/><path d="m321.25 432.554688h-130.472656c-3.726563.136718-7.007813 2.507812-8.304688 6.003906-1.296875 3.5-.351562 7.4375 2.390625 9.96875l65.238281 61.136718c3.324219 3.117188 8.5 3.117188 11.828126 0l65.234374-61.136718c2.746094-2.53125 3.6875-6.46875 2.394532-9.96875-1.296875-3.496094-4.578125-5.867188-8.308594-6.003906zm0 0" fill="#fb7b76"/><path d="m2.355469 261.953125 61.136719 65.238281c2.53125 2.742188 6.46875 3.6875 9.96875 2.390625s5.871093-4.578125 6.003906-8.304687v-130.597656c-.160156-3.714844-2.53125-6.972657-6.019532-8.265626-3.488281-1.292968-7.410156-.363281-9.953124 2.351563l-61.136719 65.324219c-3.140625 3.332031-3.140625 8.53125 0 11.863281zm0 0" fill="#fb7b76"/><path d="m432.566406 321.328125v-130.59375c.132813-3.730469 2.503906-7.011719 6.003906-8.304687 3.5-1.296876 7.433594-.355469 9.964844 2.390624l61.140625 65.234376c3.117188 3.328124 3.117188 8.503906 0 11.828124l-61.140625 65.324219c-2.535156 2.714844-6.449218 3.644531-9.933594 2.359375-3.484374-1.28125-5.863281-4.527344-6.035156-8.238281zm0 0" fill="#fb7b76"/><path d="m169.441406 205.597656c-4.875 0-8.828125-3.949218-8.828125-8.824218v-13.667969c.019531-12.417969 10.085938-22.480469 22.503907-22.5h13.664062c4.875 0 8.828125 3.953125 8.828125 8.828125s-3.953125 8.828125-8.828125 8.828125h-13.664062c-2.675782 0-4.847657 2.167969-4.847657 4.84375v13.667969c0 4.875-3.953125 8.824218-8.828125 8.824218zm0 0" fill="#f3d55b"/><path d="m242.773438 229.523438h26.484374c7.3125 0 13.238282 5.925781 13.238282 13.238281v26.484375c0 7.3125-5.925782 13.242187-13.238282 13.242187h-26.484374c-7.3125 0-13.242188-5.929687-13.242188-13.242187v-26.484375c0-7.3125 5.929688-13.238281 13.242188-13.238281zm0 0" fill="#ff5364"/></svg>