<svg height="512pt" viewBox="0 0 512 512" width="512pt" xmlns="http://www.w3.org/2000/svg"><g fill="#cc66a1"><path d="m52.964844 52.964844h406.070312v35.3125h-406.070312zm0 0"/><path d="m52.964844 423.722656h406.070312v35.3125h-406.070312zm0 0"/><path d="m52.964844 397.242188v-317.792969h35.3125v317.792969zm0 0"/><path d="m432.550781 397.242188v-317.792969h35.3125v317.792969zm0 0"/></g><path d="m211.863281 185.378906h88.273438c14.628906 0 26.484375 11.855469 26.484375 26.484375v88.273438c0 14.628906-11.855469 26.484375-26.484375 26.484375h-88.273438c-14.628906 0-26.484375-11.855469-26.484375-26.484375v-88.273438c0-14.628906 11.855469-26.484375 26.484375-26.484375zm0 0" fill="#285680"/><path d="m26.484375 185.378906h88.273437c14.625 0 26.484376 11.855469 26.484376 26.484375v88.273438c0 14.628906-11.859376 26.484375-26.484376 26.484375h-88.273437c-14.628906 0-26.484375-11.855469-26.484375-26.484375v-88.273438c0-14.628906 11.855469-26.484375 26.484375-26.484375zm0 0" fill="#4482c3"/><path d="m26.484375 370.757812h88.273437c14.625 0 26.484376 11.859376 26.484376 26.484376v88.273437c0 14.628906-11.859376 26.484375-26.484376 26.484375h-88.273437c-14.628906 0-26.484375-11.855469-26.484375-26.484375v-88.273437c0-14.625 11.855469-26.484376 26.484375-26.484376zm0 0" fill="#955ba5"/><path d="m26.484375 0h88.273437c14.625 0 26.484376 11.855469 26.484376 26.484375v88.273437c0 14.625-11.859376 26.484376-26.484376 26.484376h-88.273437c-14.628906 0-26.484375-11.859376-26.484375-26.484376v-88.273437c0-14.628906 11.855469-26.484375 26.484375-26.484375zm0 0" fill="#955ba5"/><path d="m397.242188 185.378906h88.273437c14.628906 0 26.484375 11.855469 26.484375 26.484375v88.273438c0 14.628906-11.855469 26.484375-26.484375 26.484375h-88.273437c-14.625 0-26.484376-11.855469-26.484376-26.484375v-88.273438c0-14.628906 11.859376-26.484375 26.484376-26.484375zm0 0" fill="#4482c3"/><path d="m397.242188 370.757812h88.273437c14.628906 0 26.484375 11.859376 26.484375 26.484376v88.273437c0 14.628906-11.855469 26.484375-26.484375 26.484375h-88.273437c-14.625 0-26.484376-11.855469-26.484376-26.484375v-88.273437c0-14.625 11.859376-26.484376 26.484376-26.484376zm0 0" fill="#955ba5"/><path d="m397.242188 0h88.273437c14.628906 0 26.484375 11.855469 26.484375 26.484375v88.273437c0 14.625-11.855469 26.484376-26.484375 26.484376h-88.273437c-14.625 0-26.484376-11.859376-26.484376-26.484376v-88.273437c0-14.628906 11.859376-26.484375 26.484376-26.484375zm0 0" fill="#955ba5"/><path d="m211.863281 0h88.273438c14.628906 0 26.484375 11.855469 26.484375 26.484375v88.273437c0 14.625-11.855469 26.484376-26.484375 26.484376h-88.273438c-14.628906 0-26.484375-11.859376-26.484375-26.484376v-88.273437c0-14.628906 11.855469-26.484375 26.484375-26.484375zm0 0" fill="#4482c3"/><path d="m211.863281 370.757812h88.273438c14.628906 0 26.484375 11.859376 26.484375 26.484376v88.273437c0 14.628906-11.855469 26.484375-26.484375 26.484375h-88.273438c-14.628906 0-26.484375-11.855469-26.484375-26.484375v-88.273437c0-14.625 11.855469-26.484376 26.484375-26.484376zm0 0" fill="#4482c3"/><path d="m35.308594 70.621094c-4.875 0-8.824219-3.953125-8.824219-8.828125v-26.484375c0-4.875 3.949219-8.824219 8.824219-8.824219h26.484375c4.875 0 8.828125 3.949219 8.828125 8.824219 0 4.878906-3.953125 8.828125-8.828125 8.828125h-17.65625v17.65625c0 4.875-3.949219 8.828125-8.828125 8.828125zm0 0" fill="#b49aca"/><path d="m476.691406 485.515625h-26.484375c-4.875 0-8.828125-3.949219-8.828125-8.824219 0-4.878906 3.953125-8.828125 8.828125-8.828125h17.65625v-17.65625c0-4.875 3.949219-8.828125 8.828125-8.828125 4.875 0 8.824219 3.953125 8.824219 8.828125v26.484375c0 4.875-3.949219 8.824219-8.824219 8.824219zm0 0" fill="#b49aca"/><path d="m476.691406 70.621094c4.875 0 8.824219-3.953125 8.824219-8.828125v-26.484375c0-4.875-3.949219-8.824219-8.824219-8.824219h-26.484375c-4.875 0-8.828125 3.949219-8.828125 8.824219 0 4.878906 3.953125 8.828125 8.828125 8.828125h17.65625v17.65625c0 4.875 3.949219 8.828125 8.828125 8.828125zm0 0" fill="#b49aca"/><path d="m35.308594 485.515625h26.484375c4.875 0 8.828125-3.949219 8.828125-8.824219 0-4.878906-3.953125-8.828125-8.828125-8.828125h-17.65625v-17.65625c0-4.875-3.949219-8.828125-8.828125-8.828125-4.875 0-8.824219 3.953125-8.824219 8.828125v26.484375c0 4.875 3.949219 8.824219 8.824219 8.824219zm0 0" fill="#b49aca"/><path d="m230.347656 25.652344c0-4.875 3.953125-8.828125 8.828125-8.828125h33.648438c4.875 0 8.828125 3.953125 8.828125 8.828125s-3.953125 8.828125-8.828125 8.828125h-33.648438c-4.875 0-8.828125-3.953125-8.828125-8.828125zm0 0" fill="#9fc9d3"/><path d="m230.347656 484.6875c0-4.875 3.953125-8.828125 8.828125-8.828125h33.648438c4.875 0 8.828125 3.953125 8.828125 8.828125s-3.953125 8.828125-8.828125 8.828125h-33.648438c-4.875 0-8.828125-3.953125-8.828125-8.828125zm0 0" fill="#9fc9d3"/><path d="m485.515625 229.515625c4.878906 0 8.828125 3.953125 8.828125 8.828125v33.660156c0 4.875-3.949219 8.828125-8.828125 8.828125-4.875 0-8.824219-3.953125-8.824219-8.828125v-33.660156c0-4.875 3.949219-8.828125 8.824219-8.828125zm0 0" fill="#9fc9d3"/><path d="m26.484375 229.515625c4.875 0 8.824219 3.953125 8.824219 8.828125v33.660156c0 4.875-3.949219 8.828125-8.824219 8.828125-4.878906 0-8.828125-3.953125-8.828125-8.828125v-33.660156c0-4.875 3.949219-8.828125 8.828125-8.828125zm0 0" fill="#9fc9d3"/></svg>