<svg height="503.32203pt" viewBox="0 0 503.32203 503.32203" width="503.32203pt" xmlns="http://www.w3.org/2000/svg"><path d="m381.464844 251.660156c0 71.890625-58.277344 130.171875-130.167969 130.171875s-130.167969-58.28125-130.167969-130.171875 58.277344-130.167968 130.167969-130.167968 130.167969 58.277343 130.167969 130.167968zm0 0" fill="#f29c1f"/><g fill="#f0c419"><path d="m251.296875 338.441406c-47.925781 0-86.78125-38.851562-86.78125-86.78125 0-47.925781 38.855469-86.777344 86.78125-86.777344zm0 0"/><path d="m337.632812 251.660156c-4.453124-.003906-8.179687-3.378906-8.625-7.808594-2.507812-24.890624-16.796874-47.074218-38.425781-59.644531-2.855469-1.460937-4.671875-4.375-4.722656-7.582031-.054687-3.207031 1.667969-6.179688 4.472656-7.734375 2.804688-1.554687 6.238281-1.433594 8.925781.3125 26.453126 15.367187 43.933594 42.480469 47.019532 72.914063.222656 2.292968-.472656 4.582031-1.9375 6.359374-1.464844 1.78125-3.578125 2.902344-5.875 3.125-.257813.058594-.554688.058594-.832032.058594zm0 0"/><path d="m327.046875 302.601562c-3.078125-.003906-5.925781-1.636718-7.480469-4.292968-1.554687-2.652344-1.589844-5.933594-.085937-8.621094 2.578125-4.585938 4.664062-9.429688 6.222656-14.457031 1.40625-4.582031 6.265625-7.152344 10.847656-5.746094 4.578125 1.410156 7.152344 6.265625 5.742188 10.847656-1.917969 6.195313-4.484375 12.171875-7.660157 17.824219-1.539062 2.746094-4.441406 4.449219-7.585937 4.445312zm0 0"/><path d="m230.320312 0h42.671876c7.1875 0 13.015624 5.828125 13.015624 13.015625v60.746094c0 7.191406-5.828124 13.019531-13.015624 13.019531h-42.671876c-7.1875 0-13.015624-5.828125-13.015624-13.019531v-60.746094c0-7.1875 5.828124-13.015625 13.015624-13.015625zm0 0"/><path d="m230.320312 416.542969h42.671876c7.1875 0 13.015624 5.828125 13.015624 13.015625v60.746094c0 7.191406-5.828124 13.015624-13.015624 13.015624h-42.671876c-7.1875 0-13.015624-5.824218-13.015624-13.015624v-60.746094c0-7.1875 5.828124-13.015625 13.015624-13.015625zm0 0"/><path d="m414.53125 58.625 30.171875 30.171875c5.082031 5.085937 5.082031 13.328125 0 18.410156l-42.957031 42.953125c-5.082032 5.085938-13.324219 5.085938-18.40625 0l-30.171875-30.171875c-5.085938-5.082031-5.085938-13.324219 0-18.40625l42.953125-42.957031c5.082031-5.082031 13.324218-5.082031 18.410156 0zm0 0"/><path d="m119.984375 353.171875 30.175781 30.171875c5.082032 5.082031 5.082032 13.324219 0 18.410156l-42.957031 42.953125c-5.082031 5.082031-13.324219 5.082031-18.40625 0l-30.171875-30.171875c-5.085938-5.085937-5.085938-13.328125 0-18.410156l42.953125-42.953125c5.082031-5.082031 13.324219-5.082031 18.40625 0zm0 0"/><path d="m503.320312 230.320312v42.671876c0 7.1875-5.824218 13.015624-13.015624 13.015624h-60.746094c-7.1875 0-13.015625-5.828124-13.015625-13.015624v-42.671876c0-7.1875 5.828125-13.015624 13.015625-13.015624h60.746094c7.191406 0 13.015624 5.828124 13.015624 13.015624zm0 0"/><path d="m86.78125 230.320312v42.671876c0 7.1875-5.828125 13.015624-13.019531 13.015624h-60.746094c-7.1875 0-13.015625-5.828124-13.015625-13.015624v-42.671876c0-7.1875 5.828125-13.015624 13.015625-13.015624h60.746094c7.191406 0 13.019531 5.828124 13.019531 13.015624zm0 0"/><path d="m444.691406 414.523438-30.171875 30.171874c-5.085937 5.085938-13.328125 5.085938-18.410156 0l-42.953125-42.953124c-5.085938-5.082032-5.085938-13.324219 0-18.410157l30.171875-30.171875c5.082031-5.082031 13.324219-5.082031 18.410156 0l42.953125 42.957032c5.082032 5.082031 5.082032 13.324218 0 18.40625zm0 0"/><path d="m150.15625 119.992188-30.171875 30.171874c-5.082031 5.082032-13.324219 5.082032-18.410156 0l-42.953125-42.953124c-5.082032-5.085938-5.082032-13.328126 0-18.410157l30.171875-30.171875c5.082031-5.082031 13.324219-5.082031 18.410156 0l42.953125 42.953125c5.082031 5.085938 5.082031 13.328125 0 18.410157zm0 0"/></g></svg>