<svg height="512.00008pt" viewBox="0 0 512.00008 512.00008" width="512.00008pt" xmlns="http://www.w3.org/2000/svg"><path d="m508.117188 3.882812-504.234376 504.234376c-2.492187-2.476563-3.8906245-5.84375-3.882812-9.359376v-485.515624c0-7.3125 5.929688-13.242188 13.242188-13.242188h485.515624c3.515626-.0078125 6.882813 1.390625 9.359376 3.882812zm0 0" fill="#955ba5"/><path d="m512 13.242188v485.515624c0 7.3125-5.929688 13.242188-13.242188 13.242188h-485.515624c-3.515626.007812-6.882813-1.390625-9.359376-3.882812l504.234376-504.234376c2.492187 2.476563 3.890624 5.84375 3.882812 9.359376zm0 0" fill="#3d324c"/><path d="m185.378906 123.585938v-75.035157c0-7.3125-5.929687-13.242187-13.242187-13.242187h-35.308594c-7.3125 0-13.242187 5.929687-13.242187 13.242187v75.035157h-75.035157c-7.3125 0-13.242187 5.929687-13.242187 13.242187v35.308594c0 7.3125 5.929687 13.242187 13.242187 13.242187h75.035157v75.035156c0 7.3125 5.929687 13.242188 13.242187 13.242188h35.308594c7.3125 0 13.242187-5.929688 13.242187-13.242188v-75.035156h75.035156c7.3125 0 13.242188-5.929687 13.242188-13.242187v-35.308594c0-7.3125-5.929688-13.242187-13.242188-13.242187zm0 0" fill="#b49aca"/><g fill="#7d6599"><path d="m326.621094 397.242188h-75.035156c-7.3125 0-13.242188-5.929688-13.242188-13.242188v-35.308594c0-7.316406 5.929688-13.242187 13.242188-13.242187h211.863281c7.3125 0 13.242187 5.925781 13.242187 13.242187v35.308594c0 7.3125-5.929687 13.242188-13.242187 13.242188zm0 0"/><path d="m476.691406 282.484375c-4.878906 0-8.828125-3.953125-8.828125-8.828125v-114.757812c0-4.878907 3.949219-8.828126 8.828125-8.828126 4.875 0 8.824219 3.949219 8.824219 8.828126v114.757812c0 4.875-3.949219 8.828125-8.824219 8.828125zm0 0"/><path d="m476.691406 123.585938c-4.878906 0-8.828125-3.953126-8.828125-8.828126v-17.65625c0-4.875 3.949219-8.824218 8.828125-8.824218 4.875 0 8.824219 3.949218 8.824219 8.824218v17.65625c0 4.875-3.949219 8.828126-8.824219 8.828126zm0 0"/></g></svg>