<svg height="512pt" viewBox="0 0 512 512" width="512pt" xmlns="http://www.w3.org/2000/svg"><path d="m282.484375 282.484375h-269.242187c-7.3125 0-13.242188-5.929687-13.242188-13.242187v-256c0-7.3125 5.929688-13.242188 13.242188-13.242188h256c7.3125 0 13.242187 5.929688 13.242187 13.242188zm0 0" fill="#b0d3f0"/><path d="m48.550781 35.308594h44.140625c7.3125 0 13.238282 5.929687 13.238282 13.242187v44.140625c0 7.3125-5.925782 13.238282-13.238282 13.238282h-44.140625c-7.3125 0-13.242187-5.925782-13.242187-13.238282v-44.140625c0-7.3125 5.929687-13.242187 13.242187-13.242187zm0 0" fill="#3b97d3"/><path d="m119.171875 105.929688h44.136719c7.316406 0 13.242187 5.929687 13.242187 13.242187v44.136719c0 7.316406-5.925781 13.242187-13.242187 13.242187h-44.136719c-7.3125 0-13.242187-5.925781-13.242187-13.242187v-44.136719c0-7.3125 5.929687-13.242187 13.242187-13.242187zm0 0" fill="#2980ba"/><g fill="#3b97d3"><path d="m189.792969 35.308594h44.136719c7.3125 0 13.242187 5.929687 13.242187 13.242187v44.140625c0 7.3125-5.929687 13.238282-13.242187 13.238282h-44.136719c-7.3125 0-13.242188-5.925782-13.242188-13.238282v-44.140625c0-7.3125 5.929688-13.242187 13.242188-13.242187zm0 0"/><path d="m189.792969 176.550781h44.136719c7.3125 0 13.242187 5.929688 13.242187 13.242188v44.136719c0 7.3125-5.929687 13.242187-13.242187 13.242187h-44.136719c-7.3125 0-13.242188-5.929687-13.242188-13.242187v-44.136719c0-7.3125 5.929688-13.242188 13.242188-13.242188zm0 0"/><path d="m48.550781 176.550781h44.140625c7.3125 0 13.238282 5.929688 13.238282 13.242188v44.136719c0 7.3125-5.925782 13.242187-13.238282 13.242187h-44.140625c-7.3125 0-13.242187-5.929687-13.242187-13.242187v-44.136719c0-7.3125 5.929687-13.242188 13.242187-13.242188zm0 0"/></g><path d="m291.308594 251.585938c0-2.03125.089844-4.058594.265625-6.089844.089843-2.03125.355469-4.0625.617187-6.003906.265625-1.941407.707032-3.882813 1.148438-5.824219.441406-1.945313.972656-3.796875 1.589844-5.652344.710937-2.5 1.597656-4.949219 2.648437-7.324219.617187-1.503906 1.324219-2.914062 2.03125-4.414062.96875-2.007813 2.058594-3.953125 3.265625-5.828125 1.816406-3.078125 3.882812-6 6.179688-8.738281.628906-.863282 1.304687-1.6875 2.03125-2.472657.632812-.828125 1.34375-1.59375 2.117187-2.292969 1.324219-1.414062 2.734375-2.828124 4.148437-4.152343.132813-.066407.253907-.152344.351563-.261719 1.503906-1.324219 3.003906-2.648438 4.59375-3.796875 1.117187-.933594 2.296875-1.785156 3.53125-2.5625 1.851563-1.367187 3.800781-2.605469 5.824219-3.707031 1.199218-.714844 2.4375-1.363282 3.707031-1.941406 2.804687-1.414063 5.691406-2.652344 8.652344-3.707032 1.03125-.433594 2.09375-.785156 3.175781-1.058594.796875-.265624 1.679688-.53125 2.5625-.796874 1.234375-.351563 2.382812-.617188 3.617188-.882813l3.621093-.792969c4.554688-.738281 9.15625-1.125 13.769531-1.148437 1.589844 0 3.179688.089843 4.679688.179687 2.480469.101563 4.957031.335938 7.414062.703125 1.679688.265625 3.265626.617188 4.945313.972657 1.609375.328124 3.199219.742187 4.765625 1.234374 1.851562.496094 3.679688 1.085938 5.472656 1.765626 1.855469.707031 3.707032 1.414062 5.5625 2.296874.546875.199219 1.074219.433594 1.589844.707032 1.5.703125 3.089844 1.585937 4.589844 2.46875.707031.355468 1.410156.796875 2.117187 1.238281 1.554688.886719 3.054688 1.859375 4.503907 2.910156 1.675781 1.148438 3.265624 2.386719 4.855468 3.710938.175782.175781.441406.351562.617188.527343 1.234375 1.058594 2.472656 2.121094 3.617187 3.265626 1.414063 1.238281 2.738281 2.648437 4.0625 4.0625 1.410157 1.589843 2.734375 3.175781 3.972657 4.855468 1.046874 1.214844 1.992187 2.511719 2.824218 3.882813.847656 1.121093 1.613282 2.300781 2.296875 3.53125 1.207031 1.875 2.296875 3.820312 3.265625 5.828125.527344 1.058594 1.058594 2.207031 1.5 3.265625.53125 1.050781.972656 2.140625 1.324219 3.265625.710937 1.703125 1.328125 3.441406 1.851563 5.207031.621093 1.855469 1.148437 3.707031 1.589843 5.652344l.796875 3.96875.527344 3.445312c.265625 1.941407.441406 3.882813.53125 5.824219.085938 1.503906.175781 3.089844.175781 4.679688h35.308594c0-63.378907-51.378906-114.757813-114.757813-114.757813-63.378906 0-114.757812 51.378906-114.757812 114.757813zm0 0" fill="#a5a5a4"/><path d="m242.757812 247.171875h256c7.3125 0 13.242188 5.929687 13.242188 13.242187v238.34375c0 7.3125-5.929688 13.242188-13.242188 13.242188h-256c-7.3125 0-13.242187-5.929688-13.242187-13.242188v-238.34375c0-7.3125 5.929687-13.242187 13.242187-13.242187zm0 0" fill="#b19046"/><path d="m476.691406 260.414062v238.34375c0 7.308594-4.414062 13.242188-9.933594 13.242188h-192c-5.515624 0-9.929687-5.933594-9.929687-13.242188v-238.34375c0-7.308593 4.414063-13.242187 9.929687-13.242187h192c5.519532 0 9.933594 5.933594 9.933594 13.242187zm0 0" fill="#e4c05c"/><path d="m389.472656 384.265625c11.441406-5.355469 20.039063-15.355469 23.621094-27.46875 3.578125-12.117187 1.796875-25.183594-4.898438-35.894531-11.390624-17.71875-33.535156-25.183594-53.328124-17.976563-19.203126 7.199219-30.796876 26.808594-27.847657 47.105469 1.484375 11.265625 7.269531 21.519531 16.144531 28.621094.882813.695312 8.90625 5.171875 8.90625 5.523437v.089844l-15.535156 64.96875c-.261718 2.503906.550782 4.996094 2.234375 6.863281 1.683594 1.867188 4.078125 2.933594 6.59375 2.9375h50.84375c2.515625-.003906 4.910157-1.070312 6.59375-2.9375 1.683594-1.867187 2.496094-4.359375 2.234375-6.863281l-15.535156-64.96875zm0 0" fill="#2c3e50"/></svg>