<svg height="512pt" viewBox="-40 0 512 512.00257" width="512pt" xmlns="http://www.w3.org/2000/svg"><path d="m432.554688 114.761719v255.644531c-.222657 10.128906-8.585938 18.175781-18.714844 18.011719h-290.253906v-370.40625c.222656-10.128907 8.585937-18.175781 18.714843-18.00781275h192.441407l.707031 101.60546875c.050781 7.277344 5.964843 13.152344 13.242187 13.152344zm0 0" fill="#f3d55b"/><path d="m432.554688 106.023438v8.738281h-83.863282c-7.277344 0-13.191406-5.875-13.242187-13.152344l-.707031-101.60546875h6.179687zm0 0" fill="#f9eab0"/><path d="m123.585938 264.832031v247.171875h-22.066407c-7.3125 0-13.242187-5.929687-13.242187-13.242187v-75.035157h-75.035156c-7.3125 0-13.242188-5.929687-13.242188-13.242187v-44.136719c0-7.3125 5.929688-13.242187 13.242188-13.242187h75.035156v-75.035157c0-7.3125 5.929687-13.238281 13.242187-13.238281zm0 0" fill="#4482c3"/><path d="m247.171875 366.347656v44.136719c0 7.3125-5.925781 13.242187-13.238281 13.242187h-75.035156v75.035157c0 7.3125-5.929688 13.242187-13.242188 13.242187h-22.070312v-247.171875h22.070312c7.3125 0 13.242188 5.925781 13.242188 13.238281v75.035157h75.035156c7.3125 0 13.238281 5.929687 13.238281 13.242187zm0 0" fill="#285680"/></svg>