<svg height="503pt" viewBox="0 0 503 503.68809" width="503pt" xmlns="http://www.w3.org/2000/svg"><path d="m439.859375 64.488281c9.332031 9.441407 20.699219 16.625 33.234375 21l-19.261719 43.390625-5.988281 13.539063-64.019531 64.042969-280.035157 280.035156c-22.980468 22.910156-60.160156 22.910156-83.136718 0l-3.210938-3.207032c-20.210937-20.394531-22.808594-52.371093-6.160156-75.761718 1.859375-2.613282 3.917969-5.082032 6.160156-7.375l344.082032-344.082032 57.101562-25.339843c4.40625 12.726562 11.667969 24.277343 21.234375 33.757812zm0 0" fill="#4c8056"/><path d="m243.910156 173.65625-79.835937 79.839844c1.214843 1.386718 2.515625 2.777344 3.816406 4.164062 1.214844 1.214844 2.515625 2.429688 3.644531 3.558594 23.519532 23.429688 72.636719 30.285156 121.839844 27.25 3.597656-.550781 7.160156-1.304688 10.671875-2.257812l79.777344-79.75c-3.484375.941406-7.019531 1.695312-10.585938 2.253906-49.292969 2.953125-98.410156-3.816406-121.925781-27.246094-1.128906-1.128906-2.34375-2.34375-3.558594-3.644531-1.394531-1.28125-2.679687-2.675781-3.84375-4.167969zm0 0" fill="#4fba6f"/><path d="m90.511719 327.082031-18.140625 18.140625-25.796875 25.773438-29.160157 29.15625c-2.242187 2.292968-4.300781 4.761718-6.160156 7.375 1.042969 1.214844 2.167969 2.34375 3.296875 3.472656 1.214844 1.300781 2.429688 2.515625 3.558594 3.644531 23.515625 23.429688 72.636719 30.285157 121.925781 27.25 3.566406-.558593 7.101563-1.3125 10.585938-2.257812l79.75-79.75c-3.382813.867187-6.941406 1.648437-10.585938 2.257812-49.203125 2.949219-98.40625-3.90625-121.925781-27.25-1.128906-1.214843-2.34375-2.429687-3.558594-3.644531-1.351562-1.304688-2.621093-2.695312-3.789062-4.167969zm0 0" fill="#4fba6f"/><path d="m485.503906 1.140625-66.296875 29.332031-.609375.257813c4.414063 12.730469 11.6875 24.277343 21.261719 33.757812 9.332031 9.441407 20.699219 16.625 33.234375 21l.347656-.78125 29.417969-66.296875c2.1875-4.964844 1.09375-10.765625-2.753906-14.589844-3.84375-3.82421825-9.648438-4.890624-14.601563-2.679687zm0 0" fill="#2c3e50"/><path d="m418.597656 30.730469-57.101562 25.339843-37.835938 37.835938c1.214844 1.476562 2.515625 2.863281 3.820313 4.253906 1.214843 1.214844 2.429687 2.429688 3.644531 3.558594 23.515625 23.429688 72.632812 30.199219 121.835938 27.246094.292968.019531.585937-.007813.871093-.085938l19.261719-43.390625c-12.535156-4.375-23.902344-11.558593-33.234375-21-9.574219-9.480469-16.847656-21.027343-21.261719-33.757812zm0 0" fill="#4fba6f"/><g fill="#518c5b"><path d="m219.601562 284.066406-73.699218 73.703125c24.320312 4.757813 49.167968 6.242188 73.882812 4.417969 3.621094-.679688 7.175782-1.414062 10.613282-2.273438l73.703124-73.695312c-3.542968.9375-7.128906 1.691406-10.746093 2.265625-24.667969 1.863281-49.480469.375-73.753907-4.417969zm0 0"/><path d="m66.132812 437.535156-47.25 47.253906 1.734376 1.734376c23.019531 22.886718 60.195312 22.886718 83.214843 0l46.859375-46.859376c-3.375.925782-6.996094 1.597657-10.550781 2.210938-24.753906 1.894531-49.644531.433594-74.007813-4.339844zm0 0"/><path d="m379.148438 124.539062-79.777344 79.777344c24.324218 4.734375 49.167968 6.21875 73.882812 4.417969 3.558594-.617187 7.179688-1.292969 10.554688-2.214844l64.058594-64.058593 5.953124-13.554688c-.273437.109375-.570312.148438-.867187.121094-24.691406 1.835937-49.519531.324218-73.804687-4.488282zm0 0"/></g><path d="m299.371094 204.300781-79.769532 79.765625c24.277344 4.796875 49.089844 6.28125 73.765626 4.417969 3.617187-.574219 7.203124-1.328125 10.742187-2.265625l79.714844-79.714844c-3.375.917969-6.992188 1.597656-10.550781 2.210938-24.722657 1.804687-49.570313.320312-73.902344-4.414063zm0 0" fill="#71c285"/><path d="m145.902344 357.769531-79.769532 79.765625c24.339844 4.769532 49.214844 6.226563 73.945313 4.339844 3.558594-.613281 7.175781-1.285156 10.554687-2.210938l79.765626-79.769531c-3.472657.867188-6.992188 1.597657-10.613282 2.273438-24.714844 1.832031-49.5625.351562-73.882812-4.398438zm0 0" fill="#71c285"/><path d="m439.527344 64.148438-60.378906 60.390624c24.289062 4.816407 49.121093 6.324219 73.8125 4.488282.296874.027344.59375-.011719.871093-.121094l19.261719-43.453125c-12.515625-4.34375-23.871094-11.5-33.191406-20.921875zm0 0" fill="#71c285"/></svg>