<svg height="512pt" viewBox="0 0 512.02276 512" width="512pt" xmlns="http://www.w3.org/2000/svg"><path d="m335.449219 198.632812v176.550782l-52.964844-29.75-123.585937-150.066406v-96.046876zm0 0" fill="#285680"/><path d="m282.484375 264.839844-125.53125 70.621094-15.710937 8.828124-141.242188-79.449218 141.242188-79.449219zm0 0" fill="#90bae1"/><path d="m141.242188 344.289062v141.238282l-141.242188-79.445313v-141.242187zm0 0" fill="#285680"/><path d="m282.484375 264.839844v141.242187l-141.242187 79.445313v-141.238282l15.710937-8.828124zm0 0" fill="#4482c3"/><path d="m512 99.320312-156.867188 88.277344-19.683593 11.035156-176.550781-99.3125 176.550781-99.3085932zm0 0" fill="#90bae1"/><path d="m512 99.320312v176.554688l-176.550781 99.308594v-176.550782l19.683593-11.035156zm0 0" fill="#4482c3"/><path d="m458.929688 456.574219 8.828124 16.074219c2.582032 4.695312 7.738282 7.367187 13.0625 6.777343 5.324219-.589843 9.765626-4.332031 11.253907-9.476562l19.421875-66.789063c.980468-3.375.582031-6.996094-1.109375-10.074218-1.695313-3.078126-4.539063-5.359376-7.910157-6.339844l-66.800781-19.417969c-5.140625-1.488281-10.671875.261719-14.019531 4.441406-3.34375 4.179688-3.847656 9.960938-1.269531 14.652344l8.828125 16.074219" fill="#f29c1f"/><path d="m458.929688 456.574219-97.777344 53.796875c-3.074219 1.691406-6.699219 2.097656-10.074219 1.117187-3.375-.976562-6.222656-3.257812-7.914063-6.335937l-16.957031-30.835938c-3.523437-6.40625-1.1875-14.453125 5.214844-17.980468l97.773437-53.785157" fill="#f29c1f"/><g fill="#b0d3f0"><path d="m317.792969 158.90625c-1.597657.003906-3.167969-.433594-4.539063-1.261719l-88.273437-52.964843c-2.683594-1.613282-4.3125-4.53125-4.277344-7.660157.035156-3.132812 1.726563-6.011719 4.445313-7.566406l61.792968-35.3125c4.230469-2.425781 9.628906-.960937 12.054688 3.273437 2.425781 4.230469.960937 9.628907-3.273438 12.054688l-48.699218 27.832031 75.351562 45.214844c3.402344 2.046875 5.023438 6.113281 3.953125 9.941406-1.070313 3.824219-4.5625 6.464844-8.535156 6.449219zm0 0"/><path d="m132.414062 308.976562c-1.550781.011719-3.074218-.390624-4.414062-1.164062l-61.792969-35.3125c-2.75-1.570312-4.445312-4.496094-4.445312-7.660156 0-3.167969 1.695312-6.089844 4.445312-7.664063l61.792969-35.308593c4.21875-2.28125 9.484375-.777344 11.863281 3.386718 2.375 4.160156 1 9.460938-3.105469 11.9375l-48.339843 27.648438 48.375 27.648437c3.472656 1.984375 5.175781 6.058594 4.148437 9.925781-1.027344 3.867188-4.527344 6.5625-8.527344 6.5625zm0 0"/></g></svg>