<svg height="511.99837pt" viewBox="0 0 511.99837 511.99837" width="511.99837pt" xmlns="http://www.w3.org/2000/svg"><path d="m406.070312 282.480469v211.863281c-.03125 9.738281-7.917968 17.625-17.65625 17.65625h-211.863281c-9.738281-.03125-17.625-7.917969-17.652343-17.65625v-150.070312h52.964843v105.933593c0 4.875 3.949219 8.824219 8.828125 8.824219h123.585938c4.875 0 8.824218-3.949219 8.824218-8.824219v-123.589843c0-4.875-3.949218-8.824219-8.824218-8.824219h-141.242188v-52.96875h185.378906c9.738282.03125 17.625 7.917969 17.65625 17.65625zm0 0" fill="#2c3e50"/><path d="m247.171875 115.464844v219.980468c-.027344 9.738282-7.917969 17.628907-17.65625 17.65625h-219.980469c-2.53125-.019531-4.960937-.996093-6.796875-2.734374-1.738281-1.839844-2.7187498-4.269532-2.738281-6.800782v-219.980468c.0273438-9.738282 7.917969-17.628907 17.65625-17.65625h219.980469c2.546875-.050782 5 .9375 6.800781 2.734374 1.796875 1.800782 2.785156 4.253907 2.734375 6.800782zm0 0" fill="#bdc3c7"/><path d="m247.171875 115.464844v13.945312l-223.691406 223.691406h-13.945313c-2.53125-.019531-4.960937-.996093-6.796875-2.734374-1.738281-1.839844-2.7187498-4.269532-2.738281-6.800782v-16.949218l220.691406-220.6875h16.945313c2.546875-.050782 5 .9375 6.800781 2.734374 1.796875 1.800782 2.785156 4.253907 2.734375 6.800782zm0 0" fill="#c03a2b"/><path d="m467.863281 88.273438v97.105468h35.308594c3.570313 0 6.789063 2.148438 8.15625 5.449219 1.363281 3.296875.609375 7.09375-1.914063 9.617187l-61.792968 58.140626c-3.449219 3.445312-9.035156 3.445312-12.484375 0l-61.792969-58.140626c-2.523438-2.523437-3.277344-6.320312-1.910156-9.617187 1.363281-3.300781 4.582031-5.449219 8.152344-5.449219h35.3125v-79.449218c0-4.875-3.953126-8.828126-8.828126-8.828126h-70.621093v35.3125c0 3.566407-2.152344 6.785157-5.449219 8.152344-3.300781 1.367188-7.097656.609375-9.621094-1.914062l-58.136718-61.792969c-3.445313-3.445313-3.445313-9.035156 0-12.480469l58.136718-61.792968c2.523438-2.523438 6.320313-3.28125 9.621094-1.914063 3.296875 1.367187 5.449219 4.585937 5.449219 8.152344v35.3125h114.757812c9.75 0 17.65625 7.902343 17.65625 17.65625v35.308593" fill="#ff5364"/></svg>