<svg height="512pt" viewBox="0 -49 512 512" width="512pt" xmlns="http://www.w3.org/2000/svg"><path d="m512 207.449219c0 114.574219-114.617188 207.449219-256 207.449219s-256-92.875-256-207.449219c0-128 161.542969-37.03125 220.691406-75.035157 43.652344-28.046874-167.726562-132.414062 35.308594-132.414062 141.382812 0 256 92.875 256 207.449219zm0 0" fill="#cbb292"/><path d="m141.242188 225.101562c0 26.816407-21.738282 48.554688-48.550782 48.554688-26.816406 0-48.554687-21.738281-48.554687-48.554688 0-26.8125 21.738281-48.550781 48.554687-48.550781 26.8125 0 48.550782 21.738281 48.550782 48.550781zm0 0" fill="#4482c3"/><path d="m229.515625 317.792969c0 24.375-19.757813 44.136719-44.136719 44.136719-24.375 0-44.136718-19.761719-44.136718-44.136719s19.761718-44.136719 44.136718-44.136719c24.378906 0 44.136719 19.761719 44.136719 44.136719zm0 0" fill="#c03a2b"/><path d="m344.277344 331.035156c0 21.9375-17.785156 39.722656-39.726563 39.722656-21.9375 0-39.722656-17.785156-39.722656-39.722656 0-21.941406 17.785156-39.726562 39.722656-39.726562 21.941407 0 39.726563 17.785156 39.726563 39.726562zm0 0" fill="#f0c419"/><path d="m432.550781 286.898438c0 17.0625-13.832031 30.894531-30.894531 30.894531-17.066406 0-30.898438-13.832031-30.898438-30.894531 0-17.066407 13.832032-30.898438 30.898438-30.898438 17.0625 0 30.894531 13.832031 30.894531 30.898438zm0 0" fill="#24ae5f"/><path d="m476.691406 211.863281c0 14.625-11.859375 26.480469-26.484375 26.480469s-26.484375-11.855469-26.484375-26.480469c0-14.628906 11.859375-26.484375 26.484375-26.484375s26.484375 11.855469 26.484375 26.484375zm0 0" fill="#ff5364"/><path d="m450.207031 132.414062c0 9.75-7.90625 17.65625-17.65625 17.65625s-17.652343-7.90625-17.652343-17.65625 7.902343-17.65625 17.652343-17.65625 17.65625 7.90625 17.65625 17.65625zm0 0" fill="#fff"/><g fill="#fdd7ad"><path d="m335.449219 61.792969c-1.367188 0-2.714844-.316407-3.9375-.925781-31.207031-14.945313-66.09375-20.464844-100.386719-15.890626-4.796875.886719-9.402344-2.285156-10.285156-7.078124-.886719-4.796876 2.285156-9.402344 7.078125-10.285157 38.070312-5.433593 76.894531.644531 111.484375 17.453125 3.667968 1.828125 5.597656 5.941406 4.652344 9.929688-.941407 3.988281-4.507813 6.804687-8.605469 6.796875zm0 0"/><path d="m385.652344 88.277344c-1.371094-.003906-2.722656-.320313-3.949219-.929688l-17.652344-8.828125c-4.363281-2.179687-6.132812-7.484375-3.953125-11.847656 2.183594-4.363281 7.488282-6.132813 11.851563-3.953125l17.65625 8.828125c3.667969 1.828125 5.597656 5.941406 4.652343 9.933594-.941406 3.988281-4.507812 6.804687-8.605468 6.796875zm0 0"/></g></svg>