<svg height="510pt" viewBox="0 -87 510.23485 510" width="510pt" xmlns="http://www.w3.org/2000/svg"><path d="m157.132812.117188h344.273438c4.875 0 8.828125 3.953124 8.828125 8.828124v26.484376c0 4.875-3.953125 8.824218-8.828125 8.824218h-344.273438c-4.875 0-8.828124-3.949218-8.828124-8.824218v-26.484376c0-4.875 3.953124-8.828124 8.828124-8.828124zm0 0" fill="#fb7b76"/><path d="m227.753906 97.222656h273.652344c4.875 0 8.828125 3.949219 8.828125 8.824219v26.484375c0 4.875-3.953125 8.828125-8.828125 8.828125h-273.652344c-4.878906 0-8.828125-3.953125-8.828125-8.828125v-26.484375c0-4.875 3.949219-8.824219 8.828125-8.824219zm0 0" fill="#c03a2b"/><path d="m227.753906 194.324219h273.652344c4.875 0 8.828125 3.953125 8.828125 8.828125v26.480468c0 4.878907-3.953125 8.828126-8.828125 8.828126h-273.652344c-4.878906 0-8.828125-3.949219-8.828125-8.828126v-26.480468c0-4.875 3.949219-8.828125 8.828125-8.828125zm0 0" fill="#c03a2b"/><path d="m157.132812 291.429688h344.273438c4.875 0 8.828125 3.949218 8.828125 8.824218v26.484375c0 4.875-3.953125 8.828125-8.828125 8.828125h-344.273438c-4.875 0-8.828124-3.953125-8.828124-8.828125v-26.484375c0-4.875 3.953124-8.824218 8.828124-8.824218zm0 0" fill="#fb7b76"/><path d="m165.957031 106.046875v61.792969h-165.957031c0-1.746094.554688-3.445313 1.589844-4.851563l77.683594-112.996093c2.203124-3.15625 6.199218-4.523438 9.875-3.371094 3.675781 1.152344 6.179687 4.550781 6.191406 8.402344v33.371093c0 4.875 3.949218 8.828125 8.824218 8.828125h52.96875c4.875 0 8.824219 3.949219 8.824219 8.824219zm0 0" fill="#9fc9d3"/><path d="m165.957031 167.839844v70.621094c0 4.875-3.949219 8.828124-8.824219 8.828124h-52.96875c-4.875 0-8.824218 3.953126-8.824218 8.828126v31.867187c.027344 3.925781-2.539063 7.398437-6.300782 8.523437-3.761718 1.125-7.8125-.371093-9.945312-3.667968l-77.679688-120.054688c-.933593-1.480468-1.4257808-3.195312-1.414062-4.945312zm0 0" fill="#4482c3"/></svg>