<svg height="498pt" viewBox="0 -4 498.26278 498" width="498pt" xmlns="http://www.w3.org/2000/svg"><path d="m43.390625.132812h347.117187c23.964844 0 43.390626 19.425782 43.390626 43.386719v69.425781h-433.898438v-69.425781c0-23.960937 19.425781-43.386719 43.390625-43.386719zm0 0" fill="#2980ba"/><path d="m213.824219 421.011719h-170.433594c-11.507813 0-22.542969-4.570313-30.683594-12.707031-8.136719-8.136719-12.707031-19.175782-12.707031-30.683594v-277.691406h433.898438v99.449218zm0 0" fill="#90bae1"/><path d="m89.324219 43.519531c0 11.984375-9.714844 21.695313-21.695313 21.695313-11.984375 0-21.695312-9.710938-21.695312-21.695313 0-11.980469 9.710937-21.691406 21.695312-21.691406 11.980469 0 21.695313 9.710937 21.695313 21.691406zm0 0" fill="#f0c419"/><path d="m498.261719 329.355469c0 88.960937-72.117188 161.082031-161.078125 161.082031-88.964844 0-161.082032-72.121094-161.082032-161.082031 0-88.960938 72.117188-161.078125 161.082032-161.078125 88.960937 0 161.078125 72.117187 161.078125 161.078125zm0 0" fill="#3d324c"/><g fill="#b49aca"><path d="m367.015625 455.726562c-4.792969 0-8.675781-3.886718-8.675781-8.679687v-216.949219c0-4.792968 3.882812-8.679687 8.675781-8.679687s8.679687 3.886719 8.679687 8.679687v216.949219c0 4.792969-3.886718 8.679687-8.679687 8.679687zm0 0"/><path d="m332.304688 455.726562c-4.792969 0-8.675782-3.886718-8.675782-8.679687v-216.949219c0-4.792968 3.882813-8.679687 8.675782-8.679687 4.792968 0 8.679687 3.886719 8.679687 8.679687v216.949219c0 4.792969-3.886719 8.679687-8.679687 8.679687zm0 0"/><path d="m332.304688 221.417969v118.976562c-5.628907 1.683594-11.476563 2.53125-17.355469 2.515625-33.546875 0-60.746094-27.195312-60.746094-60.746094 0-33.546874 27.199219-60.746093 60.746094-60.746093zm0 0"/><path d="m393.050781 238.777344h-60.746093c-4.792969 0-8.675782-3.886719-8.675782-8.679688 0-4.792968 3.882813-8.679687 8.675782-8.679687h60.746093c4.792969 0 8.679688 3.886719 8.679688 8.679687 0 4.792969-3.886719 8.679688-8.679688 8.679688zm0 0"/></g><path d="m54.609375 143.316406h-26.03125c-4.792969 0-8.679687-3.882812-8.679687-8.675781s3.886718-8.679687 8.679687-8.679687h26.03125c4.792969 0 8.679687 3.886718 8.679687 8.679687s-3.886718 8.675781-8.679687 8.675781zm0 0" fill="#b0d3f0"/><path d="m210.8125 143.316406h-121.488281c-4.792969 0-8.679688-3.882812-8.679688-8.675781s3.886719-8.679687 8.679688-8.679687h121.488281c4.792969 0 8.679688 3.886718 8.679688 8.679687s-3.886719 8.675781-8.679688 8.675781zm0 0" fill="#b0d3f0"/></svg>