<svg height="512pt" viewBox="0 -4 512 511" width="512pt" xmlns="http://www.w3.org/2000/svg"><path d="m467.863281 212.363281c0 117.007813-94.855469 211.859375-211.863281 211.859375s-211.863281-94.851562-211.863281-211.859375c0-117.007812 94.855469-211.863281 211.863281-211.863281s211.863281 94.855469 211.863281 211.863281zm0 0" fill="#2fa8cc"/><path d="m335.449219 353.601562h-6.886719c-19.894531.023438-38.972656 7.925782-53.054688 21.984376-6.398437 6.410156-11.597656 13.914062-15.359374 22.15625h-8.386719c-12.113281-26.867188-38.851563-44.140626-68.324219-44.140626h-59.851562c4.210937-3.722656 8.191406-7.703124 11.917968-11.914062 6.796875-8.652344 7.148438-17.304688-2.207031-23.925781-8-4.367188-15.386719-9.769531-21.980469-16.066407-14.917968-17.652343-17.832031-40.515624-24.894531-61.792968-3.53125-10.769532-6.089844-21.449219-16.152344-28.070313-4.855469-3.355469-10.417969-5.648437-15.183593-9.09375-4.976563-3.222656-8.445313-8.3125-9.625-14.121093v-.179688c8.625-75.660156 57.1875-140.871094 127.207031-170.8125 16.152343 5.914062 33.632812 7.503906 49.789062 13.417969 4.617188 1.417969 8.828125 3.933593 12.269531 7.328125 4.625 5.207031 5.984376 12.546875 3.53125 19.066406-3.109374 6.4375-8.484374 11.5-15.097656 14.210938-10.152344 5.035156-20.214844 10.773437-30.628906 15.273437-8.964844 2.605469-16.738281 8.257813-21.980469 15.976563-5.03125 8.492187-4.109375 19.242187 2.292969 26.75 5.921875 5.03125 13.628906 7.449218 21.363281 6.707031 11.210938-.175781 22.15625-.175781 33.457031.355469 20.519532.269531 40.957032 2.636718 60.996094 7.0625 6.324219 1.070312 12.089844 4.28125 16.332032 9.089843 3.078124 4.566407 3.921874 10.277344 2.296874 15.539063-3.089843 10.0625-12.183593 13.0625-20.746093 16.59375-12.886719 5.296875-25.863281 10.242187-38.488281 16.15625-11.109376 5.730468-21.410157 12.917968-30.632813 21.363281-6.183594 5.925781-13.390625 10.683594-21.273437 14.035156-9.03125 2.089844-18.273438 3.128907-27.542969 3.089844-11.386719 1.324219-28.335938.085937-34.335938 12.179687-2.628906 5.824219-3.128906 12.386719-1.414062 18.539063 4.289062 13.429687 15.03125 23.808594 28.601562 27.628906 6.707031 2.5625 13.59375 4.238281 20.304688 6.535157 8.5625 2.734374 16.417969 6.53125 24.714843 10.0625 7.679688 4.144531 17.003907 3.808593 24.363282-.882813 6.886718-4.855469 11.742187-12.445313 19.511718-15.976563 9.539063-3.054687 19.878907-2.394531 28.953126 1.851563 14 3.390625 26.984374 10.082031 37.871093 19.507813 7.890625 10.460937 14.058594 22.113281 18.273438 34.515624zm0 0" fill="#71c285"/><path d="m467.863281 212.363281c.070313 52.140625-19.175781 102.457031-54.027343 141.238281h-29.128907c-48.640625-77.679687 14.386719-124.820312 39.015625-141.238281 2.726563-1.820312 5.660156-3.300781 8.742188-4.414062 11.371094-3.636719 23.460937-4.453125 35.21875-2.382813.179687 2.207032.179687 4.5.179687 6.796875zm0 0" fill="#71c285"/><path d="m381.441406 96.984375c-2.34375 0-4.585937-.929687-6.242187-2.585937-6.8125-6.855469-14.207031-13.113282-22.097657-18.695313-2.578124-1.8125-3.996093-4.867187-3.71875-8.007813.28125-3.144531 2.214844-5.898437 5.078126-7.226562 2.859374-1.328125 6.210937-1.03125 8.792968.78125 8.734375 6.175781 16.921875 13.089844 24.472656 20.667969 2.523438 2.523437 3.277344 6.320312 1.910157 9.617187-1.363281 3.300782-4.582031 5.449219-8.152344 5.449219zm0 0" fill="#67b9cc"/><path d="m427.6875 180.316406c-4.085938-.003906-7.636719-2.8125-8.582031-6.785156-4.679688-19.925781-13.0625-38.789062-24.714844-55.617188-2.777344-4.007812-1.777344-9.503906 2.226563-12.28125 4.007812-2.777343 9.507812-1.777343 12.285156 2.226563 12.898437 18.640625 22.183594 39.539063 27.367187 61.609375 1.101563 4.730469-1.824219 9.464844-6.550781 10.59375-.664062.160156-1.347656.246094-2.03125.253906zm0 0" fill="#67b9cc"/><path d="m251.851562 459.535156c-3.761718 8.242188-8.960937 15.746094-15.359374 22.15625-14.0625 14.089844-33.152344 21.996094-53.054688 21.980469h-108.402344c-41.441406 0-75.035156-33.59375-75.035156-75.035156 0-41.4375 33.59375-75.035157 75.035156-75.035157h108.402344c29.472656 0 56.210938 17.273438 68.324219 44.140626l-83.507813 8.828124h-93.21875c-12.1875 0-22.070312 9.878907-22.070312 22.066407 0 12.191406 9.882812 22.070312 22.070312 22.070312h93.21875zm0 0" fill="#41767f"/><path d="m317.703125 88.421875c.367187 5.863281-2.648437 11.417969-7.765625 14.300781-11.125 5.914063-24.894531-5.824218-32.488281-12.886718-2.65625-2.15625-4.722657-4.949219-6-8.121094-1.289063-4.242188-.8125-8.828125 1.324219-12.710938 1.316406-2.695312 3.042968-5.167968 5.117187-7.328125 4.515625-5.28125 11.808594-7.246093 18.363281-4.945312 3.078125 1.8125 5.65625 4.359375 7.503906 7.417969 2.382813 3.441406 4.855469 6.796874 7.238282 10.238281 3.460937 3.988281 5.78125 8.835937 6.707031 14.035156zm0 0" fill="#71c285"/><path d="m185.378906 353.601562h-114.757812c-39.003906 0-70.621094 31.621094-70.621094 70.621094v8.828125c0 39.003907 31.617188 70.621094 70.621094 70.621094h114.757812c39.003906 0 70.621094-31.617187 70.621094-70.621094v-8.828125c0-39-31.617188-70.621094-70.621094-70.621094zm-4.414062 97.105469h-105.929688c-12.1875 0-22.070312-9.878906-22.070312-22.070312 0-12.1875 9.882812-22.066407 22.070312-22.066407h105.929688c12.1875 0 22.070312 9.878907 22.070312 22.066407 0 12.191406-9.882812 22.070312-22.070312 22.070312zm0 0" fill="#325c60"/><path d="m185.378906 371.257812h-114.757812c-29.253906 0-52.964844 23.714844-52.964844 52.964844v8.828125c0 29.253907 23.710938 52.964844 52.964844 52.964844h114.757812c29.253906 0 52.964844-23.710937 52.964844-52.964844v-8.828125c0-29.25-23.710938-52.964844-52.964844-52.964844zm-4.414062 79.449219h-105.929688c-12.1875 0-22.070312-9.878906-22.070312-22.070312 0-12.1875 9.882812-22.066407 22.070312-22.066407h105.929688c12.1875 0 22.070312 9.878907 22.070312 22.066407 0 12.191406-9.882812 22.070312-22.070312 22.070312zm0 0" fill="#41767f"/><path d="m441.378906 353.601562h-114.757812c-39.003906 0-70.621094 31.621094-70.621094 70.621094v8.828125c0 39.003907 31.617188 70.621094 70.621094 70.621094h114.757812c39.003906 0 70.621094-31.617187 70.621094-70.621094v-8.828125c0-39-31.617188-70.621094-70.621094-70.621094zm-4.414062 97.105469h-105.929688c-12.1875 0-22.070312-9.878906-22.070312-22.070312 0-12.1875 9.882812-22.066407 22.070312-22.066407h105.929688c12.1875 0 22.070312 9.878907 22.070312 22.066407 0 12.191406-9.882812 22.070312-22.070312 22.070312zm0 0" fill="#325c60"/><path d="m441.378906 371.257812h-114.757812c-29.253906 0-52.964844 23.714844-52.964844 52.964844v8.828125c0 29.253907 23.710938 52.964844 52.964844 52.964844h114.757812c29.253906 0 52.964844-23.710937 52.964844-52.964844v-8.828125c0-29.25-23.710938-52.964844-52.964844-52.964844zm-4.414062 79.449219h-105.929688c-12.1875 0-22.070312-9.878906-22.070312-22.070312 0-12.1875 9.882812-22.066407 22.070312-22.066407h105.929688c12.1875 0 22.070312 9.878907 22.070312 22.066407 0 12.191406-9.882812 22.070312-22.070312 22.070312zm0 0" fill="#41767f"/><path d="m180.964844 397.742188h-105.929688c-17.03125.082031-30.816406 13.867187-30.898437 30.894531 0 17.066406 13.835937 30.898437 30.898437 30.898437h105.929688c17.03125-.082031 30.816406-13.867187 30.898437-30.898437 0-8.191407-3.257812-16.050781-9.050781-21.847657-5.792969-5.792968-13.652344-9.046874-21.847656-9.046874zm0 52.964843h-105.929688c-12.1875 0-22.070312-9.878906-22.070312-22.070312 0-12.1875 9.882812-22.066407 22.070312-22.066407h105.929688c12.1875 0 22.070312 9.878907 22.070312 22.066407 0 12.191406-9.882812 22.070312-22.070312 22.070312zm0 0" fill="#31595f"/><path d="m353.101562 428.636719c.019532 8.195312-3.257812 16.050781-9.089843 21.804687l-.265625.265625c-5.734375 5.667969-13.476563 8.839844-21.539063 8.828125h-132.414062c-12.5.023438-23.777344-7.496094-28.554688-19.046875-4.78125-11.550781-2.113281-24.839843 6.75-33.65625l.265625-.261719c5.734375-5.667968 13.476563-8.839843 21.539063-8.828124h132.414062c17.03125.078124 30.820313 13.863281 30.894531 30.894531zm0 0" fill="#2c3e50"/><path d="m326.621094 428.636719c.140625 7.78125-2.175782 15.410156-6.613282 21.804687l-.191406.265625c-3.5 5.289063-9.328125 8.574219-15.660156 8.828125h-96.3125c-6.332031-.253906-12.160156-3.539062-15.660156-8.828125-4.585938-6.429687-6.972656-14.171875-6.804688-22.070312-.140625-7.78125 2.175782-15.410157 6.613282-21.804688l.191406-.261719c3.5-5.289062 9.328125-8.574218 15.660156-8.828124h96.3125c6.332031.253906 12.160156 3.539062 15.660156 8.828124 4.585938 6.429688 6.972656 14.171876 6.804688 22.066407zm0 0" fill="#35495e"/></svg>