<svg height="512pt" viewBox="0 0 512.00001 512" width="512pt" xmlns="http://www.w3.org/2000/svg"><path d="m308.964844 467.859375 14.035156 14.039063c5.03125 5.058593 6.519531 12.644531 3.777344 19.230468-2.742188 6.585938-9.175782 10.875-16.3125 10.871094h-292.808594c-9.738281-.03125-17.6289062-7.917969-17.65625-17.65625v-292.8125c-.00390625-7.132812 4.28125-13.570312 10.867188-16.3125 6.585937-2.742188 14.175781-1.25 19.234374 3.777344l199.414063 199.417968" fill="#d75e72"/><path d="m391.769531 185.378906c3.625-12.929687 5.464844-26.296875 5.472657-39.726562-.003907-77.570313-60.804688-141.53125-138.277344-145.460938-77.472656-3.929687-144.433594 53.546875-152.285156 130.722656-7.851563 77.175782 46.160156 146.964844 122.835937 158.71875" fill="#2fa8cc"/><path d="m247.171875 185.378906h247.171875c9.75 0 17.65625 7.902344 17.65625 17.652344v247.175781c0 9.75-7.90625 17.652344-17.65625 17.652344h-247.171875c-9.75 0-17.65625-7.902344-17.65625-17.652344v-247.175781c0-9.75 7.90625-17.652344 17.65625-17.652344zm0 0" fill="#f3d55b"/><path d="m282.484375 229.515625h-17.65625c-4.875 0-8.828125-3.953125-8.828125-8.828125s3.953125-8.828125 8.828125-8.828125h17.65625c4.875 0 8.824219 3.953125 8.824219 8.828125s-3.949219 8.828125-8.824219 8.828125zm0 0" fill="#f29c1f"/><path d="m397.242188 229.515625h-79.449219c-4.875 0-8.828125-3.953125-8.828125-8.828125s3.953125-8.828125 8.828125-8.828125h79.449219c4.875 0 8.828124 3.953125 8.828124 8.828125s-3.953124 8.828125-8.828124 8.828125zm0 0" fill="#f29c1f"/><path d="m35.308594 273.652344c-4.875 0-8.824219-3.949219-8.824219-8.824219v-17.65625c0-4.875 3.949219-8.828125 8.824219-8.828125 4.878906 0 8.828125 3.953125 8.828125 8.828125v17.65625c0 4.875-3.949219 8.824219-8.828125 8.824219zm0 0" fill="#cc4b4c"/><path d="m35.308594 388.414062c-4.875 0-8.824219-3.953124-8.824219-8.828124v-79.449219c0-4.875 3.949219-8.828125 8.824219-8.828125 4.878906 0 8.828125 3.953125 8.828125 8.828125v79.449219c0 4.875-3.949219 8.828124-8.828125 8.828124zm0 0" fill="#cc4b4c"/><path d="m141.242188 141.238281c-.492188.003907-.980469-.039062-1.464844-.121093-4.804688-.804688-8.046875-5.347657-7.25-10.152344 6.578125-35.117188 27.214844-66.027344 57.125-85.566406 4.167968-2.441407 9.527344-1.078126 12.023437 3.0625 2.492188 4.140624 1.195313 9.515624-2.914062 12.058593-25.351563 17.011719-42.914063 43.390625-48.824219 73.339844-.707031 4.253906-4.382812 7.375-8.695312 7.378906zm0 0" fill="#9fc9d3"/></svg>