<svg height="512pt" viewBox="0 0 512 512" width="512pt" xmlns="http://www.w3.org/2000/svg"><path d="m459.035156 229.035156v211.863282c0 9.75-7.90625 17.65625-17.65625 17.65625h-370.757812c-9.75 0-17.65625-7.90625-17.65625-17.65625v-211.863282c0-9.75-7.902344-17.652344-17.65625-17.652344h-17.652344c-9.75 0-17.65625 7.902344-17.65625 17.652344v264.828125c0 9.75 7.90625 17.65625 17.65625 17.65625h476.6875c9.75 0 17.65625-7.90625 17.65625-17.65625v-264.828125c0-9.75-7.90625-17.652344-17.65625-17.652344h-17.652344c-9.753906 0-17.65625 7.902344-17.65625 17.652344zm0 0" fill="#2c3e50"/><path d="m105.929688 211.382812h52.96875c9.75 0 17.652343 7.902344 17.652343 17.652344v52.96875c0 9.75-7.902343 17.652344-17.652343 17.652344h-52.96875c-9.75 0-17.652344-7.902344-17.652344-17.652344v-52.96875c0-9.75 7.902344-17.652344 17.652344-17.652344zm0 0" fill="#fb7b76"/><path d="m105.929688 334.96875h52.96875c9.75 0 17.652343 7.902344 17.652343 17.652344v52.96875c0 9.75-7.902343 17.652344-17.652343 17.652344h-52.96875c-9.75 0-17.652344-7.902344-17.652344-17.652344v-52.96875c0-9.75 7.902344-17.652344 17.652344-17.652344zm0 0" fill="#ff5364"/><path d="m229.515625 334.96875h52.96875c9.75 0 17.652344 7.902344 17.652344 17.652344v52.96875c0 9.75-7.902344 17.652344-17.652344 17.652344h-52.96875c-9.75 0-17.652344-7.902344-17.652344-17.652344v-52.96875c0-9.75 7.902344-17.652344 17.652344-17.652344zm0 0" fill="#fb7b76"/><path d="m353.101562 211.382812h52.96875c9.75 0 17.652344 7.902344 17.652344 17.652344v52.96875c0 9.75-7.902344 17.652344-17.652344 17.652344h-52.96875c-9.75 0-17.652343-7.902344-17.652343-17.652344v-52.96875c0-9.75 7.902343-17.652344 17.652343-17.652344zm0 0" fill="#fb7b76"/><path d="m353.101562 334.96875h52.96875c9.75 0 17.652344 7.902344 17.652344 17.652344v52.96875c0 9.75-7.902344 17.652344-17.652344 17.652344h-52.96875c-9.75 0-17.652343-7.902344-17.652343-17.652344v-52.96875c0-9.75 7.902343-17.652344 17.652343-17.652344zm0 0" fill="#ff5364"/><path d="m195.796875 59.722656 30.101563-30.101562c5.058593-5.027344 12.648437-6.519532 19.234374-3.777344 6.585938 2.742188 10.871094 9.179688 10.867188 16.3125v116.261719c-.027344 9.738281-7.917969 17.625-17.65625 17.652343h-116.257812c-7.132813.007813-13.570313-4.28125-16.3125-10.867187-2.742188-6.585937-1.253907-14.175781 3.777343-19.234375l30.101563-30.101562" fill="#f29c1f"/><path d="m139.652344 115.867188-54.554688-54.554688c-6.890625-6.894531-6.890625-18.070312 0-24.964844l31.179688-31.179687c6.894531-6.890625 18.070312-6.890625 24.964844 0l54.554687 54.554687" fill="#f29c1f"/><path d="m211.863281 149.589844h-17.65625c-4.875 0-8.828125-3.953125-8.828125-8.828125s3.953125-8.828125 8.828125-8.828125h17.65625v-17.65625c0-4.875 3.949219-8.828125 8.828125-8.828125 4.875 0 8.824219 3.953125 8.824219 8.828125v17.65625c0 9.75-7.902344 17.65625-17.652344 17.65625zm0 0" fill="#fac176"/></svg>