<?xml version="1.0" encoding="iso-8859-1"?>
<!-- Generator: Adobe Illustrator 19.0.0, SVG Export Plug-In . SVG Version: 6.00 Build 0)  -->
<svg version="1.1" id="Capa_1" xmlns="http://www.w3.org/2000/svg" xmlns:xlink="http://www.w3.org/1999/xlink" x="0px" y="0px"
	 viewBox="0 0 511.999 511.999" style="enable-background:new 0 0 511.999 511.999;" xml:space="preserve">
<path style="fill:#A4D9F4;" d="M400.2,279.718c-6.441-57.384-42.843-106.841-94.62-130.559l8.752-3.924
	c3.894-1.747,5.635-6.318,3.889-10.212c-1.746-3.894-6.318-5.635-10.212-3.889L283.1,142.303c-2.241,0.754-4.111,2.513-4.897,4.935
	c-0.118,0.364-0.198,0.731-0.26,1.097c-0.002,0.014-0.004,0.027-0.007,0.041c-0.035,0.211-0.062,0.421-0.079,0.631
	c-0.007,0.079-0.01,0.158-0.015,0.237c-0.007,0.147-0.013,0.293-0.012,0.439c0,0.154,0.008,0.307,0.017,0.461
	c0.005,0.071,0.008,0.143,0.015,0.214c0.074,0.833,0.278,1.668,0.64,2.475l11.486,25.617c1.286,2.867,4.104,4.568,7.055,4.568
	c1.056,0,2.13-0.218,3.157-0.678c3.894-1.747,5.635-6.318,3.89-10.212l-3.745-8.352c46.254,21.69,78.715,66.147,84.498,117.668
	c0.477,4.252,4.317,7.296,8.54,6.816C397.624,287.783,400.676,283.959,400.2,279.718z"/>
<path style="fill:#FFB70D;" d="M191.827,440.962l-10.642-23.735c-1.746-3.894-6.319-5.633-10.212-3.89
	c-3.894,1.747-5.635,6.318-3.89,10.212l3.175,7.082c-38.127-19.26-66.266-54.039-76.851-96.092
	c-1.042-4.138-5.242-6.646-9.379-5.607c-4.139,1.042-6.649,5.241-5.607,9.38c11.617,46.154,43.378,86.212,88.233,107.73l-9.812,4.4
	c-7.557,3.39-5.149,14.779,3.166,14.779c2.901,0,2.24-0.52,28.774-12.165c2.937-1.318,4.647-4.243,4.562-7.273
	C193.394,444.036,192.846,442.339,191.827,440.962z"/>
<path style="fill:#70B5E8;" d="M263.148,386.219c3.776-0.855,6.703-3.793,7.584-7.563c8.459-36.193,40.93-63.151,79.701-63.151
	c34.487,0,63.99,21.33,76.042,51.516c0.78,1.953,2.889,1.899,2.786,1.867c28.003,0,51.132,20.867,54.686,47.9
	c0.51,3.878,3.253,7.119,7.052,8.049c12.28,3.006,21.333,14.234,20.991,27.518c-0.388,15.049-13.137,26.852-28.191,26.852H274.397
	c-25.906,0-47.563-20.587-47.88-46.492C226.239,410.043,241.99,391.012,263.148,386.219z"/>
<path style="fill:#52A5D8;" d="M294.448,400.642c3.776-0.855,6.703-3.793,7.584-7.563c10.093-43.186,53.268-71.024,97.526-61.191
	c-46.66-35.072-115.271-11.232-128.826,46.768c-0.881,3.77-3.808,6.708-7.584,7.563c-21.157,4.793-36.909,23.824-36.631,46.495
	c0.304,24.816,20.196,44.74,44.643,46.37C245.416,452.733,258.935,408.687,294.448,400.642z"/>
<g>
	<path style="fill:#F9F9F9;" d="M321.841,439.694l-19.068-19.068c-3.018-3.018-3.018-7.91,0-10.928l19.068-19.068
		c3.017-3.016,7.91-3.016,10.927,0c3.018,3.018,3.018,7.91,0,10.928l-13.605,13.604l13.605,13.604c3.018,3.018,3.018,7.91,0,10.928
		C329.749,442.711,324.858,442.71,321.841,439.694z"/>
	<path style="fill:#F9F9F9;" d="M385.559,439.694c-3.018-3.018-3.018-7.91,0-10.928l13.605-13.604l-13.605-13.604
		c-3.018-3.018-3.018-7.91,0-10.928c3.017-3.016,7.91-3.016,10.927,0l19.068,19.068c3.018,3.018,3.018,7.91,0,10.928l-19.068,19.068
		C393.467,442.711,388.576,442.71,385.559,439.694z"/>
	<path style="fill:#F9F9F9;" d="M344.978,453.545c-4.01-1.46-6.078-5.894-4.619-9.904l21.416-58.841
		c1.46-4.009,5.892-6.075,9.903-4.618c4.01,1.46,6.078,5.894,4.618,9.904l-21.416,58.841
		C353.431,452.91,349.016,455.013,344.978,453.545z"/>
</g>
<path style="fill:#444443;" d="M0.005,198.013v61.732c0,21.173,56.638,38.336,126.504,38.336
	c69.867,0,126.504-17.164,126.504-38.336v-61.732L0.005,198.013L0.005,198.013z"/>
<path style="fill:#353533;" d="M31.465,273.059v-75.046H0.005v61.732c0,10.865,14.92,20.674,38.885,27.65
	C34.076,282.879,31.465,278.062,31.465,273.059z"/>
<path style="fill:#535454;" d="M0.005,135.3v61.732c0,21.172,56.638,38.336,126.504,38.336c69.867,0,126.504-17.164,126.504-38.336
	V135.3H0.005z"/>
<path style="fill:#444443;" d="M31.465,135.3H0.005v61.732c0,9.694,11.879,18.546,31.459,25.297V135.3H31.465z"/>
<path style="fill:#666666;" d="M0.005,71.134v61.732c0,21.172,56.638,38.336,126.504,38.336c69.867,0,126.504-17.164,126.504-38.336
	V71.134H0.005z"/>
<path style="fill:#535454;" d="M31.465,71.134H0.005v61.732c0,9.694,11.879,18.546,31.459,25.297V71.134H31.465z"/>
<ellipse style="fill:#898989;" cx="126.51" cy="71.132" rx="126.5" ry="38.34"/>
<path style="fill:#7E7F7F;" d="M125.35,32.803C17.155,33.098-39.498,71.984,31.496,96.442C40.021,61.64,82.571,34.828,134.707,32.91
	C131.619,32.839,128.496,32.806,125.35,32.803z"/>
<g>
</g>
<g>
</g>
<g>
</g>
<g>
</g>
<g>
</g>
<g>
</g>
<g>
</g>
<g>
</g>
<g>
</g>
<g>
</g>
<g>
</g>
<g>
</g>
<g>
</g>
<g>
</g>
<g>
</g>
</svg>
