<?xml version="1.0" encoding="iso-8859-1"?>
<!-- Generator: Adobe Illustrator 19.0.0, SVG Export Plug-In . SVG Version: 6.00 Build 0)  -->
<svg version="1.1" id="Capa_1" xmlns="http://www.w3.org/2000/svg" xmlns:xlink="http://www.w3.org/1999/xlink" x="0px" y="0px"
	 viewBox="0 0 512 512" style="enable-background:new 0 0 512 512;" xml:space="preserve">
<path style="fill:#EFEFEF;" d="M9.712,431.135c-5.364,0-9.712,4.368-9.712,9.756l0,0l0,0l0,0c0,25.944,20.937,46.976,46.764,46.976
	h417.958c25.827,0,46.764-21.032,46.764-46.976l0,0l0,0l0,0c0-5.388-4.348-9.756-9.712-9.756H9.712z"/>
<path style="fill:#DDDDDD;" d="M65.87,440.892c0-5.388,4.348-9.756,9.712-9.756H9.712c-5.364,0-9.712,4.368-9.712,9.756
	c0,25.944,20.937,46.976,46.764,46.976h65.869C86.806,487.868,65.87,466.836,65.87,440.892z"/>
<path style="fill:#CCCCCC;" d="M160.712,431.135v15.959c0,6.824,5.558,12.407,12.351,12.407h165.36
	c6.793,0,12.351-5.583,12.351-12.407v-15.959H160.712z"/>
<path style="fill:#BCBBB8;" d="M191.3,447.095v-15.959h-30.587v15.959c0,6.824,5.558,12.407,12.351,12.407h30.587
	C196.857,459.501,191.3,453.919,191.3,447.095z"/>
<path style="fill:#EFEFEF;" d="M455.66,103.285H350.773c-13.476,0-273.648,0-295.977,0c-14.891,0-27.008,12.116-27.008,27.007
	v273.912c0,14.892,12.116,27.008,27.008,27.008c19.352,0,382.962,0,400.863,0c14.891,0,27.008-12.116,27.008-27.008V130.292
	C482.668,115.401,470.551,103.285,455.66,103.285z"/>
<path style="fill:#DDDDDD;" d="M55.847,404.204V130.292c0-14.892,12.116-27.007,27.008-27.007H54.796
	c-14.891,0-27.008,12.116-27.008,27.007v273.912c0,14.892,12.116,27.008,27.008,27.008h28.058
	C67.963,431.212,55.847,419.096,55.847,404.204z"/>
<path style="fill:#70B5E8;" d="M454.609,396.014c0,3.943-3.197,7.14-7.14,7.14c-16.965,0-397.724,0-384.483,0
	c-3.943,0-7.14-3.197-7.14-7.14V138.483c0-3.943,3.197-7.14,7.14-7.14c7.632,0,284.824,0,287.787,0h96.696
	c3.943,0,7.14,3.197,7.14,7.14V396.014z"/>
<path style="fill:#52A5D8;" d="M86.949,396.014V138.483c0-3.943,3.196-7.14,7.14-7.14H62.986c-3.943,0-7.14,3.197-7.14,7.14v257.531
	c0,3.943,3.196,7.14,7.14,7.14h31.102C90.145,403.154,86.949,399.958,86.949,396.014z"/>
<path style="fill:#666666;" d="M447.47,131.343h-96.696c-2.961,0-280.154,0-287.787,0c-3.943,0-7.14,3.197-7.14,7.14v54.172H454.61
	v-54.172C454.609,134.54,451.413,131.343,447.47,131.343z"/>
<path style="fill:#535454;" d="M55.847,138.483v54.172h31.102v-54.172c0-3.943,3.196-7.14,7.14-7.14
	c-31.565,0.394-31.938-0.914-35.094,1.219C57.095,133.846,55.847,136.018,55.847,138.483z"/>
<path style="fill:#F94A46;" d="M87.718,169.522c-0.983-0.416-1.816-0.983-2.501-1.667c-2.524-2.524-3.069-6.546-0.957-9.746
	c2.925-4.442,9.617-4.71,12.834,0c3.075,4.66,0.371,10.858-4.909,11.846C91.681,170.056,89.235,170.16,87.718,169.522z"/>
<path style="fill:#FFB70D;" d="M112.821,159.435c1.702-4.024,6.23-5.756,10.086-4.168c6.943,2.787,6.082,13.278-1.451,14.687
	C115.715,171.145,110.453,165.491,112.821,159.435z"/>
<path style="fill:#92B620;" d="M144.942,168.811c-1.659-1.09-2.852-2.843-3.283-4.909c-1.151-6.155,4.872-10.965,10.529-8.636
	c3.837,1.54,5.844,6.114,4.168,10.076c-1.103,2.615-3.336,4.184-5.619,4.611C150.243,170.056,146.721,169.984,144.942,168.811z"/>
<path style="fill:#7E7F7F;" d="M302.489,162.393c0-4.264-3.456-7.719-7.719-7.719H185.196c-4.263,0-7.719,3.455-7.719,7.719
	s3.456,7.719,7.719,7.719H294.77C299.033,170.112,302.489,166.656,302.489,162.393z"/>
<g>
	<path style="fill:#F9F9F9;" d="M163.712,326.861c0,4.199-3.555,7.973-7.856,7.973c-2.267,0-4.162-0.801-5.687-2.404
		c-3.212-3.375-2.914-8.205,0-11.198C155.072,316.207,163.712,319.779,163.712,326.861z"/>
	<path style="fill:#F9F9F9;" d="M196.425,335.186c-15.646,0-25.444-8.205-25.444-24.037c0.224-7.299-0.714-12.291,1.466-18.819
		c7.262-21.805,42.621-15.547,42.621-5.453c0,3.278-2.697,7.387-5.98,7.387c-1.898,0-2.485-1.32-7.269-2.756
		c-3.477-1.043-10.056-0.801-13.016,2.287c-3.991,4.162-2.288,10.309-2.697,17.354c0,7.523,4.042,10.787,11.491,10.787
		c6.862,0,8.88-3.517,11.725-3.517c3.744,0,6.449,3.596,6.449,7.152c0,4.49-6.909,7.704-11.667,8.793
		C201.719,334.911,199.16,335.186,196.425,335.186z"/>
	<path style="fill:#F9F9F9;" d="M272.051,301.535c-0.334,7.68,2.085,17.099-7.622,26.323c-17.279,16.412-43.266,2.744-43.266-16.709
		c0.314-7.446-2.049-17.255,7.446-26.265C245.395,268.956,272.051,281.671,272.051,301.535z M256.105,297.665
		c-3.946-9.001-15.151-8.798-18.994,0c-1.331,3.039-0.622,4.58-0.821,13.484c0,5.939,5.133,10.787,10.318,10.787
		c5.192,0,10.318-4.862,10.318-10.787C256.926,311.149,257.439,300.725,256.105,297.665z"/>
	<path style="fill:#F9F9F9;" d="M312.62,293.795c-3.647-3.499-8.845-3.978-12.957-0.117c-4.689,4.401-2.153,10.158-2.873,35.644
		c0,3.87-8.472,6.707-13.074,3.283c-1.368-1.015-2.051-2.111-2.051-3.283c0.679-48.44-1.556-47.326,2.051-49.598
		c2.31-1.452,7.078-1.98,10.142,0c2.937,1.904,1.705,4.286,1.994,6.918c6.917-11.807,24.492-13.045,30.134,2.814
		c10.341-20.298,38.575-12.963,38.575,12.077v27.789c0,2.907-4.518,4.807-7.621,4.807c-3.426,0-7.504-2.061-7.504-4.807v-27.789
		c0-14.036-18.761-14.322-18.761-0.118v28.023c0,6.242-15.126,6.283-15.126,0C314.811,303.888,317.43,298.418,312.62,293.795z"/>
</g>
<rect x="349.17" y="78.38" style="fill:#70B5E8;" width="145.58" height="107.3"/>
<rect x="349.17" y="78.38" style="fill:#52A5D8;" width="29.11" height="107.3"/>
<path style="fill:#CCCCCC;" d="M388.404,125.947c10.444,0,56.55,0,67.1,0c5.591,0,10.123,4.532,10.123,10.123v42.565
	c-14.214,0-77.504,0-87.346,0V136.07C378.281,130.479,382.813,125.947,388.404,125.947z"/>
<path style="fill:#EFEFEF;" d="M421.954,125.947c8.512,0,25.033,0,33.55,0c5.591,0,10.123,4.532,10.123,10.123v42.565
	c-10.208,0-32.382,0-43.673,0L421.954,125.947L421.954,125.947z"/>
<g>
	<path style="fill:#F94A46;" d="M480.184,24.132v61.354c0,7.839,6.024,14.583,13.854,14.952c8.36,0.394,15.261-6.268,15.261-14.541
		V29.901c0-3.186-2.583-5.769-5.769-5.769H480.184z"/>
	<path style="fill:#F94A46;" d="M421.954,24.132v61.765c0,8.04,6.518,14.558,14.558,14.558s14.558-6.518,14.558-14.558V24.132
		H421.954z"/>
</g>
<g>
	<path style="fill:#FFB70D;" d="M451.069,24.132v61.765c0,8.04,6.518,14.558,14.558,14.558s14.558-6.518,14.558-14.558V24.132
		H451.069z"/>
	<path style="fill:#FFB70D;" d="M392.839,24.132v61.765c0,8.04,6.518,14.558,14.558,14.558s14.558-6.518,14.558-14.558V24.132
		H392.839z"/>
</g>
<path style="fill:#F94A46;" d="M363.723,24.132v61.765c0,8.04,6.518,14.558,14.558,14.558s14.558-6.518,14.558-14.558V24.132
	H363.723z"/>
<path style="fill:#EA3939;" d="M378.281,85.898V24.132h-14.558v61.765c0,8.04,6.518,14.558,14.558,14.558
	c2.655,0,5.136-0.722,7.279-1.963C381.213,95.974,378.281,91.283,378.281,85.898z"/>
<path style="fill:#F4A403;" d="M334.608,29.504v55.982c0,7.839,6.024,14.583,13.854,14.952c8.36,0.394,15.261-6.268,15.261-14.541
	V24.132H339.98C337.013,24.132,334.608,26.538,334.608,29.504z"/>
<path style="fill:#FFB70D;" d="M497.442,178.635h-23.187H363.723h-23.187c-8.04,0-14.557,6.518-14.557,14.558
	s6.517,14.558,14.557,14.558c19.84,0,137.233,0,156.906,0c8.04,0,14.558-6.518,14.558-14.558S505.482,178.635,497.442,178.635z"/>
<path style="fill:#F4A403;" d="M366.118,193.192c0-8.04,6.517-14.558,14.558-14.558h-16.952h-23.187
	c-8.04,0-14.558,6.518-14.558,14.558s6.517,14.558,14.558,14.558c14.076,0,25.634,0,40.139,0
	C372.635,207.75,366.118,201.232,366.118,193.192z"/>
<g>
</g>
<g>
</g>
<g>
</g>
<g>
</g>
<g>
</g>
<g>
</g>
<g>
</g>
<g>
</g>
<g>
</g>
<g>
</g>
<g>
</g>
<g>
</g>
<g>
</g>
<g>
</g>
<g>
</g>
</svg>
