<?xml version="1.0" encoding="iso-8859-1"?>
<!-- Generator: Adobe Illustrator 19.0.0, SVG Export Plug-In . SVG Version: 6.00 Build 0)  -->
<svg version="1.1" id="Capa_1" xmlns="http://www.w3.org/2000/svg" xmlns:xlink="http://www.w3.org/1999/xlink" x="0px" y="0px"
	 viewBox="0 0 512 512" style="enable-background:new 0 0 512 512;" xml:space="preserve">
<path style="fill:#EFEFEF;" d="M9.722,391.696c-5.369,0-9.722,4.373-9.722,9.766l0,0l0,0l0,0c0,25.97,20.958,47.023,46.81,47.023
	H465.19c25.853,0,46.81-21.053,46.81-47.023l0,0l0,0l0,0c0-5.394-4.353-9.766-9.722-9.766H9.722z"/>
<path style="fill:#DDDDDD;" d="M65.936,401.462c0-5.394,4.353-9.766,9.722-9.766H9.722c-5.369,0-9.722,4.373-9.722,9.766
	c0,25.97,20.958,47.023,46.81,47.023h65.936C86.894,448.485,65.936,427.432,65.936,401.462z"/>
<path style="fill:#CCCCCC;" d="M160.874,391.696v15.975c0,6.83,5.563,12.419,12.363,12.419h165.526
	c6.799,0,12.363-5.589,12.363-12.419v-15.975H160.874z"/>
<path style="fill:#BCBBB8;" d="M191.492,407.672v-15.976h-30.618v15.975c0,6.83,5.563,12.419,12.363,12.419h30.618
	C197.055,420.091,191.492,414.502,191.492,407.672z"/>
<path style="fill:#EFEFEF;" d="M456.118,63.516c-18.407,0-382.842,0-401.267,0c-14.906,0-27.035,12.128-27.035,27.035v274.188
	c0,14.907,12.129,27.035,27.035,27.035c19.372,0,383.347,0,401.267,0c14.906,0,27.035-12.129,27.035-27.035V90.55
	C483.153,75.643,471.025,63.516,456.118,63.516z"/>
<path style="fill:#DDDDDD;" d="M55.903,364.738V90.55c0-14.907,12.129-27.035,27.035-27.035H54.851
	c-14.906,0-27.035,12.128-27.035,27.035v274.188c0,14.907,12.129,27.035,27.035,27.035h28.086
	C68.031,391.773,55.903,379.645,55.903,364.738z"/>
<path style="fill:#70B5E8;" d="M455.067,356.54c0,3.947-3.2,7.147-7.147,7.147c-16.982,0-398.125,0-384.87,0
	c-3.947,0-7.147-3.199-7.147-7.147V98.749c0-3.947,3.199-7.147,7.147-7.147c23.432,0,408.849,0,384.87,0
	c3.947,0,7.147,3.199,7.147,7.147V356.54z"/>
<path style="fill:#52A5D8;" d="M87.036,356.54V98.749c0-3.947,3.199-7.147,7.147-7.147H63.05c-3.947,0-7.147,3.199-7.147,7.147
	v257.79c0,3.947,3.199,7.147,7.147,7.147h31.134C90.236,363.687,87.036,360.487,87.036,356.54z"/>
<path style="fill:#666666;" d="M447.92,91.602c-16.73,0-368.26,0-384.87,0c-3.947,0-7.147,3.199-7.147,7.147v54.227h399.164V98.749
	C455.067,94.802,451.867,91.602,447.92,91.602z"/>
<path style="fill:#535454;" d="M55.903,98.749v54.227h31.133V98.749c0-3.947,3.199-7.147,7.147-7.147H63.05
	c-1.233,0-2.394,0.313-3.407,0.863c-0.202,0.11-0.399,0.229-0.589,0.358C57.153,94.107,55.903,96.283,55.903,98.749z"/>
<path style="fill:#F94A46;" d="M85.304,128.15c-1.443-1.443-2.266-3.431-2.266-5.471c0-3.613,2.491-6.797,6.223-7.572
	c5.256-1.096,10.207,3.66,9.077,9.087C97.226,130.121,89.707,132.552,85.304,128.15z"/>
<path style="fill:#FFB70D;" d="M118.56,130.252c-5.993-1.146-8.329-8.643-3.946-13.033c1.793-1.793,4.461-2.617,6.965-2.112
	c3.861,0.802,6.223,4.123,6.223,7.572C127.801,127.588,123.293,131.214,118.56,130.252z"/>
<path style="fill:#92B620;" d="M143.914,128.15c-3.984-4.11-2.412-10.624,2.514-12.601c6.754-2.845,13.704,4.865,9.375,11.425
	C153.267,130.826,147.606,131.735,143.914,128.15z"/>
<g>
	<path style="fill:#7E7F7F;" d="M361.504,130.41H185.382c-4.267,0-7.727-3.459-7.727-7.727s3.46-7.727,7.727-7.727h176.122
		c4.267,0,7.727,3.459,7.727,7.727C369.231,126.95,365.771,130.41,361.504,130.41z"/>
	<path style="fill:#7E7F7F;" d="M416.032,130.41h-20.112c-4.267,0-7.727-3.459-7.727-7.727s3.46-7.727,7.727-7.727h20.112
		c4.267,0,7.727,3.459,7.727,7.727C423.759,126.95,420.299,130.41,416.032,130.41z"/>
</g>
<path style="fill:#A4D9F4;" d="M109.208,209.201H95.702c-4.267,0-7.727-3.459-7.727-7.727c0-4.268,3.46-7.727,7.727-7.727h13.506
	c4.267,0,7.727,3.459,7.727,7.727C116.935,205.742,113.476,209.201,109.208,209.201z"/>
<path style="fill:#F9F9F9;" d="M109.208,246.291H95.702c-4.267,0-7.727-3.459-7.727-7.727s3.46-7.727,7.727-7.727h13.506
	c4.267,0,7.727,3.459,7.727,7.727C116.935,242.832,113.476,246.291,109.208,246.291z"/>
<path style="fill:#84C7EF;" d="M109.208,283.379H95.702c-4.267,0-7.727-3.459-7.727-7.727s3.46-7.727,7.727-7.727h13.506
	c4.267,0,7.727,3.459,7.727,7.727C116.935,279.92,113.476,283.379,109.208,283.379z"/>
<g>
	<path style="fill:#F9F9F9;" d="M109.208,320.468H95.702c-4.267,0-7.727-3.459-7.727-7.727s3.46-7.727,7.727-7.727h13.506
		c4.267,0,7.727,3.459,7.727,7.727C116.935,317.009,113.476,320.468,109.208,320.468z"/>
	<path style="fill:#F9F9F9;" d="M382.307,208.686H254.564c-4.267,0-7.727-3.459-7.727-7.727c0-4.268,3.46-7.727,7.727-7.727h127.743
		c4.267,0,7.727,3.459,7.727,7.727C390.034,205.227,386.574,208.686,382.307,208.686z"/>
</g>
<path style="fill:#A4D9F4;" d="M227.11,208.686h-39.465c-4.267,0-7.727-3.459-7.727-7.727c0-4.268,3.46-7.727,7.727-7.727h39.465
	c4.267,0,7.727,3.459,7.727,7.727C234.837,205.227,231.377,208.686,227.11,208.686z"/>
<g>
	<path style="fill:#FFB70D;" d="M158.863,208.686h-14.756c-4.267,0-7.727-3.459-7.727-7.727c0-4.268,3.46-7.727,7.727-7.727h14.756
		c4.267,0,7.727,3.459,7.727,7.727C166.59,205.227,163.131,208.686,158.863,208.686z"/>
	<path style="fill:#FFB70D;" d="M415.065,208.684c-0.505,0-1.01-0.051-1.505-0.155c-0.495-0.092-0.979-0.246-1.452-0.433
		c-0.464-0.195-0.907-0.433-1.329-0.71c-0.423-0.289-0.814-0.609-1.174-0.969c-1.442-1.432-2.266-3.421-2.266-5.46
		c0-2.029,0.824-4.019,2.266-5.46c0.361-0.362,0.752-0.68,1.174-0.959c0.423-0.278,0.865-0.525,1.329-0.71
		c0.474-0.196,0.958-0.35,1.452-0.444c0.99-0.205,2.02-0.205,3.019,0c0.495,0.093,0.979,0.247,1.442,0.444
		c0.464,0.185,0.917,0.433,1.34,0.71c0.422,0.279,0.814,0.597,1.174,0.959c0.351,0.35,0.68,0.751,0.958,1.174
		c0.279,0.413,0.515,0.866,0.71,1.329c0.195,0.474,0.34,0.958,0.443,1.453c0.092,0.494,0.144,0.999,0.144,1.504
		s-0.052,1.009-0.144,1.514c-0.103,0.495-0.247,0.979-0.443,1.443c-0.195,0.464-0.433,0.917-0.71,1.33
		c-0.279,0.433-0.608,0.824-0.958,1.174c-0.36,0.36-0.752,0.68-1.174,0.969c-0.423,0.278-0.876,0.515-1.34,0.71
		c-0.463,0.186-0.948,0.34-1.442,0.433C416.074,208.633,415.569,208.684,415.065,208.684z"/>
</g>
<path style="fill:#A4D9F4;" d="M266.89,282.864h-90.022c-4.267,0-7.727-3.459-7.727-7.727s3.46-7.727,7.727-7.727h90.022
	c4.267,0,7.727,3.459,7.727,7.727S271.158,282.864,266.89,282.864z"/>
<path style="fill:#FFB70D;" d="M239.303,245.776h-30.247c-4.267,0-7.727-3.459-7.727-7.727s3.46-7.727,7.727-7.727h30.247
	c4.267,0,7.727,3.459,7.727,7.727C247.03,242.316,243.571,245.776,239.303,245.776z"/>
<path style="fill:#84C7EF;" d="M180.677,245.776h-36.568c-4.267,0-7.727-3.459-7.727-7.727s3.46-7.727,7.727-7.727h36.568
	c4.267,0,7.727,3.459,7.727,7.727C188.404,242.316,184.944,245.776,180.677,245.776z"/>
<path style="fill:#A4D9F4;" d="M413.72,245.776H271.138c-4.267,0-7.727-3.459-7.727-7.727s3.46-7.727,7.727-7.727H413.72
	c4.267,0,7.727,3.459,7.727,7.727C421.446,242.316,417.987,245.776,413.72,245.776z"/>
<path style="fill:#84C7EF;" d="M371.531,282.864h-77.186c-4.267,0-7.727-3.459-7.727-7.727s3.46-7.727,7.727-7.727h77.186
	c4.267,0,7.727,3.459,7.727,7.727S375.798,282.864,371.531,282.864z"/>
<path style="fill:#FFB70D;" d="M415.067,282.864h-14.755c-4.267,0-7.727-3.459-7.727-7.727s3.46-7.727,7.727-7.727h14.756
	c4.267,0,7.727,3.459,7.727,7.727S419.334,282.864,415.067,282.864z"/>
<path style="fill:#F9F9F9;" d="M144.109,282.862c-0.505,0-1.01-0.051-1.515-0.155c-0.495-0.092-0.979-0.246-1.442-0.433
	c-0.464-0.195-0.917-0.433-1.34-0.71c-0.422-0.289-0.814-0.609-1.174-0.969c-0.351-0.35-0.67-0.741-0.958-1.174
	c-0.279-0.413-0.515-0.866-0.71-1.33c-0.185-0.464-0.34-0.948-0.433-1.443c-0.103-0.505-0.154-1.009-0.154-1.514
	s0.051-1.01,0.154-1.504c0.092-0.495,0.247-0.979,0.433-1.453c0.195-0.464,0.433-0.917,0.71-1.329
	c0.289-0.423,0.607-0.824,0.958-1.174c0.36-0.362,0.752-0.68,1.174-0.959c0.423-0.278,0.876-0.525,1.34-0.71
	c0.463-0.196,0.948-0.35,1.442-0.444c1-0.205,2.03-0.205,3.019,0c0.495,0.093,0.979,0.247,1.452,0.444
	c0.464,0.185,0.907,0.433,1.33,0.71c0.423,0.279,0.825,0.597,1.174,0.959c0.361,0.35,0.68,0.751,0.958,1.174
	c0.279,0.413,0.525,0.865,0.71,1.329c0.195,0.474,0.35,0.958,0.443,1.453c0.103,0.494,0.155,0.999,0.155,1.504
	s-0.052,1.009-0.155,1.514c-0.092,0.495-0.246,0.979-0.443,1.443c-0.185,0.464-0.433,0.917-0.71,1.33
	c-0.279,0.433-0.597,0.824-0.958,1.174c-0.35,0.36-0.752,0.68-1.174,0.969c-0.422,0.278-0.866,0.515-1.33,0.71
	c-0.474,0.186-0.958,0.34-1.452,0.433C145.119,282.811,144.614,282.862,144.109,282.862z"/>
<path style="fill:#FFB70D;" d="M382.307,320.468H254.564c-4.267,0-7.727-3.459-7.727-7.727s3.46-7.727,7.727-7.727h127.743
	c4.267,0,7.727,3.459,7.727,7.727C390.034,317.009,386.574,320.468,382.307,320.468z"/>
<path style="fill:#A4D9F4;" d="M227.11,320.468h-39.465c-4.267,0-7.727-3.459-7.727-7.727s3.46-7.727,7.727-7.727h39.465
	c4.267,0,7.727,3.459,7.727,7.727C234.837,317.009,231.377,320.468,227.11,320.468z"/>
<path style="fill:#84C7EF;" d="M158.863,320.468h-14.756c-4.267,0-7.727-3.459-7.727-7.727s3.46-7.727,7.727-7.727h14.756
	c4.267,0,7.727,3.459,7.727,7.727C166.59,317.009,163.131,320.468,158.863,320.468z"/>
<path style="fill:#F9F9F9;" d="M415.065,320.466c-0.505,0-1.01-0.051-1.505-0.144c-0.495-0.103-0.979-0.247-1.452-0.444
	c-0.464-0.195-0.907-0.433-1.329-0.71c-0.423-0.289-0.825-0.609-1.174-0.969c-1.442-1.432-2.266-3.421-2.266-5.46
	c0-0.505,0.051-1.01,0.154-1.504c0.103-0.495,0.247-0.979,0.443-1.453c0.195-0.464,0.433-0.917,0.71-1.329
	c0.279-0.423,0.597-0.824,0.958-1.174c0.35-0.362,0.752-0.68,1.174-0.959c0.423-0.278,0.865-0.525,1.329-0.71
	c0.474-0.196,0.958-0.35,1.452-0.444c0.99-0.205,2.02-0.205,3.019,0c0.495,0.093,0.979,0.247,1.442,0.444
	c0.464,0.185,0.917,0.433,1.34,0.71c0.422,0.279,0.814,0.597,1.174,0.959c0.351,0.35,0.67,0.751,0.958,1.174
	c0.279,0.413,0.515,0.865,0.71,1.329c0.185,0.474,0.34,0.958,0.443,1.453c0.092,0.494,0.144,0.999,0.144,1.504
	c0,2.039-0.825,4.029-2.256,5.46c-0.36,0.36-0.752,0.68-1.174,0.969c-0.423,0.278-0.876,0.515-1.34,0.71
	c-0.463,0.196-0.948,0.34-1.442,0.444C416.074,320.414,415.569,320.466,415.065,320.466z"/>
<g>
</g>
<g>
</g>
<g>
</g>
<g>
</g>
<g>
</g>
<g>
</g>
<g>
</g>
<g>
</g>
<g>
</g>
<g>
</g>
<g>
</g>
<g>
</g>
<g>
</g>
<g>
</g>
<g>
</g>
</svg>
