<?xml version="1.0" encoding="iso-8859-1"?>
<!-- Generator: Adobe Illustrator 19.0.0, SVG Export Plug-In . SVG Version: 6.00 Build 0)  -->
<svg version="1.1" id="Capa_1" xmlns="http://www.w3.org/2000/svg" xmlns:xlink="http://www.w3.org/1999/xlink" x="0px" y="0px"
	 viewBox="0 0 512 512" style="enable-background:new 0 0 512 512;" xml:space="preserve">
<path style="fill:#EAEAEA;" d="M0,90.949v383.303C0,495.1,16.9,512,37.748,512h436.505C495.1,512,512,495.1,512,474.252V90.949H0z"
	/>
<path style="fill:#DDDDDD;" d="M30.907,474.252V90.949H0v383.303C0,495.1,16.9,512,37.748,512h30.907
	C47.808,512,30.907,495.1,30.907,474.252z"/>
<path style="fill:#FFB70D;" d="M70.37,186.941L70.336,423.82c-0.001,9.378,7.6,16.982,16.978,16.982l337.338,0.035
	c9.378,0.001,16.981-7.6,16.982-16.978l0.029-236.879c0.001-9.378-7.6-16.981-16.978-16.982l-337.334-0.035
	C77.974,169.962,70.371,177.563,70.37,186.941z"/>
<path style="fill:#F4A403;" d="M116.247,440.675c-8.434-0.992-14.979-8.154-14.978-16.854l0.033-236.879
	c0.001-9.356,7.57-16.941,16.918-16.974l-30.869-0.003c-9.378-0.001-16.98,7.6-16.982,16.978L70.336,423.82
	c-0.001,9.378,7.6,16.982,16.978,16.982l28.933,0.003C116.247,440.805,116.247,440.675,116.247,440.675z"/>
<path style="fill:#666666;" d="M512,37.748C512,16.9,495.1,0,474.252,0H37.748C16.9,0,0,16.9,0,37.748v64.284h512V37.748z"/>
<path style="fill:#535454;" d="M68.655,0H37.748C16.9,0,0,16.9,0,37.748v64.284h30.907V37.748C30.907,16.9,47.808,0,68.655,0z"/>
<path style="fill:#F94A46;" d="M55.926,58.74c-9.224,0-10.674-13.583-1.504-15.299c7.452-1.503,12.37,7.764,6.965,13.033
	C59.955,57.916,57.966,58.74,55.926,58.74z"/>
<path style="fill:#FFB70D;" d="M81.064,52.528c-0.878-4.321,2.072-8.339,6.068-9.087c5.822-1.214,11.019,4.594,8.644,10.529
	c-1.055,2.501-3.246,4.171-5.625,4.616C85.858,59.458,81.819,56.537,81.064,52.528z"/>
<path style="fill:#92B620;" d="M117.061,57.442c-1.774-1.212-2.923-2.984-3.287-4.914c-0.426-2.094,0.085-4.231,1.144-5.801
	c2.551-3.732,7.373-4.403,10.714-2.142c1.822,1.241,2.933,3.039,3.286,4.924c0.431,2.069-0.078,4.214-1.143,5.79
	c-1.244,1.821-3.044,2.937-4.914,3.287C120.788,59.007,118.651,58.518,117.061,57.442z"/>
<g>
	<path style="fill:#7E7F7F;" d="M385.606,58.742H161.528c-4.267,0-7.727-3.459-7.727-7.727s3.459-7.727,7.727-7.727h224.078
		c4.267,0,7.727,3.459,7.727,7.727S389.874,58.742,385.606,58.742z"/>
	<path style="fill:#7E7F7F;" d="M454.633,58.742h-29.362c-4.267,0-7.727-3.459-7.727-7.727s3.459-7.727,7.727-7.727h29.362
		c4.267,0,7.727,3.459,7.727,7.727S458.9,58.742,454.633,58.742z"/>
</g>
<g>
	<path style="fill:#F9F9F9;" d="M167.728,320.233c-35.356-0.634-37.906,1.587-41.911-2.177c-2.819-2.644-2.959-7.849-1.083-10.887
		c37.645-73.02,35.478-72.87,40.133-75.277c5.959-3.085,12.814-0.595,16.393,4.044c3.877,5.071,0.599,5.088-26.833,61.902h13.3
		v-10.887c0-2.591,1.261-4.458,3.788-5.599c5.068-2.287,11.472-2.29,16.549,0c2.525,1.142,3.788,3.008,3.788,5.599v10.887
		c4.942,0.525,9.474-1.678,12.218,3.499c4.688,8.832-0.522,18.897-5.567,18.897h-6.65v16.487c0,9.922-24.124,9.964-24.124,0v-16.488
		H167.728z"/>
	<path style="fill:#F9F9F9;" d="M255.564,345.117c-24.523,0-37.89-12.85-37.89-36.705c0.665-36.334-1.773-46.951,2.939-58.169
		c4.9-11.678,15.166-19.752,34.951-19.752c25.444,0,38.044,13.633,38.044,36.705c-0.661,36.161,1.77,47.152-2.939,58.247
		C285.688,337.172,275.385,345.117,255.564,345.117z M265.77,255.376c-2.473-2.488-5.875-3.733-10.206-3.733
		c-9.532,0-13.764,5.752-13.764,15.553v41.216c0,9.613,4.075,15.553,13.764,15.553c8.734,0,13.918-4.849,13.918-15.553
		C268.571,271.174,271.803,261.44,265.77,255.376z"/>
	<path style="fill:#F9F9F9;" d="M349.275,320.233c-35.356-0.634-37.906,1.587-41.911-2.177c-2.82-2.646-2.971-7.831-1.083-10.887
		c37.645-73.02,35.478-72.87,40.133-75.277c8.054-4.17,17.707,2.271,17.707,7.777c0,2.695-1.597,3.986-28.147,58.169h13.3v-10.887
		c0-2.591,1.26-4.458,3.788-5.599c7.194-3.247,20.336-1.995,20.336,5.599v10.887h6.65c5.337,0,7.423,6.288,7.423,11.198
		c0,4.561-3.079,11.198-7.423,11.198h-6.65v16.487c0,9.92-24.124,9.957-24.124,0v-16.488H349.275z"/>
</g>
<g>
	<path style="fill:#F9DAA2;" d="M280.108,387.396h-16.701c-4.267,0-7.727-3.459-7.727-7.727c0-4.268,3.459-7.727,7.727-7.727h16.701
		c4.267,0,7.727,3.459,7.727,7.727C287.835,383.937,284.375,387.396,280.108,387.396z"/>
	<path style="fill:#F9DAA2;" d="M369.183,387.396h-57.662c-4.267,0-7.727-3.459-7.727-7.727c0-4.268,3.459-7.727,7.727-7.727h57.662
		c4.267,0,7.727,3.459,7.727,7.727C376.91,383.937,373.45,387.396,369.183,387.396z"/>
</g>
<g>
</g>
<g>
</g>
<g>
</g>
<g>
</g>
<g>
</g>
<g>
</g>
<g>
</g>
<g>
</g>
<g>
</g>
<g>
</g>
<g>
</g>
<g>
</g>
<g>
</g>
<g>
</g>
<g>
</g>
</svg>
