<?xml version="1.0" encoding="iso-8859-1"?>
<!-- Generator: Adobe Illustrator 19.0.0, SVG Export Plug-In . SVG Version: 6.00 Build 0)  -->
<svg version="1.1" id="Capa_1" xmlns="http://www.w3.org/2000/svg" xmlns:xlink="http://www.w3.org/1999/xlink" x="0px" y="0px"
	 viewBox="0 0 512 512" style="enable-background:new 0 0 512 512;" xml:space="preserve">
<path style="fill:#EAEAEA;" d="M0,90.949v383.303C0,495.1,16.9,512,37.747,512h436.505C495.1,512,512,495.1,512,474.252V90.949H0z"
	/>
<path style="fill:#DDDDDD;" d="M30.907,474.252V90.949H0v383.303C0,495.1,16.9,512,37.747,512h30.907
	C47.807,512,30.907,495.1,30.907,474.252z"/>
<path style="fill:#666666;" d="M512,37.748C512,16.9,495.1,0,474.252,0H37.748C16.9,0,0,16.9,0,37.748v64.284h512V37.748z"/>
<path style="fill:#535454;" d="M68.655,0H37.747C16.9,0,0,16.9,0,37.748v64.284h30.907V37.748C30.907,16.9,47.808,0,68.655,0z"/>
<path style="fill:#F94A46;" d="M55.926,58.74c-0.505,0-1.01-0.051-1.504-0.154c-0.494-0.093-0.978-0.247-1.452-0.433
	c-0.464-0.196-0.917-0.433-1.329-0.711c-0.423-0.289-0.825-0.608-1.175-0.968c-0.361-0.351-0.68-0.753-0.968-1.175
	c-0.278-0.411-0.515-0.865-0.701-1.329c-0.196-0.464-0.35-0.948-0.443-1.442c-0.103-0.505-0.155-1.01-0.155-1.515
	c0-0.504,0.052-1.009,0.155-1.504c0.093-0.494,0.247-0.989,0.443-1.453c0.186-0.463,0.423-0.917,0.701-1.329
	c0.288-0.422,0.608-0.824,0.968-1.174c0.35-0.36,0.752-0.68,1.175-0.968c0.412-0.279,0.865-0.515,1.329-0.701
	c0.474-0.195,0.958-0.35,1.452-0.443c0.989-0.206,2.019-0.206,3.019,0c0.484,0.093,0.979,0.247,1.442,0.443
	c0.464,0.186,0.917,0.423,1.329,0.701c0.423,0.288,0.824,0.608,1.175,0.968c0.361,0.35,0.68,0.753,0.968,1.174
	c0.278,0.412,0.515,0.866,0.711,1.329c0.186,0.464,0.34,0.959,0.433,1.453c0.103,0.495,0.154,1,0.154,1.504
	c0,0.505-0.051,1.01-0.154,1.515c-0.093,0.494-0.247,0.978-0.433,1.442c-0.196,0.464-0.433,0.918-0.711,1.329
	c-0.289,0.423-0.608,0.824-0.968,1.175c-0.351,0.36-0.752,0.679-1.175,0.968c-0.412,0.279-0.865,0.515-1.329,0.711
	c-0.463,0.185-0.958,0.34-1.442,0.433C56.936,58.689,56.431,58.74,55.926,58.74z"/>
<path style="fill:#FFB70D;" d="M88.636,58.74c-0.505,0-1.01-0.051-1.504-0.154c-0.494-0.093-0.978-0.247-1.452-0.433
	c-0.464-0.196-0.917-0.433-1.329-0.711c-0.423-0.289-0.825-0.608-1.175-0.968c-0.361-0.351-0.68-0.753-0.958-1.175
	c-0.278-0.411-0.525-0.865-0.711-1.329c-0.196-0.464-0.35-0.948-0.443-1.442c-0.103-0.505-0.155-1.01-0.155-1.515
	c0-0.504,0.052-1.009,0.155-1.504c0.093-0.494,0.247-0.989,0.443-1.453c0.186-0.463,0.433-0.917,0.711-1.329
	c0.278-0.422,0.598-0.824,0.958-1.174c0.35-0.36,0.752-0.68,1.175-0.968c0.412-0.279,0.865-0.515,1.329-0.701
	c0.474-0.195,0.958-0.35,1.452-0.443c2.504-0.505,5.172,0.309,6.965,2.112c0.361,0.35,0.68,0.753,0.968,1.174
	c0.278,0.412,0.515,0.866,0.711,1.329c0.186,0.464,0.34,0.959,0.433,1.453c0.103,0.495,0.154,1,0.154,1.504
	c0,0.505-0.051,1.01-0.154,1.515c-0.093,0.494-0.247,0.978-0.433,1.442c-0.196,0.464-0.433,0.918-0.711,1.329
	c-0.289,0.423-0.608,0.824-0.968,1.175C92.665,57.916,90.676,58.74,88.636,58.74z"/>
<path style="fill:#92B620;" d="M121.347,58.74c-0.505,0-1.01-0.051-1.504-0.154c-0.494-0.093-0.978-0.247-1.452-0.433
	c-0.464-0.196-0.917-0.433-1.329-0.711c-0.423-0.289-0.825-0.608-1.175-0.968c-0.361-0.351-0.68-0.753-0.958-1.175
	c-0.278-0.411-0.525-0.865-0.711-1.329c-0.196-0.464-0.35-0.948-0.443-1.442c-0.103-0.505-0.155-1.01-0.155-1.515
	c0-0.504,0.052-1.009,0.155-1.504c0.093-0.494,0.247-0.989,0.443-1.453c0.186-0.463,0.433-0.917,0.711-1.329
	c0.278-0.422,0.598-0.824,0.958-1.174c0.35-0.36,0.752-0.68,1.175-0.968c0.412-0.279,0.865-0.515,1.329-0.701
	c0.474-0.195,0.958-0.35,1.452-0.443c2.504-0.505,5.172,0.309,6.965,2.112c0.361,0.35,0.68,0.753,0.968,1.174
	c0.278,0.412,0.515,0.866,0.711,1.329c0.186,0.464,0.34,0.959,0.433,1.453c0.103,0.495,0.154,1,0.154,1.504
	c0,0.505-0.051,1.01-0.154,1.515c-0.093,0.494-0.247,0.978-0.433,1.442c-0.196,0.464-0.433,0.918-0.711,1.329
	c-0.289,0.423-0.608,0.824-0.968,1.175C125.375,57.916,123.387,58.74,121.347,58.74z"/>
<g>
	<path style="fill:#7E7F7F;" d="M385.606,58.742H161.528c-4.267,0-7.727-3.459-7.727-7.727s3.459-7.727,7.727-7.727h224.078
		c4.267,0,7.727,3.459,7.727,7.727S389.874,58.742,385.606,58.742z"/>
	<path style="fill:#7E7F7F;" d="M454.633,58.742h-29.362c-4.267,0-7.727-3.459-7.727-7.727s3.459-7.727,7.727-7.727h29.362
		c4.267,0,7.727,3.459,7.727,7.727S458.9,58.742,454.633,58.742z"/>
</g>
<path style="fill:#70B5E8;" d="M188.171,475.636h262.09c13.232,0,24.058-10.826,24.058-24.058V154.816
	c0-9.108-7.452-16.56-16.56-16.56H180.673c-9.108,0-16.56,7.452-16.56,16.56v296.762
	C164.113,464.81,174.939,475.636,188.171,475.636z"/>
<path style="fill:#52A5D8;" d="M194.938,451.578V154.816c0-9.108,7.452-16.56,16.56-16.56h-30.825c-9.108,0-16.56,7.452-16.56,16.56
	v296.762c0,13.232,10.826,24.058,24.058,24.058h30.825C205.764,475.636,194.938,464.81,194.938,451.578z"/>
<path style="fill:#666666;" d="M164.113,154.816v34.455h310.206v-34.455c0-9.108-7.452-16.56-16.56-16.56H180.673
	C171.565,138.256,164.113,145.708,164.113,154.816z"/>
<path style="fill:#535454;" d="M211.497,138.256h-30.824c-3.211,0-6.207,0.941-8.753,2.54c-4.674,2.936-7.807,8.124-7.807,14.02
	v34.455h30.825v-34.455C194.938,145.709,202.39,138.257,211.497,138.256z"/>
<path style="fill:#F94A46;" d="M198.199,170.193c-2.962-2.025-4.301-5.77-2.854-9.386c1.652-3.916,6.071-5.8,10.096-4.182
	c2.029,0.854,3.478,2.447,4.173,4.182c1.372,3.254,0.361,7.196-2.844,9.386c-0.845,0.57-1.841,0.965-2.771,1.143
	C202.107,171.724,199.929,171.359,198.199,170.193z"/>
<path style="fill:#FFB70D;" d="M228.055,160.807c1.652-3.916,6.071-5.8,10.096-4.182c7.056,2.968,5.974,13.293-1.442,14.711
	C230.811,172.545,225.699,166.694,228.055,160.807z"/>
<path style="fill:#92B620;" d="M260.765,160.807c2.678-6.349,11.606-6.334,14.279,0c1.911,4.778-1.101,9.663-5.625,10.529
	C263.548,172.54,258.397,166.724,260.765,160.807z"/>
<path style="fill:#F9F9F9;" d="M266.588,290.016c-4.267,0-7.727-3.459-7.727-7.727v-28.585c0-4.268,3.459-7.727,7.727-7.727
	c4.267,0,7.727,3.459,7.727,7.727v28.585C274.315,286.557,270.855,290.016,266.588,290.016z"/>
<path style="fill:#A4D9F4;" d="M228.017,290.016c-11.627,0-21.085-9.878-21.085-22.019c0-12.142,9.459-22.02,21.085-22.02
	c11.626,0,21.085,9.878,21.085,22.02C249.103,280.138,239.644,290.016,228.017,290.016z M228.017,261.431
	c-3.105,0-5.632,2.946-5.632,6.566s2.526,6.566,5.632,6.566c3.105,0,5.632-2.946,5.632-6.566S231.123,261.431,228.017,261.431z"/>
<path style="fill:#F9F9F9;" d="M424.439,290.016c-4.267,0-7.727-3.459-7.727-7.727v-28.585c0-4.268,3.459-7.727,7.727-7.727
	c4.267,0,7.727,3.459,7.727,7.727v28.585C432.165,286.557,428.706,290.016,424.439,290.016z"/>
<path style="fill:#A4D9F4;" d="M385.869,290.016c-11.627,0-21.085-9.878-21.085-22.019c0-12.142,9.459-22.02,21.085-22.02
	s21.085,9.878,21.085,22.02C406.954,280.138,397.495,290.016,385.869,290.016z M385.869,261.431c-3.105,0-5.632,2.946-5.632,6.566
	s2.526,6.566,5.632,6.566c3.105,0,5.632-2.946,5.632-6.566S388.974,261.431,385.869,261.431z"/>
<path style="fill:#F9F9F9;" d="M347.401,290.016c-4.267,0-7.727-3.459-7.727-7.727v-28.585c0-4.268,3.459-7.727,7.727-7.727
	c4.267,0,7.727,3.459,7.727,7.727v28.585C355.128,286.557,351.669,290.016,347.401,290.016z"/>
<path style="fill:#A4D9F4;" d="M307.824,290.016c-11.627,0-21.085-9.878-21.085-22.019c0-12.142,9.459-22.02,21.085-22.02
	s21.085,9.878,21.085,22.02C328.909,280.138,319.45,290.016,307.824,290.016z M307.824,261.431c-3.105,0-5.632,2.946-5.632,6.566
	s2.526,6.566,5.632,6.566c3.105,0,5.632-2.946,5.632-6.566S310.929,261.431,307.824,261.431z"/>
<path style="fill:#F9F9F9;" d="M213.652,352.165c-4.267,0-7.727-3.459-7.727-7.727v-28.585c0-4.268,3.459-7.727,7.727-7.727
	s7.727,3.459,7.727,7.727v28.585C221.379,348.706,217.919,352.165,213.652,352.165z"/>
<path style="fill:#A4D9F4;" d="M253.229,352.165c-11.627,0-21.085-9.878-21.085-22.02s9.459-22.019,21.085-22.019
	c11.626,0,21.085,9.878,21.085,22.019C274.315,342.287,264.856,352.165,253.229,352.165z M253.229,323.58
	c-3.105,0-5.632,2.946-5.632,6.566s2.526,6.566,5.632,6.566c3.105,0,5.632-2.946,5.632-6.566S256.335,323.58,253.229,323.58z"/>
<path style="fill:#F9F9F9;" d="M266.588,414.04c-4.267,0-7.727-3.459-7.727-7.727v-28.585c0-4.268,3.459-7.727,7.727-7.727
	c4.267,0,7.727,3.459,7.727,7.727v28.585C274.315,410.581,270.855,414.04,266.588,414.04z"/>
<path style="fill:#A4D9F4;" d="M228.017,414.04c-11.627,0-21.085-9.878-21.085-22.02s9.459-22.019,21.085-22.019
	c11.626,0,21.085,9.878,21.085,22.019C249.103,404.162,239.644,414.04,228.017,414.04z M228.017,385.455
	c-3.105,0-5.632,2.946-5.632,6.566s2.526,6.566,5.632,6.566c3.105,0,5.632-2.946,5.632-6.566S231.123,385.455,228.017,385.455z"/>
<path style="fill:#F9F9F9;" d="M291.697,352.165c-4.267,0-7.727-3.459-7.727-7.727v-28.585c0-4.268,3.459-7.727,7.727-7.727
	c4.267,0,7.727,3.459,7.727,7.727v28.585C299.424,348.706,295.964,352.165,291.697,352.165z"/>
<path style="fill:#A4D9F4;" d="M331.274,352.165c-11.627,0-21.085-9.878-21.085-22.02s9.459-22.019,21.085-22.019
	c11.626,0,21.085,9.878,21.085,22.019C352.359,342.287,342.9,352.165,331.274,352.165z M331.274,323.58
	c-3.105,0-5.632,2.946-5.632,6.566s2.526,6.566,5.632,6.566c3.105,0,5.632-2.946,5.632-6.566S334.379,323.58,331.274,323.58z"/>
<path style="fill:#F9F9F9;" d="M371.503,352.165c-4.267,0-7.727-3.459-7.727-7.727v-28.585c0-4.268,3.459-7.727,7.727-7.727
	c4.267,0,7.727,3.459,7.727,7.727v28.585C379.23,348.706,375.771,352.165,371.503,352.165z"/>
<path style="fill:#A4D9F4;" d="M411.081,352.165c-11.626,0-21.085-9.878-21.085-22.02s9.459-22.019,21.085-22.019
	c11.626,0,21.085,9.878,21.085,22.019C432.165,342.287,422.707,352.165,411.081,352.165z M411.081,323.58
	c-3.105,0-5.632,2.946-5.632,6.566s2.526,6.566,5.632,6.566c3.105,0,5.631-2.946,5.631-6.566S414.185,323.58,411.081,323.58z"/>
<path style="fill:#F9F9F9;" d="M424.439,414.04c-4.267,0-7.727-3.459-7.727-7.727v-28.585c0-4.268,3.459-7.727,7.727-7.727
	c4.267,0,7.727,3.459,7.727,7.727v28.585C432.165,410.581,428.706,414.04,424.439,414.04z"/>
<path style="fill:#A4D9F4;" d="M385.869,414.04c-11.627,0-21.085-9.878-21.085-22.02s9.459-22.019,21.085-22.019
	s21.085,9.878,21.085,22.019C406.954,404.162,397.495,414.04,385.869,414.04z M385.869,385.455c-3.105,0-5.632,2.946-5.632,6.566
	s2.526,6.566,5.632,6.566c3.105,0,5.632-2.946,5.632-6.566C391.5,388.401,388.974,385.455,385.869,385.455z"/>
<path style="fill:#F9F9F9;" d="M347.401,414.04c-4.267,0-7.727-3.459-7.727-7.727v-28.585c0-4.268,3.459-7.727,7.727-7.727
	c4.267,0,7.727,3.459,7.727,7.727v28.585C355.128,410.581,351.669,414.04,347.401,414.04z"/>
<path style="fill:#A4D9F4;" d="M307.824,414.04c-11.627,0-21.085-9.878-21.085-22.02s9.459-22.019,21.085-22.019
	s21.085,9.878,21.085,22.019C328.909,404.162,319.45,414.04,307.824,414.04z M307.824,385.455c-3.105,0-5.632,2.946-5.632,6.566
	s2.526,6.566,5.632,6.566c3.105,0,5.632-2.946,5.632-6.566C313.455,388.401,310.929,385.455,307.824,385.455z"/>
<g>
</g>
<g>
</g>
<g>
</g>
<g>
</g>
<g>
</g>
<g>
</g>
<g>
</g>
<g>
</g>
<g>
</g>
<g>
</g>
<g>
</g>
<g>
</g>
<g>
</g>
<g>
</g>
<g>
</g>
</svg>
