<?xml version="1.0" encoding="iso-8859-1"?>
<!-- Generator: Adobe Illustrator 19.0.0, SVG Export Plug-In . SVG Version: 6.00 Build 0)  -->
<svg version="1.1" id="Capa_1" xmlns="http://www.w3.org/2000/svg" xmlns:xlink="http://www.w3.org/1999/xlink" x="0px" y="0px"
	 viewBox="0 0 512 512" style="enable-background:new 0 0 512 512;" xml:space="preserve">
<rect x="176.67" y="416.32" style="fill:#CCCCCC;" width="117.45" height="72.65"/>
<rect x="176.67" y="416.32" style="fill:#BCBBB8;" width="30.907" height="72.65"/>
<path style="fill:#7E7F7F;" d="M447.829,80.494c-35.403,0-376.009,0-424.868,0C10.281,80.494,0,90.774,0,103.455
	c0,12.272,0,253.621,0,264.699h470.79V198.533v-95.078C470.79,90.774,460.51,80.494,447.829,80.494z"/>
<path style="fill:#6F7070;" d="M28.203,103.455c0-12.681,10.28-22.962,22.961-22.962H22.961C10.28,80.494,0,90.774,0,103.455
	c0,12.272,0,253.621,0,264.699h28.203C28.203,357.056,28.203,115.717,28.203,103.455z"/>
<path style="fill:#EFEFEF;" d="M0,362.118v38.447c0,12.681,10.28,22.962,22.962,22.962h424.866c12.681,0,22.962-10.28,22.962-22.962
	v-38.447H0z"/>
<path style="fill:#DDDDDD;" d="M28.203,400.565v-38.447H0v38.447c0,12.681,10.28,22.962,22.962,22.962h28.203
	C38.483,423.527,28.203,413.247,28.203,400.565z"/>
<path style="fill:#CCCCCC;" d="M227.665,392.823c0-0.505,0.052-1.01,0.155-1.514c0.103-0.485,0.247-0.979,0.443-1.443
	c0.186-0.464,0.433-0.917,0.711-1.329c0.278-0.433,0.598-0.824,0.958-1.184c0.35-0.351,0.752-0.68,1.175-0.959
	c0.422-0.278,0.865-0.515,1.329-0.71c0.474-0.186,0.958-0.34,1.452-0.433c0.989-0.206,2.019-0.206,3.019,0
	c0.495,0.093,0.979,0.246,1.442,0.433c0.464,0.195,0.917,0.433,1.34,0.71c0.422,0.279,0.814,0.608,1.174,0.959
	c0.351,0.36,0.68,0.752,0.958,1.184c0.278,0.413,0.515,0.865,0.711,1.329c0.37,0.878,0.587,1.886,0.587,2.957
	c0,1.043-0.204,2.03-0.587,2.957c-0.409,0.97-0.976,1.811-1.669,2.503C236.07,403.091,227.665,399.777,227.665,392.823z"/>
<path style="fill:#EFEFEF;" d="M309.415,512H161.374c-7.788,0-14.102-6.314-14.102-14.102l0,0c0-7.788,6.314-14.102,14.102-14.102
	h148.041c7.788,0,14.102,6.314,14.102,14.102l0,0C323.517,505.686,317.204,512,309.415,512z"/>
<path style="fill:#DDDDDD;" d="M195.694,497.898c0-7.788,6.314-14.102,14.102-14.102h-48.422c-7.788,0-14.102,6.314-14.102,14.102
	S153.586,512,161.374,512h48.422C202.008,512,195.694,505.686,195.694,497.898z"/>
<path style="fill:#F9F9F9;" d="M434.758,109.727c-28.714,0-271.777,0-283.233,0H36.032c-4.316,0-7.829,3.512-7.829,7.828
	c0,19.857,0,198.668,0,208.531c0,4.316,3.512,7.828,7.828,7.828c16.019,0,384.296,0,398.727,0c4.316,0,7.828-3.512,7.828-7.828
	V198.533v-80.977C442.586,113.24,439.074,109.727,434.758,109.727z"/>
<path style="fill:#F2F2F2;" d="M59.591,326.087c0-8.825,0-188.917,0-208.531c0-4.316,3.512-7.828,7.829-7.828H36.032
	c-4.316,0-7.829,3.512-7.829,7.828c0,19.857,0,198.668,0,208.531c0,4.316,3.512,7.828,7.828,7.828c3.903,0,27.459,0,31.388,0
	C63.104,333.915,59.591,330.402,59.591,326.087z"/>
<path style="fill:#666666;" d="M327.507,108.697H36.032c-4.316,0-7.829,3.512-7.829,7.828v48.579h299.303
	C327.507,140.107,327.507,146.177,327.507,108.697z"/>
<path style="fill:#535454;" d="M67.418,108.697H36.032c-4.316,0-7.829,3.512-7.829,7.828v48.579H59.59v-48.579
	C59.59,112.209,63.102,108.697,67.418,108.697z"/>
<path style="fill:#F94A46;" d="M52.019,135.633c0.642-3.433,3.752-6.223,7.572-6.223c7.005,0,10.25,8.537,5.46,13.187
	C59.666,148.019,50.474,143.033,52.019,135.633z"/>
<path style="fill:#FFB70D;" d="M84.605,143.565c-5.748-3.919-3.869-12.756,2.782-14.001c4.602-0.95,9.241,2.564,9.241,7.573
	c0,3.824-2.799,6.931-6.223,7.572C89.38,144.922,86.229,144.636,84.605,143.565z"/>
<path style="fill:#92B620;" d="M113.916,143.565c-5.756-3.92-3.863-12.758,2.781-14.001c4.634-0.956,9.231,2.59,9.231,7.573
	c0,3.816-2.762,6.926-6.212,7.572C118.69,144.922,115.557,144.649,113.916,143.565z"/>
<path style="fill:#7E7F7F;" d="M327.507,144.865h-173.3c-4.267,0-7.727-3.459-7.727-7.727s3.459-7.727,7.727-7.727h173.3
	c4.267,0,7.727,3.459,7.727,7.727C335.233,141.406,331.774,144.865,327.507,144.865z"/>
<circle style="fill:#70B5E8;" cx="106.8" cy="248.53" r="47.21"/>
<path style="fill:#52A5D8;" d="M105.091,201.349c-32.442,1.177-54.021,34.027-42.311,64.242
	c9.422,24.313,36.77,36.384,61.082,26.961c5.049-1.957,9.56-4.696,13.47-8.01C92.661,286.162,70.982,230.266,105.091,201.349z"/>
<path style="fill:#FFB70D;" d="M138.446,283.564c31.848-28.784,11.633-82.246-31.644-82.246v40.925
	c0,4.047,1.502,7.949,4.214,10.952L138.446,283.564z"/>
<path style="fill:#A4D9F4;" d="M391.043,269.465h-12.018c-4.513,0-8.172,3.659-8.172,8.172v21.196h28.203v-21.354
	C399.057,273.053,395.469,269.465,391.043,269.465z"/>
<path style="fill:#84C7EF;" d="M322.618,244.219h12.019c4.426,0,8.014,3.588,8.014,8.013v46.601h-28.204V252.39
	C314.446,247.877,318.105,244.219,322.618,244.219z"/>
<path style="fill:#52A5D8;" d="M209.802,269.465h12.019c4.426,0,8.014,3.588,8.014,8.014v21.354H201.63v-21.196
	C201.63,273.124,205.289,269.465,209.802,269.465z"/>
<path style="fill:#70B5E8;" d="M266.21,222.253h12.019c4.426,0,8.014,3.588,8.014,8.014v21.965c0,4.539,0,41.491,0,46.601h-28.204
	c0-13.11,0-23.146,0-46.443v-21.966C258.038,225.912,261.697,222.253,266.21,222.253z"/>
<path style="fill:#EAEAEA;" d="M405.977,306.56H194.09c-4.267,0-7.727-3.459-7.727-7.727c0-4.268,3.459-7.727,7.727-7.727h211.887
	c4.267,0,7.727,3.459,7.727,7.727C413.704,303.101,410.244,306.56,405.977,306.56z"/>
<path style="fill:#70B5E8;" d="M499.402,0c-4.926,0-169.882,0-167.538,0c-6.958,0-12.599,5.641-12.599,12.599
	c0,23.885,0,53.374,0,80.408c0-1.1,0,33.875,0,79.972v12.956c0,6.958,5.641,12.598,12.598,12.598h103.729h0.391h63.418
	c6.958,0,12.599-5.641,12.599-12.599c0-0.137,0-46.654,0-44.419c0-0.159,0-7.545,0-7.076c0-1.272,0-86.345,0-81.836
	c0-0.831,0-3.196,0-3.082c0-0.281,0-7.534,0-7.076c0-0.381,0-5.428,0-5.123c0-0.103,0-25.349,0-24.722
	C512,5.641,506.359,0,499.402,0z"/>
<path style="fill:#52A5D8;" d="M350.172,185.934c0-21.673,0-156.342,0-173.335C350.172,5.641,355.813,0,362.771,0h-30.907
	c-6.958,0-12.599,5.641-12.599,12.599c0,23.885,0,53.374,0,80.408c0-1.1,0,33.875,0,79.972v12.956
	c0,6.958,5.641,12.599,12.598,12.599h30.907C355.812,198.533,350.172,192.892,350.172,185.934z"/>
<path style="fill:#F9F9F9;" d="M473.235,150.818c3.451-2.326,8.325-1.443,10.714,2.143c2.949,4.372,0.704,10.657-4.914,11.859
	C470.955,166.462,466.13,155.672,473.235,150.818z"/>
<path style="fill:#A4D9F4;" d="M447.012,164.973H428.34c-4.267,0-7.727-3.459-7.727-7.727s3.459-7.727,7.727-7.727h18.672
	c4.267,0,7.727,3.459,7.727,7.727C454.739,161.514,451.279,164.973,447.012,164.973z"/>
<path style="fill:#F9F9F9;" d="M395.612,164.973h-41.87c-4.267,0-7.727-3.459-7.727-7.727s3.459-7.727,7.727-7.727h41.87
	c4.267,0,7.727,3.459,7.727,7.727S399.88,164.973,395.612,164.973z"/>
<path style="fill:#FFB70D;" d="M477.522,127.884h-16.198c-4.267,0-7.727-3.459-7.727-7.727s3.459-7.727,7.727-7.727h16.198
	c4.267,0,7.727,3.459,7.727,7.727S481.789,127.884,477.522,127.884z"/>
<path style="fill:#A4D9F4;" d="M425.25,127.884h-71.507c-4.267,0-7.727-3.459-7.727-7.727s3.459-7.727,7.727-7.727h71.507
	c4.267,0,7.727,3.459,7.727,7.727C432.976,124.425,429.517,127.884,425.25,127.884z"/>
<g>
	<path style="fill:#F9F9F9;" d="M386.858,86.732c-5.513,0-6.26-4.037-23.303-20.101c-3.015-3.017-3.018-7.91,0-10.928l17.839-17.839
		c3.017-3.016,7.91-3.016,10.927,0c3.018,3.018,3.018,7.91,0,10.928l-12.375,12.375l12.375,12.374c3.017,3.017,3.018,7.91,0,10.927
		C390.813,85.977,388.836,86.732,386.858,86.732z"/>
	<path style="fill:#F9F9F9;" d="M445.125,84.469c-3.018-3.018-3.018-7.91,0-10.928L457.5,61.167l-12.375-12.375
		c-3.018-3.018-3.018-7.91,0-10.928c3.018-3.016,7.91-3.016,10.927,0l17.839,17.839c3.016,3.017,3.017,7.91,0,10.928l-17.839,17.838
		C453.033,87.487,448.142,87.486,445.125,84.469z"/>
	<path style="fill:#F9F9F9;" d="M405.282,97.544c-4.01-1.46-6.078-5.894-4.619-9.904l20.035-55.047
		c1.46-4.009,5.896-6.076,9.904-4.618c4.01,1.46,6.078,5.894,4.618,9.904l-20.035,55.047
		C413.739,96.901,409.327,99.014,405.282,97.544z"/>
</g>
<g>
</g>
<g>
</g>
<g>
</g>
<g>
</g>
<g>
</g>
<g>
</g>
<g>
</g>
<g>
</g>
<g>
</g>
<g>
</g>
<g>
</g>
<g>
</g>
<g>
</g>
<g>
</g>
<g>
</g>
</svg>
