<?xml version="1.0" encoding="iso-8859-1"?>
<!-- Generator: Adobe Illustrator 19.0.0, SVG Export Plug-In . SVG Version: 6.00 Build 0)  -->
<svg version="1.1" id="Capa_1" xmlns="http://www.w3.org/2000/svg" xmlns:xlink="http://www.w3.org/1999/xlink" x="0px" y="0px"
	 viewBox="0 0 512 512" style="enable-background:new 0 0 512 512;" xml:space="preserve">
<rect x="140.087" y="432.911" style="fill:#CCCCCC;" width="91.682" height="53.958"/>
<rect x="140.087" y="432.911" style="fill:#BCBBB8;" width="30.904" height="53.958"/>
<path style="fill:#7E7F7F;" d="M371.735,171.17c-1.177-11.576-10.954-20.609-22.841-20.609c-347.693,0-326.779-0.186-329.836,0.337
	C7.965,152.821,0,162.409,0,173.519c0,7.839,0,217.038,0,224.449h371.854c0-240.472,0.066-224.984-0.118-226.797L371.735,171.17z"/>
<path style="fill:#6F7070;" d="M28.2,173.519c0-12.725,10.349-22.96,22.96-22.96c-30.014,0.033-29.281-0.146-32.104,0.337
	C8.13,152.79,0,162.269,0,173.519c0,7.839,0,217.039,0,224.449h28.2C28.2,390.657,28.2,188.46,28.2,173.519z"/>
<path style="fill:#EFEFEF;" d="M371.854,390.954v22.991c0,12.68-10.279,22.96-22.96,22.96H22.96C10.279,436.904,0,426.625,0,413.945
	v-22.991L371.854,390.954L371.854,390.954z"/>
<path style="fill:#DDDDDD;" d="M28.2,413.945v-22.991H0v22.991c0,12.68,10.279,22.96,22.96,22.96h28.2
	C38.481,436.905,28.2,426.625,28.2,413.945z"/>
<path style="fill:#F9F9F9;" d="M335.825,181.852c-314.303,0-305.264-3.301-307.624,7.827c0,1.291-0.068,165.46,0.12,166.564
	c0.594,3.487,3.402,6.295,7.708,6.509h149.898h0.001c161.216,0,151.031,0.448,153.571-0.92c2.395-1.28,4.003-3.618,4.154-6.907
	c0-18.704,0-145.235,0-165.246C343.652,187.746,340.15,181.852,335.825,181.852z"/>
<path style="fill:#F2F2F2;" d="M59.106,354.925c0-18.703,0-145.2,0-165.246c0-4.261,3.493-7.827,7.827-7.827
	c-28.309,0-38.733-2.415-38.733,7.827c0,32.033-0.068,165.465,0.12,166.564c0.347,2.037,1.486,3.829,3.124,5.014
	c3.523,2.56,4.88,1.108,35.488,1.496C63.078,362.752,59.334,359.875,59.106,354.925z"/>
<path style="fill:#666666;" d="M36.029,178.761h156.079v56.402H28.201v-48.575C28.201,182.273,31.713,178.761,36.029,178.761z"/>
<path style="fill:#535454;" d="M67.191,178.761H36.029c-4.316,0-7.827,3.512-7.827,7.827v48.575h31.162v-48.575
	C59.363,182.273,62.874,178.761,67.191,178.761z"/>
<path style="fill:#CCCCCC;" d="M181.636,420.355c-3.113-2.12-4.232-6.022-2.844-9.384c3.598-8.524,16.562-4.596,14.711,4.471
	c-0.307,1.469-1.004,2.84-2.112,3.946C189.661,421.116,184.821,422.459,181.636,420.355z"/>
<path style="fill:#7E7F7F;" d="M197.28,214.688h-51.001c-4.267,0-7.726-3.459-7.726-7.726c0-4.268,3.459-7.726,7.726-7.726h51.001
	c4.267,0,7.726,3.459,7.726,7.726C205.007,211.229,201.547,214.688,197.28,214.688z"/>
<path style="fill:#EFEFEF;" d="M124.79,511.977h122.274c7.787,0,14.101-6.313,14.101-14.101l0,0c0-7.787-6.313-14.101-14.101-14.101
	H124.79c-7.787,0-14.101,6.313-14.101,14.101l0,0C110.689,505.664,117.002,511.977,124.79,511.977z"/>
<path style="fill:#DDDDDD;" d="M159.027,497.876c0-7.787,6.313-14.101,14.101-14.101H124.79c-7.787,0-14.101,6.313-14.101,14.101
	s6.313,14.101,14.101,14.101h48.338C165.339,511.977,159.027,505.664,159.027,497.876z"/>
<path style="fill:#F94A46;" d="M49.323,209.916c-2.371-5.619,2.575-11.751,8.642-10.529c8.349,1.75,8.164,13.458,0,15.154
	C55.585,215.039,50.867,213.568,49.323,209.916z"/>
<path style="fill:#FFB70D;" d="M78.63,209.916c-2.388-5.66,2.6-11.741,8.643-10.529c8.338,1.748,8.169,13.457,0,15.154
	C84.9,215.038,80.18,213.581,78.63,209.916z"/>
<path style="fill:#92B620;" d="M109.607,212.419c-0.737-0.715-1.329-1.656-1.669-2.503c-2.929-6.943,5.063-13.655,11.414-9.375
	c2.017,1.3,3.441,3.747,3.441,6.418c0,2.19-0.929,4.161-2.267,5.46c-0.954,0.982-2.325,1.785-3.945,2.122
	C116.076,214.644,111.474,214.286,109.607,212.419z"/>
<g>
	<path style="fill:#CCCCCC;" d="M75.926,274.351H62.079c-4.267,0-7.726-3.459-7.726-7.726s3.459-7.726,7.726-7.726h13.847
		c4.267,0,7.726,3.459,7.726,7.726C83.652,270.894,80.193,274.351,75.926,274.351z"/>
	<path style="fill:#CCCCCC;" d="M75.926,306.924H62.079c-4.267,0-7.726-3.459-7.726-7.726s3.459-7.726,7.726-7.726h13.847
		c4.267,0,7.726,3.459,7.726,7.726C83.652,303.466,80.193,306.924,75.926,306.924z"/>
	<path style="fill:#CCCCCC;" d="M75.926,339.05H62.079c-4.267,0-7.726-3.459-7.726-7.726c0-4.268,3.459-7.726,7.726-7.726h13.847
		c4.267,0,7.726,3.459,7.726,7.726C83.652,335.592,80.193,339.05,75.926,339.05z"/>
</g>
<g>
	<path style="fill:#7E7F7F;" d="M151.3,274.351h-45.267c-4.267,0-7.726-3.459-7.726-7.726s3.459-7.726,7.726-7.726H151.3
		c4.267,0,7.726,3.459,7.726,7.726C159.027,270.894,155.567,274.351,151.3,274.351z"/>
	<path style="fill:#7E7F7F;" d="M151.3,306.924h-45.267c-4.267,0-7.726-3.459-7.726-7.726s3.459-7.726,7.726-7.726H151.3
		c4.267,0,7.726,3.459,7.726,7.726C159.027,303.466,155.567,306.924,151.3,306.924z"/>
	<path style="fill:#7E7F7F;" d="M151.3,339.05h-45.267c-4.267,0-7.726-3.459-7.726-7.726c0-4.268,3.459-7.726,7.726-7.726H151.3
		c4.267,0,7.726,3.459,7.726,7.726S155.567,339.05,151.3,339.05z"/>
</g>
<path style="fill:#70B5E8;" d="M185.977,288.533c-0.077-0.845-0.051,8.291-0.051-137.974V152c0-146.332-0.243-141.971,0.489-144.326
	c1.315-4.231,5.134-7.517,10.398-7.651c58.139,0,245.748,0,304.254,0c5.073,0,9.556,3.561,10.638,8.587
	c0.431,2.003,0.249,143.286,0.249,143.39v-1.441c0,146.77,0.136,137.48-0.248,139.269c-0.857,3.979-3.869,7.104-7.712,8.177
	c-2.322,0.644-306.953,0.489-308.293,0.353C190.589,297.841,186.455,293.766,185.977,288.533z"/>
<path style="fill:#52A5D8;" d="M217.527,287.53c0-290.413-0.037-276.896,0.084-277.916c0.659-5.532,5.343-9.591,10.803-9.591
	c-8.114,0-26.553,0-31.601,0c-5.522,0-10.158,4.127-10.802,9.591c-0.176,1.452-0.108,278.766,0.11,279.932
	c0.981,5.195,5.493,8.87,10.693,8.87c22.504,0,9.357,0,31.601,0C223.337,298.416,217.729,294.119,217.527,287.53z"/>
<path style="fill:#666666;" d="M185.926,64.666c0-57.106-0.19-54.808,0.489-56.992c1.315-4.231,5.134-7.517,10.398-7.651
	c58.139,0,245.748,0,304.254,0c4.443,0,8.681,2.659,10.397,7.65c0.798,2.566,0.46,0.596,0.489,56.993H185.926z"/>
<path style="fill:#535454;" d="M185.926,64.666h31.601c0-58.3-0.039-54.016,0.084-55.052c0.659-5.532,5.343-9.591,10.803-9.591
	h-5.32l0,0h-26.282l0,0c-5.633,0.144-9.641,3.938-10.638,8.587C185.833,10.198,185.926,8.815,185.926,64.666z"/>
<path style="fill:#F94A46;" d="M214.374,39.002c-4.621-3.051-4.534-9.853,0-12.847c7.706-5.065,16.304,5.297,9.756,11.888
	c-1.049,1.051-2.421,1.791-3.957,2.113C219.223,40.354,216.112,40.145,214.374,39.002z"/>
<path style="fill:#FFB70D;" d="M243.681,39.002c-4.577-3.018-4.578-9.828,0-12.847c2.227-1.501,5.017-1.652,7.241-0.71
	c5.195,2.186,6.314,8.772,2.514,12.598c-0.997,1-2.355,1.777-3.956,2.113C248.435,40.369,245.267,40.071,243.681,39.002z"/>
<path style="fill:#92B620;" d="M275.76,25.004c0.999-0.196,2.029-0.196,3.029,0c8.217,1.705,8.286,13.417,0,15.154
	C269.151,42.115,265.399,27.198,275.76,25.004z"/>
<g>
	<path style="fill:#7E7F7F;" d="M480.571,40.307H313.273c-4.267,0-7.726-3.459-7.726-7.726s3.459-7.726,7.726-7.726h167.298
		c4.267,0,7.726,3.459,7.726,7.726S484.837,40.307,480.571,40.307z"/>
	<path style="fill:#7E7F7F;" d="M358.741,123.825c-3.524-2.406-4.43-7.213-2.024-10.737l8.132-11.909
		c2.407-3.523,7.213-4.43,10.738-2.023c3.524,2.406,4.43,7.213,2.024,10.737l-8.132,11.909
		C367.076,125.32,362.271,126.236,358.741,123.825z"/>
	<path style="fill:#7E7F7F;" d="M328.401,121.801l-8.131-11.909c-2.407-3.524-1.5-8.332,2.024-10.738
		c3.523-2.406,8.331-1.5,10.737,2.024l8.131,11.909c2.407,3.524,1.5,8.331-2.024,10.738
		C335.607,126.237,330.802,125.318,328.401,121.801z"/>
	<path style="fill:#7E7F7F;" d="M386.026,164.986c-2.114-3.706-0.823-8.425,2.883-10.539l18.532-10.57l3.531-10.749
		c1.331-4.056,5.698-6.259,9.751-4.931c4.054,1.332,6.261,5.699,4.93,9.751c-4.379,11.752-3.751,15.47-7.971,17.876l-21.116,12.044
		C392.859,169.984,388.139,168.692,386.026,164.986z"/>
	<path style="fill:#7E7F7F;" d="M398.973,250.625l-0.856-7.781l-15.485-16.505c-2.92-3.113-2.764-8.002,0.349-10.921
		c3.112-2.919,8-2.763,10.921,0.348c16.531,18.308,18.807,18.408,19.293,22.827l1.137,10.344c0.466,4.242-2.594,8.057-6.835,8.524
		C403.222,257.926,399.436,254.839,398.973,250.625z"/>
	<path style="fill:#7E7F7F;" d="M430.002,213.308l-11.877-13.71h-17.344c-4.267,0-7.726-3.459-7.726-7.726s3.459-7.726,7.726-7.726
		h20.873c2.242,0,4.372,0.974,5.839,2.668l14.187,16.378c2.794,3.224,2.444,8.104-0.781,10.898
		C437.669,216.889,432.79,216.526,430.002,213.308z"/>
	<path style="fill:#7E7F7F;" d="M301.288,167.87c-19.752-11.938-23.046-11.518-24.629-16.345l-4.459-13.576
		c-1.332-4.055,0.876-8.419,4.93-9.751c4.054-1.334,8.419,0.876,9.751,4.931l3.53,10.749l18.532,10.57
		c3.707,2.114,4.998,6.832,2.883,10.539C309.713,168.694,304.993,169.984,301.288,167.87z"/>
	<path style="fill:#7E7F7F;" d="M290.356,257.461c-4.242-0.466-7.302-4.283-6.835-8.524c1.311-8.727,0.346-11.763,3.182-14.787
		l17.248-18.384c2.919-3.112,7.808-3.268,10.921-0.348c3.112,2.92,3.268,7.808,0.349,10.921l-15.485,16.505l-0.855,7.781
		C298.418,254.832,294.639,257.927,290.356,257.461z"/>
	<path style="fill:#7E7F7F;" d="M256.952,214.09c-3.226-2.794-3.575-7.674-0.781-10.899l14.188-16.378
		c1.468-1.694,3.599-2.667,5.839-2.667h20.873c4.267,0,7.726,3.459,7.726,7.726s-3.459,7.726-7.726,7.726h-17.344L267.85,213.31
		C265.065,216.523,260.188,216.891,256.952,214.09z"/>
</g>
<path style="fill:#666666;" d="M319.06,135.958c-1.699,4.989,1.973,10.179,7.242,10.179h45.157c5.328,0,9.058-5.254,7.322-10.29
	C369.006,107.489,328.721,107.587,319.06,135.958z"/>
<path style="fill:#535454;" d="M349.346,135.957c2.558-7.509,7.878-13.729,14.737-17.491c-17.209-9.439-38.73-0.987-45.023,17.491
	c-1.699,4.989,1.972,10.179,7.242,10.179h30.286C351.318,146.136,347.647,140.946,349.346,135.957z"/>
<path id="SVGCleanerId_0" style="fill:#F76969;" d="M372.545,146.136h-45.704c-5.227,0-10.226,2.12-13.873,5.864
	c-30.311,31.125-9.163,83.47,33.947,85.165c46.749,1.837,70.045-55.563,36.135-86.98
	C380.203,147.547,376.427,146.136,372.545,146.136z"/>
<g>
	<path id="SVGCleanerId_0_1_" style="fill:#F76969;" d="M372.545,146.136h-45.704c-5.227,0-10.226,2.12-13.873,5.864
		c-30.311,31.125-9.163,83.47,33.947,85.165c46.749,1.837,70.045-55.563,36.135-86.98
		C380.203,147.547,376.427,146.136,372.545,146.136z"/>
</g>
<path style="fill:#EA5757;" d="M370.287,227.487c-40.887-1.607-62.761-49.322-37.305-81.352c-3.302,0.428-12.419-1.934-20.014,5.864
	c-9.463,9.718-15.026,23.251-14.14,38.08c2.363,39.568,48.406,61.164,80.376,36.962
	C376.302,227.441,373.325,227.607,370.287,227.487z"/>
<path style="fill:#F94A46;" d="M328.285,146.136c-6.4,0-12.534,2.68-16.798,7.452c-28.624,32.037-6.003,83.617,37.453,83.617
	v-91.069L328.285,146.136L328.285,146.136z"/>
<path style="fill:#EA3939;" d="M348.94,237.201v-15.494c-28.134-14.925-35.306-51.227-15.958-75.571
	c-4.673,0.602-17.276-4.172-28.659,17.863c-0.786,1.519-1.655,3.424-2.292,5.093c-0.655,1.712-1.369,3.925-1.954,6.421
	C292.654,207.145,316.888,237.201,348.94,237.201z"/>
<g>
	<path style="fill:#F9F9F9;" d="M329.364,180.061c-3.042-2.048-7.151-1.634-9.745,0.959c-4.28,4.276-2.239,11.742,3.956,13.042
		c5.245,1.087,10.19-3.602,9.076-9.086C332.557,184.48,331.055,181.151,329.364,180.061z"/>
	<path style="fill:#F9F9F9;" d="M377.06,180.061c-2.098-1.412-4.819-1.714-7.242-0.71c-5.801,2.441-6.367,10.234-1.329,13.557
		c5.664,3.814,13.224-1.206,11.858-7.932C380.253,184.48,378.751,181.151,377.06,180.061z"/>
</g>
<g>
</g>
<g>
</g>
<g>
</g>
<g>
</g>
<g>
</g>
<g>
</g>
<g>
</g>
<g>
</g>
<g>
</g>
<g>
</g>
<g>
</g>
<g>
</g>
<g>
</g>
<g>
</g>
<g>
</g>
</svg>
