<?xml version="1.0" encoding="iso-8859-1"?>
<!-- Generator: Adobe Illustrator 19.0.0, SVG Export Plug-In . SVG Version: 6.00 Build 0)  -->
<svg version="1.1" id="Capa_1" xmlns="http://www.w3.org/2000/svg" xmlns:xlink="http://www.w3.org/1999/xlink" x="0px" y="0px"
	 viewBox="0 0 512 512" style="enable-background:new 0 0 512 512;" xml:space="preserve">
<path style="fill:#70B5E8;" d="M374.719,22.237c-2.579-12.605-13.732-22.088-27.1-22.088c-63.573,0-220.903,0-277.984,0
	c-24.761,0-17.13,0-41.898,0c-15.305,0-27.662,12.41-27.662,27.662c0,4.042,0,250.742,0,263.78v56.101
	c0,15.278,12.385,27.662,27.663,27.662h119.779h80.323h119.779c15.278,0,27.663-12.384,27.663-27.662
	C375.281,347.533,375.641,26.74,374.719,22.237z"/>
<path style="fill:#52A5D8;" d="M32.25,347.693v-56.101c0-13.004,0-259.72,0-263.78c0-15.245,12.351-27.662,27.662-27.662
	c-19.919,0-12.258,0-32.176,0c-15.305,0-27.662,12.41-27.662,27.662v47.291v216.489v56.101c0,15.278,12.385,27.662,27.663,27.662
	h32.176C44.635,375.355,32.25,362.971,32.25,347.693z"/>
<path style="fill:#666666;" d="M375.281,27.812c0-15.278-12.384-27.662-27.662-27.662H27.737C12.46,0.15,0.075,12.535,0.075,27.812
	v47.108h375.206V27.812z"/>
<path style="fill:#535454;" d="M59.913,0.149c-32.772,0-38.783-1.505-48.081,5.038C4.397,10.423,0.075,18.872,0.075,27.812v47.108
	h32.176V27.812C32.25,12.568,44.602,0.149,59.913,0.149z"/>
<path style="fill:#F94A46;" d="M34.606,42.994c-5.399-5.24-0.514-14.567,6.972-13.029c0.495,0.094,0.979,0.247,1.443,0.433
	c0.463,0.196,0.917,0.434,1.329,0.711c0.422,0.289,0.824,0.608,1.174,0.969c0.361,0.35,0.68,0.752,0.968,1.174
	c0.278,0.413,0.515,0.865,0.711,1.329c0.185,0.464,0.339,0.958,0.433,1.442c0.103,0.505,0.154,1.01,0.154,1.515
	c0,0.505-0.051,1.009-0.154,1.514c-0.093,0.484-0.248,0.979-0.433,1.443c-0.196,0.463-0.433,0.917-0.711,1.329
	c-0.288,0.421-0.608,0.824-0.968,1.174c-0.35,0.36-0.752,0.68-1.174,0.958c-0.413,0.289-0.866,0.526-1.329,0.711
	c-0.464,0.195-0.948,0.35-1.443,0.443C38.992,45.636,36.355,44.756,34.606,42.994z"/>
<path style="fill:#FFB70D;" d="M69.367,45.26c-2.039,0-4.027-0.824-5.459-2.266c-0.361-0.35-0.68-0.753-0.968-1.174
	c-0.278-0.413-0.515-0.866-0.711-1.329c-0.186-0.464-0.34-0.959-0.433-1.443c-0.103-0.505-0.154-1.009-0.154-1.514
	c0-0.505,0.051-1.01,0.154-1.515c0.093-0.484,0.247-0.978,0.433-1.442c0.196-0.464,0.433-0.917,0.711-1.329
	c0.288-0.423,0.608-0.824,0.968-1.174c1.792-1.802,4.46-2.627,6.963-2.112c0.495,0.094,0.989,0.247,1.452,0.433
	c0.464,0.196,0.917,0.434,1.329,0.711c0.423,0.289,0.825,0.608,1.175,0.969c0.361,0.35,0.68,0.752,0.958,1.174
	c0.278,0.413,0.525,0.865,0.711,1.329c0.196,0.464,0.35,0.958,0.443,1.442c0.103,0.505,0.155,1.01,0.155,1.515
	c0,0.505-0.052,1.009-0.155,1.514c-0.093,0.484-0.247,0.979-0.443,1.443c-0.186,0.463-0.433,0.917-0.711,1.329
	c-0.278,0.421-0.598,0.824-0.958,1.174c-0.35,0.36-0.752,0.68-1.175,0.958c-0.412,0.289-0.865,0.526-1.329,0.711
	c-0.463,0.195-0.958,0.35-1.452,0.443C70.376,45.209,69.871,45.26,69.367,45.26z"/>
<path style="fill:#92B620;" d="M98.669,45.26c-2.039,0-4.027-0.824-5.469-2.266c-0.35-0.35-0.68-0.753-0.958-1.174
	c-0.278-0.413-0.515-0.866-0.711-1.329c-0.196-0.464-0.34-0.959-0.443-1.443c-0.093-0.505-0.144-1.009-0.144-1.514
	c0-0.505,0.052-1.01,0.144-1.515c0.103-0.484,0.247-0.978,0.443-1.442c0.196-0.464,0.433-0.917,0.711-1.329
	c0.278-0.423,0.608-0.824,0.958-1.174c1.802-1.802,4.46-2.627,6.973-2.112c0.495,0.094,0.979,0.247,1.453,0.433
	c0.463,0.196,0.907,0.434,1.329,0.711c0.422,0.289,0.824,0.608,1.175,0.969c0.36,0.35,0.68,0.752,0.958,1.174
	c0.278,0.413,0.515,0.865,0.711,1.329c0.196,0.464,0.34,0.958,0.443,1.442c0.103,0.505,0.154,1.01,0.154,1.515
	c0,0.505-0.051,1.009-0.154,1.514c-0.103,0.484-0.248,0.979-0.443,1.443c-0.196,0.463-0.433,0.917-0.711,1.329
	c-0.278,0.421-0.598,0.824-0.958,1.174c-0.351,0.36-0.753,0.68-1.175,0.958c-0.423,0.289-0.866,0.526-1.329,0.711
	c-0.474,0.195-0.958,0.35-1.453,0.443C99.677,45.209,99.173,45.26,98.669,45.26z"/>
<g>
	<path style="fill:#7E7F7F;" d="M280.859,45.26H134.655c-4.266,0-7.725-3.458-7.725-7.725s3.458-7.725,7.725-7.725h146.203
		c4.266,0,7.725,3.458,7.725,7.725S285.124,45.26,280.859,45.26z"/>
	<path style="fill:#7E7F7F;" d="M335.37,45.26h-20.106c-4.266,0-7.725-3.458-7.725-7.725s3.459-7.725,7.725-7.725h20.106
		c4.266,0,7.725,3.458,7.725,7.725S339.635,45.26,335.37,45.26z"/>
</g>
<path style="fill:#F4A403;" d="M474.848,300.819c0-5.095-4.131-9.226-9.226-9.226H330.376c-3.691,0-7.142-1.826-9.217-4.879
	l-10.736-13.728c-2.162-3.179-5.757-5.083-9.601-5.083h-59.558c-7.414,0-13.424,6.01-13.424,13.424v212.678
	c0,9.938,8.057,17.995,17.995,17.995h229.013C474.848,505.835,474.848,300.714,474.848,300.819z"/>
<path style="fill:#ED9303;" d="M294.443,494.006V281.328c0-6.138,4.125-11.303,9.75-12.902c-1.082-0.329-2.211-0.522-3.371-0.522
	h-59.558c-7.414,0-13.424,6.01-13.424,13.424v212.678c0,9.938,8.057,17.995,17.995,17.995h66.604
	C302.499,512,294.443,503.944,294.443,494.006z"/>
<path style="fill:#84C7EF;" d="M281.006,170.625H177.639c-4.266,0-7.725-3.458-7.725-7.725c0-4.267,3.458-7.725,7.725-7.725h103.368
	c4.266,0,7.725,3.458,7.725,7.725C288.731,167.167,285.272,170.625,281.006,170.625z"/>
<path style="fill:#F9F9F9;" d="M238.724,133.547h-24.846c-4.266,0-7.725-3.458-7.725-7.725s3.459-7.725,7.725-7.725h24.846
	c4.266,0,7.725,3.458,7.725,7.725C246.448,130.089,242.99,133.547,238.724,133.547z"/>
<path style="fill:#84C7EF;" d="M324.04,133.547h-48.037c-4.266,0-7.725-3.458-7.725-7.725s3.458-7.725,7.725-7.725h48.037
	c4.266,0,7.725,3.458,7.725,7.725S328.307,133.547,324.04,133.547z"/>
<path style="fill:#A4D9F4;" d="M172.059,133.547H49.198c-4.266,0-7.725-3.458-7.725-7.725s3.459-7.725,7.725-7.725h122.861
	c4.266,0,7.725,3.458,7.725,7.725C179.784,130.089,176.326,133.547,172.059,133.547z"/>
<path style="fill:#F9F9F9;" d="M141.574,170.625h-36.955c-4.266,0-7.725-3.458-7.725-7.725c0-4.267,3.458-7.725,7.725-7.725h36.955
	c4.266,0,7.725,3.458,7.725,7.725C149.299,167.167,145.84,170.625,141.574,170.625z"/>
<path style="fill:#FFB70D;" d="M66.812,170.625H47.428c-4.266,0-7.725-3.458-7.725-7.725c0-4.267,3.458-7.725,7.725-7.725h19.383
	c4.266,0,7.725,3.458,7.725,7.725C74.537,167.167,71.078,170.625,66.812,170.625z"/>
<path style="fill:#F9F9F9;" d="M319.756,169.327c-5.752-3.931-3.892-12.723,2.77-13.997c4.735-0.978,9.238,2.69,9.238,7.57
	c0,3.692-2.665,6.905-6.22,7.57C324.572,170.674,321.327,170.386,319.756,169.327z"/>
<path style="fill:#FFB70D;" d="M189.54,318.145c-5.122-3.378-4.358-11.21,1.34-13.554c7.923-3.182,14.278,6.733,8.415,12.595
	C197.432,319.049,192.468,320.138,189.54,318.145z"/>
<path style="fill:#F9F9F9;" d="M193.831,244.781H90.463c-4.266,0-7.725-3.458-7.725-7.725s3.458-7.725,7.725-7.725h103.368
	c4.266,0,7.725,3.458,7.725,7.725S198.098,244.781,193.831,244.781z"/>
<path style="fill:#FFB70D;" d="M157.591,207.703h-24.846c-4.266,0-7.725-3.458-7.725-7.725s3.458-7.725,7.725-7.725h24.846
	c4.266,0,7.725,3.458,7.725,7.725S161.857,207.703,157.591,207.703z"/>
<path style="fill:#F9F9F9;" d="M95.466,207.703H47.428c-4.266,0-7.725-3.458-7.725-7.725s3.458-7.725,7.725-7.725h48.037
	c4.266,0,7.725,3.458,7.725,7.725S99.732,207.703,95.466,207.703z"/>
<path style="fill:#A4D9F4;" d="M141.574,282.374h-36.955c-4.266,0-7.725-3.458-7.725-7.725s3.458-7.725,7.725-7.725h36.955
	c4.266,0,7.725,3.458,7.725,7.725C149.299,278.916,145.84,282.374,141.574,282.374z"/>
<path style="fill:#84C7EF;" d="M66.812,282.374H47.428c-4.266,0-7.725-3.458-7.725-7.725s3.458-7.725,7.725-7.725h19.383
	c4.266,0,7.725,3.458,7.725,7.725C74.537,278.916,71.078,282.374,66.812,282.374z"/>
<path style="fill:#F9F9F9;" d="M157.591,319.452h-24.846c-4.266,0-7.725-3.458-7.725-7.725s3.458-7.725,7.725-7.725h24.846
	c4.266,0,7.725,3.458,7.725,7.725S161.857,319.452,157.591,319.452z"/>
<path style="fill:#A4D9F4;" d="M95.466,319.452H47.428c-4.266,0-7.725-3.458-7.725-7.725s3.458-7.725,7.725-7.725h48.037
	c4.266,0,7.725,3.458,7.725,7.725S99.732,319.452,95.466,319.452z"/>
<path style="fill:#84C7EF;" d="M322.271,207.703H199.41c-4.266,0-7.725-3.458-7.725-7.725s3.458-7.725,7.725-7.725h122.861
	c4.266,0,7.725,3.458,7.725,7.725S326.537,207.703,322.271,207.703z"/>
<path style="fill:#A4D9F4;" d="M266.851,244.781h-36.955c-4.266,0-7.725-3.458-7.725-7.725s3.458-7.725,7.725-7.725h36.955
	c4.266,0,7.725,3.458,7.725,7.725S271.116,244.781,266.851,244.781z"/>
<g>
	<path style="fill:#84C7EF;" d="M324.04,244.781h-19.383c-4.266,0-7.725-3.458-7.725-7.725s3.458-7.725,7.725-7.725h19.383
		c4.266,0,7.725,3.458,7.725,7.725S328.307,244.781,324.04,244.781z"/>
	<path style="fill:#84C7EF;" d="M43.144,243.474c-1.758-1.162-2.916-2.979-3.285-4.904c-1.388-6.816,6.259-11.713,11.855-7.941
		c5.848,4.001,3.762,12.748-2.77,13.997C47.961,244.827,44.791,244.582,43.144,243.474z"/>
	<path style="fill:#84C7EF;" d="M193.831,282.374h-16.192c-4.266,0-7.725-3.458-7.725-7.725s3.458-7.725,7.725-7.725h16.193
		c4.266,0,7.725,3.458,7.725,7.725C201.556,278.916,198.098,282.374,193.831,282.374z"/>
</g>
<path style="fill:#FFB70D;" d="M245.835,512c9.938,0,17.995-8.057,17.995-17.995c0-1.193,0-162.497,0-161.813
	c0-4.221,3.422-7.643,7.643-7.643c10.296,0,232.71,0,228.017,0c6.869,0,12.437,5.568,12.437,12.437v157.017
	c0,9.938-8.057,17.995-17.995,17.995C479.34,512,260.48,512,245.835,512"/>
<path style="fill:#F4A403;" d="M294.188,498.037c0-25.211,0-146.564,0-165.663c0-4.321,3.422-7.824,7.643-7.824h-30.359
	c-4.221,0-7.643,3.422-7.643,7.642c0,18.73,0,127.993,0,161.813c0,9.938-8.057,17.995-17.995,17.995h42.077
	C291.748,508.622,294.188,503.626,294.188,498.037z"/>
<g>
	<path style="fill:#FFFFFF;" d="M358.761,447.494c-1.976,0-3.954-0.755-5.462-2.262l-19.063-19.063
		c-1.449-1.45-2.262-3.414-2.262-5.462c0-2.048,0.814-4.013,2.262-5.462l19.063-19.063c3.017-3.015,7.908-3.015,10.924,0
		c3.017,3.017,3.017,7.908,0,10.925l-13.601,13.6l13.601,13.6c3.017,3.017,3.017,7.908,0,10.925
		C362.715,446.74,360.738,447.494,358.761,447.494z"/>
	<path style="fill:#FFFFFF;" d="M422.461,447.494c-1.976,0-3.954-0.755-5.462-2.262c-3.017-3.017-3.017-7.908,0-10.925l13.601-13.6
		l-13.601-13.6c-3.017-3.017-3.017-7.908,0-10.925c3.016-3.015,7.908-3.015,10.924,0l19.063,19.063
		c3.017,3.017,3.017,7.908,0,10.925l-19.063,19.063C426.415,446.74,424.438,447.494,422.461,447.494z"/>
	<path style="fill:#FFFFFF;" d="M379.071,459.548c-0.878,0-1.769-0.151-2.641-0.468c-4.009-1.46-6.076-5.892-4.617-9.901
		l21.411-58.825c1.459-4.008,5.891-6.074,9.901-4.617c4.009,1.46,6.076,5.892,4.617,9.901l-21.411,58.825
		C385.189,457.599,382.226,459.548,379.071,459.548z"/>
</g>
<g>
</g>
<g>
</g>
<g>
</g>
<g>
</g>
<g>
</g>
<g>
</g>
<g>
</g>
<g>
</g>
<g>
</g>
<g>
</g>
<g>
</g>
<g>
</g>
<g>
</g>
<g>
</g>
<g>
</g>
</svg>
