<?xml version="1.0" encoding="iso-8859-1"?>
<!-- Generator: Adobe Illustrator 19.0.0, SVG Export Plug-In . SVG Version: 6.00 Build 0)  -->
<svg version="1.1" id="Capa_1" xmlns="http://www.w3.org/2000/svg" xmlns:xlink="http://www.w3.org/1999/xlink" x="0px" y="0px"
	 viewBox="0 0 512 512" style="enable-background:new 0 0 512 512;" xml:space="preserve">
<path style="fill:#EAEAEA;" d="M357.782,2.163L357.782,2.163c-7.996-3.156-3.103-1.927-220.013-1.927l0,0H69.702
	C20.008,0.269,26.818-0.167,19.587,1.479C7.068,5.908,0.154,16.247,0.154,27.893c0,341.49-0.468,321.809,0.977,327.113
	c3.224,11.835,14.019,20.373,26.681,20.373c344.046,0,321.936,0.272,326.297-0.769c12.323-2.956,21.188-14.008,21.188-26.889
	c0-199.627,0-120.144,0-319.828C375.298,16.878,368.876,6.657,357.782,2.163z"/>
<path style="fill:#DDDDDD;" d="M33.395,355.004c-1.447-5.31-0.977,16.432-0.977-279.829V27.893c0-19.551,17.412-25.637,17.515-25.73
	l0,0c3.193-1.259,6.627-1.927,10.142-1.927C27.851,0.263,24.672-0.599,17.669,2.163l0,0C6.879,6.495,0.154,16.668,0.154,27.893
	c0,341.49-0.469,321.809,0.977,327.112C4.18,366.2,13.968,374.5,25.918,375.306c2.032,0.137,0.202,0.042,34.158,0.072
	C47.411,375.378,36.618,366.837,33.395,355.004z"/>
<path style="fill:#FFB70D;" d="M323.034,111.481c-9.713,0-257.827,0-271.448,0c-6.797,0-12.357,5.561-12.357,12.357
	c0,26.169,0,48.468,0,75.683c0,6.797,5.56,12.357,12.357,12.357c27.32,0,228.512,0,271.448,0c6.797,0,12.357-5.56,12.357-12.357
	c0-27.173,0-49.431,0-75.683C335.392,117.042,329.831,111.481,323.034,111.481z"/>
<path style="fill:#F4A403;" d="M70.123,199.522c0-27.173,0-49.431,0-75.683c0-6.797,5.56-12.357,12.357-12.357
	c-10.629,0-19.858,0-30.893,0c-6.797,0-12.357,5.561-12.357,12.357c0,26.169,0,48.468,0,75.683c0,6.797,5.56,12.357,12.357,12.357
	c6.704,0,19.332,0,30.893,0C75.684,211.879,70.123,206.319,70.123,199.522z"/>
<path style="fill:#666666;" d="M375.297,27.893c0-15.275-12.383-27.657-27.658-27.657H27.811c-15.275,0-27.658,12.383-27.658,27.657
	v47.101h375.144L375.297,27.893L375.297,27.893z"/>
<path style="fill:#535454;" d="M49.934,2.163L49.934,2.163c3.193-1.259,6.627-1.927,10.143-1.927
	c-16.181,0.137-29.547-0.3-36.479,0.318l0,0c-2.473,0.379-4.372,0.995-5.928,1.608l0,0l0,0l0,0
	C7.498,6.107,0.154,16.198,0.154,27.893v47.101h32.265V27.893C32.419,8.342,49.831,2.256,49.934,2.163z"/>
<path style="fill:#F94A46;" d="M32.563,39.128c-0.835-4.531,2.188-8.349,6.065-9.083c6.715-1.379,11.746,6.196,7.929,11.853
	c-0.278,0.421-0.608,0.824-0.958,1.174C41.292,47.381,33.871,45.266,32.563,39.128z"/>
<path style="fill:#FFB70D;" d="M61.86,39.128c-0.598-2.944,0.578-6.087,3.285-7.939c7.887-5.184,16.192,5.444,9.752,11.883
	C70.627,47.344,63.176,45.303,61.86,39.128z"/>
<path style="fill:#92B620;" d="M91.157,39.128c-0.848-4.153,1.913-8.297,6.065-9.083c7.413-1.526,12.391,7.757,6.961,13.027
	C99.925,47.362,92.472,45.296,91.157,39.128z"/>
<g>
	<path style="fill:#7E7F7F;" d="M280.89,45.338H134.712c-4.266,0-7.724-3.457-7.724-7.724s3.458-7.724,7.724-7.724h146.178
		c4.266,0,7.724,3.457,7.724,7.724S285.155,45.338,280.89,45.338z"/>
	<path style="fill:#7E7F7F;" d="M335.392,45.338h-20.104c-4.266,0-7.724-3.457-7.724-7.724s3.458-7.724,7.724-7.724h20.104
		c4.266,0,7.724,3.457,7.724,7.724S339.658,45.338,335.392,45.338z"/>
</g>
<path style="fill:#70B5E8;" d="M452.32,193.287c-13.551-13.551-30.9-22.193-50.063-22.193c-18.143,0-157.662-0.385-147.73,0.514
	c-6.271,1.676-10.896,7.381-10.896,14.18c0,171.227,0,95.599,0,311.519c0,8.114,6.579,14.693,14.693,14.693
	c11.647,0,228.882,0,238.901,0c8.114,0,14.693-6.579,14.693-14.693c0-81.042,0-192.111,0-222.674
	c0-15.243-7.085-28.833-17.863-39.61L452.32,193.287z"/>
<path style="fill:#52A5D8;" d="M275.321,497.306c0-90.093,0-214.65,0-311.519c0-8.293,6.809-14.693,14.694-14.693
	c-35.406,0-32.538-0.191-35.489,0.514c-6.271,1.676-10.896,7.381-10.896,14.18c0,171.227,0,95.598,0,311.519
	c0,8.114,6.579,14.693,14.693,14.693c2.493,0,14.409,0,31.691,0C281.9,512,275.321,505.422,275.321,497.306z"/>
<g>
	<path style="fill:#A4D9F4;" d="M488.809,250.826c-36.848,0-45.872,0.193-45.726-0.514h0.001
		c-6.271-1.676-10.897-7.381-10.897-14.18v-34.846c-0.01-1.883-0.719-30.192-34.726-30.192c1.767,0.396,20-2.262,40.697,9.573
		c14.231,8.149,20.466,17.949,30.206,26.605l0,0l26.72,26.721c10.074,10.074,16.252,23.84,16.775,38.628
		C510.855,254.716,496.474,251.344,488.809,250.826z"/>
	<path style="fill:#A4D9F4;" d="M511.859,272.619c0.036,0.654,0.06,1.321,0.06,2.013
		C511.919,273.958,511.882,273.29,511.859,272.619z"/>
</g>
<g>
	<path style="fill:#84C7EF;" d="M473.976,250.312L473.976,250.312c-6.271-1.676-10.896-7.381-10.896-14.18v-33.934
		c-7.133-7.271-13.413-14.941-24.922-21.531c-18.041-10.317-34.206-9.621-39.23-9.535c32.536,0.816,33.248,28.298,33.258,30.153
		v34.846c0,6.8,4.626,12.504,10.897,14.18h-0.001c-0.136,0.662,7.769,0.535,39.02,0.516
		C475.944,250.782,473.906,250.65,473.976,250.312z"/>
	<path style="fill:#84C7EF;" d="M398.929,171.132c-0.49-0.012-0.964-0.038-1.467-0.038
		C397.687,171.145,398.189,171.145,398.929,171.132z"/>
</g>
<g>
	<path style="fill:#FFFFFF;" d="M323.306,334.356c-3.558-1.956-11.792-2.078-15.721,1.993c-2.112,2.191-3.168,5.593-3.168,10.207
		c0.772,29.258-1.984,37.636,3.227,42.937c3.864,3.936,11.956,4.034,15.662,1.994c8.048-4.424,3.334-12.695,7.976-15.016
		c2.993-1.497,8.621-1.484,11.027,0.469c5.046,4.109,2.319,29.212-26.162,29.212c-16.456,0-26.982-8.768-26.982-26.864
		c0.504-29.174-1.32-37.027,2.17-45.226c4.37-10.282,13.805-14.371,24.93-14.371c28.454,0,30.965,24.484,26.044,28.332
		c-2.509,1.963-8.295,1.834-11.144,0.41C326.787,346.243,331.365,338.795,323.306,334.356z"/>
	<path style="fill:#FFFFFF;" d="M386.127,390.316c5.122-3.213,5.037-10.999,1.115-14.841c-9.273-9.074-23.77-8.453-32.028-21.527
		c-4.018-6.364-5.359-21.611,6.394-29.624c10.722-7.301,30.98-6.408,39.067-0.586c5.737,4.14,0.48,15.825-6.277,12.142
		c-3.086-1.68-5.006-2.4-7.332-3.05c-4.088-1.142-11.84-1.156-15.954,1.7c-2.308,1.605-3.462,3.814-3.462,6.629
		c0,12.199,24.739,9.929,34.844,27.393c4.867,8.421,5.567,30.047-13.902,36.308c-19.3,6.213-45.708-5.916-36.309-18.242
		c2.625-3.448,5.55-3.616,8.153-1.467c3.664,3.039,5.52,4.565,9.033,6.219C373.517,393.275,380.899,393.591,386.127,390.316z"/>
	<path style="fill:#FFFFFF;" d="M451.294,382.573c0-17.401-37.658-12.384-37.658-40.004c0-27.591,37.762-26.399,48.276-18.83
		c2.531,1.826,2.929,4.248,2.17,7.156c-1.114,4.258-4.55,7.111-8.447,4.986c-3.086-1.68-5.006-2.4-7.332-3.05
		c-6.385-1.782-19.416-1-19.416,8.329c0,14.368,37.659,9.705,37.659,39.887c0,31.462-41.655,30.314-52.969,16.072
		c-2.246-2.822-2.452-5.219-1.525-7.802c0.935-2.597,3.352-5.573,6.158-5.573c3.579,0,5.089,4.14,12.494,7.627
		C437.014,394.338,451.294,393.361,451.294,382.573z"/>
</g>
<path style="fill:#52A5D8;" d="M193.833,338.509H52.686c-7.402,0-13.457-6.056-13.457-13.457v-67.28
	c0-7.402,6.056-13.457,13.457-13.457h141.147c7.402,0,13.457,6.056,13.457,13.457v67.28
	C207.291,332.454,201.235,338.509,193.833,338.509z"/>
<path style="fill:#3094C6;" d="M70.123,325.052v-67.28c0-7.402,6.056-13.457,13.457-13.457H52.686
	c-7.401,0-13.457,6.055-13.457,13.457v67.28c0,7.402,6.056,13.457,13.457,13.457h30.893
	C76.179,338.509,70.123,332.453,70.123,325.052z"/>
<g>
</g>
<g>
</g>
<g>
</g>
<g>
</g>
<g>
</g>
<g>
</g>
<g>
</g>
<g>
</g>
<g>
</g>
<g>
</g>
<g>
</g>
<g>
</g>
<g>
</g>
<g>
</g>
<g>
</g>
</svg>
