<?xml version="1.0" encoding="iso-8859-1"?>
<!-- Generator: Adobe Illustrator 19.0.0, SVG Export Plug-In . SVG Version: 6.00 Build 0)  -->
<svg version="1.1" id="Capa_1" xmlns="http://www.w3.org/2000/svg" xmlns:xlink="http://www.w3.org/1999/xlink" x="0px" y="0px"
	 viewBox="0 0 512.001 512.001" style="enable-background:new 0 0 512.001 512.001;" xml:space="preserve">
<path style="fill:#EAEAEA;" d="M380.521,22.694C377.903,9.897,366.58,0.271,353.01,0.271c-91.532,0-227.47,0-324.734,0
	C12.77,0.271,0.194,12.84,0.194,28.353v48.009c0,13.158,0,264.944,0,276.724c0,15.509,12.572,28.082,28.082,28.082
	c11.759,0,203.501,0,213.708,0H353.01c15.509,0,28.082-12.572,28.082-28.082C381.091,352.941,381.36,26.795,380.521,22.694z"/>
<path style="fill:#DDDDDD;" d="M32.948,353.087c0-11.842,0-263.635,0-276.724c0.188-49.542-0.43-48.781,0.571-53.668
	C36.137,9.897,47.46,0.271,61.03,0.271c-20.277,0-12.479,0-32.754,0C12.77,0.271,0.194,12.84,0.194,28.353v48.009
	c0,13.158,0,264.944,0,276.724c0,15.509,12.572,28.082,28.082,28.082H61.03C45.52,381.168,32.948,368.596,32.948,353.087z"/>
<path style="fill:#666666;" d="M381.091,28.354c0-15.509-12.572-28.082-28.082-28.082H28.276c-15.509,0-28.082,12.573-28.082,28.082
	v47.823h380.897V28.354z"/>
<path style="fill:#535454;" d="M61.03,0.271c-31.588,0-44.698-3.073-55.389,11.466c-7.26,9.886-5.26,15.462-5.446,64.439h32.754
	V28.354C32.948,12.848,45.516,0.271,61.03,0.271z"/>
<path style="fill:#F94A46;" d="M33.555,35.224c1.818-4.558,7.547-6.242,11.585-3.524c4.315,2.951,4.529,8.827,1.192,12.065
	C40.244,49.899,30.304,42.928,33.555,35.224z"/>
<path style="fill:#FFB70D;" d="M63.291,35.224c1.969-4.669,7.615-6.207,11.596-3.524c4.251,2.904,4.581,8.777,1.193,12.065
	C70.092,49.796,60.108,43.175,63.291,35.224z"/>
<path style="fill:#92B620;" d="M94.731,43.766c-2.31-2.31-2.869-5.761-1.693-8.542c2.717-6.442,11.768-6.431,14.481,0
	c1.281,3.036,0.426,6.483-1.693,8.542C104.361,45.23,97.781,46.816,94.731,43.766z"/>
<g>
	<path style="fill:#7E7F7F;" d="M285.236,46.067h-148.42c-4.331,0-7.842-3.51-7.842-7.842s3.511-7.842,7.842-7.842h148.42
		c4.331,0,7.842,3.51,7.842,7.842S289.566,46.067,285.236,46.067z"/>
	<path style="fill:#7E7F7F;" d="M340.574,46.067h-20.412c-4.331,0-7.842-3.51-7.842-7.842s3.511-7.842,7.842-7.842h20.412
		c4.331,0,7.842,3.51,7.842,7.842S344.905,46.067,340.574,46.067z"/>
	<path style="fill:#7E7F7F;" d="M279.97,157.046c4.331,0,7.842-3.511,7.842-7.842v-27.744c0-4.332-3.511-7.842-7.842-7.842
		c-4.331,0-7.842,3.51-7.842,7.842v27.744C272.129,153.537,275.64,157.046,279.97,157.046z"/>
</g>
<path style="fill:#CCCCCC;" d="M296.597,135.334c0-11.973,9.333-21.714,20.806-21.714c11.473,0,20.807,9.741,20.807,21.714
	c0,11.972-9.334,21.713-20.807,21.713C305.931,157.046,296.597,147.306,296.597,135.334z M312.281,135.334
	c0,3.324,2.298,6.029,5.122,6.029c2.825,0,5.123-2.705,5.123-6.029c0-3.326-2.298-6.03-5.123-6.03
	C314.579,129.304,312.281,132.008,312.281,135.334z"/>
<path style="fill:#7E7F7F;" d="M126.774,157.046c4.331,0,7.842-3.511,7.842-7.842v-27.744c0-4.332-3.511-7.842-7.842-7.842
	c-4.331,0-7.842,3.51-7.842,7.842v27.744C118.932,153.537,122.442,157.046,126.774,157.046z"/>
<path style="fill:#CCCCCC;" d="M143.4,135.334c0-11.973,9.333-21.714,20.806-21.714c11.473,0,20.806,9.741,20.806,21.714
	c0,11.972-9.333,21.713-20.806,21.713C152.733,157.046,143.4,147.306,143.4,135.334z M159.084,135.334
	c0,3.324,2.298,6.029,5.122,6.029c2.824,0,5.122-2.705,5.122-6.029c0-3.326-2.298-6.03-5.122-6.03
	C161.382,129.304,159.084,132.008,159.084,135.334z"/>
<path style="fill:#7E7F7F;" d="M201.54,157.046c4.331,0,7.842-3.511,7.842-7.842v-27.744c0-4.332-3.511-7.842-7.842-7.842
	s-7.842,3.51-7.842,7.842v27.744C193.698,153.537,197.209,157.046,201.54,157.046z"/>
<path style="fill:#CCCCCC;" d="M219.144,135.334c0-11.973,9.333-21.714,20.806-21.714c11.473,0,20.807,9.741,20.807,21.714
	c0,11.972-9.334,21.713-20.807,21.713C228.477,157.046,219.144,147.306,219.144,135.334z M234.827,135.334
	c0,3.324,2.298,6.029,5.122,6.029c2.825,0,5.123-2.705,5.123-6.029c0-3.326-2.298-6.03-5.123-6.03
	C237.125,129.304,234.827,132.008,234.827,135.334z"/>
<path style="fill:#7E7F7F;" d="M330.368,217.362c4.331,0,7.842-3.511,7.842-7.842v-27.744c0-4.332-3.511-7.842-7.842-7.842
	c-4.331,0-7.842,3.51-7.842,7.842v27.744C322.527,213.852,326.038,217.362,330.368,217.362z"/>
<path style="fill:#CCCCCC;" d="M271.151,195.649c0-11.973,9.334-21.713,20.807-21.713c11.473,0,20.806,9.74,20.806,21.713
	c0,11.972-9.333,21.714-20.806,21.714C280.485,217.362,271.151,207.621,271.151,195.649z M286.835,195.649
	c0,3.326,2.298,6.03,5.123,6.03c2.825,0,5.122-2.705,5.122-6.03s-2.298-6.029-5.122-6.029
	C289.134,189.62,286.835,192.324,286.835,195.649z"/>
<path style="fill:#7E7F7F;" d="M254.625,217.362c4.331,0,7.842-3.511,7.842-7.842v-27.744c0-4.332-3.511-7.842-7.842-7.842
	c-4.331,0-7.842,3.51-7.842,7.842v27.744C246.782,213.852,250.293,217.362,254.625,217.362z"/>
<path style="fill:#CCCCCC;" d="M195.408,195.649c0-11.973,9.333-21.713,20.806-21.713c11.473,0,20.807,9.74,20.807,21.713
	c0,11.972-9.334,21.714-20.807,21.714C204.742,217.362,195.408,207.621,195.408,195.649z M211.092,195.649
	c0,3.326,2.298,6.03,5.122,6.03c2.825,0,5.123-2.705,5.123-6.03s-2.298-6.029-5.123-6.029
	C213.389,189.62,211.092,192.324,211.092,195.649z"/>
<path style="fill:#7E7F7F;" d="M177.171,217.362c4.331,0,7.842-3.511,7.842-7.842v-27.744c0-4.332-3.511-7.842-7.842-7.842
	c-4.331,0-7.842,3.51-7.842,7.842v27.744C169.329,213.852,172.84,217.362,177.171,217.362z"/>
<path style="fill:#CCCCCC;" d="M117.955,195.649c0-11.973,9.333-21.713,20.806-21.713s20.807,9.74,20.807,21.713
	c0,11.972-9.333,21.714-20.807,21.714C127.288,217.362,117.955,207.621,117.955,195.649z M133.638,195.649
	c0,3.326,2.298,6.03,5.122,6.03c2.825,0,5.122-2.705,5.122-6.03s-2.298-6.029-5.122-6.029
	C135.936,189.62,133.638,192.324,133.638,195.649z"/>
<path style="fill:#7E7F7F;" d="M49.32,157.046c4.331,0,7.842-3.511,7.842-7.842v-27.744c0-4.332-3.511-7.842-7.842-7.842
	s-7.842,3.51-7.842,7.842v27.744C41.479,153.537,44.99,157.046,49.32,157.046z"/>
<path style="fill:#CCCCCC;" d="M65.946,135.334c0-11.973,9.333-21.714,20.806-21.714c11.473,0,20.807,9.741,20.807,21.714
	c0,11.972-9.334,21.713-20.807,21.713C75.28,157.046,65.946,147.306,65.946,135.334z M81.63,135.334
	c0,3.324,2.298,6.029,5.122,6.029c2.825,0,5.123-2.705,5.123-6.029c0-3.326-2.298-6.03-5.123-6.03
	C83.928,129.304,81.63,132.008,81.63,135.334z"/>
<path style="fill:#7E7F7F;" d="M99.717,217.362c4.331,0,7.842-3.511,7.842-7.842v-27.744c0-4.332-3.511-7.842-7.842-7.842
	s-7.842,3.51-7.842,7.842v27.744C91.876,213.852,95.387,217.362,99.717,217.362z"/>
<path style="fill:#CCCCCC;" d="M40.501,195.649c0-11.973,9.333-21.713,20.806-21.713s20.807,9.74,20.807,21.713
	c0,11.972-9.334,21.714-20.807,21.714C49.835,217.362,40.501,207.621,40.501,195.649z M56.184,195.649
	c0,3.326,2.298,6.03,5.122,6.03c2.825,0,5.123-2.705,5.123-6.03s-2.298-6.029-5.123-6.029
	C58.483,189.62,56.184,192.324,56.184,195.649z"/>
<circle style="fill:#A4D9F4;" cx="381.095" cy="381.166" r="130.831"/>
<path style="fill:#84C7EF;" d="M383.87,250.785c-63.926-5.233-133.61,51.272-133.61,130.383c0,79.284,69.974,135.589,133.61,130.383
	c-56.813-5.5-101.472-61.77-101.472-130.383S327.057,256.286,383.87,250.785z"/>
<g>
	<path style="fill:#70B5E8;" d="M370.06,388.814h-59.061c-3.267,0-2.996,3.129-2.996,3.129c0.754,18.178,4.17,38.17,10.293,56.199
		c0.352,1.037,1.248,1.795,2.327,1.978c4.305,0.731,10.533,1.629,16.549,2.327c10.703,1.244,21.699,2.016,32.808,2.32
		c1.684,0.046,3.074-1.317,3.074-3v-59.962C373.054,390.155,371.713,388.814,370.06,388.814z"/>
	<path style="fill:#70B5E8;" d="M327.04,292.512c-0.496,0.965,0.308,2.08,1.384,1.934c13.087-1.782,26.369-2.84,39.624-3.252
		c2.794-0.087,5.005-2.394,5.005-5.189v-35.667C342.862,256.367,325.835,294.856,327.04,292.512z"/>
	<path style="fill:#70B5E8;" d="M331.224,468.258c-2.239-0.288-3.887,2.087-2.816,4.075c9.662,17.928,24.888,35.789,44.644,39.668
		l0.001-0.001v-35.438c0-2.925-2.315-5.336-5.238-5.429c-10.981-0.347-21.851-1.136-32.453-2.367
		C333.981,468.604,332.602,468.435,331.224,468.258z"/>
	<path style="fill:#70B5E8;" d="M369.98,307.177c-18.306,0.502-35.682,2.316-49.414,4.658c-1.08,0.184-1.976,0.943-2.328,1.98
		c-6.144,18.116-9.381,37.443-10.242,56.482c0.02,0.783,0.346,2.835,3.22,2.835h58.843c1.653,0,2.993-1.341,2.993-2.993v-59.961
		C373.054,308.493,371.664,307.131,369.98,307.177z"/>
	<path style="fill:#70B5E8;" d="M297.832,316.499c-13.247,3.239-25.48,7.218-36.487,11.907
		c-6.098,13.819-9.872,28.891-10.832,44.726h36.699c3.423,0,5.11-1.814,5.145-4.256l0.006-0.001
		C294.372,327.305,304.263,315.552,297.832,316.499z"/>
</g>
<path style="fill:#52A5D8;" d="M296.703,316.785c-12.81,3.187-24.667,7.066-35.357,11.621c-6.049,13.707-9.866,28.783-10.832,44.726
	h32.098C283.657,352.735,288.649,333.601,296.703,316.785z"/>
<path style="fill:#70B5E8;" d="M432.157,260.679c20.94,24.21,17.133,36.551,28.161,38.978c10.134,2.23,19.832,4.89,28.974,7.948
	C475.23,286.963,455.419,270.551,432.157,260.679z"/>
<path style="fill:#52A5D8;" d="M304.53,298.881c0,0,2.548-0.377,3.933-3.503c5.529-12.509,12.002-24.023,20.936-34.424
	c-22.857,9.842-42.345,26.009-56.264,46.3c9.838-3.251,20.323-6.055,31.401-8.367L304.53,298.881z"/>
<g>
	<path style="fill:#70B5E8;" d="M501.015,328.811c-10.588-4.577-22.348-8.488-34.952-11.689c-2.384-0.606-4.539,1.574-3.906,3.951
		c3.902,14.657,6.302,30.248,7.163,45.577c0.204,3.63,3.181,6.479,6.817,6.479h35.532
		C510.719,357.452,507.009,342.52,501.015,328.811z"/>
	<path style="fill:#70B5E8;" d="M474.035,388.814c-2.466,0-4.48,1.944-4.601,4.408c-0.754,15.322-2.96,30.81-6.815,45.785
		c-0.829,3.22,2.062,6.183,5.279,5.343c11.985-3.129,23.183-6.906,33.304-11.295c6.148-14.187,9.626-29.228,10.491-44.242H474.035z"
		/>
	<path style="fill:#70B5E8;" d="M452.56,468.526c-5.801,12.908-12.872,24.199-20.963,33.357c0.903-0.375,1.799-0.764,2.694-1.16
		c0.142-0.064,0.287-0.124,0.429-0.188c0.332-0.148,0.66-0.305,0.991-0.457c21.849-10.053,40.456-25.943,53.813-45.682
		C460.681,463.953,456.142,460.557,452.56,468.526z"/>
	<path style="fill:#70B5E8;" d="M392.235,471.176c-1.947,0.055-3.498,1.651-3.498,3.599V512c1.22-0.244,2.512-0.517,4.619-1.185
		c0.969-0.657,21.036-4.422,39.097-36.782c1.517-2.716-0.718-5.999-3.805-5.615C408.735,470.891,391.256,471.204,392.235,471.176z"
		/>
	<path style="fill:#70B5E8;" d="M443.587,313.914c-0.354-1.044-1.255-1.806-2.342-1.988c-26.237-4.393-50.443-4.771-49.471-4.744
		c-1.665-0.046-3.036,1.298-3.036,2.963v59.993c0,1.654,1.341,2.993,2.993,2.993h59.066c1.699,0,3.069-1.415,2.991-3.112
		C452.918,350.995,449.618,331.731,443.587,313.914z"/>
	<path style="fill:#70B5E8;" d="M431.118,294.232c2.05,0.269,3.554-1.912,2.578-3.735c-11.788-22.03-27.688-36.71-44.96-40.16
		v37.243c0,1.888,1.484,3.521,3.533,3.579C392.27,291.159,409.843,291.445,431.118,294.232z"/>
	<path style="fill:#70B5E8;" d="M441.187,450.03c1.087-0.182,1.988-0.944,2.342-1.987c6.085-17.957,9.439-37.584,10.265-56.106
		c0.076-1.701-1.291-3.121-2.993-3.121H391.73c-1.654,0-2.993,1.341-2.993,2.993v59.967c0,1.678,1.381,3.035,3.057,2.988
		c0.01,0,0.021-0.001,0.031-0.001C393.143,454.678,414.744,454.452,441.187,450.03z"/>
</g>
<path style="fill:#7E7F7F;" d="M126.774,277.644c4.331,0,7.842-3.511,7.842-7.842v-27.744c0-4.332-3.511-7.842-7.842-7.842
	c-4.331,0-7.842,3.51-7.842,7.842v27.744C118.932,274.133,122.442,277.644,126.774,277.644z"/>
<path style="fill:#CCCCCC;" d="M143.4,255.932c0-11.973,9.333-21.714,20.806-21.714c11.473,0,20.806,9.741,20.806,21.714
	c0,11.973-9.333,21.713-20.806,21.713C152.733,277.644,143.4,267.904,143.4,255.932z M159.084,255.932
	c0,3.325,2.298,6.029,5.122,6.029c2.824,0,5.122-2.705,5.122-6.029c0-3.326-2.298-6.03-5.122-6.03
	C161.382,249.902,159.084,252.606,159.084,255.932z"/>
<g>
	<path style="fill:#7E7F7F;" d="M201.54,277.644c4.331,0,7.842-3.511,7.842-7.842v-27.744c0-4.332-3.511-7.842-7.842-7.842
		s-7.842,3.51-7.842,7.842v27.744C193.698,274.133,197.209,277.644,201.54,277.644z"/>
	<path style="fill:#7E7F7F;" d="M49.32,277.644c4.331,0,7.842-3.511,7.842-7.842v-27.744c0-4.332-3.511-7.842-7.842-7.842
		s-7.842,3.51-7.842,7.842v27.744C41.479,274.133,44.99,277.644,49.32,277.644z"/>
</g>
<g>
	<path style="fill:#CCCCCC;" d="M65.946,255.932c0-11.973,9.333-21.714,20.806-21.714c11.473,0,20.807,9.741,20.807,21.714
		c0,11.973-9.334,21.713-20.807,21.713S65.946,267.904,65.946,255.932z M81.63,255.932c0,3.325,2.298,6.029,5.122,6.029
		c2.825,0,5.123-2.705,5.123-6.029c0-3.326-2.298-6.03-5.123-6.03C83.928,249.901,81.63,252.606,81.63,255.932z"/>
	<path style="fill:#CCCCCC;" d="M195.408,313.048c0-11.973,9.333-21.712,20.806-21.712c11.473,0,20.807,9.74,20.807,21.712
		c0,11.973-9.334,21.714-20.807,21.714C204.742,334.762,195.408,325.021,195.408,313.048z M211.092,313.048
		c0,3.326,2.298,6.03,5.122,6.03c2.825,0,5.123-2.705,5.123-6.03c0-3.325-2.298-6.029-5.123-6.029
		C213.389,307.019,211.092,309.724,211.092,313.048z"/>
</g>
<path style="fill:#7E7F7F;" d="M177.171,334.762c4.331,0,7.842-3.511,7.842-7.842v-27.744c0-4.332-3.511-7.842-7.842-7.842
	c-4.331,0-7.842,3.51-7.842,7.842v27.744C169.329,331.251,172.84,334.762,177.171,334.762z"/>
<path style="fill:#CCCCCC;" d="M117.955,313.048c0-11.973,9.333-21.712,20.806-21.712s20.807,9.74,20.807,21.712
	c0,11.973-9.333,21.714-20.807,21.714C127.288,334.762,117.955,325.021,117.955,313.048z M133.638,313.048
	c0,3.326,2.298,6.03,5.122,6.03c2.825,0,5.122-2.705,5.122-6.03c0-3.325-2.298-6.029-5.122-6.029
	C135.936,307.019,133.638,309.724,133.638,313.048z"/>
<path style="fill:#7E7F7F;" d="M99.717,334.762c4.331,0,7.842-3.511,7.842-7.842v-27.744c0-4.332-3.511-7.842-7.842-7.842
	s-7.842,3.51-7.842,7.842v27.744C91.876,331.251,95.387,334.762,99.717,334.762z"/>
<path style="fill:#CCCCCC;" d="M40.501,313.048c0-11.973,9.333-21.712,20.806-21.712s20.807,9.74,20.807,21.712
	c0,11.973-9.334,21.714-20.807,21.714C49.835,334.762,40.501,325.021,40.501,313.048z M56.184,313.048
	c0,3.326,2.298,6.03,5.122,6.03c2.825,0,5.123-2.705,5.123-6.03c0-3.325-2.298-6.029-5.123-6.029
	C58.483,307.019,56.184,309.724,56.184,313.048z"/>
<path style="fill:#70B5E8;" d="M292.245,390.311l-0.001-0.015c-0.032-0.829-0.72-1.482-1.55-1.482h-40.207
	c0.911,15.794,4.623,30.836,10.648,44.639c11.312,4.836,23.923,8.916,37.6,12.213C304.42,446.435,293.929,434.52,292.245,390.311z"
	/>
<g>
	<path style="fill:#52A5D8;" d="M282.592,388.814h-32.102c0.002,0.031,0.004,0.062,0.006,0.094
		c0.903,15.468,4.513,30.504,10.642,44.545c10.687,4.569,22.547,8.454,35.356,11.651
		C288.512,428.288,283.584,409.177,282.592,388.814z"/>
	<path style="fill:#52A5D8;" d="M308.582,466.714c-1.524-3.414-4.462-3.735-4.462-3.735v-0.008
		c-11.054-2.323-21.52-5.134-31.337-8.393c14.051,20.69,33.873,37.141,57.154,47.041
		C320.884,491.184,314.137,479.368,308.582,466.714z"/>
</g>
<g>
</g>
<g>
</g>
<g>
</g>
<g>
</g>
<g>
</g>
<g>
</g>
<g>
</g>
<g>
</g>
<g>
</g>
<g>
</g>
<g>
</g>
<g>
</g>
<g>
</g>
<g>
</g>
<g>
</g>
</svg>
