<?xml version="1.0" encoding="iso-8859-1"?>
<!-- Generator: Adobe Illustrator 19.0.0, SVG Export Plug-In . SVG Version: 6.00 Build 0)  -->
<svg version="1.1" id="Capa_1" xmlns="http://www.w3.org/2000/svg" xmlns:xlink="http://www.w3.org/1999/xlink" x="0px" y="0px"
	 viewBox="0 0 512 512" style="enable-background:new 0 0 512 512;" xml:space="preserve">
<path style="fill:#70B5E8;" d="M379.863,0.963c-109.287,0-237.912,0-349.628,0C13.516,0.963,0,14.518,0,31.198
	c0,38.781,0,330.655,0,373.331c0,16.698,13.536,30.235,30.235,30.235c75.564,0,277.422,0,349.628,0
	c16.699,0,30.235-13.537,30.235-30.235c0-100.977,0-246.469,0-373.331C410.097,14.5,396.561,0.963,379.863,0.963z"/>
<path style="fill:#52A5D8;" d="M30.917,404.529c0-129.05,0-289.72,0-373.331c0-16.579,13.421-30.235,30.235-30.235
	C32.391,1.89,20.304-2.829,7.854,10.869C2.974,16.238,0,23.371,0,31.198c0,38.781,0,330.655,0,373.331
	c0,16.698,13.536,30.235,30.235,30.235h30.917C44.454,434.764,30.917,421.227,30.917,404.529z"/>
<path style="fill:#666666;" d="M410.097,31.198c0-16.698-13.536-30.235-30.235-30.235H219.12l0,0
	c-201.038,0-195.486-1.798-205.79,5.164C5.126,11.672,0,20.951,0,31.198v51.489h219.12l0,0h190.978V31.198H410.097z"/>
<path style="fill:#535454;" d="M30.917,31.198c0-16.579,13.421-30.235,30.235-30.235C38.494,1.399,29.857,0.069,22.679,1.915
	c-0.007,0.002-0.013,0.004-0.02,0.006C9.565,5.3,0,17.174,0,31.198v51.489h30.917C30.917,74.484,30.917,44.04,30.917,31.198z"/>
<path style="fill:#A4D9F4;" d="M344.584,173.783h-66.968c-4.269,0-7.729-3.46-7.729-7.729s3.461-7.729,7.729-7.729h66.968
	c4.269,0,7.729,3.46,7.729,7.729S348.853,173.783,344.584,173.783z"/>
<path style="fill:#F9F9F9;" d="M317.19,136.682h-16.097c-4.269,0-7.729-3.46-7.729-7.729s3.461-7.729,7.729-7.729h16.097
	c4.269,0,7.729,3.46,7.729,7.729C324.92,133.222,321.459,136.682,317.19,136.682z"/>
<path style="fill:#FFB70D;" d="M372.464,136.682h-31.121c-4.269,0-7.729-3.46-7.729-7.729s3.461-7.729,7.729-7.729h31.121
	c4.269,0,7.729,3.46,7.729,7.729C380.193,133.222,376.732,136.682,372.464,136.682z"/>
<g>
	<path style="fill:#84C7EF;" d="M274.001,136.682h-79.596c-4.269,0-7.729-3.46-7.729-7.729s3.461-7.729,7.729-7.729h79.596
		c4.269,0,7.729,3.46,7.729,7.729C281.731,133.222,278.27,136.682,274.001,136.682z"/>
	<path style="fill:#84C7EF;" d="M254.251,173.783h-23.942c-4.269,0-7.729-3.46-7.729-7.729s3.461-7.729,7.729-7.729h23.942
		c4.269,0,7.729,3.46,7.729,7.729S258.52,173.783,254.251,173.783z"/>
</g>
<path style="fill:#F9F9F9;" d="M205.816,173.783h-12.557c-4.269,0-7.729-3.46-7.729-7.729s3.461-7.729,7.729-7.729h12.557
	c4.269,0,7.729,3.46,7.729,7.729S210.084,173.783,205.816,173.783z"/>
<g>
	<path style="fill:#84C7EF;" d="M370.955,173.632c-0.998-0.207-1.9-0.572-2.782-1.154c-2.193-1.441-3.443-3.92-3.443-6.42
		c0-1.035,0.225-2.074,0.598-2.958c0.314-0.802,0.904-1.749,1.67-2.515c0.714-0.693,1.485-1.238,2.505-1.67
		c1.484-0.611,3.023-0.726,4.472-0.443c0.992,0.208,1.911,0.581,2.783,1.154c0.809,0.532,1.58,1.293,2.133,2.134
		c0.555,0.844,0.942,1.764,1.154,2.782c0.505,2.759-0.421,5.273-2.113,6.977c-0.691,0.691-1.506,1.243-2.515,1.67
		c-0.463,0.195-0.948,0.34-1.443,0.443C373.022,173.831,371.973,173.845,370.955,173.632z"/>
	<path style="fill:#84C7EF;" d="M288.106,247.983h-66.968c-4.269,0-7.729-3.46-7.729-7.729s3.461-7.729,7.729-7.729h66.968
		c4.269,0,7.729,3.46,7.729,7.729C295.836,244.523,292.375,247.983,288.106,247.983z"/>
</g>
<path style="fill:#FFB70D;" d="M264.628,210.883h-16.096c-4.269,0-7.729-3.46-7.729-7.729s3.461-7.729,7.729-7.729h16.096
	c4.269,0,7.729,3.46,7.729,7.729S268.897,210.883,264.628,210.883z"/>
<path style="fill:#F9F9F9;" d="M224.38,210.883h-31.121c-4.269,0-7.729-3.46-7.729-7.729s3.461-7.729,7.729-7.729h31.121
	c4.269,0,7.729,3.46,7.729,7.729S228.649,210.883,224.38,210.883z"/>
<path style="fill:#84C7EF;" d="M371.317,210.883H291.72c-4.269,0-7.729-3.46-7.729-7.729s3.461-7.729,7.729-7.729h79.597
	c4.269,0,7.729,3.46,7.729,7.729S375.586,210.883,371.317,210.883z"/>
<path style="fill:#F9F9F9;" d="M335.413,247.983h-23.942c-4.269,0-7.729-3.46-7.729-7.729s3.461-7.729,7.729-7.729h23.942
	c4.269,0,7.729,3.46,7.729,7.729S339.682,247.983,335.413,247.983z"/>
<path style="fill:#A4D9F4;" d="M372.464,247.983h-12.557c-4.269,0-7.729-3.46-7.729-7.729s3.461-7.729,7.729-7.729h12.557
	c4.269,0,7.729,3.46,7.729,7.729S376.732,247.983,372.464,247.983z"/>
<path style="fill:#FFB70D;" d="M188.967,246.678c-1.671-1.098-2.857-2.853-3.287-4.915c-0.811-3.892,1.606-8.154,6.07-9.09
	c6.771-1.322,11.709,6.138,7.935,11.873c-1.143,1.732-2.929,2.875-4.916,3.287C194.275,247.936,190.703,247.822,188.967,246.678z"/>
<path style="fill:#84C7EF;" d="M344.584,285.599h-66.968c-4.269,0-7.729-3.46-7.729-7.729s3.461-7.729,7.729-7.729h66.968
	c4.269,0,7.729,3.46,7.729,7.729C352.313,282.139,348.853,285.599,344.584,285.599z"/>
<path style="fill:#A4D9F4;" d="M254.251,285.599h-23.942c-4.269,0-7.729-3.46-7.729-7.729s3.461-7.729,7.729-7.729h23.942
	c4.269,0,7.729,3.46,7.729,7.729S258.52,285.599,254.251,285.599z"/>
<path style="fill:#F9F9F9;" d="M205.816,285.599h-12.557c-4.269,0-7.729-3.46-7.729-7.729s3.461-7.729,7.729-7.729h12.557
	c4.269,0,7.729,3.46,7.729,7.729S210.084,285.599,205.816,285.599z"/>
<path style="fill:#FFB70D;" d="M370.955,285.448c-10.3-2.137-6.748-17.067,3.02-15.16c8.191,1.717,8.332,13.431,0,15.16
	C372.963,285.656,371.936,285.654,370.955,285.448z"/>
<path style="fill:#52A5D8;" d="M147.913,395.871h-92.81c-6.802,0-12.367-5.565-12.367-12.367V133.075
	c0-6.802,5.565-12.367,12.367-12.367h92.811c6.802,0,12.367,5.565,12.367,12.367v250.428
	C160.28,390.306,154.715,395.871,147.913,395.871z"/>
<path style="fill:#3094C6;" d="M73.653,383.504V133.075c0-6.802,5.565-12.367,12.367-12.367H55.103
	c-6.802,0-12.367,5.565-12.367,12.367v250.428c0,6.802,5.565,12.367,12.367,12.367H86.02
	C79.218,395.871,73.653,390.305,73.653,383.504z"/>
<path style="fill:#F94A46;" d="M40.504,48.252c-2.394-1.574-3.911-4.606-3.288-7.935c1.42-6.816,10.266-8.461,14.005-2.783
	c0.583,0.886,0.945,1.777,1.154,2.783c0.103,0.494,0.154,0.999,0.154,1.505C52.53,47.928,45.735,51.703,40.504,48.252z"/>
<path style="fill:#FFB70D;" d="M69.483,49.407c-3.788-0.786-6.215-4.043-6.215-7.584c0-5.12,4.743-8.512,9.234-7.575
	c4.627,0.867,7.557,5.968,5.627,10.532C76.86,47.951,73.402,50.125,69.483,49.407z"/>
<path style="fill:#92B620;" d="M92.908,48.252c-2.611-1.716-3.909-4.959-3.288-7.935c0.682-3.271,3.205-5.534,6.07-6.071
	c7.249-1.512,12.468,7.553,6.966,13.047c-0.35,0.35-0.742,0.68-1.164,0.958C98.942,49.935,95.617,50.039,92.908,48.252z"/>
<g>
	<path style="fill:#7E7F7F;" d="M313.679,49.555H129.38c-4.269,0-7.729-3.46-7.729-7.729s3.461-7.729,7.729-7.729h184.299
		c4.269,0,7.729,3.46,7.729,7.729S317.948,49.555,313.679,49.555z"/>
	<path style="fill:#7E7F7F;" d="M372.464,49.555H340.86c-4.269,0-7.729-3.46-7.729-7.729s3.461-7.729,7.729-7.729h31.604
		c4.269,0,7.729,3.46,7.729,7.729S376.732,49.555,372.464,49.555z"/>
</g>
<path style="fill:#F9D698;" d="M498.087,395.43h-8.307c-2.076-11.974-6.78-23.04-13.504-32.591l5.877-5.877
	c5.433-5.433,5.433-14.242,0-19.675c-5.433-5.433-14.242-5.433-19.675,0l-5.877,5.877c-9.551-6.724-20.616-11.428-32.591-13.504
	v-8.306c0-7.684-6.229-13.913-13.913-13.913s-13.913,6.229-13.913,13.913v8.306c-11.974,2.077-23.04,6.781-32.591,13.504
	l-5.877-5.877c-5.433-5.433-14.242-5.433-19.675,0c-5.433,5.433-5.433,14.242,0,19.675l5.877,5.877
	c-6.724,9.551-11.428,20.617-13.504,32.591h-8.307c-7.684,0-13.913,6.229-13.913,13.913s6.229,13.913,13.913,13.913h8.307
	c2.076,11.974,6.78,23.04,13.504,32.591l-5.877,5.877c-5.433,5.433-5.433,14.242,0,19.676c5.433,5.433,14.242,5.433,19.675,0
	l5.877-5.877c9.551,6.724,20.616,11.428,32.591,13.504v8.306c0,7.684,6.229,13.913,13.913,13.913s13.913-6.229,13.913-13.913v-8.306
	c11.974-2.077,23.04-6.78,32.591-13.504l5.877,5.877c5.433,5.433,14.242,5.433,19.675,0c5.433-5.433,5.433-14.242,0-19.676
	l-5.877-5.877c6.724-9.551,11.428-20.617,13.504-32.591h8.307c7.684,0,13.913-6.229,13.913-13.913S505.771,395.43,498.087,395.43z"
	/>
<circle style="fill:#FFB70D;" cx="410.1" cy="409.34" r="54.41"/>
<path style="fill:#FCC963;" d="M367.693,340.467c-1.394,0.86-2.763,1.756-4.099,2.697l-5.877-5.877
	c-5.433-5.433-14.242-5.433-19.675,0c-5.433,5.433-5.433,14.242,0,19.675l5.877,5.877c-6.724,9.551-11.428,20.617-13.504,32.591
	h-8.307c-7.684,0-13.913,6.229-13.913,13.913s6.229,13.913,13.913,13.913h8.307c2.076,11.974,6.78,23.04,13.504,32.591l-5.877,5.877
	c-5.433,5.433-5.433,14.242,0,19.676c5.433,5.433,14.242,5.433,19.675,0l5.877-5.877c9.551,6.724,20.616,11.428,32.591,13.504v8.306
	c0,7.684,6.229,13.913,13.913,13.913s13.913-6.229,13.913-13.913v-8.306c8.745-1.517,17.002-4.44,24.541-8.522
	C372.676,487.921,323.355,402.446,367.693,340.467z"/>
<path style="fill:#F4A403;" d="M390.872,420.443c-12.221-21.167-8.601-47.132,7.18-64.171
	c-35.729,8.121-53.378,48.574-35.074,80.276c18.317,31.727,62.184,36.619,87.058,9.763
	C427.39,451.457,403.093,441.61,390.872,420.443z"/>
<path style="fill:#EFEFEF;" d="M404.065,429.514c-5.829-0.093-7.078-5.342-15.805-14.976c-2.706-3.302-2.222-8.172,1.08-10.877
	c3.302-2.704,8.172-2.222,10.877,1.081l4.165,5.083l15.755-18.013c2.809-3.214,7.694-3.541,10.906-0.73
	c3.213,2.811,3.539,7.694,0.729,10.906l-21.766,24.885C408.464,428.639,406.236,429.562,404.065,429.514z"/>
<g>
</g>
<g>
</g>
<g>
</g>
<g>
</g>
<g>
</g>
<g>
</g>
<g>
</g>
<g>
</g>
<g>
</g>
<g>
</g>
<g>
</g>
<g>
</g>
<g>
</g>
<g>
</g>
<g>
</g>
</svg>
