<?xml version="1.0" encoding="iso-8859-1"?>
<!-- Generator: Adobe Illustrator 19.0.0, SVG Export Plug-In . SVG Version: 6.00 Build 0)  -->
<svg version="1.1" id="Capa_1" xmlns="http://www.w3.org/2000/svg" xmlns:xlink="http://www.w3.org/1999/xlink" x="0px" y="0px"
	 viewBox="0 0 512 512" style="enable-background:new 0 0 512 512;" xml:space="preserve">
<path style="fill:#EAB883;" d="M126.334,223.072v59.817l65.879,2.069c0.001-0.009,0.002-0.017,0.002-0.026l0.074-0.045
	c0-10.32,0-51.876,0-62.088C171.879,232.089,147.72,233.023,126.334,223.072z"/>
<path style="fill:#DDA36F;" d="M157.251,230.142c-10.468-0.182-20.991-2.452-30.917-7.071c0,15.331,0,45.637,0,59.817l37.823,1.188
	l-4.788-13.234C155.95,261.392,157.758,256.211,157.251,230.142z"/>
<path style="fill:#EFEFEF;" d="M187.09,269.683c-16.574,11.856-38.888,11.724-55.321-0.327l-0.425-0.312v65.973h56.639v-65.973
	L187.09,269.683z"/>
<path style="fill:#DDDDDD;" d="M177.945,322.188l-15.837-43.776c-17.938,0.932-30.577-9.277-30.763-9.369v65.973h31.11
	C167.86,331.072,177.945,322.188,177.945,322.188z"/>
<path style="fill:#70B5E8;" d="M318.299,473.296l-27.177-168.912c-4.853-24.307-27.393-28.383-28.346-28.813h0.001l-30.352-8.399
	l-3.702-2.184l-60.857,54.555l0.015-0.039c-3.035,7.833-13.962,7.83-16.996,0l0.015,0.039l-60.857-54.555l-3.702,2.184
	l-30.352,8.399h0.001c-0.952,0.43-23.493,4.506-28.346,28.813L0.465,473.296c-3.417,21.241,12.469,38.684,32.137,38.684
	c89.304,0,164.569,0,253.561,0C305.831,511.98,321.717,494.534,318.299,473.296z"/>
<path style="fill:#52A5D8;" d="M31.312,473.296l27.177-183.334c1.53-7.662,4.819-13.311,8.634-17.472l-11.135,3.081h0.001
	c-0.952,0.43-23.493,4.506-28.346,28.813L0.465,473.296c-3.417,21.241,12.469,38.684,32.137,38.684h0.821h30.026
	C43.779,511.98,27.895,494.534,31.312,473.296z"/>
<g>
	<path style="fill:#A4D9F4;" d="M200.389,354.389c-4.267,0-7.726-3.459-7.726-7.726v-65.104c0-4.267,3.459-7.726,7.726-7.726
		s7.726,3.459,7.726,7.726v65.104C208.115,350.93,204.656,354.389,200.389,354.389z"/>
	<path style="fill:#A4D9F4;" d="M118.62,354.389c-4.267,0-7.726-3.459-7.726-7.726v-65.104c0-4.267,3.459-7.726,7.726-7.726
		s7.726,3.459,7.726,7.726v65.104C126.346,350.93,122.887,354.389,118.62,354.389z"/>
</g>
<g>
	<polygon style="fill:#52A5D8;" points="150.899,319.543 86.34,267.172 126.334,243.576 126.334,256.105 	"/>
	<polygon style="fill:#52A5D8;" points="167.865,319.543 232.424,267.172 192.289,243.576 192.289,256.105 	"/>
</g>
<path style="fill:#A4D9F4;" d="M120.067,474.368v37.612h79.784v-37.612c0-10.409,7.196-19.146,16.868-21.56
	c-14.287-7.233-19.579-22.714-21.508-31.972c-0.899-4.316-4.667-7.43-9.076-7.43l0,0h-52.944l0,0c-4.411,0-8.177,3.118-9.077,7.436
	c-1.921,9.216-7.174,24.59-21.308,31.864C112.677,454.978,120.067,463.818,120.067,474.368z"/>
<path style="fill:#84C7EF;" d="M146.72,511.98v-36.732c0-5.2-1.669-10.014-4.5-13.938c-4.761-6.6-4.389-15.509,0.18-22.243
	c4.971-7.327,7.449-15.513,8.672-21.379c0.337-1.614,1.052-3.066,2.032-4.282h-19.912c-4.411,0-8.177,3.118-9.077,7.436
	c-1.921,9.215-7.174,24.59-21.308,31.864c9.871,2.272,17.261,11.112,17.261,21.662v37.612H146.72z"/>
<g>
	<path style="fill:#EAB883;" d="M204.488,468.902h-2.027c-23.693,0-43.078,19.385-43.078,43.078h45.106v-43.078H204.488z"/>
	<path style="fill:#EAB883;" d="M114.401,468.902v43.078h44.981c0-23.693-19.385-43.078-43.078-43.078H114.401z"/>
</g>
<g>
	<path style="fill:#DDA36F;" d="M159.382,511.98h45.105v-21.539h-39.281C161.512,496.788,159.382,504.145,159.382,511.98z"/>
	<path style="fill:#DDA36F;" d="M114.401,490.441v21.539h44.981c0-7.835-2.13-15.192-5.824-21.539H114.401z"/>
</g>
<path style="fill:#93482B;" d="M222.492,27.533c-2.692-0.589-5.122-2.038-6.847-4.188C188.843-10.061,117.562-7.292,80.5,29.771
	c-34.15,34.15-15.259,88.64-15.259,88.64h188.846C270.589,49.135,235.159,30.304,222.492,27.533z"/>
<path style="fill:#843D26;" d="M127.347,29.771c14.01-14.01,32.91-23.116,52.448-27.223c-32.242-7.51-73.839,1.767-99.295,27.223
	c-34.15,34.151-15.259,88.64-15.259,88.64h46.847C112.088,118.411,93.197,63.921,127.347,29.771z"/>
<g>
	<path style="fill:#EAB883;" d="M65.366,113.624l-0.028-0.03c-12.16,8.188-12.354,23.837,0,32.156l0.029-0.03
		c4.211,2.827,9.552,4.522,15.369,4.522c0-14.118,0-26.728,0-41.14l0,0C74.919,109.102,69.577,110.797,65.366,113.624z"/>
	<path style="fill:#EAB883;" d="M253.929,113.624l0.028-0.03c4.69,3.158,7.96,7.727,8.907,12.936
		c0.005,0.028,0.01,0.057,0.015,0.085c0.054,0.305,0.102,0.612,0.14,0.921c0.01,0.085,0.017,0.171,0.027,0.257
		c0.028,0.264,0.056,0.528,0.072,0.794c0.015,0.233,0.019,0.469,0.024,0.704c0.002,0.119,0.012,0.236,0.012,0.355
		c0,0.008-0.001,0.017-0.001,0.025s0.001,0.017,0.001,0.025c0,0.119-0.01,0.236-0.012,0.355c-0.006,0.235-0.01,0.471-0.024,0.704
		c-0.016,0.267-0.044,0.53-0.072,0.794c-0.009,0.086-0.016,0.172-0.027,0.257c-0.038,0.309-0.086,0.616-0.14,0.921
		c-0.005,0.028-0.01,0.057-0.015,0.085c-0.946,5.209-4.217,9.778-8.907,12.936l-0.029-0.03c-4.211,2.827-9.552,4.522-15.369,4.522
		v-14.646V109.1C238.875,109.15,246.608,108.709,253.929,113.624z"/>
</g>
<g>
	<path style="fill:#DDA36F;" d="M65.338,127.241c-2.735-1.842-4.968-4.174-6.558-6.823c-5.391,8.982-2.196,19.438,6.558,25.333
		l0.029-0.03c4.211,2.827,9.552,4.522,15.369,4.522c0-11.125,0-11.347,0-18.51c-5.817,0-11.159-1.695-15.369-4.522L65.338,127.241z"
		/>
	<path style="fill:#DDA36F;" d="M263.142,129.292c-0.005-0.235-0.009-0.471-0.024-0.704c-0.016-0.267-0.044-0.53-0.072-0.794
		c-0.009-0.086-0.016-0.172-0.027-0.257c-0.038-0.309-0.086-0.616-0.14-0.921c-0.005-0.028-0.01-0.057-0.015-0.085
		c-0.394-2.171-1.212-4.22-2.349-6.113c-1.59,2.649-3.822,4.981-6.558,6.823l-0.029-0.03c-4.211,2.827-9.552,4.522-15.369,4.522
		v3.863v14.646c5.817,0,11.158-1.695,15.369-4.522l0.029,0.03c4.69-3.158,7.96-7.727,8.906-12.936
		c0.005-0.028,0.01-0.057,0.015-0.085c0.054-0.305,0.102-0.612,0.14-0.921c0.01-0.085,0.017-0.171,0.027-0.257
		c0.028-0.264,0.056-0.528,0.072-0.794c0.015-0.233,0.019-0.469,0.024-0.704c0.002-0.119,0.013-0.236,0.013-0.355
		c0-0.008-0.001-0.017-0.001-0.025s0.001-0.017,0.001-0.025C263.154,129.528,263.144,129.411,263.142,129.292z"/>
</g>
<path style="fill:#F7CF9C;" d="M238.689,135.596v-26.494c0,0-18.89,3.605-31.387-12.243c-2.349-2.979-6.568-3.658-9.639-1.432
	c-18.679,13.537-71.314,34.484-117.024,13.675v15.136H80.55c-0.172,16.552-0.003,41.947,2.216,51.331
	c2.875,12.138,8.587,23.47,16.918,33.173c47.978,55.779,138.996,21.154,138.996-51.452c-0.015-8.944-0.018-16.027-0.014-21.694
	L238.689,135.596L238.689,135.596z"/>
<path style="fill:#EAB883;" d="M113.401,175.569c-2.219-9.384-2.388-34.779-2.216-51.331h0.089v-6.953
	c-10.257-1.066-20.612-3.62-30.634-8.183v15.136h-0.09c-0.172,16.552-0.002,41.947,2.216,51.331
	c9.235,38.991,47.716,67.812,91.394,59.265C143.814,228.757,120.258,204.526,113.401,175.569z"/>
<g>
	<path style="fill:#52A5D8;" d="M122.128,511.98v-40.702c0-12.266-9.979-22.245-22.246-22.245H71.637l14.771-99.824
		c0.624-4.221-2.291-8.149-6.512-8.774c-4.22-0.622-8.149,2.292-8.774,6.512L56.016,449.032h-7.963
		c-4.267,0-7.726,3.459-7.726,7.726s3.459,7.726,7.726,7.726c16.071,0,36.723,0,51.83,0c3.746,0,6.793,3.047,6.793,6.793v40.702
		C111.195,511.98,116.555,511.98,122.128,511.98z"/>
	<path style="fill:#52A5D8;" d="M270.837,464.485c4.267,0,7.726-3.459,7.726-7.726s-3.459-7.726-7.726-7.726h-7.963l-15.106-102.085
		c-0.625-4.221-4.554-7.134-8.774-6.512c-4.221,0.625-7.137,4.553-6.512,8.774l14.771,99.824h-28.245
		c-12.266,0-22.246,9.979-22.246,22.245v40.702h15.452v-40.702c0-3.745,3.047-6.793,6.793-6.793
		C234.114,464.485,254.766,464.485,270.837,464.485z"/>
</g>
<path style="fill:#EFEFEF;" d="M499.304,228.467c-278.502,0-259.952-0.539-263.766,1.532c-3.958,2.15-6.644,6.343-6.644,11.164
	c0,13.612,0,193.719,0,202.898c0,7.012,5.684,12.697,12.696,12.697c7.534,0,154.658,0,161.485,0h96.229
	c7.012,0,12.696-5.684,12.696-12.697c0-9.583,0-189.014,0-202.898C512,236.343,506.298,228.467,499.304,228.467z"/>
<path style="fill:#DDDDDD;" d="M273.061,444.062v-15.148c0-23.943,0-164.305,0-187.751c0-7.035,5.705-12.696,12.697-12.696
	c-44.741,0.513-45.258-1.163-50.221,1.532c-3.958,2.15-6.644,6.343-6.644,11.164c0,13.612,0,193.719,0,202.898
	c0,7.012,5.684,12.697,12.696,12.697h44.169C278.746,456.758,273.061,451.074,273.061,444.062z"/>
<path style="fill:#FFB70D;" d="M478.293,74.562H313.259c-6.799,0-12.362,5.563-12.362,12.362v83.438
	c0,6.799,5.563,12.362,12.362,12.362h145.265c3.377,0,6.633,1.258,9.132,3.529l12.041,10.942c4.209,3.824,10.957,0.838,10.957-4.849
	c0-2.837,0-112.867,0-105.422C490.655,80.124,485.092,74.562,478.293,74.562z"/>
<path style="fill:#F4A403;" d="M335.241,170.361V86.924c0-6.799,5.563-12.362,12.362-12.362h-34.344
	c-6.799,0-12.362,5.563-12.362,12.362v83.438c0,6.799,5.563,12.362,12.362,12.362h34.344
	C340.804,182.723,335.241,177.161,335.241,170.361z"/>
<circle style="fill:#CCCCCC;" cx="370.26" cy="286.67" r="16.759"/>
<path style="fill:#BCBBB8;" d="M370.268,269.926c-12.778-0.018-21.01,13.888-14.522,25.126c6.49,11.242,22.65,11.059,29.021-0.013
	C371.875,295.02,363.827,281.12,370.268,269.926z"/>
<g>
	<path style="fill:#CCCCCC;" d="M284.952,430.589h-23.781c-4.267,0-7.726-3.459-7.726-7.726c0-4.268,3.459-7.726,7.726-7.726h23.781
		c4.267,0,7.726,3.459,7.726,7.726C292.678,427.13,289.219,430.589,284.952,430.589z"/>
	<path style="fill:#CCCCCC;" d="M306.798,429.284c-4.056-2.675-4.61-8.454-1.175-11.888c2.978-2.977,7.868-3.047,10.92,0
		C323.023,423.873,314.612,434.55,306.798,429.284z"/>
</g>
<path style="fill:#DDDDDD;" d="M400.38,497.998c0-14.852,0-138.681,0-157.096c0-0.016-0.012-0.029-0.026-0.029h-57.959
	c-0.014,0-0.026,0.013-0.026,0.029c0,18.375,0,131.045,0,157.096H400.38z"/>
<path style="fill:#CCCCCC;" d="M371.374,340.902c0-0.016,0.012-0.029,0.026-0.029h-29.006c-0.014,0-0.026,0.013-0.026,0.029
	c0,18.375,0,131.045,0,157.096h29.006C371.374,471.958,371.374,359.863,371.374,340.902z"/>
<g>
	<path style="fill:#F9F9F9;" d="M362.035,153.733c-1.977,0-3.955-0.754-5.463-2.263l-19.068-19.067
		c-1.449-1.449-2.263-3.414-2.263-5.463c0-2.049,0.814-4.014,2.263-5.463l19.068-19.068c3.017-3.017,7.909-3.017,10.926,0
		c3.018,3.017,3.018,7.909,0,10.926l-13.604,13.604l13.604,13.604c3.018,3.017,3.018,7.909,0,10.926
		C365.989,152.979,364.012,153.733,362.035,153.733z"/>
	<path style="fill:#F9F9F9;" d="M425.748,153.733c-1.977,0-3.955-0.754-5.463-2.263c-3.018-3.017-3.018-7.909,0-10.926
		l13.604-13.604l-13.604-13.604c-3.018-3.018-3.018-7.909,0-10.926c3.018-3.018,7.91-3.018,10.926,0l19.067,19.068
		c3.018,3.017,3.018,7.909,0,10.926C431.745,149.932,431.279,153.733,425.748,153.733z"/>
	<path style="fill:#F9F9F9;" d="M382.349,165.79c-0.878,0-1.77-0.15-2.642-0.468c-4.01-1.46-6.077-5.893-4.618-9.903l21.415-58.837
		c1.46-4.01,5.896-6.077,9.903-4.618c4.01,1.46,6.077,5.893,4.618,9.903l-21.415,58.837
		C388.468,163.841,385.504,165.79,382.349,165.79z"/>
</g>
<path style="fill:#EFEFEF;" d="M425.095,497.998L425.095,497.998c0-7.722-6.26-13.982-13.982-13.982H329.78
	c-7.722,0-13.982,6.26-13.982,13.982l0,0c0,7.722,6.26,13.982,13.982,13.982h81.333C418.835,511.98,425.095,505.72,425.095,497.998z
	"/>
<path style="fill:#DDDDDD;" d="M357.374,497.998L357.374,497.998c0-7.722,6.26-13.982,13.982-13.982H329.78
	c-7.722,0-13.982,6.26-13.982,13.982l0,0c0,7.722,6.26,13.982,13.982,13.982h41.576C363.634,511.98,357.374,505.72,357.374,497.998z
	"/>
<path style="fill:#CCCCCC;" d="M404.296,348.569h-66.754c-4.267,0-7.726-3.459-7.726-7.726c0-4.268,3.459-7.726,7.726-7.726h66.754
	c4.267,0,7.726,3.459,7.726,7.726S408.563,348.569,404.296,348.569z"/>
<g>
</g>
<g>
</g>
<g>
</g>
<g>
</g>
<g>
</g>
<g>
</g>
<g>
</g>
<g>
</g>
<g>
</g>
<g>
</g>
<g>
</g>
<g>
</g>
<g>
</g>
<g>
</g>
<g>
</g>
</svg>
