<?xml version="1.0" encoding="iso-8859-1"?>
<!-- Generator: Adobe Illustrator 19.0.0, SVG Export Plug-In . SVG Version: 6.00 Build 0)  -->
<svg version="1.1" id="Capa_1" xmlns="http://www.w3.org/2000/svg" xmlns:xlink="http://www.w3.org/1999/xlink" x="0px" y="0px"
	 viewBox="0 0 512 512" style="enable-background:new 0 0 512 512;" xml:space="preserve">
<path style="fill:#7E7F7F;" d="M489.038,11.4H22.962C10.28,11.4,0,21.68,0,34.362v309.216h512V34.362
	C512,21.68,501.72,11.4,489.038,11.4z"/>
<path style="fill:#6F7070;" d="M51.165,11.4H22.962C10.28,11.4,0,21.68,0,34.362v309.216h28.204V34.362
	C28.204,21.68,38.484,11.4,51.165,11.4z"/>
<rect x="197.28" y="395.24" style="fill:#CCCCCC;" width="117.45" height="81.27"/>
<rect x="197.28" y="395.24" style="fill:#BCBBB8;" width="30.907" height="81.27"/>
<path style="fill:#70B5E8;" d="M28.204,86.631v208.481c0,4.316,3.512,7.828,7.828,7.828h439.936c4.316,0,7.828-3.512,7.828-7.828
	V86.631H28.204z"/>
<path style="fill:#52A5D8;" d="M59.593,295.112V86.631h-31.39v208.481c0,4.316,3.512,7.828,7.828,7.828h31.39
	C63.106,302.94,59.593,299.428,59.593,295.112z"/>
<path style="fill:#EFEFEF;" d="M0,331.144v44.628c0,12.681,10.28,22.962,22.962,22.962h466.076c12.681,0,22.962-10.28,22.962-22.962
	v-44.628H0z"/>
<path style="fill:#DDDDDD;" d="M28.204,375.772v-44.628H0v44.628c0,12.681,10.28,22.962,22.962,22.962h28.204
	C38.484,398.734,28.204,388.454,28.204,375.772z"/>
<path style="fill:#EFEFEF;" d="M330.021,500.6H181.98c-7.788,0-14.102-6.314-14.102-14.102l0,0c0-7.788,6.314-14.102,14.102-14.102
	h148.041c7.788,0,14.102,6.314,14.102,14.102l0,0C344.122,494.286,337.809,500.6,330.021,500.6z"/>
<path style="fill:#DDDDDD;" d="M214.543,486.498c0-7.788,6.314-14.102,14.102-14.102h-46.666c-7.788,0-14.102,6.314-14.102,14.102
	s6.314,14.102,14.102,14.102h46.666C220.857,500.6,214.543,494.286,214.543,486.498z"/>
<path style="fill:#666666;" d="M28.204,47.432V96.01h455.593V47.432c0-4.316-3.512-7.828-7.828-7.828H36.032
	C31.716,39.604,28.204,43.116,28.204,47.432z"/>
<path style="fill:#535454;" d="M67.418,39.603H36.032c-4.316,0-7.828,3.512-7.828,7.828V96.01H59.59V47.432
	C59.59,43.116,63.102,39.603,67.418,39.603z"/>
<path style="fill:#CCCCCC;" d="M251.713,371.366c-1.798-1.224-2.921-3.002-3.286-4.914c-0.878-4.299,2.053-8.335,6.068-9.087
	c4.676-0.975,9.231,2.65,9.231,7.573c0,3.821-2.796,6.933-6.212,7.572C256.506,372.715,253.294,372.435,251.713,371.366z"/>
<path style="fill:#F94A46;" d="M52.453,70.999c-2.666-6.319,3.789-12.735,10.086-10.086c6.897,2.695,6.198,13.111-1.442,14.712
	C58.009,76.203,54.055,74.794,52.453,70.999z"/>
<path style="fill:#FFB70D;" d="M81.321,69.557c-1.373-6.725,6.111-11.73,11.868-7.933c5.637,3.705,4.071,12.565-2.782,14.001
	C88.292,76.021,82.187,73.704,81.321,69.557z"/>
<path style="fill:#92B620;" d="M110.632,69.557c-1.375-6.735,6.116-11.727,11.868-7.933c5.6,3.685,4.093,12.56-2.782,14.001
	C115.23,76.448,111.364,73.465,110.632,69.557z"/>
<g>
	<path style="fill:#7E7F7F;" d="M404.527,75.771h-250.32c-4.267,0-7.727-3.459-7.727-7.727s3.459-7.727,7.727-7.727h250.32
		c4.267,0,7.727,3.459,7.727,7.727S408.795,75.771,404.527,75.771z"/>
	<path style="fill:#7E7F7F;" d="M453.979,75.771h-20.113c-4.267,0-7.727-3.459-7.727-7.727s3.459-7.727,7.727-7.727h20.113
		c4.267,0,7.727,3.459,7.727,7.727S458.246,75.771,453.979,75.771z"/>
</g>
<path style="fill:#52A5D8;" d="M209.612,127.496h-39.149H108.14H68.991c-5.192,0-9.401,4.209-9.401,9.401V263.36
	c0,5.192,4.209,9.401,9.401,9.401h39.149h62.322h39.149c5.192,0,9.401-4.209,9.401-9.401V136.897
	C219.013,131.705,214.804,127.496,209.612,127.496z"/>
<path style="fill:#3094C6;" d="M90.501,263.36V136.897c0-5.192,4.209-9.401,9.401-9.401H68.991c-5.192,0-9.401,4.209-9.401,9.401
	V263.36c0,5.192,4.209,9.401,9.401,9.401h30.911C94.71,272.761,90.501,268.552,90.501,263.36z"/>
<g>
	<path style="fill:#F9F9F9;" d="M292.885,235.708c-29.122-30.164-32.147-29.715-32.147-35.347c0-5.61,2.814-4.964,32.147-35.348
		c3.017-3.016,7.91-3.016,10.927,0c3.018,3.018,3.018,7.91,0,10.928l-24.42,24.42l24.42,24.419c3.018,3.017,3.018,7.91,0,10.927
		C300.796,238.725,295.903,238.725,292.885,235.708z"/>
	<path style="fill:#F9F9F9;" d="M392.743,235.708c-3.018-3.018-3.018-7.91,0-10.928l24.42-24.419l-24.42-24.42
		c-3.018-3.018-3.018-7.91,0-10.928c3.018-3.016,7.91-3.016,10.927,0c29.121,30.165,32.147,29.716,32.147,35.348
		c0,5.61-2.813,4.964-32.147,35.347C400.652,238.725,395.76,238.725,392.743,235.708z"/>
	<path style="fill:#F9F9F9;" d="M327.545,256.397c-4.01-1.46-6.078-5.894-4.618-9.904l33.564-92.215
		c1.459-4.01,5.894-6.074,9.904-4.618c4.01,1.46,6.078,5.894,4.618,9.904l-33.564,92.215
		C335.999,255.761,331.583,257.865,327.545,256.397z"/>
</g>
<g>
</g>
<g>
</g>
<g>
</g>
<g>
</g>
<g>
</g>
<g>
</g>
<g>
</g>
<g>
</g>
<g>
</g>
<g>
</g>
<g>
</g>
<g>
</g>
<g>
</g>
<g>
</g>
<g>
</g>
</svg>
