<?xml version="1.0" encoding="iso-8859-1"?>
<!-- Generator: Adobe Illustrator 19.0.0, SVG Export Plug-In . SVG Version: 6.00 Build 0)  -->
<svg version="1.1" id="Capa_1" xmlns="http://www.w3.org/2000/svg" xmlns:xlink="http://www.w3.org/1999/xlink" x="0px" y="0px"
	 viewBox="0 0 512.001 512.001" style="enable-background:new 0 0 512.001 512.001;" xml:space="preserve">
<rect x="64.09" y="59.01" style="fill:#F9F9F9;" width="383.96" height="48.733"/>
<rect x="64.09" y="59.01" style="fill:#F2F2F2;" width="30.907" height="48.733"/>
<path style="fill:#70B5E8;" d="M475.112,98.932c-470.136,0-438.691-0.143-440.657,0.259c-5.801,1.187-10.165,6.319-10.165,12.472
	v307.81c0,7.04,5.708,12.73,12.73,12.73c133.09,0,304.865,0,438.092,0c7.03,0,12.731-5.697,12.731-12.73v-307.81
	C487.843,104.632,482.145,98.932,475.112,98.932z"/>
<path style="fill:#52A5D8;" d="M55.574,419.472v-307.81c0-7.04,5.708-12.73,12.73-12.73c-7.652,0-16.874,0-31.284,0
	c-7.016,0-12.73,5.685-12.73,12.73v307.81c0,6.152,4.364,11.285,10.165,12.472c1.836,0.375,0.022,0.259,33.85,0.259
	C61.288,432.202,55.574,426.517,55.574,419.472z"/>
<path style="fill:#666666;" d="M24.29,111.662v53.224h463.553v-53.224c0-7.031-5.7-12.73-12.731-12.73
	c-11.464,0-425.633,0-438.092,0C29.989,98.931,24.29,104.631,24.29,111.662z"/>
<path style="fill:#535454;" d="M68.304,98.932c-30.895,0-36.031-1.487-41.091,4.614c-4.006,4.883-2.921,4.739-2.923,61.34h31.284
	v-53.224C55.574,104.621,61.282,98.932,68.304,98.932z"/>
<path style="fill:#666666;" d="M437.501,0C418.915,0,95.451,0,74.63,0c-5.824,0-10.545,4.721-10.545,10.545v55.41h383.961v-55.41
	C448.046,4.721,443.326,0,437.501,0z"/>
<path style="fill:#535454;" d="M105.538,0H74.63c-5.824,0-10.545,4.721-10.545,10.545v55.41h30.907v-55.41
	C94.993,4.721,99.714,0,105.538,0z"/>
<path style="fill:#EFEFEF;" d="M386.857,347.378H262.762v-46.562c0-4.268-3.459-7.727-7.727-7.727c-4.267,0-7.727,3.459-7.727,7.727
	v46.562H123.214c-10.913,0-19.792,8.879-19.792,19.792v38.392c0,4.268,3.46,7.727,7.727,7.727s7.727-3.459,7.727-7.727V367.17
	c0-2.351,1.987-4.338,4.338-4.338h124.095v45.13c0,4.268,3.46,7.727,7.727,7.727s7.727-3.459,7.727-7.727v-45.13h124.095
	c2.352,0,4.338,1.987,4.338,4.338v38.392c0,4.268,3.46,7.727,7.727,7.727s7.727-3.459,7.727-7.727V367.17
	C406.649,356.257,397.77,347.378,386.857,347.378z"/>
<path style="fill:#F94A46;" d="M50.113,137.377c-7.411-7.401,3.9-18.002,10.921-10.93c2.927,2.841,3.101,7.834,0,10.93
	C58.053,140.359,53.139,140.404,50.113,137.377z"/>
<path style="fill:#FFB70D;" d="M84.884,139.634c-2.04,0-4.028-0.824-5.471-2.257c-1.432-1.442-2.256-3.431-2.256-5.47
	c0-6.002,6.599-9.859,12.013-6.429c0.423,0.289,0.814,0.608,1.175,0.969c1.442,1.432,2.266,3.431,2.266,5.46
	c0,2.039-0.824,4.028-2.266,5.47c-0.361,0.351-0.752,0.67-1.175,0.959c-0.423,0.278-0.865,0.515-1.34,0.71
	c-0.463,0.186-0.948,0.34-1.442,0.433C85.894,139.582,85.379,139.634,84.884,139.634z"/>
<path style="fill:#92B620;" d="M114.184,139.634c-0.495,0-1.01-0.051-1.504-0.155c-0.495-0.093-0.978-0.246-1.442-0.433
	c-0.474-0.195-0.917-0.433-1.339-0.71c-0.423-0.289-0.814-0.608-1.175-0.959c-1.442-1.442-2.267-3.431-2.267-5.47
	c0-2.029,0.825-4.028,2.267-5.46c0.361-0.361,0.752-0.68,1.175-0.969c0.422-0.268,0.865-0.515,1.339-0.7
	c0.464-0.196,0.948-0.35,1.442-0.443c1-0.206,2.019-0.206,3.019,0c0.495,0.093,0.978,0.247,1.442,0.443
	c0.474,0.185,0.917,0.433,1.339,0.7c0.423,0.289,0.814,0.608,1.175,0.969c1.432,1.432,2.256,3.431,2.256,5.46
	c0,2.039-0.824,4.028-2.256,5.47c-0.361,0.351-0.752,0.67-1.175,0.959c-0.422,0.278-0.865,0.515-1.339,0.71
	c-0.464,0.186-0.948,0.34-1.442,0.433C115.205,139.582,114.689,139.634,114.184,139.634z"/>
<g>
	<path style="fill:#7E7F7F;" d="M389.658,139.636H150.19c-4.267,0-7.727-3.459-7.727-7.727c0-4.268,3.459-7.727,7.727-7.727h239.469
		c4.267,0,7.727,3.459,7.727,7.727C397.385,136.177,393.926,139.636,389.658,139.636z"/>
	<path style="fill:#7E7F7F;" d="M451.99,139.636h-27.817c-4.267,0-7.727-3.459-7.727-7.727c0-4.268,3.459-7.727,7.727-7.727h27.817
		c4.267,0,7.727,3.459,7.727,7.727C459.717,136.177,456.258,139.636,451.99,139.636z"/>
</g>
<path style="fill:#F94A46;" d="M112.413,39.406c-8.599-5.874,0.267-18.457,8.571-12.858c5.753,3.931,3.905,12.713-2.771,14.002
	C117.199,40.756,114.37,40.726,112.413,39.406z"/>
<path style="fill:#FFB70D;" d="M141.723,39.406c-1.327-0.885-2.262-2.072-2.854-3.472c-3.536-8.379,8.36-15.14,13.558-7.243
	c3.098,4.591,0.39,10.855-4.914,11.859C147.018,40.652,143.45,40.569,141.723,39.406z"/>
<path style="fill:#92B620;" d="M171.023,39.406c-7.604-5.202-1.431-17.03,7.243-13.568c7.096,2.923,5.968,13.31-1.442,14.712
	C176.329,40.652,172.79,40.567,171.023,39.406z"/>
<path style="fill:#7E7F7F;" d="M408.056,40.704H208.089c-4.267,0-7.727-3.459-7.727-7.727s3.459-7.727,7.727-7.727h199.968
	c4.267,0,7.727,3.459,7.727,7.727S412.324,40.704,408.056,40.704z"/>
<g>
	<path style="fill:#92B620;" d="M147.691,401.441H80.793c-7.532,0-13.637,6.106-13.637,13.638c0,25.118,0,58.182,0,83.285
		c0,7.531,6.105,13.637,13.637,13.637h66.898c7.532,0,13.638-6.106,13.638-13.637c0-12.096,0-72.712,0-83.285
		C161.328,407.546,155.223,401.441,147.691,401.441z"/>
	<path style="fill:#92B620;" d="M289.515,401.441h-66.898c-7.532,0-13.637,6.106-13.637,13.638c0,42.509,0,40.639,0,83.285
		c0,7.531,6.105,13.637,13.637,13.637h66.898c7.532,0,13.638-6.106,13.638-13.637c0-9.561,0-73.644,0-83.285
		C303.153,407.546,297.047,401.441,289.515,401.441z"/>
</g>
<path style="fill:#FFB70D;" d="M289.515,198.209h-66.898c-7.532,0-13.637,6.106-13.637,13.638c0,17.387,0,66.131,0,83.285
	c0,7.531,6.105,13.637,13.637,13.637h66.898c7.532,0,13.638-6.106,13.638-13.637c0-16.943,0-66.062,0-83.285
	C303.153,204.315,297.047,198.209,289.515,198.209z"/>
<path style="fill:#92B620;" d="M431.339,401.441h-66.898c-7.532,0-13.637,6.106-13.637,13.638c0,53.25,0,35.957,0,83.285
	c0,7.531,6.105,13.637,13.637,13.637h66.898c7.532,0,13.638-6.106,13.638-13.637c0-29.808,0-53.642,0-83.285
	C444.977,407.546,438.871,401.441,431.339,401.441z"/>
<g>
	<path style="fill:#89A511;" d="M98.584,498.363c0-16.691,0-66.578,0-83.285c0-7.532,6.105-13.638,13.637-13.638H80.793
		c-7.532,0-13.637,6.106-13.637,13.638c0,16.788,0,66.669,0,83.285c0,7.531,6.105,13.637,13.637,13.637h31.428
		C104.689,512,98.584,505.894,98.584,498.363z"/>
	<path style="fill:#89A511;" d="M240.408,498.363c0-17.619,0-66.389,0-83.285c0-7.532,6.105-13.638,13.637-13.638h-31.428
		c-7.532,0-13.637,6.106-13.637,13.638c0,16.942,0,66.062,0,83.285c0,7.531,6.105,13.637,13.637,13.637h31.428
		C246.513,512,240.408,505.894,240.408,498.363z"/>
</g>
<path style="fill:#F4A403;" d="M240.408,295.131c0-24.334,0-57.621,0-83.285c0-7.532,6.105-13.637,13.637-13.637h-31.428
	c-7.532,0-13.637,6.106-13.637,13.637c0,17.387,0,66.13,0,83.285c0,7.531,6.105,13.637,13.637,13.637h31.428
	C246.513,308.768,240.408,302.663,240.408,295.131z"/>
<path style="fill:#89A511;" d="M382.232,498.363c0-10.142,0-73.046,0-83.285c0-7.532,6.105-13.638,13.637-13.638h-31.428
	c-7.532,0-13.637,6.106-13.637,13.638c0,11.791,0,70.875,0,83.285c0,7.531,6.105,13.637,13.637,13.637h31.428
	C388.337,512,382.232,505.894,382.232,498.363z"/>
<path style="fill:#FCC963;" d="M278.565,276.385h-22.501c-4.267,0-7.727-3.459-7.727-7.727c0-4.268,3.459-7.727,7.727-7.727h22.501
	c4.267,0,7.727,3.459,7.727,7.727S282.833,276.385,278.565,276.385z"/>
<g>
	<path style="fill:#FFDDAB;" d="M278.565,247.25h-22.501c-4.267,0-7.727-3.459-7.727-7.727s3.459-7.727,7.727-7.727h22.501
		c4.267,0,7.727,3.459,7.727,7.727S282.833,247.25,278.565,247.25z"/>
	<path style="fill:#FFDDAB;" d="M229.109,275.08c-1.614-1.061-2.845-2.788-3.286-4.914c-1.351-6.484,5.937-11.844,11.868-7.933
		c5.558,3.656,4.152,12.562-2.782,14.001C233.904,276.444,230.81,276.203,229.109,275.08z"/>
</g>
<path style="fill:#FCC963;" d="M227.934,244.986c-4.29-4.284-2.225-11.748,3.956-13.043c9.87-1.927,13.194,13.044,3.019,15.155
	C232.597,247.583,229.945,246.938,227.934,244.986z"/>
<path style="fill:#F9F9F9;" d="M419.709,479.014h-22.501c-4.267,0-7.727-3.459-7.727-7.727c0-4.268,3.459-7.727,7.727-7.727h22.501
	c4.267,0,7.727,3.459,7.727,7.727S423.976,479.014,419.709,479.014z"/>
<g>
	<path style="fill:#B9D835;" d="M419.709,449.88h-22.501c-4.267,0-7.727-3.459-7.727-7.727c0-4.268,3.459-7.727,7.727-7.727h22.501
		c4.267,0,7.727,3.459,7.727,7.727S423.976,449.88,419.709,449.88z"/>
	<path style="fill:#B9D835;" d="M370.252,477.709c-6.324-4.171-3.347-14.156,4.296-14.156c6.831,0,10.325,8.3,5.46,13.197
		C378.179,478.581,373.437,479.804,370.252,477.709z"/>
</g>
<path style="fill:#F9F9F9;" d="M370.252,448.573c-7.031-4.638-2.41-15.685,5.8-13.991c7.845,1.469,8.672,13.329,0,15.145
	C375.058,449.934,372.017,449.735,370.252,448.573z"/>
<path style="fill:#B9D835;" d="M277.617,479.014h-22.501c-4.267,0-7.727-3.459-7.727-7.727c0-4.268,3.459-7.727,7.727-7.727h22.501
	c4.267,0,7.727,3.459,7.727,7.727S281.885,479.014,277.617,479.014z"/>
<g>
	<path style="fill:#F9F9F9;" d="M277.617,449.88h-22.501c-4.267,0-7.727-3.459-7.727-7.727c0-4.268,3.459-7.727,7.727-7.727h22.501
		c4.267,0,7.727,3.459,7.727,7.727S281.885,449.88,277.617,449.88z"/>
	<path style="fill:#F9F9F9;" d="M228.161,464.861c8.765-5.766,16.899,7.362,8.582,12.848
		C228.098,483.395,219.788,470.382,228.161,464.861z"/>
</g>
<path style="fill:#B9D835;" d="M226.986,447.616c-3.015-3.016-3.02-7.891,0-10.931c3.108-3.018,7.83-3.01,10.931,0
	C244.986,443.8,234.357,454.976,226.986,447.616z"/>
<path style="fill:#F9F9F9;" d="M135.791,479.014H113.29c-4.267,0-7.727-3.459-7.727-7.727c0-4.268,3.459-7.727,7.727-7.727h22.501
	c4.267,0,7.727,3.459,7.727,7.727S140.058,479.014,135.791,479.014z"/>
<g>
	<path style="fill:#B9D835;" d="M135.791,449.88H113.29c-4.267,0-7.727-3.459-7.727-7.727c0-4.268,3.459-7.727,7.727-7.727h22.501
		c4.267,0,7.727,3.459,7.727,7.727S140.058,449.88,135.791,449.88z"/>
	<path style="fill:#B9D835;" d="M82.896,471.29c0-6.079,6.77-9.881,12.023-6.429c5.627,3.715,4.059,12.581-2.782,14.001
		C90.022,479.297,82.896,476.235,82.896,471.29z"/>
</g>
<path style="fill:#F9F9F9;" d="M86.337,448.573c-5.043-3.326-4.474-11.104,1.329-13.558c2.254-0.955,5.082-0.75,7.242,0.711
	c5.612,3.733,4.115,12.529-2.771,14.001C91.633,449.83,88.063,449.737,86.337,448.573z"/>
<g>
</g>
<g>
</g>
<g>
</g>
<g>
</g>
<g>
</g>
<g>
</g>
<g>
</g>
<g>
</g>
<g>
</g>
<g>
</g>
<g>
</g>
<g>
</g>
<g>
</g>
<g>
</g>
<g>
</g>
</svg>
