<?xml version="1.0" encoding="iso-8859-1"?>
<!-- Generator: Adobe Illustrator 19.0.0, SVG Export Plug-In . SVG Version: 6.00 Build 0)  -->
<svg version="1.1" id="Capa_1" xmlns="http://www.w3.org/2000/svg" xmlns:xlink="http://www.w3.org/1999/xlink" x="0px" y="0px"
	 viewBox="0 0 512 512" style="enable-background:new 0 0 512 512;" xml:space="preserve">
<path style="fill:#F7CF9C;" d="M423.012,121.363c-37.982-47.323-87.759-64.885-87.759-64.885
	c-120.757-40.903-245.604,60.349-228.718,189.7l-54.089,54.939c-5.116,5.196-1.435,13.986,5.857,13.986h44.621
	c5.88,0,10.646,4.766,10.646,10.646v62.283c0,28.37,23.212,51.582,51.582,51.582h31.738c13.488,0,24.421,10.934,24.421,24.421v31.46
	c0,9.115,7.389,16.505,16.505,16.505h137.533c10.044,0,17.899-8.659,16.924-18.655l-10.766-110.388
	c0-9.375,4.084-18.334,11.305-24.313C462.121,301.256,479.084,198.407,423.012,121.363z"/>
<g>
	<path style="fill:#EAB883;" d="M84.04,301.118l46.945-47.682c4.43-4.499,6.616-10.704,6.145-17
		c-7.183-96.044,64.081-179.661,159.269-188.249C186.696,37.974,94.429,131.395,106.011,241.73c0.3,2.853-0.696,5.688-2.709,7.732
		l-50.857,51.656c-5.116,5.196-1.435,13.986,5.857,13.986h31.594C82.605,315.104,78.924,306.314,84.04,301.118z"/>
	<path style="fill:#EAB883;" d="M145.164,388.032v-62.283c0-5.88-4.766-10.646-10.646-10.646h-31.594
		c5.88,0,10.646,4.766,10.646,10.646v62.283c0,28.37,23.212,51.582,51.582,51.582h31.594
		C168.376,439.614,145.164,416.402,145.164,388.032z"/>
	<path style="fill:#EAB883;" d="M252.905,495.495v-31.46c0-13.488-10.934-24.421-24.422-24.421h-31.594
		c13.488,0,24.421,10.934,24.421,24.421v31.46c0,9.115,7.389,16.505,16.505,16.505h31.594
		C260.294,512,252.905,504.61,252.905,495.495z"/>
</g>
<circle style="fill:#70B5E8;" cx="280.571" cy="224.01" r="108.56"/>
<path style="fill:#52A5D8;" d="M213.985,262.46c-27.288-47.264-14.99-106.515,26.599-139.378
	c-61.87,24.602-87.007,98.085-54.025,155.213c33.035,57.218,109.257,72.045,161.431,30.819
	C298.735,328.699,241.273,309.724,213.985,262.46z"/>
<g>
	<path style="fill:#F9F9F9;" d="M235.715,250.952c-22.473-23.474-25.843-23.477-25.843-29.043c0-5.579,3.486-5.691,25.843-29.044
		c3.017-3.016,7.91-3.016,10.927,0c3.018,3.018,3.018,7.91,0,10.928l-18.116,18.116l18.116,18.115c3.018,3.018,3.018,7.91,0,10.928
		C243.624,253.97,238.733,253.969,235.715,250.952z"/>
	<path style="fill:#F9F9F9;" d="M319.97,253.215c-6.823,0-10.345-8.308-5.464-13.191l18.116-18.115l-18.116-18.116
		c-3.018-3.018-3.018-7.91,0-10.928c3.018-3.017,7.91-3.015,10.927,0l23.579,23.58c1.449,1.45,2.263,3.415,2.263,5.464
		c0,2.049-0.814,4.014-2.263,5.464l-23.579,23.579C323.925,252.461,321.947,253.215,319.97,253.215z"/>
	<path style="fill:#F9F9F9;" d="M263.658,267.656c-4.01-1.46-6.077-5.894-4.618-9.904l26.483-72.76
		c1.459-4.009,5.894-6.074,9.904-4.618c4.01,1.46,6.077,5.894,4.618,9.904l-26.483,72.76
		C272.104,267.042,267.678,269.115,263.658,267.656z"/>
</g>
<path style="fill:#92B620;" d="M459.435,54.761c-2.345-3.046-11.169-7.671-9.397-18.005l1.203-7.014
	c0.786-4.579-2.347-8.912-6.963-9.583c-3.521-1.039-13.495,0.333-18.117-9.033l-3.214-6.512c-2.06-4.174-7.146-5.827-11.266-3.66
	c-3.46,1.229-10.703,8.192-19.947,3.331l-6.337-3.331c-4.063-2.135-9.181-0.564-11.266,3.66
	c-2.099,3.066-3.876,13.009-14.226,14.512l-7.105,1.033c-4.608,0.669-7.75,4.995-6.963,9.583c0.097,3.638,4.473,12.672-3.003,19.958
	l-5.191,5.06c-3.334,3.248-3.333,8.597,0,11.845l5.19,5.059c7.518,7.329,3.102,16.266,3.003,19.959
	c-0.787,4.589,2.356,8.914,6.963,9.583c3.515,1.037,13.494-0.333,18.117,9.033l3.214,6.512c1.468,2.975,4.433,4.615,7.428,4.615
	c3.197,0,4.669-1.621,10.174-4.286c4.261-2.241,9.349-2.241,13.611,0l6.337,3.331c4.113,2.162,9.202,0.522,11.266-3.66
	c2.099-3.066,3.877-13.009,14.225-14.512l7.105-1.033c4.607-0.669,7.75-4.995,6.963-9.583l-1.203-7.014
	c-1.777-10.362,7.081-14.997,9.397-18.004C462.768,63.357,462.768,58.009,459.435,54.761z"/>
<path style="fill:#F9F9F9;" d="M387.41,81.742l-11.547-14.094c-2.704-3.301-2.22-8.17,1.081-10.874
	c3.301-2.702,8.17-2.22,10.874,1.081l5.762,7.034l19.248-22.005c2.81-3.213,7.691-3.538,10.903-0.729
	c3.213,2.81,3.538,7.692,0.729,10.903l-25.257,28.876C396.043,85.545,390.422,85.418,387.41,81.742z"/>
<path style="fill:#89A511;" d="M368.74,14.278c-5.082,5.971-11.202,4.67-15.938,5.881c-4.607,0.669-7.75,4.995-6.963,9.583
	c0.097,3.638,4.473,12.672-3.003,19.958l-5.191,5.06c-3.334,3.248-3.333,8.597,0,11.845l5.19,5.059
	c7.518,7.329,3.102,16.266,3.003,19.959c-0.787,4.589,2.356,8.914,6.963,9.583c3.515,1.037,13.494-0.333,18.117,9.033l3.214,6.512
	c1.468,2.975,4.433,4.615,7.428,4.615c3.197,0,4.669-1.621,10.174-4.286c4.261-2.241,9.349-2.241,13.611,0l6.336,3.331
	c4.113,2.162,9.202,0.522,11.266-3.66c2.391-3.798,3.521-10.982,11.438-13.796C386.445,106.801,351.062,58.997,368.74,14.278z"/>
<g>
</g>
<g>
</g>
<g>
</g>
<g>
</g>
<g>
</g>
<g>
</g>
<g>
</g>
<g>
</g>
<g>
</g>
<g>
</g>
<g>
</g>
<g>
</g>
<g>
</g>
<g>
</g>
<g>
</g>
</svg>
