<?xml version="1.0" encoding="iso-8859-1"?>
<!-- Generator: Adobe Illustrator 19.0.0, SVG Export Plug-In . SVG Version: 6.00 Build 0)  -->
<svg version="1.1" id="Capa_1" xmlns="http://www.w3.org/2000/svg" xmlns:xlink="http://www.w3.org/1999/xlink" x="0px" y="0px"
	 viewBox="0 0 511.99 511.99" style="enable-background:new 0 0 511.99 511.99;" xml:space="preserve">
<path style="fill:#CCCCCC;" d="M496.239,511.99H15.751c-6.531,0-11.826-5.295-11.826-11.826V322.072
	c0-6.531,5.295-11.826,11.826-11.826h480.488c6.531,0,11.826,5.295,11.826,11.826v178.092
	C508.065,506.695,502.77,511.99,496.239,511.99z"/>
<path style="fill:#BCBBB8;" d="M82.719,500.164V322.072c0-6.531,5.295-11.826,11.826-11.826H15.751
	c-6.531,0-11.826,5.295-11.826,11.826v178.092c0,6.531,5.295,11.826,11.826,11.826h78.793
	C88.013,511.99,82.719,506.695,82.719,500.164z"/>
<g>
	<path style="fill:#EFEFEF;" d="M405.303,222.079H85.027c-20.833,0-37.783-16.949-37.783-37.783s16.949-37.783,37.783-37.783h97.304
		c4.333,0,7.845-3.512,7.845-7.845c0-4.333-3.512-7.845-7.845-7.845H85.027c-29.485,0-53.473,23.988-53.473,53.473
		s23.987,53.473,53.473,53.473h320.276c20.834,0,37.783,16.948,37.783,37.782v39.403c0,4.333,3.512,7.845,7.845,7.845
		s7.845-3.512,7.845-7.845v-39.403C458.776,246.067,434.788,222.079,405.303,222.079z"/>
	<path style="fill:#EFEFEF;" d="M285.5,398.792c0,2.475,2.007,4.482,4.482,4.482c0.144,0,19.419,0,18.666,0
		c2.475,0,4.482-2.007,4.482-4.482v-11.585c0-2.475-2.007-4.482-4.482-4.482h-18.666c-2.475,0-4.482,2.007-4.482,4.482V398.792z"/>
	<path style="fill:#EFEFEF;" d="M311.641,367.034h18.666c2.475,0,4.482-2.007,4.482-4.482v-11.585c0-2.475-2.007-4.482-4.482-4.482
		h-18.666c-2.475,0-4.482,2.007-4.482,4.482v11.585C307.159,365.028,309.166,367.034,311.641,367.034z"/>
	<path style="fill:#EFEFEF;" d="M269.81,460.332c0-2.833-2.296-5.129-5.129-5.129c-0.161,0-18.061,0-17.37,0
		c-2.833,0-5.129,2.297-5.129,5.129v10.29c0,2.833,2.296,5.129,5.129,5.129h17.37c2.833,0,5.129-2.296,5.129-5.129V460.332z"/>
	<path style="fill:#EFEFEF;" d="M313.129,460.332c0-2.833-2.296-5.129-5.129-5.129c-0.161,0-18.061,0-17.37,0
		c-2.833,0-5.129,2.297-5.129,5.129v10.29c0,2.833,2.297,5.129,5.129,5.129H308c2.833,0,5.129-2.296,5.129-5.129V460.332z"/>
	<path style="fill:#EFEFEF;" d="M291.469,434.383v-10.29c0-2.833-2.296-5.129-5.129-5.129c-0.161,0-18.061,0-17.37,0
		c-2.833,0-5.129,2.297-5.129,5.129v10.29c0,2.833,2.296,5.129,5.129,5.129c0.161,0,18.061,0,17.37,0
		C289.173,439.513,291.469,437.216,291.469,434.383z"/>
	<path style="fill:#EFEFEF;" d="M268.322,367.034h18.666c2.475,0,4.482-2.007,4.482-4.482v-11.585c0-2.475-2.007-4.482-4.482-4.482
		h-18.666c-2.475,0-4.482,2.007-4.482,4.482v11.585C263.84,365.028,265.847,367.034,268.322,367.034z"/>
	<path style="fill:#EFEFEF;" d="M334.788,434.383v-10.29c0-2.833-2.296-5.129-5.129-5.129c-0.161,0-18.061,0-17.37,0
		c-2.833,0-5.129,2.297-5.129,5.129v10.29c0,2.833,2.297,5.129,5.129,5.129c0.161,0,18.061,0,17.37,0
		C332.492,439.513,334.788,437.216,334.788,434.383z"/>
	<path style="fill:#EFEFEF;" d="M242.18,398.792c0,2.475,2.007,4.482,4.482,4.482c0.144,0,19.419,0,18.666,0
		c2.475,0,4.482-2.007,4.482-4.482v-11.585c0-2.475-2.007-4.482-4.482-4.482h-18.666c-2.475,0-4.482,2.007-4.482,4.482
		L242.18,398.792L242.18,398.792z"/>
	<path style="fill:#EFEFEF;" d="M138.364,367.034h18.666c2.475,0,4.482-2.007,4.482-4.482v-11.585c0-2.475-2.007-4.482-4.482-4.482
		h-18.666c-2.475,0-4.482,2.007-4.482,4.482v11.585C133.883,365.028,135.889,367.034,138.364,367.034z"/>
	<path style="fill:#EFEFEF;" d="M155.542,398.792c0,2.475,2.007,4.482,4.482,4.482c0.144,0,19.419,0,18.666,0
		c2.475,0,4.482-2.007,4.482-4.482v-11.585c0-2.475-2.007-4.482-4.482-4.482h-18.666c-2.475,0-4.482,2.007-4.482,4.482V398.792z"/>
	<path style="fill:#EFEFEF;" d="M198.861,398.792c0,2.475,2.007,4.482,4.482,4.482c0.144,0,19.419,0,18.666,0
		c2.475,0,4.482-2.007,4.482-4.482v-11.585c0-2.475-2.007-4.482-4.482-4.482h-18.666c-2.475,0-4.482,2.007-4.482,4.482V398.792z"/>
	<path style="fill:#EFEFEF;" d="M225.003,367.034h18.666c2.475,0,4.482-2.007,4.482-4.482v-11.585c0-2.475-2.007-4.482-4.482-4.482
		h-18.666c-2.475,0-4.482,2.007-4.482,4.482v11.585C220.521,365.028,222.527,367.034,225.003,367.034z"/>
	<path style="fill:#EFEFEF;" d="M181.684,367.034h18.666c2.475,0,4.482-2.007,4.482-4.482v-11.585c0-2.475-2.007-4.482-4.482-4.482
		h-18.666c-2.475,0-4.482,2.007-4.482,4.482v11.585C177.202,365.028,179.208,367.034,181.684,367.034z"/>
	<path style="fill:#EFEFEF;" d="M248.15,434.383v-10.29c0-2.833-2.296-5.129-5.129-5.129c-0.161,0-18.061,0-17.37,0
		c-2.833,0-5.129,2.297-5.129,5.129v10.29c0,2.833,2.296,5.129,5.129,5.129c0.161,0,18.061,0,17.37,0
		C245.854,439.513,248.15,437.216,248.15,434.383z"/>
	<path style="fill:#EFEFEF;" d="M443.086,398.792v-11.585c0-2.475-2.007-4.482-4.482-4.482h-18.666
		c-2.475,0-4.482,2.007-4.482,4.482v11.585c0,2.475,2.007,4.482,4.482,4.482c0.144,0,19.419,0,18.666,0
		C441.079,403.273,443.086,401.267,443.086,398.792z"/>
	<path style="fill:#EFEFEF;" d="M372.138,398.792c0,2.475,2.007,4.482,4.482,4.482c0.144,0,19.419,0,18.666,0
		c2.475,0,4.482-2.007,4.482-4.482v-11.585c0-2.475-2.007-4.482-4.482-4.482H376.62c-2.475,0-4.482,2.007-4.482,4.482V398.792z"/>
	<path style="fill:#EFEFEF;" d="M421.426,434.383v-10.29c0-2.833-2.296-5.129-5.129-5.129c-0.161,0-18.061,0-17.37,0
		c-2.833,0-5.129,2.297-5.129,5.129v10.29c0,2.833,2.296,5.129,5.129,5.129c0.161,0,18.061,0,17.37,0
		C419.13,439.513,421.426,437.216,421.426,434.383z"/>
	<path style="fill:#EFEFEF;" d="M372.138,460.332v10.29c0,2.833,2.297,5.129,5.129,5.129h17.37c2.833,0,5.129-2.296,5.129-5.129
		v-10.29c0-2.833-2.296-5.129-5.129-5.129c-0.161,0-18.061,0-17.37,0C374.434,455.203,372.138,457.499,372.138,460.332z"/>
	<path style="fill:#EFEFEF;" d="M398.279,367.034h18.666c2.475,0,4.482-2.007,4.482-4.482v-11.585c0-2.475-2.007-4.482-4.482-4.482
		h-18.666c-2.475,0-4.482,2.007-4.482,4.482v11.585C393.797,365.028,395.804,367.034,398.279,367.034z"/>
	<path style="fill:#EFEFEF;" d="M226.49,460.332c0-2.833-2.296-5.129-5.129-5.129c-0.161,0-18.061,0-17.37,0
		c-2.833,0-5.129,2.297-5.129,5.129v10.29c0,2.833,2.296,5.129,5.129,5.129h17.37c2.833,0,5.129-2.296,5.129-5.129V460.332z"/>
	<path style="fill:#EFEFEF;" d="M155.542,460.332v10.29c0,2.833,2.296,5.129,5.129,5.129h17.37c2.833,0,5.129-2.296,5.129-5.129
		v-10.29c0-2.833-2.296-5.129-5.129-5.129c-0.161,0-18.061,0-17.37,0C157.839,455.203,155.542,457.499,155.542,460.332z"/>
	<path style="fill:#EFEFEF;" d="M328.819,398.792c0,2.475,2.007,4.482,4.482,4.482c0.144,0,19.419,0,18.666,0
		c2.475,0,4.482-2.007,4.482-4.482v-11.585c0-2.475-2.007-4.482-4.482-4.482h-18.666c-2.475,0-4.482,2.007-4.482,4.482
		L328.819,398.792L328.819,398.792z"/>
	<path style="fill:#EFEFEF;" d="M354.96,367.034h18.666c2.475,0,4.482-2.007,4.482-4.482v-11.585c0-2.475-2.007-4.482-4.482-4.482
		H354.96c-2.475,0-4.482,2.007-4.482,4.482v11.585C350.478,365.028,352.485,367.034,354.96,367.034z"/>
	<path style="fill:#EFEFEF;" d="M204.831,434.383v-10.29c0-2.833-2.296-5.129-5.129-5.129c-0.161,0-18.061,0-17.37,0
		c-2.833,0-5.129,2.297-5.129,5.129v10.29c0,2.833,2.296,5.129,5.129,5.129c0.161,0,18.061,0,17.37,0
		C202.534,439.513,204.831,437.216,204.831,434.383z"/>
</g>
<path style="fill:#DDDDDD;" d="M70.392,346.486H51.726c-2.475,0-4.482,2.007-4.482,4.482v11.585c0,2.475,2.007,4.482,4.482,4.482
	h18.666c2.475,0,4.482-2.007,4.482-4.482v-11.585C74.874,348.493,72.867,346.486,70.392,346.486z"/>
<g>
	<path style="fill:#EFEFEF;" d="M415.457,460.032v10.621c0,2.816,2.283,5.099,5.099,5.099h87.509v-20.549
		c-1.931,0-89.592,0-87.778,0C417.619,455.203,415.457,457.365,415.457,460.032z"/>
	<path style="fill:#EFEFEF;" d="M378.107,424.093c0-2.833-2.296-5.129-5.129-5.129c-0.161,0-18.061,0-17.37,0
		c-2.833,0-5.129,2.297-5.129,5.129v10.29c0,2.833,2.297,5.129,5.129,5.129c0.161,0,18.061,0,17.37,0
		c2.833,0,5.129-2.296,5.129-5.129V424.093z"/>
	<path style="fill:#EFEFEF;" d="M372.138,495.828v16.162H501.28c3.747,0,6.785-3.038,6.785-6.785v-13.763
		c-20.136,0-139.118,0-131.541,0C374.101,491.442,372.138,493.405,372.138,495.828z"/>
	<path style="fill:#EFEFEF;" d="M328.819,460.332v10.29c0,2.833,2.296,5.129,5.129,5.129h17.37c2.833,0,5.129-2.296,5.129-5.129
		v-10.29c0-2.833-2.296-5.129-5.129-5.129c-0.161,0-18.061,0-17.37,0C331.115,455.203,328.819,457.499,328.819,460.332z"/>
	<path style="fill:#EFEFEF;" d="M158.988,491.442c-1.903,0-3.446,1.543-3.446,3.446v17.102h200.906v-16.903
		c0-2.013-1.632-3.646-3.646-3.646C338.926,491.442,145.795,491.442,158.988,491.442z"/>
	<path style="fill:#EFEFEF;" d="M161.512,424.093c0-2.833-2.296-5.129-5.129-5.129c-0.161,0-18.061,0-17.37,0
		c-2.833,0-5.129,2.297-5.129,5.129v10.29c0,2.833,2.296,5.129,5.129,5.129c0.161,0,18.061,0,17.37,0
		c2.833,0,5.129-2.296,5.129-5.129V424.093z"/>
	<path style="fill:#EFEFEF;" d="M501.28,310.247H47.244v15.799c0,2.624,2.127,4.75,4.75,4.75c123.163,0,375.001,0,456.07,0v-13.765
		C508.065,313.284,505.027,310.247,501.28,310.247z"/>
</g>
<path style="fill:#DDDDDD;" d="M51.995,330.796h30.724v-8.724c0-6.531,5.295-11.826,11.826-11.826h-47.3v15.799
	C47.244,328.669,49.371,330.796,51.995,330.796z"/>
<g>
	<path style="fill:#EFEFEF;" d="M112.223,459.684v11.586c0,2.475,2.007,4.482,4.482,4.482h18.666c2.475,0,4.482-2.007,4.482-4.482
		v-11.586c0-2.475-2.007-4.482-4.482-4.482c-0.144,0-19.419,0-18.666,0C114.23,455.203,112.223,457.209,112.223,459.684z"/>
	<path style="fill:#EFEFEF;" d="M437.116,423.07v12.314c0,2.28,1.848,4.128,4.128,4.128h66.82v-20.549c-3.237,0-70.081,0-66.841,0
		C438.955,418.963,437.116,420.802,437.116,423.07z"/>
	<path style="fill:#EFEFEF;" d="M463.575,403.273h44.489v-20.548h-44.277c-2.768,0-5.012,2.244-5.012,5.012v10.737
		C458.776,401.125,460.925,403.273,463.575,403.273z"/>
	<path style="fill:#EFEFEF;" d="M442.813,367.034h65.252v-20.548h-65.73c-2.882,0-5.219,2.337-5.219,5.219v9.633
		C437.116,364.484,439.667,367.034,442.813,367.034z"/>
</g>
<path style="fill:#DDDDDD;" d="M3.925,505.205c0,3.747,3.038,6.785,6.785,6.785h16.708c2.285,0,4.137-1.852,4.137-4.137v-12.758
	c0-2.018-1.636-3.654-3.654-3.654H3.925V505.205z"/>
<path style="fill:#EFEFEF;" d="M95.045,367.034h18.666c2.475,0,4.482-2.007,4.482-4.482v-11.585c0-2.475-2.007-4.482-4.482-4.482
	H95.045c-2.475,0-4.482,2.007-4.482,4.482v11.585C90.564,365.028,92.57,367.034,95.045,367.034z"/>
<path style="fill:#DDDDDD;" d="M31.554,310.247H10.71c-3.747,0-6.785,3.038-6.785,6.785v13.765h18.469c5.059,0,9.16-4.101,9.16-9.16
	V310.247z"/>
<path style="fill:#EFEFEF;" d="M68.904,398.792c0,2.475,2.007,4.482,4.482,4.482c0.144,0,19.419,0,18.666,0
	c2.475,0,4.482-2.007,4.482-4.482v-11.585c0-2.475-2.007-4.482-4.482-4.482H73.386c-2.475,0-4.482,2.007-4.482,4.482V398.792z"/>
<path style="fill:#DDDDDD;" d="M73.386,403.273h9.333v-20.548h-9.333c-2.475,0-4.482,2.007-4.482,4.482v11.585
	C68.904,401.267,70.911,403.273,73.386,403.273z"/>
<g>
	<path style="fill:#EFEFEF;" d="M118.193,435.031v-11.586c0-2.475-2.007-4.482-4.482-4.482c-0.144,0-19.419,0-18.666,0
		c-2.475,0-4.482,2.007-4.482,4.482v11.586c0,2.475,2.007,4.482,4.482,4.482c0.144,0,19.419,0,18.666,0
		C116.186,439.513,118.193,437.506,118.193,435.031z"/>
	<path style="fill:#EFEFEF;" d="M68.904,460.332v10.29c0,2.833,2.296,5.129,5.129,5.129h17.37c2.833,0,5.129-2.296,5.129-5.129
		v-10.29c0-2.833-2.296-5.129-5.129-5.129c-0.161,0-18.061,0-17.37,0C71.2,455.203,68.904,457.499,68.904,460.332z"/>
</g>
<path style="fill:#DDDDDD;" d="M74.033,475.752h8.685v-20.549h-8.685c-2.833,0-5.129,2.297-5.129,5.129v10.29
	C68.904,473.455,71.2,475.752,74.033,475.752z"/>
<g>
	<path style="fill:#EFEFEF;" d="M112.223,398.792c0,2.475,2.007,4.482,4.482,4.482c0.144,0,19.419,0,18.666,0
		c2.475,0,4.482-2.007,4.482-4.482v-11.585c0-2.475-2.007-4.482-4.482-4.482h-18.666c-2.475,0-4.482,2.007-4.482,4.482V398.792z"/>
	<path style="fill:#EFEFEF;" d="M50.176,491.442c-1.619,0-2.932,1.313-2.932,2.932v17.616h92.608v-17.792
		c0-1.522-1.234-2.756-2.756-2.756h-32.718C103.231,491.442,47.973,491.442,50.176,491.442z"/>
</g>
<g>
	<path style="fill:#DDDDDD;" d="M82.719,500.164v-8.722c-16.679,0-15.568,0-32.542,0c-1.619,0-2.932,1.313-2.932,2.932v17.616h47.3
		C88.013,511.99,82.719,506.695,82.719,500.164z"/>
	<path style="fill:#DDDDDD;" d="M50.638,455.203H3.925v20.549c1.772,0,46.834,0,45.468,0c2.11,0,3.821-1.711,3.821-3.821v-14.153
		C53.214,456.356,52.061,455.203,50.638,455.203z"/>
	<path style="fill:#DDDDDD;" d="M53.214,387.821c0-2.815-2.282-5.096-5.096-5.096c-16.268,0-17.264,0-44.192,0v20.548H48.24
		c2.747,0,4.975-2.227,4.975-4.975L53.214,387.821L53.214,387.821z"/>
	<path style="fill:#DDDDDD;" d="M26.61,346.486H3.925v20.549h20.671c3.843,0,6.958-3.115,6.958-6.958v-8.646
		C31.554,348.7,29.341,346.486,26.61,346.486z"/>
	<path style="fill:#DDDDDD;" d="M74.874,436.036V422.53c0-1.97-1.597-3.567-3.567-3.567c-9.841,0-58.764,0-67.381,0v20.549
		c3.046,0,70.512,0,67.472,0C73.317,439.513,74.874,437.956,74.874,436.036z"/>
</g>
<circle style="fill:#70B5E8;" cx="255.995" cy="95.48" r="95.48"/>
<path style="fill:#52A5D8;" d="M201.235,127.098C177.618,86.192,187.716,35.078,222.9,5.916
	c-55.665,20.643-79.089,86.213-49.591,137.305c29.565,51.209,98.095,63.51,143.705,25.706
	C274.168,184.816,224.853,168.004,201.235,127.098z"/>
<g>
	<path style="fill:#F9F9F9;" d="M215.8,119.916c-19.048-20.014-23.036-20.661-23.036-26.285c0-5.649,4.347-6.648,23.036-26.286
		c3.064-3.062,8.031-3.062,11.094,0c3.064,3.064,3.064,8.031,0,11.095l-15.191,15.19l15.191,15.189
		c3.063,3.063,3.064,8.031,0,11.094C223.831,122.979,218.865,122.979,215.8,119.916z"/>
	<path style="fill:#F9F9F9;" d="M290.643,122.213c-6.927,0-10.504-8.435-5.547-13.393l15.19-15.189l-15.19-15.19
		c-3.064-3.064-3.064-8.031,0-11.095c3.063-3.062,8.031-3.062,11.094,0l20.738,20.738c1.472,1.472,2.298,3.467,2.298,5.548
		c0,5.649-4.346,6.648-23.036,26.285C294.658,121.447,292.65,122.213,290.643,122.213z"/>
	<path style="fill:#F9F9F9;" d="M240.759,134.851c-4.072-1.482-6.171-5.984-4.689-10.055l23.291-63.992
		c1.482-4.072,5.984-6.173,10.055-4.689c4.072,1.482,6.171,5.984,4.689,10.056l-23.291,63.992
		C249.326,134.249,244.811,136.328,240.759,134.851z"/>
</g>
<g>
</g>
<g>
</g>
<g>
</g>
<g>
</g>
<g>
</g>
<g>
</g>
<g>
</g>
<g>
</g>
<g>
</g>
<g>
</g>
<g>
</g>
<g>
</g>
<g>
</g>
<g>
</g>
<g>
</g>
</svg>
