<?xml version="1.0" encoding="iso-8859-1"?>
<!-- Generator: Adobe Illustrator 21.0.0, SVG Export Plug-In . SVG Version: 6.00 Build 0)  -->
<svg xmlns="http://www.w3.org/2000/svg" xmlns:xlink="http://www.w3.org/1999/xlink" version="1.1" id="Capa_1" x="0px" y="0px" viewBox="0 0 512 512" style="enable-background:new 0 0 512 512;" xml:space="preserve" width="512" height="512">
<g>
	<path style="fill:#575F64;" d="M331,15v62c0,8.401-6.599,15-15,15H196c-8.401,0-15-6.599-15-15V15c0-8.401,6.599-15,15-15h120   C324.401,0,331,6.599,331,15z"/>
	<path style="fill:#32393F;" d="M331,15v62c0,8.401-6.599,15-15,15h-60V0h60C324.401,0,331,6.599,331,15z"/>
	<path style="fill:#7C8388;" d="M391,77v60l-132.299,30L256,166.399L121,137V77c0-8.401,6.599-15,15-15h240   C384.401,62,391,68.599,391,77z"/>
	<path style="fill:#575F64;" d="M391,77v60l-132.299,30L256,166.399V62h120C384.401,62,391,68.599,391,77z"/>
	<path style="fill:#7C8388;" d="M391,437v60c0,8.401-6.599,15-15,15H136c-8.401,0-15-6.599-15-15v-60l135-30L391,437z"/>
	<path style="fill:#575F64;" d="M391,437v60c0,8.401-6.599,15-15,15H256V407L391,437z"/>
	<rect x="121" y="137" style="fill:#7FE881;" width="270" height="300"/>
	<rect x="256" y="137" style="fill:#5BC980;" width="135" height="300"/>
	<rect x="181" y="347" style="fill:#ECECF1;" width="150" height="45"/>
	<rect x="181" y="272" style="fill:#ECECF1;" width="150" height="45"/>
	<rect x="181" y="197" style="fill:#ECECF1;" width="150" height="45"/>
	<rect x="256" y="197" style="fill:#D3D3D8;" width="75" height="45"/>
	<rect x="256" y="272" style="fill:#D3D3D8;" width="75" height="45"/>
	<rect x="256" y="347" style="fill:#D3D3D8;" width="75" height="45"/>
</g>















</svg>
