<?xml version="1.0" encoding="iso-8859-1"?>
<!-- Generator: Adobe Illustrator 21.0.0, SVG Export Plug-In . SVG Version: 6.00 Build 0)  -->
<svg xmlns="http://www.w3.org/2000/svg" xmlns:xlink="http://www.w3.org/1999/xlink" version="1.1" id="Capa_1" x="0px" y="0px" viewBox="0 0 512 512" style="enable-background:new 0 0 512 512;" xml:space="preserve" width="512" height="512">
<g>
	<g>
		<g>
			<path style="fill:#FF641A;" d="M507.499,145.901l-141.4-141.4C363.1,1.5,359.5,0,355.3,0H156.7c-4.2,0-7.8,1.5-10.8,4.501     l-141.4,141.4C1.5,148.9,0,152.5,0,156.7v198.6c0,4.2,1.5,7.8,4.501,10.8l141.4,141.4C148.9,510.5,152.5,512,156.7,512h198.6     c4.2,0,7.8-1.5,10.8-4.501l141.4-141.4C510.5,363.1,512,359.5,512,355.3V156.7C512,152.5,510.5,148.9,507.499,145.901z"/>
		</g>
	</g>
	<path style="fill:#F03800;" d="M512,156.7v198.6c0,4.2-1.5,7.8-4.501,10.8l-141.4,141.4C363.1,510.5,359.5,512,355.3,512H256V0   h99.3c4.2,0,7.8,1.5,10.8,4.501l141.4,141.4C510.5,148.9,512,152.5,512,156.7z"/>
	<g>
		<path style="fill:#ECECF1;" d="M256,331c-24.901,0-45,20.099-45,45s20.099,45,45,45s45-20.099,45-45S280.901,331,256,331z"/>
	</g>
	<g>
		<path style="fill:#ECECF1;" d="M256,91c-24.901,0-45,20.099-45,45v120c0,24.901,20.099,45,45,45s45-20.099,45-45V136    C301,111.099,280.901,91,256,91z"/>
	</g>
	<path style="fill:#D3D3D8;" d="M301,376c0,24.901-20.099,45-45,45v-90C280.901,331,301,351.099,301,376z"/>
	<path style="fill:#D3D3D8;" d="M301,136v120c0,24.901-20.099,45-45,45V91C280.901,91,301,111.099,301,136z"/>
</g>















</svg>
