<?xml version="1.0" encoding="iso-8859-1"?>
<!-- Generator: Adobe Illustrator 21.0.0, SVG Export Plug-In . SVG Version: 6.00 Build 0)  -->
<svg xmlns="http://www.w3.org/2000/svg" xmlns:xlink="http://www.w3.org/1999/xlink" version="1.1" id="Capa_1" x="0px" y="0px" viewBox="0 0 512 512" style="enable-background:new 0 0 512 512;" xml:space="preserve" width="512" height="512">
<g>
	<g>
		<path style="fill:#7FE881;" d="M256,0C115.3,0,0,115.3,0,256s115.3,256,256,256s256-115.3,256-256S396.7,0,256,0z"/>
	</g>
	<path style="fill:#5BC980;" d="M512,256c0,140.7-115.3,256-256,256V0C396.7,0,512,115.3,512,256z"/>
	<g>
		<path style="fill:#ECECF1;" d="M407.8,191.499L365.501,149.2c-6-6-15.601-6-21.301,0L211,282.4l-58.2-58.2c-5.7-6-15.3-6-21.301,0    L89.2,266.499c-6,6-6,15.601,0,21.301l111.301,111.301c5.059,5.622,15.936,5.625,20.999,0L407.8,212.8    C413.8,207.1,413.8,197.5,407.8,191.499z"/>
	</g>
	<path style="fill:#D3D3D8;" d="M407.8,212.8L256,364.6V237.4l88.2-88.2c5.7-6,15.3-6,21.301,0l42.299,42.299   C413.8,197.5,413.8,207.1,407.8,212.8z"/>
</g>















</svg>
