<?xml version="1.0" encoding="iso-8859-1"?>
<!-- Generator: Adobe Illustrator 21.0.0, SVG Export Plug-In . SVG Version: 6.00 Build 0)  -->
<svg xmlns="http://www.w3.org/2000/svg" xmlns:xlink="http://www.w3.org/1999/xlink" version="1.1" id="Capa_1" x="0px" y="0px" viewBox="0 0 512 512" style="enable-background:new 0 0 512 512;" xml:space="preserve" width="512" height="512">
<g>
	<path style="fill:#ECECF1;" d="M383.5,195v302c0,8.401-6.599,15-15,15h-330c-8.401,0-15-6.599-15-15V165   c28.801,0,55.201-11.7,74.099-30.901C116.8,115.201,128.5,88.801,128.5,60h155.099c8.401,0,15,6.599,15,15L368.5,180   C376.901,180,383.5,186.599,383.5,195z"/>
	<path style="fill:#D3D3D8;" d="M383.5,195v302c0,8.401-6.599,15-15,15h-165V60h80.099c8.401,0,15,6.599,15,15L368.5,180   C376.901,180,383.5,186.599,383.5,195z"/>
	<path style="fill:#D3D3D8;" d="M128.5,60c-3.984,0-7.793,1.582-10.605,4.395l-90,90C25.082,157.207,23.5,161.016,23.5,165h105V60z"/>
	<g>
		<path style="fill:#00C0F1;" d="M383.5,0c-57.9,0-105,47.1-105,105s47.1,105,105,105s105-47.1,105-105S441.4,0,383.5,0z"/>
	</g>
	<path style="fill:#009AE4;" d="M488.5,105c0,57.9-47.1,105-105,105V0C441.4,0,488.5,47.1,488.5,105z"/>
	<g>
		<path style="fill:#ECECF1;" d="M398.5,105v45c0,8.401-6.599,15-15,15s-15-6.599-15-15v-45c0-8.401,6.599-15,15-15    S398.5,96.599,398.5,105z"/>
	</g>
	<g>
		<path style="fill:#ECECF1;" d="M398.5,60c0,8.401-6.599,15-15,15s-15-6.599-15-15s6.599-15,15-15S398.5,51.599,398.5,60z"/>
	</g>
	<g>
		<path style="fill:#D3D3D8;" d="M293.5,255c0,8.401-6.599,15-15,15h-150c-8.401,0-15-6.599-15-15s6.599-15,15-15h150    C286.901,240,293.5,246.599,293.5,255z"/>
	</g>
	<g>
		<path style="fill:#D3D3D8;" d="M293.5,315c0,8.401-6.599,15-15,15h-150c-8.401,0-15-6.599-15-15s6.599-15,15-15h150    C286.901,300,293.5,306.599,293.5,315z"/>
	</g>
	<g>
		<path style="fill:#D3D3D8;" d="M293.5,375c0,8.401-6.599,15-15,15h-150c-8.401,0-15-6.599-15-15s6.599-15,15-15h150    C286.901,360,293.5,366.599,293.5,375z"/>
	</g>
	<path style="fill:#BABAC0;" d="M293.5,375c0,8.401-6.599,15-15,15h-75v-30h75C286.901,360,293.5,366.599,293.5,375z"/>
	<path style="fill:#BABAC0;" d="M293.5,315c0,8.401-6.599,15-15,15h-75v-30h75C286.901,300,293.5,306.599,293.5,315z"/>
	<path style="fill:#BABAC0;" d="M278.5,270h-75v-30h75c8.401,0,15,6.599,15,15S286.901,270,278.5,270z"/>
	<path style="fill:#D3D3D8;" d="M383.5,75V45c8.401,0,15,6.599,15,15S391.901,75,383.5,75z"/>
	<path style="fill:#D3D3D8;" d="M398.5,105v45c0,8.401-6.599,15-15,15V90C391.901,90,398.5,96.599,398.5,105z"/>
</g>















</svg>
