<?xml version="1.0" encoding="iso-8859-1"?>
<!-- Generator: Adobe Illustrator 21.0.0, SVG Export Plug-In . SVG Version: 6.00 Build 0)  -->
<svg xmlns="http://www.w3.org/2000/svg" xmlns:xlink="http://www.w3.org/1999/xlink" version="1.1" id="Capa_1" x="0px" y="0px" viewBox="0 0 511 511" style="enable-background:new 0 0 511 511;" xml:space="preserve" width="512" height="512">
<g>
	<g>
		<g>
			<g>
				<path style="fill:#FDBF00;" d="M481,255.5l-21.599,15l21.599,15v195c0,8.401-6.599,15-15,15H181l-15-21.899L151,495.5H15      c-8.401,0-15-6.599-15-15v-195l18.6-15L0,255.5v-135c0-8.401,6.599-15,15-15h136l15,19.799l15-19.799h135      c8.401,0,15,6.599,15,15l135,52.2c8.401,0,15,6.601,15,15V255.5z"/>
			</g>
		</g>
		<path style="fill:#FF9100;" d="M481,255.5l-21.599,15l21.599,15v195c0,8.401-6.599,15-15,15H181l-15-21.899V125.299l15-19.799h135    c8.401,0,15,6.599,15,15l135,52.2c8.401,0,15,6.601,15,15V255.5z"/>
		<path style="fill:#FF641A;" d="M481,255.5H256c9.3-12.299,15-28.2,15-45c0-8.401-6.599-15-15-15h-30c-16.8,0-32.701,5.7-45,15    v-105h-30v105c-12.299-9.3-28.2-15-45-15H76c-8.401,0-15,6.599-15,15c0,16.8,5.7,32.701,15,45H0v30h120.099    C101.8,305.599,91,332,91,360.5c0,8.401,6.599,15,15,15s15-6.599,15-15c0-24.901,11.4-47.401,30-62.701V495.5h30V297.799    c18.6,15.3,30,37.8,30,62.701c0,8.401,6.599,15,15,15s15-6.599,15-15c0-28.5-10.8-54.901-29.099-75H481V255.5z M136,255.5    c-19.501,0-36.301-12.599-42.299-30H106c19.501,0,36.301,12.599,42.299,30H136z M196,255.5h-12.299    c5.999-17.401,22.798-30,42.299-30h12.299C232.301,242.901,215.501,255.5,196,255.5z"/>
		<path style="fill:#F03800;" d="M481,255.5H256c9.3-12.299,15-28.2,15-45c0-8.401-6.599-15-15-15h-30c-16.8,0-32.701,5.7-45,15    v-105h-15v390h15V297.799c18.6,15.3,30,37.8,30,62.701c0,8.401,6.599,15,15,15s15-6.599,15-15c0-28.5-10.8-54.901-29.099-75H481    V255.5z M196,255.5h-12.299c5.999-17.401,22.798-30,42.299-30h12.299C232.301,242.901,215.501,255.5,196,255.5z"/>
		<g>
			<path style="fill:#FF641A;" d="M406,225.5c-57.891,0-105-47.109-105-105s47.109-105,105-105s105,47.109,105,105     S463.891,225.5,406,225.5z"/>
		</g>
		<path style="fill:#F03800;" d="M511,120.5c0-57.891-47.109-105-105-105v210C463.891,225.5,511,178.391,511,120.5z"/>
		<g>
			<path style="fill:#ECECF1;" d="M406,165.5c-8.291,0-15-6.709-15-15v-32.007c-6.768,3.955-15.571,1.963-19.98-4.673     c-4.6-6.899-2.739-16.201,4.16-20.801l22.5-15c4.57-3.062,10.518-3.34,15.396-0.747C417.953,79.88,421,84.963,421,90.5v60     C421,158.791,414.291,165.5,406,165.5z"/>
		</g>
	</g>
	<path style="fill:#D3D3D8;" d="M421,150.5v-60c0-5.537-3.047-10.62-7.925-13.228c-2.214-1.177-4.649-1.756-7.075-1.758V165.5   C414.291,165.5,421,158.791,421,150.5z"/>
</g>















</svg>
