<?xml version="1.0" encoding="iso-8859-1"?>
<!-- Generator: Adobe Illustrator 21.0.0, SVG Export Plug-In . SVG Version: 6.00 Build 0)  -->
<svg xmlns="http://www.w3.org/2000/svg" xmlns:xlink="http://www.w3.org/1999/xlink" version="1.1" id="Capa_1" x="0px" y="0px" viewBox="0 0 511.647 511.647" style="enable-background:new 0 0 511.647 511.647;" xml:space="preserve" width="512" height="512">
<g>
	<path style="fill:#FF641A;" d="M437.029,436.842c99.49-99.49,99.49-262.548,0-362.039c-99.49-99.49-262.549-99.49-362.039,0   c-100.04,100.041-99.935,262.104,0,362.039C174.481,536.333,337.539,536.333,437.029,436.842z M96.416,369.596   c-52.22-73.105-49.407-181.958,21.001-252.366c67.67-67.67,174.515-76.367,252.365-21c0.637,0.637,1.273,0.848,1.91,1.485   L97.901,371.506C97.264,370.868,97.053,370.233,96.416,369.596z M142.237,415.417c-0.637-0.637-1.273-0.848-1.91-1.485   l273.791-273.791c0.637,0.637,0.848,1.273,1.485,1.91c55.366,77.851,46.457,184.908-21.001,252.366   C326.933,462.087,220.088,470.783,142.237,415.417z"/>
	<path style="fill:#F03800;" d="M437.029,436.842c99.49-99.49,99.49-262.548,0-362.039L74.991,436.842   C174.481,536.333,337.539,536.333,437.029,436.842z M142.237,415.417c-0.637-0.637-1.273-0.848-1.91-1.485l273.791-273.791   c0.637,0.637,0.848,1.273,1.485,1.91c55.366,77.851,46.457,184.908-21.001,252.366   C326.933,462.087,220.088,470.783,142.237,415.417z"/>
</g>















</svg>
