<?xml version="1.0" encoding="iso-8859-1"?>
<!-- Generator: Adobe Illustrator 21.0.0, SVG Export Plug-In . SVG Version: 6.00 Build 0)  -->
<svg xmlns="http://www.w3.org/2000/svg" xmlns:xlink="http://www.w3.org/1999/xlink" version="1.1" id="Capa_1" x="0px" y="0px" viewBox="0 0 512 512" style="enable-background:new 0 0 512 512;" xml:space="preserve" width="512" height="512">
<g>
	<path style="fill:#575F64;" d="M368.5,15v60l-165,30l-165-30V15c0-8.401,6.599-15,15-15h300C361.901,0,368.5,6.599,368.5,15z"/>
	<path style="fill:#575F64;" d="M368.5,405v92c0,8.399-6.599,15-15,15h-300c-8.401,0-15-6.601-15-15v-92l165-30L368.5,405z"/>
	<path style="fill:#32393F;" d="M368.5,15v60l-165,30V0h150C361.901,0,368.5,6.599,368.5,15z"/>
	<path style="fill:#32393F;" d="M203.5,375l165,30v92c0,8.399-6.599,15-15,15h-150V375z"/>
	<path style="fill:#7C8388;" d="M38.5,75v330h150v30c0,8.399,6.599,15,15,15s15-6.601,15-15v-30h150V75H38.5z"/>
	<path style="fill:#575F64;" d="M368.5,75v330h-150v30c0,8.399-6.599,15-15,15V75H368.5z"/>
	<path style="fill:#FF641A;" d="M368.5,120c-57.9,0-105,47.1-105,105s47.1,105,105,105s105-47.1,105-105S426.4,120,368.5,120z"/>
	<path style="fill:#F03800;" d="M473.5,225c0,57.9-47.1,105-105,105V120C426.4,120,473.5,167.1,473.5,225z"/>
	<path style="fill:#ECECF1;" d="M383.5,195v60c0,8.399-6.599,15-15,15s-15-6.601-15-15v-32.1c-6.899,3.9-15.601,2.1-20.099-4.501   c-4.501-6.899-2.701-16.199,4.199-21l22.5-15c2.701-1.5,5.402-2.399,8.401-2.399c2.401,0,4.799,0.599,7.2,1.8   C380.501,184.499,383.5,189.6,383.5,195z"/>
	<path style="fill:#D3D3D8;" d="M383.5,195v60c0,8.399-6.599,15-15,15v-90c2.401,0,4.799,0.599,7.2,1.8   C380.501,184.499,383.5,189.6,383.5,195z"/>
</g>















</svg>
