<?xml version="1.0" encoding="iso-8859-1"?>
<!-- Generator: Adobe Illustrator 21.0.0, SVG Export Plug-In . SVG Version: 6.00 Build 0)  -->
<svg xmlns="http://www.w3.org/2000/svg" xmlns:xlink="http://www.w3.org/1999/xlink" version="1.1" id="Capa_1" x="0px" y="0px" viewBox="0 0 512 512" style="enable-background:new 0 0 512 512;" xml:space="preserve" width="512" height="512">
<path style="fill:#575F64;" d="M301,422h-90c-8.401,0-15,6.599-15,15v15c0,32.999,27.001,60,60,60s60-27.001,60-60v-15  C316,428.599,309.401,422,301,422z"/>
<path style="fill:#32393F;" d="M316,437v15c0,32.999-27.001,60-60,60v-90h45C309.401,422,316,428.599,316,437z"/>
<path style="fill:#7C8388;" d="M331,362H181c-8.401,0-15,6.599-15,15v30c0,24.899,20.099,45,45,45h90c24.901,0,45-20.101,45-45v-30  C346,368.599,339.401,362,331,362z"/>
<path style="fill:#575F64;" d="M346,377v30c0,24.899-20.099,45-45,45h-45v-90h75C339.401,362,346,368.599,346,377z"/>
<path style="fill:#FFDA2D;" d="M436,180c0,64.799-34.2,123.6-90,155.7V377H166v-41.3c-55.8-32.1-90-90.901-90-155.7  C76,80.7,156.7,0,256,0S436,80.7,436,180z"/>
<path style="fill:#FDBF00;" d="M436,180c0,64.799-34.2,123.6-90,155.7V377h-90V0C355.3,0,436,80.7,436,180z"/>
<path style="fill:#FDBF00;" d="M340.901,116.4c-5.797,5.794-15.872,5.429-21.301,0C302.199,99,279.101,90,256,90  s-46.199,9-63.6,26.4c-6,5.7-15.3,5.7-21.301,0c-5.7-6-5.7-15.3,0-21.301C194.5,71.7,225.399,60,256,60s61.5,11.7,84.901,35.099  C346.601,101.1,346.601,110.4,340.901,116.4z"/>
<path style="fill:#FF9100;" d="M340.901,116.4c-5.797,5.794-15.872,5.429-21.301,0C302.199,99,279.101,90,256,90V60  c30.601,0,61.5,11.7,84.901,35.099C346.601,101.1,346.601,110.4,340.901,116.4z"/>















</svg>
