<?xml version="1.0" encoding="iso-8859-1"?>
<!-- Generator: Adobe Illustrator 21.0.0, SVG Export Plug-In . SVG Version: 6.00 Build 0)  -->
<svg xmlns="http://www.w3.org/2000/svg" xmlns:xlink="http://www.w3.org/1999/xlink" version="1.1" id="Capa_1" x="0px" y="0px" viewBox="0 0 512 512" style="enable-background:new 0 0 512 512;" xml:space="preserve" width="512" height="512">
<g>
	<path style="fill:#ECECF1;" d="M256,0c-57.9,0-105,47.1-105,105v137l105,30l105-30V105C361,47.1,313.9,0,256,0z"/>
	<path style="fill:#D3D3D8;" d="M361,105v137l-105,30V0C313.9,0,361,47.1,361,105z"/>
	<path style="fill:#7C8388;" d="M436,242H76c-8.401,0-15,6.599-15,15c0,8.399,6.599,15,15,15h15v15c0,85.8,66,156.599,150,164.099   V482h-90c-8.401,0-15,6.599-15,15c0,8.399,6.599,15,15,15h210c8.401,0,15-6.601,15-15c0-8.401-6.599-15-15-15h-90v-30.901   c84-7.5,150-78.3,150-164.099v-15h15c8.401,0,15-6.601,15-15C451,248.599,444.401,242,436,242z M391,287   c0,74.399-60.601,135-135,135s-135-60.601-135-135v-15h270V287z"/>
	<path style="fill:#575F64;" d="M451,257c0,8.399-6.599,15-15,15h-15v15c0,85.8-66,156.599-150,164.099V482h90   c8.401,0,15,6.599,15,15c0,8.399-6.599,15-15,15H256v-90c74.399,0,135-60.601,135-135v-15H256v-30h180   C444.401,242,451,248.599,451,257z"/>
	<path style="fill:#7C8388;" d="M361,242v45c0,57.9-47.1,105-105,105s-105-47.1-105-105v-45H361z"/>
	<path style="fill:#575F64;" d="M361,242v45c0,57.9-47.1,105-105,105V242H361z"/>
	<circle style="fill:#7C8388;" cx="226" cy="105" r="15"/>
	<circle style="fill:#575F64;" cx="286" cy="105" r="15"/>
	<path style="fill:#7C8388;" d="M271,135c0,8.399-6.599,15-15,15s-15-6.601-15-15c0-8.401,6.599-15,15-15S271,126.599,271,135z"/>
	<path style="fill:#7C8388;" d="M271,75c0,8.399-6.599,15-15,15s-15-6.601-15-15c0-8.401,6.599-15,15-15S271,66.599,271,75z"/>
	<circle style="fill:#7C8388;" cx="226" cy="165" r="15"/>
	<circle style="fill:#575F64;" cx="286" cy="165" r="15"/>
	<path style="fill:#7C8388;" d="M271,195c0,8.399-6.599,15-15,15s-15-6.601-15-15c0-8.401,6.599-15,15-15S271,186.599,271,195z"/>
	<path style="fill:#575F64;" d="M271,195c0,8.399-6.599,15-15,15v-30C264.401,180,271,186.599,271,195z"/>
	<path style="fill:#575F64;" d="M271,135c0,8.399-6.599,15-15,15v-30C264.401,120,271,126.599,271,135z"/>
	<path style="fill:#575F64;" d="M256,90V60c8.401,0,15,6.599,15,15C271,83.399,264.401,90,256,90z"/>
</g>















</svg>
