<?xml version="1.0" encoding="iso-8859-1"?>
<!-- Generator: Adobe Illustrator 21.0.0, SVG Export Plug-In . SVG Version: 6.00 Build 0)  -->
<svg xmlns="http://www.w3.org/2000/svg" xmlns:xlink="http://www.w3.org/1999/xlink" version="1.1" id="Capa_1" x="0px" y="0px" viewBox="0 0 512 512" style="enable-background:new 0 0 512 512;" xml:space="preserve" width="512" height="512">
<g>
	<path style="fill:#FFDA2D;" d="M502.58,382.749L321.7,56.649c-13.5-24-38.101-38.699-65.7-38.699s-52.2,14.7-65.7,38.699   L9.42,382.749c-12.9,23.401-12.599,51.301,1.201,74.399C24.12,480.249,48.42,494.05,75.12,494.05h361.76   c26.7,0,51-13.801,64.499-36.901C515.18,434.05,515.48,406.15,502.58,382.749z"/>
	<path style="fill:#FDBF00;" d="M501.379,457.149c-13.499,23.101-37.798,36.901-64.499,36.901H256V17.95   c27.599,0,52.2,14.7,65.7,38.699l180.88,326.1C515.48,406.15,515.18,434.05,501.379,457.149z"/>
	<path style="fill:#7C8388;" d="M256,344.05c-24.901,0-45,20.099-45,45c0,24.899,20.099,45,45,45s45-20.101,45-45   C301,364.149,280.901,344.05,256,344.05z"/>
	<path style="fill:#7C8388;" d="M256,104.05c-24.901,0-45,20.099-45,45v120c0,24.899,20.099,45,45,45s45-20.101,45-45v-120   C301,124.149,280.901,104.05,256,104.05z"/>
	<path style="fill:#575F64;" d="M301,389.05c0,24.899-20.099,45-45,45v-90C280.901,344.05,301,364.149,301,389.05z"/>
	<path style="fill:#575F64;" d="M301,149.05v120c0,24.899-20.099,45-45,45v-210C280.901,104.05,301,124.149,301,149.05z"/>
</g>















</svg>
