<?xml version="1.0" encoding="iso-8859-1"?>
<!-- Generator: Adobe Illustrator 21.0.0, SVG Export Plug-In . SVG Version: 6.00 Build 0)  -->
<svg xmlns="http://www.w3.org/2000/svg" xmlns:xlink="http://www.w3.org/1999/xlink" version="1.1" id="Capa_1" x="0px" y="0px" viewBox="0 0 512.059 512.059" style="enable-background:new 0 0 512.059 512.059;" xml:space="preserve" width="512" height="512">
<g>
	<path style="fill:#FF641A;" d="M377.059,59.229c-60.901,0-91.96,36.899-121.059,80.4c-20.4-38.101-59.399-80.4-120-80.4   c-77.1,0-136,62.999-136,146.4c0,90.298,73.599,155.199,183.999,249.099c19.501,16.8,40.201,34.501,62.1,53.401   c2.701,2.699,6.301,3.9,9.901,3.9c2.999,0,6.899-1.201,9.901-3.9c21.599-18.9,42.599-36.601,62.1-53.401   c110.099-93.9,184.058-158.8,184.058-249.099C512.059,122.529,454.159,59.229,377.059,59.229z"/>
	<path style="fill:#F03800;" d="M512.059,205.63c0,90.298-73.959,155.199-184.058,249.099c-19.501,16.8-40.501,34.501-62.1,53.401   c-3.001,2.699-6.901,3.9-9.901,3.9v-372.4c29.099-43.5,60.158-80.4,121.059-80.4C454.159,59.229,512.059,122.529,512.059,205.63z"/>
	<path style="fill:#00C0F1;" d="M407.059,0.029c-57.9,0-105,47.1-105,105s47.1,105,105,105s105-47.1,105-105   S464.959,0.029,407.059,0.029z"/>
	<path style="fill:#009AE4;" d="M512.059,105.029c0,57.9-47.1,105-105,105v-210C464.959,0.029,512.059,47.13,512.059,105.029z"/>
	<path style="fill:#ECECF1;" d="M422.059,75.029v60c0,8.399-6.599,15-15,15s-15-6.601-15-15v-32.1   c-6.899,3.9-15.601,2.1-20.099-4.501c-4.501-6.899-2.701-16.199,4.199-21l22.5-15c2.701-1.5,5.402-2.399,8.401-2.399   c2.401,0,4.799,0.599,7.2,1.8C419.06,64.528,422.059,69.63,422.059,75.029z"/>
	<path style="fill:#D3D3D8;" d="M422.059,75.029v60c0,8.399-6.599,15-15,15v-90c2.401,0,4.799,0.599,7.2,1.8   C419.06,64.528,422.059,69.63,422.059,75.029z"/>
</g>















</svg>
