<?xml version="1.0" encoding="iso-8859-1"?>
<!-- Generator: Adobe Illustrator 21.0.0, SVG Export Plug-In . SVG Version: 6.00 Build 0)  -->
<svg xmlns="http://www.w3.org/2000/svg" xmlns:xlink="http://www.w3.org/1999/xlink" version="1.1" id="Capa_1" x="0px" y="0px" viewBox="0 0 512 512" style="enable-background:new 0 0 512 512;" xml:space="preserve" width="512" height="512">
<g>
	<path style="fill:#FF641A;" d="M376,31c-60.901,0-90.901,36.899-120,80.4C235.6,73.299,196.601,31,136,31C58.9,31,0,93.999,0,177.4   c0,90.298,73.599,152.399,183.999,246.299c19.501,16.8,40.201,34.501,62.1,53.401c2.701,2.699,6.301,3.9,9.901,3.9   c2.999,0,6.899-1.201,9.901-3.9c21.599-18.9,42.599-36.601,62.1-53.401C438.1,329.799,512,267.699,512,177.4   C512,94.3,453.1,31,376,31z"/>
	<path style="fill:#F03800;" d="M512,177.4c0,90.298-73.9,152.399-183.999,246.299c-19.501,16.8-40.501,34.501-62.1,53.401   c-3.001,2.699-6.901,3.9-9.901,3.9V111.4c29.099-43.5,59.099-80.4,120-80.4C453.1,31,512,94.3,512,177.4z"/>
</g>















</svg>
