<?xml version="1.0" encoding="iso-8859-1"?>
<!-- Generator: Adobe Illustrator 21.0.0, SVG Export Plug-In . SVG Version: 6.00 Build 0)  -->
<svg xmlns="http://www.w3.org/2000/svg" xmlns:xlink="http://www.w3.org/1999/xlink" version="1.1" id="Capa_1" x="0px" y="0px" viewBox="0 0 512 512" style="enable-background:new 0 0 512 512;" xml:space="preserve" width="512" height="512">
<g>
	<path style="fill:#FFDA2D;" d="M392,253.941c0,19.2-5.7,38.399-16.8,54.899c-4.828,7.244-14.705,8.398-20.999,4.2   c-6.901-4.499-8.701-13.799-4.2-20.7c7.8-11.699,11.7-25.199,11.7-38.399c0-13.2-3.9-26.7-11.7-38.401   c-4.501-6.899-2.701-16.199,4.2-20.7c6.899-4.499,16.199-2.699,20.999,4.2C386.3,215.54,392,234.74,392,253.941z"/>
	<path style="fill:#FFDA2D;" d="M512,253.941c0,42.299-12.599,84.6-37.2,121.5l-6.599,10.201c-5.352,7.488-14.801,8.325-20.7,3.898   c-6.901-4.499-8.701-13.799-4.2-20.7l6.599-9.899c21.301-31.8,32.1-68.401,32.1-105c0-36.601-10.8-73.2-32.1-105l-6.599-9.901   c-4.501-6.899-2.701-16.199,4.2-20.7c6.899-4.799,16.199-2.999,20.7,3.9l6.599,10.201C499.401,169.341,512,211.64,512,253.941z"/>
	<path style="fill:#FFDA2D;" d="M451.702,253.941c0,30.599-8.701,61.199-26.7,88.2L418.4,352.34c-4.354,6.098-12.478,8.932-21,4.2   c-6.899-4.799-8.699-14.099-4.199-21l6.899-9.899c14.399-21.901,21.601-46.802,21.601-71.7c0-24.901-7.202-49.801-21.601-71.7   l-6.899-9.901c-4.501-6.899-2.701-16.199,4.199-21c6.901-4.499,16.201-2.699,21,4.2l6.601,10.201   C443,192.74,451.702,223.34,451.702,253.941z"/>
	<path style="fill:#575F64;" d="M165.399,253.941l-29.399,105H15c-8.401,0-15-6.601-15-15v-180c0-8.401,6.599-15,15-15h121   C136.243,149.81,132.905,137.889,165.399,253.941z"/>
	<path style="fill:#32393F;" d="M165.399,253.941l-29.399,105H15c-8.401,0-15-6.601-15-15v-90H165.399z"/>
	<path style="fill:#7C8388;" d="M331,47.841v416.1c0,5.4-2.999,10.499-7.8,13.2c-5.449,2.722-10.514,2.223-15.601-0.601L136,358.941   v-210L307.899,35.24c4.501-2.699,10.501-2.999,15.3-0.298C328.001,37.34,331,42.441,331,47.841z"/>
	<path style="fill:#575F64;" d="M331,253.941v210c0,5.4-2.999,10.499-7.8,13.2c-5.449,2.722-10.514,2.223-15.601-0.601L136,358.941   v-105H331z"/>
	<path style="fill:#FDBF00;" d="M392,253.941c0,19.2-5.7,38.399-16.8,54.899c-4.828,7.244-14.705,8.398-20.999,4.2   c-6.901-4.499-8.701-13.799-4.2-20.7c7.8-11.699,11.7-25.199,11.7-38.399H392z"/>
	<path style="fill:#FDBF00;" d="M451.702,253.941c0,30.599-8.701,61.199-26.7,88.2L418.4,352.34c-4.354,6.098-12.478,8.932-21,4.2   c-6.899-4.799-8.699-14.099-4.199-21l6.899-9.899c14.399-21.901,21.601-46.802,21.601-71.7H451.702z"/>
	<path style="fill:#FDBF00;" d="M512,253.941c0,42.299-12.599,84.6-37.2,121.5l-6.599,10.201c-5.352,7.488-14.801,8.325-20.7,3.898   c-6.901-4.499-8.701-13.799-4.2-20.7l6.599-9.899c21.301-31.8,32.1-68.401,32.1-105H512z"/>
</g>















</svg>
