<?xml version="1.0" encoding="iso-8859-1"?>
<!-- Generator: Adobe Illustrator 21.0.0, SVG Export Plug-In . SVG Version: 6.00 Build 0)  -->
<svg xmlns="http://www.w3.org/2000/svg" xmlns:xlink="http://www.w3.org/1999/xlink" version="1.1" id="Capa_1" x="0px" y="0px" viewBox="0 0 512 512" style="enable-background:new 0 0 512 512;" xml:space="preserve" width="512" height="512">
<g>
	<path style="fill:#00C0F1;" d="M143.5,392l2.999,17.399c1.501,7.202,7.5,12.601,15,12.601H406c8.401,0,15,6.599,15,15   c0,8.399-6.599,15-15,15H161.499c-20.718,0-38.301-13.849-43.482-33.255c-1.178-4.411,2.946,17.645-52.218-314.746   C64.3,97.099,58.299,92,51.099,92H15C6.599,92,0,85.399,0,77c0-8.401,6.599-15,15-15h36.099C72.7,62,91.3,77.599,95.2,98.899   L103.9,152H428.8c8.399,0,15,6.599,15,15c0,5.4-2.701,9.6-6.899,12.299c6.599,2.401,11.1,9,9.899,16.201   c-6.599,42.9-16.199,104.7-22.5,157.2c-2.999,22.5-22.2,39.3-44.7,39.3H143.5z"/>
	<path style="fill:#009AE4;" d="M421,437c0,8.399-6.599,15-15,15H271v-30h135C414.401,422,421,428.599,421,437z"/>
	<path style="fill:#009AE4;" d="M446.8,195.5c-6.599,42.9-16.199,104.7-22.5,157.2c-2.999,22.5-22.2,39.3-44.7,39.3H271V152h157.8   c8.399,0,15,6.599,15,15c0,5.4-2.701,9.6-6.899,12.299C443.5,181.7,448.001,188.299,446.8,195.5z"/>
	<path style="fill:#FF641A;" d="M407,0c-57.9,0-105,47.1-105,105s47.1,105,105,105s105-47.1,105-105S464.9,0,407,0z"/>
	<path style="fill:#F03800;" d="M512,105c0,57.9-47.1,105-105,105V0C464.9,0,512,47.1,512,105z"/>
	<path style="fill:#ECECF1;" d="M422,75v60c0,8.399-6.599,15-15,15s-15-6.601-15-15v-32.1c-6.899,3.9-15.601,2.1-20.099-4.501   c-4.501-6.899-2.701-16.199,4.199-21l22.5-15C401.3,60.899,404.001,60,407,60c2.401,0,4.799,0.599,7.2,1.8   C419.001,64.499,422,69.6,422,75z"/>
	<path style="fill:#D3D3D8;" d="M422,75v60c0,8.399-6.599,15-15,15V60c2.401,0,4.799,0.599,7.2,1.8C419.001,64.499,422,69.6,422,75z   "/>
	<path style="fill:#ECECF1;" d="M196,332c-8.291,0-15-6.709-15-15v-90c0-8.291,6.709-15,15-15s15,6.709,15,15v90   C211,325.291,204.291,332,196,332z"/>
	<path style="fill:#ECECF1;" d="M286,227v90c0,8.399-6.599,15-15,15s-15-6.601-15-15v-90c0-8.401,6.599-15,15-15   S286,218.599,286,227z"/>
	<path style="fill:#D3D3D8;" d="M286,227v90c0,8.399-6.599,15-15,15V212C279.401,212,286,218.599,286,227z"/>
	<path style="fill:#D3D3D8;" d="M346,332c-8.291,0-15-6.709-15-15v-90c0-8.291,6.709-15,15-15s15,6.709,15,15v90   C361,325.291,354.291,332,346,332z"/>
	<g>
		<g>
			<path style="fill:#32393F;" d="M346,512c-16.538,0-30-13.462-30-30s13.462-30,30-30s30,13.462,30,30S362.538,512,346,512z"/>
		</g>
	</g>
	<path style="fill:#575F64;" d="M196,512c-16.538,0-30-13.462-30-30s13.462-30,30-30s30,13.462,30,30S212.538,512,196,512z"/>
</g>















</svg>
