<?xml version="1.0" encoding="iso-8859-1"?>
<!-- Generator: Adobe Illustrator 21.0.0, SVG Export Plug-In . SVG Version: 6.00 Build 0)  -->
<svg xmlns="http://www.w3.org/2000/svg" xmlns:xlink="http://www.w3.org/1999/xlink" version="1.1" id="Capa_1" x="0px" y="0px" viewBox="0 0 512 512" style="enable-background:new 0 0 512 512;" xml:space="preserve" width="512" height="512">
<g>
	<path style="fill:#FFDA2D;" d="M450,191.899V407c0,24.899-20.099,45-45,45H199.501l-86.1,57.599   c-5.075,2.818-10.142,3.328-15.601,0.601c-4.801-2.701-7.8-7.8-7.8-13.2v-45H45C20.1,452,0,431.899,0,407V167   c0-24.901,20.099-45,45-45H320.1L435,176.899C443.401,176.899,450,183.5,450,191.899z"/>
	<path style="fill:#FDBF00;" d="M450,191.899V407c0,24.899-20.099,45-45,45H225V122H320.1L435,176.899   C443.401,176.899,450,183.5,450,191.899z"/>
	<path style="fill:#FF641A;" d="M407,0c-57.9,0-105,47.1-105,105s47.1,105,105,105s105-47.1,105-105S464.9,0,407,0z"/>
	<path style="fill:#F03800;" d="M512,105c0,57.9-47.1,105-105,105V0C464.9,0,512,47.1,512,105z"/>
	<path style="fill:#ECECF1;" d="M422,75v60c0,8.399-6.599,15-15,15s-15-6.601-15-15v-32.1c-6.899,3.9-15.601,2.1-20.099-4.501   c-4.501-6.899-2.701-16.199,4.199-21l22.5-15C401.3,60.899,404.001,60,407,60c2.401,0,4.799,0.599,7.2,1.8   C419.001,64.499,422,69.6,422,75z"/>
	<path style="fill:#D3D3D8;" d="M422,75v60c0,8.399-6.599,15-15,15V60c2.401,0,4.799,0.599,7.2,1.8C419.001,64.499,422,69.6,422,75z   "/>
	<path style="fill:#7C8388;" d="M105,332c-24.814,0-45-20.186-45-45s20.186-45,45-45s45,20.186,45,45S129.814,332,105,332z"/>
	<path style="fill:#7C8388;" d="M225,242c-24.901,0-45,20.099-45,45c0,24.899,20.099,45,45,45s45-20.101,45-45   C270,262.099,249.901,242,225,242z"/>
	<path style="fill:#575F64;" d="M270,287c0,24.899-20.099,45-45,45v-90C249.901,242,270,262.099,270,287z"/>
	<path style="fill:#575F64;" d="M345,332c-24.814,0-45-20.186-45-45s20.186-45,45-45s45,20.186,45,45S369.814,332,345,332z"/>
</g>















</svg>
