<?xml version="1.0" encoding="iso-8859-1"?>
<!-- Generator: Adobe Illustrator 21.0.0, SVG Export Plug-In . SVG Version: 6.00 Build 0)  -->
<svg xmlns="http://www.w3.org/2000/svg" xmlns:xlink="http://www.w3.org/1999/xlink" version="1.1" id="Capa_1" x="0px" y="0px" viewBox="0 0 512 512" style="enable-background:new 0 0 512 512;" xml:space="preserve" width="512" height="512">
<g>
	<g>
		<g>
			<path style="fill:#F03800;" d="M200.018,461.03c-7.837,0.015-15.806-1.23-23.657-3.853l-66.167-22.061     c-18.999-6.328-34.395-19.688-43.359-37.603c-8.95-17.915-10.4-38.247-4.058-57.246c2.622-7.852,11.045-12.129,18.97-9.492     c7.852,2.622,12.1,11.104,9.492,18.97c-3.809,11.396-2.944,23.599,2.432,34.351s14.604,18.765,26.016,22.559l66.167,22.075     c11.382,3.779,23.599,2.915,34.351-2.446c10.752-5.391,18.765-14.619,22.573-26.03c2.607-7.852,11.045-12.1,18.97-9.478     c7.852,2.607,12.1,11.104,9.492,18.97C260.765,441.138,231.424,461.03,200.018,461.03z"/>
		</g>
	</g>
	<path style="fill:#FF9100;" d="M15,210c-8.291,0-15,6.709-15,15v120c0,8.291,6.709,15,15,15h62l30-75l-30-75H15z"/>
	<path style="fill:#F03800;" d="M503.709,241.582l-60-30c-7.412-3.677-16.406-0.703-20.127,6.709v133.418   c2.637,5.259,7.925,8.291,13.433,8.291c2.256,0,4.541-0.513,6.694-1.582l60-30C508.792,325.869,512,320.684,512,315v-60   C512,249.316,508.792,244.131,503.709,241.582z"/>
	<path style="fill:#FDBF00;" d="M452,105.3V497c0,8.4-6.6,15-15,15s-15-6.6-15-15v-21.2l-172-57.73L77,360V210l172.5-57.9l0.5-0.17   L431.6,90.9C443.806,88.46,452,95.918,452,105.3z"/>
	<path style="fill:#FF9100;" d="M452,105.3V497c0,8.4-6.6,15-15,15s-15-6.6-15-15v-21.2l-172-57.73V151.93L431.6,90.9   C443.806,88.46,452,95.918,452,105.3z"/>
	<path style="fill:#FF641A;" d="M407,0c-57.9,0-105,47.1-105,105s47.1,105,105,105s105-47.1,105-105S464.9,0,407,0z"/>
	<path style="fill:#F03800;" d="M512,105c0,57.9-47.1,105-105,105V0C464.9,0,512,47.1,512,105z"/>
	<path style="fill:#ECECF1;" d="M422,75v60c0,8.399-6.599,15-15,15s-15-6.601-15-15v-32.1c-6.899,3.9-15.601,2.1-20.099-4.501   c-4.501-6.899-2.701-16.199,4.199-21l22.5-15C401.3,60.899,404.001,60,407,60c2.401,0,4.799,0.599,7.2,1.8   C419.001,64.499,422,69.6,422,75z"/>
	<path style="fill:#D3D3D8;" d="M422,75v60c0,8.399-6.599,15-15,15V60c2.401,0,4.799,0.599,7.2,1.8C419.001,64.499,422,69.6,422,75z   "/>
</g>















</svg>
