<?xml version="1.0" encoding="iso-8859-1"?>
<!-- Generator: Adobe Illustrator 21.0.0, SVG Export Plug-In . SVG Version: 6.00 Build 0)  -->
<svg xmlns="http://www.w3.org/2000/svg" xmlns:xlink="http://www.w3.org/1999/xlink" version="1.1" id="Capa_1" x="0px" y="0px" viewBox="0 0 512 512" style="enable-background:new 0 0 512 512;" xml:space="preserve" width="512" height="512">
<g>
	<path style="fill:#FF641A;" d="M450,45v90l-225,30L0,135V45c0-8.401,6.599-15,15-15h420C443.401,30,450,36.599,450,45z"/>
	<path style="fill:#F03800;" d="M450,45v90l-225,30V30h210C443.401,30,450,36.599,450,45z"/>
	<path style="fill:#ECECF1;" d="M450,135v185.099L315,450H15c-8.401,0-15-6.601-15-15V135H450z"/>
	<polygon style="fill:#D3D3D8;" points="450,135 450,320.099 315,450 225,450 225,135  "/>
	<path style="fill:#D3D3D8;" d="M135,270H75c-8.291,0-15-6.709-15-15v-60c0-8.291,6.709-15,15-15h60c8.291,0,15,6.709,15,15v60   C150,263.291,143.291,270,135,270z"/>
	<path style="fill:#D3D3D8;" d="M255,180h-60c-8.401,0-15,6.599-15,15v60c0,8.399,6.599,15,15,15h60c8.401,0,15-6.601,15-15v-60   C270,186.599,263.401,180,255,180z"/>
	<path style="fill:#BABAC0;" d="M375,270h-60c-8.291,0-15-6.709-15-15v-60c0-8.291,6.709-15,15-15h60c8.291,0,15,6.709,15,15v60   C390,263.291,383.291,270,375,270z"/>
	<path style="fill:#D3D3D8;" d="M255,300h-60c-8.401,0-15,6.599-15,15v60c0,8.399,6.599,15,15,15h60c8.401,0,15-6.601,15-15v-60   C270,306.599,263.401,300,255,300z"/>
	<path style="fill:#D3D3D8;" d="M135,390H75c-8.291,0-15-6.709-15-15v-60c0-8.291,6.709-15,15-15h60c8.291,0,15,6.709,15,15v60   C150,383.291,143.291,390,135,390z"/>
	<path style="fill:#7FE881;" d="M407,302c-57.9,0-105,47.1-105,105s47.1,105,105,105s105-47.1,105-105S464.9,302,407,302z"/>
	<path style="fill:#5BC980;" d="M512,407c0,57.9-47.1,105-105,105V302C464.9,302,512,349.1,512,407z"/>
	<path style="fill:#ECECF1;" d="M447.499,402.499L407,443l-4.501,4.499C399.8,450.5,395.9,452,392,452s-7.8-1.5-10.499-4.501l-15-15   c-6-5.7-6-15.3,0-21c5.7-5.999,15.298-5.999,20.999,0l4.501,4.2l15-15l19.501-19.2c5.7-5.999,15.298-5.999,20.999,0   C453.5,387.199,453.5,396.799,447.499,402.499z"/>
	<path style="fill:#D3D3D8;" d="M447.499,402.499L407,443v-42.301l19.501-19.2c5.7-5.999,15.298-5.999,20.999,0   C453.5,387.199,453.5,396.799,447.499,402.499z"/>
	<path style="fill:#ECECF1;" d="M75,90c-8.291,0-15-6.709-15-15V15c0-8.291,6.709-15,15-15s15,6.709,15,15v60   C90,83.291,83.291,90,75,90z"/>
	<path style="fill:#ECECF1;" d="M135,90c-8.291,0-15-6.709-15-15V15c0-8.291,6.709-15,15-15s15,6.709,15,15v60   C150,83.291,143.291,90,135,90z"/>
	<path style="fill:#D3D3D8;" d="M285,90c-8.291,0-15-6.709-15-15V15c0-8.291,6.709-15,15-15s15,6.709,15,15v60   C300,83.291,293.291,90,285,90z"/>
	<path style="fill:#D3D3D8;" d="M345,90c-8.291,0-15-6.709-15-15V15c0-8.291,6.709-15,15-15s15,6.709,15,15v60   C360,83.291,353.291,90,345,90z"/>
	<path style="fill:#BABAC0;" d="M270,195v60c0,8.399-6.599,15-15,15h-30v-90h30C263.401,180,270,186.599,270,195z"/>
	<path style="fill:#BABAC0;" d="M270,315v60c0,8.399-6.599,15-15,15h-30v-90h30C263.401,300,270,306.599,270,315z"/>
</g>















</svg>
