<?xml version="1.0" encoding="iso-8859-1"?>
<!-- Generator: Adobe Illustrator 21.0.0, SVG Export Plug-In . SVG Version: 6.00 Build 0)  -->
<svg xmlns="http://www.w3.org/2000/svg" xmlns:xlink="http://www.w3.org/1999/xlink" version="1.1" id="Capa_1" x="0px" y="0px" viewBox="0 0 512 512" style="enable-background:new 0 0 512 512;" xml:space="preserve" width="512" height="512">
<g>
	<path style="fill:#D3D3D8;" d="M95.395,507.605c-5.859-5.859-5.859-15.352,0-21.211l34.614-34.614   c5.859-5.859,15.352-5.859,21.211,0s5.859,15.352,0,21.211l-34.614,34.614C110.746,513.465,101.254,513.465,95.395,507.605z"/>
	<path style="fill:#7C8388;" d="M451,75c0,8.399-6.599,15-15,15s-15-6.601-15-15c0-24.901-20.099-45-45-45h-75v60h-90V30h-75   c-24.901,0-45,20.099-45,45c0,8.399-6.599,15-15,15s-15-6.601-15-15c0-41.4,33.6-75,75-75c0,0,60,0,120,0h120   C417.4,0,451,33.6,451,75z"/>
	<path style="fill:#575F64;" d="M451,75c0,8.399-6.599,15-15,15s-15-6.601-15-15c0-24.901-20.099-45-45-45h-75v60h-45V0h120   C417.4,0,451,33.6,451,75z"/>
	<path style="fill:#D3D3D8;" d="M146.781,112.2C136.278,82.171,107.831,62,76,62C34.647,62,1,95.647,1,137   c0,37.178,26.616,68.335,63.296,74.092C73.329,212.43,150.36,122.401,146.781,112.2z"/>
	<path style="fill:#BABAC0;" d="M436,62c-31.831,0-60.278,20.171-70.781,50.2c-3.147,8.971,71.621,100.501,82.485,98.892   C484.384,205.335,511,174.178,511,137C511,95.647,477.353,62,436,62z"/>
	<path style="fill:#BABAC0;" d="M395.395,507.605l-34.614-34.614c-5.859-5.859-5.859-15.352,0-21.211s15.352-5.859,21.211,0   l34.614,34.614c5.859,5.859,5.859,15.352,0,21.211C410.746,513.465,401.254,513.465,395.395,507.605z"/>
	<path style="fill:#FF641A;" d="M256,62C131.8,62,31,162.8,31,287s100.8,225,225,225s225-100.8,225-225S380.2,62,256,62z"/>
	<path style="fill:#F03800;" d="M481,287c0,124.2-100.8,225-225,225V62C380.2,62,481,162.8,481,287z"/>
	<path style="fill:#ECECF1;" d="M256,122c-90.901,0-165,74.099-165,165c0,90.899,74.099,165,165,165s165-74.101,165-165   C421,196.099,346.901,122,256,122z"/>
	<path style="fill:#D3D3D8;" d="M421,287c0,90.899-74.099,165-165,165V122C346.901,122,421,196.099,421,287z"/>
	<path style="fill:#575F64;" d="M406,302h-30c-8.291,0-15-6.709-15-15s6.709-15,15-15h30c8.291,0,15,6.709,15,15   S414.291,302,406,302z"/>
	<path style="fill:#7C8388;" d="M136,302h-30c-8.291,0-15-6.709-15-15s6.709-15,15-15h30c8.291,0,15,6.709,15,15   S144.291,302,136,302z"/>
	<path style="fill:#7C8388;" d="M271,407v30c0,8.399-6.599,15-15,15s-15-6.601-15-15v-30c0-8.401,6.599-15,15-15   S271,398.599,271,407z"/>
	<path style="fill:#7C8388;" d="M271,137v30c0,8.399-6.599,15-15,15s-15-6.601-15-15v-30c0-8.401,6.599-15,15-15   S271,128.599,271,137z"/>
	<path style="fill:#7C8388;" d="M331,287c0,8.399-6.599,15-15,15h-60c-8.401,0-15-6.601-15-15v-60c0-8.401,6.599-15,15-15   s15,6.599,15,15v45h45C324.401,272,331,278.599,331,287z"/>
	<path style="fill:#575F64;" d="M256,182v-60c8.401,0,15,6.599,15,15v30C271,175.399,264.401,182,256,182z"/>
	<path style="fill:#575F64;" d="M271,407v30c0,8.399-6.599,15-15,15v-60C264.401,392,271,398.599,271,407z"/>
	<path style="fill:#575F64;" d="M331,287c0,8.399-6.599,15-15,15h-60v-90c8.401,0,15,6.599,15,15v45h45   C324.401,272,331,278.599,331,287z"/>
</g>















</svg>
