<?xml version="1.0" encoding="iso-8859-1"?>
<!-- Generator: Adobe Illustrator 21.0.0, SVG Export Plug-In . SVG Version: 6.00 Build 0)  -->
<svg xmlns="http://www.w3.org/2000/svg" xmlns:xlink="http://www.w3.org/1999/xlink" version="1.1" id="Capa_1" x="0px" y="0px" viewBox="0 0 512 512" style="enable-background:new 0 0 512 512;" xml:space="preserve" width="512" height="512">
<g>
	<path style="fill:#00C0F1;" d="M256,0C115.3,0,0,115.3,0,256s115.3,256,256,256s256-115.3,256-256S396.7,0,256,0z"/>
	<path style="fill:#009AE4;" d="M512,256c0,140.7-115.3,256-256,256V0C396.7,0,512,115.3,512,256z"/>
	<path style="fill:#ECECF1;" d="M279.101,256l91.8-78.6c3.3-3.001,5.099-6.901,5.099-11.4c0-4.501-1.8-8.401-5.099-11.4l-105-90   C263.2,62.199,259.6,61,256,61c-2.401,0-4.2,0.599-6.301,1.5C244.3,64.9,241,70,241,76v147.299L160.901,154.6   c-6.301-5.4-15.901-4.501-21.301,1.5c-5.4,6.301-4.799,15.901,1.5,21.301l91.8,78.6l-91.8,78.6c-6.299,5.4-6.899,15-1.5,21.299   C142.599,359.2,146.8,361,151,361c3.6,0,6.899-1.201,9.901-3.6L241,288.699V436c0,6,3.3,11.1,8.699,13.5   c2.1,0.899,4.2,1.5,6.301,1.5c3.6,0,6.899-1.201,9.901-3.6l105-90c3.3-3.001,5.099-6.901,5.099-11.4c0-4.501-1.8-8.401-5.099-11.4   L279.101,256z M271,108.699L337.899,166L271,223.299V108.699z M271,403.299v-114.6L337.899,346L271,403.299z"/>
	<path style="fill:#D3D3D8;" d="M279.101,256l91.8-78.6c3.3-3.001,5.099-6.901,5.099-11.4c0-4.501-1.8-8.401-5.099-11.4l-105-90   C263.2,62.199,259.6,61,256,61v390c3.6,0,6.899-1.201,9.901-3.6l105-90c3.3-3.001,5.099-6.901,5.099-11.4   c0-4.501-1.8-8.401-5.099-11.4L279.101,256z M271,108.699L337.899,166L271,223.299V108.699z M271,403.299v-114.6L337.899,346   L271,403.299z"/>
</g>















</svg>
