<?xml version="1.0" encoding="iso-8859-1"?>
<!-- Generator: Adobe Illustrator 21.0.0, SVG Export Plug-In . SVG Version: 6.00 Build 0)  -->
<svg xmlns="http://www.w3.org/2000/svg" xmlns:xlink="http://www.w3.org/1999/xlink" version="1.1" id="Capa_1" x="0px" y="0px" viewBox="0 0 512 512" style="enable-background:new 0 0 512 512;" xml:space="preserve" width="512" height="512">
<g>
	<path style="fill:#7C8388;" d="M256,0C165.099,0,91,74.099,91,165v62c0,8.399,6.599,15,15,15h60c8.401,0,15-6.601,15-15v-62   c0-41.4,33.6-75,75-75s75,33.6,75,75v62c0,8.399,6.599,15,15,15h60c8.401,0,15-6.601,15-15v-62C421,74.099,346.901,0,256,0z"/>
	<path style="fill:#575F64;" d="M421,165v62c0,8.399-6.599,15-15,15h-60c-8.401,0-15-6.601-15-15v-62c0-41.4-33.6-75-75-75V0   C346.901,0,421,74.099,421,165z"/>
	<path style="fill:#FFDA2D;" d="M406,212H106c-24.901,0-45,20.099-45,45v60c0,107.399,87.599,195,195,195s195-87.601,195-195v-60   C451,232.099,430.901,212,406,212z"/>
	<path style="fill:#FDBF00;" d="M451,257v60c0,107.399-87.599,195-195,195V212h150C430.901,212,451,232.099,451,257z"/>
	<path style="fill:#7C8388;" d="M256,272c-24.901,0-45,20.099-45,45c0,19.499,12.599,36.299,30,42.299V437c0,8.399,6.599,15,15,15   s15-6.601,15-15v-77.701c17.401-6,30-22.8,30-42.299C301,292.099,280.901,272,256,272z"/>
	<path style="fill:#575F64;" d="M301,317c0,19.499-12.599,36.299-30,42.299V437c0,8.399-6.599,15-15,15V272   C280.901,272,301,292.099,301,317z"/>
</g>















</svg>
