<svg clip-rule="evenodd" fill-rule="evenodd" height="2.667in" image-rendering="optimizeQuality" shape-rendering="geometricPrecision" text-rendering="geometricPrecision" viewBox="0 0 2667 2667" width="2.667in" xmlns="http://www.w3.org/2000/svg"><g id="Layer_x0020_1"><circle cx="1333" cy="1333" fill="#378b4e" r="1333"/><path d="m754 949 16 10 5-19c21-100 52-198 94-291l21-46-42 29c-84 58-158 132-217 217l-7 10 10 9c38 30 78 57 120 81zm6 809c-32 29-62 61-89 95l-7 8 7 9c51 63 111 119 177 165l42 29-21-46c-37-81-65-167-86-253l-5-23zm10-54c-46-228-48-478-7-707l2-10-9-5c-47-26-92-56-135-90l-12-9-8 13c-86 143-128 308-120 474 7 163 61 321 155 454l10 15 12-14c32-39 68-75 107-108l7-5zm174-73c-48 24-93 53-135 86l-7 5 2 9c27 122 68 244 129 353l2 4 4 2c24 13 49 24 75 34l25 11-7-27c-35-152-56-310-68-466l-2-21zm16-48c-10-167-10-335 0-501l1-11-10-3c-49-17-97-36-144-59l-17-8-3 18c-35 211-34 441 4 652l4 22 18-14c44-32 90-59 139-83l9-4zm45-10c96-39 198-60 301-63h14v-382h-14c-102-2-203-17-301-44l-17-5-1 18c-9 154-9 309-1 463l1 20zm315 614v-650l-15 1c-105 3-210 26-307 67l-9 4 1 10c12 173 35 350 78 518l2 8 7 2c20 7 41 12 61 17 55 13 111 20 167 22zm563-422c-20 86-48 172-85 253l-21 46 42-29c66-46 126-102 177-165l7-9-7-8c-27-34-57-66-90-95l-17-16zm-180-123c-12 156-33 314-69 466l-6 27 25-11c26-10 51-22 75-34l4-2 2-4c60-110 102-231 129-353l2-9-7-5c-42-33-87-62-135-86l-19-10zm-35-37c-97-41-201-64-306-67l-15-1v650l15-1c77-2 154-15 227-39l8-2 2-8c42-168 66-345 78-518v-10zm12-45c9-154 9-309 0-463l-1-18-17 5c-98 27-200 42-301 44h-14v382h14c103 3 205 24 300 63l18 7zm195 111c39-211 40-441 4-652l-3-18-17 8c-46 23-94 42-143 59l-10 3 1 11c10 166 10 334 0 501l-1 9 9 4c48 24 94 51 138 83l18 14zm170-779c-42 34-87 64-135 90l-8 5 1 10c42 229 40 479-6 707l-2 8 6 5c39 33 75 69 108 108l11 14 11-15c94-133 148-291 155-454 7-166-35-331-120-474l-8-13zm-247-243c42 93 73 191 94 291l4 19 17-10c42-24 82-51 120-81l10-9-8-10c-58-85-132-159-216-217l-42-29zm-164-91c36 153 57 311 69 467l1 18 17-6c48-17 95-36 140-60l10-4-2-11c-27-131-70-262-135-380l-2-3-4-2c-24-13-49-25-75-35l-25-10zm-287-78v621h14c103-3 206-18 305-47l11-3-1-11c-12-170-35-345-77-511l-2-8-8-2c-73-23-150-36-227-39zm-279 49c-42 166-65 341-77 511l-1 11 11 3c98 29 201 44 304 47h15v-621h-15c-77 3-154 16-228 39l-7 2zm-135 53c-65 118-108 249-135 380l-2 11 9 4c46 24 92 43 140 60l18 6 1-18c12-156 33-314 68-467l7-26-25 10c-26 10-51 22-75 35l-4 2z" fill="#fff"/></g></svg>