<svg clip-rule="evenodd" fill-rule="evenodd" height="2.667in" image-rendering="optimizeQuality" shape-rendering="geometricPrecision" text-rendering="geometricPrecision" viewBox="0 0 2667 2667" width="2.667in" xmlns="http://www.w3.org/2000/svg"><g id="Layer_x0020_1"><circle cx="1333" cy="1333" fill="#f44c71" r="1333"/><path d="m2160 2057h-1654c-14 0-26-12-26-26v-1395c0-15 12-27 26-27h511v580c0 7 6 13 13 13h606c8 0 13-6 13-13v-580h511c15 0 27 12 27 27v1395c0 14-12 26-27 26zm-876-250c7 0 13-6 13-13s-6-13-13-13h-533c-7 0-13 6-13 13 0 8 6 13 13 13zm0-164c7 0 13-6 13-13 0-8-6-13-13-13h-533c-7 0-13 5-13 13 0 7 6 13 13 13zm0-165c7 0 13-6 13-13s-6-13-13-13h-533c-7 0-13 6-13 13s6 13 13 13zm511 225c74-7 134-70 134-147v-147c0-8-6-13-14-13h-267c-8 0-14 6-14 13v147c0 77 59 140 134 147v135h-34c-8 0-14 6-14 13s6 13 14 13h48 47c7 0 13-6 13-13s-6-13-13-13h-34zm-134-281h241v134c0 67-54 121-120 121-67 0-121-54-121-121zm-618-813h580v567h-580z" fill="#fff"/></g></svg>