<svg clip-rule="evenodd" fill-rule="evenodd" height="2.667in" image-rendering="optimizeQuality" shape-rendering="geometricPrecision" text-rendering="geometricPrecision" viewBox="0 0 2667 2667" width="2.667in" xmlns="http://www.w3.org/2000/svg"><g id="Layer_x0020_1"><circle cx="1333" cy="1333" fill="#f10" r="1333"/><path d="m558 709v410c0 22-17 40-39 40-21 0-39-18-39-40v-449c0-22 18-39 39-39h414c22 0 39 17 39 39s-17 39-39 39zm119 1210c-22 0-39-17-39-39v-1093c0-22 17-40 39-40 21 0 39 18 39 40v1093c0 22-17 39-39 39zm164-73c-22 0-39-18-39-39v-1020c0-22 17-40 39-40s39 18 39 40v1020c0 21-17 39-39 39zm164 0c-22 0-39-18-39-39v-1020c0-22 17-40 39-40s39 18 39 40v1020c0 21-17 39-39 39zm164 0c-21 0-39-18-39-39v-1020c0-22 18-40 39-40 22 0 39 18 39 40v1020c0 21-17 39-39 39zm164 73c-21 0-39-17-39-39v-1093c0-22 18-40 39-40 22 0 40 18 40 40v1093c0 21-18 39-40 39zm164-73c-21 0-39-18-39-39v-1020c0-22 18-40 39-40 22 0 40 18 40 40v1020c0 21-18 39-40 39zm165 0c-22 0-40-18-40-39v-1020c0-22 18-40 40-40 21 0 39 18 39 40v1020c0 21-18 39-39 39zm164 0c-22 0-39-18-39-39v-1020c0-22 17-40 39-40 21 0 39 18 39 40v1020c0 21-18 39-39 39zm164 73c-22 0-39-17-39-39v-1093c0-22 17-40 39-40 21 0 39 18 39 40v1093c0 21-17 39-39 39zm118-1210h-374c-22 0-40-17-40-39s18-39 40-39h413c22 0 40 17 40 39v449c0 22-18 40-40 40-21 0-39-18-39-40zm0 1249v-411c0-21 18-39 39-39 22 0 40 18 40 39v450c0 21-18 39-40 39h-413c-22 0-40-18-40-39 0-22 18-39 40-39zm-1550 0h375c22 0 39 17 39 39 0 21-17 39-39 39h-414c-21 0-39-18-39-39v-450c0-21 18-39 39-39 22 0 39 18 39 39z" fill="#fff"/></g></svg>