<svg clip-rule="evenodd" fill-rule="evenodd" height="2.667in" image-rendering="optimizeQuality" shape-rendering="geometricPrecision" text-rendering="geometricPrecision" viewBox="0 0 2667 2667" width="2.667in" xmlns="http://www.w3.org/2000/svg"><g id="Layer_x0020_1"><circle cx="1333" cy="1333" fill="#7ed63f" r="1333"/><path d="m1869 2187h-1071c-57 0-103-47-103-103v-1301c0-57 46-103 103-103h183v128h-145c-7 0-13 6-13 13v1224c0 8 6 14 13 14h995c7 0 12-6 12-14v-1224c0-7-6-13-13-13h-145v-128h184c57 0 103 46 103 103v1301c0 56-46 103-103 103zm-237-1251h-598c-14 0-26-11-26-26v-265c0-14 12-26 26-26h136c5-34 21-66 46-90 32-32 73-49 117-49 82 0 151 60 164 139h135c15 0 27 12 27 26v265c0 15-12 26-27 26zm-299-126c48 0 87-39 87-87s-39-87-87-87-87 39-87 87 39 87 87 87zm0-149c34 0 61 28 61 61 0 34-27 61-61 61-33 0-61-27-61-61 0-33 28-61 61-61zm-108 1281c8 0 13-6 13-13v-158c0-7-5-13-13-13h-227c-7 0-13 6-13 13v158c0 7 6 13 13 13zm-214-26v-131h201v131zm214-213c8 0 13-5 13-13v-157c0-8-5-14-13-14h-227c-7 0-13 6-13 14v157c0 8 6 13 13 13zm-214-26v-131h201v131zm658 265c7 0 13-5 13-13 0-7-6-13-13-13h-263c-7 0-13 6-13 13s6 13 13 13zm0-198c7 0 13-6 13-13s-6-13-13-13h-263c-7 0-13 6-13 13s6 13 13 13zm0-198c7 0 13-6 13-13 0-8-6-14-13-14h-263c-7 0-13 6-13 14 0 7 6 13 13 13zm8-262c7 0 13-6 13-13s-6-13-13-13h-171c-7 0-13 6-13 13s6 13 13 13zm0-95c7 0 13-6 13-14 0-7-6-13-13-13h-171c-7 0-13 6-13 13 0 8 6 14 13 14zm-516 95c7 0 13-6 13-13s-6-13-13-13h-172c-7 0-13 6-13 13s6 13 13 13zm0-95c7 0 13-6 13-14 0-7-6-13-13-13h-172c-7 0-13 6-13 13 0 8 6 14 13 14zm182 163c34-5 61-35 61-71 0-39-32-71-71-71-24 0-45-20-45-45 0-24 21-44 45-44 25 0 45 20 45 44 0 8 6 14 13 14s13-6 13-14c0-36-27-65-61-70v-29c0-7-6-13-13-13-8 0-14 6-14 13v30c-31 8-54 36-54 69 0 40 32 71 71 71 25 0 45 21 45 45 0 25-20 45-45 45-24 0-45-20-45-45 0-7-6-13-13-13s-13 6-13 13c0 34 23 62 54 69v30c0 8 6 14 14 14 7 0 13-6 13-14zm-362-518v76c0 29 24 53 53 53h598c29 0 53-24 53-53v-76h132v1198h-968v-1198z" fill="#fff"/></g></svg>