<svg clip-rule="evenodd" fill-rule="evenodd" height="2.667in" image-rendering="optimizeQuality" shape-rendering="geometricPrecision" text-rendering="geometricPrecision" viewBox="0 0 2667 2667" width="2.667in" xmlns="http://www.w3.org/2000/svg"><g id="Layer_x0020_1"><circle cx="1333" cy="1333" fill="#378b4e" r="1333"/><path d="m1829 2187h-982c-14 0-26-12-26-27v-166h109c41 0 75-34 75-76v-186c0-42-34-76-75-76h-109v-216c0-14 12-26 26-26h298v231c0 7 6 13 13 13h360c7 0 13-6 13-13v-231h298c14 0 26 12 26 26v216h-118c-42 0-75 34-75 76v186c0 42 33 76 75 76h118v166c0 15-12 27-26 27zm43-220h-135c-27 0-49-22-49-49v-186c0-27 22-49 49-49h135c27 0 49 22 49 49v186c0 27-22 49-49 49zm-942 0h-136c-27 0-48-22-48-49v-186c0-27 21-49 48-49h136c27 0 48 22 48 49v186c0 27-21 49-48 49zm562-788c-16-14-27-30-35-49-36 14-76 21-117 22 0-1-1-1-2-1-42 0-81-7-118-21-8 19-20 35-35 49 34 50 91 81 153 81s119-31 154-81zm-30-110c1 0 2 0 2-1 48-24 88-62 115-111 5-9 14-16 25-16 43 0 78-35 78-78 0-30-18-57-44-70-6 0-12-3-16-7l-44 31c-5 2-10 4-15 4-2 0-5 0-7-1-245-65-442-5-444-5-7 3-15 2-22-3l-38-24c-2 3-6 4-9 5-29 12-47 41-47 72 0 44 36 81 78 81 11 0 21 6 25 16 27 46 66 83 112 106l6 3c36 18 78 27 121 27h2c43 0 85-10 122-29zm43 38c5 15 16 29 29 38h54c123 0 223 100 223 222v20h-945v-20c0-123 100-222 222-222h55c13-9 24-22 29-38-45-26-84-63-113-109-65-8-116-66-116-133 0-49 27-93 70-116v-2c0-2 1-5 1-7 1-5 3-11 4-16 90-43 255-45 326-43 72 3 233 16 320 62 0 2 1 3 1 5 42 22 70 67 70 116 0 66-51 121-115 129-30 48-69 87-115 114zm-478-414c36-115 120-213 248-213h125c67 0 132 33 184 92 35 41 61 90 74 141-26-11-53-19-74-25-77-21-161-31-241-34-81-3-168 1-248 19-20 4-45 11-68 20zm258 1321c7 0 13-6 13-14 0-7-6-13-13-13h-219c-7 0-13 6-13 13 0 8 6 14 13 14zm0-98c7 0 13-6 13-13 0-8-6-14-13-14h-219c-7 0-13 6-13 14 0 7 6 13 13 13zm0-98c7 0 13-6 13-13s-6-13-13-13h-219c-7 0-13 6-13 13s6 13 13 13zm179-33h132v74c0 36-30 66-66 66-37 0-66-30-66-66zm79 236v-70c45-7 80-45 80-92v-87c0-7-6-13-13-13h-159c-7 0-13 6-13 13v87c0 47 34 85 79 92v70h-15c-7 0-13 6-13 13s6 13 13 13h28 28c8 0 13-6 13-13s-5-13-13-13zm-372-607h334v218h-334z" fill="#fff"/></g></svg>