<svg clip-rule="evenodd" fill-rule="evenodd" height="2.667in" image-rendering="optimizeQuality" shape-rendering="geometricPrecision" text-rendering="geometricPrecision" viewBox="0 0 2667 2667" width="2.667in" xmlns="http://www.w3.org/2000/svg"><g id="Layer_x0020_1"><circle cx="1333" cy="1333" fill="#00ab94" r="1333"/><path d="m2070 2187h-1474c-14 0-26-12-26-27v-92h1527v92c0 15-12 27-27 27zm-564-1563h-153v87c87 12 154 88 154 178 0 74-44 137-108 165l435 248h114c14 0 26 12 26 26v56h-319v-56c0-14 12-26 27-26h44l-400-228-390 228h49c15 0 27 12 27 26v56h-319v-56c0-14 12-26 26-26h113l423-247c-64-28-109-92-109-166 0-14 12-26 26-26 15 0 27 12 27 26 0 71 57 128 127 128 71 0 128-57 128-128 0-70-57-128-128-128-14 0-26-11-26-26v-111h-153c-14 0-26-12-26-27v-91c0-14 12-26 26-26h358c15 0 27 12 27 26v91c0 15-12 27-26 27zm-936 1418v-486h1527v486zm0-512v-92c0-15 12-27 26-27h1474c15 0 27 12 27 27v92zm1397 452c8 0 14-6 14-13v-341c0-7-6-13-14-13-7 0-13 6-13 13v341c0 7 6 13 13 13zm-127 0c8 0 13-6 13-13v-341c0-7-5-13-13-13-7 0-13 6-13 13v341c0 7 6 13 13 13zm-126 0c7 0 13-6 13-13v-341c0-7-6-13-13-13-8 0-13 6-13 13v341c0 7 5 13 13 13zm-127 0c7 0 13-6 13-13v-341c0-7-6-13-13-13s-13 6-13 13v341c0 7 6 13 13 13zm-127 0c7 0 13-6 13-13v-341c0-7-6-13-13-13s-13 6-13 13v341c0 7 6 13 13 13zm-127 0c8 0 13-6 13-13v-341c0-7-5-13-13-13-7 0-13 6-13 13v341c0 7 6 13 13 13zm-126 0c7 0 13-6 13-13v-341c0-7-6-13-13-13-8 0-13 6-13 13v341c0 7 5 13 13 13zm-127 0c7 0 13-6 13-13v-341c0-7-6-13-13-13-8 0-13 6-13 13v341c0 7 5 13 13 13zm-127 0c7 0 13-6 13-13v-341c0-7-6-13-13-13s-13 6-13 13v341c0 7 6 13 13 13zm-127 0c7 0 13-6 13-13v-341c0-7-6-13-13-13s-13 6-13 13v341c0 7 6 13 13 13zm-127 0c8 0 13-6 13-13v-341c0-7-6-13-13-13s-13 6-13 13v341c0 7 6 13 13 13z" fill="#fff"/></g></svg>