<svg clip-rule="evenodd" fill-rule="evenodd" height="2.667in" image-rendering="optimizeQuality" shape-rendering="geometricPrecision" text-rendering="geometricPrecision" viewBox="0 0 2667 2667" width="2.667in" xmlns="http://www.w3.org/2000/svg"><g id="Layer_x0020_1"><circle cx="1333" cy="1333" fill="#f10" r="1333"/><path d="m1915 2088h-1163c-150 0-271-122-271-271 0-150 121-271 271-271h1163c150 0 272 121 272 271 0 149-122 271-272 271zm-600-1296h-809c-14 0-26-12-26-26v-115c0-14 12-26 26-26h843c-21 29-34 66-34 105zm-417 727v-165c0-15 12-27 27-27h242c15 0 27 12 27 27v165zm-355 86-53-198c-4-14 4-29 18-32l254-68c6-2 14-1 20 3 6 3 11 9 12 16l52 193h-94c-82 0-155 33-209 86zm1180-401h-91c-14 0-25-11-26-24l-12-143c0-1 0-2 0-3 0-13-6-22-8-24h-186c-2 2-7 11-7 24v3l-12 143c-1 13-13 24-27 24h-91c-14 0-26-12-26-26v-180c0-76 65-138 145-138h223c80 0 145 62 145 138v180c-1 14-12 26-27 26zm-382-366v-108c0-83 68-151 152-151s152 68 152 151v108c-13-3-27-5-40-5h-223c-14 0-28 2-41 5zm209 681v-165c0-15 12-27 26-27h243c14 0 26 12 26 27v165zm-332 0v-165c0-15 11-27 26-27h263c14 0 26 12 26 27v165zm576 298c0 63 51 115 115 115 63 0 114-52 114-115s-51-114-114-114c-64 0-115 51-115 114zm-434-114c-63 0-114 51-114 114s51 115 114 115c64 0 115-52 115-115s-52-114-115-114zm-487 114c0-63-51-114-114-114-64 0-115 51-115 114s51 115 115 115c63 0 114-52 114-115zm954 115h-385c36-26 59-68 59-115s-23-89-59-114h385c-36 25-59 67-59 114s23 89 59 115zm82-256h-1150c-78 0-141 63-141 141s63 141 141 141h601 549c77 0 141-63 141-141s-64-141-141-141zm-1069 27h438c-35 25-59 67-59 114s24 89 60 115h-439c36-26 59-68 59-115s-23-89-59-114z" fill="#fff"/></g></svg>