<svg clip-rule="evenodd" fill-rule="evenodd" height="2.667in" image-rendering="optimizeQuality" shape-rendering="geometricPrecision" text-rendering="geometricPrecision" viewBox="0 0 2667 2667" width="2.667in" xmlns="http://www.w3.org/2000/svg"><g id="Layer_x0020_1"><circle cx="1333" cy="1333" fill="#7ed63f" r="1333"/><path d="m2160 2057h-1654c-14 0-26-12-26-26v-1395c0-15 12-27 26-27h744v580c0 5 3 9 6 11 4 3 9 3 13 1l287-139 308 139c2 1 4 1 5 1 3 0 5-1 7-2 4-3 7-7 7-11v-580h277c15 0 27 12 27 27v1395c0 14-12 26-27 26zm-131-223c7 0 13-6 13-13v-401c0-7-6-13-13-13h-429c-8 0-14 6-14 13v401c0 7 6 13 14 13zm-416-27v-374h403v374zm-443 27c7 0 13-6 13-13 0-8-6-14-13-14h-532c-7 0-13 6-13 14 0 7 6 13 13 13zm0-165c7 0 13-6 13-13s-6-13-13-13h-532c-7 0-13 6-13 13s6 13 13 13zm0-164c7 0 13-6 13-14 0-7-6-13-13-13h-532c-7 0-13 6-13 13 0 8 6 14 13 14zm-268-246c7 0 13-6 13-13v-374l167 97c2 1 4 1 7 1 4 0 9-2 11-6 4-6 2-14-5-18l-186-108c-2-1-5-2-7-2-3 0-6 1-8 2l-186 108c-6 4-8 12-5 18 3 4 7 6 11 6 3 0 5 0 7-1l168-97v374c0 7 6 13 13 13zm375-650h579v560l-294-133c-2-1-4-2-6-2s-4 1-6 2l-273 132z" fill="#fff"/></g></svg>