<svg clip-rule="evenodd" fill-rule="evenodd" height="2.667in" image-rendering="optimizeQuality" shape-rendering="geometricPrecision" text-rendering="geometricPrecision" viewBox="0 0 2667 2667" width="2.667in" xmlns="http://www.w3.org/2000/svg"><g id="Layer_x0020_1"><circle cx="1333" cy="1333" fill="#378b4e" r="1333"/><path d="m1981 2050h-1295c-114 0-206-92-206-206v-179c0-14 12-26 26-26h450v126c0 62 50 113 112 113h530c62 0 113-51 113-113v-126h449c15 0 27 12 27 26v179c0 114-93 206-206 206zm-1410-438v-969c0-14 12-26 27-26h1471c14 0 26 12 26 26v969zm1289-390h-155l145-285c3-7 1-15-6-18-6-3-14-1-18 6l-154 304c-2 4-2 9 0 13 3 4 7 6 11 6h177v56c0 8 6 14 13 14s13-6 13-14v-69-39c0-7-6-13-13-13s-13 6-13 13zm-218 96c7 0 13-6 13-13-1-7-6-13-14-13h-205l182-183c21-20 32-48 32-77s-11-56-32-77c-34-34-80-37-123-20-44 18-97 65-98 116 0 7 6 13 13 13s13-5 13-13c1-40 48-78 82-92 33-13 68-12 94 15 16 15 24 36 24 58s-8 43-24 59l-204 204c-4 4-5 10-3 15s7 8 12 8zm-589-139c31 0 57-22 63-52h46c7 0 13-6 13-13s-6-13-13-13h-46c-5-25-25-45-50-50v-60c0-7-6-13-13-13s-13 6-13 13v60c-30 6-52 32-52 63 0 36 29 65 65 65zm0-104c21 0 38 18 38 39 0 22-17 39-38 39-22 0-39-17-39-39 0-21 17-39 39-39zm0 312c74 0 142-30 191-78 0-1 1-1 2-2 0 0 1-1 1-2 48-49 78-117 78-191 1-150-122-272-272-272h-1c-74 0-142 30-191 79-1 0-1 0-1 1-1 0-1 0-1 1-49 49-79 116-79 191 0 74 30 142 78 191 0 1 1 1 2 2 0 1 1 1 2 2 49 48 116 78 190 78zm13-519c58 3 111 27 151 63l-33 33c-5 5-5 14 0 19 3 2 6 4 10 4 3 0 6-2 9-4l33-33c36 40 60 93 63 151h-47c-7 0-13 6-13 13s6 13 13 13h47c-3 59-26 112-63 152l-33-33c-5-5-13-5-19 0-5 5-5 14 0 19l33 33c-40 36-93 59-151 62v-46c0-7-6-13-13-13s-13 6-13 13v46c-59-3-111-26-152-62l33-33c5-5 5-14 0-19s-14-5-19 0l-33 33c-36-41-59-93-62-152h46c7 0 13-6 13-13s-6-13-13-13h-46c3-58 26-111 62-151l33 33c2 2 6 4 9 4 4 0 7-2 9-4 5-6 6-14 1-19l-33-33c40-36 93-60 152-63v47c0 7 6 13 13 13s13-6 13-13zm890 642c8 0 14-6 14-14v-764c0-7-6-13-13-13h-1247c-7 0-13 6-13 13v764c0 8 6 14 13 14zm-1233-27v-738h1221v738zm258 156h703v126c0 48-39 86-86 86h-530c-48 0-87-38-87-86z" fill="#fff"/></g></svg>