<svg clip-rule="evenodd" fill-rule="evenodd" height="2.667in" image-rendering="optimizeQuality" shape-rendering="geometricPrecision" text-rendering="geometricPrecision" viewBox="0 0 2667 2667" width="2.667in" xmlns="http://www.w3.org/2000/svg"><g id="Layer_x0020_1"><circle cx="1333" cy="1333" fill="#ff700d" r="1333"/><path d="m565 1669c-14 0-26-12-26-27v-741c0-8 4-16 11-21l552-395c9-7 22-7 31 0l548 395c7 5 11 13 11 22v278h-244v-104h69c7 0 12-6 12-14v-111c0-8-6-13-13-13h-801c-7 0-13 5-13 13v111c0 8 6 14 13 14h69v593zm1147 362h-400c-14 0-26-12-26-27v-88c0-14 12-26 26-26h465c-40 34-65 84-65 140zm389 0h-23v-1c0-56-26-106-66-140h89c15 0 27 12 27 26v88c0 15-12 27-27 27zm-994 156c-87 0-157-70-157-157 0-86 70-156 157-156 86 0 156 70 156 156 0 87-70 157-156 157zm0-97c33 0 60-27 60-60s-27-60-60-60-60 27-60 60 27 60 60 60zm0-94c18 0 34 16 34 34 0 19-16 34-34 34-19 0-34-15-34-34 0-18 15-34 34-34zm-33-565c5-32 34-57 67-57h118v57zm821 756c-87 0-157-70-157-157 0-86 70-156 157-156 86 0 156 70 156 156 0 87-70 157-156 157zm0-97c33 0 60-27 60-60s-27-60-60-60-60 27-60 60 27 60 60 60zm0-94c18 0 33 16 33 34 0 19-15 34-33 34-19 0-34-15-34-34 0-18 15-34 34-34zm74-133c-48-21-102-21-150 0h-507c-9 0-18 3-26 7v-557c0-59 48-107 107-107h628c59 0 106 48 106 107v550zm-257-170c8 0 13-6 13-14v-33h284c7 0 13-6 13-14 0-7-6-13-13-13h-284v-68h175c7 0 13-5 13-13 0-7-6-13-13-13h-175v-68h71c7 0 13-6 13-13s-6-13-13-13h-71v-33c0-8-5-13-13-13h-85c-1-1-2-1-3-1h-131c-1 0-2 0-3 1h-86c-7 0-13 5-13 13v281c0 8 6 14 13 14zm-294-27v-255h62v137c0 4 2 9 6 11 2 2 5 2 7 2s5-1 7-2l60-33 58 33c4 3 9 3 13 0 4-2 6-6 6-11v-137h63v33 91c-1 1-1 2-1 3s0 2 1 3v91 34zm88-255h105v115l-45-26c-4-3-8-3-13 0l-47 26zm-582 620h-47c-14 0-26-12-26-27v-202c0-5 1-9 3-13l4-8h295c7 0 13-5 13-13v-220c0-7-6-13-13-13h-160l35-63c5-9 14-14 23-14h208v458 1 12c-32-49-89-82-152-82-101 0-183 82-183 183zm-51-276 106-193h160v193zm371-980c7 0 13-6 13-14 0-7-6-13-13-13h-256c-7 0-13 6-13 13 0 8 6 14 13 14zm0 88c7 0 13-6 13-13s-6-13-13-13h-256c-7 0-13 6-13 13s6 13 13 13zm191 186h-638-69v-85h775v85zm-14 131h-28c-74 0-134 60-134 133v34h-118c-48 0-89 37-94 84-18 2-34 12-42 28l-52 93c-1 3-3 6-4 8l-59 109h-80v-593h611z" fill="#fff"/></g></svg>