<svg clip-rule="evenodd" fill-rule="evenodd" height="2.667in" image-rendering="optimizeQuality" shape-rendering="geometricPrecision" text-rendering="geometricPrecision" viewBox="0 0 2667 2667" width="2.667in" xmlns="http://www.w3.org/2000/svg"><g id="Layer_x0020_1"><circle cx="1333" cy="1333" fill="#1d81ce" r="1333"/><path d="m1981 2050h-1295c-114 0-206-92-206-206v-179c0-14 12-26 26-26h450v126c0 62 50 113 112 113h530c62 0 113-51 113-113v-126h449c15 0 27 12 27 26v179c0 114-93 206-206 206zm-1410-438v-969c0-14 12-26 27-26h1471c14 0 26 12 26 26v969zm1278-211h1c5 0 8-4 10-8 1-2 2-4 1-6v-544c1-2 1-4 0-6-2-6-7-9-12-9h-1031c-3 0-6 1-8 3-3 2-5 6-5 10v546c0 2 0 4 1 6 2 4 6 7 10 8h1 1zm-1018-48v-487l265 185zm287-287 208 146c2 1 5 2 7 2 3 0 6-1 8-2l208-146 270 309h-972zm453-15 264-185v487zm-711-197h947l-474 331zm1096 639c8 0 14-6 14-13v-731c0-7-6-13-13-13h-1247c-7 0-13 6-13 13v731c0 7 6 13 13 13zm-1233-26v-705h1221v705zm258 172h703v126c0 48-39 86-86 86h-530c-48 0-87-38-87-86z" fill="#fff"/></g></svg>