<svg clip-rule="evenodd" fill-rule="evenodd" height="2.667in" image-rendering="optimizeQuality" shape-rendering="geometricPrecision" text-rendering="geometricPrecision" viewBox="0 0 2667 2667" width="2.667in" xmlns="http://www.w3.org/2000/svg"><g id="Layer_x0020_1"><circle cx="1333" cy="1333" fill="#7ed63f" r="1333"/><path d="m1961 1889h-1255c-15 0-26-12-26-26v-1059c0-4 1-9 3-12l259 439c2 4 7 6 11 6h759c5 0 9-2 12-6l260-440c2 4 3 8 3 13v1059c0 14-12 26-26 26zm199-639h-146v-395l170 358c4 8 3 17-2 25-4 8-13 12-22 12zm-1507 0h-146c-9 0-18-4-23-12s-5-17-2-25l171-359zm643 466c7 0 13-6 13-13s-6-13-13-13h-404c-7 0-13 6-13 13s6 13 13 13zm0-125c7 0 13-6 13-13s-6-13-13-13h-404c-7 0-13 6-13 13s6 13 13 13zm0-124c7 0 13-6 13-14 0-7-6-13-13-13h-404c-7 0-13 6-13 13 0 8 6 14 13 14zm391 169c57-6 101-55 101-113v-112c0-7-5-13-13-13h-203c-7 0-13 6-13 13v112c0 58 44 107 101 113v97h-23c-7 0-13 6-13 13s6 13 13 13h36 36c8 0 14-6 14-13s-6-13-14-13h-22zm-102-212h177v98c0 49-40 89-89 89-48 0-88-40-88-89zm-880-646h1 1255 1l-257 433h-744z" fill="#fff"/></g></svg>