<svg clip-rule="evenodd" fill-rule="evenodd" height="2.667in" image-rendering="optimizeQuality" shape-rendering="geometricPrecision" text-rendering="geometricPrecision" viewBox="0 0 2667 2667" width="2.667in" xmlns="http://www.w3.org/2000/svg"><g id="Layer_x0020_1"><circle cx="1333" cy="1333" fill="#ff700d" r="1333"/><path d="m672 1778-125-478h233c7 0 13-6 13-13s-6-13-13-13h-240l-59-227c-4-17 8-33 25-33h332c8 0 15 3 20 8l191 217h1111c18 0 31 18 25 36l-55 157h-688c-7 0-13 6-13 13s6 13 13 13h679l-93 270c-63-9-126-11-188-5-46 5-86 13-129 27-82 27-170 38-256 27-30-3-72-12-99-25-6-3-4-2-9-3-95-25-196-36-295-26-45 5-86 13-129 27-80 26-166 38-251 28zm683-975c5-5 11-8 18-8h222c15 0 27 12 27 27v391h-267zm453 43v-149c0-15 11-27 26-27h146c14 0 26 12 26 27v149zm-1310 141v-202c0-15 12-27 27-27h162c10 0 19 6 23 14l112 215h-316zm160-101c7 0 13-6 13-14 0-7-6-13-13-13h-61c-7 0-13 6-13 14 0 7 6 13 13 13zm72 1110c-119 0-190-29-194-31-13-6-20-21-14-35s21-20 35-14c2 1 148 60 375-1 19-7 173-63 409 0 1 0 2 1 3 1 2 1 147 60 375 0 19-8 173-64 409-1 14 4 22 19 19 33-4 14-19 22-33 19-230-62-375-2-376-2-1 1-3 1-4 2-235 63-389 7-409-1-229-60-373-1-374 0-1 0-3 1-4 1-83 22-156 29-217 29zm0-140c-119 0-190-30-194-32-13-5-20-21-14-34 6-14 21-20 35-14 2 1 148 59 375-1 19-7 173-63 409 0 1 0 2 1 3 1 2 1 147 60 375 0 19-8 173-64 409-1 14 4 22 18 19 33-4 14-19 22-33 18-228-61-375-1-376-1s-3 1-4 1c-83 23-156 30-216 30-111 0-179-25-192-30-227-60-373-1-375-1-1 1-2 1-3 2-84 21-157 29-218 29zm323-652v-507c0-15 12-27 27-27h222c14 0 26 12 26 27v515h-267zm972-67h-236c-14 0-26-12-26-27v-211c0-15 12-27 26-27h236c14 0 26 12 26 27v211c0 15-12 27-26 27zm-352 76v-174c0-15 12-27 27-27h36v98c0 29 24 53 53 53h236c29 0 53-24 53-53v-98h36c15 0 27 12 27 27v174zm-439 245c7 0 13-6 13-13s-6-13-13-13h-196c-8 0-14 6-14 13s6 13 14 13zm-322 0c7 0 13-6 13-13s-6-13-13-13h-196c-7 0-13 6-13 13s6 13 13 13z" fill="#fff"/></g></svg>