<svg clip-rule="evenodd" fill-rule="evenodd" height="2.667in" image-rendering="optimizeQuality" shape-rendering="geometricPrecision" text-rendering="geometricPrecision" viewBox="0 0 2667 2667" width="2.667in" xmlns="http://www.w3.org/2000/svg"><g id="Layer_x0020_1"><circle cx="1333" cy="1333" fill="#1d81ce" r="1333"/><path d="m1956 2187h-1245c-63 0-114-51-114-114v-1479c0-63 51-114 114-114h1245c63 0 114 51 114 114v1479c0 63-51 114-114 114zm-215-1213c8 0 13-5 13-12s-6-13-13-13h-136l122-122c15-15 23-36 23-57 0-22-8-42-23-57-25-25-59-28-91-15s-71 47-72 85c0 7 6 13 13 13s14-5 14-13c0-26 32-52 55-61 21-9 45-9 62 9 11 10 16 24 16 38 0 15-5 29-16 39l-144 144c-4 4-4 10-2 15 1 4 6 7 12 7zm-324 0c7 0 13-5 13-12s-6-13-13-13h-136l122-122c15-15 23-36 23-57 0-22-8-42-23-57-25-25-59-28-91-15-33 13-71 47-72 85 0 7 6 13 13 13s13-5 14-13c0-26 32-52 55-61 21-9 45-9 62 9 10 10 16 24 16 38 0 15-6 29-16 39l-144 144c-4 4-5 10-3 15 2 4 7 7 12 7zm-324 0c8 0 13-5 13-12s-6-13-13-13h-136l122-122c15-15 24-36 24-57 0-22-9-42-24-57-25-25-59-28-91-15s-71 47-71 85c-1 7 5 13 12 13s14-5 14-13c0-26 33-52 55-61 21-9 45-9 62 9 11 10 16 24 16 38 0 15-5 29-16 39l-144 144c-4 4-4 10-2 15 2 4 7 7 12 7zm769 1072c7 0 13-6 13-13v-548c0-7-6-13-13-13h-279c-7 0-13 6-13 13v548c0 7 6 13 13 13zm-266-26v-521h253v521zm-135 26c7 0 13-6 13-13v-218c0-7-6-13-13-13h-280c-7 0-13 6-13 13v218c0 7 6 13 13 13zm-267-26v-192h253v192zm-135 26c8 0 13-6 13-13v-218c0-7-6-13-13-13h-279c-7 0-13 6-13 13v218c0 7 6 13 13 13zm-266-26v-192h253v192zm668-304c7 0 13-6 13-13v-218c0-7-6-13-13-13h-280c-7 0-13 6-13 13v218c0 7 6 13 13 13zm-267-26v-191h253v191zm-135 26c8 0 13-6 13-13v-218c0-7-6-13-13-13h-279c-7 0-13 6-13 13v218c0 7 6 13 13 13zm-266-26v-191h253v191zm1069-304c7 0 13-6 13-13v-218c0-7-6-13-13-13h-279c-7 0-13 6-13 13v218c0 7 6 13 13 13zm-266-26v-191h253v191zm-135 26c7 0 13-6 13-13v-218c0-7-6-13-13-13h-280c-7 0-13 6-13 13v218c0 7 6 13 13 13zm-267-26v-191h253v191zm-135 26c8 0 13-6 13-13v-218c0-7-6-13-13-13h-279c-7 0-13 6-13 13v218c0 7 6 13 13 13zm-266-26v-191h253v191zm1094-317c7 0 13-5 13-13v-396c0-7-6-13-13-13h-1107c-7 0-13 6-13 13v396c0 8 6 13 13 13zm-1094-26v-370h1081v370z" fill="#fff"/></g></svg>