<svg clip-rule="evenodd" fill-rule="evenodd" height="2.667in" image-rendering="optimizeQuality" shape-rendering="geometricPrecision" text-rendering="geometricPrecision" viewBox="0 0 2667 2667" width="2.667in" xmlns="http://www.w3.org/2000/svg"><g id="Layer_x0020_1"><circle cx="1333" cy="1333" fill="#7ed63f" r="1333"/><path d="m1940 2134h-1176c-45 0-87-18-119-51-29-31-48-73-52-119l-112-1256c-4-43 10-84 40-117 33-36 82-58 131-58h1363c48 0 94 20 127 55 31 33 47 75 44 118l-74 1257c-3 46-22 88-52 119-32 34-75 52-120 52zm-135-548c8 0 13-6 13-14 0-7-5-13-13-13h-166c-8 0-13 6-13 13 0 8 5 14 13 14zm-388 0c7 0 13-6 13-14 0-7-6-13-13-13h-167c-7 0-13 6-13 13 0 8 6 14 13 14zm-388 0c7 0 13-6 13-14 0-7-6-13-13-13h-167c-7 0-13 6-13 13 0 8 6 14 13 14zm25-396c5 0 10-3 12-8 12-29 28-56 47-79l25 25c3 3 6 4 10 4 3 0 6-1 9-4 5-5 5-13 0-18l-26-26c50-49 117-79 190-82v40c0 7 5 13 13 13 7 0 13-6 13-13v-40c72 3 139 33 189 82l-26 26c-5 5-5 13 0 18 2 2 6 4 10 4 3 0 6-1 9-4l25-25c19 23 35 50 47 79 3 7 11 10 17 7 7-2 10-10 7-17-47-120-162-197-291-197-90 0-172 38-230 100v1c-26 27-47 60-62 96-3 7 0 15 7 17 2 1 3 1 5 1zm693 128c7 0 13-6 13-13 0-236-191-427-426-427-236 0-427 191-427 427 0 7 6 13 13 13h98 53 144 237 145 53zm-813-41c15-209 190-373 400-373s385 164 399 373l1 14h-84-53-135c-11-39-41-70-77-86l29-69c3-7 0-15-7-18-7-2-15 1-17 7l-31 73c-8-2-17-3-25-3-60 0-112 40-129 96h-134-53-85zm504 14h-208l13-20c20-31 54-50 91-50 9 0 18 2 27 4h1c1 1 2 1 4 1 23 8 44 23 58 45zm-667 680h256c7 0 13-6 13-13l1-123c0-37 30-67 67-67h451c37 0 68 30 67 67v122c0 4 1 7 4 10 2 3 6 4 9 4h296c5 0 11-3 12-9 1-2 2-5 2-8l74-1244c0-4-1-7-4-10-2-2-6-4-9-4h-1352c-4 0-8 2-10 4-3 3-4 7-4 10l112 1240c0 4 2 10 3 13 2 5 7 8 12 8zm882-26v-110c0-52-42-94-94-94h-451c-51 0-94 42-94 94v110h-233l-109-1223h1324l-73 1223z" fill="#fff"/></g></svg>