<svg clip-rule="evenodd" fill-rule="evenodd" height="2.667in" image-rendering="optimizeQuality" shape-rendering="geometricPrecision" text-rendering="geometricPrecision" viewBox="0 0 2667 2667" width="2.667in" xmlns="http://www.w3.org/2000/svg"><g id="Layer_x0020_1"><circle cx="1333" cy="1333" fill="#7ed63f" r="1333"/><path d="m583 618h330v-110h-330zm1307 741v594h242l-93-594zm-507 622v178h804v-178zm-390-110v288h151v-288zm-27 0h-151v288h151zm389-206h-751v494h184v-302c0-7 6-13 14-13h356c7 0 14 6 14 13v302h183zm10-159h-885v131h999v-131h-105zm-457-132v-139h-169v139zm313 0v-139h-170v139zm134 105v-349h-751v349zm-107-258v167c0 7-6 14-14 14h-197c-7 0-13-7-13-14v-167c0-8 6-14 13-14h197c8 0 14 6 14 14zm-312 167c0 7-6 14-14 14h-197c-8 0-14-7-14-14v-167c0-8 6-14 14-14h197c8 0 14 6 14 14zm761 565v-594h-267l-41 120h104c8 0 14 6 14 14v158c0 8-6 14-14 14h-110v288zm165-594h-137v594h137zm158-123h-548l-33 96h596l-4-23zm-21-129h-483l-35 102h534zm-297-370c-26 13-43 35-47 63-5 27 3 55 23 75 3 4 5 10 3 15-12 33-9 80 12 108 17 25 43 28 63 4 20-25 25-66 19-97-2-6 1-12 7-16 39-22 53-72 34-112-2-4-2-8-1-12 1-3 4-7 8-8 5-3 11-6 16-10 3-3 7-4 12-3 4 0 8 3 10 6 20 32 55 46 91 38 35-8 61-35 67-71 0-5 4-10 9-12s11-1 15 2c27 20 61 23 90 8 30-14 48-43 48-76 0-48-39-86-86-86-42 0-79 31-85 72-1 6-4 10-9 12-6 2-11 2-16-2-31-23-74-23-104 1-4 3-8 4-12 3-5 0-9-3-11-6-16-25-43-40-72-40-30 0-57 15-73 41-16 25-17 56-4 83 1 4 2 8 0 12-1 3-4 7-7 8zm-656-119h330v-110h-330zm58 180h214v-153h-214zm0 123h214v-95h-214zm0 28v153h214v-153zm-249 0h-214v153h214zm0-123h-214v95h214zm0-181h-214v153h214z" fill="#fff"/></g></svg>