<svg clip-rule="evenodd" fill-rule="evenodd" height="2.667in" image-rendering="optimizeQuality" shape-rendering="geometricPrecision" text-rendering="geometricPrecision" viewBox="0 0 2667 2667" width="2.667in" xmlns="http://www.w3.org/2000/svg"><g id="Layer_x0020_1"><circle cx="1333" cy="1333" fill="#00ab94" r="1333"/><path d="m2076 1641h-1486c-14 0-26-12-26-26v-797h1539v796c0 15-12 27-27 27zm-158 490h-189c-7 0-14-2-19-7l-229-229v-227h38l419 418c7 8 10 19 5 29-4 10-14 16-25 16zm-980 0h-190c-10 0-20-6-24-16s-2-21 5-29l419-418h37v226l-229 229c-5 6-11 8-18 8zm490 0h-190c-14 0-26-11-26-26v-437h242v437c0 15-12 26-26 26zm732-1339h-1654c-14 0-26-12-26-27v-203c0-15 12-27 26-27h1654c15 0 27 12 27 27v203c0 15-12 27-27 27zm-269 796c8 0 14-6 14-13v-413c0-7-6-13-14-13h-176c-7 0-13 6-13 13v413c0 7 6 13 13 13zm-163-26v-387h150v387zm-150 26c7 0 13-6 13-13v-314c0-8-6-13-13-13h-176c-7 0-13 5-13 13v314c0 7 6 13 13 13zm-163-26v-288h150v288zm-150 26c7 0 13-6 13-13v-413c0-7-6-13-13-13h-176c-7 0-13 6-13 13v413c0 7 6 13 13 13zm-163-26v-387h150v387zm-150 26c7 0 13-6 13-13v-314c0-8-6-13-13-13h-176c-8 0-14 5-14 13v314c0 7 6 13 14 13zm-163-26v-288h150v288zm1014-465c62 0 113-51 113-113s-51-113-113-113-113 51-113 113c0 13 3 25 7 37l-96 46c-10-53-56-93-111-93s-101 39-111 91l-93-51c2-10 4-20 4-30 0-62-51-113-113-113s-113 51-113 113c0 5 1 9 1 14l-107 27c-20-31-55-51-94-51-62 0-113 51-113 113s51 112 113 112 113-50 113-112c0-14-3-26-7-38l102-26c16 43 57 74 105 74 42 0 79-24 99-58l102 55c4 59 52 105 112 105 59 0 108-45 112-104l106-51c20 32 55 53 95 53zm0-200c48 0 87 39 87 86 0 48-39 87-87 87s-86-39-86-87c0-47 38-86 86-86zm-313 103c48 0 87 39 86 87 0 47-38 86-86 86-47 0-85-37-86-84 0-2 0-3 0-5 1-46 39-84 86-84zm-313-103c48 0 86 39 86 86 0 48-38 87-86 87s-86-39-86-87c0-47 38-86 86-86zm-313 103c33 0 61 19 76 46 7 12 10 26 10 41 0 47-38 86-86 86s-87-39-87-86c0-48 39-87 87-87z" fill="#fff"/></g></svg>