<svg clip-rule="evenodd" fill-rule="evenodd" height="2.667in" image-rendering="optimizeQuality" shape-rendering="geometricPrecision" text-rendering="geometricPrecision" viewBox="0 0 2667 2667" width="2.667in" xmlns="http://www.w3.org/2000/svg"><g id="Layer_x0020_1"><circle cx="1333" cy="1333" fill="#ff700d" r="1333"/><path d="m2118 2187h-1569c-15 0-27-12-27-27v-928c0-15 12-27 27-27h1569c15 0 26 12 26 27v928c0 15-11 27-26 27zm-1274-1008c-21-57-31-118-31-178 0-287 233-521 520-521s521 234 521 521c0 60-11 121-32 178h-385c21-25 32-56 32-89 0-75-61-136-136-136-60 0-109-49-109-109 0-61 49-110 109-110 61 0 110 49 110 110 0 7 6 13 13 13s13-6 13-13c0-73-58-133-130-136v-75c0-7-6-13-13-13-8 0-14 6-14 13v77c-65 10-115 66-115 134 0 75 61 136 136 136 61 0 110 49 110 109 0 36-17 68-45 89h-129c-28-21-45-53-45-89 0-7-6-13-14-13-7 0-13 6-13 13 0 33 12 64 33 89zm489 764c137 0 247-111 247-247s-110-247-247-247c-136 0-247 111-247 247s111 247 247 247zm0-468c122 0 221 99 221 221s-99 221-221 221c-121 0-220-99-220-221s99-221 220-221zm10 349c35-4 62-34 62-70 0-40-32-72-72-72-25 0-45-20-45-45 0-23 17-41 39-44h3c1 0 3 0 4-1 25 1 44 21 44 45 0 7 6 13 14 13 7 0 13-6 13-13 0-36-27-66-62-70v-29c0-7-6-13-13-13-8 0-13 6-13 13v30c-32 8-55 36-55 69 0 40 32 72 71 72 25 0 45 20 45 45s-20 45-45 45-45-20-45-45c0-7-6-13-13-13s-13 6-13 13c0 33 23 61 55 69v31c0 7 6 13 13 13s13-6 13-13zm624 184h1 1 1 1l1-1h1 1v-1h1v-1h1v-1h1v-1h1v-1l1-1v-1-1h1v-1-1-1-1-159-1-279-159c0-7-6-13-13-13h-159-1-948-159c-8 0-14 6-14 13v159 280 159c0 7 6 13 14 13h159 949zm-1254-185v-254c84-7 152-74 159-159h923c6 85 74 152 159 159v254c-85 7-153 74-159 159h-923c-7-85-75-152-159-159zm133 159h-133v-133l16 3c57 11 102 57 114 114zm-133-439v-133h133l-3 16c-12 57-57 103-114 114zm1107-133h134v133l-16-3c-57-11-103-57-114-114zm134 439v133h-134l4-16c11-57 56-103 114-114z" fill="#fff"/></g></svg>