<svg clip-rule="evenodd" fill-rule="evenodd" height="2.667in" image-rendering="optimizeQuality" shape-rendering="geometricPrecision" text-rendering="geometricPrecision" viewBox="0 0 2667 2667" width="2.667in" xmlns="http://www.w3.org/2000/svg"><g id="Layer_x0020_1"><circle cx="1333" cy="1333" fill="#378b4e" r="1333"/><path d="m649 743h45c23 0 41 18 41 41 0 22-18 41-41 41h-45v156h45c23 0 41 18 41 40 0 23-18 41-41 41h-45v156h45c23 0 41 19 41 41 0 23-18 41-41 41h-45v156h45c23 0 41 18 41 41 0 22-18 41-41 41h-45v129h45c23 0 41 19 41 41 0 23-18 41-41 41h-173c-23 0-41-18-41-41 0-22 18-41 41-41h46v-1054h-46c-23 0-41-18-41-41 0-22 18-40 41-40h86 1 86c23 0 41 18 41 40 0 23-18 41-41 41h-45zm1267 849h-690v99h690zm-318-523h-141v145h141 5c38-1 67-35 67-72 0-40-33-73-72-73zm-256-463c23 108 119 186 229 186 111 0 206-79 229-186l4-17h-465zm-117 959h691v-701c0-7 6-13 14-13 7 0 13 6 13 13v132l89 63 155-225-263-244h-94l-2 11c-9 57-37 109-80 149-48 45-111 69-177 69s-129-25-178-70c-43-39-70-91-79-148l-2-11h-95l-262 244 155 225 89-63v-132c0-7 6-13 13-13 8 0 14 6 14 13v139c0 1-1 2-1 4zm205-169v-164c0-2-1-3-1-5v-147c0-21 17-38 38-38h130c55 0 99 45 99 100 0 39-23 75-59 91l-13 6 87 151c3 6 1 14-6 18-2 1-4 2-6 2-5 0-9-3-12-7l-93-162h-137v155c0 8-6 14-14 14-7 0-13-6-13-14zm-257 571v-46c0-23 19-41 41-41 23 0 41 18 41 41v46h156v-46c0-23 18-41 41-41s41 18 41 41v46h156v-46c0-23 18-41 41-41 22 0 41 18 41 41v46h156v-46c0-23 18-41 41-41 22 0 41 18 41 41v46h129v-46c0-23 18-41 41-41 22 0 41 18 41 41v173c0 23-19 41-41 41-23 0-41-18-41-41v-46h-1054v46c0 23-18 41-41 41-22 0-41-18-41-41v-173c0-23 19-41 41-41 23 0 41 18 41 41v46z" fill="#fff"/></g></svg>