<svg clip-rule="evenodd" fill-rule="evenodd" height="2.667in" image-rendering="optimizeQuality" shape-rendering="geometricPrecision" text-rendering="geometricPrecision" viewBox="0 0 2667 2667" width="2.667in" xmlns="http://www.w3.org/2000/svg"><g id="Layer_x0020_1"><circle cx="1333" cy="1333" fill="#1d81ce" r="1333"/><path d="m2032 1488c-41-34-93-55-151-55-57 0-110 21-151 55h-60v-555h292c7 0 14 3 19 8l118 120h-267c-7 0-13 6-13 13v236c0 7 6 13 13 13h354v165zm-992 0c-41-34-94-55-151-55-58 0-111 21-152 56h-257v-672c0-14 12-26 26-26h414v329c0 7 6 13 13 13h412c7 0 13-6 13-13v-329h259c15 0 27 12 27 26v671zm179-147c7 0 13-6 13-14 0-7-6-13-13-13h-573c-7 0-13 6-13 13 0 8 6 14 13 14zm0-89c7 0 13-6 13-13s-6-13-13-13h-573c-7 0-13 6-13 13s6 13 13 13zm-273-461h386v316h-386zm-57 1085c-115 0-208-94-208-208 0-115 93-208 208-208s208 93 208 208c0 114-93 208-208 208zm0-110c54 0 98-44 98-98s-44-98-98-98-98 44-98 98 44 98 98 98zm0-170c39 0 71 32 71 71 0 40-32 72-71 72-40 0-72-32-72-72 0-39 32-71 72-71zm992 280c-115 0-208-94-208-208 0-115 93-208 208-208s208 93 208 208c0 114-93 208-208 208zm0-110c54 0 98-44 98-98s-44-98-98-98-98 44-98 98 44 98 98 98zm0-170c39 0 72 32 72 71 0 40-33 72-72 72s-71-32-71-72c0-39 32-71 71-71zm279 98h-46c1-9 2-17 2-26 0-59-22-112-57-153h101c15 0 27 12 27 26v126c0 15-12 27-27 27zm-512 0h-526c1-9 2-17 2-26 0-59-22-112-57-153h636c-35 41-57 94-57 153 0 9 1 17 2 26zm-992 0h-150c-14 0-26-12-26-26v-126c0-15 12-27 26-27h204c-35 41-56 95-56 153 0 9 1 17 2 26zm1469-607 53 54c5 5 8 12 8 19v137h-341v-210z" fill="#fff"/></g></svg>