<svg id="color" enable-background="new 0 0 24 24" height="512" viewBox="0 0 24 24" width="512" xmlns="http://www.w3.org/2000/svg"><path d="m0 10.5v4c0 2.43 6.28 2.5 7 2.5.37 0 2.16-.02 3.84-.35l3-4.88.16-.24v-1.03z" fill="#ffc107"/><path d="m7 13c-.717 0-7-.07-7-2.5v-4h14v4c0 2.43-6.283 2.5-7 2.5z" fill="#ffd54f"/><path d="m7 9c-.717 0-7-.07-7-2.5v-4h14v4c0 2.43-6.283 2.5-7 2.5z" fill="#ffc107"/><path d="m7 5c-.717 0-7-.07-7-2.5s6.283-2.5 7-2.5 7 .07 7 2.5-6.283 2.5-7 2.5z" fill="#ffd54f"/><path d="m0 10.5v4c0 2.43 6.28 2.5 7 2.5v-4c-.717 0-7-.07-7-2.5z" fill="#dea806"/><path d="m0 6.5v4c0 2.43 6.283 2.5 7 2.5v-4c-.717 0-7-.07-7-2.5z" fill="#deb945"/><path d="m0 2.5v4c0 2.43 6.283 2.5 7 2.5v-4c-.717 0-7-.07-7-2.5z" fill="#dea806"/><path d="m7 0c-.717 0-7 .07-7 2.5 0 2.43 6.283 2.5 7 2.5z" fill="#deb945"/><path d="m23.744 21.406-5.28-8.579c-.301-.51-.861-.827-1.464-.827s-1.163.317-1.456.815l-5.271 8.565c-.179.265-.273.581-.273.915 0 .94.768 1.705 1.712 1.705h10.576c.944 0 1.712-.765 1.712-1.705 0-.334-.094-.65-.256-.889z" fill="#ffc107"/><path d="m17 22.5c-.553 0-1-.448-1-1s.447-1 1-1 1 .448 1 1-.447 1-1 1z" fill="#fff"/><path d="m18 18.5c0 .552-.447 1-1 1s-1-.448-1-1v-3c0-.552.447-1 1-1s1 .448 1 1z" fill="#fff"/><path d="m17 12c-.603 0-1.163.317-1.456.815l-5.271 8.565c-.179.265-.273.581-.273.915 0 .94.768 1.705 1.712 1.705h5.288v-1.5c-.553 0-1-.448-1-1s.447-1 1-1v-1c-.553 0-1-.448-1-1v-3c0-.552.447-1 1-1z" fill="#dea806"/><g fill="#dedede"><path d="m17 20.5c-.553 0-1 .448-1 1s.447 1 1 1z"/><path d="m17 14.5c-.553 0-1 .448-1 1v3c0 .552.447 1 1 1z"/></g></svg>