<svg id="color" enable-background="new 0 0 24 24" height="512" viewBox="0 0 24 24" width="512" xmlns="http://www.w3.org/2000/svg"><path d="m17.5 11c-3.584 0-6.5 2.916-6.5 6.5s2.916 6.5 6.5 6.5 6.5-2.916 6.5-6.5-2.916-6.5-6.5-6.5z" fill="#ffc107"/><path d="m17.5 22c-.414 0-.75-.336-.75-.75s.336-.75.75-.75.75.336.75.75-.336.75-.75.75z" fill="#fff"/><path d="m18.991 17.658c-.277.212-.741.67-.741 1.352v.241c0 .414-.336.75-.75.75s-.75-.336-.75-.75v-.241c0-.968.484-1.894 1.327-2.542.265-.203.423-.534.423-.884 0-.598-.449-1.083-1-1.083s-1 .486-1 1.083c0 .414-.336.75-.75.75s-.75-.336-.75-.75c0-1.425 1.122-2.584 2.5-2.584s2.5 1.159 2.5 2.584c0 .813-.377 1.588-1.009 2.074z" fill="#fff"/><path d="m17.5 11c-3.584 0-6.5 2.916-6.5 6.5s2.916 6.5 6.5 6.5v-2c-.414 0-.75-.336-.75-.75s.336-.75.75-.75v-.5c-.414 0-.75-.336-.75-.75v-.241c0-.719.267-1.415.75-1.991v-2.518c-.551 0-1 .486-1 1.083 0 .414-.336.75-.75.75s-.75-.335-.75-.749c0-1.425 1.122-2.584 2.5-2.584z" fill="#dea806"/><path d="m17.5 20.5c-.414 0-.75.336-.75.75s.336.75.75.75z" fill="#dedede"/><path d="m17.5 17.019c-.483.576-.75 1.272-.75 1.991v.241c0 .414.336.75.75.75zm0-4.019c-1.378 0-2.5 1.159-2.5 2.584 0 .414.336.75.75.75s.75-.336.75-.75c0-.598.449-1.083 1-1.083z" fill="#dedede"/><path d="m0 10.5v4c0 2.43 6.28 2.5 7 2.5.23 0 1.04-.01 2.02-.1.11-1.54.63-2.97 1.45-4.18.6-.87 1.34-1.62 2.21-2.22z" fill="#ffc107"/><path d="m0 6.5v4c0 2.43 6.28 2.5 7 2.5.34 0 1.9-.02 3.47-.28.6-.87 1.34-1.62 2.21-2.22.41-.29.85-.54 1.32-.74v-3.26z" fill="#ffd54f"/><path d="m7 9c-.717 0-7-.07-7-2.5v-4h14v4c0 2.43-6.283 2.5-7 2.5z" fill="#ffc107"/><path d="m7 5c-.717 0-7-.07-7-2.5 0-2.43 6.283-2.5 7-2.5s7 .07 7 2.5-6.283 2.5-7 2.5z" fill="#ffd54f"/><path d="m0 10.5v4c0 2.43 6.28 2.5 7 2.5v-4c-.72 0-7-.07-7-2.5z" fill="#dea806"/><path d="m0 6.5v4c0 2.43 6.28 2.5 7 2.5v-4c-.717 0-7-.07-7-2.5z" fill="#deb945"/><path d="m0 2.5v4c0 2.43 6.283 2.5 7 2.5v-4c-.717 0-7-.07-7-2.5z" fill="#dea806"/><path d="m7 0c-.717 0-7 .07-7 2.5 0 2.43 6.283 2.5 7 2.5z" fill="#deb945"/></svg>