<svg id="color" enable-background="new 0 0 24 24" height="512" viewBox="0 0 24 24" width="512" xmlns="http://www.w3.org/2000/svg"><path d="m22.817 18.48c.116-.262.183-.55.183-.855 0-1.129-.887-2.046-2-2.112v-.763c0-.414-.336-.75-.75-.75s-.75.336-.75.75v.75h-.75c-.414 0-.75.336-.75.75v5.5c0 .414.336.75.75.75h.75v.75c0 .414.336.75.75.75s.75-.336.75-.75v-.75h.875c1.172 0 2.125-.953 2.125-2.125 0-.832-.485-1.546-1.183-1.895zm-3.317-1.48h1.375c.345 0 .625.28.625.625s-.28.625-.625.625h-1.375zm2.375 4h-2.375v-1.25h1.375 1c.345 0 .625.28.625.625s-.28.625-.625.625z" fill="#ffc107"/><path d="m20.25 14c-.414 0-.75.336-.75.75v.75h-.75c-.414 0-.75.336-.75.75v5.5c0 .414.336.75.75.75h.75v.75c0 .414.336.75.75.75v-3h-.75v-1.25h.75v-1.5h-.75v-1.25h.75z" fill="#dea806"/><path d="m7 17c-.717 0-7-.07-7-2.5v-4h14v4c0 2.43-6.283 2.5-7 2.5z" fill="#ffc107"/><path d="m7 13c-.717 0-7-.07-7-2.5v-4h14v4c0 2.43-6.283 2.5-7 2.5z" fill="#ffd54f"/><path d="m7 9c-.717 0-7-.07-7-2.5v-4h14v4c0 2.43-6.283 2.5-7 2.5z" fill="#ffc107"/><path d="m7 5c-.717 0-7-.07-7-2.5 0-2.43 6.283-2.5 7-2.5s7 .07 7 2.5-6.283 2.5-7 2.5z" fill="#ffd54f"/><path d="m0 10.5v4c0 2.43 6.283 2.5 7 2.5v-4c-.717 0-7-.07-7-2.5z" fill="#dea806"/><path d="m0 6.5v4c0 2.43 6.283 2.5 7 2.5v-4c-.717 0-7-.07-7-2.5z" fill="#deb945"/><path d="m0 2.5v4c0 2.43 6.283 2.5 7 2.5v-4c-.717 0-7-.07-7-2.5z" fill="#dea806"/><path d="m7 0c-.717 0-7 .07-7 2.5 0 2.43 6.283 2.5 7 2.5z" fill="#deb945"/></svg>