<svg id="color" enable-background="new 0 0 24 24" height="512" viewBox="0 0 24 24" width="512" xmlns="http://www.w3.org/2000/svg"><path d="m23.25 18.5h-2c-.414 0-.75-.336-.75-.75s.336-.75.75-.75h2c.414 0 .75.336.75.75s-.336.75-.75.75z"/><g fill="#607d8b"><path d="m20.519 15.5c-.26 0-.512-.134-.65-.375-.207-.359-.084-.817.274-1.024l1.732-1c.359-.208.818-.084 1.024.274.207.359.084.817-.274 1.024l-1.732 1c-.119.069-.247.101-.374.101z"/><path d="m20.519 20.5c.127 0 .256.032.374.101l1.732 1c.358.207.481.666.274 1.024-.206.359-.665.482-1.024.274l-1.732-1c-.358-.207-.481-.666-.274-1.024.138-.241.39-.375.65-.375z"/><path d="m23.25 18.5h-2c-.414 0-.75-.336-.75-.75s.336-.75.75-.75h2c.414 0 .75.336.75.75s-.336.75-.75.75z"/><path d="m12.75 18.5h-2c-.414 0-.75-.336-.75-.75s.336-.75.75-.75h2c.414 0 .75.336.75.75s-.336.75-.75.75z"/><path d="m13.481 15.5c-.127 0-.256-.032-.374-.101l-1.732-1c-.358-.207-.481-.665-.274-1.024.206-.359.664-.482 1.024-.274l1.732 1c.358.207.481.665.274 1.024-.138.24-.39.375-.65.375z"/><path d="m13.481 20.5c.26 0 .512.134.65.375.207.358.084.817-.274 1.024l-1.732 1c-.36.208-.817.084-1.024-.274-.207-.359-.084-.817.274-1.024l1.732-1c.119-.069.247-.101.374-.101z"/></g><path d="m18.675 14h-3.35c-.16 0-.315-.051-.444-.146-.569-.418-.881-.987-.881-1.604 0-1.262 1.317-2.25 3-2.25s3 .988 3 2.25c0 .617-.313 1.186-.881 1.604-.129.095-.284.146-.444.146z" fill="#f44336"/><path d="m22 18c0 3.313-2.239 6-5 6s-5-2.687-5-6 2.239-6 5-6 5 2.687 5 6z" fill="#f44336"/><path d="m12.069 17h-1.319c-.414 0-.75.336-.75.75s.336.75.75.75h1.267c-.011-.165-.017-.332-.017-.5 0-.341.024-.675.069-1z" fill="#546d79"/><path d="m11.749 12.999c-.259 0-.511.135-.649.376-.207.359-.084.817.274 1.024l1.24.716c.214-.468.479-.897.785-1.279l-1.275-.736c-.118-.068-.247-.101-.375-.101z" fill="#546d79"/><path d="m12.615 20.885-1.24.716c-.358.207-.481.665-.274 1.024.139.24.39.375.65.375.127 0 .256-.033.375-.101l1.275-.736c-.307-.381-.572-.81-.786-1.278z" fill="#546d79"/><path d="m17 10c-1.683 0-3 .988-3 2.25 0 .277.063.544.184.792.802-.658 1.771-1.042 2.816-1.042z" fill="#d43a2f"/><path d="m17 12c-1.045 0-2.014.384-2.816 1.042-.284.232-.546.499-.784.795-.306.381-.571.811-.785 1.279-.264.577-.452 1.212-.546 1.885-.045.324-.069.658-.069.999 0 .168.006.335.017.5.059.859.269 1.667.598 2.385.214.468.479.897.785 1.279.909 1.132 2.186 1.836 3.6 1.836z" fill="#d43a2f"/><path d="m0 10.5v4c0 2.43 6.28 2.5 7 2.5.15 0 .57 0 1.12-.03.21-.72.72-1.319 1.38-1.66-.49-.689-.63-1.59-.35-2.42.05-.18.12-.35.22-.51.36-.64.95-1.09 1.66-1.29.4-.1.8-.109 1.189-.04.061-.189.14-.37.24-.55z" fill="#ffc107"/><path d="m0 6.5v4c0 2.43 6.28 2.5 7 2.5.24 0 1.11-.01 2.15-.11.05-.18.12-.35.22-.51.36-.64.95-1.09 1.66-1.29.4-.1.8-.109 1.189-.04.061-.189.14-.37.24-.55.341-.67.871-1.23 1.541-1.66v-2.34z" fill="#ffd54f"/><path d="m7 9c-.717 0-7-.07-7-2.5v-4h14v4c0 2.43-6.283 2.5-7 2.5z" fill="#ffc107"/><path d="m7 5c-.717 0-7-.07-7-2.5 0-2.43 6.283-2.5 7-2.5s7 .07 7 2.5-6.283 2.5-7 2.5z" fill="#ffd54f"/><path d="m0 10.5v4c0 2.43 6.28 2.5 7 2.5v-4c-.72 0-7-.07-7-2.5z" fill="#dea806"/><path d="m0 6.5v4c0 2.43 6.28 2.5 7 2.5v-4c-.717 0-7-.07-7-2.5z" fill="#deb945"/><path d="m0 2.5v4c0 2.43 6.283 2.5 7 2.5v-4c-.717 0-7-.07-7-2.5z" fill="#dea806"/><path d="m7 0c-.717 0-7 .07-7 2.5 0 2.43 6.283 2.5 7 2.5z" fill="#deb945"/></svg>