<svg id="color" enable-background="new 0 0 24 24" height="512" viewBox="0 0 24 24" width="512" xmlns="http://www.w3.org/2000/svg"><path d="m23.491 11.826-5.25-1.786c-.156-.054-.326-.054-.482 0l-5.25 1.786c-.305.103-.509.388-.509.71v4.018c0 4.904 5.474 7.288 5.707 7.387.094.039.193.059.293.059s.199-.02.293-.06c.233-.099 5.707-2.482 5.707-7.386v-4.018c0-.322-.204-.607-.509-.71z" fill="#4caf50"/><path d="m21.286 15.618-2.75 3.5c-.168.214-.417.351-.688.377l-.098.005c-.237 0-.469-.084-.65-.241l-1.75-1.5c-.42-.359-.469-.991-.108-1.41.359-.419.991-.467 1.409-.108l.958.821 2.105-2.679c.341-.434.969-.511 1.404-.168.434.34.51.969.168 1.403z" fill="#fff"/><path d="m18 10c-.082 0-.163.013-.241.04l-5.25 1.786c-.305.103-.509.388-.509.71v4.018c0 4.904 5.474 7.288 5.707 7.387.094.039.193.059.293.059v-4.532c-.05.013-.101.022-.152.027l-.098.005c-.237 0-.469-.084-.65-.241l-1.75-1.5c-.42-.359-.469-.991-.108-1.41.198-.23.478-.349.76-.349.23 0 .461.079.649.24l.958.821.391-.498z" fill="#429846"/><path d="m16.001 16c-.282 0-.562.118-.76.349-.36.419-.312 1.051.108 1.41l1.75 1.5c.182.156.413.241.65.241l.098-.005c.052-.005.103-.014.152-.027v-2.905l-.392.498-.958-.821c-.187-.161-.418-.24-.648-.24z" fill="#dedede"/><path d="m10 12.54c0-.8.35-1.54.92-2.04h-10.92v4c0 2.43 6.28 2.5 7 2.5.3 0 1.61-.01 3.01-.21l-.01-.24z" fill="#ffc107"/><path d="m0 6.5v4c0 2.43 6.28 2.5 7 2.5.3 0 1.6-.01 3-.21v-.25c0-.8.35-1.54.92-2.04.271-.26.59-.45.95-.57l2.13-.72v-2.71z" fill="#ffd54f"/><path d="m7 9c-.717 0-7-.07-7-2.5v-4h14v4c0 2.43-6.283 2.5-7 2.5z" fill="#ffc107"/><path d="m7 5c-.717 0-7-.07-7-2.5s6.283-2.5 7-2.5 7 .07 7 2.5-6.283 2.5-7 2.5z" fill="#ffd54f"/><path d="m0 10.5v4c0 2.43 6.28 2.5 7 2.5v-4c-.72 0-7-.07-7-2.5z" fill="#dea806"/><path d="m0 6.5v4c0 2.43 6.28 2.5 7 2.5v-4c-.717 0-7-.07-7-2.5z" fill="#deb945"/><path d="m0 2.5v4c0 2.43 6.283 2.5 7 2.5v-4c-.717 0-7-.07-7-2.5z" fill="#dea806"/><path d="m7 0c-.717 0-7 .07-7 2.5 0 2.43 6.283 2.5 7 2.5z" fill="#deb945"/></svg>