<svg id="color" enable-background="new 0 0 24 24" height="512" viewBox="0 0 24 24" width="512" xmlns="http://www.w3.org/2000/svg"><path d="m23.713 14.91-3.5-2.75c-.226-.177-.534-.21-.791-.084-.258.125-.422.387-.422.674v1.84c-2.833.479-5 2.942-5 5.91v2.5c0 .552.448 1 1 1s1-.448 1-1v-2.5c0-1.858 1.28-3.411 3-3.858v1.608c0 .287.164.549.422.674.104.051.216.076.328.076.165 0 .329-.054.463-.16l3.5-2.75c.182-.142.287-.36.287-.59s-.105-.448-.287-.59z" fill="#4caf50"/><path d="m23.981 15.333h-7.018c-1.771 1.043-2.963 2.967-2.963 5.167v2.5c0 .552.448 1 1 1s1-.448 1-1v-2.5c0-1.858 1.28-3.411 3-3.858v1.608c0 .287.164.549.422.674.104.051.216.076.328.076.165 0 .329-.054.463-.16l3.5-2.75c.182-.142.287-.36.287-.59 0-.057-.006-.112-.019-.167z" fill="#429846"/><path d="m7 17c-.717 0-7-.07-7-2.5v-4h14v4c0 2.43-6.283 2.5-7 2.5z" fill="#ffc107"/><path d="m7 13c-.717 0-7-.07-7-2.5v-4h14v4c0 2.43-6.283 2.5-7 2.5z" fill="#ffd54f"/><path d="m7 9c-.717 0-7-.07-7-2.5v-4h14v4c0 2.43-6.283 2.5-7 2.5z" fill="#ffc107"/><path d="m7 5c-.717 0-7-.07-7-2.5 0-2.43 6.283-2.5 7-2.5s7 .07 7 2.5-6.283 2.5-7 2.5z" fill="#ffd54f"/><path d="m0 10.5v4c0 2.43 6.283 2.5 7 2.5v-4c-.717 0-7-.07-7-2.5z" fill="#dea806"/><path d="m0 6.5v4c0 2.43 6.283 2.5 7 2.5v-4c-.717 0-7-.07-7-2.5z" fill="#deb945"/><path d="m0 2.5v4c0 2.43 6.283 2.5 7 2.5v-4c-.717 0-7-.07-7-2.5z" fill="#dea806"/><path d="m7 0c-.717 0-7 .07-7 2.5 0 2.43 6.283 2.5 7 2.5z" fill="#deb945"/></svg>