<svg id="color" enable-background="new 0 0 24 24" height="512" viewBox="0 0 24 24" width="512" xmlns="http://www.w3.org/2000/svg"><path d="m22 15.004v-13.004h1c.552 0 1-.447 1-1s-.448-1-1-1h-8c-.552 0-1 .447-1 1s.448 1 1 1h1v13.004c-1.247.934-2 2.416-2 3.996 0 2.757 2.243 5 5 5s5-2.243 5-5c0-1.58-.753-3.063-2-3.996z" fill="#eceff1"/><path d="m19.75 17.148v-11.398c0-.414-.336-.75-.75-.75s-.75.336-.75.75v11.398c-.732.297-1.25 1.013-1.25 1.852 0 1.105.896 2 2 2s2-.895 2-2c0-.839-.518-1.555-1.25-1.852z" fill="#f44336"/><path d="m19 0h-4c-.552 0-1 .447-1 1s.448 1 1 1h1v13.004c-1.247.934-2 2.416-2 3.996 0 2.757 2.243 5 5 5v-3c-1.105 0-2-.895-2-2 0-.839.518-1.555 1.25-1.852v-11.398c0-.414.336-.75.75-.75z" fill="#cdd0d2"/><path d="m19 5c-.414 0-.75.336-.75.75v11.398c-.732.297-1.25 1.013-1.25 1.852 0 1.105.896 2 2 2z" fill="#d43a2f"/><path d="m12.6 21.83c-.31-.69-.5-1.43-.57-2.21v-.12h-12.03v2c0 2.38 7.5 2.5 9 2.5.72 0 2.82-.03 4.81-.32-.51-.55-.91-1.17-1.21-1.85z" fill="#ffc107"/><path d="m12.03 19.62v-.12c-.02-.17-.03-.33-.03-.5 0-.63.09-1.26.26-1.86-1.44-.12-2.73-.14-3.26-.14-.87 0-3.74.04-6 .53-1.66.359-3 .96-3 1.97 0 2.38 7.5 2.5 9 2.5.57 0 2.02-.02 3.6-.17-.31-.69-.5-1.43-.57-2.21z" fill="#ffd54f"/><path d="m14 14.02v.091c-.35.359-.66.75-.92 1.17-.37.569-.64 1.2-.82 1.859-.17.6-.26 1.23-.26 1.86 0 .17.01.33.03.5v.12c-2.16.54-4.33.5-6.49-.12-.53-.15-1.05-.33-1.58-.55-.57-.23-.96-.78-.96-1.4v-3.53z" fill="#607d8b"/><path d="m0 11v2c0 1.01 1.34 1.61 3 1.97 2.26.49 5.13.53 6 .53.63 0 2.33-.02 4.08-.22.26-.42.57-.81.92-1.17v-3.11z" fill="#ffc107"/><path d="m9 8.5c-.87 0-3.74.04-6 .53-1.66.36-3 .96-3 1.97 0 2.38 7.5 2.5 9 2.5.74 0 2.96-.03 5-.35v-4.3c-2.04-.32-4.26-.35-5-.35z" fill="#ffd54f"/><path d="m14 5.52v4.95c-.51.21-1.02.391-1.53.53-2.31.66-4.62.67-6.93 0-.53-.15-1.05-.33-1.58-.55-.57-.23-.96-.78-.96-1.4v-3.53z" fill="#607d8b"/><path d="m12.41 2.5h-12.41v2c0 1.01 1.34 1.61 3 1.97 2.26.49 5.13.53 6 .53.74 0 2.96-.03 5-.35v-2.82c-.67-.24-1.24-.71-1.59-1.33z" fill="#ffc107"/><path d="m12.41 2.5c-.26-.44-.41-.95-.41-1.5 0-.3.05-.59.13-.87-1.38-.12-2.61-.13-3.13-.13-1.5 0-9 .12-9 2.5s7.5 2.5 9 2.5c.74 0 2.96-.03 5-.35v-.82c-.67-.24-1.24-.71-1.59-1.33z" fill="#ffd54f"/><path d="m0 19.5v2c0 2.38 7.5 2.5 9 2.5h.083v-2c-.029 0-.057 0-.083 0-1.5 0-9-.12-9-2.5z" fill="#dea806"/><path d="m3 17.53c-1.66.359-3 .96-3 1.97 0 2.38 7.5 2.5 9 2.5h.083v-2.003c-.025 0-.049 0-.074 0-1.157 0-2.315-.166-3.469-.497-.53-.15-1.05-.33-1.58-.55-.57-.23-.96-.78-.96-1.4z" fill="#deb945"/><path d="m3 14.97v2.561.02c0 .62.39 1.17.96 1.4.53.22 1.05.399 1.58.55 1.155.331 2.312.497 3.469.497h.074v-4.498c-.03 0-.057 0-.083 0-.87 0-3.74-.04-6-.53z" fill="#546d79"/><path d="m0 11v2c0 1.01 1.34 1.61 3 1.97 2.26.49 5.13.53 6 .53h.083v-2c-.03 0-.057 0-.083 0-1.5 0-9-.12-9-2.5z" fill="#dea806"/><path d="m3 9.03c-1.66.36-3 .96-3 1.97 0 2.38 7.5 2.5 9 2.5h.083v-2.001c-.03 0-.061 0-.091 0-1.151 0-2.301-.165-3.452-.499-.53-.15-1.05-.33-1.58-.55-.57-.23-.96-.78-.96-1.4z" fill="#deb945"/><path d="m3 6.47v2.56.02c0 .62.39 1.17.96 1.4.53.22 1.05.4 1.58.55 1.151.334 2.301.499 3.452.499h.091v-4.499c-.029 0-.057 0-.083 0-.87 0-3.74-.04-6-.53z" fill="#546d79"/><path d="m0 2.5v2c0 1.01 1.34 1.61 3 1.97 2.26.49 5.13.53 6 .53h.083v-2c-.029 0-.057 0-.083 0-1.5 0-9-.12-9-2.5z" fill="#dea806"/><path d="m9 0c-1.5 0-9 .12-9 2.5 0 2.38 7.5 2.5 9 2.5h.083v-5c-.029 0-.057 0-.083 0z" fill="#deb945"/></svg>