<svg id="color" enable-background="new 0 0 24 24" height="512" viewBox="0 0 24 24" width="512" xmlns="http://www.w3.org/2000/svg"><path d="m17.5 11c-3.584 0-6.5 2.916-6.5 6.5s2.916 6.5 6.5 6.5 6.5-2.916 6.5-6.5-2.916-6.5-6.5-6.5z" fill="#ffc107"/><path d="m18.5 21c0 .552-.447 1-1 1s-1-.448-1-1v-3.5c0-.552.447-1 1-1s1 .448 1 1z" fill="#fff"/><path d="m17.5 15c-.553 0-1-.448-1-1s.447-1 1-1 1 .448 1 1-.447 1-1 1z" fill="#fff"/><path d="m17.46 11c-3.566.022-6.46 2.929-6.46 6.5s2.894 6.478 6.46 6.5v-2.001c-.534-.021-.96-.46-.96-.999v-3.5c0-.539.426-.978.96-.999v-1.502c-.534-.021-.96-.46-.96-.999s.426-.978.96-.999z" fill="#dea806"/><path d="m17.46 16.501c-.534.021-.96.46-.96.999v3.5c0 .539.426.978.96.999z" fill="#dedede"/><path d="m17.46 13.001c-.534.021-.96.46-.96.999s.426.978.96.999z" fill="#dedede"/><path d="m0 10.5v4c0 2.43 6.28 2.5 7 2.5.23 0 1.04-.01 2.02-.1.11-1.54.631-2.97 1.45-4.18.601-.87 1.34-1.62 2.21-2.22z" fill="#ffc107"/><path d="m0 6.5v4c0 2.43 6.28 2.5 7 2.5.34 0 1.9-.02 3.47-.28.601-.87 1.34-1.62 2.21-2.22.41-.29.851-.54 1.32-.74v-3.26z" fill="#ffd54f"/><path d="m7 9c-.717 0-7-.07-7-2.5v-4h14v4c0 2.43-6.283 2.5-7 2.5z" fill="#ffc107"/><path d="m7 5c-.717 0-7-.07-7-2.5s6.283-2.5 7-2.5 7 .07 7 2.5-6.283 2.5-7 2.5z" fill="#ffd54f"/><path d="m0 10.5v4c0 2.43 6.28 2.5 7 2.5v-4c-.72 0-7-.07-7-2.5z" fill="#dea806"/><path d="m0 6.5v4c0 2.43 6.28 2.5 7 2.5v-4c-.717 0-7-.07-7-2.5z" fill="#deb945"/><path d="m0 2.5v4c0 2.43 6.283 2.5 7 2.5v-4c-.717 0-7-.07-7-2.5z" fill="#dea806"/><path d="m7 0c-.717 0-7 .07-7 2.5 0 2.43 6.283 2.5 7 2.5z" fill="#deb945"/></svg>