<svg id="color" enable-background="new 0 0 24 24" height="512" viewBox="0 0 24 24" width="512" xmlns="http://www.w3.org/2000/svg"><path d="m21 18c-1.302 0-2.401.839-2.815 2h-5.685c-.827 0-1.5.673-1.5 1.5v1.5c0 .553.447 1 1 1s1-.447 1-1v-1h5.185c.414 1.161 1.514 2 2.815 2 1.654 0 3-1.346 3-3s-1.346-3-3-3zm0 4c-.552 0-1-.449-1-1s.448-1 1-1 1 .449 1 1-.448 1-1 1z" fill="#ffc107"/><path d="m24 21h-2c0 .551-.448 1-1 1s-1-.449-1-1h-8.914c-.056.156-.086.325-.086.5v1.5c0 .553.447 1 1 1s1-.447 1-1v-1h5.185c.414 1.161 1.514 2 2.815 2 1.654 0 3-1.346 3-3z" fill="#dea806"/><path d="m7 17c-.717 0-7-.07-7-2.5v-4h14v4c0 2.43-6.283 2.5-7 2.5z" fill="#ffc107"/><path d="m7 13c-.717 0-7-.07-7-2.5v-4h14v4c0 2.43-6.283 2.5-7 2.5z" fill="#ffd54f"/><path d="m7 9c-.717 0-7-.07-7-2.5v-4h14v4c0 2.43-6.283 2.5-7 2.5z" fill="#ffc107"/><path d="m7 5c-.717 0-7-.07-7-2.5 0-2.43 6.283-2.5 7-2.5s7 .07 7 2.5-6.283 2.5-7 2.5z" fill="#ffd54f"/><path d="m0 10.5v4c0 2.43 6.283 2.5 7 2.5v-4c-.717 0-7-.07-7-2.5z" fill="#dea806"/><path d="m0 6.5v4c0 2.43 6.283 2.5 7 2.5v-4c-.717 0-7-.07-7-2.5z" fill="#deb945"/><path d="m0 2.5v4c0 2.43 6.283 2.5 7 2.5v-4c-.717 0-7-.07-7-2.5z" fill="#dea806"/><path d="m7 0c-.717 0-7 .07-7 2.5 0 2.43 6.283 2.5 7 2.5z" fill="#deb945"/></svg>