<svg id="color" enable-background="new 0 0 24 24" height="512" viewBox="0 0 24 24" width="512" xmlns="http://www.w3.org/2000/svg"><path d="m18 12c-1.105 0-2.151.308-3.074.865l-.646-.645c-.214-.215-.537-.278-.817-.163-.28.116-.463.39-.463.693v2.5c0 .414.336.75.75.75h2.5c.304 0 .577-.183.693-.463.115-.28.052-.603-.163-.817l-.378-.377c.497-.218 1.035-.343 1.598-.343 2.206 0 4 1.794 4 4s-1.794 4-4 4c-1.901 0-3.546-1.343-3.908-3.192-.106-.542-.634-.896-1.174-.789-.542.106-.896.632-.789 1.174.547 2.785 3.016 4.807 5.871 4.807 3.309 0 6-2.691 6-6s-2.691-6-6-6z" fill="#4caf50"/><path d="m13.112 17.999c-.064 0-.129.006-.194.019-.542.106-.896.632-.789 1.174.547 2.786 3.016 4.808 5.871 4.808v-2c-1.901 0-3.546-1.343-3.908-3.192-.094-.477-.513-.809-.98-.809zm4.888-5.999c-1.105 0-2.151.308-3.074.865l-.646-.645c-.143-.144-.335-.22-.53-.22-.097 0-.194.019-.287.057-.28.116-.463.39-.463.693v2.5c0 .414.336.75.75.75h2.5c.304 0 .577-.183.693-.463.115-.28.052-.603-.163-.817l-.378-.377c.497-.218 1.035-.343 1.598-.343z" fill="#429846"/><path d="m11.01 12.61c.04-.87.48-1.64 1.181-2.11h-12.191v4c0 2.43 6.28 2.5 7 2.5.4 0 2.53-.02 4.34-.46-.21-.39-.34-.83-.34-1.29v-2.5z" fill="#ffc107"/><path d="m0 6.5v4c0 2.43 6.28 2.5 7 2.5.38 0 2.28-.02 4.01-.39.04-.87.48-1.64 1.181-2.11.149-.12.329-.21.51-.29.42-.17.87-.24 1.3-.19v-3.52z" fill="#ffd54f"/><path d="m7 9c-.717 0-7-.07-7-2.5v-4h14v4c0 2.43-6.283 2.5-7 2.5z" fill="#ffc107"/><path d="m7 5c-.717 0-7-.07-7-2.5s6.283-2.5 7-2.5 7 .07 7 2.5-6.283 2.5-7 2.5z" fill="#ffd54f"/><path d="m0 10.5v4c0 2.43 6.28 2.5 7 2.5v-4c-.72 0-7-.07-7-2.5z" fill="#dea806"/><path d="m0 6.5v4c0 2.43 6.28 2.5 7 2.5v-4c-.717 0-7-.07-7-2.5z" fill="#deb945"/><path d="m0 2.5v4c0 2.43 6.283 2.5 7 2.5v-4c-.717 0-7-.07-7-2.5z" fill="#dea806"/><path d="m7 0c-.717 0-7 .07-7 2.5 0 2.43 6.283 2.5 7 2.5z" fill="#deb945"/></svg>