<svg id="color" enable-background="new 0 0 24 24" height="512" viewBox="0 0 24 24" width="512" xmlns="http://www.w3.org/2000/svg"><path d="m19 11c-2.757 0-5 2.271-5 5.063 0 3.853 4.328 7.6 4.512 7.758.141.118.314.179.488.179s.347-.061.488-.18c.184-.158 4.512-3.905 4.512-7.757 0-2.792-2.243-5.063-5-5.063z" fill="#f44336"/><path d="m19 18c-1.103 0-2-.896-2-2s.897-2 2-2 2 .896 2 2-.897 2-2 2z" fill="#fff"/><path d="m19 11c-2.757 0-5 2.271-5 5.063 0 3.853 4.328 7.6 4.512 7.758.141.118.314.179.488.179v-6c-1.103 0-2-.896-2-2s.897-2 2-2z" fill="#d43a2f"/><path d="m19 14c-1.103 0-2 .896-2 2s.897 2 2 2z" fill="#dedede"/><path d="m14 10.5h-14v4c0 2.43 6.28 2.5 7 2.5.45 0 3.1-.03 5.01-.65-.01-.1-.01-.19-.01-.29 0-1.909.76-3.66 2-4.93z" fill="#ffc107"/><path d="m7 13c-.717 0-7-.07-7-2.5v-4h14v4c0 2.43-6.283 2.5-7 2.5z" fill="#ffd54f"/><path d="m7 9c-.717 0-7-.07-7-2.5v-4h14v4c0 2.43-6.283 2.5-7 2.5z" fill="#ffc107"/><path d="m7 5c-.717 0-7-.07-7-2.5 0-2.43 6.283-2.5 7-2.5s7 .07 7 2.5-6.283 2.5-7 2.5z" fill="#ffd54f"/><path d="m0 10.5v4c0 2.43 6.28 2.5 7 2.5v-4c-.717 0-7-.07-7-2.5z" fill="#dea806"/><path d="m0 6.5v4c0 2.43 6.283 2.5 7 2.5v-4c-.717 0-7-.07-7-2.5z" fill="#deb945"/><path d="m0 2.5v4c0 2.43 6.283 2.5 7 2.5v-4c-.717 0-7-.07-7-2.5z" fill="#dea806"/><path d="m7 0c-.717 0-7 .07-7 2.5 0 2.43 6.283 2.5 7 2.5z" fill="#deb945"/></svg>