<svg id="color" enable-background="new 0 0 24 24" height="512" viewBox="0 0 24 24" width="512" xmlns="http://www.w3.org/2000/svg"><path d="m24 16.03v7.22c0 .41-.34.75-.75.75h-11.5c-.41 0-.75-.34-.75-.75v-7.22l1.5.939 4.6 2.91c.12.08.26.12.4.12s.28-.04.4-.12l4.6-2.899z" fill="#2196f3"/><path d="m24 15.75v.28l-1.5.95-4.6 2.899c-.12.081-.26.121-.4.121s-.28-.04-.4-.12l-4.6-2.91-1.5-.94v-.28c0-.41.34-.75.75-.75h11.5c.41 0 .75.34.75.75z" fill="#64b5f6"/><path d="m11 16.03v7.22c0 .41.34.75.75.75h5.75v-4c-.14 0-.28-.04-.4-.12l-4.6-2.91z" fill="#1d83d4"/><path d="m17.5 15h-5.75c-.41 0-.75.34-.75.75v.28l1.5.939 4.6 2.91c.12.08.26.12.4.12z" fill="#579ed6"/><path d="m0 10.5v4c0 2.43 6.28 2.5 7 2.5.23 0 1.02-.01 2-.1v-1.15c0-1.52 1.23-2.75 2.75-2.75h2.25v-2.5z" fill="#ffc107"/><path d="m7 13c-.717 0-7-.07-7-2.5v-4h14v4c0 2.43-6.283 2.5-7 2.5z" fill="#ffd54f"/><path d="m7 9c-.717 0-7-.07-7-2.5v-4h14v4c0 2.43-6.283 2.5-7 2.5z" fill="#ffc107"/><path d="m7 5c-.717 0-7-.07-7-2.5 0-2.43 6.283-2.5 7-2.5s7 .07 7 2.5-6.283 2.5-7 2.5z" fill="#ffd54f"/><path d="m0 10.5v4c0 2.43 6.28 2.5 7 2.5v-4c-.717 0-7-.07-7-2.5z" fill="#dea806"/><path d="m0 6.5v4c0 2.43 6.283 2.5 7 2.5v-4c-.717 0-7-.07-7-2.5z" fill="#deb945"/><path d="m0 2.5v4c0 2.43 6.283 2.5 7 2.5v-4c-.717 0-7-.07-7-2.5z" fill="#dea806"/><path d="m7 0c-.717 0-7 .07-7 2.5 0 2.43 6.283 2.5 7 2.5z" fill="#deb945"/></svg>