<svg id="color" enable-background="new 0 0 24 24" height="512" viewBox="0 0 24 24" width="512" xmlns="http://www.w3.org/2000/svg"><path d="m24 14c0-.29-.126-.565-.345-.756-.218-.189-.512-.275-.797-.234l-7 1c-.492.07-.858.492-.858.99v4.541c-.419-.061-.869-.049-1.33.07-.831.214-1.52.705-1.889 1.346-.275.476-.351 1.008-.214 1.498.265.953 1.237 1.547 2.384 1.547.285 0 .581-.037.879-.113.831-.214 1.52-.705 1.889-1.346.191-.331.279-.689.273-1.043h.008v-5.633l5-.715v3.389c-.419-.061-.87-.049-1.33.07-.831.214-1.52.705-1.889 1.346-.275.476-.351 1.008-.214 1.498.265.953 1.237 1.547 2.384 1.547.285 0 .581-.037.879-.113.831-.214 1.52-.705 1.889-1.346.191-.331.279-.689.273-1.043h.008z" fill="#2196f3"/><path d="m18 13.704-2.142.306c-.492.07-.858.492-.858.99v4.541c-.161-.023-.326-.036-.494-.036-.271 0-.551.033-.836.106-.831.214-1.52.705-1.889 1.346-.275.476-.351 1.008-.214 1.498.256.921 1.173 1.507 2.269 1.545h.229c.25-.009.506-.045.764-.111.831-.214 1.52-.705 1.889-1.346.191-.331.279-.689.273-1.043h.009v-5.633l1-.143z" fill="#1d83d4"/><path d="m0 10.5v4c0 2.43 6.28 2.5 7 2.5.54 0 4.19-.04 6-1.07v-.93c0-.87.38-1.67 1-2.22v-2.28z" fill="#ffc107"/><path d="m7 13c-.717 0-7-.07-7-2.5v-4h14v4c0 2.43-6.283 2.5-7 2.5z" fill="#ffd54f"/><path d="m7 9c-.717 0-7-.07-7-2.5v-4h14v4c0 2.43-6.283 2.5-7 2.5z" fill="#ffc107"/><path d="m7 5c-.717 0-7-.07-7-2.5 0-2.43 6.283-2.5 7-2.5s7 .07 7 2.5-6.283 2.5-7 2.5z" fill="#ffd54f"/><path d="m0 10.5v4c0 2.43 6.28 2.5 7 2.5v-4c-.717 0-7-.07-7-2.5z" fill="#dea806"/><path d="m0 6.5v4c0 2.43 6.283 2.5 7 2.5v-4c-.717 0-7-.07-7-2.5z" fill="#deb945"/><path d="m0 2.5v4c0 2.43 6.283 2.5 7 2.5v-4c-.717 0-7-.07-7-2.5z" fill="#dea806"/><path d="m7 0c-.717 0-7 .07-7 2.5 0 2.43 6.283 2.5 7 2.5z" fill="#deb945"/></svg>