<svg id="color" enable-background="new 0 0 24 24" height="512" viewBox="0 0 24 24" width="512" xmlns="http://www.w3.org/2000/svg"><path d="m20 19c-1.103 0-2-.896-2-2s.897-2 2-2 2 .896 2 2-.897 2-2 2z" fill="#2196f3"/><path d="m23.25 24h-6.5c-.414 0-.75-.336-.75-.75v-.5c0-1.517 1.233-2.75 2.75-2.75h2.5c1.517 0 2.75 1.233 2.75 2.75v.5c0 .414-.336.75-.75.75z" fill="#2196f3"/><path d="m20 15c-1.103 0-2 .896-2 2s.897 2 2 2z" fill="#1d83d4"/><path d="m20 20h-1.25c-1.517 0-2.75 1.233-2.75 2.75v.5c0 .414.336.75.75.75h3.25z" fill="#1d83d4"/><path d="m7 17c-.717 0-7-.07-7-2.5v-4h14v4c0 2.43-6.283 2.5-7 2.5z" fill="#ffc107"/><path d="m7 13c-.717 0-7-.07-7-2.5v-4h14v4c0 2.43-6.283 2.5-7 2.5z" fill="#ffd54f"/><path d="m7 9c-.717 0-7-.07-7-2.5v-4h14v4c0 2.43-6.283 2.5-7 2.5z" fill="#ffc107"/><path d="m7 5c-.717 0-7-.07-7-2.5 0-2.43 6.283-2.5 7-2.5s7 .07 7 2.5-6.283 2.5-7 2.5z" fill="#ffd54f"/><path d="m0 10.5v4c0 2.43 6.283 2.5 7 2.5v-4c-.717 0-7-.07-7-2.5z" fill="#dea806"/><path d="m0 6.5v4c0 2.43 6.283 2.5 7 2.5v-4c-.717 0-7-.07-7-2.5z" fill="#deb945"/><path d="m0 2.5v4c0 2.43 6.283 2.5 7 2.5v-4c-.717 0-7-.07-7-2.5z" fill="#dea806"/><path d="m7 0c-.717 0-7 .07-7 2.5 0 2.43 6.283 2.5 7 2.5z" fill="#deb945"/></svg>