<svg id="color" enable-background="new 0 0 24 24" height="512" viewBox="0 0 24 24" width="512" xmlns="http://www.w3.org/2000/svg"><path d="m7 17c-.717 0-7-.07-7-2.5v-4h14v4c0 2.43-6.283 2.5-7 2.5z" fill="#ffc107"/><path d="m7 13c-.717 0-7-.07-7-2.5v-4h14v4c0 2.43-6.283 2.5-7 2.5z" fill="#ffd54f"/><path d="m7 9c-.717 0-7-.07-7-2.5v-4h14v4c0 2.43-6.283 2.5-7 2.5z" fill="#ffc107"/><path d="m7 5c-.717 0-7-.07-7-2.5 0-2.43 6.283-2.5 7-2.5s7 .07 7 2.5-6.283 2.5-7 2.5z" fill="#ffd54f"/><path d="m0 10.5v4c0 2.43 6.283 2.5 7 2.5.043 0 .105 0 .185-.001v-4c-.08.001-.142.001-.185.001-.717 0-7-.07-7-2.5z" fill="#dea806"/><path d="m0 6.5v4c0 2.43 6.283 2.5 7 2.5.043 0 .105 0 .185-.001v-4c-.08.001-.142.001-.185.001-.717 0-7-.07-7-2.5z" fill="#deb945"/><path d="m0 2.5v4c0 2.43 6.283 2.5 7 2.5.043 0 .105 0 .185-.001v-4c-.08.001-.142.001-.185.001-.717 0-7-.07-7-2.5z" fill="#dea806"/><path d="m7 0c-.717 0-7 .07-7 2.5 0 2.43 6.283 2.5 7 2.5.043 0 .105 0 .185-.001v-4.998c-.08-.001-.142-.001-.185-.001z" fill="#deb945"/><path d="m22.25 24h-6.111c-.439 0-.859-.164-1.183-.46l-1.909-1.75c-.361-.331-.567-.801-.567-1.29s.207-.959.567-1.29l1.909-1.75c.324-.296.744-.46 1.183-.46h6.111c.965 0 1.75.785 1.75 1.75v3.5c0 .965-.785 1.75-1.75 1.75z" fill="#f44336"/><path d="m24 20.5h-11.52c0 .489.207.959.567 1.29l1.909 1.75c.324.296.744.46 1.183.46h6.111c.965 0 1.75-.785 1.75-1.75z" fill="#d43a2f"/></svg>