<svg id="color" enable-background="new 0 0 24 24" height="512" viewBox="0 0 24 24" width="512" xmlns="http://www.w3.org/2000/svg"><path d="m23.707 22.293-2.54-2.54c.524-.791.833-1.735.833-2.753 0-2.757-2.243-5-5-5s-5 2.243-5 5 2.243 5 5 5c1.018 0 1.962-.309 2.753-.833l2.54 2.54c.391.391 1.023.391 1.414 0s.391-1.023 0-1.414zm-6.707-2.293c-1.654 0-3-1.346-3-3s1.346-3 3-3 3 1.346 3 3-1.346 3-3 3z" fill="#607d8b"/><path d="m20 17c0 1.657-1.343 3-3 3s-3-1.343-3-3 1.343-3 3-3 3 1.343 3 3z" fill="#fff"/><path d="m13.597 13.34c-.982.913-1.597 2.216-1.597 3.66 0 2.757 2.243 5 5 5 1.018 0 1.962-.309 2.753-.833l2.54 2.54c.195.195.451.293.707.293s.512-.098.707-.293c.044-.044.083-.091.117-.14l-4.578-4.578c-.55.62-1.352 1.011-2.246 1.011-1.657 0-3-1.343-3-3 0-.894.391-1.696 1.011-2.246z" fill="#546d79"/><path d="m15.011 14.754c-.62.55-1.011 1.352-1.011 2.246 0 1.657 1.343 3 3 3 .894 0 1.696-.391 2.246-1.011z" fill="#dedede"/><path d="m0 10.5v4c0 2.43 6.28 2.5 7 2.5.3 0 1.61-.01 3.01-.21.04-1.66.67-3.17 1.68-4.34.63-.74 1.41-1.34 2.29-1.76l.02-.01v-.18z" fill="#ffc107"/><path d="m0 6.5v4c0 2.43 6.28 2.5 7 2.5.43 0 2.82-.02 4.69-.55.63-.74 1.41-1.34 2.29-1.76l.02-.19v-4z" fill="#ffd54f"/><path d="m7 9c-.717 0-7-.07-7-2.5v-4h14v4c0 2.43-6.283 2.5-7 2.5z" fill="#ffc107"/><path d="m7 5c-.717 0-7-.07-7-2.5 0-2.43 6.283-2.5 7-2.5s7 .07 7 2.5-6.283 2.5-7 2.5z" fill="#ffd54f"/><path d="m0 10.5v4c0 2.43 6.28 2.5 7 2.5v-4c-.72 0-7-.07-7-2.5z" fill="#dea806"/><path d="m0 6.5v4c0 2.43 6.28 2.5 7 2.5v-4c-.717 0-7-.07-7-2.5z" fill="#deb945"/><path d="m0 2.5v4c0 2.43 6.283 2.5 7 2.5v-4c-.717 0-7-.07-7-2.5z" fill="#dea806"/><path d="m7 0c-.717 0-7 .07-7 2.5 0 2.43 6.283 2.5 7 2.5z" fill="#deb945"/></svg>