<svg id="color" enable-background="new 0 0 24 24" height="512" viewBox="0 0 24 24" width="512" xmlns="http://www.w3.org/2000/svg"><path d="m22.703 19.469c.02-.155.047-.309.047-.469 0-.161-.027-.314-.047-.469l.9-.682c.201-.152.257-.431.131-.649l-.809-1.4c-.126-.218-.395-.309-.627-.211l-1.037.438c-.253-.192-.522-.363-.819-.487l-.138-1.101c-.031-.251-.243-.439-.495-.439h-1.617c-.252 0-.465.188-.496.438l-.138 1.101c-.297.124-.566.295-.819.487l-1.037-.438c-.232-.098-.501-.007-.627.211l-.809 1.4c-.126.218-.07.497.131.649l.9.682c-.02.155-.047.309-.047.469 0 .161.027.314.047.469l-.9.682c-.201.152-.257.431-.131.649l.809 1.4c.126.218.395.309.627.211l1.037-.437c.253.192.522.363.819.487l.138 1.101c.031.251.243.439.495.439h1.617c.252 0 .465-.188.496-.438l.138-1.101c.297-.124.566-.295.819-.487l1.037.437c.232.098.501.007.627-.211l.809-1.4c.126-.218.07-.497-.131-.649z" fill="#2196f3"/><path d="m19 21c-1.104 0-2-.896-2-2 0-1.105.895-2 2-2 1.104 0 2 .895 2 2 0 1.104-.896 2-2 2z" fill="#fff"/><path d="m19 14h-.809c-.252 0-.465.188-.496.438l-.138 1.101c-.297.124-.566.295-.819.487l-1.037-.438c-.063-.027-.129-.039-.194-.039-.174 0-.341.091-.433.25l-.809 1.4c-.126.218-.07.497.131.649l.9.682c-.02.155-.047.309-.047.469 0 .161.027.314.047.469l-.9.682c-.201.152-.257.431-.131.649l.809 1.4c.092.159.259.25.433.25.065 0 .131-.013.194-.039l1.037-.437c.253.192.522.363.819.487l.138 1.101c.032.251.244.439.496.439h.809v-3c-1.104 0-2-.896-2-2 0-1.105.895-2 2-2z" fill="#1d83d4"/><path d="m19 17c-1.104 0-2 .895-2 2 0 1.104.895 2 2 2z" fill="#dedede"/><path d="m0 10.5v4c0 2.43 6.28 2.5 7 2.5.5 0 3.67-.03 5.57-.86l.77-1.34c.17-.3.4-.55.66-.74v-3.56z" fill="#ffc107"/><path d="m7 13c-.717 0-7-.07-7-2.5v-4h14v4c0 2.43-6.283 2.5-7 2.5z" fill="#ffd54f"/><path d="m7 9c-.717 0-7-.07-7-2.5v-4h14v4c0 2.43-6.283 2.5-7 2.5z" fill="#ffc107"/><path d="m7 5c-.717 0-7-.07-7-2.5 0-2.43 6.283-2.5 7-2.5s7 .07 7 2.5-6.283 2.5-7 2.5z" fill="#ffd54f"/><path d="m0 10.5v4c0 2.43 6.28 2.5 7 2.5v-4c-.717 0-7-.07-7-2.5z" fill="#dea806"/><path d="m0 6.5v4c0 2.43 6.283 2.5 7 2.5v-4c-.717 0-7-.07-7-2.5z" fill="#deb945"/><path d="m0 2.5v4c0 2.43 6.283 2.5 7 2.5v-4c-.717 0-7-.07-7-2.5z" fill="#dea806"/><path d="m7 0c-.717 0-7 .07-7 2.5 0 2.43 6.283 2.5 7 2.5z" fill="#deb945"/></svg>