<svg id="color" enable-background="new 0 0 24 24" height="512" viewBox="0 0 24 24" width="512" xmlns="http://www.w3.org/2000/svg"><path d="m20.55 22.031-4.855-2.739.737-1.307 4.854 2.739z" fill="#607d8b"/><path d="m16.101 18.572-.406.72 4.855 2.739.378-.672z" fill="#546d79"/><path d="m16.452 18.03-.742-1.302 4.836-2.757.742 1.302z" fill="#607d8b"/><path d="m20.546 13.971-4.836 2.757.345.606 4.896-2.653z" fill="#546d79"/><path d="m15 20c-1.103 0-2-.897-2-2s.897-2 2-2 2 .897 2 2-.897 2-2 2z" fill="#2196f3"/><path d="m15 16c-1.103 0-2 .897-2 2s.897 2 2 2z" fill="#1d83d4"/><path d="m0 10.5v4c0 2.43 6.28 2.5 7 2.5.4 0 2.48-.02 4.28-.44.45-1.2 1.46-2.11 2.72-2.43v-3.63z" fill="#ffc107"/><path d="m7 13c-.717 0-7-.07-7-2.5v-4h14v4c0 2.43-6.283 2.5-7 2.5z" fill="#ffd54f"/><path d="m7 9c-.717 0-7-.07-7-2.5v-4h14v4c0 2.43-6.283 2.5-7 2.5z" fill="#ffc107"/><path d="m7 5c-.717 0-7-.07-7-2.5 0-2.43 6.283-2.5 7-2.5s7 .07 7 2.5-6.283 2.5-7 2.5z" fill="#ffd54f"/><path d="m0 10.5v4c0 2.43 6.28 2.5 7 2.5v-4c-.717 0-7-.07-7-2.5z" fill="#dea806"/><path d="m0 6.5v4c0 2.43 6.283 2.5 7 2.5v-4c-.717 0-7-.07-7-2.5z" fill="#deb945"/><path d="m0 2.5v4c0 2.43 6.283 2.5 7 2.5v-4c-.717 0-7-.07-7-2.5z" fill="#dea806"/><path d="m7 0c-.717 0-7 .07-7 2.5 0 2.43 6.283 2.5 7 2.5z" fill="#deb945"/><path d="m22 16c-1.103 0-2-.897-2-2s.897-2 2-2 2 .897 2 2-.897 2-2 2z" fill="#2196f3"/><path d="m22 24c-1.103 0-2-.897-2-2s.897-2 2-2 2 .897 2 2-.897 2-2 2z" fill="#2196f3"/><g fill="#1d83d4"><path d="m22 12c-1.103 0-2 .897-2 2s.897 2 2 2z"/><path d="m22 20c-1.103 0-2 .897-2 2s.897 2 2 2z"/></g></svg>