<svg id="color" enable-background="new 0 0 24 24" height="512" viewBox="0 0 24 24" width="512" xmlns="http://www.w3.org/2000/svg"><path d="m0 10.5v4c0 2.43 6.28 2.5 7 2.5.24 0 1.08-.01 2.11-.11-.16-.52-.15-1.08.03-1.62.37-1.08 1.33-1.81 2.45-1.87l2.41-.14v-2.76z" fill="#ffc107"/><path d="m7 13c-.717 0-7-.07-7-2.5v-4h14v4c0 2.43-6.283 2.5-7 2.5z" fill="#ffd54f"/><path d="m7 9c-.717 0-7-.07-7-2.5v-4h14v4c0 2.43-6.283 2.5-7 2.5z" fill="#ffc107"/><path d="m7 5c-.717 0-7-.07-7-2.5 0-2.43 6.283-2.5 7-2.5s7 .07 7 2.5-6.283 2.5-7 2.5z" fill="#ffd54f"/><path d="m0 10.5v4c0 2.43 6.28 2.5 7 2.5v-4c-.717 0-7-.07-7-2.5z" fill="#dea806"/><path d="m0 6.5v4c0 2.43 6.283 2.5 7 2.5v-4c-.717 0-7-.07-7-2.5z" fill="#deb945"/><path d="m0 2.5v4c0 2.43 6.283 2.5 7 2.5v-4c-.717 0-7-.07-7-2.5z" fill="#dea806"/><path d="m7 0c-.717 0-7 .07-7 2.5 0 2.43 6.283 2.5 7 2.5z" fill="#deb945"/><path d="m21.054 24c-.147 0-.294-.043-.422-.13l-3.132-2.131-3.132 2.131c-.258.174-.597.173-.852-.006-.255-.178-.374-.497-.297-.798l.975-3.85-2.932-2.503c-.233-.199-.321-.52-.224-.81.098-.29.363-.492.668-.509l3.735-.211 1.354-3.69c.109-.297.391-.493.705-.493s.596.196.704.492l1.354 3.69 3.735.211c.306.018.57.219.668.509.098.291.009.611-.224.81l-2.932 2.503.975 3.85c.077.302-.041.62-.297.798-.129.092-.279.137-.429.137z" fill="#ffc107"/><path d="m17.5 11c-.314 0-.596.196-.704.492l-1.354 3.69-3.735.211c-.306.018-.57.219-.668.509-.098.291-.009.611.224.81l2.932 2.503-.975 3.85c-.077.302.042.62.297.798.128.092.278.137.429.137.147 0 .295-.043.423-.13l3.132-2.131v-10.739z" fill="#dea806"/></svg>