<svg id="color" enable-background="new 0 0 24 24" height="512" viewBox="0 0 24 24" width="512" xmlns="http://www.w3.org/2000/svg"><path d="m15.854 23.146c-1.313-1.313-1.353-2.586-1.354-2.649-.002-.275-.225-.497-.5-.497h-4.02c-.276 0-.5.227-.5.503 0 .054-.018 1.328-1.334 2.644-.143.143-.186.358-.108.545s.26.308.462.308h7c.202 0 .385-.122.462-.309s.034-.401-.108-.545z" fill="#90a4ae"/><path d="m24 5.75v13.5c0 .96-.79 1.75-1.75 1.75h-20.5c-.96 0-1.75-.79-1.75-1.75v-13.5c0-.96.79-1.75 1.75-1.75h2.25v2h-2v11h20v-11h-2v-2h2.25c.96 0 1.75.79 1.75 1.75z" fill="#607d8b"/><path d="m22 6v11h-20v-11h2v5c0 1.82 1.39 4 8 4s8-2.18 8-4v-5z" fill="#fafafa"/><path d="m12 13c-1.407 0-6-.144-6-2v-4.5h12v4.5c0 1.856-4.593 2-6 2z" fill="#ffd54f"/><path d="m12 8.5c-1.407 0-6-.144-6-2v-4.5h12v4.5c0 1.856-4.593 2-6 2z" fill="#ffc107"/><path d="m12 4c-1.407 0-6-.144-6-2 0-1.856 4.593-2 6-2s6 .144 6 2-4.593 2-6 2z" fill="#ffd54f"/><path d="m12 21h-2.591c-.118.501-.431 1.315-1.263 2.146-.143.143-.186.358-.108.545s.26.309.462.309h3.5z" fill="#7d8f97"/><path d="m4 4h-2.25c-.96 0-1.75.79-1.75 1.75v13.5c0 .96.79 1.75 1.75 1.75h7.659 2.591v-4h-10v-11h2z" fill="#546d79"/><path d="m4 6h-2v11h10v-2c-6.61 0-8-2.18-8-4z" fill="#dadada"/><path d="m6 6.5v4.5c0 1.856 4.593 2 6 2v-4.5c-1.407 0-6-.144-6-2z" fill="#deb945"/><path d="m6 2v4.5c0 1.856 4.593 2 6 2v-4.5c-1.407 0-6-.144-6-2z" fill="#dea806"/><path d="m12 0c-1.407 0-6 .144-6 2 0 1.856 4.593 2 6 2z" fill="#deb945"/><path d="m10 6c0 .552-.447 1-1 1s-1-.448-1-1 .447-1 1-1 1 .448 1 1z" fill="#fff"/><path d="m10 10.5c0 .552-.447 1-1 1s-1-.448-1-1 .447-1 1-1 1 .448 1 1z" fill="#fff"/><g fill="#dedede"><path d="m9 5c-.553 0-1 .448-1 1s.447 1 1 1z"/><path d="m9 9.5c-.553 0-1 .448-1 1s.447 1 1 1z"/></g></svg>