<svg id="color" enable-background="new 0 0 24 24" height="512" viewBox="0 0 24 24" width="512" xmlns="http://www.w3.org/2000/svg"><path d="m12 24c-1.228 0-12-.084-12-3v-5h24v5c0 2.916-10.772 3-12 3z" fill="#ffc107"/><path d="m12 19c-1.228 0-12-.084-12-3s10.772-3 12-3 12 .084 12 3-10.772 3-12 3z" fill="#ffd54f"/><path d="m20.613 15.531c-5.742 1.958-11.484 1.958-17.226 0-.822-.28-1.387-1.038-1.387-1.906v-4.605h20v4.604c0 .869-.565 1.627-1.387 1.907z" fill="#607d8b"/><path d="m12 11c-1.228 0-12-.084-12-3v-5h24v5c0 2.916-10.772 3-12 3z" fill="#ffc107"/><path d="m12 6c-1.228 0-12-.084-12-3s10.772-3 12-3 12 .084 12 3-10.772 3-12 3z" fill="#ffd54f"/><path d="m0 16v5c0 2.916 10.772 3 12 3v-5c-1.228 0-12-.084-12-3z" fill="#dea806"/><path d="m2.074 14.161c-1.236.432-2.074 1.025-2.074 1.839 0 2.916 10.772 3 12 3v-2c-2.871 0-5.742-.49-8.613-1.469-.647-.22-1.134-.737-1.313-1.37z" fill="#deb945"/><path d="m2 9.813v3.812c0 .185.026.365.074.537.179.633.666 1.15 1.313 1.37 2.871.979 5.742 1.468 8.613 1.468v-6c-.892 0-6.824-.044-10-1.187z" fill="#546d79"/><path d="m0 3v5c0 .797.805 1.383 2 1.813 3.176 1.143 9.108 1.187 10 1.187v-5c-1.228 0-12-.084-12-3z" fill="#dea806"/><path d="m12 0c-1.228 0-12 .084-12 3 0 2.916 10.772 3 12 3z" fill="#deb945"/><path d="m5 21c0 .552-.448 1-1 1s-1-.448-1-1 .448-1 1-1 1 .448 1 1z" fill="#fff"/><path d="m5 8c0 .552-.448 1-1 1s-1-.448-1-1 .448-1 1-1 1 .448 1 1z" fill="#fff"/><g fill="#dedede"><path d="m4 20c-.552 0-1 .448-1 1s.448 1 1 1z"/><path d="m4 7c-.552 0-1 .448-1 1s.448 1 1 1z"/></g></svg>