<svg id="color" enable-background="new 0 0 24 24" height="512" viewBox="0 0 24 24" width="512" xmlns="http://www.w3.org/2000/svg"><path d="m0 21.5c0 1.381 3.357 2.5 7.5 2.5s7.5-1.119 7.5-2.5v-4h-15z" fill="#ffc107"/><path d="m0 17.5c0 1.381 3.357 2.5 7.5 2.5s7.5-1.119 7.5-2.5v-4h-15z" fill="#ffd54f"/><path d="m15 10.63v2.87c0 1.38-3.36 2.5-7.5 2.5s-7.5-1.12-7.5-2.5v-4h12.65c.42.51 1 .88 1.67 1.04.21.06.44.09.68.09z" fill="#ffc107"/><path d="m14.32 10.54c-1.18.86-3.79 1.46-6.82 1.46-4.14 0-7.5-1.12-7.5-2.5s3.36-2.5 7.5-2.5c1.69 0 3.24.19 4.49.5v.2c.01.68.26 1.31.66 1.8.42.51 1 .88 1.67 1.04z" fill="#ffd54f"/><path d="m0 17.5v4c0 1.381 3.357 2.5 7.5 2.5v-4c-4.143 0-7.5-1.119-7.5-2.5z" fill="#dea806"/><path d="m0 13.5v4c0 1.381 3.357 2.5 7.5 2.5v-4c-4.14 0-7.5-1.12-7.5-2.5z" fill="#deb945"/><path d="m0 9.5v4c0 1.38 3.36 2.5 7.5 2.5v-4c-4.14 0-7.5-1.12-7.5-2.5z" fill="#dea806"/><path d="m7.5 7c-4.14 0-7.5 1.12-7.5 2.5 0 1.38 3.36 2.5 7.5 2.5z" fill="#deb945"/><path d="m23.707 8.311-5.322-5.321c.91-.632 1.975-.99 3.085-.99l.147.001c.542 0 .987-.433 1-.977.013-.552-.425-1.01-.978-1.022-1.641-.033-3.237.473-4.558 1.44-.447-.06-.912.058-1.256.401-.343.343-.461.808-.401 1.255-.968 1.321-1.478 2.917-1.439 4.559.013.544.458.977 1 .977l.023-.001c.552-.013.989-.471.977-1.023-.026-1.151.334-2.263.988-3.206l5.32 5.32c.195.195.451.293.707.293s.512-.098.707-.293c.391-.39.391-1.023 0-1.413z" fill="#607d8b"/><path d="m15.827 1.841c-.001.001-.001.001-.002.002-.343.343-.461.808-.401 1.255-.968 1.321-1.478 2.917-1.439 4.559.013.544.458.977 1 .977l.023-.001c.552-.013.989-.471.977-1.023-.026-1.151.334-2.263.988-3.206l5.32 5.32c.195.195.451.293.707.293s.512-.098.707-.293c.001-.001.001-.001.002-.002z" fill="#546d79"/></svg>