<svg id="color" enable-background="new 0 0 24 24" height="512" viewBox="0 0 24 24" width="512" xmlns="http://www.w3.org/2000/svg"><path d="m24 8h-24v-5.25c0-1.519 1.231-2.75 2.75-2.75h18.5c1.519 0 2.75 1.231 2.75 2.75z" fill="#2196f3"/><path d="m24 16h-24v-8h24z" fill="#64b5f6"/><path d="m21.25 24h-18.5c-1.519 0-2.75-1.231-2.75-2.75v-5.25h24v5.25c0 1.519-1.231 2.75-2.75 2.75z" fill="#2196f3"/><path d="m12 0h-9.25c-1.519 0-2.75 1.231-2.75 2.75v5.25h12z" fill="#1d83d4"/><path d="m12 8h-12v8h12z" fill="#579ed6"/><path d="m12 16h-12v5.25c0 1.519 1.231 2.75 2.75 2.75h9.25z" fill="#1d83d4"/><g fill="#fff"><circle cx="19.5" cy="12.5" r="1.5"/><circle cx="14.5" cy="12.5" r="1.5"/><circle cx="9.5" cy="12.5" r="1.5"/><circle cx="19.5" cy="20.5" r="1.5"/><circle cx="14.5" cy="20.5" r="1.5"/><circle cx="9.5" cy="20.5" r="1.5"/><path d="m21 4.5c0 .829-.672 1.5-1.5 1.5s-1.5-.671-1.5-1.5.672-1.5 1.5-1.5 1.5.671 1.5 1.5z"/><path d="m16 4.5c0 .829-.672 1.5-1.5 1.5s-1.5-.671-1.5-1.5.672-1.5 1.5-1.5 1.5.671 1.5 1.5z"/><path d="m11 4.5c0 .829-.672 1.5-1.5 1.5s-1.5-.671-1.5-1.5.672-1.5 1.5-1.5 1.5.671 1.5 1.5z"/></g><path d="m21 4.5h-3c0 .829.672 1.5 1.5 1.5s1.5-.671 1.5-1.5z" fill="#dedede"/><path d="m16 4.5h-3c0 .829.672 1.5 1.5 1.5s1.5-.671 1.5-1.5z" fill="#dedede"/><path d="m11 4.5h-3c0 .829.672 1.5 1.5 1.5s1.5-.671 1.5-1.5z" fill="#dedede"/><path d="m21 12.5h-3c0 .829.672 1.5 1.5 1.5s1.5-.671 1.5-1.5z" fill="#dedede"/><path d="m16 12.5h-3c0 .829.672 1.5 1.5 1.5s1.5-.671 1.5-1.5z" fill="#dedede"/><path d="m11 12.5h-3c0 .829.672 1.5 1.5 1.5s1.5-.671 1.5-1.5z" fill="#dedede"/><path d="m21 20.5h-3c0 .829.672 1.5 1.5 1.5s1.5-.671 1.5-1.5z" fill="#dedede"/><path d="m16 20.5h-3c0 .829.672 1.5 1.5 1.5s1.5-.671 1.5-1.5z" fill="#dedede"/><path d="m11 20.5h-3c0 .829.672 1.5 1.5 1.5s1.5-.671 1.5-1.5z" fill="#dedede"/></svg>