<svg id="color" enable-background="new 0 0 24 24" height="512" viewBox="0 0 24 24" width="512" xmlns="http://www.w3.org/2000/svg"><path d="m15.25 0h-12.5c-1.52 0-2.75 1.23-2.75 2.75v5.25h18v-5.25c0-1.52-1.23-2.75-2.75-2.75z" fill="#2196f3"/><path d="m0 8v8h16.02c.091-1.04.761-1.91 1.69-2.29.08-.19.17-.36.29-.52v-5.19z" fill="#64b5f6"/><path d="m16 21.75v-5.5l.02-.25h-16.02v5.25c0 1.52 1.23 2.75 2.75 2.75h12.5c.54 0 1.04-.15 1.46-.42-.44-.48-.71-1.13-.71-1.83z" fill="#2196f3"/><path d="m9.083 0h-6.333c-1.52 0-2.75 1.23-2.75 2.75v5.25h9.083z" fill="#1d83d4"/><path d="m9.083 8h-9.083v8h9.083z" fill="#579ed6"/><path d="m9.083 16h-9.083v5.25c0 1.52 1.23 2.75 2.75 2.75h6.333z" fill="#1d83d4"/><circle cx="12.5" cy="4.5" fill="#fff" r="1.5"/><circle cx="5.5" cy="4.5" fill="#fff" r="1.5"/><path d="m5.5 3c-.829 0-1.5.672-1.5 1.5s.671 1.5 1.5 1.5z" fill="#dedede"/><path d="m12.5 3c-.829 0-1.5.672-1.5 1.5s.671 1.5 1.5 1.5z" fill="#dedede"/><path d="m22.817 18.48c.116-.262.183-.55.183-.855 0-1.129-.887-2.046-2-2.112v-.763c0-.414-.336-.75-.75-.75s-.75.336-.75.75v.75h-.75c-.414 0-.75.336-.75.75v5.5c0 .414.336.75.75.75h.75v.75c0 .414.336.75.75.75s.75-.336.75-.75v-.75h.875c1.172 0 2.125-.953 2.125-2.125 0-.832-.485-1.546-1.183-1.895zm-3.317-1.48h1.375c.345 0 .625.28.625.625s-.28.625-.625.625h-1.375zm2.375 4h-2.375v-1.25h1.375 1c.345 0 .625.28.625.625s-.28.625-.625.625z" fill="#ffc107"/><path d="m20.25 14c-.414 0-.75.336-.75.75v.75h-.75c-.414 0-.75.336-.75.75v5.5c0 .414.336.75.75.75h.75v.75c0 .414.336.75.75.75v-3h-.75v-1.25h.75v-1.5h-.75v-1.25h.75z" fill="#dea806"/></svg>