<svg id="color" enable-background="new 0 0 24 24" height="512" viewBox="0 0 24 24" width="512" xmlns="http://www.w3.org/2000/svg"><path d="m15.25 0h-12.5c-1.52 0-2.75 1.23-2.75 2.75v5.25h18v-5.25c0-1.52-1.23-2.75-2.75-2.75z" fill="#2196f3"/><path d="m0 8v8h12.94l5.06-5.07v-2.93z" fill="#64b5f6"/><path d="m0 16v5.25c0 1.52 1.23 2.75 2.75 2.75h6.86c-.12-.41-.15-.85-.061-1.29l.67-3.35c.11-.54.37-1.021.761-1.4l1.96-1.96z" fill="#2196f3"/><path d="m9.083 0h-6.333c-1.52 0-2.75 1.23-2.75 2.75v5.25h9.083z" fill="#1d83d4"/><path d="m9.083 8h-9.083v8h9.083z" fill="#579ed6"/><path d="m9.083 16h-9.083v5.25c0 1.52 1.23 2.75 2.75 2.75h6.333z" fill="#1d83d4"/><circle cx="12.5" cy="4.5" fill="#fff" r="1.5"/><circle cx="5.5" cy="4.5" fill="#fff" r="1.5"/><path d="m5.5 3c-.829 0-1.5.672-1.5 1.5s.671 1.5 1.5 1.5z" fill="#dedede"/><path d="m12.5 3c-.829 0-1.5.672-1.5 1.5s.671 1.5 1.5 1.5z" fill="#dedede"/><path d="m12.25 24c-.197 0-.389-.078-.53-.22-.178-.177-.254-.432-.205-.677l.67-3.352c.029-.145.101-.278.205-.383l7.372-7.372c.662-.661 1.738-.661 2.4-.001l1.341 1.342c.662.662.662 1.738 0 2.4l-7.372 7.372c-.105.105-.238.177-.383.205l-3.351.67zm3.351-1.42h.01z" fill="#2196f3"/><path d="m20.962 11.501c-.435 0-.87.165-1.201.496l-7.372 7.372c-.105.105-.176.238-.205.383l-.67 3.352c-.049.245.027.5.205.677.014.014.028.027.042.039l11.111-11.112-.711-.711c-.33-.331-.764-.496-1.199-.496z" fill="#1d83d4"/></svg>