<svg id="color" enable-background="new 0 0 24 24" height="512" viewBox="0 0 24 24" width="512" xmlns="http://www.w3.org/2000/svg"><path d="m15.25 0h-12.5c-1.52 0-2.75 1.23-2.75 2.75v5.25h18v-5.25c0-1.52-1.23-2.75-2.75-2.75z" fill="#2196f3"/><path d="m0 8v8h15.69l2.31-4.4v-3.6z" fill="#64b5f6"/><path d="m15.34 19.32c-.45-.83-.45-1.811-.01-2.63l.36-.69h-15.69v5.25c0 1.52 1.23 2.75 2.75 2.75h12.5c.82 0 1.55-.36 2.06-.92z" fill="#2196f3"/><path d="m9.083 0h-6.333c-1.52 0-2.75 1.23-2.75 2.75v5.25h9.083z" fill="#1d83d4"/><path d="m9.083 8h-9.083v8h9.083z" fill="#579ed6"/><path d="m9.083 16h-9.083v5.25c0 1.52 1.23 2.75 2.75 2.75h6.333z" fill="#1d83d4"/><circle cx="12.5" cy="4.5" fill="#fff" r="1.5"/><circle cx="5.5" cy="4.5" fill="#fff" r="1.5"/><path d="m5.5 3c-.829 0-1.5.672-1.5 1.5s.671 1.5 1.5 1.5z" fill="#dedede"/><path d="m12.5 3c-.829 0-1.5.672-1.5 1.5s.671 1.5 1.5 1.5z" fill="#dedede"/><path d="m23.91 17.65-.39-.75-2.36-4.5c-.25-.49-1.07-.49-1.32 0l-2.36 4.5-.39.75c-.12.22-.12.48 0 .7l.02.04 2.73 5.21c.12.25.38.4.66.4s.54-.15.66-.4l2.73-5.21.02-.04c.12-.22.12-.48 0-.7z" fill="#2196f3"/><path d="m23.91 18.35-.02.04-3.06 1.53c-.1.05-.21.08-.33.08s-.23-.03-.33-.08l-3.06-1.53-.02-.04c-.12-.22-.12-.48 0-.7l.39-.75 3.02 1.51 3.02-1.51.39.75c.12.22.12.48 0 .7z" fill="#64b5f6"/><path d="m17 18c0 .12.03.24.09.35l.021.04 2.729 5.21c.12.25.38.4.66.4v-4c-.12 0-.23-.03-.33-.08l-3.06-1.53-.021-.04c-.059-.11-.089-.23-.089-.35zm3.5-5.967c-.268 0-.535.122-.66.367l-2.359 4.5 3.02 1.51z" fill="#1d83d4"/><path d="m17.48 16.9-.391.75c-.059.11-.089.23-.089.35s.03.24.09.35l.021.04 3.06 1.53c.1.05.21.08.33.08v-1.59z" fill="#579ed6"/></svg>