<svg id="color" enable-background="new 0 0 24 24" height="512" viewBox="0 0 24 24" width="512" xmlns="http://www.w3.org/2000/svg"><path d="m15.25 0h-12.5c-1.52 0-2.75 1.23-2.75 2.75v5.25h18v-5.25c0-1.52-1.23-2.75-2.75-2.75z" fill="#2196f3"/><path d="m0 8v8h9.14c.7-3.98 4.181-7 8.36-7 .17 0 .33 0 .5.01v-1.01z" fill="#64b5f6"/><path d="m9 17.5c0-.51.05-1.01.14-1.5h-9.14v5.25c0 1.52 1.23 2.75 2.75 2.75h9.27c-1.85-1.56-3.02-3.9-3.02-6.5z" fill="#2196f3"/><path d="m9.083 0h-6.333c-1.52 0-2.75 1.23-2.75 2.75v5.25h9.083z" fill="#1d83d4"/><path d="m9.083 8h-9.083v8h9.083z" fill="#579ed6"/><path d="m9.083 16.348c-.054.378-.083.762-.083 1.152 0 .404.028.802.083 1.192z" fill="#dedede"/><path d="m9.083 16h-9.083v5.25c0 1.52 1.23 2.75 2.75 2.75h6.333v-5.308c-.055-.39-.083-.788-.083-1.192 0-.39.029-.774.083-1.152z" fill="#1d83d4"/><circle cx="12.5" cy="4.5" fill="#fff" r="1.5"/><circle cx="5.5" cy="4.5" fill="#fff" r="1.5"/><path d="m5.5 3c-.829 0-1.5.672-1.5 1.5s.671 1.5 1.5 1.5z" fill="#dedede"/><path d="m12.5 3c-.829 0-1.5.672-1.5 1.5s.671 1.5 1.5 1.5z" fill="#dedede"/><path d="m17.5 11c-3.584 0-6.5 2.916-6.5 6.5s2.916 6.5 6.5 6.5 6.5-2.916 6.5-6.5-2.916-6.5-6.5-6.5z" fill="#ffc107"/><path d="m18.5 21c0 .553-.447 1-1 1s-1-.447-1-1v-3.5c0-.553.447-1 1-1s1 .447 1 1z" fill="#fff"/><path d="m17.5 15c-.553 0-1-.447-1-1s.447-1 1-1 1 .447 1 1-.447 1-1 1z" fill="#fff"/><path d="m17.5 11c-3.584 0-6.5 2.916-6.5 6.5s2.916 6.5 6.5 6.5v-2c-.553 0-1-.447-1-1v-3.5c0-.553.447-1 1-1v-1.5c-.553 0-1-.447-1-1s.447-1 1-1z" fill="#dea806"/><g fill="#dedede"><path d="m17.5 16.5c-.553 0-1 .447-1 1v3.5c0 .553.447 1 1 1z"/><path d="m17.5 13c-.553 0-1 .447-1 1s.447 1 1 1z"/></g></svg>