<svg id="color" enable-background="new 0 0 24 24" height="512" viewBox="0 0 24 24" width="512" xmlns="http://www.w3.org/2000/svg"><path d="m15.25 0h-12.5c-1.52 0-2.75 1.23-2.75 2.75v5.25h18v-5.25c0-1.52-1.23-2.75-2.75-2.75z" fill="#2196f3"/><path d="m0 8v8h18v-8z" fill="#64b5f6"/><path d="m0 16v5.25c0 1.52 1.23 2.75 2.75 2.75h6.43c-.12-.31-.18-.65-.18-1v-1.5c0-1.93 1.57-3.5 3.5-3.5h4.53c.28-.37.6-.7.97-.97v-1.03z" fill="#2196f3"/><path d="m9.084 0h-6.334c-1.52 0-2.75 1.23-2.75 2.75v5.25h9.083v-8z" fill="#1d83d4"/><path d="m9.084 8h-9.084v8h9.084z" fill="#579ed6"/><path d="m9.084 20.738c-.055.246-.084.501-.084.762v1.5c0 .238.028.472.083.695v-2.957z" fill="#dedede"/><path d="m9.084 16h-9.084v5.25c0 1.52 1.23 2.75 2.75 2.75h6.334v-.305c-.056-.223-.084-.457-.084-.695v-1.5c0-.261.029-.516.083-.762v-4.738z" fill="#1d83d4"/><circle cx="12.5" cy="4.5" fill="#fff" r="1.5"/><circle cx="5.5" cy="4.5" fill="#fff" r="1.5"/><path d="m5.5 3c-.829 0-1.5.672-1.5 1.5s.671 1.5 1.5 1.5z" fill="#dedede"/><path d="m12.5 3c-.829 0-1.5.672-1.5 1.5s.671 1.5 1.5 1.5z" fill="#dedede"/><path d="m21 18c-1.302 0-2.401.839-2.816 2h-5.684c-.827 0-1.5.673-1.5 1.5v1.5c0 .553.447 1 1 1s1-.447 1-1v-1h5.185c.414 1.161 1.514 2 2.815 2 1.654 0 3-1.346 3-3s-1.346-3-3-3zm0 4c-.552 0-1-.449-1-1s.448-1 1-1 1 .449 1 1-.448 1-1 1z" fill="#ffc107"/><path d="m24 21h-2c0 .551-.448 1-1 1s-1-.449-1-1h-8.914c-.056.156-.086.325-.086.5v1.5c0 .553.447 1 1 1s1-.447 1-1v-1h5.185c.414 1.161 1.514 2 2.815 2 1.654 0 3-1.346 3-3z" fill="#dea806"/></svg>