<svg id="color" enable-background="new 0 0 24 24" height="512" viewBox="0 0 24 24" width="512" xmlns="http://www.w3.org/2000/svg"><path d="m15.25 0h-12.5c-1.52 0-2.75 1.23-2.75 2.75v5.25h18v-5.25c0-1.52-1.23-2.75-2.75-2.75z" fill="#2196f3"/><path d="m0 8v8h10.18c.41-1.16 1.52-2 2.82-2h1c.3 0 .58.06.85.14l.09-.109c.06-3.3 2.2-3.721 3.06-3.75v-2.281z" fill="#64b5f6"/><path d="m10 17c0-.35.06-.69.18-1h-10.18v5.25c0 1.52 1.23 2.75 2.75 2.75h7.43c-.12-.31-.18-.65-.18-1z" fill="#2196f3"/><path d="m9.083 0h-6.333c-1.52 0-2.75 1.23-2.75 2.75v5.25h9.084v-8z" fill="#1d83d4"/><path d="m9.083 8h-9.083v8h9.083z" fill="#579ed6"/><path d="m9.083 16h-9.083v5.25c0 1.52 1.23 2.75 2.75 2.75h6.333z" fill="#1d83d4"/><circle cx="12.5" cy="4.5" fill="#fff" r="1.5"/><circle cx="5.5" cy="4.5" fill="#fff" r="1.5"/><path d="m5.5 3c-.829 0-1.5.672-1.5 1.5s.671 1.5 1.5 1.5z" fill="#dedede"/><path d="m12.5 3c-.829 0-1.5.672-1.5 1.5s.671 1.5 1.5 1.5z" fill="#dedede"/><path d="m14 24h-1c-.552 0-1-.448-1-1v-6c0-.552.448-1 1-1h1c.552 0 1 .448 1 1v6c0 .552-.448 1-1 1z" fill="#2196f3"/><path d="m24 18.41c0-1.33-1.08-2.41-2.41-2.41h-1.99c.11-.35.21-.82.21-1.37 0-1.62-.87-2.36-1.67-2.36-1.2 0-1.2 1.28-1.2 1.9 0 .76-.66 1.44-1.19 1.86.16.29.25.62.25.97v6c0 .09-.01.18-.02.27.87.36 2.26.73 4.26.73h.76c1.2 0 2.25-.87 2.43-2.02l-.04-.01c.49-1.02.61-3.53.61-3.56z" fill="#ffcc80"/><path d="m15 19.666h-3v3.334c0 .552.448 1 1 1h1c.552 0 1-.448 1-1z" fill="#1d83d4"/><path d="m23.896 19.666h-7.896v3.334l-.02.27c.87.36 2.26.73 4.26.73h.76c1.2 0 2.25-.87 2.43-2.02l-.04-.01c.262-.545.418-1.514.506-2.304z" fill="#deb26f"/></svg>