<svg id="color" enable-background="new 0 0 24 24" height="512" viewBox="0 0 24 24" width="512" xmlns="http://www.w3.org/2000/svg"><path d="m15.25 0h-12.5c-1.52 0-2.75 1.23-2.75 2.75v5.25h18v-5.25c0-1.52-1.23-2.75-2.75-2.75z" fill="#2196f3"/><path d="m0 8v8h8.99c-.351-.7-.53-1.48-.53-2.29 0-1.41.56-2.729 1.56-3.72.91-.931 2.25-1.48 3.66-1.49 1.44.01 2.78.54 3.74 1.5l.57.56.01.01v-2.57z" fill="#64b5f6"/><path d="m15.74 22.07c-.931-.23-1.78-.69-2.471-1.38l-3.269-3.27c-.42-.42-.76-.9-1.01-1.42h-8.99v5.25c0 1.52 1.23 2.75 2.75 2.75h12.5c.4 0 .77-.08 1.11-.24-.41-.49-.61-1.09-.62-1.69z" fill="#2196f3"/><path d="m9.083 0h-6.333c-1.52 0-2.75 1.23-2.75 2.75v5.25h9.083z" fill="#1d83d4"/><path d="m9.083 8h-9.083v8h8.99c-.351-.7-.53-1.48-.53-2.29 0-.879.217-1.722.623-2.473z" fill="#579ed6"/><path d="m8.99 16h-8.99v5.25c0 1.52 1.23 2.75 2.75 2.75h6.333v-7.817c-.032-.06-.063-.121-.093-.183z" fill="#1d83d4"/><circle cx="12.5" cy="4.5" fill="#fff" r="1.5"/><circle cx="5.5" cy="4.5" fill="#fff" r="1.5"/><path d="m5.5 3c-.829 0-1.5.672-1.5 1.5s.671 1.5 1.5 1.5z" fill="#dedede"/><path d="m12.5 3c-.829 0-1.5.672-1.5 1.5s.671 1.5 1.5 1.5z" fill="#dedede"/><path d="m16.979 20.233c-.834 0-1.665-.322-2.3-.957l-3.261-3.271c-.614-.606-.954-1.423-.954-2.293 0-.871.34-1.687.958-2.299 1.186-1.211 3.358-1.226 4.588.002l.56.561c.293.293.293.769 0 1.061-.294.293-.769.291-1.061-.001l-.56-.56c-.658-.658-1.827-.657-2.464-.006-.34.336-.521.773-.521 1.24 0 .468.183.904.513 1.231l3.264 3.274c.639.639 1.647.69 2.344.119.317-.261.793-.216 1.055.105.263.32.216.793-.105 1.056-.603.495-1.331.738-2.056.738z" fill="#2196f3"/><path d="m20.785 24.035c-.871 0-1.688-.34-2.299-.957l-.537-.539c-.292-.293-.292-.768.001-1.061.293-.292.77-.292 1.062.002l.539.539c.329.333.767.516 1.234.516.468 0 .904-.183 1.231-.513.336-.333.519-.77.519-1.237s-.182-.904-.513-1.232l-3.264-3.273c-.615-.615-1.682-.664-2.341-.121-.318.264-.791.219-1.056-.101-.264-.319-.219-.792.101-1.056 1.23-1.018 3.215-.926 4.357.218l3.261 3.27c.614.607.954 1.424.954 2.295s-.34 1.688-.958 2.298c-.603.611-1.42.952-2.291.952z" fill="#2196f3"/><g fill="#1d83d4"><path d="m11.672 11.187c-.087.07-.171.145-.249.226-.618.611-.958 1.428-.958 2.299 0 .87.34 1.687.954 2.293l3.261 3.271c.635.635 1.466.957 2.3.957.725 0 1.452-.243 2.055-.736.209-.171.302-.43.269-.679l-.644-.644c-.033-.004-.066-.007-.1-.007-.168 0-.336.056-.474.169-.324.266-.715.396-1.105.396-.449 0-.897-.174-1.239-.516l-3.264-3.274c-.33-.327-.513-.764-.513-1.231s.182-.904.521-1.24c.079-.08.165-.151.258-.212z"/><path d="m18.48 21.26c-.192 0-.384.073-.53.219-.293.293-.293.768-.001 1.061l.537.539c.611.617 1.428.957 2.299.957h.001c.87 0 1.686-.341 2.291-.952.083-.082.161-.168.234-.257l-1.072-1.072c-.064.095-.139.185-.223.268-.327.33-.764.513-1.231.513-.468 0-.905-.183-1.234-.516l-.539-.539c-.147-.148-.339-.221-.532-.221zm-3.004-6.269c-.004.004-.009.007-.013.011-.319.264-.364.736-.101 1.056.149.18.363.272.579.272.168 0 .337-.056.476-.172.042-.034.085-.066.13-.096z"/></g></svg>