<svg id="color" enable-background="new 0 0 24 24" height="512" viewBox="0 0 24 24" width="512" xmlns="http://www.w3.org/2000/svg"><path d="m15.25 0h-12.5c-1.52 0-2.75 1.23-2.75 2.75v5.25h18v-5.25c0-1.52-1.23-2.75-2.75-2.75z" fill="#2196f3"/><path d="m0 8v8h12c.03-3.52 2.63-6.44 6-6.92v-1.08z" fill="#64b5f6"/><path d="m12 16.06v-.06h-12v5.25c0 1.52 1.23 2.75 2.75 2.75h12.5c.18 0 .36-.02.53-.06-1.56-1.69-3.78-4.66-3.78-7.88z" fill="#2196f3"/><path d="m9.084 0h-6.334c-1.52 0-2.75 1.23-2.75 2.75v5.25h9.084z" fill="#1d83d4"/><path d="m9.084 8h-9.084v8h9.084z" fill="#579ed6"/><path d="m9.084 16h-9.084v5.25c0 1.52 1.23 2.75 2.75 2.75h6.334z" fill="#1d83d4"/><circle cx="12.5" cy="4.5" fill="#fff" r="1.5"/><circle cx="5.5" cy="4.5" fill="#fff" r="1.5"/><path d="m5.5 3c-.829 0-1.5.672-1.5 1.5s.671 1.5 1.5 1.5z" fill="#dedede"/><path d="m12.5 3c-.829 0-1.5.672-1.5 1.5s.671 1.5 1.5 1.5z" fill="#dedede"/><path d="m19 11c-2.757 0-5 2.271-5 5.063 0 3.853 4.328 7.6 4.512 7.757.141.12.314.18.488.18s.347-.06.488-.18c.184-.158 4.512-3.905 4.512-7.757 0-2.792-2.243-5.063-5-5.063z" fill="#f44336"/><circle cx="19" cy="16" fill="#fff" r="2"/><path d="m19 11c-2.757 0-5 2.271-5 5.063 0 3.853 4.328 7.6 4.512 7.758.141.118.314.179.488.179v-6c-1.103 0-2-.896-2-2s.897-2 2-2z" fill="#d43a2f"/><path d="m19 14c-1.103 0-2 .896-2 2s.897 2 2 2z" fill="#dedede"/></svg>