<svg id="color" enable-background="new 0 0 24 24" height="512" viewBox="0 0 24 24" width="512" xmlns="http://www.w3.org/2000/svg"><path d="m15.25 0h-12.5c-1.52 0-2.75 1.23-2.75 2.75v5.25h18v-5.25c0-1.52-1.23-2.75-2.75-2.75z" fill="#2196f3"/><path d="m0 8v8h9v-.25c0-1.52 1.23-2.75 2.75-2.75h6.25v-5z" fill="#64b5f6"/><path d="m9 16h-9v5.25c0 1.52 1.23 2.75 2.75 2.75h6.35c-.06-.24-.1-.49-.1-.75z" fill="#2196f3"/><path d="m9.084 0h-6.334c-1.52 0-2.75 1.23-2.75 2.75v5.25h9.084z" fill="#1d83d4"/><path d="m9.084 8h-9.084v8h9v-.25c0-.233.029-.46.083-.676v-7.074z" fill="#579ed6"/><path d="m9 16h-9v5.25c0 1.52 1.23 2.75 2.75 2.75h6.334v-.069c-.051-.219-.084-.446-.084-.681z" fill="#1d83d4"/><circle cx="12.5" cy="4.5" fill="#fff" r="1.5"/><circle cx="5.5" cy="4.5" fill="#fff" r="1.5"/><path d="m5.5 3c-.829 0-1.5.672-1.5 1.5s.671 1.5 1.5 1.5z" fill="#dedede"/><path d="m12.5 3c-.829 0-1.5.672-1.5 1.5s.671 1.5 1.5 1.5z" fill="#dedede"/><path d="m24 16.03v7.22c0 .41-.34.75-.75.75h-11.5c-.41 0-.75-.34-.75-.75v-7.22l1.5.94 4.6 2.91c.12.08.26.12.4.12s.28-.04.4-.12l4.6-2.9z" fill="#2196f3"/><path d="m24 15.75v.28l-1.5.95-4.6 2.9c-.12.08-.26.12-.4.12s-.28-.04-.4-.12l-4.6-2.91-1.5-.94v-.28c0-.41.34-.75.75-.75h11.5c.41 0 .75.34.75.75z" fill="#64b5f6"/><path d="m11 16.03v7.22c0 .41.34.75.75.75h5.75v-4c-.14 0-.28-.04-.4-.12l-4.6-2.91z" fill="#1d83d4"/><path d="m17.5 15h-5.75c-.41 0-.75.34-.75.75v.28l1.5.939 4.6 2.91c.12.08.26.12.4.12z" fill="#579ed6"/></svg>