<svg id="color" enable-background="new 0 0 24 24" height="512" viewBox="0 0 24 24" width="512" xmlns="http://www.w3.org/2000/svg"><path d="m18 8h-18v-5.25c0-1.519 1.231-2.75 2.75-2.75h12.5c1.519 0 2.75 1.231 2.75 2.75z" fill="#2196f3"/><path d="m0 8v8h13.59l.01-.01c.7-.64 1.6-.99 2.54-.99h1.86v-7z" fill="#64b5f6"/><path d="m10.48 20.5c0-1.05.44-2.06 1.22-2.76l1.89-1.74h-13.59v5.25c0 1.52 1.23 2.75 2.75 2.75h9.75l-.8-.74c-.78-.7-1.22-1.71-1.22-2.76z" fill="#2196f3"/><path d="m9.084 0h-6.334c-1.519 0-2.75 1.231-2.75 2.75v5.25h9.084z" fill="#1d83d4"/><path d="m9.084 8h-9.084v8h9.084z" fill="#579ed6"/><path d="m9.084 16h-9.084v5.25c0 1.52 1.23 2.75 2.75 2.75h6.333v-8z" fill="#1d83d4"/><circle cx="12.5" cy="4.5" fill="#fff" r="1.5"/><circle cx="5.5" cy="4.5" fill="#fff" r="1.5"/><path d="m5.5 3c-.829 0-1.5.672-1.5 1.5s.671 1.5 1.5 1.5z" fill="#dedede"/><path d="m12.5 3c-.829 0-1.5.672-1.5 1.5s.671 1.5 1.5 1.5z" fill="#dedede"/><path d="m22.25 24h-6.111c-.439 0-.859-.164-1.183-.46l-1.909-1.75c-.361-.331-.567-.801-.567-1.29s.207-.959.567-1.29l1.909-1.75c.324-.296.744-.46 1.183-.46h6.111c.965 0 1.75.785 1.75 1.75v3.5c0 .965-.785 1.75-1.75 1.75z" fill="#f44336"/><path d="m24 20.5h-11.52c0 .489.207.959.567 1.29l1.909 1.75c.324.296.744.46 1.183.46h6.111c.965 0 1.75-.785 1.75-1.75z" fill="#d43a2f"/></svg>