<svg id="color" enable-background="new 0 0 24 24" height="512" viewBox="0 0 24 24" width="512" xmlns="http://www.w3.org/2000/svg"><path d="m15.25 0h-12.5c-1.52 0-2.75 1.23-2.75 2.75v5.25h18v-5.25c0-1.52-1.23-2.75-2.75-2.75z" fill="#2196f3"/><path d="m0 8v8h11.54c.69-1.2 1.98-2 3.46-2 .4 0 .77.08 1.13.18l1.87-1.07v-5.11z" fill="#64b5f6"/><path d="m16.11 21.82c-.35.11-.72.18-1.11.18-2.21 0-4-1.79-4-4 0-.73.2-1.41.54-2h-11.54v5.25c0 1.52 1.23 2.75 2.75 2.75h12.5c1 0 1.87-.53 2.36-1.33z" fill="#2196f3"/><path d="m9.083 0h-6.333c-1.52 0-2.75 1.23-2.75 2.75v5.25h9.083z" fill="#1d83d4"/><path d="m9.083 8h-9.083v8h9.083z" fill="#579ed6"/><path d="m9.083 16h-9.083v5.25c0 1.52 1.23 2.75 2.75 2.75h6.333z" fill="#1d83d4"/><path d="m17.741 17.221h1.5v5.574h-1.5z" fill="#607d8b" transform="matrix(.491 -.871 .871 .491 -8.021 26.281)"/><path d="m15.716 15.251h5.567v1.499h-5.567z" fill="#607d8b" transform="matrix(.869 -.495 .495 .869 -5.495 11.255)"/><path d="m16.101 18.572-.406.72 4.855 2.739.378-.672z" fill="#546d79"/><path d="m20.546 13.971-4.836 2.757.345.606 4.896-2.653z" fill="#546d79"/><circle cx="12.5" cy="4.5" fill="#fff" r="1.5"/><circle cx="5.5" cy="4.5" fill="#fff" r="1.5"/><path d="m5.5 3c-.829 0-1.5.672-1.5 1.5s.671 1.5 1.5 1.5z" fill="#dedede"/><path d="m12.5 3c-.829 0-1.5.672-1.5 1.5s.671 1.5 1.5 1.5z" fill="#dedede"/><g fill="#2196f3"><path d="m22 16c-1.103 0-2-.897-2-2s.897-2 2-2 2 .897 2 2-.897 2-2 2z"/><path d="m22 24c-1.103 0-2-.897-2-2s.897-2 2-2 2 .897 2 2-.897 2-2 2z"/><path d="m15 20c-1.103 0-2-.897-2-2s.897-2 2-2 2 .897 2 2-.897 2-2 2z"/></g><path d="m15 16c-1.103 0-2 .897-2 2s.897 2 2 2z" fill="#1d83d4"/><path d="m22 12c-1.103 0-2 .897-2 2s.897 2 2 2z" fill="#1d83d4"/><path d="m22 20c-1.103 0-2 .897-2 2s.897 2 2 2z" fill="#1d83d4"/></svg>