<svg id="color" enable-background="new 0 0 24 24" height="512" viewBox="0 0 24 24" width="512" xmlns="http://www.w3.org/2000/svg"><path d="m15.25 0h-12.5c-1.52 0-2.75 1.23-2.75 2.75v5.25h18v-5.25c0-1.52-1.23-2.75-2.75-2.75z" fill="#2196f3"/><path d="m0 8v8h9.14c.7-3.98 4.181-7 8.36-7 .17 0 .33 0 .5.01v-1.01z" fill="#64b5f6"/><path d="m9 17.5c0-.51.05-1.01.14-1.5h-9.14v5.25c0 1.52 1.23 2.75 2.75 2.75h9.27c-1.85-1.56-3.02-3.9-3.02-6.5z" fill="#2196f3"/><path d="m9.083 0h-6.333c-1.52 0-2.75 1.23-2.75 2.75v5.25h9.083z" fill="#1d83d4"/><path d="m9.083 8h-9.083v8h9.083z" fill="#579ed6"/><path d="m9.083 16.348c-.054.378-.083.762-.083 1.152 0 .404.028.802.083 1.192z" fill="#dedede"/><path d="m9.083 16h-9.083v5.25c0 1.52 1.23 2.75 2.75 2.75h6.333v-5.308c-.055-.39-.083-.788-.083-1.192 0-.39.029-.774.083-1.152z" fill="#1d83d4"/><path d="m17.5 11c-3.584 0-6.5 2.916-6.5 6.5s2.916 6.5 6.5 6.5 6.5-2.916 6.5-6.5-2.916-6.5-6.5-6.5zm4.304 4h-1.804v-1.804c.749.436 1.368 1.055 1.804 1.804zm.696 2.5c0 .342-.035.677-.101 1h-2.399v-2h2.399c.066.323.101.658.101 1zm-10 0c0-.342.035-.677.101-1h2.399v2h-2.399c-.066-.323-.101-.658-.101-1zm4-1h2v2h-2zm2-3.899v2.399h-2v-2.399c.323-.066.658-.101 1-.101s.677.035 1 .101zm-3.5.595v1.804h-1.804c.436-.749 1.055-1.368 1.804-1.804zm-1.804 6.804h1.804v1.804c-.749-.436-1.368-1.055-1.804-1.804zm3.304 2.399v-2.399h2v2.399c-.323.066-.658.101-1 .101s-.677-.035-1-.101zm3.5-.595v-1.804h1.804c-.436.749-1.055 1.368-1.804 1.804z" fill="#4caf50"/><circle cx="12.5" cy="4.5" fill="#fff" r="1.5"/><circle cx="5.5" cy="4.5" fill="#fff" r="1.5"/><path d="m5.5 3c-.829 0-1.5.672-1.5 1.5s.671 1.5 1.5 1.5z" fill="#dedede"/><path d="m12.5 3c-.829 0-1.5.672-1.5 1.5s.671 1.5 1.5 1.5z" fill="#dedede"/><path d="m15 21.805c-.749-.437-1.368-1.056-1.805-1.805h1.805zm-2.398-3.305c-.066-.323-.102-.658-.102-1s.035-.677.102-1h2.398v2zm.593-3.5c.436-.749 1.056-1.368 1.805-1.805v1.805zm4.305-4c-3.584 0-6.5 2.916-6.5 6.5s2.916 6.5 6.5 6.5v-1.5c-.343 0-.677-.035-1-.101v-2.399h1v-1.5h-1v-2h1v-1.5h-1v-2.399c.323-.066.657-.101 1-.101z" fill="#429846"/></svg>