<svg id="color" enable-background="new 0 0 24 24" height="512" viewBox="0 0 24 24" width="512" xmlns="http://www.w3.org/2000/svg"><path d="m18 8h-18v-5.25c0-1.519 1.231-2.75 2.75-2.75h12.5c1.519 0 2.75 1.231 2.75 2.75z" fill="#2196f3"/><path d="m0 8v8h16.13c.27-1.05.95-1.93 1.87-2.46v-5.54z" fill="#64b5f6"/><path d="m16.37 18.66c-.23-.51-.37-1.07-.37-1.66 0-.35.04-.68.13-1h-16.13v5.25c0 1.52 1.23 2.75 2.75 2.75h11.35c-.06-.24-.1-.49-.1-.75v-.5c0-1.75.96-3.26 2.37-4.09z" fill="#2196f3"/><path d="m9.084 0h-6.334c-1.519 0-2.75 1.231-2.75 2.75v5.25h9.084z" fill="#1d83d4"/><path d="m9.084 8h-9.084v8h9.084z" fill="#579ed6"/><path d="m9.084 16h-9.084v5.25c0 1.52 1.23 2.75 2.75 2.75h6.333v-8z" fill="#1d83d4"/><path d="m20 19c-1.103 0-2-.897-2-2s.897-2 2-2 2 .897 2 2-.897 2-2 2z" fill="#2196f3"/><path d="m23.25 24h-6.5c-.414 0-.75-.336-.75-.75v-.5c0-1.517 1.233-2.75 2.75-2.75h2.5c1.517 0 2.75 1.233 2.75 2.75v.5c0 .414-.336.75-.75.75z" fill="#2196f3"/><circle cx="12.5" cy="4.5" fill="#fff" r="1.5"/><circle cx="5.5" cy="4.5" fill="#fff" r="1.5"/><path d="m5.5 3c-.829 0-1.5.672-1.5 1.5s.671 1.5 1.5 1.5z" fill="#dedede"/><path d="m12.5 3c-.829 0-1.5.672-1.5 1.5s.671 1.5 1.5 1.5z" fill="#dedede"/><g fill="#1d83d4"><path d="m20 15c-1.103 0-2 .896-2 2s.897 2 2 2z"/><path d="m20 20h-1.25c-1.517 0-2.75 1.233-2.75 2.75v.5c0 .414.336.75.75.75h3.25z"/></g></svg>