<svg id="color" enable-background="new 0 0 24 24" height="512" viewBox="0 0 24 24" width="512" xmlns="http://www.w3.org/2000/svg"><g fill="#607d8b"><path d="m17 6.25h2v3h-2z"/><path d="m17 14.75h2v3h-2z"/><path d="m7 9.25h-2v-3h2z"/><path d="m7 17.75h-2v-3h2z"/></g><path d="m19.25 24h-14.5c-.965 0-1.75-.785-1.75-1.75v-3.5c0-.965.785-1.75 1.75-1.75h14.5c.965 0 1.75.785 1.75 1.75v3.5c0 .965-.785 1.75-1.75 1.75z" fill="#2196f3"/><path d="m19.25 15.5h-14.5c-.965 0-1.75-.785-1.75-1.75v-3.5c0-.965.785-1.75 1.75-1.75h14.5c.965 0 1.75.785 1.75 1.75v3.5c0 .965-.785 1.75-1.75 1.75z" fill="#64b5f6"/><path d="m19.25 7h-14.5c-.965 0-1.75-.785-1.75-1.75v-3.5c0-.965.785-1.75 1.75-1.75h14.5c.965 0 1.75.785 1.75 1.75v3.5c0 .965-.785 1.75-1.75 1.75z" fill="#2196f3"/><path d="m7 7h-2v1.5h2z" fill="#546d79"/><path d="m7 15.5h-2v1.5h2z" fill="#546d79"/><path d="m12 17h-5-2-.25c-.965 0-1.75.785-1.75 1.75v3.5c0 .965.785 1.75 1.75 1.75h7.25z" fill="#1d83d4"/><path d="m12 8.5h-5-2-.25c-.965 0-1.75.785-1.75 1.75v3.5c0 .965.785 1.75 1.75 1.75h.25 2 5z" fill="#579ed6"/><path d="m12 0h-7.25c-.965 0-1.75.785-1.75 1.75v3.5c0 .965.785 1.75 1.75 1.75h.25 2 5z" fill="#1d83d4"/><path d="m9 4.5h-2c-.552 0-1-.448-1-1s.448-1 1-1h2c.552 0 1 .448 1 1s-.448 1-1 1z" fill="#fff"/><path d="m9 13h-2.25c-.552 0-1-.448-1-1s.448-1 1-1h2.25c.552 0 1 .448 1 1s-.448 1-1 1z" fill="#fff"/><path d="m9 21.5h-2c-.552 0-1-.448-1-1s.448-1 1-1h2c.552 0 1 .448 1 1s-.448 1-1 1z" fill="#fff"/><path d="m8 2.5h-1c-.552 0-1 .448-1 1s.448 1 1 1h1z" fill="#dedede"/><path d="m8 11h-1.25c-.552 0-1 .448-1 1s.448 1 1 1h1.25z" fill="#dedede"/><path d="m8 19.5h-1c-.552 0-1 .448-1 1s.448 1 1 1h1z" fill="#dedede"/></svg>