<?xml version="1.0" encoding="iso-8859-1"?>
<!-- Generator: Adobe Illustrator 19.0.0, SVG Export Plug-In . SVG Version: 6.00 Build 0)  -->
<svg version="1.1" id="Capa_1" xmlns="http://www.w3.org/2000/svg" xmlns:xlink="http://www.w3.org/1999/xlink" x="0px" y="0px"
	 viewBox="0 0 512 512" style="enable-background:new 0 0 512 512;" xml:space="preserve">
<polygon style="fill:#EDF2FA;" points="10,329.401 10,475.62 462,475.62 462,275.912 462,199.997 462,37 10,37 10,130.608 "/>
<rect x="10" y="37" style="fill:#7D9BFF;" width="452.01" height="72"/>
<path style="fill:#231F20;" d="M15,109h436.891"/>
<path style="fill:#A0E557;" d="M249.333,327H108c-24.301,0-44-19.699-44-44l0,0c0-24.301,19.699-44,44-44h141.333V327z"/>
<path style="fill:#FF5D5D;" d="M436.069,354.525l59.203,57.919c9.033,9.033,8.962,23.886-0.159,33.007l0,0
	c-9.121,9.121-23.974,9.192-33.007,0.159l-59.203-57.919L436.069,354.525z"/>
<circle style="fill:#72D8FF;" cx="331.54" cy="283" r="89"/>
<path d="M212.214,83h200.177c5.522,0,10-4.478,10-10s-4.478-10-10-10H212.214c-5.522,0-10,4.478-10,10S206.691,83,212.214,83z"/>
<path d="M103.75,83c2.63,0,5.21-1.07,7.069-2.931c1.86-1.859,2.931-4.439,2.931-7.069s-1.07-5.21-2.931-7.07
	C108.96,64.07,106.38,63,103.75,63c-2.641,0-5.21,1.069-7.07,2.93c-1.87,1.86-2.93,4.44-2.93,7.07s1.06,5.21,2.93,7.069
	C98.54,81.93,101.109,83,103.75,83z"/>
<path d="M67,83c2.63,0,5.21-1.07,7.069-2.931C75.93,78.21,77,75.63,77,73s-1.07-5.21-2.931-7.07C72.21,64.07,69.63,63,67,63
	s-5.21,1.069-7.07,2.93S57,70.37,57,73s1.069,5.21,2.93,7.069C61.79,81.93,64.37,83,67,83z"/>
<path d="M140.5,83c2.63,0,5.21-1.07,7.069-2.931C149.43,78.21,150.5,75.63,150.5,73s-1.07-5.21-2.931-7.07
	C145.71,64.07,143.13,63,140.5,63c-2.641,0-5.22,1.069-7.07,2.93c-1.87,1.86-2.93,4.44-2.93,7.07s1.06,5.21,2.93,7.069
	C135.28,81.93,137.859,83,140.5,83z"/>
<path d="M379,465H20V119h431.891c0.037,0,0.073-0.005,0.109-0.006V327c0,5.522,4.478,10,10,10s10-4.478,10-10V37
	c0-5.522-4.478-10-10-10H10C4.478,27,0,31.478,0,37v438c0,5.522,4.478,10,10,10h369c5.522,0,10-4.478,10-10S384.522,465,379,465z
	 M452,47v52.006c-0.037,0-0.073-0.006-0.109-0.006H20V47H452z"/>
<path d="M418.58,465c-2.63,0-5.21,1.069-7.07,2.93s-2.93,4.44-2.93,7.07s1.069,5.21,2.93,7.069c1.86,1.86,4.44,2.931,7.07,2.931
	c2.64,0,5.21-1.07,7.069-2.931c1.86-1.859,2.931-4.439,2.931-7.069s-1.07-5.21-2.931-7.07C423.79,466.07,421.22,465,418.58,465z"/>
<path d="M502.343,405.372c-0.026-0.025-0.052-0.052-0.078-0.077l-59.202-57.919c-3.916-3.831-10.187-3.798-14.064,0.077
	l-10.404,10.404l-11.251-11.251c14.47-17.216,23.201-39.409,23.201-63.606c0-54.589-44.411-99-99-99
	c-34.68,0-65.248,17.928-82.935,45H108c-29.775,0-54,24.225-54,54s24.225,54,54,54h140.609c17.687,27.072,48.254,45,82.935,45
	c23.203,0,44.564-8.027,61.461-21.446L404.451,372l-8.619,8.619c-1.889,1.889-2.943,4.455-2.929,7.126s1.098,5.226,3.007,7.094
	l59.167,57.884c6.227,6.205,14.521,9.615,23.381,9.615c0.055,0,0.111,0,0.166,0c8.906-0.043,17.272-3.529,23.559-9.816
	c6.288-6.287,9.774-14.653,9.817-23.56C512.043,420.021,508.613,411.643,502.343,405.372z M108,317c-18.748,0-34-15.252-34-34
	s15.252-34,34-34h130.56c-3.891,10.608-6.016,22.06-6.016,34s2.125,23.392,6.016,34H108z M252.544,283c0-43.561,35.439-79,79-79
	s79,35.439,79,79s-35.439,79-79,79S252.544,326.561,252.544,283z M488.041,438.38c-2.535,2.535-5.913,3.94-9.513,3.958
	c-0.022,0-0.045,0-0.067,0c-3.538,0-6.833-1.348-9.284-3.8c-0.026-0.025-0.052-0.052-0.078-0.077l-51.976-50.849l8.536-8.536
	c0.002-0.002,0.004-0.003,0.006-0.005s0.003-0.004,0.005-0.006l10.476-10.476l52.086,50.957c2.447,2.464,3.784,5.771,3.768,9.319
	C491.982,432.466,490.577,435.844,488.041,438.38z"/>
<path d="M164.46,272.97c-2.641,0-5.22,1.07-7.07,2.93c-1.87,1.86-2.93,4.431-2.93,7.07c0,2.63,1.06,5.21,2.93,7.07
	c1.86,1.859,4.43,2.93,7.07,2.93c2.63,0,5.2-1.07,7.07-2.93c1.859-1.87,2.93-4.44,2.93-7.07s-1.07-5.21-2.93-7.07
	C169.66,274.03,167.09,272.97,164.46,272.97z"/>
<path d="M123,273.28c-2.63,0-5.21,1.06-7.07,2.92c-1.86,1.869-2.93,4.449-2.93,7.08c0,2.63,1.069,5.21,2.93,7.069
	c1.86,1.86,4.44,2.931,7.07,2.931s5.21-1.07,7.069-2.931c1.86-1.87,2.931-4.439,2.931-7.069c0-2.631-1.07-5.211-2.931-7.08
	C128.21,274.34,125.63,273.28,123,273.28z"/>
<path d="M205.91,272.66c-2.63,0-5.21,1.069-7.07,2.93s-2.93,4.44-2.93,7.07s1.069,5.21,2.93,7.069c1.86,1.86,4.44,2.931,7.07,2.931
	s5.21-1.07,7.069-2.931c1.86-1.859,2.931-4.439,2.931-7.069s-1.07-5.21-2.931-7.07C211.12,273.73,208.55,272.66,205.91,272.66z"/>
<path d="M331.544,232c-5.522,0-10,4.478-10,10s4.478,10,10,10c17.094,0,31,13.906,31,31c0,5.522,4.478,10,10,10s10-4.478,10-10
	C382.544,254.879,359.665,232,331.544,232z"/>
<path d="M200.5,389c5.522,0,10-4.478,10-10s-4.478-10-10-10h-77.499c-5.522,0-10,4.478-10,10s4.478,10,10,10H200.5z"/>
<path d="M249.609,386.07c1.87-1.859,2.931-4.439,2.931-7.069s-1.061-5.21-2.931-7.07c-1.859-1.86-4.43-2.93-7.069-2.93
	c-2.63,0-5.21,1.069-7.07,2.93s-2.93,4.44-2.93,7.07s1.069,5.21,2.93,7.069c1.87,1.86,4.44,2.931,7.07,2.931
	S247.75,387.93,249.609,386.07z"/>
<g>
</g>
<g>
</g>
<g>
</g>
<g>
</g>
<g>
</g>
<g>
</g>
<g>
</g>
<g>
</g>
<g>
</g>
<g>
</g>
<g>
</g>
<g>
</g>
<g>
</g>
<g>
</g>
<g>
</g>
</svg>
