<?xml version="1.0" encoding="iso-8859-1"?>
<!-- Generator: Adobe Illustrator 19.0.0, SVG Export Plug-In . SVG Version: 6.00 Build 0)  -->
<svg version="1.1" id="Capa_1" xmlns="http://www.w3.org/2000/svg" xmlns:xlink="http://www.w3.org/1999/xlink" x="0px" y="0px"
	 viewBox="0 0 512 512" style="enable-background:new 0 0 512 512;" xml:space="preserve">
<rect x="140.01" y="462" style="fill:#7D9BFF;" width="178.05" height="40"/>
<rect x="189.04" y="408" style="fill:#EDF2FA;" width="80" height="53.996"/>
<rect x="10" y="350" style="fill:#7D9BFF;" width="438" height="58"/>
<g>
	<rect x="10" y="95" style="fill:#C9F3FF;" width="438" height="255"/>
	<path style="fill:#C9F3FF;" d="M280.341,104.611L246,132.188v127.48c0,11.782,9.551,21.333,21.333,21.333h213.333
		c11.782,0,21.333-9.551,21.333-21.333v-127.48l-34.341-26.743"/>
</g>
<rect x="282.42" y="10" style="fill:#FFFFFF;" width="183.15" height="213.28"/>
<path style="fill:#99BBFF;" d="M408.862,225.633h-72.571L246,132.188v127.48c0,11.782,9.551,21.333,21.333,21.333h213.333
	c11.782,0,21.333-9.551,21.333-21.333v-127.48L408.862,225.633z"/>
<path style="fill:#7D9BFF;" d="M263.719,277.359l89.664-81.454c11.692-10.621,29.54-10.621,41.232,0l89.664,81.454H263.719z"/>
<path style="fill:#A0E557;" d="M124.02,141.001L124.02,141.001c38.66,0,70,31.34,70,70l0,0c0,38.66-31.34,70-70,70l0,0
	c-38.66,0-70-31.34-70-70l0,0C54.021,172.341,85.361,141.001,124.02,141.001z"/>
<path style="fill:#FF5D5D;" d="M75.931,257.669v-3.951c0-7.01,4.492-13.23,11.146-15.435l23.975-7.945h25.937l23.975,7.945
	c6.654,2.205,11.146,8.426,11.146,15.435v3.951l-48.089,23.333L75.931,257.669z"/>
<path style="fill:#FFCDAC;" d="M124.021,234.126L124.021,234.126c13.464,0,24.379-10.915,24.379-24.379v-6.36
	c0-13.464-10.915-24.379-24.379-24.379l0,0c-13.464,0-24.379,10.915-24.379,24.379v6.36
	C99.642,223.211,110.557,234.126,124.021,234.126z"/>
<path d="M508.253,124.391c-0.038-0.031-0.066-0.06-0.108-0.093l-32.567-25.361V10c0-5.522-4.478-10-10-10H282.423
	c-5.522,0-10,4.478-10,10v88.145l-32.685,26.246c-0.019,0.015-0.033,0.03-0.051,0.045c-0.076,0.062-0.148,0.13-0.222,0.194
	c-0.038,0.034-0.079,0.069-0.113,0.103c-2.052,1.831-3.352,4.488-3.352,7.455v127.479C236,276.944,250.056,291,267.333,291H438
	v49.043c-0.301-0.027-0.605-0.046-0.914-0.046H20v-235h194.154c5.522,0,10-4.478,10-10s-4.478-10-10-10H10c-5.522,0-10,4.478-10,10
	V408c0,5.522,4.478,10,10,10h169.036v33.996h-39.024c-5.522,0-10,4.478-10,10V502c0,5.522,4.478,10,10,10h178.05
	c5.522,0,10-4.478,10-10v-40.004c0-5.522-4.478-10-10-10h-39.025V418H448c5.522,0,10-4.478,10-10V291.001h22.667
	c17.277,0,31.333-14.056,31.333-31.333v-127.48C512,129.034,510.535,126.224,508.253,124.391z M308.062,492h-158.05v-20.004h158.05
	V492z M259.036,451.996h-60V418h60V451.996z M20,398v-38.002h417.086c0.309,0,0.613-0.019,0.914-0.046V398H20z M488.585,267.761
	L458,239.976v-49.645l34-34v103.337C492,262.837,490.689,265.702,488.585,267.761z M448.232,271.001
	c-0.078-0.002-0.154-0.012-0.232-0.012s-0.154,0.01-0.232,0.012H285.59l74.517-67.693c7.921-7.194,19.864-7.193,27.785-0.001
	l74.518,67.694H448.232z M256,259.668V156.331l60.014,60.013l-56.599,51.417C257.311,265.702,256,262.837,256,259.668z
	 M431.987,216.344l6.013-6.013v11.476L431.987,216.344z M486.923,133.122l-11.346,11.346v-20.182L486.923,133.122z M455.577,20
	v68.484c-1.834-2.131-4.545-3.486-7.577-3.486h-45.658c-5.522,0-10,4.478-10,10s4.478,10,10,10h7.22
	c0.232,2.281,1.254,4.447,2.878,6.071c1.86,1.86,4.44,2.931,7.07,2.931s5.21-1.07,7.07-2.931c1.623-1.623,2.645-3.796,2.878-6.071
	H438v77.048l-20.834,20.834l-15.826-14.377c-15.586-14.158-39.094-14.159-54.68,0.001l-15.826,14.376l-38.412-38.412V20H455.577z
	 M272.423,144.469l-11.466-11.466l11.466-9.207V144.469z"/>
<path d="M44.021,211.001c0,44.112,35.888,80,80,80s80-35.888,80-80s-35.888-80-80-80S44.021,166.889,44.021,211.001z
	 M85.932,257.326v-3.609c0-2.704,1.725-5.092,4.291-5.942l19.898-6.594c4.253,1.888,8.954,2.946,13.899,2.946
	c4.945,0,9.646-1.058,13.899-2.946l19.898,6.594c2.566,0.851,4.291,3.238,4.291,5.942v3.609
	c-10.368,8.54-23.64,13.675-38.089,13.675S96.299,265.865,85.932,257.326z M138.399,209.747c0,4.921-2.487,9.269-6.268,11.862
	c-0.282,0.157-0.556,0.327-0.822,0.511c-2.141,1.266-4.627,2.006-7.289,2.006c-2.664,0-5.152-0.741-7.293-2.009
	c-0.264-0.182-0.536-0.351-0.815-0.506c-3.782-2.593-6.271-6.942-6.271-11.864v-6.359c0-7.929,6.45-14.379,14.379-14.379
	s14.379,6.45,14.379,14.379L138.399,209.747L138.399,209.747z M184.021,211.001c0,9.931-2.439,19.297-6.729,27.555
	c-3.161-4.47-7.712-7.953-13.183-9.766l-9.602-3.182c2.48-4.749,3.892-10.142,3.892-15.861v-6.359
	c0-18.957-15.422-34.379-34.379-34.379s-34.379,15.422-34.379,34.379v6.359c0,5.719,1.412,11.112,3.892,15.861l-9.602,3.182
	c-5.471,1.813-10.021,5.295-13.183,9.766c-4.289-8.258-6.729-17.624-6.729-27.555c0-33.084,26.916-60,60-60
	S184.021,177.917,184.021,211.001z"/>
<path d="M329.008,74h90.502c5.522,0,10-4.478,10-10s-4.478-10-10-10h-90.502c-5.522,0-10,4.478-10,10S323.485,74,329.008,74z"/>
<path d="M329.008,114H381.5c5.522,0,10-4.478,10-10s-4.478-10-10-10h-52.492c-5.522,0-10,4.478-10,10S323.485,114,329.008,114z"/>
<path d="M355.5,144c0,5.522,4.478,10,10,10h54.01c5.522,0,10-4.478,10-10s-4.478-10-10-10H365.5
	C359.978,134,355.5,138.478,355.5,144z"/>
<path d="M328.954,154h0.304c5.522,0,10-4.478,10-10s-4.478-10-10-10h-0.304c-5.522,0-10,4.478-10,10S323.432,154,328.954,154z"/>
<g>
</g>
<g>
</g>
<g>
</g>
<g>
</g>
<g>
</g>
<g>
</g>
<g>
</g>
<g>
</g>
<g>
</g>
<g>
</g>
<g>
</g>
<g>
</g>
<g>
</g>
<g>
</g>
<g>
</g>
</svg>
