<?xml version="1.0" encoding="iso-8859-1"?>
<!-- Generator: Adobe Illustrator 19.0.0, SVG Export Plug-In . SVG Version: 6.00 Build 0)  -->
<svg version="1.1" id="Capa_1" xmlns="http://www.w3.org/2000/svg" xmlns:xlink="http://www.w3.org/1999/xlink" x="0px" y="0px"
	 viewBox="0 0 512 512" style="enable-background:new 0 0 512 512;" xml:space="preserve">
<polygon style="fill:#EDF2FA;" points="64,337.986 64,502 502,502 502,277.988 502,192.833 502,10 64,10 64,115 "/>
<rect x="64" y="10" style="fill:#7D9BFF;" width="438.01" height="72"/>
<path style="fill:#231F20;" d="M74.109,82H497"/>
<rect x="10" y="154" style="fill:#ADE5FF;" width="134" height="134"/>
<polygon style="fill:#D8FB93;" points="13.5,284 70.25,227.25 125.75,282.75 84.5,241.5 116.5,209.5 143.875,236.875 143.875,284 
	"/>
<polygon style="fill:#B3B6C3;" points="144,204 144,288 103,288 103,338 237,338 237,204 "/>
<rect x="103" y="394" style="fill:#FF5D5D;" width="360" height="67.938"/>
<path d="M445,36H258.824c-5.523,0-10,4.478-10,10s4.477,10,10,10H445c5.523,0,10-4.478,10-10S450.523,36,445,36z"/>
<path d="M150.36,36c-2.63,0-5.21,1.069-7.07,2.93c-1.86,1.86-2.93,4.44-2.93,7.07s1.07,5.21,2.93,7.069
	c1.86,1.86,4.43,2.931,7.07,2.931c2.63,0,5.21-1.07,7.07-2.931c1.86-1.859,2.93-4.439,2.93-7.069s-1.07-5.21-2.93-7.07
	C155.57,37.069,152.99,36,150.36,36z"/>
<path d="M113.61,36c-2.63,0-5.21,1.069-7.07,2.93c-1.86,1.86-2.93,4.44-2.93,7.07s1.07,5.21,2.93,7.069
	c1.86,1.86,4.44,2.931,7.07,2.931s5.21-1.07,7.07-2.931c1.86-1.859,2.93-4.439,2.93-7.069s-1.07-5.21-2.93-7.07
	C118.82,37.069,116.24,36,113.61,36z"/>
<path d="M187.11,36c-2.64,0-5.21,1.069-7.08,2.93c-1.86,1.86-2.93,4.44-2.93,7.07s1.07,5.21,2.93,7.069
	c1.86,1.86,4.44,2.931,7.08,2.931c2.63,0,5.21-1.07,7.07-2.931c1.86-1.859,2.93-4.439,2.93-7.069s-1.07-5.21-2.93-7.07
	C192.31,37.069,189.74,36,187.11,36z"/>
<path d="M502,225c-2.64,0-5.21,1.069-7.07,2.93c-1.86,1.86-2.93,4.44-2.93,7.07s1.07,5.21,2.93,7.069
	c1.86,1.86,4.44,2.931,7.07,2.931s5.21-1.07,7.07-2.931c1.86-1.859,2.93-4.439,2.93-7.069s-1.07-5.21-2.93-7.07S504.63,225,502,225z
	"/>
<path d="M502,0H64c-5.523,0-10,4.478-10,10v105c0,5.522,4.477,10,10,10s10-4.478,10-10V91.995c0.037,0,0.073,0.005,0.109,0.005H492
	v100.833c0,5.522,4.477,10,10,10s10-4.478,10-10V10C512,4.478,507.523,0,502,0z M74.109,72c-0.037,0-0.073,0.005-0.109,0.005V20h418
	v52H74.109z"/>
<path d="M502,267.987c-5.523,0-10,4.478-10,10V492H74V337.986c0-5.522-4.477-10-10-10s-10,4.478-10,10V502c0,5.522,4.477,10,10,10
	h438c5.523,0,10-4.478,10-10V277.987C512,272.465,507.523,267.987,502,267.987z"/>
<path d="M93,338c0,5.522,4.477,10,10,10h134c5.523,0,10-4.478,10-10V204c0-5.522-4.477-10-10-10h-83v-40c0-5.522-4.477-10-10-10H10
	c-5.523,0-10,4.478-10,10v134c0,5.522,4.477,10,10,10h83V338z M133.875,276.918c-0.313-0.435-0.664-0.849-1.054-1.239L98.642,241.5
	l17.858-17.857l17.375,17.375V276.918z M106.857,278H103H33.643l36.607-36.607L106.857,278z M227,214v114H113v-30h31
	c5.523,0,10-4.478,10-10v-74H227z M134,164v40v8.857l-10.429-10.429c-3.905-3.904-10.237-3.904-14.143,0L84.5,227.357l-7.179-7.179
	c-3.905-3.904-10.237-3.904-14.143,0L20,263.357V164H134z"/>
<path d="M45,205c2.63,0,5.21-1.07,7.07-2.931C53.93,200.21,55,197.63,55,195s-1.07-5.21-2.93-7.07S47.63,185,45,185
	s-5.21,1.069-7.07,2.93C36.07,189.79,35,192.37,35,195s1.07,5.21,2.93,7.069C39.79,203.93,42.37,205,45,205z"/>
<path d="M93,394v67.938c0,5.522,4.477,10,10,10h360c5.523,0,10-4.478,10-10V394c0-5.522-4.477-10-10-10H103
	C97.477,384,93,388.478,93,394z M113,404h340v47.938H113V404z"/>
<path d="M287.767,214H452c5.523,0,10-4.478,10-10s-4.477-10-10-10H287.767c-5.523,0-10,4.478-10,10S282.244,214,287.767,214z"/>
<path d="M287.767,258.667H452c5.523,0,10-4.478,10-10s-4.477-10-10-10H287.767c-5.523,0-10,4.478-10,10
	S282.244,258.667,287.767,258.667z"/>
<path d="M287.767,303.333H452c5.523,0,10-4.478,10-10s-4.477-10-10-10H287.767c-5.523,0-10,4.478-10,10
	S282.244,303.333,287.767,303.333z"/>
<path d="M287.767,348h67.238c5.523,0,10-4.478,10-10s-4.477-10-10-10h-67.238c-5.523,0-10,4.478-10,10S282.244,348,287.767,348z"/>
<path d="M452,144H254.75c-5.523,0-10,4.478-10,10s4.477,10,10,10H452c5.523,0,10-4.478,10-10S457.523,144,452,144z"/>
<path d="M212.07,161.069c1.86-1.859,2.93-4.439,2.93-7.069s-1.07-5.21-2.93-7.07S207.63,144,205,144s-5.21,1.069-7.07,2.93
	c-1.86,1.86-2.93,4.44-2.93,7.07s1.07,5.21,2.93,7.069c1.86,1.86,4.44,2.931,7.07,2.931S210.21,162.93,212.07,161.069z"/>
<g>
</g>
<g>
</g>
<g>
</g>
<g>
</g>
<g>
</g>
<g>
</g>
<g>
</g>
<g>
</g>
<g>
</g>
<g>
</g>
<g>
</g>
<g>
</g>
<g>
</g>
<g>
</g>
<g>
</g>
</svg>
