<?xml version="1.0" encoding="iso-8859-1"?>
<!-- Generator: Adobe Illustrator 19.0.0, SVG Export Plug-In . SVG Version: 6.00 Build 0)  -->
<svg version="1.1" id="Capa_1" xmlns="http://www.w3.org/2000/svg" xmlns:xlink="http://www.w3.org/1999/xlink" x="0px" y="0px"
	 viewBox="0 0 512.001 512.001" style="enable-background:new 0 0 512.001 512.001;" xml:space="preserve">
<path style="fill:#FFB954;" d="M375.113,479.783l18.702-6.044c4.665,3.778,9.929,6.845,15.628,9.037l4.118,19.221h33.311
	l4.118-19.221c5.699-2.192,10.963-5.259,15.628-9.037l18.702,6.044l16.678-28.837L487.4,437.761
	c0.461-2.942,0.702-5.956,0.702-9.028c0-3.071-0.241-6.086-0.702-9.027l14.597-13.186l-16.679-28.838l-18.702,6.044
	c-4.665-3.778-9.929-6.845-15.628-9.037l-4.118-19.222H413.56l-4.118,19.222c-5.699,2.192-10.963,5.259-15.628,9.037l-18.702-6.044
	l-16.679,28.838l14.597,13.185c-0.461,2.942-0.702,5.956-0.702,9.027c0,3.071,0.241,6.086,0.702,9.028l-14.597,13.185
	L375.113,479.783z"/>
<path style="fill:#C9F3FF;" d="M24.239,112.008h83.523c7.864,0,14.239-6.375,14.239-14.239V24.24
	c0-7.864-6.375-14.239-14.239-14.239H24.239C16.375,10.001,10,16.376,10,24.24v73.53C10,105.633,16.375,112.008,24.239,112.008z"/>
<circle style="fill:#FFDFE0;" cx="430.217" cy="428.737" r="20"/>
<path style="fill:#FF5D5D;" d="M323.945,224.827c18.225-18.225,18.225-47.773,0-65.998s-47.773-18.225-65.998,0L323.945,224.827z"/>
<path style="fill:#B3B6C3;" d="M171.791,400.309l-54.044,54.044c-24.649,24.649-64.613,24.649-89.261,0l0,0
	c-24.649-24.649-24.649-64.613,0-89.261l54.044-54.044L171.791,400.309z"/>
<polygon style="fill:#6A80FF;" points="171.809,400.336 235.061,463.587 196.65,501.998 133.375,438.724 "/>
<polygon style="fill:#C9F3FF;" points="171.809,400.336 82.53,311.047 180.372,81.253 401.521,302.402 "/>
<polygon style="fill:#7D9BFF;" points="342.57,327.535 401.521,302.402 180.371,81.253 155.262,140.227 "/>
<path style="fill:#FF5D5D;" d="M63.415,42.432l15.227,8.791c7.53,4.348,7.53,15.217,0,19.564l-15.227,8.791
	c-7.53,4.348-16.943-1.087-16.943-9.782V52.214C46.472,43.519,55.885,38.084,63.415,42.432z"/>
<path d="M177.149,176.25c1.86,1.859,4.44,2.93,7.07,2.93s5.21-1.07,7.07-2.93c1.86-1.86,2.93-4.431,2.93-7.07
	c0-2.63-1.07-5.21-2.93-7.07c-1.86-1.859-4.44-2.93-7.07-2.93s-5.21,1.07-7.07,2.93c-1.86,1.86-2.93,4.44-2.93,7.07
	S175.289,174.39,177.149,176.25z"/>
<path d="M189.346,403.731l216.097-92.129c3.055-1.303,5.265-4.038,5.896-7.299c0.631-3.261-0.398-6.623-2.747-8.972l-71.143-71.142
	c15.381-22.083,13.247-52.75-6.434-72.431c-10.703-10.703-24.934-16.598-40.07-16.598c-11.746,0-22.939,3.564-32.369,10.156
	l-71.135-71.135c-2.35-2.35-5.711-3.381-8.974-2.746c-3.262,0.632-5.997,2.843-7.298,5.9L74.088,305.344l-52.673,52.674
	C7.605,371.829,0,390.191,0,409.721c0,19.531,7.605,37.893,21.416,51.702c13.81,13.811,32.172,21.416,51.702,21.416
	c19.531,0,37.892-7.605,51.702-21.416l8.556-8.556l56.204,56.204c1.953,1.952,4.512,2.929,7.071,2.929s5.119-0.977,7.071-2.929
	l38.411-38.411c3.905-3.905,3.905-10.237,0-14.143L189.346,403.731z M290.946,155.161c9.794,0,19.002,3.814,25.928,10.74
	c11.845,11.844,13.866,29.84,6.083,43.795l-49.889-49.889C278.471,156.78,284.582,155.161,290.946,155.161z M183.771,98.795
	l200.213,200.212l-39.163,16.697c-0.18-0.213-0.364-0.424-0.564-0.624L217.588,188.411c-3.905-3.904-10.237-3.904-14.143,0
	c-3.905,3.905-3.905,10.237,0,14.143l121.587,121.587l-150.923,64.344L94.375,308.75L183.771,98.795z M110.677,447.28
	c-10.033,10.033-23.372,15.559-37.56,15.559s-27.527-5.525-37.56-15.559C25.525,437.247,20,423.909,20,409.721
	c0-14.188,5.525-27.527,15.558-37.56l46.972-46.973l1.432,1.432l73.684,73.693L110.677,447.28z M196.65,487.856l-49.132-49.132
	l24.269-24.268l49.133,49.132L196.65,487.856z"/>
<path d="M381.165,112.167c2.559,0,5.119-0.977,7.071-2.929l26.837-26.837c3.905-3.905,3.906-10.237,0-14.143
	c-3.906-3.903-10.237-3.904-14.142,0l-26.837,26.837c-3.905,3.905-3.906,10.237,0,14.143
	C376.047,111.191,378.605,112.167,381.165,112.167z"/>
<path d="M356.618,136.71c2.63,0,5.21-1.07,7.07-2.93c1.87-1.86,2.93-4.44,2.93-7.07s-1.06-5.21-2.93-7.07
	c-1.86-1.859-4.43-2.93-7.07-2.93c-2.63,0-5.21,1.07-7.07,2.93c-1.86,1.86-2.93,4.44-2.93,7.07s1.07,5.21,2.93,7.07
	C351.418,135.64,353.988,136.71,356.618,136.71z"/>
<path d="M301.349,85.33c5.523,0,10-4.478,10-10V38.58c0-5.522-4.477-10-10-10s-10,4.478-10,10v36.752
	C291.349,80.853,295.826,85.33,301.349,85.33z"/>
<path d="M444.563,170.412h-37.981c-5.523,0-10,4.478-10,10s4.477,10,10,10h37.981c5.523,0,10-4.478,10-10
	S450.086,170.412,444.563,170.412z"/>
<path d="M430.215,398.734c-16.542,0-30,13.458-30,30c0,16.542,13.458,30,30,30c16.542,0,30-13.458,30-30
	C460.215,412.192,446.757,398.734,430.215,398.734z M430.215,438.733c-5.514,0-10-4.486-10-10s4.486-10,10-10s10,4.486,10,10
	S435.729,438.733,430.215,438.733z"/>
<path d="M510.653,401.514l-16.679-28.837c-2.359-4.08-7.247-5.958-11.731-4.509l-13.803,4.46c-2.79-1.904-5.713-3.595-8.751-5.061
	l-3.041-14.194c-0.988-4.611-5.063-7.905-9.778-7.905H413.56c-4.716,0-8.791,3.294-9.778,7.905l-3.041,14.194
	c-3.038,1.466-5.961,3.156-8.751,5.061l-13.803-4.46c-4.487-1.449-9.372,0.431-11.731,4.509l-16.679,28.837
	c-2.362,4.085-1.548,9.265,1.953,12.428l10.785,9.742c-0.125,1.683-0.188,3.369-0.188,5.05c0,1.681,0.063,3.367,0.188,5.05
	l-10.785,9.742c-3.501,3.163-4.315,8.343-1.953,12.428l16.679,28.838c2.359,4.08,7.247,5.957,11.731,4.509l13.803-4.461
	c2.791,1.905,5.714,3.596,8.751,5.062l3.041,14.193c0.988,4.611,5.063,7.905,9.778,7.905h33.311c4.716,0,8.791-3.294,9.778-7.905
	l3.041-14.193c3.037-1.466,5.96-3.156,8.751-5.062l13.803,4.461c4.486,1.448,9.372-0.431,11.731-4.509l16.679-28.838
	c2.362-4.085,1.548-9.265-1.953-12.428l-10.785-9.742c0.125-1.683,0.188-3.369,0.188-5.05c0-1.681-0.063-3.367-0.188-5.05
	l10.785-9.742C512.202,410.779,513.016,405.599,510.653,401.514z M477.52,421.252c0.386,2.466,0.582,4.982,0.582,7.48
	c0,2.498-0.196,5.015-0.582,7.48c-0.521,3.334,0.673,6.706,3.177,8.968l8.593,7.762l-8.583,14.841l-11.015-3.56
	c-3.218-1.039-6.741-0.382-9.369,1.744c-3.908,3.165-8.257,5.681-12.924,7.475c-3.154,1.213-5.481,3.936-6.189,7.239l-2.424,11.316
	h-17.142l-2.424-11.316c-0.708-3.304-3.036-6.026-6.189-7.239c-4.667-1.794-9.016-4.31-12.924-7.475
	c-2.627-2.128-6.152-2.784-9.369-1.744l-11.015,3.56l-8.583-14.841l8.593-7.762c2.504-2.262,3.698-5.634,3.177-8.968
	c-0.386-2.466-0.582-4.982-0.582-7.48c0-2.498,0.196-5.015,0.582-7.48c0.521-3.334-0.673-6.706-3.177-8.968l-8.593-7.762
	l8.583-14.841l11.015,3.56c3.217,1.04,6.742,0.383,9.368-1.744c3.907-3.164,8.255-5.679,12.925-7.476
	c3.153-1.213,5.48-3.936,6.188-7.238l2.424-11.316h17.142l2.424,11.316c0.708,3.303,3.035,6.025,6.188,7.238
	c4.67,1.797,9.019,4.312,12.925,7.476c2.627,2.127,6.15,2.782,9.368,1.744l11.015-3.56l8.583,14.841l-8.593,7.762
	C478.193,414.547,476.999,417.918,477.52,421.252z"/>
<path d="M440.13,87.88c1.27,0.536,2.588,0.79,3.885,0.79c3.899,0,7.605-2.296,9.217-6.113l3.627-8.591h32.299l3.627,8.591
	c2.148,5.087,8.014,7.471,13.102,5.323c5.088-2.148,7.472-8.014,5.324-13.103l-28.99-68.666c-1.563-3.703-5.193-6.11-9.213-6.11
	c-4.02,0-7.649,2.407-9.213,6.11l-28.989,68.667C432.658,79.866,435.041,85.732,440.13,87.88z M473.008,35.713l7.706,18.254h-15.412
	L473.008,35.713z"/>
<path d="M24.239,122.008h83.522c13.365,0,24.239-10.874,24.239-24.239V24.24c0-13.365-10.874-24.238-24.239-24.238H24.239
	C10.874,0.001,0,10.874,0,24.24v73.53C0,111.134,10.874,122.008,24.239,122.008z M20,24.24c0-2.337,1.901-4.238,4.239-4.238h83.522
	c2.337,0,4.239,1.901,4.239,4.238v73.53c0,2.338-1.901,4.239-4.239,4.239H24.239c-2.337,0-4.239-1.901-4.239-4.239V24.24z"/>
<path d="M47.12,88.238c3.333,1.925,6.99,2.887,10.647,2.887s7.314-0.962,10.647-2.887l15.227-8.791
	c6.667-3.85,10.648-10.744,10.648-18.442s-3.98-14.593-10.648-18.442l-15.227-8.791c-6.667-3.849-14.628-3.85-21.295,0
	S36.471,44.516,36.471,52.215v17.582C36.472,77.495,40.453,84.388,47.12,88.238z M56.472,52.214c0-0.205,0-0.748,0.648-1.122
	c0.247-0.143,0.468-0.191,0.657-0.191c0.307,0,0.529,0.128,0.638,0.191l15.227,8.791c0.177,0.103,0.648,0.374,0.648,1.122
	s-0.471,1.02-0.648,1.122l-15.227,8.791c-0.177,0.103-0.648,0.374-1.295,0c-0.648-0.374-0.648-0.917-0.648-1.122V52.214z"/>
<path d="M58.833,217.969c-5.523,0-10,4.478-10,10s4.477,10,10,10h7.217c5.523,0,10-4.478,10-10s-4.477-10-10-10H58.833z"/>
<path d="M48.025,200.25c0-5.522-4.477-10-10-10s-10,4.478-10,10v6.362c0,5.522,4.477,10,10,10s10-4.478,10-10V200.25z"/>
<path d="M10,237.969h6.363c5.523,0,10-4.478,10-10s-4.477-10-10-10H10c-5.523,0-10,4.478-10,10S4.477,237.969,10,237.969z"/>
<path d="M38.025,239c-5.523,0-10,4.478-10,10v7.301c0,5.522,4.477,10,10,10s10-4.478,10-10v-7.301
	C48.025,243.478,43.548,239,38.025,239z"/>
<g>
</g>
<g>
</g>
<g>
</g>
<g>
</g>
<g>
</g>
<g>
</g>
<g>
</g>
<g>
</g>
<g>
</g>
<g>
</g>
<g>
</g>
<g>
</g>
<g>
</g>
<g>
</g>
<g>
</g>
</svg>
