<?xml version="1.0" encoding="iso-8859-1"?>
<!-- Generator: Adobe Illustrator 19.0.0, SVG Export Plug-In . SVG Version: 6.00 Build 0)  -->
<svg version="1.1" id="Capa_1" xmlns="http://www.w3.org/2000/svg" xmlns:xlink="http://www.w3.org/1999/xlink" x="0px" y="0px"
	 viewBox="0 0 512 512" style="enable-background:new 0 0 512 512;" xml:space="preserve">
<polygon style="fill:#EDF2FA;" points="502,502 10,502 10,10 502,10 502,115 "/>
<rect x="10" y="10" style="fill:#99BBFF;" width="492" height="72"/>
<path style="fill:#231F20;" d="M21.004,82H496"/>
<rect x="64" y="130" style="fill:#FE8F8D;" width="140" height="144"/>
<path style="fill:#FFB954;" d="M502,202.379l-40-82l-40,82V480.25c0,12.012,9.738,21.75,21.75,21.75h36.5
	c12.012,0,21.75-9.738,21.75-21.75V202.379z"/>
<path style="fill:#FE8F8D;" d="M479.917,502h-35.833C431.887,502,422,492.113,422,479.917v-35.376h80v35.376
	C502,492.113,492.113,502,479.917,502z"/>
<polygon style="fill:#D8D8E4;" points="502,202.379 462,120.379 422,202.379 "/>
<path d="M502,125c5.522,0,10-4.477,10-10V10c0-5.523-4.478-10-10-10H10C4.478,0,0,4.477,0,10v492c0,5.522,4.478,10,10,10h470.25
	c17.507,0,31.75-14.243,31.75-31.75V202.379c0-1.52-0.347-3.019-1.013-4.384l-40-82c-1.676-3.436-5.164-5.616-8.987-5.616
	s-7.312,2.18-8.987,5.616l-40,82c-0.666,1.366-1.013,2.865-1.013,4.384V480.25c0,4.15,0.809,8.113,2.263,11.75H20V91.949
	C20.33,91.982,20.665,92,21.004,92H492v23C492,120.523,496.478,125,502,125z M457.667,339.422c-5.522,0-10,4.478-10,10v86.452H432
	V212.379h60v223.495h-24.333v-86.452C467.667,343.899,463.189,339.422,457.667,339.422z M462,143.188l23.996,49.191h-47.991
	L462,143.188z M432,480.25v-24.376h60v24.376c0,6.479-5.271,11.75-11.75,11.75h-36.5C437.271,492,432,486.729,432,480.25z
	 M21.004,72c-0.339,0-0.674,0.018-1.004,0.051V20h472v52H21.004z"/>
<path d="M448,36H222.065c-5.522,0-10,4.477-10,10s4.478,10,10,10H448c5.522,0,10-4.477,10-10S453.522,36,448,36z"/>
<path d="M104,36c-2.641,0-5.21,1.07-7.07,2.93C95.069,40.79,94,43.37,94,46s1.069,5.21,2.93,7.07S101.37,56,104,56
	s5.21-1.07,7.069-2.93C112.93,51.21,114,48.63,114,46s-1.07-5.21-2.931-7.07C109.21,37.07,106.63,36,104,36z"/>
<path d="M64,36c-2.63,0-5.21,1.07-7.07,2.93C55.069,40.79,54,43.37,54,46s1.069,5.21,2.93,7.07S61.37,56,64,56
	c2.63,0,5.21-1.07,7.069-2.93C72.93,51.21,74,48.63,74,46s-1.07-5.21-2.931-7.07C69.21,37.07,66.63,36,64,36z"/>
<path d="M144,36c-2.63,0-5.21,1.07-7.07,2.93S134,43.37,134,46s1.069,5.21,2.93,7.07S141.37,56,144,56s5.21-1.07,7.069-2.93
	C152.93,51.21,154,48.63,154,46s-1.07-5.21-2.931-7.07C149.21,37.07,146.63,36,144,36z"/>
<path d="M214,130c0-5.523-4.478-10-10-10H64c-5.522,0-10,4.477-10,10v144c0,5.522,4.478,10,10,10h140c5.522,0,10-4.478,10-10V130z
	 M194,264H74V140h120V264z"/>
<path d="M467.667,318.34c0-5.522-4.478-10-10-10s-10,4.478-10,10v0.12c0,5.522,4.478,10,10,10s10-4.478,10-10V318.34z"/>
<path d="M379.291,120H251c-5.522,0-10,4.477-10,10c0,5.523,4.478,10,10,10h128.291c5.522,0,10-4.477,10-10S384.813,120,379.291,120z
	"/>
<path d="M379.291,168H251c-5.522,0-10,4.477-10,10s4.478,10,10,10h128.291c5.522,0,10-4.477,10-10S384.813,168,379.291,168z"/>
<path d="M379.291,216H251c-5.522,0-10,4.477-10,10s4.478,10,10,10h128.291c5.522,0,10-4.477,10-10S384.813,216,379.291,216z"/>
<path d="M300.226,284c5.522,0,10-4.478,10-10s-4.478-10-10-10H251c-5.522,0-10,4.478-10,10s4.478,10,10,10H300.226z"/>
<path d="M379.291,332h-120.79c-5.522,0-10,4.478-10,10s4.478,10,10,10h120.79c5.522,0,10-4.478,10-10S384.813,332,379.291,332z"/>
<path d="M203.998,332h-92.946c-5.522,0-10,4.478-10,10s4.478,10,10,10h92.946c5.522,0,10-4.478,10-10S209.521,332,203.998,332z"/>
<path d="M64,352c2.63,0,5.21-1.07,7.069-2.931C72.93,347.21,74,344.63,74,342s-1.07-5.21-2.931-7.07C69.21,333.069,66.63,332,64,332
	s-5.21,1.069-7.07,2.93S54,339.37,54,342s1.069,5.21,2.93,7.069C58.79,350.93,61.37,352,64,352z"/>
<path d="M379.291,380h-120.79c-5.522,0-10,4.478-10,10s4.478,10,10,10h120.79c5.522,0,10-4.478,10-10S384.813,380,379.291,380z"/>
<path d="M203.998,380H64c-5.522,0-10,4.478-10,10s4.478,10,10,10h139.998c5.522,0,10-4.478,10-10S209.521,380,203.998,380z"/>
<path d="M379.291,428h-120.79c-5.522,0-10,4.478-10,10s4.478,10,10,10h120.79c5.522,0,10-4.478,10-10S384.813,428,379.291,428z"/>
<path d="M203.998,428H64c-5.522,0-10,4.478-10,10s4.478,10,10,10h139.998c5.522,0,10-4.478,10-10S209.521,428,203.998,428z"/>
<path d="M101.121,245.546c5.091,2.146,10.954-0.236,13.103-5.324l3.626-8.59h32.3l3.626,8.59c1.612,3.819,5.317,6.113,9.217,6.113
	c1.297,0,2.616-0.254,3.886-0.79c5.088-2.148,7.471-8.014,5.323-13.102l-28.989-68.667c-1.563-3.704-5.193-6.111-9.213-6.111
	s-7.649,2.407-9.213,6.111l-28.989,68.667C93.65,237.532,96.033,243.398,101.121,245.546z M134,193.378l7.707,18.254h-15.413
	L134,193.378z"/>
<g>
</g>
<g>
</g>
<g>
</g>
<g>
</g>
<g>
</g>
<g>
</g>
<g>
</g>
<g>
</g>
<g>
</g>
<g>
</g>
<g>
</g>
<g>
</g>
<g>
</g>
<g>
</g>
<g>
</g>
</svg>
