<?xml version="1.0" encoding="iso-8859-1"?>
<!-- Generator: Adobe Illustrator 19.0.0, SVG Export Plug-In . SVG Version: 6.00 Build 0)  -->
<svg version="1.1" id="Capa_1" xmlns="http://www.w3.org/2000/svg" xmlns:xlink="http://www.w3.org/1999/xlink" x="0px" y="0px"
	 viewBox="0 0 512.001 512.001" style="enable-background:new 0 0 512.001 512.001;" xml:space="preserve">
<path style="fill:#72D8FF;" d="M286.001,40.5v126c0,16.845,13.655,30.5,30.5,30.5h49.265l28.341,36l28.129-36H471.5
	c16.845,0,30.5-13.655,30.5-30.5v-126c0-16.845-13.655-30.5-30.5-30.5h-155C299.656,10,286.001,23.655,286.001,40.5z"/>
<path style="fill:#7D9BFF;" d="M10.001,40.5v126c0,16.845,13.655,30.5,30.5,30.5h49.265l28.341,36l28.129-36h49.265
	c16.845,0,30.5-13.655,30.5-30.5v-126c0-16.845-13.655-30.5-30.5-30.5h-155C23.656,10,10.001,23.655,10.001,40.5z"/>
<polygon style="fill:#FF5D5D;" points="190.737,362.512 190.737,322.054 97.533,322.054 97.533,502 190.737,502 190.737,409.06 "/>
<path style="fill:#FFCDAC;" d="M391.973,367.043l-18.054-0.002c12.423,0,22.493-10.071,22.493-22.493l0,0
	c0-12.423-10.071-22.493-22.493-22.493h-79.236l13.183-39.139c7.178-21.312-4.676-44.341-26.192-50.883l-12.173-3.701
	l-19.128,52.866c-6,16.584-17.865,30.397-33.354,38.831l-25.453,13.86l0.464,154.88l16.186,6.348
	c11.601,4.55,23.951,6.885,36.412,6.885h73.117h23.742h16.746c12.423,0,22.493-10.071,22.493-22.493l0,0
	c0-12.423-10.071-22.493-22.493-22.493h17.485c12.423,0,22.493-10.071,22.493-22.493l0,0c0-12.423-10.071-22.493-22.493-22.493
	h16.255c12.423,0,22.493-10.071,22.493-22.493l0,0C414.466,377.113,404.396,367.043,391.973,367.043z"/>
<path style="fill:#EDF2FA;" d="M446.58,78.995l0.072,3.077c0,31.389-23.904,67.594-67.603,67.594
	c-13.432,0-25.914-3.919-36.449-10.671c1.874,0.208,3.747,0.317,5.657,0.317c11.133,0,21.388-3.783,29.525-10.146
	c-18.109,0-30.511-20.497-30.511-35.974v-0.389c4.316,2.383,9.203,3.854,14.431,3.988c-8.547-5.69-14.2-15.476-14.2-26.54
	c0-5.848,1.569-11.355,4.328-16.06c12.09,14.821,28.728,25.725,47.799,30.613l0.039-0.079c-0.389-1.738-0.606-3.539-0.606-5.413
	c0-13.115,10.644-23.759,23.759-23.759c6.824,0,13.015,2.896,17.324,7.494l13.455,0.002L446.58,78.995z"/>
<path d="M471.501,0h-155c-22.332,0-40.5,18.168-40.5,40.5v126c0,22.332,18.168,40.5,40.5,40.5h44.41l25.338,32.186
	c1.896,2.409,4.792,3.814,7.857,3.814c0.006,0,0.012,0,0.018,0c3.072-0.006,5.971-1.422,7.862-3.843L427.113,207h44.388
	c22.332,0,40.5-18.168,40.5-40.5v-126C512,18.168,493.833,0,471.501,0z M492.001,166.5c0,11.304-9.196,20.5-20.5,20.5h-49.265
	c-3.078,0-5.984,1.417-7.88,3.843l-20.279,25.954l-20.455-25.982c-1.896-2.409-4.792-3.814-7.857-3.814H316.5
	c-11.304,0-20.5-9.196-20.5-20.5v-126c0-11.304,9.196-20.5,20.5-20.5h155c11.304,0,20.5,9.196,20.5,20.5L492.001,166.5
	L492.001,166.5z"/>
<path d="M226.001,97c-2.63,0-5.21,1.07-7.07,2.93s-2.93,4.44-2.93,7.07s1.07,5.21,2.93,7.07c1.86,1.86,4.44,2.93,7.07,2.93
	s5.21-1.07,7.07-2.93s2.93-4.44,2.93-7.07s-1.07-5.21-2.93-7.07C231.211,98.07,228.631,97,226.001,97z"/>
<path d="M118.107,243c0.006,0,0.012,0,0.018,0c3.072-0.006,5.971-1.422,7.862-3.843L151.113,207h44.388
	c22.332,0,40.5-18.168,40.5-40.5v-22.417c0-5.523-4.477-10-10-10s-10,4.477-10,10V166.5c0,11.304-9.196,20.5-20.5,20.5h-49.265
	c-3.078,0-5.984,1.417-7.88,3.843l-20.279,25.954l-20.455-25.982c-1.896-2.409-4.792-3.814-7.857-3.814H40.501
	c-11.304,0-20.5-9.196-20.5-20.5v-126c0-11.304,9.196-20.5,20.5-20.5h155c11.304,0,20.5,9.196,20.5,20.5V64c0,5.523,4.477,10,10,10
	s10-4.477,10-10V40.5c0-22.332-18.168-40.5-40.5-40.5h-155c-22.332,0-40.5,18.168-40.5,40.5v126c0,22.332,18.168,40.5,40.5,40.5
	h44.41l25.338,32.186C112.146,241.595,115.042,243,118.107,243z"/>
<path d="M403.022,358.979c2.167-4.351,3.392-9.25,3.392-14.432c0-17.917-14.576-32.493-32.493-32.493h-65.316l8.74-25.947
	c4.342-12.893,3.305-26.653-2.921-38.749c-6.227-12.095-16.823-20.936-29.839-24.893l-12.173-3.701
	c-5.092-1.547-10.502,1.161-12.313,6.165l-19.128,52.867c-5.174,14.299-15.378,26.179-28.733,33.451l-12.318,6.707
	c-1.566-3.476-5.054-5.9-9.114-5.9h-93.27c-5.523,0-10,4.478-10,10V502c0,5.522,4.477,10,10,10h93.271
	c5.208,0,9.482-3.982,9.953-9.067l3.807,1.493c12.816,5.026,26.295,7.575,40.063,7.575h113.605
	c17.917,0,32.493-14.576,32.493-32.493c0-5.254-1.261-10.216-3.484-14.611c12.244-4.661,20.969-16.515,20.969-30.375
	c0-5.415-1.339-10.521-3.691-15.015c11.705-4.918,19.947-16.499,19.947-29.971C424.469,375.496,415.517,363.51,403.022,358.979z
	 M180.807,492h-73.271V332.055h30.75v102.083c0,5.522,4.477,10,10,10s10-4.478,10-10V332.055h22.521V492z M375.72,447.016h-47.477
	c-5.523,0-10,4.478-10,10s4.477,10,10,10h29.992c6.889,0,12.493,5.604,12.493,12.493s-5.604,12.493-12.493,12.493H244.63
	c-11.259,0-22.281-2.084-32.761-6.194l-11.063-4.339V340.244l20.996-11.433c17.651-9.612,31.137-25.313,37.975-44.211l15.898-43.94
	l3.091,0.939c7.796,2.371,14.145,7.667,17.874,14.912c3.73,7.246,4.351,15.489,1.75,23.21l-13.183,39.14
	c-1.028,3.052-0.523,6.412,1.355,9.026c1.879,2.615,4.902,4.166,8.122,4.166h79.236c6.889,0,12.493,5.604,12.493,12.493
	s-5.604,12.493-12.493,12.493h-45.678c-5.523,0-10,4.478-10,10s4.477,10,10,10l63.731,0.002c6.889,0,12.494,5.604,12.494,12.493
	s-5.604,12.493-12.494,12.493H375.72h-47.477c-5.523,0-10,4.478-10,10s4.477,10,10,10h47.477c6.889,0,12.493,5.604,12.493,12.493
	S382.609,447.016,375.72,447.016z"/>
<path d="M148.285,454.414c-5.523,0-10,4.478-10,10v0.132c0,5.522,4.477,10,10,10s10-4.478,10-10v-0.132
	C158.285,458.892,153.808,454.414,148.285,454.414z"/>
<path d="M141.917,74h3.25c5.523,0,10-4.477,10-10s-4.477-10-10-10h-3.25c-17.507,0-31.75,14.243-31.75,31.75v8.284
	c-5.21,0.345-9.333,4.668-9.333,9.966s4.123,9.622,9.333,9.966v30.117c0,5.523,4.477,10,10,10s10-4.477,10-10V114h12
	c5.523,0,10-4.477,10-10s-4.477-10-10-10h-12v-8.25C130.167,79.271,135.438,74,141.917,74z"/>
<path d="M453.601,53.049l-9.567-0.001c-5.961-4.806-13.474-7.495-21.213-7.495c-15.753,0-29.021,10.846-32.728,25.462
	c-11.807-5.098-22.204-12.958-30.514-23.145c-2.07-2.537-5.249-3.906-8.517-3.649c-3.266,0.251-6.201,2.086-7.857,4.911
	c-3.731,6.361-5.703,13.664-5.703,21.12c0,5.325,1.001,10.502,2.881,15.304c-1.963,1.866-3.111,4.477-3.111,7.249v0.389
	c0,12.907,6.128,26.723,15.973,35.801c-3.114,0.403-6.274,0.427-9.54,0.063c-4.613-0.513-8.979,2.222-10.53,6.602
	c-1.55,4.379,0.12,9.25,4.031,11.757c12.506,8.015,26.976,12.251,41.845,12.251c22.755,0,43.243-9.025,57.69-25.413
	c12.655-14.355,19.913-33.374,19.913-52.181c0-0.078-0.001-0.157-0.003-0.235l-0.02-0.852l6.123-13.909
	c1.361-3.092,1.069-6.663-0.777-9.492C460.129,54.756,456.979,53.049,453.601,53.049z M437.428,74.966
	c-0.591,1.342-0.879,2.797-0.845,4.264l0.069,2.954c-0.054,23.649-17.545,56.757-56.322,57.471c1.23-0.82,2.434-1.691,3.611-2.611
	c3.361-2.628,4.685-7.101,3.294-11.135c-1.39-4.034-5.188-6.742-9.455-6.742c-7.167,0-13.142-5.629-16.761-12.392
	c0.142,0.005,0.284,0.009,0.425,0.013c4.442,0.12,8.445-2.733,9.789-6.98c1.344-4.248-0.284-8.872-3.993-11.341
	c-4.904-3.265-8.219-8.306-9.331-13.974c11.373,9.458,24.673,16.266,39.234,19.998c4.59,1.176,9.412-1.107,11.499-5.36
	c1.003-2.044,1.278-4.369,0.781-6.59c-0.245-1.095-0.364-2.15-0.364-3.228c0-7.587,6.172-13.76,13.759-13.76
	c3.792,0,7.447,1.579,10.027,4.332c1.475,1.574,3.406,2.617,5.497,3L437.428,74.966z"/>
<g>
</g>
<g>
</g>
<g>
</g>
<g>
</g>
<g>
</g>
<g>
</g>
<g>
</g>
<g>
</g>
<g>
</g>
<g>
</g>
<g>
</g>
<g>
</g>
<g>
</g>
<g>
</g>
<g>
</g>
</svg>
