<?xml version="1.0" encoding="iso-8859-1"?>
<!-- Generator: Adobe Illustrator 19.0.0, SVG Export Plug-In . SVG Version: 6.00 Build 0)  -->
<svg version="1.1" id="Capa_1" xmlns="http://www.w3.org/2000/svg" xmlns:xlink="http://www.w3.org/1999/xlink" x="0px" y="0px"
	 viewBox="0 0 512 512" style="enable-background:new 0 0 512 512;" xml:space="preserve">
<path style="fill:#C9F3FF;" d="M378.063,284.001h61.961c34.22,0,61.961-27.741,61.961-61.961c0-25.986-16.005-48.223-38.688-57.425
	c0.985-4.387,1.522-8.943,1.522-13.627c0-34.22-27.741-61.961-61.961-61.961c-9.643,0-18.771,2.204-26.909,6.134
	c-19.137-49.803-67.414-85.153-123.956-85.153c-63.779,0-117.045,44.979-129.828,104.943c-8.119-2.524-16.75-3.883-25.698-3.883
	C48.713,111.068,10,149.78,10,197.535s38.713,86.467,86.467,86.467h42.53"/>
<path style="fill:#ADE5FF;" d="M210.744,501.993h90.498c11.46,0,20.749-9.29,20.749-20.749v-68.998
	c0-11.46-9.29-20.749-20.749-20.749h-90.498c-11.46,0-20.749,9.29-20.749,20.749v68.998
	C189.995,492.704,199.285,501.993,210.744,501.993z"/>
<g>
	<polyline style="fill:#7D9BFF;" points="191.995,467.994 226.369,433.62 289.617,496.868 	"/>
	<polyline style="fill:#7D9BFF;" points="255.993,460.744 291.43,425.307 317.554,451.432 	"/>
</g>
<path style="fill:#62CD4D;" d="M294.742,501.993l-68.373-68.373l-36.374,36.374v10.75c0,11.736,9.514,21.249,21.249,21.249H294.742z
	"/>
<path style="fill:#D8FB93;" d="M254.743,461.994l36.687-36.687l30.561,30.561v25.375c0,11.46-9.29,20.749-20.749,20.749h-6.5
	L254.743,461.994"/>
<path style="fill:#FF5D5D;" d="M390.753,461.932h90.498c11.46,0,20.749-9.29,20.749-20.749v-68.998
	c0-11.46-9.29-20.749-20.749-20.749h-90.498c-11.46,0-20.749,9.29-20.749,20.749v68.998
	C370.004,452.643,379.294,461.932,390.753,461.932z"/>
<path style="fill:#FEDA9B;" d="M30.749,461.932h90.498c11.46,0,20.749-9.29,20.749-20.749v-68.998
	c0-11.46-9.29-20.749-20.749-20.749H30.749c-11.46,0-20.749,9.29-20.749,20.749v68.998C10,452.643,19.289,461.932,30.749,461.932z"
	/>
<g>
	<polygon style="fill:#D8FB93;" points="317.356,29.051 333.26,38.611 358.816,28.02 363.304,10.008 395.82,10.008 400.308,28.02 
		425.864,38.611 441.767,29.051 464.765,52.05 455.206,67.952 465.796,93.508 483.809,97.996 483.809,130.512 465.796,135 
		455.206,160.557 464.765,176.46 441.767,199.458 425.864,189.898 400.308,200.49 395.82,218.502 363.304,218.502 358.816,200.49 
		333.26,189.898 317.356,199.458 294.359,176.46 303.919,160.557 293.327,135 275.314,130.512 275.314,97.996 293.327,93.508 
		303.919,67.952 294.359,52.05 	"/>
	<circle style="fill:#D8FB93;" cx="379.56" cy="114.257" r="45.749"/>
	<circle style="fill:#D8FB93;" cx="379.56" cy="114.257" r="45.749"/>
</g>
<polygon style="fill:#7D9BFF;" points="317.356,29.051 333.26,38.611 358.816,28.02 363.304,10.008 395.82,10.008 400.308,28.02 
	425.864,38.611 441.767,29.051 464.765,52.05 455.206,67.952 465.796,93.508 483.809,97.996 483.809,130.512 465.796,135 
	455.206,160.557 464.765,176.46 441.767,199.458 425.864,189.898 400.308,200.49 395.82,218.502 363.304,218.502 358.816,200.49 
	333.26,189.898 317.356,199.458 294.359,176.46 303.919,160.557 293.327,135 275.314,130.512 275.314,97.996 293.327,93.508 
	303.919,67.952 294.359,52.05 "/>
<g>
	<circle style="fill:#FFFFFF;" cx="379.56" cy="114.257" r="45.749"/>
	<path style="fill:#FFFFFF;" d="M455.681,414.001l-25.336,16.24c-4.395,2.817-10.166-0.339-10.166-5.559v-32.479
		c0-5.22,5.771-8.376,10.166-5.559l25.336,16.24C459.733,405.48,459.733,411.403,455.681,414.001z"/>
</g>
<path d="M96.466,294.001h42.53c5.523,0,10-4.478,10-10s-4.477-10-10-10h-42.53c-20.764,0-40.192-8.183-54.705-23.039
	c-14.508-14.852-22.228-34.48-21.74-55.271c0.966-41.165,35.25-74.623,76.448-74.623c0.023,0,0.051,0,0.074,0
	c6.755,0.007,13.428,0.89,19.877,2.628c0.053,0.014,0.105,0.031,0.158,0.045c0.765,0.208,1.526,0.431,2.284,0.663
	c10.147,3.111,19.692,8.398,27.742,15.395c6.819,5.927,12.485,12.93,16.842,20.813c1.824,3.301,5.239,5.165,8.761,5.165
	c1.636,0,3.295-0.402,4.828-1.25c4.834-2.671,6.587-8.755,3.916-13.589c-5.494-9.94-12.635-18.766-21.226-26.234
	c-7.646-6.646-16.368-12.07-25.68-16.022c14.985-51.864,63.268-88.674,117.95-88.674c7.246,0,14.506,0.635,21.576,1.889
	c5.443,0.964,10.628-2.664,11.592-8.102c0.963-5.438-2.664-10.628-8.102-11.592c-8.221-1.457-16.655-2.195-25.066-2.195
	c-32.881,0-64.976,11.453-90.373,32.248c-22.351,18.302-38.684,43.078-46.707,70.577c-6.021-1.167-12.162-1.758-18.353-1.765
	c-0.032,0-0.062,0-0.093,0c-51.969,0-95.223,42.218-96.441,94.153c-0.615,26.22,9.125,50.979,27.427,69.715
	C45.762,283.678,70.271,294.001,96.466,294.001z"/>
<path d="M255.993,200.129c-5.523,0-10,4.527-10,10.05c0,5.523,4.477,10,10,10c5.523,0,10-4.477,10-10v-0.099
	C265.993,204.556,261.516,200.129,255.993,200.129z"/>
<path d="M184.995,354.509V256c0-5.523-4.477-10-10-10s-10,4.477-10,10v98.509c0,8.317-5.47,15.376-13,17.781v-0.105
	c0-16.956-13.794-30.749-30.749-30.749H30.749C13.794,341.436,0,355.229,0,372.185v68.998c0,16.956,13.794,30.749,30.749,30.749
	h90.498c16.956,0,30.749-13.794,30.749-30.749v-48.428C170.639,390.005,184.995,373.905,184.995,354.509z M131.996,441.183
	c0,5.928-4.822,10.75-10.75,10.75H30.749c-5.928,0-10.75-4.822-10.75-10.75v-68.998c0-5.928,4.822-10.75,10.75-10.75h90.498
	c5.928,0,10.75,4.822,10.75,10.75V441.183z"/>
<path d="M301.242,381.497h-35.249V249.164c0-5.523-4.477-10-10-10s-10,4.477-10,10v132.332h-35.249
	c-16.956,0-30.749,13.794-30.749,30.749v68.998c0,16.956,13.794,30.749,30.749,30.749h90.498c16.956,0,30.749-13.794,30.749-30.749
	v-68.998C331.991,395.29,318.197,381.497,301.242,381.497z M210.744,401.496h90.498c5.928,0,10.75,4.822,10.75,10.75v19.481
	l-13.491-13.491c-3.905-3.904-10.236-3.904-14.142,0l-29.616,29.615l-21.303-21.303c-3.905-3.904-10.237-3.904-14.143,0
	l-19.302,19.303v-33.606C199.995,406.318,204.816,401.496,210.744,401.496z M199.995,481.244v-7.107l26.374-26.374l44.231,44.231
	h-59.855C204.816,491.994,199.995,487.171,199.995,481.244z M301.242,491.994h-2.902c-0.439-0.786-0.984-1.528-1.652-2.196
	l-27.803-27.803l22.545-22.545l20.561,20.561v21.233C311.991,487.171,307.17,491.994,301.242,491.994z"/>
<path d="M481.251,341.436h-90.498c-16.956,0-30.749,13.794-30.749,30.749v0.208c-7.708-2.297-13.348-9.439-13.348-17.884V256
	c0-5.523-4.477-10-10-10s-10,4.477-10,10v98.509c0,19.514,14.536,35.689,33.347,38.29v48.384c0,16.956,13.794,30.749,30.749,30.749
	h90.498c16.956,0,30.749-13.794,30.749-30.749v-68.998C512,355.229,498.206,341.436,481.251,341.436z M492.001,441.183
	c0,5.928-4.822,10.75-10.75,10.75h-90.498c-5.928,0-10.75-4.822-10.75-10.75v-68.998c0-5.928,4.822-10.75,10.75-10.75h90.498
	c5.928,0,10.75,4.822,10.75,10.75V441.183z"/>
<path d="M379.562,170.003c30.74,0,55.749-25.008,55.749-55.748s-25.008-55.748-55.749-55.748s-55.748,25.008-55.748,55.748
	S348.822,170.003,379.562,170.003z M379.562,78.506c19.711,0,35.749,16.038,35.749,35.749s-16.038,35.749-35.749,35.749
	c-19.711,0-35.749-16.038-35.749-35.749S359.85,78.506,379.562,78.506z"/>
<path d="M285.789,57.2l6.962,11.582l-6.731,16.243l-13.122,3.269c-4.456,1.11-7.583,5.112-7.583,9.704v32.517
	c0,4.592,3.127,8.594,7.583,9.704l13.122,3.269l6.731,16.243l-6.962,11.582c-2.366,3.936-1.747,8.976,1.5,12.223l22.997,22.997
	c3.248,3.247,8.288,3.865,12.223,1.5l11.582-6.961l16.243,6.731l3.269,13.122c1.11,4.456,5.112,7.583,9.704,7.583h32.517
	c4.592,0,8.593-3.127,9.704-7.583l3.269-13.122l16.243-6.731l11.582,6.961c3.935,2.365,8.976,1.746,12.223-1.5l22.998-22.997
	c0.477-0.477,0.891-0.997,1.253-1.543c12.216,10.132,19.451,25.585,18.863,41.974c-1.008,28.059-24.193,50.039-52.784,50.039
	h-61.105c-5.523,0-10,4.478-10,10s4.477,10,10,10h61.105c18.814,0,36.701-7.112,50.362-20.025
	c13.776-13.022,21.734-30.528,22.408-49.295c1.07-29.79-16.545-57.344-43.921-68.921l5.087-12.275l13.122-3.269
	c4.456-1.11,7.583-5.112,7.583-9.704V97.996c0-4.592-3.127-8.593-7.583-9.704l-13.122-3.269l-6.731-16.243l6.962-11.581
	c2.366-3.936,1.747-8.977-1.5-12.224L448.838,21.98c-3.247-3.246-8.287-3.865-12.223-1.5l-11.582,6.961l-16.243-6.731L405.524,7.59
	c-1.11-4.456-5.112-7.583-9.704-7.583h-32.517c-4.592,0-8.593,3.127-9.704,7.583l-3.269,13.122l-16.243,6.731l-11.582-6.961
	c-3.936-2.366-8.977-1.747-12.223,1.5l-22.997,22.997C284.041,48.225,283.423,53.266,285.789,57.2z M302.566,97.337l10.591-25.557
	c1.214-2.93,0.966-6.262-0.667-8.98l-5.534-9.206l11.947-11.947l9.206,5.534c2.719,1.634,6.051,1.882,8.98,0.667l25.557-10.592
	c2.929-1.214,5.108-3.745,5.875-6.821l2.598-10.43h16.889l2.598,10.43c0.767,3.076,2.946,5.607,5.875,6.821l25.557,10.592
	c2.931,1.215,6.262,0.967,8.98-0.667l9.206-5.534l11.947,11.947l-5.534,9.206c-1.634,2.719-1.881,6.051-0.667,8.981l10.592,25.557
	c1.214,2.929,3.745,5.108,6.821,5.875l10.43,2.598V122.7l-10.43,2.598c-3.076,0.767-5.607,2.946-6.821,5.875l-10.592,25.557
	c-1.214,2.93-0.966,6.262,0.667,8.981l5.534,9.206l-11.947,11.947l-9.206-5.534c-2.719-1.633-6.051-1.881-8.98-0.667l-25.557,10.592
	c-2.929,1.214-5.108,3.745-5.875,6.821l-2.598,10.43h-16.889l-2.598-10.43c-0.767-3.076-2.946-5.607-5.875-6.821l-25.557-10.592
	c-2.93-1.214-6.262-0.966-8.98,0.667l-9.206,5.534l-11.947-11.947l5.534-9.206c1.634-2.718,1.881-6.05,0.667-8.98l-10.591-25.557
	c-1.214-2.929-3.745-5.108-6.821-5.875l-10.431-2.598v-16.889l10.431-2.598C298.821,102.446,301.352,100.266,302.566,97.337z"/>
<path d="M461.076,394.463l-25.336-16.241c-5.113-3.276-11.598-3.503-16.925-0.588c-5.328,2.914-8.637,8.495-8.637,14.567v32.478
	c0,6.071,3.31,11.653,8.637,14.567c2.489,1.36,5.23,2.037,7.966,2.037c3.121,0,6.235-0.88,8.96-2.626l25.335-16.24
	c4.786-3.067,7.644-8.293,7.644-13.979C468.72,402.756,465.862,397.531,461.076,394.463z M430.178,418.469v-20.055l15.645,10.028
	L430.178,418.469z"/>
<path d="M88.638,374.206c-1.564-3.703-5.193-6.11-9.213-6.11c-4.02,0-7.649,2.407-9.213,6.11l-24.139,57.178
	c-2.148,5.088,0.235,10.954,5.324,13.103c5.086,2.148,10.954-0.236,13.102-5.323l2.588-6.131h24.676l2.588,6.131
	c1.612,3.818,5.317,6.113,9.217,6.113c1.296,0,2.615-0.254,3.885-0.79c5.088-2.148,7.472-8.015,5.324-13.103L88.638,374.206z
	 M75.529,413.033l3.896-9.228l3.896,9.228H75.529z"/>
<path d="M127.997,222.129H94.997c-5.523,0-10,4.477-10,10s4.477,10,10,10h32.999c5.523,0,10-4.477,10-10
	S133.519,222.129,127.997,222.129z"/>
<path d="M127.997,175.13H94.997c-5.523,0-10,4.477-10,10c0,5.523,4.477,10,10,10h32.999c5.523,0,10-4.477,10-10
	C137.996,179.607,133.519,175.13,127.997,175.13z"/>
<path d="M48.259,178.063c-1.86,1.86-2.93,4.44-2.93,7.07c0,2.63,1.07,5.21,2.93,7.07c1.86,1.86,4.44,2.93,7.07,2.93
	c2.64,0,5.21-1.07,7.07-2.93c1.87-1.86,2.93-4.44,2.93-7.07c0-2.63-1.06-5.21-2.93-7.07c-1.86-1.87-4.43-2.93-7.07-2.93
	C52.699,175.133,50.119,176.193,48.259,178.063z"/>
<g>
</g>
<g>
</g>
<g>
</g>
<g>
</g>
<g>
</g>
<g>
</g>
<g>
</g>
<g>
</g>
<g>
</g>
<g>
</g>
<g>
</g>
<g>
</g>
<g>
</g>
<g>
</g>
<g>
</g>
</svg>
