<?xml version="1.0" encoding="iso-8859-1"?>
<!-- Generator: Adobe Illustrator 19.0.0, SVG Export Plug-In . SVG Version: 6.00 Build 0)  -->
<svg version="1.1" id="Capa_1" xmlns="http://www.w3.org/2000/svg" xmlns:xlink="http://www.w3.org/1999/xlink" x="0px" y="0px"
	 viewBox="0 0 512 512" style="enable-background:new 0 0 512 512;" xml:space="preserve">
<path style="fill:#72D8FF;" d="M408,112V39.261C408,23.101,394.899,10,378.739,10H133.261C117.101,10,104,23.101,104,39.261v433.478
	c0,16.16,13.101,29.261,29.261,29.261h245.478c16.16,0,29.261-13.101,29.261-29.261V333V112z"/>
<rect x="104" y="74" style="fill:#EDF2FA;" width="304" height="353.92"/>
<path style="fill:#FF5D5D;" d="M302,123.072v119.856c0,7.219,5.852,13.072,13.072,13.072h22.784L364,282.144L390.144,256h98.784
	c7.219,0,13.072-5.852,13.072-13.072V123.072c0-7.219-5.852-13.072-13.072-13.072H315.072C307.852,110,302,115.852,302,123.072z"/>
<path style="fill:#A0E557;" d="M210,370.928V251.072c0-7.219-5.852-13.072-13.072-13.072H170l-26.144-26.144L117.712,238h-94.64
	C15.852,238,10,243.852,10,251.072v119.856C10,378.148,15.852,384,23.072,384h173.856C204.148,384,210,378.148,210,370.928z"/>
<path style="fill:#FFFFFF;" d="M436.525,195.245L398.3,219.746c-6.63,4.25-15.338-0.511-15.338-8.387v-49.002
	c0-7.876,8.707-12.637,15.338-8.387l38.225,24.501C442.64,182.39,442.64,191.326,436.525,195.245z"/>
<path d="M292,32h-72c-5.523,0-10,4.477-10,10s4.477,10,10,10h72c5.523,0,10-4.477,10-10S297.523,32,292,32z"/>
<path d="M408,296.33c-2.63,0-5.21,1.069-7.07,2.93c-1.86,1.86-2.93,4.44-2.93,7.07c0,2.64,1.07,5.21,2.93,7.069
	c1.86,1.87,4.44,2.931,7.07,2.931s5.21-1.061,7.07-2.931c1.86-1.859,2.93-4.439,2.93-7.069s-1.07-5.21-2.93-7.07
	S410.63,296.33,408,296.33z"/>
<path d="M408,334.333c-5.523,0-10,4.478-10,10v73.584H114V394h82.928C209.65,394,220,383.649,220,370.928V251.072
	C220,238.35,209.65,228,196.928,228h-22.786l-23.214-23.215c-3.906-3.904-10.237-3.904-14.142,0L113.57,228H23.072
	C10.35,228,0,238.35,0,251.072v119.856C0,383.649,10.35,394,23.072,394H94v78.739C94,494.388,111.612,512,133.261,512H378.74
	c21.648,0,39.26-17.612,39.26-39.261V344.333C418,338.811,413.523,334.333,408,334.333z M23.072,374
	c-1.694,0-3.072-1.378-3.072-3.072V251.072c0-1.694,1.378-3.072,3.072-3.072h94.641c2.652,0,5.196-1.054,7.071-2.929l19.073-19.073
	l19.072,19.073c1.875,1.875,4.419,2.929,7.071,2.929h26.928c1.694,0,3.072,1.378,3.072,3.072v119.856
	c0,1.694-1.378,3.072-3.072,3.072H23.072z M378.739,492H133.261C122.64,492,114,483.359,114,472.739v-34.822h284v34.822
	C398,483.359,389.36,492,378.739,492z"/>
<path d="M256,453.76c-2.63,0-5.21,1.07-7.07,2.93s-2.93,4.44-2.93,7.07s1.07,5.21,2.93,7.07c1.86,1.859,4.44,2.93,7.07,2.93
	s5.21-1.07,7.07-2.93c1.86-1.86,2.93-4.44,2.93-7.07c0-2.64-1.07-5.21-2.93-7.07C261.21,454.83,258.63,453.76,256,453.76z"/>
<path d="M488.928,100H418V39.261C418,17.612,400.388,0,378.739,0H133.261C111.612,0,94,17.612,94,39.261v156.811
	c0,5.523,4.477,10,10,10s10-4.477,10-10V84h284v16h-82.928C302.35,100,292,110.35,292,123.072v119.856
	C292,255.65,302.35,266,315.072,266h18.643l23.214,23.215c1.953,1.952,4.512,2.929,7.071,2.929s5.119-0.977,7.071-2.929L394.286,266
	h94.643C501.65,266,512,255.65,512,242.928V123.072C512,110.35,501.65,100,488.928,100z M114,64V39.261
	C114,28.64,122.64,20,133.261,20H378.74C389.36,20,398,28.64,398,39.261V64H114z M492,242.928c0,1.694-1.378,3.072-3.072,3.072
	h-98.785c-2.652,0-5.196,1.054-7.071,2.929L364,268.001l-19.072-19.072c-1.875-1.875-4.419-2.929-7.071-2.929h-22.785
	c-1.694,0-3.072-1.378-3.072-3.072V123.072c0-1.694,1.378-3.072,3.072-3.072h173.856c1.694,0,3.072,1.378,3.072,3.072L492,242.928
	L492,242.928z"/>
<path d="M441.921,170.052l-38.225-24.5c-6.146-3.938-13.943-4.212-20.35-0.708c-6.406,3.502-10.385,10.213-10.385,17.514v49.002
	c0,7.301,3.979,14.012,10.385,17.515c2.992,1.636,6.288,2.449,9.577,2.449c3.752,0,7.497-1.058,10.772-3.157l38.225-24.501l0,0
	c5.754-3.688,9.19-9.971,9.19-16.805C451.111,180.023,447.676,173.741,441.921,170.052z M392.962,211.286l0.003-48.857l38.112,24.43
	L392.962,211.286z"/>
<path d="M156,300.939c-2.63,0-5.21,1.061-7.07,2.92c-1.86,1.86-2.93,4.44-2.93,7.08c0,2.63,1.07,5.21,2.93,7.07
	c1.86,1.86,4.44,2.93,7.07,2.93s5.21-1.069,7.07-2.93s2.93-4.44,2.93-7.07c0-2.64-1.07-5.21-2.93-7.08
	C161.21,302,158.63,300.939,156,300.939z"/>
<path d="M107,300.939c-2.63,0-5.21,1.061-7.07,2.92c-1.86,1.87-2.93,4.44-2.93,7.08c0,2.63,1.07,5.21,2.93,7.07
	c1.86,1.86,4.44,2.93,7.07,2.93s5.21-1.069,7.07-2.93s2.93-4.44,2.93-7.07c0-2.64-1.07-5.21-2.93-7.08
	C112.21,302,109.63,300.939,107,300.939z"/>
<path d="M58,300.939c-2.63,0-5.21,1.061-7.07,2.92c-1.86,1.87-2.93,4.44-2.93,7.08c0,2.63,1.07,5.21,2.93,7.07
	c1.86,1.86,4.44,2.93,7.07,2.93s5.21-1.069,7.07-2.93s2.93-4.44,2.93-7.07c0-2.64-1.07-5.21-2.93-7.08
	C63.21,302,60.63,300.939,58,300.939z"/>
<path d="M263,118H140.961c-5.523,0-10,4.477-10,10c0,5.523,4.477,10,10,10H263c5.523,0,10-4.477,10-10S268.523,118,263,118z"/>
<path d="M140.961,178h48.597c5.523,0,10-4.477,10-10s-4.477-10-10-10h-48.597c-5.523,0-10,4.477-10,10S135.438,178,140.961,178z"/>
<path d="M228.92,160.93c-1.86,1.86-2.93,4.44-2.93,7.07s1.07,5.21,2.93,7.07s4.44,2.93,7.07,2.93s5.21-1.07,7.07-2.93
	c1.86-1.86,2.93-4.44,2.93-7.07s-1.07-5.21-2.93-7.07c-1.86-1.86-4.44-2.93-7.07-2.93S230.78,159.07,228.92,160.93z"/>
<path d="M373.557,347.917c0-5.522-4.477-10-10-10H263.481c-5.523,0-10,4.478-10,10s4.477,10,10,10h100.076
	C369.08,357.917,373.557,353.439,373.557,347.917z"/>
<path d="M263.481,377.917c-5.523,0-10,4.478-10,10s4.477,10,10,10H315.5c5.523,0,10-4.478,10-10s-4.477-10-10-10H263.481z"/>
<g>
</g>
<g>
</g>
<g>
</g>
<g>
</g>
<g>
</g>
<g>
</g>
<g>
</g>
<g>
</g>
<g>
</g>
<g>
</g>
<g>
</g>
<g>
</g>
<g>
</g>
<g>
</g>
<g>
</g>
</svg>
