<?xml version="1.0" encoding="iso-8859-1"?>
<!-- Generator: Adobe Illustrator 19.0.0, SVG Export Plug-In . SVG Version: 6.00 Build 0)  -->
<svg version="1.1" id="Capa_1" xmlns="http://www.w3.org/2000/svg" xmlns:xlink="http://www.w3.org/1999/xlink" x="0px" y="0px"
	 viewBox="0 0 512 512" style="enable-background:new 0 0 512 512;" xml:space="preserve">
<polygon style="fill:#4DBAF6;" points="67.569,298.681 266.667,245.333 213.319,444.431 "/>
<rect x="42.593" y="351.996" transform="matrix(-0.7071 -0.7071 0.7071 -0.7071 -136.9861 780.8097)" style="fill:#ADE5FF;" width="101.249" height="133.559"/>
<circle style="fill:#FEDA9B;" cx="428" cy="84" r="74"/>
<g>
	<circle style="fill:#FFB954;" cx="84" cy="84" r="74"/>
	<circle style="fill:#FFB954;" cx="428" cy="428" r="74"/>
</g>
<path d="M264.078,235.674L64.98,289.022c-3.451,0.925-6.146,3.62-7.071,7.071c-0.925,3.45,0.062,7.133,2.588,9.659l30.006,30.006
	L3.131,423.132c-1.875,1.876-2.929,4.419-2.929,7.071s1.054,5.195,2.929,7.071l71.595,71.594c1.953,1.952,4.512,2.929,7.071,2.929
	s5.119-0.977,7.071-2.929l87.372-87.372l30.007,30.007c1.9,1.899,4.454,2.929,7.072,2.929c0.863,0,1.732-0.111,2.588-0.341
	c3.451-0.925,6.146-3.62,7.071-7.071l53.348-199.098c0.925-3.451-0.062-7.133-2.588-9.66
	C271.21,235.735,267.528,234.747,264.078,235.674z M81.797,487.655L66.252,472.11l24.495-24.495c3.905-3.905,3.905-10.237,0-14.143
	c-3.905-3.904-10.237-3.904-14.143,0L52.11,457.968l-27.765-27.765l80.301-80.302l57.452,57.452L81.797,487.655z M208.142,425.113
	l-24.821-24.821c-0.003-0.003-0.006-0.007-0.009-0.01s-0.007-0.006-0.01-0.009l-71.57-71.57c-0.005-0.005-0.009-0.01-0.014-0.015
	s-0.01-0.009-0.015-0.014l-24.815-24.815l165.637-44.383L208.142,425.113z"/>
<path d="M305.571,216.429c2.559,0,5.119-0.976,7.071-2.929l41.904-41.904c3.905-3.905,3.905-10.237,0-14.143s-10.237-3.905-14.143,0
	L298.5,199.358c-3.905,3.905-3.905,10.237,0,14.143C300.452,215.453,303.012,216.429,305.571,216.429z"/>
<path d="M347.695,287.639l-35.053-35.053c-3.905-3.905-10.237-3.905-14.143,0c-3.905,3.905-3.905,10.237,0,14.143l35.053,35.053
	c1.953,1.952,4.512,2.929,7.071,2.929s5.119-0.977,7.071-2.929C351.6,297.876,351.6,291.544,347.695,287.639z"/>
<path d="M363.22,317.3c-1.86,1.86-2.93,4.44-2.93,7.08c0,2.63,1.07,5.21,2.93,7.07c1.86,1.859,4.44,2.93,7.07,2.93
	s5.21-1.07,7.07-2.93c1.86-1.87,2.93-4.44,2.93-7.07c0-2.64-1.07-5.21-2.93-7.08c-1.86-1.86-4.44-2.92-7.07-2.92
	C367.66,314.38,365.08,315.439,363.22,317.3z"/>
<path d="M245.272,213.5c1.953,1.953,4.512,2.929,7.071,2.929s5.119-0.977,7.071-2.929c3.905-3.905,3.905-10.237,0-14.142
	l-41.904-41.904c-3.905-3.905-10.237-3.905-14.142,0s-3.905,10.237,0,14.142L245.272,213.5z"/>
<path d="M385.855,233.043c0-5.523-4.477-10-10-10h-18.666c-5.523,0-10,4.477-10,10s4.477,10,10,10h18.666
	C381.378,243.043,385.855,238.566,385.855,233.043z"/>
<path d="M278.957,126.145c-5.523,0-10,4.477-10,10v18.666c0,5.523,4.477,10,10,10s10-4.477,10-10v-18.666
	C288.957,130.622,284.48,126.145,278.957,126.145z"/>
<path d="M428,113.55c-6.617,0-12-4.471-12-9.966c0-5.523-4.477-10-10-10s-10,4.477-10,10c0,13.261,9.25,24.53,22.022,28.466
	c0.227,5.322,4.601,9.57,9.978,9.57s9.751-4.248,9.978-9.57C450.75,128.114,460,116.845,460,103.584
	c0-16.523-14.355-29.966-32-29.966c-6.617,0-12-4.471-12-9.966c0-5.496,5.383-9.966,12-9.966s12,4.471,12,9.966
	c0,5.523,4.477,10,10,10s10-4.477,10-10c0-13.257-9.244-24.523-22.01-28.463c-0.103-5.434-4.532-9.809-9.99-9.809
	s-9.888,4.375-9.99,9.809C405.244,39.129,396,50.395,396,63.652c0,16.523,14.355,29.966,32,29.966c6.617,0,12,4.471,12,9.966
	S434.617,113.55,428,113.55z"/>
<path d="M428,168c46.318,0,84-37.682,84-84S474.318,0,428,0s-84,37.682-84,84S381.682,168,428,168z M428,20c35.29,0,64,28.71,64,64
	s-28.71,64-64,64s-64-28.71-64-64S392.71,20,428,20z"/>
<path d="M84,113.55c-6.617,0-12-4.471-12-9.966c0-5.523-4.477-10-10-10s-10,4.477-10,10c0,13.261,9.25,24.53,22.022,28.466
	c0.227,5.322,4.601,9.57,9.978,9.57s9.751-4.248,9.978-9.57C106.75,128.114,116,116.845,116,103.584
	c0-16.523-14.355-29.966-32-29.966c-6.617,0-12-4.471-12-9.966c0-5.496,5.383-9.966,12-9.966s12,4.471,12,9.966
	c0,5.523,4.477,10,10,10s10-4.477,10-10c0-13.257-9.244-24.523-22.01-28.463c-0.103-5.434-4.532-9.809-9.99-9.809
	s-9.888,4.375-9.99,9.809C61.244,39.129,52,50.395,52,63.652c0,16.523,14.355,29.966,32,29.966c6.617,0,12,4.471,12,9.966
	S90.617,113.55,84,113.55z"/>
<path d="M84,168c46.318,0,84-37.682,84-84S130.318,0,84,0S0,37.682,0,84S37.682,168,84,168z M84,20c35.29,0,64,28.71,64,64
	s-28.71,64-64,64s-64-28.71-64-64S48.71,20,84,20z"/>
<path d="M428,397.686c6.617,0,12,4.471,12,9.966c0,5.522,4.477,10,10,10s10-4.478,10-10c0-13.257-9.244-24.523-22.01-28.462
	c-0.103-5.433-4.532-9.809-9.99-9.809s-9.888,4.376-9.99,9.809c-12.766,3.939-22.01,15.206-22.01,28.462
	c0,16.523,14.355,29.967,32,29.967c6.617,0,12,4.471,12,9.966s-5.383,9.966-12,9.966s-12-4.471-12-9.966c0-5.522-4.477-10-10-10
	s-10,4.478-10,10c0,13.261,9.25,24.53,22.022,28.466c0.227,5.321,4.601,9.57,9.978,9.57s9.751-4.248,9.978-9.57
	C450.75,472.114,460,460.845,460,447.584c0-16.523-14.355-29.966-32-29.966c-6.617,0-12-4.471-12-9.967
	C416,402.156,421.383,397.686,428,397.686z"/>
<path d="M428,344c-46.318,0-84,37.683-84,84s37.682,84,84,84s84-37.683,84-84S474.318,344,428,344z M428,492
	c-35.29,0-64-28.71-64-64s28.71-64,64-64s64,28.71,64,64S463.29,492,428,492z"/>
<path d="M101.15,408.93c-1.86,1.86-2.93,4.44-2.93,7.07s1.07,5.21,2.93,7.069c1.86,1.86,4.44,2.931,7.07,2.931s5.21-1.07,7.07-2.931
	c1.86-1.859,2.93-4.439,2.93-7.069s-1.07-5.21-2.93-7.07c-1.86-1.86-4.44-2.93-7.07-2.93C105.59,406,103.01,407.069,101.15,408.93z"
	/>
<g>
</g>
<g>
</g>
<g>
</g>
<g>
</g>
<g>
</g>
<g>
</g>
<g>
</g>
<g>
</g>
<g>
</g>
<g>
</g>
<g>
</g>
<g>
</g>
<g>
</g>
<g>
</g>
<g>
</g>
</svg>
