<?xml version="1.0" encoding="iso-8859-1"?>
<!-- Generator: Adobe Illustrator 19.0.0, SVG Export Plug-In . SVG Version: 6.00 Build 0)  -->
<svg version="1.1" id="Capa_1" xmlns="http://www.w3.org/2000/svg" xmlns:xlink="http://www.w3.org/1999/xlink" x="0px" y="0px"
	 viewBox="0 0 511.997 511.997" style="enable-background:new 0 0 511.997 511.997;" xml:space="preserve">
<path style="fill:#FF5D5D;" d="M502.002,208.042c0-109.361-88.655-198.016-198.016-198.016S105.969,98.68,105.969,208.042
	c0,41.01,12.467,79.11,33.818,110.713c35.585,52.672,95.847,87.303,164.198,87.303c46.35,0,88.98-15.925,122.718-42.601
	C472.57,327.19,502.002,271.054,502.002,208.042z"/>
<circle style="fill:#FFFFFF;" cx="303.986" cy="208.039" r="142.019"/>
<circle style="fill:#FF5D5D;" cx="303.986" cy="208.039" r="86.038"/>
<circle style="fill:#FFFFFF;" cx="303.986" cy="208.039" r="30.046"/>
<path style="fill:#A0E557;" d="M40.165,375.12c-16.661,0-30.167,13.506-30.167,30.167s13.506,30.167,30.167,30.167"/>
<path style="fill:#72D8FF;" d="M98.987,455.979H57.06c-9.331,0-16.895-7.564-16.895-16.895v-68.197
	c0-9.331,7.564-16.895,16.895-16.895h41.927V455.979z"/>
<polygon style="fill:#EDF2FA;" points="275.961,501.972 98.987,455.979 98.987,353.994 275.961,308.424 "/>
<polygon style="fill:#72D8FF;" points="231.98,490.543 275.961,501.972 275.961,308.424 231.98,319.748 "/>
<polygon style="fill:#A0E557;" points="75.158,177.046 106.154,208.042 75.158,239.037 10,239.037 40.995,208.042 10,177.046 "/>
<path d="M303.985,0.027c-106.913,0-195.23,81.078-206.732,184.974l-15.025-15.025c-1.876-1.875-4.418-2.929-7.07-2.929H10
	c-4.044,0-7.69,2.437-9.238,6.172c-1.548,3.735-0.691,8.037,2.168,10.896l23.926,23.926L2.929,231.967
	c-2.859,2.86-3.715,7.161-2.168,10.896c1.548,3.736,5.193,6.172,9.238,6.172h65.159c2.652,0,5.194-1.054,7.07-2.929l15.024-15.024
	c3.287,29.612,12.875,58.22,28.226,83.811c2.841,4.735,8.98,6.272,13.717,3.432c4.735-2.841,6.271-8.982,3.432-13.718
	c-15.731-26.226-24.746-55.967-26.367-86.568h36.047c1.747,26.871,10.504,52.622,25.625,75.006
	c3.092,4.575,9.307,5.778,13.882,2.688c4.576-3.091,5.779-9.307,2.688-13.882c-12.88-19.065-20.454-40.949-22.166-63.811h36.139
	c3.915,37.672,29.698,68.938,64.396,80.855L97.72,343.995H57.06c-13.261,0-24.302,9.65-26.491,22.294
	c-17.526,4.314-30.568,20.158-30.568,38.997c0,18.879,13.097,34.749,30.681,39.023c1.974,9.977,9.481,17.981,19.18,20.68
	l15.993,40.642c1.505,3.823,5.195,6.337,9.305,6.337h41.927c3.309,0,6.401-1.636,8.264-4.37c1.862-2.734,2.252-6.211,1.041-9.29
	l-10.907-27.711l157.962,41.052c0.83,0.215,1.676,0.321,2.516,0.321c2.19,0,4.347-0.72,6.116-2.089
	c2.449-1.894,3.882-4.814,3.882-7.91V308.424c0-2.437-0.899-4.756-2.472-6.56c6.607,1.442,13.464,2.21,20.497,2.21
	c52.951,0,96.031-43.079,96.031-96.031s-43.08-96.031-96.031-96.031c-49.576,0-90.495,37.763-95.512,86.033h-36.138
	c5.127-68.147,62.214-122.027,131.649-122.027c72.799,0,132.026,59.226,132.026,132.026c0,35.266-13.733,68.42-38.669,93.357
	c-3.904,3.904-3.904,10.236,0,14.141c1.953,1.953,4.511,2.929,7.07,2.929s5.117-0.976,7.07-2.929
	c28.713-28.713,44.526-66.889,44.526-107.496c0-83.826-68.197-152.023-152.023-152.023c-80.465,0-146.519,62.843-151.686,142.024
	h-36.066c5.215-99.044,87.431-178.019,187.751-178.019C407.655,20.026,492,104.371,492,208.044
	c0,42.118-13.608,81.926-39.353,115.122c-3.385,4.363-2.59,10.644,1.773,14.028c1.823,1.414,3.979,2.099,6.121,2.099
	c2.984,0,5.937-1.331,7.908-3.871c28.489-36.735,43.549-80.78,43.549-127.377C512,93.341,418.686,0.027,303.985,0.027z
	 M50.164,370.888c0-3.802,3.094-6.895,6.895-6.895h31.928v81.988H57.06c-3.802,0-6.895-3.094-6.895-6.895L50.164,370.888
	L50.164,370.888z M19.998,405.287c0-7.481,4.103-14.01,10.17-17.491v34.982C24.102,419.297,19.998,412.768,19.998,405.287z
	 M81.968,491.974L71.74,465.977h20.436l10.229,25.996H81.968z M265.963,489.043l-156.977-40.796v-86.503l112.997-29.096v77.671
	c0,5.522,4.477,9.999,9.999,9.999c5.521,0,9.999-4.476,9.999-9.999v-82.82l23.984-6.176V489.043z M71.016,229.039H34.138
	l13.927-13.927c3.904-3.904,3.904-10.236,0-14.141l-13.927-13.927h36.878l20.997,20.997L71.016,229.039z M303.985,132.008
	c41.926,0,76.034,34.109,76.034,76.034s-34.108,76.034-76.034,76.034c-38.534,0-70.443-28.822-75.356-66.035h36.581
	c4.452,17.256,20.148,30.041,38.775,30.041c22.078,0,40.039-17.961,40.039-40.039s-17.961-40.039-40.039-40.039
	c-18.626,0-34.323,12.785-38.775,30.041h-36.581C233.543,160.828,265.451,132.008,303.985,132.008z M303.985,198.043h-17.344
	c3.469-5.993,9.937-10.044,17.344-10.044c11.051,0,20.042,8.991,20.042,20.042s-8.991,20.042-20.042,20.042
	c-7.408,0-13.875-4.05-17.344-10.044h17.344c5.521,0,9.999-4.476,9.999-9.999S309.507,198.043,303.985,198.043z"/>
<path d="M431.931,345.814c-0.047,0.043-0.137,0.127-0.183,0.171c-3.986,3.82-4.121,10.15-0.301,14.137
	c1.964,2.049,4.589,3.081,7.22,3.081c2.458,0,4.918-0.9,6.846-2.712c0.021-0.02,0.049-0.046,0.063-0.059
	c4.017-3.766,4.219-10.059,0.469-14.09C442.295,342.308,435.976,342.082,431.931,345.814z"/>
<path d="M369.224,325.639c-3.904,3.904-3.904,10.236,0,14.141c36.072,36.072,36.072,94.765,0,130.838
	c-3.904,3.904-3.904,10.236,0,14.14c1.953,1.953,4.511,2.929,7.07,2.929s5.117-0.977,7.07-2.929
	c43.869-43.869,43.869-115.249,0-159.118C379.458,321.734,373.129,321.734,369.224,325.639z"/>
<path d="M357.886,351.118c-3.904-3.904-10.233-3.904-14.141,0c-3.904,3.904-3.904,10.236,0,14.14
	c22.023,22.024,22.023,57.859,0,79.881c-3.904,3.904-3.904,10.236,0,14.141c1.953,1.952,4.511,2.929,7.07,2.929
	c2.559,0,5.117-0.977,7.07-2.929C387.705,429.459,387.705,380.938,357.886,351.118z"/>
<path d="M331.023,377.98c-3.905-3.903-10.234-3.903-14.141,0c-3.904,3.904-3.904,10.236,0,14.141c7.211,7.211,7.211,18.944,0,26.155
	c-3.904,3.904-3.904,10.236,0,14.141c1.953,1.953,4.511,2.929,7.07,2.929s5.117-0.976,7.07-2.929
	C346.031,417.408,346.031,392.988,331.023,377.98z"/>
<path d="M231.977,437.981c-2.63,0-5.209,1.07-7.069,2.93c-1.859,1.86-2.93,4.439-2.93,7.069c0,2.63,1.07,5.209,2.93,7.069
	s4.439,2.93,7.069,2.93c2.63,0,5.209-1.07,7.069-2.93c1.87-1.86,2.93-4.439,2.93-7.069c0-2.63-1.06-5.209-2.93-7.069
	C237.186,439.051,234.606,437.981,231.977,437.981z"/>
<g>
</g>
<g>
</g>
<g>
</g>
<g>
</g>
<g>
</g>
<g>
</g>
<g>
</g>
<g>
</g>
<g>
</g>
<g>
</g>
<g>
</g>
<g>
</g>
<g>
</g>
<g>
</g>
<g>
</g>
</svg>
