<?xml version="1.0" encoding="iso-8859-1"?>
<!-- Generator: Adobe Illustrator 19.0.0, SVG Export Plug-In . SVG Version: 6.00 Build 0)  -->
<svg version="1.1" id="Capa_1" xmlns="http://www.w3.org/2000/svg" xmlns:xlink="http://www.w3.org/1999/xlink" x="0px" y="0px"
	 viewBox="0 0 512 512" style="enable-background:new 0 0 512 512;" xml:space="preserve">
<path style="fill:#70DDD6;" d="M313.942,112.026V39.3c0-16.157-13.099-29.256-29.256-29.256H39.254
	c-16.157,0-29.256,13.098-29.256,29.256v433.398c0,16.157,13.099,29.256,29.256,29.256h245.433
	c16.157,0,29.256-13.099,29.256-29.256V332.985V112.026z"/>
<rect x="11.068" y="74.036" style="fill:#EDF2FA;" width="302.874" height="353.855"/>
<path style="fill:#FF5D5D;" d="M397.756,251.471c16.772-9.683,22.518-31.129,12.835-47.9c-9.683-16.771-31.128-22.518-47.9-12.835
	L397.756,251.471z"/>
<path style="fill:#FFB954;" d="M253.198,349.244l-49.734,28.714c-22.684,13.097-51.689,5.324-64.785-17.359l0,0
	c-13.097-22.684-5.324-51.689,17.359-64.785l49.734-28.714L253.198,349.244z"/>
<polygon style="fill:#6A80FF;" points="253.206,349.268 286.812,407.476 251.464,427.884 217.845,369.656 "/>
<polygon style="fill:#FFFFFF;" points="253.206,349.268 205.772,267.1 321.473,119.346 438.973,322.862 "/>
<polygon style="fill:#70DDD6;" points="391.3,329.638 438.973,322.862 321.473,119.346 291.78,157.266 "/>
<path d="M125.977,52.037h71.987c5.521,0,9.998-4.476,9.998-9.998s-4.477-9.998-9.998-9.998h-71.987
	c-5.521,0-9.998,4.476-9.998,9.998S120.456,52.037,125.977,52.037z"/>
<path d="M161.97,453.723c-2.63,0-5.209,1.07-7.069,2.929c-1.86,1.86-2.929,4.439-2.929,7.069s1.069,5.209,2.929,7.069
	c1.86,1.86,4.439,2.929,7.069,2.929c2.63,0,5.209-1.07,7.068-2.929c1.86-1.86,2.93-4.439,2.93-7.069c0-2.64-1.07-5.209-2.93-7.069
	C167.179,454.792,164.6,453.723,161.97,453.723z"/>
<path d="M410.848,254.151c15.083-13.975,19.107-37.036,8.401-55.579c-6.019-10.424-15.735-17.881-27.363-20.996
	c-8.333-2.234-16.933-2.031-24.976,0.473l-36.778-63.701c-1.661-2.876-4.642-4.741-7.956-4.974
	c-3.316-0.237-6.527,1.195-8.574,3.809L199.094,259.411l-48.056,27.745c-27.422,15.831-36.85,51.021-21.018,78.443
	c7.67,13.284,20.052,22.786,34.869,26.755c4.947,1.326,9.967,1.982,14.955,1.982c9.95,0,19.77-2.609,28.619-7.719l5.723-3.304
	l19.961,34.573H19.996V84.031h283.948v2.999c0,5.522,4.477,9.998,9.998,9.998c5.521,0,9.998-4.476,9.998-9.998V39.3
	c0-21.644-17.609-39.254-39.254-39.254H39.254C17.609,0.046,0,17.655,0,39.3V472.7c0,21.644,17.609,39.254,39.254,39.254h245.434
	c21.644,0,39.254-17.609,39.254-39.254V349.312l116.44-16.551c3.288-0.467,6.13-2.536,7.583-5.523
	c1.454-2.985,1.33-6.499-0.331-9.374L410.848,254.151z M386.711,196.891c6.468,1.733,11.873,5.881,15.221,11.68
	c5.134,8.893,4.178,19.656-1.56,27.437l-22.988-39.817C380.469,195.84,383.622,196.063,386.711,196.891z M258.492,338.417
	l-40.686-70.469l72.718-92.862l84.718,146.736L258.492,338.417z M198.465,369.3c-8.658,4.999-18.747,6.326-28.401,3.739
	c-9.656-2.588-17.727-8.78-22.726-17.439c-10.318-17.873-4.173-40.809,13.699-51.128l41.075-23.715l37.424,64.829L198.465,369.3z
	 M249.534,362.905l23.621,40.911l-18.031,10.41l-23.621-40.911L249.534,362.905z M39.254,20.043h245.434
	c10.618,0,19.257,8.638,19.257,19.257v24.734H19.996V39.3C19.996,28.681,28.636,20.043,39.254,20.043z M284.687,491.956H39.254
	c-10.618,0-19.257-8.638-19.257-19.257v-34.817h283.948v34.817C303.944,483.318,295.305,491.956,284.687,491.956z M303.944,417.886
	h-15.167l3.033-1.752c4.782-2.76,6.421-8.875,3.659-13.658l-26.207-45.393l34.682-4.93V417.886z M396.581,318.789l-92.766-160.676
	l16.403-20.946l102.698,177.878L396.581,318.789z"/>
<path d="M510.658,146.14c-2.762-4.781-8.874-6.421-13.658-3.659l-49.023,28.304c-4.782,2.76-6.421,8.875-3.659,13.658
	c1.853,3.207,5.212,5,8.668,5c1.696,0,3.415-0.432,4.989-1.341l49.023-28.304C511.781,157.037,513.42,150.922,510.658,146.14z"/>
<path d="M407.842,148.232c0.867,0.232,1.737,0.343,2.594,0.343c4.414,0,8.454-2.946,9.651-7.413l7.147-26.674
	c1.43-5.334-1.736-10.816-7.07-12.246c-5.335-1.43-10.815,1.737-12.245,7.07l-7.147,26.674
	C399.343,141.321,402.508,146.803,407.842,148.232z"/>
<path d="M496.524,233.037l-27.566-7.387c-5.335-1.43-10.815,1.737-12.245,7.07c-1.43,5.334,1.736,10.816,7.07,12.246l27.566,7.387
	c0.867,0.232,1.737,0.343,2.594,0.343c4.414,0,8.454-2.946,9.651-7.413C505.023,239.948,501.858,234.465,496.524,233.037z"/>
<path d="M199.63,123.192c0-5.522-4.477-9.998-9.998-9.998H51.669c-5.521,0-9.998,4.476-9.998,9.998s4.477,9.998,9.998,9.998h137.964
	C195.153,133.19,199.63,128.714,199.63,123.192z"/>
<path d="M189.635,181.183c2.63,0,5.209-1.07,7.069-2.929c1.859-1.86,2.929-4.439,2.929-7.069c0-2.63-1.07-5.209-2.929-7.069
	c-1.86-1.87-4.439-2.929-7.069-2.929c-2.64,0-5.209,1.06-7.069,2.929c-1.87,1.86-2.929,4.439-2.929,7.069
	c0,2.63,1.06,5.209,2.929,7.069C184.426,180.112,186.996,181.183,189.635,181.183z"/>
<path d="M158.304,171.183c0-5.522-4.477-9.998-9.998-9.998H51.669c-5.521,0-9.998,4.476-9.998,9.998
	c0,5.522,4.477,9.998,9.998,9.998h96.637C153.827,181.181,158.304,176.705,158.304,171.183z"/>
<path d="M90.074,229.172h75.804c5.521,0,9.998-4.476,9.998-9.998c0-5.522-4.477-9.998-9.998-9.998H90.074
	c-5.521,0-9.998,4.476-9.998,9.998C80.076,224.696,84.552,229.172,90.074,229.172z"/>
<path d="M51.586,209.176c-5.521,0-9.998,4.476-9.998,9.998c0,5.522,4.477,9.998,9.998,9.998h0.464c5.521,0,9.998-4.476,9.998-9.998
	c0-5.522-4.477-9.998-9.998-9.998H51.586z"/>
<g>
</g>
<g>
</g>
<g>
</g>
<g>
</g>
<g>
</g>
<g>
</g>
<g>
</g>
<g>
</g>
<g>
</g>
<g>
</g>
<g>
</g>
<g>
</g>
<g>
</g>
<g>
</g>
<g>
</g>
</svg>
