<?xml version="1.0" encoding="iso-8859-1"?>
<!-- Generator: Adobe Illustrator 19.0.0, SVG Export Plug-In . SVG Version: 6.00 Build 0)  -->
<svg version="1.1" id="Capa_1" xmlns="http://www.w3.org/2000/svg" xmlns:xlink="http://www.w3.org/1999/xlink" x="0px" y="0px"
	 viewBox="0 0 512 512" style="enable-background:new 0 0 512 512;" xml:space="preserve">
<rect x="140.95" y="462" style="fill:#7D9BFF;" width="178.05" height="40"/>
<rect x="189.97" y="408" style="fill:#EDF2FA;" width="80" height="53.996"/>
<rect x="9.07" y="350.01" style="fill:#7D9BFF;" width="439.87" height="57.99"/>
<g>
	<rect x="10" y="95" style="fill:#72D8FF;" width="47" height="255.01"/>
	<rect x="402.34" y="95" style="fill:#72D8FF;" width="45.658" height="152.96"/>
</g>
<rect x="57" y="75.17" style="fill:#FFFFFF;" width="344" height="274.84"/>
<path style="fill:#C9F3FF;" d="M502,300.673c0,1.42-53.957,75.889-120.5,75.889S261,301.617,261,300.673
	c0-1.419,53.957-75.889,120.5-75.889S502,299.728,502,300.673z"/>
<circle style="fill:#FFB954;" cx="381.52" cy="300.65" r="41.16"/>
<path style="fill:#D8FB93;" d="M119.8,10v38.267c0,20.103,16.297,36.4,36.4,36.4s36.4-16.297,36.4-36.4V10H119.8z"/>
<path style="fill:#A0E557;" d="M47,10v38.267c0,20.103,16.297,36.4,36.4,36.4s36.4-16.297,36.4-36.4V10H47z"/>
<path style="fill:#D8FB93;" d="M265.4,10v38.267c0,20.103,16.297,36.4,36.4,36.4s36.4-16.297,36.4-36.4V10H265.4z"/>
<g>
	<path style="fill:#A0E557;" d="M192.6,10v38.267c0,20.103,16.297,36.4,36.4,36.4s36.4-16.297,36.4-36.4V10H192.6z"/>
	<path style="fill:#A0E557;" d="M338.2,10v38.267c0,20.103,16.297,36.4,36.4,36.4S411,68.37,411,48.267V10H338.2z"/>
</g>
<rect x="101" y="128.34" style="fill:#FF5D5D;" width="96" height="96"/>
<path d="M500.142,281.932c-5.703-6.695-14.999-16.834-26.898-27.123c-5.046-4.363-10.133-8.375-15.244-12.046V94.998
	c0-5.523-4.477-10-10-10h-37V76.99c6.253-7.907,10-17.883,10-28.723V10c0-5.523-4.477-10-10-10h-72.8h-72.8h-72.8h-72.8H47
	c-5.523,0-10,4.477-10,10v38.267c0,10.84,3.747,20.816,10,28.723v8.008H10c-5.523,0-10,4.477-10,10V408c0,5.523,4.477,10,10,10
	h169.037v33.996h-39.024c-5.523,0-10,4.477-10,10V502c0,5.523,4.477,10,10,10h178.049c5.523,0,10-4.477,10-10v-40.004
	c0-5.523-4.477-10-10-10h-39.024V418H448c5.523,0,10-4.477,10-10v-49.288c5.582-3.99,10.686-8.07,15.231-11.988
	c11.985-10.329,21.254-20.451,26.92-27.122C512,305.65,512,303.454,512,300.673C512,297.875,512,295.853,500.142,281.932z
	 M438,104.998v125.246c-9.018-4.82-18.046-8.537-27-11.118V104.998H438z M262.858,319.414c4.484,5.264,11.199,12.662,19.646,20.584
	H67V91.664c5.103,1.935,10.628,3.003,16.4,3.003c14.745,0,27.895-6.921,36.4-17.676c8.505,10.755,21.655,17.676,36.4,17.676
	s27.895-6.921,36.4-17.676c8.505,10.755,21.655,17.676,36.4,17.676s27.895-6.921,36.4-17.677
	c8.505,10.755,21.655,17.677,36.4,17.677s27.895-6.921,36.4-17.676c8.505,10.755,21.655,17.676,36.4,17.676
	c5.772,0,11.297-1.068,16.4-3.003v123.592c-3.186-0.308-6.355-0.472-9.5-0.472c-37.614,0-70.646,21.664-91.732,39.838
	c-11.985,10.329-21.254,20.451-26.92,27.123C251,295.696,251,297.892,251,300.673C251,303.471,251,305.493,262.858,319.414z
	 M401,48.267c0,14.557-11.843,26.4-26.4,26.4s-26.4-11.843-26.4-26.4V20H401V48.267z M328.2,48.267c0,14.557-11.843,26.4-26.4,26.4
	s-26.4-11.843-26.4-26.4V20h52.8V48.267z M255.4,48.267c0,14.557-11.843,26.4-26.4,26.4s-26.4-11.843-26.4-26.4V20h52.8
	L255.4,48.267L255.4,48.267z M182.6,48.267c0,14.557-11.843,26.4-26.4,26.4s-26.4-11.843-26.4-26.4V20h52.8L182.6,48.267
	L182.6,48.267z M57,20h52.8v28.267c0,14.557-11.843,26.4-26.4,26.4S57,62.824,57,48.267V20z M47,104.998v235H20v-235L47,104.998
	L47,104.998z M308.061,492H150.012v-20.004h158.049L308.061,492L308.061,492z M259.037,451.996h-60V418h60V451.996z M438,398H20
	v-38.002h36.768C56.846,360,56.922,360.01,57,360.01s0.154-0.01,0.232-0.012h249.754c24.927,17.442,50.377,26.564,74.514,26.564
	c20.616,0,39.85-6.514,56.5-15.388V398z M381.5,366.562c-51.703,0-95.656-50.208-108.229-66.089
	c13.314-17.269,58.293-65.69,108.229-65.69c51.704,0,95.657,50.209,108.229,66.089C476.415,318.141,431.437,366.562,381.5,366.562z"
	/>
<path d="M381.518,249.493c-28.211,0-51.163,22.952-51.163,51.163s22.952,51.162,51.163,51.162s51.163-22.951,51.163-51.162
	S409.729,249.493,381.518,249.493z M381.518,331.817c-17.183,0-31.163-13.979-31.163-31.162c0-17.183,13.979-31.163,31.163-31.163
	s31.163,13.979,31.163,31.163C412.68,317.838,398.701,331.817,381.518,331.817z"/>
<path d="M381.5,290.67c-2.63,0-5.21,1.07-7.07,2.93c-1.86,1.86-2.93,4.44-2.93,7.07c0,2.64,1.07,5.21,2.93,7.07
	c1.86,1.86,4.44,2.93,7.07,2.93s5.21-1.07,7.07-2.93s2.93-4.43,2.93-7.07c0-2.63-1.07-5.21-2.93-7.07
	C386.71,291.74,384.13,290.67,381.5,290.67z"/>
<path d="M101,234.341h96c5.523,0,10-4.477,10-10v-96c0-5.523-4.477-10-10-10h-96c-5.523,0-10,4.477-10,10v96
	C91,229.864,95.477,234.341,101,234.341z M111,138.341h76v76h-76V138.341z"/>
<path d="M357,138.34c2.63,0,5.21-1.07,7.07-2.93c1.86-1.86,2.93-4.44,2.93-7.07s-1.07-5.21-2.93-7.07s-4.44-2.93-7.07-2.93
	s-5.21,1.07-7.07,2.93c-1.86,1.86-2.93,4.44-2.93,7.07c0,2.63,1.07,5.21,2.93,7.07C351.79,137.27,354.37,138.34,357,138.34z"/>
<path d="M251,138.341h64c5.523,0,10-4.477,10-10s-4.477-10-10-10h-64c-5.523,0-10,4.477-10,10
	C241,133.864,245.477,138.341,251,138.341z"/>
<path d="M251,178.341h106c5.523,0,10-4.477,10-10s-4.477-10-10-10H251c-5.523,0-10,4.477-10,10S245.477,178.341,251,178.341z"/>
<path d="M301.673,208.341c0-5.523-4.477-10-10-10H251c-5.523,0-10,4.477-10,10s4.477,10,10,10h40.673
	C297.196,218.341,301.673,213.864,301.673,208.341z"/>
<path d="M207,302.341H101c-5.523,0-10,4.477-10,10s4.477,10,10,10h106c5.523,0,10-4.477,10-10S212.523,302.341,207,302.341z"/>
<path d="M101,282.34c2.63,0,5.21-1.07,7.07-2.93s2.93-4.43,2.93-7.07c0-2.63-1.07-5.21-2.93-7.07c-1.86-1.86-4.44-2.93-7.07-2.93
	s-5.21,1.07-7.07,2.93S91,269.71,91,272.34s1.07,5.21,2.93,7.07C95.79,281.27,98.37,282.34,101,282.34z"/>
<path d="M207,262.341h-66.054c-5.523,0-10,4.477-10,10s4.477,10,10,10H207c5.523,0,10-4.477,10-10S212.523,262.341,207,262.341z"/>
<g>
</g>
<g>
</g>
<g>
</g>
<g>
</g>
<g>
</g>
<g>
</g>
<g>
</g>
<g>
</g>
<g>
</g>
<g>
</g>
<g>
</g>
<g>
</g>
<g>
</g>
<g>
</g>
<g>
</g>
</svg>
