<?xml version="1.0" encoding="iso-8859-1"?>
<!-- Generator: Adobe Illustrator 19.0.0, SVG Export Plug-In . SVG Version: 6.00 Build 0)  -->
<svg version="1.1" id="Capa_1" xmlns="http://www.w3.org/2000/svg" xmlns:xlink="http://www.w3.org/1999/xlink" x="0px" y="0px"
	 viewBox="0 0 512 512" style="enable-background:new 0 0 512 512;" xml:space="preserve">
<rect x="50.008" y="10" style="fill:#EDF2FA;" width="451.985" height="373.988"/>
<path style="fill:#72D8FF;" d="M235.35,307.58l-12.61,17.384l11.931,28.772l21.211,3.361l0.018,43.822l-21.201,3.376l-11.913,28.789
	l12.618,17.369l-30.976,30.997l-17.384-12.61l-28.772,11.931l-3.361,21.211L111.089,502l-3.376-21.201l-28.789-11.913
	l-17.369,12.618l-30.996-30.975l12.61-17.384l-11.931-28.772l-21.211-3.361l-0.018-43.822l21.201-3.376l11.913-28.789
	l-12.618-17.369l30.976-30.997l17.384,12.61l28.772-11.931l3.359-21.211l43.822-0.018l3.376,21.201l28.789,11.913l17.369-12.618
	L235.35,307.58z"/>
<circle style="fill:#FFFFFF;" cx="132.816" cy="378.947" r="58.468"/>
<rect x="50.008" y="10" style="fill:#FFC66C;" width="451.985" height="71.998"/>
<path style="fill:#231F20;" d="M55.007,81.997h446.985"/>
<path d="M132.816,310.488c-37.751,0-68.463,30.713-68.463,68.464s30.712,68.463,68.463,68.463s68.464-30.712,68.464-68.463
	S170.566,310.488,132.816,310.488z M132.816,427.415c-26.723,0-48.463-21.741-48.463-48.463c0-26.723,21.74-48.464,48.463-48.464
	s48.464,21.741,48.464,48.464C181.28,405.674,159.539,427.415,132.816,427.415z"/>
<path d="M501.992,0H50.007c-5.523,0-10,4.477-10,10v182.827c0,5.523,4.477,10,10,10s10-4.477,10-10V91.997h431.986v281.991H265.889
	l-0.007-16.895c-0.002-4.917-3.579-9.104-8.435-9.873l-15.683-2.485l-7.643-18.43l9.323-12.854c2.887-3.98,2.452-9.469-1.026-12.945
	L211.42,269.53c-3.479-3.476-8.968-3.907-12.946-1.017l-12.841,9.329l-18.444-7.632l-2.496-15.673
	c-0.773-4.855-4.959-8.428-9.875-8.428c-0.001,0-0.003,0-0.004,0l-43.822,0.018c-4.917,0.002-9.104,3.579-9.873,8.436l-2.484,15.682
	l-18.431,7.643l-12.854-9.323c-3.98-2.886-9.469-2.452-12.945,1.026l-30.976,30.997c-3.476,3.479-3.907,8.968-1.017,12.946
	l9.328,12.841L24.11,344.82l-15.673,2.496c-4.856,0.773-8.43,4.962-8.428,9.879l0.018,43.822c0.002,4.917,3.579,9.104,8.435,9.873
	l15.683,2.485l7.643,18.43l-9.323,12.854c-2.887,3.98-2.452,9.469,1.026,12.945l30.998,30.976c3.479,3.476,8.967,3.907,12.946,1.017
	l12.841-9.328l18.445,7.632l2.496,15.673c0.773,4.855,4.959,8.428,9.875,8.428c0.001,0,0.003,0,0.004,0l43.822-0.019
	c4.917-0.002,9.103-3.579,9.873-8.435l2.485-15.683l18.431-7.643l12.854,9.323c3.98,2.887,9.469,2.453,12.945-1.026l30.976-30.997
	c3.476-3.479,3.907-8.968,1.017-12.946l-9.328-12.841l7.632-18.445l15.673-2.496c4.856-0.773,8.43-4.962,8.428-9.879l-0.005-6.927
	h236.094c5.523,0,10-4.477,10-10V10C511.992,4.477,507.514,0,501.992,0z M233.127,394.419c-3.435,0.547-6.338,2.838-7.668,6.052
	l-11.913,28.79c-1.33,3.213-0.894,6.887,1.15,9.701l7.6,10.462l-18.906,18.92l-10.475-7.598c-2.814-2.041-6.489-2.474-9.701-1.142
	l-28.772,11.931c-3.213,1.332-5.502,4.237-6.047,7.672l-2.025,12.78l-26.748,0.012l-2.034-12.771
	c-0.547-3.435-2.839-6.338-6.052-7.668l-28.789-11.913c-1.231-0.509-2.53-0.76-3.822-0.76c-2.08,0-4.143,0.649-5.878,1.91
	l-10.462,7.6l-18.92-18.907l7.597-10.475c2.042-2.815,2.475-6.489,1.143-9.702l-11.931-28.772c-1.332-3.212-4.237-5.502-7.672-6.046
	l-12.781-2.025l-0.011-26.748l12.771-2.033c3.435-0.547,6.338-2.838,7.668-6.052l11.913-28.79c1.33-3.213,0.894-6.887-1.15-9.701
	l-7.6-10.462l18.906-18.919l10.475,7.597c2.816,2.042,6.49,2.474,9.702,1.143l28.772-11.931c3.212-1.332,5.502-4.238,6.046-7.673
	l2.024-12.78l26.748-0.011l2.034,12.771c0.547,3.435,2.839,6.338,6.052,7.668l28.789,11.913c3.213,1.329,6.887,0.895,9.701-1.15
	l10.462-7.601l18.92,18.907l-7.597,10.475c-2.042,2.815-2.475,6.489-1.143,9.702l11.931,28.772c1.332,3.212,4.237,5.502,7.672,6.046
	l12.781,2.025l0.011,26.748L233.127,394.419z M60.007,71.998V19.999h431.986v51.998H60.007z"/>
<path d="M452.384,35.999H252.215c-5.523,0-10,4.477-10,10s4.477,10,10,10h200.169c5.523,0,10-4.477,10-10
	S457.907,35.999,452.384,35.999z"/>
<path d="M143.754,35.999c-2.63,0-5.21,1.07-7.07,2.93c-1.86,1.86-2.93,4.44-2.93,7.07s1.07,5.21,2.93,7.07
	c1.86,1.86,4.44,2.93,7.07,2.93c2.63,0,5.21-1.07,7.07-2.93c1.86-1.86,2.93-4.44,2.93-7.07s-1.07-5.21-2.93-7.07
	C148.964,37.069,146.383,35.999,143.754,35.999z"/>
<path d="M107.005,35.999c-2.63,0-5.21,1.07-7.07,2.93c-1.86,1.86-2.93,4.44-2.93,7.07s1.07,5.21,2.93,7.07
	c1.86,1.86,4.44,2.93,7.07,2.93c2.63,0,5.21-1.07,7.07-2.93c1.86-1.86,2.93-4.44,2.93-7.07s-1.07-5.21-2.93-7.07
	C112.215,37.069,109.634,35.999,107.005,35.999z"/>
<path d="M180.503,35.999c-2.64,0-5.21,1.07-7.07,2.93c-1.87,1.86-2.93,4.44-2.93,7.07s1.06,5.21,2.93,7.07
	c1.86,1.86,4.43,2.93,7.07,2.93c2.63,0,5.21-1.07,7.07-2.93c1.86-1.86,2.93-4.44,2.93-7.07s-1.07-5.21-2.93-7.07
	C185.713,37.069,183.132,35.999,180.503,35.999z"/>
<path d="M57.076,242.062c1.86-1.86,2.93-4.44,2.93-7.07s-1.07-5.21-2.93-7.07c-1.86-1.86-4.44-2.93-7.07-2.93s-5.21,1.07-7.07,2.93
	c-1.86,1.86-2.93,4.44-2.93,7.07s1.07,5.21,2.93,7.07c1.86,1.86,4.44,2.93,7.07,2.93S55.217,243.922,57.076,242.062z"/>
<path d="M107.005,188.015h211.776c5.523,0,10-4.477,10-10s-4.477-10-10-10H107.005c-5.523,0-10,4.477-10,10
	S101.483,188.015,107.005,188.015z"/>
<path d="M372.968,178.015c0,5.523,4.477,10,10,10h64.186c5.523,0,10-4.477,10-10s-4.477-10-10-10h-64.186
	C377.444,168.015,372.968,172.492,372.968,178.015z"/>
<path d="M394.506,124.017h-287.5c-5.523,0-10,4.477-10,10s4.477,10,10,10h287.5c5.523,0,10-4.477,10-10
	S400.029,124.017,394.506,124.017z"/>
<path d="M455.063,141.085c1.86-1.86,2.93-4.44,2.93-7.07s-1.07-5.21-2.93-7.07c-1.86-1.86-4.44-2.93-7.07-2.93s-5.21,1.07-7.07,2.93
	c-1.86,1.86-2.93,4.44-2.93,7.07s1.07,5.21,2.93,7.07c1.86,1.86,4.44,2.93,7.07,2.93
	C450.623,144.015,453.204,142.945,455.063,141.085z"/>
<path d="M107.005,232.013h151.41c5.523,0,10-4.477,10-10s-4.477-10-10-10h-151.41c-5.523,0-10,4.477-10,10
	S101.483,232.013,107.005,232.013z"/>
<path d="M318.777,212.013c-2.63,0-5.21,1.07-7.07,2.93c-1.86,1.86-2.93,4.44-2.93,7.07c0,2.64,1.07,5.21,2.93,7.07
	s4.44,2.93,7.07,2.93c2.64,0,5.21-1.07,7.07-2.93c1.87-1.86,2.93-4.44,2.93-7.07s-1.06-5.21-2.93-7.07
	C323.998,213.083,321.417,212.013,318.777,212.013z"/>
<path d="M390.036,229.082c1.86-1.86,2.93-4.44,2.93-7.07s-1.07-5.21-2.93-7.07c-1.86-1.86-4.43-2.93-7.07-2.93
	c-2.63,0-5.21,1.07-7.07,2.93c-1.86,1.86-2.93,4.44-2.93,7.07c0,2.64,1.07,5.21,2.93,7.07s4.44,2.93,7.07,2.93
	C385.596,232.012,388.175,230.942,390.036,229.082z"/>
<path d="M454.224,229.082c1.86-1.86,2.93-4.44,2.93-7.07s-1.07-5.21-2.93-7.07c-1.86-1.86-4.44-2.93-7.07-2.93s-5.21,1.07-7.07,2.93
	c-1.86,1.86-2.93,4.44-2.93,7.07s1.07,5.21,2.93,7.07s4.44,2.93,7.07,2.93C449.784,232.012,452.363,230.942,454.224,229.082z"/>
<path d="M430.552,329.989h-74.056c-5.523,0-10,4.477-10,10s4.477,10,10,10h74.056c5.523,0,10-4.477,10-10
	S436.075,329.989,430.552,329.989z"/>
<path d="M430.552,285.99h-52.946c-5.523,0-10,4.477-10,10s4.477,10,10,10h52.946c5.523,0,10-4.477,10-10
	S436.075,285.99,430.552,285.99z"/>
<g>
</g>
<g>
</g>
<g>
</g>
<g>
</g>
<g>
</g>
<g>
</g>
<g>
</g>
<g>
</g>
<g>
</g>
<g>
</g>
<g>
</g>
<g>
</g>
<g>
</g>
<g>
</g>
<g>
</g>
</svg>
