<?xml version="1.0" encoding="iso-8859-1"?>
<!-- Generator: Adobe Illustrator 19.0.0, SVG Export Plug-In . SVG Version: 6.00 Build 0)  -->
<svg version="1.1" id="Capa_1" xmlns="http://www.w3.org/2000/svg" xmlns:xlink="http://www.w3.org/1999/xlink" x="0px" y="0px"
	 viewBox="0 0 512 512" style="enable-background:new 0 0 512 512;" xml:space="preserve">
<path style="fill:#70DDD6;" d="M31.997,444V193.509c0-20.708,16.787-37.494,37.494-37.494h373.011
	c20.708,0,37.495,16.787,37.495,37.494V444H31.997z"/>
<path style="fill:#FFFFFF;" d="M438,42c0-14.876,10.152-27.379,23.905-30.965L462,10H106c-17.673,0-32,14.327-32,32v404h364V42z"/>
<g>
	<polygon style="fill:#C9F3FF;" points="116.5,446 116.5,358.765 228.545,278.774 282.045,332.274 396,218.319 396,446 	"/>
	<polygon style="fill:#C9F3FF;" points="340,446 396,446 396,218.319 340,274.319 	"/>
</g>
<g>
	<polygon style="fill:#A0E557;" points="172,446 228,446 228,278.235 172,319.142 	"/>
	<polygon style="fill:#A0E557;" points="340,269.667 284,332.159 284,446 340,446 	"/>
</g>
<polygon style="fill:#C9F3FF;" points="228,278.774 284,332.159 284,446 228,446 "/>
<path style="fill:#D8D8E4;" d="M324.142,446H502l0,0v18.253C502,485.1,485.1,502,464.254,502H47.746C26.9,502,10,485.1,10,464.254
	V446h177.847H324.142z"/>
<path style="fill:#FFC66C;" d="M438,42c0-17.673,14.327-32,32-32s32,14.327,32,32v56.333h-64V42z"/>
<path d="M502,108.333c5.522,0,10-4.477,10-10V42c0-23.159-18.841-42-42-42c-1.826,0-3.621,0.13-5.386,0.357
	C463.78,0.131,462.906,0,462,0H106C82.841,0,64,18.841,64,42v104.342c-23.61,2.732-42.003,22.837-42.003,47.167V436H10
	c-5.522,0-10,4.477-10,10v18.253C0,490.581,21.419,512,47.746,512h416.508C490.581,512,512,490.581,512,464.253V446
	c0-5.523-4.478-10-10-10h-12.003V193.509c0-24.328-18.39-44.431-41.997-47.166v-38.009L502,108.333L502,108.333z M492,42v46.333h-44
	V42c0-12.131,9.869-22,22-22S492,29.869,492,42z M84,42c0-12.131,9.869-22,22-22h328.242C430.288,26.403,428,33.938,428,42v394h-6
	h-72V278.461l36-36v118.79c0,5.523,4.478,10,10,10s10-4.477,10-10V218.318c0-4.044-2.437-7.691-6.173-9.239
	c-3.736-1.549-8.038-0.692-10.898,2.167L282.045,318.132l-46.429-46.429c-3.457-3.456-8.903-3.908-12.882-1.068l-112.045,79.991
	c-2.629,1.877-4.189,4.908-4.189,8.139V436H84V42z M294,436V335.5c0-0.334-0.018-0.663-0.05-0.989l36.05-36.05V436H294z M238,436
	V302.371l36,36.001V436H238z M182,436V324.29l36-25.701V436H182z M126.5,436v-72.087l35.5-25.344V436H126.5z M41.997,193.509
	c0-13.281,9.465-24.391,22.003-26.943V436H41.997V193.509z M492,464.253c0,15.3-12.447,27.747-27.746,27.747H47.746
	C32.447,492,20,479.553,20,464.253V456h472V464.253z M469.997,193.509V436H448V166.567
	C460.535,169.121,469.997,180.231,469.997,193.509z"/>
<path d="M396,391.67c-2.63,0-5.21,1.06-7.07,2.93c-1.86,1.86-2.93,4.44-2.93,7.07s1.069,5.21,2.93,7.07s4.44,2.93,7.07,2.93
	s5.21-1.07,7.069-2.93c1.86-1.86,2.931-4.44,2.931-7.07c0-2.64-1.07-5.21-2.931-7.07C401.21,392.73,398.63,391.67,396,391.67z"/>
<path d="M149.105,262.938c2.015,0,4.05-0.608,5.813-1.871l70.697-50.629l44.687,44.687c3.906,3.905,10.236,3.904,14.143,0
	l102.537-102.537v17.049c0,5.523,4.478,10,10,10s10-4.477,10-10v-41.192c0-5.523-4.478-10-10-10h-41.191c-5.522,0-10,4.477-10,10
	c0,5.523,4.478,10,10,10h17.049l-95.466,95.466l-43.613-43.613c-3.461-3.459-8.916-3.907-12.894-1.059l-77.593,55.567
	c-4.49,3.216-5.523,9.462-2.308,13.953C142.919,261.486,145.989,262.938,149.105,262.938z"/>
<path d="M113.77,288.24c2.63,0,5.21-1.07,7.07-2.93c1.86-1.87,2.93-4.44,2.93-7.08c0-2.63-1.069-5.21-2.93-7.07
	c-1.86-1.86-4.44-2.92-7.07-2.92s-5.21,1.06-7.069,2.92c-1.86,1.86-2.931,4.44-2.931,7.07c0,2.64,1.07,5.21,2.931,7.08
	C108.56,287.17,111.14,288.24,113.77,288.24z"/>
<path d="M178.636,148.352c-7.486,0-13.577-5.113-13.577-11.398c0-5.523-4.478-10-10-10s-10,4.477-10,10
	c0,14.058,9.931,25.987,23.577,29.976V167c0,5.523,4.478,10,10,10s10-4.477,10-10v-0.071c13.646-3.989,23.578-15.918,23.578-29.976
	c0-17.313-15.063-31.398-33.578-31.398c-7.486,0-13.577-5.113-13.577-11.398s6.091-11.398,13.577-11.398
	c7.487,0,13.578,5.113,13.578,11.398c0,5.523,4.478,10,10,10s10-4.477,10-10c0-14.058-9.932-25.987-23.578-29.976v-0.323
	c0-5.523-4.478-10-10-10s-10,4.477-10,10v0.323c-13.646,3.989-23.577,15.918-23.577,29.976c0,17.313,15.063,31.398,33.577,31.398
	c7.487,0,13.578,5.113,13.578,11.398S186.123,148.352,178.636,148.352z"/>
<path d="M278.333,464h-44.166c-5.522,0-10,4.477-10,10s4.478,10,10,10h44.166c5.522,0,10-4.477,10-10S283.855,464,278.333,464z"/>
<g>
</g>
<g>
</g>
<g>
</g>
<g>
</g>
<g>
</g>
<g>
</g>
<g>
</g>
<g>
</g>
<g>
</g>
<g>
</g>
<g>
</g>
<g>
</g>
<g>
</g>
<g>
</g>
<g>
</g>
</svg>
