<?xml version="1.0" encoding="iso-8859-1"?>
<!-- Generator: Adobe Illustrator 19.0.0, SVG Export Plug-In . SVG Version: 6.00 Build 0)  -->
<svg version="1.1" id="Capa_1" xmlns="http://www.w3.org/2000/svg" xmlns:xlink="http://www.w3.org/1999/xlink" x="0px" y="0px"
	 viewBox="0 0 512.001 512.001" style="enable-background:new 0 0 512.001 512.001;" xml:space="preserve">
<path style="fill:#FF5D5D;" d="M195.985,251.166v184.009c0,11.047,8.954,20.001,20.001,20.001h93.004l40.002,40.002l40.002-40.002
	h93.004c11.047,0,20.001-8.954,20.001-20.001V251.166c0-11.047-8.954-20.001-20.001-20.001H215.986
	C204.94,231.165,195.985,240.121,195.985,251.166z"/>
<path style="fill:#FEDA9B;" d="M10,36.823v184.009c0,11.047,8.954,20.001,20.001,20.001h93.004l40.002,40.002l40.002-40.002h93.004
	c11.047,0,20.001-8.954,20.001-20.001V36.823c0-11.047-8.954-20.001-20.001-20.001H30.001C18.956,16.822,10,25.777,10,36.823z"/>
<path d="M163.008,290.835c-2.56,0-5.118-0.976-7.071-2.929l-37.073-37.073H30.001C13.459,250.833,0,237.375,0,220.832V36.823
	C0,20.28,13.459,6.822,30.001,6.822h266.012c16.543,0,30.001,13.459,30.001,30.001v184.009c0,16.543-13.459,30.001-30.001,30.001
	h-88.861l-37.073,37.073C168.126,289.859,165.568,290.835,163.008,290.835z M30.001,26.823c-5.514,0-10,4.486-10,10v184.009
	c0,5.514,4.486,10,10,10h93.004c2.652,0,5.195,1.054,7.071,2.929l32.931,32.931l32.931-32.931c1.876-1.875,4.419-2.929,7.071-2.929
	h93.004c5.514,0,10-4.486,10-10V36.823c0-5.514-4.486-10-10-10L30.001,26.823L30.001,26.823z"/>
<path d="M363.993,241.163c-2.63,0-5.21-1.06-7.07-2.93c-1.86-1.86-2.93-4.43-2.93-7.07c0-2.63,1.069-5.21,2.93-7.07
	c1.861-1.86,4.44-2.93,7.07-2.93s5.21,1.07,7.069,2.93c1.86,1.87,2.931,4.44,2.931,7.07c0,2.64-1.07,5.21-2.931,7.07
	C369.203,240.103,366.622,241.163,363.993,241.163z"/>
<path d="M348.992,505.179c-2.56,0-5.118-0.976-7.071-2.929l-37.073-37.073h-88.861c-16.543,0-30.001-13.459-30.001-30.001V319.836
	c0-5.523,4.478-10,10-10s10,4.477,10,10v115.338c0,5.514,4.486,10,10,10h93.004c2.652,0,5.195,1.054,7.071,2.929l32.931,32.931
	l32.931-32.931c1.876-1.875,4.419-2.929,7.071-2.929H482c5.514,0,10-4.486,10-10V251.166c0-5.514-4.486-10-10-10h-79.504
	c-5.522,0-10-4.477-10-10s4.478-10,10-10H482c16.543,0,30.001,13.459,30.001,30.001v184.009c0,16.543-13.459,30.001-30.001,30.001
	h-88.861l-37.073,37.073C354.111,504.202,351.551,505.179,348.992,505.179z"/>
<g>
	<circle style="fill:#EDF2FA;" cx="77.504" cy="128.827" r="19.001"/>
	<circle style="fill:#EDF2FA;" cx="163.008" cy="128.827" r="19.001"/>
	<circle style="fill:#EDF2FA;" cx="248.512" cy="128.827" r="19.001"/>
	<circle style="fill:#EDF2FA;" cx="77.504" cy="128.827" r="19.001"/>
	<circle style="fill:#EDF2FA;" cx="163.008" cy="128.827" r="19.001"/>
	<circle style="fill:#EDF2FA;" cx="248.512" cy="128.827" r="19.001"/>
</g>
<g>
	<circle style="fill:#FFFFFF;" cx="77.504" cy="128.827" r="19.001"/>
	<circle style="fill:#FFFFFF;" cx="163.008" cy="128.827" r="19.001"/>
	<circle style="fill:#FFFFFF;" cx="248.512" cy="128.827" r="19.001"/>
</g>
<path d="M77.504,157.829c-15.991,0-29.001-13.01-29.001-29.001s13.011-29.001,29.001-29.001s29.001,13.01,29.001,29.001
	S93.494,157.829,77.504,157.829z M77.504,119.827c-4.963,0-9,4.038-9,9c0,4.962,4.037,9,9,9c4.963,0,9-4.038,9-9
	S82.467,119.827,77.504,119.827z"/>
<path d="M163.008,157.829c-15.991,0-29.001-13.01-29.001-29.001s13.011-29.001,29.001-29.001s29.001,13.01,29.001,29.001
	S178.998,157.829,163.008,157.829z M163.008,119.827c-4.963,0-9,4.038-9,9c0,4.962,4.037,9,9,9c4.963,0,9-4.038,9-9
	S167.971,119.827,163.008,119.827z"/>
<path d="M248.512,157.829c-15.991,0-29.001-13.01-29.001-29.001s13.011-29.001,29.001-29.001s29.001,13.01,29.001,29.001
	S264.502,157.829,248.512,157.829z M248.512,119.827c-4.963,0-9,4.038-9,9c0,4.962,4.037,9,9,9s9-4.038,9-9
	S253.475,119.827,248.512,119.827z"/>
<g>
	<path style="fill:#FFFFFF;" d="M401.818,361.596l-58.487,37.488c-10.145,6.502-23.468-0.783-23.468-12.833v-74.977
		c0-12.051,13.323-19.336,23.468-12.833l58.487,37.488C411.174,341.928,411.174,355.599,401.818,361.596z"/>
	<path style="fill:#FFFFFF;" d="M401.818,361.596l-58.487,37.488c-10.145,6.502-23.468-0.783-23.468-12.833v-74.977
		c0-12.051,13.323-19.336,23.468-12.833l58.487,37.488C411.174,341.928,411.174,355.599,401.818,361.596z"/>
</g>
<path d="M335.105,411.497c-4.159,0-8.326-1.027-12.11-3.096c-8.1-4.429-13.133-12.917-13.133-22.148v-74.977
	c0-9.231,5.032-17.719,13.133-22.148c8.1-4.429,17.961-4.085,25.732,0.896l58.487,37.488c7.276,4.664,11.621,12.609,11.621,21.252
	c0,8.643-4.344,16.588-11.621,21.252l0,0l-58.487,37.488C344.585,410.159,339.85,411.497,335.105,411.497z M335.145,306.012
	c-1.154,0-2.079,0.404-2.555,0.664c-0.819,0.448-2.727,1.794-2.727,4.599v74.977c0,2.805,1.907,4.151,2.727,4.599
	c0.82,0.448,2.981,1.327,5.344-0.186l58.487-37.488c2.178-1.396,2.413-3.551,2.413-4.414c0-0.862-0.235-3.017-2.413-4.413
	l-58.487-37.488C336.941,306.226,335.983,306.012,335.145,306.012z"/>
<rect x="424" y="70.825" style="fill:#7D9BFF;" width="48.002" height="48.002"/>
<rect x="39.978" y="406.84" style="fill:#A0E557;" width="48.002" height="48.002"/>
<path d="M63.979,299.506c-2.63,0-5.21-1.07-7.07-2.93c-1.86-1.86-2.93-4.44-2.93-7.07c0-2.64,1.069-5.21,2.93-7.07
	c1.86-1.87,4.44-2.93,7.07-2.93c2.63,0,5.21,1.06,7.069,2.93c1.86,1.86,2.931,4.44,2.931,7.07s-1.07,5.2-2.931,7.07
	C69.189,298.435,66.608,299.506,63.979,299.506z"/>
<path d="M471.998,60.824h-48.002c-5.522,0-10,4.477-10,10v14.001h-49.646c-5.522,0-10,4.477-10,10s4.478,10,10,10h49.646v14.001
	c0,5.523,4.478,10,10,10h14.001v55.003c0,5.523,4.478,10,10,10c5.522,0,10-4.477,10-10v-55.003h14.001c5.522,0,10-4.477,10-10
	V70.825C481.999,65.302,477.52,60.824,471.998,60.824z M461.998,108.827h-28.001V80.825h28.001V108.827z"/>
<path d="M150.983,420.841H97.981v-14.001c0-5.523-4.478-10-10-10H73.979v-71.67c0-5.523-4.478-10-10-10s-10,4.477-10,10v71.67
	H39.978c-5.522,0-10,4.477-10,10v48.002c0,5.523,4.478,10,10,10H87.98c5.522,0,10-4.477,10-10v-14.001h53.002
	c5.522,0,10-4.477,10-10C160.984,425.318,156.505,420.841,150.983,420.841z M77.98,444.842H49.978v-28.001H77.98V444.842z"/>
<g>
</g>
<g>
</g>
<g>
</g>
<g>
</g>
<g>
</g>
<g>
</g>
<g>
</g>
<g>
</g>
<g>
</g>
<g>
</g>
<g>
</g>
<g>
</g>
<g>
</g>
<g>
</g>
<g>
</g>
</svg>
