<?xml version="1.0" encoding="iso-8859-1"?>
<!-- Generator: Adobe Illustrator 19.0.0, SVG Export Plug-In . SVG Version: 6.00 Build 0)  -->
<svg version="1.1" id="Capa_1" xmlns="http://www.w3.org/2000/svg" xmlns:xlink="http://www.w3.org/1999/xlink" x="0px" y="0px"
	 viewBox="0 0 512 512" style="enable-background:new 0 0 512 512;" xml:space="preserve">
<path style="fill:#72D8FF;" d="M103.999,245.864L103.999,245.864C52.084,245.864,10,287.949,10,339.863v68.135
	c0,51.914,42.085,93.999,93.999,93.999l0,0c51.914,0,93.999-42.085,93.999-93.999v-68.135
	C197.998,287.95,155.913,245.864,103.999,245.864z"/>
<path style="fill:#ADE5FF;" d="M197.998,363.628v-23.764c0-51.914-42.084-93.999-93.999-93.999l0,0
	C52.084,245.865,10,287.95,10,339.864v23.764H197.998z"/>
<circle style="fill:#FFC66C;" cx="336.096" cy="176.068" r="111.999"/>
<circle style="fill:#FEDA9B;" cx="336.096" cy="176.068" r="73.999"/>
<path d="M103.999,235.864C46.653,235.864,0,282.518,0,339.863v68.135c0,57.345,46.653,103.999,103.999,103.999
	s103.999-46.653,103.999-103.999v-68.135C207.998,282.519,161.344,235.864,103.999,235.864z M103.999,491.998
	C57.681,491.998,20,454.317,20,407.999v-34.372h167.998v34.372C187.998,454.316,150.316,491.998,103.999,491.998z M187.998,353.628
	H20v-13.765c0-42.932,32.382-78.421,73.999-83.383v69.852c0,5.523,4.477,10,10,10c5.523,0,10-4.477,10-10V256.48
	c41.618,4.962,73.999,40.452,73.999,83.383V353.628z"/>
<path d="M459.711,62.298c2.559,0,5.119-0.976,7.071-2.929l42.29-42.29c3.905-3.905,3.905-10.237,0-14.143
	c-3.905-3.905-10.237-3.905-14.143,0l-42.29,42.29c-3.905,3.905-3.905,10.237,0,14.143
	C454.593,61.322,457.152,62.298,459.711,62.298z"/>
<path d="M419.791,47.947c5.523,0,10-4.477,10-10V10.003c0-5.523-4.477-10-10-10s-10,4.477-10,10v27.946
	C409.791,43.47,414.268,47.947,419.791,47.947z"/>
<path d="M501.994,82.223h-27.946c-5.523,0-10,4.477-10,10c0,5.523,4.477,10,10,10h27.946c5.523,0,10-4.477,10-10
	C511.994,86.7,507.517,82.223,501.994,82.223z"/>
<path d="M393.454,272.746c-2.382-4.983-8.354-7.089-13.336-4.707c-38.935,18.622-85.61,10.615-116.145-19.92
	c-39.771-39.77-39.771-104.479-0.001-144.248c39.77-39.771,104.479-39.771,144.248,0c30.853,30.852,38.686,77.883,19.491,117.032
	c-2.431,4.959-0.382,10.95,4.577,13.381c4.959,2.43,10.95,0.382,13.381-4.577c22.959-46.826,13.593-103.08-23.306-139.978
	c-47.567-47.566-124.966-47.566-172.533,0c-21.244,21.244-32.991,48.437-35.26,76.266h-7.851c-12.832,0-23.271-10.439-23.271-23.271
	V44.728c0-24.662-20.064-44.725-44.726-44.725S93.999,20.067,93.999,44.728v50.789c0,5.523,4.477,10,10,10c5.523,0,10-4.477,10-10
	V44.728c0-13.634,11.092-24.726,24.726-24.726s24.727,11.092,24.727,24.726v97.996c0,23.859,19.411,43.27,43.27,43.27h7.851
	c2.269,27.829,14.017,55.022,35.261,76.267c23.387,23.387,54.686,35.723,86.407,35.722c17.813,0,35.761-3.892,52.508-11.901
	C393.729,283.699,395.837,277.728,393.454,272.746z"/>
<path d="M408.261,262.304c1.955,1.968,4.524,2.953,7.095,2.953c2.548,0,5.097-0.968,7.047-2.905
	c3.918-3.892,3.939-10.224,0.047-14.142l-0.072-0.073c-3.892-3.918-10.223-3.939-14.142-0.047
	c-3.918,3.892-3.939,10.224-0.047,14.142L408.261,262.304z"/>
<path d="M336.061,149.826c5.497,0,9.969,3.644,9.969,8.123c0,5.523,4.477,10,10,10s10-4.477,10-10
	c0-12.232-8.368-22.66-20.013-26.521c-0.437-5.12-4.724-9.141-9.957-9.141s-9.52,4.021-9.957,9.141
	c-11.644,3.861-20.013,14.289-20.013,26.521c0,15.507,13.444,28.123,29.969,28.123c5.497,0,9.969,3.644,9.969,8.123
	s-4.472,8.123-9.969,8.123s-9.969-3.644-9.969-8.123c0-5.523-4.477-10-10-10s-10,4.477-10,10c0,12.217,8.347,22.635,19.969,26.507
	v0.577c0,5.523,4.477,10,10,10s10-4.477,10-10v-0.577c11.622-3.872,19.969-14.29,19.969-26.507
	c0-15.507-13.444-28.123-29.969-28.123c-5.497,0-9.969-3.644-9.969-8.123C326.09,153.47,330.564,149.826,336.061,149.826z"/>
<path d="M336.061,91.804c-46.317,0-83.999,37.682-83.999,83.999s37.682,83.999,83.999,83.999s83.999-37.682,83.999-83.999
	S382.379,91.804,336.061,91.804z M336.061,239.802c-35.29,0-63.999-28.71-63.999-63.999s28.71-63.999,63.999-63.999
	s63.999,28.71,63.999,63.999S371.351,239.802,336.061,239.802z"/>
<path d="M103.999,145.291c2.63,0,5.21-1.07,7.07-2.93c1.86-1.87,2.93-4.44,2.93-7.07c0-2.64-1.07-5.21-2.93-7.07
	c-1.86-1.87-4.44-2.93-7.07-2.93s-5.21,1.06-7.07,2.93c-1.86,1.86-2.93,4.43-2.93,7.07c0,2.63,1.07,5.2,2.93,7.07
	C98.789,144.22,101.369,145.291,103.999,145.291z"/>
<path d="M103.999,215c5.523,0,10-4.477,10-10v-28.928c0-5.523-4.477-10-10-10c-5.523,0-10,4.477-10,10v28.928
	C93.999,210.523,98.476,215,103.999,215z"/>
<path d="M471.547,364.323h-15.651c-5.523,0-10,4.477-10,10c0,5.523,4.477,10,10,10h15.651c5.523,0,10-4.477,10-10
	C481.547,368.8,477.07,364.323,471.547,364.323z"/>
<path d="M437.081,329.856c-5.523,0-10,4.477-10,10v15.651c0,5.523,4.477,10,10,10s10-4.477,10-10v-15.651
	C447.081,334.333,442.604,329.856,437.081,329.856z"/>
<path d="M418.265,364.323h-15.651c-5.523,0-10,4.477-10,10c0,5.523,4.477,10,10,10h15.651c5.523,0,10-4.477,10-10
	C428.265,368.8,423.787,364.323,418.265,364.323z"/>
<path d="M437.081,383.138c-5.523,0-10,4.477-10,10v15.651c0,5.523,4.477,10,10,10s10-4.477,10-10v-15.651
	C447.081,387.615,442.604,383.138,437.081,383.138z"/>
<path d="M155.585,397.999c-5.523,0-10,4.477-10,10c0,22.931-18.656,41.587-41.587,41.587c-5.523,0-10,4.477-10,10s4.477,10,10,10
	c33.959,0,61.586-27.628,61.586-61.586C165.585,402.476,161.108,397.999,155.585,397.999z"/>
<g>
</g>
<g>
</g>
<g>
</g>
<g>
</g>
<g>
</g>
<g>
</g>
<g>
</g>
<g>
</g>
<g>
</g>
<g>
</g>
<g>
</g>
<g>
</g>
<g>
</g>
<g>
</g>
<g>
</g>
</svg>
