<?xml version="1.0" encoding="iso-8859-1"?>
<!-- Generator: Adobe Illustrator 19.0.0, SVG Export Plug-In . SVG Version: 6.00 Build 0)  -->
<svg version="1.1" id="Capa_1" xmlns="http://www.w3.org/2000/svg" xmlns:xlink="http://www.w3.org/1999/xlink" x="0px" y="0px"
	 viewBox="0 0 512.001 512.001" style="enable-background:new 0 0 512.001 512.001;" xml:space="preserve">
<circle style="fill:#C9F3FF;" cx="183.383" cy="183.313" r="173.35"/>
<path style="fill:#FF5D5D;" d="M374.864,331.147l118.194,118.194c11.932,11.932,11.838,31.552-0.21,43.599l0,0
	c-12.048,12.048-31.667,12.142-43.599,0.21L331.055,374.956L374.864,331.147z"/>
<rect x="337.423" y="346.668" transform="matrix(0.7071 -0.7071 0.7071 0.7071 -152.6675 368.4312)" style="fill:#FFFFFF;" width="61.957" height="43.668"/>
<path style="fill:#C9F3FF;" d="M323.932,292.558l44.76,44.76l-30.746,30.746l-44.76-44.76L323.932,292.558z"/>
<polygon style="fill:#4DBAF6;" points="109.658,83.027 129.185,94.764 159.102,82.366 164.611,60.25 202.162,60.25 207.672,82.366 
	237.589,94.764 257.115,83.027 283.673,109.584 271.936,129.111 284.333,159.028 306.45,164.537 306.45,202.089 284.333,207.598 
	271.936,237.516 283.673,257.042 257.115,283.6 237.589,271.862 207.672,284.261 202.162,306.376 164.611,306.376 159.102,284.261 
	129.185,271.862 109.658,283.6 83.1,257.042 94.838,237.516 82.44,207.598 60.324,202.089 60.324,164.537 82.44,159.028 
	94.838,129.111 83.1,109.584 "/>
<circle style="fill:#FFFFFF;" cx="183.383" cy="183.313" r="59.776"/>
<rect x="19.995" y="368.06" style="fill:#FF5D5D;" width="63.761" height="132.145"/>
<polygon style="fill:#A0E557;" points="390.61,439.459 342.789,439.459 342.789,500.208 406.55,500.208 406.55,453.135 "/>
<rect x="127.592" y="430.467" style="fill:#FFC66C;" width="63.761" height="69.739"/>
<rect x="235.189" y="388.623" style="fill:#72D8FF;" width="63.761" height="111.582"/>
<path d="M308.858,211.756c4.439-1.106,7.555-5.093,7.555-9.668v-37.551c0-4.575-3.115-8.561-7.555-9.668l-17.243-4.296
	l-8.552-20.637l9.15-15.221c2.357-3.921,1.74-8.942-1.494-12.177L264.16,75.981c-3.235-3.235-8.257-3.852-12.178-1.494l-15.22,9.15
	l-20.637-8.552l-4.295-17.242c-1.106-4.439-5.093-7.555-9.668-7.555h-37.551c-4.575,0-8.562,3.115-9.668,7.555l-4.295,17.242
	l-20.637,8.552l-15.22-9.15c-3.922-2.357-8.943-1.74-12.178,1.494L76.055,102.54c-3.235,3.235-3.851,8.257-1.494,12.177l9.15,15.221
	l-8.552,20.637l-17.243,4.296c-4.439,1.106-7.555,5.093-7.555,9.668v37.551c0,4.575,3.115,8.561,7.555,9.668l17.243,4.296
	l8.552,20.637l-9.15,15.22c-2.357,3.921-1.74,8.943,1.494,12.178l26.558,26.558c3.235,3.233,8.256,3.851,12.177,1.494l15.221-9.15
	l20.637,8.552l4.295,17.243c1.106,4.439,5.093,7.555,9.668,7.555h37.551c4.575,0,8.562-3.115,9.668-7.555l4.295-17.243l20.637-8.552
	l15.221,9.15c3.92,2.356,8.943,1.74,12.177-1.494l26.558-26.558c3.235-3.235,3.851-8.257,1.494-12.178l-9.15-15.22l8.552-20.637
	L308.858,211.756z M281.925,197.931c-3.065,0.764-5.586,2.935-6.796,5.853l-12.398,29.917c-1.209,2.919-0.962,6.24,0.664,8.947
	l7.727,12.853l-15.548,15.548l-12.854-7.727c-2.709-1.628-6.028-1.874-8.946-0.665l-29.917,12.399
	c-2.918,1.209-5.089,3.731-5.853,6.796l-3.627,14.561h-21.981l-3.627-14.561c-0.764-3.065-2.935-5.586-5.853-6.796l-29.917-12.399
	c-2.92-1.209-6.24-0.962-8.946,0.665l-12.854,7.727l-15.548-15.548l7.727-12.853c1.628-2.708,1.874-6.028,0.665-8.947
	l-12.398-29.917c-1.209-2.918-3.731-5.09-6.796-5.853l-14.561-3.627v-21.981l14.561-3.627c3.065-0.764,5.586-2.935,6.796-5.853
	l12.398-29.917c1.209-2.919,0.962-6.239-0.665-8.946l-7.727-12.854L111.2,95.578l12.854,7.727c2.708,1.627,6.028,1.875,8.947,0.665
	l29.917-12.399c2.918-1.209,5.089-3.731,5.853-6.796l3.627-14.56h21.981l3.627,14.56c0.764,3.066,2.935,5.586,5.853,6.796
	l29.917,12.399c2.92,1.209,6.239,0.962,8.947-0.665l12.854-7.727l15.548,15.548l-7.727,12.854c-1.628,2.708-1.874,6.027-0.664,8.946
	l12.398,29.917c1.209,2.918,3.731,5.09,6.796,5.853l14.561,3.627v21.981L281.925,197.931z"/>
<path d="M183.387,113.574c-5.502,0-9.963,4.46-9.963,9.963c0,5.502,4.46,9.963,9.963,9.963c27.467,0,49.813,22.346,49.813,49.813
	s-22.346,49.813-49.813,49.813s-49.813-22.346-49.813-49.813c0-5.085,0.761-10.096,2.263-14.895
	c1.643-5.251-1.282-10.839-6.534-12.483c-5.252-1.644-10.839,1.282-12.483,6.534c-2.104,6.726-3.171,13.74-3.171,20.844
	c0,38.454,31.285,69.739,69.739,69.739s69.739-31.285,69.739-69.739S221.841,113.574,183.387,113.574z"/>
<path d="M149.107,144.306c2.007,0,4.032-0.604,5.783-1.856c4.459-3.157,5.547-9.326,2.421-13.82
	c-3.142-4.517-9.352-5.633-13.867-2.49c-0.079,0.055-0.189,0.133-0.266,0.19c-4.424,3.271-5.361,9.508-2.09,13.934
	C143.041,142.908,146.054,144.306,149.107,144.306z"/>
<path d="M346.774,183.313l-0.001,0.708c-0.021,5.502,4.421,9.981,9.924,10.002c0.014,0,0.026,0,0.04,0
	c5.483,0,9.941-4.435,9.962-9.924l0.001-0.787c0-5.502-4.46-9.963-9.963-9.963C351.235,173.349,346.774,177.811,346.774,183.313z"/>
<path d="M500.104,442.296L381.91,324.101c-3.595-3.595-9.248-3.861-13.158-0.813l-35.005-35.005
	c12.158-17.396,21.426-37.113,27.022-58.55c1.39-5.324-1.8-10.767-7.123-12.155c-5.325-1.392-10.766,1.8-12.155,7.123
	c-18.75,71.832-83.763,121.999-158.103,121.999c-90.092,0-163.388-73.295-163.388-163.388S93.294,19.925,183.387,19.925
	c73.763,0,138.647,49.682,157.789,120.816c1.431,5.314,6.897,8.46,12.209,7.032c5.313-1.43,8.461-6.896,7.032-12.209
	C338.939,55.746,266.142,0,183.387,0C82.308,0,0.074,82.234,0.074,183.313s82.234,183.313,183.313,183.313
	c38.867,0,75.459-12.229,105.588-33.443l34.889,34.889c-3.735,3.901-3.692,10.089,0.146,13.928l47.495,47.495h-28.716
	c-5.502,0-9.963,4.46-9.963,9.963v50.788h-23.91V388.626c0-5.502-4.46-9.963-9.963-9.963h-63.761c-5.502,0-9.963,4.46-9.963,9.963
	v101.619h-23.91V430.47c0-5.502-4.46-9.963-9.963-9.963h-63.761c-5.502,0-9.963,4.46-9.963,9.963v59.776h-23.91V368.064
	c0-5.502-4.46-9.963-9.963-9.963H19.999c-5.502,0-9.963,4.46-9.963,9.963v122.181c-5.502,0-9.963,4.46-9.963,9.963
	c0,5.502,4.46,9.963,9.963,9.963h418.432c5.502,0,9.963-4.46,9.963-9.963c0-1.977-0.583-3.813-1.575-5.362l5.349,5.349
	c7.618,7.617,17.783,11.806,28.646,11.806c0.067,0,0.136,0,0.203,0c10.902-0.053,21.145-4.32,28.84-12.015
	C515.856,484.022,515.95,458.143,500.104,442.296z M391.387,361.759l-29.72,29.72l-16.523-16.523l29.72-29.72L391.387,361.759z
	 M321.358,304.073l33.245,33.244l-16.657,16.657l-33.22-33.22C310.612,315.565,316.167,309.993,321.358,304.073z M29.962,490.246
	V378.027h43.836v112.218H29.962z M137.559,490.246v-49.813h43.836v49.813H137.559z M245.155,490.246v-91.656h43.836v91.656H245.155z
	 M352.752,490.246v-40.825h37.858c0.264,0,0.523-0.019,0.782-0.04l5.197,5.197v35.667h-43.837V490.246z M428.468,490.246h-11.955
	v-15.742l17.317,17.317C432.281,490.828,430.445,490.246,428.468,490.246z M485.803,485.896c-3.957,3.958-9.23,6.152-14.845,6.179
	c-0.035,0-0.07,0-0.105,0c-5.54,0-10.707-2.117-14.558-5.97l-80.537-80.537l29.72-29.72l80.536,80.536
	C494.092,464.463,493.998,477.702,485.803,485.896z"/>
<g>
</g>
<g>
</g>
<g>
</g>
<g>
</g>
<g>
</g>
<g>
</g>
<g>
</g>
<g>
</g>
<g>
</g>
<g>
</g>
<g>
</g>
<g>
</g>
<g>
</g>
<g>
</g>
<g>
</g>
</svg>
