<svg id="Layer_1" enable-background="new 0 0 512 512" height="512" viewBox="0 0 512 512" width="512" xmlns="http://www.w3.org/2000/svg"><g><g><path d="m472.202 352.478h-21.592l-15.223-15-15.223 15h-328.328l-15.223-15-15.223 15h-21.592c-11.21 0-20.297-9.087-20.297-20.297v-74.724c0-11.21 9.087-20.297 20.297-20.297h21.592l15.223 15 15.223-15h328.328l16.482 15 13.964-15h21.593c11.21 0 20.297 9.087 20.297 20.297v74.724c0 11.21-9.088 20.297-20.298 20.297z" fill="#c59191"/><path d="m450.61 239.187c6.774 3.289 11.444 10.234 11.444 18.27v74.724c0 8.036-4.67 14.981-11.444 18.27v2.028h21.593c11.21 0 20.297-9.087 20.297-20.297v-74.724c0-11.21-9.087-20.297-20.297-20.297h-21.593z" fill="#b98080"/><g fill="#eaf6ff"><path d="m420.164 237.159h30.446v115.319h-30.446z"/><path d="m61.39 237.159h30.446v115.319h-30.446z"/></g></g><path d="m206.607 296.607c-2.441 2.043-5.387 18.532-8.664 19.252l-24.709-9.57-50.059 11.002c-27.927 6.138-47.821 30.879-47.821 59.473v97.178h361.292v-97.178c0-28.593-19.895-53.335-47.821-59.473l-50.059-11.002-24.709 9.57c-3.277-.72-6.223-17.209-8.664-19.252z" fill="#ffe180"/><path d="m314.057 300.859c-3.277-.72-6.223-2.209-8.664-4.252-4.492-3.76-22.276-9.396-22.276-15.572l15-14.045v-47.779h-84.234v61.824c0 9.531-6.632 17.778-15.94 19.824l58.057 60.892z" fill="#ffcebf"/><g><path d="m305.393 296.607c-4.492-3.76-7.276-9.396-7.276-15.572v-61.824l-30.446 15.223v61.824c0 9.531 6.632 17.778 15.94 19.824l1.889.415" fill="#ffb09e"/><path d="m320.8 324.256 37.579 8.259c27.927 6.138 47.821 30.879 47.821 59.473v81.955h30.446v-97.178c0-28.593-19.895-53.335-47.821-59.473l-50.059-11.002z" fill="#fbd270"/></g><g><g><path d="m341.848 125.164v66.981c0 23.707-9.611 45.171-25.138 60.699-5.51 5.51-11.765 10.275-18.602 14.129-4.346 2.451-8.928-10.466-13.702-8.792-5.357 1.878-10.956 18.239-16.738 19.025-3.815.518-7.71.786-11.668.786-16.045 0-31.055-4.404-43.903-12.067-1.979-1.167-3.897-2.425-5.764-3.755-21.891-15.548-36.18-41.122-36.18-70.026v-66.981h171.695z" fill="#ffcebf"/><path d="m341.848 125.164v66.981c0 23.707-9.611 45.171-25.138 60.699-15.538 15.537-37.002 25.148-60.709 25.148-16.045 0-31.055-4.404-43.903-12.067-1.928-1.269-3.846-2.517-5.764-3.755 30.314 12.432 63.957 6.505 84.812-14.655 21.13-21.454 20.49-49.789 20.257-55.371v-66.981h30.445z" fill="#ffb09e"/><path d="m341.846 101.977h-171.692v-54.734c0-26.092 21.151-47.243 47.243-47.243h77.207c26.092 0 47.243 21.151 47.243 47.243v54.734z" fill="#c59191"/><path d="m294.603 0h-30.446c26.092 0 47.243 21.151 47.243 47.243v54.734h30.446v-54.734c0-26.092-21.151-47.243-47.243-47.243z" fill="#b98080"/><path d="m146.915 137.409h218.17c6.1 0 11.045-4.945 11.045-11.045v-13.342c0-6.1-4.945-11.045-11.045-11.045h-218.17c-6.1 0-11.045 4.945-11.045 11.045v13.342c0 6.1 4.945 11.045 11.045 11.045z" fill="#685e68"/><path d="m365.085 101.977h-30.446c6.1 0 11.045 4.945 11.045 11.045v13.342c0 6.1-4.945 11.045-11.045 11.045h30.446c6.1 0 11.045-4.945 11.045-11.045v-13.342c0-6.1-4.945-11.045-11.045-11.045z" fill="#554e56"/></g><g><g><path d="m214.581 186.541c-4.204 0-7.611-3.408-7.611-7.611v-16.567c0-4.204 3.408-7.611 7.611-7.611s7.611 3.408 7.611 7.611v16.567c.001 4.203-3.407 7.611-7.611 7.611z" fill="#554e56"/></g><g><path d="m297.419 186.541c-4.204 0-7.612-3.408-7.612-7.611v-16.567c0-4.204 3.408-7.611 7.612-7.611s7.612 3.408 7.612 7.611v16.567c-.001 4.203-3.409 7.611-7.612 7.611z" fill="#554e56"/></g></g><g><path d="m256.001 239.325c-.147 0-.293-.001-.441-.002-8.707-.091-15.566-2.871-19.788-5.186-3.686-2.022-5.035-6.648-3.013-10.334 2.021-3.685 6.647-5.036 10.334-3.013 2.695 1.478 7.073 3.253 12.626 3.311 5.792.063 10.373-1.767 13.187-3.311 3.686-2.021 8.313-.672 10.334 3.013 2.022 3.686.673 8.312-3.013 10.334-4.337 2.378-11.341 5.188-20.226 5.188z" fill="#ffb09e"/></g><path d="m352.391 177.933h-10.544v-40.524h10.544c11.19 0 20.262 9.072 20.262 20.262 0 11.191-9.072 20.262-20.262 20.262z" fill="#ffcebf"/><path d="m159.609 177.933h10.544v-40.524h-10.544c-11.191 0-20.262 9.072-20.262 20.262 0 11.191 9.072 20.262 20.262 20.262z" fill="#ffb09e"/></g><path d="m338.766 306.29-24.709-5.43c-3.278-.72-6.212-2.222-8.653-4.265l-47.969 47.969c-.793.793-2.078.793-2.87 0l-47.969-47.969c-2.441 2.043-5.376 3.545-8.653 4.265l-24.709 5.43 68.414 68.414c7.927 7.927 20.778 7.927 28.705 0z" fill="#82aee3"/><path d="m285.501 316.498 35.299 7.758 17.966-17.966-24.709-5.43c-3.277-.72-6.223-2.209-8.664-4.252z" fill="#528fd8"/><g><g><path d="m67.389 512c-5.605 0-10.149-4.544-10.149-10.149v-115.622c0-7.432 7.961-12.344 14.895-9.189l84.484 38.434v96.526z" fill="#8ddaa7"/><path d="m355.376 415.476v96.524h-198.752v-96.524l90.496-41.173c2.811-1.279 5.846-1.918 8.88-1.918s6.069.639 8.88 1.918z" fill="#8ddaa7"/><path d="m355.38 512v-96.526l84.484-38.434c6.934-3.155 14.895 1.757 14.895 9.189v115.622c0 5.605-4.544 10.149-10.149 10.149z" fill="#b0e6a0"/><path d="m439.864 377.04-15.775 7.176c.133.649.224 1.315.224 2.013v115.622c0 5.605-4.544 10.149-10.149 10.149h30.446c5.605 0 10.149-4.544 10.149-10.149v-115.622c0-7.433-7.961-12.344-14.895-9.189z" fill="#8ddaa7"/></g><path d="m256 372.385v139.615h-99.376v-96.524l90.496-41.173c2.811-1.279 5.846-1.918 8.88-1.918z" fill="#b0e6a0"/></g><g><path d="m472.467 489.165h-29.641c-9.793 0-17.732-7.939-17.732-17.732v-36.572c0-9.793 7.939-17.733 17.733-17.733h29.639c3.347 0 6.231 2.332 6.946 5.602 1.96 8.961 3.525 20.252 3.264 33.272-.212 10.557-1.576 19.854-3.263 27.562-.716 3.269-3.6 5.601-6.946 5.601z" fill="#ffcebf"/><path d="m479.412 422.73c-.715-3.27-3.599-5.602-6.946-5.602h-29.639c-.172 0-.339.021-.51.026 3.217.135 5.955 2.405 6.649 5.576 1.96 8.961 3.525 20.252 3.264 33.272-.212 10.557-1.576 19.854-3.263 27.562-.694 3.171-3.432 5.441-6.649 5.576.171.005.337.026.509.026h29.641c3.347 0 6.23-2.332 6.946-5.602 1.687-7.708 3.051-17.005 3.263-27.562.26-13.02-1.305-24.311-3.265-33.272z" fill="#ffb09e"/><path d="m39.533 489.165h29.641c9.793 0 17.732-7.939 17.732-17.732v-36.572c0-9.793-7.939-17.733-17.733-17.733h-29.639c-3.347 0-6.231 2.332-6.946 5.602-1.96 8.961-3.525 20.252-3.264 33.272.212 10.557 1.576 19.854 3.263 27.562.716 3.269 3.6 5.601 6.946 5.601z" fill="#ffcebf"/><path d="m69.174 417.128h-29.64c-.101 0-.197.022-.297.026 9.556.272 17.223 8.085 17.223 17.707v36.572c0 9.621-7.668 17.435-17.224 17.707.1.004.196.026.296.026h29.641c9.793 0 17.732-7.939 17.732-17.732v-36.572c.001-9.795-7.938-17.734-17.731-17.734z" fill="#ffb09e"/></g></g></svg>