<svg id="Layer_1" enable-background="new 0 0 512 512" height="512" viewBox="0 0 512 512" width="512" xmlns="http://www.w3.org/2000/svg"><g><path d="m277.489 245.88c0 36.965 33.04 66.93 73.796 66.93s73.796-29.966 73.796-66.93c0-16.36-6.475-31.345-17.225-42.971-3.565-3.856-3.565-9.749 0-13.605 10.749-11.626 17.225-26.611 17.225-42.97 0-34.551-28.869-62.973-65.922-66.538-2.888-.278-5.317-2.351-6.06-5.155-11.398-42.97-50.544-74.641-97.099-74.641s-85.701 31.671-97.099 74.64c-.744 2.804-3.173 4.877-6.061 5.155-37.052 3.565-65.922 31.988-65.922 66.538 0 16.36 6.475 31.345 17.225 42.97 3.565 3.856 3.565 9.749 0 13.605-10.749 11.626-17.225 26.611-17.225 42.971 0 36.965 33.04 66.93 73.796 66.93s73.796-29.966 73.796-66.93h42.979z" fill="#355f7f"/><g><path d="m407.857 189.304c10.749-11.626 17.225-26.611 17.225-42.97 0-34.551-28.869-62.973-65.922-66.538-2.888-.278-5.317-2.351-6.06-5.155-11.399-42.97-50.545-74.641-97.1-74.641-5.178 0-10.257.413-15.223 1.168 39.689 6.037 71.745 35.282 81.876 73.472.744 2.804 3.173 4.877 6.06 5.155 37.052 3.565 65.922 31.988 65.922 66.538 0 16.36-6.475 31.345-17.225 42.97-3.565 3.856-3.565 9.749 0 13.605 10.749 11.626 17.225 26.611 17.225 42.971 0 32.231-25.122 59.133-58.573 65.497 4.913.935 10.003 1.433 15.223 1.433 40.756 0 73.796-29.966 73.796-66.93 0-16.36-6.475-31.345-17.225-42.971-3.565-3.855-3.565-9.748.001-13.604z" fill="#305972"/></g><g><path d="m436.646 376.769v125.082c0 5.602-4.547 10.149-10.149 10.149h-340.995c-5.602 0-10.149-4.547-10.149-10.149v-125.082c0-28.599 19.891-53.341 47.82-59.481l17.959-3.947 9.656 2.403 5.311-5.692 24.034-5.282 32.806-3.913c9.316-2.04 15.944-10.291 15.944-19.82l-15-61.826h84.234v61.826c0 9.53 6.627 17.78 15.944 19.82l41.84 9.195 6.871 4.225 8.096-.936 17.959 3.947c27.928 6.14 47.819 30.882 47.819 59.481z" fill="#feaee1"/><g><path d="m313.709 322.694 44.671 9.817c27.929 6.14 47.82 30.882 47.82 59.481v120.008h20.297c5.602 0 10.149-4.547 10.149-10.149v-125.082c0-28.599-19.891-53.341-47.82-59.481l-17.959-3.947-8.323 1.771-6.643-5.06-24.034-5.282c-2.163 2.863-4.812 6.007-8.022 9.218-3.544 3.542-7.015 6.411-10.136 8.706z" fill="#fe93d3"/></g><path d="m360.531 459.136v52.864h65.966c5.602 0 10.149-4.547 10.149-10.149v-42.716h-76.115z" fill="#ffcebf"/><path d="m406.2 459.136v42.716c0 5.602-4.547 10.149-10.149 10.149h30.446c5.602 0 10.149-4.547 10.149-10.149v-42.716z" fill="#ffb09e"/><path d="m256 342.01c30.867 0 58.323-14.586 75.866-37.237l-32.808-3.914c-9.309-2.046-15.94-10.293-15.94-19.824l15-61.824h-84.234v61.824c0 9.531-6.632 17.778-15.94 19.824l-17.808 3.914c17.541 22.651 44.997 37.237 75.864 37.237z" fill="#ffcebf"/><path d="m267.671 296.26c0 9.53 6.627 17.78 15.944 19.82l30.095 6.614c6.816-5.145 12.929-11.171 18.157-17.921-5.529-1.473-17.816-3.318-22.29-5.481-6.882-3.326-11.458-10.344-11.458-18.256v-.002-61.824l-30.446 15.223v61.827z" fill="#ffb09e"/><g><path d="m360.531 512c-4.204 0-7.612-3.408-7.612-7.612v-64.16c0-4.204 3.407-7.612 7.612-7.612s7.612 3.408 7.612 7.612v64.16c0 4.204-3.408 7.612-7.612 7.612z" fill="#fe93d3"/></g><g><path d="m347.718 330.168-33.015 81.158c-1.584 3.894.288 8.334 4.182 9.919.94.382 1.91.563 2.865.563 3.005 0 5.851-1.791 7.054-4.745l33.932-83.413c-1.935-.594-3.981-1.163-6.132-1.69-3.122-.764-6.095-1.348-8.886-1.792z" fill="#eaf6ff"/><path d="m347.718 330.168c3.314.739 11.917 2.53 15.018 3.482.292-1.413 7.862-19.01 8.13-20.305l-14.967-3.289z" fill="#d8ecfe"/><path d="m141.515 314.602 41.512 102.046c1.202 2.954 4.049 4.745 7.054 4.745.954 0 1.926-.181 2.865-.563 3.894-1.584 5.766-6.025 4.182-9.919l-41.028-100.856-14.967 3.289c.093.423.214.844.382 1.258z" fill="#eaf6ff"/></g><path d="m151.469 459.136v52.864h-65.967c-5.602 0-10.149-4.547-10.149-10.149v-42.716h76.116z" fill="#ffcebf"/><g><path d="m317.901 512h-123.802c-5.605 0-10.149-4.544-10.149-10.149v-82.163c0-5.605 4.544-10.149 10.149-10.149h123.803c5.605 0 10.149 4.544 10.149 10.149v82.163c-.001 5.605-4.545 10.149-10.15 10.149z" fill="#3f6e92"/><path d="m317.901 409.54h-30.446c5.605 0 10.149 4.544 10.149 10.149v82.163c0 5.605-4.544 10.149-10.149 10.149h30.446c5.605 0 10.149-4.544 10.149-10.149v-82.163c0-5.605-4.544-10.149-10.149-10.149z" fill="#355f7f"/><path d="m297.604 409.54h-83.208l12.418-24.836c1.719-3.438 5.233-5.61 9.077-5.61h40.218c3.844 0 7.358 2.172 9.077 5.61z" fill="#305972"/><g><circle cx="256" cy="460.77" fill="#eaf6ff" r="21.82"/></g><circle cx="212.348" cy="435.415" fill="#eaf6ff" r="7.611"/></g><g><path d="m151.469 512c-4.204 0-7.611-3.408-7.611-7.612v-64.16c0-4.204 3.407-7.612 7.611-7.612s7.611 3.408 7.611 7.612v64.16c0 4.204-3.407 7.612-7.611 7.612z" fill="#fe93d3"/></g></g><path d="m341.846 131.911c0-3.483-2.91-6.261-6.388-6.079-7.756.406-20.103-.387-32.836-7.364-9.809-5.376-16.25-12.451-20.185-17.911-2.099-2.914-6.255-3.332-8.952-.961-7.778 6.841-19.101 14.979-34.201 20.867-25.41 9.908-48.541 8.385-62.059 6.109-3.705-.624-7.072 2.251-7.072 6.008v59.563c0 47.412 38.435 85.846 85.846 85.846 3.825 0 7.592-.25 11.285-.735 5.093-.669 10.046-16.784 14.817-18.305 5.607-1.788 10.965 10.864 16.006 8.021 26.108-14.724 43.738-42.717 43.738-74.827v-60.232z" fill="#ffcebf"/><g><path d="m311.4 192.143c.22 5.601.741 33.45-20.257 55.371-19.202 20.046-49.017 27.429-77.26 19.445 8.599 4.687 20.246 9.374 34.41 10.676 2.67.246 5.243.354 7.707.355 47.412 0 85.846-38.435 85.846-85.846v-60.232c0-3.483-2.909-6.261-6.388-6.079-5.946.311-14.59-.082-24.038-3.426z" fill="#ffb09e"/></g><g><g><path d="m214.581 186.541c-4.204 0-7.611-3.408-7.611-7.611v-16.567c0-4.204 3.407-7.611 7.611-7.611s7.611 3.408 7.611 7.611v16.567c0 4.203-3.407 7.611-7.611 7.611z" fill="#554e56"/></g><g><path d="m297.419 186.541c-4.204 0-7.611-3.408-7.611-7.611v-16.567c0-4.204 3.407-7.611 7.611-7.611s7.612 3.408 7.612 7.611v16.567c0 4.203-3.408 7.611-7.612 7.611z" fill="#554e56"/></g></g><g><path d="m256.001 239.325c-.147 0-.293-.001-.441-.002-6.891-.072-13.733-1.866-19.788-5.186-3.686-2.022-5.035-6.648-3.014-10.334 2.022-3.685 6.646-5.035 10.334-3.014 2.696 1.479 7.075 3.253 12.627 3.312 5.787.058 10.373-1.768 13.188-3.312 3.688-2.021 8.313-.671 10.334 3.014 2.021 3.686.672 8.313-3.014 10.334-4.337 2.378-11.343 5.188-20.226 5.188z" fill="#ffb09e"/></g><path d="m352.391 178.433h-10.544v-40.524h10.544c11.19 0 20.262 9.072 20.262 20.262 0 11.19-9.072 20.262-20.262 20.262z" fill="#ffcebf"/><path d="m159.609 178.433h10.544v-40.524h-10.544c-11.19 0-20.262 9.072-20.262 20.262 0 11.19 9.072 20.262 20.262 20.262z" fill="#ffb09e"/></g></svg>