<svg id="Layer_1" enable-background="new 0 0 512 512" height="512" viewBox="0 0 512 512" width="512" xmlns="http://www.w3.org/2000/svg"><g><g><g><path d="m296.649 357.013h-235.339v-239.344c0-64.987 52.682-117.669 117.669-117.669 64.987 0 117.669 52.682 117.669 117.669v239.344z" fill="#355f7f"/><path d="m178.979 0c-5.159 0-10.24.334-15.223.978 57.795 7.466 102.446 56.863 102.446 116.691v239.343h30.446v-239.343c.001-64.987-52.682-117.669-117.669-117.669z" fill="#305972"/><g><path d="m425.468 213.632h8.103c2.67 0 5.044 1.765 5.741 4.343 1.908 7.057 8.354 12.25 16.013 12.25 7.658 0 14.105-5.192 16.013-12.25.697-2.578 3.071-4.343 5.741-4.343h8.103c3.298 0 5.971 2.674 5.971 5.973v112.498c0 3.299-2.673 5.973-5.971 5.973h-8.103c-2.67 0-5.044-1.765-5.741-4.343-1.908-7.057-8.354-12.25-16.013-12.25-7.658 0-14.105 5.192-16.013 12.25-.697 2.578-3.071 4.343-5.741 4.343h-8.103c-3.298 0-5.971-2.674-5.971-5.973v-112.498c0-3.298 2.674-5.973 5.971-5.973z" fill="#82aee3"/><g><path d="m491.152 219.606c0-3.299-2.673-5.973-5.971-5.973h-8.103c-2.67 0-5.044 1.765-5.741 4.343-1.439 5.321-5.459 9.579-10.631 11.353v93.053c5.173 1.775 9.193 6.032 10.631 11.353.697 2.578 3.071 4.343 5.741 4.343h8.103c3.298 0 5.971-2.674 5.971-5.973z" fill="#528fd8"/></g><path d="m500.583 326.787c0 7.236-2.517 14.512-7.672 20.409l-22.824 26.112-101.934 116.568c-9.773 11.183-26.975 11.762-37.479 1.269l-26.417-26.407v39.661c0 4.202-3.4 7.602-7.591 7.602h-275.1c-5.602 0-10.149-4.547-10.149-10.149v-122.353c0-28.01 19.11-52.408 46.308-59.116l54.514-13.445 23.692-2.144c9.063-2.243 15.436-10.372 15.436-19.709l-15-63.196h85.229v61.643c0 10.067 7.287 18.643 17.212 20.277l7.865 1.289 33.886 5.552c22.063 3.623 41.183 17.293 51.738 37.002l24.57 45.882c1.005 1.867 2.659 3.075 4.496 3.552 2.507.66 5.338-.03 7.246-2.213l57.482-65.57 20.165-22.997c10.93-12.462 29.725-14.127 42.675-3.775 7.684 6.151 11.652 15.173 11.652 24.256z" fill="#f58a97"/><g><path d="m488.932 302.532c-6.728-5.379-15.034-7.505-22.995-6.567 2.775 4.781 4.2 10.176 4.2 15.599 0 7.236-2.517 14.512-7.672 20.409l-22.824 26.112-101.934 116.568c-4.082 4.671-9.461 7.485-15.106 8.422l8.073 8.07c10.504 10.494 27.706 9.915 37.479-1.269l101.933-116.568 22.824-26.112c5.156-5.896 7.672-13.173 7.672-20.409.001-9.083-3.967-18.105-11.65-24.255z" fill="#f07281"/></g><g><path d="m361.363 397.087-5.907 3.197c-14.31 7.723-32.171 2.365-39.884-11.945l-13.721-25.463c-10.555-19.709-29.675-33.379-51.738-37.002l-16.015-2.618c2.152-2.304 4.486-5.074 6.779-8.373 2.446-3.491 4.333-6.83 5.795-9.783l33.886 5.552c22.063 3.623 41.183 17.293 51.738 37.002l24.57 45.882c1.006 1.866 2.661 3.074 4.497 3.551z" fill="#f07281"/></g><path d="m120.927 304.791-8.689 2.143c12.656 23.944 37.781 40.276 66.741 40.276 29.698 0 55.378-17.166 67.697-42.113l-22.866-1.29c-9.928-1.628-17.215-20.275-17.215-20.275l15-61.647h-85.231v62.578.621c0 9.338-6.371 17.471-15.437 19.707z" fill="#ffcebf"/><path d="m246.675 305.099-7.867-1.289c-9.82-1.616-17.213-10.18-17.213-20.272v-.006-61.641l-30.445 15.223v61.643c0 10.067 7.287 18.643 17.212 20.277l25.739 4.217c5.025-5.378 9.281-11.483 12.574-18.152z" fill="#ffb09e"/><g><path d="m73.21 512c-4.204 0-7.611-3.408-7.611-7.612v-53.123c0-4.204 3.408-7.611 7.611-7.611s7.611 3.408 7.611 7.611v53.123c.001 4.204-3.407 7.612-7.611 7.612z" fill="#f07281"/></g><g><path d="m296.648 512c-4.204 0-7.612-3.408-7.612-7.612v-53.123c0-4.204 3.408-7.611 7.612-7.611s7.611 3.408 7.611 7.611v53.123c0 4.204-3.408 7.612-7.611 7.612z" fill="#f07281"/></g><path d="m92.116 138.657v55.83c0 47.99 38.89 86.893 86.863 86.893 47.973 0 86.863-38.904 86.863-86.893v-53.791c0-4-3.261-7.252-7.26-7.189-16.831.267-37.81-1.921-59.546-11.268-19.368-8.328-25.909-16.565-40.882-18.735-14.488-2.1-34.82 1.778-61.891 25.925-2.63 2.346-4.147 5.702-4.147 9.228z" fill="#ffcebf"/><path d="m235.396 194.487c.221 5.682.736 33.912-20.554 56.113-19.504 20.34-49.803 27.794-78.475 19.617 8.737 4.762 20.55 9.507 34.906 10.812 2.668.243 5.24.35 7.706.351 47.973 0 86.863-38.904 86.863-86.893v-53.791c0-4.001-3.262-7.252-7.263-7.189-7.069.112-14.871-.209-23.152-1.311z" fill="#ffb09e"/><g><path d="m137.07 188.724c-4.204 0-7.611-3.408-7.611-7.611v-16.77c0-4.204 3.408-7.611 7.611-7.611 4.204 0 7.611 3.408 7.611 7.611v16.77c0 4.203-3.407 7.611-7.611 7.611z" fill="#554e56"/></g><g><path d="m220.889 188.724c-4.204 0-7.611-3.408-7.611-7.611v-16.77c0-4.204 3.408-7.611 7.611-7.611 4.204 0 7.611 3.408 7.611 7.611v16.77c0 4.203-3.408 7.611-7.611 7.611z" fill="#554e56"/></g><g><path d="m178.98 242.151c-.148 0-.296-.001-.444-.002-6.958-.073-13.867-1.884-19.981-5.238-3.685-2.022-5.034-6.649-3.012-10.334 2.021-3.685 6.648-5.035 10.335-3.012 2.736 1.501 7.182 3.304 12.818 3.363 5.861.04 10.53-1.795 13.389-3.363 3.688-2.023 8.312-.672 10.334 3.013 2.022 3.686.672 8.313-3.013 10.334-4.383 2.402-11.457 5.239-20.426 5.239z" fill="#ffb09e"/></g><path d="m500.583 326.787c0 7.236-2.517 14.512-7.672 20.409l-22.824 26.112-23.342-23.352-20.652-20.653 20.165-22.997c5.247-5.988 12.32-9.479 19.678-10.341 7.957-.944 16.268 1.187 22.997 6.566 7.682 6.151 11.65 15.173 11.65 24.256z" fill="#ffcebf"/><path d="m492.91 347.196-22.824 26.112-23.342-23.352c11.915-14.188 32.466-30.03 19.191-53.991 7.957-.944 16.268 1.187 22.997 6.566 13.865 11.085 15.558 31.431 3.978 44.665z" fill="#ffb09e"/></g></g></g><path d="m276.386 192.196h-10.544v-40.524h10.544c11.19 0 20.262 9.072 20.262 20.262.001 11.19-9.071 20.262-20.262 20.262z" fill="#ffcebf"/><path d="m81.572 192.196h10.544v-40.524h-10.544c-11.19 0-20.262 9.072-20.262 20.262 0 11.19 9.072 20.262 20.262 20.262z" fill="#ffb09e"/></g></svg>