<svg id="Layer_1" enable-background="new 0 0 512 512" height="512" viewBox="0 0 512 512" width="512" xmlns="http://www.w3.org/2000/svg"><g><g><g><path d="m387.595 383.742h-52.001c-4.267 0-7.726-3.459-7.726-7.726v-78.172c0-9.941 8.088-18.028 18.028-18.028h31.397c9.941 0 18.028 8.088 18.028 18.028v78.172c0 4.267-3.459 7.726-7.726 7.726zm-44.275-15.452h36.548v-70.446c0-1.42-1.155-2.575-2.575-2.575h-31.397c-1.42 0-2.575 1.155-2.575 2.575v70.446z" fill="#554e56"/></g><g><path d="m394.348 512h-65.507c-12.634 0-22.876-10.242-22.876-22.876v-105.684c0-12.634 10.242-22.876 22.876-22.876h65.507c12.634 0 22.876 10.242 22.876 22.876v105.684c0 12.634-10.242 22.876-22.876 22.876z" fill="#c59191"/><path d="m394.348 360.563h-30.905c12.634 0 22.876 10.242 22.876 22.876v105.684c0 12.634-10.242 22.876-22.876 22.876h30.905c12.634 0 22.876-10.242 22.876-22.876v-105.683c0-12.635-10.242-22.877-22.876-22.877z" fill="#b98080"/><g><g><path d="m346.142 479.967c-4.267 0-7.726-3.459-7.726-7.726v-78.326c0-4.267 3.459-7.726 7.726-7.726s7.726 3.459 7.726 7.726v78.326c0 4.267-3.459 7.726-7.726 7.726z" fill="#d7b2b2"/></g><g><path d="m377.047 479.967c-4.267 0-7.726-3.459-7.726-7.726v-78.326c0-4.267 3.459-7.726 7.726-7.726s7.726 3.459 7.726 7.726v78.326c.001 4.267-3.459 7.726-7.726 7.726z" fill="#d7b2b2"/></g></g></g></g><g><path d="m235.274 346.954-96.939-33.387-1.178 13.946c-.928 10.992-10.121 19.441-21.153 19.441-12.096 0-21.748-10.093-21.207-22.177l6.118-136.708c.723-16.164 10.839-30.408 25.862-36.418l39.638-15.855c7.822-3.129 12.952-10.705 12.952-19.13v-16.956h54.416v16.055c0 8.868 5.675 16.742 14.088 19.546l17.229 5.743c9.681 3.227 17.821 9.932 22.842 18.816l66.208 117.131c7.715 13.649-2.146 30.55-17.824 30.55-7.065 0-13.63-3.642-17.37-9.636l-46.541-74.584v60.675z" fill="#b0e6a0"/><g><path d="m354.151 277.002-66.208-117.132c-5.022-8.884-13.161-15.589-22.842-18.815l-17.229-5.743c-8.413-2.804-14.088-10.678-14.088-19.546v-16.056h-24.404v31.508c0 8.868 5.675 16.742 14.088 19.546l17.229 5.743c9.681 3.227 17.821 9.932 22.842 18.815l66.208 117.132c2.689 4.758 3.238 9.909 2.154 14.604 1.438.318 2.919.493 4.425.493 15.679.001 25.54-16.9 17.825-30.549z" fill="#8ddaa7"/></g><path d="m245.923 134.537c-7.326-3.3-27.593-10.609-27.593-18.772l15.453-16.055h-54.416v16.956c0 7.989-4.618 15.209-11.765 18.603 7.324 14.061 22.022 23.668 38.973 23.668 17.244 0 32.159-9.941 39.348-24.4z" fill="#ffcebf"/><path d="m223.469 150.765 5.693 1.897c7.169-4.313 13.019-10.597 16.762-18.125-2.721-1.225-5.092-3.003-7.001-5.175-2.871-3.464-5.163-7.844-5.139-13.597v-16.055h-24.404v31.508c0 8.869 5.675 16.742 14.089 19.547z" fill="#ffb09e"/><path d="m310.253 283.969 8.703 13.947c2.943 4.716 7.635 7.976 12.944 9.152 1.438.318 4.427-14.969 4.427-14.969 15.679 0 10.087-1.448 2.372-15.097l6.881-15.164z" fill="#ffcebf"/><path d="m354.151 277.002-8.572-15.164-24.472 15.331 8.64 15.286c2.689 4.758 3.238 9.909 2.154 14.604h.004c1.448.319 2.937.491 4.421.493 15.679 0 25.54-16.901 17.825-30.55z" fill="#ffb09e"/><path d="m138.504 311.63h-43.118l-.588 13.147c-.541 12.085 9.11 22.177 21.207 22.177 11.031 0 20.224-8.449 21.153-19.441l1.178-13.946.567.195z" fill="#ffcebf"/><path d="m272.415 300.596-15.453 195.951h-100.774l-15.452-195.951z" fill="#ffcebf"/><path d="m140.736 223.332h131.679v61.811h-131.679z" fill="#b0e6a0"/><g><path d="m148.462 292.869c-4.267 0-7.726-3.459-7.726-7.726v-61.811c0-4.267 3.459-7.726 7.726-7.726s7.726 3.459 7.726 7.726v61.811c.001 4.267-3.459 7.726-7.726 7.726z" fill="#8ddaa7"/></g><g><path d="m264.689 292.869c-4.267 0-7.726-3.459-7.726-7.726v-61.811c0-4.267 3.459-7.726 7.726-7.726s7.726 3.459 7.726 7.726v61.811c0 4.267-3.459 7.726-7.726 7.726z" fill="#8ddaa7"/></g><g><path d="m206.575 122.875c-26.042 0-47.152-21.111-47.152-47.152v-48.047c0-15.285 12.391-27.676 27.676-27.676h38.952c15.285 0 27.676 12.391 27.676 27.676v48.047c.001 26.042-21.11 47.152-47.152 47.152z" fill="#ffcebf"/><path d="m159.423 49.177v-21.501c0-15.285 12.391-27.676 27.676-27.676h38.952c15.285 0 27.676 12.391 27.676 27.676v21.501z" fill="#c59191"/><path d="m253.728 49.177v-21.501c0-15.285-12.391-27.676-27.676-27.676h-30.905c15.285 0 27.676 12.391 27.676 27.676v21.501z" fill="#b98080"/><path d="m222.822 49.177v26.547c.22 2.383 1.277 16.317-8.931 27.609-13.386 14.807-33.507 11.095-34.523 10.889 4.293 2.963 11.039 6.683 19.901 8.085 2.627.415 5.081.571 7.306.568 26.041 0 47.152-21.111 47.152-47.152v-26.546" fill="#ffb09e"/><g><path d="m274.891 55.883h-136.631c-4.267 0-7.726-3.459-7.726-7.726s3.459-7.726 7.726-7.726h136.631c4.267 0 7.726 3.459 7.726 7.726s-3.459 7.726-7.726 7.726z" fill="#685e68"/></g><path d="m274.891 40.43h-30.905c4.267 0 7.726 3.459 7.726 7.726s-3.459 7.726-7.726 7.726h30.905c4.267 0 7.726-3.459 7.726-7.726s-3.459-7.726-7.726-7.726z" fill="#554e56"/></g><path d="m140.736 285.143h131.679l7.072 83.721c.508 6.01-4.234 11.169-10.265 11.169h-125.293c-6.032 0-10.773-5.159-10.265-11.169z" fill="#ffe180"/><path d="m279.487 368.864-7.072-83.721h-30.905l7.072 83.721c.508 6.011-4.234 11.169-10.265 11.169h30.905c6.031 0 10.773-5.159 10.265-11.169z" fill="#fbd270"/><g><path d="m198.849 503.728v-166.526c0-4.267 3.459-7.726 7.726-7.726s7.726 3.459 7.726 7.726v166.527h-15.452z" fill="#fbd270"/></g><g><path d="m198.849 379.893h15.453v123.835h-15.453z" fill="#ffb09e"/></g><path d="m264.143 512h-49.297c-4.568 0-8.272-3.703-8.272-8.272 0-12.5 10.134-22.634 22.634-22.634h20.572c12.5 0 22.634 10.134 22.634 22.634.001 4.569-3.702 8.272-8.271 8.272z" fill="#554e56"/><path d="m249.781 481.095h-20.572c-1.778 0-3.506.212-5.167.6 10.009 2.338 17.467 11.312 17.467 22.034 0 4.568-3.703 8.272-8.272 8.272h30.905c4.568 0 8.272-3.703 8.272-8.272.001-12.501-10.133-22.634-22.633-22.634z" fill="#433f43"/><path d="m198.304 512h-49.297c-4.568 0-8.272-3.703-8.272-8.272 0-12.5 10.134-22.634 22.634-22.634h20.572c12.5 0 22.634 10.134 22.634 22.634 0 4.569-3.703 8.272-8.271 8.272z" fill="#554e56"/><path d="m183.942 481.095h-20.572c-1.778 0-3.506.212-5.167.6 10.009 2.338 17.467 11.312 17.467 22.034 0 4.568-3.703 8.272-8.272 8.272h30.905c4.568 0 8.272-3.703 8.272-8.272 0-12.501-10.133-22.634-22.633-22.634z" fill="#433f43"/></g></g></svg>