<svg id="Layer_1" enable-background="new 0 0 512 512" height="512" viewBox="0 0 512 512" width="512" xmlns="http://www.w3.org/2000/svg"><g><g><path d="m413.589 244.764h-125.993c-19.391 0-35.111-15.72-35.111-35.111v-111.546c0-54.183 43.924-98.107 98.107-98.107 54.183 0 98.107 43.924 98.107 98.107v111.546c0 19.391-15.719 35.111-35.11 35.111z" fill="#355f7f"/><path d="m350.592 0c-5.178 0-10.262.404-15.223 1.177 46.953 7.315 82.884 47.925 82.884 96.93v111.546c0 19.391-15.72 35.111-35.111 35.111h30.446c19.391 0 35.111-15.72 35.111-35.111v-111.546c0-54.183-43.924-98.107-98.107-98.107z" fill="#305972"/><g><g><path d="m492.971 395.929v-100.589c0-22.536-15.68-42.037-37.691-46.874l-58.929-12.952c-7.337-1.613-12.564-8.113-12.564-15.625v-48.727h-66.39v48.727c0 7.512-5.227 14.012-12.564 15.625l-58.929 12.952c-22.011 4.838-37.691 24.338-37.691 46.874v100.589z" fill="#aca6d6"/><g><path d="m455.28 248.466-58.93-12.951c-7.337-1.612-12.564-8.112-12.564-15.624v-48.727l-30.446 15.223v48.727c0 7.512 5.227 14.012 12.564 15.624l58.93 12.951c22.011 4.837 37.691 24.338 37.691 46.874v85.366h30.446v-100.589c0-22.536-15.68-42.037-37.691-46.874z" fill="#978ecb"/></g><path d="m432.98 360.266h59.991v40.304h-59.991z" fill="#ffcebf"/><path d="m462.525 360.266h30.446v35.663h-30.446z" fill="#ffb09e"/><path d="m208.213 360.266h59.991v40.304h-59.991z" fill="#ffcebf"/><path d="m350.592 267.948c24.328 0 45.969-11.496 59.795-29.349l-29.036-3.085c-7.337-1.613-12.564-8.113-12.564-15.625l15-48.727h-66.39v48.727c0 7.512-5.227 14.012-12.564 15.625l-14.036 3.085c13.827 17.853 35.467 29.349 59.795 29.349z" fill="#ffcebf"/><path d="m383.787 219.89v-48.727l-30.446 15.223v48.727c0 7.512 5.227 14.012 12.564 15.624l25.081 5.512c7.448-4.72 14.019-10.701 19.401-17.651l-14.036-3.085c-2.751-.607-5.17-1.865-7.199-3.671-3.323-2.957-5.365-7.257-5.365-11.952z" fill="#ffb09e"/><g><path d="m432.98 403.541c-4.204 0-7.611-3.408-7.611-7.612v-50.569c0-4.204 3.407-7.612 7.611-7.612s7.612 3.408 7.612 7.612v50.569c0 4.204-3.408 7.612-7.612 7.612z" fill="#978ecb"/></g><g><path d="m268.204 403.541c-4.204 0-7.612-3.408-7.612-7.612v-50.569c0-4.204 3.407-7.612 7.612-7.612s7.612 3.408 7.612 7.612v50.569c0 4.204-3.408 7.612-7.612 7.612z" fill="#978ecb"/></g></g><path d="m418.253 102.355c0-2.746-2.293-4.935-5.035-4.792-6.113.32-15.845-.305-25.88-5.804-7.731-4.237-12.808-9.813-15.909-14.117-1.655-2.296-4.93-2.626-7.055-.757-6.131 5.392-15.055 11.806-26.956 16.447-20.027 7.809-38.258 6.609-48.913 4.815-2.92-.492-5.574 1.775-5.574 4.736v46.945c0 37.368 30.293 67.661 67.661 67.661 37.368 0 67.661-30.293 67.661-67.661z" fill="#ffcebf"/><g><path d="m387.807 149.828c.22 4.138.931 25.349-14.956 42.418-21.668 23.28-53.783 16.91-55.454 16.549 6.169 3.393 14.79 7.005 25.455 8.246 2.726.317 5.314.448 7.74.448 37.368 0 67.661-30.293 67.661-67.661v-47.472c0-2.745-2.293-4.935-5.035-4.791-6.028.315-15.575-.287-25.463-5.578z" fill="#ffb09e"/></g><g><g><path d="m317.947 147.025c-4.204 0-7.612-3.408-7.612-7.611v-13.058c0-4.204 3.407-7.611 7.612-7.611s7.611 3.408 7.611 7.611v13.058c.001 4.203-3.406 7.611-7.611 7.611z" fill="#554e56"/></g><g><path d="m383.237 147.025c-4.204 0-7.612-3.408-7.612-7.611v-13.058c0-4.204 3.407-7.611 7.612-7.611s7.611 3.408 7.611 7.611v13.058c0 4.203-3.407 7.611-7.611 7.611z" fill="#554e56"/></g></g><g><path d="m350.592 188.627c-.12 0-.241 0-.363-.002-5.698-.059-11.354-1.542-16.356-4.287-3.686-2.022-5.034-6.649-3.012-10.334 2.021-3.685 6.648-5.033 10.334-3.011 1.962 1.076 5.15 2.368 9.192 2.411 4.267.023 7.552-1.287 9.603-2.411 3.685-2.023 8.311-.672 10.334 3.013 2.021 3.686.672 8.313-3.014 10.334-3.585 1.965-9.374 4.287-16.718 4.287z" fill="#ffb09e"/></g></g></g><path d="m34.252 501.851v-58.355h443.497v58.355c0 5.605-4.544 10.149-10.149 10.149h-423.2c-5.605 0-10.148-4.544-10.148-10.149z" fill="#eaf6ff"/><path d="m447.302 443.497v58.355c0 5.605-4.544 10.149-10.149 10.149h30.447c5.605 0 10.149-4.544 10.149-10.149v-58.355z" fill="#d8ecfe"/><g><path d="m168.477 387.155h-111.109v-23.502c0-9.428 7.643-17.072 17.072-17.072h76.966c9.428 0 17.072 7.643 17.072 17.072v23.502z" fill="#355f7f"/><path d="m151.406 346.581h-30.446c9.428 0 17.072 7.643 17.072 17.072v23.502h30.446v-23.502c-.001-9.429-7.644-17.072-17.072-17.072z" fill="#305972"/><path d="m210.658 305.004h-195.471c-6.286 0-11.381-5.096-11.381-11.381v-125.908c0-6.286 5.096-11.381 11.381-11.381h195.471c6.286 0 11.381 5.096 11.381 11.381v125.908c0 6.285-5.095 11.381-11.381 11.381z" fill="#355f7f"/><path d="m210.658 156.333h-30.446c6.286 0 11.381 5.096 11.381 11.381v125.908c0 6.285-5.096 11.381-11.381 11.381h30.446c6.286 0 11.381-5.096 11.381-11.381v-125.907c0-6.286-5.095-11.382-11.381-11.382z" fill="#305972"/><path d="m133.364 346.581h-40.883v-101.564c0-5.605 4.544-10.149 10.149-10.149h20.585c5.605 0 10.149 4.544 10.149 10.149z" fill="#eaf6ff"/></g><path d="m498.046 443.497h-484.092c-5.605 0-10.149-4.544-10.149-10.149v-36.044c0-5.605 4.544-10.149 10.149-10.149h484.091c5.605 0 10.149 4.544 10.149 10.149v36.044c0 5.605-4.543 10.149-10.148 10.149z" fill="#c59191"/><path d="m498.046 387.155h-30.446c5.605 0 10.149 4.544 10.149 10.149v36.044c0 5.605-4.544 10.149-10.149 10.149h30.446c5.605 0 10.149-4.544 10.149-10.149v-36.044c-.001-5.605-4.544-10.149-10.149-10.149z" fill="#b98080"/></g></svg>