<svg id="Layer_1" enable-background="new 0 0 512 512" height="512" viewBox="0 0 512 512" width="512" xmlns="http://www.w3.org/2000/svg"><g><g><path d="m466.27 373.308-101.923 116.568c-9.773 11.183-26.975 11.762-37.479 1.269l-26.417-26.407v39.671c0 4.191-3.4 7.591-7.591 7.591h-275.1c-5.602 0-10.149-4.547-10.149-10.149v-122.352c0-28.01 19.11-52.408 46.308-59.116l63.206-15.588c9.063-2.243 15.436-10.372 15.436-19.709v-63.196h70.228v61.643c0 10.067 7.287 18.643 17.222 20.277l22.858 1.288 33.884 5.553c22.063 3.623 41.183 17.293 51.738 37.012l24.57 45.872c.964 1.796 2.527 2.974 4.273 3.491 2.557.761 5.501.091 7.469-2.152l57.482-65.57z" fill="#82aee3"/><g><path d="m242.87 305.098 33.884 5.553c22.063 3.623 41.183 17.293 51.738 37.012l24.57 45.872c.964 1.796 2.527 2.974 4.273 3.491-3.491 2.456-6.992 4.892-10.484 7.337-10.291 7.206-24.55 3.796-30.487-7.267l-18.318-34.211c-10.555-19.719-29.675-33.389-51.738-37.012l-16.013-2.624z" fill="#528fd8"/></g><path d="m220.004 303.807 22.866 1.29c-12.32 24.947-37.999 42.113-67.697 42.113-28.96 0-54.085-16.332-66.741-40.276l8.689-2.143c9.066-2.236 15.437-10.369 15.437-19.707v-.621-62.578h85.231l-15 61.647c0 10.064 7.287 18.646 17.215 20.275z" fill="#ffcebf"/><g><path d="m451.341 327.781c-4.204 0-7.612-3.408-7.612-7.611v-176.891c0-4.204 3.407-7.611 7.612-7.611s7.611 3.408 7.611 7.611v176.891c.001 4.204-3.406 7.611-7.611 7.611z" fill="#eaf6ff"/></g><path d="m504.388 125.316c0 2.354-1.015 4.709-3.024 6.353l-57.634 46.826v-97.833c0-3.42 3.968-5.308 6.617-3.146l51.017 41.447c2.01 1.644 3.024 3.998 3.024 6.353z" fill="#f58a97"/><g><path d="m485.126 302.534c-9.677-7.736-22.618-8.759-33.102-3.582 7.503 6.144 11.384 15.054 11.384 24.029 0 7.236-2.517 14.512-7.672 20.409l-22.824 26.112-101.933 116.568c-1.47 1.682-3.11 3.119-4.868 4.32l.757.757c10.504 10.494 27.706 9.915 37.479-1.269l101.933-116.567 22.824-26.112c5.156-5.896 7.672-13.173 7.672-20.409.001-9.083-3.967-18.106-11.65-24.256z" fill="#528fd8"/></g><path d="m187.343 298.755c0 10.064 7.29 18.647 17.221 20.276l25.731 4.22c5.025-5.378 9.281-11.484 12.575-18.154l-7.861-1.289h-.001l-.005-.001c-9.928-1.628-17.215-10.211-17.215-20.275v-61.647l-30.446 15.223v61.647z" fill="#ffb09e"/><g><path d="m84.627 512c4.204 0 7.611-3.408 7.611-7.612v-58.789c0-4.204-3.407-7.612-7.611-7.612s-7.611 3.408-7.611 7.612v58.789c0 4.204 3.407 7.612 7.611 7.612z" fill="#528fd8"/></g><g><path d="m292.841 512c4.204 0 7.612-3.408 7.612-7.612v-58.789c0-4.204-3.407-7.612-7.612-7.612s-7.611 3.408-7.611 7.612v58.789c0 4.204 3.407 7.612 7.611 7.612z" fill="#528fd8"/></g><g><path d="m262.036 118.016v76.471c0 32.477-17.811 60.793-44.195 75.706-4.933 2.788-10.166-9.892-15.638-8.101-4.816 1.576-9.818 17.742-14.964 18.458-3.943.548-7.972.832-12.066.832-47.973 0-86.863-38.903-86.863-86.893v-76.471l86.863-15.223z" fill="#ffcebf"/><path d="m231.59 118.015v76.471c.01 8.703-1.248 28.719-14.974 46.869-18.181 24.04-50.819 35.002-84.058 28.86 8.737 4.763 20.552 9.51 34.91 10.815 2.668.242 5.24.349 7.706.35 47.973 0 86.863-38.903 86.863-86.893 0-22.6 0-53.872 0-76.471h-30.447z" fill="#ffb09e"/><g><path d="m217.083 188.724c-4.204 0-7.611-3.408-7.611-7.611v-16.77c0-4.204 3.407-7.611 7.611-7.611s7.611 3.408 7.611 7.611v16.77c0 4.203-3.407 7.611-7.611 7.611z" fill="#554e56"/></g><g><path d="m133.264 188.724c-4.204 0-7.611-3.408-7.611-7.611v-16.77c0-4.204 3.407-7.611 7.611-7.611s7.611 3.408 7.611 7.611v16.77c.001 4.203-3.407 7.611-7.611 7.611z" fill="#554e56"/></g><g><path d="m175.172 242.151c-8.97 0-16.043-2.837-20.423-5.24-3.686-2.022-5.034-6.649-3.012-10.334 2.022-3.686 6.649-5.034 10.334-3.012 2.858 1.568 7.508 3.435 13.388 3.363 5.637-.059 10.081-1.861 12.817-3.362 3.686-2.021 8.313-.674 10.335 3.011s.674 8.312-3.011 10.335c-4.263 2.339-11.189 5.147-19.982 5.238-.15 0-.298.001-.446.001z" fill="#ffb09e"/></g></g><path d="m496.777 326.787c0 7.236-2.517 14.512-7.672 20.409l-22.834 26.112-43.984-44.004 20.165-22.987c2.76-3.157 6.028-5.612 9.57-7.368 10.484-5.176 23.423-4.151 33.105 3.583 7.682 6.15 11.65 15.172 11.65 24.255z" fill="#ffcebf"/><path d="m496.777 326.787c0 7.236-2.517 14.512-7.672 20.409l-22.834 26.112-19.567-19.587c14.959-14.32 26.133-35.946 5.318-54.773 10.484-5.176 23.423-4.151 33.105 3.583 7.682 6.151 11.65 15.173 11.65 24.256z" fill="#ffb09e"/><g><path d="m77.766 183.573h10.544v-40.524h-10.544c-11.19 0-20.262 9.072-20.262 20.262 0 11.191 9.072 20.262 20.262 20.262z" fill="#ffb09e"/><path d="m272.58 183.573h-10.544v-40.524h10.544c11.19 0 20.262 9.072 20.262 20.262 0 11.191-9.071 20.262-20.262 20.262z" fill="#ffcebf"/></g><g><g><path d="m271.368 125.694-96.195-15.5-96.195 15.5v-74.91c0-28.047 22.737-50.784 50.784-50.784h90.822c28.047 0 50.784 22.737 50.784 50.784z" fill="#f58a97"/><g><path d="m220.584 0h-30.446c28.047 0 50.784 22.737 50.784 50.784v70.004l30.446 4.906v-74.91c0-28.047-22.737-50.784-50.784-50.784z" fill="#f07281"/></g></g><g><path d="m286.165 136.327c-.051.102-.102.203-.152.294-4.07 7.693-13.386 10.818-21.343 7.297-6.769-3.004-13.66-5.643-20.632-7.926-51.697-16.969-108.165-14.32-158.37 7.926-7.946 3.521-17.263.396-21.333-7.297-.051-.092-.101-.193-.162-.294-4.455-8.424-.842-18.887 7.875-22.753 56.508-25.077 119.927-28.569 178.353-10.474 9.448 2.933 18.765 6.424 27.899 10.474 8.718 3.866 12.331 14.329 7.865 22.753z" fill="#82aee3"/><g><path d="m286.165 136.327c-4.132 7.794-13.452 11.16-21.495 7.591-6.769-3.004-13.66-5.643-20.632-7.926 3.39-1.796 7.946-5.115 10.199-10.727 2.771-6.901 1.279-15.325-3.836-22.165 9.448 2.933 18.765 6.424 27.899 10.474 8.718 3.866 12.331 14.329 7.865 22.753z" fill="#528fd8"/></g></g></g></g><path d="m504.388 125.316c0 2.354-1.015 4.709-3.024 6.353l-32.374 26.305v-65.317l32.374 26.305c2.01 1.645 3.024 3.999 3.024 6.354z" fill="#f07281"/></g></svg>