<svg id="Layer_1" enable-background="new 0 0 512 512" height="512" viewBox="0 0 512 512" width="512" xmlns="http://www.w3.org/2000/svg"><g><path d="m421.646 501.851v-139.212c0-38.124-26.526-71.113-63.761-79.297l-58.827-12.929c-9.309-2.046-15.94-10.293-15.94-19.824v-61.824h-69.234v61.824c0 9.531-6.632 17.778-15.94 19.824l-58.827 12.929c-37.235 8.184-63.761 41.173-63.761 79.297v139.212c0 5.605 4.544 10.149 10.149 10.149h325.995c5.602 0 10.146-4.544 10.146-10.149z" fill="#ffcebf"/><g><path d="m372.885 283.342-58.827-12.929c-9.309-2.046-15.94-10.293-15.94-19.824v-61.824l-30.446 15.223v61.824c0 9.531 6.632 17.778 15.94 19.824l58.827 12.929c37.235 8.183 63.761 41.172 63.761 79.297v134.138h20.297c5.605 0 10.149-4.544 10.149-10.149v-139.212c0-38.124-26.526-71.113-63.761-79.297z" fill="#ffb09e"/></g><g><path d="m405.825 457.329c0 16.441-2.649 32.263-7.551 47.059l-3.105 7.612h-82.336l6.323-7.611c9.804-13.143 15.629-29.431 15.629-47.059 0-43.436-35.338-78.784-78.784-78.784-5.216 0-10.311.507-15.243 1.492-36.18 7.114-63.541 39.072-63.541 77.292 0 17.628 5.825 33.917 15.629 47.059l5.114 7.611h-80.499l-3.735-7.611c-4.902-14.797-7.551-30.618-7.551-47.059 0-74.369 49.16-131.313 115.563-146.069 10.991-2.446 22.469-3.735 34.262-3.755 11.803-.02 23.281 1.339 34.302 3.907 66.21 15.455 115.523 74.977 115.523 145.916z" fill="#82aee3"/><g fill="#528fd8"><path d="m177.216 457.329c0 17.628 5.825 33.917 15.629 47.059l5.115 7.612h-29.248c-5.379-5.724-14.807-17.324-19.353-34.627-.467-1.745-2.588-10.676-2.588-20.044 0-43.436 35.338-78.784 78.784-78.784 5.196 0 10.281.517 15.203 1.492-36.181 7.114-63.542 39.072-63.542 77.292z"/><path d="m290.335 311.456c66.2 15.521 115.49 74.947 115.49 145.873 0 16.441-2.649 32.263-7.551 47.059l-3.105 7.612h-29.421c4.465-12.067 9.854-31.085 9.631-54.671-.142-14.949-2.811-61.024-38.951-100.766-13.523-14.872-29.992-27.011-48.487-35.494.558-1.327 1.122-2.917 1.576-4.747.447-1.802.69-3.448.818-4.866z"/></g><path d="m290.333 311.462c-1.735 17.436-16.441 31.055-34.333 31.055s-32.598-13.619-34.333-31.055c.02-.061.041-.132.071-.203 10.991-2.446 22.469-3.735 34.262-3.755 11.803-.02 23.281 1.339 34.302 3.907.021.021.021.041.031.051z" fill="#eaf6ff"/><path d="m250.515 307.615c.377-.029-3.514.049-9.661.664 16.653 1.689 32.498 6.108 47.085 12.797 1.235-3.015 2.06-6.241 2.394-9.613-.003 0-.007-.001-.01-.002-2.733-.641-5.496-1.206-8.284-1.695-3.775-.48-12.772-2.659-31.524-2.151z" fill="#d8ecfe"/><g fill="#eaf6ff"><path d="m186.798 403.127c-19.057 0-34.505 15.449-34.505 34.505 0 16.173 11.128 29.741 26.144 33.48-.794-4.478-1.221-9.081-1.221-13.783 0-20.173 7.63-38.595 20.147-52.548-3.33-1.069-6.879-1.654-10.565-1.654z"/><path d="m328.563 403.127c-4.645 0-9.072.924-13.117 2.588 12.03 13.838 19.338 31.884 19.338 51.614 0 4.941-.473 9.77-1.347 14.46 16.748-2.369 29.632-16.755 29.632-34.157-.001-19.056-15.449-34.505-34.506-34.505z"/></g></g><g><path d="m332.055 116.708c-50.724 0-101.448 0-152.173 0-3.699-7.339-19.511-40.635-5.301-73.415 2.96-6.827 7.761-17.615 18.811-24.722 19.812-12.741 41.561-.815 69.051 1.446 18.625 1.532 45.319-.855 79.228-19.258 2.895-1.571 6.517-.631 8.289 2.152 11.327 17.795 14.738 40.96 11.179 61.566-1.754 10.157-5.573 19.668-10.725 28.566-2.204 3.81-13.271 23.665-18.359 23.665z" fill="#ffe180"/><g><path d="m349.961 2.911c-1.772-2.783-5.394-3.723-8.289-2.152-6.4 3.473-12.542 6.375-18.422 8.788 8.305 16.692 10.575 36.799 7.444 54.93-1.754 10.157-5.573 19.668-10.725 28.566-2.206 3.81-13.272 23.665-18.36 23.666h30.446c5.088 0 16.154-19.856 18.36-23.666 5.152-8.898 8.971-18.409 10.725-28.566 3.559-20.606.149-43.771-11.179-61.566z" fill="#fbd270"/></g><path d="m332.055 116.709c-4.033-7.587-10.865-17.289-21.822-20.546-13.146-3.907-20.029 5.091-37.889 5.031-20.309-.068-25.115-11.75-41.494-13.034-11.776-.923-28.782 3.588-50.968 28.549v53.65c0 42.036 34.065 76.113 76.086 76.113 3.897 0 7.726-.293 11.465-.858 4.207-.636 8.301-16.617 12.252-17.912 6.586-2.159 12.775 9.807 18.431 6.035 20.459-13.643 33.938-36.936 33.938-63.377v-53.651z" fill="#ffcebf"/><g><path d="m310.233 96.163c-8.995-2.673-15.059.694-23.711 3.068 4.223 2.628 7.64 6.211 10.375 9.919 3.094 4.196 4.713 9.297 4.713 14.51v46.698c.238 4.714 1.014 29.405-17.409 48.455-17.36 17.951-44.898 23.789-70.317 14.958 8.059 5.152 19.721 10.799 34.364 12.311 2.685.277 5.264.394 7.722.389 42.021 0 76.086-34.077 76.086-76.113v-53.65c-4.033-7.586-10.866-17.289-21.823-20.545z" fill="#ffb09e"/></g><g><path d="m219.259 166.255c-4.204 0-7.611-3.408-7.611-7.611v-14.689c0-4.204 3.408-7.611 7.611-7.611 4.204 0 7.611 3.408 7.611 7.611v14.689c.001 4.203-3.407 7.611-7.611 7.611z" fill="#554e56"/></g><g><path d="m292.679 166.255c-4.204 0-7.611-3.408-7.611-7.611v-14.689c0-4.204 3.408-7.611 7.611-7.611 4.204 0 7.612 3.408 7.612 7.611v14.689c0 4.203-3.408 7.611-7.612 7.611z" fill="#554e56"/></g><g><path d="m255.969 213.054c-.132 0-.265-.001-.398-.002-6.251-.066-12.456-1.693-17.946-4.705-3.686-2.022-5.034-6.649-3.012-10.334 2.022-3.686 6.649-5.036 10.334-3.012 2.302 1.263 6.042 2.779 10.784 2.829 4.935.047 8.857-1.51 11.262-2.83 3.686-2.021 8.312-.673 10.335 3.013 2.022 3.685.673 8.312-3.012 10.334-3.936 2.158-10.29 4.707-18.347 4.707z" fill="#ffb09e"/></g></g><g><path d="m342.6 158.915h-10.544v-40.525h10.544c11.19 0 20.262 9.072 20.262 20.262 0 11.191-9.072 20.263-20.262 20.263z" fill="#ffcebf"/><path d="m169.338 158.915h10.544v-40.525h-10.544c-11.19 0-20.262 9.072-20.262 20.262 0 11.191 9.072 20.263 20.262 20.263z" fill="#ffb09e"/></g><g><path d="m442.021 489.166h-29.641c-9.793 0-17.732-7.939-17.732-17.732v-36.572c0-9.793 7.939-17.733 17.733-17.733h29.639c3.347 0 6.231 2.332 6.946 5.602 1.96 8.961 3.525 20.252 3.264 33.272-.212 10.557-1.576 19.854-3.263 27.562-.716 3.268-3.6 5.601-6.946 5.601z" fill="#ffcebf"/><g fill="#ffb09e"><path d="m448.966 422.73c-.715-3.27-3.599-5.602-6.946-5.602h-29.64c-.172 0-.339.021-.51.025 3.217.136 5.955 2.405 6.649 5.576 1.96 8.961 3.525 20.252 3.264 33.272-.212 10.557-1.576 19.853-3.263 27.562-.694 3.17-3.432 5.441-6.649 5.576.171.005.337.026.509.026h29.641c3.347 0 6.23-2.333 6.946-5.602 1.687-7.709 3.051-17.005 3.263-27.562.261-13.019-1.304-24.31-3.264-33.271z"/><path d="m69.979 489.166h29.641c9.793 0 17.732-7.939 17.732-17.732v-36.572c0-9.793-7.939-17.733-17.733-17.733h-29.639c-3.347 0-6.231 2.332-6.946 5.602-1.96 8.961-3.525 20.252-3.264 33.272.212 10.557 1.576 19.854 3.263 27.562.716 3.268 3.6 5.601 6.946 5.601z"/></g></g></g></svg>