<svg id="Layer_1" enable-background="new 0 0 512 512" height="512" viewBox="0 0 512 512" width="512" xmlns="http://www.w3.org/2000/svg"><g><path d="m362.862 298.661h-214.425v-191.448c0-59.212 48-107.213 107.212-107.213 59.212 0 107.213 48.001 107.213 107.213z" fill="#355f7f"/><path d="m255.649 0c-5.169 0-10.25.374-15.223 1.081 52.001 7.393 91.99 52.089 91.99 106.132v191.448h30.446v-191.448c0-59.213-48.001-107.213-107.213-107.213z" fill="#305972"/><g><path d="m342.6 164.552h-25.767v-40.524h25.767c11.191 0 20.262 9.072 20.262 20.262 0 11.19-9.072 20.262-20.262 20.262z" fill="#ffcebf"/></g><path d="m168.699 164.552h25.767v-40.524h-25.767c-11.191 0-20.262 9.072-20.262 20.262 0 11.19 9.071 20.262 20.262 20.262z" fill="#ffb09e"/><path d="m421.646 512v-149.361c0-38.124-26.526-71.113-63.761-79.297l-58.827-12.929c-9.309-2.046-15.94-10.293-15.94-19.824v-61.824h-69.234v61.824c0 9.531-6.632 17.778-15.94 19.824l-58.827 12.929c-37.235 8.184-63.761 41.173-63.761 79.297v139.212c0 5.605 4.544 10.149 10.149 10.149z" fill="#ffcebf"/><g><path d="m372.885 283.342-58.827-12.929c-9.309-2.046-15.94-10.293-15.94-19.824v-61.824l-30.446 15.223v61.824c0 9.531 6.632 17.778 15.94 19.824l58.828 12.929c37.235 8.183 63.761 41.172 63.761 79.297v134.138h20.297c5.605 0 10.149-4.544 10.149-10.149v-139.212c-.001-38.124-26.527-71.113-63.762-79.297z" fill="#ffb09e"/></g><g><path d="m383.237 504.388c9.743-30.098-14.586-98.248-44.27-101.967-23.815-2.984-55.469 14.092-71.944 24.333-6.753 4.198-15.294 4.198-22.047 0-16.475-10.241-48.129-27.317-71.944-24.333-29.684 3.72-54.013 71.87-44.27 101.967v7.612h254.475z" fill="#f58a97"/></g><path d="m161.617 278.397-22.502 4.945c-3.917.861-7.708 2.012-11.37 3.399v107.542h33.871v-115.886z" fill="#f58a97"/><path d="m387.049 287.855c-4.512-1.903-9.241-3.431-14.164-4.512l-19.707-4.332v115.273h33.871z" fill="#f58a97"/><path d="m353.177 301.721c13.391 4.945 24.973 13.246 33.871 23.793v-37.659c-.002-.001-.004-.002-.006-.003-4.554-1.922-9.315-3.441-14.158-4.51l-19.707-4.332z" fill="#f07281"/><path d="m183.779 116.597c-2.178.09-3.896 1.877-3.896 4.056v49.705c0 42.036 34.065 76.113 76.086 76.113 3.924 0 7.778-.297 11.542-.87 5.227-.796 10.279-17.123 15.099-18.926 5.593-2.092 10.874 10.177 15.754 6.895 20.321-13.665 33.691-36.877 33.691-63.212v-50.915c0-1.621-.96-3.08-2.448-3.724-5.163-2.237-13.399-6.768-20.479-15.495-6.311-7.778-9.242-15.854-10.634-21.853-.701-3.019-4.401-4.131-6.687-2.037-8.591 7.866-20.244 16.776-35.273 24.271-26.095 13.015-61.166 15.515-72.755 15.992z" fill="#ffcebf"/><path d="m329.608 115.719c-1.038-.614-15.218-9.011-20.479-15.495-6.311-7.778-9.242-15.854-10.634-21.853-.701-3.019-4.401-4.13-6.688-2.037-5.197 4.759-11.522 9.897-19.03 14.876 1.536 2.958 3.465 6.008 5.905 9.015 7.08 8.726 15.316 13.258 20.479 15.495 1.487.644 2.448 2.103 2.448 3.724v50.915c.238 4.714 1.014 29.405-17.409 48.455-17.36 17.951-44.898 23.789-70.317 14.958 8.059 5.152 19.721 10.799 34.364 12.311 2.685.277 5.264.394 7.722.389 42.021 0 76.086-34.077 76.086-76.113v-50.915c.003-.286-.022-.714-.179-1.193-.493-1.513-1.883-2.304-2.268-2.532z" fill="#ffb09e"/><g><path d="m219.259 166.255c-4.204 0-7.611-3.408-7.611-7.612v-14.689c0-4.204 3.408-7.611 7.611-7.611 4.204 0 7.611 3.408 7.611 7.611v14.689c.001 4.204-3.407 7.612-7.611 7.612z" fill="#554e56"/></g><g><path d="m292.679 166.255c-4.204 0-7.611-3.408-7.611-7.612v-14.689c0-4.204 3.408-7.611 7.611-7.611s7.612 3.408 7.612 7.611v14.689c0 4.204-3.408 7.612-7.612 7.612z" fill="#554e56"/></g><g><path d="m255.969 213.054c-.132 0-.265 0-.398-.002-6.251-.066-12.456-1.693-17.946-4.705-3.686-2.022-5.034-6.649-3.012-10.334 2.021-3.686 6.65-5.036 10.334-3.012 2.302 1.263 6.042 2.779 10.784 2.829 4.936.047 8.857-1.51 11.262-2.83 3.685-2.021 8.312-.673 10.335 3.013 2.022 3.685.673 8.312-3.012 10.334-3.936 2.158-10.29 4.707-18.347 4.707z" fill="#ffb09e"/></g><g><path d="m405.825 457.329c0 16.441-2.649 32.263-7.551 47.059l-3.105 7.612h-82.336l6.323-7.612c9.804-13.143 15.629-29.431 15.629-47.059 0-43.436-35.338-78.784-78.784-78.784-5.216 0-10.311.507-15.243 1.492-36.18 7.114-63.541 39.072-63.541 77.292 0 17.628 5.825 33.917 15.629 47.059l5.114 7.612h-80.499l-3.735-7.612c-4.902-14.797-7.551-30.618-7.551-47.059 0-74.369 49.16-131.313 115.563-146.069 10.991-2.446 22.469-3.735 34.262-3.755 11.803-.02 23.281 1.339 34.302 3.907 66.21 15.456 115.523 74.978 115.523 145.917z" fill="#aca6d6"/><g fill="#978ecb"><path d="m177.216 457.329c0 17.628 5.825 33.917 15.629 47.059l5.115 7.612h-31.227c-5.206-6.434-13.264-18.115-17.374-34.627-.436-1.715-2.588-11.001-2.588-20.044 0-43.436 35.338-78.784 78.784-78.784 5.196 0 10.281.517 15.203 1.492-36.181 7.114-63.542 39.072-63.542 77.292z"/><path d="m290.335 311.456c66.2 15.521 115.49 74.947 115.49 145.873 0 16.441-2.649 32.263-7.551 47.059l-3.105 7.612h-29.421c4.465-12.067 9.854-31.085 9.631-54.671-.142-14.949-2.811-61.024-38.951-100.766-13.523-14.872-29.992-27.011-48.487-35.494.558-1.327 1.122-2.917 1.576-4.747.447-1.802.69-3.448.818-4.866z"/></g><path d="m290.333 311.462c-1.735 17.436-16.441 31.055-34.333 31.055s-32.598-13.619-34.333-31.055c.02-.061.041-.132.071-.203 10.991-2.446 22.469-3.735 34.262-3.755 11.803-.02 23.281 1.339 34.302 3.907.021.021.021.041.031.051z" fill="#eaf6ff"/><path d="m250.515 307.615c.377-.029-3.514.049-9.661.664 16.653 1.689 32.498 6.108 47.085 12.797 1.235-3.015 2.06-6.241 2.394-9.613-.003-.001-.007-.001-.01-.002-2.733-.641-5.496-1.206-8.284-1.695-3.775-.481-12.772-2.659-31.524-2.151z" fill="#d8ecfe"/><g fill="#eaf6ff"><path d="m186.798 403.127c-19.057 0-34.505 15.449-34.505 34.505 0 16.173 11.128 29.741 26.144 33.48-.794-4.478-1.221-9.081-1.221-13.783 0-20.173 7.63-38.595 20.147-52.548-3.33-1.069-6.879-1.654-10.565-1.654z"/><path d="m328.563 403.127c-4.645 0-9.072.924-13.117 2.588 12.03 13.838 19.338 31.884 19.338 51.614 0 4.941-.473 9.77-1.347 14.46 16.748-2.369 29.632-16.755 29.632-34.157-.001-19.056-15.449-34.505-34.506-34.505z"/></g></g><g><path d="m442.021 473.943h-29.641c-9.793 0-17.732-7.939-17.732-17.732v-36.572c0-9.793 7.939-17.733 17.733-17.733h29.639c3.347 0 6.231 2.332 6.946 5.602 1.96 8.961 3.525 20.252 3.264 33.272-.212 10.557-1.576 19.854-3.263 27.562-.716 3.268-3.6 5.601-6.946 5.601z" fill="#ffcebf"/><g fill="#ffb09e"><path d="m448.966 407.507c-.715-3.27-3.599-5.602-6.946-5.602h-29.64c-.172 0-.339.021-.51.025 3.217.136 5.955 2.405 6.649 5.576 1.96 8.961 3.525 20.252 3.264 33.272-.212 10.557-1.576 19.853-3.263 27.562-.694 3.17-3.432 5.441-6.649 5.576.171.005.337.026.509.026h29.641c3.347 0 6.23-2.332 6.946-5.602 1.687-7.709 3.051-17.005 3.263-27.562.261-13.019-1.304-24.31-3.264-33.271z"/><path d="m69.979 473.943h29.641c9.793 0 17.732-7.939 17.732-17.732v-36.572c0-9.793-7.939-17.733-17.733-17.733h-29.639c-3.347 0-6.231 2.332-6.946 5.602-1.96 8.961-3.525 20.252-3.264 33.272.212 10.557 1.576 19.854 3.263 27.562.716 3.268 3.6 5.601 6.946 5.601z"/></g></g></g></svg>