<svg id="Layer_1" enable-background="new 0 0 512 512" height="512" viewBox="0 0 512 512" width="512" xmlns="http://www.w3.org/2000/svg"><g><g><path d="m425.004 226.185c-.906 0-1.828-.166-2.723-.515-3.859-1.505-5.768-5.853-4.263-9.712 8.166-20.941 9.838-40.351 4.968-57.692-3.549-12.639-9.771-20.412-16.358-28.642-6.308-7.88-12.83-16.029-16.949-28.289-9.023-26.856-4.465-58.422 13.551-93.82 1.88-3.691 6.397-5.161 10.087-3.282 3.691 1.879 5.16 6.395 3.282 10.086-16.121 31.674-20.394 59.343-12.701 82.239 3.272 9.739 8.697 16.517 14.441 23.692 6.897 8.618 14.716 18.385 19.089 33.96 5.77 20.545 3.941 43.154-5.435 67.197-1.155 2.964-3.989 4.778-6.989 4.778z" fill="#eaf6ff"/></g><g><path d="m7.5 393.085c41.415 0 41.415 18 82.831 18s41.416-18 82.832-18c41.415 0 41.415 18 82.831 18 41.417 0 41.417-18 82.833-18 41.418 0 41.418 18 82.837 18s41.418-18 82.837-18h7.5v105.5c0 5.523-4.477 10-10 10h-492.001c-5.523 0-10-4.477-10-10v-105.5z" fill="#c4e2ff"/><path d="m421.663 418.585c-22.269 0-33.523-4.891-44.407-9.622-9.915-4.309-19.279-8.378-38.43-8.378-19.148 0-28.513 4.07-38.427 8.378-10.884 4.73-22.139 9.622-44.406 9.622s-33.521-4.891-44.404-9.622c-9.914-4.309-19.277-8.378-38.426-8.378s-28.513 4.07-38.427 8.378c-10.884 4.73-22.138 9.622-44.405 9.622s-33.521-4.891-44.405-9.622c-9.914-4.309-19.277-8.378-38.426-8.378-4.143 0-7.5-3.358-7.5-7.5s3.357-7.5 7.5-7.5c22.267 0 33.521 4.891 44.404 9.622 9.914 4.309 19.278 8.378 38.427 8.378s28.513-4.07 38.427-8.378c10.884-4.73 22.138-9.622 44.405-9.622s33.521 4.891 44.404 9.622c9.914 4.309 19.277 8.378 38.426 8.378s28.514-4.07 38.428-8.378c10.884-4.73 22.138-9.622 44.405-9.622 22.269 0 33.523 4.891 44.408 9.622 9.914 4.309 19.279 8.378 38.429 8.378s28.515-4.07 38.43-8.378c10.884-4.73 22.139-9.622 44.407-9.622 4.143 0 7.5 3.358 7.5 7.5s-3.357 7.5-7.5 7.5c-19.149 0-28.515 4.07-38.429 8.378-10.884 4.731-22.139 9.622-44.408 9.622z" fill="#8ac9fe"/></g><g><path d="m421.663 478.585c-22.269 0-33.523-4.891-44.407-9.622-9.915-4.309-19.279-8.378-38.43-8.378-19.148 0-28.513 4.07-38.427 8.378-10.884 4.73-22.139 9.622-44.406 9.622s-33.521-4.891-44.404-9.622c-9.914-4.309-19.277-8.378-38.426-8.378s-28.513 4.07-38.427 8.378c-10.884 4.73-22.138 9.622-44.405 9.622s-33.521-4.891-44.405-9.622c-9.914-4.309-19.277-8.378-38.426-8.378-4.143 0-7.5-3.358-7.5-7.5s3.357-7.5 7.5-7.5c22.267 0 33.521 4.891 44.404 9.622 9.914 4.309 19.278 8.378 38.427 8.378s28.513-4.07 38.427-8.378c10.884-4.73 22.138-9.622 44.405-9.622s33.521 4.891 44.404 9.622c9.914 4.309 19.277 8.378 38.426 8.378s28.514-4.07 38.428-8.378c10.884-4.73 22.138-9.622 44.405-9.622 22.269 0 33.523 4.891 44.408 9.622 9.914 4.309 19.279 8.378 38.429 8.378s28.515-4.07 38.43-8.378c10.884-4.73 22.139-9.622 44.407-9.622 4.143 0 7.5 3.358 7.5 7.5s-3.357 7.5-7.5 7.5c-19.149 0-28.515 4.07-38.429 8.378-10.884 4.731-22.139 9.622-44.408 9.622z" fill="#8ac9fe"/></g><path d="m148.387 217.861c6.686-22.008 40.51-124.952 146.596-181.199 39.537-20.963 77.915-29.503 108.914-32.537 8.258-.808 10.842 10.856 3.002 13.575-43.978 15.255-101.633 43.375-154.014 95.857-44.216 44.301-69.363 90.621-83.496 123.043-7.001-6.246-14.002-12.493-21.002-18.739z" fill="#355f7f"/><g><path d="m110.639 256.539 68.872 22.656v47.889h-89.974c-23.347 0-42.862-17.76-45.056-41.003z" fill="#f58a97"/><path d="m110.639 256.54-25.676 11.465 94.548 31.479v-20.288z" fill="#f07281"/><path d="m106.68 213.815c-.718-7.751-2.441-15.357-5.084-22.653v-12.901c0-9.543-2.383-18.937-6.934-27.326l-3.793-6.993-1.858-.523v-16.394h-25.661l-18.85 25.86c-2.01 2.76-3.72 5.7-5.1 8.77-3.6 7.89-5.1 16.63-4.27 25.37l9.35 99.06 66.16-29.55z" fill="#ffcebf"/></g><path d="m62.712 204.012 36.51 49.275c9.32 9.382 23.572 11.803 35.467 6.024l35.653-17.323c6.385-3.102 9.937-10.064 8.702-17.054-1.818-10.291-12.907-16.053-22.374-11.627l-26.83 12.546c-1.835.858-4.006.524-5.498-.845l-41.665-53.728-1.608-2.1c-6.435-8.407-18.715-9.434-26.456-2.212-6.774 6.319-7.616 16.759-1.943 24.082z" fill="#ffb09e"/><g><path d="m153.411 48.133h-44.849v30h44.849c8.284 0 15-6.716 15-15 0-8.284-6.716-15-15-15z" fill="#f58a97"/><path d="m108.56 65.095v54.74c0 13.95-11.31 25.26-25.25 25.26h-14.25c-18.56 0-34.14-12.82-38.37-30.08-.74-3.02-1.13-6.17-1.13-9.42v-40.5z" fill="#ffcebf"/><path d="m78.56 65.095v54.74c-.357 2.504-1.528 8.187-6.109 13.276-7.625 8.471-18.417 8.325-20.103 8.275 3.474 1.594 7.974 3.1 13.321 3.563 1.177.102 2.309.146 3.391.146h14.25c13.94 0 25.25-11.31 25.25-25.26v-54.74z" fill="#ffb09e"/><path d="m69.062 21.383c-27.511 0-49.814 22.302-49.814 49.814 0 3.831 3.105 6.936 6.936 6.936h92.691v-6.936c0-27.511-22.302-49.814-49.813-49.814z" fill="#f58a97"/><path d="m69.062 21.383c-5.228 0-10.266.81-15 2.303 20.18 6.366 34.814 25.228 34.814 47.511v6.936h30v-6.936c-.001-27.511-22.303-49.814-49.814-49.814z" fill="#f07281"/></g><path d="m179.511 279.196 45.285 15.966c9.733 3.432 16.243 12.63 16.243 22.95v73.852c0 1.65.87 3.179 2.289 4.021l7.398 4.393c7.791 4.626 10.686 14.483 6.634 22.587-4.18 8.36-14.249 11.881-22.727 7.949l-22.173-10.284c-4.244-1.968-6.959-6.221-6.959-10.899v-75.647c0-3.866-3.134-7-7-7h-18.989v-47.888z" fill="#ffcebf"/><path d="m250.726 400.378-7.398-4.393c-1.419-.842-2.289-2.371-2.289-4.021v-73.853c0-10.32-6.51-19.519-16.243-22.95l-45.285-15.966v20.289l30.285 10.678c9.733 3.432 16.243 12.63 16.243 22.95v73.853c0 1.65.87 3.179 2.289 4.021l7.398 4.393c6.058 3.597 9.137 10.356 8.311 16.995 5.546-.695 10.645-4.051 13.323-9.408 4.052-8.104 1.157-17.962-6.634-22.588z" fill="#ffb09e"/><path d="m59.17 78.135v15.06c0 4.08-2.25 7.83-5.85 9.75l-22.63 12.07c-.74-3.02-1.13-6.17-1.13-9.42v-27.46z" fill="#355f7f"/><path d="m449.333 290.033c-1.343-1.358-1.575-3.325-.513-4.861 6.781-9.812 11.177-25.543 11.177-43.281 0-29.745-12.356-53.857-27.599-53.857-15.242 0-27.599 24.113-27.599 53.857 0 15.921 3.542 30.223 9.17 40.082.953 1.669.506 3.679-1.063 4.942-5.185 4.176-10.422 10.337-12.254 18.921-2.133 9.991 1.409 18.295 4.436 23.211 1.511 2.454 5.252 3.007 7.573 1.096 4.474-3.683 8.947-7.366 13.421-11.049 1.858-1.53 4.757-1.53 6.615 0 4.474 3.683 8.947 7.366 13.421 11.049 2.321 1.911 6.061 1.358 7.573-1.096 3.027-4.916 6.568-13.219 4.436-23.211-1.422-6.656-4.89-11.856-8.794-15.803z" fill="#355f7f"/><g><path d="m449.333 290.033c-1.343-1.358-1.575-3.325-.513-4.861 6.781-9.812 11.177-25.542 11.177-43.281 0-29.745-12.356-53.857-27.599-53.857-3.627 0-7.087 1.379-10.259 3.861 10.16 7.947 17.339 27.33 17.339 49.997 0 17.739-4.396 33.469-11.177 43.281-1.062 1.537-.831 3.503.513 4.861 3.904 3.947 7.373 9.147 8.793 15.803 1.335 6.252.447 11.843-1.146 16.357 3.219 2.65 6.438 5.3 9.656 7.95 2.321 1.911 6.062 1.358 7.573-1.096 3.027-4.916 6.568-13.219 4.436-23.211-1.421-6.657-4.889-11.857-8.793-15.804z" fill="#305972"/></g><circle cx="431.978" cy="218.683" fill="#eaf6ff" r="7.5"/><path d="m10 327.085h188.5c3.866 0 7 3.134 7 7v164.5c0 5.523-4.477 10-10 10h-185.5c-5.523 0-10-4.477-10-10v-161.5c0-5.523 4.477-10 10-10z" fill="#355f7f"/><path d="m198.5 327.085h-30c3.866 0 7 3.134 7 7v164.5c0 5.523-4.477 10-10 10h30c5.523 0 10-4.477 10-10v-164.5c0-3.866-3.134-7-7-7z" fill="#305972"/></g></svg>