<svg id="Layer_1" enable-background="new 0 0 512 512" height="512" viewBox="0 0 512 512" width="512" xmlns="http://www.w3.org/2000/svg"><g><path d="m111.497 151.88v130.081h-92.408c-10.539 0-19.089-8.551-19.089-19.09v-91.892c0-10.549 8.55-19.099 19.089-19.099z" fill="#c59191"/><path d="m111.497 151.88v30.905h-111.497v-11.806c0-10.549 8.55-19.099 19.089-19.099z" fill="#685e68"/><path d="m111.497 151.88h-49.142c-2.605 3.377-4.598 7.282-5.778 11.579-6.624 24.122-9.98 49.017-9.98 74.024.054 14.826.108 29.652.162 44.478h64.738z" fill="#b98080"/><path d="m62.355 151.88c-2.605 3.377-4.598 7.282-5.778 11.579-1.755 6.391-3.274 12.839-4.568 19.326h59.488v-30.905z" fill="#554e56"/><circle cx="28.441" cy="123.444" fill="#b0e6a0" r="28.441"/><circle cx="28.441" cy="123.444" fill="#fff" r="7.726"/><path d="m169.308 307.001h-82.591l-.909-3.552c-5.516-21.551-8.306-43.709-8.306-65.954 0-25.014 3.357-49.915 9.98-74.036 4.006-14.59 17.324-24.709 32.519-24.709h19.678c19.808 0 35.866 15.984 35.866 35.701z" fill="#b0e6a0"/><path d="m139.679 138.749h-19.678c-1.876 0-3.724.155-5.529.453 17.099 2.718 30.167 17.461 30.167 35.247l-6.238 132.55h30.905l6.238-132.55c.002-19.716-16.056-35.7-35.865-35.7z" fill="#8ddaa7"/><path d="m197.205 512h307.295c4.142 0 7.5-3.358 7.5-7.5v-218.103c0-6.748-9.21-8.713-11.965-2.554l-33.523 74.952c-2.999 6.705-9.17 11.451-16.421 12.627l-56.046 9.093c-6.189 1.004-11.647 4.623-14.981 9.933l-49.653 79.073c-4.509 7.18-12.391 11.538-20.869 11.538l-85.309-.385c-6.276-.018-12.024 3.511-14.846 9.117z" fill="#c59191"/><g><path d="m500.035 283.843-18.941 42.349v175.507c0 5.69-4.612 10.302-10.302 10.302h33.708c4.142 0 7.5-3.358 7.5-7.5v-218.104c0-6.748-9.21-8.713-11.965-2.554z" fill="#b98080"/></g><path d="m428.522 157.675h-2.398c-2.444 0-4.504-1.812-4.824-4.235-1.91-14.464-14.281-25.669-29.316-25.669-15.024 0-27.412 11.2-29.318 25.667-.319 2.423-2.38 4.236-4.824 4.236h-2.396c-11.884 0-21.517 9.633-21.517 21.517 0 11.884 9.633 21.517 21.517 21.517h73.077c11.883 0 21.517-9.633 21.517-21.517-.001-11.883-9.634-21.516-21.518-21.516z" fill="#c4e2ff"/><path d="m428.522 157.675h-2.398c-2.444 0-4.504-1.812-4.824-4.235-1.91-14.464-14.281-25.669-29.316-25.669-5.666 0-10.956 1.595-15.452 4.355 7.424 4.56 12.673 12.304 13.863 21.313.32 2.423 2.38 4.235 4.824 4.235h2.398c11.883 0 21.517 9.633 21.517 21.517s-9.633 21.517-21.517 21.517h30.905c11.883 0 21.517-9.633 21.517-21.517s-9.633-21.516-21.517-21.516z" fill="#b3dafe"/><path d="m329.133 400.326c-.55-4.232-4.43-7.219-8.658-6.666l-12.873 1.674-20.12-216.306c-.395-4.248-4.152-7.366-8.409-6.977-4.248.395-7.373 4.16-6.977 8.409l20.173 216.868-14.14 1.839c-4.232.55-7.216 4.427-6.666 8.658.507 3.894 3.828 6.731 7.652 6.731.331 0 .668-.022 1.006-.065l13.581-1.766 1.741 18.719c.373 4.006 3.74 7.011 7.684 7.011.239 0 .481-.011.725-.034 4.249-.395 7.373-4.16 6.977-8.409l-1.793-19.281 13.432-1.746c4.231-.551 7.215-4.428 6.665-8.659z" fill="#554e56"/><g><g><path d="m232.197 32.133-54.193.023-.016 36.086 54.193-.023c10.01-.004 18.129-8.086 18.133-18.051.005-9.965-8.106-18.04-18.117-18.035z" fill="#f58a97"/><path d="m177.995 52.549-.031 65.808c0 16.812-13.629 30.432-30.432 30.442h-17.379c-22.355.021-41.125-15.391-46.255-36.17-.907-3.678-1.38-7.51-1.38-11.466l.01-32.925.01-15.649z" fill="#ffcebf"/><path d="m147.089 52.562-.031 65.795c0 14.76-10.506 27.055-24.44 29.846 2.455.388 4.97.599 7.534.596h17.379c16.802-.01 30.432-13.629 30.432-30.442l.031-65.808z" fill="#ffb09e"/><path d="m130.289 0c-33.243.014-60.203 26.853-60.217 59.945-.002 4.608 3.749 8.342 8.378 8.34l112.002-.048.004-8.343c.013-33.093-26.924-59.908-60.167-59.894z" fill="#f58a97"/><path d="m130.289 0c-5.335.002-10.504.703-15.43 2.002 25.739 6.789 44.703 30.126 44.691 57.891l-.004 8.343h30.905l.004-8.343c.014-33.092-26.923-59.907-60.166-59.893z" fill="#f07281"/></g><path d="m118.306 68.27-.01 18.121c0 4.904-2.72 9.406-7.067 11.724l-27.331 14.515c-.907-3.678-1.38-7.51-1.38-11.466l.01-32.925z" fill="#355f7f"/></g><path d="m174.211 192.7 27.698 15.702c.785.445 1.761.376 2.474-.174l56.693-43.678c6.47-4.985 15.591-4.679 21.715.727 7.679 6.779 7.635 18.727-.093 25.443l-58.124 50.508c-9.328 8.106-22.827 9.349-33.497 3.084l-33.016-19.381z" fill="#ffcebf"/><path d="m149.181 178.511c-11.507-6.523-25.885 1.265-26.626 14.423-.373 6.632 3.004 12.919 8.753 16.293l26.753 15.705 16.151-32.231z" fill="#528fd8"/><g fill="#d7b2b2"><circle cx="476.658" cy="405.27" r="7.726"/><circle cx="383.942" cy="434.736" r="7.726"/><circle cx="461.206" cy="481.095" r="7.726"/></g><path d="m484.7 37.94h-3.043c-3.1 0-5.714-2.299-6.12-5.373-2.422-18.351-18.118-32.567-37.195-32.567-19.061 0-34.779 14.211-37.197 32.565-.405 3.075-3.019 5.375-6.12 5.375h-3.04c-15.077 0-27.3 12.222-27.3 27.3 0 15.077 12.223 27.3 27.3 27.3h92.715c15.077 0 27.3-12.222 27.3-27.3 0-15.078-12.223-27.3-27.3-27.3z" fill="#c4e2ff"/><path d="m484.7 37.94h-3.043c-3.1 0-5.714-2.299-6.12-5.373-2.422-18.351-18.118-32.567-37.195-32.567-5.511 0-10.74 1.194-15.451 3.327 11.585 5.244 20.019 16.194 21.741 29.24.406 3.073 3.02 5.373 6.12 5.373h3.043c15.077 0 27.3 12.222 27.3 27.3s-12.223 27.3-27.3 27.3h30.905c15.077 0 27.3-12.222 27.3-27.3s-12.223-27.3-27.3-27.3z" fill="#b3dafe"/><path d="m103.921 512h63.637c3.445 0 6.237-2.735 6.237-6.11v-8.192c0-16.176-13.387-29.289-29.901-29.289h-46.21v37.481c-.001 3.375 2.792 6.11 6.237 6.11z" fill="#554e56"/><path d="m143.894 468.41h-30.905c16.514 0 29.901 13.113 29.901 29.288v8.192c0 3.374-2.793 6.11-6.237 6.11h30.905c3.445 0 6.237-2.735 6.237-6.11v-8.192c0-16.175-13.387-29.288-29.901-29.288z" fill="#433f43"/><path d="m86.717 307.001 10.966 161.409h40.72l30.905-161.409z" fill="#82aee3"/><path d="m138.403 307.001-30.906 161.409h30.906l30.905-161.409z" fill="#528fd8"/><g><path d="m504.5 512h-497c-4.143 0-7.5-3.357-7.5-7.5s3.357-7.5 7.5-7.5h497c4.143 0 7.5 3.357 7.5 7.5s-3.357 7.5-7.5 7.5z" fill="#c59191"/></g><path d="m504.5 497h-23.405v4.698c0 5.689-4.612 10.302-10.302 10.302h33.707c4.142 0 7.5-3.358 7.5-7.5 0-4.143-3.357-7.5-7.5-7.5z" fill="#b98080"/></g></svg>