<svg id="Layer_1" enable-background="new 0 0 512 512" height="512" viewBox="0 0 512 512" width="512" xmlns="http://www.w3.org/2000/svg"><g><g><g><path d="m173.208 161.521 13.083-39.249 56.975 21.125c4.694 1.74 9.804 2.022 14.66.808l38.749-9.687c9.172-2.293 15.607-10.534 15.607-19.988v-14.82h39.416v16.956c0 8.425 5.129 16.001 12.952 19.13l38.409 15.363c15.645 6.258 25.903 21.41 25.903 38.26v154.367c0 9.283 7.474 16.809-1.809 16.809-8.735 0-16.014-6.69-16.749-15.394l-5.073-60.058h-131.679v-80.911c0-3.638-2.274-6.888-5.691-8.135z" fill="#ffcebf"/><path d="m366.699 116.667v-16.957h-22.689v32.409c0 8.425 5.129 16.001 12.952 19.13l38.409 15.364c15.645 6.257 25.903 21.41 25.903 38.26v154.652c1.835.686 3.813 1.071 5.878 1.071h.003c9.283-.001 16.808-7.526 16.808-16.809v-154.367c0-14.217-7.303-27.226-18.983-34.703-.433-.277-.871-.546-1.316-.808-1.778-1.046-3.649-1.967-5.605-2.749l-19.204-7.682-19.204-7.682c-1.956-.782-3.743-1.842-5.324-3.125-.79-.641-1.529-1.337-2.212-2.082-.433-.472-.834-.97-1.22-1.479-2.66-3.507-4.196-7.845-4.196-12.443z" fill="#ffb09e"/><path d="m405.33 331.501v165.046h-34.934l-26.175-157.049-9.325-.816-26.311 157.865h-34.934v-165.046z" fill="#ffcebf"/><g><path d="m397.604 292.869c-4.267 0-7.726-3.459-7.726-7.726v-61.811c0-4.267 3.459-7.726 7.726-7.726s7.726 3.459 7.726 7.726v61.811c.001 4.267-3.459 7.726-7.726 7.726z" fill="#ffb09e"/></g><g><path d="m281.377 292.869c-4.267 0-7.726-3.459-7.726-7.726v-77.264c0-4.267 3.459-7.726 7.726-7.726s7.726 3.459 7.726 7.726v77.264c.001 4.267-3.459 7.726-7.726 7.726z" fill="#ffb09e"/></g><path d="m412.511 512h-49.297c-4.568 0-8.272-3.703-8.272-8.272 0-12.5 10.134-22.634 22.634-22.634h20.572c12.5 0 22.634 10.134 22.634 22.634.001 4.569-3.702 8.272-8.271 8.272z" fill="#554e56"/><path d="m398.149 481.095h-20.572c-1.778 0-3.507.212-5.167.6 10.009 2.338 17.467 11.312 17.467 22.034 0 4.568-3.703 8.272-8.272 8.272h30.905c4.568 0 8.272-3.703 8.272-8.272.001-12.501-10.133-22.634-22.633-22.634z" fill="#433f43"/><path d="m315.766 512h-49.296c-4.568 0-8.272-3.703-8.272-8.272 0-12.5 10.134-22.634 22.634-22.634h20.572c12.5 0 22.634 10.134 22.634 22.634 0 4.569-3.703 8.272-8.272 8.272z" fill="#554e56"/><path d="m383.372 25.755v44.71c0 24.23-19.646 43.876-43.886 43.876-24.23 0-43.875-19.646-43.875-43.876v-44.71c0-14.227 11.527-25.755 25.754-25.755h36.252c14.217 0 25.755 11.528 25.755 25.755z" fill="#ffcebf"/><path d="m357.617 0h-30.905c14.216 0 25.755 11.528 25.755 25.755v44.71c.224 2.076 1.399 14.968-7.986 25.237-7.913 8.659-20.318 12.153-32.197 9.179 3.3 2.576 9.42 6.647 18.046 8.497 0 0 4.641.962 9.157.962 24.24 0 43.886-19.646 43.886-43.876v-44.71c-.001-14.226-11.539-25.754-25.756-25.754z" fill="#ffb09e"/><path d="m383.372 25.755v19.048l-.01.01-27.619-12.146c-4.852-2.132-10.302-2.493-15.381-.999l-44.751 13.145v-19.058c0-14.227 11.527-25.755 25.754-25.755h36.252c14.217 0 25.755 11.528 25.755 25.755z" fill="#c59191"/><path d="m357.617 0h-30.905c14.216 0 25.755 11.528 25.755 25.755v5.781c1.113.296 2.211.663 3.276 1.132l27.619 12.146.01-.01v-19.049c0-14.227-11.538-25.755-25.755-25.755z" fill="#b98080"/><path d="m301.404 481.095h-20.572c-1.778 0-3.506.212-5.167.6 10.009 2.338 17.467 11.312 17.467 22.034 0 4.568-3.703 8.272-8.272 8.272h30.905c4.568 0 8.272-3.703 8.272-8.272.001-12.501-10.133-22.634-22.633-22.634z" fill="#433f43"/></g><path d="m178.886 510.418c2.928 2.628 7.521 1.884 9.493-1.52 26.514-45.761 43.571-117.164 43.571-197.391 0-107.343-30.533-198.894-73.401-234.346-4.97-4.11-12.15-4.11-17.12 0-42.867 35.452-73.391 127.002-73.391 234.346 0 80.228 17.048 151.631 43.561 197.392 1.972 3.404 6.564 4.148 9.492 1.521l24.774-22.222c2.349-2.107 5.907-2.106 8.255.001z" fill="#ffe180"/><g><path d="m158.549 77.161c-4.97-4.111-12.15-4.111-17.12 0-2.336 1.932-4.633 4.04-6.893 6.299 39.21 39.188 66.508 126.553 66.508 228.047 0 73.56-14.347 139.686-37.168 185.445l15.009 13.467c2.928 2.628 7.521 1.884 9.493-1.52 26.514-45.761 43.571-117.164 43.571-197.391.001-107.345-30.532-198.895-73.4-234.347z" fill="#fbd270"/></g><path d="m122.884 106.886-16.623-4.76c-5.492-1.573-11.073 1.092-12.465 5.953l-5.198 18.151c-1.392 4.86 1.932 10.076 7.424 11.649l16.622 4.76c1.877.538 3.826-.157 4.692-1.665 2.373-4.133 4.855-9.485 6.559-15.988 1.382-5.274 1.938-10.106 2.087-14.203.065-1.739-1.221-3.36-3.098-3.897z" fill="#ffb09e"/><path d="m71.292 251.685 152.625 152.624c3.818-21.146 6.361-43.721 7.439-67.256l-148.701-148.701c-5.019 19.613-8.875 40.876-11.363 63.333z" fill="#f58a97"/><path d="m201.024 306.721c.013 1.592.02 3.187.02 4.785 0 22.832-1.385 44.945-3.973 65.958l26.845 26.845c1.959-10.888 3.536-21.827 4.758-32.839 1.242-11.196 2.144-22.687 2.682-34.418z" fill="#f07281"/></g><path d="m273.651 285.143h131.679l7.178 84.972c.451 5.337-3.759 9.918-9.115 9.918h-127.804c-5.356 0-9.566-4.581-9.115-9.918z" fill="#f58a97"/><path d="m412.508 370.115-7.177-84.972h-30.905l7.178 84.972c.451 5.337-3.759 9.917-9.115 9.917h30.905c5.354.001 9.565-4.58 9.114-9.917z" fill="#f07281"/><g><path d="m331.764 380.033v-52.857c0-4.267 3.459-7.726 7.726-7.726s7.726 3.459 7.726 7.726v52.857z" fill="#f07281"/></g></g></svg>