<svg id="Layer_1" enable-background="new 0 0 512 512" height="512" viewBox="0 0 512 512" width="512" xmlns="http://www.w3.org/2000/svg"><g><g><g><path d="m436.18 201.784c-3.234 0-6.249-2.047-7.328-5.285-1.349-4.048.839-8.424 4.887-9.773.038-.013.163-.054.199-.065 4.068-1.293 8.412.954 9.705 5.02 1.295 4.066-.954 8.411-5.019 9.705-.81.27-1.634.398-2.444.398zm-30.05-2.056c-1.161 0-2.34-.263-3.45-.817-3.816-1.908-5.409-6.572-3.501-10.389 1.909-3.816 6.506-5.385 10.321-3.478l.092.046c3.816 1.908 5.363 6.549 3.455 10.366-1.354 2.707-4.083 4.272-6.917 4.272zm52.816-17.85c-1.136 0-2.287-.252-3.372-.786-3.829-1.883-5.43-6.468-3.546-10.297l.045-.092c1.883-3.829 6.514-5.408 10.343-3.523 3.829 1.883 5.407 6.514 3.524 10.343-1.351 2.744-4.122 4.355-6.994 4.355zm-72.68-4.909c-3.221 0-6.227-2.031-7.318-5.252l-.033-.098c-1.367-4.042.8-8.428 4.842-9.795 4.044-1.368 8.428.799 9.796 4.842l.033.098c1.367 4.042-.8 8.428-4.842 9.795-.822.279-1.658.41-2.478.41zm76.8-25.404c-4.268 0-7.726-3.459-7.726-7.726v-.103c0-4.267 3.459-7.726 7.726-7.726s7.726 3.459 7.726 7.726v.103c.001 4.267-3.458 7.726-7.726 7.726zm-78.847-5.383c-4.268 0-7.726-3.459-7.726-7.726v-.103c0-4.267 3.459-7.726 7.726-7.726s7.726 3.459 7.726 7.726v.103c.001 4.266-3.458 7.726-7.726 7.726zm78.847-25.677c-4.268 0-7.726-3.408-7.726-7.675v-.103c0-4.267 3.459-7.726 7.726-7.726s7.726 3.459 7.726 7.726c.001 4.268-3.458 7.778-7.726 7.778zm-78.847-5.332c-4.268 0-7.726-3.459-7.726-7.726v-.103c0-4.267 3.459-7.726 7.726-7.726s7.726 3.459 7.726 7.726v.103c.001 4.267-3.458 7.726-7.726 7.726zm-78.847-18.946c-4.268 0-7.726-3.459-7.726-7.726v-.103c0-4.267 3.459-7.726 7.726-7.726s7.726 3.459 7.726 7.726v.103c.001 4.267-3.458 7.726-7.726 7.726zm78.401-12.038c-3.77 0-7.069-2.763-7.634-6.603-.621-4.219 2.286-8.193 6.504-8.818 4.214-.625 8.137 2.233 8.767 6.452.001.005.016.112.017.118.621 4.222-2.298 8.147-6.52 8.769-.381.055-.76.082-1.134.082zm-70.834-17.348c-1.576 0-3.166-.48-4.538-1.478-3.451-2.51-4.214-7.342-1.704-10.793l.023-.032c2.489-3.461 7.315-4.261 10.781-1.778 3.464 2.483 4.27 7.293 1.792 10.762l-.099.137c-1.513 2.078-3.868 3.182-6.255 3.182zm55.226-8.514c-1.601 0-3.214-.495-4.596-1.52-3.435-2.492-4.228-7.3-1.756-10.757 2.481-3.468 7.295-4.277 10.765-1.798l.265.195c3.398 2.58 4.062 7.427 1.482 10.825-1.52 2.002-3.826 3.055-6.16 3.055zm-37.07-13.814c-.621-4.222 2.298-8.147 6.52-8.769l.018-.003c4.217-.698 8.159 2.147 8.86 6.356s-2.174 8.195-6.382 8.896c-4.226.706-8.372-2.094-9.016-6.48z" fill="#8ac9fe"/></g><path d="m80.59 251.055h-61.496c-10.545 0-19.094-8.548-19.094-19.094v-60.983c0-10.545 8.549-19.094 19.094-19.094h61.496z" fill="#c59191"/><path d="m129.187 307.001h-82.59v-69.518c0-25.007 3.356-49.902 9.98-74.024 4.006-14.59 17.324-24.709 32.519-24.709h19.678c19.808 0 35.866 15.984 35.866 35.701z" fill="#b0e6a0"/><path d="m108.774 138.749h-19.678c-1.716 0-3.406.136-5.064.386 17.315 2.533 30.608 17.377 30.608 35.315l-15.453 132.55h30l15.453-132.55c0-19.717-16.058-35.701-35.866-35.701z" fill="#8ddaa7"/><g><path d="m470.401 121.665c-4.033 4.098-10.636 4.098-14.669 0-13.654-13.877-41.599-45.593-41.599-72.731 0-26.982 21.951-48.934 48.933-48.934s48.934 21.952 48.934 48.934c0 27.138-27.945 58.854-41.599 72.731z" fill="#f58a97"/><path d="m463.066 0c-5.4 0-10.592.892-15.453 2.515 19.43 6.486 33.481 24.837 33.481 46.419 0 22.463-19.141 48.052-33.481 64.075 2.985 3.335 5.766 6.265 8.118 8.656 4.032 4.099 10.636 4.099 14.669 0 13.654-13.877 41.6-45.593 41.6-72.731 0-26.982-21.952-48.934-48.934-48.934z" fill="#f07281"/><circle cx="463.066" cy="48.934" fill="#fff" r="18.028"/></g><path d="m63.8 512h63.637c3.445 0 6.237-2.735 6.237-6.11v-8.192c0-16.176-13.387-29.289-29.901-29.289h-46.21v37.481c0 3.375 2.792 6.11 6.237 6.11z" fill="#554e56"/><path d="m46.597 307.001 10.966 161.409h40.719l30.905-161.409z" fill="#82aee3"/><path d="m99.187 307.001-30.905 161.409h30l30.906-161.409z" fill="#528fd8"/><g><path d="m249.789 182.516-17.057-11.123c-6.749-4.401-8.639-13.414-4.221-20.13l32.249-49.023c4.418-6.716 13.471-8.593 20.22-4.191l17.057 11.123c6.749 4.401 8.639 13.414 4.221 20.13l-32.249 49.023c-4.418 6.716-13.471 8.593-20.22 4.191z" fill="#355f7f"/><path d="m298.037 109.172-17.057-11.123c-6.749-4.401-15.802-2.525-20.22 4.191l-1.278 1.943 7.651 4.989c6.749 4.401 8.639 13.414 4.221 20.13l-30.971 47.079 9.407 6.134c6.749 4.401 15.802 2.525 20.221-4.191l32.249-49.023c4.417-6.715 2.527-15.727-4.223-20.129z" fill="#305972"/><path d="m257.617 177.964c0 4.687-1.937 9.385-5.821 12.754l-58.133 50.51c-9.323 8.107-22.818 9.354-33.491 3.091l-33.017-19.388h-.01l-26.743-15.7c-5.748-3.379-9.127-9.663-8.757-16.298.556-9.91 8.849-16.771 17.832-16.771 2.936 0 5.954.741 8.798 2.349l25.033 14.196 27.691 15.7c.793.443 1.762.371 2.483-.175l56.691-43.68c6.47-4.986 15.587-4.677 21.716.731 3.823 3.378 5.728 8.024 5.728 12.681z" fill="#ffcebf"/><path d="m143.309 192.706-16.153 32.224h-.01l-26.743-15.7c-5.748-3.379-9.127-9.663-8.757-16.298.556-9.91 8.849-16.771 17.832-16.771 2.936 0 5.954.741 8.798 2.349z" fill="#528fd8"/></g><g><g><path d="m207.857 32.133-54.193.023-.016 36.086 54.193-.023c10.01-.004 18.128-8.086 18.133-18.051.005-9.965-8.106-18.039-18.117-18.035z" fill="#f58a97"/><path d="m123.193 148.797-17.375.007c-26.316.011-47.653-21.325-47.641-47.642l.021-48.567 95.459-.041-.028 65.807c-.009 16.807-13.631 30.429-30.436 30.436z" fill="#ffcebf"/><path d="m122.886 55.446-.028 65.807c-.005 12.174-7.158 22.673-17.487 27.54.15.002.297.012.447.012l17.375-.008c16.806-.007 30.428-13.629 30.435-30.435l.028-65.807z" fill="#ffb09e"/><path d="m105.949 0c-33.243.014-60.203 26.853-60.217 59.945-.002 4.608 3.749 8.342 8.378 8.34l112.002-.048.004-8.343c.014-33.093-26.924-59.908-60.167-59.894z" fill="#f58a97"/><path d="m105.949 0c-7.334.003-14.361 1.316-20.861 3.709 28.524 4.693 50.27 29.344 50.257 59.075l-.002 5.466 30.769-.013.003-8.344c.015-33.092-26.923-59.907-60.166-59.893z" fill="#f07281"/></g><path d="m58.191 68.283-.014 32.88c-.002 3.954.487 7.791 1.394 11.465l27.32-14.516c4.35-2.311 7.069-6.819 7.071-11.726l.008-18.118z" fill="#355f7f"/></g></g></g></svg>