<svg id="Layer_1" enable-background="new 0 0 512 512" height="512" viewBox="0 0 512 512" width="512" xmlns="http://www.w3.org/2000/svg"><g><g><path d="m290.716 259.526 33.683 13.708c4.521 1.84 7.476 6.234 7.476 11.115v33.376l-26.435-3.256z" fill="#ffb09e"/><path d="m218.092 180.3.27-3.362c1.412-17.555-2.772-35.107-11.952-50.138l-.004.011v-17.421h-25.66l-18.852 25.864c-7.183 9.855-10.516 21.998-9.37 34.139l9.351 99.056 66.158-29.542z" fill="#ffcebf"/><path d="m228.034 238.906 62.681 20.62 8.654 32.298-92.437 17.628c-23.347 0-42.862-17.76-45.056-41.003z" fill="#f58a97"/><path d="m204.528 249.403 52.15 18.405c11.915 4.205 20.992 14.014 24.262 26.219l.334 1.248 18.094-3.451-8.654-32.298-62.681-20.62z" fill="#f07281"/><path d="m200.702 127.458h-14.244c-21.815 0-39.5-17.685-39.5-39.5v-40.5h79v54.744c-.001 13.949-11.308 25.256-25.256 25.256z" fill="#ffcebf"/><path d="m195.958 47.458v54.745c0 11.521-7.719 21.234-18.265 24.268 2.82.639 5.751.988 8.765.988h14.245c13.948 0 25.256-11.307 25.256-25.255v-54.746z" fill="#ffb09e"/><path d="m102.747 30.5h44.849v30h-44.849c-8.284 0-15-6.716-15-15 0-8.284 6.716-15 15-15z" fill="#f07281"/><path d="m186.457 3.75c27.511 0 49.814 22.302 49.814 49.814 0 3.831-3.105 6.936-6.936 6.936h-92.691v-6.936c0-27.512 22.302-49.814 49.813-49.814z" fill="#f58a97"/><path d="m186.458 3.75c-5.228 0-10.266.81-15 2.303 20.18 6.365 34.814 25.228 34.814 47.511 0 3.831-3.105 6.937-6.936 6.937h30c3.831 0 6.936-3.105 6.936-6.937-.001-27.512-22.303-49.814-49.814-49.814z" fill="#f07281"/><path d="m146.958 60.5v27.458c0 3.247.4 6.399 1.139 9.418l22.623-12.067c3.599-1.92 5.848-5.667 5.848-9.747v-15.062z" fill="#355f7f"/><path d="m349.222 395.302h-186.444c-38.757 0-72.949-25.365-84.19-62.456l-23.725-78.282c-1.168-3.853 1.716-7.74 5.742-7.74h19.733c6.661 0 12.882 3.329 16.577 8.872 15.047 22.571 40.379 36.128 67.506 36.128h168.159c27.127 0 52.459-13.557 67.506-36.128 3.695-5.543 9.916-8.872 16.577-8.872h34.733c4.026 0 6.91 3.887 5.742 7.74l-23.725 78.282c-11.242 37.091-45.433 62.456-84.191 62.456z" fill="#c59191"/><g><path d="m451.396 246.824h-30c4.026 0 6.91 3.887 5.742 7.74l-23.725 78.282c-11.241 37.091-45.433 62.456-84.19 62.456h30c38.757 0 72.949-25.365 84.19-62.456l23.725-78.282c1.168-3.853-1.716-7.74-5.742-7.74z" fill="#b98080"/></g><g><path d="m7.5 377.75c41.415 0 41.415 18 82.831 18s41.416-18 82.832-18c41.415 0 41.415 18 82.831 18 41.417 0 41.417-18 82.833-18 41.418 0 41.418 18 82.837 18s41.418-18 82.837-18c4.142 0 7.5 3.358 7.5 7.5v115.5c0 4.142-3.358 7.5-7.5 7.5h-497.001c-4.142 0-7.5-3.358-7.5-7.5v-115.5c0-4.142 3.358-7.5 7.5-7.5z" fill="#c4e2ff"/><path d="m421.663 403.25c-22.269 0-33.523-4.891-44.407-9.622-9.915-4.309-19.279-8.378-38.43-8.378-19.148 0-28.513 4.07-38.427 8.378-10.884 4.73-22.139 9.622-44.406 9.622s-33.521-4.891-44.404-9.622c-9.914-4.309-19.277-8.378-38.426-8.378s-28.513 4.07-38.427 8.378c-10.884 4.73-22.138 9.622-44.405 9.622s-33.521-4.891-44.405-9.622c-9.914-4.309-19.277-8.378-38.426-8.378-4.143 0-7.5-3.358-7.5-7.5s3.357-7.5 7.5-7.5c22.267 0 33.521 4.891 44.404 9.622 9.914 4.309 19.278 8.378 38.427 8.378s28.513-4.07 38.427-8.378c10.884-4.73 22.138-9.622 44.405-9.622s33.521 4.891 44.404 9.622c9.914 4.309 19.277 8.378 38.426 8.378s28.514-4.07 38.428-8.378c10.884-4.73 22.138-9.622 44.405-9.622 22.269 0 33.523 4.891 44.408 9.622 9.914 4.309 19.279 8.378 38.429 8.378s28.515-4.07 38.43-8.378c10.884-4.73 22.139-9.622 44.407-9.622 4.143 0 7.5 3.358 7.5 7.5s-3.357 7.5-7.5 7.5c-19.149 0-28.515 4.07-38.429 8.378-10.884 4.731-22.139 9.622-44.408 9.622z" fill="#8ac9fe"/></g><g><path d="m421.663 478.25c-22.269 0-33.523-4.891-44.407-9.622-9.915-4.309-19.279-8.378-38.43-8.378-19.148 0-28.513 4.07-38.427 8.378-10.884 4.73-22.139 9.622-44.406 9.622s-33.521-4.891-44.404-9.622c-9.914-4.309-19.277-8.378-38.426-8.378s-28.513 4.07-38.427 8.378c-10.884 4.73-22.138 9.622-44.405 9.622s-33.521-4.891-44.405-9.622c-9.914-4.309-19.277-8.378-38.426-8.378-4.143 0-7.5-3.358-7.5-7.5s3.357-7.5 7.5-7.5c22.267 0 33.521 4.891 44.404 9.622 9.914 4.309 19.278 8.378 38.427 8.378s28.513-4.07 38.427-8.378c10.884-4.73 22.138-9.622 44.405-9.622s33.521 4.891 44.404 9.622c9.914 4.309 19.277 8.378 38.426 8.378s28.514-4.07 38.428-8.378c10.884-4.73 22.138-9.622 44.405-9.622 22.269 0 33.523 4.891 44.408 9.622 9.914 4.309 19.279 8.378 38.429 8.378s28.515-4.07 38.43-8.378c10.884-4.73 22.139-9.622 44.407-9.622 4.143 0 7.5 3.358 7.5 7.5s-3.357 7.5-7.5 7.5c-19.149 0-28.515 4.07-38.429 8.378-10.884 4.731-22.139 9.622-44.408 9.622z" fill="#8ac9fe"/></g><g><g><path d="m317.911 368.542c-3.312 0-6.342-2.21-7.239-5.561l-53.59-200c-1.072-4.001 1.302-8.113 5.303-9.186 4.001-1.069 8.113 1.302 9.186 5.304l53.59 200c1.072 4.001-1.302 8.113-5.303 9.186-.651.173-1.304.257-1.947.257z" fill="#eaf6ff"/></g><path d="m312.922 342.403c11.47-3.073 23.259 3.733 26.332 15.203l9.447 35.256c.858 3.201-1.042 6.491-4.243 7.348l-29.944 8.023c-3.201.858-6.491-1.042-7.348-4.243l-9.447-35.256c-3.073-11.469 3.734-23.258 15.203-26.331z" fill="#305972"/></g><path d="m194.544 149.935 43.652 56.29c1.492 1.369 3.664 1.703 5.498.845l26.83-12.546c9.467-4.427 20.555 1.336 22.374 11.627 1.235 6.99-2.317 13.952-8.702 17.054l-35.653 17.323c-11.895 5.779-26.147 3.359-35.467-6.024l-43.451-58.643c-7.682-7.733-6.773-20.468 1.929-27.032 6.927-5.225 16.597-4.76 22.99 1.106z" fill="#ffb09e"/></g></g></svg>