<svg id="Layer_1" enable-background="new 0 0 512 512" height="512" viewBox="0 0 512 512" width="512" xmlns="http://www.w3.org/2000/svg"><g><path d="m7.5 329.535c41.415 0 41.415 18 82.831 18s41.416-18 82.832-18c41.415 0 41.415 18 82.831 18 41.417 0 41.417-18 82.833-18 41.418 0 41.418 18 82.837 18s41.418-18 82.837-18c4.142 0 7.5 3.358 7.5 7.5v163.715c0 4.142-3.358 7.5-7.5 7.5h-497.001c-4.142 0-7.5-3.358-7.5-7.5v-163.715c0-4.142 3.358-7.5 7.5-7.5z" fill="#c4e2ff"/><path d="m421.663 355.036c-22.269 0-33.523-4.891-44.408-9.622-9.915-4.309-19.279-8.378-38.429-8.378-19.149 0-28.513 4.07-38.427 8.378-10.884 4.73-22.138 9.622-44.406 9.622-22.267 0-33.521-4.891-44.404-9.622-9.914-4.309-19.278-8.378-38.426-8.378s-28.513 4.07-38.427 8.378c-10.883 4.73-22.138 9.622-44.405 9.622s-33.521-4.891-44.405-9.622c-9.914-4.309-19.277-8.378-38.426-8.378-4.142 0-7.5-3.358-7.5-7.5s3.358-7.5 7.5-7.5c22.267 0 33.521 4.891 44.405 9.622 9.914 4.309 19.278 8.378 38.426 8.378s28.512-4.07 38.426-8.378c10.883-4.73 22.138-9.622 44.405-9.622s33.521 4.891 44.405 9.622c9.914 4.309 19.277 8.378 38.425 8.378 19.149 0 28.513-4.07 38.427-8.378 10.884-4.73 22.138-9.622 44.406-9.622 22.269 0 33.523 4.891 44.408 9.622 9.915 4.309 19.279 8.378 38.429 8.378s28.515-4.07 38.429-8.378c10.884-4.73 22.139-9.622 44.408-9.622 4.142 0 7.5 3.358 7.5 7.5s-3.358 7.5-7.5 7.5c-19.15 0-28.515 4.07-38.429 8.378-10.883 4.731-22.138 9.622-44.407 9.622z" fill="#8ac9fe"/><g><path d="m324.533 270.024h-137.066c-21.095 0-38.196-17.101-38.196-38.196v-78.429l15-22.043-15-20.877c0-58.945 47.784-106.729 106.729-106.729 58.945 0 106.729 47.784 106.729 106.729v121.349c0 21.095-17.101 38.196-38.196 38.196z" fill="#355f7f"/><path d="m256 3.75c-5.092 0-10.098.365-15 1.054 51.841 7.293 91.729 51.822 91.729 105.675v121.349c0 21.095-17.101 38.196-38.196 38.196h30c21.095 0 38.196-17.101 38.196-38.196v-121.349c0-58.945-47.784-106.729-106.729-106.729z" fill="#305972"/><g><path d="m400.892 434.475v-109.429c0-24.517-17.058-45.731-41.003-50.994l-64.108-14.09c-7.982-1.754-13.668-8.826-13.668-16.998v-53.01h-62.225v53.01c0 8.172-5.686 15.244-13.668 16.998l-64.108 14.09c-23.945 5.263-41.003 26.477-41.003 50.994v109.429z" fill="#ffcebf"/></g><g><path d="m369.888 274.052-64.108-14.09c-7.982-1.754-13.668-8.826-13.668-16.998v-53.01l-30 15v53.01c0 8.172 5.686 15.244 13.668 16.998l64.108 14.09c23.945 5.263 41.003 26.477 41.003 50.994v94.429h30v-109.43c.001-24.516-17.057-45.731-41.003-50.993z" fill="#ffb09e"/></g><path d="m161.108 366.543 23.337-14.033c16.213-9.749 36.595-9.274 52.336 1.22 11.638 7.759 26.799 7.759 38.437 0 15.741-10.494 36.123-10.969 52.336-1.22l23.337 14.033v67.932h-189.783z" fill="#f58a97"/><path d="m182.393 125.875v40.87c0 40.652 32.955 73.607 73.607 73.607 40.652 0 73.607-32.955 73.607-73.607v-40.871c0-9.146-7.415-16.561-16.561-16.561l-114.093.001c-9.146 0-16.56 7.415-16.56 16.561z" fill="#ffcebf"/><path d="m313.046 109.313h-29.994c9.144.003 16.555 7.416 16.555 16.561v40.871c.22 4.615.869 28.077-16.757 46.756-15.647 16.583-39.786 23.131-62.963 17.394 6.976 3.834 16.629 7.827 28.501 9.067 2.661.278 5.205.394 7.611.391 40.652 0 73.607-32.955 73.607-73.607v-40.871c.001-9.147-7.413-16.562-16.56-16.562z" fill="#ffb09e"/><path d="m346.168 169.96h-70.406c-2.05 0-4.015-.814-5.465-2.264l-8.832-8.832c-3.018-3.018-7.911-3.018-10.93 0l-8.832 8.832c-1.449 1.449-3.415 2.264-5.465 2.264h-70.406c-9.146 0-16.561-7.415-16.561-16.561v-44.086c0-9.146 7.415-16.561 16.561-16.561h180.336c9.146 0 16.561 7.415 16.561 16.561v44.086c0 9.146-7.415 16.561-16.561 16.561z" fill="#eaf6ff"/><g><path d="m346.168 92.752h-30c9.146 0 16.561 7.415 16.561 16.561v44.086c0 9.146-7.415 16.561-16.561 16.561h30c9.146 0 16.561-7.415 16.561-16.561v-44.086c0-9.146-7.415-16.561-16.561-16.561z" fill="#d8ecfe"/></g><path d="m362.729 116.356h30v30h-30z" fill="#355f7f"/><path d="m392.729 69.272v107.639c0 15.464-12.536 28-28 28h-99.122v33.122h100.243c33.137 0 60-26.863 60-60v-108.761c0-9.146-7.415-16.561-16.561-16.561-9.145 0-16.56 7.414-16.56 16.561z" fill="#eaf6ff"/><path d="m262.953 244.986h-13.907c-5.306 0-9.608-4.301-9.608-9.608v-27.814c0-5.306 4.301-9.608 9.608-9.608h13.907c5.306 0 9.608 4.301 9.608 9.608v27.814c0 5.307-4.302 9.608-9.608 9.608z" fill="#355f7f"/><path d="m262.953 197.957h-13.906c-.781 0-1.535.104-2.262.279 4.213 1.019 7.346 4.803 7.346 9.329v27.813c0 4.526-3.133 8.31-7.346 9.329.727.176 1.481.279 2.262.279h13.906c5.306 0 9.608-4.302 9.608-9.608v-27.813c0-5.306-4.302-9.608-9.608-9.608z" fill="#305972"/><g><path d="m161.108 441.975c-4.142 0-7.5-3.358-7.5-7.5v-94.058c0-4.142 3.358-7.5 7.5-7.5s7.5 3.358 7.5 7.5v94.058c0 4.142-3.358 7.5-7.5 7.5z" fill="#ffb09e"/></g><g><path d="m350.892 441.975c-4.142 0-7.5-3.358-7.5-7.5v-94.058c0-4.142 3.358-7.5 7.5-7.5s7.5 3.358 7.5 7.5v94.058c0 4.142-3.358 7.5-7.5 7.5z" fill="#ffb09e"/></g></g><path d="m7.5 389.535c41.415 0 41.415 18 82.831 18s41.416-18 82.832-18c41.415 0 41.415 18 82.831 18 41.417 0 41.417-18 82.833-18 41.418 0 41.418 18 82.837 18s41.418-18 82.837-18c4.142 0 7.5 3.358 7.5 7.5v103.715c0 4.142-3.358 7.5-7.5 7.5h-497.001c-4.142 0-7.5-3.358-7.5-7.5v-103.715c0-4.142 3.358-7.5 7.5-7.5z" fill="#c4e2ff"/><g><path d="m421.663 415.036c-22.269 0-33.523-4.891-44.408-9.622-9.915-4.309-19.279-8.378-38.429-8.378-19.149 0-28.513 4.07-38.427 8.378-10.884 4.73-22.138 9.622-44.406 9.622-22.267 0-33.521-4.891-44.404-9.622-9.914-4.309-19.278-8.378-38.426-8.378s-28.513 4.07-38.427 8.378c-10.883 4.73-22.138 9.622-44.405 9.622s-33.521-4.891-44.405-9.622c-9.914-4.309-19.277-8.378-38.426-8.378-4.142 0-7.5-3.358-7.5-7.5s3.358-7.5 7.5-7.5c22.267 0 33.521 4.891 44.405 9.622 9.914 4.309 19.278 8.378 38.426 8.378s28.512-4.07 38.426-8.378c10.883-4.73 22.138-9.622 44.405-9.622s33.521 4.891 44.405 9.622c9.914 4.309 19.277 8.378 38.425 8.378 19.149 0 28.513-4.07 38.427-8.378 10.884-4.73 22.138-9.622 44.406-9.622 22.269 0 33.523 4.891 44.408 9.622 9.915 4.309 19.279 8.378 38.429 8.378s28.515-4.07 38.429-8.378c10.884-4.73 22.139-9.622 44.408-9.622 4.142 0 7.5 3.358 7.5 7.5s-3.358 7.5-7.5 7.5c-19.15 0-28.515 4.07-38.429 8.378-10.883 4.731-22.138 9.622-44.407 9.622z" fill="#8ac9fe"/></g><g><path d="m421.663 475.036c-22.269 0-33.523-4.891-44.408-9.622-9.915-4.309-19.279-8.378-38.429-8.378-19.149 0-28.513 4.07-38.427 8.378-10.884 4.73-22.138 9.622-44.406 9.622-22.267 0-33.521-4.891-44.404-9.622-9.914-4.309-19.278-8.378-38.426-8.378s-28.513 4.07-38.427 8.378c-10.883 4.73-22.138 9.622-44.405 9.622s-33.521-4.891-44.405-9.622c-9.914-4.309-19.277-8.378-38.426-8.378-4.142 0-7.5-3.358-7.5-7.5s3.358-7.5 7.5-7.5c22.267 0 33.521 4.891 44.405 9.622 9.914 4.309 19.278 8.378 38.426 8.378s28.512-4.07 38.426-8.378c10.883-4.73 22.138-9.622 44.405-9.622s33.521 4.891 44.405 9.622c9.914 4.309 19.277 8.378 38.425 8.378 19.149 0 28.513-4.07 38.427-8.378 10.884-4.73 22.138-9.622 44.406-9.622 22.269 0 33.523 4.891 44.408 9.622 9.915 4.309 19.279 8.378 38.429 8.378s28.515-4.07 38.429-8.378c10.884-4.73 22.139-9.622 44.408-9.622 4.142 0 7.5 3.358 7.5 7.5s-3.358 7.5-7.5 7.5c-19.15 0-28.515 4.07-38.429 8.378-10.883 4.731-22.138 9.622-44.407 9.622z" fill="#8ac9fe"/></g></g></svg>