<svg id="Layer_1" enable-background="new 0 0 512 512" height="512" viewBox="0 0 512 512" width="512" xmlns="http://www.w3.org/2000/svg"><g><path d="m479.173 512h-446.346c-17.801 0-31.922-14.999-30.849-32.768l13.475-223.232h481.095l13.475 223.232c1.072 17.769-13.049 32.768-30.85 32.768z" fill="#eaf6ff"/><path d="m510.022 479.232-13.475-223.232h-30.905l13.475 223.232c1.072 17.769-13.049 32.768-30.85 32.768h30.905c17.802 0 31.923-14.999 30.85-32.768z" fill="#d8ecfe"/><path d="m479.173 0h-446.346c-17.801 0-31.922 14.999-30.849 32.768l13.475 223.232h481.095l13.475-223.232c1.072-17.769-13.049-32.768-30.85-32.768z" fill="#d8ecfe"/><path d="m479.173 0h-30.905c17.801 0 31.922 14.999 30.849 32.768l-13.475 223.232h30.905l13.475-223.232c1.073-17.769-13.048-32.768-30.849-32.768z" fill="#c4e2ff"/><g><g><path d="m173.434 372.57h-121.953v-49.416c0-14.555 11.799-26.353 26.353-26.353h69.246c14.555 0 26.353 11.799 26.353 26.353v49.416z" fill="#355f7f"/><path d="m147.08 296.8h-30.905c14.555 0 26.353 11.799 26.353 26.354v49.417h30.905v-49.417c.001-14.555-11.798-26.354-26.353-26.354z" fill="#305972"/><g><path d="m51.481 367.243v42.98c0 33.676 27.3 60.976 60.976 60.976 33.676 0 60.976-27.3 60.976-60.976v-42.98l-29.614-12.86c-8.378-3.638-17.703-4.486-26.6-2.418z" fill="#ffcebf"/><path d="m142.529 353.849v56.374c0 28.337-19.331 52.154-45.524 58.996 4.936 1.289 10.113 1.98 15.453 1.98 33.676 0 60.976-27.3 60.976-60.976v-42.98z" fill="#ffb09e"/><g><g><path d="m83.038 408.564c-4.268 0-7.726-3.459-7.726-7.726v-11.768c0-4.267 3.459-7.726 7.726-7.726s7.726 3.459 7.726 7.726v11.768c.001 4.267-3.458 7.726-7.726 7.726z" fill="#554e56"/></g><g><path d="m141.877 408.564c-4.268 0-7.726-3.459-7.726-7.726v-11.768c0-4.267 3.459-7.726 7.726-7.726s7.726 3.459 7.726 7.726v11.768c.001 4.267-3.458 7.726-7.726 7.726z" fill="#554e56"/></g></g><g><path d="m112.459 446.056c-.113 0-.224 0-.339-.002-5.275-.055-10.512-1.428-15.146-3.969-3.741-2.052-5.11-6.749-3.057-10.49 2.052-3.742 6.748-5.111 10.49-3.058 1.681.923 4.412 2.03 7.875 2.066 3.61.034 6.471-1.102 8.228-2.066 3.742-2.052 8.438-.682 10.49 3.059 2.051 3.742.682 8.438-3.059 10.49-3.32 1.82-8.682 3.97-15.482 3.97z" fill="#ffb09e"/></g></g></g></g><g><g><path d="m450.189 304.527h-194.368c-4.268 0-7.726-3.459-7.726-7.726s3.459-7.726 7.726-7.726h194.368c4.268 0 7.726 3.459 7.726 7.726 0 4.266-3.458 7.726-7.726 7.726z" fill="#b3dafe"/></g><g><path d="m450.189 350.885h-194.368c-4.268 0-7.726-3.459-7.726-7.726s3.459-7.726 7.726-7.726h194.368c4.268 0 7.726 3.459 7.726 7.726s-3.458 7.726-7.726 7.726z" fill="#b3dafe"/></g><g><path d="m450.189 397.243h-194.368c-4.268 0-7.726-3.459-7.726-7.726s3.459-7.726 7.726-7.726h194.368c4.268 0 7.726 3.459 7.726 7.726s-3.458 7.726-7.726 7.726z" fill="#b3dafe"/></g></g><g><path d="m360.167 478.984c-6.951 0-15.067-1.093-24.357-3.7-5.505-1.545-11.214-3.666-16.542-6.329-12.921 7.659-27.18 9.743-37.93 9.97-4.23.083-7.798-3.295-7.887-7.562-.091-4.266 3.295-7.798 7.561-7.888 6.82-.144 15.354-1.174 23.599-4.488-4.568-4.382-7.783-9.456-8.702-15.167-2.172-13.479 7.377-25.789 17.306-28.406 5.693-1.498 12.215-.342 17.901 3.18 5.999 3.714 10.182 9.429 11.477 15.679 2.121 10.237-4.459 18.449-9.715 23.77 2.359.907 4.759 1.704 7.109 2.364 17.758 4.984 32.373 3.275 36.244-1.257 1.43-1.674 2.085-4.555 2.716-7.342 1.017-4.478 2.553-11.246 9.595-12.85 9.694-2.207 17.146 8.756 23.164 19.771 2.045 3.744.668 8.439-3.076 10.484-3.745 2.047-8.439.669-10.485-3.076-1.952-3.572-3.558-6.127-4.836-7.945-.905 3.468-2.328 7.482-5.329 10.994-4.612 5.399-13.866 9.798-27.813 9.798zm-41.87-48.765c-.408 0-.793.045-1.143.138-3.41.898-6.657 6.864-5.99 11.006.496 3.076 3.266 6.232 7.267 9.136.318-.285.632-.576.944-.873l.088-.084c3.496-3.336 8.778-8.377 8-12.134-.426-2.053-2.143-4.227-4.481-5.675-1.579-.977-3.275-1.514-4.685-1.514z" fill="#b3dafe"/></g><g fill="#355f7f"><path d="m117.176 102.15c-.026-.07-.053-.139-.081-.208-1.362-3.316-4.558-5.458-8.144-5.458-.002 0-.004 0-.007 0-3.588.003-6.784 2.151-8.142 5.472-.024.058-.047.116-.069.175l-17.867 46.909c-1.519 3.988.483 8.452 4.47 9.97.905.345 1.835.508 2.749.508 3.113 0 6.047-1.896 7.221-4.978l2.555-6.707h18.039l2.523 6.685c1.506 3.993 5.965 6.01 9.957 4.501 3.992-1.507 6.007-5.965 4.5-9.957zm-11.429 30.23 3.175-8.337 3.146 8.337z"/><path d="m174.719 121.126c-5.526-2.038-10.692-4.252-12.596-5.081-.329-.339-.457-.784-.378-1.328.152-1.061 1.076-1.922 2.536-2.361 5.745-1.731 11.254 2.543 11.46 2.705 3.265 2.697 8.102 2.261 10.832-.988 2.745-3.267 2.323-8.14-.943-10.886-4.36-3.665-14.703-8.972-25.806-5.627-7.238 2.181-12.364 7.913-13.375 14.961-.956 6.656 1.932 13.06 7.535 16.713.341.222.699.418 1.071.583.277.124 6.881 3.064 14.315 5.806 2.556.943 5.426 2.686 5.103 4.495-.284 1.591-2.565 3.944-6.56 3.944-4.235 0-8.293-1.688-10.854-4.515-2.866-3.162-7.752-3.403-10.913-.537-3.162 2.865-3.402 7.751-.537 10.913 5.523 6.095 13.653 9.591 22.305 9.591 10.89 0 20.047-7.015 21.773-16.681 1.31-7.34-1.934-16.899-14.968-21.707z"/><path d="m231.526 121.126c-5.527-2.038-10.693-4.252-12.597-5.081-.329-.339-.457-.784-.378-1.328.152-1.061 1.076-1.922 2.536-2.361 5.74-1.729 11.242 2.534 11.459 2.704 3.267 2.698 8.103 2.262 10.833-.986 2.745-3.267 2.324-8.14-.943-10.886-4.36-3.664-14.703-8.974-25.806-5.627-7.238 2.181-12.364 7.913-13.375 14.961-.956 6.656 1.932 13.06 7.535 16.713.341.222.699.418 1.071.583.277.124 6.881 3.064 14.316 5.806 2.555.943 5.426 2.686 5.103 4.495-.285 1.591-2.565 3.944-6.56 3.944-4.235 0-8.293-1.688-10.856-4.515-2.864-3.162-7.752-3.4-10.913-.536-3.161 2.866-3.401 7.752-.535 10.913 5.524 6.095 13.654 9.591 22.305 9.591 10.89 0 20.046-7.015 21.773-16.68 1.31-7.343-1.934-16.902-14.968-21.71z"/><path d="m467.081 96.484h-26.277c-4.268 0-7.726 3.459-7.726 7.726s3.459 7.726 7.726 7.726h5.359v39.853c0 4.267 3.459 7.726 7.726 7.726s7.726-3.459 7.726-7.726v-39.853h5.465c4.268 0 7.726-3.459 7.726-7.726.002-4.267-3.457-7.726-7.725-7.726z"/><path d="m425.12 116.575c0-11.078-9.327-20.092-20.791-20.092h-12.644c-.003 0-.005.001-.008.001s-.005-.001-.008-.001c-4.268 0-7.726 3.459-7.726 7.726v47.579c0 4.267 3.459 7.726 7.726 7.726 4.268 0 7.726-3.459 7.726-7.726v-8.755l12.197 13.859c1.527 1.735 3.66 2.622 5.803 2.622 1.813 0 3.634-.634 5.102-1.927 3.203-2.819 3.514-7.701.695-10.904l-10.375-11.788c7.241-3.143 12.303-10.165 12.303-18.32zm-20.791-4.638c2.844 0 5.338 2.168 5.338 4.639s-2.494 4.639-5.338 4.639c-1.182 0-2.991.006-4.872.014-.008-1.804-.014-3.527-.014-4.653 0-.973-.004-2.739-.008-4.639z"/><path d="m58.167 96.484h-13.249c-3.799-.087-7.886 3.377-7.726 7.726v47.579c0 4.267 3.459 7.726 7.726 7.726s7.726-3.459 7.726-7.726v-12.981c2.116-.01 4.197-.018 5.522-.018 11.809 0 21.417-9.489 21.417-21.153s-9.607-21.153-21.416-21.153zm0 26.854c-1.316 0-3.371.008-5.471.017-.01-2.195-.018-4.357-.018-5.718 0-1.169-.005-3.393-.011-5.701h5.5c3.232 0 5.964 2.611 5.964 5.701s-2.732 5.701-5.964 5.701z"/><path d="m277.755 96.484h-13.249c-3.801-.079-7.881 3.36-7.726 7.726v47.579c0 4.267 3.459 7.726 7.726 7.726s7.726-3.459 7.726-7.726v-12.981c2.116-.01 4.197-.018 5.522-.018 11.809 0 21.415-9.489 21.415-21.153.001-11.664-9.606-21.153-21.414-21.153zm0 26.854c-1.316 0-3.371.008-5.471.017-.01-2.195-.018-4.357-.018-5.718 0-1.169-.005-3.393-.011-5.701h5.5c3.232 0 5.963 2.611 5.963 5.701-.001 3.09-2.731 5.701-5.963 5.701z"/><path d="m341.169 96.484c-17.378 0-31.516 14.138-31.516 31.516s14.138 31.516 31.516 31.516 31.516-14.138 31.516-31.516-14.138-31.516-31.516-31.516zm0 47.579c-8.857 0-16.063-7.206-16.063-16.063s7.206-16.063 16.063-16.063 16.063 7.206 16.063 16.063-7.206 16.063-16.063 16.063z"/></g></g></svg>