<svg id="Layer_1" enable-background="new 0 0 504.388 504.388" height="512" viewBox="0 0 504.388 504.388" width="512" xmlns="http://www.w3.org/2000/svg"><g><g><g><g><path d="m176.042 78.226h-85.202v-34.524c0-10.168 8.243-18.412 18.412-18.412h48.378c10.168 0 18.412 8.243 18.412 18.412z" fill="#355f7f"/><path d="m157.63 25.29h-30.446c10.168 0 18.412 8.243 18.412 18.411v34.524h30.446v-34.523c0-10.169-8.244-18.412-18.412-18.412z" fill="#305972"/><g><path d="m221.109 263.689v-59.442c0-16.286-11.331-30.378-27.238-33.874l-42.586-9.359c-5.302-1.165-9.079-5.863-9.079-11.291v-35.213h-32.754v35.213c0 5.429-3.777 10.126-9.079 11.291l-42.586 9.359c-15.906 3.496-27.238 17.588-27.238 33.874v59.442z" fill="#82aee3"/></g><g><path d="m173.079 179.386 12.027 2.643c15.906 3.496 27.237 17.588 27.237 33.874v47.785h23.989v-59.442c0-16.286-11.331-30.378-27.237-33.874l-22.137-4.865z" fill="#528fd8"/></g><g><path d="m133.441 181.937 25.878-25.88c-1.201-1.833-17.113-4.017-17.113-6.335v-35.213h-32.754v35.213c0 2.317-.688 4.502-1.89 6.335z" fill="#ffcebf"/></g><path d="m158.147 153.721c-.471-1.272-.715-2.631-.717-3.989 0-.003-.001-.006-.001-.01v-35.213h-23.989v46.87c0 5.429 3.777 10.126 9.079 11.291l.153.034 16.646-16.648c-.475-.729-.869-1.517-1.171-2.335z" fill="#ffb09e"/><path d="m90.84 74.505v25.005c0 23.528 19.073 42.601 42.601 42.601 3.876 0 7.631-15.518 11.2-16.488 4.649-1.263 8.982 11.706 12.854 9.052 11.199-7.676 18.546-20.562 18.546-35.165v-25.005l-20.69-8.984c-5.853-2.542-12.368-3.134-18.584-1.689z" fill="#ffcebf"/><path d="m145.596 63.138v36.372c.205 2.179 1.131 14.274-7.686 24.407-10.886 12.511-26.996 10.966-28.457 10.801 3.209 2.163 8.624 5.213 15.929 6.625 0 0 4.055.768 8.059.768 23.528 0 42.601-19.073 42.601-42.601v-25.006l-20.69-8.984c-1.355-.589-3.021-1.193-4.969-1.655-1.783-.422-3.406-.632-4.787-.727z" fill="#ffb09e"/></g><path d="m15.223 494.24v-210.968h473.943v210.968c0 5.605-4.544 10.149-10.149 10.149h-453.645c-5.605-.001-10.149-4.544-10.149-10.149z" fill="#eaf6ff"/><path d="m467.449 296.827h-452.226c-8.407 0-15.223-6.815-15.223-15.223v-30.829c0-8.407 6.816-15.223 15.223-15.223h452.226c8.407 0 15.223 6.816 15.223 15.223v30.829c0 8.408-6.815 15.223-15.223 15.223z" fill="#355f7f"/><g><g><g><path d="m243.149 423.824h-65.752c-4.204 0-7.611-3.408-7.611-7.612v-50.899c0-9.793 7.967-17.76 17.76-17.76h45.454c9.793 0 17.76 7.967 17.76 17.76v50.899c0 4.204-3.407 7.612-7.611 7.612zm-58.141-15.223h50.529v-43.287c0-1.399-1.138-2.537-2.537-2.537h-45.455c-1.399 0-2.537 1.138-2.537 2.537z" fill="#554e56"/></g><path d="m268.809 504.388h-117.074c-8.719 0-15.787-7.068-15.787-15.787v-71.825c0-8.719 7.068-15.787 15.787-15.787h117.074c8.719 0 15.787 7.068 15.787 15.787v71.825c0 8.72-7.068 15.787-15.787 15.787z" fill="#c59191"/><path d="m268.809 400.99h-30.446c8.719 0 15.787 7.068 15.787 15.787v71.825c0 8.719-7.068 15.787-15.787 15.787h30.446c8.719 0 15.787-7.068 15.787-15.787v-71.825c0-8.72-7.068-15.787-15.787-15.787z" fill="#b98080"/></g></g><g><path d="m298.552 307.544v-120.94c0-16.599 10.106-31.526 25.518-37.691l37.838-15.135c7.706-3.082 12.759-10.546 12.759-18.846v-16.704h53.607v16.704c0 8.3 5.053 15.763 12.759 18.846l37.838 15.135c15.412 6.165 25.518 21.092 25.518 37.691v120.94c0 10.509-8.519 19.029-19.029 19.029-10.509 0-19.029-8.519-19.029-19.029v-11.417h-129.722v11.417c0 10.509-8.519 19.029-19.029 19.029-10.509 0-19.028-8.52-19.028-19.029z" fill="#f58a97"/><g><path d="m504.388 296.127v-109.523c0-16.6-10.106-31.527-25.518-37.691l-37.838-15.135c-7.706-3.082-12.759-10.546-12.759-18.845v-16.705h-26.477v31.927c0 8.3 5.053 15.763 12.759 18.845l37.838 15.135c15.412 6.165 25.518 21.092 25.518 37.691v94.3h26.477z" fill="#f07281"/></g><path d="m374.667 98.228v16.704c0 8.299-5.053 15.763-12.759 18.845 10.613 2.595 24.846 4.971 41.686 4.757 14.898-.19 27.615-2.354 37.439-4.757-7.706-3.083-27.982-10.546-27.982-18.845l15.223-16.704z" fill="#ffcebf"/><path d="m403.619 138.534c14.887-.192 27.596-2.355 37.414-4.756-.843-.337-1.648-.736-2.424-1.173-6.339-3.573-10.339-10.392-10.335-17.672v-16.705h-26.477v31.927c-.001 2.954.65 5.796 1.822 8.379z" fill="#ffb09e"/><path d="m317.581 326.573c10.509 0 19.029-8.519 19.029-19.029v-11.417h-38.057v11.417c-.001 10.51 8.518 19.029 19.028 19.029z" fill="#ffcebf"/><path d="m485.36 311.35c10.509 0 16.288 6.249 16.288-4.26l2.741-10.963h-38.057v11.417c0 7.811 4.706 14.522 11.436 17.454 2.325 1.013 4.893-13.648 7.592-13.648z" fill="#ffcebf"/><path d="m477.911 322.767c0 .753-.055 1.493-.141 2.223.001 0 .002.001.003.002 2.368 1.03 4.985 1.581 7.585 1.581 7.225 0 13.51-4.027 16.732-9.958 1.465-2.696 2.297-5.786 2.297-9.07v-11.417h-26.477v26.639z" fill="#ffb09e"/><path d="m451.108 489.165h-99.276l-15.223-162.592v-30.446h129.722v30.446z" fill="#82aee3"/><path d="m435.885 296.127v30.446l-15.223 162.592h30.446l15.223-162.592v-30.446z" fill="#528fd8"/><path d="m336.609 220.012h129.722v91.338h-129.722z" fill="#f58a97"/><g><path d="m451.108 311.35v-91.338c0-4.204 3.407-7.611 7.611-7.611s7.612 3.408 7.612 7.611v91.338z" fill="#f07281"/></g><g><path d="m336.61 311.35v-91.338c0-4.204 3.407-7.611 7.611-7.611s7.612 3.408 7.612 7.611v91.338z" fill="#f07281"/></g><g><path d="m401.47 496.777c-4.204 0-7.611-3.408-7.611-7.612v-126.53c0-4.204 3.407-7.612 7.611-7.612s7.612 3.408 7.612 7.612v126.531c-.001 4.203-3.408 7.611-7.612 7.611z" fill="#528fd8"/></g><path d="m458.182 504.388h-48.564c-4.5 0-8.149-3.648-8.149-8.149 0-12.315 9.983-22.297 22.297-22.297h20.266c12.315 0 22.297 9.983 22.297 22.297.002 4.501-3.646 8.149-8.147 8.149z" fill="#554e56"/><path d="m444.034 473.943h-20.266c-1.752 0-3.454.209-5.09.591 9.861 2.303 17.207 11.144 17.207 21.707 0 4.5-3.648 8.149-8.149 8.149h30.446c4.5 0 8.149-3.648 8.149-8.149 0-12.316-9.983-22.298-22.297-22.298z" fill="#433f43"/><path d="m393.322 504.388h-48.564c-4.5 0-8.149-3.648-8.149-8.149 0-12.315 9.983-22.297 22.297-22.297h20.266c12.315 0 22.297 9.983 22.297 22.297.001 4.501-3.647 8.149-8.147 8.149z" fill="#554e56"/><path d="m379.173 473.943h-20.266c-1.752 0-3.454.209-5.09.591 9.861 2.303 17.207 11.144 17.207 21.707 0 4.5-3.648 8.149-8.149 8.149h30.446c4.5 0 8.149-3.648 8.149-8.149 0-12.316-9.983-22.298-22.297-22.298z" fill="#433f43"/><path d="m401.47 112.645c-23.873 0-43.226-19.353-43.226-43.226v-44.047c0-14.013 11.359-25.372 25.372-25.372h35.709c14.012 0 25.372 11.359 25.372 25.372v44.047c0 13.749-6.419 25.998-16.423 33.915-2.989 2.365-8.016-10.643-12.914-9.117-7.046 2.194-13.826 18.428-13.89 18.428z" fill="#ffcebf"/><path d="m419.325 0h-30.446c14.012 0 25.372 11.359 25.372 25.372v44.047c.22 2.046 1.378 14.745-7.866 24.864-7.794 8.532-20.013 11.977-31.717 9.051 3.567 2.768 9.605 6.633 17.89 8.387 3.308.7 6.33.927 8.913.925 23.873 0 43.226-19.353 43.226-43.226v-44.048c-.001-14.013-11.36-25.372-25.372-25.372z" fill="#ffb09e"/><path d="m419.325 0h-35.709c-14.012 0-25.372 11.359-25.372 25.372v18.775l5.854 13.946c4.196 9.996 13.979 16.5 24.82 16.5h25.104c10.841 0 20.624-6.503 24.82-16.5l5.854-13.946v-18.775c0-14.013-11.359-25.372-25.371-25.372z" fill="#355f7f"/><path d="m419.325 0h-30.446c14.012 0 25.372 11.359 25.372 25.372v44.047c.074.686.252 2.576.108 5.162 10.706-.134 20.331-6.595 24.483-16.487l5.854-13.946v-18.776c0-14.013-11.359-25.372-25.371-25.372z" fill="#305972"/></g></g><g><path d="m156.621 195.844 30.337-30.337-20.448 10.729c-3.039-.668-5.572-17.722-7.185-20.183l-25.883 25.883 13.908 13.908c2.559 2.56 6.71 2.56 9.271 0z" fill="#eaf6ff"/><path d="m161.459 158.485c-.822-.708-1.541-1.525-2.134-2.43 0 0-.001 0-.001-.001l-16.651 16.651 30.405 6.682 13.879-13.879-20.448-4.494c-.359-.079-.708-.177-1.052-.287-1.211-.388-2.466-.925-3.998-2.242z" fill="#d8ecfe"/><path d="m79.925 165.507 30.337 30.337c2.56 2.56 6.711 2.56 9.272 0l13.908-13.908-25.883-25.883c-1.613 2.461-4.146 4.292-7.185 4.96z" fill="#eaf6ff"/></g></g></g></svg>