<svg id="Layer_1" enable-background="new 0 0 512 512" height="512" viewBox="0 0 512 512" width="512" xmlns="http://www.w3.org/2000/svg"><g><path d="m274.542 212.157c0 31.895 28.508 57.751 63.675 57.751s63.675-25.856 63.675-57.751c0-14.116-5.587-27.046-14.862-37.077-3.076-3.327-3.076-8.412 0-11.739 9.275-10.031 14.862-22.961 14.862-37.077 0-29.812-24.91-54.336-56.88-57.413-2.491-.24-4.587-2.029-5.229-4.448-9.836-37.075-43.613-64.403-83.783-64.403s-73.947 27.328-83.782 64.403c-.642 2.419-2.738 4.208-5.229 4.448-31.971 3.076-56.88 27.6-56.88 57.413 0 14.116 5.587 27.046 14.862 37.077 3.076 3.327 3.076 8.412 0 11.739-9.275 10.031-14.862 22.961-14.862 37.077 0 31.895 28.508 57.751 63.675 57.751s63.675-25.856 63.675-57.751z" fill="#355f7f"/><g><path d="m387.029 163.341c9.275-10.031 14.862-22.961 14.862-37.076 0-29.812-24.91-54.337-56.88-57.413-2.491-.239-4.587-2.028-5.229-4.448-9.835-37.077-43.612-64.404-83.782-64.404-5.276 0-10.437.483-15.453 1.386 33.173 5.972 59.786 30.811 68.329 63.017.642 2.42 2.738 4.208 5.229 4.448 31.971 3.076 56.88 27.601 56.88 57.413 0 14.116-5.587 27.046-14.862 37.076-3.076 3.327-3.076 8.412 0 11.739 9.275 10.031 14.862 22.961 14.862 37.077 0 27.06-20.524 49.765-48.222 56.029 4.948 1.119 10.122 1.722 15.453 1.722 35.167 0 63.675-25.856 63.675-57.751 0-14.116-5.587-27.046-14.862-37.077-3.076-3.326-3.076-8.411 0-11.738z" fill="#305972"/></g><g><g><g><path d="m410.571 431.584v-109.203c0-24.466-17.023-45.636-40.918-50.888l-63.976-14.061c-7.965-1.751-13.639-8.807-13.639-16.963v-21.995h-72.075v21.995c0 8.155-5.674 15.212-13.639 16.963l-63.976 14.061c-23.896 5.252-40.918 26.422-40.918 50.888v109.203z" fill="#aca6d6"/><g><path d="m369.653 271.493-63.976-14.06c-7.965-1.75-13.639-8.807-13.639-16.963v-21.995h-30.905v37.448c0 8.155 5.674 15.212 13.639 16.963l63.976 14.06c23.896 5.252 40.918 26.423 40.918 50.888v93.75h30.905v-109.203c0-24.466-17.023-45.636-40.918-50.888z" fill="#978ecb"/></g><path d="m201.545 258.483c14.484 12.887 33.553 20.696 54.455 20.696s39.971-7.809 54.455-20.696l-14.778-1.05c-7.965-1.75-13.639-8.807-13.639-16.963v-21.995h-62.075v21.995c0 8.155-5.674 15.212-13.64 16.963z" fill="#d78878"/><path d="m274.772 272.885 8.096 1.779c10.274-3.561 19.627-9.098 27.588-16.182l-4.778-1.05c-7.965-1.75-13.639-8.807-13.639-16.963v-21.995h-30.905v37.448c-.002 8.156 5.673 15.213 13.638 16.963z" fill="#ca6e59"/></g></g><g><path d="m491.396 512h-470.792c-11.379 0-20.604-9.225-20.604-20.604v-160.708c0-11.379 9.225-20.604 20.604-20.604h470.793c11.379 0 20.604 9.225 20.604 20.604v160.708c-.001 11.379-9.226 20.604-20.605 20.604z" fill="#b0e6a0"/></g><path d="m491.396 310.085h-30.905c11.379 0 20.604 9.224 20.604 20.604v160.708c0 11.379-9.225 20.604-20.604 20.604h30.905c11.379 0 20.604-9.224 20.604-20.604v-160.709c0-11.379-9.225-20.603-20.604-20.603z" fill="#8ddaa7"/><path d="m101.429 310.085h309.143v201.915h-309.143z" fill="#eaf6ff"/><g><path d="m439.363 307.027v22.202c0 9.941-8.059 18-18 18h-37.124c-9.941 0-18-8.059-18-18v-22.201c0-3.397 2.367-6.325 5.686-7.051 9.096-1.99 20.557-3.578 33.774-3.313 10.717.215 20.153 1.6 27.978 3.312 3.318.726 5.686 3.653 5.686 7.051z" fill="#d78878"/><path d="m433.677 299.976c-7.825-1.712-17.261-3.097-27.978-3.312-6.59-.132-12.742.197-18.383.807 5.662.609 10.846 1.496 15.456 2.506 3.319.726 5.686 3.653 5.686 7.051v22.202c0 9.941-8.059 18-18 18h30.905c9.941 0 18-8.059 18-18v-22.202c0-3.399-2.368-6.326-5.686-7.052z" fill="#ca6e59"/><path d="m145.761 307.027v22.202c0 9.941-8.059 18-18 18h-37.124c-9.941 0-18-8.059-18-18v-22.201c0-3.397 2.367-6.325 5.686-7.051 9.096-1.99 20.557-3.578 33.774-3.313 10.717.215 20.153 1.6 27.978 3.312 3.319.726 5.686 3.653 5.686 7.051z" fill="#d78878"/><path d="m140.075 299.976c-7.825-1.712-17.261-3.097-27.978-3.312-6.59-.132-12.742.197-18.383.807 5.662.609 10.846 1.496 15.456 2.506 3.319.726 5.686 3.653 5.686 7.051v22.202c0 9.941-8.059 18-18 18h30.905c9.941 0 18-8.059 18-18v-22.202c0-3.399-2.367-6.326-5.686-7.052z" fill="#ca6e59"/></g><path d="m356.372 403.602c0 2.766-1.883 5.26-4.679 5.922-11.123 2.648-36.048 8.585-54.984 13.198-13.242 18.009-26.469 36.018-39.704 54.028-2.251 3.06-5.966 4.694-9.74 4.282l-5.604-.61c-1.909-.208-3.168-2.087-2.634-3.931 4.108-14.178 8.212-28.367 12.321-42.549-17.009 4.274-33.591 8.549-47.973 12.433-7.828 2.111-16.163-.53-21.334-6.768-9.533-11.481-20.865-25.134-25.699-30.958-1.38-1.663-.673-4.211 1.376-4.898 1.272-.427 2.6-.641 3.93-.641 2.442 0 4.899.728 7.011 2.192 4.524 3.127 10.41 7.21 15.707 10.873 4.863 3.362 10.939 4.488 16.692 3.09 13.367-3.259 26.734-6.518 40.101-9.777 4.208-1.022 6.253-5.804 4.098-9.564l-23.231-40.376c-1.185-2.06.302-4.632 2.679-4.632h6.339c3.656 0 7.232 1.052 10.307 3.038 18.039 11.638 45.943 29.633 53.895 34.768 1.398.905 3.097 1.229 4.738.92l33.576-6.386c10.395-1.979 20.474 4.716 22.681 15.067.087.426.131.86.131 1.279z" fill="#b0e6a0"/></g><path d="m330.072 113.819c0-3.006-2.51-5.403-5.512-5.246-6.692.35-17.346-.334-28.333-6.354-8.464-4.638-14.021-10.743-17.416-15.455-1.812-2.514-5.397-2.875-7.724-.829-6.712 5.903-16.481 12.925-29.511 18.005-21.925 8.549-41.883 7.235-53.548 5.271-3.197-.538-6.102 1.943-6.102 5.184v51.394c0 40.909 33.163 74.072 74.072 74.072 1.725 0 3.437-.059 5.132-.175 5.628-.385 11.083-16.399 16.296-17.972 5.217-1.574 10.191 11.292 14.852 8.669 22.557-12.696 37.792-36.866 37.792-64.594v-51.97z" fill="#d78878"/><g><path d="m299.167 165.79c.225 4.626.896 28.122-16.751 46.91-24.479 26.063-60.845 18.193-62.453 17.816 8.576 4.575 19.363 8.529 31.975 9.234 1.38.077 2.735.113 4.062.112 40.909 0 74.072-33.163 74.072-74.072v-51.971c0-3.006-2.51-5.403-5.512-5.245-6.115.32-15.538-.223-25.5-4.913z" fill="#ca6e59"/></g><g><g><path d="m220.262 162.116c-4.267 0-7.726-3.459-7.726-7.726v-14.296c0-4.268 3.459-7.726 7.726-7.726s7.726 3.459 7.726 7.726v14.296c0 4.267-3.459 7.726-7.726 7.726z" fill="#554e56"/></g><g><path d="m291.738 162.116c-4.267 0-7.726-3.459-7.726-7.726v-14.296c0-4.268 3.459-7.726 7.726-7.726s7.726 3.459 7.726 7.726v14.296c.001 4.267-3.458 7.726-7.726 7.726z" fill="#554e56"/></g></g><g><path d="m256 207.66c-.131 0-.261-.001-.392-.002-7.756-.082-13.863-2.557-17.621-4.619-3.741-2.052-5.11-6.749-3.057-10.49 2.052-3.742 6.748-5.11 10.49-3.057 2.208 1.211 5.796 2.666 10.349 2.713 4.743.025 8.501-1.449 10.81-2.714 3.741-2.053 8.439-.682 10.489 3.06 2.052 3.741.682 8.438-3.06 10.489-3.861 2.118-10.099 4.62-18.008 4.62z" fill="#ca6e59"/></g><path d="m339.171 153.961h-9.098v-34.966h9.098c9.656 0 17.483 7.827 17.483 17.483 0 9.655-7.828 17.483-17.483 17.483z" fill="#d78878"/><path d="m172.829 153.961h9.098v-34.966h-9.098c-9.656 0-17.483 7.827-17.483 17.483 0 9.655 7.828 17.483 17.483 17.483z" fill="#ca6e59"/></g></svg>