<svg id="Layer_1" enable-background="new 0 0 512 512" height="512" viewBox="0 0 512 512" width="512" xmlns="http://www.w3.org/2000/svg"><g><path d="m-15.255 386.505h167v61.49h-167z" fill="#eaf6ff" transform="matrix(0 -1 1 0 -349.005 485.495)"/><path d="m360.255 386.505h167v61.49h-167z" fill="#eaf6ff" transform="matrix(0 -1 1 0 26.505 861.005)"/><path d="m494.5 383.713h-477c-5.523 0-10-4.477-10-10v-51.49c0-5.523 4.477-10 10-10h477c5.523 0 10 4.477 10 10v51.49c0 5.522-4.477 10-10 10z" fill="#c59191"/><path d="m494.5 312.223h-30c5.523 0 10 4.477 10 10v51.49c0 5.523-4.477 10-10 10h30c5.523 0 10-4.477 10-10v-51.49c0-5.523-4.477-10-10-10z" fill="#b98080"/><path d="m482.5 283.713h-453c-12.15 0-22-9.85-22-22v-92.49c0-12.15 9.85-22 22-22h453c12.15 0 22 9.85 22 22v92.49c0 12.15-9.85 22-22 22z" fill="#c59191"/><path d="m482.5 147.223h-30c12.15 0 22 9.85 22 22v92.49c0 12.15-9.85 22-22 22h30c12.15 0 22-9.85 22-22v-92.49c0-12.151-9.85-22-22-22z" fill="#b98080"/><g><path d="m37.5 310.539v-122.919c0-16.356 9.958-31.065 25.144-37.139l37.283-14.913c7.593-3.037 12.572-10.391 12.572-18.57v-16.459h52.821v16.459c0 8.178 4.979 15.532 12.572 18.57l37.283 14.913c15.186 6.075 25.144 20.783 25.144 37.139v122.919z" fill="#b0e6a0"/><g><path d="m156.059 152.039 33.604 13.442c15.186 6.074 25.144 20.783 25.144 37.139v107.918h25.514v-122.917c0-16.356-9.958-31.065-25.144-37.139l-35.082-14.033z" fill="#8ddaa7"/></g><path d="m75 295.539h127.822v55.558h-127.822z" fill="#b2caec"/><path d="m172.822 295.539h30v55.558h-30z" fill="#82aee3"/><path d="m240.322 310.539h-37.5v21.807c0 10.355 8.395 18.75 18.75 18.75 10.355 0 18.75-8.395 18.75-18.75z" fill="#ffcebf"/><path d="m214.808 349.819c2.101.814 4.376 1.278 6.764 1.278 10.355 0 18.75-8.395 18.75-18.75 0-4.429 0-13.671 0-21.808h-25.514z" fill="#ffb09e"/><path d="m56.25 351.097c10.355 0 18.75-8.395 18.75-18.75v-21.808h-37.5v21.808c0 10.355 8.395 18.75 18.75 18.75z" fill="#ffcebf"/><g><path d="m187.821 295.539v-75c0-4.143 3.357-7.5 7.5-7.5s7.5 3.357 7.5 7.5v75z" fill="#8ddaa7"/></g><g><path d="m75 295.539v-75c0-4.143 3.357-7.5 7.5-7.5s7.5 3.357 7.5 7.5v75z" fill="#8ddaa7"/></g><g><g><path d="m202.821 485.75h-48.911v-135.756c0-13.506 10.949-24.455 24.455-24.455 13.506 0 24.455 10.949 24.455 24.455v135.756z" fill="#82aee3"/><path d="m178.366 325.539c-5.655 0-10.858 1.925-15 5.147 5.751 4.475 9.455 11.457 9.455 19.308v135.756h30v-135.755c.001-13.507-10.949-24.456-24.455-24.456z" fill="#528fd8"/><path d="m202.292 500.75h-47.852c-4.434 0-8.029-3.595-8.029-8.029 0-12.134 9.837-21.971 21.971-21.971h19.969c12.134 0 21.971 9.837 21.971 21.971-.001 4.434-3.595 8.029-8.03 8.029z" fill="#554e56"/></g><g><path d="m123.911 485.75h-48.911v-135.756c0-13.506 10.949-24.455 24.455-24.455 13.506 0 24.455 10.949 24.455 24.455v135.756z" fill="#82aee3"/><path d="m99.455 325.539c-5.655 0-10.858 1.925-15 5.147 5.751 4.475 9.455 11.457 9.455 19.308v135.756h30v-135.755c.001-13.507-10.948-24.456-24.455-24.456z" fill="#528fd8"/><path d="m123.382 500.75h-47.853c-4.434 0-8.029-3.595-8.029-8.029 0-12.134 9.837-21.971 21.971-21.971h19.969c12.134 0 21.971 9.837 21.971 21.971 0 4.434-3.595 8.029-8.029 8.029z" fill="#554e56"/></g></g><path d="m138.911 154.75c16.34 0 31.028-7.064 41.185-18.301l-12.202-.881c-7.593-3.037-12.572-10.391-12.572-18.569v-16.459h-42.822v16.459c0 8.178-4.979 15.532-12.572 18.569l-2.202.881c10.157 11.237 24.845 18.301 41.185 18.301z" fill="#ffcebf"/><path d="m156.059 152.04c9.342-3.034 17.601-8.47 24.036-15.591-8.479-3.269-14.809-9.829-14.774-19.45v-16.459h-25.514v31.459c-.143 9.372 7.053 17.764 16.252 20.041z" fill="#ffb09e"/><path d="m138.911 114.744c-23.524 0-42.593-19.07-42.593-42.593v-43.401c0-13.807 11.193-25 25-25h35.186c13.807 0 25 11.193 25 25v43.401c0 13.547-6.324 25.616-16.181 33.418-3.629 2.872-7.736-9.835-12.183-8.259-4.182 1.482-8.665 17.329-13.332 17.425-.298.006-.597.009-.897.009z" fill="#ffcebf"/><path d="m156.504 3.75h-30c13.807 0 25 11.193 25 25v43.401c.217 2.014 1.359 14.53-7.751 24.5-7.681 8.405-19.722 11.796-31.253 8.909 3.511 2.729 9.46 6.544 17.628 8.273 3.26.69 6.238.914 8.782.911 23.524 0 42.593-19.07 42.593-42.593v-43.401c.001-13.807-11.192-25-24.999-25z" fill="#ffb09e"/><path d="m181.504 48.955v-20.205c0-13.807-11.193-25-25-25h-35.186c-13.807 0-25 11.193-25 25v20.208l.003.001 53.011-12.812c5.78-1.397 11.879-.354 16.867 2.882l15.302 9.93z" fill="#355f7f"/><path d="m156.504 3.75h-30c13.807 0 25 11.193 25 25v6.988c5.11-.694 10.328.458 14.695 3.291l15.302 9.93.003-.004v-20.205c0-13.807-11.193-25-25-25z" fill="#305972"/></g><g><path d="m411.362 159.744h-76.546c-18.955 0-34.32-15.366-34.32-34.32v-49.081c0-40.092 32.501-72.593 72.593-72.593 40.092 0 72.593 32.501 72.593 72.593v49.081c0 18.955-15.365 34.32-34.32 34.32z" fill="#355f7f"/><path d="m373.089 3.75c-5.144 0-10.159.543-15 1.56 32.893 6.912 57.593 36.084 57.593 71.033v49.082c0 18.955-15.366 34.32-34.32 34.32h30c18.955 0 34.32-15.366 34.32-34.32v-49.082c0-40.092-32.501-72.593-72.593-72.593z" fill="#305972"/><path d="m271.679 321.097v-118.477c0-16.356 9.958-31.065 25.144-37.139l37.283-14.913c7.593-3.037 12.572-10.391 12.572-18.57v-16.459h52.822v16.459c0 8.178 4.979 15.532 12.572 18.57l37.283 14.913c15.186 6.075 25.144 20.783 25.144 37.139v118.476c0 8.284-6.716 15-15 15h-172.82c-8.285.001-15-6.715-15-14.999z" fill="#aca6d6"/><g><path d="m389.367 167.304 32.944 13.178c15.186 6.074 25.144 20.783 25.144 37.139v92.918h27.045v-107.918c0-16.356-9.958-31.065-25.144-37.139l-35.082-14.033z" fill="#978ecb"/></g><path d="m474.5 310.539h-37.5v21.808c0 10.355 8.395 18.75 18.75 18.75 10.355 0 18.75-8.395 18.75-18.75z" fill="#ffcebf"/><path d="m447.455 310.539v38.604c2.503 1.239 5.313 1.954 8.295 1.954 10.355 0 18.75-8.395 18.75-18.75v-21.808z" fill="#ffb09e"/><path d="m290.428 351.097c10.355 0 18.75-8.395 18.75-18.75v-21.808h-37.5v21.808c0 10.355 8.395 18.75 18.75 18.75z" fill="#ffcebf"/><g><path d="m429.5 333.039c-4.143 0-7.5-3.357-7.5-7.5v-90c0-4.143 3.357-7.5 7.5-7.5s7.5 3.357 7.5 7.5v90c0 4.143-3.357 7.5-7.5 7.5z" fill="#978ecb"/></g><g><path d="m316.679 333.039c-4.143 0-7.5-3.357-7.5-7.5v-90c0-4.143 3.357-7.5 7.5-7.5s7.5 3.357 7.5 7.5v90c0 4.143-3.358 7.5-7.5 7.5z" fill="#978ecb"/></g><path d="m309.179 298.713h127.821v52.384h-127.821z" fill="#b0e6a0"/><path d="m407 298.712h30v52.384h-30z" fill="#8ddaa7"/><g><g><path d="m437 485.75h-48.911v-135.756c0-13.506 10.949-24.455 24.455-24.455 13.506 0 24.455 10.949 24.455 24.455v135.756z" fill="#ffcebf"/><path d="m412.545 325.539c-5.655 0-10.858 1.925-15 5.147 5.751 4.475 9.455 11.457 9.455 19.308v135.756h30v-135.755c0-13.507-10.949-24.456-24.455-24.456z" fill="#ffb09e"/><path d="m436.471 500.75h-47.852c-4.434 0-8.029-3.595-8.029-8.029 0-12.134 9.837-21.971 21.971-21.971h19.969c12.134 0 21.971 9.837 21.971 21.971-.001 4.434-3.596 8.029-8.03 8.029z" fill="#554e56"/><path d="m422.529 470.75h-19.969c-1.726 0-3.404.206-5.015.582 9.716 2.27 16.955 10.981 16.955 21.389 0 4.435-3.595 8.029-8.029 8.029h30c4.435 0 8.029-3.595 8.029-8.029 0-12.135-9.837-21.971-21.971-21.971z" fill="#433f43"/></g><g><path d="m358.089 485.75h-48.911v-135.756c0-13.506 10.949-24.455 24.455-24.455 13.506 0 24.455 10.949 24.455 24.455v135.756z" fill="#ffcebf"/><path d="m333.634 325.539c-5.655 0-10.858 1.925-15 5.147 5.751 4.475 9.455 11.457 9.455 19.308v135.756h30v-135.755c0-13.507-10.949-24.456-24.455-24.456z" fill="#ffb09e"/><path d="m357.56 500.75h-47.852c-4.434 0-8.029-3.595-8.029-8.029 0-12.134 9.837-21.971 21.971-21.971h19.969c12.134 0 21.971 9.837 21.971 21.971-.001 4.434-3.596 8.029-8.03 8.029z" fill="#554e56"/><path d="m343.619 470.75h-19.969c-1.726 0-3.404.206-5.015.582 9.716 2.27 16.955 10.981 16.955 21.389 0 4.435-3.595 8.029-8.029 8.029h30c4.435 0 8.029-3.595 8.029-8.029-.001-12.135-9.837-21.971-21.971-21.971z" fill="#433f43"/></g></g><path d="m373.089 169.75c16.34 0 31.028-7.064 41.185-18.301l-12.202-.881c-7.593-3.037-12.572-10.391-12.572-18.569v-16.459h-42.822v16.459c0 8.178-4.979 15.532-12.572 18.569l-2.202.881c10.157 11.237 24.845 18.301 41.185 18.301z" fill="#ffcebf"/><path d="m385.028 165.568 4.34 1.736c9.698-2.973 18.273-8.515 24.907-15.855-8.49-3.081-14.813-9.989-14.774-19.45v-16.459h-27.045v31.459c-.001 8.178 4.978 15.532 12.572 18.569z" fill="#ffb09e"/><path d="m372.455 133.21c-23.231-.339-41.959-19.276-41.959-42.588v-19.299c0-2.21 1.79-4.013 4.001-3.999 7.731.048 17.929-.774 29.333-4.176 8.787-2.621 16.019-6.097 21.602-9.332 1.542-.894 3.492-.638 4.764.61 2.537 2.489 6.101 5.417 10.816 7.917 4.276 2.267 8.294 3.544 11.548 4.281 1.827.414 3.122 2.027 3.122 3.9v20.097c0 13.547-6.324 25.617-16.182 33.418-2.577 2.039-6.705-11.214-10.968-9.808-7.747 2.555-15.941 18.981-16.077 18.979z" fill="#ffcebf"/><path d="m412.56 66.624c-3.254-.737-7.272-2.013-11.548-4.281-4.72-2.502-8.286-5.433-10.823-7.923-1.271-1.247-3.215-1.499-4.755-.606-4.388 2.544-9.812 5.229-16.193 7.539.572.336 1.161.667 1.771.991 2.761 1.464 5.415 2.515 7.824 3.274 4.087 1.288 6.846 5.097 6.846 9.382v15.622c.217 2.014 1.36 14.53-7.751 24.5-7.681 8.404-19.721 11.795-31.251 8.909 3.463 2.695 9.334 6.472 17.406 8.226 3.355.729 6.411.961 9.003.959 23.524 0 42.593-19.07 42.593-42.593v-20.099c0-1.873-1.295-3.486-3.122-3.9z" fill="#ffb09e"/></g><g><path d="m504.5 508.25h-497c-4.143 0-7.5-3.357-7.5-7.5s3.357-7.5 7.5-7.5h497c4.143 0 7.5 3.357 7.5 7.5s-3.357 7.5-7.5 7.5z" fill="#c59191"/></g></g></svg>