<svg id="Layer_1" enable-background="new 0 0 512 512" height="512" viewBox="0 0 512 512" width="512" xmlns="http://www.w3.org/2000/svg"><g><g><g><path d="m203.687 264.066-2.987-110.96c-.237-8.839-5.81-16.658-14.093-19.759l-11.023-4.141c-5.635-2.112-10.549-5.8-14.165-10.611l-43.978-58.576c-2.132-2.833-3.204-6.212-3.204-9.601 0-2.854.752-5.707 2.287-8.252 5.666-9.426 18.924-10.456 25.991-2.029l44.803 53.508c2.514 2.998 6.047 4.955 9.931 5.47l28.381 3.77c4.605.618 8.695-2.967 8.695-7.613v-15.845h43.35v15.844c0 4.646 4.09 8.231 8.695 7.613l28.381-3.77c3.884-.515 7.417-2.472 9.931-5.47l44.803-53.508c7.067-8.427 20.325-7.397 25.991 2.029 1.535 2.545 2.287 5.398 2.287 8.252 0 3.389-1.071 6.768-3.204 9.601l-43.978 58.576c-3.616 4.811-8.53 8.499-14.165 10.611l-11.023 4.141c-8.283 3.101-13.856 10.92-14.093 19.759l-2.988 110.961z" fill="#f58a97"/><g fill="#f07281"><path d="m262.222 79.427v31.297c0 4.646 4.09 8.231 8.695 7.613l28.382-3.771c3.884-.515 7.417-2.472 9.931-5.47l9.16-10.94c-1.163.457-2.379.79-3.638.957l-28.381 3.771c-4.605.618-8.695-2.967-8.695-7.613v-15.844z"/><path d="m395.476 42.166c-5.666-9.427-18.924-10.457-25.991-2.03l-9.082 10.847c6.953-2.746 15.397-.393 19.621 6.635 1.535 2.544 2.287 5.398 2.287 8.252 0 3.389-1.071 6.768-3.204 9.601l-39.137 52.128c4.146-2.173 7.78-5.237 10.611-9.004l43.978-58.576c2.132-2.833 3.204-6.212 3.204-9.601 0-2.855-.752-5.708-2.287-8.252z"/><path d="m309.94 148.799c-8.283 3.101-13.856 10.92-14.093 19.759l-2.571 95.508h15.037l2.987-110.961c.047-1.751.311-3.459.757-5.102z"/></g><g><path d="m395.476 42.166c-2.97-4.941-8.026-7.55-13.183-7.725.006.175.017.349.017.524 0 3.389-1.071 6.768-3.204 9.601l-43.978 58.576c-3.616 4.811-8.53 8.499-14.165 10.611l-11.023 4.141c-8.283 3.101-13.856 10.92-14.093 19.759l-2.987 126.413h15.453l2.987-110.961c.237-8.839 5.81-16.658 14.093-19.759l11.023-4.141c5.635-2.112 10.549-5.8 14.165-10.611l43.978-58.576c2.132-2.833 3.204-6.212 3.204-9.601 0-2.854-.752-5.707-2.287-8.251z" fill="#f07281"/></g><path d="m276.37 112.884c-4.605.618-8.695-12.967-8.695-17.613v-15.844h-33.35v15.845c0 4.646-4.09 8.23-8.695 7.613l-4.093-.544c6.706 12.13 19.622 20.346 34.463 20.346 14.84 0 27.757-8.216 34.463-20.346z" fill="#ffcebf"/><path d="m277.675 95.272v-15.845h-15.453v31.297c0 4.646 4.09 8.231 8.695 7.613l4.044-.537c6.509-3.59 11.905-8.953 15.502-15.459-2.281.156-5.236.942-7.394.268-3.093-.966-5.394-3.853-5.394-7.337z" fill="#ffb09e"/><path d="m256 91.086c-19.304 0-34.953-15.649-34.953-34.953v-35.617c0-11.331 9.185-20.516 20.516-20.516h28.875c11.331 0 20.516 9.185 20.516 20.516v35.617c0 11.116-5.189 21.021-13.278 27.423-1.812 1.434-3.77-12.307-5.848-11.25-2.981 1.516-6.208 17.618-9.605 18.228-2.02.363-4.099.552-6.223.552z" fill="#ffcebf"/><path d="m270.438 0h-23.414c11.331 0 20.516 9.185 20.516 20.516v35.617c.173 1.689 1.071 12.13-6.544 20.362-6.557 7.088-16.891 9.798-26.67 7.063 3.013 2.326 8.091 5.54 15.022 6.892 2.441.476 4.688.638 6.653.636 19.304 0 34.953-15.649 34.953-34.953v-35.617c-.001-11.331-9.186-20.516-20.516-20.516z" fill="#ffb09e"/><path d="m221.047 28.066v-7.55c0-11.331 9.185-20.516 20.516-20.516h28.875c11.331 0 20.516 9.185 20.516 20.516v7.55z" fill="#c59191"/><path d="m270.438 0h-23.414c11.331 0 20.516 9.185 20.516 20.516v7.55h23.414v-7.55c0-3.541-.897-6.872-2.476-9.779-3.571-6.573-10.503-10.745-18.04-10.737z" fill="#b98080"/><g><path d="m306.641 43.424h-101.282c-4.267 0-7.726-3.459-7.726-7.726s3.459-7.726 7.726-7.726h101.283c4.267 0 7.726 3.459 7.726 7.726s-3.46 7.726-7.727 7.726z" fill="#685e68"/></g><path d="m306.641 27.971h-30.905c4.267 0 7.726 3.459 7.726 7.726s-3.459 7.726-7.726 7.726h30.905c4.267 0 7.726-3.459 7.726-7.726s-3.459-7.726-7.726-7.726z" fill="#554e56"/></g><path d="m394.559 60.018-9.663 12.877-16.977-13.434-8.787-6.954 10.353-12.372c3.369-4.018 8.159-5.892 12.846-5.707 5.151.175 10.178 2.802 13.145 7.737 3.348 5.563 3.008 12.641-.917 17.853z" fill="#ffcebf"/><path d="m394.559 60.018-9.663 12.877-16.977-13.434 11.188-14.896c2.207-2.936 3.378-6.58 3.183-10.126.01 0 .021-.011.041-.011 5.151.175 10.178 2.802 13.145 7.737 3.348 5.563 3.008 12.641-.917 17.853z" fill="#ffb09e"/><path d="m142.515 40.136c-7.067-8.427-20.326-7.397-25.992 2.03-3.343 5.562-3.004 12.642.917 17.853l9.752 12.989.004.002 25.774-20.386z" fill="#ffcebf"/></g><path d="m113.32 512h-46.358c-11.379 0-20.604-9.225-20.604-20.604v-66.962h87.565v66.962c.001 11.379-9.224 20.604-20.603 20.604z" fill="#355f7f"/><path d="m103.018 424.435v66.962c0 11.379-9.225 20.604-20.604 20.604h30.905c11.379 0 20.604-9.224 20.604-20.604v-66.962z" fill="#305972"/><path d="m445.038 512h-46.358c-11.379 0-20.604-9.225-20.604-20.604v-66.962h87.565v66.962c.001 11.379-9.224 20.604-20.603 20.604z" fill="#355f7f"/><path d="m434.736 424.435v66.962c0 11.379-9.225 20.604-20.604 20.604h30.905c11.379 0 20.604-9.224 20.604-20.604v-66.962z" fill="#305972"/><g><path d="m443.458 285.405h-374.916l25.435-111.838c3.2-14.069 15.708-24.052 30.136-24.052h263.773c14.428 0 26.936 9.983 30.136 24.052z" fill="#eaf6ff"/><path d="m418.022 173.567c-3.2-14.068-15.708-24.051-30.136-24.051h-30.905c14.428 0 26.936 9.983 30.136 24.051l25.435 111.838h30.905z" fill="#c4e2ff"/><path d="m443.458 293.132h-374.916c-2.35 0-4.573-1.069-6.039-2.906s-2.017-4.241-1.495-6.533l25.435-111.838c4.026-17.702 19.517-30.065 37.67-30.065h263.774c18.153 0 33.644 12.363 37.67 30.065l25.435 111.838c.521 2.292-.029 4.696-1.495 6.533-1.466 1.836-3.689 2.906-6.039 2.906zm-365.235-15.453h355.553l-23.288-102.398c-2.415-10.621-11.71-18.039-22.602-18.039h-263.773c-10.892 0-20.186 7.419-22.602 18.039z" fill="#528fd8"/></g><path d="m496.547 452.765h-481.094v-114.716c0-37.753 30.605-68.358 68.358-68.358h344.379c37.753 0 68.358 30.605 68.358 68.358v114.716z" fill="#82aee3"/><path d="m428.189 269.691h-30.905c37.753 0 68.358 30.605 68.358 68.358v114.716h30.905v-114.717c0-37.753-30.605-68.357-68.358-68.357z" fill="#528fd8"/><path d="m10.302 421.859h491.396c5.69 0 10.302 4.612 10.302 10.302v25.755c0 5.69-4.612 10.302-10.302 10.302h-491.396c-5.69-.001-10.302-4.613-10.302-10.303v-25.755c0-5.689 4.612-10.301 10.302-10.301z" fill="#528fd8"/><path d="m501.698 421.859h-30.905c5.69 0 10.302 4.612 10.302 10.302v25.755c0 5.69-4.612 10.302-10.302 10.302h30.905c5.69 0 10.302-4.612 10.302-10.302v-25.755c0-5.69-4.612-10.302-10.302-10.302z" fill="#0473ce"/><g><path d="m386.318 326.506v26.568c0 8.18-5.717 15.226-13.712 16.936-36.42 7.792-71.627 12.331-116.606 12.331-31.4 0-71.392-2.648-116.689-12.352-7.963-1.7-13.629-8.767-13.629-16.915v-26.568c0-9.55 7.747-17.307 17.307-17.307h226.022c9.56 0 17.307 7.757 17.307 17.307z" fill="#355f7f"/><path d="m386.318 326.506v26.568c0 8.18-5.717 15.226-13.712 16.936-5.491 1.175-11.229 2.318-17.194 3.389v-46.894c0-9.55-7.747-17.307-17.307-17.307h30.905c9.561.001 17.308 7.758 17.308 17.308z" fill="#305972"/><g><path d="m315.784 353.501h-119.568c-4.267 0-7.726-3.459-7.726-7.726s3.459-7.726 7.726-7.726h119.568c4.267 0 7.726 3.459 7.726 7.726s-3.459 7.726-7.726 7.726z" fill="#eaf6ff"/></g></g><g fill="#fff"><ellipse cx="440.89" cy="345.775" rx="30.788" ry="20.972" transform="matrix(.197 -.98 .98 .197 15.051 709.925)"/><ellipse cx="67.8" cy="345.775" rx="20.972" ry="30.788" transform="matrix(.98 -.197 .197 .98 -66.775 20.127)"/></g></g></svg>