<svg id="Layer_1" enable-background="new 0 0 512 512" height="512" viewBox="0 0 512 512" width="512" xmlns="http://www.w3.org/2000/svg"><g><path d="m7.5 429.091c37.786-20.396 128.045-62.612 249.667-57.727 123.868 4.975 211.573 56.046 247.333 79.663l.118.074c4.593 2.873 7.382 7.908 7.382 13.325v37.574c0 5.523-4.477 10-10 10h-492c-5.523 0-10-4.477-10-10v-59.511c0-5.467 2.84-10.541 7.5-13.398z" fill="#fcdbac"/><path d="m504.618 451.1-.118-.074c-35.76-23.616-123.465-74.688-247.333-79.663-121.622-4.884-211.881 37.331-249.667 57.728-.251.153-.493.316-.733.483 46.396-21.057 123.428-47.105 220.4-43.21 123.868 4.975 211.573 56.047 247.333 79.663l.118.074c4.593 2.873 7.382 7.908 7.382 13.325v32.574h20c5.523 0 10-4.477 10-10v-37.575c0-5.417-2.79-10.452-7.382-13.325z" fill="#f9ce8f"/><g><path d="m357.613 393.185h-31.214c-8.592 0-15.91-6.682-16.215-15.268-.32-9.015 6.892-16.423 15.836-16.423h29.601c11.202 0 20.283-9.081 20.283-20.283v-37.967c0-8.592 6.682-15.91 15.268-16.215 9.015-.32 16.423 6.892 16.423 15.836v40.339c0 27.604-22.378 49.981-49.982 49.981z" fill="#8ddaa7"/></g><g><path d="m288.849 431.954h31.214c8.592 0 15.91-6.682 16.215-15.268.32-9.015-6.892-16.423-15.836-16.423h-29.601c-11.202 0-20.283-9.081-20.283-20.283v-22.967c0-8.592-6.682-15.91-15.268-16.215-9.015-.32-16.423 6.892-16.423 15.836v25.339c0 27.603 22.378 49.981 49.982 49.981z" fill="#8ddaa7"/></g><path d="m338.789 466.981h-33.066v-193.43c0-9.131 7.402-16.533 16.533-16.533 9.131 0 16.533 7.402 16.533 16.533z" fill="#b0e6a0"/><path d="m142.5 504.5c24.686-15.154 95.493-54.084 190.211-45.453 62.987 5.74 109.524 30.051 134.207 45.453l12.808 7.5h-350.171z" fill="#fddeb0"/><path d="m332.711 489.047c36.047 3.285 66.693 12.654 90.952 22.953h56.062l-12.808-7.5c-24.683-15.402-71.22-39.712-134.207-45.453-94.718-8.632-165.525 30.298-190.211 45.453l-12.945 7.5h57.029c35.19-14.657 85.807-28.45 146.128-22.953z" fill="#f9ce8f"/><g><circle cx="432.16" cy="79.84" fill="#ffe180" r="29.734"/><path d="m432.16 50.106c-5.473 0-10.596 1.485-15 4.064 8.812 5.16 14.734 14.72 14.734 25.669s-5.922 20.509-14.734 25.669c4.404 2.579 9.527 4.064 15 4.064 16.422 0 29.734-13.312 29.734-29.733s-13.313-29.733-29.734-29.733z" fill="#fbd270"/><g><g><g><path d="m432.16 31.207c-4.142 0-7.5-3.357-7.5-7.5v-16.207c0-4.143 3.358-7.5 7.5-7.5s7.5 3.357 7.5 7.5v16.207c0 4.143-3.358 7.5-7.5 7.5z" fill="#ffe180"/></g><g><path d="m432.16 159.681c-4.142 0-7.5-3.357-7.5-7.5v-16.207c0-4.143 3.358-7.5 7.5-7.5s7.5 3.357 7.5 7.5v16.207c0 4.142-3.358 7.5-7.5 7.5z" fill="#ffe180"/></g></g><g><g><path d="m376.027 87.34h-16.207c-4.142 0-7.5-3.357-7.5-7.5s3.358-7.5 7.5-7.5h16.207c4.142 0 7.5 3.357 7.5 7.5s-3.358 7.5-7.5 7.5z" fill="#ffe180"/></g><g><path d="m504.5 87.34h-16.207c-4.142 0-7.5-3.357-7.5-7.5s3.358-7.5 7.5-7.5h16.207c4.142 0 7.5 3.357 7.5 7.5s-3.358 7.5-7.5 7.5z" fill="#ffe180"/></g></g></g><g><g><g><path d="m392.468 47.648c-1.919 0-3.839-.732-5.304-2.197l-11.46-11.461c-2.929-2.929-2.928-7.678 0-10.606 2.929-2.928 7.677-2.929 10.607.001l11.46 11.461c2.929 2.929 2.928 7.678 0 10.606-1.464 1.464-3.384 2.196-5.303 2.196z" fill="#ffe180"/></g><g><path d="m483.312 138.492c-1.919 0-3.839-.732-5.303-2.196l-11.46-11.46c-2.929-2.93-2.929-7.678 0-10.607 2.929-2.928 7.678-2.928 10.606 0l11.46 11.46c2.929 2.93 2.929 7.678 0 10.607-1.464 1.464-3.384 2.196-5.303 2.196z" fill="#ffe180"/></g></g><g><g><path d="m381.008 138.492c-1.919 0-3.839-.732-5.303-2.196-2.929-2.93-2.929-7.678 0-10.607l11.46-11.46c2.929-2.928 7.678-2.928 10.606 0 2.929 2.93 2.929 7.678 0 10.607l-11.46 11.46c-1.464 1.464-3.384 2.196-5.303 2.196z" fill="#ffe180"/></g><g><path d="m471.852 47.648c-1.919 0-3.838-.732-5.303-2.196-2.929-2.929-2.929-7.678 0-10.606l11.46-11.461c2.929-2.93 7.677-2.929 10.607-.001 2.929 2.929 2.929 7.678 0 10.606l-11.46 11.461c-1.465 1.465-3.385 2.197-5.304 2.197z" fill="#ffe180"/></g></g></g></g><g><path d="m181.504 207.267h-145.186v-119.674c0-40.092 32.501-72.593 72.593-72.593 40.092 0 72.593 32.501 72.593 72.593z" fill="#355f7f"/><path d="m108.911 15c-5.144 0-10.159.543-15 1.56 32.893 6.912 57.593 36.084 57.593 71.033v119.675h30v-119.675c0-40.092-32.501-72.593-72.593-72.593z" fill="#305972"/><g><path d="m161.69 285.248h-109.558c-13.723 0-24.847-11.125-24.847-24.847v-94.558c0-13.723 11.125-24.847 24.847-24.847h109.558c13.723 0 24.847 11.125 24.847 24.847v94.557c0 13.723-11.124 24.848-24.847 24.848z" fill="#c59191"/><path d="m161.69 140.995h-30c13.723 0 24.847 11.125 24.847 24.847v94.558c0 13.723-11.125 24.847-24.847 24.847h30c13.723 0 24.847-11.125 24.847-24.847v-94.559c0-13.722-11.124-24.846-24.847-24.846z" fill="#b98080"/><path d="m7.5 326.423v-107.919c0-16.356 9.958-31.065 25.144-37.139l37.283-14.913c7.593-3.037 12.572-10.391 12.572-18.57v-16.459h52.821v16.459c0 8.178 4.979 15.532 12.572 18.57l37.283 14.913c15.186 6.075 25.144 20.783 25.144 37.139v107.919z" fill="#feaee1"/><g><path d="m126.996 182.606 34.397 13.759c15.186 6.074 25.144 20.783 25.144 37.139v107.919h8.784c8.284 0 15-6.716 15-15v-107.919c0-16.356-9.958-31.064-25.144-37.139l-35.082-14.033z" fill="#fe93d3"/></g><path d="m210.321 326.423h-37.5v11.25c0 10.355 8.395 18.75 18.75 18.75 10.355 0 18.75-8.395 18.75-18.75z" fill="#ffcebf"/><path d="m7.5 326.423h37.5v11.25c0 10.355-8.395 18.75-18.75 18.75-10.355 0-18.75-8.395-18.75-18.75z" fill="#ffcebf"/><path d="m186.537 326.423v29.353c1.545.407 3.159.647 4.835.647 10.465 0 18.949-8.484 18.949-18.949v-11.051z" fill="#ffb09e"/><path d="m157.821 497h-97.821l-15-155.577v-30h127.821v30z" fill="#b0e6a0"/><path d="m45 251.423h127.821v60h-127.821z" fill="#feaee1"/><g fill="#b98080"><path d="m177.1 181.3c-19 19.07-26.59 44.48-19.83 66.32 1.92 6.2 4.82 11.49 8.05 15.94v21.98c-8.04-6.97-17.54-17.94-22.37-33.48-8.15-26.28.03-56.3 21.32-79.06l14.48 5.8c-.36.91-.91 1.76-1.65 2.5z"/><path d="m74.87 252.06c-4.83 15.54-14.33 26.51-22.37 33.48v-21.98c3.23-4.45 6.13-9.74 8.05-15.94 6.77-21.84-.83-47.25-19.83-66.32-.74-.74-1.29-1.59-1.65-2.5l14.48-5.8c21.3 22.77 29.47 52.79 21.32 79.06z"/></g><g><path d="m45 311.423v-60c0-4.143 3.358-7.5 7.5-7.5s7.5 3.357 7.5 7.5v60z" fill="#fe93d3"/></g><g><path d="m108.911 504.5c-4.142 0-7.5-3.357-7.5-7.5v-120.044c0-4.143 3.358-7.5 7.5-7.5s7.5 3.357 7.5 7.5v120.044c0 4.143-3.358 7.5-7.5 7.5z" fill="#8ddaa7"/></g><path d="m164.792 512h-47.852c-4.434 0-8.029-3.595-8.029-8.029 0-12.134 9.837-21.971 21.971-21.971h19.969c12.134 0 21.971 9.837 21.971 21.971-.001 4.434-3.595 8.029-8.03 8.029z" fill="#554e56"/><path d="m150.851 482h-19.969c-1.726 0-3.404.206-5.015.582 9.716 2.27 16.955 10.981 16.955 21.389 0 4.435-3.595 8.029-8.029 8.029h30c4.434 0 8.029-3.595 8.029-8.029-.001-12.135-9.837-21.971-21.971-21.971z" fill="#433f43"/><path d="m100.882 512h-47.853c-4.434 0-8.029-3.595-8.029-8.029 0-12.134 9.837-21.971 21.971-21.971h19.969c12.134 0 21.971 9.837 21.971 21.971 0 4.434-3.595 8.029-8.029 8.029z" fill="#554e56"/><path d="m108.911 185.634c16.34 0 31.028-7.064 41.185-18.301l-12.202-.881c-7.593-3.037-12.572-10.391-12.572-18.569v-16.459h-42.822v16.459c0 8.178-4.979 15.532-12.572 18.569l-2.202.881c10.157 11.237 24.845 18.301 41.185 18.301z" fill="#ffcebf"/><path d="m135.321 147.882v-16.459h-23.784v31.459c-.132 8.893 6.554 17.503 15.459 19.724 8.956-3.088 16.88-8.393 23.099-15.274l-2.202-.881c-7.593-3.036-12.572-10.391-12.572-18.569z" fill="#ffb09e"/><path d="m108.911 145.628c-23.523 0-42.593-19.069-42.593-42.593v-19.298c0-2.21 1.79-4.013 4.001-3.999 7.731.048 17.929-.774 29.333-4.176 8.787-2.621 16.019-6.097 21.602-9.332 1.542-.894 3.492-.638 4.764.61 2.537 2.489 6.101 5.417 10.816 7.917 4.276 2.267 8.294 3.544 11.548 4.281 1.827.414 3.122 2.027 3.122 3.9v20.097c0 13.547-6.324 25.616-16.181 33.418-3.027 2.396-6.388-10.611-10.001-9.101-4.285 1.791-8.925 17.901-13.785 18.197-.868.053-1.744.079-2.626.079z" fill="#ffcebf"/><path d="m148.382 79.038c-3.254-.737-7.272-2.014-11.548-4.281-4.711-2.498-8.273-5.423-10.809-7.91-1.277-1.252-3.232-1.51-4.779-.614-3.741 2.168-8.239 4.437-13.432 6.491 1.077.696 2.226 1.379 3.458 2.033 1.553.823 3.072 1.516 4.533 2.1 6.15 2.457 10.137 8.461 10.137 15.084v11.095c.196 2.157 1.177 15.282-8.427 25.435-8.609 9.102-22.321 12.218-35.015 7.974 4.082 3.119 10.82 7.262 19.863 8.683 2.341.368 4.538.506 6.547.501 23.524 0 42.593-19.07 42.593-42.593v-20.098c.001-1.873-1.295-3.487-3.121-3.9z" fill="#ffb09e"/><g><path d="m157.821 311.423v-60c0-4.143 3.358-7.5 7.5-7.5s7.5 3.357 7.5 7.5v60z" fill="#fe93d3"/></g><path d="m86.94 482h-19.969c-1.726 0-3.404.206-5.015.582 9.716 2.27 16.955 10.981 16.955 21.389 0 4.435-3.595 8.029-8.029 8.029h30c4.434 0 8.029-3.595 8.029-8.029 0-12.135-9.837-21.971-21.971-21.971z" fill="#433f43"/></g></g></g></svg>