<svg id="Layer_1" enable-background="new 0 0 512 512" height="512" viewBox="0 0 512 512" width="512" xmlns="http://www.w3.org/2000/svg"><g><g><g><g><path d="m60.01 375.705-29.516 98.396-7.949-27.692c-1.143-3.981-5.299-6.281-9.278-5.14-3.981 1.143-6.282 5.297-5.14 9.278l15 52.254c1.29 5.687 11.624 8.478 14.393.086l37.51-125.045z" fill="#eaf6ff"/><path d="m83.12 500.75-23.11-125.045 150.387-169.16c3.858-4.339 10.588-4.492 14.638-.332l165.03 169.492-23.111 125.045z" fill="#f58a97"/><path d="m135.037 500.75 82.5-202.869 82.5 202.869z" fill="#355f7f"/><path d="m217.537 297.88s-10.537 25.912-15 36.886l67.5 165.984h30z" fill="#305972"/><g fill="#f07281"><path d="m217.537 297.881 96.779 129.783c3.839 5.148 4.972 11.826 3.047 17.952l-17.326 55.135z"/><path d="m217.537 297.881-96.779 129.783c-3.839 5.148-4.972 11.826-3.047 17.952l17.326 55.135z"/></g></g></g></g><g><g><path d="m301.679 310.539v-122.919c0-16.356 9.958-31.065 25.144-37.139l37.283-14.913c7.593-3.037 12.572-10.391 12.572-18.57v-16.459h52.822v16.459c0 8.178 4.979 15.532 12.572 18.57l37.283 14.913c15.186 6.075 25.144 20.783 25.144 37.139v122.919z" fill="#b0e6a0"/><g><path d="m504.5 310.539v-122.918c0-16.356-9.958-31.065-25.144-37.139l-35.082-14.033-22.05 14.894 35.347 14.139c15.186 6.074 25.144 20.783 25.144 37.139v107.918z" fill="#8ddaa7"/></g><path d="m504.5 321.789v-11.25h-37.5v11.25c0 10.355 8.395 18.75 18.75 18.75 10.355 0 18.75-8.395 18.75-18.75z" fill="#ffcebf"/><path d="m339.179 321.789v-11.25h-37.5v11.25c0 10.355 8.395 18.75 18.75 18.75 10.355 0 18.75-8.395 18.75-18.75z" fill="#ffcebf"/><path d="m482.716 310.539v29.733c.99.161 1.999.267 3.034.267 10.355 0 18.75-8.395 18.75-18.75v-11.25z" fill="#ffb09e"/><path d="m452 485.75h-97.821l-15-160.211v-30h127.821v30z" fill="#82aee3"/><path d="m339.179 220.539h127.821v75h-127.821z" fill="#b0e6a0"/><g><path d="m403.089 493.25c-4.142 0-7.5-3.357-7.5-7.5v-124.678c0-4.143 3.358-7.5 7.5-7.5s7.5 3.357 7.5 7.5v124.678c0 4.143-3.358 7.5-7.5 7.5z" fill="#528fd8"/></g><path d="m458.971 500.75h-47.852c-4.434 0-8.029-3.595-8.029-8.029 0-12.134 9.837-21.971 21.971-21.971h19.969c12.134 0 21.971 9.837 21.971 21.971-.001 4.434-3.596 8.029-8.03 8.029z" fill="#554e56"/><path d="m445.029 470.75h-19.969c-1.726 0-3.404.206-5.015.582 9.716 2.27 16.955 10.981 16.955 21.389 0 4.435-3.595 8.029-8.029 8.029h30c4.434 0 8.029-3.595 8.029-8.029 0-12.135-9.837-21.971-21.971-21.971z" fill="#433f43"/><path d="m395.06 500.75h-47.852c-4.434 0-8.029-3.595-8.029-8.029 0-12.134 9.837-21.971 21.971-21.971h19.969c12.134 0 21.971 9.837 21.971 21.971-.001 4.434-3.596 8.029-8.03 8.029z" fill="#554e56"/><path d="m403.089 154.75c16.34 0 31.028-7.064 41.185-18.301l-12.202-.881c-7.593-3.037-12.572-10.391-12.572-18.569v-16.459h-42.822v16.459c0 8.178-4.979 15.532-12.572 18.569l-2.202.881c10.157 11.237 24.845 18.301 41.185 18.301z" fill="#ffcebf"/><path d="m422.224 151.342c8.525-3.134 16.075-8.283 22.05-14.894-1.581-.633-3.488-1.371-4.922-2.215-6.04-3.554-9.852-10.079-9.852-17.235v-16.459h-21.784v31.459c-.095 8.545 5.991 16.99 14.508 19.344z" fill="#ffb09e"/><path d="m403.089 114.744c-23.524 0-42.593-19.07-42.593-42.593v-43.401c0-13.807 11.193-25 25-25h35.186c13.807 0 25 11.193 25 25v43.401c0 13.546-6.323 25.615-16.18 33.416-2.835 2.244-5.962-10.866-9.314-9.394-3.896 1.71-8.097 17.853-12.499 18.326-1.511.162-3.045.245-4.6.245z" fill="#ffcebf"/><path d="m420.682 3.75h-30c13.807 0 25 11.193 25 25v43.401c.217 2.014 1.36 14.53-7.751 24.5-7.681 8.405-19.722 11.795-31.253 8.908 3.512 2.73 9.466 6.549 17.64 8.278 3.255.688 6.228.911 8.77.908 23.523 0 42.593-19.07 42.593-42.593v-43.402c.001-13.807-11.192-25-24.999-25z" fill="#ffb09e"/><path d="m360.496 47.25v-18.5c0-13.807 11.193-25 25-25h35.186c13.807 0 25 11.193 25 25v18.5z" fill="#c59191"/><path d="m420.682 3.75h-30c13.807 0 25 11.193 25 25v18.5h30v-18.5c0-13.807-11.193-25-25-25z" fill="#b98080"/><g><path d="m464.8 54.75h-123.42c-4.142 0-7.5-3.357-7.5-7.5s3.358-7.5 7.5-7.5h123.42c4.142 0 7.5 3.357 7.5 7.5s-3.358 7.5-7.5 7.5z" fill="#685e68"/></g><path d="m464.8 39.75h-30c4.142 0 7.5 3.357 7.5 7.5s-3.358 7.5-7.5 7.5h30c4.142 0 7.5-3.357 7.5-7.5s-3.358-7.5-7.5-7.5z" fill="#554e56"/><g><path d="m339.179 295.539v-75c0-4.143 3.358-7.5 7.5-7.5s7.5 3.357 7.5 7.5v75z" fill="#8ddaa7"/></g><g><path d="m452 295.539v-75c0-4.143 3.358-7.5 7.5-7.5s7.5 3.357 7.5 7.5v75z" fill="#8ddaa7"/></g><path d="m381.118 470.75h-19.969c-1.726 0-3.404.206-5.015.582 9.716 2.27 16.955 10.981 16.955 21.389 0 4.435-3.595 8.029-8.029 8.029h30c4.434 0 8.029-3.595 8.029-8.029 0-12.135-9.836-21.971-21.971-21.971z" fill="#433f43"/></g></g><path d="m504.5 508.25h-497c-4.143 0-7.5-3.357-7.5-7.5s3.357-7.5 7.5-7.5h497c4.143 0 7.5 3.357 7.5 7.5s-3.357 7.5-7.5 7.5z" fill="#355f7f"/></g></svg>