<svg id="Layer_1" enable-background="new 0 0 512 512" height="512" viewBox="0 0 512 512" width="512" xmlns="http://www.w3.org/2000/svg"><g><g><g><g><path d="m60.01 375.705-29.516 98.396-7.949-27.692c-1.143-3.981-5.299-6.281-9.278-5.14-3.981 1.143-6.282 5.297-5.14 9.278l15 52.254c1.29 5.687 11.624 8.478 14.393.086l37.51-125.045z" fill="#eaf6ff"/><path d="m83.12 500.75-23.11-125.045 150.387-169.16c3.858-4.339 10.588-4.492 14.638-.332l165.03 169.492-23.111 125.045z" fill="#f58a97"/><path d="m135.037 500.75 82.5-202.869 82.5 202.869z" fill="#355f7f"/><path d="m217.537 297.88s-10.537 25.912-15 36.886l67.5 165.984h30z" fill="#305972"/><g fill="#f07281"><path d="m217.537 297.881 96.779 129.783c3.839 5.148 4.972 11.826 3.047 17.952l-17.326 55.135z"/><path d="m217.537 297.881-96.779 129.783c-3.839 5.148-4.972 11.826-3.047 17.952l17.326 55.135z"/></g></g></g></g><g><path d="m475.682 196.017h-145.186v-119.674c0-40.092 32.501-72.593 72.593-72.593 40.092 0 72.593 32.501 72.593 72.593z" fill="#355f7f"/><path d="m403.089 3.75c-5.144 0-10.159.543-15 1.56 32.893 6.912 57.593 36.084 57.593 71.033v119.675h30v-119.675c0-40.092-32.501-72.593-72.593-72.593z" fill="#305972"/><g><path d="m301.679 315.173v-107.919c0-16.356 9.958-31.065 25.144-37.139l37.283-14.913c7.593-3.037 12.572-10.391 12.572-18.57v-16.459h52.822v16.459c0 8.178 4.979 15.532 12.572 18.57l37.283 14.913c15.186 6.075 25.144 20.783 25.144 37.139v107.919z" fill="#feaee1"/><g><path d="m421.175 171.356 34.397 13.759c15.186 6.074 25.144 20.783 25.144 37.139v107.919h8.784c8.284 0 15-6.716 15-15v-107.919c0-16.356-9.958-31.064-25.144-37.139l-35.082-14.033z" fill="#fe93d3"/></g><path d="m504.5 315.173h-37.5v11.25c0 10.355 8.395 18.75 18.75 18.75 10.355 0 18.75-8.395 18.75-18.75z" fill="#ffcebf"/><path d="m301.679 315.173h37.5v11.25c0 10.355-8.395 18.75-18.75 18.75-10.355 0-18.75-8.395-18.75-18.75z" fill="#ffcebf"/><path d="m480.716 315.173v29.353c1.545.407 3.159.647 4.835.647 10.465 0 18.949-8.484 18.949-18.949v-11.051z" fill="#ffb09e"/><path d="m452 485.75h-97.821l-15-155.577v-30h127.821v30z" fill="#b0e6a0"/><path d="m339.179 240.173h127.821v60h-127.821z" fill="#feaee1"/><g><path d="m339.179 300.173v-60c0-4.143 3.358-7.5 7.5-7.5s7.5 3.357 7.5 7.5v60z" fill="#fe93d3"/></g><g><path d="m403.089 493.25c-4.142 0-7.5-3.357-7.5-7.5v-120.044c0-4.143 3.358-7.5 7.5-7.5s7.5 3.357 7.5 7.5v120.044c0 4.143-3.358 7.5-7.5 7.5z" fill="#8ddaa7"/></g><path d="m458.971 500.75h-47.852c-4.434 0-8.029-3.595-8.029-8.029 0-12.134 9.837-21.971 21.971-21.971h19.969c12.134 0 21.971 9.837 21.971 21.971-.001 4.434-3.596 8.029-8.03 8.029z" fill="#554e56"/><path d="m445.029 470.75h-19.969c-1.726 0-3.404.206-5.015.582 9.716 2.27 16.955 10.981 16.955 21.389 0 4.435-3.595 8.029-8.029 8.029h30c4.434 0 8.029-3.595 8.029-8.029 0-12.135-9.837-21.971-21.971-21.971z" fill="#433f43"/><path d="m395.06 500.75h-47.852c-4.434 0-8.029-3.595-8.029-8.029 0-12.134 9.837-21.971 21.971-21.971h19.969c12.134 0 21.971 9.837 21.971 21.971-.001 4.434-3.596 8.029-8.03 8.029z" fill="#554e56"/><path d="m403.089 174.384c16.34 0 31.028-7.064 41.185-18.301l-12.202-.881c-7.593-3.037-12.572-10.391-12.572-18.569v-16.459h-42.822v16.459c0 8.178-4.979 15.532-12.572 18.569l-2.202.881c10.157 11.237 24.845 18.301 41.185 18.301z" fill="#ffcebf"/><path d="m429.5 136.632v-16.459h-23.784v31.459c-.132 8.893 6.554 17.503 15.459 19.724 8.956-3.088 16.88-8.393 23.099-15.274l-2.202-.881c-7.593-3.036-12.572-10.391-12.572-18.569z" fill="#ffb09e"/><path d="m403.089 134.378c-23.523 0-42.593-19.069-42.593-42.593v-19.298c0-2.21 1.79-4.013 4.001-3.999 7.731.048 17.929-.774 29.333-4.176 8.787-2.621 16.019-6.097 21.602-9.332 1.542-.894 3.492-.638 4.764.61 2.537 2.489 6.101 5.417 10.816 7.917 4.276 2.267 8.294 3.544 11.548 4.281 1.827.414 3.122 2.027 3.122 3.9v20.097c0 13.441-6.225 25.427-15.95 33.233-3.087 2.478-6.527-10.465-10.232-8.917-4.285 1.791-8.925 17.901-13.785 18.197-.868.054-1.744.08-2.626.08z" fill="#ffcebf"/><path d="m442.56 67.788c-3.254-.737-7.272-2.014-11.548-4.281-4.711-2.498-8.273-5.423-10.809-7.91-1.277-1.252-3.232-1.51-4.779-.614-3.741 2.168-8.239 4.437-13.432 6.491 1.077.696 2.226 1.379 3.458 2.033 1.553.823 3.072 1.516 4.533 2.1 6.15 2.457 10.137 8.461 10.137 15.084v11.095c.196 2.157 1.177 15.282-8.427 25.435-8.609 9.102-22.321 12.218-35.015 7.974 4.082 3.119 10.82 7.262 19.863 8.683 2.341.368 4.538.506 6.547.501 23.524 0 42.593-19.07 42.593-42.593v-20.098c.001-1.873-1.294-3.487-3.121-3.9z" fill="#ffb09e"/><g><path d="m452 300.173v-60c0-4.143 3.358-7.5 7.5-7.5s7.5 3.357 7.5 7.5v60z" fill="#fe93d3"/></g><path d="m381.118 470.75h-19.969c-1.726 0-3.404.206-5.015.582 9.716 2.27 16.955 10.981 16.955 21.389 0 4.435-3.595 8.029-8.029 8.029h30c4.434 0 8.029-3.595 8.029-8.029 0-12.135-9.836-21.971-21.971-21.971z" fill="#433f43"/></g></g><path d="m504.5 508.25h-497c-4.143 0-7.5-3.357-7.5-7.5s3.357-7.5 7.5-7.5h497c4.143 0 7.5 3.357 7.5 7.5s-3.357 7.5-7.5 7.5z" fill="#355f7f"/></g></svg>