<svg id="Layer_1" enable-background="new 0 0 512 512" height="512" viewBox="0 0 512 512" width="512" xmlns="http://www.w3.org/2000/svg"><g><g><path d="m342.46 157.777h-10.544v-40.524h10.544c11.19 0 20.262 9.072 20.262 20.262 0 11.19-9.072 20.262-20.262 20.262z" fill="#ffcebf"/><path d="m169.198 157.777h10.544v-40.524h-10.544c-11.191 0-20.262 9.072-20.262 20.262 0 11.19 9.072 20.262 20.262 20.262z" fill="#ffb09e"/></g><path d="m75.214 501.851v-145.231c0-26.284 16.865-49.601 41.827-57.83l82.76-27.283c8.321-2.743 13.942-10.516 13.942-19.277v-63.464h84.234v63.464c0 8.761 5.622 16.534 13.942 19.277l82.76 27.283c24.962 8.229 41.827 31.547 41.827 57.83v95.733l-76.115-27.348v79.383c0 4.204-3.408 7.612-7.612 7.612h-267.417c-5.605 0-10.148-4.544-10.148-10.149z" fill="#b0e6a0"/><g><path d="m394.679 298.79-82.76-27.283c-8.321-2.743-13.942-10.515-13.942-19.277v-63.464l-30.446 15.223v63.464c0 8.762 5.622 16.534 13.942 19.277l82.76 27.283c24.962 8.229 41.827 31.546 41.827 57.831v69.571l30.446 10.939v-95.734c0-26.284-16.865-49.601-41.827-57.83z" fill="#8ddaa7"/></g><path d="m213.743 158.319h84.234" style="fill:#fff;stroke:#000;stroke-width:15;stroke-linecap:round;stroke-linejoin:round;stroke-miterlimit:10"/><path d="m190.04 274.723c12.893 23.054 37.529 38.648 65.819 38.648 28.291 0 52.927-15.595 65.819-38.648l-9.76-3.217c-8.321-2.743-13.942-10.515-13.942-19.277v-63.464h-84.234v63.464c0 8.762-5.622 16.534-13.942 19.277z" fill="#ffcebf"/><g><path d="m179.743 101.486v68.873c0 42.036 34.065 76.113 76.086 76.113 42.021 0 76.086-34.077 76.086-76.113v-68.873l-22-22.043c-5.369-5.38-12.658-8.403-20.259-8.403h-67.611c-7.591 0-14.87 3.015-20.238 8.382z" fill="#ffcebf"/><path d="m309.915 79.443c-5.369-5.38-12.658-8.403-20.259-8.403h-30.446c7.601 0 14.889 3.023 20.259 8.403l22 22.043v68.873c.238 4.714 1.013 29.405-17.409 48.455-17.36 17.951-44.898 23.79-70.317 14.96 8.059 5.152 19.721 10.8 34.364 12.31 2.685.277 5.264.393 7.722.389 42.021 0 76.086-34.077 76.086-76.113v-68.873z" fill="#ffb09e"/><g><path d="m219.119 166.255c-4.204 0-7.611-3.407-7.611-7.612v-14.689c0-4.204 3.408-7.611 7.611-7.611 4.204 0 7.611 3.407 7.611 7.611v14.689c0 4.204-3.407 7.612-7.611 7.612z" fill="#554e56"/></g><g><path d="m292.539 166.255c-4.204 0-7.611-3.407-7.611-7.612v-14.689c0-4.204 3.408-7.611 7.611-7.611s7.612 3.407 7.612 7.611v14.689c0 4.204-3.408 7.612-7.612 7.612z" fill="#554e56"/></g><g><path d="m255.833 213.054c-.134 0-.268-.001-.403-.002-6.25-.065-12.456-1.693-17.947-4.706-3.685-2.023-5.033-6.65-3.01-10.335s6.649-5.034 10.335-3.011c2.301 1.264 6.04 2.78 10.781 2.829 4.97.065 8.858-1.508 11.262-2.829 3.687-2.021 8.312-.674 10.335 3.011 2.022 3.686.674 8.312-3.011 10.335-3.934 2.158-10.286 4.708-18.342 4.708z" fill="#ffb09e"/></g></g><g><path d="m151.329 512c-4.204 0-7.611-3.407-7.611-7.612v-64.161c0-4.204 3.408-7.611 7.611-7.611 4.204 0 7.611 3.407 7.611 7.611v64.161c0 4.205-3.408 7.612-7.611 7.612z" fill="#8ddaa7"/></g><g><path d="m352.78 512c-4.204 0-7.612-3.407-7.612-7.612v-79.384c0-4.204 3.408-7.611 7.612-7.611s7.611 3.407 7.611 7.611v79.384c0 4.205-3.408 7.612-7.611 7.612z" fill="#8ddaa7"/></g><g><path d="m334.512 382.605h-70.026c-5.605 0-10.149-4.544-10.149-10.149v-122.799c0-5.605 4.544-10.149 10.149-10.149h70.026c5.605 0 10.149 4.544 10.149 10.149v122.799c0 5.605-4.544 10.149-10.149 10.149z" fill="#355f7f"/><path d="m334.512 239.508h-30.446c5.605 0 10.149 4.544 10.149 10.149v122.799c0 5.605-4.544 10.149-10.149 10.149h30.446c5.605 0 10.149-4.544 10.149-10.149v-122.799c0-5.604-4.544-10.149-10.149-10.149z" fill="#305972"/><circle cx="314.215" cy="269.954" fill="#fff" r="7.611"/></g><path d="m309.306 328.352c-10.879 8.753-13.137 24.429-5.169 35.895l76.673 110.347c7.56 10.88 21.241 15.689 33.945 11.932 20.854-6.167 28.878-31.452 15.395-48.515l-83.309-105.427c-9.162-11.595-26.021-13.496-37.535-4.232z" fill="#8ddaa7"/><path d="m430.15 438.011-83.309-105.427c-8.785-11.117-24.641-13.315-36.082-5.314 2.077 1.452 3.983 3.223 5.636 5.314l83.309 105.427c11.965 15.142 6.984 36.746-8.86 45.732 7.107 4.045 15.708 5.208 23.911 2.783 20.855-6.166 28.879-31.452 15.395-48.515z" fill="#76ce91"/><path d="m346.842 332.584c-9.163-11.595-26.021-13.496-37.536-4.232-10.879 8.752-13.137 24.428-5.169 35.895l14.881 21.417.364-.57 41.301-34.995z" fill="#ffcebf"/><path d="m345.687 331.229c-4.745-5.198-11.809-8.799-19.651-8.745-5.308-.013-10.652 1.553-15.276 4.786 2.077 1.452 3.983 3.223 5.636 5.314l26.051 32.967 18.236-15.452c-1.495-1.866-13.507-17.239-14.996-18.87z" fill="#ffb09e"/><path d="m363.796 54.071c0-14.145-9.885-25.613-22.078-25.613-.009 0-.019 0-.028 0-1.352.002-2.45-1.064-2.428-2.416.002-.143.003-.286.003-.43 0-14.145-9.885-25.612-22.078-25.612-6.557 0-12.444 3.318-16.487 8.584-.975 1.269-2.847 1.269-3.822 0-4.043-5.266-9.93-8.584-16.487-8.584s-12.444 3.318-16.487 8.584c-.975 1.269-2.847 1.269-3.822 0-4.043-5.266-9.931-8.584-16.488-8.584s-12.444 3.318-16.487 8.584c-.975 1.269-2.847 1.269-3.822 0-4.043-5.266-9.93-8.584-16.487-8.584-8.29 0-15.509 5.303-19.283 13.142-.448.93-1.453 1.438-2.474 1.289-.909-.133-1.834-.202-2.774-.202-12.193 0-22.078 11.467-22.078 25.613 0 5.555 1.527 10.695 4.118 14.89.792 1.282.198 2.933-1.21 3.47-8.811 3.362-15.174 12.98-15.174 24.327 0 14.145 9.885 25.613 22.078 25.613.94 0 1.865-.069 2.774-.202 1.021-.149 2.026.36 2.474 1.289 3.774 7.839 10.993 13.142 19.283 13.142s15.509-5.303 19.283-13.142c.448-.93 1.453-1.438 2.474-1.289.909.133 1.834.202 2.774.202 7.422 0 13.988-4.25 17.99-10.766.909-1.481 2.985-1.572 3.998-.16 4.791 6.676 12.006 10.927 20.08 10.927 8.587 0 16.201-4.809 20.961-12.231.987-1.539 3.234-1.434 4.101.175 3.9 7.239 10.827 12.055 18.728 12.055.94 0 1.865-.069 2.774-.202 1.021-.149 2.026.36 2.474 1.289 3.774 7.839 10.993 13.142 19.283 13.142 8.993 0 16.726-6.241 20.167-15.192.216-.562.628-1.017 1.162-1.296 7.672-4.013 13.015-12.957 13.015-23.354 0-4.822-1.15-9.331-3.147-13.182-.339-.653-.339-1.441 0-2.095 1.997-3.85 3.147-8.359 3.147-13.181z" fill="#c59191"/><g><path d="m360.649 67.253c1.997-3.851 3.147-8.36 3.147-13.182 0-14.146-9.885-25.613-22.078-25.613-.009 0-.019 0-.028 0-1.352.002-2.45-1.064-2.428-2.416.002-.143.003-.286.003-.43 0-14.145-9.885-25.612-22.078-25.612-5.904 0-11.26 2.696-15.22 7.075 4.219 4.665 6.852 11.242 6.852 18.537 0 .144-.001.287-.003.43-.021 1.352 1.077 2.418 2.428 2.416h.028c12.193 0 22.078 11.467 22.078 25.613 0 4.822-1.15 9.331-3.147 13.182-.339.653-.339 1.441 0 2.095 1.997 3.851 3.147 8.36 3.147 13.182 0 10.397-5.343 19.341-13.015 23.354-.534.279-.946.734-1.162 1.296-1.181 3.072-2.877 5.813-4.946 8.104 3.961 4.386 9.317 7.088 15.225 7.088 8.993 0 16.726-6.241 20.167-15.192.216-.562.628-1.017 1.162-1.296 7.672-4.012 13.015-12.957 13.015-23.354 0-4.822-1.15-9.331-3.147-13.182-.339-.654-.339-1.442 0-2.095z" fill="#b98080"/></g></g></svg>