<svg id="Layer_1" enable-background="new 0 0 512 512" height="512" viewBox="0 0 512 512" width="512" xmlns="http://www.w3.org/2000/svg"><g><g><path d="m307.386 68.053c0-16.511-10.918-30.464-25.923-35.044-3.361-1.026-6.019-3.586-7.033-6.953-6.781-22.52-34.622-35.905-60.635-17.191-.842.606-1.587 1.351-2.192 2.193-18.706 26.025-5.328 53.88 17.181 60.665 3.36 1.013 5.923 3.665 6.945 7.024.832 2.734 1.975 5.333 3.387 7.754 1.82 3.12 1.878 7.015.047 10.13-7.06 12.013-7.476 28.401 3.857 44.139.603.837 1.343 1.577 2.179 2.179 29.864 21.489 62.185.629 62.185-27.784 0-6.729-1.815-13.032-4.981-18.45-1.832-3.137-1.832-7.076 0-10.213 3.167-5.418 4.983-11.721 4.983-18.449z" fill="#eaf6ff"/><path d="m302.405 86.503c3.165-5.418 4.98-11.722 4.98-18.45 0-16.512-10.918-30.464-25.923-35.044-3.361-1.026-6.019-3.586-7.033-6.953-5.888-19.556-27.659-32.209-50.322-22.95 9.715 4.283 17.223 12.656 20.322 22.95 1.014 3.367 3.672 5.927 7.033 6.953 15.006 4.58 25.923 18.532 25.923 35.044 0 6.729-1.815 13.032-4.98 18.45-1.832 3.137-1.832 7.076 0 10.213 3.165 5.418 4.98 11.721 4.98 18.45 0 14.988-8.996 27.871-21.878 33.547 26.537 10.841 51.878-8.389 51.878-33.547 0-6.729-1.815-13.032-4.98-18.45-1.832-3.137-1.832-7.076 0-10.213z" fill="#c4e2ff"/><path d="m45.774 68.053c0-16.511 10.918-30.464 25.923-35.044 3.361-1.026 6.019-3.586 7.033-6.953 6.781-22.52 34.622-35.905 60.635-17.191.842.606 1.587 1.351 2.192 2.193 18.706 26.025 5.328 53.88-17.181 60.665-3.36 1.013-5.923 3.665-6.945 7.024-.832 2.734-1.975 5.333-3.387 7.754-1.82 3.12-1.878 7.015-.047 10.13 7.06 12.013 7.476 28.401-3.857 44.139-.603.837-1.343 1.577-2.179 2.179-29.864 21.489-62.185.629-62.185-27.784 0-6.729 1.815-13.032 4.981-18.45 1.832-3.137 1.832-7.076 0-10.213-3.167-5.418-4.983-11.721-4.983-18.449z" fill="#eaf6ff"/><g><path d="m76.47 162.098h25.767v-40.524h-25.767c-11.19 0-20.262 9.072-20.262 20.262 0 11.191 9.071 20.262 20.262 20.262z" fill="#ffb09e"/><path d="m276.69 162.098h-25.767v-40.524h25.767c11.19 0 20.262 9.072 20.262 20.262 0 11.191-9.071 20.262-20.262 20.262z" fill="#ffcebf"/></g></g><path d="m430.739 171.182h8.355c2.753 0 5.201 1.821 5.919 4.48 1.968 7.281 8.614 12.637 16.511 12.637s14.544-5.356 16.511-12.637c.719-2.659 3.167-4.48 5.919-4.48h8.355c3.4 0 6.157 2.759 6.157 6.162v116.056c0 3.403-2.757 6.162-6.157 6.162h-8.355c-2.753 0-5.201-1.821-5.919-4.48-1.968-7.281-8.614-12.637-16.511-12.637s-14.544 5.356-16.511 12.637c-.719 2.659-3.167 4.48-5.919 4.48h-8.355c-3.4 0-6.157-2.759-6.157-6.162v-116.056c0-3.403 2.757-6.162 6.157-6.162z" fill="#355f7f"/><g><path d="m498.467 177.344c0-3.403-2.757-6.162-6.157-6.162h-8.355c-2.753 0-5.201 1.821-5.919 4.48-1.394 5.159-5.143 9.339-10.015 11.345v96.73c4.872 2.006 8.621 6.186 10.015 11.345.719 2.659 3.167 4.481 5.919 4.481h8.355c3.4 0 6.157-2.759 6.157-6.163z" fill="#305972"/></g><path d="m508.192 287.918c0 7.459-2.588 14.959-7.906 21.049l-128.644 147.196c-10.078 11.538-27.818 12.138-38.646 1.298l-27.239-27.229v74.157c0 4.201-3.41 7.612-7.612 7.612h-284.193c-5.602 0-10.149-4.547-10.149-10.149v-159.558c0-28.904 19.709-54.072 47.749-60.994l65.165-16.075c9.347-2.303 15.923-10.697 15.923-20.328v-65.205h87.877v63.602c0 10.382 7.52 19.231 17.76 20.916l43.03 7.063c22.753 3.724 42.472 17.832 53.362 38.16l25.331 47.343c1.614 2.994 4.871 4.334 7.875 3.786 1.573-.284 3.065-1.076 4.232-2.405l80.063-91.369c11.265-12.848 30.659-14.574 44.005-3.887 7.927 6.333 12.017 15.639 12.017 25.017z" fill="#eaf6ff"/><g><path d="m496.176 262.901c-6.755-5.409-15.06-7.633-23.076-6.849 3.074 5.062 4.646 10.838 4.646 16.643 0 7.459-2.588 14.959-7.906 21.049l-128.644 147.196c-4.305 4.929-10.008 7.853-15.973 8.752l7.772 7.769c10.829 10.839 28.569 10.24 38.646-1.298l128.644-147.196c5.318-6.089 7.906-13.59 7.906-21.049.001-9.378-4.089-18.684-12.015-25.017z" fill="#c4e2ff"/></g><g><path d="m367.877 360.562c-.061.132-.112.233-.152.324-7.404 2.155-14.805 4.307-22.207 6.459-9.305 2.706-19.234-1.469-23.806-10.013l-17.487-32.676c-10.89-20.318-30.608-34.435-53.362-38.16l-43.03-7.063c-4.856-.629-10.972-4.19-14.462-9.57-2.101-3.298-3.298-7.195-3.298-11.346v-63.602l30.446-15.223v63.602c0 10.382 7.52 19.231 17.76 20.916l43.03 7.063c22.753 3.724 42.472 17.832 53.362 38.16l25.331 47.343c1.613 2.994 4.871 4.334 7.875 3.786z" fill="#c4e2ff"/></g><path d="m116.714 265.225c9.353-2.308 15.925-10.699 15.925-20.332v-65.197h77.884v63.603c0 3.892 11.057 7.569 12.919 10.734 3.103 5.275 8.44 9.126 14.841 10.176l-61.701 40.045z" fill="#ffcebf"/><path d="m223.863 254.721c-2.123-3.315-3.341-7.245-3.341-11.422v-63.603l-30.446 15.223v63.603c0 8.293 4.8 15.612 11.955 19.075z" fill="#ffb09e"/><g><path d="m67.52 512c-4.204 0-7.611-3.407-7.611-7.612v-93.904c0-4.204 3.408-7.612 7.611-7.612s7.611 3.407 7.611 7.612v93.904c0 4.205-3.408 7.612-7.611 7.612z" fill="#c4e2ff"/></g><g><path d="m298.147 512c-4.204 0-7.611-3.407-7.611-7.612v-93.904c0-4.204 3.407-7.612 7.611-7.612s7.612 3.407 7.612 7.612v93.904c-.001 4.205-3.408 7.612-7.612 7.612z" fill="#c4e2ff"/></g><path d="m176.58 9.723c-49.466 0-89.566 40.12-89.566 89.61v52.098c0 49.508 40.1 89.642 89.566 89.642 4.586 0 9.092-.345 13.492-1.01 5.836-.883 11.488-17.329 16.897-19.281 4.57-1.649 8.967 11.34 13.157 9.002 27.452-15.316 46.019-44.664 46.019-78.352v-52.099c.001-49.49-40.099-89.61-89.565-89.61z" fill="#ffcebf"/><path d="m176.58 9.723c-5.19 0-10.275.447-15.223 1.295 42.214 7.232 74.343 44.017 74.343 88.315v52.098c.223 5.897.72 35.136-21.341 58.078-20.311 21.122-51.904 28.753-81.72 20.046 10.422 5.625 23.577 10.513 38.985 11.382 1.684.095 3.337.139 4.957.137 49.466 0 89.566-40.134 89.566-89.642v-52.099c-.001-49.491-40.101-89.61-89.567-89.61z" fill="#ffb09e"/><g><g><path d="m133.367 145.245c-4.204 0-7.612-3.407-7.612-7.611v-17.3c0-4.204 3.408-7.611 7.612-7.611s7.611 3.407 7.611 7.611v17.3c0 4.203-3.408 7.611-7.611 7.611z" fill="#554e56"/></g><g><path d="m219.794 145.245c-4.204 0-7.611-3.407-7.611-7.611v-17.3c0-4.204 3.408-7.611 7.611-7.611 4.204 0 7.611 3.407 7.611 7.611v17.3c0 4.203-3.408 7.611-7.611 7.611z" fill="#554e56"/></g><g><path d="m176.582 200.362c-.153 0-.304-.001-.457-.002-7.133-.074-14.219-1.934-20.491-5.375-3.685-2.022-5.034-6.649-3.011-10.334 2.021-3.687 6.648-5.034 10.334-3.012 2.847 1.562 7.47 3.437 13.327 3.498 6.147.079 10.948-1.867 13.921-3.498 3.685-2.024 8.312-.674 10.334 3.012s.673 8.312-3.012 10.334c-4.494 2.466-11.75 5.377-20.945 5.377z" fill="#ffb09e"/></g></g><path d="m500.286 308.966-23.545 26.944-23.342-23.363-22.012-22.033 20.784-23.727c5.561-6.343 13.112-9.976 20.927-10.737h.051c.507-.051 1.015-.091 1.522-.111 7.52-.376 15.193 1.908 21.505 6.961 14.239 11.377 16.106 32.335 4.11 46.066z" fill="#ffcebf"/><path d="m500.286 308.966-23.545 26.944-23.342-23.363 16.441-18.805c5.318-6.089 7.906-13.59 7.906-21.049 0-5.805-1.573-11.58-4.648-16.644h.051c.528 0 1.035-.041 1.522-.111 7.52-.376 15.193 1.908 21.505 6.961 14.239 11.378 16.106 32.336 4.11 46.067z" fill="#ffb09e"/><path d="m155.862 324.983 20.719-20.729-47.571-47.594c-2.829 4.161-7.132 7.29-12.288 8.563l-26.013 6.419 53.315 53.341c3.268 3.271 8.568 3.271 11.838 0z" fill="#c4e2ff"/><path d="m265.429 268.664-27.157-4.456c-6.116-1.004-11.244-4.578-14.395-9.497l-47.298 49.544 20.719 20.729c3.269 3.271 8.57 3.271 11.839 0z" fill="#c4e2ff"/><path d="m265.426 268.666-17.354 17.364-40.239-6.597c-2.015-.311-3.968-.956-5.795-1.847l21.83-22.864c3.146 4.922 8.291 8.484 14.411 9.489z" fill="#b3dafe"/><g fill="#c4e2ff"><circle cx="176.58" cy="376.515" r="7.611"/><circle cx="176.58" cy="424.214" r="7.611"/><circle cx="176.58" cy="470.898" r="7.611"/></g></g></svg>