<svg id="Layer_1" enable-background="new 0 0 512 512" height="512" viewBox="0 0 512 512" width="512" xmlns="http://www.w3.org/2000/svg"><g><g><g><path d="m102.287 415.218c5.655-18.448-13.467-24.31-7.812-42.758s24.777-12.587 30.432-31.035c5.654-18.446-13.467-24.307-7.813-42.753s24.776-12.585 30.431-31.031c5.654-18.445-13.468-24.307-7.813-42.752v-45h232.577v45c5.654 18.445-13.468 24.307-7.813 42.752 5.654 18.446 24.776 12.585 30.431 31.031 5.654 18.446-13.467 24.307-7.813 42.753 5.655 18.448 24.777 12.587 30.432 31.035s-13.467 24.31-7.812 42.758z" fill="#355f7f"/></g><path d="m417.525 372.46c-5.655-18.448-24.777-12.586-30.432-31.034-5.654-18.446 13.467-24.308 7.813-42.753-5.654-18.446-24.776-12.585-30.431-31.031-5.654-18.445 13.468-24.307 7.813-42.752v-45h-30v45c5.654 18.445-13.468 24.307-7.813 42.752 5.655 18.446 24.776 12.585 30.431 31.031 5.654 18.445-13.468 24.307-7.813 42.753 5.655 18.448 24.777 12.586 30.432 31.034s-13.467 24.31-7.812 42.758h30c-5.655-18.448 13.467-24.31 7.812-42.758z" fill="#305972"/><path d="m209.465 3.75h93.009c40.575 0 73.467 32.892 73.467 73.467v76.533h-239.943v-76.533c0-40.575 32.892-73.467 73.467-73.467z" fill="#b98080"/><path d="m180.998 96.25h149.944v75.364h-149.944z" fill="#355f7f"/><path d="m300.941 96.25h30v75.363h-30z" fill="#305972"/><path d="m302.474 3.75h-30c40.575 0 73.467 32.893 73.467 73.467v76.533h30v-76.533c0-40.574-32.892-73.467-73.467-73.467z" fill="#ae6c6c"/><path d="m175.998 89.448v-12.23c0-18.484 14.984-33.468 33.468-33.468h93.008c18.484 0 33.468 14.984 33.468 33.468v12.23c0 7.898-6.403 14.301-14.301 14.301h-131.342c-7.898 0-14.301-6.403-14.301-14.301z" fill="#fddeb0"/><path d="m302.474 43.75h-30c18.484 0 33.468 14.984 33.468 33.468v12.23c0 7.898-6.403 14.301-14.301 14.301h30c7.898 0 14.301-6.403 14.301-14.301v-12.23c-.001-18.484-14.985-33.468-33.468-33.468z" fill="#fccd7f"/><path d="m434 498.25v-128.104c0-25.899-16.618-48.875-41.214-56.983l-81.548-26.884c-8.199-2.703-13.738-10.362-13.738-18.994v-62.535h-83v62.535c0 8.633-5.539 16.292-13.738 18.994l-81.548 26.884c-24.596 8.109-41.214 31.084-41.214 56.983v128.104c0 5.523 4.477 10 10 10h336c5.523 0 10-4.477 10-10z" fill="#b0e6a0"/><g><path d="m392.786 313.163-81.548-26.884c-8.199-2.703-13.738-10.361-13.738-18.995v-62.534l-30 15v62.534c0 8.634 5.539 16.292 13.738 18.995l81.548 26.884c24.596 8.108 41.214 31.084 41.214 56.983v123.104h20c5.523 0 10-4.478 10-10v-128.104c0-25.899-16.618-48.875-41.214-56.983z" fill="#8ddaa7"/></g><path d="m217.97 303.27c13.046 5.716 25.177 9.438 38.03 12.11 12.763-1.86 25.486-5.303 38.64-11.229 10.43-4.7 18.96-10.051 25.61-14.9l-19.012-2.971c-8.199-2.703-13.738-10.361-13.738-18.995v-62.535h-73v62.534c0 8.634-5.539 16.292-13.738 18.995l-9.012 2.971c7.3 4.67 16.04 9.56 26.22 14.02z" fill="#ffcebf"/><path d="m267.5 219.75v62.534c0 8.634 5.539 16.292 13.738 18.995l11.391 3.755c10.366-4.516 20.893-10.828 27.621-15.784l-9.012-2.971c-8.199-2.703-13.738-10.361-13.738-18.995v-62.534z" fill="#ffb09e"/><g><path d="m78 425.75h75v30h-75z" fill="#eaf6ff"/></g><path d="m359 508.25h65c5.523 0 10-4.478 10-10v-42.5h-75z" fill="#ffcebf"/><path d="m404 508.25h20c5.523 0 10-4.478 10-10v-42.5h-30z" fill="#ffb09e"/><path d="m153 508.25h-65c-5.523 0-10-4.478-10-10v-42.5h75z" fill="#ffcebf"/><g><path d="m359 425.75h75v30h-75z" fill="#eaf6ff"/></g><path d="m404 425.75h30v30h-30z" fill="#d8ecfe"/><path d="m193.619 133.39c-7.116.499-12.621 6.425-12.621 13.558v39.664c0 41.42 33.566 74.999 74.972 74.999 3.882 0 7.695-.295 11.417-.864 5.493-.84 10.79-17.276 15.823-19.24s9.801 10.543 14.238 7.59c20.189-13.438 33.493-36.407 33.493-62.484v-40.041c0-6.747-4.938-12.516-11.621-13.45-6.675-.932-14.952-3.084-23.511-7.842-9.443-5.249-15.896-11.819-19.985-16.939-1.955-2.449-5.502-2.949-8.068-1.148-7.142 5.013-15.967 10.262-26.517 14.769-17.856 7.629-34.518 10.51-47.62 11.428z" fill="#ffcebf"/><path d="m319.321 133.123c-6.675-.932-14.952-3.084-23.511-7.842-9.443-5.25-15.896-11.818-19.985-16.939-1.955-2.449-5.502-2.949-8.068-1.148-4.254 2.986-9.118 6.052-14.575 8.999 3.427 3.125 7.599 6.294 12.627 9.089 8.559 4.758 16.836 6.91 23.511 7.842 6.683.933 11.621 6.702 11.621 13.45v40.041c.234 4.645 1 28.975-17.154 47.747-17.106 17.688-44.241 23.44-69.287 14.738 6.9 4.458 18.494 10.545 33.861 12.131 0 0 3.922.383 7.609.383 41.406 0 74.972-33.578 74.972-74.999v-40.041c-.001-6.749-4.939-12.518-11.621-13.451z" fill="#ffb09e"/><path d="m360.941 251.672c-16.569 0-30-13.431-30-30v-117.923c33.137 0 60 26.863 60 60v57.923c0 16.569-13.431 30-30 30z" fill="#d1a4a5"/><path d="m330.941 103.749v8.047c17.929 10.375 30 29.749 30 51.953v57.923c0 11.102-6.036 20.789-15 25.976 4.414 2.555 9.534 4.023 15 4.023 16.569 0 30-13.431 30-30v-57.923c0-33.136-26.863-59.999-60-59.999z" fill="#c59191"/><path d="m150.998 251.672c16.569 0 30-13.431 30-30v-117.923c-33.137 0-60 26.863-60 60v57.923c0 16.569 13.431 30 30 30z" fill="#d1a4a5"/><path d="m180.998 103.749c-10.933 0-21.173 2.938-30 8.047v109.876c0 11.102-6.036 20.789-15 25.976 4.414 2.555 9.534 4.023 15 4.023 16.569 0 30-13.431 30-30z" fill="#c59191"/><g fill="#eaf6ff"><g><circle cx="504.5" cy="88.75" r="7.5"/><circle cx="459.5" cy="193.75" r="7.5"/></g><g><circle cx="7.5" cy="88.75" r="7.5"/><circle cx="52.5" cy="193.75" r="7.5"/></g><circle cx="421.553" cy="63.158" r="7.5"/><circle cx="466.553" cy="318.158" r="7.5"/><circle cx="46.553" cy="318.158" r="7.5"/><circle cx="76.553" cy="48.158" r="7.5"/></g><path d="m241 508.25v-196.61c5.35 1.561 10.38 2.78 15 3.74 4.43-.64 9.48-1.57 15-2.979v195.85h-30z" fill="#eaf6ff"/><g><g><path d="m213.389 178.118c-4.143 0-7.5-3.357-7.5-7.5v-17.046c0-4.143 3.357-7.5 7.5-7.5s7.5 3.357 7.5 7.5v17.046c0 4.143-3.358 7.5-7.5 7.5z" fill="#685e68"/></g><g><path d="m298.55 178.118c-4.143 0-7.5-3.357-7.5-7.5v-17.046c0-4.143 3.357-7.5 7.5-7.5s7.5 3.357 7.5 7.5v17.046c0 4.143-3.358 7.5-7.5 7.5z" fill="#685e68"/></g><g><path d="m255.971 232.428c-.15 0-.3-.001-.45-.002-8.885-.093-15.885-2.932-20.192-5.297-3.631-1.993-4.958-6.553-2.965-10.184s6.553-4.958 10.184-2.965c2.803 1.539 7.355 3.386 13.13 3.445 6.081.073 10.789-1.839 13.717-3.446 3.632-1.991 8.19-.664 10.184 2.967 1.992 3.631.665 8.19-2.967 10.184-4.427 2.429-11.577 5.298-20.641 5.298z" fill="#ffb09e"/></g></g><g><path d="m153 508.25c-4.143 0-7.5-3.357-7.5-7.5v-93.73c0-4.143 3.357-7.5 7.5-7.5s7.5 3.357 7.5 7.5v93.73c0 4.143-3.357 7.5-7.5 7.5z" fill="#8ddaa7"/></g><g><path d="m359 508.25c-4.143 0-7.5-3.357-7.5-7.5v-93.73c0-4.143 3.357-7.5 7.5-7.5s7.5 3.357 7.5 7.5v93.73c0 4.143-3.357 7.5-7.5 7.5z" fill="#8ddaa7"/></g></g></g></svg>