<svg id="Layer_1" enable-background="new 0 0 512 512" height="512" viewBox="0 0 512 512" width="512" xmlns="http://www.w3.org/2000/svg"><g><path d="m436.646 501.851v-145.231c0-26.284-16.865-49.601-41.827-57.83l-82.76-27.283c-8.321-2.743-13.942-10.516-13.942-19.277v-63.464h-84.234v63.464c0 8.761-5.622 16.534-13.942 19.277l-82.76 27.283c-24.962 8.229-41.827 31.547-41.827 57.83v145.231c0 5.605 4.544 10.149 10.149 10.149h340.995c5.604 0 10.148-4.544 10.148-10.149z" fill="#b0e6a0"/><g><path d="m394.819 298.79-82.76-27.283c-8.321-2.743-13.942-10.515-13.942-19.277v-63.464l-30.446 15.223v63.464c0 8.762 5.622 16.534 13.942 19.277l82.76 27.283c24.962 8.229 41.827 31.546 41.827 57.831v140.156h20.297c5.605 0 10.149-4.544 10.149-10.149v-145.231c0-26.284-16.865-49.601-41.827-57.83z" fill="#8ddaa7"/></g><path d="m254.511 303.056 44.131-46.232c-.345-1.484-10.526-3.024-10.526-4.595v-63.464h-74.234v63.464c0 2.953-.639 5.794-1.804 8.367z" fill="#ffcebf"/><path d="m267.671 267.452c0 5.809 2.481 11.172 6.571 14.935l24.4-25.562c-.344-1.498-.526-4.596-.526-4.596v-63.464l-30.446 15.223v63.464z" fill="#ffb09e"/><path d="m360.531 512h65.966c5.605 0 10.149-4.544 10.149-10.149v-53.611h-76.115z" fill="#ffcebf"/><path d="m406.2 448.24v53.612c0 5.605-4.544 10.149-10.149 10.149h30.446c5.605 0 10.149-4.544 10.149-10.149v-53.612z" fill="#ffb09e"/><path d="m151.469 512h-65.967c-5.605 0-10.149-4.544-10.149-10.149v-53.611h76.115v63.76z" fill="#ffcebf"/><g><path d="m360.531 512c-4.204 0-7.612-3.407-7.612-7.612v-71.372c0-4.204 3.407-7.611 7.612-7.611s7.611 3.407 7.611 7.611v71.372c.001 4.205-3.407 7.612-7.611 7.612z" fill="#8ddaa7"/></g><g><path d="m151.469 512c-4.204 0-7.611-3.407-7.611-7.612v-71.372c0-4.204 3.408-7.611 7.611-7.611 4.204 0 7.611 3.407 7.611 7.611v71.372c0 4.205-3.408 7.612-7.611 7.612z" fill="#8ddaa7"/></g><g><path d="m177.195 279.005 44.758 44.78c3.269 3.272 8.57 3.272 11.839 0l20.718-20.728-42.445-42.466c-2.292 5.061-6.609 9.097-12.125 10.916z" fill="#355f7f"/><path d="m287.069 323.785 45.496-45.518-20.506-6.76c-6.828-2.252-11.832-7.892-13.41-14.684l-44.138 46.234 20.719 20.728c3.269 3.271 8.57 3.271 11.839 0z" fill="#355f7f"/><path d="m298.894 257.74c-.086-.305-.173-.609-.244-.918l-24.406 25.565c2.079 1.912 4.566 3.417 7.37 4.342l31.962 10.537 18.99-19-20.506-6.76c-5.856-1.934-11.178-6.702-13.166-13.766z" fill="#305972"/></g><path d="m211.334 303.147c-13.929-10.388-22.634-25.564-22.421-42.446.391-30.901 31.295-55.981 68.27-55.447 36.51.528 65.907 25.42 65.907 56.054 0 16.666-8.692 31.626-22.495 41.891-4.882 3.631-7.575 8.891-7.575 14.353 0 16.876 23.897 25.683 38.919 14.404 23.051-17.308 37.583-42.381 37.702-70.301.221-51.781-49.986-94.543-111.946-95.298-63.535-.774-115.337 42.038-115.337 94.952 0 28.119 14.619 53.375 37.852 70.758 14.974 11.204 38.77 2.278 38.77-14.518 0-5.488-2.746-10.748-7.646-14.402z" fill="#eaf6ff"/><g fill="#c4e2ff"><path d="m211.334 303.147c-13.929-10.388-22.634-25.564-22.421-42.446.332-26.208 22.616-48.221 51.934-53.979-4.545-.885-9.262-1.397-14.11-1.467-36.975-.535-67.879 24.546-68.27 55.446-.214 16.882 8.491 32.057 22.421 42.446 4.9 3.654 7.646 8.915 7.646 14.402 0 6.175-3.223 11.28-8.035 14.719 14.989 10.881 38.481 1.971 38.481-14.719 0-5.488-2.746-10.748-7.646-14.402z"/><path d="m257.695 166.357c-5.76-.07-11.421.222-16.958.843 55.595 6.268 98.662 46.489 98.458 94.454-.119 27.921-14.651 52.993-37.702 70.301-.144.108-.295.202-.441.307 8.309 5.916 21.374 6.835 30.887-.307 23.051-17.308 37.583-42.381 37.702-70.301.221-51.781-49.986-94.543-111.946-95.297z"/></g><g><path d="m332.056 116.708c-50.724 0-101.449 0-152.173 0-3.699-7.339-19.511-40.635-5.301-73.415 2.96-6.827 7.761-17.615 18.811-24.722 19.812-12.741 41.561-.815 69.051 1.446 18.625 1.532 45.319-.855 79.228-19.258 2.895-1.571 6.517-.631 8.287 2.148 11.664 18.321 13.062 52.583 12.44 56.629-4.286 27.85-20.413 47.257-30.343 57.172z" fill="#355f7f"/><g><path d="m349.959 2.907c-1.769-2.779-5.392-3.719-8.287-2.148-6.47 3.511-12.675 6.436-18.613 8.865 8.4 18.925 9.446 46.32 8.894 49.912-4.286 27.85-20.413 47.257-30.343 57.172h30.446c9.93-9.916 26.057-29.322 30.343-57.172.622-4.045-.775-38.308-12.44-56.629z" fill="#305972"/></g><path d="m332.056 116.709c-4.033-7.587-10.865-17.289-21.822-20.546-13.146-3.907-20.029 5.091-37.889 5.031-20.309-.068-25.115-11.75-41.494-13.034-11.776-.923-28.782 3.588-50.968 28.549v53.65c0 42.036 34.065 76.113 76.086 76.113 3.979 0 7.887-.306 11.702-.895 5.564-.859 10.929-17.321 16.027-19.318 5.097-1.996 9.927 10.473 14.42 7.477 20.459-13.643 33.938-36.936 33.938-63.377z" fill="#ffcebf"/><g><path d="m310.233 96.163c-8.995-2.674-15.059.694-23.711 3.068 7.127 4.434 11.956 11.588 15.087 17.478v53.649c.238 4.714 1.014 29.405-17.409 48.456-17.36 17.95-44.898 23.79-70.317 14.958 8.059 5.152 19.721 10.801 34.364 12.311 2.685.277 5.264.393 7.722.389 42.021 0 76.086-34.077 76.086-76.114v-53.649c-4.032-7.587-10.865-17.29-21.822-20.546z" fill="#ffb09e"/></g><g><g><path d="m218.079 159.258c-.064 0-.129-.001-.194-.001-7.331-.055-12.674-3.199-15.207-5.068-3.382-2.497-4.1-7.263-1.603-10.644 2.497-3.383 7.263-4.099 10.644-1.604 1.046.772 3.252 2.071 6.278 2.093.027 0 .054.001.08.001 2.969 0 5.156-1.237 6.2-1.978 3.426-2.433 8.178-1.629 10.613 1.799 2.434 3.428 1.628 8.179-1.799 10.613-2.527 1.795-7.823 4.789-15.012 4.789z" fill="#554e56"/></g><g><path d="m294.194 159.258c-.064 0-.129-.001-.193-.001-7.331-.055-12.674-3.199-15.206-5.068-3.383-2.497-4.1-7.263-1.604-10.644 2.497-3.383 7.264-4.099 10.644-1.604 1.047.772 3.253 2.071 6.279 2.093 2.997.031 5.225-1.228 6.276-1.975 3.428-2.436 8.179-1.631 10.613 1.795 2.435 3.427 1.631 8.178-1.795 10.613-2.526 1.796-7.82 4.791-15.014 4.791z" fill="#554e56"/></g></g><g><path d="m255.973 213.054c-.135 0-.269-.001-.404-.002-6.25-.065-12.456-1.693-17.947-4.706-3.685-2.023-5.033-6.65-3.01-10.335 2.022-3.686 6.648-5.033 10.335-3.011 2.301 1.264 6.04 2.78 10.781 2.829 4.981.046 8.858-1.508 11.262-2.828 3.686-2.023 8.312-.675 10.334 3.01 2.023 3.685.676 8.312-3.01 10.334-3.931 2.159-10.283 4.709-18.341 4.709z" fill="#ffb09e"/></g></g><g fill="#355f7f"><circle cx="256" cy="379.56" r="7.611"/><circle cx="256" cy="426.244" r="7.611"/><circle cx="256" cy="473.943" r="7.611"/></g><g><path d="m342.6 160.657h-10.544v-40.524h10.544c11.19 0 20.262 9.072 20.262 20.262 0 11.19-9.072 20.262-20.262 20.262z" fill="#ffcebf"/><path d="m169.338 160.657h10.544v-40.524h-10.544c-11.19 0-20.262 9.072-20.262 20.262 0 11.19 9.072 20.262 20.262 20.262z" fill="#ffb09e"/></g></g></svg>