<svg id="Layer_1" enable-background="new 0 0 512 512" height="512" viewBox="0 0 512 512" width="512" xmlns="http://www.w3.org/2000/svg"><g><path d="m362.532 298.661h-213.064v-192.129c0-58.836 47.696-106.532 106.532-106.532 58.836 0 106.532 47.696 106.532 106.532z" fill="#355f7f"/><path d="m256 0c-5.17 0-10.251.376-15.223 1.087 51.624 7.388 91.309 51.778 91.309 105.445v192.129h30.446v-192.129c0-58.836-47.696-106.532-106.532-106.532z" fill="#305972"/><g><path d="m342.631 162.851h-10.544v-40.524h10.544c11.19 0 20.262 9.072 20.262 20.262 0 11.19-9.072 20.262-20.262 20.262z" fill="#ffcebf"/><path d="m169.369 162.851h10.544v-40.524h-10.544c-11.19 0-20.262 9.072-20.262 20.262 0 11.19 9.072 20.262 20.262 20.262z" fill="#ffb09e"/></g><path d="m436.646 501.851v-145.231c0-26.284-16.865-49.601-41.827-57.83l-82.76-27.283c-8.321-2.743-13.942-10.516-13.942-19.277v-63.464h-84.234v63.464c0 8.761-5.622 16.534-13.942 19.277l-82.76 27.283c-24.962 8.229-41.827 31.547-41.827 57.83v145.231c0 5.605 4.544 10.149 10.149 10.149h340.995c5.604 0 10.148-4.544 10.148-10.149z" fill="#aca6d6"/><g><path d="m274.232 282.397c2.079 1.912 4.577 3.408 7.381 4.332l82.76 27.283c24.962 8.229 41.827 31.546 41.827 57.831v140.157h20.297c5.605 0 10.149-4.544 10.149-10.149v-145.231c0-26.284-16.865-49.602-41.827-57.831l-82.76-27.283c-6.828-2.251-11.839-7.889-13.417-14.682z" fill="#978ecb"/></g><path d="m254.511 303.056 44.131-46.232c-.345-1.484-10.526-3.024-10.526-4.595v-63.464h-74.234v63.464c0 2.953-.639 5.794-1.804 8.367z" fill="#ffcebf"/><path d="m267.671 267.452c0 5.809 2.481 11.172 6.571 14.935l24.4-25.562c-.344-1.498-.526-4.596-.526-4.596v-63.464l-30.446 15.223v63.464z" fill="#ffb09e"/><path d="m360.531 512h65.966c5.605 0 10.149-4.544 10.149-10.149v-53.611h-76.115z" fill="#ffcebf"/><path d="m406.2 448.24v53.612c0 5.605-4.544 10.149-10.149 10.149h30.446c5.605 0 10.149-4.544 10.149-10.149v-53.612z" fill="#ffb09e"/><path d="m151.469 512h-65.967c-5.605 0-10.149-4.544-10.149-10.149v-53.611h76.115v63.76z" fill="#ffcebf"/><g><path d="m360.531 512c-4.204 0-7.612-3.407-7.612-7.612v-71.372c0-4.204 3.407-7.611 7.612-7.611s7.612 3.407 7.612 7.611v71.372c0 4.205-3.408 7.612-7.612 7.612z" fill="#978ecb"/></g><g><path d="m151.469 512c-4.204 0-7.611-3.407-7.611-7.612v-71.372c0-4.204 3.408-7.611 7.611-7.611 4.204 0 7.611 3.407 7.611 7.611v71.372c0 4.205-3.408 7.612-7.611 7.612z" fill="#978ecb"/></g><g><path d="m177.195 279.005 44.758 44.78c3.269 3.272 8.57 3.272 11.839 0l20.718-20.728-42.445-42.466c-2.292 5.061-6.609 9.097-12.125 10.916z" fill="#978ecb"/><path d="m287.069 323.785 45.496-45.518-20.506-6.76c-6.828-2.252-11.832-7.892-13.41-14.684l-44.138 46.234 20.719 20.728c3.269 3.271 8.57 3.271 11.839 0z" fill="#978ecb"/><path d="m298.894 257.74c-.086-.305-.173-.609-.244-.918l-24.406 25.565c2.079 1.912 4.566 3.417 7.37 4.342l31.962 10.537 18.99-19-20.506-6.76c-5.856-1.934-11.178-6.702-13.166-13.766z" fill="#8379c1"/></g><path d="m211.334 303.147c-13.929-10.388-22.634-25.564-22.421-42.446.391-30.9 31.295-55.981 68.27-55.447 36.51.528 65.907 25.42 65.907 56.054 0 16.666-8.692 31.626-22.495 41.891-4.882 3.631-7.575 8.891-7.575 14.353 0 16.876 23.897 25.683 38.919 14.404 23.051-17.308 37.583-42.381 37.702-70.301.221-51.781-49.986-94.543-111.946-95.298-63.535-.774-115.337 42.038-115.337 94.952 0 28.119 14.619 53.375 37.852 70.758 14.974 11.204 38.77 2.278 38.77-14.518 0-5.488-2.746-10.748-7.646-14.402z" fill="#eaf6ff"/><g fill="#c4e2ff"><path d="m211.334 303.147c-13.929-10.388-22.634-25.564-22.421-42.446.332-26.208 22.616-48.221 51.934-53.979-4.545-.885-9.262-1.397-14.11-1.467-36.975-.535-67.879 24.546-68.27 55.446-.214 16.882 8.491 32.057 22.421 42.446 4.9 3.654 7.646 8.915 7.646 14.402 0 6.175-3.223 11.28-8.035 14.719 14.989 10.881 38.481 1.971 38.481-14.719 0-5.488-2.746-10.748-7.646-14.402z"/><path d="m257.695 166.357c-5.76-.07-11.421.222-16.958.843 55.595 6.268 98.662 46.489 98.458 94.454-.119 27.921-14.651 52.993-37.702 70.301-.144.108-.295.202-.441.307 8.309 5.916 21.374 6.835 30.887-.307 23.051-17.308 37.583-42.381 37.702-70.301.221-51.781-49.986-94.543-111.946-95.297z"/></g><g fill="#978ecb"><circle cx="256" cy="379.56" r="7.611"/><circle cx="256" cy="426.244" r="7.611"/><circle cx="256" cy="473.943" r="7.611"/></g><path d="m332.085 119.44v50.916c0 21.018-8.515 40.047-22.286 53.818-3.56 3.562-7.472 6.774-11.68 9.577-4.312 2.873-8.933-9.683-13.804-7.727-5.262 2.112-10.815 18.654-16.581 19.547-3.824.593-7.743.9-11.733.9-15.568 0-30.05-4.679-42.107-12.717h-.01c-20.48-13.64-33.968-36.942-33.968-63.398v-49.699c0-2.181 1.715-3.967 3.897-4.059 11.59-.477 46.653-2.973 72.756-15.994 5.927-2.953 11.336-6.13 16.238-9.397 7.51-4.962 13.833-10.108 19.029-14.868 2.294-2.1 5.988-.984 6.688 2.03 1.39 5.998 4.323 14.076 10.636 21.86 7.084 8.718 15.314 13.255 20.48 15.487 1.491.649 2.445 2.11 2.445 3.724z" fill="#ffcebf"/><path d="m332.085 119.44v50.916c0 21.018-8.515 40.047-22.286 53.818-13.762 13.772-32.79 22.297-53.798 22.297-15.568 0-30.05-4.679-42.107-12.717 25.422 8.849 52.966 3.014 70.34-14.939 18.42-19.05 17.648-43.741 17.405-48.46v-50.915c0-1.614-.954-3.075-2.446-3.725-5.166-2.232-13.396-6.769-20.48-15.487-2.436-3.014-4.364-6.058-5.906-9.022 7.51-4.962 13.833-10.108 19.029-14.868 2.294-2.1 5.988-.984 6.688 2.03 1.39 5.998 4.323 14.076 10.636 21.86 7.084 8.718 15.314 13.255 20.48 15.487 1.491.65 2.445 2.111 2.445 3.725z" fill="#ffb09e"/><g><g><g><path d="m218.079 166.302c-.064 0-.129-.001-.193-.001-7.331-.055-12.674-3.199-15.206-5.068-3.383-2.497-4.1-7.263-1.604-10.644 2.497-3.383 7.265-4.1 10.644-1.604 1.047.772 3.253 2.071 6.278 2.093 2.989-.021 5.224-1.228 6.277-1.975 3.428-2.436 8.178-1.631 10.613 1.795 2.435 3.427 1.631 8.178-1.795 10.613-2.526 1.796-7.82 4.791-15.014 4.791z" fill="#554e56"/></g><g><path d="m294.194 166.302c-.064 0-.129-.001-.193-.001-7.331-.055-12.674-3.199-15.206-5.068-3.383-2.497-4.1-7.263-1.604-10.644 2.498-3.383 7.264-4.1 10.644-1.604 1.047.772 3.253 2.071 6.279 2.093 3.021-.021 5.225-1.228 6.276-1.975 3.429-2.436 8.178-1.631 10.613 1.795 2.435 3.427 1.631 8.178-1.795 10.613-2.526 1.796-7.82 4.791-15.014 4.791z" fill="#554e56"/></g></g><g><path d="m255.969 220.098c-.133 0-.265-.001-.398-.002-6.251-.066-12.457-1.694-17.946-4.706-3.686-2.022-5.034-6.649-3.012-10.334 2.021-3.687 6.648-5.035 10.334-3.012 2.302 1.263 6.042 2.779 10.784 2.829 4.914.079 8.857-1.51 11.263-2.83 3.685-2.019 8.312-.672 10.334 3.014 2.021 3.686.672 8.312-3.014 10.334-3.935 2.158-10.289 4.707-18.345 4.707z" fill="#ffb09e"/></g></g></g></svg>