<svg id="Layer_1" enable-background="new 0 0 512 512" height="512" viewBox="0 0 512 512" width="512" xmlns="http://www.w3.org/2000/svg"><g><g><path d="m76.481 319.791c-4.143 0-7.5-3.357-7.5-7.5v-30c0-4.143 3.357-7.5 7.5-7.5s7.5 3.357 7.5 7.5v30c0 4.143-3.357 7.5-7.5 7.5z" fill="#355f7f"/></g><path d="m-7.755 394.005h167v46.49h-167z" fill="#355f7f" transform="matrix(0 -1 1 0 -341.505 492.995)"/><path d="m352.755 394.005h167v46.49h-167z" fill="#355f7f" transform="matrix(0 -1 1 0 19.005 853.505)"/><path d="m494.5 383.713h-477c-5.523 0-10-4.477-10-10v-51.49c0-5.523 4.477-10 10-10h477c5.523 0 10 4.477 10 10v51.49c0 5.522-4.477 10-10 10z" fill="#c59191"/><path d="m494.5 312.223h-30c5.523 0 10 4.478 10 10v51.49c0 5.522-4.477 10-10 10h30c5.523 0 10-4.478 10-10v-51.49c0-5.523-4.477-10-10-10z" fill="#b98080"/><path d="m312.41 282.29h170.09c12.15 0 22-9.85 22-22v-92.49c0-12.15-9.85-22-22-22h-206.93-129.14-116.93c-12.15 0-22 9.85-22 22v92.49c0 12.15 9.85 22 22 22h80.09z" fill="#c59191"/><path d="m482.5 145.801h-30c12.15 0 22 9.851 22 22v92.49c0 12.15-9.85 22-22 22h30c12.15 0 22-9.85 22-22v-92.49c0-12.15-9.85-22-22-22z" fill="#b98080"/><g><path d="m109.589 317.347v-129.727c0-16.356 9.958-31.065 25.144-37.139l37.283-14.913c7.593-3.037 12.572-10.391 12.572-18.57v-16.459h52.821v16.459c0 8.178 4.979 15.532 12.572 18.57l37.283 14.913c15.186 6.075 25.144 20.783 25.144 37.139v129.726c0 10.355-8.395 33.75-18.75 33.75l-18.75-30h-127.819l-18.75 30c-10.355.001-18.75-23.394-18.75-33.749z" fill="#b0e6a0"/><path d="m162.089 336.097v-115.558c0-4.143-3.357-7.5-7.5-7.5s-7.5 3.357-7.5 7.5v115.558z" fill="#8ddaa7"/><path d="m274.911 336.097v-115.558c0-4.143-3.357-7.5-7.5-7.5s-7.5 3.357-7.5 7.5v115.558z" fill="#8ddaa7"/><g><path d="m231.692 150.752 36.825 14.73c15.186 6.074 25.144 20.783 25.144 37.139v133.476c10.355 0 18.75-8.395 18.75-18.75v-129.727c0-16.356-9.958-31.064-25.144-37.139l-35.082-14.033z" fill="#8ddaa7"/></g><path d="m312.411 332.347v-21.808h-37.5v21.808c0 10.355 8.395 18.75 18.75 18.75 10.355 0 18.75-8.395 18.75-18.75z" fill="#ffcebf"/><path d="m293.661 351.097c10.355 0 18.75-8.395 18.75-18.75v-21.808h-18.75z" fill="#ffb09e"/><path d="m128.339 351.097c10.355 0 18.75-8.395 18.75-18.75v-21.808h-37.5v21.808c0 10.355 8.395 18.75 18.75 18.75z" fill="#ffcebf"/><path d="m147.09 280.539h127.82v60h-127.82z" fill="#b2caec"/><path d="m244.78 280.539h30.13v60h-30.13z" fill="#82aee3"/><g><g><path d="m274.911 485.75h-48.911v-150.756c0-13.506 10.949-24.455 24.455-24.455 13.506 0 24.455 10.949 24.455 24.455v150.756z" fill="#82aee3"/><path d="m250.455 310.539c-5.655 0-10.857 1.925-15 5.147 5.751 4.475 9.455 11.457 9.455 19.308v150.756h30v-150.756c.001-13.506-10.948-24.455-24.455-24.455z" fill="#528fd8"/><path d="m274.382 500.75h-47.852c-4.434 0-8.029-3.595-8.029-8.029 0-12.134 9.837-21.971 21.971-21.971h19.969c12.134 0 21.971 9.837 21.971 21.971-.001 4.434-3.596 8.029-8.03 8.029z" fill="#685e68"/><path d="m260.44 470.75h-19.969c-1.726 0-3.404.205-5.015.582 9.716 2.27 16.955 10.98 16.955 21.389 0 4.435-3.595 8.029-8.029 8.029h30c4.434 0 8.029-3.595 8.029-8.029 0-12.134-9.837-21.971-21.971-21.971z" fill="#554e56"/></g><g><path d="m196 485.75h-48.911v-150.756c0-13.506 10.949-24.455 24.455-24.455 13.506 0 24.455 10.949 24.455 24.455v150.756z" fill="#82aee3"/><path d="m171.545 310.539c-5.655 0-10.857 1.925-15 5.147 5.751 4.475 9.455 11.457 9.455 19.308v150.756h30v-150.756c0-13.506-10.949-24.455-24.455-24.455z" fill="#528fd8"/><path d="m195.471 500.75h-47.852c-4.434 0-8.029-3.595-8.029-8.029 0-12.134 9.837-21.971 21.971-21.971h19.969c12.134 0 21.971 9.837 21.971 21.971-.001 4.434-3.596 8.029-8.03 8.029z" fill="#685e68"/><path d="m181.529 470.75h-19.969c-1.726 0-3.404.205-5.015.582 9.716 2.27 16.955 10.98 16.955 21.389 0 4.435-3.595 8.029-8.029 8.029h30c4.435 0 8.029-3.595 8.029-8.029 0-12.134-9.837-21.971-21.971-21.971z" fill="#554e56"/></g></g><path d="m211 154.75c16.34 0 31.028-7.064 41.185-18.301l-12.202-.881c-7.593-3.037-12.572-10.391-12.572-18.569v-16.459h-42.822v16.459c0 8.178-4.979 15.532-12.572 18.569l-2.202.881c10.157 11.237 24.845 18.301 41.185 18.301z" fill="#ffcebf"/><path d="m231.233 150.568.459.184c7.888-3.174 14.884-8.097 20.493-14.303-3.163-1.148-6.07-2.615-8.482-4.887-3.938-3.709-6.292-8.941-6.292-14.564v-16.459h-18.75v31.459c0 8.179 4.979 15.532 12.572 18.57z" fill="#ffb09e"/><path d="m211 114.744c-23.524 0-42.593-19.07-42.593-42.593v-43.401c0-13.807 11.193-25 25-25h35.186c13.807 0 25 11.193 25 25v43.401c0 13.547-6.324 25.616-16.181 33.417-2.363 1.87-4.93-11.505-7.661-10.163-3.459 1.699-7.182 17.942-11.091 18.652-2.484.452-5.045.687-7.66.687z" fill="#ffcebf"/><path d="m228.593 3.75h-30c13.807 0 25 11.193 25 25v43.401c.217 2.015 1.359 14.53-7.751 24.499-7.681 8.404-19.722 11.796-31.253 8.908 3.183 2.487 9.083 6.418 17.402 8.227 0 0 4.562.959 9.008.959 23.523 0 42.593-19.069 42.593-42.593v-43.401c.001-13.807-11.192-25-24.999-25z" fill="#ffb09e"/><path d="m253.593 48.957v-20.207c0-13.807-11.193-25-25-25h-35.186c-13.807 0-25 11.193-25 25v20.203l.003.006 53.011-12.813c5.78-1.396 11.879-.354 16.867 2.883l15.302 9.93z" fill="#355f7f"/><path d="m228.593 3.75h-30c13.807 0 25 11.193 25 25v6.988c5.11-.694 10.329.457 14.695 3.291l15.302 9.93.003-.002v-20.207c0-13.807-11.193-25-25-25z" fill="#305972"/></g><g><path d="m504.5 508.25h-497c-4.143 0-7.5-3.357-7.5-7.5s3.357-7.5 7.5-7.5h497c4.143 0 7.5 3.357 7.5 7.5s-3.357 7.5-7.5 7.5z" fill="#c59191"/></g><g><g><g><path d="m433.659 247.839h-49.789c-4.143 0-7.5-3.357-7.5-7.5v-35.153c0-9.649 7.851-17.5 17.5-17.5h29.789c9.649 0 17.5 7.851 17.5 17.5v35.153c0 4.142-3.357 7.5-7.5 7.5zm-42.289-15h34.789v-27.653c0-1.379-1.121-2.5-2.5-2.5h-29.789c-1.379 0-2.5 1.121-2.5 2.5z" fill="#355f7f"/></g><path d="m458.945 312.223h-100.36c-8.591 0-15.555-6.964-15.555-15.555v-55.773c0-8.591 6.964-15.555 15.555-15.555h100.359c8.591 0 15.555 6.964 15.555 15.555v55.773c.001 8.59-6.963 15.555-15.554 15.555z" fill="#f6a96c"/><path d="m458.945 225.339h-30c8.591 0 15.555 6.964 15.555 15.555v55.773c0 8.591-6.964 15.556-15.555 15.556h30c8.591 0 15.555-6.965 15.555-15.556v-55.773c0-8.591-6.964-15.555-15.555-15.555z" fill="#ea9b58"/></g></g></g></svg>