<svg id="Layer_1" enable-background="new 0 0 512 512" height="512" viewBox="0 0 512 512" width="512" xmlns="http://www.w3.org/2000/svg"><g><g><path d="m429.624 501.851v-373.834c0-8.407-6.816-15.223-15.223-15.223h-15.223c-8.407 0-15.223 6.816-15.223 15.223v373.834c0 5.605 4.544 10.149 10.149 10.149h25.372c5.604 0 10.148-4.544 10.148-10.149z" fill="#c59191"/><path d="m414.401 112.794h-15.223c-2.776 0-5.371.755-7.612 2.054 4.546 2.633 7.612 7.538 7.612 13.169v373.835c0 4.727-3.237 8.688-7.612 9.816.812.21 1.659.333 2.537.333h25.372c5.605 0 10.149-4.544 10.149-10.149v-373.835c0-8.407-6.816-15.223-15.223-15.223z" fill="#b98080"/><path d="m461.592 212.14h-129.441c-1.613 0-3.178-.549-4.438-1.557l-21.566-17.253c-3.555-2.844-3.555-8.251 0-11.095l21.566-17.253c1.26-1.008 2.825-1.557 4.438-1.557h129.441c3.923 0 7.104 3.181 7.104 7.104v34.505c0 3.925-3.18 7.106-7.104 7.106z" fill="#355f7f"/><path d="m461.592 163.426h-30.446c3.923 0 7.104 3.18 7.104 7.104v34.505c0 3.924-3.181 7.104-7.104 7.104h30.446c3.923 0 7.104-3.18 7.104-7.104v-34.505c0-3.923-3.18-7.104-7.104-7.104z" fill="#305972"/><path d="m351.987 303.478h129.441c1.613 0 3.178-.549 4.438-1.557l21.566-17.253c3.555-2.844 3.555-8.251 0-11.095l-21.566-17.253c-1.26-1.008-2.825-1.557-4.438-1.557h-129.441c-3.923 0-7.104 3.181-7.104 7.104v34.505c-.001 3.925 3.18 7.106 7.104 7.106z" fill="#355f7f"/><path d="m507.431 273.574-21.566-17.253c-1.26-1.008-2.825-1.557-4.438-1.557h-30.446c1.613 0 3.178.549 4.438 1.557l21.566 17.253c3.555 2.844 3.555 8.251 0 11.094l-21.566 17.253c-1.26 1.008-2.825 1.557-4.438 1.557h30.446c1.613 0 3.178-.549 4.438-1.557l21.566-17.253c3.555-2.843 3.555-8.25 0-11.094z" fill="#305972"/></g><g><path d="m288.492.083c-34.194 1.659-62.201 28.832-64.814 62.967-1.166 15.228 2.667 29.495 10.016 41.357.747 1.206.868 2.697.373 4.026l-8.554 22.948c-.989 2.653.973 5.477 3.804 5.477h55.657 5.903c38.404 0 70.073-31.176 69.443-69.575-.63-38.389-32.873-69.09-71.828-67.2z" fill="#eaf6ff"/><path d="m288.492.083c-4.036.195-7.982.758-11.814 1.634 30.104 6.842 52.67 33.516 53.196 65.566.63 38.398-31.039 69.575-69.443 69.575h24.543 5.903c38.404 0 70.073-31.176 69.443-69.575-.63-38.389-32.873-69.09-71.828-67.2z" fill="#d8ecfe"/><g><g><path d="m291.901 94.918c-4.204 0-7.611-3.407-7.611-7.611v-24.269c0-4.204 3.408-7.611 7.611-7.611 5.637 0 10.223-4.586 10.223-10.223s-4.586-10.223-10.223-10.223-10.223 4.586-10.223 10.223c0 4.204-3.408 7.611-7.612 7.611s-7.611-3.407-7.611-7.611c0-14.031 11.415-25.446 25.446-25.446s25.446 11.415 25.446 25.446c0 11.381-7.51 21.041-17.834 24.283v17.82c-.001 4.203-3.408 7.611-7.612 7.611z" fill="#355f7f"/></g><g><circle cx="291.901" cy="109.489" fill="#355f7f" r="7.611"/></g></g></g><g><path d="m158.093 255.248h-109.559c-13.723 0-24.847-11.125-24.847-24.847v-94.558c0-13.723 11.125-24.847 24.847-24.847h109.558c13.723 0 24.847 11.125 24.847 24.847v94.557c.001 13.723-11.123 24.848-24.846 24.848z" fill="#c59191"/><path d="m158.093 110.995h-30c13.723 0 24.847 11.125 24.847 24.847v94.558c0 13.723-11.125 24.847-24.847 24.847h30c13.723 0 24.847-11.125 24.847-24.847v-94.559c0-13.722-11.124-24.846-24.847-24.846z" fill="#b98080"/><g><path d="m1.903 321.789v-122.919c0-16.356 9.958-31.065 25.144-37.139l37.283-14.913c7.593-3.037 12.572-10.391 12.572-18.57v-16.459h52.821v16.459c0 8.178 4.979 15.532 12.572 18.57l37.283 14.913c15.186 6.075 25.144 20.783 25.144 37.139v122.919z" fill="#f58a97"/><g><path d="m204.724 321.789v-122.918c0-16.356-9.958-31.065-25.144-37.139l-35.082-14.033-22.05 14.894 35.347 14.139c15.186 6.074 25.144 20.783 25.144 37.139v107.918z" fill="#f07281"/></g><path d="m204.724 333.039v-11.25h-37.5v11.25c0 10.355 8.395 18.75 18.75 18.75 10.356 0 18.75-8.395 18.75-18.75z" fill="#ffcebf"/><path d="m39.403 333.039v-11.25h-37.5v11.25c0 10.355 8.395 18.75 18.75 18.75 10.355 0 18.75-8.395 18.75-18.75z" fill="#ffcebf"/><path d="m182.94 321.789v29.733c.99.161 1.999.267 3.034.267 10.355 0 18.75-8.395 18.75-18.75v-11.25z" fill="#ffb09e"/><path d="m152.224 497h-97.821l-15-160.211v-30h127.821v30z" fill="#82aee3"/><path d="m39.403 231.789h127.821v75h-127.821z" fill="#f58a97"/><g><path d="m172.453 162.45c-19.73 19.2-27.69 44.97-20.78 67.25 1.92 6.2 4.82 11.49 8.05 15.94v21.98c-8.04-6.96-17.55-17.93-22.37-33.47-8.33-26.86.29-57.38 22.5-80.31l14.42 5.77c-.37 1.04-.97 2.02-1.82 2.84z" fill="#b98080"/><path d="m174.273 159.61-9.59-3.837-4.831-1.932c-5.471 5.648-10.113 11.759-13.884 18.16l11.828 4.731c.764.306 1.511.639 2.248.987 3.389-5.389 7.539-10.529 12.409-15.269.85-.82 1.45-1.8 1.82-2.84z" fill="#ae6c6c"/><path d="m69.273 234.15c-4.82 15.54-14.33 26.51-22.37 33.47v-21.98c3.23-4.45 6.13-9.74 8.05-15.94 6.91-22.28-1.05-48.05-20.78-67.25-.85-.82-1.45-1.8-1.82-2.84l14.42-5.77c22.21 22.94 30.84 53.45 22.5 80.31z" fill="#b98080"/></g><g><path d="m103.314 504.5c-4.142 0-7.5-3.357-7.5-7.5v-124.678c0-4.143 3.358-7.5 7.5-7.5s7.5 3.357 7.5 7.5v124.678c0 4.143-3.358 7.5-7.5 7.5z" fill="#528fd8"/></g><path d="m159.195 512h-47.852c-4.434 0-8.029-3.595-8.029-8.029 0-12.134 9.837-21.971 21.971-21.971h19.969c12.134 0 21.971 9.837 21.971 21.971-.001 4.434-3.595 8.029-8.03 8.029z" fill="#554e56"/><path d="m145.254 482h-19.969c-1.726 0-3.404.206-5.015.582 9.716 2.27 16.955 10.981 16.955 21.389 0 4.435-3.595 8.029-8.029 8.029h30c4.434 0 8.029-3.595 8.029-8.029-.001-12.135-9.837-21.971-21.971-21.971z" fill="#433f43"/><path d="m95.284 512h-47.852c-4.434 0-8.029-3.595-8.029-8.029 0-12.134 9.837-21.971 21.971-21.971h19.969c12.134 0 21.971 9.837 21.971 21.971 0 4.434-3.595 8.029-8.03 8.029z" fill="#554e56"/><path d="m103.314 166c16.34 0 31.028-7.064 41.185-18.301l-12.202-.881c-7.593-3.037-12.572-10.391-12.572-18.569v-16.459h-42.822v16.459c0 8.178-4.979 15.532-12.572 18.569l-2.202.881c10.156 11.237 24.845 18.301 41.185 18.301z" fill="#ffcebf"/><path d="m122.448 162.592c8.525-3.134 16.075-8.283 22.05-14.894-1.581-.633-3.488-1.371-4.922-2.215-6.04-3.554-9.852-10.079-9.852-17.235v-16.459h-21.784v31.459c-.094 8.545 5.991 16.99 14.508 19.344z" fill="#ffb09e"/><path d="m103.314 125.994c-23.524 0-42.593-19.07-42.593-42.593v-43.401c0-13.807 11.193-25 25-25h35.186c13.807 0 25 11.193 25 25v43.401c0 13.606-6.379 25.721-16.31 33.519-2.583 2.028-5.407-11.235-8.421-9.841-4.101 1.897-8.554 18.161-13.235 18.666-1.52.165-3.064.249-4.627.249z" fill="#ffcebf"/><path d="m120.907 15h-30c13.807 0 25 11.193 25 25v43.401c.217 2.014 1.36 14.53-7.751 24.5-7.681 8.405-19.722 11.795-31.253 8.908 3.512 2.73 9.466 6.549 17.64 8.278 3.255.688 6.228.911 8.77.908 23.523 0 42.593-19.07 42.593-42.593v-43.402c.001-13.807-11.192-25-24.999-25z" fill="#ffb09e"/><path d="m60.721 58.5v-18.5c0-13.807 11.193-25 25-25h35.186c13.807 0 25 11.193 25 25v18.5z" fill="#c59191"/><path d="m120.907 15h-30c13.807 0 25 11.193 25 25v18.5h30v-18.5c0-13.807-11.193-25-25-25z" fill="#b98080"/><g><path d="m165.024 66h-123.42c-4.142 0-7.5-3.357-7.5-7.5s3.358-7.5 7.5-7.5h123.42c4.142 0 7.5 3.357 7.5 7.5s-3.358 7.5-7.5 7.5z" fill="#685e68"/></g><path d="m165.024 51h-30c4.142 0 7.5 3.357 7.5 7.5s-3.358 7.5-7.5 7.5h30c4.142 0 7.5-3.357 7.5-7.5s-3.358-7.5-7.5-7.5z" fill="#554e56"/><g><path d="m39.403 306.789v-75c0-4.143 3.358-7.5 7.5-7.5s7.5 3.357 7.5 7.5v75z" fill="#f07281"/></g><g><path d="m152.224 306.789v-75c0-4.143 3.358-7.5 7.5-7.5s7.5 3.357 7.5 7.5v75z" fill="#f07281"/></g><path d="m81.343 482h-19.969c-1.726 0-3.404.206-5.015.582 9.716 2.27 16.955 10.981 16.955 21.389 0 4.435-3.595 8.029-8.029 8.029h30c4.434 0 8.029-3.595 8.029-8.029 0-12.135-9.837-21.971-21.971-21.971z" fill="#433f43"/></g></g></g></svg>