<svg id="Layer_1" enable-background="new 0 0 512 512" height="512" viewBox="0 0 512 512" width="512" xmlns="http://www.w3.org/2000/svg"><g><g><g><g><path d="m417.767 224.656c-4.204 0-7.611-3.407-7.611-7.611v-96.276c0-4.204 3.407-7.611 7.611-7.611s7.612 3.407 7.612 7.611v96.276c0 4.204-3.408 7.611-7.612 7.611z" fill="#eaf6ff"/></g></g><g><path d="m338.204 95.397v-70.025c0-5.605 4.544-10.149 10.149-10.149h138.022c5.605 0 10.149 4.544 10.149 10.149v70.026c0 5.605-4.544 10.149-10.149 10.149h-138.022c-5.605-.001-10.149-4.545-10.149-10.15z" fill="#355f7f"/><path d="m486.375 15.223h-30.446c5.605 0 10.149 4.544 10.149 10.149v70.026c0 5.605-4.544 10.149-10.149 10.149h30.446c5.605 0 10.149-4.544 10.149-10.149v-70.026c-.001-5.605-4.544-10.149-10.149-10.149z" fill="#305972"/><circle cx="466.077" cy="75.1" fill="#fff" r="7.611"/></g><path d="m441.111 120.769h-47.494c-2.242 0-4.059-1.817-4.059-4.059v-22.327c0-2.242 1.817-4.059 4.059-4.059h47.494c2.242 0 4.059 1.817 4.059 4.059v22.327c0 2.242-1.817 4.059-4.059 4.059z" fill="#eaf6ff"/><path d="m441.111 90.323h-30.446c2.242 0 4.059 1.818 4.059 4.059v22.327c0 2.242-1.817 4.059-4.059 4.059h30.446c2.242 0 4.059-1.818 4.059-4.059v-22.326c0-2.242-1.817-4.06-4.059-4.06z" fill="#d8ecfe"/><path d="m441.111 30.446h-47.494c-2.242 0-4.059-1.817-4.059-4.059v-22.328c0-2.242 1.817-4.059 4.059-4.059h47.494c2.242 0 4.059 1.817 4.059 4.059v22.327c0 2.243-1.817 4.06-4.059 4.06z" fill="#eaf6ff"/><path d="m441.111 0h-30.446c2.242 0 4.059 1.818 4.059 4.059v22.327c0 2.242-1.817 4.059-4.059 4.059h30.446c2.242 0 4.059-1.818 4.059-4.059v-22.327c0-2.241-1.817-4.059-4.059-4.059z" fill="#d8ecfe"/><g><path d="m432.99 212.107v111.499h-30.446v-111.499c0-8.407 6.816-15.223 15.223-15.223 8.407 0 15.223 6.816 15.223 15.223z" fill="#355f7f"/></g></g><g><g><g><path d="m441.101 330.014c0 6.302-2.182 12.625-6.668 17.76l-108.55 124.149c-8.515 9.732-23.474 10.23-32.618 1.096l-22.987-22.966v54.336c0 4.201-3.4 7.612-7.612 7.612h-237.041c-5.602 0-10.149-4.547-10.149-10.149v-125.976c0-24.378 16.634-45.609 40.3-51.444l54.985-13.558c7.885-1.948 13.437-9.023 13.437-17.152v-54.985h74.156v53.635c0 8.758 6.343 16.228 14.99 17.649l36.312 5.947c19.201 3.157 35.845 15.051 45.019 32.202l21.383 39.915c.599 1.126 1.472 1.968 2.476 2.526 2.446 1.35 5.693.974 7.733-1.35l67.57-77.068c9.509-10.838 25.859-12.29 37.124-3.288 6.69 5.349 10.14 13.203 10.14 21.109z" fill="#ffe180"/><g><path d="m430.963 308.905c-9.331-7.456-22.146-7.733-31.676-1.453 4.994 5.167 7.566 11.943 7.566 18.759 0 6.302-2.182 12.625-6.668 17.76l-108.55 124.149c-.514.588-1.054 1.138-1.612 1.658l3.243 3.241c9.144 9.134 24.103 8.636 32.618-1.096l108.55-124.149c4.486-5.135 6.668-11.458 6.668-17.76-.001-7.906-3.451-15.76-10.139-21.109z" fill="#fbd270"/></g><g><path d="m220.18 311.141 29.477 4.827c19.201 3.157 35.845 15.051 45.019 32.202l21.383 39.915c.599 1.126 1.472 1.968 2.476 2.526-3.348 2.41-6.694 4.82-10.04 7.232-9.861 7.108-23.725 3.9-29.464-6.816l-14.801-27.634c-9.174-17.152-25.818-29.046-45.019-32.202l-12.18-1.994z" fill="#fbd270"/></g><path d="m110.763 310.873-7.56 1.864c11.012 20.835 32.874 35.045 58.073 35.045 25.841 0 48.185-14.936 58.905-36.643l-16.845-1.123c-8.638-1.417-14.979-8.884-14.979-17.641v-53.64h-64.161v54.45.54c-.001 8.125-5.544 15.202-13.433 17.148z" fill="#d78878"/><path d="m220.179 311.141c-4.408-.702-9.117-1.122-12.826-3.246-5.514-3.158-9.004-9.128-8.997-15.522v-53.635l-30.446 15.222v53.635c0 8.758 6.343 16.228 14.979 17.649l24.143 3.952c5.345-5.197 9.81-11.298 13.147-18.055z" fill="#ca6e59"/><g><path d="m82.49 512c-4.204 0-7.611-3.407-7.611-7.612v-70.996c0-4.204 3.408-7.611 7.611-7.611s7.611 3.407 7.611 7.611v70.996c.001 4.205-3.407 7.612-7.611 7.612z" fill="#fbd270"/></g><g><path d="m262.672 512c-4.204 0-7.611-3.407-7.611-7.612v-70.996c0-4.204 3.408-7.611 7.611-7.611s7.612 3.407 7.612 7.611v70.996c0 4.205-3.408 7.612-7.612 7.612z" fill="#fbd270"/></g><path d="m434.434 347.764-19.861 22.723-20.044-20.044-18.237-18.237 17.547-20.013c1.634-1.867 3.471-3.451 5.45-4.749 4.465-2.944 9.641-4.446 14.848-4.446 5.917 0 11.864 1.939 16.826 5.907 12.016 9.61 13.589 27.289 3.471 38.859z" fill="#d78878"/><path d="m434.434 347.764-19.861 22.723-20.044-20.044 5.653-6.475c1.411-1.613 6.668-8.048 6.668-17.76.01-10.554-6.211-17.354-7.561-18.754v-.01c4.465-2.944 9.641-4.446 14.848-4.446 5.917 0 11.864 1.939 16.826 5.907 12.016 9.61 13.589 27.289 3.471 38.859z" fill="#ca6e59"/></g></g></g><g><path d="m236.856 161.602c-50.387 0-100.774 0-151.162 0-3.674-7.29-19.382-40.365-5.266-72.927 2.94-6.782 7.71-17.498 18.686-24.558 19.68-12.657 41.285-.81 68.592 1.436 18.502 1.522 45.018-.849 78.702-19.13 2.876-1.561 6.474-.627 8.233 2.135 11.198 17.59 14.69 40.651 11.207 61.038-1.75 10.243-5.686 19.804-10.904 28.756-2.18 3.741-13.094 23.25-18.088 23.25z" fill="#355f7f"/><g><path d="m254.642 48.558c-1.758-2.762-5.357-3.696-8.233-2.135-6.418 3.484-12.574 6.386-18.466 8.797 8.194 16.511 10.518 36.473 7.459 54.376-1.75 10.243-5.686 19.805-10.904 28.756-2.181 3.741-13.094 23.25-18.088 23.25h30.446c4.994 0 15.908-19.508 18.088-23.25 5.218-8.951 9.154-18.513 10.904-28.756 3.484-20.387-.008-43.447-11.206-61.038z" fill="#305972"/></g><path d="m236.856 161.602c-4.006-7.536-10.793-17.174-21.677-20.41-13.059-3.881-19.896 5.057-37.637 4.997-20.174-.068-24.948-11.671-41.218-12.947-11.698-.917-28.591 3.564-50.629 28.359v53.293c0 41.757 33.839 75.607 75.581 75.607 2.191 0 4.36-.093 6.503-.276 6.467-.551 12.701-16.917 18.6-18.995 4.142-1.459 8.12 11.732 11.896 9.607 23.027-12.957 38.581-37.633 38.581-65.944z" fill="#d78878"/><g><path d="m215.179 141.192c-8.984-2.67-15.023.726-23.693 3.087 7.045 4.407 11.823 11.489 14.924 17.322v53.293c.224 4.751.881 28.895-17.262 48.096-16.142 17.083-41.056 23.789-64.949 17.799 7.191 3.955 17.133 8.063 29.353 9.323 2.698.279 5.278.393 7.723.389 41.742 0 75.581-33.85 75.581-75.608v-53.293c-4.006-7.535-10.792-17.173-21.677-20.408z" fill="#ca6e59"/></g><g><path d="m124.81 210.869c-4.204 0-7.611-3.407-7.611-7.611v-14.591c0-4.204 3.407-7.611 7.611-7.611s7.611 3.407 7.611 7.611v14.591c0 4.204-3.407 7.611-7.611 7.611z" fill="#554e56"/></g><g><path d="m197.741 210.869c-4.204 0-7.611-3.407-7.611-7.611v-14.591c0-4.204 3.407-7.611 7.611-7.611s7.611 3.407 7.611 7.611v14.591c.001 4.204-3.407 7.611-7.611 7.611z" fill="#554e56"/></g><g><path d="m161.277 257.358c-.133 0-.266-.001-.399-.002-6.217-.065-12.389-1.684-17.851-4.681-3.685-2.023-5.033-6.649-3.011-10.335 2.022-3.685 6.646-5.034 10.335-3.011 2.281 1.252 5.987 2.755 10.687 2.804.08.001.16.002.239.002 4.796 0 8.58-1.519 10.924-2.806 3.685-2.021 8.311-.673 10.335 3.011 2.022 3.685.674 8.312-3.011 10.335-3.914 2.147-10.233 4.683-18.248 4.683z" fill="#ca6e59"/></g></g><g><path d="m249.672 201.259h-12.816v-35.261h12.816c9.737 0 17.63 7.893 17.63 17.63 0 9.738-7.893 17.631-17.63 17.631z" fill="#d78878"/><path d="m72.879 201.259h12.816v-35.261h-12.816c-9.737 0-17.63 7.893-17.63 17.63 0 9.738 7.893 17.631 17.63 17.631z" fill="#ca6e59"/></g></g></svg>