<svg id="Layer_1" enable-background="new 0 0 512 512" height="512" viewBox="0 0 512 512" width="512" xmlns="http://www.w3.org/2000/svg"><g><g><path d="m76.481 319.791c-4.143 0-7.5-3.357-7.5-7.5v-30c0-4.143 3.357-7.5 7.5-7.5s7.5 3.357 7.5 7.5v30c0 4.143-3.357 7.5-7.5 7.5z" fill="#355f7f"/></g><path d="m-7.755 394.005h167v46.49h-167z" fill="#355f7f" transform="matrix(0 -1 1 0 -341.505 492.995)"/><path d="m352.755 394.005h167v46.49h-167z" fill="#355f7f" transform="matrix(0 -1 1 0 19.005 853.505)"/><path d="m494.5 383.713h-477c-5.523 0-10-4.477-10-10v-51.49c0-5.523 4.477-10 10-10h477c5.523 0 10 4.477 10 10v51.49c0 5.522-4.477 10-10 10z" fill="#c59191"/><path d="m494.5 312.223h-30c5.523 0 10 4.478 10 10v51.49c0 5.522-4.477 10-10 10h30c5.523 0 10-4.478 10-10v-51.49c0-5.523-4.477-10-10-10z" fill="#b98080"/><path d="m312.41 282.29h170.09c12.15 0 22-9.85 22-22v-92.49c0-12.15-9.85-22-22-22h-206.93-129.14-116.93c-12.15 0-22 9.85-22 22v92.49c0 12.15 9.85 22 22 22h80.09z" fill="#c59191"/><g><path d="m249.273 159.744h-76.546c-18.955 0-34.32-15.366-34.32-34.32v-49.081c0-40.092 32.501-72.593 72.593-72.593 40.092 0 72.593 32.501 72.593 72.593v49.081c0 18.955-15.366 34.32-34.32 34.32z" fill="#355f7f"/><path d="m211 3.75c-5.144 0-10.159.543-15 1.561 32.893 6.912 57.593 36.084 57.593 71.032v49.081c0 18.955-15.366 34.32-34.32 34.32h30c18.955 0 34.32-15.365 34.32-34.32v-49.081c0-40.092-32.501-72.593-72.593-72.593z" fill="#305972"/><path d="m109.589 310.539v-107.919c0-16.356 9.958-31.065 25.144-37.139l37.283-14.913c7.593-3.037 12.572-10.391 12.572-18.57v-16.459h52.821v16.459c0 8.178 4.979 15.532 12.572 18.57l37.283 14.913c15.186 6.075 25.144 20.783 25.144 37.139v107.919z" fill="#aca6d6"/><g><path d="m287.267 165.482-37.284-14.913c-7.593-3.038-12.572-10.392-12.572-18.57v-16.459h-25.608v31.459c0 8.179 4.979 15.532 12.572 18.57l37.283 14.913c15.186 6.074 25.144 20.783 25.144 37.139v92.919h25.608v-107.92c.001-16.356-9.957-31.064-25.143-37.138z" fill="#978ecb"/></g><path d="m312.411 310.539h-37.5v24.424c0 10.355 8.395 18.75 18.75 18.75 10.355 0 18.75-8.395 18.75-18.75z" fill="#ffcebf"/><path d="m286.803 310.539v41.861c2.126.837 4.434 1.313 6.858 1.313 10.355 0 18.75-8.395 18.75-18.75v-24.424z" fill="#ffb09e"/><path d="m128.339 353.713c10.355 0 18.75-8.395 18.75-18.75v-24.424h-37.5v24.424c0 10.355 8.395 18.75 18.75 18.75z" fill="#ffcebf"/><path d="m147.089 235.539h127.821v103.174h-127.821z" fill="#aca6d6"/><path d="m147.089 295.539h127.821v58.174h-127.821z" fill="#b0e6a0"/><path d="m244.984 295.539h29.927v58.174h-29.927z" fill="#8ddaa7"/><g><path d="m259.911 295.539v-60c0-4.143 3.357-7.5 7.5-7.5s7.5 3.357 7.5 7.5v60z" fill="#978ecb"/></g><g><path d="m147.089 295.539v-60c0-4.143 3.357-7.5 7.5-7.5s7.5 3.357 7.5 7.5v60z" fill="#978ecb"/></g><g><g><path d="m274.911 485.75h-48.911v-135.756c0-13.506 10.949-24.455 24.455-24.455 13.506 0 24.455 10.949 24.455 24.455v135.756z" fill="#ffcebf"/><path d="m250.455 325.539c-5.655 0-10.857 1.925-15 5.147 5.751 4.475 9.455 11.457 9.455 19.308v135.756h30v-135.756c.001-13.506-10.948-24.455-24.455-24.455z" fill="#ffb09e"/><path d="m274.382 500.75h-47.852c-4.434 0-8.029-3.595-8.029-8.029 0-12.134 9.837-21.971 21.971-21.971h19.969c12.134 0 21.971 9.837 21.971 21.971-.001 4.434-3.596 8.029-8.03 8.029z" fill="#554e56"/><path d="m260.44 470.75h-19.969c-1.726 0-3.404.205-5.015.582 9.716 2.27 16.955 10.98 16.955 21.389 0 4.435-3.595 8.029-8.029 8.029h30c4.434 0 8.029-3.595 8.029-8.029 0-12.134-9.837-21.971-21.971-21.971z" fill="#433f43"/></g><g><path d="m196 485.75h-48.911v-135.756c0-13.506 10.949-24.455 24.455-24.455 13.506 0 24.455 10.949 24.455 24.455v135.756z" fill="#ffcebf"/><path d="m171.545 325.539c-5.655 0-10.857 1.925-15 5.147 5.751 4.475 9.455 11.457 9.455 19.308v135.756h30v-135.756c0-13.506-10.949-24.455-24.455-24.455z" fill="#ffb09e"/><path d="m195.471 500.75h-47.852c-4.434 0-8.029-3.595-8.029-8.029 0-12.134 9.837-21.971 21.971-21.971h19.969c12.134 0 21.971 9.837 21.971 21.971-.001 4.434-3.596 8.029-8.03 8.029z" fill="#554e56"/><path d="m181.529 470.75h-19.969c-1.726 0-3.404.205-5.015.582 9.716 2.27 16.955 10.98 16.955 21.389 0 4.435-3.595 8.029-8.029 8.029h30c4.435 0 8.029-3.595 8.029-8.029 0-12.134-9.837-21.971-21.971-21.971z" fill="#433f43"/></g></g><path d="m211 169.75c16.34 0 31.028-7.064 41.185-18.301l-12.202-.881c-7.593-3.037-12.572-10.391-12.572-18.569v-16.459h-42.822v16.459c0 8.178-4.979 15.532-12.572 18.569l-2.202.881c10.157 11.237 24.845 18.301 41.185 18.301z" fill="#ffcebf"/><path d="m224.375 165.568 3.719 1.487c9.364-3.03 17.643-8.473 24.09-15.606-3.159-1.147-6.072-2.617-8.482-4.887-3.938-3.709-6.292-8.941-6.292-14.564v-16.459h-25.608v31.459c.001 8.179 4.98 15.532 12.573 18.57z" fill="#ffb09e"/><path d="m211 133.215c-23.523 0-42.593-19.069-42.593-42.593v-19.299c0-2.21 1.79-4.013 4.001-3.999 7.731.048 17.929-.774 29.333-4.176 8.787-2.621 16.019-6.097 21.602-9.332 1.542-.894 3.492-.638 4.764.61 2.537 2.489 6.101 5.417 10.816 7.917 4.276 2.267 8.294 3.544 11.548 4.281 1.827.414 3.122 2.027 3.122 3.9v20.097c0 13.547-6.324 25.616-16.181 33.418-3.118 2.467-6.589-10.492-10.325-8.967-4.73 1.931-9.884 18.036-15.284 18.135-.267.005-.535.008-.803.008z" fill="#ffcebf"/><path d="m250.471 66.624c-3.915-3.386-6.588-1.649-11.548-4.28-4.719-2.503-8.285-5.434-10.822-7.924-1.271-1.247-3.215-1.499-4.756-.605-4.388 2.544-9.812 5.229-16.193 7.538.572.336 1.161.667 1.771.991 2.636 1.397 5.174 2.418 7.495 3.169 4.274 1.381 7.175 5.342 7.175 9.833v15.276c.217 2.015 1.359 14.53-7.751 24.499-7.681 8.405-19.722 11.797-31.253 8.91 3.18 2.485 9.074 6.411 17.384 8.221 0 0 4.571.963 9.026.963 23.524 0 42.593-19.069 42.593-42.593v-20.098c-.577-1.053-1.548-2.54-3.121-3.9z" fill="#ffb09e"/></g><path d="m482.5 145.801h-30c12.15 0 22 9.851 22 22v92.49c0 12.15-9.85 22-22 22h30c12.15 0 22-9.85 22-22v-92.49c0-12.15-9.85-22-22-22z" fill="#b98080"/><g><path d="m504.5 508.25h-497c-4.143 0-7.5-3.357-7.5-7.5s3.357-7.5 7.5-7.5h497c4.143 0 7.5 3.357 7.5 7.5s-3.357 7.5-7.5 7.5z" fill="#c59191"/></g><g><g><g><path d="m433.659 247.839h-49.789c-4.143 0-7.5-3.357-7.5-7.5v-35.153c0-9.649 7.851-17.5 17.5-17.5h29.789c9.649 0 17.5 7.851 17.5 17.5v35.153c0 4.142-3.357 7.5-7.5 7.5zm-42.289-15h34.789v-27.653c0-1.379-1.121-2.5-2.5-2.5h-29.789c-1.379 0-2.5 1.121-2.5 2.5z" fill="#355f7f"/></g><path d="m458.945 312.223h-100.36c-8.591 0-15.555-6.964-15.555-15.555v-55.773c0-8.591 6.964-15.555 15.555-15.555h100.359c8.591 0 15.555 6.964 15.555 15.555v55.773c.001 8.59-6.963 15.555-15.554 15.555z" fill="#f6a96c"/><path d="m458.945 225.339h-30c8.591 0 15.555 6.964 15.555 15.555v55.773c0 8.591-6.964 15.556-15.555 15.556h30c8.591 0 15.555-6.965 15.555-15.556v-55.773c0-8.591-6.964-15.555-15.555-15.555z" fill="#ea9b58"/></g></g></g></svg>