<svg id="Layer_1" enable-background="new 0 0 459.865 459.865" height="512" viewBox="0 0 459.865 459.865" width="512" xmlns="http://www.w3.org/2000/svg"><g><path d="m223.686 459.861c21.648-51.364 47.062-111.489 31.54-152.983-6.83-18.256-24.095-30.513-43.547-31.759-35.995-2.304-94.945 4.492-118.041 9.064-41.468 8.229-78.293 40.898-78.3 84.924-.003 17.702 12.557 88.583 13.489 90.754z" fill="#2c2c61"/><path d="m329.852 282.595c-.69 4.31-1.21 8.17-1.63 11.53-.08.63-.16 1.23-.23 1.82-20.66 12.57-40.92 12.52-56.65 8.33-16.51-4.39-28.05-13.34-29.85-17.05 1.09-37.43-12.58-68.16-37.15-96.47-43.21-49.69-63.38-164.35 53.07-186.88 9.23-1.78 19.32-2.99 30.32-3.54 71.91-3.58 108.8 21.49 129.1 77.15-106.69 58.02-53.78 84.99 19.42 77.07 8.261 70.14-35.059 130.06-106.4 128.04z" fill="#3e3e7a"/><path d="m271.342 304.275c-16.51-4.39-28.05-13.34-29.85-17.05 1.09-37.43-12.58-68.16-37.15-96.47-43.21-49.69-63.38-164.35 53.07-186.88 6.76 7.99-32.704 27.79-34.97 73.614-2.751 55.631 16.994 84.594 37.563 121.936 28.953 52.56 17.917 85.16 11.337 104.85z" fill="#2c2c61"/><path d="m436.25 154.556-110.387 13.559c-17.03 2.09-32.54-10.03-34.63-27.07l-2.04-16.63c-2.09-17.03 10.02-32.54 27.06-34.63l100.582-12.296c4.65 12.137 16.898 51.556 19.415 77.067z" fill="#ffebd3"/><path d="m433.912 412.545-37.29 47.32h-171.93c-10.8 0-16.89-12.16-24.96-12.16-13.6 0-22.95 12.16-23.9 12.16h-121.269c30.78-124.02 184.82-148.45 186.23-159.02.48-7.61.57-8.99.69-13.62.32.16.65.31.98.45 9.27 4.32 20.1 7.34 31.42 9.12 31.41 4.93 52.75-.9 54.11-.86.02 0 .04.01.05.01.24 0 7.05 2.03 16.21 5.49 4.75 1.78 10.14 3.96 15.56 6.44 6.499 2.97 72.679 50.15 74.099 104.67z" fill="#51518e"/><path d="m273.883 296.795c-23.73 12.99-136.82 73.42-155.33 163.07h-63.99c30.78-124.02 184.82-148.45 186.23-159.02.48-7.61.57-8.99.69-13.62.32.16.65.31.98.45 9.269 4.32 20.099 7.34 31.42 9.12z" fill="#3e3e7a"/><path d="m442.316 459.861h-45.698c19.891-47.738 1.819-123.918-36.808-151.985 70 13.134 92.367 91.012 82.506 151.985z" fill="#3e3e7a"/><g fill="#2c2c61"><path d="m344.253 301.435c-7.81 4.85-19.01 12.49-19.01 12.49l2.75-17.99c.02 0 .04.01.05.01.239 0 7.049 2.03 16.21 5.49z"/><path d="m329.852 282.595c-.69 4.31-1.21 8.17-1.63 11.53-12.65-4.73-17.32-14.86-17.5-15.26 1.741.62 10.38 3.04 19.13 3.73z"/><path d="m224.69 459.861h-48.859c-3.484-107.318-52.239-87.636-65.083-89.419-4.782-5.862 10.004-27.05 37.45-27.05 1.206-.093 46.748-3.37 67.007 51.022.001 1.404 9.985 20.883 9.485 65.447z"/><path d="m247.81 209.432c-13.03 28.092-56.815 29.27-69.923-8.611-5.83-15.258-1.523-33.386 11.341-43.677 14.366-12.063 41.391-13.021 51.633 4.658z"/></g></g></svg>