<svg id="Layer_1" enable-background="new 0 0 460.837 460.837" height="512" viewBox="0 0 460.837 460.837" width="512" xmlns="http://www.w3.org/2000/svg"><g><path d="m308.647 318.547c-.26-1.13-.63-2.22-1.11-3.24-.31-.67-.68-1.34-1.12-2.01-8.26-3.05-15.93-5.42-23.23-7.14-10.38-2.45-20.02-3.61-29.56-3.6-16.77.03-33.25 3.71-52.93 10.4-12.44 4.24-26.17 9.68-42.061 16.18 31.09 45.09 77.55 64.1 107.82 50.76 5.69-2.51 11.48-6.45 16.88-11.25 1.6-1.42 3.17-2.92 4.69-4.48 13.69-14.03 23.631-32.93 20.621-45.62z" fill="#ffebd3"/><path d="m362.819 145.075c24.403 9.205 68.323-19.235 72.751-46.21-19.303-2.24-80.606 4.049-91.644 9.49-10.164.447 18.893 36.72 18.893 36.72z" fill="#f6c719"/><path d="m285.147 293.497-1.4 9.06-.49 3.16-.07.44-2.25 14.54-.64 4.14h-80c0-3.61.18-7.59.4-11.88 1.28-24.17 3.99-58.14-16.4-92.12-84.11-148.12 60-162.57 125.57-157.1 13.85 1.15 24.2 3.2 28.15 5.06 10.11 10.95 18.52 21.98 25.4 32.97 9.81 15.68 16.49 31.27 20.5 46.39 21.85 82.31-35.42 150.93-98.77 145.34z" fill="#ffebd3"/><g fill="#ffd5b7"><path d="m266.457 379.897c-30.27 13.34-76.73-5.67-107.82-50.76 15.89-6.5 29.62-11.94 42.061-16.18 1.28-24.17 3.99-58.14-16.4-92.12-84.11-148.12 60-162.57 125.57-157.1l53.55 38.03c9.81 15.68 16.49 31.27 20.5 46.39-67.18 20.322-91.46 39.5-112.64 75.285-21.836 36.891.869 153.945-4.821 156.455z"/><path d="m285.147 293.497-1.4 9.06-.49 3.16c-15.56-4.28-16.52-15.52-16.52-15.52 2.3 1.03 10.14 2.65 18.41 3.3z"/><path d="m316.736 317.977c-2.59.17-5.32.36-8.09.57-1.66.12-3.32.24-4.97.37-11.82.88-22.74 1.78-22.74 1.78l2.25-14.54c7.3 1.72 14.97 4.09 23.23 7.14 3.581 1.35 7.021 2.92 10.32 4.68z"/></g><path d="m146.01 174.131c6.871 10.357 12.122 17.304 19.922 28.224 4.429-5.119 38.497-8.04 38.497-8.04 3.711-27.677 2.971-54.932-3.937-81.6 0 0-39.368 21.489-53.476 38.943-3.46 4.281-1.006 22.473-1.006 22.473z" fill="#f5a27e"/><path d="m332.237 460.835h57.176c-1.449-19.95-3.121-39.595-6.45-56.25-1.145-5.727-50.726 56.25-50.726 56.25z" fill="#ff9fb3"/><path d="m366.107 95.687c-60.19 14.1-124.54 25.46-170.38 42.85-37.086-4.952-48.647-29.115-47.607-48.355 1.473-27.228 34.678-56.765 55.017-80.135 68.25-24.93 155.9-6.02 162.97 85.64z" fill="#ffe262"/><path d="m195.727 138.537c-14.881 9.503-31.252 20.629-49.716 35.594-50.77-75.86-6.424-140.874 57.126-164.084-16.51 24.21-36.3 70.12-7.41 128.49z" fill="#f6d14f"/><path d="m354.297 80.617c-13.506-73.871-138.027-74.761-110.214 30.092z" fill="#ff6b7d"/><path d="m344.732 77.675c-48.966-8.354-150.004 60.11-148.995 60.891 16.445 12.726 37.869 29.949 67.844 29.913 47.663-.057 44.461-67.371 170.022-67.729 2.165-.006 2.738-3.007.724-3.798-22.835-8.97-66.698-15.96-89.595-19.277z" fill="#f6d14f"/><path d="m213.693 237.304c-9.53 15.776-31.237 20.871-46.814 11.044-9.28-5.756-15.36-15.687-17.773-26.278-3.894-14.884 1.999-31.416 15.099-39.732 14.689-9.821 40.09-7.946 47.867 9.658z" fill="#ffd5b7"/><path d="m186.938 228.229c.564-10.424-5.466-17.666-10.366-21.785-2.516-2.115-2.05-6.109.877-7.605l1.116-.57c1.452-.742 3.195-.672 4.563.216 5.436 3.525 18.147 13.908 12.798 31.34-.364 1.187-1.204 2.177-2.31 2.742-3.154 1.613-6.87-.8-6.678-4.338z" fill="#ffc7a0"/><path d="m323.857 422.957c-27.59 25.04-81.9 37.88-81.9 37.88h-216.69c11.16-44.96 42.03-76.94 67.95-96.8 8.77-6.71 21.01-13.65 32.53-19.56 29.07 14.29 70.87 29.82 101.38 28.89 17.25-.51 30.88-6.27 36.59-20.48.11-.25.2-.5.3-.76 2.01-.67 3.94-1.41 5.78-2.21.9-.39 1.78-.79 2.64-1.22.05-.01.1-.04.15-.07.01-.01.02-.01.02-.01.48-.22.95-.46 1.41-.7h.01c19.69 8.5 42.33 16.43 61.36-17.25 7.311 6.16 15.47 15.27 20.92 22.05 4.949 6.17-7.43 47.52-32.45 70.24z" fill="#ff9fb3"/><path d="m227.127 373.367c-46.119-7.212-95.889 28.736-96.66 87.47h-105.2c11.16-44.96 42.03-76.94 67.95-96.8 8.77-6.71 21.01-13.65 32.53-19.56 29.069 14.29 70.87 29.82 101.38 28.89z" fill="#ff8293"/><path d="m264.017 352.127c-3.44 79.77-85.35 38.84-138.27-7.65 17.25-8.83 32.89-15.34 32.89-15.34 48.61 28.8 82.47 30.6 105.38 22.99z" fill="#ff6b7d"/><path d="m335.386 330.667c-14.65 45.36-31.43 47.55-47.36 33.5-4.77-4.2-9.46-9.86-14-16.25 16.38-8.47 25.51-21.58 29.65-29 1.9-3.41 2.74-5.62 2.74-5.62 3.58 1.35 7.02 2.92 10.32 4.68 6.79 3.59 13 7.93 18.65 12.69z" fill="#ff6b7d"/><path d="m242.578 460.835c45.798-28.312 89.982-58.54 113.724-108.113 28.054 1.255 35.074 35.635 26.66 51.863-12.286 24.632-31.718 42.272-50.726 56.25z" fill="#eb8f65"/></g></svg>