<svg id="Layer_1" enable-background="new 0 0 457.241 457.241" height="512" viewBox="0 0 457.241 457.241" width="512" xmlns="http://www.w3.org/2000/svg"><g><path d="m307.981 286.561-1.91 12.29-.1.63c-4.41 9.73-19.04 13.01-38.25 10.96-1.61-.17-3.23-.36-4.83-.56-17.38-2.15-33.92-6.23-40.29-19.34 1.74-23.3-6-57.5-17.49-78.09-47.88-86-35.29-145.43-.22-175.18 24.86-21.09 61-27.27 94.9-17.44 4.93 1.43 10.88 3.96 17.2 7.16 34.19 17.31 62.19 45.07 79.45 79.28 49.09 97.31-15.76 186.71-88.46 180.29z" fill="#ffb48d"/><path d="m262.891 309.881c-17.38-2.15-33.92-6.23-40.29-19.34 1.74-23.3-6-57.5-17.49-78.09-47.88-86-35.29-145.43-.22-175.18l18.75 9.69s4.42 151.26 39.25 262.92z" fill="#f5a27e"/><path d="m307.981 286.561-1.91 12.29c-14.24-5.3-16.87-15.66-16.87-15.66 2.35 1.05 10.35 2.71 18.78 3.37z" fill="#f5a27e"/><path d="m279.091 357.781c-20.74.46-44.68-5.08-62.78-13.1-16.46-7.29-28.09-16.64-28.09-25.39 15-5.68 32.78-11.66 32.78-11.66.67-5.21 1.3-13.03 1.6-17.09 7.04 3.01 20.33 8.06 37.6 10.42 8.19 1.12 17.27 1.63 27 1.03 6.03-.37 12.31-1.17 18.77-2.51 0 0 7.57 2.16 18.12 6.32 6.24 2.46 13.52 5.63 20.9 9.47 2.88 18.6-25.66 41.63-65.9 42.51z" fill="#51518e"/><path d="m414.341 457.241h-371.44c.01-.03.02-.07.03-.1 11.4-45.81 42.86-78.38 69.28-98.63 13.43-10.27 36.32-22.04 55.35-30.6 10.37 1.19 28.43 9.17 48.23 17.29 21.92 9.01 45.95 18.19 63.99 18.52 38.97.71 66.08-41.47 80.54-39.41 40.51 27.38 52.74 83.68 54.02 132.93z" fill="#51518e"/><path d="m305.971 299.481s7.57 2.16 18.12 6.32c-13.49 4.98-21.13 13.15-21.13 13.15z" fill="#3e3e7a"/><path d="m290.911 330.921c.674-4.075.724-7.974.605-10.858-.11-2.672-2.185-4.762-4.708-4.75-.234.001-32.469.159-31.443.154-2.687.013-4.838 2.395-4.725 5.241.108 2.717.075 6.255-.423 10.017-.405 3.062 1.915 5.745 4.828 5.628l31.363-1.263c2.235-.09 4.116-1.831 4.503-4.169z" fill="#fcf4f6"/><g><path d="m209.941 330.421c24.48-11.471 40.23-11.471 50.26-29.46-17.27-2.36-30.56-7.41-37.6-10.42-.3 4.06-.93 11.88-1.6 17.09 0 0-17.78 5.98-32.78 11.66 0 4.75-.57 10.17 1.55 15.29-8.99-3.48-16.69-6.04-22.21-6.67-19.03 8.56-41.92 20.33-55.35 30.6-26.42 20.25-57.88 52.82-69.28 98.63.12.03.25.07.37.1h60.03c-9.335-43.481 31.01-99.433 106.61-126.82z" fill="#3e3e7a"/></g><path d="m299.301 77.401c-64.31-6.8-165.43-35.96-91.03 44.22 5.84 6.3 7.46 15.43 4.12 23.35-12.2 28.98-15.06 53.28-19.58 58.5-2.71-3.81-6.28-8.83-10.05-14.19-7.25-10.33-15.21-21.9-19.14-28.37-12.27-18.32-23.25-39.33-24.78-61.74 0-22.99 5.22-46.75 35.6-64.81 66.81-39 114.87-39.85 143.16-26.81 44.79 20.62 40.05 76.02-18.3 69.85z" fill="#f0e3e7"/><path d="m171.121 62.961c-22.31 22.13-7.121 47.068 12.42 68.5 14.88 16.32 16.632 38.848 13.969 48.92-.065.245-.128.501-.189.77-4.58 3.4-10.57 5.86-14.56 8.13-7.25-10.33-15.21-21.9-19.14-28.37-12.27-18.32-23.25-39.33-24.78-61.74 0-22.99 5.22-46.75 35.6-64.81 66.81-39 114.87-39.85 143.16-26.81.34 1.37.91 2.74 1.76 4.11 8.97 32.15-116.77 20.09-148.24 51.3z" fill="#e4d1d7"/><path d="m230.446 229.604c-10.681 14.573-32.321 17.655-46.674 6.7-8.559-6.43-13.63-16.657-15.062-27.209-2.504-14.873 4.692-30.502 18.209-37.479 15.199-8.309 39.839-4.262 45.897 13.605z" fill="#f5a27e"/><path d="m207.58 220.477c.445-11.5-6.661-19.469-11.811-23.703-2.359-1.939-2.249-5.576.258-7.32l2.833-1.97c1.579-1.099 3.671-1.097 5.244.01 5.983 4.21 19.115 15.993 12.317 34.77-.312.863-.907 1.595-1.66 2.118-3.089 2.148-7.326-.146-7.181-3.905z" fill="#eb8f65"/><path d="m360.321 324.311c-35.243 66.586-139.316 59.39-192.76 3.6 9.16-4.154 13.242-5.833 20.66-8.62 49.85 33.66 105 53.78 156.77-4.02 5.18 2.69 10.39 5.7 15.33 9.04z" fill="#2c2c61"/><path d="m306.989 380.64-21.912 2.105 2.324-20.601c1.703-13.646-18.243-13.706-16.625-.061l2.214 20.651-21.794-2.094c-12.494-1.652-12.578 17.724-.056 16.151l21.876-1.998-2.239 38.069c-1.618 12.159 18.326 12.09 16.625-.054l-2.351-38.026 21.995 2.009c12.515 1.572 12.449-17.804-.057-16.151z" fill="#f6c719"/></g></svg>