<svg id="Layer_1" enable-background="new 0 0 461.593 461.593" height="512" viewBox="0 0 461.593 461.593" width="512" xmlns="http://www.w3.org/2000/svg"><g><path d="m319.817 314.053c-.77-.38-1.53-.74-2.29-1.1-7.34-3.48-14.15-6.2-20.59-8.25-11.9-3.81-22.53-5.31-32.88-5-1.3.04-2.6.11-3.9.2-14.66 1.08-29.02 5.7-45.98 12.46-12.3 4.9-25.98 10.93-42.13 17.53 9.6 13.24 20.69 23.61 32.33 31.3 28.11 18.58 59.39 21.58 80.46 11.72 22.85-10.69 46.66-41.13 34.98-58.86z" fill="#ffebd3"/><path d="m351.417 69.553c-2.98 158.42-21.62 197.82-52.79 224.28l-1.69 10.87-1.31 8.45-1.93 12.44h-80c0-3.99.22-8.42.48-13.23 1.3-24.07 3.53-57.42-16.48-90.77-29.64-52.19-24.94-186.36 153.72-152.04z" fill="#ffebd3"/><path d="m296.937 304.703c6.44 2.05 13.25 4.77 20.59 8.25-13.887 2.335-28.664.37-41.348-5.661-10.072-4.789-22.015-3.607-30.622 3.485-16.867 13.899-32.152 31.442-41.18 50.416-11.64-7.69-22.73-18.06-32.33-31.3 16.15-6.6 29.83-12.63 42.13-17.53 1.3-24.07 3.53-57.42-16.48-90.77-29.64-52.19-24.94-186.36 153.72-152.04-2.98 158.42-21.62 197.82-52.79 224.28z" fill="#ffd5b7"/><path d="m357.327 290.943c-7.8 4.1-16.11 6.55-24.47 7.5-27.35 3.1-55.04-9.93-65.67-34.08-5.94-13.49-7.68-29.78-3.99-47.47 5.57-26.64 8.82-66.72 2.81-93.29-5.21-23.06 11.56-27.16 37.51-31.21 26.86-4.2 47.66-6.03 65.86-5.84 12.09.13 24.41 8.68 27.29 18.85 2.97 10.48 5.48 22.29 7.25 34.78 7.92 56.04.92 125.8-46.59 150.76z" fill="#51518e"/><path d="m332.857 298.443c-27.35 3.1-55.04-9.93-65.67-34.08-5.94-13.49-7.68-29.78-3.99-47.47 5.57-26.64 8.82-66.72 2.81-93.29-5.21-23.06 11.56-27.16 37.51-31.21 26.86-4.2 47.66-6.03 65.86-5.84 12.09.13 24.41 8.68 27.29 18.85 2.97 10.48 5.48 22.29 7.25 34.78-13.19.45-36.04.77-74.92 4.65-48.08 4.81-13.925 150.32 3.86 153.61z" fill="#3e3e7a"/><path d="m413.037 179.203c-.75 7.62-5.93 13.57-12.39 14.25l-90.71 9.59c-1.24.13-2.46.07-3.63-.18-.64-.13-1.27-.32-1.87-.56-5.58-2.15-9.63-8.45-9.42-15.79.01-.26.02-.52.04-.78.85-12.24.39-23.66-.36-32.41-.78-9.17 5.08-17.24 12.87-17.75l91.11-6.03c6.03-.4 11.4 3.87 13.51 10.21.46 1.35.76 2.78.89 4.29.8 9.29 1.27 21.89-.04 35.16z" fill="#c5c5ff"/><path d="m412.187 139.753c-10.92.95-34.46.21-83.19 5.08-22.42 2.24-28.14 27.62-24.56 57.47-5.58-2.15-9.63-8.45-9.42-15.79.01-.26.02-.52.04-.78.85-12.24.39-23.66-.36-32.41-.78-9.17 5.08-17.24 12.87-17.75l91.11-6.03c6.03-.4 11.4 3.87 13.51 10.21z" fill="#a4a4f7"/><path d="m406.777 102.453c-40.93 34.48-203.73-43.88-187.08 23.32 12.24 34.08-1.86 69.3-1.86 69.3s-34.07 2.92-38.5 8.04c-7.8-10.92-16.47-22.41-22.32-32.04-1.31-1.96-2.56-3.88-3.73-5.75-29.33-46.39-19.79-66.15-8.23-85.18-6.48-71.01 94.12-85.9 39.98-27.82 51.37-40.59 107.74-56.79 154.41-51.28 24.76 2.91 46.79 11.93 63.89 26.67 26.48 22.82 24.6 56.92 3.44 74.74z" fill="#f5a27e"/><path d="m186.997 92.843c-.2.11-3.18 4.75-4.97 12.3-.21.92-.41 1.89-.59 2.89-.99 5.7-1.18 12.7.75 20.46 1.28 5.16 3.5 10.66 7.04 16.34 7.11-11.14 11.043-34.48-2.23-51.99z" fill="#eb8f65"/><path d="m268.727 175.013c-30.11-11.65-60.06-27.38-86.54-46.52-1.93-7.76-1.74-14.76-.75-20.46.18-1 .38-1.97.59-2.89l.93.54c26.82 15.52 56.23 28.07 85.74 36.53.68 9.18.82 21.24.03 32.8z" fill="#2c2c61"/><path d="m402.817 461.593h-31.94l-113.52-24.6-98.98 24.6h-119.71c7.26-29.24 22.85-52.99 40-71.48 9.22-9.95 18.89-18.38 27.95-25.32 2.11-1.61 4.41-3.24 6.86-4.86 10.6-7.03 23.88-13.95 35.11-19.39 9.52 1.08 28.99 14.48 46.53 24.88 5.31 3.16 10.45 6.03 15.08 8.21 37.27 17.52 58.98 3.96 64.52-19.92 4.01-1.15 7.7-2.59 11.09-4.24 18.47 16.48 23.72 24.87 36.81 10 7.17-8.13 11.37-21.6 21.72-30.71 6.46 4.8 12.24 10 17.42 15.53v.01c9.87 10.53 17.54 22.25 23.44 34.67 12.33 25.98 16.9 55 17.62 82.62z" fill="#88ffc3"/><path d="m195.117 365.423c-26.72 20.67-65.93 33.76-67.01 96.17h-89.44c7.26-29.24 22.85-52.99 40-71.48 9.22-9.95 18.89-18.38 27.95-25.32 2.11-1.61 4.41-3.24 6.86-4.86 10.6-7.03 23.88-13.95 35.11-19.39 9.52 1.08 28.99 14.48 46.53 24.88z" fill="#00e9b1"/><path d="m385.197 378.973c-19.88 10.94-18.51 57.62-17.5 82.62h-209.32c-3.99-16.1-12.32-29.62-22.26-40.43-20.13-21.9-46.87-32.64-57.45-31.05-3.7-9.17 21.73-36.1 34.81-30.18 1.61.73 18.99 16.95 43.34 33.3 3.68 2.47 7.51 4.94 11.47 7.36 117.77 71.97 196.08 6.75 193.47-56.29v-.01c15.34 0 28.79 28.87 23.44 34.68z" fill="#f0e3e7"/><path d="m156.817 393.233c-8.17 7.33-15.49 16.17-20.7 27.93-20.13-21.9-46.87-32.64-57.45-31.05-3.7-9.17 21.73-36.1 34.81-30.18 1.61.73 18.99 16.95 43.34 33.3z" fill="#e4d1d7"/><path d="m344.337 328.763c-12.97 40.79-40.51 66.28-58.53 20.71 25.14-12.17 34-35.42 34.01-35.42 9.08 4.32 17.23 9.26 24.52 14.71z" fill="#00d2a9"/><path d="m148.587 340.543c13.13-6.35 23.46-10.65 23.46-10.65 46.74 27.69 79.83 30.41 102.67 23.82 9.95 67.13-82.48 30.81-126.13-13.17z" fill="#00d2a9"/><path d="m223.522 234.974c-10.825 14.77-32.757 17.893-47.303 6.79-8.675-6.517-13.813-16.881-15.265-27.576-2.538-15.074 4.755-30.912 18.454-37.983 15.404-8.421 40.376-4.319 46.516 13.789z" fill="#ffd5b7"/><path d="m198.012 225.375c.961-11.18-6.101-19.132-10.574-22.99-1.7-1.466-1.628-4.114.135-5.502l3.506-2.759c1.304-1.026 3.136-1.019 4.437.012 5.249 4.157 16.975 15.877 9.308 33.046-.233.522-.601.979-1.051 1.332-2.465 1.94-6.03-.013-5.761-3.139z" fill="#ffc7a0"/><path d="m339.447 1.043c-10.64 19.72-44.82 51.23-132.095 69.47-61.731 12.901-48.445 54.81-54.065 94.81-29.33-46.39-19.79-66.15-8.23-85.18-6.48-71.01 94.12-85.9 39.98-27.82 51.37-40.59 107.74-56.79 154.41-51.28z" fill="#eb8f65"/></g></svg>