<svg id="Layer_1" enable-background="new 0 0 461.868 461.868" height="512" viewBox="0 0 461.868 461.868" width="512" xmlns="http://www.w3.org/2000/svg"><g><path d="m365.585 209.83c4.356 22.206 33.557 55.218 21.876 66.214-21.519 20.257-105.957 12.454-111.283 11.579z" fill="#51518e"/><ellipse cx="368.108" cy="136.553" fill="#2c2c61" rx="38.88" ry="43.92"/><path d="m276.986 323.168c4.44 1.26 10.06 3.34 15.8 5.63 5.79 2.32 11.69 4.87 16.55 7.03 1.87.83-27.74 32.97-60.36 42-7.69 2.14-15.54 2.99-23.19 1.84-2.8-.42-5.54-.96-8.2-1.59-13.01-3.11-24.36-8.6-33.5-14.54-17.31-11.23-26.68-24.05-24.36-25.21.03-.02.05-.04.09-.05 17.25-5.84 32.64-10.44 40.56-14.42h.01c8.11-42.11-1.37-84.37-1.3-86.51-61.86-83.3 5.15-158.76 83.77-169.09 11.83-1.55 23.9.1 34.67 5.23 2.53 1.21 5.01 2.53 7.42 3.95 82.12 48.49 94.1 218.24-42.45 218.36-1.41 6.5-2.38 11.38-3.87 19-.025.124-1.417 7.213-1.64 8.37z" fill="#ffebd3"/><path d="m261.406 86.338c-25.343 44.637-43.229 55.632-12.43 291.49-7.69 2.14-15.54 2.99-23.19 1.84-2.8-.42-5.54-.96-8.2-1.59-13.01-3.11-24.36-8.6-33.5-14.54-15.28-12.96-25.68-24.22-24.36-25.21.03-.02.05-.04.09-.05 17.25-5.84 32.64-10.44 40.56-14.42h.01c8.11-42.11-1.37-84.37-1.3-86.51-61.86-83.3 5.15-158.76 83.77-169.09 11.83-1.55 23.9.1 34.67 5.23 2.53 1.21 5.01 2.53 7.42 3.95z" fill="#ffd5b7"/><path d="m282.496 295.798c-1.41 6.5-2.38 11.38-3.87 19-19.48-10.9-18.88-23.81-18.88-23.81 8.82 3.48 14.7 4.38 22.75 4.81z" fill="#ffd5b7"/><path d="m292.786 328.798c-7.77 2.7-14.42 6.03-19.15 10.44 0 0 2.637-12.727 3.35-16.07 4.44 1.26 10.06 3.34 15.8 5.63z" fill="#ffd5b7"/><path d="m386.126 195.048-2.16-25.22c29.02-41 1.18-61.79-25.89-61.79-28.01 0-59.85 26.83-129.41-2.45 0 0 5.88 55.8-27.36 75.12l-.96 57.84c6.31 7.24 13.38 36.03 13.06 51.14-.05 2.49-2.06 4.49-4.55 4.51-17.43.13-77.07-8.66-96.38-32.12-2.28-2.76-3.99-5.72-5.01-8.89-5.72-17.74 36.31-30.71 14.4-62.64-37.53-54.7-19.39-127.23 42.48-130.08 26.96-64.36 109.43-66.8 163.53-54.87 18.13 3.99 33.07 9.6 41.67 15.03 54.72 34.56 72.72 113.64 16.58 174.42z" fill="#51518e"/><path d="m187.886 68.588c-58.92 9.27-49.28 51.91-41.4 71.81 11.79 29.8 31.35 85.69 2.23 111.66-5.57 4.97-13.12 14.59-20.97 21.61-5.43-3.64-10.52-7.51-15.27-11.59-2.28-2.76-3.99-5.72-5.01-8.89-5.72-17.74 36.31-30.71 14.4-62.64-37.53-54.7-19.39-127.23 42.48-130.08 26.96-64.36 109.43-66.8 163.53-54.87 51.37 27.63-40.75 50.96-139.99 62.99z" fill="#3e3e7a"/><path d="m213.808 233.353c-11.177 14.45-33.13 16.998-47.35 5.55-8.483-6.723-13.34-17.192-14.511-27.895-2.141-15.098 5.541-30.706 19.385-37.404 15.58-8 40.378-3.264 46.033 14.953z" fill="#ffd5b7"/><path d="m184.15 198.569c3.595 5.639 5.486 12.481 5.26 19.156-.111 3.286 2.689 5.933 5.761 5.425 1.797-.297 3.234-1.641 3.773-3.463 2.645-8.94 1.061-19.345-4.133-27.225-1.124-1.706-3.075-2.592-4.978-2.243l-2.687.492c-3.431.629-4.977 4.75-2.996 7.858z" fill="#ffc7a0"/><path d="m376.546 461.868h-33.01l-99.98-19.13-82.3 19.13h-119.79c7.34-68.79 60.06-103.4 118.35-123.59h.01c21.44 14.09 53.51 24.31 83.73 24.26 25.88-.04 50.41-7.6 65.78-26.71 10 4.2 20.14 9.92 29.06 17.81 29.29 30.22 37.15 69.5 38.15 108.23z" fill="#f0e3e7"/><path d="m127.106 461.868h-85.64c7.34-68.79 60.06-103.4 118.35-123.59h.01c21.44 14.09 53.51 24.31 83.73 24.26 0 0-138.43 7.79-116.45 99.33z" fill="#e4d1d7"/><path d="m366.346 399.348c-5.32 7.86-20.41 24.67-22.81 62.52h-182.28c-5.34-18.95-16.81-34.52-29.94-46.54-19.11-17.49-41.71-27.47-53.95-29.46-5.24-11.63 29.05-33.67 38.25-28.25 13.75 12.24 26.99 22.83 39.68 31.91 120.98 86.58 192.59 36.07 189.92-28.23 15.05 0 26.05 31.9 21.13 38.05z" fill="#3e3e7a"/><g fill="#2c2c61"><path d="m155.296 389.528c-9.96 6.78-18.49 15.25-23.98 25.8-19.11-17.49-41.71-27.47-53.95-29.46-5.24-11.63 29.05-33.67 38.25-28.25 13.75 12.24 26.99 22.83 39.68 31.91z"/><path d="m257.022 370.329-31.713-22.435c-14.96-9.848-34.726 1.045-34.726 19.137v6.596c0 18.092 19.766 28.985 34.726 19.137z"/><path d="m243.552 370.038 27.165 19.354c14.903 9.81 34.593-1.041 34.593-19.064 0-18.034-19.699-28.868-34.593-19.064z"/></g><path d="m252.963 383.993c-3.235 0-13.566 1.25-13.566-7.927 0-8.066-1.549-18.239 7.927-18.239 3.235 0 13.566-1.25 13.566 7.927 0 8.065 1.549 18.239-7.927 18.239z" fill="#3e3e7a"/></g></svg>