<svg id="Layer_1" enable-background="new 0 0 461.992 461.992" height="512" viewBox="0 0 461.992 461.992" width="512" xmlns="http://www.w3.org/2000/svg"><g><path d="m356.156 351.228v-92.34l-12.96-3.24v92.34z" fill="#00e9b1"/><path d="m334.016 312.362c-.37-.79-.76-1.48-1.15-2.06-2.03-.87-4.03-1.68-6-2.45-6.84-2.67-13.31-4.76-19.56-6.31h-.01c-22.69-5.63-42.4-4.13-65.47 2.41-1.29.37-2.59.75-3.9 1.14-4.72 1.43-9.59 3.06-14.67 4.87-12.59 4.5-26.44 10.13-42.33 16.62.83 1.14 1.67 2.27 2.52 3.39 23.21 30.43 52.76 48.32 78.67 51.83v.01c11.55 1.56 22.37.27 31.59-4.04.89-.42 1.79-.87 2.69-1.36 22.46-12.26 45.98-46.23 37.62-64.05z" fill="#ffb48d"/><path d="m309.056 290.672c-.59 3.64-1.07 6.62-1.49 9.21-.09.57-.18 1.12-.27 1.66-.92 5.78-1.56 9.69-2.53 15.31l-.51 3.74-81.79.59.79-11.22.28-4c4.51-52.99-19.57-85.63-35.16-103.6-44.02-50.73-64.79-175.87 80.18-183.09 16.92-.84 31.66.12 44.57 2.73 41.82 8.44 64.45 34.1 79.64 71.4 50.19 123.469-5.96 199.469-83.71 197.27z" fill="#ffb48d"/><g fill="#f5a27e"><path d="m262.116 381.802c-25.91-3.51-55.46-21.4-78.67-51.83-.85-1.12-1.69-2.25-2.52-3.39 15.89-6.49 29.74-12.12 42.33-16.62l.28-4c4.51-52.99-19.57-85.63-35.16-103.6-44.02-50.73-64.79-175.87 80.18-183.09 16.92-.84 31.66.12 44.57 2.73l2.615 156.07s-11.125 27.36-54.085 12.72c-23.628-8.052-14.966 31.816-28.103 48.782-3.233 4.175-4.041 9.73-1.772 14.497 14.061 29.547-4.505 95.481 30.335 127.731z"/><path d="m309.056 290.672c-.59 3.64-1.07 6.62-1.49 9.21-11.12-4.29-17.05-12.24-17.29-12.57 2.36 1.039 10.35 2.7 18.78 3.36z"/><path d="m326.866 307.851c-10.72 2.82-22.25 12.94-22.25 12.94l2.39-17.35.3-1.9c6.25 1.551 12.72 3.641 19.56 6.31z"/></g><path d="m418.196 461.992h-374.4c11.47-46.23 43.21-79.11 69.86-99.53 9.56-7.33 23.15-14.91 35.62-21.22 22.92-.99 47.06 15.5 72.59 20.37 5.44 1.04 10.78 1.88 15.93 2.48 22.81 2.62 41.77.23 48.17-12.87 4.28-1.2 8.21-2.72 11.82-4.46 14.2 7.41 28.42 5.96 40.14.42 10.16-4.79 10.91-18.87 23.21-20.49 44.53 33.55 55.81 87.09 57.06 135.3z" fill="#88ffc3"/><path d="m237.796 364.092c-84.617-13.746-122.594-4.871-107.03 97.9h-86.97c11.47-46.23 43.21-79.11 69.86-99.53 9.56-7.33 23.15-14.91 35.62-21.22 22.92-.99 47.06 15.5 72.59 20.37 5.44 1.04 10.78 1.88 15.93 2.48z" fill="#00e9b1"/><path d="m361.136 326.692c-13.35 35.02-42.49 67.17-63.35 20.07 25.93-12.5 35.07-36.46 35.08-36.46 10.66 4.67 20.03 10.19 28.27 16.39z" fill="#00d2a9"/><path d="m149.276 341.242c16.85-8.5 31.65-14.66 31.65-14.66 47.7 28.26 81.57 31.23 105.04 24.64 6.5 73.49-84.08 26.06-136.69-9.98z" fill="#00d2a9"/><path d="m403.016 119.572c-12-12.23-156.52 22.37-156.11 30.62.15 2.99 1 13.31 1.16 16.34.1 1.84 0 3.69-.47 5.47-4.09 15.52-27.05 18.93-57.79 22-13.47 1.35-28.44 2.62-43.97 4.83-38.28-84.16-1.9-191.62 124.22-198.63 34.1-1.9 67.09 9.76 91.74 29.53 27.77 22.26 44.95 54.8 41.22 89.84z" fill="#88ffc3"/><path d="m361.796 29.732c8.62 25.099-266.28-87.34-171.99 164.27-13.47 1.35-28.44 2.62-43.97 4.83-38.28-84.16-1.9-191.62 124.22-198.63 34.1-1.9 67.09 9.76 91.74 29.53z" fill="#00e9b1"/><path d="m396.596 184.752c-29.91 6.08-38.93-8.46-38.88-26.01l-10.37-.27c.31 5.13-.78 29.32-41.99 33.74-3.41.37-7.08.6-11.06.67-1.18.02-2.34.02-3.46-.01-43.34-1.13-45.4-39.48-44.46-62.81.36-8.95 7.2-16.63 16.65-18.71 14.08-3.09 28.41-5.37 42.35-6.8 43.38-4.45 82.96-.61 99.32 12.97 4.77 3.96 5.31 8.69 6.66 12.6 2.97 8.64 10.14 49.56-14.76 54.63z" fill="#c5c5ff"/><path d="m271.436 109.621c-9.681 1.662-25.63 37.959 19.4 83.25-43.34-1.13-45.4-39.48-44.46-62.81.36-8.95 7.2-16.63 16.65-18.71z" fill="#a4a4f7"/><path d="m299.056 246.262-2.03 15.45c-56.5 9.02-81.63-2.77-92.5-17.41-.49.19-.99.37-1.49.54-23.47 7.97-49.04-2.88-61.74-24.63-.01-.03-.03-.04-.04-.06l-6.97-39.6c3.4-18.06 15.57-33.53 33.45-39.6 27.04-9.2 56.87 6.61 66.62 35.3 7.51 22.1.91 45.41-14.9 59.14 11.74 10.79 34.83 18.01 79.6 10.87z" fill="#00e9b1"/><path d="m324.212 261.442-22.109 3.567c-4.907.792-9.527-2.544-10.319-7.451l-.801-4.966c-.792-4.907 2.544-9.527 7.451-10.319l22.109-3.567c4.907-.792 9.527 2.544 10.319 7.451l.801 4.966c.792 4.907-2.544 9.527-7.451 10.319z" fill="#00d2a9"/><ellipse cx="173.693" cy="195.743" fill="#88ffc3" rx="40.214" ry="45.428" transform="matrix(.939 -.343 .343 .939 -56.609 71.463)"/></g></svg>