<svg id="Layer_1" enable-background="new 0 0 447.384 447.384" height="512" viewBox="0 0 447.384 447.384" width="512" xmlns="http://www.w3.org/2000/svg"><g><path d="m309.265 308.404c-3.72-1.57-7.29-2.98-10.74-4.24-6.09-2.23-11.79-3.98-17.21-5.3-18.28-4.48-33.37-4.07-49.31-.27-7.95 1.9-16.12 4.64-25.01 8.03-12.26 4.67-25.89 10.59-42.22 17.27 13.48 12.87 26.78 22.03 39.54 28.18 19.12 9.21 37.03 11.69 52.49 9.83 23.48-2.83 41.3-15.66 49.14-30.08 4.25-7.78 5.58-16.03 3.32-23.42z" fill="#ffebd3"/><path d="m283.425 285.204-1.81 11.71-.3 1.95-2.27 14.64h-72.23c0-2.16.07-4.45.18-6.88.97-21.97 4.89-54.5-14.63-87.02-49.44-106.11 4.35-143.51 59.33-150.46 17.72-2.25 35.57-1.32 50.12 1.48 15.94 3.07 30.28 11.81 40.33 24.56 76.38 96.86 13.16 196.37-58.72 190.02z" fill="#ffebd3"/><g fill="#ffd5b7"><path d="m283.425 285.204-1.81 11.71c-12.22-4.02-14.82-14.69-14.82-14.69 2.08.93 9.159 2.4 16.63 2.98z"/><path d="m298.525 304.164c-6.38 1.54-12.9 5.03-19.48 9.34l2.27-14.64c5.42 1.32 11.119 3.07 17.21 5.3z"/><path d="m256.805 361.904c-15.46 1.86-33.37-.62-52.49-9.83-12.76-6.15-26.06-15.31-39.54-28.18 16.33-6.68 29.96-12.6 42.22-17.27.97-21.97 4.89-54.5-14.63-87.02-49.44-106.11 4.35-143.51 59.33-150.46l-2.35 23.38c-25.873-20.221-34.501 40.658-11.4 88.56 9.975 20.685 8.71 44.87-4.231 64.189-2.868 4.282-4.282 9.38-4.279 14.535.007 13.499.116 25.023 2.57 38.786.89 5.07 1.95 10.04 3.18 14.91 4.57 18.11 11.519 34.69 21.62 48.4z"/></g><path d="m383.255 447.384h-347.48c5.63-19.76 14.77-36.97 26.54-52.06 9.61-12.32 20.97-23.23 33.62-32.94 14.29-10.97 30.21-20.42 47.08-28.66 15.13-3.55 37.95 9.75 62.16 18.66 12.057 4.448 25.274 8.121 38.06 7.38 40.31-2.36 71.69-40.58 86.02-40.04 11.43 7.62 20.67 16.15 28.09 25.35 10.23 12.68 16.97 26.64 21.11 41.27 5.54 19.62 6.43 40.45 4.8 61.04z" fill="#ff9fb3"/><path d="m205.175 352.384c-86.88-13.49-85.63 48.86-71.22 95h-98.18c5.63-19.76 14.77-36.97 26.54-52.06 9.61-12.32 20.97-23.23 33.62-32.94 14.29-10.97 30.21-20.42 47.08-28.66 15.13-3.55 37.949 9.75 62.16 18.66z" fill="#ff8293"/><path d="m395.465 102.464c-40.94 34.48-203.73-43.88-187.08 23.32 12.24 34.08-1.87 69.3-1.87 69.3s-34.07 2.92-38.5 8.04c-7.8-10.92-16.47-22.41-22.32-32.04-8.49-12.68-14.23-23.48-17.87-32.85-10.88-27.98-3.09-43.25 5.92-58.09-6.48-71 94.11-85.89 39.97-27.81 53.86-42.56 113.23-58.31 161.14-50.34 22.02 3.65 41.63 12.33 57.16 25.72 26.49 22.83 24.6 56.92 3.45 74.75z" fill="#f5a27e"/><path d="m334.855 1.994c-10.91 19.75-45.23 50.92-131.84 69.02-61.73 12.9-48.45 54.81-54.07 94.81-8.44-9.47-15.44-18.68-21.12-27.59-10.88-27.98-3.09-43.25 5.92-58.09-6.48-71 94.11-85.89 39.97-27.81 53.86-42.56 113.23-58.31 161.14-50.34z" fill="#eb8f65"/><path d="m187.067 187.691 75.118-45.967s-9.559-16.39-10.738-15.724c-11.79 6.66-43.646 34.658-69.782 51.604z" fill="#f6d14f"/><path d="m329.252 319.717c-63.329 95.55-155.606 30.346-186.237 14.003 7.097-3.485 14.373-6.758 21.756-9.829 113.079 67.004 144.473-15.495 144.495-15.485 9.138 4.059 13.948 7.276 19.986 11.311z" fill="#ff6b7d"/><path d="m366.225 183.504c-25.15 4.43-35.34-24.68-34.99-38.52l-8.51-.36c.18 4.38.94 39.55-38.29 42.85-6.82.57-12.54-.02-17.33-1.5-22.06-6.8-24.36-32.25-23.36-47.75.45-7.06 6.59-13.42 14.39-14.92 3.98-.77 7.99-1.43 12.01-1.99 52.87-7.41 106.69 2.52 110.05 22.12 2.239 13.08 5.03 36.72-13.97 40.07z" fill="#ffd084"/><path d="m267.105 185.974c-22.06-6.8-24.36-32.25-23.36-47.75.45-7.06 6.59-13.42 14.39-14.92 3.98-.77 7.99-1.43 12.01-1.99-11.72 8.09-23.981 26.2-3.04 64.66z" fill="#ffb563"/><path d="m138.394 233.014c.009.017.026.034.034.06 12.706 21.749 38.273 32.603 61.738 24.627 27.052-9.197 41.065-39.904 31.322-68.587-9.752-28.692-39.579-44.498-66.623-35.301-17.873 6.071-30.049 21.536-33.448 39.605" fill="#2c2c61"/><ellipse cx="170.827" cy="208.605" fill="#3e3e7a" rx="40.214" ry="45.428" transform="matrix(.939 -.343 .343 .939 -61.195 71.26)"/><path d="m191.305 217.284c-2.36 9.06-8.75 16.2-17.45 18.16-14.59 3.27-28.49-9.18-30.7-25.53-117.23-118.28-63.31-158.62-4.77-160.92-2.18 5.06-3.77 10.7-4.49 16.89-39.86 1.78-29.62 35.38-8.01 66.91 12.57 18.32 28.98 35.94 41.63 46.21 3.83.28 7.55 1.58 10.89 3.72 4.96 3.16 9.08 8.15 11.52 14.31.64 1.61 1.17 3.29 1.56 5.05 1.19 5.28 1.05 10.5-.18 15.2z" fill="#51518e"/></g></svg>