<svg id="Layer_1" enable-background="new 0 0 458.139 458.139" height="512" viewBox="0 0 458.139 458.139" width="512" xmlns="http://www.w3.org/2000/svg"><g><path d="m325.626 308.509c-.37-.79-.76-1.47-1.15-2.06-.88-.37-1.74-.74-2.6-1.08-8.14-3.35-15.41-5.74-21.17-7.22h-.01c-16.77-4.4-31.83-4.95-47.7-2.44-11.45 1.8-23.34 5.19-36.59 9.86-13.01 4.59-27.33 10.41-43.87 17.17 31.69 43.68 76.42 63.15 107.12 53.39 1.95-.62 3.84-1.36 5.66-2.21 4.49-2.1 9.07-5.14 13.49-8.82 18.41-15.32 33.83-41.64 26.82-56.59z" fill="#ffb48d"/><path d="m302.496 286.559-1.65 10.65-.13.82-.01.12-3.16 20.38h-81.6c0-3.92.21-8.26.46-12.96 1.32-24.6 3.78-58.86-16.78-93.12-14.82-26.12-57.41-88.68-42.51-131.35 8.55-24.47 33.07-43.25 60.75-54.05 26.29-10.25 55.43-13.31 76.44-7.22 17.4 5.04 47.55 23.83 62.12 37.54 105.02 113.75 30.88 236.68-53.93 229.19z" fill="#ffb48d"/><g fill="#f5a27e"><path d="m279.656 376.129c-30.7 9.76-75.43-9.71-107.12-53.39 16.54-6.76 30.86-12.58 43.87-17.17 1.32-24.6 3.78-58.86-16.78-93.12-14.82-26.12-57.41-88.68-42.51-131.35 8.55-24.47 33.07-43.25 60.75-54.05l-5.44 31.08c-12.39.36-1.31 100.1 40.57 237.58 2.27 7.49 4.65 15.11 7.12 22.82 5.96 18.649 12.47 37.89 19.54 57.6z"/><path d="m302.496 286.559-1.65 10.65c-13.21-5.39-17.13-14.02-17.13-14.02 2.35 1.049 10.35 2.71 18.78 3.37z"/><path d="m321.876 305.369c-8.752 1.708-18.46 4.84-24.33 13.16l3.15-20.38h.01c5.76 1.48 13.03 3.87 21.17 7.22z"/></g><path d="m409.806 458.139h-374.4c11.47-46.22 43.21-79.1 69.86-99.52 9.07-6.96 21.77-14.14 33.7-20.23 12.75 2.13 25.3 8.89 38.5 16.65 6.64 3.9 13.43 8.05 20.5 11.99 15.43 8.6 29.74 10.19 41.79 8.05 20.44-3.64 34.34-18.03 36.05-27.23 4.27-1.08 8.2-2.48 11.82-4.11 8.5 9.13 29.12 25.56 39.73 10.09 8.44-12.33 13.43-25.16 22.28-32.99 46.34 33.379 58.9 88.12 60.17 137.3z" fill="#9dcdff"/><path d="m111.636 458.139h-76.23c11.47-46.22 43.21-79.1 69.86-99.52 9.07-6.96 21.77-14.14 33.7-20.23 12.75 2.13 25.3 8.89 38.5 16.65-40.17 1.699-67.64 37.59-65.83 103.1z" fill="#67b0ff"/><path d="m349.636 320.839c-9.1 24.12-39.34 86.56-62.01 22.9 27.28-12.24 36.83-37.29 36.85-37.29 10.62 4.84 18.283 9.314 25.16 14.39z" fill="#4096ff"/><path d="m138.966 338.389c17.63-9.02 33.57-15.65 33.57-15.65 46.52 27.56 79.88 31.06 103.27 25.11 12.08 86.4-99.69 16.49-136.84-9.46z" fill="#4096ff"/><path d="m293.816 77.399c-64.31-6.8-166.6-43.55-96.33 40.27 6.34 7.57 5.16 21.5 2.3 29.6-2.4 6.8-4.34 12.7-5.97 17.82-1.41 4.43-2.58 8.28-3.6 11.62-3 9.84-4.7 15.3-7.3 18.31-2-2.81-4.19-5.75-6.45-8.73-6.67-8.83-13.87-18.03-18.33-25.37-31.66-47.3-37.35-97.93 10.82-126.56 67.85-39.61 116.37-39.86 144.47-26.19 43.39 21.09 38.16 75.33-19.61 69.23z" fill="#f0e3e7"/><path d="m161.716 58.849c-22.77 22.59-14.25 65.47 10.06 82.38 9.56 6.65 17.55 16.84 22.04 23.86-1.41 4.43-2.58 8.28-3.6 11.62-.8.59-1.43 1.4-1.75 2.81-3.67 2.73-8.23 4.86-12 6.77-6.67-8.83-13.87-18.03-18.33-25.37-31.66-47.3-37.35-97.93 10.82-126.56 67.85-39.61 116.37-39.86 144.47-26.19 4.29 30.71-120.15 19.38-151.71 50.68z" fill="#e4d1d7"/><path d="m205.92 179.527 84.507-44.802s-9.645-22.057-10.589-21.155c-10.924 8.334-56.98 39.198-87.831 64.835z" fill="#3e3e7a"/><path d="m228.502 226.951c-8.551 16.797-30.312 23.603-46.929 14.734-9.892-5.183-16.829-14.861-20.076-25.485-5.075-14.892-.29-32.191 12.455-41.643 14.254-11.106 40.301-11.076 49.538 6.302z" fill="#f5a27e"/><path d="m204.907 221.758c-1.931-10.809-10.631-17.105-15.28-19.754-1.579-.899-2.127-2.902-1.213-4.472l3.855-6.617c.895-1.537 2.855-2.079 4.403-1.203 6.181 3.5 19.809 13.581 14.585 32.353-.077.275-.192.543-.336.79-1.53 2.629-5.479 1.898-6.014-1.097z" fill="#eb8f65"/><path d="m285.907 110c-8.729 3.92-12.817 9.636-12.644 16.467 1.562 18.479 9.8 47.227 50.372 40.69 45.151-7.275 37.828-31.18 37.091-42.41-.151-2.304 8.762-3.594 9.254-1.474 3.409 14.696 5.773 32.811 39.488 25.981 20.255-4.103 12.19-34.149 8.771-41.198-3.256-6.714-12.352-13.127-26.548-13.201-16.218-.084-24.032 3.718-24.473 15.999-.1 2.78-2.933 3.373-2.933 3.373s-3.695.881-4.681-1.812c-5.92-16.16-19.272-15.301-39.776-11.966-10.568 1.72-21.739 4.358-33.921 9.551z" fill="#51518e"/><path d="m345.247 115.383c-4.4-6.091-12.118-5.451-23.128-3.66-6.675 1.086-13.728 2.761-21.427 6.033-4.929 2.095-8.349 6.036-7.987 10.402.967 11.675 6.191 29.833 31.82 25.704 28.522-4.595 23.896-19.697 23.43-26.791 0 0-.636-8.819-2.708-11.688z" fill="#fcf4f6"/><path d="m380.736 123.096c2.003 8.637 3.393 19.282 23.206 15.268 11.903-2.411 7.694-16.994 5.154-24.21-1.456-4.136-6.874-7.714-15.217-7.757-8.042-.042-12.841 1.542-14.3 6.373-.456 1.509-.446 3.12-.104 4.659z" fill="#fcf4f6"/></g></svg>