<svg id="Layer_1" enable-background="new 0 0 460.397 460.397" height="512" viewBox="0 0 460.397 460.397" width="512" xmlns="http://www.w3.org/2000/svg"><g><path d="m318.398 313.387c-.2-.41-.5-.82-.82-1.23-.19-.26-.39-.52-.56-.78-8.69-3.69-16.77-6.52-24.48-8.56-10.01-2.65-19.39-3.96-28.64-4.08-15.4-.19-30.44 2.93-47.44 8.72-14.3 4.87-29.99 11.64-48.45 19.91 31.4 45.54 78.32 64.74 108.89 51.26 5.24-2.31 10.57-5.83 15.61-10.1 18.161-15.45 32.591-40.8 25.89-55.14z" fill="#ffebd3"/><path d="m294.589 289.957c-.04-.01-.06-.01-.06-.01l-1.59 10.28-.4 2.59-2.54 16.35h-74.59c.27-3.23.68-7.18 1.05-11.71 1.7-21.07 2.45-54.55-15.97-85.26-38.58-82.79-10.3-125.25 31.01-144.18 47.42-21.73 112-12.45 112.32 2.42 95.98 103.95 28.27 216.29-49.23 209.52z" fill="#ffebd3"/><g fill="#ffd5b7"><path d="m270.559 319.167c5.55 15.35 12.72 31.82 21.95 49.36-5.04 4.27-10.37 7.79-15.61 10.1-30.57 13.48-77.49-5.72-108.89-51.26 18.46-8.27 34.15-15.04 48.45-19.91 1.7-21.07 2.45-54.55-15.97-85.26-38.58-82.79-10.3-125.25 31.01-144.18l35.67 3.68c10.55 3.91-15.49 30.14-20.37 75.92 30.91 8.16 77.39 28.92 80.12 28.62-18.36 16.56-63 18.92-74.52-2.52.9 16.87-5.59 56.37 11.5 115.02 1.9 6.57 4.11 13.38 6.66 20.43z"/><path d="m294.529 289.947-1.59 10.28c-19.55-7.18-17.07-13.71-17.07-13.71 2.35 1.05 10.22 2.77 18.66 3.43z"/><path d="m317.019 311.377c.17.26.37.52.56.78-13.27 1.62-26.4 4.24-27.58 7.01l2.54-16.35c7.71 2.04 15.79 4.87 24.48 8.56z"/></g><path d="m411.029 103.487c-41.34 34.83-205.76-44.32-188.95 23.56 12.36 34.42-9.77 64.33-9.77 64.33s-26.52 8.61-31 13.78c-7.88-11.03-16.63-22.64-22.54-32.36-.49-.74-.98-1.47-1.46-2.2-32.42-49.45-22.58-69.93-10.62-89.65-6.54-71.71 95.06-86.75 40.38-28.09 66.69-52.7 141.75-64.7 193.59-41.75 9.88 4.37 18.92 10.02 26.89 16.89 26.75 23.05 24.849 57.49 3.48 75.49z" fill="#f5a27e"/><path d="m183.019 80.587c-5.5 11.17-7.92 64.5-25.71 90.01-32.42-49.45-22.58-69.93-10.62-89.65-6.54-71.71 95.06-86.75 40.38-28.09 66.69-52.7 141.75-64.7 193.59-41.75 37.719 52-175.86 25.3-197.64 69.48z" fill="#eb8f65"/><path d="m199.099 199.688 73.968-44.651s-6.259-19.903-7.294-19.187c-11.665 6.287-47.431 31.643-74.735 50.849z" fill="#3e3e7a"/><path d="m272.093 133.367c-8.399 2.155-13.664 7.24-14.532 13.772-1.306 17.837 2.195 46.462 41.825 46.37 44.104-.103 40.742-23.979 41.739-34.786.204-2.217 8.888-2.099 9.036-.005 1.025 14.513.539 32.123 33.683 30.715 19.912-.846 17.415-27.981 14.582-37.913-1.974-6.92-9.157-14.27-22.667-16.486-15.434-2.532-24.074-.192-26.351 11.439-.515 2.632-3.303 2.769-3.303 2.769s-3.652.281-4.185-2.434c-3.195-16.286-16.042-17.487-36.076-17.41-10.324.041-21.363.865-33.751 3.969z" fill="#51518e"/><path d="m327.797 147.465c-3.27-6.467-10.717-7.023-21.475-6.982-6.522.025-13.493.554-21.32 2.507-5.011 1.25-8.865 4.487-9.18 8.7-.844 11.266 1.386 29.35 26.421 29.292 27.86-.065 25.737-15.148 26.366-21.975 0 0 .728-8.496-.812-11.542z" fill="#fcf4f6"/><path d="m360.433 160.176c.603 8.529.317 18.878 19.794 18.05 11.702-.497 9.811-16.529 8.569-22.28-.893-4.133-5.381-8.386-13.32-9.688-7.653-1.255-12.463-.473-14.583 3.908-.662 1.368-.896 2.904-.803 4.421z" fill="#fcf4f6"/><path d="m227.315 233.856c-8.454 14.97-28.553 20.314-43.346 11.578-8.81-5.113-14.75-14.206-17.29-24.015-4.038-13.771 1.004-29.346 12.991-37.458 13.426-9.559 37.162-8.505 44.894 7.695z" fill="#ffd5b7"/><path d="m205.194 227.336c-.409-10.354-7.708-16.913-12.291-20.029-1.797-1.222-2.031-3.771-.487-5.3l2.973-2.945c1.134-1.124 2.884-1.324 4.243-.485 5.378 3.322 17.501 12.93 12.299 29.713-.165.532-.47 1.015-.865 1.407-2.147 2.127-5.753.658-5.872-2.361z" fill="#ffc7a0"/><path d="m400.849 460.397h-38.1l-106.75-23.6-94.39 23.6h-128.55c11.27-45.41 42.45-77.71 68.63-97.77 9.75-7.47 23.81-15.22 36.47-21.54 7.93 2.07 15.94 4.81 24.21 8.13 8.76 3.51 17.82 7.69 27.39 12.46 42.43 21.14 78.96 13.92 81.01-9.57 3.78-1.02 7.27-2.3 10.51-3.77 16.52 15.3 21 20.47 34.93 6.92 10.08-9.81 14.91-20.22 26.58-28.91 44.92 33.07 56.819 86.06 58.06 134.05z" fill="#9dcdff"/><path d="m162.368 349.217c-24.22 18.65-45.76 51.96-46.53 111.18h-82.78c11.27-45.41 42.45-77.71 68.63-97.77 9.75-7.47 23.81-15.22 36.47-21.54 7.931 2.07 15.941 4.81 24.21 8.13z" fill="#67b0ff"/><path d="m138.159 341.087c16.04-8 29.85-13.72 29.85-13.72 46.79 27.73 79.86 30.95 102.76 24.74 6.94 72.07-89.81 21.01-132.61-11.02z" fill="#4096ff"/><path d="m342.789 326.347c-10.87 28.46-47.64 76.46-61.51 21.99 26.15-11.86 35.29-36.04 35.74-36.96 9.609 4.34 18.16 9.37 25.77 14.97z" fill="#4096ff"/><path d="m381.358 373.497c-16.91 9.23-20.38 44.57-18.61 86.9h-201.14c-5.11-25.66-19.71-45.23-36.57-57.82-16.79-12.55-35.82-18.2-49.97-16.08-6.91-7.85 24.36-38.39 36.28-30.55 8.75 7.79 17.34 14.84 25.75 21.19 132.31 99.92 221.82 27.97 219.02-39.5 15.341 0 30.551 30.1 25.24 35.86z" fill="#ffb563"/><path d="m137.099 377.137c-4.63 7.38-8.73 15.81-12.06 25.44-16.79-12.55-35.82-18.2-49.97-16.08-6.91-7.85 24.36-38.39 36.28-30.55 8.75 7.79 17.34 14.84 25.75 21.19z" fill="#ffa654"/></g></svg>