<svg id="Layer_1" enable-background="new 0 0 460.855 460.855" height="512" viewBox="0 0 460.855 460.855" width="512" xmlns="http://www.w3.org/2000/svg"><g><path d="m307.666 315.305c-.31-.67-.92-1.33-1.36-1.99-.89-.38-1.77-.75-2.64-1.11l-20.14-7.43c-15.41-4.83-27.89-6.47-39.6-5.69-14.17.93-27.22 5.4-43 12-11.94 4.99-25.44 11.21-42.16 18.05 26.21 38.01 63.33 57.48 92.47 54.67 5.44-.52 10.6-1.81 15.35-3.91 23.911-10.53 49.56-46.46 41.08-64.59z" fill="#ffb48d"/><path d="m362.948 145.075c24.403 9.205 68.323-19.235 72.751-46.21-19.303-2.24-80.606 4.049-91.644 9.49-10.165.447 18.893 36.72 18.893 36.72z" fill="#8888e8"/><path d="m285.376 293.505c-.06-.01-.1-.01-.1-.01l-1.46 9.39-.29 1.89-3.11 20.06h-80c0-4.14.24-8.75.51-13.75 1.3-24.04 3.35-57.14-16.51-90.25-48.45-85.31-21.18-126.28 23.18-144.63 9.66-4 20.13-6.93 30.8-9 43.41-8.46 90.21-2.9 99.74 1.59 22.28 24.14 36.34 48.7 43.84 72.3 2.07 6.5 3.64 12.92 4.74 19.24 13.45 76.74-41.189 138.4-101.34 133.17z" fill="#ffb48d"/><g fill="#f5a27e"><path d="m386.717 160.335c-79.47 6.22-110.65 47.73-129.3 79.25-8.121 13.725-13.49 34.82-13.49 59.5 0 8.45.38 17.15.96 25.75 1.54 22.17 4.54 43.73 6.35 58.97-29.14 2.81-66.26-16.66-92.47-54.67 16.72-6.84 30.22-13.06 42.16-18.05 1.3-24.04 3.35-57.14-16.51-90.25-48.45-85.31-21.18-126.28 23.18-144.63 7.73-1.76 18.51-5.03 30.8-9 43.41-8.46 90.21-2.9 99.74 1.59 22.28 24.14 36.34 48.7 43.84 72.3 2.07 6.5 3.639 12.92 4.74 19.24z"/><path d="m303.666 312.205c-8.3 3.31-16.1 7.45-23.25 12.63l3.11-20.06z"/><path d="m285.277 293.495-1.46 9.39c-14.57-3.97-16.96-12.69-16.96-12.69 2.299 1.03 10.15 2.65 18.42 3.3z"/></g><path d="m389.306 460.845h-37.73l-79.91-20.22-119.24 20.22h-127.27c11.16-44.96 42.03-76.94 67.95-96.8 8.85-6.78 21.28-13.79 32.95-19.73 16.61-1.22 30.57 9.85 45.67 17.88 4.83 2.57 9.77 4.82 14.96 6.27 35.28 9.85 67.94-6.14 74.02-15.32 3.14-.87 6.09-1.92 8.85-3.11 17.82 9.51 30.24 7.44 41.97-.34 10.21-6.77 11.14-18.24 20.92-20.45 43.18 33.2 55.64 84.46 56.86 131.6z" fill="#c5c5ff"/><path d="m171.727 362.195c-28.05 21.21-47.95 55.48-48.96 98.65h-97.61c11.16-44.96 42.03-76.94 67.95-96.8 8.85-6.78 21.28-13.79 32.95-19.73 16.609-1.22 30.569 9.85 45.67 17.88z" fill="#a4a4f7"/><path d="m370.007 374.815c-16.74 9.14-20.18 44.12-18.43 86.04h-199.15c-3.48-17.5-11.42-32.14-21.48-43.63-19.09-21.8-45.81-32.29-64.2-29.54-6.84-7.77 24.12-38.01 35.92-30.24 14.54 12.95 28.63 23.84 42.21 32.87 121.69 80.99 202.37 13.43 199.72-50.49 15.189 0 30.67 29.29 25.41 34.99z" fill="#51518e"/><path d="m102.666 357.445c14.54 12.95 28.63 23.84 42.21 32.87-5.6 8.15-10.32 17.15-13.93 26.91-19.09-21.8-45.81-32.29-64.2-29.54-6.84-7.77 24.12-38.01 35.92-30.24z" fill="#3e3e7a"/><path d="m332.447 329.245c-12.12 33.52-42.83 66.13-62.89 20.79 27.28-11.72 36.73-36.72 36.75-36.72 9.76 4.65 18.44 10 26.14 15.93z" fill="#8888e8"/><path d="m126.056 344.315c17.18-8.75 32.71-15.18 32.71-15.18 46.3 27.43 79.17 30.36 101.94 24.01 2.801 76.81-85.239 26.19-134.65-8.83z" fill="#8888e8"/><path d="m143.741 170.315c5.85 9.63 14.52 21.12 22.32 32.04 4.429-5.119 38.497-8.04 38.497-8.04s17.087-76.707-3.937-81.6c-1.234-10.161-46.012 20.706-60.12 38.16-3.462 4.282 3.24 19.44 3.24 19.44z" fill="#3e3e7a"/><path d="m366.235 95.687c-60.19 14.1-124.54 25.46-170.38 42.85-37.086-4.952-48.647-29.115-47.607-48.355 1.473-27.228 34.678-56.765 55.017-80.135 68.25-24.93 155.9-6.02 162.97 85.64z" fill="#c5c5ff"/><path d="m195.855 138.537c-17.428 13.608-40.468 27.168-52.11 31.78-50.77-75.86-4.03-137.06 59.52-160.27-16.51 24.21-36.3 70.12-7.41 128.49z" fill="#a4a4f7"/><path d="m344.861 77.675c-48.966-8.354-136.914 47.59-148.995 60.891 16.445 12.726 37.869 29.949 67.845 29.913 13.127-.016 25.67-5.562 34.656-15.132 50.656-53.952 112.839-52.533 135.367-52.597 2.165-.006 2.738-3.007.724-3.798-22.838-8.97-66.701-15.96-89.597-19.277z" fill="#a4a4f7"/><path d="m211.331 237.709c-10.003 15.227-31.634 19.449-46.653 9.16-8.951-6.033-14.586-16.068-16.574-26.62-3.29-14.847 3.148-30.957 16.398-38.681 14.876-9.152 39.896-6.351 46.92 11.327z" fill="#f5a27e"/><path d="m186.518 227.643c1.038-10.244-4.612-17.644-9.409-21.985-2.548-2.305-1.855-6.4 1.338-7.75l.87-.368c1.516-.641 3.266-.485 4.616.44 5.378 3.688 17.935 14.473 11.867 31.619-.437 1.236-1.402 2.234-2.63 2.753-3.335 1.41-7.01-1.179-6.652-4.709z" fill="#eb8f65"/></g></svg>