<svg id="Layer_1" enable-background="new 0 0 460.811 460.811" height="512" viewBox="0 0 460.811 460.811" width="512" xmlns="http://www.w3.org/2000/svg"><g><ellipse cx="358.522" cy="105.891" fill="#ffa654" rx="26.586" ry="31.327"/><path d="m275.228 300.385c32.121 24.329 109.498 11.688 101.017-7.4-7.279-16.385-10.803-41.45 5.443-69.893-26.214 8.049-62.048 26.259-87.525 36.188-4.842 1.887-9.743 3.849-13.794 7.001-4.05 3.151-4.958 29.062-5.141 34.104z" fill="#51518e"/><path d="m287.205 322.081s0 .01-.01.03c6.31 1.8 15.51 4.26 23.98 6.85 2.2.67 4.36 1.35 6.41 2.03 3.88 1.29 7.35 2.57 9.97 3.78-.35 21.6-27.2 38.07-57.21 43.21-11.42 1.96-23.29 2.29-34.34.63-42.69-6.39-63.2-39.57-63.2-39.57 14.76-5.91 25.23-10.31 37.79-16.24 2.43-12.64 3.28-25.29 3.28-36.87 0-26.99-4.62-48.14-4.57-49.64-61.86-83.3 5.14-158.77 83.77-169.09 6.07-.8 12.2-.75 18.19.18 5.68.88 11.23 2.55 16.48 5.05 88.71 42.32 105.53 222.19-35.04 222.31-1.11 5.15-1.95 9.27-2.98 14.55-.61 3.08-1.29 6.56-2.14 10.86 0 .02-.25 1.27-.38 1.93z" fill="#ffebd3"/><g fill="#ffd5b7"><path d="m292.705 294.741c-1.11 5.15-1.95 9.27-2.98 14.55-19.45-8.67-19.76-19.36-19.76-19.36 8.82 3.48 14.7 4.38 22.74 4.81z"/><path d="m317.585 330.991c-17.15 2.78-33.37 5.46-33.37 5.46 1.05-4.99 2.86-13.8 2.98-14.34 6.31 1.8 15.51 4.26 23.98 6.85 2.2.67 4.36 1.35 6.41 2.03z"/><path d="m263.775 310.736c1.66 4.85-8.105 10.355-16.655 13.325-2.46.86-3.75 3.53-2.95 6.01 4.96 15.42 17.564 31.43 26.174 47.91-11.42 1.96-23.29 2.29-34.34.63-42.69-6.39-63.2-39.57-63.2-39.57 14.76-5.91 25.23-10.31 37.79-16.24 2.43-12.64 3.28-25.29 3.28-36.87 0-26.99-4.62-48.14-4.57-49.64-61.86-83.3 5.14-158.77 83.77-169.09 6.07-.8 12.2-.75 18.19.18-118.61 63.873-79.59 198.402-48.81 240.465.692.943.946 2.025 1.321 2.89z"/></g><path d="m316.055 60.159c50.045 52.08-74.788 125.992-114.138 123.725-15.535-3.362 12.312-41.991 24.654-55.44 24.69-26.904 21.096-36.365 49.7-54.079 5.289-3.275 34.482-17.438 39.784-14.206z" fill="#51518e"/><path d="m391.487 109.27c-3.59-9.64-20.162-36.899-60.482-27.659-70.23 4.6-111.855 69.174-151.738 115.549-15.6-6.48-105.116-137.198 75.23-192.04 25.92-6.95 52.65-3.41 76.69 12.88 25.08 16.97 45.06 44.04 60.3 91.27z" fill="#ffd084"/><path d="m353.147 77.76c-19.3-.91-58.153 6.835-58.459 4.76-7.928-53.863-55.08-68.281-89.051-57.535 67.47-59.819 137.79-.145 147.51 52.775z" fill="#ffa654"/><path d="m368.534 57.699c-101.137-.016-199.814 117.614-191.918 137.747 2.57 1 11.998 17.573 12.908 14.793 24.277-73.596 135.55-139.707 175.23-123.22 13.079 5.253 15.655 18.419 11.33 31.85 2.7 4.62 5.14 9.42 7.33 14.36 27.99-51.08 22.64-76.27-14.88-75.53z" fill="#ffb563"/><path d="m173.304 223.215c-6.344 11.088-17.667 31.332-20.079 43.507-2.412 12.174-.297 25.587 8.931 35.072 9.149 9.405 23.678 13.556 37.718 15.834 21.698 3.521 70.09-.518 62.427-10.56-23.477-20.088-41.318-51.661-47.957-78.144z" fill="#51518e"/><path d="m210.784 259.858c-9.323-12.577-9.875-33.191-9.52-43.167.041-1.152-1.538-1.514-2.01-.462-.018.039-.031.072-.043.113-.445 1.437-9.24 30.404-.831 49.16.661 1.474.865 1.869 2.42 2.472 5.226.746 8.519-1.473 10.504-5.423.462-1.274.052-1.921-.52-2.693z" fill="#3e3e7a"/><path d="m224.509 230.502c-9.447 14.583-30.051 18.742-44.438 9.021-8.574-5.699-14.009-15.236-15.969-25.287-3.229-14.14 2.813-29.543 15.403-36.991 14.131-8.82 38.011-6.3 44.818 10.517z" fill="#ffd5b7"/><path d="m203.102 218.864c-1.033-5.979-4.253-11.527-9.187-15.472-1.454-1.162-1.775-3.24-.693-4.754l3.134-4.384c1.149-1.607 3.433-1.969 4.962-.718 7.539 6.168 10.97 16.113 8.559 25.527-.106.414-.296.803-.545 1.15-1.77 2.475-5.712 1.65-6.23-1.349z" fill="#ffc7a0"/><path d="m340.575 460.811h-96.64c-51.27-11.53-88.4-33.27-100.32-67.32-4.21-12-5.28-25.54-2.73-40.69 4.63-2.35 9.65-4.72 14.66-6.94 12.91 1.02 28.83 11.36 44.41 24.79 1.47 1.27 2.93 2.56 4.39 3.88 26.99 3.4 69.3-10.44 72.27-13.96 2.98-.35 6.66-.96 10.17-1.76 13.98 5.04 25.58 6.68 34.38 10.68 7.29-7.74 14.4-17.88 26.26-24.06 5.45 3.78 10.44 8.17 14.88 13.44 19.8 45.52 16.03 81.79-21.73 101.94z" fill="#fcf4f6"/><path d="m199.955 370.651c-20.29 4.03-41.95 9.2-56.34 22.84-4.21-12-5.28-25.54-2.73-40.69 4.63-2.35 9.65-4.72 14.66-6.94 12.91 1.02 28.83 11.36 44.41 24.79z" fill="#f0e3e7"/><path d="m243.935 460.811h-184.25c5.73-53.7 39.11-86.57 81.2-108.01 5.78 10.25 12.16 20.15 19.11 29.65 22.7 31.1 51.35 57.87 83.94 78.36z" fill="#51518e"/><path d="m129.525 460.811h-69.84c5.73-53.7 39.11-86.57 81.2-108.01 5.78 10.25 12.16 20.15 19.11 29.65-23.28 11.25-39.4 32.32-30.47 78.36z" fill="#3e3e7a"/><path d="m340.574 460.809c16.36-30.24 22.65-65.32 21.73-101.94 24.64 29.271 31.53 65.84 32.46 101.94z" fill="#51518e"/><path d="m347.425 345.431c-12.65 23.46-47.36 63.25-60.64 13.38 15.93-3.61 30.42-11.16 40.77-24.04 7.09 3 13.76 6.44 19.87 10.66z" fill="#e4d1d7"/><path d="m155.545 345.861c8.18-3.64 16.36-6.9 22.86-9.07.11 0 44.46 30.51 98.21 23.78 10.78 65.88-80 21.33-121.07-14.71z" fill="#e4d1d7"/></g></svg>