<svg id="Layer_1" enable-background="new 0 0 460.431 460.431" height="512" viewBox="0 0 460.431 460.431" width="512" xmlns="http://www.w3.org/2000/svg"><g><path d="m328.767 313.261c-1.04-.42-2.08-.83-3.1-1.23-7.04-2.74-13.65-4.9-19.97-6.54h-.01c-12.42-3.21-23.66-4.39-34.69-3.92-15.5.66-30.53 4.6-47.69 10.76-12.54 4.5-26.21 10.19-42.02 16.65 16.47 30.8 60.74 41.52 97.52 37.79 38.821-3.94 69.291-23.98 49.96-53.51z" fill="#ffebd3"/><path d="m308.517 285.931c-1.36 9.94-1.54 11.34-2.82 19.56-.63 4.09-1.54 9.86-2.99 19.2h-79.84c0-3.75.2-7.89.44-12.36 1.28-24.09 3.8-57.77-16.41-91.44-61.1-131.14 20.4-167.34 86.93-167.71 12.18-.08 23.85 1.05 34.06 3.02 36.57 7.02 67.24 50.37 78.59 94.57 1.321 5.12-82.299 111.89-97.96 135.16z" fill="#ffebd3"/><path d="m325.668 312.031c-9.51 2.01-17.52 5.8-22.96 12.66 0 0 1.77-11.41 2.98-19.2h.01c6.319 1.64 12.93 3.8 19.97 6.54z" fill="#ffd5b7"/><path d="m278.808 366.771c-36.78 3.73-81.05-6.99-97.52-37.79 15.81-6.46 29.48-12.15 42.02-16.65 1.28-24.09 3.8-57.77-16.41-91.44-61.1-131.14 20.4-167.34 86.93-167.71l-47.17 45.12c-44.503-5.977-10.83 138.322 32.15 268.47z" fill="#ffd5b7"/><path d="m403.838 460.431h-355.67c16.4-66.08 70.32-105.32 133.12-131.45.07.04.15.09.23.13 9.28 5.48 18.9 10.31 28.6 14.27 8.71 3.57 17.49 6.44 26.14 8.45 12.88 3.01 25.5 4.14 37.23 2.88.11-.01.21-.021.32-.03 10.99-1.22 21.2-4.55 30.1-10.41 1.23-.8 2.42-1.65 3.6-2.56 8.64-6.64 15.88-15.93 21.18-28.31l.08-.14c1.89.76 31.93 11.76 51.72 36.32 24.95 30.92 27.33 70.81 23.35 110.85z" fill="#a1edff"/><path d="m236.257 351.831c-73.05-.94-95.09 33.26-96.98 108.6h-91.11c16.4-66.08 70.32-105.32 133.12-131.45.07.04.15.09.23.13 9.28 5.48 18.9 10.31 28.6 14.27 8.711 3.57 17.491 6.44 26.14 8.45z" fill="#6fe1ff"/><path d="m169.591 169.666c7.09 9.307 17.407 21.392 23.187 29.483 4.421-5.11 10.474-11.872 10.474-11.872 20.285-27.894-2.318-74.673 18.897-83.892 35.28-15.332 154.137 33.256 130.921-44.628-7.829-11.1-158.771 9.846-172.099 23.492-15.718 16.095-13.841 84.188-11.38 87.417z" fill="#ffa654"/><circle cx="329.305" cy="391.993" fill="#00c8f7" r="8.956"/><circle cx="329.305" cy="432.373" fill="#00c8f7" r="8.956"/><g><path d="m307.508 341.711c-1.18.91-2.37 1.76-3.6 2.56v116.16h4v-119.04z" fill="#6fe1ff"/></g><path d="m362.987 74.901c-16.4-1.85-84.36 12.2-137.81 43.95-22.95 13.63-43.22 30.52-55.59 50.82-92.26-105 42.75-189.6 130.33-165.55 31.131 8.54 56.261 30.82 63.07 70.78z" fill="#a1edff"/><path d="m299.918 4.121c-42.342-9.19-104.86 4.86-74.74 114.73-22.95 13.63-43.22 30.52-55.59 50.82-92.26-105 42.75-189.6 130.33-165.55z" fill="#6fe1ff"/><g><path d="m264.279 190.448c-.552 0-1.101-.227-1.496-.672-11.182-12.593-30.85-12.948-41.253-10.021-5.175 1.456-7.3 3.368-7.466 4.296-.194 1.087-1.227 1.812-2.321 1.617-1.087-.195-1.811-1.234-1.616-2.321.743-4.154 6.784-6.445 10.318-7.442 11.367-3.205 32.819-2.861 45.328 11.214.733.826.659 2.09-.167 2.824-.381.338-.854.505-1.327.505z" fill="#00c8f7"/></g><g><path d="m272.358 275.541c-.31.82-1.08 1.33-1.91 1.33h-.05c-2.964-1.021-2.665-.964-2.77-1-10.67-4.76-32.84-19.48-43.3-40.29-.51-1.01-.1-2.24.91-2.74 1-.51 2.23-.1 2.73.9 9.5 18.91 30.48 33.62 41.31 38.41.67.29 1.3.55 1.88.77 1.059.39 1.589 1.57 1.2 2.62z" fill="#00c8f7"/></g><path d="m233.879 234.306c-8.91 15.272-29.656 20.476-44.741 11.278-8.986-5.386-14.962-14.822-17.432-24.945-3.953-14.22 1.458-30.163 13.901-38.331 13.945-9.635 38.338-8.208 46.055 8.563z" fill="#ffd5b7"/><path d="m220.218 227.909c4.481-17.578-7.958-28.155-14.358-32.299-1.944-1.259-4.539-.926-6.1.781l-.376.411c-1.523 1.666-1.582 4.147-.169 5.889 3.536 4.36 9.718 13.343 11.846 24.997.394 2.159 2.344 3.709 4.591 3.703 2.152-.005 4.045-1.441 4.566-3.482z" fill="#ffc7a0"/><path d="m409.188 212.631c-.35 1.44-.74 2.86-1.16 4.26-12.08 40.95-49.09 70.04-98.64 67.76-12.29-.56-25.35-3.06-38.99-7.78-2.96-1.02-2.67-.96-2.77-1 .58-1.25 1.13-2.49 1.65-3.72 14.54-34.29 9.19-63.78-7.28-83.22 54.22-36.88 108.59-50.93 144.48-38.16 3.22 10.14 5.05 20.17 5.6 29.91.08 1.35.14 2.69.16 4.03.209 9.69-.85 19.06-3.05 27.92z" fill="#6fe1ff"/><g><path d="m409.188 212.631c-.35 1.44-.74 2.86-1.16 4.26-10.51 3.42-26.27 5.76-48.1 7.12h-.12c-1.05 0-1.93-.82-2-1.88-.07-1.1.77-2.05 1.87-2.12 22.38-1.39 38.19-3.8 48.34-7.34.39-.14.8-.14 1.17-.04z" fill="#00c8f7"/></g><g><path d="m412.237 184.711c-.14.01-.27 0-.41-.021-7.65-1.33-16.34-1.57-25.82-.71-.59.05-1.18.11-1.77.18-29.46 3.07-56.49 15.47-56.75 15.59-.28.14-.57.2-.86.2-.75 0-1.46-.42-1.8-1.14-.48-.99-.06-2.19.94-2.66.28-.14 29.05-13.34 59.88-16.15.58-.05 1.17-.1 1.74-.14 8.99-.7 17.28-.43 24.69.82.081 1.351.14 2.691.16 4.031z" fill="#00c8f7"/></g></g></svg>