<svg id="Layer_1" enable-background="new 0 0 459.122 459.122" height="512" viewBox="0 0 459.122 459.122" width="512" xmlns="http://www.w3.org/2000/svg"><g><path d="m387.72 135.734c-.707 17.622-6.72 26.171-23.911 26.171s-27.754-9.575-27.754-27.209 9.349-27.667 26.532-27.198c17.281.472 25.717 13.652 25.133 28.236z" fill="#eb8f65"/><path d="m280.145 318.692c-.68 3.42-1.44 7.33-2.45 12.48 0 0 .01 0 .04.01 5.83 1.67 13.58 4.71 20.76 7.75 5.4 2.29 10.479 4.57 14.17 6.28-.29 18.03-19.63 31.17-43.34 36.52-12.46 2.82-26.12 3.48-38.86 1.57-39.38-5.9-71.02-34.48-71.02-34.48 13.62-5.46 35.99-11.54 47.58-17.01 0 0 0 0 0-.01 7.49-38.84-1.26-77.82-1.19-79.8-42.53-57.27-19.03-110.53 25.73-137.87 15.3-9.36 33.08-15.68 51.55-18.11 10.91-1.43 22.05.09 31.98 4.82 81.84 39.04 97.35 204.97-32.32 205.08-.98 4.54-1.73 8.21-2.63 12.77z" fill="#ffebd3"/><g fill="#ffd5b7"><path d="m277.735 331.182c5.83 1.67 13.58 4.71 20.76 7.75-12.75 1.3-22.98 3.92-22.98 3.92l2.18-11.68s.01 0 .04.01z"/><path d="m282.775 305.922c-.98 4.54-1.73 8.21-2.63 12.77-13.75-6.53-18.35-17.2-18.35-17.2 8.14 3.21 13.56 4.039 20.98 4.43z"/><path d="m269.324 381.732c-12.46 2.82-26.12 3.48-38.86 1.57-39.38-5.9-71.02-34.48-71.02-34.48 13.62-5.46 35.99-11.54 47.58-17.01 0 0 0 0 0-.01 7.49-38.84-1.26-77.82-1.19-79.8-42.53-57.27-19.03-110.53 25.73-137.87.181 47.41 4.851 152.57 37.76 267.6z"/></g><path d="m381.344 184.902c-2.55 4.04-12.93-29.05-14.34-31.66 15.72-20.6 3.12-46.88-21.84-36.92-18.33 8.09-47.16 17.52-109.2 2.16 12.01 57.6-16.6 67.49-31.74 85.56l3.01 34.55-24.96 6.79c-16.62-8.18-37.22-21.3-47.68-36.55-18.66-27.2-22.4-59.17-12.94-83.29-14.63-13.32-23.68-31.7-23.68-52.02 0-68.59 92.13-97.24 139.44-50.83 3.84 3.76 7.38 8.02 10.56 12.79 9.05-2.36 18.92-4.29 29.19-5.46h.01c29.33-3.4 61.97-.69 88.2 15.7 47.18 29.49 50.231 84.94 15.97 139.18z" fill="#f5a27e"/><path d="m237.415 22.692c3.84 3.76 7.38 8.02 10.56 12.79-31.16 8.51-53.9 20.88-71 39.97 1.07-1.43 29.2-38.57 60.44-52.76z" fill="#eb8f65"/><path d="m164.045 235.142c-11.52-7.35-22.64-16.38-29.45-26.31-18.66-27.2-22.4-59.17-12.94-83.29-14.63-13.32-23.68-31.7-23.68-52.02 0-35.28 24.38-60 54.49-69.36-15.52 12.68-25.86 31.18-25.86 54.15 0 18.88.394 33.842 24.64 64.379 5.717 7.2-1.719 30.911 25.73 62.031 11.462 12.996-4.594 35.814-12.93 50.42z" fill="#eb8f65"/><path d="m202.541 208.605c10.11-4.606 37.097-24.168 59.964-37.068 0 0-2.184-19.499-3.949-18.242-12.877 9.166-54.873 39.745-66.721 47.987z" fill="#2c2c61"/><path d="m220.679 251.579c-11.448 14.316-33.513 16.517-47.595 4.802-8.402-6.883-13.105-17.465-14.107-28.222-1.904-15.182 6.056-30.716 20.054-37.212 15.76-7.774 40.563-2.621 45.941 15.747z" fill="#ffd5b7"/><path d="m199.999 239.179c-.024-8.422-3.36-16.677-9.351-22.753-1.91-1.937-1.759-5.15.338-6.718l2.495-1.866c1.558-1.165 3.708-1.019 5.202.333 9.005 8.145 12.787 20.935 9.491 32.677-.246.877-.788 1.622-1.493 2.149-2.788 2.085-6.672-.176-6.682-3.822z" fill="#ffc7a0"/><path d="m374.724 459.122h-319.92c5.73-53.67 45.43-84.79 90.08-104.38 11.2-1.68 33.8 13.42 51.65 22.95 1.08.58 2.15 1.14 3.189 1.67 33.28 16.96 54 8.4 61.42-12.77 2.68-.35 5.32-.8 7.92-1.37 12.5 20.14 19.11 24.08 33.86 10.3 8.1-7.57 16.56-21.84 25.16-20.55 29.822 23.39 45.622 64.78 46.641 104.15z" fill="#ffd084"/><path d="m156.465 459.122h-101.661c5.73-53.67 45.43-84.79 90.08-104.38 11.2-1.68 33.8 13.42 51.65 22.95-28.339 11.04-54.339 33.94-40.069 81.43z" fill="#ffb563"/><path d="m261.145 366.592c-.24 66.22-77.39 16.09-116.26-11.85 8.13-3.57 16.43-6.76 24.72-9.63h.01c23.209 15.25 59.91 25.59 91.53 21.48z" fill="#ffa654"/><path d="m328.085 354.972c-14.27 26.35-48.25 63.69-59.02 10.25 15.23-3.29 28.82-10.36 38.48-22.37 7.46 3.13 14.31 7.23 20.54 12.12z" fill="#ffa654"/><path d="m264.561 150.557c-7.313 2.224-12.766 7.298-12.916 13.548-.401 16.716 4.252 43.278 41.251 41.312 41.175-2.188 36.904-24.321 37.322-34.459.085-2.08 8.2-2.381 8.437-.433 1.645 13.502 2.026 29.968 32.906 27.082 18.552-1.734 14.483-27.458 11.817-36.091-1.985-6.428-9.226-12.89-21.946-14.318-14.531-1.632-22.487.963-24.061 11.93-.356 2.482-2.953 2.742-2.953 2.742s-3.397.435-4.023-2.074c-3.756-15.055-15.808-15.567-34.51-14.545-9.637.527-19.901 1.832-31.324 5.306z" fill="#51518e"/><path d="m317.481 161.206c-3.362-5.886-10.346-6.053-20.393-5.504-6.091.333-12.579 1.158-19.799 3.353-4.622 1.406-8.069 4.613-8.163 8.563-.253 10.565 2.688 27.354 26.073 26.112 26.025-1.383 23.326-15.372 23.589-21.78-.001 0 .276-7.972-1.307-10.744z" fill="#fcf4f6"/><path d="m348.849 170.706c.968 7.939 1.191 17.621 19.349 15.924 10.908-1.02 8.534-14.504 6.948-21.221-.909-3.85-5.425-7.579-12.904-8.419-7.209-.81-11.666.15-13.439 4.343-.554 1.31-.7 2.756-.541 4.169z" fill="#fcf4f6"/></g></svg>