<svg id="Layer_1" enable-background="new 0 0 459.25 459.25" height="512" viewBox="0 0 459.25 459.25" width="512" xmlns="http://www.w3.org/2000/svg"><g><path d="m330.734 347.485c-5.25 8.31-13.74 14.22-24.13 18.03-26.04 9.54-63.95 5.87-92.39-6.37-6.64-2.86-12.77-6.18-18.1-9.92-11.5-8.04-19.33-17.97-20.77-29.21 31.03-12.2 33.29-10.36 33.61-12.76.01-.03.01-.05.01-.08.05-.48.05-1.12.17-2.05.96-8.28.92-17.66.72-22.87-.07-1.71-.16-2.97-.24-3.61 12.92 6.45 33.61 17.54 55.45 21.49 1.16.22 2.32.4 3.49.58 7.22 1.04 14.51 1.25 21.66.18 1.1-.16 2.19-.35 3.27-.57.1 0 6.08 1.67 14.78 4.91.09.03.18.06.26.09s.15.05.22.08h.01c.24.09.49.19.76.29 7.56 2.86 16.98 6.83 26.32 11.86.03.19.06.38.09.57 1.75 11.98-.34 21.69-5.19 29.36z" fill="#a4a4f7"/><path d="m330.734 347.485c-19.27-.55-36.34-5.18-38.07-5.67-.04-.01-.07-.01-.09-.02-32.69-7.16-61.86-23.9-75.45-11.41-2.32 2.14-3.83 4.79-4.63 7.9-14.36-5.67-27.3-12.3-37.15-18.27 37.25-14.65 33.03-9.03 33.79-14.89 1.14-9.8.91-23.01.48-26.48 82.42 41.15 66.02 6.49 126.22 38.91.03.19.06.38.09.57 1.75 11.98-.34 21.69-5.19 29.36z" fill="#8888e8"/><path d="m367.274 459.245h-212.12c-11.57-9.67-22.28-18.98-31.02-28.38-22.37-24.09-31.73-48.74-9.2-81.37 15.97-9.85 33.17-18.29 50.85-25.65 3.45-1.41 6.64-2.69 9.56-3.83 9.85 5.97 22.79 12.6 37.15 18.27 31.18 12.31 69.03 20.13 96.45 7.01 11.07-5.29 20.43-13.98 26.98-27.17 1.67-3.35 3.15-7 4.43-10.95 2.57 1.39.6 13.23 3.12 14.78 5.02 3.07 9.63 6.49 13.87 10.24 3.33 2.92 6.43 6.05 9.31 9.33 2.95 3.35 5.67 6.88 8.19 10.56 18.73 38.84 25.39 82.51-7.57 107.16z" fill="#51518e"/><path d="m260.514 459.245h-105.36c-11.57-9.67-22.28-18.98-31.02-28.38-22.37-24.09-31.73-48.74-9.2-81.37 15.97-9.85 33.17-18.29 50.85-25.65 3.45-1.41 6.64-2.69 9.56-3.83 9.85 5.97 22.79 12.6 37.15 18.27-6.15 23.72 28.36 73.8 48.02 120.96z" fill="#3e3e7a"/><path d="m366.654 341.525c-17.55 8.27-41.79 6.4-57.71 3.77 11.07-5.29 20.43-13.98 26.98-27.17 1.67-3.35 3.15-7 4.43-10.95 2.57 1.39.6 13.23 3.12 14.78 5.02 3.07 9.63 6.49 13.87 10.24 3.33 2.92 6.43 6.05 9.31 9.33z" fill="#3e3e7a"/><path d="m155.154 459.245h-126.51c12.36-49.78 45.29-84.45 86.29-109.75 9.35 9.88 19.86 23.67 27.81 41.57 8.16 18.34 13.63 41 12.41 68.18z" fill="#2c2c61"/><path d="m367.27 459.25c8.185-51.478 9.203-86.002 7.57-107.161 20.321 29.716 27.216 69.441 28.204 107.161z" fill="#2c2c61"/><path d="m420.579 240.255c-1.052 3.489-2.218 6.998-3.478 10.508-8.894 24.692-22.984 49.508-44.541 72.221-13.32 14.017-32.7 20.505-51.841 17.714-88.415-12.872-160.854-88.977-179.214-116.168-21.328-31.607-32.356-89.248-12.882-135.496 54.892-130.362 243.718-106.056 287.77-1.343 1.583 3.738 2.957 7.581 4.124 11.518 7.164 21.973 18.546 80.177.062 141.046z" fill="#51518e"/><path d="m359.364 333.375c-11.52 6.64-25.14 9.29-38.64 7.32-88.42-12.87-160.86-88.97-179.22-116.16-21.33-31.61-32.36-89.25-12.88-135.5 28.76-68.31 94.3-94.15 156.51-88.2-42.01 10.06-79.7 37.02-99.67 84.44-19.48 46.25-8.45 103.89 12.88 135.5 17.08 25.3 80.99 92.95 161.02 112.6z" fill="#2c2c61"/><path d="m420.579 240.255c-50.591 36.012-116.366 23.452-207.269-26.504-51.528-28.295-39.121-102.842 3.301-92.299 77.938 19.37 179.162 17.121 199.782-33.762 1.583 3.738 2.957 7.581 4.124 11.518 7.164 21.974 18.546 80.178.062 141.047z" fill="#9dcdff"/><path d="m381.454 119.995c-30.33 18.47-66.79 28.46-104.43 22.11-41.94-7.08-49.59 64.72-7.63 98.92-17.56-7.23-36.22-16.36-56.08-27.27-51.53-28.3-39.13-102.85 3.3-92.3 55.69 13.84 123.28 16.639 164.84-1.46z" fill="#67b0ff"/><circle cx="187.765" cy="153.725" fill="#3e3e7a" r="41.368"/><circle cx="187.765" cy="153.725" fill="#51518e" r="22.784"/></g></svg>