<svg id="Layer_1" enable-background="new 0 0 461.882 461.882" height="512" viewBox="0 0 461.882 461.882" width="512" xmlns="http://www.w3.org/2000/svg"><g><path d="m320.429 323.141c-.65-.3-1.29-.6-1.93-.9-7.98-3.65-15.48-6.45-22.7-8.47-20.58-5.77-38.75-5.22-58.47-.27-6.48 1.62-13.13 3.72-20.09 6.23-12.86 4.63-26.77 10.66-42.63 17.65 6.42 9.31 13.77 17.37 21.59 24.17 17.32 15.05 36.97 23.94 53.97 26.52 54.88-8.4 83.791-27.52 70.26-64.93z" fill="#ffb48d"/><path d="m297.52 302.621-1.55 10.03-.17 1.12-2.89 18.67h-76.14c0-3.83.21-8.09.47-12.71 1.23-22.9 3.32-54.58-15.69-86.26-5.1-8.97-9.31-17.43-12.72-25.4-33.85-79.08 11.55-110.16 62.62-120.52 41.71-8.46 87.2-3.1 96.38 1.23 28.53 30.91 42.89 62.53 46.96 91.67 9.899 70.93-41.181 127.12-97.27 122.17z" fill="#ffb48d"/><g fill="#f5a27e"><path d="m394.789 180.451c-85.42-4.88-139.6 50.48-157.46 133.05-1.34 6.16-2.47 12.48-3.39 18.94-.32 2.16-.61 4.34-.87 6.54-1.03 8.37-20.49 12.61-36.87 22.57-7.82-6.8-15.17-14.86-21.59-24.17 15.86-6.99 29.77-13.02 42.63-17.65 1.23-22.9 3.32-54.58-15.69-86.26-5.1-8.97-9.31-17.43-12.72-25.4-15-64.92 20.03-101.4 62.62-120.52 41.71-8.46 87.2-3.1 96.38 1.23 28.53 30.91 42.891 62.53 46.96 91.67z"/><path d="m295.799 313.771c7.22 2.02 14.72 4.82 22.7 8.47-7.36 1.18-15.71 4.23-25.59 10.2z"/><path d="m297.52 302.621-1.55 10.03c-11.94-4.55-15.8-12.81-15.96-13.16 2.2.96 9.649 2.51 17.51 3.13z"/></g><path d="m162.069 186.661c6.315 9.495 10.635 15.165 16.8 21.96 4.215-4.872 34.292-3.325 34.292-3.325 19.168-11.302 45.207-74.55 21.27-81.464-1.174-9.67-61.257 26.451-74.683 43.061-3.293 4.074 2.321 19.768 2.321 19.768z" fill="#3e3e7a"/><path d="m226.251 249.002c-10.347 14.117-31.31 17.103-45.215 6.491-8.292-6.229-13.203-16.136-14.591-26.358-2.426-14.408 4.545-29.548 17.64-36.307 14.724-8.049 38.593-4.128 44.462 13.18z" fill="#f5a27e"/><path d="m203.877 239.11c1.157-10.193-4.684-17.657-9.019-21.697-1.967-1.833-1.554-5.063.778-6.403l2.355-1.353c1.431-.822 3.212-.687 4.504.339 4.978 3.954 15.918 14.935 9.101 31.003-.349.822-.946 1.517-1.72 1.962-2.821 1.621-6.366-.618-5.999-3.851z" fill="#eb8f65"/><path d="m373.753 114.911c.986-7.73 9.596-17.535 15.37-23.574 8.736-9.136 1.786-29.506.465-33.222-44.679-122.991-228.464-26.823-266.596 68.002-17.744 48.656 12.048 25.624 26.173 42.106l117.116-63.314c63.499-8.106 91.217-1.421 107.472 10.002z" fill="#c5c5ff"/><path d="m410.974 148.653c-4.29 3.44-44.05-5.85-127.32 6.71-3.54.53-7.13.79-10.72.71-30-.68-40.63-10.89-49.11-14.42-4.2-1.74-7.88-1.85-13.12 1.63 14.43-36.08 131.07-60.206 173.21-21.75 4.77 6.76 12.26 14.37 25.32 19.7 2.88 1.25 4.51 5.19 1.74 7.42z" fill="#8888e8"/><path d="m383.914 121.533c-54.16-18.3-119.76-20.58-173.21 21.75-.01 0-.01.01-.02.021-.09.06-.18.13-.28.19l-48.335 43.168-12.905-18.438 38.22-33.46c33.13-29.01 75.43-45.72 119.45-46.23 32.04-.38 58.586 7.478 68.865 18.688 2.051 2.239 3.715 7.931 8.215 14.311z" fill="#a4a4f7"/><path d="m354.993 52.607c0 14.668-12.336 26.451-27.201 25.54-12.939-.792-23.394-11.455-23.954-24.406-.157-3.634.445-7.108 1.659-10.279 1.604-4.189 5.996-5.969 10.465-5.581 9.399.816 18.482 1.414 27.252 1.179 4.726-.126 9.327 1.625 10.693 6.151.707 2.343 1.086 4.826 1.086 7.396z" fill="#ffe262"/><path d="m396.03 461.881h-75.39l-31.59-21.95-26.38 21.95h-53.45l-41.15-17.46-31.44 16.84-1.16.62h-85.99c10.62-42.79 40-73.22 64.67-92.13 9.06-6.95 22.09-14.15 33.91-20.05l48.38 9.24 89.72 17.15 53.76-40.97c40.969 31.61 54.949 81.95 56.11 126.76z" fill="#c5c5ff"/><path d="m196.439 358.941c-26.17 12.06-58.68 46.75-59.81 102.32l-1.16.62h-85.989c10.62-42.79 40-73.22 64.67-92.13 9.06-6.95 22.09-14.15 33.91-20.05z" fill="#a4a4f7"/><path d="m320.638 461.882h-57.97c-.73-25.83 3.21-58.07 10.86-78.68l22.48-5.22c14.551 20.37 23.341 55.51 24.63 83.9z" fill="#3e3e7a"/><path d="m305.224 370.45c-.26 3.88-1.82 15.06-3.71 18.16-5.25 8.56-26.25 12.15-31.73 9.43-6.83-4.59-10.68-10-11.97-12.71-2.108-11.754 5.767-21.14 11.97-24.11 4.98-.98 9.54-2.39 13.7-4.12 6.095 1.131 17.878 4.043 21.74 13.35z" fill="#51518e"/><path d="m269.789 361.222c4.5 71.75-85.62 24.95-121.73-11.52 11.73-5.89 22.26-10.48 26.55-12.32h.01c28.799 16.655 62.349 29.445 95.17 23.84z" fill="#8888e8"/><path d="m339.918 335.122c-2.93 34.67-20.51 69.53-56.43 21.98 20.01-8.17 30.95-23.1 35.67-31.55.49-.88.91-1.69 1.27-2.41 7.111 3.61 13.591 7.62 19.49 11.98z" fill="#8888e8"/><path d="m209.22 461.881h-73.75c-16.55-14.09-32.73-35.47-42.2-58.09-1.85-4.1-2.62-9.03-2.48-13.36.52-16.57 17.16-30.49 34.86-28.46 9.24 13.63 17.9 26.82 26.84 39.35 16.309 22.89 33.52 43.55 56.73 60.56z" fill="#3e3e7a"/><path d="m152.49 401.321c-9.17 16.17-15.48 36.4-15.87 60.56h-1.15c-16.55-14.09-32.73-35.47-42.2-58.09-1.85-4.1-2.62-9.03-2.48-13.36.52-16.57 17.16-30.49 34.86-28.46 9.239 13.63 17.899 26.82 26.84 39.35z" fill="#2c2c61"/></g></svg>