<svg id="Layer_1" enable-background="new 0 0 463.28 463.28" height="512" viewBox="0 0 463.28 463.28" width="512" xmlns="http://www.w3.org/2000/svg"><g><path d="m201.303 463.279c26.293-62.385 6.701-128.846-39.546-169.959-28.126-3.121-56.75-6.233-84.528-.734-39.873 7.913-73.92 43.348-75.288 85.658-.582 17.998 6.141 71.398 11.997 85.036 7.013-.001 180.368-.001 187.365-.001z" fill="#2c2c61"/><path d="m429.611 463.28h-390.6c17.71-71.33 76.03-113.37 143.07-141.27.05-.02.09-.04.14-.06 69.97-28.61 100.09-33.33 158.36-16.93 62.931 29.97 87.23 88.6 89.03 158.26z" fill="#f0e3e7"/><path d="m374.448 463.279c5.253-36.144 13.694-119.939-12.149-145.782-2.817-5.476 28.839 4.44 42.183 30.344 19.518 37.89 12.717 79.531 6.863 115.439h-36.897z" fill="#51518e"/><path d="m420.132 278.35c-13.13 31.83-39.53 56.42-72.34 66.86-21.05 6.71-43.73 10.36-67.37 10.36-110.39 0-199.88-79.6-199.88-177.79 0-67.91 42.81-126.93 105.74-156.86 28.049-13.35 60.1-20.92 94.14-20.92 31.21 0 58.6 6.78 83.5 18.4 21.71 10.14 36.68 30.75 40.04 54.48z" fill="#f0e3e7"/><path d="m280.422 355.57c0 20.85-140.26-21.33-152.75 107.71h-88.66c16.74-67.44 69.79-108.7 132.19-136.58-54.59-31.74-90.66-86.58-90.66-148.92 0-67.91 42.81-126.93 105.74-156.86-40.999 46.572-108.516 108.885-75.22 175.61 4.207 8.431 7.97 14.56 8.72 23.95 6.819 85.32 154.059 113.76 160.64 135.09z" fill="#e4d1d7"/><path d="m461.212 190.73c-3.42 73.7-61.7 120.44-142.98 127-10.55.85-20.7.86-30.38.05-66.41-5.46-111.16-48.67-116.92-115.22-6.82-78.94 60.84-159.29 147.65-159.37 1.45 0 2.9.02 4.34.06 81.349 2.17 142.02 67.19 138.29 147.48z" fill="#c5c5ff"/><path d="m287.851 317.78c-66.41-5.46-111.16-48.67-116.92-115.22-6.82-78.94 60.84-159.29 147.65-159.37 1.45 0 2.9.02 4.34.06-59.762 16.267-172.618 92.877-35.07 274.53z" fill="#a4a4f7"/><path d="m119.782 153.8c11.94-.55 19.63-.97 25.03-1.21 15.45-.71 30.31 6.87 38.2 20.17 13.667 23.065 12.411 58.148-19.737 73.18-8.118 3.796-24.712 6.7-34.383 8.33" fill="#e4d1d7"/><ellipse cx="119.785" cy="204.524" fill="#f0e3e7" rx="46.427" ry="50.723"/><path d="m217.512 463.27h-46.47c.16-33.46-5-55.48-12.51-69.95-18.54-35.75-51.4-25.44-53.72-27.73-6.09-5.99 13.35-26.67 41.29-26.61 0 0 32.54-2.33 53.97 32.07 3.19 5.1 6.12 11.01 8.67 17.86 0 1.46 11.299 23.39 8.77 74.36z" fill="#51518e"/><path d="m200.071 371.05c-14.75 4.22-29.32 11.01-41.54 22.27-18.54-35.75-51.4-25.44-53.72-27.73-6.09-5.99 13.35-26.67 41.29-26.61 0 0 32.541-2.33 53.97 32.07z" fill="#3e3e7a"/></g></svg>