<svg id="Layer_1" enable-background="new 0 0 462.532 462.532" height="512" viewBox="0 0 462.532 462.532" width="512" xmlns="http://www.w3.org/2000/svg"><g><path d="m280.228 335.225c34.81 11.739 90.272-3.533 79.5-18.801-9.247-13.105-11.832-40.373-2.542-68.164-21.595 11.638-49.858 33.87-70.478 47.028-3.919 2.501-7.877 5.078-10.881 8.55s3.682 26.931 4.401 31.387z" fill="#51518e"/><path d="m287.043 338.632c-.52 2.59-.97 4.87-1.27 6.39 0 0 .05.01.15.04 5.04 1.46 12 4.15 18.22 6.73 2.22.92 4.34 1.82 6.25 2.65 7.52 17.63-31.98 32.24-47.8 34.29-1.16.15-2.35.25-3.57.3-29.84 1.31-74.32-25.86-68.51-33.19 23.21-8.02 29.06-11.17 29.06-11.18.82-4.31.87-7.69 1.31-11.94 3.35-31.99-3.08-60.87-3.02-62.52-29.48-93.84 18.62-120.76 63.45-127.69 28.52-4.42 55.7-.74 60.74-1.07 57.98 52.12 59.04 179.63-51.47 179.72-.83 3.84-2.361 11.49-3.54 17.47z" fill="#ffb48d"/><g fill="#f5a27e"><path d="m266.103 334.322c1.18 5.78-4.49 9.97-12.99 12.69 1.46 13.26 3.4 27.26 5.91 42.02-29.84 1.31-74.32-25.86-68.51-33.19 23.21-8.02 29.06-11.17 29.06-11.18.82-4.31.87-7.69 1.31-11.94 3.35-31.99-3.08-60.87-3.02-62.52-29.48-93.84 18.62-120.76 63.45-127.69-7.59 11.08-38.119 55.248-33.649 160.058 7.669 8.759 16.568 22.612 18.439 31.752z"/><path d="m304.142 351.792c-12.07 3.13-20.99 6.61-20.99 6.61l2.62-13.38s.05.01.15.04c5.04 1.46 12 4.15 18.22 6.73z"/><path d="m290.583 321.162c-.83 3.84-2.36 11.49-3.54 17.47-12.76-8.53-16.29-21.66-16.29-21.66 7.689 3.04 12.81 3.82 19.83 4.19z"/></g><path d="m372.253 462.532h-290.66c4.49-25.85 16.62-46.81 33.24-63.48 19.48-19.53 44.81-31.56 58.66-37.14 7.28-3.46 19.24 4.03 33.74 12.67 15.48 9.23 33.87 19.78 52.59 19.71 21.94-.09 54.18-34.18 65.12-32.86 15.57 8.81 28.58 22.52 38.1 50.17 5.689 16.5 8.28 34.17 9.21 50.93z" fill="#fcf4f6"/><path d="m207.232 374.582c-26.99 4.87-67.46 23.04-70.54 87.95h-55.1c4.49-25.85 16.62-46.81 33.24-63.48 19.48-19.53 44.81-31.56 58.66-37.14 7.281-3.46 19.24 4.03 33.74 12.67z" fill="#f0e3e7"/><path d="m304.24 136.308c11.221 30.862-74.871 96.237-110.074 94.209-13.898-3.008 11.266-36.504 22.308-48.536 22.088-24.068 83.023-48.565 87.766-45.673z" fill="#51518e"/><path d="m308.133 101.002c6.43 9.94 10.53 14.82 23.14 27.39-41.86-5.37-108.22 15.61-158.36 86.99-2.47-8.33-7.21-26.36-10.96-36.97-16.74.64-29.89-2.09-39.8-7.04-53.13-26.5-13.24-116.67 64.6-92.77 3.87 1.18 7.84 2.66 11.89 4.43 46.47-159.78 200.63-50.71 119.71 11.16-3.06 2.35-6.461 4.62-10.22 6.81z" fill="#fcf4f6"/><path d="m318.353 94.192c-3.06 2.35-6.46 4.62-10.22 6.81-4.23-6.78-7.7-16.29-9.27-23.22 0 0 7.609 8.64 19.49 16.41z" fill="#f0e3e7"/><path d="m198.642 83.032c-3.91 13.56-11.77 19.61-20.65 21.48h-1.89s9.19-2.55 10.65-25.91c3.87 1.18 7.841 2.66 11.89 4.43z" fill="#f0e3e7"/><path d="m161.952 178.412c-16.74.64-29.89-2.09-39.8-7.04 8.421 2.837 31.797-3.457 33.76-10.68 2.08 5.9 5.241 14.92 6.04 17.72z" fill="#f0e3e7"/><path d="m172.91 215.385c64.652-107.958 146.742-89.843 158.361-86.997 8.677 8.479 14.078 15.862 22.953 26.125-16.602-19.491-131.682-5.451-170.396 97.822-3.585-11.344-4.219-9.679-10.918-36.95z" fill="#e4d1d7"/><path d="m181.719 246.992c-5.675 11-13.628 34.774-15.785 46.852-2.158 12.078-.266 25.385 7.989 34.796 8.185 9.33 21.182 13.45 33.742 15.71 19.561 3.52 59.016-.915 56.09-14.986-5.894-28.346-58.633-59.43-45.427-63.831z" fill="#51518e"/><path d="m213.829 294.88c-4.381-7.312-6.183-16.827-6.807-25.345-.185-2.527-3.007-3.99-5.272-2.75-1 .547-1.665 1.53-1.804 2.641-1.192 9.522-1.39 21.281 2.493 30.544.741 1.767 2.797 2.625 4.616 1.915l5.046-1.97c2.046-.8 2.838-3.182 1.728-5.035z" fill="#3e3e7a"/><path d="m231.517 265.837c-8.495 13.849-27.66 18.211-41.332 9.455-8.146-5.13-13.446-13.92-15.509-23.27-3.343-13.144 1.95-27.681 13.548-34.933 13.007-8.57 35.387-6.764 42.137 8.8z" fill="#f5a27e"/><path d="m204.735 239.134c5.23 5.312 7.88 12.93 7.29 20.319-.163 2.037 1.951 3.428 3.409 2.204l.059-.05c.251-.211.458-.485.593-.8 4.498-10.468 1.807-22.267-6.591-29.8-1.04-.933-2.569-.569-3.136.699l-2.114 4.723c-.401.894-.205 1.999.49 2.705z" fill="#eb8f65"/><path d="m326.824 362.525c-54.552 60.631-117.605 26.944-152.875-.813-1.01-7.891 13.629-12.578 20.097-7.093 17.635 13.673 42.892 23.177 69.062 22.578 16.638-.373 30.313-6.473 46.258-23.201 5.979-4.161 19.342 2.337 17.458 8.529z" fill="#ff6b7d"/><path d="m269.28 388.526s-10.399 33.773 40.712 48.52c1.032.298 2.108-.359 2.252-1.373 6.103-43.131-41.593-52.015-42.964-47.147z" fill="#ff8293"/><path d="m259.924 386.013s17.613 36.106-37.67 61.579c-1.117.514-2.447-.035-2.785-1.149-14.371-47.361 38.061-65.657 40.455-60.43z" fill="#ff8293"/><path d="m268.915 398.773h-10.318c-6.925 0-12.538-5.613-12.538-12.538v-4.916c0-6.925 5.613-12.538 12.538-12.538h10.318c6.925 0 12.538 5.613 12.538 12.538v4.916c0 6.924-5.613 12.538-12.538 12.538z" fill="#ff9fb3"/></g></svg>