<svg id="Layer_1" enable-background="new 0 0 459.78 459.78" height="512" viewBox="0 0 459.78 459.78" width="512" xmlns="http://www.w3.org/2000/svg"><g><path d="m293.977 352.64c-.29-.62-.85-1.22-1.25-1.83-.49-.22-.98-.43-1.47-.63-6.92-2.98-13.45-5.31-19.75-7.04-12.3-3.38-23.77-4.48-35.58-3.59-3.38.25-6.8.66-10.27 1.23-9.34 1.53-19.09 4.19-29.79 7.84-11.54 3.93-24.19 9.01-38.64 15.07-.12.15-.24.29-.36.44s-.23.3-.34.45c-3.37 4.52-3.25 9.32-.62 14.07 9.48 17.13 51.58 33.66 80.61 34.58 7.81.25 14.68-.63 19.71-2.94 2.58-1.18 5.19-2.66 7.77-4.37 19.22-12.76 36.85-38.61 29.98-53.28z" fill="#ffebd3"/><path d="m233.66 156.805c-90.576 37.21-148.173 94.645-141.893 112.24 21.641 17.577 97.177 7.53 179.006-26.088 87.746-36.048 151.146-85.644 145.251-112.49-6.537-13.177-91.788-10.872-182.364 26.338z" fill="#ffa654"/><path d="m273.387 330.96-1.37 8.85-.51 3.33-2.57 16.6h-73.46c0-3.35.17-7.04.38-11.01 0-.04 0-.07.01-.11 1.17-22.18 3.58-53.28-15.08-84.38-93.55-164.72 120.34-149.4 141.14-139.6 11.35 12.29 20.38 24.71 27.34 37.02 51.04 90.26-8.7 175.23-75.88 169.3z" fill="#ffebd3"/><g fill="#ffd5b7"><path d="m236.517 413.23c-29.03-.92-71.13-17.45-80.61-34.58-2.16-5.27-2.22-10.08.62-14.07.11-.15.22-.3.34-.45s.24-.29.36-.44c14.45-6.06 27.1-11.14 38.64-15.07 1.17-22.18 3.58-53.28-15.08-84.38-93.55-164.72 120.34-149.4 141.14-139.6 11.35 12.29 20.38 24.71 27.34 37.02-58.01 11.79-102.162 42.88-115.782 68.23-15.518 28.883-1.255 159.087 3.032 183.34z"/><path d="m273.387 330.96-1.37 8.85c-18.42-4.22-15.54-11.88-15.54-11.88 2.12.94 9.32 2.44 16.91 3.03z"/><path d="m291.257 350.18c-8.08 2.98-16.19 6.37-22.32 9.56l2.57-16.6c6.3 1.73 12.83 4.06 19.75 7.04z"/></g><path d="m324.967 459.78h-178.53c-8.44-5.83-15.62-16.63-20.54-28.61-8.36-20.34-10.19-44.07-.65-52.54 12.46-6.54 22.13-10.95 31.98-14.94 10.53 10 20.99 17.69 31.17 23.41 60.1 33.78 110.18-1.19 104.33-36.29 13.24 5.82 24.43 13.1 34.03 21.62 14.21 22.78 19.25 72.46-1.79 87.35z" fill="#fcf4f6"/><path d="m188.397 387.1c-21.8-.41-52.4 6.24-62.5 44.07-8.36-20.34-10.19-44.07-.65-52.54 12.46-6.54 22.13-10.95 31.98-14.94 10.53 10 20.99 17.69 31.17 23.41z" fill="#f0e3e7"/><path d="m146.437 459.78h-103.06c13.33-28.49 34.85-49.7 53.56-64.03 7.64-5.86 18.17-11.9 28.31-17.12 1.27 10.5 3.49 23.49 6.73 37.07 3.54 14.81 8.32 30.33 14.46 44.08z" fill="#ffb563"/><path d="m131.977 415.7c-5.81 10.57-9.45 24.87-9.47 44.08h-79.13c13.33-28.49 34.85-49.7 53.56-64.03 7.64-5.86 18.17-11.9 28.31-17.12 1.27 10.5 3.49 23.49 6.73 37.07z" fill="#ffa654"/><path d="m324.966 459.78c5.906-21.397 7.228-49.884 1.795-87.354 23.176 19.754 36.198 55.653 40.28 87.354z" fill="#ffb563"/><path d="m143.431 217.854c5.372 8.842 13.332 19.393 20.494 29.419 4.067-4.7 31.668-9.561 31.668-9.561 5.915-.649 22.907-68.643.065-72.747-1.133-9.33-42.249 19.012-55.203 35.039-3.177 3.932 2.976 17.85 2.976 17.85z" fill="#eb8f65"/><path d="m299.524 65.05c-7.506-13.448-16.81-31.472-25.439-50.424-3.475-7.632-9.917-13.046-17.444-14.186-17.329-2.626-36.302 6.89-52.229 17.85-54.397 37.435-124.486 60.817-120.446 96.307 1.862 16.361 14.452 22.327 31.117 45.509 15.524 3.744 170.804-70.896 184.441-95.056z" fill="#ffd084"/><path d="m344.657 127.384s-63.652.011-111.277 35.422c-45.1 33.541-90.321 50.261-91.441 47.54-9.538-23.187-18.725-38.834-26.856-50.24 31.612-26.167 115.903-89.955 184.442-95.056 26.961 47.832 45.132 62.334 45.132 62.334z" fill="#ffb563"/><path d="m416.024 130.467c-124.442 2.962-291.06 88.3-324.257 138.578-2.02-1.769-3.521-3.804-4.468-6.109-10.753-26.174 53.955-77.554 144.53-114.764 90.583-37.219 172.72-46.163 183.473-19.989.298.74.545 1.501.722 2.284z" fill="#ffd084"/><path d="m203.589 279.686c-9.615 13.119-29.096 15.893-42.016 6.032-7.705-5.789-12.27-14.995-13.559-24.494-2.254-13.389 4.224-27.458 16.392-33.738 13.682-7.48 35.863-3.836 41.317 12.248z" fill="#ffd5b7"/><path d="m182.888 270.856c.627-9.357-5.058-16.119-8.98-19.625-1.691-1.512-1.516-4.214.32-5.545l3.08-2.234c1.306-.948 3.083-.914 4.342.096 4.723 3.794 14.749 14.074 8.17 29.049-.251.572-.666 1.065-1.172 1.432l-.081.059c-2.495 1.811-5.885-.156-5.679-3.232z" fill="#ffc7a0"/><path d="m248.266 404.028-34.801-24.62c-16.417-10.807-38.108 1.146-38.108 21.001v7.239c0 19.854 21.691 31.808 38.108 21.001z" fill="#ffa654"/><path d="m233.484 403.709 29.81 21.24c16.354 10.766 37.963-1.142 37.963-20.921 0-19.79-21.618-31.68-37.963-20.921z" fill="#ffa654"/><path d="m243.812 419.023c-3.55 0-14.888 1.372-14.888-8.699 0-8.851-1.699-20.016 8.699-20.016 3.55 0 14.888-1.372 14.888 8.699 0 8.852 1.7 20.016-8.699 20.016z" fill="#ffd084"/></g></svg>