<svg id="Layer_1" enable-background="new 0 0 461.48 461.48" height="512" viewBox="0 0 461.48 461.48" width="512" xmlns="http://www.w3.org/2000/svg"><g><path d="m238.232 329.062c-22.784 6.062-57.436-5.353-77.349-20.529-3.369-2.567-5.733-2.617-9.358-10.845 2.058-7.197 59.39-7.315 74.253-6.792 11.721 10.062 31.272 23.992 12.454 38.166z" fill="#f6d14f"/><path d="m392.105 310.601c-9.439 32.514-97.689 39.941-107.928 25.549 5.899-38.343 23.95-45.493 23.95-45.493 32.086 2.748 83.217 15.404 83.978 19.944z" fill="#f6d14f"/><path d="m301.12 321.35c12.057 3.032 25.486 7.117 37.19 10.77-4.382 38.319-32.293 99.473-59.75 100.3-43.817 1.274-92.299-83.985-86.6-101.54 13.68-5.91 33.1-13.14 33.1-13.14.439-8.434.998-16.78.72-26.84-.605-21.54-5.182-40.848-16.17-59.19-5.772-12.376-10.854-25.576-14.2-38.87-31.3-124.34 115.17-118.78 121.55-125.4 10.25.98 30.4 11.97 47.7 33.6 80.597 100.752 15.29 205.687-60.24 198.98-.63 4.044-2.474 15.912-3.3 21.33z" fill="#ffebd3"/><path d="m290.14 160.38c-50.95 20.897-41.28 219.12-11.58 272.04-43.817 1.273-92.299-83.985-86.6-101.54 13.68-5.91 33.1-13.14 33.1-13.14.439-8.434.998-16.78.72-26.84-.605-21.54-5.182-40.848-16.17-59.19-5.772-12.376-10.854-25.576-14.2-38.87-31.3-124.34 115.17-118.78 121.55-125.4 10.25.98 30.4 11.97 47.7 33.6 3.12 3.9 6.02 7.8 8.7 11.7 0 0-3.909 15.11-83.22 47.64z" fill="#ffd5b7"/><path d="m304.42 300.02c-1.11 7.12-1.54 9.93-1.92 12.35-10.46-5.89-15.19-15.06-15.38-15.45 2.17.96 9.53 2.49 17.3 3.1z" fill="#ffd5b7"/><path d="m322.96 327.42c-9.91 1.07-24 6.04-24 6.04l2.16-12.11c6.84 1.72 14.06 3.76 21.84 6.07z" fill="#ffd5b7"/><path d="m177.724 181.097c5.499 9.052 19.306 24.438 26.638 34.703 4.163-4.812 21.097-9.809 21.097-9.809 26.509-41.265-2.445-73.962 6.565-80.382 282.29-20.075-94.217-87.237-65.823 28.659 1.807 7.378 5.443 16.175 11.523 26.829z" fill="#f5a27e"/><path d="m232.959 247.525c-9.844 13.431-29.787 16.271-43.015 6.175-7.888-5.926-12.561-15.351-13.881-25.076-2.308-13.707 4.324-28.11 16.781-34.54 14.008-7.657 36.716-3.928 42.299 12.539z" fill="#ffd5b7"/><path d="m211.77 238.879c.373-10.643-6.141-18.129-10.594-21.979-1.921-1.66-1.819-4.732.164-6.305l3.328-2.639c1.411-1.119 3.377-1.14 4.802-.035 5.349 4.15 16.781 15.486 10.021 32.703-.258.658-.699 1.231-1.246 1.665l-.088.07c-2.697 2.138-6.51.018-6.387-3.48z" fill="#ffc7a0"/><path d="m396.107 461.48h-336.339c6.191-24.938 19.032-46.841 36.037-65.75 102.996 11.537 205.312 32.799 300.526-2.19 3.635 19.562 2.352 42.137-.224 67.94z" fill="#ff8293"/><g fill="#ffe262"><path d="m396.331 393.54c-22.993 18.5-77.825 25.29-107.113 27.83-2.508 0-71.543 9.073-157.865-14.347-11.791-3.171-23.974-6.954-35.548-11.293 19.582-21.792 44.693-39.581 71.473-53.399 6.15-19.032-19.704-30.589-15.753-44.642 7.892 3.574 48.022 11.669 66.738 13.849 4.345.514 8.084 3.382 9.684 7.474 12.505 31.842 25.671 57.289 56.23 84.345 28.082-29.635 35.959-50.678 50.823-85.679.692-1.619 2.403-2.535 4.134-2.24 15.957 2.698 27.31.366 40.63-1.039 8.238-.866 12.016-2.21 12.341-3.798 6.456 17.372-21.964 33.318-18.115 39.234 12.535 12.474 19.235 26.995 22.341 43.705z"/><path d="m401.323 54.403c5.637 11.988-50.48 58.946-128.377 91.435-77.498 32.323-145.241 51.109-146.798 37.954-.863-7.289 54.292-48.186 127.381-86.401 74.411-38.905 142.157-54.976 147.794-42.988z"/><path d="m341.745 39.337c5.082 16.238-15.281 23.042-21.672 20.311-29.262-12.503-65.199-30.985-73.559-59.023 36.032-3.873 72.134 10.397 95.231 38.712z"/><path d="m266.643 100.394c-26.532 19.513-78.679 54.075-113.513 39.932-10.788-34.667-2.784-72.85 20.513-100.782 64.429-24.128 123.256 38.592 93 60.85z"/></g><path d="m356.458 63.133c-29.702 29.973-144.008 84.963-196.262 94.385-2.906-5.58-5.264-11.34-7.067-17.191 29.945-6.32 74.263-24.741 100.795-44.254 30.257-22.258-31.165-62.194-80.282-56.528 9.895-11.894 22.561-21.927 37.714-29.052 11.397-5.359 23.278-8.607 35.157-9.866 24.437 3.573 45.694 14.593 72.367 45.178 4.568 5.238 16.976-.077 22.865-6.468 5.797 7.068 10.759 15.025 14.713 23.796z" fill="#ff8293"/></g></svg>