<svg id="Layer_1" enable-background="new 0 0 461.62 461.62" height="512" viewBox="0 0 461.62 461.62" width="512" xmlns="http://www.w3.org/2000/svg"><g><path d="m325.828 385.981c5.989-30.297.218-49.708-12.842-70.157-31.92-49.98-128.783-52.808-159.797-3.098-22.075 41.62-9.583 48.098 8.777 72.578z" fill="#f6c719"/><path d="m189.354 287.671c-2.557 3.139 47.122-33.923 104.165-77.852 31.439-24.212 65.116-50.511 93.516-73.315 16.206-13.013 32.586-24.896 39.628-38.408-15.651-29.777-119.202-6.068-207.813 39.314-72.934 37.353-144.07 91.08-131.739 129.294 12.018 14.522 44.268 24.296 102.243 20.967z" fill="#ff6b7d"/><path d="m291.009 324.38c-6.67-2.66-12.86-4.82-18.73-6.49-22.36-6.38-39.89-5.83-59.8-.08-5.25 1.51-10.67 3.39-16.4 5.6-9.76 3.77-20.4 8.5-32.57 14.03-5.01 15.41 32.37 41.66 68.44 44.17 28.63 1.98 56.44-10.98 61.62-56.19-.86-.36-1.72-.7-2.56-1.04z" fill="#ffb48d"/><path d="m283.139 461.62h-94.71c-36.54-13.17-62.905-86.709-58.67-108.38 6.516-3.683 23.472-11.524 33.745-15.798 106.76 63.26 130.045-12.032 130.065-12.022 17.44 7.83 45.04 30.03 50.86 38.3 5.624 9.913-39.45 91.21-61.29 97.9z" fill="#8888e8"/><path d="m145.609 419.9-24.61 41.72h-86.97c7.31-29.46 22.68-53.12 43.07-72.41-.27-.34-.51-.68-.73-1.04 10.13-8.94 21.41-16.88 33.51-24.07 6.41-3.82 13.06-7.43 19.88-10.86 1.3 21.94 5.65 42.69 15.85 66.66z" fill="#f6d14f"/><path d="m365.899 461.62h-25.76c-28.69-30.89-32.98-63.03 4.19-97.81.03-.03.07-.06.1-.09 6.59 8.13 11.4 19.12 13.96 26.1 8.6 22.76 9.93 47.85 7.51 71.8z" fill="#f6d14f"/><path d="m193.219 461.62h-72.84c-9.27-11.22-17.13-23.62-23.28-36.83-1.41-3.05.26-6.64 3.49-7.59 7.75-2.3 18.56 1.56 28.06 2.5 6.08.61 8.23-7.96 2.59-10.31-19.34-8.05-46.18-10.1-54.14-20.18-.27-.34-.51-.68-.73-1.04-1.03-1.63-1.59-3.45-1.59-5.53-.02-35.6 94.73-111.23 146.17-111.23-37.04 18.2-57.95 43.57-67.18 70.06-16.97 48.63 5.38 101.08 39.45 120.15z" fill="#ffe262"/><path d="m366.649 380.12c-.53 2.53-2.58 5.04-5.56 7.58-.83.7-1.73 1.41-2.7 2.12-8.28 6.09-21.01 12.35-30.29 19.3-3.2 2.39-.82 7.46 3.07 6.58 9.91-2.26 21.76-5.82 21.76-5.82 3.89-.74 7.4 2.45 7.02 6.4-1.29 13.35-15.99 39.57-19.16 45.34h-57.65c28.5-32.47 34.92-86.77 21.31-131.12h-.01c-5.77-18.82-15.15-35.85-27.99-48.66 44.07 10.42 95.47 73.2 90.2 98.28z" fill="#ffe262"/><path d="m274.739 307.2c-.06 0-.12-.01-.17-.01-.4-.03-.63-.05-.63-.05l-1.39 8.99-.27 1.76-2.82 18.18h-73.85c0-3.81.22-8.05.47-12.66 1.19-22.19 3.1-52.77-15.24-83.35-82.04-176.07 141.31-167.91 141.9-140.35 5.56 6.02 10.57 12.08 15.04 18.13 71.86 97.07 8.89 194.96-63.04 189.36z" fill="#ffb48d"/><g fill="#f5a27e"><path d="m210.389 216.85c-5.17 20.49-5.84 42.52-3.75 64.36.12 1.38.26 2.78.41 4.16 1.22 10.97 3.1 21.85 5.43 32.44 1.35 6.2 2.86 12.31 4.48 18.26.43 1.62.88 3.23 1.33 4.82 2.04 7.21 4.22 14.18 6.47 20.83-16.48-2.48-36.65-9.7-61.25-24.28 12.17-5.53 22.81-10.26 32.57-14.03 1.19-22.19 3.1-52.77-15.24-83.35-82.04-176.07 141.31-167.91 141.9-140.35 5.56 6.02 10.57 12.08 15.04 18.13-51.75 16.79-114.36 47.38-127.39 99.01z"/><path d="m291.009 324.38c-7.95 2.46-15.2 6.24-21.55 11.69l2.82-18.18c5.87 1.67 12.06 3.83 18.73 6.49z"/><path d="m273.939 307.14-1.39 8.99c-8.82-3.69-15.34-11.71-15.6-12.03 2.13.94 9.36 2.44 16.99 3.04z"/></g><path d="m149.518 190.356c5.4 8.89 18.96 23.999 26.16 34.08 4.089-4.726 20.718-9.633 20.718-9.633 26.033-40.524 3.422-68.503 6.447-78.938 13.657-47.105 112.997-40.144 107.446-51.282-2.84-4.025-26.794 2.347-53.394 5.487-41.238 4.868-125.854 44.707-118.692 73.939 1.775 7.245 5.345 15.885 11.315 26.347z" fill="#51518e"/><path d="m203.762 255.591c-9.667 13.189-29.252 15.979-42.243 6.064-7.747-5.82-12.336-15.075-13.632-24.626-2.266-13.461 4.246-27.605 16.48-33.92 13.756-7.52 36.056-3.857 41.539 12.313z" fill="#f5a27e"/><path d="m181.676 247.007c-.162-9.587-6.704-16.434-10.938-19.871-1.801-1.462-1.872-4.065-.177-5.637l4.589-4.256c1.491-1.383 3.842-1.478 5.454-.221 5.612 4.38 16.521 15.506 8.865 31.538-.207.434-.509.832-.869 1.166-2.569 2.38-6.867.677-6.924-2.719z" fill="#eb8f65"/><path d="m199.29 28.062c-30.71 22.263-61.137 65.123-67.595 83.496-4.815 13.7-3.142 37.691 9.231 65.964 1.222 2.792 60.503-44.37 119.793-68.203 23.669-9.514-55.693-85.542-61.429-81.257z" fill="#ff9fb3"/><path d="m337.468 89.23c-37.935 8.358-80.459 17.74-113.108 32.888-10.796-16.501-27.837-81.048-31.802-82.998-1.798-.884-9.555 2.573-20.212 13.348 18.779-55.224 70.826-60.831 88.506-44.281 13.24 12.393 76.616 81.043 76.616 81.043z" fill="#ff6b7d"/><path d="m426.932 97.326s-.053.158-.27.77c-33.42-11.786-150.001 9.32-234.56 59.376-53.271 33.964-98.185 76.012-104.992 109.232-20.724-29.322 29.824-82.418 91.554-121.776 99.107-58.663 260.519-85.35 248.268-47.602z" fill="#ff8293"/><ellipse cx="258.874" cy="61.059" fill="#ff9fb3" rx="22.242" ry="27" transform="matrix(.93 -.368 .368 .93 -4.287 99.663)"/></g></svg>