<svg id="Layer_1" enable-background="new 0 0 461.733 461.733" height="512" viewBox="0 0 461.733 461.733" width="512" xmlns="http://www.w3.org/2000/svg"><g><path d="m16.264 185.753c1.222 8.216 4.851 16.735 11.093 25.206 7.589 10.299 17.763 18.373 29.188 24.162 53.446 27.096 130.493 15.001 145.817-7.912-6.357-156.578-184.677-89.461-186.098-41.456z" fill="#ffa654"/><path d="m287.636 325.723c-1.41-.64-2.82-1.26-4.21-1.85-9.85-4.19-19.17-7.09-28.33-8.78-11.32-2.08-22.4-2.33-33.92-.9-12.45 1.53-25.42 5.01-39.78 10.22-11.24 4.06-23.33 9.19-36.7 15.27-1.48 29.78 58.03 33.81 99.18 35.13 34.08-.95 47.58-28.81 43.76-49.09z" fill="#ffebd3"/><path d="m348.806 206.783c.2 58.53-44 102.43-92.14 98.18l-1.44 9.27-.13.86-2.75 17.77h-71.2c0-2.61.11-5.44.25-8.45.65-13.22 2.1-30.03-1.16-48.23-2.06-11.59-6.04-23.74-13.33-35.88-31.66-55.77-27-90.24-6.63-111.1 8.1-8.31 18.72-14.46 30.51-18.93 43.33-16.42 102.63-10.16 112.94-5.3.9.979 1.8 1.979 2.68 2.97 11.47 12.87 20.34 25.86 26.93 38.69 7.34 14.29 11.85 28.38 13.99 41.92.98 6.2 1.46 12.29 1.48 18.23z" fill="#ffebd3"/><g fill="#ffd5b7"><path d="m221.176 314.193c1.77 5.94 3.79 12.16 6.07 18.67 4.49 12.83 9.99 26.78 16.63 41.95-41.15-1.32-100.66-5.35-99.18-35.13 13.37-6.08 25.46-11.21 36.7-15.27.65-13.22 2.1-30.03-1.16-48.23-2.06-11.59-6.04-23.74-13.33-35.88-31.66-55.77-27-90.24-6.63-111.1 8.1-8.31 18.72-14.46 30.51-18.93 43.33-16.42 102.63-10.16 112.94-5.3.9.979 1.8 1.979 2.68 2.97 11.47 12.87 20.34 25.86 26.93 38.69 7.34 14.29 11.85 28.38 13.99 41.92-30.329 2.597-63.401 1.783-96.409.324-8.363-.369-16.625 2.463-22.761 8.157-15.219 14.122-28.319 45.871-6.98 117.159z"/><path d="m256.666 304.963-1.44 9.27c-12.96-4.61-15.11-11.68-15.11-11.68 2.12.95 8.92 1.81 16.55 2.41z"/><path d="m283.426 323.873c-11.36 2.48-21.81 5.44-31.08 8.99l2.75-17.77c9.16 1.69 18.48 4.59 28.33 8.78z"/></g><path d="m274.014 136.227c-17.724-1.873-70.176-1.131-78.042 2.151-19.038 7.944-27.348 26.505-16.149 65.584 11.504 40.143-25.394 44.102-31.151 34.071-3.613-6.296-6.675-12.293-8.907-15.967-21.709-32.428-34.986-68.652-19.189-98.356 27.587-53.711 108.615-39.311 153.438 12.517z" fill="#eb8f65"/><path d="m187.516 253.435c-9.667 13.189-29.251 15.978-42.241 6.064-7.746-5.819-12.335-15.075-13.631-24.625-2.266-13.46 4.246-27.604 16.479-33.918 13.755-7.52 36.055-3.857 41.537 12.313z" fill="#ffd5b7"/><path d="m165.731 243.688c1.593-9.973-3.658-17.437-8.038-21.767-2.185-2.16-1.47-5.806 1.406-6.928l1.031-.402c1.395-.544 2.977-.334 4.161.576 4.84 3.718 16.249 14.603 9.621 30.669-.443 1.074-1.309 1.933-2.401 2.359-3.04 1.184-6.289-1.32-5.78-4.507z" fill="#ffc7a0"/><path d="m100.736 135.183c-3.64.12 8.71-82.54 36.59-99.39 12.23-7.39 37.58-10.26 53.42-9.57.05-.03.1-.07.17-.12 3.06-2.05 6.56-4.49 10.4-7.03 17.1-11.33 40.72-24.79 60.35-16.51 5.49 2.32 10.66 6.32 15.29 12.55 27.99 37.64 31.91 66.19 53.89 78.09 1.92-.84 4.4-2.38 7.32-4.44 20.86-14.73 64-55.73 81.08-50.97 2.41.67 5.11 2.69 7.32 5.23 85.5 98.19-219.27 88.83-325.83 92.16z" fill="#ffd084"/><path d="m339.002 149.133c-117.786 13.44-283.602-31.444-322.738 36.62-5.788-38.985 42.604-71.732 122.633-66.232 45.48 4.164 84.212 5.826 117.131 5.572 185.058-1.428 186.415-63.435 170.399-82.245 58.65 59.463-28.041 100.633-87.425 106.285z" fill="#ffb563"/><path d="m261.666 2.563c-1.44 7.73-8.32 16.78-15.08 21.1-15.22 8.17-33.65 3.52-55.84 2.56.05-.03.1-.07.17-.12 3.06-2.05 6.56-4.49 10.4-7.03 17.1-11.33 40.72-24.79 60.35-16.51z" fill="#ffb563"/><path d="m330.946 93.153c-.04.02-.07.04-.1.05 4.71 2.57 10.04 4.05 16.31 4.26 0 0 5.83-12.26 5.15-19.58z" fill="#ffb563"/><path d="m287.96 63.337c-.293 20.437 2.564 28.988-10.446 36.978-7.809 4.795-21.388 4.789-27.06-2.264-8.668-10.778-8.37-10.407-13.963-17.361-3.953-4.914 1.789-23.556 19.18-29.636 17.72-6.195 32.375 6.247 32.289 12.283z" fill="#f6c719"/><path d="m361.746 461.733h-73.91l-30.97-21.52-25.86 21.52h-208.99c10.41-41.95 39.22-71.78 63.4-90.32 8.88-6.81 21.65-13.87 33.24-19.65l72.79 13.91 62.59 11.96 52.7-40.16c40.17 30.98 53.87 80.33 55.01 124.26z" fill="#ffd084"/><path d="m116.136 461.733h-94.12c10.41-41.95 39.22-71.78 63.4-90.32 8.88-6.81 21.65-13.87 33.24-19.65l72.79 13.91c-37.38 7.02-82.55 29.19-75.31 96.06z" fill="#ffb563"/><path d="m287.837 461.733h-56.828c-.716-25.321 3.147-56.926 10.646-77.13l22.037-5.117c14.264 19.969 22.881 54.417 24.145 82.247z" fill="#eb8f65"/><path d="m272.727 372.103c-.255 3.804-1.784 14.763-3.637 17.802-5.147 8.391-25.733 11.911-31.105 9.244-6.696-4.5-10.47-9.803-11.734-12.46-2.067-11.522 5.653-20.724 11.734-23.635 4.882-.961 9.352-2.343 13.43-4.039 5.975 1.109 17.526 3.964 21.312 13.088z" fill="#f5a27e"/><path d="m237.989 363.056c4.411 70.337-83.934 24.458-119.332-11.293 11.499-5.774 21.822-10.274 26.027-12.078h.01c28.232 16.328 61.121 28.866 93.295 23.371z" fill="#ffa654"/><path d="m306.738 337.47c-2.872 33.987-20.106 68.16-55.318 21.547 19.616-8.009 30.34-22.645 34.967-30.928.48-.863.892-1.657 1.245-2.363 6.97 3.539 13.322 7.47 19.106 11.744z" fill="#ffa654"/></g></svg>