<svg id="Layer_1" enable-background="new 0 0 461.861 461.861" height="512" viewBox="0 0 461.861 461.861" width="512" xmlns="http://www.w3.org/2000/svg"><g><path d="m367.386 214.068c2.662 22.473 29.28 57.6 16.8 67.68-22.991 18.57-106.596 4.396-111.84 3.12z" fill="#51518e"/><ellipse cx="368.106" cy="136.548" fill="#2c2c61" rx="38.88" ry="43.92"/><path d="m279.323 311.221c-.65 3.33-1.4 7.14-2.34 11.94 5.62 1.6 12.93 4.38 19.99 7.3 4.03 1.68 7.99 3.39 11.49 4.95.61.27 5.04 2.24 6.56 2.96v.01c-18.64 18.13-42.32 28.19-66.37 29.31-28.08 1.31-56.65-9.56-78.24-34 10.02-3.3 23.34-6.71 29.96-9.84h.01c8.11-42.11-1.37-84.37-1.3-86.51-47.87-64.46-18.57-124.22 33.55-152.74 15.24-8.34 32.44-14.01 50.22-16.35 5.81-.76 11.67-.75 17.41.07 5.95.84 11.77 2.55 17.26 5.16 3.62 1.72 7.11 3.68 10.48 5.84 79.34 50.85 89.32 216.35-45.51 216.47-1.18 5.43-2.05 9.73-3.17 15.43z" fill="#ffb48d"/><g fill="#f5a27e"><path d="m264.713 86.951c-29 43.94-49.6 55.28-16.06 280.74-28.08 1.31-56.65-9.56-78.24-34 10.02-3.3 23.34-6.71 29.96-9.84h.01c8.11-42.11-1.37-84.37-1.3-86.51-47.87-64.46-18.57-124.22 33.55-152.74 17.37-8 36.86-13.45 57.01-15.73 3.53-.4 7.09-.59 10.62-.55 5.95.84 11.77 2.55 17.26 5.16 3.62 1.72 7.11 3.68 10.48 5.84z"/><path d="m276.983 323.161c5.62 1.6 12.93 4.38 19.99 7.3-12.68 2.82-22.36 5.37-22.36 5.37z"/><path d="m282.493 295.791c-1.18 5.43-2.05 9.73-3.17 15.43-14.51-6.23-19.58-17.83-19.58-17.83v-2.4c8.82 3.48 14.7 4.38 22.75 4.8z"/></g><path d="m386.123 195.051-2.16-25.22c29.02-41 1.18-61.79-25.89-61.79-28.01 0-59.85 26.83-129.41-2.45 0 0 5.88 55.8-27.36 75.12l-.96 57.84c6.31 7.24 13.38 36.02 13.06 51.13-.05 2.49-2.06 4.49-4.55 4.51-12.4.09-46.16-4.33-71.57-15.34-14.5-6.28-26.29-14.7-29.82-25.66-5.72-17.75 36.31-30.72 14.4-62.64-37.53-54.71-19.39-127.24 42.48-130.08 36-85.92 170.93-61.49 205.2-39.84 9.07 5.73 17.14 12.69 24.02 20.58 34.63 39.7 39.39 103.14-7.44 153.84z" fill="#51518e"/><path d="m393.563 41.211c-29.25 21.67-95.2 33.88-174.69 27.65-74.86.39-79.55 48.74-73.66 72.74 7.23 29.41 32.33 115.99-7.93 137.25-14.5-6.28-26.29-14.7-29.82-25.66-5.72-17.75 36.31-30.72 14.4-62.64-37.53-54.71-19.39-127.24 42.48-130.08 36-85.92 170.93-61.49 205.2-39.84 9.07 5.73 17.14 12.69 24.02 20.58z" fill="#3e3e7a"/><path d="m212.372 233.97c-10.631 13.744-31.511 16.167-45.036 5.279-8.068-6.395-12.688-16.352-13.802-26.532-2.037-14.36 5.27-29.205 18.438-35.576 14.818-7.609 38.404-3.105 43.783 14.222z" fill="#f5a27e"/><path d="m189.237 219.478c.314-6.033-1.104-12.225-4.085-17.411-1.293-2.249-.627-5.157 1.481-6.46l2.568-1.587c2.062-1.274 4.722-.525 5.997 1.669 4.434 7.626 5.471 17.462 2.565 25.768-.355 1.013-1.017 1.868-1.893 2.409-3.016 1.864-6.828-.651-6.633-4.388z" fill="#eb8f65"/><path d="m376.543 461.861h-335.08c7.05-66.11 55.74-101.69 118.17-123.53.06-.02.12-.04.18-.06h.01c14.13 9.29 30.49 18.74 48.32 24.35 12.32 3.87 25.34 5.9 38.83 4.77 3.58-.3 14.78-2.1 18.24-2.74 17.82-3.24 51.91-25.38 55.54-23.38 9.76 5.38 18.24 12.19 25.42 21.21 22.94 28.83 29.47 64.33 30.37 99.38z" fill="#a4a4f7"/><path d="m122.193 461.861h-80.73c7.05-66.11 55.74-101.69 118.17-123.53.06-.02.12-.04.18-.06h.01c14.13 9.29 30.49 18.74 48.32 24.35-40.82 9.37-100.81 34.32-85.95 99.24z" fill="#8888e8"/><path d="m327.463 345.343c-51.949 54.252-117.62 40.88-176.97-3.69 0-5.826 11.72-14.14 23.37-8.06 45.841 33.08 95.173 42.332 134.6 1.82 9.99-3.22 18.09 2.9 19 9.93z" fill="#ff85d4"/><path d="m278.708 370.934s1.342 37.683 58.023 34.654c1.145-.061 1.999-1.1 1.789-2.172-8.948-45.612-60.134-37.87-59.812-32.482z" fill="#ffa4d7"/><path d="m268.398 371.676s30.394 30.227-16.411 75.258c-.945.91-2.479.821-3.21-.183-31.067-42.708 15.378-79.506 19.621-75.075z" fill="#ffa4d7"/><path d="m277.176 381.276-6.947 1.507c-6.767 1.468-13.443-2.827-14.912-9.594l-1.035-4.77c-1.468-6.767 2.827-13.443 9.594-14.912l6.947-1.507c6.767-1.468 13.443 2.827 14.912 9.594l1.035 4.77c1.468 6.767-2.827 13.443-9.594 14.912z" fill="#ffc4e0"/><path d="m199.463 437.357h-60.293c-5.269 0-9.54-4.271-9.54-9.54v-14.433c0-5.269 4.271-9.54 9.54-9.54h60.293c5.269 0 9.54 4.271 9.54 9.54v14.433c0 5.269-4.271 9.54-9.54 9.54z" fill="#fcf4f6"/></g></svg>