<svg id="Layer_1" enable-background="new 0 0 456.893 456.893" height="512" viewBox="0 0 456.893 456.893" width="512" xmlns="http://www.w3.org/2000/svg"><g><path d="m261.022 325.19c32.457 23.922 83.163 14.022 87.112-10.642 7.088-44.27-.416-62.902 16.792-98.073-25.522 12.237-60.918 38.272-85.871 52.885-4.743 2.777-9.546 5.655-13.624 10.011-4.078 4.355-3.88 39.295-4.409 45.819z" fill="#f5a27e"/><path d="m280.797 308.923c-.7 3.56-1.5 7.64-2.55 12.96 0 0 .19.05.54.15 6.58 1.94 16.86 6.11 25.3 9.72 2.01.87 3.92 1.7 5.65 2.46 2.26 9.75-22.09 31.73-50.75 40.04-9.98 2.9-20.49 4.14-30.57 2.63-41.27-6.19-60.72-27.61-64.13-40.04-.03-.09-.05-.17-.07-.25 1.58-.53 3.25-1.08 4.96-1.65.02-.01.04-.02.05-.02 12.14-4.01 26.85-8.77 34.46-12.37 1.38-7.17 1.96-14.56 1.96-21.89 0-34.52-12.8-67.41-14.24-67.62 0 0 10.71-146.3 87.24-156.34 11.51-1.52 25.2-1.12 39.07 2.16 28.95 13.81 50.04 42.69 60.11 74.97 19.98 63.97-3.28 141.33-94.21 141.41-1.05 4.85-1.85 8.77-2.82 13.68z" fill="#ffebd3"/><g fill="#ffd5b7"><path d="m377.827 153.833c-66.12 21.37-90.43 48.74-112.87 78.06-20.41 26.67-10.36 102.73-5.97 142.36 1.59 14.36 2.43 23.94.82 24.65-32.31 14.24-81.9-6.06-115.09-54.19 6.88-2.82 13.39-5.44 19.57-7.87 1.66-.65 3.29-1.29 4.89-1.9.02-.01.04-.02.05-.02 12.14-4.01 26.85-8.77 34.46-12.37 1.38-7.17 1.96-14.56 1.96-21.89 0-34.52-12.8-67.41-14.24-67.62 0 0 10.71-146.3 87.24-156.34 11.51-1.52 25.2-1.12 39.07 2.16 28.95 13.81 50.04 42.69 60.11 74.97z"/><path d="m278.787 322.033c6.58 1.94 16.86 6.11 25.3 9.72-15.39.47-28.14 2.46-28.14 2.46l2.3-12.33s.19.05.54.15z"/><path d="m283.617 295.243c-1.05 4.85-1.85 8.77-2.82 13.68-19.17-6.07-19.32-18.36-19.32-18.36 8.58 3.39 14.3 4.26 22.14 4.68z"/></g><path d="m170.227 340.263c-13.15 2-27.78 4.16-41.59-.59-5.09-1.81-9.32-4.3-12.61-7.38-11.49-10.71-11.74-28.52 1.62-49.4 12.98-20.29 20.99-33.83 20.62-42.27-1.22-21-14.57-40.41-20.19-57.38 8.3-16.3 16.23-29.69 23.81-40.34 3.92-5.49 7.73-10.25 11.47-14.3 13.16-14.32 25.21-19.8 36.25-17.44 10.68 2.28 20.43 11.89 29.35 27.92.91 14.62-6.15 29.95-16.15 41.14l-4.44 62.1c44.54 71.68 25.1 88.79-28.14 97.94z" fill="#f5a27e"/><path d="m360.967 91.103c-11.95-3.54-85.43-12.17-116.47-4.95-20.14 4.68-38.37 14.43-54.89 25.01-12.3 7.87-23.67 16.2-34.19 23.26-4.67 3.13-9.18 6.01-13.53 8.48-11.55 6.57-21.99 10.28-31.47 8.27-7.62-49.31 9.49-87.52 59.02-101.74 4-1.14 7.46-3.72 9.52-7.33 20.28-43.86 117.87-59.34 161.61-17.74 15.45 14.7 24.18 36.52 20.4 66.74z" fill="#f5a27e"/><path d="m340.567 24.363c-38.26-5.17-116.87-9.42-140.32 37.72-31.4 63.09-64.65 65.787-64.65 65.787s16.4-3.057 17.76.733c10.305 28.812 37.49 111.167 24.42 139.12-10.21 21.84-41.34 48.6-61.75 64.57-11.49-10.71-11.74-28.52 1.62-49.4 12.98-20.29 20.99-33.83 20.62-42.27-1.22-21-14.57-40.41-20.19-57.38 8.3-16.3 16.23-29.69 23.81-40.34-11.55 6.57-21.99 10.28-31.47 8.27-7.62-49.31 9.49-87.52 59.02-101.74 4-1.14 7.46-3.72 9.52-7.33 20.28-43.86 117.87-59.34 161.61-17.74z" fill="#eb8f65"/><path d="m375.157 456.893h-326.15c6.1-57.12 44.33-90.02 90.66-110.66 13.41 2.73 29 13.01 44.25 20.84 2.79 1.43 5.58 2.78 8.33 3.99 35.26 15.44 53.28 17.04 68.57-11.82 1.5-.19 2.99-.42 4.46-.67 1.33-.24 2.65-.49 3.96-.78 1.13-.24 2.26-.51 3.38-.8 11 11.19 21.55 20.7 34.59 6.39 6.04-6.64 9.84-18.48 19.07-20.29 35.52 23.86 47.7 67.94 48.88 113.8z" fill="#ff9fb3"/><path d="m145.397 456.893h-96.39c6.1-57.12 44.33-90.02 90.66-110.66 13.41 2.73 29 13.01 44.25 20.84-26.21 10.5-49.24 34.81-38.52 89.82z" fill="#ff8293"/><path d="m260.818 359.239c-2.34 52.77-80.15 20.44-121.15-13.01 7.98-3.56 16.2-6.75 24.54-9.64h.01c24.5 16.1 63.23 27.01 96.6 22.65z" fill="#ff6b7d"/><path d="m326.278 343.089c-10.1 23.18-40.19 56.42-53.66 13.9 14.65-3.76 27.67-11.03 37.12-22.78.1.04.2.08.3.12 5.89 2.49 11.29 5.43 16.24 8.76z" fill="#ff6b7d"/><path d="m208.79 233.835c-10.348 13.377-30.671 15.737-43.836 5.138-7.853-6.224-12.35-15.916-13.434-25.825-1.982-13.978 5.129-28.427 17.946-34.627 14.423-7.406 37.381-3.022 42.616 13.843z" fill="#ffd5b7"/><path d="m187.426 220.485c.611-6.315-.819-12.912-4.073-18.299-1.123-1.86-.489-4.321 1.318-5.365l2.179-1.259c1.644-.95 3.742-.42 4.795 1.251 4.666 7.41 5.808 17.243 2.837 25.472-.312.863-.886 1.589-1.651 2.031-2.572 1.487-5.705-.731-5.405-3.831z" fill="#ffc7a0"/><path d="m406.194 136.471c-3.868 2.827-102.998 8.823-151.503 11.6-13.885.795-27.514-3.272-39.019-11.086-8.45-5.739-20.985-10.339-37.282-5.717 43.082-47.884 137.431-70.081 186.192-33.629 11.413 8.532 14.638 21.648 39.531 30.856 3.43 1.339 5.367 5.584 2.081 7.976z" fill="#ff6b7d"/><path d="m372.873 105.672c-21.71-16.002-117.985-35.572-205.225 33.647l-49.57 43.92c-3.42-10.73-6.03-21.5-7.66-32.07 127.19-127.15 232.04-87.06 250.43-66.43 4.208 6.544 6.005 11.332 12.025 20.933z" fill="#ff8293"/><path d="m209.115 436.412h-62.674c-5.269 0-9.54-4.271-9.54-9.54v-15.439c0-5.269 4.271-9.54 9.54-9.54h62.674c5.269 0 9.54 4.271 9.54 9.54v15.439c0 5.269-4.271 9.54-9.54 9.54z" fill="#fcf4f6"/><circle cx="290.904" cy="395.94" fill="#ff6b7d" r="9.043"/><circle cx="290.904" cy="436.716" fill="#ff6b7d" r="9.043"/><g><path d="m269.277 423.033c0 1.1-.89 2-2 2-1.1 0-2-.9-2-2v-64.46c1.33-.24 2.65-.49 3.96-.78.071.306.03-3.436.04 65.24z" fill="#ff8293"/></g></g></svg>