<svg id="Layer_1" enable-background="new 0 0 460.634 460.634" height="512" viewBox="0 0 460.634 460.634" width="512" xmlns="http://www.w3.org/2000/svg"><g><path d="m324.929 309.684c-.32-.7-.95-1.38-1.41-2.07-1.78-.75-3.54-1.46-5.28-2.14-6.93-2.69-13.52-4.8-19.91-6.35-15.45-3.76-29.74-4.29-44.77-2.18-10.73 1.51-21.85 4.37-34.04 8.37-14.44 4.74-30.39 11.09-49.02 18.71 29.83 43.26 73.29 63.38 104.48 55.2 2.53-.66 4.98-1.51 7.34-2.55 24.799-10.93 51.41-48.19 42.61-66.99z" fill="#ffb48d"/><path d="m300.419 285.604-1.14 7.35-.95 6.17-2.55 16.48h-76.6c0-3.15.14-6.6.34-10.29 1.19-23.19 4.17-56.24-15.66-89.28-43.32-92.99-4.52-136.43 44.09-152.89 46.84-15.88 102.79-6.7 103.09 7.33 98.57 106.77 28.99 222.16-50.62 215.13z" fill="#ffb48d"/><g fill="#f5a27e"><path d="m274.979 379.224c-31.19 8.18-74.65-11.94-104.48-55.2 18.63-7.62 34.58-13.97 49.02-18.71 1.19-23.19 4.17-56.24-15.66-89.28-43.32-92.99-4.52-136.43 44.09-152.89l12.58 26.42s-36.35 61.9-6.97 207.38c1.229 6.07 2.57 12.29 4.03 18.66 4.54 19.77 10.27 40.96 17.39 63.62z"/><path d="m300.419 285.604-1.84 11.91c-11.87-6.66-17.31-15.43-17.31-15.43 2.41 1.08 10.49 2.84 19.15 3.52z"/><path d="m318.239 305.474c-11.99 4.47-22.46 10.13-22.46 10.13l2.55-16.48c6.39 1.55 12.98 3.66 19.91 6.35z"/></g><path d="m411.859 106.804c-42.67 35.95-212.36-45.74-195.01 24.31 12.76 35.53-23.72 64.63-23.72 64.63s-13.74 10.65-18.36 15.99c-7.92-11.08-16.69-22.73-22.76-32.6-.18-.27-.34-.54-.5-.8-35.26-52.68-25-74.14-12.47-94.79-6.75-74.01 98.11-89.54 41.68-28.99 53.69-42.43 112.64-59.3 161.37-53.42 25.64 3.09 48.46 12.48 66.18 27.76 27.61 23.79 25.65 59.33 3.59 77.91z" fill="#51518e"/><path d="m342.089 1.134c-13.84 19.66-49.68 48.87-139.88 83.44-18.35 7.04-32.67 21.91-38.75 40.6-4.3 13.21-8.62 30.95-11.45 53.96-.18-.27-.34-.54-.5-.8-35.26-52.68-25-74.14-12.47-94.79-6.75-74.01 98.11-89.54 41.68-28.99 53.689-42.43 112.64-59.3 161.37-53.42z" fill="#3e3e7a"/><path d="m227.64 232.14c-10.026 13.679-30.338 16.572-43.811 6.289-8.034-6.036-12.794-15.635-14.138-25.54-2.35-13.961 4.404-28.63 17.092-35.179 14.267-7.799 37.395-4 43.082 12.771z" fill="#f5a27e"/><path d="m206.516 222.801c1.365-10.638-4.392-18.498-8.871-22.877-2.111-2.064-1.571-5.634 1.052-6.953l1.858-.935c1.465-.737 3.207-.538 4.49.494 5.064 4.073 16.47 15.594 9.541 32.504-.397.968-1.12 1.765-2.042 2.229-3.037 1.527-6.467-1.037-6.028-4.462z" fill="#eb8f65"/><path d="m409.599 460.634h-37.4l-111.16-28.68-97.47 28.68h-131.63c7.64-30.81 22.88-55.84 43.19-76.51h.01c11.17-11.38 23.88-21.43 37.69-30.4 17.7-11.51 37.22-21.24 57.67-29.69 27.69 16.4 50.76 24.36 69.85 26.89.4.05.71.09.93.12.07.01.14.02.2.02.04.01.08.01.11.02.03 0 .06.01.08 0 62.54 7.56 81.82-43.47 81.85-43.47 16.19 7.7 29.74 17.36 40.94 28.68h.01c10.39 10.49 18.76 22.4 25.34 35.49 12.92 25.7 18.94 55.95 19.79 88.85z" fill="#f0e3e7"/><path d="m170.499 324.034c27.69 16.4 50.76 24.36 69.85 26.89-13.88-1.6-132.65-11.9-113.55 109.71h-94.86c7.64-30.81 22.88-55.84 43.19-76.51h.01c11.17-11.38 23.88-21.43 37.69-30.4 17.7-11.51 37.22-21.24 57.67-29.69z" fill="#e4d1d7"/><path d="m268.385 362.302-36.242-25.639c-17.097-11.255-39.686 1.194-39.686 21.87v7.538c0 20.676 22.589 33.124 39.686 21.87z" fill="#2c2c61"/><path d="m252.992 361.97 31.044 22.119c17.031 11.211 39.534-1.189 39.534-21.786 0-20.609-22.513-32.991-39.534-21.786z" fill="#2c2c61"/><path d="m263.747 377.918c-3.697 0-15.504 1.428-15.504-9.059 0-9.217-1.77-20.844 9.059-20.844 3.697 0 15.504-1.428 15.504 9.059 0 9.217 1.77 20.844-9.059 20.844z" fill="#51518e"/><path d="m389.809 371.784c-17.51 9.56-19.43 45.05-17.61 88.85h-208.63c-4.98-24.81-18.26-44.13-33.99-57.21-17.84-14.83-38.83-21.63-54.44-19.3h-.01c-8.02-11.89 24.38-37.99 37.7-30.4 10.53 9.38 20.83 17.73 30.87 25.12 134.64 99.15 223.64 26.7 220.76-42.55h.01c19.5.01 30.85 29.52 25.34 35.49z" fill="#3e3e7a"/><path d="m143.699 378.844c-5.89 6.61-10.78 14.7-14.12 24.58-17.84-14.83-38.83-21.63-54.44-19.3h-.01c-8.02-11.89 24.38-37.99 37.7-30.4 10.53 9.38 20.829 17.73 30.87 25.12z" fill="#2c2c61"/></g></svg>