<svg id="Layer_1" enable-background="new 0 0 462.703 462.703" height="512" viewBox="0 0 462.703 462.703" width="512" xmlns="http://www.w3.org/2000/svg"><g><path d="m342.261 246.563c-6.715 23.506 6.756 46.649 14.72 75.231 15.003 53.843-120.064 31.435-105.956 5.446z" fill="#51518e"/><path d="m292.191 323.633c-.54 2.76-1.15 5.89-1.9 9.689 7.52 2.36 13 4.37 17.83 6.391 4.2 1.76 7.91 3.51 12.04 5.5 1.04.5-13.74 17.21-33.83 29.22-13.29 7.939-28.9 13.83-43.79 11.6-39.82-5.97-71.81-34.859-71.81-34.859 13.77-5.521 36.39-11.67 48.11-17.2 0 0 0 0 0-.01 7.57-39.271-1.27-78.69-1.21-80.681-48.22-64.939-12.49-124.76 43.36-148.279 10.97-4.641 22.73-7.86 34.78-9.44 11.03-1.45 22.29.09 32.34 4.88 82.74 39.47 98.43 207.24-32.68 207.351-1.2 5.518-2.05 9.778-3.24 15.838z" fill="#ffb48d"/><g fill="#f5a27e"><path d="m308.121 339.713c-11.53 1.47-20.04 5.43-20.04 5.43l2.21-11.82c7.52 2.36 13 4.37 17.83 6.39z"/><path d="m295.431 307.793c-1.2 5.52-2.05 9.779-3.24 15.84-15.39-9.5-17.98-20.32-17.98-20.32 8.23 3.25 13.71 4.09 21.22 4.48z"/><path d="m286.331 374.433c-13.29 7.939-28.9 13.83-43.79 11.6-39.82-5.97-71.81-34.859-71.81-34.859 13.77-5.521 36.39-11.67 48.11-17.2 0 0 0 0 0-.01 7.57-39.271-1.27-78.69-1.21-80.681-48.22-64.939.93-139.17 56.78-162.689-43.06 90.023-26.089 231.883 11.92 283.839z"/></g><path d="m226.881 462.703h-156.27c5.82-54.59 42.29-86.109 86.53-105.89 3.77-1.68 9.92-4.07 16.03-6.35 2.11 2.75 5.43 7.71 9.4 14.08 16.94 27.16 45.81 80.12 44.31 98.16z" fill="#fcf4f6"/><path d="m129.751 462.703h-59.14c5.82-54.59 42.29-86.109 86.53-105.89 3.77-1.68 9.92-4.07 16.03-6.35 2.11 2.75 5.43 7.71 9.4 14.08-30.02 12.88-54.75 40.76-52.82 98.16z" fill="#f0e3e7"/><path d="m322.681 346.493c13.83 12.42 12.39 107.58-21.35 116.21h-47.75c-19.625-3.005-66.233-79.696-61.33-119.04 42.99 28.271 95.82 21.9 119.6-2.29 3.72 1.61 7.34 3.31 10.83 5.12z" fill="#ff9fb3"/><path d="m328.321 462.703c-9.27-9.71 4.77-105.65 13.9-103.79 24.22 19.11 39.54 49.04 40.94 103.79z" fill="#fcf4f6"/><path d="m253.581 462.703h-26.7c-25.05-30.649-49.58-96.88-53.71-112.239 9.46-3.53 18.82-6.801 19.08-6.801 6.4 32.07 38.24 83.02 61.33 119.04z" fill="#f0e3e7"/><path d="m328.321 462.703h-26.99c28.03-44.109 22.45-106.31 21.35-116.21 7.01 3.62 13.55 7.69 19.54 12.41v.01c8.6 43.13-7.89 90.5-13.9 103.79z" fill="#f0e3e7"/><path d="m125.141 171.733c-18.75-46.25-3.76-80.649 49.69-96.78 8.67-9.699 16.96-16.779 25.01-21.659 47.39-6.74 46.31 36.82 27.21 52.3-.22 13.079-84.594 79.572-101.91 66.139z" fill="#3e3e7a"/><path d="m251.331 345.133c.68 22.7-75.04 22.5-116.48 3.27-14.17-6.569-24.33-15.37-26.07-26.229-2.85-17.9 54.36-86.61 33.92-117.771-1.66-2.54-3.25-5.06-4.75-7.55-2.95-12.52 33.99-39.78 66.05-57.04 21.86-11.76 41.46-18.88 44.59-13.49-1.35 24.71-12.51 57-31.47 68.48l-32.52 32.25c6.79.2 64.03 27.36 66.73 118.08z" fill="#51518e"/><path d="m204.001 139.813c-72.494 55.617 18.099 140.568-69.15 208.59-14.17-6.569-24.33-15.37-26.07-26.229-2.85-17.9 54.36-86.61 33.92-117.771-1.66-2.54-3.25-5.06-4.75-7.55-2.95-12.52 33.99-39.78 66.05-57.04z" fill="#3e3e7a"/><path d="m230.026 250.131c-9.916 12.819-29.392 15.08-42.007 4.924-7.526-5.965-11.835-15.252-12.874-24.748-1.9-13.395 4.915-27.241 17.198-33.183 13.822-7.097 35.822-2.896 40.839 13.265z" fill="#f5a27e"/><path d="m209.492 235.889c1.159-6.139.184-12.699-2.71-18.235-1.342-2.567.183-5.69 3.047-6.127l.04-.006c1.523-.233 3.081.368 3.979 1.62 5.096 7.103 6.516 16.77 3.674 25.039-.496 1.442-1.792 2.461-3.299 2.692-2.884.439-5.272-2.118-4.731-4.983z" fill="#eb8f65"/><path d="m369.201 137.353c-15.88-25.33-58.87-29.24-107.18-15.31-41.53 11.979-86.99 37.149-122.52 73.229-.52.53-1.04 1.05-1.55 1.58-5.28-8.7-9.55-17.09-12.81-25.12 29.4-31.83 68.83-55.83 101.91-66.14-13.64-21.391-24.18-39.45-27.21-52.3-.35-1.48-.61-2.9-.75-4.24-.46-4.23.16-7.75 2.06-10.45 3.18-4.56 6.5-8.64 9.92-12.28.69-.72 1.38-1.43 2.07-2.13 9.37-9.34 19.48-15.5 29.77-19.27.76-.271 1.52-.54 2.28-.801 9.77-3.229 19.66-4.369 29.21-4.079h.01c32.53 1 61.08 18.619 66.99 26.75 5.04 6.201 16.71 19.231 27.8 110.561z" fill="#f0e3e7"/><path d="m227.411 56.213c11.94 26.89 27.6 51.09 34.61 65.83-41.53 11.979-86.99 37.149-122.52 73.229-.52.53-1.04 1.05-1.55 1.58-5.28-8.7-9.55-17.09-12.81-25.12 29.4-31.83 68.83-55.83 101.91-66.14-13.64-21.391-24.18-39.45-27.21-52.3-.35-1.48-.61-2.9-.75-4.24-.46-4.23.16-7.75 2.06-10.45 3.18-4.56 6.5-8.64 9.92-12.28.69-.72 1.38-1.43 2.07-2.13 9.37-9.34 19.48-15.5 29.77-19.27.76-.271 1.52-.54 2.28-.801 9.77-3.229 19.66-4.369 29.21-4.079-14.46 4.329-33.66 12.149-47.36 27.319-4.37 4.84-8.97 9.71-4.37 18.66 1.7 3.332 3.22 6.772 4.74 10.192z" fill="#e4d1d7"/></g></svg>