<svg id="Layer_1" enable-background="new 0 0 462.718 462.718" height="512" viewBox="0 0 462.718 462.718" width="512" xmlns="http://www.w3.org/2000/svg"><g><path d="m308.675 333.606c-.02-.14-.04-.27-.07-.409-6.29-2.86-12.34-5.19-18.25-6.99-19.29-5.89-37.09-6.25-56.89-1.97-.57.119-1.14.25-1.72.38-6.34 1.45-12.9 3.37-19.78 5.729-11.98 4.09-24.94 9.521-39.49 16.141-.39 7.76 3.58 13.689 10.34 18.22 2.75 1.85 5.97 3.46 9.54 4.88 9.65 3.83 21.93 6.2 34.78 7.72 11.52 1.36 23.49 2.04 34.43 2.45 1.82.061 3.61.12 5.36.18 6.56-.18 12.32-1.409 17.3-3.409.28-.11.56-.23.84-.351 6.6-2.81 11.79-7.01 15.65-11.92 7.17-9.161 9.69-20.811 7.96-30.651z" fill="#ffebd3"/><path d="m292.185 314.386-1.63 10.53-.2 1.29-2.79 18.01h-76.13c0-4.149.25-8.8.53-13.87 1.23-22.81 2.93-53.96-15.76-85.109-1.59-2.79-3.09-5.53-4.5-8.23-31.43-96.51 46.85-132.61 105.12-142.14 22.34.239 40.27 3.14 45.67 5.68 30.34 32.86 44.65 66.55 47.6 97.19.01.069.01.14.02.21 6.47 68.209-43.36 121.259-97.93 116.439z" fill="#ffebd3"/><g fill="#ffd5b7"><path d="m390.095 197.736c-93.389-9.377-149.207 55.363-160.5 149.01-1.02 8.32-21.34 12.31-37.24 22.84-10.997-4.374-20.472-11.32-19.88-23.1 14.55-6.62 27.51-12.051 39.49-16.141 1.23-22.81 2.93-53.96-15.76-85.109-1.59-2.79-3.09-5.53-4.5-8.23-31.43-96.51 46.85-132.61 105.12-142.14 22.34.239 40.27 3.14 45.67 5.68 30.34 32.86 44.65 66.55 47.6 97.19z"/><path d="m292.185 314.386-1.63 10.53c-13.86-4.32-15.89-13.67-15.89-13.67 2.19.98 9.65 2.53 17.52 3.14z"/><path d="m309.055 333.416-.76.38-20.73 10.42 2.79-18.01c5.91 1.8 11.96 4.13 18.25 6.99.15.07.3.15.45.22z"/></g><path d="m178.734 227.653c4.215-4.872 29.089-10.588 29.089-10.588 19.168-11.302 45.207-74.55 21.27-81.464-1.76-10.19-77.159 45.382-71.432 61.982 5.434 7.253 13.65 19.678 21.073 30.07z" fill="#eb8f65"/><path d="m219.842 261.246c-9.966 13.597-30.156 16.472-43.547 6.251-7.986-5.999-12.716-15.541-14.053-25.386-2.336-13.877 4.378-28.458 16.989-34.967 14.181-7.752 37.17-3.976 42.822 12.694z" fill="#ffd5b7"/><path d="m198.307 251.748c1.058-9.771-4.559-16.925-8.719-20.796-1.895-1.764-1.579-4.84.65-6.157l2.378-1.405c1.379-.814 3.111-.694 4.365.303 4.806 3.823 15.315 14.401 8.736 29.87-.329.775-.887 1.433-1.612 1.861-2.708 1.6-6.136-.548-5.798-3.676z" fill="#ffc7a0"/><path d="m366.225 122.906c1.667-7.443 12.526-13.449 17.559-19.8 7.852-9.907 5.672-23.543 2.631-35.79-34.67-139.636-224.109-35.102-268.762 70.57-17.744 48.656 11.043 22.891 26.173 42.111l117.115-63.319c63.501-8.106 89.029-5.195 105.284 6.228z" fill="#f0e3e7"/><path d="m405.636 160.417c-4.29 3.45-44.05-5.85-127.32 6.71-3.54.54-7.13.79-10.72.71-44.857-1.016-46.389-23.309-62.23-12.79 28.29-47.47 137.01-51.43 173.21-21.75 4.76 6.761 12.25 14.37 25.32 19.71 2.88 1.25 4.51 5.19 1.74 7.41z" fill="#3e3e7a"/><path d="m378.576 133.297c-54.16-18.29-118.456-21.602-171.906 20.728-2.055 1.791-36.915 30.531-49.008 43.558l-13.836-17.586c106.502-118.681 207.189-89.401 224.829-64.021 2.693 6.689 4.446 9.514 9.921 17.321z" fill="#51518e"/><g><path d="m342.905 52.945c0 14.672-12.691 26.611-28.288 26.611-15.431 0-28.008-11.685-28.275-26.142-.063-3.397 2.69-6.446 6.302-6.502 3.592-.056 6.523 2.667 6.523 6.033 0 3.656 1.44 7.001 3.816 9.557 1.889 2.033 5.462.732 5.462-1.968v-21.809c-2.274-1.728-3.712-4.386-3.661-7.36.083-4.843 4.292-8.902 9.437-9.1 5.632-.217 10.269 4.004 10.269 9.253 0 2.912-1.427 5.508-3.663 7.207v21.771c0 2.754 3.635 3.978 5.537 1.885 2.282-2.512 3.673-5.764 3.706-9.31.029-3.21 2.691-6.001 6.1-6.153 3.692-.165 6.735 2.596 6.735 6.027z" fill="#2c2c61"/></g><path d="m379.175 462.716h-70.38l-29.49-20.49-24.63 20.49h-199.02c9.91-39.939 37.34-68.35 60.37-86.01 8.46-6.48 20.62-13.21 31.66-18.71l44.71 8.54 84.21 16.09 50.19-38.25c7.83 6.05 14.84 13.12 20.68 20.43 5.88 7.38 13.81 44.91 24.33 48.16 4.05 9.37 7.09 38.93 7.37 49.75z" fill="#fcf4f6"/><path d="m133.715 462.716h-78.06c9.91-39.939 37.34-68.35 60.37-86.01 8.46-6.48 20.62-13.21 31.66-18.71l50.832 7.905c-27.89 4.02-68.072 24.245-64.802 96.815z" fill="#f0e3e7"/><path d="m308.796 462.718h-54.118c-.681-24.113 2.997-54.212 10.139-73.452l20.986-4.873c13.583 19.016 21.789 51.822 22.993 78.325z" fill="#3e3e7a"/><path d="m294.406 377.362c-.243 3.622-1.699 14.059-3.463 16.953-4.901 7.991-24.506 11.343-29.622 8.803-6.376-4.285-9.97-9.336-11.175-11.866-1.968-10.973 5.384-19.736 11.175-22.508 4.649-.915 8.906-2.231 12.79-3.846 5.689 1.056 16.69 3.775 20.295 12.464z" fill="#51518e"/><path d="m261.325 368.746c4.201 66.983-79.932 23.292-113.642-10.755 10.951-5.499 20.781-9.784 24.786-11.502h.009c26.886 15.55 58.207 27.49 88.847 22.257z" fill="#e4d1d7"/><path d="m326.795 344.376c-2.43 28.87-15.76 57.88-42.4 32.31-.06-.05-.11-.1-.17-.159-3.18-3.07-6.55-6.91-10.11-11.631 15.41-6.29 27.53-18.159 34.18-31.1.11-.2.21-.4.31-.6.15.069.3.149.45.22 5.94 2.97 12.77 7.23 17.74 10.96z" fill="#e4d1d7"/><path d="m373.474 418.117c-.42 2.579-5.737 2.756-9.949 3.499-2.787.492-3.492-1.454-5.135-5.042-2.997-14.217-15.705-35.406-23.515-45.212-1.678-2.107-1.707-5.079-.043-7.197 2.356-2.999 5.242-6.61 5.642-7.395 18.367 11.944 32.358 35.979 33 61.347z" fill="#2c2c61"/><path d="m141.855 382.916c-10.855 7.133-34.8 26.4-50.024 49.632-1.301 1.986-4.236 1.951-5.656.048-7.485-8.136-7.77-7.2-12.132-11.547 6.372-17.096 28.692-44.853 55.876-53.499 2.129-.554 18.236 11.226 11.936 15.366z" fill="#2c2c61"/></g></svg>