<svg id="Layer_1" enable-background="new 0 0 460.951 460.951" height="512" viewBox="0 0 460.951 460.951" width="512" xmlns="http://www.w3.org/2000/svg"><g><path d="m54.313 247.011c24.348 28.38 117.7 33.159 214.132 1.817 96.426-31.34 169.796-84.797 172.148-127.357-57.612-107.92-398.892 12.32-386.28 125.54z" fill="#ffa654"/><path d="m287.651 323.211c-.3-.64-.87-1.26-1.29-1.89-2.64-1.12-5.22-2.15-7.74-3.101-7.28-2.76-14.14-4.819-20.73-6.25-11.39-2.479-22.01-3.06-32.76-1.989-14.09 1.39-28.42 5.6-45.01 12.08-10.13 3.939-21.11 8.729-33.39 14.239 12.77 18.521 28.28 32.391 44.09 41.12 2.12 1.17 4.24 2.25 6.36 3.23 10.14 4.71 20.27 7.3 29.75 7.62 3 .09 5.94-.03 8.8-.391 3.18-.39 6.25-1.08 9.18-2.06 1.32-.43 2.6-.93 3.86-1.48 4.6-2.029 9.27-5.05 13.72-8.729 2.42-1.99 4.78-4.18 7.02-6.51 13.94-14.429 23.64-34.118 18.14-45.889z" fill="#ffebd3"/><path d="m356.181 210.901c-6.22 54.569-49.46 93.7-96.3 89.71-.15-.01-.23-.021-.23-.021l-.03.19c-.26 1.72-.96 6.2-1.73 11.189-1.13 7.261-2.42 15.61-2.8 18.08h-75.2c0-2.489.09-5.149.23-7.989.67-14.551 2.44-33.391-1.55-53.79-4.26-22.061-126.33-204.78 106.21-183.5 5.99.56 19.44 2.17 24.57 4.6 10.23 11.09 19.51 23.24 27.11 36.35 2.45 4.23 4.65 8.45 6.63 12.65 12.02 25.491 15.63 50.291 13.09 72.531z" fill="#ffebd3"/><g fill="#ffd5b7"><path d="m227.901 166.671c33.36-24.59 90.86-28.01 115.19-28.3-1.98-4.2-4.18-8.42-6.63-12.65-7.6-13.109-16.88-25.26-27.11-36.35-5.13-2.43-18.58-4.04-24.57-4.6-232.54-21.28-110.47 161.439-106.21 183.5 3.99 20.399 2.22 39.239 1.55 53.79-10.13 3.939-21.11 8.729-33.39 14.239 12.77 18.521 28.28 32.391 44.09 41.12 2.12 1.17 4.24 2.25 6.36 3.23l29.75 7.62 20.35 5.21c-12.114-42.838-58.483-197.985-19.38-226.809z"/><path d="m257.891 311.971c6.59 1.431 13.45 3.49 20.73 6.25-7.37 2.12-20.22 8.301-23.53 11.83z"/><path d="m259.621 300.781-1.43 9.26-.12.76c-10.72-4.52-15.85-12.479-15.72-13.31 2.24.991 9.37 2.52 17.27 3.29z"/></g><path d="m147.591 214.916c4.163-4.812 32.812-8.024 32.812-8.024s21.788-78.706-.72-83.35c62.28 40.68 267.12-8.28 126.49-35.305-4.527-.87-45.05-1.124-57.33 4.021-34.384 14.408-98.586 41.997-99.76 41.724-1.16-9.551-13.468 14.59-27.48 30.36-5.876 6.613 16.97 41.972 25.988 50.574z" fill="#eb8f65"/><path d="m188.196 248.097c-9.844 13.43-29.786 16.27-43.014 6.175-7.888-5.926-12.561-15.351-13.881-25.075-2.308-13.707 4.324-28.109 16.781-34.539 14.007-7.657 36.714-3.927 42.297 12.538z" fill="#ffd5b7"/><path d="m166.907 238.674c1.114-9.664-4.388-16.755-8.51-20.617-1.892-1.773-1.557-4.856.696-6.139l2.221-1.265c1.361-.775 3.05-.643 4.277.331 4.745 3.767 15.203 14.257 8.616 29.611-.319.744-.894 1.353-1.598 1.754-2.688 1.53-6.056-.603-5.702-3.675z" fill="#ffc7a0"/><path d="m113.891 154.591c-.09.271-.2.4-.33.391-.2-.021-.09-.161.33-.391z" fill="#ffd084"/><path d="m113.891 154.591c1.81-5.159-1.76-59.739.9-81.8.71-5.87 2.38-8.46 5.4-11.96.05-.06.1-.11.15-.17 3.85-4.36 11.99-9.81 21.81-14.24 1.97-.899 4.01-1.75 6.1-2.54 3.54-1.34 7.21-2.51 10.91-3.43 4.24-1.06 8.52-1.78 12.69-2.05.06 0 .11-.01.17-.01 17.35-17.53 65.21-55.94 90.58-29.21 13.37 14.079 23.97 26.399 56.35 72.689-16.06 2.221-195.12 67.031-205.06 72.721z" fill="#ffd084"/><path d="m319.481 82.621c-.18-.25-.35-.5-.53-.75 1.3-.18 1.53.05.53.75z" fill="#ffd084"/><path d="m440.593 121.471c-26.23-31.92-116.34-33.609-214.13-1.83-97.78 31.78-169.69 86.13-172.15 127.37-2.73-3.31-4.76-6.939-6.05-10.899-13.68-42.101 62.71-104.66 170.63-139.73 107.92-35.08 206.5-29.39 220.18 12.71 1.29 3.959 1.78 8.089 1.52 12.379z" fill="#ffb563"/><path d="m172.021 38.392c-2.43 2.63-16.63 18.84-20.06 22.149-2.45-4.51-3.37-10.81-3.71-16.66 3.54-1.34 7.21-2.51 10.91-3.43 4.24-1.06 8.52-1.78 12.69-2.05.06 0 .11-.009.17-.009z" fill="#ffb563"/><path d="m364.911 460.951h-35.71l-100.02-22.11-88.45 22.11h-120.44c10.56-42.55 39.77-72.81 64.3-91.61 9.14-7 22.31-14.26 34.17-20.18 14.4 3.76 29.07 9.83 45.28 17.78 1.02.49 2.04 1 3.07 1.51 39.76 19.81 73.99 13.04 75.91-8.97 3.54-.95 6.81-2.15 9.85-3.53 15.48 14.33 19.67 19.18 32.73 6.48 9.44-9.19 13.97-18.94 24.9-27.091 42.09 30.991 53.24 80.642 54.41 125.611z" fill="#ff9fb3"/><path d="m164.041 366.941c-27.37 15.71-57.22 43.88-81.47 94.01h-62.28c10.56-42.55 39.77-72.81 64.3-91.61 9.14-7 22.31-14.26 34.17-20.18 14.4 3.76 29.07 9.83 45.28 17.78z" fill="#ff8293"/><path d="m118.765 349.158c15.03-7.496 27.97-12.856 27.97-12.856 43.842 25.983 74.829 29 96.286 23.181 6.503 67.53-84.152 19.687-124.256-10.325z" fill="#ff6b7d"/><path d="m310.504 335.346c-10.185 26.667-44.639 71.643-57.635 20.605 24.503-11.113 33.067-33.77 33.488-34.632 9.005 4.067 17.016 8.78 24.147 14.027z" fill="#ff6b7d"/><path d="m346.641 379.531c-15.84 8.65-19.1 41.75-17.44 81.42h-188.47c-4.13-20.75-14.88-37.24-27.9-48.96-17.09-15.39-38.1-22.54-53.18-20.29-6.48-7.35 22.82-35.97 33.99-28.62 12.73 11.34 25.09 21 37.05 29.15 116.85 79.6 194.84 14.689 192.3-46.311 14.38.001 28.63 28.211 23.65 33.611z" fill="#ffb563"/><path d="m130.691 392.232c-6.01 5.81-11.99 12.359-17.86 19.76-17.09-15.39-38.1-22.54-53.18-20.29-6.48-7.35 22.82-35.97 33.99-28.62 12.73 11.339 25.09 20.999 37.05 29.15z" fill="#ffa654"/></g></svg>