<svg id="Layer_1" enable-background="new 0 0 457.463 457.463" height="512" viewBox="0 0 457.463 457.463" width="512" xmlns="http://www.w3.org/2000/svg"><g><path d="m321.785 319.378c-6.57-2.659-12.71-4.8-18.63-6.409-17.02-4.641-32.29-4.971-51.06-1-9.14 1.92-19.11 4.87-30.51 8.83-11.79 4.09-25.11 9.27-40.64 15.529 9.72 14.2 25.47 24.561 41.91 32.061 15.8 7.22 32.24 11.819 44.56 14.67 9.96 2.3 17.22 3.47 19.3 3.96 9.7 2.29 17.7-7.01 23.84-19.3 9.8-19.601 14.91-46.82 14.77-46.88-1.19-.5-2.37-.99-3.54-1.461z" fill="#ffb48d"/><path d="m305.285 299.248c-.16.98-1.14 7.33-1.79 11.45-.13.88-.25 1.66-.34 2.271l-2.68 17.29h-79.17c0-2.92.12-6.08.28-9.46 1.19-24.03 4.71-58.75-16.12-93.471-14.44-25.41-22.07-46.84-24.51-64.89-1.53-11.38-1-21.41 1.21-30.25 15.86-63.49 116.23-65.68 157.14-59.94 7.44 1.04 12.91 2.351 15.56 3.591 1.91 2.079 6.52 5.17 8.3 7.25 6.73 7.8 12.61 15.63 17.69 23.439 65.73 100.991-.63 199.34-75.57 192.72z" fill="#ffb48d"/><g fill="#f5a27e"><path d="m252.095 311.969c1.44 5.93 2.99 12.02 4.64 18.29 3.24 12.27 6.87 25.189 10.94 38.81-16.92-1-31.79-1.19-44.82-.68-16.44-7.5-32.19-17.86-41.91-32.061 15.53-6.26 28.85-11.439 40.64-15.529 1.19-24.03 4.71-58.75-16.12-93.471-14.44-25.41-22.07-46.84-24.51-64.89-1.53-11.38-1-21.41 1.21-30.25 15.86-63.49 116.23-65.68 157.14-59.94l-38.41 19.7c-27.68 9.571-99.22 13.55-48.8 220.021z"/><path d="m305.285 299.248c-.16.98-1.14 7.33-1.79 11.45-10.66-4.38-16.2-14.37-16.42-14.71 2.28 1.01 10.03 2.621 18.21 3.26z"/><path d="m321.785 319.378-21.31 10.881 2.68-17.29c5.92 1.609 12.06 3.75 18.63 6.409z"/></g><path d="m379.095 112.229c-42.29 35.63-145.21-38.28-139.13 17.79 1.19 11.06.63 22.25-2.3 32.97-7.1 25.96-20.66 43.49-20.66 43.49s-14.29 11.08-19.09 16.63c-8.46-11.84-11.52-13.85-17.86-24.29-5.68-4.9-10.68-9.89-15.04-14.92-45.54-52.42-23.13-109.54 7.02-117.28 30.41-78.2 119.09-78.319 177.26-47.37 9.35 4.971 17.91 10.74 25.31 17.12 28.71 24.74 27.43 56.539 4.49 75.86z" fill="#3e3e7a"/><path d="m349.295 19.248c-9.19 18.431-44.56 37.15-131.75 50.931-39.27 7.06-52.8 52.319-52.53 113.72-45.54-52.42-23.13-109.54 7.02-117.28 30.41-78.201 119.09-78.32 177.26-47.371z" fill="#2c2c61"/><path d="m230.05 243.977c-10.364 14.141-31.362 17.131-45.289 6.501-8.305-6.239-13.225-16.163-14.615-26.402-2.43-14.432 4.553-29.596 17.669-36.366 14.748-8.062 38.657-4.135 44.535 13.201z" fill="#f5a27e"/><path d="m208.552 234.337c1.496-10.931-5.064-18.801-9.514-22.78-1.751-1.565-1.465-4.384.542-5.603l2.434-1.478c1.242-.754 2.82-.676 3.966.215 4.875 3.79 16.499 15.02 9.249 31.597-.283.648-.775 1.185-1.379 1.552-2.536 1.54-5.7-.562-5.298-3.503z" fill="#eb8f65"/><path d="m362.015 438.208-15.3 19.25h-15.79l-30.71-18.409-29.35 18.409h-82.66l-26.71-18.35-11.35 7.77-3.45 2.36-11.99 8.22s-26.83-60.88-25.79-62.22c10.15-13.14 11.92-29.72 25.25-36.92 4.51-2.54 9.27-5.05 14.07-7.44 18.34 4.79 37.52 12.171 55.18 18.91 27.47 10.471 51.27 19.36 62.57 14.46 1.34 2.82 5.35 8.45 12.45 13.221 5.7 2.83 27.54-.91 32.99-9.811 1.97-3.22 3.59-14.85 3.86-18.88 10.73-6.97 22.32-20.53 32.76-35.06 8.42 6.54 13.23 11.02 17.56 15.729l.01.01c5.63 5.65 1.09 26.98 6.84 36.79 0 .011 3.48 2.41 8.07 6.261 7.93 6.641-18.51 45.7-18.51 45.7z" fill="#fcf4f6"/><path d="m146.695 449.238-11.99 8.22s-26.83-60.88-25.79-62.22c10.15-13.14 11.92-29.72 25.25-36.92 4.51-2.54 9.27-5.05 14.07-7.44 18.34 4.79 37.52 12.171 55.18 18.91-74.49 8.21-71.9 45.221-56.72 79.45z" fill="#f0e3e7"/><path d="m407.085 457.458h-30.83l-12.08-16.319 16.35-48.63c7.93 6.64 19.2 17.619 21.54 28.04 2.69 11.98 4.29 24.369 5.02 36.909z" fill="#3e3e7a"/><path d="m150.145 446.878-15.44 10.58h-84.97c3.46-10.75 8.06-20.699 13.38-29.85 7.55-12.89 31.58-17.44 42.4-28.46 1.24-1.26 2.36-2.57 3.4-3.91 13.2 16.481 29.01 36.3 41.23 51.64z" fill="#3e3e7a"/><path d="m330.924 457.463h-60.06c-.114-25.106 3.952-52.353 11.388-72.373l23.379-5.43c14.227 19.916 23.161 50.013 25.293 77.803z" fill="#2c2c61"/><path d="m315.285 368.779c-.27 4.03-1.89 15.66-3.86 18.88-5.45 8.9-27.29 12.641-32.99 9.811-7.1-4.771-11.11-10.4-12.45-13.221-2.323-10.593 6.656-21.554 14.15-23.989 1.076 0 8.009-2.747 9.59-3.44 3.764-1.389 19.255 3.285 25.56 11.959z" fill="#3e3e7a"/><path d="m280.185 360.238c-.02.01-.04.021-.05.021-.47 2.859-1.84 14.279-14.15 23.989-25.32 20.23-78.95-6.59-117.75-33.37 11.55-5.779 23.36-10.939 32.71-14.55 30.08 17.821 66.5 33.071 99.24 23.91z" fill="#e4d1d7"/><path d="m315.285 368.779c15.27 2.64 25.75-13.28 32.76-35.06-6.98-5.25-13.844-8.822-22.72-12.88-.02 0-9.18 24.24-35.6 35.97 1.01.83 11.44 9.59 25.56 11.97z" fill="#e4d1d7"/><path d="m134.614 457.462c2.132-5.054 11.544-14.415 5.117-17.035-10.452-4.253-76.378-9.953-80.371-14.446-5.99-7.488 40.997-50.7 74.807-67.663 8.091 18.118 28.704 62.098 54.038 99.143h-53.591z" fill="#51518e"/><path d="m376.258 457.462h-29.546c13.876-26.711 23.137-88.225 18.876-108.033 11.961 12.558 28.919 39.542 37.701 58.763 2.416 5.287.791 11.545-3.844 15.053-21.566 16.32-31.699 19.884-23.187 34.217z" fill="#51518e"/></g></svg>