<svg id="Layer_1" height="512" viewBox="0 0 512 512" width="512" xmlns="http://www.w3.org/2000/svg" data-name="Layer 1"><path d="m403.68 475.14h47.31v20.86h-47.31z" fill="#6d6d93"/><path d="m401.93 186.77h-291.86a22.461 22.461 0 0 0 -22.45 22.48v107.06h336.76v-107.06a22.461 22.461 0 0 0 -22.45-22.48z" fill="#b0b5ca"/><path d="m61.01 475.14h47.31v20.86h-47.31z" fill="#6d6d93"/><path d="m384.79 19.26-26.34 21.06a3.157 3.157 0 0 1 -3.94 0l-29.54-23.63a3.157 3.157 0 0 0 -3.94 0l-29.55 23.63a3.143 3.143 0 0 1 -3.93 0l-29.55-23.63a3.157 3.157 0 0 0 -3.94 0l-29.55 23.63a3.157 3.157 0 0 1 -3.94 0l-29.55-23.63a3.143 3.143 0 0 0 -3.93 0l-29.56 23.63a3.143 3.143 0 0 1 -3.93 0l-26.39-21.09a3.149 3.149 0 0 0 -5.12 2.48l1.08 295.6h263.77l2.97-295.56a3.151 3.151 0 0 0 -5.12-2.49z" fill="#7ce5e9"/><path d="m127.21 19.23a3.149 3.149 0 0 0 -5.12 2.48l1.08 295.6h30l-1.016-278.146z" fill="#66bcbc"/><rect fill="#8383a5" height="159.83" rx="21.91" width="456" x="28" y="316.31"/><path d="m434.97 396.23a19.18 19.18 0 1 1 -19.15 19.18 19.173 19.173 0 0 1 19.15-19.18z" fill="#e87187"/><path d="m369.29 396.23a19.18 19.18 0 1 1 -19.16 19.18 19.171 19.171 0 0 1 19.16-19.18z" fill="#5fcda4"/><path d="m58 454.23v-116.01a21.911 21.911 0 0 1 21.91-21.91h-30a21.911 21.911 0 0 0 -21.91 21.91v116.01a21.911 21.911 0 0 0 21.91 21.91h30a21.911 21.911 0 0 1 -21.91-21.91z" fill="#696984"/><path d="m277.5 399.18v37.52a2.953 2.953 0 0 1 -2.96 2.96h-213.71a2.96 2.96 0 0 1 -2.96-2.96v-37.52a2.958 2.958 0 0 1 2.96-2.95h213.71a2.951 2.951 0 0 1 2.96 2.95z" fill="#6d6d93"/><path d="m87.87 436.7v-37.52a2.958 2.958 0 0 1 2.96-2.95h-30a2.958 2.958 0 0 0 -2.96 2.95v37.52a2.96 2.96 0 0 0 2.96 2.96h30a2.96 2.96 0 0 1 -2.96-2.96z" fill="#545472"/><path d="m206.049 107.957a13.521 13.521 0 1 1 13.491-13.522 6 6 0 1 0 12 0 25.556 25.556 0 0 0 -20.368-25v-6.06a6 6 0 0 0 -12 0v6.491a25.522 25.522 0 0 0 6.877 50.091 13.521 13.521 0 0 1 .008 27.043 6.015 6.015 0 0 0 -.885-.072c-.094 0-.186.009-.278.014a13.522 13.522 0 0 1 -12.337-13.463 6 6 0 1 0 -12 0 25.556 25.556 0 0 0 18.615 24.57v5.414a6 6 0 0 0 12 0v-4.981a25.525 25.525 0 0 0 -5.123-50.524z" fill="#6994fe"/><g id="_Path_2" data-name=" Path 2"><path d="m336.575 239.151h-161.117a6 6 0 0 1 0-12h161.117a6 6 0 0 1 0 12z" fill="#529997"/></g><g id="_Path_2-2" data-name=" Path 2"><path d="m336.575 274.27h-161.117a6 6 0 1 1 0-12h161.117a6 6 0 1 1 0 12z" fill="#529997"/></g><g id="_Path_2-3" data-name=" Path 2"><path d="m259.939 206.257h-84.481a6 6 0 0 1 0-12h84.481a6 6 0 0 1 0 12z" fill="#529997"/></g><g fill="#f4f8fc"><path d="m115.042 354.262a6 6 0 0 1 0-12l83.709-.069a6 6 0 0 1 0 12z"/><path d="m92.194 354.262h-23.75a6 6 0 0 1 0-12h23.75a6 6 0 1 1 0 12z"/></g></svg>