<svg id="Layer_1" height="512" viewBox="0 0 512 512" width="512" xmlns="http://www.w3.org/2000/svg" data-name="Layer 1"><g fill="#ccd3df"><path d="m82.857 33h12v30.181h-12z"/><path d="m417.143 33h12v30.181h-12z"/><path d="m250 33h12v30.181h-12z"/></g><path d="m391 361.14h38.57v118.86h-38.57z" fill="#b0b5ca"/><path d="m82.43 361.14h38.57v118.86h-38.57z" fill="#b0b5ca"/><path d="m470.29 62.18h-428.58a25.709 25.709 0 0 0 -25.71 25.71v248.53a25.718 25.718 0 0 0 25.71 25.72h428.58a25.718 25.718 0 0 0 25.71-25.72v-248.53a25.709 25.709 0 0 0 -25.71-25.71z" fill="#6994fe"/><path d="m457.43 113.6v197.11a12.863 12.863 0 0 1 -12.86 12.86h-377.14a12.863 12.863 0 0 1 -12.86-12.86v-197.11a12.855 12.855 0 0 1 12.86-12.85h377.14a12.855 12.855 0 0 1 12.86 12.85z" fill="#5fcda4"/><path d="m263.23 246.45 64.51-51.18a18.617 18.617 0 0 1 27.98 3.03l41.1 59.43a18.541 18.541 0 0 1 -15.3 29.07l-257.27-.01a18.539 18.539 0 0 1 -15.02-29.46l66.41-90.9a18.617 18.617 0 0 1 30.12.12z" fill="#c79a83"/><path d="m276.06 132.58a26.465 26.465 0 1 1 -26.53 26.46 26.5 26.5 0 0 1 26.53-26.46z" fill="#f3ce7d"/><path d="m84.57 310.71v-197.11a12.855 12.855 0 0 1 12.86-12.85h-30a12.855 12.855 0 0 0 -12.86 12.85v197.11a12.863 12.863 0 0 0 12.86 12.86h30a12.863 12.863 0 0 1 -12.86-12.86z" fill="#4fa380"/><path d="m201.64 166.43a18.926 18.926 0 0 1 2.018-2.325 18.624 18.624 0 0 0 -28.018 2.325l-66.41 90.9a18.539 18.539 0 0 0 15.02 29.46h26a18.539 18.539 0 0 1 -15.02-29.46z" fill="#a57b68"/><path d="m275.53 159.04a26.438 26.438 0 0 1 13.533-23.064 26.464 26.464 0 1 0 0 46.138 26.442 26.442 0 0 1 -13.533-23.074z" fill="#ccab69"/><path d="m46 336.42v-248.53a25.709 25.709 0 0 1 25.71-25.71h-30a25.709 25.709 0 0 0 -25.71 25.71v248.53a25.718 25.718 0 0 0 25.71 25.72h30a25.718 25.718 0 0 1 -25.71-25.72z" fill="#567ecc"/><path d="m34.726 276.019h-.035a6 6 0 0 1 -5.966-6.034l.5-89.708a6 6 0 0 1 6-5.966h.034a6 6 0 0 1 5.967 6.034l-.5 89.707a6 6 0 0 1 -6 5.967z" fill="#f4f8fc"/><path d="m35.383 163.463h-.056a6 6 0 0 1 -5.945-6.054l.161-17.75a6 6 0 0 1 12 .11l-.161 17.749a6 6 0 0 1 -5.999 5.945z" fill="#f4f8fc"/><path d="m103.084 26h-28.453a6 6 0 0 0 0 12h28.453a6 6 0 0 0 0-12z" fill="#b0b5ca"/><path d="m437.369 26h-28.453a6 6 0 0 0 0 12h28.453a6 6 0 0 0 0-12z" fill="#b0b5ca"/><path d="m270.227 26h-28.454a6 6 0 0 0 0 12h28.454a6 6 0 0 0 0-12z" fill="#b0b5ca"/></svg>