<svg id="Layer_1" height="512" viewBox="0 0 512 512" width="512" xmlns="http://www.w3.org/2000/svg" data-name="Layer 1"><path d="m494.47 108.91a8.449 8.449 0 0 0 -7.35-4.26h-462.64a8.479 8.479 0 0 0 -7.03 3.73 8.377 8.377 0 0 0 -1.45 4.74v173.97h479.59v-173.97a8.457 8.457 0 0 0 -1.12-4.21z" fill="#895e58"/><path d="m16 287.09h479.59v75.72h-479.59z" fill="#9ac5a1"/><path d="m16 362.81v99.98a22.726 22.726 0 0 0 22.74 22.71h434.11a22.726 22.726 0 0 0 22.74-22.71v-99.98z" fill="#895e58"/><path d="m304.4 287.09a62.723 62.723 0 0 1 .01 75.72h-.01a62.937 62.937 0 0 1 -100.33 0h-.01a62.852 62.852 0 0 1 100.34-75.72z" fill="#75967a"/><path d="m460.68 39.3a22.744 22.744 0 0 0 -20.47-12.8h-362.68a22.755 22.755 0 0 0 -19.75 11.44l-14.73 25.73h429.46z" fill="#c79a83"/><path d="m472.51 63.67h-429.46l-25.6 44.71a8.479 8.479 0 0 1 7.03-3.73h462.64a8.449 8.449 0 0 1 7.35 4.26z" fill="#a3746f"/><path d="m297.12 26.5h-83.52l-20 78.15v82.21a11.38 11.38 0 0 0 15.9 10.42l41.78-18.07a11.365 11.365 0 0 1 9.04 0l41.78 18.07a11.372 11.372 0 0 0 15.89-10.42v-82.53z" fill="#d6c6c4"/><path d="m47.45 108.38a8.479 8.479 0 0 1 7.03-3.73h-30a8.479 8.479 0 0 0 -7.03 3.73 8.377 8.377 0 0 0 -1.45 4.74v173.97h30v-173.97a8.377 8.377 0 0 1 1.45-4.74z" fill="#6b504d"/><path d="m16 287.09h30v75.72h-30z" fill="#80a084"/><path d="m46 462.79v-99.98h-30v99.98a22.726 22.726 0 0 0 22.74 22.71h30a22.726 22.726 0 0 1 -22.74-22.71z" fill="#6b504d"/><path d="m234.07 362.81h-.01a62.783 62.783 0 0 1 35.18-98.841 63.054 63.054 0 0 0 -65.17 23.121 62.723 62.723 0 0 0 -.01 75.72h.01a63.042 63.042 0 0 0 65.17 23.131 62.9 62.9 0 0 1 -35.17-23.131z" fill="#556d58"/><path d="m292.146 323.56h-77.229a6 6 0 1 1 0-12h77.229a6 6 0 0 1 0 12z" fill="#9ac5a1"/><path d="m292.146 346.268h-77.229a6 6 0 1 1 0-12h77.229a6 6 0 0 1 0 12z" fill="#9ac5a1"/><g fill="#f4f8fc"><path d="m356.949 450.015a6 6 0 0 1 0-12l95.191-.077a6 6 0 0 1 0 12z"/><path d="m330.967 450.015h-27.008a6 6 0 1 1 0-12h27.008a6 6 0 0 1 0 12z"/></g></svg>