<svg id="Layer_1" height="512" viewBox="0 0 512 512" width="512" xmlns="http://www.w3.org/2000/svg" data-name="Layer 1"><path d="m417.614 17.53h-191.56a9.743 9.743 0 0 0 -6.26 2.25l78.92 389.29h118.9a19.655 19.655 0 0 0 19.65-19.66v-352.22a19.655 19.655 0 0 0 -19.65-19.66z" fill="#a5e2fb"/><path d="m409.333 54.4h-140.14a6 6 0 0 1 0-12h140.14a6 6 0 0 1 0 12z" fill="#70a5b2"/><path d="m409.333 94.227h-132.408a6 6 0 0 1 0-12h132.408a6 6 0 0 1 0 12z" fill="#70a5b2"/><path d="m409.333 134.054h-108.887a6 6 0 0 1 0-12h108.887a6 6 0 0 1 0 12z" fill="#70a5b2"/><path d="m412.28 293.89v72.15a9.827 9.827 0 0 1 -9.82 9.83h-102.01v-91.81h102.01a9.827 9.827 0 0 1 9.82 9.83z" fill="#85c1d3"/><path d="m412.28 173.02v72.15a9.827 9.827 0 0 1 -9.82 9.83h-102.01v-91.81h102.01a9.827 9.827 0 0 1 9.82 9.83z" fill="#85c1d3"/><path d="m294.65 110.18a19.561 19.561 0 0 0 -13.86-5.72h-187.14a19.653 19.653 0 0 0 -19.65 19.65v352.24a19.653 19.653 0 0 0 19.65 19.65h187.14a19.655 19.655 0 0 0 19.66-19.65v-352.24a19.593 19.593 0 0 0 -5.8-13.93z" fill="#5fcda4"/><path d="m276.95 88.23 17.7 21.95a19.561 19.561 0 0 0 -13.86-5.72h-64.22l.39-78.68a9.834 9.834 0 0 1 3.57-7.53z" fill="#e87187"/><path d="m275.41 155.01v96.58a9.829 9.829 0 0 1 -9.83 9.83h-155.99a9.827 9.827 0 0 1 -9.82-9.83v-96.58a9.827 9.827 0 0 1 9.82-9.83h155.99a9.829 9.829 0 0 1 9.83 9.83z" fill="#4ca987"/><path d="m98 476.35v-352.24a19.653 19.653 0 0 1 19.65-19.65h-24a19.653 19.653 0 0 0 -19.65 19.65v352.24a19.653 19.653 0 0 0 19.65 19.65h24a19.653 19.653 0 0 1 -19.65-19.65z" fill="#4eaf87"/><path d="m123.77 251.59v-96.58a9.827 9.827 0 0 1 9.82-9.83h-24a9.827 9.827 0 0 0 -9.82 9.83v96.58a9.827 9.827 0 0 0 9.82 9.83h24a9.827 9.827 0 0 1 -9.82-9.83z" fill="#3b8c6b"/><g fill="#4ca987"><path d="m266.7 311.388h-158.23a6 6 0 1 1 0-12h158.23a6 6 0 0 1 0 12z"/><path d="m266.7 360.531h-158.23a6 6 0 1 1 0-12h158.23a6 6 0 0 1 0 12z"/><path d="m266.7 409.676h-158.23a6 6 0 1 1 0-12h158.23a6 6 0 0 1 0 12z"/><path d="m266.7 458.819h-158.23a6 6 0 1 1 0-12h158.23a6 6 0 0 1 0 12z"/></g><path d="m120.519 251.145h-.038a6 6 0 0 1 -5.963-6.037l.256-42.879a6 6 0 0 1 12 .073l-.256 42.879a6 6 0 0 1 -5.999 5.964z" fill="#f4f8fc"/><path d="m120.854 186.562h-.042a6 6 0 0 1 -5.958-6.041l.082-12.166a6 6 0 1 1 12 .083l-.082 12.165a6 6 0 0 1 -6 5.959z" fill="#f4f8fc"/></svg>