<svg id="Layer_1" height="512" viewBox="0 0 512 512" width="512" xmlns="http://www.w3.org/2000/svg" data-name="Layer 1"><path d="m74 98.81v375.62a21.552 21.552 0 0 0 21.53 21.57h260.11l82.36-103.77v-293.42z" fill="#53d8d8"/><path d="m438 395.09v79.63a20.006 20.006 0 0 1 -19.58 20l-61.82 1.28z" fill="#c2e0f2"/><path d="m438 37.57v61.24h-364v-61.24a21.552 21.552 0 0 1 21.53-21.57h320.94a21.552 21.552 0 0 1 21.53 21.57z" fill="#b3d1e7"/><g fill="#e87187"><path d="m395.29 275.38a27.318 27.318 0 0 1 -34 26.67l-54.88-13.79a47.733 47.733 0 0 0 .63-24.5l53.58-14.88a27.4 27.4 0 0 1 34.67 26.5z"/><path d="m356.13 179.85a27.563 27.563 0 0 1 -5.26 43.01l-48.37 29.14a47.723 47.723 0 0 0 -16.93-17.71l27.39-48.55a27.308 27.308 0 0 1 43.17-5.89z"/><path d="m349.7 326.22a27.562 27.562 0 0 1 5.86 43.36 27.3 27.3 0 0 1 -42.83-5.28l-28.72-48.04v-.01a47.655 47.655 0 0 0 17.75-17.32z"/><path d="m288.57 168.12a27.883 27.883 0 0 1 -.83 6.71l-13.53 54.46a47.094 47.094 0 0 0 -24.71-.37l-14.7-53.42a27.4 27.4 0 1 1 53.77-7.38z"/><path d="m287.74 375.93a27.822 27.822 0 0 1 .83 6.71 27.4 27.4 0 1 1 -53.77-7.39l15.11-54.43a47.247 47.247 0 0 0 24.03-.4z"/><path d="m209.52 186.02 27.15 48.35a47.643 47.643 0 0 0 -16.91 17.81l-48.15-29.04a27.43 27.43 0 1 1 37.91-37.12z"/><path d="m220.89 299.42a47.576 47.576 0 0 0 17.54 16.88l-.02.04-29.11 48.72a27.318 27.318 0 0 1 -42.83 5.28 27.561 27.561 0 0 1 5.86-43.36z"/><path d="m215.96 288.28-54.89 13.77a27.461 27.461 0 1 1 .67-53.17l53.55 14.99h.01a47.58 47.58 0 0 0 .66 24.41z"/></g><path d="m104 474.43v-375.62h-30v375.62a21.552 21.552 0 0 0 21.53 21.57h30a21.552 21.552 0 0 1 -21.53-21.57z" fill="#41afac"/><path d="m125.53 16h-30a21.552 21.552 0 0 0 -21.53 21.57v61.24h30v-61.24a21.552 21.552 0 0 1 21.53-21.57z" fill="#95b0c1"/><circle cx="261" cy="274.242" fill="#f3ce7d" r="48"/><path d="m438 395.09-81.4 100.91h-.96l.25-91.81a11.992 11.992 0 0 1 11.99-11.96h70.12z" fill="#46a5a2"/><path d="m243 274.242a48.012 48.012 0 0 1 33-45.6 48 48 0 1 0 0 91.193 48.01 48.01 0 0 1 -33-45.593z" fill="#c6a561"/><path d="m319.386 64.542h-127.146a6 6 0 0 1 0-12h127.146a6 6 0 0 1 0 12z" fill="#7c94a0"/><path d="m101.81 336.19h-.037a6 6 0 0 1 -5.963-6.036l.5-83.708a6 6 0 0 1 6-5.964h.038a6 6 0 0 1 5.963 6.037l-.5 83.708a6 6 0 0 1 -6.001 5.963z" fill="#f4f8fc"/><path d="m102.468 229.635h-.042a6 6 0 0 1 -5.959-6.041l.162-23.75a6 6 0 0 1 6-5.959h.042a6 6 0 0 1 5.959 6.041l-.162 23.75a6 6 0 0 1 -6 5.959z" fill="#f4f8fc"/></svg>