<svg id="Layer_1" height="512" viewBox="0 0 512 512" width="512" xmlns="http://www.w3.org/2000/svg" data-name="Layer 1"><path d="m496 132.21v335.84a21.973 21.973 0 0 1 -22.1 21.95l-436-1.99a21.983 21.983 0 0 1 -21.9-21.96v-333.84z" fill="#a5e2fb"/><path d="m474 51.66h-436a21.979 21.979 0 0 0 -22 21.96v58.59h480v-58.59a21.979 21.979 0 0 0 -22-21.96z" fill="#6994fe"/><g fill="#ccd3df"><path d="m399.59 325.31h54.16v51.59h-54.16z"/><path d="m399.59 241.78h54.16v51.59h-54.16z"/><path d="m399.59 158.24h54.16v51.6h-54.16z"/><path d="m313.42 408.84h54.16v51.59h-54.16z"/><path d="m313.42 325.31h54.16v51.59h-54.16z"/><path d="m313.42 241.78h54.16v51.59h-54.16z"/><path d="m313.42 158.24h54.16v51.6h-54.16z"/><path d="m227.26 408.84h54.16v51.59h-54.16z"/><path d="m227.26 325.31h54.16v51.59h-54.16z"/><path d="m227.26 241.78h54.16v51.59h-54.16z"/><path d="m227.26 158.24h54.16v51.6h-54.16z"/><path d="m141.1 408.84h54.16v51.59h-54.16z"/><path d="m141.1 325.31h54.16v51.59h-54.16z"/><path d="m141.1 241.78h54.16v51.59h-54.16z"/><path d="m141.1 158.24h54.16v51.6h-54.16z"/></g><path d="m54.94 408.84h54.16v51.59h-54.16z" fill="#5fcda4"/><path d="m54.94 325.31h54.16v51.59h-54.16z" fill="#5fcda4"/><path d="m54.94 241.78h54.16v51.59h-54.16z" fill="#5fcda4"/><path d="m425.43 22h-.03a14.427 14.427 0 0 0 -14.42 14.43v22.97a14.425 14.425 0 0 0 14.42 14.42h.03a14.427 14.427 0 0 0 14.43-14.42v-22.97a14.429 14.429 0 0 0 -14.43-14.43z" fill="#b0b5ca"/><path d="m359.43 22h-.02a14.429 14.429 0 0 0 -14.43 14.43v22.97a14.427 14.427 0 0 0 14.43 14.42h.02a14.427 14.427 0 0 0 14.43-14.42v-22.97a14.429 14.429 0 0 0 -14.43-14.43z" fill="#b0b5ca"/><path d="m158.14 22h-.03a14.427 14.427 0 0 0 -14.42 14.43v22.97a14.425 14.425 0 0 0 14.42 14.42h.03a14.427 14.427 0 0 0 14.43-14.42v-22.97a14.429 14.429 0 0 0 -14.43-14.43z" fill="#b0b5ca"/><path d="m92.15 22h-.03a14.429 14.429 0 0 0 -14.43 14.43v22.97a14.427 14.427 0 0 0 14.43 14.42h.03a14.425 14.425 0 0 0 14.42-14.42v-22.97a14.427 14.427 0 0 0 -14.42-14.43z" fill="#b0b5ca"/><path d="m46 466.05v-333.84h-30v333.84a21.983 21.983 0 0 0 21.9 21.96h30a21.983 21.983 0 0 1 -21.9-21.96z" fill="#84bfd1"/><path d="m68 51.66h-30a21.979 21.979 0 0 0 -22 21.96v58.59h30v-58.59a21.979 21.979 0 0 1 22-21.96z" fill="#5982d3"/><path d="m90.7 110.931a6 6 0 0 1 0-12l83.709-.068h.005a6 6 0 0 1 0 12l-83.709.068z" fill="#f4f8fc"/><path d="m67.855 110.931h-23.75a6 6 0 0 1 0-12h23.75a6 6 0 0 1 0 12z" fill="#f4f8fc"/></svg>