<svg id="Layer_1" height="512" viewBox="0 0 512 512" width="512" xmlns="http://www.w3.org/2000/svg" data-name="Layer 1"><path d="m393.29 204.8a141.109 141.109 0 0 1 102.71 135.69c0 77.88-63.24 141.01-141.25 141.01a140.894 140.894 0 0 1 -98.75-40.18 141.089 141.089 0 0 0 38.55-134.13 141.359 141.359 0 0 0 98.74-102.39z" fill="#71c2ff"/><path d="m397.25 171.51a140.987 140.987 0 0 1 -3.96 33.29 141.711 141.711 0 0 0 -137.29 34.87 141.711 141.711 0 0 0 -137.29-34.87 140.987 140.987 0 0 1 -3.96-33.29c0-77.88 63.24-141.01 141.25-141.01s141.25 63.13 141.25 141.01z" fill="#f3ce7d"/><path d="m393.29 204.8a141.359 141.359 0 0 1 -98.74 102.39 140.734 140.734 0 0 0 -38.55-67.52 141.711 141.711 0 0 1 137.29-34.87z" fill="#5fcda4"/><path d="m294.55 307.19a141.089 141.089 0 0 1 -38.55 134.13 141.089 141.089 0 0 1 -38.55-134.13 142.331 142.331 0 0 0 77.1 0z" fill="#4689d3"/><path d="m256 239.67a140.734 140.734 0 0 1 38.55 67.52 142.331 142.331 0 0 1 -77.1 0 140.734 140.734 0 0 1 38.55-67.52z" fill="#4a5160"/><path d="m256 239.67a140.734 140.734 0 0 0 -38.55 67.52 141.359 141.359 0 0 1 -98.74-102.39 141.711 141.711 0 0 1 137.29 34.87z" fill="#eb7288"/><path d="m213.49 340.49a140.465 140.465 0 0 0 42.51 100.83 140.894 140.894 0 0 1 -98.75 40.18c-78.01 0-141.25-63.13-141.25-141.01a141.109 141.109 0 0 1 102.71-135.69 141.359 141.359 0 0 0 98.74 102.39 141.134 141.134 0 0 0 -3.96 33.3z" fill="#ec87c0"/><path d="m144.75 171.51c0-72.821 55.293-132.74 126.25-140.218a142.927 142.927 0 0 0 -15-.792c-78.01 0-141.25 63.13-141.25 141.01a140.987 140.987 0 0 0 3.96 33.29 141.045 141.045 0 0 1 28.9-4.982 141.312 141.312 0 0 1 -2.86-28.308z" fill="#ca6"/><path d="m46 340.49a140.956 140.956 0 0 1 75.786-124.971c-1.156-3.517-2.2-7.087-3.076-10.719a141.109 141.109 0 0 0 -102.71 135.69c0 77.88 63.24 141.01 141.25 141.01a143.1 143.1 0 0 0 15-.792c-70.96-7.481-126.25-67.399-126.25-140.218z" fill="#c172a1"/><path d="m138.71 214.8a142.164 142.164 0 0 1 91.539 4.958 141.9 141.9 0 0 0 -111.539-14.958 141.362 141.362 0 0 0 84.247 97.411 141.256 141.256 0 0 1 -64.247-87.411z" fill="#c45c73"/><g fill="#f4f8fc"><path d="m144.913 174.257a6 6 0 0 1 -6-6 110.578 110.578 0 0 1 53.767-94.918 6 6 0 1 1 6.177 10.288 97.941 97.941 0 0 0 -47.944 84.63 6 6 0 0 1 -6 6z"/><path d="m214.827 75.523a6 6 0 0 1 -1.99-11.661 110.369 110.369 0 0 1 36.709-6.238 6 6 0 1 1 0 12 98.411 98.411 0 0 0 -32.729 5.558 5.975 5.975 0 0 1 -1.99.341z"/></g></svg>