<svg id="Layer_1" height="512" viewBox="0 0 512 512" width="512" xmlns="http://www.w3.org/2000/svg" data-name="Layer 1"><path d="m496 300.14v108.33a14.118 14.118 0 0 0 -14.12-14.12h-91.38v-94.21z" fill="#a5e2fb"/><path d="m390.5 205.14h105.5v95h-105.5z" fill="#bdefff"/><path d="m390.5 110.14h105.5v95h-105.5z" fill="#a5e2fb"/><path d="m496 36v74.14h-105.5v-94.14h85.5a19.994 19.994 0 0 1 20 20z" fill="#bdefff"/><path d="m390.5 394.28v.07h-95v-.07-94.14h95z" fill="#bdefff"/><path d="m295.5 205.14h95v95h-95z" fill="#a5e2fb"/><path d="m295.5 110.14h95v95h-95z" fill="#bdefff"/><path d="m295.5 16h95v94.14h-95z" fill="#a5e2fb"/><path d="m295.5 394.28v.07h-95v-.07-94.14h95z" fill="#a5e2fb"/><path d="m200.5 205.14h95v95h-95z" fill="#bdefff"/><path d="m200.5 110.14h95v95h-95z" fill="#a5e2fb"/><path d="m200.5 16h95v94.14h-95z" fill="#bdefff"/><path d="m200.5 394.28v.07h-82.84v-.07-94.14h82.84z" fill="#bdefff"/><path d="m117.66 205.14h82.84v95h-82.84z" fill="#a5e2fb"/><path d="m117.66 110.14h82.84v95h-82.84z" fill="#bdefff"/><path d="m200.5 16v94.14h-82.84v-80.02a14.118 14.118 0 0 0 -14.12-14.12z" fill="#a5e2fb"/><path d="m103.54 16h-73.42a14.118 14.118 0 0 0 -14.12 14.12l.07 364.16v.07h101.59v-364.23a14.118 14.118 0 0 0 -14.12-14.12z" fill="#e87187"/><path d="m481.88 394.35h-465.81v73.41a28.242 28.242 0 0 0 28.24 28.24h437.57a14.118 14.118 0 0 0 14.12-14.12v-73.41a14.118 14.118 0 0 0 -14.12-14.12z" fill="#5fa8ed"/><path d="m46 30.12a14.118 14.118 0 0 1 14.12-14.12h-30a14.118 14.118 0 0 0 -14.12 14.12l.07 364.16v.07h30v-.07z" fill="#ba5d71"/><path d="m46.07 467.76v-73.41h-30v73.41a28.242 28.242 0 0 0 28.24 28.24h30a28.242 28.242 0 0 1 -28.24-28.24z" fill="#5992c1"/><path d="m77.776 63.722a6 6 0 0 0 0 12h39.885v-12z" fill="#994f62"/><path d="m87.66 117.37a6 6 0 0 0 0 12h30v-12z" fill="#994f62"/><path d="m77.776 171.018a6 6 0 1 0 0 12h39.885v-12z" fill="#994f62"/><path d="m87.66 224.666a6 6 0 0 0 0 12h30v-12z" fill="#994f62"/><path d="m77.776 278.313a6 6 0 0 0 0 12h39.885v-12z" fill="#994f62"/><path d="m87.66 331.961a6 6 0 1 0 0 12h30v-12z" fill="#994f62"/><path d="m42.5 234.313h-.028a6 6 0 0 1 -5.973-6.027l.501-109.708a6 6 0 0 1 6-5.973h.028a6 6 0 0 1 5.972 6.028l-.5 109.707a6 6 0 0 1 -6 5.973z" fill="#f4f8fc"/><path d="m43.152 101.758h-.052a6 6 0 0 1 -5.949-6.058l.163-17.75a6 6 0 0 1 6-5.945h.056a6 6 0 0 1 5.946 6.054l-.163 17.75a6 6 0 0 1 -6.001 5.949z" fill="#f4f8fc"/><g fill="#477899"><path d="m125.315 434.237a6 6 0 0 0 12 0v-39.885h-12z"/><path d="m178.963 424.352a6 6 0 0 0 12 0v-30h-12z"/><path d="m232.611 434.237a6 6 0 0 0 12 0v-39.885h-12z"/><path d="m286.259 424.352a6 6 0 0 0 12 0v-30h-12z"/><path d="m339.906 434.237a6 6 0 0 0 12 0v-39.885h-12z"/><path d="m393.555 424.352a6 6 0 0 0 12 0v-30h-12z"/><path d="m439.906 394.352v39.885a6 6 0 0 0 12 0v-39.885z"/></g></svg>