<svg id="Layer_1" height="512" viewBox="0 0 512 512" width="512" xmlns="http://www.w3.org/2000/svg" data-name="Layer 1"><path d="m413.11 414.43v19.23a23.451 23.451 0 0 1 -23.45 23.45h-16.47v-42.68z" fill="#a0eaea"/><path d="m373.19 97.57h39.92v316.86h-39.92z" fill="#a0f9f7"/><path d="m413.11 78.34v19.23h-39.92v-42.68h16.47a23.451 23.451 0 0 1 23.45 23.45z" fill="#a0eaea"/><path d="m138.81 414.43h234.38v42.68h-234.38z" fill="#a0f9f7"/><path d="m138.81 97.57h234.38v316.86h-234.38z" fill="#a0eaea"/><path d="m138.81 54.89h234.38v42.68h-234.38z" fill="#88ced8"/><path d="m138.81 414.43v42.68h-16.47a23.451 23.451 0 0 1 -23.45-23.45v-19.23z" fill="#72b5ba"/><path d="m98.89 97.57h39.92v316.86h-39.92z" fill="#88ced8"/><path d="m138.81 54.89v42.68h-39.92v-19.23a23.451 23.451 0 0 1 23.45-23.45z" fill="#72b5ba"/><path d="m138.81 97.57h30v316.86h-30z" fill="#8bc6c4"/><path d="m446 408.429h-66.811v-304.858h66.811a6 6 0 0 0 0-12h-66.811v-75.571a6 6 0 0 0 -12 0v75.571h-222.378v-75.571a6 6 0 0 0 -12 0v75.571h-66.811a6 6 0 0 0 0 12h66.811v304.858h-66.811a6 6 0 0 0 0 12h66.811v75.571a6 6 0 0 0 12 0v-75.571h222.378v75.571a6 6 0 0 0 12 0v-75.571h66.811a6 6 0 0 0 0-12zm-301.189 0v-304.858h222.378v304.858z" fill="#4689d3"/><g fill="#f4f8fc"><path d="m167.56 285.791h-.029a6 6 0 0 1 -5.971-6.029l.5-103.708a6 6 0 0 1 12 .058l-.5 103.707a6 6 0 0 1 -6 5.972z"/><path d="m168.218 159.235h-.042a6 6 0 0 1 -5.959-6.041l.162-23.749a6 6 0 0 1 6-5.959h.042a6 6 0 0 1 5.959 6.041l-.162 23.749a6 6 0 0 1 -6 5.959z"/></g></svg>