<svg id="Layer_1" height="512" viewBox="0 0 512 512" width="512" xmlns="http://www.w3.org/2000/svg" data-name="Layer 1"><path d="m496 344.42v86.42a12.155 12.155 0 0 1 -12.16 12.16h-47.89a12.155 12.155 0 0 1 -12.16-12.16v-86.42z" fill="#ccd3df"/><path d="m496 81.16v263.26h-72.21v-263.26a12.155 12.155 0 0 1 12.16-12.16h47.89a12.155 12.155 0 0 1 12.16 12.16z" fill="#5fcda4"/><path d="m386.47 198.71v232.13a12.161 12.161 0 0 1 -12.16 12.16h-47.9a12.161 12.161 0 0 1 -12.16-12.16v-232.13z" fill="#ccd3df"/><path d="m386.47 81.16v117.55h-72.22v-117.55a12.161 12.161 0 0 1 12.16-12.16h47.9a12.161 12.161 0 0 1 12.16 12.16z" fill="#e87187"/><path d="m276.93 222.99v207.85a12.152 12.152 0 0 1 -12.15 12.16h-47.9a12.155 12.155 0 0 1 -12.16-12.16v-207.85z" fill="#ccd3df"/><path d="m276.93 81.16v141.83h-72.21v-141.83a12.155 12.155 0 0 1 12.16-12.16h47.9a12.152 12.152 0 0 1 12.15 12.16z" fill="#5fa8ed"/><path d="m167.4 150.13v280.71a12.155 12.155 0 0 1 -12.16 12.16h-47.9a12.152 12.152 0 0 1 -12.15-12.16v-280.71z" fill="#ccd3df"/><path d="m167.4 81.16v68.97h-72.21v-68.97a12.152 12.152 0 0 1 12.15-12.16h47.9a12.155 12.155 0 0 1 12.16 12.16z" fill="#f3ce7d"/><g fill="#6d7486"><path d="m472.46 305.8a13.573 13.573 0 1 1 -25.16.08l11.95-21.25a.969.969 0 0 1 1.69.01z"/><path d="m362.93 160.08a13.579 13.579 0 1 1 -25.17.08l11.95-21.24a.969.969 0 0 1 1.69.01z"/><path d="m253.39 184.37a13.573 13.573 0 1 1 -25.16.08l11.95-21.25a.964.964 0 0 1 1.69.02z"/></g><path d="m123.19 430.84v-280.71h-28v280.71a12.152 12.152 0 0 0 12.15 12.16h28a12.152 12.152 0 0 1 -12.15-12.16z" fill="#a5acb7"/><path d="m135.34 69h-28a12.152 12.152 0 0 0 -12.15 12.16v68.97h28v-68.97a12.152 12.152 0 0 1 12.15-12.16z" fill="#c9a96b"/><path d="m143.86 111.51a13.577 13.577 0 1 1 -25.17.08l11.95-21.24a.977.977 0 0 1 1.7.01z" fill="#6d7486"/><path d="m58.114 431.928h-36.114v-27.645h22.769a6 6 0 1 0 0-12h-22.769v-29.283h30.008a6 6 0 0 0 0-12h-30.008v-24.431h22.769a6 6 0 1 0 0-12h-22.769v-24.428h30.008a6 6 0 0 0 0-12h-30.008v-24.429h22.769a6 6 0 1 0 0-12h-22.769v-24.428h30.008a6 6 0 0 0 0-12h-30.008v-24.429h22.769a6 6 0 1 0 0-12h-22.769v-24.429h30.008a6 6 0 1 0 0-12h-30.008v-24.426h22.769a6 6 0 0 0 0-12h-22.769v-21h36.114a6 6 0 1 0 0-12h-37.246a10.875 10.875 0 0 0 -10.868 10.857v359.213a10.875 10.875 0 0 0 10.868 10.858h37.246a6 6 0 1 0 0-12z" fill="#6994fe"/><path d="m118.419 370.921h-.035a6 6 0 0 1 -5.966-6.034l.5-88.708a6 6 0 0 1 6-5.966h.035a6 6 0 0 1 5.966 6.034l-.5 88.708a6 6 0 0 1 -6 5.966z" fill="#f4f8fc"/><path d="m119.077 259.365h-.053a6 6 0 0 1 -5.948-6.051l.161-18.75a6 6 0 0 1 6-5.948h.053a6 6 0 0 1 5.948 6.051l-.161 18.75a6 6 0 0 1 -6 5.948z" fill="#f4f8fc"/></svg>