<svg id="Layer_1" height="512" viewBox="0 0 512 512" width="512" xmlns="http://www.w3.org/2000/svg" data-name="Layer 1"><path d="m471.98 253.2c0 .94-.01 1.87-.02 2.8h-27.16c.02-.93.03-1.87.03-2.8 0-104.12-84.71-188.82-188.83-188.82v-27.15c119.28 0 215.98 96.69 215.98 215.97z" fill="#6994fe"/><path d="m444.8 256h27.16c-1.5 117.99-97.62 213.18-215.96 213.18v-27.15c103.19 0 187.31-83.2 188.8-186.03z" fill="#80aaff"/><path d="m444.83 253.2c0 .93-.01 1.87-.03 2.8h-72.41c.03-.93.04-1.86.04-2.8a116.562 116.562 0 0 0 -116.43-116.43v-72.39c104.12 0 188.83 84.7 188.83 188.82z" fill="#4ca987"/><path d="m372.39 256h72.41c-1.49 102.83-85.61 186.03-188.8 186.03v-72.4a116.564 116.564 0 0 0 116.39-113.63z" fill="#5fcda4"/><path d="m256 442.03v27.15c-118.34 0-214.46-95.19-215.96-213.18h27.16c1.49 102.83 85.61 186.03 188.8 186.03z" fill="#6994fe"/><path d="m256 369.63v72.4c-103.19 0-187.31-83.2-188.8-186.03h72.41a116.564 116.564 0 0 0 116.39 113.63z" fill="#4ca987"/><path d="m256 64.38v72.39a116.562 116.562 0 0 0 -116.43 116.43c0 .94.01 1.87.04 2.8h-72.41c-.02-.93-.03-1.87-.03-2.8 0-104.12 84.71-188.82 188.83-188.82z" fill="#5fcda4"/><path d="m256 37.23v27.15c-104.12 0-188.83 84.7-188.83 188.82 0 .93.01 1.87.03 2.8h-27.16c-.01-.93-.02-1.86-.02-2.8 0-119.28 96.7-215.97 215.98-215.97z" fill="#80aaff"/><path d="m97.2 256h-30c1.49 102.83 85.61 186.03 188.8 186.03v-2.394c-89.021-14.273-157.457-90.979-158.8-183.636z" fill="#388264"/><path d="m256 66.773v-2.393c-104.12 0-188.83 84.7-188.83 188.82 0 .93.01 1.87.03 2.8h30c-.02-.93-.03-1.87-.03-2.8 0-93.912 68.918-172.013 158.83-186.427z" fill="#47a07c"/><g fill="#b0b5ca"><path d="m256 218.373a6 6 0 0 1 -6-6v-196.373a6 6 0 0 1 12 0v196.373a6 6 0 0 1 -6 6z"/><path d="m256 502a6 6 0 0 1 -6-6v-196.374a6 6 0 0 1 12 0v196.374a6 6 0 0 1 -6 6z"/><path d="m496 262h-196.374a6 6 0 0 1 0-12h196.374a6 6 0 0 1 0 12z"/><path d="m212.374 262h-196.374a6 6 0 0 1 0-12h196.374a6 6 0 1 1 0 12z"/></g><path d="m165.745 130.786a6 6 0 0 1 -3.084-11.151 130.541 130.541 0 0 1 18.17-9.019 6 6 0 1 1 4.48 11.132 118.662 118.662 0 0 0 -16.494 8.187 5.965 5.965 0 0 1 -3.072.851z" fill="#f4f8fc"/><path d="m106.932 217.627a6.143 6.143 0 0 1 -.951-.075 6 6 0 0 1 -4.981-6.869 129.841 129.841 0 0 1 43.915-78.313 6 6 0 1 1 7.785 9.13 117.844 117.844 0 0 0 -39.85 71.07 6 6 0 0 1 -5.918 5.057z" fill="#f4f8fc"/></svg>