<svg id="Layer_1" height="512" viewBox="0 0 512 512" width="512" xmlns="http://www.w3.org/2000/svg" data-name="Layer 1"><path d="m156.5 126.27v297.53a70.233 70.233 0 0 1 -64.99 70.01l364.56-2.15a40.077 40.077 0 0 0 39.93-40.06v-325.33z" fill="#fae7e3"/><path d="m471.86 18h-291.22a24.132 24.132 0 0 0 -24.14 24.12v84.15h339.5v-84.15a24.132 24.132 0 0 0 -24.14-24.12z" fill="#72bcef"/><path d="m91.51 493.81c-1.74.12-3.49.19-5.26.19a70.23 70.23 0 0 1 -70.25-70.2v-164.83a12.063 12.063 0 0 1 12.07-12.06h116.36a12.063 12.063 0 0 1 12.07 12.06v164.83a70.233 70.233 0 0 1 -64.99 70.01z" fill="#d6c6c4"/><path d="m186.5 423.8v-297.53h-30v297.53a70.233 70.233 0 0 1 -64.99 70.01l31.916-.188a70.222 70.222 0 0 0 63.074-69.822z" fill="#ceb3ae"/><path d="m210.64 18h-30a24.132 24.132 0 0 0 -24.14 24.12v84.15h30v-84.15a24.132 24.132 0 0 1 24.14-24.12z" fill="#599fc6"/><g fill="#bca5a2"><path d="m442.738 190.5h-16.165a6 6 0 0 1 0-12h16.165a6 6 0 0 1 0 12z"/><path d="m403.752 190.5h-23.367a6 6 0 0 1 0-12h23.367a6 6 0 0 1 0 12z"/><path d="m355.961 190.5h-146.105a6 6 0 0 1 0-12h146.105a6 6 0 0 1 0 12z"/><path d="m271 311.084h-61.144a6 6 0 0 1 0-12h61.144a6 6 0 0 1 0 12z"/><path d="m442.738 311.084h-146.1a6 6 0 0 1 0-12h146.1a6 6 0 0 1 0 12z"/><path d="m315.17 371.378h-104.215a6 6 0 1 1 0-12h104.215a6 6 0 0 1 0 12z"/><path d="m442.738 371.378h-99.933a6 6 0 0 1 0-12h99.933a6 6 0 0 1 0 12z"/><path d="m442.738 250.792h-49.079a6 6 0 0 1 0-12h49.079a6 6 0 0 1 0 12z"/><path d="m355.961 250.792h-146.105a6 6 0 0 1 0-12h146.105a6 6 0 0 1 0 12z"/><path d="m228.092 431.671h-18.236a6 6 0 0 1 0-12h18.236a6 6 0 1 1 0 12z"/><path d="m274.623 431.671h-23.54a6 6 0 0 1 0-12h23.54a6 6 0 0 1 0 12z"/><path d="m442.738 431.671h-146.1a6 6 0 0 1 0-12h146.1a6 6 0 0 1 0 12z"/></g><path d="m134.8 312.409h-17.688a6 6 0 1 1 0-12h17.688a6 6 0 0 1 0 12z" fill="#b2a2a1"/><path d="m97.093 312.409h-57.315a6 6 0 0 1 0-12h57.315a6 6 0 1 1 0 12z" fill="#b2a2a1"/><path d="m134.8 372.7h-95.022a6 6 0 0 1 0-12h95.022a6 6 0 0 1 0 12z" fill="#b2a2a1"/><path d="m57.47 431.789h-17.692a6 6 0 0 1 0-12h17.692a6 6 0 1 1 0 12z" fill="#b2a2a1"/><path d="m134.8 431.789h-57.311a6 6 0 0 1 0-12h57.311a6 6 0 0 1 0 12z" fill="#b2a2a1"/><path d="m343.7 52.754a6 6 0 0 1 0-12l117.7-.068a6 6 0 0 1 0 12z" fill="#f4f8fc"/><path d="m320.847 52.754h-19.747a6 6 0 0 1 0-12h19.75a6 6 0 0 1 0 12z" fill="#f4f8fc"/></svg>