<svg id="Layer_1" height="512" viewBox="0 0 512 512" width="512" xmlns="http://www.w3.org/2000/svg" data-name="Layer 1"><path d="m112.88 32.18a19.978 19.978 0 0 0 -25.55 12.05l-70.15 195.46a19.949 19.949 0 0 0 12.06 25.53l28.03 10.05 240.23-41.85 42.95-119.68z" fill="#e87187"/><path d="m482.76 164.75a19.949 19.949 0 0 1 12.06 25.53l-16.16 45.02a19.779 19.779 0 0 0 -8.46-1.88h-10.64l14.02-38.99a5.341 5.341 0 0 0 -3.24-6.84l-38.44-13.78a5.359 5.359 0 0 0 -6.85 3.23l-13.79 38.41a5.352 5.352 0 0 0 3.24 6.85l31.01 11.12h-148.01l42.95-119.68z" fill="#c66378"/><path d="m304.643 213.509a6 6 0 0 0 -7.674 3.62l-5.119 14.263a6 6 0 1 0 11.295 4.054l5.119-14.262a6 6 0 0 0 -3.621-7.675z" fill="#a35469"/><path d="m323.561 160.8a6 6 0 0 0 -7.674 3.62l-9.459 26.353a6 6 0 1 0 11.3 4.055l9.459-26.353a6 6 0 0 0 -3.626-7.675z" fill="#a35469"/><path d="m334.8 111.713-9.459 26.353a6 6 0 1 0 11.295 4.055l9.459-26.353z" fill="#a35469"/><path d="m478.66 235.3a19.779 19.779 0 0 0 -8.46-1.88h-151.19v247.58h151.19a19.977 19.977 0 0 0 19.98-19.97v-207.64a19.964 19.964 0 0 0 -11.52-18.09z" fill="#6994fe"/><path d="m470.34 187.59a5.341 5.341 0 0 1 3.24 6.84l-14.02 38.99h-14.05l-31.01-11.12a5.352 5.352 0 0 1 -3.24-6.85l13.79-38.41a5.359 5.359 0 0 1 6.85-3.23z" fill="#f3ce7d"/><path d="m77.24 233.42a19.969 19.969 0 0 0 -19.97 19.97v207.64a19.969 19.969 0 0 0 19.97 19.97h241.77v-247.58z" fill="#80aaff"/><path d="m291.73 126.57a9.988 9.988 0 0 1 6.03 12.77l-33.77 94.08h-42.97l-140.26-50.27a9.988 9.988 0 0 1 -6.03-12.77l35.29-98.33a10 10 0 0 1 12.78-6.03z" fill="#4ca987"/><path d="m185.74 173.21 35.62-12.05a8.5 8.5 0 0 1 11.56 5.61l8.51 31.87a8.465 8.465 0 0 1 -11.06 10.13l-110.59-39.64a8.458 8.458 0 0 1 -1.91-14.97l42.56-28.82a8.5 8.5 0 0 1 12.93 4.69z" fill="#c79a83"/><path d="m208.82 126.26a12.085 12.085 0 1 1 -15.49 7.29 12.086 12.086 0 0 1 15.49-7.29z" fill="#f3ce7d"/><path d="m287.47 271.92v104.46a9.982 9.982 0 0 1 -9.98 9.98h-179.47a9.984 9.984 0 0 1 -9.99-9.98v-104.46a9.987 9.987 0 0 1 9.99-9.99h179.47a9.984 9.984 0 0 1 9.98 9.99z" fill="#4ca987"/><path d="m193.48 341.59 29.46-23.36a8.494 8.494 0 0 1 12.77 1.38l18.77 27.13a8.459 8.459 0 0 1 -6.98 13.27l-117.49-.01a8.462 8.462 0 0 1 -6.86-13.45l30.33-41.48a8.5 8.5 0 0 1 13.75.05z" fill="#c79a83"/><path d="m199.34 289.62a12.08 12.08 0 1 1 -12.12 12.07 12.1 12.1 0 0 1 12.12-12.07z" fill="#f3ce7d"/><rect fill="#f3ce7d" height="51.52" rx="5.36" width="51.56" x="420.03" y="259.11"/><path d="m85.27 461.03v-207.64a19.969 19.969 0 0 1 19.97-19.97h-28a19.969 19.969 0 0 0 -19.97 19.97v207.64a19.969 19.969 0 0 0 19.97 19.97h28a19.969 19.969 0 0 1 -19.97-19.97z" fill="#678fce"/><path d="m116.03 376.38v-104.46a9.987 9.987 0 0 1 9.99-9.99h-28a9.987 9.987 0 0 0 -9.99 9.99v104.46a9.984 9.984 0 0 0 9.99 9.98h28a9.984 9.984 0 0 1 -9.99-9.98z" fill="#3c7f64"/><path d="m467.433 358.979h-120.509a6 6 0 0 1 0-12h120.509a6 6 0 0 1 0 12z" fill="#4d72ad"/><path d="m467.433 398.912h-120.509a6 6 0 0 1 0-12h120.509a6 6 0 0 1 0 12z" fill="#4d72ad"/><path d="m467.433 438.845h-120.509a6 6 0 0 1 0-12h120.509a6 6 0 0 1 0 12z" fill="#4d72ad"/><path d="m287.88 422.973h-198.295a6 6 0 1 1 0-12h198.3a6 6 0 0 1 0 12z" fill="#ccd3df"/><path d="m287.88 455.916h-198.295a6 6 0 1 1 0-12h198.3a6 6 0 0 1 0 12z" fill="#ccd3df"/><path d="m32.971 437.021h-.036a6 6 0 0 1 -5.965-6.037l.518-86.584a6 6 0 0 1 6-5.964h.036a6 6 0 0 1 5.965 6.037l-.518 86.584a6 6 0 0 1 -6 5.964z" fill="#d4e1f4"/><path d="m33.649 326.8h-.041a6 6 0 0 1 -5.96-6.041l.167-24.566a6 6 0 0 1 6-5.959h.041a6 6 0 0 1 5.96 6.041l-.167 24.566a6 6 0 0 1 -6 5.959z" fill="#d4e1f4"/><g fill="#577fce"><path d="m319.012 339.419a6 6 0 0 0 -6 6v28a6 6 0 0 0 12 0v-28a6 6 0 0 0 -6-6z"/><path d="m319.012 283.419a6 6 0 0 0 -6 6v28a6 6 0 0 0 12 0v-28a6 6 0 0 0 -6-6z"/><path d="m319.012 395.419a6 6 0 0 0 -6 6v28a6 6 0 0 0 12 0v-28a6 6 0 0 0 -6-6z"/><path d="m319.012 451.419a6 6 0 0 0 -6 6v23.581h12v-23.581a6 6 0 0 0 -6-6z"/><path d="m313.012 233.42v28a6 6 0 0 0 12 0v-28z"/></g></svg>