<svg id="Layer_1" height="512" viewBox="0 0 512 512" width="512" xmlns="http://www.w3.org/2000/svg" data-name="Layer 1"><path d="m408.36 74.67v80.62h-304.01v-124.42a14.863 14.863 0 0 1 14.85-14.87h217.55a13.594 13.594 0 0 1 6.32 1.53l.02 36.3a14.854 14.854 0 0 0 14.85 14.86h49.17a14.87 14.87 0 0 1 1.25 5.98z" fill="#a5e2fb"/><path d="m149.2 16h-30a14.863 14.863 0 0 0 -14.85 14.87v124.42h30v-124.42a14.863 14.863 0 0 1 14.85-14.87z" fill="#86bdce"/><path d="m442.25 154.29h-372.5a31.27 31.27 0 0 0 -31.25 31.29v173.03a31.27 31.27 0 0 0 31.25 31.29h372.5a31.27 31.27 0 0 0 31.25-31.29v-173.03a31.27 31.27 0 0 0 -31.25-31.29z" fill="#5fa8ed"/><rect fill="#e87187" height="24.55" rx="4.98" width="61.31" x="379.92" y="187.98"/><path d="m104.99 313.49v169.65a12.861 12.861 0 0 0 12.85 12.86h278.58a12.855 12.855 0 0 0 12.85-12.86v-169.65z" fill="#a5e2fb"/><path d="m407.1 68.69h-49.16a14.854 14.854 0 0 1 -14.85-14.86l-.02-36.3a22.083 22.083 0 0 1 4.4 3.05l56.77 43.8a14.47 14.47 0 0 1 2.86 4.31z" fill="#86bdce"/><path d="m137.59 187.38a12.88 12.88 0 1 1 -12.87 12.88 12.867 12.867 0 0 1 12.87-12.88z" fill="#f3ce7d"/><path d="m86.85 187.38a12.88 12.88 0 1 1 -12.87 12.88 12.867 12.867 0 0 1 12.87-12.88z" fill="#f3ce7d"/><path d="m68.5 358.61v-173.03a31.27 31.27 0 0 1 31.25-31.29h-30a31.27 31.27 0 0 0 -31.25 31.29v173.03a31.27 31.27 0 0 0 31.25 31.29h30a31.27 31.27 0 0 1 -31.25-31.29z" fill="#4b8bbf"/><path d="m134.99 483.14v-169.65h-30v169.65a12.861 12.861 0 0 0 12.85 12.86h30a12.861 12.861 0 0 1 -12.85-12.86z" fill="#86bdce"/><path d="m420.78 319.494h-329.56a6 6 0 0 1 0-12h329.56a6 6 0 0 1 0 12z" fill="#3f789e"/><g fill="#70a5b2"><path d="m358.773 367.077h-30.491a6 6 0 1 1 0-12h30.491a6 6 0 0 1 0 12z"/><path d="m298.306 367.077h-149.806a6 6 0 0 1 0-12h149.806a6 6 0 1 1 0 12z"/><path d="m358.773 407.715h-160.72a6 6 0 0 1 0-12h160.72a6 6 0 0 1 0 12z"/><path d="m177.793 407.715h-29.293a6 6 0 0 1 0-12h29.3a6 6 0 1 1 0 12z"/><path d="m358.773 448.352h-210.273a6 6 0 1 1 0-12h210.273a6 6 0 0 1 0 12z"/></g><path d="m129.452 59.139a6 6 0 0 1 -6-6v-13.75a6 6 0 0 1 12 0v13.75a6 6 0 0 1 -6 6z" fill="#f4f8fc"/><path d="m129.452 139.481a6 6 0 0 1 -6-6v-58.494a6 6 0 0 1 12 0v58.494a6 6 0 0 1 -6 6z" fill="#f4f8fc"/></svg>