<svg id="Layer_1" height="512" viewBox="0 0 512 512" width="512" xmlns="http://www.w3.org/2000/svg" data-name="Layer 1"><path d="m137.51 447.93.64 41.21a6.971 6.971 0 0 0 6.93 6.86h222.03c.23 0 .46-.01.68-.03a7.511 7.511 0 0 0 6.67-7.43l.04-41.19z" fill="#6d7486"/><path d="m359.81 16h-198.29a12.477 12.477 0 0 0 -12.42 13.56l-1.55 186.36a12.453 12.453 0 0 0 12.41 11.4h194.53a12.456 12.456 0 0 0 12.25-10.23l5.32-186.36a12.47 12.47 0 0 0 -12.25-14.73z" fill="#978cac"/><path d="m320.95 227.32h19.83v17.51h-19.83z" fill="#6d7486"/><path d="m192.04 227.32h128.91v17.51h-128.91z" fill="#b0b5ca"/><path d="m172.21 227.32h19.83v17.51h-19.83z" fill="#6d7486"/><path d="m337.47 472.9a3.975 3.975 0 1 1 -3.97 3.97 3.967 3.967 0 0 1 3.97-3.97z" fill="#f3ce7d"/><path d="m310.7 472.9a3.975 3.975 0 1 1 -3.97 3.97 3.973 3.973 0 0 1 3.97-3.97z" fill="#4ca987"/><path d="m372.52 256.18 1.98 191.17a11.354 11.354 0 0 1 -11.34 11.36h-214.32a11.368 11.368 0 0 1 -11.33-10.78l-.01-.58 2.97-191.17a11.346 11.346 0 0 1 11.34-11.35h209.37a11.346 11.346 0 0 1 11.34 11.35z" fill="#978cac"/><path d="m352.68 273.5 1.99 156.54a8.8 8.8 0 0 1 -8.79 8.8h-179.76a8.8 8.8 0 0 1 -8.79-8.8l2.98-156.54a8.794 8.794 0 0 1 8.79-8.81h174.79a8.794 8.794 0 0 1 8.79 8.81z" fill="#a5e2fb"/><path d="m177.55 215.92 1.55-186.36a12.477 12.477 0 0 1 12.42-13.56h-30a12.477 12.477 0 0 0 -12.42 13.56l-1.55 186.36a12.453 12.453 0 0 0 12.41 11.4h30a12.453 12.453 0 0 1 -12.41-11.4z" fill="#776e8e"/><path d="m187.33 430.04 2.98-156.54a8.794 8.794 0 0 1 8.79-8.81h-30a8.794 8.794 0 0 0 -8.79 8.81l-2.98 156.54a8.8 8.8 0 0 0 8.79 8.8h30a8.8 8.8 0 0 1 -8.79-8.8z" fill="#7dbfd3"/><path d="m208.341 482.413h-39.768a6 6 0 1 1 0-12h39.768a6 6 0 0 1 0 12z" fill="#b0b5ca"/><path d="m233.132 482.413h-7.044a6 6 0 1 1 0-12h7.044a6 6 0 1 1 0 12z" fill="#b0b5ca"/><g fill="#f4f8fc"><path d="m171.8 192.786h-.033a6 6 0 0 1 -5.967-6.033l.5-90.016a6 6 0 0 1 6-5.966h.034a6 6 0 0 1 5.966 6.029l-.5 90.015a6 6 0 0 1 -6 5.971z"/><path d="m172.454 80.111h-.054a6 6 0 0 1 -5.941-6.058l.16-16.553a6 6 0 0 1 6-5.942h.059a6 6 0 0 1 5.942 6.057l-.16 16.553a6 6 0 0 1 -6.006 5.943z"/></g></svg>