<svg id="Layer_1" height="512" viewBox="0 0 512 512" width="512" xmlns="http://www.w3.org/2000/svg" data-name="Layer 1"><path d="m353.83 42.52 1.59 119.95h-29.37v-118.95h26.79a.987.987 0 0 0 .99-1z" fill="#e4a295"/><path d="m353.5 41.78-31.81-23.25a10.773 10.773 0 0 0 -5.99-2.53h-125.76c-2.36 0-3.6.82-6.2 2.76l-29.37 23.06a.959.959 0 0 0 -.28.69.99.99 0 0 0 .99 1.01h197.76a.987.987 0 0 0 .99-1v-.04a.966.966 0 0 0 -.33-.7z" fill="#f4cfc2"/><path d="m155.08 43.52h25.8v118.95h-28.17l1.38-119.96a.99.99 0 0 0 .99 1.01z" fill="#e4a295"/><path d="m388.7 160.47h-265.4a10.3 10.3 0 0 0 -10.3 10.3v283.33h286v-283.33a10.3 10.3 0 0 0 -10.3-10.3z" fill="#80aaff"/><path d="m399 454.1v21.3a20.6 20.6 0 0 1 -20.6 20.6h-244.8a20.6 20.6 0 0 1 -20.6-20.6v-21.3z" fill="#6994fe"/><path d="m348.74 336.98a18.894 18.894 0 0 1 -23.5 18.39l-37.93-9.51a32.761 32.761 0 0 0 .44-16.9l37.03-10.26a18.929 18.929 0 0 1 23.96 18.28z" fill="#e87187"/><path d="m321.68 271.1a18.984 18.984 0 0 1 -3.64 29.66l-33.43 20.09a32.8 32.8 0 0 0 -11.7-12.21v-.01l18.94-33.48a18.888 18.888 0 0 1 29.83-4.05z" fill="#e87187"/><path d="m317.23 372.04a18.98 18.98 0 0 1 4.05 29.9 18.88 18.88 0 0 1 -29.59-3.64l-19.86-33.13a32.8 32.8 0 0 0 12.27-11.95z" fill="#e87187"/><path d="m264.87 368.05a32.554 32.554 0 0 1 -16.6.26 31.847 31.847 0 0 1 -7.93-3.11 32.929 32.929 0 0 1 -12.12-11.64 32.644 32.644 0 0 1 -.78-32.58 32.89 32.89 0 0 1 11.68-12.29 32.476 32.476 0 0 1 33.79-.06v.01a32.8 32.8 0 0 1 11.7 12.21 32.12 32.12 0 0 1 3.14 8.11 32.761 32.761 0 0 1 -.44 16.9 32.017 32.017 0 0 1 -3.21 7.36 32.8 32.8 0 0 1 -12.27 11.95 32 32 0 0 1 -6.96 2.88z" fill="#f3ce7d"/><g fill="#e87187"><path d="m274.98 263a19.048 19.048 0 0 1 -.57 4.63l-9.35 37.56a32.482 32.482 0 0 0 -17.07-.25l-10.16-36.84a18.923 18.923 0 1 1 37.15-5.1z"/><path d="m274.41 406.32a18.926 18.926 0 1 1 -36.58-.47l10.44-37.54a32.554 32.554 0 0 0 16.6-.26z"/><path d="m240.34 365.2-.01.02-20.13 33.6a18.938 18.938 0 1 1 -25.54-26.26l33.56-19a32.929 32.929 0 0 0 12.12 11.64z"/><path d="m220.36 275.35 18.76 33.34a32.89 32.89 0 0 0 -11.68 12.29l-33.28-20.03a18.989 18.989 0 0 1 -3.64-29.66h.01a18.89 18.89 0 0 1 29.83 4.06z"/><path d="m224.82 345.88h-.01l-37.93 9.49a18.949 18.949 0 1 1 .46-36.67l37.01 10.34a32.723 32.723 0 0 0 .47 16.84z"/></g><path d="m153.3 160.47h-30a10.3 10.3 0 0 0 -10.3 10.3v283.33h30v-283.33a10.3 10.3 0 0 1 10.3-10.3z" fill="#638ed3"/><path d="m143 475.4v-21.3h-30v21.3a20.6 20.6 0 0 0 20.6 20.6h30a20.6 20.6 0 0 1 -20.6-20.6z" fill="#5980ce"/><path d="m138.423 345.5h-.033a6 6 0 0 1 -5.968-6.032l.5-93.707a6 6 0 0 1 6-5.968h.033a6 6 0 0 1 5.967 6.032l-.5 93.707a6 6 0 0 1 -5.999 5.968z" fill="#f4f8fc"/><path d="m139.081 228.947h-.072a6 6 0 0 1 -5.929-6.069l.162-13.75a6 6 0 0 1 6-5.93h.071a6 6 0 0 1 5.93 6.07l-.162 13.749a6 6 0 0 1 -6 5.93z" fill="#f4f8fc"/></svg>