<svg id="Layer_1" height="512" viewBox="0 0 512 512" width="512" xmlns="http://www.w3.org/2000/svg" data-name="Layer 1"><path d="m100.96 181.66v298.66a15.658 15.658 0 0 0 15.64 15.68h169.12a15.667 15.667 0 0 0 15.65-15.68v-298.66z" fill="#c2e0f2"/><path d="m221.76 25.37h-40.17a3.124 3.124 0 0 0 -3.12 3.12v42.64h46.4v-42.64a3.115 3.115 0 0 0 -3.11-3.12z" fill="#84a0a3"/><path d="m200.5 231.76a10.2 10.2 0 0 0 -10.19 10.21v187.25a10.2 10.2 0 0 0 10.19 10.2h100.87v-207.66z" fill="#49bdff"/><path d="m301.37 271.44v132.44h-.01c-36.25 0-66.57-30.37-66.57-66.68s30.32-65.76 66.58-65.76z" fill="#3090fc"/><path d="m128.96 480.32v-298.66h-28v298.66a15.658 15.658 0 0 0 15.64 15.68h28a15.658 15.658 0 0 1 -15.64-15.68z" fill="#9bbac9"/><path d="m209.59 25.37h-28a3.124 3.124 0 0 0 -3.12 3.12v42.64h28v-42.64a3.124 3.124 0 0 1 3.12-3.12z" fill="#657e7f"/><path d="m296.35 152.45v.08h-190.38a55.865 55.865 0 0 1 55.74-55.91h78.91a55.859 55.859 0 0 1 55.73 55.83z" fill="#84a0a3"/><path d="m189.71 96.62h-28a55.865 55.865 0 0 0 -55.74 55.91h28a55.865 55.865 0 0 1 55.74-55.91z" fill="#657e7f"/><path d="m311.33 167.52v.02a14.983 14.983 0 0 1 -9.96 14.12 14.731 14.731 0 0 1 -5.03.87h-190.35a14.731 14.731 0 0 1 -5.03-.87 14.983 14.983 0 0 1 -9.96-14.12v-.02a14.991 14.991 0 0 1 14.97-14.99h190.38a14.986 14.986 0 0 1 14.98 14.99z" fill="#a4bdc1"/><path d="m119 167.54v-.02a14.991 14.991 0 0 1 14.97-14.99h-28a14.991 14.991 0 0 0 -14.97 14.99v.02a14.983 14.983 0 0 0 9.96 14.12 14.731 14.731 0 0 0 5.03.87h28a14.731 14.731 0 0 1 -5.03-.87 14.983 14.983 0 0 1 -9.96-14.12z" fill="#829193"/><path d="m234.74 69.13h-67.16a5.875 5.875 0 0 0 -5.87 5.88v21.61h78.91v-21.61a5.877 5.877 0 0 0 -5.88-5.88z" fill="#a4bdc1"/><path d="m195.58 69.13h-28a5.875 5.875 0 0 0 -5.87 5.88v21.61h28v-21.61a5.875 5.875 0 0 1 5.87-5.88z" fill="#829193"/><path d="m277.805 40.412a6 6 0 0 1 -.758-11.952l15.869-2.041a6 6 0 1 1 1.531 11.9l-15.869 2.04a5.958 5.958 0 0 1 -.773.053zm31.738-4.081a6 6 0 0 1 -.758-11.952l15.87-2.041a6 6 0 0 1 1.531 11.9l-15.87 2.04a5.946 5.946 0 0 1 -.773.053zm31.739-4.082a6 6 0 0 1 -.758-11.951l15.87-2.041a6 6 0 0 1 1.531 11.9l-15.869 2.043a6.152 6.152 0 0 1 -.774.049zm31.739-4.081a6 6 0 0 1 -.757-11.951l15.87-2.04a6 6 0 1 1 1.529 11.9l-15.87 2.04a6.121 6.121 0 0 1 -.772.051zm31.739-4.08a6 6 0 0 1 -.76-11.952l15.869-2.04a6 6 0 1 1 1.531 11.904l-15.869 2.041a6.137 6.137 0 0 1 -.771.047z" fill="#49bdff"/><path d="m418.266 89a6.071 6.071 0 0 1 -1.084-.1l-15.741-2.874a6 6 0 1 1 2.155-11.8l15.74 2.873a6 6 0 0 1 -1.07 11.9zm-31.48-5.748a5.988 5.988 0 0 1 -1.084-.1l-15.74-2.873a6 6 0 0 1 2.154-11.8l15.74 2.874a6 6 0 0 1 -1.07 11.9zm-31.479-5.747a5.98 5.98 0 0 1 -1.084-.1l-15.741-2.873a6 6 0 1 1 2.155-11.8l15.74 2.874a6 6 0 0 1 -1.07 11.9zm-31.48-5.748a6.077 6.077 0 0 1 -1.084-.1l-15.743-2.87a6 6 0 0 1 2.154-11.805l15.74 2.874a6 6 0 0 1 -1.07 11.9zm-31.48-5.747a6.088 6.088 0 0 1 -1.085-.1l-15.74-2.874a6 6 0 0 1 2.157-11.8l15.739 2.874a6 6 0 0 1 -1.071 11.9z" fill="#49bdff"/><g fill="#f4f8fc"><path d="m126.221 396.073h-.036a6 6 0 0 1 -5.965-6.034l.5-87.708a6 6 0 0 1 6-5.966h.035a6 6 0 0 1 5.966 6.034l-.5 87.708a6 6 0 0 1 -6 5.966z"/><path d="m126.878 285.518h-.05a6 6 0 0 1 -5.951-6.049l.161-19.749a6 6 0 0 1 6-5.951h.05a6 6 0 0 1 5.951 6.048l-.161 19.749a6 6 0 0 1 -6 5.952z"/></g></svg>