<svg id="Layer_1" height="512" viewBox="0 0 512 512" width="512" xmlns="http://www.w3.org/2000/svg" data-name="Layer 1"><path d="m258.11 16-230.56 166.21a240.224 240.224 0 0 0 -11.55 73.79c0 132.55 107.45 240 240 240s240-107.45 240-240c0-131.85-106.31-238.87-237.89-240z" fill="#53d8d8"/><path d="m286 473c-132.55 0-240-107.45-240-240a240.246 240.246 0 0 1 11-72.019l-29.45 21.229a240.224 240.224 0 0 0 -11.55 73.79c0 132.55 107.45 240 240 240a239.1 239.1 0 0 0 160.443-61.524 238.856 238.856 0 0 1 -130.443 38.524z" fill="#44aaa7"/><g fill="#388783"><path d="m286.794 56.083a5.987 5.987 0 0 1 -.841-.059c-4.462-.626-9.011-1.107-13.519-1.431a6 6 0 1 1 .859-11.969c4.778.343 9.6.853 14.326 1.517a6 6 0 0 1 -.825 11.942z"/><path d="m258.768 470.042a6 6 0 0 1 -.078-12 203.591 203.591 0 0 0 27.28-2.2 6 6 0 1 1 1.771 11.868 215.494 215.494 0 0 1 -28.892 2.33zm-28.128-1.52a6.1 6.1 0 0 1 -.736-.045 213.11 213.11 0 0 1 -28.474-5.466 6 6 0 1 1 3.06-11.6 201.45 201.45 0 0 0 26.868 5.157 6 6 0 0 1 -.718 11.956zm83.732-6.8a6 6 0 0 1 -1.682-11.76 201.417 201.417 0 0 0 25.672-9.462 6 6 0 1 1 4.909 10.95 213.074 213.074 0 0 1 -27.211 10.028 5.983 5.983 0 0 1 -1.688.249zm-138.124-7.556a5.967 5.967 0 0 1 -2.3-.463 214.381 214.381 0 0 1 -25.958-12.949 6 6 0 0 1 6.075-10.35 201.973 201.973 0 0 0 24.5 12.222 6 6 0 0 1 -2.309 11.54zm189.433-15.425a6 6 0 0 1 -3.178-11.095 203.834 203.834 0 0 0 22.2-16 6 6 0 0 1 7.654 9.242 216.126 216.126 0 0 1 -23.511 16.944 5.978 5.978 0 0 1 -3.165.914zm-237.953-13.031a5.974 5.974 0 0 1 -3.7-1.282 216.547 216.547 0 0 1 -21.544-19.394 6 6 0 0 1 8.61-8.359 204.45 204.45 0 0 0 20.347 18.316 6 6 0 0 1 -3.71 10.719zm281.246-22.831a6 6 0 0 1 -4.41-10.066 204.349 204.349 0 0 0 17.16-21.333 6 6 0 0 1 9.836 6.875 216.457 216.457 0 0 1 -18.172 22.591 5.986 5.986 0 0 1 -4.414 1.933zm-320.413-17.511a5.991 5.991 0 0 1 -4.83-2.435 215.469 215.469 0 0 1 -15.608-24.416 6 6 0 1 1 10.524-5.765 203.655 203.655 0 0 0 14.736 23.048 6 6 0 0 1 -4.822 9.565zm352.628-28.592a6 6 0 0 1 -5.333-8.743 201.6 201.6 0 0 0 10.827-25.145 6 6 0 0 1 11.317 3.982 213.6 213.6 0 0 1 -11.473 26.647 6 6 0 0 1 -5.338 3.259zm-379.624-20.7a6 6 0 0 1 -5.606-3.859 212.874 212.874 0 0 1 -8.481-27.731 6 6 0 0 1 11.688-2.717 200.96 200.96 0 0 0 8 26.163 6 6 0 0 1 -5.6 8.144zm398.3-32.378a6.078 6.078 0 0 1 -1.206-.122 6 6 0 0 1 -4.679-7.08 202.364 202.364 0 0 0 3.639-27.119 6 6 0 1 1 11.975.787 214.56 214.56 0 0 1 -3.856 28.733 6 6 0 0 1 -5.87 4.803zm-411.044-22.384a6 6 0 0 1 -5.967-5.448c-.607-6.564-.914-13.249-.914-19.87 0-2.993.073-6.067.218-9.137a6 6 0 1 1 11.987.567c-.136 2.882-.205 5.765-.205 8.57 0 6.253.29 12.568.863 18.765a6 6 0 0 1 -5.423 6.527c-.188.017-.374.026-.559.026zm414.749-33.72a6 6 0 0 1 -5.98-5.6 205.8 205.8 0 0 0 -3.652-27.133 6 6 0 1 1 11.757-2.4 217.466 217.466 0 0 1 3.867 28.723 6 6 0 0 1 -5.583 6.389c-.137.016-.274.021-.409.021zm-11.227-55.1a6 6 0 0 1 -5.664-4.022 202.387 202.387 0 0 0 -10.752-25.152 6 6 0 1 1 10.689-5.454 214.634 214.634 0 0 1 11.391 26.648 6 6 0 0 1 -5.664 7.98zm-25.543-50.069a5.994 5.994 0 0 1 -4.931-2.575 202.156 202.156 0 0 0 -17.112-21.35 6 6 0 0 1 8.834-8.123 214.467 214.467 0 0 1 18.13 22.623 6 6 0 0 1 -4.921 9.427zm-38.07-41.389a5.976 5.976 0 0 1 -3.821-1.376 200.254 200.254 0 0 0 -22.232-15.952 6 6 0 1 1 6.308-10.208 212.151 212.151 0 0 1 23.571 16.91 6 6 0 0 1 -3.826 10.624zm-47.845-29.564a5.97 5.97 0 0 1 -2.419-.512 198.266 198.266 0 0 0 -25.739-9.285 6 6 0 0 1 3.281-11.543 210.25 210.25 0 0 1 27.3 9.849 6 6 0 0 1 -2.425 11.491z"/><path d="m51.394 224.838a6 6 0 0 1 -5.913-7.055c.84-4.71 1.83-9.438 2.942-14.053a6 6 0 0 1 11.666 2.81c-1.056 4.384-2 8.876-2.8 13.352a6 6 0 0 1 -5.895 4.946z"/></g><path d="m242.335 433.08q-4.8 0-9.606-.334a140.437 140.437 0 0 1 -66.456-22.213 6 6 0 0 1 6.53-10.069 127.492 127.492 0 0 0 125.56 7.624 6 6 0 1 1 5.272 10.78 139.711 139.711 0 0 1 -61.3 14.212z" fill="#f4f8fc"/><path d="m149.826 396.452a5.97 5.97 0 0 1 -3.563-1.177 139.055 139.055 0 0 1 -19.334-17.33 6 6 0 0 1 8.81-8.148 127.08 127.08 0 0 0 17.66 15.831 6 6 0 0 1 -3.573 10.824z" fill="#f4f8fc"/><path d="m272.86 48.61a141.556 141.556 0 0 0 -5.54-14.89l-9.21-17.72c-.7-.01-224.57 147.83-230.38 165.66-.06.18-.12.37-.18.55l14.44 13.15a124.157 124.157 0 0 0 12.27 9.78c39.68 27.85 108.86 44.86 170.04-2.59h.01a141.788 141.788 0 0 0 48.55-153.94z" fill="#87f4f4"/></svg>