<svg id="Layer_1" height="512" viewBox="0 0 512 512" width="512" xmlns="http://www.w3.org/2000/svg" data-name="Layer 1"><path d="m122.72 210.64-44.76 26.02a3.322 3.322 0 0 1 -4.18-.71l-56.99-66.43a3.3 3.3 0 0 1 .19-4.49l83.91-69.59a129.321 129.321 0 0 1 49-25.37l27.27-7.35a6.244 6.244 0 0 1 3.35.02v.01c3.57 21.03 13.44 37.86 27.03 49.43a75.653 75.653 0 0 0 49.38 17.89c35.65 0 68.45-27.53 76.88-67.42a10.07 10.07 0 0 1 4.01.27l24.51 6.8a127.291 127.291 0 0 1 46.99 24.49l85.71 70.82a3.3 3.3 0 0 1 .19 4.49l-56.99 66.43a3.322 3.322 0 0 1 -4.18.71l-45.05-26.18 3.32 227.16c0 .25 0-.25-.02 6h-268.88c-.02-6.27-.03-5.73-.03-6z" fill="#5fa8ed"/><path d="m182.91 64.05c11.38 9.91 62.9 47.35 147.37-.21a9.923 9.923 0 0 1 3.52-1.19c-8.43 39.89-41.23 67.42-76.88 67.42a75.653 75.653 0 0 1 -49.38-17.89c-13.59-11.57-23.46-28.4-27.03-49.43v-.01a6.283 6.283 0 0 1 2.4 1.31z" fill="#4e7fa0"/><path d="m327.36 220.62.01 126.79a8.7 8.7 0 0 1 -8.7 8.7h-125.33a8.708 8.708 0 0 1 -8.7-8.71l-.01-126.79a8.7 8.7 0 0 1 8.7-8.7l125.33.01a8.693 8.693 0 0 1 8.7 8.7z" fill="#5fcda4"/><path d="m264.3 246.49a9.45 9.45 0 1 1 -9.5 9.44 9.481 9.481 0 0 1 9.5-9.44z" fill="#f3ce7d"/><path d="m180.51 62.75v-.01a6.244 6.244 0 0 0 -3.35-.02l-27.27 7.35a129.321 129.321 0 0 0 -49 25.37l-83.91 69.59a3.3 3.3 0 0 0 -.19 4.49l10.2 11.887 103.9-85.967a129.321 129.321 0 0 1 49-25.37l2.035-.549c-.541-2.208-1.025-4.46-1.415-6.771z" fill="#4b89bc"/><path d="m122.771 211.05.609 226.59c0 .27.01-.27.03 6h30c-.02-6.27-.03-5.73-.03-6l-.573-197.048a29.63 29.63 0 0 0 -30.036-29.542z" fill="#4b89bc"/><path d="m214.64 347.4-.01-126.79a8.7 8.7 0 0 1 8.653-8.7h-29.953a8.7 8.7 0 0 0 -8.7 8.7l.01 126.79a8.708 8.708 0 0 0 8.7 8.71h30a8.708 8.708 0 0 1 -8.7-8.71z" fill="#4fa884"/><path d="m257.16 293.61 25.65-14.75a6.7 6.7 0 0 1 10.03 1.08l14.72 21.23a6.617 6.617 0 0 1 -5.48 10.38l-92.16-.01a6.621 6.621 0 0 1 -5.38-10.52l23.79-32.45a6.674 6.674 0 0 1 10.79.04z" fill="#c79a83"/><g fill="#f4f8fc"><path d="m143.87 343.89a6 6 0 0 1 -6-6v-71.324a6 6 0 0 1 12 0v71.324a6 6 0 0 1 -6 6z"/><path d="m143.87 251.943a6 6 0 0 1 -6-6v-15.569a6 6 0 0 1 12 0v15.569a6 6 0 0 1 -6 6z"/></g></svg>