<svg id="Layer_1" height="512" viewBox="0 0 512 512" width="512" xmlns="http://www.w3.org/2000/svg" data-name="Layer 1"><path d="m310.08 16a23.609 23.609 0 0 1 23.59 23.69l-.16 97.03h-155.18v-97.07a23.62 23.62 0 0 1 23.59-23.65z" fill="#cad7e6"/><path d="m231.92 16h-30a23.62 23.62 0 0 0 -23.59 23.65v97.07h30v-97.07a23.62 23.62 0 0 1 23.59-23.65z" fill="#a9b9c9"/><path d="m347.21 136.72h-182.42a20.3 20.3 0 0 0 -20.29 20.3v227.48a111.5 111.5 0 0 0 223 0v-227.48a20.3 20.3 0 0 0 -20.29-20.3zm-91.21 324.84a13.59 13.59 0 1 1 13.56-13.59 13.578 13.578 0 0 1 -13.56 13.59z" fill="#5fa8ed"/><path d="m174.5 384.5v-227.48a20.3 20.3 0 0 1 20.29-20.3h-30a20.3 20.3 0 0 0 -20.29 20.3v227.48a111.538 111.538 0 0 0 126.5 110.492 111.516 111.516 0 0 1 -96.5-110.492z" fill="#4c8cc1"/><path d="m336.3 231.73v45.83a8.777 8.777 0 0 1 -8.78 8.77h-143.04a8.777 8.777 0 0 1 -8.78-8.77v-45.83a8.777 8.777 0 0 1 8.78-8.77h143.04a8.777 8.777 0 0 1 8.78 8.77z" fill="#4689d3"/><path d="m205.7 277.56v-45.83a8.777 8.777 0 0 1 8.78-8.77h-30a8.777 8.777 0 0 0 -8.78 8.77v45.83a8.777 8.777 0 0 0 8.78 8.77h30a8.777 8.777 0 0 1 -8.78-8.77z" fill="#3372aa"/><path d="m309.738 336.942h-107.476a6 6 0 1 1 0-12h107.476a6 6 0 1 1 0 12z" fill="#3d759b"/><path d="m309.738 370.161h-107.476a6 6 0 0 1 0-12h107.476a6 6 0 0 1 0 12z" fill="#3d759b"/><path d="m232.405 121.645a6 6 0 0 1 -6-6v-63.909a6 6 0 0 1 12 0v63.909a6 6 0 0 1 -6 6z" fill="#8f9eaa"/><path d="m279.6 121.645a6 6 0 0 1 -6-6v-63.909a6 6 0 1 1 12 0v63.909a6 6 0 0 1 -6 6z" fill="#8f9eaa"/><g fill="#f4f8fc"><path d="m238.5 169.882a6 6 0 0 1 0-12l83.709-.068a6 6 0 0 1 0 12z"/><path d="m215.651 169.882h-23.751a6 6 0 0 1 0-12h23.75a6 6 0 0 1 0 12z"/></g></svg>