<svg id="Layer_1" height="512" viewBox="0 0 512 512" width="512" xmlns="http://www.w3.org/2000/svg" data-name="Layer 1"><path d="m496 256h-82.6a156.928 156.928 0 0 0 -46.15-111.25l.05-.05 58.41-58.41a239.249 239.249 0 0 1 70.29 169.71z" fill="#ad5e73"/><path d="m385.02 346.07a156.542 156.542 0 0 0 28.38-90.07h82.6a239.249 239.249 0 0 1 -70.29 169.71l-58.41-58.41-.05-.05a157.61 157.61 0 0 0 16.66-19.62q.57-.78 1.11-1.56z" fill="#e87187"/><path d="m425.71 86.29-58.41 58.41-.05.05a156.936 156.936 0 0 0 -110.95-46.15h-.3v-82.6a239.249 239.249 0 0 1 169.71 70.29z" fill="#f3ce7d"/><path d="m256 413.4a156.928 156.928 0 0 0 111.25-46.15l.05.05 58.41 58.41a239.249 239.249 0 0 1 -169.71 70.29z" fill="#608eea"/><path d="m256.3 98.6 128.72 247.47q-.54.78-1.11 1.56h-255.82c-.29-.4-.57-.79-.85-1.19l128.42-247.84z" fill="#ccd3df"/><path d="m256 16v82.6h-.34a156.943 156.943 0 0 0 -110.91 46.15l-.05-.05-58.41-58.41a239.249 239.249 0 0 1 169.71-70.29z" fill="#b59a6b"/><path d="m144.75 367.25a156.928 156.928 0 0 0 111.25 46.15v82.6a239.249 239.249 0 0 1 -169.71-70.29l58.41-58.41z" fill="#80aaff"/><path d="m127.24 346.44c.28.4.56.79.85 1.19a157.61 157.61 0 0 0 16.66 19.62l-.05.05-58.41 58.41a239.249 239.249 0 0 1 -70.29-169.71h82.6a156.514 156.514 0 0 0 28.64 90.44z" fill="#4ca987"/><path d="m144.7 144.7.05.05a156.928 156.928 0 0 0 -46.15 111.25h-82.6a239.249 239.249 0 0 1 70.29-169.71z" fill="#5fcda4"/><path d="m116.29 86.29a239.29 239.29 0 0 1 139.71-68.427v-1.863a239.249 239.249 0 0 0 -169.71 70.29l15.671 15.671q6.824-8.145 14.329-15.671z" fill="#8c7554"/><path d="m101.961 410.039-15.671 15.671a239.249 239.249 0 0 0 169.71 70.29v-1.863a239.29 239.29 0 0 1 -139.71-68.427q-7.507-7.51-14.329-15.671z" fill="#6a91ce"/><path d="m46 256h-30a239.249 239.249 0 0 0 70.29 169.71l15.671-15.671a239.018 239.018 0 0 1 -55.961-154.039z" fill="#3c8768"/><path d="m101.961 101.961-15.671-15.671a239.249 239.249 0 0 0 -70.29 169.71h30a239.018 239.018 0 0 1 55.961-154.039z" fill="#5ab791"/><path d="m271.008 126.877-14.708-28.277h-.64l-128.42 247.84c.28.4.56.79.85 1.19h30c-.29-.4-.57-.79-.85-1.19z" fill="#a9b2bf"/><g fill="#f4f8fc"><path d="m176.309 307.636a6 6 0 0 1 -5.371-8.666l38.381-77.436a6 6 0 0 1 10.752 5.329l-38.381 77.437a6 6 0 0 1 -5.381 3.336z"/><path d="m225.185 209.073a6 6 0 0 1 -5.37-8.671l10.909-21.962a6 6 0 0 1 10.748 5.338l-10.908 21.962a6 6 0 0 1 -5.379 3.333z"/></g></svg>