<svg height="512pt" viewBox="0 -89 512 512" width="512pt" xmlns="http://www.w3.org/2000/svg"><path d="m176.160156 71.082031h-82.785156c-5.675781 0-10.457031 4.222657-11.15625 9.859375l-13.195312 106.550782v10.300781h116.261718v-125.753907zm0 0" fill="#fec12c"/><path d="m492.425781 8.828125v266.230469h-288.449219v-266.230469c0-4.882813 3.945313-8.828125 8.828126-8.828125h270.792968c4.882813 0 8.828125 3.945312 8.828125 8.828125zm0 0" fill="#ebebf0"/><path d="m385.238281 229.214844c-78.804687 0-142.6875-63.882813-142.6875-142.691406v-86.523438h-29.746093c-4.875 0-8.828126 3.953125-8.828126 8.828125v266.230469h288.449219v-45.84375zm0 0" fill="#dbdbdd"/><path d="m492.425781 187.492188v75.203124h-38.117187v-62.726562c0-6.890625 5.585937-12.476562 12.476562-12.476562zm0 0" fill="#fe6150"/><path d="m454.308594 199.96875v25.125h38.117187v-37.601562h-25.640625c-6.890625 0-12.476562 5.585937-12.476562 12.476562zm0 0" fill="#de332a"/><path d="m203.976562 64.902344h288.449219v88.59375h-288.449219zm0 0" fill="#7dacb0"/><path d="m242.550781 86.523438v-21.621094h-38.574219v88.59375h55.242188c-10.632812-19.972656-16.667969-42.765625-16.667969-66.972656zm0 0" fill="#6f9d9e"/><path d="m190.582031 187.492188v75.203124h-176.160156v-62.324218c0-7.109375 5.769531-12.878906 12.878906-12.878906zm0 0" fill="#f4aa08"/><path d="m82.195312 243.894531c-25.324218 0-45.855468-20.527343-45.855468-45.851562v-10.550781h-9.039063c-7.113281 0-12.878906 5.765624-12.878906 12.878906v62.324218h176.160156v-18.800781zm0 0" fill="#e29805"/><path d="m97.429688 159.273438 7.523437-60.738282c.191406-1.558594 1.515625-2.726562 3.085937-2.726562h40.285157c1.71875 0 3.113281 1.390625 3.113281 3.109375v60.738281c0 1.71875-1.394531 3.113281-3.113281 3.113281h-47.804688c-1.871093 0-3.320312-1.640625-3.089843-3.496093zm0 0" fill="#64d3ff"/><path d="m151.4375 142.679688c-18.800781 0-33.351562-16.464844-31.039062-35.121094l1.453124-11.75h-13.808593c-1.574219 0-2.898438 1.167968-3.089844 2.726562l-7.523437 60.738282c-.230469 1.855468 1.21875 3.496093 3.089843 3.496093h47.804688c1.71875 0 3.113281-1.394531 3.113281-3.113281zm0 0" fill="#34bfea"/><path d="m512 269.691406v10.734375c0 3.863281-3.132812 6.996094-6.996094 6.996094h-501.097656c-2.15625 0-3.90625-1.753906-3.90625-3.90625v-16.914063c0-2.152343 1.75-3.90625 3.90625-3.90625h501.097656c3.863282 0 6.996094 3.132813 6.996094 6.996094zm0 0" fill="#7dacb0"/><path d="m475.871094 276.089844h-448.054688c-7.398437 0-13.394531-5.996094-13.394531-13.394532h-10.515625c-2.15625 0-3.90625 1.75-3.90625 3.90625v16.914063c0 2.15625 1.75 3.90625 3.90625 3.90625h501.097656c3.863282 0 6.996094-3.132813 6.996094-6.996094v-4.335937zm0 0" fill="#6f9d9e"/><path d="m203.976562 56.1875v206.507812h-27.816406v-206.507812c0-3.152344 2.554688-5.707031 5.707032-5.707031h16.402343c3.152344 0 5.707031 2.554687 5.707031 5.707031zm0 0" fill="#2b5775"/><path d="m176.160156 276.089844c0 32.429687-26.289062 58.71875-58.71875 58.71875-32.429687 0-58.722656-26.289063-58.722656-58.71875 0-32.433594 26.292969-58.722656 58.722656-58.722656 32.429688 0 58.71875 26.289062 58.71875 58.722656zm0 0" fill="#525959"/><path d="m160.707031 312.144531c-32.429687 0-58.71875-26.289062-58.71875-58.71875 0-13.558593 4.605469-26.035156 12.324219-35.972656-30.976562 1.625-55.59375 27.253906-55.59375 58.636719 0 32.429687 26.292969 58.71875 58.722656 58.71875 18.871094 0 35.652344-8.914063 46.394532-22.75-1.035157.054687-2.078126.085937-3.128907.085937zm0 0" fill="#414747"/><path d="m151.4375 276.089844c0 18.773437-15.222656 33.996094-33.996094 33.996094-18.777344 0-33.996094-15.222657-33.996094-33.996094 0-18.777344 15.21875-33.996094 33.996094-33.996094 18.773438 0 33.996094 15.21875 33.996094 33.996094zm0 0" fill="#ebebf0"/><path d="m462.550781 276.089844c0 32.429687-26.289062 58.71875-58.71875 58.71875-32.429687 0-58.722656-26.289063-58.722656-58.71875 0-32.433594 26.292969-58.722656 58.722656-58.722656 32.429688 0 58.71875 26.289062 58.71875 58.722656zm0 0" fill="#525959"/><path d="m447.097656 312.144531c-32.429687 0-58.71875-26.289062-58.71875-58.71875 0-13.558593 4.605469-26.035156 12.324219-35.972656-30.976563 1.625-55.59375 27.253906-55.59375 58.636719 0 32.429687 26.292969 58.71875 58.722656 58.71875 18.871094 0 35.652344-8.914063 46.394531-22.75-1.035156.054687-2.078124.085937-3.128906.085937zm0 0" fill="#414747"/><path d="m437.828125 276.089844c0 18.773437-15.222656 33.996094-33.996094 33.996094-18.777343 0-33.996093-15.222657-33.996093-33.996094 0-18.777344 15.21875-33.996094 33.996093-33.996094 18.773438 0 33.996094 15.21875 33.996094 33.996094zm0 0" fill="#ebebf0"/><path d="m131.402344 294.632812c-18.78125 0-33.996094-15.214843-33.996094-33.996093 0-4.980469 1.078125-9.707031 3-13.96875-10.140625 5.886719-16.960938 16.851562-16.960938 29.421875 0 18.777344 15.214844 33.996094 33.996094 33.996094 13.800782 0 25.667969-8.222657 30.996094-20.03125-5.011719 2.90625-10.824219 4.578124-17.035156 4.578124zm0 0" fill="#dbdbdd"/><path d="m417.792969 294.632812c-18.78125 0-33.996094-15.214843-33.996094-33.996093 0-4.980469 1.078125-9.707031 3-13.96875-10.140625 5.886719-16.960937 16.851562-16.960937 29.421875 0 18.777344 15.214843 33.996094 33.996093 33.996094 13.800781 0 25.664063-8.222657 30.992188-20.03125-5.007813 2.90625-10.824219 4.578124-17.03125 4.578124zm0 0" fill="#dbdbdd"/><path d="m41.710938 216.863281c2.238281 2.234375 3.617187 5.328125 3.617187 8.746094 0 6.832031-5.53125 12.363281-12.363281 12.363281h-18.542969v-24.726562h18.542969c3.421875 0 6.511718 1.382812 8.746094 3.617187zm0 0" fill="#41c1fc"/></svg>