<svg height="512pt" viewBox="0 -53 512 512" width="512pt" xmlns="http://www.w3.org/2000/svg"><path d="m176.160156 143.195312h-82.785156c-5.675781 0-10.457031 4.222657-11.15625 9.859376l-13.195312 106.550781v10.359375h116.21875v-126.769532zm0 0" fill="#fe6150"/><path d="m492.425781 85.0625v262.109375h-288.449219v-262.109375c0-4.882812 3.945313-8.828125 8.828126-8.828125h270.792968c4.882813 0 8.828125 3.945313 8.828125 8.828125zm0 0" fill="#dceeef"/><path d="m386.554688 297.722656c-78.804688 0-142.691407-63.886718-142.691407-142.691406 0-2.929688 3.347657-4.554688 5.683594-2.785156 16.832031 12.738281 37.800781 20.292968 60.539063 20.292968 28.804687 0 54.789062-12.136718 73.09375-31.5625 8.566406-9.09375 15.453124-19.769531 20.171874-31.5625 4.136719-10.324218 6.601563-21.492187 7.070313-33.179687h-197.617187c-.28125 0-.558594.015625-.832032.042969-.164062.015625-.320312.042968-.480468.066406-.101563.015625-.199219.027344-.300782.046875-.207031.035156-.410156.085937-.609375.136719-.042969.011718-.085937.023437-.128906.035156-.21875.058594-.433594.128906-.644531.207031-.011719.003907-.027344.007813-.039063.011719-3.378906 1.242188-5.792969 4.476562-5.792969 8.28125v262.109375h288.449219v-49.449219zm0 0" fill="#ccdbdb"/><path d="m441.949219 0h-131.863281v26.785156h131.863281c7.394531 0 13.390625-5.996094 13.390625-13.394531 0-7.394531-5.996094-13.390625-13.390625-13.390625zm0 0" fill="#efa706"/><path d="m412.074219 26.785156c6.261719 0 11.332031 5.066406 11.332031 11.332032 0 6.261718-5.070312 11.332031-11.332031 11.332031h-46.90625c-2.75-8.335938-6.984375-15.988281-12.394531-22.664063zm0 0" fill="#fec12c"/><path d="m396.621094 98.898438c6.261718 0 11.332031 5.066406 11.332031 11.332031 0 6.261719-5.070313 11.332031-11.332031 11.332031h-45.378906c6.148437-6.53125 11.09375-14.195312 14.480468-22.664062zm0 0" fill="#fec12c"/><path d="m420.3125 121.5625h-110.226562v22.664062h110.226562c6.265625 0 11.332031-5.070312 11.332031-11.332031 0-6.265625-5.066406-11.332031-11.332031-11.332031zm0 0" fill="#efa706"/><path d="m366.167969 26.785156c5.40625 6.675782 9.640625 14.328125 12.394531 22.664063 2.355469 7.128906 3.632812 14.742187 3.632812 22.664062 0 9.464844-1.820312 18.5-5.140624 26.785157-3.386719 8.46875-8.332032 16.132812-14.484376 22.664062-13.144531 13.949219-31.800781 22.664062-52.484374 22.664062-39.828126 0-72.113282-32.285156-72.113282-72.113281s32.285156-72.113281 72.113282-72.113281c22.652343 0 42.863281 10.445312 56.082031 26.785156zm0 0" fill="#41c1fc"/><path d="m304.417969 49.449219c0-18.578125 7.027343-35.511719 18.566406-48.292969-4.1875-.757812-8.496094-1.15625-12.898437-1.15625-39.828126 0-72.113282 32.285156-72.113282 72.113281s32.285156 72.113281 72.113282 72.113281c20.683593 0 39.339843-8.714843 52.484374-22.664062.363282-.382812.703126-.785156 1.058594-1.175781-33.667968-6.085938-59.210937-35.519531-59.210937-70.9375zm0 0" fill="#12a8dd"/><path d="m492.425781 259.605469v75.203125h-38.117187v-62.726563c0-6.894531 5.585937-12.476562 12.476562-12.476562zm0 0" fill="#fe6150"/><path d="m454.308594 272.082031v25.125h38.117187v-37.601562h-25.640625c-6.890625 0-12.476562 5.582031-12.476562 12.476562zm0 0" fill="#de332a"/><path d="m190.582031 259.605469v75.203125h-176.160156v-62.324219c0-7.109375 5.769531-12.878906 12.878906-12.878906zm0 0" fill="#de332a"/><path d="m91.179688 316.007812c-25.324219 0-45.851563-20.527343-45.851563-45.851562v-10.550781h-18.027344c-7.113281 0-12.878906 5.765625-12.878906 12.878906v62.324219h176.160156v-18.800782zm0 0" fill="#d32420"/><path d="m97.429688 231.386719 7.523437-60.738281c.191406-1.558594 1.515625-2.730469 3.085937-2.730469h40.285157c1.71875 0 3.113281 1.394531 3.113281 3.113281v60.738281c0 1.71875-1.394531 3.113281-3.113281 3.113281h-47.804688c-1.871093 0-3.320312-1.640624-3.089843-3.496093zm0 0" fill="#64d3ff"/><path d="m151.4375 219.277344c-19.898438 0-35.300781-17.429688-32.855469-37.175782l1.753907-14.183593h-12.292969c-1.574219 0-2.898438 1.171875-3.089844 2.730469l-7.523437 60.738281c-.230469 1.855469 1.21875 3.496093 3.089843 3.496093h47.804688c1.71875 0 3.113281-1.394531 3.113281-3.113281zm0 0" fill="#34bfea"/><path d="m512 341.804688v10.734374c0 3.863282-3.132812 6.992188-6.996094 6.992188h-501.097656c-2.15625 0-3.90625-1.75-3.90625-3.902344v-16.914062c0-2.15625 1.75-3.90625 3.90625-3.90625h501.097656c3.863282 0 6.996094 3.132812 6.996094 6.996094zm0 0" fill="#fec12c"/><path d="m481.84375 347.171875h-449.085938c-6.824218 0-12.359374-5.535156-12.359374-12.363281h-16.492188c-2.15625 0-3.90625 1.75-3.90625 3.90625v16.914062c0 2.15625 1.75 3.902344 3.90625 3.902344h501.097656c3.863282 0 6.996094-3.128906 6.996094-6.992188v-5.367187zm0 0" fill="#efa706"/><path d="m203.976562 128.296875v206.511719h-27.816406v-206.511719c0-3.152344 2.554688-5.707031 5.707032-5.707031h16.402343c3.152344 0 5.707031 2.554687 5.707031 5.707031zm0 0" fill="#2b5775"/><path d="m176.160156 348.203125c0 32.429687-26.289062 58.71875-58.71875 58.71875-32.429687 0-58.722656-26.289063-58.722656-58.71875 0-32.433594 26.292969-58.722656 58.722656-58.722656 32.429688 0 58.71875 26.289062 58.71875 58.722656zm0 0" fill="#525959"/><path d="m155.558594 377.046875c-32.429688 0-58.722656-26.289063-58.722656-58.722656 0-9.804688 2.417968-19.039063 6.667968-27.164063-25.699218 6.257813-44.785156 29.414063-44.785156 57.042969 0 32.429687 26.292969 58.71875 58.722656 58.71875 22.625 0 42.246094-12.804687 52.054688-31.554687-4.46875 1.089843-9.136719 1.679687-13.9375 1.679687zm0 0" fill="#414747"/><path d="m151.4375 348.203125c0 18.773437-15.222656 33.992187-33.996094 33.992187-18.777344 0-33.996094-15.21875-33.996094-33.992187 0-18.777344 15.21875-33.996094 33.996094-33.996094 18.773438 0 33.996094 15.21875 33.996094 33.996094zm0 0" fill="#ebebf0"/><path d="m462.550781 348.203125c0 32.429687-26.289062 58.71875-58.71875 58.71875-32.429687 0-58.722656-26.289063-58.722656-58.71875 0-32.433594 26.292969-58.722656 58.722656-58.722656 32.429688 0 58.71875 26.289062 58.71875 58.722656zm0 0" fill="#525959"/><path d="m441.949219 377.046875c-32.429688 0-58.722657-26.289063-58.722657-58.722656 0-9.804688 2.417969-19.039063 6.667969-27.164063-25.699219 6.257813-44.785156 29.414063-44.785156 57.042969 0 32.429687 26.292969 58.71875 58.722656 58.71875 22.625 0 42.246094-12.804687 52.054688-31.554687-4.46875 1.089843-9.136719 1.679687-13.9375 1.679687zm0 0" fill="#414747"/><path d="m437.828125 348.203125c0 18.773437-15.222656 33.992187-33.996094 33.992187-18.777343 0-33.996093-15.21875-33.996093-33.992187 0-18.777344 15.21875-33.996094 33.996093-33.996094 18.773438 0 33.996094 15.21875 33.996094 33.996094zm0 0" fill="#ebebf0"/><path d="m136.5 368.804688c-18.78125 0-33.996094-15.214844-33.996094-33.996094 0-7.230469 2.261719-13.929688 6.109375-19.441406-14.496093 3.886718-25.167969 17.109374-25.167969 32.835937 0 18.777344 15.214844 33.992187 33.996094 33.992187 11.546875 0 21.738282-5.757812 27.882813-14.554687-2.8125.753906-5.769531 1.164063-8.824219 1.164063zm0 0" fill="#dbdbdd"/><path d="m422.890625 368.804688c-18.78125 0-33.996094-15.214844-33.996094-33.996094 0-7.230469 2.261719-13.929688 6.109375-19.441406-14.496094 3.886718-25.167968 17.109374-25.167968 32.835937 0 18.777344 15.214843 33.992187 33.996093 33.992187 11.546875 0 21.738281-5.757812 27.882813-14.554687-2.8125.753906-5.769532 1.164063-8.824219 1.164063zm0 0" fill="#dbdbdd"/><path d="m41.710938 288.976562c2.238281 2.234376 3.617187 5.324219 3.617187 8.746094 0 6.828125-5.53125 12.363282-12.363281 12.363282h-18.542969v-24.726563h18.542969c3.421875 0 6.511718 1.382813 8.746094 3.617187zm0 0" fill="#41c1fc"/><path d="m355.414062 72.113281c0 25.035157-20.296874 45.328125-45.328124 45.328125-25.035157 0-45.328126-20.292968-45.328126-45.328125 0-25.035156 20.292969-45.328125 45.328126-45.328125 25.03125 0 45.328124 20.292969 45.328124 45.328125zm0 0" fill="#ebebf0"/><path d="m298.753906 91.171875c-1.976562 0-3.957031-.753906-5.464844-2.265625-3.015624-3.015625-3.015624-7.910156 0-10.925781l9.070313-9.066407v-17.40625c0-4.265624 3.457031-7.726562 7.726563-7.726562 4.265624 0 7.726562 3.460938 7.726562 7.726562v20.605469c0 2.046875-.816406 4.015625-2.265625 5.460938l-11.332031 11.332031c-1.507813 1.511719-3.484375 2.265625-5.460938 2.265625zm0 0" fill="#d4d4d6"/></svg>