<svg height="512pt" viewBox="0 -52 512 512" width="512pt" xmlns="http://www.w3.org/2000/svg"><path d="m176.160156 143.199219h-82.785156c-5.675781 0-10.457031 4.222656-11.15625 9.859375l-13.195312 106.550781v14.265625h121.046874v-130.679688h-13.910156zm0 0" fill="#fe6150"/><path d="m344.65625 13.503906-126.644531 49.117188v36.421875h244.539062v-40.285157zm0 0" fill="#fec359"/><path d="m492.425781 80.945312v266.230469h-288.449219v-266.230469c0-4.882812 3.945313-8.828124 8.828126-8.828124h270.792968c4.882813 0 8.828125 3.945312 8.828125 8.828124zm0 0" fill="#ffe8c2"/><path d="m488.296875 308.027344h-114.332031c-78.804688 0-142.6875-63.886719-142.6875-142.691406v-93.21875h-18.472656c-4.875 0-8.828126 3.949218-8.828126 8.828124v266.230469h288.449219v-39.148437zm0 0" fill="#f4d8b0"/><path d="m333.777344 147.132812v145.441407h-87.5625v-145.441407c0-8.4375 6.828125-15.265624 15.265625-15.265624h57.03125c8.4375 0 15.265625 6.828124 15.265625 15.265624zm0 0" fill="#fec359"/><path d="m267.214844 204.160156v-72.292968h-5.734375c-8.433594 0-15.265625 6.835937-15.265625 15.265624v145.441407h87.5625v-22.910157h-1.0625c-36.175782 0-65.5-29.324218-65.5-65.503906zm0 0" fill="#f4b54e"/><path d="m203.976562 288.453125h288.449219v54.535156h-288.449219zm0 0" fill="#f2d1a0"/><path d="m492.425781 259.609375v75.203125h-38.117187v-62.730469c0-6.890625 5.585937-12.472656 12.476562-12.472656zm0 0" fill="#fe6150"/><path d="m454.308594 272.082031v25.128907h38.117187v-37.601563h-25.640625c-6.890625 0-12.476562 5.582031-12.476562 12.472656zm0 0" fill="#de332a"/><path d="m190.582031 259.609375v79.324219h-176.160156v-66.449219c0-7.105469 5.769531-12.875 12.878906-12.875zm0 0" fill="#de332a"/><path d="m84.40625 321.179688c-25.324219 0-45.855469-20.53125-45.855469-45.855469v-15.714844h-11.25c-7.113281 0-12.878906 5.765625-12.878906 12.875v66.449219h176.160156v-17.753906zm0 0" fill="#d32420"/><path d="m97.429688 231.390625 7.523437-60.738281c.191406-1.558594 1.515625-2.730469 3.085937-2.730469h40.285157c1.71875 0 3.113281 1.394531 3.113281 3.113281v60.738282c0 1.71875-1.394531 3.113281-3.113281 3.113281h-47.804688c-1.871093-.003907-3.320312-1.640625-3.089843-3.496094zm0 0" fill="#64d3ff"/><path d="m151.4375 214.265625c-15.785156 0-28.003906-13.824219-26.0625-29.488281l2.085938-16.855469h-19.421876c-1.570312 0-2.894531 1.171875-3.085937 2.730469l-7.523437 60.738281c-.230469 1.855469 1.21875 3.492187 3.089843 3.492187h47.804688c1.71875 0 3.113281-1.390624 3.113281-3.109374zm0 0" fill="#34bfea"/><path d="m512 341.804688v10.738281c0 3.859375-3.132812 6.992187-6.996094 6.992187h-501.097656c-2.15625 0-3.90625-1.75-3.90625-3.902344v-16.917968c0-2.152344 1.75-3.902344 3.90625-3.902344h501.097656c3.863282 0 6.996094 3.132812 6.996094 6.992188zm0 0" fill="#dceeef"/><path d="m478.632812 347.175781h-457.542968c-2.152344 0-3.90625-1.753906-3.90625-3.90625v-8.457031h-13.277344c-2.15625 0-3.90625 1.75-3.90625 3.902344v16.917968c0 2.152344 1.75 3.902344 3.90625 3.902344h501.097656c3.863282 0 6.996094-3.132812 6.996094-6.992187v-5.367188zm0 0" fill="#ccdbdb"/><path d="m203.976562 128.300781v206.511719h-27.816406v-206.511719c0-3.152343 2.554688-5.707031 5.707032-5.707031h16.402343c3.152344 0 5.707031 2.554688 5.707031 5.707031zm0 0" fill="#7dacb0"/><path d="m176.160156 348.449219c0 32.429687-26.289062 58.722656-58.71875 58.722656-32.429687 0-58.722656-26.292969-58.722656-58.722656 0-32.429688 26.292969-58.71875 58.722656-58.71875 32.429688 0 58.71875 26.289062 58.71875 58.71875zm0 0" fill="#525959"/><path d="m161.222656 385.414062c-32.429687 0-58.71875-26.292968-58.71875-58.722656 0-13.988281 4.898438-26.828125 13.066406-36.914062-31.5625.988281-56.851562 26.871094-56.851562 58.671875 0 32.429687 26.292969 58.722656 58.722656 58.722656 18.441406 0 34.886719-8.507813 45.652344-21.804687-.621094.019531-1.242188.046874-1.871094.046874zm0 0" fill="#414747"/><path d="m151.4375 348.203125c0 18.777344-15.222656 33.996094-33.996094 33.996094-18.777344 0-33.996094-15.21875-33.996094-33.996094 0-18.773437 15.21875-33.996094 33.996094-33.996094 18.773438 0 33.996094 15.222657 33.996094 33.996094zm0 0" fill="#ebebf0"/><path d="m462.550781 348.203125c0 32.429687-26.289062 58.722656-58.71875 58.722656-32.429687 0-58.722656-26.292969-58.722656-58.722656s26.292969-58.71875 58.722656-58.71875c32.429688 0 58.71875 26.289063 58.71875 58.71875zm0 0" fill="#525959"/><path d="m447.613281 385.167969c-32.429687 0-58.71875-26.289063-58.71875-58.71875 0-13.992188 4.898438-26.832031 13.066407-36.917969-31.5625.988281-56.851563 26.871094-56.851563 58.671875 0 32.429687 26.292969 58.722656 58.722656 58.722656 18.4375 0 34.886719-8.507812 45.652344-21.804687-.625.019531-1.242187.046875-1.871094.046875zm0 0" fill="#414747"/><path d="m437.828125 348.203125c0 18.777344-15.222656 33.996094-33.996094 33.996094-18.777343 0-33.996093-15.21875-33.996093-33.996094 0-18.773437 15.21875-33.996094 33.996093-33.996094 18.773438 0 33.996094 15.222657 33.996094 33.996094zm0 0" fill="#ebebf0"/><path d="m139.105469 368.808594c-18.777344 0-33.992188-15.214844-33.992188-33.996094 0-7.527344 2.445313-14.480469 6.585938-20.113281-16.042969 2.730469-28.253907 16.683593-28.253907 33.503906 0 18.78125 15.214844 33.996094 33.996094 33.996094 11.25 0 21.21875-5.464844 27.40625-13.882813-1.867187.316406-3.78125.492188-5.742187.492188zm0 0" fill="#dbdbdd"/><path d="m425.496094 368.808594c-18.777344 0-33.996094-15.214844-33.996094-33.996094 0-7.527344 2.449219-14.480469 6.589844-20.113281-16.042969 2.730469-28.253906 16.683593-28.253906 33.503906 0 18.78125 15.214843 33.996094 33.996093 33.996094 11.25 0 21.21875-5.464844 27.40625-13.882813-1.867187.316406-3.78125.492188-5.742187.492188zm0 0" fill="#dbdbdd"/><path d="m41.710938 288.980469c2.238281 2.234375 3.617187 5.324219 3.617187 8.746093 0 6.828126-5.53125 12.359376-12.363281 12.359376h-18.542969v-24.722657h18.542969c3.421875 0 6.511718 1.378907 8.746094 3.617188zm0 0" fill="#41c1fc"/><path d="m505.179688 61.609375c3.050781 1.183594 4.554687 4.625 3.359374 7.671875l-5.441406 13.910156c-1.195312 3.046875-4.625 4.550782-7.671875 3.355469l-150.40625-58.8125-151.386719 56.898437c-3.070312 1.144532-6.480468-.402343-7.632812-3.472656l-5.253906-13.96875c-1.15625-3.070312.402344-6.480468 3.460937-7.632812l156.195313-58.699219c3.089844-1.164063 6.511718-1.144531 9.582031.058594zm0 0" fill="#fe6150"/><path d="m462.550781 143.683594v69.082031c0 4.820313-3.902343 8.726563-8.726562 8.726563h-81.445313c-4.820312 0-8.726562-3.90625-8.726562-8.726563v-69.082031c0-4.824219 3.90625-8.726563 8.726562-8.726563h81.445313c4.824219 0 8.726562 3.902344 8.726562 8.726563zm0 0" fill="#41c1fc"/><path d="m462.550781 170.496094h-41.722656v-35.539063h-15.453125v35.539063h-41.722656v15.453125h41.722656v35.542969h15.453125v-35.542969h41.722656zm0 0" fill="#13a0d1"/><path d="m279.695312 212.21875c0 5.40625-4.382812 9.789062-9.789062 9.789062-5.402344 0-9.785156-4.382812-9.785156-9.789062 0-5.402344 4.382812-9.785156 9.785156-9.785156 5.40625 0 9.789062 4.382812 9.789062 9.785156zm0 0" fill="#efa022"/></svg>