<svg height="512pt" viewBox="-39 0 512 512.00016" width="512pt" xmlns="http://www.w3.org/2000/svg"><path d="m333.21875 116.414062c0 55.875-39.363281 102.542969-91.871094 113.8125l-19.765625 26.15625c-2.390625 3.164063-7.152343 3.164063-9.539062 0l-19.769531-26.15625c-52.890626-11.351562-92.449219-58.617187-91.863282-115.039062.648438-63.921875 53.488282-115.730469 117.421875-115.18359375 63.816407.54687475 115.386719 52.45703175 115.386719 116.41015575zm0 0" fill="#8effa4"/><path d="m317.207031 116.414062c0 55.445313-44.949219 100.394532-100.394531 100.394532-55.449219 0-100.398438-44.949219-100.398438-100.394532 0-55.445312 44.949219-100.394531 100.398438-100.394531 55.445312 0 100.394531 44.949219 100.394531 100.394531zm0 0" fill="#5ded75"/><path d="m194.15625 115.1875c.476562-46.960938 29.117188-87.378906 69.632812-105.308594-14.074218-6.21875-29.613281-9.734375-45.957031-9.87499975-63.933593-.54687525-116.773437 51.26171875-117.421875 115.18359375-.585937 56.421875 38.972656 103.6875 91.863282 115.039062l19.769531 26.15625c2.386719 3.164063 7.148437 3.164063 9.539062 0l19.765625-26.15625c7.757813-1.664062 15.21875-4.121093 22.316406-7.246093-41.289062-18.191407-70.007812-59.65625-69.507812-107.792969zm0 0" fill="#5ded75"/><path d="m405.847656 379.109375v125.082031c0 4.316406-3.492187 7.808594-7.808594 7.808594h-126.648437v-223.453125zm0 0" fill="#ef861d"/><path d="m271.390625 297.621094v214.378906h-233.746094c-4.316406 0-7.808593-3.492188-7.808593-7.808594v-174.738281l241.554687-41zm0 0" fill="#fc992d"/><path d="m195.445312 488.808594c-73.394531 0-132.894531-59.496094-132.894531-132.890625v-32.019531l-32.714843 5.554687v174.738281c0 4.3125 3.496093 7.808594 7.808593 7.808594h233.746094v-23.191406zm0 0" fill="#ef861d"/><path d="m271.410156 288.453125-29.980468 87.945313c-.554688 1.621093-2.074219 2.710937-3.785157 2.710937h-233.644531c-2.738281 0-4.667969-2.695313-3.78125-5.289063l28.152344-82.585937c.566406-1.664063 2.128906-2.78125 3.886718-2.78125zm0 0" fill="#ef861d"/><path d="m407.308594 291.234375 27.898437 81.832031c1.011719 2.964844-1.191406 6.042969-4.324219 6.042969h-125.300781c-1.953125 0-3.691406-1.242187-4.320312-3.09375l-29.851563-87.5625h132.015625c1.753907 0 3.316407 1.117187 3.882813 2.78125zm0 0" fill="#fc992d"/><path d="m303.34375 116.414062c0 47.792969-38.742188 86.535157-86.53125 86.535157-47.792969 0-86.535156-38.742188-86.535156-86.535157 0-47.792968 38.742187-86.535156 86.535156-86.535156 47.789062 0 86.53125 38.742188 86.53125 86.535156zm0 0" fill="#ebebf0"/><path d="m268.453125 89.761719c2.308594 2.308593 2.308594 6.058593 0 8.375l-56.597656 56.589843c-2.574219 2.585938-6.003907 3.925782-9.46875 3.925782-2.265625 0-4.550781-.578125-6.621094-1.753906l-28.339844-16.132813c-2.835937-1.617187-3.832031-5.230469-2.214843-8.074219l7.394531-12.980468c1.617187-2.84375 5.234375-3.832032 8.078125-2.214844l19.457031 11.074218 49.367187-49.375c2.320313-2.308593 6.066407-2.308593 8.375 0zm0 0" fill="#fe6150"/><path d="m364.125 460.78125v51.21875h-51.507812v-51.3125c0-4.109375 4.523437-6.59375 7.992187-4.398438l18.007813 11.414063 17.484374-11.292969c3.460938-2.242187 8.023438.25 8.023438 4.371094zm0 0" fill="#fec12c"/><path d="m231.234375 418.253906v49.449219c0 3.988281-3.226563 7.210937-7.210937 7.210937h-146.285157c-3.988281 0-7.210937-3.222656-7.210937-7.210937v-49.449219c0-3.984375 3.222656-7.210937 7.210937-7.210937h146.285157c3.984374 0 7.210937 3.226562 7.210937 7.210937zm0 0" fill="#ffe8c2"/><path d="m137.070312 459.046875c-26.507812 0-48-21.492187-48-48.003906h-11.332031c-3.984375 0-7.210937 3.230469-7.210937 7.210937v49.449219c0 3.980469 3.226562 7.210937 7.210937 7.210937h146.285157c3.980468 0 7.210937-3.230468 7.210937-7.210937v-8.65625zm0 0" fill="#f2d9b6"/><g fill="#f2d1a0"><path d="m110.703125 450.703125h-15.453125c-4.265625 0-7.726562-3.457031-7.726562-7.722656 0-4.269531 3.460937-7.726563 7.726562-7.726563h15.453125c4.265625 0 7.726563 3.457032 7.726563 7.726563 0 4.265625-3.460938 7.722656-7.726563 7.722656zm0 0"/><path d="m207.539062 450.703125h-76.234374c-4.265626 0-7.722657-3.457031-7.722657-7.722656 0-4.269531 3.457031-7.726563 7.722657-7.726563h76.234374c4.265626 0 7.726563 3.457032 7.726563 7.726563 0 4.265625-3.460937 7.722656-7.726563 7.722656zm0 0"/></g></svg>