<svg height="512pt" viewBox="-62 0 512 512" width="512pt" xmlns="http://www.w3.org/2000/svg"><path d="m70.566406 393.527344h245.183594v105.082031h-245.183594zm0 0" fill="#c5d1d1"/><path d="m65.929688 380.136719h255.488281v26.785156h-255.488281zm0 0" fill="#8cc0c5"/><path d="m65.929688 485.214844h255.488281v26.785156h-255.488281zm0 0" fill="#8cc0c5"/><path d="m387.347656 446.070312c0 36.410157-29.519531 65.929688-65.929687 65.929688-36.414063 0-65.933594-29.519531-65.933594-65.929688 0-36.414062 29.519531-65.933593 65.933594-65.933593 36.410156 0 65.929687 29.519531 65.929687 65.933593zm0 0" fill="#dceeef"/><path d="m131.863281 446.070312c0 36.410157-29.519531 65.929688-65.933593 65.929688-36.410157 0-65.929688-29.519531-65.929688-65.929688 0-36.414062 29.519531-65.933593 65.929688-65.933593 36.414062 0 65.933593 29.519531 65.933593 65.933593zm0 0" fill="#dceeef"/><path d="m351.808594 491.910156c-36.417969 0-65.933594-29.511718-65.933594-65.929687 0-16.363281 5.972656-31.324219 15.839844-42.847657-26.789063 8.375-46.230469 33.382813-46.230469 62.9375 0 36.414063 29.515625 65.929688 65.933594 65.929688 20.050781 0 37.996093-8.960938 50.089843-23.085938-6.222656 1.945313-12.839843 2.996094-19.699218 2.996094zm0 0" fill="#ccdbdb"/><path d="m96.320312 491.910156c-36.414062 0-65.929687-29.511718-65.929687-65.929687 0-16.363281 5.972656-31.324219 15.839844-42.847657-26.789063 8.375-46.230469 33.382813-46.230469 62.9375 0 36.414063 29.515625 65.929688 65.929688 65.929688 20.054687 0 38-8.960938 50.09375-23.085938-6.222657 1.945313-12.839844 2.996094-19.703126 2.996094zm0 0" fill="#ccdbdb"/><path d="m344.082031 252.734375v118.820313c0 4.738281-3.84375 8.582031-8.582031 8.582031h-283.652344c-4.738281 0-8.578125-3.84375-8.578125-8.582031v-118.820313c0-4.738281 3.839844-8.582031 8.578125-8.582031h283.652344c4.738281 0 8.582031 3.84375 8.582031 8.582031zm0 0" fill="#fc992d"/><path d="m184.515625 347.6875c-57.179687 0-103.53125-46.355469-103.53125-103.535156h-29.136719c-4.738281 0-8.578125 3.84375-8.578125 8.582031v118.820313c0 4.742187 3.839844 8.582031 8.578125 8.582031h283.652344c4.738281 0 8.582031-3.839844 8.582031-8.582031v-23.867188zm0 0" fill="#ef861d"/><path d="m335.5 244.152344h-90.316406v135.984375h90.316406c4.738281 0 8.582031-3.84375 8.582031-8.582031v-118.820313c0-4.738281-3.84375-8.582031-8.582031-8.582031zm0 0" fill="#ef861d"/><path d="m326.566406 131.171875v104.398437c0 4.738282-3.839844 8.582032-8.582031 8.582032h-248.621094c-4.738281 0-8.582031-3.84375-8.582031-8.582032v-104.398437c0-4.738281 3.84375-8.582031 8.582031-8.582031h248.621094c4.742187 0 8.582031 3.84375 8.582031 8.582031zm0 0" fill="#fc992d"/><path d="m295.25 229.214844c-58.886719 0-106.625-47.734375-106.625-106.625h-119.261719c-4.742187 0-8.582031 3.84375-8.582031 8.582031v104.398437c0 4.742188 3.839844 8.582032 8.582031 8.582032h248.621094c4.742187 0 8.582031-3.84375 8.582031-8.582032v-6.355468zm0 0" fill="#ef861d"/><path d="m166.695312 122.589844h-97.332031c-4.738281 0-8.582031 3.84375-8.582031 8.582031v104.398437c0 4.738282 3.84375 8.582032 8.582031 8.582032h97.332031zm0 0" fill="#ef861d"/><path d="m84.476562 446.070312c0 10.238282-8.304687 18.542969-18.546874 18.542969-10.238282 0-18.542969-8.304687-18.542969-18.542969 0-10.242187 8.304687-18.546874 18.542969-18.546874 10.242187 0 18.546874 8.304687 18.546874 18.546874zm0 0" fill="#8cc0c5"/><path d="m339.960938 446.070312c0 10.238282-8.304688 18.542969-18.542969 18.542969-10.242188 0-18.542969-8.304687-18.542969-18.542969 0-10.242187 8.300781-18.546874 18.542969-18.546874 10.238281 0 18.542969 8.304687 18.542969 18.546874zm0 0" fill="#8cc0c5"/><g fill="#b8d8d8"><path d="m73.65625 402.800781c0 4.265625-3.457031 7.726563-7.726562 7.726563-4.265626 0-7.722657-3.460938-7.722657-7.726563s3.457031-7.726562 7.722657-7.726562c4.269531 0 7.726562 3.460937 7.726562 7.726562zm0 0"/><path d="m101.984375 410.007812c-3.015625-3.015624-7.90625-3.015624-10.925781 0-3.015625 3.019532-3.015625 7.910157 0 10.929688 3.019531 3.015625 7.910156 3.015625 10.925781 0 3.019531-3.019531 3.019531-7.910156 0-10.929688zm0 0"/><path d="m116.925781 446.070312c0 4.265626-3.460937 7.722657-7.726562 7.722657s-7.726563-3.457031-7.726563-7.722657c0-4.269531 3.460938-7.726562 7.726563-7.726562s7.726562 3.457031 7.726562 7.726562zm0 0"/><path d="m101.984375 471.199219c-3.015625-3.019531-7.910156-3.019531-10.925781 0-3.019532 3.015625-3.019532 7.90625 0 10.925781 3.015625 3.015625 7.910156 3.015625 10.925781 0 3.019531-3.019531 3.019531-7.910156 0-10.925781zm0 0"/><path d="m73.65625 489.335938c0 4.265624-3.457031 7.726562-7.726562 7.726562-4.265626 0-7.722657-3.460938-7.722657-7.726562 0-4.265626 3.457031-7.726563 7.722657-7.726563 4.269531 0 7.726562 3.460937 7.726562 7.726563zm0 0"/><path d="m40.796875 471.195312c-3.019531-3.015624-7.910156-3.015624-10.925781 0-3.019532 3.019532-3.019532 7.910157 0 10.929688 3.015625 3.015625 7.90625 3.015625 10.925781 0 3.015625-3.019531 3.015625-7.910156 0-10.929688zm0 0"/><path d="m30.390625 446.070312c0 4.265626-3.460937 7.722657-7.726563 7.722657-4.265624 0-7.726562-3.457031-7.726562-7.722657 0-4.269531 3.460938-7.726562 7.726562-7.726562 4.265626 0 7.726563 3.457031 7.726563 7.726562zm0 0"/><path d="m40.796875 410.007812c-3.015625-3.015624-7.910156-3.015624-10.925781 0-3.019532 3.019532-3.019532 7.910157 0 10.925782 3.015625 3.019531 7.910156 3.019531 10.925781 0 3.019531-3.015625 3.019531-7.90625 0-10.925782zm0 0"/><path d="m329.144531 402.800781c0 4.265625-3.460937 7.726563-7.726562 7.726563-4.269531 0-7.726563-3.460938-7.726563-7.726563s3.457032-7.726562 7.726563-7.726562c4.265625 0 7.726562 3.460937 7.726562 7.726562zm0 0"/><path d="m357.46875 410.011719c-3.015625-3.019531-7.910156-3.019531-10.925781 0-3.019531 3.015625-3.019531 7.910156 0 10.925781 3.015625 3.015625 7.910156 3.015625 10.925781 0s3.015625-7.910156 0-10.925781zm0 0"/><path d="m372.410156 446.070312c0 4.265626-3.457031 7.722657-7.726562 7.722657-4.265625 0-7.726563-3.457031-7.726563-7.722657 0-4.269531 3.460938-7.726562 7.726563-7.726562 4.269531 0 7.726562 3.457031 7.726562 7.726562zm0 0"/><path d="m357.46875 471.199219c-3.019531-3.015625-7.910156-3.015625-10.925781 0-3.019531 3.015625-3.019531 7.910156 0 10.925781 3.015625 3.019531 7.90625 3.019531 10.925781 0 3.015625-3.015625 3.015625-7.910156 0-10.925781zm0 0"/><path d="m329.246094 489.234375c0 4.265625-3.460938 7.726563-7.726563 7.726563s-7.726562-3.460938-7.726562-7.726563c0-4.269531 3.460937-7.726563 7.726562-7.726563s7.726563 3.457032 7.726563 7.726563zm0 0"/><path d="m296.382812 471.09375c-3.015624-3.015625-7.910156-3.015625-10.925781 0-3.019531 3.019531-3.019531 7.910156 0 10.929688 3.015625 3.015624 7.910157 3.015624 10.925781 0 3.015626-3.019532 3.015626-7.910157 0-10.929688zm0 0"/><path d="m285.976562 445.964844c0 4.269531-3.457031 7.726562-7.726562 7.726562-4.265625 0-7.722656-3.457031-7.722656-7.726562 0-4.265625 3.457031-7.726563 7.722656-7.726563 4.269531 0 7.726562 3.460938 7.726562 7.726563zm0 0"/><path d="m296.382812 409.90625c-3.015624-3.015625-7.910156-3.015625-10.925781 0-3.019531 3.015625-3.019531 7.910156 0 10.925781 3.015625 3.019531 7.910157 3.019531 10.925781 0 3.015626-3.015625 3.015626-7.910156 0-10.925781zm0 0"/></g><path d="m308.023438 8.582031v105.429688c0 4.738281-3.84375 8.578125-8.582032 8.578125h-211.535156c-4.738281 0-8.582031-3.839844-8.582031-8.578125v-105.429688c0-4.738281 3.84375-8.582031 8.582031-8.582031h211.535156c4.738282 0 8.582032 3.84375 8.582032 8.582031zm0 0" fill="#fc992d"/><path d="m204.199219 104.269531c-57.589844 0-104.273438-46.683593-104.273438-104.269531h-12.019531c-4.742188 0-8.582031 3.84375-8.582031 8.582031v105.429688c0 4.738281 3.84375 8.578125 8.582031 8.578125h211.535156c4.742188 0 8.582032-3.839844 8.582032-8.578125v-9.742188zm0 0" fill="#ef861d"/><path d="m299.441406 0h-73.832031v122.589844h73.832031c4.738282 0 8.582032-3.839844 8.582032-8.578125v-105.429688c0-4.738281-3.84375-8.582031-8.582032-8.582031zm0 0" fill="#ef861d"/><path d="m202.945312 446.070312c0 5.117188-4.152343 9.269532-9.269531 9.269532-5.121093 0-9.273437-4.152344-9.273437-9.269532 0-5.121093 4.152344-9.273437 9.273437-9.273437 5.117188 0 9.269531 4.152344 9.269531 9.273437zm0 0" fill="#acb5b5"/><path d="m170.496094 446.582031c0 5.121094-4.152344 9.273438-9.273438 9.273438s-9.269531-4.152344-9.269531-9.273438c0-5.117187 4.148437-9.269531 9.269531-9.269531s9.273438 4.152344 9.273438 9.269531zm0 0" fill="#acb5b5"/><path d="m235.394531 446.582031c0 5.121094-4.148437 9.273438-9.269531 9.273438s-9.273438-4.152344-9.273438-9.273438c0-5.117187 4.152344-9.269531 9.273438-9.269531s9.269531 4.152344 9.269531 9.269531zm0 0" fill="#acb5b5"/><path d="m214.277344 318.5625v30.433594c0 1.832031-1.492188 3.324218-3.328125 3.324218h-131.386719c-1.835938 0-3.328125-1.492187-3.328125-3.324218v-30.433594c0-1.832031 1.492187-3.328125 3.328125-3.328125h131.386719c1.835937 0 3.328125 1.496094 3.328125 3.328125zm0 0" fill="#ffe8c2"/><path d="m114.351562 337.382812c-12.183593 0-22.148437-9.964843-22.148437-22.148437h-12.640625c-1.832031 0-3.328125 1.496094-3.328125 3.328125v30.433594c0 1.828125 1.496094 3.324218 3.328125 3.324218h131.386719c1.832031 0 3.328125-1.496093 3.328125-3.324218v-11.613282zm0 0" fill="#f2d9b6"/><path d="m112.289062 292.054688h-20.601562c-4.269531 0-7.726562-3.457032-7.726562-7.726563 0-4.265625 3.457031-7.722656 7.726562-7.722656h20.601562c4.269532 0 7.726563 3.457031 7.726563 7.722656 0 4.269531-3.457031 7.726563-7.726563 7.726563zm0 0" fill="#de332a"/><path d="m199.855469 292.054688h-58.71875c-4.269531 0-7.726563-3.457032-7.726563-7.726563 0-4.265625 3.457032-7.722656 7.726563-7.722656h58.71875c4.269531 0 7.726562 3.457031 7.726562 7.722656 0 4.269531-3.457031 7.726563-7.726562 7.726563zm0 0" fill="#de332a"/><path d="m316.265625 244.152344v55.300781c0 2.925781-3.140625 4.78125-5.707031 3.367187l-14.898438-8.1875-14.894531 8.1875c-2.566406 1.414063-5.707031-.441406-5.707031-3.367187v-55.300781zm0 0" fill="#fec12c"/><path d="m292.570312 156.308594v54.125c0 2.691406-2.183593 4.875-4.871093 4.875h-85.03125c-2.6875 0-4.875-2.183594-4.875-4.875v-54.125c0-2.6875 2.1875-4.871094 4.875-4.871094h85.03125c2.6875 0 4.871093 2.183594 4.871093 4.871094zm0 0" fill="#ffe8c2"/><path d="m257.808594 199.855469c-24.609375 0-44.5625-19.953125-44.5625-44.5625v-3.855469h-10.578125c-2.691407 0-4.875 2.179688-4.875 4.871094v54.125c0 2.691406 2.183593 4.875 4.875 4.875h85.03125c2.691406 0 4.871093-2.183594 4.871093-4.875v-10.578125zm0 0" fill="#f2d9b6"/><path d="m129.804688 122.589844v59.691406c0 1.996094-2.019532 3.347656-3.863282 2.59375l-13.652344-5.625-13.355468 5.5c-1.980469.816406-4.15625-.640625-4.15625-2.785156v-59.375zm0 0" fill="#fec12c"/><path d="m129.804688 39.660156h-17.515626c-4.265624 0-7.726562-3.457031-7.726562-7.722656 0-4.269531 3.460938-7.726562 7.726562-7.726562h17.515626c4.265624 0 7.722656 3.457031 7.722656 7.726562 0 4.265625-3.457032 7.722656-7.722656 7.722656zm0 0" fill="#de332a"/><path d="m197.792969 39.660156h-45.324219c-4.269531 0-7.726562-3.457031-7.726562-7.722656 0-4.269531 3.457031-7.726562 7.726562-7.726562h45.324219c4.269531 0 7.726562 3.457031 7.726562 7.726562 0 4.265625-3.457031 7.722656-7.726562 7.722656zm0 0" fill="#de332a"/><path d="m197.792969 67.476562h-17.511719c-4.269531 0-7.726562-3.460937-7.726562-7.726562s3.457031-7.726562 7.726562-7.726562h17.511719c4.269531 0 7.726562 3.460937 7.726562 7.726562s-3.457031 7.726562-7.726562 7.726562zm0 0" fill="#de332a"/><path d="m157.617188 67.476562h-45.328126c-4.265624 0-7.726562-3.460937-7.726562-7.726562s3.460938-7.726562 7.726562-7.726562h45.328126c4.269531 0 7.726562 3.460937 7.726562 7.726562s-3.457031 7.726562-7.726562 7.726562zm0 0" fill="#de332a"/><path d="m197.792969 96.320312h-87.5625c-4.269531 0-7.726563-3.457031-7.726563-7.726562 0-4.265625 3.457032-7.722656 7.726563-7.722656h87.5625c4.269531 0 7.726562 3.457031 7.726562 7.722656 0 4.269531-3.457031 7.726562-7.726562 7.726562zm0 0" fill="#de332a"/><path d="m280.210938 0v42.320312c0 1.914063-1.960938 3.203126-3.710938 2.453126l-10.714844-4.597657-10.710937 4.597657c-1.753907.75-3.710938-.539063-3.710938-2.453126v-42.320312zm0 0" fill="#fec12c"/></svg>