<svg height="512pt" viewBox="-86 0 512 512" width="512pt" xmlns="http://www.w3.org/2000/svg"><path d="m339.746094 501.808594c1.1875 5.226562-2.78125 10.191406-8.140625 10.191406h-323.253907c-5.359374 0-9.324218-4.964844-8.140624-10.191406l43.152343-190.414063c.867188-3.8125 4.246094-6.511719 8.152344-6.511719h236.9375c3.894531 0 7.273437 2.699219 8.140625 6.511719zm0 0" fill="#8effa4"/><path d="m329.269531 455.582031h-242.425781c-5.359375 0-9.324219-4.96875-8.140625-10.191406l31.84375-140.507813h-59.03125c-3.90625 0-7.285156 2.699219-8.152344 6.511719l-43.152343 190.414063c-1.183594 5.226562 2.78125 10.191406 8.140624 10.191406h323.253907c5.359375 0 9.328125-4.964844 8.140625-10.191406zm0 0" fill="#5ded75"/><path d="m274.542969 330.644531 35.269531 155.59375h-279.65625l35.261719-155.59375zm0 0" fill="#ebebf0"/><path d="m169.644531 0c87.070313 0 157.65625 70.585938 157.65625 157.65625 0 79.375-131.023437 187.871094-154.179687 206.425781-2.035156 1.628907-4.917969 1.628907-6.953125 0-23.15625-18.554687-154.179688-127.050781-154.179688-206.425781 0-87.070312 70.585938-157.65625 157.65625-157.65625zm0 0" fill="#fe6150"/><path d="m303.742188 150.441406c0 74.0625-60.039063 134.097656-134.097657 134.097656-74.0625 0-134.097656-60.035156-134.097656-134.097656 0-74.058594 60.035156-134.097656 134.097656-134.097656 74.058594 0 134.097657 60.039062 134.097657 134.097656zm0 0" fill="#ef3325"/><path d="m102.152344 157.65625c0-71.402344 47.472656-131.710938 112.574218-151.105469-14.285156-4.253906-29.414062-6.550781-45.082031-6.550781-87.070312 0-157.65625 70.585938-157.65625 157.65625 0 79.375 131.023438 187.871094 154.179688 206.425781 2.035156 1.628907 4.917969 1.628907 6.953125 0 6.722656-5.386719 22.542968-18.367187 41.605468-36-46.59375-43.109375-112.574218-114.09375-112.574218-170.425781zm0 0" fill="#ef3325"/><path d="m288.144531 150.441406c0 65.445313-53.054687 118.5-118.5 118.5-65.445312 0-118.5-53.054687-118.5-118.5 0-65.445312 53.054688-118.5 118.5-118.5 65.445313 0 118.5 53.054688 118.5 118.5zm0 0" fill="#fff"/><path d="m242.804688 107.710938v89.585937c0 5.996094-4.851563 10.851563-10.851563 10.851563h-124.617187c-6 0-10.851563-4.855469-10.851563-10.851563v-89.585937c0-5.996094 4.851563-10.851563 10.851563-10.851563h124.617187c6 0 10.851563 4.855469 10.851563 10.851563zm0 0" fill="#fc992d"/><path d="m215.3125 178.800781c-45.253906 0-81.9375-36.6875-81.9375-81.941406h-26.039062c-5.996094 0-10.851563 4.859375-10.851563 10.851563v89.585937c0 5.992187 4.855469 10.851563 10.851563 10.851563h124.617187c5.992187 0 10.851563-4.859376 10.851563-10.851563v-18.496094zm0 0" fill="#ef861d"/><path d="m193.34375 96.859375v33.179687c0 3.371094-3.390625 5.679688-6.523438 4.453126l-17.175781-6.71875-17.175781 6.71875c-3.132812 1.226562-6.523438-1.082032-6.523438-4.453126v-33.179687zm0 0" fill="#fec12c"/><path d="m211.890625 160.851562v19.371094c0 2.328125-1.894531 4.222656-4.222656 4.222656h-76.046875c-2.328125 0-4.222656-1.894531-4.222656-4.222656v-19.371094c0-2.332031 1.894531-4.226562 4.222656-4.226562h76.046875c2.328125 0 4.222656 1.894531 4.222656 4.226562zm0 0" fill="#ffe8c2"/><path d="m161.058594 178.265625c-11.949219 0-21.636719-9.6875-21.636719-21.640625h-7.800781c-2.332032 0-4.222656 1.890625-4.222656 4.226562v19.371094c0 2.332032 1.890624 4.222656 4.222656 4.222656h76.046875c2.332031 0 4.222656-1.890624 4.222656-4.222656v-1.957031zm0 0" fill="#f2d9b6"/><path d="m274.542969 330.644531 4.429687 19.546875-129.132812 120.488282 15.558594 15.558593h-41.339844l-76.550782-76.550781 7.636719-33.703125 74.054688 74.054687 127.949219-119.394531zm0 0" fill="#fec12c"/><path d="m130.519531 379.648438-5.085937-4.601563 4.601562-5.089844c2.863282-3.164062 2.621094-8.050781-.542968-10.917969-3.167969-2.863281-8.054688-2.617187-10.917969.546876l-4.601563 5.089843-5.089844-4.605469c-3.164062-2.863281-8.054687-2.617187-10.917968.546876-2.863282 3.164062-2.617188 8.050781.546875 10.914062l5.089843 4.605469-4.605468 5.089843c-2.863282 3.164063-2.617188 8.050782.546875 10.914063 1.480469 1.339844 3.332031 1.996094 5.183593 1.996094 2.105469 0 4.207032-.855469 5.730469-2.542969l4.605469-5.085938 5.089844 4.601563c1.476562 1.339844 3.332031 2 5.179687 2 2.109375 0 4.207031-.859375 5.734375-2.542969 2.863282-3.164062 2.621094-8.054687-.546875-10.917968zm0 0" fill="#fe6150"/><path d="m252.078125 470.390625c-4.269531 0-7.726563-3.460937-7.726563-7.726563v-27.308593c0-4.265625 3.457032-7.726563 7.726563-7.726563s7.730469 3.460938 7.730469 7.726563v27.308593c0 4.265626-3.460938 7.726563-7.730469 7.726563zm0 0" fill="#8cc0c5"/><path d="m267.535156 432.78125c0 8.535156-6.921875 15.457031-15.457031 15.457031s-15.457031-6.921875-15.457031-15.457031 6.921875-15.457031 15.457031-15.457031 15.457031 6.921875 15.457031 15.457031zm0 0" fill="#fe6150"/></svg>