<svg height="511pt" viewBox="-53 0 511 511.99995" width="511pt" xmlns="http://www.w3.org/2000/svg"><path d="m362.695312 240.503906h-59.042968v238.5l97.171875 31.730469c1.914062.625 3.878906-.800781 3.878906-2.8125v-251.558594c0-1.28125-.824219-2.414062-2.042969-2.8125zm0 0" fill="#ffe8c2"/><path d="m202.601562 332.582031v179.417969l-101.050781-32.996094v-147.894531h101.050781zm0 0" fill="#ffe8c2"/><path d="m303.652344 333.613281v145.390625l-101.050782 32.996094v-180.890625h101.050782zm0 0" fill="#fec359"/><path d="m40.1875 241.257812-37.648438 12.292969c-1.214843.398438-2.039062 1.53125-2.039062 2.8125v251.558594c0 2.011719 1.964844 3.4375 3.875 2.8125l97.175781-31.730469v-237.746094zm0 0" fill="#fec359"/><path d="m243.226562 197.949219 25.042969 189.871093h-206.839843c-3.351563 0-6.074219-2.710937-6.074219-6.074218v-133.261719zm0 0" fill="#fc992d"/><g fill="#ef861d"><path d="m79.046875 242.109375-23.691406 6.375v133.261719c0 3.363281 2.722656 6.074218 6.074219 6.074218h206.839843l-2.683593-20.335937h-61.164063c-69.242187 0-125.375-56.128906-125.375-125.375zm0 0"/><path d="m347.785156 268.445312v113.300782c0 3.363281-2.722656 6.074218-6.074218 6.074218h-98.492188l.007812-189.871093 104.558594 52.351562zm0 0"/><path d="m243.226562 197.949219-.007812.03125-23.203125 68.050781c-.492187 1.445312-1.851563 2.414062-3.378906 2.414062h-180.730469c-2.445312 0-4.167969-2.402343-3.378906-4.71875l7.660156-22.46875 13.449219-39.441406c.785156-2.3125 2.957031-3.867187 5.402343-3.867187zm0 0"/></g><path d="m362.695312 240.503906 7.917969 23.222656c.789063 2.316407-.933593 4.71875-3.378906 4.71875h-97.417969c-1.527344 0-2.886718-.96875-3.378906-2.414062l-23.210938-68.082031h100.875c2.441407 0 4.613282 1.554687 5.402344 3.867187zm0 0" fill="#fc992d"/><path d="m315.335938 347.988281v39.832031h-40.0625v-39.902343c0-3.199219 3.527343-5.125 6.21875-3.425781l14.003906 8.878906 13.601562-8.785156c2.6875-1.734376 6.238282.195312 6.238282 3.402343zm0 0" fill="#fec12c"/><path d="m211.984375 316.519531v35.253907c0 3.980468-3.226563 7.207031-7.207031 7.207031h-110.558594c-3.992188 0-7.21875-3.226563-7.21875-7.207031v-35.253907c0-3.980469 3.226562-7.207031 7.21875-7.207031h110.558594c3.980468 0 7.207031 3.226562 7.207031 7.207031zm0 0" fill="#ffe8c2"/><path d="m136.101562 343.859375c-19.082031 0-34.550781-15.464844-34.550781-34.546875h-7.332031c-3.992188 0-7.21875 3.226562-7.21875 7.207031v35.253907c0 3.980468 3.226562 7.207031 7.207031 7.207031h110.570313c3.980468 0 7.207031-3.226563 7.207031-7.207031v-7.914063zm0 0" fill="#f2d9b6"/><path d="m118.246094 341.878906h-12.015625c-4.273438 0-7.734375-3.460937-7.734375-7.734375 0-4.269531 3.460937-7.730469 7.734375-7.730469h12.015625c4.273437 0 7.734375 3.460938 7.734375 7.730469 0 4.273438-3.460938 7.734375-7.734375 7.734375zm0 0" fill="#f2d1a0"/><path d="m193.558594 341.878906h-53.816406c-4.273438 0-7.734376-3.460937-7.734376-7.734375 0-4.269531 3.460938-7.730469 7.734376-7.730469h53.816406c4.269531 0 7.730468 3.460938 7.730468 7.730469 0 4.273438-3.460937 7.734375-7.730468 7.734375zm0 0" fill="#f2d1a0"/><path d="m280.449219 79.90625c0 38.355469-27.023438 70.394531-63.074219 78.128906l-13.558594 17.960938c-1.648437 2.175781-4.90625 2.175781-6.558594 0l-13.558593-17.960938c-36.316407-7.785156-63.464844-40.234375-63.074219-78.964844.453125-43.886718 36.730469-79.449218 80.613281-79.06640575 43.8125.37109375 79.210938 36.00781275 79.210938 79.90234375zm0 0" fill="#8effa4"/><path d="m232.738281 149.851562c-36.316406-7.785156-63.464843-40.234374-63.074219-78.964843.3125-30.347657 17.761719-56.703125 43.007813-69.957031-3.734375-.570313-7.546875-.8945318-11.433594-.92578175-43.882812-.38281225-80.15625 35.17968775-80.613281 79.06640575-.390625 38.730469 26.757812 71.179688 63.074219 78.964844l13.5625 17.960938c1.648437 2.175781 4.90625 2.175781 6.554687 0l13.5625-17.960938c5.996094-1.289062 11.734375-3.261718 17.152344-5.8125zm0 0" fill="#5ded75"/><path d="m188.164062 112.4375c-1.347656 0-2.699218-.351562-3.921874-1.070312l-17.527344-10.308594c-3.679688-2.167969-4.910156-6.90625-2.746094-10.585938 2.167969-3.683594 6.910156-4.910156 10.589844-2.746094l12.3125 7.246094 45.261718-46.207031c2.988282-3.050781 7.886719-3.101563 10.9375-.113281 3.050782 2.992187 3.101563 7.886718.113282 10.9375l-49.496094 50.527344c-1.492188 1.523437-3.5 2.320312-5.523438 2.320312zm0 0" fill="#42e25c"/></svg>