<svg height="512pt" viewBox="-19 0 512 512.00137" width="512pt" xmlns="http://www.w3.org/2000/svg"><path d="m436.707031 252.859375v237.511719h-399.628906v-237.511719c0-9.328125 7.5625-16.890625 16.894531-16.890625h365.84375c9.332032 0 16.890625 7.5625 16.890625 16.890625zm0 0" fill="#7ba9ad"/><path d="m410.957031 263.898438v185.15625c0 1.203124-.972656 2.179687-2.179687 2.179687h-343.769532c-1.203124 0-2.179687-.976563-2.179687-2.179687v-185.15625c0-1.203126.976563-2.179688 2.179687-2.179688h343.769532c1.207031 0 2.179687.976562 2.179687 2.179688zm0 0" fill="#64d3ff"/><path d="m220.15625 432.695312c-68.839844 0-124.644531-55.804687-124.644531-124.644531v-46.332031h-30.503907c-1.203124 0-2.179687.976562-2.179687 2.179688v185.15625c0 1.203124.976563 2.179687 2.179687 2.179687h343.769532c1.207031 0 2.179687-.976563 2.179687-2.179687v-16.359376zm0 0" fill="#34bfea"/><path d="m177.15625 319.398438v26.058593c0 .964844-.785156 1.75-1.75 1.75h-54.179688c-.964843 0-1.75-.785156-1.75-1.75v-26.574219h57.679688zm0 0" fill="#0094ce"/><path d="m468.453125 476.980469c2.945313 0 5.332031 2.390625 5.332031 5.335937 0 8.199219-3.316406 15.617188-8.691406 20.992188s-12.792969 8.691406-20.992188 8.691406h-419.742187c-13.453125 0-24.359375-10.90625-24.359375-24.355469v-5.328125c0-2.945312 2.390625-5.335937 5.335938-5.335937zm0 0" fill="#2f6999"/><path d="m256.433594 129.945312-50.449219-4.699218h-120.402344c-3.503906 0-5.863281 3.582031-4.488281 6.800781l19.964844 45.800781h175.859375zm0 0" fill="#ef861d"/><path d="m390.265625 125.246094c3.503906 0 5.863281 3.582031 4.488281 6.800781l-19.96875 45.800781h-97.867187l21.238281-49.640625c.769531-1.792969 2.535156-2.960937 4.488281-2.960937zm0 0" fill="#fc992d"/><path d="m287.207031 178.292969v140.589843h-180.460937c-3.140625 0-5.683594-2.542968-5.683594-5.6875v-135.347656h186.144531zm0 0" fill="#fc992d"/><path d="m247.238281 301.335938c-68.203125 0-123.488281-55.289063-123.488281-123.488282h-22.6875v135.347656c0 3.140626 2.542969 5.6875 5.683594 5.6875h180.460937v-17.546874zm0 0" fill="#ef861d"/><path d="m276.917969 177.847656h97.867187v135.347656c0 3.144532-2.542968 5.6875-5.683594 5.6875h-92.195312v-141.035156zm0 0" fill="#ef861d"/><path d="m303.328125 66.4375c0 29.890625-19.734375 55.164062-46.894531 63.507812-1.8125.554688-3.667969 1.039063-5.542969 1.441407l-11.277344 14.933593c-1.359375 1.804688-4.078125 1.804688-5.4375 0l-11.28125-14.933593c-5.972656-1.277344-11.648437-3.367188-16.910156-6.140625-21.320313-11.226563-35.792969-33.6875-35.523437-59.5.378906-36.480469 30.527343-66.050782 67.007812-65.74218775 36.433594.32031275 65.859375 29.94140575 65.859375 66.43359375zm0 0" fill="#8effa4"/><path d="m250.277344 121.554688c-21.320313-11.226563-35.792969-33.691407-35.523438-59.5.277344-26.585938 16.367188-49.484376 39.191406-59.84375-5.261718-1.394532-10.78125-2.1562505-16.472656-2.20703175-36.484375-.30859425-66.628906 29.26171875-67.011718 65.74218775-.265626 25.808594 14.203124 48.273437 35.523437 59.5 5.265625 2.769531 10.9375 4.863281 16.914063 6.140625l11.277343 14.933593c1.359375 1.800782 4.078125 1.800782 5.4375 0l11.277344-14.933593c1.875-.402344 3.730469-.886719 5.542969-1.441407 2.683594-.824218 5.289062-1.820312 7.8125-2.964843-4.898438-1.285157-9.578125-3.113281-13.96875-5.425781zm0 0" fill="#5ded75"/><path d="m344.414062 260.996094v57.886718h-37.492187v-57.957031c0-2.988281 3.296875-4.800781 5.808594-3.203125l13.113281 8.3125 12.730469-8.21875c2.511719-1.628906 5.839843.175782 5.839843 3.179688zm0 0" fill="#fec12c"/><path d="m236.894531 212.753906v36.132813c0 1.964843-1.597656 3.5625-3.566406 3.5625h-89.6875c-1.96875 0-3.5625-1.597657-3.5625-3.5625v-36.132813c0-1.96875 1.59375-3.5625 3.5625-3.5625h89.6875c1.96875 0 3.566406 1.59375 3.566406 3.5625zm0 0" fill="#ffe8c2"/><path d="m186.449219 239.058594c-16.496094 0-29.867188-13.371094-29.867188-29.867188h-12.941406c-1.96875 0-3.5625 1.59375-3.5625 3.5625v36.132813c0 1.96875 1.59375 3.5625 3.5625 3.5625h89.691406c1.96875 0 3.5625-1.59375 3.5625-3.5625v-9.828125zm0 0" fill="#f2d9b6"/><path d="m165.824219 291.074219h-25.746094c-4.269531 0-7.726563-3.460938-7.726563-7.726563s3.457032-7.722656 7.726563-7.722656h25.746094c4.269531 0 7.726562 3.457031 7.726562 7.722656s-3.457031 7.726563-7.726562 7.726563zm0 0" fill="#de332a"/><path d="m236.894531 291.074219h-48.410156c-4.265625 0-7.722656-3.460938-7.722656-7.726563s3.457031-7.722656 7.722656-7.722656h48.410156c4.265625 0 7.722657 3.457031 7.722657 7.722656s-3.457032 7.726563-7.722657 7.726563zm0 0" fill="#de332a"/><path d="m288.746094 66.023438c0 28.640624-23.214844 51.855468-51.851563 51.855468-28.640625 0-51.855469-23.214844-51.855469-51.855468 0-28.636719 23.214844-51.851563 51.855469-51.851563 28.636719 0 51.851563 23.214844 51.851563 51.851563zm0 0" fill="#5ded75"/><path d="m273.972656 66.023438c0 20.480468-16.601562 37.078124-37.078125 37.078124-20.480469 0-37.078125-16.597656-37.078125-37.078124 0-20.476563 16.597656-37.078126 37.078125-37.078126 20.476563 0 37.078125 16.601563 37.078125 37.078126zm0 0" fill="#fff"/><path d="m177.15625 374.574219v43.113281c0 1.460938-1.183594 2.648438-2.648438 2.648438h-52.382812c-1.464844 0-2.648438-1.1875-2.648438-2.648438v-43.113281c0-1.464844 1.183594-2.648438 2.648438-2.648438h52.382812c1.464844 0 2.648438 1.183594 2.648438 2.648438zm0 0" fill="#0094ce"/><g fill="#44c3ea"><path d="m217.324219 381.710938h-12.359375c-4.265625 0-7.726563-3.460938-7.726563-7.726563s3.460938-7.722656 7.726563-7.722656h12.359375c4.265625 0 7.726562 3.457031 7.726562 7.722656s-3.460937 7.726563-7.726562 7.726563zm0 0"/><path d="m374.910156 381.710938h-131.835937c-4.269531 0-7.726563-3.460938-7.726563-7.726563s3.457032-7.722656 7.726563-7.722656h131.835937c4.265625 0 7.722656 3.457031 7.722656 7.722656s-3.457031 7.726563-7.722656 7.726563zm0 0"/><path d="m217.324219 422.910156h-12.359375c-4.265625 0-7.726563-3.460937-7.726563-7.726562s3.460938-7.722656 7.726563-7.722656h12.359375c4.265625 0 7.726562 3.457031 7.726562 7.722656s-3.460937 7.726562-7.726562 7.726562zm0 0"/><path d="m374.910156 422.910156h-131.835937c-4.269531 0-7.726563-3.460937-7.726563-7.726562s3.457032-7.722656 7.726563-7.722656h131.835937c4.265625 0 7.722656 3.457031 7.722656 7.722656s-3.457031 7.726562-7.722656 7.726562zm0 0"/></g></svg>