<svg height="512pt" viewBox="-62 0 512 512.00026" width="512pt" xmlns="http://www.w3.org/2000/svg"><path d="m260.554688 450.207031v-53.550781h-133.882813v53.550781l-12.6875 30.382813v17.945312h159.261719v-17.945312zm0 0" fill="#7ba9ad"/><path d="m177.136719 450.207031v-53.550781h-50.464844v53.550781l-12.6875 30.382813v17.945312h50.464844v-17.945312zm0 0" fill="#6f9d9e"/><path d="m387.230469 376.339844v-190.828125c0-8.515625-6.910157-15.425781-15.429688-15.425781h-356.375c-8.515625 0-15.425781 6.910156-15.425781 15.425781v190.828125zm0 0" fill="#7ba9ad"/><path d="m361.484375 195.832031v178.167969h-335.738281v-178.167969zm0 0" fill="#64d3ff"/><path d="m49.171875 236.160156v-40.328125h-23.425781v178.167969h335.738281v-40.226562h-214.699219c-53.910156 0-97.613281-43.703126-97.613281-97.613282zm0 0" fill="#34bfea"/><path d="m0 351.339844v40.1875c0 8.515625 6.910156 15.425781 15.425781 15.425781h356.375c8.519531 0 15.429688-6.910156 15.429688-15.425781v-40.1875zm0 0" fill="#2f6999"/><path d="m284.859375 485.636719c2.804687 2.789062 4.53125 6.652343 4.53125 10.914062 0 8.527344-6.917969 15.449219-15.445313 15.449219h-162.71875c-4.265624 0-8.125-1.730469-10.917968-4.53125-2.800782-2.789062-4.53125-6.652344-4.53125-10.917969 0-8.527343 6.921875-15.445312 15.449218-15.445312h162.71875c4.261719 0 8.125 1.730469 10.914063 4.53125zm0 0" fill="#2f6999"/><path d="m157.28125 496.550781c0-8.527343 6.917969-15.445312 15.445312-15.445312h-61.5c-8.527343 0-15.449218 6.917969-15.449218 15.445312 0 4.265625 1.730468 8.128907 4.53125 10.917969 2.792968 2.800781 6.652344 4.53125 10.917968 4.53125h61.5c-4.261718 0-8.125-1.730469-10.914062-4.53125-2.800781-2.789062-4.53125-6.652344-4.53125-10.917969zm0 0" fill="#195984"/><path d="m203.398438 379.148438c0 5.402343-4.378907 9.78125-9.785157 9.78125-5.402343 0-9.78125-4.378907-9.78125-9.78125 0-5.40625 4.378907-9.785157 9.78125-9.785157 5.40625 0 9.785157 4.378907 9.785157 9.785157zm0 0" fill="#245a7f"/><path d="m211.289062 116.871094-45.386718-4.230469h-110.296875c-2.191407 0-3.667969 2.238281-2.804688 4.253906l18.753907 43.054688h158.167968zm0 0" fill="#ef861d"/><path d="m336.453125 116.910156-18.71875 43.039063h-88.011719l19.433594-45.457031c.480469-1.125 1.585938-1.851563 2.808594-1.851563h81.6875c2.199218 0 3.679687 2.253906 2.800781 4.269531zm0 0" fill="#fc992d"/><path d="m250.296875 160.34375v126.445312h-173.632813c-2.824218 0-5.109374-2.285156-5.109374-5.109374v-121.730469h178.742187zm0 0" fill="#fc992d"/><path d="m200.96875 266.460938c-58.824219 0-106.507812-47.6875-106.507812-106.511719h-22.90625v121.730469c0 2.820312 2.289062 5.109374 5.109374 5.109374h173.632813v-20.328124zm0 0" fill="#ef861d"/><path d="m229.722656 159.949219h88.011719v121.730469c0 2.824218-2.285156 5.109374-5.109375 5.109374h-82.921875v-126.839843zm0 0" fill="#ef861d"/><path d="m253.472656 59.746094c0 26.886718-17.757812 49.617187-42.183594 57.125-1.628906.496094-3.285156.925781-4.976562 1.289062l-10.144531 13.429688c-1.222657 1.625-3.675781 1.625-4.902344 0l-10.144531-13.429688c-5.375-1.15625-10.484375-3.027344-15.21875-5.519531-19.15625-10.09375-32.164063-30.300781-31.925782-53.523437.328126-32.8125 27.457032-59.402344 60.265626-59.11328175 32.761718.27734375 59.230468 26.91796875 59.230468 59.74218775zm0 0" fill="#fe6150"/><path d="m219.101562 111.128906c-5.378906-1.152344-10.484374-3.027344-15.222656-5.519531-19.15625-10.09375-32.164062-30.300781-31.925781-53.523437.222656-22.042969 12.546875-41.265626 30.558594-51.429688-2.703125-.398438-5.460938-.6289062-8.269531-.65234375-32.808594-.28906225-59.9375 26.30078175-60.265626 59.11328175-.238281 23.222656 12.769532 43.429687 31.925782 53.523437 4.734375 2.492187 9.84375 4.363281 15.21875 5.519531l10.144531 13.429688c1.226563 1.625 3.679687 1.625 4.902344 0l10.144531-13.429688c1.691406-.363281 3.347656-.792968 4.976562-1.289062 3.230469-.992188 6.339844-2.257813 9.308594-3.757813zm0 0" fill="#ef3325"/><path d="m290.421875 234.730469v52.058593h-33.726563v-52.121093c0-2.6875 2.964844-4.316407 5.230469-2.882813l11.792969 7.476563 11.441406-7.394531c2.277344-1.464844 5.261719.164062 5.261719 2.863281zm0 0" fill="#fec12c"/><path d="m193.71875 191.703125v31.78125c0 1.964844-1.597656 3.5625-3.5625 3.5625h-79.949219c-1.96875 0-3.5625-1.597656-3.5625-3.5625v-31.78125c0-1.96875 1.59375-3.566406 3.5625-3.566406h79.949219c1.964844 0 3.5625 1.597656 3.5625 3.566406zm0 0" fill="#ffe8c2"/><path d="m149.367188 220.675781c-17.96875 0-32.535157-14.566406-32.535157-32.535156h-6.625c-1.96875 0-3.5625 1.59375-3.5625 3.5625v31.78125c0 1.96875 1.59375 3.5625 3.5625 3.5625h79.949219c1.964844 0 3.5625-1.59375 3.5625-3.5625v-2.808594zm0 0" fill="#f2d9b6"/><path d="m129.800781 262.558594h-23.160156c-4.265625 0-7.722656-3.460938-7.722656-7.726563s3.457031-7.722656 7.722656-7.722656h23.160156c4.265625 0 7.722657 3.457031 7.722657 7.722656s-3.457032 7.726563-7.722657 7.726563zm0 0" fill="#de332a"/><path d="m193.71875 262.558594h-43.539062c-4.265626 0-7.722657-3.460938-7.722657-7.726563s3.457031-7.722656 7.722657-7.722656h43.539062c4.265625 0 7.722656 3.457031 7.722656 7.722656s-3.457031 7.726563-7.722656 7.726563zm0 0" fill="#de332a"/><path d="m193.71875 16.414062c23.722656 0 42.957031 19.226563 42.957031 42.960938 0 23.722656-19.238281 42.957031-42.957031 42.957031-23.722656 0-42.960938-19.234375-42.960938-42.957031 0-23.734375 19.238282-42.960938 42.960938-42.960938zm0 0" fill="#ef3325"/><path d="m193.71875 26.027344c18.414062 0 33.347656 14.921875 33.347656 33.347656 0 18.414062-14.933594 33.347656-33.347656 33.347656s-33.347656-14.933594-33.347656-33.347656c0-18.425781 14.933594-33.347656 33.347656-33.347656zm0 0" fill="#fff"/></svg>