<svg height="512pt" viewBox="0 -98 512 512" width="512pt" xmlns="http://www.w3.org/2000/svg"><path d="m500.648438 87.566406h-331.679688c-6.269531 0-11.351562 5.082032-11.351562 11.347656v206c0 6.269532 5.082031 11.351563 11.351562 11.351563h331.679688c6.269531 0 11.351562-5.082031 11.351562-11.351563v-206c0-6.265624-5.082031-11.347656-11.351562-11.347656zm0 0" fill="#fc992d"/><path d="m418.609375 288.183594c-48.839844 0-88.433594-39.59375-88.433594-88.4375v-112.179688h-161.207031c-6.269531 0-11.351562 5.082032-11.351562 11.347656v206c0 6.269532 5.082031 11.351563 11.351562 11.351563h331.679688c6.269531 0 11.351562-5.082031 11.351562-11.351563v-16.730468zm0 0" fill="#ef861d"/><path d="m480.148438 167.40625h-65.324219v92.714844h65.324219c2.515624 0 4.550781-2.039063 4.550781-4.554688v-83.609375c0-2.515625-2.039063-4.550781-4.550781-4.550781zm0 0" fill="#ffe8c2"/><path d="m296.121094 87.566406h-127.152344c-6.269531 0-11.351562 5.082032-11.351562 11.347656v206c0 6.269532 5.082031 11.351563 11.351562 11.351563h127.152344zm0 0" fill="#ef861d"/><path d="m333.761719 0h-322.410157c-6.269531 0-11.351562 5.082031-11.351562 11.351562v206c0 6.265626 5.082031 11.347657 11.351562 11.347657h322.410157c6.265625 0 11.347656-5.082031 11.347656-11.347657v-206c0-6.269531-5.082031-11.351562-11.347656-11.351562zm0 0" fill="#fc992d"/><path d="m182.21875 204.523438c-78.585938 0-142.289062-63.707032-142.289062-142.289063v-62.234375h-28.578126c-6.269531 0-11.351562 5.082031-11.351562 11.351562v205.996094c0 6.269532 5.082031 11.351563 11.351562 11.351563h322.40625c6.269532 0 11.351563-5.082031 11.351563-11.347657v-12.828124zm0 0" fill="#ef861d"/><path d="m89.898438 59.234375h-50.453126c-3.863281 0-6.996093 3.132813-6.996093 6.992187v77.703126c0 3.859374 3.132812 6.992187 6.996093 6.992187h50.453126zm0 0" fill="#ffe8c2"/><path d="m333.761719 0h-112.273438v228.699219h112.273438c6.265625 0 11.347656-5.082031 11.347656-11.347657v-206c0-6.269531-5.082031-11.351562-11.347656-11.351562zm0 0" fill="#ef861d"/><path d="m455.214844 213.488281-62.355469 44.1875c-1.449219 1.027344-3.449219-.007812-3.449219-1.785156v-27.191406h-279.179687v-33.996094h279.179687v-27.191406c0-1.773438 2-2.808594 3.449219-1.785157l62.355469 44.191407c1.226562.871093 1.226562 2.695312 0 3.570312zm0 0" fill="#64d3ff"/><path d="m389.410156 87.566406v33.996094h-267.847656v27.125c0 1.800781-2.035156 2.851562-3.503906 1.8125l-64.820313-45.9375 64.820313-45.933594c1.46875-1.042968 3.503906.007813 3.503906 1.808594v27.128906zm0 0" fill="#8effa4"/><g fill="#fec12c"><path d="m310.085938 155.566406v39.136719h-51.511719v-39.136719c0-1.914062 2-3.171875 3.71875-2.347656l22.035156 10.578125 22.039063-10.578125c1.71875-.824219 3.71875.433594 3.71875 2.347656zm0 0"/><path d="m253.425781 264.550781v51.714844h-53.570312v-51.714844c0-4.101562 4.378906-6.707031 7.984375-4.769531l18.800781 10.125 18.800781-10.125c3.605469-1.9375 7.984375.667969 7.984375 4.769531zm0 0"/></g></svg>