<svg height="512pt" viewBox="-38 0 512 512.00035" width="512pt" xmlns="http://www.w3.org/2000/svg"><path d="m282.980469 336.871094v175.128906h-245.078125c-4.316406 0-7.808594-3.492188-7.808594-7.808594v-167.320312zm0 0" fill="#fc992d"/><path d="m211.203125 483.734375c-81.113281 0-146.867187-65.753906-146.867187-146.863281h-34.242188v167.320312c0 4.3125 3.496094 7.808594 7.808594 7.808594h245.078125v-28.265625zm0 0" fill="#ef861d"/><path d="m241.949219 251.179688-61.386719-3.421876h-177.277344c-2.257812 0-3.839844 2.226563-3.101562 4.359376l29.910156 84.753906h241.578125zm0 0" fill="#ef861d"/><path d="m344.8125 126.335938c.179688 61.988281-44.15625 113.664062-102.863281 124.84375-1.5625.308593-3.140625.578124-4.726563.8125l-17.347656 27.46875c-.839844 1.328124-2.761719 1.363281-3.648438.070312l-19.046874-27.835938c-5.675782-.949218-11.21875-2.265624-16.617188-3.9375-51.644531-15.996093-89.171875-64.136718-89.171875-121.046874 0-70.605469 57.753906-127.726563 128.601563-126.695313 68.78125 1 124.621093 57.53125 124.820312 126.320313zm0 0" fill="#fe6150"/><path d="m186.164062 124.039062c0-51.917968 31.226563-96.542968 75.921876-116.121093-13.15625-4.90625-27.324219-7.6875-42.097657-7.902344-70.84375-1.03125-128.597656 56.089844-128.597656 126.695313 0 56.910156 37.527344 105.050781 89.171875 121.046874 5.398438 1.671876 10.941406 2.988282 16.617188 3.9375l19.046874 27.835938c.886719 1.292969 2.808594 1.257812 3.648438-.070312l17.347656-27.46875c1.585938-.234376 3.160156-.503907 4.726563-.8125 9.371093-1.785157 18.375-4.605469 26.886719-8.332032-48.253907-17.894531-82.671876-64.324218-82.671876-118.808594zm0 0" fill="#ef3325"/><path d="m271.671875 336.871094h134.4375v167.320312c0 4.316406-3.492187 7.808594-7.808594 7.808594h-126.652343v-175.128906zm0 0" fill="#ef861d"/><path d="m432.917969 247.757812c2.257812 0 3.839843 2.226563 3.101562 4.359376l-29.910156 84.753906h-134.4375l30.140625-86.90625c.457031-1.320313 1.699219-2.207032 3.097656-2.207032zm0 0" fill="#fc992d"/><path d="m364.386719 460.78125v51.21875h-51.507813v-51.3125c0-4.109375 4.523438-6.59375 7.992188-4.398438l18.007812 11.414063 17.484375-11.292969c3.460938-2.246094 8.023438.25 8.023438 4.371094zm0 0" fill="#fec12c"/><path d="m231.492188 418.253906v49.449219c0 3.984375-3.222657 7.210937-7.210938 7.210937h-146.285156c-3.984375 0-7.210938-3.226562-7.210938-7.210937v-49.449219c0-3.988281 3.226563-7.210937 7.210938-7.210937h146.285156c3.988281 0 7.210938 3.222656 7.210938 7.210937zm0 0" fill="#ffe8c2"/><path d="m140.542969 460.195312c-27.148438 0-49.152344-22.003906-49.152344-49.152343h-13.394531c-3.980469 0-7.210938 3.226562-7.210938 7.210937v49.449219c0 3.980469 3.230469 7.210937 7.210938 7.210937h146.285156c3.984375 0 7.210938-3.230468 7.210938-7.210937v-7.507813zm0 0" fill="#f2d9b6"/><path d="m110.960938 450.703125h-15.449219c-4.269531 0-7.726563-3.457031-7.726563-7.726563 0-4.265624 3.457032-7.726562 7.726563-7.726562h15.449219c4.269531 0 7.726562 3.460938 7.726562 7.726562 0 4.269532-3.457031 7.726563-7.726562 7.726563zm0 0" fill="#f2d1a0"/><path d="m207.800781 450.703125h-76.234375c-4.265625 0-7.726562-3.457031-7.726562-7.726563 0-4.265624 3.460937-7.726562 7.726562-7.726562h76.234375c4.265625 0 7.726563 3.460938 7.726563 7.726562 0 4.269532-3.460938 7.726563-7.726563 7.726563zm0 0" fill="#f2d1a0"/><path d="m321.875 126.710938c0 57.3125-46.460938 103.773437-103.773438 103.773437s-103.773437-46.460937-103.773437-103.773437c0-57.308594 46.460937-103.769532 103.773437-103.769532s103.773438 46.460938 103.773438 103.769532zm0 0" fill="#ef3325"/><path d="m304.636719 126.710938c0 47.792968-38.742188 86.535156-86.535157 86.535156-47.792968 0-86.535156-38.742188-86.535156-86.535156 0-47.789063 38.742188-86.535157 86.535156-86.535157 47.792969 0 86.535157 38.746094 86.535157 86.535157zm0 0" fill="#fff"/></svg>