<svg height="512pt" viewBox="-83 0 512 512" width="512pt" xmlns="http://www.w3.org/2000/svg"><path d="m300.8125 126.710938c0 63.480468-46.675781 116.0625-107.589844 125.28125l-19.121094 30.277343-20.925781-30.574219c-60.015625-9.972656-105.789062-62.132812-105.789062-124.984374 0-69.980469 56.734375-126.710938 126.714843-126.710938 69.980469 0 126.710938 56.730469 126.710938 126.710938zm0 0" fill="#8effa4"/><path d="m149.375 107.140625c0-42.90625 21.328125-80.824219 53.953125-103.746094-9.382813-2.214843-19.167969-3.394531-29.226563-3.394531-69.980468 0-126.714843 56.730469-126.714843 126.710938 0 62.851562 45.773437 115.011718 105.789062 124.984374l20.925781 30.574219 19.121094-30.277343c19.746094-2.988282 37.996094-10.539063 53.648438-21.539063-55.890625-13.191406-97.496094-63.394531-97.496094-123.3125zm0 0" fill="#5ded75"/><path d="m277.871094 126.710938c0 57.3125-46.457032 103.773437-103.769532 103.773437s-103.773437-46.460937-103.773437-103.773437c0-57.308594 46.460937-103.769532 103.773437-103.769532s103.769532 46.460938 103.769532 103.769532zm0 0" fill="#5ded75"/><path d="m260.636719 126.710938c0 47.792968-38.742188 86.535156-86.535157 86.535156-47.792968 0-86.535156-38.742188-86.535156-86.535156 0-47.789063 38.742188-86.535157 86.535156-86.535157 47.792969 0 86.535157 38.746094 86.535157 86.535157zm0 0" fill="#fff"/><path d="m346.140625 310.054688v184.464843c0 9.652344-7.828125 17.480469-17.480469 17.480469h-311.179687c-9.652344 0-17.480469-7.828125-17.480469-17.480469v-184.464843c0-9.652344 7.828125-17.484376 17.480469-17.484376h311.179687c9.652344 0 17.480469 7.832032 17.480469 17.484376zm0 0" fill="#ef861d"/><path d="m93.675781 457.914062c-9.652343 0-17.480469-7.828124-17.480469-17.480468v-147.863282h-58.714843c-9.652344 0-17.480469 7.832032-17.480469 17.484376v184.464843c0 9.652344 7.828125 17.480469 17.480469 17.480469h311.179687c9.652344 0 17.480469-7.828125 17.480469-17.480469v-36.605469zm0 0" fill="#d85c00"/><path d="m25.753906 318.324219h294.632813v167.921875h-294.632813zm0 0" fill="#fc992d"/><path d="m64.386719 332.988281v-14.664062h-38.632813v167.921875h294.632813v-21.9375h-124.683594c-72.523437 0-131.316406-58.792969-131.316406-131.320313zm0 0" fill="#ef861d"/><path d="m320.386719 461.972656v24.273438h-32.328125l-110.558594-60.800782-38.230469-21.027343-113.515625-62.417969v-23.675781h33.417969l118.328125 65.078125 38.230469 21.015625zm0 0" fill="#e56e0c"/><g fill="#c14e00"><path d="m320.386719 318.324219v28.546875l-104.65625 57.546875-38.230469-21.015625 118.328125-65.078125zm0 0"/><path d="m177.5 425.445312-110.558594 60.800782h-41.1875v-19.398438l113.515625-62.429687zm0 0"/></g></svg>