<svg height="512pt" viewBox="0 -56 512 512" width="512pt" xmlns="http://www.w3.org/2000/svg"><path d="m176.160156 136.085938h-82.785156c-5.675781 0-10.457031 4.226562-11.15625 9.859374l-13.03125 105.226563-.164062.050781v14.824219h121.558593v-129.960937zm0 0" fill="#fec12c"/><path d="m492.425781 72.804688v267.257812h-288.449219v-267.257812c0-4.886719 3.945313-8.832032 8.828126-8.832032h270.792968c4.882813 0 8.828125 3.945313 8.828125 8.832032zm0 0" fill="#dceeef"/><path d="m383.753906 293.703125c-78.808594 0-142.691406-63.882813-142.691406-142.6875v-87.042969h-28.257812c-4.875 0-8.828126 3.953125-8.828126 8.832032v267.257812h288.449219v-46.359375zm0 0" fill="#ccdbdb"/><path d="m492.425781 252.496094v75.203125h-38.117187v-62.726563c0-6.890625 5.585937-12.476562 12.476562-12.476562zm0 0" fill="#fe6150"/><path d="m454.308594 264.972656v25.125h38.117187v-37.601562h-25.640625c-6.890625 0-12.476562 5.585937-12.476562 12.476562zm0 0" fill="#de332a"/><path d="m190.582031 252.496094v82.414062h-176.160156v-69.535156c0-7.109375 5.769531-12.878906 12.878906-12.878906zm0 0" fill="#f4aa08"/><path d="m86.296875 312.503906h-9.089844c-20.304687 0-36.765625-16.457031-36.765625-36.761718v-23.246094h-13.140625c-7.113281 0-12.878906 5.765625-12.878906 12.878906v69.535156h176.160156v-22.40625zm0 0" fill="#e29805"/><path d="m512 334.695312v10.734376c0 3.863281-3.132812 6.996093-6.996094 6.996093h-501.097656c-2.15625 0-3.90625-1.753906-3.90625-3.90625v-16.914062c0-2.152344 1.75-3.90625 3.90625-3.90625h501.097656c3.863282 0 6.996094 3.132812 6.996094 6.996093zm0 0" fill="#8cc0c5"/><path d="m475.871094 340.0625h-457.542969c-2.152344 0-3.90625-1.75-3.90625-3.902344v-8.460937h-10.515625c-2.15625 0-3.90625 1.753906-3.90625 3.90625v16.914062c0 2.152344 1.75 3.90625 3.90625 3.90625h501.097656c3.863282 0 6.996094-3.132812 6.996094-6.996093v-5.367188zm0 0" fill="#7ba9ad"/><path d="m203.976562 121.191406v206.507813h-27.816406v-206.507813c0-3.152344 2.554688-5.707031 5.707032-5.707031h16.402343c3.152344 0 5.707031 2.554687 5.707031 5.707031zm0 0" fill="#7ba9ad"/><path d="m176.160156 341.09375c0 32.429688-26.289062 58.71875-58.71875 58.71875-32.429687 0-58.722656-26.289062-58.722656-58.71875s26.292969-58.722656 58.722656-58.722656c32.429688 0 58.71875 26.292968 58.71875 58.722656zm0 0" fill="#525959"/><path d="m105.078125 319.460938c0-14.058594 4.945313-26.957032 13.183594-37.066407-.273438-.003906-.546875-.023437-.820313-.023437-32.429687 0-58.722656 26.292968-58.722656 58.722656s26.292969 58.71875 58.722656 58.71875c18.371094 0 34.769532-8.441406 45.535156-21.652344-32.046874-.441406-57.898437-26.546875-57.898437-58.699218zm0 0" fill="#414747"/><path d="m151.261719 340.917969c0 18.773437-15.222657 33.996093-33.996094 33.996093-18.777344 0-33.996094-15.222656-33.996094-33.996093 0-18.777344 15.21875-33.996094 33.996094-33.996094 18.773437 0 33.996094 15.21875 33.996094 33.996094zm0 0" fill="#ebebf0"/><path d="m462.550781 341.09375c0 32.429688-26.289062 58.71875-58.71875 58.71875-32.429687 0-58.722656-26.289062-58.722656-58.71875s26.292969-58.722656 58.722656-58.722656c32.429688 0 58.71875 26.292968 58.71875 58.722656zm0 0" fill="#525959"/><path d="m391.46875 319.460938c0-14.058594 4.945312-26.957032 13.183594-37.066407-.273438-.003906-.546875-.023437-.820313-.023437-32.429687 0-58.722656 26.292968-58.722656 58.722656s26.292969 58.71875 58.722656 58.71875c18.371094 0 34.765625-8.441406 45.535157-21.652344-32.050782-.441406-57.898438-26.546875-57.898438-58.699218zm0 0" fill="#414747"/><path d="m437.652344 340.917969c0 18.773437-15.222656 33.996093-33.996094 33.996093-18.777344 0-33.996094-15.222656-33.996094-33.996093 0-18.777344 15.21875-33.996094 33.996094-33.996094 18.773438 0 33.996094 15.21875 33.996094 33.996094zm0 0" fill="#ebebf0"/><path d="m140.523438 361.695312c-18.78125 0-33.996094-15.214843-33.996094-33.996093 0-7.726563 2.582031-14.851563 6.921875-20.558594-16.980469 1.894531-30.179688 16.285156-30.179688 33.777344 0 18.777343 15.214844 33.996093 33.996094 33.996093 11.050781 0 20.863281-5.273437 27.070313-13.4375-1.253907.140626-2.523438.21875-3.8125.21875zm0 0" fill="#dbdbdd"/><path d="m426.914062 361.695312c-18.78125 0-33.996093-15.214843-33.996093-33.996093 0-7.726563 2.578125-14.851563 6.921875-20.558594-16.980469 1.894531-30.179688 16.285156-30.179688 33.777344 0 18.777343 15.214844 33.996093 33.996094 33.996093 11.050781 0 20.863281-5.273437 27.070312-13.4375-1.253906.140626-2.523437.21875-3.8125.21875zm0 0" fill="#dbdbdd"/><path d="m41.710938 281.867188c2.238281 2.234374 3.617187 5.328124 3.617187 8.746093 0 6.832031-5.53125 12.363281-12.363281 12.363281h-18.542969v-24.726562h18.542969c3.421875 0 6.511718 1.382812 8.746094 3.617188zm0 0" fill="#41c1fc"/><path d="m473.320312 63.972656h-163.6875c-.023437.824219-.0625 1.644532-.0625 2.472656 0 18.847657 6.558594 37.25 18.472657 51.816407 10.082031 12.332031 23.609375 21.472656 38.664062 26.257812l8.785157 17.804688c3.023437 6.125 9.144531 9.929687 15.976562 9.929687s12.953125-3.804687 15.976562-9.929687l8.78125-17.792969c34.605469-10.914062 58.191407-43.613281 57.09375-80.558594zm0 0" fill="#ccdbdb"/><path d="m457.875 64.210938c1.082031 32.875-21.726562 60.617187-52.40625 67.199218l-11.878906 24.074219c-.867188 1.757813-3.375 1.757813-4.238282 0l-11.882812-24.074219c-29.976562-6.429687-52.445312-33.070312-52.445312-64.964844 0-37.734374 31.460937-68.125 69.589843-66.3749995 34.375 1.5898435 62.136719 29.7421875 63.261719 64.1406255zm0 0" fill="#8effa4"/><path d="m375.6875 66.445312c0-27.707031 16.972656-51.4375 41.082031-61.40625-6.890625-2.863281-14.351562-4.605468-22.160156-4.9687495-38.125-1.7500005-69.585937 28.6406255-69.585937 66.3749995 0 31.894532 22.46875 58.535157 52.445312 64.964844l11.878906 24.074219c.867188 1.757813 3.375 1.757813 4.242188 0l11.878906-24.074219c3.917969-.839844 7.707031-2.03125 11.335938-3.53125-24.132813-9.957031-41.117188-33.707031-41.117188-61.433594zm0 0" fill="#5ded75"/><path d="m437.734375 66.035156c0 25.550782-20.714844 46.265625-46.265625 46.265625s-46.265625-20.714843-46.265625-46.265625c0-25.550781 20.714844-46.265625 46.265625-46.265625s46.265625 20.714844 46.265625 46.265625zm0 0" fill="#5ded75"/><path d="m428.554688 66.035156c0 20.480469-16.605469 37.085938-37.085938 37.085938s-37.085938-16.605469-37.085938-37.085938c0-20.484375 16.605469-37.085937 37.085938-37.085937s37.085938 16.601562 37.085938 37.085937zm0 0" fill="#fff"/><path d="m97.429688 224.277344 7.523437-60.738282c.191406-1.558593 1.515625-2.726562 3.085937-2.726562h40.285157c1.71875 0 3.113281 1.390625 3.113281 3.109375v60.738281c0 1.71875-1.394531 3.113282-3.113281 3.113282h-47.804688c-1.871093 0-3.320312-1.636719-3.089843-3.496094zm0 0" fill="#64d3ff"/><path d="m151.4375 212.871094c-18.339844 0-32.535156-16.0625-30.28125-34.261719l2.203125-17.796875h-15.316406c-1.574219 0-2.898438 1.167969-3.089844 2.726562l-7.523437 60.738282c-.230469 1.859375 1.21875 3.496094 3.089843 3.496094h47.804688c1.71875 0 3.113281-1.394532 3.113281-3.113282zm0 0" fill="#34bfea"/></svg>