<svg height="512pt" viewBox="0 -101 512.00021 512" width="512pt" xmlns="http://www.w3.org/2000/svg"><path d="m437.675781 198.191406v92.90625h-400.515625v-274.167968c0-9.351563 7.578125-16.929688 16.929688-16.929688h366.65625c9.351562 0 16.929687 7.578125 16.929687 16.929688zm0 0" fill="#7ba9ad"/><path d="m411.871094 198.191406v47.265625c0 2.402344-1.949219 4.347657-4.351563 4.347657h-340.203125c-2.402344 0-4.347656-1.945313-4.347656-4.347657v-215.300781c0-2.402344 1.945312-4.351562 4.347656-4.351562h340.203125c2.402344 0 4.351563 1.949218 4.351563 4.351562zm0 0" fill="#64d3ff"/><path d="m294.304688 225.660156c-110.375 0-199.851563-89.476562-199.851563-199.855468h-27.136719c-2.402344 0-4.347656 1.949218-4.347656 4.351562v215.300781c0 2.402344 1.945312 4.347657 4.347656 4.347657h340.203125c2.402344 0 4.351563-1.945313 4.351563-4.347657v-19.796875zm0 0" fill="#34bfea"/><path d="m158.570312 102.710938h-55.34375c-4.277343 0-7.742187-3.46875-7.742187-7.742188 0-4.277344 3.464844-7.742188 7.742187-7.742188h55.34375c4.277344 0 7.742188 3.464844 7.742188 7.742188 0 4.273438-3.464844 7.742188-7.742188 7.742188zm0 0" fill="#0094ce"/><path d="m332.386719 69.160156h144c7.203125 0 13.035156 5.90625 12.902343 13.140625-.136718 7.113281-6.226562 12.667969-13.328124 12.667969h-95.574219c-3.5625 0-6.792969 1.445312-9.125 3.777344-2.335938 2.332031-3.78125 5.5625-3.78125 9.125 0 7.121094 5.78125 12.902344 12.90625 12.902344h118.707031c7.207031 0 13.039062 5.90625 12.902344 13.140624-.132813 7.113282-6.222656 12.667969-13.324219 12.667969h-99.707031c-3.558594 0-6.789063 1.441407-9.125 3.777344-2.332032 2.332031-3.777344 5.5625-3.777344 9.125 0 7.121094 5.78125 12.902344 12.902344 12.902344h56.773437c7.207031 0 13.039063 5.902343 12.90625 13.140625-.136719 7.113281-6.226562 12.664062-13.328125 12.664062h-301.242187c-6.421875 0-11.625-5.199218-11.625-11.621094v-105.785156c0-6.421875 5.203125-11.625 11.625-11.625zm0 0" fill="#fec359"/><path d="m455.738281 172.386719h-56.773437c-2.9375 0-5.640625-.996094-7.8125-2.652344h-154.476563c-26.839843 0-49.691406-17.054687-58.324219-40.917969-2.277343-6.292968 4.832032-11.859375 10.464844-8.246094l44.714844 28.679688c2.367188 1.519531 5.402344 1.519531 7.769531 0l117.28125-80.085938h-21.417969l-162.507812 12.824219v-12.824219h-20.582031c-6.417969 0-11.625 5.203126-11.625 11.621094v105.785156c0 6.421876 5.207031 11.625 11.625 11.625h301.242187c7.101563 0 13.191406-5.554687 13.328125-12.667968.132813-7.238282-5.699219-13.140625-12.90625-13.140625zm0 0" fill="#fca82d"/><path d="m332.386719 69.160156h11.265625l-102.347656 65.636719c-2.367188 1.519531-5.40625 1.519531-7.773438 0l-90.378906-57.964844h-.011719c1.621094-4.472656 5.90625-7.671875 10.933594-7.671875zm0 0" fill="#f29f1c"/><path d="m469.488281 275.613281c2.953125 0 5.347657 2.394531 5.347657 5.34375 0 8.21875-3.324219 15.652344-8.710938 21.039063-5.390625 5.386718-12.820312 8.710937-21.039062 8.710937h-420.671876c-13.484374 0-24.414062-10.929687-24.414062-24.410156v-5.339844c0-2.949219 2.394531-5.34375 5.347656-5.34375zm0 0" fill="#2f6999"/><g fill="#0094ce"><path d="m117.675781 141.933594h-14.449219c-4.277343 0-7.742187-3.464844-7.742187-7.742188 0-4.273437 3.464844-7.738281 7.742187-7.738281h14.449219c4.277344 0 7.742188 3.464844 7.742188 7.738281 0 4.277344-3.464844 7.742188-7.742188 7.742188zm0 0"/><path d="m117.675781 180.128906h-14.449219c-4.277343 0-7.742187-3.464844-7.742187-7.742187 0-4.277344 3.464844-7.742188 7.742187-7.742188h14.449219c4.277344 0 7.742188 3.464844 7.742188 7.742188 0 4.277343-3.464844 7.742187-7.742188 7.742187zm0 0"/></g></svg>