<svg height="511pt" viewBox="-66 0 511 511.99974" width="511pt" xmlns="http://www.w3.org/2000/svg"><path d="m379.90625 11.535156v284.164063c0 6.371093-5.164062 11.539062-11.535156 11.539062h-356.335938c-6.371094 0-11.535156-5.167969-11.535156-11.539062v-284.164063c0-6.371094 5.164062-11.535156 11.535156-11.535156h356.335938c6.371094 0 11.535156 5.164062 11.535156 11.535156zm0 0" fill="#ef861d"/><path d="m352.328125 252.078125h-288.484375c-6.371094 0-11.535156-5.164063-11.535156-11.535156v-240.542969h-40.273438c-6.371094 0-11.535156 5.164062-11.535156 11.535156v284.164063c0 6.371093 5.164062 11.539062 11.535156 11.539062h356.335938c6.371094 0 11.535156-5.167969 11.535156-11.539062v-43.621094zm0 0" fill="#d85c00"/><path d="m354.132812 25.773438v255.6875h-327.859374v-255.6875zm0 0" fill="#fc992d"/><path d="m342.277344 247.957031h-119.546875c-85.4375 0-154.699219-69.261719-154.699219-154.703125v-67.480468h-41.757812v255.6875h327.859374v-33.503907zm0 0" fill="#ef861d"/><path d="m161.40625 162.703125 29.085938 24-110.605469 94.757813h-53.613281v-4.082032zm0 0" fill="#c14e00"/><path d="m354.132812 25.773438v22.054687l-134.886718 114.472656-29.09375-23.992187 132.605468-112.535156zm0 0" fill="#c14e00"/><path d="m354.132812 273.554688v7.90625h-53.613281l-33.042969-31.269532-76.984374-63.488281-29.085938-24-135.132812-111.453125v-25.476562h27.445312l136.433594 112.535156 29.09375 23.992187zm0 0" fill="#e56e0c"/><path d="m300.519531 281.460938v104.761718c0 50.003906-30.609375 94.894532-77.148437 113.160156l-31.167969 12.238282c-1.285156.503906-2.714844.503906-3.996094 0l-31.171875-12.238282c-46.539062-18.265624-77.148437-63.15625-77.148437-113.160156v-122.296875c0-2.4375 1.613281-4.578125 3.953125-5.253906l33.089844-9.542969 72.269531-20.839844c.992187-.285156 2.046875-.285156 3.042969.003907l75.234374 21.898437 29.105469 8.472656c2.335938.679688 3.9375 2.820313 3.9375 5.25zm0 0" fill="#fe6150"/><path d="m150.511719 386.222656v-122.296875c0-2.4375 1.609375-4.578125 3.953125-5.253906l33.089844-9.542969 38.3125-11.046875-33.625-9.789062c-.996094-.289063-2.050782-.289063-3.042969-.003907l-72.269531 20.839844-33.089844 9.542969c-2.339844.675781-3.953125 2.816406-3.953125 5.253906v122.296875c0 50.003906 30.609375 94.894532 77.148437 113.160156l31.171875 12.238282c1.28125.503906 2.710938.503906 3.996094 0l31.167969-12.238282c.722656-.28125 1.429687-.589843 2.144531-.886718-45.324219-18.796875-75.003906-63.046875-75.003906-112.273438zm0 0" fill="#ef3325"/><path d="m274.746094 279.367188v105.65625c0 18.347656-4.839844 36.46875-14.582032 52.015624-10.980468 17.519532-27.050781 30.835938-46.207031 38.355469l-23.648437 9.277344c-.066406.027344-.140625.027344-.207032 0l-23.652343-9.277344c-19.15625-7.519531-35.222657-20.835937-46.203125-38.355469-9.746094-15.546874-14.585938-33.667968-14.585938-52.015624v-105.605469c0-.125.085938-.238281.207032-.273438l84.742187-24.433593c.050781-.015626.105469-.015626.15625 0l83.777344 24.382812c.121093.035156.203125.144531.203125.273438zm0 0" fill="#1adffd"/><path d="m237.125 442.835938-23.652344 9.277343c-.0625.027344-.136718.027344-.203125 0l-23.652343-9.277343c-19.15625-7.519532-35.222657-20.835938-46.207032-38.355469-9.742187-15.546875-14.582031-33.667969-14.582031-52.019531v-79.9375l-22.960937 6.621093c-.121094.035157-.207032.148438-.207032.273438v105.601562c0 18.347657 4.839844 36.472657 14.585938 52.019531 10.980468 17.519532 27.046875 30.835938 46.203125 38.351563l23.652343 9.28125c.066407.023437.140626.023437.207032 0l23.648437-9.28125c19.15625-7.515625 35.226563-20.832031 46.207031-38.351563 2.550782-4.074218 4.757813-8.328124 6.640626-12.710937-8.613282 7.890625-18.628907 14.167969-29.679688 18.507813zm0 0" fill="#34bfea"/><path d="m224.226562 372.707031c-4.269531 0-7.734374-3.460937-7.734374-7.734375v-37.113281c0-13.929687-11.328126-25.261719-25.257813-25.261719-13.925781 0-25.257813 11.332032-25.257813 25.261719v37.113281c0 4.273438-3.464843 7.734375-7.734374 7.734375-4.269532 0-7.730469-3.460937-7.730469-7.734375v-37.113281c0-22.457031 18.269531-40.726563 40.722656-40.726563 22.457031 0 40.726563 18.269532 40.726563 40.726563v37.113281c0 4.273438-3.464844 7.734375-7.734376 7.734375zm0 0" fill="#dceeef"/><path d="m235.566406 366.59375v46.25c0 7.152344-5.804687 12.957031-12.957031 12.957031h-62.75c-7.152344 0-12.957031-5.804687-12.957031-12.957031v-46.25c0-7.15625 5.804687-12.960938 12.957031-12.960938h62.75c7.152344 0 12.957031 5.804688 12.957031 12.960938zm0 0" fill="#fec12c"/><path d="m187.625 412.84375v-46.25c0-7.15625 5.804688-12.960938 12.960938-12.960938h-40.726563c-7.152344 0-12.957031 5.804688-12.957031 12.960938v46.25c0 7.152344 5.804687 12.957031 12.957031 12.957031h40.726563c-7.15625 0-12.960938-5.804687-12.960938-12.957031zm0 0" fill="#fca82d"/><path d="m198.96875 377.453125v-4.230469c0-4.273437-3.464844-7.734375-7.734375-7.734375s-7.730469 3.460938-7.730469 7.734375v4.230469c-6.671875 2.972656-11.34375 9.65625-11.34375 17.417969 0 10.519531 8.558594 19.074218 19.074219 19.074218s19.074219-8.554687 19.074219-19.074218c0-7.761719-4.671875-14.445313-11.339844-17.417969zm-7.734375 21.027344c-1.988281 0-3.609375-1.617188-3.609375-3.609375 0-1.988282 1.621094-3.605469 3.609375-3.605469s3.609375 1.617187 3.609375 3.605469c0 1.992187-1.621094 3.609375-3.609375 3.609375zm0 0" fill="#f4aa08"/></svg>