<svg height="512pt" viewBox="0 -41 512 512" width="512pt" xmlns="http://www.w3.org/2000/svg"><path d="m269.90625 254.453125v158.351563c0 9.835937-7.972656 17.8125-17.8125 17.8125h-234.28125c-9.839844 0-17.8125-7.976563-17.8125-17.8125v-394.992188c0-9.839844 7.972656-17.8125 17.8125-17.8125h234.28125c9.839844 0 17.8125 7.972656 17.8125 17.8125zm0 0" fill="#fe6150"/><path d="m76.300781 377.5625c-9.835937 0-17.808593-7.976562-17.808593-17.8125v-359.75h-40.679688c-9.839844 0-17.8125 7.972656-17.8125 17.8125v394.992188c0 9.835937 7.972656 17.8125 17.8125 17.8125h234.28125c9.839844 0 17.8125-7.976563 17.8125-17.8125v-35.242188zm0 0" fill="#ef3325"/><path d="m245.183594 254.453125v143.046875c0 4.632812-3.757813 8.390625-8.390625 8.390625h-203.679688c-4.632812 0-8.390625-3.757813-8.390625-8.390625v-364.386719c0-4.632812 3.757813-8.390625 8.390625-8.390625h203.679688c4.632812 0 8.390625 3.757813 8.390625 8.390625zm0 0" fill="#8effa4"/><path d="m245.183594 254.453125v-113.339844h-193.253906c-6.40625 0-11.597657 5.191407-11.597657 11.601563v105.570312c0 6.410156 5.191407 11.601563 11.597657 11.601563h193.253906zm0 0" fill="#5ded75"/><path d="m170.9375 368.210938c-61.265625 0-110.929688-49.664063-110.929688-110.925782v-232.5625h-26.894531c-4.632812 0-8.390625 3.757813-8.390625 8.390625v364.386719c0 4.632812 3.757813 8.390625 8.390625 8.390625h203.679688c4.632812 0 8.390625-3.757813 8.390625-8.390625v-29.289062zm0 0" fill="#5ded75"/><path d="m427.011719 177.191406c7.1875 0 13.007812 5.890625 12.875 13.113282-.132813 7.097656-6.210938 12.640624-13.300781 12.640624h-99.503907c-3.554687 0-6.777343 1.441407-9.105469 3.769532-2.328124 2.328125-3.769531 5.554687-3.769531 9.109375 0 7.105469 5.765625 12.875 12.875 12.875h56.660157c7.191406 0 13.011718 5.894531 12.878906 13.113281-.136719 7.101562-6.214844 12.640625-13.300782 12.640625h-315.058593c-6.410157 0-11.601563-5.191406-11.601563-11.597656v-105.574219c0-6.40625 5.191406-11.597656 11.601563-11.597656h336.085937c7.1875 0 13.007813 5.890625 12.875 13.113281-.132812 7.097656-6.210937 12.640625-13.300781 12.640625h-95.382813c-3.554687 0-6.777343 1.441406-9.105468 3.769531s-3.773438 5.550781-3.773438 9.105469c0 7.109375 5.769532 12.878906 12.878906 12.878906zm0 0" fill="#fec359"/><path d="m395.539062 236.425781h-305.648437c-6.40625 0-11.597656-5.191406-11.597656-11.597656v-26.789063c0-14.726562 16.28125-23.625 28.675781-15.675781l34.957031 22.417969c3.117188 1.996094 7.144531 1.882812 10.140625-.292969l111.441406-78.804687h-18.324218l-166.890625 13.378906v-13.378906h-10.03125c-6.410157 0-11.601563 5.191406-11.601563 11.597656v105.574219c0 6.40625 5.191406 11.597656 11.601563 11.597656h315.058593c7.085938 0 13.164063-5.539063 13.300782-12.640625.035156-1.917969-.363282-3.738281-1.082032-5.386719zm0 0" fill="#fca82d"/><path d="m208.300781 24.722656-2.101562 23.777344c-.359375 4.039062-3.738281 7.128906-7.785157 7.128906h-126.917968c-4.050782 0-7.429688-3.089844-7.789063-7.128906l-2.101562-23.777344zm0 0" fill="#b0c6c6"/><path d="m245.183594 125.683594-88.773438 64.386718c-3 2.171876-7.027344 2.289063-10.144531.289063l-88.90625-57.011719h-.007813c1.605469-4.472656 5.882813-7.664062 10.910157-7.664062zm0 0" fill="#f29f1c"/><path d="m499.121094 228.699219c7.109375 0 12.878906 5.769531 12.878906 12.878906 0 3.554687-1.441406 6.777344-3.769531 9.105469s-5.554688 3.769531-9.109375 3.769531h-33.996094c-7.105469 0-12.875-5.765625-12.875-12.875 0-3.554687 1.441406-6.777344 3.769531-9.109375 2.328125-2.328125 5.554688-3.769531 9.105469-3.769531zm0 0" fill="#fec359"/><path d="m483.671875 125.683594c7.105469 0 12.875 5.765625 12.875 12.875 0 3.554687-1.441406 6.78125-3.769531 9.109375s-5.554688 3.769531-9.105469 3.769531h-7.214844c-7.105469 0-12.875-5.769531-12.875-12.878906 0-3.554688 1.441407-6.777344 3.769531-9.105469 2.328126-2.328125 5.554688-3.769531 9.105469-3.769531zm0 0" fill="#fec359"/><path d="m85.503906 357.472656c0 7.964844-6.457031 14.421875-14.421875 14.421875-7.964843 0-14.421875-6.457031-14.421875-14.421875s6.457032-14.421875 14.421875-14.421875c7.964844 0 14.421875 6.457031 14.421875 14.421875zm0 0" fill="#64d3ff"/><path d="m85.503906 302.875c0 7.964844-6.457031 14.421875-14.421875 14.421875-7.964843 0-14.421875-6.457031-14.421875-14.421875 0-7.96875 6.457032-14.425781 14.421875-14.425781 7.964844 0 14.421875 6.457031 14.421875 14.425781zm0 0" fill="#64d3ff"/><g fill="#42e25c"><path d="m216.339844 310.597656h-101.988282c-4.269531 0-7.726562-3.457031-7.726562-7.722656 0-4.269531 3.457031-7.726562 7.726562-7.726562h101.988282c4.265625 0 7.722656 3.457031 7.722656 7.726562 0 4.265625-3.457031 7.722656-7.722656 7.722656zm0 0"/><path d="m216.339844 365.199219h-101.988282c-4.269531 0-7.726562-3.457031-7.726562-7.726563 0-4.269531 3.457031-7.726562 7.726562-7.726562h101.988282c4.265625 0 7.722656 3.457031 7.722656 7.726562 0 4.269532-3.457031 7.726563-7.722656 7.726563zm0 0"/></g></svg>