<svg height="512pt" viewBox="-23 0 512 512" width="512pt" xmlns="http://www.w3.org/2000/svg"><path d="m466.109375 253.578125v201.292969c0 4.21875-3.410156 7.628906-7.628906 7.628906h-450.847657c-4.21875 0-7.632812-3.410156-7.632812-7.628906v-201.292969c0-4.21875 3.414062-7.632813 7.632812-7.632813h450.847657c4.21875 0 7.628906 3.414063 7.628906 7.632813zm0 0" fill="#f49926"/><path d="m353.410156 410.175781h-266.671875c-4.21875 0-7.632812-3.414062-7.632812-7.628906v-156.601563h-71.472657c-4.21875 0-7.632812 3.414063-7.632812 7.632813v201.292969c0 4.21875 3.414062 7.628906 7.632812 7.628906h450.847657c4.21875 0 7.628906-3.410156 7.628906-7.628906v-44.695313zm0 0" fill="#ed8615"/><path d="m440.332031 276.695312v155.058594c0 2.742188-2.226562 4.96875-4.96875 4.96875h-404.613281c-2.746094 0-4.96875-2.226562-4.96875-4.96875v-155.058594c0-2.746093 2.222656-4.96875 4.96875-4.96875h404.613281c2.742188 0 4.96875 2.222657 4.96875 4.96875zm0 0" fill="#fec359"/><path d="m301.054688 420.222656h-101c-82.011719 0-148.492188-66.484375-148.492188-148.496094h-20.8125c-2.746094 0-4.96875 2.222657-4.96875 4.96875v155.058594c0 2.742188 2.222656 4.96875 4.96875 4.96875h404.613281c2.742188 0 4.96875-2.226562 4.96875-4.96875v-11.53125zm0 0" fill="#fca82d"/><g fill="#f49926"><path d="m137.152344 297.960938v111.496093c0 1.957031-1.589844 3.546875-3.546875 3.546875h-15.59375c-1.957031 0-3.546875-1.589844-3.546875-3.546875v-111.496093c0-1.960938 1.589844-3.546876 3.546875-3.546876h15.59375c1.957031 0 3.546875 1.585938 3.546875 3.546876zm0 0"/><path d="m190.777344 297.960938v111.496093c0 1.957031-1.589844 3.546875-3.550782 3.546875h-15.589843c-1.960938 0-3.546875-1.589844-3.546875-3.546875v-111.496093c0-1.960938 1.585937-3.546876 3.546875-3.546876h15.589843c1.960938 0 3.550782 1.585938 3.550782 3.546876zm0 0"/><path d="m244.398438 297.960938v111.496093c0 1.957031-1.585938 3.546875-3.546876 3.546875h-15.59375c-1.957031 0-3.546874-1.589844-3.546874-3.546875v-111.496093c0-1.960938 1.589843-3.546876 3.546874-3.546876h15.59375c1.960938 0 3.546876 1.585938 3.546876 3.546876zm0 0"/><path d="m83.527344 297.960938v111.496093c0 1.957031-1.585938 3.546875-3.546875 3.546875h-15.589844c-1.960937 0-3.546875-1.589844-3.546875-3.546875v-111.496093c0-1.960938 1.585938-3.546876 3.546875-3.546876h15.589844c1.960937 0 3.546875 1.585938 3.546875 3.546876zm0 0"/><path d="m298.023438 297.960938v111.496093c0 1.957031-1.589844 3.546875-3.546876 3.546875h-15.59375c-1.960937 0-3.546874-1.589844-3.546874-3.546875v-111.496093c0-1.960938 1.585937-3.546876 3.546874-3.546876h15.59375c1.957032 0 3.546876 1.585938 3.546876 3.546876zm0 0"/><path d="m351.644531 297.960938v111.496093c0 1.957031-1.585937 3.546875-3.546875 3.546875h-15.589844c-1.960937 0-3.550781-1.589844-3.550781-3.546875v-111.496093c0-1.960938 1.589844-3.546876 3.550781-3.546876h15.589844c1.960938 0 3.546875 1.585938 3.546875 3.546876zm0 0"/><path d="m405.269531 297.960938v111.496093c0 1.957031-1.589843 3.546875-3.546875 3.546875h-15.59375c-1.957031 0-3.546875-1.589844-3.546875-3.546875v-111.496093c0-1.960938 1.589844-3.546876 3.546875-3.546876h15.59375c1.957032 0 3.546875 1.585938 3.546875 3.546876zm0 0"/></g><path d="m217.585938 222.90625v23.039062h-25.777344v-36.679687c7.289062 6.414063 16.085937 11.167969 25.777344 13.640625zm0 0" fill="#8effa4"/><path d="m274.304688 191.292969v279.457031c0 22.78125-18.46875 41.25-41.25 41.25-11.382813 0-21.695313-4.621094-29.164063-12.085938-7.464844-7.464843-12.082031-17.777343-12.082031-29.164062v-8.25h25.777344v9.28125c0 8.53125 6.941406 15.46875 15.46875 15.46875 8.527343 0 15.46875-6.9375 15.46875-15.46875v-279.460938c0-8.527343-6.941407-15.464843-15.46875-15.464843-8.527344 0-15.46875 6.9375-15.46875 15.464843l-.183594.34375c-8.785156-4.550781-15.34375-12.820312-17.59375-22.699218-.164063-.730469-.414063-1.433594-.730469-2.082032 7.453125-10.777343 19.878906-17.839843 33.976563-17.839843 11.386718 0 21.699218 4.621093 29.164062 12.085937s12.085938 17.777344 12.085938 29.164063zm0 0" fill="#8effa4"/><path d="m248.523438 192.765625v30.113281c-4.03125 1.039063-8.21875 1.691406-12.519532 1.886719-6.382812.296875-12.558594-.363281-18.417968-1.859375-9.691407-2.472656-18.488282-7.226562-25.777344-13.640625-10.355469-9.117187-17.667969-21.582031-20.222656-35.691406-1.054688-5.835938 3.554687-11.167969 9.484374-11.167969h9.363282c3.753906 0 7.074218 2.195312 8.644531 5.476562v.011719c.316406.648438.566406 1.339844.730469 2.070313 2.25 9.878906 8.808594 18.148437 17.59375 22.699218 4.703125 2.433594 10.042968 3.804688 15.703125 3.792969 5.570312-.011719 10.796875-1.339843 15.417969-3.691406zm0 0" fill="#b0c6c6"/><path d="m247.203125 101.605469c28.378906 6.621093 49.375 32.648437 48.1875 63.277343-.667969 17.40625-8.597656 33.082032-20.839844 44.03125h-.246093v-17.621093c0-8.890625-2.816407-17.121094-7.601563-23.855469.238281-1.636719.363281-3.320312.363281-5.03125 0-18.839844-15.386718-34.164062-34.257812-34.050781-7.753906.050781-13.984375-6.433594-13.984375-14.1875v-44.035157h28.378906zm0 0" fill="#b0c6c6"/><path d="m256.773438 40.734375v33.597656c0 3.660157-2.960938 6.617188-6.621094 6.617188h-36.257813c-3.660156 0-6.621093-2.957031-6.621093-6.617188v-33.597656zm0 0" fill="#7ba9ad"/><path d="m232.382812 74.332031v-33.597656h-25.109374v33.597656c0 3.660157 2.960937 6.617188 6.621093 6.617188h25.109375c-3.660156 0-6.621094-2.957031-6.621094-6.617188zm0 0" fill="#689899"/><path d="m272.222656 0c2.214844 0 3.9375 1.9375 3.679688 4.144531l-5.105469 43.664063c-.347656 3.019531-2.917969 5.300781-5.960937 5.300781h-65.625c-3.042969 0-5.609376-2.28125-5.960938-5.300781l-5.105469-43.664063c-.257812-2.207031 1.464844-4.144531 3.683594-4.144531zm0 0" fill="#f49926"/><path d="m218.359375 47.808594-5.105469-43.664063c-.257812-2.207031 1.464844-4.144531 3.679688-4.144531h-25.105469c-2.21875 0-3.941406 1.9375-3.683594 4.144531l5.105469 43.664063c.351562 3.019531 2.917969 5.300781 5.960938 5.300781h25.109374c-3.042968 0-5.609374-2.28125-5.960937-5.300781zm0 0" fill="#ed8615"/></svg>