<svg height="511pt" viewBox="0 1 511 511.99984" width="511pt" xmlns="http://www.w3.org/2000/svg"><path d="m482.839844 211.796875v40.542969c0 3.226562-2.609375 5.835937-5.835938 5.835937h-16.160156c-3.222656 0-5.832031-2.609375-5.832031-5.835937v-40.542969zm0 0" fill="#2f6999"/><path d="m424.09375 211.796875v40.542969c0 3.226562-2.609375 5.835937-5.835938 5.835937h-16.160156c-3.226562 0-5.832031-2.609375-5.832031-5.835937v-40.542969zm0 0" fill="#2f6999"/><path d="m115.929688 211.796875v40.542969c0 3.226562-2.605469 5.835937-5.832032 5.835937h-16.160156c-3.226562 0-5.832031-2.609375-5.832031-5.835937v-40.542969zm0 0" fill="#2f6999"/><path d="m57.183594 211.796875v40.542969c0 3.226562-2.605469 5.835937-5.832032 5.835937h-16.160156c-3.226562 0-5.832031-2.609375-5.832031-5.835937v-40.542969zm0 0" fill="#2f6999"/><path d="m503.089844 167.4375-202.675782-60.253906h-88.632812l-202.675781 60.253906c-5.101563 1.515625-8.605469 6.203125-8.605469 11.53125v36.761719c0 6.648437 5.390625 12.039062 12.039062 12.039062h487.121094c6.648438 0 12.035156-5.390625 12.035156-12.039062v-36.761719c0-5.328125-3.5-10.015625-8.605468-11.53125zm0 0" fill="#8cc0c5"/><path d="m196.363281 111.769531v116h119.472657v-116l-15.421876-4.585937h-88.632812zm0 0" fill="#71a7aa"/><path d="m300.375 59.589844v343.933594l-22.695312 98.480468c-1.554688 5.882813-6.882813 9.996094-12.984376 9.996094h-17.191406c-6.101562 0-11.429687-4.113281-12.988281-9.996094l-22.695313-98.480468v-343.117188c0-20.128906 8.730469-39.269531 23.921876-52.460938l.371093-.308593c11.894531-10.328125 29.632813-10.164063 41.328125.390625 14.59375 13.171875 22.933594 31.910156 22.933594 51.5625zm0 0" fill="#dceeef"/><path d="m255.582031 403.523438v-343.117188c0-19.632812 8.324219-38.308594 22.828125-51.457031-.324218-.304688-.636718-.621094-.96875-.921875-11.695312-10.554688-29.433594-10.71875-41.328125-.390625l-.371093.308593c-15.191407 13.191407-23.921876 32.332032-23.921876 52.460938v343.117188l22.695313 98.480468c1.558594 5.882813 6.886719 9.996094 12.988281 9.996094h17.191406c6.101563 0 11.429688-4.113281 12.984376-9.996094l.300781-1.300781zm0 0" fill="#ccdbdb"/><path d="m211.820312 325.164062h88.554688v54.78125h-88.554688zm0 0" fill="#8cc0c5"/><path d="m211.820312 325.164062h43.761719v54.78125h-43.761719zm0 0" fill="#78b7ba"/><path d="m406.625 460.25-107.261719-52.367188h-43.265625v72.910157l25.714844 3.265625 23.757812 16.316406h97.867188c4.011719 0 7.257812-3.246094 7.257812-7.257812v-26.34375c0-2.769532-1.578124-5.304688-4.070312-6.523438zm0 0" fill="#8cc0c5"/><path d="m295.511719 493.46875 18.117187-78.621094-14.265625-6.964844h-43.265625v72.910157l25.714844 3.265625zm0 0" fill="#71a7aa"/><path d="m212.832031 407.882812-107.257812 52.367188c-2.496094 1.21875-4.070313 3.753906-4.070313 6.523438v26.34375c0 4.011718 3.246094 7.257812 7.253906 7.257812h97.871094l23.753906-16.316406 25.714844-.289063v-75.886719zm0 0" fill="#8cc0c5"/><path d="m198.566406 414.847656 18.117188 78.621094 13.699218-9.410156 25.714844-.289063v-75.886719h-43.265625zm0 0" fill="#71a7aa"/><path d="m211.820312 352.578125v50.945313l22.695313 98.476562c1.558594 5.886719 6.886719 10 12.988281 10h17.191406c6.101563 0 11.429688-4.113281 12.984376-10l22.695312-98.476562v-50.945313zm0 0" fill="#71a7aa"/><path d="m274.609375 59.589844v14.398437c0 1.542969-1.25 2.792969-2.792969 2.792969h-31.433594c-1.542968 0-2.792968-1.25-2.792968-2.792969v-13.582031c0-12.667969 5.480468-24.695312 15.046875-33.003906l.378906-.328125c1.25-1.082031 2.609375-1.308594 3.535156-1.308594.949219 0 2.351563.234375 3.628907 1.390625 9.171874 8.277344 14.429687 20.097656 14.429687 32.433594zm0 0" fill="#64d3ff"/><path d="m.5 200.992188v14.738281c0 6.648437 5.390625 12.039062 12.039062 12.039062h199.242188v-26.777343zm0 0" fill="#71a7aa"/><path d="m300.414062 200.992188v26.777343h199.246094c6.648438 0 12.035156-5.390625 12.035156-12.039062v-14.738281zm0 0" fill="#71a7aa"/><path d="m196.363281 200.992188h15.417969v26.777343h-15.417969zm0 0" fill="#599696"/><path d="m300.414062 200.992188h15.421876v26.777343h-15.421876zm0 0" fill="#599696"/><path d="m237.546875 306.097656c-4.269531 0-7.730469-3.457031-7.730469-7.730468v-155.625c0-4.269532 3.460938-7.730469 7.730469-7.730469s7.730469 3.460937 7.730469 7.730469v155.625c0 4.269531-3.460938 7.730468-7.730469 7.730468zm0 0" fill="#b8d8d8"/><path d="m274.648438 306.097656c-4.269532 0-7.726563-3.457031-7.726563-7.730468v-155.625c0-4.269532 3.457031-7.730469 7.726563-7.730469 4.273437 0 7.730468 3.460937 7.730468 7.730469v155.625c0 4.269531-3.457031 7.730468-7.730468 7.730468zm0 0" fill="#b8d8d8"/><g fill="#1adffd"><path d="m42.757812 348.355469c-4.273437 0-7.730468-3.460938-7.730468-7.730469v-28.859375c0-4.269531 3.457031-7.726563 7.730468-7.726563 4.269532 0 7.726563 3.457032 7.726563 7.726563v28.859375c0 4.269531-3.457031 7.730469-7.726563 7.730469zm0 0"/><path d="m101.503906 327.742188c-4.269531 0-7.730468-3.460938-7.730468-7.730469v-32.980469c0-4.269531 3.460937-7.730469 7.730468-7.730469 4.269532 0 7.726563 3.460938 7.726563 7.730469v32.980469c0 4.269531-3.457031 7.730469-7.726563 7.730469zm0 0"/><path d="m73.675781 415.347656c-4.269531 0-7.730469-3.460937-7.730469-7.730468v-31.949219c0-4.269531 3.460938-7.730469 7.730469-7.730469s7.730469 3.460938 7.730469 7.730469v31.949219c0 4.269531-3.460938 7.730468-7.730469 7.730468zm0 0"/><path d="m469.441406 348.355469c-4.269531 0-7.730468-3.460938-7.730468-7.730469v-28.859375c0-4.269531 3.460937-7.726563 7.730468-7.726563 4.269532 0 7.730469 3.457032 7.730469 7.726563v28.859375c0 4.269531-3.460937 7.730469-7.730469 7.730469zm0 0"/><path d="m410.695312 327.742188c-4.269531 0-7.730468-3.460938-7.730468-7.730469v-32.980469c0-4.269531 3.460937-7.730469 7.730468-7.730469 4.269532 0 7.730469 3.460938 7.730469 7.730469v32.980469c0 4.269531-3.460937 7.730469-7.730469 7.730469zm0 0"/><path d="m438.523438 415.347656c-4.273438 0-7.730469-3.460937-7.730469-7.730468v-31.949219c0-4.269531 3.457031-7.730469 7.730469-7.730469 4.269531 0 7.726562 3.460938 7.726562 7.730469v31.949219c0 4.269531-3.457031 7.730468-7.726562 7.730468zm0 0"/></g><path d="m255.582031 403.523438v-50.945313h-43.761719v50.945313l22.695313 98.480468c1.558594 5.882813 6.886719 9.996094 12.988281 9.996094h17.191406c6.101563 0 11.429688-4.113281 12.984376-9.996094l.300781-1.300781zm0 0" fill="#5c9696"/></svg>