<svg height="511pt" viewBox="-30 1 511 511.99961" width="511pt" xmlns="http://www.w3.org/2000/svg"><path d="m280.464844 321.042969-.019532 190.957031h-234.839843c-4.335938 0-7.847657-3.507812-7.847657-7.84375v-136.839844zm0 0" fill="#fc992d"/><g fill="#ef861d"><path d="m193.695312 493.679688c-72.402343 0-131.097656-58.695313-131.097656-131.097657l-24.839844 4.734375v136.835938c0 4.332031 3.515626 7.847656 7.847657 7.847656h234.839843l.003907-18.324219h-86.753907zm0 0"/><path d="m280.464844 321.042969 135.066406 47.894531v135.21875c0 4.335938-3.507812 7.84375-7.84375 7.84375h-127.242188zm0 0"/><path d="m280.464844 321.042969-.214844.425781-29.824219 59.15625c-.621093 1.226562-1.875 2-3.25 2h-235.074219c-2.710937 0-4.46875-2.859375-3.25-5.277344l28.390626-56.304687zm0 0"/></g><path d="m416.050781 321.042969 28.390625 56.304687c1.21875 2.421875-.542968 5.277344-3.25 5.277344h-127.433594c-1.375 0-2.632812-.773438-3.25-2l-30.042968-59.582031zm0 0" fill="#fc992d"/><path d="m373.617188 460.539062v51.460938h-51.75v-51.554688c0-4.128906 4.542968-6.621093 8.03125-4.417968l18.089843 11.46875 17.566407-11.34375c3.476562-2.257813 8.0625.246094 8.0625 4.386718zm0 0" fill="#fec12c"/><path d="m240.101562 424.023438v49.679687c0 4.007813-3.238281 7.246094-7.246093 7.246094h-146.96875c-4.003907 0-7.246094-3.238281-7.246094-7.246094v-49.679687c0-4.003907 3.242187-7.242188 7.246094-7.242188h146.96875c4.007812 0 7.246093 3.238281 7.246093 7.242188zm0 0" fill="#ffe8c2"/><path d="m146.484375 467.542969c-28.039063 0-50.765625-22.726563-50.765625-50.761719h-9.832031c-4 0-7.246094 3.242188-7.246094 7.242188v49.679687c0 4.003906 3.246094 7.246094 7.246094 7.246094h146.96875c4.003906 0 7.246093-3.242188 7.246093-7.246094v-6.160156zm0 0" fill="#f4dab5"/><path d="m119.007812 456.628906h-15.527343c-4.285157 0-7.761719-3.476562-7.761719-7.765625 0-4.285156 3.476562-7.761719 7.761719-7.761719h15.527343c4.285157 0 7.761719 3.476563 7.761719 7.761719 0 4.289063-3.476562 7.765625-7.761719 7.765625zm0 0" fill="#f2d1a0"/><path d="m216.296875 456.628906h-70.488281c-4.289063 0-7.765625-3.476562-7.765625-7.765625 0-4.285156 3.476562-7.761719 7.765625-7.761719h70.488281c4.289063 0 7.761719 3.476563 7.761719 7.761719 0 4.289063-3.472656 7.765625-7.761719 7.765625zm0 0" fill="#f2d1a0"/><path d="m450.753906 125.398438-59.257812 49.308593c-2.171875 1.804688-5.460938.261719-5.460938-2.5625v-32.734375c-26.269531.105469-47.609375 21.507813-47.609375 47.808594v99.234375c0 1.667969-1.351562 3.019531-3.023437 3.019531h-27.074219c-1.667969 0-3.023437-1.351562-3.023437-3.019531v-99.234375c0-44.558594 36.195312-80.824219 80.730468-80.929688v-32.753906c0-2.824218 3.289063-4.363281 5.460938-2.5625l59.257812 49.308594c1.597656 1.332031 1.597656 3.789062 0 5.117188zm0 0" fill="#8effa4"/><path d="m229.464844 1.199219 49.304687 59.257812c1.804688 2.167969.261719 5.457031-2.558593 5.457031h-33.003907v188.453126c0 1.667968-1.351562 3.023437-3.023437 3.023437h-27.074219c-1.671875 0-3.023437-1.355469-3.023437-3.023437v-188.449219h-32.488282c-2.820312 0-4.363281-3.289063-2.558594-5.460938l49.304688-59.257812c1.332031-1.597657 3.789062-1.597657 5.121094 0zm0 0" fill="#8effa4"/><path d="m149.023438 187.21875v99.234375c0 1.667969-1.355469 3.023437-3.023438 3.023437h-27.074219c-1.671875 0-3.023437-1.355468-3.023437-3.023437v-99.234375c0-26.300781-21.34375-47.703125-47.609375-47.808594v32.738282c0 2.820312-3.289063 4.363281-5.460938 2.558593l-62.332031-51.867187 62.332031-51.863282c2.167969-1.804687 5.460938-.261718 5.460938 2.558594v32.757813c44.535156.101562 80.730469 36.367187 80.730469 80.925781zm0 0" fill="#8effa4"/></svg>