<svg height="512pt" viewBox="-39 0 512 512" width="512pt" xmlns="http://www.w3.org/2000/svg"><path d="m402.785156 274.875c2.164063.003906 3.921875 1.757812 3.917969 3.925781l-.058594 201.558594c-.011719 6.125-4.980469 11.097656-11.109375 11.097656l-176.601562-.0625-136.136719-.039062-41.5-.023438c-6.125 0-11.097656-4.96875-11.085937-11.097656l.0625-201.628906c0-2.125 1.722656-3.847657 3.847656-3.847657l48.75.019532 136.132812.039062zm0 0" fill="#ef861d"/><path d="m271.652344 491.414062 123.882812.042969c6.128906 0 11.097656-4.972656 11.109375-11.097656l.058594-201.558594c.003906-2.167969-1.753906-3.921875-3.917969-3.925781l-131.132812-.042969zm0 0" fill="#fc992d"/><path d="m304.085938 350.941406v-76.097656l-32.433594-.011719v216.582031l123.882812.042969c6.128906 0 11.097656-4.972656 11.109375-11.097656l.007813-26.8125c-56.652344-.019531-102.566406-45.953125-102.566406-102.605469zm0 0" fill="#ef861d"/><path d="m406.261719 61.394531-.0625 205.664063c-.007813 4.324218-3.503907 7.820312-7.828125 7.820312l-126.789063-.042968.09375-213.441407zm0 0" fill="#ef861d"/><path d="m271.652344 61.351562-.070313 213.484376-52.578125-.019532s-132.800781-.855468-136.132812-.042968l-45.285156-.019532c-4.324219 0-7.828126-3.507812-7.820313-7.816406l.042969-144.820312v-18.605469zm0 0" fill="#fc992d"/><path d="m257.753906 228.910156s-132.804687-.855468-136.136718-.042968l-45.285157-.019532c-4.320312 0-7.824219-3.507812-7.816406-7.816406l.035156-124.273438-38.742187 6.753907v18.605469l-.042969 144.820312c-.007813 4.308594 3.496094 7.816406 7.820313 7.816406l45.285156.019532c3.332031-.8125 136.132812.042968 136.132812.042968l52.578125.019532.015625-45.921876zm0 0" fill="#ef861d"/><path d="m271.675781 60.835938-28.792969 57.054687c-1.328124 2.636719-4.03125 4.296875-6.984374 4.296875l-16.84375-.007812-136.132813-.039063-80.277344-.03125c-1.96875 0-3.246093-2.074219-2.359375-3.832031l28.296875-56.070313c.449219-.890625 1.363281-1.453125 2.359375-1.449219l13.84375.007813 38.15625.011719 136.136719.039062zm0 0" fill="#ef861d"/><path d="m435.007812 5.449219-28.746093 55.945312-134.585938-.042969 29.925781-59.300781c.632813-1.257812 1.921876-2.050781 3.332032-2.050781l126.746094.0390625c2.78125 0 4.582031 2.9296875 3.328124 5.4101565zm0 0" fill="#fc992d"/><path d="m364.441406 223.589844-.019531 51.277344-51.566406-.019532.019531-51.371094c0-4.113281 4.539062-6.601562 8.003906-4.402343l18.027344 11.4375 17.503906-11.304688c3.464844-2.238281 8.03125.257813 8.03125 4.382813zm0 0" fill="#fec12c"/><path d="m244.828125 166.527344-.019531 70.140625c0 3.992187-3.238282 7.21875-7.21875 7.21875l-18.574219-.011719-136.136719-.039062-18.5625-.011719c-3.980468 0-7.207031-3.238281-7.207031-7.21875l.019531-70.140625c0-3.980469 3.226563-7.207032 7.21875-7.207032l18.5625.007813 136.136719.042969 18.574219.007812c3.980468 0 7.207031 3.230469 7.207031 7.210938zm0 0" fill="#ef861d"/><path d="m63.882812 9.714844c-10.539062 0-19.078124 8.539062-19.078124 19.070312l-.019532 31.453125v.527344l85.089844.585937v-51.636718zm0 0" fill="#fec359"/><path d="m219.097656 28.84375-.164062 482.144531-30.941406-14.449219-16.5 15.460938-22.6875-14.4375-20.628907 13.394531-18.5625-11.355469-26.816406 11.347657.136719-388.808594.019531-61.367187.011719-31.96875c0-5.269532-2.136719-10.046876-5.589844-13.5-3.148438-3.15625-7.417969-5.21875-12.152344-5.539063h135.230469c10.34375.238281 18.644531 8.683594 18.644531 19.078125zm0 0" fill="#ffe8c2"/><path d="m127.648438 510.636719.527343.320312 2.410157-1.5625zm0 0" fill="#f4dab5"/><path d="m127.046875 122.140625.019531-61.367187.011719-31.96875c0-5.269532-2.136719-10.046876-5.589844-13.5-3.148437-3.15625-7.417969-5.21875-12.148437-5.539063h-44.113282c4.734376.320313 9.003907 2.382813 12.148438 5.539063 3.453125 3.453124 5.589844 8.230468 5.589844 13.5l-.011719 31.96875-.019531 61.367187-.132813 388.808594 26.8125-11.347657 17.300781 10.582032zm0 0" fill="#f4dab5"/><path d="m192.917969 497.5625-1.144531.742188 8.6875 4.058593zm0 0" fill="#f4dab5"/><path d="m217.433594 510.289062 1.5.699219v-2.105469zm0 0" fill="#f4dab5"/><path d="m172.289062 510.957031-18.5625-11.355469-1.03125.4375 18.796876 11.960938 1.820312-1.707031zm0 0" fill="#f4dab5"/><path d="m364.378906 419.851562-.03125 71.59375-51.5625-.019531.027344-71.679687c0-3.867188 4.210938-6.257813 7.539062-4.277344l18.484376 10.992188 17.964843-10.878907c3.332031-2.011719 7.578125.382813 7.578125 4.269531zm0 0" fill="#fec12c"/><g fill="#f2d1a0"><path d="m188.074219 266.402344-.058594 168.414062c0 5.042969-4.085937 9.125-9.128906 9.125l-59.09375-.019531c-5.042969 0-9.128907-4.09375-9.128907-9.136719l.0625-168.414062c0-5.035156 4.082032-9.117188 9.125-9.117188l59.097657.019532c5.042969 0 9.125 4.082031 9.125 9.128906zm0 0"/><path d="m188.105469 174.613281-.019531 43.625c0 5.042969-4.085938 9.125-9.128907 9.125l-59.09375-.019531c-5.042969 0-9.125-4.09375-9.125-9.136719l.019531-43.625c0-5.035156 4.082032-9.117187 9.125-9.117187l59.097657.019531c5.042969 0 9.125 4.085937 9.125 9.128906zm0 0"/><path d="m123.148438 124.726562-12.375-.003906c-4.273438 0-7.734376-3.464844-7.734376-7.738281 0-4.269531 3.464844-7.730469 7.734376-7.730469h.003906l12.375.003906c4.273437 0 7.734375 3.464844 7.730468 7.738282 0 4.269531-3.460937 7.730468-7.734374 7.730468zm0 0"/><path d="m188.125 124.75c-.003906 0-.003906 0-.003906 0l-41.253906-.015625c-4.273438 0-7.734376-3.464844-7.730469-7.738281 0-4.269532 3.460937-7.730469 7.734375-7.730469h.003906l41.25.011719c4.273438.003906 7.734375 3.46875 7.734375 7.738281-.003906 4.269531-3.464844 7.734375-7.734375 7.734375zm0 0"/><path d="m188.132812 94.839844-12.378906-.003906c-4.269531 0-7.730468-3.464844-7.730468-7.738282 0-4.269531 3.464843-7.730468 7.734374-7.730468l12.378907.003906c4.273437 0 7.734375 3.464844 7.730469 7.738281 0 4.269531-3.464844 7.730469-7.734376 7.730469zm0 0"/><path d="m152.035156 94.828125-41.253906-.015625c-4.273438 0-7.734375-3.464844-7.730469-7.738281 0-4.269531 3.460938-7.730469 7.734375-7.730469h.003906l41.25.015625c4.273438 0 7.734376 3.464844 7.734376 7.738281-.003907 4.269532-3.464844 7.730469-7.738282 7.730469zm0 0"/><path d="m123.171875 66.972656c-.003906 0-.003906 0-.003906 0l-12.375-.003906c-4.273438 0-7.734375-3.464844-7.734375-7.738281 0-4.269531 3.464844-7.730469 7.734375-7.730469h.003906l12.375.003906c4.273437 0 7.734375 3.464844 7.734375 7.738282-.003906 4.269531-3.464844 7.730468-7.734375 7.730468zm0 0"/><path d="m188.144531 66.996094h-.003906l-41.253906-.015625c-4.269531 0-7.730469-3.464844-7.730469-7.738281 0-4.269532 3.464844-7.730469 7.734375-7.730469h.003906l41.253907.011719c4.269531.003906 7.730468 3.464843 7.730468 7.738281 0 4.269531-3.464844 7.734375-7.734375 7.734375zm0 0"/></g></svg>