<svg height="512pt" viewBox="-78 0 512 512" width="512pt" xmlns="http://www.w3.org/2000/svg"><path d="m262.695312 317.296875v182.660156c0 6.65625-5.386718 12.042969-12.042968 12.042969h-238.609375c-6.65625 0-12.042969-5.386719-12.042969-12.042969v-487.914062c0-6.65625 5.386719-12.042969 12.042969-12.042969h238.609375c6.65625 0 12.042968 5.386719 12.042968 12.042969zm0 0" fill="#7ba9ad"/><path d="m60.265625 499.957031v-487.914062c0-6.65625 5.386719-12.042969 12.042969-12.042969h-60.265625c-6.65625 0-12.042969 5.386719-12.042969 12.042969v487.914062c0 6.65625 5.386719 12.042969 12.042969 12.042969h60.265625c-6.65625 0-12.042969-5.386719-12.042969-12.042969zm0 0" fill="#739fa0"/><path d="m0 59.714844v391.503906h262.695312v-391.503906zm0 0" fill="#5e9596"/><path d="m0 59.714844h60.265625v391.503906h-60.265625zm0 0" fill="#538c8c"/><path d="m25.753906 90.261719v330.410156c0 1.488281 1.207032 2.695313 2.695313 2.695313h205.796875c1.488281 0 2.695312-1.207032 2.695312-2.695313v-330.410156c0-1.488281-1.207031-2.695313-2.695312-2.695313h-205.796875c-1.488281 0-2.695313 1.207032-2.695313 2.695313zm0 0" fill="#8effa4"/><path d="m199.085938 383.226562c-79.179688 0-143.367188-64.1875-143.367188-143.363281v-152.296875h-27.269531c-1.488281 0-2.695313 1.207032-2.695313 2.695313v330.410156c0 1.488281 1.207032 2.695313 2.695313 2.695313h205.796875c1.488281 0 2.695312-1.207032 2.695312-2.695313v-37.445313zm0 0" fill="#5ded75"/><path d="m53.570312 122.796875c0-5.234375 4.242188-9.476563 9.476563-9.476563h283.917969c5.234375 0 9.476562 4.242188 9.476562 9.476563v185.019531c0 5.234375-4.242187 9.480469-9.476562 9.480469h-28.640625v25.566406c0 2.421875-3.046875 3.464844-4.53125 1.558594l-21.035157-27.125h-229.710937c-5.234375 0-9.476563-4.246094-9.476563-9.480469zm0 0" fill="#fec359"/><path d="m191.453125 274.394531c-53.195313 0-96.324219-43.125-96.324219-96.324219v-64.75h-32.082031c-5.234375 0-9.476563 4.242188-9.476563 9.476563v185.019531c0 5.234375 4.242188 9.480469 9.476563 9.480469h229.710937l21.035157 27.125c1.484375 1.90625 4.53125.863281 4.53125-1.558594v-25.566406h28.640625c5.234375 0 9.476562-4.246094 9.476562-9.480469v-33.421875zm0 0" fill="#fca82d"/><g fill="#42e25c"><path d="m69.023438 357.988281h-15.453126c-4.269531 0-7.726562-3.457031-7.726562-7.726562s3.457031-7.726563 7.726562-7.726563h15.453126c4.265624 0 7.726562 3.457032 7.726562 7.726563s-3.460938 7.726562-7.726562 7.726562zm0 0"/><path d="m202.945312 359.019531h-106.109374c-4.265626 0-7.726563-3.460937-7.726563-7.726562 0-4.269531 3.460937-7.726563 7.726563-7.726563h106.109374c4.269532 0 7.726563 3.457032 7.726563 7.726563 0 4.265625-3.457031 7.726562-7.726563 7.726562zm0 0"/><path d="m202.945312 391.984375h-15.453124c-4.265626 0-7.726563-3.457031-7.726563-7.726563 0-4.269531 3.460937-7.726562 7.726563-7.726562h15.453124c4.269532 0 7.726563 3.457031 7.726563 7.726562 0 4.269532-3.457031 7.726563-7.726563 7.726563zm0 0"/><path d="m159.679688 390.953125h-106.109376c-4.269531 0-7.726562-3.457031-7.726562-7.726563 0-4.265624 3.457031-7.726562 7.726562-7.726562h106.109376c4.265624 0 7.726562 3.460938 7.726562 7.726562 0 4.269532-3.460938 7.726563-7.726562 7.726563zm0 0"/></g><path d="m232.820312 176.222656v20.480469c0 2.308594-1.871093 4.179687-4.179687 4.179687h-77.265625c-.535156 0-.96875.433594-.96875.96875v26.511719c0 .785157-.890625 1.246094-1.527344.785157l-58.664062-41.902344c-.539063-.382813-.539063-1.1875 0-1.574219l58.664062-41.902344c.640625-.457031 1.527344 0 1.527344.789063v26.511718c0 .53125.433594.964844.96875.964844h77.265625c2.308594.003906 4.179687 1.875 4.179687 4.1875zm0 0" fill="#fe6150"/><path d="m317.515625 242.007812-58.128906 41.523438c-.769531.546875-1.839844 0-1.839844-.949219v-25.933593c0-.640626-.523437-1.164063-1.164063-1.164063h-76.875c-2.417968 0-4.378906-1.960937-4.378906-4.378906v-20.085938c0-2.417969 1.960938-4.378906 4.378906-4.378906h76.875c.640626 0 1.164063-.523437 1.164063-1.164063v-25.933593c0-.949219 1.070313-1.5 1.839844-.949219l58.128906 41.523438c.648437.460937.648437 1.429687 0 1.890624zm0 0" fill="#1adffd"/><path d="m144.742188 483.15625c0 7.109375-5.765626 12.875-12.878907 12.875s-12.878906-5.765625-12.878906-12.875c0-7.113281 5.765625-12.878906 12.878906-12.878906s12.878907 5.765625 12.878907 12.878906zm0 0" fill="#5e9596"/><path d="m135.46875 36.054688h-44.296875c-4.269531 0-7.726563-3.457032-7.726563-7.726563 0-4.265625 3.457032-7.722656 7.726563-7.722656h44.296875c4.269531 0 7.726562 3.457031 7.726562 7.722656 0 4.269531-3.457031 7.726563-7.726562 7.726563zm0 0" fill="#5e9596"/><path d="m173.070312 36.570312h-13.390624c-4.269532 0-7.726563-3.457031-7.726563-7.726562 0-4.265625 3.457031-7.726562 7.726563-7.726562h13.390624c4.269532 0 7.726563 3.460937 7.726563 7.726562 0 4.269531-3.457031 7.726562-7.726563 7.726562zm0 0" fill="#5e9596"/></svg>