<svg id="Capa_1" enable-background="new 0 0 512 512" height="512" viewBox="0 0 512 512" width="512" xmlns="http://www.w3.org/2000/svg"><g><path d="m245.661 244.9v18.357c0 11.913 7.839 22.406 19.264 25.784l85.476 25.274c35.441 10.479 59.76 43.031 59.76 79.988v107.697h-400.161v-107.697c0-36.957 24.319-69.509 59.76-79.988l85.476-25.274c11.424-3.378 19.264-13.871 19.264-25.784v-17.39z" fill="#33d6f5"/><path d="m210.08 321.075-41.663 30.27-34.224-56.082 34.602-15.473z" fill="#fff"/><path d="m210.08 321.075 41.663 30.27 34.225-56.082-34.603-15.473z" fill="#fff"/><path d="m238.661 502v-112.215l-12.985-20.71h-31.192l-12.984 20.71v112.215z" fill="#ff7d97"/><path d="m210.08 321.075 41.285-41.285c-3.599-4.612-5.704-10.377-5.704-16.533v-18.357l-71.161.967v17.39c0 6.155-2.106 11.921-5.704 16.533z" fill="#f3c9a6"/><g id="XMLID_590_"><path id="XMLID_591_" d="m297.328 122.173v53.32c0 48.285-39.144 87.428-87.43 87.428-48.286 0-87.43-39.143-87.43-87.428v-53.32z" fill="#f3c9a6"/></g><path d="m210.08 321.075-25.235 18.334 9.639 29.666h31.192l9.639-29.666z" fill="#ff7d97"/><path d="m317.82 10c-25.826 13.874-59.526 16.408-87.812 8.776-20.414-5.508-41.366-8.776-62.51-8.776-34.942 0-64.482 27.993-65.147 62.776-.686 35.893 29.377 65.272 65.277 65.272h81.584c37.891 0 68.608-30.717 68.608-68.608z" fill="#c68a65"/><circle id="XMLID_672_" cx="403" cy="403" fill="#ff7d97" r="99"/><path d="m445.814 417.53-14.53-14.53 14.53-14.53c3.515-3.515 3.515-9.213 0-12.728l-15.557-15.557c-3.515-3.515-9.213-3.515-12.728 0l-14.529 14.531-14.53-14.53c-3.515-3.515-9.213-3.515-12.728 0l-15.556 15.556c-3.515 3.515-3.515 9.213 0 12.728l14.53 14.53-14.53 14.53c-3.515 3.515-3.515 9.213 0 12.728l15.557 15.557c3.515 3.515 9.213 3.515 12.728 0l14.53-14.53 14.53 14.53c3.515 3.515 9.213 3.515 12.728 0l15.556-15.556c3.514-3.516 3.514-9.214-.001-12.729z" fill="#fff"/><g><path d="m403 294c-17.274 0-33.618 4.046-48.146 11.229-.539-.17-87.095-25.777-87.095-25.777-7.124-2.106-12.1-8.766-12.1-16.195v-1.775c30.716-16.412 51.667-48.798 51.667-85.989v-53.177c12.725-13.973 20.493-32.534 20.493-52.877v-59.439c0-3.518-1.849-6.777-4.868-8.583s-6.767-1.892-9.864-.227c-22.656 12.172-53.492 15.21-80.476 7.93-22.43-6.051-44.338-9.12-65.113-9.12-40.67 0-74.38 32.561-75.145 72.584-.366 19.166 6.777 37.404 20.114 51.55v51.359c0 37.338 21.117 69.832 52.032 86.182v1.582c0 7.429-4.976 14.088-12.1 16.195l-85.477 25.274c-19.474 5.758-36.191 17.401-48.346 33.669-12.151 16.268-18.576 35.601-18.576 55.908v107.697c0 5.523 4.478 10 10 10h40.75c5.522 0 10-4.477 10-10s-4.478-10-10-10h-30.75v-97.697c0-15.959 5.049-31.153 14.601-43.938s22.69-21.935 37.995-26.46l57.063-16.873 30.222 49.523c1.454 2.383 3.839 4.049 6.576 4.597.65.13 1.307.194 1.96.194 2.095 0 4.156-.659 5.878-1.91l5.293-3.845 3.942 12.132-10.502 16.752c-.998 1.592-1.527 3.433-1.527 5.312v102.213h-30.75c-5.522 0-10 4.477-10 10s4.478 10 10 10h262.249c60.103 0 109-48.897 109-109s-48.897-109-109-109zm-140.912 4.631 8.564 2.532-21.8 35.722-23.422-17.018 26.237-26.237c3.139 2.173 6.64 3.882 10.421 5.001zm-52.008 8.302-28.773-28.773c1.237-2.773 2.142-5.707 2.665-8.747 8.258 2.282 16.951 3.508 25.926 3.508 9.1 0 17.912-1.258 26.273-3.602.52 3.074 1.432 6.04 2.682 8.841zm13.48 36.296-5.149 15.846h-16.66l-5.149-15.846 13.479-9.793zm-111.21-270.263c.558-29.205 25.298-52.966 55.148-52.966 19.016 0 39.171 2.836 59.905 8.431 26.246 7.081 55.738 5.778 80.417-3.094v44.103c0 32.316-26.292 58.608-58.608 58.608h-81.584c-14.843 0-29.361-6.122-39.833-16.796-10.232-10.431-15.718-24.027-15.445-38.286zm20.118 102.527v-36.198c10.796 5.664 22.89 8.752 35.16 8.752h81.584c13.824 0 26.817-3.599 38.115-9.891v37.337c0 42.693-34.734 77.427-77.43 77.427s-77.429-34.733-77.429-77.427zm38.84 161.391-21.8-35.722 8.564-2.532c3.781-1.118 7.282-2.827 10.42-5.001l26.237 26.237zm57.352 155.116h-37.16v-99.339l8.518-13.586h20.125l8.518 13.586v99.339zm20 0v-102.215c0-1.879-.529-3.72-1.527-5.312l-10.502-16.752 3.942-12.132 5.293 3.845c1.722 1.251 3.783 1.91 5.878 1.91.653 0 1.31-.064 1.96-.194 2.737-.547 5.122-2.214 6.576-4.597l30.222-49.523 42.429 12.546c-23.786 20.012-38.931 49.981-38.931 83.424 0 36.711 18.244 69.239 46.14 89zm154.34 0c-49.075 0-89-39.925-89-89s39.925-89 89-89 89 39.925 89 89-39.925 89-89 89z"/><path d="m452.886 368.671-15.557-15.557c-7.408-7.407-19.46-7.409-26.87 0l-7.459 7.459-7.459-7.459c-7.407-7.407-19.461-7.408-26.87 0l-15.557 15.557c-7.407 7.408-7.407 19.461 0 26.871l7.459 7.458-7.459 7.458c-7.408 7.408-7.408 19.462 0 26.871l15.557 15.557c7.41 7.408 19.464 7.407 26.87 0l7.459-7.459 7.459 7.459c3.704 3.704 8.569 5.556 13.436 5.556 4.865 0 9.73-1.852 13.435-5.556l15.557-15.557c7.407-7.408 7.407-19.461 0-26.87l-7.46-7.459 7.459-7.459c7.407-7.409 7.407-19.462 0-26.87zm-28.673 41.4 13.823 13.823-14.142 14.142-13.823-13.823c-1.953-1.953-4.512-2.929-7.071-2.929s-5.118.976-7.071 2.929l-13.823 13.823-14.142-14.142 13.823-13.823c1.875-1.875 2.929-4.419 2.929-7.071s-1.054-5.196-2.929-7.071l-13.823-13.823 14.143-14.142 13.822 13.823c3.906 3.905 10.236 3.905 14.143 0l13.822-13.823 14.143 14.142-13.823 13.823c-1.875 1.875-2.929 4.419-2.929 7.071s1.053 5.196 2.928 7.071z"/><circle cx="95.75" cy="502" r="10"/></g></g></svg>