<svg id="Capa_1" enable-background="new 0 0 512 512" height="512" viewBox="0 0 512 512" width="512" xmlns="http://www.w3.org/2000/svg"><g><path d="m10 461.975h492v40h-492z" fill="#fff"/><path d="m50 364.521h73v97.454h-73z" fill="#ffcd69"/><path d="m163 299.372h73v162.603h-73z" fill="#00ccf2"/><path d="m276 338.462h73v123.514h-73z" fill="#ff7d97"/><path d="m389 261.381h73v200.594h-73z" fill="#89df8f"/><path d="m501.964 114.679-110.52-3.396 14.682 25.429-95.164 54.942-29.366-50.863c-3.822-6.619-10.117-11.45-17.5-13.428s-15.25-.942-21.869 2.879l-230.87 133.293 28.82 49.918 205.911-118.883 29.366 50.864c3.822 6.619 10.117 11.45 17.5 13.428s15.25.942 21.869-2.879l120.123-69.353 14.7 25.461z" fill="#ff7d97"/><g><path d="m67.459 124.963-36.904 11.38c-12.189 3.759-20.504 15.024-20.504 27.78v14.573h145.641v-14.536c0-12.773-8.337-24.05-20.549-27.794l-37.193-11.403z" fill="#33d6f5"/><g><path d="m105.389 52.978c-11.929 10.135-34.5 17.158-60.695 17.792v20.194l-6.186-23.986c-6.585-25.534 9.811-51.309 35.728-56.169 5.55-1.041 11.245-1.041 16.795 0 25.917 4.859 42.313 30.635 35.728 56.169l-6.186 23.986-.157-13.961c-2.993-9.223-8.214-17.443-15.027-24.025z" fill="#ffcd69"/><g><g><g><g id="XMLID_866_"><path id="XMLID_867_" d="m120.417 61.752v29.301c0 20.866-16.916 37.782-37.783 37.782-20.867 0-37.783-16.915-37.783-37.782v-29.301z" fill="#ffd0c7"/></g></g></g></g></g></g><g><path d="m502 451.975h-30v-190.594c0-5.523-4.478-10-10-10h-73c-5.522 0-10 4.477-10 10v190.594h-20v-113.513c0-5.523-4.478-10-10-10h-73c-5.522 0-10 4.477-10 10v113.514h-20v-152.604c0-5.523-4.477-10-10-10h-73c-5.523 0-10 4.477-10 10v152.603h-20v-87.454c0-5.523-4.477-10-10-10h-73c-5.523 0-10 4.477-10 10v87.454h-30c-5.523 0-10 4.477-10 10v40c0 5.523 4.477 10 10 10h201c5.523 0 10-4.477 10-10s-4.477-10-10-10h-191v-20h472v20h-191c-5.522 0-10 4.477-10 10s4.478 10 10 10h201c5.522 0 10-4.477 10-10v-40c0-5.523-4.478-10-10-10zm-389 0h-53v-77.454h53zm113 0h-53v-142.603h53zm113 0h-53v-103.513h53zm113 0h-53v-180.594h53z"/><path d="m10.051 188.697h110.93l-114.624 66.178c-4.783 2.761-6.422 8.877-3.66 13.66l28.82 49.917c1.326 2.297 3.51 3.973 6.072 4.659.852.228 1.722.341 2.588.341 1.741 0 3.467-.455 5-1.34l197.251-113.882 24.366 42.204c5.185 8.979 13.557 15.403 23.572 18.087 10.018 2.683 20.477 1.306 29.457-3.878l111.462-64.353 9.7 16.8c1.788 3.097 5.091 5 8.659 5 .052 0 .104 0 .154-.001 3.628-.056 6.94-2.072 8.656-5.268l52.318-97.411c1.639-3.051 1.582-6.732-.149-9.731s-4.892-4.889-8.354-4.995l-110.519-3.396c-3.639-.116-7.028 1.75-8.89 4.863s-1.892 6.991-.078 10.132l9.682 16.769-77.844 44.942-24.365-42.204c-5.186-8.98-13.557-15.404-23.571-18.087-10.017-2.684-20.478-1.306-29.458 3.878l-71.56 41.315c-.526-16.743-11.478-31.151-27.593-36.092l-18.419-5.647c6.31-7.739 10.249-17.478 10.708-28.108l6.08-23.576c3.828-14.841 1.305-30.769-6.921-43.701s-21.583-21.969-36.648-24.793c-6.795-1.274-13.686-1.274-20.481 0-15.063 2.826-28.42 11.862-36.646 24.795-8.226 12.932-10.749 28.861-6.921 43.702l5.904 22.895c.318 10.939 4.313 20.971 10.805 28.889l-17.925 5.528c-16.483 5.083-27.557 20.087-27.557 37.336v14.574c-.001 5.522 4.476 9.999 9.999 9.999zm237.176-49.795c4.354-2.514 9.426-3.18 14.282-1.88 4.855 1.301 8.914 4.416 11.428 8.769l29.365 50.863c1.326 2.297 3.51 3.973 6.072 4.659 2.562.685 5.291.327 7.588-.999l95.164-54.942c2.297-1.326 3.973-3.51 4.659-6.072.687-2.562.327-5.292-.999-7.588l-5.706-9.882 76.431 2.348-36.181 67.366-5.725-9.914c-2.761-4.783-8.878-6.422-13.66-3.66l-120.122 69.352c-4.354 2.515-9.429 3.181-14.28 1.881-4.856-1.301-8.915-4.416-11.429-8.769l-29.366-50.864c-2.761-4.784-8.878-6.422-13.66-3.66l-197.251 113.883-18.82-32.597zm-194.606-102.394c5.343-8.399 13.674-14.036 23.458-15.87 2.175-.408 4.365-.611 6.555-.611s4.38.204 6.555.611c9.784 1.834 18.115 7.471 23.458 15.87 3.048 4.792 4.869 10.083 5.41 15.534-1.773-2.197-3.683-4.288-5.72-6.255-3.698-3.572-9.503-3.758-13.422-.428-10.082 8.563-29.624 14.341-51.494 15.312-1.238-8.413.559-16.867 5.2-24.163zm57.795 42.156v12.3c0 15.362-12.499 27.86-27.861 27.86s-27.861-12.498-27.861-27.86v-10.721c19.264-1.613 36.607-6.558 49.104-13.953 2.791 3.784 5.029 7.961 6.618 12.374zm-90.365 85.459c0-8.419 5.405-15.743 13.451-18.224l32.51-10.025c5.158 1.906 10.731 2.95 16.543 2.95 5.866 0 11.487-1.066 16.686-3.006l32.972 10.109c8.063 2.472 13.48 9.799 13.48 18.232v4.537h-125.642z"/><circle cx="256" cy="501.974" r="10"/></g></g></svg>