<svg id="Capa_1" enable-background="new 0 0 511.187 511.187" height="512" viewBox="0 0 511.187 511.187" width="512" xmlns="http://www.w3.org/2000/svg"><g><g><path d="m442.94 275.187c-3.905 36.918-18.497 70.642-40.621 98.034l41.187 41.187c32.43-38.153 53.424-86.321 57.681-139.222h-58.247z" fill="#ffcd69"/><path d="m374.034 401.506c-32.268 26.064-73.324 41.681-118.034 41.681-103.83 0-188-84.17-188-188 0-97.073 73.575-176.954 168-186.94v-58.247c-126.507 10.18-226 116.06-226 245.187 0 135.862 110.138 246 246 246 60.731 0 116.311-22.02 159.222-58.494z" fill="#00ccf2"/><path d="m276 68.247c87.853 9.291 157.649 79.087 166.94 166.94h58.247c-9.649-119.909-105.278-215.538-225.187-225.187z" fill="#ff7d97"/></g><g><g id="XMLID_587_"><path id="XMLID_1223_" d="m307.934 175.246v51.832c0 28.681-23.251 51.932-51.934 51.932-28.682 0-51.934-23.251-51.934-51.932v-51.832z" fill="#ffd0c7"/></g><path d="m234.859 273.714-50.621 15.61c-16.72 5.156-28.125 20.609-28.125 38.105v21.763h199.774v-21.712c0-17.521-11.436-32.989-28.187-38.124l-51.017-15.641h-41.824z" fill="#fff"/><g><path d="m287.321 174.973c-16.363 13.902-47.323 23.535-83.255 24.404v27.7l-8.485-32.901c-9.032-35.024 13.457-70.38 49.008-77.046 7.613-1.427 15.425-1.427 23.038 0 35.551 6.665 58.04 42.022 49.008 77.046l-8.702 32.901.001-19.151c-4.106-12.65-11.268-23.925-20.613-32.953z" fill="#ffcd69"/></g></g><g><path d="m501.188 265.187h-58.248c-5.116 0-9.406 3.861-9.944 8.948-3.598 34.018-16.896 66.108-38.456 92.803-3.213 3.978-2.907 9.739.708 13.354l41.187 41.187c1.879 1.879 4.425 2.929 7.071 2.929.134 0 .27-.003.404-.008 2.79-.113 5.406-1.387 7.215-3.515 34.953-41.122 55.712-91.226 60.03-144.896.224-2.783-.726-5.532-2.618-7.584-1.893-2.051-4.558-3.218-7.349-3.218zm-58.453 134.31-27.131-27.132c18.965-25.783 31.327-55.611 36.128-87.178h38.371c-5.282 41.796-21.501 80.938-47.368 114.31z"/><path d="m381.105 394.435c-3.616-3.616-9.378-3.922-13.354-.708-31.505 25.446-71.191 39.46-111.751 39.46-40.687 0-78.981-13.36-110.744-38.636-30.834-24.536-52.923-59.002-62.198-97.049-1.309-5.366-6.726-8.655-12.084-7.347-5.366 1.308-8.655 6.718-7.348 12.084 10.321 42.335 34.889 80.677 69.176 107.961 35.34 28.123 77.941 42.987 123.198 42.987 42.104 0 83.364-13.576 117.174-38.399l27.131 27.13c-41.186 31.846-92.009 49.269-144.305 49.269-63.038 0-122.303-24.548-166.877-69.123-44.575-44.574-69.123-103.839-69.123-166.877 0-59.692 22.336-116.656 62.894-160.4 37.86-40.836 88.337-66.752 143.106-73.7v38.37c-78.739 11.992-143.371 70.742-162.373 148.677-1.308 5.366 1.981 10.776 7.347 12.084 5.365 1.31 10.776-1.981 12.085-7.347 17.722-72.689 79.607-126.812 153.993-134.68 5.087-.538 8.948-4.829 8.948-9.944v-58.247c0-2.792-1.167-5.456-3.219-7.349-2.051-1.894-4.811-2.841-7.583-2.619-63.92 5.144-123.218 33.966-166.971 81.157-43.997 47.454-68.227 109.248-68.227 173.998 0 68.38 26.629 132.667 74.98 181.02s112.64 74.98 181.02 74.98c60.669 0 119.515-21.619 165.698-60.874 2.128-1.809 3.402-4.425 3.516-7.215.112-2.79-.946-5.5-2.921-7.476z"/><path d="m274.948 78.191c40.222 4.254 78.189 22.415 106.911 51.136s46.883 66.69 51.137 106.912c.538 5.087 4.829 8.948 9.944 8.948h58.247c2.792 0 5.456-1.167 7.35-3.218 1.893-2.052 2.842-4.801 2.618-7.584-4.857-60.358-31.188-117.255-74.143-160.21-42.954-42.955-99.852-69.286-160.21-74.143-2.773-.222-5.531.725-7.583 2.619-2.052 1.893-3.219 4.557-3.219 7.349v58.247c0 5.116 3.861 9.406 8.948 9.944zm11.052-57.101c51.587 6.574 99.845 30.202 136.87 67.227s60.653 85.283 67.228 136.87h-38.369c-6.333-41.418-25.916-80.191-55.727-110.002s-68.584-49.393-110.002-55.726z"/><path d="m194.929 139.653c-10.732 16.874-14.024 37.657-9.03 57.021l8.204 31.812c.366 16.278 7.034 31.022 17.667 41.883l-30.477 9.398c-21.042 6.489-35.179 25.642-35.179 47.661v21.763c0 5.523 4.478 10 10 10h199.773c5.522 0 10-4.477 10-10v-21.712c0-22.056-14.168-41.219-35.256-47.685l-30.477-9.344c10.672-10.862 17.368-25.628 17.743-41.933l8.422-31.844c4.993-19.364 1.701-40.148-9.031-57.021-10.733-16.874-28.162-28.665-47.818-32.35-8.865-1.662-17.857-1.662-26.723 0-19.656 3.685-37.085 15.477-47.818 32.351zm129.839 159.262c12.632 3.873 21.119 15.352 21.119 28.563v11.712h-179.774v-11.763c0-13.189 8.468-24.663 21.071-28.549l45.808-14.125c.088-.027.169-.064.255-.093 4.061 1.61 8.326 2.808 12.752 3.53v17.318c0 5.523 4.478 10 10 10s10-4.477 10-10v-17.318c4.35-.709 8.545-1.879 12.544-3.447zm-110.702-71.838v-18.15c28.748-1.949 54.494-9.343 71.964-20.605 5.167 6.338 9.215 13.548 11.903 21.24v17.515c0 23.122-18.812 41.932-41.934 41.932s-41.933-18.81-41.933-41.932zm42.042-101.021c3.233 0 6.466.301 9.677.903 14.443 2.708 26.74 11.028 34.627 23.427 6.676 10.494 9.365 22.61 7.818 34.676-3.917-6.29-8.607-12.11-13.961-17.282-3.697-3.572-9.503-3.758-13.423-.429-14.931 12.685-44.04 21.088-76.127 22.005-2.855-13.494-.374-27.245 7.084-38.97 7.888-12.399 20.186-20.72 34.629-23.428 3.211-.6 6.444-.902 9.676-.902z"/><circle cx="67.999" cy="255.186" r="10"/></g></g></svg>