<svg id="Capa_1" enable-background="new 0 0 512 512" height="512" viewBox="0 0 512 512" width="512" xmlns="http://www.w3.org/2000/svg"><g><path id="XMLID_1202_" d="m256 10 242.562 184.422v282.572c0 13.811-11.196 25.006-25.006 25.006h-435.111c-13.811 0-25.006-11.196-25.006-25.006v-282.572z" fill="#ff7d97"/><path id="XMLID_1198_" d="m75.946 238.975v-208.975c0-11.046 8.954-20 20-20h320.108c11.046 0 20 8.954 20 20v208.975l-180.054 135.859z" fill="#fff"/><g><path d="m300.309 112.074-15.037-15.037 15.037-15.037c3.637-3.637 3.637-9.535 0-13.172l-16.1-16.1c-3.637-3.637-9.535-3.637-13.172 0l-15.037 15.037-15.037-15.037c-3.638-3.638-9.535-3.637-13.172 0l-16.1 16.1c-3.638 3.638-3.638 9.535 0 13.172l15.037 15.037-15.037 15.037c-3.637 3.637-3.637 9.535 0 13.172l16.1 16.1c3.637 3.637 9.535 3.637 13.172 0l15.037-15.037 15.037 15.037c3.637 3.637 9.535 3.638 13.172 0l16.1-16.1c3.637-3.637 3.637-9.534 0-13.172z" fill="#ff7d97"/></g><g><path d="m504.614 186.461-58.561-44.524v-111.937c0-16.542-13.458-30-30-30h-115.053c-5.522 0-10 4.477-10 10s4.478 10 10 10h115.054c5.514 0 10 4.486 10 10v206.988l-170.054 129.294-170.054-129.294v-206.988c0-5.514 4.486-10 10-10h115.054c5.523 0 10-4.477 10-10s-4.477-10-10-10h-115.054c-16.542 0-30 13.458-30 30v111.938l-58.56 44.523c-2.487 1.891-3.948 4.836-3.948 7.96v282.572c0 19.303 15.704 35.007 35.007 35.007h435.111c19.303 0 35.006-15.704 35.006-35.006v-282.572c0-3.125-1.46-6.069-3.948-7.961zm-58.56-19.399 35.985 27.36-35.985 27.36zm-380.108 0v54.72l-35.985-27.36zm-42.508 47.525 148.855 113.176-148.855 148.856zm450.118 277.413h-435.111c-.666 0-1.316-.059-1.959-.143l151.876-151.877 61.586 46.824c1.788 1.36 3.92 2.04 6.052 2.04s4.264-.68 6.053-2.04l61.585-46.824 151.877 151.876c-.643.085-1.294.144-1.959.144zm15.006-15.381-148.856-148.856 148.855-113.176v262.032z"/><path d="m361.266 197.4h-210.531c-5.523 0-10 4.477-10 10s4.477 10 10 10h210.531c5.522 0 10-4.477 10-10s-4.478-10-10-10z"/><path d="m150.735 177.4h35.786c5.523 0 10-4.477 10-10s-4.477-10-10-10h-35.786c-5.523 0-10 4.477-10 10s4.477 10 10 10z"/><path d="m361.266 237.4h-210.531c-5.523 0-10 4.477-10 10s4.477 10 10 10h210.531c5.522 0 10-4.477 10-10s-4.478-10-10-10z"/><path d="m204.62 61.757c-7.53 7.531-7.53 19.783 0 27.314l7.966 7.966-7.966 7.966c-7.53 7.531-7.53 19.784 0 27.315l16.1 16.1c3.766 3.765 8.71 5.648 13.657 5.647 4.945 0 9.892-1.883 13.658-5.647l7.966-7.966 7.967 7.966c7.529 7.531 19.783 7.529 27.314 0l16.099-16.099c3.647-3.648 5.657-8.499 5.657-13.658s-2.01-10.009-5.657-13.657l-7.966-7.966 7.966-7.966c3.647-3.648 5.657-8.499 5.657-13.658s-2.01-10.01-5.657-13.657l-16.1-16.099c-3.648-3.649-8.499-5.658-13.658-5.658-5.158 0-10.009 2.009-13.657 5.657l-7.966 7.966-7.966-7.966c-7.531-7.53-19.783-7.529-27.314 0zm44.309 13.079c3.906 3.906 10.237 3.905 14.143 0l14.552-14.552 15.13 15.13-14.554 14.552c-3.905 3.905-3.905 10.237 0 14.143l14.553 14.552-15.13 15.13-14.552-14.553c-1.953-1.953-4.512-2.929-7.071-2.929s-5.119.976-7.071 2.929l-14.552 14.552-15.13-15.13 14.552-14.552c3.905-3.905 3.905-10.237 0-14.143l-14.552-14.552 15.129-15.13z"/><circle cx="256.005" cy="10.002" r="10"/></g></g></svg>