<svg id="Capa_1" enable-background="new 0 0 512.041 512.041" height="512" viewBox="0 0 512.041 512.041" width="512" xmlns="http://www.w3.org/2000/svg"><g><g id="XMLID_2015_"><g id="XMLID_2216_"><g id="XMLID_2218_"><path id="XMLID_2261_" d="m155.907 241.246v234.795c0 14.359-11.641 26-26 26-14.359 0-26-11.641-26-26v-144.415 144.416c0 14.359-11.641 26-26 26-14.359 0-26-11.641-26-26v-234.796z" fill="#6d92ac"/><path id="XMLID_2262_" d="m155.902 241.246v33.416c0 11.567 9.377 20.943 20.943 20.943 11.567 0 20.943-9.376 20.943-20.943v-105.724c0-36.938-29.944-66.882-66.882-66.882h-26.943-.117-26.943c-36.938 0-66.882 29.944-66.882 66.882v105.724c0 11.567 9.377 20.943 20.943 20.943 11.567 0 20.943-9.376 20.943-20.943v-33.416z" fill="#33d6f5"/><path id="XMLID_2259_" d="m103.907 10.041c23.048 0 41.733 18.684 41.733 41.733v8.564c0 23.048-18.684 41.733-41.733 41.733-23.048 0-41.733-18.684-41.733-41.733v-8.564c0-23.049 18.684-41.733 41.733-41.733z" fill="#ffd0c7"/></g></g></g><g><g id="XMLID_997_"><path d="m298.299 223.807c-5.118 0-10.236-1.953-14.142-5.858l-25.5-25.499c-3.515-3.515-3.515-9.213 0-12.728l15.556-15.557c3.515-3.515 9.213-3.515 12.728 0l11.358 11.358 29.18-29.18c3.515-3.515 9.213-3.515 12.728 0l15.556 15.556c3.515 3.515 3.515 9.213 0 12.728l-43.321 43.322c-3.906 3.906-9.025 5.858-14.143 5.858z" fill="#89df8f"/></g></g><g><g id="XMLID_999_"><path d="m298.299 357.524c-5.118 0-10.236-1.953-14.142-5.858l-25.5-25.499c-3.515-3.515-3.515-9.213 0-12.728l15.556-15.557c3.515-3.515 9.213-3.515 12.728 0l11.358 11.358 29.18-29.18c3.515-3.515 9.213-3.515 12.728 0l15.556 15.556c3.515 3.515 3.515 9.213 0 12.728l-43.321 43.322c-3.906 3.905-9.025 5.858-14.143 5.858z" fill="#89df8f"/></g></g><g><path d="m352.276 471.121-14.53-14.53 14.53-14.53c3.515-3.515 3.515-9.213 0-12.728l-15.557-15.557c-3.515-3.515-9.213-3.515-12.728 0l-14.53 14.53-14.53-14.53c-3.515-3.515-9.213-3.515-12.728 0l-15.556 15.556c-3.515 3.515-3.515 9.213 0 12.728l14.53 14.53-14.53 14.53c-3.515 3.515-3.515 9.213 0 12.728l15.557 15.557c3.515 3.515 9.213 3.515 12.728 0l14.53-14.53 14.53 14.53c3.515 3.515 9.213 3.515 12.728 0l15.556-15.556c3.515-3.515 3.515-9.214 0-12.728z" fill="#ff7d97"/></g><g><g id="XMLID_995_"><path d="m298.299 90.091c-5.118 0-10.236-1.953-14.142-5.858l-25.5-25.499c-3.515-3.515-3.515-9.213 0-12.728l15.556-15.557c3.515-3.515 9.213-3.515 12.728 0l11.358 11.358 29.18-29.18c3.515-3.515 9.213-3.515 12.728 0l15.556 15.556c3.515 3.515 3.515 9.213 0 12.728l-43.321 43.322c-3.906 3.905-9.025 5.858-14.143 5.858z" fill="#89df8f"/></g></g><g><path d="m197.788 203.938c-5.523 0-10 4.477-10 10v60.724c0 6.034-4.909 10.943-10.943 10.943-5.998 0-10.88-4.852-10.938-10.837l-.005-79.947c0-5.523-4.477-10-10-10s-10 4.477-10 10v36.426h-83.995v-36.427c0-5.523-4.477-10-10-10s-10 4.477-10 10v79.841c0 6.034-4.909 10.943-10.943 10.943s-10.943-4.909-10.943-10.943v-105.723c0-31.365 25.517-56.882 56.882-56.882h17.004v19.761c0 5.523 4.477 10 10 10s10-4.477 10-10v-19.761h16.999c17.104 0 33.144 7.595 44.006 20.837 1.977 2.41 4.846 3.658 7.737 3.658 2.231 0 4.477-.743 6.336-2.269 4.27-3.502 4.892-9.804 1.389-14.074-11.891-14.496-28.377-23.981-46.501-27.06 7.348-8.935 11.766-20.365 11.766-32.81v-8.564c0-28.525-23.208-51.733-51.733-51.733s-51.732 23.208-51.732 51.733v8.564c0 12.453 4.424 23.891 11.782 32.829-36.247 6.176-63.935 37.791-63.935 75.77v105.724c0 17.062 13.881 30.943 30.943 30.943 3.852 0 7.539-.713 10.943-2.005v172.442c0 19.851 16.149 36 36 36 10.214 0 19.442-4.283 26-11.139 6.558 6.856 15.786 11.139 26 11.139 19.851 0 36-16.149 36-36v-172.439c3.403 1.291 7.088 2.003 10.938 2.003 17.062 0 30.943-13.881 30.943-30.943v-60.724c0-5.523-4.477-10-10-10zm-125.614-152.164c0-17.498 14.235-31.733 31.733-31.733s31.733 14.235 31.733 31.733v8.564c0 17.285-14.528 31.376-31.733 31.717-17.205-.341-31.733-14.432-31.733-31.717zm57.733 440.267c-8.822 0-16-7.178-16-16v-180.437c0-5.523-4.477-10-10-10s-10 4.477-10 10v180.437c0 8.822-7.178 16-16 16s-16-7.178-16-16v-224.795h83.995l.005 224.795c0 8.822-7.178 16-16 16z"/><path d="m277.086 225.021c5.667 5.666 13.2 8.787 21.213 8.787 8.014 0 15.547-3.121 21.214-8.787l43.322-43.322c7.407-7.409 7.407-19.462 0-26.87l-15.556-15.556c-3.589-3.588-8.36-5.565-13.436-5.565s-9.847 1.977-13.435 5.565l-22.109 22.108-4.287-4.287c-7.409-7.407-19.462-7.407-26.87 0l-15.557 15.557c-7.408 7.408-7.408 19.462.001 26.871zm3.491-53.077 10.651 10.65c3.905 3.905 10.236 3.905 14.142 0l28.473-28.472 14.142 14.142-42.614 42.614c-1.889 1.889-4.4 2.929-7.071 2.929s-5.182-1.04-7.071-2.929l-24.793-24.792z"/><path d="m347.277 272.988c-7.409-7.407-19.462-7.407-26.87 0l-22.108 22.109-4.287-4.288c-7.409-7.407-19.461-7.407-26.87 0l-15.557 15.557c-7.408 7.408-7.408 19.462.001 26.871l25.5 25.5c5.667 5.666 13.2 8.787 21.213 8.787 8.014 0 15.547-3.121 21.214-8.787l43.321-43.321c7.408-7.408 7.408-19.462 0-26.871zm-41.907 71.607c-1.889 1.889-4.4 2.929-7.071 2.929s-5.182-1.04-7.071-2.929l-24.793-24.792 14.143-14.142 10.65 10.651c3.905 3.905 10.237 3.905 14.143 0l28.473-28.473 14.142 14.142z"/><path d="m359.348 422.262-15.557-15.557c-7.408-7.407-19.462-7.409-26.87 0l-7.459 7.459-7.458-7.459c-7.408-7.407-19.462-7.407-26.871 0l-15.556 15.556c-3.589 3.589-5.565 8.36-5.565 13.436s1.977 9.847 5.565 13.435l7.459 7.458-7.459 7.459c-7.408 7.408-7.408 19.462 0 26.871l15.557 15.557c7.409 7.408 19.463 7.408 26.871 0l7.458-7.459 7.458 7.458c3.589 3.589 8.36 5.565 13.436 5.565s9.847-1.977 13.436-5.565l15.556-15.556c7.408-7.408 7.408-19.462 0-26.871l-7.459-7.458 7.459-7.459c7.406-7.408 7.406-19.462-.001-26.87zm-28.673 41.4 13.823 13.823-14.142 14.142-13.823-13.823c-3.905-3.905-10.237-3.905-14.142 0l-13.823 13.823-14.142-14.142 13.823-13.823c3.905-3.905 3.905-10.237 0-14.143l-13.823-13.822 14.142-14.142 13.822 13.823c3.906 3.905 10.238 3.905 14.142 0l13.823-13.823 14.142 14.142-13.823 13.823c-3.903 3.905-3.903 10.237.001 14.142z"/><path d="m404.897 60.041h97.124c5.523 0 10-4.477 10-10s-4.477-10-10-10h-97.124c-5.523 0-10 4.477-10 10s4.477 10 10 10z"/><path d="m502.021 175.558h-97.124c-5.523 0-10 4.477-10 10s4.477 10 10 10h97.124c5.523 0 10-4.477 10-10s-4.478-10-10-10z"/><path d="m502.021 311.074h-97.124c-5.523 0-10 4.477-10 10s4.477 10 10 10h97.124c5.523 0 10-4.477 10-10s-4.478-10-10-10z"/><path d="m502.021 446.591h-97.124c-5.523 0-10 4.477-10 10s4.477 10 10 10h97.124c5.523 0 10-4.477 10-10s-4.478-10-10-10z"/><path d="m347.277 5.555c-7.409-7.407-19.462-7.407-26.87 0l-22.108 22.109-4.287-4.287c-7.409-7.407-19.462-7.407-26.87 0l-15.557 15.557c-7.408 7.408-7.408 19.462.001 26.871l25.5 25.499c5.667 5.666 13.2 8.787 21.213 8.787 8.014 0 15.547-3.121 21.214-8.787l43.321-43.321c7.408-7.408 7.408-19.462 0-26.87zm-41.907 71.607c-1.889 1.889-4.4 2.929-7.071 2.929s-5.182-1.04-7.071-2.929l-24.793-24.792 14.143-14.142 10.651 10.65c3.905 3.905 10.237 3.904 14.142 0l28.472-28.473 14.142 14.142z"/><circle cx="197.788" cy="168.938" r="10"/></g></g></svg>