<svg id="Capa_1" enable-background="new 0 0 512 512" height="512" viewBox="0 0 512 512" width="512" xmlns="http://www.w3.org/2000/svg"><g><g><path d="m437.086 327.998h-427.086v29.356c0 13.622 11.043 24.664 24.664 24.664h377.757c13.622 0 24.664-11.043 24.664-24.664v-29.356z" fill="#00ccf2"/><path id="XMLID_1040_" d="m35 116.981v211.017h377.086v-211.017c0-22.091-17.909-40-40-40h-297.086c-22.091 0-40 17.909-40 40z" fill="#66e0f7"/></g><path d="m308.383 149.052h107.197c38.398 0 69.526-31.128 69.526-69.526 0-38.398-31.128-69.526-69.526-69.526h-107.197c-38.398 0-69.526 31.128-69.526 69.526.001 38.398 31.128 69.526 69.526 69.526z" fill="#fff"/><path d="m415.581 10h-107.198c-38.398 0-69.526 31.128-69.526 69.526 0 38.398 31.128 69.526 69.526 69.526h.038c.52 12.575-2.906 24.191-8.03 34.966 21.272 0 43.913-14.888 48.88-34.966h66.309c38.398 0 69.526-31.128 69.526-69.526 0-38.398-31.127-69.526-69.525-69.526z" fill="#89df8f"/><g><path d="m353.044 387.109-62.302 19.212c-20.578 6.346-34.615 25.364-34.615 46.898v48.781h245.873v-48.719c0-21.564-14.075-40.601-34.692-46.922l-62.79-19.25z" fill="#fdbf5a"/></g><path d="m379.064 392.361c-33.531 0-60.713-27.182-60.713-60.713v-29.296c0-33.531 27.182-60.713 60.713-60.713 33.531 0 60.713 27.182 60.713 60.713v29.296c0 33.531-27.183 60.713-60.713 60.713z" fill="#6d92ac"/><g><path d="m150.512 243.597-45.768 14.113c-15.117 4.662-25.429 18.633-25.429 34.452v35.835h180.622v-35.79c0-15.841-10.34-29.826-25.485-34.469l-46.126-14.142h-37.814z" fill="#fff"/><g><g id="XMLID_1047_"><path id="XMLID_1048_" d="m209.089 172.887v35.094c0 21.795-17.668 39.464-39.464 39.464-21.795 0-39.464-17.668-39.464-39.464v-35.094z" fill="#ffd0c7"/></g><g><path d="m193.344 168.388c-12.434 10.564-35.96 17.884-63.182 18.544v21.049l-6.53-25.001c-6.864-26.614 10.226-53.481 37.24-58.546 5.785-1.085 11.721-1.085 17.506 0 27.014 5.065 44.104 31.932 37.24 58.546l-6.53 25.001v-14.552c-3.12-9.613-8.643-18.18-15.744-25.041z" fill="#ffcd69"/></g></g></g><g><path d="m304.82 111.525h114.323c5.523 0 10-4.478 10-10s-4.477-10-10-10h-114.323c-5.523 0-10 4.478-10 10s4.477 10 10 10z"/><path d="m304.82 67.525h114.323c5.523 0 10-4.478 10-10s-4.477-10-10-10h-114.323c-5.523 0-10 4.478-10 10s4.477 10 10 10z"/><path d="m470.239 396.799-43.214-13.249c13.979-12.927 22.752-31.406 22.752-51.902v-29.296c0-22.813-10.87-43.126-27.691-56.064v-87.524c40.817-3.323 73.021-37.58 73.021-79.238-.001-43.851-35.676-79.526-79.526-79.526h-107.198c-39.582 0-72.493 29.071-78.527 66.981h-154.856c-27.57 0-50 22.43-50 50v201.017h-15c-5.523 0-10 4.478-10 10v29.355c0 19.114 15.55 34.664 34.665 34.664h90.281c5.523 0 10-4.478 10-10s-4.477-10-10-10h-90.281c-8.086 0-14.665-6.578-14.665-14.664v-19.355h288.65c1.125 12.571 5.551 24.199 12.406 34.02h-106.11c-5.523 0-10 4.478-10 10s4.477 10 10 10h88.247l-15.396 4.748c-24.923 7.685-41.669 30.371-41.669 56.453v48.781c0 5.522 4.477 10 10 10h245.872c5.523 0 10-4.478 10-10v-48.719c0-26.126-16.782-48.825-41.761-56.482zm-40.462-94.447v29.296c0 27.964-22.75 50.714-50.713 50.714s-50.713-22.75-50.713-50.714v-29.296c0-27.963 22.75-50.713 50.713-50.713s50.713 22.75 50.713 50.713zm-121.394-282.352h107.197c32.823 0 59.526 26.703 59.526 59.525 0 32.823-26.703 59.526-59.526 59.526h-66.309c-4.598 0-8.604 3.136-9.708 7.599-2.569 10.387-12.134 19.645-23.667 24.263 1.991-7.556 2.819-14.936 2.516-22.274-.221-5.357-4.667-9.587-10.03-9.587-32.822 0-59.525-26.703-59.525-59.526.001-32.823 26.704-59.526 59.526-59.526zm-58.446 297.998h-22.501v-21.045c0-5.522-4.477-10-10-10s-10 4.478-10 10v21.045h-75.5v-21.045c0-5.522-4.477-10-10-10s-10 4.478-10 10v21.045h-22.621v-25.836c0-11.502 7.385-21.507 18.375-24.896l43.478-13.407c2.711 1.095 5.535 1.967 8.457 2.569v14.267c0 5.522 4.477 10 10 10s10-4.478 10-10v-14.267c2.86-.589 5.624-1.438 8.281-2.5l43.613 13.371c11.015 3.378 18.416 13.388 18.416 24.909v25.79zm-63.068-157.23c-10.646 9.045-31.284 15.125-54.308 16.081-1.416-8.994.461-18.053 5.424-25.854 5.633-8.854 14.415-14.797 24.73-16.73 2.292-.431 4.601-.646 6.91-.646s4.618.215 6.911.646c10.315 1.934 19.097 7.876 24.73 16.73 3.47 5.455 5.432 11.525 5.815 17.751-2.075-2.661-4.344-5.186-6.79-7.549-3.698-3.573-9.503-3.759-13.422-.429zm12.22 34.321v12.892c0 16.246-13.217 29.464-29.463 29.464-16.247 0-29.464-13.218-29.464-29.464v-11.564c20.307-1.657 38.587-6.885 51.651-14.719 3.102 4.105 5.565 8.629 7.276 13.391zm109.261 107.263v15.646h-38.414v-25.79c0-20.366-13.082-38.061-32.554-44.03l-29.397-9.013c6.656-8.172 10.747-18.501 11.068-29.761l6.249-23.926c3.96-15.355 1.35-31.837-7.161-45.217-8.511-13.382-22.333-22.732-37.919-25.655-7.031-1.317-14.162-1.319-21.192 0-15.587 2.923-29.408 12.273-37.92 25.655-8.511 13.38-11.121 29.861-7.153 45.247l6.241 23.896c.32 11.225 4.388 21.523 11.006 29.682l-29.408 9.068c-19.428 5.991-32.481 23.677-32.481 44.008v25.836h-24.315v-201.017c0-16.542 13.458-30 30-30h154.205c3.45 36.929 32.26 66.605 68.817 71.395-.889 6.793-3.094 13.846-6.661 21.347-1.474 3.099-1.256 6.735.577 9.636s5.023 4.659 8.454 4.659c24.012 0 47.062-14.846 55.976-34.966h45.718v76.456c-7.222-2.495-14.963-3.869-23.022-3.869-38.992 0-70.714 31.721-70.714 70.713zm183.65 189.648h-225.873v-38.781c0-17.252 11.076-32.259 27.562-37.342l59.629-18.389c7.984 3.133 16.663 4.873 25.745 4.873 8.991 0 17.587-1.705 25.505-4.778l59.808 18.337c16.523 5.065 27.624 20.08 27.624 37.361z"/><circle cx="169.945" cy="382.021" r="10"/></g></g></svg>