<svg id="Capa_1" enable-background="new 0 0 512 512" height="512" viewBox="0 0 512 512" width="512" xmlns="http://www.w3.org/2000/svg"><g><path id="XMLID_1086_" d="m425.491 138.289 70.509 57.646v281.323c0 13.665-11.077 24.742-24.742 24.742h-430.516c-13.665 0-24.742-11.077-24.742-24.742v-281.323l70.515-57.646z" fill="#ffcd69"/><path id="XMLID_1382_" d="m56 225.268v-195.268c0-11.046 8.954-20 20-20h360c11.046 0 20 8.954 20 20v195.268l-200 150.909z" fill="#fff"/><g><g id="XMLID_1082_"><g id="XMLID_1083_"><path id="XMLID_1084_" d="m393.61 50h-79.61c-12.15 0-22 9.85-22 22 0 12.15 9.85 22 22 22h79.61c12.15 0 22-9.85 22-22 0-12.15-9.85-22-22-22z" fill="#ffcd69"/></g></g><g id="XMLID_227_"><circle id="XMLID_1056_" cx="174" cy="128" fill="#00ccf2" r="77.61"/><path id="XMLID_1054_" d="m174 205.61c19.732 0 37.74-7.368 51.434-19.497-6.154-22.642-26.843-39.298-51.434-39.298s-45.281 16.656-51.434 39.298c13.694 12.129 31.702 19.497 51.434 19.497z" fill="#fff"/><path id="XMLID_1044_" d="m198.34 116.389v6.085c0 13.443-10.897 24.34-24.34 24.34-13.443 0-24.34-10.897-24.34-24.34v-6.085c0-13.443 10.897-24.34 24.34-24.34 13.443 0 24.34 10.898 24.34 24.34z" fill="#ffc7af"/></g></g><g><path d="m502.329 188.192-36.329-29.7v-128.492c0-16.542-13.458-30-30-30h-135c-5.522 0-10 4.478-10 10s4.478 10 10 10h135c5.514 0 10 4.486 10 10v193.123l-190 144.459-190-144.458v-193.124c0-5.514 4.486-10 10-10h135c5.523 0 10-4.478 10-10s-4.477-10-10-10h-135c-16.542 0-30 13.458-30 30v128.494l-36.329 29.698c-2.323 1.9-3.671 4.742-3.671 7.743v281.323c0 19.157 15.585 34.742 34.742 34.742h430.516c19.157 0 34.742-15.585 34.742-34.742v-281.323c0-3.001-1.348-5.843-3.671-7.743zm-36.329-3.867 14.952 12.224-14.952 11.368zm-420 .001v23.591l-14.952-11.368zm-20 33.51 147.017 111.778-147.017 147.017zm445.258 274.164h-430.516c-.582 0-1.153-.043-1.717-.109l150.06-150.06 60.863 46.274c1.788 1.359 3.92 2.039 6.052 2.039s4.264-.68 6.053-2.039l60.863-46.274 150.06 150.06c-.565.066-1.136.109-1.718.109zm14.742-15.369-147.016-147.017 147.016-111.778z"/><path d="m393.609 40h-79.609c-17.645 0-32 14.355-32 32s14.355 32 32 32h79.609c17.645 0 32-14.355 32-32s-14.355-32-32-32zm0 44h-79.609c-6.617 0-12-5.383-12-12s5.383-12 12-12h79.609c6.617 0 12 5.383 12 12s-5.382 12-12 12z"/><path d="m418.788 182c0-5.522-4.478-10-10-10h-75.225c-5.522 0-10 4.478-10 10s4.478 10 10 10h75.225c5.523 0 10-4.478 10-10z"/><path d="m408.788 128h-75.225c-5.522 0-10 4.478-10 10s4.478 10 10 10h75.225c5.522 0 10-4.478 10-10s-4.477-10-10-10z"/><path d="m86.39 128c0 48.308 39.302 87.609 87.61 87.609s87.61-39.302 87.61-87.609-39.302-87.609-87.61-87.609-87.61 39.301-87.61 87.609zm87.61 67.609c-14.807 0-28.509-4.797-39.658-12.902 6.826-15.489 22.397-25.893 39.658-25.893 17.29 0 32.835 10.396 39.657 25.893-11.149 8.105-24.85 12.902-39.657 12.902zm-14.34-73.134v-6.085c0-7.907 6.433-14.341 14.34-14.341s14.34 6.434 14.34 14.341v6.085c0 7.907-6.433 14.34-14.34 14.34s-14.34-6.433-14.34-14.34zm81.95 5.525c0 14.932-4.875 28.742-13.104 39.942-6.406-10.797-15.886-19.427-27.075-24.833 4.335-5.749 6.91-12.896 6.91-20.634v-6.085c0-18.936-15.405-34.341-34.34-34.341s-34.34 15.405-34.34 34.341v6.085c0 7.744 2.579 14.895 6.919 20.646-11.185 5.409-20.674 14.034-27.083 24.824-8.23-11.2-13.106-25.011-13.106-39.944 0-37.28 30.33-67.609 67.61-67.609s67.609 30.328 67.609 67.608z"/><path d="m202.933 275.609c-5.523 0-10 4.478-10 10s4.477 10 10 10h106.135c5.522 0 10-4.478 10-10s-4.478-10-10-10z"/><path d="m373.127 245.609c0-5.522-4.478-10-10-10h-214.254c-5.523 0-10 4.478-10 10s4.477 10 10 10h214.254c5.522 0 10-4.477 10-10z"/><circle cx="256" cy="10" r="10"/><circle cx="292" cy="138.002" r="10"/><circle cx="292" cy="182.001" r="10"/></g></g></svg>