<svg id="Capa_1" enable-background="new 0 0 512 512" height="512" viewBox="0 0 512 512" width="512" xmlns="http://www.w3.org/2000/svg"><g><path id="XMLID_1221_" d="m211.507 154.44 44.493 62.913 44.493-62.913h-16.493v-117.441h-56v117.441z" fill="#ff7d97"/><g><g><g><g id="XMLID_47_"><path id="XMLID_1219_" d="m461.691 336.732v18.4c0 23.212-18.818 42.03-42.031 42.03-23.213 0-42.031-18.817-42.031-42.03v-18.4l23.548-18.928z" fill="#ffc7af"/></g></g><path d="m402.645 393.065-41.556 12.815c-13.726 4.232-23.089 16.917-23.089 31.281v37.838h164v-37.797c0-14.383-9.388-27.081-23.14-31.297l-41.881-12.84z" fill="#66e0f7"/></g><path d="m377.629 349.854c-.199-15.54 11.502-28.561 23.548-32.05 11.151 14.431 28.621 23.727 48.27 23.727 4.163 0 8.229-.419 12.156-1.216v4.241l3.65-9.479c2.095-5.442 3.17-11.223 3.17-17.054 0-26.212-22.694-47.461-48.906-47.461s-48.906 21.249-48.906 47.461c0 5.831 1.075 11.612 3.17 17.054l3.849 9.479v5.298z" fill="#6d92ac"/></g><g><path d="m238.645 393.065-41.556 12.815c-13.726 4.232-23.089 16.917-23.089 31.281v37.838h164v-37.797c0-14.383-9.388-27.081-23.14-31.297l-41.881-12.84z" fill="#fff"/><g><path d="m281.009 312.963c-13.243 11.251-38.3 19.047-67.38 19.751v22.418l-6.867-26.628c-7.31-28.346 10.891-56.96 39.663-62.355 6.161-1.155 12.484-1.155 18.645 0 28.772 5.395 46.973 34.009 39.663 62.355l-6.867 26.628-.174-15.499c-3.325-10.238-9.12-19.363-16.683-26.67z" fill="#c68a65"/><g><g><g><g id="XMLID_15_"><path id="XMLID_16_" d="m297.691 322.703v32.528c0 23.164-18.779 41.943-41.944 41.943-23.165 0-41.944-18.778-41.944-41.943v-32.528z" fill="#ffd0c7"/></g></g></g></g></g></g><g><g><path d="m109.355 393.065 41.556 12.815c13.726 4.232 23.089 16.917 23.089 31.281v37.838h-164v-37.797c0-14.383 9.388-27.081 23.14-31.297l41.881-12.84z" fill="#66e0f7"/><g><g><g><g><g id="XMLID_37_"><path id="XMLID_38_" d="m50.309 322.703v32.528c0 23.164 18.779 41.943 41.944 41.943 23.165 0 41.944-18.778 41.944-41.943v-32.528z" fill="#ffc7af"/></g></g></g></g></g></g><path d="m146.318 270.562c-12.545 6.74-28.915 7.97-42.655 4.263-9.916-2.675-20.093-4.263-30.364-4.263-16.973 0-31.322 13.597-31.645 30.493-.333 17.435 14.27 31.706 31.708 31.706h39.629c18.406 0 33.326-14.921 33.326-33.326z" fill="#ffcd69"/></g><g><path d="m247.835 223.127c1.875 2.65 4.918 4.226 8.165 4.226s6.29-1.576 8.165-4.226l44.493-62.913c2.158-3.051 2.434-7.051.716-10.371s-5.144-5.403-8.881-5.403h-6.493v-107.441c0-5.523-4.477-10-10-10h-56c-5.523 0-10 4.477-10 10v107.441h-6.493c-3.737 0-7.163 2.084-8.881 5.403s-1.442 7.319.716 10.371zm-9.835-68.687v-107.441h36v107.441c0 4.628 3.144 8.521 7.412 9.662l-25.412 35.932-25.412-35.933c4.268-1.14 7.412-5.033 7.412-9.661z"/><path d="m481.792 396.344-22.949-7.036c7.991-9.15 12.848-21.102 12.848-34.176v-8.945l2.895-7.517c2.547-6.614 3.838-13.561 3.838-20.647 0-15.341-6.286-29.822-17.7-40.775-11.213-10.76-25.847-16.686-41.207-16.686s-29.994 5.926-41.207 16.686c-11.414 10.953-17.7 25.434-17.7 40.775 0 7.086 1.291 14.033 3.838 20.647.021.056.044.113.067.169l3.114 7.669v8.624c0 13.121 4.892 25.114 12.935 34.276l-22.422 6.915c-8.104 2.499-15.007 7.196-20.157 13.318-5.161-6.119-12.076-10.808-20.193-13.297l-22.95-7.036c7.548-8.642 12.291-19.787 12.794-32.013l6.78-26.293c4.173-16.181 1.422-33.548-7.546-47.648-8.969-14.1-23.532-23.953-39.957-27.032-7.408-1.39-14.922-1.39-22.331 0-16.425 3.08-30.988 12.932-39.957 27.032s-11.719 31.467-7.546 47.648l6.586 25.537c.336 12.57 5.146 24.037 12.9 32.87l-22.422 6.915c-8.096 2.497-14.993 7.186-20.142 13.299-5.149-6.113-12.046-10.803-20.142-13.3l-22.515-6.943c7.993-9.138 12.853-21.083 12.853-34.149v-25.785c7.498-7.793 12.122-18.369 12.122-30.011v-28.873c0-3.518-1.849-6.777-4.868-8.583s-6.765-1.892-9.865-.227c-9.895 5.316-23.428 6.625-35.317 3.417-11.333-3.058-22.426-4.608-32.969-4.608-22.537 0-41.218 18.08-41.643 40.302-.18 9.387 2.872 18.366 8.652 25.741v28.626c0 13.038 4.84 24.96 12.803 34.091l-22.903 7.022c-18.069 5.541-30.209 21.96-30.209 40.859v37.797c0 5.523 4.477 10 10 10h201c5.523 0 10-4.477 10-10s-4.477-10-10-10h-27v-27.838c0-10.037 6.444-18.768 16.036-21.726l37.459-11.551c2.628.982 5.357 1.755 8.165 2.304v11.48c0 5.523 4.477 10 10 10s10-4.477 10-10v-11.48c2.86-.559 5.636-1.352 8.309-2.361l37.961 11.638c9.612 2.947 16.071 11.682 16.071 21.736v27.797h-27c-5.523 0-10 4.477-10 10s4.477 10 10 10h201c5.523 0 10-4.477 10-10v-37.797c-.001-18.898-12.141-35.317-30.209-40.857zm-430.139-95.098c.218-11.405 9.929-20.684 21.646-20.684 8.785 0 18.125 1.318 27.759 3.917 11.552 3.117 23.954 3.205 35.26.463v14.492c0 12.862-10.464 23.326-23.326 23.326h-39.63c-5.837 0-11.552-2.412-15.678-6.618-3.995-4.071-6.137-9.361-6.031-14.896zm72.543 40.038v13.947c0 17.613-14.33 31.943-31.944 31.943s-31.944-14.33-31.944-31.943v-14.596c4.194 1.385 8.602 2.126 13.054 2.126h39.63c3.874 0 7.628-.519 11.204-1.477zm39.804 123.715h-144v-27.797c0-10.054 6.458-18.789 16.071-21.736l37.903-11.621c2.585.975 5.265 1.754 8.026 2.309v11.515c0 5.523 4.477 10 10 10s10-4.477 10-10v-11.425c2.914-.556 5.743-1.351 8.464-2.373l37.5 11.564c9.591 2.958 16.036 11.689 16.036 21.726zm123.69-109.866c0 17.661-14.369 32.03-32.031 32.03s-32.031-14.369-32.031-32.03v-12.918c22.07-1.72 41.905-7.39 55.897-15.927 3.483 4.547 6.249 9.619 8.164 14.998v13.847zm-13.156-49.791c-11.52 9.788-33.903 16.344-58.812 17.301-1.705-9.923.301-19.946 5.777-28.556 6.097-9.584 15.603-16.016 26.768-18.109 2.482-.465 4.98-.698 7.479-.698s4.999.232 7.48.698c11.165 2.093 20.671 8.524 26.768 18.109 4.145 6.516 6.301 13.84 6.366 21.318-2.518-3.436-5.329-6.664-8.404-9.635-3.697-3.572-9.503-3.757-13.422-.428zm144.983-24.78c21.089 0 38.906 17.155 38.906 37.461 0 4.484-.793 8.883-2.358 13.08-2.188.284-4.402.427-6.618.427-15.904 0-30.614-7.232-40.357-19.842-1.925-2.491-4.868-3.886-7.914-3.886-.926 0-1.862.129-2.781.395-6.177 1.789-12.487 5.54-17.772 10.802-.008-.325-.013-.65-.013-.976 0-20.305 17.817-37.461 38.907-37.461zm32.173 70.931v3.64c0 17.661-14.369 32.03-32.031 32.03s-32.031-14.369-32.031-32.03v-5.985c.126-8.113 5.071-15.243 10.898-19.145 13.318 13.771 31.476 21.528 50.919 21.528.75 0 1.498-.014 2.245-.038zm40.31 113.506h-144v-27.797-.041c0-10.037 6.444-18.768 16.036-21.726l37.458-11.551c2.628.982 5.357 1.755 8.166 2.304v11.48c0 5.523 4.477 10 10 10s10-4.477 10-10v-11.48c2.86-.559 5.636-1.352 8.309-2.361l37.96 11.638c9.612 2.947 16.071 11.682 16.071 21.736z"/><path d="m300.017 239.771c1.953 1.953 4.512 2.929 7.071 2.929s5.119-.976 7.071-2.929l18.489-18.489c3.905-3.905 3.905-10.237 0-14.143-3.905-3.905-10.237-3.905-14.143 0l-18.489 18.489c-3.904 3.905-3.904 10.237.001 14.143z"/><path d="m197.84 239.771c1.953 1.953 4.512 2.929 7.071 2.929s5.119-.976 7.071-2.929c3.905-3.905 3.905-10.237 0-14.143l-18.489-18.489c-3.905-3.905-10.237-3.905-14.143 0-3.905 3.905-3.905 10.237 0 14.143z"/><circle cx="256" cy="475.001" r="10"/></g></g></svg>