<svg id="Capa_1" enable-background="new 0 0 512.014 512.014" height="512" viewBox="0 0 512.014 512.014" width="512" xmlns="http://www.w3.org/2000/svg"><g><circle cx="289.009" cy="256.007" fill="#00ccf2" r="205.658"/><g fill="#89df8f"><path d="m277.23 50.692c-40.77 2.303-78.359 16.481-109.374 39.131-.001.115-.009.229-.009.345 0 21.802 17.674 39.476 39.476 39.476h49.84c-16.329 4.839-28.245 19.947-28.245 37.846 0 21.802 17.674 39.476 39.476 39.476h102.028c21.802 0 39.476-17.674 39.476-39.476 0-21.802-17.674-39.476-39.476-39.476h-49.84c16.329-4.839 28.245-19.947 28.245-37.846 0-16.931-10.662-31.368-25.636-36.976-7.344-1.229-14.818-2.072-22.403-2.5z"/><path d="m217.082 263.974h-35.457c-2.942-19.899-20.088-35.17-40.805-35.17h-55.676c-1.176 8.901-1.794 17.979-1.794 27.202 0 44.859 14.372 86.355 38.748 120.158h57.347c18.782 0 34.622-12.556 39.611-29.729 21.867-1.031 39.281-19.083 39.281-41.206 0-22.784-18.47-41.255-41.255-41.255z"/><path d="m494.667 256.007c0-9.223-.617-18.301-1.793-27.202h-20.075c-20.717 0-37.863 15.271-40.805 35.17h-35.457c-22.784 0-41.255 18.471-41.255 41.255 0 22.123 17.414 40.175 39.281 41.206 4.989 17.173 20.829 29.729 39.611 29.729h21.746c24.376-33.803 38.747-75.299 38.747-120.158z"/></g><g id="XMLID_1091_"><circle id="XMLID_1100_" cx="384.756" cy="90.168" fill="#fff" r="80.168"/><path id="XMLID_1097_" d="m384.756 170.337c20.383 0 38.985-7.611 53.13-20.14-6.356-23.389-27.728-40.594-53.13-40.594s-46.774 17.205-53.13 40.594c14.145 12.529 32.747 20.14 53.13 20.14z" fill="#00ccf2"/><path id="XMLID_1095_" d="m409.899 78.175v6.286c0 13.886-11.257 25.143-25.143 25.143-13.886 0-25.143-11.257-25.143-25.143v-6.286c0-13.886 11.257-25.143 25.143-25.143 13.886 0 25.143 11.257 25.143 25.143z" fill="#ffc7af"/></g><g id="XMLID_1121_"><circle id="XMLID_1127_" cx="97.515" cy="256.007" fill="#fff" r="80.168"/><path id="XMLID_1126_" d="m97.515 336.175c20.383 0 38.985-7.611 53.13-20.14-6.356-23.389-27.728-40.594-53.13-40.594s-46.774 17.205-53.13 40.594c14.145 12.529 32.747 20.14 53.13 20.14z" fill="#ffcd69"/><path id="XMLID_1124_" d="m122.658 244.013v6.286c0 13.886-11.257 25.143-25.143 25.143-13.886 0-25.143-11.257-25.143-25.143v-6.286c0-13.886 11.257-25.143 25.143-25.143 13.886.001 25.143 11.258 25.143 25.143z" fill="#ffc7af"/></g><g id="XMLID_1128_"><circle id="XMLID_1134_" cx="384.756" cy="421.846" fill="#fff" r="80.168"/><path id="XMLID_1133_" d="m384.756 502.014c20.383 0 38.985-7.611 53.13-20.14-6.356-23.389-27.728-40.594-53.13-40.594s-46.774 17.205-53.13 40.594c14.145 12.529 32.747 20.14 53.13 20.14z" fill="#89df8f"/><path id="XMLID_1131_" d="m409.899 409.852v6.286c0 13.886-11.257 25.143-25.143 25.143-13.886 0-25.143-11.257-25.143-25.143v-6.286c0-13.886 11.257-25.143 25.143-25.143 13.886.001 25.143 11.257 25.143 25.143z" fill="#ffc7af"/></g><g><path d="m504.667 256.007c0-45.135-13.709-88.128-39.691-124.694 6.356-12.343 9.948-26.332 9.948-41.145 0-49.719-40.449-90.168-90.168-90.168-31.712 0-59.649 16.457-75.729 41.276-6.636-.61-13.345-.928-20.019-.928-84.567 0-160.841 49.102-196.002 125.602-47.633 2.357-85.66 41.848-85.66 90.056 0 48.207 38.027 87.698 85.66 90.055 16.315 35.475 41.906 65.822 74.291 88 1.728 1.183 3.694 1.75 5.642 1.75 3.188 0 6.322-1.521 8.26-4.351 3.12-4.557 1.956-10.78-2.601-13.901-13.214-9.049-25.173-19.604-35.69-31.396h36.537c20.35 0 38.748-12.255 46.863-30.507 24.048-4.347 42.028-25.32 42.028-50.428 0-28.262-22.993-51.255-51.255-51.255h-29.424c-.956-43.012-32.18-78.686-73.167-86.527 11.716-23.096 27.65-43.227 46.631-59.607 7.13 18.577 25.146 31.804 46.201 31.804h20.257c-5.495 8.044-8.662 17.7-8.662 27.846 0 27.281 22.195 49.477 49.477 49.477h102.027c25.296 0 46.206-19.086 49.117-43.612 12.928-5.426 24.336-13.779 33.386-24.229 13.966 21.331 23.478 44.882 28.226 69.679h-8.353c-22.244 0-41.826 14.621-48.664 35.17h-27.598c-28.263 0-51.256 22.993-51.256 51.255 0 11.507 3.831 22.404 10.577 31.196-35.59 12.072-61.271 45.803-61.271 85.42 0 10.338 1.754 20.274 4.972 29.53-14.014.737-28.216-.001-41.947-2.215-5.453-.882-10.586 2.825-11.465 8.279-.88 5.453 2.827 10.586 8.279 11.465 11.352 1.831 22.987 2.76 34.582 2.76 6.674 0 13.383-.317 20.02-.926 16.08 24.819 44.017 41.275 75.728 41.275 49.719 0 90.168-40.449 90.168-90.168 0-14.814-3.592-28.803-9.949-41.146 25.985-36.564 39.694-79.543 39.694-124.692zm-448.527 56.623c5.709-13.208 17.456-22.877 31.375-26.054v7.529c0 5.522 4.478 10 10 10s10-4.478 10-10v-7.529c13.92 3.177 25.666 12.846 31.375 26.054-11.61 8.506-25.913 13.545-41.375 13.545-15.463 0-29.765-5.039-41.375-13.545zm26.232-62.331v-6.285c0-8.35 6.793-15.143 15.143-15.143s15.143 6.793 15.143 15.143v6.285c0 8.35-6.793 15.143-15.143 15.143s-15.143-6.794-15.143-15.143zm134.71 23.676c17.234 0 31.255 14.021 31.255 31.255 0 16.718-13.068 30.431-29.751 31.217-4.271.202-7.939 3.095-9.132 7.199-3.853 13.259-16.192 22.519-30.009 22.519h-52.148c-4.708-6.905-8.988-14.112-12.792-21.602 35.793-6.854 64.139-34.932 71.377-70.587h31.2zm-49.398-17.968c0 15.673-5.168 30.162-13.886 41.854-6.65-11.436-16.631-20.529-28.453-26.139 4.58-5.935 7.313-13.364 7.313-21.423v-6.285c0-19.378-15.765-35.143-35.143-35.143s-35.143 15.765-35.143 35.143v6.285c0 8.06 2.734 15.489 7.313 21.424-11.822 5.611-21.802 14.703-28.453 26.139-8.718-11.693-13.886-26.181-13.886-41.854 0-38.691 31.478-70.169 70.168-70.169 38.692-.001 70.17 31.476 70.17 70.168zm202.738-59.04h-102.027c-16.253 0-29.477-13.223-29.477-29.477 0-12.959 8.671-24.579 21.086-28.258 4.764-1.412 7.769-6.106 7.056-11.023s-4.928-8.564-9.896-8.564h-49.84c-14.721 0-26.956-10.848-29.132-24.969 31.927-21.92 70.325-34.327 110.817-34.327 3.512 0 7.034.107 10.548.294-3.217 9.255-4.97 19.189-4.97 29.525 0 49.72 40.449 90.169 90.169 90.169 4.274 0 8.479-.306 12.596-.884-4.597 10.307-14.935 17.514-26.93 17.514zm14.334-36.63c-15.463 0-29.766-5.038-41.375-13.545 5.709-13.209 17.456-22.878 31.375-26.055v7.529c0 5.522 4.478 10 10 10s10-4.478 10-10v-7.529c13.92 3.177 25.667 12.846 31.375 26.055-11.609 8.506-25.912 13.545-41.375 13.545zm-15.143-75.877v-6.285c0-8.35 6.793-15.143 15.143-15.143s15.143 6.793 15.143 15.143v6.285c0 8.35-6.793 15.143-15.143 15.143s-15.143-6.793-15.143-15.143zm71.426 47.562c-6.651-11.436-16.631-20.528-28.453-26.139 4.58-5.935 7.313-13.364 7.313-21.423v-6.285c0-19.378-15.765-35.143-35.143-35.143s-35.143 15.765-35.143 35.143v6.285c0 8.06 2.734 15.489 7.313 21.424-11.823 5.611-21.803 14.704-28.454 26.14-8.718-11.693-13.886-26.182-13.886-41.855 0-38.69 31.478-70.168 70.169-70.168 38.69 0 70.168 31.478 70.168 70.168.001 15.672-5.167 30.16-13.884 41.853zm-44.502 141.953h35.456c4.958 0 9.167-3.633 9.893-8.537 2.245-15.184 15.534-26.633 30.913-26.633h11.121c.491 5.689.747 11.425.747 17.202 0 38.422-10.939 75.107-31.743 106.88-16.546-19.105-40.97-31.21-68.168-31.21-1.572 0-3.134.041-4.687.121-9.172-5.687-14.788-15.683-14.788-26.568 0-17.235 14.022-31.255 31.256-31.255zm-11.781 218.039c-15.463 0-29.765-5.038-41.375-13.544 5.709-13.208 17.456-22.877 31.375-26.055v7.528c0 5.522 4.478 10 10 10s10-4.478 10-10v-7.528c13.919 3.177 25.666 12.846 31.375 26.054-11.61 8.506-25.912 13.545-41.375 13.545zm-15.143-75.876v-6.286c0-8.349 6.793-15.142 15.143-15.142s15.143 6.793 15.143 15.142v6.286c0 8.35-6.793 15.143-15.143 15.143s-15.143-6.794-15.143-15.143zm71.425 47.561c-6.651-11.435-16.631-20.528-28.453-26.138 4.58-5.935 7.313-13.364 7.313-21.423v-6.286c0-19.377-15.765-35.142-35.143-35.142s-35.143 15.765-35.143 35.142v6.286c0 8.059 2.734 15.488 7.313 21.423-11.823 5.611-21.803 14.704-28.453 26.139-8.718-11.693-13.886-26.181-13.886-41.855 0-38.691 31.478-70.169 70.169-70.169 38.69 0 70.168 31.478 70.168 70.169.001 15.674-5.167 30.162-13.885 41.854z"/><circle cx="212.646" cy="447.019" r="10"/></g></g></svg>