<svg id="Capa_1" enable-background="new 0 0 512 512" height="512" viewBox="0 0 512 512" width="512" xmlns="http://www.w3.org/2000/svg"><g><g><circle cx="402" cy="375" fill="#ff7d97" r="100"/><g><path d="m448.52 427.417-33.095-10.146h-27.131l-32.838 10.126c-10.387 3.203-17.594 12.536-18.187 23.288 17.22 15.134 39.8 24.315 64.527 24.315 24.923 0 47.664-9.328 64.934-24.676-.746-10.603-7.93-19.756-18.21-22.907z" fill="#fff"/></g></g><path d="m426.993 374.261c-16.408 0-30.996-7.763-40.307-19.813l-15.761 12.669c-2.463 4.123-3.968 8.941-3.902 14.094v4.408c0 19.383 15.714 35.096 35.097 35.096 19.384 0 35.097-15.713 35.097-35.096v-12.373c-3.28.666-6.747 1.015-10.224 1.015z" fill="#ffc7af"/><path d="m367.022 381.211c-.166-12.977 9.605-23.85 19.663-26.763 9.311 12.051 23.9 19.813 40.307 19.813 3.477 0 6.944-.35 10.224-1.015v3.542l2.975-7.915c1.75-4.544 2.647-9.372 2.647-14.241 0-21.888-18.95-39.632-40.838-39.632s-40.838 17.744-40.838 39.632c0 4.869.897 9.697 2.647 14.241l3.214 7.915v4.423z" fill="#6d92ac"/><g><circle cx="256" cy="137" fill="#00ccf2" r="100"/><path d="m302.52 189.417-33.095-10.146h-27.131l-32.838 10.126c-10.387 3.203-17.593 12.536-18.187 23.288 17.22 15.134 39.8 24.315 64.527 24.315 24.923 0 47.664-9.328 64.934-24.676-.746-10.603-7.93-19.756-18.21-22.907z" fill="#fff"/><path d="m222.311 127.359v21.658l-5.574-21.343c-5.859-22.72 8.73-45.656 31.792-49.98 4.939-.926 10.006-.926 14.945 0 23.062 4.324 37.651 27.26 31.792 49.98l-5.644 21.343v-21.658z" fill="#ffcd69"/><g id="XMLID_1062_"><path id="XMLID_1090_" d="m289.62 127.359v21.658c0 18.606-15.014 33.688-33.62 33.688-18.606 0-33.689-15.083-33.689-33.688v-21.658z" fill="#ffd0c7"/></g></g><g><g><circle cx="110" cy="375" fill="#fdbf5a" r="100"/><g><path d="m156.52 427.417-33.095-10.146h-27.131l-32.838 10.126c-10.387 3.203-17.593 12.536-18.187 23.288 17.221 15.134 39.8 24.315 64.527 24.315 24.923 0 47.664-9.328 64.934-24.676-.746-10.603-7.93-19.756-18.21-22.907z" fill="#fff"/></g></g><g id="XMLID_318_"><path id="XMLID_319_" d="m142.142 367.881v20.684c0 17.751-14.39 32.141-32.142 32.141-17.752 0-32.142-14.39-32.142-32.141v-20.684z" fill="#ffd0c7"/></g><path d="m148.794 328.894c-9.299 4.996-21.434 5.908-31.619 3.16-7.35-1.983-14.895-3.16-22.508-3.16-12.582 0-23.218 10.079-23.458 22.604-.246 12.923 10.579 23.502 23.505 23.502h29.376c13.644 0 24.704-11.06 24.704-24.704z" fill="#c68a65"/></g><g><path d="m402 265c-17.495 0-34.046 4.113-48.747 11.411l-31.47-51.3c26.825-20.079 44.217-52.102 44.217-88.111 0-20.993-5.938-41.408-17.17-59.037-10.927-17.149-26.342-30.926-44.578-39.841-4.962-2.422-10.95-.368-13.376 4.593-2.426 4.962-.37 10.95 4.592 13.376 31.169 15.236 50.532 46.239 50.532 80.909 0 21.914-7.877 42.021-20.943 57.647-4.476-6.929-11.302-12.245-19.606-14.791l-14.677-4.5c5.276-6.971 8.506-15.57 8.81-24.9l5.363-20.285c3.481-13.499 1.187-27.988-6.295-39.752s-19.633-19.984-33.336-22.554c-6.182-1.158-12.449-1.158-18.63 0-13.703 2.569-25.854 10.79-33.336 22.554s-9.777 26.253-6.288 39.782l5.286 20.239c.3 9.323 3.527 17.917 8.801 24.887l-14.639 4.514c-8.289 2.556-15.102 7.877-19.568 14.804-13.066-15.626-20.942-35.732-20.942-57.645 0-34.671 19.363-65.674 50.532-80.909 4.962-2.426 7.018-8.414 4.592-13.376-2.424-4.963-8.413-7.015-13.375-4.593-18.236 8.914-33.651 22.69-44.579 39.84-11.233 17.629-17.17 38.044-17.17 59.038 0 36.009 17.392 68.032 44.217 88.111l-31.47 51.3c-14.7-7.298-31.251-11.411-48.747-11.411-60.654 0-110 49.346-110 110s49.346 110 110 110c57.283 0 104.471-44.015 109.541-100h72.919c5.07 55.985 52.258 100 109.541 100 60.654 0 110-49.346 110-110s-49.347-110-110.001-110zm-171.776-163.847c4.588-7.214 11.743-12.055 20.146-13.63 3.736-.701 7.524-.701 11.259 0 8.403 1.575 15.558 6.416 20.146 13.63 3.152 4.956 4.777 10.534 4.797 16.206h-61.142c.021-5.684 1.645-11.255 4.794-16.206zm49.396 36.206v11.658c0 13.062-10.596 23.688-23.62 23.688-13.063 0-23.689-10.627-23.689-23.688v-11.658zm-67.217 61.593 28.722-8.857c1.584.575 3.213 1.052 4.875 1.443v8.359c0 5.522 4.477 10 10 10s10-4.478 10-10v-8.362c1.616-.381 3.2-.845 4.741-1.401l28.847 8.845c4.966 1.522 8.745 5.276 10.358 10.018-15.043 11.299-33.726 18.003-53.946 18.003-20.219 0-38.9-6.703-53.943-18.002 1.604-4.749 5.38-8.514 10.346-10.046zm-102.403 266.048c-20.219 0-38.9-6.703-53.943-18.002 1.603-4.749 5.38-8.514 10.346-10.046l28.876-8.904c1.533.573 3.11 1.056 4.721 1.449v8.399c0 5.522 4.477 10 10 10s10-4.478 10-10v-8.399c1.572-.384 3.111-.85 4.609-1.405l28.98 8.886c4.966 1.522 8.745 5.276 10.358 10.018-15.044 11.3-33.727 18.004-53.947 18.004zm14.09-100h-29.376c-3.515 0-6.951-1.416-9.502-3.879-.165-.179-.334-.352-.512-.519-2.311-2.48-3.555-5.628-3.492-8.914.133-6.936 6.296-12.795 13.459-12.795 6.285 0 12.981.947 19.903 2.814 7.9 2.133 16.317 2.44 24.224 1.027v7.561c0 8.108-6.596 14.705-14.704 14.705zm8.052 19.047v4.519c0 12.208-9.933 22.141-22.142 22.141s-22.142-9.933-22.142-22.141v-4.289c2.246.474 4.544.724 6.856.724h29.376c2.772-.001 5.466-.337 8.052-.954zm46.915 48.6c-4.476-6.929-11.302-12.245-19.606-14.791l-15.273-4.683c5.004-6.93 7.964-15.428 7.964-24.608v-17.872c4.178-5.73 6.652-12.779 6.652-20.398v-21.402c0-3.519-1.849-6.777-4.868-8.583s-6.765-1.892-9.865-.227c-6.672 3.586-16.204 4.493-24.281 2.315-8.62-2.326-17.069-3.506-25.113-3.506-18.106 0-33.114 14.54-33.456 32.412-.141 7.388 2.201 14.457 6.646 20.312v16.948c0 9.161 2.948 17.642 7.932 24.563l-15.28 4.712c-8.289 2.556-15.102 7.877-19.568 14.804-13.065-15.623-20.941-35.73-20.941-57.643 0-49.626 40.374-90 90-90s90 40.374 90 90c0 21.914-7.877 42.021-20.943 57.647zm40.484-67.647c-2.888-31.898-19.444-59.912-43.758-78.111l31.47-51.3c14.701 7.298 31.251 11.411 48.747 11.411s34.047-4.113 48.747-11.411l31.47 51.3c-24.314 18.199-40.87 46.213-43.758 78.111zm182.459 100c-20.219 0-38.9-6.703-53.943-18.002 1.603-4.749 5.38-8.514 10.346-10.046l28.649-8.834c1.647.586 3.34 1.074 5.068 1.467v8.312c0 5.522 4.477 10 10 10s10-4.478 10-10v-8.312c1.647-.375 3.26-.837 4.833-1.387l28.636 8.78c4.966 1.522 8.745 5.276 10.358 10.018-15.044 11.3-33.727 18.004-53.947 18.004zm24.993-100.739c-12.766 0-24.574-5.805-32.395-15.927-1.925-2.491-4.868-3.887-7.914-3.887-.926 0-1.862.13-2.781.396-4.287 1.242-8.648 3.564-12.575 6.771 1.631-14.708 15.014-26.614 30.672-26.614 16.716 0 30.838 13.569 30.838 29.632 0 3.196-.51 6.339-1.536 9.41-1.422.146-2.862.219-4.309.219zm.224 20v1.358c0 13.838-11.258 25.097-25.097 25.097s-25.097-11.259-25.097-25.097v-4.991c.093-5.694 3.291-10.752 7.26-13.84 11.332 11.191 26.723 17.473 42.934 17.473zm43.84 48.386c-4.476-6.929-11.302-12.245-19.606-14.791l-13.98-4.287c6.094-7.69 9.746-17.399 9.746-27.951v-7.014l2.307-6.139c2.199-5.714 3.314-11.714 3.314-17.834 0-13.264-5.429-25.778-15.287-35.239-9.672-9.281-22.297-14.392-35.551-14.392s-25.879 5.111-35.551 14.393c-9.858 9.461-15.287 21.976-15.287 35.239 0 6.12 1.115 12.12 3.314 17.834.022.057.044.113.067.169l2.479 6.106v6.878c0 10.505 3.621 20.175 9.666 27.849l-14.179 4.373c-8.289 2.556-15.102 7.877-19.568 14.804-13.065-15.625-20.941-35.732-20.941-57.645 0-49.626 40.374-90 90-90s90 40.374 90 90c0 21.914-7.877 42.021-20.943 57.647z"/><circle cx="256.001" cy="37" r="10"/></g></g></svg>