<svg id="Capa_1" enable-background="new 0 0 512 512" height="512" viewBox="0 0 512 512" width="512" xmlns="http://www.w3.org/2000/svg"><g><g><path id="XMLID_1292_" d="m42 374.86h428c17.673 0 32-14.327 32-32v-280.862c0-17.673-14.327-32-32-32h-428c-17.673 0-32 14.327-32 32v280.862c0 17.673 14.327 32 32 32z" fill="#fff"/><g fill="#00ccf2"><path id="XMLID_1291_" d="m502 310.497v32.363c0 17.673-14.327 32-32 32h-428c-17.673 0-32-14.327-32-32v-32.363z"/><path id="XMLID_1290_" d="m148.371 481.998h215.257c0-25.689-20.825-46.513-46.513-46.513h-122.23c-25.689 0-46.514 20.824-46.514 46.513z"/><path id="XMLID_1289_" d="m218.109 374.86h75.781v60.625h-75.781z" transform="matrix(-1 0 0 -1 512 810.345)"/></g></g><g><g><path d="m171.18 206.017 46.056 14.202c15.212 4.691 25.589 18.75 25.589 34.669v15.608h-181.76v-15.562c0-15.941 10.405-30.014 25.646-34.687l46.417-14.231h38.052z" fill="#00ccf2"/><g><g id="XMLID_1017_"><path id="XMLID_1053_" d="m106.338 118.686v46.151c0 25.404 20.595 45.999 46 45.999 25.405 0 46-20.594 46-45.999v-46.151z" fill="#ffd0c7"/></g><path d="m124.596 118.686c14.493 12.314 41.916 20.846 73.743 21.616v24.536l7.515-29.142c8-31.023-11.92-62.339-43.409-68.243-6.743-1.264-13.663-1.264-20.406 0-31.489 5.904-51.409 37.221-43.409 68.243l7.708 29.142-.001-16.963c3.638-11.206 9.981-21.193 18.259-29.189z" fill="#ffcd69"/></g></g></g><path d="m282.935 69.998h168v119.633h-168z" fill="#66e0f7" transform="matrix(-1 0 0 -1 733.87 259.629)"/><path d="m421.908 189.631-69.48-69.481-69.481 69.481z" fill="#89df8f"/><path d="m329.689 189.631h121.246v-44.182l-38.532-38.532z" fill="#89df8f"/><g><path d="m470 19.998h-428c-23.159 0-42 18.841-42 42v280.861c0 23.159 18.841 42 42 42h166.109v40.625h-13.225c-31.162 0-56.513 25.352-56.513 56.514 0 5.522 4.477 10 10 10h62.629c5.523 0 10-4.478 10-10s-4.477-10-10-10h-51.236c4.359-15.287 18.454-26.514 35.121-26.514h122.23c16.667 0 30.763 11.227 35.122 26.514h-51.237c-5.522 0-10 4.478-10 10s4.478 10 10 10h62.629c5.522 0 10-4.478 10-10 0-31.162-25.352-56.514-56.514-56.514h-13.225v-40.625h166.11c23.159 0 42-18.841 42-42v-280.861c0-23.159-18.841-42-42-42zm-186.109 405.486h-55.781v-40.625h55.781zm208.109-82.625c0 12.131-9.869 22-22 22h-428c-12.131 0-22-9.869-22-22v-22.363h472zm0-42.363h-472v-238.498c0-12.131 9.869-22 22-22h428c12.131 0 22 9.869 22 22z"/><path d="m220.183 210.664-26.447-8.156c8.771-9.63 14.22-22.325 14.566-36.265l7.234-28.051c4.502-17.458 1.534-36.194-8.142-51.406s-25.388-25.841-43.106-29.163c-7.993-1.498-16.099-1.499-24.092 0-17.719 3.322-33.431 13.952-43.107 29.163-9.676 15.212-12.644 33.949-8.126 51.466l7.411 28.022c.352 13.872 5.758 26.509 14.462 36.118l-27.056 8.295c-19.568 5.998-32.715 23.779-32.715 44.247v15.562c0 5.522 4.477 10 10 10h181.761c5.523 0 10-4.478 10-10v-15.607c0-20.432-13.118-38.205-32.643-44.225zm-113.266-86.427c-.52-9.353 1.883-18.597 7.048-26.717 6.814-10.712 17.439-17.9 29.918-20.239 5.547-1.041 11.172-1.041 16.72 0 12.479 2.339 23.103 9.526 29.917 20.239 6.272 9.859 8.472 21.377 6.311 32.733-27.792-.942-52.873-8.24-65.76-19.189-1.872-1.591-4.175-2.379-6.473-2.379-2.512 0-5.018.942-6.95 2.808-4.01 3.874-7.607 8.153-10.731 12.744zm81.421 25.587v15.013c0 19.85-16.149 35.999-36 35.999s-36-16.149-36-35.999v-15.321c2.225-6.302 5.503-12.229 9.653-17.495 15.398 9.626 37.601 15.989 62.347 17.803zm44.488 110.672h-161.761v-5.562c0-11.622 7.465-21.72 18.577-25.126l42.11-12.91c6.377 2.531 13.319 3.938 20.587 3.938 7.203 0 14.085-1.382 20.415-3.87l41.536 12.809c11.087 3.419 18.536 13.511 18.536 25.113z"/><path d="m450.935 260.496h-168c-5.522 0-10 4.478-10 10s4.478 10 10 10h168c5.522 0 10-4.478 10-10s-4.478-10-10-10z"/><path d="m450.935 220.496h-168c-5.522 0-10 4.478-10 10s4.478 10 10 10h168c5.522 0 10-4.478 10-10s-4.478-10-10-10z"/><path d="m450.935 59.998h-168c-5.522 0-10 4.478-10 10v119.633c0 5.522 4.478 10 10 10h168c5.522 0 10-4.478 10-10v-119.633c0-5.522-4.478-10-10-10zm-143.845 119.633 45.338-45.338 45.338 45.338zm133.845 0h-14.884l-36.111-36.111 22.461-22.46 28.534 28.535zm0-58.322-21.463-21.463c-1.875-1.875-4.419-2.929-7.071-2.929s-5.195 1.054-7.071 2.929l-29.532 29.531-16.298-16.298c-3.906-3.904-10.236-3.904-14.143 0l-52.422 52.422v-85.503h148z"/><circle cx="256" cy="482.002" r="10"/></g></g></svg>