<svg id="Capa_1" enable-background="new 0 0 512 512" height="512" viewBox="0 0 512 512" width="512" xmlns="http://www.w3.org/2000/svg"><g><path d="m320.729 250.54c39.311 0 71.179-31.868 71.179-71.179 0-28.873-17.201-53.712-41.906-64.877.725-3.797 1.119-7.711 1.119-11.718 0-34.311-27.815-62.126-62.126-62.126-14.424 0-27.689 4.929-38.233 13.177-18.827-26.516-49.781-43.817-84.776-43.817-56.339 0-102.2 44.841-103.853 100.779-30.059 8.331-52.133 35.87-52.133 68.582 0 39.311 31.868 71.179 71.179 71.179z" fill="#00ccf2"/><g fill="#ffcd69"><path d="m129.954 482v-310.921c0-11.046-8.954-20-20-20-11.046 0-20 8.954-20 20v310.921c0 11.046 8.954 20 20 20 11.046 0 20-8.954 20-20z"/><path d="m311.954 482v-310.921c0-11.046-8.954-20-20-20-11.046 0-20 8.954-20 20v310.921c0 11.046 8.954 20 20 20 11.046 0 20-8.954 20-20z"/><g><path d="m129.954 210.54h142v40h-142z"/><path d="m129.954 306.54h142v40h-142z"/><path d="m129.954 402.54h142v40h-142z" transform="matrix(-1 0 0 -1 401.909 845.079)"/></g></g><g><path d="m469.288 501.986h-164.622c-18.066 0-32.712-14.646-32.712-32.712v-110.486c0-18.066 14.646-32.712 32.712-32.712h164.622c18.066 0 32.712 14.646 32.712 32.712v110.487c0 18.066-14.645 32.711-32.712 32.711z" fill="#c68a65"/></g><g><path d="m469.289 316.076h-37.289v-14.998c0-13.786-11.216-25.002-25.002-25.002h-40.042c-13.786 0-25.002 11.216-25.002 25.002v14.998h-20v-55.568c44.198-.66 79.954-36.797 79.954-81.148 0-29.29-15.886-56.221-41.045-70.555.171-2.018.257-4.034.257-6.04 0-39.771-32.355-72.127-72.126-72.127-12.861 0-25.162 3.315-36.078 9.664-21.543-25.397-53.365-40.302-86.93-40.302-29.828 0-58.028 11.451-79.406 32.244-19.626 19.09-31.549 44.134-34.015 71.148-31.281 11.788-52.565 42.056-52.565 75.969 0 44.351 35.757 80.488 79.954 81.148v221.491c0 16.542 13.458 30 30 30s30-13.458 30-30v-29.461h122v16.735c0 23.552 19.16 42.712 42.712 42.712h37.311c5.522 0 10-4.478 10-10s-4.478-10-10-10h-37.311c-12.523 0-22.712-10.188-22.712-22.712v-56.538c4.943 2.51 10.526 3.935 16.439 3.935h27.009v13.145c0 5.522 4.478 10 10 10s10-4.478 10-10v-13.145h83.149v13.145c0 5.522 4.478 10 10 10s10-4.478 10-10v-13.145h27.009c5.913 0 11.496-1.425 16.439-3.935v56.538c0 12.523-10.188 22.712-22.712 22.712h-37.312c-5.522 0-10 4.478-10 10s4.478 10 10 10h37.312c23.552 0 42.712-19.16 42.712-42.712v-110.486c.001-23.551-19.159-42.712-42.71-42.712zm-107.334-14.998c0-2.758 2.244-5.002 5.002-5.002h40.042c2.758 0 5.002 2.244 5.002 5.002v14.998h-50.046zm-242 180.922c0 5.514-4.486 10-10 10s-10-4.486-10-10v-310.921c0-5.514 4.486-10 10-10s10 4.486 10 10zm142-49.461h-122v-20h122zm0-40h-122v-36h122zm0-56h-122v-20h122zm0-40h-122v-36h122zm0-56h-122v-20h122zm0-69.46v29.46h-122v-29.46c0-16.542-13.458-30-30-30s-30 13.458-30 30v69.429c-33.17-.657-59.955-27.824-59.955-61.147 0-27.395 18.424-51.633 44.804-58.944 4.226-1.171 7.195-4.958 7.325-9.342.723-24.481 10.807-47.386 28.396-64.493 17.622-17.141 40.87-26.582 65.461-26.582 30.369 0 59.014 14.806 76.623 39.605 1.582 2.228 4.007 3.711 6.711 4.105 2.701.396 5.451-.335 7.604-2.019 9.245-7.231 20.335-11.054 32.071-11.054 28.742 0 52.126 23.384 52.126 52.127 0 3.26-.316 6.571-.94 9.843-.867 4.541 1.491 9.084 5.704 10.987 21.884 9.891 36.024 31.779 36.024 55.765 0 33.323-26.785 60.49-59.954 61.147v-69.429c0-16.542-13.458-30-30-30s-30 13.46-30 30.002zm40 0v145.092c-7.317.461-14.135 2.771-20 6.47v-151.562c0-5.514 4.486-10 10-10s10 4.487 10 10zm190.045 209.154c0 9.064-7.375 16.439-16.439 16.439h-177.167c-9.064 0-16.439-7.375-16.439-16.439v-21.444c0-12.523 10.188-22.712 22.712-22.712h164.622c12.523 0 22.712 10.188 22.712 22.712v21.444z"/><path d="m422.524 94.453c4.423 3.311 10.689 2.404 13.997-2.019l1.479-1.977v82.833c0 5.522 4.478 10 10 10s10-4.478 10-10v-82.833l1.479 1.978c1.964 2.626 4.971 4.012 8.016 4.012 2.083 0 4.185-.649 5.981-1.993 4.423-3.308 5.326-9.574 2.019-13.997l-19.487-26.057c-1.888-2.524-4.855-4.011-8.008-4.011s-6.12 1.486-8.008 4.011l-19.487 26.057c-3.307 4.422-2.404 10.689 2.019 13.996z"/><path d="m37.496 329.111c-1.888-2.524-4.855-4.011-8.008-4.011s-6.12 1.486-8.008 4.011l-19.487 26.056c-3.308 4.423-2.404 10.689 2.019 13.997 4.423 3.311 10.689 2.405 13.997-2.019l1.479-1.978v82.833c0 5.522 4.478 10 10 10s10-4.478 10-10v-82.833l1.479 1.978c1.964 2.626 4.971 4.012 8.016 4.012 2.083 0 4.185-.649 5.981-1.993 4.423-3.308 5.326-9.574 2.019-13.997z"/><circle cx="386.977" cy="501.997" r="10"/></g></g></svg>