<svg id="Capa_1" enable-background="new 0 0 512 512" height="512" viewBox="0 0 512 512" width="512" xmlns="http://www.w3.org/2000/svg"><g><g><path d="m301.263 90h-40v-40h-86.526v40h-40v-60c0-11.046 8.954-20 20-20h126.526c11.046 0 20 8.954 20 20z" fill="#c68a65"/></g><path d="m388.516 394h-341.032c-20.702 0-37.484-16.782-37.484-37.484v-229.032c0-20.702 16.782-37.484 37.484-37.484h341.032c20.702 0 37.484 16.782 37.484 37.484v229.032c0 20.702-16.782 37.484-37.484 37.484z" fill="#c68a65"/><g><g><path d="m139 209.105h-44v30.8c0 12.15 9.85 22 22 22 12.15 0 22-9.85 22-22z" fill="#ffcd69"/></g><g><path d="m341 209.105h-44v30.8c0 12.15 9.85 22 22 22 12.15 0 22-9.85 22-22z" fill="#ffcd69"/></g></g><circle cx="394" cy="394" fill="#00ccf2" r="108"/><g><path d="m436 283.731v-156.248c0-26.182-21.301-47.483-47.483-47.483h-77.254v-50c0-16.542-13.458-30-30-30h-126.526c-16.542 0-30 13.458-30 30v50h-77.254c-26.182 0-47.483 21.301-47.483 47.483v229.033c0 26.183 21.301 47.484 47.483 47.484h228.945c5.094 60.402 55.875 108 117.572 108 65.065 0 118-52.935 118-118 0-50.278-31.612-93.304-76-110.269zm-291.263-253.731c0-5.514 4.486-10 10-10h126.525c5.514 0 10 4.486 10 10v50h-20v-30c0-5.522-4.478-10-10-10h-86.525c-5.522 0-10 4.478-10 10v30h-20zm106.526 30v20h-66.525v-20zm-203.78 324c-15.154 0-27.483-12.329-27.483-27.483v-127.469c7.763 5.531 17.246 8.799 27.483 8.799h37.517v2.059c0 17.645 14.355 32 32 32s32-14.355 32-32v-2.059h24c5.522 0 10-4.478 10-10s-4.478-10-10-10h-24v-8.741c0-5.522-4.478-10-10-10h-44c-5.522 0-10 4.478-10 10v8.741h-37.517c-15.154 0-27.483-12.329-27.483-27.484v-62.88c0-15.154 12.329-27.483 27.483-27.483h341.033c15.155 0 27.484 12.329 27.484 27.483v62.88c0 15.154-12.329 27.483-27.483 27.483h-37.517v-8.741c0-5.522-4.478-10-10-10h-44c-5.522 0-10 4.478-10 10v8.741h-24c-5.522 0-10 4.478-10 10s4.478 10 10 10h24v2.059c0 17.645 14.355 32 32 32s32-14.355 32-32v-2.059h37.517c10.237 0 19.72-3.267 27.483-8.799v49.017c-7.13-1.35-14.483-2.065-22-2.065-61.697 0-112.479 47.598-117.572 108h-228.945zm57.517-144.095v-20.8h24v20.8c0 6.617-5.383 12-12 12s-12-5.383-12-12zm226-20.8v20.8c0 6.617-5.383 12-12 12s-12-5.383-12-12v-20.8zm73 272.389v-6.494c0-5.522-4.478-10-10-10s-10 4.478-10 10v6.494c-46.069-4.69-82.803-41.424-87.494-87.494h6.494c5.522 0 10-4.478 10-10s-4.478-10-10-10h-6.494c4.69-46.069 41.424-82.803 87.494-87.494v6.494c0 5.522 4.478 10 10 10s10-4.478 10-10v-6.494c46.069 4.69 82.803 41.424 87.494 87.494h-6.494c-5.522 0-10 4.478-10 10s4.478 10 10 10h6.494c-4.691 46.069-41.425 82.803-87.494 87.494z"/><path d="m394 337.652c-5.522 0-10 4.478-10 10v42.205l-11.663 11.663c-3.905 3.905-3.905 10.237 0 14.143 1.953 1.952 4.512 2.929 7.071 2.929s5.118-.977 7.071-2.929l14.592-14.592c1.875-1.876 2.929-4.419 2.929-7.071v-46.348c0-5.522-4.478-10-10-10z"/><circle cx="218" cy="227.847" r="10"/></g></g></svg>