<svg id="Capa_1" enable-background="new 0 0 512.193 512.193" height="512" viewBox="0 0 512.193 512.193" width="512" xmlns="http://www.w3.org/2000/svg"><g><g id="XMLID_1213_"><path id="XMLID_1218_" d="m316.565 388.365v57.061c0 31.343-25.409 56.751-56.753 56.751-31.344 0-56.753-25.408-56.753-56.751v-57.061z" fill="#ffd0c7"/></g><g><g><g><path d="m255.489 173.308c-11.046 0-20-8.954-20-20v-24.873c0-17.278 10.841-32.821 26.976-38.677 8.577-3.112 14.109-11.673 13.453-20.818-.701-9.779-8.562-17.874-18.285-18.83-11.048-1.084-20.91 6.599-22.431 17.497-1.527 10.939-11.628 18.568-22.573 17.043-10.939-1.527-18.57-11.633-17.043-22.573 4.498-32.227 33.483-54.965 65.959-51.776 14.084 1.384 27.325 7.789 37.283 18.035 9.943 10.23 15.977 23.635 16.988 37.743 1.928 26.897-14.4 52.096-39.705 61.279-.354.128-.622.592-.622 1.077v24.873c.001 11.046-8.954 20-20 20z" fill="#ff7d97"/></g></g><g><circle cx="255.682" cy="233.505" fill="#ff7d97" r="20"/></g></g><g><g><path d="m294.04 388.486c-17.881 15.192-51.715 25.719-90.981 26.669v30.271l-9.272-35.954c-9.871-38.274 14.706-76.912 53.556-84.196 8.319-1.56 16.856-1.56 25.176 0 38.85 7.284 63.426 45.921 53.556 84.196l-9.509 35.954.002-20.928c-4.49-13.825-12.316-26.146-22.528-36.012z" fill="#ffcd69"/></g></g><g><g><g id="XMLID_983_"><path id="XMLID_984_" d="m492.592 415.596v29.846c0 31.343-25.409 56.751-56.753 56.751-31.344 0-56.753-25.408-56.753-56.751v-29.846l31.796-25.558z" fill="#ffc7af"/></g></g></g><g><g><g><g><g><g id="XMLID_979_"><path id="XMLID_980_" d="m22.204 401.44v43.922c0 31.278 25.357 56.634 56.635 56.634 31.279 0 56.635-25.356 56.635-56.634v-43.922z" fill="#ffc7af"/></g></g></g></g></g></g><path d="m379.086 433.314c-.268-20.983 15.531-38.565 31.796-43.276 15.057 19.486 38.646 32.038 65.178 32.038 5.622 0 11.111-.565 16.414-1.641v5.727l4.928-12.799c2.829-7.348 4.28-15.154 4.28-23.028 0-35.393-30.643-64.085-66.036-64.085s-66.036 28.692-66.036 64.085c0 7.874 1.451 15.68 4.28 23.028l5.197 12.799v7.152z" fill="#6d92ac"/><path d="m151.842 331.036c-16.939 9.1-39.043 10.762-57.595 5.756-13.389-3.613-27.132-5.756-40.999-5.756-22.918 0-42.293 18.36-42.729 41.174-.45 23.542 19.268 42.811 42.814 42.811h53.51c24.853 0 45-20.147 45-44.999z" fill="#c68a65"/><g><path d="m274.361 315.447c-9.575-1.795-19.285-1.795-28.861 0-21.541 4.039-39.881 16.447-51.643 34.938s-15.226 40.362-9.753 61.583l8.991 34.864c.754 36.159 30.381 65.345 66.717 65.345 36.325 0 65.945-29.169 66.716-65.313l9.229-34.896c5.473-21.221 2.009-43.091-9.753-61.582-11.762-18.492-30.102-30.9-51.643-34.939zm32.204 129.978c0 25.779-20.974 46.752-46.753 46.752-25.78 0-46.753-20.973-46.753-46.752v-20.703c32-2.053 60.625-10.288 79.76-22.878 6 7.203 10.683 15.458 13.746 24.284zm10.858-43.238c-4.492-7.649-10.025-14.7-16.436-20.894-3.697-3.572-9.503-3.757-13.423-.429-16.587 14.094-48.966 23.393-84.535 24.288-3.428-15.227-.72-30.793 7.702-44.033 8.758-13.769 22.415-23.008 38.453-26.015 3.566-.669 7.155-1.003 10.746-1.003 3.59 0 7.181.334 10.745 1.003 16.039 3.007 29.695 12.246 38.454 26.015 7.884 12.395 10.761 26.828 8.294 41.068z"/><path d="m364.59 417.04 4.495 11.074v17.328c0 36.807 29.945 66.751 66.753 66.751s66.753-29.944 66.753-66.751v-17.728l4.143-10.758c3.283-8.527 4.948-17.483 4.948-26.62 0-19.752-8.105-38.408-22.822-52.53-14.484-13.9-33.384-21.556-53.215-21.556s-38.73 7.655-53.215 21.556c-14.717 14.122-22.821 32.778-22.821 52.53 0 9.136 1.698 18.176 4.981 26.704zm118.001 28.402c0 25.778-20.974 46.751-46.753 46.751s-46.753-20.973-46.753-46.751v-13.093c.194-13.318 9.05-24.884 18.843-30.29 17.478 19.167 41.906 30.018 68.131 30.018 2.18 0 4.359-.098 6.532-.25zm5.479-35.673-.539 1.4c-3.776.603-7.623.907-11.472.907-22.567 0-43.439-10.261-57.265-28.152-1.925-2.491-4.868-3.887-7.914-3.887-.926 0-1.861.13-2.781.396-9.939 2.879-20.153 9.769-27.636 19.496-.568-3.153-.854-6.358-.854-9.594 0-29.317 25.661-54.086 56.036-54.086s56.037 24.769 56.037 54.086c0 6.67-1.216 13.209-3.612 19.434z"/><path d="m156.974 322.453c-3.019-1.806-6.766-1.892-9.864-.227-14.118 7.585-33.375 9.468-50.258 4.91-15.006-4.048-29.676-6.101-43.604-6.101-28.536 0-52.19 22.871-52.728 50.982-.234 12.256 3.891 23.97 11.684 33.466v39.878c0 36.742 29.893 66.634 66.636 66.634s66.635-29.892 66.635-66.634v-36.24c10.097-9.977 16.368-23.819 16.368-39.101v-38.985c-.001-3.516-1.849-6.776-4.869-8.582zm-31.499 122.91c0 25.714-20.921 46.634-46.636 46.634s-46.635-20.92-46.635-46.634v-24.786c6.636 2.888 13.837 4.444 21.129 4.444h53.51c6.538 0 12.81-1.152 18.632-3.255zm16.367-75.341c0 19.299-15.701 34.999-35 34.999h-53.51c-8.817 0-17.444-3.64-23.67-9.985-6.059-6.176-9.307-14.214-9.146-22.634.331-17.295 15.014-31.365 32.731-31.365 12.169 0 25.087 1.82 38.395 5.41 16.264 4.389 34.375 4.043 50.2-.615z"/><path d="m211.25 94.554c16.373 2.273 31.57-9.188 33.856-25.565.776-5.566 5.853-9.486 11.549-8.927 4.856.478 8.937 4.69 9.288 9.593.338 4.707-2.495 9.107-6.891 10.702-20.076 7.287-33.564 26.608-33.564 48.078v24.873c0 16.542 13.458 30 30 30s30-13.458 30-30v-19.035c9.363-4.419 17.688-10.898 24.332-18.981 3.507-4.267 2.891-10.568-1.376-14.075-4.268-3.506-10.567-2.889-14.075 1.376-5.748 6.994-13.241 12.308-21.676 15.368-4.31 1.566-7.205 5.776-7.205 10.475v24.873c0 5.514-4.486 10-10 10s-10-4.486-10-10v-24.873c0-13.086 8.193-24.852 20.387-29.277 12.76-4.63 20.991-17.351 20.017-30.934-1.045-14.575-12.774-26.642-27.283-28.066-16.419-1.618-31.046 9.839-33.311 26.065-.763 5.46-5.831 9.283-11.286 8.522-5.461-.762-9.284-5.825-8.522-11.287 3.754-26.892 27.957-45.86 55.077-43.205 10.579 1.04 20.793 5.587 28.762 12.804 4.093 3.708 10.416 3.396 14.124-.698 3.708-4.093 3.396-10.417-.698-14.124-11.125-10.077-25.412-16.43-40.231-17.886-37.851-3.726-71.6 22.79-76.84 60.346-2.288 16.381 9.18 31.57 25.566 33.858z"/><path d="m255.682 203.505c-16.542 0-30 13.458-30 30s13.458 30 30 30 30-13.458 30-30-13.458-30-30-30zm0 40c-5.514 0-10-4.486-10-10s4.486-10 10-10 10 4.486 10 10-4.486 10-10 10z"/><path d="m45.638 144.767c5.469.766 10.522-3.052 11.286-8.522 1.626-11.65 12.142-19.874 23.924-18.708 10.41 1.023 18.826 9.683 19.575 20.143.7 9.755-5.209 18.889-14.368 22.213-10.442 3.788-17.458 13.857-17.458 25.055v19.589c0 5.522 4.477 10 10 10s10-4.478 10-10v-19.589c0-2.812 1.719-5.325 4.28-6.254 17.524-6.36 28.831-23.813 27.495-42.443-1.438-20.052-17.588-36.653-37.568-38.617-22.508-2.207-42.574 13.534-45.688 35.849-.764 5.467 3.052 10.52 8.522 11.284z"/><path d="m403.655 144.767c5.459.762 10.522-3.052 11.286-8.522 1.625-11.65 12.143-19.874 23.923-18.708 10.41 1.023 18.826 9.683 19.576 20.143.699 9.755-5.21 18.889-14.368 22.213-10.442 3.788-17.458 13.856-17.458 25.055v19.589c0 5.522 4.478 10 10 10s10-4.478 10-10v-19.589c0-2.812 1.72-5.325 4.279-6.254 17.524-6.36 28.831-23.813 27.496-42.444-1.438-20.051-17.59-36.652-37.568-38.616-22.516-2.21-42.574 13.535-45.688 35.849-.763 5.467 3.052 10.52 8.522 11.284z"/><circle cx="315.826" cy="66.075" r="10"/><circle cx="436.741" cy="243.935" r="10"/><circle cx="78.726" cy="243.938" r="10"/></g></g></svg>