<svg id="Capa_1" enable-background="new 0 0 512 512" height="512" viewBox="0 0 512 512" width="512" xmlns="http://www.w3.org/2000/svg"><g><path id="XMLID_1207_" d="m256 10 242.562 184.422v282.572c0 13.811-11.196 25.006-25.006 25.006h-435.111c-13.811 0-25.006-11.196-25.006-25.006v-282.572z" fill="#89df8f"/><path id="XMLID_1204_" d="m75.946 238.975v-208.975c0-11.046 8.954-20 20-20h320.108c11.046 0 20 8.954 20 20v208.975l-180.054 135.859z" fill="#fff"/><g><g id="XMLID_1186_"><path d="m243.605 139.4c-5.31 0-10.62-2.026-14.671-6.077l-26.455-26.454c-3.646-3.646-3.647-9.558 0-13.205l16.139-16.139c3.646-3.646 9.558-3.646 13.204 0l11.783 11.783 36.574-36.574c3.646-3.646 9.558-3.646 13.204 0l16.139 16.139c3.646 3.646 3.646 9.558 0 13.204l-51.245 51.245c-4.052 4.052-9.362 6.078-14.672 6.078z" fill="#89df8f"/></g></g><g><path d="m504.614 186.461-58.561-44.523v-111.938c0-16.542-13.458-30-30-30h-115.053c-5.522 0-10 4.478-10 10s4.478 10 10 10h115.054c5.514 0 10 4.486 10 10v206.988l-170.054 129.293-170.054-129.294v-206.987c0-5.514 4.486-10 10-10h115.054c5.522 0 10-4.478 10-10s-4.478-10-10-10h-115.054c-16.542 0-30 13.458-30 30v111.938l-58.56 44.524c-2.487 1.891-3.947 4.836-3.947 7.96v282.571c-.001 19.303 15.703 35.007 35.005 35.007h435.111c19.303 0 35.006-15.704 35.006-35.007v-282.571c.001-3.124-1.459-6.069-3.947-7.961zm-58.56-19.399 35.985 27.36-35.985 27.36zm-380.108 0v54.72l-35.985-27.36zm-42.508 47.526 148.855 113.175-148.855 148.855zm450.118 277.412h-435.112c-.666 0-1.316-.059-1.959-.143l151.877-151.877 61.585 46.824c1.789 1.36 3.921 2.04 6.053 2.04s4.264-.68 6.053-2.04l61.585-46.824 151.877 151.877c-.643.084-1.294.143-1.959.143zm15.006-15.382-148.856-148.855 148.855-113.176v262.031z"/><path d="m361.266 197.4h-210.532c-5.522 0-10 4.478-10 10s4.478 10 10 10h210.531c5.522 0 10-4.478 10-10s-4.477-10-9.999-10z"/><path d="m150.734 177.4h35.786c5.522 0 10-4.478 10-10s-4.478-10-10-10h-35.786c-5.522 0-10 4.478-10 10s4.478 10 10 10z"/><path d="m361.266 237.4h-210.532c-5.522 0-10 4.478-10 10s4.478 10 10 10h210.531c5.522 0 10-4.478 10-10s-4.477-10-9.999-10z"/><path d="m195.407 86.593c-7.539 7.54-7.539 19.808 0 27.348l26.456 26.455c5.809 5.807 13.529 9.005 21.741 9.005 8.213 0 15.935-3.198 21.744-9.006l51.244-51.245c7.539-7.54 7.539-19.808 0-27.348l-16.14-16.14c-7.541-7.537-19.807-7.536-27.346.001l-29.503 29.503-4.712-4.712c-7.538-7.538-19.807-7.54-27.347 0zm41.126 9.787c3.906 3.904 10.236 3.904 14.143 0l36.104-36.105 15.201 15.201-50.774 50.775c-2.031 2.031-4.731 3.149-7.603 3.149-2.87 0-5.569-1.118-7.6-3.148l-25.986-25.985 15.201-15.201z"/><circle cx="256" cy="10" r="10"/></g></g></svg>