<svg id="Capa_1" enable-background="new 0 0 512 512" height="512" viewBox="0 0 512 512" width="512" xmlns="http://www.w3.org/2000/svg"><g><g><path d="m301.263 90h-40v-40h-86.526v40h-40v-60c0-11.046 8.954-20 20-20h126.526c11.046 0 20 8.954 20 20z" fill="#c68a65"/></g><path d="m388.516 394h-341.032c-20.702 0-37.484-16.782-37.484-37.484v-229.032c0-20.702 16.782-37.484 37.484-37.484h341.032c20.702 0 37.484 16.782 37.484 37.484v229.032c0 20.702-16.782 37.484-37.484 37.484z" fill="#c68a65"/><g><g><path d="m139 209.105h-44v30.8c0 12.15 9.85 22 22 22 12.15 0 22-9.85 22-22z" fill="#ffcd69"/></g><g><path d="m341 209.105h-44v30.8c0 12.15 9.85 22 22 22 12.15 0 22-9.85 22-22z" fill="#ffcd69"/></g></g><g><path id="XMLID_1114_" d="m202 342h300v160h-300z" fill="#89df8f"/><path id="XMLID_1110_" d="m202 302h300v160h-300z" fill="#89df8f"/><g fill="#fff"><path d="m460.048 302c0 23.169 18.782 41.952 41.952 41.952v-41.952z"/><path d="m243.951 302c0 23.169-18.782 41.952-41.951 41.952v-41.952z"/><path d="m460.048 462c0-23.169 18.782-41.952 41.952-41.952v41.952z"/><path d="m243.951 462c0-23.169-18.782-41.952-41.951-41.952v41.952z"/><circle cx="352" cy="382" r="40"/></g></g><g><path d="m502 292h-66v-164.517c0-26.182-21.301-47.483-47.484-47.483h-77.253v-50c0-16.542-13.458-30-30-30h-126.526c-16.542 0-30 13.458-30 30v50h-77.253c-26.183 0-47.484 21.301-47.484 47.483v229.033c0 26.183 21.301 47.484 47.484 47.484h144.516v98c0 5.522 4.477 10 10 10h105c5.523 0 10-4.478 10-10s-4.477-10-10-10h-95v-20h280v20h-95c-5.523 0-10 4.478-10 10s4.477 10 10 10h105c5.523 0 10-4.478 10-10v-200c0-5.522-4.477-10-10-10zm-357.263-262c0-5.514 4.486-10 10-10h126.526c5.514 0 10 4.486 10 10v50h-20v-30c0-5.522-4.477-10-10-10h-86.526c-5.523 0-10 4.478-10 10v30h-20zm106.526 30v20h-66.526v-20zm-231.263 67.483c0-15.154 12.329-27.483 27.484-27.483h341.032c15.155 0 27.484 12.329 27.484 27.483v62.88c0 15.154-12.329 27.483-27.484 27.483h-37.516v-8.741c0-5.522-4.477-10-10-10h-44c-5.523 0-10 4.478-10 10v8.741h-138v-8.741c0-5.522-4.477-10-10-10h-44c-5.523 0-10 4.478-10 10v8.741h-37.516c-15.155.001-27.484-12.328-27.484-27.483zm311 91.622v20.8c0 6.617-5.383 12-12 12s-12-5.383-12-12v-20.8zm-202 0v20.8c0 6.617-5.383 12-12 12s-12-5.383-12-12v-20.8zm73 72.895c-5.523 0-10 4.478-10 10v82h-144.516c-15.155 0-27.484-12.329-27.484-27.483v-127.469c7.763 5.531 17.246 8.799 27.484 8.799h37.516v2.059c0 17.645 14.355 32 32 32s32-14.355 32-32v-2.059h138v2.059c0 17.645 14.355 32 32 32s32-14.355 32-32v-2.059h37.516c10.238 0 19.72-3.268 27.484-8.799v62.952zm30.361 20c-3.156 9.616-10.746 17.204-20.361 20.36v-20.36zm-20.361 140v-20.36c9.615 3.156 17.205 10.744 20.361 20.36zm280 0h-20.361c3.156-9.616 10.746-17.204 20.361-20.36zm0-40.977c-20.689 4.027-36.95 20.284-40.977 40.977h-198.046c-4.026-20.693-20.287-36.95-40.977-40.977v-58.046c20.689-4.027 36.95-20.284 40.977-40.977h198.046c4.026 20.693 20.287 36.95 40.977 40.977zm0-78.663c-9.615-3.156-17.205-10.744-20.361-20.36h20.361z"/><path d="m352 332c-27.57 0-50 22.43-50 50s22.43 50 50 50 50-22.43 50-50-22.43-50-50-50zm0 80c-16.542 0-30-13.458-30-30s13.458-30 30-30 30 13.458 30 30-13.458 30-30 30z"/><path d="m455.975 372h-22.525c-5.523 0-10 4.478-10 10s4.477 10 10 10h22.525c5.523 0 10-4.478 10-10s-4.477-10-10-10z"/><path d="m270.55 372h-22.525c-5.523 0-10 4.478-10 10s4.477 10 10 10h22.525c5.523 0 10-4.478 10-10s-4.477-10-10-10z"/><circle cx="352" cy="502" r="10"/></g></g></svg>