<svg id="Capa_1" enable-background="new 0 0 512 512" height="512" viewBox="0 0 512 512" width="512" xmlns="http://www.w3.org/2000/svg"><g><g id="XMLID_1211_"><path id="XMLID_1212_" d="m272.016 299.24v55.577c0 31.005-25.135 56.14-56.142 56.14-31.006 0-56.142-25.135-56.142-56.14v-55.577z" fill="#ffd0c7"/></g><path d="m489.653 10h-61.204c-80.017 0-158.494 22-226.85 63.595-47.858 29.122-77.068 81.089-77.068 137.111v20.256c0 15.193 12.316 27.509 27.509 27.509 15.193 0 27.509-12.316 27.509-27.509v-9.126c0-32.137 15.492-62.302 41.61-81.026 9.846-7.058 21.656-10.854 33.77-10.854h54.712l.982 23.942c.593 14.472-4.833 28.545-14.989 38.872l-25.306 25.734c-11.47 11.664-11.392 30.395.176 41.963 10.579 10.579 27.361 11.673 39.225 2.559l39.851-30.618c34.854-26.779 64.349-59.885 86.944-97.586h53.128v-124.822z" fill="#ffd0c7"/><path d="m192.692 405.484-55.507 17.117c-18.334 5.654-30.84 22.598-30.84 41.784v37.615h219.059v-37.56c0-19.212-12.54-36.173-30.908-41.805l-55.942-17.151z" fill="#00ccf2"/><g><path d="m249.734 298.491c-17.689 15.028-51.158 25.442-90.001 26.381v29.945l-9.172-35.567c-9.764-37.862 14.548-76.083 52.979-83.289 8.23-1.543 16.675-1.543 24.905 0 38.431 7.206 62.743 45.427 52.979 83.289l-9.406 35.567.001-20.702c-4.441-13.676-12.183-25.864-22.285-35.624z" fill="#ffcd69"/></g><g><path d="m489.653 124.823h-53.128c-3.515 0-6.771 1.845-8.578 4.859-22.039 36.777-50.455 68.672-84.458 94.797l-39.852 30.618c-7.854 6.033-19.058 5.305-26.061-1.7-7.655-7.654-7.707-20.161-.117-27.88l25.306-25.734c12.049-12.252 18.555-29.126 17.85-46.293l-.981-23.942c-.22-5.359-4.628-9.591-9.991-9.591h-54.712c-14.29 0-27.982 4.4-39.597 12.726-28.669 20.552-45.784 53.88-45.784 89.153v9.126c0 9.655-7.854 17.51-17.509 17.51s-17.51-7.854-17.51-17.51v-20.256c0-25.774 6.676-51.274 19.305-73.743 12.63-22.468 30.943-41.426 52.962-54.824 66.805-40.652 143.45-62.139 221.651-62.139h61.204c5.522 0 10-4.478 10-10s-4.478-10-10-10h-61.204c-81.869 0-162.11 22.495-232.048 65.053-24.944 15.179-45.692 36.656-60 62.11-14.308 25.455-21.87 54.344-21.87 83.543v20.256c0 18.772 13.863 34.367 31.889 37.087-8.268 16.635-10.259 35.409-5.543 53.698l8.891 34.479c.379 17.958 7.939 34.172 19.932 45.883l-35.462 10.936c-22.665 6.989-37.893 27.622-37.893 51.34v37.615c0 5.522 4.478 10 10 10h64.529c5.522 0 10-4.478 10-10s-4.478-10-10-10h-54.529v-27.615c0-14.889 9.56-27.841 23.786-32.229l51.416-15.855c4.554 1.809 9.346 3.141 14.328 3.9v18.146c0 5.522 4.478 10 10 10s10-4.478 10-10v-18.146c4.905-.747 9.626-2.051 14.118-3.817l51.571 15.811c14.26 4.372 23.84 17.33 23.84 32.244v27.561h-54.529c-5.522 0-10 4.478-10 10s4.478 10 10 10h64.529c5.522 0 10-4.478 10-10v-37.561c0-23.759-15.262-44.4-37.978-51.365l-35.471-10.874c12.039-11.711 19.636-27.949 20.025-45.939l9.126-34.514c3.695-14.331 3.269-28.958-1.063-42.622.521.02 1.042.037 1.563.037 8.513 0 17.058-2.705 24.217-8.205l39.852-30.618c34.498-26.506 63.563-58.618 86.464-95.516h47.515c5.522 0 10-4.478 10-10s-4.478-10-10.001-10zm-300.103 97.013c0-28.843 13.995-56.094 37.437-72.897 8.196-5.876 17.859-8.981 27.944-8.981h45.113l.589 14.353c.479 11.663-3.942 23.127-12.127 31.45l-25.306 25.733c-6.185 6.289-9.844 14.16-10.986 22.322-6.833-3.617-14.217-6.239-21.927-7.685-9.486-1.777-19.104-1.777-28.591 0-4.156.779-8.214 1.91-12.146 3.342zm72.467 132.981c0 25.441-20.699 46.14-46.143 46.14-25.442 0-46.142-20.698-46.142-46.14v-20.38c31.587-2.039 59.848-10.167 78.771-22.59 5.894 7.094 10.497 15.217 13.513 23.899v19.071zm10.793-43.08c-4.423-7.479-9.851-14.373-16.128-20.438-3.697-3.57-9.504-3.759-13.423-.429-16.378 13.915-48.34 23.101-83.469 23.997-3.355-15.006-.676-30.342 7.624-43.39 8.647-13.596 22.132-22.719 37.968-25.688 3.521-.66 7.064-.99 10.61-.99 3.544 0 7.09.33 10.609.99 15.836 2.969 29.32 12.092 37.968 25.688 7.731 12.154 10.585 26.294 8.241 40.26z"/><path d="m68.029 284.92-25.033-14.453c-4.785-2.762-10.898-1.123-13.66 3.66s-1.123 10.898 3.66 13.66l25.033 14.453c1.575.909 3.294 1.342 4.99 1.342 3.456 0 6.817-1.794 8.67-5.002 2.762-4.783 1.123-10.898-3.66-13.66z"/><path d="m103.864 256.404-14.452-25.032c-2.761-4.781-8.874-6.422-13.66-3.66-4.783 2.762-6.422 8.877-3.66 13.66l14.452 25.032c1.853 3.208 5.213 5.002 8.67 5.002 1.696 0 3.415-.433 4.99-1.342 4.783-2.761 6.422-8.876 3.66-13.66z"/><path d="m51.252 327.532h-28.905c-5.522 0-10 4.478-10 10s4.478 10 10 10h28.905c5.522 0 10-4.478 10-10s-4.478-10-10-10z"/><circle cx="215.875" cy="502" r="10"/></g></g></svg>