<svg id="Capa_1" enable-background="new 0 0 512 512" height="512" viewBox="0 0 512 512" width="512" xmlns="http://www.w3.org/2000/svg"><g><path d="m30 462h330c11.046 0 20-8.954 20-20v-412c0-11.046-8.954-20-20-20h-330c-11.046 0-20 8.954-20 20v412c0 11.046 8.954 20 20 20z" fill="#fff"/><g><path d="m358.065 331.597h41.998v40.632h-41.998z" fill="#66e0f7"/><path id="XMLID_1002_" d="m379.065 502c-15.464 0-28-12.536-28-28v-92.359c0-5.198 4.214-9.411 9.411-9.411h37.178c5.198 0 9.411 4.214 9.411 9.411v92.359c0 15.464-12.536 28-28 28z" fill="#ff7d97"/><circle id="XMLID_1005_" cx="379.063" cy="209.734" fill="#00ccf2" r="122.937"/><g id="XMLID_1006_"><circle id="XMLID_1148_" cx="379.063" cy="209.734" fill="#fff" r="82.937"/><path id="XMLID_1147_" d="m379.064 292.671c21.086 0 40.331-7.874 54.965-20.835-6.576-24.196-28.686-41.995-54.965-41.995s-48.389 17.799-54.965 41.995c14.634 12.961 33.878 20.835 54.965 20.835z" fill="#ff7d97"/><path id="XMLID_1145_" d="m405.074 197.327v6.503c0 14.365-11.645 26.011-26.011 26.011-14.365 0-26.011-11.645-26.011-26.011v-6.503c0-14.365 11.645-26.011 26.011-26.011 14.366 0 26.011 11.646 26.011 26.011z" fill="#ffc7af"/></g></g><g id="XMLID_1149_"><path d="m92.301 144c-5.112 0-10.224-1.95-14.124-5.851l-25.469-25.468c-3.51-3.51-3.511-9.202 0-12.712l15.537-15.537c3.51-3.51 9.202-3.51 12.712 0l11.344 11.344 29.143-29.143c3.51-3.51 9.202-3.51 12.712 0l15.537 15.537c3.51 3.51 3.51 9.202 0 12.712l-43.267 43.268c-3.901 3.9-9.013 5.85-14.125 5.85z" fill="#89df8f"/></g><g id="XMLID_1151_"><path d="m92.301 276c-5.112 0-10.224-1.95-14.124-5.851l-25.469-25.468c-3.51-3.51-3.511-9.202 0-12.712l15.537-15.537c3.51-3.51 9.202-3.51 12.712 0l11.344 11.344 29.143-29.143c3.51-3.51 9.202-3.51 12.712 0l15.537 15.537c3.51 3.51 3.51 9.202 0 12.712l-43.267 43.268c-3.901 3.9-9.013 5.85-14.125 5.85z" fill="#89df8f"/></g><g id="XMLID_1167_"><path d="m92.301 408c-5.112 0-10.224-1.95-14.124-5.851l-25.469-25.468c-3.51-3.51-3.511-9.202 0-12.712l15.537-15.537c3.51-3.51 9.202-3.51 12.712 0l11.344 11.344 29.143-29.143c3.51-3.51 9.202-3.51 12.712 0l15.537 15.537c3.51 3.51 3.51 9.202 0 12.712l-43.267 43.268c-3.901 3.9-9.013 5.85-14.125 5.85z" fill="#89df8f"/></g><g><path d="m512 209.734c0-69.619-53.796-126.903-122-132.484v-47.25c0-16.542-13.458-30-30-30h-120c-5.523 0-10 4.478-10 10s4.477 10 10 10h120c5.514 0 10 4.486 10 10v47.113c-67.2 4.547-120.856 59.251-123.742 126.887h-53.423c-5.523 0-10 4.478-10 10s4.477 10 10 10h54.059c6.028 56.237 47.265 102.087 101.169 115.013v27.722c-4.272 3.564-6.999 8.922-6.999 14.907v70.358h-311.064c-5.514 0-10-4.486-10-10v-412c0-5.514 4.486-10 10-10h120c5.523 0 10-4.478 10-10s-4.477-10-10-10h-120c-16.542 0-30 13.458-30 30v412c0 16.542 13.458 30 30 30h311.065v2c0 20.953 17.047 38 38 38s38-17.047 38-38v-92.358c0-5.987-2.727-11.346-7.001-14.91v-27.719c58.397-14.004 101.936-66.648 101.936-129.279zm-114.935 264.266c0 9.925-8.075 18-18 18s-18-8.075-18-18v-91.77h36zm-29.002-111.77v-20.018c3.628.299 7.296.458 11 .458s7.372-.16 11-.458v20.018zm11-39.559c-62.273 0-112.937-50.663-112.937-112.937s50.664-112.936 112.937-112.936 112.937 50.663 112.937 112.936-50.663 112.937-112.937 112.937z"/><path d="m379.063 116.798c-51.246 0-92.937 41.691-92.937 92.937s41.691 92.937 92.937 92.937 92.937-41.693 92.937-92.938-41.691-92.936-92.937-92.936zm0 165.873c-16.172 0-31.126-5.298-43.233-14.239 7.272-17.105 24.237-28.592 43.233-28.592 18.997 0 35.961 11.486 43.233 28.592-12.107 8.941-27.061 14.239-43.233 14.239zm-16.01-78.842v-6.502c0-8.828 7.183-16.011 16.011-16.011s16.011 7.183 16.011 16.011v6.502c0 8.828-7.183 16.011-16.011 16.011s-16.011-7.183-16.011-16.011zm74.2 49.82c-6.915-12.106-17.448-21.696-29.941-27.526 4.854-6.137 7.762-13.879 7.762-22.293v-6.502c0-19.856-16.154-36.011-36.011-36.011s-36.011 16.154-36.011 36.011v6.502c0 8.414 2.908 16.156 7.762 22.293-12.493 5.83-23.025 15.42-29.941 27.526-9.249-12.225-14.747-27.438-14.747-43.915 0-40.218 32.719-72.937 72.937-72.937s72.937 32.72 72.937 72.937c0 16.477-5.498 31.69-14.747 43.915z"/><path d="m156.764 75.099-15.536-15.536c-3.587-3.587-8.355-5.563-13.428-5.563s-9.841 1.976-13.427 5.562l-22.072 22.072-4.272-4.271c-3.587-3.587-8.355-5.562-13.428-5.562s-9.841 1.976-13.427 5.562l-15.538 15.536c-3.586 3.586-5.561 8.354-5.561 13.427s1.976 9.841 5.562 13.427l25.468 25.468c5.662 5.661 13.189 8.779 21.196 8.779s15.535-3.118 21.196-8.779l43.268-43.269c3.586-3.587 5.561-8.355 5.561-13.427s-1.976-9.84-5.562-13.426zm-57.41 55.979c-1.884 1.884-4.389 2.922-7.054 2.922-2.664 0-5.169-1.038-7.053-2.922l-24.753-24.753 14.107-14.106 10.628 10.629c3.905 3.904 10.237 3.904 14.143 0l28.428-28.429 14.106 14.107z"/><path d="m192.835 92h81.425c5.523 0 10-4.478 10-10s-4.477-10-10-10h-81.425c-5.523 0-10 4.478-10 10s4.477 10 10 10z"/><path d="m192.835 136h36.583c5.523 0 10-4.478 10-10s-4.477-10-10-10h-36.583c-5.523 0-10 4.478-10 10s4.477 10 10 10z"/><path d="m156.764 207.099-15.536-15.536c-3.587-3.587-8.355-5.562-13.428-5.562s-9.841 1.976-13.427 5.562l-22.072 22.072-4.272-4.271c-3.587-3.587-8.355-5.562-13.428-5.562s-9.841 1.976-13.427 5.562l-15.538 15.538c-3.586 3.586-5.561 8.354-5.561 13.427s1.976 9.841 5.562 13.427l25.468 25.468c5.662 5.658 13.189 8.776 21.196 8.776s15.535-3.118 21.196-8.779l43.268-43.269c3.586-3.587 5.561-8.355 5.561-13.427s-1.976-9.84-5.562-13.426zm-57.41 55.979c-1.884 1.884-4.389 2.922-7.054 2.922-2.664 0-5.169-1.038-7.053-2.922l-24.753-24.753 14.107-14.106 10.628 10.629c3.905 3.904 10.237 3.904 14.143 0l28.428-28.429 14.106 14.107z"/><path d="m192.835 268h25.019c5.523 0 10-4.478 10-10s-4.477-10-10-10h-25.019c-5.523 0-10 4.478-10 10s4.477 10 10 10z"/><path d="m141.228 323.562c-3.587-3.587-8.355-5.562-13.428-5.562s-9.841 1.976-13.427 5.562l-22.072 22.072-4.272-4.271c-3.587-3.587-8.355-5.562-13.428-5.562s-9.841 1.976-13.427 5.562l-15.538 15.538c-3.586 3.586-5.561 8.354-5.561 13.427s1.976 9.841 5.562 13.427l25.468 25.468c5.662 5.659 13.189 8.777 21.196 8.777s15.535-3.118 21.196-8.779l43.268-43.269c3.586-3.587 5.561-8.355 5.561-13.427s-1.976-9.841-5.562-13.427zm-41.874 71.516c-1.884 1.884-4.389 2.922-7.054 2.922-2.664 0-5.169-1.038-7.053-2.922l-24.753-24.753 14.107-14.106 10.628 10.629c3.905 3.904 10.237 3.904 14.143 0l28.428-28.429 14.106 14.107z"/><path d="m192.835 356h81.425c5.523 0 10-4.478 10-10s-4.477-10-10-10h-81.425c-5.523 0-10 4.478-10 10s4.477 10 10 10z"/><path d="m192.835 400h36.583c5.523 0 10-4.478 10-10s-4.477-10-10-10h-36.583c-5.523 0-10 4.478-10 10s4.477 10 10 10z"/><circle cx="195" cy="10.004" r="10"/></g></g></svg>