<svg id="Capa_1" enable-background="new 0 0 512.003 512.003" height="512" viewBox="0 0 512.003 512.003" width="512" xmlns="http://www.w3.org/2000/svg"><g><path d="m396.392 289.96-141.658-141.657-.862.563c-22.278-14.555-50.134-18.495-75.867-10.253l-8.147 2.609c-12.198 3.907-25.557.78-34.754-8.136l-72.689 125.946 63.563 46.039 137.269 93.281 12.015 12.014c8.186 8.185 21.522 8.792 29.994.903 8.894-8.282 9.081-22.213.56-30.733 8.337 8.337 21.855 8.337 30.192 0 8.337-8.337 8.337-21.854 0-30.192 8.337 8.337 21.855 8.337 30.192 0s8.337-21.855 0-30.192c8.337 8.337 21.855 8.337 30.192 0 8.337-8.337 8.337-21.854 0-30.192z" fill="#ffc7af"/><g fill="#ffd0c7"><path d="m453.671 266.953-51.575 31.291-101.18-103.761-56.435 32.931c-10.425 6.083-23.641 4.375-32.176-4.161-10.93-10.93-10.258-28.848 1.461-38.928l36.111-31.061c23.475-20.192 55.753-26.742 85.242-17.297l10.327 3.308c10.829 3.468 22.688.595 30.728-7.445z"/><path d="m132.134 318.121c-8.337-8.337-8.337-21.855 0-30.192l25.36-25.36c8.337-8.337 21.855-8.337 30.192 0 8.337 8.337 8.337 21.855 0 30.192l-25.36 25.36c-8.338 8.338-21.855 8.338-30.192 0z"/><path d="m162.326 348.313c-8.337-8.337-8.337-21.855 0-30.192l25.36-25.36c8.337-8.337 21.855-8.337 30.192 0 8.337 8.337 8.337 21.855 0 30.192l-25.36 25.36c-8.337 8.338-21.855 8.338-30.192 0z"/><path d="m192.518 378.505c-8.337-8.337-8.337-21.855 0-30.192l25.36-25.36c8.337-8.337 21.855-8.337 30.192 0 8.337 8.337 8.337 21.855 0 30.192l-25.36 25.36c-8.337 8.338-21.855 8.338-30.192 0z"/><path d="m222.71 408.698c-8.337-8.337-8.337-21.855 0-30.192l25.36-25.36c8.337-8.337 21.855-8.337 30.192 0 8.337 8.337 8.337 21.855 0 30.192l-25.36 25.36c-8.337 8.337-21.855 8.337-30.192 0z"/></g><path d="m410.932 95.266h49.288v180.333h-49.288z" fill="#00ccf2" transform="matrix(.866 -.5 .5 .866 -34.36 242.631)"/><path d="m51.783 95.266h49.288v180.333h-49.288z" fill="#ffcd69" transform="matrix(-.866 -.5 .5 -.866 49.899 384.234)"/><g><path d="m510.662 246.196-22.744-39.394c-2.761-4.782-8.878-6.423-13.66-3.66-4.783 2.762-6.422 8.877-3.66 13.66l17.744 30.733-25.364 14.645-80.166-138.853 25.364-14.644 17.423 30.178c2.761 4.781 8.876 6.422 13.66 3.66 4.783-2.762 6.422-8.877 3.66-13.66l-22.423-38.838c-2.761-4.783-8.878-6.422-13.66-3.66l-42.684 24.644c-4.783 2.762-6.422 8.877-3.66 13.66l2.483 4.301c-4.485 2-9.613 2.341-14.478.784l-10.327-3.308c-28.158-9.02-59.129-4.715-83.756 11.03-24.12-13.852-52.744-16.941-79.458-8.385l-8.147 2.609c-6.234 1.999-12.864 1.412-18.539-1.414l3.243-5.618c2.762-4.783 1.123-10.898-3.66-13.66l-42.684-24.644c-4.782-2.76-10.898-1.122-13.66 3.66l-90.167 156.174c-2.762 4.783-1.123 10.898 3.66 13.66l42.685 24.645c1.533.886 3.26 1.34 5 1.34.866 0 1.736-.112 2.588-.341 2.562-.687 4.746-2.362 6.072-4.659l4.166-7.216 51.369 37.207c1.345 5.265 4.067 10.248 8.181 14.362 5.826 5.825 13.39 8.867 21.037 9.14.277 7.955 3.498 15.395 9.154 21.051 5.654 5.654 13.088 8.874 21.038 9.154.28 7.95 3.5 15.384 9.155 21.038 5.828 5.828 13.4 8.871 21.051 9.141.27 7.651 3.312 15.222 9.14 21.051v.001c6.111 6.111 14.139 9.167 22.167 9.167s16.056-3.056 22.167-9.167l3.274-3.274 5.305 5.305c5.921 5.921 13.793 9.182 22.167 9.182s16.246-3.261 22.167-9.182c5.657-5.657 8.878-13.096 9.155-21.051 7.647-.273 15.213-3.315 21.038-9.14 5.657-5.658 8.878-13.097 9.154-21.052 7.647-.273 15.212-3.316 21.037-9.14 5.654-5.653 8.875-13.087 9.155-21.037 7.95-.28 15.384-3.501 21.037-9.155 5.921-5.921 9.182-13.793 9.182-22.167 0-.5-.013-.997-.036-1.493l37.894-22.99.155.268c1.326 2.297 3.51 3.973 6.072 4.659.852.229 1.722.341 2.588.341 1.741 0 3.467-.454 5-1.34l42.685-24.645c4.783-2.765 6.423-8.88 3.661-13.663zm-487 1.34 80.167-138.852 25.364 14.644-80.167 138.852zm115.543 63.515c-4.425-4.426-4.425-11.626 0-16.051l25.36-25.36c4.425-4.426 11.625-4.426 16.05 0 2.144 2.144 3.324 4.994 3.324 8.025s-1.18 5.881-3.324 8.024l-25.359 25.36c-4.426 4.425-11.626 4.425-16.051.002zm30.192 30.191c-2.144-2.144-3.324-4.993-3.324-8.024s1.18-5.881 3.324-8.024l25.359-25.36c2.213-2.213 5.119-3.318 8.025-3.318s5.812 1.106 8.025 3.318c2.144 2.144 3.324 4.993 3.324 8.024s-1.181 5.882-3.324 8.025l-25.36 25.359c-2.144 2.145-4.994 3.324-8.025 3.324-3.03 0-5.88-1.18-8.024-3.324zm26.868 22.168c0-3.031 1.181-5.882 3.324-8.025l25.36-25.359c2.144-2.145 4.994-3.324 8.025-3.324s5.881 1.18 8.025 3.324 3.324 4.993 3.324 8.024-1.18 5.881-3.324 8.024l-25.36 25.36c-4.425 4.426-11.625 4.426-16.05 0-2.144-2.143-3.324-4.993-3.324-8.024zm33.515 38.217c-4.424-4.425-4.424-11.625 0-16.05l25.36-25.36c4.425-4.426 11.625-4.425 16.05 0 2.144 2.144 3.324 4.994 3.324 8.025s-1.18 5.881-3.324 8.024l-25.359 25.36c-4.426 4.426-11.625 4.426-16.051.001zm68.964 2.031c-2.144 2.144-4.993 3.323-8.024 3.323s-5.881-1.18-8.025-3.324l-5.305-5.305 7.943-7.943c2.82-2.82 5.029-6.086 6.577-9.635l6.835 6.834c2.144 2.144 3.324 4.993 3.324 8.024s-1.181 5.881-3.325 8.026zm90.577-90.576c-2.144 2.144-4.993 3.324-8.024 3.324s-5.881-1.181-8.025-3.325l-63.14-63.14c-3.904-3.904-10.237-3.904-14.142 0-3.905 3.905-3.905 10.237 0 14.143l63.14 63.14c2.144 2.144 3.324 4.994 3.324 8.025s-1.18 5.881-3.324 8.024c-4.425 4.425-11.625 4.424-16.05 0l-63.141-63.14c-3.905-3.904-10.237-3.904-14.142 0-3.905 3.905-3.905 10.237 0 14.143l63.14 63.14c2.144 2.144 3.324 4.993 3.324 8.024s-1.181 5.882-3.324 8.025c-4.426 4.425-11.626 4.423-16.05 0 0 0-28.376-28.286-28.864-28.623-5.626-5.021-12.641-7.655-19.727-7.909-.277-7.955-3.498-15.395-9.154-21.051-5.654-5.654-13.088-8.874-21.038-9.154-.28-7.95-3.5-15.384-9.154-21.038-5.825-5.825-13.39-8.867-21.037-9.14-.277-7.955-3.498-15.395-9.155-21.052-12.223-12.223-32.111-12.223-44.334 0l-25.36 25.36c-2.206 2.206-4.007 4.664-5.417 7.279l-44.079-31.927 62.689-108.581c10.503 5.602 22.964 6.86 34.653 3.116l8.147-2.609c18.652-5.975 38.469-4.834 56.026 2.944l-29.837 25.664c-7.688 6.613-12.315 16.218-12.696 26.352s3.514 20.059 10.685 27.229c11.737 11.738 29.949 14.094 44.287 5.726l49.776-29.045 90.025 90.025c2.144 2.144 3.324 4.993 3.324 8.024s-1.182 5.882-3.326 8.027zm15.811-28.376c-.533-.622-97.146-97.293-97.146-97.293-3.212-3.213-8.187-3.857-12.111-1.565l-56.435 32.931c-6.496 3.788-14.748 2.725-20.065-2.595-3.297-3.297-5.016-7.678-4.841-12.337s2.218-8.899 5.752-11.939l36.111-31.061c20.688-17.793 49.685-23.677 75.671-15.354l10.326 3.308c10.34 3.312 21.279 2.295 30.605-2.466l67.5 116.914z"/><circle cx="456.761" cy="172.83" r="10"/></g></g></svg>