<svg id="Capa_1" enable-background="new 0 0 512 512" height="512" viewBox="0 0 512 512" width="512" xmlns="http://www.w3.org/2000/svg"><g><path d="m235.5 86.083v-76.083h-180.337c-24.943 0-45.163 20.22-45.163 45.163v180.337h76.083c0-20.25 16.416-36.667 36.667-36.667s36.667 16.416 36.667 36.667h76.083v-76.083c20.25 0 36.667-16.416 36.667-36.667s-16.416-36.667-36.667-36.667z" fill="#ffcd69"/><path d="m235.5 10v76.083c20.25 0 36.667 16.416 36.667 36.667 0 20.25-16.416 36.666-36.667 36.666v76.084h76.083c0 20.251 16.416 36.667 36.667 36.667s36.667-16.416 36.667-36.667h76.083v-180.337c0-24.943-20.22-45.163-45.163-45.163z" fill="#00ccf2"/><path d="m235.5 311.584v-76.084h-76.083c0-20.25-16.416-36.667-36.667-36.667s-36.667 16.417-36.667 36.667h-76.083v180.337c0 24.943 20.22 45.163 45.163 45.163h180.337v-76.083c-20.25 0-36.667-16.416-36.667-36.667s16.417-36.666 36.667-36.666z" fill="#ff7d97"/><path d="m276.5 425.917v76.083h180.237c24.998 0 45.263-20.265 45.263-45.263v-180.237h-76.083c0 20.25-16.416 36.667-36.667 36.667-20.25 0-36.667-16.416-36.667-36.667h-76.083v76.083c-20.25 0-36.667 16.416-36.667 36.667 0 20.25 16.416 36.667 36.667 36.667z" fill="#89df8f"/><g id="XMLID_43_"><path id="XMLID_1171_" d="m456.565 502v-24.964c0-21.587-17.499-39.086-39.086-39.086h-56.458c-21.587 0-39.086 17.499-39.086 39.086v24.964z" fill="#fff"/><g id="XMLID_1169_"><path id="XMLID_1170_" d="m389.25 358.375c-20.231 0-36.632 16.401-36.632 36.632v6.311c0 20.231 16.401 36.632 36.632 36.632 20.231 0 36.632-16.401 36.632-36.632v-6.311c0-20.231-16.401-36.632-36.632-36.632z" fill="#ffd0c7"/></g></g><g><path d="m502 266.5h-76.083c-5.522 0-10 4.478-10 10 0 14.704-11.963 26.666-26.667 26.666-13.574 0-24.803-10.196-26.451-23.33 15.533-5.11 27.495-18.163 31.04-34.336h67.162c5.522 0 10-4.478 10-10v-62.5c0-5.522-4.478-10-10-10s-10 4.478-10 10v52.5h-66.084c-5.522 0-10 4.478-10 10 0 14.704-11.962 26.667-26.666 26.667s-26.667-11.963-26.667-26.667c0-5.522-4.478-10-10-10h-66.084v-57.161c20.943-4.591 36.667-23.288 36.667-45.589s-15.724-40.998-36.667-45.589v-57.161h170.238c19.444 0 35.263 15.818 35.263 35.263v27.737c0 5.522 4.478 10 10 10s10-4.478 10-10v-27.737c0-30.472-24.791-55.263-55.263-55.263h-360.475c-30.472 0-55.263 24.791-55.263 55.263v360.476c0 30.472 24.791 55.263 55.263 55.263h180.237c5.523 0 10-4.478 10-10v-36.902c5.868 5.226 13.057 8.999 21 10.74v67.16c0 5.522 4.478 10 10 10h180.237c30.472 0 55.263-24.791 55.263-55.263v-180.237c0-5.522-4.478-10-10-10zm-482-211.237c0-19.445 15.819-35.263 35.263-35.263h170.237v66.083c0 5.522 4.477 10 10 10 14.704 0 26.667 11.963 26.667 26.667s-11.962 26.667-26.667 26.667c-5.523 0-10 4.478-10 10v66.083h-57.162c-4.59-20.942-23.288-36.666-45.588-36.666s-40.998 15.724-45.588 36.666h-57.162zm205.5 395.738h-170.237c-19.444 0-35.263-15.818-35.263-35.263v-170.238h66.083c5.523 0 10-4.478 10-10 0-14.704 11.962-26.666 26.667-26.666s26.667 11.962 26.667 26.666c0 5.522 4.477 10 10 10h66.083v57.174c-20.941 4.591-36.667 23.277-36.667 45.577 0 22.299 15.726 40.984 36.667 45.576zm6.664-76.3c-13.134-1.647-23.33-12.876-23.33-26.45 0-14.704 11.963-26.667 26.667-26.667 5.523 0 10-4.478 10-10v-66.084h57.162c1.741 7.942 5.515 15.132 10.741 21h-36.904c-5.522 0-10 4.478-10 10v67.161c-16.173 3.546-29.226 15.506-34.336 31.04zm214.4 117.299h-114.63v-14.964c0-16.038 13.048-29.086 29.086-29.086h18.229v13.051c0 5.522 4.478 10 10 10s10-4.478 10-10v-13.051h18.229c16.038 0 29.086 13.048 29.086 29.086zm-83.946-90.683v-6.311c0-14.685 11.947-26.632 26.632-26.632s26.632 11.947 26.632 26.632v6.311c0 14.686-11.947 26.633-26.632 26.633s-26.632-11.947-26.632-26.633zm129.382 55.42c0 16.034-10.76 29.593-25.436 33.859v-13.56c0-23.861-17.117-43.791-39.715-48.178 5.672-7.723 9.032-17.245 9.032-27.541v-6.311c0-25.713-20.919-46.632-46.632-46.632s-46.632 20.919-46.632 46.632v6.311c0 10.295 3.36 19.817 9.032 27.541-22.598 4.387-39.716 24.316-39.716 48.178v14.964h-25.433v-66.083c0-5.522-4.478-10-10-10-14.704 0-26.667-11.963-26.667-26.667s11.963-26.667 26.667-26.667c5.522 0 10-4.478 10-10v-66.083h57.161c4.591 20.942 23.288 36.666 45.589 36.666s40.998-15.724 45.589-36.666h57.161z"/><circle cx="461" cy="128.002" r="10"/></g></g></svg>