<svg id="Capa_1" enable-background="new 0 0 512 512" height="512" viewBox="0 0 512 512" width="512" xmlns="http://www.w3.org/2000/svg"><g><path d="m30 10c-11.046 0-20 8.954-20 20v452c0 11.046 8.954 20 20 20h387.086c11.046 0 20-8.954 20-20v-396.294l-75.706-75.706z" fill="#fff"/><path d="m376.876 85.706h60.21l-75.706-75.706v60.21c0 8.558 6.938 15.496 15.496 15.496z" fill="#ffcd69"/><path d="m236.127 259.219h-152.024c-11.046 0-20 8.954-20 20 0 11.046 8.954 20 20 20h152.024c11.046 0 20-8.954 20-20 0-11.045-8.954-20-20-20z" fill="#ffcd69"/><g id="XMLID_2283_"><circle id="XMLID_2302_" cx="141.61" cy="141.61" fill="#00ccf2" r="77.61"/><path id="XMLID_2301_" d="m141.61 219.219c19.732 0 37.74-7.368 51.434-19.497-6.154-22.642-26.843-39.298-51.434-39.298s-45.281 16.656-51.434 39.298c13.693 12.129 31.702 19.497 51.434 19.497z" fill="#fff"/><path id="XMLID_2297_" d="m165.95 129.999v6.085c0 13.443-10.897 24.34-24.34 24.34-13.443 0-24.34-10.897-24.34-24.34v-6.085c0-13.443 10.897-24.34 24.34-24.34 13.442 0 24.34 10.897 24.34 24.34z" fill="#ffc7af"/></g><g id="XMLID_17_"><circle id="XMLID_88_" cx="403" cy="403" fill="#89df8f" r="99"/></g><g id="XMLID_89_"><path d="m391.089 444.554c-5.118 0-10.236-1.953-14.142-5.858l-25.5-25.499c-3.515-3.515-3.515-9.213 0-12.728l15.556-15.557c3.515-3.515 9.213-3.515 12.728 0l11.358 11.358 29.18-29.18c3.515-3.515 9.213-3.515 12.728 0l15.556 15.556c3.515 3.515 3.515 9.213 0 12.728l-43.321 43.322c-3.905 3.906-9.025 5.858-14.143 5.858z" fill="#fff"/></g><g><path d="m256 373.219h-191.897c-5.523 0-10 4.477-10 10s4.477 10 10 10h191.897c5.523 0 10-4.477 10-10s-4.477-10-10-10z"/><path d="m256 329.219h-191.897c-5.523 0-10 4.477-10 10s4.477 10 10 10h191.897c5.523 0 10-4.477 10-10s-4.477-10-10-10z"/><path d="m256 417.219h-191.897c-5.523 0-10 4.477-10 10s4.477 10 10 10h191.897c5.523 0 10-4.477 10-10s-4.477-10-10-10z"/><path d="m274.256 185.219h116.31c5.523 0 10-4.477 10-10s-4.477-10-10-10h-116.31c-5.523 0-10 4.477-10 10s4.477 10 10 10z"/><path d="m274.256 141.219h116.31c5.523 0 10-4.477 10-10s-4.477-10-10-10h-116.31c-5.523 0-10 4.477-10 10s4.477 10 10 10z"/><path d="m236.127 249.219h-152.024c-16.542 0-30 13.458-30 30s13.458 30 30 30h152.024c16.542 0 30-13.458 30-30s-13.458-30-30-30zm0 40h-152.024c-5.514 0-10-4.486-10-10s4.486-10 10-10h152.024c5.514 0 10 4.486 10 10s-4.486 10-10 10z"/><path d="m141.61 54c-48.308 0-87.61 39.302-87.61 87.61s39.302 87.609 87.61 87.609 87.609-39.301 87.609-87.609-39.301-87.61-87.609-87.61zm-39.659 142.316c6.815-15.511 22.318-25.892 39.659-25.892s32.844 10.381 39.658 25.892c-11.149 8.105-24.851 12.903-39.658 12.903-14.808 0-28.51-4.798-39.659-12.903zm53.999-60.232c0 7.907-6.433 14.34-14.34 14.34s-14.34-6.433-14.34-14.34v-6.085c0-7.907 6.433-14.34 14.34-14.34s14.34 6.433 14.34 14.34zm40.17 45.46c-6.401-10.811-15.87-19.44-27.069-24.841 4.328-5.746 6.899-12.888 6.899-20.619v-6.085c0-18.936-15.405-34.34-34.34-34.34-18.936 0-34.34 15.405-34.34 34.34v6.085c0 7.732 2.57 14.873 6.899 20.619-11.199 5.401-20.668 14.03-27.069 24.841-8.227-11.198-13.1-25.005-13.1-39.934 0-37.28 30.33-67.61 67.61-67.61s67.609 30.33 67.609 67.61c0 14.929-4.873 28.736-13.099 39.934z"/><path d="m447.086 303.324v-217.617c0-2.652-1.054-5.196-2.929-7.071l-75.706-75.707c-1.876-1.875-4.419-2.929-7.072-2.929h-120.689c-5.523 0-10 4.477-10 10s4.477 10 10 10h110.689v50.209c0 14.059 11.438 25.497 25.497 25.497h50.209v200.98c-7.75-1.754-15.811-2.686-24.085-2.686-60.103 0-109 48.897-109 109 0 36.711 18.244 69.239 46.14 89h-310.14c-5.514 0-10-4.486-10-10v-452c0-5.514 4.486-10 10-10h120.69c5.523 0 10-4.477 10-10s-4.477-10-10-10h-120.69c-16.542 0-30 13.458-30 30v452c0 16.542 13.458 30 30 30h373c60.103 0 109-48.897 109-109 0-44.421-26.712-82.714-64.914-99.676zm-75.707-233.115v-36.067l41.564 41.564h-36.067c-3.031.001-5.497-2.465-5.497-5.497zm31.621 421.791c-49.075 0-89-39.925-89-89s39.925-89 89-89 89 39.925 89 89-39.925 89-89 89z"/><path d="m440.068 360.019c-7.408-7.407-19.462-7.407-26.87 0l-22.108 22.109-4.287-4.287c-3.589-3.588-8.36-5.565-13.436-5.564-5.075 0-9.846 1.977-13.434 5.565l-15.558 15.557c-3.588 3.589-5.564 8.36-5.564 13.435s1.977 9.847 5.565 13.435l25.5 25.5c5.667 5.666 13.2 8.787 21.213 8.787 8.014 0 15.547-3.121 21.214-8.787l43.321-43.321c7.407-7.408 7.408-19.461 0-26.871zm-41.907 71.606c-1.889 1.889-4.4 2.929-7.071 2.929s-5.182-1.04-7.071-2.929l-24.793-24.792 14.142-14.142 10.651 10.65c3.905 3.905 10.237 3.904 14.142 0l28.472-28.473 14.142 14.142z"/><circle cx="195.69" cy="10" r="10"/></g></g></svg>