<svg height="512pt" viewBox="0 -59 512.001 512" width="512pt" xmlns="http://www.w3.org/2000/svg"><path d="m484.730469 112.53125h-179.71875c-15.035157 0-27.269531 12.234375-27.269531 27.273438v35.011718c0 15.035156 12.234374 27.269532 27.269531 27.269532h24.003906c8.949219 0 16.902344-4.332032 21.878906-11.007813h4.703125v124.730469c-12.078125 2.800781-21.109375 13.652344-21.109375 26.570312v24.003906c0 15.039063 12.234375 27.269532 27.269531 27.269532h66.226563c15.039063 0 27.273437-12.234375 27.273437-27.269532v-24.003906c0-12.917968-9.03125-23.769531-21.113281-26.570312v-124.730469h4.703125c4.976563 6.675781 12.929688 11.007813 21.878906 11.007813h24.003907c15.039062 0 27.269531-12.234376 27.269531-27.269532v-35.011718c0-15.039063-12.234375-27.273438-27.269531-27.273438zm0 0" fill="#60b8ff"/><path d="m304.648438 174.816406v-35.011718c0-15.039063 12.234374-27.273438 27.273437-27.273438h-26.910156c-15.035157 0-27.269531 12.234375-27.269531 27.273438v35.011718c0 15.035156 12.234374 27.269532 27.269531 27.269532h24.003906c.476563 0 .945313-.019532 1.410156-.042969-14.34375-.777344-25.777343-12.691407-25.777343-27.226563zm0 0" fill="#22a7ff"/><path d="m361.394531 366.382812v-24.003906c0-12.917968 9.03125-23.769531 21.113281-26.570312v-135.738282c-2.707031 0-5.335937 1.023438-7.242187 2.941407-4.941406 4.980469-11.789063 8.066406-19.339844 8.066406h-.328125v124.730469c-12.082031 2.800781-21.113281 13.652344-21.113281 26.570312v24.003906c0 15.0625 12.210937 27.269532 27.273437 27.269532h26.90625c-15.035156 0-27.269531-12.234375-27.269531-27.269532zm0 0" fill="#22a7ff"/><path d="m299.785156 0h-296.515625c-1.804687 0-3.269531 1.464844-3.269531 3.269531v58.464844c0 1.804687 1.464844 3.269531 3.269531 3.269531h40.082031c1.804688 0 3.265626-1.464844 3.265626-3.269531v-11.84375c0-1.804687 1.464843-3.269531 3.269531-3.269531h75.0625c1.804687 0 3.269531 1.464844 3.269531 3.269531v293.875c0 1.804687-1.464844 3.269531-3.269531 3.269531h-28.714844c-1.804687 0-3.269531 1.460938-3.269531 3.265625v40.082031c0 1.808594 1.464844 3.269532 3.269531 3.269532h110.585937c1.804688 0 3.269532-1.460938 3.269532-3.269532v-40.082031c0-1.804687-1.464844-3.265625-3.269532-3.265625h-28.714843c-1.804688 0-3.269531-1.464844-3.269531-3.269531v-293.875c0-1.804687 1.464843-3.269531 3.269531-3.269531h75.058593c1.808594 0 3.269532 1.464844 3.269532 3.269531v11.84375c0 1.804687 1.464844 3.269531 3.269531 3.269531h40.082031c1.808594 0 3.269532-1.464844 3.269532-3.269531v-58.464844c0-1.804687-1.464844-3.269531-3.269532-3.269531zm0 0" fill="#d9edff"/><g fill="#b4dbff"><path d="m123.613281 390.382812v-40.078124c0-1.808594 1.464844-3.269532 3.269531-3.269532h28.714844c1.804688 0 3.265625-1.464844 3.265625-3.269531v-293.875c0-1.804687-1.460937-3.269531-3.265625-3.269531h-30.648437c1.804687 0 3.269531 1.464844 3.269531 3.269531v293.875c0 1.804687-1.464844 3.269531-3.269531 3.269531h-28.714844c-1.804687 0-3.269531 1.464844-3.269531 3.269532v40.078124c0 1.808594 1.464844 3.273438 3.269531 3.273438h30.648437c-1.804687-.003906-3.269531-1.464844-3.269531-3.273438zm0 0"/><path d="m30.648438 61.734375v-58.464844c0-1.804687 1.464843-3.269531 3.269531-3.269531h-30.648438c-1.804687 0-3.269531 1.464844-3.269531 3.269531v58.464844c0 1.804687 1.464844 3.269531 3.269531 3.269531h30.648438c-1.808594 0-3.269531-1.464844-3.269531-3.269531zm0 0"/><path d="m287.082031 61.734375v-11.84375c0-1.804687-1.464843-3.269531-3.269531-3.269531h-30.648438c1.808594 0 3.269532 1.464844 3.269532 3.269531v11.84375c0 1.804687 1.464844 3.269531 3.269531 3.269531h30.648437c-1.804687 0-3.269531-1.464844-3.269531-3.269531zm0 0"/></g><path d="m484.730469 137.84375h-179.71875c-1.078125 0-1.957031.878906-1.957031 1.960938v35.011718c0 1.082032.878906 1.957032 1.957031 1.957032h24.003906c1.082031 0 1.957031-.875 1.957031-1.957032v-7.09375c0-1.082031.878906-1.957031 1.960938-1.957031h46.019531c1.082031 0 1.957031.875 1.957031 1.957031v170.742188c0 1.078125-.875 1.957031-1.957031 1.957031h-17.195313c-1.082031 0-1.957031.875-1.957031 1.957031v24.003906c0 1.082032.875 1.957032 1.957031 1.957032h66.226563c1.078125 0 1.957031-.875 1.957031-1.957032v-24.003906c0-1.082031-.878906-1.957031-1.957031-1.957031h-17.195313c-1.082031 0-1.960937-.878906-1.960937-1.957031v-170.742188c0-1.082031.878906-1.957031 1.960937-1.957031h46.019532c1.082031 0 1.957031.875 1.957031 1.957031v7.09375c0 1.082032.878906 1.957032 1.960937 1.957032h24c1.082032 0 1.960938-.875 1.960938-1.957032v-35.011718c0-1.082032-.878906-1.960938-1.957031-1.960938zm0 0" fill="#0094fd"/></svg>