<svg height="512pt" viewBox="0 -41 512.00015 512" width="512pt" xmlns="http://www.w3.org/2000/svg"><path d="m30.558594 57.609375h38.03125v314.546875h-38.03125zm0 0" fill="#ff8088"/><path d="m30.558594 57.609375h25.601562v314.546875h-25.601562zm0 0" fill="#ff646f"/><path d="m503.210938 0h-362.949219c-4.855469 0-8.789063 3.9375-8.789063 8.792969v20.449219c0 4.855468 3.933594 8.789062 8.789063 8.789062h362.949219c4.855468 0 8.789062-3.933594 8.789062-8.789062v-20.453126c0-4.851562-3.9375-8.789062-8.789062-8.789062zm0 0" fill="#d9edff"/><path d="m503.210938 78.464844h-362.949219c-4.855469 0-8.789063 3.933594-8.789063 8.789062v20.453125c0 4.855469 3.933594 8.789063 8.789063 8.789063h362.949219c4.855468 0 8.789062-3.933594 8.789062-8.789063v-20.453125c0-4.855468-3.9375-8.789062-8.789062-8.789062zm0 0" fill="#6c7fd9"/><path d="m503.210938 12.277344h-362.949219c-3.929688 0-7.257813-2.578125-8.382813-6.136719-.265625.835937-.40625 1.726563-.40625 2.652344v20.449219c0 4.855468 3.933594 8.789062 8.789063 8.789062h362.949219c4.855468 0 8.789062-3.933594 8.789062-8.789062v-20.453126c0-.921874-.144531-1.8125-.410156-2.648437-1.125 3.558594-4.449219 6.136719-8.378906 6.136719zm0 0" fill="#b4dbff"/><path d="m503.210938 90.742188h-362.949219c-3.929688 0-7.257813-2.578126-8.382813-6.136719-.265625.835937-.40625 1.726562-.40625 2.648437v20.453125c0 4.855469 3.933594 8.789063 8.789063 8.789063h362.949219c4.855468 0 8.789062-3.933594 8.789062-8.789063v-20.453125c0-.921875-.144531-1.8125-.410156-2.648437-1.125 3.554687-4.449219 6.136719-8.378906 6.136719zm0 0" fill="#4f66d1"/><path d="m97.792969 54.292969-43.8125-52.238281c-2.296875-2.738282-6.515625-2.738282-8.8125 0l-43.8125 52.238281c-3.136719 3.742187-.476563 9.449219 4.40625 9.449219h87.621093c4.886719-.003907 7.546876-5.707032 4.410157-9.449219zm0 0" fill="#ff646f"/><path d="m97.792969 376.0625-43.8125 52.234375c-2.296875 2.738281-6.515625 2.738281-8.8125 0l-43.8125-52.234375c-3.136719-3.746094-.476563-9.449219 4.40625-9.449219h87.621093c4.886719 0 7.546876 5.703125 4.410157 9.449219zm0 0" fill="#ff646f"/><path d="m42.046875 54.292969 27.875-33.234375-15.941406-19.003906c-2.296875-2.738282-6.515625-2.738282-8.8125 0l-43.8125 52.238281c-3.136719 3.742187-.476563 9.449219 4.40625 9.449219h40.695312c-4.886719-.003907-7.550781-5.707032-4.410156-9.449219zm0 0" fill="#fc2b3a"/><path d="m42.046875 376.0625c-3.136719-3.746094-.476563-9.449219 4.410156-9.449219h-40.695312c-4.882813 0-7.546875 5.703125-4.40625 9.449219l43.8125 52.234375c2.296875 2.738281 6.515625 2.738281 8.8125 0l15.941406-19.003906zm0 0" fill="#fc2b3a"/><path d="m503.210938 156.929688h-362.949219c-4.855469 0-8.789063 3.933593-8.789063 8.789062v20.449219c0 4.855469 3.933594 8.792969 8.789063 8.792969h362.949219c4.855468 0 8.789062-3.9375 8.789062-8.792969v-20.449219c0-4.855469-3.9375-8.789062-8.789062-8.789062zm0 0" fill="#d9edff"/><path d="m503.210938 235.390625h-362.949219c-4.855469 0-8.789063 3.9375-8.789063 8.792969v20.449218c0 4.855469 3.933594 8.792969 8.789063 8.792969h362.949219c4.855468 0 8.789062-3.9375 8.789062-8.792969v-20.449218c0-4.855469-3.9375-8.792969-8.789062-8.792969zm0 0" fill="#6c7fd9"/><path d="m503.210938 169.207031h-362.949219c-3.929688 0-7.257813-2.582031-8.382813-6.140625-.265625.839844-.40625 1.726563-.40625 2.652344v20.453125c0 4.855469 3.933594 8.789063 8.789063 8.789063h362.949219c4.855468 0 8.789062-3.933594 8.789062-8.789063v-20.453125c0-.921875-.144531-1.8125-.410156-2.652344-1.125 3.558594-4.449219 6.140625-8.378906 6.140625zm0 0" fill="#b4dbff"/><path d="m503.210938 247.671875h-362.949219c-3.929688 0-7.257813-2.582031-8.382813-6.140625-.265625.835938-.40625 1.726562-.40625 2.652344v20.453125c0 4.851562 3.933594 8.789062 8.789063 8.789062h362.949219c4.855468 0 8.789062-3.9375 8.789062-8.789062v-20.453125c0-.921875-.144531-1.816406-.410156-2.652344-1.125 3.558594-4.449219 6.140625-8.378906 6.140625zm0 0" fill="#4f66d1"/><path d="m503.210938 313.90625h-362.949219c-4.855469 0-8.789063 3.9375-8.789063 8.792969v20.449219c0 4.855468 3.933594 8.792968 8.789063 8.792968h362.949219c4.855468 0 8.789062-3.9375 8.789062-8.792968v-20.449219c0-4.855469-3.9375-8.792969-8.789062-8.792969zm0 0" fill="#d9edff"/><path d="m503.210938 392.371094h-362.949219c-4.855469 0-8.789063 3.9375-8.789063 8.789062v20.453125c0 4.855469 3.933594 8.789063 8.789063 8.789063h362.949219c4.855468 0 8.789062-3.933594 8.789062-8.789063v-20.453125c0-4.851562-3.9375-8.789062-8.789062-8.789062zm0 0" fill="#6c7fd9"/><path d="m503.210938 326.183594h-362.949219c-3.929688 0-7.257813-2.578125-8.382813-6.136719-.265625.835937-.40625 1.726563-.40625 2.652344v20.449219c0 4.855468 3.933594 8.792968 8.789063 8.792968h362.949219c4.855468 0 8.789062-3.9375 8.789062-8.792968v-20.449219c0-.925781-.144531-1.816407-.410156-2.652344-1.125 3.558594-4.449219 6.136719-8.378906 6.136719zm0 0" fill="#b4dbff"/><path d="m503.210938 404.648438h-362.949219c-3.929688 0-7.257813-2.578126-8.382813-6.136719-.265625.835937-.40625 1.726562-.40625 2.648437v20.453125c0 4.855469 3.933594 8.789063 8.789063 8.789063h362.949219c4.855468 0 8.789062-3.933594 8.789062-8.789063v-20.453125c0-.921875-.144531-1.8125-.410156-2.648437-1.125 3.558593-4.449219 6.136719-8.378906 6.136719zm0 0" fill="#4f66d1"/></svg>