<svg height="512pt" viewBox="-133 0 511 512" width="512pt" xmlns="http://www.w3.org/2000/svg"><path d="m66.15625 9.691406c0-5.351562-4.339844-9.691406-9.691406-9.691406h-12.148438c-5.351562 0-9.6875 4.339844-9.6875 9.691406v492.617188c0 5.351562 4.335938 9.691406 9.6875 9.691406h12.148438c5.351562 0 9.691406-4.339844 9.691406-9.691406v-55.675782c0-17.785156 0-419.777343 0-436.941406zm0 0" fill="#6c7fd9"/><path d="m211.132812 9.691406c0-5.351562-4.335937-9.691406-9.6875-9.691406h-12.148437c-5.351563 0-9.691406 4.339844-9.691406 9.691406v492.617188c0 5.351562 4.339843 9.691406 9.691406 9.691406h12.148437c5.351563 0 9.6875-4.339844 9.6875-9.691406v-59.109375h.003907c0-8.859375-.003907-425.242188-.003907-433.507813zm0 0" fill="#6c7fd9"/><path d="m55.164062 502.308594v-492.617188c0-3.847656 2.246094-7.160156 5.496094-8.726562-1.269531-.613282-2.691406-.964844-4.195312-.964844h-12.148438c-5.351562 0-9.6875 4.339844-9.6875 9.691406v492.617188c0 5.351562 4.335938 9.691406 9.6875 9.691406h12.148438c1.503906 0 2.925781-.355469 4.195312-.964844-3.25-1.566406-5.496094-4.878906-5.496094-8.726562zm0 0" fill="#4f66d1"/><path d="m200.144531 502.308594v-492.617188c0-3.847656 2.246094-7.160156 5.492188-8.726562-1.269531-.613282-2.6875-.964844-4.191407-.964844h-12.148437c-5.351563 0-9.691406 4.339844-9.691406 9.691406v492.617188c0 5.351562 4.339843 9.691406 9.691406 9.691406h12.148437c1.503907 0 2.921876-.351562 4.195313-.964844-3.25-1.566406-5.496094-4.878906-5.496094-8.726562zm0 0" fill="#4f66d1"/><path d="m245.261719 178.066406v155.867188c0 4.867187-3.945313 8.808594-8.8125 8.808594h-82.160157c-4.867187 0-8.8125-3.941407-8.8125-8.808594v-155.867188c0-4.867187 3.945313-8.808594 8.8125-8.808594h82.160157c4.867187 0 8.8125 3.941407 8.8125 8.808594zm0 0" fill="#ffe55a"/><path d="m100.285156 118.496094v275.007812c0 4.867188-3.945312 8.8125-8.8125 8.8125h-82.160156c-4.867188 0-8.8125-3.945312-8.8125-8.8125 0-12.757812 0-261.53125 0-275.007812 0-4.867188 3.945312-8.8125 8.8125-8.8125h82.160156c4.867188 0 8.8125 3.945312 8.8125 8.8125zm0 0" fill="#ffe55a"/><g fill="#ffd500"><path d="m175.609375 333.933594v-155.867188c0-4.867187 3.945313-8.808594 8.8125-8.808594h-30.132813c-4.867187 0-8.8125 3.941407-8.8125 8.808594v155.867188c0 4.867187 3.945313 8.808594 8.8125 8.808594h30.132813c-4.867187 0-8.8125-3.941407-8.8125-8.808594zm0 0"/><path d="m30.632812 393.503906c0-12.757812 0-261.53125 0-275.007812 0-4.867188 3.945313-8.8125 8.808594-8.8125h52.035156c-.003906 0-.003906 0-.003906 0h-82.160156c-4.867188 0-8.8125 3.945312-8.8125 8.8125v275.007812c0 4.867188 3.945312 8.8125 8.8125 8.8125h30.125c-4.863281-.003906-8.804688-3.945312-8.804688-8.8125zm0 0"/></g></svg>