<svg height="512pt" viewBox="0 -133 512 511" width="512pt" xmlns="http://www.w3.org/2000/svg"><path d="m9.691406 179.605469c-5.351562 0-9.691406 4.339843-9.691406 9.691406v12.148437c0 5.351563 4.339844 9.6875 9.691406 9.6875h492.617188c5.351562 0 9.691406-4.335937 9.691406-9.6875v-12.148437c0-5.351563-4.339844-9.691406-9.691406-9.691406h-59.109375c-8.859375 0-425.242188 0-433.507813 0zm0 0" fill="#6c7fd9"/><path d="m502.308594 190.597656h-492.617188c-3.847656 0-7.160156-2.246094-8.726562-5.496094-.613282 1.269532-.964844 2.691407-.964844 4.195313v12.148437c0 5.351563 4.339844 9.691407 9.691406 9.691407h159.566406v-.003907h173.484376v.003907h159.566406c5.351562 0 9.691406-4.339844 9.691406-9.691407v-12.148437c0-1.503906-.351562-2.925781-.964844-4.195313-1.566406 3.25-4.878906 5.496094-8.726562 5.496094zm0 0" fill="#4f66d1"/><path d="m9.691406 34.628906c-5.351562 0-9.691406 4.339844-9.691406 9.6875v12.148438c0 5.351562 4.339844 9.691406 9.691406 9.691406h492.617188c5.351562 0 9.691406-4.339844 9.691406-9.691406v-12.148438c0-5.351562-4.339844-9.6875-9.691406-9.6875h-59.109375c-8.859375 0-425.242188 0-433.507813 0zm0 0" fill="#6c7fd9"/><path d="m502.308594 45.621094h-159.566406v-.003906h-173.484376v.003906h-159.566406c-3.847656 0-7.160156-2.25-8.726562-5.496094-.613282 1.269531-.964844 2.6875-.964844 4.195312v12.148438c0 5.351562 4.339844 9.6875 9.691406 9.6875h492.617188c5.351562 0 9.691406-4.335938 9.691406-9.6875v-12.148438c0-1.507812-.351562-2.925781-.964844-4.195312-1.566406 3.246094-4.878906 5.496094-8.726562 5.496094zm0 0" fill="#4f66d1"/><path d="m178.066406.5h155.867188c4.867187 0 8.808594 3.945312 8.808594 8.8125v82.160156c0 4.867188-3.941407 8.8125-8.808594 8.8125h-155.867188c-4.867187 0-8.808594-3.945312-8.808594-8.8125v-82.160156c0-4.867188 3.941407-8.8125 8.808594-8.8125zm0 0" fill="#ffe55a"/><path d="m118.496094 145.476562h275.007812c4.867188 0 8.8125 3.945313 8.8125 8.8125v82.160157c0 4.867187-3.945312 8.8125-8.8125 8.8125-12.757812 0-261.53125 0-275.007812 0-4.867188 0-8.8125-3.945313-8.8125-8.8125v-82.160157c0-4.867187 3.945312-8.8125 8.8125-8.8125zm0 0" fill="#ffe55a"/><g fill="#ffd500"><path d="m333.933594 70.152344h-155.867188c-4.867187 0-8.808594-3.945313-8.808594-8.8125v30.132812c0 4.867188 3.941407 8.8125 8.808594 8.8125h155.867188c4.867187 0 8.808594-3.945312 8.808594-8.8125v-30.132812c0 4.867187-3.941407 8.8125-8.808594 8.8125zm0 0"/><path d="m393.503906 215.128906c-12.757812 0-261.53125 0-275.007812 0-4.867188 0-8.8125-3.945312-8.8125-8.808594v-52.035156.003906 82.164063c0 4.863281 3.945312 8.808594 8.8125 8.808594h275.007812c4.867188 0 8.8125-3.945313 8.8125-8.808594v-30.128906c-.003906 4.863281-3.945312 8.804687-8.8125 8.804687zm0 0"/></g></svg>