<svg height="511pt" viewBox="-109 1 511 511.999" width="511pt" xmlns="http://www.w3.org/2000/svg"><path d="m162.578125 9.691406c0-5.351562-4.335937-9.691406-9.691406-9.691406h-12.144531c-5.351563 0-9.691407 4.339844-9.691407 9.691406v99.992188h.003907v292.632812h-.003907v99.992188c0 5.351562 4.339844 9.691406 9.691407 9.691406h12.144531c5.355469 0 9.691406-4.339844 9.691406-9.691406v-55.675782c.003906-17.785156 0-419.777343 0-436.941406zm0 0" fill="#6c7fd9"/><path d="m151.585938 502.308594v-99.992188h.003906v-292.632812h-.003906v-99.992188c0-3.847656 2.25-7.160156 5.496093-8.726562-1.269531-.613282-2.6875-.964844-4.195312-.964844h-12.144531c-5.351563 0-9.691407 4.339844-9.691407 9.691406v99.992188h.003907v292.632812h-.003907v99.992188c0 5.351562 4.339844 9.691406 9.691407 9.691406h12.144531c1.507812 0 2.925781-.355469 4.195312-.964844-3.246093-1.566406-5.496093-4.878906-5.496093-8.726562zm0 0" fill="#4f66d1"/><path d="m224.75 133.617188h-155.867188c-4.867187 0-8.8125 3.945312-8.8125 8.8125v82.164062c0 4.863281 3.945313 8.808594 8.8125 8.808594h155.867188c4.863281 0 8.808594-3.945313 8.808594-8.808594v-82.164062c0-4.867188-3.945313-8.8125-8.808594-8.8125zm0 0" fill="#ffe55a"/><path d="m284.320312 278.597656c-13.304687 0-262.199218 0-275.011718 0-4.863282 0-8.808594 3.945313-8.808594 8.808594v82.164062c0 4.867188 3.945312 8.8125 8.808594 8.8125h275.011718c4.867188 0 8.8125-3.945312 8.8125-8.8125v-82.164062c0-4.863281-3.945312-8.808594-8.8125-8.808594zm0 0" fill="#ffe55a"/><g fill="#ffd500"><path d="m68.882812 203.269531h155.867188c4.863281 0 8.808594-3.945312 8.808594-8.808593v30.132812c0 4.863281-3.945313 8.808594-8.808594 8.808594h-155.867188c-4.867187 0-8.8125-3.945313-8.8125-8.808594v-30.132812c0 4.863281 3.945313 8.808593 8.8125 8.808593zm0 0"/><path d="m9.308594 348.25h275.011718c4.867188 0 8.8125-3.945312 8.8125-8.8125v-52.03125.003906 82.160156c0 4.867188-3.945312 8.8125-8.8125 8.8125-13.480468 0-262.253906 0-275.011718 0-4.863282 0-8.808594-3.945312-8.808594-8.8125v-30.128906c0 4.863282 3.945312 8.808594 8.808594 8.808594zm0 0"/></g></svg>