<svg height="511pt" viewBox="-72 1 511 511.999" width="511pt" xmlns="http://www.w3.org/2000/svg"><path d="m32.027344 9.691406c0-5.351562-4.339844-9.691406-9.691406-9.691406h-12.144532c-5.355468 0-9.691406 4.339844-9.691406 9.691406v492.617188c0 5.351562 4.335938 9.691406 9.691406 9.691406h12.144532c5.351562 0 9.691406-4.339844 9.691406-9.691406v-55.675782c0-17.785156 0-419.777343 0-436.941406zm0 0" fill="#6c7fd9"/><path d="m21.035156 502.308594v-99.992188h.003906v-292.632812h-.003906v-99.992188c0-3.847656 2.246094-7.160156 5.496094-8.726562-1.269531-.613282-2.691406-.964844-4.195312-.964844h-12.144532c-5.355468 0-9.691406 4.339844-9.691406 9.691406v492.617188c0 5.351562 4.335938 9.691406 9.691406 9.691406h12.144532c1.503906 0 2.925781-.355469 4.195312-.964844-3.25-1.566406-5.496094-4.878906-5.496094-8.726562zm0 0" fill="#4f66d1"/><path d="m238.628906 133.617188h-155.867187c-4.863281 0-8.808594 3.945312-8.808594 8.8125v82.164062c0 4.863281 3.945313 8.808594 8.808594 8.808594h155.867187c4.867188 0 8.8125-3.945313 8.8125-8.808594v-82.164062c0-4.867188-3.945312-8.8125-8.8125-8.8125zm0 0" fill="#ffe55a"/><path d="m357.773438 278.597656c-13.304688 0-262.199219 0-275.011719 0-4.863281 0-8.808594 3.945313-8.808594 8.808594v82.164062c0 4.867188 3.945313 8.8125 8.808594 8.8125h275.011719c4.867187 0 8.8125-3.945312 8.8125-8.8125v-82.164062c0-4.863281-3.945313-8.808594-8.8125-8.808594zm0 0" fill="#ffe55a"/><g fill="#ffd500"><path d="m82.761719 203.269531h155.867187c4.867188 0 8.8125-3.945312 8.8125-8.808593v30.132812c0 4.863281-3.945312 8.808594-8.8125 8.808594h-155.867187c-4.863281 0-8.808594-3.945313-8.808594-8.808594v-30.132812c0 4.863281 3.945313 8.808593 8.808594 8.808593zm0 0"/><path d="m82.761719 348.25h275.011719c4.867187 0 8.8125-3.945312 8.8125-8.8125v-52.03125.003906 82.160156c0 4.867188-3.945313 8.8125-8.8125 8.8125-13.480469 0-262.253907 0-275.011719 0-4.863281 0-8.808594-3.945312-8.808594-8.8125v-30.128906c0 4.863282 3.945313 8.808594 8.808594 8.808594zm0 0"/></g></svg>