<svg height="512pt" viewBox="0 -73 512 512" width="512pt" xmlns="http://www.w3.org/2000/svg"><path d="m9.691406 0c-5.351562 0-9.691406 4.339844-9.691406 9.691406v12.148438c0 5.351562 4.339844 9.6875 9.691406 9.6875h492.617188c5.351562 0 9.691406-4.335938 9.691406-9.6875v-12.148438c0-5.351562-4.339844-9.691406-9.691406-9.691406h-59.109375c-8.859375 0-425.242188 0-433.507813 0zm0 0" fill="#6c7fd9"/><path d="m502.308594 10.992188h-492.617188c-3.847656 0-7.160156-2.246094-8.726562-5.496094-.613282 1.269531-.964844 2.691406-.964844 4.195312v12.148438c0 5.351562 4.339844 9.691406 9.691406 9.691406h159.566406v-.003906h173.484376v.003906h159.566406c5.351562 0 9.691406-4.339844 9.691406-9.691406v-12.148438c0-1.503906-.351562-2.925781-.964844-4.195312-1.566406 3.25-4.878906 5.496094-8.726562 5.496094zm0 0" fill="#4f66d1"/><path d="m378.382812 82.265625v155.863281c0 4.867188-3.945312 8.8125-8.8125 8.8125h-82.164062c-4.863281 0-8.808594-3.945312-8.808594-8.8125v-155.863281c0-4.867187 3.945313-8.8125 8.808594-8.8125h82.164062c4.867188 0 8.8125 3.945313 8.8125 8.8125zm0 0" fill="#ffe55a"/><path d="m233.402344 82.265625v275.007813c0 4.867187-3.945313 8.8125-8.808594 8.8125h-82.164062c-4.867188 0-8.8125-3.945313-8.8125-8.8125 0-12.757813 0-261.53125 0-275.007813 0-4.867187 3.945312-8.8125 8.8125-8.8125h82.164062c4.863281 0 8.808594 3.945313 8.808594 8.8125zm0 0" fill="#ffe55a"/><g fill="#ffd500"><path d="m308.730469 238.128906v-155.863281c0-4.867187 3.945312-8.8125 8.808593-8.8125h-30.132812c-4.863281 0-8.808594 3.945313-8.808594 8.8125v155.863281c0 4.867188 3.945313 8.8125 8.808594 8.8125h30.132812c-4.863281 0-8.808593-3.945312-8.808593-8.8125zm0 0"/><path d="m163.75 357.273438c0-12.757813 0-261.53125 0-275.007813 0-4.867187 3.945312-8.8125 8.8125-8.8125h52.03125-82.164062c-4.867188 0-8.8125 3.945313-8.8125 8.8125v275.007813c0 4.867187 3.945312 8.8125 8.8125 8.8125h30.128906c-4.863282-.003907-8.808594-3.945313-8.808594-8.8125zm0 0"/></g></svg>