<svg height="512pt" viewBox="0 -51 512 512" width="512pt" xmlns="http://www.w3.org/2000/svg"><path d="m483.980469 0h-290.683594c-15.449219 0-28.019531 12.570312-28.019531 28.019531v57.3125c0 15.449219 12.570312 28.019531 28.019531 28.019531h39.292969c11.929687 0 22.140625-7.492187 26.175781-18.019531h32.207031v220.058594h-6.539062c-15.449219 0-28.019532 12.570313-28.019532 28.019531v39.292969c0 15.449219 12.570313 28.019531 28.019532 28.019531h108.410156c15.449219 0 28.019531-12.570312 28.019531-28.019531v-39.292969c0-15.449218-12.570312-28.019531-28.019531-28.019531h-6.539062v-220.058594h32.207031c4.035156 10.527344 14.246093 18.019531 26.175781 18.019531h39.292969c15.449219 0 28.019531-12.570312 28.019531-28.019531v-57.3125c0-15.449219-12.570312-28.019531-28.019531-28.019531zm0 0" fill="#60b8ff"/><g fill="#22a7ff"><path d="m286.011719 382.703125v-39.292969c0-15.449218 12.566406-28.019531 28.019531-28.019531h6.535156v-220.058594h-29.59375v220.058594h-6.539062c-15.449219 0-28.019532 12.570313-28.019532 28.019531v39.292969c0 15.449219 12.570313 28.019531 28.019532 28.019531h29.597656c-15.453125 0-28.019531-12.570312-28.019531-28.019531zm0 0"/><path d="m194.871094 85.332031v-57.3125c0-15.449219 12.570312-28.019531 28.023437-28.019531h-29.597656c-15.449219 0-28.019531 12.570312-28.019531 28.019531v57.3125c0 15.449219 12.570312 28.019531 28.019531 28.019531h29.597656c-15.453125 0-28.023437-12.570312-28.023437-28.019531zm0 0"/><path d="m449.902344 99.128906c-1.359375-2.390625-3.964844-3.796875-6.714844-3.796875h-24.675781c4.035156 10.527344 14.246093 18.019531 26.175781 18.019531h29.597656c-10.4375 0-19.5625-5.734374-24.382812-14.222656zm0 0"/></g><path d="m2.132812 164.140625h195.894532c1.179687 0 2.136718.957031 2.136718 2.136719v38.164062c0 1.175782-.957031 2.132813-2.136718 2.132813h-26.164063c-1.175781 0-2.132812-.957031-2.132812-2.132813v-7.730468c0-1.179688-.953125-2.136719-2.132813-2.136719h-50.164062c-1.179688 0-2.132813.957031-2.132813 2.136719v181.445312c0 1.179688.953125 2.132812 2.132813 2.132812h18.742187c1.179688 0 2.136719.957032 2.136719 2.136719v26.164063c0 1.175781-.957031 2.132812-2.136719 2.132812-6.980469 0-64.386719 0-72.1875 0-1.179687 0-2.132812-.957031-2.132812-2.132812v-26.164063c0-1.179687.957031-2.136719 2.132812-2.136719h18.742188c1.179687 0 2.136719-.953124 2.136719-2.132812v-181.445312c0-1.179688-.957032-2.136719-2.136719-2.136719h-50.164063c-1.179687 0-2.132812.957031-2.132812 2.136719v7.730468c0 1.175782-.957032 2.132813-2.132813 2.132813h-26.167969c-1.179687 0-2.132812-.957031-2.132812-2.132813v-38.164062c0-1.179688.953125-2.136719 2.132812-2.136719zm0 0" fill="#d9edff"/><path d="m23.007812 204.441406v-38.164062c0-1.179688.953126-2.136719 2.132813-2.136719h-23.007813c-1.179687 0-2.132812.957031-2.132812 2.136719v38.164062c0 1.175782.953125 2.132813 2.132812 2.132813h23.007813c-1.175781 0-2.132813-.957031-2.132813-2.132813zm0 0" fill="#b4dbff"/><path d="m192.738281 204.441406v-7.730468c0-1.179688-.957031-2.136719-2.132812-2.136719h-23.007813c1.179688 0 2.132813.957031 2.132813 2.136719v7.730468c0 1.175782.957031 2.132813 2.132812 2.132813h23.007813c-1.175782 0-2.132813-.957031-2.132813-2.132813zm0 0" fill="#b4dbff"/><path d="m84.859375 408.589844v-26.164063c0-1.179687.957031-2.132812 2.136719-2.132812h18.742187c1.179688 0 2.132813-.957031 2.132813-2.136719v-181.445312c0-1.179688-.953125-2.136719-2.132813-2.136719h-23.007812c1.179687 0 2.132812.957031 2.132812 2.136719v181.445312c0 1.179688-.953125 2.132812-2.132812 2.132812h-18.742188c-1.179687 0-2.132812.957032-2.132812 2.136719v26.164063c0 1.179687.953125 2.132812 2.132812 2.132812h23.007813c-1.179688 0-2.136719-.953125-2.136719-2.132812zm0 0" fill="#b4dbff"/><path d="m193.296875 24.816406h290.683594c1.769531 0 3.203125 1.433594 3.203125 3.203125v57.3125c0 1.769531-1.433594 3.207031-3.203125 3.207031h-39.292969c-1.769531 0-3.203125-1.4375-3.203125-3.207031v-11.609375c0-1.769531-1.4375-3.203125-3.207031-3.203125h-73.582032c-1.769531 0-3.207031 1.433594-3.207031 3.203125v263.277344c0 1.769531 1.4375 3.207031 3.207031 3.207031h28.148438c1.769531 0 3.203125 1.433594 3.203125 3.203125v39.292969c0 1.769531-1.433594 3.207031-3.203125 3.207031-36.3125 0-72.328125 0-108.410156 0-1.769532 0-3.203125-1.4375-3.203125-3.207031v-39.292969c0-1.769531 1.433593-3.203125 3.203125-3.203125h28.148437c1.769531 0 3.203125-1.4375 3.203125-3.207031v-263.277344c0-1.769531-1.433594-3.203125-3.203125-3.203125h-73.582031c-1.769531 0-3.207031 1.433594-3.207031 3.203125v11.609375c0 1.769531-1.433594 3.207031-3.203125 3.207031h-39.292969c-1.769531 0-3.203125-1.4375-3.203125-3.207031v-57.3125c0-1.769531 1.433594-3.203125 3.203125-3.203125zm0 0" fill="#0094fd"/><path d="m218.898438 85.332031v-57.3125c0-1.769531 1.4375-3.203125 3.207031-3.203125h-28.808594c-1.769531 0-3.207031 1.433594-3.207031 3.203125v57.3125c0 1.769531 1.4375 3.207031 3.207031 3.207031h28.808594c-1.769531 0-3.207031-1.4375-3.207031-3.207031zm0 0" fill="#0083fd"/><path d="m310.035156 382.703125v-39.292969c0-1.769531 1.4375-3.203125 3.207032-3.203125h28.148437c1.769531 0 3.203125-1.433593 3.203125-3.203125v-263.28125c0-1.769531-1.433594-3.203125-3.203125-3.203125h-28.808594c1.769531 0 3.203125 1.433594 3.203125 3.203125v263.277344c0 1.769531-1.433594 3.207031-3.203125 3.207031h-28.148437c-1.769532 0-3.207032 1.433594-3.207032 3.203125v39.292969c0 1.769531 1.4375 3.203125 3.207032 3.203125h28.808594c-1.769532.003906-3.207032-1.433594-3.207032-3.203125zm0 0" fill="#0083fd"/><path d="m470.292969 85.332031v-11.609375c0-1.769531-1.4375-3.203125-3.207031-3.203125h-28.808594c1.769531 0 3.207031 1.433594 3.207031 3.203125v11.609375c0 1.769531 1.433594 3.207031 3.203125 3.207031h28.808594c-1.769532 0-3.203125-1.4375-3.203125-3.207031zm0 0" fill="#0083fd"/></svg>