<svg height="512pt" viewBox="0 -73 512 512" width="512pt" xmlns="http://www.w3.org/2000/svg"><path d="m378.378906 127.953125v155.867187c0 4.867188-3.945312 8.8125-8.808594 8.8125h-82.164062c-4.867188 0-8.808594-3.945312-8.808594-8.8125v-155.867187c0-4.863281 3.941406-8.808594 8.808594-8.808594h82.164062c4.863282 0 8.808594 3.945313 8.808594 8.808594zm0 0" fill="#ffe55a"/><path d="m233.402344 8.8125v275.007812c0 4.867188-3.945313 8.8125-8.8125 8.8125h-82.160156c-4.867188 0-8.8125-3.945312-8.8125-8.8125 0-12.757812 0-261.53125 0-275.007812 0-4.867188 3.945312-8.8125 8.8125-8.8125h82.160156c4.867187 0 8.8125 3.945312 8.8125 8.8125zm0 0" fill="#ffe55a"/><path d="m308.730469 283.820312v-155.867187c0-4.863281 3.945312-8.808594 8.808593-8.808594h-30.132812c-4.863281 0-8.808594 3.945313-8.808594 8.808594v155.867187c0 4.867188 3.945313 8.8125 8.808594 8.8125h30.132812c-4.863281 0-8.808593-3.945312-8.808593-8.8125zm0 0" fill="#ffd500"/><path d="m163.75 283.820312c0-12.757812 0-261.53125 0-275.007812 0-4.867188 3.945312-8.8125 8.8125-8.8125h52.03125s0 0-.003906 0h-82.160156c-4.867188 0-8.8125 3.945312-8.8125 8.8125v275.007812c0 4.867188 3.945312 8.8125 8.8125 8.8125h30.128906c-4.867188-.003906-8.808594-3.945312-8.808594-8.8125zm0 0" fill="#ffd500"/><path d="m9.691406 334.558594c-5.351562 0-9.691406 4.339844-9.691406 9.6875v12.148437c0 5.351563 4.339844 9.691407 9.691406 9.691407h492.617188c5.351562 0 9.691406-4.339844 9.691406-9.691407v-12.148437c0-5.351563-4.339844-9.6875-9.691406-9.6875h-59.109375c-8.859375 0-425.242188 0-433.507813 0zm0 0" fill="#6c7fd9"/><path d="m502.308594 345.550781h-159.566406v-.003906h-173.484376v.003906h-159.566406c-3.847656 0-7.160156-2.25-8.726562-5.496093-.613282 1.269531-.964844 2.6875-.964844 4.191406v12.148437c0 5.351563 4.339844 9.691407 9.691406 9.691407h492.617188c5.351562 0 9.691406-4.339844 9.691406-9.691407v-12.148437c0-1.503906-.351562-2.921875-.964844-4.191406-1.566406 3.246093-4.878906 5.496093-8.726562 5.496093zm0 0" fill="#4f66d1"/></svg>