<svg height="512pt" viewBox="0 -62 512 512" width="512pt" xmlns="http://www.w3.org/2000/svg"><path d="m393.503906 288.617188c-13.304687 0-262.199218 0-275.007812 0-4.867188 0-8.8125 3.945312-8.8125 8.808593v82.164063c0 4.863281 3.945312 8.808594 8.8125 8.808594h275.007812c4.867188 0 8.8125-3.945313 8.8125-8.808594v-82.164063c0-4.863281-3.945312-8.808593-8.8125-8.808593zm0 0" fill="#ffe55a"/><path d="m118.496094 358.269531h275.007812c4.867188 0 8.8125-3.945312 8.8125-8.8125v-52.03125.003907 82.160156c0 4.867187-3.945312 8.8125-8.8125 8.8125-13.476562 0-262.25 0-275.007812 0-4.867188 0-8.8125-3.945313-8.8125-8.8125v-30.128906c.003906 4.863281 3.945312 8.808593 8.8125 8.808593zm0 0" fill="#ffd500"/><path d="m333.933594 73.453125h-155.867188c-4.867187 0-8.808594 3.945313-8.808594 8.8125v82.164063c0 4.863281 3.941407 8.808593 8.808594 8.808593h155.867188c4.867187 0 8.808594-3.945312 8.808594-8.808593v-82.164063c0-4.867187-3.941407-8.8125-8.808594-8.8125zm0 0" fill="#ffe55a"/><path d="m178.066406 143.105469h155.867188c4.867187 0 8.808594-3.945313 8.808594-8.8125v30.132812c0 4.867188-3.941407 8.8125-8.808594 8.8125h-155.867188c-4.867187 0-8.808594-3.945312-8.808594-8.8125v-30.132812c0 4.867187 3.941407 8.8125 8.808594 8.8125zm0 0" fill="#ffd500"/><path d="m502.308594.00390625c5.351562 0 9.691406 4.33593775 9.691406 9.68749975v12.148438c0 5.351562-4.339844 9.691406-9.691406 9.691406h-99.992188v-.003906h-292.632812v.003906h-99.992188c-5.351562 0-9.691406-4.339844-9.691406-9.691406v-12.148438c0-5.351562 4.339844-9.68749975 9.691406-9.68749975h55.675782v-.00390625c17.785156 0 419.777343.00390625 436.941406.00390625zm0 0" fill="#6c7fd9"/><path d="m9.691406 10.992188h492.617188c3.847656 0 7.160156-2.246094 8.726562-5.496094.609375 1.273437.964844 2.691406.964844 4.195312v12.148438c0 5.351562-4.339844 9.691406-9.691406 9.691406h-99.992188v-.003906h-292.632812v.003906h-99.992188c-5.351562 0-9.691406-4.339844-9.691406-9.691406v-12.148438c0-1.503906.351562-2.921875.964844-4.195312 1.566406 3.25 4.878906 5.496094 8.726562 5.496094zm0 0" fill="#4f66d1"/><path d="m502.308594 215.164062c5.351562 0 9.691406 4.339844 9.691406 9.691407v12.144531c0 5.351562-4.339844 9.691406-9.691406 9.691406h-99.992188v-.003906h-292.632812v.003906h-99.992188c-5.351562 0-9.691406-4.339844-9.691406-9.691406v-12.144531c0-5.351563 4.339844-9.691407 9.691406-9.691407h55.675782c17.785156-.003906 419.777343 0 436.941406 0zm0 0" fill="#6c7fd9"/><path d="m9.691406 226.15625h99.992188v-.003906h292.632812v.003906h99.992188c3.847656 0 7.160156-2.25 8.726562-5.496094.609375 1.269532.964844 2.6875.964844 4.195313v12.144531c0 5.351562-4.339844 9.691406-9.691406 9.691406h-99.992188v-.003906h-292.632812v.003906h-99.992188c-5.351562 0-9.691406-4.339844-9.691406-9.691406v-12.144531c0-1.507813.351562-2.925781.964844-4.195313 1.566406 3.246094 4.878906 5.496094 8.726562 5.496094zm0 0" fill="#4f66d1"/></svg>