<svg height="512pt" viewBox="0 -62 512 512" width="512pt" xmlns="http://www.w3.org/2000/svg"><path d="m393.503906 215.160156c-13.304687 0-262.199218 0-275.007812 0-4.867188 0-8.8125 3.945313-8.8125 8.8125v82.164063c0 4.863281 3.945312 8.808593 8.8125 8.808593h275.007812c4.867188 0 8.8125-3.945312 8.8125-8.808593v-82.164063c0-4.867187-3.945312-8.8125-8.8125-8.8125zm0 0" fill="#ffe55a"/><path d="m118.496094 284.8125h275.007812c4.867188 0 8.8125-3.945312 8.8125-8.808594v-52.03125 82.164063c0 4.867187-3.945312 8.808593-8.8125 8.808593-13.476562 0-262.25 0-275.007812 0-4.867188 0-8.8125-3.941406-8.8125-8.808593v-30.128907c.003906 4.863282 3.945312 8.804688 8.8125 8.804688zm0 0" fill="#ffd500"/><path d="m333.933594 0h-155.867188c-4.867187 0-8.808594 3.945312-8.808594 8.8125v82.160156c0 4.867188 3.941407 8.8125 8.808594 8.8125h155.867188c4.867187 0 8.808594-3.945312 8.808594-8.8125v-82.160156c0-4.867188-3.941407-8.8125-8.808594-8.8125zm0 0" fill="#ffe55a"/><path d="m178.066406 69.652344h155.867188c4.867187 0 8.808594-3.945313 8.808594-8.8125v30.132812c0 4.867188-3.941407 8.8125-8.808594 8.8125h-155.867188c-4.867187 0-8.808594-3.945312-8.808594-8.8125v-30.132812c0 4.867187 3.941407 8.8125 8.808594 8.8125zm0 0" fill="#ffd500"/><path d="m502.308594 141.710938c5.351562 0 9.691406 4.335937 9.691406 9.6875v12.148437c0 5.351563-4.339844 9.691406-9.691406 9.691406h-99.992188v-.003906h-292.632812v.003906h-99.992188c-5.351562 0-9.691406-4.339843-9.691406-9.691406v-12.148437c0-5.351563 4.339844-9.6875 9.691406-9.6875h55.675782v-.003907c17.785156 0 419.777343.003907 436.941406.003907zm0 0" fill="#6c7fd9"/><path d="m9.691406 152.699219h492.617188c3.847656 0 7.160156-2.246094 8.726562-5.496094.609375 1.273437.964844 2.691406.964844 4.195313v12.148437c0 5.351563-4.339844 9.691406-9.691406 9.691406h-99.992188v-.003906h-292.632812v.003906h-99.992188c-5.351562 0-9.691406-4.339843-9.691406-9.691406v-12.148437c0-1.503907.351562-2.921876.964844-4.195313 1.566406 3.25 4.878906 5.496094 8.726562 5.496094zm0 0" fill="#4f66d1"/><path d="m502.308594 356.871094c5.351562 0 9.691406 4.339844 9.691406 9.691406v12.148438c0 5.351562-4.339844 9.6875-9.691406 9.6875h-492.617188c-5.351562 0-9.691406-4.335938-9.691406-9.6875v-12.148438c0-5.351562 4.339844-9.691406 9.691406-9.691406h55.675782zm0 0" fill="#6c7fd9"/><path d="m9.691406 367.863281h99.992188v-.003906h292.632812v.003906h99.992188c3.847656 0 7.160156-2.246093 8.726562-5.496093.609375 1.269531.964844 2.691406.964844 4.195312v12.148438c0 5.351562-4.339844 9.6875-9.691406 9.6875h-492.617188c-5.351562 0-9.691406-4.335938-9.691406-9.6875v-12.148438c0-1.503906.351562-2.925781.964844-4.195312 1.566406 3.246093 4.878906 5.496093 8.726562 5.496093zm0 0" fill="#4f66d1"/></svg>