<svg height="511pt" viewBox="-61 1 511 511.999" width="511pt" xmlns="http://www.w3.org/2000/svg"><path d="m173.738281 393.503906c0-13.304687 0-262.199218 0-275.007812 0-4.867188-3.945312-8.8125-8.8125-8.8125h-82.160156c-4.867187 0-8.8125 3.945312-8.8125 8.8125v275.007812c0 4.867188 3.945313 8.8125 8.8125 8.8125h82.160156c4.867188 0 8.8125-3.945312 8.8125-8.8125zm0 0" fill="#ffe55a"/><path d="m104.085938 118.496094v275.007812c0 4.867188 3.945312 8.8125 8.8125 8.8125h52.03125c-.003907 0-.003907 0-.003907 0h-82.160156c-4.867187 0-8.8125-3.945312-8.8125-8.8125 0-13.476562 0-262.25 0-275.007812 0-4.867188 3.945313-8.8125 8.8125-8.8125h30.125c-4.863281.003906-8.804687 3.945312-8.804687 8.8125zm0 0" fill="#ffd500"/><path d="m388.898438 333.933594v-155.867188c0-4.867187-3.945313-8.808594-8.808594-8.808594h-82.164063c-4.867187 0-8.808593 3.941407-8.808593 8.808594v155.867188c0 4.867187 3.941406 8.808594 8.808593 8.808594h82.164063c4.863281 0 8.808594-3.941407 8.808594-8.808594zm0 0" fill="#ffe55a"/><path d="m319.25 178.066406v155.867188c0 4.867187 3.945312 8.808594 8.808594 8.808594h-30.132813c-4.867187 0-8.808593-3.941407-8.808593-8.808594v-155.867188c0-4.867187 3.941406-8.808594 8.808593-8.808594h30.132813c-4.863282 0-8.808594 3.941407-8.808594 8.808594zm0 0" fill="#ffd500"/><path d="m247.191406 9.691406c0-5.351562-4.339844-9.691406-9.691406-9.691406h-12.148438c-5.351562 0-9.6875 4.339844-9.6875 9.691406v492.617188c0 5.351562 4.335938 9.691406 9.6875 9.691406h12.148438c5.351562 0 9.691406-4.339844 9.691406-9.691406v-55.675782c0-17.785156 0-419.777343 0-436.941406zm0 0" fill="#6c7fd9"/><path d="m236.199219 502.308594v-492.617188c0-3.847656 2.246093-7.160156 5.496093-8.726562-1.273437-.613282-2.691406-.964844-4.195312-.964844h-12.148438c-5.351562 0-9.6875 4.339844-9.6875 9.691406v492.617188c0 5.351562 4.335938 9.691406 9.6875 9.691406h12.148438c1.503906 0 2.921875-.355469 4.195312-.964844-3.25-1.566406-5.496093-4.878906-5.496093-8.726562zm0 0" fill="#4f66d1"/><path d="m32.027344 9.691406c0-5.351562-4.335938-9.691406-9.691406-9.691406h-12.144532c-5.351562 0-9.691406 4.339844-9.691406 9.691406v99.992188h.003906v292.632812h-.003906v99.992188c0 5.351562 4.335938 9.691406 9.691406 9.691406h12.144532c5.351562 0 9.691406-4.339844 9.691406-9.691406v-55.675782c.003906-17.785156 0-419.777343 0-436.941406zm0 0" fill="#6c7fd9"/><path d="m21.035156 502.308594v-99.992188h.003906v-292.632812h-.003906v-99.992188c0-3.847656 2.25-7.160156 5.496094-8.726562-1.269531-.613282-2.6875-.964844-4.195312-.964844h-12.144532c-5.351562 0-9.691406 4.339844-9.691406 9.691406v99.992188h.003906v292.632812h-.003906v99.992188c0 5.351562 4.335938 9.691406 9.691406 9.691406h12.144532c1.503906 0 2.925781-.355469 4.195312-.964844-3.246094-1.566406-5.496094-4.878906-5.496094-8.726562zm0 0" fill="#4f66d1"/></svg>