<svg height="512pt" viewBox="0 -110 512 512" width="512pt" xmlns="http://www.w3.org/2000/svg"><path d="m502.308594 130.554688c5.351562 0 9.691406 4.335937 9.691406 9.6875v12.148437c0 5.351563-4.339844 9.6875-9.691406 9.6875h-492.617188c-5.351562 0-9.691406-4.335937-9.691406-9.6875v-12.148437c0-5.351563 4.339844-9.6875 9.691406-9.6875h55.675782v-.003907c17.785156 0 419.777343.003907 436.941406.003907zm0 0" fill="#6c7fd9"/><path d="m9.691406 141.542969h492.617188c3.847656 0 7.160156-2.246094 8.726562-5.496094.609375 1.273437.964844 2.691406.964844 4.195313v12.148437c0 5.351563-4.339844 9.6875-9.691406 9.6875h-492.617188c-5.351562 0-9.691406-4.335937-9.691406-9.6875v-12.148437c0-1.503907.351562-2.921876.964844-4.195313 1.566406 3.25 4.878906 5.496094 8.726562 5.496094zm0 0" fill="#4f66d1"/><path d="m378.382812 224.25v-155.867188c0-4.867187-3.945312-8.8125-8.8125-8.8125h-82.164062c-4.863281 0-8.808594 3.945313-8.808594 8.8125v155.867188c0 4.863281 3.945313 8.808594 8.808594 8.808594h82.164062c4.867188 0 8.8125-3.945313 8.8125-8.808594zm0 0" fill="#ffe55a"/><path d="m233.402344 283.820312c0-13.304687 0-262.199218 0-275.007812 0-4.867188-3.945313-8.8125-8.808594-8.8125h-82.164062c-4.867188 0-8.8125 3.945312-8.8125 8.8125v275.007812c0 4.867188 3.945312 8.8125 8.8125 8.8125h82.164062c4.863281 0 8.808594-3.945312 8.808594-8.8125zm0 0" fill="#ffe55a"/><g fill="#ffd500"><path d="m308.730469 68.382812v155.867188c0 4.863281 3.945312 8.808594 8.808593 8.808594h-30.132812c-4.863281 0-8.808594-3.945313-8.808594-8.808594v-155.867188c0-4.867187 3.945313-8.8125 8.808594-8.8125h30.132812c-4.863281 0-8.808593 3.945313-8.808593 8.8125zm0 0"/><path d="m163.75 8.8125v275.007812c0 4.867188 3.945312 8.8125 8.8125 8.8125h52.03125-82.164062c-4.867188 0-8.8125-3.945312-8.8125-8.8125 0-13.476562 0-262.253906 0-275.007812 0-4.867188 3.945312-8.8125 8.8125-8.8125h30.128906c-4.863282.00390625-8.808594 3.945312-8.808594 8.8125zm0 0"/></g></svg>