<svg height="512pt" viewBox="0 0 512 512" width="512pt" xmlns="http://www.w3.org/2000/svg"><path d="m385.292969 0h-258.585938c-69.976562 0-126.707031 56.730469-126.707031 126.707031v258.585938c0 69.976562 56.730469 126.707031 126.707031 126.707031h258.585938c69.976562 0 126.707031-56.730469 126.707031-126.707031v-258.585938c0-69.976562-56.730469-126.707031-126.707031-126.707031zm0 0" fill="#60b8ff"/><path d="m30.90625 385.292969v-258.585938c0-69.976562 56.726562-126.707031 126.707031-126.707031h-30.90625c-69.976562 0-126.707031 56.730469-126.707031 126.707031v258.585938c0 69.976562 56.730469 126.707031 126.707031 126.707031h30.90625c-69.980469 0-126.707031-56.730469-126.707031-126.707031zm0 0" fill="#22a7ff"/><path d="m472.449219 377.382812c0 52.503907-42.5625 95.066407-95.066407 95.066407h-242.765624c-52.503907 0-95.066407-42.5625-95.066407-95.066407v-242.765624c0-52.503907 42.5625-95.066407 95.066407-95.066407h242.765624c52.503907 0 95.066407 42.5625 95.066407 95.066407zm0 0" fill="#22a7ff"/><path d="m70.453125 377.382812v-242.765624c0-52.503907 42.566406-95.066407 95.070313-95.066407h-30.90625c-52.503907 0-95.066407 42.5625-95.066407 95.066407v242.765624c0 52.503907 42.5625 95.066407 95.066407 95.066407h30.90625c-52.503907 0-95.070313-42.5625-95.070313-95.066407zm0 0" fill="#0094fd"/><path d="m379.019531 110.59375h-246.039062c-1.5 0-2.714844 1.214844-2.714844 2.714844v48.511718c0 1.496094 1.214844 2.710938 2.714844 2.710938h33.257812c1.496094 0 2.710938-1.214844 2.710938-2.710938v-9.828124c0-1.5 1.214843-2.714844 2.714843-2.714844h62.28125c1.5 0 2.714844 1.214844 2.714844 2.714844v222.84375c0 1.5-1.214844 2.714843-2.714844 2.714843h-23.824218c-1.5 0-2.714844 1.214844-2.714844 2.710938v33.257812c0 1.5 1.214844 2.714844 2.714844 2.714844h91.757812c1.5 0 2.714844-1.214844 2.714844-2.714844v-33.257812c0-1.496094-1.214844-2.710938-2.714844-2.710938h-23.824218c-1.496094 0-2.710938-1.214843-2.710938-2.714843v-222.84375c0-1.5 1.214844-2.714844 2.710938-2.714844h62.285156c1.496094 0 2.710937 1.214844 2.710937 2.714844v9.828124c0 1.496094 1.214844 2.710938 2.714844 2.710938h33.257813c1.496093 0 2.710937-1.214844 2.710937-2.710938v-48.511718c0-1.5-1.214844-2.714844-2.714844-2.714844zm0 0" fill="#d9edff"/><path d="m379.019531 110.59375h-246.039062c-1.5 0-2.714844 1.214844-2.714844 2.714844v48.511718c0 1.496094 1.214844 2.710938 2.714844 2.710938h33.257812c1.496094 0 2.710938-1.214844 2.710938-2.710938v-9.828124c0-1.5 1.214843-2.714844 2.714843-2.714844h62.28125c1.5 0 2.714844 1.214844 2.714844 2.714844v222.84375c0 1.5-1.214844 2.714843-2.714844 2.714843h-23.824218c-1.5 0-2.714844 1.214844-2.714844 2.710938v33.257812c0 1.5 1.214844 2.714844 2.714844 2.714844h91.757812c1.5 0 2.714844-1.214844 2.714844-2.714844v-33.257812c0-1.496094-1.214844-2.710938-2.714844-2.710938h-23.824218c-1.496094 0-2.710938-1.214843-2.710938-2.714843v-222.84375c0-1.5 1.214844-2.714844 2.710938-2.714844h62.285156c1.496094 0 2.710937 1.214844 2.710937 2.714844v9.828124c0 1.496094 1.214844 2.710938 2.714844 2.710938h33.257813c1.496093 0 2.710937-1.214844 2.710937-2.710938v-48.511718c0-1.5-1.214844-2.714844-2.714844-2.714844zm0 0" fill="#d9edff"/><g fill="#b4dbff"><path d="m234.753906 413.519531v-33.257812c0-1.496094 1.214844-2.710938 2.714844-2.710938h23.824219c1.496093 0 2.714843-1.214843 2.714843-2.714843v-222.84375c0-1.5-1.21875-2.714844-2.714843-2.714844h-27.347657c1.5 0 2.714844 1.214844 2.714844 2.714844v222.84375c0 1.5-1.214844 2.714843-2.714844 2.714843h-23.824218c-1.5 0-2.714844 1.214844-2.714844 2.710938v33.257812c0 1.5 1.214844 2.714844 2.714844 2.714844h27.34375c-1.496094 0-2.710938-1.214844-2.710938-2.714844zm0 0"/><path d="m157.613281 161.820312v-48.511718c0-1.5 1.214844-2.714844 2.710938-2.714844h-27.34375c-1.5 0-2.714844 1.214844-2.714844 2.714844v48.511718c0 1.496094 1.214844 2.710938 2.714844 2.710938h27.34375c-1.496094 0-2.710938-1.214844-2.710938-2.710938zm0 0"/><path d="m370.398438 161.820312v-9.828124c0-1.5-1.214844-2.714844-2.714844-2.714844h-27.347656c1.5 0 2.714843 1.214844 2.714843 2.714844v9.828124c0 1.496094 1.214844 2.710938 2.710938 2.710938h27.347656c-1.5 0-2.710937-1.214844-2.710937-2.710938zm0 0"/></g></svg>