<svg height="512pt" viewBox="0 0 512 512" width="512pt" xmlns="http://www.w3.org/2000/svg"><path d="m385.292969 0h-258.585938c-69.976562 0-126.707031 56.730469-126.707031 126.707031v258.585938c0 69.976562 56.730469 126.707031 126.707031 126.707031h258.585938c69.976562 0 126.707031-56.730469 126.707031-126.707031v-258.585938c0-69.976562-56.730469-126.707031-126.707031-126.707031zm0 0" fill="#ffaa5c"/><path d="m30.90625 385.292969v-258.585938c0-69.976562 56.726562-126.707031 126.707031-126.707031h-30.90625c-69.976562 0-126.707031 56.730469-126.707031 126.707031v258.585938c0 69.976562 56.730469 126.707031 126.707031 126.707031h30.90625c-69.980469 0-126.707031-56.730469-126.707031-126.707031zm0 0" fill="#ff9838"/><path d="m472.449219 377.382812c0 52.503907-42.5625 95.066407-95.066407 95.066407h-242.765624c-52.503907 0-95.066407-42.5625-95.066407-95.066407v-242.765624c0-52.503907 42.5625-95.066407 95.066407-95.066407h242.765624c52.503907 0 95.066407 42.5625 95.066407 95.066407zm0 0" fill="#ff9838"/><path d="m70.453125 377.382812v-242.765624c0-52.503907 42.566406-95.066407 95.070313-95.066407h-30.90625c-52.503907 0-95.066407 42.5625-95.066407 95.066407v242.765624c0 52.503907 42.5625 95.066407 95.066407 95.066407h30.90625c-52.503907 0-95.070313-42.5625-95.070313-95.066407zm0 0" fill="#ff8709"/><path d="m339.523438 103.179688h-90.972657c-6.9375 0-12.566406 5.628906-12.566406 12.566406v12.59375c0 6.9375 5.628906 12.566406 12.570313 12.566406h15.53125c3.136718 0 5.375 3.039062 4.445312 6.035156l-68.671875 220.882813c-.601563 1.945312-2.402344 3.269531-4.441406 3.269531h-22.941407c-6.941406 0-12.566406 5.628906-12.566406 12.566406v12.59375c0 6.9375 5.625 12.566406 12.566406 12.566406h90.972657c6.9375 0 12.566406-5.628906 12.566406-12.566406v-12.59375c0-6.941406-5.625-12.566406-12.566406-12.566406h-18.78125c-3.136719 0-5.371094-3.039062-4.441407-6.035156l68.667969-220.882813c.605469-1.945312 2.40625-3.273437 4.445313-3.273437h26.183594c6.941406 0 12.566406-5.625 12.566406-12.5625v-12.59375c0-6.9375-5.625-12.566406-12.566406-12.566406zm0 0" fill="#d9edff"/><path d="m189.609375 396.253906v-12.59375c0-6.9375 5.625-12.566406 12.566406-12.566406h22.941407c2.039062 0 3.839843-1.324219 4.445312-3.269531l68.667969-220.882813c.929687-2.996094-1.308594-6.035156-4.445313-6.035156h-15.53125c-6.941406 0-12.570312-5.625-12.570312-12.566406v-12.59375c0-6.9375 5.628906-12.566406 12.566406-12.566406h-29.699219c-6.9375 0-12.566406 5.628906-12.566406 12.566406v12.59375c0 6.9375 5.625 12.566406 12.566406 12.566406h15.535157c3.136718 0 5.375 3.039062 4.445312 6.035156l-68.671875 220.882813c-.601563 1.945312-2.402344 3.269531-4.441406 3.269531h-22.941407c-6.941406 0-12.566406 5.628906-12.566406 12.566406v12.59375c0 6.9375 5.625 12.566406 12.566406 12.566406h29.699219c-6.9375 0-12.566406-5.625-12.566406-12.566406zm0 0" fill="#b4dbff"/></svg>