<svg height="512pt" viewBox="0 0 512 512.001" width="512pt" xmlns="http://www.w3.org/2000/svg"><path d="m364.910156 113.695312h-217.820312c-14.867188 0-26.957032 12.09375-26.957032 26.957032v34.609375c0 14.863281 12.09375 26.957031 26.957032 26.957031h23.726562c8.847656 0 16.707032-4.28125 21.625-10.882812h24.621094v148.320312c-11.945312 2.769531-20.871094 13.492188-20.871094 26.265625v23.726563c0 14.863281 12.09375 26.957031 26.957032 26.957031h65.464843c14.867188 0 26.957031-12.09375 26.957031-26.957031v-23.726563c0-12.773437-8.925781-23.496094-20.867187-26.265625v-148.320312h24.855469c4.917968 6.601562 12.78125 10.882812 21.625 10.882812h23.726562c14.867188 0 26.957032-12.09375 26.957032-26.957031v-34.609375c.003906-14.863282-12.089844-26.957032-26.957032-26.957032zm0 0" fill="#60b8ff"/><path d="m227.953125 389.648438v-23.726563c0-12.773437 8.925781-23.496094 20.867187-26.265625v-148.320312h-31.757812v148.320312c-11.945312 2.769531-20.871094 13.492188-20.871094 26.265625v23.726563c0 14.867187 12.09375 26.957031 26.957032 26.957031h31.761718c-14.863281 0-26.957031-12.089844-26.957031-26.957031zm0 0" fill="#22a7ff"/><path d="m151.890625 175.261719v-34.609375c0-14.863282 12.09375-26.957032 26.957031-26.957032h-31.757812c-14.867188 0-26.957032 12.09375-26.957032 26.957032v34.609375c0 14.867187 12.089844 26.957031 26.957032 26.957031h23.726562c1.351563 0 2.679688-.109375 3.980469-.304688-12.949219-1.960937-22.90625-13.164062-22.90625-26.652343zm0 0" fill="#22a7ff"/><path d="m352.703125 193.046875c-.945313-1.074219-2.292969-1.707031-3.722656-1.707031h-33.949219 4.527344c4.917968 6.597656 12.78125 10.878906 21.625 10.878906h23.726562c1.378906 0 2.730469-.101562 4.054688-.304688-6.441406-.957031-12.148438-4.191406-16.261719-8.867187zm0 0" fill="#22a7ff"/><path d="m364.910156 138.71875h-217.820312c-1.070313 0-1.9375.867188-1.9375 1.933594v34.609375c0 1.070312.867187 1.9375 1.9375 1.9375h23.726562c1.070313 0 1.933594-.867188 1.933594-1.9375v-7.011719c0-1.066406.867188-1.933594 1.9375-1.933594h65.457031c1.070313 0 1.9375.867188 1.9375 1.933594v193.800781c0 1.070313-.867187 1.933594-1.9375 1.933594h-16.996093c-1.066407 0-1.933594.867187-1.933594 1.9375v23.726563c0 1.070312.867187 1.9375 1.933594 1.9375h65.464843c1.070313 0 1.9375-.867188 1.9375-1.9375v-23.726563c0-1.070313-.867187-1.9375-1.9375-1.9375h-16.996093c-1.070313 0-1.933594-.863281-1.933594-1.933594v-193.800781c0-1.066406.863281-1.933594 1.933594-1.933594h65.695312c1.070312 0 1.9375.867188 1.9375 1.933594v7.011719c0 1.070312.867188 1.9375 1.9375 1.9375h23.726562c1.066407 0 1.933594-.867188 1.933594-1.9375v-34.609375c0-1.066406-.867187-1.933594-1.9375-1.933594zm0 0" fill="#0094fd"/><g fill="#d9edff"><path d="m402.910156 62.273438h-293.820312c-4.265625 0-7.722656-3.460938-7.722656-7.726563 0-4.269531 3.457031-7.726563 7.722656-7.726563h293.820312c4.265625 0 7.726563 3.457032 7.726563 7.726563 0 4.265625-3.460938 7.726563-7.726563 7.726563zm0 0"/><path d="m457.457031 410.636719c-4.269531 0-7.726562-3.460938-7.726562-7.726563v-293.820312c0-4.265625 3.457031-7.726563 7.726562-7.726563 4.265625 0 7.722657 3.460938 7.722657 7.726563v293.820312c0 4.265625-3.457032 7.726563-7.722657 7.726563zm0 0"/><path d="m402.910156 465.179688h-293.820312c-4.265625 0-7.722656-3.457032-7.722656-7.722657 0-4.269531 3.457031-7.726562 7.722656-7.726562h293.820312c4.265625 0 7.726563 3.457031 7.726563 7.726562 0 4.265625-3.460938 7.722657-7.726563 7.722657zm0 0"/><path d="m54.546875 410.636719c-4.265625 0-7.726563-3.460938-7.726563-7.726563v-293.820312c0-4.265625 3.460938-7.726563 7.726563-7.726563s7.726563 3.460938 7.726563 7.726563v293.820312c0 4.265625-3.460938 7.726563-7.726563 7.726563zm0 0"/></g><path d="m457.457031 109.089844c30.074219 0 54.542969-24.46875 54.542969-54.542969 0-30.078125-24.46875-54.546875-54.542969-54.546875-30.078125 0-54.546875 24.46875-54.546875 54.542969 0 30.078125 24.46875 54.546875 54.546875 54.546875zm0 0" fill="#ffe55a"/><path d="m433.816406 54.546875c0-24.710937 16.519532-45.621094 39.089844-52.304687-4.902344-1.449219-10.082031-2.242188-15.449219-2.242188-30.078125 0-54.546875 24.46875-54.546875 54.546875 0 30.074219 24.46875 54.542969 54.546875 54.542969 5.367188 0 10.546875-.792969 15.453125-2.242188-22.574218-6.683594-39.09375-27.59375-39.09375-52.300781zm0 0" fill="#ffd500"/><path d="m485.464844 54.542969c0 15.472656-12.539063 28.011719-28.007813 28.011719-15.472656 0-28.011719-12.539063-28.011719-28.011719 0-15.46875 12.539063-28.007813 28.011719-28.007813 15.46875 0 28.007813 12.539063 28.007813 28.007813zm0 0" fill="#ffd500"/><path d="m460.347656 54.542969c0-9.757813 4.992188-18.34375 12.558594-23.359375-4.429688-2.9375-9.738281-4.648438-15.453125-4.648438-15.46875 0-28.007813 12.539063-28.007813 28.007813 0 15.472656 12.539063 28.011719 28.007813 28.011719 5.714844 0 11.023437-1.710938 15.453125-4.648438-7.566406-5.015625-12.558594-13.601562-12.558594-23.363281zm0 0" fill="#fbc700"/><path d="m54.546875 109.089844c30.074219 0 54.542969-24.46875 54.542969-54.542969 0-30.078125-24.46875-54.546875-54.542969-54.546875-30.078125 0-54.546875 24.46875-54.546875 54.546875 0 30.074219 24.46875 54.542969 54.546875 54.542969zm0 0" fill="#ffe55a"/><path d="m30.90625 54.546875c0-24.710937 16.519531-45.621094 39.09375-52.304687-4.90625-1.449219-10.085938-2.242188-15.453125-2.242188-30.078125 0-54.546875 24.46875-54.546875 54.546875 0 30.074219 24.46875 54.542969 54.546875 54.542969 5.367187 0 10.546875-.792969 15.453125-2.242188-22.574219-6.683594-39.09375-27.59375-39.09375-52.300781zm0 0" fill="#ffd500"/><path d="m82.554688 54.542969c0 15.472656-12.539063 28.011719-28.007813 28.011719-15.472656 0-28.011719-12.539063-28.011719-28.011719 0-15.46875 12.539063-28.007813 28.011719-28.007813 15.46875 0 28.007813 12.539063 28.007813 28.007813zm0 0" fill="#ffd500"/><path d="m57.441406 54.542969c0-9.757813 4.992188-18.34375 12.558594-23.359375-4.429688-2.9375-9.742188-4.648438-15.453125-4.648438-15.472656 0-28.011719 12.539063-28.011719 28.007813 0 15.472656 12.539063 28.011719 28.011719 28.011719 5.710937 0 11.023437-1.710938 15.453125-4.648438-7.566406-5.015625-12.558594-13.601562-12.558594-23.363281zm0 0" fill="#fbc700"/><path d="m457.457031 512c30.074219 0 54.542969-24.46875 54.542969-54.542969 0-30.078125-24.46875-54.546875-54.542969-54.546875-30.078125 0-54.546875 24.46875-54.546875 54.546875 0 30.074219 24.46875 54.542969 54.546875 54.542969zm0 0" fill="#ffe55a"/><path d="m433.816406 457.457031c0-24.710937 16.519532-45.621093 39.089844-52.304687-4.902344-1.449219-10.085938-2.242188-15.453125-2.242188-30.074219 0-54.542969 24.46875-54.542969 54.546875 0 30.074219 24.46875 54.542969 54.542969 54.542969 5.367187 0 10.550781-.789062 15.453125-2.242188-22.570312-6.683593-39.089844-27.59375-39.089844-52.300781zm0 0" fill="#ffd500"/><path d="m485.464844 457.457031c0 15.46875-12.539063 28.007813-28.007813 28.007813-15.472656 0-28.011719-12.539063-28.011719-28.007813 0-15.472656 12.539063-28.011719 28.011719-28.011719 15.46875 0 28.007813 12.539063 28.007813 28.011719zm0 0" fill="#ffd500"/><path d="m460.347656 457.457031c0-9.761719 4.992188-18.347656 12.558594-23.363281-4.429688-2.9375-9.738281-4.648438-15.453125-4.648438-15.46875 0-28.007813 12.539063-28.007813 28.011719 0 15.46875 12.539063 28.007813 28.007813 28.007813 5.714844 0 11.023437-1.710938 15.453125-4.648438-7.566406-5.015625-12.558594-13.605468-12.558594-23.359375zm0 0" fill="#fbc700"/><path d="m54.546875 512c30.074219 0 54.542969-24.46875 54.542969-54.542969 0-30.078125-24.46875-54.546875-54.542969-54.546875-30.078125 0-54.546875 24.46875-54.546875 54.546875 0 30.074219 24.46875 54.542969 54.546875 54.542969zm0 0" fill="#ffe55a"/><path d="m30.90625 457.457031c0-24.710937 16.519531-45.621093 39.09375-52.304687-4.90625-1.449219-10.085938-2.242188-15.453125-2.242188-30.078125 0-54.546875 24.46875-54.546875 54.546875 0 30.074219 24.46875 54.542969 54.546875 54.542969 5.367187 0 10.546875-.792969 15.453125-2.242188-22.574219-6.683593-39.09375-27.59375-39.09375-52.300781zm0 0" fill="#ffd500"/><path d="m82.554688 457.457031c0 15.46875-12.539063 28.007813-28.007813 28.007813-15.472656 0-28.011719-12.539063-28.011719-28.007813 0-15.472656 12.539063-28.011719 28.011719-28.011719 15.46875 0 28.007813 12.539063 28.007813 28.011719zm0 0" fill="#ffd500"/><path d="m57.441406 457.457031c0-9.761719 4.992188-18.347656 12.558594-23.363281-4.429688-2.9375-9.742188-4.648438-15.453125-4.648438-15.472656 0-28.011719 12.539063-28.011719 28.011719 0 15.46875 12.539063 28.007813 28.011719 28.007813 5.710937 0 11.023437-1.710938 15.453125-4.648438-7.566406-5.015625-12.558594-13.605468-12.558594-23.359375zm0 0" fill="#fbc700"/></svg>