<svg height="512pt" viewBox="0 0 512 512" width="512pt" xmlns="http://www.w3.org/2000/svg"><path d="m385.292969 0h-258.585938c-69.976562 0-126.707031 56.730469-126.707031 126.707031v258.585938c0 69.976562 56.730469 126.707031 126.707031 126.707031h258.585938c69.976562 0 126.707031-56.730469 126.707031-126.707031v-258.585938c0-69.976562-56.730469-126.707031-126.707031-126.707031zm0 0" fill="#60b8ff"/><path d="m30.90625 385.292969v-258.585938c0-69.976562 56.726562-126.707031 126.707031-126.707031h-30.90625c-69.976562 0-126.707031 56.730469-126.707031 126.707031v258.585938c0 69.976562 56.730469 126.707031 126.707031 126.707031h30.90625c-69.980469 0-126.707031-56.730469-126.707031-126.707031zm0 0" fill="#22a7ff"/><path d="m472.449219 377.382812c0 52.503907-42.5625 95.066407-95.066407 95.066407h-242.765624c-52.503907 0-95.066407-42.5625-95.066407-95.066407v-242.765624c0-52.503907 42.5625-95.066407 95.066407-95.066407h242.765624c52.503907 0 95.066407 42.5625 95.066407 95.066407zm0 0" fill="#22a7ff"/><path d="m70.453125 377.382812v-242.765624c0-52.503907 42.566406-95.066407 95.070313-95.066407h-30.90625c-52.503907 0-95.066407 42.5625-95.066407 95.066407v242.765624c0 52.503907 42.5625 95.066407 95.066407 95.066407h30.90625c-52.503907 0-95.070313-42.5625-95.070313-95.066407zm0 0" fill="#0094fd"/><path d="m285.15625 359.527344-70.84375-231.09375c-3.242188-10.316406-19.03125-15.027344-32.328125-15.027344-13.300781 0-29.09375 4.71875-32.347656 15.074219l-70.449219 231.039062c-.160156.652344-.5 2.015625-.519531 2.425781 0 8.378907 16.371093 17.609376 31.28125 17.609376 11.195312 0 12.527343-4.65625 12.964843-6.1875l14.195313-52.195313h90.125l14.21875 52.277344c1.152344 4.039062 5.511719 6.105469 12.9375 6.105469 14.914063 0 31.285156-9.230469 31.285156-17.632813-.019531-.390625-.355469-1.746094-.519531-2.394531zm-139.523438-70.589844 33.324219-122.347656c.839844-3.078125 5.210938-3.078125 6.050781 0l33.324219 122.347656zm0 0" fill="#d9edff"/><path d="m104.421875 361.945312c.019531-.410156.359375-1.773437.519531-2.425781l70.449219-231.039062c2.226563-7.085938 10.324219-11.53125 19.476563-13.632813-4.226563-.96875-8.679688-1.441406-12.882813-1.441406-13.300781 0-29.09375 4.714844-32.347656 15.074219l-70.449219 231.039062c-.160156.652344-.5 2.015625-.519531 2.425781 0 8.378907 16.371093 17.609376 31.28125 17.609376 5.949219 0 9.097656-1.316407 10.820312-2.777344-9.171875-3.371094-16.347656-9.285156-16.347656-14.832032zm0 0" fill="#b4dbff"/><path d="m267.207031 373.449219-13.023437-47.890625c-.703125-2.589844-3.054688-4.386719-5.738282-4.386719h-21.207031l14.214844 52.273437c1.15625 4.042969 5.511719 6.109376 12.941406 6.109376 5.050781 0 10.269531-1.0625 14.964844-2.792969-1.050781-.894531-1.773437-1.996094-2.152344-3.3125zm0 0" fill="#b4dbff"/><path d="m432.578125 284.773438v78.714843c0 7.390625-8.675781 13.171875-20.242187 13.171875-10.601563 0-18.632813-5.78125-18.632813-13.171875v-9.316406c-11.566406 13.171875-26.667969 25.382813-48.835937 25.382813-22.8125 0-41.765626-13.496094-41.765626-42.734376 0-36.945312 30.519532-47.226562 74.859376-47.226562h13.171874v-4.179688c0-13.8125-7.070312-29.554687-28.273437-29.554687-24.738281 0-28.917969 9.957031-36.628906 9.957031-9.316407 0-14.132813-11.242187-14.132813-20.558594 0-13.175781 28.59375-23.132812 51.402344-23.132812 50.121094 0 69.078125 30.199219 69.078125 62.648438zm-41.445313 26.347656h-4.820312c-21.527344 0-41.765625 2.246094-41.765625 20.238281 0 11.890625 7.386719 17.351563 17.027344 17.351563 13.171875 0 29.558593-15.101563 29.558593-30.84375zm0 0" fill="#d9edff"/><g fill="#b4dbff"><path d="m326.230469 265.820312c4.234375 0 7.40625-3 13.492187-5.707031-2.832031-4.09375-4.277344-9.761719-4.277344-14.855469 0-11.136718 20.429688-19.972656 40.527344-22.441406-3.925781-.445312-8.074218-.691406-12.472656-.691406-22.808594 0-51.402344 9.960938-51.402344 23.132812 0 9.316407 4.816406 20.5625 14.132813 20.5625zm0 0"/><path d="m326.449219 336.824219c0-36.949219 30.523437-47.230469 74.859375-47.230469h8.996094c2.308593 0 4.179687-1.871094 4.179687-4.175781 0-13.816407-7.070313-29.558594-28.273437-29.558594-5.535157 0-10.035157.5-13.78125 1.273437 13.8125 4.003907 18.703124 16.804688 18.703124 28.285157v4.175781h-13.171874c-44.339844 0-74.859376 10.28125-74.859376 47.230469 0 29.234375 18.953126 42.730469 41.765626 42.730469 4.207031 0 8.160156-.441407 11.886718-1.246094-17.359375-3.933594-30.304687-17.332032-30.304687-41.484375zm0 0"/><path d="m410.304688 311.121094h-.640626c-6.464843 0-12.8125.207031-18.53125.976562v5.769532c0 11.101562-8.148437 21.871093-17.570312 27.265624 2.984375 2.40625 6.929688 3.578126 11.363281 3.578126 13.171875 0 29.558594-15.101563 29.558594-30.84375v-2.570313c0-2.308594-1.871094-4.175781-4.179687-4.175781zm0 0"/><path d="m242.039062 281.425781-31.277343-114.835937c-.417969-1.539063-1.722657-2.308594-3.023438-2.308594h-25.566406v.011719c1.234375.070312 2.4375.832031 2.835937 2.296875l15.339844 56.3125 17.984375 66.035156h17.96875c3.921875 0 6.769531-3.730469 5.738281-7.511719zm0 0"/></g></svg>