<svg height="512pt" viewBox="-75 0 512 512" width="512pt" xmlns="http://www.w3.org/2000/svg"><path d="m17.664062 512h325.917969c9.757813 0 17.664063-7.90625 17.664063-17.664062 0-22.972657 0-357.441407 0-380.785157 0-6.742187-2.675782-13.207031-7.441406-17.976562l-88.132813-88.128907c-4.765625-4.765624-11.230469-7.445312-17.972656-7.445312-7.488281 0-218.792969 0-230.035157 0-9.753906 0-17.664062 7.90625-17.664062 17.664062v476.671876c0 9.757812 7.910156 17.664062 17.664062 17.664062zm0 0" fill="#d9edff"/><path d="m30.90625 494.335938v-476.671876c0-9.757812 7.90625-17.664062 17.664062-17.664062-16.855468 0-28.492187 0-30.90625 0-9.753906 0-17.664062 7.90625-17.664062 17.664062v476.671876c0 9.757812 7.90625 17.664062 17.664062 17.664062h30.90625c-9.757812 0-17.664062-7.90625-17.664062-17.664062zm0 0" fill="#b4dbff"/><path d="m247.699219 0c6.738281 0 13.207031 2.679688 17.972656 7.445312l88.128906 88.128907c4.769531 4.769531 7.445313 11.234375 7.445313 17.976562v.484375h-100.011719c-7.746094 0-14.019531-6.277344-14.019531-14.019531v-100.015625zm0 0" fill="#6c7fd9"/><path d="m278.117188 100.015625v-80.125l-12.445313-12.445313c-4.765625-4.765624-11.230469-7.445312-17.972656-7.445312-.109375 0-.273438 0-.488281 0v100.015625c0 7.742187 6.277343 14.019531 14.019531 14.019531h30.90625c-7.742188 0-14.019531-6.277344-14.019531-14.019531zm0 0" fill="#4f66d1"/><g fill="#60b8ff"><path d="m283.402344 192.808594h-205.558594c-7.230469 0-13.089844-5.859375-13.089844-13.089844 0-7.226562 5.863282-13.085938 13.089844-13.085938h205.558594c7.230468 0 13.089844 5.859376 13.089844 13.085938 0 7.230469-5.859376 13.089844-13.089844 13.089844zm0 0"/><path d="m283.402344 251.890625h-205.558594c-7.230469 0-13.089844-5.859375-13.089844-13.085937 0-7.230469 5.863282-13.089844 13.089844-13.089844h205.558594c7.230468 0 13.089844 5.859375 13.089844 13.089844 0 7.226562-5.859376 13.085937-13.089844 13.085937zm0 0"/><path d="m283.402344 310.976562h-68.324219c-7.230469 0-13.089844-5.863281-13.089844-13.089843 0-7.230469 5.863281-13.089844 13.089844-13.089844h68.324219c7.230468 0 13.089844 5.859375 13.089844 13.089844 0 7.226562-5.859376 13.089843-13.089844 13.089843zm0 0"/><path d="m283.402344 370.058594h-68.324219c-7.230469 0-13.089844-5.863282-13.089844-13.089844 0-7.230469 5.863281-13.089844 13.089844-13.089844h68.324219c7.230468 0 13.089844 5.863282 13.089844 13.089844 0 7.230469-5.859376 13.089844-13.089844 13.089844zm0 0"/><path d="m283.402344 429.140625h-205.558594c-7.230469 0-13.089844-5.859375-13.089844-13.085937 0-7.230469 5.863282-13.089844 13.089844-13.089844h205.558594c7.230468 0 13.089844 5.859375 13.089844 13.089844 0 7.226562-5.859376 13.085937-13.089844 13.085937zm0 0"/></g><path d="m70.214844 314.550781h69.574218c2.21875 0 4.019532-1.800781 4.019532-4.019531v-12.773438c0-3.3125 3.863281-5.113281 6.398437-2.988281l35.375 29.671875c1.859375 1.558594 1.859375 4.414063 0 5.96875l-35.375 29.675782c-2.535156 2.125-6.398437.320312-6.398437-2.988282v-12.773437c0-2.21875-1.800782-4.019531-4.019532-4.019531h-69.574218c-3.015625 0-5.460938-2.441407-5.460938-5.457032v-14.84375c0-3.011718 2.445313-5.453125 5.460938-5.453125zm0 0" fill="#ff646f"/><path d="m177.679688 317.8125-27.472657 23.039062c-2.535156 2.128907-6.402343.324219-6.402343-2.984374v-12.773438c0-2.21875-1.796876-4.019531-4.015626-4.019531h-69.578124c-2.230469 0-4.144532-1.34375-4.988282-3.261719-.296875.671875-.46875 1.410156-.46875 2.191406v14.84375c0 3.015625 2.445313 5.457032 5.457032 5.457032h69.578124c2.21875 0 4.015626 1.800781 4.015626 4.019531v12.773437c0 3.308594 3.867187 5.113282 6.402343 2.988282l35.375-29.675782c1.859375-1.554687 1.859375-4.410156 0-5.96875zm0 0" fill="#fc2b3a"/><path d="m283.402344 175.640625h-205.558594c-3.941406 0-7.464844-1.75-9.863281-4.507813-2.003907 2.300782-3.226563 5.296876-3.226563 8.585938 0 7.230469 5.863282 13.089844 13.089844 13.089844h205.558594c7.230468 0 13.089844-5.863282 13.089844-13.089844 0-3.289062-1.222657-6.285156-3.222657-8.585938-2.402343 2.757813-5.925781 4.507813-9.867187 4.507813zm0 0" fill="#22a7ff"/><path d="m283.402344 234.722656h-205.558594c-3.941406 0-7.464844-1.75-9.863281-4.503906-2.003907 2.296875-3.226563 5.292969-3.226563 8.582031 0 7.230469 5.863282 13.089844 13.089844 13.089844h205.558594c7.230468 0 13.089844-5.859375 13.089844-13.089844 0-3.285156-1.222657-6.285156-3.222657-8.582031-2.402343 2.753906-5.925781 4.503906-9.867187 4.503906zm0 0" fill="#22a7ff"/><path d="m283.402344 293.804688h-68.324219c-3.941406 0-7.464844-1.75-9.863281-4.503907-2.003906 2.296875-3.226563 5.296875-3.226563 8.585938 0 7.226562 5.859375 13.085937 13.089844 13.085937h68.324219c7.230468 0 13.089844-5.859375 13.089844-13.085937 0-3.289063-1.222657-6.289063-3.222657-8.585938-2.402343 2.753907-5.925781 4.503907-9.867187 4.503907zm0 0" fill="#22a7ff"/><path d="m283.402344 352.890625h-68.324219c-3.941406 0-7.464844-1.75-9.863281-4.507813-2.003906 2.300782-3.226563 5.296876-3.226563 8.585938 0 7.230469 5.859375 13.089844 13.089844 13.089844h68.324219c7.230468 0 13.089844-5.863282 13.089844-13.089844 0-3.289062-1.222657-6.285156-3.222657-8.585938-2.402343 2.757813-5.925781 4.507813-9.867187 4.507813zm0 0" fill="#22a7ff"/><path d="m283.402344 411.972656h-205.558594c-3.941406 0-7.464844-1.75-9.863281-4.503906-2.003907 2.296875-3.226563 5.296875-3.226563 8.585938 0 7.226562 5.863282 13.085937 13.089844 13.085937h205.558594c7.230468 0 13.089844-5.859375 13.089844-13.085937 0-3.289063-1.222657-6.289063-3.222657-8.585938-2.402343 2.753906-5.925781 4.503906-9.867187 4.503906zm0 0" fill="#22a7ff"/></svg>