<svg height="512pt" viewBox="-75 0 512 512" width="512pt" xmlns="http://www.w3.org/2000/svg"><path d="m17.664062 512h325.917969c9.757813 0 17.664063-7.90625 17.664063-17.664062 0-22.972657 0-357.441407 0-380.785157 0-6.742187-2.675782-13.207031-7.441406-17.976562l-88.132813-88.128907c-4.765625-4.765624-11.230469-7.445312-17.972656-7.445312-7.488281 0-218.792969 0-230.035157 0-9.753906 0-17.664062 7.90625-17.664062 17.664062v476.671876c0 9.757812 7.910156 17.664062 17.664062 17.664062zm0 0" fill="#d9edff"/><path d="m30.90625 494.335938v-476.671876c0-9.757812 7.90625-17.664062 17.664062-17.664062-16.855468 0-28.492187 0-30.90625 0-9.753906 0-17.664062 7.90625-17.664062 17.664062v476.671876c0 9.757812 7.90625 17.664062 17.664062 17.664062h30.90625c-9.757812 0-17.664062-7.90625-17.664062-17.664062zm0 0" fill="#b4dbff"/><path d="m247.699219 0c6.738281 0 13.207031 2.679688 17.972656 7.445312l88.128906 88.128907c4.769531 4.769531 7.445313 11.234375 7.445313 17.976562v.484375h-100.011719c-7.746094 0-14.019531-6.277344-14.019531-14.019531v-100.015625zm0 0" fill="#6c7fd9"/><path d="m278.117188 100.015625v-80.125l-12.445313-12.445313c-4.765625-4.765624-11.230469-7.445312-17.972656-7.445312-.109375 0-.273438 0-.488281 0v100.015625c0 7.742187 6.277343 14.019531 14.019531 14.019531h30.90625c-7.742188 0-14.019531-6.277344-14.019531-14.019531zm0 0" fill="#4f66d1"/><g fill="#60b8ff"><path d="m77.84375 192.808594h205.558594c7.230468 0 13.089844-5.859375 13.089844-13.089844 0-7.226562-5.859376-13.085938-13.089844-13.085938h-205.558594c-7.230469 0-13.089844 5.859376-13.089844 13.085938 0 7.230469 5.863282 13.089844 13.089844 13.089844zm0 0"/><path d="m77.84375 251.890625h205.558594c7.230468 0 13.089844-5.859375 13.089844-13.085937 0-7.230469-5.859376-13.089844-13.089844-13.089844h-205.558594c-7.230469 0-13.089844 5.859375-13.089844 13.089844 0 7.226562 5.863282 13.085937 13.089844 13.085937zm0 0"/><path d="m77.84375 310.976562h68.328125c7.226563 0 13.085937-5.863281 13.085937-13.089843 0-7.230469-5.859374-13.089844-13.085937-13.089844h-68.328125c-7.230469 0-13.089844 5.859375-13.089844 13.089844 0 7.226562 5.863282 13.089843 13.089844 13.089843zm0 0"/><path d="m77.84375 370.058594h68.328125c7.226563 0 13.085937-5.863282 13.085937-13.089844 0-7.230469-5.859374-13.089844-13.085937-13.089844h-68.328125c-7.230469 0-13.089844 5.863282-13.089844 13.089844 0 7.230469 5.863282 13.089844 13.089844 13.089844zm0 0"/><path d="m77.84375 429.140625h205.558594c7.230468 0 13.089844-5.859375 13.089844-13.085937 0-7.230469-5.859376-13.089844-13.089844-13.089844h-205.558594c-7.230469 0-13.089844 5.859375-13.089844 13.089844 0 7.226562 5.863282 13.085937 13.089844 13.085937zm0 0"/></g><path d="m291.035156 314.550781h-69.578125c-2.21875 0-4.015625-1.800781-4.015625-4.019531v-12.773438c0-3.3125-3.863281-5.113281-6.398437-2.988281l-35.378907 29.671875c-1.855468 1.558594-1.855468 4.414063 0 5.96875l35.378907 29.675782c2.535156 2.125 6.398437.320312 6.398437-2.988282v-12.773437c0-2.21875 1.796875-4.019531 4.015625-4.019531h69.578125c3.015625 0 5.457032-2.441407 5.457032-5.457032v-14.84375c0-3.011718-2.441407-5.453125-5.457032-5.453125zm0 0" fill="#ff646f"/><path d="m291.035156 321.074219h-69.578125c-2.21875 0-4.015625 1.800781-4.015625 4.019531v12.773438c0 3.3125-3.863281 5.113281-6.398437 2.988281l-27.472657-23.042969-7.90625 6.628906c-1.855468 1.558594-1.855468 4.414063 0 5.972656l35.378907 29.671876c2.535156 2.125 6.398437.324218 6.398437-2.984376v-12.777343c0-2.21875 1.796875-4.015625 4.015625-4.015625h69.578125c3.015625 0 5.457032-2.445313 5.457032-5.460938v-14.839844c0-.785156-.167969-1.523437-.464844-2.195312-.847656 1.917969-2.757813 3.261719-4.992188 3.261719zm0 0" fill="#fc2b3a"/><path d="m283.402344 175.640625h-205.558594c-3.941406 0-7.464844-1.75-9.863281-4.507813-2.003907 2.300782-3.226563 5.296876-3.226563 8.585938 0 7.230469 5.863282 13.089844 13.089844 13.089844h205.558594c7.230468 0 13.089844-5.863282 13.089844-13.089844 0-3.289062-1.222657-6.285156-3.222657-8.585938-2.402343 2.757813-5.925781 4.507813-9.867187 4.507813zm0 0" fill="#22a7ff"/><path d="m283.402344 234.722656h-205.558594c-3.941406 0-7.464844-1.75-9.863281-4.503906-2.003907 2.296875-3.226563 5.292969-3.226563 8.582031 0 7.230469 5.863282 13.089844 13.089844 13.089844h205.558594c7.230468 0 13.089844-5.859375 13.089844-13.089844 0-3.285156-1.222657-6.285156-3.222657-8.582031-2.402343 2.753906-5.925781 4.503906-9.867187 4.503906zm0 0" fill="#22a7ff"/><path d="m146.171875 293.804688h-68.328125c-3.941406 0-7.464844-1.75-9.863281-4.503907-2.003907 2.300781-3.226563 5.296875-3.226563 8.585938 0 7.226562 5.863282 13.089843 13.089844 13.089843h68.328125c7.226563 0 13.085937-5.863281 13.085937-13.089843 0-3.289063-1.222656-6.285157-3.222656-8.585938-2.398437 2.753907-5.925781 4.503907-9.863281 4.503907zm0 0" fill="#22a7ff"/><path d="m146.171875 352.890625h-68.328125c-3.941406 0-7.464844-1.75-9.863281-4.507813-2.003907 2.300782-3.226563 5.296876-3.226563 8.585938 0 7.230469 5.863282 13.089844 13.089844 13.089844h68.328125c7.226563 0 13.085937-5.863282 13.085937-13.089844 0-3.289062-1.222656-6.285156-3.222656-8.585938-2.398437 2.757813-5.925781 4.507813-9.863281 4.507813zm0 0" fill="#22a7ff"/><path d="m283.402344 411.972656h-205.558594c-3.941406 0-7.464844-1.75-9.863281-4.503906-2.003907 2.296875-3.226563 5.296875-3.226563 8.582031 0 7.230469 5.863282 13.089844 13.089844 13.089844h205.558594c7.230468 0 13.089844-5.859375 13.089844-13.089844 0-3.285156-1.222657-6.285156-3.222657-8.582031-2.402343 2.753906-5.925781 4.503906-9.867187 4.503906zm0 0" fill="#22a7ff"/></svg>