<svg height="512pt" viewBox="0 -10 512 512" width="512pt" xmlns="http://www.w3.org/2000/svg"><g fill="#b4dbff"><path d="m256 43.644531c-4.265625 0-7.726562-3.460937-7.726562-7.726562v-28.191407c0-4.269531 3.460937-7.726562 7.726562-7.726562s7.726562 3.460938 7.726562 7.726562v28.1875c0 4.269532-3.460937 7.730469-7.726562 7.730469zm0 0"/><path d="m256 107.648438c-4.265625 0-7.726562-3.460938-7.726562-7.726563v-28.191406c0-4.269531 3.460937-7.726563 7.726562-7.726563s7.726562 3.460938 7.726562 7.726563v28.191406c0 4.265625-3.460937 7.726563-7.726562 7.726563zm0 0"/><path d="m256 171.652344c-4.265625 0-7.726562-3.460938-7.726562-7.726563v-28.191406c0-4.265625 3.460937-7.726563 7.726562-7.726563s7.726562 3.460938 7.726562 7.726563v28.191406c0 4.265625-3.460937 7.726563-7.726562 7.726563zm0 0"/><path d="m256 235.65625c-4.265625 0-7.726562-3.460938-7.726562-7.726562v-28.191407c0-4.265625 3.460937-7.726562 7.726562-7.726562s7.726562 3.460937 7.726562 7.726562v28.191407c0 4.265624-3.460937 7.726562-7.726562 7.726562zm0 0"/><path d="m256 299.660156c-4.265625 0-7.726562-3.460937-7.726562-7.726562v-28.191406c0-4.265626 3.460937-7.726563 7.726562-7.726563s7.726562 3.460937 7.726562 7.726563v28.191406c0 4.265625-3.460937 7.726562-7.726562 7.726562zm0 0"/><path d="m256 363.664062c-4.265625 0-7.726562-3.460937-7.726562-7.726562v-28.191406c0-4.265625 3.460937-7.726563 7.726562-7.726563s7.726562 3.460938 7.726562 7.726563v28.191406c0 4.265625-3.460937 7.726562-7.726562 7.726562zm0 0"/><path d="m256 427.667969c-4.265625 0-7.726562-3.457031-7.726562-7.726563v-28.191406c0-4.265625 3.460937-7.726562 7.726562-7.726562s7.726562 3.460937 7.726562 7.726562v28.191406c0 4.269532-3.460937 7.726563-7.726562 7.726563zm0 0"/><path d="m256 491.671875c-4.265625 0-7.726562-3.457031-7.726562-7.726563v-28.191406c0-4.265625 3.460937-7.726562 7.726562-7.726562s7.726562 3.460937 7.726562 7.726562v28.191406c0 4.269532-3.460937 7.726563-7.726562 7.726563zm0 0"/></g><path d="m488.835938 460.628906c-2.902344 0-5.820313-.546875-8.597657-1.65625l-142.929687-57.089844c-13.753906-5.496093-22.640625-18.613281-22.640625-33.421874v-245.246094c0-14.8125 8.886719-27.929688 22.640625-33.425782l142.929687-57.089843c7.144531-2.855469 15.214844-1.980469 21.585938 2.332031 6.371093 4.316406 10.175781 11.488281 10.175781 19.183594v383.242187c0 7.695313-3.804688 14.867188-10.175781 19.183594-3.894531 2.636719-8.421875 3.988281-12.988281 3.988281zm0 0" fill="#ffe55a"/><path d="m10.175781 456.640625c-6.371093-4.316406-10.175781-11.488281-10.175781-19.183594v-383.242187c0-7.695313 3.804688-14.867188 10.175781-19.183594 6.371094-4.3125 14.441407-5.1875 21.585938-2.332031l142.929687 57.089843c13.753906 5.496094 22.640625 18.613282 22.640625 33.425782v245.242187c0 14.8125-8.886719 27.929688-22.640625 33.425781l-142.929687 57.089844c-2.777344 1.109375-5.695313 1.65625-8.597657 1.65625-4.566406 0-9.09375-1.351562-12.988281-3.988281zm0 0" fill="#ffe55a"/><path d="m475.210938 67.230469-126.699219 50.609375c-2.210938.882812-3.640625 2.992187-3.640625 5.375v245.242187c0 2.382813 1.429687 4.492188 3.640625 5.375l126.699219 50.605469c3.152343 1.261719 6.585937-1.0625 6.585937-4.460938v-348.28125c0-3.398437-3.433594-5.722656-6.585937-4.464843zm0 0" fill="#ffd500"/><path d="m345.570312 380.011719v-268.351563c0-12.628906 5.925782-24.113281 15.65625-31.425781l-23.917968 9.554687c-13.753906 5.496094-22.644532 18.613282-22.644532 33.425782v245.242187c0 14.808594 8.890626 27.929688 22.644532 33.421875l23.917968 9.554688c-9.730468-7.304688-15.65625-18.792969-15.65625-31.421875zm0 0" fill="#ffd500"/><path d="m30.90625 437.457031v-383.242187c0-7.183594 3.316406-13.910156 8.941406-18.285156l-8.085937-3.230469c-7.144531-2.855469-15.214844-1.980469-21.585938 2.335937-6.371093 4.3125-10.175781 11.484375-10.175781 19.179688v383.242187c0 7.695313 3.804688 14.867188 10.175781 19.183594 3.894531 2.636719 8.421875 3.988281 12.988281 3.988281 2.902344 0 5.820313-.546875 8.597657-1.65625l8.085937-3.230468c-5.625-4.375-8.941406-11.097657-8.941406-18.285157zm0 0" fill="#ffd500"/><path d="m375.777344 382.636719v-273.601563c0-.789062.15625-1.542968.417968-2.253906l-27.683593 11.058594c-2.210938.882812-3.640625 2.992187-3.640625 5.375v245.242187c0 2.382813 1.429687 4.492188 3.640625 5.375l27.683593 11.058594c-.261718-.707031-.417968-1.464844-.417968-2.253906zm0 0" fill="#fbc700"/><path d="m163.488281 117.839844-126.699219-50.609375c-3.152343-1.257813-6.585937 1.066406-6.585937 4.460937v348.285156c0 3.398438 3.433594 5.722657 6.585937 4.460938l126.699219-50.605469c2.210938-.882812 3.640625-2.992187 3.640625-5.375v-245.242187c0-2.382813-1.429687-4.492188-3.640625-5.375zm0 0" fill="#ffd500"/><path d="m61.109375 76.945312-24.320313-9.714843c-3.152343-1.257813-6.585937 1.066406-6.585937 4.460937v348.285156c0 3.398438 3.433594 5.722657 6.585937 4.460938l24.320313-9.710938zm0 0" fill="#fbc700"/></svg>