<svg height="512pt" viewBox="0 -75 512 512" width="512pt" xmlns="http://www.w3.org/2000/svg"><path d="m53.277344 293.183594h400.847656v38.179687h-400.847656zm0 0" fill="#ff8088"/><g fill="#ff646f"><path d="m53.277344 304.644531h400.847656v26.71875h-400.847656zm0 0"/><path d="m54.503906 263.867188-52.441406 43.980468c-2.75 2.308594-2.75 6.542969 0 8.851563l52.441406 43.980469c3.757813 3.152343 9.488282.480468 9.488282-4.421876v-87.96875c0-4.902343-5.730469-7.574218-9.488282-4.421874zm0 0"/><path d="m457.496094 263.867188 52.441406 43.980468c2.75 2.308594 2.75 6.542969 0 8.851563l-52.441406 43.980469c-3.757813 3.152343-9.488282.480468-9.488282-4.421876v-87.96875c0-4.902343 5.730469-7.574218 9.488282-4.421874zm0 0"/></g><path d="m433.09375 224.933594c-.085938-.40625-.234375-1.011719-.332031-1.394532l-.03125-.128906-63.851563-209.410156c-3.023437-9.617188-17.589844-14-29.839844-14s-26.816406 4.394531-29.859374 14.070312l-64.136719 209.21875-.078125.28125c-.097656.390626-.238282.972657-.320313 1.367188l-.183593.867188.113281.878906c1.066406 8.410156 16.761719 15.613281 28.859375 15.613281 6.929687 0 11.050781-1.972656 12.246094-5.855469l12.058593-44.328125c.4375-1.601562 1.894531-2.714843 3.554688-2.714843h75.152343c1.660157 0 3.117188 1.113281 3.550782 2.714843l12.003906 44.121094.042969.160156c1.199219 3.914063 5.324219 5.902344 12.261719 5.902344 12.089843 0 27.78125-7.199219 28.859374-15.605469l.113282-.882812zm-66.691406-65.894532h-54.722656c-2.429688 0-4.191407-2.308593-3.554688-4.648437l29.078125-106.761719c.316406-1.160156 1.171875-1.402344 1.835937-1.402344.664063 0 1.523438.242188 1.835938 1.402344l29.082031 106.761719c.636719 2.339844-1.128906 4.648437-3.554687 4.648437zm0 0" fill="#6c7fd9"/><path d="m267.027344 18.746094c.097656-.390625.242187-.980469.328125-1.378906l.183593-.878907-.113281-.886719c-1.078125-8.402343-16.769531-15.601562-28.859375-15.601562-6.9375 0-11.0625 1.984375-12.261718 5.902344l-.042969.15625c-13.707031 50.386718-15.085938 55.628906-16.417969 60.703125-1.820312 6.917969-3.699219 14.074219-34.707031 127.902343-.316407 1.160157-1.171875 1.402344-1.835938 1.402344-.664062 0-1.519531-.242187-1.835937-1.402344-32.527344-119.425781-34.730469-127.347656-36.195313-132.617187-1.109375-3.972656-1.773437-6.371094-15.277343-56.027344l-.050782-.164062c-1.191406-3.886719-5.3125-5.855469-12.246094-5.855469-12.101562 0-27.792968 7.203125-28.859374 15.613281l-.113282.882813.183594.867187c.085938.402344.230469.996094.324219 1.378907l.035156.132812 64.203125 209.4375c3.019531 9.609375 17.582031 13.984375 29.832031 13.984375 12.253907 0 26.820313-4.398437 29.871094-14.101563l63.78125-209.179687zm0 0" fill="#d9edff"/><path d="m42.757812 316.699219c-2.753906-2.308594-2.753906-6.542969 0-8.851563l21.234376-17.808594v-21.75c0-4.902343-5.730469-7.574218-9.488282-4.421874l-52.441406 43.980468c-2.75 2.308594-2.75 6.542969 0 8.851563l52.441406 43.984375c3.757813 3.152344 9.488282.476562 9.488282-4.425782v-21.75zm0 0" fill="#fc2b3a"/><path d="m488.699219 290.039062-31.203125-26.171874c-3.757813-3.152344-9.488282-.480469-9.488282 4.421874v87.96875c0 4.902344 5.730469 7.578126 9.488282 4.425782l31.203125-26.171875zm0 0" fill="#fc2b3a"/><path d="m188.175781 146.777344c-3.648437 13.410156-7.949219 29.203125-13.039062 47.886718-.316407 1.160157-1.171875 1.40625-1.835938 1.40625h26.269531c.664063 0 1.523438-.246093 1.835938-1.40625 54.285156-199.292968 19.308594-71.640624 51.125-188.605468l.042969-.15625c.3125-1.011719.820312-1.890625 1.515625-2.644532-9.105469-3.746093-25.199219-5.796874-27.785156 2.644532l-.042969.15625c-26.484375 97.382812-4.53125 17.347656-38.085938 140.71875zm0 0" fill="#b4dbff"/><path d="m169.738281 228.308594-64.203125-209.4375-.035156-.132813c-.09375-.378906-.238281-.976562-.324219-1.375l-.183593-.871093.113281-.878907c.625-4.945312 6.308593-9.46875 13.347656-12.359375-2-2.160156-5.597656-3.253906-10.757813-3.253906-12.101562 0-27.792968 7.203125-28.859374 15.613281l-.113282.878907.183594.871093c.085938.398438.230469.996094.324219 1.375l.035156.132813 64.203125 209.4375c3.019531 9.609375 17.582031 13.988281 29.832031 13.988281 4.289063 0 8.855469-.542969 13.117188-1.65625-7.894531-2.066406-14.71875-6.09375-16.679688-12.332031zm0 0" fill="#b4dbff"/><path d="m339.039062 0c-12.25 0-26.816406 4.394531-29.859374 14.070312l-64.136719 209.21875-.078125.28125c-.097656.390626-.238282.972657-.320313 1.367188l-.183593.867188.113281.878906c1.066406 8.410156 16.761719 15.613281 28.859375 15.613281 5.160156 0 8.757812-1.09375 10.757812-3.253906-7.035156-2.890625-12.722656-7.414063-13.347656-12.359375l-.113281-.878906.183593-.867188c.082032-.394531.226563-.976562.320313-1.367188l.078125-.28125 64.136719-209.21875c1.976562-6.289062 8.824219-10.34375 16.734375-12.414062-4.269532-1.113281-8.847656-1.65625-13.144532-1.65625zm0 0" fill="#4f66d1"/><path d="m367.144531 47.628906c-.316406-1.160156-1.171875-1.402344-1.835937-1.402344h-26.269532c.664063 0 1.519532.242188 1.835938 1.402344l12.925781 47.460938 16.152344 59.300781c.640625 2.339844-1.125 4.648437-3.550781 4.648437h26.269531c2.429687 0 4.191406-2.308593 3.554687-4.648437zm0 0" fill="#4f66d1"/><path d="m418.3125 236.390625-.042969-.15625-12.003906-44.121094c-.433594-1.605469-1.890625-2.71875-3.550781-2.71875h-26.269532c1.660157 0 3.117188 1.113281 3.550782 2.71875l12.003906 44.121094.042969.15625c1.199219 3.917969 5.324219 5.902344 12.261719 5.902344 4.988281 0 10.589843-1.226563 15.523437-3.257813-.695313-.753906-1.207031-1.632812-1.515625-2.644531zm0 0" fill="#4f66d1"/></svg>