<svg height="512pt" viewBox="-75 0 512 512" width="512pt" xmlns="http://www.w3.org/2000/svg"><path d="m17.664062 512h325.917969c9.757813 0 17.664063-7.90625 17.664063-17.664062 0-22.972657 0-357.441407 0-380.785157 0-6.742187-2.675782-13.207031-7.441406-17.976562l-88.132813-88.128907c-4.765625-4.765624-11.230469-7.445312-17.972656-7.445312-7.488281 0-218.792969 0-230.035157 0-9.753906 0-17.664062 7.90625-17.664062 17.664062v476.671876c0 9.757812 7.910156 17.664062 17.664062 17.664062zm0 0" fill="#d9edff"/><path d="m30.90625 494.335938v-476.671876c0-9.757812 7.90625-17.664062 17.664062-17.664062-16.855468 0-28.492187 0-30.90625 0-9.753906 0-17.664062 7.90625-17.664062 17.664062v476.671876c0 9.757812 7.90625 17.664062 17.664062 17.664062h30.90625c-9.757812 0-17.664062-7.90625-17.664062-17.664062zm0 0" fill="#b4dbff"/><path d="m247.699219 0c6.738281 0 13.207031 2.679688 17.972656 7.445312l88.128906 88.128907c4.769531 4.769531 7.445313 11.234375 7.445313 17.976562v.484375h-100.011719c-7.746094 0-14.019531-6.277344-14.019531-14.019531v-100.015625zm0 0" fill="#6c7fd9"/><path d="m278.117188 100.015625v-80.125l-12.445313-12.445313c-4.765625-4.765624-11.230469-7.445312-17.972656-7.445312-.109375 0-.273438 0-.488281 0v100.015625c0 7.742187 6.277343 14.019531 14.019531 14.019531h30.90625c-7.742188 0-14.019531-6.277344-14.019531-14.019531zm0 0" fill="#4f66d1"/><path d="m128 385.972656h-12.773438c-2.21875 0-4.015624-1.796875-4.015624-4.015625l-.003907-223.683593c0-3.015626-2.441406-5.460938-5.457031-5.460938h-14.84375c-3.011719 0-5.457031 2.445312-5.457031 5.460938v223.683593c0 2.21875-1.796875 4.015625-4.015625 4.015625h-12.777344c-3.308594 0-5.109375 3.863282-2.984375 6.398438l29.671875 35.378906c1.558594 1.855469 4.414062 1.855469 5.96875 0l29.671875-35.378906c2.128906-2.535156.324219-6.398438-2.984375-6.398438zm0 0" fill="#ffd500"/><path d="m201.316406 404.644531h48.996094c5.402344 0 8.464844 6.484375 8.464844 12.246094 0 5.765625-3.058594 12.25-8.464844 12.25h-76.734375c-5.765625 0-8.105469-3.0625-8.105469-7.382813 0-2.882812 1.078125-6.488281 3.0625-9.910156l50.796875-89.882812h-41.792969c-5.402343 0-8.464843-5.765625-8.464843-12.25 0-5.941406 2.523437-12.246094 8.464843-12.246094h69.53125c5.402344 0 8.105469 3.0625 8.105469 7.382812 0 2.882813-1.082031 6.304688-3.0625 9.910157zm0 0" fill="#6c7fd9"/><path d="m263.328125 273.097656-34.355469-112.0625c-1.78125-5.675781-9.792968-8.222656-16.941406-8.222656-7.144531 0-15.15625 2.546875-16.945312 8.238281l-34.164063 112.046875c-.140625.550782-.300781 1.207032-.300781 1.515625 0 5.316407 9.070312 9.875 16.492187 9.875 4.265625 0 6.808594-1.332031 7.558594-3.960937l6.621094-24.34375h41.664062l6.625 24.367187c.746094 2.605469 3.289063 3.9375 7.554688 3.9375 7.421875 0 16.492187-4.558593 16.492187-9.875 0-.3125-.164062-.96875-.300781-1.515625zm-67.183594-35.191406 13.464844-49.425781c.671875-2.46875 4.171875-2.46875 4.84375 0l13.464844 49.425781zm0 0" fill="#60b8ff"/><path d="m82.105469 392.371094c-2.125-2.535156-.324219-6.398438 2.984375-6.398438h12.777344c2.21875 0 4.015624-1.796875 4.015624-4.015625v-223.683593c0-2.742188 2.027344-4.992188 4.664063-5.378907-.265625-.039062-.523437-.078125-.796875-.078125h-14.84375c-3.011719 0-5.457031 2.441406-5.457031 5.457032l.003906 223.683593c0 2.21875-1.800781 4.015625-4.019531 4.015625h-12.777344c-3.308594 0-5.109375 3.867188-2.984375 6.398438l29.671875 35.378906c1.558594 1.855469 4.414062 1.855469 5.96875 0l5.234375-6.238281zm0 0" fill="#fbc700"/><path d="m177.539062 321.964844h16.433594c-5.402344 0-8.464844-5.765625-8.464844-12.25 0-5.941406 2.519532-12.246094 8.464844-12.246094h-16.433594c-5.941406 0-8.464843 6.304688-8.464843 12.246094 0 6.484375 3.0625 12.25 8.464843 12.25zm0 0" fill="#4f66d1"/><path d="m232.003906 328.617188c1.679688-2.972657-.46875-6.652344-3.882812-6.652344h-8.789063l-50.796875 89.882812c-1.984375 3.421875-3.0625 7.027344-3.0625 9.910156 0 4.320313 2.339844 7.382813 8.105469 7.382813h16.433594c-5.765625 0-8.109375-3.0625-8.109375-7.382813 0-2.882812 1.082031-6.488281 3.066406-9.910156zm0 0" fill="#4f66d1"/><g fill="#22a7ff"><path d="m230.890625 188.480469c-.335937-1.234375-1.382813-1.851563-2.425781-1.851563h-16.433594c1.042969 0 2.089844.617188 2.425781 1.851563 2.800781 10.277343 10.671875 39.183593 13.460938 49.425781h9.441406c3.523437 0 6.082031-3.347656 5.15625-6.746094zm0 0"/><path d="m256.015625 280.550781-5.554687-20.421875c-.632813-2.328125-2.742188-3.941406-5.152344-3.941406h-12.351563l6.628907 24.363281c.742187 2.605469 3.285156 3.9375 7.550781 3.9375 3.230469 0 6.769531-.863281 9.742187-2.277343-.394531-.480469-.683594-1.03125-.863281-1.660157zm0 0"/><path d="m211.519531 161.050781c1.101563-3.503906 4.566407-5.8125 8.730469-7.070312-2.597656-.785157-5.472656-1.167969-8.21875-1.167969-7.144531 0-15.15625 2.546875-16.945312 8.234375l-34.164063 112.046875c-.140625.554688-.300781 1.210938-.300781 1.519531 0 5.316407 9.070312 9.875 16.492187 9.875 3.230469 0 5.464844-.769531 6.691407-2.277343-3.855469-1.835938-6.75-4.59375-6.75-7.597657 0-.308593.160156-.964843.300781-1.519531zm0 0"/></g></svg>