<svg height="512pt" viewBox="0 0 512 512" width="512pt" xmlns="http://www.w3.org/2000/svg"><path d="m385.292969 0h-258.585938c-69.976562 0-126.707031 56.730469-126.707031 126.707031v258.585938c0 69.976562 56.730469 126.707031 126.707031 126.707031h258.585938c69.976562 0 126.707031-56.730469 126.707031-126.707031v-258.585938c0-69.976562-56.730469-126.707031-126.707031-126.707031zm0 0" fill="#60b8ff"/><path d="m30.90625 385.292969v-258.585938c0-69.976562 56.726562-126.707031 126.707031-126.707031h-30.90625c-69.976562 0-126.707031 56.730469-126.707031 126.707031v258.585938c0 69.976562 56.730469 126.707031 126.707031 126.707031h30.90625c-69.980469 0-126.707031-56.730469-126.707031-126.707031zm0 0" fill="#22a7ff"/><path d="m472.449219 377.382812c0 52.503907-42.5625 95.066407-95.066407 95.066407h-242.765624c-52.503907 0-95.066407-42.5625-95.066407-95.066407v-242.765624c0-52.503907 42.5625-95.066407 95.066407-95.066407h242.765624c52.503907 0 95.066407 42.5625 95.066407 95.066407zm0 0" fill="#22a7ff"/><path d="m70.453125 377.382812v-242.765624c0-52.503907 42.566406-95.066407 95.070313-95.066407h-30.90625c-52.503907 0-95.066407 42.5625-95.066407 95.066407v242.765624c0 52.503907 42.5625 95.066407 95.066407 95.066407h30.90625c-52.503907 0-95.070313-42.5625-95.070313-95.066407zm0 0" fill="#0094fd"/><path d="m383.546875 272.59375c-46.570313 0-208.539063 0-255.089844 0-5.695312 0-10.300781 4.617188-10.300781 10.308594v12.566406c0 5.695312 4.617188 10.3125 10.316406 10.3125h105.667969c2.90625 0 5.265625 2.359375 5.265625 5.269531v68.273438c0 2.859375-2.316406 5.175781-5.175781 5.175781h-16.460938c-4.265625 0-6.585937 4.980469-3.847656 8.246094l38.230469 45.582031c2.007812 2.390625 5.6875 2.390625 7.691406 0l38.230469-45.582031c2.742187-3.265625.417969-8.246094-3.84375-8.246094h-16.460938c-2.859375 0-5.175781-2.316406-5.175781-5.175781v-68.273438c0-2.910156 2.359375-5.269531 5.269531-5.269531h105.664063c5.699218 0 10.316406-4.617188 10.316406-10.3125v-12.566406c0-5.691406-4.605469-10.308594-10.296875-10.308594zm0 0" fill="#d9edff"/><path d="m383.527344 206.21875h-105.664063c-2.910156 0-5.269531-2.359375-5.269531-5.269531v-68.273438c0-2.859375 2.316406-5.175781 5.175781-5.175781h16.460938c4.261719 0 6.585937-4.976562 3.847656-8.246094l-38.230469-45.582031c-2.007812-2.390625-5.6875-2.390625-7.695312 0l-38.226563 45.582031c-2.742187 3.269532-.417969 8.246094 3.84375 8.246094h16.460938c2.859375 0 5.175781 2.316406 5.175781 5.175781v68.273438c0 2.910156-2.359375 5.269531-5.265625 5.269531h-105.675781c-5.691406 0-10.308594 4.613281-10.308594 10.308594v12.5625c0 5.699218 4.617188 10.316406 10.316406 10.316406h255.054688c5.699218 0 10.316406-4.617188 10.316406-10.316406v-12.558594c0-5.695312-4.617188-10.3125-10.316406-10.3125zm0 0" fill="#d9edff"/><g fill="#b4dbff"><path d="m236.585938 392.746094c-2.738282-3.269532-.417969-8.246094 3.847656-8.246094h16.460937c2.859375 0 5.175781-2.316406 5.175781-5.175781v-68.273438c0-2.910156-2.359374-5.269531-5.265624-5.269531h-22.664063c2.90625 0 5.265625 2.359375 5.265625 5.269531v68.273438c0 2.859375-2.316406 5.175781-5.175781 5.175781h-16.460938c-4.265625 0-6.585937 4.980469-3.847656 8.246094l38.230469 45.582031c2.007812 2.390625 5.6875 2.390625 7.691406 0l7.488281-8.925781zm0 0"/><path d="m140.820312 295.46875v-12.566406c0-5.691406 4.605469-10.308594 10.296876-10.308594-9.078126 0-16.789063 0-22.664063 0-5.691406 0-10.296875 4.617188-10.296875 10.308594v12.566406c0 5.695312 4.617188 10.3125 10.3125 10.3125h22.664062c-5.695312 0-10.3125-4.617188-10.3125-10.3125zm0 0"/><path d="m217.769531 127.5h16.460938c2.859375 0 5.175781 2.316406 5.175781 5.175781v68.273438c0 2.910156-2.359375 5.269531-5.265625 5.269531h22.664063c2.90625 0 5.265624-2.359375 5.265624-5.269531v-68.273438c0-2.859375-2.316406-5.175781-5.175781-5.175781h-16.460937c-4.265625 0-6.585938-4.980469-3.847656-8.246094l30.746093-36.65625-7.484375-8.925781c-2.007812-2.390625-5.6875-2.390625-7.695312 0l-38.226563 45.582031c-2.742187 3.265625-.417969 8.246094 3.84375 8.246094zm0 0"/><path d="m140.820312 229.089844v-12.5625c0-5.695313 4.617188-10.308594 10.308594-10.308594h-22.664062c-5.691406 0-10.308594 4.613281-10.308594 10.308594v12.5625c0 5.699218 4.617188 10.316406 10.316406 10.316406h22.664063c-5.699219 0-10.316407-4.617188-10.316407-10.316406zm0 0"/></g></svg>