<svg height="512pt" viewBox="-63 0 512 512" width="512pt" xmlns="http://www.w3.org/2000/svg"><path d="m346.199219 20.753906h-306.5c-7.714844 0-13.964844 6.25-13.964844 13.964844v442.5625c0 7.710938 6.25 13.964844 13.964844 13.964844h306.5c7.710937 0 13.964843-6.253906 13.964843-13.964844v-442.5625c0-7.710938-6.253906-13.964844-13.964843-13.964844zm0 0" fill="#d9edff"/><path d="m346.199219 20.753906h-39.21875v470.492188h39.21875c7.710937 0 13.964843-6.253906 13.964843-13.964844v-442.5625c0-7.710938-6.253906-13.964844-13.964843-13.964844zm0 0" fill="#b4dbff"/><path d="m39.699219 20.753906h39.214843v470.492188h-39.214843c-7.714844 0-13.964844-6.253906-13.964844-13.964844v-442.5625c0-7.710938 6.25-13.964844 13.964844-13.964844zm0 0" fill="#b4dbff"/><path d="m55.734375 477.28125v-442.5625c0-7.714844 6.25-13.964844 13.964844-13.964844h-30c-7.714844 0-13.964844 6.25-13.964844 13.964844v442.5625c0 7.710938 6.25 13.964844 13.964844 13.964844h30c-7.714844 0-13.964844-6.253906-13.964844-13.964844zm0 0" fill="#8bcaff"/><path d="m346.199219 20.753906h-306.5c-7.714844 0-13.964844 6.25-13.964844 13.964844v44.632812h334.429687v-44.632812c0-7.710938-6.253906-13.964844-13.964843-13.964844zm0 0" fill="#b4dbff"/><path d="m25.734375 34.71875v44.632812h53.179687v-58.597656h-39.214843c-7.714844 0-13.964844 6.253906-13.964844 13.964844zm0 0" fill="#8bcaff"/><path d="m55.734375 34.71875c0-7.714844 6.25-13.964844 13.964844-13.964844h-30c-7.230469 0-13.179688 5.492188-13.894531 12.535156-.046876.46875-.070313.945313-.070313 1.429688v44.632812h30zm0 0" fill="#60b8ff"/><path d="m346.199219 20.753906h-39.21875v58.597656h53.183593v-44.632812c0-7.710938-6.253906-13.964844-13.964843-13.964844zm0 0" fill="#8bcaff"/><path d="m346.199219 491.246094h-306.5c-7.714844 0-13.964844-6.25-13.964844-13.964844v-44.632812h334.429687v44.632812c0 7.710938-6.253906 13.964844-13.964843 13.964844zm0 0" fill="#b4dbff"/><path d="m78.914062 432.648438h-53.179687v44.632812c0 6.75 4.785156 12.378906 11.148437 13.679688.910157.1875 1.851563.285156 2.8125.285156h39.21875zm0 0" fill="#8bcaff"/><path d="m55.734375 477.28125v-44.632812h-30v44.632812c0 7.722656 6.289063 13.964844 13.964844 13.964844h30c-7.714844 0-13.964844-6.253906-13.964844-13.964844zm0 0" fill="#60b8ff"/><path d="m306.980469 491.246094h39.21875c7.710937 0 13.964843-6.25 13.964843-13.964844v-44.632812h-53.183593zm0 0" fill="#8bcaff"/><g fill="#60b8ff"><path d="m306.980469 40.933594c-4.140625 0-7.5-3.355469-7.5-7.5v-25.933594c0-4.144531 3.359375-7.5 7.5-7.5s7.5 3.355469 7.5 7.5v25.933594c0 4.144531-3.359375 7.5-7.5 7.5zm0 0"/><path d="m306.980469 99.816406c-4.140625 0-7.5-3.355468-7.5-7.5v-25.933594c0-4.144531 3.359375-7.5 7.5-7.5s7.5 3.355469 7.5 7.5v25.9375c0 4.140626-3.359375 7.496094-7.5 7.496094zm0 0"/><path d="m306.980469 158.703125c-4.140625 0-7.5-3.359375-7.5-7.5v-25.9375c0-4.144531 3.359375-7.5 7.5-7.5s7.5 3.355469 7.5 7.5v25.9375c0 4.140625-3.359375 7.5-7.5 7.5zm0 0"/><path d="m306.980469 217.585938c-4.140625 0-7.5-3.359376-7.5-7.5v-25.9375c0-4.140626 3.359375-7.5 7.5-7.5s7.5 3.359374 7.5 7.5v25.9375c0 4.140624-3.359375 7.5-7.5 7.5zm0 0"/><path d="m306.980469 276.46875c-4.140625 0-7.5-3.359375-7.5-7.5v-25.9375c0-4.140625 3.359375-7.5 7.5-7.5s7.5 3.359375 7.5 7.5v25.9375c0 4.140625-3.359375 7.5-7.5 7.5zm0 0"/><path d="m306.980469 335.351562c-4.140625 0-7.5-3.359374-7.5-7.5v-25.9375c0-4.140624 3.359375-7.5 7.5-7.5s7.5 3.359376 7.5 7.5v25.9375c0 4.140626-3.359375 7.5-7.5 7.5zm0 0"/><path d="m306.980469 394.234375c-4.140625 0-7.5-3.359375-7.5-7.5v-25.9375c0-4.140625 3.359375-7.5 7.5-7.5s7.5 3.359375 7.5 7.5v25.9375c0 4.140625-3.359375 7.5-7.5 7.5zm0 0"/><path d="m306.980469 453.117188c-4.140625 0-7.5-3.355469-7.5-7.5v-25.9375c0-4.140626 3.359375-7.5 7.5-7.5s7.5 3.359374 7.5 7.5v25.9375c0 4.144531-3.359375 7.5-7.5 7.5zm0 0"/><path d="m306.980469 512c-4.140625 0-7.5-3.355469-7.5-7.5v-25.933594c0-4.144531 3.359375-7.5 7.5-7.5s7.5 3.355469 7.5 7.5v25.933594c0 4.144531-3.359375 7.5-7.5 7.5zm0 0"/><path d="m78.914062 40.933594c-4.140624 0-7.5-3.355469-7.5-7.5v-25.933594c0-4.144531 3.359376-7.5 7.5-7.5 4.144532 0 7.5 3.355469 7.5 7.5v25.933594c0 4.144531-3.355468 7.5-7.5 7.5zm0 0"/><path d="m78.914062 99.816406c-4.140624 0-7.5-3.355468-7.5-7.5v-25.933594c0-4.144531 3.359376-7.5 7.5-7.5 4.144532 0 7.5 3.355469 7.5 7.5v25.9375c0 4.140626-3.355468 7.496094-7.5 7.496094zm0 0"/><path d="m78.914062 158.703125c-4.140624 0-7.5-3.359375-7.5-7.5v-25.9375c0-4.144531 3.359376-7.5 7.5-7.5 4.144532 0 7.5 3.355469 7.5 7.5v25.9375c0 4.140625-3.355468 7.5-7.5 7.5zm0 0"/><path d="m78.914062 217.585938c-4.140624 0-7.5-3.359376-7.5-7.5v-25.9375c0-4.140626 3.359376-7.5 7.5-7.5 4.144532 0 7.5 3.359374 7.5 7.5v25.9375c0 4.140624-3.355468 7.5-7.5 7.5zm0 0"/><path d="m78.914062 276.46875c-4.140624 0-7.5-3.359375-7.5-7.5v-25.9375c0-4.140625 3.359376-7.5 7.5-7.5 4.144532 0 7.5 3.359375 7.5 7.5v25.9375c0 4.140625-3.355468 7.5-7.5 7.5zm0 0"/><path d="m78.914062 335.351562c-4.140624 0-7.5-3.359374-7.5-7.5v-25.9375c0-4.140624 3.359376-7.5 7.5-7.5 4.144532 0 7.5 3.359376 7.5 7.5v25.9375c0 4.140626-3.355468 7.5-7.5 7.5zm0 0"/><path d="m78.914062 394.234375c-4.140624 0-7.5-3.359375-7.5-7.5v-25.9375c0-4.140625 3.359376-7.5 7.5-7.5 4.144532 0 7.5 3.359375 7.5 7.5v25.9375c0 4.140625-3.355468 7.5-7.5 7.5zm0 0"/><path d="m78.914062 453.117188c-4.140624 0-7.5-3.355469-7.5-7.5v-25.9375c0-4.140626 3.359376-7.5 7.5-7.5 4.144532 0 7.5 3.359374 7.5 7.5v25.9375c0 4.144531-3.355468 7.5-7.5 7.5zm0 0"/><path d="m78.914062 512c-4.140624 0-7.5-3.355469-7.5-7.5v-25.933594c0-4.144531 3.359376-7.5 7.5-7.5 4.144532 0 7.5 3.355469 7.5 7.5v25.933594c0 4.144531-3.355468 7.5-7.5 7.5zm0 0"/></g><path d="m38.917969 86.851562h-31.417969c-4.140625 0-7.5-3.359374-7.5-7.5 0-4.144531 3.359375-7.5 7.5-7.5h31.417969c4.144531 0 7.5 3.355469 7.5 7.5 0 4.140626-3.355469 7.5-7.5 7.5zm0 0" fill="#22a7ff"/><path d="m148.042969 86.851562h-24.355469c-4.144531 0-7.5-3.359374-7.5-7.5 0-4.144531 3.355469-7.5 7.5-7.5h24.355469c4.140625 0 7.5 3.355469 7.5 7.5 0 4.140626-3.359375 7.5-7.5 7.5zm0 0" fill="#60b8ff"/><path d="m205.628906 86.851562h-25.363281c-4.140625 0-7.5-3.359374-7.5-7.5 0-4.144531 3.359375-7.5 7.5-7.5h25.363281c4.144532 0 7.5 3.355469 7.5 7.5 0 4.140626-3.355468 7.5-7.5 7.5zm0 0" fill="#60b8ff"/><path d="m263.21875 86.851562h-25.363281c-4.144531 0-7.5-3.359374-7.5-7.5 0-4.144531 3.355469-7.5 7.5-7.5h25.363281c4.140625 0 7.5 3.355469 7.5 7.5 0 4.140626-3.359375 7.5-7.5 7.5zm0 0" fill="#60b8ff"/><path d="m378.398438 86.851562h-28.394532c-4.140625 0-7.5-3.359374-7.5-7.5 0-4.144531 3.359375-7.5 7.5-7.5h28.394532c4.140624 0 7.5 3.355469 7.5 7.5 0 4.140626-3.359376 7.5-7.5 7.5zm0 0" fill="#60b8ff"/><path d="m38.917969 440.148438h-31.417969c-4.140625 0-7.5-3.355469-7.5-7.5 0-4.140626 3.359375-7.5 7.5-7.5h31.417969c4.144531 0 7.5 3.359374 7.5 7.5 0 4.144531-3.355469 7.5-7.5 7.5zm0 0" fill="#22a7ff"/><path d="m148.042969 440.148438h-24.355469c-4.144531 0-7.5-3.355469-7.5-7.5 0-4.140626 3.355469-7.5 7.5-7.5h24.355469c4.140625 0 7.5 3.359374 7.5 7.5 0 4.144531-3.359375 7.5-7.5 7.5zm0 0" fill="#60b8ff"/><path d="m205.628906 440.148438h-25.363281c-4.140625 0-7.5-3.355469-7.5-7.5 0-4.140626 3.359375-7.5 7.5-7.5h25.363281c4.144532 0 7.5 3.359374 7.5 7.5 0 4.144531-3.355468 7.5-7.5 7.5zm0 0" fill="#60b8ff"/><path d="m263.21875 440.148438h-25.363281c-4.144531 0-7.5-3.355469-7.5-7.5 0-4.140626 3.355469-7.5 7.5-7.5h25.363281c4.140625 0 7.5 3.359374 7.5 7.5 0 4.144531-3.359375 7.5-7.5 7.5zm0 0" fill="#60b8ff"/><path d="m378.398438 440.148438h-28.394532c-4.140625 0-7.5-3.355469-7.5-7.5 0-4.140626 3.359375-7.5 7.5-7.5h28.394532c4.140624 0 7.5 3.359374 7.5 7.5 0 4.144531-3.359376 7.5-7.5 7.5zm0 0" fill="#60b8ff"/></svg>