<svg height="512pt" viewBox="-59 0 512 512.00005" width="512pt" xmlns="http://www.w3.org/2000/svg"><path d="m124.125 512h255.726562c7.65625 0 13.863282-6.207031 13.863282-13.859375 0-18.027344 0-280.464844 0-298.78125 0-5.289063-2.101563-10.363281-5.84375-14.101563l-69.152344-69.152343c-3.738281-3.738281-8.8125-5.839844-14.101562-5.839844-5.875 0-171.671876 0-180.492188 0-7.65625 0-13.859375 6.203125-13.859375 13.859375v374.015625c0 7.652344 6.203125 13.859375 13.859375 13.859375zm0 0" fill="#d9edff"/><path d="m141.167969 498.140625v-374.015625c0-7.65625 6.207031-13.863281 13.863281-13.863281-16.773438 0-28.710938 0-30.90625 0-7.652344 0-13.859375 6.207031-13.859375 13.863281v374.015625c0 7.652344 6.203125 13.859375 13.859375 13.859375h30.90625c-7.65625 0-13.863281-6.207031-13.863281-13.859375zm0 0" fill="#b4dbff"/><path d="m304.617188 110.265625c5.289062 0 10.363281 2.101563 14.101562 5.839844l69.152344 69.152343c3.742187 3.738282 5.839844 8.8125 5.839844 14.101563v.382813h-78.472657c-6.078125 0-11.003906-4.925782-11.003906-11.003907v-78.472656zm0 0" fill="#6c7fd9"/><path d="m335.144531 188.738281v-56.210937l-16.421875-16.421875c-3.742187-3.738281-8.816406-5.839844-14.105468-5.839844-.085938 0-.214844 0-.378907 0v78.472656c0 6.078125 4.921875 11.003907 11 11.003907h30.902344c-6.074219 0-10.996094-4.925782-10.996094-11.003907zm0 0" fill="#4f66d1"/><path d="m392.660156 34.339844-35.898437-33.449219c-2.113281-1.964844-5.554688-.46875-5.554688 2.417969v15.039062c0 2.632813-2.132812 4.765625-4.761719 4.765625h-188.910156c-2.632812 0-4.765625-2.132812-4.765625-4.765625v-15.039062c0-2.886719-3.441406-4.382813-5.550781-2.417969l-35.902344 33.449219c-1.402344 1.304687-1.402344 3.523437 0 4.832031l35.902344 33.445313c2.109375 1.964843 5.550781.46875 5.550781-2.417969v-15.039063c0-2.632812 2.132813-4.765625 4.765625-4.765625h188.910156c2.628907 0 4.761719 2.132813 4.761719 4.765625v15.039063c0 2.886719 3.445313 4.382812 5.554688 2.417969l35.902343-33.445313c1.398438-1.308594 1.398438-3.527344-.003906-4.832031zm0 0" fill="#22a7ff"/><path d="m385.847656 27.988281-29.085937 27.097657c-2.113281 1.96875-5.554688.472656-5.554688-2.414063v-15.042969c0-2.628906-2.132812-4.761718-4.765625-4.761718h-188.910156c-2.628906 0-4.761719 2.132812-4.761719 4.761718v15.042969c0 2.886719-3.441406 4.382813-5.554687 2.414063l-29.085938-27.097657-6.8125 6.347657c-1.402344 1.308593-1.402344 3.527343 0 4.832031l35.902344 33.449219c2.109375 1.964843 5.550781.46875 5.550781-2.417969v-15.039063c0-2.632812 2.132813-4.765625 4.765625-4.765625h188.910156c2.628907 0 4.765626 2.132813 4.765626 4.765625v15.039063c0 2.886719 3.441406 4.382812 5.550781 2.417969l35.902343-33.445313c1.402344-1.308594 1.402344-3.527344 0-4.832031zm0 0" fill="#0094fd"/><path d="m55.160156 152.769531h15.039063c2.886719 0 4.382812-3.441406 2.417969-5.554687l-33.445313-35.898438c-1.308594-1.402344-3.527344-1.402344-4.832031 0l-33.445313 35.898438c-1.96875 2.113281-.472656 5.554687 2.414063 5.554687h15.042968c2.628907 0 4.761719 2.132813 4.761719 4.765625v307.195313c0 2.628906-2.132812 4.765625-4.761719 4.765625h-15.042968c-2.886719 0-4.382813 3.441406-2.417969 5.550781l33.449219 35.902344c1.304687 1.402343 3.523437 1.402343 4.832031 0l33.445313-35.902344c1.964843-2.109375.46875-5.550781-2.417969-5.550781h-15.039063c-2.632812 0-4.765625-2.132813-4.765625-4.765625v-307.195313c0-2.632812 2.132813-4.765625 4.765625-4.765625zm0 0" fill="#22a7ff"/><path d="m18.289062 475.046875c-1.964843-2.109375-.46875-5.550781 2.417969-5.550781h15.039063c2.632812 0 4.765625-2.132813 4.765625-4.765625v-307.195313c0-2.632812-2.132813-4.765625-4.765625-4.765625h-15.039063c-2.886719 0-4.382812-3.441406-2.417969-5.554687l27.164063-29.15625-6.28125-6.742188c-1.308594-1.402344-3.527344-1.402344-4.832031 0l-33.445313 35.898438c-1.96875 2.113281-.472656 5.554687 2.414063 5.554687h15.042968c2.628907 0 4.761719 2.132813 4.761719 4.765625v307.195313c0 2.632812-2.132812 4.765625-4.761719 4.765625h-15.042968c-2.886719 0-4.382813 3.441406-2.414063 5.550781l33.445313 35.902344c1.304687 1.402343 3.527344 1.402343 4.832031 0l6.28125-6.746094zm0 0" fill="#0094fd"/></svg>