<svg height="512pt" viewBox="0 -95 512.001 512" width="512pt" xmlns="http://www.w3.org/2000/svg"><path d="m80.382812 40.191406c0 22.195313-17.996093 40.191406-40.191406 40.191406-22.199218 0-40.191406-17.996093-40.191406-40.191406 0-22.195312 17.992188-40.191406 40.191406-40.191406 22.195313 0 40.191406 17.996094 40.191406 40.191406zm0 0" fill="#ffe55a"/><path d="m80.382812 161.125c0 22.199219-17.996093 40.191406-40.191406 40.191406-22.199218 0-40.191406-17.992187-40.191406-40.191406 0-22.195312 17.992188-40.191406 40.191406-40.191406 22.195313 0 40.191406 17.996094 40.191406 40.191406zm0 0" fill="#ff646f"/><g fill="#d9edff"><path d="m502.710938 20.09375h-359.957032c-5.132812 0-9.289062 4.160156-9.289062 9.292969v21.609375c0 5.132812 4.15625 9.292968 9.289062 9.292968h359.957032c5.132812 0 9.289062-4.160156 9.289062-9.292968v-21.609375c0-5.132813-4.160156-9.292969-9.289062-9.292969zm0 0"/><path d="m502.710938 141.03125h-359.957032c-5.132812 0-9.289062 4.15625-9.289062 9.289062v21.609376c0 5.132812 4.15625 9.292968 9.289062 9.292968h359.957032c5.132812 0 9.289062-4.160156 9.289062-9.292968v-21.609376c0-5.132812-4.160156-9.289062-9.289062-9.289062zm0 0"/><path d="m502.710938 261.964844h-359.957032c-5.132812 0-9.289062 4.160156-9.289062 9.289062v21.613282c0 5.128906 4.15625 9.289062 9.289062 9.289062h359.957032c5.132812 0 9.289062-4.160156 9.289062-9.289062v-21.613282c0-5.128906-4.160156-9.289062-9.289062-9.289062zm0 0"/></g><path d="m502.710938 32.988281h-359.957032c-4.136718 0-7.640625-2.707031-8.84375-6.445312-.285156.894531-.445312 1.847656-.445312 2.84375v21.609375c0 5.132812 4.160156 9.292968 9.289062 9.292968h359.957032c5.132812 0 9.289062-4.160156 9.289062-9.292968v-21.609375c0-.992188-.15625-1.949219-.445312-2.84375-1.203126 3.738281-4.707032 6.445312-8.84375 6.445312zm0 0" fill="#b4dbff"/><path d="m502.710938 153.921875h-359.957032c-4.136718 0-7.640625-2.707031-8.84375-6.445313-.285156.894532-.445312 1.851563-.445312 2.84375v21.609376c0 5.132812 4.160156 9.289062 9.289062 9.289062h359.957032c5.132812 0 9.289062-4.15625 9.289062-9.289062v-21.609376c0-.992187-.15625-1.949218-.445312-2.84375-1.203126 3.738282-4.707032 6.445313-8.84375 6.445313zm0 0" fill="#b4dbff"/><path d="m502.710938 274.855469h-359.957032c-4.136718 0-7.640625-2.707031-8.84375-6.445313-.285156.898438-.445312 1.851563-.445312 2.84375v21.613282c0 5.128906 4.160156 9.289062 9.289062 9.289062h359.957032c5.132812 0 9.289062-4.160156 9.289062-9.289062v-21.613282c0-.992187-.15625-1.945312-.445312-2.84375-1.203126 3.738282-4.707032 6.445313-8.84375 6.445313zm0 0" fill="#b4dbff"/><path d="m80.382812 282.058594c0 22.199218-17.996093 40.191406-40.191406 40.191406-22.199218 0-40.191406-17.992188-40.191406-40.191406 0-22.195313 17.992188-40.191406 40.191406-40.191406 22.195313 0 40.191406 17.996093 40.191406 40.191406zm0 0" fill="#22a7ff"/><path d="m31.9375 40.191406c0-16.523437 9.96875-30.707031 24.222656-36.886718-4.894531-2.121094-10.292968-3.304688-15.96875-3.304688-22.199218 0-40.191406 17.996094-40.191406 40.191406 0 22.195313 17.992188 40.191406 40.191406 40.191406 5.675782 0 11.070313-1.183593 15.96875-3.304687-14.253906-6.179687-24.222656-20.367187-24.222656-36.886719zm0 0" fill="#ffd500"/><path d="m31.9375 161.125c0-16.519531 9.96875-30.707031 24.222656-36.886719-4.894531-2.121093-10.292968-3.304687-15.96875-3.304687-22.199218 0-40.191406 17.996094-40.191406 40.191406 0 22.199219 17.992188 40.191406 40.191406 40.191406 5.675782 0 11.070313-1.183594 15.96875-3.304687-14.253906-6.179688-24.222656-20.363281-24.222656-36.886719zm0 0" fill="#fc2b3a"/><path d="m31.9375 282.058594c0-16.519532 9.96875-30.707032 24.222656-36.886719-4.894531-2.121094-10.292968-3.304687-15.96875-3.304687-22.199218 0-40.191406 17.996093-40.191406 40.191406 0 22.199218 17.992188 40.191406 40.191406 40.191406 5.675782 0 11.070313-1.183594 15.96875-3.304688-14.253906-6.175781-24.222656-20.363281-24.222656-36.886718zm0 0" fill="#0094fd"/></svg>