<svg height="512pt" viewBox="-7 0 511 512" width="512pt" xmlns="http://www.w3.org/2000/svg"><path d="m481.539062 0h-84.605468v238.054688c0 7.839843-6.351563 14.191406-14.191406 14.191406h-267.433594c-7.839844 0-14.195313-6.351563-14.195313-14.191406v-238.054688h-84.601562c-8.84375 0-16.011719 7.167969-16.011719 16.011719v393.066406c0 6.109375 2.425781 11.96875 6.746094 16.289063l79.886718 79.886718c4.316407 4.320313 10.179688 6.746094 16.289063 6.746094h378.117187c8.84375 0 16.011719-7.167969 16.011719-16.011719v-479.976562c0-8.84375-7.167969-16.011719-16.011719-16.011719zm0 0" fill="#6c7fd9"/><path d="m427.496094 238.054688v-238.054688h-30.5625v238.054688c0 7.839843-6.351563 14.191406-14.191406 14.191406h30.5625c7.839843 0 14.191406-6.351563 14.191406-14.191406zm0 0" fill="#4f66d1"/><path d="m37.808594 425.367188c-4.320313-4.320313-6.746094-10.179688-6.746094-16.289063 0-21.160156 0-372.246094 0-393.066406 0-8.84375 7.167969-16.011719 16.011719-16.011719h-30.5625c-8.84375 0-16.011719 7.167969-16.011719 16.011719v393.066406c0 6.109375 2.425781 11.96875 6.746094 16.289063l79.886718 79.886718c4.316407 4.320313 10.179688 6.746094 16.289063 6.746094h30.5625c-6.109375 0-11.96875-2.425781-16.292969-6.746094zm0 0" fill="#4f66d1"/><path d="m336.695312 353.378906h-175.339843c-7.878907 0-14.265625 6.386719-14.265625 14.265625v144.355469h203.871094v-144.355469c0-7.878906-6.386719-14.265625-14.265626-14.265625zm0 0" fill="#4f66d1"/><path d="m191.917969 353.378906h-30.5625c-7.878907 0-14.265625 6.386719-14.265625 14.265625v144.355469h30.5625v-144.355469c0-7.878906 6.386718-14.265625 14.265625-14.265625zm0 0" fill="#314dca"/><path d="m100.34375 0v202.980469c0-7.875 6.386719-14.261719 14.265625-14.261719h268.832031c7.878906 0 14.265625 6.386719 14.265625 14.261719l-.003906-202.980469zm0 0" fill="#d9edff"/><path d="m131.410156 0h-31.066406v202.980469c0-7.875 6.386719-14.261719 14.265625-14.261719h16.800781zm0 0" fill="#b4dbff"/><path d="m383.441406 186.65625h-268.832031c-7.878906 0-14.265625 6.386719-14.265625 14.265625v38.375c0 7.878906 6.386719 14.265625 14.265625 14.265625h268.832031c7.875 0 14.261719-6.386719 14.261719-14.265625v-38.375c0-7.878906-6.386719-14.265625-14.261719-14.265625zm0 0" fill="#ff8088"/><path d="m131.410156 186.65625h-16.800781c-7.875 0-14.265625 6.386719-14.265625 14.265625v38.375c0 7.878906 6.386719 14.265625 14.265625 14.265625h16.800781zm0 0" fill="#ff646f"/><path d="m463.617188 48.585938c0 9.09375-7.371094 16.46875-16.46875 16.46875-9.09375 0-16.464844-7.375-16.464844-16.46875s7.371094-16.46875 16.464844-16.46875c9.097656 0 16.46875 7.375 16.46875 16.46875zm0 0" fill="#d9edff"/><path d="m454.035156 48.585938c0-4.53125 1.828125-8.632813 4.789063-11.609376-2.980469-3-7.109375-4.859374-11.675781-4.859374-9.09375 0-16.464844 7.375-16.464844 16.46875s7.371094 16.464843 16.464844 16.464843c4.566406 0 8.695312-1.855469 11.675781-4.855469-2.960938-2.976562-4.789063-7.078124-4.789063-11.609374zm0 0" fill="#b4dbff"/><g fill="#8bcaff"><path d="m345.046875 52.140625h-192.042969c-4.269531 0-7.726562-3.460937-7.726562-7.726563 0-4.265624 3.457031-7.726562 7.726562-7.726562h192.042969c4.265625 0 7.726563 3.460938 7.726563 7.726562 0 4.265626-3.460938 7.726563-7.726563 7.726563zm0 0"/><path d="m345.046875 86.472656h-192.042969c-4.269531 0-7.726562-3.457031-7.726562-7.726562 0-4.265625 3.457031-7.722656 7.726562-7.722656h192.042969c4.265625 0 7.726563 3.457031 7.726563 7.722656 0 4.269531-3.460938 7.726562-7.726563 7.726562zm0 0"/><path d="m345.046875 120.808594h-192.042969c-4.269531 0-7.726562-3.457032-7.726562-7.726563 0-4.265625 3.457031-7.726562 7.726562-7.726562h192.042969c4.265625 0 7.726563 3.460937 7.726563 7.726562 0 4.269531-3.460938 7.726563-7.726563 7.726563zm0 0"/><path d="m345.046875 155.144531h-192.042969c-4.269531 0-7.726562-3.460937-7.726562-7.726562 0-4.269531 3.457031-7.726563 7.726562-7.726563h192.042969c4.265625 0 7.726563 3.457032 7.726563 7.726563 0 4.265625-3.460938 7.726562-7.726563 7.726562zm0 0"/></g><path d="m67.367188 48.585938c0 9.09375-7.371094 16.46875-16.46875 16.46875-9.09375 0-16.464844-7.375-16.464844-16.46875s7.371094-16.46875 16.464844-16.46875c9.097656 0 16.46875 7.375 16.46875 16.46875zm0 0" fill="#d9edff"/><path d="m57.785156 48.585938c0-4.53125 1.828125-8.632813 4.789063-11.609376-2.980469-3-7.109375-4.859374-11.675781-4.859374-9.09375 0-16.464844 7.375-16.464844 16.46875s7.371094 16.464843 16.464844 16.464843c4.566406 0 8.695312-1.855469 11.675781-4.855469-2.960938-2.976562-4.789063-7.078124-4.789063-11.609374zm0 0" fill="#b4dbff"/><path d="m463.617188 463.414062c0 9.09375-7.371094 16.46875-16.46875 16.46875-9.09375 0-16.464844-7.375-16.464844-16.46875s7.371094-16.46875 16.464844-16.46875c9.097656 0 16.46875 7.375 16.46875 16.46875zm0 0" fill="#d9edff"/><path d="m454.035156 463.414062c0-4.53125 1.828125-8.632812 4.789063-11.609374-2.980469-3-7.109375-4.859376-11.675781-4.859376-9.09375 0-16.464844 7.375-16.464844 16.46875s7.371094 16.464844 16.464844 16.464844c4.566406 0 8.695312-1.855468 11.675781-4.855468-2.960938-2.976563-4.789063-7.078126-4.789063-11.609376zm0 0" fill="#b4dbff"/></svg>