<svg height="512pt" viewBox="0 0 512 512" width="512pt" xmlns="http://www.w3.org/2000/svg"><path d="m512 444.320312v13.121094l-54.558594 54.558594h-13.121094l-128.160156-128 67.839844-67.839844zm0 0" fill="#b0b4b9"/><path d="m444.320312 480.320312-51.25-51.121093c6.785157-5.070313 13.28125-10.589844 19.410157-16.703125 11.679687-11.679688 21.441406-24.800782 29.121093-38.558594l-57.601562-57.777344-67.839844 67.839844 128.160156 128zm0 0" fill="#9da2a5"/><path d="m512 444.320312v67.679688h-67.679688l-54.242187-54.078125 67.84375-67.84375zm0 0" fill="#57565c"/><path d="m405.265625 442.734375-15.1875 15.1875 54.242187 54.078125h30.398438zm0 0" fill="#2d2d30"/><path d="m288 416.0625c-34.207031 0-66.367188-13.308594-90.558594-37.503906-49.921875-49.917969-49.921875-131.167969 0-181.101563 24.191406-24.191406 56.351563-37.503906 90.558594-37.503906s66.367188 13.3125 90.558594 37.503906c49.921875 49.917969 49.921875 131.167969 0 181.101563-24.191406 24.175781-56.351563 37.503906-90.558594 37.503906zm0 0" fill="#e4edfb"/><path d="m197.441406 261.457031c24.191406-24.191406 56.351563-37.503906 90.558594-37.503906s66.367188 13.3125 90.558594 37.503906c16.769531 16.765625 27.761718 37.085938 33.265625 58.542969 10.894531-42.449219-.113281-89.390625-33.265625-122.542969-24.191406-24.191406-56.351563-37.503906-90.558594-37.503906s-66.367188 13.3125-90.558594 37.503906c-33.167968 33.167969-44.160156 80.109375-33.265625 122.542969 5.503907-21.457031 16.496094-41.777344 33.265625-58.542969zm0 0" fill="#d7e1f2"/><path d="m344.558594 344.574219-22.621094-22.636719c9.054688-9.058594 14.0625-21.105469 14.0625-33.9375 0-12.816406-5.007812-24.878906-14.0625-33.953125-18.128906-18.125-49.746094-18.125-67.875 0l-22.621094-22.621094c15.101563-15.105469 35.183594-23.425781 56.558594-23.425781 21.359375 0 41.441406 8.320312 56.558594 23.425781 15.105468 15.117188 23.441406 35.214844 23.441406 56.574219 0 21.375-8.335938 41.472656-23.441406 56.574219zm0 0" fill="#fff"/><g fill="#57565c"><path d="m0 0h32v352h-32zm0 0"/><path d="m144 0h32v144h-32zm0 0"/><path d="m272 0h32v112h-32zm0 0"/><path d="m336 0h32v112h-32zm0 0"/><path d="m208 0h32v112h-32zm0 0"/><path d="m400 0h32v144h-32zm0 0"/><path d="m480 0h32v352h-32zm0 0"/><path d="m80 0h32v288h-32zm0 0"/><path d="m80 320h32v32h-32zm0 0"/><path d="m288 431.9375c-36.878906 0-73.742188-14.035156-101.824219-42.113281-56.144531-56.144531-56.144531-147.503907 0-203.648438 56.160157-56.144531 147.503907-56.144531 203.664063 0 56.144531 56.144531 56.144531 147.503907 0 203.648438-28.097656 28.0625-64.960938 42.113281-101.839844 42.113281zm0-255.890625c-28.6875 0-57.359375 10.914063-79.199219 32.753906-43.664062 43.664063-43.664062 114.71875 0 158.382813 43.664063 43.664062 114.71875 43.664062 158.398438 0 43.664062-43.664063 43.664062-114.71875 0-158.382813-21.824219-21.824219-50.511719-32.753906-79.199219-32.753906zm0 0"/></g></svg>