<svg height="512pt" viewBox="0 -7 512 512" width="512pt" xmlns="http://www.w3.org/2000/svg"><path d="m482.398438 242.175781-36.476563 256h-379.84375l-36.476563-256zm0 0" fill="#e76e54"/><g fill="#dd523c"><path d="m256 434.175781c-8.832031 0-16-7.167969-16-16v-96c0-8.832031 7.167969-16 16-16s16 7.167969 16 16v96c0 8.832031-7.167969 16-16 16zm0 0"/><path d="m192 434.175781c-8.832031 0-16-7.167969-16-16v-96c0-8.832031 7.167969-16 16-16s16 7.167969 16 16v96c0 8.832031-7.167969 16-16 16zm0 0"/><path d="m128 434.175781c-8.832031 0-16-7.167969-16-16v-96c0-8.832031 7.167969-16 16-16s16 7.167969 16 16v96c0 8.832031-7.167969 16-16 16zm0 0"/><path d="m384 434.175781c-8.832031 0-16-7.167969-16-16v-96c0-8.832031 7.167969-16 16-16s16 7.167969 16 16v96c0 8.832031-7.167969 16-16 16zm0 0"/><path d="m320 434.175781c-8.832031 0-16-7.167969-16-16v-96c0-8.832031 7.167969-16 16-16s16 7.167969 16 16v96c0 8.832031-7.167969 16-16 16zm0 0"/></g><path d="m157.761719 186.175781-27.523438 16-103.964843-178.242187c-4.433594-7.597656-1.859376-17.34375 5.742187-21.773438 7.601563-4.417968 17.328125-1.839844 21.746094 5.742188zm0 0" fill="#77959e"/><path d="m479.984375 2.160156c7.601563 4.414063 10.175781 14.175782 5.742187 21.773438l-103.964843 178.242187-27.523438-16 104-178.273437c4.417969-7.582032 14.144531-10.160156 21.746094-5.742188zm0 0" fill="#77959e"/><path d="m130.238281 202.175781-32.636719-56h36.796876l23.363281 40zm0 0" fill="#62808c"/><path d="m381.761719 202.175781-27.523438-16 23.363281-40h36.796876zm0 0" fill="#62808c"/><path d="m480 274.175781h-448c-17.679688 0-32-14.320312-32-32v-64h512v64c0 17.664063-14.320312 32-32 32zm0 0" fill="#addb31"/><path d="m480 274.175781h-448c-17.679688 0-32-14.320312-32-32h512c0 17.664063-14.320312 32-32 32zm0 0" fill="#6fbb2e"/><path d="m61.550781 466.175781 4.578125 32h379.742188l4.578125-32zm0 0" fill="#dd523c"/><path d="m96 210.175781h32v32h-32zm0 0" fill="#fff"/><path d="m160 210.175781h32v32h-32zm0 0" fill="#fff"/><path d="m32 210.175781h32v32h-32zm0 0" fill="#fff"/></svg>