<svg height="512pt" viewBox="0 0 512 512" width="512pt" xmlns="http://www.w3.org/2000/svg"><path d="m0 480v32h32v-32zm398.398438-67.199219c-1.597657-1.601562-3.199219-4.800781-4.796876-8l-28.800781-32-24 20.800781 28.800781 32c3.199219 3.199219 4.796876 6.398438 6.398438 9.597657s1.601562 6.402343 1.601562 9.601562c0 16-12.800781 32-32 32h-281.601562v32h280c35.199219 0 64-28.800781 64-64 0-9.601562-3.199219-20.800781-9.601562-32zm0 0" fill="#4adeed"/><path d="m398.398438 412.800781-24 24c-1.597657-3.199219-3.199219-6.402343-6.398438-9.601562l-28.800781-32 24-20.800781 28.800781 32c1.601562 1.601562 4.800781 4.800781 6.398438 6.402343zm0 0" fill="#45d4db"/><path d="m334.398438 432h-116.796876l-217.601562-217.601562v-116.796876l88-88 118.398438 118.398438-62.398438 62.398438 97.601562 97.601562 62.398438-62.398438 118.398438 118.398438zm0 0" fill="#40a2e7"/><path d="m480 192h-160c-17.601562 0-32-14.398438-32-32v-128c0-17.601562 14.398438-32 32-32h160c17.601562 0 32 14.398438 32 32v128c0 17.601562-14.398438 32-32 32zm0 0" fill="#ecce93"/><path d="m408 329.601562-73.601562 73.597657h-116.796876l-217.601562-217.597657v28.796876l217.601562 217.601562h116.796876l88-88zm0 0" fill="#168de2"/><path d="m352 80h96v46.398438h-96zm0 0" fill="#e5bd76"/><path d="m80 112h32v32h-32zm0 0" fill="#fff"/><path d="m288 320h32v32h-32zm0 0" fill="#fff"/><path d="m352 0h96v96h-96zm0 0" fill="#aa854b"/><path d="m480 160h-160c-17.601562 0-32-14.398438-32-32v32c0 17.601562 14.398438 32 32 32h160c17.601562 0 32-14.398438 32-32v-32c0 17.601562-14.398438 32-32 32zm0 0" fill="#e5bd76"/></svg>