<svg height="512pt" viewBox="0 0 512 512" width="512pt" xmlns="http://www.w3.org/2000/svg"><path d="m368 80h32v64h-32zm0 0" fill="#62808c"/><path d="m480 160v224h-448v-224c0-17.679688 14.320312-32 32-32h384c17.679688 0 32 14.320312 32 32zm0 0" fill="#40a2e7"/><path d="m32 320h448v64h-448zm0 0" fill="#168de2"/><path d="m480 512h-448c-17.679688 0-32-14.320312-32-32v-96c0-17.679688 14.320312-32 32-32h448c17.679688 0 32 14.320312 32 32v96c0 17.679688-14.320312 32-32 32zm0 0" fill="#77959e"/><path d="m272 448h-32c-8.832031 0-16-7.167969-16-16s7.167969-16 16-16h32c8.832031 0 16 7.167969 16 16s-7.167969 16-16 16zm0 0" fill="#57565c"/><path d="m288 0h192v96h-192zm0 0" fill="#57565c"/><path d="m64 128h192v128h-192zm0 0" fill="#168de2"/><path d="m96 48h128v176h-128zm0 0" fill="#e4edfb"/><g fill="#fff"><path d="m96 272h32v32h-32zm0 0"/><path d="m160 272h32v32h-32zm0 0"/><path d="m384 208h32v32h-32zm0 0"/><path d="m320 208h32v32h-32zm0 0"/><path d="m256 208h32v32h-32zm0 0"/><path d="m384 272h32v32h-32zm0 0"/><path d="m320 272h32v32h-32zm0 0"/><path d="m256 272h32v32h-32zm0 0"/></g><path d="m96 192h128v32h-128zm0 0" fill="#d7e1f2"/><path d="m96 384h32v32h-32zm0 0" fill="#fff"/><path d="m32 384h32v32h-32zm0 0" fill="#fff"/><path d="m32 448h32v32h-32zm0 0" fill="#fff"/></svg>