<svg height="512pt" viewBox="0 0 512.00211 512" width="512pt" xmlns="http://www.w3.org/2000/svg"><path d="m95.679688 336 30.0625 150.273438c2.992187 14.960937 16.128906 25.726562 31.378906 25.726562h197.757812c15.25 0 28.386719-10.765625 31.378906-25.726562l30.0625-150.273438zm0 0" fill="#e76e54"/><path d="m512 208c0 44.160156-35.839844 80-80 80h-336c-52.960938 0-96-43.039062-96-96 0-44.480469 31.039062-82.71875 73.601562-92.957031 21.917969-58.722657 79.039063-99.042969 142.398438-99.042969 51.039062 0 98.398438 25.601562 126.398438 67.519531 8.320312-2.398437 16.960937-3.519531 25.601562-3.519531 43.039062 0 80.320312 28.480469 92 69.121094 31.039062 11.519531 52 41.121094 52 74.878906zm0 0" fill="#e4edfb"/><path d="m510.289062 192.367188c-7.570312 36.273437-39.792968 63.632812-78.289062 63.632812h-25.503906c10.097656-23.566406-.878906-50.847656-24.496094-60.863281l-3.105469-1.3125c-23.46875-9.949219-50.558593.945312-60.621093 24.367187-9.824219 22.945313-32.402344 37.808594-57.363282 37.808594h-9.820312c-24.960938 0-47.539063-14.863281-57.394532-37.808594-10.0625-23.421875-37.152343-34.300781-60.625-24.367187l-3.101562 1.3125c-23.585938 10.015625-34.5625 37.296875-24.464844 60.863281h-9.503906c-47.566406 0-87.039062-34.800781-94.59375-80.253906-2.636719 15.183594-1.710938 31.488281 4.035156 48 13.613282 39.183594 52.144532 64.253906 93.613282 64.253906h311.855468c31.265625 0 61.632813-12.671875 82.320313-36.09375 20.371093-23.023438 20.5625-41.890625 17.058593-59.539062zm0 0" fill="#d7e1f2"/><path d="m206.71875 329.761719-29.4375 12.480469-41.679688-97.25c-3.488281-8.144532.300782-17.566407 8.445313-21.023438 8.113281-3.441406 17.472656.335938 20.929687 8.417969zm0 0" fill="#77959e"/><path d="m376.398438 244.992188-41.679688 97.25-29.4375-12.480469 41.726562-97.359375c3.472657-8.097656 12.832032-11.855469 20.929688-8.417969 8.160156 3.441406 11.949219 12.863281 8.460938 21.007813zm0 0" fill="#77959e"/><path d="m188.800781 288 17.917969 41.761719-29.4375 12.480469-23.203125-54.242188zm0 0" fill="#62808c"/><path d="m357.921875 288-23.203125 54.242188-29.4375-12.480469 17.917969-41.761719zm0 0" fill="#62808c"/><g fill="#dd523c"><path d="m192 464c-8.832031 0-16-7.167969-16-16v-48c0-8.832031 7.167969-16 16-16s16 7.167969 16 16v48c0 8.832031-7.167969 16-16 16zm0 0"/><path d="m256 464c-8.832031 0-16-7.167969-16-16v-48c0-8.832031 7.167969-16 16-16s16 7.167969 16 16v48c0 8.832031-7.167969 16-16 16zm0 0"/><path d="m320 464c-8.832031 0-16-7.167969-16-16v-48c0-8.832031 7.167969-16 16-16s16 7.167969 16 16v48c0 8.832031-7.167969 16-16 16zm0 0"/></g><path d="m432 352h-352c-8.832031 0-16-7.167969-16-16s7.167969-16 16-16h352c8.832031 0 16 7.167969 16 16s-7.167969 16-16 16zm0 0" fill="#addb31"/><path d="m240 80h32v32h-32zm0 0" fill="#fff"/><path d="m160 80h32v32h-32zm0 0" fill="#fff"/></svg>