<svg height="512pt" viewBox="0 0 512 512" width="512pt" xmlns="http://www.w3.org/2000/svg"><path d="m512 272v192h-192v-272h112c44.160156 0 80 35.839844 80 80zm0 0" fill="#77959e"/><path d="m432 192h-112v128h192v-48c0-44.113281-35.886719-80-80-80zm0 0" fill="#40a2e7"/><path d="m320 192h80v128h-80zm0 0" fill="#168de2"/><path d="m512 400h-48c-8.832031 0-16-7.167969-16-16s7.167969-16 16-16h48zm0 0" fill="#fdd835"/><path d="m352 160v304h-352v-304c0-17.679688 14.320312-32 32-32h288c17.679688 0 32 14.320312 32 32zm0 0" fill="#b0b4b9"/><path d="m320 357.601562c-32.414062 11.261719-56.785156 39.726563-62.625 74.398438h-34.816406c-7.648438-45.34375-47.054688-80-94.558594-80s-86.910156 34.65625-94.558594 80h-33.441406v32h352v-112c-11.199219 0-21.921875 1.921875-32 5.601562zm0 0" fill="#9da2a5"/><path d="m192 448c0 35.347656-28.652344 64-64 64s-64-28.652344-64-64 28.652344-64 64-64 64 28.652344 64 64zm0 0" fill="#57565c"/><path d="m128 416c-29.726562 0-54.574219 20.480469-61.726562 48-1.34375-5.152344-2.273438-10.449219-2.273438-16 0-35.296875 28.703125-64 64-64s64 28.703125 64 64c0 5.550781-.929688 10.847656-2.273438 16-7.152343-27.519531-32-48-61.726562-48zm0 0" fill="#2d2d30"/><path d="m416 448c0 35.347656-28.652344 64-64 64s-64-28.652344-64-64 28.652344-64 64-64 64 28.652344 64 64zm0 0" fill="#57565c"/><path d="m352 416c-29.726562 0-54.574219 20.480469-61.726562 48-1.34375-5.152344-2.273438-10.449219-2.273438-16 0-35.296875 28.703125-64 64-64s64 28.703125 64 64c0 5.550781-.929688 10.847656-2.273438 16-7.152343-27.519531-32-48-61.726562-48zm0 0" fill="#2d2d30"/><path d="m272 288h-192c-17.679688 0-32-14.320312-32-32v-144h256v144c0 17.679688-14.320312 32-32 32zm0 0" fill="#9b7cab"/><path d="m48 112h256v64h-256zm0 0" fill="#88679b"/><path d="m160 112h32v176h-32zm0 0" fill="#fdd835"/><path d="m160 112h32v64h-32zm0 0" fill="#fbc02d"/><path d="m282.71875 32c-8.796875-18.878906-28.160156-32-50.238281-32-21.28125 0-40.320313 11.839844-49.761719 30.71875l-.640625 1.28125-6.078125 12.160156-6.078125-12.160156-.640625-1.28125c-9.441406-18.878906-28.480469-30.71875-49.761719-30.71875-22.078125 0-41.441406 13.121094-50.238281 32-3.359375 7.199219-5.28125 15.199219-5.28125 23.519531v40.480469h224v-40.480469c0-8.320312-1.921875-16.320312-5.28125-23.519531zm-186.71875 32v-8.480469c0-12.960937 10.558594-23.519531 23.519531-23.519531 8.960938 0 17.121094 4.960938 21.121094 12.960938l9.4375 19.039062zm105.921875 0 9.4375-19.039062c4-8 12.160156-12.960938 21.121094-12.960938 12.960937 0 23.519531 10.558594 23.519531 23.519531v8.480469zm0 0" fill="#fdd835"/><path d="m288 144h-224c-17.679688 0-32-14.320312-32-32v-48h288v48c0 17.679688-14.320312 32-32 32zm0 0" fill="#ff668b"/></svg>