<svg height="512pt" viewBox="0 -64 512 512" width="512pt" xmlns="http://www.w3.org/2000/svg"><path d="m512 144v192h-192v-272h112c44.160156 0 80 35.839844 80 80zm0 0" fill="#d7dee2"/><path d="m432 64h-112v128h192v-48c0-44.113281-35.886719-80-80-80zm0 0" fill="#40a2e7"/><path d="m446.558594 304c-7.648438-45.34375-47.054688-80-94.558594-80h-32v112h192v-32zm0 0" fill="#bfc9d1"/><path d="m320 64h80v128h-80zm0 0" fill="#168de2"/><path d="m512 272h-48c-8.832031 0-16-7.167969-16-16s7.167969-16 16-16h48zm0 0" fill="#fdd835"/><path d="m352 32v304h-352v-304c0-17.679688 14.320312-32 32-32h288c17.679688 0 32 14.320312 32 32zm0 0" fill="#e76e54"/><path d="m352 224c-11.199219 0-21.921875 1.921875-32 5.601562-32.414062 11.261719-56.785156 39.726563-62.625 74.398438h-34.816406c-7.648438-45.34375-47.054688-80-94.558594-80s-86.910156 34.65625-94.558594 80h-33.441406v32h352zm0 0" fill="#dd523c"/><path d="m192 320c0 35.347656-28.652344 64-64 64s-64-28.652344-64-64 28.652344-64 64-64 64 28.652344 64 64zm0 0" fill="#57565c"/><path d="m128 288c-29.726562 0-54.574219 20.480469-61.726562 48-1.34375-5.152344-2.273438-10.449219-2.273438-16 0-35.296875 28.703125-64 64-64s64 28.703125 64 64c0 5.550781-.929688 10.847656-2.273438 16-7.152343-27.519531-32-48-61.726562-48zm0 0" fill="#2d2d30"/><path d="m416 320c0 35.347656-28.652344 64-64 64s-64-28.652344-64-64 28.652344-64 64-64 64 28.652344 64 64zm0 0" fill="#57565c"/><path d="m352 288c-29.726562 0-54.574219 20.480469-61.726562 48-1.34375-5.152344-2.273438-10.449219-2.273438-16 0-35.296875 28.703125-64 64-64s64 28.703125 64 64c0 5.550781-.929688 10.847656-2.273438 16-7.152343-27.519531-32-48-61.726562-48zm0 0" fill="#2d2d30"/><g fill="#fff"><path d="m32 32h32v32h-32zm0 0"/><path d="m96 32h32v32h-32zm0 0"/><path d="m160 32h32v32h-32zm0 0"/></g></svg>