<svg height="512pt" viewBox="0 0 512 512" width="512pt" xmlns="http://www.w3.org/2000/svg"><path d="m512 48v358.078125l-105.921875 105.921875h-406.078125v-464zm0 0" fill="#fdd835"/><path d="m0 112h512v64h-512zm0 0" fill="#fbc02d"/><path d="m64 0h32v64h-32zm0 0" fill="#77959e"/><path d="m416 0h32v64h-32zm0 0" fill="#77959e"/><path d="m374.078125 374.078125v105.921875h-374.078125v32h406.078125l105.921875-105.921875v-32zm0 0" fill="#fbc02d"/><path d="m512 406.078125-105.921875 105.921875v-105.921875zm0 0" fill="#77959e"/><path d="m0 48h512v96h-512zm0 0" fill="#addb31"/><g fill="#fff"><path d="m172.683594 380.6875 144-144 22.625 22.625-143.996094 144zm0 0"/><path d="m176 240h32v32h-32zm0 0"/><path d="m304 368h32v32h-32zm0 0"/><path d="m176 80h32v32h-32zm0 0"/><path d="m240 80h32v32h-32zm0 0"/><path d="m304 80h32v32h-32zm0 0"/></g></svg>