<svg height="512pt" viewBox="0 -96 512 512" width="512pt" xmlns="http://www.w3.org/2000/svg"><path d="m480 320h-112v-14.207031c0-15.953125-10.863281-30.769531-26.59375-33.359375-20.03125-3.28125-37.40625 12.160156-37.40625 31.566406v16h-272c-17.679688 0-32-14.320312-32-32v-256c0-17.679688 14.320312-32 32-32h272v14.207031c0 15.953125 10.863281 30.769531 26.59375 33.359375 20.03125 3.28125 37.40625-12.160156 37.40625-31.566406v-16h112c17.679688 0 32 14.320312 32 32v256c0 17.679688-14.320312 32-32 32zm0 0" fill="#40a2e7"/><g fill="#fff"><path d="m84.683594 212.6875 128-128.003906 22.628906 22.628906-128.003906 128.003906zm0 0"/><path d="m96 96h32v32h-32zm0 0"/><path d="m192 192h32v32h-32zm0 0"/></g><path d="m320 112h32v32h-32zm0 0" fill="#168de2"/><path d="m320 176h32v32h-32zm0 0" fill="#168de2"/></svg>