<svg height="512pt" viewBox="0 0 512 512" width="512pt" xmlns="http://www.w3.org/2000/svg"><path d="m352 32v288c0 17.679688-14.320312 32-32 32h-288c-17.679688 0-32-14.320312-32-32v-288c0-17.679688 14.320312-32 32-32h288c17.679688 0 32 14.320312 32 32zm0 0" fill="#addb31"/><path d="m400 320v32h-48v48h-32v-48h-160v-32h160v-160h32v160zm0 0" fill="#77959e"/><g fill="#fff"><path d="m100.683594 228.6875 128.003906-128.003906 22.625 22.628906-128 128.003906zm0 0"/><path d="m112 112h32v32h-32zm0 0"/><path d="m208 208h32v32h-32zm0 0"/></g><path d="m400 320v32h-46.558594c-.960937-5.121094-1.441406-10.558594-1.441406-16s.480469-10.878906 1.441406-16zm0 0" fill="#62808c"/><path d="m352 353.441406v46.558594h-32v-46.558594c5.121094-.960937 10.558594-1.441406 16-1.441406s10.878906.480469 16 1.441406zm0 0" fill="#62808c"/><path d="m448 400c-35.296875 0-64-28.703125-64-64s28.703125-64 64-64 64 28.703125 64 64-28.703125 64-64 64zm0-96c-17.648438 0-32 14.351562-32 32s14.351562 32 32 32 32-14.351562 32-32-14.351562-32-32-32zm0 0" fill="#77959e"/><path d="m336 512c-35.296875 0-64-28.703125-64-64s28.703125-64 64-64 64 28.703125 64 64-28.703125 64-64 64zm0-96c-17.648438 0-32 14.351562-32 32s14.351562 32 32 32 32-14.351562 32-32-14.351562-32-32-32zm0 0" fill="#77959e"/></svg>