<svg height="512pt" viewBox="0 -5 512.00535 512" width="512pt" xmlns="http://www.w3.org/2000/svg"><path d="m414.386719 316.535156-134.394531 77.757813-16-27.679688 134.394531-77.914062zm0 0" fill="#62808c"/><path d="m287.992188 502.609375h-287.992188v-358.609375l143.996094-143.99609375 143.996094 143.99609375zm0 0" fill="#00ddc2"/><path d="m414.386719 400.695312-16 27.839844-318.597657-183.996094c-7.664062-4.433593-10.304687-14.222656-5.886718-21.902343 4.429687-7.695313 14.253906-10.335938 21.949218-5.90625zm0 0" fill="#77959e"/><path d="m374.066406 377.496094 40.320313 23.199218-16 27.839844-40.476563-23.359375c1.917969-4.960937 4.160156-9.761719 6.878906-14.5625 2.71875-4.636719 5.757813-9.117187 9.277344-13.117187zm0 0" fill="#62808c"/><g fill="#fff"><path d="m63.996094 342.617188h32v31.996093h-32zm0 0"/><path d="m127.996094 342.617188h32v31.996093h-32zm0 0"/><path d="m191.992188 342.617188h32v31.996093h-32zm0 0"/><path d="m127.996094 118.621094h32v32h-32zm0 0"/></g><path d="m448.019531 342.617188c-22.816406 0-44.0625-12.273438-55.472656-32-8.542969-14.800782-10.816406-32.046876-6.382813-48.558594 4.433594-16.511719 15.007813-30.320313 29.808594-38.863282 9.726563-5.617187 20.78125-8.574218 31.964844-8.574218 22.816406 0 44.0625 12.269531 55.472656 31.996094 8.542969 14.816406 10.8125 32.046874 6.382813 48.558593-4.433594 16.511719-15.007813 30.320313-29.824219 38.863281-9.710938 5.601563-20.765625 8.578126-31.949219 8.578126zm-.082031-96c-5.582031 0-11.085938 1.488281-15.96875 4.304687-7.40625 4.273437-12.6875 11.167969-14.910156 19.425781-2.207032 8.253906-1.070313 16.878906 3.199218 24.285156 8.480469 14.6875 28.816407 20.304688 43.695313 11.695313 7.40625-4.269531 12.703125-11.167969 14.929687-19.421875 2.207032-8.273438 1.070313-16.878906-3.203124-24.289062-5.695313-9.886719-16.316407-16-27.742188-16zm0 0" fill="#77959e"/><path d="m447.9375 502.59375c-11.183594 0-22.253906-2.976562-31.964844-8.574219-14.800781-8.542969-25.394531-22.335937-29.808594-38.863281-4.414062-16.527344-2.160156-33.757812 6.382813-48.558594 11.410156-19.726562 32.65625-32 55.472656-32 11.183594 0 22.238281 2.976563 31.949219 8.578125 14.816406 8.542969 25.40625 22.335938 29.824219 38.863281 4.414062 16.527344 2.160156 33.742188-6.382813 48.558594-11.410156 19.726563-32.65625 31.996094-55.472656 31.996094zm.082031-95.996094c-11.425781 0-22.050781 6.128906-27.746093 16-4.285157 7.40625-5.40625 16.03125-3.199219 24.285156 2.226562 8.257813 7.503906 15.152344 14.914062 19.425782 14.847657 8.574218 35.214844 2.992187 43.707031-11.695313 4.289063-7.410156 5.410157-16.015625 3.203126-24.289062-2.226563-8.253907-7.519532-15.152344-14.929688-19.421875-4.878906-2.832032-10.382812-4.304688-15.949219-4.304688zm0 0" fill="#77959e"/></svg>