<svg height="512pt" viewBox="0 0 512 512" width="512pt" xmlns="http://www.w3.org/2000/svg"><path d="m512 512h-448c-35.34375 0-64-28.65625-64-64v-448h512zm0 0" fill="#ecce93"/><path d="m320 0h192v512h-192zm0 0" fill="#c59969"/><path d="m416 512v-512h-96v512zm0 0" fill="#ba8a5a"/><path d="m416 400-95.199219 112h191.199219v-.097656zm0 0" fill="#916e40"/><path d="m224 160h-128c-17.679688 0-32-14.320312-32-32v-48c0-17.679688 14.320312-32 32-32h128c17.679688 0 32 14.320312 32 32v48c0 17.679688-14.320312 32-32 32zm0 0" fill="#2d2d30"/><path d="m256 80h-192c0-17.679688 14.320312-32 32-32h128c17.679688 0 32 14.320312 32 32zm0 0" fill="#57565c"/><g fill="#00ddc2"><path d="m271.089844 321.96875 7.949218 27.679688 30.753907-8.816407-23.121094-80.625-80.625 23.105469 8.816406 30.75 28.542969-8.191406-10.253906 18.785156c-12.640625 23.28125-12.097656 51.871094 1.441406 74.609375 12.160156 20.496094 32.972656 32.734375 55.644531 32.734375h13.761719v-32h-13.761719c-11.4375 0-21.695312-6.222656-28.160156-17.070312-7.789063-13.089844-8.109375-29.570313-.832031-42.945313zm0 0"/><path d="m380.992188 226.511719 10.832031 19.921875-29.25-7.839844-8.285157 30.910156 81.007813 21.710938 21.710937-81.023438-30.910156-8.289062-7.296875 27.234375-9.746093-17.921875c-11.984376-22.046875-33.328126-35.214844-57.054688-35.214844s-45.070312 13.167969-57.089844 35.214844l-11.519531 21.121094 28.097656 15.3125 11.519531-21.121094c6.417969-11.773438 16.976563-18.527344 28.992188-18.527344s22.574219 6.753906 28.992188 18.511719zm0 0"/><path d="m470.832031 324.703125-6.734375-12.351563-28.097656 15.3125 6.734375 12.335938c7.28125 13.40625 6.992187 29.839844-.796875 42.929688-6.449219 10.847656-16.707031 17.070312-28.128906 17.070312h-23.183594l20.6875-20.6875-22.625-22.625-59.3125 59.3125 59.3125 59.3125 22.625-22.625-20.6875-20.6875h23.183594c22.65625 0 43.457031-12.238281 55.648437-32.71875 13.503907-22.738281 14.03125-51.3125 1.375-74.578125zm0 0"/></g><path d="m112 208h32v32h-32zm0 0" fill="#fff"/><path d="m176 208h32v32h-32zm0 0" fill="#fff"/></svg>