<svg height="512pt" viewBox="-128 0 512 512" width="512pt" xmlns="http://www.w3.org/2000/svg"><path d="m240 480v32h-224v-32h96v-160h32v160zm0 0" fill="#77959e"/><path d="m144 320v47.199219c-5.28125.480469-10.558594.800781-16 .800781s-10.71875-.320312-16-.800781v-47.199219zm0 0" fill="#62808c"/><path d="m256 0v208c0 70.558594-57.441406 128-128 128s-128-57.441406-128-128v-208zm0 0" fill="#4adeed"/><path d="m198.238281 112-39.039062 117.121094-30.398438-10.242188 24.960938-74.878906h-63.042969l41.121094-144h33.28125l-31.839844 112zm0 0" fill="#fff"/><path d="m128 304c-70.558594 0-128-57.441406-128-128v32c0 70.558594 57.441406 128 128 128s128-57.441406 128-128v-32c0 70.558594-57.441406 128-128 128zm0 0" fill="#45d4db"/><g fill="#fff"><path d="m32 32h32v32h-32zm0 0"/><path d="m32 96h32v32h-32zm0 0"/></g></svg>