<svg height="512pt" viewBox="0 -2 512 512" width="512pt" xmlns="http://www.w3.org/2000/svg"><path d="m512 32v288c0 17.679688-14.320312 32-32 32h-268.320312l-51.679688 32.480469-96 60.480469v-92.960938h-32c-17.679688 0-32-14.320312-32-32v-288c0-17.679688 14.320312-32 32-32h448c17.679688 0 32 14.320312 32 32zm0 0" fill="#4adeed"/><path d="m64 320h-64c0 17.679688 14.320312 32 32 32h32zm0 0" fill="#45d4db"/><path d="m160 208v144.511719l-96 60.464843v32l147.679688-92.992187h268.320312c17.679688 0 32-14.320313 32-32v-160h-304c-26.511719.015625-48 21.503906-48 48.015625zm0 0" fill="#45d4db"/><path d="m448 508.257812-100.433594-60.273437h-123.566406c-17.679688 0-32-14.320313-32-32v-192c0-17.679687 14.320312-32 32-32h256c17.679688 0 32 14.320313 32 32v192c0 17.679687-14.320312 32-32 32h-32zm0 0" fill="#e76e54"/><g fill="#fff"><path d="m276.683594 372.6875 128.003906-128.003906 22.625 22.628906-128 128zm0 0"/><path d="m288 256h32v32h-32zm0 0"/><path d="m384 352h32v32h-32zm0 0"/><path d="m64 64h384v32h-384zm0 0"/><path d="m384 160h-32v-32h32zm-64 0h-32v-32h32zm-64 0h-192v-32h192zm0 0"/><path d="m64 192h96v32h-96zm0 0"/><path d="m64 256h96v32h-96zm0 0"/></g><path d="m192 416c0 17.679688 14.320312 32 32 32h123.566406l100.433594 60.257812v-32l-100.433594-60.273437h-155.566406zm0 0" fill="#dd523c"/><path d="m448 448h32c17.679688 0 32-14.320312 32-32h-64zm0 0" fill="#dd523c"/></svg>