<svg height="512pt" viewBox="0 -32 512 512" width="512pt" xmlns="http://www.w3.org/2000/svg"><path d="m512 32v384c0 17.679688-14.320312 32-32 32h-448c-17.679688 0-32-14.320312-32-32v-384c0-17.679688 14.320312-32 32-32h448c17.679688 0 32 14.320312 32 32zm0 0" fill="#e4edfb"/><path d="m0 64h512v64h-512zm0 0" fill="#d7e1f2"/><path d="m480 0h-448c-17.679688 0-32 14.320312-32 32v64h512v-64c0-17.679688-14.320312-32-32-32zm0 0" fill="#77959e"/><g fill="#fff"><path d="m64 32h32v32h-32zm0 0"/><path d="m128 32h32v32h-32zm0 0"/><path d="m192 32h256v32h-256zm0 0"/></g><path d="m342.625 160h-54.625v16c0 17.679688-14.320312 32-32 32s-32-14.320312-32-32v-16h-54.625l-96 96 70.625 70.625 32-32v121.375h160v-121.375l32 32 70.625-70.625zm0 0" fill="#e76e54"/><path d="m64 384h64v32h-64zm0 0" fill="#57565c"/><path d="m384 384h64v32h-64zm0 0" fill="#57565c"/><path d="m176 262.625-32 32-54.625-54.625-16 16 70.625 70.625 32-32zm0 0" fill="#dd523c"/><path d="m368 294.625-32-32v32l32 32 70.625-70.625-16-16zm0 0" fill="#dd523c"/><path d="m208 240h32v32h-32zm0 0" fill="#fff"/><path d="m272 240h32v32h-32zm0 0" fill="#fff"/></svg>