<svg height="512pt" viewBox="0 -32 512 512" width="512pt" xmlns="http://www.w3.org/2000/svg"><path d="m512 32v384c0 17.679688-14.320312 32-32 32h-448c-17.679688 0-32-14.320312-32-32v-384c0-17.679688 14.320312-32 32-32h448c17.679688 0 32 14.320312 32 32zm0 0" fill="#e4edfb"/><path d="m0 64h512v64h-512zm0 0" fill="#d7e1f2"/><path d="m480 0h-448c-17.679688 0-32 14.320312-32 32v64h512v-64c0-17.679688-14.320312-32-32-32zm0 0" fill="#77959e"/><g fill="#fff"><path d="m64 32h32v32h-32zm0 0"/><path d="m128 32h32v32h-32zm0 0"/><path d="m192 32h256v32h-256zm0 0"/></g><path d="m152 288h-48l-61.121094-81.503906 46.496094-46.496094h77.25l46.496094 46.496094zm0 0" fill="#40a2e7"/><path d="m352 403.40625-104.097656-104.09375c-31.824219-31.808594-31.824219-83.601562 0-115.410156 15.410156-15.421875 35.90625-23.902344 57.714844-23.902344 16.816406 0 32.863281 5.054688 46.382812 14.433594 13.535156-9.378906 29.585938-14.433594 46.382812-14.433594 21.808594 0 42.304688 8.480469 57.695313 23.902344 31.824219 31.808594 31.824219 83.601562 0 115.410156zm0 0" fill="#ff668b"/><path d="m432 256h-32v-32h32zm-64 0h-96v-32h96zm0 0" fill="#fff"/><path d="m187.183594 241.089844c-17.199219-10.769532-37.441406-17.089844-59.183594-17.089844s-41.984375 6.320312-59.183594 17.089844l35.183594 46.910156h48zm0 0" fill="#168de2"/><path d="m456.097656 265.617188-81.472656 81.472656c-12.496094 12.496094-32.753906 12.496094-45.25 0l-81.472656-81.472656c-11.597656-11.601563-18.863282-25.875-22-40.847657-5.46875 26.09375 1.792968 54.335938 22 74.558594l104.097656 104.078125 104.097656-104.09375c20.222656-20.207031 27.46875-48.464844 22-74.558594-3.136718 14.972656-10.402344 29.261719-22 40.863282zm0 0" fill="#f7487a"/><path d="m128 256c-44.113281 0-80 35.886719-80 80s35.886719 80 80 80 80-35.886719 80-80-35.886719-80-80-80zm0 128c-26.464844 0-48-21.535156-48-48s21.535156-48 48-48 48 21.535156 48 48-21.535156 48-48 48zm0 0" fill="#b0b4b9"/></svg>