<svg height="512pt" viewBox="0 0 512 512" width="512pt" xmlns="http://www.w3.org/2000/svg"><path d="m480 208v256h-448v-256c0-26.398438 21.601562-48 48-48h352c26.398438 0 48 21.601562 48 48zm0 0" fill="#d7dee2"/><path d="m32 400h448v64h-448zm0 0" fill="#bfc9d1"/><path d="m64 192h384v272h-384zm0 0" fill="#40a2e7"/><path d="m64 400h384v64h-384zm0 0" fill="#168de2"/><path d="m464 512h-416c-26.464844 0-48-21.535156-48-48v-32h512v32c0 26.464844-21.535156 48-48 48zm0 0" fill="#d7dee2"/><path d="m464 480h-416c-26.464844 0-48-21.535156-48-48v32c0 26.464844 21.535156 48 48 48h416c26.464844 0 48-21.535156 48-48v-32c0 26.464844-21.535156 48-48 48zm0 0" fill="#bfc9d1"/><path d="m416 96v256c0 17.679688-14.320312 32-32 32h-256c-17.679688 0-32-14.320312-32-32v-256zm0 0" fill="#fdd835"/><path d="m416 96v70.238281c-12 6.242188-25.601562 9.761719-40 9.761719-14.078125 0-27.839844-3.359375-40-9.601562-12.160156 6.242187-25.921875 9.601562-40 9.601562s-27.839844-3.359375-40-9.601562c-12.160156 6.242187-25.921875 9.601562-40 9.601562s-27.839844-3.359375-40-9.601562c-12.160156 6.242187-25.921875 9.601562-40 9.601562-14.398438 0-28-3.519531-40-9.761719v-70.238281zm0 0" fill="#fbc02d"/><path d="m80 16v72c0 30.878906 25.121094 56 56 56 15.679688 0 29.824219-6.511719 40-16.929688 10.175781 10.417969 24.320312 16.929688 40 16.929688s29.824219-6.511719 40-16.929688c10.175781 10.417969 24.320312 16.929688 40 16.929688s29.824219-6.511719 40-16.929688c10.175781 10.417969 24.320312 16.929688 40 16.929688 30.878906 0 56-25.121094 56-56v-72zm0 0" fill="#e76e54"/><path d="m416 352c0 17.679688-14.320312 32-32 32h-256c-17.679688 0-32-14.320312-32-32zm0 0" fill="#fbc02d"/><path d="m208 64h32v32h-32zm0 0" fill="#fff"/><path d="m272 64h32v32h-32zm0 0" fill="#fff"/><path d="m320 384h-128v-128c0-35.296875 28.703125-64 64-64s64 28.703125 64 64zm0 0" fill="#c59969"/><path d="m256 192c-35.296875 0-64 28.703125-64 64v32c0-35.296875 28.703125-64 64-64s64 28.703125 64 64v-32c0-35.296875-28.703125-64-64-64zm0 0" fill="#ba8a5a"/><path d="m80 16h352v48h-352zm0 0" fill="#dd523c"/><path d="m80 0h352v32h-352zm0 0" fill="#77959e"/></svg>