<svg height="512pt" viewBox="0 -79 512.00002 512" width="512pt" xmlns="http://www.w3.org/2000/svg"><path d="m401.199219 354.929688h-290.398438c-17.824219 0-32.265625-14.441407-32.265625-32.269532v-204.839844l-78.535156-117.820312h248.5l55.898438 83.84375 55.902343-83.84375h151.699219l-78.535156 117.820312v204.839844c0 17.828125-14.441406 32.269532-32.265625 32.269532zm0 0" fill="#c59969"/><path d="m304.398438 83.84375-55.898438-83.84375h-248.5l78.421875 117.640625h225.976563zm0 0" fill="#aa854b"/><path d="m360.300781 0-55.902343 83.84375v33.796875h129.195312l78.40625-117.640625zm0 0" fill="#916e40"/><path d="m304.398438 354.929688h96.800781c17.824219 0 32.265625-14.441407 32.265625-32.269532v-204.839844l.113281-.179687h-129.179687zm0 0" fill="#ba8a5a"/><g fill="#fff"><path d="m110.800781 145.199219h32.265625v32.265625h-32.265625zm0 0"/><path d="m175.335938 145.199219h32.265624v32.265625h-32.265624zm0 0"/></g></svg>