<svg height="512pt" viewBox="0 -6 512 511" width="512pt" xmlns="http://www.w3.org/2000/svg"><path d="m469.488281 24.734375-39.726562 66.207031-27.523438-16.320312 39.808594-66.351563c4.527344-7.550781 14.304687-10.015625 21.875-5.535156 7.628906 4.527344 10.125 14.398437 5.566406 22zm0 0" fill="#b0b4b9"/><path d="m333.761719 74.621094-27.523438 16.320312-39.726562-66.207031c-4.558594-7.601563-2.0625-17.472656 5.550781-21.984375 7.570312-4.496094 17.34375-2.015625 21.875 5.535156zm0 0" fill="#b0b4b9"/><path d="m309.921875 34.78125 23.839844 39.839844-27.523438 16.320312-33.757812-56.160156zm0 0" fill="#9da2a5"/><path d="m463.519531 34.78125-33.757812 56.160156-27.523438-16.320312 23.839844-39.839844zm0 0" fill="#9da2a5"/><path d="m436.734375 194.78125h-137.46875c-13.90625 0-26.210937-8.976562-30.464844-22.207031l-34.015625-105.792969h266.429688l-34.015625 105.808594c-4.253907 13.234375-16.558594 22.191406-30.464844 22.191406zm0 0" fill="#e76e54"/><path d="m400 114.78125h32v32h-32zm0 0" fill="#fff"/><path d="m304 114.78125h32v32h-32zm0 0" fill="#fff"/><path d="m160 66.78125h32v32h-32zm0 0" fill="#77959e"/><path d="m272 250.78125v40h-32v-40c0-2.71875-.320312-5.4375-.800781-8-3.679688-18.238281-19.839844-32-39.199219-32h-128c-39.679688 0-72-32.320312-72-72s32.320312-72 72-72h56v32h-56c-22.078125 0-40 17.921875-40 40 0 22.082031 17.921875 40 40 40h128c36.960938 0 67.519531 28 71.519531 64 .320313 2.5625.480469 5.28125.480469 8zm0 0" fill="#77959e"/><path d="m272 250.78125v40h-32v-40c0-2.71875-.320312-5.4375-.800781-8h32.320312c.320313 2.5625.480469 5.28125.480469 8zm0 0" fill="#62808c"/><path d="m480 498.78125h-448c-17.679688 0-32-14.320312-32-32v-160c0-17.679688 14.320312-32 32-32h448c17.679688 0 32 14.320312 32 32v160c0 17.679688-14.320312 32-32 32zm0 0" fill="#fdd835"/><g fill="#fff"><path d="m160 402.78125h192v32h-192zm0 0"/><path d="m64 402.78125h64v32h-64zm0 0"/><path d="m384 402.78125h64v32h-64zm0 0"/><path d="m64 338.78125h32v32h-32zm0 0"/><path d="m128 338.78125h32v32h-32zm0 0"/><path d="m192 338.78125h32v32h-32zm0 0"/><path d="m256 338.78125h32v32h-32zm0 0"/><path d="m320 338.78125h32v32h-32zm0 0"/><path d="m416 338.78125h32v32h-32zm0 0"/></g><path d="m480 498.78125h-448c-17.679688 0-32-14.320312-32-32h512c0 17.679688-14.320312 32-32 32zm0 0" fill="#fbc02d"/></svg>