<svg height="511pt" viewBox="0 0 511 511.99914" width="511pt" xmlns="http://www.w3.org/2000/svg"><path d="m431.015625 81.480469v184.019531l-246.335937 246.5-184.179688-184.183594 246.496094-246.335937zm0 0" fill="#00ddc2"/><path d="m309.574219 225.914062-23.007813-23.003906-25.265625 25.265625c-18.078125-8.167969-40.839843-5.171875-55.289062 9.242188-19.019531 19.035156-19.019531 50 0 69.035156 3.074219 3.058594 4.769531 7.144531 4.769531 11.503906s-1.695312 8.429688-4.769531 11.503907c-6.132813 6.148437-16.855469 6.148437-23.007813 0l-34.523437-34.511719-23.007813 23.007812 23.007813 23.007813-23.007813 23.003906 23.007813 23.007812 25.105469-25.105468c6.476562 3.089844 13.535156 4.882812 20.921874 4.882812 13.035157 0 25.300782-5.078125 34.511719-14.285156 9.222657-9.226562 14.300781-21.480469 14.300781-34.527344 0-13.050781-5.078124-25.300781-14.285156-34.511718-6.34375-6.34375-6.34375-16.660157 0-23.019532 6.148438-6.136718 16.871094-6.152344 23.023438 0l34.523437 34.507813 23.007813-23.007813-23.023438-22.972656zm0 0" fill="#fff"/><path d="m401.566406 87.828125c-20.5 20.664063-24.40625 42.300781-22.289062 47.019531l22.941406 22.941406-23.59375 22.128907-46.042969 46.046875-22.941406-23.105469c-30.265625-30.261719-35.796875-76.632813-18.550781-121.378906h117.636718c-2.441406 1.953125-4.882812 4.070312-7.160156 6.347656zm0 0" fill="#0ac1a7"/><path d="m332.597656 179.902344c-32.25-32.25-22.144531-92.886719 23.003906-138.054688 45.167969-45.152344 105.808594-55.253906 138.058594-23.007812 24.925782 24.910156 24.8125 68.90625-.277344 109.484375l-27.675781-17.117188c16.707031-27.039062 18.742188-55.546875 4.945313-69.359375-18.695313-18.695312-60.851563-8.183594-92.042969 23.003906-31.175781 31.191407-41.71875 73.332032-23.007813 92.042969zm0 0" fill="#d7dee2"/></svg>