<svg height="512pt" viewBox="0 0 512 512" width="512pt" xmlns="http://www.w3.org/2000/svg"><path d="m400.960938 310.496094-90.464844 90.464844 111.039062 111.039062h90.464844v-90.464844zm0 0" fill="#57565c"/><path d="m310.480469 400.914062 90.535156-90.460937 83.199219 83.269531-90.535156 90.460938zm0 0" fill="#d7dee2"/><path d="m444.273438 353.792969-43.3125-43.28125-90.464844 90.449219 43.28125 43.328124c37.277344-22.066406 68.445312-53.21875 90.496094-90.496093zm0 0" fill="#bfc9d1"/><path d="m432 224c0 114.875-93.125 208-208 208s-208-93.125-208-208 93.125-208 208-208 208 93.125 208 208zm0 0" fill="#e4edfb"/><path d="m224 64c106.558594 0 194.542969 80.59375 206.496094 184 .910156-7.886719 1.503906-15.871094 1.503906-24 0-114.6875-93.3125-208-208-208s-208 93.3125-208 208c0 8.128906.59375 16.113281 1.503906 24 11.953125-103.40625 99.9375-184 206.496094-184zm0 0" fill="#d7e1f2"/><path d="m272 112v80h-32v-80c0-8.800781-7.199219-16-16-16s-16 7.199219-16 16v80h-32v-80c0-5.601562.960938-11.039062 2.878906-16 6.5625-18.558594 24.320313-32 45.121094-32s38.558594 13.441406 45.121094 32c1.917968 4.960938 2.878906 10.398438 2.878906 16zm0 0" fill="#fdd835"/><path d="m240 112h32v64h-32zm0 0" fill="#fbc02d"/><path d="m176 112h32v64h-32zm0 0" fill="#fbc02d"/><path d="m336 352h-224l16-208h192zm0 0" fill="#e76e54"/><path d="m176 202.671875h32v32h-32zm0 0" fill="#fff"/><path d="m240 202.671875h32v32h-32zm0 0" fill="#fff"/><path d="m224 448c-123.519531 0-224-100.480469-224-224s100.480469-224 224-224 224 100.480469 224 224-100.480469 224-224 224zm0-416c-105.871094 0-192 86.128906-192 192s86.128906 192 192 192 192-86.128906 192-192-86.128906-192-192-192zm0 0" fill="#77959e"/></svg>