<svg height="512pt" viewBox="0 0 512 512" width="512pt" xmlns="http://www.w3.org/2000/svg"><path d="m352 256h-192c-17.679688 0-32-14.320312-32-32v-192c0-17.679688 14.320312-32 32-32h192c17.679688 0 32 14.320312 32 32v192c0 17.679688-14.320312 32-32 32zm0 0" fill="#c59969"/><path d="m480 512h-192c-17.679688 0-32-14.320312-32-32v-192c0-17.679688 14.320312-32 32-32h192c17.679688 0 32 14.320312 32 32v192c0 17.679688-14.320312 32-32 32zm0 0" fill="#c59969"/><path d="m0 288v192c0 17.679688 14.320312 32 32 32h192c17.679688 0 32-14.320312 32-32v-192c0-17.679688-14.320312-32-32-32h-192c-17.679688 0-32 14.320312-32 32zm0 0" fill="#c59969"/><path d="m176 0h160v144h-160zm0 0" fill="#ba8a5a"/><path d="m208 0h96v112h-96zm0 0" fill="#fdd835"/><path d="m48 256h160v144h-160zm0 0" fill="#ba8a5a"/><path d="m80 256h96v112h-96zm0 0" fill="#fdd835"/><path d="m304 256h160v144h-160zm0 0" fill="#ba8a5a"/><path d="m336 256h96v112h-96zm0 0" fill="#fdd835"/><g fill="#fff"><path d="m208 160h32v32h-32zm0 0"/><path d="m272 160h32v32h-32zm0 0"/><path d="m336 416h32v32h-32zm0 0"/><path d="m400 416h32v32h-32zm0 0"/><path d="m80 416h32v32h-32zm0 0"/><path d="m144 416h32v32h-32zm0 0"/></g><path d="m352 224h-192c-17.679688 0-32-14.320312-32-32v32c0 17.679688 14.320312 32 32 32h192c17.679688 0 32-14.320312 32-32v-32c0 17.679688-14.320312 32-32 32zm0 0" fill="#ba8a5a"/><path d="m224 480h-192c-17.679688 0-32-14.320312-32-32v32c0 17.679688 14.320312 32 32 32h192c17.679688 0 32-14.320312 32-32v-32c0 17.679688-14.320312 32-32 32zm0 0" fill="#ba8a5a"/><path d="m288 448v-192c-17.679688 0-32 14.320312-32 32v192c0 17.679688 14.320312 32 32 32h192c17.679688 0 32-14.320312 32-32h-192c-17.679688 0-32-14.320312-32-32zm0 0" fill="#ba8a5a"/></svg>