<svg height="512pt" viewBox="0 -28 512 512" width="512pt" xmlns="http://www.w3.org/2000/svg"><path d="m512 199.589844c0 26.078125-12.640625 49.441406-32 64-13.28125 10.078125-29.921875 16-48 16h-16v-160h16c18.078125 0 34.71875 5.921875 48 16 19.359375 14.558594 32 37.921875 32 64zm0 0" fill="#fdd835"/><path d="m480 135.589844v128c-13.28125 10.078125-29.921875 16-48 16h-16v-160h16c18.078125 0 34.71875 5.921875 48 16zm0 0" fill="#fbc02d"/><path d="m403.167969 396.4375-230.511719-100.863281h-44.65625v-192h44.65625l230.511719-100.863281c21.152343-9.234376 44.832031 6.253906 44.832031 29.34375v335.070312c0 23.074219-23.679688 38.5625-44.832031 29.3125zm0 0" fill="#4adeed"/><path d="m147.519531 263.589844-28.113281 140.542968c-5.980469 29.921876-32.253906 51.457032-62.75 51.457032h-44.175781l38.398437-192zm0 0" fill="#b0b4b9"/><path d="m147.519531 263.589844-12.800781 64h-96.640625l12.800781-64zm0 0" fill="#9da2a5"/><path d="m172.65625 103.589844h-172.65625v192h172.671875v-192.015625zm0 0" fill="#e76e54"/><g fill="#fff"><path d="m244.683594 252.277344 128.003906-128.003906 22.625 22.628906-128 128zm0 0"/><path d="m256 135.589844h32v32h-32zm0 0"/><path d="m352 231.589844h32v32h-32zm0 0"/></g><path d="m112 215.589844c-8.832031 0-16-7.167969-16-16v-96h32v96c0 8.832031-7.167969 16-16 16zm0 0" fill="#fdd835"/><path d="m172.65625 263.574219h-172.65625v32.015625h172.671875v-32.015625zm0 0" fill="#dd523c"/><path d="m32 199.589844h32v32h-32zm0 0" fill="#fff"/><path d="m32 135.589844h32v32h-32zm0 0" fill="#fff"/></svg>