<svg height="512pt" viewBox="0 0 512 512" width="512pt" xmlns="http://www.w3.org/2000/svg"><path d="m416 0v456.640625l-64 42.558594-48-32-48 32-48-32-16 10.5625-32.160156 21.4375-48-32-47.839844 32-64-42.558594v-456.640625zm0 0" fill="#e4edfb"/><path d="m64 96h192v32h-192zm0 0" fill="#57565c"/><path d="m288 96h64v32h-64zm0 0" fill="#57565c"/><path d="m64 160h96v32h-96zm0 0" fill="#57565c"/><path d="m64 224h96v32h-96zm0 0" fill="#57565c"/><path d="m64 288h96v32h-96zm0 0" fill="#57565c"/><path d="m192 192v252.238281l-32.097656 21.363281-47.980469-31.984374-47.96875 32-63.953125-42.671876v33.613282l63.953125 42.671875 47.96875-32 47.980469 31.984375 48.097656-32 48 32.015625 48-32 48 32 64-42.589844v-328.640625h-160c-35.34375 0-64 28.65625-64 64zm0 0" fill="#d7e1f2"/><path d="m480 512h-224c-17.679688 0-32-14.320312-32-32v-288c0-17.679688 14.320312-32 32-32h224c17.679688 0 32 14.320312 32 32v288c0 17.679688-14.320312 32-32 32zm0 0" fill="#e76e54"/><g fill="#fff"><path d="m288 224h160v96h-160zm0 0"/><path d="m288 352h32v32h-32zm0 0"/><path d="m288 416h32v32h-32zm0 0"/><path d="m352 352h32v32h-32zm0 0"/><path d="m352 416h32v32h-32zm0 0"/><path d="m416 352h32v32h-32zm0 0"/><path d="m416 416h32v32h-32zm0 0"/><path d="m64 32h32v32h-32zm0 0"/><path d="m128 32h32v32h-32zm0 0"/></g></svg>