<svg height="512pt" viewBox="0 0 512 512" width="512pt" xmlns="http://www.w3.org/2000/svg"><path d="m63.953125 499.230469-63.953125-42.671875v-424.558594c0-17.679688 14.320312-32 32-32h448c17.679688 0 32 14.320312 32 32v424.558594l-64 42.671875-48-32.015625-48.175781 32-47.984375-31.984375-48 32-47.9375-32-47.980469 32-48-32zm0 0" fill="#fdd835"/><path d="m448 465.617188-48-32.015626-48.175781 32-47.984375-31.984374-48 32-47.9375-32-47.980469 32-47.984375-32-47.96875 32-63.953125-42.671876-.015625 33.613282 63.953125 42.671875 47.96875-32 48 32 47.980469-32 47.9375 32 47.984375-32 47.984375 31.984375 48.191406-32 48 32.015625 64-42.671875v-33.613282zm0 0" fill="#fbc02d"/><g fill="#57565c"><path d="m64 96h256v32h-256zm0 0"/><path d="m400 352h48v-32h-32v-32h-32v34.945312c-18.574219 6.621094-32 24.222657-32 45.054688 0 26.464844 21.535156 48 48 48 8.816406 0 16 7.183594 16 16s-7.183594 16-16 16h-48v32h32v32h32v-34.945312c18.574219-6.621094 32-24.222657 32-45.054688 0-26.464844-21.535156-48-48-48-8.816406 0-16-7.183594-16-16s7.183594-16 16-16zm0 0"/><path d="m352 96h96v32h-96zm0 0"/><path d="m64 160h256v32h-256zm0 0"/><path d="m352 160h96v32h-96zm0 0"/><path d="m352 224h96v32h-96zm0 0"/><path d="m64 224h256v32h-256zm0 0"/><path d="m64 288h256v32h-256zm0 0"/></g></svg>