<svg height="512pt" viewBox="0 0 512 512" width="512pt" xmlns="http://www.w3.org/2000/svg"><path d="m512 0v448c0 35.34375-28.65625 64-64 64h-384c-35.34375 0-64-28.65625-64-64v-448zm0 0" fill="#fdd835"/><path d="m224 512h-160v-192c0-44.113281 35.886719-80 80-80s80 35.886719 80 80zm0 0" fill="#c59969"/><path d="m512 32.320312v191.199219c-.160156 0-.160156.160157-.160156.160157l-127.839844 170.398437-127.839844-170.398437c-36.480468-48.800782-42.398437-112.800782-15.039062-167.359376 11.359375-22.71875 27.519531-41.921874 46.878906-56.320312h192c12.160156 8.960938 22.878906 19.839844 32 32.320312zm0 0" fill="#fbc02d"/><path d="m256 240h192v176h-192zm0 0" fill="#e4edfb"/><path d="m256 240h192v32h-192zm0 0" fill="#d7e1f2"/><path d="m384 394.078125 64-85.308594v-68.769531h-179.601562zm0 0" fill="#d7e1f2"/><path d="m481.152344 1.007812h-194.335938c-18.816406 14.289063-34.578125 33.070313-45.695312 55.3125-1.425782 2.832032-2.386719 5.792969-3.617188 8.671876h274.496094v-32.671876c-8.816406-12.0625-19.183594-22.542968-30.847656-31.3125zm0 0" fill="#787680"/><path d="m512 0v183.359375c-16.960938 15.359375-39.359375 24.640625-64 24.640625-16.960938 0-33.441406-4.640625-48-13.121094-14.558594 8.480469-31.039062 13.121094-48 13.121094s-33.441406-4.640625-48-13.121094c-14.558594 8.480469-31.039062 13.121094-48 13.121094s-33.441406-4.640625-48-13.121094c-14.558594 8.480469-31.039062 13.121094-48 13.121094s-33.441406-4.640625-48-13.121094c-14.558594 8.480469-31.039062 13.121094-48 13.121094-24.640625 0-47.039062-9.28125-64-24.640625v-183.359375zm0 0" fill="#fbc02d"/><path d="m0 16v96c0 35.296875 28.703125 64 64 64 19.199219 0 36.257812-8.671875 48-22.113281 11.742188 13.441406 28.800781 22.113281 48 22.113281s36.257812-8.671875 48-22.113281c11.742188 13.441406 28.800781 22.113281 48 22.113281s36.257812-8.671875 48-22.113281c11.742188 13.441406 28.800781 22.113281 48 22.113281s36.257812-8.671875 48-22.113281c11.742188 13.441406 28.800781 22.113281 48 22.113281 35.296875 0 64-28.703125 64-64v-96zm0 0" fill="#e76e54"/><path d="m304 153.886719c11.742188 13.441406 28.800781 22.113281 48 22.113281s36.257812-8.671875 48-22.113281v-137.886719h-96zm0 0" fill="#fff"/><path d="m112 153.886719c11.742188 13.441406 28.800781 22.113281 48 22.113281s36.257812-8.671875 48-22.113281v-137.886719h-96zm0 0" fill="#fff"/><path d="m0 1.007812h512v32h-512zm0 0" fill="#77959e"/><path d="m384 340.785156-102.238281-136.320312c-29.234375-38.976563-33.859375-90.257813-12.082031-133.824219 21.808593-43.570313 65.601562-70.640625 114.320312-70.640625s92.511719 27.070312 114.320312 70.65625c21.777344 43.566406 17.152344 94.847656-12.082031 133.824219zm0 0" fill="#4adeed"/><path d="m448 128c0 35.347656-28.652344 64-64 64s-64-28.652344-64-64 28.652344-64 64-64 64 28.652344 64 64zm0 0" fill="#77959e"/><path d="m144 240c-44.113281 0-80 35.886719-80 80v32c0-44.113281 35.886719-80 80-80s80 35.886719 80 80v-32c0-44.113281-35.886719-80-80-80zm0 0" fill="#ba8a5a"/></svg>