<svg height="512pt" viewBox="0 0 512 512" width="512pt" xmlns="http://www.w3.org/2000/svg"><path d="m512 512h-448c-35.34375 0-64-28.65625-64-64v-448h512zm0 0" fill="#ecce93"/><path d="m320 0h192v512h-192zm0 0" fill="#c59969"/><path d="m416 512v-512h-96v512zm0 0" fill="#ba8a5a"/><path d="m416 400-95.199219 112h191.199219v-.097656zm0 0" fill="#916e40"/><path d="m320 176v336h-256v-288c0-26.511719 21.488281-48 48-48zm0 0" fill="#e5bd76"/><path d="m480 512h-352c-17.679688 0-32-14.320312-32-32v-240c0-17.679688 14.320312-32 32-32h352c17.679688 0 32 14.320312 32 32v240c0 17.679688-14.320312 32-32 32zm0 0" fill="#9b7cab"/><path d="m96 288h416v64h-416zm0 0" fill="#57565c"/><g fill="#fff"><path d="m160 416h48v32h-48zm0 0"/><path d="m240 416h48v32h-48zm0 0"/><path d="m320 416h48v32h-48zm0 0"/><path d="m400 416h48v32h-48zm0 0"/></g><path d="m224 160h-128c-17.679688 0-32-14.320312-32-32v-48c0-17.679688 14.320312-32 32-32h128c17.679688 0 32 14.320312 32 32v48c0 17.679688-14.320312 32-32 32zm0 0" fill="#2d2d30"/><path d="m256 80h-192c0-17.679688 14.320312-32 32-32h128c17.679688 0 32 14.320312 32 32zm0 0" fill="#57565c"/></svg>