<svg height="512pt" viewBox="-1 -1 512 512.00001" width="512pt" xmlns="http://www.w3.org/2000/svg"><path d="m510.976562 510.976562h-447.105468c-35.273438 0-63.871094-28.597656-63.871094-63.871093v-447.105469h510.976562zm0 0" fill="#ecce93"/><path d="m223.554688 271.457031v47.902344h-31.9375v-47.902344c0-17.566406-14.371094-31.9375-31.9375-31.9375-17.5625 0-31.933594 14.371094-31.933594 31.9375v47.902344h-31.9375v-47.902344c0-35.289062 28.582031-63.871093 63.871094-63.871093 35.289062 0 63.875 28.582031 63.875 63.871093zm0 0" fill="#fff"/><path d="m95.808594 271.457031h31.9375v47.902344h-31.9375zm0 0" fill="#efefef"/><path d="m191.617188 271.457031h31.9375v47.902344h-31.9375zm0 0" fill="#efefef"/><path d="m239.519531 463.074219h-159.679687c-17.644532 0-31.9375-14.292969-31.9375-31.9375v-95.808594c0-17.644531 14.292968-31.933594 31.9375-31.933594h159.679687c17.644531 0 31.9375 14.289063 31.9375 31.933594v95.808594c0 17.644531-14.308593 31.9375-31.9375 31.9375zm0 0" fill="#40a2e7"/><path d="m239.519531 431.136719h-159.679687c-17.644532 0-31.9375-14.289063-31.9375-31.933594v31.933594c0 17.644531 14.292968 31.9375 31.9375 31.9375h159.679687c17.644531 0 31.9375-14.292969 31.9375-31.9375v-31.933594c0 17.644531-14.308593 31.933594-31.9375 31.933594zm0 0" fill="#168de2"/><path d="m319.359375 0h191.617187v510.976562h-191.617187zm0 0" fill="#c59969"/><path d="m415.167969 510.976562v-510.976562h-95.808594v510.976562zm0 0" fill="#ba8a5a"/><path d="m415.167969 399.203125-95.007813 111.773437h190.816406v-.09375zm0 0" fill="#916e40"/><path d="m315.816406 510.976562h3.542969v-3.992187zm0 0" fill="#c6c5ca"/><path d="m143.710938 335.328125h31.9375v31.9375h-31.9375zm0 0" fill="#fff"/><path d="m143.710938 399.203125h31.9375v31.933594h-31.9375zm0 0" fill="#fff"/><path d="m223.554688 159.679688h-127.746094c-17.644532 0-31.9375-14.289063-31.9375-31.933594v-47.90625c0-17.644532 14.292968-31.9375 31.9375-31.9375h127.746094c17.644531 0 31.933593 14.292968 31.933593 31.9375v47.90625c0 17.644531-14.304687 31.933594-31.933593 31.933594zm0 0" fill="#2d2d30"/><path d="m255.488281 79.839844h-191.617187c0-17.644532 14.292968-31.9375 31.9375-31.9375h127.746094c17.628906 0 31.933593 14.292968 31.933593 31.9375zm0 0" fill="#57565c"/></svg>