<svg height="512pt" viewBox="-6 0 512 512" width="512pt" xmlns="http://www.w3.org/2000/svg"><path d="m419.199219 176h-32v-96c0-27.199219-20.800781-48-48-48s-48 20.800781-48 48v96h-32v-96c0-44.800781 35.199219-80 80-80s80 35.199219 80 80zm0 0" fill="#77959e"/><path d="m259.199219 304h-32v-96c0-27.199219-20.800781-48-48-48s-48 20.800781-48 48v96h-32v-96c0-44.800781 35.199219-80 80-80s80 35.199219 80 80zm0 0" fill="#77959e"/><path d="m211.199219 224v288h-211.199219l32-259.199219c1.601562-16 16-28.800781 32-28.800781zm0 0" fill="#addb31"/><path d="m147.199219 224v113.601562c0 78.398438-64 142.398438-142.398438 142.398438l-4.800781 32h209.601562v-288zm0 0" fill="#6fbb2e"/><g fill="#62808c"><path d="m131.199219 208c0-6.398438 1.601562-11.199219 3.199219-16h-33.597657c-1.601562 4.800781-1.601562 11.199219-1.601562 16v16h32zm0 0"/><path d="m147.199219 134.398438v38.402343c8-8 19.199219-12.800781 32-12.800781v-32c-11.199219 0-22.398438 1.601562-32 6.398438zm0 0"/><path d="m291.199219 80c0-4.800781 1.601562-11.199219 3.199219-16h-33.597657c-1.601562 4.800781-1.601562 11.199219-1.601562 16v16h32zm0 0"/><path d="m419.199219 80c0-4.800781 0-11.199219-1.597657-16h-33.601562c1.601562 4.800781 3.199219 11.199219 3.199219 16v16h32zm0 0"/></g><path d="m499.199219 512h-320v-384c0-17.601562 14.402343-32 32-32h256c17.601562 0 32 14.398438 32 32zm0 0" fill="#fe9d58"/><path d="m211.199219 128h32v32h-32zm0 0" fill="#fff"/><path d="m275.199219 128h32v32h-32zm0 0" fill="#fff"/></svg>