<svg height="512pt" viewBox="0 0 512 512" width="512pt" xmlns="http://www.w3.org/2000/svg"><path d="m192 144h256v160h-256zm0 0" fill="#9b7cab"/><path d="m272 144h96v160h-96zm0 0" fill="#fdd835"/><path d="m192 144h256v64h-256zm0 0" fill="#88679b"/><path d="m272 144h96v64h-96zm0 0" fill="#fbc02d"/><path d="m272 456c0 30.929688-25.070312 56-56 56s-56-25.070312-56-56 25.070312-56 56-56 56 25.070312 56 56zm0 0" fill="#57565c"/><path d="m464 456c0 30.929688-25.070312 56-56 56s-56-25.070312-56-56 25.070312-56 56-56 56 25.070312 56 56zm0 0" fill="#57565c"/><path d="m496 368h-364.335938l-80-304h-35.664062c-8.832031 0-16-7.167969-16-16s7.167969-16 16-16h60.335938l80 304h339.664062c8.832031 0 16 7.167969 16 16s-7.167969 16-16 16zm0 0" fill="#77959e"/><path d="m448 58.71875v53.28125h-256v-53.28125c0-3.679688.320312-7.199219.960938-10.71875 5.117187-27.199219 29.117187-48 57.757812-48 18.242188 0 35.839844 8.800781 46.882812 23.519531l1.117188 1.761719 21.28125 38.078125 22.398438-39.839844c11.042968-14.71875 28.640624-23.519531 46.882812-23.519531 28.640625 0 52.640625 20.800781 57.757812 48 .640626 3.519531.960938 7.039062.960938 10.71875zm0 0" fill="#fdd835"/><path d="m216 480c-25.28125 0-46.449219-16.945312-53.390625-40-1.539063 5.105469-2.609375 10.398438-2.609375 16 0 30.878906 25.121094 56 56 56s56-25.121094 56-56c0-5.601562-1.070312-10.894531-2.609375-16-6.941406 23.054688-28.109375 40-53.390625 40zm0 0" fill="#2d2d30"/><path d="m408 480c-25.28125 0-46.449219-16.945312-53.390625-40-1.539063 5.105469-2.609375 10.398438-2.609375 16 0 30.878906 25.121094 56 56 56s56-25.121094 56-56c0-5.601562-1.070312-10.894531-2.609375-16-6.941406 23.054688-28.109375 40-53.390625 40zm0 0" fill="#2d2d30"/><path d="m448 58.71875v53.28125h-256v-53.28125c0-3.679688.320312-7.199219.960938-10.71875h118.398437l8.640625 15.359375 8.640625-15.359375h118.398437c.640626 3.519531.960938 7.039062.960938 10.71875zm0 0" fill="#fbc02d"/><path d="m160 80h320v96h-320zm0 0" fill="#ff668b"/><g fill="#fff"><path d="m272 112h32v32h-32zm0 0"/><path d="m336 112h32v32h-32zm0 0"/></g></svg>