<svg height="512pt" viewBox="0 -6 512 512" width="512pt" xmlns="http://www.w3.org/2000/svg"><path d="m172.734375 500.191406-41.613281-32-41.570313 32-57.550781-44.320312v-455.871094h448v455.886719l-57.679688 44.289062-41.695312-32-41.632812 32-41.601563-31.984375-41.613281 32-41.554688-32zm0 0" fill="#e4edfb"/><path d="m32 16h448v48h-448zm0 0" fill="#d7e1f2"/><g fill="#57565c"><path d="m0 0h512v32h-512zm0 0"/><path d="m96 80h224v32h-224zm0 0"/><path d="m352 80h64v32h-64zm0 0"/><path d="m96 144h128v32h-128zm0 0"/><path d="m352 144h64v32h-64zm0 0"/><path d="m96 208h192v32h-192zm0 0"/><path d="m352 208h64v32h-64zm0 0"/><path d="m96 272h224v32h-224zm0 0"/><path d="m352 272h64v32h-64zm0 0"/><path d="m96 336h160v32h-160zm0 0"/><path d="m352 336h64v32h-64zm0 0"/></g></svg>