<svg height="512pt" viewBox="-32 0 512 512" width="512pt" xmlns="http://www.w3.org/2000/svg"><path d="m224.054688 512-131.246094-107.390625c-79.9375-57.953125-111.90625-156.082031-81.441406-250 30.464843-93.921875 113.953124-154.609375 212.6875-154.609375 98.738281 0 182.226562 60.6875 212.691406 154.609375 30.460937 93.917969-1.503906 192.046875-81.441406 250zm0 0" fill="#e76e54"/><path d="m336.054688 126.078125v163.84375c0 16.605469-13.46875 30.078125-30.078126 30.078125h-163.839843c-16.609375 0-30.082031-13.472656-30.082031-30.078125v-163.84375c0-16.605469 13.472656-30.078125 30.082031-30.078125h163.839843c16.609376 0 30.078126 13.472656 30.078126 30.078125zm0 0" fill="#d7dee2"/><path d="m336.054688 126.078125v31.777344c0 26.65625-20.796876 49.96875-47.453126 50.144531-.175781 0-.371093 0-.546874 0-11.039063 0-21.917969-2.398438-32-6.71875-10.078126 4.320312-20.957032 6.71875-32 6.71875-11.039063 0-21.917969-2.398438-32-6.71875-10.078126 4.320312-20.957032 6.71875-32 6.71875-.175782 0-.367188 0-.542969 0-26.65625-.175781-47.457031-23.488281-47.457031-50.144531v-31.777344c0-16.605469 13.472656-30.078125 30.082031-30.078125h163.839843c16.609376 0 30.078126 13.472656 30.078126 30.078125zm0 0" fill="#bfc9d1"/><path d="m112.054688 126.078125v.050781c0 22.625 14.832031 43.488282 36.882812 48.574219 16.6875 3.855469 32.109375-1.261719 43.117188-11.199219 8.511718 7.679688 19.664062 12.480469 32 12.480469 12.335937 0 23.488281-4.816406 32-12.480469 11.007812 9.921875 26.433593 15.054688 43.121093 11.199219 22.046875-5.085937 36.878907-25.949219 36.878907-48.574219v-.050781c0-16.605469-13.46875-30.078125-30.078126-30.078125h-163.839843c-16.609375 0-30.082031 13.472656-30.082031 30.078125zm0 0" fill="#efefef"/><path d="m272.054688 320h-96v-64c0-26.464844 21.539062-48 48-48 26.464843 0 48 21.535156 48 48zm0 0" fill="#77959e"/><path d="m112.054688 126.078125v.050781c0 22.625 14.832031 43.488282 36.882812 48.574219 16.6875 3.855469 32.109375-1.261719 43.117188-11.199219v-67.503906h-49.917969c-16.609375 0-30.082031 13.472656-30.082031 30.078125zm0 0" fill="#fdd835"/><path d="m256.054688 96v67.519531c11.007812 9.921875 26.433593 15.054688 43.121093 11.199219 22.046875-5.101562 36.878907-25.964844 36.878907-48.589844v-.050781c0-16.605469-13.46875-30.078125-30.078126-30.078125zm0 0" fill="#fdd835"/><path d="m224.054688 208c-26.460938 0-48 21.535156-48 48v32c0-26.464844 21.539062-48 48-48 26.464843 0 48 21.535156 48 48v-32c0-26.464844-21.535157-48-48-48zm0 0" fill="#62808c"/><g fill="#fff"><path d="m176.054688 32h32v32h-32zm0 0"/><path d="m240.054688 32h32v32h-32zm0 0"/></g></svg>