<svg height="512pt" viewBox="-48 0 511 512" width="512pt" xmlns="http://www.w3.org/2000/svg"><path d="m208.386719 502.160156-147.070313-147.070312c-81.089844-81.089844-81.089844-213.058594 0-294.160156 39.28125-39.28125 91.519532-60.929688 147.070313-60.929688 55.554687 0 107.792969 21.648438 147.074219 60.929688 81.085937 81.085937 81.085937 213.054687 0 294.160156zm0 0" fill="#fe9d58"/><path d="m400.386719 512h-32v-32h32zm-64 0h-64v-32h64zm0 0" fill="#77959e"/><path d="m144.386719 512h-64v-32h64zm-96 0h-32v-32h32zm0 0" fill="#77959e"/><path d="m352.386719 208c0 79.527344-64.46875 144-144 144-79.527344 0-144-64.472656-144-144s64.472656-144 144-144c79.53125 0 144 64.472656 144 144zm0 0" fill="#fdd835"/><path d="m256.386719 224h-64v-96h32v64h32zm0 0" fill="#fff"/><path d="m208.386719 96c73.984375 0 135.074219 56.113281 143.058593 128 .589844-5.265625.941407-10.59375.941407-16 0-79.40625-64.605469-144-144-144-79.390625 0-144 64.59375-144 144 0 5.40625.351562 10.734375.945312 16 7.984375-71.886719 69.070313-128 143.054688-128zm0 0" fill="#fbc02d"/></svg>